<?xml version="1.0" encoding="utf-8" standalone="no"?>
<!DOCTYPE svg PUBLIC "-//W3C//DTD SVG 1.1//EN"
  "http://www.w3.org/Graphics/SVG/1.1/DTD/svg11.dtd">
<svg xmlns:xlink="http://www.w3.org/1999/xlink" width="171.36pt" height="504pt" viewBox="0 0 171.36 504" xmlns="http://www.w3.org/2000/svg" version="1.1">
 <metadata>
  <rdf:RDF xmlns:dc="http://purl.org/dc/elements/1.1/" xmlns:cc="http://creativecommons.org/ns#" xmlns:rdf="http://www.w3.org/1999/02/22-rdf-syntax-ns#">
   <cc:Work>
    <dc:type rdf:resource="http://purl.org/dc/dcmitype/StillImage"/>
    <dc:date>2025-08-19T12:00:41.377347</dc:date>
    <dc:format>image/svg+xml</dc:format>
    <dc:creator>
     <cc:Agent>
      <dc:title>Matplotlib v3.10.0, https://matplotlib.org/</dc:title>
     </cc:Agent>
    </dc:creator>
   </cc:Work>
  </rdf:RDF>
 </metadata>
 <defs>
  <style type="text/css">*{stroke-linejoin: round; stroke-linecap: butt}</style>
 </defs>
 <g id="figure_1">
  <g id="patch_1">
   <path d="M 0 504 
L 171.36 504 
L 171.36 0 
L 0 0 
z
" style="fill: #ffffff"/>
  </g>
  <g id="axes_1">
   <g id="patch_2">
    <path d="M 12.852 98.64 
L 158.508 98.64 
L 158.508 10.8 
L 12.852 10.8 
z
" style="fill: #ffffff"/>
   </g>
   <g id="EdgeCollection_1">
    <path d="M 146.590582 54.583567 
C 172.02174 67.453282 172.02174 40.213852 146.590582 53.083567 
C 172.02174 40.213852 172.02174 67.453282 146.590582 54.583567 
" clip-path="url(#p495da7bb9b)" style="fill: #020202"/>
    <path d="M 144.590105 52.507677 
L 134.608191 33.639432 
" clip-path="url(#p495da7bb9b)" style="fill: #020202"/>
    <path d="M 144.146006 52.865196 
L 105.246518 19.981806 
" clip-path="url(#p495da7bb9b)" style="fill: #020202"/>
    <path d="M 143.921734 53.222322 
L 68.62883 19.624679 
" clip-path="url(#p495da7bb9b)" style="fill: #020202"/>
    <path d="M 143.820548 53.540018 
L 38.924244 32.607091 
" clip-path="url(#p495da7bb9b)" style="fill: #020202"/>
    <path d="M 143.791544 53.833567 
L 27.568456 53.833567 
" clip-path="url(#p495da7bb9b)" style="fill: #020202"/>
    <path d="M 143.820548 54.127117 
L 38.924244 75.060043 
" clip-path="url(#p495da7bb9b)" style="fill: #020202"/>
    <path d="M 143.921734 54.444812 
L 72.73826 86.208721 
" clip-path="url(#p495da7bb9b)" style="fill: #020202"/>
    <path d="M 144.146006 54.801939 
L 108.683131 84.780213 
" clip-path="url(#p495da7bb9b)" style="fill: #020202; stroke: #020202; stroke-width: 1.485"/>
    <path d="M 144.590105 55.159457 
L 134.608191 74.027703 
" clip-path="url(#p495da7bb9b)" style="fill: #020202"/>
    <path d="M 135.341848 31.87708 
C 162.112487 22.094124 142.217985 3.487799 134.246313 30.852481 
C 142.217985 3.487799 162.112487 22.094124 135.341848 31.87708 
" clip-path="url(#p495da7bb9b)" style="fill: #020202"/>
    <path d="M 132.536942 31.702297 
L 105.47079 19.624679 
" clip-path="url(#p495da7bb9b)" style="fill: #020202"/>
    <path d="M 132.435756 32.019992 
L 68.730016 19.306984 
" clip-path="url(#p495da7bb9b)" style="fill: #020202"/>
    <path d="M 132.406752 32.313542 
L 38.953248 32.313542 
" clip-path="url(#p495da7bb9b)" style="fill: #020202"/>
    <path d="M 132.435756 32.607091 
L 27.539452 53.540018 
" clip-path="url(#p495da7bb9b)" style="fill: #020202"/>
    <path d="M 132.536942 32.924786 
L 38.823058 74.742348 
" clip-path="url(#p495da7bb9b)" style="fill: #020202"/>
    <path d="M 132.761214 33.281913 
L 71.84117 84.780213 
" clip-path="url(#p495da7bb9b)" style="fill: #020202"/>
    <path d="M 133.205313 33.639432 
L 106.906735 83.350141 
" clip-path="url(#p495da7bb9b)" style="fill: #020202"/>
    <path d="M 133.906752 33.813542 
L 133.906752 73.853593 
" clip-path="url(#p495da7bb9b)" style="fill: #020202"/>
    <path d="M 105.10514 17.899135 
C 122.990288 -4.293089 96.348463 -9.967567 103.638048 17.586657 
C 96.348463 -9.967567 122.990288 -4.293089 105.10514 17.899135 
" clip-path="url(#p495da7bb9b)" style="fill: #020202"/>
    <path d="M 102.60098 19.013435 
L 68.75902 19.013435 
" clip-path="url(#p495da7bb9b)" style="fill: #020202; stroke: #020202; stroke-width: 1.485"/>
    <path d="M 102.629984 19.306984 
L 38.924244 32.019992 
" clip-path="url(#p495da7bb9b)" style="fill: #020202"/>
    <path d="M 102.73117 19.624679 
L 27.438266 53.222322 
" clip-path="url(#p495da7bb9b)" style="fill: #020202"/>
    <path d="M 102.955442 19.981806 
L 38.598786 74.385221 
" clip-path="url(#p495da7bb9b)" style="fill: #020202"/>
    <path d="M 103.399541 20.339324 
L 70.064775 83.350141 
" clip-path="url(#p495da7bb9b)" style="fill: #020202"/>
    <path d="M 104.10098 20.513435 
L 104.10098 82.6537 
" clip-path="url(#p495da7bb9b)" style="fill: #020202"/>
    <path d="M 104.802419 20.339324 
L 133.205313 74.027703 
" clip-path="url(#p495da7bb9b)" style="fill: #020202"/>
    <path d="M 67.721952 17.586657 
C 75.011537 -9.967567 48.369712 -4.293089 66.25486 17.899135 
C 48.369712 -4.293089 75.011537 -9.967567 67.721952 17.586657 
" clip-path="url(#p495da7bb9b)" style="fill: #020202"/>
    <path d="M 65.88921 19.624679 
L 38.823058 31.702297 
" clip-path="url(#p495da7bb9b)" style="fill: #020202"/>
    <path d="M 66.113482 19.981806 
L 27.213994 52.865196 
" clip-path="url(#p495da7bb9b)" style="fill: #020202"/>
    <path d="M 66.557581 20.339324 
L 38.154687 74.027703 
" clip-path="url(#p495da7bb9b)" style="fill: #020202"/>
    <path d="M 67.25902 20.513435 
L 67.25902 82.6537 
" clip-path="url(#p495da7bb9b)" style="fill: #020202"/>
    <path d="M 67.960459 20.339324 
L 101.295225 83.350141 
" clip-path="url(#p495da7bb9b)" style="fill: #020202"/>
    <path d="M 68.404558 19.981806 
L 132.761214 74.385221 
" clip-path="url(#p495da7bb9b)" style="fill: #020202"/>
    <path d="M 37.113687 30.852481 
C 29.142015 3.487799 9.247513 22.094124 36.018152 31.87708 
C 9.247513 22.094124 29.142015 3.487799 37.113687 30.852481 
" clip-path="url(#p495da7bb9b)" style="fill: #020202"/>
    <path d="M 36.751809 33.639432 
L 26.769895 52.507677 
" clip-path="url(#p495da7bb9b)" style="fill: #020202"/>
    <path d="M 37.453248 33.813542 
L 37.453248 73.853593 
" clip-path="url(#p495da7bb9b)" style="fill: #020202"/>
    <path d="M 38.154687 33.639432 
L 64.453265 83.350141 
" clip-path="url(#p495da7bb9b)" style="fill: #020202"/>
    <path d="M 38.598786 33.281913 
L 99.51883 84.780213 
" clip-path="url(#p495da7bb9b)" style="fill: #020202"/>
    <path d="M 38.823058 32.924786 
L 132.536942 74.742348 
" clip-path="url(#p495da7bb9b)" style="fill: #020202"/>
    <path d="M 24.769418 53.083567 
C -0.66174 40.213852 -0.66174 67.453282 24.769418 54.583567 
C -0.66174 67.453282 -0.66174 40.213852 24.769418 53.083567 
" clip-path="url(#p495da7bb9b)" style="fill: #020202"/>
    <path d="M 26.769895 55.159457 
L 36.751809 74.027703 
" clip-path="url(#p495da7bb9b)" style="fill: #020202"/>
    <path d="M 27.213994 54.801939 
L 62.676869 84.780213 
" clip-path="url(#p495da7bb9b)" style="fill: #020202"/>
    <path d="M 27.438266 54.444812 
L 98.62174 86.208721 
" clip-path="url(#p495da7bb9b)" style="fill: #020202"/>
    <path d="M 27.539452 54.127117 
L 132.435756 75.060043 
" clip-path="url(#p495da7bb9b)" style="fill: #020202"/>
    <path d="M 36.018152 75.790054 
C 9.247513 85.57301 29.142015 104.179335 37.113687 76.814653 
C 29.142015 104.179335 9.247513 85.57301 36.018152 75.790054 
" clip-path="url(#p495da7bb9b)" style="fill: #020202"/>
    <path d="M 38.823058 75.964837 
L 61.779779 86.208721 
" clip-path="url(#p495da7bb9b)" style="fill: #020202; stroke: #020202; stroke-width: 1.485"/>
    <path d="M 38.924244 75.647142 
L 98.216997 87.479502 
" clip-path="url(#p495da7bb9b)" style="fill: #020202"/>
    <path d="M 38.953248 75.353593 
L 132.406752 75.353593 
" clip-path="url(#p495da7bb9b)" style="fill: #020202"/>
    <path d="M 63.242382 93.110898 
C 48.369712 111.960223 75.011537 117.634702 69.110748 94.36081 
C 75.011537 117.634702 48.369712 111.960223 63.242382 93.110898 
" clip-path="url(#p495da7bb9b)" style="fill: #020202"/>
    <path d="M 73.25902 88.6537 
L 98.10098 88.6537 
" clip-path="url(#p495da7bb9b)" style="fill: #020202; stroke: #020202; stroke-width: 1.485"/>
    <path d="M 73.143003 87.479502 
L 132.435756 75.647142 
" clip-path="url(#p495da7bb9b)" style="fill: #020202"/>
    <path d="M 102.249252 94.36081 
C 96.348463 117.634702 122.990288 111.960223 108.117618 93.110898 
C 122.990288 111.960223 96.348463 117.634702 102.249252 94.36081 
" clip-path="url(#p495da7bb9b)" style="fill: #020202"/>
    <path d="M 109.580221 86.208721 
L 132.536942 75.964837 
" clip-path="url(#p495da7bb9b)" style="fill: #020202"/>
    <path d="M 134.246313 76.814653 
C 142.217985 104.179335 162.112487 85.57301 135.341848 75.790054 
C 162.112487 85.57301 142.217985 104.179335 134.246313 76.814653 
" clip-path="url(#p495da7bb9b)" style="fill: #020202"/>
   </g>
   <g id="VertexCollection_1">
    <path d="M 145.291544 55.333567 
C 145.689348 55.333567 146.070914 55.175518 146.352204 54.894227 
C 146.633494 54.612937 146.791544 54.231372 146.791544 53.833567 
C 146.791544 53.435763 146.633494 53.054197 146.352204 52.772907 
C 146.070914 52.491617 145.689348 52.333567 145.291544 52.333567 
C 144.893739 52.333567 144.512174 52.491617 144.230884 52.772907 
C 143.949593 53.054197 143.791544 53.435763 143.791544 53.833567 
C 143.791544 54.231372 143.949593 54.612937 144.230884 54.894227 
C 144.512174 55.175518 144.893739 55.333567 145.291544 55.333567 
z
" clip-path="url(#p495da7bb9b)" style="fill: #bebebe; stroke: #00ff00; stroke-width: 3"/>
    <path d="M 133.906752 33.813542 
C 134.304557 33.813542 134.686122 33.655492 134.967412 33.374202 
C 135.248703 33.092912 135.406752 32.711346 135.406752 32.313542 
C 135.406752 31.915737 135.248703 31.534172 134.967412 31.252882 
C 134.686122 30.971591 134.304557 30.813542 133.906752 30.813542 
C 133.508947 30.813542 133.127382 30.971591 132.846092 31.252882 
C 132.564801 31.534172 132.406752 31.915737 132.406752 32.313542 
C 132.406752 32.711346 132.564801 33.092912 132.846092 33.374202 
C 133.127382 33.655492 133.508947 33.813542 133.906752 33.813542 
z
" clip-path="url(#p495da7bb9b)" style="fill: #bebebe; stroke: #00ff00; stroke-width: 3"/>
    <path d="M 104.10098 20.513435 
C 104.498785 20.513435 104.88035 20.355385 105.16164 20.074095 
C 105.442931 19.792804 105.60098 19.411239 105.60098 19.013435 
C 105.60098 18.61563 105.442931 18.234065 105.16164 17.952774 
C 104.88035 17.671484 104.498785 17.513435 104.10098 17.513435 
C 103.703175 17.513435 103.32161 17.671484 103.04032 17.952774 
C 102.75903 18.234065 102.60098 18.61563 102.60098 19.013435 
C 102.60098 19.411239 102.75903 19.792804 103.04032 20.074095 
C 103.32161 20.355385 103.703175 20.513435 104.10098 20.513435 
z
" clip-path="url(#p495da7bb9b)" style="fill: #bebebe; stroke: #ff0000; stroke-width: 3"/>
    <path d="M 67.25902 20.513435 
C 67.656825 20.513435 68.03839 20.355385 68.31968 20.074095 
C 68.60097 19.792804 68.75902 19.411239 68.75902 19.013435 
C 68.75902 18.61563 68.60097 18.234065 68.31968 17.952774 
C 68.03839 17.671484 67.656825 17.513435 67.25902 17.513435 
C 66.861215 17.513435 66.47965 17.671484 66.19836 17.952774 
C 65.917069 18.234065 65.75902 18.61563 65.75902 19.013435 
C 65.75902 19.411239 65.917069 19.792804 66.19836 20.074095 
C 66.47965 20.355385 66.861215 20.513435 67.25902 20.513435 
z
" clip-path="url(#p495da7bb9b)" style="fill: #bebebe; stroke: #ff0000; stroke-width: 3"/>
    <path d="M 37.453248 33.813542 
C 37.851053 33.813542 38.232618 33.655492 38.513908 33.374202 
C 38.795199 33.092912 38.953248 32.711346 38.953248 32.313542 
C 38.953248 31.915737 38.795199 31.534172 38.513908 31.252882 
C 38.232618 30.971591 37.851053 30.813542 37.453248 30.813542 
C 37.055443 30.813542 36.673878 30.971591 36.392588 31.252882 
C 36.111297 31.534172 35.953248 31.915737 35.953248 32.313542 
C 35.953248 32.711346 36.111297 33.092912 36.392588 33.374202 
C 36.673878 33.655492 37.055443 33.813542 37.453248 33.813542 
z
" clip-path="url(#p495da7bb9b)" style="fill: #bebebe; stroke: #00ff00; stroke-width: 3"/>
    <path d="M 26.068456 55.333567 
C 26.466261 55.333567 26.847826 55.175518 27.129116 54.894227 
C 27.410407 54.612937 27.568456 54.231372 27.568456 53.833567 
C 27.568456 53.435763 27.410407 53.054197 27.129116 52.772907 
C 26.847826 52.491617 26.466261 52.333567 26.068456 52.333567 
C 25.670652 52.333567 25.289086 52.491617 25.007796 52.772907 
C 24.726506 53.054197 24.568456 53.435763 24.568456 53.833567 
C 24.568456 54.231372 24.726506 54.612937 25.007796 54.894227 
C 25.289086 55.175518 25.670652 55.333567 26.068456 55.333567 
z
" clip-path="url(#p495da7bb9b)" style="fill: #bebebe; stroke: #00ff00; stroke-width: 3"/>
    <path d="M 37.453248 76.853593 
C 37.851053 76.853593 38.232618 76.695543 38.513908 76.414253 
C 38.795199 76.132962 38.953248 75.751397 38.953248 75.353593 
C 38.953248 74.955788 38.795199 74.574223 38.513908 74.292932 
C 38.232618 74.011642 37.851053 73.853593 37.453248 73.853593 
C 37.055443 73.853593 36.673878 74.011642 36.392588 74.292932 
C 36.111297 74.574223 35.953248 74.955788 35.953248 75.353593 
C 35.953248 75.751397 36.111297 76.132962 36.392588 76.414253 
C 36.673878 76.695543 37.055443 76.853593 37.453248 76.853593 
z
" clip-path="url(#p495da7bb9b)" style="fill: #bebebe; stroke: #00ff00; stroke-width: 3"/>
    <path d="M 67.25902 94.6537 
C 68.850238 94.6537 70.376499 94.021502 71.501661 92.89634 
C 72.626822 91.771179 73.25902 90.244918 73.25902 88.6537 
C 73.25902 87.062481 72.626822 85.536221 71.501661 84.411059 
C 70.376499 83.285898 68.850238 82.6537 67.25902 82.6537 
C 65.667801 82.6537 64.141541 83.285898 63.016379 84.411059 
C 61.891218 85.536221 61.25902 87.062481 61.25902 88.6537 
C 61.25902 90.244918 61.891218 91.771179 63.016379 92.89634 
C 64.141541 94.021502 65.667801 94.6537 67.25902 94.6537 
z
" clip-path="url(#p495da7bb9b)" style="fill: #bebebe; stroke: #00ff00; stroke-width: 3"/>
    <path d="M 104.10098 94.6537 
C 105.692199 94.6537 107.218459 94.021502 108.343621 92.89634 
C 109.468782 91.771179 110.10098 90.244918 110.10098 88.6537 
C 110.10098 87.062481 109.468782 85.536221 108.343621 84.411059 
C 107.218459 83.285898 105.692199 82.6537 104.10098 82.6537 
C 102.509762 82.6537 100.983501 83.285898 99.858339 84.411059 
C 98.733178 85.536221 98.10098 87.062481 98.10098 88.6537 
C 98.10098 90.244918 98.733178 91.771179 99.858339 92.89634 
C 100.983501 94.021502 102.509762 94.6537 104.10098 94.6537 
z
" clip-path="url(#p495da7bb9b)" style="fill: #bebebe; stroke: #00ff00; stroke-width: 3"/>
    <path d="M 133.906752 76.853593 
C 134.304557 76.853593 134.686122 76.695543 134.967412 76.414253 
C 135.248703 76.132962 135.406752 75.751397 135.406752 75.353593 
C 135.406752 74.955788 135.248703 74.574223 134.967412 74.292932 
C 134.686122 74.011642 134.304557 73.853593 133.906752 73.853593 
C 133.508947 73.853593 133.127382 74.011642 132.846092 74.292932 
C 132.564801 74.574223 132.406752 74.955788 132.406752 75.353593 
C 132.406752 75.751397 132.564801 76.132962 132.846092 76.414253 
C 133.127382 76.695543 133.508947 76.853593 133.906752 76.853593 
z
" clip-path="url(#p495da7bb9b)" style="fill: #bebebe; stroke: #00ff00; stroke-width: 3"/>
   </g>
   <g id="matplotlib.axis_1"/>
   <g id="matplotlib.axis_2"/>
  </g>
  <g id="axes_2">
   <g id="patch_3">
    <path d="M 12.852 197.28 
L 158.508 197.28 
L 158.508 109.44 
L 12.852 109.44 
z
" style="fill: #ffffff"/>
   </g>
   <g id="EdgeCollection_2">
    <path d="M 146.590582 154.11 
C 172.02174 166.979715 172.02174 139.740285 146.590582 152.61 
C 172.02174 139.740285 172.02174 166.979715 146.590582 154.11 
" clip-path="url(#pe5d1823e3f)" style="fill: #020202"/>
    <path d="M 144.576828 152.04122 
L 134.621468 133.671773 
" clip-path="url(#pe5d1823e3f)" style="fill: #020202"/>
    <path d="M 144.134592 152.405295 
L 108.728788 123.18877 
" clip-path="url(#pe5d1823e3f)" style="fill: #020202; stroke: #020202; stroke-width: 1.485"/>
    <path d="M 143.916344 152.760979 
L 68.63422 119.96897 
" clip-path="url(#pe5d1823e3f)" style="fill: #020202"/>
    <path d="M 143.819219 153.07319 
L 38.925573 132.639803 
" clip-path="url(#pe5d1823e3f)" style="fill: #020202"/>
    <path d="M 143.791544 153.36 
L 27.568456 153.36 
" clip-path="url(#pe5d1823e3f)" style="fill: #020202"/>
    <path d="M 143.819219 153.64681 
L 43.342547 173.219766 
" clip-path="url(#pe5d1823e3f)" style="fill: #020202"/>
    <path d="M 143.916344 153.959021 
L 72.759818 184.953968 
" clip-path="url(#pe5d1823e3f)" style="fill: #020202"/>
    <path d="M 144.134592 154.314705 
L 108.728788 183.53123 
" clip-path="url(#pe5d1823e3f)" style="fill: #020202"/>
    <path d="M 144.576828 154.67878 
L 134.621468 173.048227 
" clip-path="url(#pe5d1823e3f)" style="fill: #020202"/>
    <path d="M 135.337649 131.902956 
C 162.014411 121.866834 141.944539 103.44981 134.232457 130.888781 
C 141.944539 103.44981 162.014411 121.866834 135.337649 131.902956 
" clip-path="url(#pe5d1823e3f)" style="fill: #020202"/>
    <path d="M 132.531552 131.753972 
L 109.601779 121.766032 
" clip-path="url(#pe5d1823e3f)" style="fill: #020202"/>
    <path d="M 132.434427 132.066183 
L 68.731345 119.656759 
" clip-path="url(#pe5d1823e3f)" style="fill: #020202"/>
    <path d="M 132.406752 132.352993 
L 38.953248 132.352993 
" clip-path="url(#pe5d1823e3f)" style="fill: #020202"/>
    <path d="M 132.434427 132.639803 
L 27.540781 153.07319 
" clip-path="url(#pe5d1823e3f)" style="fill: #020202"/>
    <path d="M 132.531552 132.952014 
L 42.954047 171.970924 
" clip-path="url(#pe5d1823e3f)" style="fill: #020202"/>
    <path d="M 132.7498 133.307698 
L 71.886827 183.53123 
" clip-path="url(#pe5d1823e3f)" style="fill: #020202"/>
    <path d="M 133.192036 133.671773 
L 106.959843 182.07493 
" clip-path="url(#pe5d1823e3f)" style="fill: #020202"/>
    <path d="M 133.906752 133.852993 
L 133.906752 172.867007 
" clip-path="url(#pe5d1823e3f)" style="fill: #020202"/>
    <path d="M 108.09773 114.894908 
C 122.886314 95.97954 96.219485 90.423757 102.223856 113.671142 
C 96.219485 90.423757 122.886314 95.97954 108.09773 114.894908 
" clip-path="url(#pe5d1823e3f)" style="fill: #020202"/>
    <path d="M 98.10098 119.369949 
L 68.75902 119.369949 
" clip-path="url(#pe5d1823e3f)" style="fill: #020202; stroke: #020202; stroke-width: 1.485"/>
    <path d="M 98.211682 120.51719 
L 38.925573 132.066183 
" clip-path="url(#pe5d1823e3f)" style="fill: #020202"/>
    <path d="M 98.600182 121.766032 
L 27.443656 152.760979 
" clip-path="url(#pe5d1823e3f)" style="fill: #020202"/>
    <path d="M 99.473173 123.18877 
L 42.081055 170.548185 
" clip-path="url(#pe5d1823e3f)" style="fill: #020202"/>
    <path d="M 101.242117 124.64507 
L 70.117883 182.07493 
" clip-path="url(#pe5d1823e3f)" style="fill: #020202"/>
    <path d="M 104.10098 125.369949 
L 104.10098 181.350051 
" clip-path="url(#pe5d1823e3f)" style="fill: #020202"/>
    <path d="M 106.959843 124.64507 
L 133.192036 173.048227 
" clip-path="url(#pe5d1823e3f)" style="fill: #020202"/>
    <path d="M 67.728301 117.945247 
C 75.140515 90.423757 48.473686 95.97954 66.259832 118.251189 
C 48.473686 95.97954 75.140515 90.423757 67.728301 117.945247 
" clip-path="url(#pe5d1823e3f)" style="fill: #020202"/>
    <path d="M 65.88382 119.96897 
L 38.828448 131.753972 
" clip-path="url(#pe5d1823e3f)" style="fill: #020202"/>
    <path d="M 66.102068 120.324654 
L 27.225408 152.405295 
" clip-path="url(#pe5d1823e3f)" style="fill: #020202"/>
    <path d="M 66.544304 120.688729 
L 40.312111 169.091886 
" clip-path="url(#pe5d1823e3f)" style="fill: #020202"/>
    <path d="M 67.25902 120.869949 
L 67.25902 181.350051 
" clip-path="url(#pe5d1823e3f)" style="fill: #020202"/>
    <path d="M 67.973736 120.688729 
L 101.242117 182.07493 
" clip-path="url(#pe5d1823e3f)" style="fill: #020202"/>
    <path d="M 68.415972 120.324654 
L 132.7498 173.412302 
" clip-path="url(#pe5d1823e3f)" style="fill: #020202"/>
    <path d="M 37.127543 130.888781 
C 29.415461 103.44981 9.345589 121.866834 36.022351 131.902956 
C 9.345589 121.866834 29.415461 103.44981 37.127543 130.888781 
" clip-path="url(#pe5d1823e3f)" style="fill: #020202"/>
    <path d="M 36.738532 133.671773 
L 26.783172 152.04122 
" clip-path="url(#pe5d1823e3f)" style="fill: #020202"/>
    <path d="M 37.453248 133.852993 
L 37.453248 168.367007 
" clip-path="url(#pe5d1823e3f)" style="fill: #020202"/>
    <path d="M 38.167964 133.671773 
L 64.400157 182.07493 
" clip-path="url(#pe5d1823e3f)" style="fill: #020202"/>
    <path d="M 38.6102 133.307698 
L 99.473173 183.53123 
" clip-path="url(#pe5d1823e3f)" style="fill: #020202"/>
    <path d="M 38.828448 132.952014 
L 132.531552 173.767986 
" clip-path="url(#pe5d1823e3f)" style="fill: #020202"/>
    <path d="M 24.769418 152.61 
C -0.66174 139.740285 -0.66174 166.979715 24.769418 154.11 
C -0.66174 166.979715 -0.66174 139.740285 24.769418 152.61 
" clip-path="url(#pe5d1823e3f)" style="fill: #020202"/>
    <path d="M 26.783172 154.67878 
L 34.594385 169.091886 
" clip-path="url(#pe5d1823e3f)" style="fill: #020202"/>
    <path d="M 27.225408 154.314705 
L 62.631212 183.53123 
" clip-path="url(#pe5d1823e3f)" style="fill: #020202"/>
    <path d="M 27.443656 153.959021 
L 98.600182 184.953968 
" clip-path="url(#pe5d1823e3f)" style="fill: #020202"/>
    <path d="M 27.540781 153.64681 
L 132.434427 174.080197 
" clip-path="url(#pe5d1823e3f)" style="fill: #020202"/>
    <path d="M 31.72966 176.167156 
C 9.345589 184.853166 29.415461 203.27019 36.150429 180.223854 
C 29.415461 203.27019 9.345589 184.853166 31.72966 176.167156 
" clip-path="url(#pe5d1823e3f)" style="fill: #020202"/>
    <path d="M 42.954047 176.76309 
L 61.758221 184.953968 
" clip-path="url(#pe5d1823e3f)" style="fill: #020202; stroke: #020202; stroke-width: 1.485"/>
    <path d="M 43.342547 175.514248 
L 98.211682 186.20281 
" clip-path="url(#pe5d1823e3f)" style="fill: #020202; stroke: #020202; stroke-width: 1.485"/>
    <path d="M 43.453248 174.367007 
L 132.406752 174.367007 
" clip-path="url(#pe5d1823e3f)" style="fill: #020202"/>
    <path d="M 63.26227 191.825092 
C 48.473686 210.74046 75.140515 216.296243 69.136144 193.048858 
C 75.140515 216.296243 48.473686 210.74046 63.26227 191.825092 
" clip-path="url(#pe5d1823e3f)" style="fill: #020202"/>
    <path d="M 73.25902 187.350051 
L 98.10098 187.350051 
" clip-path="url(#pe5d1823e3f)" style="fill: #020202; stroke: #020202; stroke-width: 1.485"/>
    <path d="M 73.148318 186.20281 
L 132.434427 174.653817 
" clip-path="url(#pe5d1823e3f)" style="fill: #020202"/>
    <path d="M 102.223856 193.048858 
C 96.219485 216.296243 122.886314 210.74046 108.09773 191.825092 
C 122.886314 210.74046 96.219485 216.296243 102.223856 193.048858 
" clip-path="url(#pe5d1823e3f)" style="fill: #020202"/>
    <path d="M 109.601779 184.953968 
L 132.531552 174.966028 
" clip-path="url(#pe5d1823e3f)" style="fill: #020202"/>
    <path d="M 134.232457 175.831219 
C 141.944539 203.27019 162.014411 184.853166 135.337649 174.817044 
C 162.014411 184.853166 141.944539 203.27019 134.232457 175.831219 
" clip-path="url(#pe5d1823e3f)" style="fill: #020202"/>
   </g>
   <g id="VertexCollection_2">
    <path d="M 145.291544 154.86 
C 145.689348 154.86 146.070914 154.701951 146.352204 154.42066 
C 146.633494 154.13937 146.791544 153.757805 146.791544 153.36 
C 146.791544 152.962195 146.633494 152.58063 146.352204 152.29934 
C 146.070914 152.018049 145.689348 151.86 145.291544 151.86 
C 144.893739 151.86 144.512174 152.018049 144.230884 152.29934 
C 143.949593 152.58063 143.791544 152.962195 143.791544 153.36 
C 143.791544 153.757805 143.949593 154.13937 144.230884 154.42066 
C 144.512174 154.701951 144.893739 154.86 145.291544 154.86 
z
" clip-path="url(#pe5d1823e3f)" style="fill: #bebebe; stroke: #00ff00; stroke-width: 3"/>
    <path d="M 133.906752 133.852993 
C 134.304557 133.852993 134.686122 133.694944 134.967412 133.413653 
C 135.248703 133.132363 135.406752 132.750798 135.406752 132.352993 
C 135.406752 131.955188 135.248703 131.573623 134.967412 131.292333 
C 134.686122 131.011043 134.304557 130.852993 133.906752 130.852993 
C 133.508947 130.852993 133.127382 131.011043 132.846092 131.292333 
C 132.564801 131.573623 132.406752 131.955188 132.406752 132.352993 
C 132.406752 132.750798 132.564801 133.132363 132.846092 133.413653 
C 133.127382 133.694944 133.508947 133.852993 133.906752 133.852993 
z
" clip-path="url(#pe5d1823e3f)" style="fill: #bebebe; stroke: #00ff00; stroke-width: 3"/>
    <path d="M 104.10098 125.369949 
C 105.692199 125.369949 107.218459 124.737751 108.343621 123.61259 
C 109.468782 122.487428 110.10098 120.961167 110.10098 119.369949 
C 110.10098 117.77873 109.468782 116.25247 108.343621 115.127308 
C 107.218459 114.002147 105.692199 113.369949 104.10098 113.369949 
C 102.509762 113.369949 100.983501 114.002147 99.858339 115.127308 
C 98.733178 116.25247 98.10098 117.77873 98.10098 119.369949 
C 98.10098 120.961167 98.733178 122.487428 99.858339 123.61259 
C 100.983501 124.737751 102.509762 125.369949 104.10098 125.369949 
z
" clip-path="url(#pe5d1823e3f)" style="fill: #bebebe; stroke: #ff0000; stroke-width: 3"/>
    <path d="M 67.25902 120.869949 
C 67.656825 120.869949 68.03839 120.711899 68.31968 120.430609 
C 68.60097 120.149319 68.75902 119.767753 68.75902 119.369949 
C 68.75902 118.972144 68.60097 118.590579 68.31968 118.309289 
C 68.03839 118.027998 67.656825 117.869949 67.25902 117.869949 
C 66.861215 117.869949 66.47965 118.027998 66.19836 118.309289 
C 65.917069 118.590579 65.75902 118.972144 65.75902 119.369949 
C 65.75902 119.767753 65.917069 120.149319 66.19836 120.430609 
C 66.47965 120.711899 66.861215 120.869949 67.25902 120.869949 
z
" clip-path="url(#pe5d1823e3f)" style="fill: #bebebe; stroke: #ff0000; stroke-width: 3"/>
    <path d="M 37.453248 133.852993 
C 37.851053 133.852993 38.232618 133.694944 38.513908 133.413653 
C 38.795199 133.132363 38.953248 132.750798 38.953248 132.352993 
C 38.953248 131.955188 38.795199 131.573623 38.513908 131.292333 
C 38.232618 131.011043 37.851053 130.852993 37.453248 130.852993 
C 37.055443 130.852993 36.673878 131.011043 36.392588 131.292333 
C 36.111297 131.573623 35.953248 131.955188 35.953248 132.352993 
C 35.953248 132.750798 36.111297 133.132363 36.392588 133.413653 
C 36.673878 133.694944 37.055443 133.852993 37.453248 133.852993 
z
" clip-path="url(#pe5d1823e3f)" style="fill: #bebebe; stroke: #00ff00; stroke-width: 3"/>
    <path d="M 26.068456 154.86 
C 26.466261 154.86 26.847826 154.701951 27.129116 154.42066 
C 27.410407 154.13937 27.568456 153.757805 27.568456 153.36 
C 27.568456 152.962195 27.410407 152.58063 27.129116 152.29934 
C 26.847826 152.018049 26.466261 151.86 26.068456 151.86 
C 25.670652 151.86 25.289086 152.018049 25.007796 152.29934 
C 24.726506 152.58063 24.568456 152.962195 24.568456 153.36 
C 24.568456 153.757805 24.726506 154.13937 25.007796 154.42066 
C 25.289086 154.701951 25.670652 154.86 26.068456 154.86 
z
" clip-path="url(#pe5d1823e3f)" style="fill: #bebebe; stroke: #00ff00; stroke-width: 3"/>
    <path d="M 37.453248 180.367007 
C 39.044467 180.367007 40.570727 179.734809 41.695889 178.609648 
C 42.82105 177.484486 43.453248 175.958225 43.453248 174.367007 
C 43.453248 172.775788 42.82105 171.249528 41.695889 170.124366 
C 40.570727 168.999205 39.044467 168.367007 37.453248 168.367007 
C 35.862029 168.367007 34.335769 168.999205 33.210607 170.124366 
C 32.085446 171.249528 31.453248 172.775788 31.453248 174.367007 
C 31.453248 175.958225 32.085446 177.484486 33.210607 178.609648 
C 34.335769 179.734809 35.862029 180.367007 37.453248 180.367007 
z
" clip-path="url(#pe5d1823e3f)" style="fill: #bebebe; stroke: #00ff00; stroke-width: 3"/>
    <path d="M 67.25902 193.350051 
C 68.850238 193.350051 70.376499 192.717853 71.501661 191.592692 
C 72.626822 190.46753 73.25902 188.94127 73.25902 187.350051 
C 73.25902 185.758833 72.626822 184.232572 71.501661 183.10741 
C 70.376499 181.982249 68.850238 181.350051 67.25902 181.350051 
C 65.667801 181.350051 64.141541 181.982249 63.016379 183.10741 
C 61.891218 184.232572 61.25902 185.758833 61.25902 187.350051 
C 61.25902 188.94127 61.891218 190.46753 63.016379 191.592692 
C 64.141541 192.717853 65.667801 193.350051 67.25902 193.350051 
z
" clip-path="url(#pe5d1823e3f)" style="fill: #bebebe; stroke: #00ff00; stroke-width: 3"/>
    <path d="M 104.10098 193.350051 
C 105.692199 193.350051 107.218459 192.717853 108.343621 191.592692 
C 109.468782 190.46753 110.10098 188.94127 110.10098 187.350051 
C 110.10098 185.758833 109.468782 184.232572 108.343621 183.10741 
C 107.218459 181.982249 105.692199 181.350051 104.10098 181.350051 
C 102.509762 181.350051 100.983501 181.982249 99.858339 183.10741 
C 98.733178 184.232572 98.10098 185.758833 98.10098 187.350051 
C 98.10098 188.94127 98.733178 190.46753 99.858339 191.592692 
C 100.983501 192.717853 102.509762 193.350051 104.10098 193.350051 
z
" clip-path="url(#pe5d1823e3f)" style="fill: #bebebe; stroke: #00ff00; stroke-width: 3"/>
    <path d="M 133.906752 175.867007 
C 134.304557 175.867007 134.686122 175.708957 134.967412 175.427667 
C 135.248703 175.146377 135.406752 174.764812 135.406752 174.367007 
C 135.406752 173.969202 135.248703 173.587637 134.967412 173.306347 
C 134.686122 173.025056 134.304557 172.867007 133.906752 172.867007 
C 133.508947 172.867007 133.127382 173.025056 132.846092 173.306347 
C 132.564801 173.587637 132.406752 173.969202 132.406752 174.367007 
C 132.406752 174.764812 132.564801 175.146377 132.846092 175.427667 
C 133.127382 175.708957 133.508947 175.867007 133.906752 175.867007 
z
" clip-path="url(#pe5d1823e3f)" style="fill: #bebebe; stroke: #00ff00; stroke-width: 3"/>
   </g>
   <g id="matplotlib.axis_3"/>
   <g id="matplotlib.axis_4"/>
  </g>
  <g id="axes_3">
   <g id="patch_4">
    <path d="M 12.852 295.92 
L 158.508 295.92 
L 158.508 208.08 
L 12.852 208.08 
z
" style="fill: #ffffff"/>
   </g>
   <g id="EdgeCollection_3">
    <path d="M 146.590582 252.75 
C 172.02174 265.619715 172.02174 238.380285 146.590582 251.25 
C 172.02174 238.380285 172.02174 265.619715 146.590582 252.75 
" clip-path="url(#p52d91c678d)" style="fill: #020202"/>
    <path d="M 144.576828 250.68122 
L 134.621468 232.311773 
" clip-path="url(#p52d91c678d)" style="fill: #020202"/>
    <path d="M 144.134592 251.045295 
L 108.728788 221.82877 
" clip-path="url(#p52d91c678d)" style="fill: #020202; stroke: #020202; stroke-width: 1.485"/>
    <path d="M 143.916344 251.400979 
L 68.63422 218.60897 
" clip-path="url(#p52d91c678d)" style="fill: #020202"/>
    <path d="M 143.819219 251.71319 
L 38.925573 231.279803 
" clip-path="url(#p52d91c678d)" style="fill: #020202"/>
    <path d="M 143.791544 252 
L 27.568456 252 
" clip-path="url(#p52d91c678d)" style="fill: #020202"/>
    <path d="M 143.819219 252.28681 
L 43.342547 271.859766 
" clip-path="url(#p52d91c678d)" style="fill: #020202"/>
    <path d="M 143.916344 252.599021 
L 72.759818 283.593968 
" clip-path="url(#p52d91c678d)" style="fill: #020202"/>
    <path d="M 144.134592 252.954705 
L 108.728788 282.17123 
" clip-path="url(#p52d91c678d)" style="fill: #020202"/>
    <path d="M 144.576828 253.31878 
L 134.621468 271.688227 
" clip-path="url(#p52d91c678d)" style="fill: #020202"/>
    <path d="M 135.337649 230.542956 
C 162.014411 220.506834 141.944539 202.08981 134.232457 229.528781 
C 141.944539 202.08981 162.014411 220.506834 135.337649 230.542956 
" clip-path="url(#p52d91c678d)" style="fill: #020202"/>
    <path d="M 132.531552 230.393972 
L 109.601779 220.406032 
" clip-path="url(#p52d91c678d)" style="fill: #020202"/>
    <path d="M 132.434427 230.706183 
L 68.731345 218.296759 
" clip-path="url(#p52d91c678d)" style="fill: #020202"/>
    <path d="M 132.406752 230.992993 
L 38.953248 230.992993 
" clip-path="url(#p52d91c678d)" style="fill: #020202"/>
    <path d="M 132.434427 231.279803 
L 27.540781 251.71319 
" clip-path="url(#p52d91c678d)" style="fill: #020202"/>
    <path d="M 132.531552 231.592014 
L 42.954047 270.610924 
" clip-path="url(#p52d91c678d)" style="fill: #020202"/>
    <path d="M 132.7498 231.947698 
L 71.886827 282.17123 
" clip-path="url(#p52d91c678d)" style="fill: #020202"/>
    <path d="M 133.192036 232.311773 
L 106.959843 280.71493 
" clip-path="url(#p52d91c678d)" style="fill: #020202"/>
    <path d="M 133.906752 232.492993 
L 133.906752 271.507007 
" clip-path="url(#p52d91c678d)" style="fill: #020202"/>
    <path d="M 108.09773 213.534908 
C 122.886314 194.61954 96.219485 189.063757 102.223856 212.311142 
C 96.219485 189.063757 122.886314 194.61954 108.09773 213.534908 
" clip-path="url(#p52d91c678d)" style="fill: #020202"/>
    <path d="M 98.10098 218.009949 
L 68.75902 218.009949 
" clip-path="url(#p52d91c678d)" style="fill: #020202; stroke: #020202; stroke-width: 1.485"/>
    <path d="M 98.211682 219.15719 
L 38.925573 230.706183 
" clip-path="url(#p52d91c678d)" style="fill: #020202"/>
    <path d="M 98.600182 220.406032 
L 27.443656 251.400979 
" clip-path="url(#p52d91c678d)" style="fill: #020202"/>
    <path d="M 99.473173 221.82877 
L 42.081055 269.188185 
" clip-path="url(#p52d91c678d)" style="fill: #020202"/>
    <path d="M 101.242117 223.28507 
L 70.117883 280.71493 
" clip-path="url(#p52d91c678d)" style="fill: #020202"/>
    <path d="M 104.10098 224.009949 
L 104.10098 279.990051 
" clip-path="url(#p52d91c678d)" style="fill: #020202"/>
    <path d="M 106.959843 223.28507 
L 133.192036 271.688227 
" clip-path="url(#p52d91c678d)" style="fill: #020202"/>
    <path d="M 67.728301 216.585247 
C 75.140515 189.063757 48.473686 194.61954 66.259832 216.891189 
C 48.473686 194.61954 75.140515 189.063757 67.728301 216.585247 
" clip-path="url(#p52d91c678d)" style="fill: #020202"/>
    <path d="M 65.88382 218.60897 
L 38.828448 230.393972 
" clip-path="url(#p52d91c678d)" style="fill: #020202"/>
    <path d="M 66.102068 218.964654 
L 27.225408 251.045295 
" clip-path="url(#p52d91c678d)" style="fill: #020202"/>
    <path d="M 66.544304 219.328729 
L 40.312111 267.731886 
" clip-path="url(#p52d91c678d)" style="fill: #020202"/>
    <path d="M 67.25902 219.509949 
L 67.25902 279.990051 
" clip-path="url(#p52d91c678d)" style="fill: #020202"/>
    <path d="M 67.973736 219.328729 
L 101.242117 280.71493 
" clip-path="url(#p52d91c678d)" style="fill: #020202"/>
    <path d="M 68.415972 218.964654 
L 132.7498 272.052302 
" clip-path="url(#p52d91c678d)" style="fill: #020202"/>
    <path d="M 37.127543 229.528781 
C 29.415461 202.08981 9.345589 220.506834 36.022351 230.542956 
C 9.345589 220.506834 29.415461 202.08981 37.127543 229.528781 
" clip-path="url(#p52d91c678d)" style="fill: #020202"/>
    <path d="M 36.738532 232.311773 
L 26.783172 250.68122 
" clip-path="url(#p52d91c678d)" style="fill: #020202"/>
    <path d="M 37.453248 232.492993 
L 37.453248 267.007007 
" clip-path="url(#p52d91c678d)" style="fill: #020202"/>
    <path d="M 38.167964 232.311773 
L 64.400157 280.71493 
" clip-path="url(#p52d91c678d)" style="fill: #020202"/>
    <path d="M 38.6102 231.947698 
L 99.473173 282.17123 
" clip-path="url(#p52d91c678d)" style="fill: #020202"/>
    <path d="M 38.828448 231.592014 
L 132.531552 272.407986 
" clip-path="url(#p52d91c678d)" style="fill: #020202"/>
    <path d="M 24.769418 251.25 
C -0.66174 238.380285 -0.66174 265.619715 24.769418 252.75 
C -0.66174 265.619715 -0.66174 238.380285 24.769418 251.25 
" clip-path="url(#p52d91c678d)" style="fill: #020202"/>
    <path d="M 26.783172 253.31878 
L 34.594385 267.731886 
" clip-path="url(#p52d91c678d)" style="fill: #020202"/>
    <path d="M 27.225408 252.954705 
L 62.631212 282.17123 
" clip-path="url(#p52d91c678d)" style="fill: #020202"/>
    <path d="M 27.443656 252.599021 
L 98.600182 283.593968 
" clip-path="url(#p52d91c678d)" style="fill: #020202"/>
    <path d="M 27.540781 252.28681 
L 132.434427 272.720197 
" clip-path="url(#p52d91c678d)" style="fill: #020202; stroke: #020202; stroke-width: 1.485"/>
    <path d="M 31.72966 274.807156 
C 9.345589 283.493166 29.415461 301.91019 36.150429 278.863854 
C 29.415461 301.91019 9.345589 283.493166 31.72966 274.807156 
" clip-path="url(#p52d91c678d)" style="fill: #020202"/>
    <path d="M 42.954047 275.40309 
L 61.758221 283.593968 
" clip-path="url(#p52d91c678d)" style="fill: #020202; stroke: #020202; stroke-width: 1.485"/>
    <path d="M 43.342547 274.154248 
L 98.211682 284.84281 
" clip-path="url(#p52d91c678d)" style="fill: #020202; stroke: #020202; stroke-width: 1.485"/>
    <path d="M 43.453248 273.007007 
L 132.406752 273.007007 
" clip-path="url(#p52d91c678d)" style="fill: #020202"/>
    <path d="M 63.26227 290.465092 
C 48.473686 309.38046 75.140515 314.936243 69.136144 291.688858 
C 75.140515 314.936243 48.473686 309.38046 63.26227 290.465092 
" clip-path="url(#p52d91c678d)" style="fill: #020202"/>
    <path d="M 73.25902 285.990051 
L 98.10098 285.990051 
" clip-path="url(#p52d91c678d)" style="fill: #020202; stroke: #020202; stroke-width: 1.485"/>
    <path d="M 73.148318 284.84281 
L 132.434427 273.293817 
" clip-path="url(#p52d91c678d)" style="fill: #020202"/>
    <path d="M 102.223856 291.688858 
C 96.219485 314.936243 122.886314 309.38046 108.09773 290.465092 
C 122.886314 309.38046 96.219485 314.936243 102.223856 291.688858 
" clip-path="url(#p52d91c678d)" style="fill: #020202"/>
    <path d="M 109.601779 283.593968 
L 132.531552 273.606028 
" clip-path="url(#p52d91c678d)" style="fill: #020202"/>
    <path d="M 134.232457 274.471219 
C 141.944539 301.91019 162.014411 283.493166 135.337649 273.457044 
C 162.014411 283.493166 141.944539 301.91019 134.232457 274.471219 
" clip-path="url(#p52d91c678d)" style="fill: #020202"/>
   </g>
   <g id="VertexCollection_3">
    <path d="M 145.291544 253.5 
C 145.689348 253.5 146.070914 253.341951 146.352204 253.06066 
C 146.633494 252.77937 146.791544 252.397805 146.791544 252 
C 146.791544 251.602195 146.633494 251.22063 146.352204 250.93934 
C 146.070914 250.658049 145.689348 250.5 145.291544 250.5 
C 144.893739 250.5 144.512174 250.658049 144.230884 250.93934 
C 143.949593 251.22063 143.791544 251.602195 143.791544 252 
C 143.791544 252.397805 143.949593 252.77937 144.230884 253.06066 
C 144.512174 253.341951 144.893739 253.5 145.291544 253.5 
z
" clip-path="url(#p52d91c678d)" style="fill: #bebebe; stroke: #00ff00; stroke-width: 3"/>
    <path d="M 133.906752 232.492993 
C 134.304557 232.492993 134.686122 232.334944 134.967412 232.053653 
C 135.248703 231.772363 135.406752 231.390798 135.406752 230.992993 
C 135.406752 230.595188 135.248703 230.213623 134.967412 229.932333 
C 134.686122 229.651043 134.304557 229.492993 133.906752 229.492993 
C 133.508947 229.492993 133.127382 229.651043 132.846092 229.932333 
C 132.564801 230.213623 132.406752 230.595188 132.406752 230.992993 
C 132.406752 231.390798 132.564801 231.772363 132.846092 232.053653 
C 133.127382 232.334944 133.508947 232.492993 133.906752 232.492993 
z
" clip-path="url(#p52d91c678d)" style="fill: #bebebe; stroke: #00ff00; stroke-width: 3"/>
    <path d="M 104.10098 224.009949 
C 105.692199 224.009949 107.218459 223.377751 108.343621 222.25259 
C 109.468782 221.127428 110.10098 219.601167 110.10098 218.009949 
C 110.10098 216.41873 109.468782 214.89247 108.343621 213.767308 
C 107.218459 212.642147 105.692199 212.009949 104.10098 212.009949 
C 102.509762 212.009949 100.983501 212.642147 99.858339 213.767308 
C 98.733178 214.89247 98.10098 216.41873 98.10098 218.009949 
C 98.10098 219.601167 98.733178 221.127428 99.858339 222.25259 
C 100.983501 223.377751 102.509762 224.009949 104.10098 224.009949 
z
" clip-path="url(#p52d91c678d)" style="fill: #bebebe; stroke: #ff0000; stroke-width: 3"/>
    <path d="M 67.25902 219.509949 
C 67.656825 219.509949 68.03839 219.351899 68.31968 219.070609 
C 68.60097 218.789319 68.75902 218.407753 68.75902 218.009949 
C 68.75902 217.612144 68.60097 217.230579 68.31968 216.949289 
C 68.03839 216.667998 67.656825 216.509949 67.25902 216.509949 
C 66.861215 216.509949 66.47965 216.667998 66.19836 216.949289 
C 65.917069 217.230579 65.75902 217.612144 65.75902 218.009949 
C 65.75902 218.407753 65.917069 218.789319 66.19836 219.070609 
C 66.47965 219.351899 66.861215 219.509949 67.25902 219.509949 
z
" clip-path="url(#p52d91c678d)" style="fill: #bebebe; stroke: #ff0000; stroke-width: 3"/>
    <path d="M 37.453248 232.492993 
C 37.851053 232.492993 38.232618 232.334944 38.513908 232.053653 
C 38.795199 231.772363 38.953248 231.390798 38.953248 230.992993 
C 38.953248 230.595188 38.795199 230.213623 38.513908 229.932333 
C 38.232618 229.651043 37.851053 229.492993 37.453248 229.492993 
C 37.055443 229.492993 36.673878 229.651043 36.392588 229.932333 
C 36.111297 230.213623 35.953248 230.595188 35.953248 230.992993 
C 35.953248 231.390798 36.111297 231.772363 36.392588 232.053653 
C 36.673878 232.334944 37.055443 232.492993 37.453248 232.492993 
z
" clip-path="url(#p52d91c678d)" style="fill: #bebebe; stroke: #00ff00; stroke-width: 3"/>
    <path d="M 26.068456 253.5 
C 26.466261 253.5 26.847826 253.341951 27.129116 253.06066 
C 27.410407 252.77937 27.568456 252.397805 27.568456 252 
C 27.568456 251.602195 27.410407 251.22063 27.129116 250.93934 
C 26.847826 250.658049 26.466261 250.5 26.068456 250.5 
C 25.670652 250.5 25.289086 250.658049 25.007796 250.93934 
C 24.726506 251.22063 24.568456 251.602195 24.568456 252 
C 24.568456 252.397805 24.726506 252.77937 25.007796 253.06066 
C 25.289086 253.341951 25.670652 253.5 26.068456 253.5 
z
" clip-path="url(#p52d91c678d)" style="fill: #bebebe; stroke: #00ff00; stroke-width: 3"/>
    <path d="M 37.453248 279.007007 
C 39.044467 279.007007 40.570727 278.374809 41.695889 277.249648 
C 42.82105 276.124486 43.453248 274.598225 43.453248 273.007007 
C 43.453248 271.415788 42.82105 269.889528 41.695889 268.764366 
C 40.570727 267.639205 39.044467 267.007007 37.453248 267.007007 
C 35.862029 267.007007 34.335769 267.639205 33.210607 268.764366 
C 32.085446 269.889528 31.453248 271.415788 31.453248 273.007007 
C 31.453248 274.598225 32.085446 276.124486 33.210607 277.249648 
C 34.335769 278.374809 35.862029 279.007007 37.453248 279.007007 
z
" clip-path="url(#p52d91c678d)" style="fill: #bebebe; stroke: #00ff00; stroke-width: 3"/>
    <path d="M 67.25902 291.990051 
C 68.850238 291.990051 70.376499 291.357853 71.501661 290.232692 
C 72.626822 289.10753 73.25902 287.58127 73.25902 285.990051 
C 73.25902 284.398833 72.626822 282.872572 71.501661 281.74741 
C 70.376499 280.622249 68.850238 279.990051 67.25902 279.990051 
C 65.667801 279.990051 64.141541 280.622249 63.016379 281.74741 
C 61.891218 282.872572 61.25902 284.398833 61.25902 285.990051 
C 61.25902 287.58127 61.891218 289.10753 63.016379 290.232692 
C 64.141541 291.357853 65.667801 291.990051 67.25902 291.990051 
z
" clip-path="url(#p52d91c678d)" style="fill: #bebebe; stroke: #00ff00; stroke-width: 3"/>
    <path d="M 104.10098 291.990051 
C 105.692199 291.990051 107.218459 291.357853 108.343621 290.232692 
C 109.468782 289.10753 110.10098 287.58127 110.10098 285.990051 
C 110.10098 284.398833 109.468782 282.872572 108.343621 281.74741 
C 107.218459 280.622249 105.692199 279.990051 104.10098 279.990051 
C 102.509762 279.990051 100.983501 280.622249 99.858339 281.74741 
C 98.733178 282.872572 98.10098 284.398833 98.10098 285.990051 
C 98.10098 287.58127 98.733178 289.10753 99.858339 290.232692 
C 100.983501 291.357853 102.509762 291.990051 104.10098 291.990051 
z
" clip-path="url(#p52d91c678d)" style="fill: #bebebe; stroke: #00ff00; stroke-width: 3"/>
    <path d="M 133.906752 274.507007 
C 134.304557 274.507007 134.686122 274.348957 134.967412 274.067667 
C 135.248703 273.786377 135.406752 273.404812 135.406752 273.007007 
C 135.406752 272.609202 135.248703 272.227637 134.967412 271.946347 
C 134.686122 271.665056 134.304557 271.507007 133.906752 271.507007 
C 133.508947 271.507007 133.127382 271.665056 132.846092 271.946347 
C 132.564801 272.227637 132.406752 272.609202 132.406752 273.007007 
C 132.406752 273.404812 132.564801 273.786377 132.846092 274.067667 
C 133.127382 274.348957 133.508947 274.507007 133.906752 274.507007 
z
" clip-path="url(#p52d91c678d)" style="fill: #bebebe; stroke: #00ff00; stroke-width: 3"/>
   </g>
   <g id="matplotlib.axis_5"/>
   <g id="matplotlib.axis_6"/>
  </g>
  <g id="axes_4">
   <g id="patch_5">
    <path d="M 12.852 394.56 
L 158.508 394.56 
L 158.508 306.72 
L 12.852 306.72 
z
" style="fill: #ffffff"/>
   </g>
   <g id="EdgeCollection_4">
    <path d="M 146.590582 351.39 
C 172.02174 364.259715 172.02174 337.020285 146.590582 349.89 
C 172.02174 337.020285 172.02174 364.259715 146.590582 351.39 
" clip-path="url(#p23ee9db947)" style="fill: #020202"/>
    <path d="M 144.576828 349.32122 
L 134.621468 330.951773 
" clip-path="url(#p23ee9db947)" style="fill: #020202"/>
    <path d="M 144.134592 349.685295 
L 108.728788 320.46877 
" clip-path="url(#p23ee9db947)" style="fill: #020202; stroke: #020202; stroke-width: 1.485"/>
    <path d="M 143.916344 350.040979 
L 68.63422 317.24897 
" clip-path="url(#p23ee9db947)" style="fill: #020202"/>
    <path d="M 143.819219 350.35319 
L 38.925573 329.919803 
" clip-path="url(#p23ee9db947)" style="fill: #020202"/>
    <path d="M 143.791544 350.64 
L 27.568456 350.64 
" clip-path="url(#p23ee9db947)" style="fill: #020202"/>
    <path d="M 143.819219 350.92681 
L 43.342547 370.499766 
" clip-path="url(#p23ee9db947)" style="fill: #020202"/>
    <path d="M 143.916344 351.239021 
L 72.759818 382.233968 
" clip-path="url(#p23ee9db947)" style="fill: #020202"/>
    <path d="M 144.134592 351.594705 
L 108.728788 380.81123 
" clip-path="url(#p23ee9db947)" style="fill: #020202"/>
    <path d="M 144.576828 351.95878 
L 134.621468 370.328227 
" clip-path="url(#p23ee9db947)" style="fill: #020202"/>
    <path d="M 135.337649 329.182956 
C 162.014411 319.146834 141.944539 300.72981 134.232457 328.168781 
C 141.944539 300.72981 162.014411 319.146834 135.337649 329.182956 
" clip-path="url(#p23ee9db947)" style="fill: #020202"/>
    <path d="M 132.531552 329.033972 
L 109.601779 319.046032 
" clip-path="url(#p23ee9db947)" style="fill: #020202"/>
    <path d="M 132.434427 329.346183 
L 68.731345 316.936759 
" clip-path="url(#p23ee9db947)" style="fill: #020202"/>
    <path d="M 132.406752 329.632993 
L 38.953248 329.632993 
" clip-path="url(#p23ee9db947)" style="fill: #020202"/>
    <path d="M 132.434427 329.919803 
L 27.540781 350.35319 
" clip-path="url(#p23ee9db947)" style="fill: #020202"/>
    <path d="M 132.531552 330.232014 
L 42.954047 369.250924 
" clip-path="url(#p23ee9db947)" style="fill: #020202"/>
    <path d="M 132.7498 330.587698 
L 71.886827 380.81123 
" clip-path="url(#p23ee9db947)" style="fill: #020202"/>
    <path d="M 133.192036 330.951773 
L 106.959843 379.35493 
" clip-path="url(#p23ee9db947)" style="fill: #020202"/>
    <path d="M 133.906752 331.132993 
L 133.906752 370.147007 
" clip-path="url(#p23ee9db947)" style="fill: #020202"/>
    <path d="M 108.09773 312.174908 
C 122.886314 293.25954 96.219485 287.703757 102.223856 310.951142 
C 96.219485 287.703757 122.886314 293.25954 108.09773 312.174908 
" clip-path="url(#p23ee9db947)" style="fill: #020202"/>
    <path d="M 98.10098 316.649949 
L 68.75902 316.649949 
" clip-path="url(#p23ee9db947)" style="fill: #020202; stroke: #020202; stroke-width: 1.485"/>
    <path d="M 98.211682 317.79719 
L 38.925573 329.346183 
" clip-path="url(#p23ee9db947)" style="fill: #020202"/>
    <path d="M 98.600182 319.046032 
L 27.443656 350.040979 
" clip-path="url(#p23ee9db947)" style="fill: #020202"/>
    <path d="M 99.473173 320.46877 
L 42.081055 367.828185 
" clip-path="url(#p23ee9db947)" style="fill: #020202"/>
    <path d="M 101.242117 321.92507 
L 70.117883 379.35493 
" clip-path="url(#p23ee9db947)" style="fill: #020202"/>
    <path d="M 104.10098 322.649949 
L 104.10098 378.630051 
" clip-path="url(#p23ee9db947)" style="fill: #020202"/>
    <path d="M 106.959843 321.92507 
L 133.192036 370.328227 
" clip-path="url(#p23ee9db947)" style="fill: #020202"/>
    <path d="M 67.728301 315.225247 
C 75.140515 287.703757 48.473686 293.25954 66.259832 315.531189 
C 48.473686 293.25954 75.140515 287.703757 67.728301 315.225247 
" clip-path="url(#p23ee9db947)" style="fill: #020202"/>
    <path d="M 65.88382 317.24897 
L 38.828448 329.033972 
" clip-path="url(#p23ee9db947)" style="fill: #020202"/>
    <path d="M 66.102068 317.604654 
L 27.225408 349.685295 
" clip-path="url(#p23ee9db947)" style="fill: #020202"/>
    <path d="M 66.544304 317.968729 
L 40.312111 366.371886 
" clip-path="url(#p23ee9db947)" style="fill: #020202"/>
    <path d="M 67.25902 318.149949 
L 67.25902 378.630051 
" clip-path="url(#p23ee9db947)" style="fill: #020202"/>
    <path d="M 67.973736 317.968729 
L 101.242117 379.35493 
" clip-path="url(#p23ee9db947)" style="fill: #020202"/>
    <path d="M 68.415972 317.604654 
L 132.7498 370.692302 
" clip-path="url(#p23ee9db947)" style="fill: #020202"/>
    <path d="M 37.127543 328.168781 
C 29.415461 300.72981 9.345589 319.146834 36.022351 329.182956 
C 9.345589 319.146834 29.415461 300.72981 37.127543 328.168781 
" clip-path="url(#p23ee9db947)" style="fill: #020202"/>
    <path d="M 36.738532 330.951773 
L 26.783172 349.32122 
" clip-path="url(#p23ee9db947)" style="fill: #020202; stroke: #020202; stroke-width: 1.485"/>
    <path d="M 37.453248 331.132993 
L 37.453248 365.647007 
" clip-path="url(#p23ee9db947)" style="fill: #020202"/>
    <path d="M 38.167964 330.951773 
L 64.400157 379.35493 
" clip-path="url(#p23ee9db947)" style="fill: #020202"/>
    <path d="M 38.6102 330.587698 
L 99.473173 380.81123 
" clip-path="url(#p23ee9db947)" style="fill: #020202"/>
    <path d="M 38.828448 330.232014 
L 132.531552 371.047986 
" clip-path="url(#p23ee9db947)" style="fill: #020202"/>
    <path d="M 24.769418 349.89 
C -0.66174 337.020285 -0.66174 364.259715 24.769418 351.39 
C -0.66174 364.259715 -0.66174 337.020285 24.769418 349.89 
" clip-path="url(#p23ee9db947)" style="fill: #020202"/>
    <path d="M 26.783172 351.95878 
L 34.594385 366.371886 
" clip-path="url(#p23ee9db947)" style="fill: #020202"/>
    <path d="M 27.225408 351.594705 
L 62.631212 380.81123 
" clip-path="url(#p23ee9db947)" style="fill: #020202"/>
    <path d="M 27.443656 351.239021 
L 98.600182 382.233968 
" clip-path="url(#p23ee9db947)" style="fill: #020202"/>
    <path d="M 27.540781 350.92681 
L 132.434427 371.360197 
" clip-path="url(#p23ee9db947)" style="fill: #020202"/>
    <path d="M 31.72966 373.447156 
C 9.345589 382.133166 29.415461 400.55019 36.150429 377.503854 
C 29.415461 400.55019 9.345589 382.133166 31.72966 373.447156 
" clip-path="url(#p23ee9db947)" style="fill: #020202"/>
    <path d="M 42.954047 374.04309 
L 61.758221 382.233968 
" clip-path="url(#p23ee9db947)" style="fill: #020202; stroke: #020202; stroke-width: 1.485"/>
    <path d="M 43.342547 372.794248 
L 98.211682 383.48281 
" clip-path="url(#p23ee9db947)" style="fill: #020202; stroke: #020202; stroke-width: 1.485"/>
    <path d="M 43.453248 371.647007 
L 132.406752 371.647007 
" clip-path="url(#p23ee9db947)" style="fill: #020202"/>
    <path d="M 63.26227 389.105092 
C 48.473686 408.02046 75.140515 413.576243 69.136144 390.328858 
C 75.140515 413.576243 48.473686 408.02046 63.26227 389.105092 
" clip-path="url(#p23ee9db947)" style="fill: #020202"/>
    <path d="M 73.25902 384.630051 
L 98.10098 384.630051 
" clip-path="url(#p23ee9db947)" style="fill: #020202; stroke: #020202; stroke-width: 1.485"/>
    <path d="M 73.148318 383.48281 
L 132.434427 371.933817 
" clip-path="url(#p23ee9db947)" style="fill: #020202"/>
    <path d="M 102.223856 390.328858 
C 96.219485 413.576243 122.886314 408.02046 108.09773 389.105092 
C 122.886314 408.02046 96.219485 413.576243 102.223856 390.328858 
" clip-path="url(#p23ee9db947)" style="fill: #020202"/>
    <path d="M 109.601779 382.233968 
L 132.531552 372.246028 
" clip-path="url(#p23ee9db947)" style="fill: #020202"/>
    <path d="M 134.232457 373.111219 
C 141.944539 400.55019 162.014411 382.133166 135.337649 372.097044 
C 162.014411 382.133166 141.944539 400.55019 134.232457 373.111219 
" clip-path="url(#p23ee9db947)" style="fill: #020202"/>
   </g>
   <g id="VertexCollection_4">
    <path d="M 145.291544 352.14 
C 145.689348 352.14 146.070914 351.981951 146.352204 351.70066 
C 146.633494 351.41937 146.791544 351.037805 146.791544 350.64 
C 146.791544 350.242195 146.633494 349.86063 146.352204 349.57934 
C 146.070914 349.298049 145.689348 349.14 145.291544 349.14 
C 144.893739 349.14 144.512174 349.298049 144.230884 349.57934 
C 143.949593 349.86063 143.791544 350.242195 143.791544 350.64 
C 143.791544 351.037805 143.949593 351.41937 144.230884 351.70066 
C 144.512174 351.981951 144.893739 352.14 145.291544 352.14 
z
" clip-path="url(#p23ee9db947)" style="fill: #bebebe; stroke: #00ff00; stroke-width: 3"/>
    <path d="M 133.906752 331.132993 
C 134.304557 331.132993 134.686122 330.974944 134.967412 330.693653 
C 135.248703 330.412363 135.406752 330.030798 135.406752 329.632993 
C 135.406752 329.235188 135.248703 328.853623 134.967412 328.572333 
C 134.686122 328.291043 134.304557 328.132993 133.906752 328.132993 
C 133.508947 328.132993 133.127382 328.291043 132.846092 328.572333 
C 132.564801 328.853623 132.406752 329.235188 132.406752 329.632993 
C 132.406752 330.030798 132.564801 330.412363 132.846092 330.693653 
C 133.127382 330.974944 133.508947 331.132993 133.906752 331.132993 
z
" clip-path="url(#p23ee9db947)" style="fill: #bebebe; stroke: #00ff00; stroke-width: 3"/>
    <path d="M 104.10098 322.649949 
C 105.692199 322.649949 107.218459 322.017751 108.343621 320.89259 
C 109.468782 319.767428 110.10098 318.241167 110.10098 316.649949 
C 110.10098 315.05873 109.468782 313.53247 108.343621 312.407308 
C 107.218459 311.282147 105.692199 310.649949 104.10098 310.649949 
C 102.509762 310.649949 100.983501 311.282147 99.858339 312.407308 
C 98.733178 313.53247 98.10098 315.05873 98.10098 316.649949 
C 98.10098 318.241167 98.733178 319.767428 99.858339 320.89259 
C 100.983501 322.017751 102.509762 322.649949 104.10098 322.649949 
z
" clip-path="url(#p23ee9db947)" style="fill: #bebebe; stroke: #ff0000; stroke-width: 3"/>
    <path d="M 67.25902 318.149949 
C 67.656825 318.149949 68.03839 317.991899 68.31968 317.710609 
C 68.60097 317.429319 68.75902 317.047753 68.75902 316.649949 
C 68.75902 316.252144 68.60097 315.870579 68.31968 315.589289 
C 68.03839 315.307998 67.656825 315.149949 67.25902 315.149949 
C 66.861215 315.149949 66.47965 315.307998 66.19836 315.589289 
C 65.917069 315.870579 65.75902 316.252144 65.75902 316.649949 
C 65.75902 317.047753 65.917069 317.429319 66.19836 317.710609 
C 66.47965 317.991899 66.861215 318.149949 67.25902 318.149949 
z
" clip-path="url(#p23ee9db947)" style="fill: #bebebe; stroke: #ff0000; stroke-width: 3"/>
    <path d="M 37.453248 331.132993 
C 37.851053 331.132993 38.232618 330.974944 38.513908 330.693653 
C 38.795199 330.412363 38.953248 330.030798 38.953248 329.632993 
C 38.953248 329.235188 38.795199 328.853623 38.513908 328.572333 
C 38.232618 328.291043 37.851053 328.132993 37.453248 328.132993 
C 37.055443 328.132993 36.673878 328.291043 36.392588 328.572333 
C 36.111297 328.853623 35.953248 329.235188 35.953248 329.632993 
C 35.953248 330.030798 36.111297 330.412363 36.392588 330.693653 
C 36.673878 330.974944 37.055443 331.132993 37.453248 331.132993 
z
" clip-path="url(#p23ee9db947)" style="fill: #bebebe; stroke: #00ff00; stroke-width: 3"/>
    <path d="M 26.068456 352.14 
C 26.466261 352.14 26.847826 351.981951 27.129116 351.70066 
C 27.410407 351.41937 27.568456 351.037805 27.568456 350.64 
C 27.568456 350.242195 27.410407 349.86063 27.129116 349.57934 
C 26.847826 349.298049 26.466261 349.14 26.068456 349.14 
C 25.670652 349.14 25.289086 349.298049 25.007796 349.57934 
C 24.726506 349.86063 24.568456 350.242195 24.568456 350.64 
C 24.568456 351.037805 24.726506 351.41937 25.007796 351.70066 
C 25.289086 351.981951 25.670652 352.14 26.068456 352.14 
z
" clip-path="url(#p23ee9db947)" style="fill: #bebebe; stroke: #00ff00; stroke-width: 3"/>
    <path d="M 37.453248 377.647007 
C 39.044467 377.647007 40.570727 377.014809 41.695889 375.889648 
C 42.82105 374.764486 43.453248 373.238225 43.453248 371.647007 
C 43.453248 370.055788 42.82105 368.529528 41.695889 367.404366 
C 40.570727 366.279205 39.044467 365.647007 37.453248 365.647007 
C 35.862029 365.647007 34.335769 366.279205 33.210607 367.404366 
C 32.085446 368.529528 31.453248 370.055788 31.453248 371.647007 
C 31.453248 373.238225 32.085446 374.764486 33.210607 375.889648 
C 34.335769 377.014809 35.862029 377.647007 37.453248 377.647007 
z
" clip-path="url(#p23ee9db947)" style="fill: #bebebe; stroke: #00ff00; stroke-width: 3"/>
    <path d="M 67.25902 390.630051 
C 68.850238 390.630051 70.376499 389.997853 71.501661 388.872692 
C 72.626822 387.74753 73.25902 386.22127 73.25902 384.630051 
C 73.25902 383.038833 72.626822 381.512572 71.501661 380.38741 
C 70.376499 379.262249 68.850238 378.630051 67.25902 378.630051 
C 65.667801 378.630051 64.141541 379.262249 63.016379 380.38741 
C 61.891218 381.512572 61.25902 383.038833 61.25902 384.630051 
C 61.25902 386.22127 61.891218 387.74753 63.016379 388.872692 
C 64.141541 389.997853 65.667801 390.630051 67.25902 390.630051 
z
" clip-path="url(#p23ee9db947)" style="fill: #bebebe; stroke: #00ff00; stroke-width: 3"/>
    <path d="M 104.10098 390.630051 
C 105.692199 390.630051 107.218459 389.997853 108.343621 388.872692 
C 109.468782 387.74753 110.10098 386.22127 110.10098 384.630051 
C 110.10098 383.038833 109.468782 381.512572 108.343621 380.38741 
C 107.218459 379.262249 105.692199 378.630051 104.10098 378.630051 
C 102.509762 378.630051 100.983501 379.262249 99.858339 380.38741 
C 98.733178 381.512572 98.10098 383.038833 98.10098 384.630051 
C 98.10098 386.22127 98.733178 387.74753 99.858339 388.872692 
C 100.983501 389.997853 102.509762 390.630051 104.10098 390.630051 
z
" clip-path="url(#p23ee9db947)" style="fill: #bebebe; stroke: #00ff00; stroke-width: 3"/>
    <path d="M 133.906752 373.147007 
C 134.304557 373.147007 134.686122 372.988957 134.967412 372.707667 
C 135.248703 372.426377 135.406752 372.044812 135.406752 371.647007 
C 135.406752 371.249202 135.248703 370.867637 134.967412 370.586347 
C 134.686122 370.305056 134.304557 370.147007 133.906752 370.147007 
C 133.508947 370.147007 133.127382 370.305056 132.846092 370.586347 
C 132.564801 370.867637 132.406752 371.249202 132.406752 371.647007 
C 132.406752 372.044812 132.564801 372.426377 132.846092 372.707667 
C 133.127382 372.988957 133.508947 373.147007 133.906752 373.147007 
z
" clip-path="url(#p23ee9db947)" style="fill: #bebebe; stroke: #00ff00; stroke-width: 3"/>
   </g>
   <g id="matplotlib.axis_7"/>
   <g id="matplotlib.axis_8"/>
  </g>
  <g id="axes_5">
   <g id="patch_6">
    <path d="M 12.852 493.2 
L 158.508 493.2 
L 158.508 405.36 
L 12.852 405.36 
z
" style="fill: #ffffff"/>
   </g>
   <g id="EdgeCollection_5">
    <path d="M 146.590582 450.03 
C 172.02174 462.899715 172.02174 435.660285 146.590582 448.53 
C 172.02174 435.660285 172.02174 462.899715 146.590582 450.03 
" clip-path="url(#pf13d573f18)" style="fill: #020202"/>
    <path d="M 144.603597 447.94706 
L 134.594699 428.554211 
" clip-path="url(#pf13d573f18)" style="fill: #020202"/>
    <path d="M 144.157919 448.29771 
L 105.234605 414.570518 
" clip-path="url(#pf13d573f18)" style="fill: #020202; stroke: #020202; stroke-width: 1.485"/>
    <path d="M 143.927463 448.656075 
L 68.623101 414.212153 
" clip-path="url(#pf13d573f18)" style="fill: #020202"/>
    <path d="M 143.821974 448.979394 
L 38.922818 427.521878 
" clip-path="url(#pf13d573f18)" style="fill: #020202"/>
    <path d="M 143.791544 449.28 
L 27.568456 449.28 
" clip-path="url(#pf13d573f18)" style="fill: #020202"/>
    <path d="M 143.821974 449.580606 
L 43.331528 470.136304 
" clip-path="url(#pf13d573f18)" style="fill: #020202"/>
    <path d="M 143.927463 449.903925 
L 68.623101 484.347847 
" clip-path="url(#pf13d573f18)" style="fill: #020202"/>
    <path d="M 144.157919 450.26229 
L 105.234605 483.989482 
" clip-path="url(#pf13d573f18)" style="fill: #020202"/>
    <path d="M 144.603597 450.61294 
L 134.594699 470.005789 
" clip-path="url(#pf13d573f18)" style="fill: #020202"/>
    <path d="M 135.34602 426.798768 
C 162.210411 417.276278 142.497556 398.47761 134.260487 425.763578 
C 142.497556 398.47761 162.210411 417.276278 135.34602 426.798768 
" clip-path="url(#pf13d573f18)" style="fill: #020202"/>
    <path d="M 132.542671 426.597346 
L 105.465061 414.212153 
" clip-path="url(#pf13d573f18)" style="fill: #020202"/>
    <path d="M 132.437182 426.920666 
L 68.72859 413.888834 
" clip-path="url(#pf13d573f18)" style="fill: #020202"/>
    <path d="M 132.406752 427.221272 
L 38.953248 427.221272 
" clip-path="url(#pf13d573f18)" style="fill: #020202"/>
    <path d="M 132.437182 427.521878 
L 27.538026 448.979394 
" clip-path="url(#pf13d573f18)" style="fill: #020202"/>
    <path d="M 132.542671 427.845197 
L 42.909572 468.843027 
" clip-path="url(#pf13d573f18)" style="fill: #020202; stroke: #020202; stroke-width: 1.485"/>
    <path d="M 132.773127 428.203562 
L 68.392645 483.989482 
" clip-path="url(#pf13d573f18)" style="fill: #020202"/>
    <path d="M 133.218805 428.554211 
L 104.788927 483.638832 
" clip-path="url(#pf13d573f18)" style="fill: #020202"/>
    <path d="M 133.906752 428.721272 
L 133.906752 469.838728 
" clip-path="url(#pf13d573f18)" style="fill: #020202"/>
    <path d="M 105.110297 412.478598 
C 123.098186 390.369568 96.482968 384.571579 103.644671 412.159318 
C 96.482968 384.571579 123.098186 390.369568 105.110297 412.478598 
" clip-path="url(#pf13d573f18)" style="fill: #020202"/>
    <path d="M 102.60098 413.588228 
L 68.75902 413.588228 
" clip-path="url(#pf13d573f18)" style="fill: #020202"/>
    <path d="M 102.63141 413.888834 
L 38.922818 426.920666 
" clip-path="url(#pf13d573f18)" style="fill: #020202"/>
    <path d="M 102.736899 414.212153 
L 27.432537 448.656075 
" clip-path="url(#pf13d573f18)" style="fill: #020202"/>
    <path d="M 102.967355 414.570518 
L 41.987748 467.409567 
" clip-path="url(#pf13d573f18)" style="fill: #020202"/>
    <path d="M 103.413033 414.921168 
L 67.946967 483.638832 
" clip-path="url(#pf13d573f18)" style="fill: #020202"/>
    <path d="M 104.10098 415.088228 
L 104.10098 483.471772 
" clip-path="url(#pf13d573f18)" style="fill: #020202"/>
    <path d="M 104.788927 414.921168 
L 133.218805 470.005789 
" clip-path="url(#pf13d573f18)" style="fill: #020202"/>
    <path d="M 67.715329 412.159318 
C 74.877032 384.571579 48.261814 390.369568 66.249703 412.478598 
C 48.261814 390.369568 74.877032 384.571579 67.715329 412.159318 
" clip-path="url(#pf13d573f18)" style="fill: #020202"/>
    <path d="M 65.894939 414.212153 
L 38.817329 426.597346 
" clip-path="url(#pf13d573f18)" style="fill: #020202"/>
    <path d="M 66.125395 414.570518 
L 27.202081 448.29771 
" clip-path="url(#pf13d573f18)" style="fill: #020202"/>
    <path d="M 66.571073 414.921168 
L 40.205037 466.006969 
" clip-path="url(#pf13d573f18)" style="fill: #020202"/>
    <path d="M 67.25902 415.088228 
L 67.25902 483.471772 
" clip-path="url(#pf13d573f18)" style="fill: #020202"/>
    <path d="M 67.946967 414.921168 
L 103.413033 483.638832 
" clip-path="url(#pf13d573f18)" style="fill: #020202"/>
    <path d="M 68.392645 414.570518 
L 132.773127 470.356438 
" clip-path="url(#pf13d573f18)" style="fill: #020202"/>
    <path d="M 37.099513 425.763578 
C 28.862444 398.47761 9.149589 417.276278 36.01398 426.798768 
C 9.149589 417.276278 28.862444 398.47761 37.099513 425.763578 
" clip-path="url(#pf13d573f18)" style="fill: #020202"/>
    <path d="M 36.765301 428.554211 
L 26.756403 447.94706 
" clip-path="url(#pf13d573f18)" style="fill: #020202"/>
    <path d="M 37.453248 428.721272 
L 37.453248 465.338728 
" clip-path="url(#pf13d573f18)" style="fill: #020202"/>
    <path d="M 38.141195 428.554211 
L 66.571073 483.638832 
" clip-path="url(#pf13d573f18)" style="fill: #020202"/>
    <path d="M 38.586873 428.203562 
L 102.967355 483.989482 
" clip-path="url(#pf13d573f18)" style="fill: #020202"/>
    <path d="M 38.817329 427.845197 
L 132.542671 470.714803 
" clip-path="url(#pf13d573f18)" style="fill: #020202"/>
    <path d="M 24.769418 448.53 
C -0.66174 435.660285 -0.66174 462.899715 24.769418 450.03 
C -0.66174 462.899715 -0.66174 435.660285 24.769418 448.53 
" clip-path="url(#pf13d573f18)" style="fill: #020202"/>
    <path d="M 26.756403 450.61294 
L 34.701459 466.006969 
" clip-path="url(#pf13d573f18)" style="fill: #020202"/>
    <path d="M 27.202081 450.26229 
L 66.125395 483.989482 
" clip-path="url(#pf13d573f18)" style="fill: #020202"/>
    <path d="M 27.432537 449.903925 
L 102.736899 484.347847 
" clip-path="url(#pf13d573f18)" style="fill: #020202"/>
    <path d="M 27.538026 449.580606 
L 132.437182 471.038122 
" clip-path="url(#pf13d573f18)" style="fill: #020202; stroke: #020202; stroke-width: 1.485"/>
    <path d="M 31.696178 473.028742 
C 9.149589 481.283722 28.862444 500.08239 36.038307 477.169504 
C 28.862444 500.08239 9.149589 481.283722 31.696178 473.028742 
" clip-path="url(#pf13d573f18)" style="fill: #020202"/>
    <path d="M 42.909572 473.83443 
L 65.894939 484.347847 
" clip-path="url(#pf13d573f18)" style="fill: #020202; stroke: #020202; stroke-width: 1.485"/>
    <path d="M 43.331528 472.541153 
L 102.63141 484.671166 
" clip-path="url(#pf13d573f18)" style="fill: #020202"/>
    <path d="M 43.453248 471.338728 
L 132.406752 471.338728 
" clip-path="url(#pf13d573f18)" style="fill: #020202"/>
    <path d="M 66.249703 486.081402 
C 48.261814 508.190432 74.877032 513.988421 67.715329 486.400682 
C 74.877032 513.988421 48.261814 508.190432 66.249703 486.081402 
" clip-path="url(#pf13d573f18)" style="fill: #020202"/>
    <path d="M 68.75902 484.971772 
L 102.60098 484.971772 
" clip-path="url(#pf13d573f18)" style="fill: #020202"/>
    <path d="M 68.72859 484.671166 
L 132.437182 471.639334 
" clip-path="url(#pf13d573f18)" style="fill: #020202"/>
    <path d="M 103.644671 486.400682 
C 96.482968 513.988421 123.098186 508.190432 105.110297 486.081402 
C 123.098186 508.190432 96.482968 513.988421 103.644671 486.400682 
" clip-path="url(#pf13d573f18)" style="fill: #020202"/>
    <path d="M 105.465061 484.347847 
L 132.542671 471.962654 
" clip-path="url(#pf13d573f18)" style="fill: #020202"/>
    <path d="M 134.260487 472.796422 
C 142.497556 500.08239 162.210411 481.283722 135.34602 471.761232 
C 162.210411 481.283722 142.497556 500.08239 134.260487 472.796422 
" clip-path="url(#pf13d573f18)" style="fill: #020202"/>
   </g>
   <g id="VertexCollection_5">
    <path d="M 145.291544 450.78 
C 145.689348 450.78 146.070914 450.621951 146.352204 450.34066 
C 146.633494 450.05937 146.791544 449.677805 146.791544 449.28 
C 146.791544 448.882195 146.633494 448.50063 146.352204 448.21934 
C 146.070914 447.938049 145.689348 447.78 145.291544 447.78 
C 144.893739 447.78 144.512174 447.938049 144.230884 448.21934 
C 143.949593 448.50063 143.791544 448.882195 143.791544 449.28 
C 143.791544 449.677805 143.949593 450.05937 144.230884 450.34066 
C 144.512174 450.621951 144.893739 450.78 145.291544 450.78 
z
" clip-path="url(#pf13d573f18)" style="fill: #bebebe; stroke: #00ff00; stroke-width: 3"/>
    <path d="M 133.906752 428.721272 
C 134.304557 428.721272 134.686122 428.563222 134.967412 428.281932 
C 135.248703 428.000641 135.406752 427.619076 135.406752 427.221272 
C 135.406752 426.823467 135.248703 426.441902 134.967412 426.160611 
C 134.686122 425.879321 134.304557 425.721272 133.906752 425.721272 
C 133.508947 425.721272 133.127382 425.879321 132.846092 426.160611 
C 132.564801 426.441902 132.406752 426.823467 132.406752 427.221272 
C 132.406752 427.619076 132.564801 428.000641 132.846092 428.281932 
C 133.127382 428.563222 133.508947 428.721272 133.906752 428.721272 
z
" clip-path="url(#pf13d573f18)" style="fill: #bebebe; stroke: #00ff00; stroke-width: 3"/>
    <path d="M 104.10098 415.088228 
C 104.498785 415.088228 104.88035 414.930178 105.16164 414.648888 
C 105.442931 414.367598 105.60098 413.986032 105.60098 413.588228 
C 105.60098 413.190423 105.442931 412.808858 105.16164 412.527568 
C 104.88035 412.246277 104.498785 412.088228 104.10098 412.088228 
C 103.703175 412.088228 103.32161 412.246277 103.04032 412.527568 
C 102.75903 412.808858 102.60098 413.190423 102.60098 413.588228 
C 102.60098 413.986032 102.75903 414.367598 103.04032 414.648888 
C 103.32161 414.930178 103.703175 415.088228 104.10098 415.088228 
z
" clip-path="url(#pf13d573f18)" style="fill: #bebebe; stroke: #ff0000; stroke-width: 3"/>
    <path d="M 67.25902 415.088228 
C 67.656825 415.088228 68.03839 414.930178 68.31968 414.648888 
C 68.60097 414.367598 68.75902 413.986032 68.75902 413.588228 
C 68.75902 413.190423 68.60097 412.808858 68.31968 412.527568 
C 68.03839 412.246277 67.656825 412.088228 67.25902 412.088228 
C 66.861215 412.088228 66.47965 412.246277 66.19836 412.527568 
C 65.917069 412.808858 65.75902 413.190423 65.75902 413.588228 
C 65.75902 413.986032 65.917069 414.367598 66.19836 414.648888 
C 66.47965 414.930178 66.861215 415.088228 67.25902 415.088228 
z
" clip-path="url(#pf13d573f18)" style="fill: #bebebe; stroke: #ff0000; stroke-width: 3"/>
    <path d="M 37.453248 428.721272 
C 37.851053 428.721272 38.232618 428.563222 38.513908 428.281932 
C 38.795199 428.000641 38.953248 427.619076 38.953248 427.221272 
C 38.953248 426.823467 38.795199 426.441902 38.513908 426.160611 
C 38.232618 425.879321 37.851053 425.721272 37.453248 425.721272 
C 37.055443 425.721272 36.673878 425.879321 36.392588 426.160611 
C 36.111297 426.441902 35.953248 426.823467 35.953248 427.221272 
C 35.953248 427.619076 36.111297 428.000641 36.392588 428.281932 
C 36.673878 428.563222 37.055443 428.721272 37.453248 428.721272 
z
" clip-path="url(#pf13d573f18)" style="fill: #bebebe; stroke: #00ff00; stroke-width: 3"/>
    <path d="M 26.068456 450.78 
C 26.466261 450.78 26.847826 450.621951 27.129116 450.34066 
C 27.410407 450.05937 27.568456 449.677805 27.568456 449.28 
C 27.568456 448.882195 27.410407 448.50063 27.129116 448.21934 
C 26.847826 447.938049 26.466261 447.78 26.068456 447.78 
C 25.670652 447.78 25.289086 447.938049 25.007796 448.21934 
C 24.726506 448.50063 24.568456 448.882195 24.568456 449.28 
C 24.568456 449.677805 24.726506 450.05937 25.007796 450.34066 
C 25.289086 450.621951 25.670652 450.78 26.068456 450.78 
z
" clip-path="url(#pf13d573f18)" style="fill: #bebebe; stroke: #00ff00; stroke-width: 3"/>
    <path d="M 37.453248 477.338728 
C 39.044467 477.338728 40.570727 476.706531 41.695889 475.581369 
C 42.82105 474.456208 43.453248 472.929947 43.453248 471.338728 
C 43.453248 469.74751 42.82105 468.221249 41.695889 467.096088 
C 40.570727 465.970926 39.044467 465.338728 37.453248 465.338728 
C 35.862029 465.338728 34.335769 465.970926 33.210607 467.096088 
C 32.085446 468.221249 31.453248 469.74751 31.453248 471.338728 
C 31.453248 472.929947 32.085446 474.456208 33.210607 475.581369 
C 34.335769 476.706531 35.862029 477.338728 37.453248 477.338728 
z
" clip-path="url(#pf13d573f18)" style="fill: #bebebe; stroke: #00ff00; stroke-width: 3"/>
    <path d="M 67.25902 486.471772 
C 67.656825 486.471772 68.03839 486.313723 68.31968 486.032432 
C 68.60097 485.751142 68.75902 485.369577 68.75902 484.971772 
C 68.75902 484.573968 68.60097 484.192402 68.31968 483.911112 
C 68.03839 483.629822 67.656825 483.471772 67.25902 483.471772 
C 66.861215 483.471772 66.47965 483.629822 66.19836 483.911112 
C 65.917069 484.192402 65.75902 484.573968 65.75902 484.971772 
C 65.75902 485.369577 65.917069 485.751142 66.19836 486.032432 
C 66.47965 486.313723 66.861215 486.471772 67.25902 486.471772 
z
" clip-path="url(#pf13d573f18)" style="fill: #bebebe; stroke: #00ff00; stroke-width: 3"/>
    <path d="M 104.10098 486.471772 
C 104.498785 486.471772 104.88035 486.313723 105.16164 486.032432 
C 105.442931 485.751142 105.60098 485.369577 105.60098 484.971772 
C 105.60098 484.573968 105.442931 484.192402 105.16164 483.911112 
C 104.88035 483.629822 104.498785 483.471772 104.10098 483.471772 
C 103.703175 483.471772 103.32161 483.629822 103.04032 483.911112 
C 102.75903 484.192402 102.60098 484.573968 102.60098 484.971772 
C 102.60098 485.369577 102.75903 485.751142 103.04032 486.032432 
C 103.32161 486.313723 103.703175 486.471772 104.10098 486.471772 
z
" clip-path="url(#pf13d573f18)" style="fill: #bebebe; stroke: #00ff00; stroke-width: 3"/>
    <path d="M 133.906752 472.838728 
C 134.304557 472.838728 134.686122 472.680679 134.967412 472.399389 
C 135.248703 472.118098 135.406752 471.736533 135.406752 471.338728 
C 135.406752 470.940924 135.248703 470.559359 134.967412 470.278068 
C 134.686122 469.996778 134.304557 469.838728 133.906752 469.838728 
C 133.508947 469.838728 133.127382 469.996778 132.846092 470.278068 
C 132.564801 470.559359 132.406752 470.940924 132.406752 471.338728 
C 132.406752 471.736533 132.564801 472.118098 132.846092 472.399389 
C 133.127382 472.680679 133.508947 472.838728 133.906752 472.838728 
z
" clip-path="url(#pf13d573f18)" style="fill: #bebebe; stroke: #00ff00; stroke-width: 3"/>
   </g>
   <g id="matplotlib.axis_9"/>
   <g id="matplotlib.axis_10"/>
  </g>
 </g>
 <defs>
  <clipPath id="p495da7bb9b">
   <rect x="12.852" y="10.8" width="145.656" height="87.84"/>
  </clipPath>
  <clipPath id="pe5d1823e3f">
   <rect x="12.852" y="109.44" width="145.656" height="87.84"/>
  </clipPath>
  <clipPath id="p52d91c678d">
   <rect x="12.852" y="208.08" width="145.656" height="87.84"/>
  </clipPath>
  <clipPath id="p23ee9db947">
   <rect x="12.852" y="306.72" width="145.656" height="87.84"/>
  </clipPath>
  <clipPath id="pf13d573f18">
   <rect x="12.852" y="405.36" width="145.656" height="87.84"/>
  </clipPath>
 </defs>
</svg>
