<?xml version="1.0" encoding="utf-8" standalone="no"?>
<!DOCTYPE svg PUBLIC "-//W3C//DTD SVG 1.1//EN"
  "http://www.w3.org/Graphics/SVG/1.1/DTD/svg11.dtd">
<svg xmlns:xlink="http://www.w3.org/1999/xlink" width="171.36pt" height="504pt" viewBox="0 0 171.36 504" xmlns="http://www.w3.org/2000/svg" version="1.1">
 <metadata>
  <rdf:RDF xmlns:dc="http://purl.org/dc/elements/1.1/" xmlns:cc="http://creativecommons.org/ns#" xmlns:rdf="http://www.w3.org/1999/02/22-rdf-syntax-ns#">
   <cc:Work>
    <dc:type rdf:resource="http://purl.org/dc/dcmitype/StillImage"/>
    <dc:date>2025-08-19T12:00:51.720177</dc:date>
    <dc:format>image/svg+xml</dc:format>
    <dc:creator>
     <cc:Agent>
      <dc:title>Matplotlib v3.10.0, https://matplotlib.org/</dc:title>
     </cc:Agent>
    </dc:creator>
   </cc:Work>
  </rdf:RDF>
 </metadata>
 <defs>
  <style type="text/css">*{stroke-linejoin: round; stroke-linecap: butt}</style>
 </defs>
 <g id="figure_1">
  <g id="patch_1">
   <path d="M 0 504 
L 171.36 504 
L 171.36 0 
L 0 0 
z
" style="fill: #ffffff"/>
  </g>
  <g id="axes_1">
   <g id="patch_2">
    <path d="M 12.852 98.64 
L 158.508 98.64 
L 158.508 10.8 
L 12.852 10.8 
z
" style="fill: #ffffff"/>
   </g>
   <g id="EdgeCollection_1">
    <path d="M 146.590582 54.583567 
C 172.02174 67.453282 172.02174 40.213852 146.590582 53.083567 
C 172.02174 40.213852 172.02174 67.453282 146.590582 54.583567 
" clip-path="url(#p89fa068916)" style="fill: #020202"/>
    <path d="M 144.590105 52.507677 
L 134.608191 33.639432 
" clip-path="url(#p89fa068916)" style="fill: #020202"/>
    <path d="M 144.146006 52.865196 
L 105.246518 19.981806 
" clip-path="url(#p89fa068916)" style="fill: #020202; stroke: #020202; stroke-width: 1.485"/>
    <path d="M 143.921734 53.222322 
L 68.62883 19.624679 
" clip-path="url(#p89fa068916)" style="fill: #020202"/>
    <path d="M 143.820548 53.540018 
L 38.924244 32.607091 
" clip-path="url(#p89fa068916)" style="fill: #020202"/>
    <path d="M 143.791544 53.833567 
L 27.568456 53.833567 
" clip-path="url(#p89fa068916)" style="fill: #020202"/>
    <path d="M 143.820548 54.127117 
L 38.924244 75.060043 
" clip-path="url(#p89fa068916)" style="fill: #020202"/>
    <path d="M 143.921734 54.444812 
L 72.73826 86.208721 
" clip-path="url(#p89fa068916)" style="fill: #020202"/>
    <path d="M 144.146006 54.801939 
L 108.683131 84.780213 
" clip-path="url(#p89fa068916)" style="fill: #020202; stroke: #020202; stroke-width: 1.485"/>
    <path d="M 144.590105 55.159457 
L 134.608191 74.027703 
" clip-path="url(#p89fa068916)" style="fill: #020202"/>
    <path d="M 135.341848 31.87708 
C 162.112487 22.094124 142.217985 3.487799 134.246313 30.852481 
C 142.217985 3.487799 162.112487 22.094124 135.341848 31.87708 
" clip-path="url(#p89fa068916)" style="fill: #020202"/>
    <path d="M 132.536942 31.702297 
L 105.47079 19.624679 
" clip-path="url(#p89fa068916)" style="fill: #020202"/>
    <path d="M 132.435756 32.019992 
L 68.730016 19.306984 
" clip-path="url(#p89fa068916)" style="fill: #020202"/>
    <path d="M 132.406752 32.313542 
L 38.953248 32.313542 
" clip-path="url(#p89fa068916)" style="fill: #020202"/>
    <path d="M 132.435756 32.607091 
L 27.539452 53.540018 
" clip-path="url(#p89fa068916)" style="fill: #020202"/>
    <path d="M 132.536942 32.924786 
L 38.823058 74.742348 
" clip-path="url(#p89fa068916)" style="fill: #020202"/>
    <path d="M 132.761214 33.281913 
L 71.84117 84.780213 
" clip-path="url(#p89fa068916)" style="fill: #020202"/>
    <path d="M 133.205313 33.639432 
L 106.906735 83.350141 
" clip-path="url(#p89fa068916)" style="fill: #020202"/>
    <path d="M 133.906752 33.813542 
L 133.906752 73.853593 
" clip-path="url(#p89fa068916)" style="fill: #020202"/>
    <path d="M 105.10514 17.899135 
C 122.990288 -4.293089 96.348463 -9.967567 103.638048 17.586657 
C 96.348463 -9.967567 122.990288 -4.293089 105.10514 17.899135 
" clip-path="url(#p89fa068916)" style="fill: #020202"/>
    <path d="M 102.60098 19.013435 
L 68.75902 19.013435 
" clip-path="url(#p89fa068916)" style="fill: #020202; stroke: #020202; stroke-width: 1.485"/>
    <path d="M 102.629984 19.306984 
L 38.924244 32.019992 
" clip-path="url(#p89fa068916)" style="fill: #020202"/>
    <path d="M 102.73117 19.624679 
L 27.438266 53.222322 
" clip-path="url(#p89fa068916)" style="fill: #020202"/>
    <path d="M 102.955442 19.981806 
L 38.598786 74.385221 
" clip-path="url(#p89fa068916)" style="fill: #020202"/>
    <path d="M 103.399541 20.339324 
L 70.064775 83.350141 
" clip-path="url(#p89fa068916)" style="fill: #020202"/>
    <path d="M 104.10098 20.513435 
L 104.10098 82.6537 
" clip-path="url(#p89fa068916)" style="fill: #020202"/>
    <path d="M 104.802419 20.339324 
L 133.205313 74.027703 
" clip-path="url(#p89fa068916)" style="fill: #020202"/>
    <path d="M 67.721952 17.586657 
C 75.011537 -9.967567 48.369712 -4.293089 66.25486 17.899135 
C 48.369712 -4.293089 75.011537 -9.967567 67.721952 17.586657 
" clip-path="url(#p89fa068916)" style="fill: #020202"/>
    <path d="M 65.88921 19.624679 
L 38.823058 31.702297 
" clip-path="url(#p89fa068916)" style="fill: #020202"/>
    <path d="M 66.113482 19.981806 
L 27.213994 52.865196 
" clip-path="url(#p89fa068916)" style="fill: #020202"/>
    <path d="M 66.557581 20.339324 
L 38.154687 74.027703 
" clip-path="url(#p89fa068916)" style="fill: #020202"/>
    <path d="M 67.25902 20.513435 
L 67.25902 82.6537 
" clip-path="url(#p89fa068916)" style="fill: #020202"/>
    <path d="M 67.960459 20.339324 
L 101.295225 83.350141 
" clip-path="url(#p89fa068916)" style="fill: #020202"/>
    <path d="M 68.404558 19.981806 
L 132.761214 74.385221 
" clip-path="url(#p89fa068916)" style="fill: #020202"/>
    <path d="M 37.113687 30.852481 
C 29.142015 3.487799 9.247513 22.094124 36.018152 31.87708 
C 9.247513 22.094124 29.142015 3.487799 37.113687 30.852481 
" clip-path="url(#p89fa068916)" style="fill: #020202"/>
    <path d="M 36.751809 33.639432 
L 26.769895 52.507677 
" clip-path="url(#p89fa068916)" style="fill: #020202"/>
    <path d="M 37.453248 33.813542 
L 37.453248 73.853593 
" clip-path="url(#p89fa068916)" style="fill: #020202"/>
    <path d="M 38.154687 33.639432 
L 64.453265 83.350141 
" clip-path="url(#p89fa068916)" style="fill: #020202"/>
    <path d="M 38.598786 33.281913 
L 99.51883 84.780213 
" clip-path="url(#p89fa068916)" style="fill: #020202"/>
    <path d="M 38.823058 32.924786 
L 132.536942 74.742348 
" clip-path="url(#p89fa068916)" style="fill: #020202"/>
    <path d="M 24.769418 53.083567 
C -0.66174 40.213852 -0.66174 67.453282 24.769418 54.583567 
C -0.66174 67.453282 -0.66174 40.213852 24.769418 53.083567 
" clip-path="url(#p89fa068916)" style="fill: #020202"/>
    <path d="M 26.769895 55.159457 
L 36.751809 74.027703 
" clip-path="url(#p89fa068916)" style="fill: #020202"/>
    <path d="M 27.213994 54.801939 
L 62.676869 84.780213 
" clip-path="url(#p89fa068916)" style="fill: #020202; stroke: #020202; stroke-width: 1.485"/>
    <path d="M 27.438266 54.444812 
L 98.62174 86.208721 
" clip-path="url(#p89fa068916)" style="fill: #020202"/>
    <path d="M 27.539452 54.127117 
L 132.435756 75.060043 
" clip-path="url(#p89fa068916)" style="fill: #020202"/>
    <path d="M 36.018152 75.790054 
C 9.247513 85.57301 29.142015 104.179335 37.113687 76.814653 
C 29.142015 104.179335 9.247513 85.57301 36.018152 75.790054 
" clip-path="url(#p89fa068916)" style="fill: #020202"/>
    <path d="M 38.823058 75.964837 
L 61.779779 86.208721 
" clip-path="url(#p89fa068916)" style="fill: #020202; stroke: #020202; stroke-width: 1.485"/>
    <path d="M 38.924244 75.647142 
L 98.216997 87.479502 
" clip-path="url(#p89fa068916)" style="fill: #020202; stroke: #020202; stroke-width: 1.485"/>
    <path d="M 38.953248 75.353593 
L 132.406752 75.353593 
" clip-path="url(#p89fa068916)" style="fill: #020202"/>
    <path d="M 63.242382 93.110898 
C 48.369712 111.960223 75.011537 117.634702 69.110748 94.36081 
C 75.011537 117.634702 48.369712 111.960223 63.242382 93.110898 
" clip-path="url(#p89fa068916)" style="fill: #020202"/>
    <path d="M 73.25902 88.6537 
L 98.10098 88.6537 
" clip-path="url(#p89fa068916)" style="fill: #020202; stroke: #020202; stroke-width: 1.485"/>
    <path d="M 73.143003 87.479502 
L 132.435756 75.647142 
" clip-path="url(#p89fa068916)" style="fill: #020202"/>
    <path d="M 102.249252 94.36081 
C 96.348463 117.634702 122.990288 111.960223 108.117618 93.110898 
C 122.990288 111.960223 96.348463 117.634702 102.249252 94.36081 
" clip-path="url(#p89fa068916)" style="fill: #020202"/>
    <path d="M 109.580221 86.208721 
L 132.536942 75.964837 
" clip-path="url(#p89fa068916)" style="fill: #020202"/>
    <path d="M 134.246313 76.814653 
C 142.217985 104.179335 162.112487 85.57301 135.341848 75.790054 
C 162.112487 85.57301 142.217985 104.179335 134.246313 76.814653 
" clip-path="url(#p89fa068916)" style="fill: #020202"/>
   </g>
   <g id="VertexCollection_1">
    <path d="M 145.291544 55.333567 
C 145.689348 55.333567 146.070914 55.175518 146.352204 54.894227 
C 146.633494 54.612937 146.791544 54.231372 146.791544 53.833567 
C 146.791544 53.435763 146.633494 53.054197 146.352204 52.772907 
C 146.070914 52.491617 145.689348 52.333567 145.291544 52.333567 
C 144.893739 52.333567 144.512174 52.491617 144.230884 52.772907 
C 143.949593 53.054197 143.791544 53.435763 143.791544 53.833567 
C 143.791544 54.231372 143.949593 54.612937 144.230884 54.894227 
C 144.512174 55.175518 144.893739 55.333567 145.291544 55.333567 
z
" clip-path="url(#p89fa068916)" style="fill: #bebebe; stroke: #00ff00; stroke-width: 3"/>
    <path d="M 133.906752 33.813542 
C 134.304557 33.813542 134.686122 33.655492 134.967412 33.374202 
C 135.248703 33.092912 135.406752 32.711346 135.406752 32.313542 
C 135.406752 31.915737 135.248703 31.534172 134.967412 31.252882 
C 134.686122 30.971591 134.304557 30.813542 133.906752 30.813542 
C 133.508947 30.813542 133.127382 30.971591 132.846092 31.252882 
C 132.564801 31.534172 132.406752 31.915737 132.406752 32.313542 
C 132.406752 32.711346 132.564801 33.092912 132.846092 33.374202 
C 133.127382 33.655492 133.508947 33.813542 133.906752 33.813542 
z
" clip-path="url(#p89fa068916)" style="fill: #bebebe; stroke: #00ff00; stroke-width: 3"/>
    <path d="M 104.10098 20.513435 
C 104.498785 20.513435 104.88035 20.355385 105.16164 20.074095 
C 105.442931 19.792804 105.60098 19.411239 105.60098 19.013435 
C 105.60098 18.61563 105.442931 18.234065 105.16164 17.952774 
C 104.88035 17.671484 104.498785 17.513435 104.10098 17.513435 
C 103.703175 17.513435 103.32161 17.671484 103.04032 17.952774 
C 102.75903 18.234065 102.60098 18.61563 102.60098 19.013435 
C 102.60098 19.411239 102.75903 19.792804 103.04032 20.074095 
C 103.32161 20.355385 103.703175 20.513435 104.10098 20.513435 
z
" clip-path="url(#p89fa068916)" style="fill: #bebebe; stroke: #ff0000; stroke-width: 3"/>
    <path d="M 67.25902 20.513435 
C 67.656825 20.513435 68.03839 20.355385 68.31968 20.074095 
C 68.60097 19.792804 68.75902 19.411239 68.75902 19.013435 
C 68.75902 18.61563 68.60097 18.234065 68.31968 17.952774 
C 68.03839 17.671484 67.656825 17.513435 67.25902 17.513435 
C 66.861215 17.513435 66.47965 17.671484 66.19836 17.952774 
C 65.917069 18.234065 65.75902 18.61563 65.75902 19.013435 
C 65.75902 19.411239 65.917069 19.792804 66.19836 20.074095 
C 66.47965 20.355385 66.861215 20.513435 67.25902 20.513435 
z
" clip-path="url(#p89fa068916)" style="fill: #bebebe; stroke: #ff0000; stroke-width: 3"/>
    <path d="M 37.453248 33.813542 
C 37.851053 33.813542 38.232618 33.655492 38.513908 33.374202 
C 38.795199 33.092912 38.953248 32.711346 38.953248 32.313542 
C 38.953248 31.915737 38.795199 31.534172 38.513908 31.252882 
C 38.232618 30.971591 37.851053 30.813542 37.453248 30.813542 
C 37.055443 30.813542 36.673878 30.971591 36.392588 31.252882 
C 36.111297 31.534172 35.953248 31.915737 35.953248 32.313542 
C 35.953248 32.711346 36.111297 33.092912 36.392588 33.374202 
C 36.673878 33.655492 37.055443 33.813542 37.453248 33.813542 
z
" clip-path="url(#p89fa068916)" style="fill: #bebebe; stroke: #00ff00; stroke-width: 3"/>
    <path d="M 26.068456 55.333567 
C 26.466261 55.333567 26.847826 55.175518 27.129116 54.894227 
C 27.410407 54.612937 27.568456 54.231372 27.568456 53.833567 
C 27.568456 53.435763 27.410407 53.054197 27.129116 52.772907 
C 26.847826 52.491617 26.466261 52.333567 26.068456 52.333567 
C 25.670652 52.333567 25.289086 52.491617 25.007796 52.772907 
C 24.726506 53.054197 24.568456 53.435763 24.568456 53.833567 
C 24.568456 54.231372 24.726506 54.612937 25.007796 54.894227 
C 25.289086 55.175518 25.670652 55.333567 26.068456 55.333567 
z
" clip-path="url(#p89fa068916)" style="fill: #bebebe; stroke: #00ff00; stroke-width: 3"/>
    <path d="M 37.453248 76.853593 
C 37.851053 76.853593 38.232618 76.695543 38.513908 76.414253 
C 38.795199 76.132962 38.953248 75.751397 38.953248 75.353593 
C 38.953248 74.955788 38.795199 74.574223 38.513908 74.292932 
C 38.232618 74.011642 37.851053 73.853593 37.453248 73.853593 
C 37.055443 73.853593 36.673878 74.011642 36.392588 74.292932 
C 36.111297 74.574223 35.953248 74.955788 35.953248 75.353593 
C 35.953248 75.751397 36.111297 76.132962 36.392588 76.414253 
C 36.673878 76.695543 37.055443 76.853593 37.453248 76.853593 
z
" clip-path="url(#p89fa068916)" style="fill: #bebebe; stroke: #00ff00; stroke-width: 3"/>
    <path d="M 67.25902 94.6537 
C 68.850238 94.6537 70.376499 94.021502 71.501661 92.89634 
C 72.626822 91.771179 73.25902 90.244918 73.25902 88.6537 
C 73.25902 87.062481 72.626822 85.536221 71.501661 84.411059 
C 70.376499 83.285898 68.850238 82.6537 67.25902 82.6537 
C 65.667801 82.6537 64.141541 83.285898 63.016379 84.411059 
C 61.891218 85.536221 61.25902 87.062481 61.25902 88.6537 
C 61.25902 90.244918 61.891218 91.771179 63.016379 92.89634 
C 64.141541 94.021502 65.667801 94.6537 67.25902 94.6537 
z
" clip-path="url(#p89fa068916)" style="fill: #bebebe; stroke: #00ff00; stroke-width: 3"/>
    <path d="M 104.10098 94.6537 
C 105.692199 94.6537 107.218459 94.021502 108.343621 92.89634 
C 109.468782 91.771179 110.10098 90.244918 110.10098 88.6537 
C 110.10098 87.062481 109.468782 85.536221 108.343621 84.411059 
C 107.218459 83.285898 105.692199 82.6537 104.10098 82.6537 
C 102.509762 82.6537 100.983501 83.285898 99.858339 84.411059 
C 98.733178 85.536221 98.10098 87.062481 98.10098 88.6537 
C 98.10098 90.244918 98.733178 91.771179 99.858339 92.89634 
C 100.983501 94.021502 102.509762 94.6537 104.10098 94.6537 
z
" clip-path="url(#p89fa068916)" style="fill: #bebebe; stroke: #00ff00; stroke-width: 3"/>
    <path d="M 133.906752 76.853593 
C 134.304557 76.853593 134.686122 76.695543 134.967412 76.414253 
C 135.248703 76.132962 135.406752 75.751397 135.406752 75.353593 
C 135.406752 74.955788 135.248703 74.574223 134.967412 74.292932 
C 134.686122 74.011642 134.304557 73.853593 133.906752 73.853593 
C 133.508947 73.853593 133.127382 74.011642 132.846092 74.292932 
C 132.564801 74.574223 132.406752 74.955788 132.406752 75.353593 
C 132.406752 75.751397 132.564801 76.132962 132.846092 76.414253 
C 133.127382 76.695543 133.508947 76.853593 133.906752 76.853593 
z
" clip-path="url(#p89fa068916)" style="fill: #bebebe; stroke: #00ff00; stroke-width: 3"/>
   </g>
   <g id="matplotlib.axis_1"/>
   <g id="matplotlib.axis_2"/>
  </g>
  <g id="axes_2">
   <g id="patch_3">
    <path d="M 12.852 197.28 
L 158.508 197.28 
L 158.508 109.44 
L 12.852 109.44 
z
" style="fill: #ffffff"/>
   </g>
   <g id="EdgeCollection_2">
    <path d="M 148.789744 155.473567 
C 170.323787 166.093282 170.323787 138.853852 148.789744 149.473567 
C 170.323787 138.853852 170.323787 166.093282 148.789744 155.473567 
" clip-path="url(#p62e35f5d2f)" style="fill: #020202"/>
    <path d="M 140.819052 147.153611 
L 133.063794 132.283531 
" clip-path="url(#p62e35f5d2f)" style="fill: #020202"/>
    <path d="M 139.038847 148.567892 
L 104.125517 118.629853 
" clip-path="url(#p62e35f5d2f)" style="fill: #020202; stroke: #020202; stroke-width: 1.485"/>
    <path d="M 138.127478 149.999379 
L 68.033569 118.271982 
" clip-path="url(#p62e35f5d2f)" style="fill: #020202"/>
    <path d="M 137.712869 151.283148 
L 38.753893 131.251146 
" clip-path="url(#p62e35f5d2f)" style="fill: #020202"/>
    <path d="M 137.593591 152.473567 
L 27.56028 152.473567 
" clip-path="url(#p62e35f5d2f)" style="fill: #020202"/>
    <path d="M 137.712869 153.663986 
L 43.164435 172.803174 
" clip-path="url(#p62e35f5d2f)" style="fill: #020202; stroke: #020202; stroke-width: 1.485"/>
    <path d="M 138.127478 154.947756 
L 72.133153 184.819511 
" clip-path="url(#p62e35f5d2f)" style="fill: #020202"/>
    <path d="M 139.038847 156.379242 
L 107.541576 183.388024 
" clip-path="url(#p62e35f5d2f)" style="fill: #020202; stroke: #020202; stroke-width: 1.485"/>
    <path d="M 140.819052 157.793523 
L 133.063794 172.663604 
" clip-path="url(#p62e35f5d2f)" style="fill: #020202"/>
    <path d="M 133.80768 130.525133 
C 160.63275 120.892432 140.842884 102.174853 132.717907 129.494408 
C 140.842884 102.174853 160.63275 120.892432 133.80768 130.525133 
" clip-path="url(#p62e35f5d2f)" style="fill: #020202"/>
    <path d="M 131.003631 130.334995 
L 104.353359 118.271982 
" clip-path="url(#p62e35f5d2f)" style="fill: #020202"/>
    <path d="M 130.899978 130.655937 
L 68.137221 117.951039 
" clip-path="url(#p62e35f5d2f)" style="fill: #020202; stroke: #020202; stroke-width: 1.485"/>
    <path d="M 130.870159 130.953542 
L 38.783712 130.953542 
" clip-path="url(#p62e35f5d2f)" style="fill: #020202"/>
    <path d="M 130.899978 131.251146 
L 27.530461 152.175962 
" clip-path="url(#p62e35f5d2f)" style="fill: #020202"/>
    <path d="M 131.003631 131.572089 
L 42.749825 171.519404 
" clip-path="url(#p62e35f5d2f)" style="fill: #020202"/>
    <path d="M 131.231473 131.929961 
L 71.221785 183.388024 
" clip-path="url(#p62e35f5d2f)" style="fill: #020202"/>
    <path d="M 131.676524 132.283531 
L 105.761371 181.973744 
" clip-path="url(#p62e35f5d2f)" style="fill: #020202"/>
    <path d="M 132.370159 132.453542 
L 132.370159 172.493593 
" clip-path="url(#p62e35f5d2f)" style="fill: #020202"/>
    <path d="M 103.993961 116.541819 
C 121.938269 94.397403 95.311682 88.651847 102.527708 116.225427 
C 95.311682 88.651847 121.938269 94.397403 103.993961 116.541819 
" clip-path="url(#p62e35f5d2f)" style="fill: #020202"/>
    <path d="M 101.486831 117.653435 
L 68.16704 117.653435 
" clip-path="url(#p62e35f5d2f)" style="fill: #020202; stroke: #020202; stroke-width: 1.485"/>
    <path d="M 101.51665 117.951039 
L 38.753893 130.655937 
" clip-path="url(#p62e35f5d2f)" style="fill: #020202"/>
    <path d="M 101.620303 118.271982 
L 27.426808 151.85502 
" clip-path="url(#p62e35f5d2f)" style="fill: #020202"/>
    <path d="M 101.848145 118.629853 
L 41.838457 170.087917 
" clip-path="url(#p62e35f5d2f)" style="fill: #020202"/>
    <path d="M 102.293196 118.983424 
L 69.44158 181.973744 
" clip-path="url(#p62e35f5d2f)" style="fill: #020202"/>
    <path d="M 102.986831 119.153435 
L 102.986831 181.2937 
" clip-path="url(#p62e35f5d2f)" style="fill: #020202"/>
    <path d="M 103.680466 118.983424 
L 131.676524 172.663604 
" clip-path="url(#p62e35f5d2f)" style="fill: #020202"/>
    <path d="M 67.126163 116.225427 
C 74.34219 88.651847 47.715603 94.397403 65.659911 116.541819 
C 47.715603 94.397403 74.34219 88.651847 67.126163 116.225427 
" clip-path="url(#p62e35f5d2f)" style="fill: #020202"/>
    <path d="M 65.300512 118.271982 
L 38.650241 130.334995 
" clip-path="url(#p62e35f5d2f)" style="fill: #020202"/>
    <path d="M 65.528354 118.629853 
L 27.198966 151.497148 
" clip-path="url(#p62e35f5d2f)" style="fill: #020202"/>
    <path d="M 65.973405 118.983424 
L 40.058252 168.673637 
" clip-path="url(#p62e35f5d2f)" style="fill: #020202"/>
    <path d="M 66.66704 119.153435 
L 66.66704 181.2937 
" clip-path="url(#p62e35f5d2f)" style="fill: #020202"/>
    <path d="M 67.360675 118.983424 
L 100.212291 181.973744 
" clip-path="url(#p62e35f5d2f)" style="fill: #020202"/>
    <path d="M 67.805727 118.629853 
L 131.231473 173.017174 
" clip-path="url(#p62e35f5d2f)" style="fill: #020202"/>
    <path d="M 36.935965 129.494408 
C 28.810987 102.174853 9.021121 120.892432 35.846192 130.525133 
C 9.021121 120.892432 28.810987 102.174853 36.935965 129.494408 
" clip-path="url(#p62e35f5d2f)" style="fill: #020202"/>
    <path d="M 36.590077 132.283531 
L 26.753915 151.143578 
" clip-path="url(#p62e35f5d2f)" style="fill: #020202"/>
    <path d="M 37.283712 132.453542 
L 37.283712 167.993593 
" clip-path="url(#p62e35f5d2f)" style="fill: #020202"/>
    <path d="M 37.977347 132.283531 
L 63.892501 181.973744 
" clip-path="url(#p62e35f5d2f)" style="fill: #020202"/>
    <path d="M 38.422399 131.929961 
L 98.432086 183.388024 
" clip-path="url(#p62e35f5d2f)" style="fill: #020202"/>
    <path d="M 38.650241 131.572089 
L 131.003631 173.375045 
" clip-path="url(#p62e35f5d2f)" style="fill: #020202"/>
    <path d="M 24.761242 151.723567 
C -0.669916 138.853852 -0.669916 166.093282 24.761242 153.223567 
C -0.669916 166.093282 -0.669916 138.853852 24.761242 151.723567 
" clip-path="url(#p62e35f5d2f)" style="fill: #020202"/>
    <path d="M 26.753915 153.803556 
L 34.509173 168.673637 
" clip-path="url(#p62e35f5d2f)" style="fill: #020202"/>
    <path d="M 27.198966 153.449986 
L 62.112295 183.388024 
" clip-path="url(#p62e35f5d2f)" style="fill: #020202"/>
    <path d="M 27.426808 153.092114 
L 97.520718 184.819511 
" clip-path="url(#p62e35f5d2f)" style="fill: #020202"/>
    <path d="M 27.530461 152.771172 
L 130.899978 173.695988 
" clip-path="url(#p62e35f5d2f)" style="fill: #020202; stroke: #020202; stroke-width: 1.485"/>
    <path d="M 31.533629 175.707227 
C 9.021121 184.054702 28.810987 202.772281 35.892722 179.830128 
C 28.810987 202.772281 9.021121 184.054702 31.533629 175.707227 
" clip-path="url(#p62e35f5d2f)" style="fill: #020202"/>
    <path d="M 42.749825 176.467781 
L 61.200927 184.819511 
" clip-path="url(#p62e35f5d2f)" style="fill: #020202; stroke: #020202; stroke-width: 1.485"/>
    <path d="M 43.164435 175.184012 
L 97.106108 186.103281 
" clip-path="url(#p62e35f5d2f)" style="fill: #020202; stroke: #020202; stroke-width: 1.485"/>
    <path d="M 43.283712 173.993593 
L 130.870159 173.993593 
" clip-path="url(#p62e35f5d2f)" style="fill: #020202"/>
    <path d="M 62.638522 191.740163 
C 47.715603 210.549731 74.34219 216.295287 68.503532 193.005731 
C 74.34219 216.295287 47.715603 210.549731 62.638522 191.740163 
" clip-path="url(#p62e35f5d2f)" style="fill: #020202"/>
    <path d="M 72.66704 187.2937 
L 96.986831 187.2937 
" clip-path="url(#p62e35f5d2f)" style="fill: #020202; stroke: #020202; stroke-width: 1.485"/>
    <path d="M 72.547763 186.103281 
L 130.899978 174.291197 
" clip-path="url(#p62e35f5d2f)" style="fill: #020202; stroke: #020202; stroke-width: 1.485"/>
    <path d="M 101.15034 193.005731 
C 95.311682 216.295287 121.938269 210.549731 107.015349 191.740163 
C 121.938269 210.549731 95.311682 216.295287 101.15034 193.005731 
" clip-path="url(#p62e35f5d2f)" style="fill: #020202"/>
    <path d="M 108.452944 184.819511 
L 131.003631 174.61214 
" clip-path="url(#p62e35f5d2f)" style="fill: #020202"/>
    <path d="M 132.717907 175.452726 
C 140.842884 202.772281 160.63275 184.054702 133.80768 174.422001 
C 160.63275 184.054702 140.842884 202.772281 132.717907 175.452726 
" clip-path="url(#p62e35f5d2f)" style="fill: #020202"/>
   </g>
   <g id="VertexCollection_2">
    <path d="M 143.593591 158.473567 
C 145.18481 158.473567 146.711071 157.841369 147.836232 156.716208 
C 148.961394 155.591046 149.593591 154.064786 149.593591 152.473567 
C 149.593591 150.882349 148.961394 149.356088 147.836232 148.230926 
C 146.711071 147.105765 145.18481 146.473567 143.593591 146.473567 
C 142.002373 146.473567 140.476112 147.105765 139.350951 148.230926 
C 138.225789 149.356088 137.593591 150.882349 137.593591 152.473567 
C 137.593591 154.064786 138.225789 155.591046 139.350951 156.716208 
C 140.476112 157.841369 142.002373 158.473567 143.593591 158.473567 
z
" clip-path="url(#p62e35f5d2f)" style="fill: #bebebe; stroke: #00ff00; stroke-width: 3"/>
    <path d="M 132.370159 132.453542 
C 132.767964 132.453542 133.149529 132.295492 133.430819 132.014202 
C 133.712109 131.732912 133.870159 131.351346 133.870159 130.953542 
C 133.870159 130.555737 133.712109 130.174172 133.430819 129.892882 
C 133.149529 129.611591 132.767964 129.453542 132.370159 129.453542 
C 131.972354 129.453542 131.590789 129.611591 131.309499 129.892882 
C 131.028208 130.174172 130.870159 130.555737 130.870159 130.953542 
C 130.870159 131.351346 131.028208 131.732912 131.309499 132.014202 
C 131.590789 132.295492 131.972354 132.453542 132.370159 132.453542 
z
" clip-path="url(#p62e35f5d2f)" style="fill: #bebebe; stroke: #00ff00; stroke-width: 3"/>
    <path d="M 102.986831 119.153435 
C 103.384636 119.153435 103.766201 118.995385 104.047491 118.714095 
C 104.328782 118.432804 104.486831 118.051239 104.486831 117.653435 
C 104.486831 117.25563 104.328782 116.874065 104.047491 116.592774 
C 103.766201 116.311484 103.384636 116.153435 102.986831 116.153435 
C 102.589026 116.153435 102.207461 116.311484 101.926171 116.592774 
C 101.64488 116.874065 101.486831 117.25563 101.486831 117.653435 
C 101.486831 118.051239 101.64488 118.432804 101.926171 118.714095 
C 102.207461 118.995385 102.589026 119.153435 102.986831 119.153435 
z
" clip-path="url(#p62e35f5d2f)" style="fill: #bebebe; stroke: #ff0000; stroke-width: 3"/>
    <path d="M 66.66704 119.153435 
C 67.064845 119.153435 67.44641 118.995385 67.7277 118.714095 
C 68.008991 118.432804 68.16704 118.051239 68.16704 117.653435 
C 68.16704 117.25563 68.008991 116.874065 67.7277 116.592774 
C 67.44641 116.311484 67.064845 116.153435 66.66704 116.153435 
C 66.269236 116.153435 65.88767 116.311484 65.60638 116.592774 
C 65.32509 116.874065 65.16704 117.25563 65.16704 117.653435 
C 65.16704 118.051239 65.32509 118.432804 65.60638 118.714095 
C 65.88767 118.995385 66.269236 119.153435 66.66704 119.153435 
z
" clip-path="url(#p62e35f5d2f)" style="fill: #bebebe; stroke: #ff0000; stroke-width: 3"/>
    <path d="M 37.283712 132.453542 
C 37.681517 132.453542 38.063082 132.295492 38.344373 132.014202 
C 38.625663 131.732912 38.783712 131.351346 38.783712 130.953542 
C 38.783712 130.555737 38.625663 130.174172 38.344373 129.892882 
C 38.063082 129.611591 37.681517 129.453542 37.283712 129.453542 
C 36.885908 129.453542 36.504343 129.611591 36.223052 129.892882 
C 35.941762 130.174172 35.783712 130.555737 35.783712 130.953542 
C 35.783712 131.351346 35.941762 131.732912 36.223052 132.014202 
C 36.504343 132.295492 36.885908 132.453542 37.283712 132.453542 
z
" clip-path="url(#p62e35f5d2f)" style="fill: #bebebe; stroke: #00ff00; stroke-width: 3"/>
    <path d="M 26.06028 153.973567 
C 26.458084 153.973567 26.83965 153.815518 27.12094 153.534227 
C 27.40223 153.252937 27.56028 152.871372 27.56028 152.473567 
C 27.56028 152.075763 27.40223 151.694197 27.12094 151.412907 
C 26.83965 151.131617 26.458084 150.973567 26.06028 150.973567 
C 25.662475 150.973567 25.28091 151.131617 24.99962 151.412907 
C 24.718329 151.694197 24.56028 152.075763 24.56028 152.473567 
C 24.56028 152.871372 24.718329 153.252937 24.99962 153.534227 
C 25.28091 153.815518 25.662475 153.973567 26.06028 153.973567 
z
" clip-path="url(#p62e35f5d2f)" style="fill: #bebebe; stroke: #00ff00; stroke-width: 3"/>
    <path d="M 37.283712 179.993593 
C 38.874931 179.993593 40.401192 179.361395 41.526353 178.236233 
C 42.651515 177.111072 43.283712 175.584811 43.283712 173.993593 
C 43.283712 172.402374 42.651515 170.876113 41.526353 169.750952 
C 40.401192 168.62579 38.874931 167.993593 37.283712 167.993593 
C 35.692494 167.993593 34.166233 168.62579 33.041072 169.750952 
C 31.91591 170.876113 31.283712 172.402374 31.283712 173.993593 
C 31.283712 175.584811 31.91591 177.111072 33.041072 178.236233 
C 34.166233 179.361395 35.692494 179.993593 37.283712 179.993593 
z
" clip-path="url(#p62e35f5d2f)" style="fill: #bebebe; stroke: #00ff00; stroke-width: 3"/>
    <path d="M 66.66704 193.2937 
C 68.258259 193.2937 69.78452 192.661502 70.909681 191.53634 
C 72.034842 190.411179 72.66704 188.884918 72.66704 187.2937 
C 72.66704 185.702481 72.034842 184.176221 70.909681 183.051059 
C 69.78452 181.925898 68.258259 181.2937 66.66704 181.2937 
C 65.075822 181.2937 63.549561 181.925898 62.4244 183.051059 
C 61.299238 184.176221 60.66704 185.702481 60.66704 187.2937 
C 60.66704 188.884918 61.299238 190.411179 62.4244 191.53634 
C 63.549561 192.661502 65.075822 193.2937 66.66704 193.2937 
z
" clip-path="url(#p62e35f5d2f)" style="fill: #bebebe; stroke: #00ff00; stroke-width: 3"/>
    <path d="M 102.986831 193.2937 
C 104.57805 193.2937 106.10431 192.661502 107.229472 191.53634 
C 108.354633 190.411179 108.986831 188.884918 108.986831 187.2937 
C 108.986831 185.702481 108.354633 184.176221 107.229472 183.051059 
C 106.10431 181.925898 104.57805 181.2937 102.986831 181.2937 
C 101.395612 181.2937 99.869352 181.925898 98.74419 183.051059 
C 97.619029 184.176221 96.986831 185.702481 96.986831 187.2937 
C 96.986831 188.884918 97.619029 190.411179 98.74419 191.53634 
C 99.869352 192.661502 101.395612 193.2937 102.986831 193.2937 
z
" clip-path="url(#p62e35f5d2f)" style="fill: #bebebe; stroke: #00ff00; stroke-width: 3"/>
    <path d="M 132.370159 175.493593 
C 132.767964 175.493593 133.149529 175.335543 133.430819 175.054253 
C 133.712109 174.772962 133.870159 174.391397 133.870159 173.993593 
C 133.870159 173.595788 133.712109 173.214223 133.430819 172.932932 
C 133.149529 172.651642 132.767964 172.493593 132.370159 172.493593 
C 131.972354 172.493593 131.590789 172.651642 131.309499 172.932932 
C 131.028208 173.214223 130.870159 173.595788 130.870159 173.993593 
C 130.870159 174.391397 131.028208 174.772962 131.309499 175.054253 
C 131.590789 175.335543 131.972354 175.493593 132.370159 175.493593 
z
" clip-path="url(#p62e35f5d2f)" style="fill: #bebebe; stroke: #00ff00; stroke-width: 3"/>
   </g>
   <g id="matplotlib.axis_3"/>
   <g id="matplotlib.axis_4"/>
  </g>
  <g id="axes_3">
   <g id="patch_4">
    <path d="M 12.852 295.92 
L 158.508 295.92 
L 158.508 208.08 
L 12.852 208.08 
z
" style="fill: #ffffff"/>
   </g>
   <g id="EdgeCollection_3">
    <path d="M 146.590582 251.863567 
C 172.02174 264.733282 172.02174 237.493852 146.590582 250.363567 
C 172.02174 237.493852 172.02174 264.733282 146.590582 251.863567 
" clip-path="url(#pacafe29dac)" style="fill: #020202"/>
    <path d="M 144.590105 249.787677 
L 134.608191 230.919432 
" clip-path="url(#pacafe29dac)" style="fill: #020202"/>
    <path d="M 144.146006 250.145196 
L 105.246518 217.261806 
" clip-path="url(#pacafe29dac)" style="fill: #020202; stroke: #020202; stroke-width: 1.485"/>
    <path d="M 143.921734 250.502322 
L 68.62883 216.904679 
" clip-path="url(#pacafe29dac)" style="fill: #020202"/>
    <path d="M 143.820548 250.820018 
L 38.924244 229.887091 
" clip-path="url(#pacafe29dac)" style="fill: #020202"/>
    <path d="M 143.791544 251.113567 
L 27.568456 251.113567 
" clip-path="url(#pacafe29dac)" style="fill: #020202"/>
    <path d="M 143.820548 251.407117 
L 43.337231 271.459395 
" clip-path="url(#pacafe29dac)" style="fill: #020202"/>
    <path d="M 143.921734 251.724812 
L 72.73826 283.488721 
" clip-path="url(#pacafe29dac)" style="fill: #020202"/>
    <path d="M 144.146006 252.081939 
L 108.683131 282.060213 
" clip-path="url(#pacafe29dac)" style="fill: #020202"/>
    <path d="M 144.590105 252.439457 
L 134.608191 271.307703 
" clip-path="url(#pacafe29dac)" style="fill: #020202"/>
    <path d="M 135.341848 229.15708 
C 162.112487 219.374124 142.217985 200.767799 134.246313 228.132481 
C 142.217985 200.767799 162.112487 219.374124 135.341848 229.15708 
" clip-path="url(#pacafe29dac)" style="fill: #020202"/>
    <path d="M 132.536942 228.982297 
L 105.47079 216.904679 
" clip-path="url(#pacafe29dac)" style="fill: #020202"/>
    <path d="M 132.435756 229.299992 
L 68.730016 216.586984 
" clip-path="url(#pacafe29dac)" style="fill: #020202"/>
    <path d="M 132.406752 229.593542 
L 38.953248 229.593542 
" clip-path="url(#pacafe29dac)" style="fill: #020202"/>
    <path d="M 132.435756 229.887091 
L 27.539452 250.820018 
" clip-path="url(#pacafe29dac)" style="fill: #020202"/>
    <path d="M 132.536942 230.204786 
L 42.932489 270.188614 
" clip-path="url(#pacafe29dac)" style="fill: #020202; stroke: #020202; stroke-width: 1.485"/>
    <path d="M 132.761214 230.561913 
L 71.84117 282.060213 
" clip-path="url(#pacafe29dac)" style="fill: #020202"/>
    <path d="M 133.205313 230.919432 
L 106.906735 280.630141 
" clip-path="url(#pacafe29dac)" style="fill: #020202; stroke: #020202; stroke-width: 1.485"/>
    <path d="M 133.906752 231.093542 
L 133.906752 271.133593 
" clip-path="url(#pacafe29dac)" style="fill: #020202"/>
    <path d="M 105.10514 215.179135 
C 122.990288 192.986911 96.348463 187.312433 103.638048 214.866657 
C 96.348463 187.312433 122.990288 192.986911 105.10514 215.179135 
" clip-path="url(#pacafe29dac)" style="fill: #020202"/>
    <path d="M 102.60098 216.293435 
L 68.75902 216.293435 
" clip-path="url(#pacafe29dac)" style="fill: #020202; stroke: #020202; stroke-width: 1.485"/>
    <path d="M 102.629984 216.586984 
L 38.924244 229.299992 
" clip-path="url(#pacafe29dac)" style="fill: #020202"/>
    <path d="M 102.73117 216.904679 
L 27.438266 250.502322 
" clip-path="url(#pacafe29dac)" style="fill: #020202"/>
    <path d="M 102.955442 217.261806 
L 42.035398 268.760106 
" clip-path="url(#pacafe29dac)" style="fill: #020202"/>
    <path d="M 103.399541 217.619324 
L 70.064775 280.630141 
" clip-path="url(#pacafe29dac)" style="fill: #020202"/>
    <path d="M 104.10098 217.793435 
L 104.10098 279.9337 
" clip-path="url(#pacafe29dac)" style="fill: #020202"/>
    <path d="M 104.802419 217.619324 
L 133.205313 271.307703 
" clip-path="url(#pacafe29dac)" style="fill: #020202"/>
    <path d="M 67.721952 214.866657 
C 75.011537 187.312433 48.369712 192.986911 66.25486 215.179135 
C 48.369712 192.986911 75.011537 187.312433 67.721952 214.866657 
" clip-path="url(#pacafe29dac)" style="fill: #020202"/>
    <path d="M 65.88921 216.904679 
L 38.823058 228.982297 
" clip-path="url(#pacafe29dac)" style="fill: #020202"/>
    <path d="M 66.113482 217.261806 
L 27.213994 250.145196 
" clip-path="url(#pacafe29dac)" style="fill: #020202"/>
    <path d="M 66.557581 217.619324 
L 40.259003 267.330033 
" clip-path="url(#pacafe29dac)" style="fill: #020202"/>
    <path d="M 67.25902 217.793435 
L 67.25902 279.9337 
" clip-path="url(#pacafe29dac)" style="fill: #020202"/>
    <path d="M 67.960459 217.619324 
L 101.295225 280.630141 
" clip-path="url(#pacafe29dac)" style="fill: #020202"/>
    <path d="M 68.404558 217.261806 
L 132.761214 271.665221 
" clip-path="url(#pacafe29dac)" style="fill: #020202"/>
    <path d="M 37.113687 228.132481 
C 29.142015 200.767799 9.247513 219.374124 36.018152 229.15708 
C 9.247513 219.374124 29.142015 200.767799 37.113687 228.132481 
" clip-path="url(#pacafe29dac)" style="fill: #020202"/>
    <path d="M 36.751809 230.919432 
L 26.769895 249.787677 
" clip-path="url(#pacafe29dac)" style="fill: #020202"/>
    <path d="M 37.453248 231.093542 
L 37.453248 266.633593 
" clip-path="url(#pacafe29dac)" style="fill: #020202"/>
    <path d="M 38.154687 230.919432 
L 64.453265 280.630141 
" clip-path="url(#pacafe29dac)" style="fill: #020202"/>
    <path d="M 38.598786 230.561913 
L 99.51883 282.060213 
" clip-path="url(#pacafe29dac)" style="fill: #020202"/>
    <path d="M 38.823058 230.204786 
L 132.536942 272.022348 
" clip-path="url(#pacafe29dac)" style="fill: #020202"/>
    <path d="M 24.769418 250.363567 
C -0.66174 237.493852 -0.66174 264.733282 24.769418 251.863567 
C -0.66174 264.733282 -0.66174 237.493852 24.769418 250.363567 
" clip-path="url(#pacafe29dac)" style="fill: #020202"/>
    <path d="M 26.769895 252.439457 
L 34.647493 267.330033 
" clip-path="url(#pacafe29dac)" style="fill: #020202"/>
    <path d="M 27.213994 252.081939 
L 62.676869 282.060213 
" clip-path="url(#pacafe29dac)" style="fill: #020202"/>
    <path d="M 27.438266 251.724812 
L 98.62174 283.488721 
" clip-path="url(#pacafe29dac)" style="fill: #020202"/>
    <path d="M 27.539452 251.407117 
L 132.435756 272.340043 
" clip-path="url(#pacafe29dac)" style="fill: #020202; stroke: #020202; stroke-width: 1.485"/>
    <path d="M 31.712863 274.37944 
C 9.247513 282.85301 29.142015 301.459335 36.095004 278.477835 
C 29.142015 301.459335 9.247513 282.85301 31.712863 274.37944 
" clip-path="url(#pacafe29dac)" style="fill: #020202"/>
    <path d="M 42.932489 275.078572 
L 61.779779 283.488721 
" clip-path="url(#pacafe29dac)" style="fill: #020202; stroke: #020202; stroke-width: 1.485"/>
    <path d="M 43.337231 273.80779 
L 98.216997 284.759502 
" clip-path="url(#pacafe29dac)" style="fill: #020202; stroke: #020202; stroke-width: 1.485"/>
    <path d="M 43.453248 272.633593 
L 132.406752 272.633593 
" clip-path="url(#pacafe29dac)" style="fill: #020202"/>
    <path d="M 63.242382 290.390898 
C 48.369712 309.240223 75.011537 314.914702 69.110748 291.64081 
C 75.011537 314.914702 48.369712 309.240223 63.242382 290.390898 
" clip-path="url(#pacafe29dac)" style="fill: #020202"/>
    <path d="M 73.25902 285.9337 
L 98.10098 285.9337 
" clip-path="url(#pacafe29dac)" style="fill: #020202; stroke: #020202; stroke-width: 1.485"/>
    <path d="M 73.143003 284.759502 
L 132.435756 272.927142 
" clip-path="url(#pacafe29dac)" style="fill: #020202; stroke: #020202; stroke-width: 1.485"/>
    <path d="M 102.249252 291.64081 
C 96.348463 314.914702 122.990288 309.240223 108.117618 290.390898 
C 122.990288 309.240223 96.348463 314.914702 102.249252 291.64081 
" clip-path="url(#pacafe29dac)" style="fill: #020202"/>
    <path d="M 109.580221 283.488721 
L 132.536942 273.244837 
" clip-path="url(#pacafe29dac)" style="fill: #020202"/>
    <path d="M 134.246313 274.094653 
C 142.217985 301.459335 162.112487 282.85301 135.341848 273.070054 
C 162.112487 282.85301 142.217985 301.459335 134.246313 274.094653 
" clip-path="url(#pacafe29dac)" style="fill: #020202"/>
   </g>
   <g id="VertexCollection_3">
    <path d="M 145.291544 252.613567 
C 145.689348 252.613567 146.070914 252.455518 146.352204 252.174227 
C 146.633494 251.892937 146.791544 251.511372 146.791544 251.113567 
C 146.791544 250.715763 146.633494 250.334197 146.352204 250.052907 
C 146.070914 249.771617 145.689348 249.613567 145.291544 249.613567 
C 144.893739 249.613567 144.512174 249.771617 144.230884 250.052907 
C 143.949593 250.334197 143.791544 250.715763 143.791544 251.113567 
C 143.791544 251.511372 143.949593 251.892937 144.230884 252.174227 
C 144.512174 252.455518 144.893739 252.613567 145.291544 252.613567 
z
" clip-path="url(#pacafe29dac)" style="fill: #bebebe; stroke: #00ff00; stroke-width: 3"/>
    <path d="M 133.906752 231.093542 
C 134.304557 231.093542 134.686122 230.935492 134.967412 230.654202 
C 135.248703 230.372912 135.406752 229.991346 135.406752 229.593542 
C 135.406752 229.195737 135.248703 228.814172 134.967412 228.532882 
C 134.686122 228.251591 134.304557 228.093542 133.906752 228.093542 
C 133.508947 228.093542 133.127382 228.251591 132.846092 228.532882 
C 132.564801 228.814172 132.406752 229.195737 132.406752 229.593542 
C 132.406752 229.991346 132.564801 230.372912 132.846092 230.654202 
C 133.127382 230.935492 133.508947 231.093542 133.906752 231.093542 
z
" clip-path="url(#pacafe29dac)" style="fill: #bebebe; stroke: #00ff00; stroke-width: 3"/>
    <path d="M 104.10098 217.793435 
C 104.498785 217.793435 104.88035 217.635385 105.16164 217.354095 
C 105.442931 217.072804 105.60098 216.691239 105.60098 216.293435 
C 105.60098 215.89563 105.442931 215.514065 105.16164 215.232774 
C 104.88035 214.951484 104.498785 214.793435 104.10098 214.793435 
C 103.703175 214.793435 103.32161 214.951484 103.04032 215.232774 
C 102.75903 215.514065 102.60098 215.89563 102.60098 216.293435 
C 102.60098 216.691239 102.75903 217.072804 103.04032 217.354095 
C 103.32161 217.635385 103.703175 217.793435 104.10098 217.793435 
z
" clip-path="url(#pacafe29dac)" style="fill: #bebebe; stroke: #ff0000; stroke-width: 3"/>
    <path d="M 67.25902 217.793435 
C 67.656825 217.793435 68.03839 217.635385 68.31968 217.354095 
C 68.60097 217.072804 68.75902 216.691239 68.75902 216.293435 
C 68.75902 215.89563 68.60097 215.514065 68.31968 215.232774 
C 68.03839 214.951484 67.656825 214.793435 67.25902 214.793435 
C 66.861215 214.793435 66.47965 214.951484 66.19836 215.232774 
C 65.917069 215.514065 65.75902 215.89563 65.75902 216.293435 
C 65.75902 216.691239 65.917069 217.072804 66.19836 217.354095 
C 66.47965 217.635385 66.861215 217.793435 67.25902 217.793435 
z
" clip-path="url(#pacafe29dac)" style="fill: #bebebe; stroke: #ff0000; stroke-width: 3"/>
    <path d="M 37.453248 231.093542 
C 37.851053 231.093542 38.232618 230.935492 38.513908 230.654202 
C 38.795199 230.372912 38.953248 229.991346 38.953248 229.593542 
C 38.953248 229.195737 38.795199 228.814172 38.513908 228.532882 
C 38.232618 228.251591 37.851053 228.093542 37.453248 228.093542 
C 37.055443 228.093542 36.673878 228.251591 36.392588 228.532882 
C 36.111297 228.814172 35.953248 229.195737 35.953248 229.593542 
C 35.953248 229.991346 36.111297 230.372912 36.392588 230.654202 
C 36.673878 230.935492 37.055443 231.093542 37.453248 231.093542 
z
" clip-path="url(#pacafe29dac)" style="fill: #bebebe; stroke: #00ff00; stroke-width: 3"/>
    <path d="M 26.068456 252.613567 
C 26.466261 252.613567 26.847826 252.455518 27.129116 252.174227 
C 27.410407 251.892937 27.568456 251.511372 27.568456 251.113567 
C 27.568456 250.715763 27.410407 250.334197 27.129116 250.052907 
C 26.847826 249.771617 26.466261 249.613567 26.068456 249.613567 
C 25.670652 249.613567 25.289086 249.771617 25.007796 250.052907 
C 24.726506 250.334197 24.568456 250.715763 24.568456 251.113567 
C 24.568456 251.511372 24.726506 251.892937 25.007796 252.174227 
C 25.289086 252.455518 25.670652 252.613567 26.068456 252.613567 
z
" clip-path="url(#pacafe29dac)" style="fill: #bebebe; stroke: #00ff00; stroke-width: 3"/>
    <path d="M 37.453248 278.633593 
C 39.044467 278.633593 40.570727 278.001395 41.695889 276.876233 
C 42.82105 275.751072 43.453248 274.224811 43.453248 272.633593 
C 43.453248 271.042374 42.82105 269.516113 41.695889 268.390952 
C 40.570727 267.26579 39.044467 266.633593 37.453248 266.633593 
C 35.862029 266.633593 34.335769 267.26579 33.210607 268.390952 
C 32.085446 269.516113 31.453248 271.042374 31.453248 272.633593 
C 31.453248 274.224811 32.085446 275.751072 33.210607 276.876233 
C 34.335769 278.001395 35.862029 278.633593 37.453248 278.633593 
z
" clip-path="url(#pacafe29dac)" style="fill: #bebebe; stroke: #00ff00; stroke-width: 3"/>
    <path d="M 67.25902 291.9337 
C 68.850238 291.9337 70.376499 291.301502 71.501661 290.17634 
C 72.626822 289.051179 73.25902 287.524918 73.25902 285.9337 
C 73.25902 284.342481 72.626822 282.816221 71.501661 281.691059 
C 70.376499 280.565898 68.850238 279.9337 67.25902 279.9337 
C 65.667801 279.9337 64.141541 280.565898 63.016379 281.691059 
C 61.891218 282.816221 61.25902 284.342481 61.25902 285.9337 
C 61.25902 287.524918 61.891218 289.051179 63.016379 290.17634 
C 64.141541 291.301502 65.667801 291.9337 67.25902 291.9337 
z
" clip-path="url(#pacafe29dac)" style="fill: #bebebe; stroke: #00ff00; stroke-width: 3"/>
    <path d="M 104.10098 291.9337 
C 105.692199 291.9337 107.218459 291.301502 108.343621 290.17634 
C 109.468782 289.051179 110.10098 287.524918 110.10098 285.9337 
C 110.10098 284.342481 109.468782 282.816221 108.343621 281.691059 
C 107.218459 280.565898 105.692199 279.9337 104.10098 279.9337 
C 102.509762 279.9337 100.983501 280.565898 99.858339 281.691059 
C 98.733178 282.816221 98.10098 284.342481 98.10098 285.9337 
C 98.10098 287.524918 98.733178 289.051179 99.858339 290.17634 
C 100.983501 291.301502 102.509762 291.9337 104.10098 291.9337 
z
" clip-path="url(#pacafe29dac)" style="fill: #bebebe; stroke: #00ff00; stroke-width: 3"/>
    <path d="M 133.906752 274.133593 
C 134.304557 274.133593 134.686122 273.975543 134.967412 273.694253 
C 135.248703 273.412962 135.406752 273.031397 135.406752 272.633593 
C 135.406752 272.235788 135.248703 271.854223 134.967412 271.572932 
C 134.686122 271.291642 134.304557 271.133593 133.906752 271.133593 
C 133.508947 271.133593 133.127382 271.291642 132.846092 271.572932 
C 132.564801 271.854223 132.406752 272.235788 132.406752 272.633593 
C 132.406752 273.031397 132.564801 273.412962 132.846092 273.694253 
C 133.127382 273.975543 133.508947 274.133593 133.906752 274.133593 
z
" clip-path="url(#pacafe29dac)" style="fill: #bebebe; stroke: #00ff00; stroke-width: 3"/>
   </g>
   <g id="matplotlib.axis_5"/>
   <g id="matplotlib.axis_6"/>
  </g>
  <g id="axes_4">
   <g id="patch_5">
    <path d="M 12.852 394.56 
L 158.508 394.56 
L 158.508 306.72 
L 12.852 306.72 
z
" style="fill: #ffffff"/>
   </g>
   <g id="EdgeCollection_4">
    <path d="M 146.598758 350.503567 
C 172.029916 363.373282 172.029916 336.133852 146.598758 349.003567 
C 172.029916 336.133852 172.029916 363.373282 146.598758 350.503567 
" clip-path="url(#p9286302a2f)" style="fill: #020202"/>
    <path d="M 144.606085 348.423578 
L 134.769923 329.563531 
" clip-path="url(#p9286302a2f)" style="fill: #020202"/>
    <path d="M 144.161034 348.777148 
L 105.831646 315.909853 
" clip-path="url(#p9286302a2f)" style="fill: #020202; stroke: #020202; stroke-width: 1.485"/>
    <path d="M 143.933192 349.13502 
L 69.739697 315.551982 
" clip-path="url(#p9286302a2f)" style="fill: #020202"/>
    <path d="M 143.829539 349.455962 
L 40.460022 328.531146 
" clip-path="url(#p9286302a2f)" style="fill: #020202"/>
    <path d="M 143.79972 349.753567 
L 33.766409 349.753567 
" clip-path="url(#p9286302a2f)" style="fill: #020202"/>
    <path d="M 143.829539 350.051172 
L 44.870564 370.083174 
" clip-path="url(#p9286302a2f)" style="fill: #020202"/>
    <path d="M 143.933192 350.372114 
L 73.839282 382.099511 
" clip-path="url(#p9286302a2f)" style="fill: #020202"/>
    <path d="M 144.161034 350.729986 
L 109.247705 380.668024 
" clip-path="url(#p9286302a2f)" style="fill: #020202"/>
    <path d="M 144.606085 351.083556 
L 134.769923 369.943604 
" clip-path="url(#p9286302a2f)" style="fill: #020202"/>
    <path d="M 135.513808 327.805133 
C 162.338879 318.172432 142.549013 299.454853 134.424035 326.774408 
C 142.549013 299.454853 162.338879 318.172432 135.513808 327.805133 
" clip-path="url(#p9286302a2f)" style="fill: #020202"/>
    <path d="M 132.709759 327.614995 
L 106.059488 315.551982 
" clip-path="url(#p9286302a2f)" style="fill: #020202"/>
    <path d="M 132.606107 327.935937 
L 69.84335 315.231039 
" clip-path="url(#p9286302a2f)" style="fill: #020202"/>
    <path d="M 132.576288 328.233542 
L 40.489841 328.233542 
" clip-path="url(#p9286302a2f)" style="fill: #020202"/>
    <path d="M 132.606107 328.531146 
L 33.647131 348.563148 
" clip-path="url(#p9286302a2f)" style="fill: #020202"/>
    <path d="M 132.709759 328.852089 
L 44.455954 368.799404 
" clip-path="url(#p9286302a2f)" style="fill: #020202; stroke: #020202; stroke-width: 1.485"/>
    <path d="M 132.937601 329.209961 
L 72.927914 380.668024 
" clip-path="url(#p9286302a2f)" style="fill: #020202"/>
    <path d="M 133.382653 329.563531 
L 107.467499 379.253744 
" clip-path="url(#p9286302a2f)" style="fill: #020202"/>
    <path d="M 134.076288 329.733542 
L 134.076288 369.773593 
" clip-path="url(#p9286302a2f)" style="fill: #020202"/>
    <path d="M 105.700089 313.821819 
C 123.644397 291.677403 97.01781 285.931847 104.233837 313.505427 
C 97.01781 285.931847 123.644397 291.677403 105.700089 313.821819 
" clip-path="url(#p9286302a2f)" style="fill: #020202"/>
    <path d="M 103.19296 314.933435 
L 69.873169 314.933435 
" clip-path="url(#p9286302a2f)" style="fill: #020202; stroke: #020202; stroke-width: 1.485"/>
    <path d="M 103.222779 315.231039 
L 40.460022 327.935937 
" clip-path="url(#p9286302a2f)" style="fill: #020202"/>
    <path d="M 103.326431 315.551982 
L 33.232522 347.279379 
" clip-path="url(#p9286302a2f)" style="fill: #020202"/>
    <path d="M 103.554273 315.909853 
L 43.544586 367.367917 
" clip-path="url(#p9286302a2f)" style="fill: #020202"/>
    <path d="M 103.999325 316.263424 
L 71.147709 379.253744 
" clip-path="url(#p9286302a2f)" style="fill: #020202"/>
    <path d="M 104.69296 316.433435 
L 104.69296 378.5737 
" clip-path="url(#p9286302a2f)" style="fill: #020202"/>
    <path d="M 105.386595 316.263424 
L 133.382653 369.943604 
" clip-path="url(#p9286302a2f)" style="fill: #020202"/>
    <path d="M 68.832292 313.505427 
C 76.048318 285.931847 49.421731 291.677403 67.366039 313.821819 
C 49.421731 291.677403 76.048318 285.931847 68.832292 313.505427 
" clip-path="url(#p9286302a2f)" style="fill: #020202"/>
    <path d="M 67.006641 315.551982 
L 40.356369 327.614995 
" clip-path="url(#p9286302a2f)" style="fill: #020202"/>
    <path d="M 67.234483 315.909853 
L 32.321153 345.847892 
" clip-path="url(#p9286302a2f)" style="fill: #020202"/>
    <path d="M 67.679534 316.263424 
L 41.764381 365.953637 
" clip-path="url(#p9286302a2f)" style="fill: #020202"/>
    <path d="M 68.373169 316.433435 
L 68.373169 378.5737 
" clip-path="url(#p9286302a2f)" style="fill: #020202"/>
    <path d="M 69.066804 316.263424 
L 101.91842 379.253744 
" clip-path="url(#p9286302a2f)" style="fill: #020202"/>
    <path d="M 69.511855 315.909853 
L 132.937601 370.297174 
" clip-path="url(#p9286302a2f)" style="fill: #020202"/>
    <path d="M 38.642093 326.774408 
C 30.517116 299.454853 10.72725 318.172432 37.55232 327.805133 
C 10.72725 318.172432 30.517116 299.454853 38.642093 326.774408 
" clip-path="url(#p9286302a2f)" style="fill: #020202"/>
    <path d="M 38.296206 329.563531 
L 30.540948 344.433611 
" clip-path="url(#p9286302a2f)" style="fill: #020202; stroke: #020202; stroke-width: 1.485"/>
    <path d="M 38.989841 329.733542 
L 38.989841 365.273593 
" clip-path="url(#p9286302a2f)" style="fill: #020202"/>
    <path d="M 39.683476 329.563531 
L 65.598629 379.253744 
" clip-path="url(#p9286302a2f)" style="fill: #020202"/>
    <path d="M 40.128527 329.209961 
L 100.138215 380.668024 
" clip-path="url(#p9286302a2f)" style="fill: #020202"/>
    <path d="M 40.356369 328.852089 
L 132.709759 370.655045 
" clip-path="url(#p9286302a2f)" style="fill: #020202"/>
    <path d="M 22.570256 346.753567 
C 1.036213 336.133852 1.036213 363.373282 22.570256 352.753567 
C 1.036213 363.373282 1.036213 336.133852 22.570256 346.753567 
" clip-path="url(#p9286302a2f)" style="fill: #020202"/>
    <path d="M 30.540948 355.073523 
L 36.215301 365.953637 
" clip-path="url(#p9286302a2f)" style="fill: #020202"/>
    <path d="M 32.321153 353.659242 
L 63.818424 380.668024 
" clip-path="url(#p9286302a2f)" style="fill: #020202; stroke: #020202; stroke-width: 1.485"/>
    <path d="M 33.232522 352.227756 
L 99.226847 382.099511 
" clip-path="url(#p9286302a2f)" style="fill: #020202; stroke: #020202; stroke-width: 1.485"/>
    <path d="M 33.647131 350.943986 
L 132.606107 370.975988 
" clip-path="url(#p9286302a2f)" style="fill: #020202"/>
    <path d="M 33.239758 372.987227 
C 10.72725 381.334702 30.517116 400.052281 37.59885 377.110128 
C 30.517116 400.052281 10.72725 381.334702 33.239758 372.987227 
" clip-path="url(#p9286302a2f)" style="fill: #020202"/>
    <path d="M 44.455954 373.747781 
L 62.907056 382.099511 
" clip-path="url(#p9286302a2f)" style="fill: #020202; stroke: #020202; stroke-width: 1.485"/>
    <path d="M 44.870564 372.464012 
L 98.812237 383.383281 
" clip-path="url(#p9286302a2f)" style="fill: #020202; stroke: #020202; stroke-width: 1.485"/>
    <path d="M 44.989841 371.273593 
L 132.576288 371.273593 
" clip-path="url(#p9286302a2f)" style="fill: #020202"/>
    <path d="M 64.344651 389.020163 
C 49.421731 407.829731 76.048318 413.575287 70.20966 390.285731 
C 76.048318 413.575287 49.421731 407.829731 64.344651 389.020163 
" clip-path="url(#p9286302a2f)" style="fill: #020202"/>
    <path d="M 74.373169 384.5737 
L 98.69296 384.5737 
" clip-path="url(#p9286302a2f)" style="fill: #020202; stroke: #020202; stroke-width: 1.485"/>
    <path d="M 74.253892 383.383281 
L 132.606107 371.571197 
" clip-path="url(#p9286302a2f)" style="fill: #020202"/>
    <path d="M 102.856468 390.285731 
C 97.01781 413.575287 123.644397 407.829731 108.721478 389.020163 
C 123.644397 407.829731 97.01781 413.575287 102.856468 390.285731 
" clip-path="url(#p9286302a2f)" style="fill: #020202"/>
    <path d="M 110.159073 382.099511 
L 132.709759 371.89214 
" clip-path="url(#p9286302a2f)" style="fill: #020202"/>
    <path d="M 134.424035 372.732726 
C 142.549013 400.052281 162.338879 381.334702 135.513808 371.702001 
C 162.338879 381.334702 142.549013 400.052281 134.424035 372.732726 
" clip-path="url(#p9286302a2f)" style="fill: #020202"/>
   </g>
   <g id="VertexCollection_4">
    <path d="M 145.29972 351.253567 
C 145.697525 351.253567 146.07909 351.095518 146.36038 350.814227 
C 146.641671 350.532937 146.79972 350.151372 146.79972 349.753567 
C 146.79972 349.355763 146.641671 348.974197 146.36038 348.692907 
C 146.07909 348.411617 145.697525 348.253567 145.29972 348.253567 
C 144.901916 348.253567 144.52035 348.411617 144.23906 348.692907 
C 143.95777 348.974197 143.79972 349.355763 143.79972 349.753567 
C 143.79972 350.151372 143.95777 350.532937 144.23906 350.814227 
C 144.52035 351.095518 144.901916 351.253567 145.29972 351.253567 
z
" clip-path="url(#p9286302a2f)" style="fill: #bebebe; stroke: #00ff00; stroke-width: 3"/>
    <path d="M 134.076288 329.733542 
C 134.474092 329.733542 134.855657 329.575492 135.136948 329.294202 
C 135.418238 329.012912 135.576288 328.631346 135.576288 328.233542 
C 135.576288 327.835737 135.418238 327.454172 135.136948 327.172882 
C 134.855657 326.891591 134.474092 326.733542 134.076288 326.733542 
C 133.678483 326.733542 133.296918 326.891591 133.015627 327.172882 
C 132.734337 327.454172 132.576288 327.835737 132.576288 328.233542 
C 132.576288 328.631346 132.734337 329.012912 133.015627 329.294202 
C 133.296918 329.575492 133.678483 329.733542 134.076288 329.733542 
z
" clip-path="url(#p9286302a2f)" style="fill: #bebebe; stroke: #00ff00; stroke-width: 3"/>
    <path d="M 104.69296 316.433435 
C 105.090764 316.433435 105.47233 316.275385 105.75362 315.994095 
C 106.03491 315.712804 106.19296 315.331239 106.19296 314.933435 
C 106.19296 314.53563 106.03491 314.154065 105.75362 313.872774 
C 105.47233 313.591484 105.090764 313.433435 104.69296 313.433435 
C 104.295155 313.433435 103.91359 313.591484 103.6323 313.872774 
C 103.351009 314.154065 103.19296 314.53563 103.19296 314.933435 
C 103.19296 315.331239 103.351009 315.712804 103.6323 315.994095 
C 103.91359 316.275385 104.295155 316.433435 104.69296 316.433435 
z
" clip-path="url(#p9286302a2f)" style="fill: #bebebe; stroke: #ff0000; stroke-width: 3"/>
    <path d="M 68.373169 316.433435 
C 68.770974 316.433435 69.152539 316.275385 69.433829 315.994095 
C 69.71512 315.712804 69.873169 315.331239 69.873169 314.933435 
C 69.873169 314.53563 69.71512 314.154065 69.433829 313.872774 
C 69.152539 313.591484 68.770974 313.433435 68.373169 313.433435 
C 67.975364 313.433435 67.593799 313.591484 67.312509 313.872774 
C 67.031218 314.154065 66.873169 314.53563 66.873169 314.933435 
C 66.873169 315.331239 67.031218 315.712804 67.312509 315.994095 
C 67.593799 316.275385 67.975364 316.433435 68.373169 316.433435 
z
" clip-path="url(#p9286302a2f)" style="fill: #bebebe; stroke: #ff0000; stroke-width: 3"/>
    <path d="M 38.989841 329.733542 
C 39.387646 329.733542 39.769211 329.575492 40.050501 329.294202 
C 40.331792 329.012912 40.489841 328.631346 40.489841 328.233542 
C 40.489841 327.835737 40.331792 327.454172 40.050501 327.172882 
C 39.769211 326.891591 39.387646 326.733542 38.989841 326.733542 
C 38.592036 326.733542 38.210471 326.891591 37.929181 327.172882 
C 37.647891 327.454172 37.489841 327.835737 37.489841 328.233542 
C 37.489841 328.631346 37.647891 329.012912 37.929181 329.294202 
C 38.210471 329.575492 38.592036 329.733542 38.989841 329.733542 
z
" clip-path="url(#p9286302a2f)" style="fill: #bebebe; stroke: #00ff00; stroke-width: 3"/>
    <path d="M 27.766409 355.753567 
C 29.357627 355.753567 30.883888 355.121369 32.009049 353.996208 
C 33.134211 352.871046 33.766409 351.344786 33.766409 349.753567 
C 33.766409 348.162349 33.134211 346.636088 32.009049 345.510926 
C 30.883888 344.385765 29.357627 343.753567 27.766409 343.753567 
C 26.17519 343.753567 24.648929 344.385765 23.523768 345.510926 
C 22.398606 346.636088 21.766409 348.162349 21.766409 349.753567 
C 21.766409 351.344786 22.398606 352.871046 23.523768 353.996208 
C 24.648929 355.121369 26.17519 355.753567 27.766409 355.753567 
z
" clip-path="url(#p9286302a2f)" style="fill: #bebebe; stroke: #00ff00; stroke-width: 3"/>
    <path d="M 38.989841 377.273593 
C 40.58106 377.273593 42.10732 376.641395 43.232482 375.516233 
C 44.357643 374.391072 44.989841 372.864811 44.989841 371.273593 
C 44.989841 369.682374 44.357643 368.156113 43.232482 367.030952 
C 42.10732 365.90579 40.58106 365.273593 38.989841 365.273593 
C 37.398622 365.273593 35.872362 365.90579 34.7472 367.030952 
C 33.622039 368.156113 32.989841 369.682374 32.989841 371.273593 
C 32.989841 372.864811 33.622039 374.391072 34.7472 375.516233 
C 35.872362 376.641395 37.398622 377.273593 38.989841 377.273593 
z
" clip-path="url(#p9286302a2f)" style="fill: #bebebe; stroke: #00ff00; stroke-width: 3"/>
    <path d="M 68.373169 390.5737 
C 69.964388 390.5737 71.490648 389.941502 72.61581 388.81634 
C 73.740971 387.691179 74.373169 386.164918 74.373169 384.5737 
C 74.373169 382.982481 73.740971 381.456221 72.61581 380.331059 
C 71.490648 379.205898 69.964388 378.5737 68.373169 378.5737 
C 66.78195 378.5737 65.25569 379.205898 64.130528 380.331059 
C 63.005367 381.456221 62.373169 382.982481 62.373169 384.5737 
C 62.373169 386.164918 63.005367 387.691179 64.130528 388.81634 
C 65.25569 389.941502 66.78195 390.5737 68.373169 390.5737 
z
" clip-path="url(#p9286302a2f)" style="fill: #bebebe; stroke: #00ff00; stroke-width: 3"/>
    <path d="M 104.69296 390.5737 
C 106.284178 390.5737 107.810439 389.941502 108.9356 388.81634 
C 110.060762 387.691179 110.69296 386.164918 110.69296 384.5737 
C 110.69296 382.982481 110.060762 381.456221 108.9356 380.331059 
C 107.810439 379.205898 106.284178 378.5737 104.69296 378.5737 
C 103.101741 378.5737 101.57548 379.205898 100.450319 380.331059 
C 99.325158 381.456221 98.69296 382.982481 98.69296 384.5737 
C 98.69296 386.164918 99.325158 387.691179 100.450319 388.81634 
C 101.57548 389.941502 103.101741 390.5737 104.69296 390.5737 
z
" clip-path="url(#p9286302a2f)" style="fill: #bebebe; stroke: #00ff00; stroke-width: 3"/>
    <path d="M 134.076288 372.773593 
C 134.474092 372.773593 134.855657 372.615543 135.136948 372.334253 
C 135.418238 372.052962 135.576288 371.671397 135.576288 371.273593 
C 135.576288 370.875788 135.418238 370.494223 135.136948 370.212932 
C 134.855657 369.931642 134.474092 369.773593 134.076288 369.773593 
C 133.678483 369.773593 133.296918 369.931642 133.015627 370.212932 
C 132.734337 370.494223 132.576288 370.875788 132.576288 371.273593 
C 132.576288 371.671397 132.734337 372.052962 133.015627 372.334253 
C 133.296918 372.615543 133.678483 372.773593 134.076288 372.773593 
z
" clip-path="url(#p9286302a2f)" style="fill: #bebebe; stroke: #00ff00; stroke-width: 3"/>
   </g>
   <g id="matplotlib.axis_7"/>
   <g id="matplotlib.axis_8"/>
  </g>
  <g id="axes_5">
   <g id="patch_6">
    <path d="M 12.852 493.2 
L 158.508 493.2 
L 158.508 405.36 
L 12.852 405.36 
z
" style="fill: #ffffff"/>
   </g>
   <g id="EdgeCollection_5">
    <path d="M 146.598758 449.143567 
C 172.029916 462.013282 172.029916 434.773852 146.598758 447.643567 
C 172.029916 434.773852 172.029916 462.013282 146.598758 449.143567 
" clip-path="url(#pcc12435a9a)" style="fill: #020202"/>
    <path d="M 144.606085 447.063578 
L 134.769923 428.203531 
" clip-path="url(#pcc12435a9a)" style="fill: #020202"/>
    <path d="M 144.161034 447.417148 
L 105.831646 414.549853 
" clip-path="url(#pcc12435a9a)" style="fill: #020202; stroke: #020202; stroke-width: 1.485"/>
    <path d="M 143.933192 447.77502 
L 69.739697 414.191982 
" clip-path="url(#pcc12435a9a)" style="fill: #020202"/>
    <path d="M 143.829539 448.095962 
L 40.460022 427.171146 
" clip-path="url(#pcc12435a9a)" style="fill: #020202"/>
    <path d="M 143.79972 448.393567 
L 33.766409 448.393567 
" clip-path="url(#pcc12435a9a)" style="fill: #020202"/>
    <path d="M 143.829539 448.691172 
L 44.870564 468.723174 
" clip-path="url(#pcc12435a9a)" style="fill: #020202"/>
    <path d="M 143.933192 449.012114 
L 73.839282 480.739511 
" clip-path="url(#pcc12435a9a)" style="fill: #020202"/>
    <path d="M 144.161034 449.369986 
L 105.831646 482.237281 
" clip-path="url(#pcc12435a9a)" style="fill: #020202"/>
    <path d="M 144.606085 449.723556 
L 134.769923 468.583604 
" clip-path="url(#pcc12435a9a)" style="fill: #020202"/>
    <path d="M 135.513808 426.445133 
C 162.338879 416.812432 142.549013 398.094853 134.424035 425.414408 
C 142.549013 398.094853 162.338879 416.812432 135.513808 426.445133 
" clip-path="url(#pcc12435a9a)" style="fill: #020202"/>
    <path d="M 132.709759 426.254995 
L 106.059488 414.191982 
" clip-path="url(#pcc12435a9a)" style="fill: #020202"/>
    <path d="M 132.606107 426.575937 
L 69.84335 413.871039 
" clip-path="url(#pcc12435a9a)" style="fill: #020202; stroke: #020202; stroke-width: 1.485"/>
    <path d="M 132.576288 426.873542 
L 40.489841 426.873542 
" clip-path="url(#pcc12435a9a)" style="fill: #020202"/>
    <path d="M 132.606107 427.171146 
L 33.647131 447.203148 
" clip-path="url(#pcc12435a9a)" style="fill: #020202"/>
    <path d="M 132.709759 427.492089 
L 44.455954 467.439404 
" clip-path="url(#pcc12435a9a)" style="fill: #020202; stroke: #020202; stroke-width: 1.485"/>
    <path d="M 132.937601 427.849961 
L 72.927914 479.308024 
" clip-path="url(#pcc12435a9a)" style="fill: #020202"/>
    <path d="M 133.382653 428.203531 
L 105.386595 481.883711 
" clip-path="url(#pcc12435a9a)" style="fill: #020202"/>
    <path d="M 134.076288 428.373542 
L 134.076288 468.413593 
" clip-path="url(#pcc12435a9a)" style="fill: #020202"/>
    <path d="M 105.700089 412.461819 
C 123.644397 390.317403 97.01781 384.571847 104.233837 412.145427 
C 97.01781 384.571847 123.644397 390.317403 105.700089 412.461819 
" clip-path="url(#pcc12435a9a)" style="fill: #020202"/>
    <path d="M 103.19296 413.573435 
L 69.873169 413.573435 
" clip-path="url(#pcc12435a9a)" style="fill: #020202"/>
    <path d="M 103.222779 413.871039 
L 40.460022 426.575937 
" clip-path="url(#pcc12435a9a)" style="fill: #020202"/>
    <path d="M 103.326431 414.191982 
L 33.232522 445.919379 
" clip-path="url(#pcc12435a9a)" style="fill: #020202"/>
    <path d="M 103.554273 414.549853 
L 43.544586 466.007917 
" clip-path="url(#pcc12435a9a)" style="fill: #020202"/>
    <path d="M 103.999325 414.903424 
L 71.147709 477.893744 
" clip-path="url(#pcc12435a9a)" style="fill: #020202"/>
    <path d="M 104.69296 415.073435 
L 104.69296 481.7137 
" clip-path="url(#pcc12435a9a)" style="fill: #020202"/>
    <path d="M 105.386595 414.903424 
L 133.382653 468.583604 
" clip-path="url(#pcc12435a9a)" style="fill: #020202"/>
    <path d="M 68.832292 412.145427 
C 76.048318 384.571847 49.421731 390.317403 67.366039 412.461819 
C 49.421731 390.317403 76.048318 384.571847 68.832292 412.145427 
" clip-path="url(#pcc12435a9a)" style="fill: #020202"/>
    <path d="M 67.006641 414.191982 
L 40.356369 426.254995 
" clip-path="url(#pcc12435a9a)" style="fill: #020202"/>
    <path d="M 67.234483 414.549853 
L 32.321153 444.487892 
" clip-path="url(#pcc12435a9a)" style="fill: #020202"/>
    <path d="M 67.679534 414.903424 
L 41.764381 464.593637 
" clip-path="url(#pcc12435a9a)" style="fill: #020202"/>
    <path d="M 68.373169 415.073435 
L 68.373169 477.2137 
" clip-path="url(#pcc12435a9a)" style="fill: #020202"/>
    <path d="M 69.066804 414.903424 
L 103.999325 481.883711 
" clip-path="url(#pcc12435a9a)" style="fill: #020202"/>
    <path d="M 69.511855 414.549853 
L 132.937601 468.937174 
" clip-path="url(#pcc12435a9a)" style="fill: #020202"/>
    <path d="M 38.642093 425.414408 
C 30.517116 398.094853 10.72725 416.812432 37.55232 426.445133 
C 10.72725 416.812432 30.517116 398.094853 38.642093 425.414408 
" clip-path="url(#pcc12435a9a)" style="fill: #020202"/>
    <path d="M 38.296206 428.203531 
L 30.540948 443.073611 
" clip-path="url(#pcc12435a9a)" style="fill: #020202"/>
    <path d="M 38.989841 428.373542 
L 38.989841 463.913593 
" clip-path="url(#pcc12435a9a)" style="fill: #020202"/>
    <path d="M 39.683476 428.203531 
L 65.598629 477.893744 
" clip-path="url(#pcc12435a9a)" style="fill: #020202"/>
    <path d="M 40.128527 427.849961 
L 103.554273 482.237281 
" clip-path="url(#pcc12435a9a)" style="fill: #020202"/>
    <path d="M 40.356369 427.492089 
L 132.709759 469.295045 
" clip-path="url(#pcc12435a9a)" style="fill: #020202"/>
    <path d="M 22.570256 445.393567 
C 1.036213 434.773852 1.036213 462.013282 22.570256 451.393567 
C 1.036213 462.013282 1.036213 434.773852 22.570256 445.393567 
" clip-path="url(#pcc12435a9a)" style="fill: #020202"/>
    <path d="M 30.540948 453.713523 
L 36.215301 464.593637 
" clip-path="url(#pcc12435a9a)" style="fill: #020202; stroke: #020202; stroke-width: 1.485"/>
    <path d="M 32.321153 452.299242 
L 63.818424 479.308024 
" clip-path="url(#pcc12435a9a)" style="fill: #020202"/>
    <path d="M 33.232522 450.867756 
L 103.326431 482.595153 
" clip-path="url(#pcc12435a9a)" style="fill: #020202; stroke: #020202; stroke-width: 1.485"/>
    <path d="M 33.647131 449.583986 
L 132.606107 469.615988 
" clip-path="url(#pcc12435a9a)" style="fill: #020202; stroke: #020202; stroke-width: 1.485"/>
    <path d="M 33.239758 471.627227 
C 10.72725 479.974702 30.517116 498.692281 37.59885 475.750128 
C 30.517116 498.692281 10.72725 479.974702 33.239758 471.627227 
" clip-path="url(#pcc12435a9a)" style="fill: #020202"/>
    <path d="M 44.455954 472.387781 
L 62.907056 480.739511 
" clip-path="url(#pcc12435a9a)" style="fill: #020202; stroke: #020202; stroke-width: 1.485"/>
    <path d="M 44.870564 471.104012 
L 103.222779 482.916095 
" clip-path="url(#pcc12435a9a)" style="fill: #020202"/>
    <path d="M 44.989841 469.913593 
L 132.576288 469.913593 
" clip-path="url(#pcc12435a9a)" style="fill: #020202"/>
    <path d="M 64.344651 487.660163 
C 49.421731 506.469731 76.048318 512.215287 70.20966 488.925731 
C 76.048318 512.215287 49.421731 506.469731 64.344651 487.660163 
" clip-path="url(#pcc12435a9a)" style="fill: #020202"/>
    <path d="M 74.373169 483.2137 
L 103.19296 483.2137 
" clip-path="url(#pcc12435a9a)" style="fill: #020202; stroke: #020202; stroke-width: 1.485"/>
    <path d="M 74.253892 482.023281 
L 132.606107 470.211197 
" clip-path="url(#pcc12435a9a)" style="fill: #020202; stroke: #020202; stroke-width: 1.485"/>
    <path d="M 104.233837 484.641708 
C 97.01781 512.215287 123.644397 506.469731 105.700089 484.325316 
C 123.644397 506.469731 97.01781 512.215287 104.233837 484.641708 
" clip-path="url(#pcc12435a9a)" style="fill: #020202"/>
    <path d="M 106.059488 482.595153 
L 132.709759 470.53214 
" clip-path="url(#pcc12435a9a)" style="fill: #020202"/>
    <path d="M 134.424035 471.372726 
C 142.549013 498.692281 162.338879 479.974702 135.513808 470.342001 
C 162.338879 479.974702 142.549013 498.692281 134.424035 471.372726 
" clip-path="url(#pcc12435a9a)" style="fill: #020202"/>
   </g>
   <g id="VertexCollection_5">
    <path d="M 145.29972 449.893567 
C 145.697525 449.893567 146.07909 449.735518 146.36038 449.454227 
C 146.641671 449.172937 146.79972 448.791372 146.79972 448.393567 
C 146.79972 447.995763 146.641671 447.614197 146.36038 447.332907 
C 146.07909 447.051617 145.697525 446.893567 145.29972 446.893567 
C 144.901916 446.893567 144.52035 447.051617 144.23906 447.332907 
C 143.95777 447.614197 143.79972 447.995763 143.79972 448.393567 
C 143.79972 448.791372 143.95777 449.172937 144.23906 449.454227 
C 144.52035 449.735518 144.901916 449.893567 145.29972 449.893567 
z
" clip-path="url(#pcc12435a9a)" style="fill: #bebebe; stroke: #00ff00; stroke-width: 3"/>
    <path d="M 134.076288 428.373542 
C 134.474092 428.373542 134.855657 428.215492 135.136948 427.934202 
C 135.418238 427.652912 135.576288 427.271346 135.576288 426.873542 
C 135.576288 426.475737 135.418238 426.094172 135.136948 425.812882 
C 134.855657 425.531591 134.474092 425.373542 134.076288 425.373542 
C 133.678483 425.373542 133.296918 425.531591 133.015627 425.812882 
C 132.734337 426.094172 132.576288 426.475737 132.576288 426.873542 
C 132.576288 427.271346 132.734337 427.652912 133.015627 427.934202 
C 133.296918 428.215492 133.678483 428.373542 134.076288 428.373542 
z
" clip-path="url(#pcc12435a9a)" style="fill: #bebebe; stroke: #00ff00; stroke-width: 3"/>
    <path d="M 104.69296 415.073435 
C 105.090764 415.073435 105.47233 414.915385 105.75362 414.634095 
C 106.03491 414.352804 106.19296 413.971239 106.19296 413.573435 
C 106.19296 413.17563 106.03491 412.794065 105.75362 412.512774 
C 105.47233 412.231484 105.090764 412.073435 104.69296 412.073435 
C 104.295155 412.073435 103.91359 412.231484 103.6323 412.512774 
C 103.351009 412.794065 103.19296 413.17563 103.19296 413.573435 
C 103.19296 413.971239 103.351009 414.352804 103.6323 414.634095 
C 103.91359 414.915385 104.295155 415.073435 104.69296 415.073435 
z
" clip-path="url(#pcc12435a9a)" style="fill: #bebebe; stroke: #ff0000; stroke-width: 3"/>
    <path d="M 68.373169 415.073435 
C 68.770974 415.073435 69.152539 414.915385 69.433829 414.634095 
C 69.71512 414.352804 69.873169 413.971239 69.873169 413.573435 
C 69.873169 413.17563 69.71512 412.794065 69.433829 412.512774 
C 69.152539 412.231484 68.770974 412.073435 68.373169 412.073435 
C 67.975364 412.073435 67.593799 412.231484 67.312509 412.512774 
C 67.031218 412.794065 66.873169 413.17563 66.873169 413.573435 
C 66.873169 413.971239 67.031218 414.352804 67.312509 414.634095 
C 67.593799 414.915385 67.975364 415.073435 68.373169 415.073435 
z
" clip-path="url(#pcc12435a9a)" style="fill: #bebebe; stroke: #ff0000; stroke-width: 3"/>
    <path d="M 38.989841 428.373542 
C 39.387646 428.373542 39.769211 428.215492 40.050501 427.934202 
C 40.331792 427.652912 40.489841 427.271346 40.489841 426.873542 
C 40.489841 426.475737 40.331792 426.094172 40.050501 425.812882 
C 39.769211 425.531591 39.387646 425.373542 38.989841 425.373542 
C 38.592036 425.373542 38.210471 425.531591 37.929181 425.812882 
C 37.647891 426.094172 37.489841 426.475737 37.489841 426.873542 
C 37.489841 427.271346 37.647891 427.652912 37.929181 427.934202 
C 38.210471 428.215492 38.592036 428.373542 38.989841 428.373542 
z
" clip-path="url(#pcc12435a9a)" style="fill: #bebebe; stroke: #00ff00; stroke-width: 3"/>
    <path d="M 27.766409 454.393567 
C 29.357627 454.393567 30.883888 453.761369 32.009049 452.636208 
C 33.134211 451.511046 33.766409 449.984786 33.766409 448.393567 
C 33.766409 446.802349 33.134211 445.276088 32.009049 444.150926 
C 30.883888 443.025765 29.357627 442.393567 27.766409 442.393567 
C 26.17519 442.393567 24.648929 443.025765 23.523768 444.150926 
C 22.398606 445.276088 21.766409 446.802349 21.766409 448.393567 
C 21.766409 449.984786 22.398606 451.511046 23.523768 452.636208 
C 24.648929 453.761369 26.17519 454.393567 27.766409 454.393567 
z
" clip-path="url(#pcc12435a9a)" style="fill: #bebebe; stroke: #00ff00; stroke-width: 3"/>
    <path d="M 38.989841 475.913593 
C 40.58106 475.913593 42.10732 475.281395 43.232482 474.156233 
C 44.357643 473.031072 44.989841 471.504811 44.989841 469.913593 
C 44.989841 468.322374 44.357643 466.796113 43.232482 465.670952 
C 42.10732 464.54579 40.58106 463.913593 38.989841 463.913593 
C 37.398622 463.913593 35.872362 464.54579 34.7472 465.670952 
C 33.622039 466.796113 32.989841 468.322374 32.989841 469.913593 
C 32.989841 471.504811 33.622039 473.031072 34.7472 474.156233 
C 35.872362 475.281395 37.398622 475.913593 38.989841 475.913593 
z
" clip-path="url(#pcc12435a9a)" style="fill: #bebebe; stroke: #00ff00; stroke-width: 3"/>
    <path d="M 68.373169 489.2137 
C 69.964388 489.2137 71.490648 488.581502 72.61581 487.45634 
C 73.740971 486.331179 74.373169 484.804918 74.373169 483.2137 
C 74.373169 481.622481 73.740971 480.096221 72.61581 478.971059 
C 71.490648 477.845898 69.964388 477.2137 68.373169 477.2137 
C 66.78195 477.2137 65.25569 477.845898 64.130528 478.971059 
C 63.005367 480.096221 62.373169 481.622481 62.373169 483.2137 
C 62.373169 484.804918 63.005367 486.331179 64.130528 487.45634 
C 65.25569 488.581502 66.78195 489.2137 68.373169 489.2137 
z
" clip-path="url(#pcc12435a9a)" style="fill: #bebebe; stroke: #00ff00; stroke-width: 3"/>
    <path d="M 104.69296 484.7137 
C 105.090764 484.7137 105.47233 484.55565 105.75362 484.27436 
C 106.03491 483.99307 106.19296 483.611504 106.19296 483.2137 
C 106.19296 482.815895 106.03491 482.43433 105.75362 482.15304 
C 105.47233 481.871749 105.090764 481.7137 104.69296 481.7137 
C 104.295155 481.7137 103.91359 481.871749 103.6323 482.15304 
C 103.351009 482.43433 103.19296 482.815895 103.19296 483.2137 
C 103.19296 483.611504 103.351009 483.99307 103.6323 484.27436 
C 103.91359 484.55565 104.295155 484.7137 104.69296 484.7137 
z
" clip-path="url(#pcc12435a9a)" style="fill: #bebebe; stroke: #00ff00; stroke-width: 3"/>
    <path d="M 134.076288 471.413593 
C 134.474092 471.413593 134.855657 471.255543 135.136948 470.974253 
C 135.418238 470.692962 135.576288 470.311397 135.576288 469.913593 
C 135.576288 469.515788 135.418238 469.134223 135.136948 468.852932 
C 134.855657 468.571642 134.474092 468.413593 134.076288 468.413593 
C 133.678483 468.413593 133.296918 468.571642 133.015627 468.852932 
C 132.734337 469.134223 132.576288 469.515788 132.576288 469.913593 
C 132.576288 470.311397 132.734337 470.692962 133.015627 470.974253 
C 133.296918 471.255543 133.678483 471.413593 134.076288 471.413593 
z
" clip-path="url(#pcc12435a9a)" style="fill: #bebebe; stroke: #00ff00; stroke-width: 3"/>
   </g>
   <g id="matplotlib.axis_9"/>
   <g id="matplotlib.axis_10"/>
  </g>
 </g>
 <defs>
  <clipPath id="p89fa068916">
   <rect x="12.852" y="10.8" width="145.656" height="87.84"/>
  </clipPath>
  <clipPath id="p62e35f5d2f">
   <rect x="12.852" y="109.44" width="145.656" height="87.84"/>
  </clipPath>
  <clipPath id="pacafe29dac">
   <rect x="12.852" y="208.08" width="145.656" height="87.84"/>
  </clipPath>
  <clipPath id="p9286302a2f">
   <rect x="12.852" y="306.72" width="145.656" height="87.84"/>
  </clipPath>
  <clipPath id="pcc12435a9a">
   <rect x="12.852" y="405.36" width="145.656" height="87.84"/>
  </clipPath>
 </defs>
</svg>
