<?xml version="1.0" encoding="utf-8" standalone="no"?>
<!DOCTYPE svg PUBLIC "-//W3C//DTD SVG 1.1//EN"
  "http://www.w3.org/Graphics/SVG/1.1/DTD/svg11.dtd">
<svg xmlns:xlink="http://www.w3.org/1999/xlink" width="171.36pt" height="504pt" viewBox="0 0 171.36 504" xmlns="http://www.w3.org/2000/svg" version="1.1">
 <metadata>
  <rdf:RDF xmlns:dc="http://purl.org/dc/elements/1.1/" xmlns:cc="http://creativecommons.org/ns#" xmlns:rdf="http://www.w3.org/1999/02/22-rdf-syntax-ns#">
   <cc:Work>
    <dc:type rdf:resource="http://purl.org/dc/dcmitype/StillImage"/>
    <dc:date>2025-08-19T12:01:15.253690</dc:date>
    <dc:format>image/svg+xml</dc:format>
    <dc:creator>
     <cc:Agent>
      <dc:title>Matplotlib v3.10.0, https://matplotlib.org/</dc:title>
     </cc:Agent>
    </dc:creator>
   </cc:Work>
  </rdf:RDF>
 </metadata>
 <defs>
  <style type="text/css">*{stroke-linejoin: round; stroke-linecap: butt}</style>
 </defs>
 <g id="figure_1">
  <g id="patch_1">
   <path d="M 0 504 
L 171.36 504 
L 171.36 0 
L 0 0 
z
" style="fill: #ffffff"/>
  </g>
  <g id="axes_1">
   <g id="patch_2">
    <path d="M 12.852 98.64 
L 158.508 98.64 
L 158.508 10.8 
L 12.852 10.8 
z
" style="fill: #ffffff"/>
   </g>
   <g id="EdgeCollection_1">
    <path d="M 148.789744 56.833567 
C 170.323787 67.453282 170.323787 40.213852 148.789744 50.833567 
C 170.323787 40.213852 170.323787 67.453282 148.789744 56.833567 
" clip-path="url(#p4c0c88a683)" style="fill: #020202"/>
    <path d="M 140.819052 48.513611 
L 133.063794 33.643531 
" clip-path="url(#p4c0c88a683)" style="fill: #020202"/>
    <path d="M 139.038847 49.927892 
L 104.125517 19.989853 
" clip-path="url(#p4c0c88a683)" style="fill: #020202; stroke: #020202; stroke-width: 1.485"/>
    <path d="M 138.127478 51.359379 
L 68.033569 19.631982 
" clip-path="url(#p4c0c88a683)" style="fill: #020202"/>
    <path d="M 137.712869 52.643148 
L 38.753893 32.611146 
" clip-path="url(#p4c0c88a683)" style="fill: #020202"/>
    <path d="M 137.593591 53.833567 
L 27.56028 53.833567 
" clip-path="url(#p4c0c88a683)" style="fill: #020202"/>
    <path d="M 137.712869 55.023986 
L 43.164435 74.163174 
" clip-path="url(#p4c0c88a683)" style="fill: #020202; stroke: #020202; stroke-width: 1.485"/>
    <path d="M 138.127478 56.307756 
L 72.133153 86.179511 
" clip-path="url(#p4c0c88a683)" style="fill: #020202; stroke: #020202; stroke-width: 1.485"/>
    <path d="M 139.038847 57.739242 
L 107.541576 84.748024 
" clip-path="url(#p4c0c88a683)" style="fill: #020202; stroke: #020202; stroke-width: 1.485"/>
    <path d="M 140.819052 59.153523 
L 133.063794 74.023604 
" clip-path="url(#p4c0c88a683)" style="fill: #020202"/>
    <path d="M 133.80768 31.885133 
C 160.63275 22.252432 140.842884 3.534853 132.717907 30.854408 
C 140.842884 3.534853 160.63275 22.252432 133.80768 31.885133 
" clip-path="url(#p4c0c88a683)" style="fill: #020202"/>
    <path d="M 131.003631 31.694995 
L 104.353359 19.631982 
" clip-path="url(#p4c0c88a683)" style="fill: #020202"/>
    <path d="M 130.899978 32.015937 
L 68.137221 19.311039 
" clip-path="url(#p4c0c88a683)" style="fill: #020202"/>
    <path d="M 130.870159 32.313542 
L 38.783712 32.313542 
" clip-path="url(#p4c0c88a683)" style="fill: #020202"/>
    <path d="M 130.899978 32.611146 
L 27.530461 53.535962 
" clip-path="url(#p4c0c88a683)" style="fill: #020202"/>
    <path d="M 131.003631 32.932089 
L 42.749825 72.879404 
" clip-path="url(#p4c0c88a683)" style="fill: #020202; stroke: #020202; stroke-width: 1.485"/>
    <path d="M 131.231473 33.289961 
L 71.221785 84.748024 
" clip-path="url(#p4c0c88a683)" style="fill: #020202"/>
    <path d="M 131.676524 33.643531 
L 105.761371 83.333744 
" clip-path="url(#p4c0c88a683)" style="fill: #020202"/>
    <path d="M 132.370159 33.813542 
L 132.370159 73.853593 
" clip-path="url(#p4c0c88a683)" style="fill: #020202"/>
    <path d="M 103.993961 17.901819 
C 121.938269 -4.242597 95.311682 -9.988153 102.527708 17.585427 
C 95.311682 -9.988153 121.938269 -4.242597 103.993961 17.901819 
" clip-path="url(#p4c0c88a683)" style="fill: #020202"/>
    <path d="M 101.486831 19.013435 
L 68.16704 19.013435 
" clip-path="url(#p4c0c88a683)" style="fill: #020202; stroke: #020202; stroke-width: 1.485"/>
    <path d="M 101.51665 19.311039 
L 38.753893 32.015937 
" clip-path="url(#p4c0c88a683)" style="fill: #020202"/>
    <path d="M 101.620303 19.631982 
L 27.426808 53.21502 
" clip-path="url(#p4c0c88a683)" style="fill: #020202"/>
    <path d="M 101.848145 19.989853 
L 41.838457 71.447917 
" clip-path="url(#p4c0c88a683)" style="fill: #020202"/>
    <path d="M 102.293196 20.343424 
L 69.44158 83.333744 
" clip-path="url(#p4c0c88a683)" style="fill: #020202"/>
    <path d="M 102.986831 20.513435 
L 102.986831 82.6537 
" clip-path="url(#p4c0c88a683)" style="fill: #020202"/>
    <path d="M 103.680466 20.343424 
L 131.676524 74.023604 
" clip-path="url(#p4c0c88a683)" style="fill: #020202"/>
    <path d="M 67.126163 17.585427 
C 74.34219 -9.988153 47.715603 -4.242597 65.659911 17.901819 
C 47.715603 -4.242597 74.34219 -9.988153 67.126163 17.585427 
" clip-path="url(#p4c0c88a683)" style="fill: #020202"/>
    <path d="M 65.300512 19.631982 
L 38.650241 31.694995 
" clip-path="url(#p4c0c88a683)" style="fill: #020202"/>
    <path d="M 65.528354 19.989853 
L 27.198966 52.857148 
" clip-path="url(#p4c0c88a683)" style="fill: #020202"/>
    <path d="M 65.973405 20.343424 
L 40.058252 70.033637 
" clip-path="url(#p4c0c88a683)" style="fill: #020202"/>
    <path d="M 66.66704 20.513435 
L 66.66704 82.6537 
" clip-path="url(#p4c0c88a683)" style="fill: #020202"/>
    <path d="M 67.360675 20.343424 
L 100.212291 83.333744 
" clip-path="url(#p4c0c88a683)" style="fill: #020202"/>
    <path d="M 67.805727 19.989853 
L 131.231473 74.377174 
" clip-path="url(#p4c0c88a683)" style="fill: #020202"/>
    <path d="M 36.935965 30.854408 
C 28.810987 3.534853 9.021121 22.252432 35.846192 31.885133 
C 9.021121 22.252432 28.810987 3.534853 36.935965 30.854408 
" clip-path="url(#p4c0c88a683)" style="fill: #020202"/>
    <path d="M 36.590077 33.643531 
L 26.753915 52.503578 
" clip-path="url(#p4c0c88a683)" style="fill: #020202"/>
    <path d="M 37.283712 33.813542 
L 37.283712 69.353593 
" clip-path="url(#p4c0c88a683)" style="fill: #020202"/>
    <path d="M 37.977347 33.643531 
L 63.892501 83.333744 
" clip-path="url(#p4c0c88a683)" style="fill: #020202"/>
    <path d="M 38.422399 33.289961 
L 98.432086 84.748024 
" clip-path="url(#p4c0c88a683)" style="fill: #020202"/>
    <path d="M 38.650241 32.932089 
L 131.003631 74.735045 
" clip-path="url(#p4c0c88a683)" style="fill: #020202"/>
    <path d="M 24.761242 53.083567 
C -0.669916 40.213852 -0.669916 67.453282 24.761242 54.583567 
C -0.669916 67.453282 -0.669916 40.213852 24.761242 53.083567 
" clip-path="url(#p4c0c88a683)" style="fill: #020202"/>
    <path d="M 26.753915 55.163556 
L 34.509173 70.033637 
" clip-path="url(#p4c0c88a683)" style="fill: #020202"/>
    <path d="M 27.198966 54.809986 
L 62.112295 84.748024 
" clip-path="url(#p4c0c88a683)" style="fill: #020202; stroke: #020202; stroke-width: 1.485"/>
    <path d="M 27.426808 54.452114 
L 97.520718 86.179511 
" clip-path="url(#p4c0c88a683)" style="fill: #020202; stroke: #020202; stroke-width: 1.485"/>
    <path d="M 27.530461 54.131172 
L 130.899978 75.055988 
" clip-path="url(#p4c0c88a683)" style="fill: #020202"/>
    <path d="M 31.533629 77.067227 
C 9.021121 85.414702 28.810987 104.132281 35.892722 81.190128 
C 28.810987 104.132281 9.021121 85.414702 31.533629 77.067227 
" clip-path="url(#p4c0c88a683)" style="fill: #020202"/>
    <path d="M 42.749825 77.827781 
L 61.200927 86.179511 
" clip-path="url(#p4c0c88a683)" style="fill: #020202; stroke: #020202; stroke-width: 1.485"/>
    <path d="M 43.164435 76.544012 
L 97.106108 87.463281 
" clip-path="url(#p4c0c88a683)" style="fill: #020202; stroke: #020202; stroke-width: 1.485"/>
    <path d="M 43.283712 75.353593 
L 130.870159 75.353593 
" clip-path="url(#p4c0c88a683)" style="fill: #020202"/>
    <path d="M 62.638522 93.100163 
C 47.715603 111.909731 74.34219 117.655287 68.503532 94.365731 
C 74.34219 117.655287 47.715603 111.909731 62.638522 93.100163 
" clip-path="url(#p4c0c88a683)" style="fill: #020202"/>
    <path d="M 72.66704 88.6537 
L 96.986831 88.6537 
" clip-path="url(#p4c0c88a683)" style="fill: #020202; stroke: #020202; stroke-width: 1.485"/>
    <path d="M 72.547763 87.463281 
L 130.899978 75.651197 
" clip-path="url(#p4c0c88a683)" style="fill: #020202"/>
    <path d="M 101.15034 94.365731 
C 95.311682 117.655287 121.938269 111.909731 107.015349 93.100163 
C 121.938269 111.909731 95.311682 117.655287 101.15034 94.365731 
" clip-path="url(#p4c0c88a683)" style="fill: #020202"/>
    <path d="M 108.452944 86.179511 
L 131.003631 75.97214 
" clip-path="url(#p4c0c88a683)" style="fill: #020202"/>
    <path d="M 132.717907 76.812726 
C 140.842884 104.132281 160.63275 85.414702 133.80768 75.782001 
C 160.63275 85.414702 140.842884 104.132281 132.717907 76.812726 
" clip-path="url(#p4c0c88a683)" style="fill: #020202"/>
   </g>
   <g id="VertexCollection_1">
    <path d="M 143.593591 59.833567 
C 145.18481 59.833567 146.711071 59.201369 147.836232 58.076208 
C 148.961394 56.951046 149.593591 55.424786 149.593591 53.833567 
C 149.593591 52.242349 148.961394 50.716088 147.836232 49.590926 
C 146.711071 48.465765 145.18481 47.833567 143.593591 47.833567 
C 142.002373 47.833567 140.476112 48.465765 139.350951 49.590926 
C 138.225789 50.716088 137.593591 52.242349 137.593591 53.833567 
C 137.593591 55.424786 138.225789 56.951046 139.350951 58.076208 
C 140.476112 59.201369 142.002373 59.833567 143.593591 59.833567 
z
" clip-path="url(#p4c0c88a683)" style="fill: #bebebe; stroke: #00ff00; stroke-width: 3"/>
    <path d="M 132.370159 33.813542 
C 132.767964 33.813542 133.149529 33.655492 133.430819 33.374202 
C 133.712109 33.092912 133.870159 32.711346 133.870159 32.313542 
C 133.870159 31.915737 133.712109 31.534172 133.430819 31.252882 
C 133.149529 30.971591 132.767964 30.813542 132.370159 30.813542 
C 131.972354 30.813542 131.590789 30.971591 131.309499 31.252882 
C 131.028208 31.534172 130.870159 31.915737 130.870159 32.313542 
C 130.870159 32.711346 131.028208 33.092912 131.309499 33.374202 
C 131.590789 33.655492 131.972354 33.813542 132.370159 33.813542 
z
" clip-path="url(#p4c0c88a683)" style="fill: #bebebe; stroke: #00ff00; stroke-width: 3"/>
    <path d="M 102.986831 20.513435 
C 103.384636 20.513435 103.766201 20.355385 104.047491 20.074095 
C 104.328782 19.792804 104.486831 19.411239 104.486831 19.013435 
C 104.486831 18.61563 104.328782 18.234065 104.047491 17.952774 
C 103.766201 17.671484 103.384636 17.513435 102.986831 17.513435 
C 102.589026 17.513435 102.207461 17.671484 101.926171 17.952774 
C 101.64488 18.234065 101.486831 18.61563 101.486831 19.013435 
C 101.486831 19.411239 101.64488 19.792804 101.926171 20.074095 
C 102.207461 20.355385 102.589026 20.513435 102.986831 20.513435 
z
" clip-path="url(#p4c0c88a683)" style="fill: #bebebe; stroke: #ff0000; stroke-width: 3"/>
    <path d="M 66.66704 20.513435 
C 67.064845 20.513435 67.44641 20.355385 67.7277 20.074095 
C 68.008991 19.792804 68.16704 19.411239 68.16704 19.013435 
C 68.16704 18.61563 68.008991 18.234065 67.7277 17.952774 
C 67.44641 17.671484 67.064845 17.513435 66.66704 17.513435 
C 66.269236 17.513435 65.88767 17.671484 65.60638 17.952774 
C 65.32509 18.234065 65.16704 18.61563 65.16704 19.013435 
C 65.16704 19.411239 65.32509 19.792804 65.60638 20.074095 
C 65.88767 20.355385 66.269236 20.513435 66.66704 20.513435 
z
" clip-path="url(#p4c0c88a683)" style="fill: #bebebe; stroke: #ff0000; stroke-width: 3"/>
    <path d="M 37.283712 33.813542 
C 37.681517 33.813542 38.063082 33.655492 38.344373 33.374202 
C 38.625663 33.092912 38.783712 32.711346 38.783712 32.313542 
C 38.783712 31.915737 38.625663 31.534172 38.344373 31.252882 
C 38.063082 30.971591 37.681517 30.813542 37.283712 30.813542 
C 36.885908 30.813542 36.504343 30.971591 36.223052 31.252882 
C 35.941762 31.534172 35.783712 31.915737 35.783712 32.313542 
C 35.783712 32.711346 35.941762 33.092912 36.223052 33.374202 
C 36.504343 33.655492 36.885908 33.813542 37.283712 33.813542 
z
" clip-path="url(#p4c0c88a683)" style="fill: #bebebe; stroke: #00ff00; stroke-width: 3"/>
    <path d="M 26.06028 55.333567 
C 26.458084 55.333567 26.83965 55.175518 27.12094 54.894227 
C 27.40223 54.612937 27.56028 54.231372 27.56028 53.833567 
C 27.56028 53.435763 27.40223 53.054197 27.12094 52.772907 
C 26.83965 52.491617 26.458084 52.333567 26.06028 52.333567 
C 25.662475 52.333567 25.28091 52.491617 24.99962 52.772907 
C 24.718329 53.054197 24.56028 53.435763 24.56028 53.833567 
C 24.56028 54.231372 24.718329 54.612937 24.99962 54.894227 
C 25.28091 55.175518 25.662475 55.333567 26.06028 55.333567 
z
" clip-path="url(#p4c0c88a683)" style="fill: #bebebe; stroke: #00ff00; stroke-width: 3"/>
    <path d="M 37.283712 81.353593 
C 38.874931 81.353593 40.401192 80.721395 41.526353 79.596233 
C 42.651515 78.471072 43.283712 76.944811 43.283712 75.353593 
C 43.283712 73.762374 42.651515 72.236113 41.526353 71.110952 
C 40.401192 69.98579 38.874931 69.353593 37.283712 69.353593 
C 35.692494 69.353593 34.166233 69.98579 33.041072 71.110952 
C 31.91591 72.236113 31.283712 73.762374 31.283712 75.353593 
C 31.283712 76.944811 31.91591 78.471072 33.041072 79.596233 
C 34.166233 80.721395 35.692494 81.353593 37.283712 81.353593 
z
" clip-path="url(#p4c0c88a683)" style="fill: #bebebe; stroke: #00ff00; stroke-width: 3"/>
    <path d="M 66.66704 94.6537 
C 68.258259 94.6537 69.78452 94.021502 70.909681 92.89634 
C 72.034842 91.771179 72.66704 90.244918 72.66704 88.6537 
C 72.66704 87.062481 72.034842 85.536221 70.909681 84.411059 
C 69.78452 83.285898 68.258259 82.6537 66.66704 82.6537 
C 65.075822 82.6537 63.549561 83.285898 62.4244 84.411059 
C 61.299238 85.536221 60.66704 87.062481 60.66704 88.6537 
C 60.66704 90.244918 61.299238 91.771179 62.4244 92.89634 
C 63.549561 94.021502 65.075822 94.6537 66.66704 94.6537 
z
" clip-path="url(#p4c0c88a683)" style="fill: #bebebe; stroke: #00ff00; stroke-width: 3"/>
    <path d="M 102.986831 94.6537 
C 104.57805 94.6537 106.10431 94.021502 107.229472 92.89634 
C 108.354633 91.771179 108.986831 90.244918 108.986831 88.6537 
C 108.986831 87.062481 108.354633 85.536221 107.229472 84.411059 
C 106.10431 83.285898 104.57805 82.6537 102.986831 82.6537 
C 101.395612 82.6537 99.869352 83.285898 98.74419 84.411059 
C 97.619029 85.536221 96.986831 87.062481 96.986831 88.6537 
C 96.986831 90.244918 97.619029 91.771179 98.74419 92.89634 
C 99.869352 94.021502 101.395612 94.6537 102.986831 94.6537 
z
" clip-path="url(#p4c0c88a683)" style="fill: #bebebe; stroke: #00ff00; stroke-width: 3"/>
    <path d="M 132.370159 76.853593 
C 132.767964 76.853593 133.149529 76.695543 133.430819 76.414253 
C 133.712109 76.132962 133.870159 75.751397 133.870159 75.353593 
C 133.870159 74.955788 133.712109 74.574223 133.430819 74.292932 
C 133.149529 74.011642 132.767964 73.853593 132.370159 73.853593 
C 131.972354 73.853593 131.590789 74.011642 131.309499 74.292932 
C 131.028208 74.574223 130.870159 74.955788 130.870159 75.353593 
C 130.870159 75.751397 131.028208 76.132962 131.309499 76.414253 
C 131.590789 76.695543 131.972354 76.853593 132.370159 76.853593 
z
" clip-path="url(#p4c0c88a683)" style="fill: #bebebe; stroke: #00ff00; stroke-width: 3"/>
   </g>
   <g id="matplotlib.axis_1"/>
   <g id="matplotlib.axis_2"/>
  </g>
  <g id="axes_2">
   <g id="patch_3">
    <path d="M 12.852 197.28 
L 158.508 197.28 
L 158.508 109.44 
L 12.852 109.44 
z
" style="fill: #ffffff"/>
   </g>
   <g id="EdgeCollection_2">
    <path d="M 146.590582 153.223567 
C 172.02174 166.093282 172.02174 138.853852 146.590582 151.723567 
C 172.02174 138.853852 172.02174 166.093282 146.590582 153.223567 
" clip-path="url(#p52b6c1928c)" style="fill: #020202"/>
    <path d="M 144.590105 151.147677 
L 134.608191 132.279432 
" clip-path="url(#p52b6c1928c)" style="fill: #020202"/>
    <path d="M 144.146006 151.505196 
L 105.246518 118.621806 
" clip-path="url(#p52b6c1928c)" style="fill: #020202; stroke: #020202; stroke-width: 1.485"/>
    <path d="M 143.921734 151.862322 
L 68.62883 118.264679 
" clip-path="url(#p52b6c1928c)" style="fill: #020202"/>
    <path d="M 143.820548 152.180018 
L 38.924244 131.247091 
" clip-path="url(#p52b6c1928c)" style="fill: #020202"/>
    <path d="M 143.791544 152.473567 
L 27.568456 152.473567 
" clip-path="url(#p52b6c1928c)" style="fill: #020202"/>
    <path d="M 143.820548 152.767117 
L 43.337231 172.819395 
" clip-path="url(#p52b6c1928c)" style="fill: #020202; stroke: #020202; stroke-width: 1.485"/>
    <path d="M 143.921734 153.084812 
L 72.73826 184.848721 
" clip-path="url(#p52b6c1928c)" style="fill: #020202"/>
    <path d="M 144.146006 153.441939 
L 108.683131 183.420213 
" clip-path="url(#p52b6c1928c)" style="fill: #020202; stroke: #020202; stroke-width: 1.485"/>
    <path d="M 144.590105 153.799457 
L 134.608191 172.667703 
" clip-path="url(#p52b6c1928c)" style="fill: #020202"/>
    <path d="M 135.341848 130.51708 
C 162.112487 120.734124 142.217985 102.127799 134.246313 129.492481 
C 142.217985 102.127799 162.112487 120.734124 135.341848 130.51708 
" clip-path="url(#p52b6c1928c)" style="fill: #020202"/>
    <path d="M 132.536942 130.342297 
L 105.47079 118.264679 
" clip-path="url(#p52b6c1928c)" style="fill: #020202"/>
    <path d="M 132.435756 130.659992 
L 68.730016 117.946984 
" clip-path="url(#p52b6c1928c)" style="fill: #020202; stroke: #020202; stroke-width: 1.485"/>
    <path d="M 132.406752 130.953542 
L 38.953248 130.953542 
" clip-path="url(#p52b6c1928c)" style="fill: #020202"/>
    <path d="M 132.435756 131.247091 
L 27.539452 152.180018 
" clip-path="url(#p52b6c1928c)" style="fill: #020202"/>
    <path d="M 132.536942 131.564786 
L 42.932489 171.548614 
" clip-path="url(#p52b6c1928c)" style="fill: #020202; stroke: #020202; stroke-width: 1.485"/>
    <path d="M 132.761214 131.921913 
L 71.84117 183.420213 
" clip-path="url(#p52b6c1928c)" style="fill: #020202"/>
    <path d="M 133.205313 132.279432 
L 106.906735 181.990141 
" clip-path="url(#p52b6c1928c)" style="fill: #020202"/>
    <path d="M 133.906752 132.453542 
L 133.906752 172.493593 
" clip-path="url(#p52b6c1928c)" style="fill: #020202"/>
    <path d="M 105.10514 116.539135 
C 122.990288 94.346911 96.348463 88.672433 103.638048 116.226657 
C 96.348463 88.672433 122.990288 94.346911 105.10514 116.539135 
" clip-path="url(#p52b6c1928c)" style="fill: #020202"/>
    <path d="M 102.60098 117.653435 
L 68.75902 117.653435 
" clip-path="url(#p52b6c1928c)" style="fill: #020202; stroke: #020202; stroke-width: 1.485"/>
    <path d="M 102.629984 117.946984 
L 38.924244 130.659992 
" clip-path="url(#p52b6c1928c)" style="fill: #020202"/>
    <path d="M 102.73117 118.264679 
L 27.438266 151.862322 
" clip-path="url(#p52b6c1928c)" style="fill: #020202"/>
    <path d="M 102.955442 118.621806 
L 42.035398 170.120106 
" clip-path="url(#p52b6c1928c)" style="fill: #020202"/>
    <path d="M 103.399541 118.979324 
L 70.064775 181.990141 
" clip-path="url(#p52b6c1928c)" style="fill: #020202"/>
    <path d="M 104.10098 119.153435 
L 104.10098 181.2937 
" clip-path="url(#p52b6c1928c)" style="fill: #020202"/>
    <path d="M 104.802419 118.979324 
L 133.205313 172.667703 
" clip-path="url(#p52b6c1928c)" style="fill: #020202"/>
    <path d="M 67.721952 116.226657 
C 75.011537 88.672433 48.369712 94.346911 66.25486 116.539135 
C 48.369712 94.346911 75.011537 88.672433 67.721952 116.226657 
" clip-path="url(#p52b6c1928c)" style="fill: #020202"/>
    <path d="M 65.88921 118.264679 
L 38.823058 130.342297 
" clip-path="url(#p52b6c1928c)" style="fill: #020202"/>
    <path d="M 66.113482 118.621806 
L 27.213994 151.505196 
" clip-path="url(#p52b6c1928c)" style="fill: #020202"/>
    <path d="M 66.557581 118.979324 
L 40.259003 168.690033 
" clip-path="url(#p52b6c1928c)" style="fill: #020202"/>
    <path d="M 67.25902 119.153435 
L 67.25902 181.2937 
" clip-path="url(#p52b6c1928c)" style="fill: #020202"/>
    <path d="M 67.960459 118.979324 
L 101.295225 181.990141 
" clip-path="url(#p52b6c1928c)" style="fill: #020202"/>
    <path d="M 68.404558 118.621806 
L 132.761214 173.025221 
" clip-path="url(#p52b6c1928c)" style="fill: #020202"/>
    <path d="M 37.113687 129.492481 
C 29.142015 102.127799 9.247513 120.734124 36.018152 130.51708 
C 9.247513 120.734124 29.142015 102.127799 37.113687 129.492481 
" clip-path="url(#p52b6c1928c)" style="fill: #020202"/>
    <path d="M 36.751809 132.279432 
L 26.769895 151.147677 
" clip-path="url(#p52b6c1928c)" style="fill: #020202"/>
    <path d="M 37.453248 132.453542 
L 37.453248 167.993593 
" clip-path="url(#p52b6c1928c)" style="fill: #020202"/>
    <path d="M 38.154687 132.279432 
L 64.453265 181.990141 
" clip-path="url(#p52b6c1928c)" style="fill: #020202"/>
    <path d="M 38.598786 131.921913 
L 99.51883 183.420213 
" clip-path="url(#p52b6c1928c)" style="fill: #020202"/>
    <path d="M 38.823058 131.564786 
L 132.536942 173.382348 
" clip-path="url(#p52b6c1928c)" style="fill: #020202"/>
    <path d="M 24.769418 151.723567 
C -0.66174 138.853852 -0.66174 166.093282 24.769418 153.223567 
C -0.66174 166.093282 -0.66174 138.853852 24.769418 151.723567 
" clip-path="url(#p52b6c1928c)" style="fill: #020202"/>
    <path d="M 26.769895 153.799457 
L 34.647493 168.690033 
" clip-path="url(#p52b6c1928c)" style="fill: #020202"/>
    <path d="M 27.213994 153.441939 
L 62.676869 183.420213 
" clip-path="url(#p52b6c1928c)" style="fill: #020202; stroke: #020202; stroke-width: 1.485"/>
    <path d="M 27.438266 153.084812 
L 98.62174 184.848721 
" clip-path="url(#p52b6c1928c)" style="fill: #020202; stroke: #020202; stroke-width: 1.485"/>
    <path d="M 27.539452 152.767117 
L 132.435756 173.700043 
" clip-path="url(#p52b6c1928c)" style="fill: #020202; stroke: #020202; stroke-width: 1.485"/>
    <path d="M 31.712863 175.73944 
C 9.247513 184.21301 29.142015 202.819335 36.095004 179.837835 
C 29.142015 202.819335 9.247513 184.21301 31.712863 175.73944 
" clip-path="url(#p52b6c1928c)" style="fill: #020202"/>
    <path d="M 42.932489 176.438572 
L 61.779779 184.848721 
" clip-path="url(#p52b6c1928c)" style="fill: #020202; stroke: #020202; stroke-width: 1.485"/>
    <path d="M 43.337231 175.16779 
L 98.216997 186.119502 
" clip-path="url(#p52b6c1928c)" style="fill: #020202; stroke: #020202; stroke-width: 1.485"/>
    <path d="M 43.453248 173.993593 
L 132.406752 173.993593 
" clip-path="url(#p52b6c1928c)" style="fill: #020202"/>
    <path d="M 63.242382 191.750898 
C 48.369712 210.600223 75.011537 216.274702 69.110748 193.00081 
C 75.011537 216.274702 48.369712 210.600223 63.242382 191.750898 
" clip-path="url(#p52b6c1928c)" style="fill: #020202"/>
    <path d="M 73.25902 187.2937 
L 98.10098 187.2937 
" clip-path="url(#p52b6c1928c)" style="fill: #020202; stroke: #020202; stroke-width: 1.485"/>
    <path d="M 73.143003 186.119502 
L 132.435756 174.287142 
" clip-path="url(#p52b6c1928c)" style="fill: #020202; stroke: #020202; stroke-width: 1.485"/>
    <path d="M 102.249252 193.00081 
C 96.348463 216.274702 122.990288 210.600223 108.117618 191.750898 
C 122.990288 210.600223 96.348463 216.274702 102.249252 193.00081 
" clip-path="url(#p52b6c1928c)" style="fill: #020202"/>
    <path d="M 109.580221 184.848721 
L 132.536942 174.604837 
" clip-path="url(#p52b6c1928c)" style="fill: #020202"/>
    <path d="M 134.246313 175.454653 
C 142.217985 202.819335 162.112487 184.21301 135.341848 174.430054 
C 162.112487 184.21301 142.217985 202.819335 134.246313 175.454653 
" clip-path="url(#p52b6c1928c)" style="fill: #020202"/>
   </g>
   <g id="VertexCollection_2">
    <path d="M 145.291544 153.973567 
C 145.689348 153.973567 146.070914 153.815518 146.352204 153.534227 
C 146.633494 153.252937 146.791544 152.871372 146.791544 152.473567 
C 146.791544 152.075763 146.633494 151.694197 146.352204 151.412907 
C 146.070914 151.131617 145.689348 150.973567 145.291544 150.973567 
C 144.893739 150.973567 144.512174 151.131617 144.230884 151.412907 
C 143.949593 151.694197 143.791544 152.075763 143.791544 152.473567 
C 143.791544 152.871372 143.949593 153.252937 144.230884 153.534227 
C 144.512174 153.815518 144.893739 153.973567 145.291544 153.973567 
z
" clip-path="url(#p52b6c1928c)" style="fill: #bebebe; stroke: #00ff00; stroke-width: 3"/>
    <path d="M 133.906752 132.453542 
C 134.304557 132.453542 134.686122 132.295492 134.967412 132.014202 
C 135.248703 131.732912 135.406752 131.351346 135.406752 130.953542 
C 135.406752 130.555737 135.248703 130.174172 134.967412 129.892882 
C 134.686122 129.611591 134.304557 129.453542 133.906752 129.453542 
C 133.508947 129.453542 133.127382 129.611591 132.846092 129.892882 
C 132.564801 130.174172 132.406752 130.555737 132.406752 130.953542 
C 132.406752 131.351346 132.564801 131.732912 132.846092 132.014202 
C 133.127382 132.295492 133.508947 132.453542 133.906752 132.453542 
z
" clip-path="url(#p52b6c1928c)" style="fill: #bebebe; stroke: #00ff00; stroke-width: 3"/>
    <path d="M 104.10098 119.153435 
C 104.498785 119.153435 104.88035 118.995385 105.16164 118.714095 
C 105.442931 118.432804 105.60098 118.051239 105.60098 117.653435 
C 105.60098 117.25563 105.442931 116.874065 105.16164 116.592774 
C 104.88035 116.311484 104.498785 116.153435 104.10098 116.153435 
C 103.703175 116.153435 103.32161 116.311484 103.04032 116.592774 
C 102.75903 116.874065 102.60098 117.25563 102.60098 117.653435 
C 102.60098 118.051239 102.75903 118.432804 103.04032 118.714095 
C 103.32161 118.995385 103.703175 119.153435 104.10098 119.153435 
z
" clip-path="url(#p52b6c1928c)" style="fill: #bebebe; stroke: #ff0000; stroke-width: 3"/>
    <path d="M 67.25902 119.153435 
C 67.656825 119.153435 68.03839 118.995385 68.31968 118.714095 
C 68.60097 118.432804 68.75902 118.051239 68.75902 117.653435 
C 68.75902 117.25563 68.60097 116.874065 68.31968 116.592774 
C 68.03839 116.311484 67.656825 116.153435 67.25902 116.153435 
C 66.861215 116.153435 66.47965 116.311484 66.19836 116.592774 
C 65.917069 116.874065 65.75902 117.25563 65.75902 117.653435 
C 65.75902 118.051239 65.917069 118.432804 66.19836 118.714095 
C 66.47965 118.995385 66.861215 119.153435 67.25902 119.153435 
z
" clip-path="url(#p52b6c1928c)" style="fill: #bebebe; stroke: #ff0000; stroke-width: 3"/>
    <path d="M 37.453248 132.453542 
C 37.851053 132.453542 38.232618 132.295492 38.513908 132.014202 
C 38.795199 131.732912 38.953248 131.351346 38.953248 130.953542 
C 38.953248 130.555737 38.795199 130.174172 38.513908 129.892882 
C 38.232618 129.611591 37.851053 129.453542 37.453248 129.453542 
C 37.055443 129.453542 36.673878 129.611591 36.392588 129.892882 
C 36.111297 130.174172 35.953248 130.555737 35.953248 130.953542 
C 35.953248 131.351346 36.111297 131.732912 36.392588 132.014202 
C 36.673878 132.295492 37.055443 132.453542 37.453248 132.453542 
z
" clip-path="url(#p52b6c1928c)" style="fill: #bebebe; stroke: #00ff00; stroke-width: 3"/>
    <path d="M 26.068456 153.973567 
C 26.466261 153.973567 26.847826 153.815518 27.129116 153.534227 
C 27.410407 153.252937 27.568456 152.871372 27.568456 152.473567 
C 27.568456 152.075763 27.410407 151.694197 27.129116 151.412907 
C 26.847826 151.131617 26.466261 150.973567 26.068456 150.973567 
C 25.670652 150.973567 25.289086 151.131617 25.007796 151.412907 
C 24.726506 151.694197 24.568456 152.075763 24.568456 152.473567 
C 24.568456 152.871372 24.726506 153.252937 25.007796 153.534227 
C 25.289086 153.815518 25.670652 153.973567 26.068456 153.973567 
z
" clip-path="url(#p52b6c1928c)" style="fill: #bebebe; stroke: #00ff00; stroke-width: 3"/>
    <path d="M 37.453248 179.993593 
C 39.044467 179.993593 40.570727 179.361395 41.695889 178.236233 
C 42.82105 177.111072 43.453248 175.584811 43.453248 173.993593 
C 43.453248 172.402374 42.82105 170.876113 41.695889 169.750952 
C 40.570727 168.62579 39.044467 167.993593 37.453248 167.993593 
C 35.862029 167.993593 34.335769 168.62579 33.210607 169.750952 
C 32.085446 170.876113 31.453248 172.402374 31.453248 173.993593 
C 31.453248 175.584811 32.085446 177.111072 33.210607 178.236233 
C 34.335769 179.361395 35.862029 179.993593 37.453248 179.993593 
z
" clip-path="url(#p52b6c1928c)" style="fill: #bebebe; stroke: #00ff00; stroke-width: 3"/>
    <path d="M 67.25902 193.2937 
C 68.850238 193.2937 70.376499 192.661502 71.501661 191.53634 
C 72.626822 190.411179 73.25902 188.884918 73.25902 187.2937 
C 73.25902 185.702481 72.626822 184.176221 71.501661 183.051059 
C 70.376499 181.925898 68.850238 181.2937 67.25902 181.2937 
C 65.667801 181.2937 64.141541 181.925898 63.016379 183.051059 
C 61.891218 184.176221 61.25902 185.702481 61.25902 187.2937 
C 61.25902 188.884918 61.891218 190.411179 63.016379 191.53634 
C 64.141541 192.661502 65.667801 193.2937 67.25902 193.2937 
z
" clip-path="url(#p52b6c1928c)" style="fill: #bebebe; stroke: #00ff00; stroke-width: 3"/>
    <path d="M 104.10098 193.2937 
C 105.692199 193.2937 107.218459 192.661502 108.343621 191.53634 
C 109.468782 190.411179 110.10098 188.884918 110.10098 187.2937 
C 110.10098 185.702481 109.468782 184.176221 108.343621 183.051059 
C 107.218459 181.925898 105.692199 181.2937 104.10098 181.2937 
C 102.509762 181.2937 100.983501 181.925898 99.858339 183.051059 
C 98.733178 184.176221 98.10098 185.702481 98.10098 187.2937 
C 98.10098 188.884918 98.733178 190.411179 99.858339 191.53634 
C 100.983501 192.661502 102.509762 193.2937 104.10098 193.2937 
z
" clip-path="url(#p52b6c1928c)" style="fill: #bebebe; stroke: #00ff00; stroke-width: 3"/>
    <path d="M 133.906752 175.493593 
C 134.304557 175.493593 134.686122 175.335543 134.967412 175.054253 
C 135.248703 174.772962 135.406752 174.391397 135.406752 173.993593 
C 135.406752 173.595788 135.248703 173.214223 134.967412 172.932932 
C 134.686122 172.651642 134.304557 172.493593 133.906752 172.493593 
C 133.508947 172.493593 133.127382 172.651642 132.846092 172.932932 
C 132.564801 173.214223 132.406752 173.595788 132.406752 173.993593 
C 132.406752 174.391397 132.564801 174.772962 132.846092 175.054253 
C 133.127382 175.335543 133.508947 175.493593 133.906752 175.493593 
z
" clip-path="url(#p52b6c1928c)" style="fill: #bebebe; stroke: #00ff00; stroke-width: 3"/>
   </g>
   <g id="matplotlib.axis_3"/>
   <g id="matplotlib.axis_4"/>
  </g>
  <g id="axes_3">
   <g id="patch_4">
    <path d="M 12.852 295.92 
L 158.508 295.92 
L 158.508 208.08 
L 12.852 208.08 
z
" style="fill: #ffffff"/>
   </g>
   <g id="EdgeCollection_3">
    <path d="M 146.598758 251.863567 
C 172.029916 264.733282 172.029916 237.493852 146.598758 250.363567 
C 172.029916 237.493852 172.029916 264.733282 146.598758 251.863567 
" clip-path="url(#p3c9fe93550)" style="fill: #020202"/>
    <path d="M 144.606085 249.783578 
L 134.769923 230.923531 
" clip-path="url(#p3c9fe93550)" style="fill: #020202"/>
    <path d="M 144.161034 250.137148 
L 105.831646 217.269853 
" clip-path="url(#p3c9fe93550)" style="fill: #020202; stroke: #020202; stroke-width: 1.485"/>
    <path d="M 143.933192 250.49502 
L 69.739697 216.911982 
" clip-path="url(#p3c9fe93550)" style="fill: #020202"/>
    <path d="M 143.829539 250.815962 
L 40.460022 229.891146 
" clip-path="url(#p3c9fe93550)" style="fill: #020202"/>
    <path d="M 143.79972 251.113567 
L 33.766409 251.113567 
" clip-path="url(#p3c9fe93550)" style="fill: #020202"/>
    <path d="M 143.829539 251.411172 
L 44.870564 271.443174 
" clip-path="url(#p3c9fe93550)" style="fill: #020202"/>
    <path d="M 143.933192 251.732114 
L 73.839282 283.459511 
" clip-path="url(#p3c9fe93550)" style="fill: #020202"/>
    <path d="M 144.161034 252.089986 
L 109.247705 282.028024 
" clip-path="url(#p3c9fe93550)" style="fill: #020202"/>
    <path d="M 144.606085 252.443556 
L 134.769923 271.303604 
" clip-path="url(#p3c9fe93550)" style="fill: #020202"/>
    <path d="M 135.513808 229.165133 
C 162.338879 219.532432 142.549013 200.814853 134.424035 228.134408 
C 142.549013 200.814853 162.338879 219.532432 135.513808 229.165133 
" clip-path="url(#p3c9fe93550)" style="fill: #020202"/>
    <path d="M 132.709759 228.974995 
L 106.059488 216.911982 
" clip-path="url(#p3c9fe93550)" style="fill: #020202"/>
    <path d="M 132.606107 229.295937 
L 69.84335 216.591039 
" clip-path="url(#p3c9fe93550)" style="fill: #020202; stroke: #020202; stroke-width: 1.485"/>
    <path d="M 132.576288 229.593542 
L 40.489841 229.593542 
" clip-path="url(#p3c9fe93550)" style="fill: #020202"/>
    <path d="M 132.606107 229.891146 
L 33.647131 249.923148 
" clip-path="url(#p3c9fe93550)" style="fill: #020202"/>
    <path d="M 132.709759 230.212089 
L 44.455954 270.159404 
" clip-path="url(#p3c9fe93550)" style="fill: #020202; stroke: #020202; stroke-width: 1.485"/>
    <path d="M 132.937601 230.569961 
L 72.927914 282.028024 
" clip-path="url(#p3c9fe93550)" style="fill: #020202"/>
    <path d="M 133.382653 230.923531 
L 107.467499 280.613744 
" clip-path="url(#p3c9fe93550)" style="fill: #020202; stroke: #020202; stroke-width: 1.485"/>
    <path d="M 134.076288 231.093542 
L 134.076288 271.133593 
" clip-path="url(#p3c9fe93550)" style="fill: #020202"/>
    <path d="M 105.700089 215.181819 
C 123.644397 193.037403 97.01781 187.291847 104.233837 214.865427 
C 97.01781 187.291847 123.644397 193.037403 105.700089 215.181819 
" clip-path="url(#p3c9fe93550)" style="fill: #020202"/>
    <path d="M 103.19296 216.293435 
L 69.873169 216.293435 
" clip-path="url(#p3c9fe93550)" style="fill: #020202; stroke: #020202; stroke-width: 1.485"/>
    <path d="M 103.222779 216.591039 
L 40.460022 229.295937 
" clip-path="url(#p3c9fe93550)" style="fill: #020202"/>
    <path d="M 103.326431 216.911982 
L 33.232522 248.639379 
" clip-path="url(#p3c9fe93550)" style="fill: #020202"/>
    <path d="M 103.554273 217.269853 
L 43.544586 268.727917 
" clip-path="url(#p3c9fe93550)" style="fill: #020202"/>
    <path d="M 103.999325 217.623424 
L 71.147709 280.613744 
" clip-path="url(#p3c9fe93550)" style="fill: #020202"/>
    <path d="M 104.69296 217.793435 
L 104.69296 279.9337 
" clip-path="url(#p3c9fe93550)" style="fill: #020202"/>
    <path d="M 105.386595 217.623424 
L 133.382653 271.303604 
" clip-path="url(#p3c9fe93550)" style="fill: #020202"/>
    <path d="M 68.832292 214.865427 
C 76.048318 187.291847 49.421731 193.037403 67.366039 215.181819 
C 49.421731 193.037403 76.048318 187.291847 68.832292 214.865427 
" clip-path="url(#p3c9fe93550)" style="fill: #020202"/>
    <path d="M 67.006641 216.911982 
L 40.356369 228.974995 
" clip-path="url(#p3c9fe93550)" style="fill: #020202"/>
    <path d="M 67.234483 217.269853 
L 32.321153 247.207892 
" clip-path="url(#p3c9fe93550)" style="fill: #020202"/>
    <path d="M 67.679534 217.623424 
L 41.764381 267.313637 
" clip-path="url(#p3c9fe93550)" style="fill: #020202"/>
    <path d="M 68.373169 217.793435 
L 68.373169 279.9337 
" clip-path="url(#p3c9fe93550)" style="fill: #020202"/>
    <path d="M 69.066804 217.623424 
L 101.91842 280.613744 
" clip-path="url(#p3c9fe93550)" style="fill: #020202"/>
    <path d="M 69.511855 217.269853 
L 132.937601 271.657174 
" clip-path="url(#p3c9fe93550)" style="fill: #020202"/>
    <path d="M 38.642093 228.134408 
C 30.517116 200.814853 10.72725 219.532432 37.55232 229.165133 
C 10.72725 219.532432 30.517116 200.814853 38.642093 228.134408 
" clip-path="url(#p3c9fe93550)" style="fill: #020202"/>
    <path d="M 38.296206 230.923531 
L 30.540948 245.793611 
" clip-path="url(#p3c9fe93550)" style="fill: #020202"/>
    <path d="M 38.989841 231.093542 
L 38.989841 266.633593 
" clip-path="url(#p3c9fe93550)" style="fill: #020202"/>
    <path d="M 39.683476 230.923531 
L 65.598629 280.613744 
" clip-path="url(#p3c9fe93550)" style="fill: #020202"/>
    <path d="M 40.128527 230.569961 
L 100.138215 282.028024 
" clip-path="url(#p3c9fe93550)" style="fill: #020202"/>
    <path d="M 40.356369 230.212089 
L 132.709759 272.015045 
" clip-path="url(#p3c9fe93550)" style="fill: #020202; stroke: #020202; stroke-width: 1.485"/>
    <path d="M 22.570256 248.113567 
C 1.036213 237.493852 1.036213 264.733282 22.570256 254.113567 
C 1.036213 264.733282 1.036213 237.493852 22.570256 248.113567 
" clip-path="url(#p3c9fe93550)" style="fill: #020202"/>
    <path d="M 30.540948 256.433523 
L 36.215301 267.313637 
" clip-path="url(#p3c9fe93550)" style="fill: #020202; stroke: #020202; stroke-width: 1.485"/>
    <path d="M 32.321153 255.019242 
L 63.818424 282.028024 
" clip-path="url(#p3c9fe93550)" style="fill: #020202; stroke: #020202; stroke-width: 1.485"/>
    <path d="M 33.232522 253.587756 
L 99.226847 283.459511 
" clip-path="url(#p3c9fe93550)" style="fill: #020202; stroke: #020202; stroke-width: 1.485"/>
    <path d="M 33.647131 252.303986 
L 132.606107 272.335988 
" clip-path="url(#p3c9fe93550)" style="fill: #020202; stroke: #020202; stroke-width: 1.485"/>
    <path d="M 33.239758 274.347227 
C 10.72725 282.694702 30.517116 301.412281 37.59885 278.470128 
C 30.517116 301.412281 10.72725 282.694702 33.239758 274.347227 
" clip-path="url(#p3c9fe93550)" style="fill: #020202"/>
    <path d="M 44.455954 275.107781 
L 62.907056 283.459511 
" clip-path="url(#p3c9fe93550)" style="fill: #020202; stroke: #020202; stroke-width: 1.485"/>
    <path d="M 44.870564 273.824012 
L 98.812237 284.743281 
" clip-path="url(#p3c9fe93550)" style="fill: #020202; stroke: #020202; stroke-width: 1.485"/>
    <path d="M 44.989841 272.633593 
L 132.576288 272.633593 
" clip-path="url(#p3c9fe93550)" style="fill: #020202"/>
    <path d="M 64.344651 290.380163 
C 49.421731 309.189731 76.048318 314.935287 70.20966 291.645731 
C 76.048318 314.935287 49.421731 309.189731 64.344651 290.380163 
" clip-path="url(#p3c9fe93550)" style="fill: #020202"/>
    <path d="M 74.373169 285.9337 
L 98.69296 285.9337 
" clip-path="url(#p3c9fe93550)" style="fill: #020202; stroke: #020202; stroke-width: 1.485"/>
    <path d="M 74.253892 284.743281 
L 132.606107 272.931197 
" clip-path="url(#p3c9fe93550)" style="fill: #020202; stroke: #020202; stroke-width: 1.485"/>
    <path d="M 102.856468 291.645731 
C 97.01781 314.935287 123.644397 309.189731 108.721478 290.380163 
C 123.644397 309.189731 97.01781 314.935287 102.856468 291.645731 
" clip-path="url(#p3c9fe93550)" style="fill: #020202"/>
    <path d="M 110.159073 283.459511 
L 132.709759 273.25214 
" clip-path="url(#p3c9fe93550)" style="fill: #020202"/>
    <path d="M 134.424035 274.092726 
C 142.549013 301.412281 162.338879 282.694702 135.513808 273.062001 
C 162.338879 282.694702 142.549013 301.412281 134.424035 274.092726 
" clip-path="url(#p3c9fe93550)" style="fill: #020202"/>
   </g>
   <g id="VertexCollection_3">
    <path d="M 145.29972 252.613567 
C 145.697525 252.613567 146.07909 252.455518 146.36038 252.174227 
C 146.641671 251.892937 146.79972 251.511372 146.79972 251.113567 
C 146.79972 250.715763 146.641671 250.334197 146.36038 250.052907 
C 146.07909 249.771617 145.697525 249.613567 145.29972 249.613567 
C 144.901916 249.613567 144.52035 249.771617 144.23906 250.052907 
C 143.95777 250.334197 143.79972 250.715763 143.79972 251.113567 
C 143.79972 251.511372 143.95777 251.892937 144.23906 252.174227 
C 144.52035 252.455518 144.901916 252.613567 145.29972 252.613567 
z
" clip-path="url(#p3c9fe93550)" style="fill: #bebebe; stroke: #00ff00; stroke-width: 3"/>
    <path d="M 134.076288 231.093542 
C 134.474092 231.093542 134.855657 230.935492 135.136948 230.654202 
C 135.418238 230.372912 135.576288 229.991346 135.576288 229.593542 
C 135.576288 229.195737 135.418238 228.814172 135.136948 228.532882 
C 134.855657 228.251591 134.474092 228.093542 134.076288 228.093542 
C 133.678483 228.093542 133.296918 228.251591 133.015627 228.532882 
C 132.734337 228.814172 132.576288 229.195737 132.576288 229.593542 
C 132.576288 229.991346 132.734337 230.372912 133.015627 230.654202 
C 133.296918 230.935492 133.678483 231.093542 134.076288 231.093542 
z
" clip-path="url(#p3c9fe93550)" style="fill: #bebebe; stroke: #00ff00; stroke-width: 3"/>
    <path d="M 104.69296 217.793435 
C 105.090764 217.793435 105.47233 217.635385 105.75362 217.354095 
C 106.03491 217.072804 106.19296 216.691239 106.19296 216.293435 
C 106.19296 215.89563 106.03491 215.514065 105.75362 215.232774 
C 105.47233 214.951484 105.090764 214.793435 104.69296 214.793435 
C 104.295155 214.793435 103.91359 214.951484 103.6323 215.232774 
C 103.351009 215.514065 103.19296 215.89563 103.19296 216.293435 
C 103.19296 216.691239 103.351009 217.072804 103.6323 217.354095 
C 103.91359 217.635385 104.295155 217.793435 104.69296 217.793435 
z
" clip-path="url(#p3c9fe93550)" style="fill: #bebebe; stroke: #ff0000; stroke-width: 3"/>
    <path d="M 68.373169 217.793435 
C 68.770974 217.793435 69.152539 217.635385 69.433829 217.354095 
C 69.71512 217.072804 69.873169 216.691239 69.873169 216.293435 
C 69.873169 215.89563 69.71512 215.514065 69.433829 215.232774 
C 69.152539 214.951484 68.770974 214.793435 68.373169 214.793435 
C 67.975364 214.793435 67.593799 214.951484 67.312509 215.232774 
C 67.031218 215.514065 66.873169 215.89563 66.873169 216.293435 
C 66.873169 216.691239 67.031218 217.072804 67.312509 217.354095 
C 67.593799 217.635385 67.975364 217.793435 68.373169 217.793435 
z
" clip-path="url(#p3c9fe93550)" style="fill: #bebebe; stroke: #ff0000; stroke-width: 3"/>
    <path d="M 38.989841 231.093542 
C 39.387646 231.093542 39.769211 230.935492 40.050501 230.654202 
C 40.331792 230.372912 40.489841 229.991346 40.489841 229.593542 
C 40.489841 229.195737 40.331792 228.814172 40.050501 228.532882 
C 39.769211 228.251591 39.387646 228.093542 38.989841 228.093542 
C 38.592036 228.093542 38.210471 228.251591 37.929181 228.532882 
C 37.647891 228.814172 37.489841 229.195737 37.489841 229.593542 
C 37.489841 229.991346 37.647891 230.372912 37.929181 230.654202 
C 38.210471 230.935492 38.592036 231.093542 38.989841 231.093542 
z
" clip-path="url(#p3c9fe93550)" style="fill: #bebebe; stroke: #00ff00; stroke-width: 3"/>
    <path d="M 27.766409 257.113567 
C 29.357627 257.113567 30.883888 256.481369 32.009049 255.356208 
C 33.134211 254.231046 33.766409 252.704786 33.766409 251.113567 
C 33.766409 249.522349 33.134211 247.996088 32.009049 246.870926 
C 30.883888 245.745765 29.357627 245.113567 27.766409 245.113567 
C 26.17519 245.113567 24.648929 245.745765 23.523768 246.870926 
C 22.398606 247.996088 21.766409 249.522349 21.766409 251.113567 
C 21.766409 252.704786 22.398606 254.231046 23.523768 255.356208 
C 24.648929 256.481369 26.17519 257.113567 27.766409 257.113567 
z
" clip-path="url(#p3c9fe93550)" style="fill: #bebebe; stroke: #00ff00; stroke-width: 3"/>
    <path d="M 38.989841 278.633593 
C 40.58106 278.633593 42.10732 278.001395 43.232482 276.876233 
C 44.357643 275.751072 44.989841 274.224811 44.989841 272.633593 
C 44.989841 271.042374 44.357643 269.516113 43.232482 268.390952 
C 42.10732 267.26579 40.58106 266.633593 38.989841 266.633593 
C 37.398622 266.633593 35.872362 267.26579 34.7472 268.390952 
C 33.622039 269.516113 32.989841 271.042374 32.989841 272.633593 
C 32.989841 274.224811 33.622039 275.751072 34.7472 276.876233 
C 35.872362 278.001395 37.398622 278.633593 38.989841 278.633593 
z
" clip-path="url(#p3c9fe93550)" style="fill: #bebebe; stroke: #00ff00; stroke-width: 3"/>
    <path d="M 68.373169 291.9337 
C 69.964388 291.9337 71.490648 291.301502 72.61581 290.17634 
C 73.740971 289.051179 74.373169 287.524918 74.373169 285.9337 
C 74.373169 284.342481 73.740971 282.816221 72.61581 281.691059 
C 71.490648 280.565898 69.964388 279.9337 68.373169 279.9337 
C 66.78195 279.9337 65.25569 280.565898 64.130528 281.691059 
C 63.005367 282.816221 62.373169 284.342481 62.373169 285.9337 
C 62.373169 287.524918 63.005367 289.051179 64.130528 290.17634 
C 65.25569 291.301502 66.78195 291.9337 68.373169 291.9337 
z
" clip-path="url(#p3c9fe93550)" style="fill: #bebebe; stroke: #00ff00; stroke-width: 3"/>
    <path d="M 104.69296 291.9337 
C 106.284178 291.9337 107.810439 291.301502 108.9356 290.17634 
C 110.060762 289.051179 110.69296 287.524918 110.69296 285.9337 
C 110.69296 284.342481 110.060762 282.816221 108.9356 281.691059 
C 107.810439 280.565898 106.284178 279.9337 104.69296 279.9337 
C 103.101741 279.9337 101.57548 280.565898 100.450319 281.691059 
C 99.325158 282.816221 98.69296 284.342481 98.69296 285.9337 
C 98.69296 287.524918 99.325158 289.051179 100.450319 290.17634 
C 101.57548 291.301502 103.101741 291.9337 104.69296 291.9337 
z
" clip-path="url(#p3c9fe93550)" style="fill: #bebebe; stroke: #00ff00; stroke-width: 3"/>
    <path d="M 134.076288 274.133593 
C 134.474092 274.133593 134.855657 273.975543 135.136948 273.694253 
C 135.418238 273.412962 135.576288 273.031397 135.576288 272.633593 
C 135.576288 272.235788 135.418238 271.854223 135.136948 271.572932 
C 134.855657 271.291642 134.474092 271.133593 134.076288 271.133593 
C 133.678483 271.133593 133.296918 271.291642 133.015627 271.572932 
C 132.734337 271.854223 132.576288 272.235788 132.576288 272.633593 
C 132.576288 273.031397 132.734337 273.412962 133.015627 273.694253 
C 133.296918 273.975543 133.678483 274.133593 134.076288 274.133593 
z
" clip-path="url(#p3c9fe93550)" style="fill: #bebebe; stroke: #00ff00; stroke-width: 3"/>
   </g>
   <g id="matplotlib.axis_5"/>
   <g id="matplotlib.axis_6"/>
  </g>
  <g id="axes_4">
   <g id="patch_5">
    <path d="M 12.852 394.56 
L 158.508 394.56 
L 158.508 306.72 
L 12.852 306.72 
z
" style="fill: #ffffff"/>
   </g>
   <g id="EdgeCollection_4">
    <path d="M 146.598758 350.503567 
C 172.029916 363.373282 172.029916 336.133852 146.598758 349.003567 
C 172.029916 336.133852 172.029916 363.373282 146.598758 350.503567 
" clip-path="url(#pa4dcaad858)" style="fill: #020202"/>
    <path d="M 144.606085 348.423578 
L 134.769923 329.563531 
" clip-path="url(#pa4dcaad858)" style="fill: #020202"/>
    <path d="M 144.161034 348.777148 
L 105.831646 315.909853 
" clip-path="url(#pa4dcaad858)" style="fill: #020202; stroke: #020202; stroke-width: 1.485"/>
    <path d="M 143.933192 349.13502 
L 69.739697 315.551982 
" clip-path="url(#pa4dcaad858)" style="fill: #020202"/>
    <path d="M 143.829539 349.455962 
L 40.460022 328.531146 
" clip-path="url(#pa4dcaad858)" style="fill: #020202"/>
    <path d="M 143.79972 349.753567 
L 33.766409 349.753567 
" clip-path="url(#pa4dcaad858)" style="fill: #020202"/>
    <path d="M 143.829539 350.051172 
L 44.870564 370.083174 
" clip-path="url(#pa4dcaad858)" style="fill: #020202"/>
    <path d="M 143.933192 350.372114 
L 73.839282 382.099511 
" clip-path="url(#pa4dcaad858)" style="fill: #020202"/>
    <path d="M 144.161034 350.729986 
L 109.247705 380.668024 
" clip-path="url(#pa4dcaad858)" style="fill: #020202"/>
    <path d="M 144.606085 351.083556 
L 134.769923 369.943604 
" clip-path="url(#pa4dcaad858)" style="fill: #020202"/>
    <path d="M 135.513808 327.805133 
C 162.338879 318.172432 142.549013 299.454853 134.424035 326.774408 
C 142.549013 299.454853 162.338879 318.172432 135.513808 327.805133 
" clip-path="url(#pa4dcaad858)" style="fill: #020202"/>
    <path d="M 132.709759 327.614995 
L 106.059488 315.551982 
" clip-path="url(#pa4dcaad858)" style="fill: #020202"/>
    <path d="M 132.606107 327.935937 
L 69.84335 315.231039 
" clip-path="url(#pa4dcaad858)" style="fill: #020202; stroke: #020202; stroke-width: 1.485"/>
    <path d="M 132.576288 328.233542 
L 40.489841 328.233542 
" clip-path="url(#pa4dcaad858)" style="fill: #020202"/>
    <path d="M 132.606107 328.531146 
L 33.647131 348.563148 
" clip-path="url(#pa4dcaad858)" style="fill: #020202"/>
    <path d="M 132.709759 328.852089 
L 44.455954 368.799404 
" clip-path="url(#pa4dcaad858)" style="fill: #020202; stroke: #020202; stroke-width: 1.485"/>
    <path d="M 132.937601 329.209961 
L 72.927914 380.668024 
" clip-path="url(#pa4dcaad858)" style="fill: #020202"/>
    <path d="M 133.382653 329.563531 
L 107.467499 379.253744 
" clip-path="url(#pa4dcaad858)" style="fill: #020202"/>
    <path d="M 134.076288 329.733542 
L 134.076288 369.773593 
" clip-path="url(#pa4dcaad858)" style="fill: #020202"/>
    <path d="M 105.700089 313.821819 
C 123.644397 291.677403 97.01781 285.931847 104.233837 313.505427 
C 97.01781 285.931847 123.644397 291.677403 105.700089 313.821819 
" clip-path="url(#pa4dcaad858)" style="fill: #020202"/>
    <path d="M 103.19296 314.933435 
L 69.873169 314.933435 
" clip-path="url(#pa4dcaad858)" style="fill: #020202; stroke: #020202; stroke-width: 1.485"/>
    <path d="M 103.222779 315.231039 
L 40.460022 327.935937 
" clip-path="url(#pa4dcaad858)" style="fill: #020202"/>
    <path d="M 103.326431 315.551982 
L 33.232522 347.279379 
" clip-path="url(#pa4dcaad858)" style="fill: #020202"/>
    <path d="M 103.554273 315.909853 
L 43.544586 367.367917 
" clip-path="url(#pa4dcaad858)" style="fill: #020202"/>
    <path d="M 103.999325 316.263424 
L 71.147709 379.253744 
" clip-path="url(#pa4dcaad858)" style="fill: #020202"/>
    <path d="M 104.69296 316.433435 
L 104.69296 378.5737 
" clip-path="url(#pa4dcaad858)" style="fill: #020202"/>
    <path d="M 105.386595 316.263424 
L 133.382653 369.943604 
" clip-path="url(#pa4dcaad858)" style="fill: #020202"/>
    <path d="M 68.832292 313.505427 
C 76.048318 285.931847 49.421731 291.677403 67.366039 313.821819 
C 49.421731 291.677403 76.048318 285.931847 68.832292 313.505427 
" clip-path="url(#pa4dcaad858)" style="fill: #020202"/>
    <path d="M 67.006641 315.551982 
L 40.356369 327.614995 
" clip-path="url(#pa4dcaad858)" style="fill: #020202"/>
    <path d="M 67.234483 315.909853 
L 32.321153 345.847892 
" clip-path="url(#pa4dcaad858)" style="fill: #020202"/>
    <path d="M 67.679534 316.263424 
L 41.764381 365.953637 
" clip-path="url(#pa4dcaad858)" style="fill: #020202"/>
    <path d="M 68.373169 316.433435 
L 68.373169 378.5737 
" clip-path="url(#pa4dcaad858)" style="fill: #020202"/>
    <path d="M 69.066804 316.263424 
L 101.91842 379.253744 
" clip-path="url(#pa4dcaad858)" style="fill: #020202"/>
    <path d="M 69.511855 315.909853 
L 132.937601 370.297174 
" clip-path="url(#pa4dcaad858)" style="fill: #020202"/>
    <path d="M 38.642093 326.774408 
C 30.517116 299.454853 10.72725 318.172432 37.55232 327.805133 
C 10.72725 318.172432 30.517116 299.454853 38.642093 326.774408 
" clip-path="url(#pa4dcaad858)" style="fill: #020202"/>
    <path d="M 38.296206 329.563531 
L 30.540948 344.433611 
" clip-path="url(#pa4dcaad858)" style="fill: #020202; stroke: #020202; stroke-width: 1.485"/>
    <path d="M 38.989841 329.733542 
L 38.989841 365.273593 
" clip-path="url(#pa4dcaad858)" style="fill: #020202"/>
    <path d="M 39.683476 329.563531 
L 65.598629 379.253744 
" clip-path="url(#pa4dcaad858)" style="fill: #020202"/>
    <path d="M 40.128527 329.209961 
L 100.138215 380.668024 
" clip-path="url(#pa4dcaad858)" style="fill: #020202"/>
    <path d="M 40.356369 328.852089 
L 132.709759 370.655045 
" clip-path="url(#pa4dcaad858)" style="fill: #020202"/>
    <path d="M 22.570256 346.753567 
C 1.036213 336.133852 1.036213 363.373282 22.570256 352.753567 
C 1.036213 363.373282 1.036213 336.133852 22.570256 346.753567 
" clip-path="url(#pa4dcaad858)" style="fill: #020202"/>
    <path d="M 30.540948 355.073523 
L 36.215301 365.953637 
" clip-path="url(#pa4dcaad858)" style="fill: #020202; stroke: #020202; stroke-width: 1.485"/>
    <path d="M 32.321153 353.659242 
L 63.818424 380.668024 
" clip-path="url(#pa4dcaad858)" style="fill: #020202; stroke: #020202; stroke-width: 1.485"/>
    <path d="M 33.232522 352.227756 
L 99.226847 382.099511 
" clip-path="url(#pa4dcaad858)" style="fill: #020202; stroke: #020202; stroke-width: 1.485"/>
    <path d="M 33.647131 350.943986 
L 132.606107 370.975988 
" clip-path="url(#pa4dcaad858)" style="fill: #020202"/>
    <path d="M 33.239758 372.987227 
C 10.72725 381.334702 30.517116 400.052281 37.59885 377.110128 
C 30.517116 400.052281 10.72725 381.334702 33.239758 372.987227 
" clip-path="url(#pa4dcaad858)" style="fill: #020202"/>
    <path d="M 44.455954 373.747781 
L 62.907056 382.099511 
" clip-path="url(#pa4dcaad858)" style="fill: #020202; stroke: #020202; stroke-width: 1.485"/>
    <path d="M 44.870564 372.464012 
L 98.812237 383.383281 
" clip-path="url(#pa4dcaad858)" style="fill: #020202; stroke: #020202; stroke-width: 1.485"/>
    <path d="M 44.989841 371.273593 
L 132.576288 371.273593 
" clip-path="url(#pa4dcaad858)" style="fill: #020202"/>
    <path d="M 64.344651 389.020163 
C 49.421731 407.829731 76.048318 413.575287 70.20966 390.285731 
C 76.048318 413.575287 49.421731 407.829731 64.344651 389.020163 
" clip-path="url(#pa4dcaad858)" style="fill: #020202"/>
    <path d="M 74.373169 384.5737 
L 98.69296 384.5737 
" clip-path="url(#pa4dcaad858)" style="fill: #020202; stroke: #020202; stroke-width: 1.485"/>
    <path d="M 74.253892 383.383281 
L 132.606107 371.571197 
" clip-path="url(#pa4dcaad858)" style="fill: #020202; stroke: #020202; stroke-width: 1.485"/>
    <path d="M 102.856468 390.285731 
C 97.01781 413.575287 123.644397 407.829731 108.721478 389.020163 
C 123.644397 407.829731 97.01781 413.575287 102.856468 390.285731 
" clip-path="url(#pa4dcaad858)" style="fill: #020202"/>
    <path d="M 110.159073 382.099511 
L 132.709759 371.89214 
" clip-path="url(#pa4dcaad858)" style="fill: #020202; stroke: #020202; stroke-width: 1.485"/>
    <path d="M 134.424035 372.732726 
C 142.549013 400.052281 162.338879 381.334702 135.513808 371.702001 
C 162.338879 381.334702 142.549013 400.052281 134.424035 372.732726 
" clip-path="url(#pa4dcaad858)" style="fill: #020202"/>
   </g>
   <g id="VertexCollection_4">
    <path d="M 145.29972 351.253567 
C 145.697525 351.253567 146.07909 351.095518 146.36038 350.814227 
C 146.641671 350.532937 146.79972 350.151372 146.79972 349.753567 
C 146.79972 349.355763 146.641671 348.974197 146.36038 348.692907 
C 146.07909 348.411617 145.697525 348.253567 145.29972 348.253567 
C 144.901916 348.253567 144.52035 348.411617 144.23906 348.692907 
C 143.95777 348.974197 143.79972 349.355763 143.79972 349.753567 
C 143.79972 350.151372 143.95777 350.532937 144.23906 350.814227 
C 144.52035 351.095518 144.901916 351.253567 145.29972 351.253567 
z
" clip-path="url(#pa4dcaad858)" style="fill: #bebebe; stroke: #00ff00; stroke-width: 3"/>
    <path d="M 134.076288 329.733542 
C 134.474092 329.733542 134.855657 329.575492 135.136948 329.294202 
C 135.418238 329.012912 135.576288 328.631346 135.576288 328.233542 
C 135.576288 327.835737 135.418238 327.454172 135.136948 327.172882 
C 134.855657 326.891591 134.474092 326.733542 134.076288 326.733542 
C 133.678483 326.733542 133.296918 326.891591 133.015627 327.172882 
C 132.734337 327.454172 132.576288 327.835737 132.576288 328.233542 
C 132.576288 328.631346 132.734337 329.012912 133.015627 329.294202 
C 133.296918 329.575492 133.678483 329.733542 134.076288 329.733542 
z
" clip-path="url(#pa4dcaad858)" style="fill: #bebebe; stroke: #00ff00; stroke-width: 3"/>
    <path d="M 104.69296 316.433435 
C 105.090764 316.433435 105.47233 316.275385 105.75362 315.994095 
C 106.03491 315.712804 106.19296 315.331239 106.19296 314.933435 
C 106.19296 314.53563 106.03491 314.154065 105.75362 313.872774 
C 105.47233 313.591484 105.090764 313.433435 104.69296 313.433435 
C 104.295155 313.433435 103.91359 313.591484 103.6323 313.872774 
C 103.351009 314.154065 103.19296 314.53563 103.19296 314.933435 
C 103.19296 315.331239 103.351009 315.712804 103.6323 315.994095 
C 103.91359 316.275385 104.295155 316.433435 104.69296 316.433435 
z
" clip-path="url(#pa4dcaad858)" style="fill: #bebebe; stroke: #ff0000; stroke-width: 3"/>
    <path d="M 68.373169 316.433435 
C 68.770974 316.433435 69.152539 316.275385 69.433829 315.994095 
C 69.71512 315.712804 69.873169 315.331239 69.873169 314.933435 
C 69.873169 314.53563 69.71512 314.154065 69.433829 313.872774 
C 69.152539 313.591484 68.770974 313.433435 68.373169 313.433435 
C 67.975364 313.433435 67.593799 313.591484 67.312509 313.872774 
C 67.031218 314.154065 66.873169 314.53563 66.873169 314.933435 
C 66.873169 315.331239 67.031218 315.712804 67.312509 315.994095 
C 67.593799 316.275385 67.975364 316.433435 68.373169 316.433435 
z
" clip-path="url(#pa4dcaad858)" style="fill: #bebebe; stroke: #ff0000; stroke-width: 3"/>
    <path d="M 38.989841 329.733542 
C 39.387646 329.733542 39.769211 329.575492 40.050501 329.294202 
C 40.331792 329.012912 40.489841 328.631346 40.489841 328.233542 
C 40.489841 327.835737 40.331792 327.454172 40.050501 327.172882 
C 39.769211 326.891591 39.387646 326.733542 38.989841 326.733542 
C 38.592036 326.733542 38.210471 326.891591 37.929181 327.172882 
C 37.647891 327.454172 37.489841 327.835737 37.489841 328.233542 
C 37.489841 328.631346 37.647891 329.012912 37.929181 329.294202 
C 38.210471 329.575492 38.592036 329.733542 38.989841 329.733542 
z
" clip-path="url(#pa4dcaad858)" style="fill: #bebebe; stroke: #00ff00; stroke-width: 3"/>
    <path d="M 27.766409 355.753567 
C 29.357627 355.753567 30.883888 355.121369 32.009049 353.996208 
C 33.134211 352.871046 33.766409 351.344786 33.766409 349.753567 
C 33.766409 348.162349 33.134211 346.636088 32.009049 345.510926 
C 30.883888 344.385765 29.357627 343.753567 27.766409 343.753567 
C 26.17519 343.753567 24.648929 344.385765 23.523768 345.510926 
C 22.398606 346.636088 21.766409 348.162349 21.766409 349.753567 
C 21.766409 351.344786 22.398606 352.871046 23.523768 353.996208 
C 24.648929 355.121369 26.17519 355.753567 27.766409 355.753567 
z
" clip-path="url(#pa4dcaad858)" style="fill: #bebebe; stroke: #00ff00; stroke-width: 3"/>
    <path d="M 38.989841 377.273593 
C 40.58106 377.273593 42.10732 376.641395 43.232482 375.516233 
C 44.357643 374.391072 44.989841 372.864811 44.989841 371.273593 
C 44.989841 369.682374 44.357643 368.156113 43.232482 367.030952 
C 42.10732 365.90579 40.58106 365.273593 38.989841 365.273593 
C 37.398622 365.273593 35.872362 365.90579 34.7472 367.030952 
C 33.622039 368.156113 32.989841 369.682374 32.989841 371.273593 
C 32.989841 372.864811 33.622039 374.391072 34.7472 375.516233 
C 35.872362 376.641395 37.398622 377.273593 38.989841 377.273593 
z
" clip-path="url(#pa4dcaad858)" style="fill: #bebebe; stroke: #00ff00; stroke-width: 3"/>
    <path d="M 68.373169 390.5737 
C 69.964388 390.5737 71.490648 389.941502 72.61581 388.81634 
C 73.740971 387.691179 74.373169 386.164918 74.373169 384.5737 
C 74.373169 382.982481 73.740971 381.456221 72.61581 380.331059 
C 71.490648 379.205898 69.964388 378.5737 68.373169 378.5737 
C 66.78195 378.5737 65.25569 379.205898 64.130528 380.331059 
C 63.005367 381.456221 62.373169 382.982481 62.373169 384.5737 
C 62.373169 386.164918 63.005367 387.691179 64.130528 388.81634 
C 65.25569 389.941502 66.78195 390.5737 68.373169 390.5737 
z
" clip-path="url(#pa4dcaad858)" style="fill: #bebebe; stroke: #00ff00; stroke-width: 3"/>
    <path d="M 104.69296 390.5737 
C 106.284178 390.5737 107.810439 389.941502 108.9356 388.81634 
C 110.060762 387.691179 110.69296 386.164918 110.69296 384.5737 
C 110.69296 382.982481 110.060762 381.456221 108.9356 380.331059 
C 107.810439 379.205898 106.284178 378.5737 104.69296 378.5737 
C 103.101741 378.5737 101.57548 379.205898 100.450319 380.331059 
C 99.325158 381.456221 98.69296 382.982481 98.69296 384.5737 
C 98.69296 386.164918 99.325158 387.691179 100.450319 388.81634 
C 101.57548 389.941502 103.101741 390.5737 104.69296 390.5737 
z
" clip-path="url(#pa4dcaad858)" style="fill: #bebebe; stroke: #00ff00; stroke-width: 3"/>
    <path d="M 134.076288 372.773593 
C 134.474092 372.773593 134.855657 372.615543 135.136948 372.334253 
C 135.418238 372.052962 135.576288 371.671397 135.576288 371.273593 
C 135.576288 370.875788 135.418238 370.494223 135.136948 370.212932 
C 134.855657 369.931642 134.474092 369.773593 134.076288 369.773593 
C 133.678483 369.773593 133.296918 369.931642 133.015627 370.212932 
C 132.734337 370.494223 132.576288 370.875788 132.576288 371.273593 
C 132.576288 371.671397 132.734337 372.052962 133.015627 372.334253 
C 133.296918 372.615543 133.678483 372.773593 134.076288 372.773593 
z
" clip-path="url(#pa4dcaad858)" style="fill: #bebebe; stroke: #00ff00; stroke-width: 3"/>
   </g>
   <g id="matplotlib.axis_7"/>
   <g id="matplotlib.axis_8"/>
  </g>
  <g id="axes_5">
   <g id="patch_6">
    <path d="M 12.852 493.2 
L 158.508 493.2 
L 158.508 405.36 
L 12.852 405.36 
z
" style="fill: #ffffff"/>
   </g>
   <g id="EdgeCollection_5">
    <path d="M 146.598758 449.143567 
C 172.029916 462.013282 172.029916 434.773852 146.598758 447.643567 
C 172.029916 434.773852 172.029916 462.013282 146.598758 449.143567 
" clip-path="url(#pd3f57b96a0)" style="fill: #020202"/>
    <path d="M 144.606085 447.063578 
L 136.850827 432.193498 
" clip-path="url(#pd3f57b96a0)" style="fill: #020202"/>
    <path d="M 144.161034 447.417148 
L 105.831646 414.549853 
" clip-path="url(#pd3f57b96a0)" style="fill: #020202; stroke: #020202; stroke-width: 1.485"/>
    <path d="M 143.933192 447.77502 
L 69.739697 414.191982 
" clip-path="url(#pd3f57b96a0)" style="fill: #020202"/>
    <path d="M 143.829539 448.095962 
L 40.460022 427.171146 
" clip-path="url(#pd3f57b96a0)" style="fill: #020202"/>
    <path d="M 143.79972 448.393567 
L 33.766409 448.393567 
" clip-path="url(#pd3f57b96a0)" style="fill: #020202"/>
    <path d="M 143.829539 448.691172 
L 44.870564 468.723174 
" clip-path="url(#pd3f57b96a0)" style="fill: #020202"/>
    <path d="M 143.933192 449.012114 
L 73.839282 480.739511 
" clip-path="url(#pd3f57b96a0)" style="fill: #020202"/>
    <path d="M 144.161034 449.369986 
L 109.247705 479.308024 
" clip-path="url(#pd3f57b96a0)" style="fill: #020202"/>
    <path d="M 144.606085 449.723556 
L 134.769923 468.583604 
" clip-path="url(#pd3f57b96a0)" style="fill: #020202"/>
    <path d="M 139.826371 425.159907 
C 162.338879 416.812432 142.549013 398.094853 135.467278 421.037006 
C 142.549013 398.094853 162.338879 416.812432 139.826371 425.159907 
" clip-path="url(#pd3f57b96a0)" style="fill: #020202"/>
    <path d="M 128.610175 424.399353 
L 106.059488 414.191982 
" clip-path="url(#pd3f57b96a0)" style="fill: #020202"/>
    <path d="M 128.195565 425.683123 
L 69.84335 413.871039 
" clip-path="url(#pd3f57b96a0)" style="fill: #020202; stroke: #020202; stroke-width: 1.485"/>
    <path d="M 128.076288 426.873542 
L 40.489841 426.873542 
" clip-path="url(#pd3f57b96a0)" style="fill: #020202"/>
    <path d="M 128.195565 428.063961 
L 33.647131 447.203148 
" clip-path="url(#pd3f57b96a0)" style="fill: #020202"/>
    <path d="M 128.610175 429.34773 
L 44.455954 467.439404 
" clip-path="url(#pd3f57b96a0)" style="fill: #020202; stroke: #020202; stroke-width: 1.485"/>
    <path d="M 129.521543 430.779217 
L 72.927914 479.308024 
" clip-path="url(#pd3f57b96a0)" style="fill: #020202; stroke: #020202; stroke-width: 1.485"/>
    <path d="M 131.301748 432.193498 
L 107.467499 477.893744 
" clip-path="url(#pd3f57b96a0)" style="fill: #020202; stroke: #020202; stroke-width: 1.485"/>
    <path d="M 134.076288 432.873542 
L 134.076288 468.413593 
" clip-path="url(#pd3f57b96a0)" style="fill: #020202"/>
    <path d="M 105.700089 412.461819 
C 123.644397 390.317403 97.01781 384.571847 104.233837 412.145427 
C 97.01781 384.571847 123.644397 390.317403 105.700089 412.461819 
" clip-path="url(#pd3f57b96a0)" style="fill: #020202"/>
    <path d="M 103.19296 413.573435 
L 69.873169 413.573435 
" clip-path="url(#pd3f57b96a0)" style="fill: #020202"/>
    <path d="M 103.222779 413.871039 
L 40.460022 426.575937 
" clip-path="url(#pd3f57b96a0)" style="fill: #020202"/>
    <path d="M 103.326431 414.191982 
L 33.232522 445.919379 
" clip-path="url(#pd3f57b96a0)" style="fill: #020202"/>
    <path d="M 103.554273 414.549853 
L 43.544586 466.007917 
" clip-path="url(#pd3f57b96a0)" style="fill: #020202"/>
    <path d="M 103.999325 414.903424 
L 71.147709 477.893744 
" clip-path="url(#pd3f57b96a0)" style="fill: #020202"/>
    <path d="M 104.69296 415.073435 
L 104.69296 477.2137 
" clip-path="url(#pd3f57b96a0)" style="fill: #020202"/>
    <path d="M 105.386595 414.903424 
L 133.382653 468.583604 
" clip-path="url(#pd3f57b96a0)" style="fill: #020202"/>
    <path d="M 68.832292 412.145427 
C 76.048318 384.571847 49.421731 390.317403 67.366039 412.461819 
C 49.421731 390.317403 76.048318 384.571847 68.832292 412.145427 
" clip-path="url(#pd3f57b96a0)" style="fill: #020202"/>
    <path d="M 67.006641 414.191982 
L 40.356369 426.254995 
" clip-path="url(#pd3f57b96a0)" style="fill: #020202"/>
    <path d="M 67.234483 414.549853 
L 32.321153 444.487892 
" clip-path="url(#pd3f57b96a0)" style="fill: #020202"/>
    <path d="M 67.679534 414.903424 
L 41.764381 464.593637 
" clip-path="url(#pd3f57b96a0)" style="fill: #020202"/>
    <path d="M 68.373169 415.073435 
L 68.373169 477.2137 
" clip-path="url(#pd3f57b96a0)" style="fill: #020202"/>
    <path d="M 69.066804 414.903424 
L 101.91842 477.893744 
" clip-path="url(#pd3f57b96a0)" style="fill: #020202"/>
    <path d="M 69.511855 414.549853 
L 132.937601 468.937174 
" clip-path="url(#pd3f57b96a0)" style="fill: #020202"/>
    <path d="M 38.642093 425.414408 
C 30.517116 398.094853 10.72725 416.812432 37.55232 426.445133 
C 10.72725 416.812432 30.517116 398.094853 38.642093 425.414408 
" clip-path="url(#pd3f57b96a0)" style="fill: #020202"/>
    <path d="M 38.296206 428.203531 
L 30.540948 443.073611 
" clip-path="url(#pd3f57b96a0)" style="fill: #020202; stroke: #020202; stroke-width: 1.485"/>
    <path d="M 38.989841 428.373542 
L 38.989841 463.913593 
" clip-path="url(#pd3f57b96a0)" style="fill: #020202"/>
    <path d="M 39.683476 428.203531 
L 65.598629 477.893744 
" clip-path="url(#pd3f57b96a0)" style="fill: #020202"/>
    <path d="M 40.128527 427.849961 
L 100.138215 479.308024 
" clip-path="url(#pd3f57b96a0)" style="fill: #020202"/>
    <path d="M 40.356369 427.492089 
L 132.709759 469.295045 
" clip-path="url(#pd3f57b96a0)" style="fill: #020202; stroke: #020202; stroke-width: 1.485"/>
    <path d="M 22.570256 445.393567 
C 1.036213 434.773852 1.036213 462.013282 22.570256 451.393567 
C 1.036213 462.013282 1.036213 434.773852 22.570256 445.393567 
" clip-path="url(#pd3f57b96a0)" style="fill: #020202"/>
    <path d="M 30.540948 453.713523 
L 36.215301 464.593637 
" clip-path="url(#pd3f57b96a0)" style="fill: #020202; stroke: #020202; stroke-width: 1.485"/>
    <path d="M 32.321153 452.299242 
L 63.818424 479.308024 
" clip-path="url(#pd3f57b96a0)" style="fill: #020202"/>
    <path d="M 33.232522 450.867756 
L 99.226847 480.739511 
" clip-path="url(#pd3f57b96a0)" style="fill: #020202; stroke: #020202; stroke-width: 1.485"/>
    <path d="M 33.647131 449.583986 
L 132.606107 469.615988 
" clip-path="url(#pd3f57b96a0)" style="fill: #020202; stroke: #020202; stroke-width: 1.485"/>
    <path d="M 33.239758 471.627227 
C 10.72725 479.974702 30.517116 498.692281 37.59885 475.750128 
C 30.517116 498.692281 10.72725 479.974702 33.239758 471.627227 
" clip-path="url(#pd3f57b96a0)" style="fill: #020202"/>
    <path d="M 44.455954 472.387781 
L 62.907056 480.739511 
" clip-path="url(#pd3f57b96a0)" style="fill: #020202; stroke: #020202; stroke-width: 1.485"/>
    <path d="M 44.870564 471.104012 
L 98.812237 482.023281 
" clip-path="url(#pd3f57b96a0)" style="fill: #020202; stroke: #020202; stroke-width: 1.485"/>
    <path d="M 44.989841 469.913593 
L 132.576288 469.913593 
" clip-path="url(#pd3f57b96a0)" style="fill: #020202"/>
    <path d="M 64.344651 487.660163 
C 49.421731 506.469731 76.048318 512.215287 70.20966 488.925731 
C 76.048318 512.215287 49.421731 506.469731 64.344651 487.660163 
" clip-path="url(#pd3f57b96a0)" style="fill: #020202"/>
    <path d="M 74.373169 483.2137 
L 98.69296 483.2137 
" clip-path="url(#pd3f57b96a0)" style="fill: #020202; stroke: #020202; stroke-width: 1.485"/>
    <path d="M 74.253892 482.023281 
L 132.606107 470.211197 
" clip-path="url(#pd3f57b96a0)" style="fill: #020202; stroke: #020202; stroke-width: 1.485"/>
    <path d="M 102.856468 488.925731 
C 97.01781 512.215287 123.644397 506.469731 108.721478 487.660163 
C 123.644397 506.469731 97.01781 512.215287 102.856468 488.925731 
" clip-path="url(#pd3f57b96a0)" style="fill: #020202"/>
    <path d="M 110.159073 480.739511 
L 132.709759 470.53214 
" clip-path="url(#pd3f57b96a0)" style="fill: #020202"/>
    <path d="M 134.424035 471.372726 
C 142.549013 498.692281 162.338879 479.974702 135.513808 470.342001 
C 162.338879 479.974702 142.549013 498.692281 134.424035 471.372726 
" clip-path="url(#pd3f57b96a0)" style="fill: #020202"/>
   </g>
   <g id="VertexCollection_5">
    <path d="M 145.29972 449.893567 
C 145.697525 449.893567 146.07909 449.735518 146.36038 449.454227 
C 146.641671 449.172937 146.79972 448.791372 146.79972 448.393567 
C 146.79972 447.995763 146.641671 447.614197 146.36038 447.332907 
C 146.07909 447.051617 145.697525 446.893567 145.29972 446.893567 
C 144.901916 446.893567 144.52035 447.051617 144.23906 447.332907 
C 143.95777 447.614197 143.79972 447.995763 143.79972 448.393567 
C 143.79972 448.791372 143.95777 449.172937 144.23906 449.454227 
C 144.52035 449.735518 144.901916 449.893567 145.29972 449.893567 
z
" clip-path="url(#pd3f57b96a0)" style="fill: #bebebe; stroke: #00ff00; stroke-width: 3"/>
    <path d="M 134.076288 432.873542 
C 135.667506 432.873542 137.193767 432.241344 138.318928 431.116182 
C 139.44409 429.991021 140.076288 428.46476 140.076288 426.873542 
C 140.076288 425.282323 139.44409 423.756062 138.318928 422.630901 
C 137.193767 421.50574 135.667506 420.873542 134.076288 420.873542 
C 132.485069 420.873542 130.958808 421.50574 129.833647 422.630901 
C 128.708485 423.756062 128.076288 425.282323 128.076288 426.873542 
C 128.076288 428.46476 128.708485 429.991021 129.833647 431.116182 
C 130.958808 432.241344 132.485069 432.873542 134.076288 432.873542 
z
" clip-path="url(#pd3f57b96a0)" style="fill: #bebebe; stroke: #00ff00; stroke-width: 3"/>
    <path d="M 104.69296 415.073435 
C 105.090764 415.073435 105.47233 414.915385 105.75362 414.634095 
C 106.03491 414.352804 106.19296 413.971239 106.19296 413.573435 
C 106.19296 413.17563 106.03491 412.794065 105.75362 412.512774 
C 105.47233 412.231484 105.090764 412.073435 104.69296 412.073435 
C 104.295155 412.073435 103.91359 412.231484 103.6323 412.512774 
C 103.351009 412.794065 103.19296 413.17563 103.19296 413.573435 
C 103.19296 413.971239 103.351009 414.352804 103.6323 414.634095 
C 103.91359 414.915385 104.295155 415.073435 104.69296 415.073435 
z
" clip-path="url(#pd3f57b96a0)" style="fill: #bebebe; stroke: #ff0000; stroke-width: 3"/>
    <path d="M 68.373169 415.073435 
C 68.770974 415.073435 69.152539 414.915385 69.433829 414.634095 
C 69.71512 414.352804 69.873169 413.971239 69.873169 413.573435 
C 69.873169 413.17563 69.71512 412.794065 69.433829 412.512774 
C 69.152539 412.231484 68.770974 412.073435 68.373169 412.073435 
C 67.975364 412.073435 67.593799 412.231484 67.312509 412.512774 
C 67.031218 412.794065 66.873169 413.17563 66.873169 413.573435 
C 66.873169 413.971239 67.031218 414.352804 67.312509 414.634095 
C 67.593799 414.915385 67.975364 415.073435 68.373169 415.073435 
z
" clip-path="url(#pd3f57b96a0)" style="fill: #bebebe; stroke: #ff0000; stroke-width: 3"/>
    <path d="M 38.989841 428.373542 
C 39.387646 428.373542 39.769211 428.215492 40.050501 427.934202 
C 40.331792 427.652912 40.489841 427.271346 40.489841 426.873542 
C 40.489841 426.475737 40.331792 426.094172 40.050501 425.812882 
C 39.769211 425.531591 39.387646 425.373542 38.989841 425.373542 
C 38.592036 425.373542 38.210471 425.531591 37.929181 425.812882 
C 37.647891 426.094172 37.489841 426.475737 37.489841 426.873542 
C 37.489841 427.271346 37.647891 427.652912 37.929181 427.934202 
C 38.210471 428.215492 38.592036 428.373542 38.989841 428.373542 
z
" clip-path="url(#pd3f57b96a0)" style="fill: #bebebe; stroke: #00ff00; stroke-width: 3"/>
    <path d="M 27.766409 454.393567 
C 29.357627 454.393567 30.883888 453.761369 32.009049 452.636208 
C 33.134211 451.511046 33.766409 449.984786 33.766409 448.393567 
C 33.766409 446.802349 33.134211 445.276088 32.009049 444.150926 
C 30.883888 443.025765 29.357627 442.393567 27.766409 442.393567 
C 26.17519 442.393567 24.648929 443.025765 23.523768 444.150926 
C 22.398606 445.276088 21.766409 446.802349 21.766409 448.393567 
C 21.766409 449.984786 22.398606 451.511046 23.523768 452.636208 
C 24.648929 453.761369 26.17519 454.393567 27.766409 454.393567 
z
" clip-path="url(#pd3f57b96a0)" style="fill: #bebebe; stroke: #00ff00; stroke-width: 3"/>
    <path d="M 38.989841 475.913593 
C 40.58106 475.913593 42.10732 475.281395 43.232482 474.156233 
C 44.357643 473.031072 44.989841 471.504811 44.989841 469.913593 
C 44.989841 468.322374 44.357643 466.796113 43.232482 465.670952 
C 42.10732 464.54579 40.58106 463.913593 38.989841 463.913593 
C 37.398622 463.913593 35.872362 464.54579 34.7472 465.670952 
C 33.622039 466.796113 32.989841 468.322374 32.989841 469.913593 
C 32.989841 471.504811 33.622039 473.031072 34.7472 474.156233 
C 35.872362 475.281395 37.398622 475.913593 38.989841 475.913593 
z
" clip-path="url(#pd3f57b96a0)" style="fill: #bebebe; stroke: #00ff00; stroke-width: 3"/>
    <path d="M 68.373169 489.2137 
C 69.964388 489.2137 71.490648 488.581502 72.61581 487.45634 
C 73.740971 486.331179 74.373169 484.804918 74.373169 483.2137 
C 74.373169 481.622481 73.740971 480.096221 72.61581 478.971059 
C 71.490648 477.845898 69.964388 477.2137 68.373169 477.2137 
C 66.78195 477.2137 65.25569 477.845898 64.130528 478.971059 
C 63.005367 480.096221 62.373169 481.622481 62.373169 483.2137 
C 62.373169 484.804918 63.005367 486.331179 64.130528 487.45634 
C 65.25569 488.581502 66.78195 489.2137 68.373169 489.2137 
z
" clip-path="url(#pd3f57b96a0)" style="fill: #bebebe; stroke: #00ff00; stroke-width: 3"/>
    <path d="M 104.69296 489.2137 
C 106.284178 489.2137 107.810439 488.581502 108.9356 487.45634 
C 110.060762 486.331179 110.69296 484.804918 110.69296 483.2137 
C 110.69296 481.622481 110.060762 480.096221 108.9356 478.971059 
C 107.810439 477.845898 106.284178 477.2137 104.69296 477.2137 
C 103.101741 477.2137 101.57548 477.845898 100.450319 478.971059 
C 99.325158 480.096221 98.69296 481.622481 98.69296 483.2137 
C 98.69296 484.804918 99.325158 486.331179 100.450319 487.45634 
C 101.57548 488.581502 103.101741 489.2137 104.69296 489.2137 
z
" clip-path="url(#pd3f57b96a0)" style="fill: #bebebe; stroke: #00ff00; stroke-width: 3"/>
    <path d="M 134.076288 471.413593 
C 134.474092 471.413593 134.855657 471.255543 135.136948 470.974253 
C 135.418238 470.692962 135.576288 470.311397 135.576288 469.913593 
C 135.576288 469.515788 135.418238 469.134223 135.136948 468.852932 
C 134.855657 468.571642 134.474092 468.413593 134.076288 468.413593 
C 133.678483 468.413593 133.296918 468.571642 133.015627 468.852932 
C 132.734337 469.134223 132.576288 469.515788 132.576288 469.913593 
C 132.576288 470.311397 132.734337 470.692962 133.015627 470.974253 
C 133.296918 471.255543 133.678483 471.413593 134.076288 471.413593 
z
" clip-path="url(#pd3f57b96a0)" style="fill: #bebebe; stroke: #00ff00; stroke-width: 3"/>
   </g>
   <g id="matplotlib.axis_9"/>
   <g id="matplotlib.axis_10"/>
  </g>
 </g>
 <defs>
  <clipPath id="p4c0c88a683">
   <rect x="12.852" y="10.8" width="145.656" height="87.84"/>
  </clipPath>
  <clipPath id="p52b6c1928c">
   <rect x="12.852" y="109.44" width="145.656" height="87.84"/>
  </clipPath>
  <clipPath id="p3c9fe93550">
   <rect x="12.852" y="208.08" width="145.656" height="87.84"/>
  </clipPath>
  <clipPath id="pa4dcaad858">
   <rect x="12.852" y="306.72" width="145.656" height="87.84"/>
  </clipPath>
  <clipPath id="pd3f57b96a0">
   <rect x="12.852" y="405.36" width="145.656" height="87.84"/>
  </clipPath>
 </defs>
</svg>
