<?xml version="1.0" encoding="utf-8" standalone="no"?>
<!DOCTYPE svg PUBLIC "-//W3C//DTD SVG 1.1//EN"
  "http://www.w3.org/Graphics/SVG/1.1/DTD/svg11.dtd">
<svg xmlns:xlink="http://www.w3.org/1999/xlink" width="171.36pt" height="504pt" viewBox="0 0 171.36 504" xmlns="http://www.w3.org/2000/svg" version="1.1">
 <metadata>
  <rdf:RDF xmlns:dc="http://purl.org/dc/elements/1.1/" xmlns:cc="http://creativecommons.org/ns#" xmlns:rdf="http://www.w3.org/1999/02/22-rdf-syntax-ns#">
   <cc:Work>
    <dc:type rdf:resource="http://purl.org/dc/dcmitype/StillImage"/>
    <dc:date>2025-08-19T12:02:08.865879</dc:date>
    <dc:format>image/svg+xml</dc:format>
    <dc:creator>
     <cc:Agent>
      <dc:title>Matplotlib v3.10.0, https://matplotlib.org/</dc:title>
     </cc:Agent>
    </dc:creator>
   </cc:Work>
  </rdf:RDF>
 </metadata>
 <defs>
  <style type="text/css">*{stroke-linejoin: round; stroke-linecap: butt}</style>
 </defs>
 <g id="figure_1">
  <g id="patch_1">
   <path d="M 0 504 
L 171.36 504 
L 171.36 0 
L 0 0 
z
" style="fill: #ffffff"/>
  </g>
  <g id="axes_1">
   <g id="patch_2">
    <path d="M 12.852 98.64 
L 158.508 98.64 
L 158.508 10.8 
L 12.852 10.8 
z
" style="fill: #ffffff"/>
   </g>
   <g id="EdgeCollection_1">
    <path d="M 148.821535 56.833567 
C 170.355578 67.453282 170.355578 40.213852 148.821535 50.833567 
C 170.355578 40.213852 170.355578 67.453282 148.821535 56.833567 
" clip-path="url(#p75d623ac2a)" style="fill: #020202"/>
    <path d="M 140.881463 48.497754 
L 133.244779 33.647495 
" clip-path="url(#p75d623ac2a)" style="fill: #020202"/>
    <path d="M 139.097938 49.896278 
L 104.717969 19.997757 
" clip-path="url(#p75d623ac2a)" style="fill: #020202; stroke: #020202; stroke-width: 1.485"/>
    <path d="M 138.172489 51.33038 
L 69.137116 19.639231 
" clip-path="url(#p75d623ac2a)" style="fill: #020202"/>
    <path d="M 137.747961 52.626954 
L 40.270556 32.615195 
" clip-path="url(#p75d623ac2a)" style="fill: #020202"/>
    <path d="M 137.625383 53.833567 
L 33.734617 53.833567 
" clip-path="url(#p75d623ac2a)" style="fill: #020202; stroke: #020202; stroke-width: 1.485"/>
    <path d="M 137.747961 55.040181 
L 44.678622 74.146979 
" clip-path="url(#p75d623ac2a)" style="fill: #020202; stroke: #020202; stroke-width: 1.485"/>
    <path d="M 138.172489 56.336755 
L 73.226786 86.150512 
" clip-path="url(#p75d623ac2a)" style="fill: #020202; stroke: #020202; stroke-width: 1.485"/>
    <path d="M 139.097938 57.770857 
L 108.113552 84.71641 
" clip-path="url(#p75d623ac2a)" style="fill: #020202; stroke: #020202; stroke-width: 1.485"/>
    <path d="M 140.881463 59.169381 
L 133.244779 74.019639 
" clip-path="url(#p75d623ac2a)" style="fill: #020202"/>
    <path d="M 133.998667 31.893088 
C 160.87659 22.408859 141.190522 3.582142 132.91461 30.856353 
C 141.190522 3.582142 160.87659 22.408859 133.998667 31.893088 
" clip-path="url(#p75d623ac2a)" style="fill: #020202"/>
    <path d="M 131.195576 31.687745 
L 104.949331 19.639231 
" clip-path="url(#p75d623ac2a)" style="fill: #020202"/>
    <path d="M 131.089444 32.011888 
L 69.243247 19.315088 
" clip-path="url(#p75d623ac2a)" style="fill: #020202; stroke: #020202; stroke-width: 1.485"/>
    <path d="M 131.058799 32.313542 
L 40.301201 32.313542 
" clip-path="url(#p75d623ac2a)" style="fill: #020202"/>
    <path d="M 131.089444 32.615195 
L 33.612039 52.626954 
" clip-path="url(#p75d623ac2a)" style="fill: #020202"/>
    <path d="M 131.195576 32.939339 
L 44.254095 72.850405 
" clip-path="url(#p75d623ac2a)" style="fill: #020202; stroke: #020202; stroke-width: 1.485"/>
    <path d="M 131.426938 33.297864 
L 72.301336 84.71641 
" clip-path="url(#p75d623ac2a)" style="fill: #020202"/>
    <path d="M 131.872819 33.647495 
L 106.330028 83.317886 
" clip-path="url(#p75d623ac2a)" style="fill: #020202; stroke: #020202; stroke-width: 1.485"/>
    <path d="M 132.558799 33.813542 
L 132.558799 73.853593 
" clip-path="url(#p75d623ac2a)" style="fill: #020202"/>
    <path d="M 104.596186 17.904497 
C 122.599242 -4.192184 95.988009 -10.008434 103.130779 17.584212 
C 95.988009 -10.008434 122.599242 -4.192184 104.596186 17.904497 
" clip-path="url(#p75d623ac2a)" style="fill: #020202"/>
    <path d="M 102.086108 19.013435 
L 69.273892 19.013435 
" clip-path="url(#p75d623ac2a)" style="fill: #020202; stroke: #020202; stroke-width: 1.485"/>
    <path d="M 102.116753 19.315088 
L 40.270556 32.011888 
" clip-path="url(#p75d623ac2a)" style="fill: #020202"/>
    <path d="M 102.222884 19.639231 
L 33.187511 51.33038 
" clip-path="url(#p75d623ac2a)" style="fill: #020202"/>
    <path d="M 102.454247 19.997757 
L 43.328645 71.416303 
" clip-path="url(#p75d623ac2a)" style="fill: #020202"/>
    <path d="M 102.900128 20.347388 
L 70.517812 83.317886 
" clip-path="url(#p75d623ac2a)" style="fill: #020202"/>
    <path d="M 103.586108 20.513435 
L 103.586108 82.6537 
" clip-path="url(#p75d623ac2a)" style="fill: #020202"/>
    <path d="M 104.272088 20.347388 
L 131.872819 74.019639 
" clip-path="url(#p75d623ac2a)" style="fill: #020202"/>
    <path d="M 68.229221 17.584212 
C 75.371991 -10.008434 48.760758 -4.192184 66.763814 17.904497 
C 48.760758 -4.192184 75.371991 -10.008434 68.229221 17.584212 
" clip-path="url(#p75d623ac2a)" style="fill: #020202"/>
    <path d="M 66.410669 19.639231 
L 40.164424 31.687745 
" clip-path="url(#p75d623ac2a)" style="fill: #020202"/>
    <path d="M 66.642031 19.997757 
L 32.262062 49.896278 
" clip-path="url(#p75d623ac2a)" style="fill: #020202"/>
    <path d="M 67.087912 20.347388 
L 41.54512 70.017779 
" clip-path="url(#p75d623ac2a)" style="fill: #020202"/>
    <path d="M 67.773892 20.513435 
L 67.773892 82.6537 
" clip-path="url(#p75d623ac2a)" style="fill: #020202"/>
    <path d="M 68.459872 20.347388 
L 100.842188 83.317886 
" clip-path="url(#p75d623ac2a)" style="fill: #020202"/>
    <path d="M 68.905753 19.997757 
L 131.426938 74.36927 
" clip-path="url(#p75d623ac2a)" style="fill: #020202"/>
    <path d="M 38.44539 30.856353 
C 30.169478 3.582142 10.48341 22.408859 37.361333 31.893088 
C 10.48341 22.408859 30.169478 3.582142 38.44539 30.856353 
" clip-path="url(#p75d623ac2a)" style="fill: #020202"/>
    <path d="M 38.115221 33.647495 
L 30.478537 48.497754 
" clip-path="url(#p75d623ac2a)" style="fill: #020202"/>
    <path d="M 38.801201 33.813542 
L 38.801201 69.353593 
" clip-path="url(#p75d623ac2a)" style="fill: #020202"/>
    <path d="M 39.487181 33.647495 
L 65.029972 83.317886 
" clip-path="url(#p75d623ac2a)" style="fill: #020202"/>
    <path d="M 39.933062 33.297864 
L 99.058664 84.71641 
" clip-path="url(#p75d623ac2a)" style="fill: #020202"/>
    <path d="M 40.164424 32.939339 
L 131.195576 74.727796 
" clip-path="url(#p75d623ac2a)" style="fill: #020202"/>
    <path d="M 22.538465 50.833567 
C 1.004422 40.213852 1.004422 67.453282 22.538465 56.833567 
C 1.004422 67.453282 1.004422 40.213852 22.538465 50.833567 
" clip-path="url(#p75d623ac2a)" style="fill: #020202"/>
    <path d="M 30.478537 59.169381 
L 36.057281 70.017779 
" clip-path="url(#p75d623ac2a)" style="fill: #020202; stroke: #020202; stroke-width: 1.485"/>
    <path d="M 32.262062 57.770857 
L 63.246448 84.71641 
" clip-path="url(#p75d623ac2a)" style="fill: #020202; stroke: #020202; stroke-width: 1.485"/>
    <path d="M 33.187511 56.336755 
L 98.133214 86.150512 
" clip-path="url(#p75d623ac2a)" style="fill: #020202; stroke: #020202; stroke-width: 1.485"/>
    <path d="M 33.612039 55.040181 
L 131.089444 75.051939 
" clip-path="url(#p75d623ac2a)" style="fill: #020202; stroke: #020202; stroke-width: 1.485"/>
    <path d="M 33.04173 77.035407 
C 10.48341 85.258275 30.169478 104.084993 37.377959 81.182347 
C 30.169478 104.084993 10.48341 85.258275 33.04173 77.035407 
" clip-path="url(#p75d623ac2a)" style="fill: #020202"/>
    <path d="M 44.254095 77.85678 
L 62.320998 86.150512 
" clip-path="url(#p75d623ac2a)" style="fill: #020202; stroke: #020202; stroke-width: 1.485"/>
    <path d="M 44.678622 76.560206 
L 97.708686 87.447086 
" clip-path="url(#p75d623ac2a)" style="fill: #020202; stroke: #020202; stroke-width: 1.485"/>
    <path d="M 44.801201 75.353593 
L 131.058799 75.353593 
" clip-path="url(#p75d623ac2a)" style="fill: #020202"/>
    <path d="M 63.733579 93.089449 
C 48.760758 111.859318 75.371991 117.675569 69.595207 94.370588 
C 75.371991 117.675569 48.760758 111.859318 63.733579 93.089449 
" clip-path="url(#p75d623ac2a)" style="fill: #020202"/>
    <path d="M 73.773892 88.6537 
L 97.586108 88.6537 
" clip-path="url(#p75d623ac2a)" style="fill: #020202; stroke: #020202; stroke-width: 1.485"/>
    <path d="M 73.651314 87.447086 
L 131.089444 75.655246 
" clip-path="url(#p75d623ac2a)" style="fill: #020202; stroke: #020202; stroke-width: 1.485"/>
    <path d="M 101.764793 94.370588 
C 95.988009 117.675569 122.599242 111.859318 107.626421 93.089449 
C 122.599242 111.859318 95.988009 117.675569 101.764793 94.370588 
" clip-path="url(#p75d623ac2a)" style="fill: #020202"/>
    <path d="M 109.039002 86.150512 
L 131.195576 75.979389 
" clip-path="url(#p75d623ac2a)" style="fill: #020202"/>
    <path d="M 132.91461 76.810781 
C 141.190522 104.084993 160.87659 85.258275 133.998667 75.774046 
C 160.87659 85.258275 141.190522 104.084993 132.91461 76.810781 
" clip-path="url(#p75d623ac2a)" style="fill: #020202"/>
   </g>
   <g id="VertexCollection_1">
    <path d="M 143.625383 59.833567 
C 145.216601 59.833567 146.742862 59.201369 147.868023 58.076208 
C 148.993185 56.951046 149.625383 55.424786 149.625383 53.833567 
C 149.625383 52.242349 148.993185 50.716088 147.868023 49.590926 
C 146.742862 48.465765 145.216601 47.833567 143.625383 47.833567 
C 142.034164 47.833567 140.507903 48.465765 139.382742 49.590926 
C 138.257581 50.716088 137.625383 52.242349 137.625383 53.833567 
C 137.625383 55.424786 138.257581 56.951046 139.382742 58.076208 
C 140.507903 59.201369 142.034164 59.833567 143.625383 59.833567 
z
" clip-path="url(#p75d623ac2a)" style="fill: #bebebe; stroke: #00ff00; stroke-width: 3"/>
    <path d="M 132.558799 33.813542 
C 132.956604 33.813542 133.338169 33.655492 133.61946 33.374202 
C 133.90075 33.092912 134.058799 32.711346 134.058799 32.313542 
C 134.058799 31.915737 133.90075 31.534172 133.61946 31.252882 
C 133.338169 30.971591 132.956604 30.813542 132.558799 30.813542 
C 132.160995 30.813542 131.77943 30.971591 131.498139 31.252882 
C 131.216849 31.534172 131.058799 31.915737 131.058799 32.313542 
C 131.058799 32.711346 131.216849 33.092912 131.498139 33.374202 
C 131.77943 33.655492 132.160995 33.813542 132.558799 33.813542 
z
" clip-path="url(#p75d623ac2a)" style="fill: #bebebe; stroke: #00ff00; stroke-width: 3"/>
    <path d="M 103.586108 20.513435 
C 103.983913 20.513435 104.365478 20.355385 104.646768 20.074095 
C 104.928059 19.792804 105.086108 19.411239 105.086108 19.013435 
C 105.086108 18.61563 104.928059 18.234065 104.646768 17.952774 
C 104.365478 17.671484 103.983913 17.513435 103.586108 17.513435 
C 103.188303 17.513435 102.806738 17.671484 102.525448 17.952774 
C 102.244157 18.234065 102.086108 18.61563 102.086108 19.013435 
C 102.086108 19.411239 102.244157 19.792804 102.525448 20.074095 
C 102.806738 20.355385 103.188303 20.513435 103.586108 20.513435 
z
" clip-path="url(#p75d623ac2a)" style="fill: #bebebe; stroke: #ff0000; stroke-width: 3"/>
    <path d="M 67.773892 20.513435 
C 68.171697 20.513435 68.553262 20.355385 68.834552 20.074095 
C 69.115843 19.792804 69.273892 19.411239 69.273892 19.013435 
C 69.273892 18.61563 69.115843 18.234065 68.834552 17.952774 
C 68.553262 17.671484 68.171697 17.513435 67.773892 17.513435 
C 67.376087 17.513435 66.994522 17.671484 66.713232 17.952774 
C 66.431941 18.234065 66.273892 18.61563 66.273892 19.013435 
C 66.273892 19.411239 66.431941 19.792804 66.713232 20.074095 
C 66.994522 20.355385 67.376087 20.513435 67.773892 20.513435 
z
" clip-path="url(#p75d623ac2a)" style="fill: #bebebe; stroke: #ff0000; stroke-width: 3"/>
    <path d="M 38.801201 33.813542 
C 39.199005 33.813542 39.58057 33.655492 39.861861 33.374202 
C 40.143151 33.092912 40.301201 32.711346 40.301201 32.313542 
C 40.301201 31.915737 40.143151 31.534172 39.861861 31.252882 
C 39.58057 30.971591 39.199005 30.813542 38.801201 30.813542 
C 38.403396 30.813542 38.021831 30.971591 37.74054 31.252882 
C 37.45925 31.534172 37.301201 31.915737 37.301201 32.313542 
C 37.301201 32.711346 37.45925 33.092912 37.74054 33.374202 
C 38.021831 33.655492 38.403396 33.813542 38.801201 33.813542 
z
" clip-path="url(#p75d623ac2a)" style="fill: #bebebe; stroke: #00ff00; stroke-width: 3"/>
    <path d="M 27.734617 59.833567 
C 29.325836 59.833567 30.852097 59.201369 31.977258 58.076208 
C 33.102419 56.951046 33.734617 55.424786 33.734617 53.833567 
C 33.734617 52.242349 33.102419 50.716088 31.977258 49.590926 
C 30.852097 48.465765 29.325836 47.833567 27.734617 47.833567 
C 26.143399 47.833567 24.617138 48.465765 23.491977 49.590926 
C 22.366815 50.716088 21.734617 52.242349 21.734617 53.833567 
C 21.734617 55.424786 22.366815 56.951046 23.491977 58.076208 
C 24.617138 59.201369 26.143399 59.833567 27.734617 59.833567 
z
" clip-path="url(#p75d623ac2a)" style="fill: #bebebe; stroke: #00ff00; stroke-width: 3"/>
    <path d="M 38.801201 81.353593 
C 40.392419 81.353593 41.91868 80.721395 43.043841 79.596233 
C 44.169003 78.471072 44.801201 76.944811 44.801201 75.353593 
C 44.801201 73.762374 44.169003 72.236113 43.043841 71.110952 
C 41.91868 69.98579 40.392419 69.353593 38.801201 69.353593 
C 37.209982 69.353593 35.683721 69.98579 34.55856 71.110952 
C 33.433399 72.236113 32.801201 73.762374 32.801201 75.353593 
C 32.801201 76.944811 33.433399 78.471072 34.55856 79.596233 
C 35.683721 80.721395 37.209982 81.353593 38.801201 81.353593 
z
" clip-path="url(#p75d623ac2a)" style="fill: #bebebe; stroke: #00ff00; stroke-width: 3"/>
    <path d="M 67.773892 94.6537 
C 69.365111 94.6537 70.891371 94.021502 72.016533 92.89634 
C 73.141694 91.771179 73.773892 90.244918 73.773892 88.6537 
C 73.773892 87.062481 73.141694 85.536221 72.016533 84.411059 
C 70.891371 83.285898 69.365111 82.6537 67.773892 82.6537 
C 66.182673 82.6537 64.656413 83.285898 63.531251 84.411059 
C 62.40609 85.536221 61.773892 87.062481 61.773892 88.6537 
C 61.773892 90.244918 62.40609 91.771179 63.531251 92.89634 
C 64.656413 94.021502 66.182673 94.6537 67.773892 94.6537 
z
" clip-path="url(#p75d623ac2a)" style="fill: #bebebe; stroke: #00ff00; stroke-width: 3"/>
    <path d="M 103.586108 94.6537 
C 105.177327 94.6537 106.703587 94.021502 107.828749 92.89634 
C 108.95391 91.771179 109.586108 90.244918 109.586108 88.6537 
C 109.586108 87.062481 108.95391 85.536221 107.828749 84.411059 
C 106.703587 83.285898 105.177327 82.6537 103.586108 82.6537 
C 101.994889 82.6537 100.468629 83.285898 99.343467 84.411059 
C 98.218306 85.536221 97.586108 87.062481 97.586108 88.6537 
C 97.586108 90.244918 98.218306 91.771179 99.343467 92.89634 
C 100.468629 94.021502 101.994889 94.6537 103.586108 94.6537 
z
" clip-path="url(#p75d623ac2a)" style="fill: #bebebe; stroke: #00ff00; stroke-width: 3"/>
    <path d="M 132.558799 76.853593 
C 132.956604 76.853593 133.338169 76.695543 133.61946 76.414253 
C 133.90075 76.132962 134.058799 75.751397 134.058799 75.353593 
C 134.058799 74.955788 133.90075 74.574223 133.61946 74.292932 
C 133.338169 74.011642 132.956604 73.853593 132.558799 73.853593 
C 132.160995 73.853593 131.77943 74.011642 131.498139 74.292932 
C 131.216849 74.574223 131.058799 74.955788 131.058799 75.353593 
C 131.058799 75.751397 131.216849 76.132962 131.498139 76.414253 
C 131.77943 76.695543 132.160995 76.853593 132.558799 76.853593 
z
" clip-path="url(#p75d623ac2a)" style="fill: #bebebe; stroke: #00ff00; stroke-width: 3"/>
   </g>
   <g id="matplotlib.axis_1"/>
   <g id="matplotlib.axis_2"/>
  </g>
  <g id="axes_2">
   <g id="patch_3">
    <path d="M 12.852 197.28 
L 158.508 197.28 
L 158.508 109.44 
L 12.852 109.44 
z
" style="fill: #ffffff"/>
   </g>
   <g id="EdgeCollection_2">
    <path d="M 148.821535 155.473567 
C 170.355578 166.093282 170.355578 138.853852 148.821535 149.473567 
C 170.355578 138.853852 170.355578 166.093282 148.821535 155.473567 
" clip-path="url(#p0212a22892)" style="fill: #020202"/>
    <path d="M 140.881463 147.137754 
L 133.244779 132.287495 
" clip-path="url(#p0212a22892)" style="fill: #020202"/>
    <path d="M 139.097938 148.536278 
L 104.717969 118.637757 
" clip-path="url(#p0212a22892)" style="fill: #020202; stroke: #020202; stroke-width: 1.485"/>
    <path d="M 138.172489 149.97038 
L 69.137116 118.279231 
" clip-path="url(#p0212a22892)" style="fill: #020202"/>
    <path d="M 137.747961 151.266954 
L 40.270556 131.255195 
" clip-path="url(#p0212a22892)" style="fill: #020202; stroke: #020202; stroke-width: 1.485"/>
    <path d="M 137.625383 152.473567 
L 33.734617 152.473567 
" clip-path="url(#p0212a22892)" style="fill: #020202"/>
    <path d="M 137.747961 153.680181 
L 44.678622 172.786979 
" clip-path="url(#p0212a22892)" style="fill: #020202; stroke: #020202; stroke-width: 1.485"/>
    <path d="M 138.172489 154.976755 
L 73.226786 184.790512 
" clip-path="url(#p0212a22892)" style="fill: #020202"/>
    <path d="M 139.097938 156.410857 
L 108.113552 183.35641 
" clip-path="url(#p0212a22892)" style="fill: #020202; stroke: #020202; stroke-width: 1.485"/>
    <path d="M 140.881463 157.809381 
L 133.244779 172.659639 
" clip-path="url(#p0212a22892)" style="fill: #020202"/>
    <path d="M 133.998667 130.533088 
C 160.87659 121.048859 141.190522 102.222142 132.91461 129.496353 
C 141.190522 102.222142 160.87659 121.048859 133.998667 130.533088 
" clip-path="url(#p0212a22892)" style="fill: #020202"/>
    <path d="M 131.195576 130.327745 
L 104.949331 118.279231 
" clip-path="url(#p0212a22892)" style="fill: #020202"/>
    <path d="M 131.089444 130.651888 
L 69.243247 117.955088 
" clip-path="url(#p0212a22892)" style="fill: #020202; stroke: #020202; stroke-width: 1.485"/>
    <path d="M 131.058799 130.953542 
L 40.301201 130.953542 
" clip-path="url(#p0212a22892)" style="fill: #020202"/>
    <path d="M 131.089444 131.255195 
L 33.612039 151.266954 
" clip-path="url(#p0212a22892)" style="fill: #020202"/>
    <path d="M 131.195576 131.579339 
L 44.254095 171.490405 
" clip-path="url(#p0212a22892)" style="fill: #020202; stroke: #020202; stroke-width: 1.485"/>
    <path d="M 131.426938 131.937864 
L 72.301336 183.35641 
" clip-path="url(#p0212a22892)" style="fill: #020202; stroke: #020202; stroke-width: 1.485"/>
    <path d="M 131.872819 132.287495 
L 106.330028 181.957886 
" clip-path="url(#p0212a22892)" style="fill: #020202"/>
    <path d="M 132.558799 132.453542 
L 132.558799 172.493593 
" clip-path="url(#p0212a22892)" style="fill: #020202"/>
    <path d="M 104.596186 116.544497 
C 122.599242 94.447816 95.988009 88.631566 103.130779 116.224212 
C 95.988009 88.631566 122.599242 94.447816 104.596186 116.544497 
" clip-path="url(#p0212a22892)" style="fill: #020202"/>
    <path d="M 102.086108 117.653435 
L 69.273892 117.653435 
" clip-path="url(#p0212a22892)" style="fill: #020202; stroke: #020202; stroke-width: 1.485"/>
    <path d="M 102.116753 117.955088 
L 40.270556 130.651888 
" clip-path="url(#p0212a22892)" style="fill: #020202"/>
    <path d="M 102.222884 118.279231 
L 33.187511 149.97038 
" clip-path="url(#p0212a22892)" style="fill: #020202"/>
    <path d="M 102.454247 118.637757 
L 43.328645 170.056303 
" clip-path="url(#p0212a22892)" style="fill: #020202"/>
    <path d="M 102.900128 118.987388 
L 70.517812 181.957886 
" clip-path="url(#p0212a22892)" style="fill: #020202"/>
    <path d="M 103.586108 119.153435 
L 103.586108 181.2937 
" clip-path="url(#p0212a22892)" style="fill: #020202"/>
    <path d="M 104.272088 118.987388 
L 131.872819 172.659639 
" clip-path="url(#p0212a22892)" style="fill: #020202; stroke: #020202; stroke-width: 1.485"/>
    <path d="M 68.229221 116.224212 
C 75.371991 88.631566 48.760758 94.447816 66.763814 116.544497 
C 48.760758 94.447816 75.371991 88.631566 68.229221 116.224212 
" clip-path="url(#p0212a22892)" style="fill: #020202"/>
    <path d="M 66.410669 118.279231 
L 40.164424 130.327745 
" clip-path="url(#p0212a22892)" style="fill: #020202"/>
    <path d="M 66.642031 118.637757 
L 32.262062 148.536278 
" clip-path="url(#p0212a22892)" style="fill: #020202"/>
    <path d="M 67.087912 118.987388 
L 41.54512 168.657779 
" clip-path="url(#p0212a22892)" style="fill: #020202"/>
    <path d="M 67.773892 119.153435 
L 67.773892 181.2937 
" clip-path="url(#p0212a22892)" style="fill: #020202"/>
    <path d="M 68.459872 118.987388 
L 100.842188 181.957886 
" clip-path="url(#p0212a22892)" style="fill: #020202"/>
    <path d="M 68.905753 118.637757 
L 131.426938 173.00927 
" clip-path="url(#p0212a22892)" style="fill: #020202"/>
    <path d="M 38.44539 129.496353 
C 30.169478 102.222142 10.48341 121.048859 37.361333 130.533088 
C 10.48341 121.048859 30.169478 102.222142 38.44539 129.496353 
" clip-path="url(#p0212a22892)" style="fill: #020202"/>
    <path d="M 38.115221 132.287495 
L 30.478537 147.137754 
" clip-path="url(#p0212a22892)" style="fill: #020202; stroke: #020202; stroke-width: 1.485"/>
    <path d="M 38.801201 132.453542 
L 38.801201 167.993593 
" clip-path="url(#p0212a22892)" style="fill: #020202"/>
    <path d="M 39.487181 132.287495 
L 65.029972 181.957886 
" clip-path="url(#p0212a22892)" style="fill: #020202"/>
    <path d="M 39.933062 131.937864 
L 99.058664 183.35641 
" clip-path="url(#p0212a22892)" style="fill: #020202; stroke: #020202; stroke-width: 1.485"/>
    <path d="M 40.164424 131.579339 
L 131.195576 173.367796 
" clip-path="url(#p0212a22892)" style="fill: #020202"/>
    <path d="M 22.538465 149.473567 
C 1.004422 138.853852 1.004422 166.093282 22.538465 155.473567 
C 1.004422 166.093282 1.004422 138.853852 22.538465 149.473567 
" clip-path="url(#p0212a22892)" style="fill: #020202"/>
    <path d="M 30.478537 157.809381 
L 36.057281 168.657779 
" clip-path="url(#p0212a22892)" style="fill: #020202; stroke: #020202; stroke-width: 1.485"/>
    <path d="M 32.262062 156.410857 
L 63.246448 183.35641 
" clip-path="url(#p0212a22892)" style="fill: #020202; stroke: #020202; stroke-width: 1.485"/>
    <path d="M 33.187511 154.976755 
L 98.133214 184.790512 
" clip-path="url(#p0212a22892)" style="fill: #020202; stroke: #020202; stroke-width: 1.485"/>
    <path d="M 33.612039 153.680181 
L 131.089444 173.691939 
" clip-path="url(#p0212a22892)" style="fill: #020202; stroke: #020202; stroke-width: 1.485"/>
    <path d="M 33.04173 175.675407 
C 10.48341 183.898275 30.169478 202.724993 37.377959 179.822347 
C 30.169478 202.724993 10.48341 183.898275 33.04173 175.675407 
" clip-path="url(#p0212a22892)" style="fill: #020202"/>
    <path d="M 44.254095 176.49678 
L 62.320998 184.790512 
" clip-path="url(#p0212a22892)" style="fill: #020202; stroke: #020202; stroke-width: 1.485"/>
    <path d="M 44.678622 175.200206 
L 97.708686 186.087086 
" clip-path="url(#p0212a22892)" style="fill: #020202; stroke: #020202; stroke-width: 1.485"/>
    <path d="M 44.801201 173.993593 
L 131.058799 173.993593 
" clip-path="url(#p0212a22892)" style="fill: #020202"/>
    <path d="M 63.733579 191.729449 
C 48.760758 210.499318 75.371991 216.315569 69.595207 193.010588 
C 75.371991 216.315569 48.760758 210.499318 63.733579 191.729449 
" clip-path="url(#p0212a22892)" style="fill: #020202"/>
    <path d="M 73.773892 187.2937 
L 97.586108 187.2937 
" clip-path="url(#p0212a22892)" style="fill: #020202; stroke: #020202; stroke-width: 1.485"/>
    <path d="M 73.651314 186.087086 
L 131.089444 174.295246 
" clip-path="url(#p0212a22892)" style="fill: #020202; stroke: #020202; stroke-width: 1.485"/>
    <path d="M 101.764793 193.010588 
C 95.988009 216.315569 122.599242 210.499318 107.626421 191.729449 
C 122.599242 210.499318 95.988009 216.315569 101.764793 193.010588 
" clip-path="url(#p0212a22892)" style="fill: #020202"/>
    <path d="M 109.039002 184.790512 
L 131.195576 174.619389 
" clip-path="url(#p0212a22892)" style="fill: #020202"/>
    <path d="M 132.91461 175.450781 
C 141.190522 202.724993 160.87659 183.898275 133.998667 174.414046 
C 160.87659 183.898275 141.190522 202.724993 132.91461 175.450781 
" clip-path="url(#p0212a22892)" style="fill: #020202"/>
   </g>
   <g id="VertexCollection_2">
    <path d="M 143.625383 158.473567 
C 145.216601 158.473567 146.742862 157.841369 147.868023 156.716208 
C 148.993185 155.591046 149.625383 154.064786 149.625383 152.473567 
C 149.625383 150.882349 148.993185 149.356088 147.868023 148.230926 
C 146.742862 147.105765 145.216601 146.473567 143.625383 146.473567 
C 142.034164 146.473567 140.507903 147.105765 139.382742 148.230926 
C 138.257581 149.356088 137.625383 150.882349 137.625383 152.473567 
C 137.625383 154.064786 138.257581 155.591046 139.382742 156.716208 
C 140.507903 157.841369 142.034164 158.473567 143.625383 158.473567 
z
" clip-path="url(#p0212a22892)" style="fill: #bebebe; stroke: #00ff00; stroke-width: 3"/>
    <path d="M 132.558799 132.453542 
C 132.956604 132.453542 133.338169 132.295492 133.61946 132.014202 
C 133.90075 131.732912 134.058799 131.351346 134.058799 130.953542 
C 134.058799 130.555737 133.90075 130.174172 133.61946 129.892882 
C 133.338169 129.611591 132.956604 129.453542 132.558799 129.453542 
C 132.160995 129.453542 131.77943 129.611591 131.498139 129.892882 
C 131.216849 130.174172 131.058799 130.555737 131.058799 130.953542 
C 131.058799 131.351346 131.216849 131.732912 131.498139 132.014202 
C 131.77943 132.295492 132.160995 132.453542 132.558799 132.453542 
z
" clip-path="url(#p0212a22892)" style="fill: #bebebe; stroke: #00ff00; stroke-width: 3"/>
    <path d="M 103.586108 119.153435 
C 103.983913 119.153435 104.365478 118.995385 104.646768 118.714095 
C 104.928059 118.432804 105.086108 118.051239 105.086108 117.653435 
C 105.086108 117.25563 104.928059 116.874065 104.646768 116.592774 
C 104.365478 116.311484 103.983913 116.153435 103.586108 116.153435 
C 103.188303 116.153435 102.806738 116.311484 102.525448 116.592774 
C 102.244157 116.874065 102.086108 117.25563 102.086108 117.653435 
C 102.086108 118.051239 102.244157 118.432804 102.525448 118.714095 
C 102.806738 118.995385 103.188303 119.153435 103.586108 119.153435 
z
" clip-path="url(#p0212a22892)" style="fill: #bebebe; stroke: #ff0000; stroke-width: 3"/>
    <path d="M 67.773892 119.153435 
C 68.171697 119.153435 68.553262 118.995385 68.834552 118.714095 
C 69.115843 118.432804 69.273892 118.051239 69.273892 117.653435 
C 69.273892 117.25563 69.115843 116.874065 68.834552 116.592774 
C 68.553262 116.311484 68.171697 116.153435 67.773892 116.153435 
C 67.376087 116.153435 66.994522 116.311484 66.713232 116.592774 
C 66.431941 116.874065 66.273892 117.25563 66.273892 117.653435 
C 66.273892 118.051239 66.431941 118.432804 66.713232 118.714095 
C 66.994522 118.995385 67.376087 119.153435 67.773892 119.153435 
z
" clip-path="url(#p0212a22892)" style="fill: #bebebe; stroke: #ff0000; stroke-width: 3"/>
    <path d="M 38.801201 132.453542 
C 39.199005 132.453542 39.58057 132.295492 39.861861 132.014202 
C 40.143151 131.732912 40.301201 131.351346 40.301201 130.953542 
C 40.301201 130.555737 40.143151 130.174172 39.861861 129.892882 
C 39.58057 129.611591 39.199005 129.453542 38.801201 129.453542 
C 38.403396 129.453542 38.021831 129.611591 37.74054 129.892882 
C 37.45925 130.174172 37.301201 130.555737 37.301201 130.953542 
C 37.301201 131.351346 37.45925 131.732912 37.74054 132.014202 
C 38.021831 132.295492 38.403396 132.453542 38.801201 132.453542 
z
" clip-path="url(#p0212a22892)" style="fill: #bebebe; stroke: #00ff00; stroke-width: 3"/>
    <path d="M 27.734617 158.473567 
C 29.325836 158.473567 30.852097 157.841369 31.977258 156.716208 
C 33.102419 155.591046 33.734617 154.064786 33.734617 152.473567 
C 33.734617 150.882349 33.102419 149.356088 31.977258 148.230926 
C 30.852097 147.105765 29.325836 146.473567 27.734617 146.473567 
C 26.143399 146.473567 24.617138 147.105765 23.491977 148.230926 
C 22.366815 149.356088 21.734617 150.882349 21.734617 152.473567 
C 21.734617 154.064786 22.366815 155.591046 23.491977 156.716208 
C 24.617138 157.841369 26.143399 158.473567 27.734617 158.473567 
z
" clip-path="url(#p0212a22892)" style="fill: #bebebe; stroke: #00ff00; stroke-width: 3"/>
    <path d="M 38.801201 179.993593 
C 40.392419 179.993593 41.91868 179.361395 43.043841 178.236233 
C 44.169003 177.111072 44.801201 175.584811 44.801201 173.993593 
C 44.801201 172.402374 44.169003 170.876113 43.043841 169.750952 
C 41.91868 168.62579 40.392419 167.993593 38.801201 167.993593 
C 37.209982 167.993593 35.683721 168.62579 34.55856 169.750952 
C 33.433399 170.876113 32.801201 172.402374 32.801201 173.993593 
C 32.801201 175.584811 33.433399 177.111072 34.55856 178.236233 
C 35.683721 179.361395 37.209982 179.993593 38.801201 179.993593 
z
" clip-path="url(#p0212a22892)" style="fill: #bebebe; stroke: #00ff00; stroke-width: 3"/>
    <path d="M 67.773892 193.2937 
C 69.365111 193.2937 70.891371 192.661502 72.016533 191.53634 
C 73.141694 190.411179 73.773892 188.884918 73.773892 187.2937 
C 73.773892 185.702481 73.141694 184.176221 72.016533 183.051059 
C 70.891371 181.925898 69.365111 181.2937 67.773892 181.2937 
C 66.182673 181.2937 64.656413 181.925898 63.531251 183.051059 
C 62.40609 184.176221 61.773892 185.702481 61.773892 187.2937 
C 61.773892 188.884918 62.40609 190.411179 63.531251 191.53634 
C 64.656413 192.661502 66.182673 193.2937 67.773892 193.2937 
z
" clip-path="url(#p0212a22892)" style="fill: #bebebe; stroke: #00ff00; stroke-width: 3"/>
    <path d="M 103.586108 193.2937 
C 105.177327 193.2937 106.703587 192.661502 107.828749 191.53634 
C 108.95391 190.411179 109.586108 188.884918 109.586108 187.2937 
C 109.586108 185.702481 108.95391 184.176221 107.828749 183.051059 
C 106.703587 181.925898 105.177327 181.2937 103.586108 181.2937 
C 101.994889 181.2937 100.468629 181.925898 99.343467 183.051059 
C 98.218306 184.176221 97.586108 185.702481 97.586108 187.2937 
C 97.586108 188.884918 98.218306 190.411179 99.343467 191.53634 
C 100.468629 192.661502 101.994889 193.2937 103.586108 193.2937 
z
" clip-path="url(#p0212a22892)" style="fill: #bebebe; stroke: #00ff00; stroke-width: 3"/>
    <path d="M 132.558799 175.493593 
C 132.956604 175.493593 133.338169 175.335543 133.61946 175.054253 
C 133.90075 174.772962 134.058799 174.391397 134.058799 173.993593 
C 134.058799 173.595788 133.90075 173.214223 133.61946 172.932932 
C 133.338169 172.651642 132.956604 172.493593 132.558799 172.493593 
C 132.160995 172.493593 131.77943 172.651642 131.498139 172.932932 
C 131.216849 173.214223 131.058799 173.595788 131.058799 173.993593 
C 131.058799 174.391397 131.216849 174.772962 131.498139 175.054253 
C 131.77943 175.335543 132.160995 175.493593 132.558799 175.493593 
z
" clip-path="url(#p0212a22892)" style="fill: #bebebe; stroke: #00ff00; stroke-width: 3"/>
   </g>
   <g id="matplotlib.axis_3"/>
   <g id="matplotlib.axis_4"/>
  </g>
  <g id="axes_3">
   <g id="patch_4">
    <path d="M 12.852 295.92 
L 158.508 295.92 
L 158.508 208.08 
L 12.852 208.08 
z
" style="fill: #ffffff"/>
   </g>
   <g id="EdgeCollection_3">
    <path d="M 148.821535 254.113567 
C 170.355578 264.733282 170.355578 237.493852 148.821535 248.113567 
C 170.355578 237.493852 170.355578 264.733282 148.821535 254.113567 
" clip-path="url(#p696cefb83e)" style="fill: #020202"/>
    <path d="M 140.881463 245.777754 
L 135.302719 234.929355 
" clip-path="url(#p696cefb83e)" style="fill: #020202"/>
    <path d="M 139.097938 247.176278 
L 104.717969 217.277757 
" clip-path="url(#p696cefb83e)" style="fill: #020202; stroke: #020202; stroke-width: 1.485"/>
    <path d="M 138.172489 248.61038 
L 69.137116 216.919231 
" clip-path="url(#p696cefb83e)" style="fill: #020202"/>
    <path d="M 137.747961 249.906954 
L 40.270556 229.895195 
" clip-path="url(#p696cefb83e)" style="fill: #020202; stroke: #020202; stroke-width: 1.485"/>
    <path d="M 137.625383 251.113567 
L 33.734617 251.113567 
" clip-path="url(#p696cefb83e)" style="fill: #020202"/>
    <path d="M 137.747961 252.320181 
L 44.678622 271.426979 
" clip-path="url(#p696cefb83e)" style="fill: #020202; stroke: #020202; stroke-width: 1.485"/>
    <path d="M 138.172489 253.616755 
L 73.226786 283.430512 
" clip-path="url(#p696cefb83e)" style="fill: #020202"/>
    <path d="M 139.097938 255.050857 
L 108.113552 281.99641 
" clip-path="url(#p696cefb83e)" style="fill: #020202; stroke: #020202; stroke-width: 1.485"/>
    <path d="M 140.881463 256.449381 
L 133.244779 271.299639 
" clip-path="url(#p696cefb83e)" style="fill: #020202"/>
    <path d="M 138.31827 227.911728 
C 160.87659 219.688859 141.190522 200.862142 133.982041 223.764787 
C 141.190522 200.862142 160.87659 219.688859 138.31827 227.911728 
" clip-path="url(#p696cefb83e)" style="fill: #020202"/>
    <path d="M 127.105905 227.090354 
L 104.949331 216.919231 
" clip-path="url(#p696cefb83e)" style="fill: #020202"/>
    <path d="M 126.681378 228.386928 
L 69.243247 216.595088 
" clip-path="url(#p696cefb83e)" style="fill: #020202; stroke: #020202; stroke-width: 1.485"/>
    <path d="M 126.558799 229.593542 
L 40.301201 229.593542 
" clip-path="url(#p696cefb83e)" style="fill: #020202"/>
    <path d="M 126.681378 230.800155 
L 33.612039 249.906954 
" clip-path="url(#p696cefb83e)" style="fill: #020202"/>
    <path d="M 127.105905 232.096729 
L 44.254095 270.130405 
" clip-path="url(#p696cefb83e)" style="fill: #020202; stroke: #020202; stroke-width: 1.485"/>
    <path d="M 128.031355 233.530831 
L 72.301336 281.99641 
" clip-path="url(#p696cefb83e)" style="fill: #020202; stroke: #020202; stroke-width: 1.485"/>
    <path d="M 129.81488 234.929355 
L 106.330028 280.597886 
" clip-path="url(#p696cefb83e)" style="fill: #020202; stroke: #020202; stroke-width: 1.485"/>
    <path d="M 132.558799 235.593542 
L 132.558799 271.133593 
" clip-path="url(#p696cefb83e)" style="fill: #020202"/>
    <path d="M 104.596186 215.184497 
C 122.599242 193.087816 95.988009 187.271566 103.130779 214.864212 
C 95.988009 187.271566 122.599242 193.087816 104.596186 215.184497 
" clip-path="url(#p696cefb83e)" style="fill: #020202"/>
    <path d="M 102.086108 216.293435 
L 69.273892 216.293435 
" clip-path="url(#p696cefb83e)" style="fill: #020202; stroke: #020202; stroke-width: 1.485"/>
    <path d="M 102.116753 216.595088 
L 40.270556 229.291888 
" clip-path="url(#p696cefb83e)" style="fill: #020202"/>
    <path d="M 102.222884 216.919231 
L 33.187511 248.61038 
" clip-path="url(#p696cefb83e)" style="fill: #020202"/>
    <path d="M 102.454247 217.277757 
L 43.328645 268.696303 
" clip-path="url(#p696cefb83e)" style="fill: #020202"/>
    <path d="M 102.900128 217.627388 
L 70.517812 280.597886 
" clip-path="url(#p696cefb83e)" style="fill: #020202"/>
    <path d="M 103.586108 217.793435 
L 103.586108 279.9337 
" clip-path="url(#p696cefb83e)" style="fill: #020202"/>
    <path d="M 104.272088 217.627388 
L 131.872819 271.299639 
" clip-path="url(#p696cefb83e)" style="fill: #020202"/>
    <path d="M 68.229221 214.864212 
C 75.371991 187.271566 48.760758 193.087816 66.763814 215.184497 
C 48.760758 193.087816 75.371991 187.271566 68.229221 214.864212 
" clip-path="url(#p696cefb83e)" style="fill: #020202"/>
    <path d="M 66.410669 216.919231 
L 40.164424 228.967745 
" clip-path="url(#p696cefb83e)" style="fill: #020202"/>
    <path d="M 66.642031 217.277757 
L 32.262062 247.176278 
" clip-path="url(#p696cefb83e)" style="fill: #020202"/>
    <path d="M 67.087912 217.627388 
L 41.54512 267.297779 
" clip-path="url(#p696cefb83e)" style="fill: #020202"/>
    <path d="M 67.773892 217.793435 
L 67.773892 279.9337 
" clip-path="url(#p696cefb83e)" style="fill: #020202"/>
    <path d="M 68.459872 217.627388 
L 100.842188 280.597886 
" clip-path="url(#p696cefb83e)" style="fill: #020202"/>
    <path d="M 68.905753 217.277757 
L 131.426938 271.64927 
" clip-path="url(#p696cefb83e)" style="fill: #020202"/>
    <path d="M 38.44539 228.136353 
C 30.169478 200.862142 10.48341 219.688859 37.361333 229.173088 
C 10.48341 219.688859 30.169478 200.862142 38.44539 228.136353 
" clip-path="url(#p696cefb83e)" style="fill: #020202"/>
    <path d="M 38.115221 230.927495 
L 30.478537 245.777754 
" clip-path="url(#p696cefb83e)" style="fill: #020202; stroke: #020202; stroke-width: 1.485"/>
    <path d="M 38.801201 231.093542 
L 38.801201 266.633593 
" clip-path="url(#p696cefb83e)" style="fill: #020202"/>
    <path d="M 39.487181 230.927495 
L 65.029972 280.597886 
" clip-path="url(#p696cefb83e)" style="fill: #020202"/>
    <path d="M 39.933062 230.577864 
L 99.058664 281.99641 
" clip-path="url(#p696cefb83e)" style="fill: #020202"/>
    <path d="M 40.164424 230.219339 
L 131.195576 272.007796 
" clip-path="url(#p696cefb83e)" style="fill: #020202; stroke: #020202; stroke-width: 1.485"/>
    <path d="M 22.538465 248.113567 
C 1.004422 237.493852 1.004422 264.733282 22.538465 254.113567 
C 1.004422 264.733282 1.004422 237.493852 22.538465 248.113567 
" clip-path="url(#p696cefb83e)" style="fill: #020202"/>
    <path d="M 30.478537 256.449381 
L 36.057281 267.297779 
" clip-path="url(#p696cefb83e)" style="fill: #020202; stroke: #020202; stroke-width: 1.485"/>
    <path d="M 32.262062 255.050857 
L 63.246448 281.99641 
" clip-path="url(#p696cefb83e)" style="fill: #020202; stroke: #020202; stroke-width: 1.485"/>
    <path d="M 33.187511 253.616755 
L 98.133214 283.430512 
" clip-path="url(#p696cefb83e)" style="fill: #020202; stroke: #020202; stroke-width: 1.485"/>
    <path d="M 33.612039 252.320181 
L 131.089444 272.331939 
" clip-path="url(#p696cefb83e)" style="fill: #020202; stroke: #020202; stroke-width: 1.485"/>
    <path d="M 33.04173 274.315407 
C 10.48341 282.538275 30.169478 301.364993 37.377959 278.462347 
C 30.169478 301.364993 10.48341 282.538275 33.04173 274.315407 
" clip-path="url(#p696cefb83e)" style="fill: #020202"/>
    <path d="M 44.254095 275.13678 
L 62.320998 283.430512 
" clip-path="url(#p696cefb83e)" style="fill: #020202; stroke: #020202; stroke-width: 1.485"/>
    <path d="M 44.678622 273.840206 
L 97.708686 284.727086 
" clip-path="url(#p696cefb83e)" style="fill: #020202; stroke: #020202; stroke-width: 1.485"/>
    <path d="M 44.801201 272.633593 
L 131.058799 272.633593 
" clip-path="url(#p696cefb83e)" style="fill: #020202"/>
    <path d="M 63.733579 290.369449 
C 48.760758 309.139318 75.371991 314.955569 69.595207 291.650588 
C 75.371991 314.955569 48.760758 309.139318 63.733579 290.369449 
" clip-path="url(#p696cefb83e)" style="fill: #020202"/>
    <path d="M 73.773892 285.9337 
L 97.586108 285.9337 
" clip-path="url(#p696cefb83e)" style="fill: #020202; stroke: #020202; stroke-width: 1.485"/>
    <path d="M 73.651314 284.727086 
L 131.089444 272.935246 
" clip-path="url(#p696cefb83e)" style="fill: #020202; stroke: #020202; stroke-width: 1.485"/>
    <path d="M 101.764793 291.650588 
C 95.988009 314.955569 122.599242 309.139318 107.626421 290.369449 
C 122.599242 309.139318 95.988009 314.955569 101.764793 291.650588 
" clip-path="url(#p696cefb83e)" style="fill: #020202"/>
    <path d="M 109.039002 283.430512 
L 131.195576 273.259389 
" clip-path="url(#p696cefb83e)" style="fill: #020202"/>
    <path d="M 132.91461 274.090781 
C 141.190522 301.364993 160.87659 282.538275 133.998667 273.054046 
C 160.87659 282.538275 141.190522 301.364993 132.91461 274.090781 
" clip-path="url(#p696cefb83e)" style="fill: #020202"/>
   </g>
   <g id="VertexCollection_3">
    <path d="M 143.625383 257.113567 
C 145.216601 257.113567 146.742862 256.481369 147.868023 255.356208 
C 148.993185 254.231046 149.625383 252.704786 149.625383 251.113567 
C 149.625383 249.522349 148.993185 247.996088 147.868023 246.870926 
C 146.742862 245.745765 145.216601 245.113567 143.625383 245.113567 
C 142.034164 245.113567 140.507903 245.745765 139.382742 246.870926 
C 138.257581 247.996088 137.625383 249.522349 137.625383 251.113567 
C 137.625383 252.704786 138.257581 254.231046 139.382742 255.356208 
C 140.507903 256.481369 142.034164 257.113567 143.625383 257.113567 
z
" clip-path="url(#p696cefb83e)" style="fill: #bebebe; stroke: #00ff00; stroke-width: 3"/>
    <path d="M 132.558799 235.593542 
C 134.150018 235.593542 135.676279 234.961344 136.80144 233.836182 
C 137.926601 232.711021 138.558799 231.18476 138.558799 229.593542 
C 138.558799 228.002323 137.926601 226.476062 136.80144 225.350901 
C 135.676279 224.22574 134.150018 223.593542 132.558799 223.593542 
C 130.967581 223.593542 129.44132 224.22574 128.316159 225.350901 
C 127.190997 226.476062 126.558799 228.002323 126.558799 229.593542 
C 126.558799 231.18476 127.190997 232.711021 128.316159 233.836182 
C 129.44132 234.961344 130.967581 235.593542 132.558799 235.593542 
z
" clip-path="url(#p696cefb83e)" style="fill: #bebebe; stroke: #00ff00; stroke-width: 3"/>
    <path d="M 103.586108 217.793435 
C 103.983913 217.793435 104.365478 217.635385 104.646768 217.354095 
C 104.928059 217.072804 105.086108 216.691239 105.086108 216.293435 
C 105.086108 215.89563 104.928059 215.514065 104.646768 215.232774 
C 104.365478 214.951484 103.983913 214.793435 103.586108 214.793435 
C 103.188303 214.793435 102.806738 214.951484 102.525448 215.232774 
C 102.244157 215.514065 102.086108 215.89563 102.086108 216.293435 
C 102.086108 216.691239 102.244157 217.072804 102.525448 217.354095 
C 102.806738 217.635385 103.188303 217.793435 103.586108 217.793435 
z
" clip-path="url(#p696cefb83e)" style="fill: #bebebe; stroke: #ff0000; stroke-width: 3"/>
    <path d="M 67.773892 217.793435 
C 68.171697 217.793435 68.553262 217.635385 68.834552 217.354095 
C 69.115843 217.072804 69.273892 216.691239 69.273892 216.293435 
C 69.273892 215.89563 69.115843 215.514065 68.834552 215.232774 
C 68.553262 214.951484 68.171697 214.793435 67.773892 214.793435 
C 67.376087 214.793435 66.994522 214.951484 66.713232 215.232774 
C 66.431941 215.514065 66.273892 215.89563 66.273892 216.293435 
C 66.273892 216.691239 66.431941 217.072804 66.713232 217.354095 
C 66.994522 217.635385 67.376087 217.793435 67.773892 217.793435 
z
" clip-path="url(#p696cefb83e)" style="fill: #bebebe; stroke: #ff0000; stroke-width: 3"/>
    <path d="M 38.801201 231.093542 
C 39.199005 231.093542 39.58057 230.935492 39.861861 230.654202 
C 40.143151 230.372912 40.301201 229.991346 40.301201 229.593542 
C 40.301201 229.195737 40.143151 228.814172 39.861861 228.532882 
C 39.58057 228.251591 39.199005 228.093542 38.801201 228.093542 
C 38.403396 228.093542 38.021831 228.251591 37.74054 228.532882 
C 37.45925 228.814172 37.301201 229.195737 37.301201 229.593542 
C 37.301201 229.991346 37.45925 230.372912 37.74054 230.654202 
C 38.021831 230.935492 38.403396 231.093542 38.801201 231.093542 
z
" clip-path="url(#p696cefb83e)" style="fill: #bebebe; stroke: #00ff00; stroke-width: 3"/>
    <path d="M 27.734617 257.113567 
C 29.325836 257.113567 30.852097 256.481369 31.977258 255.356208 
C 33.102419 254.231046 33.734617 252.704786 33.734617 251.113567 
C 33.734617 249.522349 33.102419 247.996088 31.977258 246.870926 
C 30.852097 245.745765 29.325836 245.113567 27.734617 245.113567 
C 26.143399 245.113567 24.617138 245.745765 23.491977 246.870926 
C 22.366815 247.996088 21.734617 249.522349 21.734617 251.113567 
C 21.734617 252.704786 22.366815 254.231046 23.491977 255.356208 
C 24.617138 256.481369 26.143399 257.113567 27.734617 257.113567 
z
" clip-path="url(#p696cefb83e)" style="fill: #bebebe; stroke: #00ff00; stroke-width: 3"/>
    <path d="M 38.801201 278.633593 
C 40.392419 278.633593 41.91868 278.001395 43.043841 276.876233 
C 44.169003 275.751072 44.801201 274.224811 44.801201 272.633593 
C 44.801201 271.042374 44.169003 269.516113 43.043841 268.390952 
C 41.91868 267.26579 40.392419 266.633593 38.801201 266.633593 
C 37.209982 266.633593 35.683721 267.26579 34.55856 268.390952 
C 33.433399 269.516113 32.801201 271.042374 32.801201 272.633593 
C 32.801201 274.224811 33.433399 275.751072 34.55856 276.876233 
C 35.683721 278.001395 37.209982 278.633593 38.801201 278.633593 
z
" clip-path="url(#p696cefb83e)" style="fill: #bebebe; stroke: #00ff00; stroke-width: 3"/>
    <path d="M 67.773892 291.9337 
C 69.365111 291.9337 70.891371 291.301502 72.016533 290.17634 
C 73.141694 289.051179 73.773892 287.524918 73.773892 285.9337 
C 73.773892 284.342481 73.141694 282.816221 72.016533 281.691059 
C 70.891371 280.565898 69.365111 279.9337 67.773892 279.9337 
C 66.182673 279.9337 64.656413 280.565898 63.531251 281.691059 
C 62.40609 282.816221 61.773892 284.342481 61.773892 285.9337 
C 61.773892 287.524918 62.40609 289.051179 63.531251 290.17634 
C 64.656413 291.301502 66.182673 291.9337 67.773892 291.9337 
z
" clip-path="url(#p696cefb83e)" style="fill: #bebebe; stroke: #00ff00; stroke-width: 3"/>
    <path d="M 103.586108 291.9337 
C 105.177327 291.9337 106.703587 291.301502 107.828749 290.17634 
C 108.95391 289.051179 109.586108 287.524918 109.586108 285.9337 
C 109.586108 284.342481 108.95391 282.816221 107.828749 281.691059 
C 106.703587 280.565898 105.177327 279.9337 103.586108 279.9337 
C 101.994889 279.9337 100.468629 280.565898 99.343467 281.691059 
C 98.218306 282.816221 97.586108 284.342481 97.586108 285.9337 
C 97.586108 287.524918 98.218306 289.051179 99.343467 290.17634 
C 100.468629 291.301502 101.994889 291.9337 103.586108 291.9337 
z
" clip-path="url(#p696cefb83e)" style="fill: #bebebe; stroke: #00ff00; stroke-width: 3"/>
    <path d="M 132.558799 274.133593 
C 132.956604 274.133593 133.338169 273.975543 133.61946 273.694253 
C 133.90075 273.412962 134.058799 273.031397 134.058799 272.633593 
C 134.058799 272.235788 133.90075 271.854223 133.61946 271.572932 
C 133.338169 271.291642 132.956604 271.133593 132.558799 271.133593 
C 132.160995 271.133593 131.77943 271.291642 131.498139 271.572932 
C 131.216849 271.854223 131.058799 272.235788 131.058799 272.633593 
C 131.058799 273.031397 131.216849 273.412962 131.498139 273.694253 
C 131.77943 273.975543 132.160995 274.133593 132.558799 274.133593 
z
" clip-path="url(#p696cefb83e)" style="fill: #bebebe; stroke: #00ff00; stroke-width: 3"/>
   </g>
   <g id="matplotlib.axis_5"/>
   <g id="matplotlib.axis_6"/>
  </g>
  <g id="axes_4">
   <g id="patch_5">
    <path d="M 12.852 394.56 
L 158.508 394.56 
L 158.508 306.72 
L 12.852 306.72 
z
" style="fill: #ffffff"/>
   </g>
   <g id="EdgeCollection_4">
    <path d="M 148.821535 352.753567 
C 170.355578 363.373282 170.355578 336.133852 148.821535 346.753567 
C 170.355578 336.133852 170.355578 363.373282 148.821535 352.753567 
" clip-path="url(#p97ed2d122b)" style="fill: #020202"/>
    <path d="M 140.881463 344.417754 
L 133.244779 329.567495 
" clip-path="url(#p97ed2d122b)" style="fill: #020202"/>
    <path d="M 139.097938 345.816278 
L 104.717969 315.917757 
" clip-path="url(#p97ed2d122b)" style="fill: #020202; stroke: #020202; stroke-width: 1.485"/>
    <path d="M 138.172489 347.25038 
L 69.137116 315.559231 
" clip-path="url(#p97ed2d122b)" style="fill: #020202"/>
    <path d="M 137.747961 348.546954 
L 40.270556 328.535195 
" clip-path="url(#p97ed2d122b)" style="fill: #020202"/>
    <path d="M 137.625383 349.753567 
L 33.734617 349.753567 
" clip-path="url(#p97ed2d122b)" style="fill: #020202"/>
    <path d="M 137.747961 350.960181 
L 44.678622 370.066979 
" clip-path="url(#p97ed2d122b)" style="fill: #020202; stroke: #020202; stroke-width: 1.485"/>
    <path d="M 138.172489 352.256755 
L 73.226786 382.070512 
" clip-path="url(#p97ed2d122b)" style="fill: #020202"/>
    <path d="M 139.097938 353.690857 
L 108.113552 380.63641 
" clip-path="url(#p97ed2d122b)" style="fill: #020202; stroke: #020202; stroke-width: 1.485"/>
    <path d="M 140.881463 355.089381 
L 135.302719 365.937779 
" clip-path="url(#p97ed2d122b)" style="fill: #020202; stroke: #020202; stroke-width: 1.485"/>
    <path d="M 133.998667 327.813088 
C 160.87659 318.328859 141.190522 299.502142 132.91461 326.776353 
C 141.190522 299.502142 160.87659 318.328859 133.998667 327.813088 
" clip-path="url(#p97ed2d122b)" style="fill: #020202"/>
    <path d="M 131.195576 327.607745 
L 104.949331 315.559231 
" clip-path="url(#p97ed2d122b)" style="fill: #020202"/>
    <path d="M 131.089444 327.931888 
L 69.243247 315.235088 
" clip-path="url(#p97ed2d122b)" style="fill: #020202; stroke: #020202; stroke-width: 1.485"/>
    <path d="M 131.058799 328.233542 
L 40.301201 328.233542 
" clip-path="url(#p97ed2d122b)" style="fill: #020202"/>
    <path d="M 131.089444 328.535195 
L 33.612039 348.546954 
" clip-path="url(#p97ed2d122b)" style="fill: #020202"/>
    <path d="M 131.195576 328.859339 
L 44.254095 368.770405 
" clip-path="url(#p97ed2d122b)" style="fill: #020202; stroke: #020202; stroke-width: 1.485"/>
    <path d="M 131.426938 329.217864 
L 72.301336 380.63641 
" clip-path="url(#p97ed2d122b)" style="fill: #020202; stroke: #020202; stroke-width: 1.485"/>
    <path d="M 131.872819 329.567495 
L 106.330028 379.237886 
" clip-path="url(#p97ed2d122b)" style="fill: #020202"/>
    <path d="M 132.558799 329.733542 
L 132.558799 365.273593 
" clip-path="url(#p97ed2d122b)" style="fill: #020202"/>
    <path d="M 104.596186 313.824497 
C 122.599242 291.727816 95.988009 285.911566 103.130779 313.504212 
C 95.988009 285.911566 122.599242 291.727816 104.596186 313.824497 
" clip-path="url(#p97ed2d122b)" style="fill: #020202"/>
    <path d="M 102.086108 314.933435 
L 69.273892 314.933435 
" clip-path="url(#p97ed2d122b)" style="fill: #020202; stroke: #020202; stroke-width: 1.485"/>
    <path d="M 102.116753 315.235088 
L 40.270556 327.931888 
" clip-path="url(#p97ed2d122b)" style="fill: #020202"/>
    <path d="M 102.222884 315.559231 
L 33.187511 347.25038 
" clip-path="url(#p97ed2d122b)" style="fill: #020202"/>
    <path d="M 102.454247 315.917757 
L 43.328645 367.336303 
" clip-path="url(#p97ed2d122b)" style="fill: #020202"/>
    <path d="M 102.900128 316.267388 
L 70.517812 379.237886 
" clip-path="url(#p97ed2d122b)" style="fill: #020202"/>
    <path d="M 103.586108 316.433435 
L 103.586108 378.5737 
" clip-path="url(#p97ed2d122b)" style="fill: #020202"/>
    <path d="M 104.272088 316.267388 
L 129.81488 365.937779 
" clip-path="url(#p97ed2d122b)" style="fill: #020202"/>
    <path d="M 68.229221 313.504212 
C 75.371991 285.911566 48.760758 291.727816 66.763814 313.824497 
C 48.760758 291.727816 75.371991 285.911566 68.229221 313.504212 
" clip-path="url(#p97ed2d122b)" style="fill: #020202"/>
    <path d="M 66.410669 315.559231 
L 40.164424 327.607745 
" clip-path="url(#p97ed2d122b)" style="fill: #020202"/>
    <path d="M 66.642031 315.917757 
L 32.262062 345.816278 
" clip-path="url(#p97ed2d122b)" style="fill: #020202"/>
    <path d="M 67.087912 316.267388 
L 41.54512 365.937779 
" clip-path="url(#p97ed2d122b)" style="fill: #020202"/>
    <path d="M 67.773892 316.433435 
L 67.773892 378.5737 
" clip-path="url(#p97ed2d122b)" style="fill: #020202"/>
    <path d="M 68.459872 316.267388 
L 100.842188 379.237886 
" clip-path="url(#p97ed2d122b)" style="fill: #020202"/>
    <path d="M 68.905753 315.917757 
L 128.031355 367.336303 
" clip-path="url(#p97ed2d122b)" style="fill: #020202"/>
    <path d="M 38.44539 326.776353 
C 30.169478 299.502142 10.48341 318.328859 37.361333 327.813088 
C 10.48341 318.328859 30.169478 299.502142 38.44539 326.776353 
" clip-path="url(#p97ed2d122b)" style="fill: #020202"/>
    <path d="M 38.115221 329.567495 
L 30.478537 344.417754 
" clip-path="url(#p97ed2d122b)" style="fill: #020202; stroke: #020202; stroke-width: 1.485"/>
    <path d="M 38.801201 329.733542 
L 38.801201 365.273593 
" clip-path="url(#p97ed2d122b)" style="fill: #020202"/>
    <path d="M 39.487181 329.567495 
L 65.029972 379.237886 
" clip-path="url(#p97ed2d122b)" style="fill: #020202"/>
    <path d="M 39.933062 329.217864 
L 99.058664 380.63641 
" clip-path="url(#p97ed2d122b)" style="fill: #020202"/>
    <path d="M 40.164424 328.859339 
L 127.105905 368.770405 
" clip-path="url(#p97ed2d122b)" style="fill: #020202"/>
    <path d="M 22.538465 346.753567 
C 1.004422 336.133852 1.004422 363.373282 22.538465 352.753567 
C 1.004422 363.373282 1.004422 336.133852 22.538465 346.753567 
" clip-path="url(#p97ed2d122b)" style="fill: #020202"/>
    <path d="M 30.478537 355.089381 
L 36.057281 365.937779 
" clip-path="url(#p97ed2d122b)" style="fill: #020202; stroke: #020202; stroke-width: 1.485"/>
    <path d="M 32.262062 353.690857 
L 63.246448 380.63641 
" clip-path="url(#p97ed2d122b)" style="fill: #020202; stroke: #020202; stroke-width: 1.485"/>
    <path d="M 33.187511 352.256755 
L 98.133214 382.070512 
" clip-path="url(#p97ed2d122b)" style="fill: #020202; stroke: #020202; stroke-width: 1.485"/>
    <path d="M 33.612039 350.960181 
L 126.681378 370.066979 
" clip-path="url(#p97ed2d122b)" style="fill: #020202; stroke: #020202; stroke-width: 1.485"/>
    <path d="M 33.04173 372.955407 
C 10.48341 381.178275 30.169478 400.004993 37.377959 377.102347 
C 30.169478 400.004993 10.48341 381.178275 33.04173 372.955407 
" clip-path="url(#p97ed2d122b)" style="fill: #020202"/>
    <path d="M 44.254095 373.77678 
L 62.320998 382.070512 
" clip-path="url(#p97ed2d122b)" style="fill: #020202; stroke: #020202; stroke-width: 1.485"/>
    <path d="M 44.678622 372.480206 
L 97.708686 383.367086 
" clip-path="url(#p97ed2d122b)" style="fill: #020202; stroke: #020202; stroke-width: 1.485"/>
    <path d="M 44.801201 371.273593 
L 126.558799 371.273593 
" clip-path="url(#p97ed2d122b)" style="fill: #020202"/>
    <path d="M 63.733579 389.009449 
C 48.760758 407.779318 75.371991 413.595569 69.595207 390.290588 
C 75.371991 413.595569 48.760758 407.779318 63.733579 389.009449 
" clip-path="url(#p97ed2d122b)" style="fill: #020202"/>
    <path d="M 73.773892 384.5737 
L 97.586108 384.5737 
" clip-path="url(#p97ed2d122b)" style="fill: #020202; stroke: #020202; stroke-width: 1.485"/>
    <path d="M 73.651314 383.367086 
L 126.681378 372.480206 
" clip-path="url(#p97ed2d122b)" style="fill: #020202; stroke: #020202; stroke-width: 1.485"/>
    <path d="M 101.764793 390.290588 
C 95.988009 413.595569 122.599242 407.779318 107.626421 389.009449 
C 122.599242 407.779318 95.988009 413.595569 101.764793 390.290588 
" clip-path="url(#p97ed2d122b)" style="fill: #020202"/>
    <path d="M 109.039002 382.070512 
L 127.105905 373.77678 
" clip-path="url(#p97ed2d122b)" style="fill: #020202; stroke: #020202; stroke-width: 1.485"/>
    <path d="M 133.982041 377.102347 
C 141.190522 400.004993 160.87659 381.178275 138.31827 372.955407 
C 160.87659 381.178275 141.190522 400.004993 133.982041 377.102347 
" clip-path="url(#p97ed2d122b)" style="fill: #020202"/>
   </g>
   <g id="VertexCollection_4">
    <path d="M 143.625383 355.753567 
C 145.216601 355.753567 146.742862 355.121369 147.868023 353.996208 
C 148.993185 352.871046 149.625383 351.344786 149.625383 349.753567 
C 149.625383 348.162349 148.993185 346.636088 147.868023 345.510926 
C 146.742862 344.385765 145.216601 343.753567 143.625383 343.753567 
C 142.034164 343.753567 140.507903 344.385765 139.382742 345.510926 
C 138.257581 346.636088 137.625383 348.162349 137.625383 349.753567 
C 137.625383 351.344786 138.257581 352.871046 139.382742 353.996208 
C 140.507903 355.121369 142.034164 355.753567 143.625383 355.753567 
z
" clip-path="url(#p97ed2d122b)" style="fill: #bebebe; stroke: #00ff00; stroke-width: 3"/>
    <path d="M 132.558799 329.733542 
C 132.956604 329.733542 133.338169 329.575492 133.61946 329.294202 
C 133.90075 329.012912 134.058799 328.631346 134.058799 328.233542 
C 134.058799 327.835737 133.90075 327.454172 133.61946 327.172882 
C 133.338169 326.891591 132.956604 326.733542 132.558799 326.733542 
C 132.160995 326.733542 131.77943 326.891591 131.498139 327.172882 
C 131.216849 327.454172 131.058799 327.835737 131.058799 328.233542 
C 131.058799 328.631346 131.216849 329.012912 131.498139 329.294202 
C 131.77943 329.575492 132.160995 329.733542 132.558799 329.733542 
z
" clip-path="url(#p97ed2d122b)" style="fill: #bebebe; stroke: #00ff00; stroke-width: 3"/>
    <path d="M 103.586108 316.433435 
C 103.983913 316.433435 104.365478 316.275385 104.646768 315.994095 
C 104.928059 315.712804 105.086108 315.331239 105.086108 314.933435 
C 105.086108 314.53563 104.928059 314.154065 104.646768 313.872774 
C 104.365478 313.591484 103.983913 313.433435 103.586108 313.433435 
C 103.188303 313.433435 102.806738 313.591484 102.525448 313.872774 
C 102.244157 314.154065 102.086108 314.53563 102.086108 314.933435 
C 102.086108 315.331239 102.244157 315.712804 102.525448 315.994095 
C 102.806738 316.275385 103.188303 316.433435 103.586108 316.433435 
z
" clip-path="url(#p97ed2d122b)" style="fill: #bebebe; stroke: #ff0000; stroke-width: 3"/>
    <path d="M 67.773892 316.433435 
C 68.171697 316.433435 68.553262 316.275385 68.834552 315.994095 
C 69.115843 315.712804 69.273892 315.331239 69.273892 314.933435 
C 69.273892 314.53563 69.115843 314.154065 68.834552 313.872774 
C 68.553262 313.591484 68.171697 313.433435 67.773892 313.433435 
C 67.376087 313.433435 66.994522 313.591484 66.713232 313.872774 
C 66.431941 314.154065 66.273892 314.53563 66.273892 314.933435 
C 66.273892 315.331239 66.431941 315.712804 66.713232 315.994095 
C 66.994522 316.275385 67.376087 316.433435 67.773892 316.433435 
z
" clip-path="url(#p97ed2d122b)" style="fill: #bebebe; stroke: #ff0000; stroke-width: 3"/>
    <path d="M 38.801201 329.733542 
C 39.199005 329.733542 39.58057 329.575492 39.861861 329.294202 
C 40.143151 329.012912 40.301201 328.631346 40.301201 328.233542 
C 40.301201 327.835737 40.143151 327.454172 39.861861 327.172882 
C 39.58057 326.891591 39.199005 326.733542 38.801201 326.733542 
C 38.403396 326.733542 38.021831 326.891591 37.74054 327.172882 
C 37.45925 327.454172 37.301201 327.835737 37.301201 328.233542 
C 37.301201 328.631346 37.45925 329.012912 37.74054 329.294202 
C 38.021831 329.575492 38.403396 329.733542 38.801201 329.733542 
z
" clip-path="url(#p97ed2d122b)" style="fill: #bebebe; stroke: #00ff00; stroke-width: 3"/>
    <path d="M 27.734617 355.753567 
C 29.325836 355.753567 30.852097 355.121369 31.977258 353.996208 
C 33.102419 352.871046 33.734617 351.344786 33.734617 349.753567 
C 33.734617 348.162349 33.102419 346.636088 31.977258 345.510926 
C 30.852097 344.385765 29.325836 343.753567 27.734617 343.753567 
C 26.143399 343.753567 24.617138 344.385765 23.491977 345.510926 
C 22.366815 346.636088 21.734617 348.162349 21.734617 349.753567 
C 21.734617 351.344786 22.366815 352.871046 23.491977 353.996208 
C 24.617138 355.121369 26.143399 355.753567 27.734617 355.753567 
z
" clip-path="url(#p97ed2d122b)" style="fill: #bebebe; stroke: #00ff00; stroke-width: 3"/>
    <path d="M 38.801201 377.273593 
C 40.392419 377.273593 41.91868 376.641395 43.043841 375.516233 
C 44.169003 374.391072 44.801201 372.864811 44.801201 371.273593 
C 44.801201 369.682374 44.169003 368.156113 43.043841 367.030952 
C 41.91868 365.90579 40.392419 365.273593 38.801201 365.273593 
C 37.209982 365.273593 35.683721 365.90579 34.55856 367.030952 
C 33.433399 368.156113 32.801201 369.682374 32.801201 371.273593 
C 32.801201 372.864811 33.433399 374.391072 34.55856 375.516233 
C 35.683721 376.641395 37.209982 377.273593 38.801201 377.273593 
z
" clip-path="url(#p97ed2d122b)" style="fill: #bebebe; stroke: #00ff00; stroke-width: 3"/>
    <path d="M 67.773892 390.5737 
C 69.365111 390.5737 70.891371 389.941502 72.016533 388.81634 
C 73.141694 387.691179 73.773892 386.164918 73.773892 384.5737 
C 73.773892 382.982481 73.141694 381.456221 72.016533 380.331059 
C 70.891371 379.205898 69.365111 378.5737 67.773892 378.5737 
C 66.182673 378.5737 64.656413 379.205898 63.531251 380.331059 
C 62.40609 381.456221 61.773892 382.982481 61.773892 384.5737 
C 61.773892 386.164918 62.40609 387.691179 63.531251 388.81634 
C 64.656413 389.941502 66.182673 390.5737 67.773892 390.5737 
z
" clip-path="url(#p97ed2d122b)" style="fill: #bebebe; stroke: #00ff00; stroke-width: 3"/>
    <path d="M 103.586108 390.5737 
C 105.177327 390.5737 106.703587 389.941502 107.828749 388.81634 
C 108.95391 387.691179 109.586108 386.164918 109.586108 384.5737 
C 109.586108 382.982481 108.95391 381.456221 107.828749 380.331059 
C 106.703587 379.205898 105.177327 378.5737 103.586108 378.5737 
C 101.994889 378.5737 100.468629 379.205898 99.343467 380.331059 
C 98.218306 381.456221 97.586108 382.982481 97.586108 384.5737 
C 97.586108 386.164918 98.218306 387.691179 99.343467 388.81634 
C 100.468629 389.941502 101.994889 390.5737 103.586108 390.5737 
z
" clip-path="url(#p97ed2d122b)" style="fill: #bebebe; stroke: #00ff00; stroke-width: 3"/>
    <path d="M 132.558799 377.273593 
C 134.150018 377.273593 135.676279 376.641395 136.80144 375.516233 
C 137.926601 374.391072 138.558799 372.864811 138.558799 371.273593 
C 138.558799 369.682374 137.926601 368.156113 136.80144 367.030952 
C 135.676279 365.90579 134.150018 365.273593 132.558799 365.273593 
C 130.967581 365.273593 129.44132 365.90579 128.316159 367.030952 
C 127.190997 368.156113 126.558799 369.682374 126.558799 371.273593 
C 126.558799 372.864811 127.190997 374.391072 128.316159 375.516233 
C 129.44132 376.641395 130.967581 377.273593 132.558799 377.273593 
z
" clip-path="url(#p97ed2d122b)" style="fill: #bebebe; stroke: #00ff00; stroke-width: 3"/>
   </g>
   <g id="matplotlib.axis_7"/>
   <g id="matplotlib.axis_8"/>
  </g>
  <g id="axes_5">
   <g id="patch_6">
    <path d="M 12.852 493.2 
L 158.508 493.2 
L 158.508 405.36 
L 12.852 405.36 
z
" style="fill: #ffffff"/>
   </g>
   <g id="EdgeCollection_5">
    <path d="M 146.598758 449.143567 
C 172.029916 462.013282 172.029916 434.773852 146.598758 447.643567 
C 172.029916 434.773852 172.029916 462.013282 146.598758 449.143567 
" clip-path="url(#p1f6bfd0aec)" style="fill: #020202"/>
    <path d="M 144.606085 447.063578 
L 136.850827 432.193498 
" clip-path="url(#p1f6bfd0aec)" style="fill: #020202"/>
    <path d="M 144.161034 447.417148 
L 105.831646 414.549853 
" clip-path="url(#p1f6bfd0aec)" style="fill: #020202; stroke: #020202; stroke-width: 1.485"/>
    <path d="M 143.933192 447.77502 
L 69.739697 414.191982 
" clip-path="url(#p1f6bfd0aec)" style="fill: #020202"/>
    <path d="M 143.829539 448.095962 
L 44.870564 428.063961 
" clip-path="url(#p1f6bfd0aec)" style="fill: #020202"/>
    <path d="M 143.79972 448.393567 
L 33.766409 448.393567 
" clip-path="url(#p1f6bfd0aec)" style="fill: #020202"/>
    <path d="M 143.829539 448.691172 
L 44.870564 468.723174 
" clip-path="url(#p1f6bfd0aec)" style="fill: #020202"/>
    <path d="M 143.933192 449.012114 
L 73.839282 480.739511 
" clip-path="url(#p1f6bfd0aec)" style="fill: #020202"/>
    <path d="M 144.161034 449.369986 
L 109.247705 479.308024 
" clip-path="url(#p1f6bfd0aec)" style="fill: #020202"/>
    <path d="M 144.606085 449.723556 
L 136.850827 464.593637 
" clip-path="url(#p1f6bfd0aec)" style="fill: #020202"/>
    <path d="M 139.826371 425.159907 
C 162.338879 416.812432 142.549013 398.094853 135.467278 421.037006 
C 142.549013 398.094853 162.338879 416.812432 139.826371 425.159907 
" clip-path="url(#p1f6bfd0aec)" style="fill: #020202"/>
    <path d="M 128.610175 424.399353 
L 106.059488 414.191982 
" clip-path="url(#p1f6bfd0aec)" style="fill: #020202"/>
    <path d="M 128.195565 425.683123 
L 69.84335 413.871039 
" clip-path="url(#p1f6bfd0aec)" style="fill: #020202; stroke: #020202; stroke-width: 1.485"/>
    <path d="M 128.076288 426.873542 
L 44.989841 426.873542 
" clip-path="url(#p1f6bfd0aec)" style="fill: #020202"/>
    <path d="M 128.195565 428.063961 
L 33.647131 447.203148 
" clip-path="url(#p1f6bfd0aec)" style="fill: #020202"/>
    <path d="M 128.610175 429.34773 
L 44.455954 467.439404 
" clip-path="url(#p1f6bfd0aec)" style="fill: #020202; stroke: #020202; stroke-width: 1.485"/>
    <path d="M 129.521543 430.779217 
L 72.927914 479.308024 
" clip-path="url(#p1f6bfd0aec)" style="fill: #020202; stroke: #020202; stroke-width: 1.485"/>
    <path d="M 131.301748 432.193498 
L 107.467499 477.893744 
" clip-path="url(#p1f6bfd0aec)" style="fill: #020202; stroke: #020202; stroke-width: 1.485"/>
    <path d="M 134.076288 432.873542 
L 134.076288 463.913593 
" clip-path="url(#p1f6bfd0aec)" style="fill: #020202"/>
    <path d="M 105.700089 412.461819 
C 123.644397 390.317403 97.01781 384.571847 104.233837 412.145427 
C 97.01781 384.571847 123.644397 390.317403 105.700089 412.461819 
" clip-path="url(#p1f6bfd0aec)" style="fill: #020202"/>
    <path d="M 103.19296 413.573435 
L 69.873169 413.573435 
" clip-path="url(#p1f6bfd0aec)" style="fill: #020202"/>
    <path d="M 103.222779 413.871039 
L 44.870564 425.683123 
" clip-path="url(#p1f6bfd0aec)" style="fill: #020202; stroke: #020202; stroke-width: 1.485"/>
    <path d="M 103.326431 414.191982 
L 33.232522 445.919379 
" clip-path="url(#p1f6bfd0aec)" style="fill: #020202"/>
    <path d="M 103.554273 414.549853 
L 43.544586 466.007917 
" clip-path="url(#p1f6bfd0aec)" style="fill: #020202"/>
    <path d="M 103.999325 414.903424 
L 71.147709 477.893744 
" clip-path="url(#p1f6bfd0aec)" style="fill: #020202"/>
    <path d="M 104.69296 415.073435 
L 104.69296 477.2137 
" clip-path="url(#p1f6bfd0aec)" style="fill: #020202"/>
    <path d="M 105.386595 414.903424 
L 131.301748 464.593637 
" clip-path="url(#p1f6bfd0aec)" style="fill: #020202"/>
    <path d="M 68.832292 412.145427 
C 76.048318 384.571847 49.421731 390.317403 67.366039 412.461819 
C 49.421731 390.317403 76.048318 384.571847 68.832292 412.145427 
" clip-path="url(#p1f6bfd0aec)" style="fill: #020202"/>
    <path d="M 67.006641 414.191982 
L 44.455954 424.399353 
" clip-path="url(#p1f6bfd0aec)" style="fill: #020202"/>
    <path d="M 67.234483 414.549853 
L 32.321153 444.487892 
" clip-path="url(#p1f6bfd0aec)" style="fill: #020202"/>
    <path d="M 67.679534 414.903424 
L 41.764381 464.593637 
" clip-path="url(#p1f6bfd0aec)" style="fill: #020202"/>
    <path d="M 68.373169 415.073435 
L 68.373169 477.2137 
" clip-path="url(#p1f6bfd0aec)" style="fill: #020202"/>
    <path d="M 69.066804 414.903424 
L 101.91842 477.893744 
" clip-path="url(#p1f6bfd0aec)" style="fill: #020202"/>
    <path d="M 69.511855 414.549853 
L 129.521543 466.007917 
" clip-path="url(#p1f6bfd0aec)" style="fill: #020202"/>
    <path d="M 37.59885 421.037006 
C 30.517116 398.094853 10.72725 416.812432 33.239758 425.159907 
C 10.72725 416.812432 30.517116 398.094853 37.59885 421.037006 
" clip-path="url(#p1f6bfd0aec)" style="fill: #020202"/>
    <path d="M 36.215301 432.193498 
L 30.540948 443.073611 
" clip-path="url(#p1f6bfd0aec)" style="fill: #020202; stroke: #020202; stroke-width: 1.485"/>
    <path d="M 38.989841 432.873542 
L 38.989841 463.913593 
" clip-path="url(#p1f6bfd0aec)" style="fill: #020202"/>
    <path d="M 41.764381 432.193498 
L 65.598629 477.893744 
" clip-path="url(#p1f6bfd0aec)" style="fill: #020202"/>
    <path d="M 43.544586 430.779217 
L 100.138215 479.308024 
" clip-path="url(#p1f6bfd0aec)" style="fill: #020202; stroke: #020202; stroke-width: 1.485"/>
    <path d="M 44.455954 429.34773 
L 128.610175 467.439404 
" clip-path="url(#p1f6bfd0aec)" style="fill: #020202; stroke: #020202; stroke-width: 1.485"/>
    <path d="M 22.570256 445.393567 
C 1.036213 434.773852 1.036213 462.013282 22.570256 451.393567 
C 1.036213 462.013282 1.036213 434.773852 22.570256 445.393567 
" clip-path="url(#p1f6bfd0aec)" style="fill: #020202"/>
    <path d="M 30.540948 453.713523 
L 36.215301 464.593637 
" clip-path="url(#p1f6bfd0aec)" style="fill: #020202; stroke: #020202; stroke-width: 1.485"/>
    <path d="M 32.321153 452.299242 
L 63.818424 479.308024 
" clip-path="url(#p1f6bfd0aec)" style="fill: #020202; stroke: #020202; stroke-width: 1.485"/>
    <path d="M 33.232522 450.867756 
L 99.226847 480.739511 
" clip-path="url(#p1f6bfd0aec)" style="fill: #020202; stroke: #020202; stroke-width: 1.485"/>
    <path d="M 33.647131 449.583986 
L 128.195565 468.723174 
" clip-path="url(#p1f6bfd0aec)" style="fill: #020202; stroke: #020202; stroke-width: 1.485"/>
    <path d="M 33.239758 471.627227 
C 10.72725 479.974702 30.517116 498.692281 37.59885 475.750128 
C 30.517116 498.692281 10.72725 479.974702 33.239758 471.627227 
" clip-path="url(#p1f6bfd0aec)" style="fill: #020202"/>
    <path d="M 44.455954 472.387781 
L 62.907056 480.739511 
" clip-path="url(#p1f6bfd0aec)" style="fill: #020202; stroke: #020202; stroke-width: 1.485"/>
    <path d="M 44.870564 471.104012 
L 98.812237 482.023281 
" clip-path="url(#p1f6bfd0aec)" style="fill: #020202; stroke: #020202; stroke-width: 1.485"/>
    <path d="M 44.989841 469.913593 
L 128.076288 469.913593 
" clip-path="url(#p1f6bfd0aec)" style="fill: #020202; stroke: #020202; stroke-width: 1.485"/>
    <path d="M 64.344651 487.660163 
C 49.421731 506.469731 76.048318 512.215287 70.20966 488.925731 
C 76.048318 512.215287 49.421731 506.469731 64.344651 487.660163 
" clip-path="url(#p1f6bfd0aec)" style="fill: #020202"/>
    <path d="M 74.373169 483.2137 
L 98.69296 483.2137 
" clip-path="url(#p1f6bfd0aec)" style="fill: #020202; stroke: #020202; stroke-width: 1.485"/>
    <path d="M 74.253892 482.023281 
L 128.195565 471.104012 
" clip-path="url(#p1f6bfd0aec)" style="fill: #020202; stroke: #020202; stroke-width: 1.485"/>
    <path d="M 102.856468 488.925731 
C 97.01781 512.215287 123.644397 506.469731 108.721478 487.660163 
C 123.644397 506.469731 97.01781 512.215287 102.856468 488.925731 
" clip-path="url(#p1f6bfd0aec)" style="fill: #020202"/>
    <path d="M 110.159073 480.739511 
L 128.610175 472.387781 
" clip-path="url(#p1f6bfd0aec)" style="fill: #020202"/>
    <path d="M 135.467278 475.750128 
C 142.549013 498.692281 162.338879 479.974702 139.826371 471.627227 
C 162.338879 479.974702 142.549013 498.692281 135.467278 475.750128 
" clip-path="url(#p1f6bfd0aec)" style="fill: #020202"/>
   </g>
   <g id="VertexCollection_5">
    <path d="M 145.29972 449.893567 
C 145.697525 449.893567 146.07909 449.735518 146.36038 449.454227 
C 146.641671 449.172937 146.79972 448.791372 146.79972 448.393567 
C 146.79972 447.995763 146.641671 447.614197 146.36038 447.332907 
C 146.07909 447.051617 145.697525 446.893567 145.29972 446.893567 
C 144.901916 446.893567 144.52035 447.051617 144.23906 447.332907 
C 143.95777 447.614197 143.79972 447.995763 143.79972 448.393567 
C 143.79972 448.791372 143.95777 449.172937 144.23906 449.454227 
C 144.52035 449.735518 144.901916 449.893567 145.29972 449.893567 
z
" clip-path="url(#p1f6bfd0aec)" style="fill: #bebebe; stroke: #00ff00; stroke-width: 3"/>
    <path d="M 134.076288 432.873542 
C 135.667506 432.873542 137.193767 432.241344 138.318928 431.116182 
C 139.44409 429.991021 140.076288 428.46476 140.076288 426.873542 
C 140.076288 425.282323 139.44409 423.756062 138.318928 422.630901 
C 137.193767 421.50574 135.667506 420.873542 134.076288 420.873542 
C 132.485069 420.873542 130.958808 421.50574 129.833647 422.630901 
C 128.708485 423.756062 128.076288 425.282323 128.076288 426.873542 
C 128.076288 428.46476 128.708485 429.991021 129.833647 431.116182 
C 130.958808 432.241344 132.485069 432.873542 134.076288 432.873542 
z
" clip-path="url(#p1f6bfd0aec)" style="fill: #bebebe; stroke: #00ff00; stroke-width: 3"/>
    <path d="M 104.69296 415.073435 
C 105.090764 415.073435 105.47233 414.915385 105.75362 414.634095 
C 106.03491 414.352804 106.19296 413.971239 106.19296 413.573435 
C 106.19296 413.17563 106.03491 412.794065 105.75362 412.512774 
C 105.47233 412.231484 105.090764 412.073435 104.69296 412.073435 
C 104.295155 412.073435 103.91359 412.231484 103.6323 412.512774 
C 103.351009 412.794065 103.19296 413.17563 103.19296 413.573435 
C 103.19296 413.971239 103.351009 414.352804 103.6323 414.634095 
C 103.91359 414.915385 104.295155 415.073435 104.69296 415.073435 
z
" clip-path="url(#p1f6bfd0aec)" style="fill: #bebebe; stroke: #ff0000; stroke-width: 3"/>
    <path d="M 68.373169 415.073435 
C 68.770974 415.073435 69.152539 414.915385 69.433829 414.634095 
C 69.71512 414.352804 69.873169 413.971239 69.873169 413.573435 
C 69.873169 413.17563 69.71512 412.794065 69.433829 412.512774 
C 69.152539 412.231484 68.770974 412.073435 68.373169 412.073435 
C 67.975364 412.073435 67.593799 412.231484 67.312509 412.512774 
C 67.031218 412.794065 66.873169 413.17563 66.873169 413.573435 
C 66.873169 413.971239 67.031218 414.352804 67.312509 414.634095 
C 67.593799 414.915385 67.975364 415.073435 68.373169 415.073435 
z
" clip-path="url(#p1f6bfd0aec)" style="fill: #bebebe; stroke: #ff0000; stroke-width: 3"/>
    <path d="M 38.989841 432.873542 
C 40.58106 432.873542 42.10732 432.241344 43.232482 431.116182 
C 44.357643 429.991021 44.989841 428.46476 44.989841 426.873542 
C 44.989841 425.282323 44.357643 423.756062 43.232482 422.630901 
C 42.10732 421.50574 40.58106 420.873542 38.989841 420.873542 
C 37.398622 420.873542 35.872362 421.50574 34.7472 422.630901 
C 33.622039 423.756062 32.989841 425.282323 32.989841 426.873542 
C 32.989841 428.46476 33.622039 429.991021 34.7472 431.116182 
C 35.872362 432.241344 37.398622 432.873542 38.989841 432.873542 
z
" clip-path="url(#p1f6bfd0aec)" style="fill: #bebebe; stroke: #00ff00; stroke-width: 3"/>
    <path d="M 27.766409 454.393567 
C 29.357627 454.393567 30.883888 453.761369 32.009049 452.636208 
C 33.134211 451.511046 33.766409 449.984786 33.766409 448.393567 
C 33.766409 446.802349 33.134211 445.276088 32.009049 444.150926 
C 30.883888 443.025765 29.357627 442.393567 27.766409 442.393567 
C 26.17519 442.393567 24.648929 443.025765 23.523768 444.150926 
C 22.398606 445.276088 21.766409 446.802349 21.766409 448.393567 
C 21.766409 449.984786 22.398606 451.511046 23.523768 452.636208 
C 24.648929 453.761369 26.17519 454.393567 27.766409 454.393567 
z
" clip-path="url(#p1f6bfd0aec)" style="fill: #bebebe; stroke: #00ff00; stroke-width: 3"/>
    <path d="M 38.989841 475.913593 
C 40.58106 475.913593 42.10732 475.281395 43.232482 474.156233 
C 44.357643 473.031072 44.989841 471.504811 44.989841 469.913593 
C 44.989841 468.322374 44.357643 466.796113 43.232482 465.670952 
C 42.10732 464.54579 40.58106 463.913593 38.989841 463.913593 
C 37.398622 463.913593 35.872362 464.54579 34.7472 465.670952 
C 33.622039 466.796113 32.989841 468.322374 32.989841 469.913593 
C 32.989841 471.504811 33.622039 473.031072 34.7472 474.156233 
C 35.872362 475.281395 37.398622 475.913593 38.989841 475.913593 
z
" clip-path="url(#p1f6bfd0aec)" style="fill: #bebebe; stroke: #00ff00; stroke-width: 3"/>
    <path d="M 68.373169 489.2137 
C 69.964388 489.2137 71.490648 488.581502 72.61581 487.45634 
C 73.740971 486.331179 74.373169 484.804918 74.373169 483.2137 
C 74.373169 481.622481 73.740971 480.096221 72.61581 478.971059 
C 71.490648 477.845898 69.964388 477.2137 68.373169 477.2137 
C 66.78195 477.2137 65.25569 477.845898 64.130528 478.971059 
C 63.005367 480.096221 62.373169 481.622481 62.373169 483.2137 
C 62.373169 484.804918 63.005367 486.331179 64.130528 487.45634 
C 65.25569 488.581502 66.78195 489.2137 68.373169 489.2137 
z
" clip-path="url(#p1f6bfd0aec)" style="fill: #bebebe; stroke: #00ff00; stroke-width: 3"/>
    <path d="M 104.69296 489.2137 
C 106.284178 489.2137 107.810439 488.581502 108.9356 487.45634 
C 110.060762 486.331179 110.69296 484.804918 110.69296 483.2137 
C 110.69296 481.622481 110.060762 480.096221 108.9356 478.971059 
C 107.810439 477.845898 106.284178 477.2137 104.69296 477.2137 
C 103.101741 477.2137 101.57548 477.845898 100.450319 478.971059 
C 99.325158 480.096221 98.69296 481.622481 98.69296 483.2137 
C 98.69296 484.804918 99.325158 486.331179 100.450319 487.45634 
C 101.57548 488.581502 103.101741 489.2137 104.69296 489.2137 
z
" clip-path="url(#p1f6bfd0aec)" style="fill: #bebebe; stroke: #00ff00; stroke-width: 3"/>
    <path d="M 134.076288 475.913593 
C 135.667506 475.913593 137.193767 475.281395 138.318928 474.156233 
C 139.44409 473.031072 140.076288 471.504811 140.076288 469.913593 
C 140.076288 468.322374 139.44409 466.796113 138.318928 465.670952 
C 137.193767 464.54579 135.667506 463.913593 134.076288 463.913593 
C 132.485069 463.913593 130.958808 464.54579 129.833647 465.670952 
C 128.708485 466.796113 128.076288 468.322374 128.076288 469.913593 
C 128.076288 471.504811 128.708485 473.031072 129.833647 474.156233 
C 130.958808 475.281395 132.485069 475.913593 134.076288 475.913593 
z
" clip-path="url(#p1f6bfd0aec)" style="fill: #bebebe; stroke: #00ff00; stroke-width: 3"/>
   </g>
   <g id="matplotlib.axis_9"/>
   <g id="matplotlib.axis_10"/>
  </g>
 </g>
 <defs>
  <clipPath id="p75d623ac2a">
   <rect x="12.852" y="10.8" width="145.656" height="87.84"/>
  </clipPath>
  <clipPath id="p0212a22892">
   <rect x="12.852" y="109.44" width="145.656" height="87.84"/>
  </clipPath>
  <clipPath id="p696cefb83e">
   <rect x="12.852" y="208.08" width="145.656" height="87.84"/>
  </clipPath>
  <clipPath id="p97ed2d122b">
   <rect x="12.852" y="306.72" width="145.656" height="87.84"/>
  </clipPath>
  <clipPath id="p1f6bfd0aec">
   <rect x="12.852" y="405.36" width="145.656" height="87.84"/>
  </clipPath>
 </defs>
</svg>
