<?xml version="1.0" encoding="utf-8" standalone="no"?>
<!DOCTYPE svg PUBLIC "-//W3C//DTD SVG 1.1//EN"
  "http://www.w3.org/Graphics/SVG/1.1/DTD/svg11.dtd">
<svg xmlns:xlink="http://www.w3.org/1999/xlink" width="171.36pt" height="504pt" viewBox="0 0 171.36 504" xmlns="http://www.w3.org/2000/svg" version="1.1">
 <metadata>
  <rdf:RDF xmlns:dc="http://purl.org/dc/elements/1.1/" xmlns:cc="http://creativecommons.org/ns#" xmlns:rdf="http://www.w3.org/1999/02/22-rdf-syntax-ns#">
   <cc:Work>
    <dc:type rdf:resource="http://purl.org/dc/dcmitype/StillImage"/>
    <dc:date>2025-06-11T17:28:54.047518</dc:date>
    <dc:format>image/svg+xml</dc:format>
    <dc:creator>
     <cc:Agent>
      <dc:title>Matplotlib v3.9.2, https://matplotlib.org/</dc:title>
     </cc:Agent>
    </dc:creator>
   </cc:Work>
  </rdf:RDF>
 </metadata>
 <defs>
  <style type="text/css">*{stroke-linejoin: round; stroke-linecap: butt}</style>
 </defs>
 <g id="figure_1">
  <g id="patch_1">
   <path d="M 0 504 
L 171.36 504 
L 171.36 0 
L 0 0 
z
" style="fill: #ffffff"/>
  </g>
  <g id="axes_1">
   <g id="patch_2">
    <path d="M 12.852 98.64 
L 158.508 98.64 
L 158.508 10.8 
L 12.852 10.8 
z
" style="fill: #ffffff"/>
   </g>
   <g id="EdgeCollection_1">
    <path d="M 146.590582 55.47 
C 172.02174 68.339715 172.02174 41.100285 146.590582 53.97 
C 172.02174 41.100285 172.02174 68.339715 146.590582 55.47 
" clip-path="url(#p2155c1cc75)" style="fill: #020202"/>
    <path d="M 144.576828 53.40122 
L 136.765615 38.988114 
" clip-path="url(#p2155c1cc75)" style="fill: #020202"/>
    <path d="M 144.134592 53.765295 
L 105.257932 21.684654 
" clip-path="url(#p2155c1cc75)" style="fill: #020202"/>
    <path d="M 143.916344 54.120979 
L 72.759818 23.126032 
" clip-path="url(#p2155c1cc75)" style="fill: #020202"/>
    <path d="M 143.819219 54.43319 
L 38.925573 33.999803 
" clip-path="url(#p2155c1cc75)" style="fill: #020202"/>
    <path d="M 143.791544 54.72 
L 27.568456 54.72 
" clip-path="url(#p2155c1cc75)" style="fill: #020202"/>
    <path d="M 143.819219 55.00681 
L 38.925573 75.440197 
" clip-path="url(#p2155c1cc75)" style="fill: #020202"/>
    <path d="M 143.916344 55.319021 
L 68.63422 88.11103 
" clip-path="url(#p2155c1cc75)" style="fill: #020202"/>
    <path d="M 144.134592 55.674705 
L 108.728788 84.89123 
" clip-path="url(#p2155c1cc75)" style="fill: #020202"/>
    <path d="M 144.576828 56.03878 
L 136.765615 70.451886 
" clip-path="url(#p2155c1cc75)" style="fill: #020202"/>
    <path d="M 139.63034 31.912844 
C 162.014411 23.226834 141.944539 4.80981 135.209571 27.856146 
C 141.944539 4.80981 162.014411 23.226834 139.63034 31.912844 
" clip-path="url(#p2155c1cc75)" style="fill: #020202"/>
    <path d="M 128.405953 31.31691 
L 105.47618 21.32897 
" clip-path="url(#p2155c1cc75)" style="fill: #020202; stroke: #020202; stroke-width: 1.485"/>
    <path d="M 128.017453 32.565752 
L 73.148318 21.87719 
" clip-path="url(#p2155c1cc75)" style="fill: #020202; stroke: #020202; stroke-width: 1.485"/>
    <path d="M 127.906752 33.712993 
L 38.953248 33.712993 
" clip-path="url(#p2155c1cc75)" style="fill: #020202"/>
    <path d="M 128.017453 34.860234 
L 27.540781 54.43319 
" clip-path="url(#p2155c1cc75)" style="fill: #020202"/>
    <path d="M 128.405953 36.109076 
L 38.828448 75.127986 
" clip-path="url(#p2155c1cc75)" style="fill: #020202"/>
    <path d="M 129.278945 37.531815 
L 68.415972 87.755346 
" clip-path="url(#p2155c1cc75)" style="fill: #020202"/>
    <path d="M 131.047889 38.988114 
L 106.959843 83.43493 
" clip-path="url(#p2155c1cc75)" style="fill: #020202; stroke: #020202; stroke-width: 1.485"/>
    <path d="M 133.906752 39.712993 
L 133.906752 69.727007 
" clip-path="url(#p2155c1cc75)" style="fill: #020202; stroke: #020202; stroke-width: 1.485"/>
    <path d="M 105.100168 19.611189 
C 122.886314 -2.66046 96.219485 -8.216243 103.631699 19.305247 
C 96.219485 -8.216243 122.886314 -2.66046 105.100168 19.611189 
" clip-path="url(#p2155c1cc75)" style="fill: #020202"/>
    <path d="M 102.60098 20.729949 
L 73.25902 20.729949 
" clip-path="url(#p2155c1cc75)" style="fill: #020202; stroke: #020202; stroke-width: 1.485"/>
    <path d="M 102.628655 21.016759 
L 38.925573 33.426183 
" clip-path="url(#p2155c1cc75)" style="fill: #020202"/>
    <path d="M 102.72578 21.32897 
L 27.443656 54.120979 
" clip-path="url(#p2155c1cc75)" style="fill: #020202"/>
    <path d="M 102.944028 21.684654 
L 38.6102 74.772302 
" clip-path="url(#p2155c1cc75)" style="fill: #020202"/>
    <path d="M 103.386264 22.048729 
L 67.973736 87.391271 
" clip-path="url(#p2155c1cc75)" style="fill: #020202"/>
    <path d="M 104.10098 22.229949 
L 104.10098 82.710051 
" clip-path="url(#p2155c1cc75)" style="fill: #020202; stroke: #020202; stroke-width: 1.485"/>
    <path d="M 104.815696 22.048729 
L 131.047889 70.451886 
" clip-path="url(#p2155c1cc75)" style="fill: #020202"/>
    <path d="M 69.136144 15.031142 
C 75.140515 -8.216243 48.473686 -2.66046 63.26227 16.254908 
C 48.473686 -2.66046 75.140515 -8.216243 69.136144 15.031142 
" clip-path="url(#p2155c1cc75)" style="fill: #020202"/>
    <path d="M 61.758221 23.126032 
L 38.828448 33.113972 
" clip-path="url(#p2155c1cc75)" style="fill: #020202"/>
    <path d="M 62.631212 24.54877 
L 27.225408 53.765295 
" clip-path="url(#p2155c1cc75)" style="fill: #020202"/>
    <path d="M 64.400157 26.00507 
L 38.167964 74.408227 
" clip-path="url(#p2155c1cc75)" style="fill: #020202"/>
    <path d="M 67.25902 26.729949 
L 67.25902 87.210051 
" clip-path="url(#p2155c1cc75)" style="fill: #020202"/>
    <path d="M 70.117883 26.00507 
L 101.242117 83.43493 
" clip-path="url(#p2155c1cc75)" style="fill: #020202; stroke: #020202; stroke-width: 1.485"/>
    <path d="M 71.886827 24.54877 
L 129.278945 71.908185 
" clip-path="url(#p2155c1cc75)" style="fill: #020202; stroke: #020202; stroke-width: 1.485"/>
    <path d="M 37.127543 32.248781 
C 29.415461 4.80981 9.345589 23.226834 36.022351 33.262956 
C 9.345589 23.226834 29.415461 4.80981 37.127543 32.248781 
" clip-path="url(#p2155c1cc75)" style="fill: #020202"/>
    <path d="M 36.738532 35.031773 
L 26.783172 53.40122 
" clip-path="url(#p2155c1cc75)" style="fill: #020202"/>
    <path d="M 37.453248 35.212993 
L 37.453248 74.227007 
" clip-path="url(#p2155c1cc75)" style="fill: #020202; stroke: #020202; stroke-width: 1.485"/>
    <path d="M 38.167964 35.031773 
L 66.544304 87.391271 
" clip-path="url(#p2155c1cc75)" style="fill: #020202"/>
    <path d="M 38.6102 34.667698 
L 99.473173 84.89123 
" clip-path="url(#p2155c1cc75)" style="fill: #020202"/>
    <path d="M 38.828448 34.312014 
L 128.405953 73.330924 
" clip-path="url(#p2155c1cc75)" style="fill: #020202"/>
    <path d="M 24.769418 53.97 
C -0.66174 41.100285 -0.66174 68.339715 24.769418 55.47 
C -0.66174 68.339715 -0.66174 41.100285 24.769418 53.97 
" clip-path="url(#p2155c1cc75)" style="fill: #020202"/>
    <path d="M 26.783172 56.03878 
L 36.738532 74.408227 
" clip-path="url(#p2155c1cc75)" style="fill: #020202"/>
    <path d="M 27.225408 55.674705 
L 66.102068 87.755346 
" clip-path="url(#p2155c1cc75)" style="fill: #020202"/>
    <path d="M 27.443656 55.319021 
L 98.600182 86.313968 
" clip-path="url(#p2155c1cc75)" style="fill: #020202"/>
    <path d="M 27.540781 55.00681 
L 128.017453 74.579766 
" clip-path="url(#p2155c1cc75)" style="fill: #020202; stroke: #020202; stroke-width: 1.485"/>
    <path d="M 36.022351 76.177044 
C 9.345589 86.213166 29.415461 104.63019 37.127543 77.191219 
C 29.415461 104.63019 9.345589 86.213166 36.022351 76.177044 
" clip-path="url(#p2155c1cc75)" style="fill: #020202"/>
    <path d="M 38.828448 76.326028 
L 65.88382 88.11103 
" clip-path="url(#p2155c1cc75)" style="fill: #020202"/>
    <path d="M 38.925573 76.013817 
L 98.211682 87.56281 
" clip-path="url(#p2155c1cc75)" style="fill: #020202"/>
    <path d="M 38.953248 75.727007 
L 127.906752 75.727007 
" clip-path="url(#p2155c1cc75)" style="fill: #020202"/>
    <path d="M 66.259832 89.828811 
C 48.473686 112.10046 75.140515 117.656243 67.728301 90.134753 
C 75.140515 117.656243 48.473686 112.10046 66.259832 89.828811 
" clip-path="url(#p2155c1cc75)" style="fill: #020202"/>
    <path d="M 68.75902 88.710051 
L 98.10098 88.710051 
" clip-path="url(#p2155c1cc75)" style="fill: #020202"/>
    <path d="M 68.731345 88.423241 
L 128.017453 76.874248 
" clip-path="url(#p2155c1cc75)" style="fill: #020202"/>
    <path d="M 102.223856 94.408858 
C 96.219485 117.656243 122.886314 112.10046 108.09773 93.185092 
C 122.886314 112.10046 96.219485 117.656243 102.223856 94.408858 
" clip-path="url(#p2155c1cc75)" style="fill: #020202"/>
    <path d="M 109.601779 86.313968 
L 128.405953 78.12309 
" clip-path="url(#p2155c1cc75)" style="fill: #020202; stroke: #020202; stroke-width: 1.485"/>
    <path d="M 135.209571 81.583854 
C 141.944539 104.63019 162.014411 86.213166 139.63034 77.527156 
C 162.014411 86.213166 141.944539 104.63019 135.209571 81.583854 
" clip-path="url(#p2155c1cc75)" style="fill: #020202"/>
   </g>
   <g id="VertexCollection_1">
    <path d="M 145.291544 56.22 
C 145.689348 56.22 146.070914 56.061951 146.352204 55.78066 
C 146.633494 55.49937 146.791544 55.117805 146.791544 54.72 
C 146.791544 54.322195 146.633494 53.94063 146.352204 53.65934 
C 146.070914 53.378049 145.689348 53.22 145.291544 53.22 
C 144.893739 53.22 144.512174 53.378049 144.230884 53.65934 
C 143.949593 53.94063 143.791544 54.322195 143.791544 54.72 
C 143.791544 55.117805 143.949593 55.49937 144.230884 55.78066 
C 144.512174 56.061951 144.893739 56.22 145.291544 56.22 
z
" clip-path="url(#p2155c1cc75)" style="fill: #bebebe; stroke: #bebebe; stroke-width: 3"/>
    <path d="M 133.906752 39.712993 
C 135.497971 39.712993 137.024231 39.080795 138.149393 37.955634 
C 139.274554 36.830472 139.906752 35.304212 139.906752 33.712993 
C 139.906752 32.121775 139.274554 30.595514 138.149393 29.470352 
C 137.024231 28.345191 135.497971 27.712993 133.906752 27.712993 
C 132.315533 27.712993 130.789273 28.345191 129.664111 29.470352 
C 128.53895 30.595514 127.906752 32.121775 127.906752 33.712993 
C 127.906752 35.304212 128.53895 36.830472 129.664111 37.955634 
C 130.789273 39.080795 132.315533 39.712993 133.906752 39.712993 
z
" clip-path="url(#p2155c1cc75)" style="fill: #bebebe; stroke: #bebebe; stroke-width: 3"/>
    <path d="M 104.10098 22.229949 
C 104.498785 22.229949 104.88035 22.071899 105.16164 21.790609 
C 105.442931 21.509319 105.60098 21.127753 105.60098 20.729949 
C 105.60098 20.332144 105.442931 19.950579 105.16164 19.669289 
C 104.88035 19.387998 104.498785 19.229949 104.10098 19.229949 
C 103.703175 19.229949 103.32161 19.387998 103.04032 19.669289 
C 102.75903 19.950579 102.60098 20.332144 102.60098 20.729949 
C 102.60098 21.127753 102.75903 21.509319 103.04032 21.790609 
C 103.32161 22.071899 103.703175 22.229949 104.10098 22.229949 
z
" clip-path="url(#p2155c1cc75)" style="fill: #bebebe; stroke: #bebebe; stroke-width: 3"/>
    <path d="M 67.25902 26.729949 
C 68.850238 26.729949 70.376499 26.097751 71.501661 24.97259 
C 72.626822 23.847428 73.25902 22.321167 73.25902 20.729949 
C 73.25902 19.13873 72.626822 17.61247 71.501661 16.487308 
C 70.376499 15.362147 68.850238 14.729949 67.25902 14.729949 
C 65.667801 14.729949 64.141541 15.362147 63.016379 16.487308 
C 61.891218 17.61247 61.25902 19.13873 61.25902 20.729949 
C 61.25902 22.321167 61.891218 23.847428 63.016379 24.97259 
C 64.141541 26.097751 65.667801 26.729949 67.25902 26.729949 
z
" clip-path="url(#p2155c1cc75)" style="fill: #bebebe; stroke: #bebebe; stroke-width: 3"/>
    <path d="M 37.453248 35.212993 
C 37.851053 35.212993 38.232618 35.054944 38.513908 34.773653 
C 38.795199 34.492363 38.953248 34.110798 38.953248 33.712993 
C 38.953248 33.315188 38.795199 32.933623 38.513908 32.652333 
C 38.232618 32.371043 37.851053 32.212993 37.453248 32.212993 
C 37.055443 32.212993 36.673878 32.371043 36.392588 32.652333 
C 36.111297 32.933623 35.953248 33.315188 35.953248 33.712993 
C 35.953248 34.110798 36.111297 34.492363 36.392588 34.773653 
C 36.673878 35.054944 37.055443 35.212993 37.453248 35.212993 
z
" clip-path="url(#p2155c1cc75)" style="fill: #bebebe; stroke: #bebebe; stroke-width: 3"/>
    <path d="M 26.068456 56.22 
C 26.466261 56.22 26.847826 56.061951 27.129116 55.78066 
C 27.410407 55.49937 27.568456 55.117805 27.568456 54.72 
C 27.568456 54.322195 27.410407 53.94063 27.129116 53.65934 
C 26.847826 53.378049 26.466261 53.22 26.068456 53.22 
C 25.670652 53.22 25.289086 53.378049 25.007796 53.65934 
C 24.726506 53.94063 24.568456 54.322195 24.568456 54.72 
C 24.568456 55.117805 24.726506 55.49937 25.007796 55.78066 
C 25.289086 56.061951 25.670652 56.22 26.068456 56.22 
z
" clip-path="url(#p2155c1cc75)" style="fill: #bebebe; stroke: #bebebe; stroke-width: 3"/>
    <path d="M 37.453248 77.227007 
C 37.851053 77.227007 38.232618 77.068957 38.513908 76.787667 
C 38.795199 76.506377 38.953248 76.124812 38.953248 75.727007 
C 38.953248 75.329202 38.795199 74.947637 38.513908 74.666347 
C 38.232618 74.385056 37.851053 74.227007 37.453248 74.227007 
C 37.055443 74.227007 36.673878 74.385056 36.392588 74.666347 
C 36.111297 74.947637 35.953248 75.329202 35.953248 75.727007 
C 35.953248 76.124812 36.111297 76.506377 36.392588 76.787667 
C 36.673878 77.068957 37.055443 77.227007 37.453248 77.227007 
z
" clip-path="url(#p2155c1cc75)" style="fill: #bebebe; stroke: #bebebe; stroke-width: 3"/>
    <path d="M 67.25902 90.210051 
C 67.656825 90.210051 68.03839 90.052002 68.31968 89.770711 
C 68.60097 89.489421 68.75902 89.107856 68.75902 88.710051 
C 68.75902 88.312247 68.60097 87.930681 68.31968 87.649391 
C 68.03839 87.368101 67.656825 87.210051 67.25902 87.210051 
C 66.861215 87.210051 66.47965 87.368101 66.19836 87.649391 
C 65.917069 87.930681 65.75902 88.312247 65.75902 88.710051 
C 65.75902 89.107856 65.917069 89.489421 66.19836 89.770711 
C 66.47965 90.052002 66.861215 90.210051 67.25902 90.210051 
z
" clip-path="url(#p2155c1cc75)" style="fill: #bebebe; stroke: #bebebe; stroke-width: 3"/>
    <path d="M 104.10098 94.710051 
C 105.692199 94.710051 107.218459 94.077853 108.343621 92.952692 
C 109.468782 91.82753 110.10098 90.30127 110.10098 88.710051 
C 110.10098 87.118833 109.468782 85.592572 108.343621 84.46741 
C 107.218459 83.342249 105.692199 82.710051 104.10098 82.710051 
C 102.509762 82.710051 100.983501 83.342249 99.858339 84.46741 
C 98.733178 85.592572 98.10098 87.118833 98.10098 88.710051 
C 98.10098 90.30127 98.733178 91.82753 99.858339 92.952692 
C 100.983501 94.077853 102.509762 94.710051 104.10098 94.710051 
z
" clip-path="url(#p2155c1cc75)" style="fill: #bebebe; stroke: #bebebe; stroke-width: 3"/>
    <path d="M 133.906752 81.727007 
C 135.497971 81.727007 137.024231 81.094809 138.149393 79.969648 
C 139.274554 78.844486 139.906752 77.318225 139.906752 75.727007 
C 139.906752 74.135788 139.274554 72.609528 138.149393 71.484366 
C 137.024231 70.359205 135.497971 69.727007 133.906752 69.727007 
C 132.315533 69.727007 130.789273 70.359205 129.664111 71.484366 
C 128.53895 72.609528 127.906752 74.135788 127.906752 75.727007 
C 127.906752 77.318225 128.53895 78.844486 129.664111 79.969648 
C 130.789273 81.094809 132.315533 81.727007 133.906752 81.727007 
z
" clip-path="url(#p2155c1cc75)" style="fill: #bebebe; stroke: #bebebe; stroke-width: 3"/>
   </g>
   <g id="matplotlib.axis_1"/>
   <g id="matplotlib.axis_2"/>
  </g>
  <g id="axes_2">
   <g id="patch_3">
    <path d="M 12.852 197.28 
L 158.508 197.28 
L 158.508 109.44 
L 12.852 109.44 
z
" style="fill: #ffffff"/>
   </g>
   <g id="EdgeCollection_2">
    <path d="M 146.590582 154.11 
C 172.02174 166.979715 172.02174 139.740285 146.590582 152.61 
C 172.02174 139.740285 172.02174 166.979715 146.590582 154.11 
" clip-path="url(#p49ec6e04ac)" style="fill: #020202"/>
    <path d="M 144.576828 152.04122 
L 134.621468 133.671773 
" clip-path="url(#p49ec6e04ac)" style="fill: #020202"/>
    <path d="M 144.134592 152.405295 
L 105.257932 120.324654 
" clip-path="url(#p49ec6e04ac)" style="fill: #020202"/>
    <path d="M 143.916344 152.760979 
L 72.759818 121.766032 
" clip-path="url(#p49ec6e04ac)" style="fill: #020202"/>
    <path d="M 143.819219 153.07319 
L 38.925573 132.639803 
" clip-path="url(#p49ec6e04ac)" style="fill: #020202"/>
    <path d="M 143.791544 153.36 
L 27.568456 153.36 
" clip-path="url(#p49ec6e04ac)" style="fill: #020202"/>
    <path d="M 143.819219 153.64681 
L 38.925573 174.080197 
" clip-path="url(#p49ec6e04ac)" style="fill: #020202"/>
    <path d="M 143.916344 153.959021 
L 68.63422 186.75103 
" clip-path="url(#p49ec6e04ac)" style="fill: #020202"/>
    <path d="M 144.134592 154.314705 
L 108.728788 183.53123 
" clip-path="url(#p49ec6e04ac)" style="fill: #020202"/>
    <path d="M 144.576828 154.67878 
L 136.765615 169.091886 
" clip-path="url(#p49ec6e04ac)" style="fill: #020202"/>
    <path d="M 135.337649 131.902956 
C 162.014411 121.866834 141.944539 103.44981 134.232457 130.888781 
C 141.944539 103.44981 162.014411 121.866834 135.337649 131.902956 
" clip-path="url(#p49ec6e04ac)" style="fill: #020202"/>
    <path d="M 132.531552 131.753972 
L 105.47618 119.96897 
" clip-path="url(#p49ec6e04ac)" style="fill: #020202"/>
    <path d="M 132.434427 132.066183 
L 73.148318 120.51719 
" clip-path="url(#p49ec6e04ac)" style="fill: #020202; stroke: #020202; stroke-width: 1.485"/>
    <path d="M 132.406752 132.352993 
L 38.953248 132.352993 
" clip-path="url(#p49ec6e04ac)" style="fill: #020202"/>
    <path d="M 132.434427 132.639803 
L 27.540781 153.07319 
" clip-path="url(#p49ec6e04ac)" style="fill: #020202; stroke: #020202; stroke-width: 1.485"/>
    <path d="M 132.531552 132.952014 
L 38.828448 173.767986 
" clip-path="url(#p49ec6e04ac)" style="fill: #020202"/>
    <path d="M 132.7498 133.307698 
L 68.415972 186.395346 
" clip-path="url(#p49ec6e04ac)" style="fill: #020202"/>
    <path d="M 133.192036 133.671773 
L 106.959843 182.07493 
" clip-path="url(#p49ec6e04ac)" style="fill: #020202"/>
    <path d="M 133.906752 133.852993 
L 133.906752 168.367007 
" clip-path="url(#p49ec6e04ac)" style="fill: #020202; stroke: #020202; stroke-width: 1.485"/>
    <path d="M 105.100168 118.251189 
C 122.886314 95.97954 96.219485 90.423757 103.631699 117.945247 
C 96.219485 90.423757 122.886314 95.97954 105.100168 118.251189 
" clip-path="url(#p49ec6e04ac)" style="fill: #020202"/>
    <path d="M 102.60098 119.369949 
L 73.25902 119.369949 
" clip-path="url(#p49ec6e04ac)" style="fill: #020202; stroke: #020202; stroke-width: 1.485"/>
    <path d="M 102.628655 119.656759 
L 38.925573 132.066183 
" clip-path="url(#p49ec6e04ac)" style="fill: #020202"/>
    <path d="M 102.72578 119.96897 
L 27.443656 152.760979 
" clip-path="url(#p49ec6e04ac)" style="fill: #020202"/>
    <path d="M 102.944028 120.324654 
L 38.6102 173.412302 
" clip-path="url(#p49ec6e04ac)" style="fill: #020202"/>
    <path d="M 103.386264 120.688729 
L 67.973736 186.031271 
" clip-path="url(#p49ec6e04ac)" style="fill: #020202"/>
    <path d="M 104.10098 120.869949 
L 104.10098 181.350051 
" clip-path="url(#p49ec6e04ac)" style="fill: #020202; stroke: #020202; stroke-width: 1.485"/>
    <path d="M 104.815696 120.688729 
L 131.047889 169.091886 
" clip-path="url(#p49ec6e04ac)" style="fill: #020202"/>
    <path d="M 69.136144 113.671142 
C 75.140515 90.423757 48.473686 95.97954 63.26227 114.894908 
C 48.473686 95.97954 75.140515 90.423757 69.136144 113.671142 
" clip-path="url(#p49ec6e04ac)" style="fill: #020202"/>
    <path d="M 61.758221 121.766032 
L 38.828448 131.753972 
" clip-path="url(#p49ec6e04ac)" style="fill: #020202"/>
    <path d="M 62.631212 123.18877 
L 27.225408 152.405295 
" clip-path="url(#p49ec6e04ac)" style="fill: #020202"/>
    <path d="M 64.400157 124.64507 
L 38.167964 173.048227 
" clip-path="url(#p49ec6e04ac)" style="fill: #020202"/>
    <path d="M 67.25902 125.369949 
L 67.25902 185.850051 
" clip-path="url(#p49ec6e04ac)" style="fill: #020202"/>
    <path d="M 70.117883 124.64507 
L 101.242117 182.07493 
" clip-path="url(#p49ec6e04ac)" style="fill: #020202; stroke: #020202; stroke-width: 1.485"/>
    <path d="M 71.886827 123.18877 
L 129.278945 170.548185 
" clip-path="url(#p49ec6e04ac)" style="fill: #020202; stroke: #020202; stroke-width: 1.485"/>
    <path d="M 37.127543 130.888781 
C 29.415461 103.44981 9.345589 121.866834 36.022351 131.902956 
C 9.345589 121.866834 29.415461 103.44981 37.127543 130.888781 
" clip-path="url(#p49ec6e04ac)" style="fill: #020202"/>
    <path d="M 36.738532 133.671773 
L 26.783172 152.04122 
" clip-path="url(#p49ec6e04ac)" style="fill: #020202"/>
    <path d="M 37.453248 133.852993 
L 37.453248 172.867007 
" clip-path="url(#p49ec6e04ac)" style="fill: #020202; stroke: #020202; stroke-width: 1.485"/>
    <path d="M 38.167964 133.671773 
L 66.544304 186.031271 
" clip-path="url(#p49ec6e04ac)" style="fill: #020202"/>
    <path d="M 38.6102 133.307698 
L 99.473173 183.53123 
" clip-path="url(#p49ec6e04ac)" style="fill: #020202"/>
    <path d="M 38.828448 132.952014 
L 128.405953 171.970924 
" clip-path="url(#p49ec6e04ac)" style="fill: #020202"/>
    <path d="M 24.769418 152.61 
C -0.66174 139.740285 -0.66174 166.979715 24.769418 154.11 
C -0.66174 166.979715 -0.66174 139.740285 24.769418 152.61 
" clip-path="url(#p49ec6e04ac)" style="fill: #020202"/>
    <path d="M 26.783172 154.67878 
L 36.738532 173.048227 
" clip-path="url(#p49ec6e04ac)" style="fill: #020202"/>
    <path d="M 27.225408 154.314705 
L 66.102068 186.395346 
" clip-path="url(#p49ec6e04ac)" style="fill: #020202"/>
    <path d="M 27.443656 153.959021 
L 98.600182 184.953968 
" clip-path="url(#p49ec6e04ac)" style="fill: #020202; stroke: #020202; stroke-width: 1.485"/>
    <path d="M 27.540781 153.64681 
L 128.017453 173.219766 
" clip-path="url(#p49ec6e04ac)" style="fill: #020202; stroke: #020202; stroke-width: 1.485"/>
    <path d="M 36.022351 174.817044 
C 9.345589 184.853166 29.415461 203.27019 37.127543 175.831219 
C 29.415461 203.27019 9.345589 184.853166 36.022351 174.817044 
" clip-path="url(#p49ec6e04ac)" style="fill: #020202"/>
    <path d="M 38.828448 174.966028 
L 65.88382 186.75103 
" clip-path="url(#p49ec6e04ac)" style="fill: #020202"/>
    <path d="M 38.925573 174.653817 
L 98.211682 186.20281 
" clip-path="url(#p49ec6e04ac)" style="fill: #020202"/>
    <path d="M 38.953248 174.367007 
L 127.906752 174.367007 
" clip-path="url(#p49ec6e04ac)" style="fill: #020202"/>
    <path d="M 66.259832 188.468811 
C 48.473686 210.74046 75.140515 216.296243 67.728301 188.774753 
C 75.140515 216.296243 48.473686 210.74046 66.259832 188.468811 
" clip-path="url(#p49ec6e04ac)" style="fill: #020202"/>
    <path d="M 68.75902 187.350051 
L 98.10098 187.350051 
" clip-path="url(#p49ec6e04ac)" style="fill: #020202"/>
    <path d="M 68.731345 187.063241 
L 128.017453 175.514248 
" clip-path="url(#p49ec6e04ac)" style="fill: #020202"/>
    <path d="M 102.223856 193.048858 
C 96.219485 216.296243 122.886314 210.74046 108.09773 191.825092 
C 122.886314 210.74046 96.219485 216.296243 102.223856 193.048858 
" clip-path="url(#p49ec6e04ac)" style="fill: #020202"/>
    <path d="M 109.601779 184.953968 
L 128.405953 176.76309 
" clip-path="url(#p49ec6e04ac)" style="fill: #020202; stroke: #020202; stroke-width: 1.485"/>
    <path d="M 135.209571 180.223854 
C 141.944539 203.27019 162.014411 184.853166 139.63034 176.167156 
C 162.014411 184.853166 141.944539 203.27019 135.209571 180.223854 
" clip-path="url(#p49ec6e04ac)" style="fill: #020202"/>
   </g>
   <g id="VertexCollection_2">
    <path d="M 145.291544 154.86 
C 145.689348 154.86 146.070914 154.701951 146.352204 154.42066 
C 146.633494 154.13937 146.791544 153.757805 146.791544 153.36 
C 146.791544 152.962195 146.633494 152.58063 146.352204 152.29934 
C 146.070914 152.018049 145.689348 151.86 145.291544 151.86 
C 144.893739 151.86 144.512174 152.018049 144.230884 152.29934 
C 143.949593 152.58063 143.791544 152.962195 143.791544 153.36 
C 143.791544 153.757805 143.949593 154.13937 144.230884 154.42066 
C 144.512174 154.701951 144.893739 154.86 145.291544 154.86 
z
" clip-path="url(#p49ec6e04ac)" style="fill: #bebebe; stroke: #bebebe; stroke-width: 3"/>
    <path d="M 133.906752 133.852993 
C 134.304557 133.852993 134.686122 133.694944 134.967412 133.413653 
C 135.248703 133.132363 135.406752 132.750798 135.406752 132.352993 
C 135.406752 131.955188 135.248703 131.573623 134.967412 131.292333 
C 134.686122 131.011043 134.304557 130.852993 133.906752 130.852993 
C 133.508947 130.852993 133.127382 131.011043 132.846092 131.292333 
C 132.564801 131.573623 132.406752 131.955188 132.406752 132.352993 
C 132.406752 132.750798 132.564801 133.132363 132.846092 133.413653 
C 133.127382 133.694944 133.508947 133.852993 133.906752 133.852993 
z
" clip-path="url(#p49ec6e04ac)" style="fill: #bebebe; stroke: #bebebe; stroke-width: 3"/>
    <path d="M 104.10098 120.869949 
C 104.498785 120.869949 104.88035 120.711899 105.16164 120.430609 
C 105.442931 120.149319 105.60098 119.767753 105.60098 119.369949 
C 105.60098 118.972144 105.442931 118.590579 105.16164 118.309289 
C 104.88035 118.027998 104.498785 117.869949 104.10098 117.869949 
C 103.703175 117.869949 103.32161 118.027998 103.04032 118.309289 
C 102.75903 118.590579 102.60098 118.972144 102.60098 119.369949 
C 102.60098 119.767753 102.75903 120.149319 103.04032 120.430609 
C 103.32161 120.711899 103.703175 120.869949 104.10098 120.869949 
z
" clip-path="url(#p49ec6e04ac)" style="fill: #bebebe; stroke: #bebebe; stroke-width: 3"/>
    <path d="M 67.25902 125.369949 
C 68.850238 125.369949 70.376499 124.737751 71.501661 123.61259 
C 72.626822 122.487428 73.25902 120.961167 73.25902 119.369949 
C 73.25902 117.77873 72.626822 116.25247 71.501661 115.127308 
C 70.376499 114.002147 68.850238 113.369949 67.25902 113.369949 
C 65.667801 113.369949 64.141541 114.002147 63.016379 115.127308 
C 61.891218 116.25247 61.25902 117.77873 61.25902 119.369949 
C 61.25902 120.961167 61.891218 122.487428 63.016379 123.61259 
C 64.141541 124.737751 65.667801 125.369949 67.25902 125.369949 
z
" clip-path="url(#p49ec6e04ac)" style="fill: #bebebe; stroke: #bebebe; stroke-width: 3"/>
    <path d="M 37.453248 133.852993 
C 37.851053 133.852993 38.232618 133.694944 38.513908 133.413653 
C 38.795199 133.132363 38.953248 132.750798 38.953248 132.352993 
C 38.953248 131.955188 38.795199 131.573623 38.513908 131.292333 
C 38.232618 131.011043 37.851053 130.852993 37.453248 130.852993 
C 37.055443 130.852993 36.673878 131.011043 36.392588 131.292333 
C 36.111297 131.573623 35.953248 131.955188 35.953248 132.352993 
C 35.953248 132.750798 36.111297 133.132363 36.392588 133.413653 
C 36.673878 133.694944 37.055443 133.852993 37.453248 133.852993 
z
" clip-path="url(#p49ec6e04ac)" style="fill: #bebebe; stroke: #bebebe; stroke-width: 3"/>
    <path d="M 26.068456 154.86 
C 26.466261 154.86 26.847826 154.701951 27.129116 154.42066 
C 27.410407 154.13937 27.568456 153.757805 27.568456 153.36 
C 27.568456 152.962195 27.410407 152.58063 27.129116 152.29934 
C 26.847826 152.018049 26.466261 151.86 26.068456 151.86 
C 25.670652 151.86 25.289086 152.018049 25.007796 152.29934 
C 24.726506 152.58063 24.568456 152.962195 24.568456 153.36 
C 24.568456 153.757805 24.726506 154.13937 25.007796 154.42066 
C 25.289086 154.701951 25.670652 154.86 26.068456 154.86 
z
" clip-path="url(#p49ec6e04ac)" style="fill: #bebebe; stroke: #bebebe; stroke-width: 3"/>
    <path d="M 37.453248 175.867007 
C 37.851053 175.867007 38.232618 175.708957 38.513908 175.427667 
C 38.795199 175.146377 38.953248 174.764812 38.953248 174.367007 
C 38.953248 173.969202 38.795199 173.587637 38.513908 173.306347 
C 38.232618 173.025056 37.851053 172.867007 37.453248 172.867007 
C 37.055443 172.867007 36.673878 173.025056 36.392588 173.306347 
C 36.111297 173.587637 35.953248 173.969202 35.953248 174.367007 
C 35.953248 174.764812 36.111297 175.146377 36.392588 175.427667 
C 36.673878 175.708957 37.055443 175.867007 37.453248 175.867007 
z
" clip-path="url(#p49ec6e04ac)" style="fill: #bebebe; stroke: #bebebe; stroke-width: 3"/>
    <path d="M 67.25902 188.850051 
C 67.656825 188.850051 68.03839 188.692002 68.31968 188.410711 
C 68.60097 188.129421 68.75902 187.747856 68.75902 187.350051 
C 68.75902 186.952247 68.60097 186.570681 68.31968 186.289391 
C 68.03839 186.008101 67.656825 185.850051 67.25902 185.850051 
C 66.861215 185.850051 66.47965 186.008101 66.19836 186.289391 
C 65.917069 186.570681 65.75902 186.952247 65.75902 187.350051 
C 65.75902 187.747856 65.917069 188.129421 66.19836 188.410711 
C 66.47965 188.692002 66.861215 188.850051 67.25902 188.850051 
z
" clip-path="url(#p49ec6e04ac)" style="fill: #bebebe; stroke: #bebebe; stroke-width: 3"/>
    <path d="M 104.10098 193.350051 
C 105.692199 193.350051 107.218459 192.717853 108.343621 191.592692 
C 109.468782 190.46753 110.10098 188.94127 110.10098 187.350051 
C 110.10098 185.758833 109.468782 184.232572 108.343621 183.10741 
C 107.218459 181.982249 105.692199 181.350051 104.10098 181.350051 
C 102.509762 181.350051 100.983501 181.982249 99.858339 183.10741 
C 98.733178 184.232572 98.10098 185.758833 98.10098 187.350051 
C 98.10098 188.94127 98.733178 190.46753 99.858339 191.592692 
C 100.983501 192.717853 102.509762 193.350051 104.10098 193.350051 
z
" clip-path="url(#p49ec6e04ac)" style="fill: #bebebe; stroke: #bebebe; stroke-width: 3"/>
    <path d="M 133.906752 180.367007 
C 135.497971 180.367007 137.024231 179.734809 138.149393 178.609648 
C 139.274554 177.484486 139.906752 175.958225 139.906752 174.367007 
C 139.906752 172.775788 139.274554 171.249528 138.149393 170.124366 
C 137.024231 168.999205 135.497971 168.367007 133.906752 168.367007 
C 132.315533 168.367007 130.789273 168.999205 129.664111 170.124366 
C 128.53895 171.249528 127.906752 172.775788 127.906752 174.367007 
C 127.906752 175.958225 128.53895 177.484486 129.664111 178.609648 
C 130.789273 179.734809 132.315533 180.367007 133.906752 180.367007 
z
" clip-path="url(#p49ec6e04ac)" style="fill: #bebebe; stroke: #bebebe; stroke-width: 3"/>
   </g>
   <g id="matplotlib.axis_3"/>
   <g id="matplotlib.axis_4"/>
  </g>
  <g id="axes_3">
   <g id="patch_4">
    <path d="M 12.852 295.92 
L 158.508 295.92 
L 158.508 208.08 
L 12.852 208.08 
z
" style="fill: #ffffff"/>
   </g>
   <g id="EdgeCollection_3">
    <path d="M 146.590582 252.75 
C 172.02174 265.619715 172.02174 238.380285 146.590582 251.25 
C 172.02174 238.380285 172.02174 265.619715 146.590582 252.75 
" clip-path="url(#p8c69093905)" style="fill: #020202"/>
    <path d="M 144.576828 250.68122 
L 134.621468 232.311773 
" clip-path="url(#p8c69093905)" style="fill: #020202"/>
    <path d="M 144.134592 251.045295 
L 105.257932 218.964654 
" clip-path="url(#p8c69093905)" style="fill: #020202"/>
    <path d="M 143.916344 251.400979 
L 72.759818 220.406032 
" clip-path="url(#p8c69093905)" style="fill: #020202"/>
    <path d="M 143.819219 251.71319 
L 38.925573 231.279803 
" clip-path="url(#p8c69093905)" style="fill: #020202"/>
    <path d="M 143.791544 252 
L 27.568456 252 
" clip-path="url(#p8c69093905)" style="fill: #020202"/>
    <path d="M 143.819219 252.28681 
L 38.925573 272.720197 
" clip-path="url(#p8c69093905)" style="fill: #020202"/>
    <path d="M 143.916344 252.599021 
L 68.63422 285.39103 
" clip-path="url(#p8c69093905)" style="fill: #020202"/>
    <path d="M 144.134592 252.954705 
L 108.728788 282.17123 
" clip-path="url(#p8c69093905)" style="fill: #020202"/>
    <path d="M 144.576828 253.31878 
L 136.765615 267.731886 
" clip-path="url(#p8c69093905)" style="fill: #020202"/>
    <path d="M 135.337649 230.542956 
C 162.014411 220.506834 141.944539 202.08981 134.232457 229.528781 
C 141.944539 202.08981 162.014411 220.506834 135.337649 230.542956 
" clip-path="url(#p8c69093905)" style="fill: #020202"/>
    <path d="M 132.531552 230.393972 
L 105.47618 218.60897 
" clip-path="url(#p8c69093905)" style="fill: #020202"/>
    <path d="M 132.434427 230.706183 
L 73.148318 219.15719 
" clip-path="url(#p8c69093905)" style="fill: #020202; stroke: #020202; stroke-width: 1.485"/>
    <path d="M 132.406752 230.992993 
L 38.953248 230.992993 
" clip-path="url(#p8c69093905)" style="fill: #020202"/>
    <path d="M 132.434427 231.279803 
L 27.540781 251.71319 
" clip-path="url(#p8c69093905)" style="fill: #020202"/>
    <path d="M 132.531552 231.592014 
L 38.828448 272.407986 
" clip-path="url(#p8c69093905)" style="fill: #020202"/>
    <path d="M 132.7498 231.947698 
L 68.415972 285.035346 
" clip-path="url(#p8c69093905)" style="fill: #020202"/>
    <path d="M 133.192036 232.311773 
L 106.959843 280.71493 
" clip-path="url(#p8c69093905)" style="fill: #020202; stroke: #020202; stroke-width: 1.485"/>
    <path d="M 133.906752 232.492993 
L 133.906752 267.007007 
" clip-path="url(#p8c69093905)" style="fill: #020202; stroke: #020202; stroke-width: 1.485"/>
    <path d="M 105.100168 216.891189 
C 122.886314 194.61954 96.219485 189.063757 103.631699 216.585247 
C 96.219485 189.063757 122.886314 194.61954 105.100168 216.891189 
" clip-path="url(#p8c69093905)" style="fill: #020202"/>
    <path d="M 102.60098 218.009949 
L 73.25902 218.009949 
" clip-path="url(#p8c69093905)" style="fill: #020202"/>
    <path d="M 102.628655 218.296759 
L 38.925573 230.706183 
" clip-path="url(#p8c69093905)" style="fill: #020202"/>
    <path d="M 102.72578 218.60897 
L 27.443656 251.400979 
" clip-path="url(#p8c69093905)" style="fill: #020202"/>
    <path d="M 102.944028 218.964654 
L 38.6102 272.052302 
" clip-path="url(#p8c69093905)" style="fill: #020202"/>
    <path d="M 103.386264 219.328729 
L 67.973736 284.671271 
" clip-path="url(#p8c69093905)" style="fill: #020202"/>
    <path d="M 104.10098 219.509949 
L 104.10098 279.990051 
" clip-path="url(#p8c69093905)" style="fill: #020202"/>
    <path d="M 104.815696 219.328729 
L 131.047889 267.731886 
" clip-path="url(#p8c69093905)" style="fill: #020202"/>
    <path d="M 69.136144 212.311142 
C 75.140515 189.063757 48.473686 194.61954 63.26227 213.534908 
C 48.473686 194.61954 75.140515 189.063757 69.136144 212.311142 
" clip-path="url(#p8c69093905)" style="fill: #020202"/>
    <path d="M 61.758221 220.406032 
L 38.828448 230.393972 
" clip-path="url(#p8c69093905)" style="fill: #020202"/>
    <path d="M 62.631212 221.82877 
L 27.225408 251.045295 
" clip-path="url(#p8c69093905)" style="fill: #020202"/>
    <path d="M 64.400157 223.28507 
L 38.167964 271.688227 
" clip-path="url(#p8c69093905)" style="fill: #020202; stroke: #020202; stroke-width: 1.485"/>
    <path d="M 67.25902 224.009949 
L 67.25902 284.490051 
" clip-path="url(#p8c69093905)" style="fill: #020202"/>
    <path d="M 70.117883 223.28507 
L 101.242117 280.71493 
" clip-path="url(#p8c69093905)" style="fill: #020202; stroke: #020202; stroke-width: 1.485"/>
    <path d="M 71.886827 221.82877 
L 129.278945 269.188185 
" clip-path="url(#p8c69093905)" style="fill: #020202; stroke: #020202; stroke-width: 1.485"/>
    <path d="M 37.127543 229.528781 
C 29.415461 202.08981 9.345589 220.506834 36.022351 230.542956 
C 9.345589 220.506834 29.415461 202.08981 37.127543 229.528781 
" clip-path="url(#p8c69093905)" style="fill: #020202"/>
    <path d="M 36.738532 232.311773 
L 26.783172 250.68122 
" clip-path="url(#p8c69093905)" style="fill: #020202"/>
    <path d="M 37.453248 232.492993 
L 37.453248 271.507007 
" clip-path="url(#p8c69093905)" style="fill: #020202; stroke: #020202; stroke-width: 1.485"/>
    <path d="M 38.167964 232.311773 
L 66.544304 284.671271 
" clip-path="url(#p8c69093905)" style="fill: #020202"/>
    <path d="M 38.6102 231.947698 
L 99.473173 282.17123 
" clip-path="url(#p8c69093905)" style="fill: #020202"/>
    <path d="M 38.828448 231.592014 
L 128.405953 270.610924 
" clip-path="url(#p8c69093905)" style="fill: #020202"/>
    <path d="M 24.769418 251.25 
C -0.66174 238.380285 -0.66174 265.619715 24.769418 252.75 
C -0.66174 265.619715 -0.66174 238.380285 24.769418 251.25 
" clip-path="url(#p8c69093905)" style="fill: #020202"/>
    <path d="M 26.783172 253.31878 
L 36.738532 271.688227 
" clip-path="url(#p8c69093905)" style="fill: #020202"/>
    <path d="M 27.225408 252.954705 
L 66.102068 285.035346 
" clip-path="url(#p8c69093905)" style="fill: #020202; stroke: #020202; stroke-width: 1.485"/>
    <path d="M 27.443656 252.599021 
L 98.600182 283.593968 
" clip-path="url(#p8c69093905)" style="fill: #020202; stroke: #020202; stroke-width: 1.485"/>
    <path d="M 27.540781 252.28681 
L 128.017453 271.859766 
" clip-path="url(#p8c69093905)" style="fill: #020202; stroke: #020202; stroke-width: 1.485"/>
    <path d="M 36.022351 273.457044 
C 9.345589 283.493166 29.415461 301.91019 37.127543 274.471219 
C 29.415461 301.91019 9.345589 283.493166 36.022351 273.457044 
" clip-path="url(#p8c69093905)" style="fill: #020202"/>
    <path d="M 38.828448 273.606028 
L 65.88382 285.39103 
" clip-path="url(#p8c69093905)" style="fill: #020202"/>
    <path d="M 38.925573 273.293817 
L 98.211682 284.84281 
" clip-path="url(#p8c69093905)" style="fill: #020202"/>
    <path d="M 38.953248 273.007007 
L 127.906752 273.007007 
" clip-path="url(#p8c69093905)" style="fill: #020202"/>
    <path d="M 66.259832 287.108811 
C 48.473686 309.38046 75.140515 314.936243 67.728301 287.414753 
C 75.140515 314.936243 48.473686 309.38046 66.259832 287.108811 
" clip-path="url(#p8c69093905)" style="fill: #020202"/>
    <path d="M 68.75902 285.990051 
L 98.10098 285.990051 
" clip-path="url(#p8c69093905)" style="fill: #020202"/>
    <path d="M 68.731345 285.703241 
L 128.017453 274.154248 
" clip-path="url(#p8c69093905)" style="fill: #020202"/>
    <path d="M 102.223856 291.688858 
C 96.219485 314.936243 122.886314 309.38046 108.09773 290.465092 
C 122.886314 309.38046 96.219485 314.936243 102.223856 291.688858 
" clip-path="url(#p8c69093905)" style="fill: #020202"/>
    <path d="M 109.601779 283.593968 
L 128.405953 275.40309 
" clip-path="url(#p8c69093905)" style="fill: #020202; stroke: #020202; stroke-width: 1.485"/>
    <path d="M 135.209571 278.863854 
C 141.944539 301.91019 162.014411 283.493166 139.63034 274.807156 
C 162.014411 283.493166 141.944539 301.91019 135.209571 278.863854 
" clip-path="url(#p8c69093905)" style="fill: #020202"/>
   </g>
   <g id="VertexCollection_3">
    <path d="M 145.291544 253.5 
C 145.689348 253.5 146.070914 253.341951 146.352204 253.06066 
C 146.633494 252.77937 146.791544 252.397805 146.791544 252 
C 146.791544 251.602195 146.633494 251.22063 146.352204 250.93934 
C 146.070914 250.658049 145.689348 250.5 145.291544 250.5 
C 144.893739 250.5 144.512174 250.658049 144.230884 250.93934 
C 143.949593 251.22063 143.791544 251.602195 143.791544 252 
C 143.791544 252.397805 143.949593 252.77937 144.230884 253.06066 
C 144.512174 253.341951 144.893739 253.5 145.291544 253.5 
z
" clip-path="url(#p8c69093905)" style="fill: #bebebe; stroke: #bebebe; stroke-width: 3"/>
    <path d="M 133.906752 232.492993 
C 134.304557 232.492993 134.686122 232.334944 134.967412 232.053653 
C 135.248703 231.772363 135.406752 231.390798 135.406752 230.992993 
C 135.406752 230.595188 135.248703 230.213623 134.967412 229.932333 
C 134.686122 229.651043 134.304557 229.492993 133.906752 229.492993 
C 133.508947 229.492993 133.127382 229.651043 132.846092 229.932333 
C 132.564801 230.213623 132.406752 230.595188 132.406752 230.992993 
C 132.406752 231.390798 132.564801 231.772363 132.846092 232.053653 
C 133.127382 232.334944 133.508947 232.492993 133.906752 232.492993 
z
" clip-path="url(#p8c69093905)" style="fill: #bebebe; stroke: #bebebe; stroke-width: 3"/>
    <path d="M 104.10098 219.509949 
C 104.498785 219.509949 104.88035 219.351899 105.16164 219.070609 
C 105.442931 218.789319 105.60098 218.407753 105.60098 218.009949 
C 105.60098 217.612144 105.442931 217.230579 105.16164 216.949289 
C 104.88035 216.667998 104.498785 216.509949 104.10098 216.509949 
C 103.703175 216.509949 103.32161 216.667998 103.04032 216.949289 
C 102.75903 217.230579 102.60098 217.612144 102.60098 218.009949 
C 102.60098 218.407753 102.75903 218.789319 103.04032 219.070609 
C 103.32161 219.351899 103.703175 219.509949 104.10098 219.509949 
z
" clip-path="url(#p8c69093905)" style="fill: #bebebe; stroke: #bebebe; stroke-width: 3"/>
    <path d="M 67.25902 224.009949 
C 68.850238 224.009949 70.376499 223.377751 71.501661 222.25259 
C 72.626822 221.127428 73.25902 219.601167 73.25902 218.009949 
C 73.25902 216.41873 72.626822 214.89247 71.501661 213.767308 
C 70.376499 212.642147 68.850238 212.009949 67.25902 212.009949 
C 65.667801 212.009949 64.141541 212.642147 63.016379 213.767308 
C 61.891218 214.89247 61.25902 216.41873 61.25902 218.009949 
C 61.25902 219.601167 61.891218 221.127428 63.016379 222.25259 
C 64.141541 223.377751 65.667801 224.009949 67.25902 224.009949 
z
" clip-path="url(#p8c69093905)" style="fill: #bebebe; stroke: #bebebe; stroke-width: 3"/>
    <path d="M 37.453248 232.492993 
C 37.851053 232.492993 38.232618 232.334944 38.513908 232.053653 
C 38.795199 231.772363 38.953248 231.390798 38.953248 230.992993 
C 38.953248 230.595188 38.795199 230.213623 38.513908 229.932333 
C 38.232618 229.651043 37.851053 229.492993 37.453248 229.492993 
C 37.055443 229.492993 36.673878 229.651043 36.392588 229.932333 
C 36.111297 230.213623 35.953248 230.595188 35.953248 230.992993 
C 35.953248 231.390798 36.111297 231.772363 36.392588 232.053653 
C 36.673878 232.334944 37.055443 232.492993 37.453248 232.492993 
z
" clip-path="url(#p8c69093905)" style="fill: #bebebe; stroke: #bebebe; stroke-width: 3"/>
    <path d="M 26.068456 253.5 
C 26.466261 253.5 26.847826 253.341951 27.129116 253.06066 
C 27.410407 252.77937 27.568456 252.397805 27.568456 252 
C 27.568456 251.602195 27.410407 251.22063 27.129116 250.93934 
C 26.847826 250.658049 26.466261 250.5 26.068456 250.5 
C 25.670652 250.5 25.289086 250.658049 25.007796 250.93934 
C 24.726506 251.22063 24.568456 251.602195 24.568456 252 
C 24.568456 252.397805 24.726506 252.77937 25.007796 253.06066 
C 25.289086 253.341951 25.670652 253.5 26.068456 253.5 
z
" clip-path="url(#p8c69093905)" style="fill: #bebebe; stroke: #bebebe; stroke-width: 3"/>
    <path d="M 37.453248 274.507007 
C 37.851053 274.507007 38.232618 274.348957 38.513908 274.067667 
C 38.795199 273.786377 38.953248 273.404812 38.953248 273.007007 
C 38.953248 272.609202 38.795199 272.227637 38.513908 271.946347 
C 38.232618 271.665056 37.851053 271.507007 37.453248 271.507007 
C 37.055443 271.507007 36.673878 271.665056 36.392588 271.946347 
C 36.111297 272.227637 35.953248 272.609202 35.953248 273.007007 
C 35.953248 273.404812 36.111297 273.786377 36.392588 274.067667 
C 36.673878 274.348957 37.055443 274.507007 37.453248 274.507007 
z
" clip-path="url(#p8c69093905)" style="fill: #bebebe; stroke: #bebebe; stroke-width: 3"/>
    <path d="M 67.25902 287.490051 
C 67.656825 287.490051 68.03839 287.332002 68.31968 287.050711 
C 68.60097 286.769421 68.75902 286.387856 68.75902 285.990051 
C 68.75902 285.592247 68.60097 285.210681 68.31968 284.929391 
C 68.03839 284.648101 67.656825 284.490051 67.25902 284.490051 
C 66.861215 284.490051 66.47965 284.648101 66.19836 284.929391 
C 65.917069 285.210681 65.75902 285.592247 65.75902 285.990051 
C 65.75902 286.387856 65.917069 286.769421 66.19836 287.050711 
C 66.47965 287.332002 66.861215 287.490051 67.25902 287.490051 
z
" clip-path="url(#p8c69093905)" style="fill: #bebebe; stroke: #bebebe; stroke-width: 3"/>
    <path d="M 104.10098 291.990051 
C 105.692199 291.990051 107.218459 291.357853 108.343621 290.232692 
C 109.468782 289.10753 110.10098 287.58127 110.10098 285.990051 
C 110.10098 284.398833 109.468782 282.872572 108.343621 281.74741 
C 107.218459 280.622249 105.692199 279.990051 104.10098 279.990051 
C 102.509762 279.990051 100.983501 280.622249 99.858339 281.74741 
C 98.733178 282.872572 98.10098 284.398833 98.10098 285.990051 
C 98.10098 287.58127 98.733178 289.10753 99.858339 290.232692 
C 100.983501 291.357853 102.509762 291.990051 104.10098 291.990051 
z
" clip-path="url(#p8c69093905)" style="fill: #bebebe; stroke: #bebebe; stroke-width: 3"/>
    <path d="M 133.906752 279.007007 
C 135.497971 279.007007 137.024231 278.374809 138.149393 277.249648 
C 139.274554 276.124486 139.906752 274.598225 139.906752 273.007007 
C 139.906752 271.415788 139.274554 269.889528 138.149393 268.764366 
C 137.024231 267.639205 135.497971 267.007007 133.906752 267.007007 
C 132.315533 267.007007 130.789273 267.639205 129.664111 268.764366 
C 128.53895 269.889528 127.906752 271.415788 127.906752 273.007007 
C 127.906752 274.598225 128.53895 276.124486 129.664111 277.249648 
C 130.789273 278.374809 132.315533 279.007007 133.906752 279.007007 
z
" clip-path="url(#p8c69093905)" style="fill: #bebebe; stroke: #bebebe; stroke-width: 3"/>
   </g>
   <g id="matplotlib.axis_5"/>
   <g id="matplotlib.axis_6"/>
  </g>
  <g id="axes_4">
   <g id="patch_5">
    <path d="M 12.852 394.56 
L 158.508 394.56 
L 158.508 306.72 
L 12.852 306.72 
z
" style="fill: #ffffff"/>
   </g>
   <g id="EdgeCollection_4">
    <path d="M 146.598758 351.39 
C 172.029916 364.259715 172.029916 337.020285 146.598758 349.89 
C 172.029916 337.020285 172.029916 364.259715 146.598758 351.39 
" clip-path="url(#pf78cfd0154)" style="fill: #020202"/>
    <path d="M 144.592872 349.316986 
L 134.783136 330.956007 
" clip-path="url(#pf78cfd0154)" style="fill: #020202"/>
    <path d="M 144.149496 349.6772 
L 105.843184 317.612749 
" clip-path="url(#pf78cfd0154)" style="fill: #020202"/>
    <path d="M 143.927685 350.033765 
L 73.861308 319.074887 
" clip-path="url(#pf78cfd0154)" style="fill: #020202"/>
    <path d="M 143.828174 350.34922 
L 40.461387 329.923773 
" clip-path="url(#pf78cfd0154)" style="fill: #020202"/>
    <path d="M 143.79972 350.64 
L 33.766409 350.64 
" clip-path="url(#pf78cfd0154)" style="fill: #020202"/>
    <path d="M 143.828174 350.93078 
L 40.461387 371.356227 
" clip-path="url(#pf78cfd0154)" style="fill: #020202"/>
    <path d="M 143.927685 351.246235 
L 69.745204 384.023817 
" clip-path="url(#pf78cfd0154)" style="fill: #020202"/>
    <path d="M 144.149496 351.6028 
L 109.293857 380.778851 
" clip-path="url(#pf78cfd0154)" style="fill: #020202"/>
    <path d="M 144.592872 351.963014 
L 136.903679 366.354951 
" clip-path="url(#pf78cfd0154)" style="fill: #020202"/>
    <path d="M 135.509684 329.190982 
C 162.242269 319.304515 142.275922 300.775308 134.410193 328.170629 
C 142.275922 300.775308 162.242269 319.304515 135.509684 329.190982 
" clip-path="url(#pf78cfd0154)" style="fill: #020202"/>
    <path d="M 132.704253 329.026759 
L 106.064995 317.256183 
" clip-path="url(#pf78cfd0154)" style="fill: #020202"/>
    <path d="M 132.604742 329.342213 
L 74.259352 317.813068 
" clip-path="url(#pf78cfd0154)" style="fill: #020202; stroke: #020202; stroke-width: 1.485"/>
    <path d="M 132.576288 329.632993 
L 40.489841 329.632993 
" clip-path="url(#pf78cfd0154)" style="fill: #020202"/>
    <path d="M 132.604742 329.923773 
L 33.652592 349.476881 
" clip-path="url(#pf78cfd0154)" style="fill: #020202"/>
    <path d="M 132.704253 330.239228 
L 40.361876 371.040772 
" clip-path="url(#pf78cfd0154)" style="fill: #020202"/>
    <path d="M 132.926063 330.595793 
L 69.523393 383.667251 
" clip-path="url(#pf78cfd0154)" style="fill: #020202"/>
    <path d="M 133.36944 330.956007 
L 107.520351 379.337995 
" clip-path="url(#pf78cfd0154)" style="fill: #020202; stroke: #020202; stroke-width: 1.485"/>
    <path d="M 134.076288 331.132993 
L 134.076288 365.647007 
" clip-path="url(#pf78cfd0154)" style="fill: #020202; stroke: #020202; stroke-width: 1.485"/>
    <path d="M 105.695081 315.533816 
C 123.539648 293.308948 96.887499 287.683161 104.227421 315.22402 
C 96.887499 287.683161 123.539648 293.308948 105.695081 315.533816 
" clip-path="url(#pf78cfd0154)" style="fill: #020202"/>
    <path d="M 103.19296 316.649949 
L 74.373169 316.649949 
" clip-path="url(#pf78cfd0154)" style="fill: #020202"/>
    <path d="M 103.221414 316.940729 
L 40.461387 329.342213 
" clip-path="url(#pf78cfd0154)" style="fill: #020202"/>
    <path d="M 103.320925 317.256183 
L 33.254548 348.215062 
" clip-path="url(#pf78cfd0154)" style="fill: #020202"/>
    <path d="M 103.542735 317.612749 
L 40.140066 370.684207 
" clip-path="url(#pf78cfd0154)" style="fill: #020202"/>
    <path d="M 103.986112 317.972963 
L 69.080017 383.307037 
" clip-path="url(#pf78cfd0154)" style="fill: #020202"/>
    <path d="M 104.69296 318.149949 
L 104.69296 378.630051 
" clip-path="url(#pf78cfd0154)" style="fill: #020202"/>
    <path d="M 105.399808 317.972963 
L 131.248896 366.354951 
" clip-path="url(#pf78cfd0154)" style="fill: #020202"/>
    <path d="M 70.235323 310.946232 
C 76.17863 287.683161 49.526481 293.308948 64.364682 312.185418 
C 49.526481 293.308948 76.17863 287.683161 70.235323 310.946232 
" clip-path="url(#pf78cfd0154)" style="fill: #020202"/>
    <path d="M 62.88503 319.074887 
L 40.361876 329.026759 
" clip-path="url(#pf78cfd0154)" style="fill: #020202"/>
    <path d="M 63.772271 320.501149 
L 32.367306 346.7888 
" clip-path="url(#pf78cfd0154)" style="fill: #020202; stroke: #020202; stroke-width: 1.485"/>
    <path d="M 65.545777 321.942005 
L 39.696689 370.323993 
" clip-path="url(#pf78cfd0154)" style="fill: #020202"/>
    <path d="M 68.373169 322.649949 
L 68.373169 383.130051 
" clip-path="url(#pf78cfd0154)" style="fill: #020202"/>
    <path d="M 71.200561 321.942005 
L 101.865568 379.337995 
" clip-path="url(#pf78cfd0154)" style="fill: #020202; stroke: #020202; stroke-width: 1.485"/>
    <path d="M 72.974067 320.501149 
L 129.47539 367.795807 
" clip-path="url(#pf78cfd0154)" style="fill: #020202; stroke: #020202; stroke-width: 1.485"/>
    <path d="M 38.655936 328.170629 
C 30.790207 300.775308 10.823859 319.304515 37.556444 329.190982 
C 10.823859 319.304515 30.790207 300.775308 38.655936 328.170629 
" clip-path="url(#pf78cfd0154)" style="fill: #020202"/>
    <path d="M 38.282993 330.956007 
L 30.5938 345.347944 
" clip-path="url(#pf78cfd0154)" style="fill: #020202"/>
    <path d="M 38.989841 331.132993 
L 38.989841 370.147007 
" clip-path="url(#pf78cfd0154)" style="fill: #020202; stroke: #020202; stroke-width: 1.485"/>
    <path d="M 39.696689 330.956007 
L 67.666321 383.307037 
" clip-path="url(#pf78cfd0154)" style="fill: #020202"/>
    <path d="M 40.140066 330.595793 
L 100.092062 380.778851 
" clip-path="url(#pf78cfd0154)" style="fill: #020202"/>
    <path d="M 40.361876 330.239228 
L 128.588148 369.222069 
" clip-path="url(#pf78cfd0154)" style="fill: #020202"/>
    <path d="M 22.570256 347.64 
C 1.036213 337.020285 1.036213 364.259715 22.570256 353.64 
C 1.036213 364.259715 1.036213 337.020285 22.570256 347.64 
" clip-path="url(#pf78cfd0154)" style="fill: #020202"/>
    <path d="M 30.5938 355.932056 
L 38.282993 370.323993 
" clip-path="url(#pf78cfd0154)" style="fill: #020202"/>
    <path d="M 32.367306 354.4912 
L 67.222945 383.667251 
" clip-path="url(#pf78cfd0154)" style="fill: #020202; stroke: #020202; stroke-width: 1.485"/>
    <path d="M 33.254548 353.064938 
L 99.20482 382.205113 
" clip-path="url(#pf78cfd0154)" style="fill: #020202; stroke: #020202; stroke-width: 1.485"/>
    <path d="M 33.652592 351.803119 
L 128.190104 370.483887 
" clip-path="url(#pf78cfd0154)" style="fill: #020202; stroke: #020202; stroke-width: 1.485"/>
    <path d="M 37.556444 372.089018 
C 10.823859 381.975485 30.790207 400.504692 38.655936 373.109371 
C 30.790207 400.504692 10.823859 381.975485 37.556444 372.089018 
" clip-path="url(#pf78cfd0154)" style="fill: #020202"/>
    <path d="M 40.361876 372.253241 
L 67.001134 384.023817 
" clip-path="url(#pf78cfd0154)" style="fill: #020202"/>
    <path d="M 40.461387 371.937787 
L 98.806776 383.466932 
" clip-path="url(#pf78cfd0154)" style="fill: #020202"/>
    <path d="M 40.489841 371.647007 
L 128.076288 371.647007 
" clip-path="url(#pf78cfd0154)" style="fill: #020202"/>
    <path d="M 67.371047 385.746184 
C 49.526481 407.971052 76.17863 413.596839 68.838707 386.05598 
C 76.17863 413.596839 49.526481 407.971052 67.371047 385.746184 
" clip-path="url(#pf78cfd0154)" style="fill: #020202"/>
    <path d="M 69.873169 384.630051 
L 98.69296 384.630051 
" clip-path="url(#pf78cfd0154)" style="fill: #020202"/>
    <path d="M 69.844715 384.339271 
L 128.190104 372.810126 
" clip-path="url(#pf78cfd0154)" style="fill: #020202"/>
    <path d="M 102.830806 390.333768 
C 96.887499 413.596839 123.539648 407.971052 108.701446 389.094582 
C 123.539648 407.971052 96.887499 413.596839 102.830806 390.333768 
" clip-path="url(#pf78cfd0154)" style="fill: #020202"/>
    <path d="M 110.181099 382.205113 
L 128.588148 374.071945 
" clip-path="url(#pf78cfd0154)" style="fill: #020202; stroke: #020202; stroke-width: 1.485"/>
    <path d="M 135.411908 377.496461 
C 142.275922 400.504692 162.242269 381.975485 139.809874 373.415053 
C 162.242269 381.975485 142.275922 400.504692 135.411908 377.496461 
" clip-path="url(#pf78cfd0154)" style="fill: #020202"/>
   </g>
   <g id="VertexCollection_4">
    <path d="M 145.29972 352.14 
C 145.697525 352.14 146.07909 351.981951 146.36038 351.70066 
C 146.641671 351.41937 146.79972 351.037805 146.79972 350.64 
C 146.79972 350.242195 146.641671 349.86063 146.36038 349.57934 
C 146.07909 349.298049 145.697525 349.14 145.29972 349.14 
C 144.901916 349.14 144.52035 349.298049 144.23906 349.57934 
C 143.95777 349.86063 143.79972 350.242195 143.79972 350.64 
C 143.79972 351.037805 143.95777 351.41937 144.23906 351.70066 
C 144.52035 351.981951 144.901916 352.14 145.29972 352.14 
z
" clip-path="url(#pf78cfd0154)" style="fill: #bebebe; stroke: #bebebe; stroke-width: 3"/>
    <path d="M 134.076288 331.132993 
C 134.474092 331.132993 134.855657 330.974944 135.136948 330.693653 
C 135.418238 330.412363 135.576288 330.030798 135.576288 329.632993 
C 135.576288 329.235188 135.418238 328.853623 135.136948 328.572333 
C 134.855657 328.291043 134.474092 328.132993 134.076288 328.132993 
C 133.678483 328.132993 133.296918 328.291043 133.015627 328.572333 
C 132.734337 328.853623 132.576288 329.235188 132.576288 329.632993 
C 132.576288 330.030798 132.734337 330.412363 133.015627 330.693653 
C 133.296918 330.974944 133.678483 331.132993 134.076288 331.132993 
z
" clip-path="url(#pf78cfd0154)" style="fill: #bebebe; stroke: #bebebe; stroke-width: 3"/>
    <path d="M 104.69296 318.149949 
C 105.090764 318.149949 105.47233 317.991899 105.75362 317.710609 
C 106.03491 317.429319 106.19296 317.047753 106.19296 316.649949 
C 106.19296 316.252144 106.03491 315.870579 105.75362 315.589289 
C 105.47233 315.307998 105.090764 315.149949 104.69296 315.149949 
C 104.295155 315.149949 103.91359 315.307998 103.6323 315.589289 
C 103.351009 315.870579 103.19296 316.252144 103.19296 316.649949 
C 103.19296 317.047753 103.351009 317.429319 103.6323 317.710609 
C 103.91359 317.991899 104.295155 318.149949 104.69296 318.149949 
z
" clip-path="url(#pf78cfd0154)" style="fill: #bebebe; stroke: #bebebe; stroke-width: 3"/>
    <path d="M 68.373169 322.649949 
C 69.964388 322.649949 71.490648 322.017751 72.61581 320.89259 
C 73.740971 319.767428 74.373169 318.241167 74.373169 316.649949 
C 74.373169 315.05873 73.740971 313.53247 72.61581 312.407308 
C 71.490648 311.282147 69.964388 310.649949 68.373169 310.649949 
C 66.78195 310.649949 65.25569 311.282147 64.130528 312.407308 
C 63.005367 313.53247 62.373169 315.05873 62.373169 316.649949 
C 62.373169 318.241167 63.005367 319.767428 64.130528 320.89259 
C 65.25569 322.017751 66.78195 322.649949 68.373169 322.649949 
z
" clip-path="url(#pf78cfd0154)" style="fill: #bebebe; stroke: #bebebe; stroke-width: 3"/>
    <path d="M 38.989841 331.132993 
C 39.387646 331.132993 39.769211 330.974944 40.050501 330.693653 
C 40.331792 330.412363 40.489841 330.030798 40.489841 329.632993 
C 40.489841 329.235188 40.331792 328.853623 40.050501 328.572333 
C 39.769211 328.291043 39.387646 328.132993 38.989841 328.132993 
C 38.592036 328.132993 38.210471 328.291043 37.929181 328.572333 
C 37.647891 328.853623 37.489841 329.235188 37.489841 329.632993 
C 37.489841 330.030798 37.647891 330.412363 37.929181 330.693653 
C 38.210471 330.974944 38.592036 331.132993 38.989841 331.132993 
z
" clip-path="url(#pf78cfd0154)" style="fill: #bebebe; stroke: #bebebe; stroke-width: 3"/>
    <path d="M 27.766409 356.64 
C 29.357627 356.64 30.883888 356.007802 32.009049 354.882641 
C 33.134211 353.757479 33.766409 352.231219 33.766409 350.64 
C 33.766409 349.048781 33.134211 347.522521 32.009049 346.397359 
C 30.883888 345.272198 29.357627 344.64 27.766409 344.64 
C 26.17519 344.64 24.648929 345.272198 23.523768 346.397359 
C 22.398606 347.522521 21.766409 349.048781 21.766409 350.64 
C 21.766409 352.231219 22.398606 353.757479 23.523768 354.882641 
C 24.648929 356.007802 26.17519 356.64 27.766409 356.64 
z
" clip-path="url(#pf78cfd0154)" style="fill: #bebebe; stroke: #bebebe; stroke-width: 3"/>
    <path d="M 38.989841 373.147007 
C 39.387646 373.147007 39.769211 372.988957 40.050501 372.707667 
C 40.331792 372.426377 40.489841 372.044812 40.489841 371.647007 
C 40.489841 371.249202 40.331792 370.867637 40.050501 370.586347 
C 39.769211 370.305056 39.387646 370.147007 38.989841 370.147007 
C 38.592036 370.147007 38.210471 370.305056 37.929181 370.586347 
C 37.647891 370.867637 37.489841 371.249202 37.489841 371.647007 
C 37.489841 372.044812 37.647891 372.426377 37.929181 372.707667 
C 38.210471 372.988957 38.592036 373.147007 38.989841 373.147007 
z
" clip-path="url(#pf78cfd0154)" style="fill: #bebebe; stroke: #bebebe; stroke-width: 3"/>
    <path d="M 68.373169 386.130051 
C 68.770974 386.130051 69.152539 385.972002 69.433829 385.690711 
C 69.71512 385.409421 69.873169 385.027856 69.873169 384.630051 
C 69.873169 384.232247 69.71512 383.850681 69.433829 383.569391 
C 69.152539 383.288101 68.770974 383.130051 68.373169 383.130051 
C 67.975364 383.130051 67.593799 383.288101 67.312509 383.569391 
C 67.031218 383.850681 66.873169 384.232247 66.873169 384.630051 
C 66.873169 385.027856 67.031218 385.409421 67.312509 385.690711 
C 67.593799 385.972002 67.975364 386.130051 68.373169 386.130051 
z
" clip-path="url(#pf78cfd0154)" style="fill: #bebebe; stroke: #bebebe; stroke-width: 3"/>
    <path d="M 104.69296 390.630051 
C 106.284178 390.630051 107.810439 389.997853 108.9356 388.872692 
C 110.060762 387.74753 110.69296 386.22127 110.69296 384.630051 
C 110.69296 383.038833 110.060762 381.512572 108.9356 380.38741 
C 107.810439 379.262249 106.284178 378.630051 104.69296 378.630051 
C 103.101741 378.630051 101.57548 379.262249 100.450319 380.38741 
C 99.325158 381.512572 98.69296 383.038833 98.69296 384.630051 
C 98.69296 386.22127 99.325158 387.74753 100.450319 388.872692 
C 101.57548 389.997853 103.101741 390.630051 104.69296 390.630051 
z
" clip-path="url(#pf78cfd0154)" style="fill: #bebebe; stroke: #bebebe; stroke-width: 3"/>
    <path d="M 134.076288 377.647007 
C 135.667506 377.647007 137.193767 377.014809 138.318928 375.889648 
C 139.44409 374.764486 140.076288 373.238225 140.076288 371.647007 
C 140.076288 370.055788 139.44409 368.529528 138.318928 367.404366 
C 137.193767 366.279205 135.667506 365.647007 134.076288 365.647007 
C 132.485069 365.647007 130.958808 366.279205 129.833647 367.404366 
C 128.708485 368.529528 128.076288 370.055788 128.076288 371.647007 
C 128.076288 373.238225 128.708485 374.764486 129.833647 375.889648 
C 130.958808 377.014809 132.485069 377.647007 134.076288 377.647007 
z
" clip-path="url(#pf78cfd0154)" style="fill: #bebebe; stroke: #bebebe; stroke-width: 3"/>
   </g>
   <g id="matplotlib.axis_7"/>
   <g id="matplotlib.axis_8"/>
  </g>
  <g id="axes_5">
   <g id="patch_6">
    <path d="M 12.852 493.2 
L 158.508 493.2 
L 158.508 405.36 
L 12.852 405.36 
z
" style="fill: #ffffff"/>
   </g>
   <g id="EdgeCollection_5">
    <path d="M 146.598758 450.03 
C 172.029916 462.899715 172.029916 435.660285 146.598758 448.53 
C 172.029916 435.660285 172.029916 462.899715 146.598758 450.03 
" clip-path="url(#p10e6447fc1)" style="fill: #020202"/>
    <path d="M 144.592872 447.956986 
L 136.903679 433.565049 
" clip-path="url(#p10e6447fc1)" style="fill: #020202"/>
    <path d="M 144.149496 448.3172 
L 105.843184 416.252749 
" clip-path="url(#p10e6447fc1)" style="fill: #020202"/>
    <path d="M 143.927685 448.673765 
L 73.861308 417.714887 
" clip-path="url(#p10e6447fc1)" style="fill: #020202"/>
    <path d="M 143.828174 448.98922 
L 40.461387 428.563773 
" clip-path="url(#p10e6447fc1)" style="fill: #020202"/>
    <path d="M 143.79972 449.28 
L 33.766409 449.28 
" clip-path="url(#p10e6447fc1)" style="fill: #020202"/>
    <path d="M 143.828174 449.57078 
L 40.461387 469.996227 
" clip-path="url(#p10e6447fc1)" style="fill: #020202"/>
    <path d="M 143.927685 449.886235 
L 69.745204 482.663817 
" clip-path="url(#p10e6447fc1)" style="fill: #020202"/>
    <path d="M 144.149496 450.2428 
L 109.293857 479.418851 
" clip-path="url(#p10e6447fc1)" style="fill: #020202"/>
    <path d="M 144.592872 450.603014 
L 134.783136 468.963993 
" clip-path="url(#p10e6447fc1)" style="fill: #020202"/>
    <path d="M 139.809874 426.504947 
C 162.242269 417.944515 142.275922 399.415308 135.411908 422.423539 
C 142.275922 399.415308 162.242269 417.944515 139.809874 426.504947 
" clip-path="url(#p10e6447fc1)" style="fill: #020202"/>
    <path d="M 128.588148 425.848055 
L 106.064995 415.896183 
" clip-path="url(#p10e6447fc1)" style="fill: #020202"/>
    <path d="M 128.190104 427.109874 
L 74.259352 416.453068 
" clip-path="url(#p10e6447fc1)" style="fill: #020202; stroke: #020202; stroke-width: 1.485"/>
    <path d="M 128.076288 428.272993 
L 40.489841 428.272993 
" clip-path="url(#p10e6447fc1)" style="fill: #020202"/>
    <path d="M 128.190104 429.436113 
L 33.652592 448.116881 
" clip-path="url(#p10e6447fc1)" style="fill: #020202; stroke: #020202; stroke-width: 1.485"/>
    <path d="M 128.588148 430.697931 
L 40.361876 469.680772 
" clip-path="url(#p10e6447fc1)" style="fill: #020202"/>
    <path d="M 129.47539 432.124193 
L 69.523393 482.307251 
" clip-path="url(#p10e6447fc1)" style="fill: #020202"/>
    <path d="M 131.248896 433.565049 
L 107.520351 477.977995 
" clip-path="url(#p10e6447fc1)" style="fill: #020202; stroke: #020202; stroke-width: 1.485"/>
    <path d="M 134.076288 434.272993 
L 134.076288 468.787007 
" clip-path="url(#p10e6447fc1)" style="fill: #020202; stroke: #020202; stroke-width: 1.485"/>
    <path d="M 105.695081 414.173816 
C 123.539648 391.948948 96.887499 386.323161 104.227421 413.86402 
C 96.887499 386.323161 123.539648 391.948948 105.695081 414.173816 
" clip-path="url(#p10e6447fc1)" style="fill: #020202"/>
    <path d="M 103.19296 415.289949 
L 74.373169 415.289949 
" clip-path="url(#p10e6447fc1)" style="fill: #020202"/>
    <path d="M 103.221414 415.580729 
L 40.461387 427.982213 
" clip-path="url(#p10e6447fc1)" style="fill: #020202"/>
    <path d="M 103.320925 415.896183 
L 33.254548 446.855062 
" clip-path="url(#p10e6447fc1)" style="fill: #020202"/>
    <path d="M 103.542735 416.252749 
L 40.140066 469.324207 
" clip-path="url(#p10e6447fc1)" style="fill: #020202"/>
    <path d="M 103.986112 416.612963 
L 69.080017 481.947037 
" clip-path="url(#p10e6447fc1)" style="fill: #020202"/>
    <path d="M 104.69296 416.789949 
L 104.69296 477.270051 
" clip-path="url(#p10e6447fc1)" style="fill: #020202"/>
    <path d="M 105.399808 416.612963 
L 133.36944 468.963993 
" clip-path="url(#p10e6447fc1)" style="fill: #020202"/>
    <path d="M 70.235323 409.586232 
C 76.17863 386.323161 49.526481 391.948948 64.364682 410.825418 
C 49.526481 391.948948 76.17863 386.323161 70.235323 409.586232 
" clip-path="url(#p10e6447fc1)" style="fill: #020202"/>
    <path d="M 62.88503 417.714887 
L 40.361876 427.666759 
" clip-path="url(#p10e6447fc1)" style="fill: #020202"/>
    <path d="M 63.772271 419.141149 
L 32.367306 445.4288 
" clip-path="url(#p10e6447fc1)" style="fill: #020202; stroke: #020202; stroke-width: 1.485"/>
    <path d="M 65.545777 420.582005 
L 39.696689 468.963993 
" clip-path="url(#p10e6447fc1)" style="fill: #020202"/>
    <path d="M 68.373169 421.289949 
L 68.373169 481.770051 
" clip-path="url(#p10e6447fc1)" style="fill: #020202; stroke: #020202; stroke-width: 1.485"/>
    <path d="M 71.200561 420.582005 
L 101.865568 477.977995 
" clip-path="url(#p10e6447fc1)" style="fill: #020202; stroke: #020202; stroke-width: 1.485"/>
    <path d="M 72.974067 419.141149 
L 132.926063 469.324207 
" clip-path="url(#p10e6447fc1)" style="fill: #020202"/>
    <path d="M 38.655936 426.810629 
C 30.790207 399.415308 10.823859 417.944515 37.556444 427.830982 
C 10.823859 417.944515 30.790207 399.415308 38.655936 426.810629 
" clip-path="url(#p10e6447fc1)" style="fill: #020202"/>
    <path d="M 38.282993 429.596007 
L 30.5938 443.987944 
" clip-path="url(#p10e6447fc1)" style="fill: #020202"/>
    <path d="M 38.989841 429.772993 
L 38.989841 468.787007 
" clip-path="url(#p10e6447fc1)" style="fill: #020202"/>
    <path d="M 39.696689 429.596007 
L 67.666321 481.947037 
" clip-path="url(#p10e6447fc1)" style="fill: #020202"/>
    <path d="M 40.140066 429.235793 
L 100.092062 479.418851 
" clip-path="url(#p10e6447fc1)" style="fill: #020202"/>
    <path d="M 40.361876 428.879228 
L 132.704253 469.680772 
" clip-path="url(#p10e6447fc1)" style="fill: #020202"/>
    <path d="M 22.570256 446.28 
C 1.036213 435.660285 1.036213 462.899715 22.570256 452.28 
C 1.036213 462.899715 1.036213 435.660285 22.570256 446.28 
" clip-path="url(#p10e6447fc1)" style="fill: #020202"/>
    <path d="M 30.5938 454.572056 
L 38.282993 468.963993 
" clip-path="url(#p10e6447fc1)" style="fill: #020202"/>
    <path d="M 32.367306 453.1312 
L 67.222945 482.307251 
" clip-path="url(#p10e6447fc1)" style="fill: #020202"/>
    <path d="M 33.254548 451.704938 
L 99.20482 480.845113 
" clip-path="url(#p10e6447fc1)" style="fill: #020202; stroke: #020202; stroke-width: 1.485"/>
    <path d="M 33.652592 450.443119 
L 132.604742 469.996227 
" clip-path="url(#p10e6447fc1)" style="fill: #020202; stroke: #020202; stroke-width: 1.485"/>
    <path d="M 37.556444 470.729018 
C 10.823859 480.615485 30.790207 499.144692 38.655936 471.749371 
C 30.790207 499.144692 10.823859 480.615485 37.556444 470.729018 
" clip-path="url(#p10e6447fc1)" style="fill: #020202"/>
    <path d="M 40.361876 470.893241 
L 67.001134 482.663817 
" clip-path="url(#p10e6447fc1)" style="fill: #020202"/>
    <path d="M 40.461387 470.577787 
L 98.806776 482.106932 
" clip-path="url(#p10e6447fc1)" style="fill: #020202"/>
    <path d="M 40.489841 470.287007 
L 132.576288 470.287007 
" clip-path="url(#p10e6447fc1)" style="fill: #020202"/>
    <path d="M 67.371047 484.386184 
C 49.526481 506.611052 76.17863 512.236839 68.838707 484.69598 
C 76.17863 512.236839 49.526481 506.611052 67.371047 484.386184 
" clip-path="url(#p10e6447fc1)" style="fill: #020202"/>
    <path d="M 69.873169 483.270051 
L 98.69296 483.270051 
" clip-path="url(#p10e6447fc1)" style="fill: #020202"/>
    <path d="M 69.844715 482.979271 
L 132.604742 470.577787 
" clip-path="url(#p10e6447fc1)" style="fill: #020202"/>
    <path d="M 102.830806 488.973768 
C 96.887499 512.236839 123.539648 506.611052 108.701446 487.734582 
C 123.539648 506.611052 96.887499 512.236839 102.830806 488.973768 
" clip-path="url(#p10e6447fc1)" style="fill: #020202"/>
    <path d="M 110.181099 480.845113 
L 132.704253 470.893241 
" clip-path="url(#p10e6447fc1)" style="fill: #020202; stroke: #020202; stroke-width: 1.485"/>
    <path d="M 134.410193 471.749371 
C 142.275922 499.144692 162.242269 480.615485 135.509684 470.729018 
C 162.242269 480.615485 142.275922 499.144692 134.410193 471.749371 
" clip-path="url(#p10e6447fc1)" style="fill: #020202"/>
   </g>
   <g id="VertexCollection_5">
    <path d="M 145.29972 450.78 
C 145.697525 450.78 146.07909 450.621951 146.36038 450.34066 
C 146.641671 450.05937 146.79972 449.677805 146.79972 449.28 
C 146.79972 448.882195 146.641671 448.50063 146.36038 448.21934 
C 146.07909 447.938049 145.697525 447.78 145.29972 447.78 
C 144.901916 447.78 144.52035 447.938049 144.23906 448.21934 
C 143.95777 448.50063 143.79972 448.882195 143.79972 449.28 
C 143.79972 449.677805 143.95777 450.05937 144.23906 450.34066 
C 144.52035 450.621951 144.901916 450.78 145.29972 450.78 
z
" clip-path="url(#p10e6447fc1)" style="fill: #bebebe; stroke: #bebebe; stroke-width: 3"/>
    <path d="M 134.076288 434.272993 
C 135.667506 434.272993 137.193767 433.640795 138.318928 432.515634 
C 139.44409 431.390472 140.076288 429.864212 140.076288 428.272993 
C 140.076288 426.681775 139.44409 425.155514 138.318928 424.030352 
C 137.193767 422.905191 135.667506 422.272993 134.076288 422.272993 
C 132.485069 422.272993 130.958808 422.905191 129.833647 424.030352 
C 128.708485 425.155514 128.076288 426.681775 128.076288 428.272993 
C 128.076288 429.864212 128.708485 431.390472 129.833647 432.515634 
C 130.958808 433.640795 132.485069 434.272993 134.076288 434.272993 
z
" clip-path="url(#p10e6447fc1)" style="fill: #bebebe; stroke: #bebebe; stroke-width: 3"/>
    <path d="M 104.69296 416.789949 
C 105.090764 416.789949 105.47233 416.631899 105.75362 416.350609 
C 106.03491 416.069319 106.19296 415.687753 106.19296 415.289949 
C 106.19296 414.892144 106.03491 414.510579 105.75362 414.229289 
C 105.47233 413.947998 105.090764 413.789949 104.69296 413.789949 
C 104.295155 413.789949 103.91359 413.947998 103.6323 414.229289 
C 103.351009 414.510579 103.19296 414.892144 103.19296 415.289949 
C 103.19296 415.687753 103.351009 416.069319 103.6323 416.350609 
C 103.91359 416.631899 104.295155 416.789949 104.69296 416.789949 
z
" clip-path="url(#p10e6447fc1)" style="fill: #bebebe; stroke: #bebebe; stroke-width: 3"/>
    <path d="M 68.373169 421.289949 
C 69.964388 421.289949 71.490648 420.657751 72.61581 419.53259 
C 73.740971 418.407428 74.373169 416.881167 74.373169 415.289949 
C 74.373169 413.69873 73.740971 412.17247 72.61581 411.047308 
C 71.490648 409.922147 69.964388 409.289949 68.373169 409.289949 
C 66.78195 409.289949 65.25569 409.922147 64.130528 411.047308 
C 63.005367 412.17247 62.373169 413.69873 62.373169 415.289949 
C 62.373169 416.881167 63.005367 418.407428 64.130528 419.53259 
C 65.25569 420.657751 66.78195 421.289949 68.373169 421.289949 
z
" clip-path="url(#p10e6447fc1)" style="fill: #bebebe; stroke: #bebebe; stroke-width: 3"/>
    <path d="M 38.989841 429.772993 
C 39.387646 429.772993 39.769211 429.614944 40.050501 429.333653 
C 40.331792 429.052363 40.489841 428.670798 40.489841 428.272993 
C 40.489841 427.875188 40.331792 427.493623 40.050501 427.212333 
C 39.769211 426.931043 39.387646 426.772993 38.989841 426.772993 
C 38.592036 426.772993 38.210471 426.931043 37.929181 427.212333 
C 37.647891 427.493623 37.489841 427.875188 37.489841 428.272993 
C 37.489841 428.670798 37.647891 429.052363 37.929181 429.333653 
C 38.210471 429.614944 38.592036 429.772993 38.989841 429.772993 
z
" clip-path="url(#p10e6447fc1)" style="fill: #bebebe; stroke: #bebebe; stroke-width: 3"/>
    <path d="M 27.766409 455.28 
C 29.357627 455.28 30.883888 454.647802 32.009049 453.522641 
C 33.134211 452.397479 33.766409 450.871219 33.766409 449.28 
C 33.766409 447.688781 33.134211 446.162521 32.009049 445.037359 
C 30.883888 443.912198 29.357627 443.28 27.766409 443.28 
C 26.17519 443.28 24.648929 443.912198 23.523768 445.037359 
C 22.398606 446.162521 21.766409 447.688781 21.766409 449.28 
C 21.766409 450.871219 22.398606 452.397479 23.523768 453.522641 
C 24.648929 454.647802 26.17519 455.28 27.766409 455.28 
z
" clip-path="url(#p10e6447fc1)" style="fill: #bebebe; stroke: #bebebe; stroke-width: 3"/>
    <path d="M 38.989841 471.787007 
C 39.387646 471.787007 39.769211 471.628957 40.050501 471.347667 
C 40.331792 471.066377 40.489841 470.684812 40.489841 470.287007 
C 40.489841 469.889202 40.331792 469.507637 40.050501 469.226347 
C 39.769211 468.945056 39.387646 468.787007 38.989841 468.787007 
C 38.592036 468.787007 38.210471 468.945056 37.929181 469.226347 
C 37.647891 469.507637 37.489841 469.889202 37.489841 470.287007 
C 37.489841 470.684812 37.647891 471.066377 37.929181 471.347667 
C 38.210471 471.628957 38.592036 471.787007 38.989841 471.787007 
z
" clip-path="url(#p10e6447fc1)" style="fill: #bebebe; stroke: #bebebe; stroke-width: 3"/>
    <path d="M 68.373169 484.770051 
C 68.770974 484.770051 69.152539 484.612002 69.433829 484.330711 
C 69.71512 484.049421 69.873169 483.667856 69.873169 483.270051 
C 69.873169 482.872247 69.71512 482.490681 69.433829 482.209391 
C 69.152539 481.928101 68.770974 481.770051 68.373169 481.770051 
C 67.975364 481.770051 67.593799 481.928101 67.312509 482.209391 
C 67.031218 482.490681 66.873169 482.872247 66.873169 483.270051 
C 66.873169 483.667856 67.031218 484.049421 67.312509 484.330711 
C 67.593799 484.612002 67.975364 484.770051 68.373169 484.770051 
z
" clip-path="url(#p10e6447fc1)" style="fill: #bebebe; stroke: #bebebe; stroke-width: 3"/>
    <path d="M 104.69296 489.270051 
C 106.284178 489.270051 107.810439 488.637853 108.9356 487.512692 
C 110.060762 486.38753 110.69296 484.86127 110.69296 483.270051 
C 110.69296 481.678833 110.060762 480.152572 108.9356 479.02741 
C 107.810439 477.902249 106.284178 477.270051 104.69296 477.270051 
C 103.101741 477.270051 101.57548 477.902249 100.450319 479.02741 
C 99.325158 480.152572 98.69296 481.678833 98.69296 483.270051 
C 98.69296 484.86127 99.325158 486.38753 100.450319 487.512692 
C 101.57548 488.637853 103.101741 489.270051 104.69296 489.270051 
z
" clip-path="url(#p10e6447fc1)" style="fill: #bebebe; stroke: #bebebe; stroke-width: 3"/>
    <path d="M 134.076288 471.787007 
C 134.474092 471.787007 134.855657 471.628957 135.136948 471.347667 
C 135.418238 471.066377 135.576288 470.684812 135.576288 470.287007 
C 135.576288 469.889202 135.418238 469.507637 135.136948 469.226347 
C 134.855657 468.945056 134.474092 468.787007 134.076288 468.787007 
C 133.678483 468.787007 133.296918 468.945056 133.015627 469.226347 
C 132.734337 469.507637 132.576288 469.889202 132.576288 470.287007 
C 132.576288 470.684812 132.734337 471.066377 133.015627 471.347667 
C 133.296918 471.628957 133.678483 471.787007 134.076288 471.787007 
z
" clip-path="url(#p10e6447fc1)" style="fill: #bebebe; stroke: #bebebe; stroke-width: 3"/>
   </g>
   <g id="matplotlib.axis_9"/>
   <g id="matplotlib.axis_10"/>
  </g>
 </g>
 <defs>
  <clipPath id="p2155c1cc75">
   <rect x="12.852" y="10.8" width="145.656" height="87.84"/>
  </clipPath>
  <clipPath id="p49ec6e04ac">
   <rect x="12.852" y="109.44" width="145.656" height="87.84"/>
  </clipPath>
  <clipPath id="p8c69093905">
   <rect x="12.852" y="208.08" width="145.656" height="87.84"/>
  </clipPath>
  <clipPath id="pf78cfd0154">
   <rect x="12.852" y="306.72" width="145.656" height="87.84"/>
  </clipPath>
  <clipPath id="p10e6447fc1">
   <rect x="12.852" y="405.36" width="145.656" height="87.84"/>
  </clipPath>
 </defs>
</svg>
