<?xml version="1.0" encoding="utf-8" standalone="no"?>
<!DOCTYPE svg PUBLIC "-//W3C//DTD SVG 1.1//EN"
  "http://www.w3.org/Graphics/SVG/1.1/DTD/svg11.dtd">
<svg xmlns:xlink="http://www.w3.org/1999/xlink" width="353.52pt" height="375.84pt" viewBox="0 0 353.52 375.84" xmlns="http://www.w3.org/2000/svg" version="1.1">
 <metadata>
  <rdf:RDF xmlns:dc="http://purl.org/dc/elements/1.1/" xmlns:cc="http://creativecommons.org/ns#" xmlns:rdf="http://www.w3.org/1999/02/22-rdf-syntax-ns#">
   <cc:Work>
    <dc:type rdf:resource="http://purl.org/dc/dcmitype/StillImage"/>
    <dc:date>2025-08-12T10:58:57.651540</dc:date>
    <dc:format>image/svg+xml</dc:format>
    <dc:creator>
     <cc:Agent>
      <dc:title>Matplotlib v3.10.0, https://matplotlib.org/</dc:title>
     </cc:Agent>
    </dc:creator>
   </cc:Work>
  </rdf:RDF>
 </metadata>
 <defs>
  <style type="text/css">*{stroke-linejoin: round; stroke-linecap: butt}</style>
 </defs>
 <g id="figure_1">
  <g id="patch_1">
   <path d="M 0 375.84 
L 353.52 375.84 
L 353.52 0 
L 0 0 
z
" style="fill: #ffffff"/>
  </g>
  <g id="axes_1">
   <g id="patch_2">
    <path d="M 23.460594 345.5205 
L 345.234375 345.5205 
L 345.234375 74.4894 
L 23.460594 74.4894 
z
" style="fill: #ffffff"/>
   </g>
   <g id="PathCollection_1">
    <defs>
     <path id="m38c1ab1a2c" d="M 0 3.872983 
C 1.027127 3.872983 2.012324 3.464901 2.738613 2.738613 
C 3.464901 2.012324 3.872983 1.027127 3.872983 0 
C 3.872983 -1.027127 3.464901 -2.012324 2.738613 -2.738613 
C 2.012324 -3.464901 1.027127 -3.872983 0 -3.872983 
C -1.027127 -3.872983 -2.012324 -3.464901 -2.738613 -2.738613 
C -3.464901 -2.012324 -3.872983 -1.027127 -3.872983 0 
C -3.872983 1.027127 -3.464901 2.012324 -2.738613 2.738613 
C -2.012324 3.464901 -1.027127 3.872983 0 3.872983 
z
" style="stroke: #ff0000; stroke-opacity: 0.4"/>
    </defs>
    <g clip-path="url(#p932cf45e6e)">
     <use xlink:href="#m38c1ab1a2c" x="93.761329" y="184.548169" style="fill: #ff0000; fill-opacity: 0.4; stroke: #ff0000; stroke-opacity: 0.4"/>
     <use xlink:href="#m38c1ab1a2c" x="101.34127" y="283.649993" style="fill: #ff0000; fill-opacity: 0.4; stroke: #ff0000; stroke-opacity: 0.4"/>
     <use xlink:href="#m38c1ab1a2c" x="103.157358" y="110.221801" style="fill: #ff0000; fill-opacity: 0.4; stroke: #ff0000; stroke-opacity: 0.4"/>
     <use xlink:href="#m38c1ab1a2c" x="108.056548" y="184.548169" style="fill: #ff0000; fill-opacity: 0.4; stroke: #ff0000; stroke-opacity: 0.4"/>
     <use xlink:href="#m38c1ab1a2c" x="111.970062" y="209.323625" style="fill: #ff0000; fill-opacity: 0.4; stroke: #ff0000; stroke-opacity: 0.4"/>
     <use xlink:href="#m38c1ab1a2c" x="100.630218" y="209.323625" style="fill: #ff0000; fill-opacity: 0.4; stroke: #ff0000; stroke-opacity: 0.4"/>
     <use xlink:href="#m38c1ab1a2c" x="107.451407" y="159.772713" style="fill: #ff0000; fill-opacity: 0.4; stroke: #ff0000; stroke-opacity: 0.4"/>
     <use xlink:href="#m38c1ab1a2c" x="96.023121" y="110.221801" style="fill: #ff0000; fill-opacity: 0.4; stroke: #ff0000; stroke-opacity: 0.4"/>
     <use xlink:href="#m38c1ab1a2c" x="100.761423" y="258.874537" style="fill: #ff0000; fill-opacity: 0.4; stroke: #ff0000; stroke-opacity: 0.4"/>
     <use xlink:href="#m38c1ab1a2c" x="104.853424" y="258.874537" style="fill: #ff0000; fill-opacity: 0.4; stroke: #ff0000; stroke-opacity: 0.4"/>
     <use xlink:href="#m38c1ab1a2c" x="110.059063" y="209.323625" style="fill: #ff0000; fill-opacity: 0.4; stroke: #ff0000; stroke-opacity: 0.4"/>
     <use xlink:href="#m38c1ab1a2c" x="100.339119" y="134.997257" style="fill: #ff0000; fill-opacity: 0.4; stroke: #ff0000; stroke-opacity: 0.4"/>
     <use xlink:href="#m38c1ab1a2c" x="105.939516" y="184.548169" style="fill: #ff0000; fill-opacity: 0.4; stroke: #ff0000; stroke-opacity: 0.4"/>
     <use xlink:href="#m38c1ab1a2c" x="88.889015" y="134.997257" style="fill: #ff0000; fill-opacity: 0.4; stroke: #ff0000; stroke-opacity: 0.4"/>
     <use xlink:href="#m38c1ab1a2c" x="92.299168" y="283.649993" style="fill: #ff0000; fill-opacity: 0.4; stroke: #ff0000; stroke-opacity: 0.4"/>
     <use xlink:href="#m38c1ab1a2c" x="94.204119" y="110.221801" style="fill: #ff0000; fill-opacity: 0.4; stroke: #ff0000; stroke-opacity: 0.4"/>
     <use xlink:href="#m38c1ab1a2c" x="101.950843" y="134.997257" style="fill: #ff0000; fill-opacity: 0.4; stroke: #ff0000; stroke-opacity: 0.4"/>
     <use xlink:href="#m38c1ab1a2c" x="103.077157" y="134.997257" style="fill: #ff0000; fill-opacity: 0.4; stroke: #ff0000; stroke-opacity: 0.4"/>
     <use xlink:href="#m38c1ab1a2c" x="106.165167" y="258.874537" style="fill: #ff0000; fill-opacity: 0.4; stroke: #ff0000; stroke-opacity: 0.4"/>
     <use xlink:href="#m38c1ab1a2c" x="112.441764" y="308.425449" style="fill: #ff0000; fill-opacity: 0.4; stroke: #ff0000; stroke-opacity: 0.4"/>
     <use xlink:href="#m38c1ab1a2c" x="114.6577" y="209.323625" style="fill: #ff0000; fill-opacity: 0.4; stroke: #ff0000; stroke-opacity: 0.4"/>
     <use xlink:href="#m38c1ab1a2c" x="113.548631" y="110.221801" style="fill: #ff0000; fill-opacity: 0.4; stroke: #ff0000; stroke-opacity: 0.4"/>
     <use xlink:href="#m38c1ab1a2c" x="94.623394" y="209.323625" style="fill: #ff0000; fill-opacity: 0.4; stroke: #ff0000; stroke-opacity: 0.4"/>
     <use xlink:href="#m38c1ab1a2c" x="100.955324" y="234.099081" style="fill: #ff0000; fill-opacity: 0.4; stroke: #ff0000; stroke-opacity: 0.4"/>
     <use xlink:href="#m38c1ab1a2c" x="104.79514" y="134.997257" style="fill: #ff0000; fill-opacity: 0.4; stroke: #ff0000; stroke-opacity: 0.4"/>
     <use xlink:href="#m38c1ab1a2c" x="109.124539" y="308.425449" style="fill: #ff0000; fill-opacity: 0.4; stroke: #ff0000; stroke-opacity: 0.4"/>
     <use xlink:href="#m38c1ab1a2c" x="113.628383" y="110.221801" style="fill: #ff0000; fill-opacity: 0.4; stroke: #ff0000; stroke-opacity: 0.4"/>
     <use xlink:href="#m38c1ab1a2c" x="98.386741" y="234.099081" style="fill: #ff0000; fill-opacity: 0.4; stroke: #ff0000; stroke-opacity: 0.4"/>
     <use xlink:href="#m38c1ab1a2c" x="104.369984" y="184.548169" style="fill: #ff0000; fill-opacity: 0.4; stroke: #ff0000; stroke-opacity: 0.4"/>
     <use xlink:href="#m38c1ab1a2c" x="106.358201" y="308.425449" style="fill: #ff0000; fill-opacity: 0.4; stroke: #ff0000; stroke-opacity: 0.4"/>
     <use xlink:href="#m38c1ab1a2c" x="110.412155" y="159.772713" style="fill: #ff0000; fill-opacity: 0.4; stroke: #ff0000; stroke-opacity: 0.4"/>
     <use xlink:href="#m38c1ab1a2c" x="95.239786" y="209.323625" style="fill: #ff0000; fill-opacity: 0.4; stroke: #ff0000; stroke-opacity: 0.4"/>
     <use xlink:href="#m38c1ab1a2c" x="98.677303" y="258.874537" style="fill: #ff0000; fill-opacity: 0.4; stroke: #ff0000; stroke-opacity: 0.4"/>
     <use xlink:href="#m38c1ab1a2c" x="102.364206" y="110.221801" style="fill: #ff0000; fill-opacity: 0.4; stroke: #ff0000; stroke-opacity: 0.4"/>
     <use xlink:href="#m38c1ab1a2c" x="106.225588" y="308.425449" style="fill: #ff0000; fill-opacity: 0.4; stroke: #ff0000; stroke-opacity: 0.4"/>
     <use xlink:href="#m38c1ab1a2c" x="109.452696" y="209.323625" style="fill: #ff0000; fill-opacity: 0.4; stroke: #ff0000; stroke-opacity: 0.4"/>
     <use xlink:href="#m38c1ab1a2c" x="109.327761" y="134.997257" style="fill: #ff0000; fill-opacity: 0.4; stroke: #ff0000; stroke-opacity: 0.4"/>
     <use xlink:href="#m38c1ab1a2c" x="92.488901" y="209.323625" style="fill: #ff0000; fill-opacity: 0.4; stroke: #ff0000; stroke-opacity: 0.4"/>
     <use xlink:href="#m38c1ab1a2c" x="96.282496" y="159.772713" style="fill: #ff0000; fill-opacity: 0.4; stroke: #ff0000; stroke-opacity: 0.4"/>
     <use xlink:href="#m38c1ab1a2c" x="98.370167" y="184.548169" style="fill: #ff0000; fill-opacity: 0.4; stroke: #ff0000; stroke-opacity: 0.4"/>
     <use xlink:href="#m38c1ab1a2c" x="105.897276" y="110.221801" style="fill: #ff0000; fill-opacity: 0.4; stroke: #ff0000; stroke-opacity: 0.4"/>
     <use xlink:href="#m38c1ab1a2c" x="111.480897" y="308.425449" style="fill: #ff0000; fill-opacity: 0.4; stroke: #ff0000; stroke-opacity: 0.4"/>
     <use xlink:href="#m38c1ab1a2c" x="113.568967" y="209.323625" style="fill: #ff0000; fill-opacity: 0.4; stroke: #ff0000; stroke-opacity: 0.4"/>
     <use xlink:href="#m38c1ab1a2c" x="112.249869" y="159.772713" style="fill: #ff0000; fill-opacity: 0.4; stroke: #ff0000; stroke-opacity: 0.4"/>
    </g>
   </g>
   <g id="PathCollection_2">
    <defs>
     <path id="ma1ab347b71" d="M 0 3.872983 
C 1.027127 3.872983 2.012324 3.464901 2.738613 2.738613 
C 3.464901 2.012324 3.872983 1.027127 3.872983 0 
C 3.872983 -1.027127 3.464901 -2.012324 2.738613 -2.738613 
C 2.012324 -3.464901 1.027127 -3.872983 0 -3.872983 
C -1.027127 -3.872983 -2.012324 -3.464901 -2.738613 -2.738613 
C -3.464901 -2.012324 -3.872983 -1.027127 -3.872983 0 
C -3.872983 1.027127 -3.464901 2.012324 -2.738613 2.738613 
C -2.012324 3.464901 -1.027127 3.872983 0 3.872983 
z
" style="stroke: #808080; stroke-opacity: 0.4"/>
    </defs>
    <g clip-path="url(#p932cf45e6e)">
     <use xlink:href="#ma1ab347b71" x="250.826846" y="159.772713" style="fill: #808080; fill-opacity: 0.4; stroke: #808080; stroke-opacity: 0.4"/>
     <use xlink:href="#ma1ab347b71" x="253.714378" y="110.221801" style="fill: #808080; fill-opacity: 0.4; stroke: #808080; stroke-opacity: 0.4"/>
     <use xlink:href="#ma1ab347b71" x="258.943031" y="308.425449" style="fill: #808080; fill-opacity: 0.4; stroke: #808080; stroke-opacity: 0.4"/>
     <use xlink:href="#ma1ab347b71" x="259.804738" y="134.997257" style="fill: #808080; fill-opacity: 0.4; stroke: #808080; stroke-opacity: 0.4"/>
     <use xlink:href="#ma1ab347b71" x="265.043482" y="258.874537" style="fill: #808080; fill-opacity: 0.4; stroke: #808080; stroke-opacity: 0.4"/>
     <use xlink:href="#ma1ab347b71" x="265.002533" y="234.099081" style="fill: #808080; fill-opacity: 0.4; stroke: #808080; stroke-opacity: 0.4"/>
     <use xlink:href="#ma1ab347b71" x="272.477028" y="209.323625" style="fill: #808080; fill-opacity: 0.4; stroke: #808080; stroke-opacity: 0.4"/>
     <use xlink:href="#ma1ab347b71" x="274.493814" y="134.997257" style="fill: #808080; fill-opacity: 0.4; stroke: #808080; stroke-opacity: 0.4"/>
     <use xlink:href="#ma1ab347b71" x="281.848378" y="258.874537" style="fill: #808080; fill-opacity: 0.4; stroke: #808080; stroke-opacity: 0.4"/>
     <use xlink:href="#ma1ab347b71" x="261.10289" y="159.772713" style="fill: #808080; fill-opacity: 0.4; stroke: #808080; stroke-opacity: 0.4"/>
     <use xlink:href="#ma1ab347b71" x="262.824746" y="234.099081" style="fill: #808080; fill-opacity: 0.4; stroke: #808080; stroke-opacity: 0.4"/>
     <use xlink:href="#ma1ab347b71" x="266.989123" y="209.323625" style="fill: #808080; fill-opacity: 0.4; stroke: #808080; stroke-opacity: 0.4"/>
     <use xlink:href="#ma1ab347b71" x="274.038276" y="184.548169" style="fill: #808080; fill-opacity: 0.4; stroke: #808080; stroke-opacity: 0.4"/>
     <use xlink:href="#ma1ab347b71" x="250.387109" y="258.874537" style="fill: #808080; fill-opacity: 0.4; stroke: #808080; stroke-opacity: 0.4"/>
     <use xlink:href="#ma1ab347b71" x="254.604446" y="234.099081" style="fill: #808080; fill-opacity: 0.4; stroke: #808080; stroke-opacity: 0.4"/>
     <use xlink:href="#ma1ab347b71" x="259.31286" y="159.772713" style="fill: #808080; fill-opacity: 0.4; stroke: #808080; stroke-opacity: 0.4"/>
     <use xlink:href="#ma1ab347b71" x="259.73097" y="134.997257" style="fill: #808080; fill-opacity: 0.4; stroke: #808080; stroke-opacity: 0.4"/>
     <use xlink:href="#ma1ab347b71" x="266.678854" y="283.649993" style="fill: #808080; fill-opacity: 0.4; stroke: #808080; stroke-opacity: 0.4"/>
     <use xlink:href="#ma1ab347b71" x="269.562707" y="110.221801" style="fill: #808080; fill-opacity: 0.4; stroke: #808080; stroke-opacity: 0.4"/>
     <use xlink:href="#ma1ab347b71" x="272.781373" y="184.548169" style="fill: #808080; fill-opacity: 0.4; stroke: #808080; stroke-opacity: 0.4"/>
     <use xlink:href="#ma1ab347b71" x="274.29354" y="258.874537" style="fill: #808080; fill-opacity: 0.4; stroke: #808080; stroke-opacity: 0.4"/>
     <use xlink:href="#ma1ab347b71" x="280.219897" y="234.099081" style="fill: #808080; fill-opacity: 0.4; stroke: #808080; stroke-opacity: 0.4"/>
     <use xlink:href="#ma1ab347b71" x="245.46747" y="209.323625" style="fill: #808080; fill-opacity: 0.4; stroke: #808080; stroke-opacity: 0.4"/>
     <use xlink:href="#ma1ab347b71" x="251.831044" y="333.200905" style="fill: #808080; fill-opacity: 0.4; stroke: #808080; stroke-opacity: 0.4"/>
     <use xlink:href="#ma1ab347b71" x="250.043367" y="184.548169" style="fill: #808080; fill-opacity: 0.4; stroke: #808080; stroke-opacity: 0.4"/>
     <use xlink:href="#ma1ab347b71" x="255.623501" y="234.099081" style="fill: #808080; fill-opacity: 0.4; stroke: #808080; stroke-opacity: 0.4"/>
     <use xlink:href="#ma1ab347b71" x="258.230508" y="134.997257" style="fill: #808080; fill-opacity: 0.4; stroke: #808080; stroke-opacity: 0.4"/>
     <use xlink:href="#ma1ab347b71" x="266.028046" y="159.772713" style="fill: #808080; fill-opacity: 0.4; stroke: #808080; stroke-opacity: 0.4"/>
     <use xlink:href="#ma1ab347b71" x="268.911313" y="333.200905" style="fill: #808080; fill-opacity: 0.4; stroke: #808080; stroke-opacity: 0.4"/>
     <use xlink:href="#ma1ab347b71" x="271.729597" y="134.997257" style="fill: #808080; fill-opacity: 0.4; stroke: #808080; stroke-opacity: 0.4"/>
     <use xlink:href="#ma1ab347b71" x="274.998708" y="110.221801" style="fill: #808080; fill-opacity: 0.4; stroke: #808080; stroke-opacity: 0.4"/>
     <use xlink:href="#ma1ab347b71" x="277.701616" y="234.099081" style="fill: #808080; fill-opacity: 0.4; stroke: #808080; stroke-opacity: 0.4"/>
     <use xlink:href="#ma1ab347b71" x="280.297682" y="159.772713" style="fill: #808080; fill-opacity: 0.4; stroke: #808080; stroke-opacity: 0.4"/>
     <use xlink:href="#ma1ab347b71" x="246.387878" y="184.548169" style="fill: #808080; fill-opacity: 0.4; stroke: #808080; stroke-opacity: 0.4"/>
     <use xlink:href="#ma1ab347b71" x="251.574273" y="283.649993" style="fill: #808080; fill-opacity: 0.4; stroke: #808080; stroke-opacity: 0.4"/>
     <use xlink:href="#ma1ab347b71" x="254.371889" y="333.200905" style="fill: #808080; fill-opacity: 0.4; stroke: #808080; stroke-opacity: 0.4"/>
     <use xlink:href="#ma1ab347b71" x="258.367814" y="159.772713" style="fill: #808080; fill-opacity: 0.4; stroke: #808080; stroke-opacity: 0.4"/>
     <use xlink:href="#ma1ab347b71" x="258.746022" y="110.221801" style="fill: #808080; fill-opacity: 0.4; stroke: #808080; stroke-opacity: 0.4"/>
     <use xlink:href="#ma1ab347b71" x="265.396882" y="308.425449" style="fill: #808080; fill-opacity: 0.4; stroke: #808080; stroke-opacity: 0.4"/>
     <use xlink:href="#ma1ab347b71" x="266.457173" y="258.874537" style="fill: #808080; fill-opacity: 0.4; stroke: #808080; stroke-opacity: 0.4"/>
     <use xlink:href="#ma1ab347b71" x="272.094552" y="159.772713" style="fill: #808080; fill-opacity: 0.4; stroke: #808080; stroke-opacity: 0.4"/>
     <use xlink:href="#ma1ab347b71" x="277.986908" y="184.548169" style="fill: #808080; fill-opacity: 0.4; stroke: #808080; stroke-opacity: 0.4"/>
     <use xlink:href="#ma1ab347b71" x="281.107918" y="110.221801" style="fill: #808080; fill-opacity: 0.4; stroke: #808080; stroke-opacity: 0.4"/>
     <use xlink:href="#ma1ab347b71" x="283.829418" y="209.323625" style="fill: #808080; fill-opacity: 0.4; stroke: #808080; stroke-opacity: 0.4"/>
     <use xlink:href="#ma1ab347b71" x="256.141398" y="234.099081" style="fill: #808080; fill-opacity: 0.4; stroke: #808080; stroke-opacity: 0.4"/>
     <use xlink:href="#ma1ab347b71" x="259.674375" y="258.874537" style="fill: #808080; fill-opacity: 0.4; stroke: #808080; stroke-opacity: 0.4"/>
     <use xlink:href="#ma1ab347b71" x="263.714969" y="283.649993" style="fill: #808080; fill-opacity: 0.4; stroke: #808080; stroke-opacity: 0.4"/>
     <use xlink:href="#ma1ab347b71" x="266.627935" y="159.772713" style="fill: #808080; fill-opacity: 0.4; stroke: #808080; stroke-opacity: 0.4"/>
     <use xlink:href="#ma1ab347b71" x="270.405102" y="184.548169" style="fill: #808080; fill-opacity: 0.4; stroke: #808080; stroke-opacity: 0.4"/>
     <use xlink:href="#ma1ab347b71" x="275.402603" y="209.323625" style="fill: #808080; fill-opacity: 0.4; stroke: #808080; stroke-opacity: 0.4"/>
     <use xlink:href="#ma1ab347b71" x="248.448266" y="258.874537" style="fill: #808080; fill-opacity: 0.4; stroke: #808080; stroke-opacity: 0.4"/>
     <use xlink:href="#ma1ab347b71" x="254.924357" y="110.221801" style="fill: #808080; fill-opacity: 0.4; stroke: #808080; stroke-opacity: 0.4"/>
     <use xlink:href="#ma1ab347b71" x="256.054529" y="159.772713" style="fill: #808080; fill-opacity: 0.4; stroke: #808080; stroke-opacity: 0.4"/>
     <use xlink:href="#ma1ab347b71" x="261.281627" y="184.548169" style="fill: #808080; fill-opacity: 0.4; stroke: #808080; stroke-opacity: 0.4"/>
     <use xlink:href="#ma1ab347b71" x="263.027132" y="283.649993" style="fill: #808080; fill-opacity: 0.4; stroke: #808080; stroke-opacity: 0.4"/>
     <use xlink:href="#ma1ab347b71" x="267.311195" y="283.649993" style="fill: #808080; fill-opacity: 0.4; stroke: #808080; stroke-opacity: 0.4"/>
     <use xlink:href="#ma1ab347b71" x="273.620904" y="159.772713" style="fill: #808080; fill-opacity: 0.4; stroke: #808080; stroke-opacity: 0.4"/>
     <use xlink:href="#ma1ab347b71" x="275.41506" y="333.200905" style="fill: #808080; fill-opacity: 0.4; stroke: #808080; stroke-opacity: 0.4"/>
     <use xlink:href="#ma1ab347b71" x="279.914091" y="159.772713" style="fill: #808080; fill-opacity: 0.4; stroke: #808080; stroke-opacity: 0.4"/>
     <use xlink:href="#ma1ab347b71" x="245.854907" y="209.323625" style="fill: #808080; fill-opacity: 0.4; stroke: #808080; stroke-opacity: 0.4"/>
     <use xlink:href="#ma1ab347b71" x="252.09542" y="134.997257" style="fill: #808080; fill-opacity: 0.4; stroke: #808080; stroke-opacity: 0.4"/>
     <use xlink:href="#ma1ab347b71" x="251.185449" y="283.649993" style="fill: #808080; fill-opacity: 0.4; stroke: #808080; stroke-opacity: 0.4"/>
     <use xlink:href="#ma1ab347b71" x="254.41503" y="258.874537" style="fill: #808080; fill-opacity: 0.4; stroke: #808080; stroke-opacity: 0.4"/>
     <use xlink:href="#ma1ab347b71" x="259.630143" y="333.200905" style="fill: #808080; fill-opacity: 0.4; stroke: #808080; stroke-opacity: 0.4"/>
     <use xlink:href="#ma1ab347b71" x="264.217667" y="308.425449" style="fill: #808080; fill-opacity: 0.4; stroke: #808080; stroke-opacity: 0.4"/>
     <use xlink:href="#ma1ab347b71" x="269.483769" y="283.649993" style="fill: #808080; fill-opacity: 0.4; stroke: #808080; stroke-opacity: 0.4"/>
     <use xlink:href="#ma1ab347b71" x="273.229794" y="110.221801" style="fill: #808080; fill-opacity: 0.4; stroke: #808080; stroke-opacity: 0.4"/>
     <use xlink:href="#ma1ab347b71" x="275.72066" y="184.548169" style="fill: #808080; fill-opacity: 0.4; stroke: #808080; stroke-opacity: 0.4"/>
     <use xlink:href="#ma1ab347b71" x="277.529498" y="234.099081" style="fill: #808080; fill-opacity: 0.4; stroke: #808080; stroke-opacity: 0.4"/>
     <use xlink:href="#ma1ab347b71" x="283.529556" y="134.997257" style="fill: #808080; fill-opacity: 0.4; stroke: #808080; stroke-opacity: 0.4"/>
     <use xlink:href="#ma1ab347b71" x="286.015945" y="333.200905" style="fill: #808080; fill-opacity: 0.4; stroke: #808080; stroke-opacity: 0.4"/>
     <use xlink:href="#ma1ab347b71" x="250.567907" y="159.772713" style="fill: #808080; fill-opacity: 0.4; stroke: #808080; stroke-opacity: 0.4"/>
     <use xlink:href="#ma1ab347b71" x="253.6285" y="258.874537" style="fill: #808080; fill-opacity: 0.4; stroke: #808080; stroke-opacity: 0.4"/>
     <use xlink:href="#ma1ab347b71" x="258.373891" y="234.099081" style="fill: #808080; fill-opacity: 0.4; stroke: #808080; stroke-opacity: 0.4"/>
     <use xlink:href="#ma1ab347b71" x="260.119338" y="333.200905" style="fill: #808080; fill-opacity: 0.4; stroke: #808080; stroke-opacity: 0.4"/>
     <use xlink:href="#ma1ab347b71" x="263.611131" y="134.997257" style="fill: #808080; fill-opacity: 0.4; stroke: #808080; stroke-opacity: 0.4"/>
     <use xlink:href="#ma1ab347b71" x="268.07463" y="258.874537" style="fill: #808080; fill-opacity: 0.4; stroke: #808080; stroke-opacity: 0.4"/>
     <use xlink:href="#ma1ab347b71" x="271.960434" y="234.099081" style="fill: #808080; fill-opacity: 0.4; stroke: #808080; stroke-opacity: 0.4"/>
     <use xlink:href="#ma1ab347b71" x="274.951133" y="333.200905" style="fill: #808080; fill-opacity: 0.4; stroke: #808080; stroke-opacity: 0.4"/>
     <use xlink:href="#ma1ab347b71" x="280.61637" y="308.425449" style="fill: #808080; fill-opacity: 0.4; stroke: #808080; stroke-opacity: 0.4"/>
     <use xlink:href="#ma1ab347b71" x="252.376582" y="283.649993" style="fill: #808080; fill-opacity: 0.4; stroke: #808080; stroke-opacity: 0.4"/>
     <use xlink:href="#ma1ab347b71" x="256.910258" y="258.874537" style="fill: #808080; fill-opacity: 0.4; stroke: #808080; stroke-opacity: 0.4"/>
     <use xlink:href="#ma1ab347b71" x="258.164383" y="333.200905" style="fill: #808080; fill-opacity: 0.4; stroke: #808080; stroke-opacity: 0.4"/>
     <use xlink:href="#ma1ab347b71" x="263.317134" y="283.649993" style="fill: #808080; fill-opacity: 0.4; stroke: #808080; stroke-opacity: 0.4"/>
     <use xlink:href="#ma1ab347b71" x="268.19074" y="110.221801" style="fill: #808080; fill-opacity: 0.4; stroke: #808080; stroke-opacity: 0.4"/>
     <use xlink:href="#ma1ab347b71" x="268.76022" y="184.548169" style="fill: #808080; fill-opacity: 0.4; stroke: #808080; stroke-opacity: 0.4"/>
     <use xlink:href="#ma1ab347b71" x="273.714651" y="134.997257" style="fill: #808080; fill-opacity: 0.4; stroke: #808080; stroke-opacity: 0.4"/>
     <use xlink:href="#ma1ab347b71" x="278.012184" y="234.099081" style="fill: #808080; fill-opacity: 0.4; stroke: #808080; stroke-opacity: 0.4"/>
    </g>
   </g>
   <g id="matplotlib.axis_1">
    <g id="xtick_1">
     <g id="line2d_1">
      <defs>
       <path id="m88927749c5" d="M 0 0 
L 0 3.5 
" style="stroke: #000000; stroke-width: 0.8"/>
      </defs>
      <g>
       <use xlink:href="#m88927749c5" x="103.904039" y="345.5205" style="stroke: #000000; stroke-width: 0.8"/>
      </g>
     </g>
     <g id="text_1">
      <!-- Mutants -->
      <g transform="translate(82.778258 360.118937) scale(0.1 -0.1)">
       <defs>
        <path id="DejaVuSerif-4d" d="M 353 0 
L 353 331 
L 947 331 
L 947 4331 
L 319 4331 
L 319 4666 
L 1678 4666 
L 3316 1344 
L 4953 4666 
L 6228 4666 
L 6228 4331 
L 5606 4331 
L 5606 331 
L 6203 331 
L 6203 0 
L 4378 0 
L 4378 331 
L 4972 331 
L 4972 3938 
L 3372 684 
L 2931 684 
L 1331 3938 
L 1331 331 
L 1925 331 
L 1925 0 
L 353 0 
z
" transform="scale(0.015625)"/>
        <path id="DejaVuSerif-75" d="M 2266 3322 
L 3341 3322 
L 3341 331 
L 3884 331 
L 3884 0 
L 2766 0 
L 2766 588 
Q 2606 256 2353 82 
Q 2100 -91 1766 -91 
Q 1213 -91 952 223 
Q 691 538 691 1209 
L 691 2988 
L 172 2988 
L 172 3322 
L 1269 3322 
L 1269 1388 
Q 1269 781 1417 556 
Q 1566 331 1947 331 
Q 2347 331 2556 625 
Q 2766 919 2766 1478 
L 2766 2988 
L 2266 2988 
L 2266 3322 
z
" transform="scale(0.015625)"/>
        <path id="DejaVuSerif-74" d="M 691 2988 
L 184 2988 
L 184 3322 
L 691 3322 
L 691 4353 
L 1269 4353 
L 1269 3322 
L 2350 3322 
L 2350 2988 
L 1269 2988 
L 1269 878 
Q 1269 456 1350 337 
Q 1431 219 1650 219 
Q 1875 219 1978 351 
Q 2081 484 2088 781 
L 2522 781 
Q 2497 328 2275 118 
Q 2053 -91 1600 -91 
Q 1103 -91 897 129 
Q 691 350 691 878 
L 691 2988 
z
" transform="scale(0.015625)"/>
        <path id="DejaVuSerif-61" d="M 2547 1044 
L 2547 1747 
L 1806 1747 
Q 1378 1747 1168 1562 
Q 959 1378 959 997 
Q 959 650 1171 447 
Q 1384 244 1747 244 
Q 2106 244 2326 466 
Q 2547 688 2547 1044 
z
M 3122 2075 
L 3122 331 
L 3634 331 
L 3634 0 
L 2547 0 
L 2547 359 
Q 2356 128 2106 18 
Q 1856 -91 1522 -91 
Q 969 -91 644 203 
Q 319 497 319 997 
Q 319 1513 691 1797 
Q 1063 2081 1741 2081 
L 2547 2081 
L 2547 2309 
Q 2547 2688 2317 2895 
Q 2088 3103 1672 3103 
Q 1328 3103 1125 2947 
Q 922 2791 872 2484 
L 575 2484 
L 575 3156 
Q 875 3284 1158 3348 
Q 1441 3413 1709 3413 
Q 2400 3413 2761 3070 
Q 3122 2728 3122 2075 
z
" transform="scale(0.015625)"/>
        <path id="DejaVuSerif-6e" d="M 263 0 
L 263 331 
L 781 331 
L 781 2988 
L 231 2988 
L 231 3322 
L 1356 3322 
L 1356 2731 
Q 1516 3069 1770 3241 
Q 2025 3413 2363 3413 
Q 2913 3413 3172 3097 
Q 3431 2781 3431 2113 
L 3431 331 
L 3944 331 
L 3944 0 
L 2356 0 
L 2356 331 
L 2853 331 
L 2853 1931 
Q 2853 2541 2703 2767 
Q 2553 2994 2175 2994 
Q 1775 2994 1565 2701 
Q 1356 2409 1356 1850 
L 1356 331 
L 1856 331 
L 1856 0 
L 263 0 
z
" transform="scale(0.015625)"/>
        <path id="DejaVuSerif-73" d="M 359 184 
L 359 959 
L 691 959 
Q 703 588 923 403 
Q 1144 219 1575 219 
Q 1963 219 2166 364 
Q 2369 509 2369 788 
Q 2369 1006 2220 1140 
Q 2072 1275 1594 1428 
L 1178 1569 
Q 750 1706 558 1912 
Q 366 2119 366 2438 
Q 366 2894 700 3153 
Q 1034 3413 1625 3413 
Q 1888 3413 2178 3344 
Q 2469 3275 2778 3144 
L 2778 2419 
L 2447 2419 
Q 2434 2741 2221 2922 
Q 2009 3103 1644 3103 
Q 1281 3103 1095 2975 
Q 909 2847 909 2591 
Q 909 2381 1050 2254 
Q 1191 2128 1613 1997 
L 2069 1856 
Q 2541 1709 2748 1489 
Q 2956 1269 2956 922 
Q 2956 450 2595 179 
Q 2234 -91 1600 -91 
Q 1278 -91 972 -22 
Q 666 47 359 184 
z
" transform="scale(0.015625)"/>
       </defs>
       <use xlink:href="#DejaVuSerif-4d"/>
       <use xlink:href="#DejaVuSerif-75" transform="translate(102.392578 0)"/>
       <use xlink:href="#DejaVuSerif-74" transform="translate(166.796875 0)"/>
       <use xlink:href="#DejaVuSerif-61" transform="translate(206.982422 0)"/>
       <use xlink:href="#DejaVuSerif-6e" transform="translate(266.601562 0)"/>
       <use xlink:href="#DejaVuSerif-74" transform="translate(331.005859 0)"/>
       <use xlink:href="#DejaVuSerif-73" transform="translate(371.191406 0)"/>
      </g>
     </g>
    </g>
    <g id="xtick_2">
     <g id="line2d_2">
      <g>
       <use xlink:href="#m88927749c5" x="264.79093" y="345.5205" style="stroke: #000000; stroke-width: 0.8"/>
      </g>
     </g>
     <g id="text_2">
      <!-- Non-members WT -->
      <g transform="translate(218.874523 360.118937) scale(0.1 -0.1)">
       <defs>
        <path id="DejaVuSerif-4e" d="M 313 0 
L 313 331 
L 941 331 
L 941 4331 
L 313 4331 
L 313 4666 
L 1509 4666 
L 4306 984 
L 4306 4331 
L 3681 4331 
L 3681 4666 
L 5319 4666 
L 5319 4331 
L 4691 4331 
L 4691 -91 
L 4313 -91 
L 1325 3841 
L 1325 331 
L 1953 331 
L 1953 0 
L 313 0 
z
" transform="scale(0.015625)"/>
        <path id="DejaVuSerif-6f" d="M 1925 219 
Q 2388 219 2623 584 
Q 2859 950 2859 1663 
Q 2859 2375 2623 2739 
Q 2388 3103 1925 3103 
Q 1463 3103 1227 2739 
Q 991 2375 991 1663 
Q 991 950 1228 584 
Q 1466 219 1925 219 
z
M 1925 -91 
Q 1200 -91 759 389 
Q 319 869 319 1663 
Q 319 2456 758 2934 
Q 1197 3413 1925 3413 
Q 2653 3413 3092 2934 
Q 3531 2456 3531 1663 
Q 3531 869 3092 389 
Q 2653 -91 1925 -91 
z
" transform="scale(0.015625)"/>
        <path id="DejaVuSerif-2d" d="M 281 1959 
L 1881 1959 
L 1881 1472 
L 281 1472 
L 281 1959 
z
" transform="scale(0.015625)"/>
        <path id="DejaVuSerif-6d" d="M 3316 2675 
Q 3481 3041 3739 3227 
Q 3997 3413 4341 3413 
Q 4863 3413 5119 3089 
Q 5375 2766 5375 2113 
L 5375 331 
L 5894 331 
L 5894 0 
L 4300 0 
L 4300 331 
L 4800 331 
L 4800 2047 
Q 4800 2556 4650 2772 
Q 4500 2988 4153 2988 
Q 3769 2988 3567 2697 
Q 3366 2406 3366 1850 
L 3366 331 
L 3866 331 
L 3866 0 
L 2291 0 
L 2291 331 
L 2791 331 
L 2791 2069 
Q 2791 2566 2641 2777 
Q 2491 2988 2144 2988 
Q 1759 2988 1557 2697 
Q 1356 2406 1356 1850 
L 1356 331 
L 1856 331 
L 1856 0 
L 263 0 
L 263 331 
L 781 331 
L 781 2994 
L 231 2994 
L 231 3322 
L 1356 3322 
L 1356 2731 
Q 1516 3063 1762 3238 
Q 2009 3413 2322 3413 
Q 2709 3413 2968 3220 
Q 3228 3028 3316 2675 
z
" transform="scale(0.015625)"/>
        <path id="DejaVuSerif-65" d="M 3469 1600 
L 991 1600 
L 991 1575 
Q 991 903 1244 561 
Q 1497 219 1991 219 
Q 2369 219 2611 417 
Q 2853 616 2950 1006 
L 3413 1006 
Q 3275 459 2904 184 
Q 2534 -91 1931 -91 
Q 1203 -91 761 389 
Q 319 869 319 1663 
Q 319 2450 753 2931 
Q 1188 3413 1894 3413 
Q 2647 3413 3050 2948 
Q 3453 2484 3469 1600 
z
M 2791 1931 
Q 2772 2513 2545 2808 
Q 2319 3103 1894 3103 
Q 1497 3103 1269 2806 
Q 1041 2509 991 1931 
L 2791 1931 
z
" transform="scale(0.015625)"/>
        <path id="DejaVuSerif-62" d="M 738 331 
L 738 4531 
L 184 4531 
L 184 4863 
L 1313 4863 
L 1313 2803 
Q 1481 3116 1742 3264 
Q 2003 3413 2388 3413 
Q 3000 3413 3387 2928 
Q 3775 2444 3775 1663 
Q 3775 881 3387 395 
Q 3000 -91 2388 -91 
Q 2003 -91 1742 57 
Q 1481 206 1313 519 
L 1313 0 
L 184 0 
L 184 331 
L 738 331 
z
M 1313 1497 
Q 1313 897 1542 583 
Q 1772 269 2209 269 
Q 2650 269 2876 622 
Q 3103 975 3103 1663 
Q 3103 2353 2876 2703 
Q 2650 3053 2209 3053 
Q 1772 3053 1542 2737 
Q 1313 2422 1313 1825 
L 1313 1497 
z
" transform="scale(0.015625)"/>
        <path id="DejaVuSerif-72" d="M 3059 3328 
L 3059 2497 
L 2728 2497 
Q 2713 2744 2591 2866 
Q 2469 2988 2234 2988 
Q 1809 2988 1582 2694 
Q 1356 2400 1356 1850 
L 1356 331 
L 2022 331 
L 2022 0 
L 263 0 
L 263 331 
L 781 331 
L 781 2994 
L 231 2994 
L 231 3322 
L 1356 3322 
L 1356 2731 
Q 1525 3078 1790 3245 
Q 2056 3413 2438 3413 
Q 2578 3413 2733 3391 
Q 2888 3369 3059 3328 
z
" transform="scale(0.015625)"/>
        <path id="DejaVuSerif-20" transform="scale(0.015625)"/>
        <path id="DejaVuSerif-57" d="M 4878 0 
L 4366 0 
L 3297 3794 
L 2228 0 
L 1716 0 
L 494 4331 
L 31 4331 
L 31 4666 
L 1734 4666 
L 1734 4331 
L 1153 4331 
L 2125 884 
L 3188 4666 
L 3694 4666 
L 4775 844 
L 5753 4331 
L 5216 4331 
L 5216 4666 
L 6559 4666 
L 6559 4331 
L 6100 4331 
L 4878 0 
z
" transform="scale(0.015625)"/>
        <path id="DejaVuSerif-54" d="M 1222 0 
L 1222 331 
L 1819 331 
L 1819 4294 
L 447 4294 
L 447 3566 
L 63 3566 
L 63 4666 
L 4206 4666 
L 4206 3566 
L 3822 3566 
L 3822 4294 
L 2450 4294 
L 2450 331 
L 3047 331 
L 3047 0 
L 1222 0 
z
" transform="scale(0.015625)"/>
       </defs>
       <use xlink:href="#DejaVuSerif-4e"/>
       <use xlink:href="#DejaVuSerif-6f" transform="translate(87.5 0)"/>
       <use xlink:href="#DejaVuSerif-6e" transform="translate(147.705078 0)"/>
       <use xlink:href="#DejaVuSerif-2d" transform="translate(212.109375 0)"/>
       <use xlink:href="#DejaVuSerif-6d" transform="translate(245.898438 0)"/>
       <use xlink:href="#DejaVuSerif-65" transform="translate(340.722656 0)"/>
       <use xlink:href="#DejaVuSerif-6d" transform="translate(399.902344 0)"/>
       <use xlink:href="#DejaVuSerif-62" transform="translate(494.726562 0)"/>
       <use xlink:href="#DejaVuSerif-65" transform="translate(558.740234 0)"/>
       <use xlink:href="#DejaVuSerif-72" transform="translate(617.919922 0)"/>
       <use xlink:href="#DejaVuSerif-73" transform="translate(665.722656 0)"/>
       <use xlink:href="#DejaVuSerif-20" transform="translate(717.041016 0)"/>
       <use xlink:href="#DejaVuSerif-57" transform="translate(748.828125 0)"/>
       <use xlink:href="#DejaVuSerif-54" transform="translate(851.611328 0)"/>
      </g>
     </g>
    </g>
   </g>
   <g id="matplotlib.axis_2">
    <g id="ytick_1">
     <g id="line2d_3">
      <defs>
       <path id="m960126071b" d="M 0 0 
L -3.5 0 
" style="stroke: #000000; stroke-width: 0.8"/>
      </defs>
      <g>
       <use xlink:href="#m960126071b" x="23.460594" y="333.200905" style="stroke: #000000; stroke-width: 0.8"/>
      </g>
     </g>
     <g id="text_3">
      <!-- 0 -->
      <g transform="translate(10.098094 337.000123) scale(0.1 -0.1)">
       <defs>
        <path id="DejaVuSerif-30" d="M 2034 219 
Q 2513 219 2750 744 
Q 2988 1269 2988 2328 
Q 2988 3391 2750 3916 
Q 2513 4441 2034 4441 
Q 1556 4441 1318 3916 
Q 1081 3391 1081 2328 
Q 1081 1269 1318 744 
Q 1556 219 2034 219 
z
M 2034 -91 
Q 1275 -91 848 546 
Q 422 1184 422 2328 
Q 422 3475 848 4112 
Q 1275 4750 2034 4750 
Q 2797 4750 3222 4112 
Q 3647 3475 3647 2328 
Q 3647 1184 3222 546 
Q 2797 -91 2034 -91 
z
" transform="scale(0.015625)"/>
       </defs>
       <use xlink:href="#DejaVuSerif-30"/>
      </g>
     </g>
    </g>
    <g id="ytick_2">
     <g id="line2d_4">
      <g>
       <use xlink:href="#m960126071b" x="23.460594" y="283.649993" style="stroke: #000000; stroke-width: 0.8"/>
      </g>
     </g>
     <g id="text_4">
      <!-- 2 -->
      <g transform="translate(10.098094 287.449211) scale(0.1 -0.1)">
       <defs>
        <path id="DejaVuSerif-32" d="M 819 3553 
L 469 3553 
L 469 4384 
Q 803 4563 1142 4656 
Q 1481 4750 1806 4750 
Q 2534 4750 2956 4397 
Q 3378 4044 3378 3438 
Q 3378 2753 2422 1800 
Q 2347 1728 2309 1691 
L 1131 513 
L 3078 513 
L 3078 1088 
L 3444 1088 
L 3444 0 
L 434 0 
L 434 341 
L 1850 1753 
Q 2319 2222 2519 2614 
Q 2719 3006 2719 3438 
Q 2719 3909 2473 4175 
Q 2228 4441 1797 4441 
Q 1350 4441 1106 4219 
Q 863 3997 819 3553 
z
" transform="scale(0.015625)"/>
       </defs>
       <use xlink:href="#DejaVuSerif-32"/>
      </g>
     </g>
    </g>
    <g id="ytick_3">
     <g id="line2d_5">
      <g>
       <use xlink:href="#m960126071b" x="23.460594" y="234.099081" style="stroke: #000000; stroke-width: 0.8"/>
      </g>
     </g>
     <g id="text_5">
      <!-- 4 -->
      <g transform="translate(10.098094 237.8983) scale(0.1 -0.1)">
       <defs>
        <path id="DejaVuSerif-34" d="M 2234 1581 
L 2234 4063 
L 641 1581 
L 2234 1581 
z
M 3609 0 
L 1484 0 
L 1484 331 
L 2234 331 
L 2234 1247 
L 197 1247 
L 197 1588 
L 2241 4750 
L 2859 4750 
L 2859 1581 
L 3750 1581 
L 3750 1247 
L 2859 1247 
L 2859 331 
L 3609 331 
L 3609 0 
z
" transform="scale(0.015625)"/>
       </defs>
       <use xlink:href="#DejaVuSerif-34"/>
      </g>
     </g>
    </g>
    <g id="ytick_4">
     <g id="line2d_6">
      <g>
       <use xlink:href="#m960126071b" x="23.460594" y="184.548169" style="stroke: #000000; stroke-width: 0.8"/>
      </g>
     </g>
     <g id="text_6">
      <!-- 6 -->
      <g transform="translate(10.098094 188.347388) scale(0.1 -0.1)">
       <defs>
        <path id="DejaVuSerif-36" d="M 2094 219 
Q 2534 219 2771 542 
Q 3009 866 3009 1472 
Q 3009 2078 2771 2401 
Q 2534 2725 2094 2725 
Q 1647 2725 1412 2412 
Q 1178 2100 1178 1509 
Q 1178 888 1415 553 
Q 1653 219 2094 219 
z
M 1075 2569 
Q 1288 2803 1556 2918 
Q 1825 3034 2163 3034 
Q 2859 3034 3264 2615 
Q 3669 2197 3669 1472 
Q 3669 763 3233 336 
Q 2797 -91 2069 -91 
Q 1278 -91 853 498 
Q 428 1088 428 2181 
Q 428 3406 931 4078 
Q 1434 4750 2350 4750 
Q 2597 4750 2869 4703 
Q 3141 4656 3425 4563 
L 3425 3794 
L 3072 3794 
Q 3034 4109 2831 4275 
Q 2628 4441 2284 4441 
Q 1678 4441 1381 3981 
Q 1084 3522 1075 2569 
z
" transform="scale(0.015625)"/>
       </defs>
       <use xlink:href="#DejaVuSerif-36"/>
      </g>
     </g>
    </g>
    <g id="ytick_5">
     <g id="line2d_7">
      <g>
       <use xlink:href="#m960126071b" x="23.460594" y="134.997257" style="stroke: #000000; stroke-width: 0.8"/>
      </g>
     </g>
     <g id="text_7">
      <!-- 8 -->
      <g transform="translate(10.098094 138.796476) scale(0.1 -0.1)">
       <defs>
        <path id="DejaVuSerif-38" d="M 2981 1275 
Q 2981 1775 2732 2051 
Q 2484 2328 2034 2328 
Q 1584 2328 1336 2051 
Q 1088 1775 1088 1275 
Q 1088 772 1336 495 
Q 1584 219 2034 219 
Q 2484 219 2732 495 
Q 2981 772 2981 1275 
z
M 2853 3541 
Q 2853 3966 2637 4203 
Q 2422 4441 2034 4441 
Q 1650 4441 1433 4203 
Q 1216 3966 1216 3541 
Q 1216 3113 1433 2875 
Q 1650 2638 2034 2638 
Q 2422 2638 2637 2875 
Q 2853 3113 2853 3541 
z
M 2516 2484 
Q 3047 2413 3344 2092 
Q 3641 1772 3641 1275 
Q 3641 619 3225 264 
Q 2809 -91 2034 -91 
Q 1263 -91 845 264 
Q 428 619 428 1275 
Q 428 1772 725 2092 
Q 1022 2413 1556 2484 
Q 1084 2569 832 2842 
Q 581 3116 581 3541 
Q 581 4103 968 4426 
Q 1356 4750 2034 4750 
Q 2713 4750 3100 4426 
Q 3488 4103 3488 3541 
Q 3488 3116 3236 2842 
Q 2984 2569 2516 2484 
z
" transform="scale(0.015625)"/>
       </defs>
       <use xlink:href="#DejaVuSerif-38"/>
      </g>
     </g>
    </g>
    <g id="ytick_6">
     <g id="line2d_8">
      <g>
       <use xlink:href="#m960126071b" x="23.460594" y="85.446345" style="stroke: #000000; stroke-width: 0.8"/>
      </g>
     </g>
     <g id="text_8">
      <!-- 10 -->
      <g transform="translate(3.735594 89.245564) scale(0.1 -0.1)">
       <defs>
        <path id="DejaVuSerif-31" d="M 909 0 
L 909 331 
L 1722 331 
L 1722 4213 
L 781 3603 
L 781 4013 
L 1919 4750 
L 2350 4750 
L 2350 331 
L 3163 331 
L 3163 0 
L 909 0 
z
" transform="scale(0.015625)"/>
       </defs>
       <use xlink:href="#DejaVuSerif-31"/>
       <use xlink:href="#DejaVuSerif-30" transform="translate(63.623047 0)"/>
      </g>
     </g>
    </g>
   </g>
   <g id="line2d_9">
    <path d="M 91.837522 227.905217 
L 115.970556 227.905217 
L 115.970556 134.997257 
L 91.837522 134.997257 
L 91.837522 227.905217 
" clip-path="url(#p932cf45e6e)" style="fill: none; stroke: #000000; stroke-linecap: square"/>
   </g>
   <g id="line2d_10">
    <path d="M 103.904039 227.905217 
L 103.904039 308.425449 
" clip-path="url(#p932cf45e6e)" style="fill: none; stroke: #000000; stroke-linecap: square"/>
   </g>
   <g id="line2d_11">
    <path d="M 103.904039 134.997257 
L 103.904039 110.221801 
" clip-path="url(#p932cf45e6e)" style="fill: none; stroke: #000000; stroke-linecap: square"/>
   </g>
   <g id="line2d_12">
    <path d="M 97.870781 308.425449 
L 109.937297 308.425449 
" clip-path="url(#p932cf45e6e)" style="fill: none; stroke: #000000; stroke-linecap: square"/>
   </g>
   <g id="line2d_13">
    <path d="M 97.870781 110.221801 
L 109.937297 110.221801 
" clip-path="url(#p932cf45e6e)" style="fill: none; stroke: #000000; stroke-linecap: square"/>
   </g>
   <g id="line2d_14">
    <path d="M 252.724413 265.068401 
L 276.857446 265.068401 
L 276.857446 159.772713 
L 252.724413 159.772713 
L 252.724413 265.068401 
" clip-path="url(#p932cf45e6e)" style="fill: none; stroke: #000000; stroke-linecap: square"/>
   </g>
   <g id="line2d_15">
    <path d="M 264.79093 265.068401 
L 264.79093 333.200905 
" clip-path="url(#p932cf45e6e)" style="fill: none; stroke: #000000; stroke-linecap: square"/>
   </g>
   <g id="line2d_16">
    <path d="M 264.79093 159.772713 
L 264.79093 110.221801 
" clip-path="url(#p932cf45e6e)" style="fill: none; stroke: #000000; stroke-linecap: square"/>
   </g>
   <g id="line2d_17">
    <path d="M 258.757671 333.200905 
L 270.824188 333.200905 
" clip-path="url(#p932cf45e6e)" style="fill: none; stroke: #000000; stroke-linecap: square"/>
   </g>
   <g id="line2d_18">
    <path d="M 258.757671 110.221801 
L 270.824188 110.221801 
" clip-path="url(#p932cf45e6e)" style="fill: none; stroke: #000000; stroke-linecap: square"/>
   </g>
   <g id="line2d_19">
    <path d="M 103.904039 91.714536 
L 103.904039 86.808995 
L 264.79093 86.808995 
L 264.79093 91.714536 
" clip-path="url(#p932cf45e6e)" style="fill: none; stroke: #000000; stroke-linecap: square"/>
   </g>
   <g id="line2d_20">
    <path d="M 91.837522 184.548169 
L 115.970556 184.548169 
" clip-path="url(#p932cf45e6e)" style="fill: none; stroke: #ff7f0e"/>
   </g>
   <g id="line2d_21">
    <path d="M 91.837522 191.626871 
L 115.970556 191.626871 
" clip-path="url(#p932cf45e6e)" style="fill: none; stroke-dasharray: 3.7,1.6; stroke-dashoffset: 0; stroke: #2ca02c"/>
   </g>
   <g id="line2d_22">
    <path d="M 252.724413 221.711353 
L 276.857446 221.711353 
" clip-path="url(#p932cf45e6e)" style="fill: none; stroke: #ff7f0e"/>
   </g>
   <g id="line2d_23">
    <path d="M 252.724413 217.488264 
L 276.857446 217.488264 
" clip-path="url(#p932cf45e6e)" style="fill: none; stroke-dasharray: 3.7,1.6; stroke-dashoffset: 0; stroke: #2ca02c"/>
   </g>
   <g id="patch_3">
    <path d="M 23.460594 345.5205 
L 23.460594 74.4894 
" style="fill: none; stroke: #000000; stroke-width: 0.8; stroke-linejoin: miter; stroke-linecap: square"/>
   </g>
   <g id="patch_4">
    <path d="M 345.234375 345.5205 
L 345.234375 74.4894 
" style="fill: none; stroke: #000000; stroke-width: 0.8; stroke-linejoin: miter; stroke-linecap: square"/>
   </g>
   <g id="patch_5">
    <path d="M 23.460594 345.5205 
L 345.234375 345.5205 
" style="fill: none; stroke: #000000; stroke-width: 0.8; stroke-linejoin: miter; stroke-linecap: square"/>
   </g>
   <g id="patch_6">
    <path d="M 23.460594 74.4894 
L 345.234375 74.4894 
" style="fill: none; stroke: #000000; stroke-width: 0.8; stroke-linejoin: miter; stroke-linecap: square"/>
   </g>
   <g id="text_9">
    <!-- ** -->
    <g transform="translate(179.347484 82.276538) scale(0.1 -0.1)">
     <defs>
      <path id="DejaVuSerif-2a" d="M 3097 3866 
L 1875 3297 
L 3097 2719 
L 2859 2350 
L 1772 3028 
L 1813 1838 
L 1388 1838 
L 1428 3028 
L 341 2350 
L 103 2719 
L 1325 3291 
L 103 3866 
L 341 4238 
L 1428 3559 
L 1388 4750 
L 1813 4750 
L 1772 3559 
L 2859 4238 
L 3097 3866 
z
" transform="scale(0.015625)"/>
     </defs>
     <use xlink:href="#DejaVuSerif-2a"/>
     <use xlink:href="#DejaVuSerif-2a" transform="translate(50 0)"/>
    </g>
   </g>
   <g id="text_10">
    <!-- summed outNEF rank -->
    <g transform="translate(117.192484 28.00665) scale(0.12 -0.12)">
     <defs>
      <path id="DejaVuSerif-64" d="M 3359 331 
L 3909 331 
L 3909 0 
L 2784 0 
L 2784 519 
Q 2616 206 2355 57 
Q 2094 -91 1709 -91 
Q 1097 -91 708 395 
Q 319 881 319 1663 
Q 319 2444 706 2928 
Q 1094 3413 1709 3413 
Q 2094 3413 2355 3264 
Q 2616 3116 2784 2803 
L 2784 4531 
L 2241 4531 
L 2241 4863 
L 3359 4863 
L 3359 331 
z
M 2784 1497 
L 2784 1825 
Q 2784 2422 2554 2737 
Q 2325 3053 1888 3053 
Q 1444 3053 1217 2703 
Q 991 2353 991 1663 
Q 991 975 1217 622 
Q 1444 269 1888 269 
Q 2325 269 2554 583 
Q 2784 897 2784 1497 
z
" transform="scale(0.015625)"/>
      <path id="DejaVuSerif-45" d="M 353 0 
L 353 331 
L 947 331 
L 947 4331 
L 353 4331 
L 353 4666 
L 4109 4666 
L 4109 3628 
L 3725 3628 
L 3725 4281 
L 1581 4281 
L 1581 2719 
L 3109 2719 
L 3109 3303 
L 3494 3303 
L 3494 1753 
L 3109 1753 
L 3109 2338 
L 1581 2338 
L 1581 384 
L 3775 384 
L 3775 1038 
L 4159 1038 
L 4159 0 
L 353 0 
z
" transform="scale(0.015625)"/>
      <path id="DejaVuSerif-46" d="M 353 0 
L 353 331 
L 947 331 
L 947 4331 
L 353 4331 
L 353 4666 
L 4172 4666 
L 4172 3628 
L 3788 3628 
L 3788 4281 
L 1581 4281 
L 1581 2719 
L 3175 2719 
L 3175 3303 
L 3559 3303 
L 3559 1753 
L 3175 1753 
L 3175 2338 
L 1581 2338 
L 1581 331 
L 2328 331 
L 2328 0 
L 353 0 
z
" transform="scale(0.015625)"/>
      <path id="DejaVuSerif-6b" d="M 1831 0 
L 219 0 
L 219 331 
L 738 331 
L 738 4531 
L 184 4531 
L 184 4863 
L 1313 4863 
L 1313 1697 
L 2713 2988 
L 2234 2988 
L 2234 3322 
L 3738 3322 
L 3738 2988 
L 3169 2988 
L 2181 2075 
L 3444 331 
L 3922 331 
L 3922 0 
L 2284 0 
L 2284 331 
L 2759 331 
L 1766 1697 
L 1313 1275 
L 1313 331 
L 1831 331 
L 1831 0 
z
" transform="scale(0.015625)"/>
     </defs>
     <use xlink:href="#DejaVuSerif-73"/>
     <use xlink:href="#DejaVuSerif-75" transform="translate(51.318359 0)"/>
     <use xlink:href="#DejaVuSerif-6d" transform="translate(115.722656 0)"/>
     <use xlink:href="#DejaVuSerif-6d" transform="translate(210.546875 0)"/>
     <use xlink:href="#DejaVuSerif-65" transform="translate(305.371094 0)"/>
     <use xlink:href="#DejaVuSerif-64" transform="translate(364.550781 0)"/>
     <use xlink:href="#DejaVuSerif-20" transform="translate(428.564453 0)"/>
     <use xlink:href="#DejaVuSerif-6f" transform="translate(460.351562 0)"/>
     <use xlink:href="#DejaVuSerif-75" transform="translate(520.556641 0)"/>
     <use xlink:href="#DejaVuSerif-74" transform="translate(584.960938 0)"/>
     <use xlink:href="#DejaVuSerif-4e" transform="translate(625.146484 0)"/>
     <use xlink:href="#DejaVuSerif-45" transform="translate(712.646484 0)"/>
     <use xlink:href="#DejaVuSerif-46" transform="translate(785.644531 0)"/>
     <use xlink:href="#DejaVuSerif-20" transform="translate(855.029297 0)"/>
     <use xlink:href="#DejaVuSerif-72" transform="translate(886.816406 0)"/>
     <use xlink:href="#DejaVuSerif-61" transform="translate(934.619141 0)"/>
     <use xlink:href="#DejaVuSerif-6e" transform="translate(994.238281 0)"/>
     <use xlink:href="#DejaVuSerif-6b" transform="translate(1058.642578 0)"/>
    </g>
    <!--  mnn = None thresh = 0, summation = mean -->
    <g transform="translate(46.654047 41.444025) scale(0.12 -0.12)">
     <defs>
      <path id="DejaVuSerif-3d" d="M 678 2894 
L 4684 2894 
L 4684 2394 
L 678 2394 
L 678 2894 
z
M 678 1619 
L 4684 1619 
L 4684 1119 
L 678 1119 
L 678 1619 
z
" transform="scale(0.015625)"/>
      <path id="DejaVuSerif-68" d="M 263 0 
L 263 331 
L 781 331 
L 781 4531 
L 231 4531 
L 231 4863 
L 1356 4863 
L 1356 2731 
Q 1516 3069 1770 3241 
Q 2025 3413 2363 3413 
Q 2913 3413 3172 3097 
Q 3431 2781 3431 2113 
L 3431 331 
L 3944 331 
L 3944 0 
L 2356 0 
L 2356 331 
L 2853 331 
L 2853 1931 
Q 2853 2541 2704 2764 
Q 2556 2988 2175 2988 
Q 1775 2988 1565 2697 
Q 1356 2406 1356 1850 
L 1356 331 
L 1856 331 
L 1856 0 
L 263 0 
z
" transform="scale(0.015625)"/>
      <path id="DejaVuSerif-2c" d="M 231 -622 
Q 525 -406 662 -114 
Q 800 178 800 594 
L 800 709 
L 1416 709 
Q 1391 175 1164 -208 
Q 938 -591 481 -872 
L 231 -622 
z
" transform="scale(0.015625)"/>
      <path id="DejaVuSerif-69" d="M 622 4353 
Q 622 4497 726 4603 
Q 831 4709 978 4709 
Q 1122 4709 1226 4603 
Q 1331 4497 1331 4353 
Q 1331 4206 1228 4103 
Q 1125 4000 978 4000 
Q 831 4000 726 4103 
Q 622 4206 622 4353 
z
M 1356 331 
L 1900 331 
L 1900 0 
L 231 0 
L 231 331 
L 781 331 
L 781 2988 
L 231 2988 
L 231 3322 
L 1356 3322 
L 1356 331 
z
" transform="scale(0.015625)"/>
     </defs>
     <use xlink:href="#DejaVuSerif-20"/>
     <use xlink:href="#DejaVuSerif-6d" transform="translate(31.787109 0)"/>
     <use xlink:href="#DejaVuSerif-6e" transform="translate(126.611328 0)"/>
     <use xlink:href="#DejaVuSerif-6e" transform="translate(191.015625 0)"/>
     <use xlink:href="#DejaVuSerif-20" transform="translate(255.419922 0)"/>
     <use xlink:href="#DejaVuSerif-3d" transform="translate(287.207031 0)"/>
     <use xlink:href="#DejaVuSerif-20" transform="translate(370.996094 0)"/>
     <use xlink:href="#DejaVuSerif-4e" transform="translate(402.783203 0)"/>
     <use xlink:href="#DejaVuSerif-6f" transform="translate(490.283203 0)"/>
     <use xlink:href="#DejaVuSerif-6e" transform="translate(550.488281 0)"/>
     <use xlink:href="#DejaVuSerif-65" transform="translate(614.892578 0)"/>
     <use xlink:href="#DejaVuSerif-20" transform="translate(674.072266 0)"/>
     <use xlink:href="#DejaVuSerif-74" transform="translate(705.859375 0)"/>
     <use xlink:href="#DejaVuSerif-68" transform="translate(746.044922 0)"/>
     <use xlink:href="#DejaVuSerif-72" transform="translate(810.449219 0)"/>
     <use xlink:href="#DejaVuSerif-65" transform="translate(858.251953 0)"/>
     <use xlink:href="#DejaVuSerif-73" transform="translate(917.431641 0)"/>
     <use xlink:href="#DejaVuSerif-68" transform="translate(968.75 0)"/>
     <use xlink:href="#DejaVuSerif-20" transform="translate(1033.154297 0)"/>
     <use xlink:href="#DejaVuSerif-3d" transform="translate(1064.941406 0)"/>
     <use xlink:href="#DejaVuSerif-20" transform="translate(1148.730469 0)"/>
     <use xlink:href="#DejaVuSerif-30" transform="translate(1180.517578 0)"/>
     <use xlink:href="#DejaVuSerif-2c" transform="translate(1244.140625 0)"/>
     <use xlink:href="#DejaVuSerif-20" transform="translate(1275.927734 0)"/>
     <use xlink:href="#DejaVuSerif-73" transform="translate(1307.714844 0)"/>
     <use xlink:href="#DejaVuSerif-75" transform="translate(1359.033203 0)"/>
     <use xlink:href="#DejaVuSerif-6d" transform="translate(1423.4375 0)"/>
     <use xlink:href="#DejaVuSerif-6d" transform="translate(1518.261719 0)"/>
     <use xlink:href="#DejaVuSerif-61" transform="translate(1613.085938 0)"/>
     <use xlink:href="#DejaVuSerif-74" transform="translate(1672.705078 0)"/>
     <use xlink:href="#DejaVuSerif-69" transform="translate(1712.890625 0)"/>
     <use xlink:href="#DejaVuSerif-6f" transform="translate(1744.873047 0)"/>
     <use xlink:href="#DejaVuSerif-6e" transform="translate(1805.078125 0)"/>
     <use xlink:href="#DejaVuSerif-20" transform="translate(1869.482422 0)"/>
     <use xlink:href="#DejaVuSerif-3d" transform="translate(1901.269531 0)"/>
     <use xlink:href="#DejaVuSerif-20" transform="translate(1985.058594 0)"/>
     <use xlink:href="#DejaVuSerif-6d" transform="translate(2016.845703 0)"/>
     <use xlink:href="#DejaVuSerif-65" transform="translate(2111.669922 0)"/>
     <use xlink:href="#DejaVuSerif-61" transform="translate(2170.849609 0)"/>
     <use xlink:href="#DejaVuSerif-6e" transform="translate(2230.46875 0)"/>
    </g>
    <!--  norm. = CV logscale = False -->
    <g transform="translate(95.241859 54.8814) scale(0.12 -0.12)">
     <defs>
      <path id="DejaVuSerif-2e" d="M 603 325 
Q 603 500 722 622 
Q 841 744 1019 744 
Q 1191 744 1312 622 
Q 1434 500 1434 325 
Q 1434 153 1312 31 
Q 1191 -91 1019 -91 
Q 841 -91 722 29 
Q 603 150 603 325 
z
" transform="scale(0.015625)"/>
      <path id="DejaVuSerif-43" d="M 4513 1234 
Q 4306 581 3820 245 
Q 3334 -91 2591 -91 
Q 2134 -91 1743 65 
Q 1353 222 1050 525 
Q 700 875 529 1320 
Q 359 1766 359 2328 
Q 359 3416 987 4083 
Q 1616 4750 2644 4750 
Q 3025 4750 3456 4650 
Q 3888 4550 4384 4347 
L 4384 3272 
L 4031 3272 
Q 3916 3859 3567 4137 
Q 3219 4416 2591 4416 
Q 1844 4416 1459 3886 
Q 1075 3356 1075 2328 
Q 1075 1303 1459 773 
Q 1844 244 2591 244 
Q 3113 244 3450 492 
Q 3788 741 3938 1234 
L 4513 1234 
z
" transform="scale(0.015625)"/>
      <path id="DejaVuSerif-56" d="M 1119 4331 
L 2497 750 
L 3872 4331 
L 3347 4331 
L 3347 4666 
L 4716 4666 
L 4716 4331 
L 4263 4331 
L 2597 0 
L 2059 0 
L 403 4331 
L -63 4331 
L -63 4666 
L 1638 4666 
L 1638 4331 
L 1119 4331 
z
" transform="scale(0.015625)"/>
      <path id="DejaVuSerif-6c" d="M 1313 331 
L 1856 331 
L 1856 0 
L 184 0 
L 184 331 
L 738 331 
L 738 4531 
L 184 4531 
L 184 4863 
L 1313 4863 
L 1313 331 
z
" transform="scale(0.015625)"/>
      <path id="DejaVuSerif-67" d="M 3359 2988 
L 3359 72 
Q 3359 -644 2965 -1033 
Q 2572 -1422 1844 -1422 
Q 1516 -1422 1216 -1362 
Q 916 -1303 641 -1184 
L 641 -488 
L 941 -488 
Q 997 -813 1206 -963 
Q 1416 -1113 1806 -1113 
Q 2313 -1113 2548 -827 
Q 2784 -541 2784 72 
L 2784 519 
Q 2616 206 2355 57 
Q 2094 -91 1709 -91 
Q 1097 -91 708 395 
Q 319 881 319 1663 
Q 319 2444 706 2928 
Q 1094 3413 1709 3413 
Q 2094 3413 2355 3264 
Q 2616 3116 2784 2803 
L 2784 3322 
L 3909 3322 
L 3909 2988 
L 3359 2988 
z
M 2784 1825 
Q 2784 2422 2554 2737 
Q 2325 3053 1888 3053 
Q 1444 3053 1217 2703 
Q 991 2353 991 1663 
Q 991 975 1217 622 
Q 1444 269 1888 269 
Q 2325 269 2554 583 
Q 2784 897 2784 1497 
L 2784 1825 
z
" transform="scale(0.015625)"/>
      <path id="DejaVuSerif-63" d="M 3291 997 
Q 3169 466 2822 187 
Q 2475 -91 1925 -91 
Q 1200 -91 759 389 
Q 319 869 319 1663 
Q 319 2459 759 2936 
Q 1200 3413 1925 3413 
Q 2241 3413 2553 3339 
Q 2866 3266 3181 3116 
L 3181 2266 
L 2847 2266 
Q 2781 2703 2561 2903 
Q 2341 3103 1931 3103 
Q 1466 3103 1228 2742 
Q 991 2381 991 1663 
Q 991 944 1227 581 
Q 1463 219 1931 219 
Q 2303 219 2525 412 
Q 2747 606 2828 997 
L 3291 997 
z
" transform="scale(0.015625)"/>
     </defs>
     <use xlink:href="#DejaVuSerif-20"/>
     <use xlink:href="#DejaVuSerif-6e" transform="translate(31.787109 0)"/>
     <use xlink:href="#DejaVuSerif-6f" transform="translate(96.191406 0)"/>
     <use xlink:href="#DejaVuSerif-72" transform="translate(156.396484 0)"/>
     <use xlink:href="#DejaVuSerif-6d" transform="translate(204.199219 0)"/>
     <use xlink:href="#DejaVuSerif-2e" transform="translate(299.023438 0)"/>
     <use xlink:href="#DejaVuSerif-20" transform="translate(330.810547 0)"/>
     <use xlink:href="#DejaVuSerif-3d" transform="translate(362.597656 0)"/>
     <use xlink:href="#DejaVuSerif-20" transform="translate(446.386719 0)"/>
     <use xlink:href="#DejaVuSerif-43" transform="translate(478.173828 0)"/>
     <use xlink:href="#DejaVuSerif-56" transform="translate(554.6875 0)"/>
     <use xlink:href="#DejaVuSerif-20" transform="translate(626.904297 0)"/>
     <use xlink:href="#DejaVuSerif-6c" transform="translate(658.691406 0)"/>
     <use xlink:href="#DejaVuSerif-6f" transform="translate(690.673828 0)"/>
     <use xlink:href="#DejaVuSerif-67" transform="translate(750.878906 0)"/>
     <use xlink:href="#DejaVuSerif-73" transform="translate(814.892578 0)"/>
     <use xlink:href="#DejaVuSerif-63" transform="translate(866.210938 0)"/>
     <use xlink:href="#DejaVuSerif-61" transform="translate(922.216797 0)"/>
     <use xlink:href="#DejaVuSerif-6c" transform="translate(981.835938 0)"/>
     <use xlink:href="#DejaVuSerif-65" transform="translate(1013.818359 0)"/>
     <use xlink:href="#DejaVuSerif-20" transform="translate(1072.998047 0)"/>
     <use xlink:href="#DejaVuSerif-3d" transform="translate(1104.785156 0)"/>
     <use xlink:href="#DejaVuSerif-20" transform="translate(1188.574219 0)"/>
     <use xlink:href="#DejaVuSerif-46" transform="translate(1220.361328 0)"/>
     <use xlink:href="#DejaVuSerif-61" transform="translate(1282.996094 0)"/>
     <use xlink:href="#DejaVuSerif-6c" transform="translate(1342.615234 0)"/>
     <use xlink:href="#DejaVuSerif-73" transform="translate(1374.597656 0)"/>
     <use xlink:href="#DejaVuSerif-65" transform="translate(1425.916016 0)"/>
    </g>
    <!--  permutation test on the median. -->
    <g transform="translate(84.097797 68.4894) scale(0.12 -0.12)">
     <defs>
      <path id="DejaVuSerif-70" d="M 1313 1825 
L 1313 1497 
Q 1313 897 1542 583 
Q 1772 269 2209 269 
Q 2650 269 2876 622 
Q 3103 975 3103 1663 
Q 3103 2353 2876 2703 
Q 2650 3053 2209 3053 
Q 1772 3053 1542 2737 
Q 1313 2422 1313 1825 
z
M 738 2988 
L 184 2988 
L 184 3322 
L 1313 3322 
L 1313 2803 
Q 1481 3116 1742 3264 
Q 2003 3413 2388 3413 
Q 3000 3413 3387 2928 
Q 3775 2444 3775 1663 
Q 3775 881 3387 395 
Q 3000 -91 2388 -91 
Q 2003 -91 1742 57 
Q 1481 206 1313 519 
L 1313 -997 
L 1856 -997 
L 1856 -1331 
L 184 -1331 
L 184 -997 
L 738 -997 
L 738 2988 
z
" transform="scale(0.015625)"/>
     </defs>
     <use xlink:href="#DejaVuSerif-20"/>
     <use xlink:href="#DejaVuSerif-70" transform="translate(31.787109 0)"/>
     <use xlink:href="#DejaVuSerif-65" transform="translate(95.800781 0)"/>
     <use xlink:href="#DejaVuSerif-72" transform="translate(154.980469 0)"/>
     <use xlink:href="#DejaVuSerif-6d" transform="translate(202.783203 0)"/>
     <use xlink:href="#DejaVuSerif-75" transform="translate(297.607422 0)"/>
     <use xlink:href="#DejaVuSerif-74" transform="translate(362.011719 0)"/>
     <use xlink:href="#DejaVuSerif-61" transform="translate(402.197266 0)"/>
     <use xlink:href="#DejaVuSerif-74" transform="translate(461.816406 0)"/>
     <use xlink:href="#DejaVuSerif-69" transform="translate(502.001953 0)"/>
     <use xlink:href="#DejaVuSerif-6f" transform="translate(533.984375 0)"/>
     <use xlink:href="#DejaVuSerif-6e" transform="translate(594.189453 0)"/>
     <use xlink:href="#DejaVuSerif-20" transform="translate(658.59375 0)"/>
     <use xlink:href="#DejaVuSerif-74" transform="translate(690.380859 0)"/>
     <use xlink:href="#DejaVuSerif-65" transform="translate(730.566406 0)"/>
     <use xlink:href="#DejaVuSerif-73" transform="translate(789.746094 0)"/>
     <use xlink:href="#DejaVuSerif-74" transform="translate(841.064453 0)"/>
     <use xlink:href="#DejaVuSerif-20" transform="translate(881.25 0)"/>
     <use xlink:href="#DejaVuSerif-6f" transform="translate(913.037109 0)"/>
     <use xlink:href="#DejaVuSerif-6e" transform="translate(973.242188 0)"/>
     <use xlink:href="#DejaVuSerif-20" transform="translate(1037.646484 0)"/>
     <use xlink:href="#DejaVuSerif-74" transform="translate(1069.433594 0)"/>
     <use xlink:href="#DejaVuSerif-68" transform="translate(1109.619141 0)"/>
     <use xlink:href="#DejaVuSerif-65" transform="translate(1174.023438 0)"/>
     <use xlink:href="#DejaVuSerif-20" transform="translate(1233.203125 0)"/>
     <use xlink:href="#DejaVuSerif-6d" transform="translate(1264.990234 0)"/>
     <use xlink:href="#DejaVuSerif-65" transform="translate(1359.814453 0)"/>
     <use xlink:href="#DejaVuSerif-64" transform="translate(1418.994141 0)"/>
     <use xlink:href="#DejaVuSerif-69" transform="translate(1483.007812 0)"/>
     <use xlink:href="#DejaVuSerif-61" transform="translate(1514.990234 0)"/>
     <use xlink:href="#DejaVuSerif-6e" transform="translate(1574.609375 0)"/>
     <use xlink:href="#DejaVuSerif-2e" transform="translate(1639.013672 0)"/>
    </g>
   </g>
  </g>
 </g>
 <defs>
  <clipPath id="p932cf45e6e">
   <rect x="23.460594" y="74.4894" width="321.773781" height="271.0311"/>
  </clipPath>
 </defs>
</svg>
