<?xml version="1.0" encoding="utf-8" standalone="no"?>
<!DOCTYPE svg PUBLIC "-//W3C//DTD SVG 1.1//EN"
  "http://www.w3.org/Graphics/SVG/1.1/DTD/svg11.dtd">
<svg xmlns:xlink="http://www.w3.org/1999/xlink" width="288pt" height="288pt" viewBox="0 0 288 288" xmlns="http://www.w3.org/2000/svg" version="1.1">
 <metadata>
  <rdf:RDF xmlns:dc="http://purl.org/dc/elements/1.1/" xmlns:cc="http://creativecommons.org/ns#" xmlns:rdf="http://www.w3.org/1999/02/22-rdf-syntax-ns#">
   <cc:Work>
    <dc:type rdf:resource="http://purl.org/dc/dcmitype/StillImage"/>
    <dc:date>2024-12-01T16:25:36.252536</dc:date>
    <dc:format>image/svg+xml</dc:format>
    <dc:creator>
     <cc:Agent>
      <dc:title>Matplotlib v3.7.0, https://matplotlib.org/</dc:title>
     </cc:Agent>
    </dc:creator>
   </cc:Work>
  </rdf:RDF>
 </metadata>
 <defs>
  <style type="text/css">*{stroke-linejoin: round; stroke-linecap: butt}</style>
 </defs>
 <g id="figure_1">
  <g id="patch_1">
   <path d="M 0 288 
L 288 288 
L 288 0 
L 0 0 
z
" style="fill: #ffffff"/>
  </g>
  <g id="axes_1">
   <g id="patch_2">
    <path d="M 41.48345 241.305181 
L 277.2 241.305181 
L 277.2 10.8 
L 41.48345 10.8 
z
" style="fill: #ffffff"/>
   </g>
   <g id="patch_3">
    <path d="M 52.197839 241.305181 
L 72.657475 241.305181 
L 72.657475 84.498935 
L 52.197839 84.498935 
z
" clip-path="url(#p5f581eacb6)" style="fill: #808080"/>
   </g>
   <g id="patch_4">
    <path d="M 73.734298 241.305181 
L 94.193935 241.305181 
L 94.193935 21.776437 
L 73.734298 21.776437 
z
" clip-path="url(#p5f581eacb6)" style="fill: #808080"/>
   </g>
   <g id="patch_5">
    <path d="M 95.270758 241.305181 
L 115.730395 241.305181 
L 115.730395 147.221434 
L 95.270758 147.221434 
z
" clip-path="url(#p5f581eacb6)" style="fill: #808080"/>
   </g>
   <g id="patch_6">
    <path d="M 116.807218 241.305181 
L 137.266854 241.305181 
L 137.266854 147.221434 
L 116.807218 147.221434 
z
" clip-path="url(#p5f581eacb6)" style="fill: #808080"/>
   </g>
   <g id="patch_7">
    <path d="M 138.343677 241.305181 
L 158.803314 241.305181 
L 158.803314 178.582683 
L 138.343677 178.582683 
z
" clip-path="url(#p5f581eacb6)" style="fill: #808080"/>
   </g>
   <g id="patch_8">
    <path d="M 159.880137 241.305181 
L 180.339773 241.305181 
L 180.339773 178.582683 
L 159.880137 178.582683 
z
" clip-path="url(#p5f581eacb6)" style="fill: #808080"/>
   </g>
   <g id="patch_9">
    <path d="M 181.416596 241.305181 
L 201.876233 241.305181 
L 201.876233 241.305181 
L 181.416596 241.305181 
z
" clip-path="url(#p5f581eacb6)" style="fill: #808080"/>
   </g>
   <g id="patch_10">
    <path d="M 202.953056 241.305181 
L 223.412692 241.305181 
L 223.412692 178.582683 
L 202.953056 178.582683 
z
" clip-path="url(#p5f581eacb6)" style="fill: #808080"/>
   </g>
   <g id="patch_11">
    <path d="M 224.489515 241.305181 
L 244.949152 241.305181 
L 244.949152 241.305181 
L 224.489515 241.305181 
z
" clip-path="url(#p5f581eacb6)" style="fill: #808080"/>
   </g>
   <g id="patch_12">
    <path d="M 246.025975 241.305181 
L 266.485611 241.305181 
L 266.485611 209.943932 
L 246.025975 209.943932 
z
" clip-path="url(#p5f581eacb6)" style="fill: #808080"/>
   </g>
   <g id="matplotlib.axis_1">
    <g id="xtick_1">
     <g id="line2d_1">
      <defs>
       <path id="m3e0f83aa6d" d="M 0 0 
L 0 3.5 
" style="stroke: #000000; stroke-width: 0.8"/>
      </defs>
      <g>
       <use xlink:href="#m3e0f83aa6d" x="62.427657" y="241.305181" style="stroke: #000000; stroke-width: 0.8"/>
      </g>
     </g>
     <g id="text_1">
      <!-- 1 -->
      <g transform="translate(59.10416 256.823165) scale(0.12 -0.12)">
       <defs>
        <path id="NimbusSanL-Regu-31" d="M 1658 3232 
L 1658 0 
L 2221 0 
L 2221 4537 
L 1850 4537 
C 1651 3840 1523 3744 653 3635 
L 653 3232 
L 1658 3232 
z
" transform="scale(0.015625)"/>
       </defs>
       <use xlink:href="#NimbusSanL-Regu-31" transform="scale(0.996264)"/>
      </g>
     </g>
    </g>
    <g id="xtick_2">
     <g id="line2d_2">
      <g>
       <use xlink:href="#m3e0f83aa6d" x="83.964117" y="241.305181" style="stroke: #000000; stroke-width: 0.8"/>
      </g>
     </g>
     <g id="text_2">
      <!-- 2 -->
      <g transform="translate(80.640619 256.823165) scale(0.12 -0.12)">
       <defs>
        <path id="NimbusSanL-Regu-32" d="M 3238 556 
L 851 556 
C 909 928 1114 1165 1670 1493 
L 2310 1839 
C 2944 2185 3270 2653 3270 3211 
C 3270 3589 3117 3942 2848 4185 
C 2579 4428 2246 4544 1818 4544 
C 1242 4544 813 4339 563 3955 
C 403 3711 333 3429 320 2967 
L 883 2967 
C 902 3275 941 3461 1018 3608 
C 1165 3884 1459 4051 1798 4051 
C 2310 4051 2694 3685 2694 3198 
C 2694 2839 2483 2531 2080 2300 
L 1491 1967 
C 544 1428 269 999 218 0 
L 3238 0 
L 3238 556 
z
" transform="scale(0.015625)"/>
       </defs>
       <use xlink:href="#NimbusSanL-Regu-32" transform="scale(0.996264)"/>
      </g>
     </g>
    </g>
    <g id="xtick_3">
     <g id="line2d_3">
      <g>
       <use xlink:href="#m3e0f83aa6d" x="105.500576" y="241.305181" style="stroke: #000000; stroke-width: 0.8"/>
      </g>
     </g>
     <g id="text_3">
      <!-- 3 -->
      <g transform="translate(102.177079 256.823165) scale(0.12 -0.12)">
       <defs>
        <path id="NimbusSanL-Regu-33" d="M 1414 2093 
L 1485 2093 
L 1722 2099 
C 2342 2099 2662 1819 2662 1276 
C 2662 709 2310 371 1722 371 
C 1107 371 806 677 768 1334 
L 205 1334 
C 230 970 294 734 403 530 
C 634 96 1082 -128 1702 -128 
C 2637 -128 3238 428 3238 1283 
C 3238 1857 3014 2176 2470 2361 
C 2893 2526 3104 2845 3104 3298 
C 3104 4076 2586 4544 1722 4544 
C 806 4544 320 4044 301 3081 
L 864 3081 
C 870 3356 896 3509 966 3649 
C 1094 3898 1376 4051 1728 4051 
C 2227 4051 2528 3757 2528 3279 
C 2528 2960 2413 2769 2163 2667 
C 2010 2603 1811 2577 1414 2571 
L 1414 2093 
z
" transform="scale(0.015625)"/>
       </defs>
       <use xlink:href="#NimbusSanL-Regu-33" transform="scale(0.996264)"/>
      </g>
     </g>
    </g>
    <g id="xtick_4">
     <g id="line2d_4">
      <g>
       <use xlink:href="#m3e0f83aa6d" x="127.037036" y="241.305181" style="stroke: #000000; stroke-width: 0.8"/>
      </g>
     </g>
     <g id="text_4">
      <!-- 4 -->
      <g transform="translate(123.713539 256.823165) scale(0.12 -0.12)">
       <defs>
        <path id="NimbusSanL-Regu-34" d="M 2093 1088 
L 2093 0 
L 2656 0 
L 2656 1088 
L 3328 1088 
L 3328 1593 
L 2656 1593 
L 2656 4537 
L 2240 4537 
L 179 1683 
L 179 1088 
L 2093 1088 
z
M 2093 1593 
L 672 1593 
L 2093 3577 
L 2093 1593 
z
" transform="scale(0.015625)"/>
       </defs>
       <use xlink:href="#NimbusSanL-Regu-34" transform="scale(0.996264)"/>
      </g>
     </g>
    </g>
    <g id="xtick_5">
     <g id="line2d_5">
      <g>
       <use xlink:href="#m3e0f83aa6d" x="148.573495" y="241.305181" style="stroke: #000000; stroke-width: 0.8"/>
      </g>
     </g>
     <g id="text_5">
      <!-- 5 -->
      <g transform="translate(145.249998 256.823165) scale(0.12 -0.12)">
       <defs>
        <path id="NimbusSanL-Regu-35" d="M 3046 4544 
L 704 4544 
L 365 2076 
L 883 2076 
C 1146 2387 1363 2496 1715 2496 
C 2323 2496 2707 2082 2707 1414 
C 2707 765 2330 371 1715 371 
C 1222 371 922 619 787 1128 
L 224 1128 
C 301 759 365 581 499 415 
C 755 70 1216 -128 1728 -128 
C 2643 -128 3283 536 3283 1490 
C 3283 2381 2688 2995 1818 2995 
C 1498 2995 1242 2912 979 2720 
L 1158 3987 
L 3046 3987 
L 3046 4544 
z
" transform="scale(0.015625)"/>
       </defs>
       <use xlink:href="#NimbusSanL-Regu-35" transform="scale(0.996264)"/>
      </g>
     </g>
    </g>
    <g id="xtick_6">
     <g id="line2d_6">
      <g>
       <use xlink:href="#m3e0f83aa6d" x="170.109955" y="241.305181" style="stroke: #000000; stroke-width: 0.8"/>
      </g>
     </g>
     <g id="text_6">
      <!-- 6 -->
      <g transform="translate(166.786458 256.823165) scale(0.12 -0.12)">
       <defs>
        <path id="NimbusSanL-Regu-36" d="M 3187 3352 
C 3078 4102 2592 4544 1901 4544 
C 1402 4544 954 4300 685 3895 
C 403 3449 275 2887 275 2064 
C 275 1312 390 832 659 434 
C 902 70 1299 -128 1798 -128 
C 2662 -128 3283 510 3283 1388 
C 3283 2221 2707 2816 1894 2816 
C 1446 2816 1094 2643 851 2310 
C 858 3423 1216 4044 1862 4044 
C 2259 4044 2534 3792 2624 3352 
L 3187 3352 
z
M 1824 2316 
C 2368 2316 2707 1944 2707 1343 
C 2707 781 2323 371 1805 371 
C 1280 371 883 800 883 1375 
C 883 1931 1267 2316 1824 2316 
z
" transform="scale(0.015625)"/>
       </defs>
       <use xlink:href="#NimbusSanL-Regu-36" transform="scale(0.996264)"/>
      </g>
     </g>
    </g>
    <g id="xtick_7">
     <g id="line2d_7">
      <g>
       <use xlink:href="#m3e0f83aa6d" x="191.646414" y="241.305181" style="stroke: #000000; stroke-width: 0.8"/>
      </g>
     </g>
     <g id="text_7">
      <!-- 7 -->
      <g transform="translate(188.322917 256.823165) scale(0.12 -0.12)">
       <defs>
        <path id="NimbusSanL-Regu-37" d="M 3328 4544 
L 294 4544 
L 294 3987 
L 2746 3987 
C 1664 2442 1222 1493 883 0 
L 1485 0 
C 1734 1454 2304 2704 3328 4070 
L 3328 4544 
z
" transform="scale(0.015625)"/>
       </defs>
       <use xlink:href="#NimbusSanL-Regu-37" transform="scale(0.996264)"/>
      </g>
     </g>
    </g>
    <g id="xtick_8">
     <g id="line2d_8">
      <g>
       <use xlink:href="#m3e0f83aa6d" x="213.182874" y="241.305181" style="stroke: #000000; stroke-width: 0.8"/>
      </g>
     </g>
     <g id="text_8">
      <!-- 8 -->
      <g transform="translate(209.859377 256.823165) scale(0.12 -0.12)">
       <defs>
        <path id="NimbusSanL-Regu-38" d="M 2502 2399 
C 2970 2681 3123 2910 3123 3337 
C 3123 4044 2566 4544 1760 4544 
C 960 4544 397 4044 397 3337 
C 397 2917 550 2687 1011 2399 
C 493 2150 237 1774 237 1276 
C 237 447 864 -128 1760 -128 
C 2656 -128 3283 447 3283 1270 
C 3283 1774 3027 2150 2502 2399 
z
M 1760 4044 
C 2240 4044 2547 3764 2547 3324 
C 2547 2904 2234 2624 1760 2624 
C 1286 2624 973 2904 973 3331 
C 973 3764 1286 4044 1760 4044 
z
M 1760 2150 
C 2323 2150 2707 1793 2707 1264 
C 2707 728 2323 371 1747 371 
C 1197 371 813 734 813 1264 
C 813 1793 1197 2150 1760 2150 
z
" transform="scale(0.015625)"/>
       </defs>
       <use xlink:href="#NimbusSanL-Regu-38" transform="scale(0.996264)"/>
      </g>
     </g>
    </g>
    <g id="xtick_9">
     <g id="line2d_9">
      <g>
       <use xlink:href="#m3e0f83aa6d" x="234.719334" y="241.305181" style="stroke: #000000; stroke-width: 0.8"/>
      </g>
     </g>
     <g id="text_9">
      <!-- 9 -->
      <g transform="translate(231.395836 256.823165) scale(0.12 -0.12)">
       <defs>
        <path id="NimbusSanL-Regu-39" d="M 339 1063 
C 448 313 934 -128 1626 -128 
C 2125 -128 2579 115 2842 519 
C 3130 966 3258 1528 3258 2351 
C 3258 3103 3142 3583 2874 3981 
C 2624 4345 2227 4544 1728 4544 
C 864 4544 243 3906 243 3027 
C 243 2193 819 1600 1638 1600 
C 2067 1600 2381 1753 2675 2105 
C 2669 992 2310 371 1664 371 
C 1267 371 992 623 902 1063 
L 339 1063 
z
M 1722 4051 
C 2246 4051 2643 3621 2643 3040 
C 2643 2490 2253 2099 1702 2099 
C 1158 2099 819 2471 819 3072 
C 819 3640 1203 4051 1722 4051 
z
" transform="scale(0.015625)"/>
       </defs>
       <use xlink:href="#NimbusSanL-Regu-39" transform="scale(0.996264)"/>
      </g>
     </g>
    </g>
    <g id="xtick_10">
     <g id="line2d_10">
      <g>
       <use xlink:href="#m3e0f83aa6d" x="256.255793" y="241.305181" style="stroke: #000000; stroke-width: 0.8"/>
      </g>
     </g>
     <g id="text_10">
      <!-- 10 -->
      <g transform="translate(249.608799 256.823165) scale(0.12 -0.12)">
       <defs>
        <path id="NimbusSanL-Regu-30" d="M 1760 4544 
C 1338 4544 954 4358 717 4044 
C 422 3649 275 3043 275 2207 
C 275 683 787 -128 1760 -128 
C 2720 -128 3245 683 3245 2169 
C 3245 3049 3104 3636 2803 4044 
C 2566 4364 2189 4544 1760 4544 
z
M 1760 4044 
C 2368 4044 2669 3432 2669 2220 
C 2669 938 2374 339 1747 339 
C 1152 339 851 964 851 2201 
C 851 3438 1152 4044 1760 4044 
z
" transform="scale(0.015625)"/>
       </defs>
       <use xlink:href="#NimbusSanL-Regu-31" transform="scale(0.996264)"/>
       <use xlink:href="#NimbusSanL-Regu-30" transform="translate(55.391677 0) scale(0.996264)"/>
      </g>
     </g>
    </g>
    <g id="text_11">
     <!-- Tube rank -->
     <g transform="translate(126.674539 274.01702) scale(0.15 -0.15)">
      <defs>
       <path id="NimbusSanL-Regu-54" d="M 2266 4147 
L 3795 4147 
L 3795 4672 
L 134 4672 
L 134 4147 
L 1670 4147 
L 1670 0 
L 2266 0 
L 2266 4147 
z
" transform="scale(0.015625)"/>
       <path id="NimbusSanL-Regu-75" d="M 3085 19 
L 3085 3328 
L 2554 3328 
L 2554 1454 
C 2554 780 2195 339 1638 339 
C 1216 339 947 591 947 988 
L 947 3328 
L 416 3328 
L 416 780 
C 416 230 832 -128 1485 -128 
C 1978 -128 2291 44 2605 484 
L 2605 19 
L 3085 19 
z
" transform="scale(0.015625)"/>
       <path id="NimbusSanL-Regu-62" d="M 346 4672 
L 346 19 
L 826 19 
L 826 447 
C 1082 57 1421 -128 1888 -128 
C 2771 -128 3347 594 3347 1702 
C 3347 2784 2797 3456 1914 3456 
C 1453 3456 1126 3283 877 2905 
L 877 4672 
L 346 4672 
z
M 1811 2956 
C 2406 2956 2790 2440 2790 1644 
C 2790 887 2394 371 1811 371 
C 1248 371 877 880 877 1663 
C 877 2447 1248 2956 1811 2956 
z
" transform="scale(0.015625)"/>
       <path id="NimbusSanL-Regu-65" d="M 3283 1484 
C 3283 1998 3245 2311 3149 2565 
C 2931 3123 2419 3456 1792 3456 
C 858 3456 256 2734 256 1619 
C 256 545 838 -128 1779 -128 
C 2547 -128 3078 307 3213 1018 
L 2675 1018 
C 2528 588 2227 364 1798 364 
C 1459 364 1171 514 992 787 
C 864 974 819 1161 813 1484 
L 3283 1484 
z
M 826 1920 
C 870 2552 1248 2963 1786 2963 
C 2310 2963 2714 2519 2714 1959 
C 2714 1946 2714 1933 2707 1920 
L 826 1920 
z
" transform="scale(0.015625)"/>
       <path id="NimbusSanL-Regu-72" d="M 442 3328 
L 442 0 
L 979 0 
L 979 1727 
C 979 2203 1101 2514 1357 2698 
C 1523 2819 1683 2857 2054 2863 
L 2054 3404 
C 1965 3449 1920 3456 1850 3456 
C 1504 3456 1242 3251 934 2750 
L 934 3328 
L 442 3328 
z
" transform="scale(0.015625)"/>
       <path id="NimbusSanL-Regu-61" d="M 3424 332 
C 3366 320 3341 320 3309 320 
C 3123 320 3021 415 3021 581 
L 3021 2542 
C 3021 3135 2586 3456 1760 3456 
C 1274 3456 870 3315 646 3065 
C 493 2893 429 2702 416 2370 
L 954 2370 
C 998 2778 1242 2963 1741 2963 
C 2221 2963 2490 2784 2490 2466 
L 2490 2326 
C 2490 2103 2355 2007 1933 1956 
C 1178 1861 1062 1835 858 1753 
C 467 1593 269 1294 269 861 
C 269 256 691 -128 1370 -128 
C 1792 -128 2131 19 2509 364 
C 2547 25 2714 -128 3059 -128 
C 3168 -128 3251 -116 3424 -71 
L 3424 332 
z
M 2490 1071 
C 2490 893 2438 785 2278 638 
C 2061 441 1798 339 1485 339 
C 1069 339 826 536 826 874 
C 826 1224 1062 1402 1632 1485 
C 2195 1562 2310 1587 2490 1670 
L 2490 1071 
z
" transform="scale(0.015625)"/>
       <path id="NimbusSanL-Regu-6e" d="M 448 3328 
L 448 0 
L 986 0 
L 986 1835 
C 986 2539 1344 2988 1894 2988 
C 2317 2988 2586 2732 2586 2328 
L 2586 0 
L 3117 0 
L 3117 2539 
C 3117 3097 2701 3456 2054 3456 
C 1555 3456 1235 3263 941 2796 
L 941 3328 
L 448 3328 
z
" transform="scale(0.015625)"/>
       <path id="NimbusSanL-Regu-6b" d="M 902 4672 
L 371 4672 
L 371 0 
L 902 0 
L 902 1307 
L 1421 1820 
L 2554 0 
L 3213 0 
L 1843 2198 
L 3008 3358 
L 2323 3358 
L 902 1935 
L 902 4672 
z
" transform="scale(0.015625)"/>
      </defs>
      <use xlink:href="#NimbusSanL-Regu-54" transform="scale(0.996264)"/>
      <use xlink:href="#NimbusSanL-Regu-75" transform="translate(48.916949 0) scale(0.996264)"/>
      <use xlink:href="#NimbusSanL-Regu-62" transform="translate(104.308626 0) scale(0.996264)"/>
      <use xlink:href="#NimbusSanL-Regu-65" transform="translate(159.700303 0) scale(0.996264)"/>
      <use xlink:href="#NimbusSanL-Regu-72" transform="translate(242.78715 0) scale(0.996264)"/>
      <use xlink:href="#NimbusSanL-Regu-61" transform="translate(274.966282 0) scale(0.996264)"/>
      <use xlink:href="#NimbusSanL-Regu-6e" transform="translate(330.357959 0) scale(0.996264)"/>
      <use xlink:href="#NimbusSanL-Regu-6b" transform="translate(385.749636 0) scale(0.996264)"/>
     </g>
    </g>
   </g>
   <g id="matplotlib.axis_2">
    <g id="ytick_1">
     <g id="line2d_11">
      <defs>
       <path id="mbd7dc7150a" d="M 0 0 
L -3.5 0 
" style="stroke: #000000; stroke-width: 0.8"/>
      </defs>
      <g>
       <use xlink:href="#mbd7dc7150a" x="41.48345" y="241.305181" style="stroke: #000000; stroke-width: 0.8"/>
      </g>
     </g>
     <g id="text_12">
      <!-- $\mathdefault{0}$ -->
      <g transform="translate(28.63046 245.564173) scale(0.12 -0.12)">
       <defs>
        <path id="CMR17-30" d="M 2688 2038 
C 2688 2430 2682 3099 2413 3613 
C 2176 4063 1798 4224 1466 4224 
C 1158 4224 768 4082 525 3620 
C 269 3137 243 2539 243 2038 
C 243 1671 250 1112 448 623 
C 723 -39 1216 -128 1466 -128 
C 1760 -128 2208 -7 2470 604 
C 2662 1048 2688 1568 2688 2038 
z
M 1466 -26 
C 1056 -26 813 328 723 816 
C 653 1196 653 1749 653 2109 
C 653 2604 653 3015 736 3407 
C 858 3954 1216 4121 1466 4121 
C 1728 4121 2067 3947 2189 3420 
C 2272 3054 2278 2623 2278 2109 
C 2278 1691 2278 1176 2202 797 
C 2067 96 1690 -26 1466 -26 
z
" transform="scale(0.015625)"/>
       </defs>
       <use xlink:href="#CMR17-30" transform="scale(0.996264)"/>
      </g>
     </g>
    </g>
    <g id="ytick_2">
     <g id="line2d_12">
      <g>
       <use xlink:href="#mbd7dc7150a" x="41.48345" y="209.943932" style="stroke: #000000; stroke-width: 0.8"/>
      </g>
     </g>
     <g id="text_13">
      <!-- $\mathdefault{1}$ -->
      <g transform="translate(28.63046 214.202924) scale(0.12 -0.12)">
       <defs>
        <path id="CMR17-31" d="M 1702 4083 
C 1702 4217 1696 4224 1606 4224 
C 1357 3927 979 3833 621 3820 
C 602 3820 570 3820 563 3808 
C 557 3795 557 3782 557 3648 
C 755 3648 1088 3686 1344 3839 
L 1344 467 
C 1344 243 1331 166 781 166 
L 589 166 
L 589 0 
C 896 6 1216 12 1523 12 
C 1830 12 2150 6 2458 0 
L 2458 166 
L 2266 166 
C 1715 166 1702 236 1702 467 
L 1702 4083 
z
" transform="scale(0.015625)"/>
       </defs>
       <use xlink:href="#CMR17-31" transform="scale(0.996264)"/>
      </g>
     </g>
    </g>
    <g id="ytick_3">
     <g id="line2d_13">
      <g>
       <use xlink:href="#mbd7dc7150a" x="41.48345" y="178.582683" style="stroke: #000000; stroke-width: 0.8"/>
      </g>
     </g>
     <g id="text_14">
      <!-- $\mathdefault{2}$ -->
      <g transform="translate(28.63046 182.841675) scale(0.12 -0.12)">
       <defs>
        <path id="CMR17-32" d="M 2669 990 
L 2554 990 
C 2490 537 2438 460 2413 422 
C 2381 371 1920 371 1830 371 
L 602 371 
C 832 620 1280 1073 1824 1596 
C 2214 1966 2669 2400 2669 3033 
C 2669 3788 2067 4224 1395 4224 
C 691 4224 262 3603 262 3027 
C 262 2777 448 2745 525 2745 
C 589 2745 781 2783 781 3007 
C 781 3206 614 3264 525 3264 
C 486 3264 448 3257 422 3244 
C 544 3788 915 4057 1306 4057 
C 1862 4057 2227 3616 2227 3033 
C 2227 2477 1901 1998 1536 1583 
L 262 147 
L 262 0 
L 2515 0 
L 2669 990 
z
" transform="scale(0.015625)"/>
       </defs>
       <use xlink:href="#CMR17-32" transform="scale(0.996264)"/>
      </g>
     </g>
    </g>
    <g id="ytick_4">
     <g id="line2d_14">
      <g>
       <use xlink:href="#mbd7dc7150a" x="41.48345" y="147.221434" style="stroke: #000000; stroke-width: 0.8"/>
      </g>
     </g>
     <g id="text_15">
      <!-- $\mathdefault{3}$ -->
      <g transform="translate(28.63046 151.480426) scale(0.12 -0.12)">
       <defs>
        <path id="CMR17-33" d="M 1414 2176 
C 1984 2176 2234 1673 2234 1094 
C 2234 322 1824 25 1453 25 
C 1114 25 563 193 390 691 
C 422 678 454 678 486 678 
C 640 678 755 780 755 947 
C 755 1132 614 1216 486 1216 
C 378 1216 211 1164 211 927 
C 211 335 787 -128 1466 -128 
C 2176 -128 2720 432 2720 1087 
C 2720 1718 2208 2176 1600 2246 
C 2086 2347 2554 2776 2554 3353 
C 2554 3856 2048 4224 1472 4224 
C 890 4224 378 3862 378 3347 
C 378 3123 544 3084 627 3084 
C 762 3084 877 3167 877 3334 
C 877 3500 762 3584 627 3584 
C 602 3584 570 3584 544 3571 
C 730 3999 1235 4076 1459 4076 
C 1683 4076 2106 3966 2106 3347 
C 2106 3167 2080 2851 1862 2574 
C 1670 2329 1453 2316 1242 2297 
C 1210 2297 1062 2284 1037 2284 
C 992 2278 966 2272 966 2227 
C 966 2182 973 2176 1101 2176 
L 1414 2176 
z
" transform="scale(0.015625)"/>
       </defs>
       <use xlink:href="#CMR17-33" transform="scale(0.996264)"/>
      </g>
     </g>
    </g>
    <g id="ytick_5">
     <g id="line2d_15">
      <g>
       <use xlink:href="#mbd7dc7150a" x="41.48345" y="115.860185" style="stroke: #000000; stroke-width: 0.8"/>
      </g>
     </g>
     <g id="text_16">
      <!-- $\mathdefault{4}$ -->
      <g transform="translate(28.63046 120.119177) scale(0.12 -0.12)">
       <defs>
        <path id="CMR17-34" d="M 2150 4147 
C 2150 4281 2144 4288 2029 4288 
L 128 1254 
L 128 1088 
L 1779 1088 
L 1779 460 
C 1779 230 1766 166 1318 166 
L 1197 166 
L 1197 0 
C 1402 12 1747 12 1965 12 
C 2182 12 2528 12 2733 0 
L 2733 166 
L 2611 166 
C 2163 166 2150 230 2150 460 
L 2150 1088 
L 2803 1088 
L 2803 1254 
L 2150 1254 
L 2150 4147 
z
M 1798 3723 
L 1798 1254 
L 256 1254 
L 1798 3723 
z
" transform="scale(0.015625)"/>
       </defs>
       <use xlink:href="#CMR17-34" transform="scale(0.996264)"/>
      </g>
     </g>
    </g>
    <g id="ytick_6">
     <g id="line2d_16">
      <g>
       <use xlink:href="#mbd7dc7150a" x="41.48345" y="84.498935" style="stroke: #000000; stroke-width: 0.8"/>
      </g>
     </g>
     <g id="text_17">
      <!-- $\mathdefault{5}$ -->
      <g transform="translate(28.63046 88.757928) scale(0.12 -0.12)">
       <defs>
        <path id="CMR17-35" d="M 730 3750 
C 794 3724 1056 3641 1325 3641 
C 1920 3641 2246 3961 2432 4140 
C 2432 4191 2432 4224 2394 4224 
C 2387 4224 2374 4224 2323 4198 
C 2099 4102 1837 4032 1517 4032 
C 1325 4032 1037 4055 723 4191 
C 653 4224 640 4224 634 4224 
C 602 4224 595 4217 595 4090 
L 595 2231 
C 595 2113 595 2080 659 2080 
C 691 2080 704 2093 736 2139 
C 941 2435 1222 2560 1542 2560 
C 1766 2560 2246 2415 2246 1293 
C 2246 1087 2246 716 2054 422 
C 1894 159 1645 25 1370 25 
C 947 25 518 319 403 812 
C 429 806 480 793 506 793 
C 589 793 749 838 749 1036 
C 749 1209 627 1280 506 1280 
C 358 1280 262 1190 262 1011 
C 262 454 704 -128 1382 -128 
C 2042 -128 2669 441 2669 1267 
C 2669 2054 2170 2662 1549 2662 
C 1222 2662 947 2540 730 2304 
L 730 3750 
z
" transform="scale(0.015625)"/>
       </defs>
       <use xlink:href="#CMR17-35" transform="scale(0.996264)"/>
      </g>
     </g>
    </g>
    <g id="ytick_7">
     <g id="line2d_17">
      <g>
       <use xlink:href="#mbd7dc7150a" x="41.48345" y="53.137686" style="stroke: #000000; stroke-width: 0.8"/>
      </g>
     </g>
     <g id="text_18">
      <!-- $\mathdefault{6}$ -->
      <g transform="translate(28.63046 57.396678) scale(0.12 -0.12)">
       <defs>
        <path id="CMR17-36" d="M 678 2198 
C 678 3712 1395 4076 1811 4076 
C 1946 4076 2272 4049 2400 3782 
C 2298 3782 2106 3782 2106 3558 
C 2106 3385 2246 3328 2336 3328 
C 2394 3328 2566 3353 2566 3571 
C 2566 3987 2246 4224 1805 4224 
C 1043 4224 243 3411 243 2011 
C 243 257 966 -128 1478 -128 
C 2099 -128 2688 431 2688 1295 
C 2688 2101 2170 2688 1517 2688 
C 1126 2688 838 2430 678 1979 
L 678 2198 
z
M 1478 25 
C 691 25 691 1212 691 1450 
C 691 1914 909 2585 1504 2585 
C 1613 2585 1926 2585 2138 2140 
C 2253 1889 2253 1624 2253 1302 
C 2253 954 2253 696 2118 438 
C 1978 173 1773 25 1478 25 
z
" transform="scale(0.015625)"/>
       </defs>
       <use xlink:href="#CMR17-36" transform="scale(0.996264)"/>
      </g>
     </g>
    </g>
    <g id="ytick_8">
     <g id="line2d_18">
      <g>
       <use xlink:href="#mbd7dc7150a" x="41.48345" y="21.776437" style="stroke: #000000; stroke-width: 0.8"/>
      </g>
     </g>
     <g id="text_19">
      <!-- $\mathdefault{7}$ -->
      <g transform="translate(28.63046 26.035429) scale(0.12 -0.12)">
       <defs>
        <path id="CMR17-37" d="M 2886 3955 
L 2886 4096 
L 1382 4096 
C 634 4096 621 4166 595 4288 
L 480 4288 
L 294 3104 
L 410 3104 
C 429 3226 474 3552 550 3673 
C 589 3724 1062 3724 1171 3724 
L 2579 3724 
L 1869 2670 
C 1395 1961 1069 1003 1069 166 
C 1069 89 1069 -128 1299 -128 
C 1530 -128 1530 89 1530 172 
L 1530 466 
C 1530 1514 1709 2204 2003 2644 
L 2886 3955 
z
" transform="scale(0.015625)"/>
       </defs>
       <use xlink:href="#CMR17-37" transform="scale(0.996264)"/>
      </g>
     </g>
    </g>
    <g id="text_20">
     <!-- Count -->
     <g transform="translate(21.44748 145.987592) rotate(-90) scale(0.15 -0.15)">
      <defs>
       <path id="NimbusSanL-Regu-43" d="M 4237 3219 
C 4051 4236 3462 4736 2438 4736 
C 1811 4736 1306 4537 960 4154 
C 538 3696 307 3035 307 2284 
C 307 1522 544 867 986 415 
C 1344 44 1805 -128 2413 -128 
C 3552 -128 4192 485 4333 1712 
L 3718 1712 
C 3667 1394 3603 1178 3507 994 
C 3315 612 2918 396 2419 396 
C 1491 396 902 1134 902 2291 
C 902 3480 1466 4211 2368 4211 
C 2746 4211 3098 4096 3290 3918 
C 3462 3759 3558 3562 3629 3219 
L 4237 3219 
z
" transform="scale(0.015625)"/>
       <path id="NimbusSanL-Regu-6f" d="M 1741 3456 
C 800 3456 230 2784 230 1663 
C 230 543 794 -128 1747 -128 
C 2688 -128 3264 543 3264 1638 
C 3264 2791 2707 3456 1741 3456 
z
M 1747 2963 
C 2349 2963 2707 2472 2707 1644 
C 2707 861 2336 364 1747 364 
C 1152 364 787 855 787 1663 
C 787 2466 1152 2963 1747 2963 
z
" transform="scale(0.015625)"/>
       <path id="NimbusSanL-Regu-74" d="M 1626 3328 
L 1075 3328 
L 1075 4249 
L 544 4249 
L 544 3328 
L 90 3328 
L 90 2892 
L 544 2892 
L 544 402 
C 544 64 774 -128 1190 -128 
C 1318 -128 1446 -116 1626 -84 
L 1626 364 
C 1555 345 1472 339 1370 339 
C 1139 339 1075 402 1075 634 
L 1075 2892 
L 1626 2892 
L 1626 3328 
z
" transform="scale(0.015625)"/>
      </defs>
      <use xlink:href="#NimbusSanL-Regu-43" transform="scale(0.996264)"/>
      <use xlink:href="#NimbusSanL-Regu-6f" transform="translate(71.929985 0) scale(0.996264)"/>
      <use xlink:href="#NimbusSanL-Regu-75" transform="translate(127.321662 0) scale(0.996264)"/>
      <use xlink:href="#NimbusSanL-Regu-6e" transform="translate(182.713339 0) scale(0.996264)"/>
      <use xlink:href="#NimbusSanL-Regu-74" transform="translate(238.105016 0) scale(0.996264)"/>
     </g>
    </g>
   </g>
   <g id="patch_13">
    <path d="M 41.48345 241.305181 
L 41.48345 10.8 
" style="fill: none; stroke: #000000; stroke-width: 0.8; stroke-linejoin: miter; stroke-linecap: square"/>
   </g>
   <g id="patch_14">
    <path d="M 277.2 241.305181 
L 277.2 10.8 
" style="fill: none; stroke: #000000; stroke-width: 0.8; stroke-linejoin: miter; stroke-linecap: square"/>
   </g>
   <g id="patch_15">
    <path d="M 41.48345 241.305181 
L 277.2 241.305181 
" style="fill: none; stroke: #000000; stroke-width: 0.8; stroke-linejoin: miter; stroke-linecap: square"/>
   </g>
   <g id="patch_16">
    <path d="M 41.48345 10.8 
L 277.2 10.8 
" style="fill: none; stroke: #000000; stroke-width: 0.8; stroke-linejoin: miter; stroke-linecap: square"/>
   </g>
  </g>
 </g>
 <defs>
  <clipPath id="p5f581eacb6">
   <rect x="41.48345" y="10.8" width="235.71655" height="230.505181"/>
  </clipPath>
 </defs>
</svg>
