<?xml version="1.0" encoding="utf-8" standalone="no"?>
<!DOCTYPE svg PUBLIC "-//W3C//DTD SVG 1.1//EN"
  "http://www.w3.org/Graphics/SVG/1.1/DTD/svg11.dtd">
<svg xmlns:xlink="http://www.w3.org/1999/xlink" width="360pt" height="1080pt" viewBox="0 0 360 1080" xmlns="http://www.w3.org/2000/svg" version="1.1">
 <metadata>
  <rdf:RDF xmlns:dc="http://purl.org/dc/elements/1.1/" xmlns:cc="http://creativecommons.org/ns#" xmlns:rdf="http://www.w3.org/1999/02/22-rdf-syntax-ns#">
   <cc:Work>
    <dc:type rdf:resource="http://purl.org/dc/dcmitype/StillImage"/>
    <dc:date>2025-03-10T09:44:33.809261</dc:date>
    <dc:format>image/svg+xml</dc:format>
    <dc:creator>
     <cc:Agent>
      <dc:title>Matplotlib v3.9.2, https://matplotlib.org/</dc:title>
     </cc:Agent>
    </dc:creator>
   </cc:Work>
  </rdf:RDF>
 </metadata>
 <defs>
  <style type="text/css">*{stroke-linejoin: round; stroke-linecap: butt}</style>
 </defs>
 <g id="figure_1">
  <g id="patch_1">
   <path d="M 0 1080 
L 360 1080 
L 360 0 
L 0 0 
z
" style="fill: #ffffff"/>
  </g>
  <g id="axes_1">
   <g id="patch_2">
    <path d="M 45 272.97931 
L 324 272.97931 
L 324 129.6 
L 45 129.6 
z
" style="fill: #ffffff"/>
   </g>
   <g id="EdgeCollection_1">
    <path d="M 300.929321 201.076753 
C 325.927466 213.696468 325.927466 186.457038 300.929321 199.076753 
C 325.927466 186.457038 325.927466 213.696468 300.929321 201.076753 
" clip-path="url(#pa2be55a34f)" style="fill: #ffffff"/>
    <path d="M 298.146864 198.3748 
L 278.342447 166.286068 
" clip-path="url(#pa2be55a34f)" style="fill: #ffffff"/>
    <path d="M 297.577751 198.90323 
L 221.562925 143.82198 
" clip-path="url(#pa2be55a34f)" style="fill: #ffffff"/>
    <path d="M 297.329256 199.362244 
L 150.924608 143.362966 
" clip-path="url(#pa2be55a34f)" style="fill: #ffffff"/>
    <path d="M 297.225904 199.739536 
L 93.679325 164.921332 
" clip-path="url(#pa2be55a34f)" style="fill: #ffffff"/>
    <path d="M 297.19727 200.076753 
L 71.80273 200.076753 
" clip-path="url(#pa2be55a34f)" style="fill: #ffffff"/>
    <path d="M 297.225904 200.413971 
L 93.679325 235.232175 
" clip-path="url(#pa2be55a34f)" style="fill: #ffffff"/>
    <path d="M 297.329256 200.791263 
L 158.396665 253.932505 
" clip-path="url(#pa2be55a34f)" style="fill: #ffffff"/>
    <path d="M 297.577751 201.250277 
L 228.041003 251.637434 
" clip-path="url(#pa2be55a34f)" style="stroke: #000000; stroke-width: 2.861272"/>
    <path d="M 298.146864 201.778707 
L 278.342447 233.867439 
" clip-path="url(#pa2be55a34f)" style="fill: #ffffff"/>
    <path d="M 279.166907 163.887784 
C 304.829851 152.681636 283.849052 135.309456 277.626435 162.612267 
C 283.849052 135.309456 304.829851 152.681636 279.166907 163.887784 
" clip-path="url(#pa2be55a34f)" style="fill: #ffffff"/>
    <path d="M 275.424027 163.869605 
L 221.81142 143.362966 
" clip-path="url(#pa2be55a34f)" style="fill: #ffffff"/>
    <path d="M 275.320675 164.246897 
L 151.02796 142.985674 
" clip-path="url(#pa2be55a34f)" style="fill: #ffffff"/>
    <path d="M 275.292041 164.584114 
L 93.707959 164.584114 
" clip-path="url(#pa2be55a34f)" style="fill: #ffffff"/>
    <path d="M 275.320675 164.921332 
L 71.774096 199.739536 
" clip-path="url(#pa2be55a34f)" style="fill: #ffffff"/>
    <path d="M 275.424027 165.298623 
L 93.575973 234.854883 
" clip-path="url(#pa2be55a34f)" style="fill: #ffffff"/>
    <path d="M 275.672521 165.757638 
L 157.154192 251.637434 
" clip-path="url(#pa2be55a34f)" style="fill: #ffffff"/>
    <path d="M 276.241635 166.286068 
L 225.195437 248.995281 
" clip-path="url(#pa2be55a34f)" style="fill: #ffffff"/>
    <path d="M 277.292041 166.584114 
L 277.292041 233.569393 
" clip-path="url(#pa2be55a34f)" style="fill: #ffffff"/>
    <path d="M 221.241395 141.126871 
C 238.192056 118.836973 211.405798 113.88895 219.274668 140.763572 
C 211.405798 113.88895 238.192056 118.836973 221.241395 141.126871 
" clip-path="url(#pa2be55a34f)" style="fill: #ffffff"/>
    <path d="M 217.943406 142.648457 
L 151.056594 142.648457 
" clip-path="url(#pa2be55a34f)" style="fill: #181818; stroke: #181818; stroke-width: 0.924855"/>
    <path d="M 217.97204 142.985674 
L 93.679325 164.246897 
" clip-path="url(#pa2be55a34f)" style="fill: #ffffff"/>
    <path d="M 218.075392 143.362966 
L 71.670744 199.362244 
" clip-path="url(#pa2be55a34f)" style="fill: #ffffff"/>
    <path d="M 218.323886 143.82198 
L 93.327479 234.395869 
" clip-path="url(#pa2be55a34f)" style="fill: #ffffff"/>
    <path d="M 218.893 144.350411 
L 154.308625 248.995281 
" clip-path="url(#pa2be55a34f)" style="fill: #ffffff"/>
    <path d="M 219.943406 144.648457 
L 219.943406 247.50505 
" clip-path="url(#pa2be55a34f)" style="fill: #ffffff"/>
    <path d="M 220.993812 144.350411 
L 276.241635 233.867439 
" clip-path="url(#pa2be55a34f)" style="fill: #ffffff"/>
    <path d="M 149.725332 140.763572 
C 157.594202 113.88895 130.807944 118.836973 147.758605 141.126871 
C 130.807944 118.836973 157.594202 113.88895 149.725332 140.763572 
" clip-path="url(#pa2be55a34f)" style="fill: #ffffff"/>
    <path d="M 147.18858 143.362966 
L 93.575973 163.869605 
" clip-path="url(#pa2be55a34f)" style="fill: #ffffff"/>
    <path d="M 147.437075 143.82198 
L 71.422249 198.90323 
" clip-path="url(#pa2be55a34f)" style="fill: #ffffff"/>
    <path d="M 148.006188 144.350411 
L 92.758365 233.867439 
" clip-path="url(#pa2be55a34f)" style="fill: #ffffff"/>
    <path d="M 149.056594 144.648457 
L 149.056594 247.50505 
" clip-path="url(#pa2be55a34f)" style="fill: #ffffff"/>
    <path d="M 150.107 144.350411 
L 214.691375 248.995281 
" clip-path="url(#pa2be55a34f)" style="fill: #ffffff"/>
    <path d="M 150.676114 143.82198 
L 275.672521 234.395869 
" clip-path="url(#pa2be55a34f)" style="fill: #ffffff"/>
    <path d="M 91.373565 162.612267 
C 85.150948 135.309456 64.170149 152.681636 89.833093 163.887784 
C 64.170149 152.681636 85.150948 135.309456 91.373565 162.612267 
" clip-path="url(#pa2be55a34f)" style="fill: #ffffff"/>
    <path d="M 90.657553 166.286068 
L 70.853136 198.3748 
" clip-path="url(#pa2be55a34f)" style="fill: #ffffff"/>
    <path d="M 91.707959 166.584114 
L 91.707959 233.569393 
" clip-path="url(#pa2be55a34f)" style="fill: #ffffff"/>
    <path d="M 92.758365 166.286068 
L 143.804563 248.995281 
" clip-path="url(#pa2be55a34f)" style="fill: #ffffff"/>
    <path d="M 93.327479 165.757638 
L 211.845808 251.637434 
" clip-path="url(#pa2be55a34f)" style="fill: #ffffff"/>
    <path d="M 93.575973 165.298623 
L 275.424027 234.854883 
" clip-path="url(#pa2be55a34f)" style="fill: #ffffff"/>
    <path d="M 68.070679 199.076753 
C 43.072534 186.457038 43.072534 213.696468 68.070679 201.076753 
C 43.072534 213.696468 43.072534 186.457038 68.070679 199.076753 
" clip-path="url(#pa2be55a34f)" style="fill: #ffffff"/>
    <path d="M 70.853136 201.778707 
L 90.657553 233.867439 
" clip-path="url(#pa2be55a34f)" style="fill: #ffffff"/>
    <path d="M 71.422249 201.250277 
L 140.958997 251.637434 
" clip-path="url(#pa2be55a34f)" style="fill: #ffffff"/>
    <path d="M 71.670744 200.791263 
L 210.603335 253.932505 
" clip-path="url(#pa2be55a34f)" style="fill: #ffffff"/>
    <path d="M 71.774096 200.413971 
L 275.320675 235.232175 
" clip-path="url(#pa2be55a34f)" style="fill: #ffffff"/>
    <path d="M 89.833093 236.265722 
C 64.170149 247.471871 85.150948 264.844051 91.373565 237.54124 
C 85.150948 264.844051 64.170149 247.471871 89.833093 236.265722 
" clip-path="url(#pa2be55a34f)" style="fill: #ffffff"/>
    <path d="M 93.575973 236.283902 
L 139.716524 253.932505 
" clip-path="url(#pa2be55a34f)" style="stroke: #000000; stroke-width: 5"/>
    <path d="M 93.679325 235.90661 
L 210.086575 255.818963 
" clip-path="url(#pa2be55a34f)" style="fill: #ffffff"/>
    <path d="M 93.707959 235.569393 
L 275.292041 235.569393 
" clip-path="url(#pa2be55a34f)" style="fill: #ffffff"/>
    <path d="M 142.566648 265.11298 
C 130.807944 281.316534 157.594202 286.264557 152.400282 266.929473 
C 157.594202 286.264557 130.807944 281.316534 142.566648 265.11298 
" clip-path="url(#pa2be55a34f)" style="fill: #ffffff"/>
    <path d="M 159.056594 257.50505 
L 209.943406 257.50505 
" clip-path="url(#pa2be55a34f)" style="stroke: #000000; stroke-width: 4.927746"/>
    <path d="M 158.913425 255.818963 
L 275.320675 235.90661 
" clip-path="url(#pa2be55a34f)" style="fill: #ffffff"/>
    <path d="M 216.599718 266.929473 
C 211.405798 286.264557 238.192056 281.316534 226.433352 265.11298 
C 238.192056 281.316534 211.405798 286.264557 216.599718 266.929473 
" clip-path="url(#pa2be55a34f)" style="fill: #ffffff"/>
    <path d="M 229.283476 253.932505 
L 275.424027 236.283902 
" clip-path="url(#pa2be55a34f)" style="fill: #ffffff"/>
    <path d="M 277.626435 237.54124 
C 283.849052 264.844051 304.829851 247.471871 279.166907 236.265722 
C 304.829851 247.471871 283.849052 264.844051 277.626435 237.54124 
" clip-path="url(#pa2be55a34f)" style="fill: #ffffff"/>
   </g>
   <g id="VertexCollection_1">
    <path d="M 299.19727 202.076753 
C 299.727676 202.076753 300.23643 201.866021 300.611484 201.490967 
C 300.986538 201.115913 301.19727 200.60716 301.19727 200.076753 
C 301.19727 199.546347 300.986538 199.037594 300.611484 198.66254 
C 300.23643 198.287486 299.727676 198.076753 299.19727 198.076753 
C 298.666864 198.076753 298.158111 198.287486 297.783057 198.66254 
C 297.408003 199.037594 297.19727 199.546347 297.19727 200.076753 
C 297.19727 200.60716 297.408003 201.115913 297.783057 201.490967 
C 298.158111 201.866021 298.666864 202.076753 299.19727 202.076753 
z
" clip-path="url(#pa2be55a34f)" style="fill: #fdcab5; stroke: #fdcab5; stroke-width: 3"/>
    <path d="M 277.292041 166.584114 
C 277.822447 166.584114 278.331201 166.373382 278.706254 165.998328 
C 279.081308 165.623274 279.292041 165.114521 279.292041 164.584114 
C 279.292041 164.053708 279.081308 163.544955 278.706254 163.169901 
C 278.331201 162.794847 277.822447 162.584114 277.292041 162.584114 
C 276.761635 162.584114 276.252881 162.794847 275.877827 163.169901 
C 275.502773 163.544955 275.292041 164.053708 275.292041 164.584114 
C 275.292041 165.114521 275.502773 165.623274 275.877827 165.998328 
C 276.252881 166.373382 276.761635 166.584114 277.292041 166.584114 
z
" clip-path="url(#pa2be55a34f)" style="fill: #fdcab5; stroke: #fdcab5; stroke-width: 3"/>
    <path d="M 219.943406 144.648457 
C 220.473812 144.648457 220.982565 144.437725 221.357619 144.062671 
C 221.732673 143.687617 221.943406 143.178863 221.943406 142.648457 
C 221.943406 142.118051 221.732673 141.609297 221.357619 141.234244 
C 220.982565 140.85919 220.473812 140.648457 219.943406 140.648457 
C 219.413 140.648457 218.904246 140.85919 218.529192 141.234244 
C 218.154138 141.609297 217.943406 142.118051 217.943406 142.648457 
C 217.943406 143.178863 218.154138 143.687617 218.529192 144.062671 
C 218.904246 144.437725 219.413 144.648457 219.943406 144.648457 
z
" clip-path="url(#pa2be55a34f)" style="fill: #fdcab5; stroke: #fdcab5; stroke-width: 3"/>
    <path d="M 149.056594 144.648457 
C 149.587 144.648457 150.095754 144.437725 150.470808 144.062671 
C 150.845862 143.687617 151.056594 143.178863 151.056594 142.648457 
C 151.056594 142.118051 150.845862 141.609297 150.470808 141.234244 
C 150.095754 140.85919 149.587 140.648457 149.056594 140.648457 
C 148.526188 140.648457 148.017435 140.85919 147.642381 141.234244 
C 147.267327 141.609297 147.056594 142.118051 147.056594 142.648457 
C 147.056594 143.178863 147.267327 143.687617 147.642381 144.062671 
C 148.017435 144.437725 148.526188 144.648457 149.056594 144.648457 
z
" clip-path="url(#pa2be55a34f)" style="fill: #fdcab5; stroke: #fdcab5; stroke-width: 3"/>
    <path d="M 91.707959 166.584114 
C 92.238365 166.584114 92.747119 166.373382 93.122173 165.998328 
C 93.497227 165.623274 93.707959 165.114521 93.707959 164.584114 
C 93.707959 164.053708 93.497227 163.544955 93.122173 163.169901 
C 92.747119 162.794847 92.238365 162.584114 91.707959 162.584114 
C 91.177553 162.584114 90.668799 162.794847 90.293746 163.169901 
C 89.918692 163.544955 89.707959 164.053708 89.707959 164.584114 
C 89.707959 165.114521 89.918692 165.623274 90.293746 165.998328 
C 90.668799 166.373382 91.177553 166.584114 91.707959 166.584114 
z
" clip-path="url(#pa2be55a34f)" style="fill: #fdcab5; stroke: #fdcab5; stroke-width: 3"/>
    <path d="M 69.80273 202.076753 
C 70.333136 202.076753 70.841889 201.866021 71.216943 201.490967 
C 71.591997 201.115913 71.80273 200.60716 71.80273 200.076753 
C 71.80273 199.546347 71.591997 199.037594 71.216943 198.66254 
C 70.841889 198.287486 70.333136 198.076753 69.80273 198.076753 
C 69.272324 198.076753 68.76357 198.287486 68.388516 198.66254 
C 68.013462 199.037594 67.80273 199.546347 67.80273 200.076753 
C 67.80273 200.60716 68.013462 201.115913 68.388516 201.490967 
C 68.76357 201.866021 69.272324 202.076753 69.80273 202.076753 
z
" clip-path="url(#pa2be55a34f)" style="fill: #fdcab5; stroke: #fdcab5; stroke-width: 3"/>
    <path d="M 91.707959 237.569393 
C 92.238365 237.569393 92.747119 237.35866 93.122173 236.983606 
C 93.497227 236.608552 93.707959 236.099799 93.707959 235.569393 
C 93.707959 235.038986 93.497227 234.530233 93.122173 234.155179 
C 92.747119 233.780125 92.238365 233.569393 91.707959 233.569393 
C 91.177553 233.569393 90.668799 233.780125 90.293746 234.155179 
C 89.918692 234.530233 89.707959 235.038986 89.707959 235.569393 
C 89.707959 236.099799 89.918692 236.608552 90.293746 236.983606 
C 90.668799 237.35866 91.177553 237.569393 91.707959 237.569393 
z
" clip-path="url(#pa2be55a34f)" style="fill: #fdcab5; stroke: #fdcab5; stroke-width: 3"/>
    <path d="M 149.056594 267.50505 
C 151.708625 267.50505 154.252393 266.451387 156.127662 264.576118 
C 158.002931 262.700849 159.056594 260.157081 159.056594 257.50505 
C 159.056594 254.853019 158.002931 252.309251 156.127662 250.433982 
C 154.252393 248.558713 151.708625 247.50505 149.056594 247.50505 
C 146.404563 247.50505 143.860796 248.558713 141.985526 250.433982 
C 140.110257 252.309251 139.056594 254.853019 139.056594 257.50505 
C 139.056594 260.157081 140.110257 262.700849 141.985526 264.576118 
C 143.860796 266.451387 146.404563 267.50505 149.056594 267.50505 
z
" clip-path="url(#pa2be55a34f)" style="fill: #6b010e; stroke: #6b010e; stroke-width: 3"/>
    <path d="M 219.943406 267.50505 
C 222.595437 267.50505 225.139204 266.451387 227.014474 264.576118 
C 228.889743 262.700849 229.943406 260.157081 229.943406 257.50505 
C 229.943406 254.853019 228.889743 252.309251 227.014474 250.433982 
C 225.139204 248.558713 222.595437 247.50505 219.943406 247.50505 
C 217.291375 247.50505 214.747607 248.558713 212.872338 250.433982 
C 210.997069 252.309251 209.943406 254.853019 209.943406 257.50505 
C 209.943406 260.157081 210.997069 262.700849 212.872338 264.576118 
C 214.747607 266.451387 217.291375 267.50505 219.943406 267.50505 
z
" clip-path="url(#pa2be55a34f)" style="fill: #6b010e; stroke: #6b010e; stroke-width: 3"/>
    <path d="M 277.292041 237.569393 
C 277.822447 237.569393 278.331201 237.35866 278.706254 236.983606 
C 279.081308 236.608552 279.292041 236.099799 279.292041 235.569393 
C 279.292041 235.038986 279.081308 234.530233 278.706254 234.155179 
C 278.331201 233.780125 277.822447 233.569393 277.292041 233.569393 
C 276.761635 233.569393 276.252881 233.780125 275.877827 234.155179 
C 275.502773 234.530233 275.292041 235.038986 275.292041 235.569393 
C 275.292041 236.099799 275.502773 236.608552 275.877827 236.983606 
C 276.252881 237.35866 276.761635 237.569393 277.292041 237.569393 
z
" clip-path="url(#pa2be55a34f)" style="fill: #fdcab5; stroke: #fdcab5; stroke-width: 3"/>
   </g>
   <g id="matplotlib.axis_1"/>
   <g id="matplotlib.axis_2"/>
  </g>
  <g id="axes_2">
   <g id="patch_3">
    <path d="M 45 445.034483 
L 324 445.034483 
L 324 301.655172 
L 45 301.655172 
z
" style="fill: #ffffff"/>
   </g>
   <g id="EdgeCollection_2">
    <path d="M 300.929321 374.344828 
C 325.927466 386.964543 325.927466 359.725113 300.929321 372.344828 
C 325.927466 359.725113 325.927466 386.964543 300.929321 374.344828 
" clip-path="url(#p32945d7787)" style="fill: #ffffff"/>
    <path d="M 298.131424 371.652501 
L 278.357888 340.256535 
" clip-path="url(#p32945d7787)" style="fill: #ffffff"/>
    <path d="M 297.566562 372.186902 
L 228.096945 322.858231 
" clip-path="url(#p32945d7787)" style="stroke: #000000; stroke-width: 2.161804"/>
    <path d="M 297.324503 372.642871 
L 150.929361 317.77056 
" clip-path="url(#p32945d7787)" style="fill: #ffffff"/>
    <path d="M 297.22479 373.014188 
L 93.680439 338.894847 
" clip-path="url(#p32945d7787)" style="fill: #ffffff"/>
    <path d="M 297.19727 373.344828 
L 71.80273 373.344828 
" clip-path="url(#p32945d7787)" style="fill: #ffffff"/>
    <path d="M 297.22479 373.675467 
L 101.57036 406.472252 
" clip-path="url(#p32945d7787)" style="fill: #ffffff"/>
    <path d="M 297.324503 374.046784 
L 158.42043 426.111269 
" clip-path="url(#p32945d7787)" style="fill: #ffffff"/>
    <path d="M 297.566562 374.502753 
L 228.096945 423.831424 
" clip-path="url(#p32945d7787)" style="fill: #ffffff"/>
    <path d="M 298.131424 375.037155 
L 278.357888 406.43312 
" clip-path="url(#p32945d7787)" style="fill: #ffffff"/>
    <path d="M 279.161345 337.85308 
C 304.734909 326.444431 283.617449 309.238635 277.610838 336.589779 
C 283.617449 309.238635 304.734909 326.444431 279.161345 337.85308 
" clip-path="url(#p32945d7787)" style="fill: #ffffff"/>
    <path d="M 275.419274 337.862251 
L 229.307241 320.578387 
" clip-path="url(#p32945d7787)" style="fill: #ffffff"/>
    <path d="M 275.319561 338.233569 
L 151.029074 317.399242 
" clip-path="url(#p32945d7787)" style="fill: #ffffff"/>
    <path d="M 275.292041 338.564208 
L 93.707959 338.564208 
" clip-path="url(#p32945d7787)" style="fill: #ffffff"/>
    <path d="M 275.319561 338.894847 
L 71.77521 373.014188 
" clip-path="url(#p32945d7787)" style="fill: #ffffff"/>
    <path d="M 275.419274 339.266165 
L 101.071795 404.615663 
" clip-path="url(#p32945d7787)" style="fill: #ffffff"/>
    <path d="M 275.661333 339.722134 
L 157.210134 423.831424 
" clip-path="url(#p32945d7787)" style="fill: #ffffff"/>
    <path d="M 276.226194 340.256535 
L 225.27264 421.159417 
" clip-path="url(#p32945d7787)" style="fill: #ffffff"/>
    <path d="M 277.292041 340.564208 
L 277.292041 406.125447 
" clip-path="url(#p32945d7787)" style="fill: #ffffff"/>
    <path d="M 226.407787 309.438938 
C 238.112054 293.196019 211.309343 288.337905 216.568113 307.655452 
C 211.309343 288.337905 238.112054 293.196019 226.407787 309.438938 
" clip-path="url(#p32945d7787)" style="fill: #ffffff"/>
    <path d="M 209.943406 317.068603 
L 151.056594 317.068603 
" clip-path="url(#p32945d7787)" style="fill: #2c2c2c; stroke: #2c2c2c; stroke-width: 0.862069"/>
    <path d="M 210.081005 318.721798 
L 93.680439 338.233569 
" clip-path="url(#p32945d7787)" style="fill: #ffffff"/>
    <path d="M 210.57957 320.578387 
L 71.675497 372.642871 
" clip-path="url(#p32945d7787)" style="fill: #ffffff"/>
    <path d="M 211.789866 322.858231 
L 99.861499 402.335819 
" clip-path="url(#p32945d7787)" style="fill: #ffffff"/>
    <path d="M 214.614172 325.530238 
L 154.385828 421.159417 
" clip-path="url(#p32945d7787)" style="fill: #ffffff"/>
    <path d="M 219.943406 327.068603 
L 219.943406 419.621052 
" clip-path="url(#p32945d7787)" style="fill: #ffffff"/>
    <path d="M 225.27264 325.530238 
L 276.226194 406.43312 
" clip-path="url(#p32945d7787)" style="fill: #ffffff"/>
    <path d="M 149.731653 315.185973 
C 157.690657 288.337905 130.887946 293.196019 147.763718 315.54267 
C 130.887946 293.196019 157.690657 288.337905 149.731653 315.185973 
" clip-path="url(#p32945d7787)" style="fill: #ffffff"/>
    <path d="M 147.183827 317.77056 
L 93.580726 337.862251 
" clip-path="url(#p32945d7787)" style="fill: #ffffff"/>
    <path d="M 147.425886 318.226528 
L 71.433438 372.186902 
" clip-path="url(#p32945d7787)" style="fill: #ffffff"/>
    <path d="M 147.990748 318.76093 
L 97.037193 399.663812 
" clip-path="url(#p32945d7787)" style="fill: #ffffff"/>
    <path d="M 149.056594 319.068603 
L 149.056594 419.621052 
" clip-path="url(#p32945d7787)" style="fill: #ffffff"/>
    <path d="M 150.122441 318.76093 
L 214.614172 421.159417 
" clip-path="url(#p32945d7787)" style="fill: #ffffff"/>
    <path d="M 150.687302 318.226528 
L 275.661333 406.967522 
" clip-path="url(#p32945d7787)" style="fill: #ffffff"/>
    <path d="M 91.389162 336.589779 
C 85.382551 309.238635 64.265091 326.444431 89.838655 337.85308 
C 64.265091 326.444431 85.382551 309.238635 91.389162 336.589779 
" clip-path="url(#p32945d7787)" style="fill: #ffffff"/>
    <path d="M 90.642112 340.256535 
L 70.868576 371.652501 
" clip-path="url(#p32945d7787)" style="fill: #ffffff"/>
    <path d="M 91.707959 340.564208 
L 91.707959 398.125447 
" clip-path="url(#p32945d7787)" style="fill: #ffffff"/>
    <path d="M 92.773806 340.256535 
L 143.72736 421.159417 
" clip-path="url(#p32945d7787)" style="fill: #ffffff"/>
    <path d="M 93.338667 339.722134 
L 211.789866 423.831424 
" clip-path="url(#p32945d7787)" style="fill: #ffffff"/>
    <path d="M 93.580726 339.266165 
L 275.419274 407.423491 
" clip-path="url(#p32945d7787)" style="fill: #ffffff"/>
    <path d="M 68.070679 372.344828 
C 43.072534 359.725113 43.072534 386.964543 68.070679 374.344828 
C 43.072534 386.964543 43.072534 359.725113 68.070679 372.344828 
" clip-path="url(#p32945d7787)" style="fill: #ffffff"/>
    <path d="M 70.868576 375.037155 
L 86.378725 399.663812 
" clip-path="url(#p32945d7787)" style="fill: #ffffff"/>
    <path d="M 71.433438 374.502753 
L 140.903055 423.831424 
" clip-path="url(#p32945d7787)" style="fill: #ffffff"/>
    <path d="M 71.675497 374.046784 
L 210.57957 426.111269 
" clip-path="url(#p32945d7787)" style="fill: #ffffff"/>
    <path d="M 71.77521 373.675467 
L 275.319561 407.794808 
" clip-path="url(#p32945d7787)" style="fill: #ffffff"/>
    <path d="M 82.36144 411.681087 
C 64.265091 420.245224 85.382551 437.45102 90.113973 417.99759 
C 85.382551 437.45102 64.265091 420.245224 82.36144 411.681087 
" clip-path="url(#p32945d7787)" style="fill: #ffffff"/>
    <path d="M 101.071795 411.635231 
L 139.692759 426.111269 
" clip-path="url(#p32945d7787)" style="stroke: #000000; stroke-width: 5"/>
    <path d="M 101.57036 409.778643 
L 210.081005 427.967857 
" clip-path="url(#p32945d7787)" style="stroke: #000000; stroke-width: 2.824934"/>
    <path d="M 101.707959 408.125447 
L 275.292041 408.125447 
" clip-path="url(#p32945d7787)" style="fill: #ffffff"/>
    <path d="M 142.592213 437.250717 
C 130.887946 453.493636 157.690657 458.35175 152.431887 439.034203 
C 157.690657 458.35175 130.887946 453.493636 142.592213 437.250717 
" clip-path="url(#p32945d7787)" style="fill: #ffffff"/>
    <path d="M 159.056594 429.621052 
L 209.943406 429.621052 
" clip-path="url(#p32945d7787)" style="stroke: #000000; stroke-width: 3.700265"/>
    <path d="M 158.918995 427.967857 
L 275.319561 408.456086 
" clip-path="url(#p32945d7787)" style="fill: #ffffff"/>
    <path d="M 216.568113 439.034203 
C 211.309343 458.35175 238.112054 453.493636 226.407787 437.250717 
C 238.112054 453.493636 211.309343 458.35175 216.568113 439.034203 
" clip-path="url(#p32945d7787)" style="fill: #ffffff"/>
    <path d="M 229.307241 426.111269 
L 275.419274 408.827404 
" clip-path="url(#p32945d7787)" style="fill: #ffffff"/>
    <path d="M 277.610838 410.099876 
C 283.617449 437.45102 304.734909 420.245224 279.161345 408.836575 
C 304.734909 420.245224 283.617449 437.45102 277.610838 410.099876 
" clip-path="url(#p32945d7787)" style="fill: #ffffff"/>
   </g>
   <g id="VertexCollection_2">
    <path d="M 299.19727 375.344828 
C 299.727676 375.344828 300.23643 375.134095 300.611484 374.759041 
C 300.986538 374.383987 301.19727 373.875234 301.19727 373.344828 
C 301.19727 372.814421 300.986538 372.305668 300.611484 371.930614 
C 300.23643 371.55556 299.727676 371.344828 299.19727 371.344828 
C 298.666864 371.344828 298.158111 371.55556 297.783057 371.930614 
C 297.408003 372.305668 297.19727 372.814421 297.19727 373.344828 
C 297.19727 373.875234 297.408003 374.383987 297.783057 374.759041 
C 298.158111 375.134095 298.666864 375.344828 299.19727 375.344828 
z
" clip-path="url(#p32945d7787)" style="fill: #fdcab5; stroke: #fdcab5; stroke-width: 3"/>
    <path d="M 277.292041 340.564208 
C 277.822447 340.564208 278.331201 340.353475 278.706254 339.978421 
C 279.081308 339.603368 279.292041 339.094614 279.292041 338.564208 
C 279.292041 338.033802 279.081308 337.525048 278.706254 337.149994 
C 278.331201 336.774941 277.822447 336.564208 277.292041 336.564208 
C 276.761635 336.564208 276.252881 336.774941 275.877827 337.149994 
C 275.502773 337.525048 275.292041 338.033802 275.292041 338.564208 
C 275.292041 339.094614 275.502773 339.603368 275.877827 339.978421 
C 276.252881 340.353475 276.761635 340.564208 277.292041 340.564208 
z
" clip-path="url(#p32945d7787)" style="fill: #fdcab5; stroke: #fdcab5; stroke-width: 3"/>
    <path d="M 219.943406 327.068603 
C 222.595437 327.068603 225.139204 326.01494 227.014474 324.139671 
C 228.889743 322.264401 229.943406 319.720634 229.943406 317.068603 
C 229.943406 314.416572 228.889743 311.872804 227.014474 309.997535 
C 225.139204 308.122266 222.595437 307.068603 219.943406 307.068603 
C 217.291375 307.068603 214.747607 308.122266 212.872338 309.997535 
C 210.997069 311.872804 209.943406 314.416572 209.943406 317.068603 
C 209.943406 319.720634 210.997069 322.264401 212.872338 324.139671 
C 214.747607 326.01494 217.291375 327.068603 219.943406 327.068603 
z
" clip-path="url(#p32945d7787)" style="fill: #6b010e; stroke: #6b010e; stroke-width: 3"/>
    <path d="M 149.056594 319.068603 
C 149.587 319.068603 150.095754 318.85787 150.470808 318.482816 
C 150.845862 318.107763 151.056594 317.599009 151.056594 317.068603 
C 151.056594 316.538197 150.845862 316.029443 150.470808 315.654389 
C 150.095754 315.279335 149.587 315.068603 149.056594 315.068603 
C 148.526188 315.068603 148.017435 315.279335 147.642381 315.654389 
C 147.267327 316.029443 147.056594 316.538197 147.056594 317.068603 
C 147.056594 317.599009 147.267327 318.107763 147.642381 318.482816 
C 148.017435 318.85787 148.526188 319.068603 149.056594 319.068603 
z
" clip-path="url(#p32945d7787)" style="fill: #fdcab5; stroke: #fdcab5; stroke-width: 3"/>
    <path d="M 91.707959 340.564208 
C 92.238365 340.564208 92.747119 340.353475 93.122173 339.978421 
C 93.497227 339.603368 93.707959 339.094614 93.707959 338.564208 
C 93.707959 338.033802 93.497227 337.525048 93.122173 337.149994 
C 92.747119 336.774941 92.238365 336.564208 91.707959 336.564208 
C 91.177553 336.564208 90.668799 336.774941 90.293746 337.149994 
C 89.918692 337.525048 89.707959 338.033802 89.707959 338.564208 
C 89.707959 339.094614 89.918692 339.603368 90.293746 339.978421 
C 90.668799 340.353475 91.177553 340.564208 91.707959 340.564208 
z
" clip-path="url(#p32945d7787)" style="fill: #fdcab5; stroke: #fdcab5; stroke-width: 3"/>
    <path d="M 69.80273 375.344828 
C 70.333136 375.344828 70.841889 375.134095 71.216943 374.759041 
C 71.591997 374.383987 71.80273 373.875234 71.80273 373.344828 
C 71.80273 372.814421 71.591997 372.305668 71.216943 371.930614 
C 70.841889 371.55556 70.333136 371.344828 69.80273 371.344828 
C 69.272324 371.344828 68.76357 371.55556 68.388516 371.930614 
C 68.013462 372.305668 67.80273 372.814421 67.80273 373.344828 
C 67.80273 373.875234 68.013462 374.383987 68.388516 374.759041 
C 68.76357 375.134095 69.272324 375.344828 69.80273 375.344828 
z
" clip-path="url(#p32945d7787)" style="fill: #fdcab5; stroke: #fdcab5; stroke-width: 3"/>
    <path d="M 91.707959 418.125447 
C 94.35999 418.125447 96.903758 417.071784 98.779027 415.196515 
C 100.654296 413.321246 101.707959 410.777478 101.707959 408.125447 
C 101.707959 405.473416 100.654296 402.929649 98.779027 401.054379 
C 96.903758 399.17911 94.35999 398.125447 91.707959 398.125447 
C 89.055928 398.125447 86.51216 399.17911 84.636891 401.054379 
C 82.761622 402.929649 81.707959 405.473416 81.707959 408.125447 
C 81.707959 410.777478 82.761622 413.321246 84.636891 415.196515 
C 86.51216 417.071784 89.055928 418.125447 91.707959 418.125447 
z
" clip-path="url(#p32945d7787)" style="fill: #6b010e; stroke: #6b010e; stroke-width: 3"/>
    <path d="M 149.056594 439.621052 
C 151.708625 439.621052 154.252393 438.567389 156.127662 436.69212 
C 158.002931 434.816851 159.056594 432.273083 159.056594 429.621052 
C 159.056594 426.969021 158.002931 424.425254 156.127662 422.549985 
C 154.252393 420.674715 151.708625 419.621052 149.056594 419.621052 
C 146.404563 419.621052 143.860796 420.674715 141.985526 422.549985 
C 140.110257 424.425254 139.056594 426.969021 139.056594 429.621052 
C 139.056594 432.273083 140.110257 434.816851 141.985526 436.69212 
C 143.860796 438.567389 146.404563 439.621052 149.056594 439.621052 
z
" clip-path="url(#p32945d7787)" style="fill: #6b010e; stroke: #6b010e; stroke-width: 3"/>
    <path d="M 219.943406 439.621052 
C 222.595437 439.621052 225.139204 438.567389 227.014474 436.69212 
C 228.889743 434.816851 229.943406 432.273083 229.943406 429.621052 
C 229.943406 426.969021 228.889743 424.425254 227.014474 422.549985 
C 225.139204 420.674715 222.595437 419.621052 219.943406 419.621052 
C 217.291375 419.621052 214.747607 420.674715 212.872338 422.549985 
C 210.997069 424.425254 209.943406 426.969021 209.943406 429.621052 
C 209.943406 432.273083 210.997069 434.816851 212.872338 436.69212 
C 214.747607 438.567389 217.291375 439.621052 219.943406 439.621052 
z
" clip-path="url(#p32945d7787)" style="fill: #6b010e; stroke: #6b010e; stroke-width: 3"/>
    <path d="M 277.292041 410.125447 
C 277.822447 410.125447 278.331201 409.914715 278.706254 409.539661 
C 279.081308 409.164607 279.292041 408.655853 279.292041 408.125447 
C 279.292041 407.595041 279.081308 407.086288 278.706254 406.711234 
C 278.331201 406.33618 277.822447 406.125447 277.292041 406.125447 
C 276.761635 406.125447 276.252881 406.33618 275.877827 406.711234 
C 275.502773 407.086288 275.292041 407.595041 275.292041 408.125447 
C 275.292041 408.655853 275.502773 409.164607 275.877827 409.539661 
C 276.252881 409.914715 276.761635 410.125447 277.292041 410.125447 
z
" clip-path="url(#p32945d7787)" style="fill: #fdcab5; stroke: #fdcab5; stroke-width: 3"/>
   </g>
   <g id="matplotlib.axis_3"/>
   <g id="matplotlib.axis_4"/>
  </g>
  <g id="axes_3">
   <g id="patch_4">
    <path d="M 45 617.089655 
L 324 617.089655 
L 324 473.710345 
L 45 473.710345 
z
" style="fill: #ffffff"/>
   </g>
   <g id="EdgeCollection_3">
    <path d="M 300.929321 546.4 
C 325.927466 559.019715 325.927466 531.780285 300.929321 544.4 
C 325.927466 531.780285 325.927466 559.019715 300.929321 546.4 
" clip-path="url(#pbac7fbcf0d)" style="fill: #ffffff"/>
    <path d="M 298.131424 543.707673 
L 278.357888 512.311707 
" clip-path="url(#pbac7fbcf0d)" style="fill: #ffffff"/>
    <path d="M 297.566562 544.242074 
L 228.096945 494.913403 
" clip-path="url(#pbac7fbcf0d)" style="stroke: #000000; stroke-width: 1.760563"/>
    <path d="M 297.324503 544.698043 
L 150.929361 489.825732 
" clip-path="url(#pbac7fbcf0d)" style="fill: #ffffff"/>
    <path d="M 297.22479 545.069361 
L 93.680439 510.950019 
" clip-path="url(#pbac7fbcf0d)" style="fill: #ffffff"/>
    <path d="M 297.19727 545.4 
L 71.80273 545.4 
" clip-path="url(#pbac7fbcf0d)" style="fill: #ffffff"/>
    <path d="M 297.22479 545.730639 
L 101.57036 578.527424 
" clip-path="url(#pbac7fbcf0d)" style="fill: #ffffff"/>
    <path d="M 297.324503 546.101957 
L 158.42043 598.166441 
" clip-path="url(#pbac7fbcf0d)" style="fill: #ffffff"/>
    <path d="M 297.566562 546.557926 
L 228.096945 595.886597 
" clip-path="url(#pbac7fbcf0d)" style="fill: #ffffff"/>
    <path d="M 298.131424 547.092327 
L 278.357888 578.488293 
" clip-path="url(#pbac7fbcf0d)" style="fill: #ffffff"/>
    <path d="M 279.161345 509.908252 
C 304.734909 498.499604 283.617449 481.293808 277.610838 508.644952 
C 283.617449 481.293808 304.734909 498.499604 279.161345 509.908252 
" clip-path="url(#pbac7fbcf0d)" style="fill: #ffffff"/>
    <path d="M 275.419274 509.917424 
L 229.307241 492.633559 
" clip-path="url(#pbac7fbcf0d)" style="fill: #ffffff"/>
    <path d="M 275.319561 510.288741 
L 151.029074 489.454414 
" clip-path="url(#pbac7fbcf0d)" style="fill: #ffffff"/>
    <path d="M 275.292041 510.61938 
L 93.707959 510.61938 
" clip-path="url(#pbac7fbcf0d)" style="fill: #ffffff"/>
    <path d="M 275.319561 510.950019 
L 71.77521 545.069361 
" clip-path="url(#pbac7fbcf0d)" style="fill: #ffffff"/>
    <path d="M 275.419274 511.321337 
L 101.071795 576.670836 
" clip-path="url(#pbac7fbcf0d)" style="fill: #ffffff"/>
    <path d="M 275.661333 511.777306 
L 157.210134 595.886597 
" clip-path="url(#pbac7fbcf0d)" style="fill: #ffffff"/>
    <path d="M 276.226194 512.311707 
L 225.27264 593.21459 
" clip-path="url(#pbac7fbcf0d)" style="fill: #ffffff"/>
    <path d="M 277.292041 512.61938 
L 277.292041 578.18062 
" clip-path="url(#pbac7fbcf0d)" style="fill: #ffffff"/>
    <path d="M 226.407787 481.494111 
C 238.112054 465.251192 211.309343 460.393078 216.568113 479.710625 
C 211.309343 460.393078 238.112054 465.251192 226.407787 481.494111 
" clip-path="url(#pbac7fbcf0d)" style="fill: #ffffff"/>
    <path d="M 209.943406 489.123775 
L 151.056594 489.123775 
" clip-path="url(#pbac7fbcf0d)" style="stroke: #000000; stroke-width: 1.042254"/>
    <path d="M 210.081005 490.776971 
L 93.680439 510.288741 
" clip-path="url(#pbac7fbcf0d)" style="fill: #ffffff"/>
    <path d="M 210.57957 492.633559 
L 71.675497 544.698043 
" clip-path="url(#pbac7fbcf0d)" style="fill: #ffffff"/>
    <path d="M 211.789866 494.913403 
L 99.861499 574.390991 
" clip-path="url(#pbac7fbcf0d)" style="fill: #ffffff"/>
    <path d="M 214.614172 497.58541 
L 154.385828 593.21459 
" clip-path="url(#pbac7fbcf0d)" style="fill: #ffffff"/>
    <path d="M 219.943406 499.123775 
L 219.943406 591.676225 
" clip-path="url(#pbac7fbcf0d)" style="fill: #ffffff"/>
    <path d="M 225.27264 497.58541 
L 276.226194 578.488293 
" clip-path="url(#pbac7fbcf0d)" style="fill: #ffffff"/>
    <path d="M 149.731653 487.241145 
C 157.690657 460.393078 130.887946 465.251192 147.763718 487.597842 
C 130.887946 465.251192 157.690657 460.393078 149.731653 487.241145 
" clip-path="url(#pbac7fbcf0d)" style="fill: #ffffff"/>
    <path d="M 147.183827 489.825732 
L 93.580726 509.917424 
" clip-path="url(#pbac7fbcf0d)" style="fill: #ffffff"/>
    <path d="M 147.425886 490.281701 
L 71.433438 544.242074 
" clip-path="url(#pbac7fbcf0d)" style="fill: #ffffff"/>
    <path d="M 147.990748 490.816102 
L 97.037193 571.718985 
" clip-path="url(#pbac7fbcf0d)" style="fill: #ffffff"/>
    <path d="M 149.056594 491.123775 
L 149.056594 591.676225 
" clip-path="url(#pbac7fbcf0d)" style="fill: #ffffff"/>
    <path d="M 150.122441 490.816102 
L 214.614172 593.21459 
" clip-path="url(#pbac7fbcf0d)" style="fill: #ffffff"/>
    <path d="M 150.687302 490.281701 
L 275.661333 579.022694 
" clip-path="url(#pbac7fbcf0d)" style="fill: #ffffff"/>
    <path d="M 91.389162 508.644952 
C 85.382551 481.293808 64.265091 498.499604 89.838655 509.908252 
C 64.265091 498.499604 85.382551 481.293808 91.389162 508.644952 
" clip-path="url(#pbac7fbcf0d)" style="fill: #ffffff"/>
    <path d="M 90.642112 512.311707 
L 70.868576 543.707673 
" clip-path="url(#pbac7fbcf0d)" style="fill: #ffffff"/>
    <path d="M 91.707959 512.61938 
L 91.707959 570.18062 
" clip-path="url(#pbac7fbcf0d)" style="fill: #ffffff"/>
    <path d="M 92.773806 512.311707 
L 143.72736 593.21459 
" clip-path="url(#pbac7fbcf0d)" style="fill: #ffffff"/>
    <path d="M 93.338667 511.777306 
L 211.789866 595.886597 
" clip-path="url(#pbac7fbcf0d)" style="fill: #ffffff"/>
    <path d="M 93.580726 511.321337 
L 275.419274 579.478663 
" clip-path="url(#pbac7fbcf0d)" style="fill: #ffffff"/>
    <path d="M 68.070679 544.4 
C 43.072534 531.780285 43.072534 559.019715 68.070679 546.4 
C 43.072534 559.019715 43.072534 531.780285 68.070679 544.4 
" clip-path="url(#pbac7fbcf0d)" style="fill: #ffffff"/>
    <path d="M 70.868576 547.092327 
L 86.378725 571.718985 
" clip-path="url(#pbac7fbcf0d)" style="fill: #ffffff"/>
    <path d="M 71.433438 546.557926 
L 140.903055 595.886597 
" clip-path="url(#pbac7fbcf0d)" style="fill: #ffffff"/>
    <path d="M 71.675497 546.101957 
L 210.57957 598.166441 
" clip-path="url(#pbac7fbcf0d)" style="fill: #ffffff"/>
    <path d="M 71.77521 545.730639 
L 275.319561 579.849981 
" clip-path="url(#pbac7fbcf0d)" style="stroke: #000000; stroke-width: 1.71831"/>
    <path d="M 82.36144 583.736259 
C 64.265091 592.300396 85.382551 609.506192 90.113973 590.052763 
C 85.382551 609.506192 64.265091 592.300396 82.36144 583.736259 
" clip-path="url(#pbac7fbcf0d)" style="fill: #ffffff"/>
    <path d="M 101.071795 583.690404 
L 139.692759 598.166441 
" clip-path="url(#pbac7fbcf0d)" style="stroke: #000000; stroke-width: 5"/>
    <path d="M 101.57036 581.833815 
L 210.081005 600.023029 
" clip-path="url(#pbac7fbcf0d)" style="stroke: #000000; stroke-width: 2.126761"/>
    <path d="M 101.707959 580.18062 
L 275.292041 580.18062 
" clip-path="url(#pbac7fbcf0d)" style="fill: #ffffff"/>
    <path d="M 142.592213 609.305889 
C 130.887946 625.548808 157.690657 630.406922 152.431887 611.089375 
C 157.690657 630.406922 130.887946 625.548808 142.592213 609.305889 
" clip-path="url(#pbac7fbcf0d)" style="fill: #ffffff"/>
    <path d="M 159.056594 601.676225 
L 209.943406 601.676225 
" clip-path="url(#pbac7fbcf0d)" style="stroke: #000000; stroke-width: 4.056338"/>
    <path d="M 158.918995 600.023029 
L 275.319561 580.511259 
" clip-path="url(#pbac7fbcf0d)" style="fill: #ffffff"/>
    <path d="M 216.568113 611.089375 
C 211.309343 630.406922 238.112054 625.548808 226.407787 609.305889 
C 238.112054 625.548808 211.309343 630.406922 216.568113 611.089375 
" clip-path="url(#pbac7fbcf0d)" style="fill: #ffffff"/>
    <path d="M 229.307241 598.166441 
L 275.419274 580.882576 
" clip-path="url(#pbac7fbcf0d)" style="fill: #ffffff"/>
    <path d="M 277.610838 582.155048 
C 283.617449 609.506192 304.734909 592.300396 279.161345 580.891748 
C 304.734909 592.300396 283.617449 609.506192 277.610838 582.155048 
" clip-path="url(#pbac7fbcf0d)" style="fill: #ffffff"/>
   </g>
   <g id="VertexCollection_3">
    <path d="M 299.19727 547.4 
C 299.727676 547.4 300.23643 547.189267 300.611484 546.814214 
C 300.986538 546.43916 301.19727 545.930406 301.19727 545.4 
C 301.19727 544.869594 300.986538 544.36084 300.611484 543.985786 
C 300.23643 543.610733 299.727676 543.4 299.19727 543.4 
C 298.666864 543.4 298.158111 543.610733 297.783057 543.985786 
C 297.408003 544.36084 297.19727 544.869594 297.19727 545.4 
C 297.19727 545.930406 297.408003 546.43916 297.783057 546.814214 
C 298.158111 547.189267 298.666864 547.4 299.19727 547.4 
z
" clip-path="url(#pbac7fbcf0d)" style="fill: #fdcab5; stroke: #fdcab5; stroke-width: 3"/>
    <path d="M 277.292041 512.61938 
C 277.822447 512.61938 278.331201 512.408648 278.706254 512.033594 
C 279.081308 511.65854 279.292041 511.149787 279.292041 510.61938 
C 279.292041 510.088974 279.081308 509.580221 278.706254 509.205167 
C 278.331201 508.830113 277.822447 508.61938 277.292041 508.61938 
C 276.761635 508.61938 276.252881 508.830113 275.877827 509.205167 
C 275.502773 509.580221 275.292041 510.088974 275.292041 510.61938 
C 275.292041 511.149787 275.502773 511.65854 275.877827 512.033594 
C 276.252881 512.408648 276.761635 512.61938 277.292041 512.61938 
z
" clip-path="url(#pbac7fbcf0d)" style="fill: #fdcab5; stroke: #fdcab5; stroke-width: 3"/>
    <path d="M 219.943406 499.123775 
C 222.595437 499.123775 225.139204 498.070112 227.014474 496.194843 
C 228.889743 494.319574 229.943406 491.775806 229.943406 489.123775 
C 229.943406 486.471744 228.889743 483.927976 227.014474 482.052707 
C 225.139204 480.177438 222.595437 479.123775 219.943406 479.123775 
C 217.291375 479.123775 214.747607 480.177438 212.872338 482.052707 
C 210.997069 483.927976 209.943406 486.471744 209.943406 489.123775 
C 209.943406 491.775806 210.997069 494.319574 212.872338 496.194843 
C 214.747607 498.070112 217.291375 499.123775 219.943406 499.123775 
z
" clip-path="url(#pbac7fbcf0d)" style="fill: #6b010e; stroke: #6b010e; stroke-width: 3"/>
    <path d="M 149.056594 491.123775 
C 149.587 491.123775 150.095754 490.913043 150.470808 490.537989 
C 150.845862 490.162935 151.056594 489.654181 151.056594 489.123775 
C 151.056594 488.593369 150.845862 488.084615 150.470808 487.709562 
C 150.095754 487.334508 149.587 487.123775 149.056594 487.123775 
C 148.526188 487.123775 148.017435 487.334508 147.642381 487.709562 
C 147.267327 488.084615 147.056594 488.593369 147.056594 489.123775 
C 147.056594 489.654181 147.267327 490.162935 147.642381 490.537989 
C 148.017435 490.913043 148.526188 491.123775 149.056594 491.123775 
z
" clip-path="url(#pbac7fbcf0d)" style="fill: #fdcab5; stroke: #fdcab5; stroke-width: 3"/>
    <path d="M 91.707959 512.61938 
C 92.238365 512.61938 92.747119 512.408648 93.122173 512.033594 
C 93.497227 511.65854 93.707959 511.149787 93.707959 510.61938 
C 93.707959 510.088974 93.497227 509.580221 93.122173 509.205167 
C 92.747119 508.830113 92.238365 508.61938 91.707959 508.61938 
C 91.177553 508.61938 90.668799 508.830113 90.293746 509.205167 
C 89.918692 509.580221 89.707959 510.088974 89.707959 510.61938 
C 89.707959 511.149787 89.918692 511.65854 90.293746 512.033594 
C 90.668799 512.408648 91.177553 512.61938 91.707959 512.61938 
z
" clip-path="url(#pbac7fbcf0d)" style="fill: #fdcab5; stroke: #fdcab5; stroke-width: 3"/>
    <path d="M 69.80273 547.4 
C 70.333136 547.4 70.841889 547.189267 71.216943 546.814214 
C 71.591997 546.43916 71.80273 545.930406 71.80273 545.4 
C 71.80273 544.869594 71.591997 544.36084 71.216943 543.985786 
C 70.841889 543.610733 70.333136 543.4 69.80273 543.4 
C 69.272324 543.4 68.76357 543.610733 68.388516 543.985786 
C 68.013462 544.36084 67.80273 544.869594 67.80273 545.4 
C 67.80273 545.930406 68.013462 546.43916 68.388516 546.814214 
C 68.76357 547.189267 69.272324 547.4 69.80273 547.4 
z
" clip-path="url(#pbac7fbcf0d)" style="fill: #fdcab5; stroke: #fdcab5; stroke-width: 3"/>
    <path d="M 91.707959 590.18062 
C 94.35999 590.18062 96.903758 589.126957 98.779027 587.251688 
C 100.654296 585.376418 101.707959 582.832651 101.707959 580.18062 
C 101.707959 577.528589 100.654296 574.984821 98.779027 573.109552 
C 96.903758 571.234283 94.35999 570.18062 91.707959 570.18062 
C 89.055928 570.18062 86.51216 571.234283 84.636891 573.109552 
C 82.761622 574.984821 81.707959 577.528589 81.707959 580.18062 
C 81.707959 582.832651 82.761622 585.376418 84.636891 587.251688 
C 86.51216 589.126957 89.055928 590.18062 91.707959 590.18062 
z
" clip-path="url(#pbac7fbcf0d)" style="fill: #6b010e; stroke: #6b010e; stroke-width: 3"/>
    <path d="M 149.056594 611.676225 
C 151.708625 611.676225 154.252393 610.622562 156.127662 608.747293 
C 158.002931 606.872024 159.056594 604.328256 159.056594 601.676225 
C 159.056594 599.024194 158.002931 596.480426 156.127662 594.605157 
C 154.252393 592.729888 151.708625 591.676225 149.056594 591.676225 
C 146.404563 591.676225 143.860796 592.729888 141.985526 594.605157 
C 140.110257 596.480426 139.056594 599.024194 139.056594 601.676225 
C 139.056594 604.328256 140.110257 606.872024 141.985526 608.747293 
C 143.860796 610.622562 146.404563 611.676225 149.056594 611.676225 
z
" clip-path="url(#pbac7fbcf0d)" style="fill: #6b010e; stroke: #6b010e; stroke-width: 3"/>
    <path d="M 219.943406 611.676225 
C 222.595437 611.676225 225.139204 610.622562 227.014474 608.747293 
C 228.889743 606.872024 229.943406 604.328256 229.943406 601.676225 
C 229.943406 599.024194 228.889743 596.480426 227.014474 594.605157 
C 225.139204 592.729888 222.595437 591.676225 219.943406 591.676225 
C 217.291375 591.676225 214.747607 592.729888 212.872338 594.605157 
C 210.997069 596.480426 209.943406 599.024194 209.943406 601.676225 
C 209.943406 604.328256 210.997069 606.872024 212.872338 608.747293 
C 214.747607 610.622562 217.291375 611.676225 219.943406 611.676225 
z
" clip-path="url(#pbac7fbcf0d)" style="fill: #6b010e; stroke: #6b010e; stroke-width: 3"/>
    <path d="M 277.292041 582.18062 
C 277.822447 582.18062 278.331201 581.969887 278.706254 581.594833 
C 279.081308 581.219779 279.292041 580.711026 279.292041 580.18062 
C 279.292041 579.650213 279.081308 579.14146 278.706254 578.766406 
C 278.331201 578.391352 277.822447 578.18062 277.292041 578.18062 
C 276.761635 578.18062 276.252881 578.391352 275.877827 578.766406 
C 275.502773 579.14146 275.292041 579.650213 275.292041 580.18062 
C 275.292041 580.711026 275.502773 581.219779 275.877827 581.594833 
C 276.252881 581.969887 276.761635 582.18062 277.292041 582.18062 
z
" clip-path="url(#pbac7fbcf0d)" style="fill: #fdcab5; stroke: #fdcab5; stroke-width: 3"/>
   </g>
   <g id="matplotlib.axis_5"/>
   <g id="matplotlib.axis_6"/>
  </g>
  <g id="axes_4">
   <g id="patch_5">
    <path d="M 45 789.144828 
L 324 789.144828 
L 324 645.765517 
L 45 645.765517 
z
" style="fill: #ffffff"/>
   </g>
   <g id="EdgeCollection_4">
    <path d="M 300.929321 718.455172 
C 325.927466 731.074887 325.927466 703.835457 300.929321 716.455172 
C 325.927466 703.835457 325.927466 731.074887 300.929321 718.455172 
" clip-path="url(#pc473a01a19)" style="fill: #ffffff"/>
    <path d="M 298.131424 715.762845 
L 278.357888 684.36688 
" clip-path="url(#pc473a01a19)" style="fill: #ffffff"/>
    <path d="M 297.566562 716.297247 
L 228.096945 666.968576 
" clip-path="url(#pc473a01a19)" style="stroke: #000000; stroke-width: 2.203647"/>
    <path d="M 297.324503 716.753216 
L 150.929361 661.880904 
" clip-path="url(#pc473a01a19)" style="fill: #ffffff"/>
    <path d="M 297.22479 717.124533 
L 93.680439 683.005192 
" clip-path="url(#pc473a01a19)" style="fill: #ffffff"/>
    <path d="M 297.19727 717.455172 
L 71.80273 717.455172 
" clip-path="url(#pc473a01a19)" style="fill: #ffffff"/>
    <path d="M 297.22479 717.785812 
L 101.57036 750.582597 
" clip-path="url(#pc473a01a19)" style="fill: #ffffff"/>
    <path d="M 297.324503 718.157129 
L 158.42043 770.221613 
" clip-path="url(#pc473a01a19)" style="fill: #ffffff"/>
    <path d="M 297.566562 718.613098 
L 228.096945 767.941769 
" clip-path="url(#pc473a01a19)" style="fill: #ffffff"/>
    <path d="M 298.131424 719.147499 
L 278.357888 750.543465 
" clip-path="url(#pc473a01a19)" style="fill: #ffffff"/>
    <path d="M 279.161345 681.963425 
C 304.734909 670.554776 283.617449 653.34898 277.610838 680.700124 
C 283.617449 653.34898 304.734909 670.554776 279.161345 681.963425 
" clip-path="url(#pc473a01a19)" style="fill: #ffffff"/>
    <path d="M 275.419274 681.972596 
L 229.307241 664.688731 
" clip-path="url(#pc473a01a19)" style="fill: #ffffff"/>
    <path d="M 275.319561 682.343914 
L 151.029074 661.509587 
" clip-path="url(#pc473a01a19)" style="fill: #ffffff"/>
    <path d="M 275.292041 682.674553 
L 93.707959 682.674553 
" clip-path="url(#pc473a01a19)" style="fill: #ffffff"/>
    <path d="M 275.319561 683.005192 
L 71.77521 717.124533 
" clip-path="url(#pc473a01a19)" style="fill: #ffffff"/>
    <path d="M 275.419274 683.376509 
L 101.071795 748.726008 
" clip-path="url(#pc473a01a19)" style="fill: #ffffff"/>
    <path d="M 275.661333 683.832478 
L 157.210134 767.941769 
" clip-path="url(#pc473a01a19)" style="fill: #ffffff"/>
    <path d="M 276.226194 684.36688 
L 225.27264 765.269762 
" clip-path="url(#pc473a01a19)" style="fill: #ffffff"/>
    <path d="M 277.292041 684.674553 
L 277.292041 750.235792 
" clip-path="url(#pc473a01a19)" style="fill: #ffffff"/>
    <path d="M 226.407787 653.549283 
C 238.112054 637.306364 211.309343 632.44825 216.568113 651.765797 
C 211.309343 632.44825 238.112054 637.306364 226.407787 653.549283 
" clip-path="url(#pc473a01a19)" style="fill: #ffffff"/>
    <path d="M 209.943406 661.178948 
L 151.056594 661.178948 
" clip-path="url(#pc473a01a19)" style="stroke: #000000; stroke-width: 1.079027"/>
    <path d="M 210.081005 662.832143 
L 93.680439 682.343914 
" clip-path="url(#pc473a01a19)" style="fill: #ffffff"/>
    <path d="M 210.57957 664.688731 
L 71.675497 716.753216 
" clip-path="url(#pc473a01a19)" style="fill: #ffffff"/>
    <path d="M 211.789866 666.968576 
L 99.861499 746.446164 
" clip-path="url(#pc473a01a19)" style="fill: #ffffff"/>
    <path d="M 214.614172 669.640583 
L 154.385828 765.269762 
" clip-path="url(#pc473a01a19)" style="fill: #ffffff"/>
    <path d="M 219.943406 671.178948 
L 219.943406 763.731397 
" clip-path="url(#pc473a01a19)" style="fill: #ffffff"/>
    <path d="M 225.27264 669.640583 
L 276.226194 750.543465 
" clip-path="url(#pc473a01a19)" style="fill: #ffffff"/>
    <path d="M 149.731653 659.296318 
C 157.690657 632.44825 130.887946 637.306364 147.763718 659.653015 
C 130.887946 637.306364 157.690657 632.44825 149.731653 659.296318 
" clip-path="url(#pc473a01a19)" style="fill: #ffffff"/>
    <path d="M 147.183827 661.880904 
L 93.580726 681.972596 
" clip-path="url(#pc473a01a19)" style="fill: #ffffff"/>
    <path d="M 147.425886 662.336873 
L 71.433438 716.297247 
" clip-path="url(#pc473a01a19)" style="fill: #ffffff"/>
    <path d="M 147.990748 662.871275 
L 97.037193 743.774157 
" clip-path="url(#pc473a01a19)" style="fill: #ffffff"/>
    <path d="M 149.056594 663.178948 
L 149.056594 763.731397 
" clip-path="url(#pc473a01a19)" style="fill: #ffffff"/>
    <path d="M 150.122441 662.871275 
L 214.614172 765.269762 
" clip-path="url(#pc473a01a19)" style="fill: #ffffff"/>
    <path d="M 150.687302 662.336873 
L 275.661333 751.077866 
" clip-path="url(#pc473a01a19)" style="fill: #ffffff"/>
    <path d="M 91.389162 680.700124 
C 85.382551 653.34898 64.265091 670.554776 89.838655 681.963425 
C 64.265091 670.554776 85.382551 653.34898 91.389162 680.700124 
" clip-path="url(#pc473a01a19)" style="fill: #ffffff"/>
    <path d="M 90.642112 684.36688 
L 70.868576 715.762845 
" clip-path="url(#pc473a01a19)" style="stroke: #000000; stroke-width: 2.416413"/>
    <path d="M 91.707959 684.674553 
L 91.707959 742.235792 
" clip-path="url(#pc473a01a19)" style="fill: #ffffff"/>
    <path d="M 92.773806 684.36688 
L 143.72736 765.269762 
" clip-path="url(#pc473a01a19)" style="fill: #ffffff"/>
    <path d="M 93.338667 683.832478 
L 211.789866 767.941769 
" clip-path="url(#pc473a01a19)" style="fill: #ffffff"/>
    <path d="M 93.580726 683.376509 
L 275.419274 751.533835 
" clip-path="url(#pc473a01a19)" style="fill: #ffffff"/>
    <path d="M 68.070679 716.455172 
C 43.072534 703.835457 43.072534 731.074887 68.070679 718.455172 
C 43.072534 731.074887 43.072534 703.835457 68.070679 716.455172 
" clip-path="url(#pc473a01a19)" style="fill: #ffffff"/>
    <path d="M 70.868576 719.147499 
L 86.378725 743.774157 
" clip-path="url(#pc473a01a19)" style="fill: #ffffff"/>
    <path d="M 71.433438 718.613098 
L 140.903055 767.941769 
" clip-path="url(#pc473a01a19)" style="fill: #ffffff"/>
    <path d="M 71.675497 718.157129 
L 210.57957 770.221613 
" clip-path="url(#pc473a01a19)" style="fill: #ffffff"/>
    <path d="M 71.77521 717.785812 
L 275.319561 751.905153 
" clip-path="url(#pc473a01a19)" style="fill: #ffffff"/>
    <path d="M 82.36144 755.791431 
C 64.265091 764.355569 85.382551 781.561365 90.113973 762.107935 
C 85.382551 781.561365 64.265091 764.355569 82.36144 755.791431 
" clip-path="url(#pc473a01a19)" style="fill: #ffffff"/>
    <path d="M 101.071795 755.745576 
L 139.692759 770.221613 
" clip-path="url(#pc473a01a19)" style="stroke: #000000; stroke-width: 5"/>
    <path d="M 101.57036 753.888988 
L 210.081005 772.078202 
" clip-path="url(#pc473a01a19)" style="stroke: #000000; stroke-width: 2.68997"/>
    <path d="M 101.707959 752.235792 
L 275.292041 752.235792 
" clip-path="url(#pc473a01a19)" style="fill: #ffffff"/>
    <path d="M 142.592213 781.361062 
C 130.887946 797.603981 157.690657 802.462095 152.431887 783.144548 
C 157.690657 802.462095 130.887946 797.603981 142.592213 781.361062 
" clip-path="url(#pc473a01a19)" style="fill: #ffffff"/>
    <path d="M 159.056594 773.731397 
L 209.943406 773.731397 
" clip-path="url(#pc473a01a19)" style="stroke: #000000; stroke-width: 4.148936"/>
    <path d="M 158.918995 772.078202 
L 275.319561 752.566431 
" clip-path="url(#pc473a01a19)" style="fill: #ffffff"/>
    <path d="M 216.568113 783.144548 
C 211.309343 802.462095 238.112054 797.603981 226.407787 781.361062 
C 238.112054 797.603981 211.309343 802.462095 216.568113 783.144548 
" clip-path="url(#pc473a01a19)" style="fill: #ffffff"/>
    <path d="M 229.307241 770.221613 
L 275.419274 752.937749 
" clip-path="url(#pc473a01a19)" style="fill: #ffffff"/>
    <path d="M 277.610838 754.210221 
C 283.617449 781.561365 304.734909 764.355569 279.161345 752.94692 
C 304.734909 764.355569 283.617449 781.561365 277.610838 754.210221 
" clip-path="url(#pc473a01a19)" style="fill: #ffffff"/>
   </g>
   <g id="VertexCollection_4">
    <path d="M 299.19727 719.455172 
C 299.727676 719.455172 300.23643 719.24444 300.611484 718.869386 
C 300.986538 718.494332 301.19727 717.985579 301.19727 717.455172 
C 301.19727 716.924766 300.986538 716.416013 300.611484 716.040959 
C 300.23643 715.665905 299.727676 715.455172 299.19727 715.455172 
C 298.666864 715.455172 298.158111 715.665905 297.783057 716.040959 
C 297.408003 716.416013 297.19727 716.924766 297.19727 717.455172 
C 297.19727 717.985579 297.408003 718.494332 297.783057 718.869386 
C 298.158111 719.24444 298.666864 719.455172 299.19727 719.455172 
z
" clip-path="url(#pc473a01a19)" style="fill: #fdcab5; stroke: #fdcab5; stroke-width: 3"/>
    <path d="M 277.292041 684.674553 
C 277.822447 684.674553 278.331201 684.46382 278.706254 684.088766 
C 279.081308 683.713712 279.292041 683.204959 279.292041 682.674553 
C 279.292041 682.144147 279.081308 681.635393 278.706254 681.260339 
C 278.331201 680.885285 277.822447 680.674553 277.292041 680.674553 
C 276.761635 680.674553 276.252881 680.885285 275.877827 681.260339 
C 275.502773 681.635393 275.292041 682.144147 275.292041 682.674553 
C 275.292041 683.204959 275.502773 683.713712 275.877827 684.088766 
C 276.252881 684.46382 276.761635 684.674553 277.292041 684.674553 
z
" clip-path="url(#pc473a01a19)" style="fill: #fdcab5; stroke: #fdcab5; stroke-width: 3"/>
    <path d="M 219.943406 671.178948 
C 222.595437 671.178948 225.139204 670.125285 227.014474 668.250015 
C 228.889743 666.374746 229.943406 663.830979 229.943406 661.178948 
C 229.943406 658.526917 228.889743 655.983149 227.014474 654.10788 
C 225.139204 652.232611 222.595437 651.178948 219.943406 651.178948 
C 217.291375 651.178948 214.747607 652.232611 212.872338 654.10788 
C 210.997069 655.983149 209.943406 658.526917 209.943406 661.178948 
C 209.943406 663.830979 210.997069 666.374746 212.872338 668.250015 
C 214.747607 670.125285 217.291375 671.178948 219.943406 671.178948 
z
" clip-path="url(#pc473a01a19)" style="fill: #6b010e; stroke: #6b010e; stroke-width: 3"/>
    <path d="M 149.056594 663.178948 
C 149.587 663.178948 150.095754 662.968215 150.470808 662.593161 
C 150.845862 662.218107 151.056594 661.709354 151.056594 661.178948 
C 151.056594 660.648541 150.845862 660.139788 150.470808 659.764734 
C 150.095754 659.38968 149.587 659.178948 149.056594 659.178948 
C 148.526188 659.178948 148.017435 659.38968 147.642381 659.764734 
C 147.267327 660.139788 147.056594 660.648541 147.056594 661.178948 
C 147.056594 661.709354 147.267327 662.218107 147.642381 662.593161 
C 148.017435 662.968215 148.526188 663.178948 149.056594 663.178948 
z
" clip-path="url(#pc473a01a19)" style="fill: #fdcab5; stroke: #fdcab5; stroke-width: 3"/>
    <path d="M 91.707959 684.674553 
C 92.238365 684.674553 92.747119 684.46382 93.122173 684.088766 
C 93.497227 683.713712 93.707959 683.204959 93.707959 682.674553 
C 93.707959 682.144147 93.497227 681.635393 93.122173 681.260339 
C 92.747119 680.885285 92.238365 680.674553 91.707959 680.674553 
C 91.177553 680.674553 90.668799 680.885285 90.293746 681.260339 
C 89.918692 681.635393 89.707959 682.144147 89.707959 682.674553 
C 89.707959 683.204959 89.918692 683.713712 90.293746 684.088766 
C 90.668799 684.46382 91.177553 684.674553 91.707959 684.674553 
z
" clip-path="url(#pc473a01a19)" style="fill: #fdcab5; stroke: #fdcab5; stroke-width: 3"/>
    <path d="M 69.80273 719.455172 
C 70.333136 719.455172 70.841889 719.24444 71.216943 718.869386 
C 71.591997 718.494332 71.80273 717.985579 71.80273 717.455172 
C 71.80273 716.924766 71.591997 716.416013 71.216943 716.040959 
C 70.841889 715.665905 70.333136 715.455172 69.80273 715.455172 
C 69.272324 715.455172 68.76357 715.665905 68.388516 716.040959 
C 68.013462 716.416013 67.80273 716.924766 67.80273 717.455172 
C 67.80273 717.985579 68.013462 718.494332 68.388516 718.869386 
C 68.76357 719.24444 69.272324 719.455172 69.80273 719.455172 
z
" clip-path="url(#pc473a01a19)" style="fill: #fdcab5; stroke: #fdcab5; stroke-width: 3"/>
    <path d="M 91.707959 762.235792 
C 94.35999 762.235792 96.903758 761.182129 98.779027 759.30686 
C 100.654296 757.431591 101.707959 754.887823 101.707959 752.235792 
C 101.707959 749.583761 100.654296 747.039993 98.779027 745.164724 
C 96.903758 743.289455 94.35999 742.235792 91.707959 742.235792 
C 89.055928 742.235792 86.51216 743.289455 84.636891 745.164724 
C 82.761622 747.039993 81.707959 749.583761 81.707959 752.235792 
C 81.707959 754.887823 82.761622 757.431591 84.636891 759.30686 
C 86.51216 761.182129 89.055928 762.235792 91.707959 762.235792 
z
" clip-path="url(#pc473a01a19)" style="fill: #6b010e; stroke: #6b010e; stroke-width: 3"/>
    <path d="M 149.056594 783.731397 
C 151.708625 783.731397 154.252393 782.677734 156.127662 780.802465 
C 158.002931 778.927196 159.056594 776.383428 159.056594 773.731397 
C 159.056594 771.079366 158.002931 768.535599 156.127662 766.660329 
C 154.252393 764.78506 151.708625 763.731397 149.056594 763.731397 
C 146.404563 763.731397 143.860796 764.78506 141.985526 766.660329 
C 140.110257 768.535599 139.056594 771.079366 139.056594 773.731397 
C 139.056594 776.383428 140.110257 778.927196 141.985526 780.802465 
C 143.860796 782.677734 146.404563 783.731397 149.056594 783.731397 
z
" clip-path="url(#pc473a01a19)" style="fill: #6b010e; stroke: #6b010e; stroke-width: 3"/>
    <path d="M 219.943406 783.731397 
C 222.595437 783.731397 225.139204 782.677734 227.014474 780.802465 
C 228.889743 778.927196 229.943406 776.383428 229.943406 773.731397 
C 229.943406 771.079366 228.889743 768.535599 227.014474 766.660329 
C 225.139204 764.78506 222.595437 763.731397 219.943406 763.731397 
C 217.291375 763.731397 214.747607 764.78506 212.872338 766.660329 
C 210.997069 768.535599 209.943406 771.079366 209.943406 773.731397 
C 209.943406 776.383428 210.997069 778.927196 212.872338 780.802465 
C 214.747607 782.677734 217.291375 783.731397 219.943406 783.731397 
z
" clip-path="url(#pc473a01a19)" style="fill: #6b010e; stroke: #6b010e; stroke-width: 3"/>
    <path d="M 277.292041 754.235792 
C 277.822447 754.235792 278.331201 754.025059 278.706254 753.650006 
C 279.081308 753.274952 279.292041 752.766198 279.292041 752.235792 
C 279.292041 751.705386 279.081308 751.196632 278.706254 750.821579 
C 278.331201 750.446525 277.822447 750.235792 277.292041 750.235792 
C 276.761635 750.235792 276.252881 750.446525 275.877827 750.821579 
C 275.502773 751.196632 275.292041 751.705386 275.292041 752.235792 
C 275.292041 752.766198 275.502773 753.274952 275.877827 753.650006 
C 276.252881 754.025059 276.761635 754.235792 277.292041 754.235792 
z
" clip-path="url(#pc473a01a19)" style="fill: #fdcab5; stroke: #fdcab5; stroke-width: 3"/>
   </g>
   <g id="matplotlib.axis_7"/>
   <g id="matplotlib.axis_8"/>
  </g>
  <g id="axes_5">
   <g id="patch_6">
    <path d="M 45 961.2 
L 324 961.2 
L 324 817.82069 
L 45 817.82069 
z
" style="fill: #ffffff"/>
   </g>
   <g id="EdgeCollection_5">
    <path d="M 300.929321 890.510345 
C 325.927466 903.13006 325.927466 875.89063 300.929321 888.510345 
C 325.927466 875.89063 325.927466 903.13006 300.929321 890.510345 
" clip-path="url(#p5acf597848)" style="fill: #ffffff"/>
    <path d="M 298.162568 887.798798 
L 278.326743 854.987471 
" clip-path="url(#p5acf597848)" style="fill: #ffffff"/>
    <path d="M 297.589399 888.320912 
L 221.551277 832.071254 
" clip-path="url(#p5acf597848)" style="stroke: #000000; stroke-width: 1.156942"/>
    <path d="M 297.334271 888.782861 
L 150.919594 831.609305 
" clip-path="url(#p5acf597848)" style="fill: #ffffff"/>
    <path d="M 297.227087 889.166286 
L 93.678143 853.619983 
" clip-path="url(#p5acf597848)" style="fill: #ffffff"/>
    <path d="M 297.19727 889.510345 
L 71.80273 889.510345 
" clip-path="url(#p5acf597848)" style="fill: #ffffff"/>
    <path d="M 297.227087 889.854403 
L 101.558878 924.024472 
" clip-path="url(#p5acf597848)" style="fill: #ffffff"/>
    <path d="M 297.334271 890.237829 
L 150.919594 947.411384 
" clip-path="url(#p5acf597848)" style="fill: #ffffff"/>
    <path d="M 297.589399 890.699777 
L 221.551277 946.949436 
" clip-path="url(#p5acf597848)" style="fill: #ffffff"/>
    <path d="M 298.162568 891.221892 
L 278.326743 924.033218 
" clip-path="url(#p5acf597848)" style="fill: #ffffff"/>
    <path d="M 279.172471 852.594763 
C 304.925102 841.596287 284.085321 824.05519 277.642353 851.306843 
C 284.085321 824.05519 304.925102 841.596287 279.172471 852.594763 
" clip-path="url(#p5acf597848)" style="fill: #ffffff"/>
    <path d="M 275.429041 852.548441 
L 221.806405 831.609305 
" clip-path="url(#p5acf597848)" style="fill: #ffffff"/>
    <path d="M 275.321857 852.931866 
L 151.026778 831.22588 
" clip-path="url(#p5acf597848)" style="fill: #ffffff"/>
    <path d="M 275.292041 853.275925 
L 93.707959 853.275925 
" clip-path="url(#p5acf597848)" style="fill: #ffffff"/>
    <path d="M 275.321857 853.619983 
L 71.772913 889.166286 
" clip-path="url(#p5acf597848)" style="fill: #ffffff"/>
    <path d="M 275.429041 854.003408 
L 101.022957 922.107346 
" clip-path="url(#p5acf597848)" style="stroke: #000000; stroke-width: 2.756539"/>
    <path d="M 275.68417 854.465357 
L 150.664466 946.949436 
" clip-path="url(#p5acf597848)" style="fill: #ffffff"/>
    <path d="M 276.257339 854.987471 
L 220.978108 946.427322 
" clip-path="url(#p5acf597848)" style="fill: #ffffff"/>
    <path d="M 277.292041 855.275925 
L 277.292041 923.744765 
" clip-path="url(#p5acf597848)" style="fill: #ffffff"/>
    <path d="M 221.246678 829.364758 
C 238.274751 807.133941 211.505861 802.092798 219.281227 828.994623 
C 211.505861 802.092798 238.274751 807.133941 221.246678 829.364758 
" clip-path="url(#p5acf597848)" style="fill: #ffffff"/>
    <path d="M 217.943406 830.881821 
L 151.056594 830.881821 
" clip-path="url(#p5acf597848)" style="fill: #ffffff"/>
    <path d="M 217.973222 831.22588 
L 93.678143 852.931866 
" clip-path="url(#p5acf597848)" style="fill: #ffffff"/>
    <path d="M 218.080406 831.609305 
L 71.665729 888.782861 
" clip-path="url(#p5acf597848)" style="fill: #ffffff"/>
    <path d="M 218.335534 832.071254 
L 99.747316 919.797602 
" clip-path="url(#p5acf597848)" style="fill: #ffffff"/>
    <path d="M 218.908704 832.593368 
L 150.091296 946.427322 
" clip-path="url(#p5acf597848)" style="fill: #ffffff"/>
    <path d="M 219.943406 832.881821 
L 219.943406 946.138868 
" clip-path="url(#p5acf597848)" style="fill: #ffffff"/>
    <path d="M 220.978108 832.593368 
L 276.257339 924.033218 
" clip-path="url(#p5acf597848)" style="fill: #ffffff"/>
    <path d="M 149.718773 828.994623 
C 157.494139 802.092798 130.725249 807.133941 147.753322 829.364758 
C 130.725249 807.133941 157.494139 802.092798 149.718773 828.994623 
" clip-path="url(#p5acf597848)" style="fill: #ffffff"/>
    <path d="M 147.193595 831.609305 
L 93.570959 852.548441 
" clip-path="url(#p5acf597848)" style="fill: #ffffff"/>
    <path d="M 147.448723 832.071254 
L 71.410601 888.320912 
" clip-path="url(#p5acf597848)" style="fill: #ffffff"/>
    <path d="M 148.021892 832.593368 
L 96.881469 917.187032 
" clip-path="url(#p5acf597848)" style="fill: #ffffff"/>
    <path d="M 149.056594 832.881821 
L 149.056594 946.138868 
" clip-path="url(#p5acf597848)" style="fill: #ffffff"/>
    <path d="M 150.091296 832.593368 
L 218.908704 946.427322 
" clip-path="url(#p5acf597848)" style="fill: #ffffff"/>
    <path d="M 150.664466 832.071254 
L 275.68417 924.555333 
" clip-path="url(#p5acf597848)" style="fill: #ffffff"/>
    <path d="M 91.357647 851.306843 
C 84.914679 824.05519 64.074898 841.596287 89.827529 852.594763 
C 64.074898 841.596287 84.914679 824.05519 91.357647 851.306843 
" clip-path="url(#p5acf597848)" style="fill: #ffffff"/>
    <path d="M 90.673257 854.987471 
L 70.837432 887.798798 
" clip-path="url(#p5acf597848)" style="fill: #ffffff"/>
    <path d="M 91.707959 855.275925 
L 91.707959 915.744765 
" clip-path="url(#p5acf597848)" style="fill: #ffffff"/>
    <path d="M 92.742661 854.987471 
L 148.021892 946.427322 
" clip-path="url(#p5acf597848)" style="fill: #ffffff"/>
    <path d="M 93.31583 854.465357 
L 218.335534 946.949436 
" clip-path="url(#p5acf597848)" style="fill: #ffffff"/>
    <path d="M 93.570959 854.003408 
L 275.429041 925.017281 
" clip-path="url(#p5acf597848)" style="fill: #ffffff"/>
    <path d="M 68.070679 888.510345 
C 43.072534 875.89063 43.072534 903.13006 68.070679 890.510345 
C 43.072534 903.13006 43.072534 875.89063 68.070679 888.510345 
" clip-path="url(#p5acf597848)" style="fill: #ffffff"/>
    <path d="M 70.837432 891.221892 
L 86.53445 917.187032 
" clip-path="url(#p5acf597848)" style="fill: #ffffff"/>
    <path d="M 71.410601 890.699777 
L 147.448723 946.949436 
" clip-path="url(#p5acf597848)" style="fill: #ffffff"/>
    <path d="M 71.665729 890.237829 
L 218.080406 947.411384 
" clip-path="url(#p5acf597848)" style="fill: #ffffff"/>
    <path d="M 71.772913 889.854403 
L 275.321857 925.400707 
" clip-path="url(#p5acf597848)" style="stroke: #000000; stroke-width: 2.203219"/>
    <path d="M 82.305807 929.150575 
C 64.074898 937.424403 84.914679 954.9655 89.956401 935.590172 
C 84.914679 954.9655 64.074898 937.424403 82.305807 929.150575 
" clip-path="url(#p5acf597848)" style="fill: #ffffff"/>
    <path d="M 101.022957 929.382184 
L 147.193595 947.411384 
" clip-path="url(#p5acf597848)" style="stroke: #000000; stroke-width: 5"/>
    <path d="M 101.558878 927.465058 
L 217.973222 947.79481 
" clip-path="url(#p5acf597848)" style="fill: #ffffff"/>
    <path d="M 101.707959 925.744765 
L 275.292041 925.744765 
" clip-path="url(#p5acf597848)" style="fill: #ffffff"/>
    <path d="M 147.753322 949.655931 
C 130.725249 971.886748 157.494139 976.927891 149.718773 950.026067 
C 157.494139 976.927891 130.725249 971.886748 147.753322 949.655931 
" clip-path="url(#p5acf597848)" style="fill: #ffffff"/>
    <path d="M 151.056594 948.138868 
L 217.943406 948.138868 
" clip-path="url(#p5acf597848)" style="fill: #ffffff"/>
    <path d="M 151.026778 947.79481 
L 275.321857 926.088824 
" clip-path="url(#p5acf597848)" style="fill: #ffffff"/>
    <path d="M 219.281227 950.026067 
C 211.505861 976.927891 238.274751 971.886748 221.246678 949.655931 
C 238.274751 971.886748 211.505861 976.927891 219.281227 950.026067 
" clip-path="url(#p5acf597848)" style="fill: #ffffff"/>
    <path d="M 221.806405 947.411384 
L 275.429041 926.472249 
" clip-path="url(#p5acf597848)" style="fill: #ffffff"/>
    <path d="M 277.642353 927.713846 
C 284.085321 954.9655 304.925102 937.424403 279.172471 926.425927 
C 304.925102 937.424403 284.085321 954.9655 277.642353 927.713846 
" clip-path="url(#p5acf597848)" style="fill: #ffffff"/>
   </g>
   <g id="VertexCollection_5">
    <path d="M 299.19727 891.510345 
C 299.727676 891.510345 300.23643 891.299612 300.611484 890.924558 
C 300.986538 890.549505 301.19727 890.040751 301.19727 889.510345 
C 301.19727 888.979939 300.986538 888.471185 300.611484 888.096131 
C 300.23643 887.721077 299.727676 887.510345 299.19727 887.510345 
C 298.666864 887.510345 298.158111 887.721077 297.783057 888.096131 
C 297.408003 888.471185 297.19727 888.979939 297.19727 889.510345 
C 297.19727 890.040751 297.408003 890.549505 297.783057 890.924558 
C 298.158111 891.299612 298.666864 891.510345 299.19727 891.510345 
z
" clip-path="url(#p5acf597848)" style="fill: #fdcab5; stroke: #fdcab5; stroke-width: 3"/>
    <path d="M 277.292041 855.275925 
C 277.822447 855.275925 278.331201 855.065192 278.706254 854.690138 
C 279.081308 854.315084 279.292041 853.806331 279.292041 853.275925 
C 279.292041 852.745518 279.081308 852.236765 278.706254 851.861711 
C 278.331201 851.486657 277.822447 851.275925 277.292041 851.275925 
C 276.761635 851.275925 276.252881 851.486657 275.877827 851.861711 
C 275.502773 852.236765 275.292041 852.745518 275.292041 853.275925 
C 275.292041 853.806331 275.502773 854.315084 275.877827 854.690138 
C 276.252881 855.065192 276.761635 855.275925 277.292041 855.275925 
z
" clip-path="url(#p5acf597848)" style="fill: #fdcab5; stroke: #fdcab5; stroke-width: 3"/>
    <path d="M 219.943406 832.881821 
C 220.473812 832.881821 220.982565 832.671089 221.357619 832.296035 
C 221.732673 831.920981 221.943406 831.412228 221.943406 830.881821 
C 221.943406 830.351415 221.732673 829.842662 221.357619 829.467608 
C 220.982565 829.092554 220.473812 828.881821 219.943406 828.881821 
C 219.413 828.881821 218.904246 829.092554 218.529192 829.467608 
C 218.154138 829.842662 217.943406 830.351415 217.943406 830.881821 
C 217.943406 831.412228 218.154138 831.920981 218.529192 832.296035 
C 218.904246 832.671089 219.413 832.881821 219.943406 832.881821 
z
" clip-path="url(#p5acf597848)" style="fill: #fdcab5; stroke: #fdcab5; stroke-width: 3"/>
    <path d="M 149.056594 832.881821 
C 149.587 832.881821 150.095754 832.671089 150.470808 832.296035 
C 150.845862 831.920981 151.056594 831.412228 151.056594 830.881821 
C 151.056594 830.351415 150.845862 829.842662 150.470808 829.467608 
C 150.095754 829.092554 149.587 828.881821 149.056594 828.881821 
C 148.526188 828.881821 148.017435 829.092554 147.642381 829.467608 
C 147.267327 829.842662 147.056594 830.351415 147.056594 830.881821 
C 147.056594 831.412228 147.267327 831.920981 147.642381 832.296035 
C 148.017435 832.671089 148.526188 832.881821 149.056594 832.881821 
z
" clip-path="url(#p5acf597848)" style="fill: #fdcab5; stroke: #fdcab5; stroke-width: 3"/>
    <path d="M 91.707959 855.275925 
C 92.238365 855.275925 92.747119 855.065192 93.122173 854.690138 
C 93.497227 854.315084 93.707959 853.806331 93.707959 853.275925 
C 93.707959 852.745518 93.497227 852.236765 93.122173 851.861711 
C 92.747119 851.486657 92.238365 851.275925 91.707959 851.275925 
C 91.177553 851.275925 90.668799 851.486657 90.293746 851.861711 
C 89.918692 852.236765 89.707959 852.745518 89.707959 853.275925 
C 89.707959 853.806331 89.918692 854.315084 90.293746 854.690138 
C 90.668799 855.065192 91.177553 855.275925 91.707959 855.275925 
z
" clip-path="url(#p5acf597848)" style="fill: #fdcab5; stroke: #fdcab5; stroke-width: 3"/>
    <path d="M 69.80273 891.510345 
C 70.333136 891.510345 70.841889 891.299612 71.216943 890.924558 
C 71.591997 890.549505 71.80273 890.040751 71.80273 889.510345 
C 71.80273 888.979939 71.591997 888.471185 71.216943 888.096131 
C 70.841889 887.721077 70.333136 887.510345 69.80273 887.510345 
C 69.272324 887.510345 68.76357 887.721077 68.388516 888.096131 
C 68.013462 888.471185 67.80273 888.979939 67.80273 889.510345 
C 67.80273 890.040751 68.013462 890.549505 68.388516 890.924558 
C 68.76357 891.299612 69.272324 891.510345 69.80273 891.510345 
z
" clip-path="url(#p5acf597848)" style="fill: #fdcab5; stroke: #fdcab5; stroke-width: 3"/>
    <path d="M 91.707959 935.744765 
C 94.35999 935.744765 96.903758 934.691102 98.779027 932.815833 
C 100.654296 930.940564 101.707959 928.396796 101.707959 925.744765 
C 101.707959 923.092734 100.654296 920.548966 98.779027 918.673697 
C 96.903758 916.798428 94.35999 915.744765 91.707959 915.744765 
C 89.055928 915.744765 86.51216 916.798428 84.636891 918.673697 
C 82.761622 920.548966 81.707959 923.092734 81.707959 925.744765 
C 81.707959 928.396796 82.761622 930.940564 84.636891 932.815833 
C 86.51216 934.691102 89.055928 935.744765 91.707959 935.744765 
z
" clip-path="url(#p5acf597848)" style="fill: #6b010e; stroke: #6b010e; stroke-width: 3"/>
    <path d="M 149.056594 950.138868 
C 149.587 950.138868 150.095754 949.928136 150.470808 949.553082 
C 150.845862 949.178028 151.056594 948.669275 151.056594 948.138868 
C 151.056594 947.608462 150.845862 947.099709 150.470808 946.724655 
C 150.095754 946.349601 149.587 946.138868 149.056594 946.138868 
C 148.526188 946.138868 148.017435 946.349601 147.642381 946.724655 
C 147.267327 947.099709 147.056594 947.608462 147.056594 948.138868 
C 147.056594 948.669275 147.267327 949.178028 147.642381 949.553082 
C 148.017435 949.928136 148.526188 950.138868 149.056594 950.138868 
z
" clip-path="url(#p5acf597848)" style="fill: #fdcab5; stroke: #fdcab5; stroke-width: 3"/>
    <path d="M 219.943406 950.138868 
C 220.473812 950.138868 220.982565 949.928136 221.357619 949.553082 
C 221.732673 949.178028 221.943406 948.669275 221.943406 948.138868 
C 221.943406 947.608462 221.732673 947.099709 221.357619 946.724655 
C 220.982565 946.349601 220.473812 946.138868 219.943406 946.138868 
C 219.413 946.138868 218.904246 946.349601 218.529192 946.724655 
C 218.154138 947.099709 217.943406 947.608462 217.943406 948.138868 
C 217.943406 948.669275 218.154138 949.178028 218.529192 949.553082 
C 218.904246 949.928136 219.413 950.138868 219.943406 950.138868 
z
" clip-path="url(#p5acf597848)" style="fill: #fdcab5; stroke: #fdcab5; stroke-width: 3"/>
    <path d="M 277.292041 927.744765 
C 277.822447 927.744765 278.331201 927.534032 278.706254 927.158979 
C 279.081308 926.783925 279.292041 926.275171 279.292041 925.744765 
C 279.292041 925.214359 279.081308 924.705605 278.706254 924.330551 
C 278.331201 923.955498 277.822447 923.744765 277.292041 923.744765 
C 276.761635 923.744765 276.252881 923.955498 275.877827 924.330551 
C 275.502773 924.705605 275.292041 925.214359 275.292041 925.744765 
C 275.292041 926.275171 275.502773 926.783925 275.877827 927.158979 
C 276.252881 927.534032 276.761635 927.744765 277.292041 927.744765 
z
" clip-path="url(#p5acf597848)" style="fill: #fdcab5; stroke: #fdcab5; stroke-width: 3"/>
   </g>
   <g id="matplotlib.axis_9"/>
   <g id="matplotlib.axis_10"/>
  </g>
  <g id="text_1">
   <!-- G10 -->
   <g transform="translate(167.715937 30.718125) scale(0.12 -0.12)">
    <defs>
     <path id="DejaVuSans-47" d="M 3809 666 
L 3809 1919 
L 2778 1919 
L 2778 2438 
L 4434 2438 
L 4434 434 
Q 4069 175 3628 42 
Q 3188 -91 2688 -91 
Q 1594 -91 976 548 
Q 359 1188 359 2328 
Q 359 3472 976 4111 
Q 1594 4750 2688 4750 
Q 3144 4750 3555 4637 
Q 3966 4525 4313 4306 
L 4313 3634 
Q 3963 3931 3569 4081 
Q 3175 4231 2741 4231 
Q 1884 4231 1454 3753 
Q 1025 3275 1025 2328 
Q 1025 1384 1454 906 
Q 1884 428 2741 428 
Q 3075 428 3337 486 
Q 3600 544 3809 666 
z
" transform="scale(0.015625)"/>
     <path id="DejaVuSans-31" d="M 794 531 
L 1825 531 
L 1825 4091 
L 703 3866 
L 703 4441 
L 1819 4666 
L 2450 4666 
L 2450 531 
L 3481 531 
L 3481 0 
L 794 0 
L 794 531 
z
" transform="scale(0.015625)"/>
     <path id="DejaVuSans-30" d="M 2034 4250 
Q 1547 4250 1301 3770 
Q 1056 3291 1056 2328 
Q 1056 1369 1301 889 
Q 1547 409 2034 409 
Q 2525 409 2770 889 
Q 3016 1369 3016 2328 
Q 3016 3291 2770 3770 
Q 2525 4250 2034 4250 
z
M 2034 4750 
Q 2819 4750 3233 4129 
Q 3647 3509 3647 2328 
Q 3647 1150 3233 529 
Q 2819 -91 2034 -91 
Q 1250 -91 836 529 
Q 422 1150 422 2328 
Q 422 3509 836 4129 
Q 1250 4750 2034 4750 
z
" transform="scale(0.015625)"/>
    </defs>
    <use xlink:href="#DejaVuSans-47"/>
    <use xlink:href="#DejaVuSans-31" x="77.490234"/>
    <use xlink:href="#DejaVuSans-30" x="141.113281"/>
   </g>
  </g>
 </g>
 <defs>
  <clipPath id="pa2be55a34f">
   <rect x="45" y="129.6" width="279" height="143.37931"/>
  </clipPath>
  <clipPath id="p32945d7787">
   <rect x="45" y="301.655172" width="279" height="143.37931"/>
  </clipPath>
  <clipPath id="pbac7fbcf0d">
   <rect x="45" y="473.710345" width="279" height="143.37931"/>
  </clipPath>
  <clipPath id="pc473a01a19">
   <rect x="45" y="645.765517" width="279" height="143.37931"/>
  </clipPath>
  <clipPath id="p5acf597848">
   <rect x="45" y="817.82069" width="279" height="143.37931"/>
  </clipPath>
 </defs>
</svg>
