<?xml version="1.0" encoding="utf-8" standalone="no"?>
<!DOCTYPE svg PUBLIC "-//W3C//DTD SVG 1.1//EN"
  "http://www.w3.org/Graphics/SVG/1.1/DTD/svg11.dtd">
<svg xmlns:xlink="http://www.w3.org/1999/xlink" width="360pt" height="1080pt" viewBox="0 0 360 1080" xmlns="http://www.w3.org/2000/svg" version="1.1">
 <metadata>
  <rdf:RDF xmlns:dc="http://purl.org/dc/elements/1.1/" xmlns:cc="http://creativecommons.org/ns#" xmlns:rdf="http://www.w3.org/1999/02/22-rdf-syntax-ns#">
   <cc:Work>
    <dc:type rdf:resource="http://purl.org/dc/dcmitype/StillImage"/>
    <dc:date>2025-03-10T09:44:53.782535</dc:date>
    <dc:format>image/svg+xml</dc:format>
    <dc:creator>
     <cc:Agent>
      <dc:title>Matplotlib v3.9.2, https://matplotlib.org/</dc:title>
     </cc:Agent>
    </dc:creator>
   </cc:Work>
  </rdf:RDF>
 </metadata>
 <defs>
  <style type="text/css">*{stroke-linejoin: round; stroke-linecap: butt}</style>
 </defs>
 <g id="figure_1">
  <g id="patch_1">
   <path d="M 0 1080 
L 360 1080 
L 360 0 
L 0 0 
z
" style="fill: #ffffff"/>
  </g>
  <g id="axes_1">
   <g id="patch_2">
    <path d="M 45 272.97931 
L 324 272.97931 
L 324 129.6 
L 45 129.6 
z
" style="fill: #ffffff"/>
   </g>
   <g id="EdgeCollection_1">
    <path d="M 305.519669 205.076753 
C 323.589611 213.696468 323.589611 186.457038 305.519669 195.076753 
C 323.589611 186.457038 323.589611 213.696468 305.519669 205.076753 
" clip-path="url(#p22b9be1991)" style="fill: #ffffff"/>
    <path d="M 291.646208 191.543145 
L 276.219498 166.290836 
" clip-path="url(#p22b9be1991)" style="fill: #ffffff"/>
    <path d="M 288.790443 194.169835 
L 220.024975 143.829841 
" clip-path="url(#p22b9be1991)" style="stroke: #000000; stroke-width: 2.456647"/>
    <path d="M 287.531625 196.472265 
L 150.110504 143.369355 
" clip-path="url(#p22b9be1991)" style="fill: #ffffff"/>
    <path d="M 287.005475 198.373851 
L 93.450059 164.924695 
" clip-path="url(#p22b9be1991)" style="fill: #ffffff"/>
    <path d="M 286.859415 200.076753 
L 71.796712 200.076753 
" clip-path="url(#p22b9be1991)" style="fill: #ffffff"/>
    <path d="M 287.005475 201.779656 
L 101.33321 233.86649 
" clip-path="url(#p22b9be1991)" style="stroke: #000000; stroke-width: 2.384393"/>
    <path d="M 287.531625 203.681242 
L 157.572736 253.900562 
" clip-path="url(#p22b9be1991)" style="stroke: #000000; stroke-width: 2.471098"/>
    <path d="M 288.790443 205.983672 
L 226.480153 251.598131 
" clip-path="url(#p22b9be1991)" style="stroke: #000000; stroke-width: 2.861272"/>
    <path d="M 291.646208 208.610362 
L 276.219498 233.862671 
" clip-path="url(#p22b9be1991)" style="fill: #ffffff"/>
    <path d="M 277.054485 163.895269 
C 302.761927 152.791581 281.850594 135.335846 275.519113 162.613617 
C 281.850594 135.335846 302.761927 152.791581 277.054485 163.895269 
" clip-path="url(#p22b9be1991)" style="fill: #ffffff"/>
    <path d="M 273.311298 163.863217 
L 220.276738 143.369355 
" clip-path="url(#p22b9be1991)" style="fill: #ffffff"/>
    <path d="M 273.206068 164.243534 
L 150.215734 142.989038 
" clip-path="url(#p22b9be1991)" style="fill: #ffffff"/>
    <path d="M 273.176856 164.584114 
L 93.479271 164.584114 
" clip-path="url(#p22b9be1991)" style="fill: #ffffff"/>
    <path d="M 273.206068 164.924695 
L 71.7675 199.736173 
" clip-path="url(#p22b9be1991)" style="fill: #ffffff"/>
    <path d="M 273.311298 165.305012 
L 100.807061 231.964904 
" clip-path="url(#p22b9be1991)" style="stroke: #000000; stroke-width: 1.878613"/>
    <path d="M 273.563062 165.765498 
L 156.313919 251.598131 
" clip-path="url(#p22b9be1991)" style="fill: #ffffff"/>
    <path d="M 274.134215 166.290836 
L 223.624387 248.971441 
" clip-path="url(#p22b9be1991)" style="fill: #ffffff"/>
    <path d="M 275.176856 166.584114 
L 275.176856 233.569393 
" clip-path="url(#p22b9be1991)" style="fill: #ffffff"/>
    <path d="M 219.711771 141.129094 
C 236.700548 118.868234 209.922796 113.874383 217.745669 140.762431 
C 209.922796 113.874383 236.700548 118.868234 219.711771 141.129094 
" clip-path="url(#p22b9be1991)" style="fill: #ffffff"/>
    <path d="M 216.41118 142.648457 
L 150.244946 142.648457 
" clip-path="url(#p22b9be1991)" style="fill: #181818; stroke: #181818; stroke-width: 0.924855"/>
    <path d="M 216.440393 142.989038 
L 93.450059 164.243534 
" clip-path="url(#p22b9be1991)" style="fill: #ffffff"/>
    <path d="M 216.545622 143.369355 
L 71.66227 199.355856 
" clip-path="url(#p22b9be1991)" style="fill: #ffffff"/>
    <path d="M 216.797386 143.829841 
L 99.548243 229.662474 
" clip-path="url(#p22b9be1991)" style="fill: #ffffff"/>
    <path d="M 217.368539 144.355179 
L 153.458153 248.971441 
" clip-path="url(#p22b9be1991)" style="fill: #ffffff"/>
    <path d="M 218.41118 144.648457 
L 218.41118 247.50505 
" clip-path="url(#p22b9be1991)" style="fill: #ffffff"/>
    <path d="M 219.453822 144.355179 
L 274.134215 233.862671 
" clip-path="url(#p22b9be1991)" style="fill: #ffffff"/>
    <path d="M 148.910458 140.762431 
C 156.733331 113.874383 129.955579 118.868234 146.944356 141.129094 
C 129.955579 118.868234 156.733331 113.874383 148.910458 140.762431 
" clip-path="url(#p22b9be1991)" style="fill: #ffffff"/>
    <path d="M 146.379389 143.369355 
L 93.344829 163.863217 
" clip-path="url(#p22b9be1991)" style="fill: #ffffff"/>
    <path d="M 146.631152 143.829841 
L 71.410507 198.89537 
" clip-path="url(#p22b9be1991)" style="fill: #ffffff"/>
    <path d="M 147.202305 144.355179 
L 96.692478 227.035784 
" clip-path="url(#p22b9be1991)" style="fill: #ffffff"/>
    <path d="M 148.244946 144.648457 
L 148.244946 247.50505 
" clip-path="url(#p22b9be1991)" style="fill: #ffffff"/>
    <path d="M 149.287588 144.355179 
L 213.197974 248.971441 
" clip-path="url(#p22b9be1991)" style="fill: #ffffff"/>
    <path d="M 149.858741 143.829841 
L 273.563062 234.388009 
" clip-path="url(#p22b9be1991)" style="fill: #ffffff"/>
    <path d="M 91.137014 162.613617 
C 84.805533 135.335846 63.8942 152.791581 89.601641 163.895269 
C 63.8942 152.791581 84.805533 135.335846 91.137014 162.613617 
" clip-path="url(#p22b9be1991)" style="fill: #ffffff"/>
    <path d="M 90.436629 166.290836 
L 70.839353 198.370032 
" clip-path="url(#p22b9be1991)" style="fill: #ffffff"/>
    <path d="M 91.479271 166.584114 
L 91.479271 225.569393 
" clip-path="url(#p22b9be1991)" style="fill: #ffffff"/>
    <path d="M 92.521912 166.290836 
L 143.03174 248.971441 
" clip-path="url(#p22b9be1991)" style="fill: #ffffff"/>
    <path d="M 93.093065 165.765498 
L 210.342208 251.598131 
" clip-path="url(#p22b9be1991)" style="fill: #ffffff"/>
    <path d="M 93.344829 165.305012 
L 273.311298 234.848495 
" clip-path="url(#p22b9be1991)" style="fill: #ffffff"/>
    <path d="M 68.064661 199.076753 
C 43.066516 186.457038 43.066516 213.696468 68.064661 201.076753 
C 43.066516 213.696468 43.066516 186.457038 68.064661 199.076753 
" clip-path="url(#p22b9be1991)" style="fill: #ffffff"/>
    <path d="M 70.839353 201.783475 
L 86.266064 227.035784 
" clip-path="url(#p22b9be1991)" style="fill: #ffffff"/>
    <path d="M 71.410507 201.258137 
L 140.175974 251.598131 
" clip-path="url(#p22b9be1991)" style="stroke: #000000; stroke-width: 2.543353"/>
    <path d="M 71.66227 200.797651 
L 209.08339 253.900562 
" clip-path="url(#p22b9be1991)" style="stroke: #000000; stroke-width: 2.398844"/>
    <path d="M 71.7675 200.417334 
L 273.206068 235.228812 
" clip-path="url(#p22b9be1991)" style="fill: #ffffff"/>
    <path d="M 82.091124 239.01362 
C 63.8942 247.361926 84.805533 264.817661 89.767986 245.42188 
C 84.805533 264.817661 63.8942 247.361926 82.091124 239.01362 
" clip-path="url(#p22b9be1991)" style="fill: #ffffff"/>
    <path d="M 100.807061 239.173881 
L 138.917157 253.900562 
" clip-path="url(#p22b9be1991)" style="stroke: #000000; stroke-width: 5"/>
    <path d="M 101.33321 237.272295 
L 208.557241 255.802148 
" clip-path="url(#p22b9be1991)" style="stroke: #000000; stroke-width: 2.514451"/>
    <path d="M 101.479271 235.569393 
L 273.176856 235.569393 
" clip-path="url(#p22b9be1991)" style="fill: #ffffff"/>
    <path d="M 141.741992 265.101864 
C 129.955579 281.285273 156.733331 286.279124 151.572503 266.935181 
C 156.733331 286.279124 129.955579 281.285273 141.741992 265.101864 
" clip-path="url(#p22b9be1991)" style="fill: #ffffff"/>
    <path d="M 158.244946 257.50505 
L 208.41118 257.50505 
" clip-path="url(#p22b9be1991)" style="stroke: #000000; stroke-width: 4.927746"/>
    <path d="M 158.098886 255.802148 
L 273.206068 235.909973 
" clip-path="url(#p22b9be1991)" style="fill: #ffffff"/>
    <path d="M 215.083624 266.935181 
C 209.922796 286.279124 236.700548 281.285273 224.914135 265.101864 
C 236.700548 281.285273 209.922796 286.279124 215.083624 266.935181 
" clip-path="url(#p22b9be1991)" style="fill: #ffffff"/>
    <path d="M 227.73897 253.900562 
L 273.311298 236.29029 
" clip-path="url(#p22b9be1991)" style="fill: #ffffff"/>
    <path d="M 275.519113 237.53989 
C 281.850594 264.817661 302.761927 247.361926 277.054485 236.258238 
C 302.761927 247.361926 281.850594 264.817661 275.519113 237.53989 
" clip-path="url(#p22b9be1991)" style="fill: #ffffff"/>
   </g>
   <g id="VertexCollection_1">
    <path d="M 296.859415 210.076753 
C 299.511446 210.076753 302.055214 209.02309 303.930483 207.147821 
C 305.805752 205.272552 306.859415 202.728784 306.859415 200.076753 
C 306.859415 197.424722 305.805752 194.880955 303.930483 193.005686 
C 302.055214 191.130417 299.511446 190.076753 296.859415 190.076753 
C 294.207384 190.076753 291.663616 191.130417 289.788347 193.005686 
C 287.913078 194.880955 286.859415 197.424722 286.859415 200.076753 
C 286.859415 202.728784 287.913078 205.272552 289.788347 207.147821 
C 291.663616 209.02309 294.207384 210.076753 296.859415 210.076753 
z
" clip-path="url(#p22b9be1991)" style="fill: #6b010e; stroke: #6b010e; stroke-width: 3"/>
    <path d="M 275.176856 166.584114 
C 275.707262 166.584114 276.216016 166.373382 276.59107 165.998328 
C 276.966124 165.623274 277.176856 165.114521 277.176856 164.584114 
C 277.176856 164.053708 276.966124 163.544955 276.59107 163.169901 
C 276.216016 162.794847 275.707262 162.584114 275.176856 162.584114 
C 274.64645 162.584114 274.137696 162.794847 273.762643 163.169901 
C 273.387589 163.544955 273.176856 164.053708 273.176856 164.584114 
C 273.176856 165.114521 273.387589 165.623274 273.762643 165.998328 
C 274.137696 166.373382 274.64645 166.584114 275.176856 166.584114 
z
" clip-path="url(#p22b9be1991)" style="fill: #fdcab5; stroke: #fdcab5; stroke-width: 3"/>
    <path d="M 218.41118 144.648457 
C 218.941587 144.648457 219.45034 144.437725 219.825394 144.062671 
C 220.200448 143.687617 220.41118 143.178863 220.41118 142.648457 
C 220.41118 142.118051 220.200448 141.609297 219.825394 141.234244 
C 219.45034 140.85919 218.941587 140.648457 218.41118 140.648457 
C 217.880774 140.648457 217.372021 140.85919 216.996967 141.234244 
C 216.621913 141.609297 216.41118 142.118051 216.41118 142.648457 
C 216.41118 143.178863 216.621913 143.687617 216.996967 144.062671 
C 217.372021 144.437725 217.880774 144.648457 218.41118 144.648457 
z
" clip-path="url(#p22b9be1991)" style="fill: #fdcab5; stroke: #fdcab5; stroke-width: 3"/>
    <path d="M 148.244946 144.648457 
C 148.775353 144.648457 149.284106 144.437725 149.65916 144.062671 
C 150.034214 143.687617 150.244946 143.178863 150.244946 142.648457 
C 150.244946 142.118051 150.034214 141.609297 149.65916 141.234244 
C 149.284106 140.85919 148.775353 140.648457 148.244946 140.648457 
C 147.71454 140.648457 147.205787 140.85919 146.830733 141.234244 
C 146.455679 141.609297 146.244946 142.118051 146.244946 142.648457 
C 146.244946 143.178863 146.455679 143.687617 146.830733 144.062671 
C 147.205787 144.437725 147.71454 144.648457 148.244946 144.648457 
z
" clip-path="url(#p22b9be1991)" style="fill: #fdcab5; stroke: #fdcab5; stroke-width: 3"/>
    <path d="M 91.479271 166.584114 
C 92.009677 166.584114 92.518431 166.373382 92.893484 165.998328 
C 93.268538 165.623274 93.479271 165.114521 93.479271 164.584114 
C 93.479271 164.053708 93.268538 163.544955 92.893484 163.169901 
C 92.518431 162.794847 92.009677 162.584114 91.479271 162.584114 
C 90.948865 162.584114 90.440111 162.794847 90.065057 163.169901 
C 89.690003 163.544955 89.479271 164.053708 89.479271 164.584114 
C 89.479271 165.114521 89.690003 165.623274 90.065057 165.998328 
C 90.440111 166.373382 90.948865 166.584114 91.479271 166.584114 
z
" clip-path="url(#p22b9be1991)" style="fill: #fdcab5; stroke: #fdcab5; stroke-width: 3"/>
    <path d="M 69.796712 202.076753 
C 70.327118 202.076753 70.835872 201.866021 71.210926 201.490967 
C 71.585979 201.115913 71.796712 200.60716 71.796712 200.076753 
C 71.796712 199.546347 71.585979 199.037594 71.210926 198.66254 
C 70.835872 198.287486 70.327118 198.076753 69.796712 198.076753 
C 69.266306 198.076753 68.757552 198.287486 68.382499 198.66254 
C 68.007445 199.037594 67.796712 199.546347 67.796712 200.076753 
C 67.796712 200.60716 68.007445 201.115913 68.382499 201.490967 
C 68.757552 201.866021 69.266306 202.076753 69.796712 202.076753 
z
" clip-path="url(#p22b9be1991)" style="fill: #fdcab5; stroke: #fdcab5; stroke-width: 3"/>
    <path d="M 91.479271 245.569393 
C 94.131302 245.569393 96.675069 244.515729 98.550339 242.64046 
C 100.425608 240.765191 101.479271 238.221424 101.479271 235.569393 
C 101.479271 232.917362 100.425608 230.373594 98.550339 228.498325 
C 96.675069 226.623056 94.131302 225.569393 91.479271 225.569393 
C 88.82724 225.569393 86.283472 226.623056 84.408203 228.498325 
C 82.532934 230.373594 81.479271 232.917362 81.479271 235.569393 
C 81.479271 238.221424 82.532934 240.765191 84.408203 242.64046 
C 86.283472 244.515729 88.82724 245.569393 91.479271 245.569393 
z
" clip-path="url(#p22b9be1991)" style="fill: #6b010e; stroke: #6b010e; stroke-width: 3"/>
    <path d="M 148.244946 267.50505 
C 150.896977 267.50505 153.440745 266.451387 155.316014 264.576118 
C 157.191283 262.700849 158.244946 260.157081 158.244946 257.50505 
C 158.244946 254.853019 157.191283 252.309251 155.316014 250.433982 
C 153.440745 248.558713 150.896977 247.50505 148.244946 247.50505 
C 145.592915 247.50505 143.049148 248.558713 141.173879 250.433982 
C 139.29861 252.309251 138.244946 254.853019 138.244946 257.50505 
C 138.244946 260.157081 139.29861 262.700849 141.173879 264.576118 
C 143.049148 266.451387 145.592915 267.50505 148.244946 267.50505 
z
" clip-path="url(#p22b9be1991)" style="fill: #6b010e; stroke: #6b010e; stroke-width: 3"/>
    <path d="M 218.41118 267.50505 
C 221.063211 267.50505 223.606979 266.451387 225.482248 264.576118 
C 227.357517 262.700849 228.41118 260.157081 228.41118 257.50505 
C 228.41118 254.853019 227.357517 252.309251 225.482248 250.433982 
C 223.606979 248.558713 221.063211 247.50505 218.41118 247.50505 
C 215.759149 247.50505 213.215382 248.558713 211.340113 250.433982 
C 209.464844 252.309251 208.41118 254.853019 208.41118 257.50505 
C 208.41118 260.157081 209.464844 262.700849 211.340113 264.576118 
C 213.215382 266.451387 215.759149 267.50505 218.41118 267.50505 
z
" clip-path="url(#p22b9be1991)" style="fill: #6b010e; stroke: #6b010e; stroke-width: 3"/>
    <path d="M 275.176856 237.569393 
C 275.707262 237.569393 276.216016 237.35866 276.59107 236.983606 
C 276.966124 236.608552 277.176856 236.099799 277.176856 235.569393 
C 277.176856 235.038986 276.966124 234.530233 276.59107 234.155179 
C 276.216016 233.780125 275.707262 233.569393 275.176856 233.569393 
C 274.64645 233.569393 274.137696 233.780125 273.762643 234.155179 
C 273.387589 234.530233 273.176856 235.038986 273.176856 235.569393 
C 273.176856 236.099799 273.387589 236.608552 273.762643 236.983606 
C 274.137696 237.35866 274.64645 237.569393 275.176856 237.569393 
z
" clip-path="url(#p22b9be1991)" style="fill: #fdcab5; stroke: #fdcab5; stroke-width: 3"/>
   </g>
   <g id="matplotlib.axis_1"/>
   <g id="matplotlib.axis_2"/>
  </g>
  <g id="axes_2">
   <g id="patch_3">
    <path d="M 45 445.034483 
L 324 445.034483 
L 324 301.655172 
L 45 301.655172 
z
" style="fill: #ffffff"/>
   </g>
   <g id="EdgeCollection_2">
    <path d="M 300.929321 373.131926 
C 325.927466 385.751641 325.927466 358.512211 300.929321 371.131926 
C 325.927466 358.512211 325.927466 385.751641 300.929321 373.131926 
" clip-path="url(#p2658bf7e57)" style="fill: #ffffff"/>
    <path d="M 298.146864 370.429972 
L 278.342447 338.341241 
" clip-path="url(#p2658bf7e57)" style="fill: #ffffff"/>
    <path d="M 297.577751 370.958403 
L 221.562925 315.877153 
" clip-path="url(#p2658bf7e57)" style="stroke: #000000; stroke-width: 2.161804"/>
    <path d="M 297.329256 371.417417 
L 150.924608 315.418139 
" clip-path="url(#p2658bf7e57)" style="fill: #ffffff"/>
    <path d="M 297.225904 371.794709 
L 93.679325 336.976504 
" clip-path="url(#p2658bf7e57)" style="fill: #ffffff"/>
    <path d="M 297.19727 372.131926 
L 71.80273 372.131926 
" clip-path="url(#p2658bf7e57)" style="fill: #ffffff"/>
    <path d="M 297.225904 372.469143 
L 101.56479 405.938478 
" clip-path="url(#p2658bf7e57)" style="stroke: #000000; stroke-width: 2.228117"/>
    <path d="M 297.329256 372.846435 
L 158.396665 425.987677 
" clip-path="url(#p2658bf7e57)" style="fill: #ffffff"/>
    <path d="M 297.577751 373.305449 
L 228.041003 423.692606 
" clip-path="url(#p2658bf7e57)" style="stroke: #000000; stroke-width: 1.419098"/>
    <path d="M 298.146864 373.83388 
L 278.342447 405.922611 
" clip-path="url(#p2658bf7e57)" style="fill: #ffffff"/>
    <path d="M 279.166907 335.942957 
C 304.829851 324.736808 283.849052 307.364629 277.626435 334.66744 
C 283.849052 307.364629 304.829851 324.736808 279.166907 335.942957 
" clip-path="url(#p2658bf7e57)" style="fill: #ffffff"/>
    <path d="M 275.424027 335.924778 
L 221.81142 315.418139 
" clip-path="url(#p2658bf7e57)" style="fill: #ffffff"/>
    <path d="M 275.320675 336.30207 
L 151.02796 315.040847 
" clip-path="url(#p2658bf7e57)" style="fill: #282828; stroke: #282828; stroke-width: 0.875332"/>
    <path d="M 275.292041 336.639287 
L 93.707959 336.639287 
" clip-path="url(#p2658bf7e57)" style="fill: #ffffff"/>
    <path d="M 275.320675 336.976504 
L 71.774096 371.794709 
" clip-path="url(#p2658bf7e57)" style="fill: #ffffff"/>
    <path d="M 275.424027 337.353796 
L 101.04803 404.05202 
" clip-path="url(#p2658bf7e57)" style="stroke: #000000; stroke-width: 1.93634"/>
    <path d="M 275.672521 337.81281 
L 157.154192 423.692606 
" clip-path="url(#p2658bf7e57)" style="fill: #ffffff"/>
    <path d="M 276.241635 338.341241 
L 225.195437 421.050453 
" clip-path="url(#p2658bf7e57)" style="fill: #ffffff"/>
    <path d="M 277.292041 338.639287 
L 277.292041 405.624565 
" clip-path="url(#p2658bf7e57)" style="fill: #ffffff"/>
    <path d="M 221.241395 313.182043 
C 238.192056 290.892145 211.405798 285.944122 219.274668 312.818745 
C 211.405798 285.944122 238.192056 290.892145 221.241395 313.182043 
" clip-path="url(#p2658bf7e57)" style="fill: #ffffff"/>
    <path d="M 217.943406 314.70363 
L 151.056594 314.70363 
" clip-path="url(#p2658bf7e57)" style="fill: #2c2c2c; stroke: #2c2c2c; stroke-width: 0.862069"/>
    <path d="M 217.97204 315.040847 
L 93.679325 336.30207 
" clip-path="url(#p2658bf7e57)" style="fill: #ffffff"/>
    <path d="M 218.075392 315.418139 
L 71.670744 371.417417 
" clip-path="url(#p2658bf7e57)" style="fill: #ffffff"/>
    <path d="M 218.323886 315.877153 
L 99.805557 401.756949 
" clip-path="url(#p2658bf7e57)" style="fill: #ffffff"/>
    <path d="M 218.893 316.405583 
L 154.308625 421.050453 
" clip-path="url(#p2658bf7e57)" style="fill: #ffffff"/>
    <path d="M 219.943406 316.70363 
L 219.943406 419.560222 
" clip-path="url(#p2658bf7e57)" style="fill: #ffffff"/>
    <path d="M 220.993812 316.405583 
L 276.241635 405.922611 
" clip-path="url(#p2658bf7e57)" style="fill: #ffffff"/>
    <path d="M 149.725332 312.818745 
C 157.594202 285.944122 130.807944 290.892145 147.758605 313.182043 
C 130.807944 290.892145 157.594202 285.944122 149.725332 312.818745 
" clip-path="url(#p2658bf7e57)" style="fill: #ffffff"/>
    <path d="M 147.18858 315.418139 
L 93.575973 335.924778 
" clip-path="url(#p2658bf7e57)" style="fill: #ffffff"/>
    <path d="M 147.437075 315.877153 
L 71.422249 370.958403 
" clip-path="url(#p2658bf7e57)" style="fill: #ffffff"/>
    <path d="M 148.006188 316.405583 
L 96.95999 399.114796 
" clip-path="url(#p2658bf7e57)" style="fill: #ffffff"/>
    <path d="M 149.056594 316.70363 
L 149.056594 419.560222 
" clip-path="url(#p2658bf7e57)" style="fill: #ffffff"/>
    <path d="M 150.107 316.405583 
L 214.691375 421.050453 
" clip-path="url(#p2658bf7e57)" style="fill: #ffffff"/>
    <path d="M 150.676114 315.877153 
L 275.672521 406.451042 
" clip-path="url(#p2658bf7e57)" style="fill: #ffffff"/>
    <path d="M 91.373565 334.66744 
C 85.150948 307.364629 64.170149 324.736808 89.833093 335.942957 
C 64.170149 324.736808 85.150948 307.364629 91.373565 334.66744 
" clip-path="url(#p2658bf7e57)" style="fill: #ffffff"/>
    <path d="M 90.657553 338.341241 
L 70.853136 370.429972 
" clip-path="url(#p2658bf7e57)" style="fill: #ffffff"/>
    <path d="M 91.707959 338.639287 
L 91.707959 397.624565 
" clip-path="url(#p2658bf7e57)" style="fill: #ffffff"/>
    <path d="M 92.758365 338.341241 
L 143.804563 421.050453 
" clip-path="url(#p2658bf7e57)" style="fill: #ffffff"/>
    <path d="M 93.327479 337.81281 
L 211.845808 423.692606 
" clip-path="url(#p2658bf7e57)" style="fill: #ffffff"/>
    <path d="M 93.575973 337.353796 
L 275.424027 406.910056 
" clip-path="url(#p2658bf7e57)" style="fill: #ffffff"/>
    <path d="M 68.070679 371.131926 
C 43.072534 358.512211 43.072534 385.751641 68.070679 373.131926 
C 43.072534 385.751641 43.072534 358.512211 68.070679 371.131926 
" clip-path="url(#p2658bf7e57)" style="fill: #ffffff"/>
    <path d="M 70.853136 373.83388 
L 86.455928 399.114796 
" clip-path="url(#p2658bf7e57)" style="fill: #ffffff"/>
    <path d="M 71.422249 373.305449 
L 140.958997 423.692606 
" clip-path="url(#p2658bf7e57)" style="stroke: #000000; stroke-width: 1.790451"/>
    <path d="M 71.670744 372.846435 
L 210.603335 425.987677 
" clip-path="url(#p2658bf7e57)" style="stroke: #000000; stroke-width: 1.259947"/>
    <path d="M 71.774096 372.469143 
L 275.320675 407.287348 
" clip-path="url(#p2658bf7e57)" style="stroke: #000000; stroke-width: 1.578249"/>
    <path d="M 82.333626 411.106215 
C 64.170149 419.527044 85.150948 436.899223 90.03599 417.4838 
C 85.150948 436.899223 64.170149 419.527044 82.333626 411.106215 
" clip-path="url(#p2658bf7e57)" style="fill: #ffffff"/>
    <path d="M 101.04803 411.19711 
L 139.716524 425.987677 
" clip-path="url(#p2658bf7e57)" style="stroke: #000000; stroke-width: 5"/>
    <path d="M 101.56479 409.310651 
L 210.086575 427.874136 
" clip-path="url(#p2658bf7e57)" style="stroke: #000000; stroke-width: 2.824934"/>
    <path d="M 101.707959 407.624565 
L 275.292041 407.624565 
" clip-path="url(#p2658bf7e57)" style="fill: #ffffff"/>
    <path d="M 142.566648 437.168152 
C 130.807944 453.371706 157.594202 458.319729 152.400282 438.984645 
C 157.594202 458.319729 130.807944 453.371706 142.566648 437.168152 
" clip-path="url(#p2658bf7e57)" style="fill: #ffffff"/>
    <path d="M 159.056594 429.560222 
L 209.943406 429.560222 
" clip-path="url(#p2658bf7e57)" style="stroke: #000000; stroke-width: 3.700265"/>
    <path d="M 158.913425 427.874136 
L 275.320675 407.961782 
" clip-path="url(#p2658bf7e57)" style="stroke: #000000; stroke-width: 1.870027"/>
    <path d="M 216.599718 438.984645 
C 211.405798 458.319729 238.192056 453.371706 226.433352 437.168152 
C 238.192056 453.371706 211.405798 458.319729 216.599718 438.984645 
" clip-path="url(#p2658bf7e57)" style="fill: #ffffff"/>
    <path d="M 229.283476 425.987677 
L 275.424027 408.339074 
" clip-path="url(#p2658bf7e57)" style="fill: #ffffff"/>
    <path d="M 277.626435 409.596412 
C 283.849052 436.899223 304.829851 419.527044 279.166907 408.320895 
C 304.829851 419.527044 283.849052 436.899223 277.626435 409.596412 
" clip-path="url(#p2658bf7e57)" style="fill: #ffffff"/>
   </g>
   <g id="VertexCollection_2">
    <path d="M 299.19727 374.131926 
C 299.727676 374.131926 300.23643 373.921193 300.611484 373.546139 
C 300.986538 373.171086 301.19727 372.662332 301.19727 372.131926 
C 301.19727 371.60152 300.986538 371.092766 300.611484 370.717712 
C 300.23643 370.342658 299.727676 370.131926 299.19727 370.131926 
C 298.666864 370.131926 298.158111 370.342658 297.783057 370.717712 
C 297.408003 371.092766 297.19727 371.60152 297.19727 372.131926 
C 297.19727 372.662332 297.408003 373.171086 297.783057 373.546139 
C 298.158111 373.921193 298.666864 374.131926 299.19727 374.131926 
z
" clip-path="url(#p2658bf7e57)" style="fill: #fdcab5; stroke: #fdcab5; stroke-width: 3"/>
    <path d="M 277.292041 338.639287 
C 277.822447 338.639287 278.331201 338.428554 278.706254 338.0535 
C 279.081308 337.678447 279.292041 337.169693 279.292041 336.639287 
C 279.292041 336.108881 279.081308 335.600127 278.706254 335.225073 
C 278.331201 334.850019 277.822447 334.639287 277.292041 334.639287 
C 276.761635 334.639287 276.252881 334.850019 275.877827 335.225073 
C 275.502773 335.600127 275.292041 336.108881 275.292041 336.639287 
C 275.292041 337.169693 275.502773 337.678447 275.877827 338.0535 
C 276.252881 338.428554 276.761635 338.639287 277.292041 338.639287 
z
" clip-path="url(#p2658bf7e57)" style="fill: #fdcab5; stroke: #fdcab5; stroke-width: 3"/>
    <path d="M 219.943406 316.70363 
C 220.473812 316.70363 220.982565 316.492897 221.357619 316.117843 
C 221.732673 315.742789 221.943406 315.234036 221.943406 314.70363 
C 221.943406 314.173223 221.732673 313.66447 221.357619 313.289416 
C 220.982565 312.914362 220.473812 312.70363 219.943406 312.70363 
C 219.413 312.70363 218.904246 312.914362 218.529192 313.289416 
C 218.154138 313.66447 217.943406 314.173223 217.943406 314.70363 
C 217.943406 315.234036 218.154138 315.742789 218.529192 316.117843 
C 218.904246 316.492897 219.413 316.70363 219.943406 316.70363 
z
" clip-path="url(#p2658bf7e57)" style="fill: #fdcab5; stroke: #fdcab5; stroke-width: 3"/>
    <path d="M 149.056594 316.70363 
C 149.587 316.70363 150.095754 316.492897 150.470808 316.117843 
C 150.845862 315.742789 151.056594 315.234036 151.056594 314.70363 
C 151.056594 314.173223 150.845862 313.66447 150.470808 313.289416 
C 150.095754 312.914362 149.587 312.70363 149.056594 312.70363 
C 148.526188 312.70363 148.017435 312.914362 147.642381 313.289416 
C 147.267327 313.66447 147.056594 314.173223 147.056594 314.70363 
C 147.056594 315.234036 147.267327 315.742789 147.642381 316.117843 
C 148.017435 316.492897 148.526188 316.70363 149.056594 316.70363 
z
" clip-path="url(#p2658bf7e57)" style="fill: #fdcab5; stroke: #fdcab5; stroke-width: 3"/>
    <path d="M 91.707959 338.639287 
C 92.238365 338.639287 92.747119 338.428554 93.122173 338.0535 
C 93.497227 337.678447 93.707959 337.169693 93.707959 336.639287 
C 93.707959 336.108881 93.497227 335.600127 93.122173 335.225073 
C 92.747119 334.850019 92.238365 334.639287 91.707959 334.639287 
C 91.177553 334.639287 90.668799 334.850019 90.293746 335.225073 
C 89.918692 335.600127 89.707959 336.108881 89.707959 336.639287 
C 89.707959 337.169693 89.918692 337.678447 90.293746 338.0535 
C 90.668799 338.428554 91.177553 338.639287 91.707959 338.639287 
z
" clip-path="url(#p2658bf7e57)" style="fill: #fdcab5; stroke: #fdcab5; stroke-width: 3"/>
    <path d="M 69.80273 374.131926 
C 70.333136 374.131926 70.841889 373.921193 71.216943 373.546139 
C 71.591997 373.171086 71.80273 372.662332 71.80273 372.131926 
C 71.80273 371.60152 71.591997 371.092766 71.216943 370.717712 
C 70.841889 370.342658 70.333136 370.131926 69.80273 370.131926 
C 69.272324 370.131926 68.76357 370.342658 68.388516 370.717712 
C 68.013462 371.092766 67.80273 371.60152 67.80273 372.131926 
C 67.80273 372.662332 68.013462 373.171086 68.388516 373.546139 
C 68.76357 373.921193 69.272324 374.131926 69.80273 374.131926 
z
" clip-path="url(#p2658bf7e57)" style="fill: #fdcab5; stroke: #fdcab5; stroke-width: 3"/>
    <path d="M 91.707959 417.624565 
C 94.35999 417.624565 96.903758 416.570902 98.779027 414.695633 
C 100.654296 412.820364 101.707959 410.276596 101.707959 407.624565 
C 101.707959 404.972534 100.654296 402.428766 98.779027 400.553497 
C 96.903758 398.678228 94.35999 397.624565 91.707959 397.624565 
C 89.055928 397.624565 86.51216 398.678228 84.636891 400.553497 
C 82.761622 402.428766 81.707959 404.972534 81.707959 407.624565 
C 81.707959 410.276596 82.761622 412.820364 84.636891 414.695633 
C 86.51216 416.570902 89.055928 417.624565 91.707959 417.624565 
z
" clip-path="url(#p2658bf7e57)" style="fill: #6b010e; stroke: #6b010e; stroke-width: 3"/>
    <path d="M 149.056594 439.560222 
C 151.708625 439.560222 154.252393 438.506559 156.127662 436.63129 
C 158.002931 434.756021 159.056594 432.212253 159.056594 429.560222 
C 159.056594 426.908191 158.002931 424.364424 156.127662 422.489154 
C 154.252393 420.613885 151.708625 419.560222 149.056594 419.560222 
C 146.404563 419.560222 143.860796 420.613885 141.985526 422.489154 
C 140.110257 424.364424 139.056594 426.908191 139.056594 429.560222 
C 139.056594 432.212253 140.110257 434.756021 141.985526 436.63129 
C 143.860796 438.506559 146.404563 439.560222 149.056594 439.560222 
z
" clip-path="url(#p2658bf7e57)" style="fill: #6b010e; stroke: #6b010e; stroke-width: 3"/>
    <path d="M 219.943406 439.560222 
C 222.595437 439.560222 225.139204 438.506559 227.014474 436.63129 
C 228.889743 434.756021 229.943406 432.212253 229.943406 429.560222 
C 229.943406 426.908191 228.889743 424.364424 227.014474 422.489154 
C 225.139204 420.613885 222.595437 419.560222 219.943406 419.560222 
C 217.291375 419.560222 214.747607 420.613885 212.872338 422.489154 
C 210.997069 424.364424 209.943406 426.908191 209.943406 429.560222 
C 209.943406 432.212253 210.997069 434.756021 212.872338 436.63129 
C 214.747607 438.506559 217.291375 439.560222 219.943406 439.560222 
z
" clip-path="url(#p2658bf7e57)" style="fill: #6b010e; stroke: #6b010e; stroke-width: 3"/>
    <path d="M 277.292041 409.624565 
C 277.822447 409.624565 278.331201 409.413832 278.706254 409.038778 
C 279.081308 408.663725 279.292041 408.154971 279.292041 407.624565 
C 279.292041 407.094159 279.081308 406.585405 278.706254 406.210351 
C 278.331201 405.835298 277.822447 405.624565 277.292041 405.624565 
C 276.761635 405.624565 276.252881 405.835298 275.877827 406.210351 
C 275.502773 406.585405 275.292041 407.094159 275.292041 407.624565 
C 275.292041 408.154971 275.502773 408.663725 275.877827 409.038778 
C 276.252881 409.413832 276.761635 409.624565 277.292041 409.624565 
z
" clip-path="url(#p2658bf7e57)" style="fill: #fdcab5; stroke: #fdcab5; stroke-width: 3"/>
   </g>
   <g id="matplotlib.axis_3"/>
   <g id="matplotlib.axis_4"/>
  </g>
  <g id="axes_3">
   <g id="patch_4">
    <path d="M 45 617.089655 
L 324 617.089655 
L 324 473.710345 
L 45 473.710345 
z
" style="fill: #ffffff"/>
   </g>
   <g id="EdgeCollection_3">
    <path d="M 300.935339 545.187098 
C 325.933484 557.806813 325.933484 530.567383 300.935339 543.187098 
C 325.933484 530.567383 325.933484 557.806813 300.935339 545.187098 
" clip-path="url(#p806690b260)" style="fill: #ffffff"/>
    <path d="M 298.160647 542.480377 
L 278.563371 510.401181 
" clip-path="url(#p806690b260)" style="fill: #ffffff"/>
    <path d="M 297.589493 543.005715 
L 222.368848 487.940186 
" clip-path="url(#p806690b260)" style="stroke: #000000; stroke-width: 1.760563"/>
    <path d="M 297.33773 543.466201 
L 152.454378 487.4797 
" clip-path="url(#p806690b260)" style="fill: #ffffff"/>
    <path d="M 297.2325 543.846518 
L 95.793932 509.03504 
" clip-path="url(#p806690b260)" style="fill: #ffffff"/>
    <path d="M 297.203288 544.187098 
L 82.140585 544.187098 
" clip-path="url(#p806690b260)" style="fill: #ffffff"/>
    <path d="M 297.2325 544.527679 
L 103.677083 577.976835 
" clip-path="url(#p806690b260)" style="fill: #ffffff"/>
    <path d="M 297.33773 544.907996 
L 159.91661 598.010907 
" clip-path="url(#p806690b260)" style="fill: #ffffff"/>
    <path d="M 297.589493 545.368482 
L 228.824026 595.708476 
" clip-path="url(#p806690b260)" style="fill: #ffffff"/>
    <path d="M 298.160647 545.89382 
L 278.563371 577.973016 
" clip-path="url(#p806690b260)" style="fill: #ffffff"/>
    <path d="M 279.398359 508.005614 
C 305.1058 496.901925 284.194467 479.44619 277.862986 506.723962 
C 284.194467 479.44619 305.1058 496.901925 279.398359 508.005614 
" clip-path="url(#p806690b260)" style="fill: #ffffff"/>
    <path d="M 275.655171 507.973562 
L 222.620611 487.4797 
" clip-path="url(#p806690b260)" style="fill: #ffffff"/>
    <path d="M 275.549941 508.353879 
L 152.559607 487.099382 
" clip-path="url(#p806690b260)" style="fill: #0a0a0a; stroke: #0a0a0a; stroke-width: 0.971831"/>
    <path d="M 275.520729 508.694459 
L 95.823144 508.694459 
" clip-path="url(#p806690b260)" style="fill: #ffffff"/>
    <path d="M 275.549941 509.03504 
L 81.994525 542.484196 
" clip-path="url(#p806690b260)" style="fill: #ffffff"/>
    <path d="M 275.655171 509.415357 
L 103.150934 576.075249 
" clip-path="url(#p806690b260)" style="stroke: #000000; stroke-width: 1.971831"/>
    <path d="M 275.906935 509.875843 
L 158.657792 595.708476 
" clip-path="url(#p806690b260)" style="fill: #ffffff"/>
    <path d="M 276.478088 510.401181 
L 225.96826 593.081786 
" clip-path="url(#p806690b260)" style="stroke: #000000; stroke-width: 1.450704"/>
    <path d="M 277.520729 510.694459 
L 277.520729 577.679737 
" clip-path="url(#p806690b260)" style="fill: #ffffff"/>
    <path d="M 222.055644 485.239439 
C 239.044421 462.978578 212.266669 457.984728 220.089542 484.872776 
C 212.266669 457.984728 239.044421 462.978578 222.055644 485.239439 
" clip-path="url(#p806690b260)" style="fill: #ffffff"/>
    <path d="M 218.755054 486.758802 
L 152.58882 486.758802 
" clip-path="url(#p806690b260)" style="stroke: #000000; stroke-width: 1.042254"/>
    <path d="M 218.784266 487.099382 
L 95.793932 508.353879 
" clip-path="url(#p806690b260)" style="fill: #ffffff"/>
    <path d="M 218.889496 487.4797 
L 81.468375 540.58261 
" clip-path="url(#p806690b260)" style="fill: #ffffff"/>
    <path d="M 219.141259 487.940186 
L 101.892116 573.772819 
" clip-path="url(#p806690b260)" style="fill: #ffffff"/>
    <path d="M 219.712412 488.465524 
L 155.802026 593.081786 
" clip-path="url(#p806690b260)" style="fill: #ffffff"/>
    <path d="M 220.755054 488.758802 
L 220.755054 591.615395 
" clip-path="url(#p806690b260)" style="fill: #ffffff"/>
    <path d="M 221.797695 488.465524 
L 276.478088 577.973016 
" clip-path="url(#p806690b260)" style="fill: #ffffff"/>
    <path d="M 151.254331 484.872776 
C 159.077204 457.984728 132.299452 462.978578 149.288229 485.239439 
C 132.299452 462.978578 159.077204 457.984728 151.254331 484.872776 
" clip-path="url(#p806690b260)" style="fill: #ffffff"/>
    <path d="M 148.723262 487.4797 
L 95.688702 507.973562 
" clip-path="url(#p806690b260)" style="fill: #ffffff"/>
    <path d="M 148.975025 487.940186 
L 80.209557 538.28018 
" clip-path="url(#p806690b260)" style="fill: #ffffff"/>
    <path d="M 149.546178 488.465524 
L 99.036351 571.146129 
" clip-path="url(#p806690b260)" style="fill: #ffffff"/>
    <path d="M 150.58882 488.758802 
L 150.58882 591.615395 
" clip-path="url(#p806690b260)" style="fill: #ffffff"/>
    <path d="M 151.631461 488.465524 
L 215.541847 593.081786 
" clip-path="url(#p806690b260)" style="fill: #ffffff"/>
    <path d="M 152.202614 487.940186 
L 275.906935 578.498354 
" clip-path="url(#p806690b260)" style="fill: #ffffff"/>
    <path d="M 93.480887 506.723962 
C 87.149406 479.44619 66.238073 496.901925 91.945515 508.005614 
C 66.238073 496.901925 87.149406 479.44619 93.480887 506.723962 
" clip-path="url(#p806690b260)" style="fill: #ffffff"/>
    <path d="M 92.780502 510.401181 
L 77.353792 535.65349 
" clip-path="url(#p806690b260)" style="fill: #ffffff"/>
    <path d="M 93.823144 510.694459 
L 93.823144 569.679737 
" clip-path="url(#p806690b260)" style="fill: #ffffff"/>
    <path d="M 94.865785 510.401181 
L 145.375613 593.081786 
" clip-path="url(#p806690b260)" style="fill: #ffffff"/>
    <path d="M 95.436938 509.875843 
L 212.686081 595.708476 
" clip-path="url(#p806690b260)" style="fill: #ffffff"/>
    <path d="M 95.688702 509.415357 
L 275.655171 578.95884 
" clip-path="url(#p806690b260)" style="stroke: #000000; stroke-width: 1.169014"/>
    <path d="M 63.480331 539.187098 
C 45.410389 530.567383 45.410389 557.806813 63.480331 549.187098 
C 45.410389 557.806813 45.410389 530.567383 63.480331 539.187098 
" clip-path="url(#p806690b260)" style="fill: #ffffff"/>
    <path d="M 77.353792 552.720707 
L 88.609937 571.146129 
" clip-path="url(#p806690b260)" style="stroke: #000000; stroke-width: 1.478873"/>
    <path d="M 80.209557 550.094017 
L 142.519847 595.708476 
" clip-path="url(#p806690b260)" style="stroke: #000000; stroke-width: 1.605634"/>
    <path d="M 81.468375 547.791586 
L 211.427264 598.010907 
" clip-path="url(#p806690b260)" style="stroke: #000000; stroke-width: 1.309859"/>
    <path d="M 81.994525 545.890001 
L 275.549941 579.339157 
" clip-path="url(#p806690b260)" style="stroke: #000000; stroke-width: 1.71831"/>
    <path d="M 84.434997 583.123965 
C 66.238073 591.472271 87.149406 608.928006 92.111859 589.532224 
C 87.149406 608.928006 66.238073 591.472271 84.434997 583.123965 
" clip-path="url(#p806690b260)" style="fill: #ffffff"/>
    <path d="M 103.150934 583.284225 
L 141.26103 598.010907 
" clip-path="url(#p806690b260)" style="stroke: #000000; stroke-width: 5"/>
    <path d="M 103.677083 581.38264 
L 210.901114 599.912492 
" clip-path="url(#p806690b260)" style="stroke: #000000; stroke-width: 2.126761"/>
    <path d="M 103.823144 579.679737 
L 275.520729 579.679737 
" clip-path="url(#p806690b260)" style="fill: #ffffff"/>
    <path d="M 144.085865 609.212209 
C 132.299452 625.395618 159.077204 630.389469 153.916376 611.045525 
C 159.077204 630.389469 132.299452 625.395618 144.085865 609.212209 
" clip-path="url(#p806690b260)" style="fill: #ffffff"/>
    <path d="M 160.58882 601.615395 
L 210.755054 601.615395 
" clip-path="url(#p806690b260)" style="stroke: #000000; stroke-width: 4.056338"/>
    <path d="M 160.442759 599.912492 
L 275.549941 580.020318 
" clip-path="url(#p806690b260)" style="stroke: #000000; stroke-width: 2.070423"/>
    <path d="M 217.427497 611.045525 
C 212.266669 630.389469 239.044421 625.395618 227.258008 609.212209 
C 239.044421 625.395618 212.266669 630.389469 217.427497 611.045525 
" clip-path="url(#p806690b260)" style="fill: #ffffff"/>
    <path d="M 230.082843 598.010907 
L 275.655171 580.400635 
" clip-path="url(#p806690b260)" style="fill: #ffffff"/>
    <path d="M 277.862986 581.650235 
C 284.194467 608.928006 305.1058 591.472271 279.398359 580.368583 
C 305.1058 591.472271 284.194467 608.928006 277.862986 581.650235 
" clip-path="url(#p806690b260)" style="fill: #ffffff"/>
   </g>
   <g id="VertexCollection_3">
    <path d="M 299.203288 546.187098 
C 299.733694 546.187098 300.242448 545.976366 300.617501 545.601312 
C 300.992555 545.226258 301.203288 544.717504 301.203288 544.187098 
C 301.203288 543.656692 300.992555 543.147939 300.617501 542.772885 
C 300.242448 542.397831 299.733694 542.187098 299.203288 542.187098 
C 298.672882 542.187098 298.164128 542.397831 297.789074 542.772885 
C 297.414021 543.147939 297.203288 543.656692 297.203288 544.187098 
C 297.203288 544.717504 297.414021 545.226258 297.789074 545.601312 
C 298.164128 545.976366 298.672882 546.187098 299.203288 546.187098 
z
" clip-path="url(#p806690b260)" style="fill: #fdcab5; stroke: #fdcab5; stroke-width: 3"/>
    <path d="M 277.520729 510.694459 
C 278.051135 510.694459 278.559889 510.483727 278.934943 510.108673 
C 279.309997 509.733619 279.520729 509.224865 279.520729 508.694459 
C 279.520729 508.164053 279.309997 507.655299 278.934943 507.280246 
C 278.559889 506.905192 278.051135 506.694459 277.520729 506.694459 
C 276.990323 506.694459 276.481569 506.905192 276.106516 507.280246 
C 275.731462 507.655299 275.520729 508.164053 275.520729 508.694459 
C 275.520729 509.224865 275.731462 509.733619 276.106516 510.108673 
C 276.481569 510.483727 276.990323 510.694459 277.520729 510.694459 
z
" clip-path="url(#p806690b260)" style="fill: #fdcab5; stroke: #fdcab5; stroke-width: 3"/>
    <path d="M 220.755054 488.758802 
C 221.28546 488.758802 221.794213 488.548069 222.169267 488.173016 
C 222.544321 487.797962 222.755054 487.289208 222.755054 486.758802 
C 222.755054 486.228396 222.544321 485.719642 222.169267 485.344588 
C 221.794213 484.969535 221.28546 484.758802 220.755054 484.758802 
C 220.224647 484.758802 219.715894 484.969535 219.34084 485.344588 
C 218.965786 485.719642 218.755054 486.228396 218.755054 486.758802 
C 218.755054 487.289208 218.965786 487.797962 219.34084 488.173016 
C 219.715894 488.548069 220.224647 488.758802 220.755054 488.758802 
z
" clip-path="url(#p806690b260)" style="fill: #fdcab5; stroke: #fdcab5; stroke-width: 3"/>
    <path d="M 150.58882 488.758802 
C 151.119226 488.758802 151.627979 488.548069 152.003033 488.173016 
C 152.378087 487.797962 152.58882 487.289208 152.58882 486.758802 
C 152.58882 486.228396 152.378087 485.719642 152.003033 485.344588 
C 151.627979 484.969535 151.119226 484.758802 150.58882 484.758802 
C 150.058413 484.758802 149.54966 484.969535 149.174606 485.344588 
C 148.799552 485.719642 148.58882 486.228396 148.58882 486.758802 
C 148.58882 487.289208 148.799552 487.797962 149.174606 488.173016 
C 149.54966 488.548069 150.058413 488.758802 150.58882 488.758802 
z
" clip-path="url(#p806690b260)" style="fill: #fdcab5; stroke: #fdcab5; stroke-width: 3"/>
    <path d="M 93.823144 510.694459 
C 94.35355 510.694459 94.862304 510.483727 95.237357 510.108673 
C 95.612411 509.733619 95.823144 509.224865 95.823144 508.694459 
C 95.823144 508.164053 95.612411 507.655299 95.237357 507.280246 
C 94.862304 506.905192 94.35355 506.694459 93.823144 506.694459 
C 93.292738 506.694459 92.783984 506.905192 92.40893 507.280246 
C 92.033876 507.655299 91.823144 508.164053 91.823144 508.694459 
C 91.823144 509.224865 92.033876 509.733619 92.40893 510.108673 
C 92.783984 510.483727 93.292738 510.694459 93.823144 510.694459 
z
" clip-path="url(#p806690b260)" style="fill: #fdcab5; stroke: #fdcab5; stroke-width: 3"/>
    <path d="M 72.140585 554.187098 
C 74.792616 554.187098 77.336384 553.133435 79.211653 551.258166 
C 81.086922 549.382897 82.140585 546.839129 82.140585 544.187098 
C 82.140585 541.535067 81.086922 538.9913 79.211653 537.11603 
C 77.336384 535.240761 74.792616 534.187098 72.140585 534.187098 
C 69.488554 534.187098 66.944786 535.240761 65.069517 537.11603 
C 63.194248 538.9913 62.140585 541.535067 62.140585 544.187098 
C 62.140585 546.839129 63.194248 549.382897 65.069517 551.258166 
C 66.944786 553.133435 69.488554 554.187098 72.140585 554.187098 
z
" clip-path="url(#p806690b260)" style="fill: #6b010e; stroke: #6b010e; stroke-width: 3"/>
    <path d="M 93.823144 589.679737 
C 96.475175 589.679737 99.018943 588.626074 100.894212 586.750805 
C 102.769481 584.875536 103.823144 582.331768 103.823144 579.679737 
C 103.823144 577.027706 102.769481 574.483939 100.894212 572.60867 
C 99.018943 570.7334 96.475175 569.679737 93.823144 569.679737 
C 91.171113 569.679737 88.627345 570.7334 86.752076 572.60867 
C 84.876807 574.483939 83.823144 577.027706 83.823144 579.679737 
C 83.823144 582.331768 84.876807 584.875536 86.752076 586.750805 
C 88.627345 588.626074 91.171113 589.679737 93.823144 589.679737 
z
" clip-path="url(#p806690b260)" style="fill: #6b010e; stroke: #6b010e; stroke-width: 3"/>
    <path d="M 150.58882 611.615395 
C 153.240851 611.615395 155.784618 610.561732 157.659887 608.686462 
C 159.535156 606.811193 160.58882 604.267426 160.58882 601.615395 
C 160.58882 598.963364 159.535156 596.419596 157.659887 594.544327 
C 155.784618 592.669058 153.240851 591.615395 150.58882 591.615395 
C 147.936789 591.615395 145.393021 592.669058 143.517752 594.544327 
C 141.642483 596.419596 140.58882 598.963364 140.58882 601.615395 
C 140.58882 604.267426 141.642483 606.811193 143.517752 608.686462 
C 145.393021 610.561732 147.936789 611.615395 150.58882 611.615395 
z
" clip-path="url(#p806690b260)" style="fill: #6b010e; stroke: #6b010e; stroke-width: 3"/>
    <path d="M 220.755054 611.615395 
C 223.407085 611.615395 225.950852 610.561732 227.826121 608.686462 
C 229.70139 606.811193 230.755054 604.267426 230.755054 601.615395 
C 230.755054 598.963364 229.70139 596.419596 227.826121 594.544327 
C 225.950852 592.669058 223.407085 591.615395 220.755054 591.615395 
C 218.103023 591.615395 215.559255 592.669058 213.683986 594.544327 
C 211.808717 596.419596 210.755054 598.963364 210.755054 601.615395 
C 210.755054 604.267426 211.808717 606.811193 213.683986 608.686462 
C 215.559255 610.561732 218.103023 611.615395 220.755054 611.615395 
z
" clip-path="url(#p806690b260)" style="fill: #6b010e; stroke: #6b010e; stroke-width: 3"/>
    <path d="M 277.520729 581.679737 
C 278.051135 581.679737 278.559889 581.469005 278.934943 581.093951 
C 279.309997 580.718897 279.520729 580.210144 279.520729 579.679737 
C 279.520729 579.149331 279.309997 578.640578 278.934943 578.265524 
C 278.559889 577.89047 278.051135 577.679737 277.520729 577.679737 
C 276.990323 577.679737 276.481569 577.89047 276.106516 578.265524 
C 275.731462 578.640578 275.520729 579.149331 275.520729 579.679737 
C 275.520729 580.210144 275.731462 580.718897 276.106516 581.093951 
C 276.481569 581.469005 276.990323 581.679737 277.520729 581.679737 
z
" clip-path="url(#p806690b260)" style="fill: #fdcab5; stroke: #fdcab5; stroke-width: 3"/>
   </g>
   <g id="matplotlib.axis_5"/>
   <g id="matplotlib.axis_6"/>
  </g>
  <g id="axes_4">
   <g id="patch_5">
    <path d="M 45 789.144828 
L 324 789.144828 
L 324 645.765517 
L 45 645.765517 
z
" style="fill: #ffffff"/>
   </g>
   <g id="EdgeCollection_4">
    <path d="M 300.935339 717.242271 
C 325.933484 729.861986 325.933484 702.622556 300.935339 715.242271 
C 325.933484 702.622556 325.933484 729.861986 300.935339 717.242271 
" clip-path="url(#pe37c0424fb)" style="fill: #ffffff"/>
    <path d="M 298.160647 714.535549 
L 278.563371 682.456353 
" clip-path="url(#pe37c0424fb)" style="fill: #ffffff"/>
    <path d="M 297.589493 715.060887 
L 222.368848 659.995358 
" clip-path="url(#pe37c0424fb)" style="stroke: #000000; stroke-width: 2.203647"/>
    <path d="M 297.33773 715.521373 
L 152.454378 659.534872 
" clip-path="url(#pe37c0424fb)" style="fill: #ffffff"/>
    <path d="M 297.2325 715.90169 
L 95.793932 681.090212 
" clip-path="url(#pe37c0424fb)" style="fill: #ffffff"/>
    <path d="M 297.203288 716.242271 
L 82.140585 716.242271 
" clip-path="url(#pe37c0424fb)" style="fill: #ffffff"/>
    <path d="M 297.2325 716.582851 
L 103.677083 750.032007 
" clip-path="url(#pe37c0424fb)" style="fill: #ffffff"/>
    <path d="M 297.33773 716.963168 
L 159.91661 770.066079 
" clip-path="url(#pe37c0424fb)" style="fill: #ffffff"/>
    <path d="M 297.589493 717.423654 
L 228.824026 767.763649 
" clip-path="url(#pe37c0424fb)" style="fill: #ffffff"/>
    <path d="M 298.160647 717.948992 
L 278.563371 750.028188 
" clip-path="url(#pe37c0424fb)" style="fill: #ffffff"/>
    <path d="M 279.398359 680.060786 
C 305.1058 668.957098 284.194467 651.501363 277.862986 678.779134 
C 284.194467 651.501363 305.1058 668.957098 279.398359 680.060786 
" clip-path="url(#pe37c0424fb)" style="fill: #ffffff"/>
    <path d="M 275.655171 680.028734 
L 222.620611 659.534872 
" clip-path="url(#pe37c0424fb)" style="fill: #ffffff"/>
    <path d="M 275.549941 680.409051 
L 152.559607 659.154555 
" clip-path="url(#pe37c0424fb)" style="stroke: #000000; stroke-width: 1.18541"/>
    <path d="M 275.520729 680.749632 
L 95.823144 680.749632 
" clip-path="url(#pe37c0424fb)" style="fill: #ffffff"/>
    <path d="M 275.549941 681.090212 
L 81.994525 714.539368 
" clip-path="url(#pe37c0424fb)" style="fill: #ffffff"/>
    <path d="M 275.655171 681.470529 
L 103.150934 748.130422 
" clip-path="url(#pe37c0424fb)" style="stroke: #000000; stroke-width: 2.279635"/>
    <path d="M 275.906935 681.931015 
L 158.657792 767.763649 
" clip-path="url(#pe37c0424fb)" style="fill: #ffffff"/>
    <path d="M 276.478088 682.456353 
L 225.96826 765.136959 
" clip-path="url(#pe37c0424fb)" style="fill: #ffffff"/>
    <path d="M 277.520729 682.749632 
L 277.520729 749.73491 
" clip-path="url(#pe37c0424fb)" style="fill: #ffffff"/>
    <path d="M 222.055644 657.294612 
C 239.044421 635.033751 212.266669 630.0399 220.089542 656.927948 
C 212.266669 630.0399 239.044421 635.033751 222.055644 657.294612 
" clip-path="url(#pe37c0424fb)" style="fill: #ffffff"/>
    <path d="M 218.755054 658.813974 
L 152.58882 658.813974 
" clip-path="url(#pe37c0424fb)" style="stroke: #000000; stroke-width: 1.079027"/>
    <path d="M 218.784266 659.154555 
L 95.793932 680.409051 
" clip-path="url(#pe37c0424fb)" style="fill: #ffffff"/>
    <path d="M 218.889496 659.534872 
L 81.468375 712.637783 
" clip-path="url(#pe37c0424fb)" style="fill: #ffffff"/>
    <path d="M 219.141259 659.995358 
L 101.892116 745.827991 
" clip-path="url(#pe37c0424fb)" style="fill: #ffffff"/>
    <path d="M 219.712412 660.520696 
L 155.802026 765.136959 
" clip-path="url(#pe37c0424fb)" style="fill: #ffffff"/>
    <path d="M 220.755054 660.813974 
L 220.755054 763.670567 
" clip-path="url(#pe37c0424fb)" style="fill: #ffffff"/>
    <path d="M 221.797695 660.520696 
L 276.478088 750.028188 
" clip-path="url(#pe37c0424fb)" style="fill: #ffffff"/>
    <path d="M 151.254331 656.927948 
C 159.077204 630.0399 132.299452 635.033751 149.288229 657.294612 
C 132.299452 635.033751 159.077204 630.0399 151.254331 656.927948 
" clip-path="url(#pe37c0424fb)" style="fill: #ffffff"/>
    <path d="M 148.723262 659.534872 
L 95.688702 680.028734 
" clip-path="url(#pe37c0424fb)" style="fill: #ffffff"/>
    <path d="M 148.975025 659.995358 
L 80.209557 710.335352 
" clip-path="url(#pe37c0424fb)" style="fill: #ffffff"/>
    <path d="M 149.546178 660.520696 
L 99.036351 743.201301 
" clip-path="url(#pe37c0424fb)" style="fill: #ffffff"/>
    <path d="M 150.58882 660.813974 
L 150.58882 763.670567 
" clip-path="url(#pe37c0424fb)" style="fill: #ffffff"/>
    <path d="M 151.631461 660.520696 
L 215.541847 765.136959 
" clip-path="url(#pe37c0424fb)" style="fill: #ffffff"/>
    <path d="M 152.202614 659.995358 
L 275.906935 750.553526 
" clip-path="url(#pe37c0424fb)" style="fill: #ffffff"/>
    <path d="M 93.480887 678.779134 
C 87.149406 651.501363 66.238073 668.957098 91.945515 680.060786 
C 66.238073 668.957098 87.149406 651.501363 93.480887 678.779134 
" clip-path="url(#pe37c0424fb)" style="fill: #ffffff"/>
    <path d="M 92.780502 682.456353 
L 77.353792 707.708662 
" clip-path="url(#pe37c0424fb)" style="stroke: #000000; stroke-width: 2.416413"/>
    <path d="M 93.823144 682.749632 
L 93.823144 741.73491 
" clip-path="url(#pe37c0424fb)" style="fill: #ffffff"/>
    <path d="M 94.865785 682.456353 
L 145.375613 765.136959 
" clip-path="url(#pe37c0424fb)" style="fill: #ffffff"/>
    <path d="M 95.436938 681.931015 
L 212.686081 767.763649 
" clip-path="url(#pe37c0424fb)" style="fill: #ffffff"/>
    <path d="M 95.688702 681.470529 
L 275.655171 751.014012 
" clip-path="url(#pe37c0424fb)" style="fill: #ffffff"/>
    <path d="M 63.480331 711.242271 
C 45.410389 702.622556 45.410389 729.861986 63.480331 721.242271 
C 45.410389 729.861986 45.410389 702.622556 63.480331 711.242271 
" clip-path="url(#pe37c0424fb)" style="fill: #ffffff"/>
    <path d="M 77.353792 724.775879 
L 88.609937 743.201301 
" clip-path="url(#pe37c0424fb)" style="stroke: #000000; stroke-width: 1.990881"/>
    <path d="M 80.209557 722.149189 
L 142.519847 767.763649 
" clip-path="url(#pe37c0424fb)" style="stroke: #000000; stroke-width: 2.112462"/>
    <path d="M 81.468375 719.846759 
L 211.427264 770.066079 
" clip-path="url(#pe37c0424fb)" style="stroke: #000000; stroke-width: 2.203647"/>
    <path d="M 81.994525 717.945173 
L 275.549941 751.394329 
" clip-path="url(#pe37c0424fb)" style="fill: #ffffff"/>
    <path d="M 84.434997 755.179137 
C 66.238073 763.527444 87.149406 780.983179 92.111859 761.587397 
C 87.149406 780.983179 66.238073 763.527444 84.434997 755.179137 
" clip-path="url(#pe37c0424fb)" style="fill: #ffffff"/>
    <path d="M 103.150934 755.339398 
L 141.26103 770.066079 
" clip-path="url(#pe37c0424fb)" style="stroke: #000000; stroke-width: 5"/>
    <path d="M 103.677083 753.437812 
L 210.901114 771.967665 
" clip-path="url(#pe37c0424fb)" style="stroke: #000000; stroke-width: 2.68997"/>
    <path d="M 103.823144 751.73491 
L 275.520729 751.73491 
" clip-path="url(#pe37c0424fb)" style="fill: #ffffff"/>
    <path d="M 144.085865 781.267381 
C 132.299452 797.450791 159.077204 802.444641 153.916376 783.100698 
C 159.077204 802.444641 132.299452 797.450791 144.085865 781.267381 
" clip-path="url(#pe37c0424fb)" style="fill: #ffffff"/>
    <path d="M 160.58882 773.670567 
L 210.755054 773.670567 
" clip-path="url(#pe37c0424fb)" style="stroke: #000000; stroke-width: 4.148936"/>
    <path d="M 160.442759 771.967665 
L 275.549941 752.07549 
" clip-path="url(#pe37c0424fb)" style="stroke: #000000; stroke-width: 1.732523"/>
    <path d="M 217.427497 783.100698 
C 212.266669 802.444641 239.044421 797.450791 227.258008 781.267381 
C 239.044421 797.450791 212.266669 802.444641 217.427497 783.100698 
" clip-path="url(#pe37c0424fb)" style="fill: #ffffff"/>
    <path d="M 230.082843 770.066079 
L 275.655171 752.455807 
" clip-path="url(#pe37c0424fb)" style="stroke: #000000; stroke-width: 1.231003"/>
    <path d="M 277.862986 753.705407 
C 284.194467 780.983179 305.1058 763.527444 279.398359 752.423755 
C 305.1058 763.527444 284.194467 780.983179 277.862986 753.705407 
" clip-path="url(#pe37c0424fb)" style="fill: #ffffff"/>
   </g>
   <g id="VertexCollection_4">
    <path d="M 299.203288 718.242271 
C 299.733694 718.242271 300.242448 718.031538 300.617501 717.656484 
C 300.992555 717.28143 301.203288 716.772677 301.203288 716.242271 
C 301.203288 715.711865 300.992555 715.203111 300.617501 714.828057 
C 300.242448 714.453003 299.733694 714.242271 299.203288 714.242271 
C 298.672882 714.242271 298.164128 714.453003 297.789074 714.828057 
C 297.414021 715.203111 297.203288 715.711865 297.203288 716.242271 
C 297.203288 716.772677 297.414021 717.28143 297.789074 717.656484 
C 298.164128 718.031538 298.672882 718.242271 299.203288 718.242271 
z
" clip-path="url(#pe37c0424fb)" style="fill: #fdcab5; stroke: #fdcab5; stroke-width: 3"/>
    <path d="M 277.520729 682.749632 
C 278.051135 682.749632 278.559889 682.538899 278.934943 682.163845 
C 279.309997 681.788791 279.520729 681.280038 279.520729 680.749632 
C 279.520729 680.219225 279.309997 679.710472 278.934943 679.335418 
C 278.559889 678.960364 278.051135 678.749632 277.520729 678.749632 
C 276.990323 678.749632 276.481569 678.960364 276.106516 679.335418 
C 275.731462 679.710472 275.520729 680.219225 275.520729 680.749632 
C 275.520729 681.280038 275.731462 681.788791 276.106516 682.163845 
C 276.481569 682.538899 276.990323 682.749632 277.520729 682.749632 
z
" clip-path="url(#pe37c0424fb)" style="fill: #fdcab5; stroke: #fdcab5; stroke-width: 3"/>
    <path d="M 220.755054 660.813974 
C 221.28546 660.813974 221.794213 660.603242 222.169267 660.228188 
C 222.544321 659.853134 222.755054 659.344381 222.755054 658.813974 
C 222.755054 658.283568 222.544321 657.774815 222.169267 657.399761 
C 221.794213 657.024707 221.28546 656.813974 220.755054 656.813974 
C 220.224647 656.813974 219.715894 657.024707 219.34084 657.399761 
C 218.965786 657.774815 218.755054 658.283568 218.755054 658.813974 
C 218.755054 659.344381 218.965786 659.853134 219.34084 660.228188 
C 219.715894 660.603242 220.224647 660.813974 220.755054 660.813974 
z
" clip-path="url(#pe37c0424fb)" style="fill: #fdcab5; stroke: #fdcab5; stroke-width: 3"/>
    <path d="M 150.58882 660.813974 
C 151.119226 660.813974 151.627979 660.603242 152.003033 660.228188 
C 152.378087 659.853134 152.58882 659.344381 152.58882 658.813974 
C 152.58882 658.283568 152.378087 657.774815 152.003033 657.399761 
C 151.627979 657.024707 151.119226 656.813974 150.58882 656.813974 
C 150.058413 656.813974 149.54966 657.024707 149.174606 657.399761 
C 148.799552 657.774815 148.58882 658.283568 148.58882 658.813974 
C 148.58882 659.344381 148.799552 659.853134 149.174606 660.228188 
C 149.54966 660.603242 150.058413 660.813974 150.58882 660.813974 
z
" clip-path="url(#pe37c0424fb)" style="fill: #fdcab5; stroke: #fdcab5; stroke-width: 3"/>
    <path d="M 93.823144 682.749632 
C 94.35355 682.749632 94.862304 682.538899 95.237357 682.163845 
C 95.612411 681.788791 95.823144 681.280038 95.823144 680.749632 
C 95.823144 680.219225 95.612411 679.710472 95.237357 679.335418 
C 94.862304 678.960364 94.35355 678.749632 93.823144 678.749632 
C 93.292738 678.749632 92.783984 678.960364 92.40893 679.335418 
C 92.033876 679.710472 91.823144 680.219225 91.823144 680.749632 
C 91.823144 681.280038 92.033876 681.788791 92.40893 682.163845 
C 92.783984 682.538899 93.292738 682.749632 93.823144 682.749632 
z
" clip-path="url(#pe37c0424fb)" style="fill: #fdcab5; stroke: #fdcab5; stroke-width: 3"/>
    <path d="M 72.140585 726.242271 
C 74.792616 726.242271 77.336384 725.188608 79.211653 723.313339 
C 81.086922 721.438069 82.140585 718.894302 82.140585 716.242271 
C 82.140585 713.59024 81.086922 711.046472 79.211653 709.171203 
C 77.336384 707.295934 74.792616 706.242271 72.140585 706.242271 
C 69.488554 706.242271 66.944786 707.295934 65.069517 709.171203 
C 63.194248 711.046472 62.140585 713.59024 62.140585 716.242271 
C 62.140585 718.894302 63.194248 721.438069 65.069517 723.313339 
C 66.944786 725.188608 69.488554 726.242271 72.140585 726.242271 
z
" clip-path="url(#pe37c0424fb)" style="fill: #6b010e; stroke: #6b010e; stroke-width: 3"/>
    <path d="M 93.823144 761.73491 
C 96.475175 761.73491 99.018943 760.681247 100.894212 758.805978 
C 102.769481 756.930708 103.823144 754.386941 103.823144 751.73491 
C 103.823144 749.082879 102.769481 746.539111 100.894212 744.663842 
C 99.018943 742.788573 96.475175 741.73491 93.823144 741.73491 
C 91.171113 741.73491 88.627345 742.788573 86.752076 744.663842 
C 84.876807 746.539111 83.823144 749.082879 83.823144 751.73491 
C 83.823144 754.386941 84.876807 756.930708 86.752076 758.805978 
C 88.627345 760.681247 91.171113 761.73491 93.823144 761.73491 
z
" clip-path="url(#pe37c0424fb)" style="fill: #6b010e; stroke: #6b010e; stroke-width: 3"/>
    <path d="M 150.58882 783.670567 
C 153.240851 783.670567 155.784618 782.616904 157.659887 780.741635 
C 159.535156 778.866366 160.58882 776.322598 160.58882 773.670567 
C 160.58882 771.018536 159.535156 768.474768 157.659887 766.599499 
C 155.784618 764.72423 153.240851 763.670567 150.58882 763.670567 
C 147.936789 763.670567 145.393021 764.72423 143.517752 766.599499 
C 141.642483 768.474768 140.58882 771.018536 140.58882 773.670567 
C 140.58882 776.322598 141.642483 778.866366 143.517752 780.741635 
C 145.393021 782.616904 147.936789 783.670567 150.58882 783.670567 
z
" clip-path="url(#pe37c0424fb)" style="fill: #6b010e; stroke: #6b010e; stroke-width: 3"/>
    <path d="M 220.755054 783.670567 
C 223.407085 783.670567 225.950852 782.616904 227.826121 780.741635 
C 229.70139 778.866366 230.755054 776.322598 230.755054 773.670567 
C 230.755054 771.018536 229.70139 768.474768 227.826121 766.599499 
C 225.950852 764.72423 223.407085 763.670567 220.755054 763.670567 
C 218.103023 763.670567 215.559255 764.72423 213.683986 766.599499 
C 211.808717 768.474768 210.755054 771.018536 210.755054 773.670567 
C 210.755054 776.322598 211.808717 778.866366 213.683986 780.741635 
C 215.559255 782.616904 218.103023 783.670567 220.755054 783.670567 
z
" clip-path="url(#pe37c0424fb)" style="fill: #6b010e; stroke: #6b010e; stroke-width: 3"/>
    <path d="M 277.520729 753.73491 
C 278.051135 753.73491 278.559889 753.524177 278.934943 753.149123 
C 279.309997 752.77407 279.520729 752.265316 279.520729 751.73491 
C 279.520729 751.204504 279.309997 750.69575 278.934943 750.320696 
C 278.559889 749.945642 278.051135 749.73491 277.520729 749.73491 
C 276.990323 749.73491 276.481569 749.945642 276.106516 750.320696 
C 275.731462 750.69575 275.520729 751.204504 275.520729 751.73491 
C 275.520729 752.265316 275.731462 752.77407 276.106516 753.149123 
C 276.481569 753.524177 276.990323 753.73491 277.520729 753.73491 
z
" clip-path="url(#pe37c0424fb)" style="fill: #fdcab5; stroke: #fdcab5; stroke-width: 3"/>
   </g>
   <g id="matplotlib.axis_7"/>
   <g id="matplotlib.axis_8"/>
  </g>
  <g id="axes_5">
   <g id="patch_6">
    <path d="M 45 961.2 
L 324 961.2 
L 324 817.82069 
L 45 817.82069 
z
" style="fill: #ffffff"/>
   </g>
   <g id="EdgeCollection_5">
    <path d="M 300.935339 889.297443 
C 325.933484 901.917158 325.933484 874.677728 300.935339 887.297443 
C 325.933484 874.677728 325.933484 901.917158 300.935339 889.297443 
" clip-path="url(#p9ab52f893d)" style="fill: #ffffff"/>
    <path d="M 298.160647 886.590721 
L 282.733936 861.338413 
" clip-path="url(#p9ab52f893d)" style="fill: #ffffff"/>
    <path d="M 297.589493 887.116059 
L 222.368848 832.05053 
" clip-path="url(#p9ab52f893d)" style="stroke: #000000; stroke-width: 1.156942"/>
    <path d="M 297.33773 887.576545 
L 152.454378 831.590044 
" clip-path="url(#p9ab52f893d)" style="fill: #ffffff"/>
    <path d="M 297.2325 887.956863 
L 95.793932 853.145385 
" clip-path="url(#p9ab52f893d)" style="fill: #ffffff"/>
    <path d="M 297.203288 888.297443 
L 82.140585 888.297443 
" clip-path="url(#p9ab52f893d)" style="fill: #ffffff"/>
    <path d="M 297.2325 888.638024 
L 103.677083 922.08718 
" clip-path="url(#p9ab52f893d)" style="fill: #ffffff"/>
    <path d="M 297.33773 889.018341 
L 159.91661 942.121251 
" clip-path="url(#p9ab52f893d)" style="fill: #ffffff"/>
    <path d="M 297.589493 889.478827 
L 228.824026 939.818821 
" clip-path="url(#p9ab52f893d)" style="fill: #ffffff"/>
    <path d="M 298.160647 890.004165 
L 278.563371 922.08336 
" clip-path="url(#p9ab52f893d)" style="fill: #ffffff"/>
    <path d="M 286.908876 849.360577 
C 305.1058 841.01227 284.194467 823.556535 279.232014 842.952317 
C 284.194467 823.556535 305.1058 841.01227 286.908876 849.360577 
" clip-path="url(#p9ab52f893d)" style="fill: #ffffff"/>
    <path d="M 268.192939 849.200316 
L 222.620611 831.590044 
" clip-path="url(#p9ab52f893d)" style="fill: #ffffff"/>
    <path d="M 267.66679 851.101902 
L 152.559607 831.209727 
" clip-path="url(#p9ab52f893d)" style="fill: #4d4d4d; stroke: #4d4d4d; stroke-width: 0.774648"/>
    <path d="M 267.520729 852.804804 
L 95.823144 852.804804 
" clip-path="url(#p9ab52f893d)" style="fill: #ffffff"/>
    <path d="M 267.66679 854.507706 
L 81.994525 886.594541 
" clip-path="url(#p9ab52f893d)" style="fill: #ffffff"/>
    <path d="M 268.192939 856.409292 
L 103.150934 920.185594 
" clip-path="url(#p9ab52f893d)" style="stroke: #000000; stroke-width: 2.756539"/>
    <path d="M 269.451757 858.711723 
L 158.657792 939.818821 
" clip-path="url(#p9ab52f893d)" style="stroke: #000000; stroke-width: 1.177062"/>
    <path d="M 272.307522 861.338413 
L 225.96826 937.192131 
" clip-path="url(#p9ab52f893d)" style="fill: #666666; stroke: #666666; stroke-width: 0.684105"/>
    <path d="M 277.520729 862.804804 
L 277.520729 921.790082 
" clip-path="url(#p9ab52f893d)" style="fill: #ffffff"/>
    <path d="M 222.055644 829.349784 
C 239.044421 807.088923 212.266669 802.095073 220.089542 828.983121 
C 212.266669 802.095073 239.044421 807.088923 222.055644 829.349784 
" clip-path="url(#p9ab52f893d)" style="fill: #ffffff"/>
    <path d="M 218.755054 830.869147 
L 152.58882 830.869147 
" clip-path="url(#p9ab52f893d)" style="fill: #ffffff"/>
    <path d="M 218.784266 831.209727 
L 95.793932 852.464224 
" clip-path="url(#p9ab52f893d)" style="fill: #ffffff"/>
    <path d="M 218.889496 831.590044 
L 81.468375 884.692955 
" clip-path="url(#p9ab52f893d)" style="fill: #ffffff"/>
    <path d="M 219.141259 832.05053 
L 101.892116 917.883164 
" clip-path="url(#p9ab52f893d)" style="fill: #ffffff"/>
    <path d="M 219.712412 832.575868 
L 155.802026 937.192131 
" clip-path="url(#p9ab52f893d)" style="fill: #ffffff"/>
    <path d="M 220.755054 832.869147 
L 220.755054 935.725739 
" clip-path="url(#p9ab52f893d)" style="fill: #ffffff"/>
    <path d="M 221.797695 832.575868 
L 276.478088 922.08336 
" clip-path="url(#p9ab52f893d)" style="fill: #ffffff"/>
    <path d="M 151.254331 828.983121 
C 159.077204 802.095073 132.299452 807.088923 149.288229 829.349784 
C 132.299452 807.088923 159.077204 802.095073 151.254331 828.983121 
" clip-path="url(#p9ab52f893d)" style="fill: #ffffff"/>
    <path d="M 148.723262 831.590044 
L 95.688702 852.083906 
" clip-path="url(#p9ab52f893d)" style="fill: #ffffff"/>
    <path d="M 148.975025 832.05053 
L 80.209557 882.390525 
" clip-path="url(#p9ab52f893d)" style="fill: #ffffff"/>
    <path d="M 149.546178 832.575868 
L 99.036351 915.256474 
" clip-path="url(#p9ab52f893d)" style="fill: #ffffff"/>
    <path d="M 150.58882 832.869147 
L 150.58882 935.725739 
" clip-path="url(#p9ab52f893d)" style="fill: #ffffff"/>
    <path d="M 151.631461 832.575868 
L 215.541847 937.192131 
" clip-path="url(#p9ab52f893d)" style="fill: #ffffff"/>
    <path d="M 152.202614 832.05053 
L 275.906935 922.608698 
" clip-path="url(#p9ab52f893d)" style="fill: #ffffff"/>
    <path d="M 93.480887 850.834307 
C 87.149406 823.556535 66.238073 841.01227 91.945515 852.115959 
C 66.238073 841.01227 87.149406 823.556535 93.480887 850.834307 
" clip-path="url(#p9ab52f893d)" style="fill: #ffffff"/>
    <path d="M 92.780502 854.511526 
L 77.353792 879.763835 
" clip-path="url(#p9ab52f893d)" style="stroke: #000000; stroke-width: 1.690141"/>
    <path d="M 93.823144 854.804804 
L 93.823144 913.790082 
" clip-path="url(#p9ab52f893d)" style="fill: #ffffff"/>
    <path d="M 94.865785 854.511526 
L 145.375613 937.192131 
" clip-path="url(#p9ab52f893d)" style="fill: #ffffff"/>
    <path d="M 95.436938 853.986188 
L 212.686081 939.818821 
" clip-path="url(#p9ab52f893d)" style="fill: #ffffff"/>
    <path d="M 95.688702 853.525702 
L 275.655171 923.069185 
" clip-path="url(#p9ab52f893d)" style="stroke: #000000; stroke-width: 1.177062"/>
    <path d="M 63.480331 883.297443 
C 45.410389 874.677728 45.410389 901.917158 63.480331 893.297443 
C 45.410389 901.917158 45.410389 874.677728 63.480331 883.297443 
" clip-path="url(#p9ab52f893d)" style="fill: #ffffff"/>
    <path d="M 77.353792 896.831052 
L 88.609937 915.256474 
" clip-path="url(#p9ab52f893d)" style="stroke: #000000; stroke-width: 2.072435"/>
    <path d="M 80.209557 894.204362 
L 142.519847 939.818821 
" clip-path="url(#p9ab52f893d)" style="fill: #ffffff"/>
    <path d="M 81.468375 891.901931 
L 211.427264 942.121251 
" clip-path="url(#p9ab52f893d)" style="stroke: #000000; stroke-width: 1.871227"/>
    <path d="M 81.994525 890.000345 
L 275.549941 923.449502 
" clip-path="url(#p9ab52f893d)" style="stroke: #000000; stroke-width: 2.203219"/>
    <path d="M 84.434997 927.234309 
C 66.238073 935.582616 87.149406 953.038351 92.111859 933.642569 
C 87.149406 953.038351 66.238073 935.582616 84.434997 927.234309 
" clip-path="url(#p9ab52f893d)" style="fill: #ffffff"/>
    <path d="M 103.150934 927.39457 
L 141.26103 942.121251 
" clip-path="url(#p9ab52f893d)" style="stroke: #000000; stroke-width: 5"/>
    <path d="M 103.677083 925.492984 
L 210.901114 944.022837 
" clip-path="url(#p9ab52f893d)" style="stroke: #000000; stroke-width: 2.042254"/>
    <path d="M 103.823144 923.790082 
L 275.520729 923.790082 
" clip-path="url(#p9ab52f893d)" style="fill: #ffffff"/>
    <path d="M 144.085865 953.322553 
C 132.299452 969.505963 159.077204 974.499813 153.916376 955.15587 
C 159.077204 974.499813 132.299452 969.505963 144.085865 953.322553 
" clip-path="url(#p9ab52f893d)" style="fill: #ffffff"/>
    <path d="M 160.58882 945.725739 
L 210.755054 945.725739 
" clip-path="url(#p9ab52f893d)" style="stroke: #000000; stroke-width: 1.338028"/>
    <path d="M 160.442759 944.022837 
L 275.549941 924.130663 
" clip-path="url(#p9ab52f893d)" style="stroke: #000000; stroke-width: 1.348089"/>
    <path d="M 217.427497 955.15587 
C 212.266669 974.499813 239.044421 969.505963 227.258008 953.322553 
C 239.044421 969.505963 212.266669 974.499813 217.427497 955.15587 
" clip-path="url(#p9ab52f893d)" style="fill: #ffffff"/>
    <path d="M 230.082843 942.121251 
L 275.655171 924.51098 
" clip-path="url(#p9ab52f893d)" style="fill: #ffffff"/>
    <path d="M 277.862986 925.76058 
C 284.194467 953.038351 305.1058 935.582616 279.398359 924.478928 
C 305.1058 935.582616 284.194467 953.038351 277.862986 925.76058 
" clip-path="url(#p9ab52f893d)" style="fill: #ffffff"/>
   </g>
   <g id="VertexCollection_5">
    <path d="M 299.203288 890.297443 
C 299.733694 890.297443 300.242448 890.086711 300.617501 889.711657 
C 300.992555 889.336603 301.203288 888.827849 301.203288 888.297443 
C 301.203288 887.767037 300.992555 887.258283 300.617501 886.88323 
C 300.242448 886.508176 299.733694 886.297443 299.203288 886.297443 
C 298.672882 886.297443 298.164128 886.508176 297.789074 886.88323 
C 297.414021 887.258283 297.203288 887.767037 297.203288 888.297443 
C 297.203288 888.827849 297.414021 889.336603 297.789074 889.711657 
C 298.164128 890.086711 298.672882 890.297443 299.203288 890.297443 
z
" clip-path="url(#p9ab52f893d)" style="fill: #fdcab5; stroke: #fdcab5; stroke-width: 3"/>
    <path d="M 277.520729 862.804804 
C 280.17276 862.804804 282.716528 861.751141 284.591797 859.875872 
C 286.467066 858.000603 287.520729 855.456835 287.520729 852.804804 
C 287.520729 850.152773 286.467066 847.609005 284.591797 845.733736 
C 282.716528 843.858467 280.17276 842.804804 277.520729 842.804804 
C 274.868698 842.804804 272.324931 843.858467 270.449661 845.733736 
C 268.574392 847.609005 267.520729 850.152773 267.520729 852.804804 
C 267.520729 855.456835 268.574392 858.000603 270.449661 859.875872 
C 272.324931 861.751141 274.868698 862.804804 277.520729 862.804804 
z
" clip-path="url(#p9ab52f893d)" style="fill: #6b010e; stroke: #6b010e; stroke-width: 3"/>
    <path d="M 220.755054 832.869147 
C 221.28546 832.869147 221.794213 832.658414 222.169267 832.28336 
C 222.544321 831.908307 222.755054 831.399553 222.755054 830.869147 
C 222.755054 830.338741 222.544321 829.829987 222.169267 829.454933 
C 221.794213 829.079879 221.28546 828.869147 220.755054 828.869147 
C 220.224647 828.869147 219.715894 829.079879 219.34084 829.454933 
C 218.965786 829.829987 218.755054 830.338741 218.755054 830.869147 
C 218.755054 831.399553 218.965786 831.908307 219.34084 832.28336 
C 219.715894 832.658414 220.224647 832.869147 220.755054 832.869147 
z
" clip-path="url(#p9ab52f893d)" style="fill: #fdcab5; stroke: #fdcab5; stroke-width: 3"/>
    <path d="M 150.58882 832.869147 
C 151.119226 832.869147 151.627979 832.658414 152.003033 832.28336 
C 152.378087 831.908307 152.58882 831.399553 152.58882 830.869147 
C 152.58882 830.338741 152.378087 829.829987 152.003033 829.454933 
C 151.627979 829.079879 151.119226 828.869147 150.58882 828.869147 
C 150.058413 828.869147 149.54966 829.079879 149.174606 829.454933 
C 148.799552 829.829987 148.58882 830.338741 148.58882 830.869147 
C 148.58882 831.399553 148.799552 831.908307 149.174606 832.28336 
C 149.54966 832.658414 150.058413 832.869147 150.58882 832.869147 
z
" clip-path="url(#p9ab52f893d)" style="fill: #fdcab5; stroke: #fdcab5; stroke-width: 3"/>
    <path d="M 93.823144 854.804804 
C 94.35355 854.804804 94.862304 854.594071 95.237357 854.219018 
C 95.612411 853.843964 95.823144 853.33521 95.823144 852.804804 
C 95.823144 852.274398 95.612411 851.765644 95.237357 851.390591 
C 94.862304 851.015537 94.35355 850.804804 93.823144 850.804804 
C 93.292738 850.804804 92.783984 851.015537 92.40893 851.390591 
C 92.033876 851.765644 91.823144 852.274398 91.823144 852.804804 
C 91.823144 853.33521 92.033876 853.843964 92.40893 854.219018 
C 92.783984 854.594071 93.292738 854.804804 93.823144 854.804804 
z
" clip-path="url(#p9ab52f893d)" style="fill: #fdcab5; stroke: #fdcab5; stroke-width: 3"/>
    <path d="M 72.140585 898.297443 
C 74.792616 898.297443 77.336384 897.24378 79.211653 895.368511 
C 81.086922 893.493242 82.140585 890.949474 82.140585 888.297443 
C 82.140585 885.645412 81.086922 883.101644 79.211653 881.226375 
C 77.336384 879.351106 74.792616 878.297443 72.140585 878.297443 
C 69.488554 878.297443 66.944786 879.351106 65.069517 881.226375 
C 63.194248 883.101644 62.140585 885.645412 62.140585 888.297443 
C 62.140585 890.949474 63.194248 893.493242 65.069517 895.368511 
C 66.944786 897.24378 69.488554 898.297443 72.140585 898.297443 
z
" clip-path="url(#p9ab52f893d)" style="fill: #6b010e; stroke: #6b010e; stroke-width: 3"/>
    <path d="M 93.823144 933.790082 
C 96.475175 933.790082 99.018943 932.736419 100.894212 930.86115 
C 102.769481 928.985881 103.823144 926.442113 103.823144 923.790082 
C 103.823144 921.138051 102.769481 918.594283 100.894212 916.719014 
C 99.018943 914.843745 96.475175 913.790082 93.823144 913.790082 
C 91.171113 913.790082 88.627345 914.843745 86.752076 916.719014 
C 84.876807 918.594283 83.823144 921.138051 83.823144 923.790082 
C 83.823144 926.442113 84.876807 928.985881 86.752076 930.86115 
C 88.627345 932.736419 91.171113 933.790082 93.823144 933.790082 
z
" clip-path="url(#p9ab52f893d)" style="fill: #6b010e; stroke: #6b010e; stroke-width: 3"/>
    <path d="M 150.58882 955.725739 
C 153.240851 955.725739 155.784618 954.672076 157.659887 952.796807 
C 159.535156 950.921538 160.58882 948.37777 160.58882 945.725739 
C 160.58882 943.073708 159.535156 940.529941 157.659887 938.654672 
C 155.784618 936.779403 153.240851 935.725739 150.58882 935.725739 
C 147.936789 935.725739 145.393021 936.779403 143.517752 938.654672 
C 141.642483 940.529941 140.58882 943.073708 140.58882 945.725739 
C 140.58882 948.37777 141.642483 950.921538 143.517752 952.796807 
C 145.393021 954.672076 147.936789 955.725739 150.58882 955.725739 
z
" clip-path="url(#p9ab52f893d)" style="fill: #6b010e; stroke: #6b010e; stroke-width: 3"/>
    <path d="M 220.755054 955.725739 
C 223.407085 955.725739 225.950852 954.672076 227.826121 952.796807 
C 229.70139 950.921538 230.755054 948.37777 230.755054 945.725739 
C 230.755054 943.073708 229.70139 940.529941 227.826121 938.654672 
C 225.950852 936.779403 223.407085 935.725739 220.755054 935.725739 
C 218.103023 935.725739 215.559255 936.779403 213.683986 938.654672 
C 211.808717 940.529941 210.755054 943.073708 210.755054 945.725739 
C 210.755054 948.37777 211.808717 950.921538 213.683986 952.796807 
C 215.559255 954.672076 218.103023 955.725739 220.755054 955.725739 
z
" clip-path="url(#p9ab52f893d)" style="fill: #6b010e; stroke: #6b010e; stroke-width: 3"/>
    <path d="M 277.520729 925.790082 
C 278.051135 925.790082 278.559889 925.57935 278.934943 925.204296 
C 279.309997 924.829242 279.520729 924.320488 279.520729 923.790082 
C 279.520729 923.259676 279.309997 922.750922 278.934943 922.375869 
C 278.559889 922.000815 278.051135 921.790082 277.520729 921.790082 
C 276.990323 921.790082 276.481569 922.000815 276.106516 922.375869 
C 275.731462 922.750922 275.520729 923.259676 275.520729 923.790082 
C 275.520729 924.320488 275.731462 924.829242 276.106516 925.204296 
C 276.481569 925.57935 276.990323 925.790082 277.520729 925.790082 
z
" clip-path="url(#p9ab52f893d)" style="fill: #fdcab5; stroke: #fdcab5; stroke-width: 3"/>
   </g>
   <g id="matplotlib.axis_9"/>
   <g id="matplotlib.axis_10"/>
  </g>
  <g id="text_1">
   <!-- G10 -->
   <g transform="translate(167.715937 30.718125) scale(0.12 -0.12)">
    <defs>
     <path id="DejaVuSans-47" d="M 3809 666 
L 3809 1919 
L 2778 1919 
L 2778 2438 
L 4434 2438 
L 4434 434 
Q 4069 175 3628 42 
Q 3188 -91 2688 -91 
Q 1594 -91 976 548 
Q 359 1188 359 2328 
Q 359 3472 976 4111 
Q 1594 4750 2688 4750 
Q 3144 4750 3555 4637 
Q 3966 4525 4313 4306 
L 4313 3634 
Q 3963 3931 3569 4081 
Q 3175 4231 2741 4231 
Q 1884 4231 1454 3753 
Q 1025 3275 1025 2328 
Q 1025 1384 1454 906 
Q 1884 428 2741 428 
Q 3075 428 3337 486 
Q 3600 544 3809 666 
z
" transform="scale(0.015625)"/>
     <path id="DejaVuSans-31" d="M 794 531 
L 1825 531 
L 1825 4091 
L 703 3866 
L 703 4441 
L 1819 4666 
L 2450 4666 
L 2450 531 
L 3481 531 
L 3481 0 
L 794 0 
L 794 531 
z
" transform="scale(0.015625)"/>
     <path id="DejaVuSans-30" d="M 2034 4250 
Q 1547 4250 1301 3770 
Q 1056 3291 1056 2328 
Q 1056 1369 1301 889 
Q 1547 409 2034 409 
Q 2525 409 2770 889 
Q 3016 1369 3016 2328 
Q 3016 3291 2770 3770 
Q 2525 4250 2034 4250 
z
M 2034 4750 
Q 2819 4750 3233 4129 
Q 3647 3509 3647 2328 
Q 3647 1150 3233 529 
Q 2819 -91 2034 -91 
Q 1250 -91 836 529 
Q 422 1150 422 2328 
Q 422 3509 836 4129 
Q 1250 4750 2034 4750 
z
" transform="scale(0.015625)"/>
    </defs>
    <use xlink:href="#DejaVuSans-47"/>
    <use xlink:href="#DejaVuSans-31" x="77.490234"/>
    <use xlink:href="#DejaVuSans-30" x="141.113281"/>
   </g>
  </g>
 </g>
 <defs>
  <clipPath id="p22b9be1991">
   <rect x="45" y="129.6" width="279" height="143.37931"/>
  </clipPath>
  <clipPath id="p2658bf7e57">
   <rect x="45" y="301.655172" width="279" height="143.37931"/>
  </clipPath>
  <clipPath id="p806690b260">
   <rect x="45" y="473.710345" width="279" height="143.37931"/>
  </clipPath>
  <clipPath id="pe37c0424fb">
   <rect x="45" y="645.765517" width="279" height="143.37931"/>
  </clipPath>
  <clipPath id="p9ab52f893d">
   <rect x="45" y="817.82069" width="279" height="143.37931"/>
  </clipPath>
 </defs>
</svg>
