<?xml version="1.0" encoding="utf-8" standalone="no"?>
<!DOCTYPE svg PUBLIC "-//W3C//DTD SVG 1.1//EN"
  "http://www.w3.org/Graphics/SVG/1.1/DTD/svg11.dtd">
<svg xmlns:xlink="http://www.w3.org/1999/xlink" width="360pt" height="1080pt" viewBox="0 0 360 1080" xmlns="http://www.w3.org/2000/svg" version="1.1">
 <metadata>
  <rdf:RDF xmlns:dc="http://purl.org/dc/elements/1.1/" xmlns:cc="http://creativecommons.org/ns#" xmlns:rdf="http://www.w3.org/1999/02/22-rdf-syntax-ns#">
   <cc:Work>
    <dc:type rdf:resource="http://purl.org/dc/dcmitype/StillImage"/>
    <dc:date>2025-03-10T09:44:46.748255</dc:date>
    <dc:format>image/svg+xml</dc:format>
    <dc:creator>
     <cc:Agent>
      <dc:title>Matplotlib v3.9.2, https://matplotlib.org/</dc:title>
     </cc:Agent>
    </dc:creator>
   </cc:Work>
  </rdf:RDF>
 </metadata>
 <defs>
  <style type="text/css">*{stroke-linejoin: round; stroke-linecap: butt}</style>
 </defs>
 <g id="figure_1">
  <g id="patch_1">
   <path d="M 0 1080 
L 360 1080 
L 360 0 
L 0 0 
z
" style="fill: #ffffff"/>
  </g>
  <g id="axes_1">
   <g id="patch_2">
    <path d="M 45 272.97931 
L 324 272.97931 
L 324 129.6 
L 45 129.6 
z
" style="fill: #ffffff"/>
   </g>
   <g id="EdgeCollection_1">
    <path d="M 300.929321 201.076753 
C 325.927466 213.696468 325.927466 186.457038 300.929321 199.076753 
C 325.927466 186.457038 325.927466 213.696468 300.929321 201.076753 
" clip-path="url(#p83ef85d799)" style="fill: #ffffff"/>
    <path d="M 298.146864 198.3748 
L 278.342447 166.286068 
" clip-path="url(#p83ef85d799)" style="fill: #ffffff"/>
    <path d="M 297.577751 198.90323 
L 221.562925 143.82198 
" clip-path="url(#p83ef85d799)" style="stroke: #000000; stroke-width: 2.456647"/>
    <path d="M 297.329256 199.362244 
L 150.924608 143.362966 
" clip-path="url(#p83ef85d799)" style="fill: #ffffff"/>
    <path d="M 297.225904 199.739536 
L 93.679325 164.921332 
" clip-path="url(#p83ef85d799)" style="fill: #ffffff"/>
    <path d="M 297.19727 200.076753 
L 71.80273 200.076753 
" clip-path="url(#p83ef85d799)" style="fill: #ffffff"/>
    <path d="M 297.225904 200.413971 
L 93.679325 235.232175 
" clip-path="url(#p83ef85d799)" style="fill: #ffffff"/>
    <path d="M 297.329256 200.791263 
L 158.396665 253.932505 
" clip-path="url(#p83ef85d799)" style="fill: #ffffff"/>
    <path d="M 297.577751 201.250277 
L 228.041003 251.637434 
" clip-path="url(#p83ef85d799)" style="stroke: #000000; stroke-width: 2.861272"/>
    <path d="M 298.146864 201.778707 
L 278.342447 233.867439 
" clip-path="url(#p83ef85d799)" style="fill: #ffffff"/>
    <path d="M 279.166907 163.887784 
C 304.829851 152.681636 283.849052 135.309456 277.626435 162.612267 
C 283.849052 135.309456 304.829851 152.681636 279.166907 163.887784 
" clip-path="url(#p83ef85d799)" style="fill: #ffffff"/>
    <path d="M 275.424027 163.869605 
L 221.81142 143.362966 
" clip-path="url(#p83ef85d799)" style="fill: #ffffff"/>
    <path d="M 275.320675 164.246897 
L 151.02796 142.985674 
" clip-path="url(#p83ef85d799)" style="fill: #ffffff"/>
    <path d="M 275.292041 164.584114 
L 93.707959 164.584114 
" clip-path="url(#p83ef85d799)" style="fill: #ffffff"/>
    <path d="M 275.320675 164.921332 
L 71.774096 199.739536 
" clip-path="url(#p83ef85d799)" style="fill: #ffffff"/>
    <path d="M 275.424027 165.298623 
L 93.575973 234.854883 
" clip-path="url(#p83ef85d799)" style="fill: #ffffff"/>
    <path d="M 275.672521 165.757638 
L 157.154192 251.637434 
" clip-path="url(#p83ef85d799)" style="fill: #ffffff"/>
    <path d="M 276.241635 166.286068 
L 225.195437 248.995281 
" clip-path="url(#p83ef85d799)" style="fill: #ffffff"/>
    <path d="M 277.292041 166.584114 
L 277.292041 233.569393 
" clip-path="url(#p83ef85d799)" style="fill: #ffffff"/>
    <path d="M 221.241395 141.126871 
C 238.192056 118.836973 211.405798 113.88895 219.274668 140.763572 
C 211.405798 113.88895 238.192056 118.836973 221.241395 141.126871 
" clip-path="url(#p83ef85d799)" style="fill: #ffffff"/>
    <path d="M 217.943406 142.648457 
L 151.056594 142.648457 
" clip-path="url(#p83ef85d799)" style="fill: #181818; stroke: #181818; stroke-width: 0.924855"/>
    <path d="M 217.97204 142.985674 
L 93.679325 164.246897 
" clip-path="url(#p83ef85d799)" style="fill: #ffffff"/>
    <path d="M 218.075392 143.362966 
L 71.670744 199.362244 
" clip-path="url(#p83ef85d799)" style="fill: #ffffff"/>
    <path d="M 218.323886 143.82198 
L 93.327479 234.395869 
" clip-path="url(#p83ef85d799)" style="fill: #ffffff"/>
    <path d="M 218.893 144.350411 
L 154.308625 248.995281 
" clip-path="url(#p83ef85d799)" style="fill: #ffffff"/>
    <path d="M 219.943406 144.648457 
L 219.943406 247.50505 
" clip-path="url(#p83ef85d799)" style="fill: #ffffff"/>
    <path d="M 220.993812 144.350411 
L 276.241635 233.867439 
" clip-path="url(#p83ef85d799)" style="fill: #ffffff"/>
    <path d="M 149.725332 140.763572 
C 157.594202 113.88895 130.807944 118.836973 147.758605 141.126871 
C 130.807944 118.836973 157.594202 113.88895 149.725332 140.763572 
" clip-path="url(#p83ef85d799)" style="fill: #ffffff"/>
    <path d="M 147.18858 143.362966 
L 93.575973 163.869605 
" clip-path="url(#p83ef85d799)" style="fill: #ffffff"/>
    <path d="M 147.437075 143.82198 
L 71.422249 198.90323 
" clip-path="url(#p83ef85d799)" style="fill: #ffffff"/>
    <path d="M 148.006188 144.350411 
L 92.758365 233.867439 
" clip-path="url(#p83ef85d799)" style="fill: #ffffff"/>
    <path d="M 149.056594 144.648457 
L 149.056594 247.50505 
" clip-path="url(#p83ef85d799)" style="fill: #ffffff"/>
    <path d="M 150.107 144.350411 
L 214.691375 248.995281 
" clip-path="url(#p83ef85d799)" style="fill: #ffffff"/>
    <path d="M 150.676114 143.82198 
L 275.672521 234.395869 
" clip-path="url(#p83ef85d799)" style="fill: #ffffff"/>
    <path d="M 91.373565 162.612267 
C 85.150948 135.309456 64.170149 152.681636 89.833093 163.887784 
C 64.170149 152.681636 85.150948 135.309456 91.373565 162.612267 
" clip-path="url(#p83ef85d799)" style="fill: #ffffff"/>
    <path d="M 90.657553 166.286068 
L 70.853136 198.3748 
" clip-path="url(#p83ef85d799)" style="fill: #ffffff"/>
    <path d="M 91.707959 166.584114 
L 91.707959 233.569393 
" clip-path="url(#p83ef85d799)" style="fill: #ffffff"/>
    <path d="M 92.758365 166.286068 
L 143.804563 248.995281 
" clip-path="url(#p83ef85d799)" style="fill: #ffffff"/>
    <path d="M 93.327479 165.757638 
L 211.845808 251.637434 
" clip-path="url(#p83ef85d799)" style="fill: #ffffff"/>
    <path d="M 93.575973 165.298623 
L 275.424027 234.854883 
" clip-path="url(#p83ef85d799)" style="fill: #ffffff"/>
    <path d="M 68.070679 199.076753 
C 43.072534 186.457038 43.072534 213.696468 68.070679 201.076753 
C 43.072534 213.696468 43.072534 186.457038 68.070679 199.076753 
" clip-path="url(#p83ef85d799)" style="fill: #ffffff"/>
    <path d="M 70.853136 201.778707 
L 90.657553 233.867439 
" clip-path="url(#p83ef85d799)" style="fill: #ffffff"/>
    <path d="M 71.422249 201.250277 
L 140.958997 251.637434 
" clip-path="url(#p83ef85d799)" style="stroke: #000000; stroke-width: 2.543353"/>
    <path d="M 71.670744 200.791263 
L 210.603335 253.932505 
" clip-path="url(#p83ef85d799)" style="fill: #ffffff"/>
    <path d="M 71.774096 200.413971 
L 275.320675 235.232175 
" clip-path="url(#p83ef85d799)" style="fill: #ffffff"/>
    <path d="M 89.833093 236.265722 
C 64.170149 247.471871 85.150948 264.844051 91.373565 237.54124 
C 85.150948 264.844051 64.170149 247.471871 89.833093 236.265722 
" clip-path="url(#p83ef85d799)" style="fill: #ffffff"/>
    <path d="M 93.575973 236.283902 
L 139.716524 253.932505 
" clip-path="url(#p83ef85d799)" style="stroke: #000000; stroke-width: 5"/>
    <path d="M 93.679325 235.90661 
L 210.086575 255.818963 
" clip-path="url(#p83ef85d799)" style="stroke: #000000; stroke-width: 2.514451"/>
    <path d="M 93.707959 235.569393 
L 275.292041 235.569393 
" clip-path="url(#p83ef85d799)" style="fill: #ffffff"/>
    <path d="M 142.566648 265.11298 
C 130.807944 281.316534 157.594202 286.264557 152.400282 266.929473 
C 157.594202 286.264557 130.807944 281.316534 142.566648 265.11298 
" clip-path="url(#p83ef85d799)" style="fill: #ffffff"/>
    <path d="M 159.056594 257.50505 
L 209.943406 257.50505 
" clip-path="url(#p83ef85d799)" style="stroke: #000000; stroke-width: 4.927746"/>
    <path d="M 158.913425 255.818963 
L 275.320675 235.90661 
" clip-path="url(#p83ef85d799)" style="fill: #ffffff"/>
    <path d="M 216.599718 266.929473 
C 211.405798 286.264557 238.192056 281.316534 226.433352 265.11298 
C 238.192056 281.316534 211.405798 286.264557 216.599718 266.929473 
" clip-path="url(#p83ef85d799)" style="fill: #ffffff"/>
    <path d="M 229.283476 253.932505 
L 275.424027 236.283902 
" clip-path="url(#p83ef85d799)" style="fill: #ffffff"/>
    <path d="M 277.626435 237.54124 
C 283.849052 264.844051 304.829851 247.471871 279.166907 236.265722 
C 304.829851 247.471871 283.849052 264.844051 277.626435 237.54124 
" clip-path="url(#p83ef85d799)" style="fill: #ffffff"/>
   </g>
   <g id="VertexCollection_1">
    <path d="M 299.19727 202.076753 
C 299.727676 202.076753 300.23643 201.866021 300.611484 201.490967 
C 300.986538 201.115913 301.19727 200.60716 301.19727 200.076753 
C 301.19727 199.546347 300.986538 199.037594 300.611484 198.66254 
C 300.23643 198.287486 299.727676 198.076753 299.19727 198.076753 
C 298.666864 198.076753 298.158111 198.287486 297.783057 198.66254 
C 297.408003 199.037594 297.19727 199.546347 297.19727 200.076753 
C 297.19727 200.60716 297.408003 201.115913 297.783057 201.490967 
C 298.158111 201.866021 298.666864 202.076753 299.19727 202.076753 
z
" clip-path="url(#p83ef85d799)" style="fill: #fdcab5; stroke: #fdcab5; stroke-width: 3"/>
    <path d="M 277.292041 166.584114 
C 277.822447 166.584114 278.331201 166.373382 278.706254 165.998328 
C 279.081308 165.623274 279.292041 165.114521 279.292041 164.584114 
C 279.292041 164.053708 279.081308 163.544955 278.706254 163.169901 
C 278.331201 162.794847 277.822447 162.584114 277.292041 162.584114 
C 276.761635 162.584114 276.252881 162.794847 275.877827 163.169901 
C 275.502773 163.544955 275.292041 164.053708 275.292041 164.584114 
C 275.292041 165.114521 275.502773 165.623274 275.877827 165.998328 
C 276.252881 166.373382 276.761635 166.584114 277.292041 166.584114 
z
" clip-path="url(#p83ef85d799)" style="fill: #fdcab5; stroke: #fdcab5; stroke-width: 3"/>
    <path d="M 219.943406 144.648457 
C 220.473812 144.648457 220.982565 144.437725 221.357619 144.062671 
C 221.732673 143.687617 221.943406 143.178863 221.943406 142.648457 
C 221.943406 142.118051 221.732673 141.609297 221.357619 141.234244 
C 220.982565 140.85919 220.473812 140.648457 219.943406 140.648457 
C 219.413 140.648457 218.904246 140.85919 218.529192 141.234244 
C 218.154138 141.609297 217.943406 142.118051 217.943406 142.648457 
C 217.943406 143.178863 218.154138 143.687617 218.529192 144.062671 
C 218.904246 144.437725 219.413 144.648457 219.943406 144.648457 
z
" clip-path="url(#p83ef85d799)" style="fill: #fdcab5; stroke: #fdcab5; stroke-width: 3"/>
    <path d="M 149.056594 144.648457 
C 149.587 144.648457 150.095754 144.437725 150.470808 144.062671 
C 150.845862 143.687617 151.056594 143.178863 151.056594 142.648457 
C 151.056594 142.118051 150.845862 141.609297 150.470808 141.234244 
C 150.095754 140.85919 149.587 140.648457 149.056594 140.648457 
C 148.526188 140.648457 148.017435 140.85919 147.642381 141.234244 
C 147.267327 141.609297 147.056594 142.118051 147.056594 142.648457 
C 147.056594 143.178863 147.267327 143.687617 147.642381 144.062671 
C 148.017435 144.437725 148.526188 144.648457 149.056594 144.648457 
z
" clip-path="url(#p83ef85d799)" style="fill: #fdcab5; stroke: #fdcab5; stroke-width: 3"/>
    <path d="M 91.707959 166.584114 
C 92.238365 166.584114 92.747119 166.373382 93.122173 165.998328 
C 93.497227 165.623274 93.707959 165.114521 93.707959 164.584114 
C 93.707959 164.053708 93.497227 163.544955 93.122173 163.169901 
C 92.747119 162.794847 92.238365 162.584114 91.707959 162.584114 
C 91.177553 162.584114 90.668799 162.794847 90.293746 163.169901 
C 89.918692 163.544955 89.707959 164.053708 89.707959 164.584114 
C 89.707959 165.114521 89.918692 165.623274 90.293746 165.998328 
C 90.668799 166.373382 91.177553 166.584114 91.707959 166.584114 
z
" clip-path="url(#p83ef85d799)" style="fill: #fdcab5; stroke: #fdcab5; stroke-width: 3"/>
    <path d="M 69.80273 202.076753 
C 70.333136 202.076753 70.841889 201.866021 71.216943 201.490967 
C 71.591997 201.115913 71.80273 200.60716 71.80273 200.076753 
C 71.80273 199.546347 71.591997 199.037594 71.216943 198.66254 
C 70.841889 198.287486 70.333136 198.076753 69.80273 198.076753 
C 69.272324 198.076753 68.76357 198.287486 68.388516 198.66254 
C 68.013462 199.037594 67.80273 199.546347 67.80273 200.076753 
C 67.80273 200.60716 68.013462 201.115913 68.388516 201.490967 
C 68.76357 201.866021 69.272324 202.076753 69.80273 202.076753 
z
" clip-path="url(#p83ef85d799)" style="fill: #fdcab5; stroke: #fdcab5; stroke-width: 3"/>
    <path d="M 91.707959 237.569393 
C 92.238365 237.569393 92.747119 237.35866 93.122173 236.983606 
C 93.497227 236.608552 93.707959 236.099799 93.707959 235.569393 
C 93.707959 235.038986 93.497227 234.530233 93.122173 234.155179 
C 92.747119 233.780125 92.238365 233.569393 91.707959 233.569393 
C 91.177553 233.569393 90.668799 233.780125 90.293746 234.155179 
C 89.918692 234.530233 89.707959 235.038986 89.707959 235.569393 
C 89.707959 236.099799 89.918692 236.608552 90.293746 236.983606 
C 90.668799 237.35866 91.177553 237.569393 91.707959 237.569393 
z
" clip-path="url(#p83ef85d799)" style="fill: #fdcab5; stroke: #fdcab5; stroke-width: 3"/>
    <path d="M 149.056594 267.50505 
C 151.708625 267.50505 154.252393 266.451387 156.127662 264.576118 
C 158.002931 262.700849 159.056594 260.157081 159.056594 257.50505 
C 159.056594 254.853019 158.002931 252.309251 156.127662 250.433982 
C 154.252393 248.558713 151.708625 247.50505 149.056594 247.50505 
C 146.404563 247.50505 143.860796 248.558713 141.985526 250.433982 
C 140.110257 252.309251 139.056594 254.853019 139.056594 257.50505 
C 139.056594 260.157081 140.110257 262.700849 141.985526 264.576118 
C 143.860796 266.451387 146.404563 267.50505 149.056594 267.50505 
z
" clip-path="url(#p83ef85d799)" style="fill: #6b010e; stroke: #6b010e; stroke-width: 3"/>
    <path d="M 219.943406 267.50505 
C 222.595437 267.50505 225.139204 266.451387 227.014474 264.576118 
C 228.889743 262.700849 229.943406 260.157081 229.943406 257.50505 
C 229.943406 254.853019 228.889743 252.309251 227.014474 250.433982 
C 225.139204 248.558713 222.595437 247.50505 219.943406 247.50505 
C 217.291375 247.50505 214.747607 248.558713 212.872338 250.433982 
C 210.997069 252.309251 209.943406 254.853019 209.943406 257.50505 
C 209.943406 260.157081 210.997069 262.700849 212.872338 264.576118 
C 214.747607 266.451387 217.291375 267.50505 219.943406 267.50505 
z
" clip-path="url(#p83ef85d799)" style="fill: #6b010e; stroke: #6b010e; stroke-width: 3"/>
    <path d="M 277.292041 237.569393 
C 277.822447 237.569393 278.331201 237.35866 278.706254 236.983606 
C 279.081308 236.608552 279.292041 236.099799 279.292041 235.569393 
C 279.292041 235.038986 279.081308 234.530233 278.706254 234.155179 
C 278.331201 233.780125 277.822447 233.569393 277.292041 233.569393 
C 276.761635 233.569393 276.252881 233.780125 275.877827 234.155179 
C 275.502773 234.530233 275.292041 235.038986 275.292041 235.569393 
C 275.292041 236.099799 275.502773 236.608552 275.877827 236.983606 
C 276.252881 237.35866 276.761635 237.569393 277.292041 237.569393 
z
" clip-path="url(#p83ef85d799)" style="fill: #fdcab5; stroke: #fdcab5; stroke-width: 3"/>
   </g>
   <g id="matplotlib.axis_1"/>
   <g id="matplotlib.axis_2"/>
  </g>
  <g id="axes_2">
   <g id="patch_3">
    <path d="M 45 445.034483 
L 324 445.034483 
L 324 301.655172 
L 45 301.655172 
z
" style="fill: #ffffff"/>
   </g>
   <g id="EdgeCollection_2">
    <path d="M 305.519669 377.131926 
C 323.589611 385.751641 323.589611 358.512211 305.519669 367.131926 
C 323.589611 358.512211 323.589611 385.751641 305.519669 377.131926 
" clip-path="url(#p5298e669f5)" style="fill: #ffffff"/>
    <path d="M 291.646208 363.598317 
L 276.219498 338.346009 
" clip-path="url(#p5298e669f5)" style="fill: #ffffff"/>
    <path d="M 288.790443 366.225007 
L 220.024975 315.885013 
" clip-path="url(#p5298e669f5)" style="stroke: #000000; stroke-width: 2.161804"/>
    <path d="M 287.531625 368.527438 
L 150.110504 315.424527 
" clip-path="url(#p5298e669f5)" style="fill: #ffffff"/>
    <path d="M 287.005475 370.429024 
L 93.450059 336.979867 
" clip-path="url(#p5298e669f5)" style="fill: #ffffff"/>
    <path d="M 286.859415 372.131926 
L 71.796712 372.131926 
" clip-path="url(#p5298e669f5)" style="fill: #ffffff"/>
    <path d="M 287.005475 373.834828 
L 101.33321 405.921663 
" clip-path="url(#p5298e669f5)" style="stroke: #000000; stroke-width: 2.228117"/>
    <path d="M 287.531625 375.736414 
L 157.572736 425.955734 
" clip-path="url(#p5298e669f5)" style="fill: #ffffff"/>
    <path d="M 288.790443 378.038844 
L 226.480153 423.653304 
" clip-path="url(#p5298e669f5)" style="stroke: #000000; stroke-width: 1.419098"/>
    <path d="M 291.646208 380.665534 
L 276.219498 405.917843 
" clip-path="url(#p5298e669f5)" style="fill: #ffffff"/>
    <path d="M 277.054485 335.950441 
C 302.761927 324.846753 281.850594 307.391018 275.519113 334.668789 
C 281.850594 307.391018 302.761927 324.846753 277.054485 335.950441 
" clip-path="url(#p5298e669f5)" style="fill: #ffffff"/>
    <path d="M 273.311298 335.918389 
L 220.276738 315.424527 
" clip-path="url(#p5298e669f5)" style="fill: #ffffff"/>
    <path d="M 273.206068 336.298706 
L 150.215734 315.04421 
" clip-path="url(#p5298e669f5)" style="fill: #282828; stroke: #282828; stroke-width: 0.875332"/>
    <path d="M 273.176856 336.639287 
L 93.479271 336.639287 
" clip-path="url(#p5298e669f5)" style="fill: #ffffff"/>
    <path d="M 273.206068 336.979867 
L 71.7675 371.791345 
" clip-path="url(#p5298e669f5)" style="fill: #ffffff"/>
    <path d="M 273.311298 337.360184 
L 100.807061 404.020077 
" clip-path="url(#p5298e669f5)" style="fill: #ffffff"/>
    <path d="M 273.563062 337.820671 
L 156.313919 423.653304 
" clip-path="url(#p5298e669f5)" style="fill: #ffffff"/>
    <path d="M 274.134215 338.346009 
L 223.624387 421.026614 
" clip-path="url(#p5298e669f5)" style="fill: #ffffff"/>
    <path d="M 275.176856 338.639287 
L 275.176856 405.624565 
" clip-path="url(#p5298e669f5)" style="fill: #ffffff"/>
    <path d="M 219.711771 313.184267 
C 236.700548 290.923406 209.922796 285.929556 217.745669 312.817603 
C 209.922796 285.929556 236.700548 290.923406 219.711771 313.184267 
" clip-path="url(#p5298e669f5)" style="fill: #ffffff"/>
    <path d="M 216.41118 314.70363 
L 150.244946 314.70363 
" clip-path="url(#p5298e669f5)" style="fill: #2c2c2c; stroke: #2c2c2c; stroke-width: 0.862069"/>
    <path d="M 216.440393 315.04421 
L 93.450059 336.298706 
" clip-path="url(#p5298e669f5)" style="fill: #ffffff"/>
    <path d="M 216.545622 315.424527 
L 71.66227 371.411028 
" clip-path="url(#p5298e669f5)" style="fill: #ffffff"/>
    <path d="M 216.797386 315.885013 
L 99.548243 401.717646 
" clip-path="url(#p5298e669f5)" style="fill: #ffffff"/>
    <path d="M 217.368539 316.410351 
L 153.458153 421.026614 
" clip-path="url(#p5298e669f5)" style="fill: #ffffff"/>
    <path d="M 218.41118 316.70363 
L 218.41118 419.560222 
" clip-path="url(#p5298e669f5)" style="fill: #ffffff"/>
    <path d="M 219.453822 316.410351 
L 274.134215 405.917843 
" clip-path="url(#p5298e669f5)" style="fill: #ffffff"/>
    <path d="M 148.910458 312.817603 
C 156.733331 285.929556 129.955579 290.923406 146.944356 313.184267 
C 129.955579 290.923406 156.733331 285.929556 148.910458 312.817603 
" clip-path="url(#p5298e669f5)" style="fill: #ffffff"/>
    <path d="M 146.379389 315.424527 
L 93.344829 335.918389 
" clip-path="url(#p5298e669f5)" style="fill: #ffffff"/>
    <path d="M 146.631152 315.885013 
L 71.410507 370.950542 
" clip-path="url(#p5298e669f5)" style="fill: #ffffff"/>
    <path d="M 147.202305 316.410351 
L 96.692478 399.090956 
" clip-path="url(#p5298e669f5)" style="fill: #ffffff"/>
    <path d="M 148.244946 316.70363 
L 148.244946 419.560222 
" clip-path="url(#p5298e669f5)" style="fill: #ffffff"/>
    <path d="M 149.287588 316.410351 
L 213.197974 421.026614 
" clip-path="url(#p5298e669f5)" style="fill: #ffffff"/>
    <path d="M 149.858741 315.885013 
L 273.563062 406.443181 
" clip-path="url(#p5298e669f5)" style="fill: #ffffff"/>
    <path d="M 91.137014 334.668789 
C 84.805533 307.391018 63.8942 324.846753 89.601641 335.950441 
C 63.8942 324.846753 84.805533 307.391018 91.137014 334.668789 
" clip-path="url(#p5298e669f5)" style="fill: #ffffff"/>
    <path d="M 90.436629 338.346009 
L 70.839353 370.425204 
" clip-path="url(#p5298e669f5)" style="fill: #ffffff"/>
    <path d="M 91.479271 338.639287 
L 91.479271 397.624565 
" clip-path="url(#p5298e669f5)" style="fill: #ffffff"/>
    <path d="M 92.521912 338.346009 
L 143.03174 421.026614 
" clip-path="url(#p5298e669f5)" style="fill: #ffffff"/>
    <path d="M 93.093065 337.820671 
L 210.342208 423.653304 
" clip-path="url(#p5298e669f5)" style="fill: #ffffff"/>
    <path d="M 93.344829 337.360184 
L 273.311298 406.903667 
" clip-path="url(#p5298e669f5)" style="fill: #ffffff"/>
    <path d="M 68.064661 371.131926 
C 43.066516 358.512211 43.066516 385.751641 68.064661 373.131926 
C 43.066516 385.751641 43.066516 358.512211 68.064661 371.131926 
" clip-path="url(#p5298e669f5)" style="fill: #ffffff"/>
    <path d="M 70.839353 373.838648 
L 86.266064 399.090956 
" clip-path="url(#p5298e669f5)" style="fill: #ffffff"/>
    <path d="M 71.410507 373.31331 
L 140.175974 423.653304 
" clip-path="url(#p5298e669f5)" style="fill: #ffffff"/>
    <path d="M 71.66227 372.852824 
L 209.08339 425.955734 
" clip-path="url(#p5298e669f5)" style="fill: #ffffff"/>
    <path d="M 71.7675 372.472506 
L 273.206068 407.283984 
" clip-path="url(#p5298e669f5)" style="stroke: #000000; stroke-width: 1.578249"/>
    <path d="M 82.091124 411.068792 
C 63.8942 419.417099 84.805533 436.872834 89.767986 417.477052 
C 84.805533 436.872834 63.8942 419.417099 82.091124 411.068792 
" clip-path="url(#p5298e669f5)" style="fill: #ffffff"/>
    <path d="M 100.807061 411.229053 
L 138.917157 425.955734 
" clip-path="url(#p5298e669f5)" style="stroke: #000000; stroke-width: 5"/>
    <path d="M 101.33321 409.327467 
L 208.557241 427.85732 
" clip-path="url(#p5298e669f5)" style="stroke: #000000; stroke-width: 2.824934"/>
    <path d="M 101.479271 407.624565 
L 273.176856 407.624565 
" clip-path="url(#p5298e669f5)" style="fill: #ffffff"/>
    <path d="M 141.741992 437.157036 
C 129.955579 453.340446 156.733331 458.334296 151.572503 438.990353 
C 156.733331 458.334296 129.955579 453.340446 141.741992 437.157036 
" clip-path="url(#p5298e669f5)" style="fill: #ffffff"/>
    <path d="M 158.244946 429.560222 
L 208.41118 429.560222 
" clip-path="url(#p5298e669f5)" style="stroke: #000000; stroke-width: 3.700265"/>
    <path d="M 158.098886 427.85732 
L 273.206068 407.965145 
" clip-path="url(#p5298e669f5)" style="stroke: #000000; stroke-width: 1.870027"/>
    <path d="M 215.083624 438.990353 
C 209.922796 458.334296 236.700548 453.340446 224.914135 437.157036 
C 236.700548 453.340446 209.922796 458.334296 215.083624 438.990353 
" clip-path="url(#p5298e669f5)" style="fill: #ffffff"/>
    <path d="M 227.73897 425.955734 
L 273.311298 408.345463 
" clip-path="url(#p5298e669f5)" style="fill: #ffffff"/>
    <path d="M 275.519113 409.595062 
C 281.850594 436.872834 302.761927 419.417099 277.054485 408.31341 
C 302.761927 419.417099 281.850594 436.872834 275.519113 409.595062 
" clip-path="url(#p5298e669f5)" style="fill: #ffffff"/>
   </g>
   <g id="VertexCollection_2">
    <path d="M 296.859415 382.131926 
C 299.511446 382.131926 302.055214 381.078263 303.930483 379.202994 
C 305.805752 377.327725 306.859415 374.783957 306.859415 372.131926 
C 306.859415 369.479895 305.805752 366.936127 303.930483 365.060858 
C 302.055214 363.185589 299.511446 362.131926 296.859415 362.131926 
C 294.207384 362.131926 291.663616 363.185589 289.788347 365.060858 
C 287.913078 366.936127 286.859415 369.479895 286.859415 372.131926 
C 286.859415 374.783957 287.913078 377.327725 289.788347 379.202994 
C 291.663616 381.078263 294.207384 382.131926 296.859415 382.131926 
z
" clip-path="url(#p5298e669f5)" style="fill: #6b010e; stroke: #6b010e; stroke-width: 3"/>
    <path d="M 275.176856 338.639287 
C 275.707262 338.639287 276.216016 338.428554 276.59107 338.0535 
C 276.966124 337.678447 277.176856 337.169693 277.176856 336.639287 
C 277.176856 336.108881 276.966124 335.600127 276.59107 335.225073 
C 276.216016 334.850019 275.707262 334.639287 275.176856 334.639287 
C 274.64645 334.639287 274.137696 334.850019 273.762643 335.225073 
C 273.387589 335.600127 273.176856 336.108881 273.176856 336.639287 
C 273.176856 337.169693 273.387589 337.678447 273.762643 338.0535 
C 274.137696 338.428554 274.64645 338.639287 275.176856 338.639287 
z
" clip-path="url(#p5298e669f5)" style="fill: #fdcab5; stroke: #fdcab5; stroke-width: 3"/>
    <path d="M 218.41118 316.70363 
C 218.941587 316.70363 219.45034 316.492897 219.825394 316.117843 
C 220.200448 315.742789 220.41118 315.234036 220.41118 314.70363 
C 220.41118 314.173223 220.200448 313.66447 219.825394 313.289416 
C 219.45034 312.914362 218.941587 312.70363 218.41118 312.70363 
C 217.880774 312.70363 217.372021 312.914362 216.996967 313.289416 
C 216.621913 313.66447 216.41118 314.173223 216.41118 314.70363 
C 216.41118 315.234036 216.621913 315.742789 216.996967 316.117843 
C 217.372021 316.492897 217.880774 316.70363 218.41118 316.70363 
z
" clip-path="url(#p5298e669f5)" style="fill: #fdcab5; stroke: #fdcab5; stroke-width: 3"/>
    <path d="M 148.244946 316.70363 
C 148.775353 316.70363 149.284106 316.492897 149.65916 316.117843 
C 150.034214 315.742789 150.244946 315.234036 150.244946 314.70363 
C 150.244946 314.173223 150.034214 313.66447 149.65916 313.289416 
C 149.284106 312.914362 148.775353 312.70363 148.244946 312.70363 
C 147.71454 312.70363 147.205787 312.914362 146.830733 313.289416 
C 146.455679 313.66447 146.244946 314.173223 146.244946 314.70363 
C 146.244946 315.234036 146.455679 315.742789 146.830733 316.117843 
C 147.205787 316.492897 147.71454 316.70363 148.244946 316.70363 
z
" clip-path="url(#p5298e669f5)" style="fill: #fdcab5; stroke: #fdcab5; stroke-width: 3"/>
    <path d="M 91.479271 338.639287 
C 92.009677 338.639287 92.518431 338.428554 92.893484 338.0535 
C 93.268538 337.678447 93.479271 337.169693 93.479271 336.639287 
C 93.479271 336.108881 93.268538 335.600127 92.893484 335.225073 
C 92.518431 334.850019 92.009677 334.639287 91.479271 334.639287 
C 90.948865 334.639287 90.440111 334.850019 90.065057 335.225073 
C 89.690003 335.600127 89.479271 336.108881 89.479271 336.639287 
C 89.479271 337.169693 89.690003 337.678447 90.065057 338.0535 
C 90.440111 338.428554 90.948865 338.639287 91.479271 338.639287 
z
" clip-path="url(#p5298e669f5)" style="fill: #fdcab5; stroke: #fdcab5; stroke-width: 3"/>
    <path d="M 69.796712 374.131926 
C 70.327118 374.131926 70.835872 373.921193 71.210926 373.546139 
C 71.585979 373.171086 71.796712 372.662332 71.796712 372.131926 
C 71.796712 371.60152 71.585979 371.092766 71.210926 370.717712 
C 70.835872 370.342658 70.327118 370.131926 69.796712 370.131926 
C 69.266306 370.131926 68.757552 370.342658 68.382499 370.717712 
C 68.007445 371.092766 67.796712 371.60152 67.796712 372.131926 
C 67.796712 372.662332 68.007445 373.171086 68.382499 373.546139 
C 68.757552 373.921193 69.266306 374.131926 69.796712 374.131926 
z
" clip-path="url(#p5298e669f5)" style="fill: #fdcab5; stroke: #fdcab5; stroke-width: 3"/>
    <path d="M 91.479271 417.624565 
C 94.131302 417.624565 96.675069 416.570902 98.550339 414.695633 
C 100.425608 412.820364 101.479271 410.276596 101.479271 407.624565 
C 101.479271 404.972534 100.425608 402.428766 98.550339 400.553497 
C 96.675069 398.678228 94.131302 397.624565 91.479271 397.624565 
C 88.82724 397.624565 86.283472 398.678228 84.408203 400.553497 
C 82.532934 402.428766 81.479271 404.972534 81.479271 407.624565 
C 81.479271 410.276596 82.532934 412.820364 84.408203 414.695633 
C 86.283472 416.570902 88.82724 417.624565 91.479271 417.624565 
z
" clip-path="url(#p5298e669f5)" style="fill: #6b010e; stroke: #6b010e; stroke-width: 3"/>
    <path d="M 148.244946 439.560222 
C 150.896977 439.560222 153.440745 438.506559 155.316014 436.63129 
C 157.191283 434.756021 158.244946 432.212253 158.244946 429.560222 
C 158.244946 426.908191 157.191283 424.364424 155.316014 422.489154 
C 153.440745 420.613885 150.896977 419.560222 148.244946 419.560222 
C 145.592915 419.560222 143.049148 420.613885 141.173879 422.489154 
C 139.29861 424.364424 138.244946 426.908191 138.244946 429.560222 
C 138.244946 432.212253 139.29861 434.756021 141.173879 436.63129 
C 143.049148 438.506559 145.592915 439.560222 148.244946 439.560222 
z
" clip-path="url(#p5298e669f5)" style="fill: #6b010e; stroke: #6b010e; stroke-width: 3"/>
    <path d="M 218.41118 439.560222 
C 221.063211 439.560222 223.606979 438.506559 225.482248 436.63129 
C 227.357517 434.756021 228.41118 432.212253 228.41118 429.560222 
C 228.41118 426.908191 227.357517 424.364424 225.482248 422.489154 
C 223.606979 420.613885 221.063211 419.560222 218.41118 419.560222 
C 215.759149 419.560222 213.215382 420.613885 211.340113 422.489154 
C 209.464844 424.364424 208.41118 426.908191 208.41118 429.560222 
C 208.41118 432.212253 209.464844 434.756021 211.340113 436.63129 
C 213.215382 438.506559 215.759149 439.560222 218.41118 439.560222 
z
" clip-path="url(#p5298e669f5)" style="fill: #6b010e; stroke: #6b010e; stroke-width: 3"/>
    <path d="M 275.176856 409.624565 
C 275.707262 409.624565 276.216016 409.413832 276.59107 409.038778 
C 276.966124 408.663725 277.176856 408.154971 277.176856 407.624565 
C 277.176856 407.094159 276.966124 406.585405 276.59107 406.210351 
C 276.216016 405.835298 275.707262 405.624565 275.176856 405.624565 
C 274.64645 405.624565 274.137696 405.835298 273.762643 406.210351 
C 273.387589 406.585405 273.176856 407.094159 273.176856 407.624565 
C 273.176856 408.154971 273.387589 408.663725 273.762643 409.038778 
C 274.137696 409.413832 274.64645 409.624565 275.176856 409.624565 
z
" clip-path="url(#p5298e669f5)" style="fill: #fdcab5; stroke: #fdcab5; stroke-width: 3"/>
   </g>
   <g id="matplotlib.axis_3"/>
   <g id="matplotlib.axis_4"/>
  </g>
  <g id="axes_3">
   <g id="patch_4">
    <path d="M 45 617.089655 
L 324 617.089655 
L 324 473.710345 
L 45 473.710345 
z
" style="fill: #ffffff"/>
   </g>
   <g id="EdgeCollection_3">
    <path d="M 300.929321 545.187098 
C 325.927466 557.806813 325.927466 530.567383 300.929321 543.187098 
C 325.927466 530.567383 325.927466 557.806813 300.929321 545.187098 
" clip-path="url(#p298fefd8a0)" style="fill: #ffffff"/>
    <path d="M 298.146864 542.485144 
L 278.342447 510.396413 
" clip-path="url(#p298fefd8a0)" style="fill: #ffffff"/>
    <path d="M 297.577751 543.013575 
L 221.562925 487.932325 
" clip-path="url(#p298fefd8a0)" style="stroke: #000000; stroke-width: 1.760563"/>
    <path d="M 297.329256 543.472589 
L 150.924608 487.473311 
" clip-path="url(#p298fefd8a0)" style="fill: #ffffff"/>
    <path d="M 297.225904 543.849881 
L 93.679325 509.031677 
" clip-path="url(#p298fefd8a0)" style="fill: #ffffff"/>
    <path d="M 297.19727 544.187098 
L 71.80273 544.187098 
" clip-path="url(#p298fefd8a0)" style="fill: #ffffff"/>
    <path d="M 297.225904 544.524316 
L 101.56479 577.993651 
" clip-path="url(#p298fefd8a0)" style="fill: #ffffff"/>
    <path d="M 297.329256 544.901607 
L 158.396665 598.042849 
" clip-path="url(#p298fefd8a0)" style="fill: #ffffff"/>
    <path d="M 297.577751 545.360621 
L 228.041003 595.747779 
" clip-path="url(#p298fefd8a0)" style="fill: #ffffff"/>
    <path d="M 298.146864 545.889052 
L 282.544072 571.169968 
" clip-path="url(#p298fefd8a0)" style="fill: #ffffff"/>
    <path d="M 279.166907 507.998129 
C 304.829851 496.79198 283.849052 479.419801 277.626435 506.722612 
C 283.849052 479.419801 304.829851 496.79198 279.166907 507.998129 
" clip-path="url(#p298fefd8a0)" style="fill: #ffffff"/>
    <path d="M 275.424027 507.97995 
L 221.81142 487.473311 
" clip-path="url(#p298fefd8a0)" style="fill: #ffffff"/>
    <path d="M 275.320675 508.357242 
L 151.02796 487.096019 
" clip-path="url(#p298fefd8a0)" style="fill: #ffffff"/>
    <path d="M 275.292041 508.694459 
L 93.707959 508.694459 
" clip-path="url(#p298fefd8a0)" style="fill: #ffffff"/>
    <path d="M 275.320675 509.031677 
L 71.774096 543.849881 
" clip-path="url(#p298fefd8a0)" style="fill: #ffffff"/>
    <path d="M 275.424027 509.408968 
L 101.04803 576.107192 
" clip-path="url(#p298fefd8a0)" style="stroke: #000000; stroke-width: 1.971831"/>
    <path d="M 275.672521 509.867982 
L 157.154192 595.747779 
" clip-path="url(#p298fefd8a0)" style="fill: #ffffff"/>
    <path d="M 276.241635 510.396413 
L 225.195437 593.105626 
" clip-path="url(#p298fefd8a0)" style="stroke: #000000; stroke-width: 1.450704"/>
    <path d="M 277.292041 510.694459 
L 277.292041 569.679737 
" clip-path="url(#p298fefd8a0)" style="fill: #ffffff"/>
    <path d="M 221.241395 485.237216 
C 238.192056 462.947318 211.405798 457.999295 219.274668 484.873917 
C 211.405798 457.999295 238.192056 462.947318 221.241395 485.237216 
" clip-path="url(#p298fefd8a0)" style="fill: #ffffff"/>
    <path d="M 217.943406 486.758802 
L 151.056594 486.758802 
" clip-path="url(#p298fefd8a0)" style="stroke: #000000; stroke-width: 1.042254"/>
    <path d="M 217.97204 487.096019 
L 93.679325 508.357242 
" clip-path="url(#p298fefd8a0)" style="fill: #ffffff"/>
    <path d="M 218.075392 487.473311 
L 71.670744 543.472589 
" clip-path="url(#p298fefd8a0)" style="fill: #ffffff"/>
    <path d="M 218.323886 487.932325 
L 99.805557 573.812122 
" clip-path="url(#p298fefd8a0)" style="fill: #ffffff"/>
    <path d="M 218.893 488.460756 
L 154.308625 593.105626 
" clip-path="url(#p298fefd8a0)" style="fill: #ffffff"/>
    <path d="M 219.943406 488.758802 
L 219.943406 591.615395 
" clip-path="url(#p298fefd8a0)" style="fill: #ffffff"/>
    <path d="M 220.993812 488.460756 
L 272.04001 571.169968 
" clip-path="url(#p298fefd8a0)" style="fill: #ffffff"/>
    <path d="M 149.725332 484.873917 
C 157.594202 457.999295 130.807944 462.947318 147.758605 485.237216 
C 130.807944 462.947318 157.594202 457.999295 149.725332 484.873917 
" clip-path="url(#p298fefd8a0)" style="fill: #ffffff"/>
    <path d="M 147.18858 487.473311 
L 93.575973 507.97995 
" clip-path="url(#p298fefd8a0)" style="fill: #ffffff"/>
    <path d="M 147.437075 487.932325 
L 71.422249 543.013575 
" clip-path="url(#p298fefd8a0)" style="fill: #ffffff"/>
    <path d="M 148.006188 488.460756 
L 96.95999 571.169968 
" clip-path="url(#p298fefd8a0)" style="fill: #ffffff"/>
    <path d="M 149.056594 488.758802 
L 149.056594 591.615395 
" clip-path="url(#p298fefd8a0)" style="fill: #ffffff"/>
    <path d="M 150.107 488.460756 
L 214.691375 593.105626 
" clip-path="url(#p298fefd8a0)" style="fill: #ffffff"/>
    <path d="M 150.676114 487.932325 
L 269.194443 573.812122 
" clip-path="url(#p298fefd8a0)" style="fill: #ffffff"/>
    <path d="M 91.373565 506.722612 
C 85.150948 479.419801 64.170149 496.79198 89.833093 507.998129 
C 64.170149 496.79198 85.150948 479.419801 91.373565 506.722612 
" clip-path="url(#p298fefd8a0)" style="fill: #ffffff"/>
    <path d="M 90.657553 510.396413 
L 70.853136 542.485144 
" clip-path="url(#p298fefd8a0)" style="fill: #ffffff"/>
    <path d="M 91.707959 510.694459 
L 91.707959 569.679737 
" clip-path="url(#p298fefd8a0)" style="fill: #ffffff"/>
    <path d="M 92.758365 510.396413 
L 143.804563 593.105626 
" clip-path="url(#p298fefd8a0)" style="fill: #ffffff"/>
    <path d="M 93.327479 509.867982 
L 211.845808 595.747779 
" clip-path="url(#p298fefd8a0)" style="fill: #ffffff"/>
    <path d="M 93.575973 509.408968 
L 267.95197 576.107192 
" clip-path="url(#p298fefd8a0)" style="stroke: #000000; stroke-width: 1.169014"/>
    <path d="M 68.070679 543.187098 
C 43.072534 530.567383 43.072534 557.806813 68.070679 545.187098 
C 43.072534 557.806813 43.072534 530.567383 68.070679 543.187098 
" clip-path="url(#p298fefd8a0)" style="fill: #ffffff"/>
    <path d="M 70.853136 545.889052 
L 86.455928 571.169968 
" clip-path="url(#p298fefd8a0)" style="fill: #ffffff"/>
    <path d="M 71.422249 545.360621 
L 140.958997 595.747779 
" clip-path="url(#p298fefd8a0)" style="fill: #ffffff"/>
    <path d="M 71.670744 544.901607 
L 210.603335 598.042849 
" clip-path="url(#p298fefd8a0)" style="fill: #ffffff"/>
    <path d="M 71.774096 544.524316 
L 267.43521 577.993651 
" clip-path="url(#p298fefd8a0)" style="stroke: #000000; stroke-width: 1.71831"/>
    <path d="M 82.333626 583.161387 
C 64.170149 591.582216 85.150948 608.954395 90.03599 589.538973 
C 85.150948 608.954395 64.170149 591.582216 82.333626 583.161387 
" clip-path="url(#p298fefd8a0)" style="fill: #ffffff"/>
    <path d="M 101.04803 583.252283 
L 139.716524 598.042849 
" clip-path="url(#p298fefd8a0)" style="stroke: #000000; stroke-width: 5"/>
    <path d="M 101.56479 581.365824 
L 210.086575 599.929308 
" clip-path="url(#p298fefd8a0)" style="stroke: #000000; stroke-width: 2.126761"/>
    <path d="M 101.707959 579.679737 
L 267.292041 579.679737 
" clip-path="url(#p298fefd8a0)" style="fill: #ffffff"/>
    <path d="M 142.566648 609.223325 
C 130.807944 625.426879 157.594202 630.374902 152.400282 611.039818 
C 157.594202 630.374902 130.807944 625.426879 142.566648 609.223325 
" clip-path="url(#p298fefd8a0)" style="fill: #ffffff"/>
    <path d="M 159.056594 601.615395 
L 209.943406 601.615395 
" clip-path="url(#p298fefd8a0)" style="stroke: #000000; stroke-width: 4.056338"/>
    <path d="M 158.913425 599.929308 
L 267.43521 581.365824 
" clip-path="url(#p298fefd8a0)" style="stroke: #000000; stroke-width: 2.070423"/>
    <path d="M 216.599718 611.039818 
C 211.405798 630.374902 238.192056 625.426879 226.433352 609.223325 
C 238.192056 625.426879 211.405798 630.374902 216.599718 611.039818 
" clip-path="url(#p298fefd8a0)" style="fill: #ffffff"/>
    <path d="M 229.283476 598.042849 
L 267.95197 583.252283 
" clip-path="url(#p298fefd8a0)" style="fill: #ffffff"/>
    <path d="M 278.96401 589.538973 
C 283.849052 608.954395 304.829851 591.582216 286.666374 583.161387 
C 304.829851 591.582216 283.849052 608.954395 278.96401 589.538973 
" clip-path="url(#p298fefd8a0)" style="fill: #ffffff"/>
   </g>
   <g id="VertexCollection_3">
    <path d="M 299.19727 546.187098 
C 299.727676 546.187098 300.23643 545.976366 300.611484 545.601312 
C 300.986538 545.226258 301.19727 544.717504 301.19727 544.187098 
C 301.19727 543.656692 300.986538 543.147939 300.611484 542.772885 
C 300.23643 542.397831 299.727676 542.187098 299.19727 542.187098 
C 298.666864 542.187098 298.158111 542.397831 297.783057 542.772885 
C 297.408003 543.147939 297.19727 543.656692 297.19727 544.187098 
C 297.19727 544.717504 297.408003 545.226258 297.783057 545.601312 
C 298.158111 545.976366 298.666864 546.187098 299.19727 546.187098 
z
" clip-path="url(#p298fefd8a0)" style="fill: #fdcab5; stroke: #fdcab5; stroke-width: 3"/>
    <path d="M 277.292041 510.694459 
C 277.822447 510.694459 278.331201 510.483727 278.706254 510.108673 
C 279.081308 509.733619 279.292041 509.224865 279.292041 508.694459 
C 279.292041 508.164053 279.081308 507.655299 278.706254 507.280246 
C 278.331201 506.905192 277.822447 506.694459 277.292041 506.694459 
C 276.761635 506.694459 276.252881 506.905192 275.877827 507.280246 
C 275.502773 507.655299 275.292041 508.164053 275.292041 508.694459 
C 275.292041 509.224865 275.502773 509.733619 275.877827 510.108673 
C 276.252881 510.483727 276.761635 510.694459 277.292041 510.694459 
z
" clip-path="url(#p298fefd8a0)" style="fill: #fdcab5; stroke: #fdcab5; stroke-width: 3"/>
    <path d="M 219.943406 488.758802 
C 220.473812 488.758802 220.982565 488.548069 221.357619 488.173016 
C 221.732673 487.797962 221.943406 487.289208 221.943406 486.758802 
C 221.943406 486.228396 221.732673 485.719642 221.357619 485.344588 
C 220.982565 484.969535 220.473812 484.758802 219.943406 484.758802 
C 219.413 484.758802 218.904246 484.969535 218.529192 485.344588 
C 218.154138 485.719642 217.943406 486.228396 217.943406 486.758802 
C 217.943406 487.289208 218.154138 487.797962 218.529192 488.173016 
C 218.904246 488.548069 219.413 488.758802 219.943406 488.758802 
z
" clip-path="url(#p298fefd8a0)" style="fill: #fdcab5; stroke: #fdcab5; stroke-width: 3"/>
    <path d="M 149.056594 488.758802 
C 149.587 488.758802 150.095754 488.548069 150.470808 488.173016 
C 150.845862 487.797962 151.056594 487.289208 151.056594 486.758802 
C 151.056594 486.228396 150.845862 485.719642 150.470808 485.344588 
C 150.095754 484.969535 149.587 484.758802 149.056594 484.758802 
C 148.526188 484.758802 148.017435 484.969535 147.642381 485.344588 
C 147.267327 485.719642 147.056594 486.228396 147.056594 486.758802 
C 147.056594 487.289208 147.267327 487.797962 147.642381 488.173016 
C 148.017435 488.548069 148.526188 488.758802 149.056594 488.758802 
z
" clip-path="url(#p298fefd8a0)" style="fill: #fdcab5; stroke: #fdcab5; stroke-width: 3"/>
    <path d="M 91.707959 510.694459 
C 92.238365 510.694459 92.747119 510.483727 93.122173 510.108673 
C 93.497227 509.733619 93.707959 509.224865 93.707959 508.694459 
C 93.707959 508.164053 93.497227 507.655299 93.122173 507.280246 
C 92.747119 506.905192 92.238365 506.694459 91.707959 506.694459 
C 91.177553 506.694459 90.668799 506.905192 90.293746 507.280246 
C 89.918692 507.655299 89.707959 508.164053 89.707959 508.694459 
C 89.707959 509.224865 89.918692 509.733619 90.293746 510.108673 
C 90.668799 510.483727 91.177553 510.694459 91.707959 510.694459 
z
" clip-path="url(#p298fefd8a0)" style="fill: #fdcab5; stroke: #fdcab5; stroke-width: 3"/>
    <path d="M 69.80273 546.187098 
C 70.333136 546.187098 70.841889 545.976366 71.216943 545.601312 
C 71.591997 545.226258 71.80273 544.717504 71.80273 544.187098 
C 71.80273 543.656692 71.591997 543.147939 71.216943 542.772885 
C 70.841889 542.397831 70.333136 542.187098 69.80273 542.187098 
C 69.272324 542.187098 68.76357 542.397831 68.388516 542.772885 
C 68.013462 543.147939 67.80273 543.656692 67.80273 544.187098 
C 67.80273 544.717504 68.013462 545.226258 68.388516 545.601312 
C 68.76357 545.976366 69.272324 546.187098 69.80273 546.187098 
z
" clip-path="url(#p298fefd8a0)" style="fill: #fdcab5; stroke: #fdcab5; stroke-width: 3"/>
    <path d="M 91.707959 589.679737 
C 94.35999 589.679737 96.903758 588.626074 98.779027 586.750805 
C 100.654296 584.875536 101.707959 582.331768 101.707959 579.679737 
C 101.707959 577.027706 100.654296 574.483939 98.779027 572.60867 
C 96.903758 570.7334 94.35999 569.679737 91.707959 569.679737 
C 89.055928 569.679737 86.51216 570.7334 84.636891 572.60867 
C 82.761622 574.483939 81.707959 577.027706 81.707959 579.679737 
C 81.707959 582.331768 82.761622 584.875536 84.636891 586.750805 
C 86.51216 588.626074 89.055928 589.679737 91.707959 589.679737 
z
" clip-path="url(#p298fefd8a0)" style="fill: #6b010e; stroke: #6b010e; stroke-width: 3"/>
    <path d="M 149.056594 611.615395 
C 151.708625 611.615395 154.252393 610.561732 156.127662 608.686462 
C 158.002931 606.811193 159.056594 604.267426 159.056594 601.615395 
C 159.056594 598.963364 158.002931 596.419596 156.127662 594.544327 
C 154.252393 592.669058 151.708625 591.615395 149.056594 591.615395 
C 146.404563 591.615395 143.860796 592.669058 141.985526 594.544327 
C 140.110257 596.419596 139.056594 598.963364 139.056594 601.615395 
C 139.056594 604.267426 140.110257 606.811193 141.985526 608.686462 
C 143.860796 610.561732 146.404563 611.615395 149.056594 611.615395 
z
" clip-path="url(#p298fefd8a0)" style="fill: #6b010e; stroke: #6b010e; stroke-width: 3"/>
    <path d="M 219.943406 611.615395 
C 222.595437 611.615395 225.139204 610.561732 227.014474 608.686462 
C 228.889743 606.811193 229.943406 604.267426 229.943406 601.615395 
C 229.943406 598.963364 228.889743 596.419596 227.014474 594.544327 
C 225.139204 592.669058 222.595437 591.615395 219.943406 591.615395 
C 217.291375 591.615395 214.747607 592.669058 212.872338 594.544327 
C 210.997069 596.419596 209.943406 598.963364 209.943406 601.615395 
C 209.943406 604.267426 210.997069 606.811193 212.872338 608.686462 
C 214.747607 610.561732 217.291375 611.615395 219.943406 611.615395 
z
" clip-path="url(#p298fefd8a0)" style="fill: #6b010e; stroke: #6b010e; stroke-width: 3"/>
    <path d="M 277.292041 589.679737 
C 279.944072 589.679737 282.48784 588.626074 284.363109 586.750805 
C 286.238378 584.875536 287.292041 582.331768 287.292041 579.679737 
C 287.292041 577.027706 286.238378 574.483939 284.363109 572.60867 
C 282.48784 570.7334 279.944072 569.679737 277.292041 569.679737 
C 274.64001 569.679737 272.096242 570.7334 270.220973 572.60867 
C 268.345704 574.483939 267.292041 577.027706 267.292041 579.679737 
C 267.292041 582.331768 268.345704 584.875536 270.220973 586.750805 
C 272.096242 588.626074 274.64001 589.679737 277.292041 589.679737 
z
" clip-path="url(#p298fefd8a0)" style="fill: #6b010e; stroke: #6b010e; stroke-width: 3"/>
   </g>
   <g id="matplotlib.axis_5"/>
   <g id="matplotlib.axis_6"/>
  </g>
  <g id="axes_4">
   <g id="patch_5">
    <path d="M 45 789.144828 
L 324 789.144828 
L 324 645.765517 
L 45 645.765517 
z
" style="fill: #ffffff"/>
   </g>
   <g id="EdgeCollection_4">
    <path d="M 300.935339 717.242271 
C 325.933484 729.861986 325.933484 702.622556 300.935339 715.242271 
C 325.933484 702.622556 325.933484 729.861986 300.935339 717.242271 
" clip-path="url(#pea4a8b9ea0)" style="fill: #ffffff"/>
    <path d="M 298.160647 714.535549 
L 278.563371 682.456353 
" clip-path="url(#pea4a8b9ea0)" style="fill: #ffffff"/>
    <path d="M 297.589493 715.060887 
L 222.368848 659.995358 
" clip-path="url(#pea4a8b9ea0)" style="stroke: #000000; stroke-width: 2.203647"/>
    <path d="M 297.33773 715.521373 
L 152.454378 659.534872 
" clip-path="url(#pea4a8b9ea0)" style="fill: #ffffff"/>
    <path d="M 297.2325 715.90169 
L 95.793932 681.090212 
" clip-path="url(#pea4a8b9ea0)" style="fill: #ffffff"/>
    <path d="M 297.203288 716.242271 
L 82.140585 716.242271 
" clip-path="url(#pea4a8b9ea0)" style="fill: #ffffff"/>
    <path d="M 297.2325 716.582851 
L 103.677083 750.032007 
" clip-path="url(#pea4a8b9ea0)" style="fill: #ffffff"/>
    <path d="M 297.33773 716.963168 
L 159.91661 770.066079 
" clip-path="url(#pea4a8b9ea0)" style="fill: #ffffff"/>
    <path d="M 297.589493 717.423654 
L 228.824026 767.763649 
" clip-path="url(#pea4a8b9ea0)" style="fill: #ffffff"/>
    <path d="M 298.160647 717.948992 
L 278.563371 750.028188 
" clip-path="url(#pea4a8b9ea0)" style="fill: #ffffff"/>
    <path d="M 279.398359 680.060786 
C 305.1058 668.957098 284.194467 651.501363 277.862986 678.779134 
C 284.194467 651.501363 305.1058 668.957098 279.398359 680.060786 
" clip-path="url(#pea4a8b9ea0)" style="fill: #ffffff"/>
    <path d="M 275.655171 680.028734 
L 222.620611 659.534872 
" clip-path="url(#pea4a8b9ea0)" style="fill: #ffffff"/>
    <path d="M 275.549941 680.409051 
L 152.559607 659.154555 
" clip-path="url(#pea4a8b9ea0)" style="fill: #ffffff"/>
    <path d="M 275.520729 680.749632 
L 95.823144 680.749632 
" clip-path="url(#pea4a8b9ea0)" style="fill: #ffffff"/>
    <path d="M 275.549941 681.090212 
L 81.994525 714.539368 
" clip-path="url(#pea4a8b9ea0)" style="fill: #ffffff"/>
    <path d="M 275.655171 681.470529 
L 103.150934 748.130422 
" clip-path="url(#pea4a8b9ea0)" style="stroke: #000000; stroke-width: 2.279635"/>
    <path d="M 275.906935 681.931015 
L 158.657792 767.763649 
" clip-path="url(#pea4a8b9ea0)" style="fill: #ffffff"/>
    <path d="M 276.478088 682.456353 
L 225.96826 765.136959 
" clip-path="url(#pea4a8b9ea0)" style="fill: #ffffff"/>
    <path d="M 277.520729 682.749632 
L 277.520729 749.73491 
" clip-path="url(#pea4a8b9ea0)" style="fill: #ffffff"/>
    <path d="M 222.055644 657.294612 
C 239.044421 635.033751 212.266669 630.0399 220.089542 656.927948 
C 212.266669 630.0399 239.044421 635.033751 222.055644 657.294612 
" clip-path="url(#pea4a8b9ea0)" style="fill: #ffffff"/>
    <path d="M 218.755054 658.813974 
L 152.58882 658.813974 
" clip-path="url(#pea4a8b9ea0)" style="stroke: #000000; stroke-width: 1.079027"/>
    <path d="M 218.784266 659.154555 
L 95.793932 680.409051 
" clip-path="url(#pea4a8b9ea0)" style="fill: #ffffff"/>
    <path d="M 218.889496 659.534872 
L 81.468375 712.637783 
" clip-path="url(#pea4a8b9ea0)" style="fill: #ffffff"/>
    <path d="M 219.141259 659.995358 
L 101.892116 745.827991 
" clip-path="url(#pea4a8b9ea0)" style="fill: #ffffff"/>
    <path d="M 219.712412 660.520696 
L 155.802026 765.136959 
" clip-path="url(#pea4a8b9ea0)" style="fill: #ffffff"/>
    <path d="M 220.755054 660.813974 
L 220.755054 763.670567 
" clip-path="url(#pea4a8b9ea0)" style="fill: #ffffff"/>
    <path d="M 221.797695 660.520696 
L 276.478088 750.028188 
" clip-path="url(#pea4a8b9ea0)" style="fill: #ffffff"/>
    <path d="M 151.254331 656.927948 
C 159.077204 630.0399 132.299452 635.033751 149.288229 657.294612 
C 132.299452 635.033751 159.077204 630.0399 151.254331 656.927948 
" clip-path="url(#pea4a8b9ea0)" style="fill: #ffffff"/>
    <path d="M 148.723262 659.534872 
L 95.688702 680.028734 
" clip-path="url(#pea4a8b9ea0)" style="fill: #ffffff"/>
    <path d="M 148.975025 659.995358 
L 80.209557 710.335352 
" clip-path="url(#pea4a8b9ea0)" style="fill: #ffffff"/>
    <path d="M 149.546178 660.520696 
L 99.036351 743.201301 
" clip-path="url(#pea4a8b9ea0)" style="fill: #ffffff"/>
    <path d="M 150.58882 660.813974 
L 150.58882 763.670567 
" clip-path="url(#pea4a8b9ea0)" style="fill: #ffffff"/>
    <path d="M 151.631461 660.520696 
L 215.541847 765.136959 
" clip-path="url(#pea4a8b9ea0)" style="fill: #ffffff"/>
    <path d="M 152.202614 659.995358 
L 275.906935 750.553526 
" clip-path="url(#pea4a8b9ea0)" style="fill: #ffffff"/>
    <path d="M 93.480887 678.779134 
C 87.149406 651.501363 66.238073 668.957098 91.945515 680.060786 
C 66.238073 668.957098 87.149406 651.501363 93.480887 678.779134 
" clip-path="url(#pea4a8b9ea0)" style="fill: #ffffff"/>
    <path d="M 92.780502 682.456353 
L 77.353792 707.708662 
" clip-path="url(#pea4a8b9ea0)" style="stroke: #000000; stroke-width: 2.416413"/>
    <path d="M 93.823144 682.749632 
L 93.823144 741.73491 
" clip-path="url(#pea4a8b9ea0)" style="fill: #ffffff"/>
    <path d="M 94.865785 682.456353 
L 145.375613 765.136959 
" clip-path="url(#pea4a8b9ea0)" style="fill: #ffffff"/>
    <path d="M 95.436938 681.931015 
L 212.686081 767.763649 
" clip-path="url(#pea4a8b9ea0)" style="fill: #ffffff"/>
    <path d="M 95.688702 681.470529 
L 275.655171 751.014012 
" clip-path="url(#pea4a8b9ea0)" style="fill: #ffffff"/>
    <path d="M 63.480331 711.242271 
C 45.410389 702.622556 45.410389 729.861986 63.480331 721.242271 
C 45.410389 729.861986 45.410389 702.622556 63.480331 711.242271 
" clip-path="url(#pea4a8b9ea0)" style="fill: #ffffff"/>
    <path d="M 77.353792 724.775879 
L 88.609937 743.201301 
" clip-path="url(#pea4a8b9ea0)" style="fill: #ffffff"/>
    <path d="M 80.209557 722.149189 
L 142.519847 767.763649 
" clip-path="url(#pea4a8b9ea0)" style="stroke: #000000; stroke-width: 2.112462"/>
    <path d="M 81.468375 719.846759 
L 211.427264 770.066079 
" clip-path="url(#pea4a8b9ea0)" style="stroke: #000000; stroke-width: 2.203647"/>
    <path d="M 81.994525 717.945173 
L 275.549941 751.394329 
" clip-path="url(#pea4a8b9ea0)" style="fill: #ffffff"/>
    <path d="M 84.434997 755.179137 
C 66.238073 763.527444 87.149406 780.983179 92.111859 761.587397 
C 87.149406 780.983179 66.238073 763.527444 84.434997 755.179137 
" clip-path="url(#pea4a8b9ea0)" style="fill: #ffffff"/>
    <path d="M 103.150934 755.339398 
L 141.26103 770.066079 
" clip-path="url(#pea4a8b9ea0)" style="stroke: #000000; stroke-width: 5"/>
    <path d="M 103.677083 753.437812 
L 210.901114 771.967665 
" clip-path="url(#pea4a8b9ea0)" style="stroke: #000000; stroke-width: 2.68997"/>
    <path d="M 103.823144 751.73491 
L 275.520729 751.73491 
" clip-path="url(#pea4a8b9ea0)" style="fill: #ffffff"/>
    <path d="M 144.085865 781.267381 
C 132.299452 797.450791 159.077204 802.444641 153.916376 783.100698 
C 159.077204 802.444641 132.299452 797.450791 144.085865 781.267381 
" clip-path="url(#pea4a8b9ea0)" style="fill: #ffffff"/>
    <path d="M 160.58882 773.670567 
L 210.755054 773.670567 
" clip-path="url(#pea4a8b9ea0)" style="stroke: #000000; stroke-width: 4.148936"/>
    <path d="M 160.442759 771.967665 
L 275.549941 752.07549 
" clip-path="url(#pea4a8b9ea0)" style="fill: #ffffff"/>
    <path d="M 217.427497 783.100698 
C 212.266669 802.444641 239.044421 797.450791 227.258008 781.267381 
C 239.044421 797.450791 212.266669 802.444641 217.427497 783.100698 
" clip-path="url(#pea4a8b9ea0)" style="fill: #ffffff"/>
    <path d="M 230.082843 770.066079 
L 275.655171 752.455807 
" clip-path="url(#pea4a8b9ea0)" style="fill: #ffffff"/>
    <path d="M 277.862986 753.705407 
C 284.194467 780.983179 305.1058 763.527444 279.398359 752.423755 
C 305.1058 763.527444 284.194467 780.983179 277.862986 753.705407 
" clip-path="url(#pea4a8b9ea0)" style="fill: #ffffff"/>
   </g>
   <g id="VertexCollection_4">
    <path d="M 299.203288 718.242271 
C 299.733694 718.242271 300.242448 718.031538 300.617501 717.656484 
C 300.992555 717.28143 301.203288 716.772677 301.203288 716.242271 
C 301.203288 715.711865 300.992555 715.203111 300.617501 714.828057 
C 300.242448 714.453003 299.733694 714.242271 299.203288 714.242271 
C 298.672882 714.242271 298.164128 714.453003 297.789074 714.828057 
C 297.414021 715.203111 297.203288 715.711865 297.203288 716.242271 
C 297.203288 716.772677 297.414021 717.28143 297.789074 717.656484 
C 298.164128 718.031538 298.672882 718.242271 299.203288 718.242271 
z
" clip-path="url(#pea4a8b9ea0)" style="fill: #fdcab5; stroke: #fdcab5; stroke-width: 3"/>
    <path d="M 277.520729 682.749632 
C 278.051135 682.749632 278.559889 682.538899 278.934943 682.163845 
C 279.309997 681.788791 279.520729 681.280038 279.520729 680.749632 
C 279.520729 680.219225 279.309997 679.710472 278.934943 679.335418 
C 278.559889 678.960364 278.051135 678.749632 277.520729 678.749632 
C 276.990323 678.749632 276.481569 678.960364 276.106516 679.335418 
C 275.731462 679.710472 275.520729 680.219225 275.520729 680.749632 
C 275.520729 681.280038 275.731462 681.788791 276.106516 682.163845 
C 276.481569 682.538899 276.990323 682.749632 277.520729 682.749632 
z
" clip-path="url(#pea4a8b9ea0)" style="fill: #fdcab5; stroke: #fdcab5; stroke-width: 3"/>
    <path d="M 220.755054 660.813974 
C 221.28546 660.813974 221.794213 660.603242 222.169267 660.228188 
C 222.544321 659.853134 222.755054 659.344381 222.755054 658.813974 
C 222.755054 658.283568 222.544321 657.774815 222.169267 657.399761 
C 221.794213 657.024707 221.28546 656.813974 220.755054 656.813974 
C 220.224647 656.813974 219.715894 657.024707 219.34084 657.399761 
C 218.965786 657.774815 218.755054 658.283568 218.755054 658.813974 
C 218.755054 659.344381 218.965786 659.853134 219.34084 660.228188 
C 219.715894 660.603242 220.224647 660.813974 220.755054 660.813974 
z
" clip-path="url(#pea4a8b9ea0)" style="fill: #fdcab5; stroke: #fdcab5; stroke-width: 3"/>
    <path d="M 150.58882 660.813974 
C 151.119226 660.813974 151.627979 660.603242 152.003033 660.228188 
C 152.378087 659.853134 152.58882 659.344381 152.58882 658.813974 
C 152.58882 658.283568 152.378087 657.774815 152.003033 657.399761 
C 151.627979 657.024707 151.119226 656.813974 150.58882 656.813974 
C 150.058413 656.813974 149.54966 657.024707 149.174606 657.399761 
C 148.799552 657.774815 148.58882 658.283568 148.58882 658.813974 
C 148.58882 659.344381 148.799552 659.853134 149.174606 660.228188 
C 149.54966 660.603242 150.058413 660.813974 150.58882 660.813974 
z
" clip-path="url(#pea4a8b9ea0)" style="fill: #fdcab5; stroke: #fdcab5; stroke-width: 3"/>
    <path d="M 93.823144 682.749632 
C 94.35355 682.749632 94.862304 682.538899 95.237357 682.163845 
C 95.612411 681.788791 95.823144 681.280038 95.823144 680.749632 
C 95.823144 680.219225 95.612411 679.710472 95.237357 679.335418 
C 94.862304 678.960364 94.35355 678.749632 93.823144 678.749632 
C 93.292738 678.749632 92.783984 678.960364 92.40893 679.335418 
C 92.033876 679.710472 91.823144 680.219225 91.823144 680.749632 
C 91.823144 681.280038 92.033876 681.788791 92.40893 682.163845 
C 92.783984 682.538899 93.292738 682.749632 93.823144 682.749632 
z
" clip-path="url(#pea4a8b9ea0)" style="fill: #fdcab5; stroke: #fdcab5; stroke-width: 3"/>
    <path d="M 72.140585 726.242271 
C 74.792616 726.242271 77.336384 725.188608 79.211653 723.313339 
C 81.086922 721.438069 82.140585 718.894302 82.140585 716.242271 
C 82.140585 713.59024 81.086922 711.046472 79.211653 709.171203 
C 77.336384 707.295934 74.792616 706.242271 72.140585 706.242271 
C 69.488554 706.242271 66.944786 707.295934 65.069517 709.171203 
C 63.194248 711.046472 62.140585 713.59024 62.140585 716.242271 
C 62.140585 718.894302 63.194248 721.438069 65.069517 723.313339 
C 66.944786 725.188608 69.488554 726.242271 72.140585 726.242271 
z
" clip-path="url(#pea4a8b9ea0)" style="fill: #6b010e; stroke: #6b010e; stroke-width: 3"/>
    <path d="M 93.823144 761.73491 
C 96.475175 761.73491 99.018943 760.681247 100.894212 758.805978 
C 102.769481 756.930708 103.823144 754.386941 103.823144 751.73491 
C 103.823144 749.082879 102.769481 746.539111 100.894212 744.663842 
C 99.018943 742.788573 96.475175 741.73491 93.823144 741.73491 
C 91.171113 741.73491 88.627345 742.788573 86.752076 744.663842 
C 84.876807 746.539111 83.823144 749.082879 83.823144 751.73491 
C 83.823144 754.386941 84.876807 756.930708 86.752076 758.805978 
C 88.627345 760.681247 91.171113 761.73491 93.823144 761.73491 
z
" clip-path="url(#pea4a8b9ea0)" style="fill: #6b010e; stroke: #6b010e; stroke-width: 3"/>
    <path d="M 150.58882 783.670567 
C 153.240851 783.670567 155.784618 782.616904 157.659887 780.741635 
C 159.535156 778.866366 160.58882 776.322598 160.58882 773.670567 
C 160.58882 771.018536 159.535156 768.474768 157.659887 766.599499 
C 155.784618 764.72423 153.240851 763.670567 150.58882 763.670567 
C 147.936789 763.670567 145.393021 764.72423 143.517752 766.599499 
C 141.642483 768.474768 140.58882 771.018536 140.58882 773.670567 
C 140.58882 776.322598 141.642483 778.866366 143.517752 780.741635 
C 145.393021 782.616904 147.936789 783.670567 150.58882 783.670567 
z
" clip-path="url(#pea4a8b9ea0)" style="fill: #6b010e; stroke: #6b010e; stroke-width: 3"/>
    <path d="M 220.755054 783.670567 
C 223.407085 783.670567 225.950852 782.616904 227.826121 780.741635 
C 229.70139 778.866366 230.755054 776.322598 230.755054 773.670567 
C 230.755054 771.018536 229.70139 768.474768 227.826121 766.599499 
C 225.950852 764.72423 223.407085 763.670567 220.755054 763.670567 
C 218.103023 763.670567 215.559255 764.72423 213.683986 766.599499 
C 211.808717 768.474768 210.755054 771.018536 210.755054 773.670567 
C 210.755054 776.322598 211.808717 778.866366 213.683986 780.741635 
C 215.559255 782.616904 218.103023 783.670567 220.755054 783.670567 
z
" clip-path="url(#pea4a8b9ea0)" style="fill: #6b010e; stroke: #6b010e; stroke-width: 3"/>
    <path d="M 277.520729 753.73491 
C 278.051135 753.73491 278.559889 753.524177 278.934943 753.149123 
C 279.309997 752.77407 279.520729 752.265316 279.520729 751.73491 
C 279.520729 751.204504 279.309997 750.69575 278.934943 750.320696 
C 278.559889 749.945642 278.051135 749.73491 277.520729 749.73491 
C 276.990323 749.73491 276.481569 749.945642 276.106516 750.320696 
C 275.731462 750.69575 275.520729 751.204504 275.520729 751.73491 
C 275.520729 752.265316 275.731462 752.77407 276.106516 753.149123 
C 276.481569 753.524177 276.990323 753.73491 277.520729 753.73491 
z
" clip-path="url(#pea4a8b9ea0)" style="fill: #fdcab5; stroke: #fdcab5; stroke-width: 3"/>
   </g>
   <g id="matplotlib.axis_7"/>
   <g id="matplotlib.axis_8"/>
  </g>
  <g id="axes_5">
   <g id="patch_6">
    <path d="M 45 961.2 
L 324 961.2 
L 324 817.82069 
L 45 817.82069 
z
" style="fill: #ffffff"/>
   </g>
   <g id="EdgeCollection_5">
    <path d="M 300.935339 889.297443 
C 325.933484 901.917158 325.933484 874.677728 300.935339 887.297443 
C 325.933484 874.677728 325.933484 901.917158 300.935339 889.297443 
" clip-path="url(#pa33aa63bb9)" style="fill: #ffffff"/>
    <path d="M 298.160647 886.590721 
L 278.563371 854.511526 
" clip-path="url(#pa33aa63bb9)" style="fill: #ffffff"/>
    <path d="M 297.589493 887.116059 
L 222.368848 832.05053 
" clip-path="url(#pa33aa63bb9)" style="stroke: #000000; stroke-width: 1.156942"/>
    <path d="M 297.33773 887.576545 
L 152.454378 831.590044 
" clip-path="url(#pa33aa63bb9)" style="fill: #ffffff"/>
    <path d="M 297.2325 887.956863 
L 95.793932 853.145385 
" clip-path="url(#pa33aa63bb9)" style="fill: #ffffff"/>
    <path d="M 297.203288 888.297443 
L 82.140585 888.297443 
" clip-path="url(#pa33aa63bb9)" style="fill: #ffffff"/>
    <path d="M 297.2325 888.638024 
L 103.677083 922.08718 
" clip-path="url(#pa33aa63bb9)" style="fill: #ffffff"/>
    <path d="M 297.33773 889.018341 
L 159.91661 942.121251 
" clip-path="url(#pa33aa63bb9)" style="fill: #ffffff"/>
    <path d="M 297.589493 889.478827 
L 222.368848 944.544356 
" clip-path="url(#pa33aa63bb9)" style="fill: #ffffff"/>
    <path d="M 298.160647 890.004165 
L 278.563371 922.08336 
" clip-path="url(#pa33aa63bb9)" style="fill: #ffffff"/>
    <path d="M 279.398359 852.115959 
C 305.1058 841.01227 284.194467 823.556535 277.862986 850.834307 
C 284.194467 823.556535 305.1058 841.01227 279.398359 852.115959 
" clip-path="url(#pa33aa63bb9)" style="fill: #ffffff"/>
    <path d="M 275.655171 852.083906 
L 222.620611 831.590044 
" clip-path="url(#pa33aa63bb9)" style="fill: #ffffff"/>
    <path d="M 275.549941 852.464224 
L 152.559607 831.209727 
" clip-path="url(#pa33aa63bb9)" style="fill: #4d4d4d; stroke: #4d4d4d; stroke-width: 0.774648"/>
    <path d="M 275.520729 852.804804 
L 95.823144 852.804804 
" clip-path="url(#pa33aa63bb9)" style="fill: #ffffff"/>
    <path d="M 275.549941 853.145385 
L 81.994525 886.594541 
" clip-path="url(#pa33aa63bb9)" style="fill: #ffffff"/>
    <path d="M 275.655171 853.525702 
L 103.150934 920.185594 
" clip-path="url(#pa33aa63bb9)" style="stroke: #000000; stroke-width: 2.756539"/>
    <path d="M 275.906935 853.986188 
L 158.657792 939.818821 
" clip-path="url(#pa33aa63bb9)" style="fill: #ffffff"/>
    <path d="M 276.478088 854.511526 
L 221.797695 944.019018 
" clip-path="url(#pa33aa63bb9)" style="fill: #ffffff"/>
    <path d="M 277.520729 854.804804 
L 277.520729 921.790082 
" clip-path="url(#pa33aa63bb9)" style="fill: #ffffff"/>
    <path d="M 222.055644 829.349784 
C 239.044421 807.088923 212.266669 802.095073 220.089542 828.983121 
C 212.266669 802.095073 239.044421 807.088923 222.055644 829.349784 
" clip-path="url(#pa33aa63bb9)" style="fill: #ffffff"/>
    <path d="M 218.755054 830.869147 
L 152.58882 830.869147 
" clip-path="url(#pa33aa63bb9)" style="fill: #ffffff"/>
    <path d="M 218.784266 831.209727 
L 95.793932 852.464224 
" clip-path="url(#pa33aa63bb9)" style="fill: #ffffff"/>
    <path d="M 218.889496 831.590044 
L 81.468375 884.692955 
" clip-path="url(#pa33aa63bb9)" style="fill: #ffffff"/>
    <path d="M 219.141259 832.05053 
L 101.892116 917.883164 
" clip-path="url(#pa33aa63bb9)" style="fill: #ffffff"/>
    <path d="M 219.712412 832.575868 
L 155.802026 937.192131 
" clip-path="url(#pa33aa63bb9)" style="fill: #ffffff"/>
    <path d="M 220.755054 832.869147 
L 220.755054 943.725739 
" clip-path="url(#pa33aa63bb9)" style="fill: #ffffff"/>
    <path d="M 221.797695 832.575868 
L 276.478088 922.08336 
" clip-path="url(#pa33aa63bb9)" style="fill: #ffffff"/>
    <path d="M 151.254331 828.983121 
C 159.077204 802.095073 132.299452 807.088923 149.288229 829.349784 
C 132.299452 807.088923 159.077204 802.095073 151.254331 828.983121 
" clip-path="url(#pa33aa63bb9)" style="fill: #ffffff"/>
    <path d="M 148.723262 831.590044 
L 95.688702 852.083906 
" clip-path="url(#pa33aa63bb9)" style="fill: #ffffff"/>
    <path d="M 148.975025 832.05053 
L 80.209557 882.390525 
" clip-path="url(#pa33aa63bb9)" style="fill: #ffffff"/>
    <path d="M 149.546178 832.575868 
L 99.036351 915.256474 
" clip-path="url(#pa33aa63bb9)" style="fill: #ffffff"/>
    <path d="M 150.58882 832.869147 
L 150.58882 935.725739 
" clip-path="url(#pa33aa63bb9)" style="fill: #ffffff"/>
    <path d="M 151.631461 832.575868 
L 219.712412 944.019018 
" clip-path="url(#pa33aa63bb9)" style="fill: #ffffff"/>
    <path d="M 152.202614 832.05053 
L 275.906935 922.608698 
" clip-path="url(#pa33aa63bb9)" style="fill: #ffffff"/>
    <path d="M 93.480887 850.834307 
C 87.149406 823.556535 66.238073 841.01227 91.945515 852.115959 
C 66.238073 841.01227 87.149406 823.556535 93.480887 850.834307 
" clip-path="url(#pa33aa63bb9)" style="fill: #ffffff"/>
    <path d="M 92.780502 854.511526 
L 77.353792 879.763835 
" clip-path="url(#pa33aa63bb9)" style="fill: #ffffff"/>
    <path d="M 93.823144 854.804804 
L 93.823144 913.790082 
" clip-path="url(#pa33aa63bb9)" style="fill: #ffffff"/>
    <path d="M 94.865785 854.511526 
L 145.375613 937.192131 
" clip-path="url(#pa33aa63bb9)" style="fill: #ffffff"/>
    <path d="M 95.436938 853.986188 
L 219.141259 944.544356 
" clip-path="url(#pa33aa63bb9)" style="fill: #ffffff"/>
    <path d="M 95.688702 853.525702 
L 275.655171 923.069185 
" clip-path="url(#pa33aa63bb9)" style="fill: #ffffff"/>
    <path d="M 63.480331 883.297443 
C 45.410389 874.677728 45.410389 901.917158 63.480331 893.297443 
C 45.410389 901.917158 45.410389 874.677728 63.480331 883.297443 
" clip-path="url(#pa33aa63bb9)" style="fill: #ffffff"/>
    <path d="M 77.353792 896.831052 
L 88.609937 915.256474 
" clip-path="url(#pa33aa63bb9)" style="stroke: #000000; stroke-width: 2.072435"/>
    <path d="M 80.209557 894.204362 
L 142.519847 939.818821 
" clip-path="url(#pa33aa63bb9)" style="fill: #ffffff"/>
    <path d="M 81.468375 891.901931 
L 218.889496 945.004842 
" clip-path="url(#pa33aa63bb9)" style="stroke: #000000; stroke-width: 1.871227"/>
    <path d="M 81.994525 890.000345 
L 275.549941 923.449502 
" clip-path="url(#pa33aa63bb9)" style="stroke: #000000; stroke-width: 2.203219"/>
    <path d="M 84.434997 927.234309 
C 66.238073 935.582616 87.149406 953.038351 92.111859 933.642569 
C 87.149406 953.038351 66.238073 935.582616 84.434997 927.234309 
" clip-path="url(#pa33aa63bb9)" style="fill: #ffffff"/>
    <path d="M 103.150934 927.39457 
L 141.26103 942.121251 
" clip-path="url(#pa33aa63bb9)" style="stroke: #000000; stroke-width: 5"/>
    <path d="M 103.677083 925.492984 
L 218.784266 945.385159 
" clip-path="url(#pa33aa63bb9)" style="fill: #ffffff"/>
    <path d="M 103.823144 923.790082 
L 275.520729 923.790082 
" clip-path="url(#pa33aa63bb9)" style="fill: #ffffff"/>
    <path d="M 144.085865 953.322553 
C 132.299452 969.505963 159.077204 974.499813 153.916376 955.15587 
C 159.077204 974.499813 132.299452 969.505963 144.085865 953.322553 
" clip-path="url(#pa33aa63bb9)" style="fill: #ffffff"/>
    <path d="M 160.58882 945.725739 
L 218.755054 945.725739 
" clip-path="url(#pa33aa63bb9)" style="stroke: #000000; stroke-width: 1.338028"/>
    <path d="M 160.442759 944.022837 
L 275.549941 924.130663 
" clip-path="url(#pa33aa63bb9)" style="stroke: #000000; stroke-width: 1.348089"/>
    <path d="M 220.089542 947.611766 
C 212.266669 974.499813 239.044421 969.505963 222.055644 947.245102 
C 239.044421 969.505963 212.266669 974.499813 220.089542 947.611766 
" clip-path="url(#pa33aa63bb9)" style="fill: #ffffff"/>
    <path d="M 222.620611 945.004842 
L 275.655171 924.51098 
" clip-path="url(#pa33aa63bb9)" style="fill: #ffffff"/>
    <path d="M 277.862986 925.76058 
C 284.194467 953.038351 305.1058 935.582616 279.398359 924.478928 
C 305.1058 935.582616 284.194467 953.038351 277.862986 925.76058 
" clip-path="url(#pa33aa63bb9)" style="fill: #ffffff"/>
   </g>
   <g id="VertexCollection_5">
    <path d="M 299.203288 890.297443 
C 299.733694 890.297443 300.242448 890.086711 300.617501 889.711657 
C 300.992555 889.336603 301.203288 888.827849 301.203288 888.297443 
C 301.203288 887.767037 300.992555 887.258283 300.617501 886.88323 
C 300.242448 886.508176 299.733694 886.297443 299.203288 886.297443 
C 298.672882 886.297443 298.164128 886.508176 297.789074 886.88323 
C 297.414021 887.258283 297.203288 887.767037 297.203288 888.297443 
C 297.203288 888.827849 297.414021 889.336603 297.789074 889.711657 
C 298.164128 890.086711 298.672882 890.297443 299.203288 890.297443 
z
" clip-path="url(#pa33aa63bb9)" style="fill: #fdcab5; stroke: #fdcab5; stroke-width: 3"/>
    <path d="M 277.520729 854.804804 
C 278.051135 854.804804 278.559889 854.594071 278.934943 854.219018 
C 279.309997 853.843964 279.520729 853.33521 279.520729 852.804804 
C 279.520729 852.274398 279.309997 851.765644 278.934943 851.390591 
C 278.559889 851.015537 278.051135 850.804804 277.520729 850.804804 
C 276.990323 850.804804 276.481569 851.015537 276.106516 851.390591 
C 275.731462 851.765644 275.520729 852.274398 275.520729 852.804804 
C 275.520729 853.33521 275.731462 853.843964 276.106516 854.219018 
C 276.481569 854.594071 276.990323 854.804804 277.520729 854.804804 
z
" clip-path="url(#pa33aa63bb9)" style="fill: #fdcab5; stroke: #fdcab5; stroke-width: 3"/>
    <path d="M 220.755054 832.869147 
C 221.28546 832.869147 221.794213 832.658414 222.169267 832.28336 
C 222.544321 831.908307 222.755054 831.399553 222.755054 830.869147 
C 222.755054 830.338741 222.544321 829.829987 222.169267 829.454933 
C 221.794213 829.079879 221.28546 828.869147 220.755054 828.869147 
C 220.224647 828.869147 219.715894 829.079879 219.34084 829.454933 
C 218.965786 829.829987 218.755054 830.338741 218.755054 830.869147 
C 218.755054 831.399553 218.965786 831.908307 219.34084 832.28336 
C 219.715894 832.658414 220.224647 832.869147 220.755054 832.869147 
z
" clip-path="url(#pa33aa63bb9)" style="fill: #fdcab5; stroke: #fdcab5; stroke-width: 3"/>
    <path d="M 150.58882 832.869147 
C 151.119226 832.869147 151.627979 832.658414 152.003033 832.28336 
C 152.378087 831.908307 152.58882 831.399553 152.58882 830.869147 
C 152.58882 830.338741 152.378087 829.829987 152.003033 829.454933 
C 151.627979 829.079879 151.119226 828.869147 150.58882 828.869147 
C 150.058413 828.869147 149.54966 829.079879 149.174606 829.454933 
C 148.799552 829.829987 148.58882 830.338741 148.58882 830.869147 
C 148.58882 831.399553 148.799552 831.908307 149.174606 832.28336 
C 149.54966 832.658414 150.058413 832.869147 150.58882 832.869147 
z
" clip-path="url(#pa33aa63bb9)" style="fill: #fdcab5; stroke: #fdcab5; stroke-width: 3"/>
    <path d="M 93.823144 854.804804 
C 94.35355 854.804804 94.862304 854.594071 95.237357 854.219018 
C 95.612411 853.843964 95.823144 853.33521 95.823144 852.804804 
C 95.823144 852.274398 95.612411 851.765644 95.237357 851.390591 
C 94.862304 851.015537 94.35355 850.804804 93.823144 850.804804 
C 93.292738 850.804804 92.783984 851.015537 92.40893 851.390591 
C 92.033876 851.765644 91.823144 852.274398 91.823144 852.804804 
C 91.823144 853.33521 92.033876 853.843964 92.40893 854.219018 
C 92.783984 854.594071 93.292738 854.804804 93.823144 854.804804 
z
" clip-path="url(#pa33aa63bb9)" style="fill: #fdcab5; stroke: #fdcab5; stroke-width: 3"/>
    <path d="M 72.140585 898.297443 
C 74.792616 898.297443 77.336384 897.24378 79.211653 895.368511 
C 81.086922 893.493242 82.140585 890.949474 82.140585 888.297443 
C 82.140585 885.645412 81.086922 883.101644 79.211653 881.226375 
C 77.336384 879.351106 74.792616 878.297443 72.140585 878.297443 
C 69.488554 878.297443 66.944786 879.351106 65.069517 881.226375 
C 63.194248 883.101644 62.140585 885.645412 62.140585 888.297443 
C 62.140585 890.949474 63.194248 893.493242 65.069517 895.368511 
C 66.944786 897.24378 69.488554 898.297443 72.140585 898.297443 
z
" clip-path="url(#pa33aa63bb9)" style="fill: #6b010e; stroke: #6b010e; stroke-width: 3"/>
    <path d="M 93.823144 933.790082 
C 96.475175 933.790082 99.018943 932.736419 100.894212 930.86115 
C 102.769481 928.985881 103.823144 926.442113 103.823144 923.790082 
C 103.823144 921.138051 102.769481 918.594283 100.894212 916.719014 
C 99.018943 914.843745 96.475175 913.790082 93.823144 913.790082 
C 91.171113 913.790082 88.627345 914.843745 86.752076 916.719014 
C 84.876807 918.594283 83.823144 921.138051 83.823144 923.790082 
C 83.823144 926.442113 84.876807 928.985881 86.752076 930.86115 
C 88.627345 932.736419 91.171113 933.790082 93.823144 933.790082 
z
" clip-path="url(#pa33aa63bb9)" style="fill: #6b010e; stroke: #6b010e; stroke-width: 3"/>
    <path d="M 150.58882 955.725739 
C 153.240851 955.725739 155.784618 954.672076 157.659887 952.796807 
C 159.535156 950.921538 160.58882 948.37777 160.58882 945.725739 
C 160.58882 943.073708 159.535156 940.529941 157.659887 938.654672 
C 155.784618 936.779403 153.240851 935.725739 150.58882 935.725739 
C 147.936789 935.725739 145.393021 936.779403 143.517752 938.654672 
C 141.642483 940.529941 140.58882 943.073708 140.58882 945.725739 
C 140.58882 948.37777 141.642483 950.921538 143.517752 952.796807 
C 145.393021 954.672076 147.936789 955.725739 150.58882 955.725739 
z
" clip-path="url(#pa33aa63bb9)" style="fill: #6b010e; stroke: #6b010e; stroke-width: 3"/>
    <path d="M 220.755054 947.725739 
C 221.28546 947.725739 221.794213 947.515007 222.169267 947.139953 
C 222.544321 946.764899 222.755054 946.256146 222.755054 945.725739 
C 222.755054 945.195333 222.544321 944.68658 222.169267 944.311526 
C 221.794213 943.936472 221.28546 943.725739 220.755054 943.725739 
C 220.224647 943.725739 219.715894 943.936472 219.34084 944.311526 
C 218.965786 944.68658 218.755054 945.195333 218.755054 945.725739 
C 218.755054 946.256146 218.965786 946.764899 219.34084 947.139953 
C 219.715894 947.515007 220.224647 947.725739 220.755054 947.725739 
z
" clip-path="url(#pa33aa63bb9)" style="fill: #fdcab5; stroke: #fdcab5; stroke-width: 3"/>
    <path d="M 277.520729 925.790082 
C 278.051135 925.790082 278.559889 925.57935 278.934943 925.204296 
C 279.309997 924.829242 279.520729 924.320488 279.520729 923.790082 
C 279.520729 923.259676 279.309997 922.750922 278.934943 922.375869 
C 278.559889 922.000815 278.051135 921.790082 277.520729 921.790082 
C 276.990323 921.790082 276.481569 922.000815 276.106516 922.375869 
C 275.731462 922.750922 275.520729 923.259676 275.520729 923.790082 
C 275.520729 924.320488 275.731462 924.829242 276.106516 925.204296 
C 276.481569 925.57935 276.990323 925.790082 277.520729 925.790082 
z
" clip-path="url(#pa33aa63bb9)" style="fill: #fdcab5; stroke: #fdcab5; stroke-width: 3"/>
   </g>
   <g id="matplotlib.axis_9"/>
   <g id="matplotlib.axis_10"/>
  </g>
  <g id="text_1">
   <!-- G10 -->
   <g transform="translate(167.715937 30.718125) scale(0.12 -0.12)">
    <defs>
     <path id="DejaVuSans-47" d="M 3809 666 
L 3809 1919 
L 2778 1919 
L 2778 2438 
L 4434 2438 
L 4434 434 
Q 4069 175 3628 42 
Q 3188 -91 2688 -91 
Q 1594 -91 976 548 
Q 359 1188 359 2328 
Q 359 3472 976 4111 
Q 1594 4750 2688 4750 
Q 3144 4750 3555 4637 
Q 3966 4525 4313 4306 
L 4313 3634 
Q 3963 3931 3569 4081 
Q 3175 4231 2741 4231 
Q 1884 4231 1454 3753 
Q 1025 3275 1025 2328 
Q 1025 1384 1454 906 
Q 1884 428 2741 428 
Q 3075 428 3337 486 
Q 3600 544 3809 666 
z
" transform="scale(0.015625)"/>
     <path id="DejaVuSans-31" d="M 794 531 
L 1825 531 
L 1825 4091 
L 703 3866 
L 703 4441 
L 1819 4666 
L 2450 4666 
L 2450 531 
L 3481 531 
L 3481 0 
L 794 0 
L 794 531 
z
" transform="scale(0.015625)"/>
     <path id="DejaVuSans-30" d="M 2034 4250 
Q 1547 4250 1301 3770 
Q 1056 3291 1056 2328 
Q 1056 1369 1301 889 
Q 1547 409 2034 409 
Q 2525 409 2770 889 
Q 3016 1369 3016 2328 
Q 3016 3291 2770 3770 
Q 2525 4250 2034 4250 
z
M 2034 4750 
Q 2819 4750 3233 4129 
Q 3647 3509 3647 2328 
Q 3647 1150 3233 529 
Q 2819 -91 2034 -91 
Q 1250 -91 836 529 
Q 422 1150 422 2328 
Q 422 3509 836 4129 
Q 1250 4750 2034 4750 
z
" transform="scale(0.015625)"/>
    </defs>
    <use xlink:href="#DejaVuSans-47"/>
    <use xlink:href="#DejaVuSans-31" x="77.490234"/>
    <use xlink:href="#DejaVuSans-30" x="141.113281"/>
   </g>
  </g>
 </g>
 <defs>
  <clipPath id="p83ef85d799">
   <rect x="45" y="129.6" width="279" height="143.37931"/>
  </clipPath>
  <clipPath id="p5298e669f5">
   <rect x="45" y="301.655172" width="279" height="143.37931"/>
  </clipPath>
  <clipPath id="p298fefd8a0">
   <rect x="45" y="473.710345" width="279" height="143.37931"/>
  </clipPath>
  <clipPath id="pea4a8b9ea0">
   <rect x="45" y="645.765517" width="279" height="143.37931"/>
  </clipPath>
  <clipPath id="pa33aa63bb9">
   <rect x="45" y="817.82069" width="279" height="143.37931"/>
  </clipPath>
 </defs>
</svg>
