<?xml version="1.0" encoding="utf-8" standalone="no"?>
<!DOCTYPE svg PUBLIC "-//W3C//DTD SVG 1.1//EN"
  "http://www.w3.org/Graphics/SVG/1.1/DTD/svg11.dtd">
<svg xmlns:xlink="http://www.w3.org/1999/xlink" width="360pt" height="1080pt" viewBox="0 0 360 1080" xmlns="http://www.w3.org/2000/svg" version="1.1">
 <metadata>
  <rdf:RDF xmlns:dc="http://purl.org/dc/elements/1.1/" xmlns:cc="http://creativecommons.org/ns#" xmlns:rdf="http://www.w3.org/1999/02/22-rdf-syntax-ns#">
   <cc:Work>
    <dc:type rdf:resource="http://purl.org/dc/dcmitype/StillImage"/>
    <dc:date>2025-03-10T09:43:43.009926</dc:date>
    <dc:format>image/svg+xml</dc:format>
    <dc:creator>
     <cc:Agent>
      <dc:title>Matplotlib v3.9.2, https://matplotlib.org/</dc:title>
     </cc:Agent>
    </dc:creator>
   </cc:Work>
  </rdf:RDF>
 </metadata>
 <defs>
  <style type="text/css">*{stroke-linejoin: round; stroke-linecap: butt}</style>
 </defs>
 <g id="figure_1">
  <g id="patch_1">
   <path d="M 0 1080 
L 360 1080 
L 360 0 
L 0 0 
z
" style="fill: #ffffff"/>
  </g>
  <g id="axes_1">
   <g id="patch_2">
    <path d="M 45 272.97931 
L 324 272.97931 
L 324 129.6 
L 45 129.6 
z
" style="fill: #ffffff"/>
   </g>
   <g id="EdgeCollection_1">
    <path d="M 300.929321 202.289655 
C 325.927466 214.90937 325.927466 187.66994 300.929321 200.289655 
C 325.927466 187.66994 325.927466 214.90937 300.929321 202.289655 
" clip-path="url(#p4dec1ec7a0)" style="fill: #ffffff"/>
    <path d="M 298.131424 199.597328 
L 278.357888 168.201362 
" clip-path="url(#p4dec1ec7a0)" style="fill: #ffffff"/>
    <path d="M 297.566562 200.13173 
L 221.574114 146.171356 
" clip-path="url(#p4dec1ec7a0)" style="fill: #ffffff"/>
    <path d="M 297.324503 200.587698 
L 158.42043 148.523214 
" clip-path="url(#p4dec1ec7a0)" style="fill: #ffffff"/>
    <path d="M 297.22479 200.959016 
L 93.680439 166.839675 
" clip-path="url(#p4dec1ec7a0)" style="fill: #ffffff"/>
    <path d="M 297.19727 201.289655 
L 71.80273 201.289655 
" clip-path="url(#p4dec1ec7a0)" style="fill: #ffffff"/>
    <path d="M 297.22479 201.620294 
L 93.680439 235.739636 
" clip-path="url(#p4dec1ec7a0)" style="fill: #ffffff"/>
    <path d="M 297.324503 201.991612 
L 150.929361 256.863923 
" clip-path="url(#p4dec1ec7a0)" style="fill: #ffffff"/>
    <path d="M 297.566562 202.447581 
L 228.096945 251.776252 
" clip-path="url(#p4dec1ec7a0)" style="fill: #ffffff"/>
    <path d="M 298.131424 202.981982 
L 282.621275 227.60864 
" clip-path="url(#p4dec1ec7a0)" style="fill: #ffffff"/>
    <path d="M 279.161345 165.797908 
C 304.734909 154.389259 283.617449 137.183463 277.610838 164.534607 
C 283.617449 137.183463 304.734909 154.389259 279.161345 165.797908 
" clip-path="url(#p4dec1ec7a0)" style="fill: #ffffff"/>
    <path d="M 275.419274 165.807079 
L 221.816173 145.715387 
" clip-path="url(#p4dec1ec7a0)" style="fill: #ffffff"/>
    <path d="M 275.319561 166.178396 
L 158.918995 146.666626 
" clip-path="url(#p4dec1ec7a0)" style="fill: #ffffff"/>
    <path d="M 275.292041 166.509035 
L 93.707959 166.509035 
" clip-path="url(#p4dec1ec7a0)" style="fill: #ffffff"/>
    <path d="M 275.319561 166.839675 
L 71.77521 200.959016 
" clip-path="url(#p4dec1ec7a0)" style="fill: #ffffff"/>
    <path d="M 275.419274 167.210992 
L 93.580726 235.368318 
" clip-path="url(#p4dec1ec7a0)" style="fill: #ffffff"/>
    <path d="M 275.661333 167.666961 
L 150.687302 256.407954 
" clip-path="url(#p4dec1ec7a0)" style="fill: #ffffff"/>
    <path d="M 276.226194 168.201362 
L 225.27264 249.104245 
" clip-path="url(#p4dec1ec7a0)" style="fill: #ffffff"/>
    <path d="M 277.292041 168.509035 
L 277.292041 226.070275 
" clip-path="url(#p4dec1ec7a0)" style="stroke: #000000; stroke-width: 2.362832"/>
    <path d="M 221.236282 143.487497 
C 238.112054 121.140847 211.309343 116.282733 219.268347 143.1308 
C 211.309343 116.282733 238.112054 121.140847 221.236282 143.487497 
" clip-path="url(#p4dec1ec7a0)" style="fill: #ffffff"/>
    <path d="M 217.943406 145.01343 
L 159.056594 145.01343 
" clip-path="url(#p4dec1ec7a0)" style="stroke: #000000; stroke-width: 3.513274"/>
    <path d="M 217.970926 145.344069 
L 93.680439 166.178396 
" clip-path="url(#p4dec1ec7a0)" style="fill: #ffffff"/>
    <path d="M 218.070639 145.715387 
L 71.675497 200.587698 
" clip-path="url(#p4dec1ec7a0)" style="fill: #ffffff"/>
    <path d="M 218.312698 146.171356 
L 93.338667 234.912349 
" clip-path="url(#p4dec1ec7a0)" style="fill: #ffffff"/>
    <path d="M 218.877559 146.705757 
L 150.122441 255.873553 
" clip-path="url(#p4dec1ec7a0)" style="fill: #ffffff"/>
    <path d="M 219.943406 147.01343 
L 219.943406 247.56588 
" clip-path="url(#p4dec1ec7a0)" style="stroke: #000000; stroke-width: 2.026549"/>
    <path d="M 221.009252 146.705757 
L 271.962807 227.60864 
" clip-path="url(#p4dec1ec7a0)" style="fill: #ffffff"/>
    <path d="M 152.431887 135.60028 
C 157.690657 116.282733 130.887946 121.140847 142.592213 137.383766 
C 130.887946 121.140847 157.690657 116.282733 152.431887 135.60028 
" clip-path="url(#p4dec1ec7a0)" style="fill: #ffffff"/>
    <path d="M 139.692759 148.523214 
L 93.580726 165.807079 
" clip-path="url(#p4dec1ec7a0)" style="fill: #ffffff"/>
    <path d="M 140.903055 150.803059 
L 71.433438 200.13173 
" clip-path="url(#p4dec1ec7a0)" style="fill: #ffffff"/>
    <path d="M 143.72736 153.475065 
L 92.773806 234.377948 
" clip-path="url(#p4dec1ec7a0)" style="fill: #ffffff"/>
    <path d="M 149.056594 155.01343 
L 149.056594 255.56588 
" clip-path="url(#p4dec1ec7a0)" style="fill: #ffffff"/>
    <path d="M 154.385828 153.475065 
L 214.614172 249.104245 
" clip-path="url(#p4dec1ec7a0)" style="stroke: #000000; stroke-width: 5"/>
    <path d="M 157.210134 150.803059 
L 269.138501 230.280647 
" clip-path="url(#p4dec1ec7a0)" style="stroke: #000000; stroke-width: 2.823009"/>
    <path d="M 91.389162 164.534607 
C 85.382551 137.183463 64.265091 154.389259 89.838655 165.797908 
C 64.265091 154.389259 85.382551 137.183463 91.389162 164.534607 
" clip-path="url(#p4dec1ec7a0)" style="fill: #ffffff"/>
    <path d="M 90.642112 168.201362 
L 70.868576 199.597328 
" clip-path="url(#p4dec1ec7a0)" style="fill: #ffffff"/>
    <path d="M 91.707959 168.509035 
L 91.707959 234.070275 
" clip-path="url(#p4dec1ec7a0)" style="fill: #3a3a3a; stroke: #3a3a3a; stroke-width: 0.823009"/>
    <path d="M 92.773806 168.201362 
L 147.990748 255.873553 
" clip-path="url(#p4dec1ec7a0)" style="fill: #ffffff"/>
    <path d="M 93.338667 167.666961 
L 211.789866 251.776252 
" clip-path="url(#p4dec1ec7a0)" style="fill: #ffffff"/>
    <path d="M 93.580726 167.210992 
L 267.928205 232.560491 
" clip-path="url(#p4dec1ec7a0)" style="fill: #ffffff"/>
    <path d="M 68.070679 200.289655 
C 43.072534 187.66994 43.072534 214.90937 68.070679 202.289655 
C 43.072534 214.90937 43.072534 187.66994 68.070679 200.289655 
" clip-path="url(#p4dec1ec7a0)" style="fill: #ffffff"/>
    <path d="M 70.868576 202.981982 
L 90.642112 234.377948 
" clip-path="url(#p4dec1ec7a0)" style="fill: #ffffff"/>
    <path d="M 71.433438 202.447581 
L 147.425886 256.407954 
" clip-path="url(#p4dec1ec7a0)" style="fill: #ffffff"/>
    <path d="M 71.675497 201.991612 
L 210.57957 254.056096 
" clip-path="url(#p4dec1ec7a0)" style="fill: #ffffff"/>
    <path d="M 71.77521 201.620294 
L 267.42964 234.417079 
" clip-path="url(#p4dec1ec7a0)" style="fill: #ffffff"/>
    <path d="M 89.838655 236.781403 
C 64.265091 248.190051 85.382551 265.395848 91.389162 238.044703 
C 85.382551 265.395848 64.265091 248.190051 89.838655 236.781403 
" clip-path="url(#p4dec1ec7a0)" style="fill: #ffffff"/>
    <path d="M 93.580726 236.772232 
L 147.183827 256.863923 
" clip-path="url(#p4dec1ec7a0)" style="fill: #ffffff"/>
    <path d="M 93.680439 236.400914 
L 210.081005 255.912684 
" clip-path="url(#p4dec1ec7a0)" style="fill: #ffffff"/>
    <path d="M 93.707959 236.070275 
L 267.292041 236.070275 
" clip-path="url(#p4dec1ec7a0)" style="fill: #ffffff"/>
    <path d="M 147.763718 259.091813 
C 130.887946 281.438463 157.690657 286.296577 149.731653 259.44851 
C 157.690657 286.296577 130.887946 281.438463 147.763718 259.091813 
" clip-path="url(#p4dec1ec7a0)" style="fill: #ffffff"/>
    <path d="M 151.056594 257.56588 
L 209.943406 257.56588 
" clip-path="url(#p4dec1ec7a0)" style="fill: #ffffff"/>
    <path d="M 151.029074 257.235241 
L 267.42964 237.72347 
" clip-path="url(#p4dec1ec7a0)" style="fill: #ffffff"/>
    <path d="M 216.568113 266.97903 
C 211.309343 286.296577 238.112054 281.438463 226.407787 265.195544 
C 238.112054 281.438463 211.309343 286.296577 216.568113 266.97903 
" clip-path="url(#p4dec1ec7a0)" style="fill: #ffffff"/>
    <path d="M 229.307241 254.056096 
L 267.928205 239.580059 
" clip-path="url(#p4dec1ec7a0)" style="stroke: #000000; stroke-width: 4.026549"/>
    <path d="M 278.886027 245.942418 
C 283.617449 265.395848 304.734909 248.190051 286.63856 239.625914 
C 304.734909 248.190051 283.617449 265.395848 278.886027 245.942418 
" clip-path="url(#p4dec1ec7a0)" style="fill: #ffffff"/>
   </g>
   <g id="VertexCollection_1">
    <path d="M 299.19727 203.289655 
C 299.727676 203.289655 300.23643 203.078923 300.611484 202.703869 
C 300.986538 202.328815 301.19727 201.820061 301.19727 201.289655 
C 301.19727 200.759249 300.986538 200.250495 300.611484 199.875442 
C 300.23643 199.500388 299.727676 199.289655 299.19727 199.289655 
C 298.666864 199.289655 298.158111 199.500388 297.783057 199.875442 
C 297.408003 200.250495 297.19727 200.759249 297.19727 201.289655 
C 297.19727 201.820061 297.408003 202.328815 297.783057 202.703869 
C 298.158111 203.078923 298.666864 203.289655 299.19727 203.289655 
z
" clip-path="url(#p4dec1ec7a0)" style="fill: #fdcab5; stroke: #fdcab5; stroke-width: 3"/>
    <path d="M 277.292041 168.509035 
C 277.822447 168.509035 278.331201 168.298303 278.706254 167.923249 
C 279.081308 167.548195 279.292041 167.039442 279.292041 166.509035 
C 279.292041 165.978629 279.081308 165.469876 278.706254 165.094822 
C 278.331201 164.719768 277.822447 164.509035 277.292041 164.509035 
C 276.761635 164.509035 276.252881 164.719768 275.877827 165.094822 
C 275.502773 165.469876 275.292041 165.978629 275.292041 166.509035 
C 275.292041 167.039442 275.502773 167.548195 275.877827 167.923249 
C 276.252881 168.298303 276.761635 168.509035 277.292041 168.509035 
z
" clip-path="url(#p4dec1ec7a0)" style="fill: #fdcab5; stroke: #fdcab5; stroke-width: 3"/>
    <path d="M 219.943406 147.01343 
C 220.473812 147.01343 220.982565 146.802698 221.357619 146.427644 
C 221.732673 146.05259 221.943406 145.543837 221.943406 145.01343 
C 221.943406 144.483024 221.732673 143.974271 221.357619 143.599217 
C 220.982565 143.224163 220.473812 143.01343 219.943406 143.01343 
C 219.413 143.01343 218.904246 143.224163 218.529192 143.599217 
C 218.154138 143.974271 217.943406 144.483024 217.943406 145.01343 
C 217.943406 145.543837 218.154138 146.05259 218.529192 146.427644 
C 218.904246 146.802698 219.413 147.01343 219.943406 147.01343 
z
" clip-path="url(#p4dec1ec7a0)" style="fill: #fdcab5; stroke: #fdcab5; stroke-width: 3"/>
    <path d="M 149.056594 155.01343 
C 151.708625 155.01343 154.252393 153.959767 156.127662 152.084498 
C 158.002931 150.209229 159.056594 147.665461 159.056594 145.01343 
C 159.056594 142.361399 158.002931 139.817632 156.127662 137.942363 
C 154.252393 136.067093 151.708625 135.01343 149.056594 135.01343 
C 146.404563 135.01343 143.860796 136.067093 141.985526 137.942363 
C 140.110257 139.817632 139.056594 142.361399 139.056594 145.01343 
C 139.056594 147.665461 140.110257 150.209229 141.985526 152.084498 
C 143.860796 153.959767 146.404563 155.01343 149.056594 155.01343 
z
" clip-path="url(#p4dec1ec7a0)" style="fill: #6b010e; stroke: #6b010e; stroke-width: 3"/>
    <path d="M 91.707959 168.509035 
C 92.238365 168.509035 92.747119 168.298303 93.122173 167.923249 
C 93.497227 167.548195 93.707959 167.039442 93.707959 166.509035 
C 93.707959 165.978629 93.497227 165.469876 93.122173 165.094822 
C 92.747119 164.719768 92.238365 164.509035 91.707959 164.509035 
C 91.177553 164.509035 90.668799 164.719768 90.293746 165.094822 
C 89.918692 165.469876 89.707959 165.978629 89.707959 166.509035 
C 89.707959 167.039442 89.918692 167.548195 90.293746 167.923249 
C 90.668799 168.298303 91.177553 168.509035 91.707959 168.509035 
z
" clip-path="url(#p4dec1ec7a0)" style="fill: #fdcab5; stroke: #fdcab5; stroke-width: 3"/>
    <path d="M 69.80273 203.289655 
C 70.333136 203.289655 70.841889 203.078923 71.216943 202.703869 
C 71.591997 202.328815 71.80273 201.820061 71.80273 201.289655 
C 71.80273 200.759249 71.591997 200.250495 71.216943 199.875442 
C 70.841889 199.500388 70.333136 199.289655 69.80273 199.289655 
C 69.272324 199.289655 68.76357 199.500388 68.388516 199.875442 
C 68.013462 200.250495 67.80273 200.759249 67.80273 201.289655 
C 67.80273 201.820061 68.013462 202.328815 68.388516 202.703869 
C 68.76357 203.078923 69.272324 203.289655 69.80273 203.289655 
z
" clip-path="url(#p4dec1ec7a0)" style="fill: #fdcab5; stroke: #fdcab5; stroke-width: 3"/>
    <path d="M 91.707959 238.070275 
C 92.238365 238.070275 92.747119 237.859542 93.122173 237.484488 
C 93.497227 237.109435 93.707959 236.600681 93.707959 236.070275 
C 93.707959 235.539869 93.497227 235.031115 93.122173 234.656061 
C 92.747119 234.281007 92.238365 234.070275 91.707959 234.070275 
C 91.177553 234.070275 90.668799 234.281007 90.293746 234.656061 
C 89.918692 235.031115 89.707959 235.539869 89.707959 236.070275 
C 89.707959 236.600681 89.918692 237.109435 90.293746 237.484488 
C 90.668799 237.859542 91.177553 238.070275 91.707959 238.070275 
z
" clip-path="url(#p4dec1ec7a0)" style="fill: #fdcab5; stroke: #fdcab5; stroke-width: 3"/>
    <path d="M 149.056594 259.56588 
C 149.587 259.56588 150.095754 259.355147 150.470808 258.980094 
C 150.845862 258.60504 151.056594 258.096286 151.056594 257.56588 
C 151.056594 257.035474 150.845862 256.52672 150.470808 256.151666 
C 150.095754 255.776613 149.587 255.56588 149.056594 255.56588 
C 148.526188 255.56588 148.017435 255.776613 147.642381 256.151666 
C 147.267327 256.52672 147.056594 257.035474 147.056594 257.56588 
C 147.056594 258.096286 147.267327 258.60504 147.642381 258.980094 
C 148.017435 259.355147 148.526188 259.56588 149.056594 259.56588 
z
" clip-path="url(#p4dec1ec7a0)" style="fill: #fdcab5; stroke: #fdcab5; stroke-width: 3"/>
    <path d="M 219.943406 267.56588 
C 222.595437 267.56588 225.139204 266.512217 227.014474 264.636948 
C 228.889743 262.761679 229.943406 260.217911 229.943406 257.56588 
C 229.943406 254.913849 228.889743 252.370081 227.014474 250.494812 
C 225.139204 248.619543 222.595437 247.56588 219.943406 247.56588 
C 217.291375 247.56588 214.747607 248.619543 212.872338 250.494812 
C 210.997069 252.370081 209.943406 254.913849 209.943406 257.56588 
C 209.943406 260.217911 210.997069 262.761679 212.872338 264.636948 
C 214.747607 266.512217 217.291375 267.56588 219.943406 267.56588 
z
" clip-path="url(#p4dec1ec7a0)" style="fill: #6b010e; stroke: #6b010e; stroke-width: 3"/>
    <path d="M 277.292041 246.070275 
C 279.944072 246.070275 282.48784 245.016612 284.363109 243.141343 
C 286.238378 241.266074 287.292041 238.722306 287.292041 236.070275 
C 287.292041 233.418244 286.238378 230.874476 284.363109 228.999207 
C 282.48784 227.123938 279.944072 226.070275 277.292041 226.070275 
C 274.64001 226.070275 272.096242 227.123938 270.220973 228.999207 
C 268.345704 230.874476 267.292041 233.418244 267.292041 236.070275 
C 267.292041 238.722306 268.345704 241.266074 270.220973 243.141343 
C 272.096242 245.016612 274.64001 246.070275 277.292041 246.070275 
z
" clip-path="url(#p4dec1ec7a0)" style="fill: #6b010e; stroke: #6b010e; stroke-width: 3"/>
   </g>
   <g id="matplotlib.axis_1"/>
   <g id="matplotlib.axis_2"/>
  </g>
  <g id="axes_2">
   <g id="patch_3">
    <path d="M 45 445.034483 
L 324 445.034483 
L 324 301.655172 
L 45 301.655172 
z
" style="fill: #ffffff"/>
   </g>
   <g id="EdgeCollection_2">
    <path d="M 300.929321 374.344828 
C 325.927466 386.964543 325.927466 359.725113 300.929321 372.344828 
C 325.927466 359.725113 325.927466 386.964543 300.929321 374.344828 
" clip-path="url(#p86917c8129)" style="fill: #ffffff"/>
    <path d="M 298.131424 371.652501 
L 278.357888 340.256535 
" clip-path="url(#p86917c8129)" style="fill: #ffffff"/>
    <path d="M 297.566562 372.186902 
L 221.574114 318.226528 
" clip-path="url(#p86917c8129)" style="fill: #ffffff"/>
    <path d="M 297.324503 372.642871 
L 158.42043 320.578387 
" clip-path="url(#p86917c8129)" style="fill: #ffffff"/>
    <path d="M 297.22479 373.014188 
L 93.680439 338.894847 
" clip-path="url(#p86917c8129)" style="fill: #ffffff"/>
    <path d="M 297.19727 373.344828 
L 71.80273 373.344828 
" clip-path="url(#p86917c8129)" style="fill: #ffffff"/>
    <path d="M 297.22479 373.675467 
L 93.680439 407.794808 
" clip-path="url(#p86917c8129)" style="fill: #ffffff"/>
    <path d="M 297.324503 374.046784 
L 150.929361 428.919096 
" clip-path="url(#p86917c8129)" style="fill: #ffffff"/>
    <path d="M 297.566562 374.502753 
L 228.096945 423.831424 
" clip-path="url(#p86917c8129)" style="fill: #ffffff"/>
    <path d="M 298.131424 375.037155 
L 282.621275 399.663812 
" clip-path="url(#p86917c8129)" style="fill: #ffffff"/>
    <path d="M 279.161345 337.85308 
C 304.734909 326.444431 283.617449 309.238635 277.610838 336.589779 
C 283.617449 309.238635 304.734909 326.444431 279.161345 337.85308 
" clip-path="url(#p86917c8129)" style="fill: #ffffff"/>
    <path d="M 275.419274 337.862251 
L 221.816173 317.77056 
" clip-path="url(#p86917c8129)" style="fill: #ffffff"/>
    <path d="M 275.319561 338.233569 
L 158.918995 318.721798 
" clip-path="url(#p86917c8129)" style="fill: #ffffff"/>
    <path d="M 275.292041 338.564208 
L 93.707959 338.564208 
" clip-path="url(#p86917c8129)" style="fill: #ffffff"/>
    <path d="M 275.319561 338.894847 
L 71.77521 373.014188 
" clip-path="url(#p86917c8129)" style="fill: #636363; stroke: #636363; stroke-width: 0.695021"/>
    <path d="M 275.419274 339.266165 
L 93.580726 407.423491 
" clip-path="url(#p86917c8129)" style="fill: #ffffff"/>
    <path d="M 275.661333 339.722134 
L 150.687302 428.463127 
" clip-path="url(#p86917c8129)" style="fill: #ffffff"/>
    <path d="M 276.226194 340.256535 
L 225.27264 421.159417 
" clip-path="url(#p86917c8129)" style="fill: #ffffff"/>
    <path d="M 277.292041 340.564208 
L 277.292041 398.125447 
" clip-path="url(#p86917c8129)" style="fill: #ffffff"/>
    <path d="M 221.236282 315.54267 
C 238.112054 293.196019 211.309343 288.337905 219.268347 315.185973 
C 211.309343 288.337905 238.112054 293.196019 221.236282 315.54267 
" clip-path="url(#p86917c8129)" style="fill: #ffffff"/>
    <path d="M 217.943406 317.068603 
L 159.056594 317.068603 
" clip-path="url(#p86917c8129)" style="stroke: #000000; stroke-width: 1.358921"/>
    <path d="M 217.970926 317.399242 
L 93.680439 338.233569 
" clip-path="url(#p86917c8129)" style="fill: #ffffff"/>
    <path d="M 218.070639 317.77056 
L 71.675497 372.642871 
" clip-path="url(#p86917c8129)" style="fill: #ffffff"/>
    <path d="M 218.312698 318.226528 
L 93.338667 406.967522 
" clip-path="url(#p86917c8129)" style="fill: #ffffff"/>
    <path d="M 218.877559 318.76093 
L 150.122441 427.928725 
" clip-path="url(#p86917c8129)" style="fill: #ffffff"/>
    <path d="M 219.943406 319.068603 
L 219.943406 419.621052 
" clip-path="url(#p86917c8129)" style="fill: #3c3c3c; stroke: #3c3c3c; stroke-width: 0.819502"/>
    <path d="M 221.009252 318.76093 
L 271.962807 399.663812 
" clip-path="url(#p86917c8129)" style="fill: #ffffff"/>
    <path d="M 152.431887 307.655452 
C 157.690657 288.337905 130.887946 293.196019 142.592213 309.438938 
C 130.887946 293.196019 157.690657 288.337905 152.431887 307.655452 
" clip-path="url(#p86917c8129)" style="fill: #ffffff"/>
    <path d="M 139.692759 320.578387 
L 93.580726 337.862251 
" clip-path="url(#p86917c8129)" style="fill: #ffffff"/>
    <path d="M 140.903055 322.858231 
L 71.433438 372.186902 
" clip-path="url(#p86917c8129)" style="fill: #ffffff"/>
    <path d="M 143.72736 325.530238 
L 92.773806 406.43312 
" clip-path="url(#p86917c8129)" style="fill: #ffffff"/>
    <path d="M 149.056594 327.068603 
L 149.056594 427.621052 
" clip-path="url(#p86917c8129)" style="fill: #ffffff"/>
    <path d="M 154.385828 325.530238 
L 214.614172 421.159417 
" clip-path="url(#p86917c8129)" style="stroke: #000000; stroke-width: 5"/>
    <path d="M 157.210134 322.858231 
L 269.138501 402.335819 
" clip-path="url(#p86917c8129)" style="stroke: #000000; stroke-width: 1.846473"/>
    <path d="M 91.389162 336.589779 
C 85.382551 309.238635 64.265091 326.444431 89.838655 337.85308 
C 64.265091 326.444431 85.382551 309.238635 91.389162 336.589779 
" clip-path="url(#p86917c8129)" style="fill: #ffffff"/>
    <path d="M 90.642112 340.256535 
L 70.868576 371.652501 
" clip-path="url(#p86917c8129)" style="fill: #ffffff"/>
    <path d="M 91.707959 340.564208 
L 91.707959 406.125447 
" clip-path="url(#p86917c8129)" style="fill: #cdcdcd; stroke: #cdcdcd; stroke-width: 0.311203"/>
    <path d="M 92.773806 340.256535 
L 147.990748 427.928725 
" clip-path="url(#p86917c8129)" style="fill: #ffffff"/>
    <path d="M 93.338667 339.722134 
L 211.789866 423.831424 
" clip-path="url(#p86917c8129)" style="fill: #ffffff"/>
    <path d="M 93.580726 339.266165 
L 267.928205 404.615663 
" clip-path="url(#p86917c8129)" style="fill: #ffffff"/>
    <path d="M 68.070679 372.344828 
C 43.072534 359.725113 43.072534 386.964543 68.070679 374.344828 
C 43.072534 386.964543 43.072534 359.725113 68.070679 372.344828 
" clip-path="url(#p86917c8129)" style="fill: #ffffff"/>
    <path d="M 70.868576 375.037155 
L 90.642112 406.43312 
" clip-path="url(#p86917c8129)" style="fill: #ffffff"/>
    <path d="M 71.433438 374.502753 
L 147.425886 428.463127 
" clip-path="url(#p86917c8129)" style="fill: #ffffff"/>
    <path d="M 71.675497 374.046784 
L 210.57957 426.111269 
" clip-path="url(#p86917c8129)" style="fill: #ffffff"/>
    <path d="M 71.77521 373.675467 
L 267.42964 406.472252 
" clip-path="url(#p86917c8129)" style="stroke: #000000; stroke-width: 1.327801"/>
    <path d="M 89.838655 408.836575 
C 64.265091 420.245224 85.382551 437.45102 91.389162 410.099876 
C 85.382551 437.45102 64.265091 420.245224 89.838655 408.836575 
" clip-path="url(#p86917c8129)" style="fill: #ffffff"/>
    <path d="M 93.580726 408.827404 
L 147.183827 428.919096 
" clip-path="url(#p86917c8129)" style="fill: #ffffff"/>
    <path d="M 93.680439 408.456086 
L 210.081005 427.967857 
" clip-path="url(#p86917c8129)" style="fill: #ffffff"/>
    <path d="M 93.707959 408.125447 
L 267.292041 408.125447 
" clip-path="url(#p86917c8129)" style="fill: #ffffff"/>
    <path d="M 147.763718 431.146985 
C 130.887946 453.493636 157.690657 458.35175 149.731653 431.503682 
C 157.690657 458.35175 130.887946 453.493636 147.763718 431.146985 
" clip-path="url(#p86917c8129)" style="fill: #ffffff"/>
    <path d="M 151.056594 429.621052 
L 209.943406 429.621052 
" clip-path="url(#p86917c8129)" style="fill: #ffffff"/>
    <path d="M 151.029074 429.290413 
L 267.42964 409.778643 
" clip-path="url(#p86917c8129)" style="fill: #ffffff"/>
    <path d="M 216.568113 439.034203 
C 211.309343 458.35175 238.112054 453.493636 226.407787 437.250717 
C 238.112054 453.493636 211.309343 458.35175 216.568113 439.034203 
" clip-path="url(#p86917c8129)" style="fill: #ffffff"/>
    <path d="M 229.307241 426.111269 
L 267.928205 411.635231 
" clip-path="url(#p86917c8129)" style="stroke: #000000; stroke-width: 2.448133"/>
    <path d="M 278.886027 417.99759 
C 283.617449 437.45102 304.734909 420.245224 286.63856 411.681087 
C 304.734909 420.245224 283.617449 437.45102 278.886027 417.99759 
" clip-path="url(#p86917c8129)" style="fill: #ffffff"/>
   </g>
   <g id="VertexCollection_2">
    <path d="M 299.19727 375.344828 
C 299.727676 375.344828 300.23643 375.134095 300.611484 374.759041 
C 300.986538 374.383987 301.19727 373.875234 301.19727 373.344828 
C 301.19727 372.814421 300.986538 372.305668 300.611484 371.930614 
C 300.23643 371.55556 299.727676 371.344828 299.19727 371.344828 
C 298.666864 371.344828 298.158111 371.55556 297.783057 371.930614 
C 297.408003 372.305668 297.19727 372.814421 297.19727 373.344828 
C 297.19727 373.875234 297.408003 374.383987 297.783057 374.759041 
C 298.158111 375.134095 298.666864 375.344828 299.19727 375.344828 
z
" clip-path="url(#p86917c8129)" style="fill: #fdcab5; stroke: #fdcab5; stroke-width: 3"/>
    <path d="M 277.292041 340.564208 
C 277.822447 340.564208 278.331201 340.353475 278.706254 339.978421 
C 279.081308 339.603368 279.292041 339.094614 279.292041 338.564208 
C 279.292041 338.033802 279.081308 337.525048 278.706254 337.149994 
C 278.331201 336.774941 277.822447 336.564208 277.292041 336.564208 
C 276.761635 336.564208 276.252881 336.774941 275.877827 337.149994 
C 275.502773 337.525048 275.292041 338.033802 275.292041 338.564208 
C 275.292041 339.094614 275.502773 339.603368 275.877827 339.978421 
C 276.252881 340.353475 276.761635 340.564208 277.292041 340.564208 
z
" clip-path="url(#p86917c8129)" style="fill: #fdcab5; stroke: #fdcab5; stroke-width: 3"/>
    <path d="M 219.943406 319.068603 
C 220.473812 319.068603 220.982565 318.85787 221.357619 318.482816 
C 221.732673 318.107763 221.943406 317.599009 221.943406 317.068603 
C 221.943406 316.538197 221.732673 316.029443 221.357619 315.654389 
C 220.982565 315.279335 220.473812 315.068603 219.943406 315.068603 
C 219.413 315.068603 218.904246 315.279335 218.529192 315.654389 
C 218.154138 316.029443 217.943406 316.538197 217.943406 317.068603 
C 217.943406 317.599009 218.154138 318.107763 218.529192 318.482816 
C 218.904246 318.85787 219.413 319.068603 219.943406 319.068603 
z
" clip-path="url(#p86917c8129)" style="fill: #fdcab5; stroke: #fdcab5; stroke-width: 3"/>
    <path d="M 149.056594 327.068603 
C 151.708625 327.068603 154.252393 326.01494 156.127662 324.139671 
C 158.002931 322.264401 159.056594 319.720634 159.056594 317.068603 
C 159.056594 314.416572 158.002931 311.872804 156.127662 309.997535 
C 154.252393 308.122266 151.708625 307.068603 149.056594 307.068603 
C 146.404563 307.068603 143.860796 308.122266 141.985526 309.997535 
C 140.110257 311.872804 139.056594 314.416572 139.056594 317.068603 
C 139.056594 319.720634 140.110257 322.264401 141.985526 324.139671 
C 143.860796 326.01494 146.404563 327.068603 149.056594 327.068603 
z
" clip-path="url(#p86917c8129)" style="fill: #6b010e; stroke: #6b010e; stroke-width: 3"/>
    <path d="M 91.707959 340.564208 
C 92.238365 340.564208 92.747119 340.353475 93.122173 339.978421 
C 93.497227 339.603368 93.707959 339.094614 93.707959 338.564208 
C 93.707959 338.033802 93.497227 337.525048 93.122173 337.149994 
C 92.747119 336.774941 92.238365 336.564208 91.707959 336.564208 
C 91.177553 336.564208 90.668799 336.774941 90.293746 337.149994 
C 89.918692 337.525048 89.707959 338.033802 89.707959 338.564208 
C 89.707959 339.094614 89.918692 339.603368 90.293746 339.978421 
C 90.668799 340.353475 91.177553 340.564208 91.707959 340.564208 
z
" clip-path="url(#p86917c8129)" style="fill: #fdcab5; stroke: #fdcab5; stroke-width: 3"/>
    <path d="M 69.80273 375.344828 
C 70.333136 375.344828 70.841889 375.134095 71.216943 374.759041 
C 71.591997 374.383987 71.80273 373.875234 71.80273 373.344828 
C 71.80273 372.814421 71.591997 372.305668 71.216943 371.930614 
C 70.841889 371.55556 70.333136 371.344828 69.80273 371.344828 
C 69.272324 371.344828 68.76357 371.55556 68.388516 371.930614 
C 68.013462 372.305668 67.80273 372.814421 67.80273 373.344828 
C 67.80273 373.875234 68.013462 374.383987 68.388516 374.759041 
C 68.76357 375.134095 69.272324 375.344828 69.80273 375.344828 
z
" clip-path="url(#p86917c8129)" style="fill: #fdcab5; stroke: #fdcab5; stroke-width: 3"/>
    <path d="M 91.707959 410.125447 
C 92.238365 410.125447 92.747119 409.914715 93.122173 409.539661 
C 93.497227 409.164607 93.707959 408.655853 93.707959 408.125447 
C 93.707959 407.595041 93.497227 407.086288 93.122173 406.711234 
C 92.747119 406.33618 92.238365 406.125447 91.707959 406.125447 
C 91.177553 406.125447 90.668799 406.33618 90.293746 406.711234 
C 89.918692 407.086288 89.707959 407.595041 89.707959 408.125447 
C 89.707959 408.655853 89.918692 409.164607 90.293746 409.539661 
C 90.668799 409.914715 91.177553 410.125447 91.707959 410.125447 
z
" clip-path="url(#p86917c8129)" style="fill: #fdcab5; stroke: #fdcab5; stroke-width: 3"/>
    <path d="M 149.056594 431.621052 
C 149.587 431.621052 150.095754 431.41032 150.470808 431.035266 
C 150.845862 430.660212 151.056594 430.151459 151.056594 429.621052 
C 151.056594 429.090646 150.845862 428.581893 150.470808 428.206839 
C 150.095754 427.831785 149.587 427.621052 149.056594 427.621052 
C 148.526188 427.621052 148.017435 427.831785 147.642381 428.206839 
C 147.267327 428.581893 147.056594 429.090646 147.056594 429.621052 
C 147.056594 430.151459 147.267327 430.660212 147.642381 431.035266 
C 148.017435 431.41032 148.526188 431.621052 149.056594 431.621052 
z
" clip-path="url(#p86917c8129)" style="fill: #fdcab5; stroke: #fdcab5; stroke-width: 3"/>
    <path d="M 219.943406 439.621052 
C 222.595437 439.621052 225.139204 438.567389 227.014474 436.69212 
C 228.889743 434.816851 229.943406 432.273083 229.943406 429.621052 
C 229.943406 426.969021 228.889743 424.425254 227.014474 422.549985 
C 225.139204 420.674715 222.595437 419.621052 219.943406 419.621052 
C 217.291375 419.621052 214.747607 420.674715 212.872338 422.549985 
C 210.997069 424.425254 209.943406 426.969021 209.943406 429.621052 
C 209.943406 432.273083 210.997069 434.816851 212.872338 436.69212 
C 214.747607 438.567389 217.291375 439.621052 219.943406 439.621052 
z
" clip-path="url(#p86917c8129)" style="fill: #6b010e; stroke: #6b010e; stroke-width: 3"/>
    <path d="M 277.292041 418.125447 
C 279.944072 418.125447 282.48784 417.071784 284.363109 415.196515 
C 286.238378 413.321246 287.292041 410.777478 287.292041 408.125447 
C 287.292041 405.473416 286.238378 402.929649 284.363109 401.054379 
C 282.48784 399.17911 279.944072 398.125447 277.292041 398.125447 
C 274.64001 398.125447 272.096242 399.17911 270.220973 401.054379 
C 268.345704 402.929649 267.292041 405.473416 267.292041 408.125447 
C 267.292041 410.777478 268.345704 413.321246 270.220973 415.196515 
C 272.096242 417.071784 274.64001 418.125447 277.292041 418.125447 
z
" clip-path="url(#p86917c8129)" style="fill: #6b010e; stroke: #6b010e; stroke-width: 3"/>
   </g>
   <g id="matplotlib.axis_3"/>
   <g id="matplotlib.axis_4"/>
  </g>
  <g id="axes_3">
   <g id="patch_4">
    <path d="M 45 617.089655 
L 324 617.089655 
L 324 473.710345 
L 45 473.710345 
z
" style="fill: #ffffff"/>
   </g>
   <g id="EdgeCollection_3">
    <path d="M 300.929321 546.4 
C 325.927466 559.019715 325.927466 531.780285 300.929321 544.4 
C 325.927466 531.780285 325.927466 559.019715 300.929321 546.4 
" clip-path="url(#p6749f0c05d)" style="fill: #ffffff"/>
    <path d="M 298.131424 543.707673 
L 278.357888 512.311707 
" clip-path="url(#p6749f0c05d)" style="fill: #ffffff"/>
    <path d="M 297.566562 544.242074 
L 221.574114 490.281701 
" clip-path="url(#p6749f0c05d)" style="fill: #ffffff"/>
    <path d="M 297.324503 544.698043 
L 158.42043 492.633559 
" clip-path="url(#p6749f0c05d)" style="fill: #ffffff"/>
    <path d="M 297.22479 545.069361 
L 93.680439 510.950019 
" clip-path="url(#p6749f0c05d)" style="fill: #ffffff"/>
    <path d="M 297.19727 545.4 
L 71.80273 545.4 
" clip-path="url(#p6749f0c05d)" style="fill: #ffffff"/>
    <path d="M 297.22479 545.730639 
L 93.680439 579.849981 
" clip-path="url(#p6749f0c05d)" style="fill: #ffffff"/>
    <path d="M 297.324503 546.101957 
L 150.929361 600.974268 
" clip-path="url(#p6749f0c05d)" style="fill: #ffffff"/>
    <path d="M 297.566562 546.557926 
L 228.096945 595.886597 
" clip-path="url(#p6749f0c05d)" style="fill: #ffffff"/>
    <path d="M 298.131424 547.092327 
L 282.621275 571.718985 
" clip-path="url(#p6749f0c05d)" style="fill: #ffffff"/>
    <path d="M 279.161345 509.908252 
C 304.734909 498.499604 283.617449 481.293808 277.610838 508.644952 
C 283.617449 481.293808 304.734909 498.499604 279.161345 509.908252 
" clip-path="url(#p6749f0c05d)" style="fill: #ffffff"/>
    <path d="M 275.419274 509.917424 
L 221.816173 489.825732 
" clip-path="url(#p6749f0c05d)" style="fill: #ffffff"/>
    <path d="M 275.319561 510.288741 
L 158.918995 490.776971 
" clip-path="url(#p6749f0c05d)" style="stroke: #000000; stroke-width: 1.561033"/>
    <path d="M 275.292041 510.61938 
L 93.707959 510.61938 
" clip-path="url(#p6749f0c05d)" style="fill: #ffffff"/>
    <path d="M 275.319561 510.950019 
L 71.77521 545.069361 
" clip-path="url(#p6749f0c05d)" style="fill: #ffffff"/>
    <path d="M 275.419274 511.321337 
L 93.580726 579.478663 
" clip-path="url(#p6749f0c05d)" style="fill: #ffffff"/>
    <path d="M 275.661333 511.777306 
L 150.687302 600.518299 
" clip-path="url(#p6749f0c05d)" style="fill: #ffffff"/>
    <path d="M 276.226194 512.311707 
L 225.27264 593.21459 
" clip-path="url(#p6749f0c05d)" style="fill: #ffffff"/>
    <path d="M 277.292041 512.61938 
L 277.292041 570.18062 
" clip-path="url(#p6749f0c05d)" style="stroke: #000000; stroke-width: 1.7723"/>
    <path d="M 221.236282 487.597842 
C 238.112054 465.251192 211.309343 460.393078 219.268347 487.241145 
C 211.309343 460.393078 238.112054 465.251192 221.236282 487.597842 
" clip-path="url(#p6749f0c05d)" style="fill: #ffffff"/>
    <path d="M 217.943406 489.123775 
L 159.056594 489.123775 
" clip-path="url(#p6749f0c05d)" style="fill: #ffffff"/>
    <path d="M 217.970926 489.454414 
L 93.680439 510.288741 
" clip-path="url(#p6749f0c05d)" style="fill: #ffffff"/>
    <path d="M 218.070639 489.825732 
L 71.675497 544.698043 
" clip-path="url(#p6749f0c05d)" style="fill: #ffffff"/>
    <path d="M 218.312698 490.281701 
L 93.338667 579.022694 
" clip-path="url(#p6749f0c05d)" style="fill: #ffffff"/>
    <path d="M 218.877559 490.816102 
L 150.122441 599.983898 
" clip-path="url(#p6749f0c05d)" style="fill: #ffffff"/>
    <path d="M 219.943406 491.123775 
L 219.943406 591.676225 
" clip-path="url(#p6749f0c05d)" style="fill: #ffffff"/>
    <path d="M 221.009252 490.816102 
L 271.962807 571.718985 
" clip-path="url(#p6749f0c05d)" style="fill: #ffffff"/>
    <path d="M 152.431887 479.710625 
C 157.690657 460.393078 130.887946 465.251192 142.592213 481.494111 
C 130.887946 465.251192 157.690657 460.393078 152.431887 479.710625 
" clip-path="url(#p6749f0c05d)" style="fill: #ffffff"/>
    <path d="M 139.692759 492.633559 
L 93.580726 509.917424 
" clip-path="url(#p6749f0c05d)" style="fill: #ffffff"/>
    <path d="M 140.903055 494.913403 
L 71.433438 544.242074 
" clip-path="url(#p6749f0c05d)" style="fill: #ffffff"/>
    <path d="M 143.72736 497.58541 
L 92.773806 578.488293 
" clip-path="url(#p6749f0c05d)" style="fill: #ffffff"/>
    <path d="M 149.056594 499.123775 
L 149.056594 599.676225 
" clip-path="url(#p6749f0c05d)" style="fill: #ffffff"/>
    <path d="M 154.385828 497.58541 
L 214.614172 593.21459 
" clip-path="url(#p6749f0c05d)" style="stroke: #000000; stroke-width: 5"/>
    <path d="M 157.210134 494.913403 
L 269.138501 574.390991 
" clip-path="url(#p6749f0c05d)" style="stroke: #000000; stroke-width: 2.13615"/>
    <path d="M 91.389162 508.644952 
C 85.382551 481.293808 64.265091 498.499604 89.838655 509.908252 
C 64.265091 498.499604 85.382551 481.293808 91.389162 508.644952 
" clip-path="url(#p6749f0c05d)" style="fill: #ffffff"/>
    <path d="M 90.642112 512.311707 
L 70.868576 543.707673 
" clip-path="url(#p6749f0c05d)" style="fill: #ffffff"/>
    <path d="M 91.707959 512.61938 
L 91.707959 578.18062 
" clip-path="url(#p6749f0c05d)" style="fill: #989898; stroke: #989898; stroke-width: 0.504695"/>
    <path d="M 92.773806 512.311707 
L 147.990748 599.983898 
" clip-path="url(#p6749f0c05d)" style="fill: #ffffff"/>
    <path d="M 93.338667 511.777306 
L 211.789866 595.886597 
" clip-path="url(#p6749f0c05d)" style="fill: #ffffff"/>
    <path d="M 93.580726 511.321337 
L 267.928205 576.670836 
" clip-path="url(#p6749f0c05d)" style="fill: #ffffff"/>
    <path d="M 68.070679 544.4 
C 43.072534 531.780285 43.072534 559.019715 68.070679 546.4 
C 43.072534 559.019715 43.072534 531.780285 68.070679 544.4 
" clip-path="url(#p6749f0c05d)" style="fill: #ffffff"/>
    <path d="M 70.868576 547.092327 
L 90.642112 578.488293 
" clip-path="url(#p6749f0c05d)" style="fill: #ffffff"/>
    <path d="M 71.433438 546.557926 
L 147.425886 600.518299 
" clip-path="url(#p6749f0c05d)" style="fill: #ffffff"/>
    <path d="M 71.675497 546.101957 
L 210.57957 598.166441 
" clip-path="url(#p6749f0c05d)" style="stroke: #000000; stroke-width: 1.349765"/>
    <path d="M 71.77521 545.730639 
L 267.42964 578.527424 
" clip-path="url(#p6749f0c05d)" style="fill: #ffffff"/>
    <path d="M 89.838655 580.891748 
C 64.265091 592.300396 85.382551 609.506192 91.389162 582.155048 
C 85.382551 609.506192 64.265091 592.300396 89.838655 580.891748 
" clip-path="url(#p6749f0c05d)" style="fill: #ffffff"/>
    <path d="M 93.580726 580.882576 
L 147.183827 600.974268 
" clip-path="url(#p6749f0c05d)" style="fill: #ffffff"/>
    <path d="M 93.680439 580.511259 
L 210.081005 600.023029 
" clip-path="url(#p6749f0c05d)" style="fill: #ffffff"/>
    <path d="M 93.707959 580.18062 
L 267.292041 580.18062 
" clip-path="url(#p6749f0c05d)" style="fill: #ffffff"/>
    <path d="M 147.763718 603.202158 
C 130.887946 625.548808 157.690657 630.406922 149.731653 603.558855 
C 157.690657 630.406922 130.887946 625.548808 147.763718 603.202158 
" clip-path="url(#p6749f0c05d)" style="fill: #ffffff"/>
    <path d="M 151.056594 601.676225 
L 209.943406 601.676225 
" clip-path="url(#p6749f0c05d)" style="fill: #ffffff"/>
    <path d="M 151.029074 601.345586 
L 267.42964 581.833815 
" clip-path="url(#p6749f0c05d)" style="fill: #ffffff"/>
    <path d="M 216.568113 611.089375 
C 211.309343 630.406922 238.112054 625.548808 226.407787 609.305889 
C 238.112054 625.548808 211.309343 630.406922 216.568113 611.089375 
" clip-path="url(#p6749f0c05d)" style="fill: #ffffff"/>
    <path d="M 229.307241 598.166441 
L 267.928205 583.690404 
" clip-path="url(#p6749f0c05d)" style="stroke: #000000; stroke-width: 2.124413"/>
    <path d="M 278.886027 590.052763 
C 283.617449 609.506192 304.734909 592.300396 286.63856 583.736259 
C 304.734909 592.300396 283.617449 609.506192 278.886027 590.052763 
" clip-path="url(#p6749f0c05d)" style="fill: #ffffff"/>
   </g>
   <g id="VertexCollection_3">
    <path d="M 299.19727 547.4 
C 299.727676 547.4 300.23643 547.189267 300.611484 546.814214 
C 300.986538 546.43916 301.19727 545.930406 301.19727 545.4 
C 301.19727 544.869594 300.986538 544.36084 300.611484 543.985786 
C 300.23643 543.610733 299.727676 543.4 299.19727 543.4 
C 298.666864 543.4 298.158111 543.610733 297.783057 543.985786 
C 297.408003 544.36084 297.19727 544.869594 297.19727 545.4 
C 297.19727 545.930406 297.408003 546.43916 297.783057 546.814214 
C 298.158111 547.189267 298.666864 547.4 299.19727 547.4 
z
" clip-path="url(#p6749f0c05d)" style="fill: #fdcab5; stroke: #fdcab5; stroke-width: 3"/>
    <path d="M 277.292041 512.61938 
C 277.822447 512.61938 278.331201 512.408648 278.706254 512.033594 
C 279.081308 511.65854 279.292041 511.149787 279.292041 510.61938 
C 279.292041 510.088974 279.081308 509.580221 278.706254 509.205167 
C 278.331201 508.830113 277.822447 508.61938 277.292041 508.61938 
C 276.761635 508.61938 276.252881 508.830113 275.877827 509.205167 
C 275.502773 509.580221 275.292041 510.088974 275.292041 510.61938 
C 275.292041 511.149787 275.502773 511.65854 275.877827 512.033594 
C 276.252881 512.408648 276.761635 512.61938 277.292041 512.61938 
z
" clip-path="url(#p6749f0c05d)" style="fill: #fdcab5; stroke: #fdcab5; stroke-width: 3"/>
    <path d="M 219.943406 491.123775 
C 220.473812 491.123775 220.982565 490.913043 221.357619 490.537989 
C 221.732673 490.162935 221.943406 489.654181 221.943406 489.123775 
C 221.943406 488.593369 221.732673 488.084615 221.357619 487.709562 
C 220.982565 487.334508 220.473812 487.123775 219.943406 487.123775 
C 219.413 487.123775 218.904246 487.334508 218.529192 487.709562 
C 218.154138 488.084615 217.943406 488.593369 217.943406 489.123775 
C 217.943406 489.654181 218.154138 490.162935 218.529192 490.537989 
C 218.904246 490.913043 219.413 491.123775 219.943406 491.123775 
z
" clip-path="url(#p6749f0c05d)" style="fill: #fdcab5; stroke: #fdcab5; stroke-width: 3"/>
    <path d="M 149.056594 499.123775 
C 151.708625 499.123775 154.252393 498.070112 156.127662 496.194843 
C 158.002931 494.319574 159.056594 491.775806 159.056594 489.123775 
C 159.056594 486.471744 158.002931 483.927976 156.127662 482.052707 
C 154.252393 480.177438 151.708625 479.123775 149.056594 479.123775 
C 146.404563 479.123775 143.860796 480.177438 141.985526 482.052707 
C 140.110257 483.927976 139.056594 486.471744 139.056594 489.123775 
C 139.056594 491.775806 140.110257 494.319574 141.985526 496.194843 
C 143.860796 498.070112 146.404563 499.123775 149.056594 499.123775 
z
" clip-path="url(#p6749f0c05d)" style="fill: #6b010e; stroke: #6b010e; stroke-width: 3"/>
    <path d="M 91.707959 512.61938 
C 92.238365 512.61938 92.747119 512.408648 93.122173 512.033594 
C 93.497227 511.65854 93.707959 511.149787 93.707959 510.61938 
C 93.707959 510.088974 93.497227 509.580221 93.122173 509.205167 
C 92.747119 508.830113 92.238365 508.61938 91.707959 508.61938 
C 91.177553 508.61938 90.668799 508.830113 90.293746 509.205167 
C 89.918692 509.580221 89.707959 510.088974 89.707959 510.61938 
C 89.707959 511.149787 89.918692 511.65854 90.293746 512.033594 
C 90.668799 512.408648 91.177553 512.61938 91.707959 512.61938 
z
" clip-path="url(#p6749f0c05d)" style="fill: #fdcab5; stroke: #fdcab5; stroke-width: 3"/>
    <path d="M 69.80273 547.4 
C 70.333136 547.4 70.841889 547.189267 71.216943 546.814214 
C 71.591997 546.43916 71.80273 545.930406 71.80273 545.4 
C 71.80273 544.869594 71.591997 544.36084 71.216943 543.985786 
C 70.841889 543.610733 70.333136 543.4 69.80273 543.4 
C 69.272324 543.4 68.76357 543.610733 68.388516 543.985786 
C 68.013462 544.36084 67.80273 544.869594 67.80273 545.4 
C 67.80273 545.930406 68.013462 546.43916 68.388516 546.814214 
C 68.76357 547.189267 69.272324 547.4 69.80273 547.4 
z
" clip-path="url(#p6749f0c05d)" style="fill: #fdcab5; stroke: #fdcab5; stroke-width: 3"/>
    <path d="M 91.707959 582.18062 
C 92.238365 582.18062 92.747119 581.969887 93.122173 581.594833 
C 93.497227 581.219779 93.707959 580.711026 93.707959 580.18062 
C 93.707959 579.650213 93.497227 579.14146 93.122173 578.766406 
C 92.747119 578.391352 92.238365 578.18062 91.707959 578.18062 
C 91.177553 578.18062 90.668799 578.391352 90.293746 578.766406 
C 89.918692 579.14146 89.707959 579.650213 89.707959 580.18062 
C 89.707959 580.711026 89.918692 581.219779 90.293746 581.594833 
C 90.668799 581.969887 91.177553 582.18062 91.707959 582.18062 
z
" clip-path="url(#p6749f0c05d)" style="fill: #fdcab5; stroke: #fdcab5; stroke-width: 3"/>
    <path d="M 149.056594 603.676225 
C 149.587 603.676225 150.095754 603.465492 150.470808 603.090438 
C 150.845862 602.715385 151.056594 602.206631 151.056594 601.676225 
C 151.056594 601.145819 150.845862 600.637065 150.470808 600.262011 
C 150.095754 599.886957 149.587 599.676225 149.056594 599.676225 
C 148.526188 599.676225 148.017435 599.886957 147.642381 600.262011 
C 147.267327 600.637065 147.056594 601.145819 147.056594 601.676225 
C 147.056594 602.206631 147.267327 602.715385 147.642381 603.090438 
C 148.017435 603.465492 148.526188 603.676225 149.056594 603.676225 
z
" clip-path="url(#p6749f0c05d)" style="fill: #fdcab5; stroke: #fdcab5; stroke-width: 3"/>
    <path d="M 219.943406 611.676225 
C 222.595437 611.676225 225.139204 610.622562 227.014474 608.747293 
C 228.889743 606.872024 229.943406 604.328256 229.943406 601.676225 
C 229.943406 599.024194 228.889743 596.480426 227.014474 594.605157 
C 225.139204 592.729888 222.595437 591.676225 219.943406 591.676225 
C 217.291375 591.676225 214.747607 592.729888 212.872338 594.605157 
C 210.997069 596.480426 209.943406 599.024194 209.943406 601.676225 
C 209.943406 604.328256 210.997069 606.872024 212.872338 608.747293 
C 214.747607 610.622562 217.291375 611.676225 219.943406 611.676225 
z
" clip-path="url(#p6749f0c05d)" style="fill: #6b010e; stroke: #6b010e; stroke-width: 3"/>
    <path d="M 277.292041 590.18062 
C 279.944072 590.18062 282.48784 589.126957 284.363109 587.251688 
C 286.238378 585.376418 287.292041 582.832651 287.292041 580.18062 
C 287.292041 577.528589 286.238378 574.984821 284.363109 573.109552 
C 282.48784 571.234283 279.944072 570.18062 277.292041 570.18062 
C 274.64001 570.18062 272.096242 571.234283 270.220973 573.109552 
C 268.345704 574.984821 267.292041 577.528589 267.292041 580.18062 
C 267.292041 582.832651 268.345704 585.376418 270.220973 587.251688 
C 272.096242 589.126957 274.64001 590.18062 277.292041 590.18062 
z
" clip-path="url(#p6749f0c05d)" style="fill: #6b010e; stroke: #6b010e; stroke-width: 3"/>
   </g>
   <g id="matplotlib.axis_5"/>
   <g id="matplotlib.axis_6"/>
  </g>
  <g id="axes_4">
   <g id="patch_5">
    <path d="M 45 789.144828 
L 324 789.144828 
L 324 645.765517 
L 45 645.765517 
z
" style="fill: #ffffff"/>
   </g>
   <g id="EdgeCollection_4">
    <path d="M 300.935339 717.242271 
C 325.933484 729.861986 325.933484 702.622556 300.935339 715.242271 
C 325.933484 702.622556 325.933484 729.861986 300.935339 717.242271 
" clip-path="url(#p22fa9a1188)" style="fill: #ffffff"/>
    <path d="M 298.160647 714.535549 
L 278.563371 682.456353 
" clip-path="url(#p22fa9a1188)" style="fill: #ffffff"/>
    <path d="M 297.589493 715.060887 
L 222.368848 659.995358 
" clip-path="url(#p22fa9a1188)" style="fill: #ffffff"/>
    <path d="M 297.33773 715.521373 
L 152.454378 659.534872 
" clip-path="url(#p22fa9a1188)" style="fill: #ffffff"/>
    <path d="M 297.2325 715.90169 
L 95.793932 681.090212 
" clip-path="url(#p22fa9a1188)" style="fill: #ffffff"/>
    <path d="M 297.203288 716.242271 
L 82.140585 716.242271 
" clip-path="url(#p22fa9a1188)" style="fill: #ffffff"/>
    <path d="M 297.2325 716.582851 
L 95.793932 751.394329 
" clip-path="url(#p22fa9a1188)" style="fill: #ffffff"/>
    <path d="M 297.33773 716.963168 
L 152.454378 772.949669 
" clip-path="url(#p22fa9a1188)" style="fill: #ffffff"/>
    <path d="M 297.589493 717.423654 
L 228.824026 767.763649 
" clip-path="url(#p22fa9a1188)" style="fill: #ffffff"/>
    <path d="M 298.160647 717.948992 
L 282.733936 743.201301 
" clip-path="url(#p22fa9a1188)" style="fill: #ffffff"/>
    <path d="M 279.398359 680.060786 
C 305.1058 668.957098 284.194467 651.501363 277.862986 678.779134 
C 284.194467 651.501363 305.1058 668.957098 279.398359 680.060786 
" clip-path="url(#p22fa9a1188)" style="fill: #ffffff"/>
    <path d="M 275.655171 680.028734 
L 222.620611 659.534872 
" clip-path="url(#p22fa9a1188)" style="fill: #ffffff"/>
    <path d="M 275.549941 680.409051 
L 152.559607 659.154555 
" clip-path="url(#p22fa9a1188)" style="fill: #ffffff"/>
    <path d="M 275.520729 680.749632 
L 95.823144 680.749632 
" clip-path="url(#p22fa9a1188)" style="fill: #ffffff"/>
    <path d="M 275.549941 681.090212 
L 81.994525 714.539368 
" clip-path="url(#p22fa9a1188)" style="fill: #ffffff"/>
    <path d="M 275.655171 681.470529 
L 95.688702 751.014012 
" clip-path="url(#p22fa9a1188)" style="fill: #ffffff"/>
    <path d="M 275.906935 681.931015 
L 152.202614 772.489183 
" clip-path="url(#p22fa9a1188)" style="fill: #ffffff"/>
    <path d="M 276.478088 682.456353 
L 225.96826 765.136959 
" clip-path="url(#p22fa9a1188)" style="fill: #ffffff"/>
    <path d="M 277.520729 682.749632 
L 277.520729 741.73491 
" clip-path="url(#p22fa9a1188)" style="stroke: #000000; stroke-width: 1.335616"/>
    <path d="M 222.055644 657.294612 
C 239.044421 635.033751 212.266669 630.0399 220.089542 656.927948 
C 212.266669 630.0399 239.044421 635.033751 222.055644 657.294612 
" clip-path="url(#p22fa9a1188)" style="fill: #ffffff"/>
    <path d="M 218.755054 658.813974 
L 152.58882 658.813974 
" clip-path="url(#p22fa9a1188)" style="fill: #ffffff"/>
    <path d="M 218.784266 659.154555 
L 95.793932 680.409051 
" clip-path="url(#p22fa9a1188)" style="fill: #ffffff"/>
    <path d="M 218.889496 659.534872 
L 81.468375 712.637783 
" clip-path="url(#p22fa9a1188)" style="fill: #ffffff"/>
    <path d="M 219.141259 659.995358 
L 95.436938 750.553526 
" clip-path="url(#p22fa9a1188)" style="fill: #ffffff"/>
    <path d="M 219.712412 660.520696 
L 151.631461 771.963845 
" clip-path="url(#p22fa9a1188)" style="fill: #ffffff"/>
    <path d="M 220.755054 660.813974 
L 220.755054 763.670567 
" clip-path="url(#p22fa9a1188)" style="fill: #ffffff"/>
    <path d="M 221.797695 660.520696 
L 272.307522 743.201301 
" clip-path="url(#p22fa9a1188)" style="fill: #ffffff"/>
    <path d="M 151.254331 656.927948 
C 159.077204 630.0399 132.299452 635.033751 149.288229 657.294612 
C 132.299452 635.033751 159.077204 630.0399 151.254331 656.927948 
" clip-path="url(#p22fa9a1188)" style="fill: #ffffff"/>
    <path d="M 148.723262 659.534872 
L 95.688702 680.028734 
" clip-path="url(#p22fa9a1188)" style="fill: #ffffff"/>
    <path d="M 148.975025 659.995358 
L 80.209557 710.335352 
" clip-path="url(#p22fa9a1188)" style="stroke: #000000; stroke-width: 1.312785"/>
    <path d="M 149.546178 660.520696 
L 94.865785 750.028188 
" clip-path="url(#p22fa9a1188)" style="fill: #ffffff"/>
    <path d="M 150.58882 660.813974 
L 150.58882 771.670567 
" clip-path="url(#p22fa9a1188)" style="fill: #ffffff"/>
    <path d="M 151.631461 660.520696 
L 215.541847 765.136959 
" clip-path="url(#p22fa9a1188)" style="stroke: #000000; stroke-width: 5"/>
    <path d="M 152.202614 659.995358 
L 269.451757 745.827991 
" clip-path="url(#p22fa9a1188)" style="fill: #ffffff"/>
    <path d="M 93.480887 678.779134 
C 87.149406 651.501363 66.238073 668.957098 91.945515 680.060786 
C 66.238073 668.957098 87.149406 651.501363 93.480887 678.779134 
" clip-path="url(#p22fa9a1188)" style="fill: #ffffff"/>
    <path d="M 92.780502 682.456353 
L 77.353792 707.708662 
" clip-path="url(#p22fa9a1188)" style="fill: #ffffff"/>
    <path d="M 93.823144 682.749632 
L 93.823144 749.73491 
" clip-path="url(#p22fa9a1188)" style="fill: #cecece; stroke: #cecece; stroke-width: 0.308219"/>
    <path d="M 94.865785 682.456353 
L 149.546178 771.963845 
" clip-path="url(#p22fa9a1188)" style="fill: #ffffff"/>
    <path d="M 95.436938 681.931015 
L 212.686081 767.763649 
" clip-path="url(#p22fa9a1188)" style="fill: #ffffff"/>
    <path d="M 95.688702 681.470529 
L 268.192939 748.130422 
" clip-path="url(#p22fa9a1188)" style="fill: #ffffff"/>
    <path d="M 63.480331 711.242271 
C 45.410389 702.622556 45.410389 729.861986 63.480331 721.242271 
C 45.410389 729.861986 45.410389 702.622556 63.480331 711.242271 
" clip-path="url(#p22fa9a1188)" style="fill: #ffffff"/>
    <path d="M 77.353792 724.775879 
L 92.780502 750.028188 
" clip-path="url(#p22fa9a1188)" style="fill: #ffffff"/>
    <path d="M 80.209557 722.149189 
L 148.975025 772.489183 
" clip-path="url(#p22fa9a1188)" style="fill: #ffffff"/>
    <path d="M 81.468375 719.846759 
L 211.427264 770.066079 
" clip-path="url(#p22fa9a1188)" style="stroke: #000000; stroke-width: 1.107306"/>
    <path d="M 81.994525 717.945173 
L 267.66679 750.032007 
" clip-path="url(#p22fa9a1188)" style="stroke: #000000; stroke-width: 1.438356"/>
    <path d="M 91.945515 752.423755 
C 66.238073 763.527444 87.149406 780.983179 93.480887 753.705407 
C 87.149406 780.983179 66.238073 763.527444 91.945515 752.423755 
" clip-path="url(#p22fa9a1188)" style="fill: #ffffff"/>
    <path d="M 95.688702 752.455807 
L 148.723262 772.949669 
" clip-path="url(#p22fa9a1188)" style="fill: #ffffff"/>
    <path d="M 95.793932 752.07549 
L 210.901114 771.967665 
" clip-path="url(#p22fa9a1188)" style="fill: #ffffff"/>
    <path d="M 95.823144 751.73491 
L 267.520729 751.73491 
" clip-path="url(#p22fa9a1188)" style="fill: #ffffff"/>
    <path d="M 149.288229 775.18993 
C 132.299452 797.450791 159.077204 802.444641 151.254331 775.556593 
C 159.077204 802.444641 132.299452 797.450791 149.288229 775.18993 
" clip-path="url(#p22fa9a1188)" style="fill: #ffffff"/>
    <path d="M 152.58882 773.670567 
L 210.755054 773.670567 
" clip-path="url(#p22fa9a1188)" style="fill: #ffffff"/>
    <path d="M 152.559607 773.329987 
L 267.66679 753.437812 
" clip-path="url(#p22fa9a1188)" style="fill: #ffffff"/>
    <path d="M 217.427497 783.100698 
C 212.266669 802.444641 239.044421 797.450791 227.258008 781.267381 
C 239.044421 797.450791 212.266669 802.444641 217.427497 783.100698 
" clip-path="url(#p22fa9a1188)" style="fill: #ffffff"/>
    <path d="M 230.082843 770.066079 
L 268.192939 755.339398 
" clip-path="url(#p22fa9a1188)" style="stroke: #000000; stroke-width: 2.123288"/>
    <path d="M 279.232014 761.587397 
C 284.194467 780.983179 305.1058 763.527444 286.908876 755.179137 
C 305.1058 763.527444 284.194467 780.983179 279.232014 761.587397 
" clip-path="url(#p22fa9a1188)" style="fill: #ffffff"/>
   </g>
   <g id="VertexCollection_4">
    <path d="M 299.203288 718.242271 
C 299.733694 718.242271 300.242448 718.031538 300.617501 717.656484 
C 300.992555 717.28143 301.203288 716.772677 301.203288 716.242271 
C 301.203288 715.711865 300.992555 715.203111 300.617501 714.828057 
C 300.242448 714.453003 299.733694 714.242271 299.203288 714.242271 
C 298.672882 714.242271 298.164128 714.453003 297.789074 714.828057 
C 297.414021 715.203111 297.203288 715.711865 297.203288 716.242271 
C 297.203288 716.772677 297.414021 717.28143 297.789074 717.656484 
C 298.164128 718.031538 298.672882 718.242271 299.203288 718.242271 
z
" clip-path="url(#p22fa9a1188)" style="fill: #fdcab5; stroke: #fdcab5; stroke-width: 3"/>
    <path d="M 277.520729 682.749632 
C 278.051135 682.749632 278.559889 682.538899 278.934943 682.163845 
C 279.309997 681.788791 279.520729 681.280038 279.520729 680.749632 
C 279.520729 680.219225 279.309997 679.710472 278.934943 679.335418 
C 278.559889 678.960364 278.051135 678.749632 277.520729 678.749632 
C 276.990323 678.749632 276.481569 678.960364 276.106516 679.335418 
C 275.731462 679.710472 275.520729 680.219225 275.520729 680.749632 
C 275.520729 681.280038 275.731462 681.788791 276.106516 682.163845 
C 276.481569 682.538899 276.990323 682.749632 277.520729 682.749632 
z
" clip-path="url(#p22fa9a1188)" style="fill: #fdcab5; stroke: #fdcab5; stroke-width: 3"/>
    <path d="M 220.755054 660.813974 
C 221.28546 660.813974 221.794213 660.603242 222.169267 660.228188 
C 222.544321 659.853134 222.755054 659.344381 222.755054 658.813974 
C 222.755054 658.283568 222.544321 657.774815 222.169267 657.399761 
C 221.794213 657.024707 221.28546 656.813974 220.755054 656.813974 
C 220.224647 656.813974 219.715894 657.024707 219.34084 657.399761 
C 218.965786 657.774815 218.755054 658.283568 218.755054 658.813974 
C 218.755054 659.344381 218.965786 659.853134 219.34084 660.228188 
C 219.715894 660.603242 220.224647 660.813974 220.755054 660.813974 
z
" clip-path="url(#p22fa9a1188)" style="fill: #fdcab5; stroke: #fdcab5; stroke-width: 3"/>
    <path d="M 150.58882 660.813974 
C 151.119226 660.813974 151.627979 660.603242 152.003033 660.228188 
C 152.378087 659.853134 152.58882 659.344381 152.58882 658.813974 
C 152.58882 658.283568 152.378087 657.774815 152.003033 657.399761 
C 151.627979 657.024707 151.119226 656.813974 150.58882 656.813974 
C 150.058413 656.813974 149.54966 657.024707 149.174606 657.399761 
C 148.799552 657.774815 148.58882 658.283568 148.58882 658.813974 
C 148.58882 659.344381 148.799552 659.853134 149.174606 660.228188 
C 149.54966 660.603242 150.058413 660.813974 150.58882 660.813974 
z
" clip-path="url(#p22fa9a1188)" style="fill: #fdcab5; stroke: #fdcab5; stroke-width: 3"/>
    <path d="M 93.823144 682.749632 
C 94.35355 682.749632 94.862304 682.538899 95.237357 682.163845 
C 95.612411 681.788791 95.823144 681.280038 95.823144 680.749632 
C 95.823144 680.219225 95.612411 679.710472 95.237357 679.335418 
C 94.862304 678.960364 94.35355 678.749632 93.823144 678.749632 
C 93.292738 678.749632 92.783984 678.960364 92.40893 679.335418 
C 92.033876 679.710472 91.823144 680.219225 91.823144 680.749632 
C 91.823144 681.280038 92.033876 681.788791 92.40893 682.163845 
C 92.783984 682.538899 93.292738 682.749632 93.823144 682.749632 
z
" clip-path="url(#p22fa9a1188)" style="fill: #fdcab5; stroke: #fdcab5; stroke-width: 3"/>
    <path d="M 72.140585 726.242271 
C 74.792616 726.242271 77.336384 725.188608 79.211653 723.313339 
C 81.086922 721.438069 82.140585 718.894302 82.140585 716.242271 
C 82.140585 713.59024 81.086922 711.046472 79.211653 709.171203 
C 77.336384 707.295934 74.792616 706.242271 72.140585 706.242271 
C 69.488554 706.242271 66.944786 707.295934 65.069517 709.171203 
C 63.194248 711.046472 62.140585 713.59024 62.140585 716.242271 
C 62.140585 718.894302 63.194248 721.438069 65.069517 723.313339 
C 66.944786 725.188608 69.488554 726.242271 72.140585 726.242271 
z
" clip-path="url(#p22fa9a1188)" style="fill: #6b010e; stroke: #6b010e; stroke-width: 3"/>
    <path d="M 93.823144 753.73491 
C 94.35355 753.73491 94.862304 753.524177 95.237357 753.149123 
C 95.612411 752.77407 95.823144 752.265316 95.823144 751.73491 
C 95.823144 751.204504 95.612411 750.69575 95.237357 750.320696 
C 94.862304 749.945642 94.35355 749.73491 93.823144 749.73491 
C 93.292738 749.73491 92.783984 749.945642 92.40893 750.320696 
C 92.033876 750.69575 91.823144 751.204504 91.823144 751.73491 
C 91.823144 752.265316 92.033876 752.77407 92.40893 753.149123 
C 92.783984 753.524177 93.292738 753.73491 93.823144 753.73491 
z
" clip-path="url(#p22fa9a1188)" style="fill: #fdcab5; stroke: #fdcab5; stroke-width: 3"/>
    <path d="M 150.58882 775.670567 
C 151.119226 775.670567 151.627979 775.459834 152.003033 775.084781 
C 152.378087 774.709727 152.58882 774.200973 152.58882 773.670567 
C 152.58882 773.140161 152.378087 772.631407 152.003033 772.256353 
C 151.627979 771.8813 151.119226 771.670567 150.58882 771.670567 
C 150.058413 771.670567 149.54966 771.8813 149.174606 772.256353 
C 148.799552 772.631407 148.58882 773.140161 148.58882 773.670567 
C 148.58882 774.200973 148.799552 774.709727 149.174606 775.084781 
C 149.54966 775.459834 150.058413 775.670567 150.58882 775.670567 
z
" clip-path="url(#p22fa9a1188)" style="fill: #fdcab5; stroke: #fdcab5; stroke-width: 3"/>
    <path d="M 220.755054 783.670567 
C 223.407085 783.670567 225.950852 782.616904 227.826121 780.741635 
C 229.70139 778.866366 230.755054 776.322598 230.755054 773.670567 
C 230.755054 771.018536 229.70139 768.474768 227.826121 766.599499 
C 225.950852 764.72423 223.407085 763.670567 220.755054 763.670567 
C 218.103023 763.670567 215.559255 764.72423 213.683986 766.599499 
C 211.808717 768.474768 210.755054 771.018536 210.755054 773.670567 
C 210.755054 776.322598 211.808717 778.866366 213.683986 780.741635 
C 215.559255 782.616904 218.103023 783.670567 220.755054 783.670567 
z
" clip-path="url(#p22fa9a1188)" style="fill: #6b010e; stroke: #6b010e; stroke-width: 3"/>
    <path d="M 277.520729 761.73491 
C 280.17276 761.73491 282.716528 760.681247 284.591797 758.805978 
C 286.467066 756.930708 287.520729 754.386941 287.520729 751.73491 
C 287.520729 749.082879 286.467066 746.539111 284.591797 744.663842 
C 282.716528 742.788573 280.17276 741.73491 277.520729 741.73491 
C 274.868698 741.73491 272.324931 742.788573 270.449661 744.663842 
C 268.574392 746.539111 267.520729 749.082879 267.520729 751.73491 
C 267.520729 754.386941 268.574392 756.930708 270.449661 758.805978 
C 272.324931 760.681247 274.868698 761.73491 277.520729 761.73491 
z
" clip-path="url(#p22fa9a1188)" style="fill: #6b010e; stroke: #6b010e; stroke-width: 3"/>
   </g>
   <g id="matplotlib.axis_7"/>
   <g id="matplotlib.axis_8"/>
  </g>
  <g id="axes_5">
   <g id="patch_6">
    <path d="M 45 961.2 
L 324 961.2 
L 324 817.82069 
L 45 817.82069 
z
" style="fill: #ffffff"/>
   </g>
   <g id="EdgeCollection_5">
    <path d="M 300.935339 890.510345 
C 325.933484 903.13006 325.933484 875.89063 300.935339 888.510345 
C 325.933484 875.89063 325.933484 903.13006 300.935339 890.510345 
" clip-path="url(#pdf37e73111)" style="fill: #ffffff"/>
    <path d="M 298.145232 887.813136 
L 278.578785 856.426934 
" clip-path="url(#pdf37e73111)" style="fill: #ffffff"/>
    <path d="M 297.578193 888.344554 
L 222.380148 834.39991 
" clip-path="url(#pdf37e73111)" style="fill: #ffffff"/>
    <path d="M 297.332898 888.802079 
L 159.940771 836.775448 
" clip-path="url(#pdf37e73111)" style="fill: #ffffff"/>
    <path d="M 297.231364 889.176404 
L 95.795068 855.063666 
" clip-path="url(#pdf37e73111)" style="fill: #ffffff"/>
    <path d="M 297.203288 889.510345 
L 82.140585 889.510345 
" clip-path="url(#pdf37e73111)" style="fill: #ffffff"/>
    <path d="M 297.231364 889.844285 
L 95.795068 923.957024 
" clip-path="url(#pdf37e73111)" style="fill: #ffffff"/>
    <path d="M 297.332898 890.21861 
L 152.45921 945.078304 
" clip-path="url(#pdf37e73111)" style="fill: #ffffff"/>
    <path d="M 297.578193 890.676135 
L 228.880527 939.957618 
" clip-path="url(#pdf37e73111)" style="fill: #ffffff"/>
    <path d="M 298.145232 891.207554 
L 278.578785 922.593756 
" clip-path="url(#pdf37e73111)" style="fill: #ffffff"/>
    <path d="M 279.392851 854.02605 
C 305.011664 842.719376 283.962919 825.429585 277.84739 852.756582 
C 283.962919 825.429585 305.011664 842.719376 279.392851 854.02605 
" clip-path="url(#pdf37e73111)" style="fill: #ffffff"/>
    <path d="M 275.650339 854.02146 
L 222.625444 833.942386 
" clip-path="url(#pdf37e73111)" style="fill: #ffffff"/>
    <path d="M 275.548805 854.395785 
L 160.448439 834.903822 
" clip-path="url(#pdf37e73111)" style="fill: #ffffff"/>
    <path d="M 275.520729 854.729725 
L 95.823144 854.729725 
" clip-path="url(#pdf37e73111)" style="fill: #ffffff"/>
    <path d="M 275.548805 855.063666 
L 82.000205 887.840643 
" clip-path="url(#pdf37e73111)" style="stroke: #000000; stroke-width: 1.158392"/>
    <path d="M 275.650339 855.437991 
L 95.693534 923.582699 
" clip-path="url(#pdf37e73111)" style="fill: #ffffff"/>
    <path d="M 275.895634 855.895515 
L 152.213914 944.620779 
" clip-path="url(#pdf37e73111)" style="fill: #ffffff"/>
    <path d="M 276.462674 856.426934 
L 226.045332 937.300525 
" clip-path="url(#pdf37e73111)" style="fill: #ffffff"/>
    <path d="M 277.520729 856.729725 
L 277.520729 922.290965 
" clip-path="url(#pdf37e73111)" style="fill: #ffffff"/>
    <path d="M 222.0505 831.710368 
C 238.963911 809.392192 212.169426 804.488912 220.083169 831.350355 
C 212.169426 804.488912 238.963911 809.392192 222.0505 831.710368 
" clip-path="url(#pdf37e73111)" style="fill: #ffffff"/>
    <path d="M 218.755054 833.23412 
L 160.58882 833.23412 
" clip-path="url(#pdf37e73111)" style="fill: #ffffff"/>
    <path d="M 218.78313 833.56806 
L 95.795068 854.395785 
" clip-path="url(#pdf37e73111)" style="fill: #ffffff"/>
    <path d="M 218.884663 833.942386 
L 81.492537 885.969017 
" clip-path="url(#pdf37e73111)" style="fill: #ffffff"/>
    <path d="M 219.129959 834.39991 
L 95.448239 923.125174 
" clip-path="url(#pdf37e73111)" style="fill: #ffffff"/>
    <path d="M 219.696998 834.931329 
L 151.646875 944.089361 
" clip-path="url(#pdf37e73111)" style="fill: #ffffff"/>
    <path d="M 220.755054 835.23412 
L 220.755054 935.78657 
" clip-path="url(#pdf37e73111)" style="fill: #ffffff"/>
    <path d="M 221.813109 834.931329 
L 276.462674 922.593756 
" clip-path="url(#pdf37e73111)" style="fill: #ffffff"/>
    <path d="M 153.948242 823.815294 
C 159.174447 804.488912 132.379962 809.392192 144.111589 825.615362 
C 132.379962 809.392192 159.174447 804.488912 153.948242 823.815294 
" clip-path="url(#pdf37e73111)" style="fill: #ffffff"/>
    <path d="M 141.236868 836.775448 
L 95.693534 854.02146 
" clip-path="url(#pdf37e73111)" style="fill: #ffffff"/>
    <path d="M 142.463346 839.063072 
L 80.266059 883.681393 
" clip-path="url(#pdf37e73111)" style="stroke: #000000; stroke-width: 1.44208"/>
    <path d="M 145.298541 841.720165 
L 94.8812 922.593756 
" clip-path="url(#pdf37e73111)" style="fill: #ffffff"/>
    <path d="M 150.58882 843.23412 
L 150.58882 943.78657 
" clip-path="url(#pdf37e73111)" style="stroke: #000000; stroke-width: 1.394799"/>
    <path d="M 155.879098 841.720165 
L 215.464775 937.300525 
" clip-path="url(#pdf37e73111)" style="stroke: #000000; stroke-width: 5"/>
    <path d="M 158.714293 839.063072 
L 275.895634 923.125174 
" clip-path="url(#pdf37e73111)" style="fill: #ffffff"/>
    <path d="M 93.496483 852.756582 
C 87.380954 825.429585 66.332209 842.719376 91.951022 854.02605 
C 66.332209 842.719376 87.380954 825.429585 93.496483 852.756582 
" clip-path="url(#pdf37e73111)" style="fill: #ffffff"/>
    <path d="M 92.765088 856.426934 
L 77.430864 881.0243 
" clip-path="url(#pdf37e73111)" style="fill: #ffffff"/>
    <path d="M 93.823144 856.729725 
L 93.823144 922.290965 
" clip-path="url(#pdf37e73111)" style="fill: #ffffff"/>
    <path d="M 94.8812 856.426934 
L 149.530764 944.089361 
" clip-path="url(#pdf37e73111)" style="fill: #ffffff"/>
    <path d="M 95.448239 855.895515 
L 212.62958 939.957618 
" clip-path="url(#pdf37e73111)" style="fill: #ffffff"/>
    <path d="M 95.693534 855.437991 
L 275.650339 923.582699 
" clip-path="url(#pdf37e73111)" style="fill: #ffffff"/>
    <path d="M 63.480331 884.510345 
C 45.410389 875.89063 45.410389 903.13006 63.480331 894.510345 
C 45.410389 903.13006 45.410389 875.89063 63.480331 884.510345 
" clip-path="url(#pdf37e73111)" style="fill: #ffffff"/>
    <path d="M 77.430864 897.99639 
L 92.765088 922.593756 
" clip-path="url(#pdf37e73111)" style="fill: #ffffff"/>
    <path d="M 80.266059 895.339297 
L 148.963725 944.620779 
" clip-path="url(#pdf37e73111)" style="fill: #ffffff"/>
    <path d="M 81.492537 893.051673 
L 211.403102 942.245242 
" clip-path="url(#pdf37e73111)" style="stroke: #000000; stroke-width: 1.713948"/>
    <path d="M 82.000205 891.180047 
L 275.548805 923.957024 
" clip-path="url(#pdf37e73111)" style="fill: #ffffff"/>
    <path d="M 91.951022 924.994639 
C 66.332209 936.301313 87.380954 953.591104 93.496483 926.264107 
C 87.380954 953.591104 66.332209 936.301313 91.951022 924.994639 
" clip-path="url(#pdf37e73111)" style="fill: #ffffff"/>
    <path d="M 95.693534 924.99923 
L 148.718429 945.078304 
" clip-path="url(#pdf37e73111)" style="fill: #ffffff"/>
    <path d="M 95.795068 924.624905 
L 210.895434 944.116867 
" clip-path="url(#pdf37e73111)" style="fill: #ffffff"/>
    <path d="M 95.823144 924.290965 
L 275.520729 924.290965 
" clip-path="url(#pdf37e73111)" style="fill: #ffffff"/>
    <path d="M 149.293373 947.310321 
C 132.379962 969.628497 159.174447 974.531778 151.260704 947.670335 
C 159.174447 974.531778 132.379962 969.628497 149.293373 947.310321 
" clip-path="url(#pdf37e73111)" style="fill: #ffffff"/>
    <path d="M 152.58882 945.78657 
L 210.755054 945.78657 
" clip-path="url(#pdf37e73111)" style="fill: #ffffff"/>
    <path d="M 152.560743 945.452629 
L 275.548805 924.624905 
" clip-path="url(#pdf37e73111)" style="fill: #ffffff"/>
    <path d="M 217.395631 955.205395 
C 212.169426 974.531778 238.963911 969.628497 227.232284 953.405328 
C 238.963911 969.628497 212.169426 974.531778 217.395631 955.205395 
" clip-path="url(#pdf37e73111)" style="fill: #ffffff"/>
    <path d="M 230.107005 942.245242 
L 275.650339 924.99923 
" clip-path="url(#pdf37e73111)" style="stroke: #000000; stroke-width: 1.631206"/>
    <path d="M 277.84739 926.264107 
C 283.962919 953.591104 305.011664 936.301313 279.392851 924.994639 
C 305.011664 936.301313 283.962919 953.591104 277.84739 926.264107 
" clip-path="url(#pdf37e73111)" style="fill: #ffffff"/>
   </g>
   <g id="VertexCollection_5">
    <path d="M 299.203288 891.510345 
C 299.733694 891.510345 300.242448 891.299612 300.617501 890.924558 
C 300.992555 890.549505 301.203288 890.040751 301.203288 889.510345 
C 301.203288 888.979939 300.992555 888.471185 300.617501 888.096131 
C 300.242448 887.721077 299.733694 887.510345 299.203288 887.510345 
C 298.672882 887.510345 298.164128 887.721077 297.789074 888.096131 
C 297.414021 888.471185 297.203288 888.979939 297.203288 889.510345 
C 297.203288 890.040751 297.414021 890.549505 297.789074 890.924558 
C 298.164128 891.299612 298.672882 891.510345 299.203288 891.510345 
z
" clip-path="url(#pdf37e73111)" style="fill: #fdcab5; stroke: #fdcab5; stroke-width: 3"/>
    <path d="M 277.520729 856.729725 
C 278.051135 856.729725 278.559889 856.518993 278.934943 856.143939 
C 279.309997 855.768885 279.520729 855.260131 279.520729 854.729725 
C 279.520729 854.199319 279.309997 853.690565 278.934943 853.315512 
C 278.559889 852.940458 278.051135 852.729725 277.520729 852.729725 
C 276.990323 852.729725 276.481569 852.940458 276.106516 853.315512 
C 275.731462 853.690565 275.520729 854.199319 275.520729 854.729725 
C 275.520729 855.260131 275.731462 855.768885 276.106516 856.143939 
C 276.481569 856.518993 276.990323 856.729725 277.520729 856.729725 
z
" clip-path="url(#pdf37e73111)" style="fill: #fdcab5; stroke: #fdcab5; stroke-width: 3"/>
    <path d="M 220.755054 835.23412 
C 221.28546 835.23412 221.794213 835.023387 222.169267 834.648334 
C 222.544321 834.27328 222.755054 833.764526 222.755054 833.23412 
C 222.755054 832.703714 222.544321 832.19496 222.169267 831.819906 
C 221.794213 831.444853 221.28546 831.23412 220.755054 831.23412 
C 220.224647 831.23412 219.715894 831.444853 219.34084 831.819906 
C 218.965786 832.19496 218.755054 832.703714 218.755054 833.23412 
C 218.755054 833.764526 218.965786 834.27328 219.34084 834.648334 
C 219.715894 835.023387 220.224647 835.23412 220.755054 835.23412 
z
" clip-path="url(#pdf37e73111)" style="fill: #fdcab5; stroke: #fdcab5; stroke-width: 3"/>
    <path d="M 150.58882 843.23412 
C 153.240851 843.23412 155.784618 842.180457 157.659887 840.305188 
C 159.535156 838.429919 160.58882 835.886151 160.58882 833.23412 
C 160.58882 830.582089 159.535156 828.038321 157.659887 826.163052 
C 155.784618 824.287783 153.240851 823.23412 150.58882 823.23412 
C 147.936789 823.23412 145.393021 824.287783 143.517752 826.163052 
C 141.642483 828.038321 140.58882 830.582089 140.58882 833.23412 
C 140.58882 835.886151 141.642483 838.429919 143.517752 840.305188 
C 145.393021 842.180457 147.936789 843.23412 150.58882 843.23412 
z
" clip-path="url(#pdf37e73111)" style="fill: #6b010e; stroke: #6b010e; stroke-width: 3"/>
    <path d="M 93.823144 856.729725 
C 94.35355 856.729725 94.862304 856.518993 95.237357 856.143939 
C 95.612411 855.768885 95.823144 855.260131 95.823144 854.729725 
C 95.823144 854.199319 95.612411 853.690565 95.237357 853.315512 
C 94.862304 852.940458 94.35355 852.729725 93.823144 852.729725 
C 93.292738 852.729725 92.783984 852.940458 92.40893 853.315512 
C 92.033876 853.690565 91.823144 854.199319 91.823144 854.729725 
C 91.823144 855.260131 92.033876 855.768885 92.40893 856.143939 
C 92.783984 856.518993 93.292738 856.729725 93.823144 856.729725 
z
" clip-path="url(#pdf37e73111)" style="fill: #fdcab5; stroke: #fdcab5; stroke-width: 3"/>
    <path d="M 72.140585 899.510345 
C 74.792616 899.510345 77.336384 898.456682 79.211653 896.581413 
C 81.086922 894.706144 82.140585 892.162376 82.140585 889.510345 
C 82.140585 886.858314 81.086922 884.314546 79.211653 882.439277 
C 77.336384 880.564008 74.792616 879.510345 72.140585 879.510345 
C 69.488554 879.510345 66.944786 880.564008 65.069517 882.439277 
C 63.194248 884.314546 62.140585 886.858314 62.140585 889.510345 
C 62.140585 892.162376 63.194248 894.706144 65.069517 896.581413 
C 66.944786 898.456682 69.488554 899.510345 72.140585 899.510345 
z
" clip-path="url(#pdf37e73111)" style="fill: #6b010e; stroke: #6b010e; stroke-width: 3"/>
    <path d="M 93.823144 926.290965 
C 94.35355 926.290965 94.862304 926.080232 95.237357 925.705178 
C 95.612411 925.330124 95.823144 924.821371 95.823144 924.290965 
C 95.823144 923.760558 95.612411 923.251805 95.237357 922.876751 
C 94.862304 922.501697 94.35355 922.290965 93.823144 922.290965 
C 93.292738 922.290965 92.783984 922.501697 92.40893 922.876751 
C 92.033876 923.251805 91.823144 923.760558 91.823144 924.290965 
C 91.823144 924.821371 92.033876 925.330124 92.40893 925.705178 
C 92.783984 926.080232 93.292738 926.290965 93.823144 926.290965 
z
" clip-path="url(#pdf37e73111)" style="fill: #fdcab5; stroke: #fdcab5; stroke-width: 3"/>
    <path d="M 150.58882 947.78657 
C 151.119226 947.78657 151.627979 947.575837 152.003033 947.200783 
C 152.378087 946.825729 152.58882 946.316976 152.58882 945.78657 
C 152.58882 945.256163 152.378087 944.74741 152.003033 944.372356 
C 151.627979 943.997302 151.119226 943.78657 150.58882 943.78657 
C 150.058413 943.78657 149.54966 943.997302 149.174606 944.372356 
C 148.799552 944.74741 148.58882 945.256163 148.58882 945.78657 
C 148.58882 946.316976 148.799552 946.825729 149.174606 947.200783 
C 149.54966 947.575837 150.058413 947.78657 150.58882 947.78657 
z
" clip-path="url(#pdf37e73111)" style="fill: #fdcab5; stroke: #fdcab5; stroke-width: 3"/>
    <path d="M 220.755054 955.78657 
C 223.407085 955.78657 225.950852 954.732907 227.826121 952.857637 
C 229.70139 950.982368 230.755054 948.438601 230.755054 945.78657 
C 230.755054 943.134539 229.70139 940.590771 227.826121 938.715502 
C 225.950852 936.840233 223.407085 935.78657 220.755054 935.78657 
C 218.103023 935.78657 215.559255 936.840233 213.683986 938.715502 
C 211.808717 940.590771 210.755054 943.134539 210.755054 945.78657 
C 210.755054 948.438601 211.808717 950.982368 213.683986 952.857637 
C 215.559255 954.732907 218.103023 955.78657 220.755054 955.78657 
z
" clip-path="url(#pdf37e73111)" style="fill: #6b010e; stroke: #6b010e; stroke-width: 3"/>
    <path d="M 277.520729 926.290965 
C 278.051135 926.290965 278.559889 926.080232 278.934943 925.705178 
C 279.309997 925.330124 279.520729 924.821371 279.520729 924.290965 
C 279.520729 923.760558 279.309997 923.251805 278.934943 922.876751 
C 278.559889 922.501697 278.051135 922.290965 277.520729 922.290965 
C 276.990323 922.290965 276.481569 922.501697 276.106516 922.876751 
C 275.731462 923.251805 275.520729 923.760558 275.520729 924.290965 
C 275.520729 924.821371 275.731462 925.330124 276.106516 925.705178 
C 276.481569 926.080232 276.990323 926.290965 277.520729 926.290965 
z
" clip-path="url(#pdf37e73111)" style="fill: #fdcab5; stroke: #fdcab5; stroke-width: 3"/>
   </g>
   <g id="matplotlib.axis_9"/>
   <g id="matplotlib.axis_10"/>
  </g>
  <g id="text_1">
   <!-- G2 -->
   <g transform="translate(171.533437 30.718125) scale(0.12 -0.12)">
    <defs>
     <path id="DejaVuSans-47" d="M 3809 666 
L 3809 1919 
L 2778 1919 
L 2778 2438 
L 4434 2438 
L 4434 434 
Q 4069 175 3628 42 
Q 3188 -91 2688 -91 
Q 1594 -91 976 548 
Q 359 1188 359 2328 
Q 359 3472 976 4111 
Q 1594 4750 2688 4750 
Q 3144 4750 3555 4637 
Q 3966 4525 4313 4306 
L 4313 3634 
Q 3963 3931 3569 4081 
Q 3175 4231 2741 4231 
Q 1884 4231 1454 3753 
Q 1025 3275 1025 2328 
Q 1025 1384 1454 906 
Q 1884 428 2741 428 
Q 3075 428 3337 486 
Q 3600 544 3809 666 
z
" transform="scale(0.015625)"/>
     <path id="DejaVuSans-32" d="M 1228 531 
L 3431 531 
L 3431 0 
L 469 0 
L 469 531 
Q 828 903 1448 1529 
Q 2069 2156 2228 2338 
Q 2531 2678 2651 2914 
Q 2772 3150 2772 3378 
Q 2772 3750 2511 3984 
Q 2250 4219 1831 4219 
Q 1534 4219 1204 4116 
Q 875 4013 500 3803 
L 500 4441 
Q 881 4594 1212 4672 
Q 1544 4750 1819 4750 
Q 2544 4750 2975 4387 
Q 3406 4025 3406 3419 
Q 3406 3131 3298 2873 
Q 3191 2616 2906 2266 
Q 2828 2175 2409 1742 
Q 1991 1309 1228 531 
z
" transform="scale(0.015625)"/>
    </defs>
    <use xlink:href="#DejaVuSans-47"/>
    <use xlink:href="#DejaVuSans-32" x="77.490234"/>
   </g>
  </g>
 </g>
 <defs>
  <clipPath id="p4dec1ec7a0">
   <rect x="45" y="129.6" width="279" height="143.37931"/>
  </clipPath>
  <clipPath id="p86917c8129">
   <rect x="45" y="301.655172" width="279" height="143.37931"/>
  </clipPath>
  <clipPath id="p6749f0c05d">
   <rect x="45" y="473.710345" width="279" height="143.37931"/>
  </clipPath>
  <clipPath id="p22fa9a1188">
   <rect x="45" y="645.765517" width="279" height="143.37931"/>
  </clipPath>
  <clipPath id="pdf37e73111">
   <rect x="45" y="817.82069" width="279" height="143.37931"/>
  </clipPath>
 </defs>
</svg>
