<?xml version="1.0" encoding="utf-8" standalone="no"?>
<!DOCTYPE svg PUBLIC "-//W3C//DTD SVG 1.1//EN"
  "http://www.w3.org/Graphics/SVG/1.1/DTD/svg11.dtd">
<svg xmlns:xlink="http://www.w3.org/1999/xlink" width="360pt" height="1080pt" viewBox="0 0 360 1080" xmlns="http://www.w3.org/2000/svg" version="1.1">
 <metadata>
  <rdf:RDF xmlns:dc="http://purl.org/dc/elements/1.1/" xmlns:cc="http://creativecommons.org/ns#" xmlns:rdf="http://www.w3.org/1999/02/22-rdf-syntax-ns#">
   <cc:Work>
    <dc:type rdf:resource="http://purl.org/dc/dcmitype/StillImage"/>
    <dc:date>2025-03-10T09:43:12.897860</dc:date>
    <dc:format>image/svg+xml</dc:format>
    <dc:creator>
     <cc:Agent>
      <dc:title>Matplotlib v3.9.2, https://matplotlib.org/</dc:title>
     </cc:Agent>
    </dc:creator>
   </cc:Work>
  </rdf:RDF>
 </metadata>
 <defs>
  <style type="text/css">*{stroke-linejoin: round; stroke-linecap: butt}</style>
 </defs>
 <g id="figure_1">
  <g id="patch_1">
   <path d="M 0 1080 
L 360 1080 
L 360 0 
L 0 0 
z
" style="fill: #ffffff"/>
  </g>
  <g id="axes_1">
   <g id="patch_2">
    <path d="M 45 272.97931 
L 324 272.97931 
L 324 129.6 
L 45 129.6 
z
" style="fill: #ffffff"/>
   </g>
   <g id="EdgeCollection_1">
    <path d="M 300.929321 202.289655 
C 325.927466 214.90937 325.927466 187.66994 300.929321 200.289655 
C 325.927466 187.66994 325.927466 214.90937 300.929321 202.289655 
" clip-path="url(#p8ad99cef36)" style="fill: #ffffff"/>
    <path d="M 298.131424 199.597328 
L 278.357888 168.201362 
" clip-path="url(#p8ad99cef36)" style="fill: #ffffff"/>
    <path d="M 297.566562 200.13173 
L 221.574114 146.171356 
" clip-path="url(#p8ad99cef36)" style="fill: #ffffff"/>
    <path d="M 297.324503 200.587698 
L 158.42043 148.523214 
" clip-path="url(#p8ad99cef36)" style="fill: #ffffff"/>
    <path d="M 297.22479 200.959016 
L 93.680439 166.839675 
" clip-path="url(#p8ad99cef36)" style="fill: #ffffff"/>
    <path d="M 297.19727 201.289655 
L 71.80273 201.289655 
" clip-path="url(#p8ad99cef36)" style="fill: #ffffff"/>
    <path d="M 297.22479 201.620294 
L 93.680439 235.739636 
" clip-path="url(#p8ad99cef36)" style="fill: #ffffff"/>
    <path d="M 297.324503 201.991612 
L 150.929361 256.863923 
" clip-path="url(#p8ad99cef36)" style="fill: #ffffff"/>
    <path d="M 297.566562 202.447581 
L 228.096945 251.776252 
" clip-path="url(#p8ad99cef36)" style="fill: #ffffff"/>
    <path d="M 298.131424 202.981982 
L 278.357888 234.377948 
" clip-path="url(#p8ad99cef36)" style="fill: #ffffff"/>
    <path d="M 279.161345 165.797908 
C 304.734909 154.389259 283.617449 137.183463 277.610838 164.534607 
C 283.617449 137.183463 304.734909 154.389259 279.161345 165.797908 
" clip-path="url(#p8ad99cef36)" style="fill: #ffffff"/>
    <path d="M 275.419274 165.807079 
L 221.816173 145.715387 
" clip-path="url(#p8ad99cef36)" style="fill: #ffffff"/>
    <path d="M 275.319561 166.178396 
L 158.918995 146.666626 
" clip-path="url(#p8ad99cef36)" style="fill: #ffffff"/>
    <path d="M 275.292041 166.509035 
L 93.707959 166.509035 
" clip-path="url(#p8ad99cef36)" style="fill: #ffffff"/>
    <path d="M 275.319561 166.839675 
L 71.77521 200.959016 
" clip-path="url(#p8ad99cef36)" style="fill: #ffffff"/>
    <path d="M 275.419274 167.210992 
L 93.580726 235.368318 
" clip-path="url(#p8ad99cef36)" style="fill: #ffffff"/>
    <path d="M 275.661333 167.666961 
L 150.687302 256.407954 
" clip-path="url(#p8ad99cef36)" style="fill: #ffffff"/>
    <path d="M 276.226194 168.201362 
L 225.27264 249.104245 
" clip-path="url(#p8ad99cef36)" style="fill: #ffffff"/>
    <path d="M 277.292041 168.509035 
L 277.292041 234.070275 
" clip-path="url(#p8ad99cef36)" style="fill: #ffffff"/>
    <path d="M 221.236282 143.487497 
C 238.112054 121.140847 211.309343 116.282733 219.268347 143.1308 
C 211.309343 116.282733 238.112054 121.140847 221.236282 143.487497 
" clip-path="url(#p8ad99cef36)" style="fill: #ffffff"/>
    <path d="M 217.943406 145.01343 
L 159.056594 145.01343 
" clip-path="url(#p8ad99cef36)" style="stroke: #000000; stroke-width: 3.513274"/>
    <path d="M 217.970926 145.344069 
L 93.680439 166.178396 
" clip-path="url(#p8ad99cef36)" style="fill: #ffffff"/>
    <path d="M 218.070639 145.715387 
L 71.675497 200.587698 
" clip-path="url(#p8ad99cef36)" style="fill: #ffffff"/>
    <path d="M 218.312698 146.171356 
L 93.338667 234.912349 
" clip-path="url(#p8ad99cef36)" style="fill: #ffffff"/>
    <path d="M 218.877559 146.705757 
L 150.122441 255.873553 
" clip-path="url(#p8ad99cef36)" style="fill: #ffffff"/>
    <path d="M 219.943406 147.01343 
L 219.943406 247.56588 
" clip-path="url(#p8ad99cef36)" style="fill: #ffffff"/>
    <path d="M 221.009252 146.705757 
L 276.226194 234.377948 
" clip-path="url(#p8ad99cef36)" style="fill: #ffffff"/>
    <path d="M 152.431887 135.60028 
C 157.690657 116.282733 130.887946 121.140847 142.592213 137.383766 
C 130.887946 121.140847 157.690657 116.282733 152.431887 135.60028 
" clip-path="url(#p8ad99cef36)" style="fill: #ffffff"/>
    <path d="M 139.692759 148.523214 
L 93.580726 165.807079 
" clip-path="url(#p8ad99cef36)" style="fill: #ffffff"/>
    <path d="M 140.903055 150.803059 
L 71.433438 200.13173 
" clip-path="url(#p8ad99cef36)" style="fill: #ffffff"/>
    <path d="M 143.72736 153.475065 
L 92.773806 234.377948 
" clip-path="url(#p8ad99cef36)" style="fill: #ffffff"/>
    <path d="M 149.056594 155.01343 
L 149.056594 255.56588 
" clip-path="url(#p8ad99cef36)" style="fill: #ffffff"/>
    <path d="M 154.385828 153.475065 
L 214.614172 249.104245 
" clip-path="url(#p8ad99cef36)" style="stroke: #000000; stroke-width: 5"/>
    <path d="M 157.210134 150.803059 
L 275.661333 234.912349 
" clip-path="url(#p8ad99cef36)" style="fill: #ffffff"/>
    <path d="M 91.389162 164.534607 
C 85.382551 137.183463 64.265091 154.389259 89.838655 165.797908 
C 64.265091 154.389259 85.382551 137.183463 91.389162 164.534607 
" clip-path="url(#p8ad99cef36)" style="fill: #ffffff"/>
    <path d="M 90.642112 168.201362 
L 70.868576 199.597328 
" clip-path="url(#p8ad99cef36)" style="fill: #ffffff"/>
    <path d="M 91.707959 168.509035 
L 91.707959 234.070275 
" clip-path="url(#p8ad99cef36)" style="fill: #3a3a3a; stroke: #3a3a3a; stroke-width: 0.823009"/>
    <path d="M 92.773806 168.201362 
L 147.990748 255.873553 
" clip-path="url(#p8ad99cef36)" style="fill: #ffffff"/>
    <path d="M 93.338667 167.666961 
L 211.789866 251.776252 
" clip-path="url(#p8ad99cef36)" style="fill: #ffffff"/>
    <path d="M 93.580726 167.210992 
L 275.419274 235.368318 
" clip-path="url(#p8ad99cef36)" style="fill: #ffffff"/>
    <path d="M 68.070679 200.289655 
C 43.072534 187.66994 43.072534 214.90937 68.070679 202.289655 
C 43.072534 214.90937 43.072534 187.66994 68.070679 200.289655 
" clip-path="url(#p8ad99cef36)" style="fill: #ffffff"/>
    <path d="M 70.868576 202.981982 
L 90.642112 234.377948 
" clip-path="url(#p8ad99cef36)" style="fill: #ffffff"/>
    <path d="M 71.433438 202.447581 
L 147.425886 256.407954 
" clip-path="url(#p8ad99cef36)" style="fill: #ffffff"/>
    <path d="M 71.675497 201.991612 
L 210.57957 254.056096 
" clip-path="url(#p8ad99cef36)" style="fill: #ffffff"/>
    <path d="M 71.77521 201.620294 
L 275.319561 235.739636 
" clip-path="url(#p8ad99cef36)" style="fill: #ffffff"/>
    <path d="M 89.838655 236.781403 
C 64.265091 248.190051 85.382551 265.395848 91.389162 238.044703 
C 85.382551 265.395848 64.265091 248.190051 89.838655 236.781403 
" clip-path="url(#p8ad99cef36)" style="fill: #ffffff"/>
    <path d="M 93.580726 236.772232 
L 147.183827 256.863923 
" clip-path="url(#p8ad99cef36)" style="fill: #ffffff"/>
    <path d="M 93.680439 236.400914 
L 210.081005 255.912684 
" clip-path="url(#p8ad99cef36)" style="fill: #ffffff"/>
    <path d="M 93.707959 236.070275 
L 275.292041 236.070275 
" clip-path="url(#p8ad99cef36)" style="fill: #ffffff"/>
    <path d="M 147.763718 259.091813 
C 130.887946 281.438463 157.690657 286.296577 149.731653 259.44851 
C 157.690657 286.296577 130.887946 281.438463 147.763718 259.091813 
" clip-path="url(#p8ad99cef36)" style="fill: #ffffff"/>
    <path d="M 151.056594 257.56588 
L 209.943406 257.56588 
" clip-path="url(#p8ad99cef36)" style="fill: #ffffff"/>
    <path d="M 151.029074 257.235241 
L 275.319561 236.400914 
" clip-path="url(#p8ad99cef36)" style="fill: #ffffff"/>
    <path d="M 216.568113 266.97903 
C 211.309343 286.296577 238.112054 281.438463 226.407787 265.195544 
C 238.112054 281.438463 211.309343 286.296577 216.568113 266.97903 
" clip-path="url(#p8ad99cef36)" style="fill: #ffffff"/>
    <path d="M 229.307241 254.056096 
L 275.419274 236.772232 
" clip-path="url(#p8ad99cef36)" style="stroke: #000000; stroke-width: 4.026549"/>
    <path d="M 277.610838 238.044703 
C 283.617449 265.395848 304.734909 248.190051 279.161345 236.781403 
C 304.734909 248.190051 283.617449 265.395848 277.610838 238.044703 
" clip-path="url(#p8ad99cef36)" style="fill: #ffffff"/>
   </g>
   <g id="VertexCollection_1">
    <path d="M 299.19727 203.289655 
C 299.727676 203.289655 300.23643 203.078923 300.611484 202.703869 
C 300.986538 202.328815 301.19727 201.820061 301.19727 201.289655 
C 301.19727 200.759249 300.986538 200.250495 300.611484 199.875442 
C 300.23643 199.500388 299.727676 199.289655 299.19727 199.289655 
C 298.666864 199.289655 298.158111 199.500388 297.783057 199.875442 
C 297.408003 200.250495 297.19727 200.759249 297.19727 201.289655 
C 297.19727 201.820061 297.408003 202.328815 297.783057 202.703869 
C 298.158111 203.078923 298.666864 203.289655 299.19727 203.289655 
z
" clip-path="url(#p8ad99cef36)" style="fill: #fdcab5; stroke: #fdcab5; stroke-width: 3"/>
    <path d="M 277.292041 168.509035 
C 277.822447 168.509035 278.331201 168.298303 278.706254 167.923249 
C 279.081308 167.548195 279.292041 167.039442 279.292041 166.509035 
C 279.292041 165.978629 279.081308 165.469876 278.706254 165.094822 
C 278.331201 164.719768 277.822447 164.509035 277.292041 164.509035 
C 276.761635 164.509035 276.252881 164.719768 275.877827 165.094822 
C 275.502773 165.469876 275.292041 165.978629 275.292041 166.509035 
C 275.292041 167.039442 275.502773 167.548195 275.877827 167.923249 
C 276.252881 168.298303 276.761635 168.509035 277.292041 168.509035 
z
" clip-path="url(#p8ad99cef36)" style="fill: #fdcab5; stroke: #fdcab5; stroke-width: 3"/>
    <path d="M 219.943406 147.01343 
C 220.473812 147.01343 220.982565 146.802698 221.357619 146.427644 
C 221.732673 146.05259 221.943406 145.543837 221.943406 145.01343 
C 221.943406 144.483024 221.732673 143.974271 221.357619 143.599217 
C 220.982565 143.224163 220.473812 143.01343 219.943406 143.01343 
C 219.413 143.01343 218.904246 143.224163 218.529192 143.599217 
C 218.154138 143.974271 217.943406 144.483024 217.943406 145.01343 
C 217.943406 145.543837 218.154138 146.05259 218.529192 146.427644 
C 218.904246 146.802698 219.413 147.01343 219.943406 147.01343 
z
" clip-path="url(#p8ad99cef36)" style="fill: #fdcab5; stroke: #fdcab5; stroke-width: 3"/>
    <path d="M 149.056594 155.01343 
C 151.708625 155.01343 154.252393 153.959767 156.127662 152.084498 
C 158.002931 150.209229 159.056594 147.665461 159.056594 145.01343 
C 159.056594 142.361399 158.002931 139.817632 156.127662 137.942363 
C 154.252393 136.067093 151.708625 135.01343 149.056594 135.01343 
C 146.404563 135.01343 143.860796 136.067093 141.985526 137.942363 
C 140.110257 139.817632 139.056594 142.361399 139.056594 145.01343 
C 139.056594 147.665461 140.110257 150.209229 141.985526 152.084498 
C 143.860796 153.959767 146.404563 155.01343 149.056594 155.01343 
z
" clip-path="url(#p8ad99cef36)" style="fill: #6b010e; stroke: #6b010e; stroke-width: 3"/>
    <path d="M 91.707959 168.509035 
C 92.238365 168.509035 92.747119 168.298303 93.122173 167.923249 
C 93.497227 167.548195 93.707959 167.039442 93.707959 166.509035 
C 93.707959 165.978629 93.497227 165.469876 93.122173 165.094822 
C 92.747119 164.719768 92.238365 164.509035 91.707959 164.509035 
C 91.177553 164.509035 90.668799 164.719768 90.293746 165.094822 
C 89.918692 165.469876 89.707959 165.978629 89.707959 166.509035 
C 89.707959 167.039442 89.918692 167.548195 90.293746 167.923249 
C 90.668799 168.298303 91.177553 168.509035 91.707959 168.509035 
z
" clip-path="url(#p8ad99cef36)" style="fill: #fdcab5; stroke: #fdcab5; stroke-width: 3"/>
    <path d="M 69.80273 203.289655 
C 70.333136 203.289655 70.841889 203.078923 71.216943 202.703869 
C 71.591997 202.328815 71.80273 201.820061 71.80273 201.289655 
C 71.80273 200.759249 71.591997 200.250495 71.216943 199.875442 
C 70.841889 199.500388 70.333136 199.289655 69.80273 199.289655 
C 69.272324 199.289655 68.76357 199.500388 68.388516 199.875442 
C 68.013462 200.250495 67.80273 200.759249 67.80273 201.289655 
C 67.80273 201.820061 68.013462 202.328815 68.388516 202.703869 
C 68.76357 203.078923 69.272324 203.289655 69.80273 203.289655 
z
" clip-path="url(#p8ad99cef36)" style="fill: #fdcab5; stroke: #fdcab5; stroke-width: 3"/>
    <path d="M 91.707959 238.070275 
C 92.238365 238.070275 92.747119 237.859542 93.122173 237.484488 
C 93.497227 237.109435 93.707959 236.600681 93.707959 236.070275 
C 93.707959 235.539869 93.497227 235.031115 93.122173 234.656061 
C 92.747119 234.281007 92.238365 234.070275 91.707959 234.070275 
C 91.177553 234.070275 90.668799 234.281007 90.293746 234.656061 
C 89.918692 235.031115 89.707959 235.539869 89.707959 236.070275 
C 89.707959 236.600681 89.918692 237.109435 90.293746 237.484488 
C 90.668799 237.859542 91.177553 238.070275 91.707959 238.070275 
z
" clip-path="url(#p8ad99cef36)" style="fill: #fdcab5; stroke: #fdcab5; stroke-width: 3"/>
    <path d="M 149.056594 259.56588 
C 149.587 259.56588 150.095754 259.355147 150.470808 258.980094 
C 150.845862 258.60504 151.056594 258.096286 151.056594 257.56588 
C 151.056594 257.035474 150.845862 256.52672 150.470808 256.151666 
C 150.095754 255.776613 149.587 255.56588 149.056594 255.56588 
C 148.526188 255.56588 148.017435 255.776613 147.642381 256.151666 
C 147.267327 256.52672 147.056594 257.035474 147.056594 257.56588 
C 147.056594 258.096286 147.267327 258.60504 147.642381 258.980094 
C 148.017435 259.355147 148.526188 259.56588 149.056594 259.56588 
z
" clip-path="url(#p8ad99cef36)" style="fill: #fdcab5; stroke: #fdcab5; stroke-width: 3"/>
    <path d="M 219.943406 267.56588 
C 222.595437 267.56588 225.139204 266.512217 227.014474 264.636948 
C 228.889743 262.761679 229.943406 260.217911 229.943406 257.56588 
C 229.943406 254.913849 228.889743 252.370081 227.014474 250.494812 
C 225.139204 248.619543 222.595437 247.56588 219.943406 247.56588 
C 217.291375 247.56588 214.747607 248.619543 212.872338 250.494812 
C 210.997069 252.370081 209.943406 254.913849 209.943406 257.56588 
C 209.943406 260.217911 210.997069 262.761679 212.872338 264.636948 
C 214.747607 266.512217 217.291375 267.56588 219.943406 267.56588 
z
" clip-path="url(#p8ad99cef36)" style="fill: #6b010e; stroke: #6b010e; stroke-width: 3"/>
    <path d="M 277.292041 238.070275 
C 277.822447 238.070275 278.331201 237.859542 278.706254 237.484488 
C 279.081308 237.109435 279.292041 236.600681 279.292041 236.070275 
C 279.292041 235.539869 279.081308 235.031115 278.706254 234.656061 
C 278.331201 234.281007 277.822447 234.070275 277.292041 234.070275 
C 276.761635 234.070275 276.252881 234.281007 275.877827 234.656061 
C 275.502773 235.031115 275.292041 235.539869 275.292041 236.070275 
C 275.292041 236.600681 275.502773 237.109435 275.877827 237.484488 
C 276.252881 237.859542 276.761635 238.070275 277.292041 238.070275 
z
" clip-path="url(#p8ad99cef36)" style="fill: #fdcab5; stroke: #fdcab5; stroke-width: 3"/>
   </g>
   <g id="matplotlib.axis_1"/>
   <g id="matplotlib.axis_2"/>
  </g>
  <g id="axes_2">
   <g id="patch_3">
    <path d="M 45 445.034483 
L 324 445.034483 
L 324 301.655172 
L 45 301.655172 
z
" style="fill: #ffffff"/>
   </g>
   <g id="EdgeCollection_2">
    <path d="M 300.929321 374.344828 
C 325.927466 386.964543 325.927466 359.725113 300.929321 372.344828 
C 325.927466 359.725113 325.927466 386.964543 300.929321 374.344828 
" clip-path="url(#p381260aa0d)" style="fill: #ffffff"/>
    <path d="M 298.131424 371.652501 
L 278.357888 340.256535 
" clip-path="url(#p381260aa0d)" style="fill: #ffffff"/>
    <path d="M 297.566562 372.186902 
L 221.574114 318.226528 
" clip-path="url(#p381260aa0d)" style="fill: #ffffff"/>
    <path d="M 297.324503 372.642871 
L 158.42043 320.578387 
" clip-path="url(#p381260aa0d)" style="fill: #ffffff"/>
    <path d="M 297.22479 373.014188 
L 93.680439 338.894847 
" clip-path="url(#p381260aa0d)" style="fill: #ffffff"/>
    <path d="M 297.19727 373.344828 
L 71.80273 373.344828 
" clip-path="url(#p381260aa0d)" style="fill: #ffffff"/>
    <path d="M 297.22479 373.675467 
L 93.680439 407.794808 
" clip-path="url(#p381260aa0d)" style="fill: #ffffff"/>
    <path d="M 297.324503 374.046784 
L 150.929361 428.919096 
" clip-path="url(#p381260aa0d)" style="fill: #ffffff"/>
    <path d="M 297.566562 374.502753 
L 228.096945 423.831424 
" clip-path="url(#p381260aa0d)" style="fill: #ffffff"/>
    <path d="M 298.131424 375.037155 
L 282.621275 399.663812 
" clip-path="url(#p381260aa0d)" style="fill: #ffffff"/>
    <path d="M 279.161345 337.85308 
C 304.734909 326.444431 283.617449 309.238635 277.610838 336.589779 
C 283.617449 309.238635 304.734909 326.444431 279.161345 337.85308 
" clip-path="url(#p381260aa0d)" style="fill: #ffffff"/>
    <path d="M 275.419274 337.862251 
L 221.816173 317.77056 
" clip-path="url(#p381260aa0d)" style="fill: #ffffff"/>
    <path d="M 275.319561 338.233569 
L 158.918995 318.721798 
" clip-path="url(#p381260aa0d)" style="fill: #ffffff"/>
    <path d="M 275.292041 338.564208 
L 93.707959 338.564208 
" clip-path="url(#p381260aa0d)" style="fill: #ffffff"/>
    <path d="M 275.319561 338.894847 
L 71.77521 373.014188 
" clip-path="url(#p381260aa0d)" style="fill: #ffffff"/>
    <path d="M 275.419274 339.266165 
L 93.580726 407.423491 
" clip-path="url(#p381260aa0d)" style="fill: #ffffff"/>
    <path d="M 275.661333 339.722134 
L 150.687302 428.463127 
" clip-path="url(#p381260aa0d)" style="fill: #ffffff"/>
    <path d="M 276.226194 340.256535 
L 225.27264 421.159417 
" clip-path="url(#p381260aa0d)" style="fill: #ffffff"/>
    <path d="M 277.292041 340.564208 
L 277.292041 398.125447 
" clip-path="url(#p381260aa0d)" style="fill: #ffffff"/>
    <path d="M 221.236282 315.54267 
C 238.112054 293.196019 211.309343 288.337905 219.268347 315.185973 
C 211.309343 288.337905 238.112054 293.196019 221.236282 315.54267 
" clip-path="url(#p381260aa0d)" style="fill: #ffffff"/>
    <path d="M 217.943406 317.068603 
L 159.056594 317.068603 
" clip-path="url(#p381260aa0d)" style="fill: #ffffff"/>
    <path d="M 217.970926 317.399242 
L 93.680439 338.233569 
" clip-path="url(#p381260aa0d)" style="fill: #ffffff"/>
    <path d="M 218.070639 317.77056 
L 71.675497 372.642871 
" clip-path="url(#p381260aa0d)" style="fill: #ffffff"/>
    <path d="M 218.312698 318.226528 
L 93.338667 406.967522 
" clip-path="url(#p381260aa0d)" style="fill: #ffffff"/>
    <path d="M 218.877559 318.76093 
L 150.122441 427.928725 
" clip-path="url(#p381260aa0d)" style="fill: #ffffff"/>
    <path d="M 219.943406 319.068603 
L 219.943406 419.621052 
" clip-path="url(#p381260aa0d)" style="fill: #ffffff"/>
    <path d="M 221.009252 318.76093 
L 271.962807 399.663812 
" clip-path="url(#p381260aa0d)" style="fill: #ffffff"/>
    <path d="M 152.431887 307.655452 
C 157.690657 288.337905 130.887946 293.196019 142.592213 309.438938 
C 130.887946 293.196019 157.690657 288.337905 152.431887 307.655452 
" clip-path="url(#p381260aa0d)" style="fill: #ffffff"/>
    <path d="M 139.692759 320.578387 
L 93.580726 337.862251 
" clip-path="url(#p381260aa0d)" style="fill: #ffffff"/>
    <path d="M 140.903055 322.858231 
L 71.433438 372.186902 
" clip-path="url(#p381260aa0d)" style="fill: #ffffff"/>
    <path d="M 143.72736 325.530238 
L 92.773806 406.43312 
" clip-path="url(#p381260aa0d)" style="fill: #ffffff"/>
    <path d="M 149.056594 327.068603 
L 149.056594 427.621052 
" clip-path="url(#p381260aa0d)" style="fill: #ffffff"/>
    <path d="M 154.385828 325.530238 
L 214.614172 421.159417 
" clip-path="url(#p381260aa0d)" style="stroke: #000000; stroke-width: 5"/>
    <path d="M 157.210134 322.858231 
L 269.138501 402.335819 
" clip-path="url(#p381260aa0d)" style="stroke: #000000; stroke-width: 1.846473"/>
    <path d="M 91.389162 336.589779 
C 85.382551 309.238635 64.265091 326.444431 89.838655 337.85308 
C 64.265091 326.444431 85.382551 309.238635 91.389162 336.589779 
" clip-path="url(#p381260aa0d)" style="fill: #ffffff"/>
    <path d="M 90.642112 340.256535 
L 70.868576 371.652501 
" clip-path="url(#p381260aa0d)" style="fill: #ffffff"/>
    <path d="M 91.707959 340.564208 
L 91.707959 406.125447 
" clip-path="url(#p381260aa0d)" style="fill: #ffffff"/>
    <path d="M 92.773806 340.256535 
L 147.990748 427.928725 
" clip-path="url(#p381260aa0d)" style="fill: #ffffff"/>
    <path d="M 93.338667 339.722134 
L 211.789866 423.831424 
" clip-path="url(#p381260aa0d)" style="fill: #ffffff"/>
    <path d="M 93.580726 339.266165 
L 267.928205 404.615663 
" clip-path="url(#p381260aa0d)" style="fill: #ffffff"/>
    <path d="M 68.070679 372.344828 
C 43.072534 359.725113 43.072534 386.964543 68.070679 374.344828 
C 43.072534 386.964543 43.072534 359.725113 68.070679 372.344828 
" clip-path="url(#p381260aa0d)" style="fill: #ffffff"/>
    <path d="M 70.868576 375.037155 
L 90.642112 406.43312 
" clip-path="url(#p381260aa0d)" style="fill: #ffffff"/>
    <path d="M 71.433438 374.502753 
L 147.425886 428.463127 
" clip-path="url(#p381260aa0d)" style="fill: #ffffff"/>
    <path d="M 71.675497 374.046784 
L 210.57957 426.111269 
" clip-path="url(#p381260aa0d)" style="fill: #ffffff"/>
    <path d="M 71.77521 373.675467 
L 267.42964 406.472252 
" clip-path="url(#p381260aa0d)" style="fill: #ffffff"/>
    <path d="M 89.838655 408.836575 
C 64.265091 420.245224 85.382551 437.45102 91.389162 410.099876 
C 85.382551 437.45102 64.265091 420.245224 89.838655 408.836575 
" clip-path="url(#p381260aa0d)" style="fill: #ffffff"/>
    <path d="M 93.580726 408.827404 
L 147.183827 428.919096 
" clip-path="url(#p381260aa0d)" style="fill: #ffffff"/>
    <path d="M 93.680439 408.456086 
L 210.081005 427.967857 
" clip-path="url(#p381260aa0d)" style="fill: #ffffff"/>
    <path d="M 93.707959 408.125447 
L 267.292041 408.125447 
" clip-path="url(#p381260aa0d)" style="fill: #ffffff"/>
    <path d="M 147.763718 431.146985 
C 130.887946 453.493636 157.690657 458.35175 149.731653 431.503682 
C 157.690657 458.35175 130.887946 453.493636 147.763718 431.146985 
" clip-path="url(#p381260aa0d)" style="fill: #ffffff"/>
    <path d="M 151.056594 429.621052 
L 209.943406 429.621052 
" clip-path="url(#p381260aa0d)" style="fill: #ffffff"/>
    <path d="M 151.029074 429.290413 
L 267.42964 409.778643 
" clip-path="url(#p381260aa0d)" style="fill: #ffffff"/>
    <path d="M 216.568113 439.034203 
C 211.309343 458.35175 238.112054 453.493636 226.407787 437.250717 
C 238.112054 453.493636 211.309343 458.35175 216.568113 439.034203 
" clip-path="url(#p381260aa0d)" style="fill: #ffffff"/>
    <path d="M 229.307241 426.111269 
L 267.928205 411.635231 
" clip-path="url(#p381260aa0d)" style="stroke: #000000; stroke-width: 2.448133"/>
    <path d="M 278.886027 417.99759 
C 283.617449 437.45102 304.734909 420.245224 286.63856 411.681087 
C 304.734909 420.245224 283.617449 437.45102 278.886027 417.99759 
" clip-path="url(#p381260aa0d)" style="fill: #ffffff"/>
   </g>
   <g id="VertexCollection_2">
    <path d="M 299.19727 375.344828 
C 299.727676 375.344828 300.23643 375.134095 300.611484 374.759041 
C 300.986538 374.383987 301.19727 373.875234 301.19727 373.344828 
C 301.19727 372.814421 300.986538 372.305668 300.611484 371.930614 
C 300.23643 371.55556 299.727676 371.344828 299.19727 371.344828 
C 298.666864 371.344828 298.158111 371.55556 297.783057 371.930614 
C 297.408003 372.305668 297.19727 372.814421 297.19727 373.344828 
C 297.19727 373.875234 297.408003 374.383987 297.783057 374.759041 
C 298.158111 375.134095 298.666864 375.344828 299.19727 375.344828 
z
" clip-path="url(#p381260aa0d)" style="fill: #fdcab5; stroke: #fdcab5; stroke-width: 3"/>
    <path d="M 277.292041 340.564208 
C 277.822447 340.564208 278.331201 340.353475 278.706254 339.978421 
C 279.081308 339.603368 279.292041 339.094614 279.292041 338.564208 
C 279.292041 338.033802 279.081308 337.525048 278.706254 337.149994 
C 278.331201 336.774941 277.822447 336.564208 277.292041 336.564208 
C 276.761635 336.564208 276.252881 336.774941 275.877827 337.149994 
C 275.502773 337.525048 275.292041 338.033802 275.292041 338.564208 
C 275.292041 339.094614 275.502773 339.603368 275.877827 339.978421 
C 276.252881 340.353475 276.761635 340.564208 277.292041 340.564208 
z
" clip-path="url(#p381260aa0d)" style="fill: #fdcab5; stroke: #fdcab5; stroke-width: 3"/>
    <path d="M 219.943406 319.068603 
C 220.473812 319.068603 220.982565 318.85787 221.357619 318.482816 
C 221.732673 318.107763 221.943406 317.599009 221.943406 317.068603 
C 221.943406 316.538197 221.732673 316.029443 221.357619 315.654389 
C 220.982565 315.279335 220.473812 315.068603 219.943406 315.068603 
C 219.413 315.068603 218.904246 315.279335 218.529192 315.654389 
C 218.154138 316.029443 217.943406 316.538197 217.943406 317.068603 
C 217.943406 317.599009 218.154138 318.107763 218.529192 318.482816 
C 218.904246 318.85787 219.413 319.068603 219.943406 319.068603 
z
" clip-path="url(#p381260aa0d)" style="fill: #fdcab5; stroke: #fdcab5; stroke-width: 3"/>
    <path d="M 149.056594 327.068603 
C 151.708625 327.068603 154.252393 326.01494 156.127662 324.139671 
C 158.002931 322.264401 159.056594 319.720634 159.056594 317.068603 
C 159.056594 314.416572 158.002931 311.872804 156.127662 309.997535 
C 154.252393 308.122266 151.708625 307.068603 149.056594 307.068603 
C 146.404563 307.068603 143.860796 308.122266 141.985526 309.997535 
C 140.110257 311.872804 139.056594 314.416572 139.056594 317.068603 
C 139.056594 319.720634 140.110257 322.264401 141.985526 324.139671 
C 143.860796 326.01494 146.404563 327.068603 149.056594 327.068603 
z
" clip-path="url(#p381260aa0d)" style="fill: #6b010e; stroke: #6b010e; stroke-width: 3"/>
    <path d="M 91.707959 340.564208 
C 92.238365 340.564208 92.747119 340.353475 93.122173 339.978421 
C 93.497227 339.603368 93.707959 339.094614 93.707959 338.564208 
C 93.707959 338.033802 93.497227 337.525048 93.122173 337.149994 
C 92.747119 336.774941 92.238365 336.564208 91.707959 336.564208 
C 91.177553 336.564208 90.668799 336.774941 90.293746 337.149994 
C 89.918692 337.525048 89.707959 338.033802 89.707959 338.564208 
C 89.707959 339.094614 89.918692 339.603368 90.293746 339.978421 
C 90.668799 340.353475 91.177553 340.564208 91.707959 340.564208 
z
" clip-path="url(#p381260aa0d)" style="fill: #fdcab5; stroke: #fdcab5; stroke-width: 3"/>
    <path d="M 69.80273 375.344828 
C 70.333136 375.344828 70.841889 375.134095 71.216943 374.759041 
C 71.591997 374.383987 71.80273 373.875234 71.80273 373.344828 
C 71.80273 372.814421 71.591997 372.305668 71.216943 371.930614 
C 70.841889 371.55556 70.333136 371.344828 69.80273 371.344828 
C 69.272324 371.344828 68.76357 371.55556 68.388516 371.930614 
C 68.013462 372.305668 67.80273 372.814421 67.80273 373.344828 
C 67.80273 373.875234 68.013462 374.383987 68.388516 374.759041 
C 68.76357 375.134095 69.272324 375.344828 69.80273 375.344828 
z
" clip-path="url(#p381260aa0d)" style="fill: #fdcab5; stroke: #fdcab5; stroke-width: 3"/>
    <path d="M 91.707959 410.125447 
C 92.238365 410.125447 92.747119 409.914715 93.122173 409.539661 
C 93.497227 409.164607 93.707959 408.655853 93.707959 408.125447 
C 93.707959 407.595041 93.497227 407.086288 93.122173 406.711234 
C 92.747119 406.33618 92.238365 406.125447 91.707959 406.125447 
C 91.177553 406.125447 90.668799 406.33618 90.293746 406.711234 
C 89.918692 407.086288 89.707959 407.595041 89.707959 408.125447 
C 89.707959 408.655853 89.918692 409.164607 90.293746 409.539661 
C 90.668799 409.914715 91.177553 410.125447 91.707959 410.125447 
z
" clip-path="url(#p381260aa0d)" style="fill: #fdcab5; stroke: #fdcab5; stroke-width: 3"/>
    <path d="M 149.056594 431.621052 
C 149.587 431.621052 150.095754 431.41032 150.470808 431.035266 
C 150.845862 430.660212 151.056594 430.151459 151.056594 429.621052 
C 151.056594 429.090646 150.845862 428.581893 150.470808 428.206839 
C 150.095754 427.831785 149.587 427.621052 149.056594 427.621052 
C 148.526188 427.621052 148.017435 427.831785 147.642381 428.206839 
C 147.267327 428.581893 147.056594 429.090646 147.056594 429.621052 
C 147.056594 430.151459 147.267327 430.660212 147.642381 431.035266 
C 148.017435 431.41032 148.526188 431.621052 149.056594 431.621052 
z
" clip-path="url(#p381260aa0d)" style="fill: #fdcab5; stroke: #fdcab5; stroke-width: 3"/>
    <path d="M 219.943406 439.621052 
C 222.595437 439.621052 225.139204 438.567389 227.014474 436.69212 
C 228.889743 434.816851 229.943406 432.273083 229.943406 429.621052 
C 229.943406 426.969021 228.889743 424.425254 227.014474 422.549985 
C 225.139204 420.674715 222.595437 419.621052 219.943406 419.621052 
C 217.291375 419.621052 214.747607 420.674715 212.872338 422.549985 
C 210.997069 424.425254 209.943406 426.969021 209.943406 429.621052 
C 209.943406 432.273083 210.997069 434.816851 212.872338 436.69212 
C 214.747607 438.567389 217.291375 439.621052 219.943406 439.621052 
z
" clip-path="url(#p381260aa0d)" style="fill: #6b010e; stroke: #6b010e; stroke-width: 3"/>
    <path d="M 277.292041 418.125447 
C 279.944072 418.125447 282.48784 417.071784 284.363109 415.196515 
C 286.238378 413.321246 287.292041 410.777478 287.292041 408.125447 
C 287.292041 405.473416 286.238378 402.929649 284.363109 401.054379 
C 282.48784 399.17911 279.944072 398.125447 277.292041 398.125447 
C 274.64001 398.125447 272.096242 399.17911 270.220973 401.054379 
C 268.345704 402.929649 267.292041 405.473416 267.292041 408.125447 
C 267.292041 410.777478 268.345704 413.321246 270.220973 415.196515 
C 272.096242 417.071784 274.64001 418.125447 277.292041 418.125447 
z
" clip-path="url(#p381260aa0d)" style="fill: #6b010e; stroke: #6b010e; stroke-width: 3"/>
   </g>
   <g id="matplotlib.axis_3"/>
   <g id="matplotlib.axis_4"/>
  </g>
  <g id="axes_3">
   <g id="patch_4">
    <path d="M 45 617.089655 
L 324 617.089655 
L 324 473.710345 
L 45 473.710345 
z
" style="fill: #ffffff"/>
   </g>
   <g id="EdgeCollection_3">
    <path d="M 300.929321 546.4 
C 325.927466 559.019715 325.927466 531.780285 300.929321 544.4 
C 325.927466 531.780285 325.927466 559.019715 300.929321 546.4 
" clip-path="url(#p98dc372b64)" style="fill: #ffffff"/>
    <path d="M 298.131424 543.707673 
L 278.357888 512.311707 
" clip-path="url(#p98dc372b64)" style="fill: #ffffff"/>
    <path d="M 297.566562 544.242074 
L 221.574114 490.281701 
" clip-path="url(#p98dc372b64)" style="fill: #ffffff"/>
    <path d="M 297.324503 544.698043 
L 158.42043 492.633559 
" clip-path="url(#p98dc372b64)" style="fill: #ffffff"/>
    <path d="M 297.22479 545.069361 
L 93.680439 510.950019 
" clip-path="url(#p98dc372b64)" style="fill: #ffffff"/>
    <path d="M 297.19727 545.4 
L 71.80273 545.4 
" clip-path="url(#p98dc372b64)" style="fill: #ffffff"/>
    <path d="M 297.22479 545.730639 
L 93.680439 579.849981 
" clip-path="url(#p98dc372b64)" style="fill: #ffffff"/>
    <path d="M 297.324503 546.101957 
L 150.929361 600.974268 
" clip-path="url(#p98dc372b64)" style="fill: #ffffff"/>
    <path d="M 297.566562 546.557926 
L 228.096945 595.886597 
" clip-path="url(#p98dc372b64)" style="fill: #ffffff"/>
    <path d="M 298.131424 547.092327 
L 282.621275 571.718985 
" clip-path="url(#p98dc372b64)" style="fill: #ffffff"/>
    <path d="M 279.161345 509.908252 
C 304.734909 498.499604 283.617449 481.293808 277.610838 508.644952 
C 283.617449 481.293808 304.734909 498.499604 279.161345 509.908252 
" clip-path="url(#p98dc372b64)" style="fill: #ffffff"/>
    <path d="M 275.419274 509.917424 
L 221.816173 489.825732 
" clip-path="url(#p98dc372b64)" style="fill: #ffffff"/>
    <path d="M 275.319561 510.288741 
L 158.918995 490.776971 
" clip-path="url(#p98dc372b64)" style="fill: #ffffff"/>
    <path d="M 275.292041 510.61938 
L 93.707959 510.61938 
" clip-path="url(#p98dc372b64)" style="fill: #ffffff"/>
    <path d="M 275.319561 510.950019 
L 71.77521 545.069361 
" clip-path="url(#p98dc372b64)" style="fill: #ffffff"/>
    <path d="M 275.419274 511.321337 
L 93.580726 579.478663 
" clip-path="url(#p98dc372b64)" style="fill: #ffffff"/>
    <path d="M 275.661333 511.777306 
L 150.687302 600.518299 
" clip-path="url(#p98dc372b64)" style="fill: #ffffff"/>
    <path d="M 276.226194 512.311707 
L 225.27264 593.21459 
" clip-path="url(#p98dc372b64)" style="fill: #ffffff"/>
    <path d="M 277.292041 512.61938 
L 277.292041 570.18062 
" clip-path="url(#p98dc372b64)" style="fill: #ffffff"/>
    <path d="M 221.236282 487.597842 
C 238.112054 465.251192 211.309343 460.393078 219.268347 487.241145 
C 211.309343 460.393078 238.112054 465.251192 221.236282 487.597842 
" clip-path="url(#p98dc372b64)" style="fill: #ffffff"/>
    <path d="M 217.943406 489.123775 
L 159.056594 489.123775 
" clip-path="url(#p98dc372b64)" style="fill: #ffffff"/>
    <path d="M 217.970926 489.454414 
L 93.680439 510.288741 
" clip-path="url(#p98dc372b64)" style="fill: #ffffff"/>
    <path d="M 218.070639 489.825732 
L 71.675497 544.698043 
" clip-path="url(#p98dc372b64)" style="fill: #ffffff"/>
    <path d="M 218.312698 490.281701 
L 93.338667 579.022694 
" clip-path="url(#p98dc372b64)" style="fill: #ffffff"/>
    <path d="M 218.877559 490.816102 
L 150.122441 599.983898 
" clip-path="url(#p98dc372b64)" style="fill: #ffffff"/>
    <path d="M 219.943406 491.123775 
L 219.943406 591.676225 
" clip-path="url(#p98dc372b64)" style="fill: #ffffff"/>
    <path d="M 221.009252 490.816102 
L 271.962807 571.718985 
" clip-path="url(#p98dc372b64)" style="fill: #ffffff"/>
    <path d="M 152.431887 479.710625 
C 157.690657 460.393078 130.887946 465.251192 142.592213 481.494111 
C 130.887946 465.251192 157.690657 460.393078 152.431887 479.710625 
" clip-path="url(#p98dc372b64)" style="fill: #ffffff"/>
    <path d="M 139.692759 492.633559 
L 93.580726 509.917424 
" clip-path="url(#p98dc372b64)" style="fill: #ffffff"/>
    <path d="M 140.903055 494.913403 
L 71.433438 544.242074 
" clip-path="url(#p98dc372b64)" style="fill: #ffffff"/>
    <path d="M 143.72736 497.58541 
L 92.773806 578.488293 
" clip-path="url(#p98dc372b64)" style="fill: #ffffff"/>
    <path d="M 149.056594 499.123775 
L 149.056594 599.676225 
" clip-path="url(#p98dc372b64)" style="fill: #ffffff"/>
    <path d="M 154.385828 497.58541 
L 214.614172 593.21459 
" clip-path="url(#p98dc372b64)" style="stroke: #000000; stroke-width: 5"/>
    <path d="M 157.210134 494.913403 
L 269.138501 574.390991 
" clip-path="url(#p98dc372b64)" style="stroke: #000000; stroke-width: 2.13615"/>
    <path d="M 91.389162 508.644952 
C 85.382551 481.293808 64.265091 498.499604 89.838655 509.908252 
C 64.265091 498.499604 85.382551 481.293808 91.389162 508.644952 
" clip-path="url(#p98dc372b64)" style="fill: #ffffff"/>
    <path d="M 90.642112 512.311707 
L 70.868576 543.707673 
" clip-path="url(#p98dc372b64)" style="fill: #ffffff"/>
    <path d="M 91.707959 512.61938 
L 91.707959 578.18062 
" clip-path="url(#p98dc372b64)" style="fill: #989898; stroke: #989898; stroke-width: 0.504695"/>
    <path d="M 92.773806 512.311707 
L 147.990748 599.983898 
" clip-path="url(#p98dc372b64)" style="fill: #ffffff"/>
    <path d="M 93.338667 511.777306 
L 211.789866 595.886597 
" clip-path="url(#p98dc372b64)" style="fill: #ffffff"/>
    <path d="M 93.580726 511.321337 
L 267.928205 576.670836 
" clip-path="url(#p98dc372b64)" style="fill: #ffffff"/>
    <path d="M 68.070679 544.4 
C 43.072534 531.780285 43.072534 559.019715 68.070679 546.4 
C 43.072534 559.019715 43.072534 531.780285 68.070679 544.4 
" clip-path="url(#p98dc372b64)" style="fill: #ffffff"/>
    <path d="M 70.868576 547.092327 
L 90.642112 578.488293 
" clip-path="url(#p98dc372b64)" style="fill: #ffffff"/>
    <path d="M 71.433438 546.557926 
L 147.425886 600.518299 
" clip-path="url(#p98dc372b64)" style="fill: #ffffff"/>
    <path d="M 71.675497 546.101957 
L 210.57957 598.166441 
" clip-path="url(#p98dc372b64)" style="fill: #ffffff"/>
    <path d="M 71.77521 545.730639 
L 267.42964 578.527424 
" clip-path="url(#p98dc372b64)" style="fill: #ffffff"/>
    <path d="M 89.838655 580.891748 
C 64.265091 592.300396 85.382551 609.506192 91.389162 582.155048 
C 85.382551 609.506192 64.265091 592.300396 89.838655 580.891748 
" clip-path="url(#p98dc372b64)" style="fill: #ffffff"/>
    <path d="M 93.580726 580.882576 
L 147.183827 600.974268 
" clip-path="url(#p98dc372b64)" style="fill: #ffffff"/>
    <path d="M 93.680439 580.511259 
L 210.081005 600.023029 
" clip-path="url(#p98dc372b64)" style="fill: #ffffff"/>
    <path d="M 93.707959 580.18062 
L 267.292041 580.18062 
" clip-path="url(#p98dc372b64)" style="fill: #ffffff"/>
    <path d="M 147.763718 603.202158 
C 130.887946 625.548808 157.690657 630.406922 149.731653 603.558855 
C 157.690657 630.406922 130.887946 625.548808 147.763718 603.202158 
" clip-path="url(#p98dc372b64)" style="fill: #ffffff"/>
    <path d="M 151.056594 601.676225 
L 209.943406 601.676225 
" clip-path="url(#p98dc372b64)" style="fill: #ffffff"/>
    <path d="M 151.029074 601.345586 
L 267.42964 581.833815 
" clip-path="url(#p98dc372b64)" style="fill: #ffffff"/>
    <path d="M 216.568113 611.089375 
C 211.309343 630.406922 238.112054 625.548808 226.407787 609.305889 
C 238.112054 625.548808 211.309343 630.406922 216.568113 611.089375 
" clip-path="url(#p98dc372b64)" style="fill: #ffffff"/>
    <path d="M 229.307241 598.166441 
L 267.928205 583.690404 
" clip-path="url(#p98dc372b64)" style="stroke: #000000; stroke-width: 2.124413"/>
    <path d="M 278.886027 590.052763 
C 283.617449 609.506192 304.734909 592.300396 286.63856 583.736259 
C 304.734909 592.300396 283.617449 609.506192 278.886027 590.052763 
" clip-path="url(#p98dc372b64)" style="fill: #ffffff"/>
   </g>
   <g id="VertexCollection_3">
    <path d="M 299.19727 547.4 
C 299.727676 547.4 300.23643 547.189267 300.611484 546.814214 
C 300.986538 546.43916 301.19727 545.930406 301.19727 545.4 
C 301.19727 544.869594 300.986538 544.36084 300.611484 543.985786 
C 300.23643 543.610733 299.727676 543.4 299.19727 543.4 
C 298.666864 543.4 298.158111 543.610733 297.783057 543.985786 
C 297.408003 544.36084 297.19727 544.869594 297.19727 545.4 
C 297.19727 545.930406 297.408003 546.43916 297.783057 546.814214 
C 298.158111 547.189267 298.666864 547.4 299.19727 547.4 
z
" clip-path="url(#p98dc372b64)" style="fill: #fdcab5; stroke: #fdcab5; stroke-width: 3"/>
    <path d="M 277.292041 512.61938 
C 277.822447 512.61938 278.331201 512.408648 278.706254 512.033594 
C 279.081308 511.65854 279.292041 511.149787 279.292041 510.61938 
C 279.292041 510.088974 279.081308 509.580221 278.706254 509.205167 
C 278.331201 508.830113 277.822447 508.61938 277.292041 508.61938 
C 276.761635 508.61938 276.252881 508.830113 275.877827 509.205167 
C 275.502773 509.580221 275.292041 510.088974 275.292041 510.61938 
C 275.292041 511.149787 275.502773 511.65854 275.877827 512.033594 
C 276.252881 512.408648 276.761635 512.61938 277.292041 512.61938 
z
" clip-path="url(#p98dc372b64)" style="fill: #fdcab5; stroke: #fdcab5; stroke-width: 3"/>
    <path d="M 219.943406 491.123775 
C 220.473812 491.123775 220.982565 490.913043 221.357619 490.537989 
C 221.732673 490.162935 221.943406 489.654181 221.943406 489.123775 
C 221.943406 488.593369 221.732673 488.084615 221.357619 487.709562 
C 220.982565 487.334508 220.473812 487.123775 219.943406 487.123775 
C 219.413 487.123775 218.904246 487.334508 218.529192 487.709562 
C 218.154138 488.084615 217.943406 488.593369 217.943406 489.123775 
C 217.943406 489.654181 218.154138 490.162935 218.529192 490.537989 
C 218.904246 490.913043 219.413 491.123775 219.943406 491.123775 
z
" clip-path="url(#p98dc372b64)" style="fill: #fdcab5; stroke: #fdcab5; stroke-width: 3"/>
    <path d="M 149.056594 499.123775 
C 151.708625 499.123775 154.252393 498.070112 156.127662 496.194843 
C 158.002931 494.319574 159.056594 491.775806 159.056594 489.123775 
C 159.056594 486.471744 158.002931 483.927976 156.127662 482.052707 
C 154.252393 480.177438 151.708625 479.123775 149.056594 479.123775 
C 146.404563 479.123775 143.860796 480.177438 141.985526 482.052707 
C 140.110257 483.927976 139.056594 486.471744 139.056594 489.123775 
C 139.056594 491.775806 140.110257 494.319574 141.985526 496.194843 
C 143.860796 498.070112 146.404563 499.123775 149.056594 499.123775 
z
" clip-path="url(#p98dc372b64)" style="fill: #6b010e; stroke: #6b010e; stroke-width: 3"/>
    <path d="M 91.707959 512.61938 
C 92.238365 512.61938 92.747119 512.408648 93.122173 512.033594 
C 93.497227 511.65854 93.707959 511.149787 93.707959 510.61938 
C 93.707959 510.088974 93.497227 509.580221 93.122173 509.205167 
C 92.747119 508.830113 92.238365 508.61938 91.707959 508.61938 
C 91.177553 508.61938 90.668799 508.830113 90.293746 509.205167 
C 89.918692 509.580221 89.707959 510.088974 89.707959 510.61938 
C 89.707959 511.149787 89.918692 511.65854 90.293746 512.033594 
C 90.668799 512.408648 91.177553 512.61938 91.707959 512.61938 
z
" clip-path="url(#p98dc372b64)" style="fill: #fdcab5; stroke: #fdcab5; stroke-width: 3"/>
    <path d="M 69.80273 547.4 
C 70.333136 547.4 70.841889 547.189267 71.216943 546.814214 
C 71.591997 546.43916 71.80273 545.930406 71.80273 545.4 
C 71.80273 544.869594 71.591997 544.36084 71.216943 543.985786 
C 70.841889 543.610733 70.333136 543.4 69.80273 543.4 
C 69.272324 543.4 68.76357 543.610733 68.388516 543.985786 
C 68.013462 544.36084 67.80273 544.869594 67.80273 545.4 
C 67.80273 545.930406 68.013462 546.43916 68.388516 546.814214 
C 68.76357 547.189267 69.272324 547.4 69.80273 547.4 
z
" clip-path="url(#p98dc372b64)" style="fill: #fdcab5; stroke: #fdcab5; stroke-width: 3"/>
    <path d="M 91.707959 582.18062 
C 92.238365 582.18062 92.747119 581.969887 93.122173 581.594833 
C 93.497227 581.219779 93.707959 580.711026 93.707959 580.18062 
C 93.707959 579.650213 93.497227 579.14146 93.122173 578.766406 
C 92.747119 578.391352 92.238365 578.18062 91.707959 578.18062 
C 91.177553 578.18062 90.668799 578.391352 90.293746 578.766406 
C 89.918692 579.14146 89.707959 579.650213 89.707959 580.18062 
C 89.707959 580.711026 89.918692 581.219779 90.293746 581.594833 
C 90.668799 581.969887 91.177553 582.18062 91.707959 582.18062 
z
" clip-path="url(#p98dc372b64)" style="fill: #fdcab5; stroke: #fdcab5; stroke-width: 3"/>
    <path d="M 149.056594 603.676225 
C 149.587 603.676225 150.095754 603.465492 150.470808 603.090438 
C 150.845862 602.715385 151.056594 602.206631 151.056594 601.676225 
C 151.056594 601.145819 150.845862 600.637065 150.470808 600.262011 
C 150.095754 599.886957 149.587 599.676225 149.056594 599.676225 
C 148.526188 599.676225 148.017435 599.886957 147.642381 600.262011 
C 147.267327 600.637065 147.056594 601.145819 147.056594 601.676225 
C 147.056594 602.206631 147.267327 602.715385 147.642381 603.090438 
C 148.017435 603.465492 148.526188 603.676225 149.056594 603.676225 
z
" clip-path="url(#p98dc372b64)" style="fill: #fdcab5; stroke: #fdcab5; stroke-width: 3"/>
    <path d="M 219.943406 611.676225 
C 222.595437 611.676225 225.139204 610.622562 227.014474 608.747293 
C 228.889743 606.872024 229.943406 604.328256 229.943406 601.676225 
C 229.943406 599.024194 228.889743 596.480426 227.014474 594.605157 
C 225.139204 592.729888 222.595437 591.676225 219.943406 591.676225 
C 217.291375 591.676225 214.747607 592.729888 212.872338 594.605157 
C 210.997069 596.480426 209.943406 599.024194 209.943406 601.676225 
C 209.943406 604.328256 210.997069 606.872024 212.872338 608.747293 
C 214.747607 610.622562 217.291375 611.676225 219.943406 611.676225 
z
" clip-path="url(#p98dc372b64)" style="fill: #6b010e; stroke: #6b010e; stroke-width: 3"/>
    <path d="M 277.292041 590.18062 
C 279.944072 590.18062 282.48784 589.126957 284.363109 587.251688 
C 286.238378 585.376418 287.292041 582.832651 287.292041 580.18062 
C 287.292041 577.528589 286.238378 574.984821 284.363109 573.109552 
C 282.48784 571.234283 279.944072 570.18062 277.292041 570.18062 
C 274.64001 570.18062 272.096242 571.234283 270.220973 573.109552 
C 268.345704 574.984821 267.292041 577.528589 267.292041 580.18062 
C 267.292041 582.832651 268.345704 585.376418 270.220973 587.251688 
C 272.096242 589.126957 274.64001 590.18062 277.292041 590.18062 
z
" clip-path="url(#p98dc372b64)" style="fill: #6b010e; stroke: #6b010e; stroke-width: 3"/>
   </g>
   <g id="matplotlib.axis_5"/>
   <g id="matplotlib.axis_6"/>
  </g>
  <g id="axes_4">
   <g id="patch_5">
    <path d="M 45 789.144828 
L 324 789.144828 
L 324 645.765517 
L 45 645.765517 
z
" style="fill: #ffffff"/>
   </g>
   <g id="EdgeCollection_4">
    <path d="M 300.935339 718.455172 
C 325.933484 731.074887 325.933484 703.835457 300.935339 716.455172 
C 325.933484 703.835457 325.933484 731.074887 300.935339 718.455172 
" clip-path="url(#p1ebcfedb5d)" style="fill: #ffffff"/>
    <path d="M 298.145232 715.757963 
L 278.578785 684.371762 
" clip-path="url(#p1ebcfedb5d)" style="fill: #ffffff"/>
    <path d="M 297.578193 716.289382 
L 222.380148 662.344738 
" clip-path="url(#p1ebcfedb5d)" style="fill: #ffffff"/>
    <path d="M 297.332898 716.746907 
L 159.940771 664.720275 
" clip-path="url(#p1ebcfedb5d)" style="fill: #ffffff"/>
    <path d="M 297.231364 717.121232 
L 95.795068 683.008493 
" clip-path="url(#p1ebcfedb5d)" style="fill: #ffffff"/>
    <path d="M 297.203288 717.455172 
L 82.140585 717.455172 
" clip-path="url(#p1ebcfedb5d)" style="fill: #ffffff"/>
    <path d="M 297.231364 717.789113 
L 95.795068 751.901852 
" clip-path="url(#p1ebcfedb5d)" style="fill: #ffffff"/>
    <path d="M 297.332898 718.163438 
L 152.45921 773.023132 
" clip-path="url(#p1ebcfedb5d)" style="fill: #ffffff"/>
    <path d="M 297.578193 718.620963 
L 228.880527 767.902445 
" clip-path="url(#p1ebcfedb5d)" style="fill: #ffffff"/>
    <path d="M 298.145232 719.152381 
L 282.811008 743.749747 
" clip-path="url(#p1ebcfedb5d)" style="fill: #ffffff"/>
    <path d="M 279.392851 681.970878 
C 305.011664 670.664204 283.962919 653.374413 277.84739 680.70141 
C 283.962919 653.374413 305.011664 670.664204 279.392851 681.970878 
" clip-path="url(#p1ebcfedb5d)" style="fill: #ffffff"/>
    <path d="M 275.650339 681.966287 
L 222.625444 661.887213 
" clip-path="url(#p1ebcfedb5d)" style="fill: #ffffff"/>
    <path d="M 275.548805 682.340612 
L 160.448439 662.84865 
" clip-path="url(#p1ebcfedb5d)" style="fill: #ffffff"/>
    <path d="M 275.520729 682.674553 
L 95.823144 682.674553 
" clip-path="url(#p1ebcfedb5d)" style="fill: #ffffff"/>
    <path d="M 275.548805 683.008493 
L 82.000205 715.78547 
" clip-path="url(#p1ebcfedb5d)" style="fill: #ffffff"/>
    <path d="M 275.650339 683.382818 
L 95.693534 751.527527 
" clip-path="url(#p1ebcfedb5d)" style="fill: #ffffff"/>
    <path d="M 275.895634 683.840343 
L 152.213914 772.565607 
" clip-path="url(#p1ebcfedb5d)" style="fill: #ffffff"/>
    <path d="M 276.462674 684.371762 
L 226.045332 765.245353 
" clip-path="url(#p1ebcfedb5d)" style="fill: #ffffff"/>
    <path d="M 277.520729 684.674553 
L 277.520729 742.235792 
" clip-path="url(#p1ebcfedb5d)" style="fill: #ffffff"/>
    <path d="M 222.0505 659.655196 
C 238.963911 637.33702 212.169426 632.433739 220.083169 659.295182 
C 212.169426 632.433739 238.963911 637.33702 222.0505 659.655196 
" clip-path="url(#p1ebcfedb5d)" style="fill: #ffffff"/>
    <path d="M 218.755054 661.178948 
L 160.58882 661.178948 
" clip-path="url(#p1ebcfedb5d)" style="fill: #ffffff"/>
    <path d="M 218.78313 661.512888 
L 95.795068 682.340612 
" clip-path="url(#p1ebcfedb5d)" style="fill: #ffffff"/>
    <path d="M 218.884663 661.887213 
L 81.492537 713.913845 
" clip-path="url(#p1ebcfedb5d)" style="fill: #ffffff"/>
    <path d="M 219.129959 662.344738 
L 95.448239 751.070002 
" clip-path="url(#p1ebcfedb5d)" style="fill: #ffffff"/>
    <path d="M 219.696998 662.876157 
L 151.646875 772.034188 
" clip-path="url(#p1ebcfedb5d)" style="fill: #ffffff"/>
    <path d="M 220.755054 663.178948 
L 220.755054 763.731397 
" clip-path="url(#p1ebcfedb5d)" style="fill: #ffffff"/>
    <path d="M 221.813109 662.876157 
L 272.230451 743.749747 
" clip-path="url(#p1ebcfedb5d)" style="fill: #ffffff"/>
    <path d="M 153.948242 651.760122 
C 159.174447 632.433739 132.379962 637.33702 144.111589 653.560189 
C 132.379962 637.33702 159.174447 632.433739 153.948242 651.760122 
" clip-path="url(#p1ebcfedb5d)" style="fill: #ffffff"/>
    <path d="M 141.236868 664.720275 
L 95.693534 681.966287 
" clip-path="url(#p1ebcfedb5d)" style="fill: #ffffff"/>
    <path d="M 142.463346 667.007899 
L 80.266059 711.626221 
" clip-path="url(#p1ebcfedb5d)" style="stroke: #000000; stroke-width: 1.312785"/>
    <path d="M 145.298541 669.664992 
L 94.8812 750.538583 
" clip-path="url(#p1ebcfedb5d)" style="fill: #ffffff"/>
    <path d="M 150.58882 671.178948 
L 150.58882 771.731397 
" clip-path="url(#p1ebcfedb5d)" style="fill: #ffffff"/>
    <path d="M 155.879098 669.664992 
L 215.464775 765.245353 
" clip-path="url(#p1ebcfedb5d)" style="stroke: #000000; stroke-width: 5"/>
    <path d="M 158.714293 667.007899 
L 269.395256 746.40684 
" clip-path="url(#p1ebcfedb5d)" style="fill: #ffffff"/>
    <path d="M 93.496483 680.70141 
C 87.380954 653.374413 66.332209 670.664204 91.951022 681.970878 
C 66.332209 670.664204 87.380954 653.374413 93.496483 680.70141 
" clip-path="url(#p1ebcfedb5d)" style="fill: #ffffff"/>
    <path d="M 92.765088 684.371762 
L 77.430864 708.969128 
" clip-path="url(#p1ebcfedb5d)" style="fill: #ffffff"/>
    <path d="M 93.823144 684.674553 
L 93.823144 750.235792 
" clip-path="url(#p1ebcfedb5d)" style="fill: #cecece; stroke: #cecece; stroke-width: 0.308219"/>
    <path d="M 94.8812 684.371762 
L 149.530764 772.034188 
" clip-path="url(#p1ebcfedb5d)" style="fill: #ffffff"/>
    <path d="M 95.448239 683.840343 
L 212.62958 767.902445 
" clip-path="url(#p1ebcfedb5d)" style="fill: #ffffff"/>
    <path d="M 95.693534 683.382818 
L 268.168778 748.694464 
" clip-path="url(#p1ebcfedb5d)" style="fill: #ffffff"/>
    <path d="M 63.480331 712.455172 
C 45.410389 703.835457 45.410389 731.074887 63.480331 722.455172 
C 45.410389 731.074887 45.410389 703.835457 63.480331 712.455172 
" clip-path="url(#p1ebcfedb5d)" style="fill: #ffffff"/>
    <path d="M 77.430864 725.941217 
L 92.765088 750.538583 
" clip-path="url(#p1ebcfedb5d)" style="fill: #ffffff"/>
    <path d="M 80.266059 723.284124 
L 148.963725 772.565607 
" clip-path="url(#p1ebcfedb5d)" style="fill: #ffffff"/>
    <path d="M 81.492537 720.9965 
L 211.403102 770.19007 
" clip-path="url(#p1ebcfedb5d)" style="fill: #ffffff"/>
    <path d="M 82.000205 719.124875 
L 267.66111 750.56609 
" clip-path="url(#p1ebcfedb5d)" style="stroke: #000000; stroke-width: 1.438356"/>
    <path d="M 91.951022 752.939467 
C 66.332209 764.246141 87.380954 781.535932 93.496483 754.208935 
C 87.380954 781.535932 66.332209 764.246141 91.951022 752.939467 
" clip-path="url(#p1ebcfedb5d)" style="fill: #ffffff"/>
    <path d="M 95.693534 752.944058 
L 148.718429 773.023132 
" clip-path="url(#p1ebcfedb5d)" style="fill: #ffffff"/>
    <path d="M 95.795068 752.569733 
L 210.895434 772.061695 
" clip-path="url(#p1ebcfedb5d)" style="fill: #ffffff"/>
    <path d="M 95.823144 752.235792 
L 267.520729 752.235792 
" clip-path="url(#p1ebcfedb5d)" style="fill: #ffffff"/>
    <path d="M 149.293373 775.255149 
C 132.379962 797.573325 159.174447 802.476606 151.260704 775.615162 
C 159.174447 802.476606 132.379962 797.573325 149.293373 775.255149 
" clip-path="url(#p1ebcfedb5d)" style="fill: #ffffff"/>
    <path d="M 152.58882 773.731397 
L 210.755054 773.731397 
" clip-path="url(#p1ebcfedb5d)" style="fill: #ffffff"/>
    <path d="M 152.560743 773.397457 
L 267.66111 753.905494 
" clip-path="url(#p1ebcfedb5d)" style="fill: #ffffff"/>
    <path d="M 217.395631 783.150223 
C 212.169426 802.476606 238.963911 797.573325 227.232284 781.350156 
C 238.963911 797.573325 212.169426 802.476606 217.395631 783.150223 
" clip-path="url(#p1ebcfedb5d)" style="fill: #ffffff"/>
    <path d="M 230.107005 770.19007 
L 268.168778 755.77712 
" clip-path="url(#p1ebcfedb5d)" style="stroke: #000000; stroke-width: 2.123288"/>
    <path d="M 279.154033 762.101506 
C 283.962919 781.535932 305.011664 764.246141 286.88134 755.754167 
C 305.011664 764.246141 283.962919 781.535932 279.154033 762.101506 
" clip-path="url(#p1ebcfedb5d)" style="fill: #ffffff"/>
   </g>
   <g id="VertexCollection_4">
    <path d="M 299.203288 719.455172 
C 299.733694 719.455172 300.242448 719.24444 300.617501 718.869386 
C 300.992555 718.494332 301.203288 717.985579 301.203288 717.455172 
C 301.203288 716.924766 300.992555 716.416013 300.617501 716.040959 
C 300.242448 715.665905 299.733694 715.455172 299.203288 715.455172 
C 298.672882 715.455172 298.164128 715.665905 297.789074 716.040959 
C 297.414021 716.416013 297.203288 716.924766 297.203288 717.455172 
C 297.203288 717.985579 297.414021 718.494332 297.789074 718.869386 
C 298.164128 719.24444 298.672882 719.455172 299.203288 719.455172 
z
" clip-path="url(#p1ebcfedb5d)" style="fill: #fdcab5; stroke: #fdcab5; stroke-width: 3"/>
    <path d="M 277.520729 684.674553 
C 278.051135 684.674553 278.559889 684.46382 278.934943 684.088766 
C 279.309997 683.713712 279.520729 683.204959 279.520729 682.674553 
C 279.520729 682.144147 279.309997 681.635393 278.934943 681.260339 
C 278.559889 680.885285 278.051135 680.674553 277.520729 680.674553 
C 276.990323 680.674553 276.481569 680.885285 276.106516 681.260339 
C 275.731462 681.635393 275.520729 682.144147 275.520729 682.674553 
C 275.520729 683.204959 275.731462 683.713712 276.106516 684.088766 
C 276.481569 684.46382 276.990323 684.674553 277.520729 684.674553 
z
" clip-path="url(#p1ebcfedb5d)" style="fill: #fdcab5; stroke: #fdcab5; stroke-width: 3"/>
    <path d="M 220.755054 663.178948 
C 221.28546 663.178948 221.794213 662.968215 222.169267 662.593161 
C 222.544321 662.218107 222.755054 661.709354 222.755054 661.178948 
C 222.755054 660.648541 222.544321 660.139788 222.169267 659.764734 
C 221.794213 659.38968 221.28546 659.178948 220.755054 659.178948 
C 220.224647 659.178948 219.715894 659.38968 219.34084 659.764734 
C 218.965786 660.139788 218.755054 660.648541 218.755054 661.178948 
C 218.755054 661.709354 218.965786 662.218107 219.34084 662.593161 
C 219.715894 662.968215 220.224647 663.178948 220.755054 663.178948 
z
" clip-path="url(#p1ebcfedb5d)" style="fill: #fdcab5; stroke: #fdcab5; stroke-width: 3"/>
    <path d="M 150.58882 671.178948 
C 153.240851 671.178948 155.784618 670.125285 157.659887 668.250015 
C 159.535156 666.374746 160.58882 663.830979 160.58882 661.178948 
C 160.58882 658.526917 159.535156 655.983149 157.659887 654.10788 
C 155.784618 652.232611 153.240851 651.178948 150.58882 651.178948 
C 147.936789 651.178948 145.393021 652.232611 143.517752 654.10788 
C 141.642483 655.983149 140.58882 658.526917 140.58882 661.178948 
C 140.58882 663.830979 141.642483 666.374746 143.517752 668.250015 
C 145.393021 670.125285 147.936789 671.178948 150.58882 671.178948 
z
" clip-path="url(#p1ebcfedb5d)" style="fill: #6b010e; stroke: #6b010e; stroke-width: 3"/>
    <path d="M 93.823144 684.674553 
C 94.35355 684.674553 94.862304 684.46382 95.237357 684.088766 
C 95.612411 683.713712 95.823144 683.204959 95.823144 682.674553 
C 95.823144 682.144147 95.612411 681.635393 95.237357 681.260339 
C 94.862304 680.885285 94.35355 680.674553 93.823144 680.674553 
C 93.292738 680.674553 92.783984 680.885285 92.40893 681.260339 
C 92.033876 681.635393 91.823144 682.144147 91.823144 682.674553 
C 91.823144 683.204959 92.033876 683.713712 92.40893 684.088766 
C 92.783984 684.46382 93.292738 684.674553 93.823144 684.674553 
z
" clip-path="url(#p1ebcfedb5d)" style="fill: #fdcab5; stroke: #fdcab5; stroke-width: 3"/>
    <path d="M 72.140585 727.455172 
C 74.792616 727.455172 77.336384 726.401509 79.211653 724.52624 
C 81.086922 722.650971 82.140585 720.107203 82.140585 717.455172 
C 82.140585 714.803141 81.086922 712.259374 79.211653 710.384105 
C 77.336384 708.508835 74.792616 707.455172 72.140585 707.455172 
C 69.488554 707.455172 66.944786 708.508835 65.069517 710.384105 
C 63.194248 712.259374 62.140585 714.803141 62.140585 717.455172 
C 62.140585 720.107203 63.194248 722.650971 65.069517 724.52624 
C 66.944786 726.401509 69.488554 727.455172 72.140585 727.455172 
z
" clip-path="url(#p1ebcfedb5d)" style="fill: #6b010e; stroke: #6b010e; stroke-width: 3"/>
    <path d="M 93.823144 754.235792 
C 94.35355 754.235792 94.862304 754.025059 95.237357 753.650006 
C 95.612411 753.274952 95.823144 752.766198 95.823144 752.235792 
C 95.823144 751.705386 95.612411 751.196632 95.237357 750.821579 
C 94.862304 750.446525 94.35355 750.235792 93.823144 750.235792 
C 93.292738 750.235792 92.783984 750.446525 92.40893 750.821579 
C 92.033876 751.196632 91.823144 751.705386 91.823144 752.235792 
C 91.823144 752.766198 92.033876 753.274952 92.40893 753.650006 
C 92.783984 754.025059 93.292738 754.235792 93.823144 754.235792 
z
" clip-path="url(#p1ebcfedb5d)" style="fill: #fdcab5; stroke: #fdcab5; stroke-width: 3"/>
    <path d="M 150.58882 775.731397 
C 151.119226 775.731397 151.627979 775.520665 152.003033 775.145611 
C 152.378087 774.770557 152.58882 774.261803 152.58882 773.731397 
C 152.58882 773.200991 152.378087 772.692237 152.003033 772.317184 
C 151.627979 771.94213 151.119226 771.731397 150.58882 771.731397 
C 150.058413 771.731397 149.54966 771.94213 149.174606 772.317184 
C 148.799552 772.692237 148.58882 773.200991 148.58882 773.731397 
C 148.58882 774.261803 148.799552 774.770557 149.174606 775.145611 
C 149.54966 775.520665 150.058413 775.731397 150.58882 775.731397 
z
" clip-path="url(#p1ebcfedb5d)" style="fill: #fdcab5; stroke: #fdcab5; stroke-width: 3"/>
    <path d="M 220.755054 783.731397 
C 223.407085 783.731397 225.950852 782.677734 227.826121 780.802465 
C 229.70139 778.927196 230.755054 776.383428 230.755054 773.731397 
C 230.755054 771.079366 229.70139 768.535599 227.826121 766.660329 
C 225.950852 764.78506 223.407085 763.731397 220.755054 763.731397 
C 218.103023 763.731397 215.559255 764.78506 213.683986 766.660329 
C 211.808717 768.535599 210.755054 771.079366 210.755054 773.731397 
C 210.755054 776.383428 211.808717 778.927196 213.683986 780.802465 
C 215.559255 782.677734 218.103023 783.731397 220.755054 783.731397 
z
" clip-path="url(#p1ebcfedb5d)" style="fill: #6b010e; stroke: #6b010e; stroke-width: 3"/>
    <path d="M 277.520729 762.235792 
C 280.17276 762.235792 282.716528 761.182129 284.591797 759.30686 
C 286.467066 757.431591 287.520729 754.887823 287.520729 752.235792 
C 287.520729 749.583761 286.467066 747.039993 284.591797 745.164724 
C 282.716528 743.289455 280.17276 742.235792 277.520729 742.235792 
C 274.868698 742.235792 272.324931 743.289455 270.449661 745.164724 
C 268.574392 747.039993 267.520729 749.583761 267.520729 752.235792 
C 267.520729 754.887823 268.574392 757.431591 270.449661 759.30686 
C 272.324931 761.182129 274.868698 762.235792 277.520729 762.235792 
z
" clip-path="url(#p1ebcfedb5d)" style="fill: #6b010e; stroke: #6b010e; stroke-width: 3"/>
   </g>
   <g id="matplotlib.axis_7"/>
   <g id="matplotlib.axis_8"/>
  </g>
  <g id="axes_5">
   <g id="patch_6">
    <path d="M 45 961.2 
L 324 961.2 
L 324 817.82069 
L 45 817.82069 
z
" style="fill: #ffffff"/>
   </g>
   <g id="EdgeCollection_5">
    <path d="M 300.935339 890.510345 
C 325.933484 903.13006 325.933484 875.89063 300.935339 888.510345 
C 325.933484 875.89063 325.933484 903.13006 300.935339 890.510345 
" clip-path="url(#pfbd833f008)" style="fill: #ffffff"/>
    <path d="M 298.145232 887.813136 
L 278.578785 856.426934 
" clip-path="url(#pfbd833f008)" style="fill: #ffffff"/>
    <path d="M 297.578193 888.344554 
L 222.380148 834.39991 
" clip-path="url(#pfbd833f008)" style="fill: #ffffff"/>
    <path d="M 297.332898 888.802079 
L 159.940771 836.775448 
" clip-path="url(#pfbd833f008)" style="fill: #ffffff"/>
    <path d="M 297.231364 889.176404 
L 95.795068 855.063666 
" clip-path="url(#pfbd833f008)" style="fill: #ffffff"/>
    <path d="M 297.203288 889.510345 
L 82.140585 889.510345 
" clip-path="url(#pfbd833f008)" style="fill: #ffffff"/>
    <path d="M 297.231364 889.844285 
L 95.795068 923.957024 
" clip-path="url(#pfbd833f008)" style="fill: #ffffff"/>
    <path d="M 297.332898 890.21861 
L 152.45921 945.078304 
" clip-path="url(#pfbd833f008)" style="fill: #ffffff"/>
    <path d="M 297.578193 890.676135 
L 228.880527 939.957618 
" clip-path="url(#pfbd833f008)" style="fill: #ffffff"/>
    <path d="M 298.145232 891.207554 
L 278.578785 922.593756 
" clip-path="url(#pfbd833f008)" style="fill: #ffffff"/>
    <path d="M 279.392851 854.02605 
C 305.011664 842.719376 283.962919 825.429585 277.84739 852.756582 
C 283.962919 825.429585 305.011664 842.719376 279.392851 854.02605 
" clip-path="url(#pfbd833f008)" style="fill: #ffffff"/>
    <path d="M 275.650339 854.02146 
L 222.625444 833.942386 
" clip-path="url(#pfbd833f008)" style="fill: #ffffff"/>
    <path d="M 275.548805 854.395785 
L 160.448439 834.903822 
" clip-path="url(#pfbd833f008)" style="fill: #ffffff"/>
    <path d="M 275.520729 854.729725 
L 95.823144 854.729725 
" clip-path="url(#pfbd833f008)" style="fill: #ffffff"/>
    <path d="M 275.548805 855.063666 
L 82.000205 887.840643 
" clip-path="url(#pfbd833f008)" style="fill: #ffffff"/>
    <path d="M 275.650339 855.437991 
L 95.693534 923.582699 
" clip-path="url(#pfbd833f008)" style="fill: #ffffff"/>
    <path d="M 275.895634 855.895515 
L 152.213914 944.620779 
" clip-path="url(#pfbd833f008)" style="fill: #ffffff"/>
    <path d="M 276.462674 856.426934 
L 226.045332 937.300525 
" clip-path="url(#pfbd833f008)" style="fill: #ffffff"/>
    <path d="M 277.520729 856.729725 
L 277.520729 922.290965 
" clip-path="url(#pfbd833f008)" style="fill: #ffffff"/>
    <path d="M 222.0505 831.710368 
C 238.963911 809.392192 212.169426 804.488912 220.083169 831.350355 
C 212.169426 804.488912 238.963911 809.392192 222.0505 831.710368 
" clip-path="url(#pfbd833f008)" style="fill: #ffffff"/>
    <path d="M 218.755054 833.23412 
L 160.58882 833.23412 
" clip-path="url(#pfbd833f008)" style="fill: #ffffff"/>
    <path d="M 218.78313 833.56806 
L 95.795068 854.395785 
" clip-path="url(#pfbd833f008)" style="fill: #ffffff"/>
    <path d="M 218.884663 833.942386 
L 81.492537 885.969017 
" clip-path="url(#pfbd833f008)" style="fill: #ffffff"/>
    <path d="M 219.129959 834.39991 
L 95.448239 923.125174 
" clip-path="url(#pfbd833f008)" style="fill: #ffffff"/>
    <path d="M 219.696998 834.931329 
L 151.646875 944.089361 
" clip-path="url(#pfbd833f008)" style="fill: #ffffff"/>
    <path d="M 220.755054 835.23412 
L 220.755054 935.78657 
" clip-path="url(#pfbd833f008)" style="fill: #ffffff"/>
    <path d="M 221.813109 834.931329 
L 276.462674 922.593756 
" clip-path="url(#pfbd833f008)" style="fill: #ffffff"/>
    <path d="M 153.948242 823.815294 
C 159.174447 804.488912 132.379962 809.392192 144.111589 825.615362 
C 132.379962 809.392192 159.174447 804.488912 153.948242 823.815294 
" clip-path="url(#pfbd833f008)" style="fill: #ffffff"/>
    <path d="M 141.236868 836.775448 
L 95.693534 854.02146 
" clip-path="url(#pfbd833f008)" style="fill: #ffffff"/>
    <path d="M 142.463346 839.063072 
L 80.266059 883.681393 
" clip-path="url(#pfbd833f008)" style="stroke: #000000; stroke-width: 1.44208"/>
    <path d="M 145.298541 841.720165 
L 94.8812 922.593756 
" clip-path="url(#pfbd833f008)" style="fill: #ffffff"/>
    <path d="M 150.58882 843.23412 
L 150.58882 943.78657 
" clip-path="url(#pfbd833f008)" style="fill: #ffffff"/>
    <path d="M 155.879098 841.720165 
L 215.464775 937.300525 
" clip-path="url(#pfbd833f008)" style="stroke: #000000; stroke-width: 5"/>
    <path d="M 158.714293 839.063072 
L 275.895634 923.125174 
" clip-path="url(#pfbd833f008)" style="fill: #ffffff"/>
    <path d="M 93.496483 852.756582 
C 87.380954 825.429585 66.332209 842.719376 91.951022 854.02605 
C 66.332209 842.719376 87.380954 825.429585 93.496483 852.756582 
" clip-path="url(#pfbd833f008)" style="fill: #ffffff"/>
    <path d="M 92.765088 856.426934 
L 77.430864 881.0243 
" clip-path="url(#pfbd833f008)" style="fill: #ffffff"/>
    <path d="M 93.823144 856.729725 
L 93.823144 922.290965 
" clip-path="url(#pfbd833f008)" style="fill: #ffffff"/>
    <path d="M 94.8812 856.426934 
L 149.530764 944.089361 
" clip-path="url(#pfbd833f008)" style="fill: #ffffff"/>
    <path d="M 95.448239 855.895515 
L 212.62958 939.957618 
" clip-path="url(#pfbd833f008)" style="fill: #ffffff"/>
    <path d="M 95.693534 855.437991 
L 275.650339 923.582699 
" clip-path="url(#pfbd833f008)" style="fill: #ffffff"/>
    <path d="M 63.480331 884.510345 
C 45.410389 875.89063 45.410389 903.13006 63.480331 894.510345 
C 45.410389 903.13006 45.410389 875.89063 63.480331 884.510345 
" clip-path="url(#pfbd833f008)" style="fill: #ffffff"/>
    <path d="M 77.430864 897.99639 
L 92.765088 922.593756 
" clip-path="url(#pfbd833f008)" style="fill: #ffffff"/>
    <path d="M 80.266059 895.339297 
L 148.963725 944.620779 
" clip-path="url(#pfbd833f008)" style="fill: #ffffff"/>
    <path d="M 81.492537 893.051673 
L 211.403102 942.245242 
" clip-path="url(#pfbd833f008)" style="stroke: #000000; stroke-width: 1.713948"/>
    <path d="M 82.000205 891.180047 
L 275.548805 923.957024 
" clip-path="url(#pfbd833f008)" style="fill: #ffffff"/>
    <path d="M 91.951022 924.994639 
C 66.332209 936.301313 87.380954 953.591104 93.496483 926.264107 
C 87.380954 953.591104 66.332209 936.301313 91.951022 924.994639 
" clip-path="url(#pfbd833f008)" style="fill: #ffffff"/>
    <path d="M 95.693534 924.99923 
L 148.718429 945.078304 
" clip-path="url(#pfbd833f008)" style="fill: #ffffff"/>
    <path d="M 95.795068 924.624905 
L 210.895434 944.116867 
" clip-path="url(#pfbd833f008)" style="fill: #ffffff"/>
    <path d="M 95.823144 924.290965 
L 275.520729 924.290965 
" clip-path="url(#pfbd833f008)" style="fill: #ffffff"/>
    <path d="M 149.293373 947.310321 
C 132.379962 969.628497 159.174447 974.531778 151.260704 947.670335 
C 159.174447 974.531778 132.379962 969.628497 149.293373 947.310321 
" clip-path="url(#pfbd833f008)" style="fill: #ffffff"/>
    <path d="M 152.58882 945.78657 
L 210.755054 945.78657 
" clip-path="url(#pfbd833f008)" style="fill: #ffffff"/>
    <path d="M 152.560743 945.452629 
L 275.548805 924.624905 
" clip-path="url(#pfbd833f008)" style="fill: #ffffff"/>
    <path d="M 217.395631 955.205395 
C 212.169426 974.531778 238.963911 969.628497 227.232284 953.405328 
C 238.963911 969.628497 212.169426 974.531778 217.395631 955.205395 
" clip-path="url(#pfbd833f008)" style="fill: #ffffff"/>
    <path d="M 230.107005 942.245242 
L 275.650339 924.99923 
" clip-path="url(#pfbd833f008)" style="fill: #ffffff"/>
    <path d="M 277.84739 926.264107 
C 283.962919 953.591104 305.011664 936.301313 279.392851 924.994639 
C 305.011664 936.301313 283.962919 953.591104 277.84739 926.264107 
" clip-path="url(#pfbd833f008)" style="fill: #ffffff"/>
   </g>
   <g id="VertexCollection_5">
    <path d="M 299.203288 891.510345 
C 299.733694 891.510345 300.242448 891.299612 300.617501 890.924558 
C 300.992555 890.549505 301.203288 890.040751 301.203288 889.510345 
C 301.203288 888.979939 300.992555 888.471185 300.617501 888.096131 
C 300.242448 887.721077 299.733694 887.510345 299.203288 887.510345 
C 298.672882 887.510345 298.164128 887.721077 297.789074 888.096131 
C 297.414021 888.471185 297.203288 888.979939 297.203288 889.510345 
C 297.203288 890.040751 297.414021 890.549505 297.789074 890.924558 
C 298.164128 891.299612 298.672882 891.510345 299.203288 891.510345 
z
" clip-path="url(#pfbd833f008)" style="fill: #fdcab5; stroke: #fdcab5; stroke-width: 3"/>
    <path d="M 277.520729 856.729725 
C 278.051135 856.729725 278.559889 856.518993 278.934943 856.143939 
C 279.309997 855.768885 279.520729 855.260131 279.520729 854.729725 
C 279.520729 854.199319 279.309997 853.690565 278.934943 853.315512 
C 278.559889 852.940458 278.051135 852.729725 277.520729 852.729725 
C 276.990323 852.729725 276.481569 852.940458 276.106516 853.315512 
C 275.731462 853.690565 275.520729 854.199319 275.520729 854.729725 
C 275.520729 855.260131 275.731462 855.768885 276.106516 856.143939 
C 276.481569 856.518993 276.990323 856.729725 277.520729 856.729725 
z
" clip-path="url(#pfbd833f008)" style="fill: #fdcab5; stroke: #fdcab5; stroke-width: 3"/>
    <path d="M 220.755054 835.23412 
C 221.28546 835.23412 221.794213 835.023387 222.169267 834.648334 
C 222.544321 834.27328 222.755054 833.764526 222.755054 833.23412 
C 222.755054 832.703714 222.544321 832.19496 222.169267 831.819906 
C 221.794213 831.444853 221.28546 831.23412 220.755054 831.23412 
C 220.224647 831.23412 219.715894 831.444853 219.34084 831.819906 
C 218.965786 832.19496 218.755054 832.703714 218.755054 833.23412 
C 218.755054 833.764526 218.965786 834.27328 219.34084 834.648334 
C 219.715894 835.023387 220.224647 835.23412 220.755054 835.23412 
z
" clip-path="url(#pfbd833f008)" style="fill: #fdcab5; stroke: #fdcab5; stroke-width: 3"/>
    <path d="M 150.58882 843.23412 
C 153.240851 843.23412 155.784618 842.180457 157.659887 840.305188 
C 159.535156 838.429919 160.58882 835.886151 160.58882 833.23412 
C 160.58882 830.582089 159.535156 828.038321 157.659887 826.163052 
C 155.784618 824.287783 153.240851 823.23412 150.58882 823.23412 
C 147.936789 823.23412 145.393021 824.287783 143.517752 826.163052 
C 141.642483 828.038321 140.58882 830.582089 140.58882 833.23412 
C 140.58882 835.886151 141.642483 838.429919 143.517752 840.305188 
C 145.393021 842.180457 147.936789 843.23412 150.58882 843.23412 
z
" clip-path="url(#pfbd833f008)" style="fill: #6b010e; stroke: #6b010e; stroke-width: 3"/>
    <path d="M 93.823144 856.729725 
C 94.35355 856.729725 94.862304 856.518993 95.237357 856.143939 
C 95.612411 855.768885 95.823144 855.260131 95.823144 854.729725 
C 95.823144 854.199319 95.612411 853.690565 95.237357 853.315512 
C 94.862304 852.940458 94.35355 852.729725 93.823144 852.729725 
C 93.292738 852.729725 92.783984 852.940458 92.40893 853.315512 
C 92.033876 853.690565 91.823144 854.199319 91.823144 854.729725 
C 91.823144 855.260131 92.033876 855.768885 92.40893 856.143939 
C 92.783984 856.518993 93.292738 856.729725 93.823144 856.729725 
z
" clip-path="url(#pfbd833f008)" style="fill: #fdcab5; stroke: #fdcab5; stroke-width: 3"/>
    <path d="M 72.140585 899.510345 
C 74.792616 899.510345 77.336384 898.456682 79.211653 896.581413 
C 81.086922 894.706144 82.140585 892.162376 82.140585 889.510345 
C 82.140585 886.858314 81.086922 884.314546 79.211653 882.439277 
C 77.336384 880.564008 74.792616 879.510345 72.140585 879.510345 
C 69.488554 879.510345 66.944786 880.564008 65.069517 882.439277 
C 63.194248 884.314546 62.140585 886.858314 62.140585 889.510345 
C 62.140585 892.162376 63.194248 894.706144 65.069517 896.581413 
C 66.944786 898.456682 69.488554 899.510345 72.140585 899.510345 
z
" clip-path="url(#pfbd833f008)" style="fill: #6b010e; stroke: #6b010e; stroke-width: 3"/>
    <path d="M 93.823144 926.290965 
C 94.35355 926.290965 94.862304 926.080232 95.237357 925.705178 
C 95.612411 925.330124 95.823144 924.821371 95.823144 924.290965 
C 95.823144 923.760558 95.612411 923.251805 95.237357 922.876751 
C 94.862304 922.501697 94.35355 922.290965 93.823144 922.290965 
C 93.292738 922.290965 92.783984 922.501697 92.40893 922.876751 
C 92.033876 923.251805 91.823144 923.760558 91.823144 924.290965 
C 91.823144 924.821371 92.033876 925.330124 92.40893 925.705178 
C 92.783984 926.080232 93.292738 926.290965 93.823144 926.290965 
z
" clip-path="url(#pfbd833f008)" style="fill: #fdcab5; stroke: #fdcab5; stroke-width: 3"/>
    <path d="M 150.58882 947.78657 
C 151.119226 947.78657 151.627979 947.575837 152.003033 947.200783 
C 152.378087 946.825729 152.58882 946.316976 152.58882 945.78657 
C 152.58882 945.256163 152.378087 944.74741 152.003033 944.372356 
C 151.627979 943.997302 151.119226 943.78657 150.58882 943.78657 
C 150.058413 943.78657 149.54966 943.997302 149.174606 944.372356 
C 148.799552 944.74741 148.58882 945.256163 148.58882 945.78657 
C 148.58882 946.316976 148.799552 946.825729 149.174606 947.200783 
C 149.54966 947.575837 150.058413 947.78657 150.58882 947.78657 
z
" clip-path="url(#pfbd833f008)" style="fill: #fdcab5; stroke: #fdcab5; stroke-width: 3"/>
    <path d="M 220.755054 955.78657 
C 223.407085 955.78657 225.950852 954.732907 227.826121 952.857637 
C 229.70139 950.982368 230.755054 948.438601 230.755054 945.78657 
C 230.755054 943.134539 229.70139 940.590771 227.826121 938.715502 
C 225.950852 936.840233 223.407085 935.78657 220.755054 935.78657 
C 218.103023 935.78657 215.559255 936.840233 213.683986 938.715502 
C 211.808717 940.590771 210.755054 943.134539 210.755054 945.78657 
C 210.755054 948.438601 211.808717 950.982368 213.683986 952.857637 
C 215.559255 954.732907 218.103023 955.78657 220.755054 955.78657 
z
" clip-path="url(#pfbd833f008)" style="fill: #6b010e; stroke: #6b010e; stroke-width: 3"/>
    <path d="M 277.520729 926.290965 
C 278.051135 926.290965 278.559889 926.080232 278.934943 925.705178 
C 279.309997 925.330124 279.520729 924.821371 279.520729 924.290965 
C 279.520729 923.760558 279.309997 923.251805 278.934943 922.876751 
C 278.559889 922.501697 278.051135 922.290965 277.520729 922.290965 
C 276.990323 922.290965 276.481569 922.501697 276.106516 922.876751 
C 275.731462 923.251805 275.520729 923.760558 275.520729 924.290965 
C 275.520729 924.821371 275.731462 925.330124 276.106516 925.705178 
C 276.481569 926.080232 276.990323 926.290965 277.520729 926.290965 
z
" clip-path="url(#pfbd833f008)" style="fill: #fdcab5; stroke: #fdcab5; stroke-width: 3"/>
   </g>
   <g id="matplotlib.axis_9"/>
   <g id="matplotlib.axis_10"/>
  </g>
  <g id="text_1">
   <!-- G2 -->
   <g transform="translate(171.533437 30.718125) scale(0.12 -0.12)">
    <defs>
     <path id="DejaVuSans-47" d="M 3809 666 
L 3809 1919 
L 2778 1919 
L 2778 2438 
L 4434 2438 
L 4434 434 
Q 4069 175 3628 42 
Q 3188 -91 2688 -91 
Q 1594 -91 976 548 
Q 359 1188 359 2328 
Q 359 3472 976 4111 
Q 1594 4750 2688 4750 
Q 3144 4750 3555 4637 
Q 3966 4525 4313 4306 
L 4313 3634 
Q 3963 3931 3569 4081 
Q 3175 4231 2741 4231 
Q 1884 4231 1454 3753 
Q 1025 3275 1025 2328 
Q 1025 1384 1454 906 
Q 1884 428 2741 428 
Q 3075 428 3337 486 
Q 3600 544 3809 666 
z
" transform="scale(0.015625)"/>
     <path id="DejaVuSans-32" d="M 1228 531 
L 3431 531 
L 3431 0 
L 469 0 
L 469 531 
Q 828 903 1448 1529 
Q 2069 2156 2228 2338 
Q 2531 2678 2651 2914 
Q 2772 3150 2772 3378 
Q 2772 3750 2511 3984 
Q 2250 4219 1831 4219 
Q 1534 4219 1204 4116 
Q 875 4013 500 3803 
L 500 4441 
Q 881 4594 1212 4672 
Q 1544 4750 1819 4750 
Q 2544 4750 2975 4387 
Q 3406 4025 3406 3419 
Q 3406 3131 3298 2873 
Q 3191 2616 2906 2266 
Q 2828 2175 2409 1742 
Q 1991 1309 1228 531 
z
" transform="scale(0.015625)"/>
    </defs>
    <use xlink:href="#DejaVuSans-47"/>
    <use xlink:href="#DejaVuSans-32" x="77.490234"/>
   </g>
  </g>
 </g>
 <defs>
  <clipPath id="p8ad99cef36">
   <rect x="45" y="129.6" width="279" height="143.37931"/>
  </clipPath>
  <clipPath id="p381260aa0d">
   <rect x="45" y="301.655172" width="279" height="143.37931"/>
  </clipPath>
  <clipPath id="p98dc372b64">
   <rect x="45" y="473.710345" width="279" height="143.37931"/>
  </clipPath>
  <clipPath id="p1ebcfedb5d">
   <rect x="45" y="645.765517" width="279" height="143.37931"/>
  </clipPath>
  <clipPath id="pfbd833f008">
   <rect x="45" y="817.82069" width="279" height="143.37931"/>
  </clipPath>
 </defs>
</svg>
