<?xml version="1.0" encoding="utf-8" standalone="no"?>
<!DOCTYPE svg PUBLIC "-//W3C//DTD SVG 1.1//EN"
  "http://www.w3.org/Graphics/SVG/1.1/DTD/svg11.dtd">
<svg xmlns:xlink="http://www.w3.org/1999/xlink" width="72pt" height="180pt" viewBox="0 0 72 180" xmlns="http://www.w3.org/2000/svg" version="1.1">
 <metadata>
  <rdf:RDF xmlns:dc="http://purl.org/dc/elements/1.1/" xmlns:cc="http://creativecommons.org/ns#" xmlns:rdf="http://www.w3.org/1999/02/22-rdf-syntax-ns#">
   <cc:Work>
    <dc:type rdf:resource="http://purl.org/dc/dcmitype/StillImage"/>
    <dc:date>2025-06-06T16:53:34.394641</dc:date>
    <dc:format>image/svg+xml</dc:format>
    <dc:creator>
     <cc:Agent>
      <dc:title>Matplotlib v3.9.2, https://matplotlib.org/</dc:title>
     </cc:Agent>
    </dc:creator>
   </cc:Work>
  </rdf:RDF>
 </metadata>
 <defs>
  <style type="text/css">*{stroke-linejoin: round; stroke-linecap: butt}</style>
 </defs>
 <g id="figure_1">
  <g id="patch_1">
   <path d="M 0 180 
L 72 180 
L 72 0 
L 0 0 
z
" style="fill: #ffffff"/>
  </g>
  <g id="axes_1">
   <g id="patch_2">
    <path d="M 10.8 33.84 
L 61.2 33.84 
L 61.2 10.8 
L 10.8 10.8 
z
" style="fill: #ffffff"/>
   </g>
   <g id="EdgeCollection_1">
    <path d="M 57.127646 22.857936 
C 83.424829 36.227651 83.424829 8.988221 57.127646 22.357936 
C 83.424829 8.988221 83.424829 36.227651 57.127646 22.857936 
" clip-path="url(#p0c683219ac)" style="fill: #020202"/>
    <path d="M 56.409378 22.197291 
L 53.077914 17.401419 
" clip-path="url(#p0c683219ac)" style="fill: #020202"/>
    <path d="M 56.274223 22.337278 
L 44.679204 14.872466 
" clip-path="url(#p0c683219ac)" style="fill: #020202"/>
    <path d="M 56.221223 22.447054 
L 30.423507 13.68006 
" clip-path="url(#p0c683219ac)" style="fill: #020202"/>
    <path d="M 56.20031 22.532809 
L 20.228917 17.065901 
" clip-path="url(#p0c683219ac)" style="fill: #020202"/>
    <path d="M 56.194633 22.607936 
L 18.332618 22.607936 
" clip-path="url(#p0c683219ac)" style="fill: #020202"/>
    <path d="M 56.20031 22.683063 
L 20.228917 28.14997 
" clip-path="url(#p0c683219ac)" style="fill: #020202"/>
    <path d="M 56.221223 22.768817 
L 30.423507 31.535812 
" clip-path="url(#p0c683219ac)" style="fill: #020202"/>
    <path d="M 56.274223 22.878593 
L 42.997564 31.426036 
" clip-path="url(#p0c683219ac)" style="fill: #020202"/>
    <path d="M 56.409378 23.018581 
L 54.218936 26.171872 
" clip-path="url(#p0c683219ac)" style="fill: #020202; stroke: #020202; stroke-width: 0.99"/>
    <path d="M 53.252883 16.795344 
C 79.754613 3.835814 57.997911 -12.554197 52.853522 16.494493 
C 57.997911 -12.554197 79.754613 3.835814 53.252883 16.795344 
" clip-path="url(#p0c683219ac)" style="fill: #020202"/>
    <path d="M 52.319248 16.829893 
L 44.944205 14.323587 
" clip-path="url(#p0c683219ac)" style="fill: #020202; stroke: #020202; stroke-width: 0.99"/>
    <path d="M 52.298334 16.915648 
L 30.444421 13.594305 
" clip-path="url(#p0c683219ac)" style="fill: #020202"/>
    <path d="M 52.292658 16.990775 
L 20.234594 16.990775 
" clip-path="url(#p0c683219ac)" style="fill: #020202"/>
    <path d="M 52.298334 17.065901 
L 18.304237 22.232301 
" clip-path="url(#p0c683219ac)" style="fill: #020202; stroke: #020202; stroke-width: 0.99"/>
    <path d="M 52.319248 17.151656 
L 20.208004 28.064215 
" clip-path="url(#p0c683219ac)" style="fill: #020202"/>
    <path d="M 52.372248 17.261432 
L 30.370507 31.426036 
" clip-path="url(#p0c683219ac)" style="fill: #020202"/>
    <path d="M 52.507403 17.401419 
L 42.86241 31.286048 
" clip-path="url(#p0c683219ac)" style="fill: #020202"/>
    <path d="M 52.792658 17.490775 
L 52.792658 25.725097 
" clip-path="url(#p0c683219ac)" style="fill: #020202"/>
    <path d="M 44.163468 11.586923 
C 60.373317 -10.632356 33.498475 -15.074136 41.69693 11.179262 
C 33.498475 -15.074136 60.373317 -10.632356 44.163468 11.586923 
" clip-path="url(#p0c683219ac)" style="fill: #020202"/>
    <path d="M 40.077154 13.519178 
L 30.450097 13.519178 
" clip-path="url(#p0c683219ac)" style="fill: #020202"/>
    <path d="M 40.105536 13.894813 
L 20.228917 16.915648 
" clip-path="url(#p0c683219ac)" style="fill: #020202"/>
    <path d="M 40.210104 14.323587 
L 18.199669 21.803527 
" clip-path="url(#p0c683219ac)" style="fill: #020202; stroke: #020202; stroke-width: 0.99"/>
    <path d="M 40.475105 14.872466 
L 20.155004 27.954439 
" clip-path="url(#p0c683219ac)" style="fill: #020202"/>
    <path d="M 41.150877 15.572403 
L 30.235353 31.286048 
" clip-path="url(#p0c683219ac)" style="fill: #020202"/>
    <path d="M 42.577154 16.019178 
L 42.577154 31.196693 
" clip-path="url(#p0c683219ac)" style="fill: #020202; stroke: #020202; stroke-width: 0.99"/>
    <path d="M 44.003432 15.572403 
L 51.36638 26.171872 
" clip-path="url(#p0c683219ac)" style="fill: #020202"/>
    <path d="M 30.126142 13.051195 
C 39.028777 -15.074136 12.153935 -10.632356 29.632835 13.132727 
C 12.153935 -10.632356 39.028777 -15.074136 30.126142 13.051195 
" clip-path="url(#p0c683219ac)" style="fill: #020202"/>
    <path d="M 29.476687 13.68006 
L 20.208004 16.829893 
" clip-path="url(#p0c683219ac)" style="fill: #020202"/>
    <path d="M 29.529688 13.789836 
L 17.934668 21.254648 
" clip-path="url(#p0c683219ac)" style="fill: #020202"/>
    <path d="M 29.664842 13.929823 
L 20.019849 27.814452 
" clip-path="url(#p0c683219ac)" style="fill: #020202"/>
    <path d="M 29.950097 14.019178 
L 29.950097 31.196693 
" clip-path="url(#p0c683219ac)" style="fill: #020202"/>
    <path d="M 30.235353 13.929823 
L 42.291899 31.286048 
" clip-path="url(#p0c683219ac)" style="fill: #020202"/>
    <path d="M 30.370507 13.789836 
L 50.690609 26.871809 
" clip-path="url(#p0c683219ac)" style="fill: #020202"/>
    <path d="M 19.673729 16.494493 
C 14.529341 -12.554197 -7.227361 3.835814 19.274369 16.795344 
C -7.227361 3.835814 14.529341 -12.554197 19.673729 16.494493 
" clip-path="url(#p0c683219ac)" style="fill: #020202"/>
    <path d="M 19.449338 17.401419 
L 17.258896 20.554711 
" clip-path="url(#p0c683219ac)" style="fill: #020202"/>
    <path d="M 19.734594 17.490775 
L 19.734594 27.725097 
" clip-path="url(#p0c683219ac)" style="fill: #020202"/>
    <path d="M 20.019849 17.401419 
L 29.664842 31.286048 
" clip-path="url(#p0c683219ac)" style="fill: #020202; stroke: #020202; stroke-width: 0.99"/>
    <path d="M 20.155004 17.261432 
L 42.156745 31.426036 
" clip-path="url(#p0c683219ac)" style="fill: #020202; stroke: #020202; stroke-width: 0.99"/>
    <path d="M 20.208004 17.151656 
L 50.425608 27.420688 
" clip-path="url(#p0c683219ac)" style="fill: #020202"/>
    <path d="M 13.667555 21.357936 
C -10.897577 8.988221 -10.897577 36.227651 13.667555 23.857936 
C -10.897577 36.227651 -10.897577 8.988221 13.667555 21.357936 
" clip-path="url(#p0c683219ac)" style="fill: #020202"/>
    <path d="M 17.258896 24.66116 
L 19.449338 27.814452 
" clip-path="url(#p0c683219ac)" style="fill: #020202; stroke: #020202; stroke-width: 0.99"/>
    <path d="M 17.934668 23.961224 
L 29.529688 31.426036 
" clip-path="url(#p0c683219ac)" style="fill: #020202"/>
    <path d="M 18.199669 23.412345 
L 42.103744 31.535812 
" clip-path="url(#p0c683219ac)" style="fill: #020202"/>
    <path d="M 18.304237 22.983571 
L 50.32104 27.849462 
" clip-path="url(#p0c683219ac)" style="fill: #020202"/>
    <path d="M 19.274369 28.420528 
C -7.227361 41.380057 14.529341 57.770068 19.673729 28.721379 
C 14.529341 57.770068 -7.227361 41.380057 19.274369 28.420528 
" clip-path="url(#p0c683219ac)" style="fill: #020202"/>
    <path d="M 20.208004 28.385979 
L 29.476687 31.535812 
" clip-path="url(#p0c683219ac)" style="fill: #020202"/>
    <path d="M 20.228917 28.300224 
L 42.082831 31.621566 
" clip-path="url(#p0c683219ac)" style="fill: #020202"/>
    <path d="M 20.234594 28.225097 
L 50.292658 28.225097 
" clip-path="url(#p0c683219ac)" style="fill: #020202; stroke: #020202; stroke-width: 0.99"/>
    <path d="M 29.632835 32.083144 
C 12.153935 55.848227 39.028777 60.290007 30.126142 32.164676 
C 39.028777 60.290007 12.153935 55.848227 29.632835 32.083144 
" clip-path="url(#p0c683219ac)" style="fill: #020202"/>
    <path d="M 30.450097 31.696693 
L 42.077154 31.696693 
" clip-path="url(#p0c683219ac)" style="fill: #020202"/>
    <path d="M 30.444421 31.621566 
L 50.32104 28.600732 
" clip-path="url(#p0c683219ac)" style="fill: #020202; stroke: #020202; stroke-width: 0.99"/>
    <path d="M 42.401109 32.164676 
C 33.498475 60.290007 60.373317 55.848227 42.894417 32.083144 
C 60.373317 55.848227 33.498475 60.290007 42.401109 32.164676 
" clip-path="url(#p0c683219ac)" style="fill: #020202"/>
    <path d="M 43.050564 31.535812 
L 50.425608 29.029506 
" clip-path="url(#p0c683219ac)" style="fill: #020202"/>
    <path d="M 53.096979 30.706505 
C 57.997911 57.770068 79.754613 41.380057 55.093782 29.202251 
C 79.754613 41.380057 57.997911 57.770068 53.096979 30.706505 
" clip-path="url(#p0c683219ac)" style="fill: #020202"/>
   </g>
   <g id="VertexCollection_1">
    <path d="M 56.694633 23.107936 
C 56.827235 23.107936 56.954423 23.055253 57.048187 22.961489 
C 57.14195 22.867726 57.194633 22.740537 57.194633 22.607936 
C 57.194633 22.475334 57.14195 22.348146 57.048187 22.254382 
C 56.954423 22.160619 56.827235 22.107936 56.694633 22.107936 
C 56.562032 22.107936 56.434843 22.160619 56.34108 22.254382 
C 56.247316 22.348146 56.194633 22.475334 56.194633 22.607936 
C 56.194633 22.740537 56.247316 22.867726 56.34108 22.961489 
C 56.434843 23.055253 56.562032 23.107936 56.694633 23.107936 
z
" clip-path="url(#p0c683219ac)" style="fill: #bebebe"/>
    <path d="M 52.792658 17.490775 
C 52.92526 17.490775 53.052448 17.438091 53.146212 17.344328 
C 53.239975 17.250564 53.292658 17.123376 53.292658 16.990775 
C 53.292658 16.858173 53.239975 16.730985 53.146212 16.637221 
C 53.052448 16.543458 52.92526 16.490775 52.792658 16.490775 
C 52.660057 16.490775 52.532868 16.543458 52.439105 16.637221 
C 52.345341 16.730985 52.292658 16.858173 52.292658 16.990775 
C 52.292658 17.123376 52.345341 17.250564 52.439105 17.344328 
C 52.532868 17.438091 52.660057 17.490775 52.792658 17.490775 
z
" clip-path="url(#p0c683219ac)" style="fill: #bebebe"/>
    <path d="M 42.577154 16.019178 
C 43.240162 16.019178 43.876104 15.755762 44.344921 15.286945 
C 44.813739 14.818128 45.077154 14.182186 45.077154 13.519178 
C 45.077154 12.85617 44.813739 12.220228 44.344921 11.751411 
C 43.876104 11.282594 43.240162 11.019178 42.577154 11.019178 
C 41.914147 11.019178 41.278205 11.282594 40.809387 11.751411 
C 40.34057 12.220228 40.077154 12.85617 40.077154 13.519178 
C 40.077154 14.182186 40.34057 14.818128 40.809387 15.286945 
C 41.278205 15.755762 41.914147 16.019178 42.577154 16.019178 
z
" clip-path="url(#p0c683219ac)" style="fill: #bebebe"/>
    <path d="M 29.950097 14.019178 
C 30.082699 14.019178 30.209887 13.966495 30.303651 13.872731 
C 30.397414 13.778968 30.450097 13.65178 30.450097 13.519178 
C 30.450097 13.386576 30.397414 13.259388 30.303651 13.165625 
C 30.209887 13.071861 30.082699 13.019178 29.950097 13.019178 
C 29.817496 13.019178 29.690307 13.071861 29.596544 13.165625 
C 29.502781 13.259388 29.450097 13.386576 29.450097 13.519178 
C 29.450097 13.65178 29.502781 13.778968 29.596544 13.872731 
C 29.690307 13.966495 29.817496 14.019178 29.950097 14.019178 
z
" clip-path="url(#p0c683219ac)" style="fill: #bebebe"/>
    <path d="M 19.734594 17.490775 
C 19.867195 17.490775 19.994384 17.438091 20.088147 17.344328 
C 20.181911 17.250564 20.234594 17.123376 20.234594 16.990775 
C 20.234594 16.858173 20.181911 16.730985 20.088147 16.637221 
C 19.994384 16.543458 19.867195 16.490775 19.734594 16.490775 
C 19.601992 16.490775 19.474804 16.543458 19.38104 16.637221 
C 19.287277 16.730985 19.234594 16.858173 19.234594 16.990775 
C 19.234594 17.123376 19.287277 17.250564 19.38104 17.344328 
C 19.474804 17.438091 19.601992 17.490775 19.734594 17.490775 
z
" clip-path="url(#p0c683219ac)" style="fill: #bebebe"/>
    <path d="M 15.832618 25.107936 
C 16.495626 25.107936 17.131568 24.84452 17.600385 24.375703 
C 18.069203 23.906885 18.332618 23.270943 18.332618 22.607936 
C 18.332618 21.944928 18.069203 21.308986 17.600385 20.840169 
C 17.131568 20.371351 16.495626 20.107936 15.832618 20.107936 
C 15.169611 20.107936 14.533669 20.371351 14.064852 20.840169 
C 13.596034 21.308986 13.332618 21.944928 13.332618 22.607936 
C 13.332618 23.270943 13.596034 23.906885 14.064852 24.375703 
C 14.533669 24.84452 15.169611 25.107936 15.832618 25.107936 
z
" clip-path="url(#p0c683219ac)" style="fill: #bebebe"/>
    <path d="M 19.734594 28.725097 
C 19.867195 28.725097 19.994384 28.672414 20.088147 28.57865 
C 20.181911 28.484887 20.234594 28.357698 20.234594 28.225097 
C 20.234594 28.092495 20.181911 27.965307 20.088147 27.871543 
C 19.994384 27.77778 19.867195 27.725097 19.734594 27.725097 
C 19.601992 27.725097 19.474804 27.77778 19.38104 27.871543 
C 19.287277 27.965307 19.234594 28.092495 19.234594 28.225097 
C 19.234594 28.357698 19.287277 28.484887 19.38104 28.57865 
C 19.474804 28.672414 19.601992 28.725097 19.734594 28.725097 
z
" clip-path="url(#p0c683219ac)" style="fill: #bebebe"/>
    <path d="M 29.950097 32.196693 
C 30.082699 32.196693 30.209887 32.14401 30.303651 32.050247 
C 30.397414 31.956483 30.450097 31.829295 30.450097 31.696693 
C 30.450097 31.564092 30.397414 31.436903 30.303651 31.34314 
C 30.209887 31.249376 30.082699 31.196693 29.950097 31.196693 
C 29.817496 31.196693 29.690307 31.249376 29.596544 31.34314 
C 29.502781 31.436903 29.450097 31.564092 29.450097 31.696693 
C 29.450097 31.829295 29.502781 31.956483 29.596544 32.050247 
C 29.690307 32.14401 29.817496 32.196693 29.950097 32.196693 
z
" clip-path="url(#p0c683219ac)" style="fill: #bebebe"/>
    <path d="M 42.577154 32.196693 
C 42.709756 32.196693 42.836944 32.14401 42.930708 32.050247 
C 43.024471 31.956483 43.077154 31.829295 43.077154 31.696693 
C 43.077154 31.564092 43.024471 31.436903 42.930708 31.34314 
C 42.836944 31.249376 42.709756 31.196693 42.577154 31.196693 
C 42.444553 31.196693 42.317364 31.249376 42.223601 31.34314 
C 42.129838 31.436903 42.077154 31.564092 42.077154 31.696693 
C 42.077154 31.829295 42.129838 31.956483 42.223601 32.050247 
C 42.317364 32.14401 42.444553 32.196693 42.577154 32.196693 
z
" clip-path="url(#p0c683219ac)" style="fill: #bebebe"/>
    <path d="M 52.792658 30.725097 
C 53.455666 30.725097 54.091608 30.461681 54.560425 29.992864 
C 55.029242 29.524046 55.292658 28.888105 55.292658 28.225097 
C 55.292658 27.562089 55.029242 26.926147 54.560425 26.45733 
C 54.091608 25.988513 53.455666 25.725097 52.792658 25.725097 
C 52.12965 25.725097 51.493708 25.988513 51.024891 26.45733 
C 50.556074 26.926147 50.292658 27.562089 50.292658 28.225097 
C 50.292658 28.888105 50.556074 29.524046 51.024891 29.992864 
C 51.493708 30.461681 52.12965 30.725097 52.792658 30.725097 
z
" clip-path="url(#p0c683219ac)" style="fill: #bebebe"/>
   </g>
   <g id="matplotlib.axis_1"/>
   <g id="matplotlib.axis_2"/>
  </g>
  <g id="axes_2">
   <g id="patch_3">
    <path d="M 10.8 67.68 
L 61.2 67.68 
L 61.2 44.64 
L 10.8 44.64 
z
" style="fill: #ffffff"/>
   </g>
   <g id="EdgeCollection_2">
    <path d="M 57.127646 56.41 
C 83.424829 69.779715 83.424829 42.540285 57.127646 55.91 
C 83.424829 42.540285 83.424829 69.779715 57.127646 56.41 
" clip-path="url(#p1191fda054)" style="fill: #020202"/>
    <path d="M 56.403644 55.753398 
L 53.083647 51.114335 
" clip-path="url(#p1191fda054)" style="fill: #020202"/>
    <path d="M 56.270614 55.895032 
L 44.697249 48.662885 
" clip-path="url(#p1191fda054)" style="fill: #020202"/>
    <path d="M 56.219799 56.003371 
L 30.424931 47.494676 
" clip-path="url(#p1191fda054)" style="fill: #020202"/>
    <path d="M 56.199986 56.087031 
L 20.229241 50.780702 
" clip-path="url(#p1191fda054)" style="fill: #020202"/>
    <path d="M 56.194633 56.16 
L 18.332618 56.16 
" clip-path="url(#p1191fda054)" style="fill: #020202"/>
    <path d="M 56.199986 56.232969 
L 22.207828 61.247421 
" clip-path="url(#p1191fda054)" style="fill: #020202"/>
    <path d="M 56.219799 56.316629 
L 32.324268 64.198809 
" clip-path="url(#p1191fda054)" style="fill: #020202"/>
    <path d="M 56.270614 56.424968 
L 44.697249 63.657115 
" clip-path="url(#p1191fda054)" style="fill: #020202"/>
    <path d="M 56.403644 56.566602 
L 54.247604 59.579257 
" clip-path="url(#p1191fda054)" style="fill: #020202"/>
    <path d="M 53.250605 50.507022 
C 79.601539 37.243563 57.657781 21.104852 52.847811 50.210784 
C 57.657781 21.104852 79.601539 37.243563 53.250605 50.507022 
" clip-path="url(#p1191fda054)" style="fill: #020202"/>
    <path d="M 52.317824 50.551104 
L 44.951325 48.121191 
" clip-path="url(#p1191fda054)" style="fill: #020202; stroke: #020202; stroke-width: 0.99"/>
    <path d="M 52.298011 50.634764 
L 30.444744 47.411016 
" clip-path="url(#p1191fda054)" style="fill: #020202"/>
    <path d="M 52.292658 50.707733 
L 20.234594 50.707733 
" clip-path="url(#p1191fda054)" style="fill: #020202"/>
    <path d="M 52.298011 50.780702 
L 18.305853 55.795154 
" clip-path="url(#p1191fda054)" style="fill: #020202"/>
    <path d="M 52.317824 50.864362 
L 22.108764 60.829123 
" clip-path="url(#p1191fda054)" style="fill: #020202"/>
    <path d="M 52.368639 50.972701 
L 32.070192 63.657115 
" clip-path="url(#p1191fda054)" style="fill: #020202"/>
    <path d="M 52.501669 51.114335 
L 44.032101 62.948943 
" clip-path="url(#p1191fda054)" style="fill: #020202"/>
    <path d="M 52.792658 51.207733 
L 52.792658 59.112267 
" clip-path="url(#p1191fda054)" style="fill: #020202"/>
    <path d="M 44.154786 45.398697 
C 60.264816 23.106938 33.370323 18.78574 41.686444 45.002103 
C 33.370323 18.78574 60.264816 23.106938 44.154786 45.398697 
" clip-path="url(#p1191fda054)" style="fill: #020202"/>
    <path d="M 40.077154 47.338047 
L 30.450097 47.338047 
" clip-path="url(#p1191fda054)" style="fill: #020202"/>
    <path d="M 40.10392 47.702893 
L 20.229241 50.634764 
" clip-path="url(#p1191fda054)" style="fill: #020202"/>
    <path d="M 40.202984 48.121191 
L 18.206789 55.376856 
" clip-path="url(#p1191fda054)" style="fill: #020202; stroke: #020202; stroke-width: 0.99"/>
    <path d="M 40.457059 48.662885 
L 21.854689 60.287428 
" clip-path="url(#p1191fda054)" style="fill: #020202"/>
    <path d="M 41.122208 49.371057 
L 31.405044 62.948943 
" clip-path="url(#p1191fda054)" style="fill: #020202"/>
    <path d="M 42.577154 49.838047 
L 42.577154 62.481953 
" clip-path="url(#p1191fda054)" style="fill: #020202; stroke: #020202; stroke-width: 0.99"/>
    <path d="M 44.032101 49.371057 
L 51.337712 59.579257 
" clip-path="url(#p1191fda054)" style="fill: #020202"/>
    <path d="M 30.12824 46.870858 
C 39.156929 18.78574 12.262436 23.106938 29.634571 46.950177 
C 12.262436 23.106938 39.156929 18.78574 30.12824 46.870858 
" clip-path="url(#p1191fda054)" style="fill: #020202"/>
    <path d="M 29.475263 47.494676 
L 20.209428 50.551104 
" clip-path="url(#p1191fda054)" style="fill: #020202"/>
    <path d="M 29.526078 47.603015 
L 17.952714 54.835162 
" clip-path="url(#p1191fda054)" style="fill: #020202"/>
    <path d="M 29.659108 47.744649 
L 21.18954 59.579257 
" clip-path="url(#p1191fda054)" style="fill: #020202; stroke: #020202; stroke-width: 0.99"/>
    <path d="M 29.950097 47.838047 
L 29.950097 62.481953 
" clip-path="url(#p1191fda054)" style="fill: #020202"/>
    <path d="M 30.241087 47.744649 
L 41.122208 62.948943 
" clip-path="url(#p1191fda054)" style="fill: #020202"/>
    <path d="M 30.374116 47.603015 
L 50.672563 60.287428 
" clip-path="url(#p1191fda054)" style="fill: #020202; stroke: #020202; stroke-width: 0.99"/>
    <path d="M 19.679441 50.210784 
C 14.869471 21.104852 -7.074288 37.243563 19.276647 50.507022 
C -7.074288 37.243563 14.869471 21.104852 19.679441 50.210784 
" clip-path="url(#p1191fda054)" style="fill: #020202"/>
    <path d="M 19.443604 51.114335 
L 17.287565 54.12699 
" clip-path="url(#p1191fda054)" style="fill: #020202"/>
    <path d="M 19.734594 51.207733 
L 19.734594 59.112267 
" clip-path="url(#p1191fda054)" style="fill: #020202"/>
    <path d="M 20.025583 51.114335 
L 28.495151 62.948943 
" clip-path="url(#p1191fda054)" style="fill: #020202; stroke: #020202; stroke-width: 0.99"/>
    <path d="M 20.158613 50.972701 
L 40.457059 63.657115 
" clip-path="url(#p1191fda054)" style="fill: #020202"/>
    <path d="M 20.209428 50.864362 
L 50.418488 60.829123 
" clip-path="url(#p1191fda054)" style="fill: #020202"/>
    <path d="M 13.667555 54.91 
C -10.897577 42.540285 -10.897577 69.779715 13.667555 57.41 
C -10.897577 69.779715 -10.897577 42.540285 13.667555 54.91 
" clip-path="url(#p1191fda054)" style="fill: #020202"/>
    <path d="M 17.287565 58.19301 
L 18.279647 59.579257 
" clip-path="url(#p1191fda054)" style="fill: #020202; stroke: #020202; stroke-width: 0.99"/>
    <path d="M 17.952714 57.484838 
L 27.830002 63.657115 
" clip-path="url(#p1191fda054)" style="fill: #020202"/>
    <path d="M 18.206789 56.943144 
L 40.202984 64.198809 
" clip-path="url(#p1191fda054)" style="fill: #020202; stroke: #020202; stroke-width: 0.99"/>
    <path d="M 18.305853 56.524846 
L 50.319424 61.247421 
" clip-path="url(#p1191fda054)" style="fill: #020202"/>
    <path d="M 17.44486 62.615821 
C -7.074288 75.076437 14.869471 91.215148 19.45883 64.097011 
C 14.869471 91.215148 -7.074288 75.076437 17.44486 62.615821 
" clip-path="url(#p1191fda054)" style="fill: #020202"/>
    <path d="M 22.108764 62.395411 
L 27.575927 64.198809 
" clip-path="url(#p1191fda054)" style="fill: #020202"/>
    <path d="M 22.207828 61.977113 
L 40.10392 64.617107 
" clip-path="url(#p1191fda054)" style="fill: #020202"/>
    <path d="M 22.234594 61.612267 
L 50.292658 61.612267 
" clip-path="url(#p1191fda054)" style="fill: #020202; stroke: #020202; stroke-width: 0.99"/>
    <path d="M 28.372466 66.921303 
C 12.262436 89.213062 39.156929 93.53426 30.840808 67.317897 
C 39.156929 93.53426 12.262436 89.213062 28.372466 66.921303 
" clip-path="url(#p1191fda054)" style="fill: #020202"/>
    <path d="M 32.450097 64.981953 
L 40.077154 64.981953 
" clip-path="url(#p1191fda054)" style="fill: #020202; stroke: #020202; stroke-width: 0.99"/>
    <path d="M 32.423332 64.617107 
L 50.319424 61.977113 
" clip-path="url(#p1191fda054)" style="fill: #020202; stroke: #020202; stroke-width: 0.99"/>
    <path d="M 41.686444 67.317897 
C 33.370323 93.53426 60.264816 89.213062 44.154786 66.921303 
C 60.264816 89.213062 33.370323 93.53426 41.686444 67.317897 
" clip-path="url(#p1191fda054)" style="fill: #020202"/>
    <path d="M 44.951325 64.198809 
L 50.418488 62.395411 
" clip-path="url(#p1191fda054)" style="fill: #020202"/>
    <path d="M 53.068421 64.097011 
C 57.657781 91.215148 79.601539 75.076437 55.082392 62.615821 
C 79.601539 75.076437 57.657781 91.215148 53.068421 64.097011 
" clip-path="url(#p1191fda054)" style="fill: #020202"/>
   </g>
   <g id="VertexCollection_2">
    <path d="M 56.694633 56.66 
C 56.827235 56.66 56.954423 56.607317 57.048187 56.513553 
C 57.14195 56.41979 57.194633 56.292602 57.194633 56.16 
C 57.194633 56.027398 57.14195 55.90021 57.048187 55.806447 
C 56.954423 55.712683 56.827235 55.66 56.694633 55.66 
C 56.562032 55.66 56.434843 55.712683 56.34108 55.806447 
C 56.247316 55.90021 56.194633 56.027398 56.194633 56.16 
C 56.194633 56.292602 56.247316 56.41979 56.34108 56.513553 
C 56.434843 56.607317 56.562032 56.66 56.694633 56.66 
z
" clip-path="url(#p1191fda054)" style="fill: #bebebe"/>
    <path d="M 52.792658 51.207733 
C 52.92526 51.207733 53.052448 51.15505 53.146212 51.061286 
C 53.239975 50.967523 53.292658 50.840335 53.292658 50.707733 
C 53.292658 50.575132 53.239975 50.447943 53.146212 50.35418 
C 53.052448 50.260416 52.92526 50.207733 52.792658 50.207733 
C 52.660057 50.207733 52.532868 50.260416 52.439105 50.35418 
C 52.345341 50.447943 52.292658 50.575132 52.292658 50.707733 
C 52.292658 50.840335 52.345341 50.967523 52.439105 51.061286 
C 52.532868 51.15505 52.660057 51.207733 52.792658 51.207733 
z
" clip-path="url(#p1191fda054)" style="fill: #bebebe"/>
    <path d="M 42.577154 49.838047 
C 43.240162 49.838047 43.876104 49.574631 44.344921 49.105814 
C 44.813739 48.636996 45.077154 48.001055 45.077154 47.338047 
C 45.077154 46.675039 44.813739 46.039097 44.344921 45.57028 
C 43.876104 45.101463 43.240162 44.838047 42.577154 44.838047 
C 41.914147 44.838047 41.278205 45.101463 40.809387 45.57028 
C 40.34057 46.039097 40.077154 46.675039 40.077154 47.338047 
C 40.077154 48.001055 40.34057 48.636996 40.809387 49.105814 
C 41.278205 49.574631 41.914147 49.838047 42.577154 49.838047 
z
" clip-path="url(#p1191fda054)" style="fill: #bebebe"/>
    <path d="M 29.950097 47.838047 
C 30.082699 47.838047 30.209887 47.785364 30.303651 47.6916 
C 30.397414 47.597837 30.450097 47.470648 30.450097 47.338047 
C 30.450097 47.205445 30.397414 47.078257 30.303651 46.984493 
C 30.209887 46.89073 30.082699 46.838047 29.950097 46.838047 
C 29.817496 46.838047 29.690307 46.89073 29.596544 46.984493 
C 29.502781 47.078257 29.450097 47.205445 29.450097 47.338047 
C 29.450097 47.470648 29.502781 47.597837 29.596544 47.6916 
C 29.690307 47.785364 29.817496 47.838047 29.950097 47.838047 
z
" clip-path="url(#p1191fda054)" style="fill: #bebebe"/>
    <path d="M 19.734594 51.207733 
C 19.867195 51.207733 19.994384 51.15505 20.088147 51.061286 
C 20.181911 50.967523 20.234594 50.840335 20.234594 50.707733 
C 20.234594 50.575132 20.181911 50.447943 20.088147 50.35418 
C 19.994384 50.260416 19.867195 50.207733 19.734594 50.207733 
C 19.601992 50.207733 19.474804 50.260416 19.38104 50.35418 
C 19.287277 50.447943 19.234594 50.575132 19.234594 50.707733 
C 19.234594 50.840335 19.287277 50.967523 19.38104 51.061286 
C 19.474804 51.15505 19.601992 51.207733 19.734594 51.207733 
z
" clip-path="url(#p1191fda054)" style="fill: #bebebe"/>
    <path d="M 15.832618 58.66 
C 16.495626 58.66 17.131568 58.396584 17.600385 57.927767 
C 18.069203 57.45895 18.332618 56.823008 18.332618 56.16 
C 18.332618 55.496992 18.069203 54.86105 17.600385 54.392233 
C 17.131568 53.923416 16.495626 53.66 15.832618 53.66 
C 15.169611 53.66 14.533669 53.923416 14.064852 54.392233 
C 13.596034 54.86105 13.332618 55.496992 13.332618 56.16 
C 13.332618 56.823008 13.596034 57.45895 14.064852 57.927767 
C 14.533669 58.396584 15.169611 58.66 15.832618 58.66 
z
" clip-path="url(#p1191fda054)" style="fill: #bebebe"/>
    <path d="M 19.734594 64.112267 
C 20.397601 64.112267 21.033543 63.848851 21.502361 63.380034 
C 21.971178 62.911217 22.234594 62.275275 22.234594 61.612267 
C 22.234594 60.949259 21.971178 60.313317 21.502361 59.8445 
C 21.033543 59.375683 20.397601 59.112267 19.734594 59.112267 
C 19.071586 59.112267 18.435644 59.375683 17.966827 59.8445 
C 17.498009 60.313317 17.234594 60.949259 17.234594 61.612267 
C 17.234594 62.275275 17.498009 62.911217 17.966827 63.380034 
C 18.435644 63.848851 19.071586 64.112267 19.734594 64.112267 
z
" clip-path="url(#p1191fda054)" style="fill: #bebebe"/>
    <path d="M 29.950097 67.481953 
C 30.613105 67.481953 31.249047 67.218537 31.717864 66.74972 
C 32.186682 66.280903 32.450097 65.644961 32.450097 64.981953 
C 32.450097 64.318945 32.186682 63.683004 31.717864 63.214186 
C 31.249047 62.745369 30.613105 62.481953 29.950097 62.481953 
C 29.28709 62.481953 28.651148 62.745369 28.18233 63.214186 
C 27.713513 63.683004 27.450097 64.318945 27.450097 64.981953 
C 27.450097 65.644961 27.713513 66.280903 28.18233 66.74972 
C 28.651148 67.218537 29.28709 67.481953 29.950097 67.481953 
z
" clip-path="url(#p1191fda054)" style="fill: #bebebe"/>
    <path d="M 42.577154 67.481953 
C 43.240162 67.481953 43.876104 67.218537 44.344921 66.74972 
C 44.813739 66.280903 45.077154 65.644961 45.077154 64.981953 
C 45.077154 64.318945 44.813739 63.683004 44.344921 63.214186 
C 43.876104 62.745369 43.240162 62.481953 42.577154 62.481953 
C 41.914147 62.481953 41.278205 62.745369 40.809387 63.214186 
C 40.34057 63.683004 40.077154 64.318945 40.077154 64.981953 
C 40.077154 65.644961 40.34057 66.280903 40.809387 66.74972 
C 41.278205 67.218537 41.914147 67.481953 42.577154 67.481953 
z
" clip-path="url(#p1191fda054)" style="fill: #bebebe"/>
    <path d="M 52.792658 64.112267 
C 53.455666 64.112267 54.091608 63.848851 54.560425 63.380034 
C 55.029242 62.911217 55.292658 62.275275 55.292658 61.612267 
C 55.292658 60.949259 55.029242 60.313317 54.560425 59.8445 
C 54.091608 59.375683 53.455666 59.112267 52.792658 59.112267 
C 52.12965 59.112267 51.493708 59.375683 51.024891 59.8445 
C 50.556074 60.313317 50.292658 60.949259 50.292658 61.612267 
C 50.292658 62.275275 50.556074 62.911217 51.024891 63.380034 
C 51.493708 63.848851 52.12965 64.112267 52.792658 64.112267 
z
" clip-path="url(#p1191fda054)" style="fill: #bebebe"/>
   </g>
   <g id="matplotlib.axis_3"/>
   <g id="matplotlib.axis_4"/>
  </g>
  <g id="axes_3">
   <g id="patch_4">
    <path d="M 10.8 101.52 
L 61.2 101.52 
L 61.2 78.48 
L 10.8 78.48 
z
" style="fill: #ffffff"/>
   </g>
   <g id="EdgeCollection_3">
    <path d="M 57.125956 90.537936 
C 83.423139 103.907651 83.423139 76.668221 57.125956 90.037936 
C 83.423139 76.668221 83.423139 103.907651 57.125956 90.537936 
" clip-path="url(#p8410c7bdb3)" style="fill: #020202"/>
    <path d="M 56.405236 89.879004 
L 53.02865 85.079706 
" clip-path="url(#p8410c7bdb3)" style="fill: #020202"/>
    <path d="M 56.270975 90.019714 
L 44.504311 82.540288 
" clip-path="url(#p8410c7bdb3)" style="fill: #020202"/>
    <path d="M 56.218916 90.128883 
L 30.079557 81.358231 
" clip-path="url(#p8410c7bdb3)" style="fill: #020202"/>
    <path d="M 56.198479 90.213739 
L 19.753521 84.744972 
" clip-path="url(#p8410c7bdb3)" style="fill: #020202"/>
    <path d="M 56.192943 90.287936 
L 15.807057 90.287936 
" clip-path="url(#p8410c7bdb3)" style="fill: #020202"/>
    <path d="M 56.198479 90.362133 
L 19.753521 95.8309 
" clip-path="url(#p8410c7bdb3)" style="fill: #020202"/>
    <path d="M 56.218916 90.446988 
L 30.079557 99.217641 
" clip-path="url(#p8410c7bdb3)" style="fill: #020202; stroke: #020202; stroke-width: 0.99"/>
    <path d="M 56.270975 90.556158 
L 42.816439 99.108471 
" clip-path="url(#p8410c7bdb3)" style="fill: #020202"/>
    <path d="M 56.405236 90.696867 
L 54.179478 93.860441 
" clip-path="url(#p8410c7bdb3)" style="fill: #020202"/>
    <path d="M 53.2002 84.473081 
C 79.637826 71.383274 57.800721 55.100542 52.799364 84.174199 
C 57.800721 55.100542 79.637826 71.383274 53.2002 84.473081 
" clip-path="url(#p8410c7bdb3)" style="fill: #020202"/>
    <path d="M 52.266915 84.511722 
L 44.76461 81.994441 
" clip-path="url(#p8410c7bdb3)" style="fill: #020202"/>
    <path d="M 52.246479 84.596577 
L 30.099993 81.273375 
" clip-path="url(#p8410c7bdb3)" style="fill: #020202; stroke: #020202; stroke-width: 0.99"/>
    <path d="M 52.240943 84.670775 
L 19.759057 84.670775 
" clip-path="url(#p8410c7bdb3)" style="fill: #020202"/>
    <path d="M 52.246479 84.744972 
L 15.801521 90.213739 
" clip-path="url(#p8410c7bdb3)" style="fill: #020202"/>
    <path d="M 52.266915 84.829827 
L 19.733085 95.746044 
" clip-path="url(#p8410c7bdb3)" style="fill: #020202"/>
    <path d="M 52.318975 84.938996 
L 30.027497 99.108471 
" clip-path="url(#p8410c7bdb3)" style="fill: #020202"/>
    <path d="M 52.453236 85.079706 
L 42.682178 98.967762 
" clip-path="url(#p8410c7bdb3)" style="fill: #020202"/>
    <path d="M 52.740943 85.170775 
L 52.740943 93.405097 
" clip-path="url(#p8410c7bdb3)" style="fill: #020202"/>
    <path d="M 43.977052 79.263864 
C 60.143971 57.01333 33.260604 52.623446 41.509731 78.860966 
C 33.260604 52.623446 60.143971 57.01333 43.977052 79.263864 
" clip-path="url(#p8410c7bdb3)" style="fill: #020202"/>
    <path d="M 39.894471 81.199178 
L 30.105529 81.199178 
" clip-path="url(#p8410c7bdb3)" style="fill: #020202"/>
    <path d="M 39.92215 81.570163 
L 19.753521 84.596577 
" clip-path="url(#p8410c7bdb3)" style="fill: #020202"/>
    <path d="M 40.024333 81.994441 
L 15.781084 90.128883 
" clip-path="url(#p8410c7bdb3)" style="fill: #020202; stroke: #020202; stroke-width: 0.99"/>
    <path d="M 40.284631 82.540288 
L 19.681025 95.636875 
" clip-path="url(#p8410c7bdb3)" style="fill: #020202"/>
    <path d="M 40.955936 83.243834 
L 29.893236 98.967762 
" clip-path="url(#p8410c7bdb3)" style="fill: #020202"/>
    <path d="M 42.394471 83.699178 
L 42.394471 98.876693 
" clip-path="url(#p8410c7bdb3)" style="fill: #020202; stroke: #020202; stroke-width: 0.99"/>
    <path d="M 43.833006 83.243834 
L 51.302408 93.860441 
" clip-path="url(#p8410c7bdb3)" style="fill: #020202; stroke: #020202; stroke-width: 0.99"/>
    <path d="M 29.782477 80.731536 
C 38.739396 52.623446 11.856029 57.01333 29.289013 80.812115 
C 11.856029 57.01333 38.739396 52.623446 29.782477 80.731536 
" clip-path="url(#p8410c7bdb3)" style="fill: #020202"/>
    <path d="M 29.131501 81.358231 
L 19.733085 84.511722 
" clip-path="url(#p8410c7bdb3)" style="fill: #020202"/>
    <path d="M 29.183561 81.4674 
L 15.729025 90.019714 
" clip-path="url(#p8410c7bdb3)" style="fill: #020202"/>
    <path d="M 29.317822 81.608109 
L 19.546764 95.496166 
" clip-path="url(#p8410c7bdb3)" style="fill: #020202"/>
    <path d="M 29.605529 81.699178 
L 29.605529 98.876693 
" clip-path="url(#p8410c7bdb3)" style="fill: #020202"/>
    <path d="M 29.893236 81.608109 
L 42.106764 98.967762 
" clip-path="url(#p8410c7bdb3)" style="fill: #020202"/>
    <path d="M 30.027497 81.4674 
L 50.631103 94.563987 
" clip-path="url(#p8410c7bdb3)" style="fill: #020202"/>
    <path d="M 19.200636 84.174199 
C 14.199279 55.100542 -7.637826 71.383274 18.7998 84.473081 
C -7.637826 71.383274 14.199279 55.100542 19.200636 84.174199 
" clip-path="url(#p8410c7bdb3)" style="fill: #020202"/>
    <path d="M 18.97135 85.079706 
L 15.594764 89.879004 
" clip-path="url(#p8410c7bdb3)" style="fill: #020202; stroke: #020202; stroke-width: 0.99"/>
    <path d="M 19.259057 85.170775 
L 19.259057 95.405097 
" clip-path="url(#p8410c7bdb3)" style="fill: #020202"/>
    <path d="M 19.546764 85.079706 
L 29.317822 98.967762 
" clip-path="url(#p8410c7bdb3)" style="fill: #020202"/>
    <path d="M 19.681025 84.938996 
L 41.972503 99.108471 
" clip-path="url(#p8410c7bdb3)" style="fill: #020202"/>
    <path d="M 19.733085 84.829827 
L 50.370804 95.109834 
" clip-path="url(#p8410c7bdb3)" style="fill: #020202"/>
    <path d="M 14.874044 90.037936 
C -11.423139 76.668221 -11.423139 103.907651 14.874044 90.537936 
C -11.423139 103.907651 -11.423139 76.668221 14.874044 90.037936 
" clip-path="url(#p8410c7bdb3)" style="fill: #020202"/>
    <path d="M 15.594764 90.696867 
L 18.97135 95.496166 
" clip-path="url(#p8410c7bdb3)" style="fill: #020202"/>
    <path d="M 15.729025 90.556158 
L 29.183561 99.108471 
" clip-path="url(#p8410c7bdb3)" style="fill: #020202"/>
    <path d="M 15.781084 90.446988 
L 41.920443 99.217641 
" clip-path="url(#p8410c7bdb3)" style="fill: #020202"/>
    <path d="M 15.801521 90.362133 
L 50.268622 95.534111 
" clip-path="url(#p8410c7bdb3)" style="fill: #020202"/>
    <path d="M 18.7998 96.10279 
C -7.637826 109.192597 14.199279 125.475329 19.200636 96.401672 
C 14.199279 125.475329 -7.637826 109.192597 18.7998 96.10279 
" clip-path="url(#p8410c7bdb3)" style="fill: #020202"/>
    <path d="M 19.733085 96.064149 
L 29.131501 99.217641 
" clip-path="url(#p8410c7bdb3)" style="fill: #020202"/>
    <path d="M 19.753521 95.979294 
L 41.900007 99.302496 
" clip-path="url(#p8410c7bdb3)" style="fill: #020202"/>
    <path d="M 19.759057 95.905097 
L 50.240943 95.905097 
" clip-path="url(#p8410c7bdb3)" style="fill: #020202"/>
    <path d="M 29.289013 99.763756 
C 11.856029 123.562541 38.739396 127.952425 29.782477 99.844336 
C 38.739396 127.952425 11.856029 123.562541 29.289013 99.763756 
" clip-path="url(#p8410c7bdb3)" style="fill: #020202"/>
    <path d="M 30.105529 99.376693 
L 41.894471 99.376693 
" clip-path="url(#p8410c7bdb3)" style="fill: #020202"/>
    <path d="M 30.099993 99.302496 
L 50.268622 96.276082 
" clip-path="url(#p8410c7bdb3)" style="fill: #020202; stroke: #020202; stroke-width: 0.99"/>
    <path d="M 42.217523 99.844336 
C 33.260604 127.952425 60.143971 123.562541 42.710987 99.763756 
C 60.143971 123.562541 33.260604 127.952425 42.217523 99.844336 
" clip-path="url(#p8410c7bdb3)" style="fill: #020202"/>
    <path d="M 42.868499 99.217641 
L 50.370804 96.70036 
" clip-path="url(#p8410c7bdb3)" style="fill: #020202; stroke: #020202; stroke-width: 0.99"/>
    <path d="M 53.033048 98.387973 
C 57.800721 125.475329 79.637826 109.192597 55.037229 96.893565 
C 79.637826 109.192597 57.800721 125.475329 53.033048 98.387973 
" clip-path="url(#p8410c7bdb3)" style="fill: #020202"/>
   </g>
   <g id="VertexCollection_3">
    <path d="M 56.692943 90.787936 
C 56.825545 90.787936 56.952733 90.735253 57.046497 90.641489 
C 57.14026 90.547726 57.192943 90.420537 57.192943 90.287936 
C 57.192943 90.155334 57.14026 90.028146 57.046497 89.934382 
C 56.952733 89.840619 56.825545 89.787936 56.692943 89.787936 
C 56.560342 89.787936 56.433153 89.840619 56.33939 89.934382 
C 56.245627 90.028146 56.192943 90.155334 56.192943 90.287936 
C 56.192943 90.420537 56.245627 90.547726 56.33939 90.641489 
C 56.433153 90.735253 56.560342 90.787936 56.692943 90.787936 
z
" clip-path="url(#p8410c7bdb3)" style="fill: #bebebe"/>
    <path d="M 52.740943 85.170775 
C 52.873544 85.170775 53.000733 85.118091 53.094496 85.024328 
C 53.18826 84.930564 53.240943 84.803376 53.240943 84.670775 
C 53.240943 84.538173 53.18826 84.410985 53.094496 84.317221 
C 53.000733 84.223458 52.873544 84.170775 52.740943 84.170775 
C 52.608341 84.170775 52.481153 84.223458 52.38739 84.317221 
C 52.293626 84.410985 52.240943 84.538173 52.240943 84.670775 
C 52.240943 84.803376 52.293626 84.930564 52.38739 85.024328 
C 52.481153 85.118091 52.608341 85.170775 52.740943 85.170775 
z
" clip-path="url(#p8410c7bdb3)" style="fill: #bebebe"/>
    <path d="M 42.394471 83.699178 
C 43.057479 83.699178 43.693421 83.435762 44.162238 82.966945 
C 44.631055 82.498128 44.894471 81.862186 44.894471 81.199178 
C 44.894471 80.53617 44.631055 79.900228 44.162238 79.431411 
C 43.693421 78.962594 43.057479 78.699178 42.394471 78.699178 
C 41.731463 78.699178 41.095522 78.962594 40.626704 79.431411 
C 40.157887 79.900228 39.894471 80.53617 39.894471 81.199178 
C 39.894471 81.862186 40.157887 82.498128 40.626704 82.966945 
C 41.095522 83.435762 41.731463 83.699178 42.394471 83.699178 
z
" clip-path="url(#p8410c7bdb3)" style="fill: #bebebe"/>
    <path d="M 29.605529 81.699178 
C 29.73813 81.699178 29.865319 81.646495 29.959082 81.552731 
C 30.052846 81.458968 30.105529 81.33178 30.105529 81.199178 
C 30.105529 81.066576 30.052846 80.939388 29.959082 80.845625 
C 29.865319 80.751861 29.73813 80.699178 29.605529 80.699178 
C 29.472927 80.699178 29.345739 80.751861 29.251975 80.845625 
C 29.158212 80.939388 29.105529 81.066576 29.105529 81.199178 
C 29.105529 81.33178 29.158212 81.458968 29.251975 81.552731 
C 29.345739 81.646495 29.472927 81.699178 29.605529 81.699178 
z
" clip-path="url(#p8410c7bdb3)" style="fill: #bebebe"/>
    <path d="M 19.259057 85.170775 
C 19.391659 85.170775 19.518847 85.118091 19.61261 85.024328 
C 19.706374 84.930564 19.759057 84.803376 19.759057 84.670775 
C 19.759057 84.538173 19.706374 84.410985 19.61261 84.317221 
C 19.518847 84.223458 19.391659 84.170775 19.259057 84.170775 
C 19.126456 84.170775 18.999267 84.223458 18.905504 84.317221 
C 18.81174 84.410985 18.759057 84.538173 18.759057 84.670775 
C 18.759057 84.803376 18.81174 84.930564 18.905504 85.024328 
C 18.999267 85.118091 19.126456 85.170775 19.259057 85.170775 
z
" clip-path="url(#p8410c7bdb3)" style="fill: #bebebe"/>
    <path d="M 15.307057 90.787936 
C 15.439658 90.787936 15.566847 90.735253 15.66061 90.641489 
C 15.754373 90.547726 15.807057 90.420537 15.807057 90.287936 
C 15.807057 90.155334 15.754373 90.028146 15.66061 89.934382 
C 15.566847 89.840619 15.439658 89.787936 15.307057 89.787936 
C 15.174455 89.787936 15.047267 89.840619 14.953503 89.934382 
C 14.85974 90.028146 14.807057 90.155334 14.807057 90.287936 
C 14.807057 90.420537 14.85974 90.547726 14.953503 90.641489 
C 15.047267 90.735253 15.174455 90.787936 15.307057 90.787936 
z
" clip-path="url(#p8410c7bdb3)" style="fill: #bebebe"/>
    <path d="M 19.259057 96.405097 
C 19.391659 96.405097 19.518847 96.352414 19.61261 96.25865 
C 19.706374 96.164887 19.759057 96.037698 19.759057 95.905097 
C 19.759057 95.772495 19.706374 95.645307 19.61261 95.551543 
C 19.518847 95.45778 19.391659 95.405097 19.259057 95.405097 
C 19.126456 95.405097 18.999267 95.45778 18.905504 95.551543 
C 18.81174 95.645307 18.759057 95.772495 18.759057 95.905097 
C 18.759057 96.037698 18.81174 96.164887 18.905504 96.25865 
C 18.999267 96.352414 19.126456 96.405097 19.259057 96.405097 
z
" clip-path="url(#p8410c7bdb3)" style="fill: #bebebe"/>
    <path d="M 29.605529 99.876693 
C 29.73813 99.876693 29.865319 99.82401 29.959082 99.730247 
C 30.052846 99.636483 30.105529 99.509295 30.105529 99.376693 
C 30.105529 99.244092 30.052846 99.116903 29.959082 99.02314 
C 29.865319 98.929376 29.73813 98.876693 29.605529 98.876693 
C 29.472927 98.876693 29.345739 98.929376 29.251975 99.02314 
C 29.158212 99.116903 29.105529 99.244092 29.105529 99.376693 
C 29.105529 99.509295 29.158212 99.636483 29.251975 99.730247 
C 29.345739 99.82401 29.472927 99.876693 29.605529 99.876693 
z
" clip-path="url(#p8410c7bdb3)" style="fill: #bebebe"/>
    <path d="M 42.394471 99.876693 
C 42.527073 99.876693 42.654261 99.82401 42.748025 99.730247 
C 42.841788 99.636483 42.894471 99.509295 42.894471 99.376693 
C 42.894471 99.244092 42.841788 99.116903 42.748025 99.02314 
C 42.654261 98.929376 42.527073 98.876693 42.394471 98.876693 
C 42.26187 98.876693 42.134681 98.929376 42.040918 99.02314 
C 41.947154 99.116903 41.894471 99.244092 41.894471 99.376693 
C 41.894471 99.509295 41.947154 99.636483 42.040918 99.730247 
C 42.134681 99.82401 42.26187 99.876693 42.394471 99.876693 
z
" clip-path="url(#p8410c7bdb3)" style="fill: #bebebe"/>
    <path d="M 52.740943 98.405097 
C 53.403951 98.405097 54.039893 98.141681 54.50871 97.672864 
C 54.977527 97.204046 55.240943 96.568105 55.240943 95.905097 
C 55.240943 95.242089 54.977527 94.606147 54.50871 94.13733 
C 54.039893 93.668513 53.403951 93.405097 52.740943 93.405097 
C 52.077935 93.405097 51.441993 93.668513 50.973176 94.13733 
C 50.504359 94.606147 50.240943 95.242089 50.240943 95.905097 
C 50.240943 96.568105 50.504359 97.204046 50.973176 97.672864 
C 51.441993 98.141681 52.077935 98.405097 52.740943 98.405097 
z
" clip-path="url(#p8410c7bdb3)" style="fill: #bebebe"/>
   </g>
   <g id="matplotlib.axis_5"/>
   <g id="matplotlib.axis_6"/>
  </g>
  <g id="axes_4">
   <g id="patch_5">
    <path d="M 10.8 135.36 
L 61.2 135.36 
L 61.2 112.32 
L 10.8 112.32 
z
" style="fill: #ffffff"/>
   </g>
   <g id="EdgeCollection_4">
    <path d="M 57.125956 124.09 
C 83.423139 137.459715 83.423139 110.220285 57.125956 123.59 
C 83.423139 110.220285 83.423139 137.459715 57.125956 124.09 
" clip-path="url(#p7deb9dda0a)" style="fill: #020202"/>
    <path d="M 56.399503 123.435163 
L 53.034383 118.79257 
" clip-path="url(#p7deb9dda0a)" style="fill: #020202"/>
    <path d="M 56.267419 123.577457 
L 44.522095 116.33076 
" clip-path="url(#p7deb9dda0a)" style="fill: #020202"/>
    <path d="M 56.217522 123.685163 
L 30.08095 115.172884 
" clip-path="url(#p7deb9dda0a)" style="fill: #020202"/>
    <path d="M 56.198164 123.767935 
L 19.753837 118.459798 
" clip-path="url(#p7deb9dda0a)" style="fill: #020202"/>
    <path d="M 56.192943 123.84 
L 15.807057 123.84 
" clip-path="url(#p7deb9dda0a)" style="fill: #020202"/>
    <path d="M 56.198164 123.912065 
L 19.753837 129.220202 
" clip-path="url(#p7deb9dda0a)" style="fill: #020202"/>
    <path d="M 56.217522 123.994837 
L 30.08095 132.507116 
" clip-path="url(#p7deb9dda0a)" style="fill: #020202"/>
    <path d="M 56.267419 124.102543 
L 44.522095 131.34924 
" clip-path="url(#p7deb9dda0a)" style="fill: #020202"/>
    <path d="M 56.399503 124.244837 
L 54.208145 127.268083 
" clip-path="url(#p7deb9dda0a)" style="fill: #020202"/>
    <path d="M 53.197899 118.184778 
C 79.483449 104.792206 57.460782 88.761341 52.793657 117.89052 
C 57.460782 88.761341 79.483449 104.792206 53.197899 118.184778 
" clip-path="url(#p7deb9dda0a)" style="fill: #020202"/>
    <path d="M 52.265522 118.232896 
L 44.771578 115.792234 
" clip-path="url(#p7deb9dda0a)" style="fill: #020202; stroke: #020202; stroke-width: 0.99"/>
    <path d="M 52.246163 118.315668 
L 30.100308 115.090112 
" clip-path="url(#p7deb9dda0a)" style="fill: #020202"/>
    <path d="M 52.240943 118.387733 
L 19.759057 118.387733 
" clip-path="url(#p7deb9dda0a)" style="fill: #020202"/>
    <path d="M 52.246163 118.459798 
L 15.801836 123.767935 
" clip-path="url(#p7deb9dda0a)" style="fill: #020202"/>
    <path d="M 52.265522 118.54257 
L 19.734478 129.13743 
" clip-path="url(#p7deb9dda0a)" style="fill: #020202"/>
    <path d="M 52.315418 118.650276 
L 30.031054 132.39941 
" clip-path="url(#p7deb9dda0a)" style="fill: #020202"/>
    <path d="M 52.447503 118.79257 
L 43.861673 130.63777 
" clip-path="url(#p7deb9dda0a)" style="fill: #020202"/>
    <path d="M 52.740943 118.887733 
L 52.740943 126.792267 
" clip-path="url(#p7deb9dda0a)" style="fill: #020202"/>
    <path d="M 43.968444 113.075726 
C 60.036421 90.753637 33.133829 86.483147 41.499359 112.683786 
C 33.133829 86.483147 60.036421 90.753637 43.968444 113.075726 
" clip-path="url(#p7deb9dda0a)" style="fill: #020202"/>
    <path d="M 39.894471 115.018047 
L 30.105529 115.018047 
" clip-path="url(#p7deb9dda0a)" style="fill: #020202"/>
    <path d="M 39.920574 115.378371 
L 19.753837 118.315668 
" clip-path="url(#p7deb9dda0a)" style="fill: #020202"/>
    <path d="M 40.017365 115.792234 
L 15.782478 123.685163 
" clip-path="url(#p7deb9dda0a)" style="fill: #020202"/>
    <path d="M 40.266847 116.33076 
L 19.684582 129.029724 
" clip-path="url(#p7deb9dda0a)" style="fill: #020202"/>
    <path d="M 40.92727 117.04223 
L 29.898969 132.257116 
" clip-path="url(#p7deb9dda0a)" style="fill: #020202"/>
    <path d="M 42.394471 117.518047 
L 42.394471 130.161953 
" clip-path="url(#p7deb9dda0a)" style="fill: #020202; stroke: #020202; stroke-width: 0.99"/>
    <path d="M 43.861673 117.04223 
L 51.273741 127.268083 
" clip-path="url(#p7deb9dda0a)" style="fill: #020202; stroke: #020202; stroke-width: 0.99"/>
    <path d="M 29.784551 114.551195 
C 38.866171 86.483147 11.963579 90.753637 29.290734 114.629583 
C 11.963579 90.753637 38.866171 86.483147 29.784551 114.551195 
" clip-path="url(#p7deb9dda0a)" style="fill: #020202"/>
    <path d="M 29.130108 115.172884 
L 19.734478 118.232896 
" clip-path="url(#p7deb9dda0a)" style="fill: #020202"/>
    <path d="M 29.180004 115.28059 
L 15.732581 123.577457 
" clip-path="url(#p7deb9dda0a)" style="fill: #020202"/>
    <path d="M 29.312088 115.422884 
L 19.552497 128.88743 
" clip-path="url(#p7deb9dda0a)" style="fill: #020202"/>
    <path d="M 29.605529 115.518047 
L 29.605529 132.161953 
" clip-path="url(#p7deb9dda0a)" style="fill: #020202"/>
    <path d="M 29.898969 115.422884 
L 40.92727 130.63777 
" clip-path="url(#p7deb9dda0a)" style="fill: #020202"/>
    <path d="M 30.031054 115.28059 
L 50.613319 127.979553 
" clip-path="url(#p7deb9dda0a)" style="fill: #020202"/>
    <path d="M 19.206343 117.89052 
C 14.539218 88.761341 -7.483449 104.792206 18.802101 118.184778 
C -7.483449 104.792206 14.539218 88.761341 19.206343 117.89052 
" clip-path="url(#p7deb9dda0a)" style="fill: #020202"/>
    <path d="M 18.965617 118.79257 
L 15.600497 123.435163 
" clip-path="url(#p7deb9dda0a)" style="fill: #020202"/>
    <path d="M 19.259057 118.887733 
L 19.259057 128.792267 
" clip-path="url(#p7deb9dda0a)" style="fill: #020202"/>
    <path d="M 19.552497 118.79257 
L 29.312088 132.257116 
" clip-path="url(#p7deb9dda0a)" style="fill: #020202"/>
    <path d="M 19.684582 118.650276 
L 40.266847 131.34924 
" clip-path="url(#p7deb9dda0a)" style="fill: #020202; stroke: #020202; stroke-width: 0.99"/>
    <path d="M 19.734478 118.54257 
L 50.363837 128.51808 
" clip-path="url(#p7deb9dda0a)" style="fill: #020202"/>
    <path d="M 14.874044 123.59 
C -11.423139 110.220285 -11.423139 137.459715 14.874044 124.09 
C -11.423139 137.459715 -11.423139 110.220285 14.874044 123.59 
" clip-path="url(#p7deb9dda0a)" style="fill: #020202"/>
    <path d="M 15.600497 124.244837 
L 18.965617 128.88743 
" clip-path="url(#p7deb9dda0a)" style="fill: #020202"/>
    <path d="M 15.732581 124.102543 
L 29.180004 132.39941 
" clip-path="url(#p7deb9dda0a)" style="fill: #020202"/>
    <path d="M 15.782478 123.994837 
L 40.017365 131.887766 
" clip-path="url(#p7deb9dda0a)" style="fill: #020202"/>
    <path d="M 15.801836 123.912065 
L 50.267046 128.931942 
" clip-path="url(#p7deb9dda0a)" style="fill: #020202"/>
    <path d="M 18.802101 129.495222 
C -7.483449 142.887794 14.539218 158.918659 19.206343 129.78948 
C 14.539218 158.918659 -7.483449 142.887794 18.802101 129.495222 
" clip-path="url(#p7deb9dda0a)" style="fill: #020202"/>
    <path d="M 19.734478 129.447104 
L 29.130108 132.507116 
" clip-path="url(#p7deb9dda0a)" style="fill: #020202"/>
    <path d="M 19.753837 129.364332 
L 39.920574 132.301629 
" clip-path="url(#p7deb9dda0a)" style="fill: #020202"/>
    <path d="M 19.759057 129.292267 
L 50.240943 129.292267 
" clip-path="url(#p7deb9dda0a)" style="fill: #020202"/>
    <path d="M 29.290734 133.050417 
C 11.963579 156.926363 38.866171 161.196853 29.784551 133.128805 
C 38.866171 161.196853 11.963579 156.926363 29.290734 133.050417 
" clip-path="url(#p7deb9dda0a)" style="fill: #020202"/>
    <path d="M 30.105529 132.661953 
L 39.894471 132.661953 
" clip-path="url(#p7deb9dda0a)" style="fill: #020202"/>
    <path d="M 30.100308 132.589888 
L 50.267046 129.652591 
" clip-path="url(#p7deb9dda0a)" style="fill: #020202; stroke: #020202; stroke-width: 0.99"/>
    <path d="M 41.499359 134.996214 
C 33.133829 161.196853 60.036421 156.926363 43.968444 134.604274 
C 60.036421 156.926363 33.133829 161.196853 41.499359 134.996214 
" clip-path="url(#p7deb9dda0a)" style="fill: #020202"/>
    <path d="M 44.771578 131.887766 
L 50.363837 130.066454 
" clip-path="url(#p7deb9dda0a)" style="fill: #020202; stroke: #020202; stroke-width: 0.99"/>
    <path d="M 53.004513 131.778334 
C 57.460782 158.918659 79.483449 142.887794 55.025726 130.307042 
C 79.483449 142.887794 57.460782 158.918659 53.004513 131.778334 
" clip-path="url(#p7deb9dda0a)" style="fill: #020202"/>
   </g>
   <g id="VertexCollection_4">
    <path d="M 56.692943 124.34 
C 56.825545 124.34 56.952733 124.287317 57.046497 124.193553 
C 57.14026 124.09979 57.192943 123.972602 57.192943 123.84 
C 57.192943 123.707398 57.14026 123.58021 57.046497 123.486447 
C 56.952733 123.392683 56.825545 123.34 56.692943 123.34 
C 56.560342 123.34 56.433153 123.392683 56.33939 123.486447 
C 56.245627 123.58021 56.192943 123.707398 56.192943 123.84 
C 56.192943 123.972602 56.245627 124.09979 56.33939 124.193553 
C 56.433153 124.287317 56.560342 124.34 56.692943 124.34 
z
" clip-path="url(#p7deb9dda0a)" style="fill: #bebebe"/>
    <path d="M 52.740943 118.887733 
C 52.873544 118.887733 53.000733 118.83505 53.094496 118.741286 
C 53.18826 118.647523 53.240943 118.520335 53.240943 118.387733 
C 53.240943 118.255132 53.18826 118.127943 53.094496 118.03418 
C 53.000733 117.940416 52.873544 117.887733 52.740943 117.887733 
C 52.608341 117.887733 52.481153 117.940416 52.38739 118.03418 
C 52.293626 118.127943 52.240943 118.255132 52.240943 118.387733 
C 52.240943 118.520335 52.293626 118.647523 52.38739 118.741286 
C 52.481153 118.83505 52.608341 118.887733 52.740943 118.887733 
z
" clip-path="url(#p7deb9dda0a)" style="fill: #bebebe"/>
    <path d="M 42.394471 117.518047 
C 43.057479 117.518047 43.693421 117.254631 44.162238 116.785814 
C 44.631055 116.316996 44.894471 115.681055 44.894471 115.018047 
C 44.894471 114.355039 44.631055 113.719097 44.162238 113.25028 
C 43.693421 112.781463 43.057479 112.518047 42.394471 112.518047 
C 41.731463 112.518047 41.095522 112.781463 40.626704 113.25028 
C 40.157887 113.719097 39.894471 114.355039 39.894471 115.018047 
C 39.894471 115.681055 40.157887 116.316996 40.626704 116.785814 
C 41.095522 117.254631 41.731463 117.518047 42.394471 117.518047 
z
" clip-path="url(#p7deb9dda0a)" style="fill: #bebebe"/>
    <path d="M 29.605529 115.518047 
C 29.73813 115.518047 29.865319 115.465364 29.959082 115.3716 
C 30.052846 115.277837 30.105529 115.150648 30.105529 115.018047 
C 30.105529 114.885445 30.052846 114.758257 29.959082 114.664493 
C 29.865319 114.57073 29.73813 114.518047 29.605529 114.518047 
C 29.472927 114.518047 29.345739 114.57073 29.251975 114.664493 
C 29.158212 114.758257 29.105529 114.885445 29.105529 115.018047 
C 29.105529 115.150648 29.158212 115.277837 29.251975 115.3716 
C 29.345739 115.465364 29.472927 115.518047 29.605529 115.518047 
z
" clip-path="url(#p7deb9dda0a)" style="fill: #bebebe"/>
    <path d="M 19.259057 118.887733 
C 19.391659 118.887733 19.518847 118.83505 19.61261 118.741286 
C 19.706374 118.647523 19.759057 118.520335 19.759057 118.387733 
C 19.759057 118.255132 19.706374 118.127943 19.61261 118.03418 
C 19.518847 117.940416 19.391659 117.887733 19.259057 117.887733 
C 19.126456 117.887733 18.999267 117.940416 18.905504 118.03418 
C 18.81174 118.127943 18.759057 118.255132 18.759057 118.387733 
C 18.759057 118.520335 18.81174 118.647523 18.905504 118.741286 
C 18.999267 118.83505 19.126456 118.887733 19.259057 118.887733 
z
" clip-path="url(#p7deb9dda0a)" style="fill: #bebebe"/>
    <path d="M 15.307057 124.34 
C 15.439658 124.34 15.566847 124.287317 15.66061 124.193553 
C 15.754373 124.09979 15.807057 123.972602 15.807057 123.84 
C 15.807057 123.707398 15.754373 123.58021 15.66061 123.486447 
C 15.566847 123.392683 15.439658 123.34 15.307057 123.34 
C 15.174455 123.34 15.047267 123.392683 14.953503 123.486447 
C 14.85974 123.58021 14.807057 123.707398 14.807057 123.84 
C 14.807057 123.972602 14.85974 124.09979 14.953503 124.193553 
C 15.047267 124.287317 15.174455 124.34 15.307057 124.34 
z
" clip-path="url(#p7deb9dda0a)" style="fill: #bebebe"/>
    <path d="M 19.259057 129.792267 
C 19.391659 129.792267 19.518847 129.739584 19.61261 129.64582 
C 19.706374 129.552057 19.759057 129.424868 19.759057 129.292267 
C 19.759057 129.159665 19.706374 129.032477 19.61261 128.938714 
C 19.518847 128.84495 19.391659 128.792267 19.259057 128.792267 
C 19.126456 128.792267 18.999267 128.84495 18.905504 128.938714 
C 18.81174 129.032477 18.759057 129.159665 18.759057 129.292267 
C 18.759057 129.424868 18.81174 129.552057 18.905504 129.64582 
C 18.999267 129.739584 19.126456 129.792267 19.259057 129.792267 
z
" clip-path="url(#p7deb9dda0a)" style="fill: #bebebe"/>
    <path d="M 29.605529 133.161953 
C 29.73813 133.161953 29.865319 133.10927 29.959082 133.015507 
C 30.052846 132.921743 30.105529 132.794555 30.105529 132.661953 
C 30.105529 132.529352 30.052846 132.402163 29.959082 132.3084 
C 29.865319 132.214636 29.73813 132.161953 29.605529 132.161953 
C 29.472927 132.161953 29.345739 132.214636 29.251975 132.3084 
C 29.158212 132.402163 29.105529 132.529352 29.105529 132.661953 
C 29.105529 132.794555 29.158212 132.921743 29.251975 133.015507 
C 29.345739 133.10927 29.472927 133.161953 29.605529 133.161953 
z
" clip-path="url(#p7deb9dda0a)" style="fill: #bebebe"/>
    <path d="M 42.394471 135.161953 
C 43.057479 135.161953 43.693421 134.898537 44.162238 134.42972 
C 44.631055 133.960903 44.894471 133.324961 44.894471 132.661953 
C 44.894471 131.998945 44.631055 131.363004 44.162238 130.894186 
C 43.693421 130.425369 43.057479 130.161953 42.394471 130.161953 
C 41.731463 130.161953 41.095522 130.425369 40.626704 130.894186 
C 40.157887 131.363004 39.894471 131.998945 39.894471 132.661953 
C 39.894471 133.324961 40.157887 133.960903 40.626704 134.42972 
C 41.095522 134.898537 41.731463 135.161953 42.394471 135.161953 
z
" clip-path="url(#p7deb9dda0a)" style="fill: #bebebe"/>
    <path d="M 52.740943 131.792267 
C 53.403951 131.792267 54.039893 131.528851 54.50871 131.060034 
C 54.977527 130.591217 55.240943 129.955275 55.240943 129.292267 
C 55.240943 128.629259 54.977527 127.993317 54.50871 127.5245 
C 54.039893 127.055683 53.403951 126.792267 52.740943 126.792267 
C 52.077935 126.792267 51.441993 127.055683 50.973176 127.5245 
C 50.504359 127.993317 50.240943 128.629259 50.240943 129.292267 
C 50.240943 129.955275 50.504359 130.591217 50.973176 131.060034 
C 51.441993 131.528851 52.077935 131.792267 52.740943 131.792267 
z
" clip-path="url(#p7deb9dda0a)" style="fill: #bebebe"/>
   </g>
   <g id="matplotlib.axis_7"/>
   <g id="matplotlib.axis_8"/>
  </g>
  <g id="axes_5">
   <g id="patch_6">
    <path d="M 10.8 169.2 
L 61.2 169.2 
L 61.2 146.16 
L 10.8 146.16 
z
" style="fill: #ffffff"/>
   </g>
   <g id="EdgeCollection_5">
    <path d="M 57.125956 157.93 
C 83.423139 171.299715 83.423139 144.060285 57.125956 157.43 
C 83.423139 144.060285 83.423139 171.299715 57.125956 157.93 
" clip-path="url(#pb3136fea6b)" style="fill: #020202"/>
    <path d="M 56.399503 157.275163 
L 53.034383 152.63257 
" clip-path="url(#pb3136fea6b)" style="fill: #020202"/>
    <path d="M 56.267419 157.417457 
L 44.522095 150.17076 
" clip-path="url(#pb3136fea6b)" style="fill: #020202"/>
    <path d="M 56.217522 157.525163 
L 31.982635 149.632234 
" clip-path="url(#pb3136fea6b)" style="fill: #020202"/>
    <path d="M 56.198164 157.607935 
L 19.753837 152.299798 
" clip-path="url(#pb3136fea6b)" style="fill: #020202"/>
    <path d="M 56.192943 157.68 
L 15.807057 157.68 
" clip-path="url(#pb3136fea6b)" style="fill: #020202"/>
    <path d="M 56.198164 157.752065 
L 19.753837 163.060202 
" clip-path="url(#pb3136fea6b)" style="fill: #020202"/>
    <path d="M 56.217522 157.834837 
L 30.08095 166.347116 
" clip-path="url(#pb3136fea6b)" style="fill: #020202"/>
    <path d="M 56.267419 157.942543 
L 44.522095 165.18924 
" clip-path="url(#pb3136fea6b)" style="fill: #020202"/>
    <path d="M 56.399503 158.084837 
L 54.208145 161.108083 
" clip-path="url(#pb3136fea6b)" style="fill: #020202"/>
    <path d="M 53.197899 152.024778 
C 79.483449 138.632206 57.460782 122.601341 52.793657 151.73052 
C 57.460782 122.601341 79.483449 138.632206 53.197899 152.024778 
" clip-path="url(#pb3136fea6b)" style="fill: #020202"/>
    <path d="M 52.265522 152.072896 
L 44.771578 149.632234 
" clip-path="url(#pb3136fea6b)" style="fill: #020202"/>
    <path d="M 52.246163 152.155668 
L 32.079426 149.218371 
" clip-path="url(#pb3136fea6b)" style="fill: #020202"/>
    <path d="M 52.240943 152.227733 
L 19.759057 152.227733 
" clip-path="url(#pb3136fea6b)" style="fill: #020202"/>
    <path d="M 52.246163 152.299798 
L 15.801836 157.607935 
" clip-path="url(#pb3136fea6b)" style="fill: #020202"/>
    <path d="M 52.265522 152.38257 
L 19.734478 162.97743 
" clip-path="url(#pb3136fea6b)" style="fill: #020202"/>
    <path d="M 52.315418 152.490276 
L 30.031054 166.23941 
" clip-path="url(#pb3136fea6b)" style="fill: #020202"/>
    <path d="M 52.447503 152.63257 
L 43.861673 164.47777 
" clip-path="url(#pb3136fea6b)" style="fill: #020202"/>
    <path d="M 52.740943 152.727733 
L 52.740943 160.632267 
" clip-path="url(#pb3136fea6b)" style="fill: #020202"/>
    <path d="M 43.968444 146.915726 
C 60.036421 124.593637 33.133829 120.323147 41.499359 146.523786 
C 33.133829 120.323147 60.036421 124.593637 43.968444 146.915726 
" clip-path="url(#pb3136fea6b)" style="fill: #020202"/>
    <path d="M 39.894471 148.858047 
L 32.105529 148.858047 
" clip-path="url(#pb3136fea6b)" style="fill: #020202; stroke: #020202; stroke-width: 0.99"/>
    <path d="M 39.920574 149.218371 
L 19.753837 152.155668 
" clip-path="url(#pb3136fea6b)" style="fill: #020202"/>
    <path d="M 40.017365 149.632234 
L 15.782478 157.525163 
" clip-path="url(#pb3136fea6b)" style="fill: #020202"/>
    <path d="M 40.266847 150.17076 
L 19.684582 162.869724 
" clip-path="url(#pb3136fea6b)" style="fill: #020202"/>
    <path d="M 40.92727 150.88223 
L 29.898969 166.097116 
" clip-path="url(#pb3136fea6b)" style="fill: #020202"/>
    <path d="M 42.394471 151.358047 
L 42.394471 164.001953 
" clip-path="url(#pb3136fea6b)" style="fill: #020202; stroke: #020202; stroke-width: 0.99"/>
    <path d="M 43.861673 150.88223 
L 51.273741 161.108083 
" clip-path="url(#pb3136fea6b)" style="fill: #020202; stroke: #020202; stroke-width: 0.99"/>
    <path d="M 30.500641 146.523786 
C 38.866171 120.323147 11.963579 124.593637 28.031556 146.915726 
C 11.963579 124.593637 38.866171 120.323147 30.500641 146.523786 
" clip-path="url(#pb3136fea6b)" style="fill: #020202"/>
    <path d="M 27.228422 149.632234 
L 19.734478 152.072896 
" clip-path="url(#pb3136fea6b)" style="fill: #020202"/>
    <path d="M 27.477905 150.17076 
L 15.732581 157.417457 
" clip-path="url(#pb3136fea6b)" style="fill: #020202"/>
    <path d="M 28.138327 150.88223 
L 19.552497 162.72743 
" clip-path="url(#pb3136fea6b)" style="fill: #020202"/>
    <path d="M 29.605529 151.358047 
L 29.605529 166.001953 
" clip-path="url(#pb3136fea6b)" style="fill: #020202"/>
    <path d="M 31.07273 150.88223 
L 40.92727 164.47777 
" clip-path="url(#pb3136fea6b)" style="fill: #020202; stroke: #020202; stroke-width: 0.99"/>
    <path d="M 31.733153 150.17076 
L 50.613319 161.819553 
" clip-path="url(#pb3136fea6b)" style="fill: #020202; stroke: #020202; stroke-width: 0.99"/>
    <path d="M 19.206343 151.73052 
C 14.539218 122.601341 -7.483449 138.632206 18.802101 152.024778 
C -7.483449 138.632206 14.539218 122.601341 19.206343 151.73052 
" clip-path="url(#pb3136fea6b)" style="fill: #020202"/>
    <path d="M 18.965617 152.63257 
L 15.600497 157.275163 
" clip-path="url(#pb3136fea6b)" style="fill: #020202"/>
    <path d="M 19.259057 152.727733 
L 19.259057 162.632267 
" clip-path="url(#pb3136fea6b)" style="fill: #020202"/>
    <path d="M 19.552497 152.63257 
L 29.312088 166.097116 
" clip-path="url(#pb3136fea6b)" style="fill: #020202"/>
    <path d="M 19.684582 152.490276 
L 40.266847 165.18924 
" clip-path="url(#pb3136fea6b)" style="fill: #020202"/>
    <path d="M 19.734478 152.38257 
L 50.363837 162.35808 
" clip-path="url(#pb3136fea6b)" style="fill: #020202"/>
    <path d="M 14.874044 157.43 
C -11.423139 144.060285 -11.423139 171.299715 14.874044 157.93 
C -11.423139 171.299715 -11.423139 144.060285 14.874044 157.43 
" clip-path="url(#pb3136fea6b)" style="fill: #020202"/>
    <path d="M 15.600497 158.084837 
L 18.965617 162.72743 
" clip-path="url(#pb3136fea6b)" style="fill: #020202"/>
    <path d="M 15.732581 157.942543 
L 29.180004 166.23941 
" clip-path="url(#pb3136fea6b)" style="fill: #020202"/>
    <path d="M 15.782478 157.834837 
L 40.017365 165.727766 
" clip-path="url(#pb3136fea6b)" style="fill: #020202"/>
    <path d="M 15.801836 157.752065 
L 50.267046 162.771942 
" clip-path="url(#pb3136fea6b)" style="fill: #020202"/>
    <path d="M 18.802101 163.335222 
C -7.483449 176.727794 14.539218 192.758659 19.206343 163.62948 
C 14.539218 192.758659 -7.483449 176.727794 18.802101 163.335222 
" clip-path="url(#pb3136fea6b)" style="fill: #020202"/>
    <path d="M 19.734478 163.287104 
L 29.130108 166.347116 
" clip-path="url(#pb3136fea6b)" style="fill: #020202"/>
    <path d="M 19.753837 163.204332 
L 39.920574 166.141629 
" clip-path="url(#pb3136fea6b)" style="fill: #020202"/>
    <path d="M 19.759057 163.132267 
L 50.240943 163.132267 
" clip-path="url(#pb3136fea6b)" style="fill: #020202"/>
    <path d="M 29.290734 166.890417 
C 11.963579 190.766363 38.866171 195.036853 29.784551 166.968805 
C 38.866171 195.036853 11.963579 190.766363 29.290734 166.890417 
" clip-path="url(#pb3136fea6b)" style="fill: #020202"/>
    <path d="M 30.105529 166.501953 
L 39.894471 166.501953 
" clip-path="url(#pb3136fea6b)" style="fill: #020202"/>
    <path d="M 30.100308 166.429888 
L 50.267046 163.492591 
" clip-path="url(#pb3136fea6b)" style="fill: #020202"/>
    <path d="M 41.499359 168.836214 
C 33.133829 195.036853 60.036421 190.766363 43.968444 168.444274 
C 60.036421 190.766363 33.133829 195.036853 41.499359 168.836214 
" clip-path="url(#pb3136fea6b)" style="fill: #020202"/>
    <path d="M 44.771578 165.727766 
L 50.363837 163.906454 
" clip-path="url(#pb3136fea6b)" style="fill: #020202; stroke: #020202; stroke-width: 0.99"/>
    <path d="M 53.004513 165.618334 
C 57.460782 192.758659 79.483449 176.727794 55.025726 164.147042 
C 79.483449 176.727794 57.460782 192.758659 53.004513 165.618334 
" clip-path="url(#pb3136fea6b)" style="fill: #020202"/>
   </g>
   <g id="VertexCollection_5">
    <path d="M 56.692943 158.18 
C 56.825545 158.18 56.952733 158.127317 57.046497 158.033553 
C 57.14026 157.93979 57.192943 157.812602 57.192943 157.68 
C 57.192943 157.547398 57.14026 157.42021 57.046497 157.326447 
C 56.952733 157.232683 56.825545 157.18 56.692943 157.18 
C 56.560342 157.18 56.433153 157.232683 56.33939 157.326447 
C 56.245627 157.42021 56.192943 157.547398 56.192943 157.68 
C 56.192943 157.812602 56.245627 157.93979 56.33939 158.033553 
C 56.433153 158.127317 56.560342 158.18 56.692943 158.18 
z
" clip-path="url(#pb3136fea6b)" style="fill: #bebebe"/>
    <path d="M 52.740943 152.727733 
C 52.873544 152.727733 53.000733 152.67505 53.094496 152.581286 
C 53.18826 152.487523 53.240943 152.360335 53.240943 152.227733 
C 53.240943 152.095132 53.18826 151.967943 53.094496 151.87418 
C 53.000733 151.780416 52.873544 151.727733 52.740943 151.727733 
C 52.608341 151.727733 52.481153 151.780416 52.38739 151.87418 
C 52.293626 151.967943 52.240943 152.095132 52.240943 152.227733 
C 52.240943 152.360335 52.293626 152.487523 52.38739 152.581286 
C 52.481153 152.67505 52.608341 152.727733 52.740943 152.727733 
z
" clip-path="url(#pb3136fea6b)" style="fill: #bebebe"/>
    <path d="M 42.394471 151.358047 
C 43.057479 151.358047 43.693421 151.094631 44.162238 150.625814 
C 44.631055 150.156996 44.894471 149.521055 44.894471 148.858047 
C 44.894471 148.195039 44.631055 147.559097 44.162238 147.09028 
C 43.693421 146.621463 43.057479 146.358047 42.394471 146.358047 
C 41.731463 146.358047 41.095522 146.621463 40.626704 147.09028 
C 40.157887 147.559097 39.894471 148.195039 39.894471 148.858047 
C 39.894471 149.521055 40.157887 150.156996 40.626704 150.625814 
C 41.095522 151.094631 41.731463 151.358047 42.394471 151.358047 
z
" clip-path="url(#pb3136fea6b)" style="fill: #bebebe"/>
    <path d="M 29.605529 151.358047 
C 30.268537 151.358047 30.904478 151.094631 31.373296 150.625814 
C 31.842113 150.156996 32.105529 149.521055 32.105529 148.858047 
C 32.105529 148.195039 31.842113 147.559097 31.373296 147.09028 
C 30.904478 146.621463 30.268537 146.358047 29.605529 146.358047 
C 28.942521 146.358047 28.306579 146.621463 27.837762 147.09028 
C 27.368945 147.559097 27.105529 148.195039 27.105529 148.858047 
C 27.105529 149.521055 27.368945 150.156996 27.837762 150.625814 
C 28.306579 151.094631 28.942521 151.358047 29.605529 151.358047 
z
" clip-path="url(#pb3136fea6b)" style="fill: #bebebe"/>
    <path d="M 19.259057 152.727733 
C 19.391659 152.727733 19.518847 152.67505 19.61261 152.581286 
C 19.706374 152.487523 19.759057 152.360335 19.759057 152.227733 
C 19.759057 152.095132 19.706374 151.967943 19.61261 151.87418 
C 19.518847 151.780416 19.391659 151.727733 19.259057 151.727733 
C 19.126456 151.727733 18.999267 151.780416 18.905504 151.87418 
C 18.81174 151.967943 18.759057 152.095132 18.759057 152.227733 
C 18.759057 152.360335 18.81174 152.487523 18.905504 152.581286 
C 18.999267 152.67505 19.126456 152.727733 19.259057 152.727733 
z
" clip-path="url(#pb3136fea6b)" style="fill: #bebebe"/>
    <path d="M 15.307057 158.18 
C 15.439658 158.18 15.566847 158.127317 15.66061 158.033553 
C 15.754373 157.93979 15.807057 157.812602 15.807057 157.68 
C 15.807057 157.547398 15.754373 157.42021 15.66061 157.326447 
C 15.566847 157.232683 15.439658 157.18 15.307057 157.18 
C 15.174455 157.18 15.047267 157.232683 14.953503 157.326447 
C 14.85974 157.42021 14.807057 157.547398 14.807057 157.68 
C 14.807057 157.812602 14.85974 157.93979 14.953503 158.033553 
C 15.047267 158.127317 15.174455 158.18 15.307057 158.18 
z
" clip-path="url(#pb3136fea6b)" style="fill: #bebebe"/>
    <path d="M 19.259057 163.632267 
C 19.391659 163.632267 19.518847 163.579584 19.61261 163.48582 
C 19.706374 163.392057 19.759057 163.264868 19.759057 163.132267 
C 19.759057 162.999665 19.706374 162.872477 19.61261 162.778714 
C 19.518847 162.68495 19.391659 162.632267 19.259057 162.632267 
C 19.126456 162.632267 18.999267 162.68495 18.905504 162.778714 
C 18.81174 162.872477 18.759057 162.999665 18.759057 163.132267 
C 18.759057 163.264868 18.81174 163.392057 18.905504 163.48582 
C 18.999267 163.579584 19.126456 163.632267 19.259057 163.632267 
z
" clip-path="url(#pb3136fea6b)" style="fill: #bebebe"/>
    <path d="M 29.605529 167.001953 
C 29.73813 167.001953 29.865319 166.94927 29.959082 166.855507 
C 30.052846 166.761743 30.105529 166.634555 30.105529 166.501953 
C 30.105529 166.369352 30.052846 166.242163 29.959082 166.1484 
C 29.865319 166.054636 29.73813 166.001953 29.605529 166.001953 
C 29.472927 166.001953 29.345739 166.054636 29.251975 166.1484 
C 29.158212 166.242163 29.105529 166.369352 29.105529 166.501953 
C 29.105529 166.634555 29.158212 166.761743 29.251975 166.855507 
C 29.345739 166.94927 29.472927 167.001953 29.605529 167.001953 
z
" clip-path="url(#pb3136fea6b)" style="fill: #bebebe"/>
    <path d="M 42.394471 169.001953 
C 43.057479 169.001953 43.693421 168.738537 44.162238 168.26972 
C 44.631055 167.800903 44.894471 167.164961 44.894471 166.501953 
C 44.894471 165.838945 44.631055 165.203004 44.162238 164.734186 
C 43.693421 164.265369 43.057479 164.001953 42.394471 164.001953 
C 41.731463 164.001953 41.095522 164.265369 40.626704 164.734186 
C 40.157887 165.203004 39.894471 165.838945 39.894471 166.501953 
C 39.894471 167.164961 40.157887 167.800903 40.626704 168.26972 
C 41.095522 168.738537 41.731463 169.001953 42.394471 169.001953 
z
" clip-path="url(#pb3136fea6b)" style="fill: #bebebe"/>
    <path d="M 52.740943 165.632267 
C 53.403951 165.632267 54.039893 165.368851 54.50871 164.900034 
C 54.977527 164.431217 55.240943 163.795275 55.240943 163.132267 
C 55.240943 162.469259 54.977527 161.833317 54.50871 161.3645 
C 54.039893 160.895683 53.403951 160.632267 52.740943 160.632267 
C 52.077935 160.632267 51.441993 160.895683 50.973176 161.3645 
C 50.504359 161.833317 50.240943 162.469259 50.240943 163.132267 
C 50.240943 163.795275 50.504359 164.431217 50.973176 164.900034 
C 51.441993 165.368851 52.077935 165.632267 52.740943 165.632267 
z
" clip-path="url(#pb3136fea6b)" style="fill: #bebebe"/>
   </g>
   <g id="matplotlib.axis_9"/>
   <g id="matplotlib.axis_10"/>
  </g>
 </g>
 <defs>
  <clipPath id="p0c683219ac">
   <rect x="10.8" y="10.8" width="50.4" height="23.04"/>
  </clipPath>
  <clipPath id="p1191fda054">
   <rect x="10.8" y="44.64" width="50.4" height="23.04"/>
  </clipPath>
  <clipPath id="p8410c7bdb3">
   <rect x="10.8" y="78.48" width="50.4" height="23.04"/>
  </clipPath>
  <clipPath id="p7deb9dda0a">
   <rect x="10.8" y="112.32" width="50.4" height="23.04"/>
  </clipPath>
  <clipPath id="pb3136fea6b">
   <rect x="10.8" y="146.16" width="50.4" height="23.04"/>
  </clipPath>
 </defs>
</svg>
