<?xml version="1.0" encoding="utf-8" standalone="no"?>
<!DOCTYPE svg PUBLIC "-//W3C//DTD SVG 1.1//EN"
  "http://www.w3.org/Graphics/SVG/1.1/DTD/svg11.dtd">
<svg xmlns:xlink="http://www.w3.org/1999/xlink" width="72pt" height="180pt" viewBox="0 0 72 180" xmlns="http://www.w3.org/2000/svg" version="1.1">
 <metadata>
  <rdf:RDF xmlns:dc="http://purl.org/dc/elements/1.1/" xmlns:cc="http://creativecommons.org/ns#" xmlns:rdf="http://www.w3.org/1999/02/22-rdf-syntax-ns#">
   <cc:Work>
    <dc:type rdf:resource="http://purl.org/dc/dcmitype/StillImage"/>
    <dc:date>2025-06-06T16:53:30.037545</dc:date>
    <dc:format>image/svg+xml</dc:format>
    <dc:creator>
     <cc:Agent>
      <dc:title>Matplotlib v3.9.2, https://matplotlib.org/</dc:title>
     </cc:Agent>
    </dc:creator>
   </cc:Work>
  </rdf:RDF>
 </metadata>
 <defs>
  <style type="text/css">*{stroke-linejoin: round; stroke-linecap: butt}</style>
 </defs>
 <g id="figure_1">
  <g id="patch_1">
   <path d="M 0 180 
L 72 180 
L 72 0 
L 0 0 
z
" style="fill: #ffffff"/>
  </g>
  <g id="axes_1">
   <g id="patch_2">
    <path d="M 10.8 33.84 
L 61.2 33.84 
L 61.2 10.8 
L 10.8 10.8 
z
" style="fill: #ffffff"/>
   </g>
   <g id="EdgeCollection_1">
    <path d="M 57.127646 22.57 
C 83.424829 35.939715 83.424829 8.700285 57.127646 22.07 
C 83.424829 8.700285 83.424829 35.939715 57.127646 22.57 
" clip-path="url(#p563506c083)" style="fill: #020202"/>
    <path d="M 56.403644 21.913398 
L 53.083647 17.274335 
" clip-path="url(#p563506c083)" style="fill: #020202"/>
    <path d="M 56.270614 22.055032 
L 44.697249 14.822885 
" clip-path="url(#p563506c083)" style="fill: #020202"/>
    <path d="M 56.219799 22.163371 
L 30.424931 13.654676 
" clip-path="url(#p563506c083)" style="fill: #020202"/>
    <path d="M 56.199986 22.247031 
L 20.229241 16.940702 
" clip-path="url(#p563506c083)" style="fill: #020202"/>
    <path d="M 56.194633 22.32 
L 18.332618 22.32 
" clip-path="url(#p563506c083)" style="fill: #020202"/>
    <path d="M 56.199986 22.392969 
L 20.229241 27.699298 
" clip-path="url(#p563506c083)" style="fill: #020202"/>
    <path d="M 56.219799 22.476629 
L 30.424931 30.985324 
" clip-path="url(#p563506c083)" style="fill: #020202"/>
    <path d="M 56.270614 22.584968 
L 44.697249 29.817115 
" clip-path="url(#p563506c083)" style="fill: #020202"/>
    <path d="M 56.403644 22.726602 
L 53.083647 27.365665 
" clip-path="url(#p563506c083)" style="fill: #020202"/>
    <path d="M 53.250605 16.667022 
C 79.601539 3.403563 57.657781 -12.735148 52.847811 16.370784 
C 57.657781 -12.735148 79.601539 3.403563 53.250605 16.667022 
" clip-path="url(#p563506c083)" style="fill: #020202"/>
    <path d="M 52.317824 16.711104 
L 44.951325 14.281191 
" clip-path="url(#p563506c083)" style="fill: #020202; stroke: #020202; stroke-width: 0.99"/>
    <path d="M 52.298011 16.794764 
L 30.444744 13.571016 
" clip-path="url(#p563506c083)" style="fill: #020202"/>
    <path d="M 52.292658 16.867733 
L 20.234594 16.867733 
" clip-path="url(#p563506c083)" style="fill: #020202"/>
    <path d="M 52.298011 16.940702 
L 18.305853 21.955154 
" clip-path="url(#p563506c083)" style="fill: #020202"/>
    <path d="M 52.317824 17.024362 
L 20.209428 27.615638 
" clip-path="url(#p563506c083)" style="fill: #020202"/>
    <path d="M 52.368639 17.132701 
L 30.374116 30.876985 
" clip-path="url(#p563506c083)" style="fill: #020202"/>
    <path d="M 52.501669 17.274335 
L 44.032101 29.108943 
" clip-path="url(#p563506c083)" style="fill: #020202"/>
    <path d="M 52.792658 17.367733 
L 52.792658 27.272267 
" clip-path="url(#p563506c083)" style="fill: #020202"/>
    <path d="M 44.154786 11.558697 
C 60.264816 -10.733062 33.370323 -15.05426 41.686444 11.162103 
C 33.370323 -15.05426 60.264816 -10.733062 44.154786 11.558697 
" clip-path="url(#p563506c083)" style="fill: #020202"/>
    <path d="M 40.077154 13.498047 
L 30.450097 13.498047 
" clip-path="url(#p563506c083)" style="fill: #020202"/>
    <path d="M 40.10392 13.862893 
L 20.229241 16.794764 
" clip-path="url(#p563506c083)" style="fill: #020202"/>
    <path d="M 40.202984 14.281191 
L 18.206789 21.536856 
" clip-path="url(#p563506c083)" style="fill: #020202; stroke: #020202; stroke-width: 0.99"/>
    <path d="M 40.457059 14.822885 
L 20.158613 27.507299 
" clip-path="url(#p563506c083)" style="fill: #020202"/>
    <path d="M 41.122208 15.531057 
L 30.241087 30.735351 
" clip-path="url(#p563506c083)" style="fill: #020202"/>
    <path d="M 42.577154 15.998047 
L 42.577154 28.641953 
" clip-path="url(#p563506c083)" style="fill: #020202; stroke: #020202; stroke-width: 0.99"/>
    <path d="M 44.032101 15.531057 
L 52.501669 27.365665 
" clip-path="url(#p563506c083)" style="fill: #020202"/>
    <path d="M 30.12824 13.030858 
C 39.156929 -15.05426 12.262436 -10.733062 29.634571 13.110177 
C 12.262436 -10.733062 39.156929 -15.05426 30.12824 13.030858 
" clip-path="url(#p563506c083)" style="fill: #020202"/>
    <path d="M 29.475263 13.654676 
L 20.209428 16.711104 
" clip-path="url(#p563506c083)" style="fill: #020202"/>
    <path d="M 29.526078 13.763015 
L 17.952714 20.995162 
" clip-path="url(#p563506c083)" style="fill: #020202"/>
    <path d="M 29.659108 13.904649 
L 20.025583 27.365665 
" clip-path="url(#p563506c083)" style="fill: #020202"/>
    <path d="M 29.950097 13.998047 
L 29.950097 30.641953 
" clip-path="url(#p563506c083)" style="fill: #020202"/>
    <path d="M 30.241087 13.904649 
L 41.122208 29.108943 
" clip-path="url(#p563506c083)" style="fill: #020202"/>
    <path d="M 30.374116 13.763015 
L 52.368639 27.507299 
" clip-path="url(#p563506c083)" style="fill: #020202"/>
    <path d="M 19.679441 16.370784 
C 14.869471 -12.735148 -7.074288 3.403563 19.276647 16.667022 
C -7.074288 3.403563 14.869471 -12.735148 19.679441 16.370784 
" clip-path="url(#p563506c083)" style="fill: #020202"/>
    <path d="M 19.443604 17.274335 
L 17.287565 20.28699 
" clip-path="url(#p563506c083)" style="fill: #020202"/>
    <path d="M 19.734594 17.367733 
L 19.734594 27.272267 
" clip-path="url(#p563506c083)" style="fill: #020202"/>
    <path d="M 20.025583 17.274335 
L 29.659108 30.735351 
" clip-path="url(#p563506c083)" style="fill: #020202"/>
    <path d="M 20.158613 17.132701 
L 40.457059 29.817115 
" clip-path="url(#p563506c083)" style="fill: #020202; stroke: #020202; stroke-width: 0.99"/>
    <path d="M 20.209428 17.024362 
L 52.317824 27.615638 
" clip-path="url(#p563506c083)" style="fill: #020202"/>
    <path d="M 13.667555 21.07 
C -10.897577 8.700285 -10.897577 35.939715 13.667555 23.57 
C -10.897577 35.939715 -10.897577 8.700285 13.667555 21.07 
" clip-path="url(#p563506c083)" style="fill: #020202"/>
    <path d="M 17.287565 24.35301 
L 19.443604 27.365665 
" clip-path="url(#p563506c083)" style="fill: #020202; stroke: #020202; stroke-width: 0.99"/>
    <path d="M 17.952714 23.644838 
L 29.526078 30.876985 
" clip-path="url(#p563506c083)" style="fill: #020202"/>
    <path d="M 18.206789 23.103144 
L 40.202984 30.358809 
" clip-path="url(#p563506c083)" style="fill: #020202; stroke: #020202; stroke-width: 0.99"/>
    <path d="M 18.305853 22.684846 
L 52.298011 27.699298 
" clip-path="url(#p563506c083)" style="fill: #020202"/>
    <path d="M 19.276647 27.972978 
C -7.074288 41.236437 14.869471 57.375148 19.679441 28.269216 
C 14.869471 57.375148 -7.074288 41.236437 19.276647 27.972978 
" clip-path="url(#p563506c083)" style="fill: #020202"/>
    <path d="M 20.209428 27.928896 
L 29.475263 30.985324 
" clip-path="url(#p563506c083)" style="fill: #020202; stroke: #020202; stroke-width: 0.99"/>
    <path d="M 20.229241 27.845236 
L 40.10392 30.777107 
" clip-path="url(#p563506c083)" style="fill: #020202"/>
    <path d="M 20.234594 27.772267 
L 52.292658 27.772267 
" clip-path="url(#p563506c083)" style="fill: #020202"/>
    <path d="M 29.634571 31.529823 
C 12.262436 55.373062 39.156929 59.69426 30.12824 31.609142 
C 39.156929 59.69426 12.262436 55.373062 29.634571 31.529823 
" clip-path="url(#p563506c083)" style="fill: #020202"/>
    <path d="M 30.450097 31.141953 
L 40.077154 31.141953 
" clip-path="url(#p563506c083)" style="fill: #020202"/>
    <path d="M 30.444744 31.068984 
L 52.298011 27.845236 
" clip-path="url(#p563506c083)" style="fill: #020202; stroke: #020202; stroke-width: 0.99"/>
    <path d="M 41.686444 33.477897 
C 33.370323 59.69426 60.264816 55.373062 44.154786 33.081303 
C 60.264816 55.373062 33.370323 59.69426 41.686444 33.477897 
" clip-path="url(#p563506c083)" style="fill: #020202"/>
    <path d="M 44.951325 30.358809 
L 52.317824 27.928896 
" clip-path="url(#p563506c083)" style="fill: #020202"/>
    <path d="M 52.847811 28.269216 
C 57.657781 57.375148 79.601539 41.236437 53.250605 27.972978 
C 79.601539 41.236437 57.657781 57.375148 52.847811 28.269216 
" clip-path="url(#p563506c083)" style="fill: #020202"/>
   </g>
   <g id="VertexCollection_1">
    <path d="M 56.694633 22.82 
C 56.827235 22.82 56.954423 22.767317 57.048187 22.673553 
C 57.14195 22.57979 57.194633 22.452602 57.194633 22.32 
C 57.194633 22.187398 57.14195 22.06021 57.048187 21.966447 
C 56.954423 21.872683 56.827235 21.82 56.694633 21.82 
C 56.562032 21.82 56.434843 21.872683 56.34108 21.966447 
C 56.247316 22.06021 56.194633 22.187398 56.194633 22.32 
C 56.194633 22.452602 56.247316 22.57979 56.34108 22.673553 
C 56.434843 22.767317 56.562032 22.82 56.694633 22.82 
z
" clip-path="url(#p563506c083)" style="fill: #bebebe"/>
    <path d="M 52.792658 17.367733 
C 52.92526 17.367733 53.052448 17.31505 53.146212 17.221286 
C 53.239975 17.127523 53.292658 17.000335 53.292658 16.867733 
C 53.292658 16.735132 53.239975 16.607943 53.146212 16.51418 
C 53.052448 16.420416 52.92526 16.367733 52.792658 16.367733 
C 52.660057 16.367733 52.532868 16.420416 52.439105 16.51418 
C 52.345341 16.607943 52.292658 16.735132 52.292658 16.867733 
C 52.292658 17.000335 52.345341 17.127523 52.439105 17.221286 
C 52.532868 17.31505 52.660057 17.367733 52.792658 17.367733 
z
" clip-path="url(#p563506c083)" style="fill: #bebebe"/>
    <path d="M 42.577154 15.998047 
C 43.240162 15.998047 43.876104 15.734631 44.344921 15.265814 
C 44.813739 14.796996 45.077154 14.161055 45.077154 13.498047 
C 45.077154 12.835039 44.813739 12.199097 44.344921 11.73028 
C 43.876104 11.261463 43.240162 10.998047 42.577154 10.998047 
C 41.914147 10.998047 41.278205 11.261463 40.809387 11.73028 
C 40.34057 12.199097 40.077154 12.835039 40.077154 13.498047 
C 40.077154 14.161055 40.34057 14.796996 40.809387 15.265814 
C 41.278205 15.734631 41.914147 15.998047 42.577154 15.998047 
z
" clip-path="url(#p563506c083)" style="fill: #bebebe"/>
    <path d="M 29.950097 13.998047 
C 30.082699 13.998047 30.209887 13.945364 30.303651 13.8516 
C 30.397414 13.757837 30.450097 13.630648 30.450097 13.498047 
C 30.450097 13.365445 30.397414 13.238257 30.303651 13.144493 
C 30.209887 13.05073 30.082699 12.998047 29.950097 12.998047 
C 29.817496 12.998047 29.690307 13.05073 29.596544 13.144493 
C 29.502781 13.238257 29.450097 13.365445 29.450097 13.498047 
C 29.450097 13.630648 29.502781 13.757837 29.596544 13.8516 
C 29.690307 13.945364 29.817496 13.998047 29.950097 13.998047 
z
" clip-path="url(#p563506c083)" style="fill: #bebebe"/>
    <path d="M 19.734594 17.367733 
C 19.867195 17.367733 19.994384 17.31505 20.088147 17.221286 
C 20.181911 17.127523 20.234594 17.000335 20.234594 16.867733 
C 20.234594 16.735132 20.181911 16.607943 20.088147 16.51418 
C 19.994384 16.420416 19.867195 16.367733 19.734594 16.367733 
C 19.601992 16.367733 19.474804 16.420416 19.38104 16.51418 
C 19.287277 16.607943 19.234594 16.735132 19.234594 16.867733 
C 19.234594 17.000335 19.287277 17.127523 19.38104 17.221286 
C 19.474804 17.31505 19.601992 17.367733 19.734594 17.367733 
z
" clip-path="url(#p563506c083)" style="fill: #bebebe"/>
    <path d="M 15.832618 24.82 
C 16.495626 24.82 17.131568 24.556584 17.600385 24.087767 
C 18.069203 23.61895 18.332618 22.983008 18.332618 22.32 
C 18.332618 21.656992 18.069203 21.02105 17.600385 20.552233 
C 17.131568 20.083416 16.495626 19.82 15.832618 19.82 
C 15.169611 19.82 14.533669 20.083416 14.064852 20.552233 
C 13.596034 21.02105 13.332618 21.656992 13.332618 22.32 
C 13.332618 22.983008 13.596034 23.61895 14.064852 24.087767 
C 14.533669 24.556584 15.169611 24.82 15.832618 24.82 
z
" clip-path="url(#p563506c083)" style="fill: #bebebe"/>
    <path d="M 19.734594 28.272267 
C 19.867195 28.272267 19.994384 28.219584 20.088147 28.12582 
C 20.181911 28.032057 20.234594 27.904868 20.234594 27.772267 
C 20.234594 27.639665 20.181911 27.512477 20.088147 27.418714 
C 19.994384 27.32495 19.867195 27.272267 19.734594 27.272267 
C 19.601992 27.272267 19.474804 27.32495 19.38104 27.418714 
C 19.287277 27.512477 19.234594 27.639665 19.234594 27.772267 
C 19.234594 27.904868 19.287277 28.032057 19.38104 28.12582 
C 19.474804 28.219584 19.601992 28.272267 19.734594 28.272267 
z
" clip-path="url(#p563506c083)" style="fill: #bebebe"/>
    <path d="M 29.950097 31.641953 
C 30.082699 31.641953 30.209887 31.58927 30.303651 31.495507 
C 30.397414 31.401743 30.450097 31.274555 30.450097 31.141953 
C 30.450097 31.009352 30.397414 30.882163 30.303651 30.7884 
C 30.209887 30.694636 30.082699 30.641953 29.950097 30.641953 
C 29.817496 30.641953 29.690307 30.694636 29.596544 30.7884 
C 29.502781 30.882163 29.450097 31.009352 29.450097 31.141953 
C 29.450097 31.274555 29.502781 31.401743 29.596544 31.495507 
C 29.690307 31.58927 29.817496 31.641953 29.950097 31.641953 
z
" clip-path="url(#p563506c083)" style="fill: #bebebe"/>
    <path d="M 42.577154 33.641953 
C 43.240162 33.641953 43.876104 33.378537 44.344921 32.90972 
C 44.813739 32.440903 45.077154 31.804961 45.077154 31.141953 
C 45.077154 30.478945 44.813739 29.843004 44.344921 29.374186 
C 43.876104 28.905369 43.240162 28.641953 42.577154 28.641953 
C 41.914147 28.641953 41.278205 28.905369 40.809387 29.374186 
C 40.34057 29.843004 40.077154 30.478945 40.077154 31.141953 
C 40.077154 31.804961 40.34057 32.440903 40.809387 32.90972 
C 41.278205 33.378537 41.914147 33.641953 42.577154 33.641953 
z
" clip-path="url(#p563506c083)" style="fill: #bebebe"/>
    <path d="M 52.792658 28.272267 
C 52.92526 28.272267 53.052448 28.219584 53.146212 28.12582 
C 53.239975 28.032057 53.292658 27.904868 53.292658 27.772267 
C 53.292658 27.639665 53.239975 27.512477 53.146212 27.418714 
C 53.052448 27.32495 52.92526 27.272267 52.792658 27.272267 
C 52.660057 27.272267 52.532868 27.32495 52.439105 27.418714 
C 52.345341 27.512477 52.292658 27.639665 52.292658 27.772267 
C 52.292658 27.904868 52.345341 28.032057 52.439105 28.12582 
C 52.532868 28.219584 52.660057 28.272267 52.792658 28.272267 
z
" clip-path="url(#p563506c083)" style="fill: #bebebe"/>
   </g>
   <g id="matplotlib.axis_1"/>
   <g id="matplotlib.axis_2"/>
  </g>
  <g id="axes_2">
   <g id="patch_3">
    <path d="M 10.8 67.68 
L 61.2 67.68 
L 61.2 44.64 
L 10.8 44.64 
z
" style="fill: #ffffff"/>
   </g>
   <g id="EdgeCollection_2">
    <path d="M 57.127646 56.122064 
C 83.424829 69.491779 83.424829 42.252349 57.127646 55.622064 
C 83.424829 42.252349 83.424829 69.491779 57.127646 56.122064 
" clip-path="url(#pc98b562355)" style="fill: #020202"/>
    <path d="M 56.409378 55.461419 
L 53.077914 50.665548 
" clip-path="url(#pc98b562355)" style="fill: #020202; stroke: #020202; stroke-width: 0.99"/>
    <path d="M 56.274223 55.601407 
L 42.997564 47.053964 
" clip-path="url(#pc98b562355)" style="fill: #020202"/>
    <path d="M 56.221223 55.711183 
L 30.423507 46.944188 
" clip-path="url(#pc98b562355)" style="fill: #020202"/>
    <path d="M 56.20031 55.796937 
L 20.228917 50.33003 
" clip-path="url(#pc98b562355)" style="fill: #020202"/>
    <path d="M 56.194633 55.872064 
L 18.332618 55.872064 
" clip-path="url(#pc98b562355)" style="fill: #020202; stroke: #020202; stroke-width: 0.99"/>
    <path d="M 56.20031 55.947191 
L 22.206212 61.113591 
" clip-path="url(#pc98b562355)" style="fill: #020202"/>
    <path d="M 56.221223 56.032946 
L 30.423507 64.79994 
" clip-path="url(#pc98b562355)" style="fill: #020202"/>
    <path d="M 56.274223 56.142722 
L 44.679204 63.607534 
" clip-path="url(#pc98b562355)" style="fill: #020202"/>
    <path d="M 56.409378 56.282709 
L 53.077914 61.078581 
" clip-path="url(#pc98b562355)" style="fill: #020202"/>
    <path d="M 53.252883 50.059472 
C 79.754613 37.099943 57.997911 20.709932 52.853522 49.758621 
C 57.997911 20.709932 79.754613 37.099943 53.252883 50.059472 
" clip-path="url(#pc98b562355)" style="fill: #020202"/>
    <path d="M 52.319248 50.094021 
L 43.050564 46.944188 
" clip-path="url(#pc98b562355)" style="fill: #020202"/>
    <path d="M 52.298334 50.179776 
L 30.444421 46.858434 
" clip-path="url(#pc98b562355)" style="fill: #020202"/>
    <path d="M 52.292658 50.254903 
L 20.234594 50.254903 
" clip-path="url(#pc98b562355)" style="fill: #020202"/>
    <path d="M 52.298334 50.33003 
L 18.304237 55.496429 
" clip-path="url(#pc98b562355)" style="fill: #020202"/>
    <path d="M 52.319248 50.415785 
L 22.101644 60.684817 
" clip-path="url(#pc98b562355)" style="fill: #020202"/>
    <path d="M 52.372248 50.525561 
L 30.370507 64.690164 
" clip-path="url(#pc98b562355)" style="fill: #020202"/>
    <path d="M 52.507403 50.665548 
L 44.003432 62.907597 
" clip-path="url(#pc98b562355)" style="fill: #020202"/>
    <path d="M 52.792658 50.754903 
L 52.792658 60.989225 
" clip-path="url(#pc98b562355)" style="fill: #020202"/>
    <path d="M 42.894417 46.396856 
C 60.373317 22.631773 33.498475 18.189993 42.401109 46.315324 
C 33.498475 18.189993 60.373317 22.631773 42.894417 46.396856 
" clip-path="url(#pc98b562355)" style="fill: #020202"/>
    <path d="M 42.077154 46.783307 
L 30.450097 46.783307 
" clip-path="url(#pc98b562355)" style="fill: #020202"/>
    <path d="M 42.082831 46.858434 
L 20.228917 50.179776 
" clip-path="url(#pc98b562355)" style="fill: #020202"/>
    <path d="M 42.103744 46.944188 
L 18.199669 55.067655 
" clip-path="url(#pc98b562355)" style="fill: #020202"/>
    <path d="M 42.156745 47.053964 
L 21.836643 60.135937 
" clip-path="url(#pc98b562355)" style="fill: #020202"/>
    <path d="M 42.291899 47.193952 
L 30.235353 64.550177 
" clip-path="url(#pc98b562355)" style="fill: #020202"/>
    <path d="M 42.577154 47.283307 
L 42.577154 62.460822 
" clip-path="url(#pc98b562355)" style="fill: #020202; stroke: #020202; stroke-width: 0.99"/>
    <path d="M 42.86241 47.193952 
L 52.507403 61.078581 
" clip-path="url(#pc98b562355)" style="fill: #020202"/>
    <path d="M 30.126142 46.315324 
C 39.028777 18.189993 12.153935 22.631773 29.632835 46.396856 
C 12.153935 22.631773 39.028777 18.189993 30.126142 46.315324 
" clip-path="url(#pc98b562355)" style="fill: #020202"/>
    <path d="M 29.476687 46.944188 
L 20.208004 50.094021 
" clip-path="url(#pc98b562355)" style="fill: #020202"/>
    <path d="M 29.529688 47.053964 
L 17.934668 54.518776 
" clip-path="url(#pc98b562355)" style="fill: #020202"/>
    <path d="M 29.664842 47.193952 
L 21.160871 59.436001 
" clip-path="url(#pc98b562355)" style="fill: #020202"/>
    <path d="M 29.950097 47.283307 
L 29.950097 64.460822 
" clip-path="url(#pc98b562355)" style="fill: #020202"/>
    <path d="M 30.235353 47.193952 
L 41.150877 62.907597 
" clip-path="url(#pc98b562355)" style="fill: #020202"/>
    <path d="M 30.370507 47.053964 
L 52.372248 61.218568 
" clip-path="url(#pc98b562355)" style="fill: #020202"/>
    <path d="M 19.673729 49.758621 
C 14.529341 20.709932 -7.227361 37.099943 19.274369 50.059472 
C -7.227361 37.099943 14.529341 20.709932 19.673729 49.758621 
" clip-path="url(#pc98b562355)" style="fill: #020202"/>
    <path d="M 19.449338 50.665548 
L 17.258896 53.81884 
" clip-path="url(#pc98b562355)" style="fill: #020202"/>
    <path d="M 19.734594 50.754903 
L 19.734594 58.989225 
" clip-path="url(#pc98b562355)" style="fill: #020202"/>
    <path d="M 20.019849 50.665548 
L 29.664842 64.550177 
" clip-path="url(#pc98b562355)" style="fill: #020202"/>
    <path d="M 20.155004 50.525561 
L 40.475105 63.607534 
" clip-path="url(#pc98b562355)" style="fill: #020202"/>
    <path d="M 20.208004 50.415785 
L 52.319248 61.328344 
" clip-path="url(#pc98b562355)" style="fill: #020202"/>
    <path d="M 13.667555 54.622064 
C -10.897577 42.252349 -10.897577 69.491779 13.667555 57.122064 
C -10.897577 69.491779 -10.897577 42.252349 13.667555 54.622064 
" clip-path="url(#pc98b562355)" style="fill: #020202"/>
    <path d="M 17.258896 57.925289 
L 18.308316 59.436001 
" clip-path="url(#pc98b562355)" style="fill: #020202; stroke: #020202; stroke-width: 0.99"/>
    <path d="M 17.934668 57.225352 
L 29.529688 64.690164 
" clip-path="url(#pc98b562355)" style="fill: #020202"/>
    <path d="M 18.199669 56.676473 
L 40.210104 64.156413 
" clip-path="url(#pc98b562355)" style="fill: #020202; stroke: #020202; stroke-width: 0.99"/>
    <path d="M 18.304237 56.247699 
L 52.298334 61.414099 
" clip-path="url(#pc98b562355)" style="fill: #020202"/>
    <path d="M 17.43347 62.46638 
C -7.227361 74.644186 14.529341 91.034197 19.430272 63.970634 
C 14.529341 91.034197 -7.227361 74.644186 17.43347 62.46638 
" clip-path="url(#pc98b562355)" style="fill: #020202"/>
    <path d="M 22.101644 62.293634 
L 29.476687 64.79994 
" clip-path="url(#pc98b562355)" style="fill: #020202; stroke: #020202; stroke-width: 0.99"/>
    <path d="M 22.206212 61.86486 
L 40.105536 64.585187 
" clip-path="url(#pc98b562355)" style="fill: #020202; stroke: #020202; stroke-width: 0.99"/>
    <path d="M 22.234594 61.489225 
L 52.292658 61.489225 
" clip-path="url(#pc98b562355)" style="fill: #020202"/>
    <path d="M 29.632835 65.347273 
C 12.153935 89.112356 39.028777 93.554136 30.126142 65.428805 
C 39.028777 93.554136 12.153935 89.112356 29.632835 65.347273 
" clip-path="url(#pc98b562355)" style="fill: #020202"/>
    <path d="M 30.450097 64.960822 
L 40.077154 64.960822 
" clip-path="url(#pc98b562355)" style="fill: #020202"/>
    <path d="M 30.444421 64.885695 
L 52.298334 61.564352 
" clip-path="url(#pc98b562355)" style="fill: #020202; stroke: #020202; stroke-width: 0.99"/>
    <path d="M 41.69693 67.300738 
C 33.498475 93.554136 60.373317 89.112356 44.163468 66.893077 
C 60.373317 89.112356 33.498475 93.554136 41.69693 67.300738 
" clip-path="url(#pc98b562355)" style="fill: #020202"/>
    <path d="M 44.944205 64.156413 
L 52.319248 61.650107 
" clip-path="url(#pc98b562355)" style="fill: #020202"/>
    <path d="M 52.853522 61.985507 
C 57.997911 91.034197 79.754613 74.644186 53.252883 61.684656 
C 79.754613 74.644186 57.997911 91.034197 52.853522 61.985507 
" clip-path="url(#pc98b562355)" style="fill: #020202"/>
   </g>
   <g id="VertexCollection_2">
    <path d="M 56.694633 56.372064 
C 56.827235 56.372064 56.954423 56.319381 57.048187 56.225618 
C 57.14195 56.131854 57.194633 56.004666 57.194633 55.872064 
C 57.194633 55.739463 57.14195 55.612274 57.048187 55.518511 
C 56.954423 55.424747 56.827235 55.372064 56.694633 55.372064 
C 56.562032 55.372064 56.434843 55.424747 56.34108 55.518511 
C 56.247316 55.612274 56.194633 55.739463 56.194633 55.872064 
C 56.194633 56.004666 56.247316 56.131854 56.34108 56.225618 
C 56.434843 56.319381 56.562032 56.372064 56.694633 56.372064 
z
" clip-path="url(#pc98b562355)" style="fill: #bebebe"/>
    <path d="M 52.792658 50.754903 
C 52.92526 50.754903 53.052448 50.70222 53.146212 50.608457 
C 53.239975 50.514693 53.292658 50.387505 53.292658 50.254903 
C 53.292658 50.122302 53.239975 49.995113 53.146212 49.90135 
C 53.052448 49.807586 52.92526 49.754903 52.792658 49.754903 
C 52.660057 49.754903 52.532868 49.807586 52.439105 49.90135 
C 52.345341 49.995113 52.292658 50.122302 52.292658 50.254903 
C 52.292658 50.387505 52.345341 50.514693 52.439105 50.608457 
C 52.532868 50.70222 52.660057 50.754903 52.792658 50.754903 
z
" clip-path="url(#pc98b562355)" style="fill: #bebebe"/>
    <path d="M 42.577154 47.283307 
C 42.709756 47.283307 42.836944 47.230624 42.930708 47.13686 
C 43.024471 47.043097 43.077154 46.915908 43.077154 46.783307 
C 43.077154 46.650705 43.024471 46.523517 42.930708 46.429753 
C 42.836944 46.33599 42.709756 46.283307 42.577154 46.283307 
C 42.444553 46.283307 42.317364 46.33599 42.223601 46.429753 
C 42.129838 46.523517 42.077154 46.650705 42.077154 46.783307 
C 42.077154 46.915908 42.129838 47.043097 42.223601 47.13686 
C 42.317364 47.230624 42.444553 47.283307 42.577154 47.283307 
z
" clip-path="url(#pc98b562355)" style="fill: #bebebe"/>
    <path d="M 29.950097 47.283307 
C 30.082699 47.283307 30.209887 47.230624 30.303651 47.13686 
C 30.397414 47.043097 30.450097 46.915908 30.450097 46.783307 
C 30.450097 46.650705 30.397414 46.523517 30.303651 46.429753 
C 30.209887 46.33599 30.082699 46.283307 29.950097 46.283307 
C 29.817496 46.283307 29.690307 46.33599 29.596544 46.429753 
C 29.502781 46.523517 29.450097 46.650705 29.450097 46.783307 
C 29.450097 46.915908 29.502781 47.043097 29.596544 47.13686 
C 29.690307 47.230624 29.817496 47.283307 29.950097 47.283307 
z
" clip-path="url(#pc98b562355)" style="fill: #bebebe"/>
    <path d="M 19.734594 50.754903 
C 19.867195 50.754903 19.994384 50.70222 20.088147 50.608457 
C 20.181911 50.514693 20.234594 50.387505 20.234594 50.254903 
C 20.234594 50.122302 20.181911 49.995113 20.088147 49.90135 
C 19.994384 49.807586 19.867195 49.754903 19.734594 49.754903 
C 19.601992 49.754903 19.474804 49.807586 19.38104 49.90135 
C 19.287277 49.995113 19.234594 50.122302 19.234594 50.254903 
C 19.234594 50.387505 19.287277 50.514693 19.38104 50.608457 
C 19.474804 50.70222 19.601992 50.754903 19.734594 50.754903 
z
" clip-path="url(#pc98b562355)" style="fill: #bebebe"/>
    <path d="M 15.832618 58.372064 
C 16.495626 58.372064 17.131568 58.108649 17.600385 57.639831 
C 18.069203 57.171014 18.332618 56.535072 18.332618 55.872064 
C 18.332618 55.209057 18.069203 54.573115 17.600385 54.104297 
C 17.131568 53.63548 16.495626 53.372064 15.832618 53.372064 
C 15.169611 53.372064 14.533669 53.63548 14.064852 54.104297 
C 13.596034 54.573115 13.332618 55.209057 13.332618 55.872064 
C 13.332618 56.535072 13.596034 57.171014 14.064852 57.639831 
C 14.533669 58.108649 15.169611 58.372064 15.832618 58.372064 
z
" clip-path="url(#pc98b562355)" style="fill: #bebebe"/>
    <path d="M 19.734594 63.989225 
C 20.397601 63.989225 21.033543 63.72581 21.502361 63.256992 
C 21.971178 62.788175 22.234594 62.152233 22.234594 61.489225 
C 22.234594 60.826218 21.971178 60.190276 21.502361 59.721459 
C 21.033543 59.252641 20.397601 58.989225 19.734594 58.989225 
C 19.071586 58.989225 18.435644 59.252641 17.966827 59.721459 
C 17.498009 60.190276 17.234594 60.826218 17.234594 61.489225 
C 17.234594 62.152233 17.498009 62.788175 17.966827 63.256992 
C 18.435644 63.72581 19.071586 63.989225 19.734594 63.989225 
z
" clip-path="url(#pc98b562355)" style="fill: #bebebe"/>
    <path d="M 29.950097 65.460822 
C 30.082699 65.460822 30.209887 65.408139 30.303651 65.314375 
C 30.397414 65.220612 30.450097 65.093424 30.450097 64.960822 
C 30.450097 64.82822 30.397414 64.701032 30.303651 64.607269 
C 30.209887 64.513505 30.082699 64.460822 29.950097 64.460822 
C 29.817496 64.460822 29.690307 64.513505 29.596544 64.607269 
C 29.502781 64.701032 29.450097 64.82822 29.450097 64.960822 
C 29.450097 65.093424 29.502781 65.220612 29.596544 65.314375 
C 29.690307 65.408139 29.817496 65.460822 29.950097 65.460822 
z
" clip-path="url(#pc98b562355)" style="fill: #bebebe"/>
    <path d="M 42.577154 67.460822 
C 43.240162 67.460822 43.876104 67.197406 44.344921 66.728589 
C 44.813739 66.259772 45.077154 65.62383 45.077154 64.960822 
C 45.077154 64.297814 44.813739 63.661872 44.344921 63.193055 
C 43.876104 62.724238 43.240162 62.460822 42.577154 62.460822 
C 41.914147 62.460822 41.278205 62.724238 40.809387 63.193055 
C 40.34057 63.661872 40.077154 64.297814 40.077154 64.960822 
C 40.077154 65.62383 40.34057 66.259772 40.809387 66.728589 
C 41.278205 67.197406 41.914147 67.460822 42.577154 67.460822 
z
" clip-path="url(#pc98b562355)" style="fill: #bebebe"/>
    <path d="M 52.792658 61.989225 
C 52.92526 61.989225 53.052448 61.936542 53.146212 61.842779 
C 53.239975 61.749015 53.292658 61.621827 53.292658 61.489225 
C 53.292658 61.356624 53.239975 61.229436 53.146212 61.135672 
C 53.052448 61.041909 52.92526 60.989225 52.792658 60.989225 
C 52.660057 60.989225 52.532868 61.041909 52.439105 61.135672 
C 52.345341 61.229436 52.292658 61.356624 52.292658 61.489225 
C 52.292658 61.621827 52.345341 61.749015 52.439105 61.842779 
C 52.532868 61.936542 52.660057 61.989225 52.792658 61.989225 
z
" clip-path="url(#pc98b562355)" style="fill: #bebebe"/>
   </g>
   <g id="matplotlib.axis_3"/>
   <g id="matplotlib.axis_4"/>
  </g>
  <g id="axes_3">
   <g id="patch_4">
    <path d="M 10.8 101.52 
L 61.2 101.52 
L 61.2 78.48 
L 10.8 78.48 
z
" style="fill: #ffffff"/>
   </g>
   <g id="EdgeCollection_3">
    <path d="M 57.127646 89.962064 
C 83.424829 103.331779 83.424829 76.092349 57.127646 89.462064 
C 83.424829 76.092349 83.424829 103.331779 57.127646 89.962064 
" clip-path="url(#p7db12a35e3)" style="fill: #020202"/>
    <path d="M 56.409378 89.301419 
L 53.077914 84.505548 
" clip-path="url(#p7db12a35e3)" style="fill: #020202; stroke: #020202; stroke-width: 0.99"/>
    <path d="M 56.274223 89.441407 
L 42.997564 80.893964 
" clip-path="url(#p7db12a35e3)" style="fill: #020202"/>
    <path d="M 56.221223 89.551183 
L 30.423507 80.784188 
" clip-path="url(#p7db12a35e3)" style="fill: #020202"/>
    <path d="M 56.20031 89.636937 
L 20.228917 84.17003 
" clip-path="url(#p7db12a35e3)" style="fill: #020202"/>
    <path d="M 56.194633 89.712064 
L 18.332618 89.712064 
" clip-path="url(#p7db12a35e3)" style="fill: #020202"/>
    <path d="M 56.20031 89.787191 
L 22.206212 94.953591 
" clip-path="url(#p7db12a35e3)" style="fill: #020202"/>
    <path d="M 56.221223 89.872946 
L 30.423507 98.63994 
" clip-path="url(#p7db12a35e3)" style="fill: #020202"/>
    <path d="M 56.274223 89.982722 
L 44.679204 97.447534 
" clip-path="url(#p7db12a35e3)" style="fill: #020202"/>
    <path d="M 56.409378 90.122709 
L 53.077914 94.918581 
" clip-path="url(#p7db12a35e3)" style="fill: #020202"/>
    <path d="M 53.252883 83.899472 
C 79.754613 70.939943 57.997911 54.549932 52.853522 83.598621 
C 57.997911 54.549932 79.754613 70.939943 53.252883 83.899472 
" clip-path="url(#p7db12a35e3)" style="fill: #020202"/>
    <path d="M 52.319248 83.934021 
L 43.050564 80.784188 
" clip-path="url(#p7db12a35e3)" style="fill: #020202"/>
    <path d="M 52.298334 84.019776 
L 30.444421 80.698434 
" clip-path="url(#p7db12a35e3)" style="fill: #020202"/>
    <path d="M 52.292658 84.094903 
L 20.234594 84.094903 
" clip-path="url(#p7db12a35e3)" style="fill: #020202"/>
    <path d="M 52.298334 84.17003 
L 18.304237 89.336429 
" clip-path="url(#p7db12a35e3)" style="fill: #020202"/>
    <path d="M 52.319248 84.255785 
L 22.101644 94.524817 
" clip-path="url(#p7db12a35e3)" style="fill: #020202"/>
    <path d="M 52.372248 84.365561 
L 30.370507 98.530164 
" clip-path="url(#p7db12a35e3)" style="fill: #020202"/>
    <path d="M 52.507403 84.505548 
L 44.003432 96.747597 
" clip-path="url(#p7db12a35e3)" style="fill: #020202"/>
    <path d="M 52.792658 84.594903 
L 52.792658 94.829225 
" clip-path="url(#p7db12a35e3)" style="fill: #020202"/>
    <path d="M 42.894417 80.236856 
C 60.373317 56.471773 33.498475 52.029993 42.401109 80.155324 
C 33.498475 52.029993 60.373317 56.471773 42.894417 80.236856 
" clip-path="url(#p7db12a35e3)" style="fill: #020202"/>
    <path d="M 42.077154 80.623307 
L 30.450097 80.623307 
" clip-path="url(#p7db12a35e3)" style="fill: #020202"/>
    <path d="M 42.082831 80.698434 
L 20.228917 84.019776 
" clip-path="url(#p7db12a35e3)" style="fill: #020202"/>
    <path d="M 42.103744 80.784188 
L 18.199669 88.907655 
" clip-path="url(#p7db12a35e3)" style="fill: #020202; stroke: #020202; stroke-width: 0.99"/>
    <path d="M 42.156745 80.893964 
L 21.836643 93.975937 
" clip-path="url(#p7db12a35e3)" style="fill: #020202"/>
    <path d="M 42.291899 81.033952 
L 30.235353 98.390177 
" clip-path="url(#p7db12a35e3)" style="fill: #020202"/>
    <path d="M 42.577154 81.123307 
L 42.577154 96.300822 
" clip-path="url(#p7db12a35e3)" style="fill: #020202; stroke: #020202; stroke-width: 0.99"/>
    <path d="M 42.86241 81.033952 
L 52.507403 94.918581 
" clip-path="url(#p7db12a35e3)" style="fill: #020202"/>
    <path d="M 30.126142 80.155324 
C 39.028777 52.029993 12.153935 56.471773 29.632835 80.236856 
C 12.153935 56.471773 39.028777 52.029993 30.126142 80.155324 
" clip-path="url(#p7db12a35e3)" style="fill: #020202"/>
    <path d="M 29.476687 80.784188 
L 20.208004 83.934021 
" clip-path="url(#p7db12a35e3)" style="fill: #020202"/>
    <path d="M 29.529688 80.893964 
L 17.934668 88.358776 
" clip-path="url(#p7db12a35e3)" style="fill: #020202"/>
    <path d="M 29.664842 81.033952 
L 21.160871 93.276001 
" clip-path="url(#p7db12a35e3)" style="fill: #020202"/>
    <path d="M 29.950097 81.123307 
L 29.950097 98.300822 
" clip-path="url(#p7db12a35e3)" style="fill: #020202"/>
    <path d="M 30.235353 81.033952 
L 41.150877 96.747597 
" clip-path="url(#p7db12a35e3)" style="fill: #020202"/>
    <path d="M 30.370507 80.893964 
L 52.372248 95.058568 
" clip-path="url(#p7db12a35e3)" style="fill: #020202"/>
    <path d="M 19.673729 83.598621 
C 14.529341 54.549932 -7.227361 70.939943 19.274369 83.899472 
C -7.227361 70.939943 14.529341 54.549932 19.673729 83.598621 
" clip-path="url(#p7db12a35e3)" style="fill: #020202"/>
    <path d="M 19.449338 84.505548 
L 17.258896 87.65884 
" clip-path="url(#p7db12a35e3)" style="fill: #020202"/>
    <path d="M 19.734594 84.594903 
L 19.734594 92.829225 
" clip-path="url(#p7db12a35e3)" style="fill: #020202"/>
    <path d="M 20.019849 84.505548 
L 29.664842 98.390177 
" clip-path="url(#p7db12a35e3)" style="fill: #020202"/>
    <path d="M 20.155004 84.365561 
L 40.475105 97.447534 
" clip-path="url(#p7db12a35e3)" style="fill: #020202"/>
    <path d="M 20.208004 84.255785 
L 52.319248 95.168344 
" clip-path="url(#p7db12a35e3)" style="fill: #020202"/>
    <path d="M 13.667555 88.462064 
C -10.897577 76.092349 -10.897577 103.331779 13.667555 90.962064 
C -10.897577 103.331779 -10.897577 76.092349 13.667555 88.462064 
" clip-path="url(#p7db12a35e3)" style="fill: #020202"/>
    <path d="M 17.258896 91.765289 
L 18.308316 93.276001 
" clip-path="url(#p7db12a35e3)" style="fill: #020202; stroke: #020202; stroke-width: 0.99"/>
    <path d="M 17.934668 91.065352 
L 29.529688 98.530164 
" clip-path="url(#p7db12a35e3)" style="fill: #020202"/>
    <path d="M 18.199669 90.516473 
L 40.210104 97.996413 
" clip-path="url(#p7db12a35e3)" style="fill: #020202; stroke: #020202; stroke-width: 0.99"/>
    <path d="M 18.304237 90.087699 
L 52.298334 95.254099 
" clip-path="url(#p7db12a35e3)" style="fill: #020202"/>
    <path d="M 17.43347 96.30638 
C -7.227361 108.484186 14.529341 124.874197 19.430272 97.810634 
C 14.529341 124.874197 -7.227361 108.484186 17.43347 96.30638 
" clip-path="url(#p7db12a35e3)" style="fill: #020202"/>
    <path d="M 22.101644 96.133634 
L 29.476687 98.63994 
" clip-path="url(#p7db12a35e3)" style="fill: #020202; stroke: #020202; stroke-width: 0.99"/>
    <path d="M 22.206212 95.70486 
L 40.105536 98.425187 
" clip-path="url(#p7db12a35e3)" style="fill: #020202; stroke: #020202; stroke-width: 0.99"/>
    <path d="M 22.234594 95.329225 
L 52.292658 95.329225 
" clip-path="url(#p7db12a35e3)" style="fill: #020202"/>
    <path d="M 29.632835 99.187273 
C 12.153935 122.952356 39.028777 127.394136 30.126142 99.268805 
C 39.028777 127.394136 12.153935 122.952356 29.632835 99.187273 
" clip-path="url(#p7db12a35e3)" style="fill: #020202"/>
    <path d="M 30.450097 98.800822 
L 40.077154 98.800822 
" clip-path="url(#p7db12a35e3)" style="fill: #020202"/>
    <path d="M 30.444421 98.725695 
L 52.298334 95.404352 
" clip-path="url(#p7db12a35e3)" style="fill: #020202; stroke: #020202; stroke-width: 0.99"/>
    <path d="M 41.69693 101.140738 
C 33.498475 127.394136 60.373317 122.952356 44.163468 100.733077 
C 60.373317 122.952356 33.498475 127.394136 41.69693 101.140738 
" clip-path="url(#p7db12a35e3)" style="fill: #020202"/>
    <path d="M 44.944205 97.996413 
L 52.319248 95.490107 
" clip-path="url(#p7db12a35e3)" style="fill: #020202"/>
    <path d="M 52.853522 95.825507 
C 57.997911 124.874197 79.754613 108.484186 53.252883 95.524656 
C 79.754613 108.484186 57.997911 124.874197 52.853522 95.825507 
" clip-path="url(#p7db12a35e3)" style="fill: #020202"/>
   </g>
   <g id="VertexCollection_3">
    <path d="M 56.694633 90.212064 
C 56.827235 90.212064 56.954423 90.159381 57.048187 90.065618 
C 57.14195 89.971854 57.194633 89.844666 57.194633 89.712064 
C 57.194633 89.579463 57.14195 89.452274 57.048187 89.358511 
C 56.954423 89.264747 56.827235 89.212064 56.694633 89.212064 
C 56.562032 89.212064 56.434843 89.264747 56.34108 89.358511 
C 56.247316 89.452274 56.194633 89.579463 56.194633 89.712064 
C 56.194633 89.844666 56.247316 89.971854 56.34108 90.065618 
C 56.434843 90.159381 56.562032 90.212064 56.694633 90.212064 
z
" clip-path="url(#p7db12a35e3)" style="fill: #bebebe"/>
    <path d="M 52.792658 84.594903 
C 52.92526 84.594903 53.052448 84.54222 53.146212 84.448457 
C 53.239975 84.354693 53.292658 84.227505 53.292658 84.094903 
C 53.292658 83.962302 53.239975 83.835113 53.146212 83.74135 
C 53.052448 83.647586 52.92526 83.594903 52.792658 83.594903 
C 52.660057 83.594903 52.532868 83.647586 52.439105 83.74135 
C 52.345341 83.835113 52.292658 83.962302 52.292658 84.094903 
C 52.292658 84.227505 52.345341 84.354693 52.439105 84.448457 
C 52.532868 84.54222 52.660057 84.594903 52.792658 84.594903 
z
" clip-path="url(#p7db12a35e3)" style="fill: #bebebe"/>
    <path d="M 42.577154 81.123307 
C 42.709756 81.123307 42.836944 81.070624 42.930708 80.97686 
C 43.024471 80.883097 43.077154 80.755908 43.077154 80.623307 
C 43.077154 80.490705 43.024471 80.363517 42.930708 80.269753 
C 42.836944 80.17599 42.709756 80.123307 42.577154 80.123307 
C 42.444553 80.123307 42.317364 80.17599 42.223601 80.269753 
C 42.129838 80.363517 42.077154 80.490705 42.077154 80.623307 
C 42.077154 80.755908 42.129838 80.883097 42.223601 80.97686 
C 42.317364 81.070624 42.444553 81.123307 42.577154 81.123307 
z
" clip-path="url(#p7db12a35e3)" style="fill: #bebebe"/>
    <path d="M 29.950097 81.123307 
C 30.082699 81.123307 30.209887 81.070624 30.303651 80.97686 
C 30.397414 80.883097 30.450097 80.755908 30.450097 80.623307 
C 30.450097 80.490705 30.397414 80.363517 30.303651 80.269753 
C 30.209887 80.17599 30.082699 80.123307 29.950097 80.123307 
C 29.817496 80.123307 29.690307 80.17599 29.596544 80.269753 
C 29.502781 80.363517 29.450097 80.490705 29.450097 80.623307 
C 29.450097 80.755908 29.502781 80.883097 29.596544 80.97686 
C 29.690307 81.070624 29.817496 81.123307 29.950097 81.123307 
z
" clip-path="url(#p7db12a35e3)" style="fill: #bebebe"/>
    <path d="M 19.734594 84.594903 
C 19.867195 84.594903 19.994384 84.54222 20.088147 84.448457 
C 20.181911 84.354693 20.234594 84.227505 20.234594 84.094903 
C 20.234594 83.962302 20.181911 83.835113 20.088147 83.74135 
C 19.994384 83.647586 19.867195 83.594903 19.734594 83.594903 
C 19.601992 83.594903 19.474804 83.647586 19.38104 83.74135 
C 19.287277 83.835113 19.234594 83.962302 19.234594 84.094903 
C 19.234594 84.227505 19.287277 84.354693 19.38104 84.448457 
C 19.474804 84.54222 19.601992 84.594903 19.734594 84.594903 
z
" clip-path="url(#p7db12a35e3)" style="fill: #bebebe"/>
    <path d="M 15.832618 92.212064 
C 16.495626 92.212064 17.131568 91.948649 17.600385 91.479831 
C 18.069203 91.011014 18.332618 90.375072 18.332618 89.712064 
C 18.332618 89.049057 18.069203 88.413115 17.600385 87.944297 
C 17.131568 87.47548 16.495626 87.212064 15.832618 87.212064 
C 15.169611 87.212064 14.533669 87.47548 14.064852 87.944297 
C 13.596034 88.413115 13.332618 89.049057 13.332618 89.712064 
C 13.332618 90.375072 13.596034 91.011014 14.064852 91.479831 
C 14.533669 91.948649 15.169611 92.212064 15.832618 92.212064 
z
" clip-path="url(#p7db12a35e3)" style="fill: #bebebe"/>
    <path d="M 19.734594 97.829225 
C 20.397601 97.829225 21.033543 97.56581 21.502361 97.096992 
C 21.971178 96.628175 22.234594 95.992233 22.234594 95.329225 
C 22.234594 94.666218 21.971178 94.030276 21.502361 93.561459 
C 21.033543 93.092641 20.397601 92.829225 19.734594 92.829225 
C 19.071586 92.829225 18.435644 93.092641 17.966827 93.561459 
C 17.498009 94.030276 17.234594 94.666218 17.234594 95.329225 
C 17.234594 95.992233 17.498009 96.628175 17.966827 97.096992 
C 18.435644 97.56581 19.071586 97.829225 19.734594 97.829225 
z
" clip-path="url(#p7db12a35e3)" style="fill: #bebebe"/>
    <path d="M 29.950097 99.300822 
C 30.082699 99.300822 30.209887 99.248139 30.303651 99.154375 
C 30.397414 99.060612 30.450097 98.933424 30.450097 98.800822 
C 30.450097 98.66822 30.397414 98.541032 30.303651 98.447269 
C 30.209887 98.353505 30.082699 98.300822 29.950097 98.300822 
C 29.817496 98.300822 29.690307 98.353505 29.596544 98.447269 
C 29.502781 98.541032 29.450097 98.66822 29.450097 98.800822 
C 29.450097 98.933424 29.502781 99.060612 29.596544 99.154375 
C 29.690307 99.248139 29.817496 99.300822 29.950097 99.300822 
z
" clip-path="url(#p7db12a35e3)" style="fill: #bebebe"/>
    <path d="M 42.577154 101.300822 
C 43.240162 101.300822 43.876104 101.037406 44.344921 100.568589 
C 44.813739 100.099772 45.077154 99.46383 45.077154 98.800822 
C 45.077154 98.137814 44.813739 97.501872 44.344921 97.033055 
C 43.876104 96.564238 43.240162 96.300822 42.577154 96.300822 
C 41.914147 96.300822 41.278205 96.564238 40.809387 97.033055 
C 40.34057 97.501872 40.077154 98.137814 40.077154 98.800822 
C 40.077154 99.46383 40.34057 100.099772 40.809387 100.568589 
C 41.278205 101.037406 41.914147 101.300822 42.577154 101.300822 
z
" clip-path="url(#p7db12a35e3)" style="fill: #bebebe"/>
    <path d="M 52.792658 95.829225 
C 52.92526 95.829225 53.052448 95.776542 53.146212 95.682779 
C 53.239975 95.589015 53.292658 95.461827 53.292658 95.329225 
C 53.292658 95.196624 53.239975 95.069436 53.146212 94.975672 
C 53.052448 94.881909 52.92526 94.829225 52.792658 94.829225 
C 52.660057 94.829225 52.532868 94.881909 52.439105 94.975672 
C 52.345341 95.069436 52.292658 95.196624 52.292658 95.329225 
C 52.292658 95.461827 52.345341 95.589015 52.439105 95.682779 
C 52.532868 95.776542 52.660057 95.829225 52.792658 95.829225 
z
" clip-path="url(#p7db12a35e3)" style="fill: #bebebe"/>
   </g>
   <g id="matplotlib.axis_5"/>
   <g id="matplotlib.axis_6"/>
  </g>
  <g id="axes_4">
   <g id="patch_5">
    <path d="M 10.8 135.36 
L 61.2 135.36 
L 61.2 112.32 
L 10.8 112.32 
z
" style="fill: #ffffff"/>
   </g>
   <g id="EdgeCollection_4">
    <path d="M 57.127646 123.802064 
C 83.424829 137.171779 83.424829 109.932349 57.127646 123.302064 
C 83.424829 109.932349 83.424829 137.171779 57.127646 123.802064 
" clip-path="url(#p9abea4da68)" style="fill: #020202"/>
    <path d="M 56.409378 123.141419 
L 53.077914 118.345548 
" clip-path="url(#p9abea4da68)" style="fill: #020202; stroke: #020202; stroke-width: 0.99"/>
    <path d="M 56.274223 123.281407 
L 42.997564 114.733964 
" clip-path="url(#p9abea4da68)" style="fill: #020202"/>
    <path d="M 56.221223 123.391183 
L 30.423507 114.624188 
" clip-path="url(#p9abea4da68)" style="fill: #020202"/>
    <path d="M 56.20031 123.476937 
L 22.206212 118.310538 
" clip-path="url(#p9abea4da68)" style="fill: #020202"/>
    <path d="M 56.194633 123.552064 
L 18.332618 123.552064 
" clip-path="url(#p9abea4da68)" style="fill: #020202"/>
    <path d="M 56.20031 123.627191 
L 22.206212 128.793591 
" clip-path="url(#p9abea4da68)" style="fill: #020202"/>
    <path d="M 56.221223 123.712946 
L 30.423507 132.47994 
" clip-path="url(#p9abea4da68)" style="fill: #020202"/>
    <path d="M 56.274223 123.822722 
L 44.679204 131.287534 
" clip-path="url(#p9abea4da68)" style="fill: #020202"/>
    <path d="M 56.409378 123.962709 
L 53.077914 128.758581 
" clip-path="url(#p9abea4da68)" style="fill: #020202"/>
    <path d="M 53.252883 117.739472 
C 79.754613 104.779943 57.997911 88.389932 52.853522 117.438621 
C 57.997911 88.389932 79.754613 104.779943 53.252883 117.739472 
" clip-path="url(#p9abea4da68)" style="fill: #020202"/>
    <path d="M 52.319248 117.774021 
L 43.050564 114.624188 
" clip-path="url(#p9abea4da68)" style="fill: #020202"/>
    <path d="M 52.298334 117.859776 
L 30.444421 114.538434 
" clip-path="url(#p9abea4da68)" style="fill: #020202"/>
    <path d="M 52.292658 117.934903 
L 22.234594 117.934903 
" clip-path="url(#p9abea4da68)" style="fill: #020202"/>
    <path d="M 52.298334 118.01003 
L 18.304237 123.176429 
" clip-path="url(#p9abea4da68)" style="fill: #020202"/>
    <path d="M 52.319248 118.095785 
L 22.101644 128.364817 
" clip-path="url(#p9abea4da68)" style="fill: #020202"/>
    <path d="M 52.372248 118.205561 
L 30.370507 132.370164 
" clip-path="url(#p9abea4da68)" style="fill: #020202"/>
    <path d="M 52.507403 118.345548 
L 44.003432 130.587597 
" clip-path="url(#p9abea4da68)" style="fill: #020202"/>
    <path d="M 52.792658 118.434903 
L 52.792658 128.669225 
" clip-path="url(#p9abea4da68)" style="fill: #020202"/>
    <path d="M 42.894417 114.076856 
C 60.373317 90.311773 33.498475 85.869993 42.401109 113.995324 
C 33.498475 85.869993 60.373317 90.311773 42.894417 114.076856 
" clip-path="url(#p9abea4da68)" style="fill: #020202"/>
    <path d="M 42.077154 114.463307 
L 30.450097 114.463307 
" clip-path="url(#p9abea4da68)" style="fill: #020202"/>
    <path d="M 42.082831 114.538434 
L 22.206212 117.559268 
" clip-path="url(#p9abea4da68)" style="fill: #020202"/>
    <path d="M 42.103744 114.624188 
L 18.199669 122.747655 
" clip-path="url(#p9abea4da68)" style="fill: #020202"/>
    <path d="M 42.156745 114.733964 
L 21.836643 127.815937 
" clip-path="url(#p9abea4da68)" style="fill: #020202"/>
    <path d="M 42.291899 114.873952 
L 30.235353 132.230177 
" clip-path="url(#p9abea4da68)" style="fill: #020202"/>
    <path d="M 42.577154 114.963307 
L 42.577154 130.140822 
" clip-path="url(#p9abea4da68)" style="fill: #020202; stroke: #020202; stroke-width: 0.99"/>
    <path d="M 42.86241 114.873952 
L 52.507403 128.758581 
" clip-path="url(#p9abea4da68)" style="fill: #020202"/>
    <path d="M 30.126142 113.995324 
C 39.028777 85.869993 12.153935 90.311773 29.632835 114.076856 
C 12.153935 90.311773 39.028777 85.869993 30.126142 113.995324 
" clip-path="url(#p9abea4da68)" style="fill: #020202"/>
    <path d="M 29.476687 114.624188 
L 22.101644 117.130494 
" clip-path="url(#p9abea4da68)" style="fill: #020202"/>
    <path d="M 29.529688 114.733964 
L 17.934668 122.198776 
" clip-path="url(#p9abea4da68)" style="fill: #020202"/>
    <path d="M 29.664842 114.873952 
L 21.160871 127.116001 
" clip-path="url(#p9abea4da68)" style="fill: #020202"/>
    <path d="M 29.950097 114.963307 
L 29.950097 132.140822 
" clip-path="url(#p9abea4da68)" style="fill: #020202"/>
    <path d="M 30.235353 114.873952 
L 41.150877 130.587597 
" clip-path="url(#p9abea4da68)" style="fill: #020202"/>
    <path d="M 30.370507 114.733964 
L 52.372248 128.898568 
" clip-path="url(#p9abea4da68)" style="fill: #020202"/>
    <path d="M 19.430272 115.453495 
C 14.529341 88.389932 -7.227361 104.779943 17.43347 116.957749 
C -7.227361 104.779943 14.529341 88.389932 19.430272 115.453495 
" clip-path="url(#p9abea4da68)" style="fill: #020202"/>
    <path d="M 18.308316 119.988128 
L 17.258896 121.49884 
" clip-path="url(#p9abea4da68)" style="fill: #020202; stroke: #020202; stroke-width: 0.99"/>
    <path d="M 19.734594 120.434903 
L 19.734594 126.669225 
" clip-path="url(#p9abea4da68)" style="fill: #020202; stroke: #020202; stroke-width: 0.99"/>
    <path d="M 21.160871 119.988128 
L 29.664842 132.230177 
" clip-path="url(#p9abea4da68)" style="fill: #020202"/>
    <path d="M 21.836643 119.288191 
L 40.475105 131.287534 
" clip-path="url(#p9abea4da68)" style="fill: #020202; stroke: #020202; stroke-width: 0.99"/>
    <path d="M 22.101644 118.739312 
L 52.319248 129.008344 
" clip-path="url(#p9abea4da68)" style="fill: #020202"/>
    <path d="M 13.667555 122.302064 
C -10.897577 109.932349 -10.897577 137.171779 13.667555 124.802064 
C -10.897577 137.171779 -10.897577 109.932349 13.667555 122.302064 
" clip-path="url(#p9abea4da68)" style="fill: #020202"/>
    <path d="M 17.258896 125.605289 
L 18.308316 127.116001 
" clip-path="url(#p9abea4da68)" style="fill: #020202; stroke: #020202; stroke-width: 0.99"/>
    <path d="M 17.934668 124.905352 
L 29.529688 132.370164 
" clip-path="url(#p9abea4da68)" style="fill: #020202"/>
    <path d="M 18.199669 124.356473 
L 40.210104 131.836413 
" clip-path="url(#p9abea4da68)" style="fill: #020202; stroke: #020202; stroke-width: 0.99"/>
    <path d="M 18.304237 123.927699 
L 52.298334 129.094099 
" clip-path="url(#p9abea4da68)" style="fill: #020202"/>
    <path d="M 17.43347 130.14638 
C -7.227361 142.324186 14.529341 158.714197 19.430272 131.650634 
C 14.529341 158.714197 -7.227361 142.324186 17.43347 130.14638 
" clip-path="url(#p9abea4da68)" style="fill: #020202"/>
    <path d="M 22.101644 129.973634 
L 29.476687 132.47994 
" clip-path="url(#p9abea4da68)" style="fill: #020202; stroke: #020202; stroke-width: 0.99"/>
    <path d="M 22.206212 129.54486 
L 40.105536 132.265187 
" clip-path="url(#p9abea4da68)" style="fill: #020202"/>
    <path d="M 22.234594 129.169225 
L 52.292658 129.169225 
" clip-path="url(#p9abea4da68)" style="fill: #020202"/>
    <path d="M 29.632835 133.027273 
C 12.153935 156.792356 39.028777 161.234136 30.126142 133.108805 
C 39.028777 161.234136 12.153935 156.792356 29.632835 133.027273 
" clip-path="url(#p9abea4da68)" style="fill: #020202"/>
    <path d="M 30.450097 132.640822 
L 40.077154 132.640822 
" clip-path="url(#p9abea4da68)" style="fill: #020202"/>
    <path d="M 30.444421 132.565695 
L 52.298334 129.244352 
" clip-path="url(#p9abea4da68)" style="fill: #020202"/>
    <path d="M 41.69693 134.980738 
C 33.498475 161.234136 60.373317 156.792356 44.163468 134.573077 
C 60.373317 156.792356 33.498475 161.234136 41.69693 134.980738 
" clip-path="url(#p9abea4da68)" style="fill: #020202"/>
    <path d="M 44.944205 131.836413 
L 52.319248 129.330107 
" clip-path="url(#p9abea4da68)" style="fill: #020202"/>
    <path d="M 52.853522 129.665507 
C 57.997911 158.714197 79.754613 142.324186 53.252883 129.364656 
C 79.754613 142.324186 57.997911 158.714197 52.853522 129.665507 
" clip-path="url(#p9abea4da68)" style="fill: #020202"/>
   </g>
   <g id="VertexCollection_4">
    <path d="M 56.694633 124.052064 
C 56.827235 124.052064 56.954423 123.999381 57.048187 123.905618 
C 57.14195 123.811854 57.194633 123.684666 57.194633 123.552064 
C 57.194633 123.419463 57.14195 123.292274 57.048187 123.198511 
C 56.954423 123.104747 56.827235 123.052064 56.694633 123.052064 
C 56.562032 123.052064 56.434843 123.104747 56.34108 123.198511 
C 56.247316 123.292274 56.194633 123.419463 56.194633 123.552064 
C 56.194633 123.684666 56.247316 123.811854 56.34108 123.905618 
C 56.434843 123.999381 56.562032 124.052064 56.694633 124.052064 
z
" clip-path="url(#p9abea4da68)" style="fill: #bebebe"/>
    <path d="M 52.792658 118.434903 
C 52.92526 118.434903 53.052448 118.38222 53.146212 118.288457 
C 53.239975 118.194693 53.292658 118.067505 53.292658 117.934903 
C 53.292658 117.802302 53.239975 117.675113 53.146212 117.58135 
C 53.052448 117.487586 52.92526 117.434903 52.792658 117.434903 
C 52.660057 117.434903 52.532868 117.487586 52.439105 117.58135 
C 52.345341 117.675113 52.292658 117.802302 52.292658 117.934903 
C 52.292658 118.067505 52.345341 118.194693 52.439105 118.288457 
C 52.532868 118.38222 52.660057 118.434903 52.792658 118.434903 
z
" clip-path="url(#p9abea4da68)" style="fill: #bebebe"/>
    <path d="M 42.577154 114.963307 
C 42.709756 114.963307 42.836944 114.910624 42.930708 114.81686 
C 43.024471 114.723097 43.077154 114.595908 43.077154 114.463307 
C 43.077154 114.330705 43.024471 114.203517 42.930708 114.109753 
C 42.836944 114.01599 42.709756 113.963307 42.577154 113.963307 
C 42.444553 113.963307 42.317364 114.01599 42.223601 114.109753 
C 42.129838 114.203517 42.077154 114.330705 42.077154 114.463307 
C 42.077154 114.595908 42.129838 114.723097 42.223601 114.81686 
C 42.317364 114.910624 42.444553 114.963307 42.577154 114.963307 
z
" clip-path="url(#p9abea4da68)" style="fill: #bebebe"/>
    <path d="M 29.950097 114.963307 
C 30.082699 114.963307 30.209887 114.910624 30.303651 114.81686 
C 30.397414 114.723097 30.450097 114.595908 30.450097 114.463307 
C 30.450097 114.330705 30.397414 114.203517 30.303651 114.109753 
C 30.209887 114.01599 30.082699 113.963307 29.950097 113.963307 
C 29.817496 113.963307 29.690307 114.01599 29.596544 114.109753 
C 29.502781 114.203517 29.450097 114.330705 29.450097 114.463307 
C 29.450097 114.595908 29.502781 114.723097 29.596544 114.81686 
C 29.690307 114.910624 29.817496 114.963307 29.950097 114.963307 
z
" clip-path="url(#p9abea4da68)" style="fill: #bebebe"/>
    <path d="M 19.734594 120.434903 
C 20.397601 120.434903 21.033543 120.171487 21.502361 119.70267 
C 21.971178 119.233853 22.234594 118.597911 22.234594 117.934903 
C 22.234594 117.271895 21.971178 116.635954 21.502361 116.167136 
C 21.033543 115.698319 20.397601 115.434903 19.734594 115.434903 
C 19.071586 115.434903 18.435644 115.698319 17.966827 116.167136 
C 17.498009 116.635954 17.234594 117.271895 17.234594 117.934903 
C 17.234594 118.597911 17.498009 119.233853 17.966827 119.70267 
C 18.435644 120.171487 19.071586 120.434903 19.734594 120.434903 
z
" clip-path="url(#p9abea4da68)" style="fill: #bebebe"/>
    <path d="M 15.832618 126.052064 
C 16.495626 126.052064 17.131568 125.788649 17.600385 125.319831 
C 18.069203 124.851014 18.332618 124.215072 18.332618 123.552064 
C 18.332618 122.889057 18.069203 122.253115 17.600385 121.784297 
C 17.131568 121.31548 16.495626 121.052064 15.832618 121.052064 
C 15.169611 121.052064 14.533669 121.31548 14.064852 121.784297 
C 13.596034 122.253115 13.332618 122.889057 13.332618 123.552064 
C 13.332618 124.215072 13.596034 124.851014 14.064852 125.319831 
C 14.533669 125.788649 15.169611 126.052064 15.832618 126.052064 
z
" clip-path="url(#p9abea4da68)" style="fill: #bebebe"/>
    <path d="M 19.734594 131.669225 
C 20.397601 131.669225 21.033543 131.40581 21.502361 130.936992 
C 21.971178 130.468175 22.234594 129.832233 22.234594 129.169225 
C 22.234594 128.506218 21.971178 127.870276 21.502361 127.401459 
C 21.033543 126.932641 20.397601 126.669225 19.734594 126.669225 
C 19.071586 126.669225 18.435644 126.932641 17.966827 127.401459 
C 17.498009 127.870276 17.234594 128.506218 17.234594 129.169225 
C 17.234594 129.832233 17.498009 130.468175 17.966827 130.936992 
C 18.435644 131.40581 19.071586 131.669225 19.734594 131.669225 
z
" clip-path="url(#p9abea4da68)" style="fill: #bebebe"/>
    <path d="M 29.950097 133.140822 
C 30.082699 133.140822 30.209887 133.088139 30.303651 132.994375 
C 30.397414 132.900612 30.450097 132.773424 30.450097 132.640822 
C 30.450097 132.50822 30.397414 132.381032 30.303651 132.287269 
C 30.209887 132.193505 30.082699 132.140822 29.950097 132.140822 
C 29.817496 132.140822 29.690307 132.193505 29.596544 132.287269 
C 29.502781 132.381032 29.450097 132.50822 29.450097 132.640822 
C 29.450097 132.773424 29.502781 132.900612 29.596544 132.994375 
C 29.690307 133.088139 29.817496 133.140822 29.950097 133.140822 
z
" clip-path="url(#p9abea4da68)" style="fill: #bebebe"/>
    <path d="M 42.577154 135.140822 
C 43.240162 135.140822 43.876104 134.877406 44.344921 134.408589 
C 44.813739 133.939772 45.077154 133.30383 45.077154 132.640822 
C 45.077154 131.977814 44.813739 131.341872 44.344921 130.873055 
C 43.876104 130.404238 43.240162 130.140822 42.577154 130.140822 
C 41.914147 130.140822 41.278205 130.404238 40.809387 130.873055 
C 40.34057 131.341872 40.077154 131.977814 40.077154 132.640822 
C 40.077154 133.30383 40.34057 133.939772 40.809387 134.408589 
C 41.278205 134.877406 41.914147 135.140822 42.577154 135.140822 
z
" clip-path="url(#p9abea4da68)" style="fill: #bebebe"/>
    <path d="M 52.792658 129.669225 
C 52.92526 129.669225 53.052448 129.616542 53.146212 129.522779 
C 53.239975 129.429015 53.292658 129.301827 53.292658 129.169225 
C 53.292658 129.036624 53.239975 128.909436 53.146212 128.815672 
C 53.052448 128.721909 52.92526 128.669225 52.792658 128.669225 
C 52.660057 128.669225 52.532868 128.721909 52.439105 128.815672 
C 52.345341 128.909436 52.292658 129.036624 52.292658 129.169225 
C 52.292658 129.301827 52.345341 129.429015 52.439105 129.522779 
C 52.532868 129.616542 52.660057 129.669225 52.792658 129.669225 
z
" clip-path="url(#p9abea4da68)" style="fill: #bebebe"/>
   </g>
   <g id="matplotlib.axis_7"/>
   <g id="matplotlib.axis_8"/>
  </g>
  <g id="axes_5">
   <g id="patch_6">
    <path d="M 10.8 169.2 
L 61.2 169.2 
L 61.2 146.16 
L 10.8 146.16 
z
" style="fill: #ffffff"/>
   </g>
   <g id="EdgeCollection_5">
    <path d="M 57.127646 157.93 
C 83.424829 171.299715 83.424829 144.060285 57.127646 157.43 
C 83.424829 144.060285 83.424829 171.299715 57.127646 157.93 
" clip-path="url(#p69793ee61d)" style="fill: #020202"/>
    <path d="M 56.403644 157.273398 
L 53.083647 152.634335 
" clip-path="url(#p69793ee61d)" style="fill: #020202; stroke: #020202; stroke-width: 0.99"/>
    <path d="M 56.270614 157.415032 
L 44.697249 150.182885 
" clip-path="url(#p69793ee61d)" style="fill: #020202"/>
    <path d="M 56.219799 157.523371 
L 30.424931 149.014676 
" clip-path="url(#p69793ee61d)" style="fill: #020202"/>
    <path d="M 56.199986 157.607031 
L 22.207828 152.592579 
" clip-path="url(#p69793ee61d)" style="fill: #020202"/>
    <path d="M 56.194633 157.68 
L 18.332618 157.68 
" clip-path="url(#p69793ee61d)" style="fill: #020202"/>
    <path d="M 56.199986 157.752969 
L 20.229241 163.059298 
" clip-path="url(#p69793ee61d)" style="fill: #020202"/>
    <path d="M 56.219799 157.836629 
L 30.424931 166.345324 
" clip-path="url(#p69793ee61d)" style="fill: #020202"/>
    <path d="M 56.270614 157.944968 
L 44.697249 165.177115 
" clip-path="url(#p69793ee61d)" style="fill: #020202"/>
    <path d="M 56.403644 158.086602 
L 53.083647 162.725665 
" clip-path="url(#p69793ee61d)" style="fill: #020202"/>
    <path d="M 53.250605 152.027022 
C 79.601539 138.763563 57.657781 122.624852 52.847811 151.730784 
C 57.657781 122.624852 79.601539 138.763563 53.250605 152.027022 
" clip-path="url(#p69793ee61d)" style="fill: #020202"/>
    <path d="M 52.317824 152.071104 
L 44.951325 149.641191 
" clip-path="url(#p69793ee61d)" style="fill: #020202"/>
    <path d="M 52.298011 152.154764 
L 30.444744 148.931016 
" clip-path="url(#p69793ee61d)" style="fill: #020202"/>
    <path d="M 52.292658 152.227733 
L 22.234594 152.227733 
" clip-path="url(#p69793ee61d)" style="fill: #020202"/>
    <path d="M 52.298011 152.300702 
L 18.305853 157.315154 
" clip-path="url(#p69793ee61d)" style="fill: #020202"/>
    <path d="M 52.317824 152.384362 
L 20.209428 162.975638 
" clip-path="url(#p69793ee61d)" style="fill: #020202"/>
    <path d="M 52.368639 152.492701 
L 30.374116 166.236985 
" clip-path="url(#p69793ee61d)" style="fill: #020202"/>
    <path d="M 52.501669 152.634335 
L 44.032101 164.468943 
" clip-path="url(#p69793ee61d)" style="fill: #020202"/>
    <path d="M 52.792658 152.727733 
L 52.792658 162.632267 
" clip-path="url(#p69793ee61d)" style="fill: #020202"/>
    <path d="M 44.154786 146.918697 
C 60.264816 124.626938 33.370323 120.30574 41.686444 146.522103 
C 33.370323 120.30574 60.264816 124.626938 44.154786 146.918697 
" clip-path="url(#p69793ee61d)" style="fill: #020202"/>
    <path d="M 40.077154 148.858047 
L 30.450097 148.858047 
" clip-path="url(#p69793ee61d)" style="fill: #020202"/>
    <path d="M 40.10392 149.222893 
L 22.207828 151.862887 
" clip-path="url(#p69793ee61d)" style="fill: #020202; stroke: #020202; stroke-width: 0.99"/>
    <path d="M 40.202984 149.641191 
L 18.206789 156.896856 
" clip-path="url(#p69793ee61d)" style="fill: #020202; stroke: #020202; stroke-width: 0.99"/>
    <path d="M 40.457059 150.182885 
L 20.158613 162.867299 
" clip-path="url(#p69793ee61d)" style="fill: #020202"/>
    <path d="M 41.122208 150.891057 
L 30.241087 166.095351 
" clip-path="url(#p69793ee61d)" style="fill: #020202"/>
    <path d="M 42.577154 151.358047 
L 42.577154 164.001953 
" clip-path="url(#p69793ee61d)" style="fill: #020202; stroke: #020202; stroke-width: 0.99"/>
    <path d="M 44.032101 150.891057 
L 52.501669 162.725665 
" clip-path="url(#p69793ee61d)" style="fill: #020202"/>
    <path d="M 30.12824 148.390858 
C 39.156929 120.30574 12.262436 124.626938 29.634571 148.470177 
C 12.262436 124.626938 39.156929 120.30574 30.12824 148.390858 
" clip-path="url(#p69793ee61d)" style="fill: #020202"/>
    <path d="M 29.475263 149.014676 
L 22.108764 151.444589 
" clip-path="url(#p69793ee61d)" style="fill: #020202"/>
    <path d="M 29.526078 149.123015 
L 17.952714 156.355162 
" clip-path="url(#p69793ee61d)" style="fill: #020202"/>
    <path d="M 29.659108 149.264649 
L 20.025583 162.725665 
" clip-path="url(#p69793ee61d)" style="fill: #020202"/>
    <path d="M 29.950097 149.358047 
L 29.950097 166.001953 
" clip-path="url(#p69793ee61d)" style="fill: #020202"/>
    <path d="M 30.241087 149.264649 
L 41.122208 164.468943 
" clip-path="url(#p69793ee61d)" style="fill: #020202"/>
    <path d="M 30.374116 149.123015 
L 52.368639 162.867299 
" clip-path="url(#p69793ee61d)" style="fill: #020202"/>
    <path d="M 19.45883 149.742989 
C 14.869471 122.624852 -7.074288 138.763563 17.44486 151.224179 
C -7.074288 138.763563 14.869471 122.624852 19.45883 149.742989 
" clip-path="url(#p69793ee61d)" style="fill: #020202"/>
    <path d="M 18.279647 154.260743 
L 17.287565 155.64699 
" clip-path="url(#p69793ee61d)" style="fill: #020202; stroke: #020202; stroke-width: 0.99"/>
    <path d="M 19.734594 154.727733 
L 19.734594 162.632267 
" clip-path="url(#p69793ee61d)" style="fill: #020202"/>
    <path d="M 21.18954 154.260743 
L 29.659108 166.095351 
" clip-path="url(#p69793ee61d)" style="fill: #020202"/>
    <path d="M 21.854689 153.552572 
L 40.457059 165.177115 
" clip-path="url(#p69793ee61d)" style="fill: #020202; stroke: #020202; stroke-width: 0.99"/>
    <path d="M 22.108764 153.010877 
L 52.317824 162.975638 
" clip-path="url(#p69793ee61d)" style="fill: #020202"/>
    <path d="M 13.667555 156.43 
C -10.897577 144.060285 -10.897577 171.299715 13.667555 158.93 
C -10.897577 171.299715 -10.897577 144.060285 13.667555 156.43 
" clip-path="url(#p69793ee61d)" style="fill: #020202"/>
    <path d="M 17.287565 159.71301 
L 19.443604 162.725665 
" clip-path="url(#p69793ee61d)" style="fill: #020202"/>
    <path d="M 17.952714 159.004838 
L 29.526078 166.236985 
" clip-path="url(#p69793ee61d)" style="fill: #020202"/>
    <path d="M 18.206789 158.463144 
L 40.202984 165.718809 
" clip-path="url(#p69793ee61d)" style="fill: #020202; stroke: #020202; stroke-width: 0.99"/>
    <path d="M 18.305853 158.044846 
L 52.298011 163.059298 
" clip-path="url(#p69793ee61d)" style="fill: #020202"/>
    <path d="M 19.276647 163.332978 
C -7.074288 176.596437 14.869471 192.735148 19.679441 163.629216 
C 14.869471 192.735148 -7.074288 176.596437 19.276647 163.332978 
" clip-path="url(#p69793ee61d)" style="fill: #020202"/>
    <path d="M 20.209428 163.288896 
L 29.475263 166.345324 
" clip-path="url(#p69793ee61d)" style="fill: #020202"/>
    <path d="M 20.229241 163.205236 
L 40.10392 166.137107 
" clip-path="url(#p69793ee61d)" style="fill: #020202"/>
    <path d="M 20.234594 163.132267 
L 52.292658 163.132267 
" clip-path="url(#p69793ee61d)" style="fill: #020202"/>
    <path d="M 29.634571 166.889823 
C 12.262436 190.733062 39.156929 195.05426 30.12824 166.969142 
C 39.156929 195.05426 12.262436 190.733062 29.634571 166.889823 
" clip-path="url(#p69793ee61d)" style="fill: #020202"/>
    <path d="M 30.450097 166.501953 
L 40.077154 166.501953 
" clip-path="url(#p69793ee61d)" style="fill: #020202"/>
    <path d="M 30.444744 166.428984 
L 52.298011 163.205236 
" clip-path="url(#p69793ee61d)" style="fill: #020202"/>
    <path d="M 41.686444 168.837897 
C 33.370323 195.05426 60.264816 190.733062 44.154786 168.441303 
C 60.264816 190.733062 33.370323 195.05426 41.686444 168.837897 
" clip-path="url(#p69793ee61d)" style="fill: #020202"/>
    <path d="M 44.951325 165.718809 
L 52.317824 163.288896 
" clip-path="url(#p69793ee61d)" style="fill: #020202"/>
    <path d="M 52.847811 163.629216 
C 57.657781 192.735148 79.601539 176.596437 53.250605 163.332978 
C 79.601539 176.596437 57.657781 192.735148 52.847811 163.629216 
" clip-path="url(#p69793ee61d)" style="fill: #020202"/>
   </g>
   <g id="VertexCollection_5">
    <path d="M 56.694633 158.18 
C 56.827235 158.18 56.954423 158.127317 57.048187 158.033553 
C 57.14195 157.93979 57.194633 157.812602 57.194633 157.68 
C 57.194633 157.547398 57.14195 157.42021 57.048187 157.326447 
C 56.954423 157.232683 56.827235 157.18 56.694633 157.18 
C 56.562032 157.18 56.434843 157.232683 56.34108 157.326447 
C 56.247316 157.42021 56.194633 157.547398 56.194633 157.68 
C 56.194633 157.812602 56.247316 157.93979 56.34108 158.033553 
C 56.434843 158.127317 56.562032 158.18 56.694633 158.18 
z
" clip-path="url(#p69793ee61d)" style="fill: #bebebe"/>
    <path d="M 52.792658 152.727733 
C 52.92526 152.727733 53.052448 152.67505 53.146212 152.581286 
C 53.239975 152.487523 53.292658 152.360335 53.292658 152.227733 
C 53.292658 152.095132 53.239975 151.967943 53.146212 151.87418 
C 53.052448 151.780416 52.92526 151.727733 52.792658 151.727733 
C 52.660057 151.727733 52.532868 151.780416 52.439105 151.87418 
C 52.345341 151.967943 52.292658 152.095132 52.292658 152.227733 
C 52.292658 152.360335 52.345341 152.487523 52.439105 152.581286 
C 52.532868 152.67505 52.660057 152.727733 52.792658 152.727733 
z
" clip-path="url(#p69793ee61d)" style="fill: #bebebe"/>
    <path d="M 42.577154 151.358047 
C 43.240162 151.358047 43.876104 151.094631 44.344921 150.625814 
C 44.813739 150.156996 45.077154 149.521055 45.077154 148.858047 
C 45.077154 148.195039 44.813739 147.559097 44.344921 147.09028 
C 43.876104 146.621463 43.240162 146.358047 42.577154 146.358047 
C 41.914147 146.358047 41.278205 146.621463 40.809387 147.09028 
C 40.34057 147.559097 40.077154 148.195039 40.077154 148.858047 
C 40.077154 149.521055 40.34057 150.156996 40.809387 150.625814 
C 41.278205 151.094631 41.914147 151.358047 42.577154 151.358047 
z
" clip-path="url(#p69793ee61d)" style="fill: #bebebe"/>
    <path d="M 29.950097 149.358047 
C 30.082699 149.358047 30.209887 149.305364 30.303651 149.2116 
C 30.397414 149.117837 30.450097 148.990648 30.450097 148.858047 
C 30.450097 148.725445 30.397414 148.598257 30.303651 148.504493 
C 30.209887 148.41073 30.082699 148.358047 29.950097 148.358047 
C 29.817496 148.358047 29.690307 148.41073 29.596544 148.504493 
C 29.502781 148.598257 29.450097 148.725445 29.450097 148.858047 
C 29.450097 148.990648 29.502781 149.117837 29.596544 149.2116 
C 29.690307 149.305364 29.817496 149.358047 29.950097 149.358047 
z
" clip-path="url(#p69793ee61d)" style="fill: #bebebe"/>
    <path d="M 19.734594 154.727733 
C 20.397601 154.727733 21.033543 154.464317 21.502361 153.9955 
C 21.971178 153.526683 22.234594 152.890741 22.234594 152.227733 
C 22.234594 151.564725 21.971178 150.928783 21.502361 150.459966 
C 21.033543 149.991149 20.397601 149.727733 19.734594 149.727733 
C 19.071586 149.727733 18.435644 149.991149 17.966827 150.459966 
C 17.498009 150.928783 17.234594 151.564725 17.234594 152.227733 
C 17.234594 152.890741 17.498009 153.526683 17.966827 153.9955 
C 18.435644 154.464317 19.071586 154.727733 19.734594 154.727733 
z
" clip-path="url(#p69793ee61d)" style="fill: #bebebe"/>
    <path d="M 15.832618 160.18 
C 16.495626 160.18 17.131568 159.916584 17.600385 159.447767 
C 18.069203 158.97895 18.332618 158.343008 18.332618 157.68 
C 18.332618 157.016992 18.069203 156.38105 17.600385 155.912233 
C 17.131568 155.443416 16.495626 155.18 15.832618 155.18 
C 15.169611 155.18 14.533669 155.443416 14.064852 155.912233 
C 13.596034 156.38105 13.332618 157.016992 13.332618 157.68 
C 13.332618 158.343008 13.596034 158.97895 14.064852 159.447767 
C 14.533669 159.916584 15.169611 160.18 15.832618 160.18 
z
" clip-path="url(#p69793ee61d)" style="fill: #bebebe"/>
    <path d="M 19.734594 163.632267 
C 19.867195 163.632267 19.994384 163.579584 20.088147 163.48582 
C 20.181911 163.392057 20.234594 163.264868 20.234594 163.132267 
C 20.234594 162.999665 20.181911 162.872477 20.088147 162.778714 
C 19.994384 162.68495 19.867195 162.632267 19.734594 162.632267 
C 19.601992 162.632267 19.474804 162.68495 19.38104 162.778714 
C 19.287277 162.872477 19.234594 162.999665 19.234594 163.132267 
C 19.234594 163.264868 19.287277 163.392057 19.38104 163.48582 
C 19.474804 163.579584 19.601992 163.632267 19.734594 163.632267 
z
" clip-path="url(#p69793ee61d)" style="fill: #bebebe"/>
    <path d="M 29.950097 167.001953 
C 30.082699 167.001953 30.209887 166.94927 30.303651 166.855507 
C 30.397414 166.761743 30.450097 166.634555 30.450097 166.501953 
C 30.450097 166.369352 30.397414 166.242163 30.303651 166.1484 
C 30.209887 166.054636 30.082699 166.001953 29.950097 166.001953 
C 29.817496 166.001953 29.690307 166.054636 29.596544 166.1484 
C 29.502781 166.242163 29.450097 166.369352 29.450097 166.501953 
C 29.450097 166.634555 29.502781 166.761743 29.596544 166.855507 
C 29.690307 166.94927 29.817496 167.001953 29.950097 167.001953 
z
" clip-path="url(#p69793ee61d)" style="fill: #bebebe"/>
    <path d="M 42.577154 169.001953 
C 43.240162 169.001953 43.876104 168.738537 44.344921 168.26972 
C 44.813739 167.800903 45.077154 167.164961 45.077154 166.501953 
C 45.077154 165.838945 44.813739 165.203004 44.344921 164.734186 
C 43.876104 164.265369 43.240162 164.001953 42.577154 164.001953 
C 41.914147 164.001953 41.278205 164.265369 40.809387 164.734186 
C 40.34057 165.203004 40.077154 165.838945 40.077154 166.501953 
C 40.077154 167.164961 40.34057 167.800903 40.809387 168.26972 
C 41.278205 168.738537 41.914147 169.001953 42.577154 169.001953 
z
" clip-path="url(#p69793ee61d)" style="fill: #bebebe"/>
    <path d="M 52.792658 163.632267 
C 52.92526 163.632267 53.052448 163.579584 53.146212 163.48582 
C 53.239975 163.392057 53.292658 163.264868 53.292658 163.132267 
C 53.292658 162.999665 53.239975 162.872477 53.146212 162.778714 
C 53.052448 162.68495 52.92526 162.632267 52.792658 162.632267 
C 52.660057 162.632267 52.532868 162.68495 52.439105 162.778714 
C 52.345341 162.872477 52.292658 162.999665 52.292658 163.132267 
C 52.292658 163.264868 52.345341 163.392057 52.439105 163.48582 
C 52.532868 163.579584 52.660057 163.632267 52.792658 163.632267 
z
" clip-path="url(#p69793ee61d)" style="fill: #bebebe"/>
   </g>
   <g id="matplotlib.axis_9"/>
   <g id="matplotlib.axis_10"/>
  </g>
 </g>
 <defs>
  <clipPath id="p563506c083">
   <rect x="10.8" y="10.8" width="50.4" height="23.04"/>
  </clipPath>
  <clipPath id="pc98b562355">
   <rect x="10.8" y="44.64" width="50.4" height="23.04"/>
  </clipPath>
  <clipPath id="p7db12a35e3">
   <rect x="10.8" y="78.48" width="50.4" height="23.04"/>
  </clipPath>
  <clipPath id="p9abea4da68">
   <rect x="10.8" y="112.32" width="50.4" height="23.04"/>
  </clipPath>
  <clipPath id="p69793ee61d">
   <rect x="10.8" y="146.16" width="50.4" height="23.04"/>
  </clipPath>
 </defs>
</svg>
