<?xml version="1.0" encoding="utf-8" standalone="no"?>
<!DOCTYPE svg PUBLIC "-//W3C//DTD SVG 1.1//EN"
  "http://www.w3.org/Graphics/SVG/1.1/DTD/svg11.dtd">
<svg xmlns:xlink="http://www.w3.org/1999/xlink" width="72pt" height="180pt" viewBox="0 0 72 180" xmlns="http://www.w3.org/2000/svg" version="1.1">
 <metadata>
  <rdf:RDF xmlns:dc="http://purl.org/dc/elements/1.1/" xmlns:cc="http://creativecommons.org/ns#" xmlns:rdf="http://www.w3.org/1999/02/22-rdf-syntax-ns#">
   <cc:Work>
    <dc:type rdf:resource="http://purl.org/dc/dcmitype/StillImage"/>
    <dc:date>2025-06-06T13:44:47.655041</dc:date>
    <dc:format>image/svg+xml</dc:format>
    <dc:creator>
     <cc:Agent>
      <dc:title>Matplotlib v3.9.2, https://matplotlib.org/</dc:title>
     </cc:Agent>
    </dc:creator>
   </cc:Work>
  </rdf:RDF>
 </metadata>
 <defs>
  <style type="text/css">*{stroke-linejoin: round; stroke-linecap: butt}</style>
 </defs>
 <g id="figure_1">
  <g id="patch_1">
   <path d="M 0 180 
L 72 180 
L 72 0 
L 0 0 
z
" style="fill: #ffffff"/>
  </g>
  <g id="axes_1">
   <g id="patch_2">
    <path d="M 10.8 33.84 
L 61.2 33.84 
L 61.2 10.8 
L 10.8 10.8 
z
" style="fill: #ffffff"/>
   </g>
   <g id="EdgeCollection_1">
    <path d="M 57.125956 22.282064 
C 83.423139 35.651779 83.423139 8.412349 57.125956 21.782064 
C 83.423139 8.412349 83.423139 35.651779 57.125956 22.282064 
" clip-path="url(#p632b468435)" style="fill: #020202"/>
    <path d="M 56.405236 21.623133 
L 53.02865 16.823834 
" clip-path="url(#p632b468435)" style="fill: #020202"/>
    <path d="M 56.270975 21.763842 
L 42.816439 13.211529 
" clip-path="url(#p632b468435)" style="fill: #020202; stroke: #020202; stroke-width: 0.99"/>
    <path d="M 56.218916 21.873012 
L 30.079557 13.102359 
" clip-path="url(#p632b468435)" style="fill: #020202"/>
    <path d="M 56.198479 21.957867 
L 19.753521 16.4891 
" clip-path="url(#p632b468435)" style="fill: #020202"/>
    <path d="M 56.192943 22.032064 
L 15.807057 22.032064 
" clip-path="url(#p632b468435)" style="fill: #020202"/>
    <path d="M 56.198479 22.106261 
L 19.753521 27.575028 
" clip-path="url(#p632b468435)" style="fill: #020202"/>
    <path d="M 56.218916 22.191117 
L 31.975667 30.325559 
" clip-path="url(#p632b468435)" style="fill: #020202"/>
    <path d="M 56.270975 22.300286 
L 44.504311 29.779712 
" clip-path="url(#p632b468435)" style="fill: #020202; stroke: #020202; stroke-width: 0.99"/>
    <path d="M 56.405236 22.440996 
L 53.02865 27.240294 
" clip-path="url(#p632b468435)" style="fill: #020202"/>
    <path d="M 53.2002 16.21721 
C 79.637826 3.127403 57.800721 -13.155329 52.799364 15.918328 
C 57.800721 -13.155329 79.637826 3.127403 53.2002 16.21721 
" clip-path="url(#p632b468435)" style="fill: #020202"/>
    <path d="M 52.266915 16.255851 
L 42.868499 13.102359 
" clip-path="url(#p632b468435)" style="fill: #020202"/>
    <path d="M 52.246479 16.340706 
L 30.099993 13.017504 
" clip-path="url(#p632b468435)" style="fill: #020202"/>
    <path d="M 52.240943 16.414903 
L 19.759057 16.414903 
" clip-path="url(#p632b468435)" style="fill: #020202"/>
    <path d="M 52.246479 16.4891 
L 15.801521 21.957867 
" clip-path="url(#p632b468435)" style="fill: #020202"/>
    <path d="M 52.266915 16.573956 
L 19.733085 27.490173 
" clip-path="url(#p632b468435)" style="fill: #020202"/>
    <path d="M 52.318975 16.683125 
L 31.715369 29.779712 
" clip-path="url(#p632b468435)" style="fill: #020202"/>
    <path d="M 52.453236 16.823834 
L 43.833006 29.076166 
" clip-path="url(#p632b468435)" style="fill: #020202"/>
    <path d="M 52.740943 16.914903 
L 52.740943 27.149225 
" clip-path="url(#p632b468435)" style="fill: #020202"/>
    <path d="M 42.710987 12.556244 
C 60.143971 -11.242541 33.260604 -15.632425 42.217523 12.475664 
C 33.260604 -15.632425 60.143971 -11.242541 42.710987 12.556244 
" clip-path="url(#p632b468435)" style="fill: #020202"/>
    <path d="M 41.894471 12.943307 
L 30.105529 12.943307 
" clip-path="url(#p632b468435)" style="fill: #020202; stroke: #020202; stroke-width: 0.99"/>
    <path d="M 41.900007 13.017504 
L 19.753521 16.340706 
" clip-path="url(#p632b468435)" style="fill: #020202"/>
    <path d="M 41.920443 13.102359 
L 15.781084 21.873012 
" clip-path="url(#p632b468435)" style="fill: #020202"/>
    <path d="M 41.972503 13.211529 
L 19.681025 27.381004 
" clip-path="url(#p632b468435)" style="fill: #020202"/>
    <path d="M 42.106764 13.352238 
L 31.044064 29.076166 
" clip-path="url(#p632b468435)" style="fill: #020202"/>
    <path d="M 42.394471 13.443307 
L 42.394471 28.620822 
" clip-path="url(#p632b468435)" style="fill: #020202"/>
    <path d="M 42.682178 13.352238 
L 52.453236 27.240294 
" clip-path="url(#p632b468435)" style="fill: #020202"/>
    <path d="M 29.782477 12.475664 
C 38.739396 -15.632425 11.856029 -11.242541 29.289013 12.556244 
C 11.856029 -11.242541 38.739396 -15.632425 29.782477 12.475664 
" clip-path="url(#p632b468435)" style="fill: #020202"/>
    <path d="M 29.131501 13.102359 
L 19.733085 16.255851 
" clip-path="url(#p632b468435)" style="fill: #020202"/>
    <path d="M 29.183561 13.211529 
L 15.729025 21.763842 
" clip-path="url(#p632b468435)" style="fill: #020202"/>
    <path d="M 29.317822 13.352238 
L 19.546764 27.240294 
" clip-path="url(#p632b468435)" style="fill: #020202"/>
    <path d="M 29.605529 13.443307 
L 29.605529 28.620822 
" clip-path="url(#p632b468435)" style="fill: #020202"/>
    <path d="M 29.893236 13.352238 
L 40.955936 29.076166 
" clip-path="url(#p632b468435)" style="fill: #020202"/>
    <path d="M 30.027497 13.211529 
L 52.318975 27.381004 
" clip-path="url(#p632b468435)" style="fill: #020202"/>
    <path d="M 19.200636 15.918328 
C 14.199279 -13.155329 -7.637826 3.127403 18.7998 16.21721 
C -7.637826 3.127403 14.199279 -13.155329 19.200636 15.918328 
" clip-path="url(#p632b468435)" style="fill: #020202"/>
    <path d="M 18.97135 16.823834 
L 15.594764 21.623133 
" clip-path="url(#p632b468435)" style="fill: #020202"/>
    <path d="M 19.259057 16.914903 
L 19.259057 27.149225 
" clip-path="url(#p632b468435)" style="fill: #020202"/>
    <path d="M 19.546764 16.823834 
L 28.166994 29.076166 
" clip-path="url(#p632b468435)" style="fill: #020202"/>
    <path d="M 19.681025 16.683125 
L 40.284631 29.779712 
" clip-path="url(#p632b468435)" style="fill: #020202"/>
    <path d="M 19.733085 16.573956 
L 52.266915 27.490173 
" clip-path="url(#p632b468435)" style="fill: #020202"/>
    <path d="M 14.874044 21.782064 
C -11.423139 8.412349 -11.423139 35.651779 14.874044 22.282064 
C -11.423139 35.651779 -11.423139 8.412349 14.874044 21.782064 
" clip-path="url(#p632b468435)" style="fill: #020202"/>
    <path d="M 15.594764 22.440996 
L 18.97135 27.240294 
" clip-path="url(#p632b468435)" style="fill: #020202"/>
    <path d="M 15.729025 22.300286 
L 27.495689 29.779712 
" clip-path="url(#p632b468435)" style="fill: #020202; stroke: #020202; stroke-width: 0.99"/>
    <path d="M 15.781084 22.191117 
L 40.024333 30.325559 
" clip-path="url(#p632b468435)" style="fill: #020202"/>
    <path d="M 15.801521 22.106261 
L 52.246479 27.575028 
" clip-path="url(#p632b468435)" style="fill: #020202"/>
    <path d="M 18.7998 27.846919 
C -7.637826 40.936726 14.199279 57.219458 19.200636 28.145801 
C 14.199279 57.219458 -7.637826 40.936726 18.7998 27.846919 
" clip-path="url(#p632b468435)" style="fill: #020202"/>
    <path d="M 19.733085 27.808278 
L 27.23539 30.325559 
" clip-path="url(#p632b468435)" style="fill: #020202; stroke: #020202; stroke-width: 0.99"/>
    <path d="M 19.753521 27.723423 
L 39.92215 30.749837 
" clip-path="url(#p632b468435)" style="fill: #020202; stroke: #020202; stroke-width: 0.99"/>
    <path d="M 19.759057 27.649225 
L 52.240943 27.649225 
" clip-path="url(#p632b468435)" style="fill: #020202"/>
    <path d="M 28.022948 33.056136 
C 11.856029 55.30667 38.739396 59.696554 30.490269 33.459034 
C 38.739396 59.696554 11.856029 55.30667 28.022948 33.056136 
" clip-path="url(#p632b468435)" style="fill: #020202"/>
    <path d="M 32.105529 31.120822 
L 39.894471 31.120822 
" clip-path="url(#p632b468435)" style="fill: #020202; stroke: #020202; stroke-width: 0.99"/>
    <path d="M 32.07785 30.749837 
L 52.246479 27.723423 
" clip-path="url(#p632b468435)" style="fill: #020202"/>
    <path d="M 41.509731 33.459034 
C 33.260604 59.696554 60.143971 55.30667 43.977052 33.056136 
C 60.143971 55.30667 33.260604 59.696554 41.509731 33.459034 
" clip-path="url(#p632b468435)" style="fill: #020202"/>
    <path d="M 44.76461 30.325559 
L 52.266915 27.808278 
" clip-path="url(#p632b468435)" style="fill: #020202"/>
    <path d="M 52.799364 28.145801 
C 57.800721 57.219458 79.637826 40.936726 53.2002 27.846919 
C 79.637826 40.936726 57.800721 57.219458 52.799364 28.145801 
" clip-path="url(#p632b468435)" style="fill: #020202"/>
   </g>
   <g id="VertexCollection_1">
    <path d="M 56.692943 22.532064 
C 56.825545 22.532064 56.952733 22.479381 57.046497 22.385618 
C 57.14026 22.291854 57.192943 22.164666 57.192943 22.032064 
C 57.192943 21.899463 57.14026 21.772274 57.046497 21.678511 
C 56.952733 21.584747 56.825545 21.532064 56.692943 21.532064 
C 56.560342 21.532064 56.433153 21.584747 56.33939 21.678511 
C 56.245627 21.772274 56.192943 21.899463 56.192943 22.032064 
C 56.192943 22.164666 56.245627 22.291854 56.33939 22.385618 
C 56.433153 22.479381 56.560342 22.532064 56.692943 22.532064 
z
" clip-path="url(#p632b468435)" style="fill: #bebebe"/>
    <path d="M 52.740943 16.914903 
C 52.873544 16.914903 53.000733 16.86222 53.094496 16.768457 
C 53.18826 16.674693 53.240943 16.547505 53.240943 16.414903 
C 53.240943 16.282302 53.18826 16.155113 53.094496 16.06135 
C 53.000733 15.967586 52.873544 15.914903 52.740943 15.914903 
C 52.608341 15.914903 52.481153 15.967586 52.38739 16.06135 
C 52.293626 16.155113 52.240943 16.282302 52.240943 16.414903 
C 52.240943 16.547505 52.293626 16.674693 52.38739 16.768457 
C 52.481153 16.86222 52.608341 16.914903 52.740943 16.914903 
z
" clip-path="url(#p632b468435)" style="fill: #bebebe"/>
    <path d="M 42.394471 13.443307 
C 42.527073 13.443307 42.654261 13.390624 42.748025 13.29686 
C 42.841788 13.203097 42.894471 13.075908 42.894471 12.943307 
C 42.894471 12.810705 42.841788 12.683517 42.748025 12.589753 
C 42.654261 12.49599 42.527073 12.443307 42.394471 12.443307 
C 42.26187 12.443307 42.134681 12.49599 42.040918 12.589753 
C 41.947154 12.683517 41.894471 12.810705 41.894471 12.943307 
C 41.894471 13.075908 41.947154 13.203097 42.040918 13.29686 
C 42.134681 13.390624 42.26187 13.443307 42.394471 13.443307 
z
" clip-path="url(#p632b468435)" style="fill: #bebebe"/>
    <path d="M 29.605529 13.443307 
C 29.73813 13.443307 29.865319 13.390624 29.959082 13.29686 
C 30.052846 13.203097 30.105529 13.075908 30.105529 12.943307 
C 30.105529 12.810705 30.052846 12.683517 29.959082 12.589753 
C 29.865319 12.49599 29.73813 12.443307 29.605529 12.443307 
C 29.472927 12.443307 29.345739 12.49599 29.251975 12.589753 
C 29.158212 12.683517 29.105529 12.810705 29.105529 12.943307 
C 29.105529 13.075908 29.158212 13.203097 29.251975 13.29686 
C 29.345739 13.390624 29.472927 13.443307 29.605529 13.443307 
z
" clip-path="url(#p632b468435)" style="fill: #bebebe"/>
    <path d="M 19.259057 16.914903 
C 19.391659 16.914903 19.518847 16.86222 19.61261 16.768457 
C 19.706374 16.674693 19.759057 16.547505 19.759057 16.414903 
C 19.759057 16.282302 19.706374 16.155113 19.61261 16.06135 
C 19.518847 15.967586 19.391659 15.914903 19.259057 15.914903 
C 19.126456 15.914903 18.999267 15.967586 18.905504 16.06135 
C 18.81174 16.155113 18.759057 16.282302 18.759057 16.414903 
C 18.759057 16.547505 18.81174 16.674693 18.905504 16.768457 
C 18.999267 16.86222 19.126456 16.914903 19.259057 16.914903 
z
" clip-path="url(#p632b468435)" style="fill: #bebebe"/>
    <path d="M 15.307057 22.532064 
C 15.439658 22.532064 15.566847 22.479381 15.66061 22.385618 
C 15.754373 22.291854 15.807057 22.164666 15.807057 22.032064 
C 15.807057 21.899463 15.754373 21.772274 15.66061 21.678511 
C 15.566847 21.584747 15.439658 21.532064 15.307057 21.532064 
C 15.174455 21.532064 15.047267 21.584747 14.953503 21.678511 
C 14.85974 21.772274 14.807057 21.899463 14.807057 22.032064 
C 14.807057 22.164666 14.85974 22.291854 14.953503 22.385618 
C 15.047267 22.479381 15.174455 22.532064 15.307057 22.532064 
z
" clip-path="url(#p632b468435)" style="fill: #bebebe"/>
    <path d="M 19.259057 28.149225 
C 19.391659 28.149225 19.518847 28.096542 19.61261 28.002779 
C 19.706374 27.909015 19.759057 27.781827 19.759057 27.649225 
C 19.759057 27.516624 19.706374 27.389436 19.61261 27.295672 
C 19.518847 27.201909 19.391659 27.149225 19.259057 27.149225 
C 19.126456 27.149225 18.999267 27.201909 18.905504 27.295672 
C 18.81174 27.389436 18.759057 27.516624 18.759057 27.649225 
C 18.759057 27.781827 18.81174 27.909015 18.905504 28.002779 
C 18.999267 28.096542 19.126456 28.149225 19.259057 28.149225 
z
" clip-path="url(#p632b468435)" style="fill: #bebebe"/>
    <path d="M 29.605529 33.620822 
C 30.268537 33.620822 30.904478 33.357406 31.373296 32.888589 
C 31.842113 32.419772 32.105529 31.78383 32.105529 31.120822 
C 32.105529 30.457814 31.842113 29.821872 31.373296 29.353055 
C 30.904478 28.884238 30.268537 28.620822 29.605529 28.620822 
C 28.942521 28.620822 28.306579 28.884238 27.837762 29.353055 
C 27.368945 29.821872 27.105529 30.457814 27.105529 31.120822 
C 27.105529 31.78383 27.368945 32.419772 27.837762 32.888589 
C 28.306579 33.357406 28.942521 33.620822 29.605529 33.620822 
z
" clip-path="url(#p632b468435)" style="fill: #bebebe"/>
    <path d="M 42.394471 33.620822 
C 43.057479 33.620822 43.693421 33.357406 44.162238 32.888589 
C 44.631055 32.419772 44.894471 31.78383 44.894471 31.120822 
C 44.894471 30.457814 44.631055 29.821872 44.162238 29.353055 
C 43.693421 28.884238 43.057479 28.620822 42.394471 28.620822 
C 41.731463 28.620822 41.095522 28.884238 40.626704 29.353055 
C 40.157887 29.821872 39.894471 30.457814 39.894471 31.120822 
C 39.894471 31.78383 40.157887 32.419772 40.626704 32.888589 
C 41.095522 33.357406 41.731463 33.620822 42.394471 33.620822 
z
" clip-path="url(#p632b468435)" style="fill: #bebebe"/>
    <path d="M 52.740943 28.149225 
C 52.873544 28.149225 53.000733 28.096542 53.094496 28.002779 
C 53.18826 27.909015 53.240943 27.781827 53.240943 27.649225 
C 53.240943 27.516624 53.18826 27.389436 53.094496 27.295672 
C 53.000733 27.201909 52.873544 27.149225 52.740943 27.149225 
C 52.608341 27.149225 52.481153 27.201909 52.38739 27.295672 
C 52.293626 27.389436 52.240943 27.516624 52.240943 27.649225 
C 52.240943 27.781827 52.293626 27.909015 52.38739 28.002779 
C 52.481153 28.096542 52.608341 28.149225 52.740943 28.149225 
z
" clip-path="url(#p632b468435)" style="fill: #bebebe"/>
   </g>
   <g id="matplotlib.axis_1"/>
   <g id="matplotlib.axis_2"/>
  </g>
  <g id="axes_2">
   <g id="patch_3">
    <path d="M 10.8 67.68 
L 61.2 67.68 
L 61.2 44.64 
L 10.8 44.64 
z
" style="fill: #ffffff"/>
   </g>
   <g id="EdgeCollection_2">
    <path d="M 58.332445 57.122064 
C 82.897577 69.491779 82.897577 42.252349 58.332445 54.622064 
C 82.897577 42.252349 82.897577 69.491779 58.332445 57.122064 
" clip-path="url(#p3ce2423845)" style="fill: #020202"/>
    <path d="M 54.741104 53.81884 
L 52.550662 50.665548 
" clip-path="url(#p3ce2423845)" style="fill: #020202"/>
    <path d="M 54.065332 54.518776 
L 42.470312 47.053964 
" clip-path="url(#p3ce2423845)" style="fill: #020202; stroke: #020202; stroke-width: 0.99"/>
    <path d="M 53.800331 55.067655 
L 29.896256 46.944188 
" clip-path="url(#p3ce2423845)" style="fill: #020202"/>
    <path d="M 53.695763 55.496429 
L 19.701666 50.33003 
" clip-path="url(#p3ce2423845)" style="fill: #020202"/>
    <path d="M 53.667382 55.872064 
L 15.805367 55.872064 
" clip-path="url(#p3ce2423845)" style="fill: #020202"/>
    <path d="M 53.695763 56.247699 
L 21.67896 61.113591 
" clip-path="url(#p3ce2423845)" style="fill: #020202; stroke: #020202; stroke-width: 0.99"/>
    <path d="M 53.800331 56.676473 
L 31.789896 64.156413 
" clip-path="url(#p3ce2423845)" style="fill: #020202"/>
    <path d="M 54.065332 57.225352 
L 44.151952 63.607534 
" clip-path="url(#p3ce2423845)" style="fill: #020202; stroke: #020202; stroke-width: 0.99"/>
    <path d="M 54.741104 57.925289 
L 52.550662 61.078581 
" clip-path="url(#p3ce2423845)" style="fill: #020202"/>
    <path d="M 52.725631 50.059472 
C 79.227361 37.099943 57.470659 20.709932 52.326271 49.758621 
C 57.470659 20.709932 79.227361 37.099943 52.725631 50.059472 
" clip-path="url(#p3ce2423845)" style="fill: #020202"/>
    <path d="M 51.791996 50.094021 
L 42.523313 46.944188 
" clip-path="url(#p3ce2423845)" style="fill: #020202"/>
    <path d="M 51.771083 50.179776 
L 29.917169 46.858434 
" clip-path="url(#p3ce2423845)" style="fill: #020202; stroke: #020202; stroke-width: 0.99"/>
    <path d="M 51.765406 50.254903 
L 19.707342 50.254903 
" clip-path="url(#p3ce2423845)" style="fill: #020202"/>
    <path d="M 51.771083 50.33003 
L 15.79969 55.796937 
" clip-path="url(#p3ce2423845)" style="fill: #020202"/>
    <path d="M 51.791996 50.415785 
L 21.574392 60.684817 
" clip-path="url(#p3ce2423845)" style="fill: #020202"/>
    <path d="M 51.844996 50.525561 
L 31.524895 63.607534 
" clip-path="url(#p3ce2423845)" style="fill: #020202"/>
    <path d="M 51.980151 50.665548 
L 43.47618 62.907597 
" clip-path="url(#p3ce2423845)" style="fill: #020202"/>
    <path d="M 52.265406 50.754903 
L 52.265406 60.989225 
" clip-path="url(#p3ce2423845)" style="fill: #020202"/>
    <path d="M 42.367165 46.396856 
C 59.846065 22.631773 32.971223 18.189993 41.873858 46.315324 
C 32.971223 18.189993 59.846065 22.631773 42.367165 46.396856 
" clip-path="url(#p3ce2423845)" style="fill: #020202"/>
    <path d="M 41.549903 46.783307 
L 29.922846 46.783307 
" clip-path="url(#p3ce2423845)" style="fill: #020202; stroke: #020202; stroke-width: 0.99"/>
    <path d="M 41.555579 46.858434 
L 19.701666 50.179776 
" clip-path="url(#p3ce2423845)" style="fill: #020202"/>
    <path d="M 41.576493 46.944188 
L 15.778777 55.711183 
" clip-path="url(#p3ce2423845)" style="fill: #020202"/>
    <path d="M 41.629493 47.053964 
L 21.309391 60.135937 
" clip-path="url(#p3ce2423845)" style="fill: #020202"/>
    <path d="M 41.764647 47.193952 
L 30.849123 62.907597 
" clip-path="url(#p3ce2423845)" style="fill: #020202"/>
    <path d="M 42.049903 47.283307 
L 42.049903 62.460822 
" clip-path="url(#p3ce2423845)" style="fill: #020202"/>
    <path d="M 42.335158 47.193952 
L 51.980151 61.078581 
" clip-path="url(#p3ce2423845)" style="fill: #020202"/>
    <path d="M 29.598891 46.315324 
C 38.501525 18.189993 11.626683 22.631773 29.105583 46.396856 
C 11.626683 22.631773 38.501525 18.189993 29.598891 46.315324 
" clip-path="url(#p3ce2423845)" style="fill: #020202"/>
    <path d="M 28.949436 46.944188 
L 19.680752 50.094021 
" clip-path="url(#p3ce2423845)" style="fill: #020202"/>
    <path d="M 29.002436 47.053964 
L 15.725777 55.601407 
" clip-path="url(#p3ce2423845)" style="fill: #020202"/>
    <path d="M 29.13759 47.193952 
L 20.63362 59.436001 
" clip-path="url(#p3ce2423845)" style="fill: #020202"/>
    <path d="M 29.422846 47.283307 
L 29.422846 62.460822 
" clip-path="url(#p3ce2423845)" style="fill: #020202"/>
    <path d="M 29.708101 47.193952 
L 40.623625 62.907597 
" clip-path="url(#p3ce2423845)" style="fill: #020202"/>
    <path d="M 29.843255 47.053964 
L 51.844996 61.218568 
" clip-path="url(#p3ce2423845)" style="fill: #020202"/>
    <path d="M 19.146478 49.758621 
C 14.002089 20.709932 -7.754613 37.099943 18.747117 50.059472 
C -7.754613 37.099943 14.002089 20.709932 19.146478 49.758621 
" clip-path="url(#p3ce2423845)" style="fill: #020202"/>
    <path d="M 18.922086 50.665548 
L 15.590622 55.461419 
" clip-path="url(#p3ce2423845)" style="fill: #020202"/>
    <path d="M 19.207342 50.754903 
L 19.207342 58.989225 
" clip-path="url(#p3ce2423845)" style="fill: #020202"/>
    <path d="M 19.492597 50.665548 
L 27.996568 62.907597 
" clip-path="url(#p3ce2423845)" style="fill: #020202"/>
    <path d="M 19.627752 50.525561 
L 39.947853 63.607534 
" clip-path="url(#p3ce2423845)" style="fill: #020202"/>
    <path d="M 19.680752 50.415785 
L 51.791996 61.328344 
" clip-path="url(#p3ce2423845)" style="fill: #020202"/>
    <path d="M 14.872354 55.622064 
C -11.424829 42.252349 -11.424829 69.491779 14.872354 56.122064 
C -11.424829 69.491779 -11.424829 42.252349 14.872354 55.622064 
" clip-path="url(#p3ce2423845)" style="fill: #020202"/>
    <path d="M 15.590622 56.282709 
L 17.781064 59.436001 
" clip-path="url(#p3ce2423845)" style="fill: #020202"/>
    <path d="M 15.725777 56.142722 
L 27.320796 63.607534 
" clip-path="url(#p3ce2423845)" style="fill: #020202"/>
    <path d="M 15.778777 56.032946 
L 39.682853 64.156413 
" clip-path="url(#p3ce2423845)" style="fill: #020202"/>
    <path d="M 15.79969 55.947191 
L 51.771083 61.414099 
" clip-path="url(#p3ce2423845)" style="fill: #020202; stroke: #020202; stroke-width: 0.99"/>
    <path d="M 16.906218 62.46638 
C -7.754613 74.644186 14.002089 91.034197 18.903021 63.970634 
C 14.002089 91.034197 -7.754613 74.644186 16.906218 62.46638 
" clip-path="url(#p3ce2423845)" style="fill: #020202"/>
    <path d="M 21.574392 62.293634 
L 27.055795 64.156413 
" clip-path="url(#p3ce2423845)" style="fill: #020202; stroke: #020202; stroke-width: 0.99"/>
    <path d="M 21.67896 61.86486 
L 39.578284 64.585187 
" clip-path="url(#p3ce2423845)" style="fill: #020202; stroke: #020202; stroke-width: 0.99"/>
    <path d="M 21.707342 61.489225 
L 51.765406 61.489225 
" clip-path="url(#p3ce2423845)" style="fill: #020202"/>
    <path d="M 27.836532 66.893077 
C 11.626683 89.112356 38.501525 93.554136 30.30307 67.300738 
C 38.501525 93.554136 11.626683 89.112356 27.836532 66.893077 
" clip-path="url(#p3ce2423845)" style="fill: #020202"/>
    <path d="M 31.922846 64.960822 
L 39.549903 64.960822 
" clip-path="url(#p3ce2423845)" style="fill: #020202; stroke: #020202; stroke-width: 0.99"/>
    <path d="M 31.894464 64.585187 
L 51.771083 61.564352 
" clip-path="url(#p3ce2423845)" style="fill: #020202; stroke: #020202; stroke-width: 0.99"/>
    <path d="M 41.169678 67.300738 
C 32.971223 93.554136 59.846065 89.112356 43.636217 66.893077 
C 59.846065 89.112356 32.971223 93.554136 41.169678 67.300738 
" clip-path="url(#p3ce2423845)" style="fill: #020202"/>
    <path d="M 44.416953 64.156413 
L 51.791996 61.650107 
" clip-path="url(#p3ce2423845)" style="fill: #020202"/>
    <path d="M 52.326271 61.985507 
C 57.470659 91.034197 79.227361 74.644186 52.725631 61.684656 
C 79.227361 74.644186 57.470659 91.034197 52.326271 61.985507 
" clip-path="url(#p3ce2423845)" style="fill: #020202"/>
   </g>
   <g id="VertexCollection_2">
    <path d="M 56.167382 58.372064 
C 56.830389 58.372064 57.466331 58.108649 57.935148 57.639831 
C 58.403966 57.171014 58.667382 56.535072 58.667382 55.872064 
C 58.667382 55.209057 58.403966 54.573115 57.935148 54.104297 
C 57.466331 53.63548 56.830389 53.372064 56.167382 53.372064 
C 55.504374 53.372064 54.868432 53.63548 54.399615 54.104297 
C 53.930797 54.573115 53.667382 55.209057 53.667382 55.872064 
C 53.667382 56.535072 53.930797 57.171014 54.399615 57.639831 
C 54.868432 58.108649 55.504374 58.372064 56.167382 58.372064 
z
" clip-path="url(#p3ce2423845)" style="fill: #bebebe"/>
    <path d="M 52.265406 50.754903 
C 52.398008 50.754903 52.525196 50.70222 52.61896 50.608457 
C 52.712723 50.514693 52.765406 50.387505 52.765406 50.254903 
C 52.765406 50.122302 52.712723 49.995113 52.61896 49.90135 
C 52.525196 49.807586 52.398008 49.754903 52.265406 49.754903 
C 52.132805 49.754903 52.005616 49.807586 51.911853 49.90135 
C 51.818089 49.995113 51.765406 50.122302 51.765406 50.254903 
C 51.765406 50.387505 51.818089 50.514693 51.911853 50.608457 
C 52.005616 50.70222 52.132805 50.754903 52.265406 50.754903 
z
" clip-path="url(#p3ce2423845)" style="fill: #bebebe"/>
    <path d="M 42.049903 47.283307 
C 42.182504 47.283307 42.309693 47.230624 42.403456 47.13686 
C 42.497219 47.043097 42.549903 46.915908 42.549903 46.783307 
C 42.549903 46.650705 42.497219 46.523517 42.403456 46.429753 
C 42.309693 46.33599 42.182504 46.283307 42.049903 46.283307 
C 41.917301 46.283307 41.790113 46.33599 41.696349 46.429753 
C 41.602586 46.523517 41.549903 46.650705 41.549903 46.783307 
C 41.549903 46.915908 41.602586 47.043097 41.696349 47.13686 
C 41.790113 47.230624 41.917301 47.283307 42.049903 47.283307 
z
" clip-path="url(#p3ce2423845)" style="fill: #bebebe"/>
    <path d="M 29.422846 47.283307 
C 29.555447 47.283307 29.682636 47.230624 29.776399 47.13686 
C 29.870162 47.043097 29.922846 46.915908 29.922846 46.783307 
C 29.922846 46.650705 29.870162 46.523517 29.776399 46.429753 
C 29.682636 46.33599 29.555447 46.283307 29.422846 46.283307 
C 29.290244 46.283307 29.163056 46.33599 29.069292 46.429753 
C 28.975529 46.523517 28.922846 46.650705 28.922846 46.783307 
C 28.922846 46.915908 28.975529 47.043097 29.069292 47.13686 
C 29.163056 47.230624 29.290244 47.283307 29.422846 47.283307 
z
" clip-path="url(#p3ce2423845)" style="fill: #bebebe"/>
    <path d="M 19.207342 50.754903 
C 19.339943 50.754903 19.467132 50.70222 19.560895 50.608457 
C 19.654659 50.514693 19.707342 50.387505 19.707342 50.254903 
C 19.707342 50.122302 19.654659 49.995113 19.560895 49.90135 
C 19.467132 49.807586 19.339943 49.754903 19.207342 49.754903 
C 19.07474 49.754903 18.947552 49.807586 18.853788 49.90135 
C 18.760025 49.995113 18.707342 50.122302 18.707342 50.254903 
C 18.707342 50.387505 18.760025 50.514693 18.853788 50.608457 
C 18.947552 50.70222 19.07474 50.754903 19.207342 50.754903 
z
" clip-path="url(#p3ce2423845)" style="fill: #bebebe"/>
    <path d="M 15.305367 56.372064 
C 15.437968 56.372064 15.565157 56.319381 15.65892 56.225618 
C 15.752684 56.131854 15.805367 56.004666 15.805367 55.872064 
C 15.805367 55.739463 15.752684 55.612274 15.65892 55.518511 
C 15.565157 55.424747 15.437968 55.372064 15.305367 55.372064 
C 15.172765 55.372064 15.045577 55.424747 14.951813 55.518511 
C 14.85805 55.612274 14.805367 55.739463 14.805367 55.872064 
C 14.805367 56.004666 14.85805 56.131854 14.951813 56.225618 
C 15.045577 56.319381 15.172765 56.372064 15.305367 56.372064 
z
" clip-path="url(#p3ce2423845)" style="fill: #bebebe"/>
    <path d="M 19.207342 63.989225 
C 19.87035 63.989225 20.506292 63.72581 20.975109 63.256992 
C 21.443926 62.788175 21.707342 62.152233 21.707342 61.489225 
C 21.707342 60.826218 21.443926 60.190276 20.975109 59.721459 
C 20.506292 59.252641 19.87035 58.989225 19.207342 58.989225 
C 18.544334 58.989225 17.908392 59.252641 17.439575 59.721459 
C 16.970758 60.190276 16.707342 60.826218 16.707342 61.489225 
C 16.707342 62.152233 16.970758 62.788175 17.439575 63.256992 
C 17.908392 63.72581 18.544334 63.989225 19.207342 63.989225 
z
" clip-path="url(#p3ce2423845)" style="fill: #bebebe"/>
    <path d="M 29.422846 67.460822 
C 30.085853 67.460822 30.721795 67.197406 31.190613 66.728589 
C 31.65943 66.259772 31.922846 65.62383 31.922846 64.960822 
C 31.922846 64.297814 31.65943 63.661872 31.190613 63.193055 
C 30.721795 62.724238 30.085853 62.460822 29.422846 62.460822 
C 28.759838 62.460822 28.123896 62.724238 27.655079 63.193055 
C 27.186261 63.661872 26.922846 64.297814 26.922846 64.960822 
C 26.922846 65.62383 27.186261 66.259772 27.655079 66.728589 
C 28.123896 67.197406 28.759838 67.460822 29.422846 67.460822 
z
" clip-path="url(#p3ce2423845)" style="fill: #bebebe"/>
    <path d="M 42.049903 67.460822 
C 42.71291 67.460822 43.348852 67.197406 43.81767 66.728589 
C 44.286487 66.259772 44.549903 65.62383 44.549903 64.960822 
C 44.549903 64.297814 44.286487 63.661872 43.81767 63.193055 
C 43.348852 62.724238 42.71291 62.460822 42.049903 62.460822 
C 41.386895 62.460822 40.750953 62.724238 40.282136 63.193055 
C 39.813318 63.661872 39.549903 64.297814 39.549903 64.960822 
C 39.549903 65.62383 39.813318 66.259772 40.282136 66.728589 
C 40.750953 67.197406 41.386895 67.460822 42.049903 67.460822 
z
" clip-path="url(#p3ce2423845)" style="fill: #bebebe"/>
    <path d="M 52.265406 61.989225 
C 52.398008 61.989225 52.525196 61.936542 52.61896 61.842779 
C 52.712723 61.749015 52.765406 61.621827 52.765406 61.489225 
C 52.765406 61.356624 52.712723 61.229436 52.61896 61.135672 
C 52.525196 61.041909 52.398008 60.989225 52.265406 60.989225 
C 52.132805 60.989225 52.005616 61.041909 51.911853 61.135672 
C 51.818089 61.229436 51.765406 61.356624 51.765406 61.489225 
C 51.765406 61.621827 51.818089 61.749015 51.911853 61.842779 
C 52.005616 61.936542 52.132805 61.989225 52.265406 61.989225 
z
" clip-path="url(#p3ce2423845)" style="fill: #bebebe"/>
   </g>
   <g id="matplotlib.axis_3"/>
   <g id="matplotlib.axis_4"/>
  </g>
  <g id="axes_3">
   <g id="patch_4">
    <path d="M 10.8 101.52 
L 61.2 101.52 
L 61.2 78.48 
L 10.8 78.48 
z
" style="fill: #ffffff"/>
   </g>
   <g id="EdgeCollection_3">
    <path d="M 57.125956 89.962064 
C 83.423139 103.331779 83.423139 76.092349 57.125956 89.462064 
C 83.423139 76.092349 83.423139 103.331779 57.125956 89.962064 
" clip-path="url(#p6556caf2a6)" style="fill: #020202"/>
    <path d="M 56.405236 89.303133 
L 53.02865 84.503834 
" clip-path="url(#p6556caf2a6)" style="fill: #020202"/>
    <path d="M 56.270975 89.443842 
L 42.816439 80.891529 
" clip-path="url(#p6556caf2a6)" style="fill: #020202; stroke: #020202; stroke-width: 0.99"/>
    <path d="M 56.218916 89.553012 
L 30.079557 80.782359 
" clip-path="url(#p6556caf2a6)" style="fill: #020202"/>
    <path d="M 56.198479 89.637867 
L 19.753521 84.1691 
" clip-path="url(#p6556caf2a6)" style="fill: #020202"/>
    <path d="M 56.192943 89.712064 
L 15.807057 89.712064 
" clip-path="url(#p6556caf2a6)" style="fill: #020202"/>
    <path d="M 56.198479 89.786261 
L 21.731378 94.95824 
" clip-path="url(#p6556caf2a6)" style="fill: #020202"/>
    <path d="M 56.218916 89.871117 
L 31.975667 98.005559 
" clip-path="url(#p6556caf2a6)" style="fill: #020202"/>
    <path d="M 56.270975 89.980286 
L 44.504311 97.459712 
" clip-path="url(#p6556caf2a6)" style="fill: #020202"/>
    <path d="M 56.405236 90.120996 
L 54.179478 93.28457 
" clip-path="url(#p6556caf2a6)" style="fill: #020202"/>
    <path d="M 53.2002 83.89721 
C 79.637826 70.807403 57.800721 54.524671 52.799364 83.598328 
C 57.800721 54.524671 79.637826 70.807403 53.2002 83.89721 
" clip-path="url(#p6556caf2a6)" style="fill: #020202"/>
    <path d="M 52.266915 83.935851 
L 42.868499 80.782359 
" clip-path="url(#p6556caf2a6)" style="fill: #020202"/>
    <path d="M 52.246479 84.020706 
L 30.099993 80.697504 
" clip-path="url(#p6556caf2a6)" style="fill: #020202"/>
    <path d="M 52.240943 84.094903 
L 19.759057 84.094903 
" clip-path="url(#p6556caf2a6)" style="fill: #020202"/>
    <path d="M 52.246479 84.1691 
L 15.801521 89.637867 
" clip-path="url(#p6556caf2a6)" style="fill: #020202"/>
    <path d="M 52.266915 84.253956 
L 21.629196 94.533963 
" clip-path="url(#p6556caf2a6)" style="fill: #020202; stroke: #020202; stroke-width: 0.99"/>
    <path d="M 52.318975 84.363125 
L 31.715369 97.459712 
" clip-path="url(#p6556caf2a6)" style="fill: #020202"/>
    <path d="M 52.453236 84.503834 
L 43.833006 96.756166 
" clip-path="url(#p6556caf2a6)" style="fill: #020202; stroke: #020202; stroke-width: 0.99"/>
    <path d="M 52.740943 84.594903 
L 52.740943 92.829225 
" clip-path="url(#p6556caf2a6)" style="fill: #020202"/>
    <path d="M 42.710987 80.236244 
C 60.143971 56.437459 33.260604 52.047575 42.217523 80.155664 
C 33.260604 52.047575 60.143971 56.437459 42.710987 80.236244 
" clip-path="url(#p6556caf2a6)" style="fill: #020202"/>
    <path d="M 41.894471 80.623307 
L 30.105529 80.623307 
" clip-path="url(#p6556caf2a6)" style="fill: #020202; stroke: #020202; stroke-width: 0.99"/>
    <path d="M 41.900007 80.697504 
L 19.753521 84.020706 
" clip-path="url(#p6556caf2a6)" style="fill: #020202"/>
    <path d="M 41.920443 80.782359 
L 15.781084 89.553012 
" clip-path="url(#p6556caf2a6)" style="fill: #020202"/>
    <path d="M 41.972503 80.891529 
L 21.368897 93.988116 
" clip-path="url(#p6556caf2a6)" style="fill: #020202"/>
    <path d="M 42.106764 81.032238 
L 31.044064 96.756166 
" clip-path="url(#p6556caf2a6)" style="fill: #020202"/>
    <path d="M 42.394471 81.123307 
L 42.394471 96.300822 
" clip-path="url(#p6556caf2a6)" style="fill: #020202"/>
    <path d="M 42.682178 81.032238 
L 51.302408 93.28457 
" clip-path="url(#p6556caf2a6)" style="fill: #020202"/>
    <path d="M 29.782477 80.155664 
C 38.739396 52.047575 11.856029 56.437459 29.289013 80.236244 
C 11.856029 56.437459 38.739396 52.047575 29.782477 80.155664 
" clip-path="url(#p6556caf2a6)" style="fill: #020202"/>
    <path d="M 29.131501 80.782359 
L 19.733085 83.935851 
" clip-path="url(#p6556caf2a6)" style="fill: #020202"/>
    <path d="M 29.183561 80.891529 
L 15.729025 89.443842 
" clip-path="url(#p6556caf2a6)" style="fill: #020202"/>
    <path d="M 29.317822 81.032238 
L 20.697592 93.28457 
" clip-path="url(#p6556caf2a6)" style="fill: #020202"/>
    <path d="M 29.605529 81.123307 
L 29.605529 96.300822 
" clip-path="url(#p6556caf2a6)" style="fill: #020202"/>
    <path d="M 29.893236 81.032238 
L 40.955936 96.756166 
" clip-path="url(#p6556caf2a6)" style="fill: #020202"/>
    <path d="M 30.027497 80.891529 
L 50.631103 93.988116 
" clip-path="url(#p6556caf2a6)" style="fill: #020202"/>
    <path d="M 19.200636 83.598328 
C 14.199279 54.524671 -7.637826 70.807403 18.7998 83.89721 
C -7.637826 70.807403 14.199279 54.524671 19.200636 83.598328 
" clip-path="url(#p6556caf2a6)" style="fill: #020202"/>
    <path d="M 18.97135 84.503834 
L 15.594764 89.303133 
" clip-path="url(#p6556caf2a6)" style="fill: #020202"/>
    <path d="M 19.259057 84.594903 
L 19.259057 92.829225 
" clip-path="url(#p6556caf2a6)" style="fill: #020202"/>
    <path d="M 19.546764 84.503834 
L 28.166994 96.756166 
" clip-path="url(#p6556caf2a6)" style="fill: #020202"/>
    <path d="M 19.681025 84.363125 
L 40.284631 97.459712 
" clip-path="url(#p6556caf2a6)" style="fill: #020202"/>
    <path d="M 19.733085 84.253956 
L 50.370804 94.533963 
" clip-path="url(#p6556caf2a6)" style="fill: #020202; stroke: #020202; stroke-width: 0.99"/>
    <path d="M 14.874044 89.462064 
C -11.423139 76.092349 -11.423139 103.331779 14.874044 89.962064 
C -11.423139 103.331779 -11.423139 76.092349 14.874044 89.462064 
" clip-path="url(#p6556caf2a6)" style="fill: #020202"/>
    <path d="M 15.594764 90.120996 
L 17.820522 93.28457 
" clip-path="url(#p6556caf2a6)" style="fill: #020202"/>
    <path d="M 15.729025 89.980286 
L 27.495689 97.459712 
" clip-path="url(#p6556caf2a6)" style="fill: #020202"/>
    <path d="M 15.781084 89.871117 
L 40.024333 98.005559 
" clip-path="url(#p6556caf2a6)" style="fill: #020202"/>
    <path d="M 15.801521 89.786261 
L 50.268622 94.95824 
" clip-path="url(#p6556caf2a6)" style="fill: #020202; stroke: #020202; stroke-width: 0.99"/>
    <path d="M 16.962771 96.317694 
C -7.637826 108.616726 14.199279 124.899458 18.966952 97.812102 
C 14.199279 124.899458 -7.637826 108.616726 16.962771 96.317694 
" clip-path="url(#p6556caf2a6)" style="fill: #020202"/>
    <path d="M 21.629196 96.124488 
L 27.23539 98.005559 
" clip-path="url(#p6556caf2a6)" style="fill: #020202; stroke: #020202; stroke-width: 0.99"/>
    <path d="M 21.731378 95.700211 
L 39.92215 98.429837 
" clip-path="url(#p6556caf2a6)" style="fill: #020202; stroke: #020202; stroke-width: 0.99"/>
    <path d="M 21.759057 95.329225 
L 50.240943 95.329225 
" clip-path="url(#p6556caf2a6)" style="fill: #020202"/>
    <path d="M 28.022948 100.736136 
C 11.856029 122.98667 38.739396 127.376554 30.490269 101.139034 
C 38.739396 127.376554 11.856029 122.98667 28.022948 100.736136 
" clip-path="url(#p6556caf2a6)" style="fill: #020202"/>
    <path d="M 32.105529 98.800822 
L 39.894471 98.800822 
" clip-path="url(#p6556caf2a6)" style="fill: #020202; stroke: #020202; stroke-width: 0.99"/>
    <path d="M 32.07785 98.429837 
L 50.268622 95.700211 
" clip-path="url(#p6556caf2a6)" style="fill: #020202; stroke: #020202; stroke-width: 0.99"/>
    <path d="M 41.509731 101.139034 
C 33.260604 127.376554 60.143971 122.98667 43.977052 100.736136 
C 60.143971 122.98667 33.260604 127.376554 41.509731 101.139034 
" clip-path="url(#p6556caf2a6)" style="fill: #020202"/>
    <path d="M 44.76461 98.005559 
L 50.370804 96.124488 
" clip-path="url(#p6556caf2a6)" style="fill: #020202"/>
    <path d="M 53.033048 97.812102 
C 57.800721 124.899458 79.637826 108.616726 55.037229 96.317694 
C 79.637826 108.616726 57.800721 124.899458 53.033048 97.812102 
" clip-path="url(#p6556caf2a6)" style="fill: #020202"/>
   </g>
   <g id="VertexCollection_3">
    <path d="M 56.692943 90.212064 
C 56.825545 90.212064 56.952733 90.159381 57.046497 90.065618 
C 57.14026 89.971854 57.192943 89.844666 57.192943 89.712064 
C 57.192943 89.579463 57.14026 89.452274 57.046497 89.358511 
C 56.952733 89.264747 56.825545 89.212064 56.692943 89.212064 
C 56.560342 89.212064 56.433153 89.264747 56.33939 89.358511 
C 56.245627 89.452274 56.192943 89.579463 56.192943 89.712064 
C 56.192943 89.844666 56.245627 89.971854 56.33939 90.065618 
C 56.433153 90.159381 56.560342 90.212064 56.692943 90.212064 
z
" clip-path="url(#p6556caf2a6)" style="fill: #bebebe"/>
    <path d="M 52.740943 84.594903 
C 52.873544 84.594903 53.000733 84.54222 53.094496 84.448457 
C 53.18826 84.354693 53.240943 84.227505 53.240943 84.094903 
C 53.240943 83.962302 53.18826 83.835113 53.094496 83.74135 
C 53.000733 83.647586 52.873544 83.594903 52.740943 83.594903 
C 52.608341 83.594903 52.481153 83.647586 52.38739 83.74135 
C 52.293626 83.835113 52.240943 83.962302 52.240943 84.094903 
C 52.240943 84.227505 52.293626 84.354693 52.38739 84.448457 
C 52.481153 84.54222 52.608341 84.594903 52.740943 84.594903 
z
" clip-path="url(#p6556caf2a6)" style="fill: #bebebe"/>
    <path d="M 42.394471 81.123307 
C 42.527073 81.123307 42.654261 81.070624 42.748025 80.97686 
C 42.841788 80.883097 42.894471 80.755908 42.894471 80.623307 
C 42.894471 80.490705 42.841788 80.363517 42.748025 80.269753 
C 42.654261 80.17599 42.527073 80.123307 42.394471 80.123307 
C 42.26187 80.123307 42.134681 80.17599 42.040918 80.269753 
C 41.947154 80.363517 41.894471 80.490705 41.894471 80.623307 
C 41.894471 80.755908 41.947154 80.883097 42.040918 80.97686 
C 42.134681 81.070624 42.26187 81.123307 42.394471 81.123307 
z
" clip-path="url(#p6556caf2a6)" style="fill: #bebebe"/>
    <path d="M 29.605529 81.123307 
C 29.73813 81.123307 29.865319 81.070624 29.959082 80.97686 
C 30.052846 80.883097 30.105529 80.755908 30.105529 80.623307 
C 30.105529 80.490705 30.052846 80.363517 29.959082 80.269753 
C 29.865319 80.17599 29.73813 80.123307 29.605529 80.123307 
C 29.472927 80.123307 29.345739 80.17599 29.251975 80.269753 
C 29.158212 80.363517 29.105529 80.490705 29.105529 80.623307 
C 29.105529 80.755908 29.158212 80.883097 29.251975 80.97686 
C 29.345739 81.070624 29.472927 81.123307 29.605529 81.123307 
z
" clip-path="url(#p6556caf2a6)" style="fill: #bebebe"/>
    <path d="M 19.259057 84.594903 
C 19.391659 84.594903 19.518847 84.54222 19.61261 84.448457 
C 19.706374 84.354693 19.759057 84.227505 19.759057 84.094903 
C 19.759057 83.962302 19.706374 83.835113 19.61261 83.74135 
C 19.518847 83.647586 19.391659 83.594903 19.259057 83.594903 
C 19.126456 83.594903 18.999267 83.647586 18.905504 83.74135 
C 18.81174 83.835113 18.759057 83.962302 18.759057 84.094903 
C 18.759057 84.227505 18.81174 84.354693 18.905504 84.448457 
C 18.999267 84.54222 19.126456 84.594903 19.259057 84.594903 
z
" clip-path="url(#p6556caf2a6)" style="fill: #bebebe"/>
    <path d="M 15.307057 90.212064 
C 15.439658 90.212064 15.566847 90.159381 15.66061 90.065618 
C 15.754373 89.971854 15.807057 89.844666 15.807057 89.712064 
C 15.807057 89.579463 15.754373 89.452274 15.66061 89.358511 
C 15.566847 89.264747 15.439658 89.212064 15.307057 89.212064 
C 15.174455 89.212064 15.047267 89.264747 14.953503 89.358511 
C 14.85974 89.452274 14.807057 89.579463 14.807057 89.712064 
C 14.807057 89.844666 14.85974 89.971854 14.953503 90.065618 
C 15.047267 90.159381 15.174455 90.212064 15.307057 90.212064 
z
" clip-path="url(#p6556caf2a6)" style="fill: #bebebe"/>
    <path d="M 19.259057 97.829225 
C 19.922065 97.829225 20.558007 97.56581 21.026824 97.096992 
C 21.495641 96.628175 21.759057 95.992233 21.759057 95.329225 
C 21.759057 94.666218 21.495641 94.030276 21.026824 93.561459 
C 20.558007 93.092641 19.922065 92.829225 19.259057 92.829225 
C 18.596049 92.829225 17.960107 93.092641 17.49129 93.561459 
C 17.022473 94.030276 16.759057 94.666218 16.759057 95.329225 
C 16.759057 95.992233 17.022473 96.628175 17.49129 97.096992 
C 17.960107 97.56581 18.596049 97.829225 19.259057 97.829225 
z
" clip-path="url(#p6556caf2a6)" style="fill: #bebebe"/>
    <path d="M 29.605529 101.300822 
C 30.268537 101.300822 30.904478 101.037406 31.373296 100.568589 
C 31.842113 100.099772 32.105529 99.46383 32.105529 98.800822 
C 32.105529 98.137814 31.842113 97.501872 31.373296 97.033055 
C 30.904478 96.564238 30.268537 96.300822 29.605529 96.300822 
C 28.942521 96.300822 28.306579 96.564238 27.837762 97.033055 
C 27.368945 97.501872 27.105529 98.137814 27.105529 98.800822 
C 27.105529 99.46383 27.368945 100.099772 27.837762 100.568589 
C 28.306579 101.037406 28.942521 101.300822 29.605529 101.300822 
z
" clip-path="url(#p6556caf2a6)" style="fill: #bebebe"/>
    <path d="M 42.394471 101.300822 
C 43.057479 101.300822 43.693421 101.037406 44.162238 100.568589 
C 44.631055 100.099772 44.894471 99.46383 44.894471 98.800822 
C 44.894471 98.137814 44.631055 97.501872 44.162238 97.033055 
C 43.693421 96.564238 43.057479 96.300822 42.394471 96.300822 
C 41.731463 96.300822 41.095522 96.564238 40.626704 97.033055 
C 40.157887 97.501872 39.894471 98.137814 39.894471 98.800822 
C 39.894471 99.46383 40.157887 100.099772 40.626704 100.568589 
C 41.095522 101.037406 41.731463 101.300822 42.394471 101.300822 
z
" clip-path="url(#p6556caf2a6)" style="fill: #bebebe"/>
    <path d="M 52.740943 97.829225 
C 53.403951 97.829225 54.039893 97.56581 54.50871 97.096992 
C 54.977527 96.628175 55.240943 95.992233 55.240943 95.329225 
C 55.240943 94.666218 54.977527 94.030276 54.50871 93.561459 
C 54.039893 93.092641 53.403951 92.829225 52.740943 92.829225 
C 52.077935 92.829225 51.441993 93.092641 50.973176 93.561459 
C 50.504359 94.030276 50.240943 94.666218 50.240943 95.329225 
C 50.240943 95.992233 50.504359 96.628175 50.973176 97.096992 
C 51.441993 97.56581 52.077935 97.829225 52.740943 97.829225 
z
" clip-path="url(#p6556caf2a6)" style="fill: #bebebe"/>
   </g>
   <g id="matplotlib.axis_5"/>
   <g id="matplotlib.axis_6"/>
  </g>
  <g id="axes_4">
   <g id="patch_5">
    <path d="M 10.8 135.36 
L 61.2 135.36 
L 61.2 112.32 
L 10.8 112.32 
z
" style="fill: #ffffff"/>
   </g>
   <g id="EdgeCollection_4">
    <path d="M 57.127646 123.802064 
C 83.424829 137.171779 83.424829 109.932349 57.127646 123.302064 
C 83.424829 109.932349 83.424829 137.171779 57.127646 123.802064 
" clip-path="url(#p77646f1630)" style="fill: #020202"/>
    <path d="M 56.409378 123.141419 
L 53.077914 118.345548 
" clip-path="url(#p77646f1630)" style="fill: #020202"/>
    <path d="M 56.274223 123.281407 
L 42.997564 114.733964 
" clip-path="url(#p77646f1630)" style="fill: #020202; stroke: #020202; stroke-width: 0.99"/>
    <path d="M 56.221223 123.391183 
L 30.423507 114.624188 
" clip-path="url(#p77646f1630)" style="fill: #020202"/>
    <path d="M 56.20031 123.476937 
L 20.228917 118.01003 
" clip-path="url(#p77646f1630)" style="fill: #020202"/>
    <path d="M 56.194633 123.552064 
L 18.332618 123.552064 
" clip-path="url(#p77646f1630)" style="fill: #020202"/>
    <path d="M 56.20031 123.627191 
L 22.206212 128.793591 
" clip-path="url(#p77646f1630)" style="fill: #020202"/>
    <path d="M 56.221223 123.712946 
L 32.317147 131.836413 
" clip-path="url(#p77646f1630)" style="fill: #020202"/>
    <path d="M 56.274223 123.822722 
L 44.679204 131.287534 
" clip-path="url(#p77646f1630)" style="fill: #020202"/>
    <path d="M 56.409378 123.962709 
L 53.077914 128.758581 
" clip-path="url(#p77646f1630)" style="fill: #020202"/>
    <path d="M 53.252883 117.739472 
C 79.754613 104.779943 57.997911 88.389932 52.853522 117.438621 
C 57.997911 88.389932 79.754613 104.779943 53.252883 117.739472 
" clip-path="url(#p77646f1630)" style="fill: #020202"/>
    <path d="M 52.319248 117.774021 
L 43.050564 114.624188 
" clip-path="url(#p77646f1630)" style="fill: #020202"/>
    <path d="M 52.298334 117.859776 
L 30.444421 114.538434 
" clip-path="url(#p77646f1630)" style="fill: #020202"/>
    <path d="M 52.292658 117.934903 
L 20.234594 117.934903 
" clip-path="url(#p77646f1630)" style="fill: #020202"/>
    <path d="M 52.298334 118.01003 
L 18.304237 123.176429 
" clip-path="url(#p77646f1630)" style="fill: #020202"/>
    <path d="M 52.319248 118.095785 
L 22.101644 128.364817 
" clip-path="url(#p77646f1630)" style="fill: #020202; stroke: #020202; stroke-width: 0.99"/>
    <path d="M 52.372248 118.205561 
L 32.052147 131.287534 
" clip-path="url(#p77646f1630)" style="fill: #020202"/>
    <path d="M 52.507403 118.345548 
L 44.003432 130.587597 
" clip-path="url(#p77646f1630)" style="fill: #020202"/>
    <path d="M 52.792658 118.434903 
L 52.792658 128.669225 
" clip-path="url(#p77646f1630)" style="fill: #020202"/>
    <path d="M 42.894417 114.076856 
C 60.373317 90.311773 33.498475 85.869993 42.401109 113.995324 
C 33.498475 85.869993 60.373317 90.311773 42.894417 114.076856 
" clip-path="url(#p77646f1630)" style="fill: #020202"/>
    <path d="M 42.077154 114.463307 
L 30.450097 114.463307 
" clip-path="url(#p77646f1630)" style="fill: #020202; stroke: #020202; stroke-width: 0.99"/>
    <path d="M 42.082831 114.538434 
L 20.228917 117.859776 
" clip-path="url(#p77646f1630)" style="fill: #020202"/>
    <path d="M 42.103744 114.624188 
L 18.199669 122.747655 
" clip-path="url(#p77646f1630)" style="fill: #020202"/>
    <path d="M 42.156745 114.733964 
L 21.836643 127.815937 
" clip-path="url(#p77646f1630)" style="fill: #020202"/>
    <path d="M 42.291899 114.873952 
L 31.376375 130.587597 
" clip-path="url(#p77646f1630)" style="fill: #020202"/>
    <path d="M 42.577154 114.963307 
L 42.577154 130.140822 
" clip-path="url(#p77646f1630)" style="fill: #020202"/>
    <path d="M 42.86241 114.873952 
L 52.507403 128.758581 
" clip-path="url(#p77646f1630)" style="fill: #020202"/>
    <path d="M 30.126142 113.995324 
C 39.028777 85.869993 12.153935 90.311773 29.632835 114.076856 
C 12.153935 90.311773 39.028777 85.869993 30.126142 113.995324 
" clip-path="url(#p77646f1630)" style="fill: #020202"/>
    <path d="M 29.476687 114.624188 
L 20.208004 117.774021 
" clip-path="url(#p77646f1630)" style="fill: #020202"/>
    <path d="M 29.529688 114.733964 
L 17.934668 122.198776 
" clip-path="url(#p77646f1630)" style="fill: #020202"/>
    <path d="M 29.664842 114.873952 
L 21.160871 127.116001 
" clip-path="url(#p77646f1630)" style="fill: #020202"/>
    <path d="M 29.950097 114.963307 
L 29.950097 130.140822 
" clip-path="url(#p77646f1630)" style="fill: #020202"/>
    <path d="M 30.235353 114.873952 
L 41.150877 130.587597 
" clip-path="url(#p77646f1630)" style="fill: #020202"/>
    <path d="M 30.370507 114.733964 
L 52.372248 128.898568 
" clip-path="url(#p77646f1630)" style="fill: #020202"/>
    <path d="M 19.673729 117.438621 
C 14.529341 88.389932 -7.227361 104.779943 19.274369 117.739472 
C -7.227361 104.779943 14.529341 88.389932 19.673729 117.438621 
" clip-path="url(#p77646f1630)" style="fill: #020202"/>
    <path d="M 19.449338 118.345548 
L 17.258896 121.49884 
" clip-path="url(#p77646f1630)" style="fill: #020202; stroke: #020202; stroke-width: 0.99"/>
    <path d="M 19.734594 118.434903 
L 19.734594 126.669225 
" clip-path="url(#p77646f1630)" style="fill: #020202"/>
    <path d="M 20.019849 118.345548 
L 28.52382 130.587597 
" clip-path="url(#p77646f1630)" style="fill: #020202"/>
    <path d="M 20.155004 118.205561 
L 40.475105 131.287534 
" clip-path="url(#p77646f1630)" style="fill: #020202"/>
    <path d="M 20.208004 118.095785 
L 52.319248 129.008344 
" clip-path="url(#p77646f1630)" style="fill: #020202"/>
    <path d="M 13.667555 122.302064 
C -10.897577 109.932349 -10.897577 137.171779 13.667555 124.802064 
C -10.897577 137.171779 -10.897577 109.932349 13.667555 122.302064 
" clip-path="url(#p77646f1630)" style="fill: #020202"/>
    <path d="M 17.258896 125.605289 
L 18.308316 127.116001 
" clip-path="url(#p77646f1630)" style="fill: #020202"/>
    <path d="M 17.934668 124.905352 
L 27.848048 131.287534 
" clip-path="url(#p77646f1630)" style="fill: #020202; stroke: #020202; stroke-width: 0.99"/>
    <path d="M 18.199669 124.356473 
L 40.210104 131.836413 
" clip-path="url(#p77646f1630)" style="fill: #020202; stroke: #020202; stroke-width: 0.99"/>
    <path d="M 18.304237 123.927699 
L 52.298334 129.094099 
" clip-path="url(#p77646f1630)" style="fill: #020202"/>
    <path d="M 17.43347 130.14638 
C -7.227361 142.324186 14.529341 158.714197 19.430272 131.650634 
C 14.529341 158.714197 -7.227361 142.324186 17.43347 130.14638 
" clip-path="url(#p77646f1630)" style="fill: #020202"/>
    <path d="M 22.101644 129.973634 
L 27.583047 131.836413 
" clip-path="url(#p77646f1630)" style="fill: #020202; stroke: #020202; stroke-width: 0.99"/>
    <path d="M 22.206212 129.54486 
L 40.105536 132.265187 
" clip-path="url(#p77646f1630)" style="fill: #020202; stroke: #020202; stroke-width: 0.99"/>
    <path d="M 22.234594 129.169225 
L 52.292658 129.169225 
" clip-path="url(#p77646f1630)" style="fill: #020202"/>
    <path d="M 28.363783 134.573077 
C 12.153935 156.792356 39.028777 161.234136 30.830322 134.980738 
C 39.028777 161.234136 12.153935 156.792356 28.363783 134.573077 
" clip-path="url(#p77646f1630)" style="fill: #020202"/>
    <path d="M 32.450097 132.640822 
L 40.077154 132.640822 
" clip-path="url(#p77646f1630)" style="fill: #020202; stroke: #020202; stroke-width: 0.99"/>
    <path d="M 32.421716 132.265187 
L 52.298334 129.244352 
" clip-path="url(#p77646f1630)" style="fill: #020202"/>
    <path d="M 41.69693 134.980738 
C 33.498475 161.234136 60.373317 156.792356 44.163468 134.573077 
C 60.373317 156.792356 33.498475 161.234136 41.69693 134.980738 
" clip-path="url(#p77646f1630)" style="fill: #020202"/>
    <path d="M 44.944205 131.836413 
L 52.319248 129.330107 
" clip-path="url(#p77646f1630)" style="fill: #020202"/>
    <path d="M 52.853522 129.665507 
C 57.997911 158.714197 79.754613 142.324186 53.252883 129.364656 
C 79.754613 142.324186 57.997911 158.714197 52.853522 129.665507 
" clip-path="url(#p77646f1630)" style="fill: #020202"/>
   </g>
   <g id="VertexCollection_4">
    <path d="M 56.694633 124.052064 
C 56.827235 124.052064 56.954423 123.999381 57.048187 123.905618 
C 57.14195 123.811854 57.194633 123.684666 57.194633 123.552064 
C 57.194633 123.419463 57.14195 123.292274 57.048187 123.198511 
C 56.954423 123.104747 56.827235 123.052064 56.694633 123.052064 
C 56.562032 123.052064 56.434843 123.104747 56.34108 123.198511 
C 56.247316 123.292274 56.194633 123.419463 56.194633 123.552064 
C 56.194633 123.684666 56.247316 123.811854 56.34108 123.905618 
C 56.434843 123.999381 56.562032 124.052064 56.694633 124.052064 
z
" clip-path="url(#p77646f1630)" style="fill: #bebebe"/>
    <path d="M 52.792658 118.434903 
C 52.92526 118.434903 53.052448 118.38222 53.146212 118.288457 
C 53.239975 118.194693 53.292658 118.067505 53.292658 117.934903 
C 53.292658 117.802302 53.239975 117.675113 53.146212 117.58135 
C 53.052448 117.487586 52.92526 117.434903 52.792658 117.434903 
C 52.660057 117.434903 52.532868 117.487586 52.439105 117.58135 
C 52.345341 117.675113 52.292658 117.802302 52.292658 117.934903 
C 52.292658 118.067505 52.345341 118.194693 52.439105 118.288457 
C 52.532868 118.38222 52.660057 118.434903 52.792658 118.434903 
z
" clip-path="url(#p77646f1630)" style="fill: #bebebe"/>
    <path d="M 42.577154 114.963307 
C 42.709756 114.963307 42.836944 114.910624 42.930708 114.81686 
C 43.024471 114.723097 43.077154 114.595908 43.077154 114.463307 
C 43.077154 114.330705 43.024471 114.203517 42.930708 114.109753 
C 42.836944 114.01599 42.709756 113.963307 42.577154 113.963307 
C 42.444553 113.963307 42.317364 114.01599 42.223601 114.109753 
C 42.129838 114.203517 42.077154 114.330705 42.077154 114.463307 
C 42.077154 114.595908 42.129838 114.723097 42.223601 114.81686 
C 42.317364 114.910624 42.444553 114.963307 42.577154 114.963307 
z
" clip-path="url(#p77646f1630)" style="fill: #bebebe"/>
    <path d="M 29.950097 114.963307 
C 30.082699 114.963307 30.209887 114.910624 30.303651 114.81686 
C 30.397414 114.723097 30.450097 114.595908 30.450097 114.463307 
C 30.450097 114.330705 30.397414 114.203517 30.303651 114.109753 
C 30.209887 114.01599 30.082699 113.963307 29.950097 113.963307 
C 29.817496 113.963307 29.690307 114.01599 29.596544 114.109753 
C 29.502781 114.203517 29.450097 114.330705 29.450097 114.463307 
C 29.450097 114.595908 29.502781 114.723097 29.596544 114.81686 
C 29.690307 114.910624 29.817496 114.963307 29.950097 114.963307 
z
" clip-path="url(#p77646f1630)" style="fill: #bebebe"/>
    <path d="M 19.734594 118.434903 
C 19.867195 118.434903 19.994384 118.38222 20.088147 118.288457 
C 20.181911 118.194693 20.234594 118.067505 20.234594 117.934903 
C 20.234594 117.802302 20.181911 117.675113 20.088147 117.58135 
C 19.994384 117.487586 19.867195 117.434903 19.734594 117.434903 
C 19.601992 117.434903 19.474804 117.487586 19.38104 117.58135 
C 19.287277 117.675113 19.234594 117.802302 19.234594 117.934903 
C 19.234594 118.067505 19.287277 118.194693 19.38104 118.288457 
C 19.474804 118.38222 19.601992 118.434903 19.734594 118.434903 
z
" clip-path="url(#p77646f1630)" style="fill: #bebebe"/>
    <path d="M 15.832618 126.052064 
C 16.495626 126.052064 17.131568 125.788649 17.600385 125.319831 
C 18.069203 124.851014 18.332618 124.215072 18.332618 123.552064 
C 18.332618 122.889057 18.069203 122.253115 17.600385 121.784297 
C 17.131568 121.31548 16.495626 121.052064 15.832618 121.052064 
C 15.169611 121.052064 14.533669 121.31548 14.064852 121.784297 
C 13.596034 122.253115 13.332618 122.889057 13.332618 123.552064 
C 13.332618 124.215072 13.596034 124.851014 14.064852 125.319831 
C 14.533669 125.788649 15.169611 126.052064 15.832618 126.052064 
z
" clip-path="url(#p77646f1630)" style="fill: #bebebe"/>
    <path d="M 19.734594 131.669225 
C 20.397601 131.669225 21.033543 131.40581 21.502361 130.936992 
C 21.971178 130.468175 22.234594 129.832233 22.234594 129.169225 
C 22.234594 128.506218 21.971178 127.870276 21.502361 127.401459 
C 21.033543 126.932641 20.397601 126.669225 19.734594 126.669225 
C 19.071586 126.669225 18.435644 126.932641 17.966827 127.401459 
C 17.498009 127.870276 17.234594 128.506218 17.234594 129.169225 
C 17.234594 129.832233 17.498009 130.468175 17.966827 130.936992 
C 18.435644 131.40581 19.071586 131.669225 19.734594 131.669225 
z
" clip-path="url(#p77646f1630)" style="fill: #bebebe"/>
    <path d="M 29.950097 135.140822 
C 30.613105 135.140822 31.249047 134.877406 31.717864 134.408589 
C 32.186682 133.939772 32.450097 133.30383 32.450097 132.640822 
C 32.450097 131.977814 32.186682 131.341872 31.717864 130.873055 
C 31.249047 130.404238 30.613105 130.140822 29.950097 130.140822 
C 29.28709 130.140822 28.651148 130.404238 28.18233 130.873055 
C 27.713513 131.341872 27.450097 131.977814 27.450097 132.640822 
C 27.450097 133.30383 27.713513 133.939772 28.18233 134.408589 
C 28.651148 134.877406 29.28709 135.140822 29.950097 135.140822 
z
" clip-path="url(#p77646f1630)" style="fill: #bebebe"/>
    <path d="M 42.577154 135.140822 
C 43.240162 135.140822 43.876104 134.877406 44.344921 134.408589 
C 44.813739 133.939772 45.077154 133.30383 45.077154 132.640822 
C 45.077154 131.977814 44.813739 131.341872 44.344921 130.873055 
C 43.876104 130.404238 43.240162 130.140822 42.577154 130.140822 
C 41.914147 130.140822 41.278205 130.404238 40.809387 130.873055 
C 40.34057 131.341872 40.077154 131.977814 40.077154 132.640822 
C 40.077154 133.30383 40.34057 133.939772 40.809387 134.408589 
C 41.278205 134.877406 41.914147 135.140822 42.577154 135.140822 
z
" clip-path="url(#p77646f1630)" style="fill: #bebebe"/>
    <path d="M 52.792658 129.669225 
C 52.92526 129.669225 53.052448 129.616542 53.146212 129.522779 
C 53.239975 129.429015 53.292658 129.301827 53.292658 129.169225 
C 53.292658 129.036624 53.239975 128.909436 53.146212 128.815672 
C 53.052448 128.721909 52.92526 128.669225 52.792658 128.669225 
C 52.660057 128.669225 52.532868 128.721909 52.439105 128.815672 
C 52.345341 128.909436 52.292658 129.036624 52.292658 129.169225 
C 52.292658 129.301827 52.345341 129.429015 52.439105 129.522779 
C 52.532868 129.616542 52.660057 129.669225 52.792658 129.669225 
z
" clip-path="url(#p77646f1630)" style="fill: #bebebe"/>
   </g>
   <g id="matplotlib.axis_7"/>
   <g id="matplotlib.axis_8"/>
  </g>
  <g id="axes_5">
   <g id="patch_6">
    <path d="M 10.8 169.2 
L 61.2 169.2 
L 61.2 146.16 
L 10.8 146.16 
z
" style="fill: #ffffff"/>
   </g>
   <g id="EdgeCollection_5">
    <path d="M 57.127646 157.642064 
C 83.424829 171.011779 83.424829 143.772349 57.127646 157.142064 
C 83.424829 143.772349 83.424829 171.011779 57.127646 157.642064 
" clip-path="url(#p55fad9c6e5)" style="fill: #020202"/>
    <path d="M 56.409378 156.981419 
L 53.077914 152.185548 
" clip-path="url(#p55fad9c6e5)" style="fill: #020202"/>
    <path d="M 56.274223 157.121407 
L 42.997564 148.573964 
" clip-path="url(#p55fad9c6e5)" style="fill: #020202; stroke: #020202; stroke-width: 0.99"/>
    <path d="M 56.221223 157.231183 
L 30.423507 148.464188 
" clip-path="url(#p55fad9c6e5)" style="fill: #020202"/>
    <path d="M 56.20031 157.316937 
L 20.228917 151.85003 
" clip-path="url(#p55fad9c6e5)" style="fill: #020202"/>
    <path d="M 56.194633 157.392064 
L 18.332618 157.392064 
" clip-path="url(#p55fad9c6e5)" style="fill: #020202"/>
    <path d="M 56.20031 157.467191 
L 22.206212 162.633591 
" clip-path="url(#p55fad9c6e5)" style="fill: #020202"/>
    <path d="M 56.221223 157.552946 
L 32.317147 165.676413 
" clip-path="url(#p55fad9c6e5)" style="fill: #020202"/>
    <path d="M 56.274223 157.662722 
L 42.997564 166.210164 
" clip-path="url(#p55fad9c6e5)" style="fill: #020202"/>
    <path d="M 56.409378 157.802709 
L 53.077914 162.598581 
" clip-path="url(#p55fad9c6e5)" style="fill: #020202"/>
    <path d="M 53.252883 151.579472 
C 79.754613 138.619943 57.997911 122.229932 52.853522 151.278621 
C 57.997911 122.229932 79.754613 138.619943 53.252883 151.579472 
" clip-path="url(#p55fad9c6e5)" style="fill: #020202"/>
    <path d="M 52.319248 151.614021 
L 43.050564 148.464188 
" clip-path="url(#p55fad9c6e5)" style="fill: #020202"/>
    <path d="M 52.298334 151.699776 
L 30.444421 148.378434 
" clip-path="url(#p55fad9c6e5)" style="fill: #020202; stroke: #020202; stroke-width: 0.99"/>
    <path d="M 52.292658 151.774903 
L 20.234594 151.774903 
" clip-path="url(#p55fad9c6e5)" style="fill: #020202"/>
    <path d="M 52.298334 151.85003 
L 18.304237 157.016429 
" clip-path="url(#p55fad9c6e5)" style="fill: #020202"/>
    <path d="M 52.319248 151.935785 
L 22.101644 162.204817 
" clip-path="url(#p55fad9c6e5)" style="fill: #020202; stroke: #020202; stroke-width: 0.99"/>
    <path d="M 52.372248 152.045561 
L 32.052147 165.127534 
" clip-path="url(#p55fad9c6e5)" style="fill: #020202"/>
    <path d="M 52.507403 152.185548 
L 42.86241 166.070177 
" clip-path="url(#p55fad9c6e5)" style="fill: #020202"/>
    <path d="M 52.792658 152.274903 
L 52.792658 162.509225 
" clip-path="url(#p55fad9c6e5)" style="fill: #020202"/>
    <path d="M 42.894417 147.916856 
C 60.373317 124.151773 33.498475 119.709993 42.401109 147.835324 
C 33.498475 119.709993 60.373317 124.151773 42.894417 147.916856 
" clip-path="url(#p55fad9c6e5)" style="fill: #020202"/>
    <path d="M 42.077154 148.303307 
L 30.450097 148.303307 
" clip-path="url(#p55fad9c6e5)" style="fill: #020202"/>
    <path d="M 42.082831 148.378434 
L 20.228917 151.699776 
" clip-path="url(#p55fad9c6e5)" style="fill: #020202"/>
    <path d="M 42.103744 148.464188 
L 18.199669 156.587655 
" clip-path="url(#p55fad9c6e5)" style="fill: #020202"/>
    <path d="M 42.156745 148.573964 
L 21.836643 161.655937 
" clip-path="url(#p55fad9c6e5)" style="fill: #020202"/>
    <path d="M 42.291899 148.713952 
L 31.376375 164.427597 
" clip-path="url(#p55fad9c6e5)" style="fill: #020202"/>
    <path d="M 42.577154 148.803307 
L 42.577154 165.980822 
" clip-path="url(#p55fad9c6e5)" style="fill: #020202"/>
    <path d="M 42.86241 148.713952 
L 52.507403 162.598581 
" clip-path="url(#p55fad9c6e5)" style="fill: #020202"/>
    <path d="M 30.126142 147.835324 
C 39.028777 119.709993 12.153935 124.151773 29.632835 147.916856 
C 12.153935 124.151773 39.028777 119.709993 30.126142 147.835324 
" clip-path="url(#p55fad9c6e5)" style="fill: #020202"/>
    <path d="M 29.476687 148.464188 
L 20.208004 151.614021 
" clip-path="url(#p55fad9c6e5)" style="fill: #020202"/>
    <path d="M 29.529688 148.573964 
L 17.934668 156.038776 
" clip-path="url(#p55fad9c6e5)" style="fill: #020202"/>
    <path d="M 29.664842 148.713952 
L 21.160871 160.956001 
" clip-path="url(#p55fad9c6e5)" style="fill: #020202"/>
    <path d="M 29.950097 148.803307 
L 29.950097 163.980822 
" clip-path="url(#p55fad9c6e5)" style="fill: #020202"/>
    <path d="M 30.235353 148.713952 
L 42.291899 166.070177 
" clip-path="url(#p55fad9c6e5)" style="fill: #020202"/>
    <path d="M 30.370507 148.573964 
L 52.372248 162.738568 
" clip-path="url(#p55fad9c6e5)" style="fill: #020202"/>
    <path d="M 19.673729 151.278621 
C 14.529341 122.229932 -7.227361 138.619943 19.274369 151.579472 
C -7.227361 138.619943 14.529341 122.229932 19.673729 151.278621 
" clip-path="url(#p55fad9c6e5)" style="fill: #020202"/>
    <path d="M 19.449338 152.185548 
L 17.258896 155.33884 
" clip-path="url(#p55fad9c6e5)" style="fill: #020202"/>
    <path d="M 19.734594 152.274903 
L 19.734594 160.509225 
" clip-path="url(#p55fad9c6e5)" style="fill: #020202"/>
    <path d="M 20.019849 152.185548 
L 28.52382 164.427597 
" clip-path="url(#p55fad9c6e5)" style="fill: #020202"/>
    <path d="M 20.155004 152.045561 
L 42.156745 166.210164 
" clip-path="url(#p55fad9c6e5)" style="fill: #020202"/>
    <path d="M 20.208004 151.935785 
L 52.319248 162.848344 
" clip-path="url(#p55fad9c6e5)" style="fill: #020202"/>
    <path d="M 13.667555 156.142064 
C -10.897577 143.772349 -10.897577 171.011779 13.667555 158.642064 
C -10.897577 171.011779 -10.897577 143.772349 13.667555 156.142064 
" clip-path="url(#p55fad9c6e5)" style="fill: #020202"/>
    <path d="M 17.258896 159.445289 
L 18.308316 160.956001 
" clip-path="url(#p55fad9c6e5)" style="fill: #020202; stroke: #020202; stroke-width: 0.99"/>
    <path d="M 17.934668 158.745352 
L 27.848048 165.127534 
" clip-path="url(#p55fad9c6e5)" style="fill: #020202"/>
    <path d="M 18.199669 158.196473 
L 42.103744 166.31994 
" clip-path="url(#p55fad9c6e5)" style="fill: #020202; stroke: #020202; stroke-width: 0.99"/>
    <path d="M 18.304237 157.767699 
L 52.298334 162.934099 
" clip-path="url(#p55fad9c6e5)" style="fill: #020202; stroke: #020202; stroke-width: 0.99"/>
    <path d="M 17.43347 163.98638 
C -7.227361 176.164186 14.529341 192.554197 19.430272 165.490634 
C 14.529341 192.554197 -7.227361 176.164186 17.43347 163.98638 
" clip-path="url(#p55fad9c6e5)" style="fill: #020202"/>
    <path d="M 22.101644 163.813634 
L 27.583047 165.676413 
" clip-path="url(#p55fad9c6e5)" style="fill: #020202; stroke: #020202; stroke-width: 0.99"/>
    <path d="M 22.206212 163.38486 
L 42.082831 166.405695 
" clip-path="url(#p55fad9c6e5)" style="fill: #020202"/>
    <path d="M 22.234594 163.009225 
L 52.292658 163.009225 
" clip-path="url(#p55fad9c6e5)" style="fill: #020202"/>
    <path d="M 28.363783 168.413077 
C 12.153935 190.632356 39.028777 195.074136 30.830322 168.820738 
C 39.028777 195.074136 12.153935 190.632356 28.363783 168.413077 
" clip-path="url(#p55fad9c6e5)" style="fill: #020202"/>
    <path d="M 32.450097 166.480822 
L 42.077154 166.480822 
" clip-path="url(#p55fad9c6e5)" style="fill: #020202; stroke: #020202; stroke-width: 0.99"/>
    <path d="M 32.421716 166.105187 
L 52.298334 163.084352 
" clip-path="url(#p55fad9c6e5)" style="fill: #020202; stroke: #020202; stroke-width: 0.99"/>
    <path d="M 42.401109 166.948805 
C 33.498475 195.074136 60.373317 190.632356 42.894417 166.867273 
C 60.373317 190.632356 33.498475 195.074136 42.401109 166.948805 
" clip-path="url(#p55fad9c6e5)" style="fill: #020202"/>
    <path d="M 43.050564 166.31994 
L 52.319248 163.170107 
" clip-path="url(#p55fad9c6e5)" style="fill: #020202"/>
    <path d="M 52.853522 163.505507 
C 57.997911 192.554197 79.754613 176.164186 53.252883 163.204656 
C 79.754613 176.164186 57.997911 192.554197 52.853522 163.505507 
" clip-path="url(#p55fad9c6e5)" style="fill: #020202"/>
   </g>
   <g id="VertexCollection_5">
    <path d="M 56.694633 157.892064 
C 56.827235 157.892064 56.954423 157.839381 57.048187 157.745618 
C 57.14195 157.651854 57.194633 157.524666 57.194633 157.392064 
C 57.194633 157.259463 57.14195 157.132274 57.048187 157.038511 
C 56.954423 156.944747 56.827235 156.892064 56.694633 156.892064 
C 56.562032 156.892064 56.434843 156.944747 56.34108 157.038511 
C 56.247316 157.132274 56.194633 157.259463 56.194633 157.392064 
C 56.194633 157.524666 56.247316 157.651854 56.34108 157.745618 
C 56.434843 157.839381 56.562032 157.892064 56.694633 157.892064 
z
" clip-path="url(#p55fad9c6e5)" style="fill: #bebebe"/>
    <path d="M 52.792658 152.274903 
C 52.92526 152.274903 53.052448 152.22222 53.146212 152.128457 
C 53.239975 152.034693 53.292658 151.907505 53.292658 151.774903 
C 53.292658 151.642302 53.239975 151.515113 53.146212 151.42135 
C 53.052448 151.327586 52.92526 151.274903 52.792658 151.274903 
C 52.660057 151.274903 52.532868 151.327586 52.439105 151.42135 
C 52.345341 151.515113 52.292658 151.642302 52.292658 151.774903 
C 52.292658 151.907505 52.345341 152.034693 52.439105 152.128457 
C 52.532868 152.22222 52.660057 152.274903 52.792658 152.274903 
z
" clip-path="url(#p55fad9c6e5)" style="fill: #bebebe"/>
    <path d="M 42.577154 148.803307 
C 42.709756 148.803307 42.836944 148.750624 42.930708 148.65686 
C 43.024471 148.563097 43.077154 148.435908 43.077154 148.303307 
C 43.077154 148.170705 43.024471 148.043517 42.930708 147.949753 
C 42.836944 147.85599 42.709756 147.803307 42.577154 147.803307 
C 42.444553 147.803307 42.317364 147.85599 42.223601 147.949753 
C 42.129838 148.043517 42.077154 148.170705 42.077154 148.303307 
C 42.077154 148.435908 42.129838 148.563097 42.223601 148.65686 
C 42.317364 148.750624 42.444553 148.803307 42.577154 148.803307 
z
" clip-path="url(#p55fad9c6e5)" style="fill: #bebebe"/>
    <path d="M 29.950097 148.803307 
C 30.082699 148.803307 30.209887 148.750624 30.303651 148.65686 
C 30.397414 148.563097 30.450097 148.435908 30.450097 148.303307 
C 30.450097 148.170705 30.397414 148.043517 30.303651 147.949753 
C 30.209887 147.85599 30.082699 147.803307 29.950097 147.803307 
C 29.817496 147.803307 29.690307 147.85599 29.596544 147.949753 
C 29.502781 148.043517 29.450097 148.170705 29.450097 148.303307 
C 29.450097 148.435908 29.502781 148.563097 29.596544 148.65686 
C 29.690307 148.750624 29.817496 148.803307 29.950097 148.803307 
z
" clip-path="url(#p55fad9c6e5)" style="fill: #bebebe"/>
    <path d="M 19.734594 152.274903 
C 19.867195 152.274903 19.994384 152.22222 20.088147 152.128457 
C 20.181911 152.034693 20.234594 151.907505 20.234594 151.774903 
C 20.234594 151.642302 20.181911 151.515113 20.088147 151.42135 
C 19.994384 151.327586 19.867195 151.274903 19.734594 151.274903 
C 19.601992 151.274903 19.474804 151.327586 19.38104 151.42135 
C 19.287277 151.515113 19.234594 151.642302 19.234594 151.774903 
C 19.234594 151.907505 19.287277 152.034693 19.38104 152.128457 
C 19.474804 152.22222 19.601992 152.274903 19.734594 152.274903 
z
" clip-path="url(#p55fad9c6e5)" style="fill: #bebebe"/>
    <path d="M 15.832618 159.892064 
C 16.495626 159.892064 17.131568 159.628649 17.600385 159.159831 
C 18.069203 158.691014 18.332618 158.055072 18.332618 157.392064 
C 18.332618 156.729057 18.069203 156.093115 17.600385 155.624297 
C 17.131568 155.15548 16.495626 154.892064 15.832618 154.892064 
C 15.169611 154.892064 14.533669 155.15548 14.064852 155.624297 
C 13.596034 156.093115 13.332618 156.729057 13.332618 157.392064 
C 13.332618 158.055072 13.596034 158.691014 14.064852 159.159831 
C 14.533669 159.628649 15.169611 159.892064 15.832618 159.892064 
z
" clip-path="url(#p55fad9c6e5)" style="fill: #bebebe"/>
    <path d="M 19.734594 165.509225 
C 20.397601 165.509225 21.033543 165.24581 21.502361 164.776992 
C 21.971178 164.308175 22.234594 163.672233 22.234594 163.009225 
C 22.234594 162.346218 21.971178 161.710276 21.502361 161.241459 
C 21.033543 160.772641 20.397601 160.509225 19.734594 160.509225 
C 19.071586 160.509225 18.435644 160.772641 17.966827 161.241459 
C 17.498009 161.710276 17.234594 162.346218 17.234594 163.009225 
C 17.234594 163.672233 17.498009 164.308175 17.966827 164.776992 
C 18.435644 165.24581 19.071586 165.509225 19.734594 165.509225 
z
" clip-path="url(#p55fad9c6e5)" style="fill: #bebebe"/>
    <path d="M 29.950097 168.980822 
C 30.613105 168.980822 31.249047 168.717406 31.717864 168.248589 
C 32.186682 167.779772 32.450097 167.14383 32.450097 166.480822 
C 32.450097 165.817814 32.186682 165.181872 31.717864 164.713055 
C 31.249047 164.244238 30.613105 163.980822 29.950097 163.980822 
C 29.28709 163.980822 28.651148 164.244238 28.18233 164.713055 
C 27.713513 165.181872 27.450097 165.817814 27.450097 166.480822 
C 27.450097 167.14383 27.713513 167.779772 28.18233 168.248589 
C 28.651148 168.717406 29.28709 168.980822 29.950097 168.980822 
z
" clip-path="url(#p55fad9c6e5)" style="fill: #bebebe"/>
    <path d="M 42.577154 166.980822 
C 42.709756 166.980822 42.836944 166.928139 42.930708 166.834375 
C 43.024471 166.740612 43.077154 166.613424 43.077154 166.480822 
C 43.077154 166.34822 43.024471 166.221032 42.930708 166.127269 
C 42.836944 166.033505 42.709756 165.980822 42.577154 165.980822 
C 42.444553 165.980822 42.317364 166.033505 42.223601 166.127269 
C 42.129838 166.221032 42.077154 166.34822 42.077154 166.480822 
C 42.077154 166.613424 42.129838 166.740612 42.223601 166.834375 
C 42.317364 166.928139 42.444553 166.980822 42.577154 166.980822 
z
" clip-path="url(#p55fad9c6e5)" style="fill: #bebebe"/>
    <path d="M 52.792658 163.509225 
C 52.92526 163.509225 53.052448 163.456542 53.146212 163.362779 
C 53.239975 163.269015 53.292658 163.141827 53.292658 163.009225 
C 53.292658 162.876624 53.239975 162.749436 53.146212 162.655672 
C 53.052448 162.561909 52.92526 162.509225 52.792658 162.509225 
C 52.660057 162.509225 52.532868 162.561909 52.439105 162.655672 
C 52.345341 162.749436 52.292658 162.876624 52.292658 163.009225 
C 52.292658 163.141827 52.345341 163.269015 52.439105 163.362779 
C 52.532868 163.456542 52.660057 163.509225 52.792658 163.509225 
z
" clip-path="url(#p55fad9c6e5)" style="fill: #bebebe"/>
   </g>
   <g id="matplotlib.axis_9"/>
   <g id="matplotlib.axis_10"/>
  </g>
 </g>
 <defs>
  <clipPath id="p632b468435">
   <rect x="10.8" y="10.8" width="50.4" height="23.04"/>
  </clipPath>
  <clipPath id="p3ce2423845">
   <rect x="10.8" y="44.64" width="50.4" height="23.04"/>
  </clipPath>
  <clipPath id="p6556caf2a6">
   <rect x="10.8" y="78.48" width="50.4" height="23.04"/>
  </clipPath>
  <clipPath id="p77646f1630">
   <rect x="10.8" y="112.32" width="50.4" height="23.04"/>
  </clipPath>
  <clipPath id="p55fad9c6e5">
   <rect x="10.8" y="146.16" width="50.4" height="23.04"/>
  </clipPath>
 </defs>
</svg>
