<?xml version="1.0" encoding="utf-8" standalone="no"?>
<!DOCTYPE svg PUBLIC "-//W3C//DTD SVG 1.1//EN"
  "http://www.w3.org/Graphics/SVG/1.1/DTD/svg11.dtd">
<svg xmlns:xlink="http://www.w3.org/1999/xlink" width="72pt" height="180pt" viewBox="0 0 72 180" xmlns="http://www.w3.org/2000/svg" version="1.1">
 <metadata>
  <rdf:RDF xmlns:dc="http://purl.org/dc/elements/1.1/" xmlns:cc="http://creativecommons.org/ns#" xmlns:rdf="http://www.w3.org/1999/02/22-rdf-syntax-ns#">
   <cc:Work>
    <dc:type rdf:resource="http://purl.org/dc/dcmitype/StillImage"/>
    <dc:date>2025-06-06T13:44:39.435307</dc:date>
    <dc:format>image/svg+xml</dc:format>
    <dc:creator>
     <cc:Agent>
      <dc:title>Matplotlib v3.9.2, https://matplotlib.org/</dc:title>
     </cc:Agent>
    </dc:creator>
   </cc:Work>
  </rdf:RDF>
 </metadata>
 <defs>
  <style type="text/css">*{stroke-linejoin: round; stroke-linecap: butt}</style>
 </defs>
 <g id="figure_1">
  <g id="patch_1">
   <path d="M 0 180 
L 72 180 
L 72 0 
L 0 0 
z
" style="fill: #ffffff"/>
  </g>
  <g id="axes_1">
   <g id="patch_2">
    <path d="M 10.8 33.84 
L 61.2 33.84 
L 61.2 10.8 
L 10.8 10.8 
z
" style="fill: #ffffff"/>
   </g>
   <g id="EdgeCollection_1">
    <path d="M 58.332445 23.857936 
C 82.897577 36.227651 82.897577 8.988221 58.332445 21.357936 
C 82.897577 8.988221 82.897577 36.227651 58.332445 23.857936 
" clip-path="url(#p5d1efd7c85)" style="fill: #020202"/>
    <path d="M 54.741104 20.554711 
L 52.550662 17.401419 
" clip-path="url(#p5d1efd7c85)" style="fill: #020202"/>
    <path d="M 54.065332 21.254648 
L 44.151952 14.872466 
" clip-path="url(#p5d1efd7c85)" style="fill: #020202; stroke: #020202; stroke-width: 0.99"/>
    <path d="M 53.800331 21.803527 
L 31.789896 14.323587 
" clip-path="url(#p5d1efd7c85)" style="fill: #020202; stroke: #020202; stroke-width: 0.99"/>
    <path d="M 53.695763 22.232301 
L 19.701666 17.065901 
" clip-path="url(#p5d1efd7c85)" style="fill: #020202"/>
    <path d="M 53.667382 22.607936 
L 15.805367 22.607936 
" clip-path="url(#p5d1efd7c85)" style="fill: #020202"/>
    <path d="M 53.695763 22.983571 
L 21.67896 27.849462 
" clip-path="url(#p5d1efd7c85)" style="fill: #020202; stroke: #020202; stroke-width: 0.99"/>
    <path d="M 53.800331 23.412345 
L 29.896256 31.535812 
" clip-path="url(#p5d1efd7c85)" style="fill: #020202"/>
    <path d="M 54.065332 23.961224 
L 42.470312 31.426036 
" clip-path="url(#p5d1efd7c85)" style="fill: #020202"/>
    <path d="M 54.741104 24.66116 
L 52.550662 27.814452 
" clip-path="url(#p5d1efd7c85)" style="fill: #020202"/>
    <path d="M 52.725631 16.795344 
C 79.227361 3.835814 57.470659 -12.554197 52.326271 16.494493 
C 57.470659 -12.554197 79.227361 3.835814 52.725631 16.795344 
" clip-path="url(#p5d1efd7c85)" style="fill: #020202"/>
    <path d="M 51.791996 16.829893 
L 44.416953 14.323587 
" clip-path="url(#p5d1efd7c85)" style="fill: #020202"/>
    <path d="M 51.771083 16.915648 
L 31.894464 13.894813 
" clip-path="url(#p5d1efd7c85)" style="fill: #020202"/>
    <path d="M 51.765406 16.990775 
L 19.707342 16.990775 
" clip-path="url(#p5d1efd7c85)" style="fill: #020202"/>
    <path d="M 51.771083 17.065901 
L 15.79969 22.532809 
" clip-path="url(#p5d1efd7c85)" style="fill: #020202"/>
    <path d="M 51.791996 17.151656 
L 21.574392 27.420688 
" clip-path="url(#p5d1efd7c85)" style="fill: #020202"/>
    <path d="M 51.844996 17.261432 
L 29.843255 31.426036 
" clip-path="url(#p5d1efd7c85)" style="fill: #020202"/>
    <path d="M 51.980151 17.401419 
L 42.335158 31.286048 
" clip-path="url(#p5d1efd7c85)" style="fill: #020202"/>
    <path d="M 52.265406 17.490775 
L 52.265406 27.725097 
" clip-path="url(#p5d1efd7c85)" style="fill: #020202"/>
    <path d="M 43.636217 11.586923 
C 59.846065 -10.632356 32.971223 -15.074136 41.169678 11.179262 
C 32.971223 -15.074136 59.846065 -10.632356 43.636217 11.586923 
" clip-path="url(#p5d1efd7c85)" style="fill: #020202"/>
    <path d="M 39.549903 13.519178 
L 31.922846 13.519178 
" clip-path="url(#p5d1efd7c85)" style="fill: #020202; stroke: #020202; stroke-width: 0.99"/>
    <path d="M 39.578284 13.894813 
L 19.701666 16.915648 
" clip-path="url(#p5d1efd7c85)" style="fill: #020202"/>
    <path d="M 39.682853 14.323587 
L 15.778777 22.447054 
" clip-path="url(#p5d1efd7c85)" style="fill: #020202"/>
    <path d="M 39.947853 14.872466 
L 21.309391 26.871809 
" clip-path="url(#p5d1efd7c85)" style="fill: #020202; stroke: #020202; stroke-width: 0.99"/>
    <path d="M 40.623625 15.572403 
L 29.708101 31.286048 
" clip-path="url(#p5d1efd7c85)" style="fill: #020202"/>
    <path d="M 42.049903 16.019178 
L 42.049903 31.196693 
" clip-path="url(#p5d1efd7c85)" style="fill: #020202"/>
    <path d="M 43.47618 15.572403 
L 51.980151 27.814452 
" clip-path="url(#p5d1efd7c85)" style="fill: #020202"/>
    <path d="M 30.30307 11.179262 
C 38.501525 -15.074136 11.626683 -10.632356 27.836532 11.586923 
C 11.626683 -10.632356 38.501525 -15.074136 30.30307 11.179262 
" clip-path="url(#p5d1efd7c85)" style="fill: #020202"/>
    <path d="M 27.055795 14.323587 
L 19.680752 16.829893 
" clip-path="url(#p5d1efd7c85)" style="fill: #020202"/>
    <path d="M 27.320796 14.872466 
L 15.725777 22.337278 
" clip-path="url(#p5d1efd7c85)" style="fill: #020202"/>
    <path d="M 27.996568 15.572403 
L 20.63362 26.171872 
" clip-path="url(#p5d1efd7c85)" style="fill: #020202"/>
    <path d="M 29.422846 16.019178 
L 29.422846 31.196693 
" clip-path="url(#p5d1efd7c85)" style="fill: #020202"/>
    <path d="M 30.849123 15.572403 
L 41.764647 31.286048 
" clip-path="url(#p5d1efd7c85)" style="fill: #020202"/>
    <path d="M 31.524895 14.872466 
L 51.844996 27.954439 
" clip-path="url(#p5d1efd7c85)" style="fill: #020202; stroke: #020202; stroke-width: 0.99"/>
    <path d="M 19.146478 16.494493 
C 14.002089 -12.554197 -7.754613 3.835814 18.747117 16.795344 
C -7.754613 3.835814 14.002089 -12.554197 19.146478 16.494493 
" clip-path="url(#p5d1efd7c85)" style="fill: #020202"/>
    <path d="M 18.922086 17.401419 
L 15.590622 22.197291 
" clip-path="url(#p5d1efd7c85)" style="fill: #020202"/>
    <path d="M 19.207342 17.490775 
L 19.207342 25.725097 
" clip-path="url(#p5d1efd7c85)" style="fill: #020202"/>
    <path d="M 19.492597 17.401419 
L 29.13759 31.286048 
" clip-path="url(#p5d1efd7c85)" style="fill: #020202"/>
    <path d="M 19.627752 17.261432 
L 41.629493 31.426036 
" clip-path="url(#p5d1efd7c85)" style="fill: #020202"/>
    <path d="M 19.680752 17.151656 
L 51.791996 28.064215 
" clip-path="url(#p5d1efd7c85)" style="fill: #020202"/>
    <path d="M 14.872354 22.357936 
C -11.424829 8.988221 -11.424829 36.227651 14.872354 22.857936 
C -11.424829 36.227651 -11.424829 8.988221 14.872354 22.357936 
" clip-path="url(#p5d1efd7c85)" style="fill: #020202"/>
    <path d="M 15.590622 23.018581 
L 17.781064 26.171872 
" clip-path="url(#p5d1efd7c85)" style="fill: #020202"/>
    <path d="M 15.725777 22.878593 
L 29.002436 31.426036 
" clip-path="url(#p5d1efd7c85)" style="fill: #020202"/>
    <path d="M 15.778777 22.768817 
L 41.576493 31.535812 
" clip-path="url(#p5d1efd7c85)" style="fill: #020202"/>
    <path d="M 15.79969 22.683063 
L 51.771083 28.14997 
" clip-path="url(#p5d1efd7c85)" style="fill: #020202"/>
    <path d="M 16.906218 29.202251 
C -7.754613 41.380057 14.002089 57.770068 18.903021 30.706505 
C 14.002089 57.770068 -7.754613 41.380057 16.906218 29.202251 
" clip-path="url(#p5d1efd7c85)" style="fill: #020202"/>
    <path d="M 21.574392 29.029506 
L 28.949436 31.535812 
" clip-path="url(#p5d1efd7c85)" style="fill: #020202; stroke: #020202; stroke-width: 0.99"/>
    <path d="M 21.67896 28.600732 
L 41.555579 31.621566 
" clip-path="url(#p5d1efd7c85)" style="fill: #020202"/>
    <path d="M 21.707342 28.225097 
L 51.765406 28.225097 
" clip-path="url(#p5d1efd7c85)" style="fill: #020202"/>
    <path d="M 29.105583 32.083144 
C 11.626683 55.848227 38.501525 60.290007 29.598891 32.164676 
C 38.501525 60.290007 11.626683 55.848227 29.105583 32.083144 
" clip-path="url(#p5d1efd7c85)" style="fill: #020202"/>
    <path d="M 29.922846 31.696693 
L 41.549903 31.696693 
" clip-path="url(#p5d1efd7c85)" style="fill: #020202"/>
    <path d="M 29.917169 31.621566 
L 51.771083 28.300224 
" clip-path="url(#p5d1efd7c85)" style="fill: #020202"/>
    <path d="M 41.873858 32.164676 
C 32.971223 60.290007 59.846065 55.848227 42.367165 32.083144 
C 59.846065 55.848227 32.971223 60.290007 41.873858 32.164676 
" clip-path="url(#p5d1efd7c85)" style="fill: #020202"/>
    <path d="M 42.523313 31.535812 
L 51.791996 28.385979 
" clip-path="url(#p5d1efd7c85)" style="fill: #020202"/>
    <path d="M 52.326271 28.721379 
C 57.470659 57.770068 79.227361 41.380057 52.725631 28.420528 
C 79.227361 41.380057 57.470659 57.770068 52.326271 28.721379 
" clip-path="url(#p5d1efd7c85)" style="fill: #020202"/>
   </g>
   <g id="VertexCollection_1">
    <path d="M 56.167382 25.107936 
C 56.830389 25.107936 57.466331 24.84452 57.935148 24.375703 
C 58.403966 23.906885 58.667382 23.270943 58.667382 22.607936 
C 58.667382 21.944928 58.403966 21.308986 57.935148 20.840169 
C 57.466331 20.371351 56.830389 20.107936 56.167382 20.107936 
C 55.504374 20.107936 54.868432 20.371351 54.399615 20.840169 
C 53.930797 21.308986 53.667382 21.944928 53.667382 22.607936 
C 53.667382 23.270943 53.930797 23.906885 54.399615 24.375703 
C 54.868432 24.84452 55.504374 25.107936 56.167382 25.107936 
z
" clip-path="url(#p5d1efd7c85)" style="fill: #bebebe"/>
    <path d="M 52.265406 17.490775 
C 52.398008 17.490775 52.525196 17.438091 52.61896 17.344328 
C 52.712723 17.250564 52.765406 17.123376 52.765406 16.990775 
C 52.765406 16.858173 52.712723 16.730985 52.61896 16.637221 
C 52.525196 16.543458 52.398008 16.490775 52.265406 16.490775 
C 52.132805 16.490775 52.005616 16.543458 51.911853 16.637221 
C 51.818089 16.730985 51.765406 16.858173 51.765406 16.990775 
C 51.765406 17.123376 51.818089 17.250564 51.911853 17.344328 
C 52.005616 17.438091 52.132805 17.490775 52.265406 17.490775 
z
" clip-path="url(#p5d1efd7c85)" style="fill: #bebebe"/>
    <path d="M 42.049903 16.019178 
C 42.71291 16.019178 43.348852 15.755762 43.81767 15.286945 
C 44.286487 14.818128 44.549903 14.182186 44.549903 13.519178 
C 44.549903 12.85617 44.286487 12.220228 43.81767 11.751411 
C 43.348852 11.282594 42.71291 11.019178 42.049903 11.019178 
C 41.386895 11.019178 40.750953 11.282594 40.282136 11.751411 
C 39.813318 12.220228 39.549903 12.85617 39.549903 13.519178 
C 39.549903 14.182186 39.813318 14.818128 40.282136 15.286945 
C 40.750953 15.755762 41.386895 16.019178 42.049903 16.019178 
z
" clip-path="url(#p5d1efd7c85)" style="fill: #bebebe"/>
    <path d="M 29.422846 16.019178 
C 30.085853 16.019178 30.721795 15.755762 31.190613 15.286945 
C 31.65943 14.818128 31.922846 14.182186 31.922846 13.519178 
C 31.922846 12.85617 31.65943 12.220228 31.190613 11.751411 
C 30.721795 11.282594 30.085853 11.019178 29.422846 11.019178 
C 28.759838 11.019178 28.123896 11.282594 27.655079 11.751411 
C 27.186261 12.220228 26.922846 12.85617 26.922846 13.519178 
C 26.922846 14.182186 27.186261 14.818128 27.655079 15.286945 
C 28.123896 15.755762 28.759838 16.019178 29.422846 16.019178 
z
" clip-path="url(#p5d1efd7c85)" style="fill: #bebebe"/>
    <path d="M 19.207342 17.490775 
C 19.339943 17.490775 19.467132 17.438091 19.560895 17.344328 
C 19.654659 17.250564 19.707342 17.123376 19.707342 16.990775 
C 19.707342 16.858173 19.654659 16.730985 19.560895 16.637221 
C 19.467132 16.543458 19.339943 16.490775 19.207342 16.490775 
C 19.07474 16.490775 18.947552 16.543458 18.853788 16.637221 
C 18.760025 16.730985 18.707342 16.858173 18.707342 16.990775 
C 18.707342 17.123376 18.760025 17.250564 18.853788 17.344328 
C 18.947552 17.438091 19.07474 17.490775 19.207342 17.490775 
z
" clip-path="url(#p5d1efd7c85)" style="fill: #bebebe"/>
    <path d="M 15.305367 23.107936 
C 15.437968 23.107936 15.565157 23.055253 15.65892 22.961489 
C 15.752684 22.867726 15.805367 22.740537 15.805367 22.607936 
C 15.805367 22.475334 15.752684 22.348146 15.65892 22.254382 
C 15.565157 22.160619 15.437968 22.107936 15.305367 22.107936 
C 15.172765 22.107936 15.045577 22.160619 14.951813 22.254382 
C 14.85805 22.348146 14.805367 22.475334 14.805367 22.607936 
C 14.805367 22.740537 14.85805 22.867726 14.951813 22.961489 
C 15.045577 23.055253 15.172765 23.107936 15.305367 23.107936 
z
" clip-path="url(#p5d1efd7c85)" style="fill: #bebebe"/>
    <path d="M 19.207342 30.725097 
C 19.87035 30.725097 20.506292 30.461681 20.975109 29.992864 
C 21.443926 29.524046 21.707342 28.888105 21.707342 28.225097 
C 21.707342 27.562089 21.443926 26.926147 20.975109 26.45733 
C 20.506292 25.988513 19.87035 25.725097 19.207342 25.725097 
C 18.544334 25.725097 17.908392 25.988513 17.439575 26.45733 
C 16.970758 26.926147 16.707342 27.562089 16.707342 28.225097 
C 16.707342 28.888105 16.970758 29.524046 17.439575 29.992864 
C 17.908392 30.461681 18.544334 30.725097 19.207342 30.725097 
z
" clip-path="url(#p5d1efd7c85)" style="fill: #bebebe"/>
    <path d="M 29.422846 32.196693 
C 29.555447 32.196693 29.682636 32.14401 29.776399 32.050247 
C 29.870162 31.956483 29.922846 31.829295 29.922846 31.696693 
C 29.922846 31.564092 29.870162 31.436903 29.776399 31.34314 
C 29.682636 31.249376 29.555447 31.196693 29.422846 31.196693 
C 29.290244 31.196693 29.163056 31.249376 29.069292 31.34314 
C 28.975529 31.436903 28.922846 31.564092 28.922846 31.696693 
C 28.922846 31.829295 28.975529 31.956483 29.069292 32.050247 
C 29.163056 32.14401 29.290244 32.196693 29.422846 32.196693 
z
" clip-path="url(#p5d1efd7c85)" style="fill: #bebebe"/>
    <path d="M 42.049903 32.196693 
C 42.182504 32.196693 42.309693 32.14401 42.403456 32.050247 
C 42.497219 31.956483 42.549903 31.829295 42.549903 31.696693 
C 42.549903 31.564092 42.497219 31.436903 42.403456 31.34314 
C 42.309693 31.249376 42.182504 31.196693 42.049903 31.196693 
C 41.917301 31.196693 41.790113 31.249376 41.696349 31.34314 
C 41.602586 31.436903 41.549903 31.564092 41.549903 31.696693 
C 41.549903 31.829295 41.602586 31.956483 41.696349 32.050247 
C 41.790113 32.14401 41.917301 32.196693 42.049903 32.196693 
z
" clip-path="url(#p5d1efd7c85)" style="fill: #bebebe"/>
    <path d="M 52.265406 28.725097 
C 52.398008 28.725097 52.525196 28.672414 52.61896 28.57865 
C 52.712723 28.484887 52.765406 28.357698 52.765406 28.225097 
C 52.765406 28.092495 52.712723 27.965307 52.61896 27.871543 
C 52.525196 27.77778 52.398008 27.725097 52.265406 27.725097 
C 52.132805 27.725097 52.005616 27.77778 51.911853 27.871543 
C 51.818089 27.965307 51.765406 28.092495 51.765406 28.225097 
C 51.765406 28.357698 51.818089 28.484887 51.911853 28.57865 
C 52.005616 28.672414 52.132805 28.725097 52.265406 28.725097 
z
" clip-path="url(#p5d1efd7c85)" style="fill: #bebebe"/>
   </g>
   <g id="matplotlib.axis_1"/>
   <g id="matplotlib.axis_2"/>
  </g>
  <g id="axes_2">
   <g id="patch_3">
    <path d="M 10.8 67.68 
L 61.2 67.68 
L 61.2 44.64 
L 10.8 44.64 
z
" style="fill: #ffffff"/>
   </g>
   <g id="EdgeCollection_2">
    <path d="M 58.332445 57.697936 
C 82.897577 70.067651 82.897577 42.828221 58.332445 55.197936 
C 82.897577 42.828221 82.897577 70.067651 58.332445 57.697936 
" clip-path="url(#pf8f33e75b3)" style="fill: #020202"/>
    <path d="M 54.741104 54.394711 
L 52.550662 51.241419 
" clip-path="url(#pf8f33e75b3)" style="fill: #020202"/>
    <path d="M 54.065332 55.094648 
L 44.151952 48.712466 
" clip-path="url(#pf8f33e75b3)" style="fill: #020202; stroke: #020202; stroke-width: 0.99"/>
    <path d="M 53.800331 55.643527 
L 29.896256 47.52006 
" clip-path="url(#pf8f33e75b3)" style="fill: #020202; stroke: #020202; stroke-width: 0.99"/>
    <path d="M 53.695763 56.072301 
L 19.701666 50.905901 
" clip-path="url(#pf8f33e75b3)" style="fill: #020202"/>
    <path d="M 53.667382 56.447936 
L 15.805367 56.447936 
" clip-path="url(#pf8f33e75b3)" style="fill: #020202"/>
    <path d="M 53.695763 56.823571 
L 21.67896 61.689462 
" clip-path="url(#pf8f33e75b3)" style="fill: #020202; stroke: #020202; stroke-width: 0.99"/>
    <path d="M 53.800331 57.252345 
L 29.896256 65.375812 
" clip-path="url(#pf8f33e75b3)" style="fill: #020202"/>
    <path d="M 54.065332 57.801224 
L 42.470312 65.266036 
" clip-path="url(#pf8f33e75b3)" style="fill: #020202"/>
    <path d="M 54.741104 58.50116 
L 52.550662 61.654452 
" clip-path="url(#pf8f33e75b3)" style="fill: #020202"/>
    <path d="M 52.725631 50.635344 
C 79.227361 37.675814 57.470659 21.285803 52.326271 50.334493 
C 57.470659 21.285803 79.227361 37.675814 52.725631 50.635344 
" clip-path="url(#pf8f33e75b3)" style="fill: #020202"/>
    <path d="M 51.791996 50.669893 
L 44.416953 48.163587 
" clip-path="url(#pf8f33e75b3)" style="fill: #020202; stroke: #020202; stroke-width: 0.99"/>
    <path d="M 51.771083 50.755648 
L 29.917169 47.434305 
" clip-path="url(#pf8f33e75b3)" style="fill: #020202"/>
    <path d="M 51.765406 50.830775 
L 19.707342 50.830775 
" clip-path="url(#pf8f33e75b3)" style="fill: #020202"/>
    <path d="M 51.771083 50.905901 
L 15.79969 56.372809 
" clip-path="url(#pf8f33e75b3)" style="fill: #020202"/>
    <path d="M 51.791996 50.991656 
L 21.574392 61.260688 
" clip-path="url(#pf8f33e75b3)" style="fill: #020202; stroke: #020202; stroke-width: 0.99"/>
    <path d="M 51.844996 51.101432 
L 29.843255 65.266036 
" clip-path="url(#pf8f33e75b3)" style="fill: #020202"/>
    <path d="M 51.980151 51.241419 
L 42.335158 65.126048 
" clip-path="url(#pf8f33e75b3)" style="fill: #020202"/>
    <path d="M 52.265406 51.330775 
L 52.265406 61.565097 
" clip-path="url(#pf8f33e75b3)" style="fill: #020202"/>
    <path d="M 43.636217 45.426923 
C 59.846065 23.207644 32.971223 18.765864 41.169678 45.019262 
C 32.971223 18.765864 59.846065 23.207644 43.636217 45.426923 
" clip-path="url(#pf8f33e75b3)" style="fill: #020202"/>
    <path d="M 39.549903 47.359178 
L 29.922846 47.359178 
" clip-path="url(#pf8f33e75b3)" style="fill: #020202"/>
    <path d="M 39.578284 47.734813 
L 19.701666 50.755648 
" clip-path="url(#pf8f33e75b3)" style="fill: #020202"/>
    <path d="M 39.682853 48.163587 
L 15.778777 56.287054 
" clip-path="url(#pf8f33e75b3)" style="fill: #020202"/>
    <path d="M 39.947853 48.712466 
L 21.309391 60.711809 
" clip-path="url(#pf8f33e75b3)" style="fill: #020202; stroke: #020202; stroke-width: 0.99"/>
    <path d="M 40.623625 49.412403 
L 29.708101 65.126048 
" clip-path="url(#pf8f33e75b3)" style="fill: #020202"/>
    <path d="M 42.049903 49.859178 
L 42.049903 65.036693 
" clip-path="url(#pf8f33e75b3)" style="fill: #020202"/>
    <path d="M 43.47618 49.412403 
L 51.980151 61.654452 
" clip-path="url(#pf8f33e75b3)" style="fill: #020202"/>
    <path d="M 29.598891 46.891195 
C 38.501525 18.765864 11.626683 23.207644 29.105583 46.972727 
C 11.626683 23.207644 38.501525 18.765864 29.598891 46.891195 
" clip-path="url(#pf8f33e75b3)" style="fill: #020202"/>
    <path d="M 28.949436 47.52006 
L 19.680752 50.669893 
" clip-path="url(#pf8f33e75b3)" style="fill: #020202"/>
    <path d="M 29.002436 47.629836 
L 15.725777 56.177278 
" clip-path="url(#pf8f33e75b3)" style="fill: #020202"/>
    <path d="M 29.13759 47.769823 
L 20.63362 60.011872 
" clip-path="url(#pf8f33e75b3)" style="fill: #020202"/>
    <path d="M 29.422846 47.859178 
L 29.422846 65.036693 
" clip-path="url(#pf8f33e75b3)" style="fill: #020202"/>
    <path d="M 29.708101 47.769823 
L 41.764647 65.126048 
" clip-path="url(#pf8f33e75b3)" style="fill: #020202"/>
    <path d="M 29.843255 47.629836 
L 51.844996 61.794439 
" clip-path="url(#pf8f33e75b3)" style="fill: #020202; stroke: #020202; stroke-width: 0.99"/>
    <path d="M 19.146478 50.334493 
C 14.002089 21.285803 -7.754613 37.675814 18.747117 50.635344 
C -7.754613 37.675814 14.002089 21.285803 19.146478 50.334493 
" clip-path="url(#pf8f33e75b3)" style="fill: #020202"/>
    <path d="M 18.922086 51.241419 
L 15.590622 56.037291 
" clip-path="url(#pf8f33e75b3)" style="fill: #020202"/>
    <path d="M 19.207342 51.330775 
L 19.207342 59.565097 
" clip-path="url(#pf8f33e75b3)" style="fill: #020202"/>
    <path d="M 19.492597 51.241419 
L 29.13759 65.126048 
" clip-path="url(#pf8f33e75b3)" style="fill: #020202"/>
    <path d="M 19.627752 51.101432 
L 41.629493 65.266036 
" clip-path="url(#pf8f33e75b3)" style="fill: #020202"/>
    <path d="M 19.680752 50.991656 
L 51.791996 61.904215 
" clip-path="url(#pf8f33e75b3)" style="fill: #020202"/>
    <path d="M 14.872354 56.197936 
C -11.424829 42.828221 -11.424829 70.067651 14.872354 56.697936 
C -11.424829 70.067651 -11.424829 42.828221 14.872354 56.197936 
" clip-path="url(#pf8f33e75b3)" style="fill: #020202"/>
    <path d="M 15.590622 56.858581 
L 17.781064 60.011872 
" clip-path="url(#pf8f33e75b3)" style="fill: #020202"/>
    <path d="M 15.725777 56.718593 
L 29.002436 65.266036 
" clip-path="url(#pf8f33e75b3)" style="fill: #020202"/>
    <path d="M 15.778777 56.608817 
L 41.576493 65.375812 
" clip-path="url(#pf8f33e75b3)" style="fill: #020202"/>
    <path d="M 15.79969 56.523063 
L 51.771083 61.98997 
" clip-path="url(#pf8f33e75b3)" style="fill: #020202"/>
    <path d="M 16.906218 63.042251 
C -7.754613 75.220057 14.002089 91.610068 18.903021 64.546505 
C 14.002089 91.610068 -7.754613 75.220057 16.906218 63.042251 
" clip-path="url(#pf8f33e75b3)" style="fill: #020202"/>
    <path d="M 21.574392 62.869506 
L 28.949436 65.375812 
" clip-path="url(#pf8f33e75b3)" style="fill: #020202"/>
    <path d="M 21.67896 62.440732 
L 41.555579 65.461566 
" clip-path="url(#pf8f33e75b3)" style="fill: #020202"/>
    <path d="M 21.707342 62.065097 
L 51.765406 62.065097 
" clip-path="url(#pf8f33e75b3)" style="fill: #020202"/>
    <path d="M 29.105583 65.923144 
C 11.626683 89.688227 38.501525 94.130007 29.598891 66.004676 
C 38.501525 94.130007 11.626683 89.688227 29.105583 65.923144 
" clip-path="url(#pf8f33e75b3)" style="fill: #020202"/>
    <path d="M 29.922846 65.536693 
L 41.549903 65.536693 
" clip-path="url(#pf8f33e75b3)" style="fill: #020202; stroke: #020202; stroke-width: 0.99"/>
    <path d="M 29.917169 65.461566 
L 51.771083 62.140224 
" clip-path="url(#pf8f33e75b3)" style="fill: #020202"/>
    <path d="M 41.873858 66.004676 
C 32.971223 94.130007 59.846065 89.688227 42.367165 65.923144 
C 59.846065 89.688227 32.971223 94.130007 41.873858 66.004676 
" clip-path="url(#pf8f33e75b3)" style="fill: #020202"/>
    <path d="M 42.523313 65.375812 
L 51.791996 62.225979 
" clip-path="url(#pf8f33e75b3)" style="fill: #020202"/>
    <path d="M 52.326271 62.561379 
C 57.470659 91.610068 79.227361 75.220057 52.725631 62.260528 
C 79.227361 75.220057 57.470659 91.610068 52.326271 62.561379 
" clip-path="url(#pf8f33e75b3)" style="fill: #020202"/>
   </g>
   <g id="VertexCollection_2">
    <path d="M 56.167382 58.947936 
C 56.830389 58.947936 57.466331 58.68452 57.935148 58.215703 
C 58.403966 57.746885 58.667382 57.110943 58.667382 56.447936 
C 58.667382 55.784928 58.403966 55.148986 57.935148 54.680169 
C 57.466331 54.211351 56.830389 53.947936 56.167382 53.947936 
C 55.504374 53.947936 54.868432 54.211351 54.399615 54.680169 
C 53.930797 55.148986 53.667382 55.784928 53.667382 56.447936 
C 53.667382 57.110943 53.930797 57.746885 54.399615 58.215703 
C 54.868432 58.68452 55.504374 58.947936 56.167382 58.947936 
z
" clip-path="url(#pf8f33e75b3)" style="fill: #bebebe"/>
    <path d="M 52.265406 51.330775 
C 52.398008 51.330775 52.525196 51.278091 52.61896 51.184328 
C 52.712723 51.090564 52.765406 50.963376 52.765406 50.830775 
C 52.765406 50.698173 52.712723 50.570985 52.61896 50.477221 
C 52.525196 50.383458 52.398008 50.330775 52.265406 50.330775 
C 52.132805 50.330775 52.005616 50.383458 51.911853 50.477221 
C 51.818089 50.570985 51.765406 50.698173 51.765406 50.830775 
C 51.765406 50.963376 51.818089 51.090564 51.911853 51.184328 
C 52.005616 51.278091 52.132805 51.330775 52.265406 51.330775 
z
" clip-path="url(#pf8f33e75b3)" style="fill: #bebebe"/>
    <path d="M 42.049903 49.859178 
C 42.71291 49.859178 43.348852 49.595762 43.81767 49.126945 
C 44.286487 48.658128 44.549903 48.022186 44.549903 47.359178 
C 44.549903 46.69617 44.286487 46.060228 43.81767 45.591411 
C 43.348852 45.122594 42.71291 44.859178 42.049903 44.859178 
C 41.386895 44.859178 40.750953 45.122594 40.282136 45.591411 
C 39.813318 46.060228 39.549903 46.69617 39.549903 47.359178 
C 39.549903 48.022186 39.813318 48.658128 40.282136 49.126945 
C 40.750953 49.595762 41.386895 49.859178 42.049903 49.859178 
z
" clip-path="url(#pf8f33e75b3)" style="fill: #bebebe"/>
    <path d="M 29.422846 47.859178 
C 29.555447 47.859178 29.682636 47.806495 29.776399 47.712731 
C 29.870162 47.618968 29.922846 47.49178 29.922846 47.359178 
C 29.922846 47.226576 29.870162 47.099388 29.776399 47.005625 
C 29.682636 46.911861 29.555447 46.859178 29.422846 46.859178 
C 29.290244 46.859178 29.163056 46.911861 29.069292 47.005625 
C 28.975529 47.099388 28.922846 47.226576 28.922846 47.359178 
C 28.922846 47.49178 28.975529 47.618968 29.069292 47.712731 
C 29.163056 47.806495 29.290244 47.859178 29.422846 47.859178 
z
" clip-path="url(#pf8f33e75b3)" style="fill: #bebebe"/>
    <path d="M 19.207342 51.330775 
C 19.339943 51.330775 19.467132 51.278091 19.560895 51.184328 
C 19.654659 51.090564 19.707342 50.963376 19.707342 50.830775 
C 19.707342 50.698173 19.654659 50.570985 19.560895 50.477221 
C 19.467132 50.383458 19.339943 50.330775 19.207342 50.330775 
C 19.07474 50.330775 18.947552 50.383458 18.853788 50.477221 
C 18.760025 50.570985 18.707342 50.698173 18.707342 50.830775 
C 18.707342 50.963376 18.760025 51.090564 18.853788 51.184328 
C 18.947552 51.278091 19.07474 51.330775 19.207342 51.330775 
z
" clip-path="url(#pf8f33e75b3)" style="fill: #bebebe"/>
    <path d="M 15.305367 56.947936 
C 15.437968 56.947936 15.565157 56.895253 15.65892 56.801489 
C 15.752684 56.707726 15.805367 56.580537 15.805367 56.447936 
C 15.805367 56.315334 15.752684 56.188146 15.65892 56.094382 
C 15.565157 56.000619 15.437968 55.947936 15.305367 55.947936 
C 15.172765 55.947936 15.045577 56.000619 14.951813 56.094382 
C 14.85805 56.188146 14.805367 56.315334 14.805367 56.447936 
C 14.805367 56.580537 14.85805 56.707726 14.951813 56.801489 
C 15.045577 56.895253 15.172765 56.947936 15.305367 56.947936 
z
" clip-path="url(#pf8f33e75b3)" style="fill: #bebebe"/>
    <path d="M 19.207342 64.565097 
C 19.87035 64.565097 20.506292 64.301681 20.975109 63.832864 
C 21.443926 63.364046 21.707342 62.728105 21.707342 62.065097 
C 21.707342 61.402089 21.443926 60.766147 20.975109 60.29733 
C 20.506292 59.828513 19.87035 59.565097 19.207342 59.565097 
C 18.544334 59.565097 17.908392 59.828513 17.439575 60.29733 
C 16.970758 60.766147 16.707342 61.402089 16.707342 62.065097 
C 16.707342 62.728105 16.970758 63.364046 17.439575 63.832864 
C 17.908392 64.301681 18.544334 64.565097 19.207342 64.565097 
z
" clip-path="url(#pf8f33e75b3)" style="fill: #bebebe"/>
    <path d="M 29.422846 66.036693 
C 29.555447 66.036693 29.682636 65.98401 29.776399 65.890247 
C 29.870162 65.796483 29.922846 65.669295 29.922846 65.536693 
C 29.922846 65.404092 29.870162 65.276903 29.776399 65.18314 
C 29.682636 65.089376 29.555447 65.036693 29.422846 65.036693 
C 29.290244 65.036693 29.163056 65.089376 29.069292 65.18314 
C 28.975529 65.276903 28.922846 65.404092 28.922846 65.536693 
C 28.922846 65.669295 28.975529 65.796483 29.069292 65.890247 
C 29.163056 65.98401 29.290244 66.036693 29.422846 66.036693 
z
" clip-path="url(#pf8f33e75b3)" style="fill: #bebebe"/>
    <path d="M 42.049903 66.036693 
C 42.182504 66.036693 42.309693 65.98401 42.403456 65.890247 
C 42.497219 65.796483 42.549903 65.669295 42.549903 65.536693 
C 42.549903 65.404092 42.497219 65.276903 42.403456 65.18314 
C 42.309693 65.089376 42.182504 65.036693 42.049903 65.036693 
C 41.917301 65.036693 41.790113 65.089376 41.696349 65.18314 
C 41.602586 65.276903 41.549903 65.404092 41.549903 65.536693 
C 41.549903 65.669295 41.602586 65.796483 41.696349 65.890247 
C 41.790113 65.98401 41.917301 66.036693 42.049903 66.036693 
z
" clip-path="url(#pf8f33e75b3)" style="fill: #bebebe"/>
    <path d="M 52.265406 62.565097 
C 52.398008 62.565097 52.525196 62.512414 52.61896 62.41865 
C 52.712723 62.324887 52.765406 62.197698 52.765406 62.065097 
C 52.765406 61.932495 52.712723 61.805307 52.61896 61.711543 
C 52.525196 61.61778 52.398008 61.565097 52.265406 61.565097 
C 52.132805 61.565097 52.005616 61.61778 51.911853 61.711543 
C 51.818089 61.805307 51.765406 61.932495 51.765406 62.065097 
C 51.765406 62.197698 51.818089 62.324887 51.911853 62.41865 
C 52.005616 62.512414 52.132805 62.565097 52.265406 62.565097 
z
" clip-path="url(#pf8f33e75b3)" style="fill: #bebebe"/>
   </g>
   <g id="matplotlib.axis_3"/>
   <g id="matplotlib.axis_4"/>
  </g>
  <g id="axes_3">
   <g id="patch_4">
    <path d="M 10.8 101.52 
L 61.2 101.52 
L 61.2 78.48 
L 10.8 78.48 
z
" style="fill: #ffffff"/>
   </g>
   <g id="EdgeCollection_3">
    <path d="M 58.332445 91.537936 
C 82.897577 103.907651 82.897577 76.668221 58.332445 89.037936 
C 82.897577 76.668221 82.897577 103.907651 58.332445 91.537936 
" clip-path="url(#pd76153263d)" style="fill: #020202"/>
    <path d="M 54.741104 88.234711 
L 52.550662 85.081419 
" clip-path="url(#pd76153263d)" style="fill: #020202"/>
    <path d="M 54.065332 88.934648 
L 42.470312 81.469836 
" clip-path="url(#pd76153263d)" style="fill: #020202"/>
    <path d="M 53.800331 89.483527 
L 31.789896 82.003587 
" clip-path="url(#pd76153263d)" style="fill: #020202; stroke: #020202; stroke-width: 0.99"/>
    <path d="M 53.695763 89.912301 
L 19.701666 84.745901 
" clip-path="url(#pd76153263d)" style="fill: #020202"/>
    <path d="M 53.667382 90.287936 
L 15.805367 90.287936 
" clip-path="url(#pd76153263d)" style="fill: #020202"/>
    <path d="M 53.695763 90.663571 
L 21.67896 95.529462 
" clip-path="url(#pd76153263d)" style="fill: #020202; stroke: #020202; stroke-width: 0.99"/>
    <path d="M 53.800331 91.092345 
L 29.896256 99.215812 
" clip-path="url(#pd76153263d)" style="fill: #020202"/>
    <path d="M 54.065332 91.641224 
L 42.470312 99.106036 
" clip-path="url(#pd76153263d)" style="fill: #020202"/>
    <path d="M 54.741104 92.34116 
L 53.691684 93.851872 
" clip-path="url(#pd76153263d)" style="fill: #020202; stroke: #020202; stroke-width: 0.99"/>
    <path d="M 52.725631 84.475344 
C 79.227361 71.515814 57.470659 55.125803 52.326271 84.174493 
C 57.470659 55.125803 79.227361 71.515814 52.725631 84.475344 
" clip-path="url(#pd76153263d)" style="fill: #020202"/>
    <path d="M 51.791996 84.509893 
L 42.523313 81.36006 
" clip-path="url(#pd76153263d)" style="fill: #020202"/>
    <path d="M 51.771083 84.595648 
L 31.894464 81.574813 
" clip-path="url(#pd76153263d)" style="fill: #020202"/>
    <path d="M 51.765406 84.670775 
L 19.707342 84.670775 
" clip-path="url(#pd76153263d)" style="fill: #020202"/>
    <path d="M 51.771083 84.745901 
L 15.79969 90.212809 
" clip-path="url(#pd76153263d)" style="fill: #020202"/>
    <path d="M 51.791996 84.831656 
L 21.574392 95.100688 
" clip-path="url(#pd76153263d)" style="fill: #020202; stroke: #020202; stroke-width: 0.99"/>
    <path d="M 51.844996 84.941432 
L 29.843255 99.106036 
" clip-path="url(#pd76153263d)" style="fill: #020202"/>
    <path d="M 51.980151 85.081419 
L 42.335158 98.966048 
" clip-path="url(#pd76153263d)" style="fill: #020202"/>
    <path d="M 52.265406 85.170775 
L 52.265406 93.405097 
" clip-path="url(#pd76153263d)" style="fill: #020202"/>
    <path d="M 42.367165 80.812727 
C 59.846065 57.047644 32.971223 52.605864 41.873858 80.731195 
C 32.971223 52.605864 59.846065 57.047644 42.367165 80.812727 
" clip-path="url(#pd76153263d)" style="fill: #020202"/>
    <path d="M 41.549903 81.199178 
L 31.922846 81.199178 
" clip-path="url(#pd76153263d)" style="fill: #020202; stroke: #020202; stroke-width: 0.99"/>
    <path d="M 41.555579 81.274305 
L 19.701666 84.595648 
" clip-path="url(#pd76153263d)" style="fill: #020202"/>
    <path d="M 41.576493 81.36006 
L 15.778777 90.127054 
" clip-path="url(#pd76153263d)" style="fill: #020202"/>
    <path d="M 41.629493 81.469836 
L 21.309391 94.551809 
" clip-path="url(#pd76153263d)" style="fill: #020202; stroke: #020202; stroke-width: 0.99"/>
    <path d="M 41.764647 81.609823 
L 29.708101 98.966048 
" clip-path="url(#pd76153263d)" style="fill: #020202"/>
    <path d="M 42.049903 81.699178 
L 42.049903 98.876693 
" clip-path="url(#pd76153263d)" style="fill: #020202"/>
    <path d="M 42.335158 81.609823 
L 50.839129 93.851872 
" clip-path="url(#pd76153263d)" style="fill: #020202"/>
    <path d="M 30.30307 78.859262 
C 38.501525 52.605864 11.626683 57.047644 27.836532 79.266923 
C 11.626683 57.047644 38.501525 52.605864 30.30307 78.859262 
" clip-path="url(#pd76153263d)" style="fill: #020202"/>
    <path d="M 27.055795 82.003587 
L 19.680752 84.509893 
" clip-path="url(#pd76153263d)" style="fill: #020202"/>
    <path d="M 27.320796 82.552466 
L 15.725777 90.017278 
" clip-path="url(#pd76153263d)" style="fill: #020202"/>
    <path d="M 27.996568 83.252403 
L 20.63362 93.851872 
" clip-path="url(#pd76153263d)" style="fill: #020202"/>
    <path d="M 29.422846 83.699178 
L 29.422846 98.876693 
" clip-path="url(#pd76153263d)" style="fill: #020202"/>
    <path d="M 30.849123 83.252403 
L 41.764647 98.966048 
" clip-path="url(#pd76153263d)" style="fill: #020202"/>
    <path d="M 31.524895 82.552466 
L 50.163357 94.551809 
" clip-path="url(#pd76153263d)" style="fill: #020202; stroke: #020202; stroke-width: 0.99"/>
    <path d="M 19.146478 84.174493 
C 14.002089 55.125803 -7.754613 71.515814 18.747117 84.475344 
C -7.754613 71.515814 14.002089 55.125803 19.146478 84.174493 
" clip-path="url(#pd76153263d)" style="fill: #020202"/>
    <path d="M 18.922086 85.081419 
L 15.590622 89.877291 
" clip-path="url(#pd76153263d)" style="fill: #020202"/>
    <path d="M 19.207342 85.170775 
L 19.207342 93.405097 
" clip-path="url(#pd76153263d)" style="fill: #020202"/>
    <path d="M 19.492597 85.081419 
L 29.13759 98.966048 
" clip-path="url(#pd76153263d)" style="fill: #020202"/>
    <path d="M 19.627752 84.941432 
L 41.629493 99.106036 
" clip-path="url(#pd76153263d)" style="fill: #020202"/>
    <path d="M 19.680752 84.831656 
L 49.898356 95.100688 
" clip-path="url(#pd76153263d)" style="fill: #020202"/>
    <path d="M 14.872354 90.037936 
C -11.424829 76.668221 -11.424829 103.907651 14.872354 90.537936 
C -11.424829 103.907651 -11.424829 76.668221 14.872354 90.037936 
" clip-path="url(#pd76153263d)" style="fill: #020202"/>
    <path d="M 15.590622 90.698581 
L 17.781064 93.851872 
" clip-path="url(#pd76153263d)" style="fill: #020202"/>
    <path d="M 15.725777 90.558593 
L 29.002436 99.106036 
" clip-path="url(#pd76153263d)" style="fill: #020202"/>
    <path d="M 15.778777 90.448817 
L 41.576493 99.215812 
" clip-path="url(#pd76153263d)" style="fill: #020202"/>
    <path d="M 15.79969 90.363063 
L 49.793788 95.529462 
" clip-path="url(#pd76153263d)" style="fill: #020202"/>
    <path d="M 16.906218 96.882251 
C -7.754613 109.060057 14.002089 125.450068 18.903021 98.386505 
C 14.002089 125.450068 -7.754613 109.060057 16.906218 96.882251 
" clip-path="url(#pd76153263d)" style="fill: #020202"/>
    <path d="M 21.574392 96.709506 
L 28.949436 99.215812 
" clip-path="url(#pd76153263d)" style="fill: #020202"/>
    <path d="M 21.67896 96.280732 
L 41.555579 99.301566 
" clip-path="url(#pd76153263d)" style="fill: #020202"/>
    <path d="M 21.707342 95.905097 
L 49.765406 95.905097 
" clip-path="url(#pd76153263d)" style="fill: #020202"/>
    <path d="M 29.105583 99.763144 
C 11.626683 123.528227 38.501525 127.970007 29.598891 99.844676 
C 38.501525 127.970007 11.626683 123.528227 29.105583 99.763144 
" clip-path="url(#pd76153263d)" style="fill: #020202"/>
    <path d="M 29.922846 99.376693 
L 41.549903 99.376693 
" clip-path="url(#pd76153263d)" style="fill: #020202; stroke: #020202; stroke-width: 0.99"/>
    <path d="M 29.917169 99.301566 
L 49.793788 96.280732 
" clip-path="url(#pd76153263d)" style="fill: #020202"/>
    <path d="M 41.873858 99.844676 
C 32.971223 127.970007 59.846065 123.528227 42.367165 99.763144 
C 59.846065 123.528227 32.971223 127.970007 41.873858 99.844676 
" clip-path="url(#pd76153263d)" style="fill: #020202"/>
    <path d="M 42.523313 99.215812 
L 49.898356 96.709506 
" clip-path="url(#pd76153263d)" style="fill: #020202; stroke: #020202; stroke-width: 0.99"/>
    <path d="M 52.569728 98.386505 
C 57.470659 125.450068 79.227361 109.060057 54.56653 96.882251 
C 79.227361 109.060057 57.470659 125.450068 52.569728 98.386505 
" clip-path="url(#pd76153263d)" style="fill: #020202"/>
   </g>
   <g id="VertexCollection_3">
    <path d="M 56.167382 92.787936 
C 56.830389 92.787936 57.466331 92.52452 57.935148 92.055703 
C 58.403966 91.586885 58.667382 90.950943 58.667382 90.287936 
C 58.667382 89.624928 58.403966 88.988986 57.935148 88.520169 
C 57.466331 88.051351 56.830389 87.787936 56.167382 87.787936 
C 55.504374 87.787936 54.868432 88.051351 54.399615 88.520169 
C 53.930797 88.988986 53.667382 89.624928 53.667382 90.287936 
C 53.667382 90.950943 53.930797 91.586885 54.399615 92.055703 
C 54.868432 92.52452 55.504374 92.787936 56.167382 92.787936 
z
" clip-path="url(#pd76153263d)" style="fill: #bebebe"/>
    <path d="M 52.265406 85.170775 
C 52.398008 85.170775 52.525196 85.118091 52.61896 85.024328 
C 52.712723 84.930564 52.765406 84.803376 52.765406 84.670775 
C 52.765406 84.538173 52.712723 84.410985 52.61896 84.317221 
C 52.525196 84.223458 52.398008 84.170775 52.265406 84.170775 
C 52.132805 84.170775 52.005616 84.223458 51.911853 84.317221 
C 51.818089 84.410985 51.765406 84.538173 51.765406 84.670775 
C 51.765406 84.803376 51.818089 84.930564 51.911853 85.024328 
C 52.005616 85.118091 52.132805 85.170775 52.265406 85.170775 
z
" clip-path="url(#pd76153263d)" style="fill: #bebebe"/>
    <path d="M 42.049903 81.699178 
C 42.182504 81.699178 42.309693 81.646495 42.403456 81.552731 
C 42.497219 81.458968 42.549903 81.33178 42.549903 81.199178 
C 42.549903 81.066576 42.497219 80.939388 42.403456 80.845625 
C 42.309693 80.751861 42.182504 80.699178 42.049903 80.699178 
C 41.917301 80.699178 41.790113 80.751861 41.696349 80.845625 
C 41.602586 80.939388 41.549903 81.066576 41.549903 81.199178 
C 41.549903 81.33178 41.602586 81.458968 41.696349 81.552731 
C 41.790113 81.646495 41.917301 81.699178 42.049903 81.699178 
z
" clip-path="url(#pd76153263d)" style="fill: #bebebe"/>
    <path d="M 29.422846 83.699178 
C 30.085853 83.699178 30.721795 83.435762 31.190613 82.966945 
C 31.65943 82.498128 31.922846 81.862186 31.922846 81.199178 
C 31.922846 80.53617 31.65943 79.900228 31.190613 79.431411 
C 30.721795 78.962594 30.085853 78.699178 29.422846 78.699178 
C 28.759838 78.699178 28.123896 78.962594 27.655079 79.431411 
C 27.186261 79.900228 26.922846 80.53617 26.922846 81.199178 
C 26.922846 81.862186 27.186261 82.498128 27.655079 82.966945 
C 28.123896 83.435762 28.759838 83.699178 29.422846 83.699178 
z
" clip-path="url(#pd76153263d)" style="fill: #bebebe"/>
    <path d="M 19.207342 85.170775 
C 19.339943 85.170775 19.467132 85.118091 19.560895 85.024328 
C 19.654659 84.930564 19.707342 84.803376 19.707342 84.670775 
C 19.707342 84.538173 19.654659 84.410985 19.560895 84.317221 
C 19.467132 84.223458 19.339943 84.170775 19.207342 84.170775 
C 19.07474 84.170775 18.947552 84.223458 18.853788 84.317221 
C 18.760025 84.410985 18.707342 84.538173 18.707342 84.670775 
C 18.707342 84.803376 18.760025 84.930564 18.853788 85.024328 
C 18.947552 85.118091 19.07474 85.170775 19.207342 85.170775 
z
" clip-path="url(#pd76153263d)" style="fill: #bebebe"/>
    <path d="M 15.305367 90.787936 
C 15.437968 90.787936 15.565157 90.735253 15.65892 90.641489 
C 15.752684 90.547726 15.805367 90.420537 15.805367 90.287936 
C 15.805367 90.155334 15.752684 90.028146 15.65892 89.934382 
C 15.565157 89.840619 15.437968 89.787936 15.305367 89.787936 
C 15.172765 89.787936 15.045577 89.840619 14.951813 89.934382 
C 14.85805 90.028146 14.805367 90.155334 14.805367 90.287936 
C 14.805367 90.420537 14.85805 90.547726 14.951813 90.641489 
C 15.045577 90.735253 15.172765 90.787936 15.305367 90.787936 
z
" clip-path="url(#pd76153263d)" style="fill: #bebebe"/>
    <path d="M 19.207342 98.405097 
C 19.87035 98.405097 20.506292 98.141681 20.975109 97.672864 
C 21.443926 97.204046 21.707342 96.568105 21.707342 95.905097 
C 21.707342 95.242089 21.443926 94.606147 20.975109 94.13733 
C 20.506292 93.668513 19.87035 93.405097 19.207342 93.405097 
C 18.544334 93.405097 17.908392 93.668513 17.439575 94.13733 
C 16.970758 94.606147 16.707342 95.242089 16.707342 95.905097 
C 16.707342 96.568105 16.970758 97.204046 17.439575 97.672864 
C 17.908392 98.141681 18.544334 98.405097 19.207342 98.405097 
z
" clip-path="url(#pd76153263d)" style="fill: #bebebe"/>
    <path d="M 29.422846 99.876693 
C 29.555447 99.876693 29.682636 99.82401 29.776399 99.730247 
C 29.870162 99.636483 29.922846 99.509295 29.922846 99.376693 
C 29.922846 99.244092 29.870162 99.116903 29.776399 99.02314 
C 29.682636 98.929376 29.555447 98.876693 29.422846 98.876693 
C 29.290244 98.876693 29.163056 98.929376 29.069292 99.02314 
C 28.975529 99.116903 28.922846 99.244092 28.922846 99.376693 
C 28.922846 99.509295 28.975529 99.636483 29.069292 99.730247 
C 29.163056 99.82401 29.290244 99.876693 29.422846 99.876693 
z
" clip-path="url(#pd76153263d)" style="fill: #bebebe"/>
    <path d="M 42.049903 99.876693 
C 42.182504 99.876693 42.309693 99.82401 42.403456 99.730247 
C 42.497219 99.636483 42.549903 99.509295 42.549903 99.376693 
C 42.549903 99.244092 42.497219 99.116903 42.403456 99.02314 
C 42.309693 98.929376 42.182504 98.876693 42.049903 98.876693 
C 41.917301 98.876693 41.790113 98.929376 41.696349 99.02314 
C 41.602586 99.116903 41.549903 99.244092 41.549903 99.376693 
C 41.549903 99.509295 41.602586 99.636483 41.696349 99.730247 
C 41.790113 99.82401 41.917301 99.876693 42.049903 99.876693 
z
" clip-path="url(#pd76153263d)" style="fill: #bebebe"/>
    <path d="M 52.265406 98.405097 
C 52.928414 98.405097 53.564356 98.141681 54.033173 97.672864 
C 54.501991 97.204046 54.765406 96.568105 54.765406 95.905097 
C 54.765406 95.242089 54.501991 94.606147 54.033173 94.13733 
C 53.564356 93.668513 52.928414 93.405097 52.265406 93.405097 
C 51.602399 93.405097 50.966457 93.668513 50.497639 94.13733 
C 50.028822 94.606147 49.765406 95.242089 49.765406 95.905097 
C 49.765406 96.568105 50.028822 97.204046 50.497639 97.672864 
C 50.966457 98.141681 51.602399 98.405097 52.265406 98.405097 
z
" clip-path="url(#pd76153263d)" style="fill: #bebebe"/>
   </g>
   <g id="matplotlib.axis_5"/>
   <g id="matplotlib.axis_6"/>
  </g>
  <g id="axes_4">
   <g id="patch_5">
    <path d="M 10.8 135.36 
L 61.2 135.36 
L 61.2 112.32 
L 10.8 112.32 
z
" style="fill: #ffffff"/>
   </g>
   <g id="EdgeCollection_4">
    <path d="M 58.332445 124.802064 
C 82.897577 137.171779 82.897577 109.932349 58.332445 122.302064 
C 82.897577 109.932349 82.897577 137.171779 58.332445 124.802064 
" clip-path="url(#pf75ca4f5a3)" style="fill: #020202"/>
    <path d="M 54.741104 121.49884 
L 52.550662 118.345548 
" clip-path="url(#pf75ca4f5a3)" style="fill: #020202"/>
    <path d="M 54.065332 122.198776 
L 42.470312 114.733964 
" clip-path="url(#pf75ca4f5a3)" style="fill: #020202; stroke: #020202; stroke-width: 0.99"/>
    <path d="M 53.800331 122.747655 
L 29.896256 114.624188 
" clip-path="url(#pf75ca4f5a3)" style="fill: #020202; stroke: #020202; stroke-width: 0.99"/>
    <path d="M 53.695763 123.176429 
L 19.701666 118.01003 
" clip-path="url(#pf75ca4f5a3)" style="fill: #020202"/>
    <path d="M 53.667382 123.552064 
L 15.805367 123.552064 
" clip-path="url(#pf75ca4f5a3)" style="fill: #020202"/>
    <path d="M 53.695763 123.927699 
L 21.67896 128.793591 
" clip-path="url(#pf75ca4f5a3)" style="fill: #020202; stroke: #020202; stroke-width: 0.99"/>
    <path d="M 53.800331 124.356473 
L 31.789896 131.836413 
" clip-path="url(#pf75ca4f5a3)" style="fill: #020202"/>
    <path d="M 54.065332 124.905352 
L 42.470312 132.370164 
" clip-path="url(#pf75ca4f5a3)" style="fill: #020202"/>
    <path d="M 54.741104 125.605289 
L 52.550662 128.758581 
" clip-path="url(#pf75ca4f5a3)" style="fill: #020202"/>
    <path d="M 52.725631 117.739472 
C 79.227361 104.779943 57.470659 88.389932 52.326271 117.438621 
C 57.470659 88.389932 79.227361 104.779943 52.725631 117.739472 
" clip-path="url(#pf75ca4f5a3)" style="fill: #020202"/>
    <path d="M 51.791996 117.774021 
L 42.523313 114.624188 
" clip-path="url(#pf75ca4f5a3)" style="fill: #020202"/>
    <path d="M 51.771083 117.859776 
L 29.917169 114.538434 
" clip-path="url(#pf75ca4f5a3)" style="fill: #020202"/>
    <path d="M 51.765406 117.934903 
L 19.707342 117.934903 
" clip-path="url(#pf75ca4f5a3)" style="fill: #020202"/>
    <path d="M 51.771083 118.01003 
L 15.79969 123.476937 
" clip-path="url(#pf75ca4f5a3)" style="fill: #020202"/>
    <path d="M 51.791996 118.095785 
L 21.574392 128.364817 
" clip-path="url(#pf75ca4f5a3)" style="fill: #020202; stroke: #020202; stroke-width: 0.99"/>
    <path d="M 51.844996 118.205561 
L 31.524895 131.287534 
" clip-path="url(#pf75ca4f5a3)" style="fill: #020202; stroke: #020202; stroke-width: 0.99"/>
    <path d="M 51.980151 118.345548 
L 42.335158 132.230177 
" clip-path="url(#pf75ca4f5a3)" style="fill: #020202"/>
    <path d="M 52.265406 118.434903 
L 52.265406 128.669225 
" clip-path="url(#pf75ca4f5a3)" style="fill: #020202"/>
    <path d="M 42.367165 114.076856 
C 59.846065 90.311773 32.971223 85.869993 41.873858 113.995324 
C 32.971223 85.869993 59.846065 90.311773 42.367165 114.076856 
" clip-path="url(#pf75ca4f5a3)" style="fill: #020202"/>
    <path d="M 41.549903 114.463307 
L 29.922846 114.463307 
" clip-path="url(#pf75ca4f5a3)" style="fill: #020202"/>
    <path d="M 41.555579 114.538434 
L 19.701666 117.859776 
" clip-path="url(#pf75ca4f5a3)" style="fill: #020202"/>
    <path d="M 41.576493 114.624188 
L 15.778777 123.391183 
" clip-path="url(#pf75ca4f5a3)" style="fill: #020202"/>
    <path d="M 41.629493 114.733964 
L 21.309391 127.815937 
" clip-path="url(#pf75ca4f5a3)" style="fill: #020202"/>
    <path d="M 41.764647 114.873952 
L 30.849123 130.587597 
" clip-path="url(#pf75ca4f5a3)" style="fill: #020202"/>
    <path d="M 42.049903 114.963307 
L 42.049903 132.140822 
" clip-path="url(#pf75ca4f5a3)" style="fill: #020202"/>
    <path d="M 42.335158 114.873952 
L 51.980151 128.758581 
" clip-path="url(#pf75ca4f5a3)" style="fill: #020202"/>
    <path d="M 29.598891 113.995324 
C 38.501525 85.869993 11.626683 90.311773 29.105583 114.076856 
C 11.626683 90.311773 38.501525 85.869993 29.598891 113.995324 
" clip-path="url(#pf75ca4f5a3)" style="fill: #020202"/>
    <path d="M 28.949436 114.624188 
L 19.680752 117.774021 
" clip-path="url(#pf75ca4f5a3)" style="fill: #020202"/>
    <path d="M 29.002436 114.733964 
L 15.725777 123.281407 
" clip-path="url(#pf75ca4f5a3)" style="fill: #020202"/>
    <path d="M 29.13759 114.873952 
L 20.63362 127.116001 
" clip-path="url(#pf75ca4f5a3)" style="fill: #020202"/>
    <path d="M 29.422846 114.963307 
L 29.422846 130.140822 
" clip-path="url(#pf75ca4f5a3)" style="fill: #020202"/>
    <path d="M 29.708101 114.873952 
L 41.764647 132.230177 
" clip-path="url(#pf75ca4f5a3)" style="fill: #020202"/>
    <path d="M 29.843255 114.733964 
L 51.844996 128.898568 
" clip-path="url(#pf75ca4f5a3)" style="fill: #020202; stroke: #020202; stroke-width: 0.99"/>
    <path d="M 19.146478 117.438621 
C 14.002089 88.389932 -7.754613 104.779943 18.747117 117.739472 
C -7.754613 104.779943 14.002089 88.389932 19.146478 117.438621 
" clip-path="url(#pf75ca4f5a3)" style="fill: #020202"/>
    <path d="M 18.922086 118.345548 
L 15.590622 123.141419 
" clip-path="url(#pf75ca4f5a3)" style="fill: #020202"/>
    <path d="M 19.207342 118.434903 
L 19.207342 126.669225 
" clip-path="url(#pf75ca4f5a3)" style="fill: #020202"/>
    <path d="M 19.492597 118.345548 
L 27.996568 130.587597 
" clip-path="url(#pf75ca4f5a3)" style="fill: #020202"/>
    <path d="M 19.627752 118.205561 
L 41.629493 132.370164 
" clip-path="url(#pf75ca4f5a3)" style="fill: #020202"/>
    <path d="M 19.680752 118.095785 
L 51.791996 129.008344 
" clip-path="url(#pf75ca4f5a3)" style="fill: #020202"/>
    <path d="M 14.872354 123.302064 
C -11.424829 109.932349 -11.424829 137.171779 14.872354 123.802064 
C -11.424829 137.171779 -11.424829 109.932349 14.872354 123.302064 
" clip-path="url(#pf75ca4f5a3)" style="fill: #020202"/>
    <path d="M 15.590622 123.962709 
L 17.781064 127.116001 
" clip-path="url(#pf75ca4f5a3)" style="fill: #020202"/>
    <path d="M 15.725777 123.822722 
L 27.320796 131.287534 
" clip-path="url(#pf75ca4f5a3)" style="fill: #020202"/>
    <path d="M 15.778777 123.712946 
L 41.576493 132.47994 
" clip-path="url(#pf75ca4f5a3)" style="fill: #020202"/>
    <path d="M 15.79969 123.627191 
L 51.771083 129.094099 
" clip-path="url(#pf75ca4f5a3)" style="fill: #020202"/>
    <path d="M 16.906218 130.14638 
C -7.754613 142.324186 14.002089 158.714197 18.903021 131.650634 
C 14.002089 158.714197 -7.754613 142.324186 16.906218 130.14638 
" clip-path="url(#pf75ca4f5a3)" style="fill: #020202"/>
    <path d="M 21.574392 129.973634 
L 27.055795 131.836413 
" clip-path="url(#pf75ca4f5a3)" style="fill: #020202; stroke: #020202; stroke-width: 0.99"/>
    <path d="M 21.67896 129.54486 
L 41.555579 132.565695 
" clip-path="url(#pf75ca4f5a3)" style="fill: #020202"/>
    <path d="M 21.707342 129.169225 
L 51.765406 129.169225 
" clip-path="url(#pf75ca4f5a3)" style="fill: #020202"/>
    <path d="M 27.836532 134.573077 
C 11.626683 156.792356 38.501525 161.234136 30.30307 134.980738 
C 38.501525 161.234136 11.626683 156.792356 27.836532 134.573077 
" clip-path="url(#pf75ca4f5a3)" style="fill: #020202"/>
    <path d="M 31.922846 132.640822 
L 41.549903 132.640822 
" clip-path="url(#pf75ca4f5a3)" style="fill: #020202; stroke: #020202; stroke-width: 0.99"/>
    <path d="M 31.894464 132.265187 
L 51.771083 129.244352 
" clip-path="url(#pf75ca4f5a3)" style="fill: #020202"/>
    <path d="M 41.873858 133.108805 
C 32.971223 161.234136 59.846065 156.792356 42.367165 133.027273 
C 59.846065 156.792356 32.971223 161.234136 41.873858 133.108805 
" clip-path="url(#pf75ca4f5a3)" style="fill: #020202"/>
    <path d="M 42.523313 132.47994 
L 51.791996 129.330107 
" clip-path="url(#pf75ca4f5a3)" style="fill: #020202"/>
    <path d="M 52.326271 129.665507 
C 57.470659 158.714197 79.227361 142.324186 52.725631 129.364656 
C 79.227361 142.324186 57.470659 158.714197 52.326271 129.665507 
" clip-path="url(#pf75ca4f5a3)" style="fill: #020202"/>
   </g>
   <g id="VertexCollection_4">
    <path d="M 56.167382 126.052064 
C 56.830389 126.052064 57.466331 125.788649 57.935148 125.319831 
C 58.403966 124.851014 58.667382 124.215072 58.667382 123.552064 
C 58.667382 122.889057 58.403966 122.253115 57.935148 121.784297 
C 57.466331 121.31548 56.830389 121.052064 56.167382 121.052064 
C 55.504374 121.052064 54.868432 121.31548 54.399615 121.784297 
C 53.930797 122.253115 53.667382 122.889057 53.667382 123.552064 
C 53.667382 124.215072 53.930797 124.851014 54.399615 125.319831 
C 54.868432 125.788649 55.504374 126.052064 56.167382 126.052064 
z
" clip-path="url(#pf75ca4f5a3)" style="fill: #bebebe"/>
    <path d="M 52.265406 118.434903 
C 52.398008 118.434903 52.525196 118.38222 52.61896 118.288457 
C 52.712723 118.194693 52.765406 118.067505 52.765406 117.934903 
C 52.765406 117.802302 52.712723 117.675113 52.61896 117.58135 
C 52.525196 117.487586 52.398008 117.434903 52.265406 117.434903 
C 52.132805 117.434903 52.005616 117.487586 51.911853 117.58135 
C 51.818089 117.675113 51.765406 117.802302 51.765406 117.934903 
C 51.765406 118.067505 51.818089 118.194693 51.911853 118.288457 
C 52.005616 118.38222 52.132805 118.434903 52.265406 118.434903 
z
" clip-path="url(#pf75ca4f5a3)" style="fill: #bebebe"/>
    <path d="M 42.049903 114.963307 
C 42.182504 114.963307 42.309693 114.910624 42.403456 114.81686 
C 42.497219 114.723097 42.549903 114.595908 42.549903 114.463307 
C 42.549903 114.330705 42.497219 114.203517 42.403456 114.109753 
C 42.309693 114.01599 42.182504 113.963307 42.049903 113.963307 
C 41.917301 113.963307 41.790113 114.01599 41.696349 114.109753 
C 41.602586 114.203517 41.549903 114.330705 41.549903 114.463307 
C 41.549903 114.595908 41.602586 114.723097 41.696349 114.81686 
C 41.790113 114.910624 41.917301 114.963307 42.049903 114.963307 
z
" clip-path="url(#pf75ca4f5a3)" style="fill: #bebebe"/>
    <path d="M 29.422846 114.963307 
C 29.555447 114.963307 29.682636 114.910624 29.776399 114.81686 
C 29.870162 114.723097 29.922846 114.595908 29.922846 114.463307 
C 29.922846 114.330705 29.870162 114.203517 29.776399 114.109753 
C 29.682636 114.01599 29.555447 113.963307 29.422846 113.963307 
C 29.290244 113.963307 29.163056 114.01599 29.069292 114.109753 
C 28.975529 114.203517 28.922846 114.330705 28.922846 114.463307 
C 28.922846 114.595908 28.975529 114.723097 29.069292 114.81686 
C 29.163056 114.910624 29.290244 114.963307 29.422846 114.963307 
z
" clip-path="url(#pf75ca4f5a3)" style="fill: #bebebe"/>
    <path d="M 19.207342 118.434903 
C 19.339943 118.434903 19.467132 118.38222 19.560895 118.288457 
C 19.654659 118.194693 19.707342 118.067505 19.707342 117.934903 
C 19.707342 117.802302 19.654659 117.675113 19.560895 117.58135 
C 19.467132 117.487586 19.339943 117.434903 19.207342 117.434903 
C 19.07474 117.434903 18.947552 117.487586 18.853788 117.58135 
C 18.760025 117.675113 18.707342 117.802302 18.707342 117.934903 
C 18.707342 118.067505 18.760025 118.194693 18.853788 118.288457 
C 18.947552 118.38222 19.07474 118.434903 19.207342 118.434903 
z
" clip-path="url(#pf75ca4f5a3)" style="fill: #bebebe"/>
    <path d="M 15.305367 124.052064 
C 15.437968 124.052064 15.565157 123.999381 15.65892 123.905618 
C 15.752684 123.811854 15.805367 123.684666 15.805367 123.552064 
C 15.805367 123.419463 15.752684 123.292274 15.65892 123.198511 
C 15.565157 123.104747 15.437968 123.052064 15.305367 123.052064 
C 15.172765 123.052064 15.045577 123.104747 14.951813 123.198511 
C 14.85805 123.292274 14.805367 123.419463 14.805367 123.552064 
C 14.805367 123.684666 14.85805 123.811854 14.951813 123.905618 
C 15.045577 123.999381 15.172765 124.052064 15.305367 124.052064 
z
" clip-path="url(#pf75ca4f5a3)" style="fill: #bebebe"/>
    <path d="M 19.207342 131.669225 
C 19.87035 131.669225 20.506292 131.40581 20.975109 130.936992 
C 21.443926 130.468175 21.707342 129.832233 21.707342 129.169225 
C 21.707342 128.506218 21.443926 127.870276 20.975109 127.401459 
C 20.506292 126.932641 19.87035 126.669225 19.207342 126.669225 
C 18.544334 126.669225 17.908392 126.932641 17.439575 127.401459 
C 16.970758 127.870276 16.707342 128.506218 16.707342 129.169225 
C 16.707342 129.832233 16.970758 130.468175 17.439575 130.936992 
C 17.908392 131.40581 18.544334 131.669225 19.207342 131.669225 
z
" clip-path="url(#pf75ca4f5a3)" style="fill: #bebebe"/>
    <path d="M 29.422846 135.140822 
C 30.085853 135.140822 30.721795 134.877406 31.190613 134.408589 
C 31.65943 133.939772 31.922846 133.30383 31.922846 132.640822 
C 31.922846 131.977814 31.65943 131.341872 31.190613 130.873055 
C 30.721795 130.404238 30.085853 130.140822 29.422846 130.140822 
C 28.759838 130.140822 28.123896 130.404238 27.655079 130.873055 
C 27.186261 131.341872 26.922846 131.977814 26.922846 132.640822 
C 26.922846 133.30383 27.186261 133.939772 27.655079 134.408589 
C 28.123896 134.877406 28.759838 135.140822 29.422846 135.140822 
z
" clip-path="url(#pf75ca4f5a3)" style="fill: #bebebe"/>
    <path d="M 42.049903 133.140822 
C 42.182504 133.140822 42.309693 133.088139 42.403456 132.994375 
C 42.497219 132.900612 42.549903 132.773424 42.549903 132.640822 
C 42.549903 132.50822 42.497219 132.381032 42.403456 132.287269 
C 42.309693 132.193505 42.182504 132.140822 42.049903 132.140822 
C 41.917301 132.140822 41.790113 132.193505 41.696349 132.287269 
C 41.602586 132.381032 41.549903 132.50822 41.549903 132.640822 
C 41.549903 132.773424 41.602586 132.900612 41.696349 132.994375 
C 41.790113 133.088139 41.917301 133.140822 42.049903 133.140822 
z
" clip-path="url(#pf75ca4f5a3)" style="fill: #bebebe"/>
    <path d="M 52.265406 129.669225 
C 52.398008 129.669225 52.525196 129.616542 52.61896 129.522779 
C 52.712723 129.429015 52.765406 129.301827 52.765406 129.169225 
C 52.765406 129.036624 52.712723 128.909436 52.61896 128.815672 
C 52.525196 128.721909 52.398008 128.669225 52.265406 128.669225 
C 52.132805 128.669225 52.005616 128.721909 51.911853 128.815672 
C 51.818089 128.909436 51.765406 129.036624 51.765406 129.169225 
C 51.765406 129.301827 51.818089 129.429015 51.911853 129.522779 
C 52.005616 129.616542 52.132805 129.669225 52.265406 129.669225 
z
" clip-path="url(#pf75ca4f5a3)" style="fill: #bebebe"/>
   </g>
   <g id="matplotlib.axis_7"/>
   <g id="matplotlib.axis_8"/>
  </g>
  <g id="axes_5">
   <g id="patch_6">
    <path d="M 10.8 169.2 
L 61.2 169.2 
L 61.2 146.16 
L 10.8 146.16 
z
" style="fill: #ffffff"/>
   </g>
   <g id="EdgeCollection_5">
    <path d="M 58.340683 158.642064 
C 82.905816 171.011779 82.905816 143.772349 58.340683 156.142064 
C 82.905816 143.772349 82.905816 171.011779 58.340683 158.642064 
" clip-path="url(#p73a3ae86c0)" style="fill: #020202"/>
    <path d="M 54.761441 155.330488 
L 53.736598 153.83648 
" clip-path="url(#p73a3ae86c0)" style="fill: #020202"/>
    <path d="M 54.081373 156.026733 
L 42.653459 148.576373 
" clip-path="url(#p73a3ae86c0)" style="fill: #020202"/>
    <path d="M 53.811685 156.578545 
L 30.238178 148.466011 
" clip-path="url(#p73a3ae86c0)" style="fill: #020202"/>
    <path d="M 53.704712 157.011784 
L 20.171762 151.850959 
" clip-path="url(#p73a3ae86c0)" style="fill: #020202"/>
    <path d="M 53.67562 157.392064 
L 18.32438 157.392064 
" clip-path="url(#p73a3ae86c0)" style="fill: #020202; stroke: #020202; stroke-width: 0.99"/>
    <path d="M 53.704712 157.772345 
L 22.148489 162.628945 
" clip-path="url(#p73a3ae86c0)" style="fill: #020202; stroke: #020202; stroke-width: 0.99"/>
    <path d="M 53.811685 158.205584 
L 32.129325 165.667303 
" clip-path="url(#p73a3ae86c0)" style="fill: #020202"/>
    <path d="M 54.081373 158.757396 
L 42.653459 166.207756 
" clip-path="url(#p73a3ae86c0)" style="fill: #020202"/>
    <path d="M 54.761441 159.453641 
L 52.605255 162.59691 
" clip-path="url(#p73a3ae86c0)" style="fill: #020202; stroke: #020202; stroke-width: 0.99"/>
    <path d="M 54.62827 150.808958 
C 79.348067 138.751296 57.671377 122.25561 52.638812 149.295005 
C 57.671377 122.25561 79.348067 138.751296 54.62827 150.808958 
" clip-path="url(#p73a3ae86c0)" style="fill: #020202"/>
    <path d="M 49.958485 150.961384 
L 42.707396 148.466011 
" clip-path="url(#p73a3ae86c0)" style="fill: #020202"/>
    <path d="M 49.851511 151.394623 
L 30.259572 148.379363 
" clip-path="url(#p73a3ae86c0)" style="fill: #020202"/>
    <path d="M 49.822419 151.774903 
L 20.177581 151.774903 
" clip-path="url(#p73a3ae86c0)" style="fill: #020202"/>
    <path d="M 49.851511 152.155184 
L 18.295288 157.011784 
" clip-path="url(#p73a3ae86c0)" style="fill: #020202; stroke: #020202; stroke-width: 0.99"/>
    <path d="M 49.958485 152.588422 
L 22.041515 162.195706 
" clip-path="url(#p73a3ae86c0)" style="fill: #020202; stroke: #020202; stroke-width: 0.99"/>
    <path d="M 50.228173 153.140235 
L 31.859637 165.11549 
" clip-path="url(#p73a3ae86c0)" style="fill: #020202; stroke: #020202; stroke-width: 0.99"/>
    <path d="M 50.908241 153.83648 
L 42.517445 166.068507 
" clip-path="url(#p73a3ae86c0)" style="fill: #020202"/>
    <path d="M 52.322419 154.274903 
L 52.322419 162.509225 
" clip-path="url(#p73a3ae86c0)" style="fill: #020202"/>
    <path d="M 42.552616 147.917467 
C 60.077246 124.186087 33.211007 119.692564 42.059466 147.834985 
C 33.211007 119.692564 60.077246 124.186087 42.552616 147.917467 
" clip-path="url(#p73a3ae86c0)" style="fill: #020202"/>
    <path d="M 41.734609 148.303307 
L 30.265391 148.303307 
" clip-path="url(#p73a3ae86c0)" style="fill: #020202"/>
    <path d="M 41.740428 148.379363 
L 20.171762 151.698847 
" clip-path="url(#p73a3ae86c0)" style="fill: #020202"/>
    <path d="M 41.761822 148.466011 
L 18.188315 156.578545 
" clip-path="url(#p73a3ae86c0)" style="fill: #020202"/>
    <path d="M 41.81576 148.576373 
L 21.771827 161.643894 
" clip-path="url(#p73a3ae86c0)" style="fill: #020202"/>
    <path d="M 41.951774 148.715622 
L 31.179569 164.419245 
" clip-path="url(#p73a3ae86c0)" style="fill: #020202"/>
    <path d="M 42.234609 148.803307 
L 42.234609 165.980822 
" clip-path="url(#p73a3ae86c0)" style="fill: #020202"/>
    <path d="M 42.517445 148.715622 
L 52.039584 162.59691 
" clip-path="url(#p73a3ae86c0)" style="fill: #020202"/>
    <path d="M 29.940534 147.834985 
C 38.788993 119.692564 11.922754 124.186087 29.447384 147.917467 
C 11.922754 124.186087 38.788993 119.692564 29.940534 147.834985 
" clip-path="url(#p73a3ae86c0)" style="fill: #020202"/>
    <path d="M 29.292604 148.466011 
L 20.150368 151.612199 
" clip-path="url(#p73a3ae86c0)" style="fill: #020202"/>
    <path d="M 29.346541 148.576373 
L 17.918627 156.026733 
" clip-path="url(#p73a3ae86c0)" style="fill: #020202; stroke: #020202; stroke-width: 0.99"/>
    <path d="M 29.482555 148.715622 
L 21.091759 160.947649 
" clip-path="url(#p73a3ae86c0)" style="fill: #020202"/>
    <path d="M 29.765391 148.803307 
L 29.765391 163.980822 
" clip-path="url(#p73a3ae86c0)" style="fill: #020202"/>
    <path d="M 30.048226 148.715622 
L 41.951774 166.068507 
" clip-path="url(#p73a3ae86c0)" style="fill: #020202"/>
    <path d="M 30.18424 148.576373 
L 51.90357 162.736159 
" clip-path="url(#p73a3ae86c0)" style="fill: #020202; stroke: #020202; stroke-width: 0.99"/>
    <path d="M 19.614302 151.278924 
C 14.328623 122.25561 -7.348067 138.751296 19.21641 151.581714 
C -7.348067 138.751296 14.328623 122.25561 19.614302 151.278924 
" clip-path="url(#p73a3ae86c0)" style="fill: #020202"/>
    <path d="M 19.394745 152.187219 
L 17.238559 155.330488 
" clip-path="url(#p73a3ae86c0)" style="fill: #020202"/>
    <path d="M 19.677581 152.274903 
L 19.677581 160.509225 
" clip-path="url(#p73a3ae86c0)" style="fill: #020202"/>
    <path d="M 19.960416 152.187219 
L 28.351212 164.419245 
" clip-path="url(#p73a3ae86c0)" style="fill: #020202"/>
    <path d="M 20.09643 152.04797 
L 41.81576 166.207756 
" clip-path="url(#p73a3ae86c0)" style="fill: #020202"/>
    <path d="M 20.150368 151.937607 
L 51.849632 162.846522 
" clip-path="url(#p73a3ae86c0)" style="fill: #020202"/>
    <path d="M 13.659317 156.142064 
C -10.905816 143.772349 -10.905816 171.011779 13.659317 158.642064 
C -10.905816 171.011779 -10.905816 143.772349 13.659317 156.142064 
" clip-path="url(#p73a3ae86c0)" style="fill: #020202"/>
    <path d="M 17.238559 159.453641 
L 18.263402 160.947649 
" clip-path="url(#p73a3ae86c0)" style="fill: #020202"/>
    <path d="M 17.918627 158.757396 
L 27.671144 165.11549 
" clip-path="url(#p73a3ae86c0)" style="fill: #020202"/>
    <path d="M 18.188315 158.205584 
L 41.761822 166.318118 
" clip-path="url(#p73a3ae86c0)" style="fill: #020202"/>
    <path d="M 18.295288 157.772345 
L 51.828238 162.933169 
" clip-path="url(#p73a3ae86c0)" style="fill: #020202"/>
    <path d="M 17.37173 163.975171 
C -7.348067 176.032833 14.328623 192.528518 19.361188 165.489124 
C 14.328623 192.528518 -7.348067 176.032833 17.37173 163.975171 
" clip-path="url(#p73a3ae86c0)" style="fill: #020202"/>
    <path d="M 22.041515 163.822745 
L 27.401456 165.667303 
" clip-path="url(#p73a3ae86c0)" style="fill: #020202; stroke: #020202; stroke-width: 0.99"/>
    <path d="M 22.148489 163.389506 
L 41.740428 166.404766 
" clip-path="url(#p73a3ae86c0)" style="fill: #020202"/>
    <path d="M 22.177581 163.009225 
L 51.822419 163.009225 
" clip-path="url(#p73a3ae86c0)" style="fill: #020202"/>
    <path d="M 28.175359 168.410018 
C 11.922754 190.598042 38.788993 195.091565 30.641108 168.822428 
C 38.788993 195.091565 11.922754 190.598042 28.175359 168.410018 
" clip-path="url(#p73a3ae86c0)" style="fill: #020202"/>
    <path d="M 32.265391 166.480822 
L 41.734609 166.480822 
" clip-path="url(#p73a3ae86c0)" style="fill: #020202; stroke: #020202; stroke-width: 0.99"/>
    <path d="M 32.236299 166.100542 
L 51.828238 163.085282 
" clip-path="url(#p73a3ae86c0)" style="fill: #020202"/>
    <path d="M 42.059466 166.949143 
C 33.211007 195.091565 60.077246 190.598042 42.552616 166.866661 
C 60.077246 190.598042 33.211007 195.091565 42.059466 166.949143 
" clip-path="url(#p73a3ae86c0)" style="fill: #020202"/>
    <path d="M 42.707396 166.318118 
L 51.849632 163.171929 
" clip-path="url(#p73a3ae86c0)" style="fill: #020202"/>
    <path d="M 52.385698 163.505205 
C 57.671377 192.528518 79.348067 176.032833 52.78359 163.202415 
C 79.348067 176.032833 57.671377 192.528518 52.385698 163.505205 
" clip-path="url(#p73a3ae86c0)" style="fill: #020202"/>
   </g>
   <g id="VertexCollection_5">
    <path d="M 56.17562 159.892064 
C 56.838628 159.892064 57.47457 159.628649 57.943387 159.159831 
C 58.412204 158.691014 58.67562 158.055072 58.67562 157.392064 
C 58.67562 156.729057 58.412204 156.093115 57.943387 155.624297 
C 57.47457 155.15548 56.838628 154.892064 56.17562 154.892064 
C 55.512612 154.892064 54.87667 155.15548 54.407853 155.624297 
C 53.939036 156.093115 53.67562 156.729057 53.67562 157.392064 
C 53.67562 158.055072 53.939036 158.691014 54.407853 159.159831 
C 54.87667 159.628649 55.512612 159.892064 56.17562 159.892064 
z
" clip-path="url(#p73a3ae86c0)" style="fill: #bebebe"/>
    <path d="M 52.322419 154.274903 
C 52.985427 154.274903 53.621369 154.011487 54.090186 153.54267 
C 54.559004 153.073853 54.822419 152.437911 54.822419 151.774903 
C 54.822419 151.111895 54.559004 150.475954 54.090186 150.007136 
C 53.621369 149.538319 52.985427 149.274903 52.322419 149.274903 
C 51.659412 149.274903 51.02347 149.538319 50.554652 150.007136 
C 50.085835 150.475954 49.822419 151.111895 49.822419 151.774903 
C 49.822419 152.437911 50.085835 153.073853 50.554652 153.54267 
C 51.02347 154.011487 51.659412 154.274903 52.322419 154.274903 
z
" clip-path="url(#p73a3ae86c0)" style="fill: #bebebe"/>
    <path d="M 42.234609 148.803307 
C 42.367211 148.803307 42.494399 148.750624 42.588163 148.65686 
C 42.681926 148.563097 42.734609 148.435908 42.734609 148.303307 
C 42.734609 148.170705 42.681926 148.043517 42.588163 147.949753 
C 42.494399 147.85599 42.367211 147.803307 42.234609 147.803307 
C 42.102008 147.803307 41.974819 147.85599 41.881056 147.949753 
C 41.787293 148.043517 41.734609 148.170705 41.734609 148.303307 
C 41.734609 148.435908 41.787293 148.563097 41.881056 148.65686 
C 41.974819 148.750624 42.102008 148.803307 42.234609 148.803307 
z
" clip-path="url(#p73a3ae86c0)" style="fill: #bebebe"/>
    <path d="M 29.765391 148.803307 
C 29.897992 148.803307 30.025181 148.750624 30.118944 148.65686 
C 30.212707 148.563097 30.265391 148.435908 30.265391 148.303307 
C 30.265391 148.170705 30.212707 148.043517 30.118944 147.949753 
C 30.025181 147.85599 29.897992 147.803307 29.765391 147.803307 
C 29.632789 147.803307 29.505601 147.85599 29.411837 147.949753 
C 29.318074 148.043517 29.265391 148.170705 29.265391 148.303307 
C 29.265391 148.435908 29.318074 148.563097 29.411837 148.65686 
C 29.505601 148.750624 29.632789 148.803307 29.765391 148.803307 
z
" clip-path="url(#p73a3ae86c0)" style="fill: #bebebe"/>
    <path d="M 19.677581 152.274903 
C 19.810182 152.274903 19.937371 152.22222 20.031134 152.128457 
C 20.124898 152.034693 20.177581 151.907505 20.177581 151.774903 
C 20.177581 151.642302 20.124898 151.515113 20.031134 151.42135 
C 19.937371 151.327586 19.810182 151.274903 19.677581 151.274903 
C 19.544979 151.274903 19.417791 151.327586 19.324027 151.42135 
C 19.230264 151.515113 19.177581 151.642302 19.177581 151.774903 
C 19.177581 151.907505 19.230264 152.034693 19.324027 152.128457 
C 19.417791 152.22222 19.544979 152.274903 19.677581 152.274903 
z
" clip-path="url(#p73a3ae86c0)" style="fill: #bebebe"/>
    <path d="M 15.82438 159.892064 
C 16.487388 159.892064 17.12333 159.628649 17.592147 159.159831 
C 18.060964 158.691014 18.32438 158.055072 18.32438 157.392064 
C 18.32438 156.729057 18.060964 156.093115 17.592147 155.624297 
C 17.12333 155.15548 16.487388 154.892064 15.82438 154.892064 
C 15.161372 154.892064 14.52543 155.15548 14.056613 155.624297 
C 13.587796 156.093115 13.32438 156.729057 13.32438 157.392064 
C 13.32438 158.055072 13.587796 158.691014 14.056613 159.159831 
C 14.52543 159.628649 15.161372 159.892064 15.82438 159.892064 
z
" clip-path="url(#p73a3ae86c0)" style="fill: #bebebe"/>
    <path d="M 19.677581 165.509225 
C 20.340588 165.509225 20.97653 165.24581 21.445348 164.776992 
C 21.914165 164.308175 22.177581 163.672233 22.177581 163.009225 
C 22.177581 162.346218 21.914165 161.710276 21.445348 161.241459 
C 20.97653 160.772641 20.340588 160.509225 19.677581 160.509225 
C 19.014573 160.509225 18.378631 160.772641 17.909814 161.241459 
C 17.440996 161.710276 17.177581 162.346218 17.177581 163.009225 
C 17.177581 163.672233 17.440996 164.308175 17.909814 164.776992 
C 18.378631 165.24581 19.014573 165.509225 19.677581 165.509225 
z
" clip-path="url(#p73a3ae86c0)" style="fill: #bebebe"/>
    <path d="M 29.765391 168.980822 
C 30.428398 168.980822 31.06434 168.717406 31.533158 168.248589 
C 32.001975 167.779772 32.265391 167.14383 32.265391 166.480822 
C 32.265391 165.817814 32.001975 165.181872 31.533158 164.713055 
C 31.06434 164.244238 30.428398 163.980822 29.765391 163.980822 
C 29.102383 163.980822 28.466441 164.244238 27.997624 164.713055 
C 27.528806 165.181872 27.265391 165.817814 27.265391 166.480822 
C 27.265391 167.14383 27.528806 167.779772 27.997624 168.248589 
C 28.466441 168.717406 29.102383 168.980822 29.765391 168.980822 
z
" clip-path="url(#p73a3ae86c0)" style="fill: #bebebe"/>
    <path d="M 42.234609 166.980822 
C 42.367211 166.980822 42.494399 166.928139 42.588163 166.834375 
C 42.681926 166.740612 42.734609 166.613424 42.734609 166.480822 
C 42.734609 166.34822 42.681926 166.221032 42.588163 166.127269 
C 42.494399 166.033505 42.367211 165.980822 42.234609 165.980822 
C 42.102008 165.980822 41.974819 166.033505 41.881056 166.127269 
C 41.787293 166.221032 41.734609 166.34822 41.734609 166.480822 
C 41.734609 166.613424 41.787293 166.740612 41.881056 166.834375 
C 41.974819 166.928139 42.102008 166.980822 42.234609 166.980822 
z
" clip-path="url(#p73a3ae86c0)" style="fill: #bebebe"/>
    <path d="M 52.322419 163.509225 
C 52.455021 163.509225 52.582209 163.456542 52.675973 163.362779 
C 52.769736 163.269015 52.822419 163.141827 52.822419 163.009225 
C 52.822419 162.876624 52.769736 162.749436 52.675973 162.655672 
C 52.582209 162.561909 52.455021 162.509225 52.322419 162.509225 
C 52.189818 162.509225 52.062629 162.561909 51.968866 162.655672 
C 51.875102 162.749436 51.822419 162.876624 51.822419 163.009225 
C 51.822419 163.141827 51.875102 163.269015 51.968866 163.362779 
C 52.062629 163.456542 52.189818 163.509225 52.322419 163.509225 
z
" clip-path="url(#p73a3ae86c0)" style="fill: #bebebe"/>
   </g>
   <g id="matplotlib.axis_9"/>
   <g id="matplotlib.axis_10"/>
  </g>
 </g>
 <defs>
  <clipPath id="p5d1efd7c85">
   <rect x="10.8" y="10.8" width="50.4" height="23.04"/>
  </clipPath>
  <clipPath id="pf8f33e75b3">
   <rect x="10.8" y="44.64" width="50.4" height="23.04"/>
  </clipPath>
  <clipPath id="pd76153263d">
   <rect x="10.8" y="78.48" width="50.4" height="23.04"/>
  </clipPath>
  <clipPath id="pf75ca4f5a3">
   <rect x="10.8" y="112.32" width="50.4" height="23.04"/>
  </clipPath>
  <clipPath id="p73a3ae86c0">
   <rect x="10.8" y="146.16" width="50.4" height="23.04"/>
  </clipPath>
 </defs>
</svg>
