<?xml version="1.0" encoding="utf-8" standalone="no"?>
<!DOCTYPE svg PUBLIC "-//W3C//DTD SVG 1.1//EN"
  "http://www.w3.org/Graphics/SVG/1.1/DTD/svg11.dtd">
<svg xmlns:xlink="http://www.w3.org/1999/xlink" width="72pt" height="180pt" viewBox="0 0 72 180" xmlns="http://www.w3.org/2000/svg" version="1.1">
 <metadata>
  <rdf:RDF xmlns:dc="http://purl.org/dc/elements/1.1/" xmlns:cc="http://creativecommons.org/ns#" xmlns:rdf="http://www.w3.org/1999/02/22-rdf-syntax-ns#">
   <cc:Work>
    <dc:type rdf:resource="http://purl.org/dc/dcmitype/StillImage"/>
    <dc:date>2025-06-06T16:53:35.569317</dc:date>
    <dc:format>image/svg+xml</dc:format>
    <dc:creator>
     <cc:Agent>
      <dc:title>Matplotlib v3.9.2, https://matplotlib.org/</dc:title>
     </cc:Agent>
    </dc:creator>
   </cc:Work>
  </rdf:RDF>
 </metadata>
 <defs>
  <style type="text/css">*{stroke-linejoin: round; stroke-linecap: butt}</style>
 </defs>
 <g id="figure_1">
  <g id="patch_1">
   <path d="M 0 180 
L 72 180 
L 72 0 
L 0 0 
z
" style="fill: #ffffff"/>
  </g>
  <g id="axes_1">
   <g id="patch_2">
    <path d="M 10.8 33.84 
L 61.2 33.84 
L 61.2 10.8 
L 10.8 10.8 
z
" style="fill: #ffffff"/>
   </g>
   <g id="EdgeCollection_1">
    <path d="M 57.125956 22.57 
C 83.423139 35.939715 83.423139 8.700285 57.125956 22.07 
C 83.423139 8.700285 83.423139 35.939715 57.125956 22.57 
" clip-path="url(#pd17e57cc55)" style="fill: #020202"/>
    <path d="M 56.411145 21.906975 
L 53.022742 16.940684 
" clip-path="url(#pd17e57cc55)" style="fill: #020202; stroke: #020202; stroke-width: 0.99"/>
    <path d="M 56.27477 22.0459 
L 42.812645 13.221896 
" clip-path="url(#pd17e57cc55)" style="fill: #020202"/>
    <path d="M 56.220428 22.15651 
L 30.078045 13.111286 
" clip-path="url(#pd17e57cc55)" style="fill: #020202; stroke: #020202; stroke-width: 0.99"/>
    <path d="M 56.198824 22.243542 
L 19.753177 16.604117 
" clip-path="url(#pd17e57cc55)" style="fill: #020202"/>
    <path d="M 56.192943 22.32 
L 15.807057 22.32 
" clip-path="url(#pd17e57cc55)" style="fill: #020202"/>
    <path d="M 56.198824 22.396458 
L 21.729655 27.730052 
" clip-path="url(#pd17e57cc55)" style="fill: #020202"/>
    <path d="M 56.220428 22.48349 
L 30.078045 31.528714 
" clip-path="url(#pd17e57cc55)" style="fill: #020202"/>
    <path d="M 56.27477 22.5941 
L 42.812645 31.418104 
" clip-path="url(#pd17e57cc55)" style="fill: #020202"/>
    <path d="M 56.411145 22.733025 
L 53.022742 27.699316 
" clip-path="url(#pd17e57cc55)" style="fill: #020202"/>
    <path d="M 53.202515 16.335434 
C 79.793722 3.560504 58.151518 -12.980401 52.805257 16.031813 
C 58.151518 -12.980401 79.793722 3.560504 53.202515 16.335434 
" clip-path="url(#pd17e57cc55)" style="fill: #020202"/>
    <path d="M 52.268427 16.36417 
L 42.866987 13.111286 
" clip-path="url(#pd17e57cc55)" style="fill: #020202"/>
    <path d="M 52.246823 16.451202 
L 30.099648 13.024254 
" clip-path="url(#pd17e57cc55)" style="fill: #020202; stroke: #020202; stroke-width: 0.99"/>
    <path d="M 52.240943 16.52766 
L 19.759057 16.52766 
" clip-path="url(#pd17e57cc55)" style="fill: #020202"/>
    <path d="M 52.246823 16.604117 
L 15.801176 22.243542 
" clip-path="url(#pd17e57cc55)" style="fill: #020202"/>
    <path d="M 52.268427 16.691149 
L 21.621636 27.294892 
" clip-path="url(#pd17e57cc55)" style="fill: #020202"/>
    <path d="M 52.322769 16.80176 
L 30.023703 31.418104 
" clip-path="url(#pd17e57cc55)" style="fill: #020202"/>
    <path d="M 52.459144 16.940684 
L 42.67627 31.279179 
" clip-path="url(#pd17e57cc55)" style="fill: #020202"/>
    <path d="M 52.740943 17.02766 
L 52.740943 27.61234 
" clip-path="url(#pd17e57cc55)" style="fill: #020202"/>
    <path d="M 42.712798 12.562222 
C 60.257152 -11.154582 33.394658 -15.670438 42.219717 12.47933 
C 33.394658 -15.670438 60.257152 -11.154582 42.712798 12.562222 
" clip-path="url(#pd17e57cc55)" style="fill: #020202"/>
    <path d="M 41.894471 12.947797 
L 30.105529 12.947797 
" clip-path="url(#pd17e57cc55)" style="fill: #020202"/>
    <path d="M 41.900352 13.024254 
L 19.753177 16.451202 
" clip-path="url(#pd17e57cc55)" style="fill: #020202"/>
    <path d="M 41.921955 13.111286 
L 15.779572 22.15651 
" clip-path="url(#pd17e57cc55)" style="fill: #020202; stroke: #020202; stroke-width: 0.99"/>
    <path d="M 41.976297 13.221896 
L 21.349926 26.741841 
" clip-path="url(#pd17e57cc55)" style="fill: #020202"/>
    <path d="M 42.112672 13.360821 
L 29.887328 31.279179 
" clip-path="url(#pd17e57cc55)" style="fill: #020202"/>
    <path d="M 42.394471 13.447797 
L 42.394471 31.192203 
" clip-path="url(#pd17e57cc55)" style="fill: #020202"/>
    <path d="M 42.67627 13.360821 
L 52.459144 27.699316 
" clip-path="url(#pd17e57cc55)" style="fill: #020202"/>
    <path d="M 29.780283 12.47933 
C 38.605342 -15.670438 11.742848 -11.154582 29.287202 12.562222 
C 11.742848 -11.154582 38.605342 -15.670438 29.780283 12.47933 
" clip-path="url(#pd17e57cc55)" style="fill: #020202"/>
    <path d="M 29.133013 13.111286 
L 19.731573 16.36417 
" clip-path="url(#pd17e57cc55)" style="fill: #020202"/>
    <path d="M 29.187355 13.221896 
L 15.72523 22.0459 
" clip-path="url(#pd17e57cc55)" style="fill: #020202"/>
    <path d="M 29.32373 13.360821 
L 20.668051 26.047216 
" clip-path="url(#pd17e57cc55)" style="fill: #020202"/>
    <path d="M 29.605529 13.447797 
L 29.605529 31.192203 
" clip-path="url(#pd17e57cc55)" style="fill: #020202"/>
    <path d="M 29.887328 13.360821 
L 42.112672 31.279179 
" clip-path="url(#pd17e57cc55)" style="fill: #020202"/>
    <path d="M 30.023703 13.221896 
L 52.322769 27.83824 
" clip-path="url(#pd17e57cc55)" style="fill: #020202"/>
    <path d="M 19.194743 16.031813 
C 13.848482 -12.980401 -7.793722 3.560504 18.797485 16.335434 
C -7.793722 3.560504 13.848482 -12.980401 19.194743 16.031813 
" clip-path="url(#pd17e57cc55)" style="fill: #020202"/>
    <path d="M 18.977258 16.940684 
L 15.588855 21.906975 
" clip-path="url(#pd17e57cc55)" style="fill: #020202"/>
    <path d="M 19.259057 17.02766 
L 19.259057 25.61234 
" clip-path="url(#pd17e57cc55)" style="fill: #020202; stroke: #020202; stroke-width: 0.99"/>
    <path d="M 19.540856 16.940684 
L 29.32373 31.279179 
" clip-path="url(#pd17e57cc55)" style="fill: #020202"/>
    <path d="M 19.677231 16.80176 
L 41.976297 31.418104 
" clip-path="url(#pd17e57cc55)" style="fill: #020202"/>
    <path d="M 19.731573 16.691149 
L 52.268427 27.948851 
" clip-path="url(#pd17e57cc55)" style="fill: #020202; stroke: #020202; stroke-width: 0.99"/>
    <path d="M 14.874044 22.07 
C -11.423139 8.700285 -11.423139 35.939715 14.874044 22.57 
C -11.423139 35.939715 -11.423139 8.700285 14.874044 22.07 
" clip-path="url(#pd17e57cc55)" style="fill: #020202"/>
    <path d="M 15.588855 22.733025 
L 17.850063 26.047216 
" clip-path="url(#pd17e57cc55)" style="fill: #020202; stroke: #020202; stroke-width: 0.99"/>
    <path d="M 15.72523 22.5941 
L 29.187355 31.418104 
" clip-path="url(#pd17e57cc55)" style="fill: #020202"/>
    <path d="M 15.779572 22.48349 
L 41.921955 31.528714 
" clip-path="url(#pd17e57cc55)" style="fill: #020202"/>
    <path d="M 15.801176 22.396458 
L 52.246823 28.035883 
" clip-path="url(#pd17e57cc55)" style="fill: #020202"/>
    <path d="M 16.951194 29.07347 
C -7.793722 41.079496 13.848482 57.620401 18.937488 30.591573 
C 13.848482 57.620401 -7.793722 41.079496 16.951194 29.07347 
" clip-path="url(#pd17e57cc55)" style="fill: #020202"/>
    <path d="M 21.621636 28.929789 
L 29.133013 31.528714 
" clip-path="url(#pd17e57cc55)" style="fill: #020202; stroke: #020202; stroke-width: 0.99"/>
    <path d="M 21.729655 28.494629 
L 41.900352 31.615746 
" clip-path="url(#pd17e57cc55)" style="fill: #020202"/>
    <path d="M 21.759057 28.11234 
L 52.240943 28.11234 
" clip-path="url(#pd17e57cc55)" style="fill: #020202"/>
    <path d="M 29.287202 32.077778 
C 11.742848 55.794582 38.605342 60.310438 29.780283 32.16067 
C 38.605342 60.310438 11.742848 55.794582 29.287202 32.077778 
" clip-path="url(#pd17e57cc55)" style="fill: #020202"/>
    <path d="M 30.105529 31.692203 
L 41.894471 31.692203 
" clip-path="url(#pd17e57cc55)" style="fill: #020202"/>
    <path d="M 30.099648 31.615746 
L 52.246823 28.188798 
" clip-path="url(#pd17e57cc55)" style="fill: #020202"/>
    <path d="M 42.219717 32.16067 
C 33.394658 60.310438 60.257152 55.794582 42.712798 32.077778 
C 60.257152 55.794582 33.394658 60.310438 42.219717 32.16067 
" clip-path="url(#pd17e57cc55)" style="fill: #020202"/>
    <path d="M 42.866987 31.528714 
L 52.268427 28.27583 
" clip-path="url(#pd17e57cc55)" style="fill: #020202; stroke: #020202; stroke-width: 0.99"/>
    <path d="M 52.805257 28.608187 
C 58.151518 57.620401 79.793722 41.079496 53.202515 28.304566 
C 79.793722 41.079496 58.151518 57.620401 52.805257 28.608187 
" clip-path="url(#pd17e57cc55)" style="fill: #020202"/>
   </g>
   <g id="VertexCollection_1">
    <path d="M 56.692943 22.82 
C 56.825545 22.82 56.952733 22.767317 57.046497 22.673553 
C 57.14026 22.57979 57.192943 22.452602 57.192943 22.32 
C 57.192943 22.187398 57.14026 22.06021 57.046497 21.966447 
C 56.952733 21.872683 56.825545 21.82 56.692943 21.82 
C 56.560342 21.82 56.433153 21.872683 56.33939 21.966447 
C 56.245627 22.06021 56.192943 22.187398 56.192943 22.32 
C 56.192943 22.452602 56.245627 22.57979 56.33939 22.673553 
C 56.433153 22.767317 56.560342 22.82 56.692943 22.82 
z
" clip-path="url(#pd17e57cc55)" style="fill: #bebebe"/>
    <path d="M 52.740943 17.02766 
C 52.873544 17.02766 53.000733 16.974977 53.094496 16.881213 
C 53.18826 16.78745 53.240943 16.660261 53.240943 16.52766 
C 53.240943 16.395058 53.18826 16.26787 53.094496 16.174106 
C 53.000733 16.080343 52.873544 16.02766 52.740943 16.02766 
C 52.608341 16.02766 52.481153 16.080343 52.38739 16.174106 
C 52.293626 16.26787 52.240943 16.395058 52.240943 16.52766 
C 52.240943 16.660261 52.293626 16.78745 52.38739 16.881213 
C 52.481153 16.974977 52.608341 17.02766 52.740943 17.02766 
z
" clip-path="url(#pd17e57cc55)" style="fill: #bebebe"/>
    <path d="M 42.394471 13.447797 
C 42.527073 13.447797 42.654261 13.395113 42.748025 13.30135 
C 42.841788 13.207586 42.894471 13.080398 42.894471 12.947797 
C 42.894471 12.815195 42.841788 12.688007 42.748025 12.594243 
C 42.654261 12.50048 42.527073 12.447797 42.394471 12.447797 
C 42.26187 12.447797 42.134681 12.50048 42.040918 12.594243 
C 41.947154 12.688007 41.894471 12.815195 41.894471 12.947797 
C 41.894471 13.080398 41.947154 13.207586 42.040918 13.30135 
C 42.134681 13.395113 42.26187 13.447797 42.394471 13.447797 
z
" clip-path="url(#pd17e57cc55)" style="fill: #bebebe"/>
    <path d="M 29.605529 13.447797 
C 29.73813 13.447797 29.865319 13.395113 29.959082 13.30135 
C 30.052846 13.207586 30.105529 13.080398 30.105529 12.947797 
C 30.105529 12.815195 30.052846 12.688007 29.959082 12.594243 
C 29.865319 12.50048 29.73813 12.447797 29.605529 12.447797 
C 29.472927 12.447797 29.345739 12.50048 29.251975 12.594243 
C 29.158212 12.688007 29.105529 12.815195 29.105529 12.947797 
C 29.105529 13.080398 29.158212 13.207586 29.251975 13.30135 
C 29.345739 13.395113 29.472927 13.447797 29.605529 13.447797 
z
" clip-path="url(#pd17e57cc55)" style="fill: #bebebe"/>
    <path d="M 19.259057 17.02766 
C 19.391659 17.02766 19.518847 16.974977 19.61261 16.881213 
C 19.706374 16.78745 19.759057 16.660261 19.759057 16.52766 
C 19.759057 16.395058 19.706374 16.26787 19.61261 16.174106 
C 19.518847 16.080343 19.391659 16.02766 19.259057 16.02766 
C 19.126456 16.02766 18.999267 16.080343 18.905504 16.174106 
C 18.81174 16.26787 18.759057 16.395058 18.759057 16.52766 
C 18.759057 16.660261 18.81174 16.78745 18.905504 16.881213 
C 18.999267 16.974977 19.126456 17.02766 19.259057 17.02766 
z
" clip-path="url(#pd17e57cc55)" style="fill: #bebebe"/>
    <path d="M 15.307057 22.82 
C 15.439658 22.82 15.566847 22.767317 15.66061 22.673553 
C 15.754373 22.57979 15.807057 22.452602 15.807057 22.32 
C 15.807057 22.187398 15.754373 22.06021 15.66061 21.966447 
C 15.566847 21.872683 15.439658 21.82 15.307057 21.82 
C 15.174455 21.82 15.047267 21.872683 14.953503 21.966447 
C 14.85974 22.06021 14.807057 22.187398 14.807057 22.32 
C 14.807057 22.452602 14.85974 22.57979 14.953503 22.673553 
C 15.047267 22.767317 15.174455 22.82 15.307057 22.82 
z
" clip-path="url(#pd17e57cc55)" style="fill: #bebebe"/>
    <path d="M 19.259057 30.61234 
C 19.922065 30.61234 20.558007 30.348925 21.026824 29.880107 
C 21.495641 29.41129 21.759057 28.775348 21.759057 28.11234 
C 21.759057 27.449333 21.495641 26.813391 21.026824 26.344573 
C 20.558007 25.875756 19.922065 25.61234 19.259057 25.61234 
C 18.596049 25.61234 17.960107 25.875756 17.49129 26.344573 
C 17.022473 26.813391 16.759057 27.449333 16.759057 28.11234 
C 16.759057 28.775348 17.022473 29.41129 17.49129 29.880107 
C 17.960107 30.348925 18.596049 30.61234 19.259057 30.61234 
z
" clip-path="url(#pd17e57cc55)" style="fill: #bebebe"/>
    <path d="M 29.605529 32.192203 
C 29.73813 32.192203 29.865319 32.13952 29.959082 32.045757 
C 30.052846 31.951993 30.105529 31.824805 30.105529 31.692203 
C 30.105529 31.559602 30.052846 31.432414 29.959082 31.33865 
C 29.865319 31.244887 29.73813 31.192203 29.605529 31.192203 
C 29.472927 31.192203 29.345739 31.244887 29.251975 31.33865 
C 29.158212 31.432414 29.105529 31.559602 29.105529 31.692203 
C 29.105529 31.824805 29.158212 31.951993 29.251975 32.045757 
C 29.345739 32.13952 29.472927 32.192203 29.605529 32.192203 
z
" clip-path="url(#pd17e57cc55)" style="fill: #bebebe"/>
    <path d="M 42.394471 32.192203 
C 42.527073 32.192203 42.654261 32.13952 42.748025 32.045757 
C 42.841788 31.951993 42.894471 31.824805 42.894471 31.692203 
C 42.894471 31.559602 42.841788 31.432414 42.748025 31.33865 
C 42.654261 31.244887 42.527073 31.192203 42.394471 31.192203 
C 42.26187 31.192203 42.134681 31.244887 42.040918 31.33865 
C 41.947154 31.432414 41.894471 31.559602 41.894471 31.692203 
C 41.894471 31.824805 41.947154 31.951993 42.040918 32.045757 
C 42.134681 32.13952 42.26187 32.192203 42.394471 32.192203 
z
" clip-path="url(#pd17e57cc55)" style="fill: #bebebe"/>
    <path d="M 52.740943 28.61234 
C 52.873544 28.61234 53.000733 28.559657 53.094496 28.465894 
C 53.18826 28.37213 53.240943 28.244942 53.240943 28.11234 
C 53.240943 27.979739 53.18826 27.85255 53.094496 27.758787 
C 53.000733 27.665023 52.873544 27.61234 52.740943 27.61234 
C 52.608341 27.61234 52.481153 27.665023 52.38739 27.758787 
C 52.293626 27.85255 52.240943 27.979739 52.240943 28.11234 
C 52.240943 28.244942 52.293626 28.37213 52.38739 28.465894 
C 52.481153 28.559657 52.608341 28.61234 52.740943 28.61234 
z
" clip-path="url(#pd17e57cc55)" style="fill: #bebebe"/>
   </g>
   <g id="matplotlib.axis_1"/>
   <g id="matplotlib.axis_2"/>
  </g>
  <g id="axes_2">
   <g id="patch_3">
    <path d="M 10.8 67.68 
L 61.2 67.68 
L 61.2 44.64 
L 10.8 44.64 
z
" style="fill: #ffffff"/>
   </g>
   <g id="EdgeCollection_2">
    <path d="M 58.340683 57.41 
C 82.905816 69.779715 82.905816 42.540285 58.340683 54.91 
C 82.905816 42.540285 82.905816 69.779715 58.340683 57.41 
" clip-path="url(#p7112abd219)" style="fill: #020202"/>
    <path d="M 54.79095 54.078489 
L 53.707089 52.449171 
" clip-path="url(#p7112abd219)" style="fill: #020202; stroke: #020202; stroke-width: 0.99"/>
    <path d="M 54.100881 54.765203 
L 42.649557 47.066756 
" clip-path="url(#p7112abd219)" style="fill: #020202"/>
    <path d="M 53.819574 55.323909 
L 30.2366 46.955015 
" clip-path="url(#p7112abd219)" style="fill: #020202; stroke: #020202; stroke-width: 0.99"/>
    <path d="M 53.706521 55.768147 
L 22.14668 50.759513 
" clip-path="url(#p7112abd219)" style="fill: #020202"/>
    <path d="M 53.67562 56.16 
L 18.32438 56.16 
" clip-path="url(#p7112abd219)" style="fill: #020202; stroke: #020202; stroke-width: 0.99"/>
    <path d="M 53.706521 56.551853 
L 22.14668 61.560487 
" clip-path="url(#p7112abd219)" style="fill: #020202"/>
    <path d="M 53.819574 56.996091 
L 30.2366 65.364985 
" clip-path="url(#p7112abd219)" style="fill: #020202"/>
    <path d="M 54.100881 57.554797 
L 42.649557 65.253244 
" clip-path="url(#p7112abd219)" style="fill: #020202"/>
    <path d="M 54.79095 58.241511 
L 52.599353 61.536038 
" clip-path="url(#p7112abd219)" style="fill: #020202"/>
    <path d="M 54.639606 49.429231 
C 79.501185 37.666688 58.022396 20.914132 52.66831 47.891703 
C 58.022396 20.914132 79.501185 37.666688 54.639606 49.429231 
" clip-path="url(#p7112abd219)" style="fill: #020202"/>
    <path d="M 49.966373 49.531569 
L 42.705819 46.955015 
" clip-path="url(#p7112abd219)" style="fill: #020202; stroke: #020202; stroke-width: 0.99"/>
    <path d="M 49.85332 49.975807 
L 30.25921 46.866167 
" clip-path="url(#p7112abd219)" style="fill: #020202; stroke: #020202; stroke-width: 0.99"/>
    <path d="M 49.822419 50.36766 
L 22.177581 50.36766 
" clip-path="url(#p7112abd219)" style="fill: #020202"/>
    <path d="M 49.85332 50.759513 
L 18.293479 55.768147 
" clip-path="url(#p7112abd219)" style="fill: #020202"/>
    <path d="M 49.966373 51.20375 
L 22.033627 61.11625 
" clip-path="url(#p7112abd219)" style="fill: #020202"/>
    <path d="M 50.24768 51.762456 
L 30.180338 65.253244 
" clip-path="url(#p7112abd219)" style="fill: #020202"/>
    <path d="M 50.937749 52.449171 
L 42.511543 65.115901 
" clip-path="url(#p7112abd219)" style="fill: #020202"/>
    <path d="M 52.322419 52.86766 
L 52.322419 61.45234 
" clip-path="url(#p7112abd219)" style="fill: #020202"/>
    <path d="M 42.554457 46.403482 
C 60.192372 22.756176 33.347928 18.13423 42.061707 46.318643 
C 33.347928 18.13423 60.192372 22.756176 42.554457 46.403482 
" clip-path="url(#p7112abd219)" style="fill: #020202"/>
    <path d="M 41.734609 46.787797 
L 30.265391 46.787797 
" clip-path="url(#p7112abd219)" style="fill: #020202"/>
    <path d="M 41.74079 46.866167 
L 22.14668 49.975807 
" clip-path="url(#p7112abd219)" style="fill: #020202"/>
    <path d="M 41.7634 46.955015 
L 18.180426 55.323909 
" clip-path="url(#p7112abd219)" style="fill: #020202"/>
    <path d="M 41.819662 47.066756 
L 21.75232 60.557544 
" clip-path="url(#p7112abd219)" style="fill: #020202"/>
    <path d="M 41.957675 47.204099 
L 30.042325 65.115901 
" clip-path="url(#p7112abd219)" style="fill: #020202"/>
    <path d="M 42.234609 47.287797 
L 42.234609 65.032203 
" clip-path="url(#p7112abd219)" style="fill: #020202; stroke: #020202; stroke-width: 0.99"/>
    <path d="M 42.511543 47.204099 
L 52.045485 61.536038 
" clip-path="url(#p7112abd219)" style="fill: #020202"/>
    <path d="M 29.938293 46.318643 
C 38.652072 18.13423 11.807628 22.756176 29.445543 46.403482 
C 11.807628 22.756176 38.652072 18.13423 29.938293 46.318643 
" clip-path="url(#p7112abd219)" style="fill: #020202"/>
    <path d="M 29.294181 46.955015 
L 22.033627 49.531569 
" clip-path="url(#p7112abd219)" style="fill: #020202"/>
    <path d="M 29.350443 47.066756 
L 17.899119 54.765203 
" clip-path="url(#p7112abd219)" style="fill: #020202"/>
    <path d="M 29.488457 47.204099 
L 21.062251 59.870829 
" clip-path="url(#p7112abd219)" style="fill: #020202"/>
    <path d="M 29.765391 47.287797 
L 29.765391 65.032203 
" clip-path="url(#p7112abd219)" style="fill: #020202"/>
    <path d="M 30.042325 47.204099 
L 41.957675 65.115901 
" clip-path="url(#p7112abd219)" style="fill: #020202"/>
    <path d="M 30.180338 47.066756 
L 51.907472 61.673381 
" clip-path="url(#p7112abd219)" style="fill: #020202"/>
    <path d="M 19.33169 47.891703 
C 13.977604 20.914132 -7.501185 37.666688 17.360394 49.429231 
C -7.501185 37.666688 13.977604 20.914132 19.33169 47.891703 
" clip-path="url(#p7112abd219)" style="fill: #020202"/>
    <path d="M 18.292911 52.449171 
L 17.20905 54.078489 
" clip-path="url(#p7112abd219)" style="fill: #020202; stroke: #020202; stroke-width: 0.99"/>
    <path d="M 19.677581 52.86766 
L 19.677581 59.45234 
" clip-path="url(#p7112abd219)" style="fill: #020202; stroke: #020202; stroke-width: 0.99"/>
    <path d="M 21.062251 52.449171 
L 29.488457 65.115901 
" clip-path="url(#p7112abd219)" style="fill: #020202"/>
    <path d="M 21.75232 51.762456 
L 41.819662 65.253244 
" clip-path="url(#p7112abd219)" style="fill: #020202"/>
    <path d="M 22.033627 51.20375 
L 51.85121 61.785122 
" clip-path="url(#p7112abd219)" style="fill: #020202; stroke: #020202; stroke-width: 0.99"/>
    <path d="M 13.659317 54.91 
C -10.905816 42.540285 -10.905816 69.779715 13.659317 57.41 
C -10.905816 69.779715 -10.905816 42.540285 13.659317 54.91 
" clip-path="url(#p7112abd219)" style="fill: #020202"/>
    <path d="M 17.20905 58.241511 
L 18.292911 59.870829 
" clip-path="url(#p7112abd219)" style="fill: #020202; stroke: #020202; stroke-width: 0.99"/>
    <path d="M 17.899119 57.554797 
L 29.350443 65.253244 
" clip-path="url(#p7112abd219)" style="fill: #020202"/>
    <path d="M 18.180426 56.996091 
L 41.7634 65.364985 
" clip-path="url(#p7112abd219)" style="fill: #020202"/>
    <path d="M 18.293479 56.551853 
L 51.828599 61.87397 
" clip-path="url(#p7112abd219)" style="fill: #020202"/>
    <path d="M 17.360394 62.890769 
C -7.501185 74.653312 13.977604 91.405868 19.33169 64.428297 
C 13.977604 91.405868 -7.501185 74.653312 17.360394 62.890769 
" clip-path="url(#p7112abd219)" style="fill: #020202"/>
    <path d="M 22.033627 62.788431 
L 29.294181 65.364985 
" clip-path="url(#p7112abd219)" style="fill: #020202; stroke: #020202; stroke-width: 0.99"/>
    <path d="M 22.14668 62.344193 
L 41.74079 65.453833 
" clip-path="url(#p7112abd219)" style="fill: #020202"/>
    <path d="M 22.177581 61.95234 
L 51.822419 61.95234 
" clip-path="url(#p7112abd219)" style="fill: #020202"/>
    <path d="M 29.445543 65.916518 
C 11.807628 89.563824 38.652072 94.18577 29.938293 66.001357 
C 38.652072 94.18577 11.807628 89.563824 29.445543 65.916518 
" clip-path="url(#p7112abd219)" style="fill: #020202"/>
    <path d="M 30.265391 65.532203 
L 41.734609 65.532203 
" clip-path="url(#p7112abd219)" style="fill: #020202"/>
    <path d="M 30.25921 65.453833 
L 51.828599 62.030711 
" clip-path="url(#p7112abd219)" style="fill: #020202"/>
    <path d="M 42.061707 66.001357 
C 33.347928 94.18577 60.192372 89.563824 42.554457 65.916518 
C 60.192372 89.563824 33.347928 94.18577 42.061707 66.001357 
" clip-path="url(#p7112abd219)" style="fill: #020202"/>
    <path d="M 42.705819 65.364985 
L 51.85121 62.119558 
" clip-path="url(#p7112abd219)" style="fill: #020202; stroke: #020202; stroke-width: 0.99"/>
    <path d="M 52.391597 62.447532 
C 58.022396 91.405868 79.501185 74.653312 52.785857 62.140026 
C 79.501185 74.653312 58.022396 91.405868 52.391597 62.447532 
" clip-path="url(#p7112abd219)" style="fill: #020202"/>
   </g>
   <g id="VertexCollection_2">
    <path d="M 56.17562 58.66 
C 56.838628 58.66 57.47457 58.396584 57.943387 57.927767 
C 58.412204 57.45895 58.67562 56.823008 58.67562 56.16 
C 58.67562 55.496992 58.412204 54.86105 57.943387 54.392233 
C 57.47457 53.923416 56.838628 53.66 56.17562 53.66 
C 55.512612 53.66 54.87667 53.923416 54.407853 54.392233 
C 53.939036 54.86105 53.67562 55.496992 53.67562 56.16 
C 53.67562 56.823008 53.939036 57.45895 54.407853 57.927767 
C 54.87667 58.396584 55.512612 58.66 56.17562 58.66 
z
" clip-path="url(#p7112abd219)" style="fill: #bebebe"/>
    <path d="M 52.322419 52.86766 
C 52.985427 52.86766 53.621369 52.604244 54.090186 52.135427 
C 54.559004 51.666609 54.822419 51.030667 54.822419 50.36766 
C 54.822419 49.704652 54.559004 49.06871 54.090186 48.599893 
C 53.621369 48.131075 52.985427 47.86766 52.322419 47.86766 
C 51.659412 47.86766 51.02347 48.131075 50.554652 48.599893 
C 50.085835 49.06871 49.822419 49.704652 49.822419 50.36766 
C 49.822419 51.030667 50.085835 51.666609 50.554652 52.135427 
C 51.02347 52.604244 51.659412 52.86766 52.322419 52.86766 
z
" clip-path="url(#p7112abd219)" style="fill: #bebebe"/>
    <path d="M 42.234609 47.287797 
C 42.367211 47.287797 42.494399 47.235113 42.588163 47.14135 
C 42.681926 47.047586 42.734609 46.920398 42.734609 46.787797 
C 42.734609 46.655195 42.681926 46.528007 42.588163 46.434243 
C 42.494399 46.34048 42.367211 46.287797 42.234609 46.287797 
C 42.102008 46.287797 41.974819 46.34048 41.881056 46.434243 
C 41.787293 46.528007 41.734609 46.655195 41.734609 46.787797 
C 41.734609 46.920398 41.787293 47.047586 41.881056 47.14135 
C 41.974819 47.235113 42.102008 47.287797 42.234609 47.287797 
z
" clip-path="url(#p7112abd219)" style="fill: #bebebe"/>
    <path d="M 29.765391 47.287797 
C 29.897992 47.287797 30.025181 47.235113 30.118944 47.14135 
C 30.212707 47.047586 30.265391 46.920398 30.265391 46.787797 
C 30.265391 46.655195 30.212707 46.528007 30.118944 46.434243 
C 30.025181 46.34048 29.897992 46.287797 29.765391 46.287797 
C 29.632789 46.287797 29.505601 46.34048 29.411837 46.434243 
C 29.318074 46.528007 29.265391 46.655195 29.265391 46.787797 
C 29.265391 46.920398 29.318074 47.047586 29.411837 47.14135 
C 29.505601 47.235113 29.632789 47.287797 29.765391 47.287797 
z
" clip-path="url(#p7112abd219)" style="fill: #bebebe"/>
    <path d="M 19.677581 52.86766 
C 20.340588 52.86766 20.97653 52.604244 21.445348 52.135427 
C 21.914165 51.666609 22.177581 51.030667 22.177581 50.36766 
C 22.177581 49.704652 21.914165 49.06871 21.445348 48.599893 
C 20.97653 48.131075 20.340588 47.86766 19.677581 47.86766 
C 19.014573 47.86766 18.378631 48.131075 17.909814 48.599893 
C 17.440996 49.06871 17.177581 49.704652 17.177581 50.36766 
C 17.177581 51.030667 17.440996 51.666609 17.909814 52.135427 
C 18.378631 52.604244 19.014573 52.86766 19.677581 52.86766 
z
" clip-path="url(#p7112abd219)" style="fill: #bebebe"/>
    <path d="M 15.82438 58.66 
C 16.487388 58.66 17.12333 58.396584 17.592147 57.927767 
C 18.060964 57.45895 18.32438 56.823008 18.32438 56.16 
C 18.32438 55.496992 18.060964 54.86105 17.592147 54.392233 
C 17.12333 53.923416 16.487388 53.66 15.82438 53.66 
C 15.161372 53.66 14.52543 53.923416 14.056613 54.392233 
C 13.587796 54.86105 13.32438 55.496992 13.32438 56.16 
C 13.32438 56.823008 13.587796 57.45895 14.056613 57.927767 
C 14.52543 58.396584 15.161372 58.66 15.82438 58.66 
z
" clip-path="url(#p7112abd219)" style="fill: #bebebe"/>
    <path d="M 19.677581 64.45234 
C 20.340588 64.45234 20.97653 64.188925 21.445348 63.720107 
C 21.914165 63.25129 22.177581 62.615348 22.177581 61.95234 
C 22.177581 61.289333 21.914165 60.653391 21.445348 60.184573 
C 20.97653 59.715756 20.340588 59.45234 19.677581 59.45234 
C 19.014573 59.45234 18.378631 59.715756 17.909814 60.184573 
C 17.440996 60.653391 17.177581 61.289333 17.177581 61.95234 
C 17.177581 62.615348 17.440996 63.25129 17.909814 63.720107 
C 18.378631 64.188925 19.014573 64.45234 19.677581 64.45234 
z
" clip-path="url(#p7112abd219)" style="fill: #bebebe"/>
    <path d="M 29.765391 66.032203 
C 29.897992 66.032203 30.025181 65.97952 30.118944 65.885757 
C 30.212707 65.791993 30.265391 65.664805 30.265391 65.532203 
C 30.265391 65.399602 30.212707 65.272414 30.118944 65.17865 
C 30.025181 65.084887 29.897992 65.032203 29.765391 65.032203 
C 29.632789 65.032203 29.505601 65.084887 29.411837 65.17865 
C 29.318074 65.272414 29.265391 65.399602 29.265391 65.532203 
C 29.265391 65.664805 29.318074 65.791993 29.411837 65.885757 
C 29.505601 65.97952 29.632789 66.032203 29.765391 66.032203 
z
" clip-path="url(#p7112abd219)" style="fill: #bebebe"/>
    <path d="M 42.234609 66.032203 
C 42.367211 66.032203 42.494399 65.97952 42.588163 65.885757 
C 42.681926 65.791993 42.734609 65.664805 42.734609 65.532203 
C 42.734609 65.399602 42.681926 65.272414 42.588163 65.17865 
C 42.494399 65.084887 42.367211 65.032203 42.234609 65.032203 
C 42.102008 65.032203 41.974819 65.084887 41.881056 65.17865 
C 41.787293 65.272414 41.734609 65.399602 41.734609 65.532203 
C 41.734609 65.664805 41.787293 65.791993 41.881056 65.885757 
C 41.974819 65.97952 42.102008 66.032203 42.234609 66.032203 
z
" clip-path="url(#p7112abd219)" style="fill: #bebebe"/>
    <path d="M 52.322419 62.45234 
C 52.455021 62.45234 52.582209 62.399657 52.675973 62.305894 
C 52.769736 62.21213 52.822419 62.084942 52.822419 61.95234 
C 52.822419 61.819739 52.769736 61.69255 52.675973 61.598787 
C 52.582209 61.505023 52.455021 61.45234 52.322419 61.45234 
C 52.189818 61.45234 52.062629 61.505023 51.968866 61.598787 
C 51.875102 61.69255 51.822419 61.819739 51.822419 61.95234 
C 51.822419 62.084942 51.875102 62.21213 51.968866 62.305894 
C 52.062629 62.399657 52.189818 62.45234 52.322419 62.45234 
z
" clip-path="url(#p7112abd219)" style="fill: #bebebe"/>
   </g>
   <g id="matplotlib.axis_3"/>
   <g id="matplotlib.axis_4"/>
  </g>
  <g id="axes_3">
   <g id="patch_4">
    <path d="M 10.8 101.52 
L 61.2 101.52 
L 61.2 78.48 
L 10.8 78.48 
z
" style="fill: #ffffff"/>
   </g>
   <g id="EdgeCollection_3">
    <path d="M 57.125956 90.25 
C 83.423139 103.619715 83.423139 76.380285 57.125956 89.75 
C 83.423139 76.380285 83.423139 103.619715 57.125956 90.25 
" clip-path="url(#pa86cde87b7)" style="fill: #020202"/>
    <path d="M 56.399503 89.595163 
L 53.034383 84.95257 
" clip-path="url(#pa86cde87b7)" style="fill: #020202"/>
    <path d="M 56.267419 89.737457 
L 42.819996 81.44059 
" clip-path="url(#pa86cde87b7)" style="fill: #020202"/>
    <path d="M 56.217522 89.845163 
L 31.982635 81.952234 
" clip-path="url(#pa86cde87b7)" style="fill: #020202"/>
    <path d="M 56.198164 89.927935 
L 19.753837 84.619798 
" clip-path="url(#pa86cde87b7)" style="fill: #020202"/>
    <path d="M 56.192943 90 
L 15.807057 90 
" clip-path="url(#pa86cde87b7)" style="fill: #020202"/>
    <path d="M 56.198164 90.072065 
L 19.753837 95.380202 
" clip-path="url(#pa86cde87b7)" style="fill: #020202"/>
    <path d="M 56.217522 90.154837 
L 30.08095 98.667116 
" clip-path="url(#pa86cde87b7)" style="fill: #020202"/>
    <path d="M 56.267419 90.262543 
L 44.522095 97.50924 
" clip-path="url(#pa86cde87b7)" style="fill: #020202"/>
    <path d="M 56.399503 90.404837 
L 54.208145 93.428083 
" clip-path="url(#pa86cde87b7)" style="fill: #020202"/>
    <path d="M 53.197899 84.344778 
C 79.483449 70.952206 57.460782 54.921341 52.793657 84.05052 
C 57.460782 54.921341 79.483449 70.952206 53.197899 84.344778 
" clip-path="url(#pa86cde87b7)" style="fill: #020202"/>
    <path d="M 52.265522 84.392896 
L 42.869892 81.332884 
" clip-path="url(#pa86cde87b7)" style="fill: #020202"/>
    <path d="M 52.246163 84.475668 
L 32.079426 81.538371 
" clip-path="url(#pa86cde87b7)" style="fill: #020202"/>
    <path d="M 52.240943 84.547733 
L 19.759057 84.547733 
" clip-path="url(#pa86cde87b7)" style="fill: #020202"/>
    <path d="M 52.246163 84.619798 
L 15.801836 89.927935 
" clip-path="url(#pa86cde87b7)" style="fill: #020202"/>
    <path d="M 52.265522 84.70257 
L 19.734478 95.29743 
" clip-path="url(#pa86cde87b7)" style="fill: #020202"/>
    <path d="M 52.315418 84.810276 
L 30.031054 98.55941 
" clip-path="url(#pa86cde87b7)" style="fill: #020202"/>
    <path d="M 52.447503 84.95257 
L 43.861673 96.79777 
" clip-path="url(#pa86cde87b7)" style="fill: #020202"/>
    <path d="M 52.740943 85.047733 
L 52.740943 92.952267 
" clip-path="url(#pa86cde87b7)" style="fill: #020202"/>
    <path d="M 42.709266 80.789583 
C 60.036421 56.913637 33.133829 52.643147 42.215449 80.711195 
C 33.133829 52.643147 60.036421 56.913637 42.709266 80.789583 
" clip-path="url(#pa86cde87b7)" style="fill: #020202"/>
    <path d="M 41.894471 81.178047 
L 32.105529 81.178047 
" clip-path="url(#pa86cde87b7)" style="fill: #020202; stroke: #020202; stroke-width: 0.99"/>
    <path d="M 41.899692 81.250112 
L 19.753837 84.475668 
" clip-path="url(#pa86cde87b7)" style="fill: #020202"/>
    <path d="M 41.91905 81.332884 
L 15.782478 89.845163 
" clip-path="url(#pa86cde87b7)" style="fill: #020202"/>
    <path d="M 41.968946 81.44059 
L 19.684582 95.189724 
" clip-path="url(#pa86cde87b7)" style="fill: #020202"/>
    <path d="M 42.101031 81.582884 
L 29.898969 98.417116 
" clip-path="url(#pa86cde87b7)" style="fill: #020202"/>
    <path d="M 42.394471 81.678047 
L 42.394471 96.321953 
" clip-path="url(#pa86cde87b7)" style="fill: #020202"/>
    <path d="M 42.687912 81.582884 
L 51.273741 93.428083 
" clip-path="url(#pa86cde87b7)" style="fill: #020202"/>
    <path d="M 30.500641 78.843786 
C 38.866171 52.643147 11.963579 56.913637 28.031556 79.235726 
C 11.963579 56.913637 38.866171 52.643147 30.500641 78.843786 
" clip-path="url(#pa86cde87b7)" style="fill: #020202"/>
    <path d="M 27.228422 81.952234 
L 19.734478 84.392896 
" clip-path="url(#pa86cde87b7)" style="fill: #020202"/>
    <path d="M 27.477905 82.49076 
L 15.732581 89.737457 
" clip-path="url(#pa86cde87b7)" style="fill: #020202; stroke: #020202; stroke-width: 0.99"/>
    <path d="M 28.138327 83.20223 
L 19.552497 95.04743 
" clip-path="url(#pa86cde87b7)" style="fill: #020202"/>
    <path d="M 29.605529 83.678047 
L 29.605529 98.321953 
" clip-path="url(#pa86cde87b7)" style="fill: #020202"/>
    <path d="M 31.07273 83.20223 
L 40.92727 96.79777 
" clip-path="url(#pa86cde87b7)" style="fill: #020202"/>
    <path d="M 31.733153 82.49076 
L 50.613319 94.139553 
" clip-path="url(#pa86cde87b7)" style="fill: #020202; stroke: #020202; stroke-width: 0.99"/>
    <path d="M 19.206343 84.05052 
C 14.539218 54.921341 -7.483449 70.952206 18.802101 84.344778 
C -7.483449 70.952206 14.539218 54.921341 19.206343 84.05052 
" clip-path="url(#pa86cde87b7)" style="fill: #020202"/>
    <path d="M 18.965617 84.95257 
L 15.600497 89.595163 
" clip-path="url(#pa86cde87b7)" style="fill: #020202"/>
    <path d="M 19.259057 85.047733 
L 19.259057 94.952267 
" clip-path="url(#pa86cde87b7)" style="fill: #020202"/>
    <path d="M 19.552497 84.95257 
L 29.312088 98.417116 
" clip-path="url(#pa86cde87b7)" style="fill: #020202"/>
    <path d="M 19.684582 84.810276 
L 40.266847 97.50924 
" clip-path="url(#pa86cde87b7)" style="fill: #020202; stroke: #020202; stroke-width: 0.99"/>
    <path d="M 19.734478 84.70257 
L 50.363837 94.67808 
" clip-path="url(#pa86cde87b7)" style="fill: #020202; stroke: #020202; stroke-width: 0.99"/>
    <path d="M 14.874044 89.75 
C -11.423139 76.380285 -11.423139 103.619715 14.874044 90.25 
C -11.423139 103.619715 -11.423139 76.380285 14.874044 89.75 
" clip-path="url(#pa86cde87b7)" style="fill: #020202"/>
    <path d="M 15.600497 90.404837 
L 18.965617 95.04743 
" clip-path="url(#pa86cde87b7)" style="fill: #020202; stroke: #020202; stroke-width: 0.99"/>
    <path d="M 15.732581 90.262543 
L 29.180004 98.55941 
" clip-path="url(#pa86cde87b7)" style="fill: #020202"/>
    <path d="M 15.782478 90.154837 
L 40.017365 98.047766 
" clip-path="url(#pa86cde87b7)" style="fill: #020202"/>
    <path d="M 15.801836 90.072065 
L 50.267046 95.091942 
" clip-path="url(#pa86cde87b7)" style="fill: #020202"/>
    <path d="M 18.802101 95.655222 
C -7.483449 109.047794 14.539218 125.078659 19.206343 95.94948 
C 14.539218 125.078659 -7.483449 109.047794 18.802101 95.655222 
" clip-path="url(#pa86cde87b7)" style="fill: #020202"/>
    <path d="M 19.734478 95.607104 
L 29.130108 98.667116 
" clip-path="url(#pa86cde87b7)" style="fill: #020202"/>
    <path d="M 19.753837 95.524332 
L 39.920574 98.461629 
" clip-path="url(#pa86cde87b7)" style="fill: #020202"/>
    <path d="M 19.759057 95.452267 
L 50.240943 95.452267 
" clip-path="url(#pa86cde87b7)" style="fill: #020202"/>
    <path d="M 29.290734 99.210417 
C 11.963579 123.086363 38.866171 127.356853 29.784551 99.288805 
C 38.866171 127.356853 11.963579 123.086363 29.290734 99.210417 
" clip-path="url(#pa86cde87b7)" style="fill: #020202"/>
    <path d="M 30.105529 98.821953 
L 39.894471 98.821953 
" clip-path="url(#pa86cde87b7)" style="fill: #020202; stroke: #020202; stroke-width: 0.99"/>
    <path d="M 30.100308 98.749888 
L 50.267046 95.812591 
" clip-path="url(#pa86cde87b7)" style="fill: #020202"/>
    <path d="M 41.499359 101.156214 
C 33.133829 127.356853 60.036421 123.086363 43.968444 100.764274 
C 60.036421 123.086363 33.133829 127.356853 41.499359 101.156214 
" clip-path="url(#pa86cde87b7)" style="fill: #020202"/>
    <path d="M 44.771578 98.047766 
L 50.363837 96.226454 
" clip-path="url(#pa86cde87b7)" style="fill: #020202; stroke: #020202; stroke-width: 0.99"/>
    <path d="M 53.004513 97.938334 
C 57.460782 125.078659 79.483449 109.047794 55.025726 96.467042 
C 79.483449 109.047794 57.460782 125.078659 53.004513 97.938334 
" clip-path="url(#pa86cde87b7)" style="fill: #020202"/>
   </g>
   <g id="VertexCollection_3">
    <path d="M 56.692943 90.5 
C 56.825545 90.5 56.952733 90.447317 57.046497 90.353553 
C 57.14026 90.25979 57.192943 90.132602 57.192943 90 
C 57.192943 89.867398 57.14026 89.74021 57.046497 89.646447 
C 56.952733 89.552683 56.825545 89.5 56.692943 89.5 
C 56.560342 89.5 56.433153 89.552683 56.33939 89.646447 
C 56.245627 89.74021 56.192943 89.867398 56.192943 90 
C 56.192943 90.132602 56.245627 90.25979 56.33939 90.353553 
C 56.433153 90.447317 56.560342 90.5 56.692943 90.5 
z
" clip-path="url(#pa86cde87b7)" style="fill: #bebebe"/>
    <path d="M 52.740943 85.047733 
C 52.873544 85.047733 53.000733 84.99505 53.094496 84.901286 
C 53.18826 84.807523 53.240943 84.680335 53.240943 84.547733 
C 53.240943 84.415132 53.18826 84.287943 53.094496 84.19418 
C 53.000733 84.100416 52.873544 84.047733 52.740943 84.047733 
C 52.608341 84.047733 52.481153 84.100416 52.38739 84.19418 
C 52.293626 84.287943 52.240943 84.415132 52.240943 84.547733 
C 52.240943 84.680335 52.293626 84.807523 52.38739 84.901286 
C 52.481153 84.99505 52.608341 85.047733 52.740943 85.047733 
z
" clip-path="url(#pa86cde87b7)" style="fill: #bebebe"/>
    <path d="M 42.394471 81.678047 
C 42.527073 81.678047 42.654261 81.625364 42.748025 81.5316 
C 42.841788 81.437837 42.894471 81.310648 42.894471 81.178047 
C 42.894471 81.045445 42.841788 80.918257 42.748025 80.824493 
C 42.654261 80.73073 42.527073 80.678047 42.394471 80.678047 
C 42.26187 80.678047 42.134681 80.73073 42.040918 80.824493 
C 41.947154 80.918257 41.894471 81.045445 41.894471 81.178047 
C 41.894471 81.310648 41.947154 81.437837 42.040918 81.5316 
C 42.134681 81.625364 42.26187 81.678047 42.394471 81.678047 
z
" clip-path="url(#pa86cde87b7)" style="fill: #bebebe"/>
    <path d="M 29.605529 83.678047 
C 30.268537 83.678047 30.904478 83.414631 31.373296 82.945814 
C 31.842113 82.476996 32.105529 81.841055 32.105529 81.178047 
C 32.105529 80.515039 31.842113 79.879097 31.373296 79.41028 
C 30.904478 78.941463 30.268537 78.678047 29.605529 78.678047 
C 28.942521 78.678047 28.306579 78.941463 27.837762 79.41028 
C 27.368945 79.879097 27.105529 80.515039 27.105529 81.178047 
C 27.105529 81.841055 27.368945 82.476996 27.837762 82.945814 
C 28.306579 83.414631 28.942521 83.678047 29.605529 83.678047 
z
" clip-path="url(#pa86cde87b7)" style="fill: #bebebe"/>
    <path d="M 19.259057 85.047733 
C 19.391659 85.047733 19.518847 84.99505 19.61261 84.901286 
C 19.706374 84.807523 19.759057 84.680335 19.759057 84.547733 
C 19.759057 84.415132 19.706374 84.287943 19.61261 84.19418 
C 19.518847 84.100416 19.391659 84.047733 19.259057 84.047733 
C 19.126456 84.047733 18.999267 84.100416 18.905504 84.19418 
C 18.81174 84.287943 18.759057 84.415132 18.759057 84.547733 
C 18.759057 84.680335 18.81174 84.807523 18.905504 84.901286 
C 18.999267 84.99505 19.126456 85.047733 19.259057 85.047733 
z
" clip-path="url(#pa86cde87b7)" style="fill: #bebebe"/>
    <path d="M 15.307057 90.5 
C 15.439658 90.5 15.566847 90.447317 15.66061 90.353553 
C 15.754373 90.25979 15.807057 90.132602 15.807057 90 
C 15.807057 89.867398 15.754373 89.74021 15.66061 89.646447 
C 15.566847 89.552683 15.439658 89.5 15.307057 89.5 
C 15.174455 89.5 15.047267 89.552683 14.953503 89.646447 
C 14.85974 89.74021 14.807057 89.867398 14.807057 90 
C 14.807057 90.132602 14.85974 90.25979 14.953503 90.353553 
C 15.047267 90.447317 15.174455 90.5 15.307057 90.5 
z
" clip-path="url(#pa86cde87b7)" style="fill: #bebebe"/>
    <path d="M 19.259057 95.952267 
C 19.391659 95.952267 19.518847 95.899584 19.61261 95.80582 
C 19.706374 95.712057 19.759057 95.584868 19.759057 95.452267 
C 19.759057 95.319665 19.706374 95.192477 19.61261 95.098714 
C 19.518847 95.00495 19.391659 94.952267 19.259057 94.952267 
C 19.126456 94.952267 18.999267 95.00495 18.905504 95.098714 
C 18.81174 95.192477 18.759057 95.319665 18.759057 95.452267 
C 18.759057 95.584868 18.81174 95.712057 18.905504 95.80582 
C 18.999267 95.899584 19.126456 95.952267 19.259057 95.952267 
z
" clip-path="url(#pa86cde87b7)" style="fill: #bebebe"/>
    <path d="M 29.605529 99.321953 
C 29.73813 99.321953 29.865319 99.26927 29.959082 99.175507 
C 30.052846 99.081743 30.105529 98.954555 30.105529 98.821953 
C 30.105529 98.689352 30.052846 98.562163 29.959082 98.4684 
C 29.865319 98.374636 29.73813 98.321953 29.605529 98.321953 
C 29.472927 98.321953 29.345739 98.374636 29.251975 98.4684 
C 29.158212 98.562163 29.105529 98.689352 29.105529 98.821953 
C 29.105529 98.954555 29.158212 99.081743 29.251975 99.175507 
C 29.345739 99.26927 29.472927 99.321953 29.605529 99.321953 
z
" clip-path="url(#pa86cde87b7)" style="fill: #bebebe"/>
    <path d="M 42.394471 101.321953 
C 43.057479 101.321953 43.693421 101.058537 44.162238 100.58972 
C 44.631055 100.120903 44.894471 99.484961 44.894471 98.821953 
C 44.894471 98.158945 44.631055 97.523004 44.162238 97.054186 
C 43.693421 96.585369 43.057479 96.321953 42.394471 96.321953 
C 41.731463 96.321953 41.095522 96.585369 40.626704 97.054186 
C 40.157887 97.523004 39.894471 98.158945 39.894471 98.821953 
C 39.894471 99.484961 40.157887 100.120903 40.626704 100.58972 
C 41.095522 101.058537 41.731463 101.321953 42.394471 101.321953 
z
" clip-path="url(#pa86cde87b7)" style="fill: #bebebe"/>
    <path d="M 52.740943 97.952267 
C 53.403951 97.952267 54.039893 97.688851 54.50871 97.220034 
C 54.977527 96.751217 55.240943 96.115275 55.240943 95.452267 
C 55.240943 94.789259 54.977527 94.153317 54.50871 93.6845 
C 54.039893 93.215683 53.403951 92.952267 52.740943 92.952267 
C 52.077935 92.952267 51.441993 93.215683 50.973176 93.6845 
C 50.504359 94.153317 50.240943 94.789259 50.240943 95.452267 
C 50.240943 96.115275 50.504359 96.751217 50.973176 97.220034 
C 51.441993 97.688851 52.077935 97.952267 52.740943 97.952267 
z
" clip-path="url(#pa86cde87b7)" style="fill: #bebebe"/>
   </g>
   <g id="matplotlib.axis_5"/>
   <g id="matplotlib.axis_6"/>
  </g>
  <g id="axes_4">
   <g id="patch_5">
    <path d="M 10.8 135.36 
L 61.2 135.36 
L 61.2 112.32 
L 10.8 112.32 
z
" style="fill: #ffffff"/>
   </g>
   <g id="EdgeCollection_4">
    <path d="M 58.332445 124.802064 
C 82.897577 137.171779 82.897577 109.932349 58.332445 122.302064 
C 82.897577 109.932349 82.897577 137.171779 58.332445 124.802064 
" clip-path="url(#p1eb0621957)" style="fill: #020202"/>
    <path d="M 54.741104 121.49884 
L 52.550662 118.345548 
" clip-path="url(#p1eb0621957)" style="fill: #020202; stroke: #020202; stroke-width: 0.99"/>
    <path d="M 54.065332 122.198776 
L 42.470312 114.733964 
" clip-path="url(#p1eb0621957)" style="fill: #020202"/>
    <path d="M 53.800331 122.747655 
L 29.896256 114.624188 
" clip-path="url(#p1eb0621957)" style="fill: #020202; stroke: #020202; stroke-width: 0.99"/>
    <path d="M 53.695763 123.176429 
L 21.67896 118.310538 
" clip-path="url(#p1eb0621957)" style="fill: #020202"/>
    <path d="M 53.667382 123.552064 
L 15.805367 123.552064 
" clip-path="url(#p1eb0621957)" style="fill: #020202; stroke: #020202; stroke-width: 0.99"/>
    <path d="M 53.695763 123.927699 
L 19.701666 129.094099 
" clip-path="url(#p1eb0621957)" style="fill: #020202"/>
    <path d="M 53.800331 124.356473 
L 29.896256 132.47994 
" clip-path="url(#p1eb0621957)" style="fill: #020202"/>
    <path d="M 54.065332 124.905352 
L 44.151952 131.287534 
" clip-path="url(#p1eb0621957)" style="fill: #020202"/>
    <path d="M 54.741104 125.605289 
L 53.691684 127.116001 
" clip-path="url(#p1eb0621957)" style="fill: #020202"/>
    <path d="M 52.725631 117.739472 
C 79.227361 104.779943 57.470659 88.389932 52.326271 117.438621 
C 57.470659 88.389932 79.227361 104.779943 52.725631 117.739472 
" clip-path="url(#p1eb0621957)" style="fill: #020202"/>
    <path d="M 51.791996 117.774021 
L 42.523313 114.624188 
" clip-path="url(#p1eb0621957)" style="fill: #020202"/>
    <path d="M 51.771083 117.859776 
L 29.917169 114.538434 
" clip-path="url(#p1eb0621957)" style="fill: #020202"/>
    <path d="M 51.765406 117.934903 
L 21.707342 117.934903 
" clip-path="url(#p1eb0621957)" style="fill: #020202"/>
    <path d="M 51.771083 118.01003 
L 15.79969 123.476937 
" clip-path="url(#p1eb0621957)" style="fill: #020202"/>
    <path d="M 51.791996 118.095785 
L 19.680752 129.008344 
" clip-path="url(#p1eb0621957)" style="fill: #020202"/>
    <path d="M 51.844996 118.205561 
L 29.843255 132.370164 
" clip-path="url(#p1eb0621957)" style="fill: #020202"/>
    <path d="M 51.980151 118.345548 
L 43.47618 130.587597 
" clip-path="url(#p1eb0621957)" style="fill: #020202"/>
    <path d="M 52.265406 118.434903 
L 52.265406 126.669225 
" clip-path="url(#p1eb0621957)" style="fill: #020202; stroke: #020202; stroke-width: 0.99"/>
    <path d="M 42.367165 114.076856 
C 59.846065 90.311773 32.971223 85.869993 41.873858 113.995324 
C 32.971223 85.869993 59.846065 90.311773 42.367165 114.076856 
" clip-path="url(#p1eb0621957)" style="fill: #020202"/>
    <path d="M 41.549903 114.463307 
L 29.922846 114.463307 
" clip-path="url(#p1eb0621957)" style="fill: #020202"/>
    <path d="M 41.555579 114.538434 
L 21.67896 117.559268 
" clip-path="url(#p1eb0621957)" style="fill: #020202"/>
    <path d="M 41.576493 114.624188 
L 15.778777 123.391183 
" clip-path="url(#p1eb0621957)" style="fill: #020202"/>
    <path d="M 41.629493 114.733964 
L 19.627752 128.898568 
" clip-path="url(#p1eb0621957)" style="fill: #020202"/>
    <path d="M 41.764647 114.873952 
L 29.708101 132.230177 
" clip-path="url(#p1eb0621957)" style="fill: #020202"/>
    <path d="M 42.049903 114.963307 
L 42.049903 130.140822 
" clip-path="url(#p1eb0621957)" style="fill: #020202"/>
    <path d="M 42.335158 114.873952 
L 50.839129 127.116001 
" clip-path="url(#p1eb0621957)" style="fill: #020202"/>
    <path d="M 29.598891 113.995324 
C 38.501525 85.869993 11.626683 90.311773 29.105583 114.076856 
C 11.626683 90.311773 38.501525 85.869993 29.598891 113.995324 
" clip-path="url(#p1eb0621957)" style="fill: #020202"/>
    <path d="M 28.949436 114.624188 
L 21.574392 117.130494 
" clip-path="url(#p1eb0621957)" style="fill: #020202"/>
    <path d="M 29.002436 114.733964 
L 15.725777 123.281407 
" clip-path="url(#p1eb0621957)" style="fill: #020202; stroke: #020202; stroke-width: 0.99"/>
    <path d="M 29.13759 114.873952 
L 19.492597 128.758581 
" clip-path="url(#p1eb0621957)" style="fill: #020202"/>
    <path d="M 29.422846 114.963307 
L 29.422846 132.140822 
" clip-path="url(#p1eb0621957)" style="fill: #020202"/>
    <path d="M 29.708101 114.873952 
L 40.623625 130.587597 
" clip-path="url(#p1eb0621957)" style="fill: #020202"/>
    <path d="M 29.843255 114.733964 
L 50.163357 127.815937 
" clip-path="url(#p1eb0621957)" style="fill: #020202"/>
    <path d="M 18.903021 115.453495 
C 14.002089 88.389932 -7.754613 104.779943 16.906218 116.957749 
C -7.754613 104.779943 14.002089 88.389932 18.903021 115.453495 
" clip-path="url(#p1eb0621957)" style="fill: #020202"/>
    <path d="M 17.781064 119.988128 
L 15.590622 123.141419 
" clip-path="url(#p1eb0621957)" style="fill: #020202"/>
    <path d="M 19.207342 120.434903 
L 19.207342 128.669225 
" clip-path="url(#p1eb0621957)" style="fill: #020202; stroke: #020202; stroke-width: 0.99"/>
    <path d="M 20.63362 119.988128 
L 29.13759 132.230177 
" clip-path="url(#p1eb0621957)" style="fill: #020202"/>
    <path d="M 21.309391 119.288191 
L 39.947853 131.287534 
" clip-path="url(#p1eb0621957)" style="fill: #020202; stroke: #020202; stroke-width: 0.99"/>
    <path d="M 21.574392 118.739312 
L 49.898356 128.364817 
" clip-path="url(#p1eb0621957)" style="fill: #020202; stroke: #020202; stroke-width: 0.99"/>
    <path d="M 14.872354 123.302064 
C -11.424829 109.932349 -11.424829 137.171779 14.872354 123.802064 
C -11.424829 137.171779 -11.424829 109.932349 14.872354 123.302064 
" clip-path="url(#p1eb0621957)" style="fill: #020202"/>
    <path d="M 15.590622 123.962709 
L 18.922086 128.758581 
" clip-path="url(#p1eb0621957)" style="fill: #020202"/>
    <path d="M 15.725777 123.822722 
L 29.002436 132.370164 
" clip-path="url(#p1eb0621957)" style="fill: #020202"/>
    <path d="M 15.778777 123.712946 
L 39.682853 131.836413 
" clip-path="url(#p1eb0621957)" style="fill: #020202"/>
    <path d="M 15.79969 123.627191 
L 49.793788 128.793591 
" clip-path="url(#p1eb0621957)" style="fill: #020202"/>
    <path d="M 18.747117 129.364656 
C -7.754613 142.324186 14.002089 158.714197 19.146478 129.665507 
C 14.002089 158.714197 -7.754613 142.324186 18.747117 129.364656 
" clip-path="url(#p1eb0621957)" style="fill: #020202"/>
    <path d="M 19.680752 129.330107 
L 28.949436 132.47994 
" clip-path="url(#p1eb0621957)" style="fill: #020202"/>
    <path d="M 19.701666 129.244352 
L 39.578284 132.265187 
" clip-path="url(#p1eb0621957)" style="fill: #020202"/>
    <path d="M 19.707342 129.169225 
L 49.765406 129.169225 
" clip-path="url(#p1eb0621957)" style="fill: #020202"/>
    <path d="M 29.105583 133.027273 
C 11.626683 156.792356 38.501525 161.234136 29.598891 133.108805 
C 38.501525 161.234136 11.626683 156.792356 29.105583 133.027273 
" clip-path="url(#p1eb0621957)" style="fill: #020202"/>
    <path d="M 29.922846 132.640822 
L 39.549903 132.640822 
" clip-path="url(#p1eb0621957)" style="fill: #020202; stroke: #020202; stroke-width: 0.99"/>
    <path d="M 29.917169 132.565695 
L 49.793788 129.54486 
" clip-path="url(#p1eb0621957)" style="fill: #020202"/>
    <path d="M 41.169678 134.980738 
C 32.971223 161.234136 59.846065 156.792356 43.636217 134.573077 
C 59.846065 156.792356 32.971223 161.234136 41.169678 134.980738 
" clip-path="url(#p1eb0621957)" style="fill: #020202"/>
    <path d="M 44.416953 131.836413 
L 49.898356 129.973634 
" clip-path="url(#p1eb0621957)" style="fill: #020202; stroke: #020202; stroke-width: 0.99"/>
    <path d="M 52.569728 131.650634 
C 57.470659 158.714197 79.227361 142.324186 54.56653 130.14638 
C 79.227361 142.324186 57.470659 158.714197 52.569728 131.650634 
" clip-path="url(#p1eb0621957)" style="fill: #020202"/>
   </g>
   <g id="VertexCollection_4">
    <path d="M 56.167382 126.052064 
C 56.830389 126.052064 57.466331 125.788649 57.935148 125.319831 
C 58.403966 124.851014 58.667382 124.215072 58.667382 123.552064 
C 58.667382 122.889057 58.403966 122.253115 57.935148 121.784297 
C 57.466331 121.31548 56.830389 121.052064 56.167382 121.052064 
C 55.504374 121.052064 54.868432 121.31548 54.399615 121.784297 
C 53.930797 122.253115 53.667382 122.889057 53.667382 123.552064 
C 53.667382 124.215072 53.930797 124.851014 54.399615 125.319831 
C 54.868432 125.788649 55.504374 126.052064 56.167382 126.052064 
z
" clip-path="url(#p1eb0621957)" style="fill: #bebebe"/>
    <path d="M 52.265406 118.434903 
C 52.398008 118.434903 52.525196 118.38222 52.61896 118.288457 
C 52.712723 118.194693 52.765406 118.067505 52.765406 117.934903 
C 52.765406 117.802302 52.712723 117.675113 52.61896 117.58135 
C 52.525196 117.487586 52.398008 117.434903 52.265406 117.434903 
C 52.132805 117.434903 52.005616 117.487586 51.911853 117.58135 
C 51.818089 117.675113 51.765406 117.802302 51.765406 117.934903 
C 51.765406 118.067505 51.818089 118.194693 51.911853 118.288457 
C 52.005616 118.38222 52.132805 118.434903 52.265406 118.434903 
z
" clip-path="url(#p1eb0621957)" style="fill: #bebebe"/>
    <path d="M 42.049903 114.963307 
C 42.182504 114.963307 42.309693 114.910624 42.403456 114.81686 
C 42.497219 114.723097 42.549903 114.595908 42.549903 114.463307 
C 42.549903 114.330705 42.497219 114.203517 42.403456 114.109753 
C 42.309693 114.01599 42.182504 113.963307 42.049903 113.963307 
C 41.917301 113.963307 41.790113 114.01599 41.696349 114.109753 
C 41.602586 114.203517 41.549903 114.330705 41.549903 114.463307 
C 41.549903 114.595908 41.602586 114.723097 41.696349 114.81686 
C 41.790113 114.910624 41.917301 114.963307 42.049903 114.963307 
z
" clip-path="url(#p1eb0621957)" style="fill: #bebebe"/>
    <path d="M 29.422846 114.963307 
C 29.555447 114.963307 29.682636 114.910624 29.776399 114.81686 
C 29.870162 114.723097 29.922846 114.595908 29.922846 114.463307 
C 29.922846 114.330705 29.870162 114.203517 29.776399 114.109753 
C 29.682636 114.01599 29.555447 113.963307 29.422846 113.963307 
C 29.290244 113.963307 29.163056 114.01599 29.069292 114.109753 
C 28.975529 114.203517 28.922846 114.330705 28.922846 114.463307 
C 28.922846 114.595908 28.975529 114.723097 29.069292 114.81686 
C 29.163056 114.910624 29.290244 114.963307 29.422846 114.963307 
z
" clip-path="url(#p1eb0621957)" style="fill: #bebebe"/>
    <path d="M 19.207342 120.434903 
C 19.87035 120.434903 20.506292 120.171487 20.975109 119.70267 
C 21.443926 119.233853 21.707342 118.597911 21.707342 117.934903 
C 21.707342 117.271895 21.443926 116.635954 20.975109 116.167136 
C 20.506292 115.698319 19.87035 115.434903 19.207342 115.434903 
C 18.544334 115.434903 17.908392 115.698319 17.439575 116.167136 
C 16.970758 116.635954 16.707342 117.271895 16.707342 117.934903 
C 16.707342 118.597911 16.970758 119.233853 17.439575 119.70267 
C 17.908392 120.171487 18.544334 120.434903 19.207342 120.434903 
z
" clip-path="url(#p1eb0621957)" style="fill: #bebebe"/>
    <path d="M 15.305367 124.052064 
C 15.437968 124.052064 15.565157 123.999381 15.65892 123.905618 
C 15.752684 123.811854 15.805367 123.684666 15.805367 123.552064 
C 15.805367 123.419463 15.752684 123.292274 15.65892 123.198511 
C 15.565157 123.104747 15.437968 123.052064 15.305367 123.052064 
C 15.172765 123.052064 15.045577 123.104747 14.951813 123.198511 
C 14.85805 123.292274 14.805367 123.419463 14.805367 123.552064 
C 14.805367 123.684666 14.85805 123.811854 14.951813 123.905618 
C 15.045577 123.999381 15.172765 124.052064 15.305367 124.052064 
z
" clip-path="url(#p1eb0621957)" style="fill: #bebebe"/>
    <path d="M 19.207342 129.669225 
C 19.339943 129.669225 19.467132 129.616542 19.560895 129.522779 
C 19.654659 129.429015 19.707342 129.301827 19.707342 129.169225 
C 19.707342 129.036624 19.654659 128.909436 19.560895 128.815672 
C 19.467132 128.721909 19.339943 128.669225 19.207342 128.669225 
C 19.07474 128.669225 18.947552 128.721909 18.853788 128.815672 
C 18.760025 128.909436 18.707342 129.036624 18.707342 129.169225 
C 18.707342 129.301827 18.760025 129.429015 18.853788 129.522779 
C 18.947552 129.616542 19.07474 129.669225 19.207342 129.669225 
z
" clip-path="url(#p1eb0621957)" style="fill: #bebebe"/>
    <path d="M 29.422846 133.140822 
C 29.555447 133.140822 29.682636 133.088139 29.776399 132.994375 
C 29.870162 132.900612 29.922846 132.773424 29.922846 132.640822 
C 29.922846 132.50822 29.870162 132.381032 29.776399 132.287269 
C 29.682636 132.193505 29.555447 132.140822 29.422846 132.140822 
C 29.290244 132.140822 29.163056 132.193505 29.069292 132.287269 
C 28.975529 132.381032 28.922846 132.50822 28.922846 132.640822 
C 28.922846 132.773424 28.975529 132.900612 29.069292 132.994375 
C 29.163056 133.088139 29.290244 133.140822 29.422846 133.140822 
z
" clip-path="url(#p1eb0621957)" style="fill: #bebebe"/>
    <path d="M 42.049903 135.140822 
C 42.71291 135.140822 43.348852 134.877406 43.81767 134.408589 
C 44.286487 133.939772 44.549903 133.30383 44.549903 132.640822 
C 44.549903 131.977814 44.286487 131.341872 43.81767 130.873055 
C 43.348852 130.404238 42.71291 130.140822 42.049903 130.140822 
C 41.386895 130.140822 40.750953 130.404238 40.282136 130.873055 
C 39.813318 131.341872 39.549903 131.977814 39.549903 132.640822 
C 39.549903 133.30383 39.813318 133.939772 40.282136 134.408589 
C 40.750953 134.877406 41.386895 135.140822 42.049903 135.140822 
z
" clip-path="url(#p1eb0621957)" style="fill: #bebebe"/>
    <path d="M 52.265406 131.669225 
C 52.928414 131.669225 53.564356 131.40581 54.033173 130.936992 
C 54.501991 130.468175 54.765406 129.832233 54.765406 129.169225 
C 54.765406 128.506218 54.501991 127.870276 54.033173 127.401459 
C 53.564356 126.932641 52.928414 126.669225 52.265406 126.669225 
C 51.602399 126.669225 50.966457 126.932641 50.497639 127.401459 
C 50.028822 127.870276 49.765406 128.506218 49.765406 129.169225 
C 49.765406 129.832233 50.028822 130.468175 50.497639 130.936992 
C 50.966457 131.40581 51.602399 131.669225 52.265406 131.669225 
z
" clip-path="url(#p1eb0621957)" style="fill: #bebebe"/>
   </g>
   <g id="matplotlib.axis_7"/>
   <g id="matplotlib.axis_8"/>
  </g>
  <g id="axes_5">
   <g id="patch_6">
    <path d="M 10.8 169.2 
L 61.2 169.2 
L 61.2 146.16 
L 10.8 146.16 
z
" style="fill: #ffffff"/>
   </g>
   <g id="EdgeCollection_5">
    <path d="M 58.340683 158.93 
C 82.905816 171.299715 82.905816 144.060285 58.340683 156.43 
C 82.905816 144.060285 82.905816 171.299715 58.340683 158.93 
" clip-path="url(#p8d8fdb4b8c)" style="fill: #020202"/>
    <path d="M 54.79095 155.598489 
L 52.599353 152.303962 
" clip-path="url(#p8d8fdb4b8c)" style="fill: #020202; stroke: #020202; stroke-width: 0.99"/>
    <path d="M 54.100881 156.285203 
L 42.649557 148.586756 
" clip-path="url(#p8d8fdb4b8c)" style="fill: #020202"/>
    <path d="M 53.819574 156.843909 
L 30.2366 148.475015 
" clip-path="url(#p8d8fdb4b8c)" style="fill: #020202; stroke: #020202; stroke-width: 0.99"/>
    <path d="M 53.706521 157.288147 
L 22.14668 152.279513 
" clip-path="url(#p8d8fdb4b8c)" style="fill: #020202"/>
    <path d="M 53.67562 157.68 
L 18.32438 157.68 
" clip-path="url(#p8d8fdb4b8c)" style="fill: #020202; stroke: #020202; stroke-width: 0.99"/>
    <path d="M 53.706521 158.071853 
L 20.171401 163.39397 
" clip-path="url(#p8d8fdb4b8c)" style="fill: #020202"/>
    <path d="M 53.819574 158.516091 
L 30.2366 166.884985 
" clip-path="url(#p8d8fdb4b8c)" style="fill: #020202"/>
    <path d="M 54.100881 159.074797 
L 42.649557 166.773244 
" clip-path="url(#p8d8fdb4b8c)" style="fill: #020202"/>
    <path d="M 54.79095 159.761511 
L 53.707089 161.390829 
" clip-path="url(#p8d8fdb4b8c)" style="fill: #020202"/>
    <path d="M 52.785857 151.699974 
C 79.501185 139.186688 58.022396 122.434132 52.391597 151.392468 
C 58.022396 122.434132 79.501185 139.186688 52.785857 151.699974 
" clip-path="url(#p8d8fdb4b8c)" style="fill: #020202"/>
    <path d="M 51.85121 151.720442 
L 42.705819 148.475015 
" clip-path="url(#p8d8fdb4b8c)" style="fill: #020202; stroke: #020202; stroke-width: 0.99"/>
    <path d="M 51.828599 151.809289 
L 30.25921 148.386167 
" clip-path="url(#p8d8fdb4b8c)" style="fill: #020202"/>
    <path d="M 51.822419 151.88766 
L 22.177581 151.88766 
" clip-path="url(#p8d8fdb4b8c)" style="fill: #020202"/>
    <path d="M 51.828599 151.96603 
L 18.293479 157.288147 
" clip-path="url(#p8d8fdb4b8c)" style="fill: #020202"/>
    <path d="M 51.85121 152.054878 
L 20.14879 163.305122 
" clip-path="url(#p8d8fdb4b8c)" style="fill: #020202"/>
    <path d="M 51.907472 152.166619 
L 30.180338 166.773244 
" clip-path="url(#p8d8fdb4b8c)" style="fill: #020202"/>
    <path d="M 52.045485 152.303962 
L 42.511543 166.635901 
" clip-path="url(#p8d8fdb4b8c)" style="fill: #020202"/>
    <path d="M 52.322419 152.38766 
L 52.322419 160.97234 
" clip-path="url(#p8d8fdb4b8c)" style="fill: #020202"/>
    <path d="M 42.554457 147.923482 
C 60.192372 124.276176 33.347928 119.65423 42.061707 147.838643 
C 33.347928 119.65423 60.192372 124.276176 42.554457 147.923482 
" clip-path="url(#p8d8fdb4b8c)" style="fill: #020202"/>
    <path d="M 41.734609 148.307797 
L 30.265391 148.307797 
" clip-path="url(#p8d8fdb4b8c)" style="fill: #020202"/>
    <path d="M 41.74079 148.386167 
L 22.14668 151.495807 
" clip-path="url(#p8d8fdb4b8c)" style="fill: #020202"/>
    <path d="M 41.7634 148.475015 
L 18.180426 156.843909 
" clip-path="url(#p8d8fdb4b8c)" style="fill: #020202; stroke: #020202; stroke-width: 0.99"/>
    <path d="M 41.819662 148.586756 
L 20.092528 163.193381 
" clip-path="url(#p8d8fdb4b8c)" style="fill: #020202"/>
    <path d="M 41.957675 148.724099 
L 30.042325 166.635901 
" clip-path="url(#p8d8fdb4b8c)" style="fill: #020202"/>
    <path d="M 42.234609 148.807797 
L 42.234609 166.552203 
" clip-path="url(#p8d8fdb4b8c)" style="fill: #020202"/>
    <path d="M 42.511543 148.724099 
L 50.937749 161.390829 
" clip-path="url(#p8d8fdb4b8c)" style="fill: #020202"/>
    <path d="M 29.938293 147.838643 
C 38.652072 119.65423 11.807628 124.276176 29.445543 147.923482 
C 11.807628 124.276176 38.652072 119.65423 29.938293 147.838643 
" clip-path="url(#p8d8fdb4b8c)" style="fill: #020202"/>
    <path d="M 29.294181 148.475015 
L 22.033627 151.051569 
" clip-path="url(#p8d8fdb4b8c)" style="fill: #020202"/>
    <path d="M 29.350443 148.586756 
L 17.899119 156.285203 
" clip-path="url(#p8d8fdb4b8c)" style="fill: #020202; stroke: #020202; stroke-width: 0.99"/>
    <path d="M 29.488457 148.724099 
L 19.954515 163.056038 
" clip-path="url(#p8d8fdb4b8c)" style="fill: #020202"/>
    <path d="M 29.765391 148.807797 
L 29.765391 166.552203 
" clip-path="url(#p8d8fdb4b8c)" style="fill: #020202"/>
    <path d="M 30.042325 148.724099 
L 41.957675 166.635901 
" clip-path="url(#p8d8fdb4b8c)" style="fill: #020202"/>
    <path d="M 30.180338 148.586756 
L 50.24768 162.077544 
" clip-path="url(#p8d8fdb4b8c)" style="fill: #020202"/>
    <path d="M 19.33169 149.411703 
C 13.977604 122.434132 -7.501185 139.186688 17.360394 150.949231 
C -7.501185 139.186688 13.977604 122.434132 19.33169 149.411703 
" clip-path="url(#p8d8fdb4b8c)" style="fill: #020202"/>
    <path d="M 18.292911 153.969171 
L 17.20905 155.598489 
" clip-path="url(#p8d8fdb4b8c)" style="fill: #020202"/>
    <path d="M 19.677581 154.38766 
L 19.677581 162.97234 
" clip-path="url(#p8d8fdb4b8c)" style="fill: #020202; stroke: #020202; stroke-width: 0.99"/>
    <path d="M 21.062251 153.969171 
L 29.488457 166.635901 
" clip-path="url(#p8d8fdb4b8c)" style="fill: #020202"/>
    <path d="M 21.75232 153.282456 
L 41.819662 166.773244 
" clip-path="url(#p8d8fdb4b8c)" style="fill: #020202; stroke: #020202; stroke-width: 0.99"/>
    <path d="M 22.033627 152.72375 
L 49.966373 162.63625 
" clip-path="url(#p8d8fdb4b8c)" style="fill: #020202; stroke: #020202; stroke-width: 0.99"/>
    <path d="M 13.659317 156.43 
C -10.905816 144.060285 -10.905816 171.299715 13.659317 158.93 
C -10.905816 171.299715 -10.905816 144.060285 13.659317 156.43 
" clip-path="url(#p8d8fdb4b8c)" style="fill: #020202"/>
    <path d="M 17.20905 159.761511 
L 19.400647 163.056038 
" clip-path="url(#p8d8fdb4b8c)" style="fill: #020202"/>
    <path d="M 17.899119 159.074797 
L 29.350443 166.773244 
" clip-path="url(#p8d8fdb4b8c)" style="fill: #020202"/>
    <path d="M 18.180426 158.516091 
L 41.7634 166.884985 
" clip-path="url(#p8d8fdb4b8c)" style="fill: #020202"/>
    <path d="M 18.293479 158.071853 
L 49.85332 163.080487 
" clip-path="url(#p8d8fdb4b8c)" style="fill: #020202"/>
    <path d="M 19.214143 163.660026 
C -7.501185 176.173312 13.977604 192.925868 19.608403 163.967532 
C 13.977604 192.925868 -7.501185 176.173312 19.214143 163.660026 
" clip-path="url(#p8d8fdb4b8c)" style="fill: #020202"/>
    <path d="M 20.14879 163.639558 
L 29.294181 166.884985 
" clip-path="url(#p8d8fdb4b8c)" style="fill: #020202; stroke: #020202; stroke-width: 0.99"/>
    <path d="M 20.171401 163.550711 
L 41.74079 166.973833 
" clip-path="url(#p8d8fdb4b8c)" style="fill: #020202"/>
    <path d="M 20.177581 163.47234 
L 49.822419 163.47234 
" clip-path="url(#p8d8fdb4b8c)" style="fill: #020202"/>
    <path d="M 29.445543 167.436518 
C 11.807628 191.083824 38.652072 195.70577 29.938293 167.521357 
C 38.652072 195.70577 11.807628 191.083824 29.445543 167.436518 
" clip-path="url(#p8d8fdb4b8c)" style="fill: #020202"/>
    <path d="M 30.265391 167.052203 
L 41.734609 167.052203 
" clip-path="url(#p8d8fdb4b8c)" style="fill: #020202"/>
    <path d="M 30.25921 166.973833 
L 49.85332 163.864193 
" clip-path="url(#p8d8fdb4b8c)" style="fill: #020202; stroke: #020202; stroke-width: 0.99"/>
    <path d="M 42.061707 167.521357 
C 33.347928 195.70577 60.192372 191.083824 42.554457 167.436518 
C 60.192372 191.083824 33.347928 195.70577 42.061707 167.521357 
" clip-path="url(#p8d8fdb4b8c)" style="fill: #020202"/>
    <path d="M 42.705819 166.884985 
L 49.966373 164.308431 
" clip-path="url(#p8d8fdb4b8c)" style="fill: #020202; stroke: #020202; stroke-width: 0.99"/>
    <path d="M 52.66831 165.948297 
C 58.022396 192.925868 79.501185 176.173312 54.639606 164.410769 
C 79.501185 176.173312 58.022396 192.925868 52.66831 165.948297 
" clip-path="url(#p8d8fdb4b8c)" style="fill: #020202"/>
   </g>
   <g id="VertexCollection_5">
    <path d="M 56.17562 160.18 
C 56.838628 160.18 57.47457 159.916584 57.943387 159.447767 
C 58.412204 158.97895 58.67562 158.343008 58.67562 157.68 
C 58.67562 157.016992 58.412204 156.38105 57.943387 155.912233 
C 57.47457 155.443416 56.838628 155.18 56.17562 155.18 
C 55.512612 155.18 54.87667 155.443416 54.407853 155.912233 
C 53.939036 156.38105 53.67562 157.016992 53.67562 157.68 
C 53.67562 158.343008 53.939036 158.97895 54.407853 159.447767 
C 54.87667 159.916584 55.512612 160.18 56.17562 160.18 
z
" clip-path="url(#p8d8fdb4b8c)" style="fill: #bebebe"/>
    <path d="M 52.322419 152.38766 
C 52.455021 152.38766 52.582209 152.334977 52.675973 152.241213 
C 52.769736 152.14745 52.822419 152.020261 52.822419 151.88766 
C 52.822419 151.755058 52.769736 151.62787 52.675973 151.534106 
C 52.582209 151.440343 52.455021 151.38766 52.322419 151.38766 
C 52.189818 151.38766 52.062629 151.440343 51.968866 151.534106 
C 51.875102 151.62787 51.822419 151.755058 51.822419 151.88766 
C 51.822419 152.020261 51.875102 152.14745 51.968866 152.241213 
C 52.062629 152.334977 52.189818 152.38766 52.322419 152.38766 
z
" clip-path="url(#p8d8fdb4b8c)" style="fill: #bebebe"/>
    <path d="M 42.234609 148.807797 
C 42.367211 148.807797 42.494399 148.755113 42.588163 148.66135 
C 42.681926 148.567586 42.734609 148.440398 42.734609 148.307797 
C 42.734609 148.175195 42.681926 148.048007 42.588163 147.954243 
C 42.494399 147.86048 42.367211 147.807797 42.234609 147.807797 
C 42.102008 147.807797 41.974819 147.86048 41.881056 147.954243 
C 41.787293 148.048007 41.734609 148.175195 41.734609 148.307797 
C 41.734609 148.440398 41.787293 148.567586 41.881056 148.66135 
C 41.974819 148.755113 42.102008 148.807797 42.234609 148.807797 
z
" clip-path="url(#p8d8fdb4b8c)" style="fill: #bebebe"/>
    <path d="M 29.765391 148.807797 
C 29.897992 148.807797 30.025181 148.755113 30.118944 148.66135 
C 30.212707 148.567586 30.265391 148.440398 30.265391 148.307797 
C 30.265391 148.175195 30.212707 148.048007 30.118944 147.954243 
C 30.025181 147.86048 29.897992 147.807797 29.765391 147.807797 
C 29.632789 147.807797 29.505601 147.86048 29.411837 147.954243 
C 29.318074 148.048007 29.265391 148.175195 29.265391 148.307797 
C 29.265391 148.440398 29.318074 148.567586 29.411837 148.66135 
C 29.505601 148.755113 29.632789 148.807797 29.765391 148.807797 
z
" clip-path="url(#p8d8fdb4b8c)" style="fill: #bebebe"/>
    <path d="M 19.677581 154.38766 
C 20.340588 154.38766 20.97653 154.124244 21.445348 153.655427 
C 21.914165 153.186609 22.177581 152.550667 22.177581 151.88766 
C 22.177581 151.224652 21.914165 150.58871 21.445348 150.119893 
C 20.97653 149.651075 20.340588 149.38766 19.677581 149.38766 
C 19.014573 149.38766 18.378631 149.651075 17.909814 150.119893 
C 17.440996 150.58871 17.177581 151.224652 17.177581 151.88766 
C 17.177581 152.550667 17.440996 153.186609 17.909814 153.655427 
C 18.378631 154.124244 19.014573 154.38766 19.677581 154.38766 
z
" clip-path="url(#p8d8fdb4b8c)" style="fill: #bebebe"/>
    <path d="M 15.82438 160.18 
C 16.487388 160.18 17.12333 159.916584 17.592147 159.447767 
C 18.060964 158.97895 18.32438 158.343008 18.32438 157.68 
C 18.32438 157.016992 18.060964 156.38105 17.592147 155.912233 
C 17.12333 155.443416 16.487388 155.18 15.82438 155.18 
C 15.161372 155.18 14.52543 155.443416 14.056613 155.912233 
C 13.587796 156.38105 13.32438 157.016992 13.32438 157.68 
C 13.32438 158.343008 13.587796 158.97895 14.056613 159.447767 
C 14.52543 159.916584 15.161372 160.18 15.82438 160.18 
z
" clip-path="url(#p8d8fdb4b8c)" style="fill: #bebebe"/>
    <path d="M 19.677581 163.97234 
C 19.810182 163.97234 19.937371 163.919657 20.031134 163.825894 
C 20.124898 163.73213 20.177581 163.604942 20.177581 163.47234 
C 20.177581 163.339739 20.124898 163.21255 20.031134 163.118787 
C 19.937371 163.025023 19.810182 162.97234 19.677581 162.97234 
C 19.544979 162.97234 19.417791 163.025023 19.324027 163.118787 
C 19.230264 163.21255 19.177581 163.339739 19.177581 163.47234 
C 19.177581 163.604942 19.230264 163.73213 19.324027 163.825894 
C 19.417791 163.919657 19.544979 163.97234 19.677581 163.97234 
z
" clip-path="url(#p8d8fdb4b8c)" style="fill: #bebebe"/>
    <path d="M 29.765391 167.552203 
C 29.897992 167.552203 30.025181 167.49952 30.118944 167.405757 
C 30.212707 167.311993 30.265391 167.184805 30.265391 167.052203 
C 30.265391 166.919602 30.212707 166.792414 30.118944 166.69865 
C 30.025181 166.604887 29.897992 166.552203 29.765391 166.552203 
C 29.632789 166.552203 29.505601 166.604887 29.411837 166.69865 
C 29.318074 166.792414 29.265391 166.919602 29.265391 167.052203 
C 29.265391 167.184805 29.318074 167.311993 29.411837 167.405757 
C 29.505601 167.49952 29.632789 167.552203 29.765391 167.552203 
z
" clip-path="url(#p8d8fdb4b8c)" style="fill: #bebebe"/>
    <path d="M 42.234609 167.552203 
C 42.367211 167.552203 42.494399 167.49952 42.588163 167.405757 
C 42.681926 167.311993 42.734609 167.184805 42.734609 167.052203 
C 42.734609 166.919602 42.681926 166.792414 42.588163 166.69865 
C 42.494399 166.604887 42.367211 166.552203 42.234609 166.552203 
C 42.102008 166.552203 41.974819 166.604887 41.881056 166.69865 
C 41.787293 166.792414 41.734609 166.919602 41.734609 167.052203 
C 41.734609 167.184805 41.787293 167.311993 41.881056 167.405757 
C 41.974819 167.49952 42.102008 167.552203 42.234609 167.552203 
z
" clip-path="url(#p8d8fdb4b8c)" style="fill: #bebebe"/>
    <path d="M 52.322419 165.97234 
C 52.985427 165.97234 53.621369 165.708925 54.090186 165.240107 
C 54.559004 164.77129 54.822419 164.135348 54.822419 163.47234 
C 54.822419 162.809333 54.559004 162.173391 54.090186 161.704573 
C 53.621369 161.235756 52.985427 160.97234 52.322419 160.97234 
C 51.659412 160.97234 51.02347 161.235756 50.554652 161.704573 
C 50.085835 162.173391 49.822419 162.809333 49.822419 163.47234 
C 49.822419 164.135348 50.085835 164.77129 50.554652 165.240107 
C 51.02347 165.708925 51.659412 165.97234 52.322419 165.97234 
z
" clip-path="url(#p8d8fdb4b8c)" style="fill: #bebebe"/>
   </g>
   <g id="matplotlib.axis_9"/>
   <g id="matplotlib.axis_10"/>
  </g>
 </g>
 <defs>
  <clipPath id="pd17e57cc55">
   <rect x="10.8" y="10.8" width="50.4" height="23.04"/>
  </clipPath>
  <clipPath id="p7112abd219">
   <rect x="10.8" y="44.64" width="50.4" height="23.04"/>
  </clipPath>
  <clipPath id="pa86cde87b7">
   <rect x="10.8" y="78.48" width="50.4" height="23.04"/>
  </clipPath>
  <clipPath id="p1eb0621957">
   <rect x="10.8" y="112.32" width="50.4" height="23.04"/>
  </clipPath>
  <clipPath id="p8d8fdb4b8c">
   <rect x="10.8" y="146.16" width="50.4" height="23.04"/>
  </clipPath>
 </defs>
</svg>
