<?xml version="1.0" encoding="utf-8" standalone="no"?>
<!DOCTYPE svg PUBLIC "-//W3C//DTD SVG 1.1//EN"
  "http://www.w3.org/Graphics/SVG/1.1/DTD/svg11.dtd">
<svg xmlns:xlink="http://www.w3.org/1999/xlink" width="72pt" height="180pt" viewBox="0 0 72 180" xmlns="http://www.w3.org/2000/svg" version="1.1">
 <metadata>
  <rdf:RDF xmlns:dc="http://purl.org/dc/elements/1.1/" xmlns:cc="http://creativecommons.org/ns#" xmlns:rdf="http://www.w3.org/1999/02/22-rdf-syntax-ns#">
   <cc:Work>
    <dc:type rdf:resource="http://purl.org/dc/dcmitype/StillImage"/>
    <dc:date>2025-06-06T16:53:31.130695</dc:date>
    <dc:format>image/svg+xml</dc:format>
    <dc:creator>
     <cc:Agent>
      <dc:title>Matplotlib v3.9.2, https://matplotlib.org/</dc:title>
     </cc:Agent>
    </dc:creator>
   </cc:Work>
  </rdf:RDF>
 </metadata>
 <defs>
  <style type="text/css">*{stroke-linejoin: round; stroke-linecap: butt}</style>
 </defs>
 <g id="figure_1">
  <g id="patch_1">
   <path d="M 0 180 
L 72 180 
L 72 0 
L 0 0 
z
" style="fill: #ffffff"/>
  </g>
  <g id="axes_1">
   <g id="patch_2">
    <path d="M 10.8 33.84 
L 61.2 33.84 
L 61.2 10.8 
L 10.8 10.8 
z
" style="fill: #ffffff"/>
   </g>
   <g id="EdgeCollection_1">
    <path d="M 58.332445 23.57 
C 82.897577 35.939715 82.897577 8.700285 58.332445 21.07 
C 82.897577 8.700285 82.897577 35.939715 58.332445 23.57 
" clip-path="url(#p3356d90c45)" style="fill: #020202"/>
    <path d="M 54.712435 20.28699 
L 53.720353 18.900743 
" clip-path="url(#p3356d90c45)" style="fill: #020202; stroke: #020202; stroke-width: 0.99"/>
    <path d="M 54.047286 20.995162 
L 44.169998 14.822885 
" clip-path="url(#p3356d90c45)" style="fill: #020202; stroke: #020202; stroke-width: 0.99"/>
    <path d="M 53.793211 21.536856 
L 29.89768 13.654676 
" clip-path="url(#p3356d90c45)" style="fill: #020202"/>
    <path d="M 53.694147 21.955154 
L 19.701989 16.940702 
" clip-path="url(#p3356d90c45)" style="fill: #020202"/>
    <path d="M 53.667382 22.32 
L 15.805367 22.32 
" clip-path="url(#p3356d90c45)" style="fill: #020202"/>
    <path d="M 53.694147 22.684846 
L 19.701989 27.699298 
" clip-path="url(#p3356d90c45)" style="fill: #020202"/>
    <path d="M 53.793211 23.103144 
L 31.797016 30.358809 
" clip-path="url(#p3356d90c45)" style="fill: #020202; stroke: #020202; stroke-width: 0.99"/>
    <path d="M 54.047286 23.644838 
L 42.473922 30.876985 
" clip-path="url(#p3356d90c45)" style="fill: #020202"/>
    <path d="M 54.712435 24.35301 
L 52.556396 27.365665 
" clip-path="url(#p3356d90c45)" style="fill: #020202"/>
    <path d="M 54.55514 15.864179 
C 79.074288 3.403563 57.130529 -12.735148 52.54117 14.382989 
C 57.130529 -12.735148 79.074288 3.403563 54.55514 15.864179 
" clip-path="url(#p3356d90c45)" style="fill: #020202"/>
    <path d="M 49.891236 16.084589 
L 44.424073 14.281191 
" clip-path="url(#p3356d90c45)" style="fill: #020202; stroke: #020202; stroke-width: 0.99"/>
    <path d="M 49.792172 16.502887 
L 29.917492 13.571016 
" clip-path="url(#p3356d90c45)" style="fill: #020202"/>
    <path d="M 49.765406 16.867733 
L 19.707342 16.867733 
" clip-path="url(#p3356d90c45)" style="fill: #020202"/>
    <path d="M 49.792172 17.232579 
L 15.800014 22.247031 
" clip-path="url(#p3356d90c45)" style="fill: #020202"/>
    <path d="M 49.891236 17.650877 
L 19.682176 27.615638 
" clip-path="url(#p3356d90c45)" style="fill: #020202"/>
    <path d="M 50.145311 18.192572 
L 31.542941 29.817115 
" clip-path="url(#p3356d90c45)" style="fill: #020202; stroke: #020202; stroke-width: 0.99"/>
    <path d="M 50.81046 18.900743 
L 42.340892 30.735351 
" clip-path="url(#p3356d90c45)" style="fill: #020202"/>
    <path d="M 52.265406 19.367733 
L 52.265406 27.272267 
" clip-path="url(#p3356d90c45)" style="fill: #020202"/>
    <path d="M 43.627534 11.558697 
C 59.737564 -10.733062 32.843071 -15.05426 41.159192 11.162103 
C 32.843071 -15.05426 59.737564 -10.733062 43.627534 11.558697 
" clip-path="url(#p3356d90c45)" style="fill: #020202"/>
    <path d="M 39.549903 13.498047 
L 29.922846 13.498047 
" clip-path="url(#p3356d90c45)" style="fill: #020202"/>
    <path d="M 39.576668 13.862893 
L 19.701989 16.794764 
" clip-path="url(#p3356d90c45)" style="fill: #020202"/>
    <path d="M 39.675732 14.281191 
L 15.780201 22.163371 
" clip-path="url(#p3356d90c45)" style="fill: #020202"/>
    <path d="M 39.929808 14.822885 
L 19.631361 27.507299 
" clip-path="url(#p3356d90c45)" style="fill: #020202"/>
    <path d="M 40.594956 15.531057 
L 30.877792 29.108943 
" clip-path="url(#p3356d90c45)" style="fill: #020202; stroke: #020202; stroke-width: 0.99"/>
    <path d="M 42.049903 15.998047 
L 42.049903 30.641953 
" clip-path="url(#p3356d90c45)" style="fill: #020202"/>
    <path d="M 43.504849 15.531057 
L 51.974417 27.365665 
" clip-path="url(#p3356d90c45)" style="fill: #020202"/>
    <path d="M 29.600988 13.030858 
C 38.629677 -15.05426 11.735184 -10.733062 29.107319 13.110177 
C 11.735184 -10.733062 38.629677 -15.05426 29.600988 13.030858 
" clip-path="url(#p3356d90c45)" style="fill: #020202"/>
    <path d="M 28.948011 13.654676 
L 19.682176 16.711104 
" clip-path="url(#p3356d90c45)" style="fill: #020202"/>
    <path d="M 28.998827 13.763015 
L 15.729386 22.055032 
" clip-path="url(#p3356d90c45)" style="fill: #020202"/>
    <path d="M 29.131856 13.904649 
L 19.498331 27.365665 
" clip-path="url(#p3356d90c45)" style="fill: #020202"/>
    <path d="M 29.422846 13.998047 
L 29.422846 28.641953 
" clip-path="url(#p3356d90c45)" style="fill: #020202"/>
    <path d="M 29.713835 13.904649 
L 41.758913 30.735351 
" clip-path="url(#p3356d90c45)" style="fill: #020202"/>
    <path d="M 29.846865 13.763015 
L 51.841387 27.507299 
" clip-path="url(#p3356d90c45)" style="fill: #020202"/>
    <path d="M 19.152189 16.370784 
C 14.342219 -12.735148 -7.601539 3.403563 18.749395 16.667022 
C -7.601539 3.403563 14.342219 -12.735148 19.152189 16.370784 
" clip-path="url(#p3356d90c45)" style="fill: #020202"/>
    <path d="M 18.916353 17.274335 
L 15.596356 21.913398 
" clip-path="url(#p3356d90c45)" style="fill: #020202"/>
    <path d="M 19.207342 17.367733 
L 19.207342 27.272267 
" clip-path="url(#p3356d90c45)" style="fill: #020202"/>
    <path d="M 19.498331 17.274335 
L 27.967899 29.108943 
" clip-path="url(#p3356d90c45)" style="fill: #020202"/>
    <path d="M 19.631361 17.132701 
L 41.625884 30.876985 
" clip-path="url(#p3356d90c45)" style="fill: #020202"/>
    <path d="M 19.682176 17.024362 
L 51.790572 27.615638 
" clip-path="url(#p3356d90c45)" style="fill: #020202"/>
    <path d="M 14.872354 22.07 
C -11.424829 8.700285 -11.424829 35.939715 14.872354 22.57 
C -11.424829 35.939715 -11.424829 8.700285 14.872354 22.07 
" clip-path="url(#p3356d90c45)" style="fill: #020202"/>
    <path d="M 15.596356 22.726602 
L 18.916353 27.365665 
" clip-path="url(#p3356d90c45)" style="fill: #020202"/>
    <path d="M 15.729386 22.584968 
L 27.302751 29.817115 
" clip-path="url(#p3356d90c45)" style="fill: #020202"/>
    <path d="M 15.780201 22.476629 
L 41.575069 30.985324 
" clip-path="url(#p3356d90c45)" style="fill: #020202"/>
    <path d="M 15.800014 22.392969 
L 51.770759 27.699298 
" clip-path="url(#p3356d90c45)" style="fill: #020202"/>
    <path d="M 18.749395 27.972978 
C -7.601539 41.236437 14.342219 57.375148 19.152189 28.269216 
C 14.342219 57.375148 -7.601539 41.236437 18.749395 27.972978 
" clip-path="url(#p3356d90c45)" style="fill: #020202"/>
    <path d="M 19.682176 27.928896 
L 27.048675 30.358809 
" clip-path="url(#p3356d90c45)" style="fill: #020202"/>
    <path d="M 19.701989 27.845236 
L 41.555256 31.068984 
" clip-path="url(#p3356d90c45)" style="fill: #020202"/>
    <path d="M 19.707342 27.772267 
L 51.765406 27.772267 
" clip-path="url(#p3356d90c45)" style="fill: #020202"/>
    <path d="M 27.845214 33.081303 
C 11.735184 55.373062 38.629677 59.69426 30.313556 33.477897 
C 38.629677 59.69426 11.735184 55.373062 27.845214 33.081303 
" clip-path="url(#p3356d90c45)" style="fill: #020202"/>
    <path d="M 31.922846 31.141953 
L 41.549903 31.141953 
" clip-path="url(#p3356d90c45)" style="fill: #020202"/>
    <path d="M 31.89608 30.777107 
L 51.770759 27.845236 
" clip-path="url(#p3356d90c45)" style="fill: #020202"/>
    <path d="M 41.87176 31.609142 
C 32.843071 59.69426 59.737564 55.373062 42.365429 31.529823 
C 59.737564 55.373062 32.843071 59.69426 41.87176 31.609142 
" clip-path="url(#p3356d90c45)" style="fill: #020202"/>
    <path d="M 42.524737 30.985324 
L 51.790572 27.928896 
" clip-path="url(#p3356d90c45)" style="fill: #020202"/>
    <path d="M 52.320559 28.269216 
C 57.130529 57.375148 79.074288 41.236437 52.723353 27.972978 
C 79.074288 41.236437 57.130529 57.375148 52.320559 28.269216 
" clip-path="url(#p3356d90c45)" style="fill: #020202"/>
   </g>
   <g id="VertexCollection_1">
    <path d="M 56.167382 24.82 
C 56.830389 24.82 57.466331 24.556584 57.935148 24.087767 
C 58.403966 23.61895 58.667382 22.983008 58.667382 22.32 
C 58.667382 21.656992 58.403966 21.02105 57.935148 20.552233 
C 57.466331 20.083416 56.830389 19.82 56.167382 19.82 
C 55.504374 19.82 54.868432 20.083416 54.399615 20.552233 
C 53.930797 21.02105 53.667382 21.656992 53.667382 22.32 
C 53.667382 22.983008 53.930797 23.61895 54.399615 24.087767 
C 54.868432 24.556584 55.504374 24.82 56.167382 24.82 
z
" clip-path="url(#p3356d90c45)" style="fill: #bebebe"/>
    <path d="M 52.265406 19.367733 
C 52.928414 19.367733 53.564356 19.104317 54.033173 18.6355 
C 54.501991 18.166683 54.765406 17.530741 54.765406 16.867733 
C 54.765406 16.204725 54.501991 15.568783 54.033173 15.099966 
C 53.564356 14.631149 52.928414 14.367733 52.265406 14.367733 
C 51.602399 14.367733 50.966457 14.631149 50.497639 15.099966 
C 50.028822 15.568783 49.765406 16.204725 49.765406 16.867733 
C 49.765406 17.530741 50.028822 18.166683 50.497639 18.6355 
C 50.966457 19.104317 51.602399 19.367733 52.265406 19.367733 
z
" clip-path="url(#p3356d90c45)" style="fill: #bebebe"/>
    <path d="M 42.049903 15.998047 
C 42.71291 15.998047 43.348852 15.734631 43.81767 15.265814 
C 44.286487 14.796996 44.549903 14.161055 44.549903 13.498047 
C 44.549903 12.835039 44.286487 12.199097 43.81767 11.73028 
C 43.348852 11.261463 42.71291 10.998047 42.049903 10.998047 
C 41.386895 10.998047 40.750953 11.261463 40.282136 11.73028 
C 39.813318 12.199097 39.549903 12.835039 39.549903 13.498047 
C 39.549903 14.161055 39.813318 14.796996 40.282136 15.265814 
C 40.750953 15.734631 41.386895 15.998047 42.049903 15.998047 
z
" clip-path="url(#p3356d90c45)" style="fill: #bebebe"/>
    <path d="M 29.422846 13.998047 
C 29.555447 13.998047 29.682636 13.945364 29.776399 13.8516 
C 29.870162 13.757837 29.922846 13.630648 29.922846 13.498047 
C 29.922846 13.365445 29.870162 13.238257 29.776399 13.144493 
C 29.682636 13.05073 29.555447 12.998047 29.422846 12.998047 
C 29.290244 12.998047 29.163056 13.05073 29.069292 13.144493 
C 28.975529 13.238257 28.922846 13.365445 28.922846 13.498047 
C 28.922846 13.630648 28.975529 13.757837 29.069292 13.8516 
C 29.163056 13.945364 29.290244 13.998047 29.422846 13.998047 
z
" clip-path="url(#p3356d90c45)" style="fill: #bebebe"/>
    <path d="M 19.207342 17.367733 
C 19.339943 17.367733 19.467132 17.31505 19.560895 17.221286 
C 19.654659 17.127523 19.707342 17.000335 19.707342 16.867733 
C 19.707342 16.735132 19.654659 16.607943 19.560895 16.51418 
C 19.467132 16.420416 19.339943 16.367733 19.207342 16.367733 
C 19.07474 16.367733 18.947552 16.420416 18.853788 16.51418 
C 18.760025 16.607943 18.707342 16.735132 18.707342 16.867733 
C 18.707342 17.000335 18.760025 17.127523 18.853788 17.221286 
C 18.947552 17.31505 19.07474 17.367733 19.207342 17.367733 
z
" clip-path="url(#p3356d90c45)" style="fill: #bebebe"/>
    <path d="M 15.305367 22.82 
C 15.437968 22.82 15.565157 22.767317 15.65892 22.673553 
C 15.752684 22.57979 15.805367 22.452602 15.805367 22.32 
C 15.805367 22.187398 15.752684 22.06021 15.65892 21.966447 
C 15.565157 21.872683 15.437968 21.82 15.305367 21.82 
C 15.172765 21.82 15.045577 21.872683 14.951813 21.966447 
C 14.85805 22.06021 14.805367 22.187398 14.805367 22.32 
C 14.805367 22.452602 14.85805 22.57979 14.951813 22.673553 
C 15.045577 22.767317 15.172765 22.82 15.305367 22.82 
z
" clip-path="url(#p3356d90c45)" style="fill: #bebebe"/>
    <path d="M 19.207342 28.272267 
C 19.339943 28.272267 19.467132 28.219584 19.560895 28.12582 
C 19.654659 28.032057 19.707342 27.904868 19.707342 27.772267 
C 19.707342 27.639665 19.654659 27.512477 19.560895 27.418714 
C 19.467132 27.32495 19.339943 27.272267 19.207342 27.272267 
C 19.07474 27.272267 18.947552 27.32495 18.853788 27.418714 
C 18.760025 27.512477 18.707342 27.639665 18.707342 27.772267 
C 18.707342 27.904868 18.760025 28.032057 18.853788 28.12582 
C 18.947552 28.219584 19.07474 28.272267 19.207342 28.272267 
z
" clip-path="url(#p3356d90c45)" style="fill: #bebebe"/>
    <path d="M 29.422846 33.641953 
C 30.085853 33.641953 30.721795 33.378537 31.190613 32.90972 
C 31.65943 32.440903 31.922846 31.804961 31.922846 31.141953 
C 31.922846 30.478945 31.65943 29.843004 31.190613 29.374186 
C 30.721795 28.905369 30.085853 28.641953 29.422846 28.641953 
C 28.759838 28.641953 28.123896 28.905369 27.655079 29.374186 
C 27.186261 29.843004 26.922846 30.478945 26.922846 31.141953 
C 26.922846 31.804961 27.186261 32.440903 27.655079 32.90972 
C 28.123896 33.378537 28.759838 33.641953 29.422846 33.641953 
z
" clip-path="url(#p3356d90c45)" style="fill: #bebebe"/>
    <path d="M 42.049903 31.641953 
C 42.182504 31.641953 42.309693 31.58927 42.403456 31.495507 
C 42.497219 31.401743 42.549903 31.274555 42.549903 31.141953 
C 42.549903 31.009352 42.497219 30.882163 42.403456 30.7884 
C 42.309693 30.694636 42.182504 30.641953 42.049903 30.641953 
C 41.917301 30.641953 41.790113 30.694636 41.696349 30.7884 
C 41.602586 30.882163 41.549903 31.009352 41.549903 31.141953 
C 41.549903 31.274555 41.602586 31.401743 41.696349 31.495507 
C 41.790113 31.58927 41.917301 31.641953 42.049903 31.641953 
z
" clip-path="url(#p3356d90c45)" style="fill: #bebebe"/>
    <path d="M 52.265406 28.272267 
C 52.398008 28.272267 52.525196 28.219584 52.61896 28.12582 
C 52.712723 28.032057 52.765406 27.904868 52.765406 27.772267 
C 52.765406 27.639665 52.712723 27.512477 52.61896 27.418714 
C 52.525196 27.32495 52.398008 27.272267 52.265406 27.272267 
C 52.132805 27.272267 52.005616 27.32495 51.911853 27.418714 
C 51.818089 27.512477 51.765406 27.639665 51.765406 27.772267 
C 51.765406 27.904868 51.818089 28.032057 51.911853 28.12582 
C 52.005616 28.219584 52.132805 28.272267 52.265406 28.272267 
z
" clip-path="url(#p3356d90c45)" style="fill: #bebebe"/>
   </g>
   <g id="matplotlib.axis_1"/>
   <g id="matplotlib.axis_2"/>
  </g>
  <g id="axes_2">
   <g id="patch_3">
    <path d="M 10.8 67.68 
L 61.2 67.68 
L 61.2 44.64 
L 10.8 44.64 
z
" style="fill: #ffffff"/>
   </g>
   <g id="EdgeCollection_2">
    <path d="M 58.332445 57.697936 
C 82.897577 70.067651 82.897577 42.828221 58.332445 55.197936 
C 82.897577 42.828221 82.897577 70.067651 58.332445 57.697936 
" clip-path="url(#paa5bd97fb3)" style="fill: #020202"/>
    <path d="M 54.741104 54.394711 
L 52.550662 51.241419 
" clip-path="url(#paa5bd97fb3)" style="fill: #020202"/>
    <path d="M 54.065332 55.094648 
L 44.151952 48.712466 
" clip-path="url(#paa5bd97fb3)" style="fill: #020202; stroke: #020202; stroke-width: 0.99"/>
    <path d="M 53.800331 55.643527 
L 29.896256 47.52006 
" clip-path="url(#paa5bd97fb3)" style="fill: #020202"/>
    <path d="M 53.695763 56.072301 
L 19.701666 50.905901 
" clip-path="url(#paa5bd97fb3)" style="fill: #020202"/>
    <path d="M 53.667382 56.447936 
L 15.805367 56.447936 
" clip-path="url(#paa5bd97fb3)" style="fill: #020202; stroke: #020202; stroke-width: 0.99"/>
    <path d="M 53.695763 56.823571 
L 19.701666 61.98997 
" clip-path="url(#paa5bd97fb3)" style="fill: #020202"/>
    <path d="M 53.800331 57.252345 
L 29.896256 65.375812 
" clip-path="url(#paa5bd97fb3)" style="fill: #020202"/>
    <path d="M 54.065332 57.801224 
L 42.470312 65.266036 
" clip-path="url(#paa5bd97fb3)" style="fill: #020202"/>
    <path d="M 54.741104 58.50116 
L 52.550662 61.654452 
" clip-path="url(#paa5bd97fb3)" style="fill: #020202; stroke: #020202; stroke-width: 0.99"/>
    <path d="M 52.725631 50.635344 
C 79.227361 37.675814 57.470659 21.285803 52.326271 50.334493 
C 57.470659 21.285803 79.227361 37.675814 52.725631 50.635344 
" clip-path="url(#paa5bd97fb3)" style="fill: #020202"/>
    <path d="M 51.791996 50.669893 
L 44.416953 48.163587 
" clip-path="url(#paa5bd97fb3)" style="fill: #020202; stroke: #020202; stroke-width: 0.99"/>
    <path d="M 51.771083 50.755648 
L 29.917169 47.434305 
" clip-path="url(#paa5bd97fb3)" style="fill: #020202"/>
    <path d="M 51.765406 50.830775 
L 19.707342 50.830775 
" clip-path="url(#paa5bd97fb3)" style="fill: #020202"/>
    <path d="M 51.771083 50.905901 
L 15.79969 56.372809 
" clip-path="url(#paa5bd97fb3)" style="fill: #020202; stroke: #020202; stroke-width: 0.99"/>
    <path d="M 51.791996 50.991656 
L 19.680752 61.904215 
" clip-path="url(#paa5bd97fb3)" style="fill: #020202"/>
    <path d="M 51.844996 51.101432 
L 29.843255 65.266036 
" clip-path="url(#paa5bd97fb3)" style="fill: #020202"/>
    <path d="M 51.980151 51.241419 
L 42.335158 65.126048 
" clip-path="url(#paa5bd97fb3)" style="fill: #020202"/>
    <path d="M 52.265406 51.330775 
L 52.265406 61.565097 
" clip-path="url(#paa5bd97fb3)" style="fill: #020202"/>
    <path d="M 43.636217 45.426923 
C 59.846065 23.207644 32.971223 18.765864 41.169678 45.019262 
C 32.971223 18.765864 59.846065 23.207644 43.636217 45.426923 
" clip-path="url(#paa5bd97fb3)" style="fill: #020202"/>
    <path d="M 39.549903 47.359178 
L 29.922846 47.359178 
" clip-path="url(#paa5bd97fb3)" style="fill: #020202"/>
    <path d="M 39.578284 47.734813 
L 19.701666 50.755648 
" clip-path="url(#paa5bd97fb3)" style="fill: #020202"/>
    <path d="M 39.682853 48.163587 
L 15.778777 56.287054 
" clip-path="url(#paa5bd97fb3)" style="fill: #020202"/>
    <path d="M 39.947853 48.712466 
L 19.627752 61.794439 
" clip-path="url(#paa5bd97fb3)" style="fill: #020202"/>
    <path d="M 40.623625 49.412403 
L 29.708101 65.126048 
" clip-path="url(#paa5bd97fb3)" style="fill: #020202"/>
    <path d="M 42.049903 49.859178 
L 42.049903 65.036693 
" clip-path="url(#paa5bd97fb3)" style="fill: #020202"/>
    <path d="M 43.47618 49.412403 
L 51.980151 61.654452 
" clip-path="url(#paa5bd97fb3)" style="fill: #020202; stroke: #020202; stroke-width: 0.99"/>
    <path d="M 29.598891 46.891195 
C 38.501525 18.765864 11.626683 23.207644 29.105583 46.972727 
C 11.626683 23.207644 38.501525 18.765864 29.598891 46.891195 
" clip-path="url(#paa5bd97fb3)" style="fill: #020202"/>
    <path d="M 28.949436 47.52006 
L 19.680752 50.669893 
" clip-path="url(#paa5bd97fb3)" style="fill: #020202"/>
    <path d="M 29.002436 47.629836 
L 15.725777 56.177278 
" clip-path="url(#paa5bd97fb3)" style="fill: #020202"/>
    <path d="M 29.13759 47.769823 
L 19.492597 61.654452 
" clip-path="url(#paa5bd97fb3)" style="fill: #020202"/>
    <path d="M 29.422846 47.859178 
L 29.422846 65.036693 
" clip-path="url(#paa5bd97fb3)" style="fill: #020202"/>
    <path d="M 29.708101 47.769823 
L 41.764647 65.126048 
" clip-path="url(#paa5bd97fb3)" style="fill: #020202"/>
    <path d="M 29.843255 47.629836 
L 51.844996 61.794439 
" clip-path="url(#paa5bd97fb3)" style="fill: #020202"/>
    <path d="M 19.146478 50.334493 
C 14.002089 21.285803 -7.754613 37.675814 18.747117 50.635344 
C -7.754613 37.675814 14.002089 21.285803 19.146478 50.334493 
" clip-path="url(#paa5bd97fb3)" style="fill: #020202"/>
    <path d="M 18.922086 51.241419 
L 15.590622 56.037291 
" clip-path="url(#paa5bd97fb3)" style="fill: #020202"/>
    <path d="M 19.207342 51.330775 
L 19.207342 61.565097 
" clip-path="url(#paa5bd97fb3)" style="fill: #020202"/>
    <path d="M 19.492597 51.241419 
L 29.13759 65.126048 
" clip-path="url(#paa5bd97fb3)" style="fill: #020202"/>
    <path d="M 19.627752 51.101432 
L 41.629493 65.266036 
" clip-path="url(#paa5bd97fb3)" style="fill: #020202"/>
    <path d="M 19.680752 50.991656 
L 51.791996 61.904215 
" clip-path="url(#paa5bd97fb3)" style="fill: #020202"/>
    <path d="M 14.872354 56.197936 
C -11.424829 42.828221 -11.424829 70.067651 14.872354 56.697936 
C -11.424829 70.067651 -11.424829 42.828221 14.872354 56.197936 
" clip-path="url(#paa5bd97fb3)" style="fill: #020202"/>
    <path d="M 15.590622 56.858581 
L 18.922086 61.654452 
" clip-path="url(#paa5bd97fb3)" style="fill: #020202"/>
    <path d="M 15.725777 56.718593 
L 29.002436 65.266036 
" clip-path="url(#paa5bd97fb3)" style="fill: #020202"/>
    <path d="M 15.778777 56.608817 
L 41.576493 65.375812 
" clip-path="url(#paa5bd97fb3)" style="fill: #020202"/>
    <path d="M 15.79969 56.523063 
L 51.771083 61.98997 
" clip-path="url(#paa5bd97fb3)" style="fill: #020202"/>
    <path d="M 18.747117 62.260528 
C -7.754613 75.220057 14.002089 91.610068 19.146478 62.561379 
C 14.002089 91.610068 -7.754613 75.220057 18.747117 62.260528 
" clip-path="url(#paa5bd97fb3)" style="fill: #020202"/>
    <path d="M 19.680752 62.225979 
L 28.949436 65.375812 
" clip-path="url(#paa5bd97fb3)" style="fill: #020202"/>
    <path d="M 19.701666 62.140224 
L 41.555579 65.461566 
" clip-path="url(#paa5bd97fb3)" style="fill: #020202; stroke: #020202; stroke-width: 0.99"/>
    <path d="M 19.707342 62.065097 
L 51.765406 62.065097 
" clip-path="url(#paa5bd97fb3)" style="fill: #020202"/>
    <path d="M 29.105583 65.923144 
C 11.626683 89.688227 38.501525 94.130007 29.598891 66.004676 
C 38.501525 94.130007 11.626683 89.688227 29.105583 65.923144 
" clip-path="url(#paa5bd97fb3)" style="fill: #020202"/>
    <path d="M 29.922846 65.536693 
L 41.549903 65.536693 
" clip-path="url(#paa5bd97fb3)" style="fill: #020202"/>
    <path d="M 29.917169 65.461566 
L 51.771083 62.140224 
" clip-path="url(#paa5bd97fb3)" style="fill: #020202"/>
    <path d="M 41.873858 66.004676 
C 32.971223 94.130007 59.846065 89.688227 42.367165 65.923144 
C 59.846065 89.688227 32.971223 94.130007 41.873858 66.004676 
" clip-path="url(#paa5bd97fb3)" style="fill: #020202"/>
    <path d="M 42.523313 65.375812 
L 51.791996 62.225979 
" clip-path="url(#paa5bd97fb3)" style="fill: #020202"/>
    <path d="M 52.326271 62.561379 
C 57.470659 91.610068 79.227361 75.220057 52.725631 62.260528 
C 79.227361 75.220057 57.470659 91.610068 52.326271 62.561379 
" clip-path="url(#paa5bd97fb3)" style="fill: #020202"/>
   </g>
   <g id="VertexCollection_2">
    <path d="M 56.167382 58.947936 
C 56.830389 58.947936 57.466331 58.68452 57.935148 58.215703 
C 58.403966 57.746885 58.667382 57.110943 58.667382 56.447936 
C 58.667382 55.784928 58.403966 55.148986 57.935148 54.680169 
C 57.466331 54.211351 56.830389 53.947936 56.167382 53.947936 
C 55.504374 53.947936 54.868432 54.211351 54.399615 54.680169 
C 53.930797 55.148986 53.667382 55.784928 53.667382 56.447936 
C 53.667382 57.110943 53.930797 57.746885 54.399615 58.215703 
C 54.868432 58.68452 55.504374 58.947936 56.167382 58.947936 
z
" clip-path="url(#paa5bd97fb3)" style="fill: #bebebe"/>
    <path d="M 52.265406 51.330775 
C 52.398008 51.330775 52.525196 51.278091 52.61896 51.184328 
C 52.712723 51.090564 52.765406 50.963376 52.765406 50.830775 
C 52.765406 50.698173 52.712723 50.570985 52.61896 50.477221 
C 52.525196 50.383458 52.398008 50.330775 52.265406 50.330775 
C 52.132805 50.330775 52.005616 50.383458 51.911853 50.477221 
C 51.818089 50.570985 51.765406 50.698173 51.765406 50.830775 
C 51.765406 50.963376 51.818089 51.090564 51.911853 51.184328 
C 52.005616 51.278091 52.132805 51.330775 52.265406 51.330775 
z
" clip-path="url(#paa5bd97fb3)" style="fill: #bebebe"/>
    <path d="M 42.049903 49.859178 
C 42.71291 49.859178 43.348852 49.595762 43.81767 49.126945 
C 44.286487 48.658128 44.549903 48.022186 44.549903 47.359178 
C 44.549903 46.69617 44.286487 46.060228 43.81767 45.591411 
C 43.348852 45.122594 42.71291 44.859178 42.049903 44.859178 
C 41.386895 44.859178 40.750953 45.122594 40.282136 45.591411 
C 39.813318 46.060228 39.549903 46.69617 39.549903 47.359178 
C 39.549903 48.022186 39.813318 48.658128 40.282136 49.126945 
C 40.750953 49.595762 41.386895 49.859178 42.049903 49.859178 
z
" clip-path="url(#paa5bd97fb3)" style="fill: #bebebe"/>
    <path d="M 29.422846 47.859178 
C 29.555447 47.859178 29.682636 47.806495 29.776399 47.712731 
C 29.870162 47.618968 29.922846 47.49178 29.922846 47.359178 
C 29.922846 47.226576 29.870162 47.099388 29.776399 47.005625 
C 29.682636 46.911861 29.555447 46.859178 29.422846 46.859178 
C 29.290244 46.859178 29.163056 46.911861 29.069292 47.005625 
C 28.975529 47.099388 28.922846 47.226576 28.922846 47.359178 
C 28.922846 47.49178 28.975529 47.618968 29.069292 47.712731 
C 29.163056 47.806495 29.290244 47.859178 29.422846 47.859178 
z
" clip-path="url(#paa5bd97fb3)" style="fill: #bebebe"/>
    <path d="M 19.207342 51.330775 
C 19.339943 51.330775 19.467132 51.278091 19.560895 51.184328 
C 19.654659 51.090564 19.707342 50.963376 19.707342 50.830775 
C 19.707342 50.698173 19.654659 50.570985 19.560895 50.477221 
C 19.467132 50.383458 19.339943 50.330775 19.207342 50.330775 
C 19.07474 50.330775 18.947552 50.383458 18.853788 50.477221 
C 18.760025 50.570985 18.707342 50.698173 18.707342 50.830775 
C 18.707342 50.963376 18.760025 51.090564 18.853788 51.184328 
C 18.947552 51.278091 19.07474 51.330775 19.207342 51.330775 
z
" clip-path="url(#paa5bd97fb3)" style="fill: #bebebe"/>
    <path d="M 15.305367 56.947936 
C 15.437968 56.947936 15.565157 56.895253 15.65892 56.801489 
C 15.752684 56.707726 15.805367 56.580537 15.805367 56.447936 
C 15.805367 56.315334 15.752684 56.188146 15.65892 56.094382 
C 15.565157 56.000619 15.437968 55.947936 15.305367 55.947936 
C 15.172765 55.947936 15.045577 56.000619 14.951813 56.094382 
C 14.85805 56.188146 14.805367 56.315334 14.805367 56.447936 
C 14.805367 56.580537 14.85805 56.707726 14.951813 56.801489 
C 15.045577 56.895253 15.172765 56.947936 15.305367 56.947936 
z
" clip-path="url(#paa5bd97fb3)" style="fill: #bebebe"/>
    <path d="M 19.207342 62.565097 
C 19.339943 62.565097 19.467132 62.512414 19.560895 62.41865 
C 19.654659 62.324887 19.707342 62.197698 19.707342 62.065097 
C 19.707342 61.932495 19.654659 61.805307 19.560895 61.711543 
C 19.467132 61.61778 19.339943 61.565097 19.207342 61.565097 
C 19.07474 61.565097 18.947552 61.61778 18.853788 61.711543 
C 18.760025 61.805307 18.707342 61.932495 18.707342 62.065097 
C 18.707342 62.197698 18.760025 62.324887 18.853788 62.41865 
C 18.947552 62.512414 19.07474 62.565097 19.207342 62.565097 
z
" clip-path="url(#paa5bd97fb3)" style="fill: #bebebe"/>
    <path d="M 29.422846 66.036693 
C 29.555447 66.036693 29.682636 65.98401 29.776399 65.890247 
C 29.870162 65.796483 29.922846 65.669295 29.922846 65.536693 
C 29.922846 65.404092 29.870162 65.276903 29.776399 65.18314 
C 29.682636 65.089376 29.555447 65.036693 29.422846 65.036693 
C 29.290244 65.036693 29.163056 65.089376 29.069292 65.18314 
C 28.975529 65.276903 28.922846 65.404092 28.922846 65.536693 
C 28.922846 65.669295 28.975529 65.796483 29.069292 65.890247 
C 29.163056 65.98401 29.290244 66.036693 29.422846 66.036693 
z
" clip-path="url(#paa5bd97fb3)" style="fill: #bebebe"/>
    <path d="M 42.049903 66.036693 
C 42.182504 66.036693 42.309693 65.98401 42.403456 65.890247 
C 42.497219 65.796483 42.549903 65.669295 42.549903 65.536693 
C 42.549903 65.404092 42.497219 65.276903 42.403456 65.18314 
C 42.309693 65.089376 42.182504 65.036693 42.049903 65.036693 
C 41.917301 65.036693 41.790113 65.089376 41.696349 65.18314 
C 41.602586 65.276903 41.549903 65.404092 41.549903 65.536693 
C 41.549903 65.669295 41.602586 65.796483 41.696349 65.890247 
C 41.790113 65.98401 41.917301 66.036693 42.049903 66.036693 
z
" clip-path="url(#paa5bd97fb3)" style="fill: #bebebe"/>
    <path d="M 52.265406 62.565097 
C 52.398008 62.565097 52.525196 62.512414 52.61896 62.41865 
C 52.712723 62.324887 52.765406 62.197698 52.765406 62.065097 
C 52.765406 61.932495 52.712723 61.805307 52.61896 61.711543 
C 52.525196 61.61778 52.398008 61.565097 52.265406 61.565097 
C 52.132805 61.565097 52.005616 61.61778 51.911853 61.711543 
C 51.818089 61.805307 51.765406 61.932495 51.765406 62.065097 
C 51.765406 62.197698 51.818089 62.324887 51.911853 62.41865 
C 52.005616 62.512414 52.132805 62.565097 52.265406 62.565097 
z
" clip-path="url(#paa5bd97fb3)" style="fill: #bebebe"/>
   </g>
   <g id="matplotlib.axis_3"/>
   <g id="matplotlib.axis_4"/>
  </g>
  <g id="axes_3">
   <g id="patch_4">
    <path d="M 10.8 101.52 
L 61.2 101.52 
L 61.2 78.48 
L 10.8 78.48 
z
" style="fill: #ffffff"/>
   </g>
   <g id="EdgeCollection_3">
    <path d="M 58.332445 91.537936 
C 82.897577 103.907651 82.897577 76.668221 58.332445 89.037936 
C 82.897577 76.668221 82.897577 103.907651 58.332445 91.537936 
" clip-path="url(#pfa62ce92a5)" style="fill: #020202"/>
    <path d="M 54.741104 88.234711 
L 52.550662 85.081419 
" clip-path="url(#pfa62ce92a5)" style="fill: #020202; stroke: #020202; stroke-width: 0.99"/>
    <path d="M 54.065332 88.934648 
L 44.151952 82.552466 
" clip-path="url(#pfa62ce92a5)" style="fill: #020202; stroke: #020202; stroke-width: 0.99"/>
    <path d="M 53.800331 89.483527 
L 29.896256 81.36006 
" clip-path="url(#pfa62ce92a5)" style="fill: #020202"/>
    <path d="M 53.695763 89.912301 
L 19.701666 84.745901 
" clip-path="url(#pfa62ce92a5)" style="fill: #020202"/>
    <path d="M 53.667382 90.287936 
L 15.805367 90.287936 
" clip-path="url(#pfa62ce92a5)" style="fill: #020202; stroke: #020202; stroke-width: 0.99"/>
    <path d="M 53.695763 90.663571 
L 21.67896 95.529462 
" clip-path="url(#pfa62ce92a5)" style="fill: #020202"/>
    <path d="M 53.800331 91.092345 
L 29.896256 99.215812 
" clip-path="url(#pfa62ce92a5)" style="fill: #020202"/>
    <path d="M 54.065332 91.641224 
L 42.470312 99.106036 
" clip-path="url(#pfa62ce92a5)" style="fill: #020202"/>
    <path d="M 54.741104 92.34116 
L 52.550662 95.494452 
" clip-path="url(#pfa62ce92a5)" style="fill: #020202"/>
    <path d="M 52.725631 84.475344 
C 79.227361 71.515814 57.470659 55.125803 52.326271 84.174493 
C 57.470659 55.125803 79.227361 71.515814 52.725631 84.475344 
" clip-path="url(#pfa62ce92a5)" style="fill: #020202"/>
    <path d="M 51.791996 84.509893 
L 44.416953 82.003587 
" clip-path="url(#pfa62ce92a5)" style="fill: #020202; stroke: #020202; stroke-width: 0.99"/>
    <path d="M 51.771083 84.595648 
L 29.917169 81.274305 
" clip-path="url(#pfa62ce92a5)" style="fill: #020202"/>
    <path d="M 51.765406 84.670775 
L 19.707342 84.670775 
" clip-path="url(#pfa62ce92a5)" style="fill: #020202"/>
    <path d="M 51.771083 84.745901 
L 15.79969 90.212809 
" clip-path="url(#pfa62ce92a5)" style="fill: #020202"/>
    <path d="M 51.791996 84.831656 
L 21.574392 95.100688 
" clip-path="url(#pfa62ce92a5)" style="fill: #020202"/>
    <path d="M 51.844996 84.941432 
L 29.843255 99.106036 
" clip-path="url(#pfa62ce92a5)" style="fill: #020202"/>
    <path d="M 51.980151 85.081419 
L 42.335158 98.966048 
" clip-path="url(#pfa62ce92a5)" style="fill: #020202"/>
    <path d="M 52.265406 85.170775 
L 52.265406 95.405097 
" clip-path="url(#pfa62ce92a5)" style="fill: #020202"/>
    <path d="M 43.636217 79.266923 
C 59.846065 57.047644 32.971223 52.605864 41.169678 78.859262 
C 32.971223 52.605864 59.846065 57.047644 43.636217 79.266923 
" clip-path="url(#pfa62ce92a5)" style="fill: #020202"/>
    <path d="M 39.549903 81.199178 
L 29.922846 81.199178 
" clip-path="url(#pfa62ce92a5)" style="fill: #020202"/>
    <path d="M 39.578284 81.574813 
L 19.701666 84.595648 
" clip-path="url(#pfa62ce92a5)" style="fill: #020202"/>
    <path d="M 39.682853 82.003587 
L 15.778777 90.127054 
" clip-path="url(#pfa62ce92a5)" style="fill: #020202"/>
    <path d="M 39.947853 82.552466 
L 21.309391 94.551809 
" clip-path="url(#pfa62ce92a5)" style="fill: #020202"/>
    <path d="M 40.623625 83.252403 
L 29.708101 98.966048 
" clip-path="url(#pfa62ce92a5)" style="fill: #020202; stroke: #020202; stroke-width: 0.99"/>
    <path d="M 42.049903 83.699178 
L 42.049903 98.876693 
" clip-path="url(#pfa62ce92a5)" style="fill: #020202"/>
    <path d="M 43.47618 83.252403 
L 51.980151 95.494452 
" clip-path="url(#pfa62ce92a5)" style="fill: #020202"/>
    <path d="M 29.598891 80.731195 
C 38.501525 52.605864 11.626683 57.047644 29.105583 80.812727 
C 11.626683 57.047644 38.501525 52.605864 29.598891 80.731195 
" clip-path="url(#pfa62ce92a5)" style="fill: #020202"/>
    <path d="M 28.949436 81.36006 
L 19.680752 84.509893 
" clip-path="url(#pfa62ce92a5)" style="fill: #020202"/>
    <path d="M 29.002436 81.469836 
L 15.725777 90.017278 
" clip-path="url(#pfa62ce92a5)" style="fill: #020202"/>
    <path d="M 29.13759 81.609823 
L 20.63362 93.851872 
" clip-path="url(#pfa62ce92a5)" style="fill: #020202"/>
    <path d="M 29.422846 81.699178 
L 29.422846 98.876693 
" clip-path="url(#pfa62ce92a5)" style="fill: #020202"/>
    <path d="M 29.708101 81.609823 
L 41.764647 98.966048 
" clip-path="url(#pfa62ce92a5)" style="fill: #020202"/>
    <path d="M 29.843255 81.469836 
L 51.844996 95.634439 
" clip-path="url(#pfa62ce92a5)" style="fill: #020202"/>
    <path d="M 19.146478 84.174493 
C 14.002089 55.125803 -7.754613 71.515814 18.747117 84.475344 
C -7.754613 71.515814 14.002089 55.125803 19.146478 84.174493 
" clip-path="url(#pfa62ce92a5)" style="fill: #020202"/>
    <path d="M 18.922086 85.081419 
L 15.590622 89.877291 
" clip-path="url(#pfa62ce92a5)" style="fill: #020202"/>
    <path d="M 19.207342 85.170775 
L 19.207342 93.405097 
" clip-path="url(#pfa62ce92a5)" style="fill: #020202"/>
    <path d="M 19.492597 85.081419 
L 29.13759 98.966048 
" clip-path="url(#pfa62ce92a5)" style="fill: #020202"/>
    <path d="M 19.627752 84.941432 
L 41.629493 99.106036 
" clip-path="url(#pfa62ce92a5)" style="fill: #020202"/>
    <path d="M 19.680752 84.831656 
L 51.791996 95.744215 
" clip-path="url(#pfa62ce92a5)" style="fill: #020202"/>
    <path d="M 14.872354 90.037936 
C -11.424829 76.668221 -11.424829 103.907651 14.872354 90.537936 
C -11.424829 103.907651 -11.424829 76.668221 14.872354 90.037936 
" clip-path="url(#pfa62ce92a5)" style="fill: #020202"/>
    <path d="M 15.590622 90.698581 
L 17.781064 93.851872 
" clip-path="url(#pfa62ce92a5)" style="fill: #020202; stroke: #020202; stroke-width: 0.99"/>
    <path d="M 15.725777 90.558593 
L 29.002436 99.106036 
" clip-path="url(#pfa62ce92a5)" style="fill: #020202"/>
    <path d="M 15.778777 90.448817 
L 41.576493 99.215812 
" clip-path="url(#pfa62ce92a5)" style="fill: #020202"/>
    <path d="M 15.79969 90.363063 
L 51.771083 95.82997 
" clip-path="url(#pfa62ce92a5)" style="fill: #020202"/>
    <path d="M 16.906218 96.882251 
C -7.754613 109.060057 14.002089 125.450068 18.903021 98.386505 
C 14.002089 125.450068 -7.754613 109.060057 16.906218 96.882251 
" clip-path="url(#pfa62ce92a5)" style="fill: #020202"/>
    <path d="M 21.574392 96.709506 
L 28.949436 99.215812 
" clip-path="url(#pfa62ce92a5)" style="fill: #020202"/>
    <path d="M 21.67896 96.280732 
L 41.555579 99.301566 
" clip-path="url(#pfa62ce92a5)" style="fill: #020202; stroke: #020202; stroke-width: 0.99"/>
    <path d="M 21.707342 95.905097 
L 51.765406 95.905097 
" clip-path="url(#pfa62ce92a5)" style="fill: #020202; stroke: #020202; stroke-width: 0.99"/>
    <path d="M 29.105583 99.763144 
C 11.626683 123.528227 38.501525 127.970007 29.598891 99.844676 
C 38.501525 127.970007 11.626683 123.528227 29.105583 99.763144 
" clip-path="url(#pfa62ce92a5)" style="fill: #020202"/>
    <path d="M 29.922846 99.376693 
L 41.549903 99.376693 
" clip-path="url(#pfa62ce92a5)" style="fill: #020202"/>
    <path d="M 29.917169 99.301566 
L 51.771083 95.980224 
" clip-path="url(#pfa62ce92a5)" style="fill: #020202"/>
    <path d="M 41.873858 99.844676 
C 32.971223 127.970007 59.846065 123.528227 42.367165 99.763144 
C 59.846065 123.528227 32.971223 127.970007 41.873858 99.844676 
" clip-path="url(#pfa62ce92a5)" style="fill: #020202"/>
    <path d="M 42.523313 99.215812 
L 51.791996 96.065979 
" clip-path="url(#pfa62ce92a5)" style="fill: #020202"/>
    <path d="M 52.326271 96.401379 
C 57.470659 125.450068 79.227361 109.060057 52.725631 96.100528 
C 79.227361 109.060057 57.470659 125.450068 52.326271 96.401379 
" clip-path="url(#pfa62ce92a5)" style="fill: #020202"/>
   </g>
   <g id="VertexCollection_3">
    <path d="M 56.167382 92.787936 
C 56.830389 92.787936 57.466331 92.52452 57.935148 92.055703 
C 58.403966 91.586885 58.667382 90.950943 58.667382 90.287936 
C 58.667382 89.624928 58.403966 88.988986 57.935148 88.520169 
C 57.466331 88.051351 56.830389 87.787936 56.167382 87.787936 
C 55.504374 87.787936 54.868432 88.051351 54.399615 88.520169 
C 53.930797 88.988986 53.667382 89.624928 53.667382 90.287936 
C 53.667382 90.950943 53.930797 91.586885 54.399615 92.055703 
C 54.868432 92.52452 55.504374 92.787936 56.167382 92.787936 
z
" clip-path="url(#pfa62ce92a5)" style="fill: #bebebe"/>
    <path d="M 52.265406 85.170775 
C 52.398008 85.170775 52.525196 85.118091 52.61896 85.024328 
C 52.712723 84.930564 52.765406 84.803376 52.765406 84.670775 
C 52.765406 84.538173 52.712723 84.410985 52.61896 84.317221 
C 52.525196 84.223458 52.398008 84.170775 52.265406 84.170775 
C 52.132805 84.170775 52.005616 84.223458 51.911853 84.317221 
C 51.818089 84.410985 51.765406 84.538173 51.765406 84.670775 
C 51.765406 84.803376 51.818089 84.930564 51.911853 85.024328 
C 52.005616 85.118091 52.132805 85.170775 52.265406 85.170775 
z
" clip-path="url(#pfa62ce92a5)" style="fill: #bebebe"/>
    <path d="M 42.049903 83.699178 
C 42.71291 83.699178 43.348852 83.435762 43.81767 82.966945 
C 44.286487 82.498128 44.549903 81.862186 44.549903 81.199178 
C 44.549903 80.53617 44.286487 79.900228 43.81767 79.431411 
C 43.348852 78.962594 42.71291 78.699178 42.049903 78.699178 
C 41.386895 78.699178 40.750953 78.962594 40.282136 79.431411 
C 39.813318 79.900228 39.549903 80.53617 39.549903 81.199178 
C 39.549903 81.862186 39.813318 82.498128 40.282136 82.966945 
C 40.750953 83.435762 41.386895 83.699178 42.049903 83.699178 
z
" clip-path="url(#pfa62ce92a5)" style="fill: #bebebe"/>
    <path d="M 29.422846 81.699178 
C 29.555447 81.699178 29.682636 81.646495 29.776399 81.552731 
C 29.870162 81.458968 29.922846 81.33178 29.922846 81.199178 
C 29.922846 81.066576 29.870162 80.939388 29.776399 80.845625 
C 29.682636 80.751861 29.555447 80.699178 29.422846 80.699178 
C 29.290244 80.699178 29.163056 80.751861 29.069292 80.845625 
C 28.975529 80.939388 28.922846 81.066576 28.922846 81.199178 
C 28.922846 81.33178 28.975529 81.458968 29.069292 81.552731 
C 29.163056 81.646495 29.290244 81.699178 29.422846 81.699178 
z
" clip-path="url(#pfa62ce92a5)" style="fill: #bebebe"/>
    <path d="M 19.207342 85.170775 
C 19.339943 85.170775 19.467132 85.118091 19.560895 85.024328 
C 19.654659 84.930564 19.707342 84.803376 19.707342 84.670775 
C 19.707342 84.538173 19.654659 84.410985 19.560895 84.317221 
C 19.467132 84.223458 19.339943 84.170775 19.207342 84.170775 
C 19.07474 84.170775 18.947552 84.223458 18.853788 84.317221 
C 18.760025 84.410985 18.707342 84.538173 18.707342 84.670775 
C 18.707342 84.803376 18.760025 84.930564 18.853788 85.024328 
C 18.947552 85.118091 19.07474 85.170775 19.207342 85.170775 
z
" clip-path="url(#pfa62ce92a5)" style="fill: #bebebe"/>
    <path d="M 15.305367 90.787936 
C 15.437968 90.787936 15.565157 90.735253 15.65892 90.641489 
C 15.752684 90.547726 15.805367 90.420537 15.805367 90.287936 
C 15.805367 90.155334 15.752684 90.028146 15.65892 89.934382 
C 15.565157 89.840619 15.437968 89.787936 15.305367 89.787936 
C 15.172765 89.787936 15.045577 89.840619 14.951813 89.934382 
C 14.85805 90.028146 14.805367 90.155334 14.805367 90.287936 
C 14.805367 90.420537 14.85805 90.547726 14.951813 90.641489 
C 15.045577 90.735253 15.172765 90.787936 15.305367 90.787936 
z
" clip-path="url(#pfa62ce92a5)" style="fill: #bebebe"/>
    <path d="M 19.207342 98.405097 
C 19.87035 98.405097 20.506292 98.141681 20.975109 97.672864 
C 21.443926 97.204046 21.707342 96.568105 21.707342 95.905097 
C 21.707342 95.242089 21.443926 94.606147 20.975109 94.13733 
C 20.506292 93.668513 19.87035 93.405097 19.207342 93.405097 
C 18.544334 93.405097 17.908392 93.668513 17.439575 94.13733 
C 16.970758 94.606147 16.707342 95.242089 16.707342 95.905097 
C 16.707342 96.568105 16.970758 97.204046 17.439575 97.672864 
C 17.908392 98.141681 18.544334 98.405097 19.207342 98.405097 
z
" clip-path="url(#pfa62ce92a5)" style="fill: #bebebe"/>
    <path d="M 29.422846 99.876693 
C 29.555447 99.876693 29.682636 99.82401 29.776399 99.730247 
C 29.870162 99.636483 29.922846 99.509295 29.922846 99.376693 
C 29.922846 99.244092 29.870162 99.116903 29.776399 99.02314 
C 29.682636 98.929376 29.555447 98.876693 29.422846 98.876693 
C 29.290244 98.876693 29.163056 98.929376 29.069292 99.02314 
C 28.975529 99.116903 28.922846 99.244092 28.922846 99.376693 
C 28.922846 99.509295 28.975529 99.636483 29.069292 99.730247 
C 29.163056 99.82401 29.290244 99.876693 29.422846 99.876693 
z
" clip-path="url(#pfa62ce92a5)" style="fill: #bebebe"/>
    <path d="M 42.049903 99.876693 
C 42.182504 99.876693 42.309693 99.82401 42.403456 99.730247 
C 42.497219 99.636483 42.549903 99.509295 42.549903 99.376693 
C 42.549903 99.244092 42.497219 99.116903 42.403456 99.02314 
C 42.309693 98.929376 42.182504 98.876693 42.049903 98.876693 
C 41.917301 98.876693 41.790113 98.929376 41.696349 99.02314 
C 41.602586 99.116903 41.549903 99.244092 41.549903 99.376693 
C 41.549903 99.509295 41.602586 99.636483 41.696349 99.730247 
C 41.790113 99.82401 41.917301 99.876693 42.049903 99.876693 
z
" clip-path="url(#pfa62ce92a5)" style="fill: #bebebe"/>
    <path d="M 52.265406 96.405097 
C 52.398008 96.405097 52.525196 96.352414 52.61896 96.25865 
C 52.712723 96.164887 52.765406 96.037698 52.765406 95.905097 
C 52.765406 95.772495 52.712723 95.645307 52.61896 95.551543 
C 52.525196 95.45778 52.398008 95.405097 52.265406 95.405097 
C 52.132805 95.405097 52.005616 95.45778 51.911853 95.551543 
C 51.818089 95.645307 51.765406 95.772495 51.765406 95.905097 
C 51.765406 96.037698 51.818089 96.164887 51.911853 96.25865 
C 52.005616 96.352414 52.132805 96.405097 52.265406 96.405097 
z
" clip-path="url(#pfa62ce92a5)" style="fill: #bebebe"/>
   </g>
   <g id="matplotlib.axis_5"/>
   <g id="matplotlib.axis_6"/>
  </g>
  <g id="axes_4">
   <g id="patch_5">
    <path d="M 10.8 135.36 
L 61.2 135.36 
L 61.2 112.32 
L 10.8 112.32 
z
" style="fill: #ffffff"/>
   </g>
   <g id="EdgeCollection_4">
    <path d="M 58.332445 125.09 
C 82.897577 137.459715 82.897577 110.220285 58.332445 122.59 
C 82.897577 110.220285 82.897577 137.459715 58.332445 125.09 
" clip-path="url(#pad988763e9)" style="fill: #020202"/>
    <path d="M 54.712435 121.80699 
L 52.556396 118.794335 
" clip-path="url(#pad988763e9)" style="fill: #020202; stroke: #020202; stroke-width: 0.99"/>
    <path d="M 54.047286 122.515162 
L 44.169998 116.342885 
" clip-path="url(#pad988763e9)" style="fill: #020202; stroke: #020202; stroke-width: 0.99"/>
    <path d="M 53.793211 123.056856 
L 29.89768 115.174676 
" clip-path="url(#pad988763e9)" style="fill: #020202"/>
    <path d="M 53.694147 123.475154 
L 19.701989 118.460702 
" clip-path="url(#pad988763e9)" style="fill: #020202"/>
    <path d="M 53.667382 123.84 
L 15.805367 123.84 
" clip-path="url(#pad988763e9)" style="fill: #020202; stroke: #020202; stroke-width: 0.99"/>
    <path d="M 53.694147 124.204846 
L 19.701989 129.219298 
" clip-path="url(#pad988763e9)" style="fill: #020202"/>
    <path d="M 53.793211 124.623144 
L 31.797016 131.878809 
" clip-path="url(#pad988763e9)" style="fill: #020202"/>
    <path d="M 54.047286 125.164838 
L 42.473922 132.396985 
" clip-path="url(#pad988763e9)" style="fill: #020202"/>
    <path d="M 54.712435 125.87301 
L 52.556396 128.885665 
" clip-path="url(#pad988763e9)" style="fill: #020202"/>
    <path d="M 52.723353 118.187022 
C 79.074288 104.923563 57.130529 88.784852 52.320559 117.890784 
C 57.130529 88.784852 79.074288 104.923563 52.723353 118.187022 
" clip-path="url(#pad988763e9)" style="fill: #020202"/>
    <path d="M 51.790572 118.231104 
L 44.424073 115.801191 
" clip-path="url(#pad988763e9)" style="fill: #020202; stroke: #020202; stroke-width: 0.99"/>
    <path d="M 51.770759 118.314764 
L 29.917492 115.091016 
" clip-path="url(#pad988763e9)" style="fill: #020202"/>
    <path d="M 51.765406 118.387733 
L 19.707342 118.387733 
" clip-path="url(#pad988763e9)" style="fill: #020202"/>
    <path d="M 51.770759 118.460702 
L 15.800014 123.767031 
" clip-path="url(#pad988763e9)" style="fill: #020202"/>
    <path d="M 51.790572 118.544362 
L 19.682176 129.135638 
" clip-path="url(#pad988763e9)" style="fill: #020202"/>
    <path d="M 51.841387 118.652701 
L 31.542941 131.337115 
" clip-path="url(#pad988763e9)" style="fill: #020202"/>
    <path d="M 51.974417 118.794335 
L 42.340892 132.255351 
" clip-path="url(#pad988763e9)" style="fill: #020202"/>
    <path d="M 52.265406 118.887733 
L 52.265406 128.792267 
" clip-path="url(#pad988763e9)" style="fill: #020202"/>
    <path d="M 43.627534 113.078697 
C 59.737564 90.786938 32.843071 86.46574 41.159192 112.682103 
C 32.843071 86.46574 59.737564 90.786938 43.627534 113.078697 
" clip-path="url(#pad988763e9)" style="fill: #020202"/>
    <path d="M 39.549903 115.018047 
L 29.922846 115.018047 
" clip-path="url(#pad988763e9)" style="fill: #020202"/>
    <path d="M 39.576668 115.382893 
L 19.701989 118.314764 
" clip-path="url(#pad988763e9)" style="fill: #020202"/>
    <path d="M 39.675732 115.801191 
L 15.780201 123.683371 
" clip-path="url(#pad988763e9)" style="fill: #020202"/>
    <path d="M 39.929808 116.342885 
L 19.631361 129.027299 
" clip-path="url(#pad988763e9)" style="fill: #020202"/>
    <path d="M 40.594956 117.051057 
L 30.877792 130.628943 
" clip-path="url(#pad988763e9)" style="fill: #020202; stroke: #020202; stroke-width: 0.99"/>
    <path d="M 42.049903 117.518047 
L 42.049903 132.161953 
" clip-path="url(#pad988763e9)" style="fill: #020202"/>
    <path d="M 43.504849 117.051057 
L 51.974417 128.885665 
" clip-path="url(#pad988763e9)" style="fill: #020202"/>
    <path d="M 29.600988 114.550858 
C 38.629677 86.46574 11.735184 90.786938 29.107319 114.630177 
C 11.735184 90.786938 38.629677 86.46574 29.600988 114.550858 
" clip-path="url(#pad988763e9)" style="fill: #020202"/>
    <path d="M 28.948011 115.174676 
L 19.682176 118.231104 
" clip-path="url(#pad988763e9)" style="fill: #020202"/>
    <path d="M 28.998827 115.283015 
L 15.729386 123.575032 
" clip-path="url(#pad988763e9)" style="fill: #020202"/>
    <path d="M 29.131856 115.424649 
L 19.498331 128.885665 
" clip-path="url(#pad988763e9)" style="fill: #020202"/>
    <path d="M 29.422846 115.518047 
L 29.422846 130.161953 
" clip-path="url(#pad988763e9)" style="fill: #020202"/>
    <path d="M 29.713835 115.424649 
L 41.758913 132.255351 
" clip-path="url(#pad988763e9)" style="fill: #020202"/>
    <path d="M 29.846865 115.283015 
L 51.841387 129.027299 
" clip-path="url(#pad988763e9)" style="fill: #020202"/>
    <path d="M 19.152189 117.890784 
C 14.342219 88.784852 -7.601539 104.923563 18.749395 118.187022 
C -7.601539 104.923563 14.342219 88.784852 19.152189 117.890784 
" clip-path="url(#pad988763e9)" style="fill: #020202"/>
    <path d="M 18.916353 118.794335 
L 15.596356 123.433398 
" clip-path="url(#pad988763e9)" style="fill: #020202"/>
    <path d="M 19.207342 118.887733 
L 19.207342 128.792267 
" clip-path="url(#pad988763e9)" style="fill: #020202"/>
    <path d="M 19.498331 118.794335 
L 27.967899 130.628943 
" clip-path="url(#pad988763e9)" style="fill: #020202"/>
    <path d="M 19.631361 118.652701 
L 41.625884 132.396985 
" clip-path="url(#pad988763e9)" style="fill: #020202"/>
    <path d="M 19.682176 118.544362 
L 51.790572 129.135638 
" clip-path="url(#pad988763e9)" style="fill: #020202"/>
    <path d="M 14.872354 123.59 
C -11.424829 110.220285 -11.424829 137.459715 14.872354 124.09 
C -11.424829 137.459715 -11.424829 110.220285 14.872354 123.59 
" clip-path="url(#pad988763e9)" style="fill: #020202"/>
    <path d="M 15.596356 124.246602 
L 18.916353 128.885665 
" clip-path="url(#pad988763e9)" style="fill: #020202"/>
    <path d="M 15.729386 124.104968 
L 27.302751 131.337115 
" clip-path="url(#pad988763e9)" style="fill: #020202; stroke: #020202; stroke-width: 0.99"/>
    <path d="M 15.780201 123.996629 
L 41.575069 132.505324 
" clip-path="url(#pad988763e9)" style="fill: #020202"/>
    <path d="M 15.800014 123.912969 
L 51.770759 129.219298 
" clip-path="url(#pad988763e9)" style="fill: #020202"/>
    <path d="M 18.749395 129.492978 
C -7.601539 142.756437 14.342219 158.895148 19.152189 129.789216 
C 14.342219 158.895148 -7.601539 142.756437 18.749395 129.492978 
" clip-path="url(#pad988763e9)" style="fill: #020202"/>
    <path d="M 19.682176 129.448896 
L 27.048675 131.878809 
" clip-path="url(#pad988763e9)" style="fill: #020202; stroke: #020202; stroke-width: 0.99"/>
    <path d="M 19.701989 129.365236 
L 41.555256 132.588984 
" clip-path="url(#pad988763e9)" style="fill: #020202; stroke: #020202; stroke-width: 0.99"/>
    <path d="M 19.707342 129.292267 
L 51.765406 129.292267 
" clip-path="url(#pad988763e9)" style="fill: #020202"/>
    <path d="M 27.845214 134.601303 
C 11.735184 156.893062 38.629677 161.21426 30.313556 134.997897 
C 38.629677 161.21426 11.735184 156.893062 27.845214 134.601303 
" clip-path="url(#pad988763e9)" style="fill: #020202"/>
    <path d="M 31.922846 132.661953 
L 41.549903 132.661953 
" clip-path="url(#pad988763e9)" style="fill: #020202"/>
    <path d="M 31.89608 132.297107 
L 51.770759 129.365236 
" clip-path="url(#pad988763e9)" style="fill: #020202"/>
    <path d="M 41.87176 133.129142 
C 32.843071 161.21426 59.737564 156.893062 42.365429 133.049823 
C 59.737564 156.893062 32.843071 161.21426 41.87176 133.129142 
" clip-path="url(#pad988763e9)" style="fill: #020202"/>
    <path d="M 42.524737 132.505324 
L 51.790572 129.448896 
" clip-path="url(#pad988763e9)" style="fill: #020202"/>
    <path d="M 52.320559 129.789216 
C 57.130529 158.895148 79.074288 142.756437 52.723353 129.492978 
C 79.074288 142.756437 57.130529 158.895148 52.320559 129.789216 
" clip-path="url(#pad988763e9)" style="fill: #020202"/>
   </g>
   <g id="VertexCollection_4">
    <path d="M 56.167382 126.34 
C 56.830389 126.34 57.466331 126.076584 57.935148 125.607767 
C 58.403966 125.13895 58.667382 124.503008 58.667382 123.84 
C 58.667382 123.176992 58.403966 122.54105 57.935148 122.072233 
C 57.466331 121.603416 56.830389 121.34 56.167382 121.34 
C 55.504374 121.34 54.868432 121.603416 54.399615 122.072233 
C 53.930797 122.54105 53.667382 123.176992 53.667382 123.84 
C 53.667382 124.503008 53.930797 125.13895 54.399615 125.607767 
C 54.868432 126.076584 55.504374 126.34 56.167382 126.34 
z
" clip-path="url(#pad988763e9)" style="fill: #bebebe"/>
    <path d="M 52.265406 118.887733 
C 52.398008 118.887733 52.525196 118.83505 52.61896 118.741286 
C 52.712723 118.647523 52.765406 118.520335 52.765406 118.387733 
C 52.765406 118.255132 52.712723 118.127943 52.61896 118.03418 
C 52.525196 117.940416 52.398008 117.887733 52.265406 117.887733 
C 52.132805 117.887733 52.005616 117.940416 51.911853 118.03418 
C 51.818089 118.127943 51.765406 118.255132 51.765406 118.387733 
C 51.765406 118.520335 51.818089 118.647523 51.911853 118.741286 
C 52.005616 118.83505 52.132805 118.887733 52.265406 118.887733 
z
" clip-path="url(#pad988763e9)" style="fill: #bebebe"/>
    <path d="M 42.049903 117.518047 
C 42.71291 117.518047 43.348852 117.254631 43.81767 116.785814 
C 44.286487 116.316996 44.549903 115.681055 44.549903 115.018047 
C 44.549903 114.355039 44.286487 113.719097 43.81767 113.25028 
C 43.348852 112.781463 42.71291 112.518047 42.049903 112.518047 
C 41.386895 112.518047 40.750953 112.781463 40.282136 113.25028 
C 39.813318 113.719097 39.549903 114.355039 39.549903 115.018047 
C 39.549903 115.681055 39.813318 116.316996 40.282136 116.785814 
C 40.750953 117.254631 41.386895 117.518047 42.049903 117.518047 
z
" clip-path="url(#pad988763e9)" style="fill: #bebebe"/>
    <path d="M 29.422846 115.518047 
C 29.555447 115.518047 29.682636 115.465364 29.776399 115.3716 
C 29.870162 115.277837 29.922846 115.150648 29.922846 115.018047 
C 29.922846 114.885445 29.870162 114.758257 29.776399 114.664493 
C 29.682636 114.57073 29.555447 114.518047 29.422846 114.518047 
C 29.290244 114.518047 29.163056 114.57073 29.069292 114.664493 
C 28.975529 114.758257 28.922846 114.885445 28.922846 115.018047 
C 28.922846 115.150648 28.975529 115.277837 29.069292 115.3716 
C 29.163056 115.465364 29.290244 115.518047 29.422846 115.518047 
z
" clip-path="url(#pad988763e9)" style="fill: #bebebe"/>
    <path d="M 19.207342 118.887733 
C 19.339943 118.887733 19.467132 118.83505 19.560895 118.741286 
C 19.654659 118.647523 19.707342 118.520335 19.707342 118.387733 
C 19.707342 118.255132 19.654659 118.127943 19.560895 118.03418 
C 19.467132 117.940416 19.339943 117.887733 19.207342 117.887733 
C 19.07474 117.887733 18.947552 117.940416 18.853788 118.03418 
C 18.760025 118.127943 18.707342 118.255132 18.707342 118.387733 
C 18.707342 118.520335 18.760025 118.647523 18.853788 118.741286 
C 18.947552 118.83505 19.07474 118.887733 19.207342 118.887733 
z
" clip-path="url(#pad988763e9)" style="fill: #bebebe"/>
    <path d="M 15.305367 124.34 
C 15.437968 124.34 15.565157 124.287317 15.65892 124.193553 
C 15.752684 124.09979 15.805367 123.972602 15.805367 123.84 
C 15.805367 123.707398 15.752684 123.58021 15.65892 123.486447 
C 15.565157 123.392683 15.437968 123.34 15.305367 123.34 
C 15.172765 123.34 15.045577 123.392683 14.951813 123.486447 
C 14.85805 123.58021 14.805367 123.707398 14.805367 123.84 
C 14.805367 123.972602 14.85805 124.09979 14.951813 124.193553 
C 15.045577 124.287317 15.172765 124.34 15.305367 124.34 
z
" clip-path="url(#pad988763e9)" style="fill: #bebebe"/>
    <path d="M 19.207342 129.792267 
C 19.339943 129.792267 19.467132 129.739584 19.560895 129.64582 
C 19.654659 129.552057 19.707342 129.424868 19.707342 129.292267 
C 19.707342 129.159665 19.654659 129.032477 19.560895 128.938714 
C 19.467132 128.84495 19.339943 128.792267 19.207342 128.792267 
C 19.07474 128.792267 18.947552 128.84495 18.853788 128.938714 
C 18.760025 129.032477 18.707342 129.159665 18.707342 129.292267 
C 18.707342 129.424868 18.760025 129.552057 18.853788 129.64582 
C 18.947552 129.739584 19.07474 129.792267 19.207342 129.792267 
z
" clip-path="url(#pad988763e9)" style="fill: #bebebe"/>
    <path d="M 29.422846 135.161953 
C 30.085853 135.161953 30.721795 134.898537 31.190613 134.42972 
C 31.65943 133.960903 31.922846 133.324961 31.922846 132.661953 
C 31.922846 131.998945 31.65943 131.363004 31.190613 130.894186 
C 30.721795 130.425369 30.085853 130.161953 29.422846 130.161953 
C 28.759838 130.161953 28.123896 130.425369 27.655079 130.894186 
C 27.186261 131.363004 26.922846 131.998945 26.922846 132.661953 
C 26.922846 133.324961 27.186261 133.960903 27.655079 134.42972 
C 28.123896 134.898537 28.759838 135.161953 29.422846 135.161953 
z
" clip-path="url(#pad988763e9)" style="fill: #bebebe"/>
    <path d="M 42.049903 133.161953 
C 42.182504 133.161953 42.309693 133.10927 42.403456 133.015507 
C 42.497219 132.921743 42.549903 132.794555 42.549903 132.661953 
C 42.549903 132.529352 42.497219 132.402163 42.403456 132.3084 
C 42.309693 132.214636 42.182504 132.161953 42.049903 132.161953 
C 41.917301 132.161953 41.790113 132.214636 41.696349 132.3084 
C 41.602586 132.402163 41.549903 132.529352 41.549903 132.661953 
C 41.549903 132.794555 41.602586 132.921743 41.696349 133.015507 
C 41.790113 133.10927 41.917301 133.161953 42.049903 133.161953 
z
" clip-path="url(#pad988763e9)" style="fill: #bebebe"/>
    <path d="M 52.265406 129.792267 
C 52.398008 129.792267 52.525196 129.739584 52.61896 129.64582 
C 52.712723 129.552057 52.765406 129.424868 52.765406 129.292267 
C 52.765406 129.159665 52.712723 129.032477 52.61896 128.938714 
C 52.525196 128.84495 52.398008 128.792267 52.265406 128.792267 
C 52.132805 128.792267 52.005616 128.84495 51.911853 128.938714 
C 51.818089 129.032477 51.765406 129.159665 51.765406 129.292267 
C 51.765406 129.424868 51.818089 129.552057 51.911853 129.64582 
C 52.005616 129.739584 52.132805 129.792267 52.265406 129.792267 
z
" clip-path="url(#pad988763e9)" style="fill: #bebebe"/>
   </g>
   <g id="matplotlib.axis_7"/>
   <g id="matplotlib.axis_8"/>
  </g>
  <g id="axes_5">
   <g id="patch_6">
    <path d="M 10.8 169.2 
L 61.2 169.2 
L 61.2 146.16 
L 10.8 146.16 
z
" style="fill: #ffffff"/>
   </g>
   <g id="EdgeCollection_5">
    <path d="M 58.332445 159.217936 
C 82.897577 171.587651 82.897577 144.348221 58.332445 156.717936 
C 82.897577 144.348221 82.897577 171.587651 58.332445 159.217936 
" clip-path="url(#p211a6433f8)" style="fill: #020202"/>
    <path d="M 54.741104 155.914711 
L 52.550662 152.761419 
" clip-path="url(#p211a6433f8)" style="fill: #020202"/>
    <path d="M 54.065332 156.614648 
L 44.151952 150.232466 
" clip-path="url(#p211a6433f8)" style="fill: #020202; stroke: #020202; stroke-width: 0.99"/>
    <path d="M 53.800331 157.163527 
L 29.896256 149.04006 
" clip-path="url(#p211a6433f8)" style="fill: #020202"/>
    <path d="M 53.695763 157.592301 
L 19.701666 152.425901 
" clip-path="url(#p211a6433f8)" style="fill: #020202"/>
    <path d="M 53.667382 157.967936 
L 15.805367 157.967936 
" clip-path="url(#p211a6433f8)" style="fill: #020202; stroke: #020202; stroke-width: 0.99"/>
    <path d="M 53.695763 158.343571 
L 19.701666 163.50997 
" clip-path="url(#p211a6433f8)" style="fill: #020202"/>
    <path d="M 53.800331 158.772345 
L 29.896256 166.895812 
" clip-path="url(#p211a6433f8)" style="fill: #020202; stroke: #020202; stroke-width: 0.99"/>
    <path d="M 54.065332 159.321224 
L 42.470312 166.786036 
" clip-path="url(#p211a6433f8)" style="fill: #020202"/>
    <path d="M 54.741104 160.02116 
L 52.550662 163.174452 
" clip-path="url(#p211a6433f8)" style="fill: #020202"/>
    <path d="M 52.725631 152.155344 
C 79.227361 139.195814 57.470659 122.805803 52.326271 151.854493 
C 57.470659 122.805803 79.227361 139.195814 52.725631 152.155344 
" clip-path="url(#p211a6433f8)" style="fill: #020202"/>
    <path d="M 51.791996 152.189893 
L 44.416953 149.683587 
" clip-path="url(#p211a6433f8)" style="fill: #020202; stroke: #020202; stroke-width: 0.99"/>
    <path d="M 51.771083 152.275648 
L 29.917169 148.954305 
" clip-path="url(#p211a6433f8)" style="fill: #020202"/>
    <path d="M 51.765406 152.350775 
L 19.707342 152.350775 
" clip-path="url(#p211a6433f8)" style="fill: #020202"/>
    <path d="M 51.771083 152.425901 
L 15.79969 157.892809 
" clip-path="url(#p211a6433f8)" style="fill: #020202; stroke: #020202; stroke-width: 0.99"/>
    <path d="M 51.791996 152.511656 
L 19.680752 163.424215 
" clip-path="url(#p211a6433f8)" style="fill: #020202"/>
    <path d="M 51.844996 152.621432 
L 29.843255 166.786036 
" clip-path="url(#p211a6433f8)" style="fill: #020202"/>
    <path d="M 51.980151 152.761419 
L 42.335158 166.646048 
" clip-path="url(#p211a6433f8)" style="fill: #020202"/>
    <path d="M 52.265406 152.850775 
L 52.265406 163.085097 
" clip-path="url(#p211a6433f8)" style="fill: #020202"/>
    <path d="M 43.636217 146.946923 
C 59.846065 124.727644 32.971223 120.285864 41.169678 146.539262 
C 32.971223 120.285864 59.846065 124.727644 43.636217 146.946923 
" clip-path="url(#p211a6433f8)" style="fill: #020202"/>
    <path d="M 39.549903 148.879178 
L 29.922846 148.879178 
" clip-path="url(#p211a6433f8)" style="fill: #020202"/>
    <path d="M 39.578284 149.254813 
L 19.701666 152.275648 
" clip-path="url(#p211a6433f8)" style="fill: #020202"/>
    <path d="M 39.682853 149.683587 
L 15.778777 157.807054 
" clip-path="url(#p211a6433f8)" style="fill: #020202"/>
    <path d="M 39.947853 150.232466 
L 19.627752 163.314439 
" clip-path="url(#p211a6433f8)" style="fill: #020202"/>
    <path d="M 40.623625 150.932403 
L 29.708101 166.646048 
" clip-path="url(#p211a6433f8)" style="fill: #020202; stroke: #020202; stroke-width: 0.99"/>
    <path d="M 42.049903 151.379178 
L 42.049903 166.556693 
" clip-path="url(#p211a6433f8)" style="fill: #020202"/>
    <path d="M 43.47618 150.932403 
L 51.980151 163.174452 
" clip-path="url(#p211a6433f8)" style="fill: #020202"/>
    <path d="M 29.598891 148.411195 
C 38.501525 120.285864 11.626683 124.727644 29.105583 148.492727 
C 11.626683 124.727644 38.501525 120.285864 29.598891 148.411195 
" clip-path="url(#p211a6433f8)" style="fill: #020202"/>
    <path d="M 28.949436 149.04006 
L 19.680752 152.189893 
" clip-path="url(#p211a6433f8)" style="fill: #020202"/>
    <path d="M 29.002436 149.149836 
L 15.725777 157.697278 
" clip-path="url(#p211a6433f8)" style="fill: #020202"/>
    <path d="M 29.13759 149.289823 
L 19.492597 163.174452 
" clip-path="url(#p211a6433f8)" style="fill: #020202"/>
    <path d="M 29.422846 149.379178 
L 29.422846 166.556693 
" clip-path="url(#p211a6433f8)" style="fill: #020202"/>
    <path d="M 29.708101 149.289823 
L 41.764647 166.646048 
" clip-path="url(#p211a6433f8)" style="fill: #020202; stroke: #020202; stroke-width: 0.99"/>
    <path d="M 29.843255 149.149836 
L 51.844996 163.314439 
" clip-path="url(#p211a6433f8)" style="fill: #020202"/>
    <path d="M 19.146478 151.854493 
C 14.002089 122.805803 -7.754613 139.195814 18.747117 152.155344 
C -7.754613 139.195814 14.002089 122.805803 19.146478 151.854493 
" clip-path="url(#p211a6433f8)" style="fill: #020202"/>
    <path d="M 18.922086 152.761419 
L 15.590622 157.557291 
" clip-path="url(#p211a6433f8)" style="fill: #020202"/>
    <path d="M 19.207342 152.850775 
L 19.207342 163.085097 
" clip-path="url(#p211a6433f8)" style="fill: #020202"/>
    <path d="M 19.492597 152.761419 
L 29.13759 166.646048 
" clip-path="url(#p211a6433f8)" style="fill: #020202"/>
    <path d="M 19.627752 152.621432 
L 41.629493 166.786036 
" clip-path="url(#p211a6433f8)" style="fill: #020202"/>
    <path d="M 19.680752 152.511656 
L 51.791996 163.424215 
" clip-path="url(#p211a6433f8)" style="fill: #020202"/>
    <path d="M 14.872354 157.717936 
C -11.424829 144.348221 -11.424829 171.587651 14.872354 158.217936 
C -11.424829 171.587651 -11.424829 144.348221 14.872354 157.717936 
" clip-path="url(#p211a6433f8)" style="fill: #020202"/>
    <path d="M 15.590622 158.378581 
L 18.922086 163.174452 
" clip-path="url(#p211a6433f8)" style="fill: #020202"/>
    <path d="M 15.725777 158.238593 
L 29.002436 166.786036 
" clip-path="url(#p211a6433f8)" style="fill: #020202"/>
    <path d="M 15.778777 158.128817 
L 41.576493 166.895812 
" clip-path="url(#p211a6433f8)" style="fill: #020202"/>
    <path d="M 15.79969 158.043063 
L 51.771083 163.50997 
" clip-path="url(#p211a6433f8)" style="fill: #020202"/>
    <path d="M 18.747117 163.780528 
C -7.754613 176.740057 14.002089 193.130068 19.146478 164.081379 
C 14.002089 193.130068 -7.754613 176.740057 18.747117 163.780528 
" clip-path="url(#p211a6433f8)" style="fill: #020202"/>
    <path d="M 19.680752 163.745979 
L 28.949436 166.895812 
" clip-path="url(#p211a6433f8)" style="fill: #020202"/>
    <path d="M 19.701666 163.660224 
L 41.555579 166.981566 
" clip-path="url(#p211a6433f8)" style="fill: #020202; stroke: #020202; stroke-width: 0.99"/>
    <path d="M 19.707342 163.585097 
L 51.765406 163.585097 
" clip-path="url(#p211a6433f8)" style="fill: #020202; stroke: #020202; stroke-width: 0.99"/>
    <path d="M 29.105583 167.443144 
C 11.626683 191.208227 38.501525 195.650007 29.598891 167.524676 
C 38.501525 195.650007 11.626683 191.208227 29.105583 167.443144 
" clip-path="url(#p211a6433f8)" style="fill: #020202"/>
    <path d="M 29.922846 167.056693 
L 41.549903 167.056693 
" clip-path="url(#p211a6433f8)" style="fill: #020202"/>
    <path d="M 29.917169 166.981566 
L 51.771083 163.660224 
" clip-path="url(#p211a6433f8)" style="fill: #020202"/>
    <path d="M 41.873858 167.524676 
C 32.971223 195.650007 59.846065 191.208227 42.367165 167.443144 
C 59.846065 191.208227 32.971223 195.650007 41.873858 167.524676 
" clip-path="url(#p211a6433f8)" style="fill: #020202"/>
    <path d="M 42.523313 166.895812 
L 51.791996 163.745979 
" clip-path="url(#p211a6433f8)" style="fill: #020202"/>
    <path d="M 52.326271 164.081379 
C 57.470659 193.130068 79.227361 176.740057 52.725631 163.780528 
C 79.227361 176.740057 57.470659 193.130068 52.326271 164.081379 
" clip-path="url(#p211a6433f8)" style="fill: #020202"/>
   </g>
   <g id="VertexCollection_5">
    <path d="M 56.167382 160.467936 
C 56.830389 160.467936 57.466331 160.20452 57.935148 159.735703 
C 58.403966 159.266885 58.667382 158.630943 58.667382 157.967936 
C 58.667382 157.304928 58.403966 156.668986 57.935148 156.200169 
C 57.466331 155.731351 56.830389 155.467936 56.167382 155.467936 
C 55.504374 155.467936 54.868432 155.731351 54.399615 156.200169 
C 53.930797 156.668986 53.667382 157.304928 53.667382 157.967936 
C 53.667382 158.630943 53.930797 159.266885 54.399615 159.735703 
C 54.868432 160.20452 55.504374 160.467936 56.167382 160.467936 
z
" clip-path="url(#p211a6433f8)" style="fill: #bebebe"/>
    <path d="M 52.265406 152.850775 
C 52.398008 152.850775 52.525196 152.798091 52.61896 152.704328 
C 52.712723 152.610564 52.765406 152.483376 52.765406 152.350775 
C 52.765406 152.218173 52.712723 152.090985 52.61896 151.997221 
C 52.525196 151.903458 52.398008 151.850775 52.265406 151.850775 
C 52.132805 151.850775 52.005616 151.903458 51.911853 151.997221 
C 51.818089 152.090985 51.765406 152.218173 51.765406 152.350775 
C 51.765406 152.483376 51.818089 152.610564 51.911853 152.704328 
C 52.005616 152.798091 52.132805 152.850775 52.265406 152.850775 
z
" clip-path="url(#p211a6433f8)" style="fill: #bebebe"/>
    <path d="M 42.049903 151.379178 
C 42.71291 151.379178 43.348852 151.115762 43.81767 150.646945 
C 44.286487 150.178128 44.549903 149.542186 44.549903 148.879178 
C 44.549903 148.21617 44.286487 147.580228 43.81767 147.111411 
C 43.348852 146.642594 42.71291 146.379178 42.049903 146.379178 
C 41.386895 146.379178 40.750953 146.642594 40.282136 147.111411 
C 39.813318 147.580228 39.549903 148.21617 39.549903 148.879178 
C 39.549903 149.542186 39.813318 150.178128 40.282136 150.646945 
C 40.750953 151.115762 41.386895 151.379178 42.049903 151.379178 
z
" clip-path="url(#p211a6433f8)" style="fill: #bebebe"/>
    <path d="M 29.422846 149.379178 
C 29.555447 149.379178 29.682636 149.326495 29.776399 149.232731 
C 29.870162 149.138968 29.922846 149.01178 29.922846 148.879178 
C 29.922846 148.746576 29.870162 148.619388 29.776399 148.525625 
C 29.682636 148.431861 29.555447 148.379178 29.422846 148.379178 
C 29.290244 148.379178 29.163056 148.431861 29.069292 148.525625 
C 28.975529 148.619388 28.922846 148.746576 28.922846 148.879178 
C 28.922846 149.01178 28.975529 149.138968 29.069292 149.232731 
C 29.163056 149.326495 29.290244 149.379178 29.422846 149.379178 
z
" clip-path="url(#p211a6433f8)" style="fill: #bebebe"/>
    <path d="M 19.207342 152.850775 
C 19.339943 152.850775 19.467132 152.798091 19.560895 152.704328 
C 19.654659 152.610564 19.707342 152.483376 19.707342 152.350775 
C 19.707342 152.218173 19.654659 152.090985 19.560895 151.997221 
C 19.467132 151.903458 19.339943 151.850775 19.207342 151.850775 
C 19.07474 151.850775 18.947552 151.903458 18.853788 151.997221 
C 18.760025 152.090985 18.707342 152.218173 18.707342 152.350775 
C 18.707342 152.483376 18.760025 152.610564 18.853788 152.704328 
C 18.947552 152.798091 19.07474 152.850775 19.207342 152.850775 
z
" clip-path="url(#p211a6433f8)" style="fill: #bebebe"/>
    <path d="M 15.305367 158.467936 
C 15.437968 158.467936 15.565157 158.415253 15.65892 158.321489 
C 15.752684 158.227726 15.805367 158.100537 15.805367 157.967936 
C 15.805367 157.835334 15.752684 157.708146 15.65892 157.614382 
C 15.565157 157.520619 15.437968 157.467936 15.305367 157.467936 
C 15.172765 157.467936 15.045577 157.520619 14.951813 157.614382 
C 14.85805 157.708146 14.805367 157.835334 14.805367 157.967936 
C 14.805367 158.100537 14.85805 158.227726 14.951813 158.321489 
C 15.045577 158.415253 15.172765 158.467936 15.305367 158.467936 
z
" clip-path="url(#p211a6433f8)" style="fill: #bebebe"/>
    <path d="M 19.207342 164.085097 
C 19.339943 164.085097 19.467132 164.032414 19.560895 163.93865 
C 19.654659 163.844887 19.707342 163.717698 19.707342 163.585097 
C 19.707342 163.452495 19.654659 163.325307 19.560895 163.231543 
C 19.467132 163.13778 19.339943 163.085097 19.207342 163.085097 
C 19.07474 163.085097 18.947552 163.13778 18.853788 163.231543 
C 18.760025 163.325307 18.707342 163.452495 18.707342 163.585097 
C 18.707342 163.717698 18.760025 163.844887 18.853788 163.93865 
C 18.947552 164.032414 19.07474 164.085097 19.207342 164.085097 
z
" clip-path="url(#p211a6433f8)" style="fill: #bebebe"/>
    <path d="M 29.422846 167.556693 
C 29.555447 167.556693 29.682636 167.50401 29.776399 167.410247 
C 29.870162 167.316483 29.922846 167.189295 29.922846 167.056693 
C 29.922846 166.924092 29.870162 166.796903 29.776399 166.70314 
C 29.682636 166.609376 29.555447 166.556693 29.422846 166.556693 
C 29.290244 166.556693 29.163056 166.609376 29.069292 166.70314 
C 28.975529 166.796903 28.922846 166.924092 28.922846 167.056693 
C 28.922846 167.189295 28.975529 167.316483 29.069292 167.410247 
C 29.163056 167.50401 29.290244 167.556693 29.422846 167.556693 
z
" clip-path="url(#p211a6433f8)" style="fill: #bebebe"/>
    <path d="M 42.049903 167.556693 
C 42.182504 167.556693 42.309693 167.50401 42.403456 167.410247 
C 42.497219 167.316483 42.549903 167.189295 42.549903 167.056693 
C 42.549903 166.924092 42.497219 166.796903 42.403456 166.70314 
C 42.309693 166.609376 42.182504 166.556693 42.049903 166.556693 
C 41.917301 166.556693 41.790113 166.609376 41.696349 166.70314 
C 41.602586 166.796903 41.549903 166.924092 41.549903 167.056693 
C 41.549903 167.189295 41.602586 167.316483 41.696349 167.410247 
C 41.790113 167.50401 41.917301 167.556693 42.049903 167.556693 
z
" clip-path="url(#p211a6433f8)" style="fill: #bebebe"/>
    <path d="M 52.265406 164.085097 
C 52.398008 164.085097 52.525196 164.032414 52.61896 163.93865 
C 52.712723 163.844887 52.765406 163.717698 52.765406 163.585097 
C 52.765406 163.452495 52.712723 163.325307 52.61896 163.231543 
C 52.525196 163.13778 52.398008 163.085097 52.265406 163.085097 
C 52.132805 163.085097 52.005616 163.13778 51.911853 163.231543 
C 51.818089 163.325307 51.765406 163.452495 51.765406 163.585097 
C 51.765406 163.717698 51.818089 163.844887 51.911853 163.93865 
C 52.005616 164.032414 52.132805 164.085097 52.265406 164.085097 
z
" clip-path="url(#p211a6433f8)" style="fill: #bebebe"/>
   </g>
   <g id="matplotlib.axis_9"/>
   <g id="matplotlib.axis_10"/>
  </g>
 </g>
 <defs>
  <clipPath id="p3356d90c45">
   <rect x="10.8" y="10.8" width="50.4" height="23.04"/>
  </clipPath>
  <clipPath id="paa5bd97fb3">
   <rect x="10.8" y="44.64" width="50.4" height="23.04"/>
  </clipPath>
  <clipPath id="pfa62ce92a5">
   <rect x="10.8" y="78.48" width="50.4" height="23.04"/>
  </clipPath>
  <clipPath id="pad988763e9">
   <rect x="10.8" y="112.32" width="50.4" height="23.04"/>
  </clipPath>
  <clipPath id="p211a6433f8">
   <rect x="10.8" y="146.16" width="50.4" height="23.04"/>
  </clipPath>
 </defs>
</svg>
