<?xml version="1.0" encoding="utf-8" standalone="no"?>
<!DOCTYPE svg PUBLIC "-//W3C//DTD SVG 1.1//EN"
  "http://www.w3.org/Graphics/SVG/1.1/DTD/svg11.dtd">
<svg xmlns:xlink="http://www.w3.org/1999/xlink" width="72pt" height="180pt" viewBox="0 0 72 180" xmlns="http://www.w3.org/2000/svg" version="1.1">
 <metadata>
  <rdf:RDF xmlns:dc="http://purl.org/dc/elements/1.1/" xmlns:cc="http://creativecommons.org/ns#" xmlns:rdf="http://www.w3.org/1999/02/22-rdf-syntax-ns#">
   <cc:Work>
    <dc:type rdf:resource="http://purl.org/dc/dcmitype/StillImage"/>
    <dc:date>2025-06-06T16:53:36.611567</dc:date>
    <dc:format>image/svg+xml</dc:format>
    <dc:creator>
     <cc:Agent>
      <dc:title>Matplotlib v3.9.2, https://matplotlib.org/</dc:title>
     </cc:Agent>
    </dc:creator>
   </cc:Work>
  </rdf:RDF>
 </metadata>
 <defs>
  <style type="text/css">*{stroke-linejoin: round; stroke-linecap: butt}</style>
 </defs>
 <g id="figure_1">
  <g id="patch_1">
   <path d="M 0 180 
L 72 180 
L 72 0 
L 0 0 
z
" style="fill: #ffffff"/>
  </g>
  <g id="axes_1">
   <g id="patch_2">
    <path d="M 10.8 33.84 
L 61.2 33.84 
L 61.2 10.8 
L 10.8 10.8 
z
" style="fill: #ffffff"/>
   </g>
   <g id="EdgeCollection_1">
    <path d="M 58.332445 23.57 
C 82.897577 35.939715 82.897577 8.700285 58.332445 21.07 
C 82.897577 8.700285 82.897577 35.939715 58.332445 23.57 
" clip-path="url(#p33bbcf1f2f)" style="fill: #020202"/>
    <path d="M 54.712435 20.28699 
L 52.556396 17.274335 
" clip-path="url(#p33bbcf1f2f)" style="fill: #020202"/>
    <path d="M 54.047286 20.995162 
L 44.169998 14.822885 
" clip-path="url(#p33bbcf1f2f)" style="fill: #020202; stroke: #020202; stroke-width: 0.99"/>
    <path d="M 53.793211 21.536856 
L 31.797016 14.281191 
" clip-path="url(#p33bbcf1f2f)" style="fill: #020202"/>
    <path d="M 53.694147 21.955154 
L 21.680576 17.232579 
" clip-path="url(#p33bbcf1f2f)" style="fill: #020202"/>
    <path d="M 53.667382 22.32 
L 15.805367 22.32 
" clip-path="url(#p33bbcf1f2f)" style="fill: #020202"/>
    <path d="M 53.694147 22.684846 
L 19.701989 27.699298 
" clip-path="url(#p33bbcf1f2f)" style="fill: #020202"/>
    <path d="M 53.793211 23.103144 
L 29.89768 30.985324 
" clip-path="url(#p33bbcf1f2f)" style="fill: #020202; stroke: #020202; stroke-width: 0.99"/>
    <path d="M 54.047286 23.644838 
L 44.169998 29.817115 
" clip-path="url(#p33bbcf1f2f)" style="fill: #020202"/>
    <path d="M 54.712435 24.35301 
L 53.720353 25.739257 
" clip-path="url(#p33bbcf1f2f)" style="fill: #020202; stroke: #020202; stroke-width: 0.99"/>
    <path d="M 52.723353 16.667022 
C 79.074288 3.403563 57.130529 -12.735148 52.320559 16.370784 
C 57.130529 -12.735148 79.074288 3.403563 52.723353 16.667022 
" clip-path="url(#p33bbcf1f2f)" style="fill: #020202"/>
    <path d="M 51.790572 16.711104 
L 44.424073 14.281191 
" clip-path="url(#p33bbcf1f2f)" style="fill: #020202"/>
    <path d="M 51.770759 16.794764 
L 31.89608 13.862893 
" clip-path="url(#p33bbcf1f2f)" style="fill: #020202"/>
    <path d="M 51.765406 16.867733 
L 21.707342 16.867733 
" clip-path="url(#p33bbcf1f2f)" style="fill: #020202"/>
    <path d="M 51.770759 16.940702 
L 15.800014 22.247031 
" clip-path="url(#p33bbcf1f2f)" style="fill: #020202; stroke: #020202; stroke-width: 0.99"/>
    <path d="M 51.790572 17.024362 
L 19.682176 27.615638 
" clip-path="url(#p33bbcf1f2f)" style="fill: #020202; stroke: #020202; stroke-width: 0.99"/>
    <path d="M 51.841387 17.132701 
L 29.846865 30.876985 
" clip-path="url(#p33bbcf1f2f)" style="fill: #020202"/>
    <path d="M 51.974417 17.274335 
L 43.504849 29.108943 
" clip-path="url(#p33bbcf1f2f)" style="fill: #020202"/>
    <path d="M 52.265406 17.367733 
L 52.265406 25.272267 
" clip-path="url(#p33bbcf1f2f)" style="fill: #020202"/>
    <path d="M 43.627534 11.558697 
C 59.737564 -10.733062 32.843071 -15.05426 41.159192 11.162103 
C 32.843071 -15.05426 59.737564 -10.733062 43.627534 11.558697 
" clip-path="url(#p33bbcf1f2f)" style="fill: #020202"/>
    <path d="M 39.549903 13.498047 
L 31.922846 13.498047 
" clip-path="url(#p33bbcf1f2f)" style="fill: #020202; stroke: #020202; stroke-width: 0.99"/>
    <path d="M 39.576668 13.862893 
L 21.680576 16.502887 
" clip-path="url(#p33bbcf1f2f)" style="fill: #020202; stroke: #020202; stroke-width: 0.99"/>
    <path d="M 39.675732 14.281191 
L 15.780201 22.163371 
" clip-path="url(#p33bbcf1f2f)" style="fill: #020202"/>
    <path d="M 39.929808 14.822885 
L 19.631361 27.507299 
" clip-path="url(#p33bbcf1f2f)" style="fill: #020202"/>
    <path d="M 40.594956 15.531057 
L 29.713835 30.735351 
" clip-path="url(#p33bbcf1f2f)" style="fill: #020202"/>
    <path d="M 42.049903 15.998047 
L 42.049903 28.641953 
" clip-path="url(#p33bbcf1f2f)" style="fill: #020202"/>
    <path d="M 43.504849 15.531057 
L 50.81046 25.739257 
" clip-path="url(#p33bbcf1f2f)" style="fill: #020202"/>
    <path d="M 30.313556 11.162103 
C 38.629677 -15.05426 11.735184 -10.733062 27.845214 11.558697 
C 11.735184 -10.733062 38.629677 -15.05426 30.313556 11.162103 
" clip-path="url(#p33bbcf1f2f)" style="fill: #020202"/>
    <path d="M 27.048675 14.281191 
L 21.581512 16.084589 
" clip-path="url(#p33bbcf1f2f)" style="fill: #020202; stroke: #020202; stroke-width: 0.99"/>
    <path d="M 27.302751 14.822885 
L 15.729386 22.055032 
" clip-path="url(#p33bbcf1f2f)" style="fill: #020202"/>
    <path d="M 27.967899 15.531057 
L 19.498331 27.365665 
" clip-path="url(#p33bbcf1f2f)" style="fill: #020202"/>
    <path d="M 29.422846 15.998047 
L 29.422846 30.641953 
" clip-path="url(#p33bbcf1f2f)" style="fill: #020202"/>
    <path d="M 30.877792 15.531057 
L 40.594956 29.108943 
" clip-path="url(#p33bbcf1f2f)" style="fill: #020202; stroke: #020202; stroke-width: 0.99"/>
    <path d="M 31.542941 14.822885 
L 50.145311 26.447428 
" clip-path="url(#p33bbcf1f2f)" style="fill: #020202"/>
    <path d="M 18.931579 14.382989 
C 14.342219 -12.735148 -7.601539 3.403563 16.917608 15.864179 
C -7.601539 3.403563 14.342219 -12.735148 18.931579 14.382989 
" clip-path="url(#p33bbcf1f2f)" style="fill: #020202"/>
    <path d="M 17.752396 18.900743 
L 15.596356 21.913398 
" clip-path="url(#p33bbcf1f2f)" style="fill: #020202"/>
    <path d="M 19.207342 19.367733 
L 19.207342 27.272267 
" clip-path="url(#p33bbcf1f2f)" style="fill: #020202"/>
    <path d="M 20.662288 18.900743 
L 29.131856 30.735351 
" clip-path="url(#p33bbcf1f2f)" style="fill: #020202"/>
    <path d="M 21.327437 18.192572 
L 39.929808 29.817115 
" clip-path="url(#p33bbcf1f2f)" style="fill: #020202"/>
    <path d="M 21.581512 17.650877 
L 49.891236 26.989123 
" clip-path="url(#p33bbcf1f2f)" style="fill: #020202; stroke: #020202; stroke-width: 0.99"/>
    <path d="M 14.872354 22.07 
C -11.424829 8.700285 -11.424829 35.939715 14.872354 22.57 
C -11.424829 35.939715 -11.424829 8.700285 14.872354 22.07 
" clip-path="url(#p33bbcf1f2f)" style="fill: #020202"/>
    <path d="M 15.596356 22.726602 
L 18.916353 27.365665 
" clip-path="url(#p33bbcf1f2f)" style="fill: #020202"/>
    <path d="M 15.729386 22.584968 
L 28.998827 30.876985 
" clip-path="url(#p33bbcf1f2f)" style="fill: #020202"/>
    <path d="M 15.780201 22.476629 
L 39.675732 30.358809 
" clip-path="url(#p33bbcf1f2f)" style="fill: #020202"/>
    <path d="M 15.800014 22.392969 
L 49.792172 27.407421 
" clip-path="url(#p33bbcf1f2f)" style="fill: #020202"/>
    <path d="M 18.749395 27.972978 
C -7.601539 41.236437 14.342219 57.375148 19.152189 28.269216 
C 14.342219 57.375148 -7.601539 41.236437 18.749395 27.972978 
" clip-path="url(#p33bbcf1f2f)" style="fill: #020202"/>
    <path d="M 19.682176 27.928896 
L 28.948011 30.985324 
" clip-path="url(#p33bbcf1f2f)" style="fill: #020202"/>
    <path d="M 19.701989 27.845236 
L 39.576668 30.777107 
" clip-path="url(#p33bbcf1f2f)" style="fill: #020202; stroke: #020202; stroke-width: 0.99"/>
    <path d="M 19.707342 27.772267 
L 49.765406 27.772267 
" clip-path="url(#p33bbcf1f2f)" style="fill: #020202"/>
    <path d="M 29.107319 31.529823 
C 11.735184 55.373062 38.629677 59.69426 29.600988 31.609142 
C 38.629677 59.69426 11.735184 55.373062 29.107319 31.529823 
" clip-path="url(#p33bbcf1f2f)" style="fill: #020202"/>
    <path d="M 29.922846 31.141953 
L 39.549903 31.141953 
" clip-path="url(#p33bbcf1f2f)" style="fill: #020202"/>
    <path d="M 29.917492 31.068984 
L 49.792172 28.137113 
" clip-path="url(#p33bbcf1f2f)" style="fill: #020202"/>
    <path d="M 41.159192 33.477897 
C 32.843071 59.69426 59.737564 55.373062 43.627534 33.081303 
C 59.737564 55.373062 32.843071 59.69426 41.159192 33.477897 
" clip-path="url(#p33bbcf1f2f)" style="fill: #020202"/>
    <path d="M 44.424073 30.358809 
L 49.891236 28.555411 
" clip-path="url(#p33bbcf1f2f)" style="fill: #020202; stroke: #020202; stroke-width: 0.99"/>
    <path d="M 52.54117 30.257011 
C 57.130529 57.375148 79.074288 41.236437 54.55514 28.775821 
C 79.074288 41.236437 57.130529 57.375148 52.54117 30.257011 
" clip-path="url(#p33bbcf1f2f)" style="fill: #020202"/>
   </g>
   <g id="VertexCollection_1">
    <path d="M 56.167382 24.82 
C 56.830389 24.82 57.466331 24.556584 57.935148 24.087767 
C 58.403966 23.61895 58.667382 22.983008 58.667382 22.32 
C 58.667382 21.656992 58.403966 21.02105 57.935148 20.552233 
C 57.466331 20.083416 56.830389 19.82 56.167382 19.82 
C 55.504374 19.82 54.868432 20.083416 54.399615 20.552233 
C 53.930797 21.02105 53.667382 21.656992 53.667382 22.32 
C 53.667382 22.983008 53.930797 23.61895 54.399615 24.087767 
C 54.868432 24.556584 55.504374 24.82 56.167382 24.82 
z
" clip-path="url(#p33bbcf1f2f)" style="fill: #bebebe"/>
    <path d="M 52.265406 17.367733 
C 52.398008 17.367733 52.525196 17.31505 52.61896 17.221286 
C 52.712723 17.127523 52.765406 17.000335 52.765406 16.867733 
C 52.765406 16.735132 52.712723 16.607943 52.61896 16.51418 
C 52.525196 16.420416 52.398008 16.367733 52.265406 16.367733 
C 52.132805 16.367733 52.005616 16.420416 51.911853 16.51418 
C 51.818089 16.607943 51.765406 16.735132 51.765406 16.867733 
C 51.765406 17.000335 51.818089 17.127523 51.911853 17.221286 
C 52.005616 17.31505 52.132805 17.367733 52.265406 17.367733 
z
" clip-path="url(#p33bbcf1f2f)" style="fill: #bebebe"/>
    <path d="M 42.049903 15.998047 
C 42.71291 15.998047 43.348852 15.734631 43.81767 15.265814 
C 44.286487 14.796996 44.549903 14.161055 44.549903 13.498047 
C 44.549903 12.835039 44.286487 12.199097 43.81767 11.73028 
C 43.348852 11.261463 42.71291 10.998047 42.049903 10.998047 
C 41.386895 10.998047 40.750953 11.261463 40.282136 11.73028 
C 39.813318 12.199097 39.549903 12.835039 39.549903 13.498047 
C 39.549903 14.161055 39.813318 14.796996 40.282136 15.265814 
C 40.750953 15.734631 41.386895 15.998047 42.049903 15.998047 
z
" clip-path="url(#p33bbcf1f2f)" style="fill: #bebebe"/>
    <path d="M 29.422846 15.998047 
C 30.085853 15.998047 30.721795 15.734631 31.190613 15.265814 
C 31.65943 14.796996 31.922846 14.161055 31.922846 13.498047 
C 31.922846 12.835039 31.65943 12.199097 31.190613 11.73028 
C 30.721795 11.261463 30.085853 10.998047 29.422846 10.998047 
C 28.759838 10.998047 28.123896 11.261463 27.655079 11.73028 
C 27.186261 12.199097 26.922846 12.835039 26.922846 13.498047 
C 26.922846 14.161055 27.186261 14.796996 27.655079 15.265814 
C 28.123896 15.734631 28.759838 15.998047 29.422846 15.998047 
z
" clip-path="url(#p33bbcf1f2f)" style="fill: #bebebe"/>
    <path d="M 19.207342 19.367733 
C 19.87035 19.367733 20.506292 19.104317 20.975109 18.6355 
C 21.443926 18.166683 21.707342 17.530741 21.707342 16.867733 
C 21.707342 16.204725 21.443926 15.568783 20.975109 15.099966 
C 20.506292 14.631149 19.87035 14.367733 19.207342 14.367733 
C 18.544334 14.367733 17.908392 14.631149 17.439575 15.099966 
C 16.970758 15.568783 16.707342 16.204725 16.707342 16.867733 
C 16.707342 17.530741 16.970758 18.166683 17.439575 18.6355 
C 17.908392 19.104317 18.544334 19.367733 19.207342 19.367733 
z
" clip-path="url(#p33bbcf1f2f)" style="fill: #bebebe"/>
    <path d="M 15.305367 22.82 
C 15.437968 22.82 15.565157 22.767317 15.65892 22.673553 
C 15.752684 22.57979 15.805367 22.452602 15.805367 22.32 
C 15.805367 22.187398 15.752684 22.06021 15.65892 21.966447 
C 15.565157 21.872683 15.437968 21.82 15.305367 21.82 
C 15.172765 21.82 15.045577 21.872683 14.951813 21.966447 
C 14.85805 22.06021 14.805367 22.187398 14.805367 22.32 
C 14.805367 22.452602 14.85805 22.57979 14.951813 22.673553 
C 15.045577 22.767317 15.172765 22.82 15.305367 22.82 
z
" clip-path="url(#p33bbcf1f2f)" style="fill: #bebebe"/>
    <path d="M 19.207342 28.272267 
C 19.339943 28.272267 19.467132 28.219584 19.560895 28.12582 
C 19.654659 28.032057 19.707342 27.904868 19.707342 27.772267 
C 19.707342 27.639665 19.654659 27.512477 19.560895 27.418714 
C 19.467132 27.32495 19.339943 27.272267 19.207342 27.272267 
C 19.07474 27.272267 18.947552 27.32495 18.853788 27.418714 
C 18.760025 27.512477 18.707342 27.639665 18.707342 27.772267 
C 18.707342 27.904868 18.760025 28.032057 18.853788 28.12582 
C 18.947552 28.219584 19.07474 28.272267 19.207342 28.272267 
z
" clip-path="url(#p33bbcf1f2f)" style="fill: #bebebe"/>
    <path d="M 29.422846 31.641953 
C 29.555447 31.641953 29.682636 31.58927 29.776399 31.495507 
C 29.870162 31.401743 29.922846 31.274555 29.922846 31.141953 
C 29.922846 31.009352 29.870162 30.882163 29.776399 30.7884 
C 29.682636 30.694636 29.555447 30.641953 29.422846 30.641953 
C 29.290244 30.641953 29.163056 30.694636 29.069292 30.7884 
C 28.975529 30.882163 28.922846 31.009352 28.922846 31.141953 
C 28.922846 31.274555 28.975529 31.401743 29.069292 31.495507 
C 29.163056 31.58927 29.290244 31.641953 29.422846 31.641953 
z
" clip-path="url(#p33bbcf1f2f)" style="fill: #bebebe"/>
    <path d="M 42.049903 33.641953 
C 42.71291 33.641953 43.348852 33.378537 43.81767 32.90972 
C 44.286487 32.440903 44.549903 31.804961 44.549903 31.141953 
C 44.549903 30.478945 44.286487 29.843004 43.81767 29.374186 
C 43.348852 28.905369 42.71291 28.641953 42.049903 28.641953 
C 41.386895 28.641953 40.750953 28.905369 40.282136 29.374186 
C 39.813318 29.843004 39.549903 30.478945 39.549903 31.141953 
C 39.549903 31.804961 39.813318 32.440903 40.282136 32.90972 
C 40.750953 33.378537 41.386895 33.641953 42.049903 33.641953 
z
" clip-path="url(#p33bbcf1f2f)" style="fill: #bebebe"/>
    <path d="M 52.265406 30.272267 
C 52.928414 30.272267 53.564356 30.008851 54.033173 29.540034 
C 54.501991 29.071217 54.765406 28.435275 54.765406 27.772267 
C 54.765406 27.109259 54.501991 26.473317 54.033173 26.0045 
C 53.564356 25.535683 52.928414 25.272267 52.265406 25.272267 
C 51.602399 25.272267 50.966457 25.535683 50.497639 26.0045 
C 50.028822 26.473317 49.765406 27.109259 49.765406 27.772267 
C 49.765406 28.435275 50.028822 29.071217 50.497639 29.540034 
C 50.966457 30.008851 51.602399 30.272267 52.265406 30.272267 
z
" clip-path="url(#p33bbcf1f2f)" style="fill: #bebebe"/>
   </g>
   <g id="matplotlib.axis_1"/>
   <g id="matplotlib.axis_2"/>
  </g>
  <g id="axes_2">
   <g id="patch_3">
    <path d="M 10.8 67.68 
L 61.2 67.68 
L 61.2 44.64 
L 10.8 44.64 
z
" style="fill: #ffffff"/>
   </g>
   <g id="EdgeCollection_2">
    <path d="M 57.125956 56.41 
C 83.423139 69.779715 83.423139 42.540285 57.125956 55.91 
C 83.423139 42.540285 83.423139 69.779715 57.125956 56.41 
" clip-path="url(#p5d58b35850)" style="fill: #020202"/>
    <path d="M 56.399503 55.755163 
L 54.208145 52.731917 
" clip-path="url(#p5d58b35850)" style="fill: #020202"/>
    <path d="M 56.267419 55.897457 
L 44.522095 48.65076 
" clip-path="url(#p5d58b35850)" style="fill: #020202"/>
    <path d="M 56.217522 56.005163 
L 30.08095 47.492884 
" clip-path="url(#p5d58b35850)" style="fill: #020202"/>
    <path d="M 56.198164 56.087935 
L 21.732954 51.068058 
" clip-path="url(#p5d58b35850)" style="fill: #020202; stroke: #020202; stroke-width: 0.99"/>
    <path d="M 56.192943 56.16 
L 15.807057 56.16 
" clip-path="url(#p5d58b35850)" style="fill: #020202"/>
    <path d="M 56.198164 56.232065 
L 19.753837 61.540202 
" clip-path="url(#p5d58b35850)" style="fill: #020202"/>
    <path d="M 56.217522 56.314837 
L 30.08095 64.827116 
" clip-path="url(#p5d58b35850)" style="fill: #020202; stroke: #020202; stroke-width: 0.99"/>
    <path d="M 56.267419 56.422543 
L 44.522095 63.66924 
" clip-path="url(#p5d58b35850)" style="fill: #020202"/>
    <path d="M 56.399503 56.564837 
L 53.034383 61.20743 
" clip-path="url(#p5d58b35850)" style="fill: #020202"/>
    <path d="M 55.025726 49.692958 
C 79.483449 37.112206 57.460782 21.081341 53.004513 48.221666 
C 57.460782 21.081341 79.483449 37.112206 55.025726 49.692958 
" clip-path="url(#p5d58b35850)" style="fill: #020202"/>
    <path d="M 50.363837 49.933546 
L 44.771578 48.112234 
" clip-path="url(#p5d58b35850)" style="fill: #020202"/>
    <path d="M 50.267046 50.347409 
L 30.100308 47.410112 
" clip-path="url(#p5d58b35850)" style="fill: #020202; stroke: #020202; stroke-width: 0.99"/>
    <path d="M 50.240943 50.707733 
L 21.759057 50.707733 
" clip-path="url(#p5d58b35850)" style="fill: #020202; stroke: #020202; stroke-width: 0.99"/>
    <path d="M 50.267046 51.068058 
L 15.801836 56.087935 
" clip-path="url(#p5d58b35850)" style="fill: #020202"/>
    <path d="M 50.363837 51.48192 
L 19.734478 61.45743 
" clip-path="url(#p5d58b35850)" style="fill: #020202; stroke: #020202; stroke-width: 0.99"/>
    <path d="M 50.613319 52.020447 
L 30.031054 64.71941 
" clip-path="url(#p5d58b35850)" style="fill: #020202"/>
    <path d="M 51.273741 52.731917 
L 43.861673 62.95777 
" clip-path="url(#p5d58b35850)" style="fill: #020202"/>
    <path d="M 52.740943 53.207733 
L 52.740943 61.112267 
" clip-path="url(#p5d58b35850)" style="fill: #020202"/>
    <path d="M 43.968444 45.395726 
C 60.036421 23.073637 33.133829 18.803147 41.499359 45.003786 
C 33.133829 18.803147 60.036421 23.073637 43.968444 45.395726 
" clip-path="url(#p5d58b35850)" style="fill: #020202"/>
    <path d="M 39.894471 47.338047 
L 30.105529 47.338047 
" clip-path="url(#p5d58b35850)" style="fill: #020202; stroke: #020202; stroke-width: 0.99"/>
    <path d="M 39.920574 47.698371 
L 21.732954 50.347409 
" clip-path="url(#p5d58b35850)" style="fill: #020202; stroke: #020202; stroke-width: 0.99"/>
    <path d="M 40.017365 48.112234 
L 15.782478 56.005163 
" clip-path="url(#p5d58b35850)" style="fill: #020202"/>
    <path d="M 40.266847 48.65076 
L 19.684582 61.349724 
" clip-path="url(#p5d58b35850)" style="fill: #020202"/>
    <path d="M 40.92727 49.36223 
L 29.898969 64.577116 
" clip-path="url(#p5d58b35850)" style="fill: #020202"/>
    <path d="M 42.394471 49.838047 
L 42.394471 62.481953 
" clip-path="url(#p5d58b35850)" style="fill: #020202; stroke: #020202; stroke-width: 0.99"/>
    <path d="M 43.861673 49.36223 
L 52.447503 61.20743 
" clip-path="url(#p5d58b35850)" style="fill: #020202"/>
    <path d="M 29.784551 46.871195 
C 38.866171 18.803147 11.963579 23.073637 29.290734 46.949583 
C 11.963579 23.073637 38.866171 18.803147 29.784551 46.871195 
" clip-path="url(#p5d58b35850)" style="fill: #020202"/>
    <path d="M 29.130108 47.492884 
L 21.636163 49.933546 
" clip-path="url(#p5d58b35850)" style="fill: #020202"/>
    <path d="M 29.180004 47.60059 
L 15.732581 55.897457 
" clip-path="url(#p5d58b35850)" style="fill: #020202"/>
    <path d="M 29.312088 47.742884 
L 19.552497 61.20743 
" clip-path="url(#p5d58b35850)" style="fill: #020202"/>
    <path d="M 29.605529 47.838047 
L 29.605529 64.481953 
" clip-path="url(#p5d58b35850)" style="fill: #020202"/>
    <path d="M 29.898969 47.742884 
L 40.92727 62.95777 
" clip-path="url(#p5d58b35850)" style="fill: #020202"/>
    <path d="M 30.031054 47.60059 
L 52.315418 61.349724 
" clip-path="url(#p5d58b35850)" style="fill: #020202"/>
    <path d="M 18.995487 48.221666 
C 14.539218 21.081341 -7.483449 37.112206 16.974274 49.692958 
C -7.483449 37.112206 14.539218 21.081341 18.995487 48.221666 
" clip-path="url(#p5d58b35850)" style="fill: #020202"/>
    <path d="M 17.791855 52.731917 
L 15.600497 55.755163 
" clip-path="url(#p5d58b35850)" style="fill: #020202"/>
    <path d="M 19.259057 53.207733 
L 19.259057 61.112267 
" clip-path="url(#p5d58b35850)" style="fill: #020202"/>
    <path d="M 20.726259 52.731917 
L 29.312088 64.577116 
" clip-path="url(#p5d58b35850)" style="fill: #020202"/>
    <path d="M 21.386681 52.020447 
L 40.266847 63.66924 
" clip-path="url(#p5d58b35850)" style="fill: #020202"/>
    <path d="M 21.636163 51.48192 
L 52.265522 61.45743 
" clip-path="url(#p5d58b35850)" style="fill: #020202"/>
    <path d="M 14.874044 55.91 
C -11.423139 42.540285 -11.423139 69.779715 14.874044 56.41 
C -11.423139 69.779715 -11.423139 42.540285 14.874044 55.91 
" clip-path="url(#p5d58b35850)" style="fill: #020202"/>
    <path d="M 15.600497 56.564837 
L 18.965617 61.20743 
" clip-path="url(#p5d58b35850)" style="fill: #020202"/>
    <path d="M 15.732581 56.422543 
L 29.180004 64.71941 
" clip-path="url(#p5d58b35850)" style="fill: #020202"/>
    <path d="M 15.782478 56.314837 
L 40.017365 64.207766 
" clip-path="url(#p5d58b35850)" style="fill: #020202"/>
    <path d="M 15.801836 56.232065 
L 52.246163 61.540202 
" clip-path="url(#p5d58b35850)" style="fill: #020202"/>
    <path d="M 18.802101 61.815222 
C -7.483449 75.207794 14.539218 91.238659 19.206343 62.10948 
C 14.539218 91.238659 -7.483449 75.207794 18.802101 61.815222 
" clip-path="url(#p5d58b35850)" style="fill: #020202"/>
    <path d="M 19.734478 61.767104 
L 29.130108 64.827116 
" clip-path="url(#p5d58b35850)" style="fill: #020202"/>
    <path d="M 19.753837 61.684332 
L 39.920574 64.621629 
" clip-path="url(#p5d58b35850)" style="fill: #020202; stroke: #020202; stroke-width: 0.99"/>
    <path d="M 19.759057 61.612267 
L 52.240943 61.612267 
" clip-path="url(#p5d58b35850)" style="fill: #020202"/>
    <path d="M 29.290734 65.370417 
C 11.963579 89.246363 38.866171 93.516853 29.784551 65.448805 
C 38.866171 93.516853 11.963579 89.246363 29.290734 65.370417 
" clip-path="url(#p5d58b35850)" style="fill: #020202"/>
    <path d="M 30.105529 64.981953 
L 39.894471 64.981953 
" clip-path="url(#p5d58b35850)" style="fill: #020202"/>
    <path d="M 30.100308 64.909888 
L 52.246163 61.684332 
" clip-path="url(#p5d58b35850)" style="fill: #020202"/>
    <path d="M 41.499359 67.316214 
C 33.133829 93.516853 60.036421 89.246363 43.968444 66.924274 
C 60.036421 89.246363 33.133829 93.516853 41.499359 67.316214 
" clip-path="url(#p5d58b35850)" style="fill: #020202"/>
    <path d="M 44.771578 64.207766 
L 52.265522 61.767104 
" clip-path="url(#p5d58b35850)" style="fill: #020202; stroke: #020202; stroke-width: 0.99"/>
    <path d="M 52.793657 62.10948 
C 57.460782 91.238659 79.483449 75.207794 53.197899 61.815222 
C 79.483449 75.207794 57.460782 91.238659 52.793657 62.10948 
" clip-path="url(#p5d58b35850)" style="fill: #020202"/>
   </g>
   <g id="VertexCollection_2">
    <path d="M 56.692943 56.66 
C 56.825545 56.66 56.952733 56.607317 57.046497 56.513553 
C 57.14026 56.41979 57.192943 56.292602 57.192943 56.16 
C 57.192943 56.027398 57.14026 55.90021 57.046497 55.806447 
C 56.952733 55.712683 56.825545 55.66 56.692943 55.66 
C 56.560342 55.66 56.433153 55.712683 56.33939 55.806447 
C 56.245627 55.90021 56.192943 56.027398 56.192943 56.16 
C 56.192943 56.292602 56.245627 56.41979 56.33939 56.513553 
C 56.433153 56.607317 56.560342 56.66 56.692943 56.66 
z
" clip-path="url(#p5d58b35850)" style="fill: #bebebe"/>
    <path d="M 52.740943 53.207733 
C 53.403951 53.207733 54.039893 52.944317 54.50871 52.4755 
C 54.977527 52.006683 55.240943 51.370741 55.240943 50.707733 
C 55.240943 50.044725 54.977527 49.408783 54.50871 48.939966 
C 54.039893 48.471149 53.403951 48.207733 52.740943 48.207733 
C 52.077935 48.207733 51.441993 48.471149 50.973176 48.939966 
C 50.504359 49.408783 50.240943 50.044725 50.240943 50.707733 
C 50.240943 51.370741 50.504359 52.006683 50.973176 52.4755 
C 51.441993 52.944317 52.077935 53.207733 52.740943 53.207733 
z
" clip-path="url(#p5d58b35850)" style="fill: #bebebe"/>
    <path d="M 42.394471 49.838047 
C 43.057479 49.838047 43.693421 49.574631 44.162238 49.105814 
C 44.631055 48.636996 44.894471 48.001055 44.894471 47.338047 
C 44.894471 46.675039 44.631055 46.039097 44.162238 45.57028 
C 43.693421 45.101463 43.057479 44.838047 42.394471 44.838047 
C 41.731463 44.838047 41.095522 45.101463 40.626704 45.57028 
C 40.157887 46.039097 39.894471 46.675039 39.894471 47.338047 
C 39.894471 48.001055 40.157887 48.636996 40.626704 49.105814 
C 41.095522 49.574631 41.731463 49.838047 42.394471 49.838047 
z
" clip-path="url(#p5d58b35850)" style="fill: #bebebe"/>
    <path d="M 29.605529 47.838047 
C 29.73813 47.838047 29.865319 47.785364 29.959082 47.6916 
C 30.052846 47.597837 30.105529 47.470648 30.105529 47.338047 
C 30.105529 47.205445 30.052846 47.078257 29.959082 46.984493 
C 29.865319 46.89073 29.73813 46.838047 29.605529 46.838047 
C 29.472927 46.838047 29.345739 46.89073 29.251975 46.984493 
C 29.158212 47.078257 29.105529 47.205445 29.105529 47.338047 
C 29.105529 47.470648 29.158212 47.597837 29.251975 47.6916 
C 29.345739 47.785364 29.472927 47.838047 29.605529 47.838047 
z
" clip-path="url(#p5d58b35850)" style="fill: #bebebe"/>
    <path d="M 19.259057 53.207733 
C 19.922065 53.207733 20.558007 52.944317 21.026824 52.4755 
C 21.495641 52.006683 21.759057 51.370741 21.759057 50.707733 
C 21.759057 50.044725 21.495641 49.408783 21.026824 48.939966 
C 20.558007 48.471149 19.922065 48.207733 19.259057 48.207733 
C 18.596049 48.207733 17.960107 48.471149 17.49129 48.939966 
C 17.022473 49.408783 16.759057 50.044725 16.759057 50.707733 
C 16.759057 51.370741 17.022473 52.006683 17.49129 52.4755 
C 17.960107 52.944317 18.596049 53.207733 19.259057 53.207733 
z
" clip-path="url(#p5d58b35850)" style="fill: #bebebe"/>
    <path d="M 15.307057 56.66 
C 15.439658 56.66 15.566847 56.607317 15.66061 56.513553 
C 15.754373 56.41979 15.807057 56.292602 15.807057 56.16 
C 15.807057 56.027398 15.754373 55.90021 15.66061 55.806447 
C 15.566847 55.712683 15.439658 55.66 15.307057 55.66 
C 15.174455 55.66 15.047267 55.712683 14.953503 55.806447 
C 14.85974 55.90021 14.807057 56.027398 14.807057 56.16 
C 14.807057 56.292602 14.85974 56.41979 14.953503 56.513553 
C 15.047267 56.607317 15.174455 56.66 15.307057 56.66 
z
" clip-path="url(#p5d58b35850)" style="fill: #bebebe"/>
    <path d="M 19.259057 62.112267 
C 19.391659 62.112267 19.518847 62.059584 19.61261 61.96582 
C 19.706374 61.872057 19.759057 61.744868 19.759057 61.612267 
C 19.759057 61.479665 19.706374 61.352477 19.61261 61.258714 
C 19.518847 61.16495 19.391659 61.112267 19.259057 61.112267 
C 19.126456 61.112267 18.999267 61.16495 18.905504 61.258714 
C 18.81174 61.352477 18.759057 61.479665 18.759057 61.612267 
C 18.759057 61.744868 18.81174 61.872057 18.905504 61.96582 
C 18.999267 62.059584 19.126456 62.112267 19.259057 62.112267 
z
" clip-path="url(#p5d58b35850)" style="fill: #bebebe"/>
    <path d="M 29.605529 65.481953 
C 29.73813 65.481953 29.865319 65.42927 29.959082 65.335507 
C 30.052846 65.241743 30.105529 65.114555 30.105529 64.981953 
C 30.105529 64.849352 30.052846 64.722163 29.959082 64.6284 
C 29.865319 64.534636 29.73813 64.481953 29.605529 64.481953 
C 29.472927 64.481953 29.345739 64.534636 29.251975 64.6284 
C 29.158212 64.722163 29.105529 64.849352 29.105529 64.981953 
C 29.105529 65.114555 29.158212 65.241743 29.251975 65.335507 
C 29.345739 65.42927 29.472927 65.481953 29.605529 65.481953 
z
" clip-path="url(#p5d58b35850)" style="fill: #bebebe"/>
    <path d="M 42.394471 67.481953 
C 43.057479 67.481953 43.693421 67.218537 44.162238 66.74972 
C 44.631055 66.280903 44.894471 65.644961 44.894471 64.981953 
C 44.894471 64.318945 44.631055 63.683004 44.162238 63.214186 
C 43.693421 62.745369 43.057479 62.481953 42.394471 62.481953 
C 41.731463 62.481953 41.095522 62.745369 40.626704 63.214186 
C 40.157887 63.683004 39.894471 64.318945 39.894471 64.981953 
C 39.894471 65.644961 40.157887 66.280903 40.626704 66.74972 
C 41.095522 67.218537 41.731463 67.481953 42.394471 67.481953 
z
" clip-path="url(#p5d58b35850)" style="fill: #bebebe"/>
    <path d="M 52.740943 62.112267 
C 52.873544 62.112267 53.000733 62.059584 53.094496 61.96582 
C 53.18826 61.872057 53.240943 61.744868 53.240943 61.612267 
C 53.240943 61.479665 53.18826 61.352477 53.094496 61.258714 
C 53.000733 61.16495 52.873544 61.112267 52.740943 61.112267 
C 52.608341 61.112267 52.481153 61.16495 52.38739 61.258714 
C 52.293626 61.352477 52.240943 61.479665 52.240943 61.612267 
C 52.240943 61.744868 52.293626 61.872057 52.38739 61.96582 
C 52.481153 62.059584 52.608341 62.112267 52.740943 62.112267 
z
" clip-path="url(#p5d58b35850)" style="fill: #bebebe"/>
   </g>
   <g id="matplotlib.axis_3"/>
   <g id="matplotlib.axis_4"/>
  </g>
  <g id="axes_3">
   <g id="patch_4">
    <path d="M 10.8 101.52 
L 61.2 101.52 
L 61.2 78.48 
L 10.8 78.48 
z
" style="fill: #ffffff"/>
   </g>
   <g id="EdgeCollection_3">
    <path d="M 58.332445 91.537936 
C 82.897577 103.907651 82.897577 76.668221 58.332445 89.037936 
C 82.897577 76.668221 82.897577 103.907651 58.332445 91.537936 
" clip-path="url(#p06ed19b2ba)" style="fill: #020202"/>
    <path d="M 54.741104 88.234711 
L 53.691684 86.723999 
" clip-path="url(#p06ed19b2ba)" style="fill: #020202"/>
    <path d="M 54.065332 88.934648 
L 44.151952 82.552466 
" clip-path="url(#p06ed19b2ba)" style="fill: #020202; stroke: #020202; stroke-width: 0.99"/>
    <path d="M 53.800331 89.483527 
L 29.896256 81.36006 
" clip-path="url(#p06ed19b2ba)" style="fill: #020202"/>
    <path d="M 53.695763 89.912301 
L 21.67896 85.046409 
" clip-path="url(#p06ed19b2ba)" style="fill: #020202; stroke: #020202; stroke-width: 0.99"/>
    <path d="M 53.667382 90.287936 
L 15.805367 90.287936 
" clip-path="url(#p06ed19b2ba)" style="fill: #020202"/>
    <path d="M 53.695763 90.663571 
L 19.701666 95.82997 
" clip-path="url(#p06ed19b2ba)" style="fill: #020202"/>
    <path d="M 53.800331 91.092345 
L 29.896256 99.215812 
" clip-path="url(#p06ed19b2ba)" style="fill: #020202; stroke: #020202; stroke-width: 0.99"/>
    <path d="M 54.065332 91.641224 
L 42.470312 99.106036 
" clip-path="url(#p06ed19b2ba)" style="fill: #020202"/>
    <path d="M 54.741104 92.34116 
L 52.550662 95.494452 
" clip-path="url(#p06ed19b2ba)" style="fill: #020202"/>
    <path d="M 54.56653 83.69362 
C 79.227361 71.515814 57.470659 55.125803 52.569728 82.189366 
C 57.470659 55.125803 79.227361 71.515814 54.56653 83.69362 
" clip-path="url(#p06ed19b2ba)" style="fill: #020202"/>
    <path d="M 49.898356 83.866366 
L 44.416953 82.003587 
" clip-path="url(#p06ed19b2ba)" style="fill: #020202; stroke: #020202; stroke-width: 0.99"/>
    <path d="M 49.793788 84.29514 
L 29.917169 81.274305 
" clip-path="url(#p06ed19b2ba)" style="fill: #020202"/>
    <path d="M 49.765406 84.670775 
L 21.707342 84.670775 
" clip-path="url(#p06ed19b2ba)" style="fill: #020202; stroke: #020202; stroke-width: 0.99"/>
    <path d="M 49.793788 85.046409 
L 15.79969 90.212809 
" clip-path="url(#p06ed19b2ba)" style="fill: #020202"/>
    <path d="M 49.898356 85.475183 
L 19.680752 95.744215 
" clip-path="url(#p06ed19b2ba)" style="fill: #020202; stroke: #020202; stroke-width: 0.99"/>
    <path d="M 50.163357 86.024063 
L 29.843255 99.106036 
" clip-path="url(#p06ed19b2ba)" style="fill: #020202"/>
    <path d="M 50.839129 86.723999 
L 42.335158 98.966048 
" clip-path="url(#p06ed19b2ba)" style="fill: #020202"/>
    <path d="M 52.265406 87.170775 
L 52.265406 95.405097 
" clip-path="url(#p06ed19b2ba)" style="fill: #020202"/>
    <path d="M 43.636217 79.266923 
C 59.846065 57.047644 32.971223 52.605864 41.169678 78.859262 
C 32.971223 52.605864 59.846065 57.047644 43.636217 79.266923 
" clip-path="url(#p06ed19b2ba)" style="fill: #020202"/>
    <path d="M 39.549903 81.199178 
L 29.922846 81.199178 
" clip-path="url(#p06ed19b2ba)" style="fill: #020202"/>
    <path d="M 39.578284 81.574813 
L 21.67896 84.29514 
" clip-path="url(#p06ed19b2ba)" style="fill: #020202; stroke: #020202; stroke-width: 0.99"/>
    <path d="M 39.682853 82.003587 
L 15.778777 90.127054 
" clip-path="url(#p06ed19b2ba)" style="fill: #020202"/>
    <path d="M 39.947853 82.552466 
L 19.627752 95.634439 
" clip-path="url(#p06ed19b2ba)" style="fill: #020202"/>
    <path d="M 40.623625 83.252403 
L 29.708101 98.966048 
" clip-path="url(#p06ed19b2ba)" style="fill: #020202"/>
    <path d="M 42.049903 83.699178 
L 42.049903 98.876693 
" clip-path="url(#p06ed19b2ba)" style="fill: #020202"/>
    <path d="M 43.47618 83.252403 
L 51.980151 95.494452 
" clip-path="url(#p06ed19b2ba)" style="fill: #020202"/>
    <path d="M 29.598891 80.731195 
C 38.501525 52.605864 11.626683 57.047644 29.105583 80.812727 
C 11.626683 57.047644 38.501525 52.605864 29.598891 80.731195 
" clip-path="url(#p06ed19b2ba)" style="fill: #020202"/>
    <path d="M 28.949436 81.36006 
L 21.574392 83.866366 
" clip-path="url(#p06ed19b2ba)" style="fill: #020202"/>
    <path d="M 29.002436 81.469836 
L 15.725777 90.017278 
" clip-path="url(#p06ed19b2ba)" style="fill: #020202"/>
    <path d="M 29.13759 81.609823 
L 19.492597 95.494452 
" clip-path="url(#p06ed19b2ba)" style="fill: #020202"/>
    <path d="M 29.422846 81.699178 
L 29.422846 98.876693 
" clip-path="url(#p06ed19b2ba)" style="fill: #020202"/>
    <path d="M 29.708101 81.609823 
L 41.764647 98.966048 
" clip-path="url(#p06ed19b2ba)" style="fill: #020202"/>
    <path d="M 29.843255 81.469836 
L 51.844996 95.634439 
" clip-path="url(#p06ed19b2ba)" style="fill: #020202"/>
    <path d="M 18.903021 82.189366 
C 14.002089 55.125803 -7.754613 71.515814 16.906218 83.69362 
C -7.754613 71.515814 14.002089 55.125803 18.903021 82.189366 
" clip-path="url(#p06ed19b2ba)" style="fill: #020202"/>
    <path d="M 17.781064 86.723999 
L 15.590622 89.877291 
" clip-path="url(#p06ed19b2ba)" style="fill: #020202"/>
    <path d="M 19.207342 87.170775 
L 19.207342 95.405097 
" clip-path="url(#p06ed19b2ba)" style="fill: #020202"/>
    <path d="M 20.63362 86.723999 
L 29.13759 98.966048 
" clip-path="url(#p06ed19b2ba)" style="fill: #020202"/>
    <path d="M 21.309391 86.024063 
L 41.629493 99.106036 
" clip-path="url(#p06ed19b2ba)" style="fill: #020202"/>
    <path d="M 21.574392 85.475183 
L 51.791996 95.744215 
" clip-path="url(#p06ed19b2ba)" style="fill: #020202"/>
    <path d="M 14.872354 90.037936 
C -11.424829 76.668221 -11.424829 103.907651 14.872354 90.537936 
C -11.424829 103.907651 -11.424829 76.668221 14.872354 90.037936 
" clip-path="url(#p06ed19b2ba)" style="fill: #020202"/>
    <path d="M 15.590622 90.698581 
L 18.922086 95.494452 
" clip-path="url(#p06ed19b2ba)" style="fill: #020202"/>
    <path d="M 15.725777 90.558593 
L 29.002436 99.106036 
" clip-path="url(#p06ed19b2ba)" style="fill: #020202"/>
    <path d="M 15.778777 90.448817 
L 41.576493 99.215812 
" clip-path="url(#p06ed19b2ba)" style="fill: #020202"/>
    <path d="M 15.79969 90.363063 
L 51.771083 95.82997 
" clip-path="url(#p06ed19b2ba)" style="fill: #020202"/>
    <path d="M 18.747117 96.100528 
C -7.754613 109.060057 14.002089 125.450068 19.146478 96.401379 
C 14.002089 125.450068 -7.754613 109.060057 18.747117 96.100528 
" clip-path="url(#p06ed19b2ba)" style="fill: #020202"/>
    <path d="M 19.680752 96.065979 
L 28.949436 99.215812 
" clip-path="url(#p06ed19b2ba)" style="fill: #020202"/>
    <path d="M 19.701666 95.980224 
L 41.555579 99.301566 
" clip-path="url(#p06ed19b2ba)" style="fill: #020202; stroke: #020202; stroke-width: 0.99"/>
    <path d="M 19.707342 95.905097 
L 51.765406 95.905097 
" clip-path="url(#p06ed19b2ba)" style="fill: #020202"/>
    <path d="M 29.105583 99.763144 
C 11.626683 123.528227 38.501525 127.970007 29.598891 99.844676 
C 38.501525 127.970007 11.626683 123.528227 29.105583 99.763144 
" clip-path="url(#p06ed19b2ba)" style="fill: #020202"/>
    <path d="M 29.922846 99.376693 
L 41.549903 99.376693 
" clip-path="url(#p06ed19b2ba)" style="fill: #020202"/>
    <path d="M 29.917169 99.301566 
L 51.771083 95.980224 
" clip-path="url(#p06ed19b2ba)" style="fill: #020202"/>
    <path d="M 41.873858 99.844676 
C 32.971223 127.970007 59.846065 123.528227 42.367165 99.763144 
C 59.846065 123.528227 32.971223 127.970007 41.873858 99.844676 
" clip-path="url(#p06ed19b2ba)" style="fill: #020202"/>
    <path d="M 42.523313 99.215812 
L 51.791996 96.065979 
" clip-path="url(#p06ed19b2ba)" style="fill: #020202; stroke: #020202; stroke-width: 0.99"/>
    <path d="M 52.326271 96.401379 
C 57.470659 125.450068 79.227361 109.060057 52.725631 96.100528 
C 79.227361 109.060057 57.470659 125.450068 52.326271 96.401379 
" clip-path="url(#p06ed19b2ba)" style="fill: #020202"/>
   </g>
   <g id="VertexCollection_3">
    <path d="M 56.167382 92.787936 
C 56.830389 92.787936 57.466331 92.52452 57.935148 92.055703 
C 58.403966 91.586885 58.667382 90.950943 58.667382 90.287936 
C 58.667382 89.624928 58.403966 88.988986 57.935148 88.520169 
C 57.466331 88.051351 56.830389 87.787936 56.167382 87.787936 
C 55.504374 87.787936 54.868432 88.051351 54.399615 88.520169 
C 53.930797 88.988986 53.667382 89.624928 53.667382 90.287936 
C 53.667382 90.950943 53.930797 91.586885 54.399615 92.055703 
C 54.868432 92.52452 55.504374 92.787936 56.167382 92.787936 
z
" clip-path="url(#p06ed19b2ba)" style="fill: #bebebe"/>
    <path d="M 52.265406 87.170775 
C 52.928414 87.170775 53.564356 86.907359 54.033173 86.438541 
C 54.501991 85.969724 54.765406 85.333782 54.765406 84.670775 
C 54.765406 84.007767 54.501991 83.371825 54.033173 82.903008 
C 53.564356 82.43419 52.928414 82.170775 52.265406 82.170775 
C 51.602399 82.170775 50.966457 82.43419 50.497639 82.903008 
C 50.028822 83.371825 49.765406 84.007767 49.765406 84.670775 
C 49.765406 85.333782 50.028822 85.969724 50.497639 86.438541 
C 50.966457 86.907359 51.602399 87.170775 52.265406 87.170775 
z
" clip-path="url(#p06ed19b2ba)" style="fill: #bebebe"/>
    <path d="M 42.049903 83.699178 
C 42.71291 83.699178 43.348852 83.435762 43.81767 82.966945 
C 44.286487 82.498128 44.549903 81.862186 44.549903 81.199178 
C 44.549903 80.53617 44.286487 79.900228 43.81767 79.431411 
C 43.348852 78.962594 42.71291 78.699178 42.049903 78.699178 
C 41.386895 78.699178 40.750953 78.962594 40.282136 79.431411 
C 39.813318 79.900228 39.549903 80.53617 39.549903 81.199178 
C 39.549903 81.862186 39.813318 82.498128 40.282136 82.966945 
C 40.750953 83.435762 41.386895 83.699178 42.049903 83.699178 
z
" clip-path="url(#p06ed19b2ba)" style="fill: #bebebe"/>
    <path d="M 29.422846 81.699178 
C 29.555447 81.699178 29.682636 81.646495 29.776399 81.552731 
C 29.870162 81.458968 29.922846 81.33178 29.922846 81.199178 
C 29.922846 81.066576 29.870162 80.939388 29.776399 80.845625 
C 29.682636 80.751861 29.555447 80.699178 29.422846 80.699178 
C 29.290244 80.699178 29.163056 80.751861 29.069292 80.845625 
C 28.975529 80.939388 28.922846 81.066576 28.922846 81.199178 
C 28.922846 81.33178 28.975529 81.458968 29.069292 81.552731 
C 29.163056 81.646495 29.290244 81.699178 29.422846 81.699178 
z
" clip-path="url(#p06ed19b2ba)" style="fill: #bebebe"/>
    <path d="M 19.207342 87.170775 
C 19.87035 87.170775 20.506292 86.907359 20.975109 86.438541 
C 21.443926 85.969724 21.707342 85.333782 21.707342 84.670775 
C 21.707342 84.007767 21.443926 83.371825 20.975109 82.903008 
C 20.506292 82.43419 19.87035 82.170775 19.207342 82.170775 
C 18.544334 82.170775 17.908392 82.43419 17.439575 82.903008 
C 16.970758 83.371825 16.707342 84.007767 16.707342 84.670775 
C 16.707342 85.333782 16.970758 85.969724 17.439575 86.438541 
C 17.908392 86.907359 18.544334 87.170775 19.207342 87.170775 
z
" clip-path="url(#p06ed19b2ba)" style="fill: #bebebe"/>
    <path d="M 15.305367 90.787936 
C 15.437968 90.787936 15.565157 90.735253 15.65892 90.641489 
C 15.752684 90.547726 15.805367 90.420537 15.805367 90.287936 
C 15.805367 90.155334 15.752684 90.028146 15.65892 89.934382 
C 15.565157 89.840619 15.437968 89.787936 15.305367 89.787936 
C 15.172765 89.787936 15.045577 89.840619 14.951813 89.934382 
C 14.85805 90.028146 14.805367 90.155334 14.805367 90.287936 
C 14.805367 90.420537 14.85805 90.547726 14.951813 90.641489 
C 15.045577 90.735253 15.172765 90.787936 15.305367 90.787936 
z
" clip-path="url(#p06ed19b2ba)" style="fill: #bebebe"/>
    <path d="M 19.207342 96.405097 
C 19.339943 96.405097 19.467132 96.352414 19.560895 96.25865 
C 19.654659 96.164887 19.707342 96.037698 19.707342 95.905097 
C 19.707342 95.772495 19.654659 95.645307 19.560895 95.551543 
C 19.467132 95.45778 19.339943 95.405097 19.207342 95.405097 
C 19.07474 95.405097 18.947552 95.45778 18.853788 95.551543 
C 18.760025 95.645307 18.707342 95.772495 18.707342 95.905097 
C 18.707342 96.037698 18.760025 96.164887 18.853788 96.25865 
C 18.947552 96.352414 19.07474 96.405097 19.207342 96.405097 
z
" clip-path="url(#p06ed19b2ba)" style="fill: #bebebe"/>
    <path d="M 29.422846 99.876693 
C 29.555447 99.876693 29.682636 99.82401 29.776399 99.730247 
C 29.870162 99.636483 29.922846 99.509295 29.922846 99.376693 
C 29.922846 99.244092 29.870162 99.116903 29.776399 99.02314 
C 29.682636 98.929376 29.555447 98.876693 29.422846 98.876693 
C 29.290244 98.876693 29.163056 98.929376 29.069292 99.02314 
C 28.975529 99.116903 28.922846 99.244092 28.922846 99.376693 
C 28.922846 99.509295 28.975529 99.636483 29.069292 99.730247 
C 29.163056 99.82401 29.290244 99.876693 29.422846 99.876693 
z
" clip-path="url(#p06ed19b2ba)" style="fill: #bebebe"/>
    <path d="M 42.049903 99.876693 
C 42.182504 99.876693 42.309693 99.82401 42.403456 99.730247 
C 42.497219 99.636483 42.549903 99.509295 42.549903 99.376693 
C 42.549903 99.244092 42.497219 99.116903 42.403456 99.02314 
C 42.309693 98.929376 42.182504 98.876693 42.049903 98.876693 
C 41.917301 98.876693 41.790113 98.929376 41.696349 99.02314 
C 41.602586 99.116903 41.549903 99.244092 41.549903 99.376693 
C 41.549903 99.509295 41.602586 99.636483 41.696349 99.730247 
C 41.790113 99.82401 41.917301 99.876693 42.049903 99.876693 
z
" clip-path="url(#p06ed19b2ba)" style="fill: #bebebe"/>
    <path d="M 52.265406 96.405097 
C 52.398008 96.405097 52.525196 96.352414 52.61896 96.25865 
C 52.712723 96.164887 52.765406 96.037698 52.765406 95.905097 
C 52.765406 95.772495 52.712723 95.645307 52.61896 95.551543 
C 52.525196 95.45778 52.398008 95.405097 52.265406 95.405097 
C 52.132805 95.405097 52.005616 95.45778 51.911853 95.551543 
C 51.818089 95.645307 51.765406 95.772495 51.765406 95.905097 
C 51.765406 96.037698 51.818089 96.164887 51.911853 96.25865 
C 52.005616 96.352414 52.132805 96.405097 52.265406 96.405097 
z
" clip-path="url(#p06ed19b2ba)" style="fill: #bebebe"/>
   </g>
   <g id="matplotlib.axis_5"/>
   <g id="matplotlib.axis_6"/>
  </g>
  <g id="axes_4">
   <g id="patch_5">
    <path d="M 10.8 135.36 
L 61.2 135.36 
L 61.2 112.32 
L 10.8 112.32 
z
" style="fill: #ffffff"/>
   </g>
   <g id="EdgeCollection_4">
    <path d="M 58.332445 125.09 
C 82.897577 137.459715 82.897577 110.220285 58.332445 122.59 
C 82.897577 110.220285 82.897577 137.459715 58.332445 125.09 
" clip-path="url(#p1cf438e21c)" style="fill: #020202"/>
    <path d="M 54.712435 121.80699 
L 52.556396 118.794335 
" clip-path="url(#p1cf438e21c)" style="fill: #020202"/>
    <path d="M 54.047286 122.515162 
L 44.169998 116.342885 
" clip-path="url(#p1cf438e21c)" style="fill: #020202; stroke: #020202; stroke-width: 0.99"/>
    <path d="M 53.793211 123.056856 
L 29.89768 115.174676 
" clip-path="url(#p1cf438e21c)" style="fill: #020202"/>
    <path d="M 53.694147 123.475154 
L 19.701989 118.460702 
" clip-path="url(#p1cf438e21c)" style="fill: #020202"/>
    <path d="M 53.667382 123.84 
L 15.805367 123.84 
" clip-path="url(#p1cf438e21c)" style="fill: #020202"/>
    <path d="M 53.694147 124.204846 
L 21.680576 128.927421 
" clip-path="url(#p1cf438e21c)" style="fill: #020202; stroke: #020202; stroke-width: 0.99"/>
    <path d="M 53.793211 124.623144 
L 31.797016 131.878809 
" clip-path="url(#p1cf438e21c)" style="fill: #020202; stroke: #020202; stroke-width: 0.99"/>
    <path d="M 54.047286 125.164838 
L 42.473922 132.396985 
" clip-path="url(#p1cf438e21c)" style="fill: #020202"/>
    <path d="M 54.712435 125.87301 
L 52.556396 128.885665 
" clip-path="url(#p1cf438e21c)" style="fill: #020202"/>
    <path d="M 52.723353 118.187022 
C 79.074288 104.923563 57.130529 88.784852 52.320559 117.890784 
C 57.130529 88.784852 79.074288 104.923563 52.723353 118.187022 
" clip-path="url(#p1cf438e21c)" style="fill: #020202"/>
    <path d="M 51.790572 118.231104 
L 44.424073 115.801191 
" clip-path="url(#p1cf438e21c)" style="fill: #020202"/>
    <path d="M 51.770759 118.314764 
L 29.917492 115.091016 
" clip-path="url(#p1cf438e21c)" style="fill: #020202"/>
    <path d="M 51.765406 118.387733 
L 19.707342 118.387733 
" clip-path="url(#p1cf438e21c)" style="fill: #020202; stroke: #020202; stroke-width: 0.99"/>
    <path d="M 51.770759 118.460702 
L 15.800014 123.767031 
" clip-path="url(#p1cf438e21c)" style="fill: #020202"/>
    <path d="M 51.790572 118.544362 
L 21.581512 128.509123 
" clip-path="url(#p1cf438e21c)" style="fill: #020202; stroke: #020202; stroke-width: 0.99"/>
    <path d="M 51.841387 118.652701 
L 31.542941 131.337115 
" clip-path="url(#p1cf438e21c)" style="fill: #020202"/>
    <path d="M 51.974417 118.794335 
L 42.340892 132.255351 
" clip-path="url(#p1cf438e21c)" style="fill: #020202"/>
    <path d="M 52.265406 118.887733 
L 52.265406 128.792267 
" clip-path="url(#p1cf438e21c)" style="fill: #020202"/>
    <path d="M 43.627534 113.078697 
C 59.737564 90.786938 32.843071 86.46574 41.159192 112.682103 
C 32.843071 86.46574 59.737564 90.786938 43.627534 113.078697 
" clip-path="url(#p1cf438e21c)" style="fill: #020202"/>
    <path d="M 39.549903 115.018047 
L 29.922846 115.018047 
" clip-path="url(#p1cf438e21c)" style="fill: #020202; stroke: #020202; stroke-width: 0.99"/>
    <path d="M 39.576668 115.382893 
L 19.701989 118.314764 
" clip-path="url(#p1cf438e21c)" style="fill: #020202"/>
    <path d="M 39.675732 115.801191 
L 15.780201 123.683371 
" clip-path="url(#p1cf438e21c)" style="fill: #020202"/>
    <path d="M 39.929808 116.342885 
L 21.327437 127.967428 
" clip-path="url(#p1cf438e21c)" style="fill: #020202"/>
    <path d="M 40.594956 117.051057 
L 30.877792 130.628943 
" clip-path="url(#p1cf438e21c)" style="fill: #020202; stroke: #020202; stroke-width: 0.99"/>
    <path d="M 42.049903 117.518047 
L 42.049903 132.161953 
" clip-path="url(#p1cf438e21c)" style="fill: #020202"/>
    <path d="M 43.504849 117.051057 
L 51.974417 128.885665 
" clip-path="url(#p1cf438e21c)" style="fill: #020202"/>
    <path d="M 29.600988 114.550858 
C 38.629677 86.46574 11.735184 90.786938 29.107319 114.630177 
C 11.735184 90.786938 38.629677 86.46574 29.600988 114.550858 
" clip-path="url(#p1cf438e21c)" style="fill: #020202"/>
    <path d="M 28.948011 115.174676 
L 19.682176 118.231104 
" clip-path="url(#p1cf438e21c)" style="fill: #020202"/>
    <path d="M 28.998827 115.283015 
L 15.729386 123.575032 
" clip-path="url(#p1cf438e21c)" style="fill: #020202"/>
    <path d="M 29.131856 115.424649 
L 20.662288 127.259257 
" clip-path="url(#p1cf438e21c)" style="fill: #020202"/>
    <path d="M 29.422846 115.518047 
L 29.422846 130.161953 
" clip-path="url(#p1cf438e21c)" style="fill: #020202"/>
    <path d="M 29.713835 115.424649 
L 41.758913 132.255351 
" clip-path="url(#p1cf438e21c)" style="fill: #020202"/>
    <path d="M 29.846865 115.283015 
L 51.841387 129.027299 
" clip-path="url(#p1cf438e21c)" style="fill: #020202"/>
    <path d="M 19.152189 117.890784 
C 14.342219 88.784852 -7.601539 104.923563 18.749395 118.187022 
C -7.601539 104.923563 14.342219 88.784852 19.152189 117.890784 
" clip-path="url(#p1cf438e21c)" style="fill: #020202"/>
    <path d="M 18.916353 118.794335 
L 15.596356 123.433398 
" clip-path="url(#p1cf438e21c)" style="fill: #020202"/>
    <path d="M 19.207342 118.887733 
L 19.207342 126.792267 
" clip-path="url(#p1cf438e21c)" style="fill: #020202"/>
    <path d="M 19.498331 118.794335 
L 27.967899 130.628943 
" clip-path="url(#p1cf438e21c)" style="fill: #020202"/>
    <path d="M 19.631361 118.652701 
L 41.625884 132.396985 
" clip-path="url(#p1cf438e21c)" style="fill: #020202"/>
    <path d="M 19.682176 118.544362 
L 51.790572 129.135638 
" clip-path="url(#p1cf438e21c)" style="fill: #020202"/>
    <path d="M 14.872354 123.59 
C -11.424829 110.220285 -11.424829 137.459715 14.872354 124.09 
C -11.424829 137.459715 -11.424829 110.220285 14.872354 123.59 
" clip-path="url(#p1cf438e21c)" style="fill: #020202"/>
    <path d="M 15.596356 124.246602 
L 17.752396 127.259257 
" clip-path="url(#p1cf438e21c)" style="fill: #020202"/>
    <path d="M 15.729386 124.104968 
L 27.302751 131.337115 
" clip-path="url(#p1cf438e21c)" style="fill: #020202"/>
    <path d="M 15.780201 123.996629 
L 41.575069 132.505324 
" clip-path="url(#p1cf438e21c)" style="fill: #020202"/>
    <path d="M 15.800014 123.912969 
L 51.770759 129.219298 
" clip-path="url(#p1cf438e21c)" style="fill: #020202"/>
    <path d="M 16.917608 130.295821 
C -7.601539 142.756437 14.342219 158.895148 18.931579 131.777011 
C 14.342219 158.895148 -7.601539 142.756437 16.917608 130.295821 
" clip-path="url(#p1cf438e21c)" style="fill: #020202"/>
    <path d="M 21.581512 130.075411 
L 27.048675 131.878809 
" clip-path="url(#p1cf438e21c)" style="fill: #020202"/>
    <path d="M 21.680576 129.657113 
L 41.555256 132.588984 
" clip-path="url(#p1cf438e21c)" style="fill: #020202; stroke: #020202; stroke-width: 0.99"/>
    <path d="M 21.707342 129.292267 
L 51.765406 129.292267 
" clip-path="url(#p1cf438e21c)" style="fill: #020202"/>
    <path d="M 27.845214 134.601303 
C 11.735184 156.893062 38.629677 161.21426 30.313556 134.997897 
C 38.629677 161.21426 11.735184 156.893062 27.845214 134.601303 
" clip-path="url(#p1cf438e21c)" style="fill: #020202"/>
    <path d="M 31.922846 132.661953 
L 41.549903 132.661953 
" clip-path="url(#p1cf438e21c)" style="fill: #020202"/>
    <path d="M 31.89608 132.297107 
L 51.770759 129.365236 
" clip-path="url(#p1cf438e21c)" style="fill: #020202; stroke: #020202; stroke-width: 0.99"/>
    <path d="M 41.87176 133.129142 
C 32.843071 161.21426 59.737564 156.893062 42.365429 133.049823 
C 59.737564 156.893062 32.843071 161.21426 41.87176 133.129142 
" clip-path="url(#p1cf438e21c)" style="fill: #020202"/>
    <path d="M 42.524737 132.505324 
L 51.790572 129.448896 
" clip-path="url(#p1cf438e21c)" style="fill: #020202; stroke: #020202; stroke-width: 0.99"/>
    <path d="M 52.320559 129.789216 
C 57.130529 158.895148 79.074288 142.756437 52.723353 129.492978 
C 79.074288 142.756437 57.130529 158.895148 52.320559 129.789216 
" clip-path="url(#p1cf438e21c)" style="fill: #020202"/>
   </g>
   <g id="VertexCollection_4">
    <path d="M 56.167382 126.34 
C 56.830389 126.34 57.466331 126.076584 57.935148 125.607767 
C 58.403966 125.13895 58.667382 124.503008 58.667382 123.84 
C 58.667382 123.176992 58.403966 122.54105 57.935148 122.072233 
C 57.466331 121.603416 56.830389 121.34 56.167382 121.34 
C 55.504374 121.34 54.868432 121.603416 54.399615 122.072233 
C 53.930797 122.54105 53.667382 123.176992 53.667382 123.84 
C 53.667382 124.503008 53.930797 125.13895 54.399615 125.607767 
C 54.868432 126.076584 55.504374 126.34 56.167382 126.34 
z
" clip-path="url(#p1cf438e21c)" style="fill: #bebebe"/>
    <path d="M 52.265406 118.887733 
C 52.398008 118.887733 52.525196 118.83505 52.61896 118.741286 
C 52.712723 118.647523 52.765406 118.520335 52.765406 118.387733 
C 52.765406 118.255132 52.712723 118.127943 52.61896 118.03418 
C 52.525196 117.940416 52.398008 117.887733 52.265406 117.887733 
C 52.132805 117.887733 52.005616 117.940416 51.911853 118.03418 
C 51.818089 118.127943 51.765406 118.255132 51.765406 118.387733 
C 51.765406 118.520335 51.818089 118.647523 51.911853 118.741286 
C 52.005616 118.83505 52.132805 118.887733 52.265406 118.887733 
z
" clip-path="url(#p1cf438e21c)" style="fill: #bebebe"/>
    <path d="M 42.049903 117.518047 
C 42.71291 117.518047 43.348852 117.254631 43.81767 116.785814 
C 44.286487 116.316996 44.549903 115.681055 44.549903 115.018047 
C 44.549903 114.355039 44.286487 113.719097 43.81767 113.25028 
C 43.348852 112.781463 42.71291 112.518047 42.049903 112.518047 
C 41.386895 112.518047 40.750953 112.781463 40.282136 113.25028 
C 39.813318 113.719097 39.549903 114.355039 39.549903 115.018047 
C 39.549903 115.681055 39.813318 116.316996 40.282136 116.785814 
C 40.750953 117.254631 41.386895 117.518047 42.049903 117.518047 
z
" clip-path="url(#p1cf438e21c)" style="fill: #bebebe"/>
    <path d="M 29.422846 115.518047 
C 29.555447 115.518047 29.682636 115.465364 29.776399 115.3716 
C 29.870162 115.277837 29.922846 115.150648 29.922846 115.018047 
C 29.922846 114.885445 29.870162 114.758257 29.776399 114.664493 
C 29.682636 114.57073 29.555447 114.518047 29.422846 114.518047 
C 29.290244 114.518047 29.163056 114.57073 29.069292 114.664493 
C 28.975529 114.758257 28.922846 114.885445 28.922846 115.018047 
C 28.922846 115.150648 28.975529 115.277837 29.069292 115.3716 
C 29.163056 115.465364 29.290244 115.518047 29.422846 115.518047 
z
" clip-path="url(#p1cf438e21c)" style="fill: #bebebe"/>
    <path d="M 19.207342 118.887733 
C 19.339943 118.887733 19.467132 118.83505 19.560895 118.741286 
C 19.654659 118.647523 19.707342 118.520335 19.707342 118.387733 
C 19.707342 118.255132 19.654659 118.127943 19.560895 118.03418 
C 19.467132 117.940416 19.339943 117.887733 19.207342 117.887733 
C 19.07474 117.887733 18.947552 117.940416 18.853788 118.03418 
C 18.760025 118.127943 18.707342 118.255132 18.707342 118.387733 
C 18.707342 118.520335 18.760025 118.647523 18.853788 118.741286 
C 18.947552 118.83505 19.07474 118.887733 19.207342 118.887733 
z
" clip-path="url(#p1cf438e21c)" style="fill: #bebebe"/>
    <path d="M 15.305367 124.34 
C 15.437968 124.34 15.565157 124.287317 15.65892 124.193553 
C 15.752684 124.09979 15.805367 123.972602 15.805367 123.84 
C 15.805367 123.707398 15.752684 123.58021 15.65892 123.486447 
C 15.565157 123.392683 15.437968 123.34 15.305367 123.34 
C 15.172765 123.34 15.045577 123.392683 14.951813 123.486447 
C 14.85805 123.58021 14.805367 123.707398 14.805367 123.84 
C 14.805367 123.972602 14.85805 124.09979 14.951813 124.193553 
C 15.045577 124.287317 15.172765 124.34 15.305367 124.34 
z
" clip-path="url(#p1cf438e21c)" style="fill: #bebebe"/>
    <path d="M 19.207342 131.792267 
C 19.87035 131.792267 20.506292 131.528851 20.975109 131.060034 
C 21.443926 130.591217 21.707342 129.955275 21.707342 129.292267 
C 21.707342 128.629259 21.443926 127.993317 20.975109 127.5245 
C 20.506292 127.055683 19.87035 126.792267 19.207342 126.792267 
C 18.544334 126.792267 17.908392 127.055683 17.439575 127.5245 
C 16.970758 127.993317 16.707342 128.629259 16.707342 129.292267 
C 16.707342 129.955275 16.970758 130.591217 17.439575 131.060034 
C 17.908392 131.528851 18.544334 131.792267 19.207342 131.792267 
z
" clip-path="url(#p1cf438e21c)" style="fill: #bebebe"/>
    <path d="M 29.422846 135.161953 
C 30.085853 135.161953 30.721795 134.898537 31.190613 134.42972 
C 31.65943 133.960903 31.922846 133.324961 31.922846 132.661953 
C 31.922846 131.998945 31.65943 131.363004 31.190613 130.894186 
C 30.721795 130.425369 30.085853 130.161953 29.422846 130.161953 
C 28.759838 130.161953 28.123896 130.425369 27.655079 130.894186 
C 27.186261 131.363004 26.922846 131.998945 26.922846 132.661953 
C 26.922846 133.324961 27.186261 133.960903 27.655079 134.42972 
C 28.123896 134.898537 28.759838 135.161953 29.422846 135.161953 
z
" clip-path="url(#p1cf438e21c)" style="fill: #bebebe"/>
    <path d="M 42.049903 133.161953 
C 42.182504 133.161953 42.309693 133.10927 42.403456 133.015507 
C 42.497219 132.921743 42.549903 132.794555 42.549903 132.661953 
C 42.549903 132.529352 42.497219 132.402163 42.403456 132.3084 
C 42.309693 132.214636 42.182504 132.161953 42.049903 132.161953 
C 41.917301 132.161953 41.790113 132.214636 41.696349 132.3084 
C 41.602586 132.402163 41.549903 132.529352 41.549903 132.661953 
C 41.549903 132.794555 41.602586 132.921743 41.696349 133.015507 
C 41.790113 133.10927 41.917301 133.161953 42.049903 133.161953 
z
" clip-path="url(#p1cf438e21c)" style="fill: #bebebe"/>
    <path d="M 52.265406 129.792267 
C 52.398008 129.792267 52.525196 129.739584 52.61896 129.64582 
C 52.712723 129.552057 52.765406 129.424868 52.765406 129.292267 
C 52.765406 129.159665 52.712723 129.032477 52.61896 128.938714 
C 52.525196 128.84495 52.398008 128.792267 52.265406 128.792267 
C 52.132805 128.792267 52.005616 128.84495 51.911853 128.938714 
C 51.818089 129.032477 51.765406 129.159665 51.765406 129.292267 
C 51.765406 129.424868 51.818089 129.552057 51.911853 129.64582 
C 52.005616 129.739584 52.132805 129.792267 52.265406 129.792267 
z
" clip-path="url(#p1cf438e21c)" style="fill: #bebebe"/>
   </g>
   <g id="matplotlib.axis_7"/>
   <g id="matplotlib.axis_8"/>
  </g>
  <g id="axes_5">
   <g id="patch_6">
    <path d="M 10.8 169.2 
L 61.2 169.2 
L 61.2 146.16 
L 10.8 146.16 
z
" style="fill: #ffffff"/>
   </g>
   <g id="EdgeCollection_5">
    <path d="M 58.332445 158.93 
C 82.897577 171.299715 82.897577 144.060285 58.332445 156.43 
C 82.897577 144.060285 82.897577 171.299715 58.332445 158.93 
" clip-path="url(#pd06745b9b8)" style="fill: #020202"/>
    <path d="M 54.712435 155.64699 
L 52.556396 152.634335 
" clip-path="url(#pd06745b9b8)" style="fill: #020202"/>
    <path d="M 54.047286 156.355162 
L 44.169998 150.182885 
" clip-path="url(#pd06745b9b8)" style="fill: #020202; stroke: #020202; stroke-width: 0.99"/>
    <path d="M 53.793211 156.896856 
L 29.89768 149.014676 
" clip-path="url(#pd06745b9b8)" style="fill: #020202"/>
    <path d="M 53.694147 157.315154 
L 19.701989 152.300702 
" clip-path="url(#pd06745b9b8)" style="fill: #020202"/>
    <path d="M 53.667382 157.68 
L 15.805367 157.68 
" clip-path="url(#pd06745b9b8)" style="fill: #020202"/>
    <path d="M 53.694147 158.044846 
L 21.680576 162.767421 
" clip-path="url(#pd06745b9b8)" style="fill: #020202; stroke: #020202; stroke-width: 0.99"/>
    <path d="M 53.793211 158.463144 
L 31.797016 165.718809 
" clip-path="url(#pd06745b9b8)" style="fill: #020202; stroke: #020202; stroke-width: 0.99"/>
    <path d="M 54.047286 159.004838 
L 42.473922 166.236985 
" clip-path="url(#pd06745b9b8)" style="fill: #020202"/>
    <path d="M 54.712435 159.71301 
L 52.556396 162.725665 
" clip-path="url(#pd06745b9b8)" style="fill: #020202"/>
    <path d="M 52.723353 152.027022 
C 79.074288 138.763563 57.130529 122.624852 52.320559 151.730784 
C 57.130529 122.624852 79.074288 138.763563 52.723353 152.027022 
" clip-path="url(#pd06745b9b8)" style="fill: #020202"/>
    <path d="M 51.790572 152.071104 
L 44.424073 149.641191 
" clip-path="url(#pd06745b9b8)" style="fill: #020202"/>
    <path d="M 51.770759 152.154764 
L 29.917492 148.931016 
" clip-path="url(#pd06745b9b8)" style="fill: #020202"/>
    <path d="M 51.765406 152.227733 
L 19.707342 152.227733 
" clip-path="url(#pd06745b9b8)" style="fill: #020202"/>
    <path d="M 51.770759 152.300702 
L 15.800014 157.607031 
" clip-path="url(#pd06745b9b8)" style="fill: #020202"/>
    <path d="M 51.790572 152.384362 
L 21.581512 162.349123 
" clip-path="url(#pd06745b9b8)" style="fill: #020202; stroke: #020202; stroke-width: 0.99"/>
    <path d="M 51.841387 152.492701 
L 31.542941 165.177115 
" clip-path="url(#pd06745b9b8)" style="fill: #020202"/>
    <path d="M 51.974417 152.634335 
L 42.340892 166.095351 
" clip-path="url(#pd06745b9b8)" style="fill: #020202"/>
    <path d="M 52.265406 152.727733 
L 52.265406 162.632267 
" clip-path="url(#pd06745b9b8)" style="fill: #020202"/>
    <path d="M 43.627534 146.918697 
C 59.737564 124.626938 32.843071 120.30574 41.159192 146.522103 
C 32.843071 120.30574 59.737564 124.626938 43.627534 146.918697 
" clip-path="url(#pd06745b9b8)" style="fill: #020202"/>
    <path d="M 39.549903 148.858047 
L 29.922846 148.858047 
" clip-path="url(#pd06745b9b8)" style="fill: #020202; stroke: #020202; stroke-width: 0.99"/>
    <path d="M 39.576668 149.222893 
L 19.701989 152.154764 
" clip-path="url(#pd06745b9b8)" style="fill: #020202"/>
    <path d="M 39.675732 149.641191 
L 15.780201 157.523371 
" clip-path="url(#pd06745b9b8)" style="fill: #020202"/>
    <path d="M 39.929808 150.182885 
L 21.327437 161.807428 
" clip-path="url(#pd06745b9b8)" style="fill: #020202"/>
    <path d="M 40.594956 150.891057 
L 30.877792 164.468943 
" clip-path="url(#pd06745b9b8)" style="fill: #020202; stroke: #020202; stroke-width: 0.99"/>
    <path d="M 42.049903 151.358047 
L 42.049903 166.001953 
" clip-path="url(#pd06745b9b8)" style="fill: #020202"/>
    <path d="M 43.504849 150.891057 
L 51.974417 162.725665 
" clip-path="url(#pd06745b9b8)" style="fill: #020202"/>
    <path d="M 29.600988 148.390858 
C 38.629677 120.30574 11.735184 124.626938 29.107319 148.470177 
C 11.735184 124.626938 38.629677 120.30574 29.600988 148.390858 
" clip-path="url(#pd06745b9b8)" style="fill: #020202"/>
    <path d="M 28.948011 149.014676 
L 19.682176 152.071104 
" clip-path="url(#pd06745b9b8)" style="fill: #020202"/>
    <path d="M 28.998827 149.123015 
L 15.729386 157.415032 
" clip-path="url(#pd06745b9b8)" style="fill: #020202"/>
    <path d="M 29.131856 149.264649 
L 20.662288 161.099257 
" clip-path="url(#pd06745b9b8)" style="fill: #020202"/>
    <path d="M 29.422846 149.358047 
L 29.422846 164.001953 
" clip-path="url(#pd06745b9b8)" style="fill: #020202"/>
    <path d="M 29.713835 149.264649 
L 41.758913 166.095351 
" clip-path="url(#pd06745b9b8)" style="fill: #020202"/>
    <path d="M 29.846865 149.123015 
L 51.841387 162.867299 
" clip-path="url(#pd06745b9b8)" style="fill: #020202"/>
    <path d="M 19.152189 151.730784 
C 14.342219 122.624852 -7.601539 138.763563 18.749395 152.027022 
C -7.601539 138.763563 14.342219 122.624852 19.152189 151.730784 
" clip-path="url(#pd06745b9b8)" style="fill: #020202"/>
    <path d="M 18.916353 152.634335 
L 15.596356 157.273398 
" clip-path="url(#pd06745b9b8)" style="fill: #020202"/>
    <path d="M 19.207342 152.727733 
L 19.207342 160.632267 
" clip-path="url(#pd06745b9b8)" style="fill: #020202"/>
    <path d="M 19.498331 152.634335 
L 27.967899 164.468943 
" clip-path="url(#pd06745b9b8)" style="fill: #020202"/>
    <path d="M 19.631361 152.492701 
L 41.625884 166.236985 
" clip-path="url(#pd06745b9b8)" style="fill: #020202"/>
    <path d="M 19.682176 152.384362 
L 51.790572 162.975638 
" clip-path="url(#pd06745b9b8)" style="fill: #020202"/>
    <path d="M 14.872354 157.43 
C -11.424829 144.060285 -11.424829 171.299715 14.872354 157.93 
C -11.424829 171.299715 -11.424829 144.060285 14.872354 157.43 
" clip-path="url(#pd06745b9b8)" style="fill: #020202"/>
    <path d="M 15.596356 158.086602 
L 17.752396 161.099257 
" clip-path="url(#pd06745b9b8)" style="fill: #020202"/>
    <path d="M 15.729386 157.944968 
L 27.302751 165.177115 
" clip-path="url(#pd06745b9b8)" style="fill: #020202"/>
    <path d="M 15.780201 157.836629 
L 41.575069 166.345324 
" clip-path="url(#pd06745b9b8)" style="fill: #020202"/>
    <path d="M 15.800014 157.752969 
L 51.770759 163.059298 
" clip-path="url(#pd06745b9b8)" style="fill: #020202"/>
    <path d="M 16.917608 164.135821 
C -7.601539 176.596437 14.342219 192.735148 18.931579 165.617011 
C 14.342219 192.735148 -7.601539 176.596437 16.917608 164.135821 
" clip-path="url(#pd06745b9b8)" style="fill: #020202"/>
    <path d="M 21.581512 163.915411 
L 27.048675 165.718809 
" clip-path="url(#pd06745b9b8)" style="fill: #020202"/>
    <path d="M 21.680576 163.497113 
L 41.555256 166.428984 
" clip-path="url(#pd06745b9b8)" style="fill: #020202; stroke: #020202; stroke-width: 0.99"/>
    <path d="M 21.707342 163.132267 
L 51.765406 163.132267 
" clip-path="url(#pd06745b9b8)" style="fill: #020202"/>
    <path d="M 27.845214 168.441303 
C 11.735184 190.733062 38.629677 195.05426 30.313556 168.837897 
C 38.629677 195.05426 11.735184 190.733062 27.845214 168.441303 
" clip-path="url(#pd06745b9b8)" style="fill: #020202"/>
    <path d="M 31.922846 166.501953 
L 41.549903 166.501953 
" clip-path="url(#pd06745b9b8)" style="fill: #020202"/>
    <path d="M 31.89608 166.137107 
L 51.770759 163.205236 
" clip-path="url(#pd06745b9b8)" style="fill: #020202; stroke: #020202; stroke-width: 0.99"/>
    <path d="M 41.87176 166.969142 
C 32.843071 195.05426 59.737564 190.733062 42.365429 166.889823 
C 59.737564 190.733062 32.843071 195.05426 41.87176 166.969142 
" clip-path="url(#pd06745b9b8)" style="fill: #020202"/>
    <path d="M 42.524737 166.345324 
L 51.790572 163.288896 
" clip-path="url(#pd06745b9b8)" style="fill: #020202; stroke: #020202; stroke-width: 0.99"/>
    <path d="M 52.320559 163.629216 
C 57.130529 192.735148 79.074288 176.596437 52.723353 163.332978 
C 79.074288 176.596437 57.130529 192.735148 52.320559 163.629216 
" clip-path="url(#pd06745b9b8)" style="fill: #020202"/>
   </g>
   <g id="VertexCollection_5">
    <path d="M 56.167382 160.18 
C 56.830389 160.18 57.466331 159.916584 57.935148 159.447767 
C 58.403966 158.97895 58.667382 158.343008 58.667382 157.68 
C 58.667382 157.016992 58.403966 156.38105 57.935148 155.912233 
C 57.466331 155.443416 56.830389 155.18 56.167382 155.18 
C 55.504374 155.18 54.868432 155.443416 54.399615 155.912233 
C 53.930797 156.38105 53.667382 157.016992 53.667382 157.68 
C 53.667382 158.343008 53.930797 158.97895 54.399615 159.447767 
C 54.868432 159.916584 55.504374 160.18 56.167382 160.18 
z
" clip-path="url(#pd06745b9b8)" style="fill: #bebebe"/>
    <path d="M 52.265406 152.727733 
C 52.398008 152.727733 52.525196 152.67505 52.61896 152.581286 
C 52.712723 152.487523 52.765406 152.360335 52.765406 152.227733 
C 52.765406 152.095132 52.712723 151.967943 52.61896 151.87418 
C 52.525196 151.780416 52.398008 151.727733 52.265406 151.727733 
C 52.132805 151.727733 52.005616 151.780416 51.911853 151.87418 
C 51.818089 151.967943 51.765406 152.095132 51.765406 152.227733 
C 51.765406 152.360335 51.818089 152.487523 51.911853 152.581286 
C 52.005616 152.67505 52.132805 152.727733 52.265406 152.727733 
z
" clip-path="url(#pd06745b9b8)" style="fill: #bebebe"/>
    <path d="M 42.049903 151.358047 
C 42.71291 151.358047 43.348852 151.094631 43.81767 150.625814 
C 44.286487 150.156996 44.549903 149.521055 44.549903 148.858047 
C 44.549903 148.195039 44.286487 147.559097 43.81767 147.09028 
C 43.348852 146.621463 42.71291 146.358047 42.049903 146.358047 
C 41.386895 146.358047 40.750953 146.621463 40.282136 147.09028 
C 39.813318 147.559097 39.549903 148.195039 39.549903 148.858047 
C 39.549903 149.521055 39.813318 150.156996 40.282136 150.625814 
C 40.750953 151.094631 41.386895 151.358047 42.049903 151.358047 
z
" clip-path="url(#pd06745b9b8)" style="fill: #bebebe"/>
    <path d="M 29.422846 149.358047 
C 29.555447 149.358047 29.682636 149.305364 29.776399 149.2116 
C 29.870162 149.117837 29.922846 148.990648 29.922846 148.858047 
C 29.922846 148.725445 29.870162 148.598257 29.776399 148.504493 
C 29.682636 148.41073 29.555447 148.358047 29.422846 148.358047 
C 29.290244 148.358047 29.163056 148.41073 29.069292 148.504493 
C 28.975529 148.598257 28.922846 148.725445 28.922846 148.858047 
C 28.922846 148.990648 28.975529 149.117837 29.069292 149.2116 
C 29.163056 149.305364 29.290244 149.358047 29.422846 149.358047 
z
" clip-path="url(#pd06745b9b8)" style="fill: #bebebe"/>
    <path d="M 19.207342 152.727733 
C 19.339943 152.727733 19.467132 152.67505 19.560895 152.581286 
C 19.654659 152.487523 19.707342 152.360335 19.707342 152.227733 
C 19.707342 152.095132 19.654659 151.967943 19.560895 151.87418 
C 19.467132 151.780416 19.339943 151.727733 19.207342 151.727733 
C 19.07474 151.727733 18.947552 151.780416 18.853788 151.87418 
C 18.760025 151.967943 18.707342 152.095132 18.707342 152.227733 
C 18.707342 152.360335 18.760025 152.487523 18.853788 152.581286 
C 18.947552 152.67505 19.07474 152.727733 19.207342 152.727733 
z
" clip-path="url(#pd06745b9b8)" style="fill: #bebebe"/>
    <path d="M 15.305367 158.18 
C 15.437968 158.18 15.565157 158.127317 15.65892 158.033553 
C 15.752684 157.93979 15.805367 157.812602 15.805367 157.68 
C 15.805367 157.547398 15.752684 157.42021 15.65892 157.326447 
C 15.565157 157.232683 15.437968 157.18 15.305367 157.18 
C 15.172765 157.18 15.045577 157.232683 14.951813 157.326447 
C 14.85805 157.42021 14.805367 157.547398 14.805367 157.68 
C 14.805367 157.812602 14.85805 157.93979 14.951813 158.033553 
C 15.045577 158.127317 15.172765 158.18 15.305367 158.18 
z
" clip-path="url(#pd06745b9b8)" style="fill: #bebebe"/>
    <path d="M 19.207342 165.632267 
C 19.87035 165.632267 20.506292 165.368851 20.975109 164.900034 
C 21.443926 164.431217 21.707342 163.795275 21.707342 163.132267 
C 21.707342 162.469259 21.443926 161.833317 20.975109 161.3645 
C 20.506292 160.895683 19.87035 160.632267 19.207342 160.632267 
C 18.544334 160.632267 17.908392 160.895683 17.439575 161.3645 
C 16.970758 161.833317 16.707342 162.469259 16.707342 163.132267 
C 16.707342 163.795275 16.970758 164.431217 17.439575 164.900034 
C 17.908392 165.368851 18.544334 165.632267 19.207342 165.632267 
z
" clip-path="url(#pd06745b9b8)" style="fill: #bebebe"/>
    <path d="M 29.422846 169.001953 
C 30.085853 169.001953 30.721795 168.738537 31.190613 168.26972 
C 31.65943 167.800903 31.922846 167.164961 31.922846 166.501953 
C 31.922846 165.838945 31.65943 165.203004 31.190613 164.734186 
C 30.721795 164.265369 30.085853 164.001953 29.422846 164.001953 
C 28.759838 164.001953 28.123896 164.265369 27.655079 164.734186 
C 27.186261 165.203004 26.922846 165.838945 26.922846 166.501953 
C 26.922846 167.164961 27.186261 167.800903 27.655079 168.26972 
C 28.123896 168.738537 28.759838 169.001953 29.422846 169.001953 
z
" clip-path="url(#pd06745b9b8)" style="fill: #bebebe"/>
    <path d="M 42.049903 167.001953 
C 42.182504 167.001953 42.309693 166.94927 42.403456 166.855507 
C 42.497219 166.761743 42.549903 166.634555 42.549903 166.501953 
C 42.549903 166.369352 42.497219 166.242163 42.403456 166.1484 
C 42.309693 166.054636 42.182504 166.001953 42.049903 166.001953 
C 41.917301 166.001953 41.790113 166.054636 41.696349 166.1484 
C 41.602586 166.242163 41.549903 166.369352 41.549903 166.501953 
C 41.549903 166.634555 41.602586 166.761743 41.696349 166.855507 
C 41.790113 166.94927 41.917301 167.001953 42.049903 167.001953 
z
" clip-path="url(#pd06745b9b8)" style="fill: #bebebe"/>
    <path d="M 52.265406 163.632267 
C 52.398008 163.632267 52.525196 163.579584 52.61896 163.48582 
C 52.712723 163.392057 52.765406 163.264868 52.765406 163.132267 
C 52.765406 162.999665 52.712723 162.872477 52.61896 162.778714 
C 52.525196 162.68495 52.398008 162.632267 52.265406 162.632267 
C 52.132805 162.632267 52.005616 162.68495 51.911853 162.778714 
C 51.818089 162.872477 51.765406 162.999665 51.765406 163.132267 
C 51.765406 163.264868 51.818089 163.392057 51.911853 163.48582 
C 52.005616 163.579584 52.132805 163.632267 52.265406 163.632267 
z
" clip-path="url(#pd06745b9b8)" style="fill: #bebebe"/>
   </g>
   <g id="matplotlib.axis_9"/>
   <g id="matplotlib.axis_10"/>
  </g>
 </g>
 <defs>
  <clipPath id="p33bbcf1f2f">
   <rect x="10.8" y="10.8" width="50.4" height="23.04"/>
  </clipPath>
  <clipPath id="p5d58b35850">
   <rect x="10.8" y="44.64" width="50.4" height="23.04"/>
  </clipPath>
  <clipPath id="p06ed19b2ba">
   <rect x="10.8" y="78.48" width="50.4" height="23.04"/>
  </clipPath>
  <clipPath id="p1cf438e21c">
   <rect x="10.8" y="112.32" width="50.4" height="23.04"/>
  </clipPath>
  <clipPath id="pd06745b9b8">
   <rect x="10.8" y="146.16" width="50.4" height="23.04"/>
  </clipPath>
 </defs>
</svg>
