<?xml version="1.0" encoding="utf-8" standalone="no"?>
<!DOCTYPE svg PUBLIC "-//W3C//DTD SVG 1.1//EN"
  "http://www.w3.org/Graphics/SVG/1.1/DTD/svg11.dtd">
<svg xmlns:xlink="http://www.w3.org/1999/xlink" width="72pt" height="180pt" viewBox="0 0 72 180" xmlns="http://www.w3.org/2000/svg" version="1.1">
 <metadata>
  <rdf:RDF xmlns:dc="http://purl.org/dc/elements/1.1/" xmlns:cc="http://creativecommons.org/ns#" xmlns:rdf="http://www.w3.org/1999/02/22-rdf-syntax-ns#">
   <cc:Work>
    <dc:type rdf:resource="http://purl.org/dc/dcmitype/StillImage"/>
    <dc:date>2025-06-06T16:53:33.313832</dc:date>
    <dc:format>image/svg+xml</dc:format>
    <dc:creator>
     <cc:Agent>
      <dc:title>Matplotlib v3.9.2, https://matplotlib.org/</dc:title>
     </cc:Agent>
    </dc:creator>
   </cc:Work>
  </rdf:RDF>
 </metadata>
 <defs>
  <style type="text/css">*{stroke-linejoin: round; stroke-linecap: butt}</style>
 </defs>
 <g id="figure_1">
  <g id="patch_1">
   <path d="M 0 180 
L 72 180 
L 72 0 
L 0 0 
z
" style="fill: #ffffff"/>
  </g>
  <g id="axes_1">
   <g id="patch_2">
    <path d="M 10.8 33.84 
L 61.2 33.84 
L 61.2 10.8 
L 10.8 10.8 
z
" style="fill: #ffffff"/>
   </g>
   <g id="EdgeCollection_1">
    <path d="M 58.332445 23.857936 
C 82.897577 36.227651 82.897577 8.988221 58.332445 21.357936 
C 82.897577 8.988221 82.897577 36.227651 58.332445 23.857936 
" clip-path="url(#p4c8a3d83dc)" style="fill: #020202"/>
    <path d="M 54.741104 20.554711 
L 52.550662 17.401419 
" clip-path="url(#p4c8a3d83dc)" style="fill: #020202"/>
    <path d="M 54.065332 21.254648 
L 44.151952 14.872466 
" clip-path="url(#p4c8a3d83dc)" style="fill: #020202; stroke: #020202; stroke-width: 0.99"/>
    <path d="M 53.800331 21.803527 
L 31.789896 14.323587 
" clip-path="url(#p4c8a3d83dc)" style="fill: #020202"/>
    <path d="M 53.695763 22.232301 
L 19.701666 17.065901 
" clip-path="url(#p4c8a3d83dc)" style="fill: #020202"/>
    <path d="M 53.667382 22.607936 
L 15.805367 22.607936 
" clip-path="url(#p4c8a3d83dc)" style="fill: #020202"/>
    <path d="M 53.695763 22.983571 
L 21.67896 27.849462 
" clip-path="url(#p4c8a3d83dc)" style="fill: #020202; stroke: #020202; stroke-width: 0.99"/>
    <path d="M 53.800331 23.412345 
L 29.896256 31.535812 
" clip-path="url(#p4c8a3d83dc)" style="fill: #020202; stroke: #020202; stroke-width: 0.99"/>
    <path d="M 54.065332 23.961224 
L 42.470312 31.426036 
" clip-path="url(#p4c8a3d83dc)" style="fill: #020202"/>
    <path d="M 54.741104 24.66116 
L 52.550662 27.814452 
" clip-path="url(#p4c8a3d83dc)" style="fill: #020202"/>
    <path d="M 52.725631 16.795344 
C 79.227361 3.835814 57.470659 -12.554197 52.326271 16.494493 
C 57.470659 -12.554197 79.227361 3.835814 52.725631 16.795344 
" clip-path="url(#p4c8a3d83dc)" style="fill: #020202"/>
    <path d="M 51.791996 16.829893 
L 44.416953 14.323587 
" clip-path="url(#p4c8a3d83dc)" style="fill: #020202"/>
    <path d="M 51.771083 16.915648 
L 31.894464 13.894813 
" clip-path="url(#p4c8a3d83dc)" style="fill: #020202"/>
    <path d="M 51.765406 16.990775 
L 19.707342 16.990775 
" clip-path="url(#p4c8a3d83dc)" style="fill: #020202"/>
    <path d="M 51.771083 17.065901 
L 15.79969 22.532809 
" clip-path="url(#p4c8a3d83dc)" style="fill: #020202; stroke: #020202; stroke-width: 0.99"/>
    <path d="M 51.791996 17.151656 
L 21.574392 27.420688 
" clip-path="url(#p4c8a3d83dc)" style="fill: #020202"/>
    <path d="M 51.844996 17.261432 
L 29.843255 31.426036 
" clip-path="url(#p4c8a3d83dc)" style="fill: #020202"/>
    <path d="M 51.980151 17.401419 
L 42.335158 31.286048 
" clip-path="url(#p4c8a3d83dc)" style="fill: #020202"/>
    <path d="M 52.265406 17.490775 
L 52.265406 27.725097 
" clip-path="url(#p4c8a3d83dc)" style="fill: #020202"/>
    <path d="M 43.636217 11.586923 
C 59.846065 -10.632356 32.971223 -15.074136 41.169678 11.179262 
C 32.971223 -15.074136 59.846065 -10.632356 43.636217 11.586923 
" clip-path="url(#p4c8a3d83dc)" style="fill: #020202"/>
    <path d="M 39.549903 13.519178 
L 31.922846 13.519178 
" clip-path="url(#p4c8a3d83dc)" style="fill: #020202; stroke: #020202; stroke-width: 0.99"/>
    <path d="M 39.578284 13.894813 
L 19.701666 16.915648 
" clip-path="url(#p4c8a3d83dc)" style="fill: #020202"/>
    <path d="M 39.682853 14.323587 
L 15.778777 22.447054 
" clip-path="url(#p4c8a3d83dc)" style="fill: #020202"/>
    <path d="M 39.947853 14.872466 
L 21.309391 26.871809 
" clip-path="url(#p4c8a3d83dc)" style="fill: #020202"/>
    <path d="M 40.623625 15.572403 
L 29.708101 31.286048 
" clip-path="url(#p4c8a3d83dc)" style="fill: #020202; stroke: #020202; stroke-width: 0.99"/>
    <path d="M 42.049903 16.019178 
L 42.049903 31.196693 
" clip-path="url(#p4c8a3d83dc)" style="fill: #020202"/>
    <path d="M 43.47618 15.572403 
L 51.980151 27.814452 
" clip-path="url(#p4c8a3d83dc)" style="fill: #020202"/>
    <path d="M 30.30307 11.179262 
C 38.501525 -15.074136 11.626683 -10.632356 27.836532 11.586923 
C 11.626683 -10.632356 38.501525 -15.074136 30.30307 11.179262 
" clip-path="url(#p4c8a3d83dc)" style="fill: #020202"/>
    <path d="M 27.055795 14.323587 
L 19.680752 16.829893 
" clip-path="url(#p4c8a3d83dc)" style="fill: #020202; stroke: #020202; stroke-width: 0.99"/>
    <path d="M 27.320796 14.872466 
L 15.725777 22.337278 
" clip-path="url(#p4c8a3d83dc)" style="fill: #020202"/>
    <path d="M 27.996568 15.572403 
L 20.63362 26.171872 
" clip-path="url(#p4c8a3d83dc)" style="fill: #020202"/>
    <path d="M 29.422846 16.019178 
L 29.422846 31.196693 
" clip-path="url(#p4c8a3d83dc)" style="fill: #020202"/>
    <path d="M 30.849123 15.572403 
L 41.764647 31.286048 
" clip-path="url(#p4c8a3d83dc)" style="fill: #020202"/>
    <path d="M 31.524895 14.872466 
L 51.844996 27.954439 
" clip-path="url(#p4c8a3d83dc)" style="fill: #020202; stroke: #020202; stroke-width: 0.99"/>
    <path d="M 19.146478 16.494493 
C 14.002089 -12.554197 -7.754613 3.835814 18.747117 16.795344 
C -7.754613 3.835814 14.002089 -12.554197 19.146478 16.494493 
" clip-path="url(#p4c8a3d83dc)" style="fill: #020202"/>
    <path d="M 18.922086 17.401419 
L 15.590622 22.197291 
" clip-path="url(#p4c8a3d83dc)" style="fill: #020202"/>
    <path d="M 19.207342 17.490775 
L 19.207342 25.725097 
" clip-path="url(#p4c8a3d83dc)" style="fill: #020202"/>
    <path d="M 19.492597 17.401419 
L 29.13759 31.286048 
" clip-path="url(#p4c8a3d83dc)" style="fill: #020202"/>
    <path d="M 19.627752 17.261432 
L 41.629493 31.426036 
" clip-path="url(#p4c8a3d83dc)" style="fill: #020202"/>
    <path d="M 19.680752 17.151656 
L 51.791996 28.064215 
" clip-path="url(#p4c8a3d83dc)" style="fill: #020202"/>
    <path d="M 14.872354 22.357936 
C -11.424829 8.988221 -11.424829 36.227651 14.872354 22.857936 
C -11.424829 36.227651 -11.424829 8.988221 14.872354 22.357936 
" clip-path="url(#p4c8a3d83dc)" style="fill: #020202"/>
    <path d="M 15.590622 23.018581 
L 17.781064 26.171872 
" clip-path="url(#p4c8a3d83dc)" style="fill: #020202; stroke: #020202; stroke-width: 0.99"/>
    <path d="M 15.725777 22.878593 
L 29.002436 31.426036 
" clip-path="url(#p4c8a3d83dc)" style="fill: #020202"/>
    <path d="M 15.778777 22.768817 
L 41.576493 31.535812 
" clip-path="url(#p4c8a3d83dc)" style="fill: #020202"/>
    <path d="M 15.79969 22.683063 
L 51.771083 28.14997 
" clip-path="url(#p4c8a3d83dc)" style="fill: #020202"/>
    <path d="M 16.906218 29.202251 
C -7.754613 41.380057 14.002089 57.770068 18.903021 30.706505 
C 14.002089 57.770068 -7.754613 41.380057 16.906218 29.202251 
" clip-path="url(#p4c8a3d83dc)" style="fill: #020202"/>
    <path d="M 21.574392 29.029506 
L 28.949436 31.535812 
" clip-path="url(#p4c8a3d83dc)" style="fill: #020202"/>
    <path d="M 21.67896 28.600732 
L 41.555579 31.621566 
" clip-path="url(#p4c8a3d83dc)" style="fill: #020202; stroke: #020202; stroke-width: 0.99"/>
    <path d="M 21.707342 28.225097 
L 51.765406 28.225097 
" clip-path="url(#p4c8a3d83dc)" style="fill: #020202"/>
    <path d="M 29.105583 32.083144 
C 11.626683 55.848227 38.501525 60.290007 29.598891 32.164676 
C 38.501525 60.290007 11.626683 55.848227 29.105583 32.083144 
" clip-path="url(#p4c8a3d83dc)" style="fill: #020202"/>
    <path d="M 29.922846 31.696693 
L 41.549903 31.696693 
" clip-path="url(#p4c8a3d83dc)" style="fill: #020202"/>
    <path d="M 29.917169 31.621566 
L 51.771083 28.300224 
" clip-path="url(#p4c8a3d83dc)" style="fill: #020202"/>
    <path d="M 41.873858 32.164676 
C 32.971223 60.290007 59.846065 55.848227 42.367165 32.083144 
C 59.846065 55.848227 32.971223 60.290007 41.873858 32.164676 
" clip-path="url(#p4c8a3d83dc)" style="fill: #020202"/>
    <path d="M 42.523313 31.535812 
L 51.791996 28.385979 
" clip-path="url(#p4c8a3d83dc)" style="fill: #020202; stroke: #020202; stroke-width: 0.99"/>
    <path d="M 52.326271 28.721379 
C 57.470659 57.770068 79.227361 41.380057 52.725631 28.420528 
C 79.227361 41.380057 57.470659 57.770068 52.326271 28.721379 
" clip-path="url(#p4c8a3d83dc)" style="fill: #020202"/>
   </g>
   <g id="VertexCollection_1">
    <path d="M 56.167382 25.107936 
C 56.830389 25.107936 57.466331 24.84452 57.935148 24.375703 
C 58.403966 23.906885 58.667382 23.270943 58.667382 22.607936 
C 58.667382 21.944928 58.403966 21.308986 57.935148 20.840169 
C 57.466331 20.371351 56.830389 20.107936 56.167382 20.107936 
C 55.504374 20.107936 54.868432 20.371351 54.399615 20.840169 
C 53.930797 21.308986 53.667382 21.944928 53.667382 22.607936 
C 53.667382 23.270943 53.930797 23.906885 54.399615 24.375703 
C 54.868432 24.84452 55.504374 25.107936 56.167382 25.107936 
z
" clip-path="url(#p4c8a3d83dc)" style="fill: #bebebe"/>
    <path d="M 52.265406 17.490775 
C 52.398008 17.490775 52.525196 17.438091 52.61896 17.344328 
C 52.712723 17.250564 52.765406 17.123376 52.765406 16.990775 
C 52.765406 16.858173 52.712723 16.730985 52.61896 16.637221 
C 52.525196 16.543458 52.398008 16.490775 52.265406 16.490775 
C 52.132805 16.490775 52.005616 16.543458 51.911853 16.637221 
C 51.818089 16.730985 51.765406 16.858173 51.765406 16.990775 
C 51.765406 17.123376 51.818089 17.250564 51.911853 17.344328 
C 52.005616 17.438091 52.132805 17.490775 52.265406 17.490775 
z
" clip-path="url(#p4c8a3d83dc)" style="fill: #bebebe"/>
    <path d="M 42.049903 16.019178 
C 42.71291 16.019178 43.348852 15.755762 43.81767 15.286945 
C 44.286487 14.818128 44.549903 14.182186 44.549903 13.519178 
C 44.549903 12.85617 44.286487 12.220228 43.81767 11.751411 
C 43.348852 11.282594 42.71291 11.019178 42.049903 11.019178 
C 41.386895 11.019178 40.750953 11.282594 40.282136 11.751411 
C 39.813318 12.220228 39.549903 12.85617 39.549903 13.519178 
C 39.549903 14.182186 39.813318 14.818128 40.282136 15.286945 
C 40.750953 15.755762 41.386895 16.019178 42.049903 16.019178 
z
" clip-path="url(#p4c8a3d83dc)" style="fill: #bebebe"/>
    <path d="M 29.422846 16.019178 
C 30.085853 16.019178 30.721795 15.755762 31.190613 15.286945 
C 31.65943 14.818128 31.922846 14.182186 31.922846 13.519178 
C 31.922846 12.85617 31.65943 12.220228 31.190613 11.751411 
C 30.721795 11.282594 30.085853 11.019178 29.422846 11.019178 
C 28.759838 11.019178 28.123896 11.282594 27.655079 11.751411 
C 27.186261 12.220228 26.922846 12.85617 26.922846 13.519178 
C 26.922846 14.182186 27.186261 14.818128 27.655079 15.286945 
C 28.123896 15.755762 28.759838 16.019178 29.422846 16.019178 
z
" clip-path="url(#p4c8a3d83dc)" style="fill: #bebebe"/>
    <path d="M 19.207342 17.490775 
C 19.339943 17.490775 19.467132 17.438091 19.560895 17.344328 
C 19.654659 17.250564 19.707342 17.123376 19.707342 16.990775 
C 19.707342 16.858173 19.654659 16.730985 19.560895 16.637221 
C 19.467132 16.543458 19.339943 16.490775 19.207342 16.490775 
C 19.07474 16.490775 18.947552 16.543458 18.853788 16.637221 
C 18.760025 16.730985 18.707342 16.858173 18.707342 16.990775 
C 18.707342 17.123376 18.760025 17.250564 18.853788 17.344328 
C 18.947552 17.438091 19.07474 17.490775 19.207342 17.490775 
z
" clip-path="url(#p4c8a3d83dc)" style="fill: #bebebe"/>
    <path d="M 15.305367 23.107936 
C 15.437968 23.107936 15.565157 23.055253 15.65892 22.961489 
C 15.752684 22.867726 15.805367 22.740537 15.805367 22.607936 
C 15.805367 22.475334 15.752684 22.348146 15.65892 22.254382 
C 15.565157 22.160619 15.437968 22.107936 15.305367 22.107936 
C 15.172765 22.107936 15.045577 22.160619 14.951813 22.254382 
C 14.85805 22.348146 14.805367 22.475334 14.805367 22.607936 
C 14.805367 22.740537 14.85805 22.867726 14.951813 22.961489 
C 15.045577 23.055253 15.172765 23.107936 15.305367 23.107936 
z
" clip-path="url(#p4c8a3d83dc)" style="fill: #bebebe"/>
    <path d="M 19.207342 30.725097 
C 19.87035 30.725097 20.506292 30.461681 20.975109 29.992864 
C 21.443926 29.524046 21.707342 28.888105 21.707342 28.225097 
C 21.707342 27.562089 21.443926 26.926147 20.975109 26.45733 
C 20.506292 25.988513 19.87035 25.725097 19.207342 25.725097 
C 18.544334 25.725097 17.908392 25.988513 17.439575 26.45733 
C 16.970758 26.926147 16.707342 27.562089 16.707342 28.225097 
C 16.707342 28.888105 16.970758 29.524046 17.439575 29.992864 
C 17.908392 30.461681 18.544334 30.725097 19.207342 30.725097 
z
" clip-path="url(#p4c8a3d83dc)" style="fill: #bebebe"/>
    <path d="M 29.422846 32.196693 
C 29.555447 32.196693 29.682636 32.14401 29.776399 32.050247 
C 29.870162 31.956483 29.922846 31.829295 29.922846 31.696693 
C 29.922846 31.564092 29.870162 31.436903 29.776399 31.34314 
C 29.682636 31.249376 29.555447 31.196693 29.422846 31.196693 
C 29.290244 31.196693 29.163056 31.249376 29.069292 31.34314 
C 28.975529 31.436903 28.922846 31.564092 28.922846 31.696693 
C 28.922846 31.829295 28.975529 31.956483 29.069292 32.050247 
C 29.163056 32.14401 29.290244 32.196693 29.422846 32.196693 
z
" clip-path="url(#p4c8a3d83dc)" style="fill: #bebebe"/>
    <path d="M 42.049903 32.196693 
C 42.182504 32.196693 42.309693 32.14401 42.403456 32.050247 
C 42.497219 31.956483 42.549903 31.829295 42.549903 31.696693 
C 42.549903 31.564092 42.497219 31.436903 42.403456 31.34314 
C 42.309693 31.249376 42.182504 31.196693 42.049903 31.196693 
C 41.917301 31.196693 41.790113 31.249376 41.696349 31.34314 
C 41.602586 31.436903 41.549903 31.564092 41.549903 31.696693 
C 41.549903 31.829295 41.602586 31.956483 41.696349 32.050247 
C 41.790113 32.14401 41.917301 32.196693 42.049903 32.196693 
z
" clip-path="url(#p4c8a3d83dc)" style="fill: #bebebe"/>
    <path d="M 52.265406 28.725097 
C 52.398008 28.725097 52.525196 28.672414 52.61896 28.57865 
C 52.712723 28.484887 52.765406 28.357698 52.765406 28.225097 
C 52.765406 28.092495 52.712723 27.965307 52.61896 27.871543 
C 52.525196 27.77778 52.398008 27.725097 52.265406 27.725097 
C 52.132805 27.725097 52.005616 27.77778 51.911853 27.871543 
C 51.818089 27.965307 51.765406 28.092495 51.765406 28.225097 
C 51.765406 28.357698 51.818089 28.484887 51.911853 28.57865 
C 52.005616 28.672414 52.132805 28.725097 52.265406 28.725097 
z
" clip-path="url(#p4c8a3d83dc)" style="fill: #bebebe"/>
   </g>
   <g id="matplotlib.axis_1"/>
   <g id="matplotlib.axis_2"/>
  </g>
  <g id="axes_2">
   <g id="patch_3">
    <path d="M 10.8 67.68 
L 61.2 67.68 
L 61.2 44.64 
L 10.8 44.64 
z
" style="fill: #ffffff"/>
   </g>
   <g id="EdgeCollection_2">
    <path d="M 58.332445 57.122064 
C 82.897577 69.491779 82.897577 42.252349 58.332445 54.622064 
C 82.897577 42.252349 82.897577 69.491779 58.332445 57.122064 
" clip-path="url(#pa2eed49812)" style="fill: #020202"/>
    <path d="M 54.741104 53.81884 
L 52.550662 50.665548 
" clip-path="url(#pa2eed49812)" style="fill: #020202"/>
    <path d="M 54.065332 54.518776 
L 42.470312 47.053964 
" clip-path="url(#pa2eed49812)" style="fill: #020202; stroke: #020202; stroke-width: 0.99"/>
    <path d="M 53.800331 55.067655 
L 29.896256 46.944188 
" clip-path="url(#pa2eed49812)" style="fill: #020202"/>
    <path d="M 53.695763 55.496429 
L 21.67896 50.630538 
" clip-path="url(#pa2eed49812)" style="fill: #020202; stroke: #020202; stroke-width: 0.99"/>
    <path d="M 53.667382 55.872064 
L 15.805367 55.872064 
" clip-path="url(#pa2eed49812)" style="fill: #020202"/>
    <path d="M 53.695763 56.247699 
L 21.67896 61.113591 
" clip-path="url(#pa2eed49812)" style="fill: #020202"/>
    <path d="M 53.800331 56.676473 
L 31.789896 64.156413 
" clip-path="url(#pa2eed49812)" style="fill: #020202; stroke: #020202; stroke-width: 0.99"/>
    <path d="M 54.065332 57.225352 
L 44.151952 63.607534 
" clip-path="url(#pa2eed49812)" style="fill: #020202"/>
    <path d="M 54.741104 57.925289 
L 53.691684 59.436001 
" clip-path="url(#pa2eed49812)" style="fill: #020202"/>
    <path d="M 52.725631 50.059472 
C 79.227361 37.099943 57.470659 20.709932 52.326271 49.758621 
C 57.470659 20.709932 79.227361 37.099943 52.725631 50.059472 
" clip-path="url(#pa2eed49812)" style="fill: #020202"/>
    <path d="M 51.791996 50.094021 
L 42.523313 46.944188 
" clip-path="url(#pa2eed49812)" style="fill: #020202"/>
    <path d="M 51.771083 50.179776 
L 29.917169 46.858434 
" clip-path="url(#pa2eed49812)" style="fill: #020202"/>
    <path d="M 51.765406 50.254903 
L 21.707342 50.254903 
" clip-path="url(#pa2eed49812)" style="fill: #020202"/>
    <path d="M 51.771083 50.33003 
L 15.79969 55.796937 
" clip-path="url(#pa2eed49812)" style="fill: #020202"/>
    <path d="M 51.791996 50.415785 
L 21.574392 60.684817 
" clip-path="url(#pa2eed49812)" style="fill: #020202; stroke: #020202; stroke-width: 0.99"/>
    <path d="M 51.844996 50.525561 
L 31.524895 63.607534 
" clip-path="url(#pa2eed49812)" style="fill: #020202"/>
    <path d="M 51.980151 50.665548 
L 43.47618 62.907597 
" clip-path="url(#pa2eed49812)" style="fill: #020202"/>
    <path d="M 52.265406 50.754903 
L 52.265406 58.989225 
" clip-path="url(#pa2eed49812)" style="fill: #020202; stroke: #020202; stroke-width: 0.99"/>
    <path d="M 42.367165 46.396856 
C 59.846065 22.631773 32.971223 18.189993 41.873858 46.315324 
C 32.971223 18.189993 59.846065 22.631773 42.367165 46.396856 
" clip-path="url(#pa2eed49812)" style="fill: #020202"/>
    <path d="M 41.549903 46.783307 
L 29.922846 46.783307 
" clip-path="url(#pa2eed49812)" style="fill: #020202"/>
    <path d="M 41.555579 46.858434 
L 21.67896 49.879268 
" clip-path="url(#pa2eed49812)" style="fill: #020202"/>
    <path d="M 41.576493 46.944188 
L 15.778777 55.711183 
" clip-path="url(#pa2eed49812)" style="fill: #020202"/>
    <path d="M 41.629493 47.053964 
L 21.309391 60.135937 
" clip-path="url(#pa2eed49812)" style="fill: #020202"/>
    <path d="M 41.764647 47.193952 
L 30.849123 62.907597 
" clip-path="url(#pa2eed49812)" style="fill: #020202; stroke: #020202; stroke-width: 0.99"/>
    <path d="M 42.049903 47.283307 
L 42.049903 62.460822 
" clip-path="url(#pa2eed49812)" style="fill: #020202"/>
    <path d="M 42.335158 47.193952 
L 50.839129 59.436001 
" clip-path="url(#pa2eed49812)" style="fill: #020202"/>
    <path d="M 29.598891 46.315324 
C 38.501525 18.189993 11.626683 22.631773 29.105583 46.396856 
C 11.626683 22.631773 38.501525 18.189993 29.598891 46.315324 
" clip-path="url(#pa2eed49812)" style="fill: #020202"/>
    <path d="M 28.949436 46.944188 
L 21.574392 49.450494 
" clip-path="url(#pa2eed49812)" style="fill: #020202; stroke: #020202; stroke-width: 0.99"/>
    <path d="M 29.002436 47.053964 
L 15.725777 55.601407 
" clip-path="url(#pa2eed49812)" style="fill: #020202"/>
    <path d="M 29.13759 47.193952 
L 20.63362 59.436001 
" clip-path="url(#pa2eed49812)" style="fill: #020202"/>
    <path d="M 29.422846 47.283307 
L 29.422846 62.460822 
" clip-path="url(#pa2eed49812)" style="fill: #020202"/>
    <path d="M 29.708101 47.193952 
L 40.623625 62.907597 
" clip-path="url(#pa2eed49812)" style="fill: #020202"/>
    <path d="M 29.843255 47.053964 
L 50.163357 60.135937 
" clip-path="url(#pa2eed49812)" style="fill: #020202; stroke: #020202; stroke-width: 0.99"/>
    <path d="M 18.903021 47.773495 
C 14.002089 20.709932 -7.754613 37.099943 16.906218 49.277749 
C -7.754613 37.099943 14.002089 20.709932 18.903021 47.773495 
" clip-path="url(#pa2eed49812)" style="fill: #020202"/>
    <path d="M 17.781064 52.308128 
L 15.590622 55.461419 
" clip-path="url(#pa2eed49812)" style="fill: #020202"/>
    <path d="M 19.207342 52.754903 
L 19.207342 58.989225 
" clip-path="url(#pa2eed49812)" style="fill: #020202"/>
    <path d="M 20.63362 52.308128 
L 27.996568 62.907597 
" clip-path="url(#pa2eed49812)" style="fill: #020202; stroke: #020202; stroke-width: 0.99"/>
    <path d="M 21.309391 51.608191 
L 39.947853 63.607534 
" clip-path="url(#pa2eed49812)" style="fill: #020202"/>
    <path d="M 21.574392 51.059312 
L 49.898356 60.684817 
" clip-path="url(#pa2eed49812)" style="fill: #020202"/>
    <path d="M 14.872354 55.622064 
C -11.424829 42.252349 -11.424829 69.491779 14.872354 56.122064 
C -11.424829 69.491779 -11.424829 42.252349 14.872354 55.622064 
" clip-path="url(#pa2eed49812)" style="fill: #020202"/>
    <path d="M 15.590622 56.282709 
L 17.781064 59.436001 
" clip-path="url(#pa2eed49812)" style="fill: #020202; stroke: #020202; stroke-width: 0.99"/>
    <path d="M 15.725777 56.142722 
L 27.320796 63.607534 
" clip-path="url(#pa2eed49812)" style="fill: #020202"/>
    <path d="M 15.778777 56.032946 
L 39.682853 64.156413 
" clip-path="url(#pa2eed49812)" style="fill: #020202; stroke: #020202; stroke-width: 0.99"/>
    <path d="M 15.79969 55.947191 
L 49.793788 61.113591 
" clip-path="url(#pa2eed49812)" style="fill: #020202"/>
    <path d="M 16.906218 62.46638 
C -7.754613 74.644186 14.002089 91.034197 18.903021 63.970634 
C 14.002089 91.034197 -7.754613 74.644186 16.906218 62.46638 
" clip-path="url(#pa2eed49812)" style="fill: #020202"/>
    <path d="M 21.574392 62.293634 
L 27.055795 64.156413 
" clip-path="url(#pa2eed49812)" style="fill: #020202"/>
    <path d="M 21.67896 61.86486 
L 39.578284 64.585187 
" clip-path="url(#pa2eed49812)" style="fill: #020202; stroke: #020202; stroke-width: 0.99"/>
    <path d="M 21.707342 61.489225 
L 49.765406 61.489225 
" clip-path="url(#pa2eed49812)" style="fill: #020202"/>
    <path d="M 27.836532 66.893077 
C 11.626683 89.112356 38.501525 93.554136 30.30307 67.300738 
C 38.501525 93.554136 11.626683 89.112356 27.836532 66.893077 
" clip-path="url(#pa2eed49812)" style="fill: #020202"/>
    <path d="M 31.922846 64.960822 
L 39.549903 64.960822 
" clip-path="url(#pa2eed49812)" style="fill: #020202"/>
    <path d="M 31.894464 64.585187 
L 49.793788 61.86486 
" clip-path="url(#pa2eed49812)" style="fill: #020202"/>
    <path d="M 41.169678 67.300738 
C 32.971223 93.554136 59.846065 89.112356 43.636217 66.893077 
C 59.846065 89.112356 32.971223 93.554136 41.169678 67.300738 
" clip-path="url(#pa2eed49812)" style="fill: #020202"/>
    <path d="M 44.416953 64.156413 
L 49.898356 62.293634 
" clip-path="url(#pa2eed49812)" style="fill: #020202; stroke: #020202; stroke-width: 0.99"/>
    <path d="M 52.569728 63.970634 
C 57.470659 91.034197 79.227361 74.644186 54.56653 62.46638 
C 79.227361 74.644186 57.470659 91.034197 52.569728 63.970634 
" clip-path="url(#pa2eed49812)" style="fill: #020202"/>
   </g>
   <g id="VertexCollection_2">
    <path d="M 56.167382 58.372064 
C 56.830389 58.372064 57.466331 58.108649 57.935148 57.639831 
C 58.403966 57.171014 58.667382 56.535072 58.667382 55.872064 
C 58.667382 55.209057 58.403966 54.573115 57.935148 54.104297 
C 57.466331 53.63548 56.830389 53.372064 56.167382 53.372064 
C 55.504374 53.372064 54.868432 53.63548 54.399615 54.104297 
C 53.930797 54.573115 53.667382 55.209057 53.667382 55.872064 
C 53.667382 56.535072 53.930797 57.171014 54.399615 57.639831 
C 54.868432 58.108649 55.504374 58.372064 56.167382 58.372064 
z
" clip-path="url(#pa2eed49812)" style="fill: #bebebe"/>
    <path d="M 52.265406 50.754903 
C 52.398008 50.754903 52.525196 50.70222 52.61896 50.608457 
C 52.712723 50.514693 52.765406 50.387505 52.765406 50.254903 
C 52.765406 50.122302 52.712723 49.995113 52.61896 49.90135 
C 52.525196 49.807586 52.398008 49.754903 52.265406 49.754903 
C 52.132805 49.754903 52.005616 49.807586 51.911853 49.90135 
C 51.818089 49.995113 51.765406 50.122302 51.765406 50.254903 
C 51.765406 50.387505 51.818089 50.514693 51.911853 50.608457 
C 52.005616 50.70222 52.132805 50.754903 52.265406 50.754903 
z
" clip-path="url(#pa2eed49812)" style="fill: #bebebe"/>
    <path d="M 42.049903 47.283307 
C 42.182504 47.283307 42.309693 47.230624 42.403456 47.13686 
C 42.497219 47.043097 42.549903 46.915908 42.549903 46.783307 
C 42.549903 46.650705 42.497219 46.523517 42.403456 46.429753 
C 42.309693 46.33599 42.182504 46.283307 42.049903 46.283307 
C 41.917301 46.283307 41.790113 46.33599 41.696349 46.429753 
C 41.602586 46.523517 41.549903 46.650705 41.549903 46.783307 
C 41.549903 46.915908 41.602586 47.043097 41.696349 47.13686 
C 41.790113 47.230624 41.917301 47.283307 42.049903 47.283307 
z
" clip-path="url(#pa2eed49812)" style="fill: #bebebe"/>
    <path d="M 29.422846 47.283307 
C 29.555447 47.283307 29.682636 47.230624 29.776399 47.13686 
C 29.870162 47.043097 29.922846 46.915908 29.922846 46.783307 
C 29.922846 46.650705 29.870162 46.523517 29.776399 46.429753 
C 29.682636 46.33599 29.555447 46.283307 29.422846 46.283307 
C 29.290244 46.283307 29.163056 46.33599 29.069292 46.429753 
C 28.975529 46.523517 28.922846 46.650705 28.922846 46.783307 
C 28.922846 46.915908 28.975529 47.043097 29.069292 47.13686 
C 29.163056 47.230624 29.290244 47.283307 29.422846 47.283307 
z
" clip-path="url(#pa2eed49812)" style="fill: #bebebe"/>
    <path d="M 19.207342 52.754903 
C 19.87035 52.754903 20.506292 52.491487 20.975109 52.02267 
C 21.443926 51.553853 21.707342 50.917911 21.707342 50.254903 
C 21.707342 49.591895 21.443926 48.955954 20.975109 48.487136 
C 20.506292 48.018319 19.87035 47.754903 19.207342 47.754903 
C 18.544334 47.754903 17.908392 48.018319 17.439575 48.487136 
C 16.970758 48.955954 16.707342 49.591895 16.707342 50.254903 
C 16.707342 50.917911 16.970758 51.553853 17.439575 52.02267 
C 17.908392 52.491487 18.544334 52.754903 19.207342 52.754903 
z
" clip-path="url(#pa2eed49812)" style="fill: #bebebe"/>
    <path d="M 15.305367 56.372064 
C 15.437968 56.372064 15.565157 56.319381 15.65892 56.225618 
C 15.752684 56.131854 15.805367 56.004666 15.805367 55.872064 
C 15.805367 55.739463 15.752684 55.612274 15.65892 55.518511 
C 15.565157 55.424747 15.437968 55.372064 15.305367 55.372064 
C 15.172765 55.372064 15.045577 55.424747 14.951813 55.518511 
C 14.85805 55.612274 14.805367 55.739463 14.805367 55.872064 
C 14.805367 56.004666 14.85805 56.131854 14.951813 56.225618 
C 15.045577 56.319381 15.172765 56.372064 15.305367 56.372064 
z
" clip-path="url(#pa2eed49812)" style="fill: #bebebe"/>
    <path d="M 19.207342 63.989225 
C 19.87035 63.989225 20.506292 63.72581 20.975109 63.256992 
C 21.443926 62.788175 21.707342 62.152233 21.707342 61.489225 
C 21.707342 60.826218 21.443926 60.190276 20.975109 59.721459 
C 20.506292 59.252641 19.87035 58.989225 19.207342 58.989225 
C 18.544334 58.989225 17.908392 59.252641 17.439575 59.721459 
C 16.970758 60.190276 16.707342 60.826218 16.707342 61.489225 
C 16.707342 62.152233 16.970758 62.788175 17.439575 63.256992 
C 17.908392 63.72581 18.544334 63.989225 19.207342 63.989225 
z
" clip-path="url(#pa2eed49812)" style="fill: #bebebe"/>
    <path d="M 29.422846 67.460822 
C 30.085853 67.460822 30.721795 67.197406 31.190613 66.728589 
C 31.65943 66.259772 31.922846 65.62383 31.922846 64.960822 
C 31.922846 64.297814 31.65943 63.661872 31.190613 63.193055 
C 30.721795 62.724238 30.085853 62.460822 29.422846 62.460822 
C 28.759838 62.460822 28.123896 62.724238 27.655079 63.193055 
C 27.186261 63.661872 26.922846 64.297814 26.922846 64.960822 
C 26.922846 65.62383 27.186261 66.259772 27.655079 66.728589 
C 28.123896 67.197406 28.759838 67.460822 29.422846 67.460822 
z
" clip-path="url(#pa2eed49812)" style="fill: #bebebe"/>
    <path d="M 42.049903 67.460822 
C 42.71291 67.460822 43.348852 67.197406 43.81767 66.728589 
C 44.286487 66.259772 44.549903 65.62383 44.549903 64.960822 
C 44.549903 64.297814 44.286487 63.661872 43.81767 63.193055 
C 43.348852 62.724238 42.71291 62.460822 42.049903 62.460822 
C 41.386895 62.460822 40.750953 62.724238 40.282136 63.193055 
C 39.813318 63.661872 39.549903 64.297814 39.549903 64.960822 
C 39.549903 65.62383 39.813318 66.259772 40.282136 66.728589 
C 40.750953 67.197406 41.386895 67.460822 42.049903 67.460822 
z
" clip-path="url(#pa2eed49812)" style="fill: #bebebe"/>
    <path d="M 52.265406 63.989225 
C 52.928414 63.989225 53.564356 63.72581 54.033173 63.256992 
C 54.501991 62.788175 54.765406 62.152233 54.765406 61.489225 
C 54.765406 60.826218 54.501991 60.190276 54.033173 59.721459 
C 53.564356 59.252641 52.928414 58.989225 52.265406 58.989225 
C 51.602399 58.989225 50.966457 59.252641 50.497639 59.721459 
C 50.028822 60.190276 49.765406 60.826218 49.765406 61.489225 
C 49.765406 62.152233 50.028822 62.788175 50.497639 63.256992 
C 50.966457 63.72581 51.602399 63.989225 52.265406 63.989225 
z
" clip-path="url(#pa2eed49812)" style="fill: #bebebe"/>
   </g>
   <g id="matplotlib.axis_3"/>
   <g id="matplotlib.axis_4"/>
  </g>
  <g id="axes_3">
   <g id="patch_4">
    <path d="M 10.8 101.52 
L 61.2 101.52 
L 61.2 78.48 
L 10.8 78.48 
z
" style="fill: #ffffff"/>
   </g>
   <g id="EdgeCollection_3">
    <path d="M 58.332445 91.25 
C 82.897577 103.619715 82.897577 76.380285 58.332445 88.75 
C 82.897577 76.380285 82.897577 103.619715 58.332445 91.25 
" clip-path="url(#pfd6f333f71)" style="fill: #020202"/>
    <path d="M 54.712435 87.96699 
L 52.556396 84.954335 
" clip-path="url(#pfd6f333f71)" style="fill: #020202"/>
    <path d="M 54.047286 88.675162 
L 42.473922 81.443015 
" clip-path="url(#pfd6f333f71)" style="fill: #020202; stroke: #020202; stroke-width: 0.99"/>
    <path d="M 53.793211 89.216856 
L 31.797016 81.961191 
" clip-path="url(#pfd6f333f71)" style="fill: #020202"/>
    <path d="M 53.694147 89.635154 
L 19.701989 84.620702 
" clip-path="url(#pfd6f333f71)" style="fill: #020202"/>
    <path d="M 53.667382 90 
L 15.805367 90 
" clip-path="url(#pfd6f333f71)" style="fill: #020202"/>
    <path d="M 53.694147 90.364846 
L 19.701989 95.379298 
" clip-path="url(#pfd6f333f71)" style="fill: #020202"/>
    <path d="M 53.793211 90.783144 
L 29.89768 98.665324 
" clip-path="url(#pfd6f333f71)" style="fill: #020202; stroke: #020202; stroke-width: 0.99"/>
    <path d="M 54.047286 91.324838 
L 44.169998 97.497115 
" clip-path="url(#pfd6f333f71)" style="fill: #020202; stroke: #020202; stroke-width: 0.99"/>
    <path d="M 54.712435 92.03301 
L 53.720353 93.419257 
" clip-path="url(#pfd6f333f71)" style="fill: #020202"/>
    <path d="M 52.723353 84.347022 
C 79.074288 71.083563 57.130529 54.944852 52.320559 84.050784 
C 57.130529 54.944852 79.074288 71.083563 52.723353 84.347022 
" clip-path="url(#pfd6f333f71)" style="fill: #020202"/>
    <path d="M 51.790572 84.391104 
L 42.524737 81.334676 
" clip-path="url(#pfd6f333f71)" style="fill: #020202"/>
    <path d="M 51.770759 84.474764 
L 31.89608 81.542893 
" clip-path="url(#pfd6f333f71)" style="fill: #020202"/>
    <path d="M 51.765406 84.547733 
L 19.707342 84.547733 
" clip-path="url(#pfd6f333f71)" style="fill: #020202"/>
    <path d="M 51.770759 84.620702 
L 15.800014 89.927031 
" clip-path="url(#pfd6f333f71)" style="fill: #020202"/>
    <path d="M 51.790572 84.704362 
L 19.682176 95.295638 
" clip-path="url(#pfd6f333f71)" style="fill: #020202; stroke: #020202; stroke-width: 0.99"/>
    <path d="M 51.841387 84.812701 
L 29.846865 98.556985 
" clip-path="url(#pfd6f333f71)" style="fill: #020202"/>
    <path d="M 51.974417 84.954335 
L 43.504849 96.788943 
" clip-path="url(#pfd6f333f71)" style="fill: #020202"/>
    <path d="M 52.265406 85.047733 
L 52.265406 92.952267 
" clip-path="url(#pfd6f333f71)" style="fill: #020202; stroke: #020202; stroke-width: 0.99"/>
    <path d="M 42.365429 80.790177 
C 59.737564 56.946938 32.843071 52.62574 41.87176 80.710858 
C 32.843071 52.62574 59.737564 56.946938 42.365429 80.790177 
" clip-path="url(#pfd6f333f71)" style="fill: #020202"/>
    <path d="M 41.549903 81.178047 
L 31.922846 81.178047 
" clip-path="url(#pfd6f333f71)" style="fill: #020202; stroke: #020202; stroke-width: 0.99"/>
    <path d="M 41.555256 81.251016 
L 19.701989 84.474764 
" clip-path="url(#pfd6f333f71)" style="fill: #020202"/>
    <path d="M 41.575069 81.334676 
L 15.780201 89.843371 
" clip-path="url(#pfd6f333f71)" style="fill: #020202"/>
    <path d="M 41.625884 81.443015 
L 19.631361 95.187299 
" clip-path="url(#pfd6f333f71)" style="fill: #020202"/>
    <path d="M 41.758913 81.584649 
L 29.713835 98.415351 
" clip-path="url(#pfd6f333f71)" style="fill: #020202"/>
    <path d="M 42.049903 81.678047 
L 42.049903 96.321953 
" clip-path="url(#pfd6f333f71)" style="fill: #020202"/>
    <path d="M 42.340892 81.584649 
L 50.81046 93.419257 
" clip-path="url(#pfd6f333f71)" style="fill: #020202"/>
    <path d="M 30.313556 78.842103 
C 38.629677 52.62574 11.735184 56.946938 27.845214 79.238697 
C 11.735184 56.946938 38.629677 52.62574 30.313556 78.842103 
" clip-path="url(#pfd6f333f71)" style="fill: #020202"/>
    <path d="M 27.048675 81.961191 
L 19.682176 84.391104 
" clip-path="url(#pfd6f333f71)" style="fill: #020202; stroke: #020202; stroke-width: 0.99"/>
    <path d="M 27.302751 82.502885 
L 15.729386 89.735032 
" clip-path="url(#pfd6f333f71)" style="fill: #020202"/>
    <path d="M 27.967899 83.211057 
L 19.498331 95.045665 
" clip-path="url(#pfd6f333f71)" style="fill: #020202"/>
    <path d="M 29.422846 83.678047 
L 29.422846 98.321953 
" clip-path="url(#pfd6f333f71)" style="fill: #020202"/>
    <path d="M 30.877792 83.211057 
L 40.594956 96.788943 
" clip-path="url(#pfd6f333f71)" style="fill: #020202"/>
    <path d="M 31.542941 82.502885 
L 50.145311 94.127428 
" clip-path="url(#pfd6f333f71)" style="fill: #020202; stroke: #020202; stroke-width: 0.99"/>
    <path d="M 19.152189 84.050784 
C 14.342219 54.944852 -7.601539 71.083563 18.749395 84.347022 
C -7.601539 71.083563 14.342219 54.944852 19.152189 84.050784 
" clip-path="url(#pfd6f333f71)" style="fill: #020202"/>
    <path d="M 18.916353 84.954335 
L 15.596356 89.593398 
" clip-path="url(#pfd6f333f71)" style="fill: #020202"/>
    <path d="M 19.207342 85.047733 
L 19.207342 94.952267 
" clip-path="url(#pfd6f333f71)" style="fill: #020202"/>
    <path d="M 19.498331 84.954335 
L 29.131856 98.415351 
" clip-path="url(#pfd6f333f71)" style="fill: #020202"/>
    <path d="M 19.631361 84.812701 
L 39.929808 97.497115 
" clip-path="url(#pfd6f333f71)" style="fill: #020202"/>
    <path d="M 19.682176 84.704362 
L 49.891236 94.669123 
" clip-path="url(#pfd6f333f71)" style="fill: #020202"/>
    <path d="M 14.872354 89.75 
C -11.424829 76.380285 -11.424829 103.619715 14.872354 90.25 
C -11.424829 103.619715 -11.424829 76.380285 14.872354 89.75 
" clip-path="url(#pfd6f333f71)" style="fill: #020202"/>
    <path d="M 15.596356 90.406602 
L 18.916353 95.045665 
" clip-path="url(#pfd6f333f71)" style="fill: #020202; stroke: #020202; stroke-width: 0.99"/>
    <path d="M 15.729386 90.264968 
L 28.998827 98.556985 
" clip-path="url(#pfd6f333f71)" style="fill: #020202"/>
    <path d="M 15.780201 90.156629 
L 39.675732 98.038809 
" clip-path="url(#pfd6f333f71)" style="fill: #020202; stroke: #020202; stroke-width: 0.99"/>
    <path d="M 15.800014 90.072969 
L 49.792172 95.087421 
" clip-path="url(#pfd6f333f71)" style="fill: #020202"/>
    <path d="M 18.749395 95.652978 
C -7.601539 108.916437 14.342219 125.055148 19.152189 95.949216 
C 14.342219 125.055148 -7.601539 108.916437 18.749395 95.652978 
" clip-path="url(#pfd6f333f71)" style="fill: #020202"/>
    <path d="M 19.682176 95.608896 
L 28.948011 98.665324 
" clip-path="url(#pfd6f333f71)" style="fill: #020202"/>
    <path d="M 19.701989 95.525236 
L 39.576668 98.457107 
" clip-path="url(#pfd6f333f71)" style="fill: #020202"/>
    <path d="M 19.707342 95.452267 
L 49.765406 95.452267 
" clip-path="url(#pfd6f333f71)" style="fill: #020202"/>
    <path d="M 29.107319 99.209823 
C 11.735184 123.053062 38.629677 127.37426 29.600988 99.289142 
C 38.629677 127.37426 11.735184 123.053062 29.107319 99.209823 
" clip-path="url(#pfd6f333f71)" style="fill: #020202"/>
    <path d="M 29.922846 98.821953 
L 39.549903 98.821953 
" clip-path="url(#pfd6f333f71)" style="fill: #020202"/>
    <path d="M 29.917492 98.748984 
L 49.792172 95.817113 
" clip-path="url(#pfd6f333f71)" style="fill: #020202"/>
    <path d="M 41.159192 101.157897 
C 32.843071 127.37426 59.737564 123.053062 43.627534 100.761303 
C 59.737564 123.053062 32.843071 127.37426 41.159192 101.157897 
" clip-path="url(#pfd6f333f71)" style="fill: #020202"/>
    <path d="M 44.424073 98.038809 
L 49.891236 96.235411 
" clip-path="url(#pfd6f333f71)" style="fill: #020202; stroke: #020202; stroke-width: 0.99"/>
    <path d="M 52.54117 97.937011 
C 57.130529 125.055148 79.074288 108.916437 54.55514 96.455821 
C 79.074288 108.916437 57.130529 125.055148 52.54117 97.937011 
" clip-path="url(#pfd6f333f71)" style="fill: #020202"/>
   </g>
   <g id="VertexCollection_3">
    <path d="M 56.167382 92.5 
C 56.830389 92.5 57.466331 92.236584 57.935148 91.767767 
C 58.403966 91.29895 58.667382 90.663008 58.667382 90 
C 58.667382 89.336992 58.403966 88.70105 57.935148 88.232233 
C 57.466331 87.763416 56.830389 87.5 56.167382 87.5 
C 55.504374 87.5 54.868432 87.763416 54.399615 88.232233 
C 53.930797 88.70105 53.667382 89.336992 53.667382 90 
C 53.667382 90.663008 53.930797 91.29895 54.399615 91.767767 
C 54.868432 92.236584 55.504374 92.5 56.167382 92.5 
z
" clip-path="url(#pfd6f333f71)" style="fill: #bebebe"/>
    <path d="M 52.265406 85.047733 
C 52.398008 85.047733 52.525196 84.99505 52.61896 84.901286 
C 52.712723 84.807523 52.765406 84.680335 52.765406 84.547733 
C 52.765406 84.415132 52.712723 84.287943 52.61896 84.19418 
C 52.525196 84.100416 52.398008 84.047733 52.265406 84.047733 
C 52.132805 84.047733 52.005616 84.100416 51.911853 84.19418 
C 51.818089 84.287943 51.765406 84.415132 51.765406 84.547733 
C 51.765406 84.680335 51.818089 84.807523 51.911853 84.901286 
C 52.005616 84.99505 52.132805 85.047733 52.265406 85.047733 
z
" clip-path="url(#pfd6f333f71)" style="fill: #bebebe"/>
    <path d="M 42.049903 81.678047 
C 42.182504 81.678047 42.309693 81.625364 42.403456 81.5316 
C 42.497219 81.437837 42.549903 81.310648 42.549903 81.178047 
C 42.549903 81.045445 42.497219 80.918257 42.403456 80.824493 
C 42.309693 80.73073 42.182504 80.678047 42.049903 80.678047 
C 41.917301 80.678047 41.790113 80.73073 41.696349 80.824493 
C 41.602586 80.918257 41.549903 81.045445 41.549903 81.178047 
C 41.549903 81.310648 41.602586 81.437837 41.696349 81.5316 
C 41.790113 81.625364 41.917301 81.678047 42.049903 81.678047 
z
" clip-path="url(#pfd6f333f71)" style="fill: #bebebe"/>
    <path d="M 29.422846 83.678047 
C 30.085853 83.678047 30.721795 83.414631 31.190613 82.945814 
C 31.65943 82.476996 31.922846 81.841055 31.922846 81.178047 
C 31.922846 80.515039 31.65943 79.879097 31.190613 79.41028 
C 30.721795 78.941463 30.085853 78.678047 29.422846 78.678047 
C 28.759838 78.678047 28.123896 78.941463 27.655079 79.41028 
C 27.186261 79.879097 26.922846 80.515039 26.922846 81.178047 
C 26.922846 81.841055 27.186261 82.476996 27.655079 82.945814 
C 28.123896 83.414631 28.759838 83.678047 29.422846 83.678047 
z
" clip-path="url(#pfd6f333f71)" style="fill: #bebebe"/>
    <path d="M 19.207342 85.047733 
C 19.339943 85.047733 19.467132 84.99505 19.560895 84.901286 
C 19.654659 84.807523 19.707342 84.680335 19.707342 84.547733 
C 19.707342 84.415132 19.654659 84.287943 19.560895 84.19418 
C 19.467132 84.100416 19.339943 84.047733 19.207342 84.047733 
C 19.07474 84.047733 18.947552 84.100416 18.853788 84.19418 
C 18.760025 84.287943 18.707342 84.415132 18.707342 84.547733 
C 18.707342 84.680335 18.760025 84.807523 18.853788 84.901286 
C 18.947552 84.99505 19.07474 85.047733 19.207342 85.047733 
z
" clip-path="url(#pfd6f333f71)" style="fill: #bebebe"/>
    <path d="M 15.305367 90.5 
C 15.437968 90.5 15.565157 90.447317 15.65892 90.353553 
C 15.752684 90.25979 15.805367 90.132602 15.805367 90 
C 15.805367 89.867398 15.752684 89.74021 15.65892 89.646447 
C 15.565157 89.552683 15.437968 89.5 15.305367 89.5 
C 15.172765 89.5 15.045577 89.552683 14.951813 89.646447 
C 14.85805 89.74021 14.805367 89.867398 14.805367 90 
C 14.805367 90.132602 14.85805 90.25979 14.951813 90.353553 
C 15.045577 90.447317 15.172765 90.5 15.305367 90.5 
z
" clip-path="url(#pfd6f333f71)" style="fill: #bebebe"/>
    <path d="M 19.207342 95.952267 
C 19.339943 95.952267 19.467132 95.899584 19.560895 95.80582 
C 19.654659 95.712057 19.707342 95.584868 19.707342 95.452267 
C 19.707342 95.319665 19.654659 95.192477 19.560895 95.098714 
C 19.467132 95.00495 19.339943 94.952267 19.207342 94.952267 
C 19.07474 94.952267 18.947552 95.00495 18.853788 95.098714 
C 18.760025 95.192477 18.707342 95.319665 18.707342 95.452267 
C 18.707342 95.584868 18.760025 95.712057 18.853788 95.80582 
C 18.947552 95.899584 19.07474 95.952267 19.207342 95.952267 
z
" clip-path="url(#pfd6f333f71)" style="fill: #bebebe"/>
    <path d="M 29.422846 99.321953 
C 29.555447 99.321953 29.682636 99.26927 29.776399 99.175507 
C 29.870162 99.081743 29.922846 98.954555 29.922846 98.821953 
C 29.922846 98.689352 29.870162 98.562163 29.776399 98.4684 
C 29.682636 98.374636 29.555447 98.321953 29.422846 98.321953 
C 29.290244 98.321953 29.163056 98.374636 29.069292 98.4684 
C 28.975529 98.562163 28.922846 98.689352 28.922846 98.821953 
C 28.922846 98.954555 28.975529 99.081743 29.069292 99.175507 
C 29.163056 99.26927 29.290244 99.321953 29.422846 99.321953 
z
" clip-path="url(#pfd6f333f71)" style="fill: #bebebe"/>
    <path d="M 42.049903 101.321953 
C 42.71291 101.321953 43.348852 101.058537 43.81767 100.58972 
C 44.286487 100.120903 44.549903 99.484961 44.549903 98.821953 
C 44.549903 98.158945 44.286487 97.523004 43.81767 97.054186 
C 43.348852 96.585369 42.71291 96.321953 42.049903 96.321953 
C 41.386895 96.321953 40.750953 96.585369 40.282136 97.054186 
C 39.813318 97.523004 39.549903 98.158945 39.549903 98.821953 
C 39.549903 99.484961 39.813318 100.120903 40.282136 100.58972 
C 40.750953 101.058537 41.386895 101.321953 42.049903 101.321953 
z
" clip-path="url(#pfd6f333f71)" style="fill: #bebebe"/>
    <path d="M 52.265406 97.952267 
C 52.928414 97.952267 53.564356 97.688851 54.033173 97.220034 
C 54.501991 96.751217 54.765406 96.115275 54.765406 95.452267 
C 54.765406 94.789259 54.501991 94.153317 54.033173 93.6845 
C 53.564356 93.215683 52.928414 92.952267 52.265406 92.952267 
C 51.602399 92.952267 50.966457 93.215683 50.497639 93.6845 
C 50.028822 94.153317 49.765406 94.789259 49.765406 95.452267 
C 49.765406 96.115275 50.028822 96.751217 50.497639 97.220034 
C 50.966457 97.688851 51.602399 97.952267 52.265406 97.952267 
z
" clip-path="url(#pfd6f333f71)" style="fill: #bebebe"/>
   </g>
   <g id="matplotlib.axis_5"/>
   <g id="matplotlib.axis_6"/>
  </g>
  <g id="axes_4">
   <g id="patch_5">
    <path d="M 10.8 135.36 
L 61.2 135.36 
L 61.2 112.32 
L 10.8 112.32 
z
" style="fill: #ffffff"/>
   </g>
   <g id="EdgeCollection_4">
    <path d="M 57.125956 124.09 
C 83.423139 137.459715 83.423139 110.220285 57.125956 123.59 
C 83.423139 110.220285 83.423139 137.459715 57.125956 124.09 
" clip-path="url(#pc248c7d861)" style="fill: #020202"/>
    <path d="M 56.399503 123.435163 
L 53.034383 118.79257 
" clip-path="url(#pc248c7d861)" style="fill: #020202"/>
    <path d="M 56.267419 123.577457 
L 44.522095 116.33076 
" clip-path="url(#pc248c7d861)" style="fill: #020202; stroke: #020202; stroke-width: 0.99"/>
    <path d="M 56.217522 123.685163 
L 31.982635 115.792234 
" clip-path="url(#pc248c7d861)" style="fill: #020202"/>
    <path d="M 56.198164 123.767935 
L 19.753837 118.459798 
" clip-path="url(#pc248c7d861)" style="fill: #020202"/>
    <path d="M 56.192943 123.84 
L 15.807057 123.84 
" clip-path="url(#pc248c7d861)" style="fill: #020202"/>
    <path d="M 56.198164 123.912065 
L 19.753837 129.220202 
" clip-path="url(#pc248c7d861)" style="fill: #020202"/>
    <path d="M 56.217522 123.994837 
L 31.982635 131.887766 
" clip-path="url(#pc248c7d861)" style="fill: #020202; stroke: #020202; stroke-width: 0.99"/>
    <path d="M 56.267419 124.102543 
L 42.819996 132.39941 
" clip-path="url(#pc248c7d861)" style="fill: #020202"/>
    <path d="M 56.399503 124.244837 
L 53.034383 128.88743 
" clip-path="url(#pc248c7d861)" style="fill: #020202"/>
    <path d="M 53.197899 118.184778 
C 79.483449 104.792206 57.460782 88.761341 52.793657 117.89052 
C 57.460782 88.761341 79.483449 104.792206 53.197899 118.184778 
" clip-path="url(#pc248c7d861)" style="fill: #020202"/>
    <path d="M 52.265522 118.232896 
L 44.771578 115.792234 
" clip-path="url(#pc248c7d861)" style="fill: #020202"/>
    <path d="M 52.246163 118.315668 
L 32.079426 115.378371 
" clip-path="url(#pc248c7d861)" style="fill: #020202"/>
    <path d="M 52.240943 118.387733 
L 19.759057 118.387733 
" clip-path="url(#pc248c7d861)" style="fill: #020202"/>
    <path d="M 52.246163 118.459798 
L 15.801836 123.767935 
" clip-path="url(#pc248c7d861)" style="fill: #020202"/>
    <path d="M 52.265522 118.54257 
L 19.734478 129.13743 
" clip-path="url(#pc248c7d861)" style="fill: #020202; stroke: #020202; stroke-width: 0.99"/>
    <path d="M 52.315418 118.650276 
L 31.733153 131.34924 
" clip-path="url(#pc248c7d861)" style="fill: #020202"/>
    <path d="M 52.447503 118.79257 
L 42.687912 132.257116 
" clip-path="url(#pc248c7d861)" style="fill: #020202"/>
    <path d="M 52.740943 118.887733 
L 52.740943 128.792267 
" clip-path="url(#pc248c7d861)" style="fill: #020202"/>
    <path d="M 43.968444 113.075726 
C 60.036421 90.753637 33.133829 86.483147 41.499359 112.683786 
C 33.133829 86.483147 60.036421 90.753637 43.968444 113.075726 
" clip-path="url(#pc248c7d861)" style="fill: #020202"/>
    <path d="M 39.894471 115.018047 
L 32.105529 115.018047 
" clip-path="url(#pc248c7d861)" style="fill: #020202; stroke: #020202; stroke-width: 0.99"/>
    <path d="M 39.920574 115.378371 
L 19.753837 118.315668 
" clip-path="url(#pc248c7d861)" style="fill: #020202"/>
    <path d="M 40.017365 115.792234 
L 15.782478 123.685163 
" clip-path="url(#pc248c7d861)" style="fill: #020202"/>
    <path d="M 40.266847 116.33076 
L 19.684582 129.029724 
" clip-path="url(#pc248c7d861)" style="fill: #020202"/>
    <path d="M 40.92727 117.04223 
L 31.07273 130.63777 
" clip-path="url(#pc248c7d861)" style="fill: #020202; stroke: #020202; stroke-width: 0.99"/>
    <path d="M 42.394471 117.518047 
L 42.394471 132.161953 
" clip-path="url(#pc248c7d861)" style="fill: #020202"/>
    <path d="M 43.861673 117.04223 
L 52.447503 128.88743 
" clip-path="url(#pc248c7d861)" style="fill: #020202"/>
    <path d="M 30.500641 112.683786 
C 38.866171 86.483147 11.963579 90.753637 28.031556 113.075726 
C 11.963579 90.753637 38.866171 86.483147 30.500641 112.683786 
" clip-path="url(#pc248c7d861)" style="fill: #020202"/>
    <path d="M 27.228422 115.792234 
L 19.734478 118.232896 
" clip-path="url(#pc248c7d861)" style="fill: #020202"/>
    <path d="M 27.477905 116.33076 
L 15.732581 123.577457 
" clip-path="url(#pc248c7d861)" style="fill: #020202"/>
    <path d="M 28.138327 117.04223 
L 19.552497 128.88743 
" clip-path="url(#pc248c7d861)" style="fill: #020202"/>
    <path d="M 29.605529 117.518047 
L 29.605529 130.161953 
" clip-path="url(#pc248c7d861)" style="fill: #020202; stroke: #020202; stroke-width: 0.99"/>
    <path d="M 31.07273 117.04223 
L 42.101031 132.257116 
" clip-path="url(#pc248c7d861)" style="fill: #020202"/>
    <path d="M 31.733153 116.33076 
L 52.315418 129.029724 
" clip-path="url(#pc248c7d861)" style="fill: #020202; stroke: #020202; stroke-width: 0.99"/>
    <path d="M 19.206343 117.89052 
C 14.539218 88.761341 -7.483449 104.792206 18.802101 118.184778 
C -7.483449 104.792206 14.539218 88.761341 19.206343 117.89052 
" clip-path="url(#pc248c7d861)" style="fill: #020202"/>
    <path d="M 18.965617 118.79257 
L 15.600497 123.435163 
" clip-path="url(#pc248c7d861)" style="fill: #020202"/>
    <path d="M 19.259057 118.887733 
L 19.259057 128.792267 
" clip-path="url(#pc248c7d861)" style="fill: #020202"/>
    <path d="M 19.552497 118.79257 
L 28.138327 130.63777 
" clip-path="url(#pc248c7d861)" style="fill: #020202"/>
    <path d="M 19.684582 118.650276 
L 41.968946 132.39941 
" clip-path="url(#pc248c7d861)" style="fill: #020202"/>
    <path d="M 19.734478 118.54257 
L 52.265522 129.13743 
" clip-path="url(#pc248c7d861)" style="fill: #020202"/>
    <path d="M 14.874044 123.59 
C -11.423139 110.220285 -11.423139 137.459715 14.874044 124.09 
C -11.423139 137.459715 -11.423139 110.220285 14.874044 123.59 
" clip-path="url(#pc248c7d861)" style="fill: #020202"/>
    <path d="M 15.600497 124.244837 
L 18.965617 128.88743 
" clip-path="url(#pc248c7d861)" style="fill: #020202; stroke: #020202; stroke-width: 0.99"/>
    <path d="M 15.732581 124.102543 
L 27.477905 131.34924 
" clip-path="url(#pc248c7d861)" style="fill: #020202"/>
    <path d="M 15.782478 123.994837 
L 41.91905 132.507116 
" clip-path="url(#pc248c7d861)" style="fill: #020202"/>
    <path d="M 15.801836 123.912065 
L 52.246163 129.220202 
" clip-path="url(#pc248c7d861)" style="fill: #020202"/>
    <path d="M 18.802101 129.495222 
C -7.483449 142.887794 14.539218 158.918659 19.206343 129.78948 
C 14.539218 158.918659 -7.483449 142.887794 18.802101 129.495222 
" clip-path="url(#pc248c7d861)" style="fill: #020202"/>
    <path d="M 19.734478 129.447104 
L 27.228422 131.887766 
" clip-path="url(#pc248c7d861)" style="fill: #020202"/>
    <path d="M 19.753837 129.364332 
L 41.899692 132.589888 
" clip-path="url(#pc248c7d861)" style="fill: #020202"/>
    <path d="M 19.759057 129.292267 
L 52.240943 129.292267 
" clip-path="url(#pc248c7d861)" style="fill: #020202"/>
    <path d="M 28.031556 134.604274 
C 11.963579 156.926363 38.866171 161.196853 30.500641 134.996214 
C 38.866171 161.196853 11.963579 156.926363 28.031556 134.604274 
" clip-path="url(#pc248c7d861)" style="fill: #020202"/>
    <path d="M 32.105529 132.661953 
L 41.894471 132.661953 
" clip-path="url(#pc248c7d861)" style="fill: #020202"/>
    <path d="M 32.079426 132.301629 
L 52.246163 129.364332 
" clip-path="url(#pc248c7d861)" style="fill: #020202"/>
    <path d="M 42.215449 133.128805 
C 33.133829 161.196853 60.036421 156.926363 42.709266 133.050417 
C 60.036421 156.926363 33.133829 161.196853 42.215449 133.128805 
" clip-path="url(#pc248c7d861)" style="fill: #020202"/>
    <path d="M 42.869892 132.507116 
L 52.265522 129.447104 
" clip-path="url(#pc248c7d861)" style="fill: #020202; stroke: #020202; stroke-width: 0.99"/>
    <path d="M 52.793657 129.78948 
C 57.460782 158.918659 79.483449 142.887794 53.197899 129.495222 
C 79.483449 142.887794 57.460782 158.918659 52.793657 129.78948 
" clip-path="url(#pc248c7d861)" style="fill: #020202"/>
   </g>
   <g id="VertexCollection_4">
    <path d="M 56.692943 124.34 
C 56.825545 124.34 56.952733 124.287317 57.046497 124.193553 
C 57.14026 124.09979 57.192943 123.972602 57.192943 123.84 
C 57.192943 123.707398 57.14026 123.58021 57.046497 123.486447 
C 56.952733 123.392683 56.825545 123.34 56.692943 123.34 
C 56.560342 123.34 56.433153 123.392683 56.33939 123.486447 
C 56.245627 123.58021 56.192943 123.707398 56.192943 123.84 
C 56.192943 123.972602 56.245627 124.09979 56.33939 124.193553 
C 56.433153 124.287317 56.560342 124.34 56.692943 124.34 
z
" clip-path="url(#pc248c7d861)" style="fill: #bebebe"/>
    <path d="M 52.740943 118.887733 
C 52.873544 118.887733 53.000733 118.83505 53.094496 118.741286 
C 53.18826 118.647523 53.240943 118.520335 53.240943 118.387733 
C 53.240943 118.255132 53.18826 118.127943 53.094496 118.03418 
C 53.000733 117.940416 52.873544 117.887733 52.740943 117.887733 
C 52.608341 117.887733 52.481153 117.940416 52.38739 118.03418 
C 52.293626 118.127943 52.240943 118.255132 52.240943 118.387733 
C 52.240943 118.520335 52.293626 118.647523 52.38739 118.741286 
C 52.481153 118.83505 52.608341 118.887733 52.740943 118.887733 
z
" clip-path="url(#pc248c7d861)" style="fill: #bebebe"/>
    <path d="M 42.394471 117.518047 
C 43.057479 117.518047 43.693421 117.254631 44.162238 116.785814 
C 44.631055 116.316996 44.894471 115.681055 44.894471 115.018047 
C 44.894471 114.355039 44.631055 113.719097 44.162238 113.25028 
C 43.693421 112.781463 43.057479 112.518047 42.394471 112.518047 
C 41.731463 112.518047 41.095522 112.781463 40.626704 113.25028 
C 40.157887 113.719097 39.894471 114.355039 39.894471 115.018047 
C 39.894471 115.681055 40.157887 116.316996 40.626704 116.785814 
C 41.095522 117.254631 41.731463 117.518047 42.394471 117.518047 
z
" clip-path="url(#pc248c7d861)" style="fill: #bebebe"/>
    <path d="M 29.605529 117.518047 
C 30.268537 117.518047 30.904478 117.254631 31.373296 116.785814 
C 31.842113 116.316996 32.105529 115.681055 32.105529 115.018047 
C 32.105529 114.355039 31.842113 113.719097 31.373296 113.25028 
C 30.904478 112.781463 30.268537 112.518047 29.605529 112.518047 
C 28.942521 112.518047 28.306579 112.781463 27.837762 113.25028 
C 27.368945 113.719097 27.105529 114.355039 27.105529 115.018047 
C 27.105529 115.681055 27.368945 116.316996 27.837762 116.785814 
C 28.306579 117.254631 28.942521 117.518047 29.605529 117.518047 
z
" clip-path="url(#pc248c7d861)" style="fill: #bebebe"/>
    <path d="M 19.259057 118.887733 
C 19.391659 118.887733 19.518847 118.83505 19.61261 118.741286 
C 19.706374 118.647523 19.759057 118.520335 19.759057 118.387733 
C 19.759057 118.255132 19.706374 118.127943 19.61261 118.03418 
C 19.518847 117.940416 19.391659 117.887733 19.259057 117.887733 
C 19.126456 117.887733 18.999267 117.940416 18.905504 118.03418 
C 18.81174 118.127943 18.759057 118.255132 18.759057 118.387733 
C 18.759057 118.520335 18.81174 118.647523 18.905504 118.741286 
C 18.999267 118.83505 19.126456 118.887733 19.259057 118.887733 
z
" clip-path="url(#pc248c7d861)" style="fill: #bebebe"/>
    <path d="M 15.307057 124.34 
C 15.439658 124.34 15.566847 124.287317 15.66061 124.193553 
C 15.754373 124.09979 15.807057 123.972602 15.807057 123.84 
C 15.807057 123.707398 15.754373 123.58021 15.66061 123.486447 
C 15.566847 123.392683 15.439658 123.34 15.307057 123.34 
C 15.174455 123.34 15.047267 123.392683 14.953503 123.486447 
C 14.85974 123.58021 14.807057 123.707398 14.807057 123.84 
C 14.807057 123.972602 14.85974 124.09979 14.953503 124.193553 
C 15.047267 124.287317 15.174455 124.34 15.307057 124.34 
z
" clip-path="url(#pc248c7d861)" style="fill: #bebebe"/>
    <path d="M 19.259057 129.792267 
C 19.391659 129.792267 19.518847 129.739584 19.61261 129.64582 
C 19.706374 129.552057 19.759057 129.424868 19.759057 129.292267 
C 19.759057 129.159665 19.706374 129.032477 19.61261 128.938714 
C 19.518847 128.84495 19.391659 128.792267 19.259057 128.792267 
C 19.126456 128.792267 18.999267 128.84495 18.905504 128.938714 
C 18.81174 129.032477 18.759057 129.159665 18.759057 129.292267 
C 18.759057 129.424868 18.81174 129.552057 18.905504 129.64582 
C 18.999267 129.739584 19.126456 129.792267 19.259057 129.792267 
z
" clip-path="url(#pc248c7d861)" style="fill: #bebebe"/>
    <path d="M 29.605529 135.161953 
C 30.268537 135.161953 30.904478 134.898537 31.373296 134.42972 
C 31.842113 133.960903 32.105529 133.324961 32.105529 132.661953 
C 32.105529 131.998945 31.842113 131.363004 31.373296 130.894186 
C 30.904478 130.425369 30.268537 130.161953 29.605529 130.161953 
C 28.942521 130.161953 28.306579 130.425369 27.837762 130.894186 
C 27.368945 131.363004 27.105529 131.998945 27.105529 132.661953 
C 27.105529 133.324961 27.368945 133.960903 27.837762 134.42972 
C 28.306579 134.898537 28.942521 135.161953 29.605529 135.161953 
z
" clip-path="url(#pc248c7d861)" style="fill: #bebebe"/>
    <path d="M 42.394471 133.161953 
C 42.527073 133.161953 42.654261 133.10927 42.748025 133.015507 
C 42.841788 132.921743 42.894471 132.794555 42.894471 132.661953 
C 42.894471 132.529352 42.841788 132.402163 42.748025 132.3084 
C 42.654261 132.214636 42.527073 132.161953 42.394471 132.161953 
C 42.26187 132.161953 42.134681 132.214636 42.040918 132.3084 
C 41.947154 132.402163 41.894471 132.529352 41.894471 132.661953 
C 41.894471 132.794555 41.947154 132.921743 42.040918 133.015507 
C 42.134681 133.10927 42.26187 133.161953 42.394471 133.161953 
z
" clip-path="url(#pc248c7d861)" style="fill: #bebebe"/>
    <path d="M 52.740943 129.792267 
C 52.873544 129.792267 53.000733 129.739584 53.094496 129.64582 
C 53.18826 129.552057 53.240943 129.424868 53.240943 129.292267 
C 53.240943 129.159665 53.18826 129.032477 53.094496 128.938714 
C 53.000733 128.84495 52.873544 128.792267 52.740943 128.792267 
C 52.608341 128.792267 52.481153 128.84495 52.38739 128.938714 
C 52.293626 129.032477 52.240943 129.159665 52.240943 129.292267 
C 52.240943 129.424868 52.293626 129.552057 52.38739 129.64582 
C 52.481153 129.739584 52.608341 129.792267 52.740943 129.792267 
z
" clip-path="url(#pc248c7d861)" style="fill: #bebebe"/>
   </g>
   <g id="matplotlib.axis_7"/>
   <g id="matplotlib.axis_8"/>
  </g>
  <g id="axes_5">
   <g id="patch_6">
    <path d="M 10.8 169.2 
L 61.2 169.2 
L 61.2 146.16 
L 10.8 146.16 
z
" style="fill: #ffffff"/>
   </g>
   <g id="EdgeCollection_5">
    <path d="M 57.125956 157.93 
C 83.423139 171.299715 83.423139 144.060285 57.125956 157.43 
C 83.423139 144.060285 83.423139 171.299715 57.125956 157.93 
" clip-path="url(#p3af9d6e259)" style="fill: #020202"/>
    <path d="M 56.399503 157.275163 
L 53.034383 152.63257 
" clip-path="url(#p3af9d6e259)" style="fill: #020202"/>
    <path d="M 56.267419 157.417457 
L 44.522095 150.17076 
" clip-path="url(#p3af9d6e259)" style="fill: #020202; stroke: #020202; stroke-width: 0.99"/>
    <path d="M 56.217522 157.525163 
L 30.08095 149.012884 
" clip-path="url(#p3af9d6e259)" style="fill: #020202"/>
    <path d="M 56.198164 157.607935 
L 19.753837 152.299798 
" clip-path="url(#p3af9d6e259)" style="fill: #020202"/>
    <path d="M 56.192943 157.68 
L 15.807057 157.68 
" clip-path="url(#p3af9d6e259)" style="fill: #020202"/>
    <path d="M 56.198164 157.752065 
L 19.753837 163.060202 
" clip-path="url(#p3af9d6e259)" style="fill: #020202"/>
    <path d="M 56.217522 157.834837 
L 30.08095 166.347116 
" clip-path="url(#p3af9d6e259)" style="fill: #020202; stroke: #020202; stroke-width: 0.99"/>
    <path d="M 56.267419 157.942543 
L 44.522095 165.18924 
" clip-path="url(#p3af9d6e259)" style="fill: #020202"/>
    <path d="M 56.399503 158.084837 
L 53.034383 162.72743 
" clip-path="url(#p3af9d6e259)" style="fill: #020202"/>
    <path d="M 53.197899 152.024778 
C 79.483449 138.632206 57.460782 122.601341 52.793657 151.73052 
C 57.460782 122.601341 79.483449 138.632206 53.197899 152.024778 
" clip-path="url(#p3af9d6e259)" style="fill: #020202"/>
    <path d="M 52.265522 152.072896 
L 44.771578 149.632234 
" clip-path="url(#p3af9d6e259)" style="fill: #020202"/>
    <path d="M 52.246163 152.155668 
L 30.100308 148.930112 
" clip-path="url(#p3af9d6e259)" style="fill: #020202"/>
    <path d="M 52.240943 152.227733 
L 19.759057 152.227733 
" clip-path="url(#p3af9d6e259)" style="fill: #020202"/>
    <path d="M 52.246163 152.299798 
L 15.801836 157.607935 
" clip-path="url(#p3af9d6e259)" style="fill: #020202"/>
    <path d="M 52.265522 152.38257 
L 19.734478 162.97743 
" clip-path="url(#p3af9d6e259)" style="fill: #020202; stroke: #020202; stroke-width: 0.99"/>
    <path d="M 52.315418 152.490276 
L 30.031054 166.23941 
" clip-path="url(#p3af9d6e259)" style="fill: #020202"/>
    <path d="M 52.447503 152.63257 
L 43.861673 164.47777 
" clip-path="url(#p3af9d6e259)" style="fill: #020202"/>
    <path d="M 52.740943 152.727733 
L 52.740943 162.632267 
" clip-path="url(#p3af9d6e259)" style="fill: #020202"/>
    <path d="M 43.968444 146.915726 
C 60.036421 124.593637 33.133829 120.323147 41.499359 146.523786 
C 33.133829 120.323147 60.036421 124.593637 43.968444 146.915726 
" clip-path="url(#p3af9d6e259)" style="fill: #020202"/>
    <path d="M 39.894471 148.858047 
L 30.105529 148.858047 
" clip-path="url(#p3af9d6e259)" style="fill: #020202; stroke: #020202; stroke-width: 0.99"/>
    <path d="M 39.920574 149.218371 
L 19.753837 152.155668 
" clip-path="url(#p3af9d6e259)" style="fill: #020202"/>
    <path d="M 40.017365 149.632234 
L 15.782478 157.525163 
" clip-path="url(#p3af9d6e259)" style="fill: #020202"/>
    <path d="M 40.266847 150.17076 
L 19.684582 162.869724 
" clip-path="url(#p3af9d6e259)" style="fill: #020202"/>
    <path d="M 40.92727 150.88223 
L 29.898969 166.097116 
" clip-path="url(#p3af9d6e259)" style="fill: #020202"/>
    <path d="M 42.394471 151.358047 
L 42.394471 164.001953 
" clip-path="url(#p3af9d6e259)" style="fill: #020202; stroke: #020202; stroke-width: 0.99"/>
    <path d="M 43.861673 150.88223 
L 52.447503 162.72743 
" clip-path="url(#p3af9d6e259)" style="fill: #020202"/>
    <path d="M 29.784551 148.391195 
C 38.866171 120.323147 11.963579 124.593637 29.290734 148.469583 
C 11.963579 124.593637 38.866171 120.323147 29.784551 148.391195 
" clip-path="url(#p3af9d6e259)" style="fill: #020202"/>
    <path d="M 29.130108 149.012884 
L 19.734478 152.072896 
" clip-path="url(#p3af9d6e259)" style="fill: #020202"/>
    <path d="M 29.180004 149.12059 
L 15.732581 157.417457 
" clip-path="url(#p3af9d6e259)" style="fill: #020202"/>
    <path d="M 29.312088 149.262884 
L 19.552497 162.72743 
" clip-path="url(#p3af9d6e259)" style="fill: #020202"/>
    <path d="M 29.605529 149.358047 
L 29.605529 166.001953 
" clip-path="url(#p3af9d6e259)" style="fill: #020202"/>
    <path d="M 29.898969 149.262884 
L 40.92727 164.47777 
" clip-path="url(#p3af9d6e259)" style="fill: #020202"/>
    <path d="M 30.031054 149.12059 
L 52.315418 162.869724 
" clip-path="url(#p3af9d6e259)" style="fill: #020202; stroke: #020202; stroke-width: 0.99"/>
    <path d="M 19.206343 151.73052 
C 14.539218 122.601341 -7.483449 138.632206 18.802101 152.024778 
C -7.483449 138.632206 14.539218 122.601341 19.206343 151.73052 
" clip-path="url(#p3af9d6e259)" style="fill: #020202"/>
    <path d="M 18.965617 152.63257 
L 15.600497 157.275163 
" clip-path="url(#p3af9d6e259)" style="fill: #020202"/>
    <path d="M 19.259057 152.727733 
L 19.259057 162.632267 
" clip-path="url(#p3af9d6e259)" style="fill: #020202"/>
    <path d="M 19.552497 152.63257 
L 29.312088 166.097116 
" clip-path="url(#p3af9d6e259)" style="fill: #020202; stroke: #020202; stroke-width: 0.99"/>
    <path d="M 19.684582 152.490276 
L 40.266847 165.18924 
" clip-path="url(#p3af9d6e259)" style="fill: #020202"/>
    <path d="M 19.734478 152.38257 
L 52.265522 162.97743 
" clip-path="url(#p3af9d6e259)" style="fill: #020202"/>
    <path d="M 14.874044 157.43 
C -11.423139 144.060285 -11.423139 171.299715 14.874044 157.93 
C -11.423139 171.299715 -11.423139 144.060285 14.874044 157.43 
" clip-path="url(#p3af9d6e259)" style="fill: #020202"/>
    <path d="M 15.600497 158.084837 
L 18.965617 162.72743 
" clip-path="url(#p3af9d6e259)" style="fill: #020202; stroke: #020202; stroke-width: 0.99"/>
    <path d="M 15.732581 157.942543 
L 29.180004 166.23941 
" clip-path="url(#p3af9d6e259)" style="fill: #020202"/>
    <path d="M 15.782478 157.834837 
L 40.017365 165.727766 
" clip-path="url(#p3af9d6e259)" style="fill: #020202; stroke: #020202; stroke-width: 0.99"/>
    <path d="M 15.801836 157.752065 
L 52.246163 163.060202 
" clip-path="url(#p3af9d6e259)" style="fill: #020202"/>
    <path d="M 18.802101 163.335222 
C -7.483449 176.727794 14.539218 192.758659 19.206343 163.62948 
C 14.539218 192.758659 -7.483449 176.727794 18.802101 163.335222 
" clip-path="url(#p3af9d6e259)" style="fill: #020202"/>
    <path d="M 19.734478 163.287104 
L 29.130108 166.347116 
" clip-path="url(#p3af9d6e259)" style="fill: #020202"/>
    <path d="M 19.753837 163.204332 
L 39.920574 166.141629 
" clip-path="url(#p3af9d6e259)" style="fill: #020202"/>
    <path d="M 19.759057 163.132267 
L 52.240943 163.132267 
" clip-path="url(#p3af9d6e259)" style="fill: #020202"/>
    <path d="M 29.290734 166.890417 
C 11.963579 190.766363 38.866171 195.036853 29.784551 166.968805 
C 38.866171 195.036853 11.963579 190.766363 29.290734 166.890417 
" clip-path="url(#p3af9d6e259)" style="fill: #020202"/>
    <path d="M 30.105529 166.501953 
L 39.894471 166.501953 
" clip-path="url(#p3af9d6e259)" style="fill: #020202"/>
    <path d="M 30.100308 166.429888 
L 52.246163 163.204332 
" clip-path="url(#p3af9d6e259)" style="fill: #020202"/>
    <path d="M 41.499359 168.836214 
C 33.133829 195.036853 60.036421 190.766363 43.968444 168.444274 
C 60.036421 190.766363 33.133829 195.036853 41.499359 168.836214 
" clip-path="url(#p3af9d6e259)" style="fill: #020202"/>
    <path d="M 44.771578 165.727766 
L 52.265522 163.287104 
" clip-path="url(#p3af9d6e259)" style="fill: #020202; stroke: #020202; stroke-width: 0.99"/>
    <path d="M 52.793657 163.62948 
C 57.460782 192.758659 79.483449 176.727794 53.197899 163.335222 
C 79.483449 176.727794 57.460782 192.758659 52.793657 163.62948 
" clip-path="url(#p3af9d6e259)" style="fill: #020202"/>
   </g>
   <g id="VertexCollection_5">
    <path d="M 56.692943 158.18 
C 56.825545 158.18 56.952733 158.127317 57.046497 158.033553 
C 57.14026 157.93979 57.192943 157.812602 57.192943 157.68 
C 57.192943 157.547398 57.14026 157.42021 57.046497 157.326447 
C 56.952733 157.232683 56.825545 157.18 56.692943 157.18 
C 56.560342 157.18 56.433153 157.232683 56.33939 157.326447 
C 56.245627 157.42021 56.192943 157.547398 56.192943 157.68 
C 56.192943 157.812602 56.245627 157.93979 56.33939 158.033553 
C 56.433153 158.127317 56.560342 158.18 56.692943 158.18 
z
" clip-path="url(#p3af9d6e259)" style="fill: #bebebe"/>
    <path d="M 52.740943 152.727733 
C 52.873544 152.727733 53.000733 152.67505 53.094496 152.581286 
C 53.18826 152.487523 53.240943 152.360335 53.240943 152.227733 
C 53.240943 152.095132 53.18826 151.967943 53.094496 151.87418 
C 53.000733 151.780416 52.873544 151.727733 52.740943 151.727733 
C 52.608341 151.727733 52.481153 151.780416 52.38739 151.87418 
C 52.293626 151.967943 52.240943 152.095132 52.240943 152.227733 
C 52.240943 152.360335 52.293626 152.487523 52.38739 152.581286 
C 52.481153 152.67505 52.608341 152.727733 52.740943 152.727733 
z
" clip-path="url(#p3af9d6e259)" style="fill: #bebebe"/>
    <path d="M 42.394471 151.358047 
C 43.057479 151.358047 43.693421 151.094631 44.162238 150.625814 
C 44.631055 150.156996 44.894471 149.521055 44.894471 148.858047 
C 44.894471 148.195039 44.631055 147.559097 44.162238 147.09028 
C 43.693421 146.621463 43.057479 146.358047 42.394471 146.358047 
C 41.731463 146.358047 41.095522 146.621463 40.626704 147.09028 
C 40.157887 147.559097 39.894471 148.195039 39.894471 148.858047 
C 39.894471 149.521055 40.157887 150.156996 40.626704 150.625814 
C 41.095522 151.094631 41.731463 151.358047 42.394471 151.358047 
z
" clip-path="url(#p3af9d6e259)" style="fill: #bebebe"/>
    <path d="M 29.605529 149.358047 
C 29.73813 149.358047 29.865319 149.305364 29.959082 149.2116 
C 30.052846 149.117837 30.105529 148.990648 30.105529 148.858047 
C 30.105529 148.725445 30.052846 148.598257 29.959082 148.504493 
C 29.865319 148.41073 29.73813 148.358047 29.605529 148.358047 
C 29.472927 148.358047 29.345739 148.41073 29.251975 148.504493 
C 29.158212 148.598257 29.105529 148.725445 29.105529 148.858047 
C 29.105529 148.990648 29.158212 149.117837 29.251975 149.2116 
C 29.345739 149.305364 29.472927 149.358047 29.605529 149.358047 
z
" clip-path="url(#p3af9d6e259)" style="fill: #bebebe"/>
    <path d="M 19.259057 152.727733 
C 19.391659 152.727733 19.518847 152.67505 19.61261 152.581286 
C 19.706374 152.487523 19.759057 152.360335 19.759057 152.227733 
C 19.759057 152.095132 19.706374 151.967943 19.61261 151.87418 
C 19.518847 151.780416 19.391659 151.727733 19.259057 151.727733 
C 19.126456 151.727733 18.999267 151.780416 18.905504 151.87418 
C 18.81174 151.967943 18.759057 152.095132 18.759057 152.227733 
C 18.759057 152.360335 18.81174 152.487523 18.905504 152.581286 
C 18.999267 152.67505 19.126456 152.727733 19.259057 152.727733 
z
" clip-path="url(#p3af9d6e259)" style="fill: #bebebe"/>
    <path d="M 15.307057 158.18 
C 15.439658 158.18 15.566847 158.127317 15.66061 158.033553 
C 15.754373 157.93979 15.807057 157.812602 15.807057 157.68 
C 15.807057 157.547398 15.754373 157.42021 15.66061 157.326447 
C 15.566847 157.232683 15.439658 157.18 15.307057 157.18 
C 15.174455 157.18 15.047267 157.232683 14.953503 157.326447 
C 14.85974 157.42021 14.807057 157.547398 14.807057 157.68 
C 14.807057 157.812602 14.85974 157.93979 14.953503 158.033553 
C 15.047267 158.127317 15.174455 158.18 15.307057 158.18 
z
" clip-path="url(#p3af9d6e259)" style="fill: #bebebe"/>
    <path d="M 19.259057 163.632267 
C 19.391659 163.632267 19.518847 163.579584 19.61261 163.48582 
C 19.706374 163.392057 19.759057 163.264868 19.759057 163.132267 
C 19.759057 162.999665 19.706374 162.872477 19.61261 162.778714 
C 19.518847 162.68495 19.391659 162.632267 19.259057 162.632267 
C 19.126456 162.632267 18.999267 162.68495 18.905504 162.778714 
C 18.81174 162.872477 18.759057 162.999665 18.759057 163.132267 
C 18.759057 163.264868 18.81174 163.392057 18.905504 163.48582 
C 18.999267 163.579584 19.126456 163.632267 19.259057 163.632267 
z
" clip-path="url(#p3af9d6e259)" style="fill: #bebebe"/>
    <path d="M 29.605529 167.001953 
C 29.73813 167.001953 29.865319 166.94927 29.959082 166.855507 
C 30.052846 166.761743 30.105529 166.634555 30.105529 166.501953 
C 30.105529 166.369352 30.052846 166.242163 29.959082 166.1484 
C 29.865319 166.054636 29.73813 166.001953 29.605529 166.001953 
C 29.472927 166.001953 29.345739 166.054636 29.251975 166.1484 
C 29.158212 166.242163 29.105529 166.369352 29.105529 166.501953 
C 29.105529 166.634555 29.158212 166.761743 29.251975 166.855507 
C 29.345739 166.94927 29.472927 167.001953 29.605529 167.001953 
z
" clip-path="url(#p3af9d6e259)" style="fill: #bebebe"/>
    <path d="M 42.394471 169.001953 
C 43.057479 169.001953 43.693421 168.738537 44.162238 168.26972 
C 44.631055 167.800903 44.894471 167.164961 44.894471 166.501953 
C 44.894471 165.838945 44.631055 165.203004 44.162238 164.734186 
C 43.693421 164.265369 43.057479 164.001953 42.394471 164.001953 
C 41.731463 164.001953 41.095522 164.265369 40.626704 164.734186 
C 40.157887 165.203004 39.894471 165.838945 39.894471 166.501953 
C 39.894471 167.164961 40.157887 167.800903 40.626704 168.26972 
C 41.095522 168.738537 41.731463 169.001953 42.394471 169.001953 
z
" clip-path="url(#p3af9d6e259)" style="fill: #bebebe"/>
    <path d="M 52.740943 163.632267 
C 52.873544 163.632267 53.000733 163.579584 53.094496 163.48582 
C 53.18826 163.392057 53.240943 163.264868 53.240943 163.132267 
C 53.240943 162.999665 53.18826 162.872477 53.094496 162.778714 
C 53.000733 162.68495 52.873544 162.632267 52.740943 162.632267 
C 52.608341 162.632267 52.481153 162.68495 52.38739 162.778714 
C 52.293626 162.872477 52.240943 162.999665 52.240943 163.132267 
C 52.240943 163.264868 52.293626 163.392057 52.38739 163.48582 
C 52.481153 163.579584 52.608341 163.632267 52.740943 163.632267 
z
" clip-path="url(#p3af9d6e259)" style="fill: #bebebe"/>
   </g>
   <g id="matplotlib.axis_9"/>
   <g id="matplotlib.axis_10"/>
  </g>
 </g>
 <defs>
  <clipPath id="p4c8a3d83dc">
   <rect x="10.8" y="10.8" width="50.4" height="23.04"/>
  </clipPath>
  <clipPath id="pa2eed49812">
   <rect x="10.8" y="44.64" width="50.4" height="23.04"/>
  </clipPath>
  <clipPath id="pfd6f333f71">
   <rect x="10.8" y="78.48" width="50.4" height="23.04"/>
  </clipPath>
  <clipPath id="pc248c7d861">
   <rect x="10.8" y="112.32" width="50.4" height="23.04"/>
  </clipPath>
  <clipPath id="p3af9d6e259">
   <rect x="10.8" y="146.16" width="50.4" height="23.04"/>
  </clipPath>
 </defs>
</svg>
