<?xml version="1.0" encoding="utf-8" standalone="no"?>
<!DOCTYPE svg PUBLIC "-//W3C//DTD SVG 1.1//EN"
  "http://www.w3.org/Graphics/SVG/1.1/DTD/svg11.dtd">
<svg xmlns:xlink="http://www.w3.org/1999/xlink" width="72pt" height="180pt" viewBox="0 0 72 180" xmlns="http://www.w3.org/2000/svg" version="1.1">
 <metadata>
  <rdf:RDF xmlns:dc="http://purl.org/dc/elements/1.1/" xmlns:cc="http://creativecommons.org/ns#" xmlns:rdf="http://www.w3.org/1999/02/22-rdf-syntax-ns#">
   <cc:Work>
    <dc:type rdf:resource="http://purl.org/dc/dcmitype/StillImage"/>
    <dc:date>2025-06-06T13:44:40.450712</dc:date>
    <dc:format>image/svg+xml</dc:format>
    <dc:creator>
     <cc:Agent>
      <dc:title>Matplotlib v3.9.2, https://matplotlib.org/</dc:title>
     </cc:Agent>
    </dc:creator>
   </cc:Work>
  </rdf:RDF>
 </metadata>
 <defs>
  <style type="text/css">*{stroke-linejoin: round; stroke-linecap: butt}</style>
 </defs>
 <g id="figure_1">
  <g id="patch_1">
   <path d="M 0 180 
L 72 180 
L 72 0 
L 0 0 
z
" style="fill: #ffffff"/>
  </g>
  <g id="axes_1">
   <g id="patch_2">
    <path d="M 10.8 33.84 
L 61.2 33.84 
L 61.2 10.8 
L 10.8 10.8 
z
" style="fill: #ffffff"/>
   </g>
   <g id="EdgeCollection_1">
    <path d="M 57.125956 22.57 
C 83.423139 35.939715 83.423139 8.700285 57.125956 22.07 
C 83.423139 8.700285 83.423139 35.939715 57.125956 22.57 
" clip-path="url(#p6430c58499)" style="fill: #020202"/>
    <path d="M 56.399503 21.915163 
L 53.034383 17.27257 
" clip-path="url(#p6430c58499)" style="fill: #020202"/>
    <path d="M 56.267419 22.057457 
L 42.819996 13.76059 
" clip-path="url(#p6430c58499)" style="fill: #020202"/>
    <path d="M 56.217522 22.165163 
L 31.982635 14.272234 
" clip-path="url(#p6430c58499)" style="fill: #020202"/>
    <path d="M 56.198164 22.247935 
L 19.753837 16.939798 
" clip-path="url(#p6430c58499)" style="fill: #020202"/>
    <path d="M 56.192943 22.32 
L 15.807057 22.32 
" clip-path="url(#p6430c58499)" style="fill: #020202"/>
    <path d="M 56.198164 22.392065 
L 19.753837 27.700202 
" clip-path="url(#p6430c58499)" style="fill: #020202"/>
    <path d="M 56.217522 22.474837 
L 30.08095 30.987116 
" clip-path="url(#p6430c58499)" style="fill: #020202"/>
    <path d="M 56.267419 22.582543 
L 44.522095 29.82924 
" clip-path="url(#p6430c58499)" style="fill: #020202"/>
    <path d="M 56.399503 22.724837 
L 54.208145 25.748083 
" clip-path="url(#p6430c58499)" style="fill: #020202"/>
    <path d="M 53.197899 16.664778 
C 79.483449 3.272206 57.460782 -12.758659 52.793657 16.37052 
C 57.460782 -12.758659 79.483449 3.272206 53.197899 16.664778 
" clip-path="url(#p6430c58499)" style="fill: #020202"/>
    <path d="M 52.265522 16.712896 
L 42.869892 13.652884 
" clip-path="url(#p6430c58499)" style="fill: #020202"/>
    <path d="M 52.246163 16.795668 
L 32.079426 13.858371 
" clip-path="url(#p6430c58499)" style="fill: #020202"/>
    <path d="M 52.240943 16.867733 
L 19.759057 16.867733 
" clip-path="url(#p6430c58499)" style="fill: #020202"/>
    <path d="M 52.246163 16.939798 
L 15.801836 22.247935 
" clip-path="url(#p6430c58499)" style="fill: #020202"/>
    <path d="M 52.265522 17.02257 
L 19.734478 27.61743 
" clip-path="url(#p6430c58499)" style="fill: #020202"/>
    <path d="M 52.315418 17.130276 
L 30.031054 30.87941 
" clip-path="url(#p6430c58499)" style="fill: #020202"/>
    <path d="M 52.447503 17.27257 
L 43.861673 29.11777 
" clip-path="url(#p6430c58499)" style="fill: #020202"/>
    <path d="M 52.740943 17.367733 
L 52.740943 25.272267 
" clip-path="url(#p6430c58499)" style="fill: #020202; stroke: #020202; stroke-width: 0.99"/>
    <path d="M 42.709266 13.109583 
C 60.036421 -10.766363 33.133829 -15.036853 42.215449 13.031195 
C 33.133829 -15.036853 60.036421 -10.766363 42.709266 13.109583 
" clip-path="url(#p6430c58499)" style="fill: #020202"/>
    <path d="M 41.894471 13.498047 
L 32.105529 13.498047 
" clip-path="url(#p6430c58499)" style="fill: #020202; stroke: #020202; stroke-width: 0.99"/>
    <path d="M 41.899692 13.570112 
L 19.753837 16.795668 
" clip-path="url(#p6430c58499)" style="fill: #020202"/>
    <path d="M 41.91905 13.652884 
L 15.782478 22.165163 
" clip-path="url(#p6430c58499)" style="fill: #020202"/>
    <path d="M 41.968946 13.76059 
L 19.684582 27.509724 
" clip-path="url(#p6430c58499)" style="fill: #020202"/>
    <path d="M 42.101031 13.902884 
L 29.898969 30.737116 
" clip-path="url(#p6430c58499)" style="fill: #020202"/>
    <path d="M 42.394471 13.998047 
L 42.394471 28.641953 
" clip-path="url(#p6430c58499)" style="fill: #020202; stroke: #020202; stroke-width: 0.99"/>
    <path d="M 42.687912 13.902884 
L 51.273741 25.748083 
" clip-path="url(#p6430c58499)" style="fill: #020202"/>
    <path d="M 30.500641 11.163786 
C 38.866171 -15.036853 11.963579 -10.766363 28.031556 11.555726 
C 11.963579 -10.766363 38.866171 -15.036853 30.500641 11.163786 
" clip-path="url(#p6430c58499)" style="fill: #020202"/>
    <path d="M 27.228422 14.272234 
L 19.734478 16.712896 
" clip-path="url(#p6430c58499)" style="fill: #020202"/>
    <path d="M 27.477905 14.81076 
L 15.732581 22.057457 
" clip-path="url(#p6430c58499)" style="fill: #020202"/>
    <path d="M 28.138327 15.52223 
L 19.552497 27.36743 
" clip-path="url(#p6430c58499)" style="fill: #020202"/>
    <path d="M 29.605529 15.998047 
L 29.605529 30.641953 
" clip-path="url(#p6430c58499)" style="fill: #020202"/>
    <path d="M 31.07273 15.52223 
L 40.92727 29.11777 
" clip-path="url(#p6430c58499)" style="fill: #020202; stroke: #020202; stroke-width: 0.99"/>
    <path d="M 31.733153 14.81076 
L 50.613319 26.459553 
" clip-path="url(#p6430c58499)" style="fill: #020202; stroke: #020202; stroke-width: 0.99"/>
    <path d="M 19.206343 16.37052 
C 14.539218 -12.758659 -7.483449 3.272206 18.802101 16.664778 
C -7.483449 3.272206 14.539218 -12.758659 19.206343 16.37052 
" clip-path="url(#p6430c58499)" style="fill: #020202"/>
    <path d="M 18.965617 17.27257 
L 15.600497 21.915163 
" clip-path="url(#p6430c58499)" style="fill: #020202"/>
    <path d="M 19.259057 17.367733 
L 19.259057 27.272267 
" clip-path="url(#p6430c58499)" style="fill: #020202; stroke: #020202; stroke-width: 0.99"/>
    <path d="M 19.552497 17.27257 
L 29.312088 30.737116 
" clip-path="url(#p6430c58499)" style="fill: #020202"/>
    <path d="M 19.684582 17.130276 
L 40.266847 29.82924 
" clip-path="url(#p6430c58499)" style="fill: #020202"/>
    <path d="M 19.734478 17.02257 
L 50.363837 26.99808 
" clip-path="url(#p6430c58499)" style="fill: #020202"/>
    <path d="M 14.874044 22.07 
C -11.423139 8.700285 -11.423139 35.939715 14.874044 22.57 
C -11.423139 35.939715 -11.423139 8.700285 14.874044 22.07 
" clip-path="url(#p6430c58499)" style="fill: #020202"/>
    <path d="M 15.600497 22.724837 
L 18.965617 27.36743 
" clip-path="url(#p6430c58499)" style="fill: #020202"/>
    <path d="M 15.732581 22.582543 
L 29.180004 30.87941 
" clip-path="url(#p6430c58499)" style="fill: #020202"/>
    <path d="M 15.782478 22.474837 
L 40.017365 30.367766 
" clip-path="url(#p6430c58499)" style="fill: #020202"/>
    <path d="M 15.801836 22.392065 
L 50.267046 27.411942 
" clip-path="url(#p6430c58499)" style="fill: #020202"/>
    <path d="M 18.802101 27.975222 
C -7.483449 41.367794 14.539218 57.398659 19.206343 28.26948 
C 14.539218 57.398659 -7.483449 41.367794 18.802101 27.975222 
" clip-path="url(#p6430c58499)" style="fill: #020202"/>
    <path d="M 19.734478 27.927104 
L 29.130108 30.987116 
" clip-path="url(#p6430c58499)" style="fill: #020202"/>
    <path d="M 19.753837 27.844332 
L 39.920574 30.781629 
" clip-path="url(#p6430c58499)" style="fill: #020202"/>
    <path d="M 19.759057 27.772267 
L 50.240943 27.772267 
" clip-path="url(#p6430c58499)" style="fill: #020202"/>
    <path d="M 29.290734 31.530417 
C 11.963579 55.406363 38.866171 59.676853 29.784551 31.608805 
C 38.866171 59.676853 11.963579 55.406363 29.290734 31.530417 
" clip-path="url(#p6430c58499)" style="fill: #020202"/>
    <path d="M 30.105529 31.141953 
L 39.894471 31.141953 
" clip-path="url(#p6430c58499)" style="fill: #020202"/>
    <path d="M 30.100308 31.069888 
L 50.267046 28.132591 
" clip-path="url(#p6430c58499)" style="fill: #020202"/>
    <path d="M 41.499359 33.476214 
C 33.133829 59.676853 60.036421 55.406363 43.968444 33.084274 
C 60.036421 55.406363 33.133829 59.676853 41.499359 33.476214 
" clip-path="url(#p6430c58499)" style="fill: #020202"/>
    <path d="M 44.771578 30.367766 
L 50.363837 28.546454 
" clip-path="url(#p6430c58499)" style="fill: #020202; stroke: #020202; stroke-width: 0.99"/>
    <path d="M 53.004513 30.258334 
C 57.460782 57.398659 79.483449 41.367794 55.025726 28.787042 
C 79.483449 41.367794 57.460782 57.398659 53.004513 30.258334 
" clip-path="url(#p6430c58499)" style="fill: #020202"/>
   </g>
   <g id="VertexCollection_1">
    <path d="M 56.692943 22.82 
C 56.825545 22.82 56.952733 22.767317 57.046497 22.673553 
C 57.14026 22.57979 57.192943 22.452602 57.192943 22.32 
C 57.192943 22.187398 57.14026 22.06021 57.046497 21.966447 
C 56.952733 21.872683 56.825545 21.82 56.692943 21.82 
C 56.560342 21.82 56.433153 21.872683 56.33939 21.966447 
C 56.245627 22.06021 56.192943 22.187398 56.192943 22.32 
C 56.192943 22.452602 56.245627 22.57979 56.33939 22.673553 
C 56.433153 22.767317 56.560342 22.82 56.692943 22.82 
z
" clip-path="url(#p6430c58499)" style="fill: #bebebe"/>
    <path d="M 52.740943 17.367733 
C 52.873544 17.367733 53.000733 17.31505 53.094496 17.221286 
C 53.18826 17.127523 53.240943 17.000335 53.240943 16.867733 
C 53.240943 16.735132 53.18826 16.607943 53.094496 16.51418 
C 53.000733 16.420416 52.873544 16.367733 52.740943 16.367733 
C 52.608341 16.367733 52.481153 16.420416 52.38739 16.51418 
C 52.293626 16.607943 52.240943 16.735132 52.240943 16.867733 
C 52.240943 17.000335 52.293626 17.127523 52.38739 17.221286 
C 52.481153 17.31505 52.608341 17.367733 52.740943 17.367733 
z
" clip-path="url(#p6430c58499)" style="fill: #bebebe"/>
    <path d="M 42.394471 13.998047 
C 42.527073 13.998047 42.654261 13.945364 42.748025 13.8516 
C 42.841788 13.757837 42.894471 13.630648 42.894471 13.498047 
C 42.894471 13.365445 42.841788 13.238257 42.748025 13.144493 
C 42.654261 13.05073 42.527073 12.998047 42.394471 12.998047 
C 42.26187 12.998047 42.134681 13.05073 42.040918 13.144493 
C 41.947154 13.238257 41.894471 13.365445 41.894471 13.498047 
C 41.894471 13.630648 41.947154 13.757837 42.040918 13.8516 
C 42.134681 13.945364 42.26187 13.998047 42.394471 13.998047 
z
" clip-path="url(#p6430c58499)" style="fill: #bebebe"/>
    <path d="M 29.605529 15.998047 
C 30.268537 15.998047 30.904478 15.734631 31.373296 15.265814 
C 31.842113 14.796996 32.105529 14.161055 32.105529 13.498047 
C 32.105529 12.835039 31.842113 12.199097 31.373296 11.73028 
C 30.904478 11.261463 30.268537 10.998047 29.605529 10.998047 
C 28.942521 10.998047 28.306579 11.261463 27.837762 11.73028 
C 27.368945 12.199097 27.105529 12.835039 27.105529 13.498047 
C 27.105529 14.161055 27.368945 14.796996 27.837762 15.265814 
C 28.306579 15.734631 28.942521 15.998047 29.605529 15.998047 
z
" clip-path="url(#p6430c58499)" style="fill: #bebebe"/>
    <path d="M 19.259057 17.367733 
C 19.391659 17.367733 19.518847 17.31505 19.61261 17.221286 
C 19.706374 17.127523 19.759057 17.000335 19.759057 16.867733 
C 19.759057 16.735132 19.706374 16.607943 19.61261 16.51418 
C 19.518847 16.420416 19.391659 16.367733 19.259057 16.367733 
C 19.126456 16.367733 18.999267 16.420416 18.905504 16.51418 
C 18.81174 16.607943 18.759057 16.735132 18.759057 16.867733 
C 18.759057 17.000335 18.81174 17.127523 18.905504 17.221286 
C 18.999267 17.31505 19.126456 17.367733 19.259057 17.367733 
z
" clip-path="url(#p6430c58499)" style="fill: #bebebe"/>
    <path d="M 15.307057 22.82 
C 15.439658 22.82 15.566847 22.767317 15.66061 22.673553 
C 15.754373 22.57979 15.807057 22.452602 15.807057 22.32 
C 15.807057 22.187398 15.754373 22.06021 15.66061 21.966447 
C 15.566847 21.872683 15.439658 21.82 15.307057 21.82 
C 15.174455 21.82 15.047267 21.872683 14.953503 21.966447 
C 14.85974 22.06021 14.807057 22.187398 14.807057 22.32 
C 14.807057 22.452602 14.85974 22.57979 14.953503 22.673553 
C 15.047267 22.767317 15.174455 22.82 15.307057 22.82 
z
" clip-path="url(#p6430c58499)" style="fill: #bebebe"/>
    <path d="M 19.259057 28.272267 
C 19.391659 28.272267 19.518847 28.219584 19.61261 28.12582 
C 19.706374 28.032057 19.759057 27.904868 19.759057 27.772267 
C 19.759057 27.639665 19.706374 27.512477 19.61261 27.418714 
C 19.518847 27.32495 19.391659 27.272267 19.259057 27.272267 
C 19.126456 27.272267 18.999267 27.32495 18.905504 27.418714 
C 18.81174 27.512477 18.759057 27.639665 18.759057 27.772267 
C 18.759057 27.904868 18.81174 28.032057 18.905504 28.12582 
C 18.999267 28.219584 19.126456 28.272267 19.259057 28.272267 
z
" clip-path="url(#p6430c58499)" style="fill: #bebebe"/>
    <path d="M 29.605529 31.641953 
C 29.73813 31.641953 29.865319 31.58927 29.959082 31.495507 
C 30.052846 31.401743 30.105529 31.274555 30.105529 31.141953 
C 30.105529 31.009352 30.052846 30.882163 29.959082 30.7884 
C 29.865319 30.694636 29.73813 30.641953 29.605529 30.641953 
C 29.472927 30.641953 29.345739 30.694636 29.251975 30.7884 
C 29.158212 30.882163 29.105529 31.009352 29.105529 31.141953 
C 29.105529 31.274555 29.158212 31.401743 29.251975 31.495507 
C 29.345739 31.58927 29.472927 31.641953 29.605529 31.641953 
z
" clip-path="url(#p6430c58499)" style="fill: #bebebe"/>
    <path d="M 42.394471 33.641953 
C 43.057479 33.641953 43.693421 33.378537 44.162238 32.90972 
C 44.631055 32.440903 44.894471 31.804961 44.894471 31.141953 
C 44.894471 30.478945 44.631055 29.843004 44.162238 29.374186 
C 43.693421 28.905369 43.057479 28.641953 42.394471 28.641953 
C 41.731463 28.641953 41.095522 28.905369 40.626704 29.374186 
C 40.157887 29.843004 39.894471 30.478945 39.894471 31.141953 
C 39.894471 31.804961 40.157887 32.440903 40.626704 32.90972 
C 41.095522 33.378537 41.731463 33.641953 42.394471 33.641953 
z
" clip-path="url(#p6430c58499)" style="fill: #bebebe"/>
    <path d="M 52.740943 30.272267 
C 53.403951 30.272267 54.039893 30.008851 54.50871 29.540034 
C 54.977527 29.071217 55.240943 28.435275 55.240943 27.772267 
C 55.240943 27.109259 54.977527 26.473317 54.50871 26.0045 
C 54.039893 25.535683 53.403951 25.272267 52.740943 25.272267 
C 52.077935 25.272267 51.441993 25.535683 50.973176 26.0045 
C 50.504359 26.473317 50.240943 27.109259 50.240943 27.772267 
C 50.240943 28.435275 50.504359 29.071217 50.973176 29.540034 
C 51.441993 30.008851 52.077935 30.272267 52.740943 30.272267 
z
" clip-path="url(#p6430c58499)" style="fill: #bebebe"/>
   </g>
   <g id="matplotlib.axis_1"/>
   <g id="matplotlib.axis_2"/>
  </g>
  <g id="axes_2">
   <g id="patch_3">
    <path d="M 10.8 67.68 
L 61.2 67.68 
L 61.2 44.64 
L 10.8 44.64 
z
" style="fill: #ffffff"/>
   </g>
   <g id="EdgeCollection_2">
    <path d="M 57.125956 56.41 
C 83.423139 69.779715 83.423139 42.540285 57.125956 55.91 
C 83.423139 42.540285 83.423139 69.779715 57.125956 56.41 
" clip-path="url(#pb3cc2dab95)" style="fill: #020202"/>
    <path d="M 56.399503 55.755163 
L 53.034383 51.11257 
" clip-path="url(#pb3cc2dab95)" style="fill: #020202"/>
    <path d="M 56.267419 55.897457 
L 42.819996 47.60059 
" clip-path="url(#pb3cc2dab95)" style="fill: #020202"/>
    <path d="M 56.217522 56.005163 
L 31.982635 48.112234 
" clip-path="url(#pb3cc2dab95)" style="fill: #020202"/>
    <path d="M 56.198164 56.087935 
L 19.753837 50.779798 
" clip-path="url(#pb3cc2dab95)" style="fill: #020202"/>
    <path d="M 56.192943 56.16 
L 15.807057 56.16 
" clip-path="url(#pb3cc2dab95)" style="fill: #020202"/>
    <path d="M 56.198164 56.232065 
L 19.753837 61.540202 
" clip-path="url(#pb3cc2dab95)" style="fill: #020202"/>
    <path d="M 56.217522 56.314837 
L 30.08095 64.827116 
" clip-path="url(#pb3cc2dab95)" style="fill: #020202"/>
    <path d="M 56.267419 56.422543 
L 44.522095 63.66924 
" clip-path="url(#pb3cc2dab95)" style="fill: #020202"/>
    <path d="M 56.399503 56.564837 
L 54.208145 59.588083 
" clip-path="url(#pb3cc2dab95)" style="fill: #020202"/>
    <path d="M 53.197899 50.504778 
C 79.483449 37.112206 57.460782 21.081341 52.793657 50.21052 
C 57.460782 21.081341 79.483449 37.112206 53.197899 50.504778 
" clip-path="url(#pb3cc2dab95)" style="fill: #020202"/>
    <path d="M 52.265522 50.552896 
L 42.869892 47.492884 
" clip-path="url(#pb3cc2dab95)" style="fill: #020202"/>
    <path d="M 52.246163 50.635668 
L 32.079426 47.698371 
" clip-path="url(#pb3cc2dab95)" style="fill: #020202"/>
    <path d="M 52.240943 50.707733 
L 19.759057 50.707733 
" clip-path="url(#pb3cc2dab95)" style="fill: #020202"/>
    <path d="M 52.246163 50.779798 
L 15.801836 56.087935 
" clip-path="url(#pb3cc2dab95)" style="fill: #020202; stroke: #020202; stroke-width: 0.99"/>
    <path d="M 52.265522 50.86257 
L 19.734478 61.45743 
" clip-path="url(#pb3cc2dab95)" style="fill: #020202"/>
    <path d="M 52.315418 50.970276 
L 30.031054 64.71941 
" clip-path="url(#pb3cc2dab95)" style="fill: #020202"/>
    <path d="M 52.447503 51.11257 
L 43.861673 62.95777 
" clip-path="url(#pb3cc2dab95)" style="fill: #020202"/>
    <path d="M 52.740943 51.207733 
L 52.740943 59.112267 
" clip-path="url(#pb3cc2dab95)" style="fill: #020202"/>
    <path d="M 42.709266 46.949583 
C 60.036421 23.073637 33.133829 18.803147 42.215449 46.871195 
C 33.133829 18.803147 60.036421 23.073637 42.709266 46.949583 
" clip-path="url(#pb3cc2dab95)" style="fill: #020202"/>
    <path d="M 41.894471 47.338047 
L 32.105529 47.338047 
" clip-path="url(#pb3cc2dab95)" style="fill: #020202; stroke: #020202; stroke-width: 0.99"/>
    <path d="M 41.899692 47.410112 
L 19.753837 50.635668 
" clip-path="url(#pb3cc2dab95)" style="fill: #020202"/>
    <path d="M 41.91905 47.492884 
L 15.782478 56.005163 
" clip-path="url(#pb3cc2dab95)" style="fill: #020202"/>
    <path d="M 41.968946 47.60059 
L 19.684582 61.349724 
" clip-path="url(#pb3cc2dab95)" style="fill: #020202"/>
    <path d="M 42.101031 47.742884 
L 29.898969 64.577116 
" clip-path="url(#pb3cc2dab95)" style="fill: #020202"/>
    <path d="M 42.394471 47.838047 
L 42.394471 62.481953 
" clip-path="url(#pb3cc2dab95)" style="fill: #020202; stroke: #020202; stroke-width: 0.99"/>
    <path d="M 42.687912 47.742884 
L 51.273741 59.588083 
" clip-path="url(#pb3cc2dab95)" style="fill: #020202"/>
    <path d="M 30.500641 45.003786 
C 38.866171 18.803147 11.963579 23.073637 28.031556 45.395726 
C 11.963579 23.073637 38.866171 18.803147 30.500641 45.003786 
" clip-path="url(#pb3cc2dab95)" style="fill: #020202"/>
    <path d="M 27.228422 48.112234 
L 19.734478 50.552896 
" clip-path="url(#pb3cc2dab95)" style="fill: #020202"/>
    <path d="M 27.477905 48.65076 
L 15.732581 55.897457 
" clip-path="url(#pb3cc2dab95)" style="fill: #020202"/>
    <path d="M 28.138327 49.36223 
L 19.552497 61.20743 
" clip-path="url(#pb3cc2dab95)" style="fill: #020202"/>
    <path d="M 29.605529 49.838047 
L 29.605529 64.481953 
" clip-path="url(#pb3cc2dab95)" style="fill: #020202"/>
    <path d="M 31.07273 49.36223 
L 40.92727 62.95777 
" clip-path="url(#pb3cc2dab95)" style="fill: #020202; stroke: #020202; stroke-width: 0.99"/>
    <path d="M 31.733153 48.65076 
L 50.613319 60.299553 
" clip-path="url(#pb3cc2dab95)" style="fill: #020202; stroke: #020202; stroke-width: 0.99"/>
    <path d="M 19.206343 50.21052 
C 14.539218 21.081341 -7.483449 37.112206 18.802101 50.504778 
C -7.483449 37.112206 14.539218 21.081341 19.206343 50.21052 
" clip-path="url(#pb3cc2dab95)" style="fill: #020202"/>
    <path d="M 18.965617 51.11257 
L 15.600497 55.755163 
" clip-path="url(#pb3cc2dab95)" style="fill: #020202"/>
    <path d="M 19.259057 51.207733 
L 19.259057 61.112267 
" clip-path="url(#pb3cc2dab95)" style="fill: #020202; stroke: #020202; stroke-width: 0.99"/>
    <path d="M 19.552497 51.11257 
L 29.312088 64.577116 
" clip-path="url(#pb3cc2dab95)" style="fill: #020202"/>
    <path d="M 19.684582 50.970276 
L 40.266847 63.66924 
" clip-path="url(#pb3cc2dab95)" style="fill: #020202"/>
    <path d="M 19.734478 50.86257 
L 50.363837 60.83808 
" clip-path="url(#pb3cc2dab95)" style="fill: #020202"/>
    <path d="M 14.874044 55.91 
C -11.423139 42.540285 -11.423139 69.779715 14.874044 56.41 
C -11.423139 69.779715 -11.423139 42.540285 14.874044 55.91 
" clip-path="url(#pb3cc2dab95)" style="fill: #020202"/>
    <path d="M 15.600497 56.564837 
L 18.965617 61.20743 
" clip-path="url(#pb3cc2dab95)" style="fill: #020202"/>
    <path d="M 15.732581 56.422543 
L 29.180004 64.71941 
" clip-path="url(#pb3cc2dab95)" style="fill: #020202"/>
    <path d="M 15.782478 56.314837 
L 40.017365 64.207766 
" clip-path="url(#pb3cc2dab95)" style="fill: #020202"/>
    <path d="M 15.801836 56.232065 
L 50.267046 61.251942 
" clip-path="url(#pb3cc2dab95)" style="fill: #020202; stroke: #020202; stroke-width: 0.99"/>
    <path d="M 18.802101 61.815222 
C -7.483449 75.207794 14.539218 91.238659 19.206343 62.10948 
C 14.539218 91.238659 -7.483449 75.207794 18.802101 61.815222 
" clip-path="url(#pb3cc2dab95)" style="fill: #020202"/>
    <path d="M 19.734478 61.767104 
L 29.130108 64.827116 
" clip-path="url(#pb3cc2dab95)" style="fill: #020202"/>
    <path d="M 19.753837 61.684332 
L 39.920574 64.621629 
" clip-path="url(#pb3cc2dab95)" style="fill: #020202"/>
    <path d="M 19.759057 61.612267 
L 50.240943 61.612267 
" clip-path="url(#pb3cc2dab95)" style="fill: #020202"/>
    <path d="M 29.290734 65.370417 
C 11.963579 89.246363 38.866171 93.516853 29.784551 65.448805 
C 38.866171 93.516853 11.963579 89.246363 29.290734 65.370417 
" clip-path="url(#pb3cc2dab95)" style="fill: #020202"/>
    <path d="M 30.105529 64.981953 
L 39.894471 64.981953 
" clip-path="url(#pb3cc2dab95)" style="fill: #020202"/>
    <path d="M 30.100308 64.909888 
L 50.267046 61.972591 
" clip-path="url(#pb3cc2dab95)" style="fill: #020202"/>
    <path d="M 41.499359 67.316214 
C 33.133829 93.516853 60.036421 89.246363 43.968444 66.924274 
C 60.036421 89.246363 33.133829 93.516853 41.499359 67.316214 
" clip-path="url(#pb3cc2dab95)" style="fill: #020202"/>
    <path d="M 44.771578 64.207766 
L 50.363837 62.386454 
" clip-path="url(#pb3cc2dab95)" style="fill: #020202; stroke: #020202; stroke-width: 0.99"/>
    <path d="M 53.004513 64.098334 
C 57.460782 91.238659 79.483449 75.207794 55.025726 62.627042 
C 79.483449 75.207794 57.460782 91.238659 53.004513 64.098334 
" clip-path="url(#pb3cc2dab95)" style="fill: #020202"/>
   </g>
   <g id="VertexCollection_2">
    <path d="M 56.692943 56.66 
C 56.825545 56.66 56.952733 56.607317 57.046497 56.513553 
C 57.14026 56.41979 57.192943 56.292602 57.192943 56.16 
C 57.192943 56.027398 57.14026 55.90021 57.046497 55.806447 
C 56.952733 55.712683 56.825545 55.66 56.692943 55.66 
C 56.560342 55.66 56.433153 55.712683 56.33939 55.806447 
C 56.245627 55.90021 56.192943 56.027398 56.192943 56.16 
C 56.192943 56.292602 56.245627 56.41979 56.33939 56.513553 
C 56.433153 56.607317 56.560342 56.66 56.692943 56.66 
z
" clip-path="url(#pb3cc2dab95)" style="fill: #bebebe"/>
    <path d="M 52.740943 51.207733 
C 52.873544 51.207733 53.000733 51.15505 53.094496 51.061286 
C 53.18826 50.967523 53.240943 50.840335 53.240943 50.707733 
C 53.240943 50.575132 53.18826 50.447943 53.094496 50.35418 
C 53.000733 50.260416 52.873544 50.207733 52.740943 50.207733 
C 52.608341 50.207733 52.481153 50.260416 52.38739 50.35418 
C 52.293626 50.447943 52.240943 50.575132 52.240943 50.707733 
C 52.240943 50.840335 52.293626 50.967523 52.38739 51.061286 
C 52.481153 51.15505 52.608341 51.207733 52.740943 51.207733 
z
" clip-path="url(#pb3cc2dab95)" style="fill: #bebebe"/>
    <path d="M 42.394471 47.838047 
C 42.527073 47.838047 42.654261 47.785364 42.748025 47.6916 
C 42.841788 47.597837 42.894471 47.470648 42.894471 47.338047 
C 42.894471 47.205445 42.841788 47.078257 42.748025 46.984493 
C 42.654261 46.89073 42.527073 46.838047 42.394471 46.838047 
C 42.26187 46.838047 42.134681 46.89073 42.040918 46.984493 
C 41.947154 47.078257 41.894471 47.205445 41.894471 47.338047 
C 41.894471 47.470648 41.947154 47.597837 42.040918 47.6916 
C 42.134681 47.785364 42.26187 47.838047 42.394471 47.838047 
z
" clip-path="url(#pb3cc2dab95)" style="fill: #bebebe"/>
    <path d="M 29.605529 49.838047 
C 30.268537 49.838047 30.904478 49.574631 31.373296 49.105814 
C 31.842113 48.636996 32.105529 48.001055 32.105529 47.338047 
C 32.105529 46.675039 31.842113 46.039097 31.373296 45.57028 
C 30.904478 45.101463 30.268537 44.838047 29.605529 44.838047 
C 28.942521 44.838047 28.306579 45.101463 27.837762 45.57028 
C 27.368945 46.039097 27.105529 46.675039 27.105529 47.338047 
C 27.105529 48.001055 27.368945 48.636996 27.837762 49.105814 
C 28.306579 49.574631 28.942521 49.838047 29.605529 49.838047 
z
" clip-path="url(#pb3cc2dab95)" style="fill: #bebebe"/>
    <path d="M 19.259057 51.207733 
C 19.391659 51.207733 19.518847 51.15505 19.61261 51.061286 
C 19.706374 50.967523 19.759057 50.840335 19.759057 50.707733 
C 19.759057 50.575132 19.706374 50.447943 19.61261 50.35418 
C 19.518847 50.260416 19.391659 50.207733 19.259057 50.207733 
C 19.126456 50.207733 18.999267 50.260416 18.905504 50.35418 
C 18.81174 50.447943 18.759057 50.575132 18.759057 50.707733 
C 18.759057 50.840335 18.81174 50.967523 18.905504 51.061286 
C 18.999267 51.15505 19.126456 51.207733 19.259057 51.207733 
z
" clip-path="url(#pb3cc2dab95)" style="fill: #bebebe"/>
    <path d="M 15.307057 56.66 
C 15.439658 56.66 15.566847 56.607317 15.66061 56.513553 
C 15.754373 56.41979 15.807057 56.292602 15.807057 56.16 
C 15.807057 56.027398 15.754373 55.90021 15.66061 55.806447 
C 15.566847 55.712683 15.439658 55.66 15.307057 55.66 
C 15.174455 55.66 15.047267 55.712683 14.953503 55.806447 
C 14.85974 55.90021 14.807057 56.027398 14.807057 56.16 
C 14.807057 56.292602 14.85974 56.41979 14.953503 56.513553 
C 15.047267 56.607317 15.174455 56.66 15.307057 56.66 
z
" clip-path="url(#pb3cc2dab95)" style="fill: #bebebe"/>
    <path d="M 19.259057 62.112267 
C 19.391659 62.112267 19.518847 62.059584 19.61261 61.96582 
C 19.706374 61.872057 19.759057 61.744868 19.759057 61.612267 
C 19.759057 61.479665 19.706374 61.352477 19.61261 61.258714 
C 19.518847 61.16495 19.391659 61.112267 19.259057 61.112267 
C 19.126456 61.112267 18.999267 61.16495 18.905504 61.258714 
C 18.81174 61.352477 18.759057 61.479665 18.759057 61.612267 
C 18.759057 61.744868 18.81174 61.872057 18.905504 61.96582 
C 18.999267 62.059584 19.126456 62.112267 19.259057 62.112267 
z
" clip-path="url(#pb3cc2dab95)" style="fill: #bebebe"/>
    <path d="M 29.605529 65.481953 
C 29.73813 65.481953 29.865319 65.42927 29.959082 65.335507 
C 30.052846 65.241743 30.105529 65.114555 30.105529 64.981953 
C 30.105529 64.849352 30.052846 64.722163 29.959082 64.6284 
C 29.865319 64.534636 29.73813 64.481953 29.605529 64.481953 
C 29.472927 64.481953 29.345739 64.534636 29.251975 64.6284 
C 29.158212 64.722163 29.105529 64.849352 29.105529 64.981953 
C 29.105529 65.114555 29.158212 65.241743 29.251975 65.335507 
C 29.345739 65.42927 29.472927 65.481953 29.605529 65.481953 
z
" clip-path="url(#pb3cc2dab95)" style="fill: #bebebe"/>
    <path d="M 42.394471 67.481953 
C 43.057479 67.481953 43.693421 67.218537 44.162238 66.74972 
C 44.631055 66.280903 44.894471 65.644961 44.894471 64.981953 
C 44.894471 64.318945 44.631055 63.683004 44.162238 63.214186 
C 43.693421 62.745369 43.057479 62.481953 42.394471 62.481953 
C 41.731463 62.481953 41.095522 62.745369 40.626704 63.214186 
C 40.157887 63.683004 39.894471 64.318945 39.894471 64.981953 
C 39.894471 65.644961 40.157887 66.280903 40.626704 66.74972 
C 41.095522 67.218537 41.731463 67.481953 42.394471 67.481953 
z
" clip-path="url(#pb3cc2dab95)" style="fill: #bebebe"/>
    <path d="M 52.740943 64.112267 
C 53.403951 64.112267 54.039893 63.848851 54.50871 63.380034 
C 54.977527 62.911217 55.240943 62.275275 55.240943 61.612267 
C 55.240943 60.949259 54.977527 60.313317 54.50871 59.8445 
C 54.039893 59.375683 53.403951 59.112267 52.740943 59.112267 
C 52.077935 59.112267 51.441993 59.375683 50.973176 59.8445 
C 50.504359 60.313317 50.240943 60.949259 50.240943 61.612267 
C 50.240943 62.275275 50.504359 62.911217 50.973176 63.380034 
C 51.441993 63.848851 52.077935 64.112267 52.740943 64.112267 
z
" clip-path="url(#pb3cc2dab95)" style="fill: #bebebe"/>
   </g>
   <g id="matplotlib.axis_3"/>
   <g id="matplotlib.axis_4"/>
  </g>
  <g id="axes_3">
   <g id="patch_4">
    <path d="M 10.8 101.52 
L 61.2 101.52 
L 61.2 78.48 
L 10.8 78.48 
z
" style="fill: #ffffff"/>
   </g>
   <g id="EdgeCollection_3">
    <path d="M 57.125956 90.25 
C 83.423139 103.619715 83.423139 76.380285 57.125956 89.75 
C 83.423139 76.380285 83.423139 103.619715 57.125956 90.25 
" clip-path="url(#p259c01a3f0)" style="fill: #020202"/>
    <path d="M 56.399503 89.595163 
L 53.034383 84.95257 
" clip-path="url(#p259c01a3f0)" style="fill: #020202"/>
    <path d="M 56.267419 89.737457 
L 42.819996 81.44059 
" clip-path="url(#p259c01a3f0)" style="fill: #020202"/>
    <path d="M 56.217522 89.845163 
L 31.982635 81.952234 
" clip-path="url(#p259c01a3f0)" style="fill: #020202"/>
    <path d="M 56.198164 89.927935 
L 19.753837 84.619798 
" clip-path="url(#p259c01a3f0)" style="fill: #020202"/>
    <path d="M 56.192943 90 
L 15.807057 90 
" clip-path="url(#p259c01a3f0)" style="fill: #020202"/>
    <path d="M 56.198164 90.072065 
L 19.753837 95.380202 
" clip-path="url(#p259c01a3f0)" style="fill: #020202"/>
    <path d="M 56.217522 90.154837 
L 30.08095 98.667116 
" clip-path="url(#p259c01a3f0)" style="fill: #020202"/>
    <path d="M 56.267419 90.262543 
L 44.522095 97.50924 
" clip-path="url(#p259c01a3f0)" style="fill: #020202"/>
    <path d="M 56.399503 90.404837 
L 54.208145 93.428083 
" clip-path="url(#p259c01a3f0)" style="fill: #020202"/>
    <path d="M 53.197899 84.344778 
C 79.483449 70.952206 57.460782 54.921341 52.793657 84.05052 
C 57.460782 54.921341 79.483449 70.952206 53.197899 84.344778 
" clip-path="url(#p259c01a3f0)" style="fill: #020202"/>
    <path d="M 52.265522 84.392896 
L 42.869892 81.332884 
" clip-path="url(#p259c01a3f0)" style="fill: #020202"/>
    <path d="M 52.246163 84.475668 
L 32.079426 81.538371 
" clip-path="url(#p259c01a3f0)" style="fill: #020202; stroke: #020202; stroke-width: 0.99"/>
    <path d="M 52.240943 84.547733 
L 19.759057 84.547733 
" clip-path="url(#p259c01a3f0)" style="fill: #020202"/>
    <path d="M 52.246163 84.619798 
L 15.801836 89.927935 
" clip-path="url(#p259c01a3f0)" style="fill: #020202"/>
    <path d="M 52.265522 84.70257 
L 19.734478 95.29743 
" clip-path="url(#p259c01a3f0)" style="fill: #020202"/>
    <path d="M 52.315418 84.810276 
L 30.031054 98.55941 
" clip-path="url(#p259c01a3f0)" style="fill: #020202"/>
    <path d="M 52.447503 84.95257 
L 43.861673 96.79777 
" clip-path="url(#p259c01a3f0)" style="fill: #020202"/>
    <path d="M 52.740943 85.047733 
L 52.740943 92.952267 
" clip-path="url(#p259c01a3f0)" style="fill: #020202; stroke: #020202; stroke-width: 0.99"/>
    <path d="M 42.709266 80.789583 
C 60.036421 56.913637 33.133829 52.643147 42.215449 80.711195 
C 33.133829 52.643147 60.036421 56.913637 42.709266 80.789583 
" clip-path="url(#p259c01a3f0)" style="fill: #020202"/>
    <path d="M 41.894471 81.178047 
L 32.105529 81.178047 
" clip-path="url(#p259c01a3f0)" style="fill: #020202"/>
    <path d="M 41.899692 81.250112 
L 19.753837 84.475668 
" clip-path="url(#p259c01a3f0)" style="fill: #020202"/>
    <path d="M 41.91905 81.332884 
L 15.782478 89.845163 
" clip-path="url(#p259c01a3f0)" style="fill: #020202"/>
    <path d="M 41.968946 81.44059 
L 19.684582 95.189724 
" clip-path="url(#p259c01a3f0)" style="fill: #020202"/>
    <path d="M 42.101031 81.582884 
L 29.898969 98.417116 
" clip-path="url(#p259c01a3f0)" style="fill: #020202"/>
    <path d="M 42.394471 81.678047 
L 42.394471 96.321953 
" clip-path="url(#p259c01a3f0)" style="fill: #020202"/>
    <path d="M 42.687912 81.582884 
L 51.273741 93.428083 
" clip-path="url(#p259c01a3f0)" style="fill: #020202"/>
    <path d="M 30.500641 78.843786 
C 38.866171 52.643147 11.963579 56.913637 28.031556 79.235726 
C 11.963579 56.913637 38.866171 52.643147 30.500641 78.843786 
" clip-path="url(#p259c01a3f0)" style="fill: #020202"/>
    <path d="M 27.228422 81.952234 
L 19.734478 84.392896 
" clip-path="url(#p259c01a3f0)" style="fill: #020202"/>
    <path d="M 27.477905 82.49076 
L 15.732581 89.737457 
" clip-path="url(#p259c01a3f0)" style="fill: #020202"/>
    <path d="M 28.138327 83.20223 
L 19.552497 95.04743 
" clip-path="url(#p259c01a3f0)" style="fill: #020202"/>
    <path d="M 29.605529 83.678047 
L 29.605529 98.321953 
" clip-path="url(#p259c01a3f0)" style="fill: #020202"/>
    <path d="M 31.07273 83.20223 
L 40.92727 96.79777 
" clip-path="url(#p259c01a3f0)" style="fill: #020202; stroke: #020202; stroke-width: 0.99"/>
    <path d="M 31.733153 82.49076 
L 50.613319 94.139553 
" clip-path="url(#p259c01a3f0)" style="fill: #020202; stroke: #020202; stroke-width: 0.99"/>
    <path d="M 19.206343 84.05052 
C 14.539218 54.921341 -7.483449 70.952206 18.802101 84.344778 
C -7.483449 70.952206 14.539218 54.921341 19.206343 84.05052 
" clip-path="url(#p259c01a3f0)" style="fill: #020202"/>
    <path d="M 18.965617 84.95257 
L 15.600497 89.595163 
" clip-path="url(#p259c01a3f0)" style="fill: #020202"/>
    <path d="M 19.259057 85.047733 
L 19.259057 94.952267 
" clip-path="url(#p259c01a3f0)" style="fill: #020202; stroke: #020202; stroke-width: 0.99"/>
    <path d="M 19.552497 84.95257 
L 29.312088 98.417116 
" clip-path="url(#p259c01a3f0)" style="fill: #020202"/>
    <path d="M 19.684582 84.810276 
L 40.266847 97.50924 
" clip-path="url(#p259c01a3f0)" style="fill: #020202"/>
    <path d="M 19.734478 84.70257 
L 50.363837 94.67808 
" clip-path="url(#p259c01a3f0)" style="fill: #020202"/>
    <path d="M 14.874044 89.75 
C -11.423139 76.380285 -11.423139 103.619715 14.874044 90.25 
C -11.423139 103.619715 -11.423139 76.380285 14.874044 89.75 
" clip-path="url(#p259c01a3f0)" style="fill: #020202"/>
    <path d="M 15.600497 90.404837 
L 18.965617 95.04743 
" clip-path="url(#p259c01a3f0)" style="fill: #020202"/>
    <path d="M 15.732581 90.262543 
L 29.180004 98.55941 
" clip-path="url(#p259c01a3f0)" style="fill: #020202"/>
    <path d="M 15.782478 90.154837 
L 40.017365 98.047766 
" clip-path="url(#p259c01a3f0)" style="fill: #020202; stroke: #020202; stroke-width: 0.99"/>
    <path d="M 15.801836 90.072065 
L 50.267046 95.091942 
" clip-path="url(#p259c01a3f0)" style="fill: #020202"/>
    <path d="M 18.802101 95.655222 
C -7.483449 109.047794 14.539218 125.078659 19.206343 95.94948 
C 14.539218 125.078659 -7.483449 109.047794 18.802101 95.655222 
" clip-path="url(#p259c01a3f0)" style="fill: #020202"/>
    <path d="M 19.734478 95.607104 
L 29.130108 98.667116 
" clip-path="url(#p259c01a3f0)" style="fill: #020202"/>
    <path d="M 19.753837 95.524332 
L 39.920574 98.461629 
" clip-path="url(#p259c01a3f0)" style="fill: #020202"/>
    <path d="M 19.759057 95.452267 
L 50.240943 95.452267 
" clip-path="url(#p259c01a3f0)" style="fill: #020202"/>
    <path d="M 29.290734 99.210417 
C 11.963579 123.086363 38.866171 127.356853 29.784551 99.288805 
C 38.866171 127.356853 11.963579 123.086363 29.290734 99.210417 
" clip-path="url(#p259c01a3f0)" style="fill: #020202"/>
    <path d="M 30.105529 98.821953 
L 39.894471 98.821953 
" clip-path="url(#p259c01a3f0)" style="fill: #020202"/>
    <path d="M 30.100308 98.749888 
L 50.267046 95.812591 
" clip-path="url(#p259c01a3f0)" style="fill: #020202"/>
    <path d="M 41.499359 101.156214 
C 33.133829 127.356853 60.036421 123.086363 43.968444 100.764274 
C 60.036421 123.086363 33.133829 127.356853 41.499359 101.156214 
" clip-path="url(#p259c01a3f0)" style="fill: #020202"/>
    <path d="M 44.771578 98.047766 
L 50.363837 96.226454 
" clip-path="url(#p259c01a3f0)" style="fill: #020202; stroke: #020202; stroke-width: 0.99"/>
    <path d="M 53.004513 97.938334 
C 57.460782 125.078659 79.483449 109.047794 55.025726 96.467042 
C 79.483449 109.047794 57.460782 125.078659 53.004513 97.938334 
" clip-path="url(#p259c01a3f0)" style="fill: #020202"/>
   </g>
   <g id="VertexCollection_3">
    <path d="M 56.692943 90.5 
C 56.825545 90.5 56.952733 90.447317 57.046497 90.353553 
C 57.14026 90.25979 57.192943 90.132602 57.192943 90 
C 57.192943 89.867398 57.14026 89.74021 57.046497 89.646447 
C 56.952733 89.552683 56.825545 89.5 56.692943 89.5 
C 56.560342 89.5 56.433153 89.552683 56.33939 89.646447 
C 56.245627 89.74021 56.192943 89.867398 56.192943 90 
C 56.192943 90.132602 56.245627 90.25979 56.33939 90.353553 
C 56.433153 90.447317 56.560342 90.5 56.692943 90.5 
z
" clip-path="url(#p259c01a3f0)" style="fill: #bebebe"/>
    <path d="M 52.740943 85.047733 
C 52.873544 85.047733 53.000733 84.99505 53.094496 84.901286 
C 53.18826 84.807523 53.240943 84.680335 53.240943 84.547733 
C 53.240943 84.415132 53.18826 84.287943 53.094496 84.19418 
C 53.000733 84.100416 52.873544 84.047733 52.740943 84.047733 
C 52.608341 84.047733 52.481153 84.100416 52.38739 84.19418 
C 52.293626 84.287943 52.240943 84.415132 52.240943 84.547733 
C 52.240943 84.680335 52.293626 84.807523 52.38739 84.901286 
C 52.481153 84.99505 52.608341 85.047733 52.740943 85.047733 
z
" clip-path="url(#p259c01a3f0)" style="fill: #bebebe"/>
    <path d="M 42.394471 81.678047 
C 42.527073 81.678047 42.654261 81.625364 42.748025 81.5316 
C 42.841788 81.437837 42.894471 81.310648 42.894471 81.178047 
C 42.894471 81.045445 42.841788 80.918257 42.748025 80.824493 
C 42.654261 80.73073 42.527073 80.678047 42.394471 80.678047 
C 42.26187 80.678047 42.134681 80.73073 42.040918 80.824493 
C 41.947154 80.918257 41.894471 81.045445 41.894471 81.178047 
C 41.894471 81.310648 41.947154 81.437837 42.040918 81.5316 
C 42.134681 81.625364 42.26187 81.678047 42.394471 81.678047 
z
" clip-path="url(#p259c01a3f0)" style="fill: #bebebe"/>
    <path d="M 29.605529 83.678047 
C 30.268537 83.678047 30.904478 83.414631 31.373296 82.945814 
C 31.842113 82.476996 32.105529 81.841055 32.105529 81.178047 
C 32.105529 80.515039 31.842113 79.879097 31.373296 79.41028 
C 30.904478 78.941463 30.268537 78.678047 29.605529 78.678047 
C 28.942521 78.678047 28.306579 78.941463 27.837762 79.41028 
C 27.368945 79.879097 27.105529 80.515039 27.105529 81.178047 
C 27.105529 81.841055 27.368945 82.476996 27.837762 82.945814 
C 28.306579 83.414631 28.942521 83.678047 29.605529 83.678047 
z
" clip-path="url(#p259c01a3f0)" style="fill: #bebebe"/>
    <path d="M 19.259057 85.047733 
C 19.391659 85.047733 19.518847 84.99505 19.61261 84.901286 
C 19.706374 84.807523 19.759057 84.680335 19.759057 84.547733 
C 19.759057 84.415132 19.706374 84.287943 19.61261 84.19418 
C 19.518847 84.100416 19.391659 84.047733 19.259057 84.047733 
C 19.126456 84.047733 18.999267 84.100416 18.905504 84.19418 
C 18.81174 84.287943 18.759057 84.415132 18.759057 84.547733 
C 18.759057 84.680335 18.81174 84.807523 18.905504 84.901286 
C 18.999267 84.99505 19.126456 85.047733 19.259057 85.047733 
z
" clip-path="url(#p259c01a3f0)" style="fill: #bebebe"/>
    <path d="M 15.307057 90.5 
C 15.439658 90.5 15.566847 90.447317 15.66061 90.353553 
C 15.754373 90.25979 15.807057 90.132602 15.807057 90 
C 15.807057 89.867398 15.754373 89.74021 15.66061 89.646447 
C 15.566847 89.552683 15.439658 89.5 15.307057 89.5 
C 15.174455 89.5 15.047267 89.552683 14.953503 89.646447 
C 14.85974 89.74021 14.807057 89.867398 14.807057 90 
C 14.807057 90.132602 14.85974 90.25979 14.953503 90.353553 
C 15.047267 90.447317 15.174455 90.5 15.307057 90.5 
z
" clip-path="url(#p259c01a3f0)" style="fill: #bebebe"/>
    <path d="M 19.259057 95.952267 
C 19.391659 95.952267 19.518847 95.899584 19.61261 95.80582 
C 19.706374 95.712057 19.759057 95.584868 19.759057 95.452267 
C 19.759057 95.319665 19.706374 95.192477 19.61261 95.098714 
C 19.518847 95.00495 19.391659 94.952267 19.259057 94.952267 
C 19.126456 94.952267 18.999267 95.00495 18.905504 95.098714 
C 18.81174 95.192477 18.759057 95.319665 18.759057 95.452267 
C 18.759057 95.584868 18.81174 95.712057 18.905504 95.80582 
C 18.999267 95.899584 19.126456 95.952267 19.259057 95.952267 
z
" clip-path="url(#p259c01a3f0)" style="fill: #bebebe"/>
    <path d="M 29.605529 99.321953 
C 29.73813 99.321953 29.865319 99.26927 29.959082 99.175507 
C 30.052846 99.081743 30.105529 98.954555 30.105529 98.821953 
C 30.105529 98.689352 30.052846 98.562163 29.959082 98.4684 
C 29.865319 98.374636 29.73813 98.321953 29.605529 98.321953 
C 29.472927 98.321953 29.345739 98.374636 29.251975 98.4684 
C 29.158212 98.562163 29.105529 98.689352 29.105529 98.821953 
C 29.105529 98.954555 29.158212 99.081743 29.251975 99.175507 
C 29.345739 99.26927 29.472927 99.321953 29.605529 99.321953 
z
" clip-path="url(#p259c01a3f0)" style="fill: #bebebe"/>
    <path d="M 42.394471 101.321953 
C 43.057479 101.321953 43.693421 101.058537 44.162238 100.58972 
C 44.631055 100.120903 44.894471 99.484961 44.894471 98.821953 
C 44.894471 98.158945 44.631055 97.523004 44.162238 97.054186 
C 43.693421 96.585369 43.057479 96.321953 42.394471 96.321953 
C 41.731463 96.321953 41.095522 96.585369 40.626704 97.054186 
C 40.157887 97.523004 39.894471 98.158945 39.894471 98.821953 
C 39.894471 99.484961 40.157887 100.120903 40.626704 100.58972 
C 41.095522 101.058537 41.731463 101.321953 42.394471 101.321953 
z
" clip-path="url(#p259c01a3f0)" style="fill: #bebebe"/>
    <path d="M 52.740943 97.952267 
C 53.403951 97.952267 54.039893 97.688851 54.50871 97.220034 
C 54.977527 96.751217 55.240943 96.115275 55.240943 95.452267 
C 55.240943 94.789259 54.977527 94.153317 54.50871 93.6845 
C 54.039893 93.215683 53.403951 92.952267 52.740943 92.952267 
C 52.077935 92.952267 51.441993 93.215683 50.973176 93.6845 
C 50.504359 94.153317 50.240943 94.789259 50.240943 95.452267 
C 50.240943 96.115275 50.504359 96.751217 50.973176 97.220034 
C 51.441993 97.688851 52.077935 97.952267 52.740943 97.952267 
z
" clip-path="url(#p259c01a3f0)" style="fill: #bebebe"/>
   </g>
   <g id="matplotlib.axis_5"/>
   <g id="matplotlib.axis_6"/>
  </g>
  <g id="axes_4">
   <g id="patch_5">
    <path d="M 10.8 135.36 
L 61.2 135.36 
L 61.2 112.32 
L 10.8 112.32 
z
" style="fill: #ffffff"/>
   </g>
   <g id="EdgeCollection_4">
    <path d="M 57.127646 123.802064 
C 83.424829 137.171779 83.424829 109.932349 57.127646 123.302064 
C 83.424829 109.932349 83.424829 137.171779 57.127646 123.802064 
" clip-path="url(#p4253c41ba2)" style="fill: #020202"/>
    <path d="M 56.409378 123.141419 
L 53.077914 118.345548 
" clip-path="url(#p4253c41ba2)" style="fill: #020202"/>
    <path d="M 56.274223 123.281407 
L 42.997564 114.733964 
" clip-path="url(#p4253c41ba2)" style="fill: #020202"/>
    <path d="M 56.221223 123.391183 
L 30.423507 114.624188 
" clip-path="url(#p4253c41ba2)" style="fill: #020202"/>
    <path d="M 56.20031 123.476937 
L 20.228917 118.01003 
" clip-path="url(#p4253c41ba2)" style="fill: #020202"/>
    <path d="M 56.194633 123.552064 
L 18.332618 123.552064 
" clip-path="url(#p4253c41ba2)" style="fill: #020202"/>
    <path d="M 56.20031 123.627191 
L 20.228917 129.094099 
" clip-path="url(#p4253c41ba2)" style="fill: #020202"/>
    <path d="M 56.221223 123.712946 
L 30.423507 132.47994 
" clip-path="url(#p4253c41ba2)" style="fill: #020202"/>
    <path d="M 56.274223 123.822722 
L 44.679204 131.287534 
" clip-path="url(#p4253c41ba2)" style="fill: #020202"/>
    <path d="M 56.409378 123.962709 
L 54.218936 127.116001 
" clip-path="url(#p4253c41ba2)" style="fill: #020202"/>
    <path d="M 53.252883 117.739472 
C 79.754613 104.779943 57.997911 88.389932 52.853522 117.438621 
C 57.997911 88.389932 79.754613 104.779943 53.252883 117.739472 
" clip-path="url(#p4253c41ba2)" style="fill: #020202"/>
    <path d="M 52.319248 117.774021 
L 43.050564 114.624188 
" clip-path="url(#p4253c41ba2)" style="fill: #020202"/>
    <path d="M 52.298334 117.859776 
L 30.444421 114.538434 
" clip-path="url(#p4253c41ba2)" style="fill: #020202"/>
    <path d="M 52.292658 117.934903 
L 20.234594 117.934903 
" clip-path="url(#p4253c41ba2)" style="fill: #020202"/>
    <path d="M 52.298334 118.01003 
L 18.304237 123.176429 
" clip-path="url(#p4253c41ba2)" style="fill: #020202"/>
    <path d="M 52.319248 118.095785 
L 20.208004 129.008344 
" clip-path="url(#p4253c41ba2)" style="fill: #020202"/>
    <path d="M 52.372248 118.205561 
L 30.370507 132.370164 
" clip-path="url(#p4253c41ba2)" style="fill: #020202"/>
    <path d="M 52.507403 118.345548 
L 44.003432 130.587597 
" clip-path="url(#p4253c41ba2)" style="fill: #020202"/>
    <path d="M 52.792658 118.434903 
L 52.792658 126.669225 
" clip-path="url(#p4253c41ba2)" style="fill: #020202; stroke: #020202; stroke-width: 0.99"/>
    <path d="M 42.894417 114.076856 
C 60.373317 90.311773 33.498475 85.869993 42.401109 113.995324 
C 33.498475 85.869993 60.373317 90.311773 42.894417 114.076856 
" clip-path="url(#p4253c41ba2)" style="fill: #020202"/>
    <path d="M 42.077154 114.463307 
L 30.450097 114.463307 
" clip-path="url(#p4253c41ba2)" style="fill: #020202"/>
    <path d="M 42.082831 114.538434 
L 20.228917 117.859776 
" clip-path="url(#p4253c41ba2)" style="fill: #020202"/>
    <path d="M 42.103744 114.624188 
L 18.199669 122.747655 
" clip-path="url(#p4253c41ba2)" style="fill: #020202"/>
    <path d="M 42.156745 114.733964 
L 20.155004 128.898568 
" clip-path="url(#p4253c41ba2)" style="fill: #020202"/>
    <path d="M 42.291899 114.873952 
L 30.235353 132.230177 
" clip-path="url(#p4253c41ba2)" style="fill: #020202"/>
    <path d="M 42.577154 114.963307 
L 42.577154 130.140822 
" clip-path="url(#p4253c41ba2)" style="fill: #020202"/>
    <path d="M 42.86241 114.873952 
L 51.36638 127.116001 
" clip-path="url(#p4253c41ba2)" style="fill: #020202"/>
    <path d="M 30.126142 113.995324 
C 39.028777 85.869993 12.153935 90.311773 29.632835 114.076856 
C 12.153935 90.311773 39.028777 85.869993 30.126142 113.995324 
" clip-path="url(#p4253c41ba2)" style="fill: #020202"/>
    <path d="M 29.476687 114.624188 
L 20.208004 117.774021 
" clip-path="url(#p4253c41ba2)" style="fill: #020202"/>
    <path d="M 29.529688 114.733964 
L 17.934668 122.198776 
" clip-path="url(#p4253c41ba2)" style="fill: #020202; stroke: #020202; stroke-width: 0.99"/>
    <path d="M 29.664842 114.873952 
L 20.019849 128.758581 
" clip-path="url(#p4253c41ba2)" style="fill: #020202"/>
    <path d="M 29.950097 114.963307 
L 29.950097 132.140822 
" clip-path="url(#p4253c41ba2)" style="fill: #020202"/>
    <path d="M 30.235353 114.873952 
L 41.150877 130.587597 
" clip-path="url(#p4253c41ba2)" style="fill: #020202; stroke: #020202; stroke-width: 0.99"/>
    <path d="M 30.370507 114.733964 
L 50.690609 127.815937 
" clip-path="url(#p4253c41ba2)" style="fill: #020202"/>
    <path d="M 19.673729 117.438621 
C 14.529341 88.389932 -7.227361 104.779943 19.274369 117.739472 
C -7.227361 104.779943 14.529341 88.389932 19.673729 117.438621 
" clip-path="url(#p4253c41ba2)" style="fill: #020202"/>
    <path d="M 19.449338 118.345548 
L 17.258896 121.49884 
" clip-path="url(#p4253c41ba2)" style="fill: #020202"/>
    <path d="M 19.734594 118.434903 
L 19.734594 128.669225 
" clip-path="url(#p4253c41ba2)" style="fill: #020202; stroke: #020202; stroke-width: 0.99"/>
    <path d="M 20.019849 118.345548 
L 29.664842 132.230177 
" clip-path="url(#p4253c41ba2)" style="fill: #020202"/>
    <path d="M 20.155004 118.205561 
L 40.475105 131.287534 
" clip-path="url(#p4253c41ba2)" style="fill: #020202"/>
    <path d="M 20.208004 118.095785 
L 50.425608 128.364817 
" clip-path="url(#p4253c41ba2)" style="fill: #020202"/>
    <path d="M 13.667555 122.302064 
C -10.897577 109.932349 -10.897577 137.171779 13.667555 124.802064 
C -10.897577 137.171779 -10.897577 109.932349 13.667555 122.302064 
" clip-path="url(#p4253c41ba2)" style="fill: #020202"/>
    <path d="M 17.258896 125.605289 
L 19.449338 128.758581 
" clip-path="url(#p4253c41ba2)" style="fill: #020202"/>
    <path d="M 17.934668 124.905352 
L 29.529688 132.370164 
" clip-path="url(#p4253c41ba2)" style="fill: #020202"/>
    <path d="M 18.199669 124.356473 
L 40.210104 131.836413 
" clip-path="url(#p4253c41ba2)" style="fill: #020202; stroke: #020202; stroke-width: 0.99"/>
    <path d="M 18.304237 123.927699 
L 50.32104 128.793591 
" clip-path="url(#p4253c41ba2)" style="fill: #020202; stroke: #020202; stroke-width: 0.99"/>
    <path d="M 19.274369 129.364656 
C -7.227361 142.324186 14.529341 158.714197 19.673729 129.665507 
C 14.529341 158.714197 -7.227361 142.324186 19.274369 129.364656 
" clip-path="url(#p4253c41ba2)" style="fill: #020202"/>
    <path d="M 20.208004 129.330107 
L 29.476687 132.47994 
" clip-path="url(#p4253c41ba2)" style="fill: #020202"/>
    <path d="M 20.228917 129.244352 
L 40.105536 132.265187 
" clip-path="url(#p4253c41ba2)" style="fill: #020202"/>
    <path d="M 20.234594 129.169225 
L 50.292658 129.169225 
" clip-path="url(#p4253c41ba2)" style="fill: #020202"/>
    <path d="M 29.632835 133.027273 
C 12.153935 156.792356 39.028777 161.234136 30.126142 133.108805 
C 39.028777 161.234136 12.153935 156.792356 29.632835 133.027273 
" clip-path="url(#p4253c41ba2)" style="fill: #020202"/>
    <path d="M 30.450097 132.640822 
L 40.077154 132.640822 
" clip-path="url(#p4253c41ba2)" style="fill: #020202"/>
    <path d="M 30.444421 132.565695 
L 50.32104 129.54486 
" clip-path="url(#p4253c41ba2)" style="fill: #020202"/>
    <path d="M 41.69693 134.980738 
C 33.498475 161.234136 60.373317 156.792356 44.163468 134.573077 
C 60.373317 156.792356 33.498475 161.234136 41.69693 134.980738 
" clip-path="url(#p4253c41ba2)" style="fill: #020202"/>
    <path d="M 44.944205 131.836413 
L 50.425608 129.973634 
" clip-path="url(#p4253c41ba2)" style="fill: #020202; stroke: #020202; stroke-width: 0.99"/>
    <path d="M 53.096979 131.650634 
C 57.997911 158.714197 79.754613 142.324186 55.093782 130.14638 
C 79.754613 142.324186 57.997911 158.714197 53.096979 131.650634 
" clip-path="url(#p4253c41ba2)" style="fill: #020202"/>
   </g>
   <g id="VertexCollection_4">
    <path d="M 56.694633 124.052064 
C 56.827235 124.052064 56.954423 123.999381 57.048187 123.905618 
C 57.14195 123.811854 57.194633 123.684666 57.194633 123.552064 
C 57.194633 123.419463 57.14195 123.292274 57.048187 123.198511 
C 56.954423 123.104747 56.827235 123.052064 56.694633 123.052064 
C 56.562032 123.052064 56.434843 123.104747 56.34108 123.198511 
C 56.247316 123.292274 56.194633 123.419463 56.194633 123.552064 
C 56.194633 123.684666 56.247316 123.811854 56.34108 123.905618 
C 56.434843 123.999381 56.562032 124.052064 56.694633 124.052064 
z
" clip-path="url(#p4253c41ba2)" style="fill: #bebebe"/>
    <path d="M 52.792658 118.434903 
C 52.92526 118.434903 53.052448 118.38222 53.146212 118.288457 
C 53.239975 118.194693 53.292658 118.067505 53.292658 117.934903 
C 53.292658 117.802302 53.239975 117.675113 53.146212 117.58135 
C 53.052448 117.487586 52.92526 117.434903 52.792658 117.434903 
C 52.660057 117.434903 52.532868 117.487586 52.439105 117.58135 
C 52.345341 117.675113 52.292658 117.802302 52.292658 117.934903 
C 52.292658 118.067505 52.345341 118.194693 52.439105 118.288457 
C 52.532868 118.38222 52.660057 118.434903 52.792658 118.434903 
z
" clip-path="url(#p4253c41ba2)" style="fill: #bebebe"/>
    <path d="M 42.577154 114.963307 
C 42.709756 114.963307 42.836944 114.910624 42.930708 114.81686 
C 43.024471 114.723097 43.077154 114.595908 43.077154 114.463307 
C 43.077154 114.330705 43.024471 114.203517 42.930708 114.109753 
C 42.836944 114.01599 42.709756 113.963307 42.577154 113.963307 
C 42.444553 113.963307 42.317364 114.01599 42.223601 114.109753 
C 42.129838 114.203517 42.077154 114.330705 42.077154 114.463307 
C 42.077154 114.595908 42.129838 114.723097 42.223601 114.81686 
C 42.317364 114.910624 42.444553 114.963307 42.577154 114.963307 
z
" clip-path="url(#p4253c41ba2)" style="fill: #bebebe"/>
    <path d="M 29.950097 114.963307 
C 30.082699 114.963307 30.209887 114.910624 30.303651 114.81686 
C 30.397414 114.723097 30.450097 114.595908 30.450097 114.463307 
C 30.450097 114.330705 30.397414 114.203517 30.303651 114.109753 
C 30.209887 114.01599 30.082699 113.963307 29.950097 113.963307 
C 29.817496 113.963307 29.690307 114.01599 29.596544 114.109753 
C 29.502781 114.203517 29.450097 114.330705 29.450097 114.463307 
C 29.450097 114.595908 29.502781 114.723097 29.596544 114.81686 
C 29.690307 114.910624 29.817496 114.963307 29.950097 114.963307 
z
" clip-path="url(#p4253c41ba2)" style="fill: #bebebe"/>
    <path d="M 19.734594 118.434903 
C 19.867195 118.434903 19.994384 118.38222 20.088147 118.288457 
C 20.181911 118.194693 20.234594 118.067505 20.234594 117.934903 
C 20.234594 117.802302 20.181911 117.675113 20.088147 117.58135 
C 19.994384 117.487586 19.867195 117.434903 19.734594 117.434903 
C 19.601992 117.434903 19.474804 117.487586 19.38104 117.58135 
C 19.287277 117.675113 19.234594 117.802302 19.234594 117.934903 
C 19.234594 118.067505 19.287277 118.194693 19.38104 118.288457 
C 19.474804 118.38222 19.601992 118.434903 19.734594 118.434903 
z
" clip-path="url(#p4253c41ba2)" style="fill: #bebebe"/>
    <path d="M 15.832618 126.052064 
C 16.495626 126.052064 17.131568 125.788649 17.600385 125.319831 
C 18.069203 124.851014 18.332618 124.215072 18.332618 123.552064 
C 18.332618 122.889057 18.069203 122.253115 17.600385 121.784297 
C 17.131568 121.31548 16.495626 121.052064 15.832618 121.052064 
C 15.169611 121.052064 14.533669 121.31548 14.064852 121.784297 
C 13.596034 122.253115 13.332618 122.889057 13.332618 123.552064 
C 13.332618 124.215072 13.596034 124.851014 14.064852 125.319831 
C 14.533669 125.788649 15.169611 126.052064 15.832618 126.052064 
z
" clip-path="url(#p4253c41ba2)" style="fill: #bebebe"/>
    <path d="M 19.734594 129.669225 
C 19.867195 129.669225 19.994384 129.616542 20.088147 129.522779 
C 20.181911 129.429015 20.234594 129.301827 20.234594 129.169225 
C 20.234594 129.036624 20.181911 128.909436 20.088147 128.815672 
C 19.994384 128.721909 19.867195 128.669225 19.734594 128.669225 
C 19.601992 128.669225 19.474804 128.721909 19.38104 128.815672 
C 19.287277 128.909436 19.234594 129.036624 19.234594 129.169225 
C 19.234594 129.301827 19.287277 129.429015 19.38104 129.522779 
C 19.474804 129.616542 19.601992 129.669225 19.734594 129.669225 
z
" clip-path="url(#p4253c41ba2)" style="fill: #bebebe"/>
    <path d="M 29.950097 133.140822 
C 30.082699 133.140822 30.209887 133.088139 30.303651 132.994375 
C 30.397414 132.900612 30.450097 132.773424 30.450097 132.640822 
C 30.450097 132.50822 30.397414 132.381032 30.303651 132.287269 
C 30.209887 132.193505 30.082699 132.140822 29.950097 132.140822 
C 29.817496 132.140822 29.690307 132.193505 29.596544 132.287269 
C 29.502781 132.381032 29.450097 132.50822 29.450097 132.640822 
C 29.450097 132.773424 29.502781 132.900612 29.596544 132.994375 
C 29.690307 133.088139 29.817496 133.140822 29.950097 133.140822 
z
" clip-path="url(#p4253c41ba2)" style="fill: #bebebe"/>
    <path d="M 42.577154 135.140822 
C 43.240162 135.140822 43.876104 134.877406 44.344921 134.408589 
C 44.813739 133.939772 45.077154 133.30383 45.077154 132.640822 
C 45.077154 131.977814 44.813739 131.341872 44.344921 130.873055 
C 43.876104 130.404238 43.240162 130.140822 42.577154 130.140822 
C 41.914147 130.140822 41.278205 130.404238 40.809387 130.873055 
C 40.34057 131.341872 40.077154 131.977814 40.077154 132.640822 
C 40.077154 133.30383 40.34057 133.939772 40.809387 134.408589 
C 41.278205 134.877406 41.914147 135.140822 42.577154 135.140822 
z
" clip-path="url(#p4253c41ba2)" style="fill: #bebebe"/>
    <path d="M 52.792658 131.669225 
C 53.455666 131.669225 54.091608 131.40581 54.560425 130.936992 
C 55.029242 130.468175 55.292658 129.832233 55.292658 129.169225 
C 55.292658 128.506218 55.029242 127.870276 54.560425 127.401459 
C 54.091608 126.932641 53.455666 126.669225 52.792658 126.669225 
C 52.12965 126.669225 51.493708 126.932641 51.024891 127.401459 
C 50.556074 127.870276 50.292658 128.506218 50.292658 129.169225 
C 50.292658 129.832233 50.556074 130.468175 51.024891 130.936992 
C 51.493708 131.40581 52.12965 131.669225 52.792658 131.669225 
z
" clip-path="url(#p4253c41ba2)" style="fill: #bebebe"/>
   </g>
   <g id="matplotlib.axis_7"/>
   <g id="matplotlib.axis_8"/>
  </g>
  <g id="axes_5">
   <g id="patch_6">
    <path d="M 10.8 169.2 
L 61.2 169.2 
L 61.2 146.16 
L 10.8 146.16 
z
" style="fill: #ffffff"/>
   </g>
   <g id="EdgeCollection_5">
    <path d="M 57.127646 157.93 
C 83.424829 171.299715 83.424829 144.060285 57.127646 157.43 
C 83.424829 144.060285 83.424829 171.299715 57.127646 157.93 
" clip-path="url(#p1e20d6467b)" style="fill: #020202"/>
    <path d="M 56.403644 157.273398 
L 53.083647 152.634335 
" clip-path="url(#p1e20d6467b)" style="fill: #020202"/>
    <path d="M 56.270614 157.415032 
L 43.001173 149.123015 
" clip-path="url(#p1e20d6467b)" style="fill: #020202"/>
    <path d="M 56.219799 157.523371 
L 32.324268 149.641191 
" clip-path="url(#p1e20d6467b)" style="fill: #020202"/>
    <path d="M 56.199986 157.607031 
L 20.229241 152.300702 
" clip-path="url(#p1e20d6467b)" style="fill: #020202"/>
    <path d="M 56.194633 157.68 
L 18.332618 157.68 
" clip-path="url(#p1e20d6467b)" style="fill: #020202"/>
    <path d="M 56.199986 157.752969 
L 20.229241 163.059298 
" clip-path="url(#p1e20d6467b)" style="fill: #020202"/>
    <path d="M 56.219799 157.836629 
L 30.424931 166.345324 
" clip-path="url(#p1e20d6467b)" style="fill: #020202"/>
    <path d="M 56.270614 157.944968 
L 44.697249 165.177115 
" clip-path="url(#p1e20d6467b)" style="fill: #020202"/>
    <path d="M 56.403644 158.086602 
L 53.083647 162.725665 
" clip-path="url(#p1e20d6467b)" style="fill: #020202"/>
    <path d="M 53.250605 152.027022 
C 79.601539 138.763563 57.657781 122.624852 52.847811 151.730784 
C 57.657781 122.624852 79.601539 138.763563 53.250605 152.027022 
" clip-path="url(#p1e20d6467b)" style="fill: #020202"/>
    <path d="M 52.317824 152.071104 
L 43.051989 149.014676 
" clip-path="url(#p1e20d6467b)" style="fill: #020202"/>
    <path d="M 52.298011 152.154764 
L 32.423332 149.222893 
" clip-path="url(#p1e20d6467b)" style="fill: #020202"/>
    <path d="M 52.292658 152.227733 
L 20.234594 152.227733 
" clip-path="url(#p1e20d6467b)" style="fill: #020202"/>
    <path d="M 52.298011 152.300702 
L 18.305853 157.315154 
" clip-path="url(#p1e20d6467b)" style="fill: #020202; stroke: #020202; stroke-width: 0.99"/>
    <path d="M 52.317824 152.384362 
L 20.209428 162.975638 
" clip-path="url(#p1e20d6467b)" style="fill: #020202"/>
    <path d="M 52.368639 152.492701 
L 30.374116 166.236985 
" clip-path="url(#p1e20d6467b)" style="fill: #020202"/>
    <path d="M 52.501669 152.634335 
L 44.032101 164.468943 
" clip-path="url(#p1e20d6467b)" style="fill: #020202"/>
    <path d="M 52.792658 152.727733 
L 52.792658 162.632267 
" clip-path="url(#p1e20d6467b)" style="fill: #020202"/>
    <path d="M 42.892681 148.470177 
C 60.264816 124.626938 33.370323 120.30574 42.399012 148.390858 
C 33.370323 120.30574 60.264816 124.626938 42.892681 148.470177 
" clip-path="url(#p1e20d6467b)" style="fill: #020202"/>
    <path d="M 42.077154 148.858047 
L 32.450097 148.858047 
" clip-path="url(#p1e20d6467b)" style="fill: #020202"/>
    <path d="M 42.082508 148.931016 
L 20.229241 152.154764 
" clip-path="url(#p1e20d6467b)" style="fill: #020202"/>
    <path d="M 42.10232 149.014676 
L 18.206789 156.896856 
" clip-path="url(#p1e20d6467b)" style="fill: #020202"/>
    <path d="M 42.153135 149.123015 
L 20.158613 162.867299 
" clip-path="url(#p1e20d6467b)" style="fill: #020202"/>
    <path d="M 42.286165 149.264649 
L 30.241087 166.095351 
" clip-path="url(#p1e20d6467b)" style="fill: #020202"/>
    <path d="M 42.577154 149.358047 
L 42.577154 164.001953 
" clip-path="url(#p1e20d6467b)" style="fill: #020202"/>
    <path d="M 42.868144 149.264649 
L 52.501669 162.725665 
" clip-path="url(#p1e20d6467b)" style="fill: #020202"/>
    <path d="M 30.840808 146.522103 
C 39.156929 120.30574 12.262436 124.626938 28.372466 146.918697 
C 12.262436 124.626938 39.156929 120.30574 30.840808 146.522103 
" clip-path="url(#p1e20d6467b)" style="fill: #020202"/>
    <path d="M 27.575927 149.641191 
L 20.209428 152.071104 
" clip-path="url(#p1e20d6467b)" style="fill: #020202"/>
    <path d="M 27.830002 150.182885 
L 17.952714 156.355162 
" clip-path="url(#p1e20d6467b)" style="fill: #020202; stroke: #020202; stroke-width: 0.99"/>
    <path d="M 28.495151 150.891057 
L 20.025583 162.725665 
" clip-path="url(#p1e20d6467b)" style="fill: #020202"/>
    <path d="M 29.950097 151.358047 
L 29.950097 166.001953 
" clip-path="url(#p1e20d6467b)" style="fill: #020202; stroke: #020202; stroke-width: 0.99"/>
    <path d="M 31.405044 150.891057 
L 41.122208 164.468943 
" clip-path="url(#p1e20d6467b)" style="fill: #020202; stroke: #020202; stroke-width: 0.99"/>
    <path d="M 32.070192 150.182885 
L 52.368639 162.867299 
" clip-path="url(#p1e20d6467b)" style="fill: #020202"/>
    <path d="M 19.679441 151.730784 
C 14.869471 122.624852 -7.074288 138.763563 19.276647 152.027022 
C -7.074288 138.763563 14.869471 122.624852 19.679441 151.730784 
" clip-path="url(#p1e20d6467b)" style="fill: #020202"/>
    <path d="M 19.443604 152.634335 
L 17.287565 155.64699 
" clip-path="url(#p1e20d6467b)" style="fill: #020202"/>
    <path d="M 19.734594 152.727733 
L 19.734594 162.632267 
" clip-path="url(#p1e20d6467b)" style="fill: #020202"/>
    <path d="M 20.025583 152.634335 
L 29.659108 166.095351 
" clip-path="url(#p1e20d6467b)" style="fill: #020202"/>
    <path d="M 20.158613 152.492701 
L 40.457059 165.177115 
" clip-path="url(#p1e20d6467b)" style="fill: #020202"/>
    <path d="M 20.209428 152.384362 
L 52.317824 162.975638 
" clip-path="url(#p1e20d6467b)" style="fill: #020202"/>
    <path d="M 13.667555 156.43 
C -10.897577 144.060285 -10.897577 171.299715 13.667555 158.93 
C -10.897577 171.299715 -10.897577 144.060285 13.667555 156.43 
" clip-path="url(#p1e20d6467b)" style="fill: #020202"/>
    <path d="M 17.287565 159.71301 
L 19.443604 162.725665 
" clip-path="url(#p1e20d6467b)" style="fill: #020202"/>
    <path d="M 17.952714 159.004838 
L 29.526078 166.236985 
" clip-path="url(#p1e20d6467b)" style="fill: #020202"/>
    <path d="M 18.206789 158.463144 
L 40.202984 165.718809 
" clip-path="url(#p1e20d6467b)" style="fill: #020202; stroke: #020202; stroke-width: 0.99"/>
    <path d="M 18.305853 158.044846 
L 52.298011 163.059298 
" clip-path="url(#p1e20d6467b)" style="fill: #020202"/>
    <path d="M 19.276647 163.332978 
C -7.074288 176.596437 14.869471 192.735148 19.679441 163.629216 
C 14.869471 192.735148 -7.074288 176.596437 19.276647 163.332978 
" clip-path="url(#p1e20d6467b)" style="fill: #020202"/>
    <path d="M 20.209428 163.288896 
L 29.475263 166.345324 
" clip-path="url(#p1e20d6467b)" style="fill: #020202"/>
    <path d="M 20.229241 163.205236 
L 40.10392 166.137107 
" clip-path="url(#p1e20d6467b)" style="fill: #020202"/>
    <path d="M 20.234594 163.132267 
L 52.292658 163.132267 
" clip-path="url(#p1e20d6467b)" style="fill: #020202"/>
    <path d="M 29.634571 166.889823 
C 12.262436 190.733062 39.156929 195.05426 30.12824 166.969142 
C 39.156929 195.05426 12.262436 190.733062 29.634571 166.889823 
" clip-path="url(#p1e20d6467b)" style="fill: #020202"/>
    <path d="M 30.450097 166.501953 
L 40.077154 166.501953 
" clip-path="url(#p1e20d6467b)" style="fill: #020202"/>
    <path d="M 30.444744 166.428984 
L 52.298011 163.205236 
" clip-path="url(#p1e20d6467b)" style="fill: #020202"/>
    <path d="M 41.686444 168.837897 
C 33.370323 195.05426 60.264816 190.733062 44.154786 168.441303 
C 60.264816 190.733062 33.370323 195.05426 41.686444 168.837897 
" clip-path="url(#p1e20d6467b)" style="fill: #020202"/>
    <path d="M 44.951325 165.718809 
L 52.317824 163.288896 
" clip-path="url(#p1e20d6467b)" style="fill: #020202; stroke: #020202; stroke-width: 0.99"/>
    <path d="M 52.847811 163.629216 
C 57.657781 192.735148 79.601539 176.596437 53.250605 163.332978 
C 79.601539 176.596437 57.657781 192.735148 52.847811 163.629216 
" clip-path="url(#p1e20d6467b)" style="fill: #020202"/>
   </g>
   <g id="VertexCollection_5">
    <path d="M 56.694633 158.18 
C 56.827235 158.18 56.954423 158.127317 57.048187 158.033553 
C 57.14195 157.93979 57.194633 157.812602 57.194633 157.68 
C 57.194633 157.547398 57.14195 157.42021 57.048187 157.326447 
C 56.954423 157.232683 56.827235 157.18 56.694633 157.18 
C 56.562032 157.18 56.434843 157.232683 56.34108 157.326447 
C 56.247316 157.42021 56.194633 157.547398 56.194633 157.68 
C 56.194633 157.812602 56.247316 157.93979 56.34108 158.033553 
C 56.434843 158.127317 56.562032 158.18 56.694633 158.18 
z
" clip-path="url(#p1e20d6467b)" style="fill: #bebebe"/>
    <path d="M 52.792658 152.727733 
C 52.92526 152.727733 53.052448 152.67505 53.146212 152.581286 
C 53.239975 152.487523 53.292658 152.360335 53.292658 152.227733 
C 53.292658 152.095132 53.239975 151.967943 53.146212 151.87418 
C 53.052448 151.780416 52.92526 151.727733 52.792658 151.727733 
C 52.660057 151.727733 52.532868 151.780416 52.439105 151.87418 
C 52.345341 151.967943 52.292658 152.095132 52.292658 152.227733 
C 52.292658 152.360335 52.345341 152.487523 52.439105 152.581286 
C 52.532868 152.67505 52.660057 152.727733 52.792658 152.727733 
z
" clip-path="url(#p1e20d6467b)" style="fill: #bebebe"/>
    <path d="M 42.577154 149.358047 
C 42.709756 149.358047 42.836944 149.305364 42.930708 149.2116 
C 43.024471 149.117837 43.077154 148.990648 43.077154 148.858047 
C 43.077154 148.725445 43.024471 148.598257 42.930708 148.504493 
C 42.836944 148.41073 42.709756 148.358047 42.577154 148.358047 
C 42.444553 148.358047 42.317364 148.41073 42.223601 148.504493 
C 42.129838 148.598257 42.077154 148.725445 42.077154 148.858047 
C 42.077154 148.990648 42.129838 149.117837 42.223601 149.2116 
C 42.317364 149.305364 42.444553 149.358047 42.577154 149.358047 
z
" clip-path="url(#p1e20d6467b)" style="fill: #bebebe"/>
    <path d="M 29.950097 151.358047 
C 30.613105 151.358047 31.249047 151.094631 31.717864 150.625814 
C 32.186682 150.156996 32.450097 149.521055 32.450097 148.858047 
C 32.450097 148.195039 32.186682 147.559097 31.717864 147.09028 
C 31.249047 146.621463 30.613105 146.358047 29.950097 146.358047 
C 29.28709 146.358047 28.651148 146.621463 28.18233 147.09028 
C 27.713513 147.559097 27.450097 148.195039 27.450097 148.858047 
C 27.450097 149.521055 27.713513 150.156996 28.18233 150.625814 
C 28.651148 151.094631 29.28709 151.358047 29.950097 151.358047 
z
" clip-path="url(#p1e20d6467b)" style="fill: #bebebe"/>
    <path d="M 19.734594 152.727733 
C 19.867195 152.727733 19.994384 152.67505 20.088147 152.581286 
C 20.181911 152.487523 20.234594 152.360335 20.234594 152.227733 
C 20.234594 152.095132 20.181911 151.967943 20.088147 151.87418 
C 19.994384 151.780416 19.867195 151.727733 19.734594 151.727733 
C 19.601992 151.727733 19.474804 151.780416 19.38104 151.87418 
C 19.287277 151.967943 19.234594 152.095132 19.234594 152.227733 
C 19.234594 152.360335 19.287277 152.487523 19.38104 152.581286 
C 19.474804 152.67505 19.601992 152.727733 19.734594 152.727733 
z
" clip-path="url(#p1e20d6467b)" style="fill: #bebebe"/>
    <path d="M 15.832618 160.18 
C 16.495626 160.18 17.131568 159.916584 17.600385 159.447767 
C 18.069203 158.97895 18.332618 158.343008 18.332618 157.68 
C 18.332618 157.016992 18.069203 156.38105 17.600385 155.912233 
C 17.131568 155.443416 16.495626 155.18 15.832618 155.18 
C 15.169611 155.18 14.533669 155.443416 14.064852 155.912233 
C 13.596034 156.38105 13.332618 157.016992 13.332618 157.68 
C 13.332618 158.343008 13.596034 158.97895 14.064852 159.447767 
C 14.533669 159.916584 15.169611 160.18 15.832618 160.18 
z
" clip-path="url(#p1e20d6467b)" style="fill: #bebebe"/>
    <path d="M 19.734594 163.632267 
C 19.867195 163.632267 19.994384 163.579584 20.088147 163.48582 
C 20.181911 163.392057 20.234594 163.264868 20.234594 163.132267 
C 20.234594 162.999665 20.181911 162.872477 20.088147 162.778714 
C 19.994384 162.68495 19.867195 162.632267 19.734594 162.632267 
C 19.601992 162.632267 19.474804 162.68495 19.38104 162.778714 
C 19.287277 162.872477 19.234594 162.999665 19.234594 163.132267 
C 19.234594 163.264868 19.287277 163.392057 19.38104 163.48582 
C 19.474804 163.579584 19.601992 163.632267 19.734594 163.632267 
z
" clip-path="url(#p1e20d6467b)" style="fill: #bebebe"/>
    <path d="M 29.950097 167.001953 
C 30.082699 167.001953 30.209887 166.94927 30.303651 166.855507 
C 30.397414 166.761743 30.450097 166.634555 30.450097 166.501953 
C 30.450097 166.369352 30.397414 166.242163 30.303651 166.1484 
C 30.209887 166.054636 30.082699 166.001953 29.950097 166.001953 
C 29.817496 166.001953 29.690307 166.054636 29.596544 166.1484 
C 29.502781 166.242163 29.450097 166.369352 29.450097 166.501953 
C 29.450097 166.634555 29.502781 166.761743 29.596544 166.855507 
C 29.690307 166.94927 29.817496 167.001953 29.950097 167.001953 
z
" clip-path="url(#p1e20d6467b)" style="fill: #bebebe"/>
    <path d="M 42.577154 169.001953 
C 43.240162 169.001953 43.876104 168.738537 44.344921 168.26972 
C 44.813739 167.800903 45.077154 167.164961 45.077154 166.501953 
C 45.077154 165.838945 44.813739 165.203004 44.344921 164.734186 
C 43.876104 164.265369 43.240162 164.001953 42.577154 164.001953 
C 41.914147 164.001953 41.278205 164.265369 40.809387 164.734186 
C 40.34057 165.203004 40.077154 165.838945 40.077154 166.501953 
C 40.077154 167.164961 40.34057 167.800903 40.809387 168.26972 
C 41.278205 168.738537 41.914147 169.001953 42.577154 169.001953 
z
" clip-path="url(#p1e20d6467b)" style="fill: #bebebe"/>
    <path d="M 52.792658 163.632267 
C 52.92526 163.632267 53.052448 163.579584 53.146212 163.48582 
C 53.239975 163.392057 53.292658 163.264868 53.292658 163.132267 
C 53.292658 162.999665 53.239975 162.872477 53.146212 162.778714 
C 53.052448 162.68495 52.92526 162.632267 52.792658 162.632267 
C 52.660057 162.632267 52.532868 162.68495 52.439105 162.778714 
C 52.345341 162.872477 52.292658 162.999665 52.292658 163.132267 
C 52.292658 163.264868 52.345341 163.392057 52.439105 163.48582 
C 52.532868 163.579584 52.660057 163.632267 52.792658 163.632267 
z
" clip-path="url(#p1e20d6467b)" style="fill: #bebebe"/>
   </g>
   <g id="matplotlib.axis_9"/>
   <g id="matplotlib.axis_10"/>
  </g>
 </g>
 <defs>
  <clipPath id="p6430c58499">
   <rect x="10.8" y="10.8" width="50.4" height="23.04"/>
  </clipPath>
  <clipPath id="pb3cc2dab95">
   <rect x="10.8" y="44.64" width="50.4" height="23.04"/>
  </clipPath>
  <clipPath id="p259c01a3f0">
   <rect x="10.8" y="78.48" width="50.4" height="23.04"/>
  </clipPath>
  <clipPath id="p4253c41ba2">
   <rect x="10.8" y="112.32" width="50.4" height="23.04"/>
  </clipPath>
  <clipPath id="p1e20d6467b">
   <rect x="10.8" y="146.16" width="50.4" height="23.04"/>
  </clipPath>
 </defs>
</svg>
