<?xml version="1.0" encoding="utf-8" standalone="no"?>
<!DOCTYPE svg PUBLIC "-//W3C//DTD SVG 1.1//EN"
  "http://www.w3.org/Graphics/SVG/1.1/DTD/svg11.dtd">
<svg xmlns:xlink="http://www.w3.org/1999/xlink" width="216pt" height="864pt" viewBox="0 0 216 864" xmlns="http://www.w3.org/2000/svg" version="1.1">
 <metadata>
  <rdf:RDF xmlns:dc="http://purl.org/dc/elements/1.1/" xmlns:cc="http://creativecommons.org/ns#" xmlns:rdf="http://www.w3.org/1999/02/22-rdf-syntax-ns#">
   <cc:Work>
    <dc:type rdf:resource="http://purl.org/dc/dcmitype/StillImage"/>
    <dc:date>2025-06-05T19:07:52.143955</dc:date>
    <dc:format>image/svg+xml</dc:format>
    <dc:creator>
     <cc:Agent>
      <dc:title>Matplotlib v3.7.5, https://matplotlib.org/</dc:title>
     </cc:Agent>
    </dc:creator>
   </cc:Work>
  </rdf:RDF>
 </metadata>
 <defs>
  <style type="text/css">*{stroke-linejoin: round; stroke-linecap: butt}</style>
 </defs>
 <g id="figure_1">
  <g id="patch_1">
   <path d="M 0 864 
L 216 864 
L 216 0 
L 0 0 
z
" style="fill: #ffffff"/>
  </g>
  <g id="axes_1">
   <g id="patch_2">
    <path d="M 27 218.383448 
L 194.4 218.383448 
L 194.4 103.68 
L 27 103.68 
z
" style="fill: #ffffff"/>
   </g>
   <g id="EdgeCollection_1">
    <path d="M 177.839718 158.89506 
L 160.390684 130.170678 
" clip-path="url(#pd7145ae3fa)" style="fill: #eeeeee; stroke: #eeeeee; stroke-width: 0.144928"/>
    <path d="M 177.072149 159.623305 
L 112.765515 115.774334 
" clip-path="url(#pd7145ae3fa)" style="fill: #eeeeee; stroke: #eeeeee; stroke-width: 0.144928"/>
    <path d="M 176.731786 160.352205 
L 64.713142 128.713533 
" clip-path="url(#pd7145ae3fa)" style="fill: #cccccc; stroke: #cccccc; stroke-width: 0.318841"/>
    <path d="M 176.637665 161.031724 
L 44.762335 161.031724 
" clip-path="url(#pd7145ae3fa)" style="fill: #ffffff"/>
    <path d="M 176.731786 161.711243 
L 64.713142 193.349915 
" clip-path="url(#pd7145ae3fa)" style="fill: #fbfbfb; stroke: #fbfbfb; stroke-width: 0.043478"/>
    <path d="M 177.072149 162.440144 
L 112.765515 206.289114 
" clip-path="url(#pd7145ae3fa)" style="fill: #fbfbfb; stroke: #fbfbfb; stroke-width: 0.043478"/>
    <path d="M 177.839718 163.168388 
L 160.390684 191.89277 
" clip-path="url(#pd7145ae3fa)" style="fill: #e5e5e5; stroke: #e5e5e5; stroke-width: 0.195652"/>
    <path d="M 156.686858 127.354495 
L 113.105879 115.045434 
" clip-path="url(#pd7145ae3fa)" style="stroke: #000000; stroke-width: 3.297101"/>
    <path d="M 156.592737 128.034014 
L 64.807263 128.034014 
" clip-path="url(#pd7145ae3fa)" style="stroke: #000000; stroke-width: 4.42029"/>
    <path d="M 156.686858 128.713533 
L 44.668214 160.352205 
" clip-path="url(#pd7145ae3fa)" style="fill: #bbbbbb; stroke: #bbbbbb; stroke-width: 0.391304"/>
    <path d="M 157.027221 129.442434 
L 64.372779 192.621015 
" clip-path="url(#pd7145ae3fa)" style="stroke: #000000; stroke-width: 1.057971"/>
    <path d="M 157.79479 130.170678 
L 111.997947 205.560869 
" clip-path="url(#pd7145ae3fa)" style="stroke: #000000; stroke-width: 1.050725"/>
    <path d="M 159.092737 130.534014 
L 159.092737 191.529434 
" clip-path="url(#pd7145ae3fa)" style="stroke: #000000; stroke-width: 1.108696"/>
    <path d="M 108.294121 115.045434 
L 64.713142 127.354495 
" clip-path="url(#pd7145ae3fa)" style="stroke: #000000; stroke-width: 5"/>
    <path d="M 108.634485 115.774334 
L 44.327851 159.623305 
" clip-path="url(#pd7145ae3fa)" style="fill: #aeaeae; stroke: #aeaeae; stroke-width: 0.434783"/>
    <path d="M 109.402053 116.502579 
L 63.60521 191.89277 
" clip-path="url(#pd7145ae3fa)" style="fill: #3a3a3a; stroke: #3a3a3a; stroke-width: 0.826087"/>
    <path d="M 110.7 116.865915 
L 110.7 205.197533 
" clip-path="url(#pd7145ae3fa)" style="stroke: #000000; stroke-width: 1.413043"/>
    <path d="M 111.997947 116.502579 
L 157.79479 191.89277 
" clip-path="url(#pd7145ae3fa)" style="stroke: #000000; stroke-width: 1.521739"/>
    <path d="M 61.009316 130.170678 
L 43.560282 158.89506 
" clip-path="url(#pd7145ae3fa)" style="fill: #777777; stroke: #777777; stroke-width: 0.623188"/>
    <path d="M 62.307263 130.534014 
L 62.307263 191.529434 
" clip-path="url(#pd7145ae3fa)" style="stroke: #000000; stroke-width: 1.326087"/>
    <path d="M 63.60521 130.170678 
L 109.402053 205.560869 
" clip-path="url(#pd7145ae3fa)" style="stroke: #000000; stroke-width: 1.949275"/>
    <path d="M 64.372779 129.442434 
L 157.027221 192.621015 
" clip-path="url(#pd7145ae3fa)" style="stroke: #000000; stroke-width: 1.73913"/>
    <path d="M 43.560282 163.168388 
L 61.009316 191.89277 
" clip-path="url(#pd7145ae3fa)" style="fill: #e5e5e5; stroke: #e5e5e5; stroke-width: 0.195652"/>
    <path d="M 44.327851 162.440144 
L 108.634485 206.289114 
" clip-path="url(#pd7145ae3fa)" style="fill: #e9e9e9; stroke: #e9e9e9; stroke-width: 0.173913"/>
    <path d="M 44.668214 161.711243 
L 156.686858 193.349915 
" clip-path="url(#pd7145ae3fa)" style="fill: #eaeaea; stroke: #eaeaea; stroke-width: 0.166667"/>
    <path d="M 64.713142 194.708954 
L 108.294121 207.018014 
" clip-path="url(#pd7145ae3fa)" style="fill: #ababab; stroke: #ababab; stroke-width: 0.442029"/>
    <path d="M 64.807263 194.029434 
L 156.592737 194.029434 
" clip-path="url(#pd7145ae3fa)" style="fill: #d1d1d1; stroke: #d1d1d1; stroke-width: 0.297101"/>
    <path d="M 113.105879 207.018014 
L 156.686858 194.708954 
" clip-path="url(#pd7145ae3fa)" style="fill: #bfbfbf; stroke: #bfbfbf; stroke-width: 0.376812"/>
   </g>
   <g id="VertexCollection_1">
    <path d="M 179.137665 163.531724 
C 179.800673 163.531724 180.436615 163.268308 180.905432 162.799491 
C 181.374249 162.330674 181.637665 161.694732 181.637665 161.031724 
C 181.637665 160.368716 181.374249 159.732774 180.905432 159.263957 
C 180.436615 158.79514 179.800673 158.531724 179.137665 158.531724 
C 178.474657 158.531724 177.838715 158.79514 177.369898 159.263957 
C 176.901081 159.732774 176.637665 160.368716 176.637665 161.031724 
C 176.637665 161.694732 176.901081 162.330674 177.369898 162.799491 
C 177.838715 163.268308 178.474657 163.531724 179.137665 163.531724 
z
" clip-path="url(#pd7145ae3fa)" style="fill: #6b010e; stroke: #6b010e; stroke-width: 3"/>
    <path d="M 159.092737 130.534014 
C 159.755745 130.534014 160.391687 130.270598 160.860504 129.801781 
C 161.329321 129.332964 161.592737 128.697022 161.592737 128.034014 
C 161.592737 127.371006 161.329321 126.735064 160.860504 126.266247 
C 160.391687 125.79743 159.755745 125.534014 159.092737 125.534014 
C 158.429729 125.534014 157.793787 125.79743 157.32497 126.266247 
C 156.856153 126.735064 156.592737 127.371006 156.592737 128.034014 
C 156.592737 128.697022 156.856153 129.332964 157.32497 129.801781 
C 157.793787 130.270598 158.429729 130.534014 159.092737 130.534014 
z
" clip-path="url(#pd7145ae3fa)" style="fill: #6b010e; stroke: #6b010e; stroke-width: 3"/>
    <path d="M 110.7 116.865915 
C 111.363008 116.865915 111.99895 116.602499 112.467767 116.133682 
C 112.936584 115.664864 113.2 115.028923 113.2 114.365915 
C 113.2 113.702907 112.936584 113.066965 112.467767 112.598148 
C 111.99895 112.129331 111.363008 111.865915 110.7 111.865915 
C 110.036992 111.865915 109.40105 112.129331 108.932233 112.598148 
C 108.463416 113.066965 108.2 113.702907 108.2 114.365915 
C 108.2 115.028923 108.463416 115.664864 108.932233 116.133682 
C 109.40105 116.602499 110.036992 116.865915 110.7 116.865915 
z
" clip-path="url(#pd7145ae3fa)" style="fill: #6b010e; stroke: #6b010e; stroke-width: 3"/>
    <path d="M 62.307263 130.534014 
C 62.970271 130.534014 63.606213 130.270598 64.07503 129.801781 
C 64.543847 129.332964 64.807263 128.697022 64.807263 128.034014 
C 64.807263 127.371006 64.543847 126.735064 64.07503 126.266247 
C 63.606213 125.79743 62.970271 125.534014 62.307263 125.534014 
C 61.644255 125.534014 61.008313 125.79743 60.539496 126.266247 
C 60.070679 126.735064 59.807263 127.371006 59.807263 128.034014 
C 59.807263 128.697022 60.070679 129.332964 60.539496 129.801781 
C 61.008313 130.270598 61.644255 130.534014 62.307263 130.534014 
z
" clip-path="url(#pd7145ae3fa)" style="fill: #6b010e; stroke: #6b010e; stroke-width: 3"/>
    <path d="M 42.262335 163.531724 
C 42.925343 163.531724 43.561285 163.268308 44.030102 162.799491 
C 44.498919 162.330674 44.762335 161.694732 44.762335 161.031724 
C 44.762335 160.368716 44.498919 159.732774 44.030102 159.263957 
C 43.561285 158.79514 42.925343 158.531724 42.262335 158.531724 
C 41.599327 158.531724 40.963385 158.79514 40.494568 159.263957 
C 40.025751 159.732774 39.762335 160.368716 39.762335 161.031724 
C 39.762335 161.694732 40.025751 162.330674 40.494568 162.799491 
C 40.963385 163.268308 41.599327 163.531724 42.262335 163.531724 
z
" clip-path="url(#pd7145ae3fa)" style="fill: #6b010e; stroke: #6b010e; stroke-width: 3"/>
    <path d="M 62.307263 196.529434 
C 62.970271 196.529434 63.606213 196.266019 64.07503 195.797201 
C 64.543847 195.328384 64.807263 194.692442 64.807263 194.029434 
C 64.807263 193.366427 64.543847 192.730485 64.07503 192.261667 
C 63.606213 191.79285 62.970271 191.529434 62.307263 191.529434 
C 61.644255 191.529434 61.008313 191.79285 60.539496 192.261667 
C 60.070679 192.730485 59.807263 193.366427 59.807263 194.029434 
C 59.807263 194.692442 60.070679 195.328384 60.539496 195.797201 
C 61.008313 196.266019 61.644255 196.529434 62.307263 196.529434 
z
" clip-path="url(#pd7145ae3fa)" style="fill: #6b010e; stroke: #6b010e; stroke-width: 3"/>
    <path d="M 110.7 210.197533 
C 111.363008 210.197533 111.99895 209.934118 112.467767 209.4653 
C 112.936584 208.996483 113.2 208.360541 113.2 207.697533 
C 113.2 207.034526 112.936584 206.398584 112.467767 205.929767 
C 111.99895 205.460949 111.363008 205.197533 110.7 205.197533 
C 110.036992 205.197533 109.40105 205.460949 108.932233 205.929767 
C 108.463416 206.398584 108.2 207.034526 108.2 207.697533 
C 108.2 208.360541 108.463416 208.996483 108.932233 209.4653 
C 109.40105 209.934118 110.036992 210.197533 110.7 210.197533 
z
" clip-path="url(#pd7145ae3fa)" style="fill: #6b010e; stroke: #6b010e; stroke-width: 3"/>
    <path d="M 159.092737 196.529434 
C 159.755745 196.529434 160.391687 196.266019 160.860504 195.797201 
C 161.329321 195.328384 161.592737 194.692442 161.592737 194.029434 
C 161.592737 193.366427 161.329321 192.730485 160.860504 192.261667 
C 160.391687 191.79285 159.755745 191.529434 159.092737 191.529434 
C 158.429729 191.529434 157.793787 191.79285 157.32497 192.261667 
C 156.856153 192.730485 156.592737 193.366427 156.592737 194.029434 
C 156.592737 194.692442 156.856153 195.328384 157.32497 195.797201 
C 157.793787 196.266019 158.429729 196.529434 159.092737 196.529434 
z
" clip-path="url(#pd7145ae3fa)" style="fill: #6b010e; stroke: #6b010e; stroke-width: 3"/>
   </g>
   <g id="matplotlib.axis_1"/>
   <g id="matplotlib.axis_2"/>
  </g>
  <g id="axes_2">
   <g id="patch_3">
    <path d="M 27 356.027586 
L 194.4 356.027586 
L 194.4 241.324138 
L 27 241.324138 
z
" style="fill: #ffffff"/>
   </g>
   <g id="EdgeCollection_2">
    <path d="M 177.839718 296.539198 
L 160.390684 267.814816 
" clip-path="url(#p98f7f7e60c)" style="fill: #f2f2f2; stroke: #f2f2f2; stroke-width: 0.121212"/>
    <path d="M 177.072149 297.267442 
L 112.765515 253.418472 
" clip-path="url(#p98f7f7e60c)" style="fill: #cfcfcf; stroke: #cfcfcf; stroke-width: 0.30303"/>
    <path d="M 176.731786 297.996343 
L 64.713142 266.357671 
" clip-path="url(#p98f7f7e60c)" style="fill: #e8e8e8; stroke: #e8e8e8; stroke-width: 0.181818"/>
    <path d="M 176.637665 298.675862 
L 44.762335 298.675862 
" clip-path="url(#p98f7f7e60c)" style="fill: #ffffff"/>
    <path d="M 176.731786 299.355381 
L 64.713142 330.994053 
" clip-path="url(#p98f7f7e60c)" style="fill: #f8f8f8; stroke: #f8f8f8; stroke-width: 0.070707"/>
    <path d="M 177.072149 300.084282 
L 112.765515 343.933252 
" clip-path="url(#p98f7f7e60c)" style="fill: #e9e9e9; stroke: #e9e9e9; stroke-width: 0.171717"/>
    <path d="M 177.839718 300.812526 
L 160.390684 329.536908 
" clip-path="url(#p98f7f7e60c)" style="fill: #ececec; stroke: #ececec; stroke-width: 0.161616"/>
    <path d="M 156.686858 264.998633 
L 113.105879 252.689572 
" clip-path="url(#p98f7f7e60c)" style="stroke: #000000; stroke-width: 2.414141"/>
    <path d="M 156.592737 265.678152 
L 64.807263 265.678152 
" clip-path="url(#p98f7f7e60c)" style="stroke: #000000; stroke-width: 3.131313"/>
    <path d="M 156.686858 266.357671 
L 44.668214 297.996343 
" clip-path="url(#p98f7f7e60c)" style="fill: #d9d9d9; stroke: #d9d9d9; stroke-width: 0.262626"/>
    <path d="M 157.027221 267.086571 
L 64.372779 330.265153 
" clip-path="url(#p98f7f7e60c)" style="fill: #212121; stroke: #212121; stroke-width: 0.89899"/>
    <path d="M 157.79479 267.814816 
L 111.997947 343.205007 
" clip-path="url(#p98f7f7e60c)" style="stroke: #000000; stroke-width: 1.151515"/>
    <path d="M 159.092737 268.178152 
L 159.092737 329.173572 
" clip-path="url(#p98f7f7e60c)" style="fill: #868686; stroke: #868686; stroke-width: 0.565657"/>
    <path d="M 108.294121 252.689572 
L 64.713142 264.998633 
" clip-path="url(#p98f7f7e60c)" style="stroke: #000000; stroke-width: 5"/>
    <path d="M 108.634485 253.418472 
L 44.327851 297.267442 
" clip-path="url(#p98f7f7e60c)" style="fill: #bebebe; stroke: #bebebe; stroke-width: 0.383838"/>
    <path d="M 109.402053 254.146717 
L 63.60521 329.536908 
" clip-path="url(#p98f7f7e60c)" style="fill: #727272; stroke: #727272; stroke-width: 0.636364"/>
    <path d="M 110.7 254.510053 
L 110.7 342.841671 
" clip-path="url(#p98f7f7e60c)" style="stroke: #000000; stroke-width: 1.646465"/>
    <path d="M 111.997947 254.146717 
L 157.79479 329.536908 
" clip-path="url(#p98f7f7e60c)" style="stroke: #000000; stroke-width: 1.414141"/>
    <path d="M 61.009316 267.814816 
L 43.560282 296.539198 
" clip-path="url(#p98f7f7e60c)" style="fill: #272727; stroke: #272727; stroke-width: 0.878788"/>
    <path d="M 62.307263 268.178152 
L 62.307263 329.173572 
" clip-path="url(#p98f7f7e60c)" style="stroke: #000000; stroke-width: 1.080808"/>
    <path d="M 63.60521 267.814816 
L 109.402053 343.205007 
" clip-path="url(#p98f7f7e60c)" style="stroke: #000000; stroke-width: 2.484848"/>
    <path d="M 64.372779 267.086571 
L 157.027221 330.265153 
" clip-path="url(#p98f7f7e60c)" style="stroke: #000000; stroke-width: 1.050505"/>
    <path d="M 43.560282 300.812526 
L 61.009316 329.536908 
" clip-path="url(#p98f7f7e60c)" style="fill: #a8a8a8; stroke: #a8a8a8; stroke-width: 0.454545"/>
    <path d="M 44.327851 300.084282 
L 108.634485 343.933252 
" clip-path="url(#p98f7f7e60c)" style="fill: #636363; stroke: #636363; stroke-width: 0.69697"/>
    <path d="M 44.668214 299.355381 
L 156.686858 330.994053 
" clip-path="url(#p98f7f7e60c)" style="fill: #ececec; stroke: #ececec; stroke-width: 0.161616"/>
    <path d="M 64.713142 332.353091 
L 108.294121 344.662152 
" clip-path="url(#p98f7f7e60c)" style="stroke: #000000; stroke-width: 1.050505"/>
    <path d="M 64.807263 331.673572 
L 156.592737 331.673572 
" clip-path="url(#p98f7f7e60c)" style="fill: #d6d6d6; stroke: #d6d6d6; stroke-width: 0.272727"/>
    <path d="M 113.105879 344.662152 
L 156.686858 332.353091 
" clip-path="url(#p98f7f7e60c)" style="fill: #8f8f8f; stroke: #8f8f8f; stroke-width: 0.535354"/>
   </g>
   <g id="VertexCollection_2">
    <path d="M 179.137665 301.175862 
C 179.800673 301.175862 180.436615 300.912446 180.905432 300.443629 
C 181.374249 299.974812 181.637665 299.33887 181.637665 298.675862 
C 181.637665 298.012854 181.374249 297.376912 180.905432 296.908095 
C 180.436615 296.439278 179.800673 296.175862 179.137665 296.175862 
C 178.474657 296.175862 177.838715 296.439278 177.369898 296.908095 
C 176.901081 297.376912 176.637665 298.012854 176.637665 298.675862 
C 176.637665 299.33887 176.901081 299.974812 177.369898 300.443629 
C 177.838715 300.912446 178.474657 301.175862 179.137665 301.175862 
z
" clip-path="url(#p98f7f7e60c)" style="fill: #6b010e; stroke: #6b010e; stroke-width: 3"/>
    <path d="M 159.092737 268.178152 
C 159.755745 268.178152 160.391687 267.914736 160.860504 267.445919 
C 161.329321 266.977102 161.592737 266.34116 161.592737 265.678152 
C 161.592737 265.015144 161.329321 264.379202 160.860504 263.910385 
C 160.391687 263.441568 159.755745 263.178152 159.092737 263.178152 
C 158.429729 263.178152 157.793787 263.441568 157.32497 263.910385 
C 156.856153 264.379202 156.592737 265.015144 156.592737 265.678152 
C 156.592737 266.34116 156.856153 266.977102 157.32497 267.445919 
C 157.793787 267.914736 158.429729 268.178152 159.092737 268.178152 
z
" clip-path="url(#p98f7f7e60c)" style="fill: #6b010e; stroke: #6b010e; stroke-width: 3"/>
    <path d="M 110.7 254.510053 
C 111.363008 254.510053 111.99895 254.246637 112.467767 253.77782 
C 112.936584 253.309002 113.2 252.67306 113.2 252.010053 
C 113.2 251.347045 112.936584 250.711103 112.467767 250.242286 
C 111.99895 249.773468 111.363008 249.510053 110.7 249.510053 
C 110.036992 249.510053 109.40105 249.773468 108.932233 250.242286 
C 108.463416 250.711103 108.2 251.347045 108.2 252.010053 
C 108.2 252.67306 108.463416 253.309002 108.932233 253.77782 
C 109.40105 254.246637 110.036992 254.510053 110.7 254.510053 
z
" clip-path="url(#p98f7f7e60c)" style="fill: #6b010e; stroke: #6b010e; stroke-width: 3"/>
    <path d="M 62.307263 268.178152 
C 62.970271 268.178152 63.606213 267.914736 64.07503 267.445919 
C 64.543847 266.977102 64.807263 266.34116 64.807263 265.678152 
C 64.807263 265.015144 64.543847 264.379202 64.07503 263.910385 
C 63.606213 263.441568 62.970271 263.178152 62.307263 263.178152 
C 61.644255 263.178152 61.008313 263.441568 60.539496 263.910385 
C 60.070679 264.379202 59.807263 265.015144 59.807263 265.678152 
C 59.807263 266.34116 60.070679 266.977102 60.539496 267.445919 
C 61.008313 267.914736 61.644255 268.178152 62.307263 268.178152 
z
" clip-path="url(#p98f7f7e60c)" style="fill: #6b010e; stroke: #6b010e; stroke-width: 3"/>
    <path d="M 42.262335 301.175862 
C 42.925343 301.175862 43.561285 300.912446 44.030102 300.443629 
C 44.498919 299.974812 44.762335 299.33887 44.762335 298.675862 
C 44.762335 298.012854 44.498919 297.376912 44.030102 296.908095 
C 43.561285 296.439278 42.925343 296.175862 42.262335 296.175862 
C 41.599327 296.175862 40.963385 296.439278 40.494568 296.908095 
C 40.025751 297.376912 39.762335 298.012854 39.762335 298.675862 
C 39.762335 299.33887 40.025751 299.974812 40.494568 300.443629 
C 40.963385 300.912446 41.599327 301.175862 42.262335 301.175862 
z
" clip-path="url(#p98f7f7e60c)" style="fill: #6b010e; stroke: #6b010e; stroke-width: 3"/>
    <path d="M 62.307263 334.173572 
C 62.970271 334.173572 63.606213 333.910157 64.07503 333.441339 
C 64.543847 332.972522 64.807263 332.33658 64.807263 331.673572 
C 64.807263 331.010565 64.543847 330.374623 64.07503 329.905805 
C 63.606213 329.436988 62.970271 329.173572 62.307263 329.173572 
C 61.644255 329.173572 61.008313 329.436988 60.539496 329.905805 
C 60.070679 330.374623 59.807263 331.010565 59.807263 331.673572 
C 59.807263 332.33658 60.070679 332.972522 60.539496 333.441339 
C 61.008313 333.910157 61.644255 334.173572 62.307263 334.173572 
z
" clip-path="url(#p98f7f7e60c)" style="fill: #6b010e; stroke: #6b010e; stroke-width: 3"/>
    <path d="M 110.7 347.841671 
C 111.363008 347.841671 111.99895 347.578256 112.467767 347.109438 
C 112.936584 346.640621 113.2 346.004679 113.2 345.341671 
C 113.2 344.678664 112.936584 344.042722 112.467767 343.573904 
C 111.99895 343.105087 111.363008 342.841671 110.7 342.841671 
C 110.036992 342.841671 109.40105 343.105087 108.932233 343.573904 
C 108.463416 344.042722 108.2 344.678664 108.2 345.341671 
C 108.2 346.004679 108.463416 346.640621 108.932233 347.109438 
C 109.40105 347.578256 110.036992 347.841671 110.7 347.841671 
z
" clip-path="url(#p98f7f7e60c)" style="fill: #6b010e; stroke: #6b010e; stroke-width: 3"/>
    <path d="M 159.092737 334.173572 
C 159.755745 334.173572 160.391687 333.910157 160.860504 333.441339 
C 161.329321 332.972522 161.592737 332.33658 161.592737 331.673572 
C 161.592737 331.010565 161.329321 330.374623 160.860504 329.905805 
C 160.391687 329.436988 159.755745 329.173572 159.092737 329.173572 
C 158.429729 329.173572 157.793787 329.436988 157.32497 329.905805 
C 156.856153 330.374623 156.592737 331.010565 156.592737 331.673572 
C 156.592737 332.33658 156.856153 332.972522 157.32497 333.441339 
C 157.793787 333.910157 158.429729 334.173572 159.092737 334.173572 
z
" clip-path="url(#p98f7f7e60c)" style="fill: #6b010e; stroke: #6b010e; stroke-width: 3"/>
   </g>
   <g id="matplotlib.axis_3"/>
   <g id="matplotlib.axis_4"/>
  </g>
  <g id="axes_3">
   <g id="patch_4">
    <path d="M 27 493.671724 
L 194.4 493.671724 
L 194.4 378.968276 
L 27 378.968276 
z
" style="fill: #ffffff"/>
   </g>
   <g id="EdgeCollection_3">
    <path d="M 177.839718 434.183336 
L 160.390684 405.458954 
" clip-path="url(#peb76abfdb9)" style="fill: #fbfbfb; stroke: #fbfbfb; stroke-width: 0.044248"/>
    <path d="M 177.072149 434.91158 
L 112.765515 391.06261 
" clip-path="url(#peb76abfdb9)" style="fill: #e0e0e0; stroke: #e0e0e0; stroke-width: 0.221239"/>
    <path d="M 176.731786 435.640481 
L 64.713142 404.001809 
" clip-path="url(#peb76abfdb9)" style="fill: #e0e0e0; stroke: #e0e0e0; stroke-width: 0.221239"/>
    <path d="M 176.637665 436.32 
L 44.762335 436.32 
" clip-path="url(#peb76abfdb9)" style="fill: #ffffff"/>
    <path d="M 176.731786 436.999519 
L 64.713142 468.638191 
" clip-path="url(#peb76abfdb9)" style="fill: #fefefe; stroke: #fefefe; stroke-width: 0.022124"/>
    <path d="M 177.072149 437.72842 
L 112.765515 481.57739 
" clip-path="url(#peb76abfdb9)" style="fill: #c4c4c4; stroke: #c4c4c4; stroke-width: 0.353982"/>
    <path d="M 177.839718 438.456664 
L 160.390684 467.181046 
" clip-path="url(#peb76abfdb9)" style="fill: #f5f5f5; stroke: #f5f5f5; stroke-width: 0.099558"/>
    <path d="M 156.686858 402.642771 
L 113.105879 390.33371 
" clip-path="url(#peb76abfdb9)" style="stroke: #000000; stroke-width: 2.997788"/>
    <path d="M 156.592737 403.32229 
L 64.807263 403.32229 
" clip-path="url(#peb76abfdb9)" style="stroke: #000000; stroke-width: 3.29646"/>
    <path d="M 156.686858 404.001809 
L 44.668214 435.640481 
" clip-path="url(#peb76abfdb9)" style="fill: #d5d5d5; stroke: #d5d5d5; stroke-width: 0.276549"/>
    <path d="M 157.027221 404.730709 
L 64.372779 467.909291 
" clip-path="url(#peb76abfdb9)" style="fill: #171717; stroke: #171717; stroke-width: 0.929204"/>
    <path d="M 157.79479 405.458954 
L 111.997947 480.849145 
" clip-path="url(#peb76abfdb9)" style="stroke: #000000; stroke-width: 1.747788"/>
    <path d="M 159.092737 405.82229 
L 159.092737 466.81771 
" clip-path="url(#peb76abfdb9)" style="fill: #d1d1d1; stroke: #d1d1d1; stroke-width: 0.298673"/>
    <path d="M 108.294121 390.33371 
L 64.713142 402.642771 
" clip-path="url(#peb76abfdb9)" style="stroke: #000000; stroke-width: 5"/>
    <path d="M 108.634485 391.06261 
L 44.327851 434.91158 
" clip-path="url(#peb76abfdb9)" style="fill: #2c2c2c; stroke: #2c2c2c; stroke-width: 0.862832"/>
    <path d="M 109.402053 391.790855 
L 63.60521 467.181046 
" clip-path="url(#peb76abfdb9)" style="stroke: #000000; stroke-width: 1.59292"/>
    <path d="M 110.7 392.154191 
L 110.7 480.485809 
" clip-path="url(#peb76abfdb9)" style="stroke: #000000; stroke-width: 3.119469"/>
    <path d="M 111.997947 391.790855 
L 157.79479 467.181046 
" clip-path="url(#peb76abfdb9)" style="stroke: #000000; stroke-width: 1.172566"/>
    <path d="M 61.009316 405.458954 
L 43.560282 434.183336 
" clip-path="url(#peb76abfdb9)" style="fill: #909090; stroke: #909090; stroke-width: 0.530973"/>
    <path d="M 62.307263 405.82229 
L 62.307263 466.81771 
" clip-path="url(#peb76abfdb9)" style="stroke: #000000; stroke-width: 1.980088"/>
    <path d="M 63.60521 405.458954 
L 109.402053 480.849145 
" clip-path="url(#peb76abfdb9)" style="stroke: #000000; stroke-width: 2.89823"/>
    <path d="M 64.372779 404.730709 
L 157.027221 467.909291 
" clip-path="url(#peb76abfdb9)" style="fill: #484848; stroke: #484848; stroke-width: 0.785398"/>
    <path d="M 43.560282 438.456664 
L 61.009316 467.181046 
" clip-path="url(#peb76abfdb9)" style="fill: #939393; stroke: #939393; stroke-width: 0.519912"/>
    <path d="M 44.327851 437.72842 
L 108.634485 481.57739 
" clip-path="url(#peb76abfdb9)" style="fill: #bdbdbd; stroke: #bdbdbd; stroke-width: 0.387168"/>
    <path d="M 44.668214 436.999519 
L 156.686858 468.638191 
" clip-path="url(#peb76abfdb9)" style="fill: #fdfdfd; stroke: #fdfdfd; stroke-width: 0.033186"/>
    <path d="M 64.713142 469.997229 
L 108.294121 482.30629 
" clip-path="url(#peb76abfdb9)" style="stroke: #000000; stroke-width: 2.168142"/>
    <path d="M 64.807263 469.31771 
L 156.592737 469.31771 
" clip-path="url(#peb76abfdb9)" style="fill: #5d5d5d; stroke: #5d5d5d; stroke-width: 0.719027"/>
    <path d="M 113.105879 482.30629 
L 156.686858 469.997229 
" clip-path="url(#peb76abfdb9)" style="fill: #939393; stroke: #939393; stroke-width: 0.519912"/>
   </g>
   <g id="VertexCollection_3">
    <path d="M 179.137665 438.82 
C 179.800673 438.82 180.436615 438.556584 180.905432 438.087767 
C 181.374249 437.61895 181.637665 436.983008 181.637665 436.32 
C 181.637665 435.656992 181.374249 435.02105 180.905432 434.552233 
C 180.436615 434.083416 179.800673 433.82 179.137665 433.82 
C 178.474657 433.82 177.838715 434.083416 177.369898 434.552233 
C 176.901081 435.02105 176.637665 435.656992 176.637665 436.32 
C 176.637665 436.983008 176.901081 437.61895 177.369898 438.087767 
C 177.838715 438.556584 178.474657 438.82 179.137665 438.82 
z
" clip-path="url(#peb76abfdb9)" style="fill: #6b010e; stroke: #6b010e; stroke-width: 3"/>
    <path d="M 159.092737 405.82229 
C 159.755745 405.82229 160.391687 405.558874 160.860504 405.090057 
C 161.329321 404.621239 161.592737 403.985298 161.592737 403.32229 
C 161.592737 402.659282 161.329321 402.02334 160.860504 401.554523 
C 160.391687 401.085706 159.755745 400.82229 159.092737 400.82229 
C 158.429729 400.82229 157.793787 401.085706 157.32497 401.554523 
C 156.856153 402.02334 156.592737 402.659282 156.592737 403.32229 
C 156.592737 403.985298 156.856153 404.621239 157.32497 405.090057 
C 157.793787 405.558874 158.429729 405.82229 159.092737 405.82229 
z
" clip-path="url(#peb76abfdb9)" style="fill: #6b010e; stroke: #6b010e; stroke-width: 3"/>
    <path d="M 110.7 392.154191 
C 111.363008 392.154191 111.99895 391.890775 112.467767 391.421958 
C 112.936584 390.95314 113.2 390.317198 113.2 389.654191 
C 113.2 388.991183 112.936584 388.355241 112.467767 387.886424 
C 111.99895 387.417606 111.363008 387.154191 110.7 387.154191 
C 110.036992 387.154191 109.40105 387.417606 108.932233 387.886424 
C 108.463416 388.355241 108.2 388.991183 108.2 389.654191 
C 108.2 390.317198 108.463416 390.95314 108.932233 391.421958 
C 109.40105 391.890775 110.036992 392.154191 110.7 392.154191 
z
" clip-path="url(#peb76abfdb9)" style="fill: #6b010e; stroke: #6b010e; stroke-width: 3"/>
    <path d="M 62.307263 405.82229 
C 62.970271 405.82229 63.606213 405.558874 64.07503 405.090057 
C 64.543847 404.621239 64.807263 403.985298 64.807263 403.32229 
C 64.807263 402.659282 64.543847 402.02334 64.07503 401.554523 
C 63.606213 401.085706 62.970271 400.82229 62.307263 400.82229 
C 61.644255 400.82229 61.008313 401.085706 60.539496 401.554523 
C 60.070679 402.02334 59.807263 402.659282 59.807263 403.32229 
C 59.807263 403.985298 60.070679 404.621239 60.539496 405.090057 
C 61.008313 405.558874 61.644255 405.82229 62.307263 405.82229 
z
" clip-path="url(#peb76abfdb9)" style="fill: #6b010e; stroke: #6b010e; stroke-width: 3"/>
    <path d="M 42.262335 438.82 
C 42.925343 438.82 43.561285 438.556584 44.030102 438.087767 
C 44.498919 437.61895 44.762335 436.983008 44.762335 436.32 
C 44.762335 435.656992 44.498919 435.02105 44.030102 434.552233 
C 43.561285 434.083416 42.925343 433.82 42.262335 433.82 
C 41.599327 433.82 40.963385 434.083416 40.494568 434.552233 
C 40.025751 435.02105 39.762335 435.656992 39.762335 436.32 
C 39.762335 436.983008 40.025751 437.61895 40.494568 438.087767 
C 40.963385 438.556584 41.599327 438.82 42.262335 438.82 
z
" clip-path="url(#peb76abfdb9)" style="fill: #6b010e; stroke: #6b010e; stroke-width: 3"/>
    <path d="M 62.307263 471.81771 
C 62.970271 471.81771 63.606213 471.554294 64.07503 471.085477 
C 64.543847 470.61666 64.807263 469.980718 64.807263 469.31771 
C 64.807263 468.654702 64.543847 468.018761 64.07503 467.549943 
C 63.606213 467.081126 62.970271 466.81771 62.307263 466.81771 
C 61.644255 466.81771 61.008313 467.081126 60.539496 467.549943 
C 60.070679 468.018761 59.807263 468.654702 59.807263 469.31771 
C 59.807263 469.980718 60.070679 470.61666 60.539496 471.085477 
C 61.008313 471.554294 61.644255 471.81771 62.307263 471.81771 
z
" clip-path="url(#peb76abfdb9)" style="fill: #6b010e; stroke: #6b010e; stroke-width: 3"/>
    <path d="M 110.7 485.485809 
C 111.363008 485.485809 111.99895 485.222394 112.467767 484.753576 
C 112.936584 484.284759 113.2 483.648817 113.2 482.985809 
C 113.2 482.322802 112.936584 481.68686 112.467767 481.218042 
C 111.99895 480.749225 111.363008 480.485809 110.7 480.485809 
C 110.036992 480.485809 109.40105 480.749225 108.932233 481.218042 
C 108.463416 481.68686 108.2 482.322802 108.2 482.985809 
C 108.2 483.648817 108.463416 484.284759 108.932233 484.753576 
C 109.40105 485.222394 110.036992 485.485809 110.7 485.485809 
z
" clip-path="url(#peb76abfdb9)" style="fill: #6b010e; stroke: #6b010e; stroke-width: 3"/>
    <path d="M 159.092737 471.81771 
C 159.755745 471.81771 160.391687 471.554294 160.860504 471.085477 
C 161.329321 470.61666 161.592737 469.980718 161.592737 469.31771 
C 161.592737 468.654702 161.329321 468.018761 160.860504 467.549943 
C 160.391687 467.081126 159.755745 466.81771 159.092737 466.81771 
C 158.429729 466.81771 157.793787 467.081126 157.32497 467.549943 
C 156.856153 468.018761 156.592737 468.654702 156.592737 469.31771 
C 156.592737 469.980718 156.856153 470.61666 157.32497 471.085477 
C 157.793787 471.554294 158.429729 471.81771 159.092737 471.81771 
z
" clip-path="url(#peb76abfdb9)" style="fill: #6b010e; stroke: #6b010e; stroke-width: 3"/>
   </g>
   <g id="matplotlib.axis_5"/>
   <g id="matplotlib.axis_6"/>
  </g>
  <g id="axes_4">
   <g id="patch_5">
    <path d="M 27 631.315862 
L 194.4 631.315862 
L 194.4 516.612414 
L 27 516.612414 
z
" style="fill: #ffffff"/>
   </g>
   <g id="EdgeCollection_4">
    <path d="M 177.839718 571.827474 
L 160.390684 543.103092 
" clip-path="url(#pb700000d8a)" style="fill: #e4e4e4; stroke: #e4e4e4; stroke-width: 0.200222"/>
    <path d="M 177.072149 572.555718 
L 112.765515 528.706748 
" clip-path="url(#pb700000d8a)" style="fill: #ececec; stroke: #ececec; stroke-width: 0.16129"/>
    <path d="M 176.731786 573.284619 
L 64.713142 541.645947 
" clip-path="url(#pb700000d8a)" style="fill: #d8d8d8; stroke: #d8d8d8; stroke-width: 0.266963"/>
    <path d="M 176.637665 573.964138 
L 44.762335 573.964138 
" clip-path="url(#pb700000d8a)" style="fill: #f4f4f4; stroke: #f4f4f4; stroke-width: 0.105673"/>
    <path d="M 176.731786 574.643657 
L 64.713142 606.282329 
" clip-path="url(#pb700000d8a)" style="fill: #f1f1f1; stroke: #f1f1f1; stroke-width: 0.12792"/>
    <path d="M 177.072149 575.372558 
L 112.765515 619.221528 
" clip-path="url(#pb700000d8a)" style="fill: #d0d0d0; stroke: #d0d0d0; stroke-width: 0.300334"/>
    <path d="M 177.839718 576.100802 
L 160.390684 604.825184 
" clip-path="url(#pb700000d8a)" style="fill: #ffffff"/>
    <path d="M 156.686858 540.286909 
L 113.105879 527.977848 
" clip-path="url(#pb700000d8a)" style="stroke: #000000; stroke-width: 3.464961"/>
    <path d="M 156.592737 540.966428 
L 64.807263 540.966428 
" clip-path="url(#pb700000d8a)" style="stroke: #000000; stroke-width: 3.798665"/>
    <path d="M 156.686858 541.645947 
L 44.668214 573.284619 
" clip-path="url(#pb700000d8a)" style="fill: #828282; stroke: #828282; stroke-width: 0.583982"/>
    <path d="M 157.027221 542.374847 
L 64.372779 605.553429 
" clip-path="url(#pb700000d8a)" style="stroke: #000000; stroke-width: 1.25139"/>
    <path d="M 157.79479 543.103092 
L 111.997947 618.493283 
" clip-path="url(#pb700000d8a)" style="stroke: #000000; stroke-width: 2.675195"/>
    <path d="M 159.092737 543.466428 
L 159.092737 604.461848 
" clip-path="url(#pb700000d8a)" style="fill: #ececec; stroke: #ececec; stroke-width: 0.16129"/>
    <path d="M 108.294121 527.977848 
L 64.713142 540.286909 
" clip-path="url(#pb700000d8a)" style="stroke: #000000; stroke-width: 5"/>
    <path d="M 108.634485 528.706748 
L 44.327851 572.555718 
" clip-path="url(#pb700000d8a)" style="stroke: #000000; stroke-width: 1.640712"/>
    <path d="M 109.402053 529.434993 
L 63.60521 604.825184 
" clip-path="url(#pb700000d8a)" style="stroke: #000000; stroke-width: 1.295884"/>
    <path d="M 110.7 529.798329 
L 110.7 618.129947 
" clip-path="url(#pb700000d8a)" style="stroke: #000000; stroke-width: 4.176863"/>
    <path d="M 111.997947 529.434993 
L 157.79479 604.825184 
" clip-path="url(#pb700000d8a)" style="fill: #9e9e9e; stroke: #9e9e9e; stroke-width: 0.483871"/>
    <path d="M 61.009316 543.103092 
L 43.560282 571.827474 
" clip-path="url(#pb700000d8a)" style="fill: #131313; stroke: #131313; stroke-width: 0.945495"/>
    <path d="M 62.307263 543.466428 
L 62.307263 604.461848 
" clip-path="url(#pb700000d8a)" style="stroke: #000000; stroke-width: 1.268076"/>
    <path d="M 63.60521 543.103092 
L 109.402053 618.493283 
" clip-path="url(#pb700000d8a)" style="stroke: #000000; stroke-width: 3.503893"/>
    <path d="M 64.372779 542.374847 
L 157.027221 605.553429 
" clip-path="url(#pb700000d8a)" style="fill: #cccccc; stroke: #cccccc; stroke-width: 0.317019"/>
    <path d="M 43.560282 576.100802 
L 61.009316 604.825184 
" clip-path="url(#pb700000d8a)" style="stroke: #000000; stroke-width: 1.25139"/>
    <path d="M 44.327851 575.372558 
L 108.634485 619.221528 
" clip-path="url(#pb700000d8a)" style="stroke: #000000; stroke-width: 2.074527"/>
    <path d="M 44.668214 574.643657 
L 156.686858 606.282329 
" clip-path="url(#pb700000d8a)" style="fill: #fbfbfb; stroke: #fbfbfb; stroke-width: 0.044494"/>
    <path d="M 64.713142 607.641367 
L 108.294121 619.950428 
" clip-path="url(#pb700000d8a)" style="stroke: #000000; stroke-width: 3.031146"/>
    <path d="M 64.807263 606.961848 
L 156.592737 606.961848 
" clip-path="url(#pb700000d8a)" style="fill: #fefefe; stroke: #fefefe; stroke-width: 0.022247"/>
    <path d="M 113.105879 619.950428 
L 156.686858 607.641367 
" clip-path="url(#pb700000d8a)" style="fill: #efefef; stroke: #efefef; stroke-width: 0.139043"/>
   </g>
   <g id="VertexCollection_4">
    <path d="M 179.137665 576.464138 
C 179.800673 576.464138 180.436615 576.200722 180.905432 575.731905 
C 181.374249 575.263088 181.637665 574.627146 181.637665 573.964138 
C 181.637665 573.30113 181.374249 572.665188 180.905432 572.196371 
C 180.436615 571.727554 179.800673 571.464138 179.137665 571.464138 
C 178.474657 571.464138 177.838715 571.727554 177.369898 572.196371 
C 176.901081 572.665188 176.637665 573.30113 176.637665 573.964138 
C 176.637665 574.627146 176.901081 575.263088 177.369898 575.731905 
C 177.838715 576.200722 178.474657 576.464138 179.137665 576.464138 
z
" clip-path="url(#pb700000d8a)" style="fill: #6b010e; stroke: #6b010e; stroke-width: 3"/>
    <path d="M 159.092737 543.466428 
C 159.755745 543.466428 160.391687 543.203012 160.860504 542.734195 
C 161.329321 542.265377 161.592737 541.629435 161.592737 540.966428 
C 161.592737 540.30342 161.329321 539.667478 160.860504 539.198661 
C 160.391687 538.729843 159.755745 538.466428 159.092737 538.466428 
C 158.429729 538.466428 157.793787 538.729843 157.32497 539.198661 
C 156.856153 539.667478 156.592737 540.30342 156.592737 540.966428 
C 156.592737 541.629435 156.856153 542.265377 157.32497 542.734195 
C 157.793787 543.203012 158.429729 543.466428 159.092737 543.466428 
z
" clip-path="url(#pb700000d8a)" style="fill: #6b010e; stroke: #6b010e; stroke-width: 3"/>
    <path d="M 110.7 529.798329 
C 111.363008 529.798329 111.99895 529.534913 112.467767 529.066096 
C 112.936584 528.597278 113.2 527.961336 113.2 527.298329 
C 113.2 526.635321 112.936584 525.999379 112.467767 525.530562 
C 111.99895 525.061744 111.363008 524.798329 110.7 524.798329 
C 110.036992 524.798329 109.40105 525.061744 108.932233 525.530562 
C 108.463416 525.999379 108.2 526.635321 108.2 527.298329 
C 108.2 527.961336 108.463416 528.597278 108.932233 529.066096 
C 109.40105 529.534913 110.036992 529.798329 110.7 529.798329 
z
" clip-path="url(#pb700000d8a)" style="fill: #6b010e; stroke: #6b010e; stroke-width: 3"/>
    <path d="M 62.307263 543.466428 
C 62.970271 543.466428 63.606213 543.203012 64.07503 542.734195 
C 64.543847 542.265377 64.807263 541.629435 64.807263 540.966428 
C 64.807263 540.30342 64.543847 539.667478 64.07503 539.198661 
C 63.606213 538.729843 62.970271 538.466428 62.307263 538.466428 
C 61.644255 538.466428 61.008313 538.729843 60.539496 539.198661 
C 60.070679 539.667478 59.807263 540.30342 59.807263 540.966428 
C 59.807263 541.629435 60.070679 542.265377 60.539496 542.734195 
C 61.008313 543.203012 61.644255 543.466428 62.307263 543.466428 
z
" clip-path="url(#pb700000d8a)" style="fill: #6b010e; stroke: #6b010e; stroke-width: 3"/>
    <path d="M 42.262335 576.464138 
C 42.925343 576.464138 43.561285 576.200722 44.030102 575.731905 
C 44.498919 575.263088 44.762335 574.627146 44.762335 573.964138 
C 44.762335 573.30113 44.498919 572.665188 44.030102 572.196371 
C 43.561285 571.727554 42.925343 571.464138 42.262335 571.464138 
C 41.599327 571.464138 40.963385 571.727554 40.494568 572.196371 
C 40.025751 572.665188 39.762335 573.30113 39.762335 573.964138 
C 39.762335 574.627146 40.025751 575.263088 40.494568 575.731905 
C 40.963385 576.200722 41.599327 576.464138 42.262335 576.464138 
z
" clip-path="url(#pb700000d8a)" style="fill: #6b010e; stroke: #6b010e; stroke-width: 3"/>
    <path d="M 62.307263 609.461848 
C 62.970271 609.461848 63.606213 609.198432 64.07503 608.729615 
C 64.543847 608.260798 64.807263 607.624856 64.807263 606.961848 
C 64.807263 606.29884 64.543847 605.662898 64.07503 605.194081 
C 63.606213 604.725264 62.970271 604.461848 62.307263 604.461848 
C 61.644255 604.461848 61.008313 604.725264 60.539496 605.194081 
C 60.070679 605.662898 59.807263 606.29884 59.807263 606.961848 
C 59.807263 607.624856 60.070679 608.260798 60.539496 608.729615 
C 61.008313 609.198432 61.644255 609.461848 62.307263 609.461848 
z
" clip-path="url(#pb700000d8a)" style="fill: #6b010e; stroke: #6b010e; stroke-width: 3"/>
    <path d="M 110.7 623.129947 
C 111.363008 623.129947 111.99895 622.866532 112.467767 622.397714 
C 112.936584 621.928897 113.2 621.292955 113.2 620.629947 
C 113.2 619.96694 112.936584 619.330998 112.467767 618.86218 
C 111.99895 618.393363 111.363008 618.129947 110.7 618.129947 
C 110.036992 618.129947 109.40105 618.393363 108.932233 618.86218 
C 108.463416 619.330998 108.2 619.96694 108.2 620.629947 
C 108.2 621.292955 108.463416 621.928897 108.932233 622.397714 
C 109.40105 622.866532 110.036992 623.129947 110.7 623.129947 
z
" clip-path="url(#pb700000d8a)" style="fill: #6b010e; stroke: #6b010e; stroke-width: 3"/>
    <path d="M 159.092737 609.461848 
C 159.755745 609.461848 160.391687 609.198432 160.860504 608.729615 
C 161.329321 608.260798 161.592737 607.624856 161.592737 606.961848 
C 161.592737 606.29884 161.329321 605.662898 160.860504 605.194081 
C 160.391687 604.725264 159.755745 604.461848 159.092737 604.461848 
C 158.429729 604.461848 157.793787 604.725264 157.32497 605.194081 
C 156.856153 605.662898 156.592737 606.29884 156.592737 606.961848 
C 156.592737 607.624856 156.856153 608.260798 157.32497 608.729615 
C 157.793787 609.198432 158.429729 609.461848 159.092737 609.461848 
z
" clip-path="url(#pb700000d8a)" style="fill: #6b010e; stroke: #6b010e; stroke-width: 3"/>
   </g>
   <g id="matplotlib.axis_7"/>
   <g id="matplotlib.axis_8"/>
  </g>
  <g id="axes_5">
   <g id="patch_6">
    <path d="M 27 768.96 
L 194.4 768.96 
L 194.4 654.256552 
L 27 654.256552 
z
" style="fill: #ffffff"/>
   </g>
   <g id="EdgeCollection_5">
    <path d="M 177.839718 709.471612 
L 160.390684 680.74723 
" clip-path="url(#pe02c668cbf)" style="fill: #ffffff"/>
    <path d="M 177.072149 710.199856 
L 112.765515 666.350886 
" clip-path="url(#pe02c668cbf)" style="fill: #e1e1e1; stroke: #e1e1e1; stroke-width: 0.214866"/>
    <path d="M 176.731786 710.928757 
L 64.713142 679.290085 
" clip-path="url(#pe02c668cbf)" style="fill: #f4f4f4; stroke: #f4f4f4; stroke-width: 0.10453"/>
    <path d="M 176.637665 711.608276 
L 44.762335 711.608276 
" clip-path="url(#pe02c668cbf)" style="fill: #fcfcfc; stroke: #fcfcfc; stroke-width: 0.034843"/>
    <path d="M 176.731786 712.287795 
L 64.713142 743.926467 
" clip-path="url(#pe02c668cbf)" style="fill: #f7f7f7; stroke: #f7f7f7; stroke-width: 0.081301"/>
    <path d="M 177.072149 713.016695 
L 112.765515 756.865666 
" clip-path="url(#pe02c668cbf)" style="fill: #c0c0c0; stroke: #c0c0c0; stroke-width: 0.371661"/>
    <path d="M 156.686858 677.931046 
L 113.105879 665.621986 
" clip-path="url(#pe02c668cbf)" style="stroke: #000000; stroke-width: 3.432056"/>
    <path d="M 156.592737 678.610566 
L 64.807263 678.610566 
" clip-path="url(#pe02c668cbf)" style="stroke: #000000; stroke-width: 3.135889"/>
    <path d="M 156.686858 679.290085 
L 44.668214 710.928757 
" clip-path="url(#pe02c668cbf)" style="fill: #b3b3b3; stroke: #b3b3b3; stroke-width: 0.418118"/>
    <path d="M 157.027221 680.018985 
L 64.372779 743.197566 
" clip-path="url(#pe02c668cbf)" style="stroke: #000000; stroke-width: 1.747967"/>
    <path d="M 157.79479 680.74723 
L 111.997947 756.137421 
" clip-path="url(#pe02c668cbf)" style="stroke: #000000; stroke-width: 2.171893"/>
    <path d="M 108.294121 665.621986 
L 64.713142 677.931046 
" clip-path="url(#pe02c668cbf)" style="stroke: #000000; stroke-width: 5"/>
    <path d="M 108.634485 666.350886 
L 44.327851 710.199856 
" clip-path="url(#pe02c668cbf)" style="stroke: #000000; stroke-width: 1.109175"/>
    <path d="M 109.402053 667.079131 
L 63.60521 742.469322 
" clip-path="url(#pe02c668cbf)" style="stroke: #000000; stroke-width: 2.53194"/>
    <path d="M 110.7 667.442467 
L 110.7 755.774085 
" clip-path="url(#pe02c668cbf)" style="stroke: #000000; stroke-width: 3.751452"/>
    <path d="M 111.997947 667.079131 
L 157.79479 742.469322 
" clip-path="url(#pe02c668cbf)" style="fill: #ffffff"/>
    <path d="M 61.009316 680.74723 
L 43.560282 709.471612 
" clip-path="url(#pe02c668cbf)" style="fill: #787878; stroke: #787878; stroke-width: 0.615563"/>
    <path d="M 62.307263 681.110566 
L 62.307263 742.105986 
" clip-path="url(#pe02c668cbf)" style="stroke: #000000; stroke-width: 1.811847"/>
    <path d="M 63.60521 680.74723 
L 109.402053 756.137421 
" clip-path="url(#pe02c668cbf)" style="stroke: #000000; stroke-width: 2.932636"/>
    <path d="M 43.560282 713.74494 
L 61.009316 742.469322 
" clip-path="url(#pe02c668cbf)" style="fill: #020202; stroke: #020202; stroke-width: 0.998839"/>
    <path d="M 44.327851 713.016695 
L 108.634485 756.865666 
" clip-path="url(#pe02c668cbf)" style="stroke: #000000; stroke-width: 1.010453"/>
    <path d="M 64.713142 745.285505 
L 108.294121 757.594566 
" clip-path="url(#pe02c668cbf)" style="stroke: #000000; stroke-width: 2.183508"/>
   </g>
   <g id="VertexCollection_5">
    <path d="M 179.137665 714.108276 
C 179.800673 714.108276 180.436615 713.84486 180.905432 713.376043 
C 181.374249 712.907226 181.637665 712.271284 181.637665 711.608276 
C 181.637665 710.945268 181.374249 710.309326 180.905432 709.840509 
C 180.436615 709.371692 179.800673 709.108276 179.137665 709.108276 
C 178.474657 709.108276 177.838715 709.371692 177.369898 709.840509 
C 176.901081 710.309326 176.637665 710.945268 176.637665 711.608276 
C 176.637665 712.271284 176.901081 712.907226 177.369898 713.376043 
C 177.838715 713.84486 178.474657 714.108276 179.137665 714.108276 
z
" clip-path="url(#pe02c668cbf)" style="fill: #6b010e; stroke: #6b010e; stroke-width: 3"/>
    <path d="M 159.092737 681.110566 
C 159.755745 681.110566 160.391687 680.84715 160.860504 680.378333 
C 161.329321 679.909515 161.592737 679.273573 161.592737 678.610566 
C 161.592737 677.947558 161.329321 677.311616 160.860504 676.842799 
C 160.391687 676.373981 159.755745 676.110566 159.092737 676.110566 
C 158.429729 676.110566 157.793787 676.373981 157.32497 676.842799 
C 156.856153 677.311616 156.592737 677.947558 156.592737 678.610566 
C 156.592737 679.273573 156.856153 679.909515 157.32497 680.378333 
C 157.793787 680.84715 158.429729 681.110566 159.092737 681.110566 
z
" clip-path="url(#pe02c668cbf)" style="fill: #6b010e; stroke: #6b010e; stroke-width: 3"/>
    <path d="M 110.7 667.442467 
C 111.363008 667.442467 111.99895 667.179051 112.467767 666.710233 
C 112.936584 666.241416 113.2 665.605474 113.2 664.942467 
C 113.2 664.279459 112.936584 663.643517 112.467767 663.1747 
C 111.99895 662.705882 111.363008 662.442467 110.7 662.442467 
C 110.036992 662.442467 109.40105 662.705882 108.932233 663.1747 
C 108.463416 663.643517 108.2 664.279459 108.2 664.942467 
C 108.2 665.605474 108.463416 666.241416 108.932233 666.710233 
C 109.40105 667.179051 110.036992 667.442467 110.7 667.442467 
z
" clip-path="url(#pe02c668cbf)" style="fill: #6b010e; stroke: #6b010e; stroke-width: 3"/>
    <path d="M 62.307263 681.110566 
C 62.970271 681.110566 63.606213 680.84715 64.07503 680.378333 
C 64.543847 679.909515 64.807263 679.273573 64.807263 678.610566 
C 64.807263 677.947558 64.543847 677.311616 64.07503 676.842799 
C 63.606213 676.373981 62.970271 676.110566 62.307263 676.110566 
C 61.644255 676.110566 61.008313 676.373981 60.539496 676.842799 
C 60.070679 677.311616 59.807263 677.947558 59.807263 678.610566 
C 59.807263 679.273573 60.070679 679.909515 60.539496 680.378333 
C 61.008313 680.84715 61.644255 681.110566 62.307263 681.110566 
z
" clip-path="url(#pe02c668cbf)" style="fill: #6b010e; stroke: #6b010e; stroke-width: 3"/>
    <path d="M 42.262335 714.108276 
C 42.925343 714.108276 43.561285 713.84486 44.030102 713.376043 
C 44.498919 712.907226 44.762335 712.271284 44.762335 711.608276 
C 44.762335 710.945268 44.498919 710.309326 44.030102 709.840509 
C 43.561285 709.371692 42.925343 709.108276 42.262335 709.108276 
C 41.599327 709.108276 40.963385 709.371692 40.494568 709.840509 
C 40.025751 710.309326 39.762335 710.945268 39.762335 711.608276 
C 39.762335 712.271284 40.025751 712.907226 40.494568 713.376043 
C 40.963385 713.84486 41.599327 714.108276 42.262335 714.108276 
z
" clip-path="url(#pe02c668cbf)" style="fill: #6b010e; stroke: #6b010e; stroke-width: 3"/>
    <path d="M 62.307263 747.105986 
C 62.970271 747.105986 63.606213 746.84257 64.07503 746.373753 
C 64.543847 745.904936 64.807263 745.268994 64.807263 744.605986 
C 64.807263 743.942978 64.543847 743.307036 64.07503 742.838219 
C 63.606213 742.369402 62.970271 742.105986 62.307263 742.105986 
C 61.644255 742.105986 61.008313 742.369402 60.539496 742.838219 
C 60.070679 743.307036 59.807263 743.942978 59.807263 744.605986 
C 59.807263 745.268994 60.070679 745.904936 60.539496 746.373753 
C 61.008313 746.84257 61.644255 747.105986 62.307263 747.105986 
z
" clip-path="url(#pe02c668cbf)" style="fill: #6b010e; stroke: #6b010e; stroke-width: 3"/>
    <path d="M 110.7 760.774085 
C 111.363008 760.774085 111.99895 760.510669 112.467767 760.041852 
C 112.936584 759.573035 113.2 758.937093 113.2 758.274085 
C 113.2 757.611077 112.936584 756.975136 112.467767 756.506318 
C 111.99895 756.037501 111.363008 755.774085 110.7 755.774085 
C 110.036992 755.774085 109.40105 756.037501 108.932233 756.506318 
C 108.463416 756.975136 108.2 757.611077 108.2 758.274085 
C 108.2 758.937093 108.463416 759.573035 108.932233 760.041852 
C 109.40105 760.510669 110.036992 760.774085 110.7 760.774085 
z
" clip-path="url(#pe02c668cbf)" style="fill: #6b010e; stroke: #6b010e; stroke-width: 3"/>
    <path d="M 159.092737 747.105986 
C 159.755745 747.105986 160.391687 746.84257 160.860504 746.373753 
C 161.329321 745.904936 161.592737 745.268994 161.592737 744.605986 
C 161.592737 743.942978 161.329321 743.307036 160.860504 742.838219 
C 160.391687 742.369402 159.755745 742.105986 159.092737 742.105986 
C 158.429729 742.105986 157.793787 742.369402 157.32497 742.838219 
C 156.856153 743.307036 156.592737 743.942978 156.592737 744.605986 
C 156.592737 745.268994 156.856153 745.904936 157.32497 746.373753 
C 157.793787 746.84257 158.429729 747.105986 159.092737 747.105986 
z
" clip-path="url(#pe02c668cbf)" style="fill: #6b010e; stroke: #6b010e; stroke-width: 3"/>
   </g>
   <g id="matplotlib.axis_9"/>
   <g id="matplotlib.axis_10"/>
  </g>
 </g>
 <defs>
  <clipPath id="pd7145ae3fa">
   <rect x="27" y="103.68" width="167.4" height="114.703448"/>
  </clipPath>
  <clipPath id="p98f7f7e60c">
   <rect x="27" y="241.324138" width="167.4" height="114.703448"/>
  </clipPath>
  <clipPath id="peb76abfdb9">
   <rect x="27" y="378.968276" width="167.4" height="114.703448"/>
  </clipPath>
  <clipPath id="pb700000d8a">
   <rect x="27" y="516.612414" width="167.4" height="114.703448"/>
  </clipPath>
  <clipPath id="pe02c668cbf">
   <rect x="27" y="654.256552" width="167.4" height="114.703448"/>
  </clipPath>
 </defs>
</svg>
