<?xml version="1.0" encoding="utf-8" standalone="no"?>
<!DOCTYPE svg PUBLIC "-//W3C//DTD SVG 1.1//EN"
  "http://www.w3.org/Graphics/SVG/1.1/DTD/svg11.dtd">
<svg xmlns:xlink="http://www.w3.org/1999/xlink" width="72pt" height="180pt" viewBox="0 0 72 180" xmlns="http://www.w3.org/2000/svg" version="1.1">
 <metadata>
  <rdf:RDF xmlns:dc="http://purl.org/dc/elements/1.1/" xmlns:cc="http://creativecommons.org/ns#" xmlns:rdf="http://www.w3.org/1999/02/22-rdf-syntax-ns#">
   <cc:Work>
    <dc:type rdf:resource="http://purl.org/dc/dcmitype/StillImage"/>
    <dc:date>2025-06-06T13:44:41.326365</dc:date>
    <dc:format>image/svg+xml</dc:format>
    <dc:creator>
     <cc:Agent>
      <dc:title>Matplotlib v3.9.2, https://matplotlib.org/</dc:title>
     </cc:Agent>
    </dc:creator>
   </cc:Work>
  </rdf:RDF>
 </metadata>
 <defs>
  <style type="text/css">*{stroke-linejoin: round; stroke-linecap: butt}</style>
 </defs>
 <g id="figure_1">
  <g id="patch_1">
   <path d="M 0 180 
L 72 180 
L 72 0 
L 0 0 
z
" style="fill: #ffffff"/>
  </g>
  <g id="axes_1">
   <g id="patch_2">
    <path d="M 10.8 33.84 
L 61.2 33.84 
L 61.2 10.8 
L 10.8 10.8 
z
" style="fill: #ffffff"/>
   </g>
   <g id="EdgeCollection_1">
    <path d="M 57.125956 22.844452 
C 83.423139 36.214167 83.423139 8.974737 57.125956 22.344452 
C 83.423139 8.974737 83.423139 36.214167 57.125956 22.844452 
" clip-path="url(#p549868c081)" style="fill: #020202"/>
    <path d="M 56.350301 22.230315 
L 52.345335 17.974115 
" clip-path="url(#p549868c081)" style="fill: #020202"/>
    <path d="M 56.235319 22.393007 
L 38.288121 14.492695 
" clip-path="url(#p549868c081)" style="fill: #020202"/>
    <path d="M 56.201053 22.504763 
L 23.82733 16.601875 
" clip-path="url(#p549868c081)" style="fill: #020202"/>
    <path d="M 56.192943 22.594452 
L 15.807057 22.594452 
" clip-path="url(#p549868c081)" style="fill: #020202"/>
    <path d="M 56.201053 22.684142 
L 21.859769 28.945787 
" clip-path="url(#p549868c081)" style="fill: #020202"/>
    <path d="M 56.235319 22.795897 
L 36.457624 31.50199 
" clip-path="url(#p549868c081)" style="fill: #020202"/>
    <path d="M 56.350301 22.95859 
L 50.974763 28.671339 
" clip-path="url(#p549868c081)" style="fill: #020202"/>
    <path d="M 52.764581 14.848587 
C 75.367092 -0.822472 51.43718 -13.835767 50.568324 13.654243 
C 51.43718 -13.835767 75.367092 -0.822472 52.764581 14.848587 
" clip-path="url(#p549868c081)" style="fill: #020202"/>
    <path d="M 48.17267 15.704983 
L 38.45945 13.933916 
" clip-path="url(#p549868c081)" style="fill: #020202; stroke: #020202; stroke-width: 0.99"/>
    <path d="M 48.132121 16.153429 
L 23.867879 16.153429 
" clip-path="url(#p549868c081)" style="fill: #020202; stroke: #020202; stroke-width: 0.99"/>
    <path d="M 48.17267 16.601875 
L 15.798947 22.504763 
" clip-path="url(#p549868c081)" style="fill: #020202"/>
    <path d="M 48.344 17.160654 
L 21.825504 28.834031 
" clip-path="url(#p549868c081)" style="fill: #020202"/>
    <path d="M 48.918906 17.974115 
L 36.342643 31.339298 
" clip-path="url(#p549868c081)" style="fill: #020202"/>
    <path d="M 50.632121 18.653429 
L 50.632121 28.535476 
" clip-path="url(#p549868c081)" style="fill: #020202; stroke: #020202; stroke-width: 0.99"/>
    <path d="M 37.25 11.320406 
C 49.619715 -13.244726 22.380285 -13.244726 34.75 11.320406 
C 22.380285 -13.244726 49.619715 -13.244726 37.25 11.320406 
" clip-path="url(#p549868c081)" style="fill: #020202"/>
    <path d="M 33.54055 13.933916 
L 23.82733 15.704983 
" clip-path="url(#p549868c081)" style="fill: #020202; stroke: #020202; stroke-width: 0.99"/>
    <path d="M 33.711879 14.492695 
L 15.764681 22.393007 
" clip-path="url(#p549868c081)" style="fill: #020202"/>
    <path d="M 34.286786 15.306156 
L 21.710522 28.671339 
" clip-path="url(#p549868c081)" style="fill: #020202"/>
    <path d="M 36 15.98547 
L 36 31.203435 
" clip-path="url(#p549868c081)" style="fill: #020202"/>
    <path d="M 37.713214 15.306156 
L 50.289478 28.671339 
" clip-path="url(#p549868c081)" style="fill: #020202; stroke: #020202; stroke-width: 0.99"/>
    <path d="M 21.431676 13.654243 
C 20.56282 -13.835767 -3.367092 -0.822472 19.235419 14.848587 
C -3.367092 -0.822472 20.56282 -13.835767 21.431676 13.654243 
" clip-path="url(#p549868c081)" style="fill: #020202"/>
    <path d="M 19.654665 17.974115 
L 15.649699 22.230315 
" clip-path="url(#p549868c081)" style="fill: #020202"/>
    <path d="M 21.367879 18.653429 
L 21.367879 28.535476 
" clip-path="url(#p549868c081)" style="fill: #020202"/>
    <path d="M 23.081094 17.974115 
L 35.657357 31.339298 
" clip-path="url(#p549868c081)" style="fill: #020202; stroke: #020202; stroke-width: 0.99"/>
    <path d="M 23.656 17.160654 
L 50.174496 28.834031 
" clip-path="url(#p549868c081)" style="fill: #020202"/>
    <path d="M 14.874044 22.344452 
C -11.423139 8.974737 -11.423139 36.214167 14.874044 22.844452 
C -11.423139 36.214167 -11.423139 8.974737 14.874044 22.344452 
" clip-path="url(#p549868c081)" style="fill: #020202"/>
    <path d="M 15.649699 22.95859 
L 21.025237 28.671339 
" clip-path="url(#p549868c081)" style="fill: #020202"/>
    <path d="M 15.764681 22.795897 
L 35.542376 31.50199 
" clip-path="url(#p549868c081)" style="fill: #020202"/>
    <path d="M 15.798947 22.684142 
L 50.140231 28.945787 
" clip-path="url(#p549868c081)" style="fill: #020202"/>
    <path d="M 20.941387 29.296444 
C -3.367092 46.011377 20.56282 59.024672 21.380639 29.535313 
C 20.56282 59.024672 -3.367092 46.011377 20.941387 29.296444 
" clip-path="url(#p549868c081)" style="fill: #020202"/>
    <path d="M 21.859769 29.125165 
L 35.50811 31.613746 
" clip-path="url(#p549868c081)" style="fill: #020202"/>
    <path d="M 21.867879 29.035476 
L 50.132121 29.035476 
" clip-path="url(#p549868c081)" style="fill: #020202"/>
    <path d="M 35.75 32.136448 
C 22.380285 58.433631 49.619715 58.433631 36.25 32.136448 
C 49.619715 58.433631 22.380285 58.433631 35.75 32.136448 
" clip-path="url(#p549868c081)" style="fill: #020202"/>
    <path d="M 36.49189 31.613746 
L 50.140231 29.125165 
" clip-path="url(#p549868c081)" style="fill: #020202"/>
    <path d="M 50.619361 29.535313 
C 51.43718 59.024672 75.367092 46.011377 51.058613 29.296444 
C 75.367092 46.011377 51.43718 59.024672 50.619361 29.535313 
" clip-path="url(#p549868c081)" style="fill: #020202"/>
   </g>
   <g id="VertexCollection_1">
    <path d="M 56.692943 23.094452 
C 56.825545 23.094452 56.952733 23.041769 57.046497 22.948006 
C 57.14026 22.854242 57.192943 22.727054 57.192943 22.594452 
C 57.192943 22.461851 57.14026 22.334663 57.046497 22.240899 
C 56.952733 22.147136 56.825545 22.094452 56.692943 22.094452 
C 56.560342 22.094452 56.433153 22.147136 56.33939 22.240899 
C 56.245627 22.334663 56.192943 22.461851 56.192943 22.594452 
C 56.192943 22.727054 56.245627 22.854242 56.33939 22.948006 
C 56.433153 23.041769 56.560342 23.094452 56.692943 23.094452 
z
" clip-path="url(#p549868c081)" style="fill: #bebebe"/>
    <path d="M 50.632121 18.653429 
C 51.295128 18.653429 51.93107 18.390013 52.399888 17.921196 
C 52.868705 17.452379 53.132121 16.816437 53.132121 16.153429 
C 53.132121 15.490421 52.868705 14.85448 52.399888 14.385662 
C 51.93107 13.916845 51.295128 13.653429 50.632121 13.653429 
C 49.969113 13.653429 49.333171 13.916845 48.864354 14.385662 
C 48.395536 14.85448 48.132121 15.490421 48.132121 16.153429 
C 48.132121 16.816437 48.395536 17.452379 48.864354 17.921196 
C 49.333171 18.390013 49.969113 18.653429 50.632121 18.653429 
z
" clip-path="url(#p549868c081)" style="fill: #bebebe"/>
    <path d="M 36 15.98547 
C 36.663008 15.98547 37.29895 15.722054 37.767767 15.253237 
C 38.236584 14.78442 38.5 14.148478 38.5 13.48547 
C 38.5 12.822462 38.236584 12.18652 37.767767 11.717703 
C 37.29895 11.248886 36.663008 10.98547 36 10.98547 
C 35.336992 10.98547 34.70105 11.248886 34.232233 11.717703 
C 33.763416 12.18652 33.5 12.822462 33.5 13.48547 
C 33.5 14.148478 33.763416 14.78442 34.232233 15.253237 
C 34.70105 15.722054 35.336992 15.98547 36 15.98547 
z
" clip-path="url(#p549868c081)" style="fill: #bebebe"/>
    <path d="M 21.367879 18.653429 
C 22.030887 18.653429 22.666829 18.390013 23.135646 17.921196 
C 23.604464 17.452379 23.867879 16.816437 23.867879 16.153429 
C 23.867879 15.490421 23.604464 14.85448 23.135646 14.385662 
C 22.666829 13.916845 22.030887 13.653429 21.367879 13.653429 
C 20.704872 13.653429 20.06893 13.916845 19.600112 14.385662 
C 19.131295 14.85448 18.867879 15.490421 18.867879 16.153429 
C 18.867879 16.816437 19.131295 17.452379 19.600112 17.921196 
C 20.06893 18.390013 20.704872 18.653429 21.367879 18.653429 
z
" clip-path="url(#p549868c081)" style="fill: #bebebe"/>
    <path d="M 15.307057 23.094452 
C 15.439658 23.094452 15.566847 23.041769 15.66061 22.948006 
C 15.754373 22.854242 15.807057 22.727054 15.807057 22.594452 
C 15.807057 22.461851 15.754373 22.334663 15.66061 22.240899 
C 15.566847 22.147136 15.439658 22.094452 15.307057 22.094452 
C 15.174455 22.094452 15.047267 22.147136 14.953503 22.240899 
C 14.85974 22.334663 14.807057 22.461851 14.807057 22.594452 
C 14.807057 22.727054 14.85974 22.854242 14.953503 22.948006 
C 15.047267 23.041769 15.174455 23.094452 15.307057 23.094452 
z
" clip-path="url(#p549868c081)" style="fill: #bebebe"/>
    <path d="M 21.367879 29.535476 
C 21.500481 29.535476 21.627669 29.482793 21.721433 29.389029 
C 21.815196 29.295266 21.867879 29.168077 21.867879 29.035476 
C 21.867879 28.902874 21.815196 28.775686 21.721433 28.681922 
C 21.627669 28.588159 21.500481 28.535476 21.367879 28.535476 
C 21.235278 28.535476 21.108089 28.588159 21.014326 28.681922 
C 20.920563 28.775686 20.867879 28.902874 20.867879 29.035476 
C 20.867879 29.168077 20.920563 29.295266 21.014326 29.389029 
C 21.108089 29.482793 21.235278 29.535476 21.367879 29.535476 
z
" clip-path="url(#p549868c081)" style="fill: #bebebe"/>
    <path d="M 36 32.203435 
C 36.132602 32.203435 36.25979 32.150752 36.353553 32.056988 
C 36.447317 31.963225 36.5 31.836036 36.5 31.703435 
C 36.5 31.570833 36.447317 31.443645 36.353553 31.349882 
C 36.25979 31.256118 36.132602 31.203435 36 31.203435 
C 35.867398 31.203435 35.74021 31.256118 35.646447 31.349882 
C 35.552683 31.443645 35.5 31.570833 35.5 31.703435 
C 35.5 31.836036 35.552683 31.963225 35.646447 32.056988 
C 35.74021 32.150752 35.867398 32.203435 36 32.203435 
z
" clip-path="url(#p549868c081)" style="fill: #bebebe"/>
    <path d="M 50.632121 29.535476 
C 50.764722 29.535476 50.891911 29.482793 50.985674 29.389029 
C 51.079437 29.295266 51.132121 29.168077 51.132121 29.035476 
C 51.132121 28.902874 51.079437 28.775686 50.985674 28.681922 
C 50.891911 28.588159 50.764722 28.535476 50.632121 28.535476 
C 50.499519 28.535476 50.372331 28.588159 50.278567 28.681922 
C 50.184804 28.775686 50.132121 28.902874 50.132121 29.035476 
C 50.132121 29.168077 50.184804 29.295266 50.278567 29.389029 
C 50.372331 29.482793 50.499519 29.535476 50.632121 29.535476 
z
" clip-path="url(#p549868c081)" style="fill: #bebebe"/>
   </g>
   <g id="matplotlib.axis_1"/>
   <g id="matplotlib.axis_2"/>
  </g>
  <g id="axes_2">
   <g id="patch_3">
    <path d="M 10.8 67.68 
L 61.2 67.68 
L 61.2 44.64 
L 10.8 44.64 
z
" style="fill: #ffffff"/>
   </g>
   <g id="EdgeCollection_2">
    <path d="M 57.125956 56.41 
C 83.423139 69.779715 83.423139 42.540285 57.125956 55.91 
C 83.423139 42.540285 83.423139 69.779715 57.125956 56.41 
" clip-path="url(#p9fc709c963)" style="fill: #020202"/>
    <path d="M 56.345167 55.800763 
L 52.371004 51.695636 
" clip-path="url(#p9fc709c963)" style="fill: #020202"/>
    <path d="M 56.233253 55.963315 
L 38.298451 48.289668 
" clip-path="url(#p9fc709c963)" style="fill: #020202"/>
    <path d="M 56.200615 56.072746 
L 23.829519 50.335719 
" clip-path="url(#p9fc709c963)" style="fill: #020202"/>
    <path d="M 56.192943 56.16 
L 15.807057 56.16 
" clip-path="url(#p9fc709c963)" style="fill: #020202"/>
    <path d="M 56.200615 56.247254 
L 21.860207 62.333296 
" clip-path="url(#p9fc709c963)" style="fill: #020202"/>
    <path d="M 56.233253 56.356685 
L 38.298451 64.030332 
" clip-path="url(#p9fc709c963)" style="fill: #020202"/>
    <path d="M 56.345167 56.519237 
L 50.979897 62.061313 
" clip-path="url(#p9fc709c963)" style="fill: #020202"/>
    <path d="M 52.751994 48.574257 
C 75.203479 32.687583 51.15011 19.903922 50.544407 47.400989 
C 51.15011 19.903922 75.203479 32.687583 52.751994 48.574257 
" clip-path="url(#p9fc709c963)" style="fill: #020202"/>
    <path d="M 48.170481 49.463181 
L 38.46164 47.742514 
" clip-path="url(#p9fc709c963)" style="fill: #020202; stroke: #020202; stroke-width: 0.99"/>
    <path d="M 48.132121 49.89945 
L 23.867879 49.89945 
" clip-path="url(#p9fc709c963)" style="fill: #020202; stroke: #020202; stroke-width: 0.99"/>
    <path d="M 48.170481 50.335719 
L 15.799385 56.072746 
" clip-path="url(#p9fc709c963)" style="fill: #020202"/>
    <path d="M 48.333669 50.882873 
L 21.82757 62.223865 
" clip-path="url(#p9fc709c963)" style="fill: #020202"/>
    <path d="M 48.893237 51.695636 
L 37.738883 63.217569 
" clip-path="url(#p9fc709c963)" style="fill: #020202; stroke: #020202; stroke-width: 0.99"/>
    <path d="M 50.632121 52.39945 
L 50.632121 61.92055 
" clip-path="url(#p9fc709c963)" style="fill: #020202"/>
    <path d="M 37.25 45.141182 
C 49.619715 20.576049 22.380285 20.576049 34.75 45.141182 
C 22.380285 20.576049 49.619715 20.576049 37.25 45.141182 
" clip-path="url(#p9fc709c963)" style="fill: #020202"/>
    <path d="M 33.53836 47.742514 
L 23.829519 49.463181 
" clip-path="url(#p9fc709c963)" style="fill: #020202; stroke: #020202; stroke-width: 0.99"/>
    <path d="M 33.701549 48.289668 
L 15.766747 55.963315 
" clip-path="url(#p9fc709c963)" style="fill: #020202"/>
    <path d="M 34.261117 49.102431 
L 21.715656 62.061313 
" clip-path="url(#p9fc709c963)" style="fill: #020202"/>
    <path d="M 36 49.806245 
L 36 62.513755 
" clip-path="url(#p9fc709c963)" style="fill: #020202; stroke: #020202; stroke-width: 0.99"/>
    <path d="M 37.738883 49.102431 
L 50.284344 62.061313 
" clip-path="url(#p9fc709c963)" style="fill: #020202"/>
    <path d="M 21.455593 47.400989 
C 20.84989 19.903922 -3.203479 32.687583 19.248006 48.574257 
C -3.203479 32.687583 20.84989 19.903922 21.455593 47.400989 
" clip-path="url(#p9fc709c963)" style="fill: #020202"/>
    <path d="M 19.628996 51.695636 
L 15.654833 55.800763 
" clip-path="url(#p9fc709c963)" style="fill: #020202"/>
    <path d="M 21.367879 52.39945 
L 21.367879 61.92055 
" clip-path="url(#p9fc709c963)" style="fill: #020202"/>
    <path d="M 23.106763 51.695636 
L 34.261117 63.217569 
" clip-path="url(#p9fc709c963)" style="fill: #020202; stroke: #020202; stroke-width: 0.99"/>
    <path d="M 23.666331 50.882873 
L 50.17243 62.223865 
" clip-path="url(#p9fc709c963)" style="fill: #020202"/>
    <path d="M 14.874044 55.91 
C -11.423139 42.540285 -11.423139 69.779715 14.874044 56.41 
C -11.423139 69.779715 -11.423139 42.540285 14.874044 55.91 
" clip-path="url(#p9fc709c963)" style="fill: #020202"/>
    <path d="M 15.654833 56.519237 
L 21.020103 62.061313 
" clip-path="url(#p9fc709c963)" style="fill: #020202"/>
    <path d="M 15.766747 56.356685 
L 33.701549 64.030332 
" clip-path="url(#p9fc709c963)" style="fill: #020202"/>
    <path d="M 15.799385 56.247254 
L 50.139793 62.333296 
" clip-path="url(#p9fc709c963)" style="fill: #020202"/>
    <path d="M 20.943905 62.685589 
C -3.203479 79.632417 20.84989 92.416078 21.385422 62.920242 
C 20.84989 92.416078 -3.203479 79.632417 20.943905 62.685589 
" clip-path="url(#p9fc709c963)" style="fill: #020202"/>
    <path d="M 21.860207 62.507804 
L 33.53836 64.577486 
" clip-path="url(#p9fc709c963)" style="fill: #020202"/>
    <path d="M 21.867879 62.42055 
L 50.132121 62.42055 
" clip-path="url(#p9fc709c963)" style="fill: #020202"/>
    <path d="M 34.75 67.178818 
C 22.380285 91.743951 49.619715 91.743951 37.25 67.178818 
C 49.619715 91.743951 22.380285 91.743951 34.75 67.178818 
" clip-path="url(#p9fc709c963)" style="fill: #020202"/>
    <path d="M 38.46164 64.577486 
L 50.139793 62.507804 
" clip-path="url(#p9fc709c963)" style="fill: #020202"/>
    <path d="M 50.614578 62.920242 
C 51.15011 92.416078 75.203479 79.632417 51.056095 62.685589 
C 75.203479 79.632417 51.15011 92.416078 50.614578 62.920242 
" clip-path="url(#p9fc709c963)" style="fill: #020202"/>
   </g>
   <g id="VertexCollection_2">
    <path d="M 56.692943 56.66 
C 56.825545 56.66 56.952733 56.607317 57.046497 56.513553 
C 57.14026 56.41979 57.192943 56.292602 57.192943 56.16 
C 57.192943 56.027398 57.14026 55.90021 57.046497 55.806447 
C 56.952733 55.712683 56.825545 55.66 56.692943 55.66 
C 56.560342 55.66 56.433153 55.712683 56.33939 55.806447 
C 56.245627 55.90021 56.192943 56.027398 56.192943 56.16 
C 56.192943 56.292602 56.245627 56.41979 56.33939 56.513553 
C 56.433153 56.607317 56.560342 56.66 56.692943 56.66 
z
" clip-path="url(#p9fc709c963)" style="fill: #bebebe"/>
    <path d="M 50.632121 52.39945 
C 51.295128 52.39945 51.93107 52.136034 52.399888 51.667217 
C 52.868705 51.1984 53.132121 50.562458 53.132121 49.89945 
C 53.132121 49.236442 52.868705 48.6005 52.399888 48.131683 
C 51.93107 47.662866 51.295128 47.39945 50.632121 47.39945 
C 49.969113 47.39945 49.333171 47.662866 48.864354 48.131683 
C 48.395536 48.6005 48.132121 49.236442 48.132121 49.89945 
C 48.132121 50.562458 48.395536 51.1984 48.864354 51.667217 
C 49.333171 52.136034 49.969113 52.39945 50.632121 52.39945 
z
" clip-path="url(#p9fc709c963)" style="fill: #bebebe"/>
    <path d="M 36 49.806245 
C 36.663008 49.806245 37.29895 49.542829 37.767767 49.074012 
C 38.236584 48.605195 38.5 47.969253 38.5 47.306245 
C 38.5 46.643237 38.236584 46.007295 37.767767 45.538478 
C 37.29895 45.069661 36.663008 44.806245 36 44.806245 
C 35.336992 44.806245 34.70105 45.069661 34.232233 45.538478 
C 33.763416 46.007295 33.5 46.643237 33.5 47.306245 
C 33.5 47.969253 33.763416 48.605195 34.232233 49.074012 
C 34.70105 49.542829 35.336992 49.806245 36 49.806245 
z
" clip-path="url(#p9fc709c963)" style="fill: #bebebe"/>
    <path d="M 21.367879 52.39945 
C 22.030887 52.39945 22.666829 52.136034 23.135646 51.667217 
C 23.604464 51.1984 23.867879 50.562458 23.867879 49.89945 
C 23.867879 49.236442 23.604464 48.6005 23.135646 48.131683 
C 22.666829 47.662866 22.030887 47.39945 21.367879 47.39945 
C 20.704872 47.39945 20.06893 47.662866 19.600112 48.131683 
C 19.131295 48.6005 18.867879 49.236442 18.867879 49.89945 
C 18.867879 50.562458 19.131295 51.1984 19.600112 51.667217 
C 20.06893 52.136034 20.704872 52.39945 21.367879 52.39945 
z
" clip-path="url(#p9fc709c963)" style="fill: #bebebe"/>
    <path d="M 15.307057 56.66 
C 15.439658 56.66 15.566847 56.607317 15.66061 56.513553 
C 15.754373 56.41979 15.807057 56.292602 15.807057 56.16 
C 15.807057 56.027398 15.754373 55.90021 15.66061 55.806447 
C 15.566847 55.712683 15.439658 55.66 15.307057 55.66 
C 15.174455 55.66 15.047267 55.712683 14.953503 55.806447 
C 14.85974 55.90021 14.807057 56.027398 14.807057 56.16 
C 14.807057 56.292602 14.85974 56.41979 14.953503 56.513553 
C 15.047267 56.607317 15.174455 56.66 15.307057 56.66 
z
" clip-path="url(#p9fc709c963)" style="fill: #bebebe"/>
    <path d="M 21.367879 62.92055 
C 21.500481 62.92055 21.627669 62.867867 21.721433 62.774104 
C 21.815196 62.68034 21.867879 62.553152 21.867879 62.42055 
C 21.867879 62.287949 21.815196 62.16076 21.721433 62.066997 
C 21.627669 61.973233 21.500481 61.92055 21.367879 61.92055 
C 21.235278 61.92055 21.108089 61.973233 21.014326 62.066997 
C 20.920563 62.16076 20.867879 62.287949 20.867879 62.42055 
C 20.867879 62.553152 20.920563 62.68034 21.014326 62.774104 
C 21.108089 62.867867 21.235278 62.92055 21.367879 62.92055 
z
" clip-path="url(#p9fc709c963)" style="fill: #bebebe"/>
    <path d="M 36 67.513755 
C 36.663008 67.513755 37.29895 67.250339 37.767767 66.781522 
C 38.236584 66.312705 38.5 65.676763 38.5 65.013755 
C 38.5 64.350747 38.236584 63.714805 37.767767 63.245988 
C 37.29895 62.777171 36.663008 62.513755 36 62.513755 
C 35.336992 62.513755 34.70105 62.777171 34.232233 63.245988 
C 33.763416 63.714805 33.5 64.350747 33.5 65.013755 
C 33.5 65.676763 33.763416 66.312705 34.232233 66.781522 
C 34.70105 67.250339 35.336992 67.513755 36 67.513755 
z
" clip-path="url(#p9fc709c963)" style="fill: #bebebe"/>
    <path d="M 50.632121 62.92055 
C 50.764722 62.92055 50.891911 62.867867 50.985674 62.774104 
C 51.079437 62.68034 51.132121 62.553152 51.132121 62.42055 
C 51.132121 62.287949 51.079437 62.16076 50.985674 62.066997 
C 50.891911 61.973233 50.764722 61.92055 50.632121 61.92055 
C 50.499519 61.92055 50.372331 61.973233 50.278567 62.066997 
C 50.184804 62.16076 50.132121 62.287949 50.132121 62.42055 
C 50.132121 62.553152 50.184804 62.68034 50.278567 62.774104 
C 50.372331 62.867867 50.499519 62.92055 50.632121 62.92055 
z
" clip-path="url(#p9fc709c963)" style="fill: #bebebe"/>
   </g>
   <g id="matplotlib.axis_3"/>
   <g id="matplotlib.axis_4"/>
  </g>
  <g id="axes_3">
   <g id="patch_4">
    <path d="M 10.8 101.52 
L 61.2 101.52 
L 61.2 78.48 
L 10.8 78.48 
z
" style="fill: #ffffff"/>
   </g>
   <g id="EdgeCollection_3">
    <path d="M 57.125956 90.25 
C 83.423139 103.619715 83.423139 76.380285 57.125956 89.75 
C 83.423139 76.380285 83.423139 103.619715 57.125956 90.25 
" clip-path="url(#p2a3df1cef1)" style="fill: #020202"/>
    <path d="M 56.345167 89.640763 
L 50.979897 84.098687 
" clip-path="url(#p2a3df1cef1)" style="fill: #020202"/>
    <path d="M 56.233253 89.803315 
L 38.298451 82.129668 
" clip-path="url(#p2a3df1cef1)" style="fill: #020202"/>
    <path d="M 56.200615 89.912746 
L 23.829519 84.175719 
" clip-path="url(#p2a3df1cef1)" style="fill: #020202"/>
    <path d="M 56.192943 90 
L 15.807057 90 
" clip-path="url(#p2a3df1cef1)" style="fill: #020202"/>
    <path d="M 56.200615 90.087254 
L 21.860207 96.173296 
" clip-path="url(#p2a3df1cef1)" style="fill: #020202"/>
    <path d="M 56.233253 90.196685 
L 38.298451 97.870332 
" clip-path="url(#p2a3df1cef1)" style="fill: #020202"/>
    <path d="M 56.345167 90.359237 
L 50.979897 95.901313 
" clip-path="url(#p2a3df1cef1)" style="fill: #020202"/>
    <path d="M 51.056095 83.474411 
C 75.203479 66.527583 51.15011 53.743922 50.614578 83.239758 
C 51.15011 53.743922 75.203479 66.527583 51.056095 83.474411 
" clip-path="url(#p2a3df1cef1)" style="fill: #020202"/>
    <path d="M 50.139793 83.652196 
L 38.46164 81.582514 
" clip-path="url(#p2a3df1cef1)" style="fill: #020202; stroke: #020202; stroke-width: 0.99"/>
    <path d="M 50.132121 83.73945 
L 23.867879 83.73945 
" clip-path="url(#p2a3df1cef1)" style="fill: #020202; stroke: #020202; stroke-width: 0.99"/>
    <path d="M 50.139793 83.826704 
L 15.799385 89.912746 
" clip-path="url(#p2a3df1cef1)" style="fill: #020202"/>
    <path d="M 50.17243 83.936135 
L 21.82757 96.063865 
" clip-path="url(#p2a3df1cef1)" style="fill: #020202"/>
    <path d="M 50.284344 84.098687 
L 37.738883 97.057569 
" clip-path="url(#p2a3df1cef1)" style="fill: #020202"/>
    <path d="M 50.632121 84.23945 
L 50.632121 95.76055 
" clip-path="url(#p2a3df1cef1)" style="fill: #020202"/>
    <path d="M 37.25 78.981182 
C 49.619715 54.416049 22.380285 54.416049 34.75 78.981182 
C 22.380285 54.416049 49.619715 54.416049 37.25 78.981182 
" clip-path="url(#p2a3df1cef1)" style="fill: #020202"/>
    <path d="M 33.53836 81.582514 
L 23.829519 83.303181 
" clip-path="url(#p2a3df1cef1)" style="fill: #020202; stroke: #020202; stroke-width: 0.99"/>
    <path d="M 33.701549 82.129668 
L 15.766747 89.803315 
" clip-path="url(#p2a3df1cef1)" style="fill: #020202"/>
    <path d="M 34.261117 82.942431 
L 21.715656 95.901313 
" clip-path="url(#p2a3df1cef1)" style="fill: #020202"/>
    <path d="M 36 83.646245 
L 36 96.353755 
" clip-path="url(#p2a3df1cef1)" style="fill: #020202; stroke: #020202; stroke-width: 0.99"/>
    <path d="M 37.738883 82.942431 
L 50.284344 95.901313 
" clip-path="url(#p2a3df1cef1)" style="fill: #020202"/>
    <path d="M 21.455593 81.240989 
C 20.84989 53.743922 -3.203479 66.527583 19.248006 82.414257 
C -3.203479 66.527583 20.84989 53.743922 21.455593 81.240989 
" clip-path="url(#p2a3df1cef1)" style="fill: #020202"/>
    <path d="M 19.628996 85.535636 
L 15.654833 89.640763 
" clip-path="url(#p2a3df1cef1)" style="fill: #020202"/>
    <path d="M 21.367879 86.23945 
L 21.367879 95.76055 
" clip-path="url(#p2a3df1cef1)" style="fill: #020202"/>
    <path d="M 23.106763 85.535636 
L 34.261117 97.057569 
" clip-path="url(#p2a3df1cef1)" style="fill: #020202; stroke: #020202; stroke-width: 0.99"/>
    <path d="M 23.666331 84.722873 
L 50.17243 96.063865 
" clip-path="url(#p2a3df1cef1)" style="fill: #020202"/>
    <path d="M 14.874044 89.75 
C -11.423139 76.380285 -11.423139 103.619715 14.874044 90.25 
C -11.423139 103.619715 -11.423139 76.380285 14.874044 89.75 
" clip-path="url(#p2a3df1cef1)" style="fill: #020202"/>
    <path d="M 15.654833 90.359237 
L 21.020103 95.901313 
" clip-path="url(#p2a3df1cef1)" style="fill: #020202"/>
    <path d="M 15.766747 90.196685 
L 33.701549 97.870332 
" clip-path="url(#p2a3df1cef1)" style="fill: #020202"/>
    <path d="M 15.799385 90.087254 
L 50.139793 96.173296 
" clip-path="url(#p2a3df1cef1)" style="fill: #020202"/>
    <path d="M 20.943905 96.525589 
C -3.203479 113.472417 20.84989 126.256078 21.385422 96.760242 
C 20.84989 126.256078 -3.203479 113.472417 20.943905 96.525589 
" clip-path="url(#p2a3df1cef1)" style="fill: #020202"/>
    <path d="M 21.860207 96.347804 
L 33.53836 98.417486 
" clip-path="url(#p2a3df1cef1)" style="fill: #020202; stroke: #020202; stroke-width: 0.99"/>
    <path d="M 21.867879 96.26055 
L 50.132121 96.26055 
" clip-path="url(#p2a3df1cef1)" style="fill: #020202"/>
    <path d="M 34.75 101.018818 
C 22.380285 125.583951 49.619715 125.583951 37.25 101.018818 
C 49.619715 125.583951 22.380285 125.583951 34.75 101.018818 
" clip-path="url(#p2a3df1cef1)" style="fill: #020202"/>
    <path d="M 38.46164 98.417486 
L 50.139793 96.347804 
" clip-path="url(#p2a3df1cef1)" style="fill: #020202"/>
    <path d="M 50.614578 96.760242 
C 51.15011 126.256078 75.203479 113.472417 51.056095 96.525589 
C 75.203479 113.472417 51.15011 126.256078 50.614578 96.760242 
" clip-path="url(#p2a3df1cef1)" style="fill: #020202"/>
   </g>
   <g id="VertexCollection_3">
    <path d="M 56.692943 90.5 
C 56.825545 90.5 56.952733 90.447317 57.046497 90.353553 
C 57.14026 90.25979 57.192943 90.132602 57.192943 90 
C 57.192943 89.867398 57.14026 89.74021 57.046497 89.646447 
C 56.952733 89.552683 56.825545 89.5 56.692943 89.5 
C 56.560342 89.5 56.433153 89.552683 56.33939 89.646447 
C 56.245627 89.74021 56.192943 89.867398 56.192943 90 
C 56.192943 90.132602 56.245627 90.25979 56.33939 90.353553 
C 56.433153 90.447317 56.560342 90.5 56.692943 90.5 
z
" clip-path="url(#p2a3df1cef1)" style="fill: #bebebe"/>
    <path d="M 50.632121 84.23945 
C 50.764722 84.23945 50.891911 84.186767 50.985674 84.093003 
C 51.079437 83.99924 51.132121 83.872051 51.132121 83.73945 
C 51.132121 83.606848 51.079437 83.47966 50.985674 83.385896 
C 50.891911 83.292133 50.764722 83.23945 50.632121 83.23945 
C 50.499519 83.23945 50.372331 83.292133 50.278567 83.385896 
C 50.184804 83.47966 50.132121 83.606848 50.132121 83.73945 
C 50.132121 83.872051 50.184804 83.99924 50.278567 84.093003 
C 50.372331 84.186767 50.499519 84.23945 50.632121 84.23945 
z
" clip-path="url(#p2a3df1cef1)" style="fill: #bebebe"/>
    <path d="M 36 83.646245 
C 36.663008 83.646245 37.29895 83.382829 37.767767 82.914012 
C 38.236584 82.445195 38.5 81.809253 38.5 81.146245 
C 38.5 80.483237 38.236584 79.847295 37.767767 79.378478 
C 37.29895 78.909661 36.663008 78.646245 36 78.646245 
C 35.336992 78.646245 34.70105 78.909661 34.232233 79.378478 
C 33.763416 79.847295 33.5 80.483237 33.5 81.146245 
C 33.5 81.809253 33.763416 82.445195 34.232233 82.914012 
C 34.70105 83.382829 35.336992 83.646245 36 83.646245 
z
" clip-path="url(#p2a3df1cef1)" style="fill: #bebebe"/>
    <path d="M 21.367879 86.23945 
C 22.030887 86.23945 22.666829 85.976034 23.135646 85.507217 
C 23.604464 85.0384 23.867879 84.402458 23.867879 83.73945 
C 23.867879 83.076442 23.604464 82.4405 23.135646 81.971683 
C 22.666829 81.502866 22.030887 81.23945 21.367879 81.23945 
C 20.704872 81.23945 20.06893 81.502866 19.600112 81.971683 
C 19.131295 82.4405 18.867879 83.076442 18.867879 83.73945 
C 18.867879 84.402458 19.131295 85.0384 19.600112 85.507217 
C 20.06893 85.976034 20.704872 86.23945 21.367879 86.23945 
z
" clip-path="url(#p2a3df1cef1)" style="fill: #bebebe"/>
    <path d="M 15.307057 90.5 
C 15.439658 90.5 15.566847 90.447317 15.66061 90.353553 
C 15.754373 90.25979 15.807057 90.132602 15.807057 90 
C 15.807057 89.867398 15.754373 89.74021 15.66061 89.646447 
C 15.566847 89.552683 15.439658 89.5 15.307057 89.5 
C 15.174455 89.5 15.047267 89.552683 14.953503 89.646447 
C 14.85974 89.74021 14.807057 89.867398 14.807057 90 
C 14.807057 90.132602 14.85974 90.25979 14.953503 90.353553 
C 15.047267 90.447317 15.174455 90.5 15.307057 90.5 
z
" clip-path="url(#p2a3df1cef1)" style="fill: #bebebe"/>
    <path d="M 21.367879 96.76055 
C 21.500481 96.76055 21.627669 96.707867 21.721433 96.614104 
C 21.815196 96.52034 21.867879 96.393152 21.867879 96.26055 
C 21.867879 96.127949 21.815196 96.00076 21.721433 95.906997 
C 21.627669 95.813233 21.500481 95.76055 21.367879 95.76055 
C 21.235278 95.76055 21.108089 95.813233 21.014326 95.906997 
C 20.920563 96.00076 20.867879 96.127949 20.867879 96.26055 
C 20.867879 96.393152 20.920563 96.52034 21.014326 96.614104 
C 21.108089 96.707867 21.235278 96.76055 21.367879 96.76055 
z
" clip-path="url(#p2a3df1cef1)" style="fill: #bebebe"/>
    <path d="M 36 101.353755 
C 36.663008 101.353755 37.29895 101.090339 37.767767 100.621522 
C 38.236584 100.152705 38.5 99.516763 38.5 98.853755 
C 38.5 98.190747 38.236584 97.554805 37.767767 97.085988 
C 37.29895 96.617171 36.663008 96.353755 36 96.353755 
C 35.336992 96.353755 34.70105 96.617171 34.232233 97.085988 
C 33.763416 97.554805 33.5 98.190747 33.5 98.853755 
C 33.5 99.516763 33.763416 100.152705 34.232233 100.621522 
C 34.70105 101.090339 35.336992 101.353755 36 101.353755 
z
" clip-path="url(#p2a3df1cef1)" style="fill: #bebebe"/>
    <path d="M 50.632121 96.76055 
C 50.764722 96.76055 50.891911 96.707867 50.985674 96.614104 
C 51.079437 96.52034 51.132121 96.393152 51.132121 96.26055 
C 51.132121 96.127949 51.079437 96.00076 50.985674 95.906997 
C 50.891911 95.813233 50.764722 95.76055 50.632121 95.76055 
C 50.499519 95.76055 50.372331 95.813233 50.278567 95.906997 
C 50.184804 96.00076 50.132121 96.127949 50.132121 96.26055 
C 50.132121 96.393152 50.184804 96.52034 50.278567 96.614104 
C 50.372331 96.707867 50.499519 96.76055 50.632121 96.76055 
z
" clip-path="url(#p2a3df1cef1)" style="fill: #bebebe"/>
   </g>
   <g id="matplotlib.axis_5"/>
   <g id="matplotlib.axis_6"/>
  </g>
  <g id="axes_4">
   <g id="patch_5">
    <path d="M 10.8 135.36 
L 61.2 135.36 
L 61.2 112.32 
L 10.8 112.32 
z
" style="fill: #ffffff"/>
   </g>
   <g id="EdgeCollection_4">
    <path d="M 57.125956 124.09 
C 83.423139 137.459715 83.423139 110.220285 57.125956 123.59 
C 83.423139 110.220285 83.423139 137.459715 57.125956 124.09 
" clip-path="url(#pc882c01af6)" style="fill: #020202"/>
    <path d="M 56.345167 123.480763 
L 50.979897 117.938687 
" clip-path="url(#pc882c01af6)" style="fill: #020202"/>
    <path d="M 56.233253 123.643315 
L 38.298451 115.969668 
" clip-path="url(#pc882c01af6)" style="fill: #020202"/>
    <path d="M 56.200615 123.752746 
L 23.829519 118.015719 
" clip-path="url(#pc882c01af6)" style="fill: #020202"/>
    <path d="M 56.192943 123.84 
L 15.807057 123.84 
" clip-path="url(#pc882c01af6)" style="fill: #020202"/>
    <path d="M 56.200615 123.927254 
L 21.860207 130.013296 
" clip-path="url(#pc882c01af6)" style="fill: #020202"/>
    <path d="M 56.233253 124.036685 
L 38.298451 131.710332 
" clip-path="url(#pc882c01af6)" style="fill: #020202"/>
    <path d="M 56.345167 124.199237 
L 50.979897 129.741313 
" clip-path="url(#pc882c01af6)" style="fill: #020202"/>
    <path d="M 51.056095 117.314411 
C 75.203479 100.367583 51.15011 87.583922 50.614578 117.079758 
C 51.15011 87.583922 75.203479 100.367583 51.056095 117.314411 
" clip-path="url(#pc882c01af6)" style="fill: #020202"/>
    <path d="M 50.139793 117.492196 
L 38.46164 115.422514 
" clip-path="url(#pc882c01af6)" style="fill: #020202; stroke: #020202; stroke-width: 0.99"/>
    <path d="M 50.132121 117.57945 
L 23.867879 117.57945 
" clip-path="url(#pc882c01af6)" style="fill: #020202; stroke: #020202; stroke-width: 0.99"/>
    <path d="M 50.139793 117.666704 
L 15.799385 123.752746 
" clip-path="url(#pc882c01af6)" style="fill: #020202"/>
    <path d="M 50.17243 117.776135 
L 21.82757 129.903865 
" clip-path="url(#pc882c01af6)" style="fill: #020202"/>
    <path d="M 50.284344 117.938687 
L 37.738883 130.897569 
" clip-path="url(#pc882c01af6)" style="fill: #020202"/>
    <path d="M 50.632121 118.07945 
L 50.632121 129.60055 
" clip-path="url(#pc882c01af6)" style="fill: #020202"/>
    <path d="M 37.25 112.821182 
C 49.619715 88.256049 22.380285 88.256049 34.75 112.821182 
C 22.380285 88.256049 49.619715 88.256049 37.25 112.821182 
" clip-path="url(#pc882c01af6)" style="fill: #020202"/>
    <path d="M 33.53836 115.422514 
L 23.829519 117.143181 
" clip-path="url(#pc882c01af6)" style="fill: #020202; stroke: #020202; stroke-width: 0.99"/>
    <path d="M 33.701549 115.969668 
L 15.766747 123.643315 
" clip-path="url(#pc882c01af6)" style="fill: #020202"/>
    <path d="M 34.261117 116.782431 
L 21.715656 129.741313 
" clip-path="url(#pc882c01af6)" style="fill: #020202"/>
    <path d="M 36 117.486245 
L 36 130.193755 
" clip-path="url(#pc882c01af6)" style="fill: #020202; stroke: #020202; stroke-width: 0.99"/>
    <path d="M 37.738883 116.782431 
L 50.284344 129.741313 
" clip-path="url(#pc882c01af6)" style="fill: #020202"/>
    <path d="M 21.455593 115.080989 
C 20.84989 87.583922 -3.203479 100.367583 19.248006 116.254257 
C -3.203479 100.367583 20.84989 87.583922 21.455593 115.080989 
" clip-path="url(#pc882c01af6)" style="fill: #020202"/>
    <path d="M 19.628996 119.375636 
L 15.654833 123.480763 
" clip-path="url(#pc882c01af6)" style="fill: #020202"/>
    <path d="M 21.367879 120.07945 
L 21.367879 129.60055 
" clip-path="url(#pc882c01af6)" style="fill: #020202"/>
    <path d="M 23.106763 119.375636 
L 34.261117 130.897569 
" clip-path="url(#pc882c01af6)" style="fill: #020202; stroke: #020202; stroke-width: 0.99"/>
    <path d="M 23.666331 118.562873 
L 50.17243 129.903865 
" clip-path="url(#pc882c01af6)" style="fill: #020202"/>
    <path d="M 14.874044 123.59 
C -11.423139 110.220285 -11.423139 137.459715 14.874044 124.09 
C -11.423139 137.459715 -11.423139 110.220285 14.874044 123.59 
" clip-path="url(#pc882c01af6)" style="fill: #020202"/>
    <path d="M 15.654833 124.199237 
L 21.020103 129.741313 
" clip-path="url(#pc882c01af6)" style="fill: #020202"/>
    <path d="M 15.766747 124.036685 
L 33.701549 131.710332 
" clip-path="url(#pc882c01af6)" style="fill: #020202"/>
    <path d="M 15.799385 123.927254 
L 50.139793 130.013296 
" clip-path="url(#pc882c01af6)" style="fill: #020202"/>
    <path d="M 20.943905 130.365589 
C -3.203479 147.312417 20.84989 160.096078 21.385422 130.600242 
C 20.84989 160.096078 -3.203479 147.312417 20.943905 130.365589 
" clip-path="url(#pc882c01af6)" style="fill: #020202"/>
    <path d="M 21.860207 130.187804 
L 33.53836 132.257486 
" clip-path="url(#pc882c01af6)" style="fill: #020202; stroke: #020202; stroke-width: 0.99"/>
    <path d="M 21.867879 130.10055 
L 50.132121 130.10055 
" clip-path="url(#pc882c01af6)" style="fill: #020202"/>
    <path d="M 34.75 134.858818 
C 22.380285 159.423951 49.619715 159.423951 37.25 134.858818 
C 49.619715 159.423951 22.380285 159.423951 34.75 134.858818 
" clip-path="url(#pc882c01af6)" style="fill: #020202"/>
    <path d="M 38.46164 132.257486 
L 50.139793 130.187804 
" clip-path="url(#pc882c01af6)" style="fill: #020202"/>
    <path d="M 50.614578 130.600242 
C 51.15011 160.096078 75.203479 147.312417 51.056095 130.365589 
C 75.203479 147.312417 51.15011 160.096078 50.614578 130.600242 
" clip-path="url(#pc882c01af6)" style="fill: #020202"/>
   </g>
   <g id="VertexCollection_4">
    <path d="M 56.692943 124.34 
C 56.825545 124.34 56.952733 124.287317 57.046497 124.193553 
C 57.14026 124.09979 57.192943 123.972602 57.192943 123.84 
C 57.192943 123.707398 57.14026 123.58021 57.046497 123.486447 
C 56.952733 123.392683 56.825545 123.34 56.692943 123.34 
C 56.560342 123.34 56.433153 123.392683 56.33939 123.486447 
C 56.245627 123.58021 56.192943 123.707398 56.192943 123.84 
C 56.192943 123.972602 56.245627 124.09979 56.33939 124.193553 
C 56.433153 124.287317 56.560342 124.34 56.692943 124.34 
z
" clip-path="url(#pc882c01af6)" style="fill: #bebebe"/>
    <path d="M 50.632121 118.07945 
C 50.764722 118.07945 50.891911 118.026767 50.985674 117.933003 
C 51.079437 117.83924 51.132121 117.712051 51.132121 117.57945 
C 51.132121 117.446848 51.079437 117.31966 50.985674 117.225896 
C 50.891911 117.132133 50.764722 117.07945 50.632121 117.07945 
C 50.499519 117.07945 50.372331 117.132133 50.278567 117.225896 
C 50.184804 117.31966 50.132121 117.446848 50.132121 117.57945 
C 50.132121 117.712051 50.184804 117.83924 50.278567 117.933003 
C 50.372331 118.026767 50.499519 118.07945 50.632121 118.07945 
z
" clip-path="url(#pc882c01af6)" style="fill: #bebebe"/>
    <path d="M 36 117.486245 
C 36.663008 117.486245 37.29895 117.222829 37.767767 116.754012 
C 38.236584 116.285195 38.5 115.649253 38.5 114.986245 
C 38.5 114.323237 38.236584 113.687295 37.767767 113.218478 
C 37.29895 112.749661 36.663008 112.486245 36 112.486245 
C 35.336992 112.486245 34.70105 112.749661 34.232233 113.218478 
C 33.763416 113.687295 33.5 114.323237 33.5 114.986245 
C 33.5 115.649253 33.763416 116.285195 34.232233 116.754012 
C 34.70105 117.222829 35.336992 117.486245 36 117.486245 
z
" clip-path="url(#pc882c01af6)" style="fill: #bebebe"/>
    <path d="M 21.367879 120.07945 
C 22.030887 120.07945 22.666829 119.816034 23.135646 119.347217 
C 23.604464 118.8784 23.867879 118.242458 23.867879 117.57945 
C 23.867879 116.916442 23.604464 116.2805 23.135646 115.811683 
C 22.666829 115.342866 22.030887 115.07945 21.367879 115.07945 
C 20.704872 115.07945 20.06893 115.342866 19.600112 115.811683 
C 19.131295 116.2805 18.867879 116.916442 18.867879 117.57945 
C 18.867879 118.242458 19.131295 118.8784 19.600112 119.347217 
C 20.06893 119.816034 20.704872 120.07945 21.367879 120.07945 
z
" clip-path="url(#pc882c01af6)" style="fill: #bebebe"/>
    <path d="M 15.307057 124.34 
C 15.439658 124.34 15.566847 124.287317 15.66061 124.193553 
C 15.754373 124.09979 15.807057 123.972602 15.807057 123.84 
C 15.807057 123.707398 15.754373 123.58021 15.66061 123.486447 
C 15.566847 123.392683 15.439658 123.34 15.307057 123.34 
C 15.174455 123.34 15.047267 123.392683 14.953503 123.486447 
C 14.85974 123.58021 14.807057 123.707398 14.807057 123.84 
C 14.807057 123.972602 14.85974 124.09979 14.953503 124.193553 
C 15.047267 124.287317 15.174455 124.34 15.307057 124.34 
z
" clip-path="url(#pc882c01af6)" style="fill: #bebebe"/>
    <path d="M 21.367879 130.60055 
C 21.500481 130.60055 21.627669 130.547867 21.721433 130.454104 
C 21.815196 130.36034 21.867879 130.233152 21.867879 130.10055 
C 21.867879 129.967949 21.815196 129.84076 21.721433 129.746997 
C 21.627669 129.653233 21.500481 129.60055 21.367879 129.60055 
C 21.235278 129.60055 21.108089 129.653233 21.014326 129.746997 
C 20.920563 129.84076 20.867879 129.967949 20.867879 130.10055 
C 20.867879 130.233152 20.920563 130.36034 21.014326 130.454104 
C 21.108089 130.547867 21.235278 130.60055 21.367879 130.60055 
z
" clip-path="url(#pc882c01af6)" style="fill: #bebebe"/>
    <path d="M 36 135.193755 
C 36.663008 135.193755 37.29895 134.930339 37.767767 134.461522 
C 38.236584 133.992705 38.5 133.356763 38.5 132.693755 
C 38.5 132.030747 38.236584 131.394805 37.767767 130.925988 
C 37.29895 130.457171 36.663008 130.193755 36 130.193755 
C 35.336992 130.193755 34.70105 130.457171 34.232233 130.925988 
C 33.763416 131.394805 33.5 132.030747 33.5 132.693755 
C 33.5 133.356763 33.763416 133.992705 34.232233 134.461522 
C 34.70105 134.930339 35.336992 135.193755 36 135.193755 
z
" clip-path="url(#pc882c01af6)" style="fill: #bebebe"/>
    <path d="M 50.632121 130.60055 
C 50.764722 130.60055 50.891911 130.547867 50.985674 130.454104 
C 51.079437 130.36034 51.132121 130.233152 51.132121 130.10055 
C 51.132121 129.967949 51.079437 129.84076 50.985674 129.746997 
C 50.891911 129.653233 50.764722 129.60055 50.632121 129.60055 
C 50.499519 129.60055 50.372331 129.653233 50.278567 129.746997 
C 50.184804 129.84076 50.132121 129.967949 50.132121 130.10055 
C 50.132121 130.233152 50.184804 130.36034 50.278567 130.454104 
C 50.372331 130.547867 50.499519 130.60055 50.632121 130.60055 
z
" clip-path="url(#pc882c01af6)" style="fill: #bebebe"/>
   </g>
   <g id="matplotlib.axis_7"/>
   <g id="matplotlib.axis_8"/>
  </g>
  <g id="axes_5">
   <g id="patch_6">
    <path d="M 10.8 169.2 
L 61.2 169.2 
L 61.2 146.16 
L 10.8 146.16 
z
" style="fill: #ffffff"/>
   </g>
   <g id="EdgeCollection_5">
    <path d="M 57.125956 157.93 
C 83.423139 171.299715 83.423139 144.060285 57.125956 157.43 
C 83.423139 144.060285 83.423139 171.299715 57.125956 157.93 
" clip-path="url(#p7e512bf927)" style="fill: #020202"/>
    <path d="M 56.345167 157.320763 
L 50.979897 151.778687 
" clip-path="url(#p7e512bf927)" style="fill: #020202"/>
    <path d="M 56.233253 157.483315 
L 38.298451 149.809668 
" clip-path="url(#p7e512bf927)" style="fill: #020202"/>
    <path d="M 56.200615 157.592746 
L 23.829519 151.855719 
" clip-path="url(#p7e512bf927)" style="fill: #020202"/>
    <path d="M 56.192943 157.68 
L 15.807057 157.68 
" clip-path="url(#p7e512bf927)" style="fill: #020202"/>
    <path d="M 56.200615 157.767254 
L 21.860207 163.853296 
" clip-path="url(#p7e512bf927)" style="fill: #020202"/>
    <path d="M 56.233253 157.876685 
L 38.298451 165.550332 
" clip-path="url(#p7e512bf927)" style="fill: #020202"/>
    <path d="M 56.345167 158.039237 
L 50.979897 163.581313 
" clip-path="url(#p7e512bf927)" style="fill: #020202"/>
    <path d="M 51.056095 151.154411 
C 75.203479 134.207583 51.15011 121.423922 50.614578 150.919758 
C 51.15011 121.423922 75.203479 134.207583 51.056095 151.154411 
" clip-path="url(#p7e512bf927)" style="fill: #020202"/>
    <path d="M 50.139793 151.332196 
L 38.46164 149.262514 
" clip-path="url(#p7e512bf927)" style="fill: #020202; stroke: #020202; stroke-width: 0.99"/>
    <path d="M 50.132121 151.41945 
L 23.867879 151.41945 
" clip-path="url(#p7e512bf927)" style="fill: #020202; stroke: #020202; stroke-width: 0.99"/>
    <path d="M 50.139793 151.506704 
L 15.799385 157.592746 
" clip-path="url(#p7e512bf927)" style="fill: #020202"/>
    <path d="M 50.17243 151.616135 
L 21.82757 163.743865 
" clip-path="url(#p7e512bf927)" style="fill: #020202"/>
    <path d="M 50.284344 151.778687 
L 37.738883 164.737569 
" clip-path="url(#p7e512bf927)" style="fill: #020202"/>
    <path d="M 50.632121 151.91945 
L 50.632121 163.44055 
" clip-path="url(#p7e512bf927)" style="fill: #020202"/>
    <path d="M 37.25 146.661182 
C 49.619715 122.096049 22.380285 122.096049 34.75 146.661182 
C 22.380285 122.096049 49.619715 122.096049 37.25 146.661182 
" clip-path="url(#p7e512bf927)" style="fill: #020202"/>
    <path d="M 33.53836 149.262514 
L 23.829519 150.983181 
" clip-path="url(#p7e512bf927)" style="fill: #020202; stroke: #020202; stroke-width: 0.99"/>
    <path d="M 33.701549 149.809668 
L 15.766747 157.483315 
" clip-path="url(#p7e512bf927)" style="fill: #020202"/>
    <path d="M 34.261117 150.622431 
L 21.715656 163.581313 
" clip-path="url(#p7e512bf927)" style="fill: #020202"/>
    <path d="M 36 151.326245 
L 36 164.033755 
" clip-path="url(#p7e512bf927)" style="fill: #020202; stroke: #020202; stroke-width: 0.99"/>
    <path d="M 37.738883 150.622431 
L 50.284344 163.581313 
" clip-path="url(#p7e512bf927)" style="fill: #020202"/>
    <path d="M 21.455593 148.920989 
C 20.84989 121.423922 -3.203479 134.207583 19.248006 150.094257 
C -3.203479 134.207583 20.84989 121.423922 21.455593 148.920989 
" clip-path="url(#p7e512bf927)" style="fill: #020202"/>
    <path d="M 19.628996 153.215636 
L 15.654833 157.320763 
" clip-path="url(#p7e512bf927)" style="fill: #020202"/>
    <path d="M 21.367879 153.91945 
L 21.367879 163.44055 
" clip-path="url(#p7e512bf927)" style="fill: #020202"/>
    <path d="M 23.106763 153.215636 
L 34.261117 164.737569 
" clip-path="url(#p7e512bf927)" style="fill: #020202; stroke: #020202; stroke-width: 0.99"/>
    <path d="M 23.666331 152.402873 
L 50.17243 163.743865 
" clip-path="url(#p7e512bf927)" style="fill: #020202"/>
    <path d="M 14.874044 157.43 
C -11.423139 144.060285 -11.423139 171.299715 14.874044 157.93 
C -11.423139 171.299715 -11.423139 144.060285 14.874044 157.43 
" clip-path="url(#p7e512bf927)" style="fill: #020202"/>
    <path d="M 15.654833 158.039237 
L 21.020103 163.581313 
" clip-path="url(#p7e512bf927)" style="fill: #020202"/>
    <path d="M 15.766747 157.876685 
L 33.701549 165.550332 
" clip-path="url(#p7e512bf927)" style="fill: #020202"/>
    <path d="M 15.799385 157.767254 
L 50.139793 163.853296 
" clip-path="url(#p7e512bf927)" style="fill: #020202"/>
    <path d="M 20.943905 164.205589 
C -3.203479 181.152417 20.84989 193.936078 21.385422 164.440242 
C 20.84989 193.936078 -3.203479 181.152417 20.943905 164.205589 
" clip-path="url(#p7e512bf927)" style="fill: #020202"/>
    <path d="M 21.860207 164.027804 
L 33.53836 166.097486 
" clip-path="url(#p7e512bf927)" style="fill: #020202; stroke: #020202; stroke-width: 0.99"/>
    <path d="M 21.867879 163.94055 
L 50.132121 163.94055 
" clip-path="url(#p7e512bf927)" style="fill: #020202"/>
    <path d="M 34.75 168.698818 
C 22.380285 193.263951 49.619715 193.263951 37.25 168.698818 
C 49.619715 193.263951 22.380285 193.263951 34.75 168.698818 
" clip-path="url(#p7e512bf927)" style="fill: #020202"/>
    <path d="M 38.46164 166.097486 
L 50.139793 164.027804 
" clip-path="url(#p7e512bf927)" style="fill: #020202"/>
    <path d="M 50.614578 164.440242 
C 51.15011 193.936078 75.203479 181.152417 51.056095 164.205589 
C 75.203479 181.152417 51.15011 193.936078 50.614578 164.440242 
" clip-path="url(#p7e512bf927)" style="fill: #020202"/>
   </g>
   <g id="VertexCollection_5">
    <path d="M 56.692943 158.18 
C 56.825545 158.18 56.952733 158.127317 57.046497 158.033553 
C 57.14026 157.93979 57.192943 157.812602 57.192943 157.68 
C 57.192943 157.547398 57.14026 157.42021 57.046497 157.326447 
C 56.952733 157.232683 56.825545 157.18 56.692943 157.18 
C 56.560342 157.18 56.433153 157.232683 56.33939 157.326447 
C 56.245627 157.42021 56.192943 157.547398 56.192943 157.68 
C 56.192943 157.812602 56.245627 157.93979 56.33939 158.033553 
C 56.433153 158.127317 56.560342 158.18 56.692943 158.18 
z
" clip-path="url(#p7e512bf927)" style="fill: #bebebe"/>
    <path d="M 50.632121 151.91945 
C 50.764722 151.91945 50.891911 151.866767 50.985674 151.773003 
C 51.079437 151.67924 51.132121 151.552051 51.132121 151.41945 
C 51.132121 151.286848 51.079437 151.15966 50.985674 151.065896 
C 50.891911 150.972133 50.764722 150.91945 50.632121 150.91945 
C 50.499519 150.91945 50.372331 150.972133 50.278567 151.065896 
C 50.184804 151.15966 50.132121 151.286848 50.132121 151.41945 
C 50.132121 151.552051 50.184804 151.67924 50.278567 151.773003 
C 50.372331 151.866767 50.499519 151.91945 50.632121 151.91945 
z
" clip-path="url(#p7e512bf927)" style="fill: #bebebe"/>
    <path d="M 36 151.326245 
C 36.663008 151.326245 37.29895 151.062829 37.767767 150.594012 
C 38.236584 150.125195 38.5 149.489253 38.5 148.826245 
C 38.5 148.163237 38.236584 147.527295 37.767767 147.058478 
C 37.29895 146.589661 36.663008 146.326245 36 146.326245 
C 35.336992 146.326245 34.70105 146.589661 34.232233 147.058478 
C 33.763416 147.527295 33.5 148.163237 33.5 148.826245 
C 33.5 149.489253 33.763416 150.125195 34.232233 150.594012 
C 34.70105 151.062829 35.336992 151.326245 36 151.326245 
z
" clip-path="url(#p7e512bf927)" style="fill: #bebebe"/>
    <path d="M 21.367879 153.91945 
C 22.030887 153.91945 22.666829 153.656034 23.135646 153.187217 
C 23.604464 152.7184 23.867879 152.082458 23.867879 151.41945 
C 23.867879 150.756442 23.604464 150.1205 23.135646 149.651683 
C 22.666829 149.182866 22.030887 148.91945 21.367879 148.91945 
C 20.704872 148.91945 20.06893 149.182866 19.600112 149.651683 
C 19.131295 150.1205 18.867879 150.756442 18.867879 151.41945 
C 18.867879 152.082458 19.131295 152.7184 19.600112 153.187217 
C 20.06893 153.656034 20.704872 153.91945 21.367879 153.91945 
z
" clip-path="url(#p7e512bf927)" style="fill: #bebebe"/>
    <path d="M 15.307057 158.18 
C 15.439658 158.18 15.566847 158.127317 15.66061 158.033553 
C 15.754373 157.93979 15.807057 157.812602 15.807057 157.68 
C 15.807057 157.547398 15.754373 157.42021 15.66061 157.326447 
C 15.566847 157.232683 15.439658 157.18 15.307057 157.18 
C 15.174455 157.18 15.047267 157.232683 14.953503 157.326447 
C 14.85974 157.42021 14.807057 157.547398 14.807057 157.68 
C 14.807057 157.812602 14.85974 157.93979 14.953503 158.033553 
C 15.047267 158.127317 15.174455 158.18 15.307057 158.18 
z
" clip-path="url(#p7e512bf927)" style="fill: #bebebe"/>
    <path d="M 21.367879 164.44055 
C 21.500481 164.44055 21.627669 164.387867 21.721433 164.294104 
C 21.815196 164.20034 21.867879 164.073152 21.867879 163.94055 
C 21.867879 163.807949 21.815196 163.68076 21.721433 163.586997 
C 21.627669 163.493233 21.500481 163.44055 21.367879 163.44055 
C 21.235278 163.44055 21.108089 163.493233 21.014326 163.586997 
C 20.920563 163.68076 20.867879 163.807949 20.867879 163.94055 
C 20.867879 164.073152 20.920563 164.20034 21.014326 164.294104 
C 21.108089 164.387867 21.235278 164.44055 21.367879 164.44055 
z
" clip-path="url(#p7e512bf927)" style="fill: #bebebe"/>
    <path d="M 36 169.033755 
C 36.663008 169.033755 37.29895 168.770339 37.767767 168.301522 
C 38.236584 167.832705 38.5 167.196763 38.5 166.533755 
C 38.5 165.870747 38.236584 165.234805 37.767767 164.765988 
C 37.29895 164.297171 36.663008 164.033755 36 164.033755 
C 35.336992 164.033755 34.70105 164.297171 34.232233 164.765988 
C 33.763416 165.234805 33.5 165.870747 33.5 166.533755 
C 33.5 167.196763 33.763416 167.832705 34.232233 168.301522 
C 34.70105 168.770339 35.336992 169.033755 36 169.033755 
z
" clip-path="url(#p7e512bf927)" style="fill: #bebebe"/>
    <path d="M 50.632121 164.44055 
C 50.764722 164.44055 50.891911 164.387867 50.985674 164.294104 
C 51.079437 164.20034 51.132121 164.073152 51.132121 163.94055 
C 51.132121 163.807949 51.079437 163.68076 50.985674 163.586997 
C 50.891911 163.493233 50.764722 163.44055 50.632121 163.44055 
C 50.499519 163.44055 50.372331 163.493233 50.278567 163.586997 
C 50.184804 163.68076 50.132121 163.807949 50.132121 163.94055 
C 50.132121 164.073152 50.184804 164.20034 50.278567 164.294104 
C 50.372331 164.387867 50.499519 164.44055 50.632121 164.44055 
z
" clip-path="url(#p7e512bf927)" style="fill: #bebebe"/>
   </g>
   <g id="matplotlib.axis_9"/>
   <g id="matplotlib.axis_10"/>
  </g>
 </g>
 <defs>
  <clipPath id="p549868c081">
   <rect x="10.8" y="10.8" width="50.4" height="23.04"/>
  </clipPath>
  <clipPath id="p9fc709c963">
   <rect x="10.8" y="44.64" width="50.4" height="23.04"/>
  </clipPath>
  <clipPath id="p2a3df1cef1">
   <rect x="10.8" y="78.48" width="50.4" height="23.04"/>
  </clipPath>
  <clipPath id="pc882c01af6">
   <rect x="10.8" y="112.32" width="50.4" height="23.04"/>
  </clipPath>
  <clipPath id="p7e512bf927">
   <rect x="10.8" y="146.16" width="50.4" height="23.04"/>
  </clipPath>
 </defs>
</svg>
