<?xml version="1.0" encoding="utf-8" standalone="no"?>
<!DOCTYPE svg PUBLIC "-//W3C//DTD SVG 1.1//EN"
  "http://www.w3.org/Graphics/SVG/1.1/DTD/svg11.dtd">
<svg xmlns:xlink="http://www.w3.org/1999/xlink" width="72pt" height="180pt" viewBox="0 0 72 180" xmlns="http://www.w3.org/2000/svg" version="1.1">
 <metadata>
  <rdf:RDF xmlns:dc="http://purl.org/dc/elements/1.1/" xmlns:cc="http://creativecommons.org/ns#" xmlns:rdf="http://www.w3.org/1999/02/22-rdf-syntax-ns#">
   <cc:Work>
    <dc:type rdf:resource="http://purl.org/dc/dcmitype/StillImage"/>
    <dc:date>2025-06-06T13:44:42.341503</dc:date>
    <dc:format>image/svg+xml</dc:format>
    <dc:creator>
     <cc:Agent>
      <dc:title>Matplotlib v3.9.2, https://matplotlib.org/</dc:title>
     </cc:Agent>
    </dc:creator>
   </cc:Work>
  </rdf:RDF>
 </metadata>
 <defs>
  <style type="text/css">*{stroke-linejoin: round; stroke-linecap: butt}</style>
 </defs>
 <g id="figure_1">
  <g id="patch_1">
   <path d="M 0 180 
L 72 180 
L 72 0 
L 0 0 
z
" style="fill: #ffffff"/>
  </g>
  <g id="axes_1">
   <g id="patch_2">
    <path d="M 10.8 33.84 
L 61.2 33.84 
L 61.2 10.8 
L 10.8 10.8 
z
" style="fill: #ffffff"/>
   </g>
   <g id="EdgeCollection_1">
    <path d="M 57.125956 22.857936 
C 83.423139 36.227651 83.423139 8.988221 57.125956 22.357936 
C 83.423139 8.988221 83.423139 36.227651 57.125956 22.857936 
" clip-path="url(#p1509ccda2e)" style="fill: #020202"/>
    <path d="M 56.405236 22.199004 
L 53.02865 17.399706 
" clip-path="url(#p1509ccda2e)" style="fill: #020202"/>
    <path d="M 56.270975 22.339714 
L 44.504311 14.860288 
" clip-path="url(#p1509ccda2e)" style="fill: #020202"/>
    <path d="M 56.218916 22.448883 
L 31.975667 14.314441 
" clip-path="url(#p1509ccda2e)" style="fill: #020202"/>
    <path d="M 56.198479 22.533739 
L 21.731378 17.36176 
" clip-path="url(#p1509ccda2e)" style="fill: #020202"/>
    <path d="M 56.192943 22.607936 
L 15.807057 22.607936 
" clip-path="url(#p1509ccda2e)" style="fill: #020202"/>
    <path d="M 56.198479 22.682133 
L 19.753521 28.1509 
" clip-path="url(#p1509ccda2e)" style="fill: #020202"/>
    <path d="M 56.218916 22.766988 
L 30.079557 31.537641 
" clip-path="url(#p1509ccda2e)" style="fill: #020202"/>
    <path d="M 56.270975 22.876158 
L 42.816439 31.428471 
" clip-path="url(#p1509ccda2e)" style="fill: #020202"/>
    <path d="M 56.405236 23.016867 
L 53.02865 27.816166 
" clip-path="url(#p1509ccda2e)" style="fill: #020202"/>
    <path d="M 53.2002 16.793081 
C 79.637826 3.703274 57.800721 -12.579458 52.799364 16.494199 
C 57.800721 -12.579458 79.637826 3.703274 53.2002 16.793081 
" clip-path="url(#p1509ccda2e)" style="fill: #020202"/>
    <path d="M 52.266915 16.831722 
L 44.76461 14.314441 
" clip-path="url(#p1509ccda2e)" style="fill: #020202"/>
    <path d="M 52.246479 16.916577 
L 32.07785 13.890163 
" clip-path="url(#p1509ccda2e)" style="fill: #020202"/>
    <path d="M 52.240943 16.990775 
L 21.759057 16.990775 
" clip-path="url(#p1509ccda2e)" style="fill: #020202"/>
    <path d="M 52.246479 17.064972 
L 15.801521 22.533739 
" clip-path="url(#p1509ccda2e)" style="fill: #020202"/>
    <path d="M 52.266915 17.149827 
L 19.733085 28.066044 
" clip-path="url(#p1509ccda2e)" style="fill: #020202"/>
    <path d="M 52.318975 17.258996 
L 30.027497 31.428471 
" clip-path="url(#p1509ccda2e)" style="fill: #020202"/>
    <path d="M 52.453236 17.399706 
L 42.682178 31.287762 
" clip-path="url(#p1509ccda2e)" style="fill: #020202"/>
    <path d="M 52.740943 17.490775 
L 52.740943 27.725097 
" clip-path="url(#p1509ccda2e)" style="fill: #020202"/>
    <path d="M 43.977052 11.583864 
C 60.143971 -10.66667 33.260604 -15.056554 41.509731 11.180966 
C 33.260604 -15.056554 60.143971 -10.66667 43.977052 11.583864 
" clip-path="url(#p1509ccda2e)" style="fill: #020202"/>
    <path d="M 39.894471 13.519178 
L 32.105529 13.519178 
" clip-path="url(#p1509ccda2e)" style="fill: #020202; stroke: #020202; stroke-width: 0.99"/>
    <path d="M 39.92215 13.890163 
L 21.731378 16.619789 
" clip-path="url(#p1509ccda2e)" style="fill: #020202; stroke: #020202; stroke-width: 0.99"/>
    <path d="M 40.024333 14.314441 
L 15.781084 22.448883 
" clip-path="url(#p1509ccda2e)" style="fill: #020202; stroke: #020202; stroke-width: 0.99"/>
    <path d="M 40.284631 14.860288 
L 19.681025 27.956875 
" clip-path="url(#p1509ccda2e)" style="fill: #020202"/>
    <path d="M 40.955936 15.563834 
L 29.893236 31.287762 
" clip-path="url(#p1509ccda2e)" style="fill: #020202"/>
    <path d="M 42.394471 16.019178 
L 42.394471 31.196693 
" clip-path="url(#p1509ccda2e)" style="fill: #020202"/>
    <path d="M 43.833006 15.563834 
L 52.453236 27.816166 
" clip-path="url(#p1509ccda2e)" style="fill: #020202"/>
    <path d="M 30.490269 11.180966 
C 38.739396 -15.056554 11.856029 -10.66667 28.022948 11.583864 
C 11.856029 -10.66667 38.739396 -15.056554 30.490269 11.180966 
" clip-path="url(#p1509ccda2e)" style="fill: #020202"/>
    <path d="M 27.23539 14.314441 
L 21.629196 16.195512 
" clip-path="url(#p1509ccda2e)" style="fill: #020202; stroke: #020202; stroke-width: 0.99"/>
    <path d="M 27.495689 14.860288 
L 15.729025 22.339714 
" clip-path="url(#p1509ccda2e)" style="fill: #020202"/>
    <path d="M 28.166994 15.563834 
L 19.546764 27.816166 
" clip-path="url(#p1509ccda2e)" style="fill: #020202"/>
    <path d="M 29.605529 16.019178 
L 29.605529 31.196693 
" clip-path="url(#p1509ccda2e)" style="fill: #020202; stroke: #020202; stroke-width: 0.99"/>
    <path d="M 31.044064 15.563834 
L 42.106764 31.287762 
" clip-path="url(#p1509ccda2e)" style="fill: #020202"/>
    <path d="M 31.715369 14.860288 
L 52.318975 27.956875 
" clip-path="url(#p1509ccda2e)" style="fill: #020202"/>
    <path d="M 18.966952 14.507898 
C 14.199279 -12.579458 -7.637826 3.703274 16.962771 16.002306 
C -7.637826 3.703274 14.199279 -12.579458 18.966952 14.507898 
" clip-path="url(#p1509ccda2e)" style="fill: #020202"/>
    <path d="M 17.820522 19.03543 
L 15.594764 22.199004 
" clip-path="url(#p1509ccda2e)" style="fill: #020202"/>
    <path d="M 19.259057 19.490775 
L 19.259057 27.725097 
" clip-path="url(#p1509ccda2e)" style="fill: #020202"/>
    <path d="M 20.697592 19.03543 
L 29.317822 31.287762 
" clip-path="url(#p1509ccda2e)" style="fill: #020202"/>
    <path d="M 21.368897 18.331884 
L 41.972503 31.428471 
" clip-path="url(#p1509ccda2e)" style="fill: #020202; stroke: #020202; stroke-width: 0.99"/>
    <path d="M 21.629196 17.786037 
L 52.266915 28.066044 
" clip-path="url(#p1509ccda2e)" style="fill: #020202"/>
    <path d="M 14.874044 22.357936 
C -11.423139 8.988221 -11.423139 36.227651 14.874044 22.857936 
C -11.423139 36.227651 -11.423139 8.988221 14.874044 22.357936 
" clip-path="url(#p1509ccda2e)" style="fill: #020202"/>
    <path d="M 15.594764 23.016867 
L 18.97135 27.816166 
" clip-path="url(#p1509ccda2e)" style="fill: #020202"/>
    <path d="M 15.729025 22.876158 
L 29.183561 31.428471 
" clip-path="url(#p1509ccda2e)" style="fill: #020202"/>
    <path d="M 15.781084 22.766988 
L 41.920443 31.537641 
" clip-path="url(#p1509ccda2e)" style="fill: #020202"/>
    <path d="M 15.801521 22.682133 
L 52.246479 28.1509 
" clip-path="url(#p1509ccda2e)" style="fill: #020202"/>
    <path d="M 18.7998 28.42279 
C -7.637826 41.512597 14.199279 57.795329 19.200636 28.721672 
C 14.199279 57.795329 -7.637826 41.512597 18.7998 28.42279 
" clip-path="url(#p1509ccda2e)" style="fill: #020202"/>
    <path d="M 19.733085 28.384149 
L 29.131501 31.537641 
" clip-path="url(#p1509ccda2e)" style="fill: #020202"/>
    <path d="M 19.753521 28.299294 
L 41.900007 31.622496 
" clip-path="url(#p1509ccda2e)" style="fill: #020202"/>
    <path d="M 19.759057 28.225097 
L 52.240943 28.225097 
" clip-path="url(#p1509ccda2e)" style="fill: #020202"/>
    <path d="M 29.289013 32.083756 
C 11.856029 55.882541 38.739396 60.272425 29.782477 32.164336 
C 38.739396 60.272425 11.856029 55.882541 29.289013 32.083756 
" clip-path="url(#p1509ccda2e)" style="fill: #020202"/>
    <path d="M 30.105529 31.696693 
L 41.894471 31.696693 
" clip-path="url(#p1509ccda2e)" style="fill: #020202"/>
    <path d="M 30.099993 31.622496 
L 52.246479 28.299294 
" clip-path="url(#p1509ccda2e)" style="fill: #020202"/>
    <path d="M 42.217523 32.164336 
C 33.260604 60.272425 60.143971 55.882541 42.710987 32.083756 
C 60.143971 55.882541 33.260604 60.272425 42.217523 32.164336 
" clip-path="url(#p1509ccda2e)" style="fill: #020202"/>
    <path d="M 42.868499 31.537641 
L 52.266915 28.384149 
" clip-path="url(#p1509ccda2e)" style="fill: #020202"/>
    <path d="M 52.799364 28.721672 
C 57.800721 57.795329 79.637826 41.512597 53.2002 28.42279 
C 79.637826 41.512597 57.800721 57.795329 52.799364 28.721672 
" clip-path="url(#p1509ccda2e)" style="fill: #020202"/>
   </g>
   <g id="VertexCollection_1">
    <path d="M 56.692943 23.107936 
C 56.825545 23.107936 56.952733 23.055253 57.046497 22.961489 
C 57.14026 22.867726 57.192943 22.740537 57.192943 22.607936 
C 57.192943 22.475334 57.14026 22.348146 57.046497 22.254382 
C 56.952733 22.160619 56.825545 22.107936 56.692943 22.107936 
C 56.560342 22.107936 56.433153 22.160619 56.33939 22.254382 
C 56.245627 22.348146 56.192943 22.475334 56.192943 22.607936 
C 56.192943 22.740537 56.245627 22.867726 56.33939 22.961489 
C 56.433153 23.055253 56.560342 23.107936 56.692943 23.107936 
z
" clip-path="url(#p1509ccda2e)" style="fill: #bebebe"/>
    <path d="M 52.740943 17.490775 
C 52.873544 17.490775 53.000733 17.438091 53.094496 17.344328 
C 53.18826 17.250564 53.240943 17.123376 53.240943 16.990775 
C 53.240943 16.858173 53.18826 16.730985 53.094496 16.637221 
C 53.000733 16.543458 52.873544 16.490775 52.740943 16.490775 
C 52.608341 16.490775 52.481153 16.543458 52.38739 16.637221 
C 52.293626 16.730985 52.240943 16.858173 52.240943 16.990775 
C 52.240943 17.123376 52.293626 17.250564 52.38739 17.344328 
C 52.481153 17.438091 52.608341 17.490775 52.740943 17.490775 
z
" clip-path="url(#p1509ccda2e)" style="fill: #bebebe"/>
    <path d="M 42.394471 16.019178 
C 43.057479 16.019178 43.693421 15.755762 44.162238 15.286945 
C 44.631055 14.818128 44.894471 14.182186 44.894471 13.519178 
C 44.894471 12.85617 44.631055 12.220228 44.162238 11.751411 
C 43.693421 11.282594 43.057479 11.019178 42.394471 11.019178 
C 41.731463 11.019178 41.095522 11.282594 40.626704 11.751411 
C 40.157887 12.220228 39.894471 12.85617 39.894471 13.519178 
C 39.894471 14.182186 40.157887 14.818128 40.626704 15.286945 
C 41.095522 15.755762 41.731463 16.019178 42.394471 16.019178 
z
" clip-path="url(#p1509ccda2e)" style="fill: #bebebe"/>
    <path d="M 29.605529 16.019178 
C 30.268537 16.019178 30.904478 15.755762 31.373296 15.286945 
C 31.842113 14.818128 32.105529 14.182186 32.105529 13.519178 
C 32.105529 12.85617 31.842113 12.220228 31.373296 11.751411 
C 30.904478 11.282594 30.268537 11.019178 29.605529 11.019178 
C 28.942521 11.019178 28.306579 11.282594 27.837762 11.751411 
C 27.368945 12.220228 27.105529 12.85617 27.105529 13.519178 
C 27.105529 14.182186 27.368945 14.818128 27.837762 15.286945 
C 28.306579 15.755762 28.942521 16.019178 29.605529 16.019178 
z
" clip-path="url(#p1509ccda2e)" style="fill: #bebebe"/>
    <path d="M 19.259057 19.490775 
C 19.922065 19.490775 20.558007 19.227359 21.026824 18.758541 
C 21.495641 18.289724 21.759057 17.653782 21.759057 16.990775 
C 21.759057 16.327767 21.495641 15.691825 21.026824 15.223008 
C 20.558007 14.75419 19.922065 14.490775 19.259057 14.490775 
C 18.596049 14.490775 17.960107 14.75419 17.49129 15.223008 
C 17.022473 15.691825 16.759057 16.327767 16.759057 16.990775 
C 16.759057 17.653782 17.022473 18.289724 17.49129 18.758541 
C 17.960107 19.227359 18.596049 19.490775 19.259057 19.490775 
z
" clip-path="url(#p1509ccda2e)" style="fill: #bebebe"/>
    <path d="M 15.307057 23.107936 
C 15.439658 23.107936 15.566847 23.055253 15.66061 22.961489 
C 15.754373 22.867726 15.807057 22.740537 15.807057 22.607936 
C 15.807057 22.475334 15.754373 22.348146 15.66061 22.254382 
C 15.566847 22.160619 15.439658 22.107936 15.307057 22.107936 
C 15.174455 22.107936 15.047267 22.160619 14.953503 22.254382 
C 14.85974 22.348146 14.807057 22.475334 14.807057 22.607936 
C 14.807057 22.740537 14.85974 22.867726 14.953503 22.961489 
C 15.047267 23.055253 15.174455 23.107936 15.307057 23.107936 
z
" clip-path="url(#p1509ccda2e)" style="fill: #bebebe"/>
    <path d="M 19.259057 28.725097 
C 19.391659 28.725097 19.518847 28.672414 19.61261 28.57865 
C 19.706374 28.484887 19.759057 28.357698 19.759057 28.225097 
C 19.759057 28.092495 19.706374 27.965307 19.61261 27.871543 
C 19.518847 27.77778 19.391659 27.725097 19.259057 27.725097 
C 19.126456 27.725097 18.999267 27.77778 18.905504 27.871543 
C 18.81174 27.965307 18.759057 28.092495 18.759057 28.225097 
C 18.759057 28.357698 18.81174 28.484887 18.905504 28.57865 
C 18.999267 28.672414 19.126456 28.725097 19.259057 28.725097 
z
" clip-path="url(#p1509ccda2e)" style="fill: #bebebe"/>
    <path d="M 29.605529 32.196693 
C 29.73813 32.196693 29.865319 32.14401 29.959082 32.050247 
C 30.052846 31.956483 30.105529 31.829295 30.105529 31.696693 
C 30.105529 31.564092 30.052846 31.436903 29.959082 31.34314 
C 29.865319 31.249376 29.73813 31.196693 29.605529 31.196693 
C 29.472927 31.196693 29.345739 31.249376 29.251975 31.34314 
C 29.158212 31.436903 29.105529 31.564092 29.105529 31.696693 
C 29.105529 31.829295 29.158212 31.956483 29.251975 32.050247 
C 29.345739 32.14401 29.472927 32.196693 29.605529 32.196693 
z
" clip-path="url(#p1509ccda2e)" style="fill: #bebebe"/>
    <path d="M 42.394471 32.196693 
C 42.527073 32.196693 42.654261 32.14401 42.748025 32.050247 
C 42.841788 31.956483 42.894471 31.829295 42.894471 31.696693 
C 42.894471 31.564092 42.841788 31.436903 42.748025 31.34314 
C 42.654261 31.249376 42.527073 31.196693 42.394471 31.196693 
C 42.26187 31.196693 42.134681 31.249376 42.040918 31.34314 
C 41.947154 31.436903 41.894471 31.564092 41.894471 31.696693 
C 41.894471 31.829295 41.947154 31.956483 42.040918 32.050247 
C 42.134681 32.14401 42.26187 32.196693 42.394471 32.196693 
z
" clip-path="url(#p1509ccda2e)" style="fill: #bebebe"/>
    <path d="M 52.740943 28.725097 
C 52.873544 28.725097 53.000733 28.672414 53.094496 28.57865 
C 53.18826 28.484887 53.240943 28.357698 53.240943 28.225097 
C 53.240943 28.092495 53.18826 27.965307 53.094496 27.871543 
C 53.000733 27.77778 52.873544 27.725097 52.740943 27.725097 
C 52.608341 27.725097 52.481153 27.77778 52.38739 27.871543 
C 52.293626 27.965307 52.240943 28.092495 52.240943 28.225097 
C 52.240943 28.357698 52.293626 28.484887 52.38739 28.57865 
C 52.481153 28.672414 52.608341 28.725097 52.740943 28.725097 
z
" clip-path="url(#p1509ccda2e)" style="fill: #bebebe"/>
   </g>
   <g id="matplotlib.axis_1"/>
   <g id="matplotlib.axis_2"/>
  </g>
  <g id="axes_2">
   <g id="patch_3">
    <path d="M 10.8 67.68 
L 61.2 67.68 
L 61.2 44.64 
L 10.8 44.64 
z
" style="fill: #ffffff"/>
   </g>
   <g id="EdgeCollection_2">
    <path d="M 57.125956 56.41 
C 83.423139 69.779715 83.423139 42.540285 57.125956 55.91 
C 83.423139 42.540285 83.423139 69.779715 57.125956 56.41 
" clip-path="url(#p3e1585b76a)" style="fill: #020202"/>
    <path d="M 56.399503 55.755163 
L 53.034383 51.11257 
" clip-path="url(#p3e1585b76a)" style="fill: #020202"/>
    <path d="M 56.267419 55.897457 
L 42.819996 47.60059 
" clip-path="url(#p3e1585b76a)" style="fill: #020202"/>
    <path d="M 56.217522 56.005163 
L 31.982635 48.112234 
" clip-path="url(#p3e1585b76a)" style="fill: #020202"/>
    <path d="M 56.198164 56.087935 
L 21.732954 51.068058 
" clip-path="url(#p3e1585b76a)" style="fill: #020202"/>
    <path d="M 56.192943 56.16 
L 15.807057 56.16 
" clip-path="url(#p3e1585b76a)" style="fill: #020202"/>
    <path d="M 56.198164 56.232065 
L 19.753837 61.540202 
" clip-path="url(#p3e1585b76a)" style="fill: #020202"/>
    <path d="M 56.217522 56.314837 
L 30.08095 64.827116 
" clip-path="url(#p3e1585b76a)" style="fill: #020202"/>
    <path d="M 56.267419 56.422543 
L 44.522095 63.66924 
" clip-path="url(#p3e1585b76a)" style="fill: #020202"/>
    <path d="M 56.399503 56.564837 
L 53.034383 61.20743 
" clip-path="url(#p3e1585b76a)" style="fill: #020202"/>
    <path d="M 53.197899 50.504778 
C 79.483449 37.112206 57.460782 21.081341 52.793657 50.21052 
C 57.460782 21.081341 79.483449 37.112206 53.197899 50.504778 
" clip-path="url(#p3e1585b76a)" style="fill: #020202"/>
    <path d="M 52.265522 50.552896 
L 42.869892 47.492884 
" clip-path="url(#p3e1585b76a)" style="fill: #020202"/>
    <path d="M 52.246163 50.635668 
L 32.079426 47.698371 
" clip-path="url(#p3e1585b76a)" style="fill: #020202"/>
    <path d="M 52.240943 50.707733 
L 21.759057 50.707733 
" clip-path="url(#p3e1585b76a)" style="fill: #020202"/>
    <path d="M 52.246163 50.779798 
L 15.801836 56.087935 
" clip-path="url(#p3e1585b76a)" style="fill: #020202"/>
    <path d="M 52.265522 50.86257 
L 19.734478 61.45743 
" clip-path="url(#p3e1585b76a)" style="fill: #020202"/>
    <path d="M 52.315418 50.970276 
L 30.031054 64.71941 
" clip-path="url(#p3e1585b76a)" style="fill: #020202"/>
    <path d="M 52.447503 51.11257 
L 43.861673 62.95777 
" clip-path="url(#p3e1585b76a)" style="fill: #020202"/>
    <path d="M 52.740943 51.207733 
L 52.740943 61.112267 
" clip-path="url(#p3e1585b76a)" style="fill: #020202"/>
    <path d="M 42.709266 46.949583 
C 60.036421 23.073637 33.133829 18.803147 42.215449 46.871195 
C 33.133829 18.803147 60.036421 23.073637 42.709266 46.949583 
" clip-path="url(#p3e1585b76a)" style="fill: #020202"/>
    <path d="M 41.894471 47.338047 
L 32.105529 47.338047 
" clip-path="url(#p3e1585b76a)" style="fill: #020202"/>
    <path d="M 41.899692 47.410112 
L 21.732954 50.347409 
" clip-path="url(#p3e1585b76a)" style="fill: #020202; stroke: #020202; stroke-width: 0.99"/>
    <path d="M 41.91905 47.492884 
L 15.782478 56.005163 
" clip-path="url(#p3e1585b76a)" style="fill: #020202"/>
    <path d="M 41.968946 47.60059 
L 19.684582 61.349724 
" clip-path="url(#p3e1585b76a)" style="fill: #020202"/>
    <path d="M 42.101031 47.742884 
L 29.898969 64.577116 
" clip-path="url(#p3e1585b76a)" style="fill: #020202"/>
    <path d="M 42.394471 47.838047 
L 42.394471 62.481953 
" clip-path="url(#p3e1585b76a)" style="fill: #020202; stroke: #020202; stroke-width: 0.99"/>
    <path d="M 42.687912 47.742884 
L 52.447503 61.20743 
" clip-path="url(#p3e1585b76a)" style="fill: #020202"/>
    <path d="M 30.500641 45.003786 
C 38.866171 18.803147 11.963579 23.073637 28.031556 45.395726 
C 11.963579 23.073637 38.866171 18.803147 30.500641 45.003786 
" clip-path="url(#p3e1585b76a)" style="fill: #020202"/>
    <path d="M 27.228422 48.112234 
L 21.636163 49.933546 
" clip-path="url(#p3e1585b76a)" style="fill: #020202; stroke: #020202; stroke-width: 0.99"/>
    <path d="M 27.477905 48.65076 
L 15.732581 55.897457 
" clip-path="url(#p3e1585b76a)" style="fill: #020202"/>
    <path d="M 28.138327 49.36223 
L 19.552497 61.20743 
" clip-path="url(#p3e1585b76a)" style="fill: #020202"/>
    <path d="M 29.605529 49.838047 
L 29.605529 64.481953 
" clip-path="url(#p3e1585b76a)" style="fill: #020202; stroke: #020202; stroke-width: 0.99"/>
    <path d="M 31.07273 49.36223 
L 40.92727 62.95777 
" clip-path="url(#p3e1585b76a)" style="fill: #020202"/>
    <path d="M 31.733153 48.65076 
L 52.315418 61.349724 
" clip-path="url(#p3e1585b76a)" style="fill: #020202; stroke: #020202; stroke-width: 0.99"/>
    <path d="M 18.995487 48.221666 
C 14.539218 21.081341 -7.483449 37.112206 16.974274 49.692958 
C -7.483449 37.112206 14.539218 21.081341 18.995487 48.221666 
" clip-path="url(#p3e1585b76a)" style="fill: #020202"/>
    <path d="M 17.791855 52.731917 
L 15.600497 55.755163 
" clip-path="url(#p3e1585b76a)" style="fill: #020202"/>
    <path d="M 19.259057 53.207733 
L 19.259057 61.112267 
" clip-path="url(#p3e1585b76a)" style="fill: #020202"/>
    <path d="M 20.726259 52.731917 
L 29.312088 64.577116 
" clip-path="url(#p3e1585b76a)" style="fill: #020202"/>
    <path d="M 21.386681 52.020447 
L 40.266847 63.66924 
" clip-path="url(#p3e1585b76a)" style="fill: #020202; stroke: #020202; stroke-width: 0.99"/>
    <path d="M 21.636163 51.48192 
L 52.265522 61.45743 
" clip-path="url(#p3e1585b76a)" style="fill: #020202"/>
    <path d="M 14.874044 55.91 
C -11.423139 42.540285 -11.423139 69.779715 14.874044 56.41 
C -11.423139 69.779715 -11.423139 42.540285 14.874044 55.91 
" clip-path="url(#p3e1585b76a)" style="fill: #020202"/>
    <path d="M 15.600497 56.564837 
L 18.965617 61.20743 
" clip-path="url(#p3e1585b76a)" style="fill: #020202"/>
    <path d="M 15.732581 56.422543 
L 29.180004 64.71941 
" clip-path="url(#p3e1585b76a)" style="fill: #020202"/>
    <path d="M 15.782478 56.314837 
L 40.017365 64.207766 
" clip-path="url(#p3e1585b76a)" style="fill: #020202"/>
    <path d="M 15.801836 56.232065 
L 52.246163 61.540202 
" clip-path="url(#p3e1585b76a)" style="fill: #020202"/>
    <path d="M 18.802101 61.815222 
C -7.483449 75.207794 14.539218 91.238659 19.206343 62.10948 
C 14.539218 91.238659 -7.483449 75.207794 18.802101 61.815222 
" clip-path="url(#p3e1585b76a)" style="fill: #020202"/>
    <path d="M 19.734478 61.767104 
L 29.130108 64.827116 
" clip-path="url(#p3e1585b76a)" style="fill: #020202"/>
    <path d="M 19.753837 61.684332 
L 39.920574 64.621629 
" clip-path="url(#p3e1585b76a)" style="fill: #020202"/>
    <path d="M 19.759057 61.612267 
L 52.240943 61.612267 
" clip-path="url(#p3e1585b76a)" style="fill: #020202"/>
    <path d="M 29.290734 65.370417 
C 11.963579 89.246363 38.866171 93.516853 29.784551 65.448805 
C 38.866171 93.516853 11.963579 89.246363 29.290734 65.370417 
" clip-path="url(#p3e1585b76a)" style="fill: #020202"/>
    <path d="M 30.105529 64.981953 
L 39.894471 64.981953 
" clip-path="url(#p3e1585b76a)" style="fill: #020202; stroke: #020202; stroke-width: 0.99"/>
    <path d="M 30.100308 64.909888 
L 52.246163 61.684332 
" clip-path="url(#p3e1585b76a)" style="fill: #020202"/>
    <path d="M 41.499359 67.316214 
C 33.133829 93.516853 60.036421 89.246363 43.968444 66.924274 
C 60.036421 89.246363 33.133829 93.516853 41.499359 67.316214 
" clip-path="url(#p3e1585b76a)" style="fill: #020202"/>
    <path d="M 44.771578 64.207766 
L 52.265522 61.767104 
" clip-path="url(#p3e1585b76a)" style="fill: #020202"/>
    <path d="M 52.793657 62.10948 
C 57.460782 91.238659 79.483449 75.207794 53.197899 61.815222 
C 79.483449 75.207794 57.460782 91.238659 52.793657 62.10948 
" clip-path="url(#p3e1585b76a)" style="fill: #020202"/>
   </g>
   <g id="VertexCollection_2">
    <path d="M 56.692943 56.66 
C 56.825545 56.66 56.952733 56.607317 57.046497 56.513553 
C 57.14026 56.41979 57.192943 56.292602 57.192943 56.16 
C 57.192943 56.027398 57.14026 55.90021 57.046497 55.806447 
C 56.952733 55.712683 56.825545 55.66 56.692943 55.66 
C 56.560342 55.66 56.433153 55.712683 56.33939 55.806447 
C 56.245627 55.90021 56.192943 56.027398 56.192943 56.16 
C 56.192943 56.292602 56.245627 56.41979 56.33939 56.513553 
C 56.433153 56.607317 56.560342 56.66 56.692943 56.66 
z
" clip-path="url(#p3e1585b76a)" style="fill: #bebebe"/>
    <path d="M 52.740943 51.207733 
C 52.873544 51.207733 53.000733 51.15505 53.094496 51.061286 
C 53.18826 50.967523 53.240943 50.840335 53.240943 50.707733 
C 53.240943 50.575132 53.18826 50.447943 53.094496 50.35418 
C 53.000733 50.260416 52.873544 50.207733 52.740943 50.207733 
C 52.608341 50.207733 52.481153 50.260416 52.38739 50.35418 
C 52.293626 50.447943 52.240943 50.575132 52.240943 50.707733 
C 52.240943 50.840335 52.293626 50.967523 52.38739 51.061286 
C 52.481153 51.15505 52.608341 51.207733 52.740943 51.207733 
z
" clip-path="url(#p3e1585b76a)" style="fill: #bebebe"/>
    <path d="M 42.394471 47.838047 
C 42.527073 47.838047 42.654261 47.785364 42.748025 47.6916 
C 42.841788 47.597837 42.894471 47.470648 42.894471 47.338047 
C 42.894471 47.205445 42.841788 47.078257 42.748025 46.984493 
C 42.654261 46.89073 42.527073 46.838047 42.394471 46.838047 
C 42.26187 46.838047 42.134681 46.89073 42.040918 46.984493 
C 41.947154 47.078257 41.894471 47.205445 41.894471 47.338047 
C 41.894471 47.470648 41.947154 47.597837 42.040918 47.6916 
C 42.134681 47.785364 42.26187 47.838047 42.394471 47.838047 
z
" clip-path="url(#p3e1585b76a)" style="fill: #bebebe"/>
    <path d="M 29.605529 49.838047 
C 30.268537 49.838047 30.904478 49.574631 31.373296 49.105814 
C 31.842113 48.636996 32.105529 48.001055 32.105529 47.338047 
C 32.105529 46.675039 31.842113 46.039097 31.373296 45.57028 
C 30.904478 45.101463 30.268537 44.838047 29.605529 44.838047 
C 28.942521 44.838047 28.306579 45.101463 27.837762 45.57028 
C 27.368945 46.039097 27.105529 46.675039 27.105529 47.338047 
C 27.105529 48.001055 27.368945 48.636996 27.837762 49.105814 
C 28.306579 49.574631 28.942521 49.838047 29.605529 49.838047 
z
" clip-path="url(#p3e1585b76a)" style="fill: #bebebe"/>
    <path d="M 19.259057 53.207733 
C 19.922065 53.207733 20.558007 52.944317 21.026824 52.4755 
C 21.495641 52.006683 21.759057 51.370741 21.759057 50.707733 
C 21.759057 50.044725 21.495641 49.408783 21.026824 48.939966 
C 20.558007 48.471149 19.922065 48.207733 19.259057 48.207733 
C 18.596049 48.207733 17.960107 48.471149 17.49129 48.939966 
C 17.022473 49.408783 16.759057 50.044725 16.759057 50.707733 
C 16.759057 51.370741 17.022473 52.006683 17.49129 52.4755 
C 17.960107 52.944317 18.596049 53.207733 19.259057 53.207733 
z
" clip-path="url(#p3e1585b76a)" style="fill: #bebebe"/>
    <path d="M 15.307057 56.66 
C 15.439658 56.66 15.566847 56.607317 15.66061 56.513553 
C 15.754373 56.41979 15.807057 56.292602 15.807057 56.16 
C 15.807057 56.027398 15.754373 55.90021 15.66061 55.806447 
C 15.566847 55.712683 15.439658 55.66 15.307057 55.66 
C 15.174455 55.66 15.047267 55.712683 14.953503 55.806447 
C 14.85974 55.90021 14.807057 56.027398 14.807057 56.16 
C 14.807057 56.292602 14.85974 56.41979 14.953503 56.513553 
C 15.047267 56.607317 15.174455 56.66 15.307057 56.66 
z
" clip-path="url(#p3e1585b76a)" style="fill: #bebebe"/>
    <path d="M 19.259057 62.112267 
C 19.391659 62.112267 19.518847 62.059584 19.61261 61.96582 
C 19.706374 61.872057 19.759057 61.744868 19.759057 61.612267 
C 19.759057 61.479665 19.706374 61.352477 19.61261 61.258714 
C 19.518847 61.16495 19.391659 61.112267 19.259057 61.112267 
C 19.126456 61.112267 18.999267 61.16495 18.905504 61.258714 
C 18.81174 61.352477 18.759057 61.479665 18.759057 61.612267 
C 18.759057 61.744868 18.81174 61.872057 18.905504 61.96582 
C 18.999267 62.059584 19.126456 62.112267 19.259057 62.112267 
z
" clip-path="url(#p3e1585b76a)" style="fill: #bebebe"/>
    <path d="M 29.605529 65.481953 
C 29.73813 65.481953 29.865319 65.42927 29.959082 65.335507 
C 30.052846 65.241743 30.105529 65.114555 30.105529 64.981953 
C 30.105529 64.849352 30.052846 64.722163 29.959082 64.6284 
C 29.865319 64.534636 29.73813 64.481953 29.605529 64.481953 
C 29.472927 64.481953 29.345739 64.534636 29.251975 64.6284 
C 29.158212 64.722163 29.105529 64.849352 29.105529 64.981953 
C 29.105529 65.114555 29.158212 65.241743 29.251975 65.335507 
C 29.345739 65.42927 29.472927 65.481953 29.605529 65.481953 
z
" clip-path="url(#p3e1585b76a)" style="fill: #bebebe"/>
    <path d="M 42.394471 67.481953 
C 43.057479 67.481953 43.693421 67.218537 44.162238 66.74972 
C 44.631055 66.280903 44.894471 65.644961 44.894471 64.981953 
C 44.894471 64.318945 44.631055 63.683004 44.162238 63.214186 
C 43.693421 62.745369 43.057479 62.481953 42.394471 62.481953 
C 41.731463 62.481953 41.095522 62.745369 40.626704 63.214186 
C 40.157887 63.683004 39.894471 64.318945 39.894471 64.981953 
C 39.894471 65.644961 40.157887 66.280903 40.626704 66.74972 
C 41.095522 67.218537 41.731463 67.481953 42.394471 67.481953 
z
" clip-path="url(#p3e1585b76a)" style="fill: #bebebe"/>
    <path d="M 52.740943 62.112267 
C 52.873544 62.112267 53.000733 62.059584 53.094496 61.96582 
C 53.18826 61.872057 53.240943 61.744868 53.240943 61.612267 
C 53.240943 61.479665 53.18826 61.352477 53.094496 61.258714 
C 53.000733 61.16495 52.873544 61.112267 52.740943 61.112267 
C 52.608341 61.112267 52.481153 61.16495 52.38739 61.258714 
C 52.293626 61.352477 52.240943 61.479665 52.240943 61.612267 
C 52.240943 61.744868 52.293626 61.872057 52.38739 61.96582 
C 52.481153 62.059584 52.608341 62.112267 52.740943 62.112267 
z
" clip-path="url(#p3e1585b76a)" style="fill: #bebebe"/>
   </g>
   <g id="matplotlib.axis_3"/>
   <g id="matplotlib.axis_4"/>
  </g>
  <g id="axes_3">
   <g id="patch_4">
    <path d="M 10.8 101.52 
L 61.2 101.52 
L 61.2 78.48 
L 10.8 78.48 
z
" style="fill: #ffffff"/>
   </g>
   <g id="EdgeCollection_3">
    <path d="M 57.125956 90.537936 
C 83.423139 103.907651 83.423139 76.668221 57.125956 90.037936 
C 83.423139 76.668221 83.423139 103.907651 57.125956 90.537936 
" clip-path="url(#p7a7ed761f1)" style="fill: #020202"/>
    <path d="M 56.405236 89.879004 
L 53.02865 85.079706 
" clip-path="url(#p7a7ed761f1)" style="fill: #020202"/>
    <path d="M 56.270975 90.019714 
L 44.504311 82.540288 
" clip-path="url(#p7a7ed761f1)" style="fill: #020202"/>
    <path d="M 56.218916 90.128883 
L 31.975667 81.994441 
" clip-path="url(#p7a7ed761f1)" style="fill: #020202"/>
    <path d="M 56.198479 90.213739 
L 21.731378 85.04176 
" clip-path="url(#p7a7ed761f1)" style="fill: #020202"/>
    <path d="M 56.192943 90.287936 
L 15.807057 90.287936 
" clip-path="url(#p7a7ed761f1)" style="fill: #020202"/>
    <path d="M 56.198479 90.362133 
L 19.753521 95.8309 
" clip-path="url(#p7a7ed761f1)" style="fill: #020202"/>
    <path d="M 56.218916 90.446988 
L 30.079557 99.217641 
" clip-path="url(#p7a7ed761f1)" style="fill: #020202"/>
    <path d="M 56.270975 90.556158 
L 42.816439 99.108471 
" clip-path="url(#p7a7ed761f1)" style="fill: #020202"/>
    <path d="M 56.405236 90.696867 
L 53.02865 95.496166 
" clip-path="url(#p7a7ed761f1)" style="fill: #020202"/>
    <path d="M 53.2002 84.473081 
C 79.637826 71.383274 57.800721 55.100542 52.799364 84.174199 
C 57.800721 55.100542 79.637826 71.383274 53.2002 84.473081 
" clip-path="url(#p7a7ed761f1)" style="fill: #020202"/>
    <path d="M 52.266915 84.511722 
L 44.76461 81.994441 
" clip-path="url(#p7a7ed761f1)" style="fill: #020202"/>
    <path d="M 52.246479 84.596577 
L 32.07785 81.570163 
" clip-path="url(#p7a7ed761f1)" style="fill: #020202"/>
    <path d="M 52.240943 84.670775 
L 21.759057 84.670775 
" clip-path="url(#p7a7ed761f1)" style="fill: #020202"/>
    <path d="M 52.246479 84.744972 
L 15.801521 90.213739 
" clip-path="url(#p7a7ed761f1)" style="fill: #020202"/>
    <path d="M 52.266915 84.829827 
L 19.733085 95.746044 
" clip-path="url(#p7a7ed761f1)" style="fill: #020202"/>
    <path d="M 52.318975 84.938996 
L 30.027497 99.108471 
" clip-path="url(#p7a7ed761f1)" style="fill: #020202"/>
    <path d="M 52.453236 85.079706 
L 42.682178 98.967762 
" clip-path="url(#p7a7ed761f1)" style="fill: #020202"/>
    <path d="M 52.740943 85.170775 
L 52.740943 95.405097 
" clip-path="url(#p7a7ed761f1)" style="fill: #020202"/>
    <path d="M 43.977052 79.263864 
C 60.143971 57.01333 33.260604 52.623446 41.509731 78.860966 
C 33.260604 52.623446 60.143971 57.01333 43.977052 79.263864 
" clip-path="url(#p7a7ed761f1)" style="fill: #020202"/>
    <path d="M 39.894471 81.199178 
L 32.105529 81.199178 
" clip-path="url(#p7a7ed761f1)" style="fill: #020202; stroke: #020202; stroke-width: 0.99"/>
    <path d="M 39.92215 81.570163 
L 21.731378 84.299789 
" clip-path="url(#p7a7ed761f1)" style="fill: #020202; stroke: #020202; stroke-width: 0.99"/>
    <path d="M 40.024333 81.994441 
L 15.781084 90.128883 
" clip-path="url(#p7a7ed761f1)" style="fill: #020202"/>
    <path d="M 40.284631 82.540288 
L 19.681025 95.636875 
" clip-path="url(#p7a7ed761f1)" style="fill: #020202"/>
    <path d="M 40.955936 83.243834 
L 29.893236 98.967762 
" clip-path="url(#p7a7ed761f1)" style="fill: #020202"/>
    <path d="M 42.394471 83.699178 
L 42.394471 98.876693 
" clip-path="url(#p7a7ed761f1)" style="fill: #020202; stroke: #020202; stroke-width: 0.99"/>
    <path d="M 43.833006 83.243834 
L 52.453236 95.496166 
" clip-path="url(#p7a7ed761f1)" style="fill: #020202"/>
    <path d="M 30.490269 78.860966 
C 38.739396 52.623446 11.856029 57.01333 28.022948 79.263864 
C 11.856029 57.01333 38.739396 52.623446 30.490269 78.860966 
" clip-path="url(#p7a7ed761f1)" style="fill: #020202"/>
    <path d="M 27.23539 81.994441 
L 21.629196 83.875512 
" clip-path="url(#p7a7ed761f1)" style="fill: #020202"/>
    <path d="M 27.495689 82.540288 
L 15.729025 90.019714 
" clip-path="url(#p7a7ed761f1)" style="fill: #020202"/>
    <path d="M 28.166994 83.243834 
L 19.546764 95.496166 
" clip-path="url(#p7a7ed761f1)" style="fill: #020202"/>
    <path d="M 29.605529 83.699178 
L 29.605529 98.876693 
" clip-path="url(#p7a7ed761f1)" style="fill: #020202; stroke: #020202; stroke-width: 0.99"/>
    <path d="M 31.044064 83.243834 
L 42.106764 98.967762 
" clip-path="url(#p7a7ed761f1)" style="fill: #020202"/>
    <path d="M 31.715369 82.540288 
L 52.318975 95.636875 
" clip-path="url(#p7a7ed761f1)" style="fill: #020202; stroke: #020202; stroke-width: 0.99"/>
    <path d="M 18.966952 82.187898 
C 14.199279 55.100542 -7.637826 71.383274 16.962771 83.682306 
C -7.637826 71.383274 14.199279 55.100542 18.966952 82.187898 
" clip-path="url(#p7a7ed761f1)" style="fill: #020202"/>
    <path d="M 17.820522 86.71543 
L 15.594764 89.879004 
" clip-path="url(#p7a7ed761f1)" style="fill: #020202"/>
    <path d="M 19.259057 87.170775 
L 19.259057 95.405097 
" clip-path="url(#p7a7ed761f1)" style="fill: #020202"/>
    <path d="M 20.697592 86.71543 
L 29.317822 98.967762 
" clip-path="url(#p7a7ed761f1)" style="fill: #020202"/>
    <path d="M 21.368897 86.011884 
L 41.972503 99.108471 
" clip-path="url(#p7a7ed761f1)" style="fill: #020202; stroke: #020202; stroke-width: 0.99"/>
    <path d="M 21.629196 85.466037 
L 52.266915 95.746044 
" clip-path="url(#p7a7ed761f1)" style="fill: #020202; stroke: #020202; stroke-width: 0.99"/>
    <path d="M 14.874044 90.037936 
C -11.423139 76.668221 -11.423139 103.907651 14.874044 90.537936 
C -11.423139 103.907651 -11.423139 76.668221 14.874044 90.037936 
" clip-path="url(#p7a7ed761f1)" style="fill: #020202"/>
    <path d="M 15.594764 90.696867 
L 18.97135 95.496166 
" clip-path="url(#p7a7ed761f1)" style="fill: #020202"/>
    <path d="M 15.729025 90.556158 
L 29.183561 99.108471 
" clip-path="url(#p7a7ed761f1)" style="fill: #020202"/>
    <path d="M 15.781084 90.446988 
L 41.920443 99.217641 
" clip-path="url(#p7a7ed761f1)" style="fill: #020202"/>
    <path d="M 15.801521 90.362133 
L 52.246479 95.8309 
" clip-path="url(#p7a7ed761f1)" style="fill: #020202"/>
    <path d="M 18.7998 96.10279 
C -7.637826 109.192597 14.199279 125.475329 19.200636 96.401672 
C 14.199279 125.475329 -7.637826 109.192597 18.7998 96.10279 
" clip-path="url(#p7a7ed761f1)" style="fill: #020202"/>
    <path d="M 19.733085 96.064149 
L 29.131501 99.217641 
" clip-path="url(#p7a7ed761f1)" style="fill: #020202"/>
    <path d="M 19.753521 95.979294 
L 41.900007 99.302496 
" clip-path="url(#p7a7ed761f1)" style="fill: #020202"/>
    <path d="M 19.759057 95.905097 
L 52.240943 95.905097 
" clip-path="url(#p7a7ed761f1)" style="fill: #020202"/>
    <path d="M 29.289013 99.763756 
C 11.856029 123.562541 38.739396 127.952425 29.782477 99.844336 
C 38.739396 127.952425 11.856029 123.562541 29.289013 99.763756 
" clip-path="url(#p7a7ed761f1)" style="fill: #020202"/>
    <path d="M 30.105529 99.376693 
L 41.894471 99.376693 
" clip-path="url(#p7a7ed761f1)" style="fill: #020202"/>
    <path d="M 30.099993 99.302496 
L 52.246479 95.979294 
" clip-path="url(#p7a7ed761f1)" style="fill: #020202"/>
    <path d="M 42.217523 99.844336 
C 33.260604 127.952425 60.143971 123.562541 42.710987 99.763756 
C 60.143971 123.562541 33.260604 127.952425 42.217523 99.844336 
" clip-path="url(#p7a7ed761f1)" style="fill: #020202"/>
    <path d="M 42.868499 99.217641 
L 52.266915 96.064149 
" clip-path="url(#p7a7ed761f1)" style="fill: #020202"/>
    <path d="M 52.799364 96.401672 
C 57.800721 125.475329 79.637826 109.192597 53.2002 96.10279 
C 79.637826 109.192597 57.800721 125.475329 52.799364 96.401672 
" clip-path="url(#p7a7ed761f1)" style="fill: #020202"/>
   </g>
   <g id="VertexCollection_3">
    <path d="M 56.692943 90.787936 
C 56.825545 90.787936 56.952733 90.735253 57.046497 90.641489 
C 57.14026 90.547726 57.192943 90.420537 57.192943 90.287936 
C 57.192943 90.155334 57.14026 90.028146 57.046497 89.934382 
C 56.952733 89.840619 56.825545 89.787936 56.692943 89.787936 
C 56.560342 89.787936 56.433153 89.840619 56.33939 89.934382 
C 56.245627 90.028146 56.192943 90.155334 56.192943 90.287936 
C 56.192943 90.420537 56.245627 90.547726 56.33939 90.641489 
C 56.433153 90.735253 56.560342 90.787936 56.692943 90.787936 
z
" clip-path="url(#p7a7ed761f1)" style="fill: #bebebe"/>
    <path d="M 52.740943 85.170775 
C 52.873544 85.170775 53.000733 85.118091 53.094496 85.024328 
C 53.18826 84.930564 53.240943 84.803376 53.240943 84.670775 
C 53.240943 84.538173 53.18826 84.410985 53.094496 84.317221 
C 53.000733 84.223458 52.873544 84.170775 52.740943 84.170775 
C 52.608341 84.170775 52.481153 84.223458 52.38739 84.317221 
C 52.293626 84.410985 52.240943 84.538173 52.240943 84.670775 
C 52.240943 84.803376 52.293626 84.930564 52.38739 85.024328 
C 52.481153 85.118091 52.608341 85.170775 52.740943 85.170775 
z
" clip-path="url(#p7a7ed761f1)" style="fill: #bebebe"/>
    <path d="M 42.394471 83.699178 
C 43.057479 83.699178 43.693421 83.435762 44.162238 82.966945 
C 44.631055 82.498128 44.894471 81.862186 44.894471 81.199178 
C 44.894471 80.53617 44.631055 79.900228 44.162238 79.431411 
C 43.693421 78.962594 43.057479 78.699178 42.394471 78.699178 
C 41.731463 78.699178 41.095522 78.962594 40.626704 79.431411 
C 40.157887 79.900228 39.894471 80.53617 39.894471 81.199178 
C 39.894471 81.862186 40.157887 82.498128 40.626704 82.966945 
C 41.095522 83.435762 41.731463 83.699178 42.394471 83.699178 
z
" clip-path="url(#p7a7ed761f1)" style="fill: #bebebe"/>
    <path d="M 29.605529 83.699178 
C 30.268537 83.699178 30.904478 83.435762 31.373296 82.966945 
C 31.842113 82.498128 32.105529 81.862186 32.105529 81.199178 
C 32.105529 80.53617 31.842113 79.900228 31.373296 79.431411 
C 30.904478 78.962594 30.268537 78.699178 29.605529 78.699178 
C 28.942521 78.699178 28.306579 78.962594 27.837762 79.431411 
C 27.368945 79.900228 27.105529 80.53617 27.105529 81.199178 
C 27.105529 81.862186 27.368945 82.498128 27.837762 82.966945 
C 28.306579 83.435762 28.942521 83.699178 29.605529 83.699178 
z
" clip-path="url(#p7a7ed761f1)" style="fill: #bebebe"/>
    <path d="M 19.259057 87.170775 
C 19.922065 87.170775 20.558007 86.907359 21.026824 86.438541 
C 21.495641 85.969724 21.759057 85.333782 21.759057 84.670775 
C 21.759057 84.007767 21.495641 83.371825 21.026824 82.903008 
C 20.558007 82.43419 19.922065 82.170775 19.259057 82.170775 
C 18.596049 82.170775 17.960107 82.43419 17.49129 82.903008 
C 17.022473 83.371825 16.759057 84.007767 16.759057 84.670775 
C 16.759057 85.333782 17.022473 85.969724 17.49129 86.438541 
C 17.960107 86.907359 18.596049 87.170775 19.259057 87.170775 
z
" clip-path="url(#p7a7ed761f1)" style="fill: #bebebe"/>
    <path d="M 15.307057 90.787936 
C 15.439658 90.787936 15.566847 90.735253 15.66061 90.641489 
C 15.754373 90.547726 15.807057 90.420537 15.807057 90.287936 
C 15.807057 90.155334 15.754373 90.028146 15.66061 89.934382 
C 15.566847 89.840619 15.439658 89.787936 15.307057 89.787936 
C 15.174455 89.787936 15.047267 89.840619 14.953503 89.934382 
C 14.85974 90.028146 14.807057 90.155334 14.807057 90.287936 
C 14.807057 90.420537 14.85974 90.547726 14.953503 90.641489 
C 15.047267 90.735253 15.174455 90.787936 15.307057 90.787936 
z
" clip-path="url(#p7a7ed761f1)" style="fill: #bebebe"/>
    <path d="M 19.259057 96.405097 
C 19.391659 96.405097 19.518847 96.352414 19.61261 96.25865 
C 19.706374 96.164887 19.759057 96.037698 19.759057 95.905097 
C 19.759057 95.772495 19.706374 95.645307 19.61261 95.551543 
C 19.518847 95.45778 19.391659 95.405097 19.259057 95.405097 
C 19.126456 95.405097 18.999267 95.45778 18.905504 95.551543 
C 18.81174 95.645307 18.759057 95.772495 18.759057 95.905097 
C 18.759057 96.037698 18.81174 96.164887 18.905504 96.25865 
C 18.999267 96.352414 19.126456 96.405097 19.259057 96.405097 
z
" clip-path="url(#p7a7ed761f1)" style="fill: #bebebe"/>
    <path d="M 29.605529 99.876693 
C 29.73813 99.876693 29.865319 99.82401 29.959082 99.730247 
C 30.052846 99.636483 30.105529 99.509295 30.105529 99.376693 
C 30.105529 99.244092 30.052846 99.116903 29.959082 99.02314 
C 29.865319 98.929376 29.73813 98.876693 29.605529 98.876693 
C 29.472927 98.876693 29.345739 98.929376 29.251975 99.02314 
C 29.158212 99.116903 29.105529 99.244092 29.105529 99.376693 
C 29.105529 99.509295 29.158212 99.636483 29.251975 99.730247 
C 29.345739 99.82401 29.472927 99.876693 29.605529 99.876693 
z
" clip-path="url(#p7a7ed761f1)" style="fill: #bebebe"/>
    <path d="M 42.394471 99.876693 
C 42.527073 99.876693 42.654261 99.82401 42.748025 99.730247 
C 42.841788 99.636483 42.894471 99.509295 42.894471 99.376693 
C 42.894471 99.244092 42.841788 99.116903 42.748025 99.02314 
C 42.654261 98.929376 42.527073 98.876693 42.394471 98.876693 
C 42.26187 98.876693 42.134681 98.929376 42.040918 99.02314 
C 41.947154 99.116903 41.894471 99.244092 41.894471 99.376693 
C 41.894471 99.509295 41.947154 99.636483 42.040918 99.730247 
C 42.134681 99.82401 42.26187 99.876693 42.394471 99.876693 
z
" clip-path="url(#p7a7ed761f1)" style="fill: #bebebe"/>
    <path d="M 52.740943 96.405097 
C 52.873544 96.405097 53.000733 96.352414 53.094496 96.25865 
C 53.18826 96.164887 53.240943 96.037698 53.240943 95.905097 
C 53.240943 95.772495 53.18826 95.645307 53.094496 95.551543 
C 53.000733 95.45778 52.873544 95.405097 52.740943 95.405097 
C 52.608341 95.405097 52.481153 95.45778 52.38739 95.551543 
C 52.293626 95.645307 52.240943 95.772495 52.240943 95.905097 
C 52.240943 96.037698 52.293626 96.164887 52.38739 96.25865 
C 52.481153 96.352414 52.608341 96.405097 52.740943 96.405097 
z
" clip-path="url(#p7a7ed761f1)" style="fill: #bebebe"/>
   </g>
   <g id="matplotlib.axis_5"/>
   <g id="matplotlib.axis_6"/>
  </g>
  <g id="axes_4">
   <g id="patch_5">
    <path d="M 10.8 135.36 
L 61.2 135.36 
L 61.2 112.32 
L 10.8 112.32 
z
" style="fill: #ffffff"/>
   </g>
   <g id="EdgeCollection_4">
    <path d="M 57.125956 124.09 
C 83.423139 137.459715 83.423139 110.220285 57.125956 123.59 
C 83.423139 110.220285 83.423139 137.459715 57.125956 124.09 
" clip-path="url(#p8cf9167f9e)" style="fill: #020202"/>
    <path d="M 56.399503 123.435163 
L 54.208145 120.411917 
" clip-path="url(#p8cf9167f9e)" style="fill: #020202; stroke: #020202; stroke-width: 0.99"/>
    <path d="M 56.267419 123.577457 
L 42.819996 115.28059 
" clip-path="url(#p8cf9167f9e)" style="fill: #020202"/>
    <path d="M 56.217522 123.685163 
L 31.982635 115.792234 
" clip-path="url(#p8cf9167f9e)" style="fill: #020202"/>
    <path d="M 56.198164 123.767935 
L 19.753837 118.459798 
" clip-path="url(#p8cf9167f9e)" style="fill: #020202"/>
    <path d="M 56.192943 123.84 
L 15.807057 123.84 
" clip-path="url(#p8cf9167f9e)" style="fill: #020202"/>
    <path d="M 56.198164 123.912065 
L 19.753837 129.220202 
" clip-path="url(#p8cf9167f9e)" style="fill: #020202"/>
    <path d="M 56.217522 123.994837 
L 31.982635 131.887766 
" clip-path="url(#p8cf9167f9e)" style="fill: #020202"/>
    <path d="M 56.267419 124.102543 
L 44.522095 131.34924 
" clip-path="url(#p8cf9167f9e)" style="fill: #020202"/>
    <path d="M 56.399503 124.244837 
L 53.034383 128.88743 
" clip-path="url(#p8cf9167f9e)" style="fill: #020202"/>
    <path d="M 55.025726 117.372958 
C 79.483449 104.792206 57.460782 88.761341 53.004513 115.901666 
C 57.460782 88.761341 79.483449 104.792206 55.025726 117.372958 
" clip-path="url(#p8cf9167f9e)" style="fill: #020202"/>
    <path d="M 50.363837 117.613546 
L 42.869892 115.172884 
" clip-path="url(#p8cf9167f9e)" style="fill: #020202"/>
    <path d="M 50.267046 118.027409 
L 32.079426 115.378371 
" clip-path="url(#p8cf9167f9e)" style="fill: #020202; stroke: #020202; stroke-width: 0.99"/>
    <path d="M 50.240943 118.387733 
L 19.759057 118.387733 
" clip-path="url(#p8cf9167f9e)" style="fill: #020202"/>
    <path d="M 50.267046 118.748058 
L 15.801836 123.767935 
" clip-path="url(#p8cf9167f9e)" style="fill: #020202"/>
    <path d="M 50.363837 119.16192 
L 19.734478 129.13743 
" clip-path="url(#p8cf9167f9e)" style="fill: #020202"/>
    <path d="M 50.613319 119.700447 
L 31.733153 131.34924 
" clip-path="url(#p8cf9167f9e)" style="fill: #020202; stroke: #020202; stroke-width: 0.99"/>
    <path d="M 51.273741 120.411917 
L 43.861673 130.63777 
" clip-path="url(#p8cf9167f9e)" style="fill: #020202"/>
    <path d="M 52.740943 120.887733 
L 52.740943 128.792267 
" clip-path="url(#p8cf9167f9e)" style="fill: #020202"/>
    <path d="M 42.709266 114.629583 
C 60.036421 90.753637 33.133829 86.483147 42.215449 114.551195 
C 33.133829 86.483147 60.036421 90.753637 42.709266 114.629583 
" clip-path="url(#p8cf9167f9e)" style="fill: #020202"/>
    <path d="M 41.894471 115.018047 
L 32.105529 115.018047 
" clip-path="url(#p8cf9167f9e)" style="fill: #020202"/>
    <path d="M 41.899692 115.090112 
L 19.753837 118.315668 
" clip-path="url(#p8cf9167f9e)" style="fill: #020202; stroke: #020202; stroke-width: 0.99"/>
    <path d="M 41.91905 115.172884 
L 15.782478 123.685163 
" clip-path="url(#p8cf9167f9e)" style="fill: #020202"/>
    <path d="M 41.968946 115.28059 
L 19.684582 129.029724 
" clip-path="url(#p8cf9167f9e)" style="fill: #020202"/>
    <path d="M 42.101031 115.422884 
L 31.07273 130.63777 
" clip-path="url(#p8cf9167f9e)" style="fill: #020202"/>
    <path d="M 42.394471 115.518047 
L 42.394471 130.161953 
" clip-path="url(#p8cf9167f9e)" style="fill: #020202"/>
    <path d="M 42.687912 115.422884 
L 52.447503 128.88743 
" clip-path="url(#p8cf9167f9e)" style="fill: #020202"/>
    <path d="M 30.500641 112.683786 
C 38.866171 86.483147 11.963579 90.753637 28.031556 113.075726 
C 11.963579 90.753637 38.866171 86.483147 30.500641 112.683786 
" clip-path="url(#p8cf9167f9e)" style="fill: #020202"/>
    <path d="M 27.228422 115.792234 
L 19.734478 118.232896 
" clip-path="url(#p8cf9167f9e)" style="fill: #020202"/>
    <path d="M 27.477905 116.33076 
L 15.732581 123.577457 
" clip-path="url(#p8cf9167f9e)" style="fill: #020202"/>
    <path d="M 28.138327 117.04223 
L 19.552497 128.88743 
" clip-path="url(#p8cf9167f9e)" style="fill: #020202"/>
    <path d="M 29.605529 117.518047 
L 29.605529 130.161953 
" clip-path="url(#p8cf9167f9e)" style="fill: #020202; stroke: #020202; stroke-width: 0.99"/>
    <path d="M 31.07273 117.04223 
L 40.92727 130.63777 
" clip-path="url(#p8cf9167f9e)" style="fill: #020202"/>
    <path d="M 31.733153 116.33076 
L 52.315418 129.029724 
" clip-path="url(#p8cf9167f9e)" style="fill: #020202; stroke: #020202; stroke-width: 0.99"/>
    <path d="M 19.206343 117.89052 
C 14.539218 88.761341 -7.483449 104.792206 18.802101 118.184778 
C -7.483449 104.792206 14.539218 88.761341 19.206343 117.89052 
" clip-path="url(#p8cf9167f9e)" style="fill: #020202"/>
    <path d="M 18.965617 118.79257 
L 15.600497 123.435163 
" clip-path="url(#p8cf9167f9e)" style="fill: #020202"/>
    <path d="M 19.259057 118.887733 
L 19.259057 128.792267 
" clip-path="url(#p8cf9167f9e)" style="fill: #020202"/>
    <path d="M 19.552497 118.79257 
L 28.138327 130.63777 
" clip-path="url(#p8cf9167f9e)" style="fill: #020202"/>
    <path d="M 19.684582 118.650276 
L 40.266847 131.34924 
" clip-path="url(#p8cf9167f9e)" style="fill: #020202; stroke: #020202; stroke-width: 0.99"/>
    <path d="M 19.734478 118.54257 
L 52.265522 129.13743 
" clip-path="url(#p8cf9167f9e)" style="fill: #020202"/>
    <path d="M 14.874044 123.59 
C -11.423139 110.220285 -11.423139 137.459715 14.874044 124.09 
C -11.423139 137.459715 -11.423139 110.220285 14.874044 123.59 
" clip-path="url(#p8cf9167f9e)" style="fill: #020202"/>
    <path d="M 15.600497 124.244837 
L 18.965617 128.88743 
" clip-path="url(#p8cf9167f9e)" style="fill: #020202"/>
    <path d="M 15.732581 124.102543 
L 27.477905 131.34924 
" clip-path="url(#p8cf9167f9e)" style="fill: #020202"/>
    <path d="M 15.782478 123.994837 
L 40.017365 131.887766 
" clip-path="url(#p8cf9167f9e)" style="fill: #020202; stroke: #020202; stroke-width: 0.99"/>
    <path d="M 15.801836 123.912065 
L 52.246163 129.220202 
" clip-path="url(#p8cf9167f9e)" style="fill: #020202; stroke: #020202; stroke-width: 0.99"/>
    <path d="M 18.802101 129.495222 
C -7.483449 142.887794 14.539218 158.918659 19.206343 129.78948 
C 14.539218 158.918659 -7.483449 142.887794 18.802101 129.495222 
" clip-path="url(#p8cf9167f9e)" style="fill: #020202"/>
    <path d="M 19.734478 129.447104 
L 27.228422 131.887766 
" clip-path="url(#p8cf9167f9e)" style="fill: #020202"/>
    <path d="M 19.753837 129.364332 
L 39.920574 132.301629 
" clip-path="url(#p8cf9167f9e)" style="fill: #020202"/>
    <path d="M 19.759057 129.292267 
L 52.240943 129.292267 
" clip-path="url(#p8cf9167f9e)" style="fill: #020202"/>
    <path d="M 28.031556 134.604274 
C 11.963579 156.926363 38.866171 161.196853 30.500641 134.996214 
C 38.866171 161.196853 11.963579 156.926363 28.031556 134.604274 
" clip-path="url(#p8cf9167f9e)" style="fill: #020202"/>
    <path d="M 32.105529 132.661953 
L 39.894471 132.661953 
" clip-path="url(#p8cf9167f9e)" style="fill: #020202; stroke: #020202; stroke-width: 0.99"/>
    <path d="M 32.079426 132.301629 
L 52.246163 129.364332 
" clip-path="url(#p8cf9167f9e)" style="fill: #020202"/>
    <path d="M 41.499359 134.996214 
C 33.133829 161.196853 60.036421 156.926363 43.968444 134.604274 
C 60.036421 156.926363 33.133829 161.196853 41.499359 134.996214 
" clip-path="url(#p8cf9167f9e)" style="fill: #020202"/>
    <path d="M 44.771578 131.887766 
L 52.265522 129.447104 
" clip-path="url(#p8cf9167f9e)" style="fill: #020202"/>
    <path d="M 52.793657 129.78948 
C 57.460782 158.918659 79.483449 142.887794 53.197899 129.495222 
C 79.483449 142.887794 57.460782 158.918659 52.793657 129.78948 
" clip-path="url(#p8cf9167f9e)" style="fill: #020202"/>
   </g>
   <g id="VertexCollection_4">
    <path d="M 56.692943 124.34 
C 56.825545 124.34 56.952733 124.287317 57.046497 124.193553 
C 57.14026 124.09979 57.192943 123.972602 57.192943 123.84 
C 57.192943 123.707398 57.14026 123.58021 57.046497 123.486447 
C 56.952733 123.392683 56.825545 123.34 56.692943 123.34 
C 56.560342 123.34 56.433153 123.392683 56.33939 123.486447 
C 56.245627 123.58021 56.192943 123.707398 56.192943 123.84 
C 56.192943 123.972602 56.245627 124.09979 56.33939 124.193553 
C 56.433153 124.287317 56.560342 124.34 56.692943 124.34 
z
" clip-path="url(#p8cf9167f9e)" style="fill: #bebebe"/>
    <path d="M 52.740943 120.887733 
C 53.403951 120.887733 54.039893 120.624317 54.50871 120.1555 
C 54.977527 119.686683 55.240943 119.050741 55.240943 118.387733 
C 55.240943 117.724725 54.977527 117.088783 54.50871 116.619966 
C 54.039893 116.151149 53.403951 115.887733 52.740943 115.887733 
C 52.077935 115.887733 51.441993 116.151149 50.973176 116.619966 
C 50.504359 117.088783 50.240943 117.724725 50.240943 118.387733 
C 50.240943 119.050741 50.504359 119.686683 50.973176 120.1555 
C 51.441993 120.624317 52.077935 120.887733 52.740943 120.887733 
z
" clip-path="url(#p8cf9167f9e)" style="fill: #bebebe"/>
    <path d="M 42.394471 115.518047 
C 42.527073 115.518047 42.654261 115.465364 42.748025 115.3716 
C 42.841788 115.277837 42.894471 115.150648 42.894471 115.018047 
C 42.894471 114.885445 42.841788 114.758257 42.748025 114.664493 
C 42.654261 114.57073 42.527073 114.518047 42.394471 114.518047 
C 42.26187 114.518047 42.134681 114.57073 42.040918 114.664493 
C 41.947154 114.758257 41.894471 114.885445 41.894471 115.018047 
C 41.894471 115.150648 41.947154 115.277837 42.040918 115.3716 
C 42.134681 115.465364 42.26187 115.518047 42.394471 115.518047 
z
" clip-path="url(#p8cf9167f9e)" style="fill: #bebebe"/>
    <path d="M 29.605529 117.518047 
C 30.268537 117.518047 30.904478 117.254631 31.373296 116.785814 
C 31.842113 116.316996 32.105529 115.681055 32.105529 115.018047 
C 32.105529 114.355039 31.842113 113.719097 31.373296 113.25028 
C 30.904478 112.781463 30.268537 112.518047 29.605529 112.518047 
C 28.942521 112.518047 28.306579 112.781463 27.837762 113.25028 
C 27.368945 113.719097 27.105529 114.355039 27.105529 115.018047 
C 27.105529 115.681055 27.368945 116.316996 27.837762 116.785814 
C 28.306579 117.254631 28.942521 117.518047 29.605529 117.518047 
z
" clip-path="url(#p8cf9167f9e)" style="fill: #bebebe"/>
    <path d="M 19.259057 118.887733 
C 19.391659 118.887733 19.518847 118.83505 19.61261 118.741286 
C 19.706374 118.647523 19.759057 118.520335 19.759057 118.387733 
C 19.759057 118.255132 19.706374 118.127943 19.61261 118.03418 
C 19.518847 117.940416 19.391659 117.887733 19.259057 117.887733 
C 19.126456 117.887733 18.999267 117.940416 18.905504 118.03418 
C 18.81174 118.127943 18.759057 118.255132 18.759057 118.387733 
C 18.759057 118.520335 18.81174 118.647523 18.905504 118.741286 
C 18.999267 118.83505 19.126456 118.887733 19.259057 118.887733 
z
" clip-path="url(#p8cf9167f9e)" style="fill: #bebebe"/>
    <path d="M 15.307057 124.34 
C 15.439658 124.34 15.566847 124.287317 15.66061 124.193553 
C 15.754373 124.09979 15.807057 123.972602 15.807057 123.84 
C 15.807057 123.707398 15.754373 123.58021 15.66061 123.486447 
C 15.566847 123.392683 15.439658 123.34 15.307057 123.34 
C 15.174455 123.34 15.047267 123.392683 14.953503 123.486447 
C 14.85974 123.58021 14.807057 123.707398 14.807057 123.84 
C 14.807057 123.972602 14.85974 124.09979 14.953503 124.193553 
C 15.047267 124.287317 15.174455 124.34 15.307057 124.34 
z
" clip-path="url(#p8cf9167f9e)" style="fill: #bebebe"/>
    <path d="M 19.259057 129.792267 
C 19.391659 129.792267 19.518847 129.739584 19.61261 129.64582 
C 19.706374 129.552057 19.759057 129.424868 19.759057 129.292267 
C 19.759057 129.159665 19.706374 129.032477 19.61261 128.938714 
C 19.518847 128.84495 19.391659 128.792267 19.259057 128.792267 
C 19.126456 128.792267 18.999267 128.84495 18.905504 128.938714 
C 18.81174 129.032477 18.759057 129.159665 18.759057 129.292267 
C 18.759057 129.424868 18.81174 129.552057 18.905504 129.64582 
C 18.999267 129.739584 19.126456 129.792267 19.259057 129.792267 
z
" clip-path="url(#p8cf9167f9e)" style="fill: #bebebe"/>
    <path d="M 29.605529 135.161953 
C 30.268537 135.161953 30.904478 134.898537 31.373296 134.42972 
C 31.842113 133.960903 32.105529 133.324961 32.105529 132.661953 
C 32.105529 131.998945 31.842113 131.363004 31.373296 130.894186 
C 30.904478 130.425369 30.268537 130.161953 29.605529 130.161953 
C 28.942521 130.161953 28.306579 130.425369 27.837762 130.894186 
C 27.368945 131.363004 27.105529 131.998945 27.105529 132.661953 
C 27.105529 133.324961 27.368945 133.960903 27.837762 134.42972 
C 28.306579 134.898537 28.942521 135.161953 29.605529 135.161953 
z
" clip-path="url(#p8cf9167f9e)" style="fill: #bebebe"/>
    <path d="M 42.394471 135.161953 
C 43.057479 135.161953 43.693421 134.898537 44.162238 134.42972 
C 44.631055 133.960903 44.894471 133.324961 44.894471 132.661953 
C 44.894471 131.998945 44.631055 131.363004 44.162238 130.894186 
C 43.693421 130.425369 43.057479 130.161953 42.394471 130.161953 
C 41.731463 130.161953 41.095522 130.425369 40.626704 130.894186 
C 40.157887 131.363004 39.894471 131.998945 39.894471 132.661953 
C 39.894471 133.324961 40.157887 133.960903 40.626704 134.42972 
C 41.095522 134.898537 41.731463 135.161953 42.394471 135.161953 
z
" clip-path="url(#p8cf9167f9e)" style="fill: #bebebe"/>
    <path d="M 52.740943 129.792267 
C 52.873544 129.792267 53.000733 129.739584 53.094496 129.64582 
C 53.18826 129.552057 53.240943 129.424868 53.240943 129.292267 
C 53.240943 129.159665 53.18826 129.032477 53.094496 128.938714 
C 53.000733 128.84495 52.873544 128.792267 52.740943 128.792267 
C 52.608341 128.792267 52.481153 128.84495 52.38739 128.938714 
C 52.293626 129.032477 52.240943 129.159665 52.240943 129.292267 
C 52.240943 129.424868 52.293626 129.552057 52.38739 129.64582 
C 52.481153 129.739584 52.608341 129.792267 52.740943 129.792267 
z
" clip-path="url(#p8cf9167f9e)" style="fill: #bebebe"/>
   </g>
   <g id="matplotlib.axis_7"/>
   <g id="matplotlib.axis_8"/>
  </g>
  <g id="axes_5">
   <g id="patch_6">
    <path d="M 10.8 169.2 
L 61.2 169.2 
L 61.2 146.16 
L 10.8 146.16 
z
" style="fill: #ffffff"/>
   </g>
   <g id="EdgeCollection_5">
    <path d="M 57.125956 157.93 
C 83.423139 171.299715 83.423139 144.060285 57.125956 157.43 
C 83.423139 144.060285 83.423139 171.299715 57.125956 157.93 
" clip-path="url(#p3d0d3bef99)" style="fill: #020202"/>
    <path d="M 56.399503 157.275163 
L 53.034383 152.63257 
" clip-path="url(#p3d0d3bef99)" style="fill: #020202"/>
    <path d="M 56.267419 157.417457 
L 42.819996 149.12059 
" clip-path="url(#p3d0d3bef99)" style="fill: #020202"/>
    <path d="M 56.217522 157.525163 
L 31.982635 149.632234 
" clip-path="url(#p3d0d3bef99)" style="fill: #020202"/>
    <path d="M 56.198164 157.607935 
L 21.732954 152.588058 
" clip-path="url(#p3d0d3bef99)" style="fill: #020202"/>
    <path d="M 56.192943 157.68 
L 15.807057 157.68 
" clip-path="url(#p3d0d3bef99)" style="fill: #020202"/>
    <path d="M 56.198164 157.752065 
L 19.753837 163.060202 
" clip-path="url(#p3d0d3bef99)" style="fill: #020202"/>
    <path d="M 56.217522 157.834837 
L 31.982635 165.727766 
" clip-path="url(#p3d0d3bef99)" style="fill: #020202"/>
    <path d="M 56.267419 157.942543 
L 42.819996 166.23941 
" clip-path="url(#p3d0d3bef99)" style="fill: #020202; stroke: #020202; stroke-width: 0.99"/>
    <path d="M 56.399503 158.084837 
L 54.208145 161.108083 
" clip-path="url(#p3d0d3bef99)" style="fill: #020202"/>
    <path d="M 53.197899 152.024778 
C 79.483449 138.632206 57.460782 122.601341 52.793657 151.73052 
C 57.460782 122.601341 79.483449 138.632206 53.197899 152.024778 
" clip-path="url(#p3d0d3bef99)" style="fill: #020202"/>
    <path d="M 52.265522 152.072896 
L 42.869892 149.012884 
" clip-path="url(#p3d0d3bef99)" style="fill: #020202"/>
    <path d="M 52.246163 152.155668 
L 32.079426 149.218371 
" clip-path="url(#p3d0d3bef99)" style="fill: #020202"/>
    <path d="M 52.240943 152.227733 
L 21.759057 152.227733 
" clip-path="url(#p3d0d3bef99)" style="fill: #020202"/>
    <path d="M 52.246163 152.299798 
L 15.801836 157.607935 
" clip-path="url(#p3d0d3bef99)" style="fill: #020202"/>
    <path d="M 52.265522 152.38257 
L 19.734478 162.97743 
" clip-path="url(#p3d0d3bef99)" style="fill: #020202"/>
    <path d="M 52.315418 152.490276 
L 31.733153 165.18924 
" clip-path="url(#p3d0d3bef99)" style="fill: #020202; stroke: #020202; stroke-width: 0.99"/>
    <path d="M 52.447503 152.63257 
L 42.687912 166.097116 
" clip-path="url(#p3d0d3bef99)" style="fill: #020202"/>
    <path d="M 52.740943 152.727733 
L 52.740943 160.632267 
" clip-path="url(#p3d0d3bef99)" style="fill: #020202"/>
    <path d="M 42.709266 148.469583 
C 60.036421 124.593637 33.133829 120.323147 42.215449 148.391195 
C 33.133829 120.323147 60.036421 124.593637 42.709266 148.469583 
" clip-path="url(#p3d0d3bef99)" style="fill: #020202"/>
    <path d="M 41.894471 148.858047 
L 32.105529 148.858047 
" clip-path="url(#p3d0d3bef99)" style="fill: #020202"/>
    <path d="M 41.899692 148.930112 
L 21.732954 151.867409 
" clip-path="url(#p3d0d3bef99)" style="fill: #020202; stroke: #020202; stroke-width: 0.99"/>
    <path d="M 41.91905 149.012884 
L 15.782478 157.525163 
" clip-path="url(#p3d0d3bef99)" style="fill: #020202"/>
    <path d="M 41.968946 149.12059 
L 19.684582 162.869724 
" clip-path="url(#p3d0d3bef99)" style="fill: #020202"/>
    <path d="M 42.101031 149.262884 
L 31.07273 164.47777 
" clip-path="url(#p3d0d3bef99)" style="fill: #020202"/>
    <path d="M 42.394471 149.358047 
L 42.394471 166.001953 
" clip-path="url(#p3d0d3bef99)" style="fill: #020202"/>
    <path d="M 42.687912 149.262884 
L 51.273741 161.108083 
" clip-path="url(#p3d0d3bef99)" style="fill: #020202"/>
    <path d="M 30.500641 146.523786 
C 38.866171 120.323147 11.963579 124.593637 28.031556 146.915726 
C 11.963579 124.593637 38.866171 120.323147 30.500641 146.523786 
" clip-path="url(#p3d0d3bef99)" style="fill: #020202"/>
    <path d="M 27.228422 149.632234 
L 21.636163 151.453546 
" clip-path="url(#p3d0d3bef99)" style="fill: #020202; stroke: #020202; stroke-width: 0.99"/>
    <path d="M 27.477905 150.17076 
L 15.732581 157.417457 
" clip-path="url(#p3d0d3bef99)" style="fill: #020202"/>
    <path d="M 28.138327 150.88223 
L 19.552497 162.72743 
" clip-path="url(#p3d0d3bef99)" style="fill: #020202"/>
    <path d="M 29.605529 151.358047 
L 29.605529 164.001953 
" clip-path="url(#p3d0d3bef99)" style="fill: #020202; stroke: #020202; stroke-width: 0.99"/>
    <path d="M 31.07273 150.88223 
L 42.101031 166.097116 
" clip-path="url(#p3d0d3bef99)" style="fill: #020202"/>
    <path d="M 31.733153 150.17076 
L 50.613319 161.819553 
" clip-path="url(#p3d0d3bef99)" style="fill: #020202; stroke: #020202; stroke-width: 0.99"/>
    <path d="M 18.995487 149.741666 
C 14.539218 122.601341 -7.483449 138.632206 16.974274 151.212958 
C -7.483449 138.632206 14.539218 122.601341 18.995487 149.741666 
" clip-path="url(#p3d0d3bef99)" style="fill: #020202"/>
    <path d="M 17.791855 154.251917 
L 15.600497 157.275163 
" clip-path="url(#p3d0d3bef99)" style="fill: #020202"/>
    <path d="M 19.259057 154.727733 
L 19.259057 162.632267 
" clip-path="url(#p3d0d3bef99)" style="fill: #020202"/>
    <path d="M 20.726259 154.251917 
L 28.138327 164.47777 
" clip-path="url(#p3d0d3bef99)" style="fill: #020202"/>
    <path d="M 21.386681 153.540447 
L 41.968946 166.23941 
" clip-path="url(#p3d0d3bef99)" style="fill: #020202"/>
    <path d="M 21.636163 153.00192 
L 50.363837 162.35808 
" clip-path="url(#p3d0d3bef99)" style="fill: #020202; stroke: #020202; stroke-width: 0.99"/>
    <path d="M 14.874044 157.43 
C -11.423139 144.060285 -11.423139 171.299715 14.874044 157.93 
C -11.423139 171.299715 -11.423139 144.060285 14.874044 157.43 
" clip-path="url(#p3d0d3bef99)" style="fill: #020202"/>
    <path d="M 15.600497 158.084837 
L 18.965617 162.72743 
" clip-path="url(#p3d0d3bef99)" style="fill: #020202"/>
    <path d="M 15.732581 157.942543 
L 27.477905 165.18924 
" clip-path="url(#p3d0d3bef99)" style="fill: #020202"/>
    <path d="M 15.782478 157.834837 
L 41.91905 166.347116 
" clip-path="url(#p3d0d3bef99)" style="fill: #020202"/>
    <path d="M 15.801836 157.752065 
L 50.267046 162.771942 
" clip-path="url(#p3d0d3bef99)" style="fill: #020202; stroke: #020202; stroke-width: 0.99"/>
    <path d="M 18.802101 163.335222 
C -7.483449 176.727794 14.539218 192.758659 19.206343 163.62948 
C 14.539218 192.758659 -7.483449 176.727794 18.802101 163.335222 
" clip-path="url(#p3d0d3bef99)" style="fill: #020202"/>
    <path d="M 19.734478 163.287104 
L 27.228422 165.727766 
" clip-path="url(#p3d0d3bef99)" style="fill: #020202"/>
    <path d="M 19.753837 163.204332 
L 41.899692 166.429888 
" clip-path="url(#p3d0d3bef99)" style="fill: #020202"/>
    <path d="M 19.759057 163.132267 
L 50.240943 163.132267 
" clip-path="url(#p3d0d3bef99)" style="fill: #020202"/>
    <path d="M 28.031556 168.444274 
C 11.963579 190.766363 38.866171 195.036853 30.500641 168.836214 
C 38.866171 195.036853 11.963579 190.766363 28.031556 168.444274 
" clip-path="url(#p3d0d3bef99)" style="fill: #020202"/>
    <path d="M 32.105529 166.501953 
L 41.894471 166.501953 
" clip-path="url(#p3d0d3bef99)" style="fill: #020202; stroke: #020202; stroke-width: 0.99"/>
    <path d="M 32.079426 166.141629 
L 50.267046 163.492591 
" clip-path="url(#p3d0d3bef99)" style="fill: #020202"/>
    <path d="M 42.215449 166.968805 
C 33.133829 195.036853 60.036421 190.766363 42.709266 166.890417 
C 60.036421 190.766363 33.133829 195.036853 42.215449 166.968805 
" clip-path="url(#p3d0d3bef99)" style="fill: #020202"/>
    <path d="M 42.869892 166.347116 
L 50.363837 163.906454 
" clip-path="url(#p3d0d3bef99)" style="fill: #020202"/>
    <path d="M 53.004513 165.618334 
C 57.460782 192.758659 79.483449 176.727794 55.025726 164.147042 
C 79.483449 176.727794 57.460782 192.758659 53.004513 165.618334 
" clip-path="url(#p3d0d3bef99)" style="fill: #020202"/>
   </g>
   <g id="VertexCollection_5">
    <path d="M 56.692943 158.18 
C 56.825545 158.18 56.952733 158.127317 57.046497 158.033553 
C 57.14026 157.93979 57.192943 157.812602 57.192943 157.68 
C 57.192943 157.547398 57.14026 157.42021 57.046497 157.326447 
C 56.952733 157.232683 56.825545 157.18 56.692943 157.18 
C 56.560342 157.18 56.433153 157.232683 56.33939 157.326447 
C 56.245627 157.42021 56.192943 157.547398 56.192943 157.68 
C 56.192943 157.812602 56.245627 157.93979 56.33939 158.033553 
C 56.433153 158.127317 56.560342 158.18 56.692943 158.18 
z
" clip-path="url(#p3d0d3bef99)" style="fill: #bebebe"/>
    <path d="M 52.740943 152.727733 
C 52.873544 152.727733 53.000733 152.67505 53.094496 152.581286 
C 53.18826 152.487523 53.240943 152.360335 53.240943 152.227733 
C 53.240943 152.095132 53.18826 151.967943 53.094496 151.87418 
C 53.000733 151.780416 52.873544 151.727733 52.740943 151.727733 
C 52.608341 151.727733 52.481153 151.780416 52.38739 151.87418 
C 52.293626 151.967943 52.240943 152.095132 52.240943 152.227733 
C 52.240943 152.360335 52.293626 152.487523 52.38739 152.581286 
C 52.481153 152.67505 52.608341 152.727733 52.740943 152.727733 
z
" clip-path="url(#p3d0d3bef99)" style="fill: #bebebe"/>
    <path d="M 42.394471 149.358047 
C 42.527073 149.358047 42.654261 149.305364 42.748025 149.2116 
C 42.841788 149.117837 42.894471 148.990648 42.894471 148.858047 
C 42.894471 148.725445 42.841788 148.598257 42.748025 148.504493 
C 42.654261 148.41073 42.527073 148.358047 42.394471 148.358047 
C 42.26187 148.358047 42.134681 148.41073 42.040918 148.504493 
C 41.947154 148.598257 41.894471 148.725445 41.894471 148.858047 
C 41.894471 148.990648 41.947154 149.117837 42.040918 149.2116 
C 42.134681 149.305364 42.26187 149.358047 42.394471 149.358047 
z
" clip-path="url(#p3d0d3bef99)" style="fill: #bebebe"/>
    <path d="M 29.605529 151.358047 
C 30.268537 151.358047 30.904478 151.094631 31.373296 150.625814 
C 31.842113 150.156996 32.105529 149.521055 32.105529 148.858047 
C 32.105529 148.195039 31.842113 147.559097 31.373296 147.09028 
C 30.904478 146.621463 30.268537 146.358047 29.605529 146.358047 
C 28.942521 146.358047 28.306579 146.621463 27.837762 147.09028 
C 27.368945 147.559097 27.105529 148.195039 27.105529 148.858047 
C 27.105529 149.521055 27.368945 150.156996 27.837762 150.625814 
C 28.306579 151.094631 28.942521 151.358047 29.605529 151.358047 
z
" clip-path="url(#p3d0d3bef99)" style="fill: #bebebe"/>
    <path d="M 19.259057 154.727733 
C 19.922065 154.727733 20.558007 154.464317 21.026824 153.9955 
C 21.495641 153.526683 21.759057 152.890741 21.759057 152.227733 
C 21.759057 151.564725 21.495641 150.928783 21.026824 150.459966 
C 20.558007 149.991149 19.922065 149.727733 19.259057 149.727733 
C 18.596049 149.727733 17.960107 149.991149 17.49129 150.459966 
C 17.022473 150.928783 16.759057 151.564725 16.759057 152.227733 
C 16.759057 152.890741 17.022473 153.526683 17.49129 153.9955 
C 17.960107 154.464317 18.596049 154.727733 19.259057 154.727733 
z
" clip-path="url(#p3d0d3bef99)" style="fill: #bebebe"/>
    <path d="M 15.307057 158.18 
C 15.439658 158.18 15.566847 158.127317 15.66061 158.033553 
C 15.754373 157.93979 15.807057 157.812602 15.807057 157.68 
C 15.807057 157.547398 15.754373 157.42021 15.66061 157.326447 
C 15.566847 157.232683 15.439658 157.18 15.307057 157.18 
C 15.174455 157.18 15.047267 157.232683 14.953503 157.326447 
C 14.85974 157.42021 14.807057 157.547398 14.807057 157.68 
C 14.807057 157.812602 14.85974 157.93979 14.953503 158.033553 
C 15.047267 158.127317 15.174455 158.18 15.307057 158.18 
z
" clip-path="url(#p3d0d3bef99)" style="fill: #bebebe"/>
    <path d="M 19.259057 163.632267 
C 19.391659 163.632267 19.518847 163.579584 19.61261 163.48582 
C 19.706374 163.392057 19.759057 163.264868 19.759057 163.132267 
C 19.759057 162.999665 19.706374 162.872477 19.61261 162.778714 
C 19.518847 162.68495 19.391659 162.632267 19.259057 162.632267 
C 19.126456 162.632267 18.999267 162.68495 18.905504 162.778714 
C 18.81174 162.872477 18.759057 162.999665 18.759057 163.132267 
C 18.759057 163.264868 18.81174 163.392057 18.905504 163.48582 
C 18.999267 163.579584 19.126456 163.632267 19.259057 163.632267 
z
" clip-path="url(#p3d0d3bef99)" style="fill: #bebebe"/>
    <path d="M 29.605529 169.001953 
C 30.268537 169.001953 30.904478 168.738537 31.373296 168.26972 
C 31.842113 167.800903 32.105529 167.164961 32.105529 166.501953 
C 32.105529 165.838945 31.842113 165.203004 31.373296 164.734186 
C 30.904478 164.265369 30.268537 164.001953 29.605529 164.001953 
C 28.942521 164.001953 28.306579 164.265369 27.837762 164.734186 
C 27.368945 165.203004 27.105529 165.838945 27.105529 166.501953 
C 27.105529 167.164961 27.368945 167.800903 27.837762 168.26972 
C 28.306579 168.738537 28.942521 169.001953 29.605529 169.001953 
z
" clip-path="url(#p3d0d3bef99)" style="fill: #bebebe"/>
    <path d="M 42.394471 167.001953 
C 42.527073 167.001953 42.654261 166.94927 42.748025 166.855507 
C 42.841788 166.761743 42.894471 166.634555 42.894471 166.501953 
C 42.894471 166.369352 42.841788 166.242163 42.748025 166.1484 
C 42.654261 166.054636 42.527073 166.001953 42.394471 166.001953 
C 42.26187 166.001953 42.134681 166.054636 42.040918 166.1484 
C 41.947154 166.242163 41.894471 166.369352 41.894471 166.501953 
C 41.894471 166.634555 41.947154 166.761743 42.040918 166.855507 
C 42.134681 166.94927 42.26187 167.001953 42.394471 167.001953 
z
" clip-path="url(#p3d0d3bef99)" style="fill: #bebebe"/>
    <path d="M 52.740943 165.632267 
C 53.403951 165.632267 54.039893 165.368851 54.50871 164.900034 
C 54.977527 164.431217 55.240943 163.795275 55.240943 163.132267 
C 55.240943 162.469259 54.977527 161.833317 54.50871 161.3645 
C 54.039893 160.895683 53.403951 160.632267 52.740943 160.632267 
C 52.077935 160.632267 51.441993 160.895683 50.973176 161.3645 
C 50.504359 161.833317 50.240943 162.469259 50.240943 163.132267 
C 50.240943 163.795275 50.504359 164.431217 50.973176 164.900034 
C 51.441993 165.368851 52.077935 165.632267 52.740943 165.632267 
z
" clip-path="url(#p3d0d3bef99)" style="fill: #bebebe"/>
   </g>
   <g id="matplotlib.axis_9"/>
   <g id="matplotlib.axis_10"/>
  </g>
 </g>
 <defs>
  <clipPath id="p1509ccda2e">
   <rect x="10.8" y="10.8" width="50.4" height="23.04"/>
  </clipPath>
  <clipPath id="p3e1585b76a">
   <rect x="10.8" y="44.64" width="50.4" height="23.04"/>
  </clipPath>
  <clipPath id="p7a7ed761f1">
   <rect x="10.8" y="78.48" width="50.4" height="23.04"/>
  </clipPath>
  <clipPath id="p8cf9167f9e">
   <rect x="10.8" y="112.32" width="50.4" height="23.04"/>
  </clipPath>
  <clipPath id="p3d0d3bef99">
   <rect x="10.8" y="146.16" width="50.4" height="23.04"/>
  </clipPath>
 </defs>
</svg>
