<?xml version="1.0" encoding="utf-8" standalone="no"?>
<!DOCTYPE svg PUBLIC "-//W3C//DTD SVG 1.1//EN"
  "http://www.w3.org/Graphics/SVG/1.1/DTD/svg11.dtd">
<svg xmlns:xlink="http://www.w3.org/1999/xlink" width="216pt" height="864pt" viewBox="0 0 216 864" xmlns="http://www.w3.org/2000/svg" version="1.1">
 <metadata>
  <rdf:RDF xmlns:dc="http://purl.org/dc/elements/1.1/" xmlns:cc="http://creativecommons.org/ns#" xmlns:rdf="http://www.w3.org/1999/02/22-rdf-syntax-ns#">
   <cc:Work>
    <dc:type rdf:resource="http://purl.org/dc/dcmitype/StillImage"/>
    <dc:date>2025-06-05T19:26:38.527236</dc:date>
    <dc:format>image/svg+xml</dc:format>
    <dc:creator>
     <cc:Agent>
      <dc:title>Matplotlib v3.7.5, https://matplotlib.org/</dc:title>
     </cc:Agent>
    </dc:creator>
   </cc:Work>
  </rdf:RDF>
 </metadata>
 <defs>
  <style type="text/css">*{stroke-linejoin: round; stroke-linecap: butt}</style>
 </defs>
 <g id="figure_1">
  <g id="patch_1">
   <path d="M 0 864 
L 216 864 
L 216 0 
L 0 0 
z
" style="fill: #ffffff"/>
  </g>
  <g id="axes_1">
   <g id="patch_2">
    <path d="M 27 218.383448 
L 194.4 218.383448 
L 194.4 103.68 
L 27 103.68 
z
" style="fill: #ffffff"/>
   </g>
   <g id="EdgeCollection_1">
    <path d="M 181.302728 162.281724 
C 205.867861 174.651439 205.867861 147.412009 181.302728 159.781724 
C 205.867861 147.412009 205.867861 174.651439 181.302728 162.281724 
" clip-path="url(#p746795e339)" style="fill: #ffffff"/>
    <path d="M 178.105039 158.754954 
L 167.09986 134.490352 
" clip-path="url(#p746795e339)" style="fill: #a4a4a4; stroke: #a4a4a4; stroke-width: 0.465531"/>
    <path d="M 177.357509 159.276433 
L 133.628557 116.15828 
" clip-path="url(#p746795e339)" style="stroke: #000000; stroke-width: 1.186168"/>
    <path d="M 176.920069 159.877485 
L 91.769195 115.557228 
" clip-path="url(#p746795e339)" style="fill: #e0e0e0; stroke: #e0e0e0; stroke-width: 0.221624"/>
    <path d="M 176.702759 160.46495 
L 57.767672 132.780356 
" clip-path="url(#p746795e339)" style="stroke: #000000; stroke-width: 1.319209"/>
    <path d="M 176.637665 161.031724 
L 44.762335 161.031724 
" clip-path="url(#p746795e339)" style="stroke: #000000; stroke-width: 1.019867"/>
    <path d="M 176.702759 161.598499 
L 57.767672 189.283093 
" clip-path="url(#p746795e339)" style="fill: #565656; stroke: #565656; stroke-width: 0.742699"/>
    <path d="M 176.920069 162.185963 
L 91.769195 206.50622 
" clip-path="url(#p746795e339)" style="fill: #939393; stroke: #939393; stroke-width: 0.520965"/>
    <path d="M 177.357509 162.787015 
L 133.628557 205.905168 
" clip-path="url(#p746795e339)" style="fill: #171717; stroke: #171717; stroke-width: 0.931174"/>
    <path d="M 178.105039 163.308494 
L 167.09986 187.573097 
" clip-path="url(#p746795e339)" style="fill: #e9e9e9; stroke: #e9e9e9; stroke-width: 0.177277"/>
    <path d="M 168.498667 131.632089 
C 194.839248 123.718217 176.106105 103.943083 166.779363 129.817152 
C 176.106105 103.943083 194.839248 123.718217 168.498667 131.632089 
" clip-path="url(#p746795e339)" style="fill: #ffffff"/>
    <path d="M 163.849638 131.059342 
L 134.065998 115.557228 
" clip-path="url(#p746795e339)" style="stroke: #000000; stroke-width: 3.181778"/>
    <path d="M 163.632328 131.646807 
L 91.986504 114.969764 
" clip-path="url(#p746795e339)" style="fill: #777777; stroke: #777777; stroke-width: 0.620745"/>
    <path d="M 163.567234 132.213581 
L 57.832766 132.213581 
" clip-path="url(#p746795e339)" style="stroke: #000000; stroke-width: 1.906805"/>
    <path d="M 163.632328 132.780356 
L 44.697241 160.46495 
" clip-path="url(#p746795e339)" style="stroke: #000000; stroke-width: 2.017672"/>
    <path d="M 163.849638 133.36782 
L 57.550362 188.695628 
" clip-path="url(#p746795e339)" style="stroke: #000000; stroke-width: 2.649615"/>
    <path d="M 164.287078 133.968872 
L 91.331754 205.905168 
" clip-path="url(#p746795e339)" style="fill: #d0d0d0; stroke: #d0d0d0; stroke-width: 0.299231"/>
    <path d="M 165.034608 134.490352 
L 132.881028 205.383689 
" clip-path="url(#p746795e339)" style="stroke: #000000; stroke-width: 1.108561"/>
    <path d="M 166.067234 134.713581 
L 166.067234 187.349867 
" clip-path="url(#p746795e339)" style="fill: #aeaeae; stroke: #aeaeae; stroke-width: 0.432271"/>
    <path d="M 133.57713 112.597028 
C 151.430513 91.675453 124.971515 85.201818 131.148757 112.002886 
C 124.971515 85.201818 151.430513 91.675453 133.57713 112.597028 
" clip-path="url(#p746795e339)" style="fill: #ffffff"/>
    <path d="M 129.348401 114.402989 
L 92.051599 114.402989 
" clip-path="url(#p746795e339)" style="fill: #a0a0a0; stroke: #a0a0a0; stroke-width: 0.476618"/>
    <path d="M 129.413496 114.969764 
L 57.767672 131.646807 
" clip-path="url(#p746795e339)" style="stroke: #000000; stroke-width: 1.718331"/>
    <path d="M 129.630805 115.557228 
L 44.479931 159.877485 
" clip-path="url(#p746795e339)" style="stroke: #000000; stroke-width: 1.452249"/>
    <path d="M 130.068246 116.15828 
L 57.112922 188.094576 
" clip-path="url(#p746795e339)" style="stroke: #000000; stroke-width: 1.55203"/>
    <path d="M 130.815775 116.67976 
L 90.584225 205.383689 
" clip-path="url(#p746795e339)" style="fill: #c4c4c4; stroke: #c4c4c4; stroke-width: 0.354664"/>
    <path d="M 131.848401 116.902989 
L 131.848401 205.160459 
" clip-path="url(#p746795e339)" style="stroke: #000000; stroke-width: 1.053128"/>
    <path d="M 132.881028 116.67976 
L 165.034608 187.573097 
" clip-path="url(#p746795e339)" style="fill: #a8a8a8; stroke: #a8a8a8; stroke-width: 0.454445"/>
    <path d="M 90.251243 112.002886 
C 96.428485 85.201818 69.969487 91.675453 87.82287 112.597028 
C 69.969487 91.675453 96.428485 85.201818 90.251243 112.002886 
" clip-path="url(#p746795e339)" style="fill: #ffffff"/>
    <path d="M 87.334002 115.557228 
L 57.550362 131.059342 
" clip-path="url(#p746795e339)" style="fill: #a8a8a8; stroke: #a8a8a8; stroke-width: 0.454445"/>
    <path d="M 87.771443 116.15828 
L 44.042491 159.276433 
" clip-path="url(#p746795e339)" style="fill: #999999; stroke: #999999; stroke-width: 0.498792"/>
    <path d="M 88.518972 116.67976 
L 56.365392 187.573097 
" clip-path="url(#p746795e339)" style="fill: #868686; stroke: #868686; stroke-width: 0.565312"/>
    <path d="M 89.551599 116.902989 
L 89.551599 205.160459 
" clip-path="url(#p746795e339)" style="fill: #f0f0f0; stroke: #f0f0f0; stroke-width: 0.13293"/>
    <path d="M 90.584225 116.67976 
L 130.815775 205.383689 
" clip-path="url(#p746795e339)" style="fill: #e4e4e4; stroke: #e4e4e4; stroke-width: 0.19945"/>
    <path d="M 91.331754 116.15828 
L 164.287078 188.094576 
" clip-path="url(#p746795e339)" style="fill: #f8f8f8; stroke: #f8f8f8; stroke-width: 0.066409"/>
    <path d="M 54.620637 129.817152 
C 45.293895 103.943083 26.560752 123.718217 52.901333 131.632089 
C 26.560752 123.718217 45.293895 103.943083 54.620637 129.817152 
" clip-path="url(#p746795e339)" style="fill: #ffffff"/>
    <path d="M 54.30014 134.490352 
L 43.294961 158.754954 
" clip-path="url(#p746795e339)" style="stroke: #000000; stroke-width: 1.61855"/>
    <path d="M 55.332766 134.713581 
L 55.332766 187.349867 
" clip-path="url(#p746795e339)" style="stroke: #000000; stroke-width: 1.973325"/>
    <path d="M 56.365392 134.490352 
L 88.518972 205.383689 
" clip-path="url(#p746795e339)" style="fill: #565656; stroke: #565656; stroke-width: 0.742699"/>
    <path d="M 57.112922 133.968872 
L 130.068246 205.905168 
" clip-path="url(#p746795e339)" style="stroke: #000000; stroke-width: 1.396816"/>
    <path d="M 57.550362 133.36782 
L 163.849638 188.695628 
" clip-path="url(#p746795e339)" style="fill: #e7e7e7; stroke: #e7e7e7; stroke-width: 0.188363"/>
    <path d="M 40.097272 159.781724 
C 15.532139 147.412009 15.532139 174.651439 40.097272 162.281724 
C 15.532139 174.651439 15.532139 147.412009 40.097272 159.781724 
" clip-path="url(#p746795e339)" style="fill: #ffffff"/>
    <path d="M 43.294961 163.308494 
L 54.30014 187.573097 
" clip-path="url(#p746795e339)" style="stroke: #000000; stroke-width: 1.851371"/>
    <path d="M 44.042491 162.787015 
L 87.771443 205.905168 
" clip-path="url(#p746795e339)" style="fill: #b5b5b5; stroke: #b5b5b5; stroke-width: 0.410098"/>
    <path d="M 44.479931 162.185963 
L 129.630805 206.50622 
" clip-path="url(#p746795e339)" style="stroke: #000000; stroke-width: 5"/>
    <path d="M 44.697241 161.598499 
L 163.632328 189.283093 
" clip-path="url(#p746795e339)" style="fill: #b9b9b9; stroke: #b9b9b9; stroke-width: 0.399011"/>
    <path d="M 52.901333 190.43136 
C 26.560752 198.345232 45.293895 218.120365 54.620637 192.246296 
C 45.293895 218.120365 26.560752 198.345232 52.901333 190.43136 
" clip-path="url(#p746795e339)" style="fill: #ffffff"/>
    <path d="M 57.550362 191.004106 
L 87.334002 206.50622 
" clip-path="url(#p746795e339)" style="fill: #7d7d7d; stroke: #7d7d7d; stroke-width: 0.598572"/>
    <path d="M 57.767672 190.416642 
L 129.413496 207.093684 
" clip-path="url(#p746795e339)" style="stroke: #000000; stroke-width: 1.629637"/>
    <path d="M 57.832766 189.849867 
L 163.567234 189.849867 
" clip-path="url(#p746795e339)" style="fill: #c4c4c4; stroke: #c4c4c4; stroke-width: 0.354664"/>
    <path d="M 87.82287 209.466421 
C 69.969487 230.387995 96.428485 236.861631 90.251243 210.060563 
C 96.428485 236.861631 69.969487 230.387995 87.82287 209.466421 
" clip-path="url(#p746795e339)" style="fill: #ffffff"/>
    <path d="M 92.051599 207.660459 
L 129.348401 207.660459 
" clip-path="url(#p746795e339)" style="fill: #b5b5b5; stroke: #b5b5b5; stroke-width: 0.410098"/>
    <path d="M 91.986504 207.093684 
L 163.632328 190.416642 
" clip-path="url(#p746795e339)" style="fill: #f5f5f5; stroke: #f5f5f5; stroke-width: 0.09967"/>
    <path d="M 131.148757 210.060563 
C 124.971515 236.861631 151.430513 230.387995 133.57713 209.466421 
C 151.430513 230.387995 124.971515 236.861631 131.148757 210.060563 
" clip-path="url(#p746795e339)" style="fill: #ffffff"/>
    <path d="M 134.065998 206.50622 
L 163.849638 191.004106 
" clip-path="url(#p746795e339)" style="fill: #d8d8d8; stroke: #d8d8d8; stroke-width: 0.26597"/>
    <path d="M 166.779363 192.246296 
C 176.106105 218.120365 194.839248 198.345232 168.498667 190.43136 
C 194.839248 198.345232 176.106105 218.120365 166.779363 192.246296 
" clip-path="url(#p746795e339)" style="fill: #ffffff"/>
   </g>
   <g id="VertexCollection_1">
    <path d="M 179.137665 163.531724 
C 179.800673 163.531724 180.436615 163.268308 180.905432 162.799491 
C 181.374249 162.330674 181.637665 161.694732 181.637665 161.031724 
C 181.637665 160.368716 181.374249 159.732774 180.905432 159.263957 
C 180.436615 158.79514 179.800673 158.531724 179.137665 158.531724 
C 178.474657 158.531724 177.838715 158.79514 177.369898 159.263957 
C 176.901081 159.732774 176.637665 160.368716 176.637665 161.031724 
C 176.637665 161.694732 176.901081 162.330674 177.369898 162.799491 
C 177.838715 163.268308 178.474657 163.531724 179.137665 163.531724 
z
" clip-path="url(#p746795e339)" style="fill: #6b010e; stroke: #6b010e; stroke-width: 3"/>
    <path d="M 166.067234 134.713581 
C 166.730242 134.713581 167.366184 134.450165 167.835001 133.981348 
C 168.303818 133.512531 168.567234 132.876589 168.567234 132.213581 
C 168.567234 131.550573 168.303818 130.914632 167.835001 130.445814 
C 167.366184 129.976997 166.730242 129.713581 166.067234 129.713581 
C 165.404226 129.713581 164.768284 129.976997 164.299467 130.445814 
C 163.83065 130.914632 163.567234 131.550573 163.567234 132.213581 
C 163.567234 132.876589 163.83065 133.512531 164.299467 133.981348 
C 164.768284 134.450165 165.404226 134.713581 166.067234 134.713581 
z
" clip-path="url(#p746795e339)" style="fill: #6b010e; stroke: #6b010e; stroke-width: 3"/>
    <path d="M 131.848401 116.902989 
C 132.511409 116.902989 133.147351 116.639574 133.616168 116.170756 
C 134.084986 115.701939 134.348401 115.065997 134.348401 114.402989 
C 134.348401 113.739982 134.084986 113.10404 133.616168 112.635222 
C 133.147351 112.166405 132.511409 111.902989 131.848401 111.902989 
C 131.185394 111.902989 130.549452 112.166405 130.080635 112.635222 
C 129.611817 113.10404 129.348401 113.739982 129.348401 114.402989 
C 129.348401 115.065997 129.611817 115.701939 130.080635 116.170756 
C 130.549452 116.639574 131.185394 116.902989 131.848401 116.902989 
z
" clip-path="url(#p746795e339)" style="fill: #6b010e; stroke: #6b010e; stroke-width: 3"/>
    <path d="M 89.551599 116.902989 
C 90.214606 116.902989 90.850548 116.639574 91.319365 116.170756 
C 91.788183 115.701939 92.051599 115.065997 92.051599 114.402989 
C 92.051599 113.739982 91.788183 113.10404 91.319365 112.635222 
C 90.850548 112.166405 90.214606 111.902989 89.551599 111.902989 
C 88.888591 111.902989 88.252649 112.166405 87.783832 112.635222 
C 87.315014 113.10404 87.051599 113.739982 87.051599 114.402989 
C 87.051599 115.065997 87.315014 115.701939 87.783832 116.170756 
C 88.252649 116.639574 88.888591 116.902989 89.551599 116.902989 
z
" clip-path="url(#p746795e339)" style="fill: #6b010e; stroke: #6b010e; stroke-width: 3"/>
    <path d="M 55.332766 134.713581 
C 55.995774 134.713581 56.631716 134.450165 57.100533 133.981348 
C 57.56935 133.512531 57.832766 132.876589 57.832766 132.213581 
C 57.832766 131.550573 57.56935 130.914632 57.100533 130.445814 
C 56.631716 129.976997 55.995774 129.713581 55.332766 129.713581 
C 54.669758 129.713581 54.033816 129.976997 53.564999 130.445814 
C 53.096182 130.914632 52.832766 131.550573 52.832766 132.213581 
C 52.832766 132.876589 53.096182 133.512531 53.564999 133.981348 
C 54.033816 134.450165 54.669758 134.713581 55.332766 134.713581 
z
" clip-path="url(#p746795e339)" style="fill: #6b010e; stroke: #6b010e; stroke-width: 3"/>
    <path d="M 42.262335 163.531724 
C 42.925343 163.531724 43.561285 163.268308 44.030102 162.799491 
C 44.498919 162.330674 44.762335 161.694732 44.762335 161.031724 
C 44.762335 160.368716 44.498919 159.732774 44.030102 159.263957 
C 43.561285 158.79514 42.925343 158.531724 42.262335 158.531724 
C 41.599327 158.531724 40.963385 158.79514 40.494568 159.263957 
C 40.025751 159.732774 39.762335 160.368716 39.762335 161.031724 
C 39.762335 161.694732 40.025751 162.330674 40.494568 162.799491 
C 40.963385 163.268308 41.599327 163.531724 42.262335 163.531724 
z
" clip-path="url(#p746795e339)" style="fill: #6b010e; stroke: #6b010e; stroke-width: 3"/>
    <path d="M 55.332766 192.349867 
C 55.995774 192.349867 56.631716 192.086451 57.100533 191.617634 
C 57.56935 191.148817 57.832766 190.512875 57.832766 189.849867 
C 57.832766 189.186859 57.56935 188.550917 57.100533 188.0821 
C 56.631716 187.613283 55.995774 187.349867 55.332766 187.349867 
C 54.669758 187.349867 54.033816 187.613283 53.564999 188.0821 
C 53.096182 188.550917 52.832766 189.186859 52.832766 189.849867 
C 52.832766 190.512875 53.096182 191.148817 53.564999 191.617634 
C 54.033816 192.086451 54.669758 192.349867 55.332766 192.349867 
z
" clip-path="url(#p746795e339)" style="fill: #6b010e; stroke: #6b010e; stroke-width: 3"/>
    <path d="M 89.551599 210.160459 
C 90.214606 210.160459 90.850548 209.897043 91.319365 209.428226 
C 91.788183 208.959409 92.051599 208.323467 92.051599 207.660459 
C 92.051599 206.997451 91.788183 206.361509 91.319365 205.892692 
C 90.850548 205.423875 90.214606 205.160459 89.551599 205.160459 
C 88.888591 205.160459 88.252649 205.423875 87.783832 205.892692 
C 87.315014 206.361509 87.051599 206.997451 87.051599 207.660459 
C 87.051599 208.323467 87.315014 208.959409 87.783832 209.428226 
C 88.252649 209.897043 88.888591 210.160459 89.551599 210.160459 
z
" clip-path="url(#p746795e339)" style="fill: #6b010e; stroke: #6b010e; stroke-width: 3"/>
    <path d="M 131.848401 210.160459 
C 132.511409 210.160459 133.147351 209.897043 133.616168 209.428226 
C 134.084986 208.959409 134.348401 208.323467 134.348401 207.660459 
C 134.348401 206.997451 134.084986 206.361509 133.616168 205.892692 
C 133.147351 205.423875 132.511409 205.160459 131.848401 205.160459 
C 131.185394 205.160459 130.549452 205.423875 130.080635 205.892692 
C 129.611817 206.361509 129.348401 206.997451 129.348401 207.660459 
C 129.348401 208.323467 129.611817 208.959409 130.080635 209.428226 
C 130.549452 209.897043 131.185394 210.160459 131.848401 210.160459 
z
" clip-path="url(#p746795e339)" style="fill: #6b010e; stroke: #6b010e; stroke-width: 3"/>
    <path d="M 166.067234 192.349867 
C 166.730242 192.349867 167.366184 192.086451 167.835001 191.617634 
C 168.303818 191.148817 168.567234 190.512875 168.567234 189.849867 
C 168.567234 189.186859 168.303818 188.550917 167.835001 188.0821 
C 167.366184 187.613283 166.730242 187.349867 166.067234 187.349867 
C 165.404226 187.349867 164.768284 187.613283 164.299467 188.0821 
C 163.83065 188.550917 163.567234 189.186859 163.567234 189.849867 
C 163.567234 190.512875 163.83065 191.148817 164.299467 191.617634 
C 164.768284 192.086451 165.404226 192.349867 166.067234 192.349867 
z
" clip-path="url(#p746795e339)" style="fill: #6b010e; stroke: #6b010e; stroke-width: 3"/>
   </g>
   <g id="matplotlib.axis_1"/>
   <g id="matplotlib.axis_2"/>
  </g>
  <g id="axes_2">
   <g id="patch_3">
    <path d="M 27 356.027586 
L 194.4 356.027586 
L 194.4 241.324138 
L 27 241.324138 
z
" style="fill: #ffffff"/>
   </g>
   <g id="EdgeCollection_2">
    <path d="M 181.302728 299.925862 
C 205.867861 312.295577 205.867861 285.056147 181.302728 297.425862 
C 205.867861 285.056147 205.867861 312.295577 181.302728 299.925862 
" clip-path="url(#p65dd0c1d0d)" style="fill: #ffffff"/>
    <path d="M 178.105039 296.399092 
L 167.09986 272.134489 
" clip-path="url(#p65dd0c1d0d)" style="fill: #1b1b1b; stroke: #1b1b1b; stroke-width: 0.917931"/>
    <path d="M 177.357509 296.920571 
L 133.628557 253.802418 
" clip-path="url(#p65dd0c1d0d)" style="fill: #2c2c2c; stroke: #2c2c2c; stroke-width: 0.864454"/>
    <path d="M 176.920069 297.521623 
L 91.769195 253.201366 
" clip-path="url(#p65dd0c1d0d)" style="fill: #ececec; stroke: #ececec; stroke-width: 0.160342"/>
    <path d="M 176.702759 298.109088 
L 57.767672 270.424494 
" clip-path="url(#p65dd0c1d0d)" style="fill: #636363; stroke: #636363; stroke-width: 0.69511"/>
    <path d="M 176.637665 298.675862 
L 44.762335 298.675862 
" clip-path="url(#p65dd0c1d0d)" style="fill: #7d7d7d; stroke: #7d7d7d; stroke-width: 0.597069"/>
    <path d="M 176.702759 299.242637 
L 57.767672 326.92723 
" clip-path="url(#p65dd0c1d0d)" style="fill: #393939; stroke: #393939; stroke-width: 0.828803"/>
    <path d="M 176.920069 299.830101 
L 91.769195 344.150358 
" clip-path="url(#p65dd0c1d0d)" style="fill: #d2d2d2; stroke: #d2d2d2; stroke-width: 0.294034"/>
    <path d="M 177.357509 300.431153 
L 133.628557 343.549306 
" clip-path="url(#p65dd0c1d0d)" style="fill: #1d1d1d; stroke: #1d1d1d; stroke-width: 0.909018"/>
    <path d="M 178.105039 300.952632 
L 167.09986 325.217235 
" clip-path="url(#p65dd0c1d0d)" style="fill: #ededed; stroke: #ededed; stroke-width: 0.151429"/>
    <path d="M 168.498667 269.276227 
C 194.839248 261.362354 176.106105 241.587221 166.779363 267.46129 
C 176.106105 241.587221 194.839248 261.362354 168.498667 269.276227 
" clip-path="url(#p65dd0c1d0d)" style="fill: #ffffff"/>
    <path d="M 163.849638 268.70348 
L 134.065998 253.201366 
" clip-path="url(#p65dd0c1d0d)" style="stroke: #000000; stroke-width: 4.046329"/>
    <path d="M 163.632328 269.290945 
L 91.986504 252.613902 
" clip-path="url(#p65dd0c1d0d)" style="fill: #8a8a8a; stroke: #8a8a8a; stroke-width: 0.552505"/>
    <path d="M 163.567234 269.857719 
L 57.832766 269.857719 
" clip-path="url(#p65dd0c1d0d)" style="stroke: #000000; stroke-width: 2.183551"/>
    <path d="M 163.632328 270.424494 
L 44.697241 298.109088 
" clip-path="url(#p65dd0c1d0d)" style="stroke: #000000; stroke-width: 1.648782"/>
    <path d="M 163.849638 271.011958 
L 57.550362 326.339766 
" clip-path="url(#p65dd0c1d0d)" style="stroke: #000000; stroke-width: 3.627427"/>
    <path d="M 164.287078 271.61301 
L 91.331754 343.549306 
" clip-path="url(#p65dd0c1d0d)" style="fill: #858585; stroke: #858585; stroke-width: 0.570331"/>
    <path d="M 165.034608 272.134489 
L 132.881028 343.027827 
" clip-path="url(#p65dd0c1d0d)" style="stroke: #000000; stroke-width: 1.755735"/>
    <path d="M 166.067234 272.357719 
L 166.067234 324.994005 
" clip-path="url(#p65dd0c1d0d)" style="fill: #858585; stroke: #858585; stroke-width: 0.570331"/>
    <path d="M 133.57713 250.241166 
C 151.430513 229.319591 124.971515 222.845955 131.148757 249.647024 
C 124.971515 222.845955 151.430513 229.319591 133.57713 250.241166 
" clip-path="url(#p65dd0c1d0d)" style="fill: #ffffff"/>
    <path d="M 129.348401 252.047127 
L 92.051599 252.047127 
" clip-path="url(#p65dd0c1d0d)" style="fill: #bfbfbf; stroke: #bfbfbf; stroke-width: 0.374249"/>
    <path d="M 129.413496 252.613902 
L 57.767672 269.290945 
" clip-path="url(#p65dd0c1d0d)" style="stroke: #000000; stroke-width: 1.461613"/>
    <path d="M 129.630805 253.201366 
L 44.479931 297.521623 
" clip-path="url(#p65dd0c1d0d)" style="stroke: #000000; stroke-width: 1.185315"/>
    <path d="M 130.068246 253.802418 
L 57.112922 325.738714 
" clip-path="url(#p65dd0c1d0d)" style="stroke: #000000; stroke-width: 1.265531"/>
    <path d="M 130.815775 254.323898 
L 90.584225 343.027827 
" clip-path="url(#p65dd0c1d0d)" style="fill: #979797; stroke: #979797; stroke-width: 0.507941"/>
    <path d="M 131.848401 254.547127 
L 131.848401 342.804597 
" clip-path="url(#p65dd0c1d0d)" style="fill: #3c3c3c; stroke: #3c3c3c; stroke-width: 0.81989"/>
    <path d="M 132.881028 254.323898 
L 165.034608 325.217235 
" clip-path="url(#p65dd0c1d0d)" style="fill: #d2d2d2; stroke: #d2d2d2; stroke-width: 0.294034"/>
    <path d="M 90.251243 249.647024 
C 96.428485 222.845955 69.969487 229.319591 87.82287 250.241166 
C 69.969487 229.319591 96.428485 222.845955 90.251243 249.647024 
" clip-path="url(#p65dd0c1d0d)" style="fill: #ffffff"/>
    <path d="M 87.334002 253.201366 
L 57.550362 268.70348 
" clip-path="url(#p65dd0c1d0d)" style="fill: #c5c5c5; stroke: #c5c5c5; stroke-width: 0.347511"/>
    <path d="M 87.771443 253.802418 
L 44.042491 296.920571 
" clip-path="url(#p65dd0c1d0d)" style="fill: #d2d2d2; stroke: #d2d2d2; stroke-width: 0.294034"/>
    <path d="M 88.518972 254.323898 
L 56.365392 325.217235 
" clip-path="url(#p65dd0c1d0d)" style="fill: #bebebe; stroke: #bebebe; stroke-width: 0.383162"/>
    <path d="M 89.551599 254.547127 
L 89.551599 342.804597 
" clip-path="url(#p65dd0c1d0d)" style="fill: #fcfcfc; stroke: #fcfcfc; stroke-width: 0.035562"/>
    <path d="M 90.584225 254.323898 
L 130.815775 343.027827 
" clip-path="url(#p65dd0c1d0d)" style="fill: #c2c2c2; stroke: #c2c2c2; stroke-width: 0.365336"/>
    <path d="M 91.331754 253.802418 
L 164.287078 325.738714 
" clip-path="url(#p65dd0c1d0d)" style="fill: #f2f2f2; stroke: #f2f2f2; stroke-width: 0.115777"/>
    <path d="M 54.620637 267.46129 
C 45.293895 241.587221 26.560752 261.362354 52.901333 269.276227 
C 26.560752 261.362354 45.293895 241.587221 54.620637 267.46129 
" clip-path="url(#p65dd0c1d0d)" style="fill: #ffffff"/>
    <path d="M 54.30014 272.134489 
L 43.294961 296.399092 
" clip-path="url(#p65dd0c1d0d)" style="stroke: #000000; stroke-width: 1.015972"/>
    <path d="M 55.332766 272.357719 
L 55.332766 324.994005 
" clip-path="url(#p65dd0c1d0d)" style="stroke: #000000; stroke-width: 1.728997"/>
    <path d="M 56.365392 272.134489 
L 88.518972 343.027827 
" clip-path="url(#p65dd0c1d0d)" style="fill: #a8a8a8; stroke: #a8a8a8; stroke-width: 0.454464"/>
    <path d="M 57.112922 271.61301 
L 130.068246 343.549306 
" clip-path="url(#p65dd0c1d0d)" style="fill: #080808; stroke: #080808; stroke-width: 0.980321"/>
    <path d="M 57.550362 271.011958 
L 163.849638 326.339766 
" clip-path="url(#p65dd0c1d0d)" style="fill: #8f8f8f; stroke: #8f8f8f; stroke-width: 0.53468"/>
    <path d="M 40.097272 297.425862 
C 15.532139 285.056147 15.532139 312.295577 40.097272 299.925862 
C 15.532139 312.295577 15.532139 285.056147 40.097272 297.425862 
" clip-path="url(#p65dd0c1d0d)" style="fill: #ffffff"/>
    <path d="M 43.294961 300.952632 
L 54.30014 325.217235 
" clip-path="url(#p65dd0c1d0d)" style="stroke: #000000; stroke-width: 1.087274"/>
    <path d="M 44.042491 300.431153 
L 87.771443 343.549306 
" clip-path="url(#p65dd0c1d0d)" style="fill: #d5d5d5; stroke: #d5d5d5; stroke-width: 0.276208"/>
    <path d="M 44.479931 299.830101 
L 129.630805 344.150358 
" clip-path="url(#p65dd0c1d0d)" style="stroke: #000000; stroke-width: 5"/>
    <path d="M 44.697241 299.242637 
L 163.632328 326.92723 
" clip-path="url(#p65dd0c1d0d)" style="fill: #cccccc; stroke: #cccccc; stroke-width: 0.320772"/>
    <path d="M 52.901333 328.075498 
C 26.560752 335.98937 45.293895 355.764503 54.620637 329.890434 
C 45.293895 355.764503 26.560752 335.98937 52.901333 328.075498 
" clip-path="url(#p65dd0c1d0d)" style="fill: #ffffff"/>
    <path d="M 57.550362 328.648244 
L 87.334002 344.150358 
" clip-path="url(#p65dd0c1d0d)" style="fill: #4d4d4d; stroke: #4d4d4d; stroke-width: 0.775326"/>
    <path d="M 57.767672 328.06078 
L 129.413496 344.737822 
" clip-path="url(#p65dd0c1d0d)" style="stroke: #000000; stroke-width: 1.336833"/>
    <path d="M 57.832766 327.494005 
L 163.567234 327.494005 
" clip-path="url(#p65dd0c1d0d)" style="fill: #282828; stroke: #282828; stroke-width: 0.873367"/>
    <path d="M 87.82287 347.110559 
C 69.969487 368.032133 96.428485 374.505769 90.251243 347.704701 
C 96.428485 374.505769 69.969487 368.032133 87.82287 347.110559 
" clip-path="url(#p65dd0c1d0d)" style="fill: #ffffff"/>
    <path d="M 92.051599 345.304597 
L 129.348401 345.304597 
" clip-path="url(#p65dd0c1d0d)" style="fill: #c4c4c4; stroke: #c4c4c4; stroke-width: 0.356423"/>
    <path d="M 91.986504 344.737822 
L 163.632328 328.06078 
" clip-path="url(#p65dd0c1d0d)" style="fill: #dbdbdb; stroke: #dbdbdb; stroke-width: 0.24947"/>
    <path d="M 131.148757 347.704701 
C 124.971515 374.505769 151.430513 368.032133 133.57713 347.110559 
C 151.430513 368.032133 124.971515 374.505769 131.148757 347.704701 
" clip-path="url(#p65dd0c1d0d)" style="fill: #ffffff"/>
    <path d="M 134.065998 344.150358 
L 163.849638 328.648244 
" clip-path="url(#p65dd0c1d0d)" style="fill: #b5b5b5; stroke: #b5b5b5; stroke-width: 0.4099"/>
    <path d="M 166.779363 329.890434 
C 176.106105 355.764503 194.839248 335.98937 168.498667 328.075498 
C 194.839248 335.98937 176.106105 355.764503 166.779363 329.890434 
" clip-path="url(#p65dd0c1d0d)" style="fill: #ffffff"/>
   </g>
   <g id="VertexCollection_2">
    <path d="M 179.137665 301.175862 
C 179.800673 301.175862 180.436615 300.912446 180.905432 300.443629 
C 181.374249 299.974812 181.637665 299.33887 181.637665 298.675862 
C 181.637665 298.012854 181.374249 297.376912 180.905432 296.908095 
C 180.436615 296.439278 179.800673 296.175862 179.137665 296.175862 
C 178.474657 296.175862 177.838715 296.439278 177.369898 296.908095 
C 176.901081 297.376912 176.637665 298.012854 176.637665 298.675862 
C 176.637665 299.33887 176.901081 299.974812 177.369898 300.443629 
C 177.838715 300.912446 178.474657 301.175862 179.137665 301.175862 
z
" clip-path="url(#p65dd0c1d0d)" style="fill: #6b010e; stroke: #6b010e; stroke-width: 3"/>
    <path d="M 166.067234 272.357719 
C 166.730242 272.357719 167.366184 272.094303 167.835001 271.625486 
C 168.303818 271.156669 168.567234 270.520727 168.567234 269.857719 
C 168.567234 269.194711 168.303818 268.558769 167.835001 268.089952 
C 167.366184 267.621135 166.730242 267.357719 166.067234 267.357719 
C 165.404226 267.357719 164.768284 267.621135 164.299467 268.089952 
C 163.83065 268.558769 163.567234 269.194711 163.567234 269.857719 
C 163.567234 270.520727 163.83065 271.156669 164.299467 271.625486 
C 164.768284 272.094303 165.404226 272.357719 166.067234 272.357719 
z
" clip-path="url(#p65dd0c1d0d)" style="fill: #6b010e; stroke: #6b010e; stroke-width: 3"/>
    <path d="M 131.848401 254.547127 
C 132.511409 254.547127 133.147351 254.283712 133.616168 253.814894 
C 134.084986 253.346077 134.348401 252.710135 134.348401 252.047127 
C 134.348401 251.38412 134.084986 250.748178 133.616168 250.27936 
C 133.147351 249.810543 132.511409 249.547127 131.848401 249.547127 
C 131.185394 249.547127 130.549452 249.810543 130.080635 250.27936 
C 129.611817 250.748178 129.348401 251.38412 129.348401 252.047127 
C 129.348401 252.710135 129.611817 253.346077 130.080635 253.814894 
C 130.549452 254.283712 131.185394 254.547127 131.848401 254.547127 
z
" clip-path="url(#p65dd0c1d0d)" style="fill: #6b010e; stroke: #6b010e; stroke-width: 3"/>
    <path d="M 89.551599 254.547127 
C 90.214606 254.547127 90.850548 254.283712 91.319365 253.814894 
C 91.788183 253.346077 92.051599 252.710135 92.051599 252.047127 
C 92.051599 251.38412 91.788183 250.748178 91.319365 250.27936 
C 90.850548 249.810543 90.214606 249.547127 89.551599 249.547127 
C 88.888591 249.547127 88.252649 249.810543 87.783832 250.27936 
C 87.315014 250.748178 87.051599 251.38412 87.051599 252.047127 
C 87.051599 252.710135 87.315014 253.346077 87.783832 253.814894 
C 88.252649 254.283712 88.888591 254.547127 89.551599 254.547127 
z
" clip-path="url(#p65dd0c1d0d)" style="fill: #6b010e; stroke: #6b010e; stroke-width: 3"/>
    <path d="M 55.332766 272.357719 
C 55.995774 272.357719 56.631716 272.094303 57.100533 271.625486 
C 57.56935 271.156669 57.832766 270.520727 57.832766 269.857719 
C 57.832766 269.194711 57.56935 268.558769 57.100533 268.089952 
C 56.631716 267.621135 55.995774 267.357719 55.332766 267.357719 
C 54.669758 267.357719 54.033816 267.621135 53.564999 268.089952 
C 53.096182 268.558769 52.832766 269.194711 52.832766 269.857719 
C 52.832766 270.520727 53.096182 271.156669 53.564999 271.625486 
C 54.033816 272.094303 54.669758 272.357719 55.332766 272.357719 
z
" clip-path="url(#p65dd0c1d0d)" style="fill: #6b010e; stroke: #6b010e; stroke-width: 3"/>
    <path d="M 42.262335 301.175862 
C 42.925343 301.175862 43.561285 300.912446 44.030102 300.443629 
C 44.498919 299.974812 44.762335 299.33887 44.762335 298.675862 
C 44.762335 298.012854 44.498919 297.376912 44.030102 296.908095 
C 43.561285 296.439278 42.925343 296.175862 42.262335 296.175862 
C 41.599327 296.175862 40.963385 296.439278 40.494568 296.908095 
C 40.025751 297.376912 39.762335 298.012854 39.762335 298.675862 
C 39.762335 299.33887 40.025751 299.974812 40.494568 300.443629 
C 40.963385 300.912446 41.599327 301.175862 42.262335 301.175862 
z
" clip-path="url(#p65dd0c1d0d)" style="fill: #6b010e; stroke: #6b010e; stroke-width: 3"/>
    <path d="M 55.332766 329.994005 
C 55.995774 329.994005 56.631716 329.730589 57.100533 329.261772 
C 57.56935 328.792955 57.832766 328.157013 57.832766 327.494005 
C 57.832766 326.830997 57.56935 326.195055 57.100533 325.726238 
C 56.631716 325.257421 55.995774 324.994005 55.332766 324.994005 
C 54.669758 324.994005 54.033816 325.257421 53.564999 325.726238 
C 53.096182 326.195055 52.832766 326.830997 52.832766 327.494005 
C 52.832766 328.157013 53.096182 328.792955 53.564999 329.261772 
C 54.033816 329.730589 54.669758 329.994005 55.332766 329.994005 
z
" clip-path="url(#p65dd0c1d0d)" style="fill: #6b010e; stroke: #6b010e; stroke-width: 3"/>
    <path d="M 89.551599 347.804597 
C 90.214606 347.804597 90.850548 347.541181 91.319365 347.072364 
C 91.788183 346.603547 92.051599 345.967605 92.051599 345.304597 
C 92.051599 344.641589 91.788183 344.005647 91.319365 343.53683 
C 90.850548 343.068013 90.214606 342.804597 89.551599 342.804597 
C 88.888591 342.804597 88.252649 343.068013 87.783832 343.53683 
C 87.315014 344.005647 87.051599 344.641589 87.051599 345.304597 
C 87.051599 345.967605 87.315014 346.603547 87.783832 347.072364 
C 88.252649 347.541181 88.888591 347.804597 89.551599 347.804597 
z
" clip-path="url(#p65dd0c1d0d)" style="fill: #6b010e; stroke: #6b010e; stroke-width: 3"/>
    <path d="M 131.848401 347.804597 
C 132.511409 347.804597 133.147351 347.541181 133.616168 347.072364 
C 134.084986 346.603547 134.348401 345.967605 134.348401 345.304597 
C 134.348401 344.641589 134.084986 344.005647 133.616168 343.53683 
C 133.147351 343.068013 132.511409 342.804597 131.848401 342.804597 
C 131.185394 342.804597 130.549452 343.068013 130.080635 343.53683 
C 129.611817 344.005647 129.348401 344.641589 129.348401 345.304597 
C 129.348401 345.967605 129.611817 346.603547 130.080635 347.072364 
C 130.549452 347.541181 131.185394 347.804597 131.848401 347.804597 
z
" clip-path="url(#p65dd0c1d0d)" style="fill: #6b010e; stroke: #6b010e; stroke-width: 3"/>
    <path d="M 166.067234 329.994005 
C 166.730242 329.994005 167.366184 329.730589 167.835001 329.261772 
C 168.303818 328.792955 168.567234 328.157013 168.567234 327.494005 
C 168.567234 326.830997 168.303818 326.195055 167.835001 325.726238 
C 167.366184 325.257421 166.730242 324.994005 166.067234 324.994005 
C 165.404226 324.994005 164.768284 325.257421 164.299467 325.726238 
C 163.83065 326.195055 163.567234 326.830997 163.567234 327.494005 
C 163.567234 328.157013 163.83065 328.792955 164.299467 329.261772 
C 164.768284 329.730589 165.404226 329.994005 166.067234 329.994005 
z
" clip-path="url(#p65dd0c1d0d)" style="fill: #6b010e; stroke: #6b010e; stroke-width: 3"/>
   </g>
   <g id="matplotlib.axis_3"/>
   <g id="matplotlib.axis_4"/>
  </g>
  <g id="axes_3">
   <g id="patch_4">
    <path d="M 27 493.671724 
L 194.4 493.671724 
L 194.4 378.968276 
L 27 378.968276 
z
" style="fill: #ffffff"/>
   </g>
   <g id="EdgeCollection_3">
    <path d="M 181.302728 437.57 
C 205.867861 449.939715 205.867861 422.700285 181.302728 435.07 
C 205.867861 422.700285 205.867861 449.939715 181.302728 437.57 
" clip-path="url(#p644c12943f)" style="fill: #ffffff"/>
    <path d="M 178.105039 434.04323 
L 167.09986 409.778627 
" clip-path="url(#p644c12943f)" style="fill: #020202; stroke: #020202; stroke-width: 0.999937"/>
    <path d="M 177.357509 434.564709 
L 133.628557 391.446556 
" clip-path="url(#p644c12943f)" style="fill: #787878; stroke: #787878; stroke-width: 0.617119"/>
    <path d="M 176.920069 435.165761 
L 91.769195 390.845504 
" clip-path="url(#p644c12943f)" style="fill: #f0f0f0; stroke: #f0f0f0; stroke-width: 0.132736"/>
    <path d="M 176.702759 435.753225 
L 57.767672 408.068632 
" clip-path="url(#p644c12943f)" style="fill: #656565; stroke: #656565; stroke-width: 0.687433"/>
    <path d="M 176.637665 436.32 
L 44.762335 436.32 
" clip-path="url(#p644c12943f)" style="fill: #050505; stroke: #050505; stroke-width: 0.992125"/>
    <path d="M 176.702759 436.886775 
L 57.767672 464.571368 
" clip-path="url(#p644c12943f)" style="fill: #909090; stroke: #909090; stroke-width: 0.53118"/>
    <path d="M 176.920069 437.474239 
L 91.769195 481.794496 
" clip-path="url(#p644c12943f)" style="fill: #f8f8f8; stroke: #f8f8f8; stroke-width: 0.070235"/>
    <path d="M 177.357509 438.075291 
L 133.628557 481.193444 
" clip-path="url(#p644c12943f)" style="fill: #616161; stroke: #616161; stroke-width: 0.703058"/>
    <path d="M 178.105039 438.59677 
L 167.09986 462.861373 
" clip-path="url(#p644c12943f)" style="fill: #f1f1f1; stroke: #f1f1f1; stroke-width: 0.124924"/>
    <path d="M 168.498667 406.920364 
C 194.839248 399.006492 176.106105 379.231359 166.779363 405.105428 
C 176.106105 379.231359 194.839248 399.006492 168.498667 406.920364 
" clip-path="url(#p644c12943f)" style="fill: #ffffff"/>
    <path d="M 163.849638 406.347618 
L 134.065998 390.845504 
" clip-path="url(#p644c12943f)" style="stroke: #000000; stroke-width: 2.164018"/>
    <path d="M 163.632328 406.935082 
L 91.986504 390.25804 
" clip-path="url(#p644c12943f)" style="fill: #aaaaaa; stroke: #aaaaaa; stroke-width: 0.445241"/>
    <path d="M 163.567234 407.501857 
L 57.832766 407.501857 
" clip-path="url(#p644c12943f)" style="stroke: #000000; stroke-width: 1.804638"/>
    <path d="M 163.632328 408.068632 
L 44.697241 435.753225 
" clip-path="url(#p644c12943f)" style="stroke: #000000; stroke-width: 1.531196"/>
    <path d="M 163.849638 408.656096 
L 57.550362 463.983904 
" clip-path="url(#p644c12943f)" style="stroke: #000000; stroke-width: 3.812481"/>
    <path d="M 164.287078 409.257148 
L 91.331754 481.193444 
" clip-path="url(#p644c12943f)" style="fill: #dfdfdf; stroke: #dfdfdf; stroke-width: 0.226488"/>
    <path d="M 165.034608 409.778627 
L 132.881028 480.671964 
" clip-path="url(#p644c12943f)" style="stroke: #000000; stroke-width: 1.30463"/>
    <path d="M 166.067234 410.001857 
L 166.067234 462.638143 
" clip-path="url(#p644c12943f)" style="fill: #232323; stroke: #232323; stroke-width: 0.890561"/>
    <path d="M 133.57713 387.885304 
C 151.430513 366.963729 124.971515 360.490093 131.148757 387.291162 
C 124.971515 360.490093 151.430513 366.963729 133.57713 387.885304 
" clip-path="url(#p644c12943f)" style="fill: #ffffff"/>
    <path d="M 129.348401 389.691265 
L 92.051599 389.691265 
" clip-path="url(#p644c12943f)" style="fill: #efefef; stroke: #efefef; stroke-width: 0.140549"/>
    <path d="M 129.413496 390.25804 
L 57.767672 406.935082 
" clip-path="url(#p644c12943f)" style="fill: #333333; stroke: #333333; stroke-width: 0.843685"/>
    <path d="M 129.630805 390.845504 
L 44.479931 435.165761 
" clip-path="url(#p644c12943f)" style="fill: #363636; stroke: #363636; stroke-width: 0.835872"/>
    <path d="M 130.068246 391.446556 
L 57.112922 463.382852 
" clip-path="url(#p644c12943f)" style="fill: #101010; stroke: #101010; stroke-width: 0.953062"/>
    <path d="M 130.815775 391.968036 
L 90.584225 480.671964 
" clip-path="url(#p644c12943f)" style="fill: #f4f4f4; stroke: #f4f4f4; stroke-width: 0.101486"/>
    <path d="M 131.848401 392.191265 
L 131.848401 480.448735 
" clip-path="url(#p644c12943f)" style="fill: #a3a3a3; stroke: #a3a3a3; stroke-width: 0.468679"/>
    <path d="M 132.881028 391.968036 
L 165.034608 462.861373 
" clip-path="url(#p644c12943f)" style="fill: #eeeeee; stroke: #eeeeee; stroke-width: 0.148362"/>
    <path d="M 90.251243 387.291162 
C 96.428485 360.490093 69.969487 366.963729 87.82287 387.885304 
C 69.969487 366.963729 96.428485 360.490093 90.251243 387.291162 
" clip-path="url(#p644c12943f)" style="fill: #ffffff"/>
    <path d="M 87.334002 390.845504 
L 57.550362 406.347618 
" clip-path="url(#p644c12943f)" style="fill: #d8d8d8; stroke: #d8d8d8; stroke-width: 0.265551"/>
    <path d="M 87.771443 391.446556 
L 44.042491 434.564709 
" clip-path="url(#p644c12943f)" style="fill: #e8e8e8; stroke: #e8e8e8; stroke-width: 0.179612"/>
    <path d="M 88.518972 391.968036 
L 56.365392 462.861373 
" clip-path="url(#p644c12943f)" style="fill: #a3a3a3; stroke: #a3a3a3; stroke-width: 0.468679"/>
    <path d="M 89.551599 392.191265 
L 89.551599 480.448735 
" clip-path="url(#p644c12943f)" style="fill: #f2f2f2; stroke: #f2f2f2; stroke-width: 0.117111"/>
    <path d="M 90.584225 391.968036 
L 130.815775 480.671964 
" clip-path="url(#p644c12943f)" style="fill: #f1f1f1; stroke: #f1f1f1; stroke-width: 0.124924"/>
    <path d="M 91.331754 391.446556 
L 164.287078 463.382852 
" clip-path="url(#p644c12943f)" style="fill: #ffffff; stroke: #ffffff; stroke-width: 0.015547"/>
    <path d="M 54.620637 405.105428 
C 45.293895 379.231359 26.560752 399.006492 52.901333 406.920364 
C 26.560752 399.006492 45.293895 379.231359 54.620637 405.105428 
" clip-path="url(#p644c12943f)" style="fill: #ffffff"/>
    <path d="M 54.30014 409.778627 
L 43.294961 434.04323 
" clip-path="url(#p644c12943f)" style="stroke: #000000; stroke-width: 1.312442"/>
    <path d="M 55.332766 410.001857 
L 55.332766 462.638143 
" clip-path="url(#p644c12943f)" style="stroke: #000000; stroke-width: 1.492133"/>
    <path d="M 56.365392 409.778627 
L 88.518972 480.671964 
" clip-path="url(#p644c12943f)" style="fill: #8e8e8e; stroke: #8e8e8e; stroke-width: 0.538993"/>
    <path d="M 57.112922 409.257148 
L 130.068246 481.193444 
" clip-path="url(#p644c12943f)" style="fill: #101010; stroke: #101010; stroke-width: 0.953062"/>
    <path d="M 57.550362 408.656096 
L 163.849638 463.983904 
" clip-path="url(#p644c12943f)" style="fill: #aaaaaa; stroke: #aaaaaa; stroke-width: 0.445241"/>
    <path d="M 40.097272 435.07 
C 15.532139 422.700285 15.532139 449.939715 40.097272 437.57 
C 15.532139 449.939715 15.532139 422.700285 40.097272 435.07 
" clip-path="url(#p644c12943f)" style="fill: #ffffff"/>
    <path d="M 43.294961 438.59677 
L 54.30014 462.861373 
" clip-path="url(#p644c12943f)" style="stroke: #000000; stroke-width: 1.914014"/>
    <path d="M 44.042491 438.075291 
L 87.771443 481.193444 
" clip-path="url(#p644c12943f)" style="fill: #cacaca; stroke: #cacaca; stroke-width: 0.328052"/>
    <path d="M 44.479931 437.474239 
L 129.630805 481.794496 
" clip-path="url(#p644c12943f)" style="stroke: #000000; stroke-width: 5"/>
    <path d="M 44.697241 436.886775 
L 163.632328 464.571368 
" clip-path="url(#p644c12943f)" style="fill: #898989; stroke: #898989; stroke-width: 0.554618"/>
    <path d="M 52.901333 465.719636 
C 26.560752 473.633508 45.293895 493.408641 54.620637 467.534572 
C 45.293895 493.408641 26.560752 473.633508 52.901333 465.719636 
" clip-path="url(#p644c12943f)" style="fill: #ffffff"/>
    <path d="M 57.550362 466.292382 
L 87.334002 481.794496 
" clip-path="url(#p644c12943f)" style="fill: #bebebe; stroke: #bebebe; stroke-width: 0.38274"/>
    <path d="M 57.767672 465.704918 
L 129.413496 482.38196 
" clip-path="url(#p644c12943f)" style="stroke: #000000; stroke-width: 1.164003"/>
    <path d="M 57.832766 465.138143 
L 163.567234 465.138143 
" clip-path="url(#p644c12943f)" style="fill: #545454; stroke: #545454; stroke-width: 0.749934"/>
    <path d="M 87.82287 484.754696 
C 69.969487 505.676271 96.428485 512.149907 90.251243 485.348838 
C 96.428485 512.149907 69.969487 505.676271 87.82287 484.754696 
" clip-path="url(#p644c12943f)" style="fill: #ffffff"/>
    <path d="M 92.051599 482.948735 
L 129.348401 482.948735 
" clip-path="url(#p644c12943f)" style="fill: #f7f7f7; stroke: #f7f7f7; stroke-width: 0.078048"/>
    <path d="M 91.986504 482.38196 
L 163.632328 465.704918 
" clip-path="url(#p644c12943f)" style="fill: #fafafa; stroke: #fafafa; stroke-width: 0.05461"/>
    <path d="M 131.148757 485.348838 
C 124.971515 512.149907 151.430513 505.676271 133.57713 484.754696 
C 151.430513 505.676271 124.971515 512.149907 131.148757 485.348838 
" clip-path="url(#p644c12943f)" style="fill: #ffffff"/>
    <path d="M 134.065998 481.794496 
L 163.849638 466.292382 
" clip-path="url(#p644c12943f)" style="fill: #b2b2b2; stroke: #b2b2b2; stroke-width: 0.421803"/>
    <path d="M 166.779363 467.534572 
C 176.106105 493.408641 194.839248 473.633508 168.498667 465.719636 
C 194.839248 473.633508 176.106105 493.408641 166.779363 467.534572 
" clip-path="url(#p644c12943f)" style="fill: #ffffff"/>
   </g>
   <g id="VertexCollection_3">
    <path d="M 179.137665 438.82 
C 179.800673 438.82 180.436615 438.556584 180.905432 438.087767 
C 181.374249 437.61895 181.637665 436.983008 181.637665 436.32 
C 181.637665 435.656992 181.374249 435.02105 180.905432 434.552233 
C 180.436615 434.083416 179.800673 433.82 179.137665 433.82 
C 178.474657 433.82 177.838715 434.083416 177.369898 434.552233 
C 176.901081 435.02105 176.637665 435.656992 176.637665 436.32 
C 176.637665 436.983008 176.901081 437.61895 177.369898 438.087767 
C 177.838715 438.556584 178.474657 438.82 179.137665 438.82 
z
" clip-path="url(#p644c12943f)" style="fill: #6b010e; stroke: #6b010e; stroke-width: 3"/>
    <path d="M 166.067234 410.001857 
C 166.730242 410.001857 167.366184 409.738441 167.835001 409.269624 
C 168.303818 408.800807 168.567234 408.164865 168.567234 407.501857 
C 168.567234 406.838849 168.303818 406.202907 167.835001 405.73409 
C 167.366184 405.265273 166.730242 405.001857 166.067234 405.001857 
C 165.404226 405.001857 164.768284 405.265273 164.299467 405.73409 
C 163.83065 406.202907 163.567234 406.838849 163.567234 407.501857 
C 163.567234 408.164865 163.83065 408.800807 164.299467 409.269624 
C 164.768284 409.738441 165.404226 410.001857 166.067234 410.001857 
z
" clip-path="url(#p644c12943f)" style="fill: #6b010e; stroke: #6b010e; stroke-width: 3"/>
    <path d="M 131.848401 392.191265 
C 132.511409 392.191265 133.147351 391.927849 133.616168 391.459032 
C 134.084986 390.990215 134.348401 390.354273 134.348401 389.691265 
C 134.348401 389.028257 134.084986 388.392316 133.616168 387.923498 
C 133.147351 387.454681 132.511409 387.191265 131.848401 387.191265 
C 131.185394 387.191265 130.549452 387.454681 130.080635 387.923498 
C 129.611817 388.392316 129.348401 389.028257 129.348401 389.691265 
C 129.348401 390.354273 129.611817 390.990215 130.080635 391.459032 
C 130.549452 391.927849 131.185394 392.191265 131.848401 392.191265 
z
" clip-path="url(#p644c12943f)" style="fill: #6b010e; stroke: #6b010e; stroke-width: 3"/>
    <path d="M 89.551599 392.191265 
C 90.214606 392.191265 90.850548 391.927849 91.319365 391.459032 
C 91.788183 390.990215 92.051599 390.354273 92.051599 389.691265 
C 92.051599 389.028257 91.788183 388.392316 91.319365 387.923498 
C 90.850548 387.454681 90.214606 387.191265 89.551599 387.191265 
C 88.888591 387.191265 88.252649 387.454681 87.783832 387.923498 
C 87.315014 388.392316 87.051599 389.028257 87.051599 389.691265 
C 87.051599 390.354273 87.315014 390.990215 87.783832 391.459032 
C 88.252649 391.927849 88.888591 392.191265 89.551599 392.191265 
z
" clip-path="url(#p644c12943f)" style="fill: #6b010e; stroke: #6b010e; stroke-width: 3"/>
    <path d="M 55.332766 410.001857 
C 55.995774 410.001857 56.631716 409.738441 57.100533 409.269624 
C 57.56935 408.800807 57.832766 408.164865 57.832766 407.501857 
C 57.832766 406.838849 57.56935 406.202907 57.100533 405.73409 
C 56.631716 405.265273 55.995774 405.001857 55.332766 405.001857 
C 54.669758 405.001857 54.033816 405.265273 53.564999 405.73409 
C 53.096182 406.202907 52.832766 406.838849 52.832766 407.501857 
C 52.832766 408.164865 53.096182 408.800807 53.564999 409.269624 
C 54.033816 409.738441 54.669758 410.001857 55.332766 410.001857 
z
" clip-path="url(#p644c12943f)" style="fill: #6b010e; stroke: #6b010e; stroke-width: 3"/>
    <path d="M 42.262335 438.82 
C 42.925343 438.82 43.561285 438.556584 44.030102 438.087767 
C 44.498919 437.61895 44.762335 436.983008 44.762335 436.32 
C 44.762335 435.656992 44.498919 435.02105 44.030102 434.552233 
C 43.561285 434.083416 42.925343 433.82 42.262335 433.82 
C 41.599327 433.82 40.963385 434.083416 40.494568 434.552233 
C 40.025751 435.02105 39.762335 435.656992 39.762335 436.32 
C 39.762335 436.983008 40.025751 437.61895 40.494568 438.087767 
C 40.963385 438.556584 41.599327 438.82 42.262335 438.82 
z
" clip-path="url(#p644c12943f)" style="fill: #6b010e; stroke: #6b010e; stroke-width: 3"/>
    <path d="M 55.332766 467.638143 
C 55.995774 467.638143 56.631716 467.374727 57.100533 466.90591 
C 57.56935 466.437093 57.832766 465.801151 57.832766 465.138143 
C 57.832766 464.475135 57.56935 463.839193 57.100533 463.370376 
C 56.631716 462.901559 55.995774 462.638143 55.332766 462.638143 
C 54.669758 462.638143 54.033816 462.901559 53.564999 463.370376 
C 53.096182 463.839193 52.832766 464.475135 52.832766 465.138143 
C 52.832766 465.801151 53.096182 466.437093 53.564999 466.90591 
C 54.033816 467.374727 54.669758 467.638143 55.332766 467.638143 
z
" clip-path="url(#p644c12943f)" style="fill: #6b010e; stroke: #6b010e; stroke-width: 3"/>
    <path d="M 89.551599 485.448735 
C 90.214606 485.448735 90.850548 485.185319 91.319365 484.716502 
C 91.788183 484.247684 92.051599 483.611743 92.051599 482.948735 
C 92.051599 482.285727 91.788183 481.649785 91.319365 481.180968 
C 90.850548 480.712151 90.214606 480.448735 89.551599 480.448735 
C 88.888591 480.448735 88.252649 480.712151 87.783832 481.180968 
C 87.315014 481.649785 87.051599 482.285727 87.051599 482.948735 
C 87.051599 483.611743 87.315014 484.247684 87.783832 484.716502 
C 88.252649 485.185319 88.888591 485.448735 89.551599 485.448735 
z
" clip-path="url(#p644c12943f)" style="fill: #6b010e; stroke: #6b010e; stroke-width: 3"/>
    <path d="M 131.848401 485.448735 
C 132.511409 485.448735 133.147351 485.185319 133.616168 484.716502 
C 134.084986 484.247684 134.348401 483.611743 134.348401 482.948735 
C 134.348401 482.285727 134.084986 481.649785 133.616168 481.180968 
C 133.147351 480.712151 132.511409 480.448735 131.848401 480.448735 
C 131.185394 480.448735 130.549452 480.712151 130.080635 481.180968 
C 129.611817 481.649785 129.348401 482.285727 129.348401 482.948735 
C 129.348401 483.611743 129.611817 484.247684 130.080635 484.716502 
C 130.549452 485.185319 131.185394 485.448735 131.848401 485.448735 
z
" clip-path="url(#p644c12943f)" style="fill: #6b010e; stroke: #6b010e; stroke-width: 3"/>
    <path d="M 166.067234 467.638143 
C 166.730242 467.638143 167.366184 467.374727 167.835001 466.90591 
C 168.303818 466.437093 168.567234 465.801151 168.567234 465.138143 
C 168.567234 464.475135 168.303818 463.839193 167.835001 463.370376 
C 167.366184 462.901559 166.730242 462.638143 166.067234 462.638143 
C 165.404226 462.638143 164.768284 462.901559 164.299467 463.370376 
C 163.83065 463.839193 163.567234 464.475135 163.567234 465.138143 
C 163.567234 465.801151 163.83065 466.437093 164.299467 466.90591 
C 164.768284 467.374727 165.404226 467.638143 166.067234 467.638143 
z
" clip-path="url(#p644c12943f)" style="fill: #6b010e; stroke: #6b010e; stroke-width: 3"/>
   </g>
   <g id="matplotlib.axis_5"/>
   <g id="matplotlib.axis_6"/>
  </g>
  <g id="axes_4">
   <g id="patch_5">
    <path d="M 27 631.315862 
L 194.4 631.315862 
L 194.4 516.612414 
L 27 516.612414 
z
" style="fill: #ffffff"/>
   </g>
   <g id="EdgeCollection_4">
    <path d="M 181.302728 575.214138 
C 205.867861 587.583853 205.867861 560.344423 181.302728 572.714138 
C 205.867861 560.344423 205.867861 587.583853 181.302728 575.214138 
" clip-path="url(#p1ea4122dcb)" style="fill: #ffffff"/>
    <path d="M 178.105039 571.687368 
L 167.09986 547.422765 
" clip-path="url(#p1ea4122dcb)" style="fill: #292929; stroke: #292929; stroke-width: 0.869953"/>
    <path d="M 177.357509 572.208847 
L 133.628557 529.090694 
" clip-path="url(#p1ea4122dcb)" style="fill: #878787; stroke: #878787; stroke-width: 0.561576"/>
    <path d="M 176.920069 572.809899 
L 91.769195 528.489642 
" clip-path="url(#p1ea4122dcb)" style="fill: #ededed; stroke: #ededed; stroke-width: 0.154078"/>
    <path d="M 176.702759 573.397363 
L 57.767672 545.71277 
" clip-path="url(#p1ea4122dcb)" style="stroke: #000000; stroke-width: 1.21137"/>
    <path d="M 176.637665 573.964138 
L 44.762335 573.964138 
" clip-path="url(#p1ea4122dcb)" style="stroke: #000000; stroke-width: 1.068195"/>
    <path d="M 176.702759 574.530912 
L 57.767672 602.215506 
" clip-path="url(#p1ea4122dcb)" style="fill: #272727; stroke: #272727; stroke-width: 0.880967"/>
    <path d="M 176.920069 575.118377 
L 91.769195 619.438634 
" clip-path="url(#p1ea4122dcb)" style="fill: #dfdfdf; stroke: #dfdfdf; stroke-width: 0.231172"/>
    <path d="M 177.357509 575.719429 
L 133.628557 618.837582 
" clip-path="url(#p1ea4122dcb)" style="stroke: #000000; stroke-width: 1.013128"/>
    <path d="M 178.105039 576.240908 
L 167.09986 600.505511 
" clip-path="url(#p1ea4122dcb)" style="fill: #cccccc; stroke: #cccccc; stroke-width: 0.31928"/>
    <path d="M 168.498667 544.564502 
C 194.839248 536.65063 176.106105 516.875497 166.779363 542.749566 
C 176.106105 516.875497 194.839248 536.65063 168.498667 544.564502 
" clip-path="url(#p1ea4122dcb)" style="fill: #ffffff"/>
    <path d="M 163.849638 543.991756 
L 134.065998 528.489642 
" clip-path="url(#p1ea4122dcb)" style="stroke: #000000; stroke-width: 1.079209"/>
    <path d="M 163.632328 544.57922 
L 91.986504 527.902178 
" clip-path="url(#p1ea4122dcb)" style="fill: #bababa; stroke: #bababa; stroke-width: 0.396374"/>
    <path d="M 163.567234 545.145995 
L 57.832766 545.145995 
" clip-path="url(#p1ea4122dcb)" style="stroke: #000000; stroke-width: 1.971299"/>
    <path d="M 163.632328 545.71277 
L 44.697241 573.397363 
" clip-path="url(#p1ea4122dcb)" style="stroke: #000000; stroke-width: 1.519747"/>
    <path d="M 163.849638 546.300234 
L 57.550362 601.628042 
" clip-path="url(#p1ea4122dcb)" style="stroke: #000000; stroke-width: 3.491156"/>
    <path d="M 164.287078 546.901286 
L 91.331754 618.837582 
" clip-path="url(#p1ea4122dcb)" style="fill: #f2f2f2; stroke: #f2f2f2; stroke-width: 0.121038"/>
    <path d="M 165.034608 547.422765 
L 132.881028 618.316102 
" clip-path="url(#p1ea4122dcb)" style="stroke: #000000; stroke-width: 1.189343"/>
    <path d="M 166.067234 547.645995 
L 166.067234 600.282281 
" clip-path="url(#p1ea4122dcb)" style="stroke: #000000; stroke-width: 1.112249"/>
    <path d="M 133.57713 525.529441 
C 151.430513 504.607867 124.971515 498.134231 131.148757 524.935299 
C 124.971515 498.134231 151.430513 504.607867 133.57713 525.529441 
" clip-path="url(#p1ea4122dcb)" style="fill: #ffffff"/>
    <path d="M 129.348401 527.335403 
L 92.051599 527.335403 
" clip-path="url(#p1ea4122dcb)" style="fill: #e1e1e1; stroke: #e1e1e1; stroke-width: 0.220159"/>
    <path d="M 129.413496 527.902178 
L 57.767672 544.57922 
" clip-path="url(#p1ea4122dcb)" style="fill: #272727; stroke: #272727; stroke-width: 0.880967"/>
    <path d="M 129.630805 528.489642 
L 44.479931 572.809899 
" clip-path="url(#p1ea4122dcb)" style="fill: #828282; stroke: #828282; stroke-width: 0.583603"/>
    <path d="M 130.068246 529.090694 
L 57.112922 601.02699 
" clip-path="url(#p1ea4122dcb)" style="fill: #616161; stroke: #616161; stroke-width: 0.704751"/>
    <path d="M 130.815775 529.612173 
L 90.584225 618.316102 
" clip-path="url(#p1ea4122dcb)" style="fill: #e1e1e1; stroke: #e1e1e1; stroke-width: 0.220159"/>
    <path d="M 131.848401 529.835403 
L 131.848401 618.092873 
" clip-path="url(#p1ea4122dcb)" style="fill: #9e9e9e; stroke: #9e9e9e; stroke-width: 0.484482"/>
    <path d="M 132.881028 529.612173 
L 165.034608 600.505511 
" clip-path="url(#p1ea4122dcb)" style="fill: #f6f6f6; stroke: #f6f6f6; stroke-width: 0.087998"/>
    <path d="M 90.251243 524.935299 
C 96.428485 498.134231 69.969487 504.607867 87.82287 525.529441 
C 69.969487 504.607867 96.428485 498.134231 90.251243 524.935299 
" clip-path="url(#p1ea4122dcb)" style="fill: #ffffff"/>
    <path d="M 87.334002 528.489642 
L 57.550362 543.991756 
" clip-path="url(#p1ea4122dcb)" style="fill: #ededed; stroke: #ededed; stroke-width: 0.154078"/>
    <path d="M 87.771443 529.090694 
L 44.042491 572.208847 
" clip-path="url(#p1ea4122dcb)" style="fill: #eeeeee; stroke: #eeeeee; stroke-width: 0.143065"/>
    <path d="M 88.518972 529.612173 
L 56.365392 600.505511 
" clip-path="url(#p1ea4122dcb)" style="fill: #e7e7e7; stroke: #e7e7e7; stroke-width: 0.187119"/>
    <path d="M 89.551599 529.835403 
L 89.551599 618.092873 
" clip-path="url(#p1ea4122dcb)" style="fill: #eeeeee; stroke: #eeeeee; stroke-width: 0.143065"/>
    <path d="M 90.584225 529.612173 
L 130.815775 618.316102 
" clip-path="url(#p1ea4122dcb)" style="fill: #f3f3f3; stroke: #f3f3f3; stroke-width: 0.110024"/>
    <path d="M 91.331754 529.090694 
L 164.287078 601.02699 
" clip-path="url(#p1ea4122dcb)" style="fill: #f8f8f8; stroke: #f8f8f8; stroke-width: 0.065971"/>
    <path d="M 54.620637 542.749566 
C 45.293895 516.875497 26.560752 536.65063 52.901333 544.564502 
C 26.560752 536.65063 45.293895 516.875497 54.620637 542.749566 
" clip-path="url(#p1ea4122dcb)" style="fill: #ffffff"/>
    <path d="M 54.30014 547.422765 
L 43.294961 571.687368 
" clip-path="url(#p1ea4122dcb)" style="stroke: #000000; stroke-width: 1.431639"/>
    <path d="M 55.332766 547.645995 
L 55.332766 600.282281 
" clip-path="url(#p1ea4122dcb)" style="stroke: #000000; stroke-width: 1.75103"/>
    <path d="M 56.365392 547.422765 
L 88.518972 618.316102 
" clip-path="url(#p1ea4122dcb)" style="fill: #7e7e7e; stroke: #7e7e7e; stroke-width: 0.594617"/>
    <path d="M 57.112922 546.901286 
L 130.068246 618.837582 
" clip-path="url(#p1ea4122dcb)" style="stroke: #000000; stroke-width: 1.233397"/>
    <path d="M 57.550362 546.300234 
L 163.849638 601.628042 
" clip-path="url(#p1ea4122dcb)" style="fill: #bfbfbf; stroke: #bfbfbf; stroke-width: 0.374347"/>
    <path d="M 40.097272 572.714138 
C 15.532139 560.344423 15.532139 587.583853 40.097272 575.214138 
C 15.532139 587.583853 15.532139 560.344423 40.097272 572.714138 
" clip-path="url(#p1ea4122dcb)" style="fill: #ffffff"/>
    <path d="M 43.294961 576.240908 
L 54.30014 600.505511 
" clip-path="url(#p1ea4122dcb)" style="stroke: #000000; stroke-width: 1.200357"/>
    <path d="M 44.042491 575.719429 
L 87.771443 618.837582 
" clip-path="url(#p1ea4122dcb)" style="fill: #cecece; stroke: #cecece; stroke-width: 0.308267"/>
    <path d="M 44.479931 575.118377 
L 129.630805 619.438634 
" clip-path="url(#p1ea4122dcb)" style="stroke: #000000; stroke-width: 5"/>
    <path d="M 44.697241 574.530912 
L 163.632328 602.215506 
" clip-path="url(#p1ea4122dcb)" style="fill: #dcdcdc; stroke: #dcdcdc; stroke-width: 0.242186"/>
    <path d="M 52.901333 603.363773 
C 26.560752 611.277646 45.293895 631.052779 54.620637 605.17871 
C 45.293895 631.052779 26.560752 611.277646 52.901333 603.363773 
" clip-path="url(#p1ea4122dcb)" style="fill: #ffffff"/>
    <path d="M 57.550362 603.93652 
L 87.334002 619.438634 
" clip-path="url(#p1ea4122dcb)" style="fill: #a5a5a5; stroke: #a5a5a5; stroke-width: 0.462455"/>
    <path d="M 57.767672 603.349055 
L 129.413496 620.026098 
" clip-path="url(#p1ea4122dcb)" style="fill: #131313; stroke: #131313; stroke-width: 0.947047"/>
    <path d="M 57.832766 602.782281 
L 163.567234 602.782281 
" clip-path="url(#p1ea4122dcb)" style="fill: #292929; stroke: #292929; stroke-width: 0.869953"/>
    <path d="M 87.82287 622.398834 
C 69.969487 643.320409 96.428485 649.794045 90.251243 622.992976 
C 96.428485 649.794045 69.969487 643.320409 87.82287 622.398834 
" clip-path="url(#p1ea4122dcb)" style="fill: #ffffff"/>
    <path d="M 92.051599 620.592873 
L 129.348401 620.592873 
" clip-path="url(#p1ea4122dcb)" style="fill: #f7f7f7; stroke: #f7f7f7; stroke-width: 0.076984"/>
    <path d="M 91.986504 620.026098 
L 163.632328 603.349055 
" clip-path="url(#p1ea4122dcb)" style="fill: #e9e9e9; stroke: #e9e9e9; stroke-width: 0.176105"/>
    <path d="M 131.148757 622.992976 
C 124.971515 649.794045 151.430513 643.320409 133.57713 622.398834 
C 151.430513 643.320409 124.971515 649.794045 131.148757 622.992976 
" clip-path="url(#p1ea4122dcb)" style="fill: #ffffff"/>
    <path d="M 134.065998 619.438634 
L 163.849638 603.93652 
" clip-path="url(#p1ea4122dcb)" style="fill: #949494; stroke: #949494; stroke-width: 0.517522"/>
    <path d="M 166.779363 605.17871 
C 176.106105 631.052779 194.839248 611.277646 168.498667 603.363773 
C 194.839248 611.277646 176.106105 631.052779 166.779363 605.17871 
" clip-path="url(#p1ea4122dcb)" style="fill: #ffffff"/>
   </g>
   <g id="VertexCollection_4">
    <path d="M 179.137665 576.464138 
C 179.800673 576.464138 180.436615 576.200722 180.905432 575.731905 
C 181.374249 575.263088 181.637665 574.627146 181.637665 573.964138 
C 181.637665 573.30113 181.374249 572.665188 180.905432 572.196371 
C 180.436615 571.727554 179.800673 571.464138 179.137665 571.464138 
C 178.474657 571.464138 177.838715 571.727554 177.369898 572.196371 
C 176.901081 572.665188 176.637665 573.30113 176.637665 573.964138 
C 176.637665 574.627146 176.901081 575.263088 177.369898 575.731905 
C 177.838715 576.200722 178.474657 576.464138 179.137665 576.464138 
z
" clip-path="url(#p1ea4122dcb)" style="fill: #6b010e; stroke: #6b010e; stroke-width: 3"/>
    <path d="M 166.067234 547.645995 
C 166.730242 547.645995 167.366184 547.382579 167.835001 546.913762 
C 168.303818 546.444945 168.567234 545.809003 168.567234 545.145995 
C 168.567234 544.482987 168.303818 543.847045 167.835001 543.378228 
C 167.366184 542.909411 166.730242 542.645995 166.067234 542.645995 
C 165.404226 542.645995 164.768284 542.909411 164.299467 543.378228 
C 163.83065 543.847045 163.567234 544.482987 163.567234 545.145995 
C 163.567234 545.809003 163.83065 546.444945 164.299467 546.913762 
C 164.768284 547.382579 165.404226 547.645995 166.067234 547.645995 
z
" clip-path="url(#p1ea4122dcb)" style="fill: #6b010e; stroke: #6b010e; stroke-width: 3"/>
    <path d="M 131.848401 529.835403 
C 132.511409 529.835403 133.147351 529.571987 133.616168 529.10317 
C 134.084986 528.634353 134.348401 527.998411 134.348401 527.335403 
C 134.348401 526.672395 134.084986 526.036453 133.616168 525.567636 
C 133.147351 525.098819 132.511409 524.835403 131.848401 524.835403 
C 131.185394 524.835403 130.549452 525.098819 130.080635 525.567636 
C 129.611817 526.036453 129.348401 526.672395 129.348401 527.335403 
C 129.348401 527.998411 129.611817 528.634353 130.080635 529.10317 
C 130.549452 529.571987 131.185394 529.835403 131.848401 529.835403 
z
" clip-path="url(#p1ea4122dcb)" style="fill: #6b010e; stroke: #6b010e; stroke-width: 3"/>
    <path d="M 89.551599 529.835403 
C 90.214606 529.835403 90.850548 529.571987 91.319365 529.10317 
C 91.788183 528.634353 92.051599 527.998411 92.051599 527.335403 
C 92.051599 526.672395 91.788183 526.036453 91.319365 525.567636 
C 90.850548 525.098819 90.214606 524.835403 89.551599 524.835403 
C 88.888591 524.835403 88.252649 525.098819 87.783832 525.567636 
C 87.315014 526.036453 87.051599 526.672395 87.051599 527.335403 
C 87.051599 527.998411 87.315014 528.634353 87.783832 529.10317 
C 88.252649 529.571987 88.888591 529.835403 89.551599 529.835403 
z
" clip-path="url(#p1ea4122dcb)" style="fill: #6b010e; stroke: #6b010e; stroke-width: 3"/>
    <path d="M 55.332766 547.645995 
C 55.995774 547.645995 56.631716 547.382579 57.100533 546.913762 
C 57.56935 546.444945 57.832766 545.809003 57.832766 545.145995 
C 57.832766 544.482987 57.56935 543.847045 57.100533 543.378228 
C 56.631716 542.909411 55.995774 542.645995 55.332766 542.645995 
C 54.669758 542.645995 54.033816 542.909411 53.564999 543.378228 
C 53.096182 543.847045 52.832766 544.482987 52.832766 545.145995 
C 52.832766 545.809003 53.096182 546.444945 53.564999 546.913762 
C 54.033816 547.382579 54.669758 547.645995 55.332766 547.645995 
z
" clip-path="url(#p1ea4122dcb)" style="fill: #6b010e; stroke: #6b010e; stroke-width: 3"/>
    <path d="M 42.262335 576.464138 
C 42.925343 576.464138 43.561285 576.200722 44.030102 575.731905 
C 44.498919 575.263088 44.762335 574.627146 44.762335 573.964138 
C 44.762335 573.30113 44.498919 572.665188 44.030102 572.196371 
C 43.561285 571.727554 42.925343 571.464138 42.262335 571.464138 
C 41.599327 571.464138 40.963385 571.727554 40.494568 572.196371 
C 40.025751 572.665188 39.762335 573.30113 39.762335 573.964138 
C 39.762335 574.627146 40.025751 575.263088 40.494568 575.731905 
C 40.963385 576.200722 41.599327 576.464138 42.262335 576.464138 
z
" clip-path="url(#p1ea4122dcb)" style="fill: #6b010e; stroke: #6b010e; stroke-width: 3"/>
    <path d="M 55.332766 605.282281 
C 55.995774 605.282281 56.631716 605.018865 57.100533 604.550048 
C 57.56935 604.081231 57.832766 603.445289 57.832766 602.782281 
C 57.832766 602.119273 57.56935 601.483331 57.100533 601.014514 
C 56.631716 600.545697 55.995774 600.282281 55.332766 600.282281 
C 54.669758 600.282281 54.033816 600.545697 53.564999 601.014514 
C 53.096182 601.483331 52.832766 602.119273 52.832766 602.782281 
C 52.832766 603.445289 53.096182 604.081231 53.564999 604.550048 
C 54.033816 605.018865 54.669758 605.282281 55.332766 605.282281 
z
" clip-path="url(#p1ea4122dcb)" style="fill: #6b010e; stroke: #6b010e; stroke-width: 3"/>
    <path d="M 89.551599 623.092873 
C 90.214606 623.092873 90.850548 622.829457 91.319365 622.36064 
C 91.788183 621.891822 92.051599 621.25588 92.051599 620.592873 
C 92.051599 619.929865 91.788183 619.293923 91.319365 618.825106 
C 90.850548 618.356288 90.214606 618.092873 89.551599 618.092873 
C 88.888591 618.092873 88.252649 618.356288 87.783832 618.825106 
C 87.315014 619.293923 87.051599 619.929865 87.051599 620.592873 
C 87.051599 621.25588 87.315014 621.891822 87.783832 622.36064 
C 88.252649 622.829457 88.888591 623.092873 89.551599 623.092873 
z
" clip-path="url(#p1ea4122dcb)" style="fill: #6b010e; stroke: #6b010e; stroke-width: 3"/>
    <path d="M 131.848401 623.092873 
C 132.511409 623.092873 133.147351 622.829457 133.616168 622.36064 
C 134.084986 621.891822 134.348401 621.25588 134.348401 620.592873 
C 134.348401 619.929865 134.084986 619.293923 133.616168 618.825106 
C 133.147351 618.356288 132.511409 618.092873 131.848401 618.092873 
C 131.185394 618.092873 130.549452 618.356288 130.080635 618.825106 
C 129.611817 619.293923 129.348401 619.929865 129.348401 620.592873 
C 129.348401 621.25588 129.611817 621.891822 130.080635 622.36064 
C 130.549452 622.829457 131.185394 623.092873 131.848401 623.092873 
z
" clip-path="url(#p1ea4122dcb)" style="fill: #6b010e; stroke: #6b010e; stroke-width: 3"/>
    <path d="M 166.067234 605.282281 
C 166.730242 605.282281 167.366184 605.018865 167.835001 604.550048 
C 168.303818 604.081231 168.567234 603.445289 168.567234 602.782281 
C 168.567234 602.119273 168.303818 601.483331 167.835001 601.014514 
C 167.366184 600.545697 166.730242 600.282281 166.067234 600.282281 
C 165.404226 600.282281 164.768284 600.545697 164.299467 601.014514 
C 163.83065 601.483331 163.567234 602.119273 163.567234 602.782281 
C 163.567234 603.445289 163.83065 604.081231 164.299467 604.550048 
C 164.768284 605.018865 165.404226 605.282281 166.067234 605.282281 
z
" clip-path="url(#p1ea4122dcb)" style="fill: #6b010e; stroke: #6b010e; stroke-width: 3"/>
   </g>
   <g id="matplotlib.axis_7"/>
   <g id="matplotlib.axis_8"/>
  </g>
  <g id="axes_5">
   <g id="patch_6">
    <path d="M 27 768.96 
L 194.4 768.96 
L 194.4 654.256552 
L 27 654.256552 
z
" style="fill: #ffffff"/>
   </g>
   <g id="EdgeCollection_5">
    <path d="M 181.302728 712.858276 
C 205.867861 725.227991 205.867861 697.988561 181.302728 710.358276 
C 205.867861 697.988561 205.867861 725.227991 181.302728 712.858276 
" clip-path="url(#p2286abdc73)" style="fill: #ffffff"/>
    <path d="M 178.105039 709.331506 
L 167.09986 685.066903 
" clip-path="url(#p2286abdc73)" style="stroke: #000000; stroke-width: 1.009551"/>
    <path d="M 177.357509 709.852985 
L 133.628557 666.734832 
" clip-path="url(#p2286abdc73)" style="fill: #838383; stroke: #838383; stroke-width: 0.576852"/>
    <path d="M 176.920069 710.454037 
L 91.769195 666.13378 
" clip-path="url(#p2286abdc73)" style="fill: #f0f0f0; stroke: #f0f0f0; stroke-width: 0.13614"/>
    <path d="M 176.702759 711.041501 
L 57.767672 683.356907 
" clip-path="url(#p2286abdc73)" style="fill: #bbbbbb; stroke: #bbbbbb; stroke-width: 0.392554"/>
    <path d="M 176.637665 711.608276 
L 44.762335 711.608276 
" clip-path="url(#p2286abdc73)" style="fill: #4b4b4b; stroke: #4b4b4b; stroke-width: 0.777176"/>
    <path d="M 176.702759 712.17505 
L 57.767672 739.859644 
" clip-path="url(#p2286abdc73)" style="fill: #353535; stroke: #353535; stroke-width: 0.84128"/>
    <path d="M 176.920069 712.762515 
L 91.769195 757.082772 
" clip-path="url(#p2286abdc73)" style="fill: #e9e9e9; stroke: #e9e9e9; stroke-width: 0.176205"/>
    <path d="M 177.357509 713.363567 
L 133.628557 756.48172 
" clip-path="url(#p2286abdc73)" style="fill: #838383; stroke: #838383; stroke-width: 0.576852"/>
    <path d="M 178.105039 713.885046 
L 167.09986 738.149648 
" clip-path="url(#p2286abdc73)" style="fill: #c6c6c6; stroke: #c6c6c6; stroke-width: 0.344477"/>
    <path d="M 168.498667 682.20864 
C 194.839248 674.294768 176.106105 654.519635 166.779363 680.393704 
C 176.106105 654.519635 194.839248 674.294768 168.498667 682.20864 
" clip-path="url(#p2286abdc73)" style="fill: #ffffff"/>
    <path d="M 163.849638 681.635894 
L 134.065998 666.13378 
" clip-path="url(#p2286abdc73)" style="fill: #1a1a1a; stroke: #1a1a1a; stroke-width: 0.921409"/>
    <path d="M 163.632328 682.223358 
L 91.986504 665.546316 
" clip-path="url(#p2286abdc73)" style="fill: #e6e6e6; stroke: #e6e6e6; stroke-width: 0.192231"/>
    <path d="M 163.567234 682.790133 
L 57.832766 682.790133 
" clip-path="url(#p2286abdc73)" style="fill: #323232; stroke: #323232; stroke-width: 0.849292"/>
    <path d="M 163.632328 683.356907 
L 44.697241 711.041501 
" clip-path="url(#p2286abdc73)" style="stroke: #000000; stroke-width: 1.057629"/>
    <path d="M 163.849638 683.944372 
L 57.550362 739.27218 
" clip-path="url(#p2286abdc73)" style="stroke: #000000; stroke-width: 3.181061"/>
    <path d="M 164.287078 684.545424 
L 91.331754 756.48172 
" clip-path="url(#p2286abdc73)" style="fill: #e0e0e0; stroke: #e0e0e0; stroke-width: 0.224282"/>
    <path d="M 165.034608 685.066903 
L 132.881028 755.96024 
" clip-path="url(#p2286abdc73)" style="fill: #515151; stroke: #515151; stroke-width: 0.76115"/>
    <path d="M 166.067234 685.290133 
L 166.067234 737.926419 
" clip-path="url(#p2286abdc73)" style="stroke: #000000; stroke-width: 1.482315"/>
    <path d="M 133.57713 663.173579 
C 151.430513 642.252005 124.971515 635.778369 131.148757 662.579437 
C 124.971515 635.778369 151.430513 642.252005 133.57713 663.173579 
" clip-path="url(#p2286abdc73)" style="fill: #ffffff"/>
    <path d="M 129.348401 664.979541 
L 92.051599 664.979541 
" clip-path="url(#p2286abdc73)" style="fill: #f7f7f7; stroke: #f7f7f7; stroke-width: 0.080049"/>
    <path d="M 129.413496 665.546316 
L 57.767672 682.223358 
" clip-path="url(#p2286abdc73)" style="fill: #9a9a9a; stroke: #9a9a9a; stroke-width: 0.496723"/>
    <path d="M 129.630805 666.13378 
L 44.479931 710.454037 
" clip-path="url(#p2286abdc73)" style="fill: #7c7c7c; stroke: #7c7c7c; stroke-width: 0.600891"/>
    <path d="M 130.068246 666.734832 
L 57.112922 738.671128 
" clip-path="url(#p2286abdc73)" style="fill: #7c7c7c; stroke: #7c7c7c; stroke-width: 0.600891"/>
    <path d="M 130.815775 667.256311 
L 90.584225 755.96024 
" clip-path="url(#p2286abdc73)" style="fill: #f2f2f2; stroke: #f2f2f2; stroke-width: 0.120114"/>
    <path d="M 131.848401 667.479541 
L 131.848401 755.737011 
" clip-path="url(#p2286abdc73)" style="fill: #d6d6d6; stroke: #d6d6d6; stroke-width: 0.27236"/>
    <path d="M 132.881028 667.256311 
L 165.034608 738.149648 
" clip-path="url(#p2286abdc73)" style="fill: #dfdfdf; stroke: #dfdfdf; stroke-width: 0.232295"/>
    <path d="M 90.251243 662.579437 
C 96.428485 635.778369 69.969487 642.252005 87.82287 663.173579 
C 69.969487 642.252005 96.428485 635.778369 90.251243 662.579437 
" clip-path="url(#p2286abdc73)" style="fill: #ffffff"/>
    <path d="M 87.334002 666.13378 
L 57.550362 681.635894 
" clip-path="url(#p2286abdc73)" style="fill: #eeeeee; stroke: #eeeeee; stroke-width: 0.144153"/>
    <path d="M 87.771443 666.734832 
L 44.042491 709.852985 
" clip-path="url(#p2286abdc73)" style="fill: #eaeaea; stroke: #eaeaea; stroke-width: 0.168192"/>
    <path d="M 88.518972 667.256311 
L 56.365392 738.149648 
" clip-path="url(#p2286abdc73)" style="fill: #d6d6d6; stroke: #d6d6d6; stroke-width: 0.27236"/>
    <path d="M 89.551599 667.479541 
L 89.551599 755.737011 
" clip-path="url(#p2286abdc73)" style="fill: #f2f2f2; stroke: #f2f2f2; stroke-width: 0.120114"/>
    <path d="M 90.584225 667.256311 
L 130.815775 755.96024 
" clip-path="url(#p2286abdc73)" style="fill: #f4f4f4; stroke: #f4f4f4; stroke-width: 0.104088"/>
    <path d="M 91.331754 666.734832 
L 164.287078 738.671128 
" clip-path="url(#p2286abdc73)" style="fill: #f4f4f4; stroke: #f4f4f4; stroke-width: 0.104088"/>
    <path d="M 54.620637 680.393704 
C 45.293895 654.519635 26.560752 674.294768 52.901333 682.20864 
C 26.560752 674.294768 45.293895 654.519635 54.620637 680.393704 
" clip-path="url(#p2286abdc73)" style="fill: #ffffff"/>
    <path d="M 54.30014 685.066903 
L 43.294961 709.331506 
" clip-path="url(#p2286abdc73)" style="fill: #151515; stroke: #151515; stroke-width: 0.937435"/>
    <path d="M 55.332766 685.290133 
L 55.332766 737.926419 
" clip-path="url(#p2286abdc73)" style="stroke: #000000; stroke-width: 1.009551"/>
    <path d="M 56.365392 685.066903 
L 88.518972 755.96024 
" clip-path="url(#p2286abdc73)" style="fill: #e7e7e7; stroke: #e7e7e7; stroke-width: 0.184218"/>
    <path d="M 57.112922 684.545424 
L 130.068246 756.48172 
" clip-path="url(#p2286abdc73)" style="fill: #bbbbbb; stroke: #bbbbbb; stroke-width: 0.392554"/>
    <path d="M 57.550362 683.944372 
L 163.849638 739.27218 
" clip-path="url(#p2286abdc73)" style="fill: #bfbfbf; stroke: #bfbfbf; stroke-width: 0.376528"/>
    <path d="M 40.097272 710.358276 
C 15.532139 697.988561 15.532139 725.227991 40.097272 712.858276 
C 15.532139 725.227991 15.532139 697.988561 40.097272 710.358276 
" clip-path="url(#p2286abdc73)" style="fill: #ffffff"/>
    <path d="M 43.294961 713.885046 
L 54.30014 738.149648 
" clip-path="url(#p2286abdc73)" style="stroke: #000000; stroke-width: 1.145772"/>
    <path d="M 44.042491 713.363567 
L 87.771443 756.48172 
" clip-path="url(#p2286abdc73)" style="fill: #d6d6d6; stroke: #d6d6d6; stroke-width: 0.27236"/>
    <path d="M 44.479931 712.762515 
L 129.630805 757.082772 
" clip-path="url(#p2286abdc73)" style="stroke: #000000; stroke-width: 5"/>
    <path d="M 44.697241 712.17505 
L 163.632328 739.859644 
" clip-path="url(#p2286abdc73)" style="fill: #717171; stroke: #717171; stroke-width: 0.640956"/>
    <path d="M 52.901333 741.007911 
C 26.560752 748.921783 45.293895 768.696917 54.620637 742.822848 
C 45.293895 768.696917 26.560752 748.921783 52.901333 741.007911 
" clip-path="url(#p2286abdc73)" style="fill: #ffffff"/>
    <path d="M 57.550362 741.580658 
L 87.334002 757.082772 
" clip-path="url(#p2286abdc73)" style="fill: #c8c8c8; stroke: #c8c8c8; stroke-width: 0.336464"/>
    <path d="M 57.767672 740.993193 
L 129.413496 757.670236 
" clip-path="url(#p2286abdc73)" style="fill: #919191; stroke: #919191; stroke-width: 0.528774"/>
    <path d="M 57.832766 740.426419 
L 163.567234 740.426419 
" clip-path="url(#p2286abdc73)" style="stroke: #000000; stroke-width: 1.03359"/>
    <path d="M 87.82287 760.042972 
C 69.969487 780.964547 96.428485 787.438182 90.251243 760.637114 
C 96.428485 787.438182 69.969487 780.964547 87.82287 760.042972 
" clip-path="url(#p2286abdc73)" style="fill: #ffffff"/>
    <path d="M 92.051599 758.237011 
L 129.348401 758.237011 
" clip-path="url(#p2286abdc73)" style="fill: #f2f2f2; stroke: #f2f2f2; stroke-width: 0.120114"/>
    <path d="M 91.986504 757.670236 
L 163.632328 740.993193 
" clip-path="url(#p2286abdc73)" style="fill: #e4e4e4; stroke: #e4e4e4; stroke-width: 0.200244"/>
    <path d="M 131.148757 760.637114 
C 124.971515 787.438182 151.430513 780.964547 133.57713 760.042972 
C 151.430513 780.964547 124.971515 787.438182 131.148757 760.637114 
" clip-path="url(#p2286abdc73)" style="fill: #ffffff"/>
    <path d="M 134.065998 757.082772 
L 163.849638 741.580658 
" clip-path="url(#p2286abdc73)" style="fill: #a2a2a2; stroke: #a2a2a2; stroke-width: 0.472684"/>
    <path d="M 166.779363 742.822848 
C 176.106105 768.696917 194.839248 748.921783 168.498667 741.007911 
C 194.839248 748.921783 176.106105 768.696917 166.779363 742.822848 
" clip-path="url(#p2286abdc73)" style="fill: #ffffff"/>
   </g>
   <g id="VertexCollection_5">
    <path d="M 179.137665 714.108276 
C 179.800673 714.108276 180.436615 713.84486 180.905432 713.376043 
C 181.374249 712.907226 181.637665 712.271284 181.637665 711.608276 
C 181.637665 710.945268 181.374249 710.309326 180.905432 709.840509 
C 180.436615 709.371692 179.800673 709.108276 179.137665 709.108276 
C 178.474657 709.108276 177.838715 709.371692 177.369898 709.840509 
C 176.901081 710.309326 176.637665 710.945268 176.637665 711.608276 
C 176.637665 712.271284 176.901081 712.907226 177.369898 713.376043 
C 177.838715 713.84486 178.474657 714.108276 179.137665 714.108276 
z
" clip-path="url(#p2286abdc73)" style="fill: #6b010e; stroke: #6b010e; stroke-width: 3"/>
    <path d="M 166.067234 685.290133 
C 166.730242 685.290133 167.366184 685.026717 167.835001 684.5579 
C 168.303818 684.089083 168.567234 683.453141 168.567234 682.790133 
C 168.567234 682.127125 168.303818 681.491183 167.835001 681.022366 
C 167.366184 680.553549 166.730242 680.290133 166.067234 680.290133 
C 165.404226 680.290133 164.768284 680.553549 164.299467 681.022366 
C 163.83065 681.491183 163.567234 682.127125 163.567234 682.790133 
C 163.567234 683.453141 163.83065 684.089083 164.299467 684.5579 
C 164.768284 685.026717 165.404226 685.290133 166.067234 685.290133 
z
" clip-path="url(#p2286abdc73)" style="fill: #6b010e; stroke: #6b010e; stroke-width: 3"/>
    <path d="M 131.848401 667.479541 
C 132.511409 667.479541 133.147351 667.216125 133.616168 666.747308 
C 134.084986 666.278491 134.348401 665.642549 134.348401 664.979541 
C 134.348401 664.316533 134.084986 663.680591 133.616168 663.211774 
C 133.147351 662.742957 132.511409 662.479541 131.848401 662.479541 
C 131.185394 662.479541 130.549452 662.742957 130.080635 663.211774 
C 129.611817 663.680591 129.348401 664.316533 129.348401 664.979541 
C 129.348401 665.642549 129.611817 666.278491 130.080635 666.747308 
C 130.549452 667.216125 131.185394 667.479541 131.848401 667.479541 
z
" clip-path="url(#p2286abdc73)" style="fill: #6b010e; stroke: #6b010e; stroke-width: 3"/>
    <path d="M 89.551599 667.479541 
C 90.214606 667.479541 90.850548 667.216125 91.319365 666.747308 
C 91.788183 666.278491 92.051599 665.642549 92.051599 664.979541 
C 92.051599 664.316533 91.788183 663.680591 91.319365 663.211774 
C 90.850548 662.742957 90.214606 662.479541 89.551599 662.479541 
C 88.888591 662.479541 88.252649 662.742957 87.783832 663.211774 
C 87.315014 663.680591 87.051599 664.316533 87.051599 664.979541 
C 87.051599 665.642549 87.315014 666.278491 87.783832 666.747308 
C 88.252649 667.216125 88.888591 667.479541 89.551599 667.479541 
z
" clip-path="url(#p2286abdc73)" style="fill: #6b010e; stroke: #6b010e; stroke-width: 3"/>
    <path d="M 55.332766 685.290133 
C 55.995774 685.290133 56.631716 685.026717 57.100533 684.5579 
C 57.56935 684.089083 57.832766 683.453141 57.832766 682.790133 
C 57.832766 682.127125 57.56935 681.491183 57.100533 681.022366 
C 56.631716 680.553549 55.995774 680.290133 55.332766 680.290133 
C 54.669758 680.290133 54.033816 680.553549 53.564999 681.022366 
C 53.096182 681.491183 52.832766 682.127125 52.832766 682.790133 
C 52.832766 683.453141 53.096182 684.089083 53.564999 684.5579 
C 54.033816 685.026717 54.669758 685.290133 55.332766 685.290133 
z
" clip-path="url(#p2286abdc73)" style="fill: #6b010e; stroke: #6b010e; stroke-width: 3"/>
    <path d="M 42.262335 714.108276 
C 42.925343 714.108276 43.561285 713.84486 44.030102 713.376043 
C 44.498919 712.907226 44.762335 712.271284 44.762335 711.608276 
C 44.762335 710.945268 44.498919 710.309326 44.030102 709.840509 
C 43.561285 709.371692 42.925343 709.108276 42.262335 709.108276 
C 41.599327 709.108276 40.963385 709.371692 40.494568 709.840509 
C 40.025751 710.309326 39.762335 710.945268 39.762335 711.608276 
C 39.762335 712.271284 40.025751 712.907226 40.494568 713.376043 
C 40.963385 713.84486 41.599327 714.108276 42.262335 714.108276 
z
" clip-path="url(#p2286abdc73)" style="fill: #6b010e; stroke: #6b010e; stroke-width: 3"/>
    <path d="M 55.332766 742.926419 
C 55.995774 742.926419 56.631716 742.663003 57.100533 742.194186 
C 57.56935 741.725368 57.832766 741.089427 57.832766 740.426419 
C 57.832766 739.763411 57.56935 739.127469 57.100533 738.658652 
C 56.631716 738.189835 55.995774 737.926419 55.332766 737.926419 
C 54.669758 737.926419 54.033816 738.189835 53.564999 738.658652 
C 53.096182 739.127469 52.832766 739.763411 52.832766 740.426419 
C 52.832766 741.089427 53.096182 741.725368 53.564999 742.194186 
C 54.033816 742.663003 54.669758 742.926419 55.332766 742.926419 
z
" clip-path="url(#p2286abdc73)" style="fill: #6b010e; stroke: #6b010e; stroke-width: 3"/>
    <path d="M 89.551599 760.737011 
C 90.214606 760.737011 90.850548 760.473595 91.319365 760.004778 
C 91.788183 759.53596 92.051599 758.900018 92.051599 758.237011 
C 92.051599 757.574003 91.788183 756.938061 91.319365 756.469244 
C 90.850548 756.000426 90.214606 755.737011 89.551599 755.737011 
C 88.888591 755.737011 88.252649 756.000426 87.783832 756.469244 
C 87.315014 756.938061 87.051599 757.574003 87.051599 758.237011 
C 87.051599 758.900018 87.315014 759.53596 87.783832 760.004778 
C 88.252649 760.473595 88.888591 760.737011 89.551599 760.737011 
z
" clip-path="url(#p2286abdc73)" style="fill: #6b010e; stroke: #6b010e; stroke-width: 3"/>
    <path d="M 131.848401 760.737011 
C 132.511409 760.737011 133.147351 760.473595 133.616168 760.004778 
C 134.084986 759.53596 134.348401 758.900018 134.348401 758.237011 
C 134.348401 757.574003 134.084986 756.938061 133.616168 756.469244 
C 133.147351 756.000426 132.511409 755.737011 131.848401 755.737011 
C 131.185394 755.737011 130.549452 756.000426 130.080635 756.469244 
C 129.611817 756.938061 129.348401 757.574003 129.348401 758.237011 
C 129.348401 758.900018 129.611817 759.53596 130.080635 760.004778 
C 130.549452 760.473595 131.185394 760.737011 131.848401 760.737011 
z
" clip-path="url(#p2286abdc73)" style="fill: #6b010e; stroke: #6b010e; stroke-width: 3"/>
    <path d="M 166.067234 742.926419 
C 166.730242 742.926419 167.366184 742.663003 167.835001 742.194186 
C 168.303818 741.725368 168.567234 741.089427 168.567234 740.426419 
C 168.567234 739.763411 168.303818 739.127469 167.835001 738.658652 
C 167.366184 738.189835 166.730242 737.926419 166.067234 737.926419 
C 165.404226 737.926419 164.768284 738.189835 164.299467 738.658652 
C 163.83065 739.127469 163.567234 739.763411 163.567234 740.426419 
C 163.567234 741.089427 163.83065 741.725368 164.299467 742.194186 
C 164.768284 742.663003 165.404226 742.926419 166.067234 742.926419 
z
" clip-path="url(#p2286abdc73)" style="fill: #6b010e; stroke: #6b010e; stroke-width: 3"/>
   </g>
   <g id="matplotlib.axis_9"/>
   <g id="matplotlib.axis_10"/>
  </g>
 </g>
 <defs>
  <clipPath id="p746795e339">
   <rect x="27" y="103.68" width="167.4" height="114.703448"/>
  </clipPath>
  <clipPath id="p65dd0c1d0d">
   <rect x="27" y="241.324138" width="167.4" height="114.703448"/>
  </clipPath>
  <clipPath id="p644c12943f">
   <rect x="27" y="378.968276" width="167.4" height="114.703448"/>
  </clipPath>
  <clipPath id="p1ea4122dcb">
   <rect x="27" y="516.612414" width="167.4" height="114.703448"/>
  </clipPath>
  <clipPath id="p2286abdc73">
   <rect x="27" y="654.256552" width="167.4" height="114.703448"/>
  </clipPath>
 </defs>
</svg>
