<?xml version="1.0" encoding="utf-8" standalone="no"?>
<!DOCTYPE svg PUBLIC "-//W3C//DTD SVG 1.1//EN"
  "http://www.w3.org/Graphics/SVG/1.1/DTD/svg11.dtd">
<svg xmlns:xlink="http://www.w3.org/1999/xlink" width="216pt" height="864pt" viewBox="0 0 216 864" xmlns="http://www.w3.org/2000/svg" version="1.1">
 <metadata>
  <rdf:RDF xmlns:dc="http://purl.org/dc/elements/1.1/" xmlns:cc="http://creativecommons.org/ns#" xmlns:rdf="http://www.w3.org/1999/02/22-rdf-syntax-ns#">
   <cc:Work>
    <dc:type rdf:resource="http://purl.org/dc/dcmitype/StillImage"/>
    <dc:date>2025-06-05T19:27:05.718915</dc:date>
    <dc:format>image/svg+xml</dc:format>
    <dc:creator>
     <cc:Agent>
      <dc:title>Matplotlib v3.7.5, https://matplotlib.org/</dc:title>
     </cc:Agent>
    </dc:creator>
   </cc:Work>
  </rdf:RDF>
 </metadata>
 <defs>
  <style type="text/css">*{stroke-linejoin: round; stroke-linecap: butt}</style>
 </defs>
 <g id="figure_1">
  <g id="patch_1">
   <path d="M 0 864 
L 216 864 
L 216 0 
L 0 0 
z
" style="fill: #ffffff"/>
  </g>
  <g id="axes_1">
   <g id="patch_2">
    <path d="M 27 218.383448 
L 194.4 218.383448 
L 194.4 103.68 
L 27 103.68 
z
" style="fill: #ffffff"/>
   </g>
   <g id="EdgeCollection_1">
    <path d="M 178.105039 158.754954 
L 167.09986 134.490352 
" clip-path="url(#pf668b02769)" style="stroke: #000000; stroke-width: 3.563136"/>
    <path d="M 177.357509 159.276433 
L 133.628557 116.15828 
" clip-path="url(#pf668b02769)" style="stroke: #000000; stroke-width: 1.149204"/>
    <path d="M 176.702759 160.46495 
L 57.767672 132.780356 
" clip-path="url(#pf668b02769)" style="stroke: #000000; stroke-width: 5"/>
    <path d="M 176.637665 161.031724 
L 44.762335 161.031724 
" clip-path="url(#pf668b02769)" style="fill: #737373; stroke: #737373; stroke-width: 0.631933"/>
    <path d="M 176.702759 161.598499 
L 57.767672 189.283093 
" clip-path="url(#pf668b02769)" style="fill: #9d9d9d; stroke: #9d9d9d; stroke-width: 0.488246"/>
    <path d="M 176.920069 162.185963 
L 91.769195 206.50622 
" clip-path="url(#pf668b02769)" style="stroke: #000000; stroke-width: 2.35617"/>
    <path d="M 177.357509 162.787015 
L 133.628557 205.905168 
" clip-path="url(#pf668b02769)" style="fill: #6c6c6c; stroke: #6c6c6c; stroke-width: 0.66067"/>
    <path d="M 178.105039 163.308494 
L 167.09986 187.573097 
" clip-path="url(#pf668b02769)" style="fill: #2c2c2c; stroke: #2c2c2c; stroke-width: 0.861831"/>
    <path d="M 168.498667 131.632089 
C 194.839248 123.718217 176.106105 103.943083 166.779363 129.817152 
C 176.106105 103.943083 194.839248 123.718217 168.498667 131.632089 
" clip-path="url(#pf668b02769)" style="fill: #ffffff"/>
    <path d="M 163.849638 131.059342 
L 134.065998 115.557228 
" clip-path="url(#pf668b02769)" style="fill: #f6f6f6; stroke: #f6f6f6; stroke-width: 0.085924"/>
    <path d="M 163.632328 131.646807 
L 91.986504 114.969764 
" clip-path="url(#pf668b02769)" style="fill: #a5a5a5; stroke: #a5a5a5; stroke-width: 0.459509"/>
    <path d="M 163.567234 132.213581 
L 57.832766 132.213581 
" clip-path="url(#pf668b02769)" style="stroke: #000000; stroke-width: 2.269958"/>
    <path d="M 163.632328 132.780356 
L 44.697241 160.46495 
" clip-path="url(#pf668b02769)" style="fill: #8c8c8c; stroke: #8c8c8c; stroke-width: 0.545721"/>
    <path d="M 163.849638 133.36782 
L 57.550362 188.695628 
" clip-path="url(#pf668b02769)" style="fill: #111111; stroke: #111111; stroke-width: 0.948043"/>
    <path d="M 164.287078 133.968872 
L 91.331754 205.905168 
" clip-path="url(#pf668b02769)" style="stroke: #000000; stroke-width: 2.586068"/>
    <path d="M 165.034608 134.490352 
L 132.881028 205.383689 
" clip-path="url(#pf668b02769)" style="stroke: #000000; stroke-width: 2.068797"/>
    <path d="M 166.067234 134.713581 
L 166.067234 187.349867 
" clip-path="url(#pf668b02769)" style="stroke: #000000; stroke-width: 1.40784"/>
    <path d="M 129.348401 114.402989 
L 92.051599 114.402989 
" clip-path="url(#pf668b02769)" style="fill: #dadada; stroke: #dadada; stroke-width: 0.258348"/>
    <path d="M 129.413496 114.969764 
L 57.767672 131.646807 
" clip-path="url(#pf668b02769)" style="fill: #e9e9e9; stroke: #e9e9e9; stroke-width: 0.172136"/>
    <path d="M 130.068246 116.15828 
L 57.112922 188.094576 
" clip-path="url(#pf668b02769)" style="fill: #eeeeee; stroke: #eeeeee; stroke-width: 0.143399"/>
    <path d="M 130.815775 116.67976 
L 90.584225 205.383689 
" clip-path="url(#pf668b02769)" style="fill: #f9f9f9; stroke: #f9f9f9; stroke-width: 0.057187"/>
    <path d="M 132.881028 116.67976 
L 165.034608 187.573097 
" clip-path="url(#pf668b02769)" style="fill: #e4e4e4; stroke: #e4e4e4; stroke-width: 0.200874"/>
    <path d="M 87.771443 116.15828 
L 44.042491 159.276433 
" clip-path="url(#pf668b02769)" style="fill: #fdfdfd; stroke: #fdfdfd; stroke-width: 0.02845"/>
    <path d="M 88.518972 116.67976 
L 56.365392 187.573097 
" clip-path="url(#pf668b02769)" style="fill: #e9e9e9; stroke: #e9e9e9; stroke-width: 0.172136"/>
    <path d="M 90.584225 116.67976 
L 130.815775 205.383689 
" clip-path="url(#pf668b02769)" style="fill: #090909; stroke: #090909; stroke-width: 0.97678"/>
    <path d="M 91.331754 116.15828 
L 164.287078 188.094576 
" clip-path="url(#pf668b02769)" style="fill: #f3f3f3; stroke: #f3f3f3; stroke-width: 0.114662"/>
    <path d="M 54.926457 129.74682 
C 48.91453 102.908185 27.851658 120.180764 52.993333 131.332075 
C 27.851658 120.180764 48.91453 102.908185 54.926457 129.74682 
" clip-path="url(#pf668b02769)" style="fill: #ffffff"/>
    <path d="M 54.30014 134.490352 
L 43.294961 158.754954 
" clip-path="url(#pf668b02769)" style="fill: #e4e4e4; stroke: #e4e4e4; stroke-width: 0.200874"/>
    <path d="M 55.332766 134.713581 
L 55.332766 187.349867 
" clip-path="url(#pf668b02769)" style="fill: #656565; stroke: #656565; stroke-width: 0.689407"/>
    <path d="M 56.365392 134.490352 
L 88.518972 205.383689 
" clip-path="url(#pf668b02769)" style="stroke: #000000; stroke-width: 1.235416"/>
    <path d="M 57.112922 133.968872 
L 130.068246 205.905168 
" clip-path="url(#pf668b02769)" style="fill: #949494; stroke: #949494; stroke-width: 0.516984"/>
    <path d="M 57.550362 133.36782 
L 163.849638 188.695628 
" clip-path="url(#pf668b02769)" style="stroke: #000000; stroke-width: 3.361975"/>
    <path d="M 40.097272 159.781724 
C 15.532139 147.412009 15.532139 174.651439 40.097272 162.281724 
C 15.532139 174.651439 15.532139 147.412009 40.097272 159.781724 
" clip-path="url(#pf668b02769)" style="fill: #ffffff"/>
    <path d="M 43.294961 163.308494 
L 54.30014 187.573097 
" clip-path="url(#pf668b02769)" style="fill: #f3f3f3; stroke: #f3f3f3; stroke-width: 0.114662"/>
    <path d="M 44.042491 162.787015 
L 87.771443 205.905168 
" clip-path="url(#pf668b02769)" style="fill: #eeeeee; stroke: #eeeeee; stroke-width: 0.143399"/>
    <path d="M 44.479931 162.185963 
L 129.630805 206.50622 
" clip-path="url(#pf668b02769)" style="fill: #dadada; stroke: #dadada; stroke-width: 0.258348"/>
    <path d="M 44.697241 161.598499 
L 163.632328 189.283093 
" clip-path="url(#pf668b02769)" style="fill: #f9f9f9; stroke: #f9f9f9; stroke-width: 0.057187"/>
    <path d="M 52.901333 190.43136 
C 26.560752 198.345232 45.293895 218.120365 54.620637 192.246296 
C 45.293895 218.120365 26.560752 198.345232 52.901333 190.43136 
" clip-path="url(#pf668b02769)" style="fill: #ffffff"/>
    <path d="M 57.550362 191.004106 
L 87.334002 206.50622 
" clip-path="url(#pf668b02769)" style="stroke: #000000; stroke-width: 1.235416"/>
    <path d="M 57.767672 190.416642 
L 129.413496 207.093684 
" clip-path="url(#pf668b02769)" style="fill: #bfbfbf; stroke: #bfbfbf; stroke-width: 0.373297"/>
    <path d="M 57.832766 189.849867 
L 163.567234 189.849867 
" clip-path="url(#pf668b02769)" style="stroke: #000000; stroke-width: 2.269958"/>
    <path d="M 87.82287 209.466421 
C 69.969487 230.387995 96.428485 236.861631 90.251243 210.060563 
C 96.428485 236.861631 69.969487 230.387995 87.82287 209.466421 
" clip-path="url(#pf668b02769)" style="fill: #ffffff"/>
    <path d="M 92.051599 207.660459 
L 129.348401 207.660459 
" clip-path="url(#pf668b02769)" style="stroke: #000000; stroke-width: 1.465314"/>
    <path d="M 91.986504 207.093684 
L 163.632328 190.416642 
" clip-path="url(#pf668b02769)" style="fill: #949494; stroke: #949494; stroke-width: 0.516984"/>
    <path d="M 131.148757 210.060563 
C 124.971515 236.861631 151.430513 230.387995 133.57713 209.466421 
C 151.430513 230.387995 124.971515 236.861631 131.148757 210.060563 
" clip-path="url(#pf668b02769)" style="fill: #ffffff"/>
    <path d="M 134.065998 206.50622 
L 163.849638 191.004106 
" clip-path="url(#pf668b02769)" style="fill: #bfbfbf; stroke: #bfbfbf; stroke-width: 0.373297"/>
    <path d="M 166.779363 192.246296 
C 176.106105 218.120365 194.839248 198.345232 168.498667 190.43136 
C 194.839248 198.345232 176.106105 218.120365 166.779363 192.246296 
" clip-path="url(#pf668b02769)" style="fill: #ffffff"/>
   </g>
   <g id="VertexCollection_1">
    <path d="M 179.137665 163.531724 
C 179.800673 163.531724 180.436615 163.268308 180.905432 162.799491 
C 181.374249 162.330674 181.637665 161.694732 181.637665 161.031724 
C 181.637665 160.368716 181.374249 159.732774 180.905432 159.263957 
C 180.436615 158.79514 179.800673 158.531724 179.137665 158.531724 
C 178.474657 158.531724 177.838715 158.79514 177.369898 159.263957 
C 176.901081 159.732774 176.637665 160.368716 176.637665 161.031724 
C 176.637665 161.694732 176.901081 162.330674 177.369898 162.799491 
C 177.838715 163.268308 178.474657 163.531724 179.137665 163.531724 
z
" clip-path="url(#pf668b02769)" style="fill: #6b010e; stroke: #6b010e; stroke-width: 3"/>
    <path d="M 166.067234 134.713581 
C 166.730242 134.713581 167.366184 134.450165 167.835001 133.981348 
C 168.303818 133.512531 168.567234 132.876589 168.567234 132.213581 
C 168.567234 131.550573 168.303818 130.914632 167.835001 130.445814 
C 167.366184 129.976997 166.730242 129.713581 166.067234 129.713581 
C 165.404226 129.713581 164.768284 129.976997 164.299467 130.445814 
C 163.83065 130.914632 163.567234 131.550573 163.567234 132.213581 
C 163.567234 132.876589 163.83065 133.512531 164.299467 133.981348 
C 164.768284 134.450165 165.404226 134.713581 166.067234 134.713581 
z
" clip-path="url(#pf668b02769)" style="fill: #6b010e; stroke: #6b010e; stroke-width: 3"/>
    <path d="M 131.848401 116.902989 
C 132.511409 116.902989 133.147351 116.639574 133.616168 116.170756 
C 134.084986 115.701939 134.348401 115.065997 134.348401 114.402989 
C 134.348401 113.739982 134.084986 113.10404 133.616168 112.635222 
C 133.147351 112.166405 132.511409 111.902989 131.848401 111.902989 
C 131.185394 111.902989 130.549452 112.166405 130.080635 112.635222 
C 129.611817 113.10404 129.348401 113.739982 129.348401 114.402989 
C 129.348401 115.065997 129.611817 115.701939 130.080635 116.170756 
C 130.549452 116.639574 131.185394 116.902989 131.848401 116.902989 
z
" clip-path="url(#pf668b02769)" style="fill: #6b010e; stroke: #6b010e; stroke-width: 3"/>
    <path d="M 89.551599 116.902989 
C 90.214606 116.902989 90.850548 116.639574 91.319365 116.170756 
C 91.788183 115.701939 92.051599 115.065997 92.051599 114.402989 
C 92.051599 113.739982 91.788183 113.10404 91.319365 112.635222 
C 90.850548 112.166405 90.214606 111.902989 89.551599 111.902989 
C 88.888591 111.902989 88.252649 112.166405 87.783832 112.635222 
C 87.315014 113.10404 87.051599 113.739982 87.051599 114.402989 
C 87.051599 115.065997 87.315014 115.701939 87.783832 116.170756 
C 88.252649 116.639574 88.888591 116.902989 89.551599 116.902989 
z
" clip-path="url(#pf668b02769)" style="fill: #6b010e; stroke: #6b010e; stroke-width: 3"/>
    <path d="M 55.332766 134.713581 
C 55.995774 134.713581 56.631716 134.450165 57.100533 133.981348 
C 57.56935 133.512531 57.832766 132.876589 57.832766 132.213581 
C 57.832766 131.550573 57.56935 130.914632 57.100533 130.445814 
C 56.631716 129.976997 55.995774 129.713581 55.332766 129.713581 
C 54.669758 129.713581 54.033816 129.976997 53.564999 130.445814 
C 53.096182 130.914632 52.832766 131.550573 52.832766 132.213581 
C 52.832766 132.876589 53.096182 133.512531 53.564999 133.981348 
C 54.033816 134.450165 54.669758 134.713581 55.332766 134.713581 
z
" clip-path="url(#pf668b02769)" style="fill: #6b010e; stroke: #6b010e; stroke-width: 3"/>
    <path d="M 42.262335 163.531724 
C 42.925343 163.531724 43.561285 163.268308 44.030102 162.799491 
C 44.498919 162.330674 44.762335 161.694732 44.762335 161.031724 
C 44.762335 160.368716 44.498919 159.732774 44.030102 159.263957 
C 43.561285 158.79514 42.925343 158.531724 42.262335 158.531724 
C 41.599327 158.531724 40.963385 158.79514 40.494568 159.263957 
C 40.025751 159.732774 39.762335 160.368716 39.762335 161.031724 
C 39.762335 161.694732 40.025751 162.330674 40.494568 162.799491 
C 40.963385 163.268308 41.599327 163.531724 42.262335 163.531724 
z
" clip-path="url(#pf668b02769)" style="fill: #6b010e; stroke: #6b010e; stroke-width: 3"/>
    <path d="M 55.332766 192.349867 
C 55.995774 192.349867 56.631716 192.086451 57.100533 191.617634 
C 57.56935 191.148817 57.832766 190.512875 57.832766 189.849867 
C 57.832766 189.186859 57.56935 188.550917 57.100533 188.0821 
C 56.631716 187.613283 55.995774 187.349867 55.332766 187.349867 
C 54.669758 187.349867 54.033816 187.613283 53.564999 188.0821 
C 53.096182 188.550917 52.832766 189.186859 52.832766 189.849867 
C 52.832766 190.512875 53.096182 191.148817 53.564999 191.617634 
C 54.033816 192.086451 54.669758 192.349867 55.332766 192.349867 
z
" clip-path="url(#pf668b02769)" style="fill: #6b010e; stroke: #6b010e; stroke-width: 3"/>
    <path d="M 89.551599 210.160459 
C 90.214606 210.160459 90.850548 209.897043 91.319365 209.428226 
C 91.788183 208.959409 92.051599 208.323467 92.051599 207.660459 
C 92.051599 206.997451 91.788183 206.361509 91.319365 205.892692 
C 90.850548 205.423875 90.214606 205.160459 89.551599 205.160459 
C 88.888591 205.160459 88.252649 205.423875 87.783832 205.892692 
C 87.315014 206.361509 87.051599 206.997451 87.051599 207.660459 
C 87.051599 208.323467 87.315014 208.959409 87.783832 209.428226 
C 88.252649 209.897043 88.888591 210.160459 89.551599 210.160459 
z
" clip-path="url(#pf668b02769)" style="fill: #6b010e; stroke: #6b010e; stroke-width: 3"/>
    <path d="M 131.848401 210.160459 
C 132.511409 210.160459 133.147351 209.897043 133.616168 209.428226 
C 134.084986 208.959409 134.348401 208.323467 134.348401 207.660459 
C 134.348401 206.997451 134.084986 206.361509 133.616168 205.892692 
C 133.147351 205.423875 132.511409 205.160459 131.848401 205.160459 
C 131.185394 205.160459 130.549452 205.423875 130.080635 205.892692 
C 129.611817 206.361509 129.348401 206.997451 129.348401 207.660459 
C 129.348401 208.323467 129.611817 208.959409 130.080635 209.428226 
C 130.549452 209.897043 131.185394 210.160459 131.848401 210.160459 
z
" clip-path="url(#pf668b02769)" style="fill: #6b010e; stroke: #6b010e; stroke-width: 3"/>
    <path d="M 166.067234 192.349867 
C 166.730242 192.349867 167.366184 192.086451 167.835001 191.617634 
C 168.303818 191.148817 168.567234 190.512875 168.567234 189.849867 
C 168.567234 189.186859 168.303818 188.550917 167.835001 188.0821 
C 167.366184 187.613283 166.730242 187.349867 166.067234 187.349867 
C 165.404226 187.349867 164.768284 187.613283 164.299467 188.0821 
C 163.83065 188.550917 163.567234 189.186859 163.567234 189.849867 
C 163.567234 190.512875 163.83065 191.148817 164.299467 191.617634 
C 164.768284 192.086451 165.404226 192.349867 166.067234 192.349867 
z
" clip-path="url(#pf668b02769)" style="fill: #6b010e; stroke: #6b010e; stroke-width: 3"/>
   </g>
   <g id="matplotlib.axis_1"/>
   <g id="matplotlib.axis_2"/>
  </g>
  <g id="axes_2">
   <g id="patch_3">
    <path d="M 27 356.027586 
L 194.4 356.027586 
L 194.4 241.324138 
L 27 241.324138 
z
" style="fill: #ffffff"/>
   </g>
   <g id="EdgeCollection_2">
    <path d="M 181.302728 299.925862 
C 205.867861 312.295577 205.867861 285.056147 181.302728 297.425862 
C 205.867861 285.056147 205.867861 312.295577 181.302728 299.925862 
" clip-path="url(#p98bbb88c6b)" style="fill: #ffffff"/>
    <path d="M 178.105039 296.399092 
L 167.09986 272.134489 
" clip-path="url(#p98bbb88c6b)" style="stroke: #000000; stroke-width: 4.747878"/>
    <path d="M 177.357509 296.920571 
L 133.628557 253.802418 
" clip-path="url(#p98bbb88c6b)" style="stroke: #000000; stroke-width: 1.21817"/>
    <path d="M 176.920069 297.521623 
L 91.769195 253.201366 
" clip-path="url(#p98bbb88c6b)" style="fill: #fbfbfb; stroke: #fbfbfb; stroke-width: 0.0416"/>
    <path d="M 176.702759 298.109088 
L 57.767672 270.424494 
" clip-path="url(#p98bbb88c6b)" style="stroke: #000000; stroke-width: 5"/>
    <path d="M 176.637665 298.675862 
L 44.762335 298.675862 
" clip-path="url(#p98bbb88c6b)" style="fill: #252525; stroke: #252525; stroke-width: 0.882007"/>
    <path d="M 176.702759 299.242637 
L 57.767672 326.92723 
" clip-path="url(#p98bbb88c6b)" style="stroke: #000000; stroke-width: 1.134129"/>
    <path d="M 176.920069 299.830101 
L 91.769195 344.150358 
" clip-path="url(#p98bbb88c6b)" style="stroke: #000000; stroke-width: 4.117573"/>
    <path d="M 177.357509 300.431153 
L 133.628557 343.549306 
" clip-path="url(#p98bbb88c6b)" style="stroke: #000000; stroke-width: 1.428271"/>
    <path d="M 178.105039 300.952632 
L 167.09986 325.217235 
" clip-path="url(#p98bbb88c6b)" style="fill: #0d0d0d; stroke: #0d0d0d; stroke-width: 0.966048"/>
    <path d="M 163.849638 268.70348 
L 134.065998 253.201366 
" clip-path="url(#p98bbb88c6b)" style="fill: #e2e2e2; stroke: #e2e2e2; stroke-width: 0.209681"/>
    <path d="M 163.567234 269.857719 
L 57.832766 269.857719 
" clip-path="url(#p98bbb88c6b)" style="stroke: #000000; stroke-width: 2.184637"/>
    <path d="M 163.632328 270.424494 
L 44.697241 298.109088 
" clip-path="url(#p98bbb88c6b)" style="fill: #e2e2e2; stroke: #e2e2e2; stroke-width: 0.209681"/>
    <path d="M 163.849638 271.011958 
L 57.550362 326.339766 
" clip-path="url(#p98bbb88c6b)" style="fill: #eaeaea; stroke: #eaeaea; stroke-width: 0.167661"/>
    <path d="M 164.287078 271.61301 
L 91.331754 343.549306 
" clip-path="url(#p98bbb88c6b)" style="stroke: #000000; stroke-width: 2.310698"/>
    <path d="M 165.034608 272.134489 
L 132.881028 343.027827 
" clip-path="url(#p98bbb88c6b)" style="stroke: #000000; stroke-width: 1.092109"/>
    <path d="M 166.067234 272.357719 
L 166.067234 324.994005 
" clip-path="url(#p98bbb88c6b)" style="fill: #fbfbfb; stroke: #fbfbfb; stroke-width: 0.0416"/>
    <path d="M 129.413496 252.613902 
L 57.767672 269.290945 
" clip-path="url(#p98bbb88c6b)" style="fill: #e2e2e2; stroke: #e2e2e2; stroke-width: 0.209681"/>
    <path d="M 130.068246 253.802418 
L 57.112922 325.738714 
" clip-path="url(#p98bbb88c6b)" style="fill: #bebebe; stroke: #bebebe; stroke-width: 0.377763"/>
    <path d="M 130.815775 254.323898 
L 90.584225 343.027827 
" clip-path="url(#p98bbb88c6b)" style="fill: #fbfbfb; stroke: #fbfbfb; stroke-width: 0.0416"/>
    <path d="M 87.334002 253.201366 
L 57.550362 268.70348 
" clip-path="url(#p98bbb88c6b)" style="fill: #e2e2e2; stroke: #e2e2e2; stroke-width: 0.209681"/>
    <path d="M 90.584225 254.323898 
L 130.815775 343.027827 
" clip-path="url(#p98bbb88c6b)" style="fill: #f1f1f1; stroke: #f1f1f1; stroke-width: 0.125641"/>
    <path d="M 54.620637 267.46129 
C 45.293895 241.587221 26.560752 261.362354 52.901333 269.276227 
C 26.560752 261.362354 45.293895 241.587221 54.620637 267.46129 
" clip-path="url(#p98bbb88c6b)" style="fill: #ffffff"/>
    <path d="M 54.30014 272.134489 
L 43.294961 296.399092 
" clip-path="url(#p98bbb88c6b)" style="fill: #c8c8c8; stroke: #c8c8c8; stroke-width: 0.335742"/>
    <path d="M 55.332766 272.357719 
L 55.332766 324.994005 
" clip-path="url(#p98bbb88c6b)" style="stroke: #000000; stroke-width: 1.092109"/>
    <path d="M 56.365392 272.134489 
L 88.518972 343.027827 
" clip-path="url(#p98bbb88c6b)" style="stroke: #000000; stroke-width: 2.016556"/>
    <path d="M 57.112922 271.61301 
L 130.068246 343.549306 
" clip-path="url(#p98bbb88c6b)" style="stroke: #000000; stroke-width: 1.554332"/>
    <path d="M 57.550362 271.011958 
L 163.849638 326.339766 
" clip-path="url(#p98bbb88c6b)" style="stroke: #000000; stroke-width: 1.134129"/>
    <path d="M 44.042491 300.431153 
L 87.771443 343.549306 
" clip-path="url(#p98bbb88c6b)" style="fill: #f7f7f7; stroke: #f7f7f7; stroke-width: 0.08362"/>
    <path d="M 44.479931 299.830101 
L 129.630805 344.150358 
" clip-path="url(#p98bbb88c6b)" style="fill: #d2d2d2; stroke: #d2d2d2; stroke-width: 0.293722"/>
    <path d="M 52.833363 327.548617 
C 25.415327 329.718156 39.547112 353.005045 54.13036 329.685858 
C 39.547112 353.005045 25.415327 329.718156 52.833363 327.548617 
" clip-path="url(#p98bbb88c6b)" style="fill: #ffffff"/>
    <path d="M 57.550362 328.648244 
L 87.334002 344.150358 
" clip-path="url(#p98bbb88c6b)" style="stroke: #000000; stroke-width: 2.310698"/>
    <path d="M 57.767672 328.06078 
L 129.413496 344.737822 
" clip-path="url(#p98bbb88c6b)" style="fill: #b3b3b3; stroke: #b3b3b3; stroke-width: 0.419783"/>
    <path d="M 57.832766 327.494005 
L 163.567234 327.494005 
" clip-path="url(#p98bbb88c6b)" style="fill: #696969; stroke: #696969; stroke-width: 0.671905"/>
    <path d="M 87.82287 347.110559 
C 69.969487 368.032133 96.428485 374.505769 90.251243 347.704701 
C 96.428485 374.505769 69.969487 368.032133 87.82287 347.110559 
" clip-path="url(#p98bbb88c6b)" style="fill: #ffffff"/>
    <path d="M 92.051599 345.304597 
L 129.348401 345.304597 
" clip-path="url(#p98bbb88c6b)" style="fill: #535353; stroke: #535353; stroke-width: 0.755946"/>
    <path d="M 91.986504 344.737822 
L 163.632328 328.06078 
" clip-path="url(#p98bbb88c6b)" style="fill: #eaeaea; stroke: #eaeaea; stroke-width: 0.167661"/>
    <path d="M 131.148757 347.704701 
C 124.971515 374.505769 151.430513 368.032133 133.57713 347.110559 
C 151.430513 368.032133 124.971515 374.505769 131.148757 347.704701 
" clip-path="url(#p98bbb88c6b)" style="fill: #ffffff"/>
    <path d="M 134.065998 344.150358 
L 163.849638 328.648244 
" clip-path="url(#p98bbb88c6b)" style="fill: #fbfbfb; stroke: #fbfbfb; stroke-width: 0.0416"/>
    <path d="M 166.779363 329.890434 
C 176.106105 355.764503 194.839248 335.98937 168.498667 328.075498 
C 194.839248 335.98937 176.106105 355.764503 166.779363 329.890434 
" clip-path="url(#p98bbb88c6b)" style="fill: #ffffff"/>
   </g>
   <g id="VertexCollection_2">
    <path d="M 179.137665 301.175862 
C 179.800673 301.175862 180.436615 300.912446 180.905432 300.443629 
C 181.374249 299.974812 181.637665 299.33887 181.637665 298.675862 
C 181.637665 298.012854 181.374249 297.376912 180.905432 296.908095 
C 180.436615 296.439278 179.800673 296.175862 179.137665 296.175862 
C 178.474657 296.175862 177.838715 296.439278 177.369898 296.908095 
C 176.901081 297.376912 176.637665 298.012854 176.637665 298.675862 
C 176.637665 299.33887 176.901081 299.974812 177.369898 300.443629 
C 177.838715 300.912446 178.474657 301.175862 179.137665 301.175862 
z
" clip-path="url(#p98bbb88c6b)" style="fill: #6b010e; stroke: #6b010e; stroke-width: 3"/>
    <path d="M 166.067234 272.357719 
C 166.730242 272.357719 167.366184 272.094303 167.835001 271.625486 
C 168.303818 271.156669 168.567234 270.520727 168.567234 269.857719 
C 168.567234 269.194711 168.303818 268.558769 167.835001 268.089952 
C 167.366184 267.621135 166.730242 267.357719 166.067234 267.357719 
C 165.404226 267.357719 164.768284 267.621135 164.299467 268.089952 
C 163.83065 268.558769 163.567234 269.194711 163.567234 269.857719 
C 163.567234 270.520727 163.83065 271.156669 164.299467 271.625486 
C 164.768284 272.094303 165.404226 272.357719 166.067234 272.357719 
z
" clip-path="url(#p98bbb88c6b)" style="fill: #6b010e; stroke: #6b010e; stroke-width: 3"/>
    <path d="M 131.848401 254.547127 
C 132.511409 254.547127 133.147351 254.283712 133.616168 253.814894 
C 134.084986 253.346077 134.348401 252.710135 134.348401 252.047127 
C 134.348401 251.38412 134.084986 250.748178 133.616168 250.27936 
C 133.147351 249.810543 132.511409 249.547127 131.848401 249.547127 
C 131.185394 249.547127 130.549452 249.810543 130.080635 250.27936 
C 129.611817 250.748178 129.348401 251.38412 129.348401 252.047127 
C 129.348401 252.710135 129.611817 253.346077 130.080635 253.814894 
C 130.549452 254.283712 131.185394 254.547127 131.848401 254.547127 
z
" clip-path="url(#p98bbb88c6b)" style="fill: #6b010e; stroke: #6b010e; stroke-width: 3"/>
    <path d="M 89.551599 254.547127 
C 90.214606 254.547127 90.850548 254.283712 91.319365 253.814894 
C 91.788183 253.346077 92.051599 252.710135 92.051599 252.047127 
C 92.051599 251.38412 91.788183 250.748178 91.319365 250.27936 
C 90.850548 249.810543 90.214606 249.547127 89.551599 249.547127 
C 88.888591 249.547127 88.252649 249.810543 87.783832 250.27936 
C 87.315014 250.748178 87.051599 251.38412 87.051599 252.047127 
C 87.051599 252.710135 87.315014 253.346077 87.783832 253.814894 
C 88.252649 254.283712 88.888591 254.547127 89.551599 254.547127 
z
" clip-path="url(#p98bbb88c6b)" style="fill: #6b010e; stroke: #6b010e; stroke-width: 3"/>
    <path d="M 55.332766 272.357719 
C 55.995774 272.357719 56.631716 272.094303 57.100533 271.625486 
C 57.56935 271.156669 57.832766 270.520727 57.832766 269.857719 
C 57.832766 269.194711 57.56935 268.558769 57.100533 268.089952 
C 56.631716 267.621135 55.995774 267.357719 55.332766 267.357719 
C 54.669758 267.357719 54.033816 267.621135 53.564999 268.089952 
C 53.096182 268.558769 52.832766 269.194711 52.832766 269.857719 
C 52.832766 270.520727 53.096182 271.156669 53.564999 271.625486 
C 54.033816 272.094303 54.669758 272.357719 55.332766 272.357719 
z
" clip-path="url(#p98bbb88c6b)" style="fill: #6b010e; stroke: #6b010e; stroke-width: 3"/>
    <path d="M 42.262335 301.175862 
C 42.925343 301.175862 43.561285 300.912446 44.030102 300.443629 
C 44.498919 299.974812 44.762335 299.33887 44.762335 298.675862 
C 44.762335 298.012854 44.498919 297.376912 44.030102 296.908095 
C 43.561285 296.439278 42.925343 296.175862 42.262335 296.175862 
C 41.599327 296.175862 40.963385 296.439278 40.494568 296.908095 
C 40.025751 297.376912 39.762335 298.012854 39.762335 298.675862 
C 39.762335 299.33887 40.025751 299.974812 40.494568 300.443629 
C 40.963385 300.912446 41.599327 301.175862 42.262335 301.175862 
z
" clip-path="url(#p98bbb88c6b)" style="fill: #6b010e; stroke: #6b010e; stroke-width: 3"/>
    <path d="M 55.332766 329.994005 
C 55.995774 329.994005 56.631716 329.730589 57.100533 329.261772 
C 57.56935 328.792955 57.832766 328.157013 57.832766 327.494005 
C 57.832766 326.830997 57.56935 326.195055 57.100533 325.726238 
C 56.631716 325.257421 55.995774 324.994005 55.332766 324.994005 
C 54.669758 324.994005 54.033816 325.257421 53.564999 325.726238 
C 53.096182 326.195055 52.832766 326.830997 52.832766 327.494005 
C 52.832766 328.157013 53.096182 328.792955 53.564999 329.261772 
C 54.033816 329.730589 54.669758 329.994005 55.332766 329.994005 
z
" clip-path="url(#p98bbb88c6b)" style="fill: #6b010e; stroke: #6b010e; stroke-width: 3"/>
    <path d="M 89.551599 347.804597 
C 90.214606 347.804597 90.850548 347.541181 91.319365 347.072364 
C 91.788183 346.603547 92.051599 345.967605 92.051599 345.304597 
C 92.051599 344.641589 91.788183 344.005647 91.319365 343.53683 
C 90.850548 343.068013 90.214606 342.804597 89.551599 342.804597 
C 88.888591 342.804597 88.252649 343.068013 87.783832 343.53683 
C 87.315014 344.005647 87.051599 344.641589 87.051599 345.304597 
C 87.051599 345.967605 87.315014 346.603547 87.783832 347.072364 
C 88.252649 347.541181 88.888591 347.804597 89.551599 347.804597 
z
" clip-path="url(#p98bbb88c6b)" style="fill: #6b010e; stroke: #6b010e; stroke-width: 3"/>
    <path d="M 131.848401 347.804597 
C 132.511409 347.804597 133.147351 347.541181 133.616168 347.072364 
C 134.084986 346.603547 134.348401 345.967605 134.348401 345.304597 
C 134.348401 344.641589 134.084986 344.005647 133.616168 343.53683 
C 133.147351 343.068013 132.511409 342.804597 131.848401 342.804597 
C 131.185394 342.804597 130.549452 343.068013 130.080635 343.53683 
C 129.611817 344.005647 129.348401 344.641589 129.348401 345.304597 
C 129.348401 345.967605 129.611817 346.603547 130.080635 347.072364 
C 130.549452 347.541181 131.185394 347.804597 131.848401 347.804597 
z
" clip-path="url(#p98bbb88c6b)" style="fill: #6b010e; stroke: #6b010e; stroke-width: 3"/>
    <path d="M 166.067234 329.994005 
C 166.730242 329.994005 167.366184 329.730589 167.835001 329.261772 
C 168.303818 328.792955 168.567234 328.157013 168.567234 327.494005 
C 168.567234 326.830997 168.303818 326.195055 167.835001 325.726238 
C 167.366184 325.257421 166.730242 324.994005 166.067234 324.994005 
C 165.404226 324.994005 164.768284 325.257421 164.299467 325.726238 
C 163.83065 326.195055 163.567234 326.830997 163.567234 327.494005 
C 163.567234 328.157013 163.83065 328.792955 164.299467 329.261772 
C 164.768284 329.730589 165.404226 329.994005 166.067234 329.994005 
z
" clip-path="url(#p98bbb88c6b)" style="fill: #6b010e; stroke: #6b010e; stroke-width: 3"/>
   </g>
   <g id="matplotlib.axis_3"/>
   <g id="matplotlib.axis_4"/>
  </g>
  <g id="axes_3">
   <g id="patch_4">
    <path d="M 27 493.671724 
L 194.4 493.671724 
L 194.4 378.968276 
L 27 378.968276 
z
" style="fill: #ffffff"/>
   </g>
   <g id="EdgeCollection_3">
    <path d="M 178.105039 434.04323 
L 167.09986 409.778627 
" clip-path="url(#p98e8965a6a)" style="stroke: #000000; stroke-width: 3.456695"/>
    <path d="M 177.357509 434.564709 
L 133.628557 391.446556 
" clip-path="url(#p98e8965a6a)" style="fill: #0f0f0f; stroke: #0f0f0f; stroke-width: 0.956541"/>
    <path d="M 176.702759 435.753225 
L 57.767672 408.068632 
" clip-path="url(#p98e8965a6a)" style="stroke: #000000; stroke-width: 5"/>
    <path d="M 176.637665 436.32 
L 44.762335 436.32 
" clip-path="url(#p98e8965a6a)" style="fill: #c7c7c7; stroke: #c7c7c7; stroke-width: 0.339218"/>
    <path d="M 176.702759 436.886775 
L 57.767672 464.571368 
" clip-path="url(#p98e8965a6a)" style="fill: #787878; stroke: #787878; stroke-width: 0.617013"/>
    <path d="M 176.920069 437.474239 
L 91.769195 481.794496 
" clip-path="url(#p98e8965a6a)" style="stroke: #000000; stroke-width: 1.326934"/>
    <path d="M 177.357509 438.075291 
L 133.628557 481.193444 
" clip-path="url(#p98e8965a6a)" style="fill: #e7e7e7; stroke: #e7e7e7; stroke-width: 0.184888"/>
    <path d="M 178.105039 438.59677 
L 167.09986 462.861373 
" clip-path="url(#p98e8965a6a)" style="stroke: #000000; stroke-width: 1.481264"/>
    <path d="M 163.849638 406.347618 
L 134.065998 390.845504 
" clip-path="url(#p98e8965a6a)" style="fill: #f9f9f9; stroke: #f9f9f9; stroke-width: 0.061424"/>
    <path d="M 163.567234 407.501857 
L 57.832766 407.501857 
" clip-path="url(#p98e8965a6a)" style="stroke: #000000; stroke-width: 1.481264"/>
    <path d="M 163.632328 408.068632 
L 44.697241 435.753225 
" clip-path="url(#p98e8965a6a)" style="fill: #e1e1e1; stroke: #e1e1e1; stroke-width: 0.215754"/>
    <path d="M 163.849638 408.656096 
L 57.550362 463.983904 
" clip-path="url(#p98e8965a6a)" style="fill: #f5f5f5; stroke: #f5f5f5; stroke-width: 0.09229"/>
    <path d="M 164.287078 409.257148 
L 91.331754 481.193444 
" clip-path="url(#p98e8965a6a)" style="stroke: #000000; stroke-width: 1.851658"/>
    <path d="M 165.034608 409.778627 
L 132.881028 480.671964 
" clip-path="url(#p98e8965a6a)" style="fill: #787878; stroke: #787878; stroke-width: 0.617013"/>
    <path d="M 166.067234 410.001857 
L 166.067234 462.638143 
" clip-path="url(#p98e8965a6a)" style="fill: #e7e7e7; stroke: #e7e7e7; stroke-width: 0.184888"/>
    <path d="M 129.348401 389.691265 
L 92.051599 389.691265 
" clip-path="url(#p98e8965a6a)" style="fill: #e1e1e1; stroke: #e1e1e1; stroke-width: 0.215754"/>
    <path d="M 129.413496 390.25804 
L 57.767672 406.935082 
" clip-path="url(#p98e8965a6a)" style="fill: #f2f2f2; stroke: #f2f2f2; stroke-width: 0.123156"/>
    <path d="M 130.815775 391.968036 
L 90.584225 480.671964 
" clip-path="url(#p98e8965a6a)" style="fill: #f9f9f9; stroke: #f9f9f9; stroke-width: 0.061424"/>
    <path d="M 90.584225 391.968036 
L 130.815775 480.671964 
" clip-path="url(#p98e8965a6a)" style="fill: #b8b8b8; stroke: #b8b8b8; stroke-width: 0.400951"/>
    <path d="M 54.926457 405.035095 
C 48.91453 378.196461 27.851658 395.46904 52.993333 406.620351 
C 27.851658 395.46904 48.91453 378.196461 54.926457 405.035095 
" clip-path="url(#p98e8965a6a)" style="fill: #ffffff"/>
    <path d="M 54.30014 409.778627 
L 43.294961 434.04323 
" clip-path="url(#p98e8965a6a)" style="fill: #f9f9f9; stroke: #f9f9f9; stroke-width: 0.061424"/>
    <path d="M 55.332766 410.001857 
L 55.332766 462.638143 
" clip-path="url(#p98e8965a6a)" style="fill: #898989; stroke: #898989; stroke-width: 0.555281"/>
    <path d="M 56.365392 409.778627 
L 88.518972 480.671964 
" clip-path="url(#p98e8965a6a)" style="stroke: #000000; stroke-width: 1.203469"/>
    <path d="M 57.112922 409.257148 
L 130.068246 481.193444 
" clip-path="url(#p98e8965a6a)" style="fill: #d5d5d5; stroke: #d5d5d5; stroke-width: 0.277486"/>
    <path d="M 57.550362 408.656096 
L 163.849638 463.983904 
" clip-path="url(#p98e8965a6a)" style="stroke: #000000; stroke-width: 1.326934"/>
    <path d="M 44.042491 438.075291 
L 87.771443 481.193444 
" clip-path="url(#p98e8965a6a)" style="fill: #fdfdfd; stroke: #fdfdfd; stroke-width: 0.030557"/>
    <path d="M 52.833363 465.192755 
C 25.415327 467.362294 39.547112 490.649182 54.13036 467.329996 
C 39.547112 490.649182 25.415327 467.362294 52.833363 465.192755 
" clip-path="url(#p98e8965a6a)" style="fill: #ffffff"/>
    <path d="M 57.550362 466.292382 
L 87.334002 481.794496 
" clip-path="url(#p98e8965a6a)" style="fill: #898989; stroke: #898989; stroke-width: 0.555281"/>
    <path d="M 57.767672 465.704918 
L 129.413496 482.38196 
" clip-path="url(#p98e8965a6a)" style="fill: #ededed; stroke: #ededed; stroke-width: 0.154022"/>
    <path d="M 57.832766 465.138143 
L 163.567234 465.138143 
" clip-path="url(#p98e8965a6a)" style="stroke: #000000; stroke-width: 1.172603"/>
    <path d="M 87.82287 484.754696 
C 69.969487 505.676271 96.428485 512.149907 90.251243 485.348838 
C 96.428485 512.149907 69.969487 505.676271 87.82287 484.754696 
" clip-path="url(#p98e8965a6a)" style="fill: #ffffff"/>
    <path d="M 92.051599 482.948735 
L 129.348401 482.948735 
" clip-path="url(#p98e8965a6a)" style="fill: #818181; stroke: #818181; stroke-width: 0.586147"/>
    <path d="M 91.986504 482.38196 
L 163.632328 465.704918 
" clip-path="url(#p98e8965a6a)" style="fill: #ededed; stroke: #ededed; stroke-width: 0.154022"/>
    <path d="M 166.473543 467.604905 
C 172.48547 494.443539 193.548342 477.17096 168.406667 466.019649 
C 193.548342 477.17096 172.48547 494.443539 166.473543 467.604905 
" clip-path="url(#p98e8965a6a)" style="fill: #ffffff"/>
   </g>
   <g id="VertexCollection_3">
    <path d="M 179.137665 438.82 
C 179.800673 438.82 180.436615 438.556584 180.905432 438.087767 
C 181.374249 437.61895 181.637665 436.983008 181.637665 436.32 
C 181.637665 435.656992 181.374249 435.02105 180.905432 434.552233 
C 180.436615 434.083416 179.800673 433.82 179.137665 433.82 
C 178.474657 433.82 177.838715 434.083416 177.369898 434.552233 
C 176.901081 435.02105 176.637665 435.656992 176.637665 436.32 
C 176.637665 436.983008 176.901081 437.61895 177.369898 438.087767 
C 177.838715 438.556584 178.474657 438.82 179.137665 438.82 
z
" clip-path="url(#p98e8965a6a)" style="fill: #6b010e; stroke: #6b010e; stroke-width: 3"/>
    <path d="M 166.067234 410.001857 
C 166.730242 410.001857 167.366184 409.738441 167.835001 409.269624 
C 168.303818 408.800807 168.567234 408.164865 168.567234 407.501857 
C 168.567234 406.838849 168.303818 406.202907 167.835001 405.73409 
C 167.366184 405.265273 166.730242 405.001857 166.067234 405.001857 
C 165.404226 405.001857 164.768284 405.265273 164.299467 405.73409 
C 163.83065 406.202907 163.567234 406.838849 163.567234 407.501857 
C 163.567234 408.164865 163.83065 408.800807 164.299467 409.269624 
C 164.768284 409.738441 165.404226 410.001857 166.067234 410.001857 
z
" clip-path="url(#p98e8965a6a)" style="fill: #6b010e; stroke: #6b010e; stroke-width: 3"/>
    <path d="M 131.848401 392.191265 
C 132.511409 392.191265 133.147351 391.927849 133.616168 391.459032 
C 134.084986 390.990215 134.348401 390.354273 134.348401 389.691265 
C 134.348401 389.028257 134.084986 388.392316 133.616168 387.923498 
C 133.147351 387.454681 132.511409 387.191265 131.848401 387.191265 
C 131.185394 387.191265 130.549452 387.454681 130.080635 387.923498 
C 129.611817 388.392316 129.348401 389.028257 129.348401 389.691265 
C 129.348401 390.354273 129.611817 390.990215 130.080635 391.459032 
C 130.549452 391.927849 131.185394 392.191265 131.848401 392.191265 
z
" clip-path="url(#p98e8965a6a)" style="fill: #6b010e; stroke: #6b010e; stroke-width: 3"/>
    <path d="M 89.551599 392.191265 
C 90.214606 392.191265 90.850548 391.927849 91.319365 391.459032 
C 91.788183 390.990215 92.051599 390.354273 92.051599 389.691265 
C 92.051599 389.028257 91.788183 388.392316 91.319365 387.923498 
C 90.850548 387.454681 90.214606 387.191265 89.551599 387.191265 
C 88.888591 387.191265 88.252649 387.454681 87.783832 387.923498 
C 87.315014 388.392316 87.051599 389.028257 87.051599 389.691265 
C 87.051599 390.354273 87.315014 390.990215 87.783832 391.459032 
C 88.252649 391.927849 88.888591 392.191265 89.551599 392.191265 
z
" clip-path="url(#p98e8965a6a)" style="fill: #6b010e; stroke: #6b010e; stroke-width: 3"/>
    <path d="M 55.332766 410.001857 
C 55.995774 410.001857 56.631716 409.738441 57.100533 409.269624 
C 57.56935 408.800807 57.832766 408.164865 57.832766 407.501857 
C 57.832766 406.838849 57.56935 406.202907 57.100533 405.73409 
C 56.631716 405.265273 55.995774 405.001857 55.332766 405.001857 
C 54.669758 405.001857 54.033816 405.265273 53.564999 405.73409 
C 53.096182 406.202907 52.832766 406.838849 52.832766 407.501857 
C 52.832766 408.164865 53.096182 408.800807 53.564999 409.269624 
C 54.033816 409.738441 54.669758 410.001857 55.332766 410.001857 
z
" clip-path="url(#p98e8965a6a)" style="fill: #6b010e; stroke: #6b010e; stroke-width: 3"/>
    <path d="M 42.262335 438.82 
C 42.925343 438.82 43.561285 438.556584 44.030102 438.087767 
C 44.498919 437.61895 44.762335 436.983008 44.762335 436.32 
C 44.762335 435.656992 44.498919 435.02105 44.030102 434.552233 
C 43.561285 434.083416 42.925343 433.82 42.262335 433.82 
C 41.599327 433.82 40.963385 434.083416 40.494568 434.552233 
C 40.025751 435.02105 39.762335 435.656992 39.762335 436.32 
C 39.762335 436.983008 40.025751 437.61895 40.494568 438.087767 
C 40.963385 438.556584 41.599327 438.82 42.262335 438.82 
z
" clip-path="url(#p98e8965a6a)" style="fill: #6b010e; stroke: #6b010e; stroke-width: 3"/>
    <path d="M 55.332766 467.638143 
C 55.995774 467.638143 56.631716 467.374727 57.100533 466.90591 
C 57.56935 466.437093 57.832766 465.801151 57.832766 465.138143 
C 57.832766 464.475135 57.56935 463.839193 57.100533 463.370376 
C 56.631716 462.901559 55.995774 462.638143 55.332766 462.638143 
C 54.669758 462.638143 54.033816 462.901559 53.564999 463.370376 
C 53.096182 463.839193 52.832766 464.475135 52.832766 465.138143 
C 52.832766 465.801151 53.096182 466.437093 53.564999 466.90591 
C 54.033816 467.374727 54.669758 467.638143 55.332766 467.638143 
z
" clip-path="url(#p98e8965a6a)" style="fill: #6b010e; stroke: #6b010e; stroke-width: 3"/>
    <path d="M 89.551599 485.448735 
C 90.214606 485.448735 90.850548 485.185319 91.319365 484.716502 
C 91.788183 484.247684 92.051599 483.611743 92.051599 482.948735 
C 92.051599 482.285727 91.788183 481.649785 91.319365 481.180968 
C 90.850548 480.712151 90.214606 480.448735 89.551599 480.448735 
C 88.888591 480.448735 88.252649 480.712151 87.783832 481.180968 
C 87.315014 481.649785 87.051599 482.285727 87.051599 482.948735 
C 87.051599 483.611743 87.315014 484.247684 87.783832 484.716502 
C 88.252649 485.185319 88.888591 485.448735 89.551599 485.448735 
z
" clip-path="url(#p98e8965a6a)" style="fill: #6b010e; stroke: #6b010e; stroke-width: 3"/>
    <path d="M 131.848401 485.448735 
C 132.511409 485.448735 133.147351 485.185319 133.616168 484.716502 
C 134.084986 484.247684 134.348401 483.611743 134.348401 482.948735 
C 134.348401 482.285727 134.084986 481.649785 133.616168 481.180968 
C 133.147351 480.712151 132.511409 480.448735 131.848401 480.448735 
C 131.185394 480.448735 130.549452 480.712151 130.080635 481.180968 
C 129.611817 481.649785 129.348401 482.285727 129.348401 482.948735 
C 129.348401 483.611743 129.611817 484.247684 130.080635 484.716502 
C 130.549452 485.185319 131.185394 485.448735 131.848401 485.448735 
z
" clip-path="url(#p98e8965a6a)" style="fill: #6b010e; stroke: #6b010e; stroke-width: 3"/>
    <path d="M 166.067234 467.638143 
C 166.730242 467.638143 167.366184 467.374727 167.835001 466.90591 
C 168.303818 466.437093 168.567234 465.801151 168.567234 465.138143 
C 168.567234 464.475135 168.303818 463.839193 167.835001 463.370376 
C 167.366184 462.901559 166.730242 462.638143 166.067234 462.638143 
C 165.404226 462.638143 164.768284 462.901559 164.299467 463.370376 
C 163.83065 463.839193 163.567234 464.475135 163.567234 465.138143 
C 163.567234 465.801151 163.83065 466.437093 164.299467 466.90591 
C 164.768284 467.374727 165.404226 467.638143 166.067234 467.638143 
z
" clip-path="url(#p98e8965a6a)" style="fill: #6b010e; stroke: #6b010e; stroke-width: 3"/>
   </g>
   <g id="matplotlib.axis_5"/>
   <g id="matplotlib.axis_6"/>
  </g>
  <g id="axes_4">
   <g id="patch_5">
    <path d="M 27 631.315862 
L 194.4 631.315862 
L 194.4 516.612414 
L 27 516.612414 
z
" style="fill: #ffffff"/>
   </g>
   <g id="EdgeCollection_4">
    <path d="M 178.105039 571.687368 
L 167.09986 547.422765 
" clip-path="url(#p6d785e34ab)" style="stroke: #000000; stroke-width: 5"/>
    <path d="M 177.357509 572.208847 
L 133.628557 529.090694 
" clip-path="url(#p6d785e34ab)" style="fill: #c1c1c1; stroke: #c1c1c1; stroke-width: 0.365665"/>
    <path d="M 176.702759 573.397363 
L 57.767672 545.71277 
" clip-path="url(#p6d785e34ab)" style="stroke: #000000; stroke-width: 4.247937"/>
    <path d="M 176.702759 574.530912 
L 57.767672 602.215506 
" clip-path="url(#p6d785e34ab)" style="stroke: #000000; stroke-width: 1.300663"/>
    <path d="M 176.920069 575.118377 
L 91.769195 619.438634 
" clip-path="url(#p6d785e34ab)" style="stroke: #000000; stroke-width: 3.597504"/>
    <path d="M 177.357509 575.719429 
L 133.628557 618.837582 
" clip-path="url(#p6d785e34ab)" style="stroke: #000000; stroke-width: 1.077076"/>
    <path d="M 178.105039 576.240908 
L 167.09986 600.505511 
" clip-path="url(#p6d785e34ab)" style="stroke: #000000; stroke-width: 1.890117"/>
    <path d="M 163.632328 544.57922 
L 91.986504 527.902178 
" clip-path="url(#p6d785e34ab)" style="fill: #f2f2f2; stroke: #f2f2f2; stroke-width: 0.121753"/>
    <path d="M 163.567234 545.145995 
L 57.832766 545.145995 
" clip-path="url(#p6d785e34ab)" style="stroke: #000000; stroke-width: 1.727509"/>
    <path d="M 163.849638 546.300234 
L 57.550362 601.628042 
" clip-path="url(#p6d785e34ab)" style="fill: #4d4d4d; stroke: #4d4d4d; stroke-width: 0.772186"/>
    <path d="M 164.287078 546.901286 
L 91.331754 618.837582 
" clip-path="url(#p6d785e34ab)" style="stroke: #000000; stroke-width: 2.886093"/>
    <path d="M 165.034608 547.422765 
L 132.881028 618.316102 
" clip-path="url(#p6d785e34ab)" style="stroke: #000000; stroke-width: 1.05675"/>
    <path d="M 166.067234 547.645995 
L 166.067234 600.282281 
" clip-path="url(#p6d785e34ab)" style="fill: #858585; stroke: #858585; stroke-width: 0.568926"/>
    <path d="M 129.348401 527.335403 
L 92.051599 527.335403 
" clip-path="url(#p6d785e34ab)" style="fill: #efefef; stroke: #efefef; stroke-width: 0.142079"/>
    <path d="M 129.413496 527.902178 
L 57.767672 544.57922 
" clip-path="url(#p6d785e34ab)" style="fill: #fcfcfc; stroke: #fcfcfc; stroke-width: 0.040449"/>
    <path d="M 130.068246 529.090694 
L 57.112922 601.02699 
" clip-path="url(#p6d785e34ab)" style="fill: #f9f9f9; stroke: #f9f9f9; stroke-width: 0.060775"/>
    <path d="M 130.815775 529.612173 
L 90.584225 618.316102 
" clip-path="url(#p6d785e34ab)" style="fill: #fefefe; stroke: #fefefe; stroke-width: 0.020123"/>
    <path d="M 132.881028 529.612173 
L 165.034608 600.505511 
" clip-path="url(#p6d785e34ab)" style="fill: #090909; stroke: #090909; stroke-width: 0.975446"/>
    <path d="M 88.518972 529.612173 
L 56.365392 600.505511 
" clip-path="url(#p6d785e34ab)" style="fill: #d8d8d8; stroke: #d8d8d8; stroke-width: 0.264035"/>
    <path d="M 90.584225 529.612173 
L 130.815775 618.316102 
" clip-path="url(#p6d785e34ab)" style="fill: #c6c6c6; stroke: #c6c6c6; stroke-width: 0.345339"/>
    <path d="M 91.331754 529.090694 
L 164.287078 601.02699 
" clip-path="url(#p6d785e34ab)" style="fill: #f4f4f4; stroke: #f4f4f4; stroke-width: 0.101427"/>
    <path d="M 55.332766 547.645995 
L 55.332766 600.282281 
" clip-path="url(#p6d785e34ab)" style="fill: #5a5a5a; stroke: #5a5a5a; stroke-width: 0.731534"/>
    <path d="M 56.365392 547.422765 
L 88.518972 618.316102 
" clip-path="url(#p6d785e34ab)" style="stroke: #000000; stroke-width: 1.15838"/>
    <path d="M 57.112922 546.901286 
L 130.068246 618.837582 
" clip-path="url(#p6d785e34ab)" style="fill: #646464; stroke: #646464; stroke-width: 0.690882"/>
    <path d="M 57.550362 546.300234 
L 163.849638 601.628042 
" clip-path="url(#p6d785e34ab)" style="stroke: #000000; stroke-width: 2.418594"/>
    <path d="M 52.833363 602.836893 
C 25.415327 605.006432 39.547112 628.29332 54.13036 604.974134 
C 39.547112 628.29332 25.415327 605.006432 52.833363 602.836893 
" clip-path="url(#p6d785e34ab)" style="fill: #ffffff"/>
    <path d="M 57.550362 603.93652 
L 87.334002 619.438634 
" clip-path="url(#p6d785e34ab)" style="stroke: #000000; stroke-width: 3.5162"/>
    <path d="M 57.767672 603.349055 
L 129.413496 620.026098 
" clip-path="url(#p6d785e34ab)" style="fill: #d4d4d4; stroke: #d4d4d4; stroke-width: 0.284361"/>
    <path d="M 57.832766 602.782281 
L 163.567234 602.782281 
" clip-path="url(#p6d785e34ab)" style="stroke: #000000; stroke-width: 1.991748"/>
    <path d="M 87.82287 622.398834 
C 69.969487 643.320409 96.428485 649.794045 90.251243 622.992976 
C 96.428485 649.794045 69.969487 643.320409 87.82287 622.398834 
" clip-path="url(#p6d785e34ab)" style="fill: #ffffff"/>
    <path d="M 92.051599 620.592873 
L 129.348401 620.592873 
" clip-path="url(#p6d785e34ab)" style="stroke: #000000; stroke-width: 1.463271"/>
    <path d="M 91.986504 620.026098 
L 163.632328 603.349055 
" clip-path="url(#p6d785e34ab)" style="stroke: #000000; stroke-width: 1.320989"/>
    <path d="M 131.148757 622.992976 
C 124.971515 649.794045 151.430513 643.320409 133.57713 622.398834 
C 151.430513 643.320409 124.971515 649.794045 131.148757 622.992976 
" clip-path="url(#p6d785e34ab)" style="fill: #ffffff"/>
    <path d="M 134.065998 619.438634 
L 163.849638 603.93652 
" clip-path="url(#p6d785e34ab)" style="fill: #979797; stroke: #979797; stroke-width: 0.507947"/>
    <path d="M 166.779363 605.17871 
C 176.106105 631.052779 194.839248 611.277646 168.498667 603.363773 
C 194.839248 611.277646 176.106105 631.052779 166.779363 605.17871 
" clip-path="url(#p6d785e34ab)" style="fill: #ffffff"/>
   </g>
   <g id="VertexCollection_4">
    <path d="M 179.137665 576.464138 
C 179.800673 576.464138 180.436615 576.200722 180.905432 575.731905 
C 181.374249 575.263088 181.637665 574.627146 181.637665 573.964138 
C 181.637665 573.30113 181.374249 572.665188 180.905432 572.196371 
C 180.436615 571.727554 179.800673 571.464138 179.137665 571.464138 
C 178.474657 571.464138 177.838715 571.727554 177.369898 572.196371 
C 176.901081 572.665188 176.637665 573.30113 176.637665 573.964138 
C 176.637665 574.627146 176.901081 575.263088 177.369898 575.731905 
C 177.838715 576.200722 178.474657 576.464138 179.137665 576.464138 
z
" clip-path="url(#p6d785e34ab)" style="fill: #6b010e; stroke: #6b010e; stroke-width: 3"/>
    <path d="M 166.067234 547.645995 
C 166.730242 547.645995 167.366184 547.382579 167.835001 546.913762 
C 168.303818 546.444945 168.567234 545.809003 168.567234 545.145995 
C 168.567234 544.482987 168.303818 543.847045 167.835001 543.378228 
C 167.366184 542.909411 166.730242 542.645995 166.067234 542.645995 
C 165.404226 542.645995 164.768284 542.909411 164.299467 543.378228 
C 163.83065 543.847045 163.567234 544.482987 163.567234 545.145995 
C 163.567234 545.809003 163.83065 546.444945 164.299467 546.913762 
C 164.768284 547.382579 165.404226 547.645995 166.067234 547.645995 
z
" clip-path="url(#p6d785e34ab)" style="fill: #6b010e; stroke: #6b010e; stroke-width: 3"/>
    <path d="M 131.848401 529.835403 
C 132.511409 529.835403 133.147351 529.571987 133.616168 529.10317 
C 134.084986 528.634353 134.348401 527.998411 134.348401 527.335403 
C 134.348401 526.672395 134.084986 526.036453 133.616168 525.567636 
C 133.147351 525.098819 132.511409 524.835403 131.848401 524.835403 
C 131.185394 524.835403 130.549452 525.098819 130.080635 525.567636 
C 129.611817 526.036453 129.348401 526.672395 129.348401 527.335403 
C 129.348401 527.998411 129.611817 528.634353 130.080635 529.10317 
C 130.549452 529.571987 131.185394 529.835403 131.848401 529.835403 
z
" clip-path="url(#p6d785e34ab)" style="fill: #6b010e; stroke: #6b010e; stroke-width: 3"/>
    <path d="M 89.551599 529.835403 
C 90.214606 529.835403 90.850548 529.571987 91.319365 529.10317 
C 91.788183 528.634353 92.051599 527.998411 92.051599 527.335403 
C 92.051599 526.672395 91.788183 526.036453 91.319365 525.567636 
C 90.850548 525.098819 90.214606 524.835403 89.551599 524.835403 
C 88.888591 524.835403 88.252649 525.098819 87.783832 525.567636 
C 87.315014 526.036453 87.051599 526.672395 87.051599 527.335403 
C 87.051599 527.998411 87.315014 528.634353 87.783832 529.10317 
C 88.252649 529.571987 88.888591 529.835403 89.551599 529.835403 
z
" clip-path="url(#p6d785e34ab)" style="fill: #6b010e; stroke: #6b010e; stroke-width: 3"/>
    <path d="M 55.332766 547.645995 
C 55.995774 547.645995 56.631716 547.382579 57.100533 546.913762 
C 57.56935 546.444945 57.832766 545.809003 57.832766 545.145995 
C 57.832766 544.482987 57.56935 543.847045 57.100533 543.378228 
C 56.631716 542.909411 55.995774 542.645995 55.332766 542.645995 
C 54.669758 542.645995 54.033816 542.909411 53.564999 543.378228 
C 53.096182 543.847045 52.832766 544.482987 52.832766 545.145995 
C 52.832766 545.809003 53.096182 546.444945 53.564999 546.913762 
C 54.033816 547.382579 54.669758 547.645995 55.332766 547.645995 
z
" clip-path="url(#p6d785e34ab)" style="fill: #6b010e; stroke: #6b010e; stroke-width: 3"/>
    <path d="M 42.262335 576.464138 
C 42.925343 576.464138 43.561285 576.200722 44.030102 575.731905 
C 44.498919 575.263088 44.762335 574.627146 44.762335 573.964138 
C 44.762335 573.30113 44.498919 572.665188 44.030102 572.196371 
C 43.561285 571.727554 42.925343 571.464138 42.262335 571.464138 
C 41.599327 571.464138 40.963385 571.727554 40.494568 572.196371 
C 40.025751 572.665188 39.762335 573.30113 39.762335 573.964138 
C 39.762335 574.627146 40.025751 575.263088 40.494568 575.731905 
C 40.963385 576.200722 41.599327 576.464138 42.262335 576.464138 
z
" clip-path="url(#p6d785e34ab)" style="fill: #6b010e; stroke: #6b010e; stroke-width: 3"/>
    <path d="M 55.332766 605.282281 
C 55.995774 605.282281 56.631716 605.018865 57.100533 604.550048 
C 57.56935 604.081231 57.832766 603.445289 57.832766 602.782281 
C 57.832766 602.119273 57.56935 601.483331 57.100533 601.014514 
C 56.631716 600.545697 55.995774 600.282281 55.332766 600.282281 
C 54.669758 600.282281 54.033816 600.545697 53.564999 601.014514 
C 53.096182 601.483331 52.832766 602.119273 52.832766 602.782281 
C 52.832766 603.445289 53.096182 604.081231 53.564999 604.550048 
C 54.033816 605.018865 54.669758 605.282281 55.332766 605.282281 
z
" clip-path="url(#p6d785e34ab)" style="fill: #6b010e; stroke: #6b010e; stroke-width: 3"/>
    <path d="M 89.551599 623.092873 
C 90.214606 623.092873 90.850548 622.829457 91.319365 622.36064 
C 91.788183 621.891822 92.051599 621.25588 92.051599 620.592873 
C 92.051599 619.929865 91.788183 619.293923 91.319365 618.825106 
C 90.850548 618.356288 90.214606 618.092873 89.551599 618.092873 
C 88.888591 618.092873 88.252649 618.356288 87.783832 618.825106 
C 87.315014 619.293923 87.051599 619.929865 87.051599 620.592873 
C 87.051599 621.25588 87.315014 621.891822 87.783832 622.36064 
C 88.252649 622.829457 88.888591 623.092873 89.551599 623.092873 
z
" clip-path="url(#p6d785e34ab)" style="fill: #6b010e; stroke: #6b010e; stroke-width: 3"/>
    <path d="M 131.848401 623.092873 
C 132.511409 623.092873 133.147351 622.829457 133.616168 622.36064 
C 134.084986 621.891822 134.348401 621.25588 134.348401 620.592873 
C 134.348401 619.929865 134.084986 619.293923 133.616168 618.825106 
C 133.147351 618.356288 132.511409 618.092873 131.848401 618.092873 
C 131.185394 618.092873 130.549452 618.356288 130.080635 618.825106 
C 129.611817 619.293923 129.348401 619.929865 129.348401 620.592873 
C 129.348401 621.25588 129.611817 621.891822 130.080635 622.36064 
C 130.549452 622.829457 131.185394 623.092873 131.848401 623.092873 
z
" clip-path="url(#p6d785e34ab)" style="fill: #6b010e; stroke: #6b010e; stroke-width: 3"/>
    <path d="M 166.067234 605.282281 
C 166.730242 605.282281 167.366184 605.018865 167.835001 604.550048 
C 168.303818 604.081231 168.567234 603.445289 168.567234 602.782281 
C 168.567234 602.119273 168.303818 601.483331 167.835001 601.014514 
C 167.366184 600.545697 166.730242 600.282281 166.067234 600.282281 
C 165.404226 600.282281 164.768284 600.545697 164.299467 601.014514 
C 163.83065 601.483331 163.567234 602.119273 163.567234 602.782281 
C 163.567234 603.445289 163.83065 604.081231 164.299467 604.550048 
C 164.768284 605.018865 165.404226 605.282281 166.067234 605.282281 
z
" clip-path="url(#p6d785e34ab)" style="fill: #6b010e; stroke: #6b010e; stroke-width: 3"/>
   </g>
   <g id="matplotlib.axis_7"/>
   <g id="matplotlib.axis_8"/>
  </g>
  <g id="axes_5">
   <g id="patch_6">
    <path d="M 27 768.96 
L 194.4 768.96 
L 194.4 654.256552 
L 27 654.256552 
z
" style="fill: #ffffff"/>
   </g>
   <g id="matplotlib.axis_9">
    <g id="xtick_1">
     <g id="line2d_1">
      <defs>
       <path id="m6d0265e959" d="M 0 0 
L 0 3.5 
" style="stroke: #000000; stroke-width: 0.8"/>
      </defs>
      <g>
       <use xlink:href="#m6d0265e959" x="27" y="768.96" style="stroke: #000000; stroke-width: 0.8"/>
      </g>
     </g>
     <g id="text_1">
      <!-- 0.0 -->
      <g transform="translate(19.048437 783.558437) scale(0.1 -0.1)">
       <defs>
        <path id="DejaVuSerif-30" d="M 2034 219 
Q 2513 219 2750 744 
Q 2988 1269 2988 2328 
Q 2988 3391 2750 3916 
Q 2513 4441 2034 4441 
Q 1556 4441 1318 3916 
Q 1081 3391 1081 2328 
Q 1081 1269 1318 744 
Q 1556 219 2034 219 
z
M 2034 -91 
Q 1275 -91 848 546 
Q 422 1184 422 2328 
Q 422 3475 848 4112 
Q 1275 4750 2034 4750 
Q 2797 4750 3222 4112 
Q 3647 3475 3647 2328 
Q 3647 1184 3222 546 
Q 2797 -91 2034 -91 
z
" transform="scale(0.015625)"/>
        <path id="DejaVuSerif-2e" d="M 603 325 
Q 603 500 722 622 
Q 841 744 1019 744 
Q 1191 744 1312 622 
Q 1434 500 1434 325 
Q 1434 153 1312 31 
Q 1191 -91 1019 -91 
Q 841 -91 722 29 
Q 603 150 603 325 
z
" transform="scale(0.015625)"/>
       </defs>
       <use xlink:href="#DejaVuSerif-30"/>
       <use xlink:href="#DejaVuSerif-2e" x="63.623047"/>
       <use xlink:href="#DejaVuSerif-30" x="95.410156"/>
      </g>
     </g>
    </g>
    <g id="xtick_2">
     <g id="line2d_2">
      <g>
       <use xlink:href="#m6d0265e959" x="60.48" y="768.96" style="stroke: #000000; stroke-width: 0.8"/>
      </g>
     </g>
     <g id="text_2">
      <!-- 0.2 -->
      <g transform="translate(52.528438 783.558437) scale(0.1 -0.1)">
       <defs>
        <path id="DejaVuSerif-32" d="M 819 3553 
L 469 3553 
L 469 4384 
Q 803 4563 1142 4656 
Q 1481 4750 1806 4750 
Q 2534 4750 2956 4397 
Q 3378 4044 3378 3438 
Q 3378 2753 2422 1800 
Q 2347 1728 2309 1691 
L 1131 513 
L 3078 513 
L 3078 1088 
L 3444 1088 
L 3444 0 
L 434 0 
L 434 341 
L 1850 1753 
Q 2319 2222 2519 2614 
Q 2719 3006 2719 3438 
Q 2719 3909 2473 4175 
Q 2228 4441 1797 4441 
Q 1350 4441 1106 4219 
Q 863 3997 819 3553 
z
" transform="scale(0.015625)"/>
       </defs>
       <use xlink:href="#DejaVuSerif-30"/>
       <use xlink:href="#DejaVuSerif-2e" x="63.623047"/>
       <use xlink:href="#DejaVuSerif-32" x="95.410156"/>
      </g>
     </g>
    </g>
    <g id="xtick_3">
     <g id="line2d_3">
      <g>
       <use xlink:href="#m6d0265e959" x="93.96" y="768.96" style="stroke: #000000; stroke-width: 0.8"/>
      </g>
     </g>
     <g id="text_3">
      <!-- 0.4 -->
      <g transform="translate(86.008438 783.558437) scale(0.1 -0.1)">
       <defs>
        <path id="DejaVuSerif-34" d="M 2234 1581 
L 2234 4063 
L 641 1581 
L 2234 1581 
z
M 3609 0 
L 1484 0 
L 1484 331 
L 2234 331 
L 2234 1247 
L 197 1247 
L 197 1588 
L 2241 4750 
L 2859 4750 
L 2859 1581 
L 3750 1581 
L 3750 1247 
L 2859 1247 
L 2859 331 
L 3609 331 
L 3609 0 
z
" transform="scale(0.015625)"/>
       </defs>
       <use xlink:href="#DejaVuSerif-30"/>
       <use xlink:href="#DejaVuSerif-2e" x="63.623047"/>
       <use xlink:href="#DejaVuSerif-34" x="95.410156"/>
      </g>
     </g>
    </g>
    <g id="xtick_4">
     <g id="line2d_4">
      <g>
       <use xlink:href="#m6d0265e959" x="127.44" y="768.96" style="stroke: #000000; stroke-width: 0.8"/>
      </g>
     </g>
     <g id="text_4">
      <!-- 0.6 -->
      <g transform="translate(119.488438 783.558437) scale(0.1 -0.1)">
       <defs>
        <path id="DejaVuSerif-36" d="M 2094 219 
Q 2534 219 2771 542 
Q 3009 866 3009 1472 
Q 3009 2078 2771 2401 
Q 2534 2725 2094 2725 
Q 1647 2725 1412 2412 
Q 1178 2100 1178 1509 
Q 1178 888 1415 553 
Q 1653 219 2094 219 
z
M 1075 2569 
Q 1288 2803 1556 2918 
Q 1825 3034 2163 3034 
Q 2859 3034 3264 2615 
Q 3669 2197 3669 1472 
Q 3669 763 3233 336 
Q 2797 -91 2069 -91 
Q 1278 -91 853 498 
Q 428 1088 428 2181 
Q 428 3406 931 4078 
Q 1434 4750 2350 4750 
Q 2597 4750 2869 4703 
Q 3141 4656 3425 4563 
L 3425 3794 
L 3072 3794 
Q 3034 4109 2831 4275 
Q 2628 4441 2284 4441 
Q 1678 4441 1381 3981 
Q 1084 3522 1075 2569 
z
" transform="scale(0.015625)"/>
       </defs>
       <use xlink:href="#DejaVuSerif-30"/>
       <use xlink:href="#DejaVuSerif-2e" x="63.623047"/>
       <use xlink:href="#DejaVuSerif-36" x="95.410156"/>
      </g>
     </g>
    </g>
    <g id="xtick_5">
     <g id="line2d_5">
      <g>
       <use xlink:href="#m6d0265e959" x="160.92" y="768.96" style="stroke: #000000; stroke-width: 0.8"/>
      </g>
     </g>
     <g id="text_5">
      <!-- 0.8 -->
      <g transform="translate(152.968438 783.558437) scale(0.1 -0.1)">
       <defs>
        <path id="DejaVuSerif-38" d="M 2981 1275 
Q 2981 1775 2732 2051 
Q 2484 2328 2034 2328 
Q 1584 2328 1336 2051 
Q 1088 1775 1088 1275 
Q 1088 772 1336 495 
Q 1584 219 2034 219 
Q 2484 219 2732 495 
Q 2981 772 2981 1275 
z
M 2853 3541 
Q 2853 3966 2637 4203 
Q 2422 4441 2034 4441 
Q 1650 4441 1433 4203 
Q 1216 3966 1216 3541 
Q 1216 3113 1433 2875 
Q 1650 2638 2034 2638 
Q 2422 2638 2637 2875 
Q 2853 3113 2853 3541 
z
M 2516 2484 
Q 3047 2413 3344 2092 
Q 3641 1772 3641 1275 
Q 3641 619 3225 264 
Q 2809 -91 2034 -91 
Q 1263 -91 845 264 
Q 428 619 428 1275 
Q 428 1772 725 2092 
Q 1022 2413 1556 2484 
Q 1084 2569 832 2842 
Q 581 3116 581 3541 
Q 581 4103 968 4426 
Q 1356 4750 2034 4750 
Q 2713 4750 3100 4426 
Q 3488 4103 3488 3541 
Q 3488 3116 3236 2842 
Q 2984 2569 2516 2484 
z
" transform="scale(0.015625)"/>
       </defs>
       <use xlink:href="#DejaVuSerif-30"/>
       <use xlink:href="#DejaVuSerif-2e" x="63.623047"/>
       <use xlink:href="#DejaVuSerif-38" x="95.410156"/>
      </g>
     </g>
    </g>
    <g id="xtick_6">
     <g id="line2d_6">
      <g>
       <use xlink:href="#m6d0265e959" x="194.4" y="768.96" style="stroke: #000000; stroke-width: 0.8"/>
      </g>
     </g>
     <g id="text_6">
      <!-- 1.0 -->
      <g transform="translate(186.448438 783.558437) scale(0.1 -0.1)">
       <defs>
        <path id="DejaVuSerif-31" d="M 909 0 
L 909 331 
L 1722 331 
L 1722 4213 
L 781 3603 
L 781 4013 
L 1919 4750 
L 2350 4750 
L 2350 331 
L 3163 331 
L 3163 0 
L 909 0 
z
" transform="scale(0.015625)"/>
       </defs>
       <use xlink:href="#DejaVuSerif-31"/>
       <use xlink:href="#DejaVuSerif-2e" x="63.623047"/>
       <use xlink:href="#DejaVuSerif-30" x="95.410156"/>
      </g>
     </g>
    </g>
   </g>
   <g id="matplotlib.axis_10">
    <g id="ytick_1">
     <g id="line2d_7">
      <defs>
       <path id="mb34a086729" d="M 0 0 
L -3.5 0 
" style="stroke: #000000; stroke-width: 0.8"/>
      </defs>
      <g>
       <use xlink:href="#mb34a086729" x="27" y="768.96" style="stroke: #000000; stroke-width: 0.8"/>
      </g>
     </g>
     <g id="text_7">
      <!-- 0.0 -->
      <g transform="translate(4.096875 772.759219) scale(0.1 -0.1)">
       <use xlink:href="#DejaVuSerif-30"/>
       <use xlink:href="#DejaVuSerif-2e" x="63.623047"/>
       <use xlink:href="#DejaVuSerif-30" x="95.410156"/>
      </g>
     </g>
    </g>
    <g id="ytick_2">
     <g id="line2d_8">
      <g>
       <use xlink:href="#mb34a086729" x="27" y="746.01931" style="stroke: #000000; stroke-width: 0.8"/>
      </g>
     </g>
     <g id="text_8">
      <!-- 0.2 -->
      <g transform="translate(4.096875 749.818529) scale(0.1 -0.1)">
       <use xlink:href="#DejaVuSerif-30"/>
       <use xlink:href="#DejaVuSerif-2e" x="63.623047"/>
       <use xlink:href="#DejaVuSerif-32" x="95.410156"/>
      </g>
     </g>
    </g>
    <g id="ytick_3">
     <g id="line2d_9">
      <g>
       <use xlink:href="#mb34a086729" x="27" y="723.078621" style="stroke: #000000; stroke-width: 0.8"/>
      </g>
     </g>
     <g id="text_9">
      <!-- 0.4 -->
      <g transform="translate(4.096875 726.877839) scale(0.1 -0.1)">
       <use xlink:href="#DejaVuSerif-30"/>
       <use xlink:href="#DejaVuSerif-2e" x="63.623047"/>
       <use xlink:href="#DejaVuSerif-34" x="95.410156"/>
      </g>
     </g>
    </g>
    <g id="ytick_4">
     <g id="line2d_10">
      <g>
       <use xlink:href="#mb34a086729" x="27" y="700.137931" style="stroke: #000000; stroke-width: 0.8"/>
      </g>
     </g>
     <g id="text_10">
      <!-- 0.6 -->
      <g transform="translate(4.096875 703.93715) scale(0.1 -0.1)">
       <use xlink:href="#DejaVuSerif-30"/>
       <use xlink:href="#DejaVuSerif-2e" x="63.623047"/>
       <use xlink:href="#DejaVuSerif-36" x="95.410156"/>
      </g>
     </g>
    </g>
    <g id="ytick_5">
     <g id="line2d_11">
      <g>
       <use xlink:href="#mb34a086729" x="27" y="677.197241" style="stroke: #000000; stroke-width: 0.8"/>
      </g>
     </g>
     <g id="text_11">
      <!-- 0.8 -->
      <g transform="translate(4.096875 680.99646) scale(0.1 -0.1)">
       <use xlink:href="#DejaVuSerif-30"/>
       <use xlink:href="#DejaVuSerif-2e" x="63.623047"/>
       <use xlink:href="#DejaVuSerif-38" x="95.410156"/>
      </g>
     </g>
    </g>
    <g id="ytick_6">
     <g id="line2d_12">
      <g>
       <use xlink:href="#mb34a086729" x="27" y="654.256552" style="stroke: #000000; stroke-width: 0.8"/>
      </g>
     </g>
     <g id="text_12">
      <!-- 1.0 -->
      <g transform="translate(4.096875 658.05577) scale(0.1 -0.1)">
       <use xlink:href="#DejaVuSerif-31"/>
       <use xlink:href="#DejaVuSerif-2e" x="63.623047"/>
       <use xlink:href="#DejaVuSerif-30" x="95.410156"/>
      </g>
     </g>
    </g>
   </g>
   <g id="patch_7">
    <path d="M 27 768.96 
L 27 654.256552 
" style="fill: none; stroke: #000000; stroke-width: 0.8; stroke-linejoin: miter; stroke-linecap: square"/>
   </g>
   <g id="patch_8">
    <path d="M 194.4 768.96 
L 194.4 654.256552 
" style="fill: none; stroke: #000000; stroke-width: 0.8; stroke-linejoin: miter; stroke-linecap: square"/>
   </g>
   <g id="patch_9">
    <path d="M 27 768.96 
L 194.4 768.96 
" style="fill: none; stroke: #000000; stroke-width: 0.8; stroke-linejoin: miter; stroke-linecap: square"/>
   </g>
   <g id="patch_10">
    <path d="M 27 654.256552 
L 194.4 654.256552 
" style="fill: none; stroke: #000000; stroke-width: 0.8; stroke-linejoin: miter; stroke-linecap: square"/>
   </g>
  </g>
 </g>
 <defs>
  <clipPath id="pf668b02769">
   <rect x="27" y="103.68" width="167.4" height="114.703448"/>
  </clipPath>
  <clipPath id="p98bbb88c6b">
   <rect x="27" y="241.324138" width="167.4" height="114.703448"/>
  </clipPath>
  <clipPath id="p98e8965a6a">
   <rect x="27" y="378.968276" width="167.4" height="114.703448"/>
  </clipPath>
  <clipPath id="p6d785e34ab">
   <rect x="27" y="516.612414" width="167.4" height="114.703448"/>
  </clipPath>
 </defs>
</svg>
