<?xml version="1.0" encoding="utf-8" standalone="no"?>
<!DOCTYPE svg PUBLIC "-//W3C//DTD SVG 1.1//EN"
  "http://www.w3.org/Graphics/SVG/1.1/DTD/svg11.dtd">
<svg xmlns:xlink="http://www.w3.org/1999/xlink" width="72pt" height="180pt" viewBox="0 0 72 180" xmlns="http://www.w3.org/2000/svg" version="1.1">
 <metadata>
  <rdf:RDF xmlns:dc="http://purl.org/dc/elements/1.1/" xmlns:cc="http://creativecommons.org/ns#" xmlns:rdf="http://www.w3.org/1999/02/22-rdf-syntax-ns#">
   <cc:Work>
    <dc:type rdf:resource="http://purl.org/dc/dcmitype/StillImage"/>
    <dc:date>2025-06-06T13:44:44.453020</dc:date>
    <dc:format>image/svg+xml</dc:format>
    <dc:creator>
     <cc:Agent>
      <dc:title>Matplotlib v3.9.2, https://matplotlib.org/</dc:title>
     </cc:Agent>
    </dc:creator>
   </cc:Work>
  </rdf:RDF>
 </metadata>
 <defs>
  <style type="text/css">*{stroke-linejoin: round; stroke-linecap: butt}</style>
 </defs>
 <g id="figure_1">
  <g id="patch_1">
   <path d="M 0 180 
L 72 180 
L 72 0 
L 0 0 
z
" style="fill: #ffffff"/>
  </g>
  <g id="axes_1">
   <g id="patch_2">
    <path d="M 24.19 27.256 
L 58.005 27.256 
L 58.005 10.8 
L 24.19 10.8 
z
" style="fill: #ffffff"/>
   </g>
   <g id="EdgeCollection_1">
    <path d="M 57.050445 18.202708 
C 83.263383 9.875796 64.221732 -9.602449 55.302827 16.41502 
C 64.221732 -9.602449 83.263383 9.875796 57.050445 18.202708 
" clip-path="url(#p7c12647d63)" style="fill: #020202"/>
    <path d="M 53.262251 16.728667 
L 53.376692 16.904046 
" clip-path="url(#p7c12647d63)" style="fill: #020202; stroke: #020202; stroke-width: 0.99"/>
    <path d="M 52.566277 17.409041 
L 45.569012 12.613488 
" clip-path="url(#p7c12647d63)" style="fill: #020202"/>
    <path d="M 52.277563 17.971865 
L 37.154851 12.500923 
" clip-path="url(#p7c12647d63)" style="fill: #020202"/>
    <path d="M 52.160543 18.423067 
L 32.298669 15.209646 
" clip-path="url(#p7c12647d63)" style="fill: #020202; stroke: #020202; stroke-width: 0.99"/>
    <path d="M 52.128453 18.822346 
L 27.712797 18.822346 
" clip-path="url(#p7c12647d63)" style="fill: #020202"/>
    <path d="M 52.160543 19.221625 
L 30.324341 22.754469 
" clip-path="url(#p7c12647d63)" style="fill: #020202"/>
    <path d="M 52.277563 19.672827 
L 39.035563 24.463384 
" clip-path="url(#p7c12647d63)" style="fill: #020202; stroke: #020202; stroke-width: 0.99"/>
    <path d="M 52.566277 20.235651 
L 45.569012 25.031204 
" clip-path="url(#p7c12647d63)" style="fill: #020202"/>
    <path d="M 53.262251 20.916025 
L 52.283731 22.415589 
" clip-path="url(#p7c12647d63)" style="fill: #020202"/>
    <path d="M 54.442055 15.391309 
C 81.514127 20.245019 73.749019 -5.864168 53.729383 12.995041 
C 73.749019 -5.864168 81.514127 20.245019 54.442055 15.391309 
" clip-path="url(#p7c12647d63)" style="fill: #020202"/>
    <path d="M 49.659601 13.959886 
L 45.626754 12.500923 
" clip-path="url(#p7c12647d63)" style="fill: #020202"/>
    <path d="M 49.542581 14.411088 
L 37.178255 12.410683 
" clip-path="url(#p7c12647d63)" style="fill: #020202"/>
    <path d="M 49.51049 14.810367 
L 32.330759 14.810367 
" clip-path="url(#p7c12647d63)" style="fill: #020202; stroke: #020202; stroke-width: 0.99"/>
    <path d="M 49.542581 15.209646 
L 27.706379 18.74249 
" clip-path="url(#p7c12647d63)" style="fill: #020202"/>
    <path d="M 49.659601 15.660848 
L 30.300937 22.664229 
" clip-path="url(#p7c12647d63)" style="fill: #020202"/>
    <path d="M 49.948315 16.223672 
L 38.746849 23.90056 
" clip-path="url(#p7c12647d63)" style="fill: #020202; stroke: #020202; stroke-width: 0.99"/>
    <path d="M 50.644289 16.904046 
L 45.429817 24.895129 
" clip-path="url(#p7c12647d63)" style="fill: #020202"/>
    <path d="M 52.01049 17.310367 
L 52.01049 22.334325 
" clip-path="url(#p7c12647d63)" style="fill: #020202"/>
    <path d="M 45.477598 11.947493 
C 63.187726 -11.645779 36.357539 -16.349775 44.98511 11.861147 
C 36.357539 -16.349775 63.187726 -11.645779 45.477598 11.947493 
" clip-path="url(#p7c12647d63)" style="fill: #020202"/>
    <path d="M 44.656577 12.330827 
L 37.184673 12.330827 
" clip-path="url(#p7c12647d63)" style="fill: #020202; stroke: #020202; stroke-width: 0.99"/>
    <path d="M 44.662995 12.410683 
L 32.298669 14.411088 
" clip-path="url(#p7c12647d63)" style="fill: #020202"/>
    <path d="M 44.686399 12.500923 
L 27.682975 18.65225 
" clip-path="url(#p7c12647d63)" style="fill: #020202"/>
    <path d="M 44.744141 12.613488 
L 30.243194 22.551664 
" clip-path="url(#p7c12647d63)" style="fill: #020202"/>
    <path d="M 44.883336 12.749563 
L 38.050875 23.220186 
" clip-path="url(#p7c12647d63)" style="fill: #020202"/>
    <path d="M 45.156577 12.830827 
L 45.156577 24.813865 
" clip-path="url(#p7c12647d63)" style="fill: #020202"/>
    <path d="M 45.429817 12.749563 
L 51.73725 22.415589 
" clip-path="url(#p7c12647d63)" style="fill: #020202"/>
    <path d="M 36.85614 11.861147 
C 45.483711 -16.349775 18.653523 -11.645779 36.363652 11.947493 
C 18.653523 -11.645779 45.483711 -16.349775 36.85614 11.861147 
" clip-path="url(#p7c12647d63)" style="fill: #020202"/>
    <path d="M 36.214495 12.500923 
L 32.181649 13.959886 
" clip-path="url(#p7c12647d63)" style="fill: #020202"/>
    <path d="M 36.272238 12.613488 
L 27.625232 18.539685 
" clip-path="url(#p7c12647d63)" style="fill: #020202"/>
    <path d="M 36.411433 12.749563 
L 30.104 22.415589 
" clip-path="url(#p7c12647d63)" style="fill: #020202"/>
    <path d="M 36.684673 12.830827 
L 36.684673 22.813865 
" clip-path="url(#p7c12647d63)" style="fill: #020202"/>
    <path d="M 36.957913 12.749563 
L 44.883336 24.895129 
" clip-path="url(#p7c12647d63)" style="fill: #020202; stroke: #020202; stroke-width: 0.99"/>
    <path d="M 37.097108 12.613488 
L 51.598055 22.551664 
" clip-path="url(#p7c12647d63)" style="fill: #020202"/>
    <path d="M 29.466357 12.337067 
C 23.910614 -14.599698 2.557743 2.313063 27.506618 13.889298 
C 2.557743 2.313063 23.910614 -14.599698 29.466357 12.337067 
" clip-path="url(#p7c12647d63)" style="fill: #020202"/>
    <path d="M 28.464558 16.904046 
L 27.486037 18.40361 
" clip-path="url(#p7c12647d63)" style="fill: #020202"/>
    <path d="M 29.830759 17.310367 
L 29.830759 22.334325 
" clip-path="url(#p7c12647d63)" style="fill: #020202"/>
    <path d="M 31.196961 16.904046 
L 35.318471 23.220186 
" clip-path="url(#p7c12647d63)" style="fill: #020202"/>
    <path d="M 31.892935 16.223672 
L 44.744141 25.031204 
" clip-path="url(#p7c12647d63)" style="fill: #020202"/>
    <path d="M 32.181649 15.660848 
L 51.540312 22.664229 
" clip-path="url(#p7c12647d63)" style="fill: #020202; stroke: #020202; stroke-width: 0.99"/>
    <path d="M 26.779784 18.572346 
C 0.482601 5.202631 0.482601 32.442061 26.779784 19.072346 
C 0.482601 32.442061 0.482601 5.202631 26.779784 18.572346 
" clip-path="url(#p7c12647d63)" style="fill: #020202"/>
    <path d="M 27.486037 19.241082 
L 29.557519 22.415589 
" clip-path="url(#p7c12647d63)" style="fill: #020202"/>
    <path d="M 27.625232 19.105007 
L 34.622497 23.90056 
" clip-path="url(#p7c12647d63)" style="fill: #020202"/>
    <path d="M 27.682975 18.992442 
L 44.686399 25.143769 
" clip-path="url(#p7c12647d63)" style="fill: #020202"/>
    <path d="M 27.706379 18.902202 
L 51.516909 22.754469 
" clip-path="url(#p7c12647d63)" style="fill: #020202"/>
    <path d="M 29.365931 23.018539 
C 2.557743 35.331629 23.910614 52.24439 29.757879 23.328985 
C 23.910614 52.24439 2.557743 35.331629 29.365931 23.018539 
" clip-path="url(#p7c12647d63)" style="fill: #020202"/>
    <path d="M 30.300937 23.004421 
L 34.333783 24.463384 
" clip-path="url(#p7c12647d63)" style="fill: #020202"/>
    <path d="M 30.324341 22.914181 
L 44.662995 25.234009 
" clip-path="url(#p7c12647d63)" style="fill: #020202"/>
    <path d="M 30.330759 22.834325 
L 51.51049 22.834325 
" clip-path="url(#p7c12647d63)" style="fill: #020202; stroke: #020202; stroke-width: 0.99"/>
    <path d="M 35.079567 27.230537 
C 18.653523 49.290471 45.483711 53.994467 37.542007 27.662264 
C 45.483711 53.994467 18.653523 49.290471 35.079567 27.230537 
" clip-path="url(#p7c12647d63)" style="fill: #020202"/>
    <path d="M 39.184673 25.313865 
L 44.656577 25.313865 
" clip-path="url(#p7c12647d63)" style="fill: #020202; stroke: #020202; stroke-width: 0.99"/>
    <path d="M 39.152582 24.914586 
L 51.516909 22.914181 
" clip-path="url(#p7c12647d63)" style="fill: #020202"/>
    <path d="M 44.98511 25.783545 
C 36.357539 53.994467 63.187726 49.290471 45.477598 25.697199 
C 63.187726 49.290471 36.357539 53.994467 44.98511 25.783545 
" clip-path="url(#p7c12647d63)" style="fill: #020202"/>
    <path d="M 45.626754 25.143769 
L 51.540312 23.004421 
" clip-path="url(#p7c12647d63)" style="fill: #020202"/>
    <path d="M 52.083371 23.328985 
C 57.930636 52.24439 79.283506 35.331629 52.475319 23.018539 
C 79.283506 35.331629 57.930636 52.24439 52.083371 23.328985 
" clip-path="url(#p7c12647d63)" style="fill: #020202"/>
   </g>
   <g id="VertexCollection_1">
    <path d="M 54.628453 21.322346 
C 55.29146 21.322346 55.927402 21.05893 56.396219 20.590113 
C 56.865037 20.121296 57.128453 19.485354 57.128453 18.822346 
C 57.128453 18.159338 56.865037 17.523396 56.396219 17.054579 
C 55.927402 16.585762 55.29146 16.322346 54.628453 16.322346 
C 53.965445 16.322346 53.329503 16.585762 52.860686 17.054579 
C 52.391868 17.523396 52.128453 18.159338 52.128453 18.822346 
C 52.128453 19.485354 52.391868 20.121296 52.860686 20.590113 
C 53.329503 21.05893 53.965445 21.322346 54.628453 21.322346 
z
" clip-path="url(#p7c12647d63)" style="fill: #bebebe"/>
    <path d="M 52.01049 17.310367 
C 52.673498 17.310367 53.30944 17.046951 53.778257 16.578134 
C 54.247075 16.109316 54.51049 15.473374 54.51049 14.810367 
C 54.51049 14.147359 54.247075 13.511417 53.778257 13.0426 
C 53.30944 12.573782 52.673498 12.310367 52.01049 12.310367 
C 51.347483 12.310367 50.711541 12.573782 50.242723 13.0426 
C 49.773906 13.511417 49.51049 14.147359 49.51049 14.810367 
C 49.51049 15.473374 49.773906 16.109316 50.242723 16.578134 
C 50.711541 17.046951 51.347483 17.310367 52.01049 17.310367 
z
" clip-path="url(#p7c12647d63)" style="fill: #bebebe"/>
    <path d="M 45.156577 12.830827 
C 45.289178 12.830827 45.416366 12.778144 45.51013 12.68438 
C 45.603893 12.590617 45.656577 12.463429 45.656577 12.330827 
C 45.656577 12.198225 45.603893 12.071037 45.51013 11.977274 
C 45.416366 11.88351 45.289178 11.830827 45.156577 11.830827 
C 45.023975 11.830827 44.896787 11.88351 44.803023 11.977274 
C 44.70926 12.071037 44.656577 12.198225 44.656577 12.330827 
C 44.656577 12.463429 44.70926 12.590617 44.803023 12.68438 
C 44.896787 12.778144 45.023975 12.830827 45.156577 12.830827 
z
" clip-path="url(#p7c12647d63)" style="fill: #bebebe"/>
    <path d="M 36.684673 12.830827 
C 36.817275 12.830827 36.944463 12.778144 37.038226 12.68438 
C 37.13199 12.590617 37.184673 12.463429 37.184673 12.330827 
C 37.184673 12.198225 37.13199 12.071037 37.038226 11.977274 
C 36.944463 11.88351 36.817275 11.830827 36.684673 11.830827 
C 36.552072 11.830827 36.424883 11.88351 36.33112 11.977274 
C 36.237356 12.071037 36.184673 12.198225 36.184673 12.330827 
C 36.184673 12.463429 36.237356 12.590617 36.33112 12.68438 
C 36.424883 12.778144 36.552072 12.830827 36.684673 12.830827 
z
" clip-path="url(#p7c12647d63)" style="fill: #bebebe"/>
    <path d="M 29.830759 17.310367 
C 30.493767 17.310367 31.129709 17.046951 31.598526 16.578134 
C 32.067343 16.109316 32.330759 15.473374 32.330759 14.810367 
C 32.330759 14.147359 32.067343 13.511417 31.598526 13.0426 
C 31.129709 12.573782 30.493767 12.310367 29.830759 12.310367 
C 29.167751 12.310367 28.53181 12.573782 28.062992 13.0426 
C 27.594175 13.511417 27.330759 14.147359 27.330759 14.810367 
C 27.330759 15.473374 27.594175 16.109316 28.062992 16.578134 
C 28.53181 17.046951 29.167751 17.310367 29.830759 17.310367 
z
" clip-path="url(#p7c12647d63)" style="fill: #bebebe"/>
    <path d="M 27.212797 19.322346 
C 27.345399 19.322346 27.472587 19.269663 27.56635 19.175899 
C 27.660114 19.082136 27.712797 18.954948 27.712797 18.822346 
C 27.712797 18.689744 27.660114 18.562556 27.56635 18.468793 
C 27.472587 18.375029 27.345399 18.322346 27.212797 18.322346 
C 27.080196 18.322346 26.953007 18.375029 26.859244 18.468793 
C 26.76548 18.562556 26.712797 18.689744 26.712797 18.822346 
C 26.712797 18.954948 26.76548 19.082136 26.859244 19.175899 
C 26.953007 19.269663 27.080196 19.322346 27.212797 19.322346 
z
" clip-path="url(#p7c12647d63)" style="fill: #bebebe"/>
    <path d="M 29.830759 23.334325 
C 29.963361 23.334325 30.090549 23.281642 30.184313 23.187879 
C 30.278076 23.094115 30.330759 22.966927 30.330759 22.834325 
C 30.330759 22.701724 30.278076 22.574535 30.184313 22.480772 
C 30.090549 22.387008 29.963361 22.334325 29.830759 22.334325 
C 29.698158 22.334325 29.570969 22.387008 29.477206 22.480772 
C 29.383442 22.574535 29.330759 22.701724 29.330759 22.834325 
C 29.330759 22.966927 29.383442 23.094115 29.477206 23.187879 
C 29.570969 23.281642 29.698158 23.334325 29.830759 23.334325 
z
" clip-path="url(#p7c12647d63)" style="fill: #bebebe"/>
    <path d="M 36.684673 27.813865 
C 37.347681 27.813865 37.983623 27.550449 38.45244 27.081632 
C 38.921257 26.612815 39.184673 25.976873 39.184673 25.313865 
C 39.184673 24.650857 38.921257 24.014915 38.45244 23.546098 
C 37.983623 23.077281 37.347681 22.813865 36.684673 22.813865 
C 36.021665 22.813865 35.385723 23.077281 34.916906 23.546098 
C 34.448089 24.014915 34.184673 24.650857 34.184673 25.313865 
C 34.184673 25.976873 34.448089 26.612815 34.916906 27.081632 
C 35.385723 27.550449 36.021665 27.813865 36.684673 27.813865 
z
" clip-path="url(#p7c12647d63)" style="fill: #bebebe"/>
    <path d="M 45.156577 25.813865 
C 45.289178 25.813865 45.416366 25.761182 45.51013 25.667418 
C 45.603893 25.573655 45.656577 25.446466 45.656577 25.313865 
C 45.656577 25.181263 45.603893 25.054075 45.51013 24.960311 
C 45.416366 24.866548 45.289178 24.813865 45.156577 24.813865 
C 45.023975 24.813865 44.896787 24.866548 44.803023 24.960311 
C 44.70926 25.054075 44.656577 25.181263 44.656577 25.313865 
C 44.656577 25.446466 44.70926 25.573655 44.803023 25.667418 
C 44.896787 25.761182 45.023975 25.813865 45.156577 25.813865 
z
" clip-path="url(#p7c12647d63)" style="fill: #bebebe"/>
    <path d="M 52.01049 23.334325 
C 52.143092 23.334325 52.27028 23.281642 52.364044 23.187879 
C 52.457807 23.094115 52.51049 22.966927 52.51049 22.834325 
C 52.51049 22.701724 52.457807 22.574535 52.364044 22.480772 
C 52.27028 22.387008 52.143092 22.334325 52.01049 22.334325 
C 51.877889 22.334325 51.7507 22.387008 51.656937 22.480772 
C 51.563174 22.574535 51.51049 22.701724 51.51049 22.834325 
C 51.51049 22.966927 51.563174 23.094115 51.656937 23.187879 
C 51.7507 23.281642 51.877889 23.334325 52.01049 23.334325 
z
" clip-path="url(#p7c12647d63)" style="fill: #bebebe"/>
   </g>
   <g id="matplotlib.axis_1"/>
   <g id="matplotlib.axis_2"/>
  </g>
  <g id="axes_2">
   <g id="patch_3">
    <path d="M 24.19 58.472 
L 58.005 58.472 
L 58.005 42.016 
L 24.19 42.016 
z
" style="fill: #ffffff"/>
   </g>
   <g id="EdgeCollection_2">
    <path d="M 57.050445 49.418708 
C 83.263383 41.091796 64.221732 21.613551 55.302827 47.63102 
C 64.221732 21.613551 83.263383 41.091796 57.050445 49.418708 
" clip-path="url(#p382c032617)" style="fill: #020202"/>
    <path d="M 53.262251 47.944667 
L 53.376692 48.120046 
" clip-path="url(#p382c032617)" style="fill: #020202; stroke: #020202; stroke-width: 0.99"/>
    <path d="M 52.566277 48.625041 
L 45.569012 43.829488 
" clip-path="url(#p382c032617)" style="fill: #020202"/>
    <path d="M 52.277563 49.187865 
L 37.154851 43.716923 
" clip-path="url(#p382c032617)" style="fill: #020202"/>
    <path d="M 52.160543 49.639067 
L 30.324341 46.106222 
" clip-path="url(#p382c032617)" style="fill: #020202; stroke: #020202; stroke-width: 0.99"/>
    <path d="M 52.128453 50.038346 
L 27.712797 50.038346 
" clip-path="url(#p382c032617)" style="fill: #020202"/>
    <path d="M 52.160543 50.437625 
L 30.324341 53.970469 
" clip-path="url(#p382c032617)" style="fill: #020202"/>
    <path d="M 52.277563 50.888827 
L 39.035563 55.679384 
" clip-path="url(#p382c032617)" style="fill: #020202; stroke: #020202; stroke-width: 0.99"/>
    <path d="M 52.566277 51.451651 
L 45.569012 56.247204 
" clip-path="url(#p382c032617)" style="fill: #020202"/>
    <path d="M 53.262251 52.132025 
L 52.283731 53.631589 
" clip-path="url(#p382c032617)" style="fill: #020202"/>
    <path d="M 54.442055 46.607309 
C 81.514127 51.461019 73.749019 25.351832 53.729383 44.211041 
C 73.749019 25.351832 81.514127 51.461019 54.442055 46.607309 
" clip-path="url(#p382c032617)" style="fill: #020202"/>
    <path d="M 49.659601 45.175886 
L 45.626754 43.716923 
" clip-path="url(#p382c032617)" style="fill: #020202"/>
    <path d="M 49.542581 45.627088 
L 37.178255 43.626683 
" clip-path="url(#p382c032617)" style="fill: #020202"/>
    <path d="M 49.51049 46.026367 
L 30.330759 46.026367 
" clip-path="url(#p382c032617)" style="fill: #020202; stroke: #020202; stroke-width: 0.99"/>
    <path d="M 49.542581 46.425646 
L 27.706379 49.95849 
" clip-path="url(#p382c032617)" style="fill: #020202"/>
    <path d="M 49.659601 46.876848 
L 30.300937 53.880229 
" clip-path="url(#p382c032617)" style="fill: #020202"/>
    <path d="M 49.948315 47.439672 
L 38.746849 55.11656 
" clip-path="url(#p382c032617)" style="fill: #020202; stroke: #020202; stroke-width: 0.99"/>
    <path d="M 50.644289 48.120046 
L 45.429817 56.111129 
" clip-path="url(#p382c032617)" style="fill: #020202"/>
    <path d="M 52.01049 48.526367 
L 52.01049 53.550325 
" clip-path="url(#p382c032617)" style="fill: #020202"/>
    <path d="M 45.477598 43.163493 
C 63.187726 19.570221 36.357539 14.866225 44.98511 43.077147 
C 36.357539 14.866225 63.187726 19.570221 45.477598 43.163493 
" clip-path="url(#p382c032617)" style="fill: #020202"/>
    <path d="M 44.656577 43.546827 
L 37.184673 43.546827 
" clip-path="url(#p382c032617)" style="fill: #020202"/>
    <path d="M 44.662995 43.626683 
L 30.324341 45.946511 
" clip-path="url(#p382c032617)" style="fill: #020202"/>
    <path d="M 44.686399 43.716923 
L 27.682975 49.86825 
" clip-path="url(#p382c032617)" style="fill: #020202"/>
    <path d="M 44.744141 43.829488 
L 30.243194 53.767664 
" clip-path="url(#p382c032617)" style="fill: #020202"/>
    <path d="M 44.883336 43.965563 
L 38.050875 54.436186 
" clip-path="url(#p382c032617)" style="fill: #020202"/>
    <path d="M 45.156577 44.046827 
L 45.156577 56.029865 
" clip-path="url(#p382c032617)" style="fill: #020202"/>
    <path d="M 45.429817 43.965563 
L 51.73725 53.631589 
" clip-path="url(#p382c032617)" style="fill: #020202"/>
    <path d="M 36.85614 43.077147 
C 45.483711 14.866225 18.653523 19.570221 36.363652 43.163493 
C 18.653523 19.570221 45.483711 14.866225 36.85614 43.077147 
" clip-path="url(#p382c032617)" style="fill: #020202"/>
    <path d="M 36.214495 43.716923 
L 30.300937 45.85627 
" clip-path="url(#p382c032617)" style="fill: #020202"/>
    <path d="M 36.272238 43.829488 
L 27.625232 49.755685 
" clip-path="url(#p382c032617)" style="fill: #020202"/>
    <path d="M 36.411433 43.965563 
L 30.104 53.631589 
" clip-path="url(#p382c032617)" style="fill: #020202"/>
    <path d="M 36.684673 44.046827 
L 36.684673 54.029865 
" clip-path="url(#p382c032617)" style="fill: #020202"/>
    <path d="M 36.957913 43.965563 
L 44.883336 56.111129 
" clip-path="url(#p382c032617)" style="fill: #020202"/>
    <path d="M 37.097108 43.829488 
L 51.598055 53.767664 
" clip-path="url(#p382c032617)" style="fill: #020202"/>
    <path d="M 29.757879 45.531707 
C 23.910614 16.616302 2.557743 33.529063 29.365931 45.842153 
C 2.557743 33.529063 23.910614 16.616302 29.757879 45.531707 
" clip-path="url(#p382c032617)" style="fill: #020202"/>
    <path d="M 29.557519 46.445102 
L 27.486037 49.61961 
" clip-path="url(#p382c032617)" style="fill: #020202"/>
    <path d="M 29.830759 46.526367 
L 29.830759 53.550325 
" clip-path="url(#p382c032617)" style="fill: #020202"/>
    <path d="M 30.104 46.445102 
L 35.318471 54.436186 
" clip-path="url(#p382c032617)" style="fill: #020202"/>
    <path d="M 30.243194 46.309028 
L 44.744141 56.247204 
" clip-path="url(#p382c032617)" style="fill: #020202"/>
    <path d="M 30.300937 46.196463 
L 51.540312 53.880229 
" clip-path="url(#p382c032617)" style="fill: #020202"/>
    <path d="M 26.779784 49.788346 
C 0.482601 36.418631 0.482601 63.658061 26.779784 50.288346 
C 0.482601 63.658061 0.482601 36.418631 26.779784 49.788346 
" clip-path="url(#p382c032617)" style="fill: #020202"/>
    <path d="M 27.486037 50.457082 
L 29.557519 53.631589 
" clip-path="url(#p382c032617)" style="fill: #020202"/>
    <path d="M 27.625232 50.321007 
L 34.622497 55.11656 
" clip-path="url(#p382c032617)" style="fill: #020202"/>
    <path d="M 27.682975 50.208442 
L 44.686399 56.359769 
" clip-path="url(#p382c032617)" style="fill: #020202"/>
    <path d="M 27.706379 50.118202 
L 51.516909 53.970469 
" clip-path="url(#p382c032617)" style="fill: #020202"/>
    <path d="M 29.365931 54.234539 
C 2.557743 66.547629 23.910614 83.46039 29.757879 54.544985 
C 23.910614 83.46039 2.557743 66.547629 29.365931 54.234539 
" clip-path="url(#p382c032617)" style="fill: #020202"/>
    <path d="M 30.300937 54.220421 
L 34.333783 55.679384 
" clip-path="url(#p382c032617)" style="fill: #020202; stroke: #020202; stroke-width: 0.99"/>
    <path d="M 30.324341 54.130181 
L 44.662995 56.450009 
" clip-path="url(#p382c032617)" style="fill: #020202"/>
    <path d="M 30.330759 54.050325 
L 51.51049 54.050325 
" clip-path="url(#p382c032617)" style="fill: #020202"/>
    <path d="M 35.079567 58.446537 
C 18.653523 80.506471 45.483711 85.210467 37.542007 58.878264 
C 45.483711 85.210467 18.653523 80.506471 35.079567 58.446537 
" clip-path="url(#p382c032617)" style="fill: #020202"/>
    <path d="M 39.184673 56.529865 
L 44.656577 56.529865 
" clip-path="url(#p382c032617)" style="fill: #020202"/>
    <path d="M 39.152582 56.130586 
L 51.516909 54.130181 
" clip-path="url(#p382c032617)" style="fill: #020202"/>
    <path d="M 44.98511 56.999545 
C 36.357539 85.210467 63.187726 80.506471 45.477598 56.913199 
C 63.187726 80.506471 36.357539 85.210467 44.98511 56.999545 
" clip-path="url(#p382c032617)" style="fill: #020202"/>
    <path d="M 45.626754 56.359769 
L 51.540312 54.220421 
" clip-path="url(#p382c032617)" style="fill: #020202"/>
    <path d="M 52.083371 54.544985 
C 57.930636 83.46039 79.283506 66.547629 52.475319 54.234539 
C 79.283506 66.547629 57.930636 83.46039 52.083371 54.544985 
" clip-path="url(#p382c032617)" style="fill: #020202"/>
   </g>
   <g id="VertexCollection_2">
    <path d="M 54.628453 52.538346 
C 55.29146 52.538346 55.927402 52.27493 56.396219 51.806113 
C 56.865037 51.337296 57.128453 50.701354 57.128453 50.038346 
C 57.128453 49.375338 56.865037 48.739396 56.396219 48.270579 
C 55.927402 47.801762 55.29146 47.538346 54.628453 47.538346 
C 53.965445 47.538346 53.329503 47.801762 52.860686 48.270579 
C 52.391868 48.739396 52.128453 49.375338 52.128453 50.038346 
C 52.128453 50.701354 52.391868 51.337296 52.860686 51.806113 
C 53.329503 52.27493 53.965445 52.538346 54.628453 52.538346 
z
" clip-path="url(#p382c032617)" style="fill: #bebebe"/>
    <path d="M 52.01049 48.526367 
C 52.673498 48.526367 53.30944 48.262951 53.778257 47.794134 
C 54.247075 47.325316 54.51049 46.689374 54.51049 46.026367 
C 54.51049 45.363359 54.247075 44.727417 53.778257 44.2586 
C 53.30944 43.789782 52.673498 43.526367 52.01049 43.526367 
C 51.347483 43.526367 50.711541 43.789782 50.242723 44.2586 
C 49.773906 44.727417 49.51049 45.363359 49.51049 46.026367 
C 49.51049 46.689374 49.773906 47.325316 50.242723 47.794134 
C 50.711541 48.262951 51.347483 48.526367 52.01049 48.526367 
z
" clip-path="url(#p382c032617)" style="fill: #bebebe"/>
    <path d="M 45.156577 44.046827 
C 45.289178 44.046827 45.416366 43.994144 45.51013 43.90038 
C 45.603893 43.806617 45.656577 43.679429 45.656577 43.546827 
C 45.656577 43.414225 45.603893 43.287037 45.51013 43.193274 
C 45.416366 43.09951 45.289178 43.046827 45.156577 43.046827 
C 45.023975 43.046827 44.896787 43.09951 44.803023 43.193274 
C 44.70926 43.287037 44.656577 43.414225 44.656577 43.546827 
C 44.656577 43.679429 44.70926 43.806617 44.803023 43.90038 
C 44.896787 43.994144 45.023975 44.046827 45.156577 44.046827 
z
" clip-path="url(#p382c032617)" style="fill: #bebebe"/>
    <path d="M 36.684673 44.046827 
C 36.817275 44.046827 36.944463 43.994144 37.038226 43.90038 
C 37.13199 43.806617 37.184673 43.679429 37.184673 43.546827 
C 37.184673 43.414225 37.13199 43.287037 37.038226 43.193274 
C 36.944463 43.09951 36.817275 43.046827 36.684673 43.046827 
C 36.552072 43.046827 36.424883 43.09951 36.33112 43.193274 
C 36.237356 43.287037 36.184673 43.414225 36.184673 43.546827 
C 36.184673 43.679429 36.237356 43.806617 36.33112 43.90038 
C 36.424883 43.994144 36.552072 44.046827 36.684673 44.046827 
z
" clip-path="url(#p382c032617)" style="fill: #bebebe"/>
    <path d="M 29.830759 46.526367 
C 29.963361 46.526367 30.090549 46.473683 30.184313 46.37992 
C 30.278076 46.286157 30.330759 46.158968 30.330759 46.026367 
C 30.330759 45.893765 30.278076 45.766577 30.184313 45.672813 
C 30.090549 45.57905 29.963361 45.526367 29.830759 45.526367 
C 29.698158 45.526367 29.570969 45.57905 29.477206 45.672813 
C 29.383442 45.766577 29.330759 45.893765 29.330759 46.026367 
C 29.330759 46.158968 29.383442 46.286157 29.477206 46.37992 
C 29.570969 46.473683 29.698158 46.526367 29.830759 46.526367 
z
" clip-path="url(#p382c032617)" style="fill: #bebebe"/>
    <path d="M 27.212797 50.538346 
C 27.345399 50.538346 27.472587 50.485663 27.56635 50.391899 
C 27.660114 50.298136 27.712797 50.170948 27.712797 50.038346 
C 27.712797 49.905744 27.660114 49.778556 27.56635 49.684793 
C 27.472587 49.591029 27.345399 49.538346 27.212797 49.538346 
C 27.080196 49.538346 26.953007 49.591029 26.859244 49.684793 
C 26.76548 49.778556 26.712797 49.905744 26.712797 50.038346 
C 26.712797 50.170948 26.76548 50.298136 26.859244 50.391899 
C 26.953007 50.485663 27.080196 50.538346 27.212797 50.538346 
z
" clip-path="url(#p382c032617)" style="fill: #bebebe"/>
    <path d="M 29.830759 54.550325 
C 29.963361 54.550325 30.090549 54.497642 30.184313 54.403879 
C 30.278076 54.310115 30.330759 54.182927 30.330759 54.050325 
C 30.330759 53.917724 30.278076 53.790535 30.184313 53.696772 
C 30.090549 53.603008 29.963361 53.550325 29.830759 53.550325 
C 29.698158 53.550325 29.570969 53.603008 29.477206 53.696772 
C 29.383442 53.790535 29.330759 53.917724 29.330759 54.050325 
C 29.330759 54.182927 29.383442 54.310115 29.477206 54.403879 
C 29.570969 54.497642 29.698158 54.550325 29.830759 54.550325 
z
" clip-path="url(#p382c032617)" style="fill: #bebebe"/>
    <path d="M 36.684673 59.029865 
C 37.347681 59.029865 37.983623 58.766449 38.45244 58.297632 
C 38.921257 57.828815 39.184673 57.192873 39.184673 56.529865 
C 39.184673 55.866857 38.921257 55.230915 38.45244 54.762098 
C 37.983623 54.293281 37.347681 54.029865 36.684673 54.029865 
C 36.021665 54.029865 35.385723 54.293281 34.916906 54.762098 
C 34.448089 55.230915 34.184673 55.866857 34.184673 56.529865 
C 34.184673 57.192873 34.448089 57.828815 34.916906 58.297632 
C 35.385723 58.766449 36.021665 59.029865 36.684673 59.029865 
z
" clip-path="url(#p382c032617)" style="fill: #bebebe"/>
    <path d="M 45.156577 57.029865 
C 45.289178 57.029865 45.416366 56.977182 45.51013 56.883418 
C 45.603893 56.789655 45.656577 56.662466 45.656577 56.529865 
C 45.656577 56.397263 45.603893 56.270075 45.51013 56.176311 
C 45.416366 56.082548 45.289178 56.029865 45.156577 56.029865 
C 45.023975 56.029865 44.896787 56.082548 44.803023 56.176311 
C 44.70926 56.270075 44.656577 56.397263 44.656577 56.529865 
C 44.656577 56.662466 44.70926 56.789655 44.803023 56.883418 
C 44.896787 56.977182 45.023975 57.029865 45.156577 57.029865 
z
" clip-path="url(#p382c032617)" style="fill: #bebebe"/>
    <path d="M 52.01049 54.550325 
C 52.143092 54.550325 52.27028 54.497642 52.364044 54.403879 
C 52.457807 54.310115 52.51049 54.182927 52.51049 54.050325 
C 52.51049 53.917724 52.457807 53.790535 52.364044 53.696772 
C 52.27028 53.603008 52.143092 53.550325 52.01049 53.550325 
C 51.877889 53.550325 51.7507 53.603008 51.656937 53.696772 
C 51.563174 53.790535 51.51049 53.917724 51.51049 54.050325 
C 51.51049 54.182927 51.563174 54.310115 51.656937 54.403879 
C 51.7507 54.497642 51.877889 54.550325 52.01049 54.550325 
z
" clip-path="url(#p382c032617)" style="fill: #bebebe"/>
   </g>
   <g id="matplotlib.axis_3"/>
   <g id="matplotlib.axis_4"/>
  </g>
  <g id="axes_3">
   <g id="patch_4">
    <path d="M 24.19 89.688 
L 58.005 89.688 
L 58.005 73.232 
L 24.19 73.232 
z
" style="fill: #ffffff"/>
   </g>
   <g id="EdgeCollection_3">
    <path d="M 56.793516 82.71 
C 81.358648 95.079715 81.358648 67.840285 56.793516 80.21 
C 81.358648 67.840285 81.358648 95.079715 56.793516 82.71 
" clip-path="url(#pab846dd07e)" style="fill: #020202"/>
    <path d="M 53.291624 79.347445 
L 53.347319 79.435457 
" clip-path="url(#pab846dd07e)" style="fill: #020202; stroke: #020202; stroke-width: 0.99"/>
    <path d="M 52.586839 80.017151 
L 45.564899 75.054604 
" clip-path="url(#pab846dd07e)" style="fill: #020202"/>
    <path d="M 52.286133 80.586193 
L 37.153137 74.940795 
" clip-path="url(#pab846dd07e)" style="fill: #020202"/>
    <path d="M 52.162535 81.048601 
L 32.296677 77.7343 
" clip-path="url(#pab846dd07e)" style="fill: #020202; stroke: #020202; stroke-width: 0.99"/>
    <path d="M 52.128453 81.46 
L 27.712797 81.46 
" clip-path="url(#pab846dd07e)" style="fill: #020202"/>
    <path d="M 52.162535 81.871399 
L 30.323943 85.514819 
" clip-path="url(#pab846dd07e)" style="fill: #020202"/>
    <path d="M 52.286133 82.333807 
L 37.153137 87.979205 
" clip-path="url(#pab846dd07e)" style="fill: #020202"/>
    <path d="M 52.586839 82.902849 
L 45.564899 87.865396 
" clip-path="url(#pab846dd07e)" style="fill: #020202"/>
    <path d="M 53.291624 83.572555 
L 53.347319 83.484543 
" clip-path="url(#pab846dd07e)" style="fill: #020202; stroke: #020202; stroke-width: 0.99"/>
    <path d="M 54.437939 77.920809 
C 81.475456 82.96345 73.892862 56.800674 53.742018 75.519623 
C 73.892862 56.800674 81.475456 82.96345 54.437939 77.920809 
" clip-path="url(#pab846dd07e)" style="fill: #020202"/>
    <path d="M 49.668171 76.449094 
L 45.62504 74.940795 
" clip-path="url(#pab846dd07e)" style="fill: #020202"/>
    <path d="M 49.544573 76.911502 
L 37.177857 74.848314 
" clip-path="url(#pab846dd07e)" style="fill: #020202"/>
    <path d="M 49.51049 77.322901 
L 32.330759 77.322901 
" clip-path="url(#pab846dd07e)" style="fill: #020202; stroke: #020202; stroke-width: 0.99"/>
    <path d="M 49.544573 77.7343 
L 27.705981 81.37772 
" clip-path="url(#pab846dd07e)" style="fill: #020202"/>
    <path d="M 49.668171 78.196709 
L 30.299223 85.422337 
" clip-path="url(#pab846dd07e)" style="fill: #020202"/>
    <path d="M 49.968877 78.765751 
L 37.092996 87.865396 
" clip-path="url(#pab846dd07e)" style="fill: #020202; stroke: #020202; stroke-width: 0.99"/>
    <path d="M 50.673662 79.435457 
L 45.423942 87.731455 
" clip-path="url(#pab846dd07e)" style="fill: #020202"/>
    <path d="M 52.01049 79.822901 
L 52.01049 83.097099 
" clip-path="url(#pab846dd07e)" style="fill: #020202"/>
    <path d="M 45.479499 74.3843 
C 63.306672 50.879342 36.500195 46.042053 44.987446 74.295508 
C 36.500195 46.042053 63.306672 50.879342 45.479499 74.3843 
" clip-path="url(#pab846dd07e)" style="fill: #020202"/>
    <path d="M 44.656577 74.766034 
L 37.184673 74.766034 
" clip-path="url(#pab846dd07e)" style="fill: #020202; stroke: #020202; stroke-width: 0.99"/>
    <path d="M 44.663393 74.848314 
L 32.296677 76.911502 
" clip-path="url(#pab846dd07e)" style="fill: #020202"/>
    <path d="M 44.688113 74.940795 
L 27.681261 81.285239 
" clip-path="url(#pab846dd07e)" style="fill: #020202"/>
    <path d="M 44.748254 75.054604 
L 30.239082 85.308529 
" clip-path="url(#pab846dd07e)" style="fill: #020202"/>
    <path d="M 44.889211 75.188545 
L 36.952039 87.731455 
" clip-path="url(#pab846dd07e)" style="fill: #020202"/>
    <path d="M 45.156577 75.266034 
L 45.156577 87.653966 
" clip-path="url(#pab846dd07e)" style="fill: #020202"/>
    <path d="M 45.423942 75.188545 
L 50.673662 83.484543 
" clip-path="url(#pab846dd07e)" style="fill: #020202"/>
    <path d="M 36.853803 74.295508 
C 45.341054 46.042053 18.534578 50.879342 36.361751 74.3843 
C 18.534578 50.879342 45.341054 46.042053 36.853803 74.295508 
" clip-path="url(#pab846dd07e)" style="fill: #020202"/>
    <path d="M 36.216209 74.940795 
L 32.173079 76.449094 
" clip-path="url(#pab846dd07e)" style="fill: #020202"/>
    <path d="M 36.27635 75.054604 
L 27.62112 81.17143 
" clip-path="url(#pab846dd07e)" style="fill: #020202"/>
    <path d="M 36.417307 75.188545 
L 30.098125 85.174588 
" clip-path="url(#pab846dd07e)" style="fill: #020202"/>
    <path d="M 36.684673 75.266034 
L 36.684673 87.653966 
" clip-path="url(#pab846dd07e)" style="fill: #020202"/>
    <path d="M 36.952039 75.188545 
L 44.889211 87.731455 
" clip-path="url(#pab846dd07e)" style="fill: #020202; stroke: #020202; stroke-width: 0.99"/>
    <path d="M 37.092996 75.054604 
L 49.968877 84.154249 
" clip-path="url(#pab846dd07e)" style="fill: #020202"/>
    <path d="M 29.436819 74.854134 
C 23.559495 47.985702 2.41031 65.152488 27.495774 76.42968 
C 2.41031 65.152488 23.559495 47.985702 29.436819 74.854134 
" clip-path="url(#pab846dd07e)" style="fill: #020202"/>
    <path d="M 28.493931 79.435457 
L 27.480163 81.037489 
" clip-path="url(#pab846dd07e)" style="fill: #020202"/>
    <path d="M 29.830759 79.822901 
L 29.830759 85.097099 
" clip-path="url(#pab846dd07e)" style="fill: #020202"/>
    <path d="M 31.167587 79.435457 
L 36.417307 87.731455 
" clip-path="url(#pab846dd07e)" style="fill: #020202"/>
    <path d="M 31.872373 78.765751 
L 44.748254 87.865396 
" clip-path="url(#pab846dd07e)" style="fill: #020202"/>
    <path d="M 32.173079 78.196709 
L 49.668171 84.723291 
" clip-path="url(#pab846dd07e)" style="fill: #020202; stroke: #020202; stroke-width: 0.99"/>
    <path d="M 26.779784 81.21 
C 0.482601 67.840285 0.482601 95.079715 26.779784 81.71 
C 0.482601 95.079715 0.482601 67.840285 26.779784 81.21 
" clip-path="url(#pab846dd07e)" style="fill: #020202"/>
    <path d="M 27.480163 81.882511 
L 29.563394 85.174588 
" clip-path="url(#pab846dd07e)" style="fill: #020202"/>
    <path d="M 27.62112 81.74857 
L 36.27635 87.865396 
" clip-path="url(#pab846dd07e)" style="fill: #020202"/>
    <path d="M 27.681261 81.634761 
L 44.688113 87.979205 
" clip-path="url(#pab846dd07e)" style="fill: #020202"/>
    <path d="M 27.705981 81.54228 
L 49.544573 85.1857 
" clip-path="url(#pab846dd07e)" style="fill: #020202"/>
    <path d="M 29.363762 85.775743 
C 2.41031 97.767512 23.559495 114.934298 29.751971 86.090852 
C 23.559495 114.934298 2.41031 97.767512 29.363762 85.775743 
" clip-path="url(#pab846dd07e)" style="fill: #020202"/>
    <path d="M 30.299223 85.77186 
L 36.216209 87.979205 
" clip-path="url(#pab846dd07e)" style="fill: #020202"/>
    <path d="M 30.323943 85.679378 
L 44.663393 88.071686 
" clip-path="url(#pab846dd07e)" style="fill: #020202"/>
    <path d="M 30.330759 85.597099 
L 49.51049 85.597099 
" clip-path="url(#pab846dd07e)" style="fill: #020202; stroke: #020202; stroke-width: 0.99"/>
    <path d="M 36.361751 88.5357 
C 18.534578 112.040658 45.341054 116.877947 36.853803 88.624492 
C 45.341054 116.877947 18.534578 112.040658 36.361751 88.5357 
" clip-path="url(#pab846dd07e)" style="fill: #020202"/>
    <path d="M 37.184673 88.153966 
L 44.656577 88.153966 
" clip-path="url(#pab846dd07e)" style="fill: #020202"/>
    <path d="M 37.177857 88.071686 
L 49.544573 86.008498 
" clip-path="url(#pab846dd07e)" style="fill: #020202"/>
    <path d="M 44.987446 88.624492 
C 36.500195 116.877947 63.306672 112.040658 45.479499 88.5357 
C 63.306672 112.040658 36.500195 116.877947 44.987446 88.624492 
" clip-path="url(#pab846dd07e)" style="fill: #020202"/>
    <path d="M 45.62504 87.979205 
L 49.668171 86.470906 
" clip-path="url(#pab846dd07e)" style="fill: #020202"/>
    <path d="M 53.742018 87.400377 
C 73.892862 106.119326 81.475456 79.95655 54.437939 84.999191 
C 81.475456 79.95655 73.892862 106.119326 53.742018 87.400377 
" clip-path="url(#pab846dd07e)" style="fill: #020202"/>
   </g>
   <g id="VertexCollection_3">
    <path d="M 54.628453 83.96 
C 55.29146 83.96 55.927402 83.696584 56.396219 83.227767 
C 56.865037 82.75895 57.128453 82.123008 57.128453 81.46 
C 57.128453 80.796992 56.865037 80.16105 56.396219 79.692233 
C 55.927402 79.223416 55.29146 78.96 54.628453 78.96 
C 53.965445 78.96 53.329503 79.223416 52.860686 79.692233 
C 52.391868 80.16105 52.128453 80.796992 52.128453 81.46 
C 52.128453 82.123008 52.391868 82.75895 52.860686 83.227767 
C 53.329503 83.696584 53.965445 83.96 54.628453 83.96 
z
" clip-path="url(#pab846dd07e)" style="fill: #bebebe"/>
    <path d="M 52.01049 79.822901 
C 52.673498 79.822901 53.30944 79.559486 53.778257 79.090668 
C 54.247075 78.621851 54.51049 77.985909 54.51049 77.322901 
C 54.51049 76.659894 54.247075 76.023952 53.778257 75.555134 
C 53.30944 75.086317 52.673498 74.822901 52.01049 74.822901 
C 51.347483 74.822901 50.711541 75.086317 50.242723 75.555134 
C 49.773906 76.023952 49.51049 76.659894 49.51049 77.322901 
C 49.51049 77.985909 49.773906 78.621851 50.242723 79.090668 
C 50.711541 79.559486 51.347483 79.822901 52.01049 79.822901 
z
" clip-path="url(#pab846dd07e)" style="fill: #bebebe"/>
    <path d="M 45.156577 75.266034 
C 45.289178 75.266034 45.416366 75.213351 45.51013 75.119587 
C 45.603893 75.025824 45.656577 74.898635 45.656577 74.766034 
C 45.656577 74.633432 45.603893 74.506244 45.51013 74.41248 
C 45.416366 74.318717 45.289178 74.266034 45.156577 74.266034 
C 45.023975 74.266034 44.896787 74.318717 44.803023 74.41248 
C 44.70926 74.506244 44.656577 74.633432 44.656577 74.766034 
C 44.656577 74.898635 44.70926 75.025824 44.803023 75.119587 
C 44.896787 75.213351 45.023975 75.266034 45.156577 75.266034 
z
" clip-path="url(#pab846dd07e)" style="fill: #bebebe"/>
    <path d="M 36.684673 75.266034 
C 36.817275 75.266034 36.944463 75.213351 37.038226 75.119587 
C 37.13199 75.025824 37.184673 74.898635 37.184673 74.766034 
C 37.184673 74.633432 37.13199 74.506244 37.038226 74.41248 
C 36.944463 74.318717 36.817275 74.266034 36.684673 74.266034 
C 36.552072 74.266034 36.424883 74.318717 36.33112 74.41248 
C 36.237356 74.506244 36.184673 74.633432 36.184673 74.766034 
C 36.184673 74.898635 36.237356 75.025824 36.33112 75.119587 
C 36.424883 75.213351 36.552072 75.266034 36.684673 75.266034 
z
" clip-path="url(#pab846dd07e)" style="fill: #bebebe"/>
    <path d="M 29.830759 79.822901 
C 30.493767 79.822901 31.129709 79.559486 31.598526 79.090668 
C 32.067343 78.621851 32.330759 77.985909 32.330759 77.322901 
C 32.330759 76.659894 32.067343 76.023952 31.598526 75.555134 
C 31.129709 75.086317 30.493767 74.822901 29.830759 74.822901 
C 29.167751 74.822901 28.53181 75.086317 28.062992 75.555134 
C 27.594175 76.023952 27.330759 76.659894 27.330759 77.322901 
C 27.330759 77.985909 27.594175 78.621851 28.062992 79.090668 
C 28.53181 79.559486 29.167751 79.822901 29.830759 79.822901 
z
" clip-path="url(#pab846dd07e)" style="fill: #bebebe"/>
    <path d="M 27.212797 81.96 
C 27.345399 81.96 27.472587 81.907317 27.56635 81.813553 
C 27.660114 81.71979 27.712797 81.592602 27.712797 81.46 
C 27.712797 81.327398 27.660114 81.20021 27.56635 81.106447 
C 27.472587 81.012683 27.345399 80.96 27.212797 80.96 
C 27.080196 80.96 26.953007 81.012683 26.859244 81.106447 
C 26.76548 81.20021 26.712797 81.327398 26.712797 81.46 
C 26.712797 81.592602 26.76548 81.71979 26.859244 81.813553 
C 26.953007 81.907317 27.080196 81.96 27.212797 81.96 
z
" clip-path="url(#pab846dd07e)" style="fill: #bebebe"/>
    <path d="M 29.830759 86.097099 
C 29.963361 86.097099 30.090549 86.044415 30.184313 85.950652 
C 30.278076 85.856889 30.330759 85.7297 30.330759 85.597099 
C 30.330759 85.464497 30.278076 85.337309 30.184313 85.243545 
C 30.090549 85.149782 29.963361 85.097099 29.830759 85.097099 
C 29.698158 85.097099 29.570969 85.149782 29.477206 85.243545 
C 29.383442 85.337309 29.330759 85.464497 29.330759 85.597099 
C 29.330759 85.7297 29.383442 85.856889 29.477206 85.950652 
C 29.570969 86.044415 29.698158 86.097099 29.830759 86.097099 
z
" clip-path="url(#pab846dd07e)" style="fill: #bebebe"/>
    <path d="M 36.684673 88.653966 
C 36.817275 88.653966 36.944463 88.601283 37.038226 88.50752 
C 37.13199 88.413756 37.184673 88.286568 37.184673 88.153966 
C 37.184673 88.021365 37.13199 87.894176 37.038226 87.800413 
C 36.944463 87.706649 36.817275 87.653966 36.684673 87.653966 
C 36.552072 87.653966 36.424883 87.706649 36.33112 87.800413 
C 36.237356 87.894176 36.184673 88.021365 36.184673 88.153966 
C 36.184673 88.286568 36.237356 88.413756 36.33112 88.50752 
C 36.424883 88.601283 36.552072 88.653966 36.684673 88.653966 
z
" clip-path="url(#pab846dd07e)" style="fill: #bebebe"/>
    <path d="M 45.156577 88.653966 
C 45.289178 88.653966 45.416366 88.601283 45.51013 88.50752 
C 45.603893 88.413756 45.656577 88.286568 45.656577 88.153966 
C 45.656577 88.021365 45.603893 87.894176 45.51013 87.800413 
C 45.416366 87.706649 45.289178 87.653966 45.156577 87.653966 
C 45.023975 87.653966 44.896787 87.706649 44.803023 87.800413 
C 44.70926 87.894176 44.656577 88.021365 44.656577 88.153966 
C 44.656577 88.286568 44.70926 88.413756 44.803023 88.50752 
C 44.896787 88.601283 45.023975 88.653966 45.156577 88.653966 
z
" clip-path="url(#pab846dd07e)" style="fill: #bebebe"/>
    <path d="M 52.01049 88.097099 
C 52.673498 88.097099 53.30944 87.833683 53.778257 87.364866 
C 54.247075 86.896048 54.51049 86.260106 54.51049 85.597099 
C 54.51049 84.934091 54.247075 84.298149 53.778257 83.829332 
C 53.30944 83.360514 52.673498 83.097099 52.01049 83.097099 
C 51.347483 83.097099 50.711541 83.360514 50.242723 83.829332 
C 49.773906 84.298149 49.51049 84.934091 49.51049 85.597099 
C 49.51049 86.260106 49.773906 86.896048 50.242723 87.364866 
C 50.711541 87.833683 51.347483 88.097099 52.01049 88.097099 
z
" clip-path="url(#pab846dd07e)" style="fill: #bebebe"/>
   </g>
   <g id="matplotlib.axis_5"/>
   <g id="matplotlib.axis_6"/>
  </g>
  <g id="axes_4">
   <g id="patch_5">
    <path d="M 24.19 120.904 
L 58.005 120.904 
L 58.005 104.448 
L 24.19 104.448 
z
" style="fill: #ffffff"/>
   </g>
   <g id="EdgeCollection_4">
    <path d="M 57.050445 111.850708 
C 83.263383 103.523796 64.221732 84.045551 55.302827 110.06302 
C 64.221732 84.045551 83.263383 103.523796 57.050445 111.850708 
" clip-path="url(#p8d3197ddfa)" style="fill: #020202"/>
    <path d="M 53.262251 110.376667 
L 53.376692 110.552046 
" clip-path="url(#p8d3197ddfa)" style="fill: #020202; stroke: #020202; stroke-width: 0.99"/>
    <path d="M 52.566277 111.057041 
L 45.569012 106.261488 
" clip-path="url(#p8d3197ddfa)" style="fill: #020202"/>
    <path d="M 52.277563 111.619865 
L 37.154851 106.148923 
" clip-path="url(#p8d3197ddfa)" style="fill: #020202"/>
    <path d="M 52.160543 112.071067 
L 32.298669 108.857646 
" clip-path="url(#p8d3197ddfa)" style="fill: #020202; stroke: #020202; stroke-width: 0.99"/>
    <path d="M 52.128453 112.470346 
L 27.712797 112.470346 
" clip-path="url(#p8d3197ddfa)" style="fill: #020202"/>
    <path d="M 52.160543 112.869625 
L 30.324341 116.402469 
" clip-path="url(#p8d3197ddfa)" style="fill: #020202"/>
    <path d="M 52.277563 113.320827 
L 39.035563 118.111384 
" clip-path="url(#p8d3197ddfa)" style="fill: #020202; stroke: #020202; stroke-width: 0.99"/>
    <path d="M 52.566277 113.883651 
L 45.569012 118.679204 
" clip-path="url(#p8d3197ddfa)" style="fill: #020202"/>
    <path d="M 53.262251 114.564025 
L 52.283731 116.063589 
" clip-path="url(#p8d3197ddfa)" style="fill: #020202"/>
    <path d="M 54.442055 109.039309 
C 81.514127 113.893019 73.749019 87.783832 53.729383 106.643041 
C 73.749019 87.783832 81.514127 113.893019 54.442055 109.039309 
" clip-path="url(#p8d3197ddfa)" style="fill: #020202"/>
    <path d="M 49.659601 107.607886 
L 45.626754 106.148923 
" clip-path="url(#p8d3197ddfa)" style="fill: #020202"/>
    <path d="M 49.542581 108.059088 
L 37.178255 106.058683 
" clip-path="url(#p8d3197ddfa)" style="fill: #020202"/>
    <path d="M 49.51049 108.458367 
L 32.330759 108.458367 
" clip-path="url(#p8d3197ddfa)" style="fill: #020202; stroke: #020202; stroke-width: 0.99"/>
    <path d="M 49.542581 108.857646 
L 27.706379 112.39049 
" clip-path="url(#p8d3197ddfa)" style="fill: #020202"/>
    <path d="M 49.659601 109.308848 
L 30.300937 116.312229 
" clip-path="url(#p8d3197ddfa)" style="fill: #020202"/>
    <path d="M 49.948315 109.871672 
L 38.746849 117.54856 
" clip-path="url(#p8d3197ddfa)" style="fill: #020202; stroke: #020202; stroke-width: 0.99"/>
    <path d="M 50.644289 110.552046 
L 45.429817 118.543129 
" clip-path="url(#p8d3197ddfa)" style="fill: #020202"/>
    <path d="M 52.01049 110.958367 
L 52.01049 115.982325 
" clip-path="url(#p8d3197ddfa)" style="fill: #020202"/>
    <path d="M 45.477598 105.595493 
C 63.187726 82.002221 36.357539 77.298225 44.98511 105.509147 
C 36.357539 77.298225 63.187726 82.002221 45.477598 105.595493 
" clip-path="url(#p8d3197ddfa)" style="fill: #020202"/>
    <path d="M 44.656577 105.978827 
L 37.184673 105.978827 
" clip-path="url(#p8d3197ddfa)" style="fill: #020202; stroke: #020202; stroke-width: 0.99"/>
    <path d="M 44.662995 106.058683 
L 32.298669 108.059088 
" clip-path="url(#p8d3197ddfa)" style="fill: #020202"/>
    <path d="M 44.686399 106.148923 
L 27.682975 112.30025 
" clip-path="url(#p8d3197ddfa)" style="fill: #020202"/>
    <path d="M 44.744141 106.261488 
L 30.243194 116.199664 
" clip-path="url(#p8d3197ddfa)" style="fill: #020202"/>
    <path d="M 44.883336 106.397563 
L 38.050875 116.868186 
" clip-path="url(#p8d3197ddfa)" style="fill: #020202"/>
    <path d="M 45.156577 106.478827 
L 45.156577 118.461865 
" clip-path="url(#p8d3197ddfa)" style="fill: #020202"/>
    <path d="M 45.429817 106.397563 
L 51.73725 116.063589 
" clip-path="url(#p8d3197ddfa)" style="fill: #020202"/>
    <path d="M 36.85614 105.509147 
C 45.483711 77.298225 18.653523 82.002221 36.363652 105.595493 
C 18.653523 82.002221 45.483711 77.298225 36.85614 105.509147 
" clip-path="url(#p8d3197ddfa)" style="fill: #020202"/>
    <path d="M 36.214495 106.148923 
L 32.181649 107.607886 
" clip-path="url(#p8d3197ddfa)" style="fill: #020202"/>
    <path d="M 36.272238 106.261488 
L 27.625232 112.187685 
" clip-path="url(#p8d3197ddfa)" style="fill: #020202"/>
    <path d="M 36.411433 106.397563 
L 30.104 116.063589 
" clip-path="url(#p8d3197ddfa)" style="fill: #020202"/>
    <path d="M 36.684673 106.478827 
L 36.684673 116.461865 
" clip-path="url(#p8d3197ddfa)" style="fill: #020202"/>
    <path d="M 36.957913 106.397563 
L 44.883336 118.543129 
" clip-path="url(#p8d3197ddfa)" style="fill: #020202"/>
    <path d="M 37.097108 106.261488 
L 51.598055 116.199664 
" clip-path="url(#p8d3197ddfa)" style="fill: #020202"/>
    <path d="M 29.466357 105.985067 
C 23.910614 79.048302 2.557743 95.961063 27.506618 107.537298 
C 2.557743 95.961063 23.910614 79.048302 29.466357 105.985067 
" clip-path="url(#p8d3197ddfa)" style="fill: #020202"/>
    <path d="M 28.464558 110.552046 
L 27.486037 112.05161 
" clip-path="url(#p8d3197ddfa)" style="fill: #020202"/>
    <path d="M 29.830759 110.958367 
L 29.830759 115.982325 
" clip-path="url(#p8d3197ddfa)" style="fill: #020202"/>
    <path d="M 31.196961 110.552046 
L 35.318471 116.868186 
" clip-path="url(#p8d3197ddfa)" style="fill: #020202"/>
    <path d="M 31.892935 109.871672 
L 44.744141 118.679204 
" clip-path="url(#p8d3197ddfa)" style="fill: #020202"/>
    <path d="M 32.181649 109.308848 
L 51.540312 116.312229 
" clip-path="url(#p8d3197ddfa)" style="fill: #020202; stroke: #020202; stroke-width: 0.99"/>
    <path d="M 26.779784 112.220346 
C 0.482601 98.850631 0.482601 126.090061 26.779784 112.720346 
C 0.482601 126.090061 0.482601 98.850631 26.779784 112.220346 
" clip-path="url(#p8d3197ddfa)" style="fill: #020202"/>
    <path d="M 27.486037 112.889082 
L 29.557519 116.063589 
" clip-path="url(#p8d3197ddfa)" style="fill: #020202"/>
    <path d="M 27.625232 112.753007 
L 34.622497 117.54856 
" clip-path="url(#p8d3197ddfa)" style="fill: #020202"/>
    <path d="M 27.682975 112.640442 
L 44.686399 118.791769 
" clip-path="url(#p8d3197ddfa)" style="fill: #020202"/>
    <path d="M 27.706379 112.550202 
L 51.516909 116.402469 
" clip-path="url(#p8d3197ddfa)" style="fill: #020202"/>
    <path d="M 29.365931 116.666539 
C 2.557743 128.979629 23.910614 145.89239 29.757879 116.976985 
C 23.910614 145.89239 2.557743 128.979629 29.365931 116.666539 
" clip-path="url(#p8d3197ddfa)" style="fill: #020202"/>
    <path d="M 30.300937 116.652421 
L 34.333783 118.111384 
" clip-path="url(#p8d3197ddfa)" style="fill: #020202; stroke: #020202; stroke-width: 0.99"/>
    <path d="M 30.324341 116.562181 
L 44.662995 118.882009 
" clip-path="url(#p8d3197ddfa)" style="fill: #020202"/>
    <path d="M 30.330759 116.482325 
L 51.51049 116.482325 
" clip-path="url(#p8d3197ddfa)" style="fill: #020202; stroke: #020202; stroke-width: 0.99"/>
    <path d="M 35.079567 120.878537 
C 18.653523 142.938471 45.483711 147.642467 37.542007 121.310264 
C 45.483711 147.642467 18.653523 142.938471 35.079567 120.878537 
" clip-path="url(#p8d3197ddfa)" style="fill: #020202"/>
    <path d="M 39.184673 118.961865 
L 44.656577 118.961865 
" clip-path="url(#p8d3197ddfa)" style="fill: #020202"/>
    <path d="M 39.152582 118.562586 
L 51.516909 116.562181 
" clip-path="url(#p8d3197ddfa)" style="fill: #020202"/>
    <path d="M 44.98511 119.431545 
C 36.357539 147.642467 63.187726 142.938471 45.477598 119.345199 
C 63.187726 142.938471 36.357539 147.642467 44.98511 119.431545 
" clip-path="url(#p8d3197ddfa)" style="fill: #020202"/>
    <path d="M 45.626754 118.791769 
L 51.540312 116.652421 
" clip-path="url(#p8d3197ddfa)" style="fill: #020202"/>
    <path d="M 52.083371 116.976985 
C 57.930636 145.89239 79.283506 128.979629 52.475319 116.666539 
C 79.283506 128.979629 57.930636 145.89239 52.083371 116.976985 
" clip-path="url(#p8d3197ddfa)" style="fill: #020202"/>
   </g>
   <g id="VertexCollection_4">
    <path d="M 54.628453 114.970346 
C 55.29146 114.970346 55.927402 114.70693 56.396219 114.238113 
C 56.865037 113.769296 57.128453 113.133354 57.128453 112.470346 
C 57.128453 111.807338 56.865037 111.171396 56.396219 110.702579 
C 55.927402 110.233762 55.29146 109.970346 54.628453 109.970346 
C 53.965445 109.970346 53.329503 110.233762 52.860686 110.702579 
C 52.391868 111.171396 52.128453 111.807338 52.128453 112.470346 
C 52.128453 113.133354 52.391868 113.769296 52.860686 114.238113 
C 53.329503 114.70693 53.965445 114.970346 54.628453 114.970346 
z
" clip-path="url(#p8d3197ddfa)" style="fill: #bebebe"/>
    <path d="M 52.01049 110.958367 
C 52.673498 110.958367 53.30944 110.694951 53.778257 110.226134 
C 54.247075 109.757316 54.51049 109.121374 54.51049 108.458367 
C 54.51049 107.795359 54.247075 107.159417 53.778257 106.6906 
C 53.30944 106.221782 52.673498 105.958367 52.01049 105.958367 
C 51.347483 105.958367 50.711541 106.221782 50.242723 106.6906 
C 49.773906 107.159417 49.51049 107.795359 49.51049 108.458367 
C 49.51049 109.121374 49.773906 109.757316 50.242723 110.226134 
C 50.711541 110.694951 51.347483 110.958367 52.01049 110.958367 
z
" clip-path="url(#p8d3197ddfa)" style="fill: #bebebe"/>
    <path d="M 45.156577 106.478827 
C 45.289178 106.478827 45.416366 106.426144 45.51013 106.33238 
C 45.603893 106.238617 45.656577 106.111429 45.656577 105.978827 
C 45.656577 105.846225 45.603893 105.719037 45.51013 105.625274 
C 45.416366 105.53151 45.289178 105.478827 45.156577 105.478827 
C 45.023975 105.478827 44.896787 105.53151 44.803023 105.625274 
C 44.70926 105.719037 44.656577 105.846225 44.656577 105.978827 
C 44.656577 106.111429 44.70926 106.238617 44.803023 106.33238 
C 44.896787 106.426144 45.023975 106.478827 45.156577 106.478827 
z
" clip-path="url(#p8d3197ddfa)" style="fill: #bebebe"/>
    <path d="M 36.684673 106.478827 
C 36.817275 106.478827 36.944463 106.426144 37.038226 106.33238 
C 37.13199 106.238617 37.184673 106.111429 37.184673 105.978827 
C 37.184673 105.846225 37.13199 105.719037 37.038226 105.625274 
C 36.944463 105.53151 36.817275 105.478827 36.684673 105.478827 
C 36.552072 105.478827 36.424883 105.53151 36.33112 105.625274 
C 36.237356 105.719037 36.184673 105.846225 36.184673 105.978827 
C 36.184673 106.111429 36.237356 106.238617 36.33112 106.33238 
C 36.424883 106.426144 36.552072 106.478827 36.684673 106.478827 
z
" clip-path="url(#p8d3197ddfa)" style="fill: #bebebe"/>
    <path d="M 29.830759 110.958367 
C 30.493767 110.958367 31.129709 110.694951 31.598526 110.226134 
C 32.067343 109.757316 32.330759 109.121374 32.330759 108.458367 
C 32.330759 107.795359 32.067343 107.159417 31.598526 106.6906 
C 31.129709 106.221782 30.493767 105.958367 29.830759 105.958367 
C 29.167751 105.958367 28.53181 106.221782 28.062992 106.6906 
C 27.594175 107.159417 27.330759 107.795359 27.330759 108.458367 
C 27.330759 109.121374 27.594175 109.757316 28.062992 110.226134 
C 28.53181 110.694951 29.167751 110.958367 29.830759 110.958367 
z
" clip-path="url(#p8d3197ddfa)" style="fill: #bebebe"/>
    <path d="M 27.212797 112.970346 
C 27.345399 112.970346 27.472587 112.917663 27.56635 112.823899 
C 27.660114 112.730136 27.712797 112.602948 27.712797 112.470346 
C 27.712797 112.337744 27.660114 112.210556 27.56635 112.116793 
C 27.472587 112.023029 27.345399 111.970346 27.212797 111.970346 
C 27.080196 111.970346 26.953007 112.023029 26.859244 112.116793 
C 26.76548 112.210556 26.712797 112.337744 26.712797 112.470346 
C 26.712797 112.602948 26.76548 112.730136 26.859244 112.823899 
C 26.953007 112.917663 27.080196 112.970346 27.212797 112.970346 
z
" clip-path="url(#p8d3197ddfa)" style="fill: #bebebe"/>
    <path d="M 29.830759 116.982325 
C 29.963361 116.982325 30.090549 116.929642 30.184313 116.835879 
C 30.278076 116.742115 30.330759 116.614927 30.330759 116.482325 
C 30.330759 116.349724 30.278076 116.222535 30.184313 116.128772 
C 30.090549 116.035008 29.963361 115.982325 29.830759 115.982325 
C 29.698158 115.982325 29.570969 116.035008 29.477206 116.128772 
C 29.383442 116.222535 29.330759 116.349724 29.330759 116.482325 
C 29.330759 116.614927 29.383442 116.742115 29.477206 116.835879 
C 29.570969 116.929642 29.698158 116.982325 29.830759 116.982325 
z
" clip-path="url(#p8d3197ddfa)" style="fill: #bebebe"/>
    <path d="M 36.684673 121.461865 
C 37.347681 121.461865 37.983623 121.198449 38.45244 120.729632 
C 38.921257 120.260815 39.184673 119.624873 39.184673 118.961865 
C 39.184673 118.298857 38.921257 117.662915 38.45244 117.194098 
C 37.983623 116.725281 37.347681 116.461865 36.684673 116.461865 
C 36.021665 116.461865 35.385723 116.725281 34.916906 117.194098 
C 34.448089 117.662915 34.184673 118.298857 34.184673 118.961865 
C 34.184673 119.624873 34.448089 120.260815 34.916906 120.729632 
C 35.385723 121.198449 36.021665 121.461865 36.684673 121.461865 
z
" clip-path="url(#p8d3197ddfa)" style="fill: #bebebe"/>
    <path d="M 45.156577 119.461865 
C 45.289178 119.461865 45.416366 119.409182 45.51013 119.315418 
C 45.603893 119.221655 45.656577 119.094466 45.656577 118.961865 
C 45.656577 118.829263 45.603893 118.702075 45.51013 118.608311 
C 45.416366 118.514548 45.289178 118.461865 45.156577 118.461865 
C 45.023975 118.461865 44.896787 118.514548 44.803023 118.608311 
C 44.70926 118.702075 44.656577 118.829263 44.656577 118.961865 
C 44.656577 119.094466 44.70926 119.221655 44.803023 119.315418 
C 44.896787 119.409182 45.023975 119.461865 45.156577 119.461865 
z
" clip-path="url(#p8d3197ddfa)" style="fill: #bebebe"/>
    <path d="M 52.01049 116.982325 
C 52.143092 116.982325 52.27028 116.929642 52.364044 116.835879 
C 52.457807 116.742115 52.51049 116.614927 52.51049 116.482325 
C 52.51049 116.349724 52.457807 116.222535 52.364044 116.128772 
C 52.27028 116.035008 52.143092 115.982325 52.01049 115.982325 
C 51.877889 115.982325 51.7507 116.035008 51.656937 116.128772 
C 51.563174 116.222535 51.51049 116.349724 51.51049 116.482325 
C 51.51049 116.614927 51.563174 116.742115 51.656937 116.835879 
C 51.7507 116.929642 51.877889 116.982325 52.01049 116.982325 
z
" clip-path="url(#p8d3197ddfa)" style="fill: #bebebe"/>
   </g>
   <g id="matplotlib.axis_7"/>
   <g id="matplotlib.axis_8"/>
  </g>
  <g id="axes_5">
   <g id="patch_6">
    <path d="M 24.19 152.12 
L 58.005 152.12 
L 58.005 135.664 
L 24.19 135.664 
z
" style="fill: #ffffff"/>
   </g>
   <g id="matplotlib.axis_9">
    <g id="xtick_1">
     <g id="line2d_1">
      <defs>
       <path id="m1ffdfa83c6" d="M 0 0 
L 0 3.5 
" style="stroke: #000000; stroke-width: 0.8"/>
      </defs>
      <g>
       <use xlink:href="#m1ffdfa83c6" x="24.19" y="152.12" style="stroke: #000000; stroke-width: 0.8"/>
      </g>
     </g>
     <g id="text_1">
      <!-- 0 -->
      <g transform="translate(21.00875 166.718437) scale(0.1 -0.1)">
       <defs>
        <path id="DejaVuSerif-30" d="M 2034 219 
Q 2513 219 2750 744 
Q 2988 1269 2988 2328 
Q 2988 3391 2750 3916 
Q 2513 4441 2034 4441 
Q 1556 4441 1318 3916 
Q 1081 3391 1081 2328 
Q 1081 1269 1318 744 
Q 1556 219 2034 219 
z
M 2034 -91 
Q 1275 -91 848 546 
Q 422 1184 422 2328 
Q 422 3475 848 4112 
Q 1275 4750 2034 4750 
Q 2797 4750 3222 4112 
Q 3647 3475 3647 2328 
Q 3647 1184 3222 546 
Q 2797 -91 2034 -91 
z
" transform="scale(0.015625)"/>
       </defs>
       <use xlink:href="#DejaVuSerif-30"/>
      </g>
     </g>
    </g>
    <g id="xtick_2">
     <g id="line2d_2">
      <g>
       <use xlink:href="#m1ffdfa83c6" x="58.005" y="152.12" style="stroke: #000000; stroke-width: 0.8"/>
      </g>
     </g>
     <g id="text_2">
      <!-- 1 -->
      <g transform="translate(54.82375 166.718437) scale(0.1 -0.1)">
       <defs>
        <path id="DejaVuSerif-31" d="M 909 0 
L 909 331 
L 1722 331 
L 1722 4213 
L 781 3603 
L 781 4013 
L 1919 4750 
L 2350 4750 
L 2350 331 
L 3163 331 
L 3163 0 
L 909 0 
z
" transform="scale(0.015625)"/>
       </defs>
       <use xlink:href="#DejaVuSerif-31"/>
      </g>
     </g>
    </g>
   </g>
   <g id="matplotlib.axis_10">
    <g id="ytick_1">
     <g id="line2d_3">
      <defs>
       <path id="m9113b9b679" d="M 0 0 
L -3.5 0 
" style="stroke: #000000; stroke-width: 0.8"/>
      </defs>
      <g>
       <use xlink:href="#m9113b9b679" x="24.19" y="152.12" style="stroke: #000000; stroke-width: 0.8"/>
      </g>
     </g>
     <g id="text_3">
      <!-- 0 -->
      <g transform="translate(10.8275 155.919219) scale(0.1 -0.1)">
       <use xlink:href="#DejaVuSerif-30"/>
      </g>
     </g>
    </g>
    <g id="ytick_2">
     <g id="line2d_4">
      <g>
       <use xlink:href="#m9113b9b679" x="24.19" y="135.664" style="stroke: #000000; stroke-width: 0.8"/>
      </g>
     </g>
     <g id="text_4">
      <!-- 1 -->
      <g transform="translate(10.8275 139.463219) scale(0.1 -0.1)">
       <use xlink:href="#DejaVuSerif-31"/>
      </g>
     </g>
    </g>
   </g>
   <g id="patch_7">
    <path d="M 24.19 152.12 
L 24.19 135.664 
" style="fill: none; stroke: #000000; stroke-width: 0.8; stroke-linejoin: miter; stroke-linecap: square"/>
   </g>
   <g id="patch_8">
    <path d="M 58.005 152.12 
L 58.005 135.664 
" style="fill: none; stroke: #000000; stroke-width: 0.8; stroke-linejoin: miter; stroke-linecap: square"/>
   </g>
   <g id="patch_9">
    <path d="M 24.19 152.12 
L 58.005 152.12 
" style="fill: none; stroke: #000000; stroke-width: 0.8; stroke-linejoin: miter; stroke-linecap: square"/>
   </g>
   <g id="patch_10">
    <path d="M 24.19 135.664 
L 58.005 135.664 
" style="fill: none; stroke: #000000; stroke-width: 0.8; stroke-linejoin: miter; stroke-linecap: square"/>
   </g>
  </g>
 </g>
 <defs>
  <clipPath id="p7c12647d63">
   <rect x="24.19" y="10.8" width="33.815" height="16.456"/>
  </clipPath>
  <clipPath id="p382c032617">
   <rect x="24.19" y="42.016" width="33.815" height="16.456"/>
  </clipPath>
  <clipPath id="pab846dd07e">
   <rect x="24.19" y="73.232" width="33.815" height="16.456"/>
  </clipPath>
  <clipPath id="p8d3197ddfa">
   <rect x="24.19" y="104.448" width="33.815" height="16.456"/>
  </clipPath>
 </defs>
</svg>
