<?xml version="1.0" encoding="utf-8" standalone="no"?>
<!DOCTYPE svg PUBLIC "-//W3C//DTD SVG 1.1//EN"
  "http://www.w3.org/Graphics/SVG/1.1/DTD/svg11.dtd">
<svg xmlns:xlink="http://www.w3.org/1999/xlink" width="72pt" height="180pt" viewBox="0 0 72 180" xmlns="http://www.w3.org/2000/svg" version="1.1">
 <metadata>
  <rdf:RDF xmlns:dc="http://purl.org/dc/elements/1.1/" xmlns:cc="http://creativecommons.org/ns#" xmlns:rdf="http://www.w3.org/1999/02/22-rdf-syntax-ns#">
   <cc:Work>
    <dc:type rdf:resource="http://purl.org/dc/dcmitype/StillImage"/>
    <dc:date>2025-06-06T13:44:45.505384</dc:date>
    <dc:format>image/svg+xml</dc:format>
    <dc:creator>
     <cc:Agent>
      <dc:title>Matplotlib v3.9.2, https://matplotlib.org/</dc:title>
     </cc:Agent>
    </dc:creator>
   </cc:Work>
  </rdf:RDF>
 </metadata>
 <defs>
  <style type="text/css">*{stroke-linejoin: round; stroke-linecap: butt}</style>
 </defs>
 <g id="figure_1">
  <g id="patch_1">
   <path d="M 0 180 
L 72 180 
L 72 0 
L 0 0 
z
" style="fill: #ffffff"/>
  </g>
  <g id="axes_1">
   <g id="patch_2">
    <path d="M 10.8 33.84 
L 61.2 33.84 
L 61.2 10.8 
L 10.8 10.8 
z
" style="fill: #ffffff"/>
   </g>
   <g id="EdgeCollection_1">
    <path d="M 57.127646 22.857936 
C 83.424829 36.227651 83.424829 8.988221 57.127646 22.357936 
C 83.424829 8.988221 83.424829 36.227651 57.127646 22.857936 
" clip-path="url(#p524987b5e4)" style="fill: #020202"/>
    <path d="M 56.409378 22.197291 
L 53.077914 17.401419 
" clip-path="url(#p524987b5e4)" style="fill: #020202; stroke: #020202; stroke-width: 0.99"/>
    <path d="M 56.274223 22.337278 
L 42.997564 13.789836 
" clip-path="url(#p524987b5e4)" style="fill: #020202"/>
    <path d="M 56.221223 22.447054 
L 32.317147 14.323587 
" clip-path="url(#p524987b5e4)" style="fill: #020202"/>
    <path d="M 56.20031 22.532809 
L 22.206212 17.366409 
" clip-path="url(#p524987b5e4)" style="fill: #020202"/>
    <path d="M 56.194633 22.607936 
L 18.332618 22.607936 
" clip-path="url(#p524987b5e4)" style="fill: #020202; stroke: #020202; stroke-width: 0.99"/>
    <path d="M 56.20031 22.683063 
L 22.206212 27.849462 
" clip-path="url(#p524987b5e4)" style="fill: #020202"/>
    <path d="M 56.221223 22.768817 
L 30.423507 31.535812 
" clip-path="url(#p524987b5e4)" style="fill: #020202"/>
    <path d="M 56.274223 22.878593 
L 42.997564 31.426036 
" clip-path="url(#p524987b5e4)" style="fill: #020202"/>
    <path d="M 56.409378 23.018581 
L 53.077914 27.814452 
" clip-path="url(#p524987b5e4)" style="fill: #020202"/>
    <path d="M 53.252883 16.795344 
C 79.754613 3.835814 57.997911 -12.554197 52.853522 16.494493 
C 57.997911 -12.554197 79.754613 3.835814 53.252883 16.795344 
" clip-path="url(#p524987b5e4)" style="fill: #020202"/>
    <path d="M 52.319248 16.829893 
L 43.050564 13.68006 
" clip-path="url(#p524987b5e4)" style="fill: #020202"/>
    <path d="M 52.298334 16.915648 
L 32.421716 13.894813 
" clip-path="url(#p524987b5e4)" style="fill: #020202"/>
    <path d="M 52.292658 16.990775 
L 22.234594 16.990775 
" clip-path="url(#p524987b5e4)" style="fill: #020202"/>
    <path d="M 52.298334 17.065901 
L 18.304237 22.232301 
" clip-path="url(#p524987b5e4)" style="fill: #020202"/>
    <path d="M 52.319248 17.151656 
L 22.101644 27.420688 
" clip-path="url(#p524987b5e4)" style="fill: #020202"/>
    <path d="M 52.372248 17.261432 
L 30.370507 31.426036 
" clip-path="url(#p524987b5e4)" style="fill: #020202"/>
    <path d="M 52.507403 17.401419 
L 42.86241 31.286048 
" clip-path="url(#p524987b5e4)" style="fill: #020202; stroke: #020202; stroke-width: 0.99"/>
    <path d="M 52.792658 17.490775 
L 52.792658 27.725097 
" clip-path="url(#p524987b5e4)" style="fill: #020202"/>
    <path d="M 42.894417 13.132727 
C 60.373317 -10.632356 33.498475 -15.074136 42.401109 13.051195 
C 33.498475 -15.074136 60.373317 -10.632356 42.894417 13.132727 
" clip-path="url(#p524987b5e4)" style="fill: #020202"/>
    <path d="M 42.077154 13.519178 
L 32.450097 13.519178 
" clip-path="url(#p524987b5e4)" style="fill: #020202"/>
    <path d="M 42.082831 13.594305 
L 22.206212 16.61514 
" clip-path="url(#p524987b5e4)" style="fill: #020202"/>
    <path d="M 42.103744 13.68006 
L 18.199669 21.803527 
" clip-path="url(#p524987b5e4)" style="fill: #020202"/>
    <path d="M 42.156745 13.789836 
L 21.836643 26.871809 
" clip-path="url(#p524987b5e4)" style="fill: #020202"/>
    <path d="M 42.291899 13.929823 
L 30.235353 31.286048 
" clip-path="url(#p524987b5e4)" style="fill: #020202"/>
    <path d="M 42.577154 14.019178 
L 42.577154 31.196693 
" clip-path="url(#p524987b5e4)" style="fill: #020202"/>
    <path d="M 42.86241 13.929823 
L 52.507403 27.814452 
" clip-path="url(#p524987b5e4)" style="fill: #020202; stroke: #020202; stroke-width: 0.99"/>
    <path d="M 30.830322 11.179262 
C 39.028777 -15.074136 12.153935 -10.632356 28.363783 11.586923 
C 12.153935 -10.632356 39.028777 -15.074136 30.830322 11.179262 
" clip-path="url(#p524987b5e4)" style="fill: #020202"/>
    <path d="M 27.583047 14.323587 
L 22.101644 16.186366 
" clip-path="url(#p524987b5e4)" style="fill: #020202; stroke: #020202; stroke-width: 0.99"/>
    <path d="M 27.848048 14.872466 
L 17.934668 21.254648 
" clip-path="url(#p524987b5e4)" style="fill: #020202; stroke: #020202; stroke-width: 0.99"/>
    <path d="M 28.52382 15.572403 
L 21.160871 26.171872 
" clip-path="url(#p524987b5e4)" style="fill: #020202; stroke: #020202; stroke-width: 0.99"/>
    <path d="M 29.950097 16.019178 
L 29.950097 31.196693 
" clip-path="url(#p524987b5e4)" style="fill: #020202"/>
    <path d="M 31.376375 15.572403 
L 42.291899 31.286048 
" clip-path="url(#p524987b5e4)" style="fill: #020202"/>
    <path d="M 32.052147 14.872466 
L 52.372248 27.954439 
" clip-path="url(#p524987b5e4)" style="fill: #020202"/>
    <path d="M 19.430272 14.509366 
C 14.529341 -12.554197 -7.227361 3.835814 17.43347 16.01362 
C -7.227361 3.835814 14.529341 -12.554197 19.430272 14.509366 
" clip-path="url(#p524987b5e4)" style="fill: #020202"/>
    <path d="M 18.308316 19.043999 
L 17.258896 20.554711 
" clip-path="url(#p524987b5e4)" style="fill: #020202; stroke: #020202; stroke-width: 0.99"/>
    <path d="M 19.734594 19.490775 
L 19.734594 25.725097 
" clip-path="url(#p524987b5e4)" style="fill: #020202; stroke: #020202; stroke-width: 0.99"/>
    <path d="M 21.160871 19.043999 
L 29.664842 31.286048 
" clip-path="url(#p524987b5e4)" style="fill: #020202"/>
    <path d="M 21.836643 18.344063 
L 42.156745 31.426036 
" clip-path="url(#p524987b5e4)" style="fill: #020202"/>
    <path d="M 22.101644 17.795183 
L 52.319248 28.064215 
" clip-path="url(#p524987b5e4)" style="fill: #020202"/>
    <path d="M 13.667555 21.357936 
C -10.897577 8.988221 -10.897577 36.227651 13.667555 23.857936 
C -10.897577 36.227651 -10.897577 8.988221 13.667555 21.357936 
" clip-path="url(#p524987b5e4)" style="fill: #020202"/>
    <path d="M 17.258896 24.66116 
L 18.308316 26.171872 
" clip-path="url(#p524987b5e4)" style="fill: #020202"/>
    <path d="M 17.934668 23.961224 
L 29.529688 31.426036 
" clip-path="url(#p524987b5e4)" style="fill: #020202"/>
    <path d="M 18.199669 23.412345 
L 42.103744 31.535812 
" clip-path="url(#p524987b5e4)" style="fill: #020202"/>
    <path d="M 18.304237 22.983571 
L 52.298334 28.14997 
" clip-path="url(#p524987b5e4)" style="fill: #020202"/>
    <path d="M 17.43347 29.202251 
C -7.227361 41.380057 14.529341 57.770068 19.430272 30.706505 
C 14.529341 57.770068 -7.227361 41.380057 17.43347 29.202251 
" clip-path="url(#p524987b5e4)" style="fill: #020202"/>
    <path d="M 22.101644 29.029506 
L 29.476687 31.535812 
" clip-path="url(#p524987b5e4)" style="fill: #020202"/>
    <path d="M 22.206212 28.600732 
L 42.082831 31.621566 
" clip-path="url(#p524987b5e4)" style="fill: #020202"/>
    <path d="M 22.234594 28.225097 
L 52.292658 28.225097 
" clip-path="url(#p524987b5e4)" style="fill: #020202; stroke: #020202; stroke-width: 0.99"/>
    <path d="M 29.632835 32.083144 
C 12.153935 55.848227 39.028777 60.290007 30.126142 32.164676 
C 39.028777 60.290007 12.153935 55.848227 29.632835 32.083144 
" clip-path="url(#p524987b5e4)" style="fill: #020202"/>
    <path d="M 30.450097 31.696693 
L 42.077154 31.696693 
" clip-path="url(#p524987b5e4)" style="fill: #020202"/>
    <path d="M 30.444421 31.621566 
L 52.298334 28.300224 
" clip-path="url(#p524987b5e4)" style="fill: #020202"/>
    <path d="M 42.401109 32.164676 
C 33.498475 60.290007 60.373317 55.848227 42.894417 32.083144 
C 60.373317 55.848227 33.498475 60.290007 42.401109 32.164676 
" clip-path="url(#p524987b5e4)" style="fill: #020202"/>
    <path d="M 43.050564 31.535812 
L 52.319248 28.385979 
" clip-path="url(#p524987b5e4)" style="fill: #020202"/>
    <path d="M 52.853522 28.721379 
C 57.997911 57.770068 79.754613 41.380057 53.252883 28.420528 
C 79.754613 41.380057 57.997911 57.770068 52.853522 28.721379 
" clip-path="url(#p524987b5e4)" style="fill: #020202"/>
   </g>
   <g id="VertexCollection_1">
    <path d="M 56.694633 23.107936 
C 56.827235 23.107936 56.954423 23.055253 57.048187 22.961489 
C 57.14195 22.867726 57.194633 22.740537 57.194633 22.607936 
C 57.194633 22.475334 57.14195 22.348146 57.048187 22.254382 
C 56.954423 22.160619 56.827235 22.107936 56.694633 22.107936 
C 56.562032 22.107936 56.434843 22.160619 56.34108 22.254382 
C 56.247316 22.348146 56.194633 22.475334 56.194633 22.607936 
C 56.194633 22.740537 56.247316 22.867726 56.34108 22.961489 
C 56.434843 23.055253 56.562032 23.107936 56.694633 23.107936 
z
" clip-path="url(#p524987b5e4)" style="fill: #bebebe"/>
    <path d="M 52.792658 17.490775 
C 52.92526 17.490775 53.052448 17.438091 53.146212 17.344328 
C 53.239975 17.250564 53.292658 17.123376 53.292658 16.990775 
C 53.292658 16.858173 53.239975 16.730985 53.146212 16.637221 
C 53.052448 16.543458 52.92526 16.490775 52.792658 16.490775 
C 52.660057 16.490775 52.532868 16.543458 52.439105 16.637221 
C 52.345341 16.730985 52.292658 16.858173 52.292658 16.990775 
C 52.292658 17.123376 52.345341 17.250564 52.439105 17.344328 
C 52.532868 17.438091 52.660057 17.490775 52.792658 17.490775 
z
" clip-path="url(#p524987b5e4)" style="fill: #bebebe"/>
    <path d="M 42.577154 14.019178 
C 42.709756 14.019178 42.836944 13.966495 42.930708 13.872731 
C 43.024471 13.778968 43.077154 13.65178 43.077154 13.519178 
C 43.077154 13.386576 43.024471 13.259388 42.930708 13.165625 
C 42.836944 13.071861 42.709756 13.019178 42.577154 13.019178 
C 42.444553 13.019178 42.317364 13.071861 42.223601 13.165625 
C 42.129838 13.259388 42.077154 13.386576 42.077154 13.519178 
C 42.077154 13.65178 42.129838 13.778968 42.223601 13.872731 
C 42.317364 13.966495 42.444553 14.019178 42.577154 14.019178 
z
" clip-path="url(#p524987b5e4)" style="fill: #bebebe"/>
    <path d="M 29.950097 16.019178 
C 30.613105 16.019178 31.249047 15.755762 31.717864 15.286945 
C 32.186682 14.818128 32.450097 14.182186 32.450097 13.519178 
C 32.450097 12.85617 32.186682 12.220228 31.717864 11.751411 
C 31.249047 11.282594 30.613105 11.019178 29.950097 11.019178 
C 29.28709 11.019178 28.651148 11.282594 28.18233 11.751411 
C 27.713513 12.220228 27.450097 12.85617 27.450097 13.519178 
C 27.450097 14.182186 27.713513 14.818128 28.18233 15.286945 
C 28.651148 15.755762 29.28709 16.019178 29.950097 16.019178 
z
" clip-path="url(#p524987b5e4)" style="fill: #bebebe"/>
    <path d="M 19.734594 19.490775 
C 20.397601 19.490775 21.033543 19.227359 21.502361 18.758541 
C 21.971178 18.289724 22.234594 17.653782 22.234594 16.990775 
C 22.234594 16.327767 21.971178 15.691825 21.502361 15.223008 
C 21.033543 14.75419 20.397601 14.490775 19.734594 14.490775 
C 19.071586 14.490775 18.435644 14.75419 17.966827 15.223008 
C 17.498009 15.691825 17.234594 16.327767 17.234594 16.990775 
C 17.234594 17.653782 17.498009 18.289724 17.966827 18.758541 
C 18.435644 19.227359 19.071586 19.490775 19.734594 19.490775 
z
" clip-path="url(#p524987b5e4)" style="fill: #bebebe"/>
    <path d="M 15.832618 25.107936 
C 16.495626 25.107936 17.131568 24.84452 17.600385 24.375703 
C 18.069203 23.906885 18.332618 23.270943 18.332618 22.607936 
C 18.332618 21.944928 18.069203 21.308986 17.600385 20.840169 
C 17.131568 20.371351 16.495626 20.107936 15.832618 20.107936 
C 15.169611 20.107936 14.533669 20.371351 14.064852 20.840169 
C 13.596034 21.308986 13.332618 21.944928 13.332618 22.607936 
C 13.332618 23.270943 13.596034 23.906885 14.064852 24.375703 
C 14.533669 24.84452 15.169611 25.107936 15.832618 25.107936 
z
" clip-path="url(#p524987b5e4)" style="fill: #bebebe"/>
    <path d="M 19.734594 30.725097 
C 20.397601 30.725097 21.033543 30.461681 21.502361 29.992864 
C 21.971178 29.524046 22.234594 28.888105 22.234594 28.225097 
C 22.234594 27.562089 21.971178 26.926147 21.502361 26.45733 
C 21.033543 25.988513 20.397601 25.725097 19.734594 25.725097 
C 19.071586 25.725097 18.435644 25.988513 17.966827 26.45733 
C 17.498009 26.926147 17.234594 27.562089 17.234594 28.225097 
C 17.234594 28.888105 17.498009 29.524046 17.966827 29.992864 
C 18.435644 30.461681 19.071586 30.725097 19.734594 30.725097 
z
" clip-path="url(#p524987b5e4)" style="fill: #bebebe"/>
    <path d="M 29.950097 32.196693 
C 30.082699 32.196693 30.209887 32.14401 30.303651 32.050247 
C 30.397414 31.956483 30.450097 31.829295 30.450097 31.696693 
C 30.450097 31.564092 30.397414 31.436903 30.303651 31.34314 
C 30.209887 31.249376 30.082699 31.196693 29.950097 31.196693 
C 29.817496 31.196693 29.690307 31.249376 29.596544 31.34314 
C 29.502781 31.436903 29.450097 31.564092 29.450097 31.696693 
C 29.450097 31.829295 29.502781 31.956483 29.596544 32.050247 
C 29.690307 32.14401 29.817496 32.196693 29.950097 32.196693 
z
" clip-path="url(#p524987b5e4)" style="fill: #bebebe"/>
    <path d="M 42.577154 32.196693 
C 42.709756 32.196693 42.836944 32.14401 42.930708 32.050247 
C 43.024471 31.956483 43.077154 31.829295 43.077154 31.696693 
C 43.077154 31.564092 43.024471 31.436903 42.930708 31.34314 
C 42.836944 31.249376 42.709756 31.196693 42.577154 31.196693 
C 42.444553 31.196693 42.317364 31.249376 42.223601 31.34314 
C 42.129838 31.436903 42.077154 31.564092 42.077154 31.696693 
C 42.077154 31.829295 42.129838 31.956483 42.223601 32.050247 
C 42.317364 32.14401 42.444553 32.196693 42.577154 32.196693 
z
" clip-path="url(#p524987b5e4)" style="fill: #bebebe"/>
    <path d="M 52.792658 28.725097 
C 52.92526 28.725097 53.052448 28.672414 53.146212 28.57865 
C 53.239975 28.484887 53.292658 28.357698 53.292658 28.225097 
C 53.292658 28.092495 53.239975 27.965307 53.146212 27.871543 
C 53.052448 27.77778 52.92526 27.725097 52.792658 27.725097 
C 52.660057 27.725097 52.532868 27.77778 52.439105 27.871543 
C 52.345341 27.965307 52.292658 28.092495 52.292658 28.225097 
C 52.292658 28.357698 52.345341 28.484887 52.439105 28.57865 
C 52.532868 28.672414 52.660057 28.725097 52.792658 28.725097 
z
" clip-path="url(#p524987b5e4)" style="fill: #bebebe"/>
   </g>
   <g id="matplotlib.axis_1"/>
   <g id="matplotlib.axis_2"/>
  </g>
  <g id="axes_2">
   <g id="patch_3">
    <path d="M 10.8 67.68 
L 61.2 67.68 
L 61.2 44.64 
L 10.8 44.64 
z
" style="fill: #ffffff"/>
   </g>
   <g id="EdgeCollection_2">
    <path d="M 57.125956 56.697936 
C 83.423139 70.067651 83.423139 42.828221 57.125956 56.197936 
C 83.423139 42.828221 83.423139 70.067651 57.125956 56.697936 
" clip-path="url(#pf9d32aa9d3)" style="fill: #020202"/>
    <path d="M 56.405236 56.039004 
L 53.02865 51.239706 
" clip-path="url(#pf9d32aa9d3)" style="fill: #020202; stroke: #020202; stroke-width: 0.99"/>
    <path d="M 56.270975 56.179714 
L 42.816439 47.6274 
" clip-path="url(#pf9d32aa9d3)" style="fill: #020202"/>
    <path d="M 56.218916 56.288883 
L 31.975667 48.154441 
" clip-path="url(#pf9d32aa9d3)" style="fill: #020202"/>
    <path d="M 56.198479 56.373739 
L 21.731378 51.20176 
" clip-path="url(#pf9d32aa9d3)" style="fill: #020202"/>
    <path d="M 56.192943 56.447936 
L 15.807057 56.447936 
" clip-path="url(#pf9d32aa9d3)" style="fill: #020202"/>
    <path d="M 56.198479 56.522133 
L 21.731378 61.694111 
" clip-path="url(#pf9d32aa9d3)" style="fill: #020202"/>
    <path d="M 56.218916 56.606988 
L 30.079557 65.377641 
" clip-path="url(#pf9d32aa9d3)" style="fill: #020202"/>
    <path d="M 56.270975 56.716158 
L 42.816439 65.268471 
" clip-path="url(#pf9d32aa9d3)" style="fill: #020202"/>
    <path d="M 56.405236 56.856867 
L 54.179478 60.020441 
" clip-path="url(#pf9d32aa9d3)" style="fill: #020202"/>
    <path d="M 53.2002 50.633081 
C 79.637826 37.543274 57.800721 21.260542 52.799364 50.334199 
C 57.800721 21.260542 79.637826 37.543274 53.2002 50.633081 
" clip-path="url(#pf9d32aa9d3)" style="fill: #020202"/>
    <path d="M 52.266915 50.671722 
L 42.868499 47.518231 
" clip-path="url(#pf9d32aa9d3)" style="fill: #020202"/>
    <path d="M 52.246479 50.756577 
L 32.07785 47.730163 
" clip-path="url(#pf9d32aa9d3)" style="fill: #020202"/>
    <path d="M 52.240943 50.830775 
L 21.759057 50.830775 
" clip-path="url(#pf9d32aa9d3)" style="fill: #020202"/>
    <path d="M 52.246479 50.904972 
L 15.801521 56.373739 
" clip-path="url(#pf9d32aa9d3)" style="fill: #020202"/>
    <path d="M 52.266915 50.989827 
L 21.629196 61.269834 
" clip-path="url(#pf9d32aa9d3)" style="fill: #020202"/>
    <path d="M 52.318975 51.098996 
L 30.027497 65.268471 
" clip-path="url(#pf9d32aa9d3)" style="fill: #020202"/>
    <path d="M 52.453236 51.239706 
L 42.682178 65.127762 
" clip-path="url(#pf9d32aa9d3)" style="fill: #020202; stroke: #020202; stroke-width: 0.99"/>
    <path d="M 52.740943 51.330775 
L 52.740943 59.565097 
" clip-path="url(#pf9d32aa9d3)" style="fill: #020202"/>
    <path d="M 42.710987 46.972115 
C 60.143971 23.17333 33.260604 18.783446 42.217523 46.891536 
C 33.260604 18.783446 60.143971 23.17333 42.710987 46.972115 
" clip-path="url(#pf9d32aa9d3)" style="fill: #020202"/>
    <path d="M 41.894471 47.359178 
L 32.105529 47.359178 
" clip-path="url(#pf9d32aa9d3)" style="fill: #020202"/>
    <path d="M 41.900007 47.433375 
L 21.731378 50.459789 
" clip-path="url(#pf9d32aa9d3)" style="fill: #020202"/>
    <path d="M 41.920443 47.518231 
L 15.781084 56.288883 
" clip-path="url(#pf9d32aa9d3)" style="fill: #020202"/>
    <path d="M 41.972503 47.6274 
L 21.368897 60.723987 
" clip-path="url(#pf9d32aa9d3)" style="fill: #020202"/>
    <path d="M 42.106764 47.768109 
L 29.893236 65.127762 
" clip-path="url(#pf9d32aa9d3)" style="fill: #020202"/>
    <path d="M 42.394471 47.859178 
L 42.394471 65.036693 
" clip-path="url(#pf9d32aa9d3)" style="fill: #020202"/>
    <path d="M 42.682178 47.768109 
L 51.302408 60.020441 
" clip-path="url(#pf9d32aa9d3)" style="fill: #020202"/>
    <path d="M 30.490269 45.020966 
C 38.739396 18.783446 11.856029 23.17333 28.022948 45.423864 
C 11.856029 23.17333 38.739396 18.783446 30.490269 45.020966 
" clip-path="url(#pf9d32aa9d3)" style="fill: #020202"/>
    <path d="M 27.23539 48.154441 
L 21.629196 50.035512 
" clip-path="url(#pf9d32aa9d3)" style="fill: #020202; stroke: #020202; stroke-width: 0.99"/>
    <path d="M 27.495689 48.700288 
L 15.729025 56.179714 
" clip-path="url(#pf9d32aa9d3)" style="fill: #020202; stroke: #020202; stroke-width: 0.99"/>
    <path d="M 28.166994 49.403834 
L 20.697592 60.020441 
" clip-path="url(#pf9d32aa9d3)" style="fill: #020202; stroke: #020202; stroke-width: 0.99"/>
    <path d="M 29.605529 49.859178 
L 29.605529 65.036693 
" clip-path="url(#pf9d32aa9d3)" style="fill: #020202"/>
    <path d="M 31.044064 49.403834 
L 42.106764 65.127762 
" clip-path="url(#pf9d32aa9d3)" style="fill: #020202"/>
    <path d="M 31.715369 48.700288 
L 50.631103 60.723987 
" clip-path="url(#pf9d32aa9d3)" style="fill: #020202"/>
    <path d="M 18.966952 48.347898 
C 14.199279 21.260542 -7.637826 37.543274 16.962771 49.842306 
C -7.637826 37.543274 14.199279 21.260542 18.966952 48.347898 
" clip-path="url(#pf9d32aa9d3)" style="fill: #020202"/>
    <path d="M 17.820522 52.87543 
L 15.594764 56.039004 
" clip-path="url(#pf9d32aa9d3)" style="fill: #020202"/>
    <path d="M 19.259057 53.330775 
L 19.259057 59.565097 
" clip-path="url(#pf9d32aa9d3)" style="fill: #020202; stroke: #020202; stroke-width: 0.99"/>
    <path d="M 20.697592 52.87543 
L 29.317822 65.127762 
" clip-path="url(#pf9d32aa9d3)" style="fill: #020202"/>
    <path d="M 21.368897 52.171884 
L 41.972503 65.268471 
" clip-path="url(#pf9d32aa9d3)" style="fill: #020202"/>
    <path d="M 21.629196 51.626037 
L 50.370804 61.269834 
" clip-path="url(#pf9d32aa9d3)" style="fill: #020202; stroke: #020202; stroke-width: 0.99"/>
    <path d="M 14.874044 56.197936 
C -11.423139 42.828221 -11.423139 70.067651 14.874044 56.697936 
C -11.423139 70.067651 -11.423139 42.828221 14.874044 56.197936 
" clip-path="url(#pf9d32aa9d3)" style="fill: #020202"/>
    <path d="M 15.594764 56.856867 
L 17.820522 60.020441 
" clip-path="url(#pf9d32aa9d3)" style="fill: #020202"/>
    <path d="M 15.729025 56.716158 
L 29.183561 65.268471 
" clip-path="url(#pf9d32aa9d3)" style="fill: #020202"/>
    <path d="M 15.781084 56.606988 
L 41.920443 65.377641 
" clip-path="url(#pf9d32aa9d3)" style="fill: #020202"/>
    <path d="M 15.801521 56.522133 
L 50.268622 61.694111 
" clip-path="url(#pf9d32aa9d3)" style="fill: #020202"/>
    <path d="M 16.962771 63.053565 
C -7.637826 75.352597 14.199279 91.635329 18.966952 64.547973 
C 14.199279 91.635329 -7.637826 75.352597 16.962771 63.053565 
" clip-path="url(#pf9d32aa9d3)" style="fill: #020202"/>
    <path d="M 21.629196 62.86036 
L 29.131501 65.377641 
" clip-path="url(#pf9d32aa9d3)" style="fill: #020202"/>
    <path d="M 21.731378 62.436082 
L 41.900007 65.462496 
" clip-path="url(#pf9d32aa9d3)" style="fill: #020202"/>
    <path d="M 21.759057 62.065097 
L 50.240943 62.065097 
" clip-path="url(#pf9d32aa9d3)" style="fill: #020202; stroke: #020202; stroke-width: 0.99"/>
    <path d="M 29.289013 65.923756 
C 11.856029 89.722541 38.739396 94.112425 29.782477 66.004336 
C 38.739396 94.112425 11.856029 89.722541 29.289013 65.923756 
" clip-path="url(#pf9d32aa9d3)" style="fill: #020202"/>
    <path d="M 30.105529 65.536693 
L 41.894471 65.536693 
" clip-path="url(#pf9d32aa9d3)" style="fill: #020202"/>
    <path d="M 30.099993 65.462496 
L 50.268622 62.436082 
" clip-path="url(#pf9d32aa9d3)" style="fill: #020202"/>
    <path d="M 42.217523 66.004336 
C 33.260604 94.112425 60.143971 89.722541 42.710987 65.923756 
C 60.143971 89.722541 33.260604 94.112425 42.217523 66.004336 
" clip-path="url(#pf9d32aa9d3)" style="fill: #020202"/>
    <path d="M 42.868499 65.377641 
L 50.370804 62.86036 
" clip-path="url(#pf9d32aa9d3)" style="fill: #020202; stroke: #020202; stroke-width: 0.99"/>
    <path d="M 53.033048 64.547973 
C 57.800721 91.635329 79.637826 75.352597 55.037229 63.053565 
C 79.637826 75.352597 57.800721 91.635329 53.033048 64.547973 
" clip-path="url(#pf9d32aa9d3)" style="fill: #020202"/>
   </g>
   <g id="VertexCollection_2">
    <path d="M 56.692943 56.947936 
C 56.825545 56.947936 56.952733 56.895253 57.046497 56.801489 
C 57.14026 56.707726 57.192943 56.580537 57.192943 56.447936 
C 57.192943 56.315334 57.14026 56.188146 57.046497 56.094382 
C 56.952733 56.000619 56.825545 55.947936 56.692943 55.947936 
C 56.560342 55.947936 56.433153 56.000619 56.33939 56.094382 
C 56.245627 56.188146 56.192943 56.315334 56.192943 56.447936 
C 56.192943 56.580537 56.245627 56.707726 56.33939 56.801489 
C 56.433153 56.895253 56.560342 56.947936 56.692943 56.947936 
z
" clip-path="url(#pf9d32aa9d3)" style="fill: #bebebe"/>
    <path d="M 52.740943 51.330775 
C 52.873544 51.330775 53.000733 51.278091 53.094496 51.184328 
C 53.18826 51.090564 53.240943 50.963376 53.240943 50.830775 
C 53.240943 50.698173 53.18826 50.570985 53.094496 50.477221 
C 53.000733 50.383458 52.873544 50.330775 52.740943 50.330775 
C 52.608341 50.330775 52.481153 50.383458 52.38739 50.477221 
C 52.293626 50.570985 52.240943 50.698173 52.240943 50.830775 
C 52.240943 50.963376 52.293626 51.090564 52.38739 51.184328 
C 52.481153 51.278091 52.608341 51.330775 52.740943 51.330775 
z
" clip-path="url(#pf9d32aa9d3)" style="fill: #bebebe"/>
    <path d="M 42.394471 47.859178 
C 42.527073 47.859178 42.654261 47.806495 42.748025 47.712731 
C 42.841788 47.618968 42.894471 47.49178 42.894471 47.359178 
C 42.894471 47.226576 42.841788 47.099388 42.748025 47.005625 
C 42.654261 46.911861 42.527073 46.859178 42.394471 46.859178 
C 42.26187 46.859178 42.134681 46.911861 42.040918 47.005625 
C 41.947154 47.099388 41.894471 47.226576 41.894471 47.359178 
C 41.894471 47.49178 41.947154 47.618968 42.040918 47.712731 
C 42.134681 47.806495 42.26187 47.859178 42.394471 47.859178 
z
" clip-path="url(#pf9d32aa9d3)" style="fill: #bebebe"/>
    <path d="M 29.605529 49.859178 
C 30.268537 49.859178 30.904478 49.595762 31.373296 49.126945 
C 31.842113 48.658128 32.105529 48.022186 32.105529 47.359178 
C 32.105529 46.69617 31.842113 46.060228 31.373296 45.591411 
C 30.904478 45.122594 30.268537 44.859178 29.605529 44.859178 
C 28.942521 44.859178 28.306579 45.122594 27.837762 45.591411 
C 27.368945 46.060228 27.105529 46.69617 27.105529 47.359178 
C 27.105529 48.022186 27.368945 48.658128 27.837762 49.126945 
C 28.306579 49.595762 28.942521 49.859178 29.605529 49.859178 
z
" clip-path="url(#pf9d32aa9d3)" style="fill: #bebebe"/>
    <path d="M 19.259057 53.330775 
C 19.922065 53.330775 20.558007 53.067359 21.026824 52.598541 
C 21.495641 52.129724 21.759057 51.493782 21.759057 50.830775 
C 21.759057 50.167767 21.495641 49.531825 21.026824 49.063008 
C 20.558007 48.59419 19.922065 48.330775 19.259057 48.330775 
C 18.596049 48.330775 17.960107 48.59419 17.49129 49.063008 
C 17.022473 49.531825 16.759057 50.167767 16.759057 50.830775 
C 16.759057 51.493782 17.022473 52.129724 17.49129 52.598541 
C 17.960107 53.067359 18.596049 53.330775 19.259057 53.330775 
z
" clip-path="url(#pf9d32aa9d3)" style="fill: #bebebe"/>
    <path d="M 15.307057 56.947936 
C 15.439658 56.947936 15.566847 56.895253 15.66061 56.801489 
C 15.754373 56.707726 15.807057 56.580537 15.807057 56.447936 
C 15.807057 56.315334 15.754373 56.188146 15.66061 56.094382 
C 15.566847 56.000619 15.439658 55.947936 15.307057 55.947936 
C 15.174455 55.947936 15.047267 56.000619 14.953503 56.094382 
C 14.85974 56.188146 14.807057 56.315334 14.807057 56.447936 
C 14.807057 56.580537 14.85974 56.707726 14.953503 56.801489 
C 15.047267 56.895253 15.174455 56.947936 15.307057 56.947936 
z
" clip-path="url(#pf9d32aa9d3)" style="fill: #bebebe"/>
    <path d="M 19.259057 64.565097 
C 19.922065 64.565097 20.558007 64.301681 21.026824 63.832864 
C 21.495641 63.364046 21.759057 62.728105 21.759057 62.065097 
C 21.759057 61.402089 21.495641 60.766147 21.026824 60.29733 
C 20.558007 59.828513 19.922065 59.565097 19.259057 59.565097 
C 18.596049 59.565097 17.960107 59.828513 17.49129 60.29733 
C 17.022473 60.766147 16.759057 61.402089 16.759057 62.065097 
C 16.759057 62.728105 17.022473 63.364046 17.49129 63.832864 
C 17.960107 64.301681 18.596049 64.565097 19.259057 64.565097 
z
" clip-path="url(#pf9d32aa9d3)" style="fill: #bebebe"/>
    <path d="M 29.605529 66.036693 
C 29.73813 66.036693 29.865319 65.98401 29.959082 65.890247 
C 30.052846 65.796483 30.105529 65.669295 30.105529 65.536693 
C 30.105529 65.404092 30.052846 65.276903 29.959082 65.18314 
C 29.865319 65.089376 29.73813 65.036693 29.605529 65.036693 
C 29.472927 65.036693 29.345739 65.089376 29.251975 65.18314 
C 29.158212 65.276903 29.105529 65.404092 29.105529 65.536693 
C 29.105529 65.669295 29.158212 65.796483 29.251975 65.890247 
C 29.345739 65.98401 29.472927 66.036693 29.605529 66.036693 
z
" clip-path="url(#pf9d32aa9d3)" style="fill: #bebebe"/>
    <path d="M 42.394471 66.036693 
C 42.527073 66.036693 42.654261 65.98401 42.748025 65.890247 
C 42.841788 65.796483 42.894471 65.669295 42.894471 65.536693 
C 42.894471 65.404092 42.841788 65.276903 42.748025 65.18314 
C 42.654261 65.089376 42.527073 65.036693 42.394471 65.036693 
C 42.26187 65.036693 42.134681 65.089376 42.040918 65.18314 
C 41.947154 65.276903 41.894471 65.404092 41.894471 65.536693 
C 41.894471 65.669295 41.947154 65.796483 42.040918 65.890247 
C 42.134681 65.98401 42.26187 66.036693 42.394471 66.036693 
z
" clip-path="url(#pf9d32aa9d3)" style="fill: #bebebe"/>
    <path d="M 52.740943 64.565097 
C 53.403951 64.565097 54.039893 64.301681 54.50871 63.832864 
C 54.977527 63.364046 55.240943 62.728105 55.240943 62.065097 
C 55.240943 61.402089 54.977527 60.766147 54.50871 60.29733 
C 54.039893 59.828513 53.403951 59.565097 52.740943 59.565097 
C 52.077935 59.565097 51.441993 59.828513 50.973176 60.29733 
C 50.504359 60.766147 50.240943 61.402089 50.240943 62.065097 
C 50.240943 62.728105 50.504359 63.364046 50.973176 63.832864 
C 51.441993 64.301681 52.077935 64.565097 52.740943 64.565097 
z
" clip-path="url(#pf9d32aa9d3)" style="fill: #bebebe"/>
   </g>
   <g id="matplotlib.axis_3"/>
   <g id="matplotlib.axis_4"/>
  </g>
  <g id="axes_3">
   <g id="patch_4">
    <path d="M 10.8 101.52 
L 61.2 101.52 
L 61.2 78.48 
L 10.8 78.48 
z
" style="fill: #ffffff"/>
   </g>
   <g id="EdgeCollection_3">
    <path d="M 57.125956 90.25 
C 83.423139 103.619715 83.423139 76.380285 57.125956 89.75 
C 83.423139 76.380285 83.423139 103.619715 57.125956 90.25 
" clip-path="url(#pf57be46acd)" style="fill: #020202"/>
    <path d="M 56.411145 89.586975 
L 53.022742 84.620684 
" clip-path="url(#pf57be46acd)" style="fill: #020202; stroke: #020202; stroke-width: 0.99"/>
    <path d="M 56.27477 89.7259 
L 42.812645 80.901896 
" clip-path="url(#pf57be46acd)" style="fill: #020202"/>
    <path d="M 56.220428 89.83651 
L 30.078045 80.791286 
" clip-path="url(#pf57be46acd)" style="fill: #020202"/>
    <path d="M 56.198824 89.923542 
L 19.753177 84.284117 
" clip-path="url(#pf57be46acd)" style="fill: #020202"/>
    <path d="M 56.192943 90 
L 15.807057 90 
" clip-path="url(#pf57be46acd)" style="fill: #020202; stroke: #020202; stroke-width: 0.99"/>
    <path d="M 56.198824 90.076458 
L 21.729655 95.410052 
" clip-path="url(#pf57be46acd)" style="fill: #020202"/>
    <path d="M 56.220428 90.16349 
L 30.078045 99.208714 
" clip-path="url(#pf57be46acd)" style="fill: #020202"/>
    <path d="M 56.27477 90.2741 
L 42.812645 99.098104 
" clip-path="url(#pf57be46acd)" style="fill: #020202"/>
    <path d="M 56.411145 90.413025 
L 53.022742 95.379316 
" clip-path="url(#pf57be46acd)" style="fill: #020202"/>
    <path d="M 53.202515 84.015434 
C 79.793722 71.240504 58.151518 54.699599 52.805257 83.711813 
C 58.151518 54.699599 79.793722 71.240504 53.202515 84.015434 
" clip-path="url(#pf57be46acd)" style="fill: #020202"/>
    <path d="M 52.268427 84.04417 
L 42.866987 80.791286 
" clip-path="url(#pf57be46acd)" style="fill: #020202"/>
    <path d="M 52.246823 84.131202 
L 30.099648 80.704254 
" clip-path="url(#pf57be46acd)" style="fill: #020202"/>
    <path d="M 52.240943 84.20766 
L 19.759057 84.20766 
" clip-path="url(#pf57be46acd)" style="fill: #020202"/>
    <path d="M 52.246823 84.284117 
L 15.801176 89.923542 
" clip-path="url(#pf57be46acd)" style="fill: #020202"/>
    <path d="M 52.268427 84.371149 
L 21.621636 94.974892 
" clip-path="url(#pf57be46acd)" style="fill: #020202"/>
    <path d="M 52.322769 84.48176 
L 30.023703 99.098104 
" clip-path="url(#pf57be46acd)" style="fill: #020202"/>
    <path d="M 52.459144 84.620684 
L 42.67627 98.959179 
" clip-path="url(#pf57be46acd)" style="fill: #020202; stroke: #020202; stroke-width: 0.99"/>
    <path d="M 52.740943 84.70766 
L 52.740943 95.29234 
" clip-path="url(#pf57be46acd)" style="fill: #020202"/>
    <path d="M 42.712798 80.242222 
C 60.257152 56.525418 33.394658 52.009562 42.219717 80.15933 
C 33.394658 52.009562 60.257152 56.525418 42.712798 80.242222 
" clip-path="url(#pf57be46acd)" style="fill: #020202"/>
    <path d="M 41.894471 80.627797 
L 30.105529 80.627797 
" clip-path="url(#pf57be46acd)" style="fill: #020202"/>
    <path d="M 41.900352 80.704254 
L 19.753177 84.131202 
" clip-path="url(#pf57be46acd)" style="fill: #020202"/>
    <path d="M 41.921955 80.791286 
L 15.779572 89.83651 
" clip-path="url(#pf57be46acd)" style="fill: #020202"/>
    <path d="M 41.976297 80.901896 
L 21.349926 94.421841 
" clip-path="url(#pf57be46acd)" style="fill: #020202"/>
    <path d="M 42.112672 81.040821 
L 29.887328 98.959179 
" clip-path="url(#pf57be46acd)" style="fill: #020202"/>
    <path d="M 42.394471 81.127797 
L 42.394471 98.872203 
" clip-path="url(#pf57be46acd)" style="fill: #020202"/>
    <path d="M 42.67627 81.040821 
L 52.459144 95.379316 
" clip-path="url(#pf57be46acd)" style="fill: #020202"/>
    <path d="M 29.780283 80.15933 
C 38.605342 52.009562 11.742848 56.525418 29.287202 80.242222 
C 11.742848 56.525418 38.605342 52.009562 29.780283 80.15933 
" clip-path="url(#pf57be46acd)" style="fill: #020202"/>
    <path d="M 29.133013 80.791286 
L 19.731573 84.04417 
" clip-path="url(#pf57be46acd)" style="fill: #020202; stroke: #020202; stroke-width: 0.99"/>
    <path d="M 29.187355 80.901896 
L 15.72523 89.7259 
" clip-path="url(#pf57be46acd)" style="fill: #020202"/>
    <path d="M 29.32373 81.040821 
L 20.668051 93.727216 
" clip-path="url(#pf57be46acd)" style="fill: #020202; stroke: #020202; stroke-width: 0.99"/>
    <path d="M 29.605529 81.127797 
L 29.605529 98.872203 
" clip-path="url(#pf57be46acd)" style="fill: #020202"/>
    <path d="M 29.887328 81.040821 
L 42.112672 98.959179 
" clip-path="url(#pf57be46acd)" style="fill: #020202"/>
    <path d="M 30.023703 80.901896 
L 52.322769 95.51824 
" clip-path="url(#pf57be46acd)" style="fill: #020202"/>
    <path d="M 19.194743 83.711813 
C 13.848482 54.699599 -7.793722 71.240504 18.797485 84.015434 
C -7.793722 71.240504 13.848482 54.699599 19.194743 83.711813 
" clip-path="url(#pf57be46acd)" style="fill: #020202"/>
    <path d="M 18.977258 84.620684 
L 15.588855 89.586975 
" clip-path="url(#pf57be46acd)" style="fill: #020202"/>
    <path d="M 19.259057 84.70766 
L 19.259057 93.29234 
" clip-path="url(#pf57be46acd)" style="fill: #020202; stroke: #020202; stroke-width: 0.99"/>
    <path d="M 19.540856 84.620684 
L 29.32373 98.959179 
" clip-path="url(#pf57be46acd)" style="fill: #020202"/>
    <path d="M 19.677231 84.48176 
L 41.976297 99.098104 
" clip-path="url(#pf57be46acd)" style="fill: #020202"/>
    <path d="M 19.731573 84.371149 
L 52.268427 95.628851 
" clip-path="url(#pf57be46acd)" style="fill: #020202"/>
    <path d="M 14.874044 89.75 
C -11.423139 76.380285 -11.423139 103.619715 14.874044 90.25 
C -11.423139 103.619715 -11.423139 76.380285 14.874044 89.75 
" clip-path="url(#pf57be46acd)" style="fill: #020202"/>
    <path d="M 15.588855 90.413025 
L 17.850063 93.727216 
" clip-path="url(#pf57be46acd)" style="fill: #020202"/>
    <path d="M 15.72523 90.2741 
L 29.187355 99.098104 
" clip-path="url(#pf57be46acd)" style="fill: #020202"/>
    <path d="M 15.779572 90.16349 
L 41.921955 99.208714 
" clip-path="url(#pf57be46acd)" style="fill: #020202"/>
    <path d="M 15.801176 90.076458 
L 52.246823 95.715883 
" clip-path="url(#pf57be46acd)" style="fill: #020202"/>
    <path d="M 16.951194 96.75347 
C -7.793722 108.759496 13.848482 125.300401 18.937488 98.271573 
C 13.848482 125.300401 -7.793722 108.759496 16.951194 96.75347 
" clip-path="url(#pf57be46acd)" style="fill: #020202"/>
    <path d="M 21.621636 96.609789 
L 29.133013 99.208714 
" clip-path="url(#pf57be46acd)" style="fill: #020202"/>
    <path d="M 21.729655 96.174629 
L 41.900352 99.295746 
" clip-path="url(#pf57be46acd)" style="fill: #020202"/>
    <path d="M 21.759057 95.79234 
L 52.240943 95.79234 
" clip-path="url(#pf57be46acd)" style="fill: #020202; stroke: #020202; stroke-width: 0.99"/>
    <path d="M 29.287202 99.757778 
C 11.742848 123.474582 38.605342 127.990438 29.780283 99.84067 
C 38.605342 127.990438 11.742848 123.474582 29.287202 99.757778 
" clip-path="url(#pf57be46acd)" style="fill: #020202"/>
    <path d="M 30.105529 99.372203 
L 41.894471 99.372203 
" clip-path="url(#pf57be46acd)" style="fill: #020202"/>
    <path d="M 30.099648 99.295746 
L 52.246823 95.868798 
" clip-path="url(#pf57be46acd)" style="fill: #020202"/>
    <path d="M 42.219717 99.84067 
C 33.394658 127.990438 60.257152 123.474582 42.712798 99.757778 
C 60.257152 123.474582 33.394658 127.990438 42.219717 99.84067 
" clip-path="url(#pf57be46acd)" style="fill: #020202"/>
    <path d="M 42.866987 99.208714 
L 52.268427 95.95583 
" clip-path="url(#pf57be46acd)" style="fill: #020202; stroke: #020202; stroke-width: 0.99"/>
    <path d="M 52.805257 96.288187 
C 58.151518 125.300401 79.793722 108.759496 53.202515 95.984566 
C 79.793722 108.759496 58.151518 125.300401 52.805257 96.288187 
" clip-path="url(#pf57be46acd)" style="fill: #020202"/>
   </g>
   <g id="VertexCollection_3">
    <path d="M 56.692943 90.5 
C 56.825545 90.5 56.952733 90.447317 57.046497 90.353553 
C 57.14026 90.25979 57.192943 90.132602 57.192943 90 
C 57.192943 89.867398 57.14026 89.74021 57.046497 89.646447 
C 56.952733 89.552683 56.825545 89.5 56.692943 89.5 
C 56.560342 89.5 56.433153 89.552683 56.33939 89.646447 
C 56.245627 89.74021 56.192943 89.867398 56.192943 90 
C 56.192943 90.132602 56.245627 90.25979 56.33939 90.353553 
C 56.433153 90.447317 56.560342 90.5 56.692943 90.5 
z
" clip-path="url(#pf57be46acd)" style="fill: #bebebe"/>
    <path d="M 52.740943 84.70766 
C 52.873544 84.70766 53.000733 84.654977 53.094496 84.561213 
C 53.18826 84.46745 53.240943 84.340261 53.240943 84.20766 
C 53.240943 84.075058 53.18826 83.94787 53.094496 83.854106 
C 53.000733 83.760343 52.873544 83.70766 52.740943 83.70766 
C 52.608341 83.70766 52.481153 83.760343 52.38739 83.854106 
C 52.293626 83.94787 52.240943 84.075058 52.240943 84.20766 
C 52.240943 84.340261 52.293626 84.46745 52.38739 84.561213 
C 52.481153 84.654977 52.608341 84.70766 52.740943 84.70766 
z
" clip-path="url(#pf57be46acd)" style="fill: #bebebe"/>
    <path d="M 42.394471 81.127797 
C 42.527073 81.127797 42.654261 81.075113 42.748025 80.98135 
C 42.841788 80.887586 42.894471 80.760398 42.894471 80.627797 
C 42.894471 80.495195 42.841788 80.368007 42.748025 80.274243 
C 42.654261 80.18048 42.527073 80.127797 42.394471 80.127797 
C 42.26187 80.127797 42.134681 80.18048 42.040918 80.274243 
C 41.947154 80.368007 41.894471 80.495195 41.894471 80.627797 
C 41.894471 80.760398 41.947154 80.887586 42.040918 80.98135 
C 42.134681 81.075113 42.26187 81.127797 42.394471 81.127797 
z
" clip-path="url(#pf57be46acd)" style="fill: #bebebe"/>
    <path d="M 29.605529 81.127797 
C 29.73813 81.127797 29.865319 81.075113 29.959082 80.98135 
C 30.052846 80.887586 30.105529 80.760398 30.105529 80.627797 
C 30.105529 80.495195 30.052846 80.368007 29.959082 80.274243 
C 29.865319 80.18048 29.73813 80.127797 29.605529 80.127797 
C 29.472927 80.127797 29.345739 80.18048 29.251975 80.274243 
C 29.158212 80.368007 29.105529 80.495195 29.105529 80.627797 
C 29.105529 80.760398 29.158212 80.887586 29.251975 80.98135 
C 29.345739 81.075113 29.472927 81.127797 29.605529 81.127797 
z
" clip-path="url(#pf57be46acd)" style="fill: #bebebe"/>
    <path d="M 19.259057 84.70766 
C 19.391659 84.70766 19.518847 84.654977 19.61261 84.561213 
C 19.706374 84.46745 19.759057 84.340261 19.759057 84.20766 
C 19.759057 84.075058 19.706374 83.94787 19.61261 83.854106 
C 19.518847 83.760343 19.391659 83.70766 19.259057 83.70766 
C 19.126456 83.70766 18.999267 83.760343 18.905504 83.854106 
C 18.81174 83.94787 18.759057 84.075058 18.759057 84.20766 
C 18.759057 84.340261 18.81174 84.46745 18.905504 84.561213 
C 18.999267 84.654977 19.126456 84.70766 19.259057 84.70766 
z
" clip-path="url(#pf57be46acd)" style="fill: #bebebe"/>
    <path d="M 15.307057 90.5 
C 15.439658 90.5 15.566847 90.447317 15.66061 90.353553 
C 15.754373 90.25979 15.807057 90.132602 15.807057 90 
C 15.807057 89.867398 15.754373 89.74021 15.66061 89.646447 
C 15.566847 89.552683 15.439658 89.5 15.307057 89.5 
C 15.174455 89.5 15.047267 89.552683 14.953503 89.646447 
C 14.85974 89.74021 14.807057 89.867398 14.807057 90 
C 14.807057 90.132602 14.85974 90.25979 14.953503 90.353553 
C 15.047267 90.447317 15.174455 90.5 15.307057 90.5 
z
" clip-path="url(#pf57be46acd)" style="fill: #bebebe"/>
    <path d="M 19.259057 98.29234 
C 19.922065 98.29234 20.558007 98.028925 21.026824 97.560107 
C 21.495641 97.09129 21.759057 96.455348 21.759057 95.79234 
C 21.759057 95.129333 21.495641 94.493391 21.026824 94.024573 
C 20.558007 93.555756 19.922065 93.29234 19.259057 93.29234 
C 18.596049 93.29234 17.960107 93.555756 17.49129 94.024573 
C 17.022473 94.493391 16.759057 95.129333 16.759057 95.79234 
C 16.759057 96.455348 17.022473 97.09129 17.49129 97.560107 
C 17.960107 98.028925 18.596049 98.29234 19.259057 98.29234 
z
" clip-path="url(#pf57be46acd)" style="fill: #bebebe"/>
    <path d="M 29.605529 99.872203 
C 29.73813 99.872203 29.865319 99.81952 29.959082 99.725757 
C 30.052846 99.631993 30.105529 99.504805 30.105529 99.372203 
C 30.105529 99.239602 30.052846 99.112414 29.959082 99.01865 
C 29.865319 98.924887 29.73813 98.872203 29.605529 98.872203 
C 29.472927 98.872203 29.345739 98.924887 29.251975 99.01865 
C 29.158212 99.112414 29.105529 99.239602 29.105529 99.372203 
C 29.105529 99.504805 29.158212 99.631993 29.251975 99.725757 
C 29.345739 99.81952 29.472927 99.872203 29.605529 99.872203 
z
" clip-path="url(#pf57be46acd)" style="fill: #bebebe"/>
    <path d="M 42.394471 99.872203 
C 42.527073 99.872203 42.654261 99.81952 42.748025 99.725757 
C 42.841788 99.631993 42.894471 99.504805 42.894471 99.372203 
C 42.894471 99.239602 42.841788 99.112414 42.748025 99.01865 
C 42.654261 98.924887 42.527073 98.872203 42.394471 98.872203 
C 42.26187 98.872203 42.134681 98.924887 42.040918 99.01865 
C 41.947154 99.112414 41.894471 99.239602 41.894471 99.372203 
C 41.894471 99.504805 41.947154 99.631993 42.040918 99.725757 
C 42.134681 99.81952 42.26187 99.872203 42.394471 99.872203 
z
" clip-path="url(#pf57be46acd)" style="fill: #bebebe"/>
    <path d="M 52.740943 96.29234 
C 52.873544 96.29234 53.000733 96.239657 53.094496 96.145894 
C 53.18826 96.05213 53.240943 95.924942 53.240943 95.79234 
C 53.240943 95.659739 53.18826 95.53255 53.094496 95.438787 
C 53.000733 95.345023 52.873544 95.29234 52.740943 95.29234 
C 52.608341 95.29234 52.481153 95.345023 52.38739 95.438787 
C 52.293626 95.53255 52.240943 95.659739 52.240943 95.79234 
C 52.240943 95.924942 52.293626 96.05213 52.38739 96.145894 
C 52.481153 96.239657 52.608341 96.29234 52.740943 96.29234 
z
" clip-path="url(#pf57be46acd)" style="fill: #bebebe"/>
   </g>
   <g id="matplotlib.axis_5"/>
   <g id="matplotlib.axis_6"/>
  </g>
  <g id="axes_4">
   <g id="patch_5">
    <path d="M 10.8 135.36 
L 61.2 135.36 
L 61.2 112.32 
L 10.8 112.32 
z
" style="fill: #ffffff"/>
   </g>
   <g id="EdgeCollection_4">
    <path d="M 57.125956 123.802064 
C 83.423139 137.171779 83.423139 109.932349 57.125956 123.302064 
C 83.423139 109.932349 83.423139 137.171779 57.125956 123.802064 
" clip-path="url(#p35c0d5db00)" style="fill: #020202"/>
    <path d="M 56.405236 123.143133 
L 54.179478 119.979559 
" clip-path="url(#p35c0d5db00)" style="fill: #020202; stroke: #020202; stroke-width: 0.99"/>
    <path d="M 56.270975 123.283842 
L 42.816439 114.731529 
" clip-path="url(#p35c0d5db00)" style="fill: #020202"/>
    <path d="M 56.218916 123.393012 
L 30.079557 114.622359 
" clip-path="url(#p35c0d5db00)" style="fill: #020202"/>
    <path d="M 56.198479 123.477867 
L 21.731378 118.305889 
" clip-path="url(#p35c0d5db00)" style="fill: #020202"/>
    <path d="M 56.192943 123.552064 
L 15.807057 123.552064 
" clip-path="url(#p35c0d5db00)" style="fill: #020202; stroke: #020202; stroke-width: 0.99"/>
    <path d="M 56.198479 123.626261 
L 21.731378 128.79824 
" clip-path="url(#p35c0d5db00)" style="fill: #020202"/>
    <path d="M 56.218916 123.711117 
L 31.975667 131.845559 
" clip-path="url(#p35c0d5db00)" style="fill: #020202"/>
    <path d="M 56.270975 123.820286 
L 44.504311 131.299712 
" clip-path="url(#p35c0d5db00)" style="fill: #020202"/>
    <path d="M 56.405236 123.960996 
L 53.02865 128.760294 
" clip-path="url(#p35c0d5db00)" style="fill: #020202"/>
    <path d="M 55.037229 116.946435 
C 79.637826 104.647403 57.800721 88.364671 53.033048 115.452027 
C 57.800721 88.364671 79.637826 104.647403 55.037229 116.946435 
" clip-path="url(#p35c0d5db00)" style="fill: #020202"/>
    <path d="M 50.370804 117.13964 
L 42.868499 114.622359 
" clip-path="url(#p35c0d5db00)" style="fill: #020202"/>
    <path d="M 50.268622 117.563918 
L 30.099993 114.537504 
" clip-path="url(#p35c0d5db00)" style="fill: #020202"/>
    <path d="M 50.240943 117.934903 
L 21.759057 117.934903 
" clip-path="url(#p35c0d5db00)" style="fill: #020202"/>
    <path d="M 50.268622 118.305889 
L 15.801521 123.477867 
" clip-path="url(#p35c0d5db00)" style="fill: #020202"/>
    <path d="M 50.370804 118.730166 
L 21.629196 128.373963 
" clip-path="url(#p35c0d5db00)" style="fill: #020202"/>
    <path d="M 50.631103 119.276013 
L 31.715369 131.299712 
" clip-path="url(#p35c0d5db00)" style="fill: #020202; stroke: #020202; stroke-width: 0.99"/>
    <path d="M 51.302408 119.979559 
L 43.833006 130.596166 
" clip-path="url(#p35c0d5db00)" style="fill: #020202; stroke: #020202; stroke-width: 0.99"/>
    <path d="M 52.740943 120.434903 
L 52.740943 128.669225 
" clip-path="url(#p35c0d5db00)" style="fill: #020202"/>
    <path d="M 42.710987 114.076244 
C 60.143971 90.277459 33.260604 85.887575 42.217523 113.995664 
C 33.260604 85.887575 60.143971 90.277459 42.710987 114.076244 
" clip-path="url(#p35c0d5db00)" style="fill: #020202"/>
    <path d="M 41.894471 114.463307 
L 30.105529 114.463307 
" clip-path="url(#p35c0d5db00)" style="fill: #020202"/>
    <path d="M 41.900007 114.537504 
L 21.731378 117.563918 
" clip-path="url(#p35c0d5db00)" style="fill: #020202"/>
    <path d="M 41.920443 114.622359 
L 15.781084 123.393012 
" clip-path="url(#p35c0d5db00)" style="fill: #020202"/>
    <path d="M 41.972503 114.731529 
L 21.368897 127.828116 
" clip-path="url(#p35c0d5db00)" style="fill: #020202"/>
    <path d="M 42.106764 114.872238 
L 31.044064 130.596166 
" clip-path="url(#p35c0d5db00)" style="fill: #020202"/>
    <path d="M 42.394471 114.963307 
L 42.394471 130.140822 
" clip-path="url(#p35c0d5db00)" style="fill: #020202"/>
    <path d="M 42.682178 114.872238 
L 52.453236 128.760294 
" clip-path="url(#p35c0d5db00)" style="fill: #020202; stroke: #020202; stroke-width: 0.99"/>
    <path d="M 29.782477 113.995664 
C 38.739396 85.887575 11.856029 90.277459 29.289013 114.076244 
C 11.856029 90.277459 38.739396 85.887575 29.782477 113.995664 
" clip-path="url(#p35c0d5db00)" style="fill: #020202"/>
    <path d="M 29.131501 114.622359 
L 21.629196 117.13964 
" clip-path="url(#p35c0d5db00)" style="fill: #020202"/>
    <path d="M 29.183561 114.731529 
L 15.729025 123.283842 
" clip-path="url(#p35c0d5db00)" style="fill: #020202; stroke: #020202; stroke-width: 0.99"/>
    <path d="M 29.317822 114.872238 
L 20.697592 127.12457 
" clip-path="url(#p35c0d5db00)" style="fill: #020202; stroke: #020202; stroke-width: 0.99"/>
    <path d="M 29.605529 114.963307 
L 29.605529 130.140822 
" clip-path="url(#p35c0d5db00)" style="fill: #020202"/>
    <path d="M 29.893236 114.872238 
L 40.955936 130.596166 
" clip-path="url(#p35c0d5db00)" style="fill: #020202"/>
    <path d="M 30.027497 114.731529 
L 52.318975 128.901004 
" clip-path="url(#p35c0d5db00)" style="fill: #020202"/>
    <path d="M 18.966952 115.452027 
C 14.199279 88.364671 -7.637826 104.647403 16.962771 116.946435 
C -7.637826 104.647403 14.199279 88.364671 18.966952 115.452027 
" clip-path="url(#p35c0d5db00)" style="fill: #020202"/>
    <path d="M 17.820522 119.979559 
L 15.594764 123.143133 
" clip-path="url(#p35c0d5db00)" style="fill: #020202"/>
    <path d="M 19.259057 120.434903 
L 19.259057 126.669225 
" clip-path="url(#p35c0d5db00)" style="fill: #020202; stroke: #020202; stroke-width: 0.99"/>
    <path d="M 20.697592 119.979559 
L 28.166994 130.596166 
" clip-path="url(#p35c0d5db00)" style="fill: #020202; stroke: #020202; stroke-width: 0.99"/>
    <path d="M 21.368897 119.276013 
L 40.284631 131.299712 
" clip-path="url(#p35c0d5db00)" style="fill: #020202; stroke: #020202; stroke-width: 0.99"/>
    <path d="M 21.629196 118.730166 
L 52.266915 129.010173 
" clip-path="url(#p35c0d5db00)" style="fill: #020202"/>
    <path d="M 14.874044 123.302064 
C -11.423139 109.932349 -11.423139 137.171779 14.874044 123.802064 
C -11.423139 137.171779 -11.423139 109.932349 14.874044 123.302064 
" clip-path="url(#p35c0d5db00)" style="fill: #020202"/>
    <path d="M 15.594764 123.960996 
L 17.820522 127.12457 
" clip-path="url(#p35c0d5db00)" style="fill: #020202"/>
    <path d="M 15.729025 123.820286 
L 27.495689 131.299712 
" clip-path="url(#p35c0d5db00)" style="fill: #020202"/>
    <path d="M 15.781084 123.711117 
L 40.024333 131.845559 
" clip-path="url(#p35c0d5db00)" style="fill: #020202"/>
    <path d="M 15.801521 123.626261 
L 52.246479 129.095028 
" clip-path="url(#p35c0d5db00)" style="fill: #020202"/>
    <path d="M 16.962771 130.157694 
C -7.637826 142.456726 14.199279 158.739458 18.966952 131.652102 
C 14.199279 158.739458 -7.637826 142.456726 16.962771 130.157694 
" clip-path="url(#p35c0d5db00)" style="fill: #020202"/>
    <path d="M 21.629196 129.964488 
L 27.23539 131.845559 
" clip-path="url(#p35c0d5db00)" style="fill: #020202"/>
    <path d="M 21.731378 129.540211 
L 39.92215 132.269837 
" clip-path="url(#p35c0d5db00)" style="fill: #020202"/>
    <path d="M 21.759057 129.169225 
L 52.240943 129.169225 
" clip-path="url(#p35c0d5db00)" style="fill: #020202; stroke: #020202; stroke-width: 0.99"/>
    <path d="M 28.022948 134.576136 
C 11.856029 156.82667 38.739396 161.216554 30.490269 134.979034 
C 38.739396 161.216554 11.856029 156.82667 28.022948 134.576136 
" clip-path="url(#p35c0d5db00)" style="fill: #020202"/>
    <path d="M 32.105529 132.640822 
L 39.894471 132.640822 
" clip-path="url(#p35c0d5db00)" style="fill: #020202; stroke: #020202; stroke-width: 0.99"/>
    <path d="M 32.07785 132.269837 
L 52.246479 129.243423 
" clip-path="url(#p35c0d5db00)" style="fill: #020202"/>
    <path d="M 41.509731 134.979034 
C 33.260604 161.216554 60.143971 156.82667 43.977052 134.576136 
C 60.143971 156.82667 33.260604 161.216554 41.509731 134.979034 
" clip-path="url(#p35c0d5db00)" style="fill: #020202"/>
    <path d="M 44.76461 131.845559 
L 52.266915 129.328278 
" clip-path="url(#p35c0d5db00)" style="fill: #020202"/>
    <path d="M 52.799364 129.665801 
C 57.800721 158.739458 79.637826 142.456726 53.2002 129.366919 
C 79.637826 142.456726 57.800721 158.739458 52.799364 129.665801 
" clip-path="url(#p35c0d5db00)" style="fill: #020202"/>
   </g>
   <g id="VertexCollection_4">
    <path d="M 56.692943 124.052064 
C 56.825545 124.052064 56.952733 123.999381 57.046497 123.905618 
C 57.14026 123.811854 57.192943 123.684666 57.192943 123.552064 
C 57.192943 123.419463 57.14026 123.292274 57.046497 123.198511 
C 56.952733 123.104747 56.825545 123.052064 56.692943 123.052064 
C 56.560342 123.052064 56.433153 123.104747 56.33939 123.198511 
C 56.245627 123.292274 56.192943 123.419463 56.192943 123.552064 
C 56.192943 123.684666 56.245627 123.811854 56.33939 123.905618 
C 56.433153 123.999381 56.560342 124.052064 56.692943 124.052064 
z
" clip-path="url(#p35c0d5db00)" style="fill: #bebebe"/>
    <path d="M 52.740943 120.434903 
C 53.403951 120.434903 54.039893 120.171487 54.50871 119.70267 
C 54.977527 119.233853 55.240943 118.597911 55.240943 117.934903 
C 55.240943 117.271895 54.977527 116.635954 54.50871 116.167136 
C 54.039893 115.698319 53.403951 115.434903 52.740943 115.434903 
C 52.077935 115.434903 51.441993 115.698319 50.973176 116.167136 
C 50.504359 116.635954 50.240943 117.271895 50.240943 117.934903 
C 50.240943 118.597911 50.504359 119.233853 50.973176 119.70267 
C 51.441993 120.171487 52.077935 120.434903 52.740943 120.434903 
z
" clip-path="url(#p35c0d5db00)" style="fill: #bebebe"/>
    <path d="M 42.394471 114.963307 
C 42.527073 114.963307 42.654261 114.910624 42.748025 114.81686 
C 42.841788 114.723097 42.894471 114.595908 42.894471 114.463307 
C 42.894471 114.330705 42.841788 114.203517 42.748025 114.109753 
C 42.654261 114.01599 42.527073 113.963307 42.394471 113.963307 
C 42.26187 113.963307 42.134681 114.01599 42.040918 114.109753 
C 41.947154 114.203517 41.894471 114.330705 41.894471 114.463307 
C 41.894471 114.595908 41.947154 114.723097 42.040918 114.81686 
C 42.134681 114.910624 42.26187 114.963307 42.394471 114.963307 
z
" clip-path="url(#p35c0d5db00)" style="fill: #bebebe"/>
    <path d="M 29.605529 114.963307 
C 29.73813 114.963307 29.865319 114.910624 29.959082 114.81686 
C 30.052846 114.723097 30.105529 114.595908 30.105529 114.463307 
C 30.105529 114.330705 30.052846 114.203517 29.959082 114.109753 
C 29.865319 114.01599 29.73813 113.963307 29.605529 113.963307 
C 29.472927 113.963307 29.345739 114.01599 29.251975 114.109753 
C 29.158212 114.203517 29.105529 114.330705 29.105529 114.463307 
C 29.105529 114.595908 29.158212 114.723097 29.251975 114.81686 
C 29.345739 114.910624 29.472927 114.963307 29.605529 114.963307 
z
" clip-path="url(#p35c0d5db00)" style="fill: #bebebe"/>
    <path d="M 19.259057 120.434903 
C 19.922065 120.434903 20.558007 120.171487 21.026824 119.70267 
C 21.495641 119.233853 21.759057 118.597911 21.759057 117.934903 
C 21.759057 117.271895 21.495641 116.635954 21.026824 116.167136 
C 20.558007 115.698319 19.922065 115.434903 19.259057 115.434903 
C 18.596049 115.434903 17.960107 115.698319 17.49129 116.167136 
C 17.022473 116.635954 16.759057 117.271895 16.759057 117.934903 
C 16.759057 118.597911 17.022473 119.233853 17.49129 119.70267 
C 17.960107 120.171487 18.596049 120.434903 19.259057 120.434903 
z
" clip-path="url(#p35c0d5db00)" style="fill: #bebebe"/>
    <path d="M 15.307057 124.052064 
C 15.439658 124.052064 15.566847 123.999381 15.66061 123.905618 
C 15.754373 123.811854 15.807057 123.684666 15.807057 123.552064 
C 15.807057 123.419463 15.754373 123.292274 15.66061 123.198511 
C 15.566847 123.104747 15.439658 123.052064 15.307057 123.052064 
C 15.174455 123.052064 15.047267 123.104747 14.953503 123.198511 
C 14.85974 123.292274 14.807057 123.419463 14.807057 123.552064 
C 14.807057 123.684666 14.85974 123.811854 14.953503 123.905618 
C 15.047267 123.999381 15.174455 124.052064 15.307057 124.052064 
z
" clip-path="url(#p35c0d5db00)" style="fill: #bebebe"/>
    <path d="M 19.259057 131.669225 
C 19.922065 131.669225 20.558007 131.40581 21.026824 130.936992 
C 21.495641 130.468175 21.759057 129.832233 21.759057 129.169225 
C 21.759057 128.506218 21.495641 127.870276 21.026824 127.401459 
C 20.558007 126.932641 19.922065 126.669225 19.259057 126.669225 
C 18.596049 126.669225 17.960107 126.932641 17.49129 127.401459 
C 17.022473 127.870276 16.759057 128.506218 16.759057 129.169225 
C 16.759057 129.832233 17.022473 130.468175 17.49129 130.936992 
C 17.960107 131.40581 18.596049 131.669225 19.259057 131.669225 
z
" clip-path="url(#p35c0d5db00)" style="fill: #bebebe"/>
    <path d="M 29.605529 135.140822 
C 30.268537 135.140822 30.904478 134.877406 31.373296 134.408589 
C 31.842113 133.939772 32.105529 133.30383 32.105529 132.640822 
C 32.105529 131.977814 31.842113 131.341872 31.373296 130.873055 
C 30.904478 130.404238 30.268537 130.140822 29.605529 130.140822 
C 28.942521 130.140822 28.306579 130.404238 27.837762 130.873055 
C 27.368945 131.341872 27.105529 131.977814 27.105529 132.640822 
C 27.105529 133.30383 27.368945 133.939772 27.837762 134.408589 
C 28.306579 134.877406 28.942521 135.140822 29.605529 135.140822 
z
" clip-path="url(#p35c0d5db00)" style="fill: #bebebe"/>
    <path d="M 42.394471 135.140822 
C 43.057479 135.140822 43.693421 134.877406 44.162238 134.408589 
C 44.631055 133.939772 44.894471 133.30383 44.894471 132.640822 
C 44.894471 131.977814 44.631055 131.341872 44.162238 130.873055 
C 43.693421 130.404238 43.057479 130.140822 42.394471 130.140822 
C 41.731463 130.140822 41.095522 130.404238 40.626704 130.873055 
C 40.157887 131.341872 39.894471 131.977814 39.894471 132.640822 
C 39.894471 133.30383 40.157887 133.939772 40.626704 134.408589 
C 41.095522 134.877406 41.731463 135.140822 42.394471 135.140822 
z
" clip-path="url(#p35c0d5db00)" style="fill: #bebebe"/>
    <path d="M 52.740943 129.669225 
C 52.873544 129.669225 53.000733 129.616542 53.094496 129.522779 
C 53.18826 129.429015 53.240943 129.301827 53.240943 129.169225 
C 53.240943 129.036624 53.18826 128.909436 53.094496 128.815672 
C 53.000733 128.721909 52.873544 128.669225 52.740943 128.669225 
C 52.608341 128.669225 52.481153 128.721909 52.38739 128.815672 
C 52.293626 128.909436 52.240943 129.036624 52.240943 129.169225 
C 52.240943 129.301827 52.293626 129.429015 52.38739 129.522779 
C 52.481153 129.616542 52.608341 129.669225 52.740943 129.669225 
z
" clip-path="url(#p35c0d5db00)" style="fill: #bebebe"/>
   </g>
   <g id="matplotlib.axis_7"/>
   <g id="matplotlib.axis_8"/>
  </g>
  <g id="axes_5">
   <g id="patch_6">
    <path d="M 10.8 169.2 
L 61.2 169.2 
L 61.2 146.16 
L 10.8 146.16 
z
" style="fill: #ffffff"/>
   </g>
   <g id="EdgeCollection_5">
    <path d="M 58.332445 159.217936 
C 82.897577 171.587651 82.897577 144.348221 58.332445 156.717936 
C 82.897577 144.348221 82.897577 171.587651 58.332445 159.217936 
" clip-path="url(#pade1a89656)" style="fill: #020202"/>
    <path d="M 54.741104 155.914711 
L 52.550662 152.761419 
" clip-path="url(#pade1a89656)" style="fill: #020202; stroke: #020202; stroke-width: 0.99"/>
    <path d="M 54.065332 156.614648 
L 42.470312 149.149836 
" clip-path="url(#pade1a89656)" style="fill: #020202"/>
    <path d="M 53.800331 157.163527 
L 31.789896 149.683587 
" clip-path="url(#pade1a89656)" style="fill: #020202"/>
    <path d="M 53.695763 157.592301 
L 21.67896 152.726409 
" clip-path="url(#pade1a89656)" style="fill: #020202"/>
    <path d="M 53.667382 157.967936 
L 15.805367 157.967936 
" clip-path="url(#pade1a89656)" style="fill: #020202; stroke: #020202; stroke-width: 0.99"/>
    <path d="M 53.695763 158.343571 
L 21.67896 163.209462 
" clip-path="url(#pade1a89656)" style="fill: #020202"/>
    <path d="M 53.800331 158.772345 
L 29.896256 166.895812 
" clip-path="url(#pade1a89656)" style="fill: #020202"/>
    <path d="M 54.065332 159.321224 
L 42.470312 166.786036 
" clip-path="url(#pade1a89656)" style="fill: #020202; stroke: #020202; stroke-width: 0.99"/>
    <path d="M 54.741104 160.02116 
L 52.550662 163.174452 
" clip-path="url(#pade1a89656)" style="fill: #020202"/>
    <path d="M 52.725631 152.155344 
C 79.227361 139.195814 57.470659 122.805803 52.326271 151.854493 
C 57.470659 122.805803 79.227361 139.195814 52.725631 152.155344 
" clip-path="url(#pade1a89656)" style="fill: #020202"/>
    <path d="M 51.791996 152.189893 
L 42.523313 149.04006 
" clip-path="url(#pade1a89656)" style="fill: #020202"/>
    <path d="M 51.771083 152.275648 
L 31.894464 149.254813 
" clip-path="url(#pade1a89656)" style="fill: #020202"/>
    <path d="M 51.765406 152.350775 
L 21.707342 152.350775 
" clip-path="url(#pade1a89656)" style="fill: #020202"/>
    <path d="M 51.771083 152.425901 
L 15.79969 157.892809 
" clip-path="url(#pade1a89656)" style="fill: #020202"/>
    <path d="M 51.791996 152.511656 
L 21.574392 162.780688 
" clip-path="url(#pade1a89656)" style="fill: #020202"/>
    <path d="M 51.844996 152.621432 
L 29.843255 166.786036 
" clip-path="url(#pade1a89656)" style="fill: #020202"/>
    <path d="M 51.980151 152.761419 
L 42.335158 166.646048 
" clip-path="url(#pade1a89656)" style="fill: #020202; stroke: #020202; stroke-width: 0.99"/>
    <path d="M 52.265406 152.850775 
L 52.265406 163.085097 
" clip-path="url(#pade1a89656)" style="fill: #020202"/>
    <path d="M 42.367165 148.492727 
C 59.846065 124.727644 32.971223 120.285864 41.873858 148.411195 
C 32.971223 120.285864 59.846065 124.727644 42.367165 148.492727 
" clip-path="url(#pade1a89656)" style="fill: #020202"/>
    <path d="M 41.549903 148.879178 
L 31.922846 148.879178 
" clip-path="url(#pade1a89656)" style="fill: #020202"/>
    <path d="M 41.555579 148.954305 
L 21.67896 151.97514 
" clip-path="url(#pade1a89656)" style="fill: #020202"/>
    <path d="M 41.576493 149.04006 
L 15.778777 157.807054 
" clip-path="url(#pade1a89656)" style="fill: #020202"/>
    <path d="M 41.629493 149.149836 
L 21.309391 162.231809 
" clip-path="url(#pade1a89656)" style="fill: #020202"/>
    <path d="M 41.764647 149.289823 
L 29.708101 166.646048 
" clip-path="url(#pade1a89656)" style="fill: #020202"/>
    <path d="M 42.049903 149.379178 
L 42.049903 166.556693 
" clip-path="url(#pade1a89656)" style="fill: #020202"/>
    <path d="M 42.335158 149.289823 
L 51.980151 163.174452 
" clip-path="url(#pade1a89656)" style="fill: #020202; stroke: #020202; stroke-width: 0.99"/>
    <path d="M 30.30307 146.539262 
C 38.501525 120.285864 11.626683 124.727644 27.836532 146.946923 
C 11.626683 124.727644 38.501525 120.285864 30.30307 146.539262 
" clip-path="url(#pade1a89656)" style="fill: #020202"/>
    <path d="M 27.055795 149.683587 
L 21.574392 151.546366 
" clip-path="url(#pade1a89656)" style="fill: #020202; stroke: #020202; stroke-width: 0.99"/>
    <path d="M 27.320796 150.232466 
L 15.725777 157.697278 
" clip-path="url(#pade1a89656)" style="fill: #020202; stroke: #020202; stroke-width: 0.99"/>
    <path d="M 27.996568 150.932403 
L 20.63362 161.531872 
" clip-path="url(#pade1a89656)" style="fill: #020202; stroke: #020202; stroke-width: 0.99"/>
    <path d="M 29.422846 151.379178 
L 29.422846 166.556693 
" clip-path="url(#pade1a89656)" style="fill: #020202"/>
    <path d="M 30.849123 150.932403 
L 41.764647 166.646048 
" clip-path="url(#pade1a89656)" style="fill: #020202"/>
    <path d="M 31.524895 150.232466 
L 51.844996 163.314439 
" clip-path="url(#pade1a89656)" style="fill: #020202"/>
    <path d="M 18.903021 149.869366 
C 14.002089 122.805803 -7.754613 139.195814 16.906218 151.37362 
C -7.754613 139.195814 14.002089 122.805803 18.903021 149.869366 
" clip-path="url(#pade1a89656)" style="fill: #020202"/>
    <path d="M 17.781064 154.403999 
L 15.590622 157.557291 
" clip-path="url(#pade1a89656)" style="fill: #020202"/>
    <path d="M 19.207342 154.850775 
L 19.207342 161.085097 
" clip-path="url(#pade1a89656)" style="fill: #020202; stroke: #020202; stroke-width: 0.99"/>
    <path d="M 20.63362 154.403999 
L 29.13759 166.646048 
" clip-path="url(#pade1a89656)" style="fill: #020202; stroke: #020202; stroke-width: 0.99"/>
    <path d="M 21.309391 153.704063 
L 41.629493 166.786036 
" clip-path="url(#pade1a89656)" style="fill: #020202"/>
    <path d="M 21.574392 153.155183 
L 51.791996 163.424215 
" clip-path="url(#pade1a89656)" style="fill: #020202"/>
    <path d="M 14.872354 157.717936 
C -11.424829 144.348221 -11.424829 171.587651 14.872354 158.217936 
C -11.424829 171.587651 -11.424829 144.348221 14.872354 157.717936 
" clip-path="url(#pade1a89656)" style="fill: #020202"/>
    <path d="M 15.590622 158.378581 
L 17.781064 161.531872 
" clip-path="url(#pade1a89656)" style="fill: #020202"/>
    <path d="M 15.725777 158.238593 
L 29.002436 166.786036 
" clip-path="url(#pade1a89656)" style="fill: #020202"/>
    <path d="M 15.778777 158.128817 
L 41.576493 166.895812 
" clip-path="url(#pade1a89656)" style="fill: #020202"/>
    <path d="M 15.79969 158.043063 
L 51.771083 163.50997 
" clip-path="url(#pade1a89656)" style="fill: #020202"/>
    <path d="M 16.906218 164.562251 
C -7.754613 176.740057 14.002089 193.130068 18.903021 166.066505 
C 14.002089 193.130068 -7.754613 176.740057 16.906218 164.562251 
" clip-path="url(#pade1a89656)" style="fill: #020202"/>
    <path d="M 21.574392 164.389506 
L 28.949436 166.895812 
" clip-path="url(#pade1a89656)" style="fill: #020202"/>
    <path d="M 21.67896 163.960732 
L 41.555579 166.981566 
" clip-path="url(#pade1a89656)" style="fill: #020202"/>
    <path d="M 21.707342 163.585097 
L 51.765406 163.585097 
" clip-path="url(#pade1a89656)" style="fill: #020202; stroke: #020202; stroke-width: 0.99"/>
    <path d="M 29.105583 167.443144 
C 11.626683 191.208227 38.501525 195.650007 29.598891 167.524676 
C 38.501525 195.650007 11.626683 191.208227 29.105583 167.443144 
" clip-path="url(#pade1a89656)" style="fill: #020202"/>
    <path d="M 29.922846 167.056693 
L 41.549903 167.056693 
" clip-path="url(#pade1a89656)" style="fill: #020202"/>
    <path d="M 29.917169 166.981566 
L 51.771083 163.660224 
" clip-path="url(#pade1a89656)" style="fill: #020202"/>
    <path d="M 41.873858 167.524676 
C 32.971223 195.650007 59.846065 191.208227 42.367165 167.443144 
C 59.846065 191.208227 32.971223 195.650007 41.873858 167.524676 
" clip-path="url(#pade1a89656)" style="fill: #020202"/>
    <path d="M 42.523313 166.895812 
L 51.791996 163.745979 
" clip-path="url(#pade1a89656)" style="fill: #020202"/>
    <path d="M 52.326271 164.081379 
C 57.470659 193.130068 79.227361 176.740057 52.725631 163.780528 
C 79.227361 176.740057 57.470659 193.130068 52.326271 164.081379 
" clip-path="url(#pade1a89656)" style="fill: #020202"/>
   </g>
   <g id="VertexCollection_5">
    <path d="M 56.167382 160.467936 
C 56.830389 160.467936 57.466331 160.20452 57.935148 159.735703 
C 58.403966 159.266885 58.667382 158.630943 58.667382 157.967936 
C 58.667382 157.304928 58.403966 156.668986 57.935148 156.200169 
C 57.466331 155.731351 56.830389 155.467936 56.167382 155.467936 
C 55.504374 155.467936 54.868432 155.731351 54.399615 156.200169 
C 53.930797 156.668986 53.667382 157.304928 53.667382 157.967936 
C 53.667382 158.630943 53.930797 159.266885 54.399615 159.735703 
C 54.868432 160.20452 55.504374 160.467936 56.167382 160.467936 
z
" clip-path="url(#pade1a89656)" style="fill: #bebebe"/>
    <path d="M 52.265406 152.850775 
C 52.398008 152.850775 52.525196 152.798091 52.61896 152.704328 
C 52.712723 152.610564 52.765406 152.483376 52.765406 152.350775 
C 52.765406 152.218173 52.712723 152.090985 52.61896 151.997221 
C 52.525196 151.903458 52.398008 151.850775 52.265406 151.850775 
C 52.132805 151.850775 52.005616 151.903458 51.911853 151.997221 
C 51.818089 152.090985 51.765406 152.218173 51.765406 152.350775 
C 51.765406 152.483376 51.818089 152.610564 51.911853 152.704328 
C 52.005616 152.798091 52.132805 152.850775 52.265406 152.850775 
z
" clip-path="url(#pade1a89656)" style="fill: #bebebe"/>
    <path d="M 42.049903 149.379178 
C 42.182504 149.379178 42.309693 149.326495 42.403456 149.232731 
C 42.497219 149.138968 42.549903 149.01178 42.549903 148.879178 
C 42.549903 148.746576 42.497219 148.619388 42.403456 148.525625 
C 42.309693 148.431861 42.182504 148.379178 42.049903 148.379178 
C 41.917301 148.379178 41.790113 148.431861 41.696349 148.525625 
C 41.602586 148.619388 41.549903 148.746576 41.549903 148.879178 
C 41.549903 149.01178 41.602586 149.138968 41.696349 149.232731 
C 41.790113 149.326495 41.917301 149.379178 42.049903 149.379178 
z
" clip-path="url(#pade1a89656)" style="fill: #bebebe"/>
    <path d="M 29.422846 151.379178 
C 30.085853 151.379178 30.721795 151.115762 31.190613 150.646945 
C 31.65943 150.178128 31.922846 149.542186 31.922846 148.879178 
C 31.922846 148.21617 31.65943 147.580228 31.190613 147.111411 
C 30.721795 146.642594 30.085853 146.379178 29.422846 146.379178 
C 28.759838 146.379178 28.123896 146.642594 27.655079 147.111411 
C 27.186261 147.580228 26.922846 148.21617 26.922846 148.879178 
C 26.922846 149.542186 27.186261 150.178128 27.655079 150.646945 
C 28.123896 151.115762 28.759838 151.379178 29.422846 151.379178 
z
" clip-path="url(#pade1a89656)" style="fill: #bebebe"/>
    <path d="M 19.207342 154.850775 
C 19.87035 154.850775 20.506292 154.587359 20.975109 154.118541 
C 21.443926 153.649724 21.707342 153.013782 21.707342 152.350775 
C 21.707342 151.687767 21.443926 151.051825 20.975109 150.583008 
C 20.506292 150.11419 19.87035 149.850775 19.207342 149.850775 
C 18.544334 149.850775 17.908392 150.11419 17.439575 150.583008 
C 16.970758 151.051825 16.707342 151.687767 16.707342 152.350775 
C 16.707342 153.013782 16.970758 153.649724 17.439575 154.118541 
C 17.908392 154.587359 18.544334 154.850775 19.207342 154.850775 
z
" clip-path="url(#pade1a89656)" style="fill: #bebebe"/>
    <path d="M 15.305367 158.467936 
C 15.437968 158.467936 15.565157 158.415253 15.65892 158.321489 
C 15.752684 158.227726 15.805367 158.100537 15.805367 157.967936 
C 15.805367 157.835334 15.752684 157.708146 15.65892 157.614382 
C 15.565157 157.520619 15.437968 157.467936 15.305367 157.467936 
C 15.172765 157.467936 15.045577 157.520619 14.951813 157.614382 
C 14.85805 157.708146 14.805367 157.835334 14.805367 157.967936 
C 14.805367 158.100537 14.85805 158.227726 14.951813 158.321489 
C 15.045577 158.415253 15.172765 158.467936 15.305367 158.467936 
z
" clip-path="url(#pade1a89656)" style="fill: #bebebe"/>
    <path d="M 19.207342 166.085097 
C 19.87035 166.085097 20.506292 165.821681 20.975109 165.352864 
C 21.443926 164.884046 21.707342 164.248105 21.707342 163.585097 
C 21.707342 162.922089 21.443926 162.286147 20.975109 161.81733 
C 20.506292 161.348513 19.87035 161.085097 19.207342 161.085097 
C 18.544334 161.085097 17.908392 161.348513 17.439575 161.81733 
C 16.970758 162.286147 16.707342 162.922089 16.707342 163.585097 
C 16.707342 164.248105 16.970758 164.884046 17.439575 165.352864 
C 17.908392 165.821681 18.544334 166.085097 19.207342 166.085097 
z
" clip-path="url(#pade1a89656)" style="fill: #bebebe"/>
    <path d="M 29.422846 167.556693 
C 29.555447 167.556693 29.682636 167.50401 29.776399 167.410247 
C 29.870162 167.316483 29.922846 167.189295 29.922846 167.056693 
C 29.922846 166.924092 29.870162 166.796903 29.776399 166.70314 
C 29.682636 166.609376 29.555447 166.556693 29.422846 166.556693 
C 29.290244 166.556693 29.163056 166.609376 29.069292 166.70314 
C 28.975529 166.796903 28.922846 166.924092 28.922846 167.056693 
C 28.922846 167.189295 28.975529 167.316483 29.069292 167.410247 
C 29.163056 167.50401 29.290244 167.556693 29.422846 167.556693 
z
" clip-path="url(#pade1a89656)" style="fill: #bebebe"/>
    <path d="M 42.049903 167.556693 
C 42.182504 167.556693 42.309693 167.50401 42.403456 167.410247 
C 42.497219 167.316483 42.549903 167.189295 42.549903 167.056693 
C 42.549903 166.924092 42.497219 166.796903 42.403456 166.70314 
C 42.309693 166.609376 42.182504 166.556693 42.049903 166.556693 
C 41.917301 166.556693 41.790113 166.609376 41.696349 166.70314 
C 41.602586 166.796903 41.549903 166.924092 41.549903 167.056693 
C 41.549903 167.189295 41.602586 167.316483 41.696349 167.410247 
C 41.790113 167.50401 41.917301 167.556693 42.049903 167.556693 
z
" clip-path="url(#pade1a89656)" style="fill: #bebebe"/>
    <path d="M 52.265406 164.085097 
C 52.398008 164.085097 52.525196 164.032414 52.61896 163.93865 
C 52.712723 163.844887 52.765406 163.717698 52.765406 163.585097 
C 52.765406 163.452495 52.712723 163.325307 52.61896 163.231543 
C 52.525196 163.13778 52.398008 163.085097 52.265406 163.085097 
C 52.132805 163.085097 52.005616 163.13778 51.911853 163.231543 
C 51.818089 163.325307 51.765406 163.452495 51.765406 163.585097 
C 51.765406 163.717698 51.818089 163.844887 51.911853 163.93865 
C 52.005616 164.032414 52.132805 164.085097 52.265406 164.085097 
z
" clip-path="url(#pade1a89656)" style="fill: #bebebe"/>
   </g>
   <g id="matplotlib.axis_9"/>
   <g id="matplotlib.axis_10"/>
  </g>
 </g>
 <defs>
  <clipPath id="p524987b5e4">
   <rect x="10.8" y="10.8" width="50.4" height="23.04"/>
  </clipPath>
  <clipPath id="pf9d32aa9d3">
   <rect x="10.8" y="44.64" width="50.4" height="23.04"/>
  </clipPath>
  <clipPath id="pf57be46acd">
   <rect x="10.8" y="78.48" width="50.4" height="23.04"/>
  </clipPath>
  <clipPath id="p35c0d5db00">
   <rect x="10.8" y="112.32" width="50.4" height="23.04"/>
  </clipPath>
  <clipPath id="pade1a89656">
   <rect x="10.8" y="146.16" width="50.4" height="23.04"/>
  </clipPath>
 </defs>
</svg>
