<?xml version="1.0" encoding="utf-8" standalone="no"?>
<!DOCTYPE svg PUBLIC "-//W3C//DTD SVG 1.1//EN"
  "http://www.w3.org/Graphics/SVG/1.1/DTD/svg11.dtd">
<svg xmlns:xlink="http://www.w3.org/1999/xlink" width="72pt" height="180pt" viewBox="0 0 72 180" xmlns="http://www.w3.org/2000/svg" version="1.1">
 <metadata>
  <rdf:RDF xmlns:dc="http://purl.org/dc/elements/1.1/" xmlns:cc="http://creativecommons.org/ns#" xmlns:rdf="http://www.w3.org/1999/02/22-rdf-syntax-ns#">
   <cc:Work>
    <dc:type rdf:resource="http://purl.org/dc/dcmitype/StillImage"/>
    <dc:date>2025-06-06T13:44:46.572372</dc:date>
    <dc:format>image/svg+xml</dc:format>
    <dc:creator>
     <cc:Agent>
      <dc:title>Matplotlib v3.9.2, https://matplotlib.org/</dc:title>
     </cc:Agent>
    </dc:creator>
   </cc:Work>
  </rdf:RDF>
 </metadata>
 <defs>
  <style type="text/css">*{stroke-linejoin: round; stroke-linecap: butt}</style>
 </defs>
 <g id="figure_1">
  <g id="patch_1">
   <path d="M 0 180 
L 72 180 
L 72 0 
L 0 0 
z
" style="fill: #ffffff"/>
  </g>
  <g id="axes_1">
   <g id="patch_2">
    <path d="M 10.8 33.84 
L 61.2 33.84 
L 61.2 10.8 
L 10.8 10.8 
z
" style="fill: #ffffff"/>
   </g>
   <g id="EdgeCollection_1">
    <path d="M 57.127646 22.282064 
C 83.424829 35.651779 83.424829 8.412349 57.127646 21.782064 
C 83.424829 8.412349 83.424829 35.651779 57.127646 22.282064 
" clip-path="url(#p2d438cb3a7)" style="fill: #020202"/>
    <path d="M 56.409378 21.621419 
L 53.077914 16.825548 
" clip-path="url(#p2d438cb3a7)" style="fill: #020202"/>
    <path d="M 56.274223 21.761407 
L 42.997564 13.213964 
" clip-path="url(#p2d438cb3a7)" style="fill: #020202"/>
    <path d="M 56.221223 21.871183 
L 30.423507 13.104188 
" clip-path="url(#p2d438cb3a7)" style="fill: #020202"/>
    <path d="M 56.20031 21.956937 
L 20.228917 16.49003 
" clip-path="url(#p2d438cb3a7)" style="fill: #020202"/>
    <path d="M 56.194633 22.032064 
L 18.332618 22.032064 
" clip-path="url(#p2d438cb3a7)" style="fill: #020202"/>
    <path d="M 56.20031 22.107191 
L 22.206212 27.273591 
" clip-path="url(#p2d438cb3a7)" style="fill: #020202; stroke: #020202; stroke-width: 0.99"/>
    <path d="M 56.221223 22.192946 
L 30.423507 30.95994 
" clip-path="url(#p2d438cb3a7)" style="fill: #020202"/>
    <path d="M 56.274223 22.302722 
L 44.679204 29.767534 
" clip-path="url(#p2d438cb3a7)" style="fill: #020202"/>
    <path d="M 56.409378 22.442709 
L 53.077914 27.238581 
" clip-path="url(#p2d438cb3a7)" style="fill: #020202"/>
    <path d="M 53.252883 16.219472 
C 79.754613 3.259943 57.997911 -13.130068 52.853522 15.918621 
C 57.997911 -13.130068 79.754613 3.259943 53.252883 16.219472 
" clip-path="url(#p2d438cb3a7)" style="fill: #020202"/>
    <path d="M 52.319248 16.254021 
L 43.050564 13.104188 
" clip-path="url(#p2d438cb3a7)" style="fill: #020202"/>
    <path d="M 52.298334 16.339776 
L 30.444421 13.018434 
" clip-path="url(#p2d438cb3a7)" style="fill: #020202"/>
    <path d="M 52.292658 16.414903 
L 20.234594 16.414903 
" clip-path="url(#p2d438cb3a7)" style="fill: #020202"/>
    <path d="M 52.298334 16.49003 
L 18.304237 21.656429 
" clip-path="url(#p2d438cb3a7)" style="fill: #020202"/>
    <path d="M 52.319248 16.575785 
L 22.101644 26.844817 
" clip-path="url(#p2d438cb3a7)" style="fill: #020202"/>
    <path d="M 52.372248 16.685561 
L 30.370507 30.850164 
" clip-path="url(#p2d438cb3a7)" style="fill: #020202"/>
    <path d="M 52.507403 16.825548 
L 44.003432 29.067597 
" clip-path="url(#p2d438cb3a7)" style="fill: #020202"/>
    <path d="M 52.792658 16.914903 
L 52.792658 27.149225 
" clip-path="url(#p2d438cb3a7)" style="fill: #020202"/>
    <path d="M 42.894417 12.556856 
C 60.373317 -11.208227 33.498475 -15.650007 42.401109 12.475324 
C 33.498475 -15.650007 60.373317 -11.208227 42.894417 12.556856 
" clip-path="url(#p2d438cb3a7)" style="fill: #020202"/>
    <path d="M 42.077154 12.943307 
L 30.450097 12.943307 
" clip-path="url(#p2d438cb3a7)" style="fill: #020202"/>
    <path d="M 42.082831 13.018434 
L 20.228917 16.339776 
" clip-path="url(#p2d438cb3a7)" style="fill: #020202"/>
    <path d="M 42.103744 13.104188 
L 18.199669 21.227655 
" clip-path="url(#p2d438cb3a7)" style="fill: #020202"/>
    <path d="M 42.156745 13.213964 
L 21.836643 26.295937 
" clip-path="url(#p2d438cb3a7)" style="fill: #020202"/>
    <path d="M 42.291899 13.353952 
L 30.235353 30.710177 
" clip-path="url(#p2d438cb3a7)" style="fill: #020202"/>
    <path d="M 42.577154 13.443307 
L 42.577154 28.620822 
" clip-path="url(#p2d438cb3a7)" style="fill: #020202"/>
    <path d="M 42.86241 13.353952 
L 52.507403 27.238581 
" clip-path="url(#p2d438cb3a7)" style="fill: #020202"/>
    <path d="M 30.126142 12.475324 
C 39.028777 -15.650007 12.153935 -11.208227 29.632835 12.556856 
C 12.153935 -11.208227 39.028777 -15.650007 30.126142 12.475324 
" clip-path="url(#p2d438cb3a7)" style="fill: #020202"/>
    <path d="M 29.476687 13.104188 
L 20.208004 16.254021 
" clip-path="url(#p2d438cb3a7)" style="fill: #020202"/>
    <path d="M 29.529688 13.213964 
L 17.934668 20.678776 
" clip-path="url(#p2d438cb3a7)" style="fill: #020202"/>
    <path d="M 29.664842 13.353952 
L 21.160871 25.596001 
" clip-path="url(#p2d438cb3a7)" style="fill: #020202"/>
    <path d="M 29.950097 13.443307 
L 29.950097 30.620822 
" clip-path="url(#p2d438cb3a7)" style="fill: #020202"/>
    <path d="M 30.235353 13.353952 
L 41.150877 29.067597 
" clip-path="url(#p2d438cb3a7)" style="fill: #020202; stroke: #020202; stroke-width: 0.99"/>
    <path d="M 30.370507 13.213964 
L 52.372248 27.378568 
" clip-path="url(#p2d438cb3a7)" style="fill: #020202; stroke: #020202; stroke-width: 0.99"/>
    <path d="M 19.673729 15.918621 
C 14.529341 -13.130068 -7.227361 3.259943 19.274369 16.219472 
C -7.227361 3.259943 14.529341 -13.130068 19.673729 15.918621 
" clip-path="url(#p2d438cb3a7)" style="fill: #020202"/>
    <path d="M 19.449338 16.825548 
L 17.258896 19.97884 
" clip-path="url(#p2d438cb3a7)" style="fill: #020202"/>
    <path d="M 19.734594 16.914903 
L 19.734594 25.149225 
" clip-path="url(#p2d438cb3a7)" style="fill: #020202"/>
    <path d="M 20.019849 16.825548 
L 29.664842 30.710177 
" clip-path="url(#p2d438cb3a7)" style="fill: #020202"/>
    <path d="M 20.155004 16.685561 
L 40.475105 29.767534 
" clip-path="url(#p2d438cb3a7)" style="fill: #020202"/>
    <path d="M 20.208004 16.575785 
L 52.319248 27.488344 
" clip-path="url(#p2d438cb3a7)" style="fill: #020202"/>
    <path d="M 13.667555 20.782064 
C -10.897577 8.412349 -10.897577 35.651779 13.667555 23.282064 
C -10.897577 35.651779 -10.897577 8.412349 13.667555 20.782064 
" clip-path="url(#p2d438cb3a7)" style="fill: #020202"/>
    <path d="M 17.258896 24.085289 
L 18.308316 25.596001 
" clip-path="url(#p2d438cb3a7)" style="fill: #020202; stroke: #020202; stroke-width: 0.99"/>
    <path d="M 17.934668 23.385352 
L 29.529688 30.850164 
" clip-path="url(#p2d438cb3a7)" style="fill: #020202"/>
    <path d="M 18.199669 22.836473 
L 40.210104 30.316413 
" clip-path="url(#p2d438cb3a7)" style="fill: #020202; stroke: #020202; stroke-width: 0.99"/>
    <path d="M 18.304237 22.407699 
L 52.298334 27.574099 
" clip-path="url(#p2d438cb3a7)" style="fill: #020202; stroke: #020202; stroke-width: 0.99"/>
    <path d="M 17.43347 28.62638 
C -7.227361 40.804186 14.529341 57.194197 19.430272 30.130634 
C 14.529341 57.194197 -7.227361 40.804186 17.43347 28.62638 
" clip-path="url(#p2d438cb3a7)" style="fill: #020202"/>
    <path d="M 22.101644 28.453634 
L 29.476687 30.95994 
" clip-path="url(#p2d438cb3a7)" style="fill: #020202"/>
    <path d="M 22.206212 28.02486 
L 40.105536 30.745187 
" clip-path="url(#p2d438cb3a7)" style="fill: #020202; stroke: #020202; stroke-width: 0.99"/>
    <path d="M 22.234594 27.649225 
L 52.292658 27.649225 
" clip-path="url(#p2d438cb3a7)" style="fill: #020202"/>
    <path d="M 29.632835 31.507273 
C 12.153935 55.272356 39.028777 59.714136 30.126142 31.588805 
C 39.028777 59.714136 12.153935 55.272356 29.632835 31.507273 
" clip-path="url(#p2d438cb3a7)" style="fill: #020202"/>
    <path d="M 30.450097 31.120822 
L 40.077154 31.120822 
" clip-path="url(#p2d438cb3a7)" style="fill: #020202"/>
    <path d="M 30.444421 31.045695 
L 52.298334 27.724352 
" clip-path="url(#p2d438cb3a7)" style="fill: #020202"/>
    <path d="M 41.69693 33.460738 
C 33.498475 59.714136 60.373317 55.272356 44.163468 33.053077 
C 60.373317 55.272356 33.498475 59.714136 41.69693 33.460738 
" clip-path="url(#p2d438cb3a7)" style="fill: #020202"/>
    <path d="M 44.944205 30.316413 
L 52.319248 27.810107 
" clip-path="url(#p2d438cb3a7)" style="fill: #020202"/>
    <path d="M 52.853522 28.145507 
C 57.997911 57.194197 79.754613 40.804186 53.252883 27.844656 
C 79.754613 40.804186 57.997911 57.194197 52.853522 28.145507 
" clip-path="url(#p2d438cb3a7)" style="fill: #020202"/>
   </g>
   <g id="VertexCollection_1">
    <path d="M 56.694633 22.532064 
C 56.827235 22.532064 56.954423 22.479381 57.048187 22.385618 
C 57.14195 22.291854 57.194633 22.164666 57.194633 22.032064 
C 57.194633 21.899463 57.14195 21.772274 57.048187 21.678511 
C 56.954423 21.584747 56.827235 21.532064 56.694633 21.532064 
C 56.562032 21.532064 56.434843 21.584747 56.34108 21.678511 
C 56.247316 21.772274 56.194633 21.899463 56.194633 22.032064 
C 56.194633 22.164666 56.247316 22.291854 56.34108 22.385618 
C 56.434843 22.479381 56.562032 22.532064 56.694633 22.532064 
z
" clip-path="url(#p2d438cb3a7)" style="fill: #bebebe"/>
    <path d="M 52.792658 16.914903 
C 52.92526 16.914903 53.052448 16.86222 53.146212 16.768457 
C 53.239975 16.674693 53.292658 16.547505 53.292658 16.414903 
C 53.292658 16.282302 53.239975 16.155113 53.146212 16.06135 
C 53.052448 15.967586 52.92526 15.914903 52.792658 15.914903 
C 52.660057 15.914903 52.532868 15.967586 52.439105 16.06135 
C 52.345341 16.155113 52.292658 16.282302 52.292658 16.414903 
C 52.292658 16.547505 52.345341 16.674693 52.439105 16.768457 
C 52.532868 16.86222 52.660057 16.914903 52.792658 16.914903 
z
" clip-path="url(#p2d438cb3a7)" style="fill: #bebebe"/>
    <path d="M 42.577154 13.443307 
C 42.709756 13.443307 42.836944 13.390624 42.930708 13.29686 
C 43.024471 13.203097 43.077154 13.075908 43.077154 12.943307 
C 43.077154 12.810705 43.024471 12.683517 42.930708 12.589753 
C 42.836944 12.49599 42.709756 12.443307 42.577154 12.443307 
C 42.444553 12.443307 42.317364 12.49599 42.223601 12.589753 
C 42.129838 12.683517 42.077154 12.810705 42.077154 12.943307 
C 42.077154 13.075908 42.129838 13.203097 42.223601 13.29686 
C 42.317364 13.390624 42.444553 13.443307 42.577154 13.443307 
z
" clip-path="url(#p2d438cb3a7)" style="fill: #bebebe"/>
    <path d="M 29.950097 13.443307 
C 30.082699 13.443307 30.209887 13.390624 30.303651 13.29686 
C 30.397414 13.203097 30.450097 13.075908 30.450097 12.943307 
C 30.450097 12.810705 30.397414 12.683517 30.303651 12.589753 
C 30.209887 12.49599 30.082699 12.443307 29.950097 12.443307 
C 29.817496 12.443307 29.690307 12.49599 29.596544 12.589753 
C 29.502781 12.683517 29.450097 12.810705 29.450097 12.943307 
C 29.450097 13.075908 29.502781 13.203097 29.596544 13.29686 
C 29.690307 13.390624 29.817496 13.443307 29.950097 13.443307 
z
" clip-path="url(#p2d438cb3a7)" style="fill: #bebebe"/>
    <path d="M 19.734594 16.914903 
C 19.867195 16.914903 19.994384 16.86222 20.088147 16.768457 
C 20.181911 16.674693 20.234594 16.547505 20.234594 16.414903 
C 20.234594 16.282302 20.181911 16.155113 20.088147 16.06135 
C 19.994384 15.967586 19.867195 15.914903 19.734594 15.914903 
C 19.601992 15.914903 19.474804 15.967586 19.38104 16.06135 
C 19.287277 16.155113 19.234594 16.282302 19.234594 16.414903 
C 19.234594 16.547505 19.287277 16.674693 19.38104 16.768457 
C 19.474804 16.86222 19.601992 16.914903 19.734594 16.914903 
z
" clip-path="url(#p2d438cb3a7)" style="fill: #bebebe"/>
    <path d="M 15.832618 24.532064 
C 16.495626 24.532064 17.131568 24.268649 17.600385 23.799831 
C 18.069203 23.331014 18.332618 22.695072 18.332618 22.032064 
C 18.332618 21.369057 18.069203 20.733115 17.600385 20.264297 
C 17.131568 19.79548 16.495626 19.532064 15.832618 19.532064 
C 15.169611 19.532064 14.533669 19.79548 14.064852 20.264297 
C 13.596034 20.733115 13.332618 21.369057 13.332618 22.032064 
C 13.332618 22.695072 13.596034 23.331014 14.064852 23.799831 
C 14.533669 24.268649 15.169611 24.532064 15.832618 24.532064 
z
" clip-path="url(#p2d438cb3a7)" style="fill: #bebebe"/>
    <path d="M 19.734594 30.149225 
C 20.397601 30.149225 21.033543 29.88581 21.502361 29.416992 
C 21.971178 28.948175 22.234594 28.312233 22.234594 27.649225 
C 22.234594 26.986218 21.971178 26.350276 21.502361 25.881459 
C 21.033543 25.412641 20.397601 25.149225 19.734594 25.149225 
C 19.071586 25.149225 18.435644 25.412641 17.966827 25.881459 
C 17.498009 26.350276 17.234594 26.986218 17.234594 27.649225 
C 17.234594 28.312233 17.498009 28.948175 17.966827 29.416992 
C 18.435644 29.88581 19.071586 30.149225 19.734594 30.149225 
z
" clip-path="url(#p2d438cb3a7)" style="fill: #bebebe"/>
    <path d="M 29.950097 31.620822 
C 30.082699 31.620822 30.209887 31.568139 30.303651 31.474375 
C 30.397414 31.380612 30.450097 31.253424 30.450097 31.120822 
C 30.450097 30.98822 30.397414 30.861032 30.303651 30.767269 
C 30.209887 30.673505 30.082699 30.620822 29.950097 30.620822 
C 29.817496 30.620822 29.690307 30.673505 29.596544 30.767269 
C 29.502781 30.861032 29.450097 30.98822 29.450097 31.120822 
C 29.450097 31.253424 29.502781 31.380612 29.596544 31.474375 
C 29.690307 31.568139 29.817496 31.620822 29.950097 31.620822 
z
" clip-path="url(#p2d438cb3a7)" style="fill: #bebebe"/>
    <path d="M 42.577154 33.620822 
C 43.240162 33.620822 43.876104 33.357406 44.344921 32.888589 
C 44.813739 32.419772 45.077154 31.78383 45.077154 31.120822 
C 45.077154 30.457814 44.813739 29.821872 44.344921 29.353055 
C 43.876104 28.884238 43.240162 28.620822 42.577154 28.620822 
C 41.914147 28.620822 41.278205 28.884238 40.809387 29.353055 
C 40.34057 29.821872 40.077154 30.457814 40.077154 31.120822 
C 40.077154 31.78383 40.34057 32.419772 40.809387 32.888589 
C 41.278205 33.357406 41.914147 33.620822 42.577154 33.620822 
z
" clip-path="url(#p2d438cb3a7)" style="fill: #bebebe"/>
    <path d="M 52.792658 28.149225 
C 52.92526 28.149225 53.052448 28.096542 53.146212 28.002779 
C 53.239975 27.909015 53.292658 27.781827 53.292658 27.649225 
C 53.292658 27.516624 53.239975 27.389436 53.146212 27.295672 
C 53.052448 27.201909 52.92526 27.149225 52.792658 27.149225 
C 52.660057 27.149225 52.532868 27.201909 52.439105 27.295672 
C 52.345341 27.389436 52.292658 27.516624 52.292658 27.649225 
C 52.292658 27.781827 52.345341 27.909015 52.439105 28.002779 
C 52.532868 28.096542 52.660057 28.149225 52.792658 28.149225 
z
" clip-path="url(#p2d438cb3a7)" style="fill: #bebebe"/>
   </g>
   <g id="matplotlib.axis_1"/>
   <g id="matplotlib.axis_2"/>
  </g>
  <g id="axes_2">
   <g id="patch_3">
    <path d="M 10.8 67.68 
L 61.2 67.68 
L 61.2 44.64 
L 10.8 44.64 
z
" style="fill: #ffffff"/>
   </g>
   <g id="EdgeCollection_2">
    <path d="M 57.127646 56.122064 
C 83.424829 69.491779 83.424829 42.252349 57.127646 55.622064 
C 83.424829 42.252349 83.424829 69.491779 57.127646 56.122064 
" clip-path="url(#p80c42b050a)" style="fill: #020202"/>
    <path d="M 56.409378 55.461419 
L 53.077914 50.665548 
" clip-path="url(#p80c42b050a)" style="fill: #020202"/>
    <path d="M 56.274223 55.601407 
L 42.997564 47.053964 
" clip-path="url(#p80c42b050a)" style="fill: #020202"/>
    <path d="M 56.221223 55.711183 
L 30.423507 46.944188 
" clip-path="url(#p80c42b050a)" style="fill: #020202"/>
    <path d="M 56.20031 55.796937 
L 20.228917 50.33003 
" clip-path="url(#p80c42b050a)" style="fill: #020202"/>
    <path d="M 56.194633 55.872064 
L 18.332618 55.872064 
" clip-path="url(#p80c42b050a)" style="fill: #020202"/>
    <path d="M 56.20031 55.947191 
L 22.206212 61.113591 
" clip-path="url(#p80c42b050a)" style="fill: #020202; stroke: #020202; stroke-width: 0.99"/>
    <path d="M 56.221223 56.032946 
L 32.317147 64.156413 
" clip-path="url(#p80c42b050a)" style="fill: #020202"/>
    <path d="M 56.274223 56.142722 
L 42.997564 64.690164 
" clip-path="url(#p80c42b050a)" style="fill: #020202"/>
    <path d="M 56.409378 56.282709 
L 53.077914 61.078581 
" clip-path="url(#p80c42b050a)" style="fill: #020202"/>
    <path d="M 53.252883 50.059472 
C 79.754613 37.099943 57.997911 20.709932 52.853522 49.758621 
C 57.997911 20.709932 79.754613 37.099943 53.252883 50.059472 
" clip-path="url(#p80c42b050a)" style="fill: #020202"/>
    <path d="M 52.319248 50.094021 
L 43.050564 46.944188 
" clip-path="url(#p80c42b050a)" style="fill: #020202"/>
    <path d="M 52.298334 50.179776 
L 30.444421 46.858434 
" clip-path="url(#p80c42b050a)" style="fill: #020202"/>
    <path d="M 52.292658 50.254903 
L 20.234594 50.254903 
" clip-path="url(#p80c42b050a)" style="fill: #020202"/>
    <path d="M 52.298334 50.33003 
L 18.304237 55.496429 
" clip-path="url(#p80c42b050a)" style="fill: #020202"/>
    <path d="M 52.319248 50.415785 
L 22.101644 60.684817 
" clip-path="url(#p80c42b050a)" style="fill: #020202"/>
    <path d="M 52.372248 50.525561 
L 32.052147 63.607534 
" clip-path="url(#p80c42b050a)" style="fill: #020202"/>
    <path d="M 52.507403 50.665548 
L 42.86241 64.550177 
" clip-path="url(#p80c42b050a)" style="fill: #020202"/>
    <path d="M 52.792658 50.754903 
L 52.792658 60.989225 
" clip-path="url(#p80c42b050a)" style="fill: #020202; stroke: #020202; stroke-width: 0.99"/>
    <path d="M 42.894417 46.396856 
C 60.373317 22.631773 33.498475 18.189993 42.401109 46.315324 
C 33.498475 18.189993 60.373317 22.631773 42.894417 46.396856 
" clip-path="url(#p80c42b050a)" style="fill: #020202"/>
    <path d="M 42.077154 46.783307 
L 30.450097 46.783307 
" clip-path="url(#p80c42b050a)" style="fill: #020202"/>
    <path d="M 42.082831 46.858434 
L 20.228917 50.179776 
" clip-path="url(#p80c42b050a)" style="fill: #020202"/>
    <path d="M 42.103744 46.944188 
L 18.199669 55.067655 
" clip-path="url(#p80c42b050a)" style="fill: #020202"/>
    <path d="M 42.156745 47.053964 
L 21.836643 60.135937 
" clip-path="url(#p80c42b050a)" style="fill: #020202"/>
    <path d="M 42.291899 47.193952 
L 31.376375 62.907597 
" clip-path="url(#p80c42b050a)" style="fill: #020202"/>
    <path d="M 42.577154 47.283307 
L 42.577154 64.460822 
" clip-path="url(#p80c42b050a)" style="fill: #020202"/>
    <path d="M 42.86241 47.193952 
L 52.507403 61.078581 
" clip-path="url(#p80c42b050a)" style="fill: #020202"/>
    <path d="M 30.126142 46.315324 
C 39.028777 18.189993 12.153935 22.631773 29.632835 46.396856 
C 12.153935 22.631773 39.028777 18.189993 30.126142 46.315324 
" clip-path="url(#p80c42b050a)" style="fill: #020202"/>
    <path d="M 29.476687 46.944188 
L 20.208004 50.094021 
" clip-path="url(#p80c42b050a)" style="fill: #020202"/>
    <path d="M 29.529688 47.053964 
L 17.934668 54.518776 
" clip-path="url(#p80c42b050a)" style="fill: #020202"/>
    <path d="M 29.664842 47.193952 
L 21.160871 59.436001 
" clip-path="url(#p80c42b050a)" style="fill: #020202"/>
    <path d="M 29.950097 47.283307 
L 29.950097 62.460822 
" clip-path="url(#p80c42b050a)" style="fill: #020202"/>
    <path d="M 30.235353 47.193952 
L 42.291899 64.550177 
" clip-path="url(#p80c42b050a)" style="fill: #020202; stroke: #020202; stroke-width: 0.99"/>
    <path d="M 30.370507 47.053964 
L 52.372248 61.218568 
" clip-path="url(#p80c42b050a)" style="fill: #020202"/>
    <path d="M 19.673729 49.758621 
C 14.529341 20.709932 -7.227361 37.099943 19.274369 50.059472 
C -7.227361 37.099943 14.529341 20.709932 19.673729 49.758621 
" clip-path="url(#p80c42b050a)" style="fill: #020202"/>
    <path d="M 19.449338 50.665548 
L 17.258896 53.81884 
" clip-path="url(#p80c42b050a)" style="fill: #020202"/>
    <path d="M 19.734594 50.754903 
L 19.734594 58.989225 
" clip-path="url(#p80c42b050a)" style="fill: #020202"/>
    <path d="M 20.019849 50.665548 
L 28.52382 62.907597 
" clip-path="url(#p80c42b050a)" style="fill: #020202"/>
    <path d="M 20.155004 50.525561 
L 42.156745 64.690164 
" clip-path="url(#p80c42b050a)" style="fill: #020202"/>
    <path d="M 20.208004 50.415785 
L 52.319248 61.328344 
" clip-path="url(#p80c42b050a)" style="fill: #020202"/>
    <path d="M 13.667555 54.622064 
C -10.897577 42.252349 -10.897577 69.491779 13.667555 57.122064 
C -10.897577 69.491779 -10.897577 42.252349 13.667555 54.622064 
" clip-path="url(#p80c42b050a)" style="fill: #020202"/>
    <path d="M 17.258896 57.925289 
L 18.308316 59.436001 
" clip-path="url(#p80c42b050a)" style="fill: #020202; stroke: #020202; stroke-width: 0.99"/>
    <path d="M 17.934668 57.225352 
L 27.848048 63.607534 
" clip-path="url(#p80c42b050a)" style="fill: #020202; stroke: #020202; stroke-width: 0.99"/>
    <path d="M 18.199669 56.676473 
L 42.103744 64.79994 
" clip-path="url(#p80c42b050a)" style="fill: #020202"/>
    <path d="M 18.304237 56.247699 
L 52.298334 61.414099 
" clip-path="url(#p80c42b050a)" style="fill: #020202; stroke: #020202; stroke-width: 0.99"/>
    <path d="M 17.43347 62.46638 
C -7.227361 74.644186 14.529341 91.034197 19.430272 63.970634 
C 14.529341 91.034197 -7.227361 74.644186 17.43347 62.46638 
" clip-path="url(#p80c42b050a)" style="fill: #020202"/>
    <path d="M 22.101644 62.293634 
L 27.583047 64.156413 
" clip-path="url(#p80c42b050a)" style="fill: #020202; stroke: #020202; stroke-width: 0.99"/>
    <path d="M 22.206212 61.86486 
L 42.082831 64.885695 
" clip-path="url(#p80c42b050a)" style="fill: #020202"/>
    <path d="M 22.234594 61.489225 
L 52.292658 61.489225 
" clip-path="url(#p80c42b050a)" style="fill: #020202"/>
    <path d="M 28.363783 66.893077 
C 12.153935 89.112356 39.028777 93.554136 30.830322 67.300738 
C 39.028777 93.554136 12.153935 89.112356 28.363783 66.893077 
" clip-path="url(#p80c42b050a)" style="fill: #020202"/>
    <path d="M 32.450097 64.960822 
L 42.077154 64.960822 
" clip-path="url(#p80c42b050a)" style="fill: #020202; stroke: #020202; stroke-width: 0.99"/>
    <path d="M 32.421716 64.585187 
L 52.298334 61.564352 
" clip-path="url(#p80c42b050a)" style="fill: #020202"/>
    <path d="M 42.401109 65.428805 
C 33.498475 93.554136 60.373317 89.112356 42.894417 65.347273 
C 60.373317 89.112356 33.498475 93.554136 42.401109 65.428805 
" clip-path="url(#p80c42b050a)" style="fill: #020202"/>
    <path d="M 43.050564 64.79994 
L 52.319248 61.650107 
" clip-path="url(#p80c42b050a)" style="fill: #020202"/>
    <path d="M 52.853522 61.985507 
C 57.997911 91.034197 79.754613 74.644186 53.252883 61.684656 
C 79.754613 74.644186 57.997911 91.034197 52.853522 61.985507 
" clip-path="url(#p80c42b050a)" style="fill: #020202"/>
   </g>
   <g id="VertexCollection_2">
    <path d="M 56.694633 56.372064 
C 56.827235 56.372064 56.954423 56.319381 57.048187 56.225618 
C 57.14195 56.131854 57.194633 56.004666 57.194633 55.872064 
C 57.194633 55.739463 57.14195 55.612274 57.048187 55.518511 
C 56.954423 55.424747 56.827235 55.372064 56.694633 55.372064 
C 56.562032 55.372064 56.434843 55.424747 56.34108 55.518511 
C 56.247316 55.612274 56.194633 55.739463 56.194633 55.872064 
C 56.194633 56.004666 56.247316 56.131854 56.34108 56.225618 
C 56.434843 56.319381 56.562032 56.372064 56.694633 56.372064 
z
" clip-path="url(#p80c42b050a)" style="fill: #bebebe"/>
    <path d="M 52.792658 50.754903 
C 52.92526 50.754903 53.052448 50.70222 53.146212 50.608457 
C 53.239975 50.514693 53.292658 50.387505 53.292658 50.254903 
C 53.292658 50.122302 53.239975 49.995113 53.146212 49.90135 
C 53.052448 49.807586 52.92526 49.754903 52.792658 49.754903 
C 52.660057 49.754903 52.532868 49.807586 52.439105 49.90135 
C 52.345341 49.995113 52.292658 50.122302 52.292658 50.254903 
C 52.292658 50.387505 52.345341 50.514693 52.439105 50.608457 
C 52.532868 50.70222 52.660057 50.754903 52.792658 50.754903 
z
" clip-path="url(#p80c42b050a)" style="fill: #bebebe"/>
    <path d="M 42.577154 47.283307 
C 42.709756 47.283307 42.836944 47.230624 42.930708 47.13686 
C 43.024471 47.043097 43.077154 46.915908 43.077154 46.783307 
C 43.077154 46.650705 43.024471 46.523517 42.930708 46.429753 
C 42.836944 46.33599 42.709756 46.283307 42.577154 46.283307 
C 42.444553 46.283307 42.317364 46.33599 42.223601 46.429753 
C 42.129838 46.523517 42.077154 46.650705 42.077154 46.783307 
C 42.077154 46.915908 42.129838 47.043097 42.223601 47.13686 
C 42.317364 47.230624 42.444553 47.283307 42.577154 47.283307 
z
" clip-path="url(#p80c42b050a)" style="fill: #bebebe"/>
    <path d="M 29.950097 47.283307 
C 30.082699 47.283307 30.209887 47.230624 30.303651 47.13686 
C 30.397414 47.043097 30.450097 46.915908 30.450097 46.783307 
C 30.450097 46.650705 30.397414 46.523517 30.303651 46.429753 
C 30.209887 46.33599 30.082699 46.283307 29.950097 46.283307 
C 29.817496 46.283307 29.690307 46.33599 29.596544 46.429753 
C 29.502781 46.523517 29.450097 46.650705 29.450097 46.783307 
C 29.450097 46.915908 29.502781 47.043097 29.596544 47.13686 
C 29.690307 47.230624 29.817496 47.283307 29.950097 47.283307 
z
" clip-path="url(#p80c42b050a)" style="fill: #bebebe"/>
    <path d="M 19.734594 50.754903 
C 19.867195 50.754903 19.994384 50.70222 20.088147 50.608457 
C 20.181911 50.514693 20.234594 50.387505 20.234594 50.254903 
C 20.234594 50.122302 20.181911 49.995113 20.088147 49.90135 
C 19.994384 49.807586 19.867195 49.754903 19.734594 49.754903 
C 19.601992 49.754903 19.474804 49.807586 19.38104 49.90135 
C 19.287277 49.995113 19.234594 50.122302 19.234594 50.254903 
C 19.234594 50.387505 19.287277 50.514693 19.38104 50.608457 
C 19.474804 50.70222 19.601992 50.754903 19.734594 50.754903 
z
" clip-path="url(#p80c42b050a)" style="fill: #bebebe"/>
    <path d="M 15.832618 58.372064 
C 16.495626 58.372064 17.131568 58.108649 17.600385 57.639831 
C 18.069203 57.171014 18.332618 56.535072 18.332618 55.872064 
C 18.332618 55.209057 18.069203 54.573115 17.600385 54.104297 
C 17.131568 53.63548 16.495626 53.372064 15.832618 53.372064 
C 15.169611 53.372064 14.533669 53.63548 14.064852 54.104297 
C 13.596034 54.573115 13.332618 55.209057 13.332618 55.872064 
C 13.332618 56.535072 13.596034 57.171014 14.064852 57.639831 
C 14.533669 58.108649 15.169611 58.372064 15.832618 58.372064 
z
" clip-path="url(#p80c42b050a)" style="fill: #bebebe"/>
    <path d="M 19.734594 63.989225 
C 20.397601 63.989225 21.033543 63.72581 21.502361 63.256992 
C 21.971178 62.788175 22.234594 62.152233 22.234594 61.489225 
C 22.234594 60.826218 21.971178 60.190276 21.502361 59.721459 
C 21.033543 59.252641 20.397601 58.989225 19.734594 58.989225 
C 19.071586 58.989225 18.435644 59.252641 17.966827 59.721459 
C 17.498009 60.190276 17.234594 60.826218 17.234594 61.489225 
C 17.234594 62.152233 17.498009 62.788175 17.966827 63.256992 
C 18.435644 63.72581 19.071586 63.989225 19.734594 63.989225 
z
" clip-path="url(#p80c42b050a)" style="fill: #bebebe"/>
    <path d="M 29.950097 67.460822 
C 30.613105 67.460822 31.249047 67.197406 31.717864 66.728589 
C 32.186682 66.259772 32.450097 65.62383 32.450097 64.960822 
C 32.450097 64.297814 32.186682 63.661872 31.717864 63.193055 
C 31.249047 62.724238 30.613105 62.460822 29.950097 62.460822 
C 29.28709 62.460822 28.651148 62.724238 28.18233 63.193055 
C 27.713513 63.661872 27.450097 64.297814 27.450097 64.960822 
C 27.450097 65.62383 27.713513 66.259772 28.18233 66.728589 
C 28.651148 67.197406 29.28709 67.460822 29.950097 67.460822 
z
" clip-path="url(#p80c42b050a)" style="fill: #bebebe"/>
    <path d="M 42.577154 65.460822 
C 42.709756 65.460822 42.836944 65.408139 42.930708 65.314375 
C 43.024471 65.220612 43.077154 65.093424 43.077154 64.960822 
C 43.077154 64.82822 43.024471 64.701032 42.930708 64.607269 
C 42.836944 64.513505 42.709756 64.460822 42.577154 64.460822 
C 42.444553 64.460822 42.317364 64.513505 42.223601 64.607269 
C 42.129838 64.701032 42.077154 64.82822 42.077154 64.960822 
C 42.077154 65.093424 42.129838 65.220612 42.223601 65.314375 
C 42.317364 65.408139 42.444553 65.460822 42.577154 65.460822 
z
" clip-path="url(#p80c42b050a)" style="fill: #bebebe"/>
    <path d="M 52.792658 61.989225 
C 52.92526 61.989225 53.052448 61.936542 53.146212 61.842779 
C 53.239975 61.749015 53.292658 61.621827 53.292658 61.489225 
C 53.292658 61.356624 53.239975 61.229436 53.146212 61.135672 
C 53.052448 61.041909 52.92526 60.989225 52.792658 60.989225 
C 52.660057 60.989225 52.532868 61.041909 52.439105 61.135672 
C 52.345341 61.229436 52.292658 61.356624 52.292658 61.489225 
C 52.292658 61.621827 52.345341 61.749015 52.439105 61.842779 
C 52.532868 61.936542 52.660057 61.989225 52.792658 61.989225 
z
" clip-path="url(#p80c42b050a)" style="fill: #bebebe"/>
   </g>
   <g id="matplotlib.axis_3"/>
   <g id="matplotlib.axis_4"/>
  </g>
  <g id="axes_3">
   <g id="patch_4">
    <path d="M 10.8 101.52 
L 61.2 101.52 
L 61.2 78.48 
L 10.8 78.48 
z
" style="fill: #ffffff"/>
   </g>
   <g id="EdgeCollection_3">
    <path d="M 57.127646 89.962064 
C 83.424829 103.331779 83.424829 76.092349 57.127646 89.462064 
C 83.424829 76.092349 83.424829 103.331779 57.127646 89.962064 
" clip-path="url(#p6faf38d4a4)" style="fill: #020202"/>
    <path d="M 56.409378 89.301419 
L 53.077914 84.505548 
" clip-path="url(#p6faf38d4a4)" style="fill: #020202"/>
    <path d="M 56.274223 89.441407 
L 42.997564 80.893964 
" clip-path="url(#p6faf38d4a4)" style="fill: #020202"/>
    <path d="M 56.221223 89.551183 
L 30.423507 80.784188 
" clip-path="url(#p6faf38d4a4)" style="fill: #020202"/>
    <path d="M 56.20031 89.636937 
L 20.228917 84.17003 
" clip-path="url(#p6faf38d4a4)" style="fill: #020202"/>
    <path d="M 56.194633 89.712064 
L 18.332618 89.712064 
" clip-path="url(#p6faf38d4a4)" style="fill: #020202"/>
    <path d="M 56.20031 89.787191 
L 20.228917 95.254099 
" clip-path="url(#p6faf38d4a4)" style="fill: #020202"/>
    <path d="M 56.221223 89.872946 
L 32.317147 97.996413 
" clip-path="url(#p6faf38d4a4)" style="fill: #020202"/>
    <path d="M 56.274223 89.982722 
L 42.997564 98.530164 
" clip-path="url(#p6faf38d4a4)" style="fill: #020202; stroke: #020202; stroke-width: 0.99"/>
    <path d="M 56.409378 90.122709 
L 53.077914 94.918581 
" clip-path="url(#p6faf38d4a4)" style="fill: #020202"/>
    <path d="M 53.252883 83.899472 
C 79.754613 70.939943 57.997911 54.549932 52.853522 83.598621 
C 57.997911 54.549932 79.754613 70.939943 53.252883 83.899472 
" clip-path="url(#p6faf38d4a4)" style="fill: #020202"/>
    <path d="M 52.319248 83.934021 
L 43.050564 80.784188 
" clip-path="url(#p6faf38d4a4)" style="fill: #020202"/>
    <path d="M 52.298334 84.019776 
L 30.444421 80.698434 
" clip-path="url(#p6faf38d4a4)" style="fill: #020202"/>
    <path d="M 52.292658 84.094903 
L 20.234594 84.094903 
" clip-path="url(#p6faf38d4a4)" style="fill: #020202"/>
    <path d="M 52.298334 84.17003 
L 18.304237 89.336429 
" clip-path="url(#p6faf38d4a4)" style="fill: #020202"/>
    <path d="M 52.319248 84.255785 
L 20.208004 95.168344 
" clip-path="url(#p6faf38d4a4)" style="fill: #020202"/>
    <path d="M 52.372248 84.365561 
L 32.052147 97.447534 
" clip-path="url(#p6faf38d4a4)" style="fill: #020202"/>
    <path d="M 52.507403 84.505548 
L 42.86241 98.390177 
" clip-path="url(#p6faf38d4a4)" style="fill: #020202"/>
    <path d="M 52.792658 84.594903 
L 52.792658 94.829225 
" clip-path="url(#p6faf38d4a4)" style="fill: #020202"/>
    <path d="M 42.894417 80.236856 
C 60.373317 56.471773 33.498475 52.029993 42.401109 80.155324 
C 33.498475 52.029993 60.373317 56.471773 42.894417 80.236856 
" clip-path="url(#p6faf38d4a4)" style="fill: #020202"/>
    <path d="M 42.077154 80.623307 
L 30.450097 80.623307 
" clip-path="url(#p6faf38d4a4)" style="fill: #020202"/>
    <path d="M 42.082831 80.698434 
L 20.228917 84.019776 
" clip-path="url(#p6faf38d4a4)" style="fill: #020202"/>
    <path d="M 42.103744 80.784188 
L 18.199669 88.907655 
" clip-path="url(#p6faf38d4a4)" style="fill: #020202"/>
    <path d="M 42.156745 80.893964 
L 20.155004 95.058568 
" clip-path="url(#p6faf38d4a4)" style="fill: #020202"/>
    <path d="M 42.291899 81.033952 
L 31.376375 96.747597 
" clip-path="url(#p6faf38d4a4)" style="fill: #020202"/>
    <path d="M 42.577154 81.123307 
L 42.577154 98.300822 
" clip-path="url(#p6faf38d4a4)" style="fill: #020202"/>
    <path d="M 42.86241 81.033952 
L 52.507403 94.918581 
" clip-path="url(#p6faf38d4a4)" style="fill: #020202"/>
    <path d="M 30.126142 80.155324 
C 39.028777 52.029993 12.153935 56.471773 29.632835 80.236856 
C 12.153935 56.471773 39.028777 52.029993 30.126142 80.155324 
" clip-path="url(#p6faf38d4a4)" style="fill: #020202"/>
    <path d="M 29.476687 80.784188 
L 20.208004 83.934021 
" clip-path="url(#p6faf38d4a4)" style="fill: #020202"/>
    <path d="M 29.529688 80.893964 
L 17.934668 88.358776 
" clip-path="url(#p6faf38d4a4)" style="fill: #020202"/>
    <path d="M 29.664842 81.033952 
L 20.019849 94.918581 
" clip-path="url(#p6faf38d4a4)" style="fill: #020202; stroke: #020202; stroke-width: 0.99"/>
    <path d="M 29.950097 81.123307 
L 29.950097 96.300822 
" clip-path="url(#p6faf38d4a4)" style="fill: #020202; stroke: #020202; stroke-width: 0.99"/>
    <path d="M 30.235353 81.033952 
L 42.291899 98.390177 
" clip-path="url(#p6faf38d4a4)" style="fill: #020202"/>
    <path d="M 30.370507 80.893964 
L 52.372248 95.058568 
" clip-path="url(#p6faf38d4a4)" style="fill: #020202"/>
    <path d="M 19.673729 83.598621 
C 14.529341 54.549932 -7.227361 70.939943 19.274369 83.899472 
C -7.227361 70.939943 14.529341 54.549932 19.673729 83.598621 
" clip-path="url(#p6faf38d4a4)" style="fill: #020202"/>
    <path d="M 19.449338 84.505548 
L 17.258896 87.65884 
" clip-path="url(#p6faf38d4a4)" style="fill: #020202"/>
    <path d="M 19.734594 84.594903 
L 19.734594 94.829225 
" clip-path="url(#p6faf38d4a4)" style="fill: #020202"/>
    <path d="M 20.019849 84.505548 
L 28.52382 96.747597 
" clip-path="url(#p6faf38d4a4)" style="fill: #020202"/>
    <path d="M 20.155004 84.365561 
L 42.156745 98.530164 
" clip-path="url(#p6faf38d4a4)" style="fill: #020202"/>
    <path d="M 20.208004 84.255785 
L 52.319248 95.168344 
" clip-path="url(#p6faf38d4a4)" style="fill: #020202"/>
    <path d="M 13.667555 88.462064 
C -10.897577 76.092349 -10.897577 103.331779 13.667555 90.962064 
C -10.897577 103.331779 -10.897577 76.092349 13.667555 88.462064 
" clip-path="url(#p6faf38d4a4)" style="fill: #020202"/>
    <path d="M 17.258896 91.765289 
L 19.449338 94.918581 
" clip-path="url(#p6faf38d4a4)" style="fill: #020202; stroke: #020202; stroke-width: 0.99"/>
    <path d="M 17.934668 91.065352 
L 27.848048 97.447534 
" clip-path="url(#p6faf38d4a4)" style="fill: #020202; stroke: #020202; stroke-width: 0.99"/>
    <path d="M 18.199669 90.516473 
L 42.103744 98.63994 
" clip-path="url(#p6faf38d4a4)" style="fill: #020202"/>
    <path d="M 18.304237 90.087699 
L 52.298334 95.254099 
" clip-path="url(#p6faf38d4a4)" style="fill: #020202; stroke: #020202; stroke-width: 0.99"/>
    <path d="M 19.274369 95.524656 
C -7.227361 108.484186 14.529341 124.874197 19.673729 95.825507 
C 14.529341 124.874197 -7.227361 108.484186 19.274369 95.524656 
" clip-path="url(#p6faf38d4a4)" style="fill: #020202"/>
    <path d="M 20.208004 95.490107 
L 27.583047 97.996413 
" clip-path="url(#p6faf38d4a4)" style="fill: #020202"/>
    <path d="M 20.228917 95.404352 
L 42.082831 98.725695 
" clip-path="url(#p6faf38d4a4)" style="fill: #020202"/>
    <path d="M 20.234594 95.329225 
L 52.292658 95.329225 
" clip-path="url(#p6faf38d4a4)" style="fill: #020202"/>
    <path d="M 28.363783 100.733077 
C 12.153935 122.952356 39.028777 127.394136 30.830322 101.140738 
C 39.028777 127.394136 12.153935 122.952356 28.363783 100.733077 
" clip-path="url(#p6faf38d4a4)" style="fill: #020202"/>
    <path d="M 32.450097 98.800822 
L 42.077154 98.800822 
" clip-path="url(#p6faf38d4a4)" style="fill: #020202; stroke: #020202; stroke-width: 0.99"/>
    <path d="M 32.421716 98.425187 
L 52.298334 95.404352 
" clip-path="url(#p6faf38d4a4)" style="fill: #020202"/>
    <path d="M 42.401109 99.268805 
C 33.498475 127.394136 60.373317 122.952356 42.894417 99.187273 
C 60.373317 122.952356 33.498475 127.394136 42.401109 99.268805 
" clip-path="url(#p6faf38d4a4)" style="fill: #020202"/>
    <path d="M 43.050564 98.63994 
L 52.319248 95.490107 
" clip-path="url(#p6faf38d4a4)" style="fill: #020202"/>
    <path d="M 52.853522 95.825507 
C 57.997911 124.874197 79.754613 108.484186 53.252883 95.524656 
C 79.754613 108.484186 57.997911 124.874197 52.853522 95.825507 
" clip-path="url(#p6faf38d4a4)" style="fill: #020202"/>
   </g>
   <g id="VertexCollection_3">
    <path d="M 56.694633 90.212064 
C 56.827235 90.212064 56.954423 90.159381 57.048187 90.065618 
C 57.14195 89.971854 57.194633 89.844666 57.194633 89.712064 
C 57.194633 89.579463 57.14195 89.452274 57.048187 89.358511 
C 56.954423 89.264747 56.827235 89.212064 56.694633 89.212064 
C 56.562032 89.212064 56.434843 89.264747 56.34108 89.358511 
C 56.247316 89.452274 56.194633 89.579463 56.194633 89.712064 
C 56.194633 89.844666 56.247316 89.971854 56.34108 90.065618 
C 56.434843 90.159381 56.562032 90.212064 56.694633 90.212064 
z
" clip-path="url(#p6faf38d4a4)" style="fill: #bebebe"/>
    <path d="M 52.792658 84.594903 
C 52.92526 84.594903 53.052448 84.54222 53.146212 84.448457 
C 53.239975 84.354693 53.292658 84.227505 53.292658 84.094903 
C 53.292658 83.962302 53.239975 83.835113 53.146212 83.74135 
C 53.052448 83.647586 52.92526 83.594903 52.792658 83.594903 
C 52.660057 83.594903 52.532868 83.647586 52.439105 83.74135 
C 52.345341 83.835113 52.292658 83.962302 52.292658 84.094903 
C 52.292658 84.227505 52.345341 84.354693 52.439105 84.448457 
C 52.532868 84.54222 52.660057 84.594903 52.792658 84.594903 
z
" clip-path="url(#p6faf38d4a4)" style="fill: #bebebe"/>
    <path d="M 42.577154 81.123307 
C 42.709756 81.123307 42.836944 81.070624 42.930708 80.97686 
C 43.024471 80.883097 43.077154 80.755908 43.077154 80.623307 
C 43.077154 80.490705 43.024471 80.363517 42.930708 80.269753 
C 42.836944 80.17599 42.709756 80.123307 42.577154 80.123307 
C 42.444553 80.123307 42.317364 80.17599 42.223601 80.269753 
C 42.129838 80.363517 42.077154 80.490705 42.077154 80.623307 
C 42.077154 80.755908 42.129838 80.883097 42.223601 80.97686 
C 42.317364 81.070624 42.444553 81.123307 42.577154 81.123307 
z
" clip-path="url(#p6faf38d4a4)" style="fill: #bebebe"/>
    <path d="M 29.950097 81.123307 
C 30.082699 81.123307 30.209887 81.070624 30.303651 80.97686 
C 30.397414 80.883097 30.450097 80.755908 30.450097 80.623307 
C 30.450097 80.490705 30.397414 80.363517 30.303651 80.269753 
C 30.209887 80.17599 30.082699 80.123307 29.950097 80.123307 
C 29.817496 80.123307 29.690307 80.17599 29.596544 80.269753 
C 29.502781 80.363517 29.450097 80.490705 29.450097 80.623307 
C 29.450097 80.755908 29.502781 80.883097 29.596544 80.97686 
C 29.690307 81.070624 29.817496 81.123307 29.950097 81.123307 
z
" clip-path="url(#p6faf38d4a4)" style="fill: #bebebe"/>
    <path d="M 19.734594 84.594903 
C 19.867195 84.594903 19.994384 84.54222 20.088147 84.448457 
C 20.181911 84.354693 20.234594 84.227505 20.234594 84.094903 
C 20.234594 83.962302 20.181911 83.835113 20.088147 83.74135 
C 19.994384 83.647586 19.867195 83.594903 19.734594 83.594903 
C 19.601992 83.594903 19.474804 83.647586 19.38104 83.74135 
C 19.287277 83.835113 19.234594 83.962302 19.234594 84.094903 
C 19.234594 84.227505 19.287277 84.354693 19.38104 84.448457 
C 19.474804 84.54222 19.601992 84.594903 19.734594 84.594903 
z
" clip-path="url(#p6faf38d4a4)" style="fill: #bebebe"/>
    <path d="M 15.832618 92.212064 
C 16.495626 92.212064 17.131568 91.948649 17.600385 91.479831 
C 18.069203 91.011014 18.332618 90.375072 18.332618 89.712064 
C 18.332618 89.049057 18.069203 88.413115 17.600385 87.944297 
C 17.131568 87.47548 16.495626 87.212064 15.832618 87.212064 
C 15.169611 87.212064 14.533669 87.47548 14.064852 87.944297 
C 13.596034 88.413115 13.332618 89.049057 13.332618 89.712064 
C 13.332618 90.375072 13.596034 91.011014 14.064852 91.479831 
C 14.533669 91.948649 15.169611 92.212064 15.832618 92.212064 
z
" clip-path="url(#p6faf38d4a4)" style="fill: #bebebe"/>
    <path d="M 19.734594 95.829225 
C 19.867195 95.829225 19.994384 95.776542 20.088147 95.682779 
C 20.181911 95.589015 20.234594 95.461827 20.234594 95.329225 
C 20.234594 95.196624 20.181911 95.069436 20.088147 94.975672 
C 19.994384 94.881909 19.867195 94.829225 19.734594 94.829225 
C 19.601992 94.829225 19.474804 94.881909 19.38104 94.975672 
C 19.287277 95.069436 19.234594 95.196624 19.234594 95.329225 
C 19.234594 95.461827 19.287277 95.589015 19.38104 95.682779 
C 19.474804 95.776542 19.601992 95.829225 19.734594 95.829225 
z
" clip-path="url(#p6faf38d4a4)" style="fill: #bebebe"/>
    <path d="M 29.950097 101.300822 
C 30.613105 101.300822 31.249047 101.037406 31.717864 100.568589 
C 32.186682 100.099772 32.450097 99.46383 32.450097 98.800822 
C 32.450097 98.137814 32.186682 97.501872 31.717864 97.033055 
C 31.249047 96.564238 30.613105 96.300822 29.950097 96.300822 
C 29.28709 96.300822 28.651148 96.564238 28.18233 97.033055 
C 27.713513 97.501872 27.450097 98.137814 27.450097 98.800822 
C 27.450097 99.46383 27.713513 100.099772 28.18233 100.568589 
C 28.651148 101.037406 29.28709 101.300822 29.950097 101.300822 
z
" clip-path="url(#p6faf38d4a4)" style="fill: #bebebe"/>
    <path d="M 42.577154 99.300822 
C 42.709756 99.300822 42.836944 99.248139 42.930708 99.154375 
C 43.024471 99.060612 43.077154 98.933424 43.077154 98.800822 
C 43.077154 98.66822 43.024471 98.541032 42.930708 98.447269 
C 42.836944 98.353505 42.709756 98.300822 42.577154 98.300822 
C 42.444553 98.300822 42.317364 98.353505 42.223601 98.447269 
C 42.129838 98.541032 42.077154 98.66822 42.077154 98.800822 
C 42.077154 98.933424 42.129838 99.060612 42.223601 99.154375 
C 42.317364 99.248139 42.444553 99.300822 42.577154 99.300822 
z
" clip-path="url(#p6faf38d4a4)" style="fill: #bebebe"/>
    <path d="M 52.792658 95.829225 
C 52.92526 95.829225 53.052448 95.776542 53.146212 95.682779 
C 53.239975 95.589015 53.292658 95.461827 53.292658 95.329225 
C 53.292658 95.196624 53.239975 95.069436 53.146212 94.975672 
C 53.052448 94.881909 52.92526 94.829225 52.792658 94.829225 
C 52.660057 94.829225 52.532868 94.881909 52.439105 94.975672 
C 52.345341 95.069436 52.292658 95.196624 52.292658 95.329225 
C 52.292658 95.461827 52.345341 95.589015 52.439105 95.682779 
C 52.532868 95.776542 52.660057 95.829225 52.792658 95.829225 
z
" clip-path="url(#p6faf38d4a4)" style="fill: #bebebe"/>
   </g>
   <g id="matplotlib.axis_5"/>
   <g id="matplotlib.axis_6"/>
  </g>
  <g id="axes_4">
   <g id="patch_5">
    <path d="M 10.8 135.36 
L 61.2 135.36 
L 61.2 112.32 
L 10.8 112.32 
z
" style="fill: #ffffff"/>
   </g>
   <g id="EdgeCollection_4">
    <path d="M 57.127646 124.09 
C 83.424829 137.459715 83.424829 110.220285 57.127646 123.59 
C 83.424829 110.220285 83.424829 137.459715 57.127646 124.09 
" clip-path="url(#pf3b8a500d1)" style="fill: #020202"/>
    <path d="M 56.403644 123.433398 
L 53.083647 118.794335 
" clip-path="url(#pf3b8a500d1)" style="fill: #020202"/>
    <path d="M 56.270614 123.575032 
L 43.001173 115.283015 
" clip-path="url(#pf3b8a500d1)" style="fill: #020202"/>
    <path d="M 56.219799 123.683371 
L 32.324268 115.801191 
" clip-path="url(#pf3b8a500d1)" style="fill: #020202"/>
    <path d="M 56.199986 123.767031 
L 20.229241 118.460702 
" clip-path="url(#pf3b8a500d1)" style="fill: #020202"/>
    <path d="M 56.194633 123.84 
L 18.332618 123.84 
" clip-path="url(#pf3b8a500d1)" style="fill: #020202"/>
    <path d="M 56.199986 123.912969 
L 20.229241 129.219298 
" clip-path="url(#pf3b8a500d1)" style="fill: #020202"/>
    <path d="M 56.219799 123.996629 
L 32.324268 131.878809 
" clip-path="url(#pf3b8a500d1)" style="fill: #020202"/>
    <path d="M 56.270614 124.104968 
L 43.001173 132.396985 
" clip-path="url(#pf3b8a500d1)" style="fill: #020202"/>
    <path d="M 56.403644 124.246602 
L 53.083647 128.885665 
" clip-path="url(#pf3b8a500d1)" style="fill: #020202"/>
    <path d="M 53.250605 118.187022 
C 79.601539 104.923563 57.657781 88.784852 52.847811 117.890784 
C 57.657781 88.784852 79.601539 104.923563 53.250605 118.187022 
" clip-path="url(#pf3b8a500d1)" style="fill: #020202"/>
    <path d="M 52.317824 118.231104 
L 43.051989 115.174676 
" clip-path="url(#pf3b8a500d1)" style="fill: #020202"/>
    <path d="M 52.298011 118.314764 
L 32.423332 115.382893 
" clip-path="url(#pf3b8a500d1)" style="fill: #020202"/>
    <path d="M 52.292658 118.387733 
L 20.234594 118.387733 
" clip-path="url(#pf3b8a500d1)" style="fill: #020202"/>
    <path d="M 52.298011 118.460702 
L 18.305853 123.475154 
" clip-path="url(#pf3b8a500d1)" style="fill: #020202"/>
    <path d="M 52.317824 118.544362 
L 20.209428 129.135638 
" clip-path="url(#pf3b8a500d1)" style="fill: #020202"/>
    <path d="M 52.368639 118.652701 
L 32.070192 131.337115 
" clip-path="url(#pf3b8a500d1)" style="fill: #020202"/>
    <path d="M 52.501669 118.794335 
L 42.868144 132.255351 
" clip-path="url(#pf3b8a500d1)" style="fill: #020202"/>
    <path d="M 52.792658 118.887733 
L 52.792658 128.792267 
" clip-path="url(#pf3b8a500d1)" style="fill: #020202; stroke: #020202; stroke-width: 0.99"/>
    <path d="M 42.892681 114.630177 
C 60.264816 90.786938 33.370323 86.46574 42.399012 114.550858 
C 33.370323 86.46574 60.264816 90.786938 42.892681 114.630177 
" clip-path="url(#pf3b8a500d1)" style="fill: #020202"/>
    <path d="M 42.077154 115.018047 
L 32.450097 115.018047 
" clip-path="url(#pf3b8a500d1)" style="fill: #020202"/>
    <path d="M 42.082508 115.091016 
L 20.229241 118.314764 
" clip-path="url(#pf3b8a500d1)" style="fill: #020202"/>
    <path d="M 42.10232 115.174676 
L 18.206789 123.056856 
" clip-path="url(#pf3b8a500d1)" style="fill: #020202"/>
    <path d="M 42.153135 115.283015 
L 20.158613 129.027299 
" clip-path="url(#pf3b8a500d1)" style="fill: #020202"/>
    <path d="M 42.286165 115.424649 
L 31.405044 130.628943 
" clip-path="url(#pf3b8a500d1)" style="fill: #020202"/>
    <path d="M 42.577154 115.518047 
L 42.577154 132.161953 
" clip-path="url(#pf3b8a500d1)" style="fill: #020202"/>
    <path d="M 42.868144 115.424649 
L 52.501669 128.885665 
" clip-path="url(#pf3b8a500d1)" style="fill: #020202"/>
    <path d="M 30.840808 112.682103 
C 39.156929 86.46574 12.262436 90.786938 28.372466 113.078697 
C 12.262436 90.786938 39.156929 86.46574 30.840808 112.682103 
" clip-path="url(#pf3b8a500d1)" style="fill: #020202"/>
    <path d="M 27.575927 115.801191 
L 20.209428 118.231104 
" clip-path="url(#pf3b8a500d1)" style="fill: #020202"/>
    <path d="M 27.830002 116.342885 
L 17.952714 122.515162 
" clip-path="url(#pf3b8a500d1)" style="fill: #020202; stroke: #020202; stroke-width: 0.99"/>
    <path d="M 28.495151 117.051057 
L 20.025583 128.885665 
" clip-path="url(#pf3b8a500d1)" style="fill: #020202; stroke: #020202; stroke-width: 0.99"/>
    <path d="M 29.950097 117.518047 
L 29.950097 130.161953 
" clip-path="url(#pf3b8a500d1)" style="fill: #020202; stroke: #020202; stroke-width: 0.99"/>
    <path d="M 31.405044 117.051057 
L 42.286165 132.255351 
" clip-path="url(#pf3b8a500d1)" style="fill: #020202"/>
    <path d="M 32.070192 116.342885 
L 52.368639 129.027299 
" clip-path="url(#pf3b8a500d1)" style="fill: #020202"/>
    <path d="M 19.679441 117.890784 
C 14.869471 88.784852 -7.074288 104.923563 19.276647 118.187022 
C -7.074288 104.923563 14.869471 88.784852 19.679441 117.890784 
" clip-path="url(#pf3b8a500d1)" style="fill: #020202"/>
    <path d="M 19.443604 118.794335 
L 17.287565 121.80699 
" clip-path="url(#pf3b8a500d1)" style="fill: #020202"/>
    <path d="M 19.734594 118.887733 
L 19.734594 128.792267 
" clip-path="url(#pf3b8a500d1)" style="fill: #020202"/>
    <path d="M 20.025583 118.794335 
L 28.495151 130.628943 
" clip-path="url(#pf3b8a500d1)" style="fill: #020202"/>
    <path d="M 20.158613 118.652701 
L 42.153135 132.396985 
" clip-path="url(#pf3b8a500d1)" style="fill: #020202"/>
    <path d="M 20.209428 118.544362 
L 52.317824 129.135638 
" clip-path="url(#pf3b8a500d1)" style="fill: #020202"/>
    <path d="M 13.667555 122.59 
C -10.897577 110.220285 -10.897577 137.459715 13.667555 125.09 
C -10.897577 137.459715 -10.897577 110.220285 13.667555 122.59 
" clip-path="url(#pf3b8a500d1)" style="fill: #020202"/>
    <path d="M 17.287565 125.87301 
L 19.443604 128.885665 
" clip-path="url(#pf3b8a500d1)" style="fill: #020202"/>
    <path d="M 17.952714 125.164838 
L 27.830002 131.337115 
" clip-path="url(#pf3b8a500d1)" style="fill: #020202; stroke: #020202; stroke-width: 0.99"/>
    <path d="M 18.206789 124.623144 
L 42.10232 132.505324 
" clip-path="url(#pf3b8a500d1)" style="fill: #020202"/>
    <path d="M 18.305853 124.204846 
L 52.298011 129.219298 
" clip-path="url(#pf3b8a500d1)" style="fill: #020202; stroke: #020202; stroke-width: 0.99"/>
    <path d="M 19.276647 129.492978 
C -7.074288 142.756437 14.869471 158.895148 19.679441 129.789216 
C 14.869471 158.895148 -7.074288 142.756437 19.276647 129.492978 
" clip-path="url(#pf3b8a500d1)" style="fill: #020202"/>
    <path d="M 20.209428 129.448896 
L 27.575927 131.878809 
" clip-path="url(#pf3b8a500d1)" style="fill: #020202"/>
    <path d="M 20.229241 129.365236 
L 42.082508 132.588984 
" clip-path="url(#pf3b8a500d1)" style="fill: #020202"/>
    <path d="M 20.234594 129.292267 
L 52.292658 129.292267 
" clip-path="url(#pf3b8a500d1)" style="fill: #020202"/>
    <path d="M 28.372466 134.601303 
C 12.262436 156.893062 39.156929 161.21426 30.840808 134.997897 
C 39.156929 161.21426 12.262436 156.893062 28.372466 134.601303 
" clip-path="url(#pf3b8a500d1)" style="fill: #020202"/>
    <path d="M 32.450097 132.661953 
L 42.077154 132.661953 
" clip-path="url(#pf3b8a500d1)" style="fill: #020202; stroke: #020202; stroke-width: 0.99"/>
    <path d="M 32.423332 132.297107 
L 52.298011 129.365236 
" clip-path="url(#pf3b8a500d1)" style="fill: #020202"/>
    <path d="M 42.399012 133.129142 
C 33.370323 161.21426 60.264816 156.893062 42.892681 133.049823 
C 60.264816 156.893062 33.370323 161.21426 42.399012 133.129142 
" clip-path="url(#pf3b8a500d1)" style="fill: #020202"/>
    <path d="M 43.051989 132.505324 
L 52.317824 129.448896 
" clip-path="url(#pf3b8a500d1)" style="fill: #020202"/>
    <path d="M 52.847811 129.789216 
C 57.657781 158.895148 79.601539 142.756437 53.250605 129.492978 
C 79.601539 142.756437 57.657781 158.895148 52.847811 129.789216 
" clip-path="url(#pf3b8a500d1)" style="fill: #020202"/>
   </g>
   <g id="VertexCollection_4">
    <path d="M 56.694633 124.34 
C 56.827235 124.34 56.954423 124.287317 57.048187 124.193553 
C 57.14195 124.09979 57.194633 123.972602 57.194633 123.84 
C 57.194633 123.707398 57.14195 123.58021 57.048187 123.486447 
C 56.954423 123.392683 56.827235 123.34 56.694633 123.34 
C 56.562032 123.34 56.434843 123.392683 56.34108 123.486447 
C 56.247316 123.58021 56.194633 123.707398 56.194633 123.84 
C 56.194633 123.972602 56.247316 124.09979 56.34108 124.193553 
C 56.434843 124.287317 56.562032 124.34 56.694633 124.34 
z
" clip-path="url(#pf3b8a500d1)" style="fill: #bebebe"/>
    <path d="M 52.792658 118.887733 
C 52.92526 118.887733 53.052448 118.83505 53.146212 118.741286 
C 53.239975 118.647523 53.292658 118.520335 53.292658 118.387733 
C 53.292658 118.255132 53.239975 118.127943 53.146212 118.03418 
C 53.052448 117.940416 52.92526 117.887733 52.792658 117.887733 
C 52.660057 117.887733 52.532868 117.940416 52.439105 118.03418 
C 52.345341 118.127943 52.292658 118.255132 52.292658 118.387733 
C 52.292658 118.520335 52.345341 118.647523 52.439105 118.741286 
C 52.532868 118.83505 52.660057 118.887733 52.792658 118.887733 
z
" clip-path="url(#pf3b8a500d1)" style="fill: #bebebe"/>
    <path d="M 42.577154 115.518047 
C 42.709756 115.518047 42.836944 115.465364 42.930708 115.3716 
C 43.024471 115.277837 43.077154 115.150648 43.077154 115.018047 
C 43.077154 114.885445 43.024471 114.758257 42.930708 114.664493 
C 42.836944 114.57073 42.709756 114.518047 42.577154 114.518047 
C 42.444553 114.518047 42.317364 114.57073 42.223601 114.664493 
C 42.129838 114.758257 42.077154 114.885445 42.077154 115.018047 
C 42.077154 115.150648 42.129838 115.277837 42.223601 115.3716 
C 42.317364 115.465364 42.444553 115.518047 42.577154 115.518047 
z
" clip-path="url(#pf3b8a500d1)" style="fill: #bebebe"/>
    <path d="M 29.950097 117.518047 
C 30.613105 117.518047 31.249047 117.254631 31.717864 116.785814 
C 32.186682 116.316996 32.450097 115.681055 32.450097 115.018047 
C 32.450097 114.355039 32.186682 113.719097 31.717864 113.25028 
C 31.249047 112.781463 30.613105 112.518047 29.950097 112.518047 
C 29.28709 112.518047 28.651148 112.781463 28.18233 113.25028 
C 27.713513 113.719097 27.450097 114.355039 27.450097 115.018047 
C 27.450097 115.681055 27.713513 116.316996 28.18233 116.785814 
C 28.651148 117.254631 29.28709 117.518047 29.950097 117.518047 
z
" clip-path="url(#pf3b8a500d1)" style="fill: #bebebe"/>
    <path d="M 19.734594 118.887733 
C 19.867195 118.887733 19.994384 118.83505 20.088147 118.741286 
C 20.181911 118.647523 20.234594 118.520335 20.234594 118.387733 
C 20.234594 118.255132 20.181911 118.127943 20.088147 118.03418 
C 19.994384 117.940416 19.867195 117.887733 19.734594 117.887733 
C 19.601992 117.887733 19.474804 117.940416 19.38104 118.03418 
C 19.287277 118.127943 19.234594 118.255132 19.234594 118.387733 
C 19.234594 118.520335 19.287277 118.647523 19.38104 118.741286 
C 19.474804 118.83505 19.601992 118.887733 19.734594 118.887733 
z
" clip-path="url(#pf3b8a500d1)" style="fill: #bebebe"/>
    <path d="M 15.832618 126.34 
C 16.495626 126.34 17.131568 126.076584 17.600385 125.607767 
C 18.069203 125.13895 18.332618 124.503008 18.332618 123.84 
C 18.332618 123.176992 18.069203 122.54105 17.600385 122.072233 
C 17.131568 121.603416 16.495626 121.34 15.832618 121.34 
C 15.169611 121.34 14.533669 121.603416 14.064852 122.072233 
C 13.596034 122.54105 13.332618 123.176992 13.332618 123.84 
C 13.332618 124.503008 13.596034 125.13895 14.064852 125.607767 
C 14.533669 126.076584 15.169611 126.34 15.832618 126.34 
z
" clip-path="url(#pf3b8a500d1)" style="fill: #bebebe"/>
    <path d="M 19.734594 129.792267 
C 19.867195 129.792267 19.994384 129.739584 20.088147 129.64582 
C 20.181911 129.552057 20.234594 129.424868 20.234594 129.292267 
C 20.234594 129.159665 20.181911 129.032477 20.088147 128.938714 
C 19.994384 128.84495 19.867195 128.792267 19.734594 128.792267 
C 19.601992 128.792267 19.474804 128.84495 19.38104 128.938714 
C 19.287277 129.032477 19.234594 129.159665 19.234594 129.292267 
C 19.234594 129.424868 19.287277 129.552057 19.38104 129.64582 
C 19.474804 129.739584 19.601992 129.792267 19.734594 129.792267 
z
" clip-path="url(#pf3b8a500d1)" style="fill: #bebebe"/>
    <path d="M 29.950097 135.161953 
C 30.613105 135.161953 31.249047 134.898537 31.717864 134.42972 
C 32.186682 133.960903 32.450097 133.324961 32.450097 132.661953 
C 32.450097 131.998945 32.186682 131.363004 31.717864 130.894186 
C 31.249047 130.425369 30.613105 130.161953 29.950097 130.161953 
C 29.28709 130.161953 28.651148 130.425369 28.18233 130.894186 
C 27.713513 131.363004 27.450097 131.998945 27.450097 132.661953 
C 27.450097 133.324961 27.713513 133.960903 28.18233 134.42972 
C 28.651148 134.898537 29.28709 135.161953 29.950097 135.161953 
z
" clip-path="url(#pf3b8a500d1)" style="fill: #bebebe"/>
    <path d="M 42.577154 133.161953 
C 42.709756 133.161953 42.836944 133.10927 42.930708 133.015507 
C 43.024471 132.921743 43.077154 132.794555 43.077154 132.661953 
C 43.077154 132.529352 43.024471 132.402163 42.930708 132.3084 
C 42.836944 132.214636 42.709756 132.161953 42.577154 132.161953 
C 42.444553 132.161953 42.317364 132.214636 42.223601 132.3084 
C 42.129838 132.402163 42.077154 132.529352 42.077154 132.661953 
C 42.077154 132.794555 42.129838 132.921743 42.223601 133.015507 
C 42.317364 133.10927 42.444553 133.161953 42.577154 133.161953 
z
" clip-path="url(#pf3b8a500d1)" style="fill: #bebebe"/>
    <path d="M 52.792658 129.792267 
C 52.92526 129.792267 53.052448 129.739584 53.146212 129.64582 
C 53.239975 129.552057 53.292658 129.424868 53.292658 129.292267 
C 53.292658 129.159665 53.239975 129.032477 53.146212 128.938714 
C 53.052448 128.84495 52.92526 128.792267 52.792658 128.792267 
C 52.660057 128.792267 52.532868 128.84495 52.439105 128.938714 
C 52.345341 129.032477 52.292658 129.159665 52.292658 129.292267 
C 52.292658 129.424868 52.345341 129.552057 52.439105 129.64582 
C 52.532868 129.739584 52.660057 129.792267 52.792658 129.792267 
z
" clip-path="url(#pf3b8a500d1)" style="fill: #bebebe"/>
   </g>
   <g id="matplotlib.axis_7"/>
   <g id="matplotlib.axis_8"/>
  </g>
  <g id="axes_5">
   <g id="patch_6">
    <path d="M 10.8 169.2 
L 61.2 169.2 
L 61.2 146.16 
L 10.8 146.16 
z
" style="fill: #ffffff"/>
   </g>
   <g id="EdgeCollection_5">
    <path d="M 57.125956 157.93 
C 83.423139 171.299715 83.423139 144.060285 57.125956 157.43 
C 83.423139 144.060285 83.423139 171.299715 57.125956 157.93 
" clip-path="url(#p16bf5dcd4f)" style="fill: #020202"/>
    <path d="M 56.399503 157.275163 
L 53.034383 152.63257 
" clip-path="url(#p16bf5dcd4f)" style="fill: #020202"/>
    <path d="M 56.267419 157.417457 
L 42.819996 149.12059 
" clip-path="url(#p16bf5dcd4f)" style="fill: #020202"/>
    <path d="M 56.217522 157.525163 
L 31.982635 149.632234 
" clip-path="url(#p16bf5dcd4f)" style="fill: #020202"/>
    <path d="M 56.198164 157.607935 
L 19.753837 152.299798 
" clip-path="url(#p16bf5dcd4f)" style="fill: #020202"/>
    <path d="M 56.192943 157.68 
L 15.807057 157.68 
" clip-path="url(#p16bf5dcd4f)" style="fill: #020202"/>
    <path d="M 56.198164 157.752065 
L 19.753837 163.060202 
" clip-path="url(#p16bf5dcd4f)" style="fill: #020202"/>
    <path d="M 56.217522 157.834837 
L 31.982635 165.727766 
" clip-path="url(#p16bf5dcd4f)" style="fill: #020202"/>
    <path d="M 56.267419 157.942543 
L 42.819996 166.23941 
" clip-path="url(#p16bf5dcd4f)" style="fill: #020202"/>
    <path d="M 56.399503 158.084837 
L 53.034383 162.72743 
" clip-path="url(#p16bf5dcd4f)" style="fill: #020202"/>
    <path d="M 53.197899 152.024778 
C 79.483449 138.632206 57.460782 122.601341 52.793657 151.73052 
C 57.460782 122.601341 79.483449 138.632206 53.197899 152.024778 
" clip-path="url(#p16bf5dcd4f)" style="fill: #020202"/>
    <path d="M 52.265522 152.072896 
L 42.869892 149.012884 
" clip-path="url(#p16bf5dcd4f)" style="fill: #020202"/>
    <path d="M 52.246163 152.155668 
L 32.079426 149.218371 
" clip-path="url(#p16bf5dcd4f)" style="fill: #020202"/>
    <path d="M 52.240943 152.227733 
L 19.759057 152.227733 
" clip-path="url(#p16bf5dcd4f)" style="fill: #020202"/>
    <path d="M 52.246163 152.299798 
L 15.801836 157.607935 
" clip-path="url(#p16bf5dcd4f)" style="fill: #020202"/>
    <path d="M 52.265522 152.38257 
L 19.734478 162.97743 
" clip-path="url(#p16bf5dcd4f)" style="fill: #020202"/>
    <path d="M 52.315418 152.490276 
L 31.733153 165.18924 
" clip-path="url(#p16bf5dcd4f)" style="fill: #020202"/>
    <path d="M 52.447503 152.63257 
L 42.687912 166.097116 
" clip-path="url(#p16bf5dcd4f)" style="fill: #020202; stroke: #020202; stroke-width: 0.99"/>
    <path d="M 52.740943 152.727733 
L 52.740943 162.632267 
" clip-path="url(#p16bf5dcd4f)" style="fill: #020202"/>
    <path d="M 42.709266 148.469583 
C 60.036421 124.593637 33.133829 120.323147 42.215449 148.391195 
C 33.133829 120.323147 60.036421 124.593637 42.709266 148.469583 
" clip-path="url(#p16bf5dcd4f)" style="fill: #020202"/>
    <path d="M 41.894471 148.858047 
L 32.105529 148.858047 
" clip-path="url(#p16bf5dcd4f)" style="fill: #020202"/>
    <path d="M 41.899692 148.930112 
L 19.753837 152.155668 
" clip-path="url(#p16bf5dcd4f)" style="fill: #020202"/>
    <path d="M 41.91905 149.012884 
L 15.782478 157.525163 
" clip-path="url(#p16bf5dcd4f)" style="fill: #020202"/>
    <path d="M 41.968946 149.12059 
L 19.684582 162.869724 
" clip-path="url(#p16bf5dcd4f)" style="fill: #020202"/>
    <path d="M 42.101031 149.262884 
L 31.07273 164.47777 
" clip-path="url(#p16bf5dcd4f)" style="fill: #020202"/>
    <path d="M 42.394471 149.358047 
L 42.394471 166.001953 
" clip-path="url(#p16bf5dcd4f)" style="fill: #020202"/>
    <path d="M 42.687912 149.262884 
L 52.447503 162.72743 
" clip-path="url(#p16bf5dcd4f)" style="fill: #020202"/>
    <path d="M 30.500641 146.523786 
C 38.866171 120.323147 11.963579 124.593637 28.031556 146.915726 
C 11.963579 124.593637 38.866171 120.323147 30.500641 146.523786 
" clip-path="url(#p16bf5dcd4f)" style="fill: #020202"/>
    <path d="M 27.228422 149.632234 
L 19.734478 152.072896 
" clip-path="url(#p16bf5dcd4f)" style="fill: #020202"/>
    <path d="M 27.477905 150.17076 
L 15.732581 157.417457 
" clip-path="url(#p16bf5dcd4f)" style="fill: #020202"/>
    <path d="M 28.138327 150.88223 
L 19.552497 162.72743 
" clip-path="url(#p16bf5dcd4f)" style="fill: #020202; stroke: #020202; stroke-width: 0.99"/>
    <path d="M 29.605529 151.358047 
L 29.605529 164.001953 
" clip-path="url(#p16bf5dcd4f)" style="fill: #020202; stroke: #020202; stroke-width: 0.99"/>
    <path d="M 31.07273 150.88223 
L 42.101031 166.097116 
" clip-path="url(#p16bf5dcd4f)" style="fill: #020202"/>
    <path d="M 31.733153 150.17076 
L 52.315418 162.869724 
" clip-path="url(#p16bf5dcd4f)" style="fill: #020202; stroke: #020202; stroke-width: 0.99"/>
    <path d="M 19.206343 151.73052 
C 14.539218 122.601341 -7.483449 138.632206 18.802101 152.024778 
C -7.483449 138.632206 14.539218 122.601341 19.206343 151.73052 
" clip-path="url(#p16bf5dcd4f)" style="fill: #020202"/>
    <path d="M 18.965617 152.63257 
L 15.600497 157.275163 
" clip-path="url(#p16bf5dcd4f)" style="fill: #020202"/>
    <path d="M 19.259057 152.727733 
L 19.259057 162.632267 
" clip-path="url(#p16bf5dcd4f)" style="fill: #020202"/>
    <path d="M 19.552497 152.63257 
L 28.138327 164.47777 
" clip-path="url(#p16bf5dcd4f)" style="fill: #020202"/>
    <path d="M 19.684582 152.490276 
L 41.968946 166.23941 
" clip-path="url(#p16bf5dcd4f)" style="fill: #020202"/>
    <path d="M 19.734478 152.38257 
L 52.265522 162.97743 
" clip-path="url(#p16bf5dcd4f)" style="fill: #020202"/>
    <path d="M 14.874044 157.43 
C -11.423139 144.060285 -11.423139 171.299715 14.874044 157.93 
C -11.423139 171.299715 -11.423139 144.060285 14.874044 157.43 
" clip-path="url(#p16bf5dcd4f)" style="fill: #020202"/>
    <path d="M 15.600497 158.084837 
L 18.965617 162.72743 
" clip-path="url(#p16bf5dcd4f)" style="fill: #020202"/>
    <path d="M 15.732581 157.942543 
L 27.477905 165.18924 
" clip-path="url(#p16bf5dcd4f)" style="fill: #020202"/>
    <path d="M 15.782478 157.834837 
L 41.91905 166.347116 
" clip-path="url(#p16bf5dcd4f)" style="fill: #020202"/>
    <path d="M 15.801836 157.752065 
L 52.246163 163.060202 
" clip-path="url(#p16bf5dcd4f)" style="fill: #020202; stroke: #020202; stroke-width: 0.99"/>
    <path d="M 18.802101 163.335222 
C -7.483449 176.727794 14.539218 192.758659 19.206343 163.62948 
C 14.539218 192.758659 -7.483449 176.727794 18.802101 163.335222 
" clip-path="url(#p16bf5dcd4f)" style="fill: #020202"/>
    <path d="M 19.734478 163.287104 
L 27.228422 165.727766 
" clip-path="url(#p16bf5dcd4f)" style="fill: #020202; stroke: #020202; stroke-width: 0.99"/>
    <path d="M 19.753837 163.204332 
L 41.899692 166.429888 
" clip-path="url(#p16bf5dcd4f)" style="fill: #020202"/>
    <path d="M 19.759057 163.132267 
L 52.240943 163.132267 
" clip-path="url(#p16bf5dcd4f)" style="fill: #020202"/>
    <path d="M 28.031556 168.444274 
C 11.963579 190.766363 38.866171 195.036853 30.500641 168.836214 
C 38.866171 195.036853 11.963579 190.766363 28.031556 168.444274 
" clip-path="url(#p16bf5dcd4f)" style="fill: #020202"/>
    <path d="M 32.105529 166.501953 
L 41.894471 166.501953 
" clip-path="url(#p16bf5dcd4f)" style="fill: #020202; stroke: #020202; stroke-width: 0.99"/>
    <path d="M 32.079426 166.141629 
L 52.246163 163.204332 
" clip-path="url(#p16bf5dcd4f)" style="fill: #020202"/>
    <path d="M 42.215449 166.968805 
C 33.133829 195.036853 60.036421 190.766363 42.709266 166.890417 
C 60.036421 190.766363 33.133829 195.036853 42.215449 166.968805 
" clip-path="url(#p16bf5dcd4f)" style="fill: #020202"/>
    <path d="M 42.869892 166.347116 
L 52.265522 163.287104 
" clip-path="url(#p16bf5dcd4f)" style="fill: #020202"/>
    <path d="M 52.793657 163.62948 
C 57.460782 192.758659 79.483449 176.727794 53.197899 163.335222 
C 79.483449 176.727794 57.460782 192.758659 52.793657 163.62948 
" clip-path="url(#p16bf5dcd4f)" style="fill: #020202"/>
   </g>
   <g id="VertexCollection_5">
    <path d="M 56.692943 158.18 
C 56.825545 158.18 56.952733 158.127317 57.046497 158.033553 
C 57.14026 157.93979 57.192943 157.812602 57.192943 157.68 
C 57.192943 157.547398 57.14026 157.42021 57.046497 157.326447 
C 56.952733 157.232683 56.825545 157.18 56.692943 157.18 
C 56.560342 157.18 56.433153 157.232683 56.33939 157.326447 
C 56.245627 157.42021 56.192943 157.547398 56.192943 157.68 
C 56.192943 157.812602 56.245627 157.93979 56.33939 158.033553 
C 56.433153 158.127317 56.560342 158.18 56.692943 158.18 
z
" clip-path="url(#p16bf5dcd4f)" style="fill: #bebebe"/>
    <path d="M 52.740943 152.727733 
C 52.873544 152.727733 53.000733 152.67505 53.094496 152.581286 
C 53.18826 152.487523 53.240943 152.360335 53.240943 152.227733 
C 53.240943 152.095132 53.18826 151.967943 53.094496 151.87418 
C 53.000733 151.780416 52.873544 151.727733 52.740943 151.727733 
C 52.608341 151.727733 52.481153 151.780416 52.38739 151.87418 
C 52.293626 151.967943 52.240943 152.095132 52.240943 152.227733 
C 52.240943 152.360335 52.293626 152.487523 52.38739 152.581286 
C 52.481153 152.67505 52.608341 152.727733 52.740943 152.727733 
z
" clip-path="url(#p16bf5dcd4f)" style="fill: #bebebe"/>
    <path d="M 42.394471 149.358047 
C 42.527073 149.358047 42.654261 149.305364 42.748025 149.2116 
C 42.841788 149.117837 42.894471 148.990648 42.894471 148.858047 
C 42.894471 148.725445 42.841788 148.598257 42.748025 148.504493 
C 42.654261 148.41073 42.527073 148.358047 42.394471 148.358047 
C 42.26187 148.358047 42.134681 148.41073 42.040918 148.504493 
C 41.947154 148.598257 41.894471 148.725445 41.894471 148.858047 
C 41.894471 148.990648 41.947154 149.117837 42.040918 149.2116 
C 42.134681 149.305364 42.26187 149.358047 42.394471 149.358047 
z
" clip-path="url(#p16bf5dcd4f)" style="fill: #bebebe"/>
    <path d="M 29.605529 151.358047 
C 30.268537 151.358047 30.904478 151.094631 31.373296 150.625814 
C 31.842113 150.156996 32.105529 149.521055 32.105529 148.858047 
C 32.105529 148.195039 31.842113 147.559097 31.373296 147.09028 
C 30.904478 146.621463 30.268537 146.358047 29.605529 146.358047 
C 28.942521 146.358047 28.306579 146.621463 27.837762 147.09028 
C 27.368945 147.559097 27.105529 148.195039 27.105529 148.858047 
C 27.105529 149.521055 27.368945 150.156996 27.837762 150.625814 
C 28.306579 151.094631 28.942521 151.358047 29.605529 151.358047 
z
" clip-path="url(#p16bf5dcd4f)" style="fill: #bebebe"/>
    <path d="M 19.259057 152.727733 
C 19.391659 152.727733 19.518847 152.67505 19.61261 152.581286 
C 19.706374 152.487523 19.759057 152.360335 19.759057 152.227733 
C 19.759057 152.095132 19.706374 151.967943 19.61261 151.87418 
C 19.518847 151.780416 19.391659 151.727733 19.259057 151.727733 
C 19.126456 151.727733 18.999267 151.780416 18.905504 151.87418 
C 18.81174 151.967943 18.759057 152.095132 18.759057 152.227733 
C 18.759057 152.360335 18.81174 152.487523 18.905504 152.581286 
C 18.999267 152.67505 19.126456 152.727733 19.259057 152.727733 
z
" clip-path="url(#p16bf5dcd4f)" style="fill: #bebebe"/>
    <path d="M 15.307057 158.18 
C 15.439658 158.18 15.566847 158.127317 15.66061 158.033553 
C 15.754373 157.93979 15.807057 157.812602 15.807057 157.68 
C 15.807057 157.547398 15.754373 157.42021 15.66061 157.326447 
C 15.566847 157.232683 15.439658 157.18 15.307057 157.18 
C 15.174455 157.18 15.047267 157.232683 14.953503 157.326447 
C 14.85974 157.42021 14.807057 157.547398 14.807057 157.68 
C 14.807057 157.812602 14.85974 157.93979 14.953503 158.033553 
C 15.047267 158.127317 15.174455 158.18 15.307057 158.18 
z
" clip-path="url(#p16bf5dcd4f)" style="fill: #bebebe"/>
    <path d="M 19.259057 163.632267 
C 19.391659 163.632267 19.518847 163.579584 19.61261 163.48582 
C 19.706374 163.392057 19.759057 163.264868 19.759057 163.132267 
C 19.759057 162.999665 19.706374 162.872477 19.61261 162.778714 
C 19.518847 162.68495 19.391659 162.632267 19.259057 162.632267 
C 19.126456 162.632267 18.999267 162.68495 18.905504 162.778714 
C 18.81174 162.872477 18.759057 162.999665 18.759057 163.132267 
C 18.759057 163.264868 18.81174 163.392057 18.905504 163.48582 
C 18.999267 163.579584 19.126456 163.632267 19.259057 163.632267 
z
" clip-path="url(#p16bf5dcd4f)" style="fill: #bebebe"/>
    <path d="M 29.605529 169.001953 
C 30.268537 169.001953 30.904478 168.738537 31.373296 168.26972 
C 31.842113 167.800903 32.105529 167.164961 32.105529 166.501953 
C 32.105529 165.838945 31.842113 165.203004 31.373296 164.734186 
C 30.904478 164.265369 30.268537 164.001953 29.605529 164.001953 
C 28.942521 164.001953 28.306579 164.265369 27.837762 164.734186 
C 27.368945 165.203004 27.105529 165.838945 27.105529 166.501953 
C 27.105529 167.164961 27.368945 167.800903 27.837762 168.26972 
C 28.306579 168.738537 28.942521 169.001953 29.605529 169.001953 
z
" clip-path="url(#p16bf5dcd4f)" style="fill: #bebebe"/>
    <path d="M 42.394471 167.001953 
C 42.527073 167.001953 42.654261 166.94927 42.748025 166.855507 
C 42.841788 166.761743 42.894471 166.634555 42.894471 166.501953 
C 42.894471 166.369352 42.841788 166.242163 42.748025 166.1484 
C 42.654261 166.054636 42.527073 166.001953 42.394471 166.001953 
C 42.26187 166.001953 42.134681 166.054636 42.040918 166.1484 
C 41.947154 166.242163 41.894471 166.369352 41.894471 166.501953 
C 41.894471 166.634555 41.947154 166.761743 42.040918 166.855507 
C 42.134681 166.94927 42.26187 167.001953 42.394471 167.001953 
z
" clip-path="url(#p16bf5dcd4f)" style="fill: #bebebe"/>
    <path d="M 52.740943 163.632267 
C 52.873544 163.632267 53.000733 163.579584 53.094496 163.48582 
C 53.18826 163.392057 53.240943 163.264868 53.240943 163.132267 
C 53.240943 162.999665 53.18826 162.872477 53.094496 162.778714 
C 53.000733 162.68495 52.873544 162.632267 52.740943 162.632267 
C 52.608341 162.632267 52.481153 162.68495 52.38739 162.778714 
C 52.293626 162.872477 52.240943 162.999665 52.240943 163.132267 
C 52.240943 163.264868 52.293626 163.392057 52.38739 163.48582 
C 52.481153 163.579584 52.608341 163.632267 52.740943 163.632267 
z
" clip-path="url(#p16bf5dcd4f)" style="fill: #bebebe"/>
   </g>
   <g id="matplotlib.axis_9"/>
   <g id="matplotlib.axis_10"/>
  </g>
 </g>
 <defs>
  <clipPath id="p2d438cb3a7">
   <rect x="10.8" y="10.8" width="50.4" height="23.04"/>
  </clipPath>
  <clipPath id="p80c42b050a">
   <rect x="10.8" y="44.64" width="50.4" height="23.04"/>
  </clipPath>
  <clipPath id="p6faf38d4a4">
   <rect x="10.8" y="78.48" width="50.4" height="23.04"/>
  </clipPath>
  <clipPath id="pf3b8a500d1">
   <rect x="10.8" y="112.32" width="50.4" height="23.04"/>
  </clipPath>
  <clipPath id="p16bf5dcd4f">
   <rect x="10.8" y="146.16" width="50.4" height="23.04"/>
  </clipPath>
 </defs>
</svg>
