<?xml version="1.0" encoding="UTF-8" standalone="no"?>
<svg
   width="460.8pt"
   height="345.6pt"
   viewBox="0 0 460.8 345.6"
   version="1.1"
   id="svg279"
   sodipodi:docname="rich_club_coeff.svg"
   inkscape:version="1.2.2 (732a01da63, 2022-12-09)"
   xmlns:inkscape="http://www.inkscape.org/namespaces/inkscape"
   xmlns:sodipodi="http://sodipodi.sourceforge.net/DTD/sodipodi-0.dtd"
   xmlns:xlink="http://www.w3.org/1999/xlink"
   xmlns="http://www.w3.org/2000/svg"
   xmlns:svg="http://www.w3.org/2000/svg"
   xmlns:rdf="http://www.w3.org/1999/02/22-rdf-syntax-ns#"
   xmlns:cc="http://creativecommons.org/ns#"
   xmlns:dc="http://purl.org/dc/elements/1.1/">
  <sodipodi:namedview
     id="namedview281"
     pagecolor="#ffffff"
     bordercolor="#000000"
     borderopacity="0.25"
     inkscape:showpageshadow="2"
     inkscape:pageopacity="0.0"
     inkscape:pagecheckerboard="0"
     inkscape:deskcolor="#d1d1d1"
     inkscape:document-units="pt"
     showgrid="true"
     inkscape:zoom="1.313549"
     inkscape:cx="196.03379"
     inkscape:cy="170.91102"
     inkscape:window-width="1920"
     inkscape:window-height="991"
     inkscape:window-x="-9"
     inkscape:window-y="-9"
     inkscape:window-maximized="1"
     inkscape:current-layer="axes_1">
    <inkscape:grid
       type="xygrid"
       id="grid1118" />
  </sodipodi:namedview>
  <metadata
     id="metadata2">
    <rdf:RDF>
      <cc:Work>
        <dc:type
           rdf:resource="http://purl.org/dc/dcmitype/StillImage" />
        <dc:date>2024-06-17T23:05:08.790122</dc:date>
        <dc:format>image/svg+xml</dc:format>
        <dc:creator>
          <cc:Agent>
            <dc:title>Matplotlib v3.7.0, https://matplotlib.org/</dc:title>
          </cc:Agent>
        </dc:creator>
      </cc:Work>
    </rdf:RDF>
  </metadata>
  <defs
     id="defs6">
    <style
       type="text/css"
       id="style4">*{stroke-linejoin: round; stroke-linecap: butt}</style>
  </defs>
  <g
     id="figure_1">
    <g
       id="axes_1"
       transform="translate(6.5127288,-10.344)">
      <g
         id="g5067"
         transform="translate(6.4570283,-10.792963)" />
      <g
         id="g5720"
         transform="translate(4.7372714,-13.656)"
         inkscape:export-filename="weighted_rc_coeffs.png"
         inkscape:export-xdpi="300"
         inkscape:export-ydpi="300">
        <g
           id="patch_2">
          <path
             d="M 57.6,307.584 H 414.72 V 41.472 H 57.6 Z"
             style="fill:#ffffff"
             id="path11" />
        </g>
        <g
           id="patch_3"
           style="fill:#a6a6a6;fill-opacity:1"
           transform="matrix(0.99543007,0,0,1,0.33741071,0)">
          <path
             d="m 73.832727,307.584 h 46.379223 v -42.24 H 73.832727 Z"
             clip-path="url(#pde1118bee9)"
             style="fill:#a6a6a6;fill-opacity:1"
             id="path14" />
        </g>
        <g
           id="patch_4"
           style="fill:#a6a6a6;fill-opacity:1"
           transform="matrix(0.9883989,0,0,1,1.9326409,0)">
          <path
             d="m 120.21195,307.584 h 46.37922 v -126.72 h -46.37922 z"
             clip-path="url(#pde1118bee9)"
             style="fill:#a6a6a6;fill-opacity:1"
             id="path17" />
        </g>
        <g
           id="patch_5"
           style="fill:#a6a6a6;fill-opacity:1"
           transform="matrix(0.98579472,0,0,1,3.0253049,0)">
          <path
             d="m 166.59117,307.584 h 46.37922 v -168.96 h -46.37922 z"
             clip-path="url(#pde1118bee9)"
             style="fill:#a6a6a6;fill-opacity:1"
             id="path20" />
        </g>
        <g
           id="patch_6"
           style="fill:#a6a6a6;fill-opacity:1"
           transform="matrix(0.93792005,0,0,1,14.000801,0.636)">
          <path
             d="m 212.97039,307.584 h 46.37922 V 54.144 h -46.37922 z"
             clip-path="url(#pde1118bee9)"
             style="fill:#a6a6a6;fill-opacity:1"
             id="path23" />
        </g>
        <g
           id="patch_7"
           style="fill:#a6a6a6;fill-opacity:1"
           transform="matrix(1.018775,0,0,1,-6.2188767,0)">
          <path
             d="m 259.34961,307.584 h 46.37922 v -84.48 h -46.37922 z"
             clip-path="url(#pde1118bee9)"
             style="fill:#a6a6a6;fill-opacity:1"
             id="path26" />
        </g>
        <g
           id="patch_8"
           style="fill:#a6a6a6;fill-opacity:1"
           transform="matrix(0.98643315,0,0,1,4.4189468,0)">
          <path
             d="m 305.72883,307.584 h 46.37922 v -42.24 h -46.37922 z"
             clip-path="url(#pde1118bee9)"
             style="fill:#a6a6a6;fill-opacity:1"
             id="path29" />
        </g>
        <g
           id="patch_9"
           style="fill:#a6a6a6;fill-opacity:1"
           transform="matrix(0.99154902,0,0,1,3.3676091,0)">
          <path
             d="m 352.10805,307.584 h 46.37922 v -84.48 h -46.37922 z"
             clip-path="url(#pde1118bee9)"
             style="fill:#a6a6a6;fill-opacity:1"
             id="path32" />
        </g>
        <g
           id="matplotlib.axis_1"
           transform="translate(-6.814383,-0.99001489)">
          <g
             id="xtick_1">
            <g
               id="line2d_1">
              <defs
                 id="defs36">
                <path
                   id="me4a29ff3fe"
                   d="M 0,0 V 3.5"
                   style="stroke:#000000;stroke-width:0.8" />
              </defs>
              <g
                 id="g40">
                <use
                   xlink:href="#me4a29ff3fe"
                   x="67.317772"
                   y="307.58401"
                   style="stroke:#000000;stroke-width:0.8"
                   id="use38" />
              </g>
            </g>
            <g
               id="text_1">
              <!-- $\mathdefault{0.5}$ -->
              <g
                 transform="matrix(0.1,0,0,-0.1,60.952734,321.5025)"
                 id="g54">
                <defs
                   id="defs46">
                  <path
                     id="CMR17-30"
                     d="m 2688,2038 c 0,392 -6,1061 -275,1575 -237,450 -615,611 -947,611 -308,0 -698,-142 -941,-604 C 269,3137 243,2539 243,2038 c 0,-367 7,-926 205,-1415 275,-662 768,-751 1018,-751 294,0 742,121 1004,732 192,444 218,964 218,1434 z M 1466,-26 c -410,0 -653,354 -743,842 -70,380 -70,933 -70,1293 0,495 0,906 83,1298 122,547 480,714 730,714 262,0 601,-174 723,-701 83,-366 89,-797 89,-1311 0,-418 0,-933 -76,-1312 C 2067,96 1690,-26 1466,-26 Z"
                     transform="scale(0.015625)" />
                  <path
                     id="CMMI12-3a"
                     d="M 1178,307 C 1178,492 1024,620 870,620 685,620 557,467 557,313 557,128 710,0 864,0 c 186,0 314,153 314,307 z"
                     transform="scale(0.015625)" />
                  <path
                     id="CMR17-35"
                     d="m 730,3750 c 64,-26 326,-109 595,-109 595,0 921,320 1107,499 0,51 0,84 -38,84 -7,0 -20,0 -71,-26 -224,-96 -486,-166 -806,-166 -192,0 -480,23 -794,159 -70,33 -83,33 -89,33 -32,0 -39,-7 -39,-134 V 2231 c 0,-118 0,-151 64,-151 32,0 45,13 77,59 205,296 486,421 806,421 224,0 704,-145 704,-1267 0,-206 0,-577 -192,-871 C 1894,159 1645,25 1370,25 947,25 518,319 403,812 c 26,-6 77,-19 103,-19 83,0 243,45 243,243 0,173 -122,244 -243,244 -148,0 -244,-90 -244,-269 0,-557 442,-1139 1120,-1139 660,0 1287,569 1287,1395 0,787 -499,1395 -1120,1395 -327,0 -602,-122 -819,-358 z"
                     transform="scale(0.015625)" />
                </defs>
                <use
                   xlink:href="#CMR17-30"
                   transform="scale(0.996264)"
                   id="use48" />
                <use
                   xlink:href="#CMMI12-3a"
                   transform="matrix(0.996264,0,0,0.996264,45.690477,0)"
                   id="use50" />
                <use
                   xlink:href="#CMR17-35"
                   transform="matrix(0.996264,0,0,0.996264,72.787654,0)"
                   id="use52" />
              </g>
            </g>
          </g>
          <g
             id="xtick_2">
            <g
               id="line2d_2">
              <g
                 id="g60">
                <use
                   xlink:href="#me4a29ff3fe"
                   x="112.73003"
                   y="307.58401"
                   style="stroke:#000000;stroke-width:0.8"
                   id="use58" />
              </g>
            </g>
            <g
               id="text_2">
              <!-- $\mathdefault{1.0}$ -->
              <g
                 transform="matrix(0.1,0,0,-0.1,106.365,321.5025)"
                 id="g72">
                <defs
                   id="defs64">
                  <path
                     id="CMR17-31"
                     d="m 1702,4083 c 0,134 -6,141 -96,141 -249,-297 -627,-391 -985,-404 -19,0 -51,0 -58,-12 -6,-13 -6,-26 -6,-160 198,0 531,38 787,191 V 467 C 1344,243 1331,166 781,166 H 589 V 0 c 307,6 627,12 934,12 307,0 627,-6 935,-12 v 166 h -192 c -551,0 -564,70 -564,301 z"
                     transform="scale(0.015625)" />
                </defs>
                <use
                   xlink:href="#CMR17-31"
                   transform="scale(0.996264)"
                   id="use66" />
                <use
                   xlink:href="#CMMI12-3a"
                   transform="matrix(0.996264,0,0,0.996264,45.690477,0)"
                   id="use68" />
                <use
                   xlink:href="#CMR17-30"
                   transform="matrix(0.996264,0,0,0.996264,72.787654,0)"
                   id="use70" />
              </g>
            </g>
          </g>
          <g
             id="xtick_3">
            <g
               id="line2d_3">
              <g
                 id="g78">
                <use
                   xlink:href="#me4a29ff3fe"
                   x="158.1423"
                   y="307.58401"
                   style="stroke:#000000;stroke-width:0.8"
                   id="use76" />
              </g>
            </g>
            <g
               id="text_3">
              <!-- $\mathdefault{1.5}$ -->
              <g
                 transform="matrix(0.1,0,0,-0.1,151.77726,321.5025)"
                 id="g87">
                <use
                   xlink:href="#CMR17-31"
                   transform="scale(0.996264)"
                   id="use81" />
                <use
                   xlink:href="#CMMI12-3a"
                   transform="matrix(0.996264,0,0,0.996264,45.690477,0)"
                   id="use83" />
                <use
                   xlink:href="#CMR17-35"
                   transform="matrix(0.996264,0,0,0.996264,72.787654,0)"
                   id="use85" />
              </g>
            </g>
          </g>
          <g
             id="xtick_4">
            <g
               id="line2d_4">
              <g
                 id="g93">
                <use
                   xlink:href="#me4a29ff3fe"
                   x="203.55457"
                   y="307.58401"
                   style="stroke:#000000;stroke-width:0.8"
                   id="use91" />
              </g>
            </g>
            <g
               id="text_4">
              <!-- $\mathdefault{2.0}$ -->
              <g
                 transform="matrix(0.1,0,0,-0.1,197.18952,321.5025)"
                 id="g105">
                <defs
                   id="defs97">
                  <path
                     id="CMR17-32"
                     d="M 2669,990 H 2554 C 2490,537 2438,460 2413,422 2381,371 1920,371 1830,371 H 602 c 230,249 678,702 1222,1225 390,370 845,804 845,1437 0,755 -602,1191 -1274,1191 -704,0 -1133,-621 -1133,-1197 0,-250 186,-282 263,-282 64,0 256,38 256,262 0,199 -167,257 -256,257 -39,0 -77,-7 -103,-20 122,544 493,813 884,813 556,0 921,-441 921,-1024 0,-556 -326,-1035 -691,-1450 L 262,147 V 0 h 2253 z"
                     transform="scale(0.015625)" />
                </defs>
                <use
                   xlink:href="#CMR17-32"
                   transform="scale(0.996264)"
                   id="use99" />
                <use
                   xlink:href="#CMMI12-3a"
                   transform="matrix(0.996264,0,0,0.996264,45.690477,0)"
                   id="use101" />
                <use
                   xlink:href="#CMR17-30"
                   transform="matrix(0.996264,0,0,0.996264,72.787654,0)"
                   id="use103" />
              </g>
            </g>
          </g>
          <g
             id="xtick_5">
            <g
               id="line2d_5">
              <g
                 id="g111">
                <use
                   xlink:href="#me4a29ff3fe"
                   x="248.96683"
                   y="307.58401"
                   style="stroke:#000000;stroke-width:0.8"
                   id="use109" />
              </g>
            </g>
            <g
               id="text_5">
              <!-- $\mathdefault{2.5}$ -->
              <g
                 transform="matrix(0.1,0,0,-0.1,242.60179,321.5025)"
                 id="g120">
                <use
                   xlink:href="#CMR17-32"
                   transform="scale(0.996264)"
                   id="use114" />
                <use
                   xlink:href="#CMMI12-3a"
                   transform="matrix(0.996264,0,0,0.996264,45.690477,0)"
                   id="use116" />
                <use
                   xlink:href="#CMR17-35"
                   transform="matrix(0.996264,0,0,0.996264,72.787654,0)"
                   id="use118" />
              </g>
            </g>
          </g>
          <g
             id="xtick_6">
            <g
               id="line2d_6">
              <g
                 id="g126">
                <use
                   xlink:href="#me4a29ff3fe"
                   x="294.37909"
                   y="307.58401"
                   style="stroke:#000000;stroke-width:0.8"
                   id="use124" />
              </g>
            </g>
            <g
               id="text_6">
              <!-- $\mathdefault{3.0}$ -->
              <g
                 transform="matrix(0.1,0,0,-0.1,288.01405,321.5025)"
                 id="g138">
                <defs
                   id="defs130">
                  <path
                     id="CMR17-33"
                     d="m 1414,2176 c 570,0 820,-503 820,-1082 C 2234,322 1824,25 1453,25 1114,25 563,193 390,691 c 32,-13 64,-13 96,-13 154,0 269,102 269,269 0,185 -141,269 -269,269 -108,0 -275,-52 -275,-289 0,-592 576,-1055 1255,-1055 710,0 1254,560 1254,1215 0,631 -512,1089 -1120,1159 486,101 954,530 954,1107 0,503 -506,871 -1082,871 -582,0 -1094,-362 -1094,-877 0,-224 166,-263 249,-263 135,0 250,83 250,250 0,166 -115,250 -250,250 -25,0 -57,0 -83,-13 186,428 691,505 915,505 224,0 647,-110 647,-729 0,-180 -26,-496 -244,-773 -192,-245 -409,-258 -620,-277 -32,0 -180,-13 -205,-13 -45,-6 -71,-12 -71,-57 0,-45 7,-51 135,-51 z"
                     transform="scale(0.015625)" />
                </defs>
                <use
                   xlink:href="#CMR17-33"
                   transform="scale(0.996264)"
                   id="use132" />
                <use
                   xlink:href="#CMMI12-3a"
                   transform="matrix(0.996264,0,0,0.996264,45.690477,0)"
                   id="use134" />
                <use
                   xlink:href="#CMR17-30"
                   transform="matrix(0.996264,0,0,0.996264,72.787654,0)"
                   id="use136" />
              </g>
            </g>
          </g>
          <g
             id="xtick_7">
            <g
               id="line2d_7">
              <g
                 id="g144">
                <use
                   xlink:href="#me4a29ff3fe"
                   x="339.79135"
                   y="307.58401"
                   style="stroke:#000000;stroke-width:0.8"
                   id="use142" />
              </g>
            </g>
            <g
               id="text_7">
              <!-- $\mathdefault{3.5}$ -->
              <g
                 transform="matrix(0.1,0,0,-0.1,333.42631,321.5025)"
                 id="g153">
                <use
                   xlink:href="#CMR17-33"
                   transform="scale(0.996264)"
                   id="use147" />
                <use
                   xlink:href="#CMMI12-3a"
                   transform="matrix(0.996264,0,0,0.996264,45.690477,0)"
                   id="use149" />
                <use
                   xlink:href="#CMR17-35"
                   transform="matrix(0.996264,0,0,0.996264,72.787654,0)"
                   id="use151" />
              </g>
            </g>
          </g>
          <g
             id="xtick_8">
            <g
               id="line2d_8">
              <g
                 id="g159">
                <use
                   xlink:href="#me4a29ff3fe"
                   x="385.20361"
                   y="307.58401"
                   style="stroke:#000000;stroke-width:0.8"
                   id="use157" />
              </g>
            </g>
            <g
               id="text_8">
              <!-- $\mathdefault{4.0}$ -->
              <g
                 transform="matrix(0.1,0,0,-0.1,378.83858,321.5025)"
                 id="g171">
                <defs
                   id="defs163">
                  <path
                     id="CMR17-34"
                     d="m 2150,4147 c 0,134 -6,141 -121,141 L 128,1254 V 1088 H 1779 V 460 c 0,-230 -13,-294 -461,-294 H 1197 V 0 c 205,12 550,12 768,12 217,0 563,0 768,-12 v 166 h -122 c -448,0 -461,64 -461,294 v 628 h 653 v 166 H 2150 Z M 1798,3723 V 1254 H 256 Z"
                     transform="scale(0.015625)" />
                </defs>
                <use
                   xlink:href="#CMR17-34"
                   transform="scale(0.996264)"
                   id="use165" />
                <use
                   xlink:href="#CMMI12-3a"
                   transform="matrix(0.996264,0,0,0.996264,45.690477,0)"
                   id="use167" />
                <use
                   xlink:href="#CMR17-30"
                   transform="matrix(0.996264,0,0,0.996264,72.787654,0)"
                   id="use169" />
              </g>
            </g>
          </g>
        </g>
        <g
           id="matplotlib.axis_2">
          <g
             id="ytick_1">
            <g
               id="line2d_9">
              <defs
                 id="defs177">
                <path
                   id="m2b1609f20d"
                   d="M 0,0 H -3.5"
                   style="stroke:#000000;stroke-width:0.8" />
              </defs>
              <g
                 id="g181">
                <use
                   xlink:href="#m2b1609f20d"
                   x="57.599998"
                   y="307.58401"
                   style="stroke:#000000;stroke-width:0.8"
                   id="use179" />
              </g>
            </g>
            <g
               id="text_9">
              <!-- $\mathdefault{0}$ -->
              <g
                 transform="matrix(0.1,0,0,-0.1,45.618665,311.04325)"
                 id="g186">
                <use
                   xlink:href="#CMR17-30"
                   transform="scale(0.996264)"
                   id="use184" />
              </g>
            </g>
          </g>
          <g
             id="ytick_2">
            <g
               id="line2d_10">
              <g
                 id="g192">
                <use
                   xlink:href="#m2b1609f20d"
                   x="57.599998"
                   y="265.34399"
                   style="stroke:#000000;stroke-width:0.8"
                   id="use190" />
              </g>
            </g>
            <g
               id="text_10">
              <!-- $\mathdefault{1}$ -->
              <g
                 transform="matrix(0.1,0,0,-0.1,45.618665,268.80325)"
                 id="g197">
                <use
                   xlink:href="#CMR17-31"
                   transform="scale(0.996264)"
                   id="use195" />
              </g>
            </g>
          </g>
          <g
             id="ytick_3">
            <g
               id="line2d_11">
              <g
                 id="g203">
                <use
                   xlink:href="#m2b1609f20d"
                   x="57.599998"
                   y="223.104"
                   style="stroke:#000000;stroke-width:0.8"
                   id="use201" />
              </g>
            </g>
            <g
               id="text_11">
              <!-- $\mathdefault{2}$ -->
              <g
                 transform="matrix(0.1,0,0,-0.1,45.618665,226.56325)"
                 id="g208">
                <use
                   xlink:href="#CMR17-32"
                   transform="scale(0.996264)"
                   id="use206" />
              </g>
            </g>
          </g>
          <g
             id="ytick_4">
            <g
               id="line2d_12">
              <g
                 id="g214">
                <use
                   xlink:href="#m2b1609f20d"
                   x="57.599998"
                   y="180.864"
                   style="stroke:#000000;stroke-width:0.8"
                   id="use212" />
              </g>
            </g>
            <g
               id="text_12">
              <!-- $\mathdefault{3}$ -->
              <g
                 transform="matrix(0.1,0,0,-0.1,45.618665,184.32325)"
                 id="g219">
                <use
                   xlink:href="#CMR17-33"
                   transform="scale(0.996264)"
                   id="use217" />
              </g>
            </g>
          </g>
          <g
             id="ytick_5">
            <g
               id="line2d_13">
              <g
                 id="g225">
                <use
                   xlink:href="#m2b1609f20d"
                   x="57.599998"
                   y="138.62399"
                   style="stroke:#000000;stroke-width:0.8"
                   id="use223" />
              </g>
            </g>
            <g
               id="text_13">
              <!-- $\mathdefault{4}$ -->
              <g
                 transform="matrix(0.1,0,0,-0.1,45.618665,142.08325)"
                 id="g230">
                <use
                   xlink:href="#CMR17-34"
                   transform="scale(0.996264)"
                   id="use228" />
              </g>
            </g>
          </g>
          <g
             id="ytick_6">
            <g
               id="line2d_14">
              <g
                 id="g236">
                <use
                   xlink:href="#m2b1609f20d"
                   x="57.599998"
                   y="96.384003"
                   style="stroke:#000000;stroke-width:0.8"
                   id="use234" />
              </g>
            </g>
            <g
               id="text_14">
              <!-- $\mathdefault{5}$ -->
              <g
                 transform="matrix(0.1,0,0,-0.1,45.618665,99.843249)"
                 id="g241">
                <use
                   xlink:href="#CMR17-35"
                   transform="scale(0.996264)"
                   id="use239" />
              </g>
            </g>
          </g>
          <g
             id="ytick_7">
            <g
               id="line2d_15">
              <g
                 id="g247">
                <use
                   xlink:href="#m2b1609f20d"
                   x="57.599998"
                   y="54.144001"
                   style="stroke:#000000;stroke-width:0.8"
                   id="use245" />
              </g>
            </g>
            <g
               id="text_15">
              <!-- $\mathdefault{6}$ -->
              <g
                 transform="matrix(0.1,0,0,-0.1,45.618665,57.603249)"
                 id="g255">
                <defs
                   id="defs251">
                  <path
                     id="CMR17-36"
                     d="m 678,2198 c 0,1514 717,1878 1133,1878 135,0 461,-27 589,-294 -102,0 -294,0 -294,-224 0,-173 140,-230 230,-230 58,0 230,25 230,243 0,416 -320,653 -761,653 -762,0 -1562,-813 -1562,-2213 0,-1754 723,-2139 1235,-2139 621,0 1210,559 1210,1423 0,806 -518,1393 -1171,1393 -391,0 -679,-258 -839,-709 z M 1478,25 c -787,0 -787,1187 -787,1425 0,464 218,1135 813,1135 109,0 422,0 634,-445 115,-251 115,-516 115,-838 0,-348 0,-606 -135,-864 C 1978,173 1773,25 1478,25 Z"
                     transform="scale(0.015625)" />
                </defs>
                <use
                   xlink:href="#CMR17-36"
                   transform="scale(0.996264)"
                   id="use253" />
              </g>
            </g>
          </g>
        </g>
        <g
           id="patch_10">
          <path
             d="M 57.6,307.584 V 41.472"
             style="fill:none;stroke:#000000;stroke-width:0.8;stroke-linecap:square;stroke-linejoin:miter"
             id="path260" />
        </g>
        <g
           id="patch_12">
          <path
             d="M 57.6,307.584 H 414.72"
             style="fill:none;stroke:#000000;stroke-width:0.8;stroke-linecap:square;stroke-linejoin:miter"
             id="path266" />
        </g>
        <rect
           style="fill:#ffffff;fill-opacity:1;stroke-width:2.29606;stroke-dasharray:9.18427, 9.18427"
           id="rect1224"
           width="341.25"
           height="15"
           x="51.237267"
           y="314.09399"
           ry="5.161953" />
        <rect
           style="fill:#ffffff;fill-opacity:1;stroke-width:2.30413;stroke-dasharray:9.21655, 9.21655"
           id="rect1226"
           width="11.250001"
           height="268.125"
           x="38.48727"
           y="45.968998"
           ry="5.1983047" />
        <text
           xml:space="preserve"
           style="font-size:18px;line-height:1.43;font-family:Calibri;-inkscape-font-specification:Calibri;text-align:center;text-anchor:middle;fill:#000000;fill-opacity:1;stroke-width:2.29606;stroke-dasharray:9.18427, 9.18427"
           x="105.98727"
           y="340.34399"
           id="text2008"
           transform="translate(6.457028,-10.792963)"><tspan
             sodipodi:role="line"
             id="tspan2006"
             style="font-size:18px;fill:#000000;stroke-width:2.29606"
             x="105.98727"
             y="340.34399">1</tspan></text>
        <text
           xml:space="preserve"
           style="font-size:18px;line-height:1.43;font-family:Calibri;-inkscape-font-specification:Calibri;text-align:center;text-anchor:middle;fill:#000000;fill-opacity:1;stroke-width:2.29606;stroke-dasharray:9.18427, 9.18427"
           x="147.39694"
           y="340.54614"
           id="text2790"
           transform="translate(6.457028,-10.792963)"><tspan
             sodipodi:role="line"
             id="tspan2788"
             style="font-size:18px;stroke-width:2.29606"
             x="147.39694"
             y="340.54614">1.5</tspan></text>
        <text
           xml:space="preserve"
           style="font-size:18px;line-height:1.43;font-family:Calibri;-inkscape-font-specification:Calibri;text-align:center;text-anchor:middle;fill:#000000;fill-opacity:1;stroke-width:2.29606;stroke-dasharray:9.18427, 9.18427"
           x="191.48727"
           y="340.34399"
           id="text2794"
           transform="translate(6.457028,-10.792963)"><tspan
             sodipodi:role="line"
             id="tspan2792"
             style="font-size:18px;stroke-width:2.29606"
             x="191.48727"
             y="340.34399">2</tspan></text>
        <text
           xml:space="preserve"
           style="font-size:18px;line-height:1.43;font-family:Calibri;-inkscape-font-specification:Calibri;text-align:center;text-anchor:middle;fill:#000000;fill-opacity:1;stroke-width:2.29606;stroke-dasharray:9.18427, 9.18427"
           x="235.73727"
           y="340.34399"
           id="text2848"
           transform="translate(6.457028,-10.792963)"><tspan
             sodipodi:role="line"
             id="tspan2846"
             style="font-size:18px;stroke-width:2.29606"
             x="235.73727"
             y="340.34399">2.5</tspan></text>
        <text
           xml:space="preserve"
           style="font-size:18px;line-height:1.43;font-family:Calibri;-inkscape-font-specification:Calibri;text-align:center;text-anchor:middle;fill:#000000;fill-opacity:1;stroke-width:2.29606;stroke-dasharray:9.18427, 9.18427"
           x="281.48727"
           y="340.34399"
           id="text2852"
           transform="translate(6.457028,-10.792963)"><tspan
             sodipodi:role="line"
             id="tspan2850"
             style="font-size:18px;stroke-width:2.29606"
             x="281.48727"
             y="340.34399">3</tspan></text>
        <text
           xml:space="preserve"
           style="font-size:18px;line-height:1.43;font-family:Calibri;-inkscape-font-specification:Calibri;text-align:center;text-anchor:middle;fill:#000000;fill-opacity:1;stroke-width:2.29606;stroke-dasharray:9.18427, 9.18427"
           x="327.39694"
           y="340.177"
           id="text2856"
           transform="translate(6.457028,-10.792963)"><tspan
             sodipodi:role="line"
             id="tspan2854"
             style="font-size:18px;stroke-width:2.29606"
             x="327.39694"
             y="340.177">3.5</tspan></text>
        <text
           xml:space="preserve"
           style="font-size:18px;line-height:1.43;font-family:Calibri;-inkscape-font-specification:Calibri;text-align:center;text-anchor:middle;fill:#000000;fill-opacity:1;stroke-width:2.29606;stroke-dasharray:9.18427, 9.18427"
           x="371.48727"
           y="340.34399"
           id="text2860"
           transform="translate(6.457028,-10.792963)"><tspan
             sodipodi:role="line"
             id="tspan2858"
             style="font-size:18px;stroke-width:2.29606"
             x="371.48727"
             y="340.34399">4</tspan></text>
        <text
           xml:space="preserve"
           style="font-size:16px;line-height:1.43;font-family:Calibri;-inkscape-font-specification:Calibri;text-align:center;text-anchor:middle;fill:#000000;fill-opacity:1;stroke-width:2.29606;stroke-dasharray:9.18427, 9.18427"
           x="61.896938"
           y="340.177"
           id="text2864"
           transform="translate(6.457028,-10.792963)"><tspan
             sodipodi:role="line"
             id="tspan2862"
             style="font-size:16px;stroke-width:2.29606"
             x="61.896938"
             y="340.177"><tspan
               style="font-size:18px"
               id="tspan2868">0.5</tspan></tspan></text>
        <g
           id="g5299"
           transform="translate(45)">
          <text
             xml:space="preserve"
             style="font-size:18px;line-height:1.43;font-family:Calibri;-inkscape-font-specification:Calibri;text-align:center;text-anchor:middle;fill:#000000;fill-opacity:1;stroke-width:2.29606;stroke-dasharray:9.18427, 9.18427"
             x="-2.7627287"
             y="55.344002"
             id="text5259"><tspan
               sodipodi:role="line"
               id="tspan5257"
               style="stroke-width:2.29606"
               x="-2.7627287"
               y="55.344002">6</tspan></text>
          <text
             xml:space="preserve"
             style="font-size:18px;line-height:1.43;font-family:Calibri;-inkscape-font-specification:Calibri;text-align:center;text-anchor:middle;fill:#000000;fill-opacity:1;stroke-width:2.29606;stroke-dasharray:9.18427, 9.18427"
             x="-2.7627287"
             y="100.344"
             id="text5263"><tspan
               sodipodi:role="line"
               id="tspan5261"
               style="stroke-width:2.29606"
               x="-2.7627287"
               y="100.344">5</tspan></text>
          <text
             xml:space="preserve"
             style="font-size:18px;line-height:1.43;font-family:Calibri;-inkscape-font-specification:Calibri;text-align:center;text-anchor:middle;fill:#000000;fill-opacity:1;stroke-width:2.29606;stroke-dasharray:9.18427, 9.18427"
             x="-2.7627287"
             y="145.34399"
             id="text5267"><tspan
               sodipodi:role="line"
               id="tspan5265"
               style="stroke-width:2.29606"
               x="-2.7627287"
               y="145.34399">4</tspan></text>
          <text
             xml:space="preserve"
             style="font-size:18px;line-height:1.43;font-family:Calibri;-inkscape-font-specification:Calibri;text-align:center;text-anchor:middle;fill:#000000;fill-opacity:1;stroke-width:2.29606;stroke-dasharray:9.18427, 9.18427"
             x="-2.7627287"
             y="186.59399"
             id="text5271"><tspan
               id="tspan5269"
               style="stroke-width:2.29606"
               x="-2.7627287"
               y="186.59399"
               sodipodi:role="line">3</tspan></text>
          <text
             xml:space="preserve"
             style="font-size:18px;line-height:1.43;font-family:Calibri;-inkscape-font-specification:Calibri;text-align:center;text-anchor:middle;fill:#000000;fill-opacity:1;stroke-width:2.29606;stroke-dasharray:9.18427, 9.18427"
             x="-2.9531584"
             y="228.13403"
             id="text5275"><tspan
               sodipodi:role="line"
               id="tspan5273"
               style="stroke-width:2.29606"
               x="-2.9531584"
               y="228.13403">2</tspan></text>
          <text
             xml:space="preserve"
             style="font-size:18px;line-height:1.43;font-family:Calibri;-inkscape-font-specification:Calibri;text-align:center;text-anchor:middle;fill:#000000;fill-opacity:1;stroke-width:2.29606;stroke-dasharray:9.18427, 9.18427"
             x="-2.7627287"
             y="269.09399"
             id="text5279"><tspan
               sodipodi:role="line"
               id="tspan5277"
               style="stroke-width:2.29606"
               x="-2.7627287"
               y="269.09399">1</tspan></text>
          <text
             xml:space="preserve"
             style="font-size:18px;line-height:1.43;font-family:Calibri;-inkscape-font-specification:Calibri;text-align:center;text-anchor:middle;fill:#000000;fill-opacity:1;stroke-width:2.29606;stroke-dasharray:9.18427, 9.18427"
             x="-2.9502287"
             y="310.63403"
             id="text5283"><tspan
               sodipodi:role="line"
               id="tspan5281"
               style="stroke-width:2.29606"
               x="-2.9502287"
               y="310.63403">0</tspan></text>
        </g>
      </g>
      <text
         xml:space="preserve"
         style="font-size:18px;line-height:1.43;font-family:Calibri;-inkscape-font-specification:Calibri;text-align:center;text-anchor:middle;fill:#000000;fill-opacity:1;stroke-width:2.29606;stroke-dasharray:9.18427, 9.18427"
         x="241.42673"
         y="344.63599"
         id="text5724"><tspan
           sodipodi:role="line"
           id="tspan5722"
           style="stroke-width:2.29606"
           x="241.42673"
           y="344.63599">Weighted rich-club coefficients</tspan></text>
      <text
         xml:space="preserve"
         style="font-size:18px;line-height:1.43;font-family:Calibri;-inkscape-font-specification:Calibri;text-align:center;text-anchor:middle;fill:#000000;fill-opacity:1;stroke-width:2.29606;stroke-dasharray:9.18427, 9.18427"
         x="-160.34399"
         y="30.98727"
         id="text7180"
         transform="rotate(-90)"><tspan
           sodipodi:role="line"
           id="tspan7178"
           style="stroke-width:2.29606"
           x="-160.34399"
           y="30.98727">Count</tspan></text>
    </g>
  </g>
  <defs
     id="defs277">
    <clipPath
       id="pde1118bee9">
      <rect
         x="57.6"
         y="41.472"
         width="357.12"
         height="266.112"
         id="rect274" />
    </clipPath>
  </defs>
</svg>
