<?xml version="1.0" encoding="utf-8" standalone="no"?>
<!DOCTYPE svg PUBLIC "-//W3C//DTD SVG 1.1//EN"
  "http://www.w3.org/Graphics/SVG/1.1/DTD/svg11.dtd">
<svg xmlns:xlink="http://www.w3.org/1999/xlink" width="432pt" height="392.4pt" viewBox="0 0 432 392.4" xmlns="http://www.w3.org/2000/svg" version="1.1">
 <metadata>
  <rdf:RDF xmlns:dc="http://purl.org/dc/elements/1.1/" xmlns:cc="http://creativecommons.org/ns#" xmlns:rdf="http://www.w3.org/1999/02/22-rdf-syntax-ns#">
   <cc:Work>
    <dc:type rdf:resource="http://purl.org/dc/dcmitype/StillImage"/>
    <dc:date>2025-04-24T12:58:40.484547</dc:date>
    <dc:format>image/svg+xml</dc:format>
    <dc:creator>
     <cc:Agent>
      <dc:title>Matplotlib v3.7.5, https://matplotlib.org/</dc:title>
     </cc:Agent>
    </dc:creator>
   </cc:Work>
  </rdf:RDF>
 </metadata>
 <defs>
  <style type="text/css">*{stroke-linejoin: round; stroke-linecap: butt}</style>
 </defs>
 <g id="figure_1">
  <g id="patch_1">
   <path d="M 0 392.4 
L 432 392.4 
L 432 0 
L 0 0 
z
" style="fill: #ffffff"/>
  </g>
  <g id="axes_1">
   <g id="matplotlib.axis_1"/>
   <g id="matplotlib.axis_2"/>
   <g id="patch_2">
    <path d="M 218.154436 82.400219 
C 205.161259 82.400219 192.252691 84.4955 179.926596 88.60525 
C 167.600502 92.715 156.017411 98.785695 145.624067 106.583197 
C 135.230722 114.3807 126.162484 123.803458 118.769099 134.488051 
C 111.375714 145.172643 105.753472 156.979917 102.119214 169.454484 
C 98.484956 181.929051 96.886014 194.908447 97.384056 207.892075 
C 97.882097 220.875704 100.470637 233.694471 105.049838 245.853976 
C 109.62904 258.013481 116.139265 269.355364 124.329425 279.442183 
C 132.519585 289.529003 142.283013 298.229394 153.24315 305.207794 
C 164.203286 312.186194 176.217389 317.351719 188.822093 320.505143 
C 201.426797 323.658567 214.457944 324.758821 227.41294 323.76347 
C 240.367936 322.768118 253.078061 319.690125 265.053105 314.648202 
C 277.028149 309.60628 288.112152 302.666093 297.877622 294.095314 
C 307.643092 285.524535 315.962846 275.434787 322.516004 264.215216 
C 329.069163 252.995645 333.770379 240.792371 336.438335 228.076056 
C 339.10629 215.359741 339.706238 202.295998 338.21504 189.388675 
C 336.723842 176.481353 333.160918 163.898551 327.663685 152.12557 
L 261.958135 182.805879 
C 264.157029 187.515072 265.582198 192.548192 266.178677 197.711121 
C 266.775157 202.87405 266.535177 208.099548 265.467995 213.186074 
C 264.400813 218.2726 262.520326 223.153909 259.899063 227.641738 
C 257.2778 232.129566 253.949898 236.165465 250.04371 239.593777 
C 246.137522 243.022088 241.703921 245.798163 236.913903 247.814932 
C 232.123886 249.831701 227.039836 251.062899 221.857837 251.461039 
C 216.675839 251.85918 211.46338 251.419078 206.421499 250.157709 
C 201.379617 248.896339 196.573976 246.830129 192.189921 244.038769 
C 187.805867 241.247409 183.900495 237.767253 180.624431 233.732525 
C 177.348368 229.697797 174.744277 225.161044 172.912597 220.297242 
C 171.080916 215.43344 170.0455 210.305933 169.846284 205.112481 
C 169.647067 199.91903 170.286644 194.727272 171.740347 189.737445 
C 173.19405 184.747618 175.442947 180.024709 178.400301 175.750872 
C 181.357655 171.477035 184.98495 167.707931 189.142288 164.58893 
C 193.299626 161.469929 197.932862 159.041651 202.8633 157.397751 
C 207.793738 155.753851 212.957165 154.915739 218.154436 154.915739 
z
" style="fill: #696969; stroke: #000000; stroke-linejoin: miter"/>
   </g>
   <g id="patch_3">
    <path d="M 330.909249 147.028151 
C 321.181152 126.194269 305.706734 108.562851 286.311291 96.213628 
C 266.915848 83.864405 244.393195 77.302802 221.400011 77.3028 
L 221.400005 149.81832 
C 230.597278 149.818321 239.606339 152.442962 247.364516 157.382651 
C 255.122693 162.322341 261.312461 169.374907 265.2037 177.70846 
z
" style="fill: #d3d3d3; stroke: #000000; stroke-linejoin: miter"/>
   </g>
   <g id="text_1">
    <!-- Asymmetric chasings -->
    <g transform="translate(11.078971 319.387687) scale(0.16 -0.16)">
     <defs>
      <path id="CMSS17-41" d="M 2272 4416 
L 1722 4416 
L 166 0 
L 653 0 
L 1101 1280 
L 2816 1280 
L 3270 0 
L 3827 0 
L 2272 4416 
z
M 2694 1637 
L 1222 1637 
C 1530 2528 1914 3638 1958 3925 
L 1965 3925 
C 2010 3663 2138 3281 2246 2956 
L 2694 1637 
z
" transform="scale(0.015625)"/>
      <path id="CMSS17-73" d="M 2061 2627 
C 1683 2807 1389 2807 1197 2807 
C 742 2807 198 2648 198 2003 
C 198 1359 902 1218 1094 1179 
C 1389 1122 1715 1058 1715 740 
C 1715 337 1254 337 1171 337 
C 915 337 563 407 243 638 
L 166 210 
C 531 0 883 -64 1178 -64 
C 1965 -64 2163 416 2163 781 
C 2163 1094 1984 1305 1862 1401 
C 1651 1568 1574 1587 1050 1696 
C 960 1709 646 1779 646 2066 
C 646 2432 1050 2432 1139 2432 
C 1555 2432 1811 2303 1984 2208 
L 2061 2627 
z
" transform="scale(0.015625)"/>
      <path id="CMSS17-79" d="M 2675 2752 
L 2176 2752 
C 1632 1294 1446 702 1434 383 
L 1427 383 
C 1408 696 1126 1460 902 2007 
L 602 2752 
L 83 2752 
L 1216 13 
C 1146 -178 1043 -465 1011 -529 
C 870 -885 774 -885 672 -885 
C 646 -885 442 -885 211 -809 
L 250 -1229 
C 410 -1261 570 -1280 685 -1280 
C 845 -1280 1165 -1280 1459 -497 
L 2675 2752 
z
" transform="scale(0.015625)"/>
      <path id="CMSS17-6d" d="M 4288 1877 
C 4288 2308 4179 2816 3462 2816 
C 2982 2816 2694 2516 2566 2331 
C 2451 2670 2182 2816 1798 2816 
C 1363 2816 1088 2568 941 2389 
L 941 2758 
L 474 2758 
L 474 0 
L 960 0 
L 960 1559 
C 960 1939 1101 2428 1555 2428 
C 2138 2428 2138 2016 2138 1829 
L 2138 0 
L 2624 0 
L 2624 1559 
C 2624 1939 2765 2428 3219 2428 
C 3802 2428 3802 2016 3802 1829 
L 3802 0 
L 4288 0 
L 4288 1877 
z
" transform="scale(0.015625)"/>
      <path id="CMSS17-65" d="M 2502 1377 
C 2502 1590 2490 2003 2285 2345 
C 2061 2713 1696 2816 1421 2816 
C 755 2816 192 2188 192 1375 
C 192 582 774 -64 1510 -64 
C 1798 -64 2150 19 2470 248 
C 2470 274 2458 414 2451 420 
C 2451 433 2432 630 2432 656 
C 2125 407 1773 325 1517 325 
C 1107 325 666 667 646 1377 
L 2502 1377 
z
M 698 1728 
C 781 2084 1062 2421 1421 2421 
C 1517 2421 1965 2421 2080 1728 
L 698 1728 
z
" transform="scale(0.015625)"/>
      <path id="CMSS17-74" d="M 1069 2368 
L 1901 2368 
L 1901 2737 
L 1069 2737 
L 1069 3520 
L 614 3520 
L 614 2737 
L 109 2737 
L 109 2368 
L 602 2368 
L 602 749 
C 602 384 685 -64 1107 -64 
C 1427 -64 1722 25 2003 172 
L 1901 548 
C 1747 414 1562 337 1363 337 
C 1082 337 1069 696 1069 856 
L 1069 2368 
z
" transform="scale(0.015625)"/>
      <path id="CMSS17-72" d="M 954 1363 
C 954 1965 1395 2368 1958 2368 
L 1958 2789 
C 1549 2789 1165 2585 934 2253 
L 934 2758 
L 480 2758 
L 480 0 
L 954 0 
L 954 1363 
z
" transform="scale(0.015625)"/>
      <path id="CMSS17-69" d="M 979 4183 
L 442 4183 
L 442 3648 
L 979 3648 
L 979 4183 
z
M 947 2739 
L 474 2739 
L 474 0 
L 947 0 
L 947 2739 
z
" transform="scale(0.015625)"/>
      <path id="CMSS17-63" d="M 2464 2541 
C 2464 2585 2170 2714 2093 2739 
C 1882 2816 1613 2816 1542 2816 
C 710 2816 211 2093 211 1363 
C 211 595 768 -64 1517 -64 
C 1946 -64 2253 76 2502 242 
L 2464 664 
C 2189 453 1869 337 1523 337 
C 1024 337 698 774 698 1369 
C 698 1831 909 2414 1549 2414 
C 1901 2414 2099 2343 2394 2145 
L 2464 2541 
z
" transform="scale(0.015625)"/>
      <path id="CMSS17-68" d="M 2618 1891 
C 2618 2292 2522 2820 1798 2820 
C 1395 2820 1133 2623 947 2407 
L 947 4448 
L 474 4448 
L 474 32 
L 960 32 
L 960 1573 
C 960 1973 1114 2432 1549 2432 
C 2112 2432 2131 2056 2131 1839 
L 2131 32 
L 2618 32 
L 2618 1891 
z
" transform="scale(0.015625)"/>
      <path id="CMSS17-61" d="M 2406 1791 
C 2406 2392 1978 2808 1402 2808 
C 1120 2808 813 2757 461 2553 
L 499 2135 
C 659 2248 934 2432 1395 2432 
C 1722 2432 1920 2180 1920 1782 
L 1920 1536 
C 896 1536 256 1238 256 726 
C 256 461 416 -64 947 -64 
C 1043 -64 1562 -64 1933 217 
L 1933 -19 
L 2406 -19 
L 2406 1791 
z
M 1920 816 
C 1920 701 1920 548 1728 434 
C 1562 325 1350 325 1261 325 
C 941 325 723 511 723 744 
C 723 1211 1722 1211 1920 1211 
L 1920 816 
z
" transform="scale(0.015625)"/>
      <path id="CMSS17-6e" d="M 2618 1877 
C 2618 2283 2522 2816 1798 2816 
C 1389 2816 1120 2606 941 2389 
L 941 2758 
L 474 2758 
L 474 0 
L 960 0 
L 960 1559 
C 960 1964 1114 2428 1549 2428 
C 2112 2428 2131 2048 2131 1829 
L 2131 0 
L 2618 0 
L 2618 1877 
z
" transform="scale(0.015625)"/>
      <path id="CMSS17-67" d="M 2848 2808 
C 2483 2808 2170 2738 1914 2617 
C 1702 2777 1485 2808 1338 2808 
C 781 2808 358 2349 358 1814 
C 358 1468 550 1207 563 1195 
C 448 1035 384 863 384 672 
C 384 448 474 289 544 200 
C 211 -3 166 -314 166 -435 
C 166 -898 749 -1280 1498 -1280 
C 2253 -1280 2835 -898 2835 -428 
C 2835 448 1856 448 1587 448 
L 1069 448 
C 973 448 717 448 717 791 
C 717 921 774 1004 781 1010 
C 877 940 1075 832 1338 832 
C 1869 832 2310 1278 2310 1827 
C 2310 2132 2170 2355 2112 2432 
L 2131 2432 
C 2150 2432 2419 2432 2515 2432 
C 2720 2432 2739 2429 2918 2419 
L 2848 2808 
z
M 1338 1182 
C 1120 1182 813 1315 813 1823 
C 813 2375 1165 2464 1331 2464 
C 1549 2464 1856 2331 1856 1823 
C 1856 1271 1504 1182 1338 1182 
z
M 1581 -10 
C 1734 -10 2381 -10 2381 -442 
C 2381 -714 1984 -929 1504 -929 
C 1018 -929 621 -720 621 -435 
C 621 -403 621 -10 1062 -10 
L 1581 -10 
z
" transform="scale(0.015625)"/>
     </defs>
     <use xlink:href="#CMSS17-41" transform="scale(0.996264)"/>
     <use xlink:href="#CMSS17-73" transform="translate(62.217855 0) scale(0.996264)"/>
     <use xlink:href="#CMSS17-79" transform="translate(98.131397 0) scale(0.996264)"/>
     <use xlink:href="#CMSS17-6d" transform="translate(141.131539 0) scale(0.996264)"/>
     <use xlink:href="#CMSS17-6d" transform="translate(215.360793 0) scale(0.996264)"/>
     <use xlink:href="#CMSS17-65" transform="translate(289.590047 0) scale(0.996264)"/>
     <use xlink:href="#CMSS17-74" transform="translate(331.22887 0) scale(0.996264)"/>
     <use xlink:href="#CMSS17-72" transform="translate(365.060436 0) scale(0.996264)"/>
     <use xlink:href="#CMSS17-69" transform="translate(396.970209 0) scale(0.996264)"/>
     <use xlink:href="#CMSS17-63" transform="translate(419.150932 0) scale(0.996264)"/>
     <use xlink:href="#CMSS17-63" transform="translate(492.018867 0) scale(0.996264)"/>
     <use xlink:href="#CMSS17-68" transform="translate(533.657689 0) scale(0.996264)"/>
     <use xlink:href="#CMSS17-61" transform="translate(581.862632 0) scale(0.996264)"/>
     <use xlink:href="#CMSS17-73" transform="translate(626.784552 0) scale(0.996264)"/>
     <use xlink:href="#CMSS17-69" transform="translate(662.698094 0) scale(0.996264)"/>
     <use xlink:href="#CMSS17-6e" transform="translate(684.878817 0) scale(0.996264)"/>
     <use xlink:href="#CMSS17-67" transform="translate(733.083761 0) scale(0.996264)"/>
     <use xlink:href="#CMSS17-73" transform="translate(779.927384 0) scale(0.996264)"/>
    </g>
   </g>
   <g id="text_2">
    <!-- 82.0\% -->
    <g transform="translate(158.830587 268.4135) scale(0.16 -0.16)">
     <defs>
      <path id="CMSS17-38" d="M 1933 2222 
C 2419 2380 2669 2760 2669 3134 
C 2669 3722 2157 4229 1504 4229 
C 826 4229 333 3708 333 3144 
C 333 2780 576 2403 1069 2241 
C 442 1997 250 1512 250 1149 
C 250 446 819 -128 1498 -128 
C 2202 -128 2752 455 2752 1138 
C 2752 1557 2502 2000 1933 2222 
z
M 1504 2432 
C 1075 2432 787 2712 787 3136 
C 787 3566 1075 3840 1504 3840 
C 1901 3840 2214 3591 2214 3136 
C 2214 2687 1907 2432 1504 2432 
z
M 1504 267 
C 1139 267 749 517 749 1156 
C 749 1813 1184 2043 1498 2043 
C 1843 2043 2253 1800 2253 1156 
C 2253 491 1830 267 1504 267 
z
" transform="scale(0.015625)"/>
      <path id="CMSS17-32" d="M 1651 1357 
C 1830 1541 2099 1764 2285 1987 
C 2464 2204 2701 2511 2701 2957 
C 2701 3657 2227 4288 1421 4288 
C 787 4288 422 3893 250 3274 
L 499 2929 
C 640 3510 838 3880 1338 3880 
C 1888 3880 2195 3433 2195 2942 
C 2195 2355 1747 1901 1408 1563 
C 1030 1187 659 804 301 408 
L 301 0 
L 2701 0 
L 2701 433 
L 1613 433 
C 1536 433 1459 433 1382 433 
L 742 433 
L 742 439 
L 1651 1357 
z
" transform="scale(0.015625)"/>
      <path id="CMSS17-2e" d="M 1088 510 
L 576 510 
L 576 0 
L 1088 0 
L 1088 510 
z
" transform="scale(0.015625)"/>
      <path id="CMSS17-30" d="M 2758 2044 
C 2758 2405 2752 3077 2490 3596 
C 2227 4096 1805 4229 1504 4229 
C 1069 4229 698 3975 506 3570 
C 301 3146 243 2709 243 2044 
C 243 1589 262 1031 493 543 
C 755 5 1197 -128 1498 -128 
C 1894 -128 2278 81 2496 518 
C 2720 974 2758 1474 2758 2044 
z
M 1498 261 
C 1011 261 864 811 819 995 
C 742 1310 730 1614 730 2114 
C 730 2506 730 2948 851 3297 
C 998 3701 1254 3840 1498 3840 
C 1971 3840 2125 3372 2176 3208 
C 2272 2873 2272 2481 2272 2114 
C 2272 1526 2272 261 1498 261 
z
" transform="scale(0.015625)"/>
      <path id="CMSS17-25" d="M 3923 4583 
C 3962 4647 3962 4679 3962 4685 
C 3962 4755 3904 4800 3853 4800 
C 3782 4800 3750 4749 3718 4685 
L 1101 -104 
C 1088 -129 1062 -167 1062 -206 
C 1062 -276 1120 -320 1178 -320 
C 1235 -320 1248 -295 1299 -206 
L 3923 4583 
z
M 4678 959 
C 4678 1698 4282 2240 3846 2240 
C 3418 2240 3008 1711 3008 959 
C 3008 208 3418 -320 3846 -320 
C 4288 -320 4678 221 4678 959 
z
M 3846 68 
C 3712 68 3494 189 3494 959 
C 3494 1724 3712 1851 3846 1851 
C 4083 1851 4211 1386 4211 959 
C 4211 533 4083 68 3846 68 
z
M 2003 3519 
C 2003 4258 1606 4800 1171 4800 
C 742 4800 333 4271 333 3519 
C 333 2768 742 2240 1171 2240 
C 1613 2240 2003 2781 2003 3519 
z
M 1171 2628 
C 1037 2628 819 2749 819 3519 
C 819 4284 1037 4411 1171 4411 
C 1408 4411 1536 3946 1536 3519 
C 1536 3093 1408 2628 1171 2628 
z
" transform="scale(0.015625)"/>
     </defs>
     <use xlink:href="#CMSS17-38" transform="scale(0.996264)"/>
     <use xlink:href="#CMSS17-32" transform="translate(46.843624 0) scale(0.996264)"/>
     <use xlink:href="#CMSS17-2e" transform="translate(93.687247 0) scale(0.996264)"/>
     <use xlink:href="#CMSS17-30" transform="translate(119.711452 0) scale(0.996264)"/>
     <use xlink:href="#CMSS17-25" transform="translate(166.555075 0) scale(0.996264)"/>
    </g>
   </g>
   <g id="text_3">
    <!-- Symmetric chasings -->
    <g transform="translate(292.80242 90.003847) scale(0.16 -0.16)">
     <defs>
      <path id="CMSS17-53" d="M 2797 4169 
C 2515 4334 2208 4480 1690 4480 
C 864 4480 333 3879 333 3266 
C 333 3025 403 2753 653 2475 
C 902 2196 1184 2121 1542 2033 
C 1690 1994 1939 1924 1984 1906 
C 2342 1767 2515 1444 2515 1140 
C 2515 742 2202 318 1645 318 
C 1453 318 890 318 358 819 
L 269 318 
C 794 -64 1363 -128 1651 -128 
C 2438 -128 3002 488 3002 1186 
C 3002 1440 2925 1763 2656 2061 
C 2394 2347 2163 2410 1638 2549 
C 1338 2626 1146 2677 986 2873 
C 877 3013 819 3146 819 3317 
C 819 3673 1126 4060 1690 4060 
C 1971 4060 2336 4002 2707 3660 
L 2797 4169 
z
" transform="scale(0.015625)"/>
     </defs>
     <use xlink:href="#CMSS17-53" transform="scale(0.996264)"/>
     <use xlink:href="#CMSS17-79" transform="translate(52.048516 0) scale(0.996264)"/>
     <use xlink:href="#CMSS17-6d" transform="translate(95.048658 0) scale(0.996264)"/>
     <use xlink:href="#CMSS17-6d" transform="translate(169.277912 0) scale(0.996264)"/>
     <use xlink:href="#CMSS17-65" transform="translate(243.507167 0) scale(0.996264)"/>
     <use xlink:href="#CMSS17-74" transform="translate(285.145989 0) scale(0.996264)"/>
     <use xlink:href="#CMSS17-72" transform="translate(318.977555 0) scale(0.996264)"/>
     <use xlink:href="#CMSS17-69" transform="translate(350.887328 0) scale(0.996264)"/>
     <use xlink:href="#CMSS17-63" transform="translate(373.068051 0) scale(0.996264)"/>
     <use xlink:href="#CMSS17-63" transform="translate(445.935986 0) scale(0.996264)"/>
     <use xlink:href="#CMSS17-68" transform="translate(487.574808 0) scale(0.996264)"/>
     <use xlink:href="#CMSS17-61" transform="translate(535.779751 0) scale(0.996264)"/>
     <use xlink:href="#CMSS17-73" transform="translate(580.701672 0) scale(0.996264)"/>
     <use xlink:href="#CMSS17-69" transform="translate(616.615214 0) scale(0.996264)"/>
     <use xlink:href="#CMSS17-6e" transform="translate(638.795937 0) scale(0.996264)"/>
     <use xlink:href="#CMSS17-67" transform="translate(687.00088 0) scale(0.996264)"/>
     <use xlink:href="#CMSS17-73" transform="translate(733.844503 0) scale(0.996264)"/>
    </g>
   </g>
   <g id="text_4">
    <!-- 18.0\% -->
    <g transform="translate(239.969697 140.978033) scale(0.16 -0.16)">
     <defs>
      <path id="CMSS17-31" d="M 1818 4288 
L 1696 4288 
C 1350 3940 947 3890 538 3890 
L 538 3520 
C 723 3520 1024 3520 1325 3667 
L 1325 369 
L 570 369 
L 570 0 
L 2573 0 
L 2573 369 
L 1818 369 
L 1818 4288 
z
" transform="scale(0.015625)"/>
     </defs>
     <use xlink:href="#CMSS17-31" transform="scale(0.996264)"/>
     <use xlink:href="#CMSS17-38" transform="translate(46.843624 0) scale(0.996264)"/>
     <use xlink:href="#CMSS17-2e" transform="translate(93.687247 0) scale(0.996264)"/>
     <use xlink:href="#CMSS17-30" transform="translate(119.711452 0) scale(0.996264)"/>
     <use xlink:href="#CMSS17-25" transform="translate(166.555075 0) scale(0.996264)"/>
    </g>
   </g>
   <g id="text_5">
    <!-- Symmetry of chasing  -->
    <g style="fill: #262626" transform="translate(147.624846 22.655976) scale(0.18 -0.18)">
     <defs>
      <path id="CMSS17-6f" d="M 2829 1356 
C 2829 2176 2221 2816 1504 2816 
C 768 2816 173 2157 173 1356 
C 173 544 787 -64 1498 -64 
C 2227 -64 2829 563 2829 1356 
z
M 1504 337 
C 1050 337 659 709 659 1408 
C 659 2151 1114 2427 1498 2427 
C 1914 2427 2342 2126 2342 1408 
C 2342 683 1926 337 1504 337 
z
" transform="scale(0.015625)"/>
      <path id="CMSS17-66" d="M 1075 2368 
L 1722 2368 
L 1722 2737 
L 1062 2737 
L 1062 3559 
C 1062 4014 1408 4092 1606 4092 
C 1670 4092 1850 4092 2080 4009 
L 2080 4429 
C 1933 4461 1754 4480 1613 4480 
C 1018 4480 602 3993 602 3359 
L 602 2737 
L 160 2737 
L 160 2368 
L 602 2368 
L 602 0 
L 1075 0 
L 1075 2368 
z
" transform="scale(0.015625)"/>
     </defs>
     <use xlink:href="#CMSS17-53" transform="scale(0.996264)"/>
     <use xlink:href="#CMSS17-79" transform="translate(52.048516 0) scale(0.996264)"/>
     <use xlink:href="#CMSS17-6d" transform="translate(95.048658 0) scale(0.996264)"/>
     <use xlink:href="#CMSS17-6d" transform="translate(169.277912 0) scale(0.996264)"/>
     <use xlink:href="#CMSS17-65" transform="translate(243.507167 0) scale(0.996264)"/>
     <use xlink:href="#CMSS17-74" transform="translate(285.145989 0) scale(0.996264)"/>
     <use xlink:href="#CMSS17-72" transform="translate(318.977555 0) scale(0.996264)"/>
     <use xlink:href="#CMSS17-79" transform="translate(350.887328 0) scale(0.996264)"/>
     <use xlink:href="#CMSS17-6f" transform="translate(425.116582 0) scale(0.996264)"/>
     <use xlink:href="#CMSS17-66" transform="translate(471.960206 0) scale(0.996264)"/>
     <use xlink:href="#CMSS17-63" transform="translate(531.815978 0) scale(0.996264)"/>
     <use xlink:href="#CMSS17-68" transform="translate(573.4548 0) scale(0.996264)"/>
     <use xlink:href="#CMSS17-61" transform="translate(621.659743 0) scale(0.996264)"/>
     <use xlink:href="#CMSS17-73" transform="translate(666.581663 0) scale(0.996264)"/>
     <use xlink:href="#CMSS17-69" transform="translate(702.495205 0) scale(0.996264)"/>
     <use xlink:href="#CMSS17-6e" transform="translate(724.675928 0) scale(0.996264)"/>
     <use xlink:href="#CMSS17-67" transform="translate(772.880872 0) scale(0.996264)"/>
    </g>
    <!--  whole population -->
    <g style="fill: #262626" transform="translate(161.447332 41.088) scale(0.18 -0.18)">
     <defs>
      <path id="CMSS17-77" d="M 4013 2752 
L 3526 2752 
L 3187 1601 
C 3117 1358 2918 685 2893 371 
L 2886 371 
C 2874 564 2765 1024 2586 1633 
L 2259 2752 
L 1818 2752 
L 1498 1658 
C 1338 1101 1216 627 1203 371 
L 1197 371 
C 1171 749 909 1633 870 1773 
L 582 2752 
L 83 2752 
L 915 0 
L 1402 0 
C 1734 1096 1990 1943 2010 2370 
C 2022 2160 2131 1707 2195 1484 
L 2618 0 
L 3181 0 
L 4013 2752 
z
" transform="scale(0.015625)"/>
      <path id="CMSS17-6c" d="M 947 4416 
L 474 4416 
L 474 0 
L 947 0 
L 947 4416 
z
" transform="scale(0.015625)"/>
      <path id="CMSS17-70" d="M 966 333 
C 1178 129 1466 -5 1773 -5 
C 2368 -5 2880 603 2880 1412 
C 2880 2159 2496 2816 1946 2816 
C 1626 2816 1242 2702 954 2472 
L 954 2765 
L 480 2765 
L 480 -1216 
L 966 -1216 
L 966 333 
z
M 966 2100 
C 1018 2176 1235 2415 1587 2415 
C 2035 2415 2394 1960 2394 1412 
C 2394 787 1958 384 1530 384 
C 1402 384 1267 415 1139 523 
C 966 674 966 768 966 857 
L 966 2100 
z
" transform="scale(0.015625)"/>
      <path id="CMSS17-75" d="M 2618 2739 
L 2131 2739 
L 2131 972 
C 2131 498 1786 306 1421 306 
C 998 306 960 447 960 709 
L 960 2739 
L 474 2739 
L 474 678 
C 474 179 646 -64 1088 -64 
C 1306 -64 1798 -13 2144 306 
L 2144 0 
L 2618 0 
L 2618 2739 
z
" transform="scale(0.015625)"/>
     </defs>
     <use xlink:href="#CMSS17-77" transform="scale(0.996264)"/>
     <use xlink:href="#CMSS17-68" transform="translate(63.819545 0) scale(0.996264)"/>
     <use xlink:href="#CMSS17-6f" transform="translate(112.024488 0) scale(0.996264)"/>
     <use xlink:href="#CMSS17-6c" transform="translate(158.868112 0) scale(0.996264)"/>
     <use xlink:href="#CMSS17-65" transform="translate(181.048835 0) scale(0.996264)"/>
     <use xlink:href="#CMSS17-70" transform="translate(253.91677 0) scale(0.996264)"/>
     <use xlink:href="#CMSS17-6f" transform="translate(304.724151 0) scale(0.996264)"/>
     <use xlink:href="#CMSS17-70" transform="translate(351.567775 0) scale(0.996264)"/>
     <use xlink:href="#CMSS17-75" transform="translate(399.772718 0) scale(0.996264)"/>
     <use xlink:href="#CMSS17-6c" transform="translate(447.977661 0) scale(0.996264)"/>
     <use xlink:href="#CMSS17-61" transform="translate(470.158384 0) scale(0.996264)"/>
     <use xlink:href="#CMSS17-74" transform="translate(515.080305 0) scale(0.996264)"/>
     <use xlink:href="#CMSS17-69" transform="translate(548.911872 0) scale(0.996264)"/>
     <use xlink:href="#CMSS17-6f" transform="translate(571.092595 0) scale(0.996264)"/>
     <use xlink:href="#CMSS17-6e" transform="translate(617.936218 0) scale(0.996264)"/>
    </g>
   </g>
  </g>
 </g>
</svg>
