<?xml version="1.0" encoding="utf-8" standalone="no"?>
<!DOCTYPE svg PUBLIC "-//W3C//DTD SVG 1.1//EN"
  "http://www.w3.org/Graphics/SVG/1.1/DTD/svg11.dtd">
<svg xmlns:xlink="http://www.w3.org/1999/xlink" width="432pt" height="410.4pt" viewBox="0 0 432 410.4" xmlns="http://www.w3.org/2000/svg" version="1.1">
 <metadata>
  <rdf:RDF xmlns:dc="http://purl.org/dc/elements/1.1/" xmlns:cc="http://creativecommons.org/ns#" xmlns:rdf="http://www.w3.org/1999/02/22-rdf-syntax-ns#">
   <cc:Work>
    <dc:type rdf:resource="http://purl.org/dc/dcmitype/StillImage"/>
    <dc:date>2025-04-24T12:59:19.171770</dc:date>
    <dc:format>image/svg+xml</dc:format>
    <dc:creator>
     <cc:Agent>
      <dc:title>Matplotlib v3.7.5, https://matplotlib.org/</dc:title>
     </cc:Agent>
    </dc:creator>
   </cc:Work>
  </rdf:RDF>
 </metadata>
 <defs>
  <style type="text/css">*{stroke-linejoin: round; stroke-linecap: butt}</style>
 </defs>
 <g id="figure_1">
  <g id="patch_1">
   <path d="M 0 410.4 
L 432 410.4 
L 432 0 
L 0 0 
z
" style="fill: #ffffff"/>
  </g>
  <g id="axes_1">
   <g id="matplotlib.axis_1"/>
   <g id="matplotlib.axis_2"/>
   <g id="patch_2">
    <path d="M 218.23992 86.322219 
C 204.42078 86.322219 190.694704 88.588403 177.608944 93.03042 
C 164.523184 97.472437 152.25399 104.030458 141.290529 112.443017 
C 130.327068 120.855576 120.817005 131.009366 113.139502 142.499561 
C 105.461999 153.989756 99.720462 166.661596 96.143805 180.00986 
C 92.567148 193.358124 91.203544 207.203027 92.107358 220.992579 
C 93.011173 234.782131 96.170233 248.330603 101.458588 261.097824 
C 106.746943 273.865045 114.093366 285.679055 123.204958 296.068835 
C 132.316549 306.458615 143.070587 315.284227 155.038313 322.193797 
C 167.006039 329.103368 180.026261 334.003834 193.57987 336.699815 
C 207.133479 339.395797 221.037923 339.850982 234.738838 338.047223 
C 248.439754 336.243465 261.752605 332.205056 274.146616 326.093008 
C 286.540626 319.98096 297.848863 311.877594 307.620471 302.105987 
C 317.39208 292.334381 325.495448 281.026146 331.607499 268.632136 
C 337.719549 256.238127 341.75796 242.925276 343.561721 229.224361 
C 345.365482 215.523446 344.910299 201.619002 342.214321 188.065392 
C 339.518342 174.511783 334.617878 161.49156 327.70831 149.523833 
L 262.027276 187.444784 
C 264.791103 192.231875 266.751288 197.439965 267.82968 202.861408 
C 268.908072 208.282852 269.090145 213.84463 268.36864 219.324996 
C 267.647136 224.805362 266.031771 230.130502 263.586951 235.088106 
C 261.142131 240.04571 257.900784 244.569004 253.99214 248.477646 
C 250.083497 252.386289 245.560202 255.627635 240.602598 258.072455 
C 235.644994 260.517274 230.319853 262.132637 224.839487 262.854141 
C 219.359121 263.575644 213.797343 263.39357 208.3759 262.315177 
C 202.954456 261.236785 197.746367 259.276599 192.959277 256.51277 
C 188.172187 253.748942 183.870571 250.218697 180.225935 246.062785 
C 176.581298 241.906873 173.642729 237.181269 171.527387 232.074381 
C 169.412045 226.967493 168.148421 221.548104 167.786895 216.032283 
C 167.425369 210.516462 167.970811 204.978501 169.401474 199.639195 
C 170.832137 194.29989 173.128751 189.231154 176.199752 184.635076 
C 179.270754 180.038998 183.074779 175.977482 187.460163 172.612458 
C 191.845548 169.247434 196.753225 166.624226 201.987529 164.847419 
C 207.221833 163.070613 212.712264 162.164139 218.23992 162.164139 
z
" style="fill: #696969; stroke: #000000; stroke-linejoin: miter"/>
   </g>
   <g id="patch_3">
    <path d="M 330.86839 144.050414 
C 319.77502 124.836128 303.815895 108.876999 284.601612 97.783625 
C 265.387329 86.69025 243.586757 80.848802 221.400012 80.8488 
L 221.400005 156.69072 
C 230.274703 156.690721 238.994931 159.0273 246.680645 163.46465 
C 254.366358 167.902 260.750008 174.285651 265.187356 181.971365 
z
" style="fill: #d3d3d3; stroke: #000000; stroke-linejoin: miter"/>
   </g>
   <g id="text_1">
    <!-- Asymmetric chasings -->
    <g transform="translate(13.045102 337.125691) scale(0.16 -0.16)">
     <defs>
      <path id="CMSS17-41" d="M 2272 4416 
L 1722 4416 
L 166 0 
L 653 0 
L 1101 1280 
L 2816 1280 
L 3270 0 
L 3827 0 
L 2272 4416 
z
M 2694 1637 
L 1222 1637 
C 1530 2528 1914 3638 1958 3925 
L 1965 3925 
C 2010 3663 2138 3281 2246 2956 
L 2694 1637 
z
" transform="scale(0.015625)"/>
      <path id="CMSS17-73" d="M 2061 2627 
C 1683 2807 1389 2807 1197 2807 
C 742 2807 198 2648 198 2003 
C 198 1359 902 1218 1094 1179 
C 1389 1122 1715 1058 1715 740 
C 1715 337 1254 337 1171 337 
C 915 337 563 407 243 638 
L 166 210 
C 531 0 883 -64 1178 -64 
C 1965 -64 2163 416 2163 781 
C 2163 1094 1984 1305 1862 1401 
C 1651 1568 1574 1587 1050 1696 
C 960 1709 646 1779 646 2066 
C 646 2432 1050 2432 1139 2432 
C 1555 2432 1811 2303 1984 2208 
L 2061 2627 
z
" transform="scale(0.015625)"/>
      <path id="CMSS17-79" d="M 2675 2752 
L 2176 2752 
C 1632 1294 1446 702 1434 383 
L 1427 383 
C 1408 696 1126 1460 902 2007 
L 602 2752 
L 83 2752 
L 1216 13 
C 1146 -178 1043 -465 1011 -529 
C 870 -885 774 -885 672 -885 
C 646 -885 442 -885 211 -809 
L 250 -1229 
C 410 -1261 570 -1280 685 -1280 
C 845 -1280 1165 -1280 1459 -497 
L 2675 2752 
z
" transform="scale(0.015625)"/>
      <path id="CMSS17-6d" d="M 4288 1877 
C 4288 2308 4179 2816 3462 2816 
C 2982 2816 2694 2516 2566 2331 
C 2451 2670 2182 2816 1798 2816 
C 1363 2816 1088 2568 941 2389 
L 941 2758 
L 474 2758 
L 474 0 
L 960 0 
L 960 1559 
C 960 1939 1101 2428 1555 2428 
C 2138 2428 2138 2016 2138 1829 
L 2138 0 
L 2624 0 
L 2624 1559 
C 2624 1939 2765 2428 3219 2428 
C 3802 2428 3802 2016 3802 1829 
L 3802 0 
L 4288 0 
L 4288 1877 
z
" transform="scale(0.015625)"/>
      <path id="CMSS17-65" d="M 2502 1377 
C 2502 1590 2490 2003 2285 2345 
C 2061 2713 1696 2816 1421 2816 
C 755 2816 192 2188 192 1375 
C 192 582 774 -64 1510 -64 
C 1798 -64 2150 19 2470 248 
C 2470 274 2458 414 2451 420 
C 2451 433 2432 630 2432 656 
C 2125 407 1773 325 1517 325 
C 1107 325 666 667 646 1377 
L 2502 1377 
z
M 698 1728 
C 781 2084 1062 2421 1421 2421 
C 1517 2421 1965 2421 2080 1728 
L 698 1728 
z
" transform="scale(0.015625)"/>
      <path id="CMSS17-74" d="M 1069 2368 
L 1901 2368 
L 1901 2737 
L 1069 2737 
L 1069 3520 
L 614 3520 
L 614 2737 
L 109 2737 
L 109 2368 
L 602 2368 
L 602 749 
C 602 384 685 -64 1107 -64 
C 1427 -64 1722 25 2003 172 
L 1901 548 
C 1747 414 1562 337 1363 337 
C 1082 337 1069 696 1069 856 
L 1069 2368 
z
" transform="scale(0.015625)"/>
      <path id="CMSS17-72" d="M 954 1363 
C 954 1965 1395 2368 1958 2368 
L 1958 2789 
C 1549 2789 1165 2585 934 2253 
L 934 2758 
L 480 2758 
L 480 0 
L 954 0 
L 954 1363 
z
" transform="scale(0.015625)"/>
      <path id="CMSS17-69" d="M 979 4183 
L 442 4183 
L 442 3648 
L 979 3648 
L 979 4183 
z
M 947 2739 
L 474 2739 
L 474 0 
L 947 0 
L 947 2739 
z
" transform="scale(0.015625)"/>
      <path id="CMSS17-63" d="M 2464 2541 
C 2464 2585 2170 2714 2093 2739 
C 1882 2816 1613 2816 1542 2816 
C 710 2816 211 2093 211 1363 
C 211 595 768 -64 1517 -64 
C 1946 -64 2253 76 2502 242 
L 2464 664 
C 2189 453 1869 337 1523 337 
C 1024 337 698 774 698 1369 
C 698 1831 909 2414 1549 2414 
C 1901 2414 2099 2343 2394 2145 
L 2464 2541 
z
" transform="scale(0.015625)"/>
      <path id="CMSS17-68" d="M 2618 1891 
C 2618 2292 2522 2820 1798 2820 
C 1395 2820 1133 2623 947 2407 
L 947 4448 
L 474 4448 
L 474 32 
L 960 32 
L 960 1573 
C 960 1973 1114 2432 1549 2432 
C 2112 2432 2131 2056 2131 1839 
L 2131 32 
L 2618 32 
L 2618 1891 
z
" transform="scale(0.015625)"/>
      <path id="CMSS17-61" d="M 2406 1791 
C 2406 2392 1978 2808 1402 2808 
C 1120 2808 813 2757 461 2553 
L 499 2135 
C 659 2248 934 2432 1395 2432 
C 1722 2432 1920 2180 1920 1782 
L 1920 1536 
C 896 1536 256 1238 256 726 
C 256 461 416 -64 947 -64 
C 1043 -64 1562 -64 1933 217 
L 1933 -19 
L 2406 -19 
L 2406 1791 
z
M 1920 816 
C 1920 701 1920 548 1728 434 
C 1562 325 1350 325 1261 325 
C 941 325 723 511 723 744 
C 723 1211 1722 1211 1920 1211 
L 1920 816 
z
" transform="scale(0.015625)"/>
      <path id="CMSS17-6e" d="M 2618 1877 
C 2618 2283 2522 2816 1798 2816 
C 1389 2816 1120 2606 941 2389 
L 941 2758 
L 474 2758 
L 474 0 
L 960 0 
L 960 1559 
C 960 1964 1114 2428 1549 2428 
C 2112 2428 2131 2048 2131 1829 
L 2131 0 
L 2618 0 
L 2618 1877 
z
" transform="scale(0.015625)"/>
      <path id="CMSS17-67" d="M 2848 2808 
C 2483 2808 2170 2738 1914 2617 
C 1702 2777 1485 2808 1338 2808 
C 781 2808 358 2349 358 1814 
C 358 1468 550 1207 563 1195 
C 448 1035 384 863 384 672 
C 384 448 474 289 544 200 
C 211 -3 166 -314 166 -435 
C 166 -898 749 -1280 1498 -1280 
C 2253 -1280 2835 -898 2835 -428 
C 2835 448 1856 448 1587 448 
L 1069 448 
C 973 448 717 448 717 791 
C 717 921 774 1004 781 1010 
C 877 940 1075 832 1338 832 
C 1869 832 2310 1278 2310 1827 
C 2310 2132 2170 2355 2112 2432 
L 2131 2432 
C 2150 2432 2419 2432 2515 2432 
C 2720 2432 2739 2429 2918 2419 
L 2848 2808 
z
M 1338 1182 
C 1120 1182 813 1315 813 1823 
C 813 2375 1165 2464 1331 2464 
C 1549 2464 1856 2331 1856 1823 
C 1856 1271 1504 1182 1338 1182 
z
M 1581 -10 
C 1734 -10 2381 -10 2381 -442 
C 2381 -714 1984 -929 1504 -929 
C 1018 -929 621 -720 621 -435 
C 621 -403 621 -10 1062 -10 
L 1581 -10 
z
" transform="scale(0.015625)"/>
     </defs>
     <use xlink:href="#CMSS17-41" transform="scale(0.996264)"/>
     <use xlink:href="#CMSS17-73" transform="translate(62.217855 0) scale(0.996264)"/>
     <use xlink:href="#CMSS17-79" transform="translate(98.131397 0) scale(0.996264)"/>
     <use xlink:href="#CMSS17-6d" transform="translate(141.131539 0) scale(0.996264)"/>
     <use xlink:href="#CMSS17-6d" transform="translate(215.360793 0) scale(0.996264)"/>
     <use xlink:href="#CMSS17-65" transform="translate(289.590047 0) scale(0.996264)"/>
     <use xlink:href="#CMSS17-74" transform="translate(331.22887 0) scale(0.996264)"/>
     <use xlink:href="#CMSS17-72" transform="translate(365.060436 0) scale(0.996264)"/>
     <use xlink:href="#CMSS17-69" transform="translate(396.970209 0) scale(0.996264)"/>
     <use xlink:href="#CMSS17-63" transform="translate(419.150932 0) scale(0.996264)"/>
     <use xlink:href="#CMSS17-63" transform="translate(492.018867 0) scale(0.996264)"/>
     <use xlink:href="#CMSS17-68" transform="translate(533.657689 0) scale(0.996264)"/>
     <use xlink:href="#CMSS17-61" transform="translate(581.862632 0) scale(0.996264)"/>
     <use xlink:href="#CMSS17-73" transform="translate(626.784552 0) scale(0.996264)"/>
     <use xlink:href="#CMSS17-69" transform="translate(662.698094 0) scale(0.996264)"/>
     <use xlink:href="#CMSS17-6e" transform="translate(684.878817 0) scale(0.996264)"/>
     <use xlink:href="#CMSS17-67" transform="translate(733.083761 0) scale(0.996264)"/>
     <use xlink:href="#CMSS17-73" transform="translate(779.927384 0) scale(0.996264)"/>
    </g>
   </g>
   <g id="text_2">
    <!-- 83.3\% -->
    <g transform="translate(159.941878 282.391502) scale(0.16 -0.16)">
     <defs>
      <path id="CMSS17-38" d="M 1933 2222 
C 2419 2380 2669 2760 2669 3134 
C 2669 3722 2157 4229 1504 4229 
C 826 4229 333 3708 333 3144 
C 333 2780 576 2403 1069 2241 
C 442 1997 250 1512 250 1149 
C 250 446 819 -128 1498 -128 
C 2202 -128 2752 455 2752 1138 
C 2752 1557 2502 2000 1933 2222 
z
M 1504 2432 
C 1075 2432 787 2712 787 3136 
C 787 3566 1075 3840 1504 3840 
C 1901 3840 2214 3591 2214 3136 
C 2214 2687 1907 2432 1504 2432 
z
M 1504 267 
C 1139 267 749 517 749 1156 
C 749 1813 1184 2043 1498 2043 
C 1843 2043 2253 1800 2253 1156 
C 2253 491 1830 267 1504 267 
z
" transform="scale(0.015625)"/>
      <path id="CMSS17-33" d="M 1005 2025 
L 1440 2025 
C 2042 2025 2214 1507 2214 1146 
C 2214 653 1933 267 1472 267 
C 1114 267 608 444 320 912 
C 275 691 275 678 250 526 
C 550 88 1037 -128 1485 -128 
C 2214 -128 2752 473 2752 1138 
C 2752 1638 2400 2057 1920 2215 
C 2304 2424 2586 2816 2586 3273 
C 2586 3805 2093 4229 1491 4229 
C 941 4229 512 3892 333 3530 
C 378 3468 493 3284 550 3189 
C 691 3562 1056 3840 1485 3840 
C 1843 3840 2080 3607 2080 3271 
C 2080 2923 1856 2543 1478 2455 
C 1453 2455 1056 2417 1005 2411 
L 1005 2025 
z
" transform="scale(0.015625)"/>
      <path id="CMSS17-2e" d="M 1088 510 
L 576 510 
L 576 0 
L 1088 0 
L 1088 510 
z
" transform="scale(0.015625)"/>
      <path id="CMSS17-25" d="M 3923 4583 
C 3962 4647 3962 4679 3962 4685 
C 3962 4755 3904 4800 3853 4800 
C 3782 4800 3750 4749 3718 4685 
L 1101 -104 
C 1088 -129 1062 -167 1062 -206 
C 1062 -276 1120 -320 1178 -320 
C 1235 -320 1248 -295 1299 -206 
L 3923 4583 
z
M 4678 959 
C 4678 1698 4282 2240 3846 2240 
C 3418 2240 3008 1711 3008 959 
C 3008 208 3418 -320 3846 -320 
C 4288 -320 4678 221 4678 959 
z
M 3846 68 
C 3712 68 3494 189 3494 959 
C 3494 1724 3712 1851 3846 1851 
C 4083 1851 4211 1386 4211 959 
C 4211 533 4083 68 3846 68 
z
M 2003 3519 
C 2003 4258 1606 4800 1171 4800 
C 742 4800 333 4271 333 3519 
C 333 2768 742 2240 1171 2240 
C 1613 2240 2003 2781 2003 3519 
z
M 1171 2628 
C 1037 2628 819 2749 819 3519 
C 819 4284 1037 4411 1171 4411 
C 1408 4411 1536 3946 1536 3519 
C 1536 3093 1408 2628 1171 2628 
z
" transform="scale(0.015625)"/>
     </defs>
     <use xlink:href="#CMSS17-38" transform="scale(0.996264)"/>
     <use xlink:href="#CMSS17-33" transform="translate(46.843624 0) scale(0.996264)"/>
     <use xlink:href="#CMSS17-2e" transform="translate(93.687247 0) scale(0.996264)"/>
     <use xlink:href="#CMSS17-33" transform="translate(119.711452 0) scale(0.996264)"/>
     <use xlink:href="#CMSS17-25" transform="translate(166.555075 0) scale(0.996264)"/>
    </g>
   </g>
   <g id="text_3">
    <!-- Symmetric chasings -->
    <g transform="translate(290.921773 90.821843) scale(0.16 -0.16)">
     <defs>
      <path id="CMSS17-53" d="M 2797 4169 
C 2515 4334 2208 4480 1690 4480 
C 864 4480 333 3879 333 3266 
C 333 3025 403 2753 653 2475 
C 902 2196 1184 2121 1542 2033 
C 1690 1994 1939 1924 1984 1906 
C 2342 1767 2515 1444 2515 1140 
C 2515 742 2202 318 1645 318 
C 1453 318 890 318 358 819 
L 269 318 
C 794 -64 1363 -128 1651 -128 
C 2438 -128 3002 488 3002 1186 
C 3002 1440 2925 1763 2656 2061 
C 2394 2347 2163 2410 1638 2549 
C 1338 2626 1146 2677 986 2873 
C 877 3013 819 3146 819 3317 
C 819 3673 1126 4060 1690 4060 
C 1971 4060 2336 4002 2707 3660 
L 2797 4169 
z
" transform="scale(0.015625)"/>
     </defs>
     <use xlink:href="#CMSS17-53" transform="scale(0.996264)"/>
     <use xlink:href="#CMSS17-79" transform="translate(52.048516 0) scale(0.996264)"/>
     <use xlink:href="#CMSS17-6d" transform="translate(95.048658 0) scale(0.996264)"/>
     <use xlink:href="#CMSS17-6d" transform="translate(169.277912 0) scale(0.996264)"/>
     <use xlink:href="#CMSS17-65" transform="translate(243.507167 0) scale(0.996264)"/>
     <use xlink:href="#CMSS17-74" transform="translate(285.145989 0) scale(0.996264)"/>
     <use xlink:href="#CMSS17-72" transform="translate(318.977555 0) scale(0.996264)"/>
     <use xlink:href="#CMSS17-69" transform="translate(350.887328 0) scale(0.996264)"/>
     <use xlink:href="#CMSS17-63" transform="translate(373.068051 0) scale(0.996264)"/>
     <use xlink:href="#CMSS17-63" transform="translate(445.935986 0) scale(0.996264)"/>
     <use xlink:href="#CMSS17-68" transform="translate(487.574808 0) scale(0.996264)"/>
     <use xlink:href="#CMSS17-61" transform="translate(535.779751 0) scale(0.996264)"/>
     <use xlink:href="#CMSS17-73" transform="translate(580.701672 0) scale(0.996264)"/>
     <use xlink:href="#CMSS17-69" transform="translate(616.615214 0) scale(0.996264)"/>
     <use xlink:href="#CMSS17-6e" transform="translate(638.795937 0) scale(0.996264)"/>
     <use xlink:href="#CMSS17-67" transform="translate(687.00088 0) scale(0.996264)"/>
     <use xlink:href="#CMSS17-73" transform="translate(733.844503 0) scale(0.996264)"/>
    </g>
   </g>
   <g id="text_4">
    <!-- 16.7\% -->
    <g transform="translate(238.94389 145.556031) scale(0.16 -0.16)">
     <defs>
      <path id="CMSS17-31" d="M 1818 4288 
L 1696 4288 
C 1350 3940 947 3890 538 3890 
L 538 3520 
C 723 3520 1024 3520 1325 3667 
L 1325 369 
L 570 369 
L 570 0 
L 2573 0 
L 2573 369 
L 1818 369 
L 1818 4288 
z
" transform="scale(0.015625)"/>
      <path id="CMSS17-36" d="M 2496 4101 
C 2227 4210 2035 4229 1856 4229 
C 1024 4229 250 3368 250 2006 
C 250 265 986 -128 1510 -128 
C 1798 -128 2086 -39 2362 280 
C 2643 617 2752 898 2752 1389 
C 2752 2179 2362 2880 1779 2880 
C 1357 2880 992 2657 768 2376 
C 832 3258 1254 3840 1862 3840 
C 2029 3840 2246 3816 2496 3710 
L 2496 4101 
z
M 774 1369 
C 774 1420 774 1452 781 1548 
C 781 2045 1069 2491 1536 2491 
C 1837 2491 1990 2332 2106 2135 
C 2240 1886 2246 1650 2246 1388 
C 2246 1140 2246 891 2099 637 
C 1978 439 1818 267 1510 267 
C 902 267 800 1114 774 1369 
z
" transform="scale(0.015625)"/>
      <path id="CMSS17-37" d="M 1389 3776 
C 1466 3776 1542 3776 1619 3776 
L 2355 3776 
C 1440 2711 915 1365 915 -32 
L 1427 -32 
C 1427 1323 1875 2696 2752 3795 
L 2752 4209 
L 250 4209 
L 250 3776 
L 1389 3776 
z
" transform="scale(0.015625)"/>
     </defs>
     <use xlink:href="#CMSS17-31" transform="scale(0.996264)"/>
     <use xlink:href="#CMSS17-36" transform="translate(46.843624 0) scale(0.996264)"/>
     <use xlink:href="#CMSS17-2e" transform="translate(93.687247 0) scale(0.996264)"/>
     <use xlink:href="#CMSS17-37" transform="translate(119.711452 0) scale(0.996264)"/>
     <use xlink:href="#CMSS17-25" transform="translate(166.555075 0) scale(0.996264)"/>
    </g>
   </g>
   <g id="text_5">
    <!-- Symmetry of chasing  -->
    <g style="fill: #262626" transform="translate(147.624846 24.815976) scale(0.18 -0.18)">
     <defs>
      <path id="CMSS17-6f" d="M 2829 1356 
C 2829 2176 2221 2816 1504 2816 
C 768 2816 173 2157 173 1356 
C 173 544 787 -64 1498 -64 
C 2227 -64 2829 563 2829 1356 
z
M 1504 337 
C 1050 337 659 709 659 1408 
C 659 2151 1114 2427 1498 2427 
C 1914 2427 2342 2126 2342 1408 
C 2342 683 1926 337 1504 337 
z
" transform="scale(0.015625)"/>
      <path id="CMSS17-66" d="M 1075 2368 
L 1722 2368 
L 1722 2737 
L 1062 2737 
L 1062 3559 
C 1062 4014 1408 4092 1606 4092 
C 1670 4092 1850 4092 2080 4009 
L 2080 4429 
C 1933 4461 1754 4480 1613 4480 
C 1018 4480 602 3993 602 3359 
L 602 2737 
L 160 2737 
L 160 2368 
L 602 2368 
L 602 0 
L 1075 0 
L 1075 2368 
z
" transform="scale(0.015625)"/>
     </defs>
     <use xlink:href="#CMSS17-53" transform="scale(0.996264)"/>
     <use xlink:href="#CMSS17-79" transform="translate(52.048516 0) scale(0.996264)"/>
     <use xlink:href="#CMSS17-6d" transform="translate(95.048658 0) scale(0.996264)"/>
     <use xlink:href="#CMSS17-6d" transform="translate(169.277912 0) scale(0.996264)"/>
     <use xlink:href="#CMSS17-65" transform="translate(243.507167 0) scale(0.996264)"/>
     <use xlink:href="#CMSS17-74" transform="translate(285.145989 0) scale(0.996264)"/>
     <use xlink:href="#CMSS17-72" transform="translate(318.977555 0) scale(0.996264)"/>
     <use xlink:href="#CMSS17-79" transform="translate(350.887328 0) scale(0.996264)"/>
     <use xlink:href="#CMSS17-6f" transform="translate(425.116582 0) scale(0.996264)"/>
     <use xlink:href="#CMSS17-66" transform="translate(471.960206 0) scale(0.996264)"/>
     <use xlink:href="#CMSS17-63" transform="translate(531.815978 0) scale(0.996264)"/>
     <use xlink:href="#CMSS17-68" transform="translate(573.4548 0) scale(0.996264)"/>
     <use xlink:href="#CMSS17-61" transform="translate(621.659743 0) scale(0.996264)"/>
     <use xlink:href="#CMSS17-73" transform="translate(666.581663 0) scale(0.996264)"/>
     <use xlink:href="#CMSS17-69" transform="translate(702.495205 0) scale(0.996264)"/>
     <use xlink:href="#CMSS17-6e" transform="translate(724.675928 0) scale(0.996264)"/>
     <use xlink:href="#CMSS17-67" transform="translate(772.880872 0) scale(0.996264)"/>
    </g>
    <!--  from RC towards RC -->
    <g style="fill: #262626" transform="translate(148.187015 43.248) scale(0.18 -0.18)">
     <defs>
      <path id="CMSS17-52" d="M 2522 2109 
L 2534 2115 
C 3533 2459 3539 3147 3539 3268 
C 3539 3873 2925 4453 2003 4453 
L 570 4453 
L 570 32 
L 1094 32 
L 1094 2048 
L 2035 2048 
L 3168 32 
L 3706 32 
L 2522 2109 
z
M 1094 2437 
L 1094 4096 
L 1933 4096 
C 2746 4096 3034 3637 3034 3267 
C 3034 2922 2778 2437 1933 2437 
L 1094 2437 
z
" transform="scale(0.015625)"/>
      <path id="CMSS17-43" d="M 3501 714 
C 3072 427 2874 344 2355 344 
C 1459 344 934 1303 934 2179 
C 934 3112 1472 4032 2381 4032 
C 2790 4032 3059 3918 3386 3715 
L 3475 4217 
C 3168 4370 2778 4440 2387 4440 
C 1158 4440 397 3316 397 2179 
C 397 927 1299 -64 2323 -64 
C 2874 -64 3066 -19 3539 280 
L 3501 714 
z
" transform="scale(0.015625)"/>
      <path id="CMSS17-77" d="M 4013 2752 
L 3526 2752 
L 3187 1601 
C 3117 1358 2918 685 2893 371 
L 2886 371 
C 2874 564 2765 1024 2586 1633 
L 2259 2752 
L 1818 2752 
L 1498 1658 
C 1338 1101 1216 627 1203 371 
L 1197 371 
C 1171 749 909 1633 870 1773 
L 582 2752 
L 83 2752 
L 915 0 
L 1402 0 
C 1734 1096 1990 1943 2010 2370 
C 2022 2160 2131 1707 2195 1484 
L 2618 0 
L 3181 0 
L 4013 2752 
z
" transform="scale(0.015625)"/>
      <path id="CMSS17-64" d="M 2611 4416 
L 2138 4416 
L 2138 2438 
C 1939 2603 1613 2756 1254 2756 
C 672 2756 211 2131 211 1347 
C 211 562 666 -64 1235 -64 
C 1677 -64 1971 172 2125 306 
L 2125 -13 
L 2611 -13 
L 2611 4416 
z
M 2125 836 
C 2125 747 2125 653 1926 482 
C 1798 375 1645 325 1498 325 
C 1152 325 698 576 698 1340 
C 698 2134 1210 2368 1562 2368 
C 1798 2368 1990 2254 2125 2065 
L 2125 836 
z
" transform="scale(0.015625)"/>
     </defs>
     <use xlink:href="#CMSS17-66" transform="scale(0.996264)"/>
     <use xlink:href="#CMSS17-72" transform="translate(28.626659 0) scale(0.996264)"/>
     <use xlink:href="#CMSS17-6f" transform="translate(60.536431 0) scale(0.996264)"/>
     <use xlink:href="#CMSS17-6d" transform="translate(107.380055 0) scale(0.996264)"/>
     <use xlink:href="#CMSS17-52" transform="translate(212.838422 0) scale(0.996264)"/>
     <use xlink:href="#CMSS17-43" transform="translate(273.254577 0) scale(0.996264)"/>
     <use xlink:href="#CMSS17-74" transform="translate(364.339461 0) scale(0.996264)"/>
     <use xlink:href="#CMSS17-6f" transform="translate(398.171028 0) scale(0.996264)"/>
     <use xlink:href="#CMSS17-77" transform="translate(442.412198 0) scale(0.996264)"/>
     <use xlink:href="#CMSS17-61" transform="translate(503.629289 0) scale(0.996264)"/>
     <use xlink:href="#CMSS17-72" transform="translate(545.948755 0) scale(0.996264)"/>
     <use xlink:href="#CMSS17-64" transform="translate(577.858528 0) scale(0.996264)"/>
     <use xlink:href="#CMSS17-73" transform="translate(626.063471 0) scale(0.996264)"/>
     <use xlink:href="#CMSS17-52" transform="translate(693.206126 0) scale(0.996264)"/>
     <use xlink:href="#CMSS17-43" transform="translate(753.622281 0) scale(0.996264)"/>
    </g>
   </g>
  </g>
 </g>
</svg>
