<?xml version="1.0" encoding="utf-8" standalone="no"?>
<!DOCTYPE svg PUBLIC "-//W3C//DTD SVG 1.1//EN"
  "http://www.w3.org/Graphics/SVG/1.1/DTD/svg11.dtd">
<svg xmlns:xlink="http://www.w3.org/1999/xlink" width="416.16pt" height="391.68pt" viewBox="0 0 416.16 391.68" xmlns="http://www.w3.org/2000/svg" version="1.1">
 <metadata>
  <rdf:RDF xmlns:dc="http://purl.org/dc/elements/1.1/" xmlns:cc="http://creativecommons.org/ns#" xmlns:rdf="http://www.w3.org/1999/02/22-rdf-syntax-ns#">
   <cc:Work>
    <dc:type rdf:resource="http://purl.org/dc/dcmitype/StillImage"/>
    <dc:date>2025-07-08T12:19:27.589845</dc:date>
    <dc:format>image/svg+xml</dc:format>
    <dc:creator>
     <cc:Agent>
      <dc:title>Matplotlib v3.9.2, https://matplotlib.org/</dc:title>
     </cc:Agent>
    </dc:creator>
   </cc:Work>
  </rdf:RDF>
 </metadata>
 <defs>
  <style type="text/css">*{stroke-linejoin: round; stroke-linecap: butt}</style>
 </defs>
 <g id="figure_1">
  <g id="patch_1">
   <path d="M 0 391.68 
L 416.16 391.68 
L 416.16 0 
L 0 0 
z
" style="fill: #ffffff"/>
  </g>
  <g id="axes_1">
   <g id="patch_2">
    <path d="M 77.940089 333.121422 
L 402.288 333.121422 
L 402.288 13.056 
L 77.940089 13.056 
z
" style="fill: #ffffff"/>
   </g>
   <g id="PathCollection_1">
    <path d="M 387.544913 290.695394 
C 388.730937 290.695394 389.868545 290.224182 390.707191 289.385536 
C 391.545837 288.54689 392.017049 287.409282 392.017049 286.223258 
C 392.017049 285.037234 391.545837 283.899626 390.707191 283.06098 
C 389.868545 282.222335 388.730937 281.751122 387.544913 281.751122 
C 386.358889 281.751122 385.221281 282.222335 384.382635 283.06098 
C 383.54399 283.899626 383.072777 285.037234 383.072777 286.223258 
C 383.072777 287.409282 383.54399 288.54689 384.382635 289.385536 
C 385.221281 290.224182 386.358889 290.695394 387.544913 290.695394 
z
" clip-path="url(#p56a9312840)" style="fill-opacity: 0.5; stroke: #000000; stroke-opacity: 0.5"/>
    <path d="M 123.90383 161.29645 
C 125.089855 161.29645 126.227462 160.825238 127.066108 159.986592 
C 127.904754 159.147946 128.375966 158.010339 128.375966 156.824314 
C 128.375966 155.63829 127.904754 154.500683 127.066108 153.662037 
C 126.227462 152.823391 125.089855 152.352178 123.90383 152.352178 
C 122.717806 152.352178 121.580198 152.823391 120.741553 153.662037 
C 119.902907 154.500683 119.431694 155.63829 119.431694 156.824314 
C 119.431694 158.010339 119.902907 159.147946 120.741553 159.986592 
C 121.580198 160.825238 122.717806 161.29645 123.90383 161.29645 
z
" clip-path="url(#p56a9312840)" style="fill-opacity: 0.5; stroke: #000000; stroke-opacity: 0.5"/>
    <path d="M 238.379564 157.416869 
C 239.565588 157.416869 240.703195 156.945657 241.541841 156.107011 
C 242.380487 155.268365 242.8517 154.130758 242.8517 152.944733 
C 242.8517 151.758709 242.380487 150.621102 241.541841 149.782456 
C 240.703195 148.94381 239.565588 148.472598 238.379564 148.472598 
C 237.193539 148.472598 236.055932 148.94381 235.217286 149.782456 
C 234.37864 150.621102 233.907428 151.758709 233.907428 152.944733 
C 233.907428 154.130758 234.37864 155.268365 235.217286 156.107011 
C 236.055932 156.945657 237.193539 157.416869 238.379564 157.416869 
z
" clip-path="url(#p56a9312840)" style="fill-opacity: 0.5; stroke: #000000; stroke-opacity: 0.5"/>
    <path d="M 112.629705 317.076544 
C 113.815729 317.076544 114.953337 316.605331 115.791983 315.766686 
C 116.630629 314.92804 117.101841 313.790432 117.101841 312.604408 
C 117.101841 311.418384 116.630629 310.280776 115.791983 309.44213 
C 114.953337 308.603484 113.815729 308.132272 112.629705 308.132272 
C 111.443681 308.132272 110.306073 308.603484 109.467427 309.44213 
C 108.628782 310.280776 108.157569 311.418384 108.157569 312.604408 
C 108.157569 313.790432 108.628782 314.92804 109.467427 315.766686 
C 110.306073 316.605331 111.443681 317.076544 112.629705 317.076544 
z
" clip-path="url(#p56a9312840)" style="fill-opacity: 0.5; stroke: #000000; stroke-opacity: 0.5"/>
    <path d="M 95.284897 32.076564 
C 96.470921 32.076564 97.608529 31.605352 98.447175 30.766706 
C 99.28582 29.92806 99.757033 28.790453 99.757033 27.604428 
C 99.757033 26.418404 99.28582 25.280796 98.447175 24.442151 
C 97.608529 23.603505 96.470921 23.132292 95.284897 23.132292 
C 94.098873 23.132292 92.961265 23.603505 92.122619 24.442151 
C 91.283973 25.280796 90.812761 26.418404 90.812761 27.604428 
C 90.812761 28.790453 91.283973 29.92806 92.122619 30.766706 
C 92.961265 31.605352 94.098873 32.076564 95.284897 32.076564 
z
" clip-path="url(#p56a9312840)" style="fill-opacity: 0.5; stroke: #000000; stroke-opacity: 0.5"/>
    <path d="M 169.000331 278.280735 
C 170.186356 278.280735 171.323963 277.809523 172.162609 276.970877 
C 173.001255 276.132231 173.472467 274.994624 173.472467 273.808599 
C 173.472467 272.622575 173.001255 271.484967 172.162609 270.646322 
C 171.323963 269.807676 170.186356 269.336463 169.000331 269.336463 
C 167.814307 269.336463 166.676699 269.807676 165.838054 270.646322 
C 164.999408 271.484967 164.528195 272.622575 164.528195 273.808599 
C 164.528195 274.994624 164.999408 276.132231 165.838054 276.970877 
C 166.676699 277.809523 167.814307 278.280735 169.000331 278.280735 
z
" clip-path="url(#p56a9312840)" style="fill-opacity: 0.5; stroke: #000000; stroke-opacity: 0.5"/>
    <path d="M 110.027984 320.060837 
C 111.214008 320.060837 112.351616 319.589624 113.190261 318.750979 
C 114.028907 317.912333 114.50012 316.774725 114.50012 315.588701 
C 114.50012 314.402677 114.028907 313.265069 113.190261 312.426423 
C 112.351616 311.587777 111.214008 311.116565 110.027984 311.116565 
C 108.84196 311.116565 107.704352 311.587777 106.865706 312.426423 
C 106.02706 313.265069 105.555848 314.402677 105.555848 315.588701 
C 105.555848 316.774725 106.02706 317.912333 106.865706 318.750979 
C 107.704352 319.589624 108.84196 320.060837 110.027984 320.060837 
z
" clip-path="url(#p56a9312840)" style="fill-opacity: 0.5; stroke: #000000; stroke-opacity: 0.5"/>
    <path d="M 101.35558 308.123665 
C 102.541604 308.123665 103.679212 307.652453 104.517857 306.813807 
C 105.356503 305.975161 105.827716 304.837553 105.827716 303.651529 
C 105.827716 302.465505 105.356503 301.327897 104.517857 300.489251 
C 103.679212 299.650606 102.541604 299.179393 101.35558 299.179393 
C 100.169555 299.179393 99.031948 299.650606 98.193302 300.489251 
C 97.354656 301.327897 96.883444 302.465505 96.883444 303.651529 
C 96.883444 304.837553 97.354656 305.975161 98.193302 306.813807 
C 99.031948 307.652453 100.169555 308.123665 101.35558 308.123665 
z
" clip-path="url(#p56a9312840)" style="fill-opacity: 0.5; stroke: #000000; stroke-opacity: 0.5"/>
    <path d="M 148.186562 315.584397 
C 149.372586 315.584397 150.510193 315.113185 151.348839 314.274539 
C 152.187485 313.435893 152.658698 312.298286 152.658698 311.112261 
C 152.658698 309.926237 152.187485 308.78863 151.348839 307.949984 
C 150.510193 307.111338 149.372586 306.640126 148.186562 306.640126 
C 147.000537 306.640126 145.86293 307.111338 145.024284 307.949984 
C 144.185638 308.78863 143.714426 309.926237 143.714426 311.112261 
C 143.714426 312.298286 144.185638 313.435893 145.024284 314.274539 
C 145.86293 315.113185 147.000537 315.584397 148.186562 315.584397 
z
" clip-path="url(#p56a9312840)" style="fill-opacity: 0.5; stroke: #000000; stroke-opacity: 0.5"/>
    <path d="M 94.983423 270.820003 
C 96.169447 270.820003 97.307055 270.34879 98.145701 269.510144 
C 98.984346 268.671499 99.455559 267.533891 99.455559 266.347867 
C 99.455559 265.161842 98.984346 264.024235 98.145701 263.185589 
C 97.307055 262.346943 96.169447 261.875731 94.983423 261.875731 
C 93.797399 261.875731 92.659791 262.346943 91.821145 263.185589 
C 90.982499 264.024235 90.511287 265.161842 90.511287 266.347867 
C 90.511287 267.533891 90.982499 268.671499 91.821145 269.510144 
C 92.659791 270.34879 93.797399 270.820003 94.983423 270.820003 
z
" clip-path="url(#p56a9312840)" style="fill-opacity: 0.5; stroke: #000000; stroke-opacity: 0.5"/>
    <path d="M 166.291084 301.980186 
C 167.477109 301.980186 168.614716 301.508973 169.453362 300.670327 
C 170.292008 299.831681 170.76322 298.694074 170.76322 297.50805 
C 170.76322 296.322025 170.292008 295.184418 169.453362 294.345772 
C 168.614716 293.507126 167.477109 293.035914 166.291084 293.035914 
C 165.10506 293.035914 163.967453 293.507126 163.128807 294.345772 
C 162.290161 295.184418 161.818948 296.322025 161.818948 297.50805 
C 161.818948 298.694074 162.290161 299.831681 163.128807 300.670327 
C 163.967453 301.508973 165.10506 301.980186 166.291084 301.980186 
z
" clip-path="url(#p56a9312840)" style="fill-opacity: 0.5; stroke: #000000; stroke-opacity: 0.5"/>
    <path d="M 102.650913 315.521935 
C 103.836938 315.521935 104.974545 315.050723 105.813191 314.212077 
C 106.651837 313.373431 107.123049 312.235824 107.123049 311.0498 
C 107.123049 309.863775 106.651837 308.726168 105.813191 307.887522 
C 104.974545 307.048876 103.836938 306.577664 102.650913 306.577664 
C 101.464889 306.577664 100.327282 307.048876 99.488636 307.887522 
C 98.64999 308.726168 98.178777 309.863775 98.178777 311.0498 
C 98.178777 312.235824 98.64999 313.373431 99.488636 314.212077 
C 100.327282 315.050723 101.464889 315.521935 102.650913 315.521935 
z
" clip-path="url(#p56a9312840)" style="fill-opacity: 0.5; stroke: #000000; stroke-opacity: 0.5"/>
    <path d="M 93.449925 234.271436 
C 94.635949 234.271436 95.773557 233.800224 96.612202 232.961578 
C 97.450848 232.122932 97.922061 230.985324 97.922061 229.7993 
C 97.922061 228.613276 97.450848 227.475668 96.612202 226.637022 
C 95.773557 225.798377 94.635949 225.327164 93.449925 225.327164 
C 92.2639 225.327164 91.126293 225.798377 90.287647 226.637022 
C 89.449001 227.475668 88.977789 228.613276 88.977789 229.7993 
C 88.977789 230.985324 89.449001 232.122932 90.287647 232.961578 
C 91.126293 233.800224 92.2639 234.271436 93.449925 234.271436 
z
" clip-path="url(#p56a9312840)" style="fill-opacity: 0.5; stroke: #000000; stroke-opacity: 0.5"/>
    <path d="M 117.219145 145.497742 
C 118.40517 145.497742 119.542777 145.02653 120.381423 144.187884 
C 121.220069 143.349238 121.691281 142.21163 121.691281 141.025606 
C 121.691281 139.839582 121.220069 138.701974 120.381423 137.863328 
C 119.542777 137.024683 118.40517 136.55347 117.219145 136.55347 
C 116.033121 136.55347 114.895513 137.024683 114.056868 137.863328 
C 113.218222 138.701974 112.747009 139.839582 112.747009 141.025606 
C 112.747009 142.21163 113.218222 143.349238 114.056868 144.187884 
C 114.895513 145.02653 116.033121 145.497742 117.219145 145.497742 
z
" clip-path="url(#p56a9312840)" style="fill-opacity: 0.5; stroke: #000000; stroke-opacity: 0.5"/>
    <path d="M 257.534221 211.701853 
C 258.720245 211.701853 259.857853 211.23064 260.696499 210.391994 
C 261.535145 209.553349 262.006357 208.415741 262.006357 207.229717 
C 262.006357 206.043693 261.535145 204.906085 260.696499 204.067439 
C 259.857853 203.228793 258.720245 202.757581 257.534221 202.757581 
C 256.348197 202.757581 255.210589 203.228793 254.371943 204.067439 
C 253.533298 204.906085 253.062085 206.043693 253.062085 207.229717 
C 253.062085 208.415741 253.533298 209.553349 254.371943 210.391994 
C 255.210589 211.23064 256.348197 211.701853 257.534221 211.701853 
z
" clip-path="url(#p56a9312840)" style="fill-opacity: 0.5; stroke: #000000; stroke-opacity: 0.5"/>
    <path d="M 140.988366 207.187936 
C 142.17439 207.187936 143.311998 206.716724 144.150643 205.878078 
C 144.989289 205.039432 145.460502 203.901825 145.460502 202.7158 
C 145.460502 201.529776 144.989289 200.392168 144.150643 199.553523 
C 143.311998 198.714877 142.17439 198.243664 140.988366 198.243664 
C 139.802341 198.243664 138.664734 198.714877 137.826088 199.553523 
C 136.987442 200.392168 136.51623 201.529776 136.51623 202.7158 
C 136.51623 203.901825 136.987442 205.039432 137.826088 205.878078 
C 138.664734 206.716724 139.802341 207.187936 140.988366 207.187936 
z
" clip-path="url(#p56a9312840)" style="fill-opacity: 0.5; stroke: #000000; stroke-opacity: 0.5"/>
    <path d="M 140.988366 259.850297 
C 142.17439 259.850297 143.311998 259.379084 144.150643 258.540439 
C 144.989289 257.701793 145.460502 256.564185 145.460502 255.378161 
C 145.460502 254.192137 144.989289 253.054529 144.150643 252.215883 
C 143.311998 251.377237 142.17439 250.906025 140.988366 250.906025 
C 139.802341 250.906025 138.664734 251.377237 137.826088 252.215883 
C 136.987442 253.054529 136.51623 254.192137 136.51623 255.378161 
C 136.51623 256.564185 136.987442 257.701793 137.826088 258.540439 
C 138.664734 259.379084 139.802341 259.850297 140.988366 259.850297 
z
" clip-path="url(#p56a9312840)" style="fill-opacity: 0.5; stroke: #000000; stroke-opacity: 0.5"/>
    <path d="M 315.0404 70.184852 
C 316.226424 70.184852 317.364031 69.71364 318.202677 68.874994 
C 319.041323 68.036348 319.512536 66.898741 319.512536 65.712716 
C 319.512536 64.526692 319.041323 63.389085 318.202677 62.550439 
C 317.364031 61.711793 316.226424 61.24058 315.0404 61.24058 
C 313.854375 61.24058 312.716768 61.711793 311.878122 62.550439 
C 311.039476 63.389085 310.568264 64.526692 310.568264 65.712716 
C 310.568264 66.898741 311.039476 68.036348 311.878122 68.874994 
C 312.716768 69.71364 313.854375 70.184852 315.0404 70.184852 
z
" clip-path="url(#p56a9312840)" style="fill-opacity: 0.5; stroke: #000000; stroke-opacity: 0.5"/>
    <path d="M 159.390343 312.807872 
C 160.576367 312.807872 161.713975 312.336659 162.552621 311.498013 
C 163.391266 310.659368 163.862479 309.52176 163.862479 308.335736 
C 163.862479 307.149711 163.391266 306.012104 162.552621 305.173458 
C 161.713975 304.334812 160.576367 303.8636 159.390343 303.8636 
C 158.204319 303.8636 157.066711 304.334812 156.228065 305.173458 
C 155.389419 306.012104 154.918207 307.149711 154.918207 308.335736 
C 154.918207 309.52176 155.389419 310.659368 156.228065 311.498013 
C 157.066711 312.336659 158.204319 312.807872 159.390343 312.807872 
z
" clip-path="url(#p56a9312840)" style="fill-opacity: 0.5; stroke: #000000; stroke-opacity: 0.5"/>
    <path d="M 148.025728 232.957258 
C 149.211752 232.957258 150.34936 232.486045 151.188006 231.647399 
C 152.026651 230.808754 152.497864 229.671146 152.497864 228.485122 
C 152.497864 227.299097 152.026651 226.16149 151.188006 225.322844 
C 150.34936 224.484198 149.211752 224.012986 148.025728 224.012986 
C 146.839704 224.012986 145.702096 224.484198 144.86345 225.322844 
C 144.024804 226.16149 143.553592 227.299097 143.553592 228.485122 
C 143.553592 229.671146 144.024804 230.808754 144.86345 231.647399 
C 145.702096 232.486045 146.839704 232.957258 148.025728 232.957258 
z
" clip-path="url(#p56a9312840)" style="fill-opacity: 0.5; stroke: #000000; stroke-opacity: 0.5"/>
    <path d="M 102.307967 301.546888 
C 103.493992 301.546888 104.631599 301.075675 105.470245 300.237029 
C 106.308891 299.398384 106.780103 298.260776 106.780103 297.074752 
C 106.780103 295.888727 106.308891 294.75112 105.470245 293.912474 
C 104.631599 293.073828 103.493992 292.602616 102.307967 292.602616 
C 101.121943 292.602616 99.984336 293.073828 99.14569 293.912474 
C 98.307044 294.75112 97.835831 295.888727 97.835831 297.074752 
C 97.835831 298.260776 98.307044 299.398384 99.14569 300.237029 
C 99.984336 301.075675 101.121943 301.546888 102.307967 301.546888 
z
" clip-path="url(#p56a9312840)" style="fill-opacity: 0.5; stroke: #000000; stroke-opacity: 0.5"/>
    <path d="M 162.462915 232.957258 
C 163.64894 232.957258 164.786547 232.486045 165.625193 231.647399 
C 166.463839 230.808754 166.935051 229.671146 166.935051 228.485122 
C 166.935051 227.299097 166.463839 226.16149 165.625193 225.322844 
C 164.786547 224.484198 163.64894 224.012986 162.462915 224.012986 
C 161.276891 224.012986 160.139284 224.484198 159.300638 225.322844 
C 158.461992 226.16149 157.99078 227.299097 157.99078 228.485122 
C 157.99078 229.671146 158.461992 230.808754 159.300638 231.647399 
C 160.139284 232.486045 161.276891 232.957258 162.462915 232.957258 
z
" clip-path="url(#p56a9312840)" style="fill-opacity: 0.5; stroke: #000000; stroke-opacity: 0.5"/>
    <path d="M 304.428593 228.862354 
C 305.614617 228.862354 306.752225 228.391142 307.59087 227.552496 
C 308.429516 226.71385 308.900729 225.576243 308.900729 224.390218 
C 308.900729 223.204194 308.429516 222.066587 307.59087 221.227941 
C 306.752225 220.389295 305.614617 219.918083 304.428593 219.918083 
C 303.242568 219.918083 302.104961 220.389295 301.266315 221.227941 
C 300.427669 222.066587 299.956457 223.204194 299.956457 224.390218 
C 299.956457 225.576243 300.427669 226.71385 301.266315 227.552496 
C 302.104961 228.391142 303.242568 228.862354 304.428593 228.862354 
z
" clip-path="url(#p56a9312840)" style="fill-opacity: 0.5; stroke: #000000; stroke-opacity: 0.5"/>
    <path d="M 109.526561 191.484098 
C 110.712586 191.484098 111.850193 191.012886 112.688839 190.17424 
C 113.527485 189.335594 113.998697 188.197986 113.998697 187.011962 
C 113.998697 185.825938 113.527485 184.68833 112.688839 183.849684 
C 111.850193 183.011039 110.712586 182.539826 109.526561 182.539826 
C 108.340537 182.539826 107.202929 183.011039 106.364284 183.849684 
C 105.525638 184.68833 105.054425 185.825938 105.054425 187.011962 
C 105.054425 188.197986 105.525638 189.335594 106.364284 190.17424 
C 107.202929 191.012886 108.340537 191.484098 109.526561 191.484098 
z
" clip-path="url(#p56a9312840)" style="fill-opacity: 0.5; stroke: #000000; stroke-opacity: 0.5"/>
    <path d="M 92.683176 307.747335 
C 93.8692 307.747335 95.006808 307.276123 95.845453 306.437477 
C 96.684099 305.598831 97.155312 304.461224 97.155312 303.2752 
C 97.155312 302.089175 96.684099 300.951568 95.845453 300.112922 
C 95.006808 299.274276 93.8692 298.803064 92.683176 298.803064 
C 91.497151 298.803064 90.359544 299.274276 89.520898 300.112922 
C 88.682252 300.951568 88.21104 302.089175 88.21104 303.2752 
C 88.21104 304.461224 88.682252 305.598831 89.520898 306.437477 
C 90.359544 307.276123 91.497151 307.747335 92.683176 307.747335 
z
" clip-path="url(#p56a9312840)" style="fill-opacity: 0.5; stroke: #000000; stroke-opacity: 0.5"/>
    <path d="M 188.931093 231.258363 
C 190.117117 231.258363 191.254724 230.787151 192.09337 229.948505 
C 192.932016 229.109859 193.403229 227.972252 193.403229 226.786227 
C 193.403229 225.600203 192.932016 224.462596 192.09337 223.62395 
C 191.254724 222.785304 190.117117 222.314092 188.931093 222.314092 
C 187.745068 222.314092 186.607461 222.785304 185.768815 223.62395 
C 184.930169 224.462596 184.458957 225.600203 184.458957 226.786227 
C 184.458957 227.972252 184.930169 229.109859 185.768815 229.948505 
C 186.607461 230.787151 187.745068 231.258363 188.931093 231.258363 
z
" clip-path="url(#p56a9312840)" style="fill-opacity: 0.5; stroke: #000000; stroke-opacity: 0.5"/>
    <path d="M 135.994738 220.039981 
C 137.180763 220.039981 138.31837 219.568768 139.157016 218.730123 
C 139.995662 217.891477 140.466874 216.753869 140.466874 215.567845 
C 140.466874 214.381821 139.995662 213.244213 139.157016 212.405567 
C 138.31837 211.566921 137.180763 211.095709 135.994738 211.095709 
C 134.808714 211.095709 133.671107 211.566921 132.832461 212.405567 
C 131.993815 213.244213 131.522602 214.381821 131.522602 215.567845 
C 131.522602 216.753869 131.993815 217.891477 132.832461 218.730123 
C 133.671107 219.568768 134.808714 220.039981 135.994738 220.039981 
z
" clip-path="url(#p56a9312840)" style="fill-opacity: 0.5; stroke: #000000; stroke-opacity: 0.5"/>
    <path d="M 209.885436 298.568659 
C 211.07146 298.568659 212.209068 298.097446 213.047714 297.258801 
C 213.88636 296.420155 214.357572 295.282547 214.357572 294.096523 
C 214.357572 292.910499 213.88636 291.772891 213.047714 290.934245 
C 212.209068 290.095599 211.07146 289.624387 209.885436 289.624387 
C 208.699412 289.624387 207.561804 290.095599 206.723158 290.934245 
C 205.884513 291.772891 205.4133 292.910499 205.4133 294.096523 
C 205.4133 295.282547 205.884513 296.420155 206.723158 297.258801 
C 207.561804 298.097446 208.699412 298.568659 209.885436 298.568659 
z
" clip-path="url(#p56a9312840)" style="fill-opacity: 0.5; stroke: #000000; stroke-opacity: 0.5"/>
    <path d="M 158.609447 142.531156 
C 159.795472 142.531156 160.933079 142.059943 161.771725 141.221298 
C 162.610371 140.382652 163.081583 139.245044 163.081583 138.05902 
C 163.081583 136.872996 162.610371 135.735388 161.771725 134.896742 
C 160.933079 134.058096 159.795472 133.586884 158.609447 133.586884 
C 157.423423 133.586884 156.285815 134.058096 155.44717 134.896742 
C 154.608524 135.735388 154.137311 136.872996 154.137311 138.05902 
C 154.137311 139.245044 154.608524 140.382652 155.44717 141.221298 
C 156.285815 142.059943 157.423423 142.531156 158.609447 142.531156 
z
" clip-path="url(#p56a9312840)" style="fill-opacity: 0.5; stroke: #000000; stroke-opacity: 0.5"/>
    <path d="M 143.772913 173.671349 
C 144.958937 173.671349 146.096545 173.200137 146.935191 172.361491 
C 147.773837 171.522845 148.245049 170.385238 148.245049 169.199213 
C 148.245049 168.013189 147.773837 166.875582 146.935191 166.036936 
C 146.096545 165.19829 144.958937 164.727077 143.772913 164.727077 
C 142.586889 164.727077 141.449281 165.19829 140.610635 166.036936 
C 139.77199 166.875582 139.300777 168.013189 139.300777 169.199213 
C 139.300777 170.385238 139.77199 171.522845 140.610635 172.361491 
C 141.449281 173.200137 142.586889 173.671349 143.772913 173.671349 
z
" clip-path="url(#p56a9312840)" style="fill-opacity: 0.5; stroke: #000000; stroke-opacity: 0.5"/>
    <path d="M 92.683176 323.04513 
C 93.8692 323.04513 95.006808 322.573917 95.845453 321.735272 
C 96.684099 320.896626 97.155312 319.759018 97.155312 318.572994 
C 97.155312 317.38697 96.684099 316.249362 95.845453 315.410716 
C 95.006808 314.57207 93.8692 314.100858 92.683176 314.100858 
C 91.497151 314.100858 90.359544 314.57207 89.520898 315.410716 
C 88.682252 316.249362 88.21104 317.38697 88.21104 318.572994 
C 88.21104 319.759018 88.682252 320.896626 89.520898 321.735272 
C 90.359544 322.573917 91.497151 323.04513 92.683176 323.04513 
z
" clip-path="url(#p56a9312840)" style="fill-opacity: 0.5; stroke: #000000; stroke-opacity: 0.5"/>
    <path d="M 95.239993 323.04513 
C 96.426018 323.04513 97.563625 322.573917 98.402271 321.735272 
C 99.240917 320.896626 99.712129 319.759018 99.712129 318.572994 
C 99.712129 317.38697 99.240917 316.249362 98.402271 315.410716 
C 97.563625 314.57207 96.426018 314.100858 95.239993 314.100858 
C 94.053969 314.100858 92.916362 314.57207 92.077716 315.410716 
C 91.23907 316.249362 90.767858 317.38697 90.767858 318.572994 
C 90.767858 319.759018 91.23907 320.896626 92.077716 321.735272 
C 92.916362 322.573917 94.053969 323.04513 95.239993 323.04513 
z
" clip-path="url(#p56a9312840)" style="fill-opacity: 0.5; stroke: #000000; stroke-opacity: 0.5"/>
    <path d="M 97.731602 315.348048 
C 98.917626 315.348048 100.055234 314.876835 100.89388 314.03819 
C 101.732525 313.199544 102.203738 312.061936 102.203738 310.875912 
C 102.203738 309.689888 101.732525 308.55228 100.89388 307.713634 
C 100.055234 306.874988 98.917626 306.403776 97.731602 306.403776 
C 96.545578 306.403776 95.40797 306.874988 94.569324 307.713634 
C 93.730678 308.55228 93.259466 309.689888 93.259466 310.875912 
C 93.259466 312.061936 93.730678 313.199544 94.569324 314.03819 
C 95.40797 314.876835 96.545578 315.348048 97.731602 315.348048 
z
" clip-path="url(#p56a9312840)" style="fill-opacity: 0.5; stroke: #000000; stroke-opacity: 0.5"/>
    <path d="M 115.401093 304.902008 
C 116.587118 304.902008 117.724725 304.430796 118.563371 303.59215 
C 119.402017 302.753504 119.873229 301.615896 119.873229 300.429872 
C 119.873229 299.243848 119.402017 298.10624 118.563371 297.267595 
C 117.724725 296.428949 116.587118 295.957736 115.401093 295.957736 
C 114.215069 295.957736 113.077462 296.428949 112.238816 297.267595 
C 111.40017 298.10624 110.928958 299.243848 110.928958 300.429872 
C 110.928958 301.615896 111.40017 302.753504 112.238816 303.59215 
C 113.077462 304.430796 114.215069 304.902008 115.401093 304.902008 
z
" clip-path="url(#p56a9312840)" style="fill-opacity: 0.5; stroke: #000000; stroke-opacity: 0.5"/>
    <path d="M 220.336237 183.398071 
C 221.522261 183.398071 222.659869 182.926859 223.498515 182.088213 
C 224.337161 181.249567 224.808373 180.11196 224.808373 178.925935 
C 224.808373 177.739911 224.337161 176.602304 223.498515 175.763658 
C 222.659869 174.925012 221.522261 174.453799 220.336237 174.453799 
C 219.150213 174.453799 218.012605 174.925012 217.173959 175.763658 
C 216.335314 176.602304 215.864101 177.739911 215.864101 178.925935 
C 215.864101 180.11196 216.335314 181.249567 217.173959 182.088213 
C 218.012605 182.926859 219.150213 183.398071 220.336237 183.398071 
z
" clip-path="url(#p56a9312840)" style="fill-opacity: 0.5; stroke: #000000; stroke-opacity: 0.5"/>
    <path d="M 120.088918 262.018266 
C 121.274942 262.018266 122.41255 261.547053 123.251195 260.708407 
C 124.089841 259.869762 124.561054 258.732154 124.561054 257.54613 
C 124.561054 256.360105 124.089841 255.222498 123.251195 254.383852 
C 122.41255 253.545206 121.274942 253.073994 120.088918 253.073994 
C 118.902893 253.073994 117.765286 253.545206 116.92664 254.383852 
C 116.087994 255.222498 115.616782 256.360105 115.616782 257.54613 
C 115.616782 258.732154 116.087994 259.869762 116.92664 260.708407 
C 117.765286 261.547053 118.902893 262.018266 120.088918 262.018266 
z
" clip-path="url(#p56a9312840)" style="fill-opacity: 0.5; stroke: #000000; stroke-opacity: 0.5"/>
    <path d="M 99.534611 301.603259 
C 100.720636 301.603259 101.858243 301.132046 102.696889 300.2934 
C 103.535535 299.454755 104.006747 298.317147 104.006747 297.131123 
C 104.006747 295.945098 103.535535 294.807491 102.696889 293.968845 
C 101.858243 293.130199 100.720636 292.658987 99.534611 292.658987 
C 98.348587 292.658987 97.210979 293.130199 96.372334 293.968845 
C 95.533688 294.807491 95.062475 295.945098 95.062475 297.131123 
C 95.062475 298.317147 95.533688 299.454755 96.372334 300.2934 
C 97.210979 301.132046 98.348587 301.603259 99.534611 301.603259 
z
" clip-path="url(#p56a9312840)" style="fill-opacity: 0.5; stroke: #000000; stroke-opacity: 0.5"/>
    <path d="M 270.099295 94.331837 
C 271.285319 94.331837 272.422927 93.860625 273.261573 93.021979 
C 274.100218 92.183333 274.571431 91.045726 274.571431 89.859701 
C 274.571431 88.673677 274.100218 87.536069 273.261573 86.697424 
C 272.422927 85.858778 271.285319 85.387565 270.099295 85.387565 
C 268.913271 85.387565 267.775663 85.858778 266.937017 86.697424 
C 266.098371 87.536069 265.627159 88.673677 265.627159 89.859701 
C 265.627159 91.045726 266.098371 92.183333 266.937017 93.021979 
C 267.775663 93.860625 268.913271 94.331837 270.099295 94.331837 
z
" clip-path="url(#p56a9312840)" style="fill-opacity: 0.5; stroke: #000000; stroke-opacity: 0.5"/>
    <path d="M 125.137344 275.763055 
C 126.323368 275.763055 127.460976 275.291843 128.299622 274.453197 
C 129.138267 273.614551 129.60948 272.476943 129.60948 271.290919 
C 129.60948 270.104895 129.138267 268.967287 128.299622 268.128641 
C 127.460976 267.289996 126.323368 266.818783 125.137344 266.818783 
C 123.95132 266.818783 122.813712 267.289996 121.975066 268.128641 
C 121.13642 268.967287 120.665208 270.104895 120.665208 271.290919 
C 120.665208 272.476943 121.13642 273.614551 121.975066 274.453197 
C 122.813712 275.291843 123.95132 275.763055 125.137344 275.763055 
z
" clip-path="url(#p56a9312840)" style="fill-opacity: 0.5; stroke: #000000; stroke-opacity: 0.5"/>
    <path d="M 101.337621 295.00576 
C 102.523645 295.00576 103.661252 294.534547 104.499898 293.695902 
C 105.338544 292.857256 105.809757 291.719648 105.809757 290.533624 
C 105.809757 289.3476 105.338544 288.209992 104.499898 287.371346 
C 103.661252 286.5327 102.523645 286.061488 101.337621 286.061488 
C 100.151596 286.061488 99.013989 286.5327 98.175343 287.371346 
C 97.336697 288.209992 96.865485 289.3476 96.865485 290.533624 
C 96.865485 291.719648 97.336697 292.857256 98.175343 293.695902 
C 99.013989 294.534547 100.151596 295.00576 101.337621 295.00576 
z
" clip-path="url(#p56a9312840)" style="fill-opacity: 0.5; stroke: #000000; stroke-opacity: 0.5"/>
    <path d="M 322.025964 113.574542 
C 323.211988 113.574542 324.349596 113.10333 325.188242 112.264684 
C 326.026887 111.426038 326.4981 110.288431 326.4981 109.102406 
C 326.4981 107.916382 326.026887 106.778774 325.188242 105.940129 
C 324.349596 105.101483 323.211988 104.63027 322.025964 104.63027 
C 320.83994 104.63027 319.702332 105.101483 318.863686 105.940129 
C 318.02504 106.778774 317.553828 107.916382 317.553828 109.102406 
C 317.553828 110.288431 318.02504 111.426038 318.863686 112.264684 
C 319.702332 113.10333 320.83994 113.574542 322.025964 113.574542 
z
" clip-path="url(#p56a9312840)" style="fill-opacity: 0.5; stroke: #000000; stroke-opacity: 0.5"/>
    <path d="M 116.843501 275.763055 
C 118.029525 275.763055 119.167133 275.291843 120.005779 274.453197 
C 120.844424 273.614551 121.315637 272.476943 121.315637 271.290919 
C 121.315637 270.104895 120.844424 268.967287 120.005779 268.128641 
C 119.167133 267.289996 118.029525 266.818783 116.843501 266.818783 
C 115.657477 266.818783 114.519869 267.289996 113.681223 268.128641 
C 112.842577 268.967287 112.371365 270.104895 112.371365 271.290919 
C 112.371365 272.476943 112.842577 273.614551 113.681223 274.453197 
C 114.519869 275.291843 115.657477 275.763055 116.843501 275.763055 
z
" clip-path="url(#p56a9312840)" style="fill-opacity: 0.5; stroke: #000000; stroke-opacity: 0.5"/>
    <path d="M 255.68368 210.581835 
C 256.869704 210.581835 258.007312 210.110623 258.845958 209.271977 
C 259.684604 208.433331 260.155816 207.295724 260.155816 206.109699 
C 260.155816 204.923675 259.684604 203.786068 258.845958 202.947422 
C 258.007312 202.108776 256.869704 201.637563 255.68368 201.637563 
C 254.497656 201.637563 253.360048 202.108776 252.521402 202.947422 
C 251.682757 203.786068 251.211544 204.923675 251.211544 206.109699 
C 251.211544 207.295724 251.682757 208.433331 252.521402 209.271977 
C 253.360048 210.110623 254.497656 210.581835 255.68368 210.581835 
z
" clip-path="url(#p56a9312840)" style="fill-opacity: 0.5; stroke: #000000; stroke-opacity: 0.5"/>
    <path d="M 183.885839 212.235707 
C 185.071863 212.235707 186.209471 211.764495 187.048117 210.925849 
C 187.886762 210.087203 188.357975 208.949596 188.357975 207.763571 
C 188.357975 206.577547 187.886762 205.43994 187.048117 204.601294 
C 186.209471 203.762648 185.071863 203.291435 183.885839 203.291435 
C 182.699815 203.291435 181.562207 203.762648 180.723561 204.601294 
C 179.884915 205.43994 179.413703 206.577547 179.413703 207.763571 
C 179.413703 208.949596 179.884915 210.087203 180.723561 210.925849 
C 181.562207 211.764495 182.699815 212.235707 183.885839 212.235707 
z
" clip-path="url(#p56a9312840)" style="fill-opacity: 0.5; stroke: #000000; stroke-opacity: 0.5"/>
    <path d="M 98.504622 313.121898 
C 99.690647 313.121898 100.828254 312.650686 101.6669 311.81204 
C 102.505546 310.973394 102.976758 309.835786 102.976758 308.649762 
C 102.976758 307.463738 102.505546 306.32613 101.6669 305.487484 
C 100.828254 304.648839 99.690647 304.177626 98.504622 304.177626 
C 97.318598 304.177626 96.180991 304.648839 95.342345 305.487484 
C 94.503699 306.32613 94.032486 307.463738 94.032486 308.649762 
C 94.032486 309.835786 94.503699 310.973394 95.342345 311.81204 
C 96.180991 312.650686 97.318598 313.121898 98.504622 313.121898 
z
" clip-path="url(#p56a9312840)" style="fill-opacity: 0.5; stroke: #000000; stroke-opacity: 0.5"/>
    <path d="M 196.498973 194.043116 
C 197.684997 194.043116 198.822605 193.571903 199.661251 192.733257 
C 200.499897 191.894611 200.971109 190.757004 200.971109 189.57098 
C 200.971109 188.384955 200.499897 187.247348 199.661251 186.408702 
C 198.822605 185.570056 197.684997 185.098844 196.498973 185.098844 
C 195.312949 185.098844 194.175341 185.570056 193.336695 186.408702 
C 192.49805 187.247348 192.026837 188.384955 192.026837 189.57098 
C 192.026837 190.757004 192.49805 191.894611 193.336695 192.733257 
C 194.175341 193.571903 195.312949 194.043116 196.498973 194.043116 
z
" clip-path="url(#p56a9312840)" style="fill-opacity: 0.5; stroke: #000000; stroke-opacity: 0.5"/>
    <path d="M 190.677527 142.773084 
C 191.863551 142.773084 193.001158 142.301872 193.839804 141.463226 
C 194.67845 140.62458 195.149663 139.486973 195.149663 138.300948 
C 195.149663 137.114924 194.67845 135.977316 193.839804 135.138671 
C 193.001158 134.300025 191.863551 133.828812 190.677527 133.828812 
C 189.491502 133.828812 188.353895 134.300025 187.515249 135.138671 
C 186.676603 135.977316 186.205391 137.114924 186.205391 138.300948 
C 186.205391 139.486973 186.676603 140.62458 187.515249 141.463226 
C 188.353895 142.301872 189.491502 142.773084 190.677527 142.773084 
z
" clip-path="url(#p56a9312840)" style="fill-opacity: 0.5; stroke: #000000; stroke-opacity: 0.5"/>
    <path d="M 156.719088 167.581164 
C 157.905112 167.581164 159.04272 167.109951 159.881366 166.271306 
C 160.720012 165.43266 161.191224 164.295052 161.191224 163.109028 
C 161.191224 161.923004 160.720012 160.785396 159.881366 159.94675 
C 159.04272 159.108104 157.905112 158.636892 156.719088 158.636892 
C 155.533064 158.636892 154.395456 159.108104 153.556811 159.94675 
C 152.718165 160.785396 152.246952 161.923004 152.246952 163.109028 
C 152.246952 164.295052 152.718165 165.43266 153.556811 166.271306 
C 154.395456 167.109951 155.533064 167.581164 156.719088 167.581164 
z
" clip-path="url(#p56a9312840)" style="fill-opacity: 0.5; stroke: #000000; stroke-opacity: 0.5"/>
    <path d="M 152.838124 276.736714 
C 154.024148 276.736714 155.161756 276.265502 156.000401 275.426856 
C 156.839047 274.58821 157.31026 273.450603 157.31026 272.264579 
C 157.31026 271.078554 156.839047 269.940947 156.000401 269.102301 
C 155.161756 268.263655 154.024148 267.792443 152.838124 267.792443 
C 151.652099 267.792443 150.514492 268.263655 149.675846 269.102301 
C 148.8372 269.940947 148.365988 271.078554 148.365988 272.264579 
C 148.365988 273.450603 148.8372 274.58821 149.675846 275.426856 
C 150.514492 276.265502 151.652099 276.736714 152.838124 276.736714 
z
" clip-path="url(#p56a9312840)" style="fill-opacity: 0.5; stroke: #000000; stroke-opacity: 0.5"/>
    <path d="M 98.504622 308.160282 
C 99.690647 308.160282 100.828254 307.68907 101.6669 306.850424 
C 102.505546 306.011778 102.976758 304.87417 102.976758 303.688146 
C 102.976758 302.502122 102.505546 301.364514 101.6669 300.525868 
C 100.828254 299.687223 99.690647 299.21601 98.504622 299.21601 
C 97.318598 299.21601 96.180991 299.687223 95.342345 300.525868 
C 94.503699 301.364514 94.032486 302.502122 94.032486 303.688146 
C 94.032486 304.87417 94.503699 306.011778 95.342345 306.850424 
C 96.180991 307.68907 97.318598 308.160282 98.504622 308.160282 
z
" clip-path="url(#p56a9312840)" style="fill-opacity: 0.5; stroke: #000000; stroke-opacity: 0.5"/>
    <path d="M 158.65957 280.044458 
C 159.845595 280.044458 160.983202 279.573246 161.821848 278.7346 
C 162.660494 277.895954 163.131706 276.758347 163.131706 275.572322 
C 163.131706 274.386298 162.660494 273.248691 161.821848 272.410045 
C 160.983202 271.571399 159.845595 271.100187 158.65957 271.100187 
C 157.473546 271.100187 156.335939 271.571399 155.497293 272.410045 
C 154.658647 273.248691 154.187434 274.386298 154.187434 275.572322 
C 154.187434 276.758347 154.658647 277.895954 155.497293 278.7346 
C 156.335939 279.573246 157.473546 280.044458 158.65957 280.044458 
z
" clip-path="url(#p56a9312840)" style="fill-opacity: 0.5; stroke: #000000; stroke-opacity: 0.5"/>
    <path d="M 96.56414 316.429642 
C 97.750164 316.429642 98.887772 315.95843 99.726418 315.119784 
C 100.565064 314.281138 101.036276 313.14353 101.036276 311.957506 
C 101.036276 310.771482 100.565064 309.633874 99.726418 308.795228 
C 98.887772 307.956583 97.750164 307.48537 96.56414 307.48537 
C 95.378116 307.48537 94.240508 307.956583 93.401862 308.795228 
C 92.563217 309.633874 92.092004 310.771482 92.092004 311.957506 
C 92.092004 313.14353 92.563217 314.281138 93.401862 315.119784 
C 94.240508 315.95843 95.378116 316.429642 96.56414 316.429642 
z
" clip-path="url(#p56a9312840)" style="fill-opacity: 0.5; stroke: #000000; stroke-opacity: 0.5"/>
    <path d="M 150.362012 242.17079 
C 151.548036 242.17079 152.685644 241.699578 153.52429 240.860932 
C 154.362936 240.022286 154.834148 238.884678 154.834148 237.698654 
C 154.834148 236.51263 154.362936 235.375022 153.52429 234.536376 
C 152.685644 233.697731 151.548036 233.226518 150.362012 233.226518 
C 149.175988 233.226518 148.03838 233.697731 147.199734 234.536376 
C 146.361089 235.375022 145.889876 236.51263 145.889876 237.698654 
C 145.889876 238.884678 146.361089 240.022286 147.199734 240.860932 
C 148.03838 241.699578 149.175988 242.17079 150.362012 242.17079 
z
" clip-path="url(#p56a9312840)" style="fill-opacity: 0.5; stroke: #000000; stroke-opacity: 0.5"/>
    <path d="M 140.748873 249.719062 
C 141.934897 249.719062 143.072505 249.247849 143.91115 248.409204 
C 144.749796 247.570558 145.221009 246.43295 145.221009 245.246926 
C 145.221009 244.060902 144.749796 242.923294 143.91115 242.084648 
C 143.072505 241.246002 141.934897 240.77479 140.748873 240.77479 
C 139.562848 240.77479 138.425241 241.246002 137.586595 242.084648 
C 136.747949 242.923294 136.276737 244.060902 136.276737 245.246926 
C 136.276737 246.43295 136.747949 247.570558 137.586595 248.409204 
C 138.425241 249.247849 139.562848 249.719062 140.748873 249.719062 
z
" clip-path="url(#p56a9312840)" style="fill-opacity: 0.5; stroke: #000000; stroke-opacity: 0.5"/>
    <path d="M 225.664937 183.941265 
C 226.850962 183.941265 227.988569 183.470053 228.827215 182.631407 
C 229.665861 181.792761 230.137073 180.655154 230.137073 179.46913 
C 230.137073 178.283105 229.665861 177.145498 228.827215 176.306852 
C 227.988569 175.468206 226.850962 174.996994 225.664937 174.996994 
C 224.478913 174.996994 223.341306 175.468206 222.50266 176.306852 
C 221.664014 177.145498 221.192801 178.283105 221.192801 179.46913 
C 221.192801 180.655154 221.664014 181.792761 222.50266 182.631407 
C 223.341306 183.470053 224.478913 183.941265 225.664937 183.941265 
z
" clip-path="url(#p56a9312840)" style="fill-opacity: 0.5; stroke: #000000; stroke-opacity: 0.5"/>
    <path d="M 99.091935 313.340209 
C 100.27796 313.340209 101.415567 312.868997 102.254213 312.030351 
C 103.092859 311.191705 103.564071 310.054097 103.564071 308.868073 
C 103.564071 307.682049 103.092859 306.544441 102.254213 305.705796 
C 101.415567 304.86715 100.27796 304.395937 99.091935 304.395937 
C 97.905911 304.395937 96.768304 304.86715 95.929658 305.705796 
C 95.091012 306.544441 94.619799 307.682049 94.619799 308.868073 
C 94.619799 310.054097 95.091012 311.191705 95.929658 312.030351 
C 96.768304 312.868997 97.905911 313.340209 99.091935 313.340209 
z
" clip-path="url(#p56a9312840)" style="fill-opacity: 0.5; stroke: #000000; stroke-opacity: 0.5"/>
    <path d="M 108.705075 283.147122 
C 109.891099 283.147122 111.028707 282.67591 111.867352 281.837264 
C 112.705998 280.998618 113.177211 279.861011 113.177211 278.674986 
C 113.177211 277.488962 112.705998 276.351354 111.867352 275.512709 
C 111.028707 274.674063 109.891099 274.20285 108.705075 274.20285 
C 107.51905 274.20285 106.381443 274.674063 105.542797 275.512709 
C 104.704151 276.351354 104.232939 277.488962 104.232939 278.674986 
C 104.232939 279.861011 104.704151 280.998618 105.542797 281.837264 
C 106.381443 282.67591 107.51905 283.147122 108.705075 283.147122 
z
" clip-path="url(#p56a9312840)" style="fill-opacity: 0.5; stroke: #000000; stroke-opacity: 0.5"/>
    <path d="M 111.909455 259.423983 
C 113.095479 259.423983 114.233086 258.95277 115.071732 258.114124 
C 115.910378 257.275478 116.381591 256.137871 116.381591 254.951847 
C 116.381591 253.765822 115.910378 252.628215 115.071732 251.789569 
C 114.233086 250.950923 113.095479 250.479711 111.909455 250.479711 
C 110.72343 250.479711 109.585823 250.950923 108.747177 251.789569 
C 107.908531 252.628215 107.437319 253.765822 107.437319 254.951847 
C 107.437319 256.137871 107.908531 257.275478 108.747177 258.114124 
C 109.585823 258.95277 110.72343 259.423983 111.909455 259.423983 
z
" clip-path="url(#p56a9312840)" style="fill-opacity: 0.5; stroke: #000000; stroke-opacity: 0.5"/>
    <path d="M 103.898505 292.852043 
C 105.084529 292.852043 106.222137 292.380831 107.060783 291.542185 
C 107.899429 290.703539 108.370641 289.565931 108.370641 288.379907 
C 108.370641 287.193883 107.899429 286.056275 107.060783 285.217629 
C 106.222137 284.378984 105.084529 283.907771 103.898505 283.907771 
C 102.712481 283.907771 101.574873 284.378984 100.736227 285.217629 
C 99.897582 286.056275 99.426369 287.193883 99.426369 288.379907 
C 99.426369 289.565931 99.897582 290.703539 100.736227 291.542185 
C 101.574873 292.380831 102.712481 292.852043 103.898505 292.852043 
z
" clip-path="url(#p56a9312840)" style="fill-opacity: 0.5; stroke: #000000; stroke-opacity: 0.5"/>
    <path d="M 180.80362 228.152571 
C 181.989645 228.152571 183.127252 227.681359 183.965898 226.842713 
C 184.804544 226.004067 185.275756 224.86646 185.275756 223.680435 
C 185.275756 222.494411 184.804544 221.356803 183.965898 220.518158 
C 183.127252 219.679512 181.989645 219.208299 180.80362 219.208299 
C 179.617596 219.208299 178.479988 219.679512 177.641343 220.518158 
C 176.802697 221.356803 176.331484 222.494411 176.331484 223.680435 
C 176.331484 224.86646 176.802697 226.004067 177.641343 226.842713 
C 178.479988 227.681359 179.617596 228.152571 180.80362 228.152571 
z
" clip-path="url(#p56a9312840)" style="fill-opacity: 0.5; stroke: #000000; stroke-opacity: 0.5"/>
    <path d="M 268.924065 150.513205 
C 270.110089 150.513205 271.247696 150.041993 272.086342 149.203347 
C 272.924988 148.364701 273.396201 147.227093 273.396201 146.041069 
C 273.396201 144.855045 272.924988 143.717437 272.086342 142.878791 
C 271.247696 142.040146 270.110089 141.568933 268.924065 141.568933 
C 267.73804 141.568933 266.600433 142.040146 265.761787 142.878791 
C 264.923141 143.717437 264.451929 144.855045 264.451929 146.041069 
C 264.451929 147.227093 264.923141 148.364701 265.761787 149.203347 
C 266.600433 150.041993 267.73804 150.513205 268.924065 150.513205 
z
" clip-path="url(#p56a9312840)" style="fill-opacity: 0.5; stroke: #000000; stroke-opacity: 0.5"/>
    <path d="M 198.427709 218.44765 
C 199.613733 218.44765 200.751341 217.976438 201.589987 217.137792 
C 202.428633 216.299146 202.899845 215.161539 202.899845 213.975514 
C 202.899845 212.78949 202.428633 211.651883 201.589987 210.813237 
C 200.751341 209.974591 199.613733 209.503379 198.427709 209.503379 
C 197.241685 209.503379 196.104077 209.974591 195.265431 210.813237 
C 194.426786 211.651883 193.955573 212.78949 193.955573 213.975514 
C 193.955573 215.161539 194.426786 216.299146 195.265431 217.137792 
C 196.104077 217.976438 197.241685 218.44765 198.427709 218.44765 
z
" clip-path="url(#p56a9312840)" style="fill-opacity: 0.5; stroke: #000000; stroke-opacity: 0.5"/>
   </g>
   <g id="matplotlib.axis_1">
    <g id="xtick_1">
     <g id="line2d_1">
      <defs>
       <path id="m21abaadb42" d="M 0 0 
L 0 3.5 
" style="stroke: #000000; stroke-width: 0.8"/>
      </defs>
      <g>
       <use xlink:href="#m21abaadb42" x="92.683176" y="333.121422" style="stroke: #000000; stroke-width: 0.8"/>
      </g>
     </g>
     <g id="text_1">
      <!-- 0.0 -->
      <g transform="translate(84.731613 347.71986) scale(0.1 -0.1)">
       <defs>
        <path id="DejaVuSans-30" d="M 2034 4250 
Q 1547 4250 1301 3770 
Q 1056 3291 1056 2328 
Q 1056 1369 1301 889 
Q 1547 409 2034 409 
Q 2525 409 2770 889 
Q 3016 1369 3016 2328 
Q 3016 3291 2770 3770 
Q 2525 4250 2034 4250 
z
M 2034 4750 
Q 2819 4750 3233 4129 
Q 3647 3509 3647 2328 
Q 3647 1150 3233 529 
Q 2819 -91 2034 -91 
Q 1250 -91 836 529 
Q 422 1150 422 2328 
Q 422 3509 836 4129 
Q 1250 4750 2034 4750 
z
" transform="scale(0.015625)"/>
        <path id="DejaVuSans-2e" d="M 684 794 
L 1344 794 
L 1344 0 
L 684 0 
L 684 794 
z
" transform="scale(0.015625)"/>
       </defs>
       <use xlink:href="#DejaVuSans-30"/>
       <use xlink:href="#DejaVuSans-2e" x="63.623047"/>
       <use xlink:href="#DejaVuSans-30" x="95.410156"/>
      </g>
     </g>
    </g>
    <g id="xtick_2">
     <g id="line2d_2">
      <g>
       <use xlink:href="#m21abaadb42" x="158.853619" y="333.121422" style="stroke: #000000; stroke-width: 0.8"/>
      </g>
     </g>
     <g id="text_2">
      <!-- 0.1 -->
      <g transform="translate(150.902056 347.71986) scale(0.1 -0.1)">
       <defs>
        <path id="DejaVuSans-31" d="M 794 531 
L 1825 531 
L 1825 4091 
L 703 3866 
L 703 4441 
L 1819 4666 
L 2450 4666 
L 2450 531 
L 3481 531 
L 3481 0 
L 794 0 
L 794 531 
z
" transform="scale(0.015625)"/>
       </defs>
       <use xlink:href="#DejaVuSans-30"/>
       <use xlink:href="#DejaVuSans-2e" x="63.623047"/>
       <use xlink:href="#DejaVuSans-31" x="95.410156"/>
      </g>
     </g>
    </g>
    <g id="xtick_3">
     <g id="line2d_3">
      <g>
       <use xlink:href="#m21abaadb42" x="225.024061" y="333.121422" style="stroke: #000000; stroke-width: 0.8"/>
      </g>
     </g>
     <g id="text_3">
      <!-- 0.2 -->
      <g transform="translate(217.072499 347.71986) scale(0.1 -0.1)">
       <defs>
        <path id="DejaVuSans-32" d="M 1228 531 
L 3431 531 
L 3431 0 
L 469 0 
L 469 531 
Q 828 903 1448 1529 
Q 2069 2156 2228 2338 
Q 2531 2678 2651 2914 
Q 2772 3150 2772 3378 
Q 2772 3750 2511 3984 
Q 2250 4219 1831 4219 
Q 1534 4219 1204 4116 
Q 875 4013 500 3803 
L 500 4441 
Q 881 4594 1212 4672 
Q 1544 4750 1819 4750 
Q 2544 4750 2975 4387 
Q 3406 4025 3406 3419 
Q 3406 3131 3298 2873 
Q 3191 2616 2906 2266 
Q 2828 2175 2409 1742 
Q 1991 1309 1228 531 
z
" transform="scale(0.015625)"/>
       </defs>
       <use xlink:href="#DejaVuSans-30"/>
       <use xlink:href="#DejaVuSans-2e" x="63.623047"/>
       <use xlink:href="#DejaVuSans-32" x="95.410156"/>
      </g>
     </g>
    </g>
    <g id="xtick_4">
     <g id="line2d_4">
      <g>
       <use xlink:href="#m21abaadb42" x="291.194504" y="333.121422" style="stroke: #000000; stroke-width: 0.8"/>
      </g>
     </g>
     <g id="text_4">
      <!-- 0.3 -->
      <g transform="translate(283.242942 347.71986) scale(0.1 -0.1)">
       <defs>
        <path id="DejaVuSans-33" d="M 2597 2516 
Q 3050 2419 3304 2112 
Q 3559 1806 3559 1356 
Q 3559 666 3084 287 
Q 2609 -91 1734 -91 
Q 1441 -91 1130 -33 
Q 819 25 488 141 
L 488 750 
Q 750 597 1062 519 
Q 1375 441 1716 441 
Q 2309 441 2620 675 
Q 2931 909 2931 1356 
Q 2931 1769 2642 2001 
Q 2353 2234 1838 2234 
L 1294 2234 
L 1294 2753 
L 1863 2753 
Q 2328 2753 2575 2939 
Q 2822 3125 2822 3475 
Q 2822 3834 2567 4026 
Q 2313 4219 1838 4219 
Q 1578 4219 1281 4162 
Q 984 4106 628 3988 
L 628 4550 
Q 988 4650 1302 4700 
Q 1616 4750 1894 4750 
Q 2613 4750 3031 4423 
Q 3450 4097 3450 3541 
Q 3450 3153 3228 2886 
Q 3006 2619 2597 2516 
z
" transform="scale(0.015625)"/>
       </defs>
       <use xlink:href="#DejaVuSans-30"/>
       <use xlink:href="#DejaVuSans-2e" x="63.623047"/>
       <use xlink:href="#DejaVuSans-33" x="95.410156"/>
      </g>
     </g>
    </g>
    <g id="xtick_5">
     <g id="line2d_5">
      <g>
       <use xlink:href="#m21abaadb42" x="357.364947" y="333.121422" style="stroke: #000000; stroke-width: 0.8"/>
      </g>
     </g>
     <g id="text_5">
      <!-- 0.4 -->
      <g transform="translate(349.413385 347.71986) scale(0.1 -0.1)">
       <defs>
        <path id="DejaVuSans-34" d="M 2419 4116 
L 825 1625 
L 2419 1625 
L 2419 4116 
z
M 2253 4666 
L 3047 4666 
L 3047 1625 
L 3713 1625 
L 3713 1100 
L 3047 1100 
L 3047 0 
L 2419 0 
L 2419 1100 
L 313 1100 
L 313 1709 
L 2253 4666 
z
" transform="scale(0.015625)"/>
       </defs>
       <use xlink:href="#DejaVuSans-30"/>
       <use xlink:href="#DejaVuSans-2e" x="63.623047"/>
       <use xlink:href="#DejaVuSans-34" x="95.410156"/>
      </g>
     </g>
    </g>
    <g id="text_6">
     <!-- Normalized outgoing chasings, round 1 -->
     <g transform="translate(73.389201 366.716891) scale(0.17 -0.17)">
      <defs>
       <path id="DejaVuSans-4e" d="M 628 4666 
L 1478 4666 
L 3547 763 
L 3547 4666 
L 4159 4666 
L 4159 0 
L 3309 0 
L 1241 3903 
L 1241 0 
L 628 0 
L 628 4666 
z
" transform="scale(0.015625)"/>
       <path id="DejaVuSans-6f" d="M 1959 3097 
Q 1497 3097 1228 2736 
Q 959 2375 959 1747 
Q 959 1119 1226 758 
Q 1494 397 1959 397 
Q 2419 397 2687 759 
Q 2956 1122 2956 1747 
Q 2956 2369 2687 2733 
Q 2419 3097 1959 3097 
z
M 1959 3584 
Q 2709 3584 3137 3096 
Q 3566 2609 3566 1747 
Q 3566 888 3137 398 
Q 2709 -91 1959 -91 
Q 1206 -91 779 398 
Q 353 888 353 1747 
Q 353 2609 779 3096 
Q 1206 3584 1959 3584 
z
" transform="scale(0.015625)"/>
       <path id="DejaVuSans-72" d="M 2631 2963 
Q 2534 3019 2420 3045 
Q 2306 3072 2169 3072 
Q 1681 3072 1420 2755 
Q 1159 2438 1159 1844 
L 1159 0 
L 581 0 
L 581 3500 
L 1159 3500 
L 1159 2956 
Q 1341 3275 1631 3429 
Q 1922 3584 2338 3584 
Q 2397 3584 2469 3576 
Q 2541 3569 2628 3553 
L 2631 2963 
z
" transform="scale(0.015625)"/>
       <path id="DejaVuSans-6d" d="M 3328 2828 
Q 3544 3216 3844 3400 
Q 4144 3584 4550 3584 
Q 5097 3584 5394 3201 
Q 5691 2819 5691 2113 
L 5691 0 
L 5113 0 
L 5113 2094 
Q 5113 2597 4934 2840 
Q 4756 3084 4391 3084 
Q 3944 3084 3684 2787 
Q 3425 2491 3425 1978 
L 3425 0 
L 2847 0 
L 2847 2094 
Q 2847 2600 2669 2842 
Q 2491 3084 2119 3084 
Q 1678 3084 1418 2786 
Q 1159 2488 1159 1978 
L 1159 0 
L 581 0 
L 581 3500 
L 1159 3500 
L 1159 2956 
Q 1356 3278 1631 3431 
Q 1906 3584 2284 3584 
Q 2666 3584 2933 3390 
Q 3200 3197 3328 2828 
z
" transform="scale(0.015625)"/>
       <path id="DejaVuSans-61" d="M 2194 1759 
Q 1497 1759 1228 1600 
Q 959 1441 959 1056 
Q 959 750 1161 570 
Q 1363 391 1709 391 
Q 2188 391 2477 730 
Q 2766 1069 2766 1631 
L 2766 1759 
L 2194 1759 
z
M 3341 1997 
L 3341 0 
L 2766 0 
L 2766 531 
Q 2569 213 2275 61 
Q 1981 -91 1556 -91 
Q 1019 -91 701 211 
Q 384 513 384 1019 
Q 384 1609 779 1909 
Q 1175 2209 1959 2209 
L 2766 2209 
L 2766 2266 
Q 2766 2663 2505 2880 
Q 2244 3097 1772 3097 
Q 1472 3097 1187 3025 
Q 903 2953 641 2809 
L 641 3341 
Q 956 3463 1253 3523 
Q 1550 3584 1831 3584 
Q 2591 3584 2966 3190 
Q 3341 2797 3341 1997 
z
" transform="scale(0.015625)"/>
       <path id="DejaVuSans-6c" d="M 603 4863 
L 1178 4863 
L 1178 0 
L 603 0 
L 603 4863 
z
" transform="scale(0.015625)"/>
       <path id="DejaVuSans-69" d="M 603 3500 
L 1178 3500 
L 1178 0 
L 603 0 
L 603 3500 
z
M 603 4863 
L 1178 4863 
L 1178 4134 
L 603 4134 
L 603 4863 
z
" transform="scale(0.015625)"/>
       <path id="DejaVuSans-7a" d="M 353 3500 
L 3084 3500 
L 3084 2975 
L 922 459 
L 3084 459 
L 3084 0 
L 275 0 
L 275 525 
L 2438 3041 
L 353 3041 
L 353 3500 
z
" transform="scale(0.015625)"/>
       <path id="DejaVuSans-65" d="M 3597 1894 
L 3597 1613 
L 953 1613 
Q 991 1019 1311 708 
Q 1631 397 2203 397 
Q 2534 397 2845 478 
Q 3156 559 3463 722 
L 3463 178 
Q 3153 47 2828 -22 
Q 2503 -91 2169 -91 
Q 1331 -91 842 396 
Q 353 884 353 1716 
Q 353 2575 817 3079 
Q 1281 3584 2069 3584 
Q 2775 3584 3186 3129 
Q 3597 2675 3597 1894 
z
M 3022 2063 
Q 3016 2534 2758 2815 
Q 2500 3097 2075 3097 
Q 1594 3097 1305 2825 
Q 1016 2553 972 2059 
L 3022 2063 
z
" transform="scale(0.015625)"/>
       <path id="DejaVuSans-64" d="M 2906 2969 
L 2906 4863 
L 3481 4863 
L 3481 0 
L 2906 0 
L 2906 525 
Q 2725 213 2448 61 
Q 2172 -91 1784 -91 
Q 1150 -91 751 415 
Q 353 922 353 1747 
Q 353 2572 751 3078 
Q 1150 3584 1784 3584 
Q 2172 3584 2448 3432 
Q 2725 3281 2906 2969 
z
M 947 1747 
Q 947 1113 1208 752 
Q 1469 391 1925 391 
Q 2381 391 2643 752 
Q 2906 1113 2906 1747 
Q 2906 2381 2643 2742 
Q 2381 3103 1925 3103 
Q 1469 3103 1208 2742 
Q 947 2381 947 1747 
z
" transform="scale(0.015625)"/>
       <path id="DejaVuSans-20" transform="scale(0.015625)"/>
       <path id="DejaVuSans-75" d="M 544 1381 
L 544 3500 
L 1119 3500 
L 1119 1403 
Q 1119 906 1312 657 
Q 1506 409 1894 409 
Q 2359 409 2629 706 
Q 2900 1003 2900 1516 
L 2900 3500 
L 3475 3500 
L 3475 0 
L 2900 0 
L 2900 538 
Q 2691 219 2414 64 
Q 2138 -91 1772 -91 
Q 1169 -91 856 284 
Q 544 659 544 1381 
z
M 1991 3584 
L 1991 3584 
z
" transform="scale(0.015625)"/>
       <path id="DejaVuSans-74" d="M 1172 4494 
L 1172 3500 
L 2356 3500 
L 2356 3053 
L 1172 3053 
L 1172 1153 
Q 1172 725 1289 603 
Q 1406 481 1766 481 
L 2356 481 
L 2356 0 
L 1766 0 
Q 1100 0 847 248 
Q 594 497 594 1153 
L 594 3053 
L 172 3053 
L 172 3500 
L 594 3500 
L 594 4494 
L 1172 4494 
z
" transform="scale(0.015625)"/>
       <path id="DejaVuSans-67" d="M 2906 1791 
Q 2906 2416 2648 2759 
Q 2391 3103 1925 3103 
Q 1463 3103 1205 2759 
Q 947 2416 947 1791 
Q 947 1169 1205 825 
Q 1463 481 1925 481 
Q 2391 481 2648 825 
Q 2906 1169 2906 1791 
z
M 3481 434 
Q 3481 -459 3084 -895 
Q 2688 -1331 1869 -1331 
Q 1566 -1331 1297 -1286 
Q 1028 -1241 775 -1147 
L 775 -588 
Q 1028 -725 1275 -790 
Q 1522 -856 1778 -856 
Q 2344 -856 2625 -561 
Q 2906 -266 2906 331 
L 2906 616 
Q 2728 306 2450 153 
Q 2172 0 1784 0 
Q 1141 0 747 490 
Q 353 981 353 1791 
Q 353 2603 747 3093 
Q 1141 3584 1784 3584 
Q 2172 3584 2450 3431 
Q 2728 3278 2906 2969 
L 2906 3500 
L 3481 3500 
L 3481 434 
z
" transform="scale(0.015625)"/>
       <path id="DejaVuSans-6e" d="M 3513 2113 
L 3513 0 
L 2938 0 
L 2938 2094 
Q 2938 2591 2744 2837 
Q 2550 3084 2163 3084 
Q 1697 3084 1428 2787 
Q 1159 2491 1159 1978 
L 1159 0 
L 581 0 
L 581 3500 
L 1159 3500 
L 1159 2956 
Q 1366 3272 1645 3428 
Q 1925 3584 2291 3584 
Q 2894 3584 3203 3211 
Q 3513 2838 3513 2113 
z
" transform="scale(0.015625)"/>
       <path id="DejaVuSans-63" d="M 3122 3366 
L 3122 2828 
Q 2878 2963 2633 3030 
Q 2388 3097 2138 3097 
Q 1578 3097 1268 2742 
Q 959 2388 959 1747 
Q 959 1106 1268 751 
Q 1578 397 2138 397 
Q 2388 397 2633 464 
Q 2878 531 3122 666 
L 3122 134 
Q 2881 22 2623 -34 
Q 2366 -91 2075 -91 
Q 1284 -91 818 406 
Q 353 903 353 1747 
Q 353 2603 823 3093 
Q 1294 3584 2113 3584 
Q 2378 3584 2631 3529 
Q 2884 3475 3122 3366 
z
" transform="scale(0.015625)"/>
       <path id="DejaVuSans-68" d="M 3513 2113 
L 3513 0 
L 2938 0 
L 2938 2094 
Q 2938 2591 2744 2837 
Q 2550 3084 2163 3084 
Q 1697 3084 1428 2787 
Q 1159 2491 1159 1978 
L 1159 0 
L 581 0 
L 581 4863 
L 1159 4863 
L 1159 2956 
Q 1366 3272 1645 3428 
Q 1925 3584 2291 3584 
Q 2894 3584 3203 3211 
Q 3513 2838 3513 2113 
z
" transform="scale(0.015625)"/>
       <path id="DejaVuSans-73" d="M 2834 3397 
L 2834 2853 
Q 2591 2978 2328 3040 
Q 2066 3103 1784 3103 
Q 1356 3103 1142 2972 
Q 928 2841 928 2578 
Q 928 2378 1081 2264 
Q 1234 2150 1697 2047 
L 1894 2003 
Q 2506 1872 2764 1633 
Q 3022 1394 3022 966 
Q 3022 478 2636 193 
Q 2250 -91 1575 -91 
Q 1294 -91 989 -36 
Q 684 19 347 128 
L 347 722 
Q 666 556 975 473 
Q 1284 391 1588 391 
Q 1994 391 2212 530 
Q 2431 669 2431 922 
Q 2431 1156 2273 1281 
Q 2116 1406 1581 1522 
L 1381 1569 
Q 847 1681 609 1914 
Q 372 2147 372 2553 
Q 372 3047 722 3315 
Q 1072 3584 1716 3584 
Q 2034 3584 2315 3537 
Q 2597 3491 2834 3397 
z
" transform="scale(0.015625)"/>
       <path id="DejaVuSans-2c" d="M 750 794 
L 1409 794 
L 1409 256 
L 897 -744 
L 494 -744 
L 750 256 
L 750 794 
z
" transform="scale(0.015625)"/>
      </defs>
      <use xlink:href="#DejaVuSans-4e"/>
      <use xlink:href="#DejaVuSans-6f" x="74.804688"/>
      <use xlink:href="#DejaVuSans-72" x="135.986328"/>
      <use xlink:href="#DejaVuSans-6d" x="175.349609"/>
      <use xlink:href="#DejaVuSans-61" x="272.761719"/>
      <use xlink:href="#DejaVuSans-6c" x="334.041016"/>
      <use xlink:href="#DejaVuSans-69" x="361.824219"/>
      <use xlink:href="#DejaVuSans-7a" x="389.607422"/>
      <use xlink:href="#DejaVuSans-65" x="442.097656"/>
      <use xlink:href="#DejaVuSans-64" x="503.621094"/>
      <use xlink:href="#DejaVuSans-20" x="567.097656"/>
      <use xlink:href="#DejaVuSans-6f" x="598.884766"/>
      <use xlink:href="#DejaVuSans-75" x="660.066406"/>
      <use xlink:href="#DejaVuSans-74" x="723.445312"/>
      <use xlink:href="#DejaVuSans-67" x="762.654297"/>
      <use xlink:href="#DejaVuSans-6f" x="826.130859"/>
      <use xlink:href="#DejaVuSans-69" x="887.3125"/>
      <use xlink:href="#DejaVuSans-6e" x="915.095703"/>
      <use xlink:href="#DejaVuSans-67" x="978.474609"/>
      <use xlink:href="#DejaVuSans-20" x="1041.951172"/>
      <use xlink:href="#DejaVuSans-63" x="1073.738281"/>
      <use xlink:href="#DejaVuSans-68" x="1128.71875"/>
      <use xlink:href="#DejaVuSans-61" x="1192.097656"/>
      <use xlink:href="#DejaVuSans-73" x="1253.376953"/>
      <use xlink:href="#DejaVuSans-69" x="1305.476562"/>
      <use xlink:href="#DejaVuSans-6e" x="1333.259766"/>
      <use xlink:href="#DejaVuSans-67" x="1396.638672"/>
      <use xlink:href="#DejaVuSans-73" x="1460.115234"/>
      <use xlink:href="#DejaVuSans-2c" x="1512.214844"/>
      <use xlink:href="#DejaVuSans-20" x="1544.001953"/>
      <use xlink:href="#DejaVuSans-72" x="1575.789062"/>
      <use xlink:href="#DejaVuSans-6f" x="1614.652344"/>
      <use xlink:href="#DejaVuSans-75" x="1675.833984"/>
      <use xlink:href="#DejaVuSans-6e" x="1739.212891"/>
      <use xlink:href="#DejaVuSans-64" x="1802.591797"/>
      <use xlink:href="#DejaVuSans-20" x="1866.068359"/>
      <use xlink:href="#DejaVuSans-31" x="1897.855469"/>
     </g>
    </g>
   </g>
   <g id="matplotlib.axis_2">
    <g id="ytick_1">
     <g id="line2d_6">
      <defs>
       <path id="mb5b5f4b13f" d="M 0 0 
L -3.5 0 
" style="stroke: #000000; stroke-width: 0.8"/>
      </defs>
      <g>
       <use xlink:href="#mb5b5f4b13f" x="77.940089" y="318.572994" style="stroke: #000000; stroke-width: 0.8"/>
      </g>
     </g>
     <g id="text_7">
      <!-- 0.00 -->
      <g transform="translate(48.674464 322.372213) scale(0.1 -0.1)">
       <use xlink:href="#DejaVuSans-30"/>
       <use xlink:href="#DejaVuSans-2e" x="63.623047"/>
       <use xlink:href="#DejaVuSans-30" x="95.410156"/>
       <use xlink:href="#DejaVuSans-30" x="159.033203"/>
      </g>
     </g>
    </g>
    <g id="ytick_2">
     <g id="line2d_7">
      <g>
       <use xlink:href="#mb5b5f4b13f" x="77.940089" y="278.135824" style="stroke: #000000; stroke-width: 0.8"/>
      </g>
     </g>
     <g id="text_8">
      <!-- 0.05 -->
      <g transform="translate(48.674464 281.935043) scale(0.1 -0.1)">
       <defs>
        <path id="DejaVuSans-35" d="M 691 4666 
L 3169 4666 
L 3169 4134 
L 1269 4134 
L 1269 2991 
Q 1406 3038 1543 3061 
Q 1681 3084 1819 3084 
Q 2600 3084 3056 2656 
Q 3513 2228 3513 1497 
Q 3513 744 3044 326 
Q 2575 -91 1722 -91 
Q 1428 -91 1123 -41 
Q 819 9 494 109 
L 494 744 
Q 775 591 1075 516 
Q 1375 441 1709 441 
Q 2250 441 2565 725 
Q 2881 1009 2881 1497 
Q 2881 1984 2565 2268 
Q 2250 2553 1709 2553 
Q 1456 2553 1204 2497 
Q 953 2441 691 2322 
L 691 4666 
z
" transform="scale(0.015625)"/>
       </defs>
       <use xlink:href="#DejaVuSans-30"/>
       <use xlink:href="#DejaVuSans-2e" x="63.623047"/>
       <use xlink:href="#DejaVuSans-30" x="95.410156"/>
       <use xlink:href="#DejaVuSans-35" x="159.033203"/>
      </g>
     </g>
    </g>
    <g id="ytick_3">
     <g id="line2d_8">
      <g>
       <use xlink:href="#mb5b5f4b13f" x="77.940089" y="237.698654" style="stroke: #000000; stroke-width: 0.8"/>
      </g>
     </g>
     <g id="text_9">
      <!-- 0.10 -->
      <g transform="translate(48.674464 241.497873) scale(0.1 -0.1)">
       <use xlink:href="#DejaVuSans-30"/>
       <use xlink:href="#DejaVuSans-2e" x="63.623047"/>
       <use xlink:href="#DejaVuSans-31" x="95.410156"/>
       <use xlink:href="#DejaVuSans-30" x="159.033203"/>
      </g>
     </g>
    </g>
    <g id="ytick_4">
     <g id="line2d_9">
      <g>
       <use xlink:href="#mb5b5f4b13f" x="77.940089" y="197.261484" style="stroke: #000000; stroke-width: 0.8"/>
      </g>
     </g>
     <g id="text_10">
      <!-- 0.15 -->
      <g transform="translate(48.674464 201.060703) scale(0.1 -0.1)">
       <use xlink:href="#DejaVuSans-30"/>
       <use xlink:href="#DejaVuSans-2e" x="63.623047"/>
       <use xlink:href="#DejaVuSans-31" x="95.410156"/>
       <use xlink:href="#DejaVuSans-35" x="159.033203"/>
      </g>
     </g>
    </g>
    <g id="ytick_5">
     <g id="line2d_10">
      <g>
       <use xlink:href="#mb5b5f4b13f" x="77.940089" y="156.824314" style="stroke: #000000; stroke-width: 0.8"/>
      </g>
     </g>
     <g id="text_11">
      <!-- 0.20 -->
      <g transform="translate(48.674464 160.623533) scale(0.1 -0.1)">
       <use xlink:href="#DejaVuSans-30"/>
       <use xlink:href="#DejaVuSans-2e" x="63.623047"/>
       <use xlink:href="#DejaVuSans-32" x="95.410156"/>
       <use xlink:href="#DejaVuSans-30" x="159.033203"/>
      </g>
     </g>
    </g>
    <g id="ytick_6">
     <g id="line2d_11">
      <g>
       <use xlink:href="#mb5b5f4b13f" x="77.940089" y="116.387144" style="stroke: #000000; stroke-width: 0.8"/>
      </g>
     </g>
     <g id="text_12">
      <!-- 0.25 -->
      <g transform="translate(48.674464 120.186363) scale(0.1 -0.1)">
       <use xlink:href="#DejaVuSans-30"/>
       <use xlink:href="#DejaVuSans-2e" x="63.623047"/>
       <use xlink:href="#DejaVuSans-32" x="95.410156"/>
       <use xlink:href="#DejaVuSans-35" x="159.033203"/>
      </g>
     </g>
    </g>
    <g id="ytick_7">
     <g id="line2d_12">
      <g>
       <use xlink:href="#mb5b5f4b13f" x="77.940089" y="75.949975" style="stroke: #000000; stroke-width: 0.8"/>
      </g>
     </g>
     <g id="text_13">
      <!-- 0.30 -->
      <g transform="translate(48.674464 79.749193) scale(0.1 -0.1)">
       <use xlink:href="#DejaVuSans-30"/>
       <use xlink:href="#DejaVuSans-2e" x="63.623047"/>
       <use xlink:href="#DejaVuSans-33" x="95.410156"/>
       <use xlink:href="#DejaVuSans-30" x="159.033203"/>
      </g>
     </g>
    </g>
    <g id="ytick_8">
     <g id="line2d_13">
      <g>
       <use xlink:href="#mb5b5f4b13f" x="77.940089" y="35.512805" style="stroke: #000000; stroke-width: 0.8"/>
      </g>
     </g>
     <g id="text_14">
      <!-- 0.35 -->
      <g transform="translate(48.674464 39.312023) scale(0.1 -0.1)">
       <use xlink:href="#DejaVuSans-30"/>
       <use xlink:href="#DejaVuSans-2e" x="63.623047"/>
       <use xlink:href="#DejaVuSans-33" x="95.410156"/>
       <use xlink:href="#DejaVuSans-35" x="159.033203"/>
      </g>
     </g>
    </g>
    <g id="text_15">
     <!-- Normalized outgoing chasings, round 2 -->
     <g transform="translate(41.138995 339.813555) rotate(-90) scale(0.17 -0.17)">
      <use xlink:href="#DejaVuSans-4e"/>
      <use xlink:href="#DejaVuSans-6f" x="74.804688"/>
      <use xlink:href="#DejaVuSans-72" x="135.986328"/>
      <use xlink:href="#DejaVuSans-6d" x="175.349609"/>
      <use xlink:href="#DejaVuSans-61" x="272.761719"/>
      <use xlink:href="#DejaVuSans-6c" x="334.041016"/>
      <use xlink:href="#DejaVuSans-69" x="361.824219"/>
      <use xlink:href="#DejaVuSans-7a" x="389.607422"/>
      <use xlink:href="#DejaVuSans-65" x="442.097656"/>
      <use xlink:href="#DejaVuSans-64" x="503.621094"/>
      <use xlink:href="#DejaVuSans-20" x="567.097656"/>
      <use xlink:href="#DejaVuSans-6f" x="598.884766"/>
      <use xlink:href="#DejaVuSans-75" x="660.066406"/>
      <use xlink:href="#DejaVuSans-74" x="723.445312"/>
      <use xlink:href="#DejaVuSans-67" x="762.654297"/>
      <use xlink:href="#DejaVuSans-6f" x="826.130859"/>
      <use xlink:href="#DejaVuSans-69" x="887.3125"/>
      <use xlink:href="#DejaVuSans-6e" x="915.095703"/>
      <use xlink:href="#DejaVuSans-67" x="978.474609"/>
      <use xlink:href="#DejaVuSans-20" x="1041.951172"/>
      <use xlink:href="#DejaVuSans-63" x="1073.738281"/>
      <use xlink:href="#DejaVuSans-68" x="1128.71875"/>
      <use xlink:href="#DejaVuSans-61" x="1192.097656"/>
      <use xlink:href="#DejaVuSans-73" x="1253.376953"/>
      <use xlink:href="#DejaVuSans-69" x="1305.476562"/>
      <use xlink:href="#DejaVuSans-6e" x="1333.259766"/>
      <use xlink:href="#DejaVuSans-67" x="1396.638672"/>
      <use xlink:href="#DejaVuSans-73" x="1460.115234"/>
      <use xlink:href="#DejaVuSans-2c" x="1512.214844"/>
      <use xlink:href="#DejaVuSans-20" x="1544.001953"/>
      <use xlink:href="#DejaVuSans-72" x="1575.789062"/>
      <use xlink:href="#DejaVuSans-6f" x="1614.652344"/>
      <use xlink:href="#DejaVuSans-75" x="1675.833984"/>
      <use xlink:href="#DejaVuSans-6e" x="1739.212891"/>
      <use xlink:href="#DejaVuSans-64" x="1802.591797"/>
      <use xlink:href="#DejaVuSans-20" x="1866.068359"/>
      <use xlink:href="#DejaVuSans-32" x="1897.855469"/>
     </g>
    </g>
   </g>
   <g id="patch_3">
    <path d="M 77.940089 333.121422 
L 77.940089 13.056 
" style="fill: none; stroke: #000000; stroke-width: 0.8; stroke-linejoin: miter; stroke-linecap: square"/>
   </g>
   <g id="patch_4">
    <path d="M 402.288 333.121422 
L 402.288 13.056 
" style="fill: none; stroke: #000000; stroke-width: 0.8; stroke-linejoin: miter; stroke-linecap: square"/>
   </g>
   <g id="patch_5">
    <path d="M 77.940089 333.121422 
L 402.288 333.121422 
" style="fill: none; stroke: #000000; stroke-width: 0.8; stroke-linejoin: miter; stroke-linecap: square"/>
   </g>
   <g id="patch_6">
    <path d="M 77.940089 13.056 
L 402.288 13.056 
" style="fill: none; stroke: #000000; stroke-width: 0.8; stroke-linejoin: miter; stroke-linecap: square"/>
   </g>
  </g>
 </g>
 <defs>
  <clipPath id="p56a9312840">
   <rect x="77.940089" y="13.056" width="324.347911" height="320.065422"/>
  </clipPath>
 </defs>
</svg>
