<?xml version="1.0" encoding="utf-8" standalone="no"?>
<!DOCTYPE svg PUBLIC "-//W3C//DTD SVG 1.1//EN"
  "http://www.w3.org/Graphics/SVG/1.1/DTD/svg11.dtd">
<svg xmlns:xlink="http://www.w3.org/1999/xlink" width="324pt" height="324pt" viewBox="0 0 324 324" xmlns="http://www.w3.org/2000/svg" version="1.1">
 <metadata>
  <rdf:RDF xmlns:dc="http://purl.org/dc/elements/1.1/" xmlns:cc="http://creativecommons.org/ns#" xmlns:rdf="http://www.w3.org/1999/02/22-rdf-syntax-ns#">
   <cc:Work>
    <dc:type rdf:resource="http://purl.org/dc/dcmitype/StillImage"/>
    <dc:date>2025-07-08T11:34:52.246350</dc:date>
    <dc:format>image/svg+xml</dc:format>
    <dc:creator>
     <cc:Agent>
      <dc:title>Matplotlib v3.9.2, https://matplotlib.org/</dc:title>
     </cc:Agent>
    </dc:creator>
   </cc:Work>
  </rdf:RDF>
 </metadata>
 <defs>
  <style type="text/css">*{stroke-linejoin: round; stroke-linecap: butt}</style>
 </defs>
 <g id="figure_1">
  <g id="patch_1">
   <path d="M 0 324 
L 324 324 
L 324 0 
L 0 0 
z
" style="fill: #ffffff"/>
  </g>
  <g id="axes_1">
   <g id="patch_2">
    <path d="M 49.52 277 
L 313.2 277 
L 313.2 10.8 
L 49.52 10.8 
z
" style="fill: #ffffff"/>
   </g>
   <g id="PathCollection_1">
    <path d="M 141.408485 218.868189 
C 143.462739 218.868189 145.433133 218.052025 146.88571 216.599448 
C 148.338288 215.146871 149.154452 213.176477 149.154452 211.122222 
C 149.154452 209.067968 148.338288 207.097574 146.88571 205.644997 
C 145.433133 204.192419 143.462739 203.376256 141.408485 203.376256 
C 139.35423 203.376256 137.383836 204.192419 135.931259 205.644997 
C 134.478682 207.097574 133.662518 209.067968 133.662518 211.122222 
C 133.662518 213.176477 134.478682 215.146871 135.931259 216.599448 
C 137.383836 218.052025 139.35423 218.868189 141.408485 218.868189 
z
" clip-path="url(#p3cad4c8165)" style="fill-opacity: 0.5; stroke: #000000; stroke-opacity: 0.5"/>
    <path d="M 247.945859 81.149914 
C 249.131883 81.149914 250.26949 80.678701 251.108136 79.840055 
C 251.946782 79.00141 252.417995 77.863802 252.417995 76.677778 
C 252.417995 75.491753 251.946782 74.354146 251.108136 73.5155 
C 250.26949 72.676854 249.131883 72.205642 247.945859 72.205642 
C 246.759834 72.205642 245.622227 72.676854 244.783581 73.5155 
C 243.944935 74.354146 243.473723 75.491753 243.473723 76.677778 
C 243.473723 77.863802 243.944935 79.00141 244.783581 79.840055 
C 245.622227 80.678701 246.759834 81.149914 247.945859 81.149914 
z
" clip-path="url(#p3cad4c8165)" style="fill-opacity: 0.5; stroke: #000000; stroke-opacity: 0.5"/>
    <path d="M 247.945859 165.090411 
C 250.000113 165.090411 251.970507 164.274247 253.423084 162.82167 
C 254.875661 161.369093 255.691825 159.398699 255.691825 157.344444 
C 255.691825 155.29019 254.875661 153.319796 253.423084 151.867219 
C 251.970507 150.414642 250.000113 149.598478 247.945859 149.598478 
C 245.891604 149.598478 243.92121 150.414642 242.468633 151.867219 
C 241.016056 153.319796 240.199892 155.29019 240.199892 157.344444 
C 240.199892 159.398699 241.016056 161.369093 242.468633 162.82167 
C 243.92121 164.274247 245.891604 165.090411 247.945859 165.090411 
z
" clip-path="url(#p3cad4c8165)" style="fill-opacity: 0.5; stroke: #000000; stroke-opacity: 0.5"/>
    <path d="M 61.505455 245.757078 
C 63.559709 245.757078 65.530103 244.940914 66.98268 243.488337 
C 68.435257 242.035759 69.251421 240.065365 69.251421 238.011111 
C 69.251421 235.956857 68.435257 233.986463 66.98268 232.533886 
C 65.530103 231.081308 63.559709 230.265144 61.505455 230.265144 
C 59.4512 230.265144 57.480806 231.081308 56.028229 232.533886 
C 54.575652 233.986463 53.759488 235.956857 53.759488 238.011111 
C 53.759488 240.065365 54.575652 242.035759 56.028229 243.488337 
C 57.480806 244.940914 59.4512 245.757078 61.505455 245.757078 
z
" clip-path="url(#p3cad4c8165)" style="fill-opacity: 0.5; stroke: #000000; stroke-opacity: 0.5"/>
    <path d="M 88.139798 217.446778 
C 89.81709 217.446778 91.42591 216.780382 92.611934 215.594358 
C 93.797958 214.408334 94.464353 212.799514 94.464353 211.122222 
C 94.464353 209.444931 93.797958 207.836111 92.611934 206.650086 
C 91.42591 205.464062 89.81709 204.797667 88.139798 204.797667 
C 86.462506 204.797667 84.853686 205.464062 83.667662 206.650086 
C 82.481638 207.836111 81.815243 209.444931 81.815243 211.122222 
C 81.815243 212.799514 82.481638 214.408334 83.667662 215.594358 
C 84.853686 216.780382 86.462506 217.446778 88.139798 217.446778 
z
" clip-path="url(#p3cad4c8165)" style="fill-opacity: 0.5; stroke: #000000; stroke-opacity: 0.5"/>
    <path d="M 141.408485 242.483247 
C 142.594509 242.483247 143.732117 242.012035 144.570763 241.173389 
C 145.409408 240.334743 145.880621 239.197135 145.880621 238.011111 
C 145.880621 236.825087 145.409408 235.687479 144.570763 234.848833 
C 143.732117 234.010188 142.594509 233.538975 141.408485 233.538975 
C 140.222461 233.538975 139.084853 234.010188 138.246207 234.848833 
C 137.407561 235.687479 136.936349 236.825087 136.936349 238.011111 
C 136.936349 239.197135 137.407561 240.334743 138.246207 241.173389 
C 139.084853 242.012035 140.222461 242.483247 141.408485 242.483247 
z
" clip-path="url(#p3cad4c8165)" style="fill-opacity: 0.5; stroke: #000000; stroke-opacity: 0.5"/>
    <path d="M 247.945859 165.090411 
C 250.000113 165.090411 251.970507 164.274247 253.423084 162.82167 
C 254.875661 161.369093 255.691825 159.398699 255.691825 157.344444 
C 255.691825 155.29019 254.875661 153.319796 253.423084 151.867219 
C 251.970507 150.414642 250.000113 149.598478 247.945859 149.598478 
C 245.891604 149.598478 243.92121 150.414642 242.468633 151.867219 
C 241.016056 153.319796 240.199892 155.29019 240.199892 157.344444 
C 240.199892 159.398699 241.016056 161.369093 242.468633 162.82167 
C 243.92121 164.274247 245.891604 165.090411 247.945859 165.090411 
z
" clip-path="url(#p3cad4c8165)" style="fill-opacity: 0.5; stroke: #000000; stroke-opacity: 0.5"/>
    <path d="M 88.139798 272.645967 
C 90.194052 272.645967 92.164446 271.829803 93.617024 270.377226 
C 95.069601 268.924648 95.885765 266.954254 95.885765 264.9 
C 95.885765 262.845746 95.069601 260.875352 93.617024 259.422774 
C 92.164446 257.970197 90.194052 257.154033 88.139798 257.154033 
C 86.085544 257.154033 84.11515 257.970197 82.662572 259.422774 
C 81.209995 260.875352 80.393831 262.845746 80.393831 264.9 
C 80.393831 266.954254 81.209995 268.924648 82.662572 270.377226 
C 84.11515 271.829803 86.085544 272.645967 88.139798 272.645967 
z
" clip-path="url(#p3cad4c8165)" style="fill-opacity: 0.5; stroke: #000000; stroke-opacity: 0.5"/>
    <path d="M 61.505455 271.224555 
C 63.182746 271.224555 64.791566 270.55816 65.977591 269.372136 
C 67.163615 268.186112 67.83001 266.577292 67.83001 264.9 
C 67.83001 263.222708 67.163615 261.613888 65.977591 260.427864 
C 64.791566 259.24184 63.182746 258.575445 61.505455 258.575445 
C 59.828163 258.575445 58.219343 259.24184 57.033319 260.427864 
C 55.847294 261.613888 55.180899 263.222708 55.180899 264.9 
C 55.180899 266.577292 55.847294 268.186112 57.033319 269.372136 
C 58.219343 270.55816 59.828163 271.224555 61.505455 271.224555 
z
" clip-path="url(#p3cad4c8165)" style="fill-opacity: 0.5; stroke: #000000; stroke-opacity: 0.5"/>
    <path d="M 88.139798 272.645967 
C 90.194052 272.645967 92.164446 271.829803 93.617024 270.377226 
C 95.069601 268.924648 95.885765 266.954254 95.885765 264.9 
C 95.885765 262.845746 95.069601 260.875352 93.617024 259.422774 
C 92.164446 257.970197 90.194052 257.154033 88.139798 257.154033 
C 86.085544 257.154033 84.11515 257.970197 82.662572 259.422774 
C 81.209995 260.875352 80.393831 262.845746 80.393831 264.9 
C 80.393831 266.954254 81.209995 268.924648 82.662572 270.377226 
C 84.11515 271.829803 86.085544 272.645967 88.139798 272.645967 
z
" clip-path="url(#p3cad4c8165)" style="fill-opacity: 0.5; stroke: #000000; stroke-opacity: 0.5"/>
    <path d="M 61.505455 271.224555 
C 63.182746 271.224555 64.791566 270.55816 65.977591 269.372136 
C 67.163615 268.186112 67.83001 266.577292 67.83001 264.9 
C 67.83001 263.222708 67.163615 261.613888 65.977591 260.427864 
C 64.791566 259.24184 63.182746 258.575445 61.505455 258.575445 
C 59.828163 258.575445 58.219343 259.24184 57.033319 260.427864 
C 55.847294 261.613888 55.180899 263.222708 55.180899 264.9 
C 55.180899 266.577292 55.847294 268.186112 57.033319 269.372136 
C 58.219343 270.55816 59.828163 271.224555 61.505455 271.224555 
z
" clip-path="url(#p3cad4c8165)" style="fill-opacity: 0.5; stroke: #000000; stroke-opacity: 0.5"/>
    <path d="M 194.677172 27.372136 
C 195.863196 27.372136 197.000804 26.900923 197.839449 26.062278 
C 198.678095 25.223632 199.149308 24.086024 199.149308 22.9 
C 199.149308 21.713976 198.678095 20.576368 197.839449 19.737722 
C 197.000804 18.899077 195.863196 18.427864 194.677172 18.427864 
C 193.491147 18.427864 192.35354 18.899077 191.514894 19.737722 
C 190.676248 20.576368 190.205036 21.713976 190.205036 22.9 
C 190.205036 24.086024 190.676248 25.223632 191.514894 26.062278 
C 192.35354 26.900923 193.491147 27.372136 194.677172 27.372136 
z
" clip-path="url(#p3cad4c8165)" style="fill-opacity: 0.5; stroke: #000000; stroke-opacity: 0.5"/>
    <path d="M 301.214545 108.038803 
C 302.40057 108.038803 303.538177 107.56759 304.376823 106.728944 
C 305.215469 105.890298 305.686681 104.752691 305.686681 103.566667 
C 305.686681 102.380642 305.215469 101.243035 304.376823 100.404389 
C 303.538177 99.565743 302.40057 99.094531 301.214545 99.094531 
C 300.028521 99.094531 298.890914 99.565743 298.052268 100.404389 
C 297.213622 101.243035 296.742409 102.380642 296.742409 103.566667 
C 296.742409 104.752691 297.213622 105.890298 298.052268 106.728944 
C 298.890914 107.56759 300.028521 108.038803 301.214545 108.038803 
z
" clip-path="url(#p3cad4c8165)" style="fill-opacity: 0.5; stroke: #000000; stroke-opacity: 0.5"/>
    <path d="M 221.311515 134.927692 
C 222.497539 134.927692 223.635147 134.456479 224.473793 133.617833 
C 225.312439 132.779187 225.783651 131.64158 225.783651 130.455556 
C 225.783651 129.269531 225.312439 128.131924 224.473793 127.293278 
C 223.635147 126.454632 222.497539 125.98342 221.311515 125.98342 
C 220.125491 125.98342 218.987883 126.454632 218.149237 127.293278 
C 217.310592 128.131924 216.839379 129.269531 216.839379 130.455556 
C 216.839379 131.64158 217.310592 132.779187 218.149237 133.617833 
C 218.987883 134.456479 220.125491 134.927692 221.311515 134.927692 
z
" clip-path="url(#p3cad4c8165)" style="fill-opacity: 0.5; stroke: #000000; stroke-opacity: 0.5"/>
    <path d="M 194.677172 215.594358 
C 195.863196 215.594358 197.000804 215.123146 197.839449 214.2845 
C 198.678095 213.445854 199.149308 212.308247 199.149308 211.122222 
C 199.149308 209.936198 198.678095 208.79859 197.839449 207.959945 
C 197.000804 207.121299 195.863196 206.650086 194.677172 206.650086 
C 193.491147 206.650086 192.35354 207.121299 191.514894 207.959945 
C 190.676248 208.79859 190.205036 209.936198 190.205036 211.122222 
C 190.205036 212.308247 190.676248 213.445854 191.514894 214.2845 
C 192.35354 215.123146 193.491147 215.594358 194.677172 215.594358 
z
" clip-path="url(#p3cad4c8165)" style="fill-opacity: 0.5; stroke: #000000; stroke-opacity: 0.5"/>
    <path d="M 88.139798 217.446778 
C 89.81709 217.446778 91.42591 216.780382 92.611934 215.594358 
C 93.797958 214.408334 94.464353 212.799514 94.464353 211.122222 
C 94.464353 209.444931 93.797958 207.836111 92.611934 206.650086 
C 91.42591 205.464062 89.81709 204.797667 88.139798 204.797667 
C 86.462506 204.797667 84.853686 205.464062 83.667662 206.650086 
C 82.481638 207.836111 81.815243 209.444931 81.815243 211.122222 
C 81.815243 212.799514 82.481638 214.408334 83.667662 215.594358 
C 84.853686 216.780382 86.462506 217.446778 88.139798 217.446778 
z
" clip-path="url(#p3cad4c8165)" style="fill-opacity: 0.5; stroke: #000000; stroke-opacity: 0.5"/>
    <path d="M 114.774141 190.557889 
C 116.451433 190.557889 118.060253 189.891494 119.246277 188.705469 
C 120.432302 187.519445 121.098697 185.910625 121.098697 184.233333 
C 121.098697 182.556042 120.432302 180.947222 119.246277 179.761197 
C 118.060253 178.575173 116.451433 177.908778 114.774141 177.908778 
C 113.09685 177.908778 111.48803 178.575173 110.302005 179.761197 
C 109.115981 180.947222 108.449586 182.556042 108.449586 184.233333 
C 108.449586 185.910625 109.115981 187.519445 110.302005 188.705469 
C 111.48803 189.891494 113.09685 190.557889 114.774141 190.557889 
z
" clip-path="url(#p3cad4c8165)" style="fill-opacity: 0.5; stroke: #000000; stroke-opacity: 0.5"/>
    <path d="M 114.774141 190.557889 
C 116.451433 190.557889 118.060253 189.891494 119.246277 188.705469 
C 120.432302 187.519445 121.098697 185.910625 121.098697 184.233333 
C 121.098697 182.556042 120.432302 180.947222 119.246277 179.761197 
C 118.060253 178.575173 116.451433 177.908778 114.774141 177.908778 
C 113.09685 177.908778 111.48803 178.575173 110.302005 179.761197 
C 109.115981 180.947222 108.449586 182.556042 108.449586 184.233333 
C 108.449586 185.910625 109.115981 187.519445 110.302005 188.705469 
C 111.48803 189.891494 113.09685 190.557889 114.774141 190.557889 
z
" clip-path="url(#p3cad4c8165)" style="fill-opacity: 0.5; stroke: #000000; stroke-opacity: 0.5"/>
    <path d="M 141.408485 218.868189 
C 143.462739 218.868189 145.433133 218.052025 146.88571 216.599448 
C 148.338288 215.146871 149.154452 213.176477 149.154452 211.122222 
C 149.154452 209.067968 148.338288 207.097574 146.88571 205.644997 
C 145.433133 204.192419 143.462739 203.376256 141.408485 203.376256 
C 139.35423 203.376256 137.383836 204.192419 135.931259 205.644997 
C 134.478682 207.097574 133.662518 209.067968 133.662518 211.122222 
C 133.662518 213.176477 134.478682 215.146871 135.931259 216.599448 
C 137.383836 218.052025 139.35423 218.868189 141.408485 218.868189 
z
" clip-path="url(#p3cad4c8165)" style="fill-opacity: 0.5; stroke: #000000; stroke-opacity: 0.5"/>
    <path d="M 301.214545 81.149914 
C 302.40057 81.149914 303.538177 80.678701 304.376823 79.840055 
C 305.215469 79.00141 305.686681 77.863802 305.686681 76.677778 
C 305.686681 75.491753 305.215469 74.354146 304.376823 73.5155 
C 303.538177 72.676854 302.40057 72.205642 301.214545 72.205642 
C 300.028521 72.205642 298.890914 72.676854 298.052268 73.5155 
C 297.213622 74.354146 296.742409 75.491753 296.742409 76.677778 
C 296.742409 77.863802 297.213622 79.00141 298.052268 79.840055 
C 298.890914 80.678701 300.028521 81.149914 301.214545 81.149914 
z
" clip-path="url(#p3cad4c8165)" style="fill-opacity: 0.5; stroke: #000000; stroke-opacity: 0.5"/>
    <path d="M 247.945859 165.090411 
C 250.000113 165.090411 251.970507 164.274247 253.423084 162.82167 
C 254.875661 161.369093 255.691825 159.398699 255.691825 157.344444 
C 255.691825 155.29019 254.875661 153.319796 253.423084 151.867219 
C 251.970507 150.414642 250.000113 149.598478 247.945859 149.598478 
C 245.891604 149.598478 243.92121 150.414642 242.468633 151.867219 
C 241.016056 153.319796 240.199892 155.29019 240.199892 157.344444 
C 240.199892 159.398699 241.016056 161.369093 242.468633 162.82167 
C 243.92121 164.274247 245.891604 165.090411 247.945859 165.090411 
z
" clip-path="url(#p3cad4c8165)" style="fill-opacity: 0.5; stroke: #000000; stroke-opacity: 0.5"/>
    <path d="M 61.505455 245.757078 
C 63.559709 245.757078 65.530103 244.940914 66.98268 243.488337 
C 68.435257 242.035759 69.251421 240.065365 69.251421 238.011111 
C 69.251421 235.956857 68.435257 233.986463 66.98268 232.533886 
C 65.530103 231.081308 63.559709 230.265144 61.505455 230.265144 
C 59.4512 230.265144 57.480806 231.081308 56.028229 232.533886 
C 54.575652 233.986463 53.759488 235.956857 53.759488 238.011111 
C 53.759488 240.065365 54.575652 242.035759 56.028229 243.488337 
C 57.480806 244.940914 59.4512 245.757078 61.505455 245.757078 
z
" clip-path="url(#p3cad4c8165)" style="fill-opacity: 0.5; stroke: #000000; stroke-opacity: 0.5"/>
    <path d="M 114.774141 215.594358 
C 115.960166 215.594358 117.097773 215.123146 117.936419 214.2845 
C 118.775065 213.445854 119.246277 212.308247 119.246277 211.122222 
C 119.246277 209.936198 118.775065 208.79859 117.936419 207.959945 
C 117.097773 207.121299 115.960166 206.650086 114.774141 206.650086 
C 113.588117 206.650086 112.45051 207.121299 111.611864 207.959945 
C 110.773218 208.79859 110.302005 209.936198 110.302005 211.122222 
C 110.302005 212.308247 110.773218 213.445854 111.611864 214.2845 
C 112.45051 215.123146 113.588117 215.594358 114.774141 215.594358 
z
" clip-path="url(#p3cad4c8165)" style="fill-opacity: 0.5; stroke: #000000; stroke-opacity: 0.5"/>
    <path d="M 114.774141 108.038803 
C 115.960166 108.038803 117.097773 107.56759 117.936419 106.728944 
C 118.775065 105.890298 119.246277 104.752691 119.246277 103.566667 
C 119.246277 102.380642 118.775065 101.243035 117.936419 100.404389 
C 117.097773 99.565743 115.960166 99.094531 114.774141 99.094531 
C 113.588117 99.094531 112.45051 99.565743 111.611864 100.404389 
C 110.773218 101.243035 110.302005 102.380642 110.302005 103.566667 
C 110.302005 104.752691 110.773218 105.890298 111.611864 106.728944 
C 112.45051 107.56759 113.588117 108.038803 114.774141 108.038803 
z
" clip-path="url(#p3cad4c8165)" style="fill-opacity: 0.5; stroke: #000000; stroke-opacity: 0.5"/>
    <path d="M 61.505455 245.757078 
C 63.559709 245.757078 65.530103 244.940914 66.98268 243.488337 
C 68.435257 242.035759 69.251421 240.065365 69.251421 238.011111 
C 69.251421 235.956857 68.435257 233.986463 66.98268 232.533886 
C 65.530103 231.081308 63.559709 230.265144 61.505455 230.265144 
C 59.4512 230.265144 57.480806 231.081308 56.028229 232.533886 
C 54.575652 233.986463 53.759488 235.956857 53.759488 238.011111 
C 53.759488 240.065365 54.575652 242.035759 56.028229 243.488337 
C 57.480806 244.940914 59.4512 245.757078 61.505455 245.757078 
z
" clip-path="url(#p3cad4c8165)" style="fill-opacity: 0.5; stroke: #000000; stroke-opacity: 0.5"/>
    <path d="M 88.139798 272.645967 
C 90.194052 272.645967 92.164446 271.829803 93.617024 270.377226 
C 95.069601 268.924648 95.885765 266.954254 95.885765 264.9 
C 95.885765 262.845746 95.069601 260.875352 93.617024 259.422774 
C 92.164446 257.970197 90.194052 257.154033 88.139798 257.154033 
C 86.085544 257.154033 84.11515 257.970197 82.662572 259.422774 
C 81.209995 260.875352 80.393831 262.845746 80.393831 264.9 
C 80.393831 266.954254 81.209995 268.924648 82.662572 270.377226 
C 84.11515 271.829803 86.085544 272.645967 88.139798 272.645967 
z
" clip-path="url(#p3cad4c8165)" style="fill-opacity: 0.5; stroke: #000000; stroke-opacity: 0.5"/>
    <path d="M 247.945859 188.705469 
C 249.131883 188.705469 250.26949 188.234257 251.108136 187.395611 
C 251.946782 186.556965 252.417995 185.419358 252.417995 184.233333 
C 252.417995 183.047309 251.946782 181.909702 251.108136 181.071056 
C 250.26949 180.23241 249.131883 179.761197 247.945859 179.761197 
C 246.759834 179.761197 245.622227 180.23241 244.783581 181.071056 
C 243.944935 181.909702 243.473723 183.047309 243.473723 184.233333 
C 243.473723 185.419358 243.944935 186.556965 244.783581 187.395611 
C 245.622227 188.234257 246.759834 188.705469 247.945859 188.705469 
z
" clip-path="url(#p3cad4c8165)" style="fill-opacity: 0.5; stroke: #000000; stroke-opacity: 0.5"/>
    <path d="M 141.408485 218.868189 
C 143.462739 218.868189 145.433133 218.052025 146.88571 216.599448 
C 148.338288 215.146871 149.154452 213.176477 149.154452 211.122222 
C 149.154452 209.067968 148.338288 207.097574 146.88571 205.644997 
C 145.433133 204.192419 143.462739 203.376256 141.408485 203.376256 
C 139.35423 203.376256 137.383836 204.192419 135.931259 205.644997 
C 134.478682 207.097574 133.662518 209.067968 133.662518 211.122222 
C 133.662518 213.176477 134.478682 215.146871 135.931259 216.599448 
C 137.383836 218.052025 139.35423 218.868189 141.408485 218.868189 
z
" clip-path="url(#p3cad4c8165)" style="fill-opacity: 0.5; stroke: #000000; stroke-opacity: 0.5"/>
   </g>
   <g id="matplotlib.axis_1">
    <g id="xtick_1">
     <g id="line2d_1">
      <defs>
       <path id="m6696cf6a46" d="M 0 0 
L 0 3.5 
" style="stroke: #000000; stroke-width: 0.8"/>
      </defs>
      <g>
       <use xlink:href="#m6696cf6a46" x="88.139798" y="277" style="stroke: #000000; stroke-width: 0.8"/>
      </g>
     </g>
     <g id="text_1">
      <!-- 2 -->
      <g transform="translate(85.359329 291.157812) scale(0.1 -0.1)">
       <defs>
        <path id="ArialMT-32" d="M 3222 541 
L 3222 0 
L 194 0 
Q 188 203 259 391 
Q 375 700 629 1000 
Q 884 1300 1366 1694 
Q 2113 2306 2375 2664 
Q 2638 3022 2638 3341 
Q 2638 3675 2398 3904 
Q 2159 4134 1775 4134 
Q 1369 4134 1125 3890 
Q 881 3647 878 3216 
L 300 3275 
Q 359 3922 746 4261 
Q 1134 4600 1788 4600 
Q 2447 4600 2831 4234 
Q 3216 3869 3216 3328 
Q 3216 3053 3103 2787 
Q 2991 2522 2730 2228 
Q 2469 1934 1863 1422 
Q 1356 997 1212 845 
Q 1069 694 975 541 
L 3222 541 
z
" transform="scale(0.015625)"/>
       </defs>
       <use xlink:href="#ArialMT-32"/>
      </g>
     </g>
    </g>
    <g id="xtick_2">
     <g id="line2d_2">
      <g>
       <use xlink:href="#m6696cf6a46" x="141.408485" y="277" style="stroke: #000000; stroke-width: 0.8"/>
      </g>
     </g>
     <g id="text_2">
      <!-- 4 -->
      <g transform="translate(138.628016 291.157812) scale(0.1 -0.1)">
       <defs>
        <path id="ArialMT-34" d="M 2069 0 
L 2069 1097 
L 81 1097 
L 81 1613 
L 2172 4581 
L 2631 4581 
L 2631 1613 
L 3250 1613 
L 3250 1097 
L 2631 1097 
L 2631 0 
L 2069 0 
z
M 2069 1613 
L 2069 3678 
L 634 1613 
L 2069 1613 
z
" transform="scale(0.015625)"/>
       </defs>
       <use xlink:href="#ArialMT-34"/>
      </g>
     </g>
    </g>
    <g id="xtick_3">
     <g id="line2d_3">
      <g>
       <use xlink:href="#m6696cf6a46" x="194.677172" y="277" style="stroke: #000000; stroke-width: 0.8"/>
      </g>
     </g>
     <g id="text_3">
      <!-- 6 -->
      <g transform="translate(191.896703 291.157812) scale(0.1 -0.1)">
       <defs>
        <path id="ArialMT-36" d="M 3184 3459 
L 2625 3416 
Q 2550 3747 2413 3897 
Q 2184 4138 1850 4138 
Q 1581 4138 1378 3988 
Q 1113 3794 959 3422 
Q 806 3050 800 2363 
Q 1003 2672 1297 2822 
Q 1591 2972 1913 2972 
Q 2475 2972 2870 2558 
Q 3266 2144 3266 1488 
Q 3266 1056 3080 686 
Q 2894 316 2569 119 
Q 2244 -78 1831 -78 
Q 1128 -78 684 439 
Q 241 956 241 2144 
Q 241 3472 731 4075 
Q 1159 4600 1884 4600 
Q 2425 4600 2770 4297 
Q 3116 3994 3184 3459 
z
M 888 1484 
Q 888 1194 1011 928 
Q 1134 663 1356 523 
Q 1578 384 1822 384 
Q 2178 384 2434 671 
Q 2691 959 2691 1453 
Q 2691 1928 2437 2201 
Q 2184 2475 1800 2475 
Q 1419 2475 1153 2201 
Q 888 1928 888 1484 
z
" transform="scale(0.015625)"/>
       </defs>
       <use xlink:href="#ArialMT-36"/>
      </g>
     </g>
    </g>
    <g id="xtick_4">
     <g id="line2d_4">
      <g>
       <use xlink:href="#m6696cf6a46" x="247.945859" y="277" style="stroke: #000000; stroke-width: 0.8"/>
      </g>
     </g>
     <g id="text_4">
      <!-- 8 -->
      <g transform="translate(245.16539 291.157812) scale(0.1 -0.1)">
       <defs>
        <path id="ArialMT-38" d="M 1131 2484 
Q 781 2613 612 2850 
Q 444 3088 444 3419 
Q 444 3919 803 4259 
Q 1163 4600 1759 4600 
Q 2359 4600 2725 4251 
Q 3091 3903 3091 3403 
Q 3091 3084 2923 2848 
Q 2756 2613 2416 2484 
Q 2838 2347 3058 2040 
Q 3278 1734 3278 1309 
Q 3278 722 2862 322 
Q 2447 -78 1769 -78 
Q 1091 -78 675 323 
Q 259 725 259 1325 
Q 259 1772 486 2073 
Q 713 2375 1131 2484 
z
M 1019 3438 
Q 1019 3113 1228 2906 
Q 1438 2700 1772 2700 
Q 2097 2700 2305 2904 
Q 2513 3109 2513 3406 
Q 2513 3716 2298 3927 
Q 2084 4138 1766 4138 
Q 1444 4138 1231 3931 
Q 1019 3725 1019 3438 
z
M 838 1322 
Q 838 1081 952 856 
Q 1066 631 1291 507 
Q 1516 384 1775 384 
Q 2178 384 2440 643 
Q 2703 903 2703 1303 
Q 2703 1709 2433 1975 
Q 2163 2241 1756 2241 
Q 1359 2241 1098 1978 
Q 838 1716 838 1322 
z
" transform="scale(0.015625)"/>
       </defs>
       <use xlink:href="#ArialMT-38"/>
      </g>
     </g>
    </g>
    <g id="xtick_5">
     <g id="line2d_5">
      <g>
       <use xlink:href="#m6696cf6a46" x="301.214545" y="277" style="stroke: #000000; stroke-width: 0.8"/>
      </g>
     </g>
     <g id="text_5">
      <!-- 10 -->
      <g transform="translate(295.653608 291.157812) scale(0.1 -0.1)">
       <defs>
        <path id="ArialMT-31" d="M 2384 0 
L 1822 0 
L 1822 3584 
Q 1619 3391 1289 3197 
Q 959 3003 697 2906 
L 697 3450 
Q 1169 3672 1522 3987 
Q 1875 4303 2022 4600 
L 2384 4600 
L 2384 0 
z
" transform="scale(0.015625)"/>
        <path id="ArialMT-30" d="M 266 2259 
Q 266 3072 433 3567 
Q 600 4063 929 4331 
Q 1259 4600 1759 4600 
Q 2128 4600 2406 4451 
Q 2684 4303 2865 4023 
Q 3047 3744 3150 3342 
Q 3253 2941 3253 2259 
Q 3253 1453 3087 958 
Q 2922 463 2592 192 
Q 2263 -78 1759 -78 
Q 1097 -78 719 397 
Q 266 969 266 2259 
z
M 844 2259 
Q 844 1131 1108 757 
Q 1372 384 1759 384 
Q 2147 384 2411 759 
Q 2675 1134 2675 2259 
Q 2675 3391 2411 3762 
Q 2147 4134 1753 4134 
Q 1366 4134 1134 3806 
Q 844 3388 844 2259 
z
" transform="scale(0.015625)"/>
       </defs>
       <use xlink:href="#ArialMT-31"/>
       <use xlink:href="#ArialMT-30" x="55.615234"/>
      </g>
     </g>
    </g>
    <g id="text_6">
     <!-- Tube rank RC, round 1 -->
     <g transform="translate(95.224453 309.313594) scale(0.17 -0.17)">
      <defs>
       <path id="ArialMT-54" d="M 1659 0 
L 1659 4041 
L 150 4041 
L 150 4581 
L 3781 4581 
L 3781 4041 
L 2266 4041 
L 2266 0 
L 1659 0 
z
" transform="scale(0.015625)"/>
       <path id="ArialMT-75" d="M 2597 0 
L 2597 488 
Q 2209 -75 1544 -75 
Q 1250 -75 995 37 
Q 741 150 617 320 
Q 494 491 444 738 
Q 409 903 409 1263 
L 409 3319 
L 972 3319 
L 972 1478 
Q 972 1038 1006 884 
Q 1059 663 1231 536 
Q 1403 409 1656 409 
Q 1909 409 2131 539 
Q 2353 669 2445 892 
Q 2538 1116 2538 1541 
L 2538 3319 
L 3100 3319 
L 3100 0 
L 2597 0 
z
" transform="scale(0.015625)"/>
       <path id="ArialMT-62" d="M 941 0 
L 419 0 
L 419 4581 
L 981 4581 
L 981 2947 
Q 1338 3394 1891 3394 
Q 2197 3394 2470 3270 
Q 2744 3147 2920 2923 
Q 3097 2700 3197 2384 
Q 3297 2069 3297 1709 
Q 3297 856 2875 390 
Q 2453 -75 1863 -75 
Q 1275 -75 941 416 
L 941 0 
z
M 934 1684 
Q 934 1088 1097 822 
Q 1363 388 1816 388 
Q 2184 388 2453 708 
Q 2722 1028 2722 1663 
Q 2722 2313 2464 2622 
Q 2206 2931 1841 2931 
Q 1472 2931 1203 2611 
Q 934 2291 934 1684 
z
" transform="scale(0.015625)"/>
       <path id="ArialMT-65" d="M 2694 1069 
L 3275 997 
Q 3138 488 2766 206 
Q 2394 -75 1816 -75 
Q 1088 -75 661 373 
Q 234 822 234 1631 
Q 234 2469 665 2931 
Q 1097 3394 1784 3394 
Q 2450 3394 2872 2941 
Q 3294 2488 3294 1666 
Q 3294 1616 3291 1516 
L 816 1516 
Q 847 969 1125 678 
Q 1403 388 1819 388 
Q 2128 388 2347 550 
Q 2566 713 2694 1069 
z
M 847 1978 
L 2700 1978 
Q 2663 2397 2488 2606 
Q 2219 2931 1791 2931 
Q 1403 2931 1139 2672 
Q 875 2413 847 1978 
z
" transform="scale(0.015625)"/>
       <path id="ArialMT-20" transform="scale(0.015625)"/>
       <path id="ArialMT-72" d="M 416 0 
L 416 3319 
L 922 3319 
L 922 2816 
Q 1116 3169 1280 3281 
Q 1444 3394 1641 3394 
Q 1925 3394 2219 3213 
L 2025 2691 
Q 1819 2813 1613 2813 
Q 1428 2813 1281 2702 
Q 1134 2591 1072 2394 
Q 978 2094 978 1738 
L 978 0 
L 416 0 
z
" transform="scale(0.015625)"/>
       <path id="ArialMT-61" d="M 2588 409 
Q 2275 144 1986 34 
Q 1697 -75 1366 -75 
Q 819 -75 525 192 
Q 231 459 231 875 
Q 231 1119 342 1320 
Q 453 1522 633 1644 
Q 813 1766 1038 1828 
Q 1203 1872 1538 1913 
Q 2219 1994 2541 2106 
Q 2544 2222 2544 2253 
Q 2544 2597 2384 2738 
Q 2169 2928 1744 2928 
Q 1347 2928 1158 2789 
Q 969 2650 878 2297 
L 328 2372 
Q 403 2725 575 2942 
Q 747 3159 1072 3276 
Q 1397 3394 1825 3394 
Q 2250 3394 2515 3294 
Q 2781 3194 2906 3042 
Q 3031 2891 3081 2659 
Q 3109 2516 3109 2141 
L 3109 1391 
Q 3109 606 3145 398 
Q 3181 191 3288 0 
L 2700 0 
Q 2613 175 2588 409 
z
M 2541 1666 
Q 2234 1541 1622 1453 
Q 1275 1403 1131 1340 
Q 988 1278 909 1158 
Q 831 1038 831 891 
Q 831 666 1001 516 
Q 1172 366 1500 366 
Q 1825 366 2078 508 
Q 2331 650 2450 897 
Q 2541 1088 2541 1459 
L 2541 1666 
z
" transform="scale(0.015625)"/>
       <path id="ArialMT-6e" d="M 422 0 
L 422 3319 
L 928 3319 
L 928 2847 
Q 1294 3394 1984 3394 
Q 2284 3394 2536 3286 
Q 2788 3178 2913 3003 
Q 3038 2828 3088 2588 
Q 3119 2431 3119 2041 
L 3119 0 
L 2556 0 
L 2556 2019 
Q 2556 2363 2490 2533 
Q 2425 2703 2258 2804 
Q 2091 2906 1866 2906 
Q 1506 2906 1245 2678 
Q 984 2450 984 1813 
L 984 0 
L 422 0 
z
" transform="scale(0.015625)"/>
       <path id="ArialMT-6b" d="M 425 0 
L 425 4581 
L 988 4581 
L 988 1969 
L 2319 3319 
L 3047 3319 
L 1778 2088 
L 3175 0 
L 2481 0 
L 1384 1697 
L 988 1316 
L 988 0 
L 425 0 
z
" transform="scale(0.015625)"/>
       <path id="ArialMT-52" d="M 503 0 
L 503 4581 
L 2534 4581 
Q 3147 4581 3465 4457 
Q 3784 4334 3975 4021 
Q 4166 3709 4166 3331 
Q 4166 2844 3850 2509 
Q 3534 2175 2875 2084 
Q 3116 1969 3241 1856 
Q 3506 1613 3744 1247 
L 4541 0 
L 3778 0 
L 3172 953 
Q 2906 1366 2734 1584 
Q 2563 1803 2427 1890 
Q 2291 1978 2150 2013 
Q 2047 2034 1813 2034 
L 1109 2034 
L 1109 0 
L 503 0 
z
M 1109 2559 
L 2413 2559 
Q 2828 2559 3062 2645 
Q 3297 2731 3419 2920 
Q 3541 3109 3541 3331 
Q 3541 3656 3305 3865 
Q 3069 4075 2559 4075 
L 1109 4075 
L 1109 2559 
z
" transform="scale(0.015625)"/>
       <path id="ArialMT-43" d="M 3763 1606 
L 4369 1453 
Q 4178 706 3683 314 
Q 3188 -78 2472 -78 
Q 1731 -78 1267 223 
Q 803 525 561 1097 
Q 319 1669 319 2325 
Q 319 3041 592 3573 
Q 866 4106 1370 4382 
Q 1875 4659 2481 4659 
Q 3169 4659 3637 4309 
Q 4106 3959 4291 3325 
L 3694 3184 
Q 3534 3684 3231 3912 
Q 2928 4141 2469 4141 
Q 1941 4141 1586 3887 
Q 1231 3634 1087 3207 
Q 944 2781 944 2328 
Q 944 1744 1114 1308 
Q 1284 872 1643 656 
Q 2003 441 2422 441 
Q 2931 441 3284 734 
Q 3638 1028 3763 1606 
z
" transform="scale(0.015625)"/>
       <path id="ArialMT-2c" d="M 569 0 
L 569 641 
L 1209 641 
L 1209 0 
Q 1209 -353 1084 -570 
Q 959 -788 688 -906 
L 531 -666 
Q 709 -588 793 -436 
Q 878 -284 888 0 
L 569 0 
z
" transform="scale(0.015625)"/>
       <path id="ArialMT-6f" d="M 213 1659 
Q 213 2581 725 3025 
Q 1153 3394 1769 3394 
Q 2453 3394 2887 2945 
Q 3322 2497 3322 1706 
Q 3322 1066 3130 698 
Q 2938 331 2570 128 
Q 2203 -75 1769 -75 
Q 1072 -75 642 372 
Q 213 819 213 1659 
z
M 791 1659 
Q 791 1022 1069 705 
Q 1347 388 1769 388 
Q 2188 388 2466 706 
Q 2744 1025 2744 1678 
Q 2744 2294 2464 2611 
Q 2184 2928 1769 2928 
Q 1347 2928 1069 2612 
Q 791 2297 791 1659 
z
" transform="scale(0.015625)"/>
       <path id="ArialMT-64" d="M 2575 0 
L 2575 419 
Q 2259 -75 1647 -75 
Q 1250 -75 917 144 
Q 584 363 401 755 
Q 219 1147 219 1656 
Q 219 2153 384 2558 
Q 550 2963 881 3178 
Q 1213 3394 1622 3394 
Q 1922 3394 2156 3267 
Q 2391 3141 2538 2938 
L 2538 4581 
L 3097 4581 
L 3097 0 
L 2575 0 
z
M 797 1656 
Q 797 1019 1065 703 
Q 1334 388 1700 388 
Q 2069 388 2326 689 
Q 2584 991 2584 1609 
Q 2584 2291 2321 2609 
Q 2059 2928 1675 2928 
Q 1300 2928 1048 2622 
Q 797 2316 797 1656 
z
" transform="scale(0.015625)"/>
      </defs>
      <use xlink:href="#ArialMT-54"/>
      <use xlink:href="#ArialMT-75" x="57.333984"/>
      <use xlink:href="#ArialMT-62" x="112.949219"/>
      <use xlink:href="#ArialMT-65" x="168.564453"/>
      <use xlink:href="#ArialMT-20" x="224.179688"/>
      <use xlink:href="#ArialMT-72" x="251.962891"/>
      <use xlink:href="#ArialMT-61" x="285.263672"/>
      <use xlink:href="#ArialMT-6e" x="340.878906"/>
      <use xlink:href="#ArialMT-6b" x="396.494141"/>
      <use xlink:href="#ArialMT-20" x="446.494141"/>
      <use xlink:href="#ArialMT-52" x="474.277344"/>
      <use xlink:href="#ArialMT-43" x="546.494141"/>
      <use xlink:href="#ArialMT-2c" x="618.710938"/>
      <use xlink:href="#ArialMT-20" x="646.494141"/>
      <use xlink:href="#ArialMT-72" x="674.277344"/>
      <use xlink:href="#ArialMT-6f" x="707.578125"/>
      <use xlink:href="#ArialMT-75" x="763.193359"/>
      <use xlink:href="#ArialMT-6e" x="818.808594"/>
      <use xlink:href="#ArialMT-64" x="874.423828"/>
      <use xlink:href="#ArialMT-20" x="930.039062"/>
      <use xlink:href="#ArialMT-31" x="957.822266"/>
     </g>
    </g>
   </g>
   <g id="matplotlib.axis_2">
    <g id="ytick_1">
     <g id="line2d_6">
      <defs>
       <path id="m98b0099968" d="M 0 0 
L -3.5 0 
" style="stroke: #000000; stroke-width: 0.8"/>
      </defs>
      <g>
       <use xlink:href="#m98b0099968" x="49.52" y="238.011111" style="stroke: #000000; stroke-width: 0.8"/>
      </g>
     </g>
     <g id="text_7">
      <!-- 2 -->
      <g transform="translate(36.959063 241.590017) scale(0.1 -0.1)">
       <use xlink:href="#ArialMT-32"/>
      </g>
     </g>
    </g>
    <g id="ytick_2">
     <g id="line2d_7">
      <g>
       <use xlink:href="#m98b0099968" x="49.52" y="184.233333" style="stroke: #000000; stroke-width: 0.8"/>
      </g>
     </g>
     <g id="text_8">
      <!-- 4 -->
      <g transform="translate(36.959063 187.81224) scale(0.1 -0.1)">
       <use xlink:href="#ArialMT-34"/>
      </g>
     </g>
    </g>
    <g id="ytick_3">
     <g id="line2d_8">
      <g>
       <use xlink:href="#m98b0099968" x="49.52" y="130.455556" style="stroke: #000000; stroke-width: 0.8"/>
      </g>
     </g>
     <g id="text_9">
      <!-- 6 -->
      <g transform="translate(36.959063 134.034462) scale(0.1 -0.1)">
       <use xlink:href="#ArialMT-36"/>
      </g>
     </g>
    </g>
    <g id="ytick_4">
     <g id="line2d_9">
      <g>
       <use xlink:href="#m98b0099968" x="49.52" y="76.677778" style="stroke: #000000; stroke-width: 0.8"/>
      </g>
     </g>
     <g id="text_10">
      <!-- 8 -->
      <g transform="translate(36.959063 80.256684) scale(0.1 -0.1)">
       <use xlink:href="#ArialMT-38"/>
      </g>
     </g>
    </g>
    <g id="ytick_5">
     <g id="line2d_10">
      <g>
       <use xlink:href="#m98b0099968" x="49.52" y="22.9" style="stroke: #000000; stroke-width: 0.8"/>
      </g>
     </g>
     <g id="text_11">
      <!-- 10 -->
      <g transform="translate(31.398125 26.478906) scale(0.1 -0.1)">
       <use xlink:href="#ArialMT-31"/>
       <use xlink:href="#ArialMT-30" x="55.615234"/>
      </g>
     </g>
    </g>
    <g id="text_12">
     <!-- Tube rank RC, round 2 -->
     <g transform="translate(24.019375 230.035547) rotate(-90) scale(0.17 -0.17)">
      <use xlink:href="#ArialMT-54"/>
      <use xlink:href="#ArialMT-75" x="57.333984"/>
      <use xlink:href="#ArialMT-62" x="112.949219"/>
      <use xlink:href="#ArialMT-65" x="168.564453"/>
      <use xlink:href="#ArialMT-20" x="224.179688"/>
      <use xlink:href="#ArialMT-72" x="251.962891"/>
      <use xlink:href="#ArialMT-61" x="285.263672"/>
      <use xlink:href="#ArialMT-6e" x="340.878906"/>
      <use xlink:href="#ArialMT-6b" x="396.494141"/>
      <use xlink:href="#ArialMT-20" x="446.494141"/>
      <use xlink:href="#ArialMT-52" x="474.277344"/>
      <use xlink:href="#ArialMT-43" x="546.494141"/>
      <use xlink:href="#ArialMT-2c" x="618.710938"/>
      <use xlink:href="#ArialMT-20" x="646.494141"/>
      <use xlink:href="#ArialMT-72" x="674.277344"/>
      <use xlink:href="#ArialMT-6f" x="707.578125"/>
      <use xlink:href="#ArialMT-75" x="763.193359"/>
      <use xlink:href="#ArialMT-6e" x="818.808594"/>
      <use xlink:href="#ArialMT-64" x="874.423828"/>
      <use xlink:href="#ArialMT-20" x="930.039062"/>
      <use xlink:href="#ArialMT-32" x="957.822266"/>
     </g>
    </g>
   </g>
   <g id="line2d_11">
    <path d="M 61.505455 244.401523 
L 88.139798 227.909344 
L 114.774141 211.417164 
L 141.408485 194.924985 
L 168.042828 178.432805 
L 194.677172 161.940626 
L 221.311515 145.448446 
L 247.945859 128.956267 
L 274.580202 112.464087 
L 301.214545 95.971907 
" clip-path="url(#p3cad4c8165)" style="fill: none; stroke-dasharray: 5.55,2.4; stroke-dashoffset: 0; stroke: #808080; stroke-width: 1.5"/>
   </g>
   <g id="patch_3">
    <path d="M 49.52 277 
L 49.52 10.8 
" style="fill: none; stroke: #000000; stroke-width: 0.8; stroke-linejoin: miter; stroke-linecap: square"/>
   </g>
   <g id="patch_4">
    <path d="M 313.2 277 
L 313.2 10.8 
" style="fill: none; stroke: #000000; stroke-width: 0.8; stroke-linejoin: miter; stroke-linecap: square"/>
   </g>
   <g id="patch_5">
    <path d="M 49.52 277 
L 313.2 277 
" style="fill: none; stroke: #000000; stroke-width: 0.8; stroke-linejoin: miter; stroke-linecap: square"/>
   </g>
   <g id="patch_6">
    <path d="M 49.52 10.8 
L 313.2 10.8 
" style="fill: none; stroke: #000000; stroke-width: 0.8; stroke-linejoin: miter; stroke-linecap: square"/>
   </g>
   <g id="legend_1">
    <g id="patch_7">
     <path d="M 206.098437 32.945312 
L 306.2 32.945312 
Q 308.2 32.945312 308.2 30.945312 
L 308.2 17.8 
Q 308.2 15.8 306.2 15.8 
L 206.098437 15.8 
Q 204.098437 15.8 204.098437 17.8 
L 204.098437 30.945312 
Q 204.098437 32.945312 206.098437 32.945312 
z
" style="fill: #ffffff; opacity: 0.8; stroke: #cccccc; stroke-linejoin: miter"/>
    </g>
    <g id="line2d_12">
     <path d="M 208.098437 23.457812 
L 218.098437 23.457812 
L 228.098437 23.457812 
" style="fill: none; stroke-dasharray: 5.55,2.4; stroke-dashoffset: 0; stroke: #808080; stroke-width: 1.5"/>
    </g>
    <g id="text_13">
     <!-- Pearson = 0.74 -->
     <g transform="translate(236.098437 26.957812) scale(0.1 -0.1)">
      <defs>
       <path id="ArialMT-50" d="M 494 0 
L 494 4581 
L 2222 4581 
Q 2678 4581 2919 4538 
Q 3256 4481 3484 4323 
Q 3713 4166 3852 3881 
Q 3991 3597 3991 3256 
Q 3991 2672 3619 2267 
Q 3247 1863 2275 1863 
L 1100 1863 
L 1100 0 
L 494 0 
z
M 1100 2403 
L 2284 2403 
Q 2872 2403 3119 2622 
Q 3366 2841 3366 3238 
Q 3366 3525 3220 3729 
Q 3075 3934 2838 4000 
Q 2684 4041 2272 4041 
L 1100 4041 
L 1100 2403 
z
" transform="scale(0.015625)"/>
       <path id="ArialMT-73" d="M 197 991 
L 753 1078 
Q 800 744 1014 566 
Q 1228 388 1613 388 
Q 2000 388 2187 545 
Q 2375 703 2375 916 
Q 2375 1106 2209 1216 
Q 2094 1291 1634 1406 
Q 1016 1563 777 1677 
Q 538 1791 414 1992 
Q 291 2194 291 2438 
Q 291 2659 392 2848 
Q 494 3038 669 3163 
Q 800 3259 1026 3326 
Q 1253 3394 1513 3394 
Q 1903 3394 2198 3281 
Q 2494 3169 2634 2976 
Q 2775 2784 2828 2463 
L 2278 2388 
Q 2241 2644 2061 2787 
Q 1881 2931 1553 2931 
Q 1166 2931 1000 2803 
Q 834 2675 834 2503 
Q 834 2394 903 2306 
Q 972 2216 1119 2156 
Q 1203 2125 1616 2013 
Q 2213 1853 2448 1751 
Q 2684 1650 2818 1456 
Q 2953 1263 2953 975 
Q 2953 694 2789 445 
Q 2625 197 2315 61 
Q 2006 -75 1616 -75 
Q 969 -75 630 194 
Q 291 463 197 991 
z
" transform="scale(0.015625)"/>
       <path id="ArialMT-3d" d="M 3381 2694 
L 356 2694 
L 356 3219 
L 3381 3219 
L 3381 2694 
z
M 3381 1303 
L 356 1303 
L 356 1828 
L 3381 1828 
L 3381 1303 
z
" transform="scale(0.015625)"/>
       <path id="ArialMT-2e" d="M 581 0 
L 581 641 
L 1222 641 
L 1222 0 
L 581 0 
z
" transform="scale(0.015625)"/>
       <path id="ArialMT-37" d="M 303 3981 
L 303 4522 
L 3269 4522 
L 3269 4084 
Q 2831 3619 2401 2847 
Q 1972 2075 1738 1259 
Q 1569 684 1522 0 
L 944 0 
Q 953 541 1156 1306 
Q 1359 2072 1739 2783 
Q 2119 3494 2547 3981 
L 303 3981 
z
" transform="scale(0.015625)"/>
      </defs>
      <use xlink:href="#ArialMT-50"/>
      <use xlink:href="#ArialMT-65" x="66.699219"/>
      <use xlink:href="#ArialMT-61" x="122.314453"/>
      <use xlink:href="#ArialMT-72" x="177.929688"/>
      <use xlink:href="#ArialMT-73" x="211.230469"/>
      <use xlink:href="#ArialMT-6f" x="261.230469"/>
      <use xlink:href="#ArialMT-6e" x="316.845703"/>
      <use xlink:href="#ArialMT-20" x="372.460938"/>
      <use xlink:href="#ArialMT-3d" x="400.244141"/>
      <use xlink:href="#ArialMT-20" x="458.642578"/>
      <use xlink:href="#ArialMT-30" x="486.425781"/>
      <use xlink:href="#ArialMT-2e" x="542.041016"/>
      <use xlink:href="#ArialMT-37" x="569.824219"/>
      <use xlink:href="#ArialMT-34" x="625.439453"/>
     </g>
    </g>
   </g>
  </g>
 </g>
 <defs>
  <clipPath id="p3cad4c8165">
   <rect x="49.52" y="10.8" width="263.68" height="266.2"/>
  </clipPath>
 </defs>
</svg>
