<?xml version="1.0" encoding="utf-8" standalone="no"?>
<!DOCTYPE svg PUBLIC "-//W3C//DTD SVG 1.1//EN"
  "http://www.w3.org/Graphics/SVG/1.1/DTD/svg11.dtd">
<svg xmlns:xlink="http://www.w3.org/1999/xlink" width="460.8pt" height="345.6pt" viewBox="0 0 460.8 345.6" xmlns="http://www.w3.org/2000/svg" version="1.1">
 <metadata>
  <rdf:RDF xmlns:dc="http://purl.org/dc/elements/1.1/" xmlns:cc="http://creativecommons.org/ns#" xmlns:rdf="http://www.w3.org/1999/02/22-rdf-syntax-ns#">
   <cc:Work>
    <dc:type rdf:resource="http://purl.org/dc/dcmitype/StillImage"/>
    <dc:date>2025-06-02T17:27:32.368978</dc:date>
    <dc:format>image/svg+xml</dc:format>
    <dc:creator>
     <cc:Agent>
      <dc:title>Matplotlib v3.9.2, https://matplotlib.org/</dc:title>
     </cc:Agent>
    </dc:creator>
   </cc:Work>
  </rdf:RDF>
 </metadata>
 <defs>
  <style type="text/css">*{stroke-linejoin: round; stroke-linecap: butt}</style>
 </defs>
 <g id="figure_1">
  <g id="patch_1">
   <path d="M 0 345.6 
L 460.8 345.6 
L 460.8 0 
L 0 0 
z
" style="fill: #ffffff"/>
  </g>
  <g id="axes_1">
   <g id="patch_2">
    <path d="M 57.6 307.584 
L 414.72 307.584 
L 414.72 41.472 
L 57.6 41.472 
z
" style="fill: #ffffff"/>
   </g>
   <g id="patch_3">
    <path d="M 93.312 268.074969 
L 200.448 268.074969 
L 200.448 211.535592 
L 93.312 211.535592 
L 93.312 268.074969 
z
" clip-path="url(#p18b56a3b6f)" style="fill: #a1c9f4; stroke: #000000; stroke-linejoin: miter"/>
   </g>
   <g id="line2d_1">
    <path d="M 146.88 268.074969 
L 146.88 291.299898 
" clip-path="url(#p18b56a3b6f)" style="fill: none; stroke: #000000; stroke-linecap: square"/>
   </g>
   <g id="line2d_2">
    <path d="M 146.88 211.535592 
L 146.88 155.224657 
" clip-path="url(#p18b56a3b6f)" style="fill: none; stroke: #000000; stroke-linecap: square"/>
   </g>
   <g id="line2d_3">
    <path d="M 120.096 291.299898 
L 173.664 291.299898 
" clip-path="url(#p18b56a3b6f)" style="fill: none; stroke: #000000; stroke-linecap: square"/>
   </g>
   <g id="line2d_4">
    <path d="M 120.096 155.224657 
L 173.664 155.224657 
" clip-path="url(#p18b56a3b6f)" style="fill: none; stroke: #000000; stroke-linecap: square"/>
   </g>
   <g id="patch_4">
    <path d="M 271.872 269.978652 
L 379.008 269.978652 
L 379.008 207.7663 
L 271.872 207.7663 
L 271.872 269.978652 
z
" clip-path="url(#p18b56a3b6f)" style="fill: #ffb482; stroke: #000000; stroke-linejoin: miter"/>
   </g>
   <g id="line2d_5">
    <path d="M 325.44 269.978652 
L 325.44 295.488 
" clip-path="url(#p18b56a3b6f)" style="fill: none; stroke: #000000; stroke-linecap: square"/>
   </g>
   <g id="line2d_6">
    <path d="M 325.44 207.7663 
L 325.44 117.607887 
" clip-path="url(#p18b56a3b6f)" style="fill: none; stroke: #000000; stroke-linecap: square"/>
   </g>
   <g id="line2d_7">
    <path d="M 298.656 295.488 
L 352.224 295.488 
" clip-path="url(#p18b56a3b6f)" style="fill: none; stroke: #000000; stroke-linecap: square"/>
   </g>
   <g id="line2d_8">
    <path d="M 298.656 117.607887 
L 352.224 117.607887 
" clip-path="url(#p18b56a3b6f)" style="fill: none; stroke: #000000; stroke-linecap: square"/>
   </g>
   <g id="line2d_9">
    <path d="M 93.312 252.921654 
L 200.448 252.921654 
" clip-path="url(#p18b56a3b6f)" style="fill: none; stroke: #000000"/>
   </g>
   <g id="line2d_10">
    <path d="M 271.872 243.403241 
L 379.008 243.403241 
" clip-path="url(#p18b56a3b6f)" style="fill: none; stroke: #000000"/>
   </g>
   <g id="matplotlib.axis_1">
    <g id="xtick_1">
     <g id="line2d_11">
      <defs>
       <path id="m0b6b9c096f" d="M 0 0 
L 0 3.5 
" style="stroke: #000000; stroke-width: 0.8"/>
      </defs>
      <g>
       <use xlink:href="#m0b6b9c096f" x="146.88" y="307.584" style="stroke: #000000; stroke-width: 0.8"/>
      </g>
     </g>
     <g id="text_1">
      <!-- Mutants -->
      <g transform="translate(104.628437 329.780875) scale(0.2 -0.2)">
       <defs>
        <path id="DejaVuSerif-4d" d="M 353 0 
L 353 331 
L 947 331 
L 947 4331 
L 319 4331 
L 319 4666 
L 1678 4666 
L 3316 1344 
L 4953 4666 
L 6228 4666 
L 6228 4331 
L 5606 4331 
L 5606 331 
L 6203 331 
L 6203 0 
L 4378 0 
L 4378 331 
L 4972 331 
L 4972 3938 
L 3372 684 
L 2931 684 
L 1331 3938 
L 1331 331 
L 1925 331 
L 1925 0 
L 353 0 
z
" transform="scale(0.015625)"/>
        <path id="DejaVuSerif-75" d="M 2266 3322 
L 3341 3322 
L 3341 331 
L 3884 331 
L 3884 0 
L 2766 0 
L 2766 588 
Q 2606 256 2353 82 
Q 2100 -91 1766 -91 
Q 1213 -91 952 223 
Q 691 538 691 1209 
L 691 2988 
L 172 2988 
L 172 3322 
L 1269 3322 
L 1269 1388 
Q 1269 781 1417 556 
Q 1566 331 1947 331 
Q 2347 331 2556 625 
Q 2766 919 2766 1478 
L 2766 2988 
L 2266 2988 
L 2266 3322 
z
" transform="scale(0.015625)"/>
        <path id="DejaVuSerif-74" d="M 691 2988 
L 184 2988 
L 184 3322 
L 691 3322 
L 691 4353 
L 1269 4353 
L 1269 3322 
L 2350 3322 
L 2350 2988 
L 1269 2988 
L 1269 878 
Q 1269 456 1350 337 
Q 1431 219 1650 219 
Q 1875 219 1978 351 
Q 2081 484 2088 781 
L 2522 781 
Q 2497 328 2275 118 
Q 2053 -91 1600 -91 
Q 1103 -91 897 129 
Q 691 350 691 878 
L 691 2988 
z
" transform="scale(0.015625)"/>
        <path id="DejaVuSerif-61" d="M 2547 1044 
L 2547 1747 
L 1806 1747 
Q 1378 1747 1168 1562 
Q 959 1378 959 997 
Q 959 650 1171 447 
Q 1384 244 1747 244 
Q 2106 244 2326 466 
Q 2547 688 2547 1044 
z
M 3122 2075 
L 3122 331 
L 3634 331 
L 3634 0 
L 2547 0 
L 2547 359 
Q 2356 128 2106 18 
Q 1856 -91 1522 -91 
Q 969 -91 644 203 
Q 319 497 319 997 
Q 319 1513 691 1797 
Q 1063 2081 1741 2081 
L 2547 2081 
L 2547 2309 
Q 2547 2688 2317 2895 
Q 2088 3103 1672 3103 
Q 1328 3103 1125 2947 
Q 922 2791 872 2484 
L 575 2484 
L 575 3156 
Q 875 3284 1158 3348 
Q 1441 3413 1709 3413 
Q 2400 3413 2761 3070 
Q 3122 2728 3122 2075 
z
" transform="scale(0.015625)"/>
        <path id="DejaVuSerif-6e" d="M 263 0 
L 263 331 
L 781 331 
L 781 2988 
L 231 2988 
L 231 3322 
L 1356 3322 
L 1356 2731 
Q 1516 3069 1770 3241 
Q 2025 3413 2363 3413 
Q 2913 3413 3172 3097 
Q 3431 2781 3431 2113 
L 3431 331 
L 3944 331 
L 3944 0 
L 2356 0 
L 2356 331 
L 2853 331 
L 2853 1931 
Q 2853 2541 2703 2767 
Q 2553 2994 2175 2994 
Q 1775 2994 1565 2701 
Q 1356 2409 1356 1850 
L 1356 331 
L 1856 331 
L 1856 0 
L 263 0 
z
" transform="scale(0.015625)"/>
        <path id="DejaVuSerif-73" d="M 359 184 
L 359 959 
L 691 959 
Q 703 588 923 403 
Q 1144 219 1575 219 
Q 1963 219 2166 364 
Q 2369 509 2369 788 
Q 2369 1006 2220 1140 
Q 2072 1275 1594 1428 
L 1178 1569 
Q 750 1706 558 1912 
Q 366 2119 366 2438 
Q 366 2894 700 3153 
Q 1034 3413 1625 3413 
Q 1888 3413 2178 3344 
Q 2469 3275 2778 3144 
L 2778 2419 
L 2447 2419 
Q 2434 2741 2221 2922 
Q 2009 3103 1644 3103 
Q 1281 3103 1095 2975 
Q 909 2847 909 2591 
Q 909 2381 1050 2254 
Q 1191 2128 1613 1997 
L 2069 1856 
Q 2541 1709 2748 1489 
Q 2956 1269 2956 922 
Q 2956 450 2595 179 
Q 2234 -91 1600 -91 
Q 1278 -91 972 -22 
Q 666 47 359 184 
z
" transform="scale(0.015625)"/>
       </defs>
       <use xlink:href="#DejaVuSerif-4d"/>
       <use xlink:href="#DejaVuSerif-75" x="102.392578"/>
       <use xlink:href="#DejaVuSerif-74" x="166.796875"/>
       <use xlink:href="#DejaVuSerif-61" x="206.982422"/>
       <use xlink:href="#DejaVuSerif-6e" x="266.601562"/>
       <use xlink:href="#DejaVuSerif-74" x="331.005859"/>
       <use xlink:href="#DejaVuSerif-73" x="371.191406"/>
      </g>
     </g>
    </g>
    <g id="xtick_2">
     <g id="line2d_12">
      <g>
       <use xlink:href="#m0b6b9c096f" x="325.44" y="307.584" style="stroke: #000000; stroke-width: 0.8"/>
      </g>
     </g>
     <g id="text_2">
      <!-- WT -->
      <g transform="translate(308.491562 329.780875) scale(0.2 -0.2)">
       <defs>
        <path id="DejaVuSerif-57" d="M 4878 0 
L 4366 0 
L 3297 3794 
L 2228 0 
L 1716 0 
L 494 4331 
L 31 4331 
L 31 4666 
L 1734 4666 
L 1734 4331 
L 1153 4331 
L 2125 884 
L 3188 4666 
L 3694 4666 
L 4775 844 
L 5753 4331 
L 5216 4331 
L 5216 4666 
L 6559 4666 
L 6559 4331 
L 6100 4331 
L 4878 0 
z
" transform="scale(0.015625)"/>
        <path id="DejaVuSerif-54" d="M 1222 0 
L 1222 331 
L 1819 331 
L 1819 4294 
L 447 4294 
L 447 3566 
L 63 3566 
L 63 4666 
L 4206 4666 
L 4206 3566 
L 3822 3566 
L 3822 4294 
L 2450 4294 
L 2450 331 
L 3047 331 
L 3047 0 
L 1222 0 
z
" transform="scale(0.015625)"/>
       </defs>
       <use xlink:href="#DejaVuSerif-57"/>
       <use xlink:href="#DejaVuSerif-54" x="102.783203"/>
      </g>
     </g>
    </g>
   </g>
   <g id="matplotlib.axis_2">
    <g id="ytick_1">
     <g id="line2d_13">
      <defs>
       <path id="m646c08d952" d="M 0 0 
L -3.5 0 
" style="stroke: #000000; stroke-width: 0.8"/>
      </defs>
      <g>
       <use xlink:href="#m646c08d952" x="57.6" y="296.477915" style="stroke: #000000; stroke-width: 0.8"/>
      </g>
     </g>
     <g id="text_3">
      <!-- 0 -->
      <g transform="translate(44.2375 300.277134) scale(0.1 -0.1)">
       <defs>
        <path id="DejaVuSerif-30" d="M 2034 219 
Q 2513 219 2750 744 
Q 2988 1269 2988 2328 
Q 2988 3391 2750 3916 
Q 2513 4441 2034 4441 
Q 1556 4441 1318 3916 
Q 1081 3391 1081 2328 
Q 1081 1269 1318 744 
Q 1556 219 2034 219 
z
M 2034 -91 
Q 1275 -91 848 546 
Q 422 1184 422 2328 
Q 422 3475 848 4112 
Q 1275 4750 2034 4750 
Q 2797 4750 3222 4112 
Q 3647 3475 3647 2328 
Q 3647 1184 3222 546 
Q 2797 -91 2034 -91 
z
" transform="scale(0.015625)"/>
       </defs>
       <use xlink:href="#DejaVuSerif-30"/>
      </g>
     </g>
    </g>
    <g id="ytick_2">
     <g id="line2d_14">
      <g>
       <use xlink:href="#m646c08d952" x="57.6" y="258.404261" style="stroke: #000000; stroke-width: 0.8"/>
      </g>
     </g>
     <g id="text_4">
      <!-- 500 -->
      <g transform="translate(31.5125 262.203479) scale(0.1 -0.1)">
       <defs>
        <path id="DejaVuSerif-35" d="M 3219 4666 
L 3219 4153 
L 1081 4153 
L 1081 2816 
Q 1244 2928 1461 2984 
Q 1678 3041 1947 3041 
Q 2703 3041 3140 2622 
Q 3578 2203 3578 1478 
Q 3578 738 3136 323 
Q 2694 -91 1894 -91 
Q 1572 -91 1234 -12 
Q 897 66 544 225 
L 544 1131 
L 897 1131 
Q 925 688 1179 453 
Q 1434 219 1894 219 
Q 2388 219 2653 544 
Q 2919 869 2919 1478 
Q 2919 2084 2655 2407 
Q 2391 2731 1894 2731 
Q 1613 2731 1398 2631 
Q 1184 2531 1019 2322 
L 750 2322 
L 750 4666 
L 3219 4666 
z
" transform="scale(0.015625)"/>
       </defs>
       <use xlink:href="#DejaVuSerif-35"/>
       <use xlink:href="#DejaVuSerif-30" x="63.623047"/>
       <use xlink:href="#DejaVuSerif-30" x="127.246094"/>
      </g>
     </g>
    </g>
    <g id="ytick_3">
     <g id="line2d_15">
      <g>
       <use xlink:href="#m646c08d952" x="57.6" y="220.330606" style="stroke: #000000; stroke-width: 0.8"/>
      </g>
     </g>
     <g id="text_5">
      <!-- 1000 -->
      <g transform="translate(25.15 224.129825) scale(0.1 -0.1)">
       <defs>
        <path id="DejaVuSerif-31" d="M 909 0 
L 909 331 
L 1722 331 
L 1722 4213 
L 781 3603 
L 781 4013 
L 1919 4750 
L 2350 4750 
L 2350 331 
L 3163 331 
L 3163 0 
L 909 0 
z
" transform="scale(0.015625)"/>
       </defs>
       <use xlink:href="#DejaVuSerif-31"/>
       <use xlink:href="#DejaVuSerif-30" x="63.623047"/>
       <use xlink:href="#DejaVuSerif-30" x="127.246094"/>
       <use xlink:href="#DejaVuSerif-30" x="190.869141"/>
      </g>
     </g>
    </g>
    <g id="ytick_4">
     <g id="line2d_16">
      <g>
       <use xlink:href="#m646c08d952" x="57.6" y="182.256952" style="stroke: #000000; stroke-width: 0.8"/>
      </g>
     </g>
     <g id="text_6">
      <!-- 1500 -->
      <g transform="translate(25.15 186.056171) scale(0.1 -0.1)">
       <use xlink:href="#DejaVuSerif-31"/>
       <use xlink:href="#DejaVuSerif-35" x="63.623047"/>
       <use xlink:href="#DejaVuSerif-30" x="127.246094"/>
       <use xlink:href="#DejaVuSerif-30" x="190.869141"/>
      </g>
     </g>
    </g>
    <g id="ytick_5">
     <g id="line2d_17">
      <g>
       <use xlink:href="#m646c08d952" x="57.6" y="144.183297" style="stroke: #000000; stroke-width: 0.8"/>
      </g>
     </g>
     <g id="text_7">
      <!-- 2000 -->
      <g transform="translate(25.15 147.982516) scale(0.1 -0.1)">
       <defs>
        <path id="DejaVuSerif-32" d="M 819 3553 
L 469 3553 
L 469 4384 
Q 803 4563 1142 4656 
Q 1481 4750 1806 4750 
Q 2534 4750 2956 4397 
Q 3378 4044 3378 3438 
Q 3378 2753 2422 1800 
Q 2347 1728 2309 1691 
L 1131 513 
L 3078 513 
L 3078 1088 
L 3444 1088 
L 3444 0 
L 434 0 
L 434 341 
L 1850 1753 
Q 2319 2222 2519 2614 
Q 2719 3006 2719 3438 
Q 2719 3909 2473 4175 
Q 2228 4441 1797 4441 
Q 1350 4441 1106 4219 
Q 863 3997 819 3553 
z
" transform="scale(0.015625)"/>
       </defs>
       <use xlink:href="#DejaVuSerif-32"/>
       <use xlink:href="#DejaVuSerif-30" x="63.623047"/>
       <use xlink:href="#DejaVuSerif-30" x="127.246094"/>
       <use xlink:href="#DejaVuSerif-30" x="190.869141"/>
      </g>
     </g>
    </g>
    <g id="ytick_6">
     <g id="line2d_18">
      <g>
       <use xlink:href="#m646c08d952" x="57.6" y="106.109643" style="stroke: #000000; stroke-width: 0.8"/>
      </g>
     </g>
     <g id="text_8">
      <!-- 2500 -->
      <g transform="translate(25.15 109.908862) scale(0.1 -0.1)">
       <use xlink:href="#DejaVuSerif-32"/>
       <use xlink:href="#DejaVuSerif-35" x="63.623047"/>
       <use xlink:href="#DejaVuSerif-30" x="127.246094"/>
       <use xlink:href="#DejaVuSerif-30" x="190.869141"/>
      </g>
     </g>
    </g>
    <g id="ytick_7">
     <g id="line2d_19">
      <g>
       <use xlink:href="#m646c08d952" x="57.6" y="68.035989" style="stroke: #000000; stroke-width: 0.8"/>
      </g>
     </g>
     <g id="text_9">
      <!-- 3000 -->
      <g transform="translate(25.15 71.835207) scale(0.1 -0.1)">
       <defs>
        <path id="DejaVuSerif-33" d="M 622 4469 
Q 988 4606 1323 4678 
Q 1659 4750 1953 4750 
Q 2638 4750 3022 4454 
Q 3406 4159 3406 3634 
Q 3406 3213 3140 2930 
Q 2875 2647 2388 2547 
Q 2963 2466 3280 2130 
Q 3597 1794 3597 1259 
Q 3597 606 3158 257 
Q 2719 -91 1894 -91 
Q 1528 -91 1179 -12 
Q 831 66 488 225 
L 488 1131 
L 838 1131 
Q 869 681 1141 450 
Q 1413 219 1906 219 
Q 2384 219 2661 495 
Q 2938 772 2938 1253 
Q 2938 1803 2653 2086 
Q 2369 2369 1819 2369 
L 1522 2369 
L 1522 2688 
L 1678 2688 
Q 2225 2688 2498 2914 
Q 2772 3141 2772 3597 
Q 2772 4006 2547 4223 
Q 2322 4441 1900 4441 
Q 1478 4441 1245 4241 
Q 1013 4041 972 3647 
L 622 3647 
L 622 4469 
z
" transform="scale(0.015625)"/>
       </defs>
       <use xlink:href="#DejaVuSerif-33"/>
       <use xlink:href="#DejaVuSerif-30" x="63.623047"/>
       <use xlink:href="#DejaVuSerif-30" x="127.246094"/>
       <use xlink:href="#DejaVuSerif-30" x="190.869141"/>
      </g>
     </g>
    </g>
    <g id="text_10">
     <!-- Ingoing approaches -->
     <g transform="translate(16.70625 275.178) rotate(-90) scale(0.2 -0.2)">
      <defs>
       <path id="DejaVuSerif-49" d="M 1581 331 
L 2175 331 
L 2175 0 
L 353 0 
L 353 331 
L 947 331 
L 947 4331 
L 353 4331 
L 353 4666 
L 2175 4666 
L 2175 4331 
L 1581 4331 
L 1581 331 
z
" transform="scale(0.015625)"/>
       <path id="DejaVuSerif-67" d="M 3359 2988 
L 3359 72 
Q 3359 -644 2965 -1033 
Q 2572 -1422 1844 -1422 
Q 1516 -1422 1216 -1362 
Q 916 -1303 641 -1184 
L 641 -488 
L 941 -488 
Q 997 -813 1206 -963 
Q 1416 -1113 1806 -1113 
Q 2313 -1113 2548 -827 
Q 2784 -541 2784 72 
L 2784 519 
Q 2616 206 2355 57 
Q 2094 -91 1709 -91 
Q 1097 -91 708 395 
Q 319 881 319 1663 
Q 319 2444 706 2928 
Q 1094 3413 1709 3413 
Q 2094 3413 2355 3264 
Q 2616 3116 2784 2803 
L 2784 3322 
L 3909 3322 
L 3909 2988 
L 3359 2988 
z
M 2784 1825 
Q 2784 2422 2554 2737 
Q 2325 3053 1888 3053 
Q 1444 3053 1217 2703 
Q 991 2353 991 1663 
Q 991 975 1217 622 
Q 1444 269 1888 269 
Q 2325 269 2554 583 
Q 2784 897 2784 1497 
L 2784 1825 
z
" transform="scale(0.015625)"/>
       <path id="DejaVuSerif-6f" d="M 1925 219 
Q 2388 219 2623 584 
Q 2859 950 2859 1663 
Q 2859 2375 2623 2739 
Q 2388 3103 1925 3103 
Q 1463 3103 1227 2739 
Q 991 2375 991 1663 
Q 991 950 1228 584 
Q 1466 219 1925 219 
z
M 1925 -91 
Q 1200 -91 759 389 
Q 319 869 319 1663 
Q 319 2456 758 2934 
Q 1197 3413 1925 3413 
Q 2653 3413 3092 2934 
Q 3531 2456 3531 1663 
Q 3531 869 3092 389 
Q 2653 -91 1925 -91 
z
" transform="scale(0.015625)"/>
       <path id="DejaVuSerif-69" d="M 622 4353 
Q 622 4497 726 4603 
Q 831 4709 978 4709 
Q 1122 4709 1226 4603 
Q 1331 4497 1331 4353 
Q 1331 4206 1228 4103 
Q 1125 4000 978 4000 
Q 831 4000 726 4103 
Q 622 4206 622 4353 
z
M 1356 331 
L 1900 331 
L 1900 0 
L 231 0 
L 231 331 
L 781 331 
L 781 2988 
L 231 2988 
L 231 3322 
L 1356 3322 
L 1356 331 
z
" transform="scale(0.015625)"/>
       <path id="DejaVuSerif-20" transform="scale(0.015625)"/>
       <path id="DejaVuSerif-70" d="M 1313 1825 
L 1313 1497 
Q 1313 897 1542 583 
Q 1772 269 2209 269 
Q 2650 269 2876 622 
Q 3103 975 3103 1663 
Q 3103 2353 2876 2703 
Q 2650 3053 2209 3053 
Q 1772 3053 1542 2737 
Q 1313 2422 1313 1825 
z
M 738 2988 
L 184 2988 
L 184 3322 
L 1313 3322 
L 1313 2803 
Q 1481 3116 1742 3264 
Q 2003 3413 2388 3413 
Q 3000 3413 3387 2928 
Q 3775 2444 3775 1663 
Q 3775 881 3387 395 
Q 3000 -91 2388 -91 
Q 2003 -91 1742 57 
Q 1481 206 1313 519 
L 1313 -997 
L 1856 -997 
L 1856 -1331 
L 184 -1331 
L 184 -997 
L 738 -997 
L 738 2988 
z
" transform="scale(0.015625)"/>
       <path id="DejaVuSerif-72" d="M 3059 3328 
L 3059 2497 
L 2728 2497 
Q 2713 2744 2591 2866 
Q 2469 2988 2234 2988 
Q 1809 2988 1582 2694 
Q 1356 2400 1356 1850 
L 1356 331 
L 2022 331 
L 2022 0 
L 263 0 
L 263 331 
L 781 331 
L 781 2994 
L 231 2994 
L 231 3322 
L 1356 3322 
L 1356 2731 
Q 1525 3078 1790 3245 
Q 2056 3413 2438 3413 
Q 2578 3413 2733 3391 
Q 2888 3369 3059 3328 
z
" transform="scale(0.015625)"/>
       <path id="DejaVuSerif-63" d="M 3291 997 
Q 3169 466 2822 187 
Q 2475 -91 1925 -91 
Q 1200 -91 759 389 
Q 319 869 319 1663 
Q 319 2459 759 2936 
Q 1200 3413 1925 3413 
Q 2241 3413 2553 3339 
Q 2866 3266 3181 3116 
L 3181 2266 
L 2847 2266 
Q 2781 2703 2561 2903 
Q 2341 3103 1931 3103 
Q 1466 3103 1228 2742 
Q 991 2381 991 1663 
Q 991 944 1227 581 
Q 1463 219 1931 219 
Q 2303 219 2525 412 
Q 2747 606 2828 997 
L 3291 997 
z
" transform="scale(0.015625)"/>
       <path id="DejaVuSerif-68" d="M 263 0 
L 263 331 
L 781 331 
L 781 4531 
L 231 4531 
L 231 4863 
L 1356 4863 
L 1356 2731 
Q 1516 3069 1770 3241 
Q 2025 3413 2363 3413 
Q 2913 3413 3172 3097 
Q 3431 2781 3431 2113 
L 3431 331 
L 3944 331 
L 3944 0 
L 2356 0 
L 2356 331 
L 2853 331 
L 2853 1931 
Q 2853 2541 2704 2764 
Q 2556 2988 2175 2988 
Q 1775 2988 1565 2697 
Q 1356 2406 1356 1850 
L 1356 331 
L 1856 331 
L 1856 0 
L 263 0 
z
" transform="scale(0.015625)"/>
       <path id="DejaVuSerif-65" d="M 3469 1600 
L 991 1600 
L 991 1575 
Q 991 903 1244 561 
Q 1497 219 1991 219 
Q 2369 219 2611 417 
Q 2853 616 2950 1006 
L 3413 1006 
Q 3275 459 2904 184 
Q 2534 -91 1931 -91 
Q 1203 -91 761 389 
Q 319 869 319 1663 
Q 319 2450 753 2931 
Q 1188 3413 1894 3413 
Q 2647 3413 3050 2948 
Q 3453 2484 3469 1600 
z
M 2791 1931 
Q 2772 2513 2545 2808 
Q 2319 3103 1894 3103 
Q 1497 3103 1269 2806 
Q 1041 2509 991 1931 
L 2791 1931 
z
" transform="scale(0.015625)"/>
      </defs>
      <use xlink:href="#DejaVuSerif-49"/>
      <use xlink:href="#DejaVuSerif-6e" x="39.501953"/>
      <use xlink:href="#DejaVuSerif-67" x="103.90625"/>
      <use xlink:href="#DejaVuSerif-6f" x="167.919922"/>
      <use xlink:href="#DejaVuSerif-69" x="228.125"/>
      <use xlink:href="#DejaVuSerif-6e" x="260.107422"/>
      <use xlink:href="#DejaVuSerif-67" x="324.511719"/>
      <use xlink:href="#DejaVuSerif-20" x="388.525391"/>
      <use xlink:href="#DejaVuSerif-61" x="420.3125"/>
      <use xlink:href="#DejaVuSerif-70" x="479.931641"/>
      <use xlink:href="#DejaVuSerif-70" x="543.945312"/>
      <use xlink:href="#DejaVuSerif-72" x="607.958984"/>
      <use xlink:href="#DejaVuSerif-6f" x="655.761719"/>
      <use xlink:href="#DejaVuSerif-61" x="715.966797"/>
      <use xlink:href="#DejaVuSerif-63" x="775.585938"/>
      <use xlink:href="#DejaVuSerif-68" x="831.591797"/>
      <use xlink:href="#DejaVuSerif-65" x="895.996094"/>
      <use xlink:href="#DejaVuSerif-73" x="955.175781"/>
     </g>
    </g>
   </g>
   <g id="line2d_20">
    <path d="M 146.88 98.930475 
L 146.88 95.017112 
L 325.44 95.017112 
L 325.44 98.930475 
" clip-path="url(#p18b56a3b6f)" style="fill: none; stroke: #000000; stroke-linecap: square"/>
   </g>
   <g id="PathCollection_1">
    <defs>
     <path id="m0ceed8af63" d="M 0 3.162278 
C 0.838646 3.162278 1.643056 2.82908 2.236068 2.236068 
C 2.82908 1.643056 3.162278 0.838646 3.162278 0 
C 3.162278 -0.838646 2.82908 -1.643056 2.236068 -2.236068 
C 1.643056 -2.82908 0.838646 -3.162278 0 -3.162278 
C -0.838646 -3.162278 -1.643056 -2.82908 -2.236068 -2.236068 
C -2.82908 -1.643056 -3.162278 -0.838646 -3.162278 0 
C -3.162278 0.838646 -2.82908 1.643056 -2.236068 2.236068 
C -1.643056 2.82908 -0.838646 3.162278 0 3.162278 
z
" style="stroke: #1f77b4"/>
    </defs>
    <g clip-path="url(#p18b56a3b6f)">
     <use xlink:href="#m0ceed8af63" x="138.786477" y="191.623071" style="fill: #1f77b4; stroke: #1f77b4"/>
     <use xlink:href="#m0ceed8af63" x="159.649958" y="246.144544" style="fill: #1f77b4; stroke: #1f77b4"/>
     <use xlink:href="#m0ceed8af63" x="157.196921" y="244.164714" style="fill: #1f77b4; stroke: #1f77b4"/>
     <use xlink:href="#m0ceed8af63" x="147.802682" y="252.921654" style="fill: #1f77b4; stroke: #1f77b4"/>
     <use xlink:href="#m0ceed8af63" x="141.948504" y="267.998822" style="fill: #1f77b4; stroke: #1f77b4"/>
     <use xlink:href="#m0ceed8af63" x="149.707862" y="155.224657" style="fill: #1f77b4; stroke: #1f77b4"/>
     <use xlink:href="#m0ceed8af63" x="153.480789" y="264.952929" style="fill: #1f77b4; stroke: #1f77b4"/>
     <use xlink:href="#m0ceed8af63" x="148.054792" y="238.986697" style="fill: #1f77b4; stroke: #1f77b4"/>
     <use xlink:href="#m0ceed8af63" x="146.959162" y="258.328113" style="fill: #1f77b4; stroke: #1f77b4"/>
     <use xlink:href="#m0ceed8af63" x="159.203073" y="76.48834" style="fill: #1f77b4; stroke: #1f77b4"/>
     <use xlink:href="#m0ceed8af63" x="153.925607" y="264.572193" style="fill: #1f77b4; stroke: #1f77b4"/>
     <use xlink:href="#m0ceed8af63" x="138.554927" y="254.444601" style="fill: #1f77b4; stroke: #1f77b4"/>
     <use xlink:href="#m0ceed8af63" x="149.466866" y="227.564601" style="fill: #1f77b4; stroke: #1f77b4"/>
     <use xlink:href="#m0ceed8af63" x="152.295744" y="261.602448" style="fill: #1f77b4; stroke: #1f77b4"/>
     <use xlink:href="#m0ceed8af63" x="149.121091" y="222.234289" style="fill: #1f77b4; stroke: #1f77b4"/>
     <use xlink:href="#m0ceed8af63" x="155.798338" y="168.626584" style="fill: #1f77b4; stroke: #1f77b4"/>
     <use xlink:href="#m0ceed8af63" x="152.711374" y="104.51055" style="fill: #1f77b4; stroke: #1f77b4"/>
     <use xlink:href="#m0ceed8af63" x="155.366209" y="289.320068" style="fill: #1f77b4; stroke: #1f77b4"/>
     <use xlink:href="#m0ceed8af63" x="157.429707" y="286.274176" style="fill: #1f77b4; stroke: #1f77b4"/>
     <use xlink:href="#m0ceed8af63" x="143.667173" y="291.299898" style="fill: #1f77b4; stroke: #1f77b4"/>
     <use xlink:href="#m0ceed8af63" x="148.425644" y="289.015479" style="fill: #1f77b4; stroke: #1f77b4"/>
     <use xlink:href="#m0ceed8af63" x="135.694193" y="283.761314" style="fill: #1f77b4; stroke: #1f77b4"/>
     <use xlink:href="#m0ceed8af63" x="146.098992" y="283.989756" style="fill: #1f77b4; stroke: #1f77b4"/>
     <use xlink:href="#m0ceed8af63" x="150.282431" y="268.151116" style="fill: #1f77b4; stroke: #1f77b4"/>
     <use xlink:href="#m0ceed8af63" x="132.633006" y="125.603354" style="fill: #1f77b4; stroke: #1f77b4"/>
     <use xlink:href="#m0ceed8af63" x="144.201515" y="200.151569" style="fill: #1f77b4; stroke: #1f77b4"/>
     <use xlink:href="#m0ceed8af63" x="150.970501" y="236.549983" style="fill: #1f77b4; stroke: #1f77b4"/>
     <use xlink:href="#m0ceed8af63" x="162.832843" y="276.070436" style="fill: #1f77b4; stroke: #1f77b4"/>
     <use xlink:href="#m0ceed8af63" x="148.822222" y="252.007887" style="fill: #1f77b4; stroke: #1f77b4"/>
     <use xlink:href="#m0ceed8af63" x="141.502603" y="263.125394" style="fill: #1f77b4; stroke: #1f77b4"/>
     <use xlink:href="#m0ceed8af63" x="163.894663" y="200.836895" style="fill: #1f77b4; stroke: #1f77b4"/>
    </g>
   </g>
   <g id="PathCollection_2">
    <defs>
     <path id="m53466b677d" d="M 0 3.162278 
C 0.838646 3.162278 1.643056 2.82908 2.236068 2.236068 
C 2.82908 1.643056 3.162278 0.838646 3.162278 0 
C 3.162278 -0.838646 2.82908 -1.643056 2.236068 -2.236068 
C 1.643056 -2.82908 0.838646 -3.162278 0 -3.162278 
C -0.838646 -3.162278 -1.643056 -2.82908 -2.236068 -2.236068 
C -2.82908 -1.643056 -3.162278 -0.838646 -3.162278 0 
C -3.162278 0.838646 -2.82908 1.643056 -2.236068 2.236068 
C -1.643056 2.82908 -0.838646 3.162278 0 3.162278 
z
" style="stroke: #ff7f0e"/>
    </defs>
    <g clip-path="url(#p18b56a3b6f)">
     <use xlink:href="#m53466b677d" x="319.713704" y="243.403241" style="fill: #ff7f0e; stroke: #ff7f0e"/>
     <use xlink:href="#m53466b677d" x="317.406597" y="234.570153" style="fill: #ff7f0e; stroke: #ff7f0e"/>
     <use xlink:href="#m53466b677d" x="325.823717" y="230.915082" style="fill: #ff7f0e; stroke: #ff7f0e"/>
     <use xlink:href="#m53466b677d" x="331.335702" y="267.77038" style="fill: #ff7f0e; stroke: #ff7f0e"/>
     <use xlink:href="#m53466b677d" x="347.011331" y="260.307943" style="fill: #ff7f0e; stroke: #ff7f0e"/>
     <use xlink:href="#m53466b677d" x="320.417535" y="239.519728" style="fill: #ff7f0e; stroke: #ff7f0e"/>
     <use xlink:href="#m53466b677d" x="322.357878" y="255.434516" style="fill: #ff7f0e; stroke: #ff7f0e"/>
     <use xlink:href="#m53466b677d" x="321.810733" y="249.266584" style="fill: #ff7f0e; stroke: #ff7f0e"/>
     <use xlink:href="#m53466b677d" x="320.429212" y="283.761314" style="fill: #ff7f0e; stroke: #ff7f0e"/>
     <use xlink:href="#m53466b677d" x="319.441549" y="230.305904" style="fill: #ff7f0e; stroke: #ff7f0e"/>
     <use xlink:href="#m53466b677d" x="309.626082" y="287.949416" style="fill: #ff7f0e; stroke: #ff7f0e"/>
     <use xlink:href="#m53466b677d" x="323.216618" y="229.315989" style="fill: #ff7f0e; stroke: #ff7f0e"/>
     <use xlink:href="#m53466b677d" x="331.780163" y="283.837462" style="fill: #ff7f0e; stroke: #ff7f0e"/>
     <use xlink:href="#m53466b677d" x="318.950523" y="250.484941" style="fill: #ff7f0e; stroke: #ff7f0e"/>
     <use xlink:href="#m53466b677d" x="336.408708" y="283.075989" style="fill: #ff7f0e; stroke: #ff7f0e"/>
     <use xlink:href="#m53466b677d" x="329.684529" y="120.882221" style="fill: #ff7f0e; stroke: #ff7f0e"/>
     <use xlink:href="#m53466b677d" x="324.424843" y="205.481881" style="fill: #ff7f0e; stroke: #ff7f0e"/>
     <use xlink:href="#m53466b677d" x="332.836349" y="266.171286" style="fill: #ff7f0e; stroke: #ff7f0e"/>
     <use xlink:href="#m53466b677d" x="333.444168" y="281.705337" style="fill: #ff7f0e; stroke: #ff7f0e"/>
     <use xlink:href="#m53466b677d" x="310.858001" y="223.604941" style="fill: #ff7f0e; stroke: #ff7f0e"/>
     <use xlink:href="#m53466b677d" x="319.618194" y="264.191456" style="fill: #ff7f0e; stroke: #ff7f0e"/>
     <use xlink:href="#m53466b677d" x="320.077948" y="287.111796" style="fill: #ff7f0e; stroke: #ff7f0e"/>
     <use xlink:href="#m53466b677d" x="320.83642" y="257.414346" style="fill: #ff7f0e; stroke: #ff7f0e"/>
     <use xlink:href="#m53466b677d" x="321.052064" y="251.62715" style="fill: #ff7f0e; stroke: #ff7f0e"/>
     <use xlink:href="#m53466b677d" x="311.01083" y="253.835422" style="fill: #ff7f0e; stroke: #ff7f0e"/>
     <use xlink:href="#m53466b677d" x="320.113043" y="242.261031" style="fill: #ff7f0e; stroke: #ff7f0e"/>
     <use xlink:href="#m53466b677d" x="312.74751" y="157.585224" style="fill: #ff7f0e; stroke: #ff7f0e"/>
     <use xlink:href="#m53466b677d" x="317.881608" y="209.060805" style="fill: #ff7f0e; stroke: #ff7f0e"/>
     <use xlink:href="#m53466b677d" x="326.927987" y="181.723921" style="fill: #ff7f0e; stroke: #ff7f0e"/>
     <use xlink:href="#m53466b677d" x="322.895075" y="272.491513" style="fill: #ff7f0e; stroke: #ff7f0e"/>
     <use xlink:href="#m53466b677d" x="312.427358" y="170.911003" style="fill: #ff7f0e; stroke: #ff7f0e"/>
     <use xlink:href="#m53466b677d" x="331.517821" y="265.942844" style="fill: #ff7f0e; stroke: #ff7f0e"/>
     <use xlink:href="#m53466b677d" x="327.274515" y="248.657405" style="fill: #ff7f0e; stroke: #ff7f0e"/>
     <use xlink:href="#m53466b677d" x="313.61047" y="293.660465" style="fill: #ff7f0e; stroke: #ff7f0e"/>
     <use xlink:href="#m53466b677d" x="329.235264" y="295.488" style="fill: #ff7f0e; stroke: #ff7f0e"/>
     <use xlink:href="#m53466b677d" x="341.945159" y="253.759275" style="fill: #ff7f0e; stroke: #ff7f0e"/>
     <use xlink:href="#m53466b677d" x="315.776031" y="292.898992" style="fill: #ff7f0e; stroke: #ff7f0e"/>
     <use xlink:href="#m53466b677d" x="325.090806" y="283.304431" style="fill: #ff7f0e; stroke: #ff7f0e"/>
     <use xlink:href="#m53466b677d" x="326.493114" y="285.055819" style="fill: #ff7f0e; stroke: #ff7f0e"/>
     <use xlink:href="#m53466b677d" x="318.219482" y="281.933779" style="fill: #ff7f0e; stroke: #ff7f0e"/>
     <use xlink:href="#m53466b677d" x="322.084564" y="240.58579" style="fill: #ff7f0e; stroke: #ff7f0e"/>
     <use xlink:href="#m53466b677d" x="311.063674" y="274.014459" style="fill: #ff7f0e; stroke: #ff7f0e"/>
     <use xlink:href="#m53466b677d" x="324.625582" y="260.612533" style="fill: #ff7f0e; stroke: #ff7f0e"/>
     <use xlink:href="#m53466b677d" x="323.735492" y="242.946357" style="fill: #ff7f0e; stroke: #ff7f0e"/>
     <use xlink:href="#m53466b677d" x="336.248522" y="249.64732" style="fill: #ff7f0e; stroke: #ff7f0e"/>
     <use xlink:href="#m53466b677d" x="333.667318" y="200.227717" style="fill: #ff7f0e; stroke: #ff7f0e"/>
     <use xlink:href="#m53466b677d" x="307.879959" y="226.879275" style="fill: #ff7f0e; stroke: #ff7f0e"/>
     <use xlink:href="#m53466b677d" x="336.125247" y="224.290266" style="fill: #ff7f0e; stroke: #ff7f0e"/>
     <use xlink:href="#m53466b677d" x="327.526703" y="283.913609" style="fill: #ff7f0e; stroke: #ff7f0e"/>
     <use xlink:href="#m53466b677d" x="314.157547" y="89.433382" style="fill: #ff7f0e; stroke: #ff7f0e"/>
     <use xlink:href="#m53466b677d" x="315.014906" y="85.702164" style="fill: #ff7f0e; stroke: #ff7f0e"/>
     <use xlink:href="#m53466b677d" x="333.107412" y="161.011853" style="fill: #ff7f0e; stroke: #ff7f0e"/>
     <use xlink:href="#m53466b677d" x="335.061247" y="202.588283" style="fill: #ff7f0e; stroke: #ff7f0e"/>
     <use xlink:href="#m53466b677d" x="324.762105" y="227.640748" style="fill: #ff7f0e; stroke: #ff7f0e"/>
     <use xlink:href="#m53466b677d" x="330.100679" y="252.236329" style="fill: #ff7f0e; stroke: #ff7f0e"/>
     <use xlink:href="#m53466b677d" x="320.005426" y="248.657405" style="fill: #ff7f0e; stroke: #ff7f0e"/>
     <use xlink:href="#m53466b677d" x="323.610525" y="228.859105" style="fill: #ff7f0e; stroke: #ff7f0e"/>
     <use xlink:href="#m53466b677d" x="322.442343" y="153.092533" style="fill: #ff7f0e; stroke: #ff7f0e"/>
     <use xlink:href="#m53466b677d" x="311.405017" y="235.940805" style="fill: #ff7f0e; stroke: #ff7f0e"/>
     <use xlink:href="#m53466b677d" x="312.009725" y="254.901484" style="fill: #ff7f0e; stroke: #ff7f0e"/>
     <use xlink:href="#m53466b677d" x="328.275454" y="237.539898" style="fill: #ff7f0e; stroke: #ff7f0e"/>
     <use xlink:href="#m53466b677d" x="330.669579" y="251.551003" style="fill: #ff7f0e; stroke: #ff7f0e"/>
     <use xlink:href="#m53466b677d" x="322.05985" y="260.612533" style="fill: #ff7f0e; stroke: #ff7f0e"/>
     <use xlink:href="#m53466b677d" x="337.695158" y="165.123807" style="fill: #ff7f0e; stroke: #ff7f0e"/>
     <use xlink:href="#m53466b677d" x="330.378455" y="247.743637" style="fill: #ff7f0e; stroke: #ff7f0e"/>
     <use xlink:href="#m53466b677d" x="320.297021" y="209.669983" style="fill: #ff7f0e; stroke: #ff7f0e"/>
     <use xlink:href="#m53466b677d" x="313.188407" y="226.803127" style="fill: #ff7f0e; stroke: #ff7f0e"/>
     <use xlink:href="#m53466b677d" x="348.697397" y="259.774912" style="fill: #ff7f0e; stroke: #ff7f0e"/>
     <use xlink:href="#m53466b677d" x="326.567517" y="224.214119" style="fill: #ff7f0e; stroke: #ff7f0e"/>
     <use xlink:href="#m53466b677d" x="314.328944" y="286.350323" style="fill: #ff7f0e; stroke: #ff7f0e"/>
     <use xlink:href="#m53466b677d" x="337.654468" y="286.502618" style="fill: #ff7f0e; stroke: #ff7f0e"/>
     <use xlink:href="#m53466b677d" x="319.527649" y="290.081541" style="fill: #ff7f0e; stroke: #ff7f0e"/>
     <use xlink:href="#m53466b677d" x="334.3988" y="288.4063" style="fill: #ff7f0e; stroke: #ff7f0e"/>
     <use xlink:href="#m53466b677d" x="323.340799" y="287.187943" style="fill: #ff7f0e; stroke: #ff7f0e"/>
     <use xlink:href="#m53466b677d" x="318.821929" y="288.634742" style="fill: #ff7f0e; stroke: #ff7f0e"/>
     <use xlink:href="#m53466b677d" x="327.032007" y="286.959501" style="fill: #ff7f0e; stroke: #ff7f0e"/>
     <use xlink:href="#m53466b677d" x="324.189034" y="290.919161" style="fill: #ff7f0e; stroke: #ff7f0e"/>
     <use xlink:href="#m53466b677d" x="323.493233" y="281.020011" style="fill: #ff7f0e; stroke: #ff7f0e"/>
     <use xlink:href="#m53466b677d" x="326.821658" y="291.147603" style="fill: #ff7f0e; stroke: #ff7f0e"/>
     <use xlink:href="#m53466b677d" x="334.1331" y="292.746697" style="fill: #ff7f0e; stroke: #ff7f0e"/>
     <use xlink:href="#m53466b677d" x="321.914814" y="285.131966" style="fill: #ff7f0e; stroke: #ff7f0e"/>
     <use xlink:href="#m53466b677d" x="327.514972" y="290.614572" style="fill: #ff7f0e; stroke: #ff7f0e"/>
     <use xlink:href="#m53466b677d" x="332.287643" y="282.009926" style="fill: #ff7f0e; stroke: #ff7f0e"/>
     <use xlink:href="#m53466b677d" x="323.53373" y="249.418878" style="fill: #ff7f0e; stroke: #ff7f0e"/>
     <use xlink:href="#m53466b677d" x="326.374341" y="256.957462" style="fill: #ff7f0e; stroke: #ff7f0e"/>
     <use xlink:href="#m53466b677d" x="328.132385" y="240.58579" style="fill: #ff7f0e; stroke: #ff7f0e"/>
     <use xlink:href="#m53466b677d" x="332.639012" y="229.392136" style="fill: #ff7f0e; stroke: #ff7f0e"/>
     <use xlink:href="#m53466b677d" x="316.420517" y="263.50613" style="fill: #ff7f0e; stroke: #ff7f0e"/>
     <use xlink:href="#m53466b677d" x="333.483723" y="262.592363" style="fill: #ff7f0e; stroke: #ff7f0e"/>
     <use xlink:href="#m53466b677d" x="330.162094" y="252.312476" style="fill: #ff7f0e; stroke: #ff7f0e"/>
     <use xlink:href="#m53466b677d" x="326.574583" y="237.387603" style="fill: #ff7f0e; stroke: #ff7f0e"/>
     <use xlink:href="#m53466b677d" x="326.670323" y="266.171286" style="fill: #ff7f0e; stroke: #ff7f0e"/>
     <use xlink:href="#m53466b677d" x="325.832125" y="261.450153" style="fill: #ff7f0e; stroke: #ff7f0e"/>
     <use xlink:href="#m53466b677d" x="324.994201" y="200.303864" style="fill: #ff7f0e; stroke: #ff7f0e"/>
     <use xlink:href="#m53466b677d" x="349.268289" y="198.933212" style="fill: #ff7f0e; stroke: #ff7f0e"/>
     <use xlink:href="#m53466b677d" x="321.198568" y="150.122788" style="fill: #ff7f0e; stroke: #ff7f0e"/>
     <use xlink:href="#m53466b677d" x="327.407833" y="181.038595" style="fill: #ff7f0e; stroke: #ff7f0e"/>
     <use xlink:href="#m53466b677d" x="311.583311" y="213.096612" style="fill: #ff7f0e; stroke: #ff7f0e"/>
     <use xlink:href="#m53466b677d" x="325.453425" y="118.064771" style="fill: #ff7f0e; stroke: #ff7f0e"/>
     <use xlink:href="#m53466b677d" x="346.276858" y="74.50851" style="fill: #ff7f0e; stroke: #ff7f0e"/>
     <use xlink:href="#m53466b677d" x="332.364408" y="106.261938" style="fill: #ff7f0e; stroke: #ff7f0e"/>
     <use xlink:href="#m53466b677d" x="332.022003" y="229.772873" style="fill: #ff7f0e; stroke: #ff7f0e"/>
     <use xlink:href="#m53466b677d" x="328.394037" y="212.715875" style="fill: #ff7f0e; stroke: #ff7f0e"/>
     <use xlink:href="#m53466b677d" x="304.207825" y="185.074402" style="fill: #ff7f0e; stroke: #ff7f0e"/>
     <use xlink:href="#m53466b677d" x="325.595867" y="272.186924" style="fill: #ff7f0e; stroke: #ff7f0e"/>
     <use xlink:href="#m53466b677d" x="329.944841" y="213.248907" style="fill: #ff7f0e; stroke: #ff7f0e"/>
     <use xlink:href="#m53466b677d" x="326.756224" y="206.471796" style="fill: #ff7f0e; stroke: #ff7f0e"/>
     <use xlink:href="#m53466b677d" x="320.314483" y="216.903977" style="fill: #ff7f0e; stroke: #ff7f0e"/>
     <use xlink:href="#m53466b677d" x="323.991767" y="101.236215" style="fill: #ff7f0e; stroke: #ff7f0e"/>
     <use xlink:href="#m53466b677d" x="337.282554" y="53.568" style="fill: #ff7f0e; stroke: #ff7f0e"/>
     <use xlink:href="#m53466b677d" x="314.347429" y="165.88528" style="fill: #ff7f0e; stroke: #ff7f0e"/>
     <use xlink:href="#m53466b677d" x="340.768165" y="183.094572" style="fill: #ff7f0e; stroke: #ff7f0e"/>
     <use xlink:href="#m53466b677d" x="335.590154" y="217.132419" style="fill: #ff7f0e; stroke: #ff7f0e"/>
     <use xlink:href="#m53466b677d" x="322.139919" y="217.208567" style="fill: #ff7f0e; stroke: #ff7f0e"/>
     <use xlink:href="#m53466b677d" x="326.190119" y="127.507037" style="fill: #ff7f0e; stroke: #ff7f0e"/>
     <use xlink:href="#m53466b677d" x="317.089193" y="86.38749" style="fill: #ff7f0e; stroke: #ff7f0e"/>
     <use xlink:href="#m53466b677d" x="312.594221" y="117.607887" style="fill: #ff7f0e; stroke: #ff7f0e"/>
     <use xlink:href="#m53466b677d" x="333.673151" y="192.079955" style="fill: #ff7f0e; stroke: #ff7f0e"/>
     <use xlink:href="#m53466b677d" x="334.683603" y="164.971513" style="fill: #ff7f0e; stroke: #ff7f0e"/>
    </g>
   </g>
   <g id="patch_5">
    <path d="M 57.6 307.584 
L 57.6 41.472 
" style="fill: none; stroke: #000000; stroke-width: 0.8; stroke-linejoin: miter; stroke-linecap: square"/>
   </g>
   <g id="patch_6">
    <path d="M 414.72 307.584 
L 414.72 41.472 
" style="fill: none; stroke: #000000; stroke-width: 0.8; stroke-linejoin: miter; stroke-linecap: square"/>
   </g>
   <g id="patch_7">
    <path d="M 57.6 307.584 
L 414.72 307.584 
" style="fill: none; stroke: #000000; stroke-width: 0.8; stroke-linejoin: miter; stroke-linecap: square"/>
   </g>
   <g id="patch_8">
    <path d="M 57.6 41.472 
L 414.72 41.472 
" style="fill: none; stroke: #000000; stroke-width: 0.8; stroke-linejoin: miter; stroke-linecap: square"/>
   </g>
   <g id="text_11">
    <!-- p = 0.748 -->
    <g transform="translate(211.277188 90.980744) scale(0.1 -0.1)">
     <defs>
      <path id="DejaVuSerif-3d" d="M 678 2894 
L 4684 2894 
L 4684 2394 
L 678 2394 
L 678 2894 
z
M 678 1619 
L 4684 1619 
L 4684 1119 
L 678 1119 
L 678 1619 
z
" transform="scale(0.015625)"/>
      <path id="DejaVuSerif-2e" d="M 603 325 
Q 603 500 722 622 
Q 841 744 1019 744 
Q 1191 744 1312 622 
Q 1434 500 1434 325 
Q 1434 153 1312 31 
Q 1191 -91 1019 -91 
Q 841 -91 722 29 
Q 603 150 603 325 
z
" transform="scale(0.015625)"/>
      <path id="DejaVuSerif-37" d="M 3609 4347 
L 1784 0 
L 1319 0 
L 3059 4153 
L 903 4153 
L 903 3578 
L 538 3578 
L 538 4666 
L 3609 4666 
L 3609 4347 
z
" transform="scale(0.015625)"/>
      <path id="DejaVuSerif-34" d="M 2234 1581 
L 2234 4063 
L 641 1581 
L 2234 1581 
z
M 3609 0 
L 1484 0 
L 1484 331 
L 2234 331 
L 2234 1247 
L 197 1247 
L 197 1588 
L 2241 4750 
L 2859 4750 
L 2859 1581 
L 3750 1581 
L 3750 1247 
L 2859 1247 
L 2859 331 
L 3609 331 
L 3609 0 
z
" transform="scale(0.015625)"/>
      <path id="DejaVuSerif-38" d="M 2981 1275 
Q 2981 1775 2732 2051 
Q 2484 2328 2034 2328 
Q 1584 2328 1336 2051 
Q 1088 1775 1088 1275 
Q 1088 772 1336 495 
Q 1584 219 2034 219 
Q 2484 219 2732 495 
Q 2981 772 2981 1275 
z
M 2853 3541 
Q 2853 3966 2637 4203 
Q 2422 4441 2034 4441 
Q 1650 4441 1433 4203 
Q 1216 3966 1216 3541 
Q 1216 3113 1433 2875 
Q 1650 2638 2034 2638 
Q 2422 2638 2637 2875 
Q 2853 3113 2853 3541 
z
M 2516 2484 
Q 3047 2413 3344 2092 
Q 3641 1772 3641 1275 
Q 3641 619 3225 264 
Q 2809 -91 2034 -91 
Q 1263 -91 845 264 
Q 428 619 428 1275 
Q 428 1772 725 2092 
Q 1022 2413 1556 2484 
Q 1084 2569 832 2842 
Q 581 3116 581 3541 
Q 581 4103 968 4426 
Q 1356 4750 2034 4750 
Q 2713 4750 3100 4426 
Q 3488 4103 3488 3541 
Q 3488 3116 3236 2842 
Q 2984 2569 2516 2484 
z
" transform="scale(0.015625)"/>
     </defs>
     <use xlink:href="#DejaVuSerif-70"/>
     <use xlink:href="#DejaVuSerif-20" x="64.013672"/>
     <use xlink:href="#DejaVuSerif-3d" x="95.800781"/>
     <use xlink:href="#DejaVuSerif-20" x="179.589844"/>
     <use xlink:href="#DejaVuSerif-30" x="211.376953"/>
     <use xlink:href="#DejaVuSerif-2e" x="275"/>
     <use xlink:href="#DejaVuSerif-37" x="306.787109"/>
     <use xlink:href="#DejaVuSerif-34" x="370.410156"/>
     <use xlink:href="#DejaVuSerif-38" x="434.033203"/>
    </g>
   </g>
  </g>
 </g>
 <defs>
  <clipPath id="p18b56a3b6f">
   <rect x="57.6" y="41.472" width="357.12" height="266.112"/>
  </clipPath>
 </defs>
</svg>
