<?xml version="1.0" encoding="utf-8" standalone="no"?>
<!DOCTYPE svg PUBLIC "-//W3C//DTD SVG 1.1//EN"
  "http://www.w3.org/Graphics/SVG/1.1/DTD/svg11.dtd">
<svg xmlns:xlink="http://www.w3.org/1999/xlink" width="460.8pt" height="345.6pt" viewBox="0 0 460.8 345.6" xmlns="http://www.w3.org/2000/svg" version="1.1">
 <metadata>
  <rdf:RDF xmlns:dc="http://purl.org/dc/elements/1.1/" xmlns:cc="http://creativecommons.org/ns#" xmlns:rdf="http://www.w3.org/1999/02/22-rdf-syntax-ns#">
   <cc:Work>
    <dc:type rdf:resource="http://purl.org/dc/dcmitype/StillImage"/>
    <dc:date>2025-06-02T17:27:09.542552</dc:date>
    <dc:format>image/svg+xml</dc:format>
    <dc:creator>
     <cc:Agent>
      <dc:title>Matplotlib v3.9.2, https://matplotlib.org/</dc:title>
     </cc:Agent>
    </dc:creator>
   </cc:Work>
  </rdf:RDF>
 </metadata>
 <defs>
  <style type="text/css">*{stroke-linejoin: round; stroke-linecap: butt}</style>
 </defs>
 <g id="figure_1">
  <g id="patch_1">
   <path d="M 0 345.6 
L 460.8 345.6 
L 460.8 0 
L 0 0 
z
" style="fill: #ffffff"/>
  </g>
  <g id="axes_1">
   <g id="patch_2">
    <path d="M 73.19 308.36 
L 450 308.36 
L 450 10.8 
L 73.19 10.8 
z
" style="fill: #ffffff"/>
   </g>
   <g id="patch_3">
    <path d="M 110.871 256.863006 
L 223.914 256.863006 
L 223.914 194.34193 
L 110.871 194.34193 
L 110.871 256.863006 
z
" clip-path="url(#p254641618a)" style="fill: #a1c9f4; stroke: #000000; stroke-linejoin: miter"/>
   </g>
   <g id="line2d_1">
    <path d="M 167.3925 256.863006 
L 167.3925 291.943244 
" clip-path="url(#p254641618a)" style="fill: none; stroke: #000000; stroke-linecap: square"/>
   </g>
   <g id="line2d_2">
    <path d="M 167.3925 194.34193 
L 167.3925 124.486499 
" clip-path="url(#p254641618a)" style="fill: none; stroke: #000000; stroke-linecap: square"/>
   </g>
   <g id="line2d_3">
    <path d="M 139.13175 291.943244 
L 195.65325 291.943244 
" clip-path="url(#p254641618a)" style="fill: none; stroke: #000000; stroke-linecap: square"/>
   </g>
   <g id="line2d_4">
    <path d="M 139.13175 124.486499 
L 195.65325 124.486499 
" clip-path="url(#p254641618a)" style="fill: none; stroke: #000000; stroke-linecap: square"/>
   </g>
   <g id="patch_4">
    <path d="M 299.276 257.274154 
L 412.319 257.274154 
L 412.319 176.967596 
L 299.276 176.967596 
L 299.276 257.274154 
z
" clip-path="url(#p254641618a)" style="fill: #ffb482; stroke: #000000; stroke-linejoin: miter"/>
   </g>
   <g id="line2d_5">
    <path d="M 355.7975 257.274154 
L 355.7975 294.834545 
" clip-path="url(#p254641618a)" style="fill: none; stroke: #000000; stroke-linecap: square"/>
   </g>
   <g id="line2d_6">
    <path d="M 355.7975 176.967596 
L 355.7975 57.456054 
" clip-path="url(#p254641618a)" style="fill: none; stroke: #000000; stroke-linecap: square"/>
   </g>
   <g id="line2d_7">
    <path d="M 327.53675 294.834545 
L 384.05825 294.834545 
" clip-path="url(#p254641618a)" style="fill: none; stroke: #000000; stroke-linecap: square"/>
   </g>
   <g id="line2d_8">
    <path d="M 327.53675 57.456054 
L 384.05825 57.456054 
" clip-path="url(#p254641618a)" style="fill: none; stroke: #000000; stroke-linecap: square"/>
   </g>
   <g id="line2d_9">
    <path d="M 110.871 233.851961 
L 223.914 233.851961 
" clip-path="url(#p254641618a)" style="fill: none; stroke: #000000"/>
   </g>
   <g id="line2d_10">
    <path d="M 299.276 219.634185 
L 412.319 219.634185 
" clip-path="url(#p254641618a)" style="fill: none; stroke: #000000"/>
   </g>
   <g id="matplotlib.axis_1">
    <g id="xtick_1">
     <g id="line2d_11">
      <defs>
       <path id="mcf8609ac99" d="M 0 0 
L 0 3.5 
" style="stroke: #000000; stroke-width: 0.8"/>
      </defs>
      <g>
       <use xlink:href="#mcf8609ac99" x="167.3925" y="308.36" style="stroke: #000000; stroke-width: 0.8"/>
      </g>
     </g>
     <g id="text_1">
      <!-- Mutants -->
      <g transform="translate(125.140938 330.556875) scale(0.2 -0.2)">
       <defs>
        <path id="DejaVuSerif-4d" d="M 353 0 
L 353 331 
L 947 331 
L 947 4331 
L 319 4331 
L 319 4666 
L 1678 4666 
L 3316 1344 
L 4953 4666 
L 6228 4666 
L 6228 4331 
L 5606 4331 
L 5606 331 
L 6203 331 
L 6203 0 
L 4378 0 
L 4378 331 
L 4972 331 
L 4972 3938 
L 3372 684 
L 2931 684 
L 1331 3938 
L 1331 331 
L 1925 331 
L 1925 0 
L 353 0 
z
" transform="scale(0.015625)"/>
        <path id="DejaVuSerif-75" d="M 2266 3322 
L 3341 3322 
L 3341 331 
L 3884 331 
L 3884 0 
L 2766 0 
L 2766 588 
Q 2606 256 2353 82 
Q 2100 -91 1766 -91 
Q 1213 -91 952 223 
Q 691 538 691 1209 
L 691 2988 
L 172 2988 
L 172 3322 
L 1269 3322 
L 1269 1388 
Q 1269 781 1417 556 
Q 1566 331 1947 331 
Q 2347 331 2556 625 
Q 2766 919 2766 1478 
L 2766 2988 
L 2266 2988 
L 2266 3322 
z
" transform="scale(0.015625)"/>
        <path id="DejaVuSerif-74" d="M 691 2988 
L 184 2988 
L 184 3322 
L 691 3322 
L 691 4353 
L 1269 4353 
L 1269 3322 
L 2350 3322 
L 2350 2988 
L 1269 2988 
L 1269 878 
Q 1269 456 1350 337 
Q 1431 219 1650 219 
Q 1875 219 1978 351 
Q 2081 484 2088 781 
L 2522 781 
Q 2497 328 2275 118 
Q 2053 -91 1600 -91 
Q 1103 -91 897 129 
Q 691 350 691 878 
L 691 2988 
z
" transform="scale(0.015625)"/>
        <path id="DejaVuSerif-61" d="M 2547 1044 
L 2547 1747 
L 1806 1747 
Q 1378 1747 1168 1562 
Q 959 1378 959 997 
Q 959 650 1171 447 
Q 1384 244 1747 244 
Q 2106 244 2326 466 
Q 2547 688 2547 1044 
z
M 3122 2075 
L 3122 331 
L 3634 331 
L 3634 0 
L 2547 0 
L 2547 359 
Q 2356 128 2106 18 
Q 1856 -91 1522 -91 
Q 969 -91 644 203 
Q 319 497 319 997 
Q 319 1513 691 1797 
Q 1063 2081 1741 2081 
L 2547 2081 
L 2547 2309 
Q 2547 2688 2317 2895 
Q 2088 3103 1672 3103 
Q 1328 3103 1125 2947 
Q 922 2791 872 2484 
L 575 2484 
L 575 3156 
Q 875 3284 1158 3348 
Q 1441 3413 1709 3413 
Q 2400 3413 2761 3070 
Q 3122 2728 3122 2075 
z
" transform="scale(0.015625)"/>
        <path id="DejaVuSerif-6e" d="M 263 0 
L 263 331 
L 781 331 
L 781 2988 
L 231 2988 
L 231 3322 
L 1356 3322 
L 1356 2731 
Q 1516 3069 1770 3241 
Q 2025 3413 2363 3413 
Q 2913 3413 3172 3097 
Q 3431 2781 3431 2113 
L 3431 331 
L 3944 331 
L 3944 0 
L 2356 0 
L 2356 331 
L 2853 331 
L 2853 1931 
Q 2853 2541 2703 2767 
Q 2553 2994 2175 2994 
Q 1775 2994 1565 2701 
Q 1356 2409 1356 1850 
L 1356 331 
L 1856 331 
L 1856 0 
L 263 0 
z
" transform="scale(0.015625)"/>
        <path id="DejaVuSerif-73" d="M 359 184 
L 359 959 
L 691 959 
Q 703 588 923 403 
Q 1144 219 1575 219 
Q 1963 219 2166 364 
Q 2369 509 2369 788 
Q 2369 1006 2220 1140 
Q 2072 1275 1594 1428 
L 1178 1569 
Q 750 1706 558 1912 
Q 366 2119 366 2438 
Q 366 2894 700 3153 
Q 1034 3413 1625 3413 
Q 1888 3413 2178 3344 
Q 2469 3275 2778 3144 
L 2778 2419 
L 2447 2419 
Q 2434 2741 2221 2922 
Q 2009 3103 1644 3103 
Q 1281 3103 1095 2975 
Q 909 2847 909 2591 
Q 909 2381 1050 2254 
Q 1191 2128 1613 1997 
L 2069 1856 
Q 2541 1709 2748 1489 
Q 2956 1269 2956 922 
Q 2956 450 2595 179 
Q 2234 -91 1600 -91 
Q 1278 -91 972 -22 
Q 666 47 359 184 
z
" transform="scale(0.015625)"/>
       </defs>
       <use xlink:href="#DejaVuSerif-4d"/>
       <use xlink:href="#DejaVuSerif-75" x="102.392578"/>
       <use xlink:href="#DejaVuSerif-74" x="166.796875"/>
       <use xlink:href="#DejaVuSerif-61" x="206.982422"/>
       <use xlink:href="#DejaVuSerif-6e" x="266.601562"/>
       <use xlink:href="#DejaVuSerif-74" x="331.005859"/>
       <use xlink:href="#DejaVuSerif-73" x="371.191406"/>
      </g>
     </g>
    </g>
    <g id="xtick_2">
     <g id="line2d_12">
      <g>
       <use xlink:href="#mcf8609ac99" x="355.7975" y="308.36" style="stroke: #000000; stroke-width: 0.8"/>
      </g>
     </g>
     <g id="text_2">
      <!-- WT -->
      <g transform="translate(338.849063 330.556875) scale(0.2 -0.2)">
       <defs>
        <path id="DejaVuSerif-57" d="M 4878 0 
L 4366 0 
L 3297 3794 
L 2228 0 
L 1716 0 
L 494 4331 
L 31 4331 
L 31 4666 
L 1734 4666 
L 1734 4331 
L 1153 4331 
L 2125 884 
L 3188 4666 
L 3694 4666 
L 4775 844 
L 5753 4331 
L 5216 4331 
L 5216 4666 
L 6559 4666 
L 6559 4331 
L 6100 4331 
L 4878 0 
z
" transform="scale(0.015625)"/>
        <path id="DejaVuSerif-54" d="M 1222 0 
L 1222 331 
L 1819 331 
L 1819 4294 
L 447 4294 
L 447 3566 
L 63 3566 
L 63 4666 
L 4206 4666 
L 4206 3566 
L 3822 3566 
L 3822 4294 
L 2450 4294 
L 2450 331 
L 3047 331 
L 3047 0 
L 1222 0 
z
" transform="scale(0.015625)"/>
       </defs>
       <use xlink:href="#DejaVuSerif-57"/>
       <use xlink:href="#DejaVuSerif-54" x="102.783203"/>
      </g>
     </g>
    </g>
   </g>
   <g id="matplotlib.axis_2">
    <g id="ytick_1">
     <g id="line2d_13">
      <defs>
       <path id="mee3d07cb30" d="M 0 0 
L -3.5 0 
" style="stroke: #000000; stroke-width: 0.8"/>
      </defs>
      <g>
       <use xlink:href="#mee3d07cb30" x="73.19" y="298.362464" style="stroke: #000000; stroke-width: 0.8"/>
      </g>
     </g>
     <g id="text_3">
      <!-- 0 -->
      <g transform="translate(59.8275 302.161682) scale(0.1 -0.1)">
       <defs>
        <path id="DejaVuSerif-30" d="M 2034 219 
Q 2513 219 2750 744 
Q 2988 1269 2988 2328 
Q 2988 3391 2750 3916 
Q 2513 4441 2034 4441 
Q 1556 4441 1318 3916 
Q 1081 3391 1081 2328 
Q 1081 1269 1318 744 
Q 1556 219 2034 219 
z
M 2034 -91 
Q 1275 -91 848 546 
Q 422 1184 422 2328 
Q 422 3475 848 4112 
Q 1275 4750 2034 4750 
Q 2797 4750 3222 4112 
Q 3647 3475 3647 2328 
Q 3647 1184 3222 546 
Q 2797 -91 2034 -91 
z
" transform="scale(0.015625)"/>
       </defs>
       <use xlink:href="#DejaVuSerif-30"/>
      </g>
     </g>
    </g>
    <g id="ytick_2">
     <g id="line2d_14">
      <g>
       <use xlink:href="#mee3d07cb30" x="73.19" y="245.311063" style="stroke: #000000; stroke-width: 0.8"/>
      </g>
     </g>
     <g id="text_4">
      <!-- 2000 -->
      <g transform="translate(40.74 249.110282) scale(0.1 -0.1)">
       <defs>
        <path id="DejaVuSerif-32" d="M 819 3553 
L 469 3553 
L 469 4384 
Q 803 4563 1142 4656 
Q 1481 4750 1806 4750 
Q 2534 4750 2956 4397 
Q 3378 4044 3378 3438 
Q 3378 2753 2422 1800 
Q 2347 1728 2309 1691 
L 1131 513 
L 3078 513 
L 3078 1088 
L 3444 1088 
L 3444 0 
L 434 0 
L 434 341 
L 1850 1753 
Q 2319 2222 2519 2614 
Q 2719 3006 2719 3438 
Q 2719 3909 2473 4175 
Q 2228 4441 1797 4441 
Q 1350 4441 1106 4219 
Q 863 3997 819 3553 
z
" transform="scale(0.015625)"/>
       </defs>
       <use xlink:href="#DejaVuSerif-32"/>
       <use xlink:href="#DejaVuSerif-30" x="63.623047"/>
       <use xlink:href="#DejaVuSerif-30" x="127.246094"/>
       <use xlink:href="#DejaVuSerif-30" x="190.869141"/>
      </g>
     </g>
    </g>
    <g id="ytick_3">
     <g id="line2d_15">
      <g>
       <use xlink:href="#mee3d07cb30" x="73.19" y="192.259663" style="stroke: #000000; stroke-width: 0.8"/>
      </g>
     </g>
     <g id="text_5">
      <!-- 4000 -->
      <g transform="translate(40.74 196.058881) scale(0.1 -0.1)">
       <defs>
        <path id="DejaVuSerif-34" d="M 2234 1581 
L 2234 4063 
L 641 1581 
L 2234 1581 
z
M 3609 0 
L 1484 0 
L 1484 331 
L 2234 331 
L 2234 1247 
L 197 1247 
L 197 1588 
L 2241 4750 
L 2859 4750 
L 2859 1581 
L 3750 1581 
L 3750 1247 
L 2859 1247 
L 2859 331 
L 3609 331 
L 3609 0 
z
" transform="scale(0.015625)"/>
       </defs>
       <use xlink:href="#DejaVuSerif-34"/>
       <use xlink:href="#DejaVuSerif-30" x="63.623047"/>
       <use xlink:href="#DejaVuSerif-30" x="127.246094"/>
       <use xlink:href="#DejaVuSerif-30" x="190.869141"/>
      </g>
     </g>
    </g>
    <g id="ytick_4">
     <g id="line2d_16">
      <g>
       <use xlink:href="#mee3d07cb30" x="73.19" y="139.208262" style="stroke: #000000; stroke-width: 0.8"/>
      </g>
     </g>
     <g id="text_6">
      <!-- 6000 -->
      <g transform="translate(40.74 143.007481) scale(0.1 -0.1)">
       <defs>
        <path id="DejaVuSerif-36" d="M 2094 219 
Q 2534 219 2771 542 
Q 3009 866 3009 1472 
Q 3009 2078 2771 2401 
Q 2534 2725 2094 2725 
Q 1647 2725 1412 2412 
Q 1178 2100 1178 1509 
Q 1178 888 1415 553 
Q 1653 219 2094 219 
z
M 1075 2569 
Q 1288 2803 1556 2918 
Q 1825 3034 2163 3034 
Q 2859 3034 3264 2615 
Q 3669 2197 3669 1472 
Q 3669 763 3233 336 
Q 2797 -91 2069 -91 
Q 1278 -91 853 498 
Q 428 1088 428 2181 
Q 428 3406 931 4078 
Q 1434 4750 2350 4750 
Q 2597 4750 2869 4703 
Q 3141 4656 3425 4563 
L 3425 3794 
L 3072 3794 
Q 3034 4109 2831 4275 
Q 2628 4441 2284 4441 
Q 1678 4441 1381 3981 
Q 1084 3522 1075 2569 
z
" transform="scale(0.015625)"/>
       </defs>
       <use xlink:href="#DejaVuSerif-36"/>
       <use xlink:href="#DejaVuSerif-30" x="63.623047"/>
       <use xlink:href="#DejaVuSerif-30" x="127.246094"/>
       <use xlink:href="#DejaVuSerif-30" x="190.869141"/>
      </g>
     </g>
    </g>
    <g id="ytick_5">
     <g id="line2d_17">
      <g>
       <use xlink:href="#mee3d07cb30" x="73.19" y="86.156862" style="stroke: #000000; stroke-width: 0.8"/>
      </g>
     </g>
     <g id="text_7">
      <!-- 8000 -->
      <g transform="translate(40.74 89.956081) scale(0.1 -0.1)">
       <defs>
        <path id="DejaVuSerif-38" d="M 2981 1275 
Q 2981 1775 2732 2051 
Q 2484 2328 2034 2328 
Q 1584 2328 1336 2051 
Q 1088 1775 1088 1275 
Q 1088 772 1336 495 
Q 1584 219 2034 219 
Q 2484 219 2732 495 
Q 2981 772 2981 1275 
z
M 2853 3541 
Q 2853 3966 2637 4203 
Q 2422 4441 2034 4441 
Q 1650 4441 1433 4203 
Q 1216 3966 1216 3541 
Q 1216 3113 1433 2875 
Q 1650 2638 2034 2638 
Q 2422 2638 2637 2875 
Q 2853 3113 2853 3541 
z
M 2516 2484 
Q 3047 2413 3344 2092 
Q 3641 1772 3641 1275 
Q 3641 619 3225 264 
Q 2809 -91 2034 -91 
Q 1263 -91 845 264 
Q 428 619 428 1275 
Q 428 1772 725 2092 
Q 1022 2413 1556 2484 
Q 1084 2569 832 2842 
Q 581 3116 581 3541 
Q 581 4103 968 4426 
Q 1356 4750 2034 4750 
Q 2713 4750 3100 4426 
Q 3488 4103 3488 3541 
Q 3488 3116 3236 2842 
Q 2984 2569 2516 2484 
z
" transform="scale(0.015625)"/>
       </defs>
       <use xlink:href="#DejaVuSerif-38"/>
       <use xlink:href="#DejaVuSerif-30" x="63.623047"/>
       <use xlink:href="#DejaVuSerif-30" x="127.246094"/>
       <use xlink:href="#DejaVuSerif-30" x="190.869141"/>
      </g>
     </g>
    </g>
    <g id="ytick_6">
     <g id="line2d_18">
      <g>
       <use xlink:href="#mee3d07cb30" x="73.19" y="33.105461" style="stroke: #000000; stroke-width: 0.8"/>
      </g>
     </g>
     <g id="text_8">
      <!-- 10000 -->
      <g transform="translate(34.3775 36.90468) scale(0.1 -0.1)">
       <defs>
        <path id="DejaVuSerif-31" d="M 909 0 
L 909 331 
L 1722 331 
L 1722 4213 
L 781 3603 
L 781 4013 
L 1919 4750 
L 2350 4750 
L 2350 331 
L 3163 331 
L 3163 0 
L 909 0 
z
" transform="scale(0.015625)"/>
       </defs>
       <use xlink:href="#DejaVuSerif-31"/>
       <use xlink:href="#DejaVuSerif-30" x="63.623047"/>
       <use xlink:href="#DejaVuSerif-30" x="127.246094"/>
       <use xlink:href="#DejaVuSerif-30" x="190.869141"/>
       <use xlink:href="#DejaVuSerif-30" x="254.492188"/>
      </g>
     </g>
    </g>
    <g id="text_9">
     <!-- Total interactions -->
     <g transform="translate(26.218125 248.581562) rotate(-90) scale(0.2 -0.2)">
      <defs>
       <path id="DejaVuSerif-6f" d="M 1925 219 
Q 2388 219 2623 584 
Q 2859 950 2859 1663 
Q 2859 2375 2623 2739 
Q 2388 3103 1925 3103 
Q 1463 3103 1227 2739 
Q 991 2375 991 1663 
Q 991 950 1228 584 
Q 1466 219 1925 219 
z
M 1925 -91 
Q 1200 -91 759 389 
Q 319 869 319 1663 
Q 319 2456 758 2934 
Q 1197 3413 1925 3413 
Q 2653 3413 3092 2934 
Q 3531 2456 3531 1663 
Q 3531 869 3092 389 
Q 2653 -91 1925 -91 
z
" transform="scale(0.015625)"/>
       <path id="DejaVuSerif-6c" d="M 1313 331 
L 1856 331 
L 1856 0 
L 184 0 
L 184 331 
L 738 331 
L 738 4531 
L 184 4531 
L 184 4863 
L 1313 4863 
L 1313 331 
z
" transform="scale(0.015625)"/>
       <path id="DejaVuSerif-20" transform="scale(0.015625)"/>
       <path id="DejaVuSerif-69" d="M 622 4353 
Q 622 4497 726 4603 
Q 831 4709 978 4709 
Q 1122 4709 1226 4603 
Q 1331 4497 1331 4353 
Q 1331 4206 1228 4103 
Q 1125 4000 978 4000 
Q 831 4000 726 4103 
Q 622 4206 622 4353 
z
M 1356 331 
L 1900 331 
L 1900 0 
L 231 0 
L 231 331 
L 781 331 
L 781 2988 
L 231 2988 
L 231 3322 
L 1356 3322 
L 1356 331 
z
" transform="scale(0.015625)"/>
       <path id="DejaVuSerif-65" d="M 3469 1600 
L 991 1600 
L 991 1575 
Q 991 903 1244 561 
Q 1497 219 1991 219 
Q 2369 219 2611 417 
Q 2853 616 2950 1006 
L 3413 1006 
Q 3275 459 2904 184 
Q 2534 -91 1931 -91 
Q 1203 -91 761 389 
Q 319 869 319 1663 
Q 319 2450 753 2931 
Q 1188 3413 1894 3413 
Q 2647 3413 3050 2948 
Q 3453 2484 3469 1600 
z
M 2791 1931 
Q 2772 2513 2545 2808 
Q 2319 3103 1894 3103 
Q 1497 3103 1269 2806 
Q 1041 2509 991 1931 
L 2791 1931 
z
" transform="scale(0.015625)"/>
       <path id="DejaVuSerif-72" d="M 3059 3328 
L 3059 2497 
L 2728 2497 
Q 2713 2744 2591 2866 
Q 2469 2988 2234 2988 
Q 1809 2988 1582 2694 
Q 1356 2400 1356 1850 
L 1356 331 
L 2022 331 
L 2022 0 
L 263 0 
L 263 331 
L 781 331 
L 781 2994 
L 231 2994 
L 231 3322 
L 1356 3322 
L 1356 2731 
Q 1525 3078 1790 3245 
Q 2056 3413 2438 3413 
Q 2578 3413 2733 3391 
Q 2888 3369 3059 3328 
z
" transform="scale(0.015625)"/>
       <path id="DejaVuSerif-63" d="M 3291 997 
Q 3169 466 2822 187 
Q 2475 -91 1925 -91 
Q 1200 -91 759 389 
Q 319 869 319 1663 
Q 319 2459 759 2936 
Q 1200 3413 1925 3413 
Q 2241 3413 2553 3339 
Q 2866 3266 3181 3116 
L 3181 2266 
L 2847 2266 
Q 2781 2703 2561 2903 
Q 2341 3103 1931 3103 
Q 1466 3103 1228 2742 
Q 991 2381 991 1663 
Q 991 944 1227 581 
Q 1463 219 1931 219 
Q 2303 219 2525 412 
Q 2747 606 2828 997 
L 3291 997 
z
" transform="scale(0.015625)"/>
      </defs>
      <use xlink:href="#DejaVuSerif-54"/>
      <use xlink:href="#DejaVuSerif-6f" x="58.949219"/>
      <use xlink:href="#DejaVuSerif-74" x="119.154297"/>
      <use xlink:href="#DejaVuSerif-61" x="159.339844"/>
      <use xlink:href="#DejaVuSerif-6c" x="218.958984"/>
      <use xlink:href="#DejaVuSerif-20" x="250.941406"/>
      <use xlink:href="#DejaVuSerif-69" x="282.728516"/>
      <use xlink:href="#DejaVuSerif-6e" x="314.710938"/>
      <use xlink:href="#DejaVuSerif-74" x="379.115234"/>
      <use xlink:href="#DejaVuSerif-65" x="419.300781"/>
      <use xlink:href="#DejaVuSerif-72" x="478.480469"/>
      <use xlink:href="#DejaVuSerif-61" x="526.283203"/>
      <use xlink:href="#DejaVuSerif-63" x="585.902344"/>
      <use xlink:href="#DejaVuSerif-74" x="641.908203"/>
      <use xlink:href="#DejaVuSerif-69" x="682.09375"/>
      <use xlink:href="#DejaVuSerif-6f" x="714.076172"/>
      <use xlink:href="#DejaVuSerif-6e" x="774.28125"/>
      <use xlink:href="#DejaVuSerif-73" x="838.685547"/>
     </g>
    </g>
   </g>
   <g id="line2d_19">
    <path d="M 167.3925 32.531313 
L 167.3925 27.308986 
L 355.7975 27.308986 
L 355.7975 32.531313 
" clip-path="url(#p254641618a)" style="fill: none; stroke: #000000; stroke-linecap: square"/>
   </g>
   <g id="PathCollection_1">
    <defs>
     <path id="m733d11eb2e" d="M 0 3.162278 
C 0.838646 3.162278 1.643056 2.82908 2.236068 2.236068 
C 2.82908 1.643056 3.162278 0.838646 3.162278 0 
C 3.162278 -0.838646 2.82908 -1.643056 2.236068 -2.236068 
C 1.643056 -2.82908 0.838646 -3.162278 0 -3.162278 
C -0.838646 -3.162278 -1.643056 -2.82908 -2.236068 -2.236068 
C -2.82908 -1.643056 -3.162278 -0.838646 -3.162278 0 
C -3.162278 0.838646 -2.82908 1.643056 -2.236068 2.236068 
C -1.643056 2.82908 -0.838646 3.162278 0 3.162278 
z
" style="stroke: #1f77b4"/>
    </defs>
    <g clip-path="url(#p254641618a)">
     <use xlink:href="#m733d11eb2e" x="166.788056" y="184.063221" style="fill: #1f77b4; stroke: #1f77b4"/>
     <use xlink:href="#m733d11eb2e" x="180.314232" y="242.817647" style="fill: #1f77b4; stroke: #1f77b4"/>
     <use xlink:href="#m733d11eb2e" x="174.884495" y="216.424576" style="fill: #1f77b4; stroke: #1f77b4"/>
     <use xlink:href="#m733d11eb2e" x="165.898881" y="252.101642" style="fill: #1f77b4; stroke: #1f77b4"/>
     <use xlink:href="#m733d11eb2e" x="158.56293" y="268.202742" style="fill: #1f77b4; stroke: #1f77b4"/>
     <use xlink:href="#m733d11eb2e" x="173.114577" y="124.486499" style="fill: #1f77b4; stroke: #1f77b4"/>
     <use xlink:href="#m733d11eb2e" x="163.21996" y="258.865696" style="fill: #1f77b4; stroke: #1f77b4"/>
     <use xlink:href="#m733d11eb2e" x="165.769197" y="220.589111" style="fill: #1f77b4; stroke: #1f77b4"/>
     <use xlink:href="#m733d11eb2e" x="184.619654" y="217.989592" style="fill: #1f77b4; stroke: #1f77b4"/>
     <use xlink:href="#m733d11eb2e" x="173.570699" y="73.58368" style="fill: #1f77b4; stroke: #1f77b4"/>
     <use xlink:href="#m733d11eb2e" x="161.601362" y="244.196984" style="fill: #1f77b4; stroke: #1f77b4"/>
     <use xlink:href="#m733d11eb2e" x="159.375426" y="248.626776" style="fill: #1f77b4; stroke: #1f77b4"/>
     <use xlink:href="#m733d11eb2e" x="164.610111" y="218.467055" style="fill: #1f77b4; stroke: #1f77b4"/>
     <use xlink:href="#m733d11eb2e" x="175.128106" y="252.234271" style="fill: #1f77b4; stroke: #1f77b4"/>
     <use xlink:href="#m733d11eb2e" x="178.858526" y="205.363359" style="fill: #1f77b4; stroke: #1f77b4"/>
     <use xlink:href="#m733d11eb2e" x="165.210104" y="126.104566" style="fill: #1f77b4; stroke: #1f77b4"/>
     <use xlink:href="#m733d11eb2e" x="166.668071" y="71.673829" style="fill: #1f77b4; stroke: #1f77b4"/>
     <use xlink:href="#m733d11eb2e" x="160.393622" y="291.943244" style="fill: #1f77b4; stroke: #1f77b4"/>
     <use xlink:href="#m733d11eb2e" x="176.420277" y="285.179191" style="fill: #1f77b4; stroke: #1f77b4"/>
     <use xlink:href="#m733d11eb2e" x="157.16182" y="289.900765" style="fill: #1f77b4; stroke: #1f77b4"/>
     <use xlink:href="#m733d11eb2e" x="174.516715" y="288.176595" style="fill: #1f77b4; stroke: #1f77b4"/>
     <use xlink:href="#m733d11eb2e" x="162.8217" y="281.73085" style="fill: #1f77b4; stroke: #1f77b4"/>
     <use xlink:href="#m733d11eb2e" x="175.494965" y="281.147284" style="fill: #1f77b4; stroke: #1f77b4"/>
     <use xlink:href="#m733d11eb2e" x="145.21742" y="240.722117" style="fill: #1f77b4; stroke: #1f77b4"/>
     <use xlink:href="#m733d11eb2e" x="159.99654" y="64.750622" style="fill: #1f77b4; stroke: #1f77b4"/>
     <use xlink:href="#m733d11eb2e" x="169.598464" y="170.906474" style="fill: #1f77b4; stroke: #1f77b4"/>
     <use xlink:href="#m733d11eb2e" x="166.354085" y="204.620639" style="fill: #1f77b4; stroke: #1f77b4"/>
     <use xlink:href="#m733d11eb2e" x="166.595544" y="254.860315" style="fill: #1f77b4; stroke: #1f77b4"/>
     <use xlink:href="#m733d11eb2e" x="164.64296" y="226.000353" style="fill: #1f77b4; stroke: #1f77b4"/>
     <use xlink:href="#m733d11eb2e" x="153.471051" y="233.851961" style="fill: #1f77b4; stroke: #1f77b4"/>
     <use xlink:href="#m733d11eb2e" x="154.694982" y="170.163754" style="fill: #1f77b4; stroke: #1f77b4"/>
    </g>
   </g>
   <g id="PathCollection_2">
    <defs>
     <path id="mc2f134193c" d="M 0 3.162278 
C 0.838646 3.162278 1.643056 2.82908 2.236068 2.236068 
C 2.82908 1.643056 3.162278 0.838646 3.162278 0 
C 3.162278 -0.838646 2.82908 -1.643056 2.236068 -2.236068 
C 1.643056 -2.82908 0.838646 -3.162278 0 -3.162278 
C -0.838646 -3.162278 -1.643056 -2.82908 -2.236068 -2.236068 
C -2.82908 -1.643056 -3.162278 -0.838646 -3.162278 0 
C -3.162278 0.838646 -2.82908 1.643056 -2.236068 2.236068 
C -1.643056 2.82908 -0.838646 3.162278 0 3.162278 
z
" style="stroke: #ff7f0e"/>
    </defs>
    <g clip-path="url(#p254641618a)">
     <use xlink:href="#mc2f134193c" x="366.303302" y="237.459456" style="fill: #ff7f0e; stroke: #ff7f0e"/>
     <use xlink:href="#mc2f134193c" x="341.443208" y="217.008141" style="fill: #ff7f0e; stroke: #ff7f0e"/>
     <use xlink:href="#mc2f134193c" x="335.193438" y="217.724335" style="fill: #ff7f0e; stroke: #ff7f0e"/>
     <use xlink:href="#mc2f134193c" x="375.539876" y="259.422736" style="fill: #ff7f0e; stroke: #ff7f0e"/>
     <use xlink:href="#mc2f134193c" x="366.03259" y="256.690589" style="fill: #ff7f0e; stroke: #ff7f0e"/>
     <use xlink:href="#mc2f134193c" x="345.522841" y="227.989781" style="fill: #ff7f0e; stroke: #ff7f0e"/>
     <use xlink:href="#mc2f134193c" x="340.609572" y="234.249846" style="fill: #ff7f0e; stroke: #ff7f0e"/>
     <use xlink:href="#mc2f134193c" x="361.661882" y="230.536248" style="fill: #ff7f0e; stroke: #ff7f0e"/>
     <use xlink:href="#mc2f134193c" x="363.969827" y="273.720088" style="fill: #ff7f0e; stroke: #ff7f0e"/>
     <use xlink:href="#mc2f134193c" x="356.181225" y="218.626209" style="fill: #ff7f0e; stroke: #ff7f0e"/>
     <use xlink:href="#mc2f134193c" x="347.748244" y="282.844929" style="fill: #ff7f0e; stroke: #ff7f0e"/>
     <use xlink:href="#mc2f134193c" x="358.409009" y="218.785363" style="fill: #ff7f0e; stroke: #ff7f0e"/>
     <use xlink:href="#mc2f134193c" x="370.710801" y="268.812834" style="fill: #ff7f0e; stroke: #ff7f0e"/>
     <use xlink:href="#mc2f134193c" x="366.676808" y="247.008708" style="fill: #ff7f0e; stroke: #ff7f0e"/>
     <use xlink:href="#mc2f134193c" x="354.338382" y="269.44945" style="fill: #ff7f0e; stroke: #ff7f0e"/>
     <use xlink:href="#mc2f134193c" x="349.269316" y="93.955418" style="fill: #ff7f0e; stroke: #ff7f0e"/>
     <use xlink:href="#mc2f134193c" x="356.309995" y="162.23257" style="fill: #ff7f0e; stroke: #ff7f0e"/>
     <use xlink:href="#mc2f134193c" x="371.540378" y="242.791122" style="fill: #ff7f0e; stroke: #ff7f0e"/>
     <use xlink:href="#mc2f134193c" x="358.32622" y="275.338156" style="fill: #ff7f0e; stroke: #ff7f0e"/>
     <use xlink:href="#mc2f134193c" x="342.268943" y="206.503964" style="fill: #ff7f0e; stroke: #ff7f0e"/>
     <use xlink:href="#mc2f134193c" x="344.132377" y="257.857719" style="fill: #ff7f0e; stroke: #ff7f0e"/>
     <use xlink:href="#mc2f134193c" x="355.018496" y="278.600817" style="fill: #ff7f0e; stroke: #ff7f0e"/>
     <use xlink:href="#mc2f134193c" x="361.219872" y="240.191603" style="fill: #ff7f0e; stroke: #ff7f0e"/>
     <use xlink:href="#mc2f134193c" x="345.729646" y="237.539033" style="fill: #ff7f0e; stroke: #ff7f0e"/>
     <use xlink:href="#mc2f134193c" x="373.07381" y="244.594869" style="fill: #ff7f0e; stroke: #ff7f0e"/>
     <use xlink:href="#mc2f134193c" x="357.965883" y="218.785363" style="fill: #ff7f0e; stroke: #ff7f0e"/>
     <use xlink:href="#mc2f134193c" x="366.375857" y="115.679966" style="fill: #ff7f0e; stroke: #ff7f0e"/>
     <use xlink:href="#mc2f134193c" x="366.133762" y="192.975857" style="fill: #ff7f0e; stroke: #ff7f0e"/>
     <use xlink:href="#mc2f134193c" x="360.109579" y="175.999408" style="fill: #ff7f0e; stroke: #ff7f0e"/>
     <use xlink:href="#mc2f134193c" x="358.06712" y="261.465215" style="fill: #ff7f0e; stroke: #ff7f0e"/>
     <use xlink:href="#mc2f134193c" x="370.013708" y="146.741561" style="fill: #ff7f0e; stroke: #ff7f0e"/>
     <use xlink:href="#mc2f134193c" x="346.187755" y="245.231486" style="fill: #ff7f0e; stroke: #ff7f0e"/>
     <use xlink:href="#mc2f134193c" x="356.015939" y="238.149124" style="fill: #ff7f0e; stroke: #ff7f0e"/>
     <use xlink:href="#mc2f134193c" x="359.432949" y="291.837141" style="fill: #ff7f0e; stroke: #ff7f0e"/>
     <use xlink:href="#mc2f134193c" x="346.942399" y="294.463186" style="fill: #ff7f0e; stroke: #ff7f0e"/>
     <use xlink:href="#mc2f134193c" x="355.157919" y="254.27675" style="fill: #ff7f0e; stroke: #ff7f0e"/>
     <use xlink:href="#mc2f134193c" x="347.259918" y="294.834545" style="fill: #ff7f0e; stroke: #ff7f0e"/>
     <use xlink:href="#mc2f134193c" x="366.112188" y="274.171025" style="fill: #ff7f0e; stroke: #ff7f0e"/>
     <use xlink:href="#mc2f134193c" x="354.914304" y="279.582268" style="fill: #ff7f0e; stroke: #ff7f0e"/>
     <use xlink:href="#mc2f134193c" x="348.541524" y="271.518455" style="fill: #ff7f0e; stroke: #ff7f0e"/>
     <use xlink:href="#mc2f134193c" x="364.390875" y="208.493391" style="fill: #ff7f0e; stroke: #ff7f0e"/>
     <use xlink:href="#mc2f134193c" x="361.878142" y="255.629561" style="fill: #ff7f0e; stroke: #ff7f0e"/>
     <use xlink:href="#mc2f134193c" x="352.736534" y="244.621395" style="fill: #ff7f0e; stroke: #ff7f0e"/>
     <use xlink:href="#mc2f134193c" x="355.051197" y="214.382097" style="fill: #ff7f0e; stroke: #ff7f0e"/>
     <use xlink:href="#mc2f134193c" x="357.521154" y="219.634185" style="fill: #ff7f0e; stroke: #ff7f0e"/>
     <use xlink:href="#mc2f134193c" x="351.145654" y="166.264476" style="fill: #ff7f0e; stroke: #ff7f0e"/>
     <use xlink:href="#mc2f134193c" x="355.456822" y="189.209207" style="fill: #ff7f0e; stroke: #ff7f0e"/>
     <use xlink:href="#mc2f134193c" x="347.16927" y="210.801127" style="fill: #ff7f0e; stroke: #ff7f0e"/>
     <use xlink:href="#mc2f134193c" x="353.859816" y="275.895195" style="fill: #ff7f0e; stroke: #ff7f0e"/>
     <use xlink:href="#mc2f134193c" x="365.871268" y="86.209913" style="fill: #ff7f0e; stroke: #ff7f0e"/>
     <use xlink:href="#mc2f134193c" x="359.124856" y="76.846341" style="fill: #ff7f0e; stroke: #ff7f0e"/>
     <use xlink:href="#mc2f134193c" x="359.065708" y="115.918697" style="fill: #ff7f0e; stroke: #ff7f0e"/>
     <use xlink:href="#mc2f134193c" x="355.745937" y="202.657737" style="fill: #ff7f0e; stroke: #ff7f0e"/>
     <use xlink:href="#mc2f134193c" x="356.02681" y="220.854368" style="fill: #ff7f0e; stroke: #ff7f0e"/>
     <use xlink:href="#mc2f134193c" x="349.700712" y="251.014089" style="fill: #ff7f0e; stroke: #ff7f0e"/>
     <use xlink:href="#mc2f134193c" x="366.443291" y="229.793528" style="fill: #ff7f0e; stroke: #ff7f0e"/>
     <use xlink:href="#mc2f134193c" x="367.019994" y="197.246494" style="fill: #ff7f0e; stroke: #ff7f0e"/>
     <use xlink:href="#mc2f134193c" x="348.236854" y="129.818164" style="fill: #ff7f0e; stroke: #ff7f0e"/>
     <use xlink:href="#mc2f134193c" x="344.092903" y="214.461674" style="fill: #ff7f0e; stroke: #ff7f0e"/>
     <use xlink:href="#mc2f134193c" x="358.604234" y="249.210341" style="fill: #ff7f0e; stroke: #ff7f0e"/>
     <use xlink:href="#mc2f134193c" x="362.076999" y="210.801127" style="fill: #ff7f0e; stroke: #ff7f0e"/>
     <use xlink:href="#mc2f134193c" x="352.779308" y="234.22332" style="fill: #ff7f0e; stroke: #ff7f0e"/>
     <use xlink:href="#mc2f134193c" x="336.884785" y="234.064166" style="fill: #ff7f0e; stroke: #ff7f0e"/>
     <use xlink:href="#mc2f134193c" x="368.04086" y="109.817786" style="fill: #ff7f0e; stroke: #ff7f0e"/>
     <use xlink:href="#mc2f134193c" x="350.469734" y="206.318284" style="fill: #ff7f0e; stroke: #ff7f0e"/>
     <use xlink:href="#mc2f134193c" x="346.292021" y="177.299168" style="fill: #ff7f0e; stroke: #ff7f0e"/>
     <use xlink:href="#mc2f134193c" x="371.705872" y="176.636025" style="fill: #ff7f0e; stroke: #ff7f0e"/>
     <use xlink:href="#mc2f134193c" x="356.576796" y="242.36671" style="fill: #ff7f0e; stroke: #ff7f0e"/>
     <use xlink:href="#mc2f134193c" x="360.72701" y="196.158941" style="fill: #ff7f0e; stroke: #ff7f0e"/>
     <use xlink:href="#mc2f134193c" x="350.606051" y="288.335749" style="fill: #ff7f0e; stroke: #ff7f0e"/>
     <use xlink:href="#mc2f134193c" x="359.316444" y="287.354298" style="fill: #ff7f0e; stroke: #ff7f0e"/>
     <use xlink:href="#mc2f134193c" x="365.622023" y="288.01744" style="fill: #ff7f0e; stroke: #ff7f0e"/>
     <use xlink:href="#mc2f134193c" x="355.153434" y="286.956412" style="fill: #ff7f0e; stroke: #ff7f0e"/>
     <use xlink:href="#mc2f134193c" x="355.858744" y="284.542574" style="fill: #ff7f0e; stroke: #ff7f0e"/>
     <use xlink:href="#mc2f134193c" x="356.963131" y="288.919314" style="fill: #ff7f0e; stroke: #ff7f0e"/>
     <use xlink:href="#mc2f134193c" x="369.346198" y="281.969581" style="fill: #ff7f0e; stroke: #ff7f0e"/>
     <use xlink:href="#mc2f134193c" x="359.755489" y="289.158046" style="fill: #ff7f0e; stroke: #ff7f0e"/>
     <use xlink:href="#mc2f134193c" x="347.424557" y="280.80245" style="fill: #ff7f0e; stroke: #ff7f0e"/>
     <use xlink:href="#mc2f134193c" x="351.080988" y="291.200525" style="fill: #ff7f0e; stroke: #ff7f0e"/>
     <use xlink:href="#mc2f134193c" x="357.087437" y="288.733634" style="fill: #ff7f0e; stroke: #ff7f0e"/>
     <use xlink:href="#mc2f134193c" x="360.897971" y="282.181786" style="fill: #ff7f0e; stroke: #ff7f0e"/>
     <use xlink:href="#mc2f134193c" x="341.321546" y="287.407349" style="fill: #ff7f0e; stroke: #ff7f0e"/>
     <use xlink:href="#mc2f134193c" x="346.401081" y="278.176406" style="fill: #ff7f0e; stroke: #ff7f0e"/>
     <use xlink:href="#mc2f134193c" x="355.362111" y="202.94952" style="fill: #ff7f0e; stroke: #ff7f0e"/>
     <use xlink:href="#mc2f134193c" x="353.598204" y="217.618232" style="fill: #ff7f0e; stroke: #ff7f0e"/>
     <use xlink:href="#mc2f134193c" x="360.002831" y="234.249846" style="fill: #ff7f0e; stroke: #ff7f0e"/>
     <use xlink:href="#mc2f134193c" x="359.71304" y="198.334048" style="fill: #ff7f0e; stroke: #ff7f0e"/>
     <use xlink:href="#mc2f134193c" x="353.325846" y="246.13336" style="fill: #ff7f0e; stroke: #ff7f0e"/>
     <use xlink:href="#mc2f134193c" x="367.53059" y="235.3374" style="fill: #ff7f0e; stroke: #ff7f0e"/>
     <use xlink:href="#mc2f134193c" x="380.194168" y="220.138174" style="fill: #ff7f0e; stroke: #ff7f0e"/>
     <use xlink:href="#mc2f134193c" x="351.107816" y="217.671283" style="fill: #ff7f0e; stroke: #ff7f0e"/>
     <use xlink:href="#mc2f134193c" x="378.523383" y="248.069736" style="fill: #ff7f0e; stroke: #ff7f0e"/>
     <use xlink:href="#mc2f134193c" x="341.331693" y="241.305682" style="fill: #ff7f0e; stroke: #ff7f0e"/>
     <use xlink:href="#mc2f134193c" x="359.464949" y="176.291191" style="fill: #ff7f0e; stroke: #ff7f0e"/>
     <use xlink:href="#mc2f134193c" x="361.309339" y="184.063221" style="fill: #ff7f0e; stroke: #ff7f0e"/>
     <use xlink:href="#mc2f134193c" x="347.388222" y="133.0543" style="fill: #ff7f0e; stroke: #ff7f0e"/>
     <use xlink:href="#mc2f134193c" x="352.619648" y="148.704463" style="fill: #ff7f0e; stroke: #ff7f0e"/>
     <use xlink:href="#mc2f134193c" x="353.996213" y="184.19585" style="fill: #ff7f0e; stroke: #ff7f0e"/>
     <use xlink:href="#mc2f134193c" x="356.302354" y="26.447511" style="fill: #ff7f0e; stroke: #ff7f0e"/>
     <use xlink:href="#mc2f134193c" x="362.194754" y="28.330835" style="fill: #ff7f0e; stroke: #ff7f0e"/>
     <use xlink:href="#mc2f134193c" x="341.629262" y="91.541579" style="fill: #ff7f0e; stroke: #ff7f0e"/>
     <use xlink:href="#mc2f134193c" x="351.397909" y="209.368739" style="fill: #ff7f0e; stroke: #ff7f0e"/>
     <use xlink:href="#mc2f134193c" x="351.934793" y="188.519539" style="fill: #ff7f0e; stroke: #ff7f0e"/>
     <use xlink:href="#mc2f134193c" x="354.470535" y="140.561073" style="fill: #ff7f0e; stroke: #ff7f0e"/>
     <use xlink:href="#mc2f134193c" x="356.341786" y="255.894818" style="fill: #ff7f0e; stroke: #ff7f0e"/>
     <use xlink:href="#mc2f134193c" x="376.377618" y="180.190469" style="fill: #ff7f0e; stroke: #ff7f0e"/>
     <use xlink:href="#mc2f134193c" x="363.160223" y="158.121086" style="fill: #ff7f0e; stroke: #ff7f0e"/>
     <use xlink:href="#mc2f134193c" x="351.88774" y="172.816324" style="fill: #ff7f0e; stroke: #ff7f0e"/>
     <use xlink:href="#mc2f134193c" x="374.382422" y="77.191175" style="fill: #ff7f0e; stroke: #ff7f0e"/>
     <use xlink:href="#mc2f134193c" x="366.329943" y="60.161676" style="fill: #ff7f0e; stroke: #ff7f0e"/>
     <use xlink:href="#mc2f134193c" x="348.346488" y="135.680344" style="fill: #ff7f0e; stroke: #ff7f0e"/>
     <use xlink:href="#mc2f134193c" x="362.097105" y="170.243331" style="fill: #ff7f0e; stroke: #ff7f0e"/>
     <use xlink:href="#mc2f134193c" x="348.476938" y="196.079364" style="fill: #ff7f0e; stroke: #ff7f0e"/>
     <use xlink:href="#mc2f134193c" x="356.338253" y="179.898686" style="fill: #ff7f0e; stroke: #ff7f0e"/>
     <use xlink:href="#mc2f134193c" x="352.476299" y="57.456054" style="fill: #ff7f0e; stroke: #ff7f0e"/>
     <use xlink:href="#mc2f134193c" x="356.726163" y="24.325455" style="fill: #ff7f0e; stroke: #ff7f0e"/>
     <use xlink:href="#mc2f134193c" x="344.429626" y="64.750622" style="fill: #ff7f0e; stroke: #ff7f0e"/>
     <use xlink:href="#mc2f134193c" x="357.383443" y="132.1259" style="fill: #ff7f0e; stroke: #ff7f0e"/>
     <use xlink:href="#mc2f134193c" x="350.88109" y="102.470167" style="fill: #ff7f0e; stroke: #ff7f0e"/>
    </g>
   </g>
   <g id="patch_5">
    <path d="M 73.19 308.36 
L 73.19 10.8 
" style="fill: none; stroke: #000000; stroke-width: 0.8; stroke-linejoin: miter; stroke-linecap: square"/>
   </g>
   <g id="patch_6">
    <path d="M 450 308.36 
L 450 10.8 
" style="fill: none; stroke: #000000; stroke-width: 0.8; stroke-linejoin: miter; stroke-linecap: square"/>
   </g>
   <g id="patch_7">
    <path d="M 73.19 308.36 
L 450 308.36 
" style="fill: none; stroke: #000000; stroke-width: 0.8; stroke-linejoin: miter; stroke-linecap: square"/>
   </g>
   <g id="patch_8">
    <path d="M 73.19 10.8 
L 450 10.8 
" style="fill: none; stroke: #000000; stroke-width: 0.8; stroke-linejoin: miter; stroke-linecap: square"/>
   </g>
   <g id="text_10">
    <!-- p = 0.629 -->
    <g transform="translate(236.712188 22.618135) scale(0.1 -0.1)">
     <defs>
      <path id="DejaVuSerif-70" d="M 1313 1825 
L 1313 1497 
Q 1313 897 1542 583 
Q 1772 269 2209 269 
Q 2650 269 2876 622 
Q 3103 975 3103 1663 
Q 3103 2353 2876 2703 
Q 2650 3053 2209 3053 
Q 1772 3053 1542 2737 
Q 1313 2422 1313 1825 
z
M 738 2988 
L 184 2988 
L 184 3322 
L 1313 3322 
L 1313 2803 
Q 1481 3116 1742 3264 
Q 2003 3413 2388 3413 
Q 3000 3413 3387 2928 
Q 3775 2444 3775 1663 
Q 3775 881 3387 395 
Q 3000 -91 2388 -91 
Q 2003 -91 1742 57 
Q 1481 206 1313 519 
L 1313 -997 
L 1856 -997 
L 1856 -1331 
L 184 -1331 
L 184 -997 
L 738 -997 
L 738 2988 
z
" transform="scale(0.015625)"/>
      <path id="DejaVuSerif-3d" d="M 678 2894 
L 4684 2894 
L 4684 2394 
L 678 2394 
L 678 2894 
z
M 678 1619 
L 4684 1619 
L 4684 1119 
L 678 1119 
L 678 1619 
z
" transform="scale(0.015625)"/>
      <path id="DejaVuSerif-2e" d="M 603 325 
Q 603 500 722 622 
Q 841 744 1019 744 
Q 1191 744 1312 622 
Q 1434 500 1434 325 
Q 1434 153 1312 31 
Q 1191 -91 1019 -91 
Q 841 -91 722 29 
Q 603 150 603 325 
z
" transform="scale(0.015625)"/>
      <path id="DejaVuSerif-39" d="M 2994 2091 
Q 2784 1856 2512 1740 
Q 2241 1625 1900 1625 
Q 1206 1625 804 2044 
Q 403 2463 403 3188 
Q 403 3897 839 4323 
Q 1275 4750 2003 4750 
Q 2794 4750 3217 4161 
Q 3641 3572 3641 2478 
Q 3641 1253 3137 581 
Q 2634 -91 1722 -91 
Q 1475 -91 1203 -44 
Q 931 3 647 97 
L 647 872 
L 997 872 
Q 1038 556 1241 387 
Q 1444 219 1784 219 
Q 2391 219 2687 676 
Q 2984 1134 2994 2091 
z
M 1978 4441 
Q 1534 4441 1298 4117 
Q 1063 3794 1063 3188 
Q 1063 2581 1298 2256 
Q 1534 1931 1978 1931 
Q 2422 1931 2658 2245 
Q 2894 2559 2894 3150 
Q 2894 3772 2656 4106 
Q 2419 4441 1978 4441 
z
" transform="scale(0.015625)"/>
     </defs>
     <use xlink:href="#DejaVuSerif-70"/>
     <use xlink:href="#DejaVuSerif-20" x="64.013672"/>
     <use xlink:href="#DejaVuSerif-3d" x="95.800781"/>
     <use xlink:href="#DejaVuSerif-20" x="179.589844"/>
     <use xlink:href="#DejaVuSerif-30" x="211.376953"/>
     <use xlink:href="#DejaVuSerif-2e" x="275"/>
     <use xlink:href="#DejaVuSerif-36" x="306.787109"/>
     <use xlink:href="#DejaVuSerif-32" x="370.410156"/>
     <use xlink:href="#DejaVuSerif-39" x="434.033203"/>
    </g>
   </g>
  </g>
 </g>
 <defs>
  <clipPath id="p254641618a">
   <rect x="73.19" y="10.8" width="376.81" height="297.56"/>
  </clipPath>
 </defs>
</svg>
