<?xml version="1.0" encoding="utf-8" standalone="no"?>
<!DOCTYPE svg PUBLIC "-//W3C//DTD SVG 1.1//EN"
  "http://www.w3.org/Graphics/SVG/1.1/DTD/svg11.dtd">
<svg xmlns:xlink="http://www.w3.org/1999/xlink" width="460.8pt" height="345.6pt" viewBox="0 0 460.8 345.6" xmlns="http://www.w3.org/2000/svg" version="1.1">
 <metadata>
  <rdf:RDF xmlns:dc="http://purl.org/dc/elements/1.1/" xmlns:cc="http://creativecommons.org/ns#" xmlns:rdf="http://www.w3.org/1999/02/22-rdf-syntax-ns#">
   <cc:Work>
    <dc:type rdf:resource="http://purl.org/dc/dcmitype/StillImage"/>
    <dc:date>2025-06-02T17:39:39.703815</dc:date>
    <dc:format>image/svg+xml</dc:format>
    <dc:creator>
     <cc:Agent>
      <dc:title>Matplotlib v3.9.2, https://matplotlib.org/</dc:title>
     </cc:Agent>
    </dc:creator>
   </cc:Work>
  </rdf:RDF>
 </metadata>
 <defs>
  <style type="text/css">*{stroke-linejoin: round; stroke-linecap: butt}</style>
 </defs>
 <g id="figure_1">
  <g id="patch_1">
   <path d="M 0 345.6 
L 460.8 345.6 
L 460.8 0 
L 0 0 
z
" style="fill: #ffffff"/>
  </g>
  <g id="axes_1">
   <g id="patch_2">
    <path d="M 73.19 308.36 
L 450 308.36 
L 450 10.8 
L 73.19 10.8 
z
" style="fill: #ffffff"/>
   </g>
   <g id="patch_3">
    <path d="M 110.871 250.928572 
L 223.914 250.928572 
L 223.914 215.176476 
L 110.871 215.176476 
L 110.871 250.928572 
z
" clip-path="url(#p884375faf1)" style="fill: #a1c9f4; stroke: #000000; stroke-linejoin: miter"/>
   </g>
   <g id="line2d_1">
    <path d="M 167.3925 250.928572 
L 167.3925 259.864695 
" clip-path="url(#p884375faf1)" style="fill: none; stroke: #000000; stroke-linecap: square"/>
   </g>
   <g id="line2d_2">
    <path d="M 167.3925 215.176476 
L 167.3925 183.939691 
" clip-path="url(#p884375faf1)" style="fill: none; stroke: #000000; stroke-linecap: square"/>
   </g>
   <g id="line2d_3">
    <path d="M 139.13175 259.864695 
L 195.65325 259.864695 
" clip-path="url(#p884375faf1)" style="fill: none; stroke: #000000; stroke-linecap: square"/>
   </g>
   <g id="line2d_4">
    <path d="M 139.13175 183.939691 
L 195.65325 183.939691 
" clip-path="url(#p884375faf1)" style="fill: none; stroke: #000000; stroke-linecap: square"/>
   </g>
   <g id="patch_4">
    <path d="M 299.276 255.886233 
L 412.319 255.886233 
L 412.319 184.310245 
L 299.276 184.310245 
L 299.276 255.886233 
z
" clip-path="url(#p884375faf1)" style="fill: #ffb482; stroke: #000000; stroke-linejoin: miter"/>
   </g>
   <g id="line2d_5">
    <path d="M 355.7975 255.886233 
L 355.7975 294.834545 
" clip-path="url(#p884375faf1)" style="fill: none; stroke: #000000; stroke-linecap: square"/>
   </g>
   <g id="line2d_6">
    <path d="M 355.7975 184.310245 
L 355.7975 98.089564 
" clip-path="url(#p884375faf1)" style="fill: none; stroke: #000000; stroke-linecap: square"/>
   </g>
   <g id="line2d_7">
    <path d="M 327.53675 294.834545 
L 384.05825 294.834545 
" clip-path="url(#p884375faf1)" style="fill: none; stroke: #000000; stroke-linecap: square"/>
   </g>
   <g id="line2d_8">
    <path d="M 327.53675 98.089564 
L 384.05825 98.089564 
" clip-path="url(#p884375faf1)" style="fill: none; stroke: #000000; stroke-linecap: square"/>
   </g>
   <g id="line2d_9">
    <path d="M 110.871 230.958552 
L 223.914 230.958552 
" clip-path="url(#p884375faf1)" style="fill: none; stroke: #000000"/>
   </g>
   <g id="line2d_10">
    <path d="M 299.276 219.157841 
L 412.319 219.157841 
" clip-path="url(#p884375faf1)" style="fill: none; stroke: #000000"/>
   </g>
   <g id="matplotlib.axis_1">
    <g id="xtick_1">
     <g id="line2d_11">
      <defs>
       <path id="m4cf86a33dd" d="M 0 0 
L 0 3.5 
" style="stroke: #000000; stroke-width: 0.8"/>
      </defs>
      <g>
       <use xlink:href="#m4cf86a33dd" x="167.3925" y="308.36" style="stroke: #000000; stroke-width: 0.8"/>
      </g>
     </g>
     <g id="text_1">
      <!-- Mutants -->
      <g transform="translate(125.140938 330.556875) scale(0.2 -0.2)">
       <defs>
        <path id="DejaVuSerif-4d" d="M 353 0 
L 353 331 
L 947 331 
L 947 4331 
L 319 4331 
L 319 4666 
L 1678 4666 
L 3316 1344 
L 4953 4666 
L 6228 4666 
L 6228 4331 
L 5606 4331 
L 5606 331 
L 6203 331 
L 6203 0 
L 4378 0 
L 4378 331 
L 4972 331 
L 4972 3938 
L 3372 684 
L 2931 684 
L 1331 3938 
L 1331 331 
L 1925 331 
L 1925 0 
L 353 0 
z
" transform="scale(0.015625)"/>
        <path id="DejaVuSerif-75" d="M 2266 3322 
L 3341 3322 
L 3341 331 
L 3884 331 
L 3884 0 
L 2766 0 
L 2766 588 
Q 2606 256 2353 82 
Q 2100 -91 1766 -91 
Q 1213 -91 952 223 
Q 691 538 691 1209 
L 691 2988 
L 172 2988 
L 172 3322 
L 1269 3322 
L 1269 1388 
Q 1269 781 1417 556 
Q 1566 331 1947 331 
Q 2347 331 2556 625 
Q 2766 919 2766 1478 
L 2766 2988 
L 2266 2988 
L 2266 3322 
z
" transform="scale(0.015625)"/>
        <path id="DejaVuSerif-74" d="M 691 2988 
L 184 2988 
L 184 3322 
L 691 3322 
L 691 4353 
L 1269 4353 
L 1269 3322 
L 2350 3322 
L 2350 2988 
L 1269 2988 
L 1269 878 
Q 1269 456 1350 337 
Q 1431 219 1650 219 
Q 1875 219 1978 351 
Q 2081 484 2088 781 
L 2522 781 
Q 2497 328 2275 118 
Q 2053 -91 1600 -91 
Q 1103 -91 897 129 
Q 691 350 691 878 
L 691 2988 
z
" transform="scale(0.015625)"/>
        <path id="DejaVuSerif-61" d="M 2547 1044 
L 2547 1747 
L 1806 1747 
Q 1378 1747 1168 1562 
Q 959 1378 959 997 
Q 959 650 1171 447 
Q 1384 244 1747 244 
Q 2106 244 2326 466 
Q 2547 688 2547 1044 
z
M 3122 2075 
L 3122 331 
L 3634 331 
L 3634 0 
L 2547 0 
L 2547 359 
Q 2356 128 2106 18 
Q 1856 -91 1522 -91 
Q 969 -91 644 203 
Q 319 497 319 997 
Q 319 1513 691 1797 
Q 1063 2081 1741 2081 
L 2547 2081 
L 2547 2309 
Q 2547 2688 2317 2895 
Q 2088 3103 1672 3103 
Q 1328 3103 1125 2947 
Q 922 2791 872 2484 
L 575 2484 
L 575 3156 
Q 875 3284 1158 3348 
Q 1441 3413 1709 3413 
Q 2400 3413 2761 3070 
Q 3122 2728 3122 2075 
z
" transform="scale(0.015625)"/>
        <path id="DejaVuSerif-6e" d="M 263 0 
L 263 331 
L 781 331 
L 781 2988 
L 231 2988 
L 231 3322 
L 1356 3322 
L 1356 2731 
Q 1516 3069 1770 3241 
Q 2025 3413 2363 3413 
Q 2913 3413 3172 3097 
Q 3431 2781 3431 2113 
L 3431 331 
L 3944 331 
L 3944 0 
L 2356 0 
L 2356 331 
L 2853 331 
L 2853 1931 
Q 2853 2541 2703 2767 
Q 2553 2994 2175 2994 
Q 1775 2994 1565 2701 
Q 1356 2409 1356 1850 
L 1356 331 
L 1856 331 
L 1856 0 
L 263 0 
z
" transform="scale(0.015625)"/>
        <path id="DejaVuSerif-73" d="M 359 184 
L 359 959 
L 691 959 
Q 703 588 923 403 
Q 1144 219 1575 219 
Q 1963 219 2166 364 
Q 2369 509 2369 788 
Q 2369 1006 2220 1140 
Q 2072 1275 1594 1428 
L 1178 1569 
Q 750 1706 558 1912 
Q 366 2119 366 2438 
Q 366 2894 700 3153 
Q 1034 3413 1625 3413 
Q 1888 3413 2178 3344 
Q 2469 3275 2778 3144 
L 2778 2419 
L 2447 2419 
Q 2434 2741 2221 2922 
Q 2009 3103 1644 3103 
Q 1281 3103 1095 2975 
Q 909 2847 909 2591 
Q 909 2381 1050 2254 
Q 1191 2128 1613 1997 
L 2069 1856 
Q 2541 1709 2748 1489 
Q 2956 1269 2956 922 
Q 2956 450 2595 179 
Q 2234 -91 1600 -91 
Q 1278 -91 972 -22 
Q 666 47 359 184 
z
" transform="scale(0.015625)"/>
       </defs>
       <use xlink:href="#DejaVuSerif-4d"/>
       <use xlink:href="#DejaVuSerif-75" x="102.392578"/>
       <use xlink:href="#DejaVuSerif-74" x="166.796875"/>
       <use xlink:href="#DejaVuSerif-61" x="206.982422"/>
       <use xlink:href="#DejaVuSerif-6e" x="266.601562"/>
       <use xlink:href="#DejaVuSerif-74" x="331.005859"/>
       <use xlink:href="#DejaVuSerif-73" x="371.191406"/>
      </g>
     </g>
    </g>
    <g id="xtick_2">
     <g id="line2d_12">
      <g>
       <use xlink:href="#m4cf86a33dd" x="355.7975" y="308.36" style="stroke: #000000; stroke-width: 0.8"/>
      </g>
     </g>
     <g id="text_2">
      <!-- Non-members -->
      <g transform="translate(284.09125 330.556875) scale(0.2 -0.2)">
       <defs>
        <path id="DejaVuSerif-4e" d="M 313 0 
L 313 331 
L 941 331 
L 941 4331 
L 313 4331 
L 313 4666 
L 1509 4666 
L 4306 984 
L 4306 4331 
L 3681 4331 
L 3681 4666 
L 5319 4666 
L 5319 4331 
L 4691 4331 
L 4691 -91 
L 4313 -91 
L 1325 3841 
L 1325 331 
L 1953 331 
L 1953 0 
L 313 0 
z
" transform="scale(0.015625)"/>
        <path id="DejaVuSerif-6f" d="M 1925 219 
Q 2388 219 2623 584 
Q 2859 950 2859 1663 
Q 2859 2375 2623 2739 
Q 2388 3103 1925 3103 
Q 1463 3103 1227 2739 
Q 991 2375 991 1663 
Q 991 950 1228 584 
Q 1466 219 1925 219 
z
M 1925 -91 
Q 1200 -91 759 389 
Q 319 869 319 1663 
Q 319 2456 758 2934 
Q 1197 3413 1925 3413 
Q 2653 3413 3092 2934 
Q 3531 2456 3531 1663 
Q 3531 869 3092 389 
Q 2653 -91 1925 -91 
z
" transform="scale(0.015625)"/>
        <path id="DejaVuSerif-2d" d="M 281 1959 
L 1881 1959 
L 1881 1472 
L 281 1472 
L 281 1959 
z
" transform="scale(0.015625)"/>
        <path id="DejaVuSerif-6d" d="M 3316 2675 
Q 3481 3041 3739 3227 
Q 3997 3413 4341 3413 
Q 4863 3413 5119 3089 
Q 5375 2766 5375 2113 
L 5375 331 
L 5894 331 
L 5894 0 
L 4300 0 
L 4300 331 
L 4800 331 
L 4800 2047 
Q 4800 2556 4650 2772 
Q 4500 2988 4153 2988 
Q 3769 2988 3567 2697 
Q 3366 2406 3366 1850 
L 3366 331 
L 3866 331 
L 3866 0 
L 2291 0 
L 2291 331 
L 2791 331 
L 2791 2069 
Q 2791 2566 2641 2777 
Q 2491 2988 2144 2988 
Q 1759 2988 1557 2697 
Q 1356 2406 1356 1850 
L 1356 331 
L 1856 331 
L 1856 0 
L 263 0 
L 263 331 
L 781 331 
L 781 2994 
L 231 2994 
L 231 3322 
L 1356 3322 
L 1356 2731 
Q 1516 3063 1762 3238 
Q 2009 3413 2322 3413 
Q 2709 3413 2968 3220 
Q 3228 3028 3316 2675 
z
" transform="scale(0.015625)"/>
        <path id="DejaVuSerif-65" d="M 3469 1600 
L 991 1600 
L 991 1575 
Q 991 903 1244 561 
Q 1497 219 1991 219 
Q 2369 219 2611 417 
Q 2853 616 2950 1006 
L 3413 1006 
Q 3275 459 2904 184 
Q 2534 -91 1931 -91 
Q 1203 -91 761 389 
Q 319 869 319 1663 
Q 319 2450 753 2931 
Q 1188 3413 1894 3413 
Q 2647 3413 3050 2948 
Q 3453 2484 3469 1600 
z
M 2791 1931 
Q 2772 2513 2545 2808 
Q 2319 3103 1894 3103 
Q 1497 3103 1269 2806 
Q 1041 2509 991 1931 
L 2791 1931 
z
" transform="scale(0.015625)"/>
        <path id="DejaVuSerif-62" d="M 738 331 
L 738 4531 
L 184 4531 
L 184 4863 
L 1313 4863 
L 1313 2803 
Q 1481 3116 1742 3264 
Q 2003 3413 2388 3413 
Q 3000 3413 3387 2928 
Q 3775 2444 3775 1663 
Q 3775 881 3387 395 
Q 3000 -91 2388 -91 
Q 2003 -91 1742 57 
Q 1481 206 1313 519 
L 1313 0 
L 184 0 
L 184 331 
L 738 331 
z
M 1313 1497 
Q 1313 897 1542 583 
Q 1772 269 2209 269 
Q 2650 269 2876 622 
Q 3103 975 3103 1663 
Q 3103 2353 2876 2703 
Q 2650 3053 2209 3053 
Q 1772 3053 1542 2737 
Q 1313 2422 1313 1825 
L 1313 1497 
z
" transform="scale(0.015625)"/>
        <path id="DejaVuSerif-72" d="M 3059 3328 
L 3059 2497 
L 2728 2497 
Q 2713 2744 2591 2866 
Q 2469 2988 2234 2988 
Q 1809 2988 1582 2694 
Q 1356 2400 1356 1850 
L 1356 331 
L 2022 331 
L 2022 0 
L 263 0 
L 263 331 
L 781 331 
L 781 2994 
L 231 2994 
L 231 3322 
L 1356 3322 
L 1356 2731 
Q 1525 3078 1790 3245 
Q 2056 3413 2438 3413 
Q 2578 3413 2733 3391 
Q 2888 3369 3059 3328 
z
" transform="scale(0.015625)"/>
       </defs>
       <use xlink:href="#DejaVuSerif-4e"/>
       <use xlink:href="#DejaVuSerif-6f" x="87.5"/>
       <use xlink:href="#DejaVuSerif-6e" x="147.705078"/>
       <use xlink:href="#DejaVuSerif-2d" x="212.109375"/>
       <use xlink:href="#DejaVuSerif-6d" x="245.898438"/>
       <use xlink:href="#DejaVuSerif-65" x="340.722656"/>
       <use xlink:href="#DejaVuSerif-6d" x="399.902344"/>
       <use xlink:href="#DejaVuSerif-62" x="494.726562"/>
       <use xlink:href="#DejaVuSerif-65" x="558.740234"/>
       <use xlink:href="#DejaVuSerif-72" x="617.919922"/>
       <use xlink:href="#DejaVuSerif-73" x="665.722656"/>
      </g>
     </g>
    </g>
   </g>
   <g id="matplotlib.axis_2">
    <g id="ytick_1">
     <g id="line2d_13">
      <defs>
       <path id="mb5aaf25a10" d="M 0 0 
L -3.5 0 
" style="stroke: #000000; stroke-width: 0.8"/>
      </defs>
      <g>
       <use xlink:href="#mb5aaf25a10" x="73.19" y="297.078953" style="stroke: #000000; stroke-width: 0.8"/>
      </g>
     </g>
     <g id="text_3">
      <!-- 0 -->
      <g transform="translate(59.8275 300.878171) scale(0.1 -0.1)">
       <defs>
        <path id="DejaVuSerif-30" d="M 2034 219 
Q 2513 219 2750 744 
Q 2988 1269 2988 2328 
Q 2988 3391 2750 3916 
Q 2513 4441 2034 4441 
Q 1556 4441 1318 3916 
Q 1081 3391 1081 2328 
Q 1081 1269 1318 744 
Q 1556 219 2034 219 
z
M 2034 -91 
Q 1275 -91 848 546 
Q 422 1184 422 2328 
Q 422 3475 848 4112 
Q 1275 4750 2034 4750 
Q 2797 4750 3222 4112 
Q 3647 3475 3647 2328 
Q 3647 1184 3222 546 
Q 2797 -91 2034 -91 
z
" transform="scale(0.015625)"/>
       </defs>
       <use xlink:href="#DejaVuSerif-30"/>
      </g>
     </g>
    </g>
    <g id="ytick_2">
     <g id="line2d_14">
      <g>
       <use xlink:href="#mb5aaf25a10" x="73.19" y="253.76921" style="stroke: #000000; stroke-width: 0.8"/>
      </g>
     </g>
     <g id="text_4">
      <!-- 2000 -->
      <g transform="translate(40.74 257.568429) scale(0.1 -0.1)">
       <defs>
        <path id="DejaVuSerif-32" d="M 819 3553 
L 469 3553 
L 469 4384 
Q 803 4563 1142 4656 
Q 1481 4750 1806 4750 
Q 2534 4750 2956 4397 
Q 3378 4044 3378 3438 
Q 3378 2753 2422 1800 
Q 2347 1728 2309 1691 
L 1131 513 
L 3078 513 
L 3078 1088 
L 3444 1088 
L 3444 0 
L 434 0 
L 434 341 
L 1850 1753 
Q 2319 2222 2519 2614 
Q 2719 3006 2719 3438 
Q 2719 3909 2473 4175 
Q 2228 4441 1797 4441 
Q 1350 4441 1106 4219 
Q 863 3997 819 3553 
z
" transform="scale(0.015625)"/>
       </defs>
       <use xlink:href="#DejaVuSerif-32"/>
       <use xlink:href="#DejaVuSerif-30" x="63.623047"/>
       <use xlink:href="#DejaVuSerif-30" x="127.246094"/>
       <use xlink:href="#DejaVuSerif-30" x="190.869141"/>
      </g>
     </g>
    </g>
    <g id="ytick_3">
     <g id="line2d_15">
      <g>
       <use xlink:href="#mb5aaf25a10" x="73.19" y="210.459467" style="stroke: #000000; stroke-width: 0.8"/>
      </g>
     </g>
     <g id="text_5">
      <!-- 4000 -->
      <g transform="translate(40.74 214.258686) scale(0.1 -0.1)">
       <defs>
        <path id="DejaVuSerif-34" d="M 2234 1581 
L 2234 4063 
L 641 1581 
L 2234 1581 
z
M 3609 0 
L 1484 0 
L 1484 331 
L 2234 331 
L 2234 1247 
L 197 1247 
L 197 1588 
L 2241 4750 
L 2859 4750 
L 2859 1581 
L 3750 1581 
L 3750 1247 
L 2859 1247 
L 2859 331 
L 3609 331 
L 3609 0 
z
" transform="scale(0.015625)"/>
       </defs>
       <use xlink:href="#DejaVuSerif-34"/>
       <use xlink:href="#DejaVuSerif-30" x="63.623047"/>
       <use xlink:href="#DejaVuSerif-30" x="127.246094"/>
       <use xlink:href="#DejaVuSerif-30" x="190.869141"/>
      </g>
     </g>
    </g>
    <g id="ytick_4">
     <g id="line2d_16">
      <g>
       <use xlink:href="#mb5aaf25a10" x="73.19" y="167.149725" style="stroke: #000000; stroke-width: 0.8"/>
      </g>
     </g>
     <g id="text_6">
      <!-- 6000 -->
      <g transform="translate(40.74 170.948944) scale(0.1 -0.1)">
       <defs>
        <path id="DejaVuSerif-36" d="M 2094 219 
Q 2534 219 2771 542 
Q 3009 866 3009 1472 
Q 3009 2078 2771 2401 
Q 2534 2725 2094 2725 
Q 1647 2725 1412 2412 
Q 1178 2100 1178 1509 
Q 1178 888 1415 553 
Q 1653 219 2094 219 
z
M 1075 2569 
Q 1288 2803 1556 2918 
Q 1825 3034 2163 3034 
Q 2859 3034 3264 2615 
Q 3669 2197 3669 1472 
Q 3669 763 3233 336 
Q 2797 -91 2069 -91 
Q 1278 -91 853 498 
Q 428 1088 428 2181 
Q 428 3406 931 4078 
Q 1434 4750 2350 4750 
Q 2597 4750 2869 4703 
Q 3141 4656 3425 4563 
L 3425 3794 
L 3072 3794 
Q 3034 4109 2831 4275 
Q 2628 4441 2284 4441 
Q 1678 4441 1381 3981 
Q 1084 3522 1075 2569 
z
" transform="scale(0.015625)"/>
       </defs>
       <use xlink:href="#DejaVuSerif-36"/>
       <use xlink:href="#DejaVuSerif-30" x="63.623047"/>
       <use xlink:href="#DejaVuSerif-30" x="127.246094"/>
       <use xlink:href="#DejaVuSerif-30" x="190.869141"/>
      </g>
     </g>
    </g>
    <g id="ytick_5">
     <g id="line2d_17">
      <g>
       <use xlink:href="#mb5aaf25a10" x="73.19" y="123.839982" style="stroke: #000000; stroke-width: 0.8"/>
      </g>
     </g>
     <g id="text_7">
      <!-- 8000 -->
      <g transform="translate(40.74 127.639201) scale(0.1 -0.1)">
       <defs>
        <path id="DejaVuSerif-38" d="M 2981 1275 
Q 2981 1775 2732 2051 
Q 2484 2328 2034 2328 
Q 1584 2328 1336 2051 
Q 1088 1775 1088 1275 
Q 1088 772 1336 495 
Q 1584 219 2034 219 
Q 2484 219 2732 495 
Q 2981 772 2981 1275 
z
M 2853 3541 
Q 2853 3966 2637 4203 
Q 2422 4441 2034 4441 
Q 1650 4441 1433 4203 
Q 1216 3966 1216 3541 
Q 1216 3113 1433 2875 
Q 1650 2638 2034 2638 
Q 2422 2638 2637 2875 
Q 2853 3113 2853 3541 
z
M 2516 2484 
Q 3047 2413 3344 2092 
Q 3641 1772 3641 1275 
Q 3641 619 3225 264 
Q 2809 -91 2034 -91 
Q 1263 -91 845 264 
Q 428 619 428 1275 
Q 428 1772 725 2092 
Q 1022 2413 1556 2484 
Q 1084 2569 832 2842 
Q 581 3116 581 3541 
Q 581 4103 968 4426 
Q 1356 4750 2034 4750 
Q 2713 4750 3100 4426 
Q 3488 4103 3488 3541 
Q 3488 3116 3236 2842 
Q 2984 2569 2516 2484 
z
" transform="scale(0.015625)"/>
       </defs>
       <use xlink:href="#DejaVuSerif-38"/>
       <use xlink:href="#DejaVuSerif-30" x="63.623047"/>
       <use xlink:href="#DejaVuSerif-30" x="127.246094"/>
       <use xlink:href="#DejaVuSerif-30" x="190.869141"/>
      </g>
     </g>
    </g>
    <g id="ytick_6">
     <g id="line2d_18">
      <g>
       <use xlink:href="#mb5aaf25a10" x="73.19" y="80.53024" style="stroke: #000000; stroke-width: 0.8"/>
      </g>
     </g>
     <g id="text_8">
      <!-- 10000 -->
      <g transform="translate(34.3775 84.329459) scale(0.1 -0.1)">
       <defs>
        <path id="DejaVuSerif-31" d="M 909 0 
L 909 331 
L 1722 331 
L 1722 4213 
L 781 3603 
L 781 4013 
L 1919 4750 
L 2350 4750 
L 2350 331 
L 3163 331 
L 3163 0 
L 909 0 
z
" transform="scale(0.015625)"/>
       </defs>
       <use xlink:href="#DejaVuSerif-31"/>
       <use xlink:href="#DejaVuSerif-30" x="63.623047"/>
       <use xlink:href="#DejaVuSerif-30" x="127.246094"/>
       <use xlink:href="#DejaVuSerif-30" x="190.869141"/>
       <use xlink:href="#DejaVuSerif-30" x="254.492188"/>
      </g>
     </g>
    </g>
    <g id="ytick_7">
     <g id="line2d_19">
      <g>
       <use xlink:href="#mb5aaf25a10" x="73.19" y="37.220497" style="stroke: #000000; stroke-width: 0.8"/>
      </g>
     </g>
     <g id="text_9">
      <!-- 12000 -->
      <g transform="translate(34.3775 41.019716) scale(0.1 -0.1)">
       <use xlink:href="#DejaVuSerif-31"/>
       <use xlink:href="#DejaVuSerif-32" x="63.623047"/>
       <use xlink:href="#DejaVuSerif-30" x="127.246094"/>
       <use xlink:href="#DejaVuSerif-30" x="190.869141"/>
       <use xlink:href="#DejaVuSerif-30" x="254.492188"/>
      </g>
     </g>
    </g>
    <g id="text_10">
     <!-- Time spent in arena -->
     <g transform="translate(26.218125 260.99875) rotate(-90) scale(0.2 -0.2)">
      <defs>
       <path id="DejaVuSerif-54" d="M 1222 0 
L 1222 331 
L 1819 331 
L 1819 4294 
L 447 4294 
L 447 3566 
L 63 3566 
L 63 4666 
L 4206 4666 
L 4206 3566 
L 3822 3566 
L 3822 4294 
L 2450 4294 
L 2450 331 
L 3047 331 
L 3047 0 
L 1222 0 
z
" transform="scale(0.015625)"/>
       <path id="DejaVuSerif-69" d="M 622 4353 
Q 622 4497 726 4603 
Q 831 4709 978 4709 
Q 1122 4709 1226 4603 
Q 1331 4497 1331 4353 
Q 1331 4206 1228 4103 
Q 1125 4000 978 4000 
Q 831 4000 726 4103 
Q 622 4206 622 4353 
z
M 1356 331 
L 1900 331 
L 1900 0 
L 231 0 
L 231 331 
L 781 331 
L 781 2988 
L 231 2988 
L 231 3322 
L 1356 3322 
L 1356 331 
z
" transform="scale(0.015625)"/>
       <path id="DejaVuSerif-20" transform="scale(0.015625)"/>
       <path id="DejaVuSerif-70" d="M 1313 1825 
L 1313 1497 
Q 1313 897 1542 583 
Q 1772 269 2209 269 
Q 2650 269 2876 622 
Q 3103 975 3103 1663 
Q 3103 2353 2876 2703 
Q 2650 3053 2209 3053 
Q 1772 3053 1542 2737 
Q 1313 2422 1313 1825 
z
M 738 2988 
L 184 2988 
L 184 3322 
L 1313 3322 
L 1313 2803 
Q 1481 3116 1742 3264 
Q 2003 3413 2388 3413 
Q 3000 3413 3387 2928 
Q 3775 2444 3775 1663 
Q 3775 881 3387 395 
Q 3000 -91 2388 -91 
Q 2003 -91 1742 57 
Q 1481 206 1313 519 
L 1313 -997 
L 1856 -997 
L 1856 -1331 
L 184 -1331 
L 184 -997 
L 738 -997 
L 738 2988 
z
" transform="scale(0.015625)"/>
      </defs>
      <use xlink:href="#DejaVuSerif-54"/>
      <use xlink:href="#DejaVuSerif-69" x="66.699219"/>
      <use xlink:href="#DejaVuSerif-6d" x="98.681641"/>
      <use xlink:href="#DejaVuSerif-65" x="193.505859"/>
      <use xlink:href="#DejaVuSerif-20" x="252.685547"/>
      <use xlink:href="#DejaVuSerif-73" x="284.472656"/>
      <use xlink:href="#DejaVuSerif-70" x="335.791016"/>
      <use xlink:href="#DejaVuSerif-65" x="399.804688"/>
      <use xlink:href="#DejaVuSerif-6e" x="458.984375"/>
      <use xlink:href="#DejaVuSerif-74" x="523.388672"/>
      <use xlink:href="#DejaVuSerif-20" x="563.574219"/>
      <use xlink:href="#DejaVuSerif-69" x="595.361328"/>
      <use xlink:href="#DejaVuSerif-6e" x="627.34375"/>
      <use xlink:href="#DejaVuSerif-20" x="691.748047"/>
      <use xlink:href="#DejaVuSerif-61" x="723.535156"/>
      <use xlink:href="#DejaVuSerif-72" x="783.154297"/>
      <use xlink:href="#DejaVuSerif-65" x="830.957031"/>
      <use xlink:href="#DejaVuSerif-6e" x="890.136719"/>
      <use xlink:href="#DejaVuSerif-61" x="954.541016"/>
     </g>
    </g>
   </g>
   <g id="line2d_20">
    <path d="M 167.3925 77.431341 
L 167.3925 73.102952 
L 355.7975 73.102952 
L 355.7975 77.431341 
" clip-path="url(#p884375faf1)" style="fill: none; stroke: #000000; stroke-linecap: square"/>
   </g>
   <g id="PathCollection_1">
    <defs>
     <path id="m99441648cd" d="M 0 3.162278 
C 0.838646 3.162278 1.643056 2.82908 2.236068 2.236068 
C 2.82908 1.643056 3.162278 0.838646 3.162278 0 
C 3.162278 -0.838646 2.82908 -1.643056 2.236068 -2.236068 
C 1.643056 -2.82908 0.838646 -3.162278 0 -3.162278 
C -0.838646 -3.162278 -1.643056 -2.82908 -2.236068 -2.236068 
C -2.82908 -1.643056 -3.162278 -0.838646 -3.162278 0 
C -3.162278 0.838646 -2.82908 1.643056 -2.236068 2.236068 
C -1.643056 2.82908 -0.838646 3.162278 0 3.162278 
z
" style="stroke: #1f77b4"/>
    </defs>
    <g clip-path="url(#p884375faf1)">
     <use xlink:href="#m99441648cd" x="182.430321" y="100.731636" style="fill: #1f77b4; stroke: #1f77b4"/>
     <use xlink:href="#m99441648cd" x="174.17815" y="224.647595" style="fill: #1f77b4; stroke: #1f77b4"/>
     <use xlink:href="#m99441648cd" x="177.702643" y="254.524003" style="fill: #1f77b4; stroke: #1f77b4"/>
     <use xlink:href="#m99441648cd" x="166.719042" y="215.176476" style="fill: #1f77b4; stroke: #1f77b4"/>
     <use xlink:href="#m99441648cd" x="153.590944" y="183.939691" style="fill: #1f77b4; stroke: #1f77b4"/>
     <use xlink:href="#m99441648cd" x="173.411101" y="227.249211" style="fill: #1f77b4; stroke: #1f77b4"/>
     <use xlink:href="#m99441648cd" x="169.82375" y="234.667892" style="fill: #1f77b4; stroke: #1f77b4"/>
     <use xlink:href="#m99441648cd" x="162.514534" y="133.362506" style="fill: #1f77b4; stroke: #1f77b4"/>
     <use xlink:href="#m99441648cd" x="178.968605" y="259.864695" style="fill: #1f77b4; stroke: #1f77b4"/>
     <use xlink:href="#m99441648cd" x="152.383451" y="253.880612" style="fill: #1f77b4; stroke: #1f77b4"/>
     <use xlink:href="#m99441648cd" x="171.264252" y="240.968414" style="fill: #1f77b4; stroke: #1f77b4"/>
     <use xlink:href="#m99441648cd" x="157.862369" y="258.195363" style="fill: #1f77b4; stroke: #1f77b4"/>
     <use xlink:href="#m99441648cd" x="168.52977" y="227.168005" style="fill: #1f77b4; stroke: #1f77b4"/>
     <use xlink:href="#m99441648cd" x="178.073994" y="236.533232" style="fill: #1f77b4; stroke: #1f77b4"/>
     <use xlink:href="#m99441648cd" x="173.474945" y="84.524168" style="fill: #1f77b4; stroke: #1f77b4"/>
     <use xlink:href="#m99441648cd" x="152.491958" y="216.567252" style="fill: #1f77b4; stroke: #1f77b4"/>
     <use xlink:href="#m99441648cd" x="162.173609" y="246.451548" style="fill: #1f77b4; stroke: #1f77b4"/>
     <use xlink:href="#m99441648cd" x="161.475682" y="250.928572" style="fill: #1f77b4; stroke: #1f77b4"/>
     <use xlink:href="#m99441648cd" x="172.099672" y="100.731636" style="fill: #1f77b4; stroke: #1f77b4"/>
     <use xlink:href="#m99441648cd" x="159.72785" y="224.647595" style="fill: #1f77b4; stroke: #1f77b4"/>
     <use xlink:href="#m99441648cd" x="159.735572" y="254.524003" style="fill: #1f77b4; stroke: #1f77b4"/>
     <use xlink:href="#m99441648cd" x="175.716543" y="215.176476" style="fill: #1f77b4; stroke: #1f77b4"/>
     <use xlink:href="#m99441648cd" x="175.097366" y="183.939691" style="fill: #1f77b4; stroke: #1f77b4"/>
     <use xlink:href="#m99441648cd" x="156.549354" y="227.249211" style="fill: #1f77b4; stroke: #1f77b4"/>
     <use xlink:href="#m99441648cd" x="153.004171" y="234.667892" style="fill: #1f77b4; stroke: #1f77b4"/>
     <use xlink:href="#m99441648cd" x="156.187324" y="133.362506" style="fill: #1f77b4; stroke: #1f77b4"/>
     <use xlink:href="#m99441648cd" x="174.780146" y="259.864695" style="fill: #1f77b4; stroke: #1f77b4"/>
     <use xlink:href="#m99441648cd" x="176.823718" y="253.880612" style="fill: #1f77b4; stroke: #1f77b4"/>
     <use xlink:href="#m99441648cd" x="163.811696" y="240.968414" style="fill: #1f77b4; stroke: #1f77b4"/>
     <use xlink:href="#m99441648cd" x="168.762903" y="258.195363" style="fill: #1f77b4; stroke: #1f77b4"/>
     <use xlink:href="#m99441648cd" x="151.663433" y="227.168005" style="fill: #1f77b4; stroke: #1f77b4"/>
     <use xlink:href="#m99441648cd" x="160.587299" y="236.533232" style="fill: #1f77b4; stroke: #1f77b4"/>
     <use xlink:href="#m99441648cd" x="164.08278" y="84.524168" style="fill: #1f77b4; stroke: #1f77b4"/>
     <use xlink:href="#m99441648cd" x="156.242199" y="216.567252" style="fill: #1f77b4; stroke: #1f77b4"/>
     <use xlink:href="#m99441648cd" x="157.633111" y="246.451548" style="fill: #1f77b4; stroke: #1f77b4"/>
     <use xlink:href="#m99441648cd" x="171.218229" y="250.928572" style="fill: #1f77b4; stroke: #1f77b4"/>
    </g>
   </g>
   <g id="PathCollection_2">
    <defs>
     <path id="m046cad4f18" d="M 0 3.162278 
C 0.838646 3.162278 1.643056 2.82908 2.236068 2.236068 
C 2.82908 1.643056 3.162278 0.838646 3.162278 0 
C 3.162278 -0.838646 2.82908 -1.643056 2.236068 -2.236068 
C 1.643056 -2.82908 0.838646 -3.162278 0 -3.162278 
C -0.838646 -3.162278 -1.643056 -2.82908 -2.236068 -2.236068 
C -2.82908 -1.643056 -3.162278 -0.838646 -3.162278 0 
C -3.162278 0.838646 -2.82908 1.643056 -2.236068 2.236068 
C -1.643056 2.82908 -0.838646 3.162278 0 3.162278 
z
" style="stroke: #ff7f0e"/>
    </defs>
    <g clip-path="url(#p884375faf1)">
     <use xlink:href="#m046cad4f18" x="361.112483" y="184.762257" style="fill: #ff7f0e; stroke: #ff7f0e"/>
     <use xlink:href="#m046cad4f18" x="366.989521" y="213.648604" style="fill: #ff7f0e; stroke: #ff7f0e"/>
     <use xlink:href="#m046cad4f18" x="375.887542" y="246.696681" style="fill: #ff7f0e; stroke: #ff7f0e"/>
     <use xlink:href="#m046cad4f18" x="363.259795" y="193.053089" style="fill: #ff7f0e; stroke: #ff7f0e"/>
     <use xlink:href="#m046cad4f18" x="362.034743" y="226.42623" style="fill: #ff7f0e; stroke: #ff7f0e"/>
     <use xlink:href="#m046cad4f18" x="363.355436" y="222.618052" style="fill: #ff7f0e; stroke: #ff7f0e"/>
     <use xlink:href="#m046cad4f18" x="356.850557" y="195.057657" style="fill: #ff7f0e; stroke: #ff7f0e"/>
     <use xlink:href="#m046cad4f18" x="349.115443" y="175.114579" style="fill: #ff7f0e; stroke: #ff7f0e"/>
     <use xlink:href="#m046cad4f18" x="367.888636" y="186.563702" style="fill: #ff7f0e; stroke: #ff7f0e"/>
     <use xlink:href="#m046cad4f18" x="353.885698" y="267.221745" style="fill: #ff7f0e; stroke: #ff7f0e"/>
     <use xlink:href="#m046cad4f18" x="351.100976" y="211.041214" style="fill: #ff7f0e; stroke: #ff7f0e"/>
     <use xlink:href="#m046cad4f18" x="353.495732" y="274.538541" style="fill: #ff7f0e; stroke: #ff7f0e"/>
     <use xlink:href="#m046cad4f18" x="345.266112" y="231.917279" style="fill: #ff7f0e; stroke: #ff7f0e"/>
     <use xlink:href="#m046cad4f18" x="364.667521" y="98.089564" style="fill: #ff7f0e; stroke: #ff7f0e"/>
     <use xlink:href="#m046cad4f18" x="362.736322" y="240.265565" style="fill: #ff7f0e; stroke: #ff7f0e"/>
     <use xlink:href="#m046cad4f18" x="365.951644" y="118.527987" style="fill: #ff7f0e; stroke: #ff7f0e"/>
     <use xlink:href="#m046cad4f18" x="357.237594" y="280.969838" style="fill: #ff7f0e; stroke: #ff7f0e"/>
     <use xlink:href="#m046cad4f18" x="356.733261" y="187.298861" style="fill: #ff7f0e; stroke: #ff7f0e"/>
     <use xlink:href="#m046cad4f18" x="367.028382" y="222.482974" style="fill: #ff7f0e; stroke: #ff7f0e"/>
     <use xlink:href="#m046cad4f18" x="364.227362" y="258.340276" style="fill: #ff7f0e; stroke: #ff7f0e"/>
     <use xlink:href="#m046cad4f18" x="350.469814" y="219.157841" style="fill: #ff7f0e; stroke: #ff7f0e"/>
     <use xlink:href="#m046cad4f18" x="352.411973" y="203.984161" style="fill: #ff7f0e; stroke: #ff7f0e"/>
     <use xlink:href="#m046cad4f18" x="364.37077" y="231.995959" style="fill: #ff7f0e; stroke: #ff7f0e"/>
     <use xlink:href="#m046cad4f18" x="351.430532" y="263.486782" style="fill: #ff7f0e; stroke: #ff7f0e"/>
     <use xlink:href="#m046cad4f18" x="339.377537" y="24.815865" style="fill: #ff7f0e; stroke: #ff7f0e"/>
     <use xlink:href="#m046cad4f18" x="357.816962" y="176.212546" style="fill: #ff7f0e; stroke: #ff7f0e"/>
     <use xlink:href="#m046cad4f18" x="363.039095" y="194.343861" style="fill: #ff7f0e; stroke: #ff7f0e"/>
     <use xlink:href="#m046cad4f18" x="349.270237" y="184.159575" style="fill: #ff7f0e; stroke: #ff7f0e"/>
     <use xlink:href="#m046cad4f18" x="368.162181" y="164.917262" style="fill: #ff7f0e; stroke: #ff7f0e"/>
     <use xlink:href="#m046cad4f18" x="369.015259" y="291.684905" style="fill: #ff7f0e; stroke: #ff7f0e"/>
     <use xlink:href="#m046cad4f18" x="353.290432" y="294.834545" style="fill: #ff7f0e; stroke: #ff7f0e"/>
     <use xlink:href="#m046cad4f18" x="361.972873" y="290.438546" style="fill: #ff7f0e; stroke: #ff7f0e"/>
     <use xlink:href="#m046cad4f18" x="351.473443" y="242.46633" style="fill: #ff7f0e; stroke: #ff7f0e"/>
     <use xlink:href="#m046cad4f18" x="346.215203" y="272.627776" style="fill: #ff7f0e; stroke: #ff7f0e"/>
     <use xlink:href="#m046cad4f18" x="366.260083" y="269.023864" style="fill: #ff7f0e; stroke: #ff7f0e"/>
     <use xlink:href="#m046cad4f18" x="347.322511" y="251.346236" style="fill: #ff7f0e; stroke: #ff7f0e"/>
     <use xlink:href="#m046cad4f18" x="355.906373" y="249.566618" style="fill: #ff7f0e; stroke: #ff7f0e"/>
     <use xlink:href="#m046cad4f18" x="360.332742" y="225.257118" style="fill: #ff7f0e; stroke: #ff7f0e"/>
     <use xlink:href="#m046cad4f18" x="363.559037" y="264.2876" style="fill: #ff7f0e; stroke: #ff7f0e"/>
     <use xlink:href="#m046cad4f18" x="347.888733" y="273.724019" style="fill: #ff7f0e; stroke: #ff7f0e"/>
     <use xlink:href="#m046cad4f18" x="358.624147" y="221.955557" style="fill: #ff7f0e; stroke: #ff7f0e"/>
     <use xlink:href="#m046cad4f18" x="373.773593" y="174.924931" style="fill: #ff7f0e; stroke: #ff7f0e"/>
     <use xlink:href="#m046cad4f18" x="364.70197" y="280.978893" style="fill: #ff7f0e; stroke: #ff7f0e"/>
     <use xlink:href="#m046cad4f18" x="352.44689" y="156.006802" style="fill: #ff7f0e; stroke: #ff7f0e"/>
     <use xlink:href="#m046cad4f18" x="365.576637" y="150.924404" style="fill: #ff7f0e; stroke: #ff7f0e"/>
     <use xlink:href="#m046cad4f18" x="355.865145" y="215.484745" style="fill: #ff7f0e; stroke: #ff7f0e"/>
     <use xlink:href="#m046cad4f18" x="354.428575" y="132.878281" style="fill: #ff7f0e; stroke: #ff7f0e"/>
     <use xlink:href="#m046cad4f18" x="358.672738" y="241.331874" style="fill: #ff7f0e; stroke: #ff7f0e"/>
     <use xlink:href="#m046cad4f18" x="354.497997" y="257.399566" style="fill: #ff7f0e; stroke: #ff7f0e"/>
     <use xlink:href="#m046cad4f18" x="353.175995" y="165.49563" style="fill: #ff7f0e; stroke: #ff7f0e"/>
     <use xlink:href="#m046cad4f18" x="368.638808" y="211.042657" style="fill: #ff7f0e; stroke: #ff7f0e"/>
     <use xlink:href="#m046cad4f18" x="353.732357" y="218.724362" style="fill: #ff7f0e; stroke: #ff7f0e"/>
     <use xlink:href="#m046cad4f18" x="343.527775" y="24.325455" style="fill: #ff7f0e; stroke: #ff7f0e"/>
     <use xlink:href="#m046cad4f18" x="360.097943" y="195.376946" style="fill: #ff7f0e; stroke: #ff7f0e"/>
     <use xlink:href="#m046cad4f18" x="348.856362" y="162.103947" style="fill: #ff7f0e; stroke: #ff7f0e"/>
     <use xlink:href="#m046cad4f18" x="349.341739" y="184.762257" style="fill: #ff7f0e; stroke: #ff7f0e"/>
     <use xlink:href="#m046cad4f18" x="352.217064" y="213.648604" style="fill: #ff7f0e; stroke: #ff7f0e"/>
     <use xlink:href="#m046cad4f18" x="369.938248" y="246.696681" style="fill: #ff7f0e; stroke: #ff7f0e"/>
     <use xlink:href="#m046cad4f18" x="362.524836" y="193.053089" style="fill: #ff7f0e; stroke: #ff7f0e"/>
     <use xlink:href="#m046cad4f18" x="365.298814" y="226.42623" style="fill: #ff7f0e; stroke: #ff7f0e"/>
     <use xlink:href="#m046cad4f18" x="350.427897" y="222.618052" style="fill: #ff7f0e; stroke: #ff7f0e"/>
     <use xlink:href="#m046cad4f18" x="352.352152" y="195.057657" style="fill: #ff7f0e; stroke: #ff7f0e"/>
     <use xlink:href="#m046cad4f18" x="366.652635" y="175.114579" style="fill: #ff7f0e; stroke: #ff7f0e"/>
     <use xlink:href="#m046cad4f18" x="361.30869" y="186.563702" style="fill: #ff7f0e; stroke: #ff7f0e"/>
     <use xlink:href="#m046cad4f18" x="357.179725" y="267.221745" style="fill: #ff7f0e; stroke: #ff7f0e"/>
     <use xlink:href="#m046cad4f18" x="369.706704" y="211.041214" style="fill: #ff7f0e; stroke: #ff7f0e"/>
     <use xlink:href="#m046cad4f18" x="347.04626" y="274.538541" style="fill: #ff7f0e; stroke: #ff7f0e"/>
     <use xlink:href="#m046cad4f18" x="361.133294" y="231.917279" style="fill: #ff7f0e; stroke: #ff7f0e"/>
     <use xlink:href="#m046cad4f18" x="366.608847" y="98.089564" style="fill: #ff7f0e; stroke: #ff7f0e"/>
     <use xlink:href="#m046cad4f18" x="367.146051" y="240.265565" style="fill: #ff7f0e; stroke: #ff7f0e"/>
     <use xlink:href="#m046cad4f18" x="361.485834" y="118.527987" style="fill: #ff7f0e; stroke: #ff7f0e"/>
     <use xlink:href="#m046cad4f18" x="372.250642" y="280.969838" style="fill: #ff7f0e; stroke: #ff7f0e"/>
     <use xlink:href="#m046cad4f18" x="367.117785" y="187.298861" style="fill: #ff7f0e; stroke: #ff7f0e"/>
     <use xlink:href="#m046cad4f18" x="360.113247" y="222.482974" style="fill: #ff7f0e; stroke: #ff7f0e"/>
     <use xlink:href="#m046cad4f18" x="358.639594" y="258.340276" style="fill: #ff7f0e; stroke: #ff7f0e"/>
     <use xlink:href="#m046cad4f18" x="351.138071" y="219.157841" style="fill: #ff7f0e; stroke: #ff7f0e"/>
     <use xlink:href="#m046cad4f18" x="337.933932" y="203.984161" style="fill: #ff7f0e; stroke: #ff7f0e"/>
     <use xlink:href="#m046cad4f18" x="354.373382" y="231.995959" style="fill: #ff7f0e; stroke: #ff7f0e"/>
     <use xlink:href="#m046cad4f18" x="364.382213" y="263.486782" style="fill: #ff7f0e; stroke: #ff7f0e"/>
     <use xlink:href="#m046cad4f18" x="359.73237" y="24.815865" style="fill: #ff7f0e; stroke: #ff7f0e"/>
     <use xlink:href="#m046cad4f18" x="357.0942" y="176.212546" style="fill: #ff7f0e; stroke: #ff7f0e"/>
     <use xlink:href="#m046cad4f18" x="362.641399" y="194.343861" style="fill: #ff7f0e; stroke: #ff7f0e"/>
     <use xlink:href="#m046cad4f18" x="352.294402" y="184.159575" style="fill: #ff7f0e; stroke: #ff7f0e"/>
     <use xlink:href="#m046cad4f18" x="354.031432" y="164.917262" style="fill: #ff7f0e; stroke: #ff7f0e"/>
     <use xlink:href="#m046cad4f18" x="350.457708" y="291.684905" style="fill: #ff7f0e; stroke: #ff7f0e"/>
     <use xlink:href="#m046cad4f18" x="346.748799" y="294.834545" style="fill: #ff7f0e; stroke: #ff7f0e"/>
     <use xlink:href="#m046cad4f18" x="366.026222" y="290.438546" style="fill: #ff7f0e; stroke: #ff7f0e"/>
     <use xlink:href="#m046cad4f18" x="357.327258" y="242.46633" style="fill: #ff7f0e; stroke: #ff7f0e"/>
     <use xlink:href="#m046cad4f18" x="351.006403" y="272.627776" style="fill: #ff7f0e; stroke: #ff7f0e"/>
     <use xlink:href="#m046cad4f18" x="351.106251" y="269.023864" style="fill: #ff7f0e; stroke: #ff7f0e"/>
     <use xlink:href="#m046cad4f18" x="358.800585" y="251.346236" style="fill: #ff7f0e; stroke: #ff7f0e"/>
     <use xlink:href="#m046cad4f18" x="352.996188" y="249.566618" style="fill: #ff7f0e; stroke: #ff7f0e"/>
     <use xlink:href="#m046cad4f18" x="356.099833" y="225.257118" style="fill: #ff7f0e; stroke: #ff7f0e"/>
     <use xlink:href="#m046cad4f18" x="364.529937" y="264.2876" style="fill: #ff7f0e; stroke: #ff7f0e"/>
     <use xlink:href="#m046cad4f18" x="349.712814" y="273.724019" style="fill: #ff7f0e; stroke: #ff7f0e"/>
     <use xlink:href="#m046cad4f18" x="361.329947" y="221.955557" style="fill: #ff7f0e; stroke: #ff7f0e"/>
     <use xlink:href="#m046cad4f18" x="333.660566" y="174.924931" style="fill: #ff7f0e; stroke: #ff7f0e"/>
     <use xlink:href="#m046cad4f18" x="355.237828" y="280.978893" style="fill: #ff7f0e; stroke: #ff7f0e"/>
     <use xlink:href="#m046cad4f18" x="356.640705" y="156.006802" style="fill: #ff7f0e; stroke: #ff7f0e"/>
     <use xlink:href="#m046cad4f18" x="351.11056" y="150.924404" style="fill: #ff7f0e; stroke: #ff7f0e"/>
     <use xlink:href="#m046cad4f18" x="358.06374" y="215.484745" style="fill: #ff7f0e; stroke: #ff7f0e"/>
     <use xlink:href="#m046cad4f18" x="351.735278" y="132.878281" style="fill: #ff7f0e; stroke: #ff7f0e"/>
     <use xlink:href="#m046cad4f18" x="375.126805" y="241.331874" style="fill: #ff7f0e; stroke: #ff7f0e"/>
     <use xlink:href="#m046cad4f18" x="358.865711" y="257.399566" style="fill: #ff7f0e; stroke: #ff7f0e"/>
     <use xlink:href="#m046cad4f18" x="358.435623" y="165.49563" style="fill: #ff7f0e; stroke: #ff7f0e"/>
     <use xlink:href="#m046cad4f18" x="367.891099" y="211.042657" style="fill: #ff7f0e; stroke: #ff7f0e"/>
     <use xlink:href="#m046cad4f18" x="360.429998" y="218.724362" style="fill: #ff7f0e; stroke: #ff7f0e"/>
     <use xlink:href="#m046cad4f18" x="348.045766" y="24.325455" style="fill: #ff7f0e; stroke: #ff7f0e"/>
     <use xlink:href="#m046cad4f18" x="352.514869" y="195.376946" style="fill: #ff7f0e; stroke: #ff7f0e"/>
     <use xlink:href="#m046cad4f18" x="331.827783" y="162.103947" style="fill: #ff7f0e; stroke: #ff7f0e"/>
    </g>
   </g>
   <g id="patch_5">
    <path d="M 73.19 308.36 
L 73.19 10.8 
" style="fill: none; stroke: #000000; stroke-width: 0.8; stroke-linejoin: miter; stroke-linecap: square"/>
   </g>
   <g id="patch_6">
    <path d="M 450 308.36 
L 450 10.8 
" style="fill: none; stroke: #000000; stroke-width: 0.8; stroke-linejoin: miter; stroke-linecap: square"/>
   </g>
   <g id="patch_7">
    <path d="M 73.19 308.36 
L 450 308.36 
" style="fill: none; stroke: #000000; stroke-width: 0.8; stroke-linejoin: miter; stroke-linecap: square"/>
   </g>
   <g id="patch_8">
    <path d="M 73.19 10.8 
L 450 10.8 
" style="fill: none; stroke: #000000; stroke-width: 0.8; stroke-linejoin: miter; stroke-linecap: square"/>
   </g>
   <g id="text_11">
    <!-- p = 0.862 -->
    <g transform="translate(236.712188 68.859069) scale(0.1 -0.1)">
     <defs>
      <path id="DejaVuSerif-3d" d="M 678 2894 
L 4684 2894 
L 4684 2394 
L 678 2394 
L 678 2894 
z
M 678 1619 
L 4684 1619 
L 4684 1119 
L 678 1119 
L 678 1619 
z
" transform="scale(0.015625)"/>
      <path id="DejaVuSerif-2e" d="M 603 325 
Q 603 500 722 622 
Q 841 744 1019 744 
Q 1191 744 1312 622 
Q 1434 500 1434 325 
Q 1434 153 1312 31 
Q 1191 -91 1019 -91 
Q 841 -91 722 29 
Q 603 150 603 325 
z
" transform="scale(0.015625)"/>
     </defs>
     <use xlink:href="#DejaVuSerif-70"/>
     <use xlink:href="#DejaVuSerif-20" x="64.013672"/>
     <use xlink:href="#DejaVuSerif-3d" x="95.800781"/>
     <use xlink:href="#DejaVuSerif-20" x="179.589844"/>
     <use xlink:href="#DejaVuSerif-30" x="211.376953"/>
     <use xlink:href="#DejaVuSerif-2e" x="275"/>
     <use xlink:href="#DejaVuSerif-38" x="306.787109"/>
     <use xlink:href="#DejaVuSerif-36" x="370.410156"/>
     <use xlink:href="#DejaVuSerif-32" x="434.033203"/>
    </g>
   </g>
  </g>
 </g>
 <defs>
  <clipPath id="p884375faf1">
   <rect x="73.19" y="10.8" width="376.81" height="297.56"/>
  </clipPath>
 </defs>
</svg>
