<?xml version="1.0" encoding="utf-8" standalone="no"?>
<!DOCTYPE svg PUBLIC "-//W3C//DTD SVG 1.1//EN"
  "http://www.w3.org/Graphics/SVG/1.1/DTD/svg11.dtd">
<svg xmlns:xlink="http://www.w3.org/1999/xlink" width="460.8pt" height="345.6pt" viewBox="0 0 460.8 345.6" xmlns="http://www.w3.org/2000/svg" version="1.1">
 <metadata>
  <rdf:RDF xmlns:dc="http://purl.org/dc/elements/1.1/" xmlns:cc="http://creativecommons.org/ns#" xmlns:rdf="http://www.w3.org/1999/02/22-rdf-syntax-ns#">
   <cc:Work>
    <dc:type rdf:resource="http://purl.org/dc/dcmitype/StillImage"/>
    <dc:date>2025-06-04T09:51:48.616726</dc:date>
    <dc:format>image/svg+xml</dc:format>
    <dc:creator>
     <cc:Agent>
      <dc:title>Matplotlib v3.9.2, https://matplotlib.org/</dc:title>
     </cc:Agent>
    </dc:creator>
   </cc:Work>
  </rdf:RDF>
 </metadata>
 <defs>
  <style type="text/css">*{stroke-linejoin: round; stroke-linecap: butt}</style>
 </defs>
 <g id="figure_1">
  <g id="patch_1">
   <path d="M 0 345.6 
L 460.8 345.6 
L 460.8 0 
L 0 0 
z
" style="fill: #ffffff"/>
  </g>
  <g id="axes_1">
   <g id="patch_2">
    <path d="M 73.19 308.36 
L 450 308.36 
L 450 10.8 
L 73.19 10.8 
z
" style="fill: #ffffff"/>
   </g>
   <g id="patch_3">
    <path d="M 110.871 257.500317 
L 223.914 257.500317 
L 223.914 227.989336 
L 110.871 227.989336 
L 110.871 257.500317 
z
" clip-path="url(#pa82c835a5a)" style="fill: #a1c9f4; stroke: #000000; stroke-linejoin: miter"/>
   </g>
   <g id="line2d_1">
    <path d="M 167.3925 257.500317 
L 167.3925 274.062162 
" clip-path="url(#pa82c835a5a)" style="fill: none; stroke: #000000; stroke-linecap: square"/>
   </g>
   <g id="line2d_2">
    <path d="M 167.3925 227.989336 
L 167.3925 206.471509 
" clip-path="url(#pa82c835a5a)" style="fill: none; stroke: #000000; stroke-linecap: square"/>
   </g>
   <g id="line2d_3">
    <path d="M 139.13175 274.062162 
L 195.65325 274.062162 
" clip-path="url(#pa82c835a5a)" style="fill: none; stroke: #000000; stroke-linecap: square"/>
   </g>
   <g id="line2d_4">
    <path d="M 139.13175 206.471509 
L 195.65325 206.471509 
" clip-path="url(#pa82c835a5a)" style="fill: none; stroke: #000000; stroke-linecap: square"/>
   </g>
   <g id="patch_4">
    <path d="M 299.276 252.956415 
L 412.319 252.956415 
L 412.319 202.380731 
L 299.276 202.380731 
L 299.276 252.956415 
z
" clip-path="url(#pa82c835a5a)" style="fill: #ffb482; stroke: #000000; stroke-linejoin: miter"/>
   </g>
   <g id="line2d_5">
    <path d="M 355.7975 252.956415 
L 355.7975 294.834545 
" clip-path="url(#pa82c835a5a)" style="fill: none; stroke: #000000; stroke-linecap: square"/>
   </g>
   <g id="line2d_6">
    <path d="M 355.7975 202.380731 
L 355.7975 135.031772 
" clip-path="url(#pa82c835a5a)" style="fill: none; stroke: #000000; stroke-linecap: square"/>
   </g>
   <g id="line2d_7">
    <path d="M 327.53675 294.834545 
L 384.05825 294.834545 
" clip-path="url(#pa82c835a5a)" style="fill: none; stroke: #000000; stroke-linecap: square"/>
   </g>
   <g id="line2d_8">
    <path d="M 327.53675 135.031772 
L 384.05825 135.031772 
" clip-path="url(#pa82c835a5a)" style="fill: none; stroke: #000000; stroke-linecap: square"/>
   </g>
   <g id="line2d_9">
    <path d="M 110.871 242.620376 
L 223.914 242.620376 
" clip-path="url(#pa82c835a5a)" style="fill: none; stroke: #000000"/>
   </g>
   <g id="line2d_10">
    <path d="M 299.276 233.000721 
L 412.319 233.000721 
" clip-path="url(#pa82c835a5a)" style="fill: none; stroke: #000000"/>
   </g>
   <g id="matplotlib.axis_1">
    <g id="xtick_1">
     <g id="line2d_11">
      <defs>
       <path id="m61ea809e50" d="M 0 0 
L 0 3.5 
" style="stroke: #000000; stroke-width: 0.8"/>
      </defs>
      <g>
       <use xlink:href="#m61ea809e50" x="167.3925" y="308.36" style="stroke: #000000; stroke-width: 0.8"/>
      </g>
     </g>
     <g id="text_1">
      <!-- Mutants -->
      <g transform="translate(125.140938 330.556875) scale(0.2 -0.2)">
       <defs>
        <path id="DejaVuSerif-4d" d="M 353 0 
L 353 331 
L 947 331 
L 947 4331 
L 319 4331 
L 319 4666 
L 1678 4666 
L 3316 1344 
L 4953 4666 
L 6228 4666 
L 6228 4331 
L 5606 4331 
L 5606 331 
L 6203 331 
L 6203 0 
L 4378 0 
L 4378 331 
L 4972 331 
L 4972 3938 
L 3372 684 
L 2931 684 
L 1331 3938 
L 1331 331 
L 1925 331 
L 1925 0 
L 353 0 
z
" transform="scale(0.015625)"/>
        <path id="DejaVuSerif-75" d="M 2266 3322 
L 3341 3322 
L 3341 331 
L 3884 331 
L 3884 0 
L 2766 0 
L 2766 588 
Q 2606 256 2353 82 
Q 2100 -91 1766 -91 
Q 1213 -91 952 223 
Q 691 538 691 1209 
L 691 2988 
L 172 2988 
L 172 3322 
L 1269 3322 
L 1269 1388 
Q 1269 781 1417 556 
Q 1566 331 1947 331 
Q 2347 331 2556 625 
Q 2766 919 2766 1478 
L 2766 2988 
L 2266 2988 
L 2266 3322 
z
" transform="scale(0.015625)"/>
        <path id="DejaVuSerif-74" d="M 691 2988 
L 184 2988 
L 184 3322 
L 691 3322 
L 691 4353 
L 1269 4353 
L 1269 3322 
L 2350 3322 
L 2350 2988 
L 1269 2988 
L 1269 878 
Q 1269 456 1350 337 
Q 1431 219 1650 219 
Q 1875 219 1978 351 
Q 2081 484 2088 781 
L 2522 781 
Q 2497 328 2275 118 
Q 2053 -91 1600 -91 
Q 1103 -91 897 129 
Q 691 350 691 878 
L 691 2988 
z
" transform="scale(0.015625)"/>
        <path id="DejaVuSerif-61" d="M 2547 1044 
L 2547 1747 
L 1806 1747 
Q 1378 1747 1168 1562 
Q 959 1378 959 997 
Q 959 650 1171 447 
Q 1384 244 1747 244 
Q 2106 244 2326 466 
Q 2547 688 2547 1044 
z
M 3122 2075 
L 3122 331 
L 3634 331 
L 3634 0 
L 2547 0 
L 2547 359 
Q 2356 128 2106 18 
Q 1856 -91 1522 -91 
Q 969 -91 644 203 
Q 319 497 319 997 
Q 319 1513 691 1797 
Q 1063 2081 1741 2081 
L 2547 2081 
L 2547 2309 
Q 2547 2688 2317 2895 
Q 2088 3103 1672 3103 
Q 1328 3103 1125 2947 
Q 922 2791 872 2484 
L 575 2484 
L 575 3156 
Q 875 3284 1158 3348 
Q 1441 3413 1709 3413 
Q 2400 3413 2761 3070 
Q 3122 2728 3122 2075 
z
" transform="scale(0.015625)"/>
        <path id="DejaVuSerif-6e" d="M 263 0 
L 263 331 
L 781 331 
L 781 2988 
L 231 2988 
L 231 3322 
L 1356 3322 
L 1356 2731 
Q 1516 3069 1770 3241 
Q 2025 3413 2363 3413 
Q 2913 3413 3172 3097 
Q 3431 2781 3431 2113 
L 3431 331 
L 3944 331 
L 3944 0 
L 2356 0 
L 2356 331 
L 2853 331 
L 2853 1931 
Q 2853 2541 2703 2767 
Q 2553 2994 2175 2994 
Q 1775 2994 1565 2701 
Q 1356 2409 1356 1850 
L 1356 331 
L 1856 331 
L 1856 0 
L 263 0 
z
" transform="scale(0.015625)"/>
        <path id="DejaVuSerif-73" d="M 359 184 
L 359 959 
L 691 959 
Q 703 588 923 403 
Q 1144 219 1575 219 
Q 1963 219 2166 364 
Q 2369 509 2369 788 
Q 2369 1006 2220 1140 
Q 2072 1275 1594 1428 
L 1178 1569 
Q 750 1706 558 1912 
Q 366 2119 366 2438 
Q 366 2894 700 3153 
Q 1034 3413 1625 3413 
Q 1888 3413 2178 3344 
Q 2469 3275 2778 3144 
L 2778 2419 
L 2447 2419 
Q 2434 2741 2221 2922 
Q 2009 3103 1644 3103 
Q 1281 3103 1095 2975 
Q 909 2847 909 2591 
Q 909 2381 1050 2254 
Q 1191 2128 1613 1997 
L 2069 1856 
Q 2541 1709 2748 1489 
Q 2956 1269 2956 922 
Q 2956 450 2595 179 
Q 2234 -91 1600 -91 
Q 1278 -91 972 -22 
Q 666 47 359 184 
z
" transform="scale(0.015625)"/>
       </defs>
       <use xlink:href="#DejaVuSerif-4d"/>
       <use xlink:href="#DejaVuSerif-75" x="102.392578"/>
       <use xlink:href="#DejaVuSerif-74" x="166.796875"/>
       <use xlink:href="#DejaVuSerif-61" x="206.982422"/>
       <use xlink:href="#DejaVuSerif-6e" x="266.601562"/>
       <use xlink:href="#DejaVuSerif-74" x="331.005859"/>
       <use xlink:href="#DejaVuSerif-73" x="371.191406"/>
      </g>
     </g>
    </g>
    <g id="xtick_2">
     <g id="line2d_12">
      <g>
       <use xlink:href="#m61ea809e50" x="355.7975" y="308.36" style="stroke: #000000; stroke-width: 0.8"/>
      </g>
     </g>
     <g id="text_2">
      <!-- WT -->
      <g transform="translate(338.849063 330.556875) scale(0.2 -0.2)">
       <defs>
        <path id="DejaVuSerif-57" d="M 4878 0 
L 4366 0 
L 3297 3794 
L 2228 0 
L 1716 0 
L 494 4331 
L 31 4331 
L 31 4666 
L 1734 4666 
L 1734 4331 
L 1153 4331 
L 2125 884 
L 3188 4666 
L 3694 4666 
L 4775 844 
L 5753 4331 
L 5216 4331 
L 5216 4666 
L 6559 4666 
L 6559 4331 
L 6100 4331 
L 4878 0 
z
" transform="scale(0.015625)"/>
        <path id="DejaVuSerif-54" d="M 1222 0 
L 1222 331 
L 1819 331 
L 1819 4294 
L 447 4294 
L 447 3566 
L 63 3566 
L 63 4666 
L 4206 4666 
L 4206 3566 
L 3822 3566 
L 3822 4294 
L 2450 4294 
L 2450 331 
L 3047 331 
L 3047 0 
L 1222 0 
z
" transform="scale(0.015625)"/>
       </defs>
       <use xlink:href="#DejaVuSerif-57"/>
       <use xlink:href="#DejaVuSerif-54" x="102.783203"/>
      </g>
     </g>
    </g>
   </g>
   <g id="matplotlib.axis_2">
    <g id="ytick_1">
     <g id="line2d_13">
      <defs>
       <path id="mb64edf6c7a" d="M 0 0 
L -3.5 0 
" style="stroke: #000000; stroke-width: 0.8"/>
      </defs>
      <g>
       <use xlink:href="#mb64edf6c7a" x="73.19" y="296.566418" style="stroke: #000000; stroke-width: 0.8"/>
      </g>
     </g>
     <g id="text_3">
      <!-- 0 -->
      <g transform="translate(59.8275 300.365637) scale(0.1 -0.1)">
       <defs>
        <path id="DejaVuSerif-30" d="M 2034 219 
Q 2513 219 2750 744 
Q 2988 1269 2988 2328 
Q 2988 3391 2750 3916 
Q 2513 4441 2034 4441 
Q 1556 4441 1318 3916 
Q 1081 3391 1081 2328 
Q 1081 1269 1318 744 
Q 1556 219 2034 219 
z
M 2034 -91 
Q 1275 -91 848 546 
Q 422 1184 422 2328 
Q 422 3475 848 4112 
Q 1275 4750 2034 4750 
Q 2797 4750 3222 4112 
Q 3647 3475 3647 2328 
Q 3647 1184 3222 546 
Q 2797 -91 2034 -91 
z
" transform="scale(0.015625)"/>
       </defs>
       <use xlink:href="#DejaVuSerif-30"/>
      </g>
     </g>
    </g>
    <g id="ytick_2">
     <g id="line2d_14">
      <g>
       <use xlink:href="#mb64edf6c7a" x="73.19" y="263.146914" style="stroke: #000000; stroke-width: 0.8"/>
      </g>
     </g>
     <g id="text_4">
      <!-- 2000 -->
      <g transform="translate(40.74 266.946133) scale(0.1 -0.1)">
       <defs>
        <path id="DejaVuSerif-32" d="M 819 3553 
L 469 3553 
L 469 4384 
Q 803 4563 1142 4656 
Q 1481 4750 1806 4750 
Q 2534 4750 2956 4397 
Q 3378 4044 3378 3438 
Q 3378 2753 2422 1800 
Q 2347 1728 2309 1691 
L 1131 513 
L 3078 513 
L 3078 1088 
L 3444 1088 
L 3444 0 
L 434 0 
L 434 341 
L 1850 1753 
Q 2319 2222 2519 2614 
Q 2719 3006 2719 3438 
Q 2719 3909 2473 4175 
Q 2228 4441 1797 4441 
Q 1350 4441 1106 4219 
Q 863 3997 819 3553 
z
" transform="scale(0.015625)"/>
       </defs>
       <use xlink:href="#DejaVuSerif-32"/>
       <use xlink:href="#DejaVuSerif-30" x="63.623047"/>
       <use xlink:href="#DejaVuSerif-30" x="127.246094"/>
       <use xlink:href="#DejaVuSerif-30" x="190.869141"/>
      </g>
     </g>
    </g>
    <g id="ytick_3">
     <g id="line2d_15">
      <g>
       <use xlink:href="#mb64edf6c7a" x="73.19" y="229.72741" style="stroke: #000000; stroke-width: 0.8"/>
      </g>
     </g>
     <g id="text_5">
      <!-- 4000 -->
      <g transform="translate(40.74 233.526628) scale(0.1 -0.1)">
       <defs>
        <path id="DejaVuSerif-34" d="M 2234 1581 
L 2234 4063 
L 641 1581 
L 2234 1581 
z
M 3609 0 
L 1484 0 
L 1484 331 
L 2234 331 
L 2234 1247 
L 197 1247 
L 197 1588 
L 2241 4750 
L 2859 4750 
L 2859 1581 
L 3750 1581 
L 3750 1247 
L 2859 1247 
L 2859 331 
L 3609 331 
L 3609 0 
z
" transform="scale(0.015625)"/>
       </defs>
       <use xlink:href="#DejaVuSerif-34"/>
       <use xlink:href="#DejaVuSerif-30" x="63.623047"/>
       <use xlink:href="#DejaVuSerif-30" x="127.246094"/>
       <use xlink:href="#DejaVuSerif-30" x="190.869141"/>
      </g>
     </g>
    </g>
    <g id="ytick_4">
     <g id="line2d_16">
      <g>
       <use xlink:href="#mb64edf6c7a" x="73.19" y="196.307905" style="stroke: #000000; stroke-width: 0.8"/>
      </g>
     </g>
     <g id="text_6">
      <!-- 6000 -->
      <g transform="translate(40.74 200.107124) scale(0.1 -0.1)">
       <defs>
        <path id="DejaVuSerif-36" d="M 2094 219 
Q 2534 219 2771 542 
Q 3009 866 3009 1472 
Q 3009 2078 2771 2401 
Q 2534 2725 2094 2725 
Q 1647 2725 1412 2412 
Q 1178 2100 1178 1509 
Q 1178 888 1415 553 
Q 1653 219 2094 219 
z
M 1075 2569 
Q 1288 2803 1556 2918 
Q 1825 3034 2163 3034 
Q 2859 3034 3264 2615 
Q 3669 2197 3669 1472 
Q 3669 763 3233 336 
Q 2797 -91 2069 -91 
Q 1278 -91 853 498 
Q 428 1088 428 2181 
Q 428 3406 931 4078 
Q 1434 4750 2350 4750 
Q 2597 4750 2869 4703 
Q 3141 4656 3425 4563 
L 3425 3794 
L 3072 3794 
Q 3034 4109 2831 4275 
Q 2628 4441 2284 4441 
Q 1678 4441 1381 3981 
Q 1084 3522 1075 2569 
z
" transform="scale(0.015625)"/>
       </defs>
       <use xlink:href="#DejaVuSerif-36"/>
       <use xlink:href="#DejaVuSerif-30" x="63.623047"/>
       <use xlink:href="#DejaVuSerif-30" x="127.246094"/>
       <use xlink:href="#DejaVuSerif-30" x="190.869141"/>
      </g>
     </g>
    </g>
    <g id="ytick_5">
     <g id="line2d_17">
      <g>
       <use xlink:href="#mb64edf6c7a" x="73.19" y="162.888401" style="stroke: #000000; stroke-width: 0.8"/>
      </g>
     </g>
     <g id="text_7">
      <!-- 8000 -->
      <g transform="translate(40.74 166.68762) scale(0.1 -0.1)">
       <defs>
        <path id="DejaVuSerif-38" d="M 2981 1275 
Q 2981 1775 2732 2051 
Q 2484 2328 2034 2328 
Q 1584 2328 1336 2051 
Q 1088 1775 1088 1275 
Q 1088 772 1336 495 
Q 1584 219 2034 219 
Q 2484 219 2732 495 
Q 2981 772 2981 1275 
z
M 2853 3541 
Q 2853 3966 2637 4203 
Q 2422 4441 2034 4441 
Q 1650 4441 1433 4203 
Q 1216 3966 1216 3541 
Q 1216 3113 1433 2875 
Q 1650 2638 2034 2638 
Q 2422 2638 2637 2875 
Q 2853 3113 2853 3541 
z
M 2516 2484 
Q 3047 2413 3344 2092 
Q 3641 1772 3641 1275 
Q 3641 619 3225 264 
Q 2809 -91 2034 -91 
Q 1263 -91 845 264 
Q 428 619 428 1275 
Q 428 1772 725 2092 
Q 1022 2413 1556 2484 
Q 1084 2569 832 2842 
Q 581 3116 581 3541 
Q 581 4103 968 4426 
Q 1356 4750 2034 4750 
Q 2713 4750 3100 4426 
Q 3488 4103 3488 3541 
Q 3488 3116 3236 2842 
Q 2984 2569 2516 2484 
z
" transform="scale(0.015625)"/>
       </defs>
       <use xlink:href="#DejaVuSerif-38"/>
       <use xlink:href="#DejaVuSerif-30" x="63.623047"/>
       <use xlink:href="#DejaVuSerif-30" x="127.246094"/>
       <use xlink:href="#DejaVuSerif-30" x="190.869141"/>
      </g>
     </g>
    </g>
    <g id="ytick_6">
     <g id="line2d_18">
      <g>
       <use xlink:href="#mb64edf6c7a" x="73.19" y="129.468897" style="stroke: #000000; stroke-width: 0.8"/>
      </g>
     </g>
     <g id="text_8">
      <!-- 10000 -->
      <g transform="translate(34.3775 133.268115) scale(0.1 -0.1)">
       <defs>
        <path id="DejaVuSerif-31" d="M 909 0 
L 909 331 
L 1722 331 
L 1722 4213 
L 781 3603 
L 781 4013 
L 1919 4750 
L 2350 4750 
L 2350 331 
L 3163 331 
L 3163 0 
L 909 0 
z
" transform="scale(0.015625)"/>
       </defs>
       <use xlink:href="#DejaVuSerif-31"/>
       <use xlink:href="#DejaVuSerif-30" x="63.623047"/>
       <use xlink:href="#DejaVuSerif-30" x="127.246094"/>
       <use xlink:href="#DejaVuSerif-30" x="190.869141"/>
       <use xlink:href="#DejaVuSerif-30" x="254.492188"/>
      </g>
     </g>
    </g>
    <g id="ytick_7">
     <g id="line2d_19">
      <g>
       <use xlink:href="#mb64edf6c7a" x="73.19" y="96.049392" style="stroke: #000000; stroke-width: 0.8"/>
      </g>
     </g>
     <g id="text_9">
      <!-- 12000 -->
      <g transform="translate(34.3775 99.848611) scale(0.1 -0.1)">
       <use xlink:href="#DejaVuSerif-31"/>
       <use xlink:href="#DejaVuSerif-32" x="63.623047"/>
       <use xlink:href="#DejaVuSerif-30" x="127.246094"/>
       <use xlink:href="#DejaVuSerif-30" x="190.869141"/>
       <use xlink:href="#DejaVuSerif-30" x="254.492188"/>
      </g>
     </g>
    </g>
    <g id="ytick_8">
     <g id="line2d_20">
      <g>
       <use xlink:href="#mb64edf6c7a" x="73.19" y="62.629888" style="stroke: #000000; stroke-width: 0.8"/>
      </g>
     </g>
     <g id="text_10">
      <!-- 14000 -->
      <g transform="translate(34.3775 66.429107) scale(0.1 -0.1)">
       <use xlink:href="#DejaVuSerif-31"/>
       <use xlink:href="#DejaVuSerif-34" x="63.623047"/>
       <use xlink:href="#DejaVuSerif-30" x="127.246094"/>
       <use xlink:href="#DejaVuSerif-30" x="190.869141"/>
       <use xlink:href="#DejaVuSerif-30" x="254.492188"/>
      </g>
     </g>
    </g>
    <g id="ytick_9">
     <g id="line2d_21">
      <g>
       <use xlink:href="#mb64edf6c7a" x="73.19" y="29.210383" style="stroke: #000000; stroke-width: 0.8"/>
      </g>
     </g>
     <g id="text_11">
      <!-- 16000 -->
      <g transform="translate(34.3775 33.009602) scale(0.1 -0.1)">
       <use xlink:href="#DejaVuSerif-31"/>
       <use xlink:href="#DejaVuSerif-36" x="63.623047"/>
       <use xlink:href="#DejaVuSerif-30" x="127.246094"/>
       <use xlink:href="#DejaVuSerif-30" x="190.869141"/>
       <use xlink:href="#DejaVuSerif-30" x="254.492188"/>
      </g>
     </g>
    </g>
    <g id="text_12">
     <!-- Time spent in arena -->
     <g transform="translate(26.218125 260.99875) rotate(-90) scale(0.2 -0.2)">
      <defs>
       <path id="DejaVuSerif-69" d="M 622 4353 
Q 622 4497 726 4603 
Q 831 4709 978 4709 
Q 1122 4709 1226 4603 
Q 1331 4497 1331 4353 
Q 1331 4206 1228 4103 
Q 1125 4000 978 4000 
Q 831 4000 726 4103 
Q 622 4206 622 4353 
z
M 1356 331 
L 1900 331 
L 1900 0 
L 231 0 
L 231 331 
L 781 331 
L 781 2988 
L 231 2988 
L 231 3322 
L 1356 3322 
L 1356 331 
z
" transform="scale(0.015625)"/>
       <path id="DejaVuSerif-6d" d="M 3316 2675 
Q 3481 3041 3739 3227 
Q 3997 3413 4341 3413 
Q 4863 3413 5119 3089 
Q 5375 2766 5375 2113 
L 5375 331 
L 5894 331 
L 5894 0 
L 4300 0 
L 4300 331 
L 4800 331 
L 4800 2047 
Q 4800 2556 4650 2772 
Q 4500 2988 4153 2988 
Q 3769 2988 3567 2697 
Q 3366 2406 3366 1850 
L 3366 331 
L 3866 331 
L 3866 0 
L 2291 0 
L 2291 331 
L 2791 331 
L 2791 2069 
Q 2791 2566 2641 2777 
Q 2491 2988 2144 2988 
Q 1759 2988 1557 2697 
Q 1356 2406 1356 1850 
L 1356 331 
L 1856 331 
L 1856 0 
L 263 0 
L 263 331 
L 781 331 
L 781 2994 
L 231 2994 
L 231 3322 
L 1356 3322 
L 1356 2731 
Q 1516 3063 1762 3238 
Q 2009 3413 2322 3413 
Q 2709 3413 2968 3220 
Q 3228 3028 3316 2675 
z
" transform="scale(0.015625)"/>
       <path id="DejaVuSerif-65" d="M 3469 1600 
L 991 1600 
L 991 1575 
Q 991 903 1244 561 
Q 1497 219 1991 219 
Q 2369 219 2611 417 
Q 2853 616 2950 1006 
L 3413 1006 
Q 3275 459 2904 184 
Q 2534 -91 1931 -91 
Q 1203 -91 761 389 
Q 319 869 319 1663 
Q 319 2450 753 2931 
Q 1188 3413 1894 3413 
Q 2647 3413 3050 2948 
Q 3453 2484 3469 1600 
z
M 2791 1931 
Q 2772 2513 2545 2808 
Q 2319 3103 1894 3103 
Q 1497 3103 1269 2806 
Q 1041 2509 991 1931 
L 2791 1931 
z
" transform="scale(0.015625)"/>
       <path id="DejaVuSerif-20" transform="scale(0.015625)"/>
       <path id="DejaVuSerif-70" d="M 1313 1825 
L 1313 1497 
Q 1313 897 1542 583 
Q 1772 269 2209 269 
Q 2650 269 2876 622 
Q 3103 975 3103 1663 
Q 3103 2353 2876 2703 
Q 2650 3053 2209 3053 
Q 1772 3053 1542 2737 
Q 1313 2422 1313 1825 
z
M 738 2988 
L 184 2988 
L 184 3322 
L 1313 3322 
L 1313 2803 
Q 1481 3116 1742 3264 
Q 2003 3413 2388 3413 
Q 3000 3413 3387 2928 
Q 3775 2444 3775 1663 
Q 3775 881 3387 395 
Q 3000 -91 2388 -91 
Q 2003 -91 1742 57 
Q 1481 206 1313 519 
L 1313 -997 
L 1856 -997 
L 1856 -1331 
L 184 -1331 
L 184 -997 
L 738 -997 
L 738 2988 
z
" transform="scale(0.015625)"/>
       <path id="DejaVuSerif-72" d="M 3059 3328 
L 3059 2497 
L 2728 2497 
Q 2713 2744 2591 2866 
Q 2469 2988 2234 2988 
Q 1809 2988 1582 2694 
Q 1356 2400 1356 1850 
L 1356 331 
L 2022 331 
L 2022 0 
L 263 0 
L 263 331 
L 781 331 
L 781 2994 
L 231 2994 
L 231 3322 
L 1356 3322 
L 1356 2731 
Q 1525 3078 1790 3245 
Q 2056 3413 2438 3413 
Q 2578 3413 2733 3391 
Q 2888 3369 3059 3328 
z
" transform="scale(0.015625)"/>
      </defs>
      <use xlink:href="#DejaVuSerif-54"/>
      <use xlink:href="#DejaVuSerif-69" x="66.699219"/>
      <use xlink:href="#DejaVuSerif-6d" x="98.681641"/>
      <use xlink:href="#DejaVuSerif-65" x="193.505859"/>
      <use xlink:href="#DejaVuSerif-20" x="252.685547"/>
      <use xlink:href="#DejaVuSerif-73" x="284.472656"/>
      <use xlink:href="#DejaVuSerif-70" x="335.791016"/>
      <use xlink:href="#DejaVuSerif-65" x="399.804688"/>
      <use xlink:href="#DejaVuSerif-6e" x="458.984375"/>
      <use xlink:href="#DejaVuSerif-74" x="523.388672"/>
      <use xlink:href="#DejaVuSerif-20" x="563.574219"/>
      <use xlink:href="#DejaVuSerif-69" x="595.361328"/>
      <use xlink:href="#DejaVuSerif-6e" x="627.34375"/>
      <use xlink:href="#DejaVuSerif-20" x="691.748047"/>
      <use xlink:href="#DejaVuSerif-61" x="723.535156"/>
      <use xlink:href="#DejaVuSerif-72" x="783.154297"/>
      <use xlink:href="#DejaVuSerif-65" x="830.957031"/>
      <use xlink:href="#DejaVuSerif-6e" x="890.136719"/>
      <use xlink:href="#DejaVuSerif-61" x="954.541016"/>
     </g>
    </g>
   </g>
   <g id="line2d_22">
    <path d="M 167.3925 118.252481 
L 167.3925 114.73682 
L 355.7975 114.73682 
L 355.7975 118.252481 
" clip-path="url(#pa82c835a5a)" style="fill: none; stroke: #000000; stroke-linecap: square"/>
   </g>
   <g id="PathCollection_1">
    <defs>
     <path id="m41c7fbd5c3" d="M 0 3.162278 
C 0.838646 3.162278 1.643056 2.82908 2.236068 2.236068 
C 2.82908 1.643056 3.162278 0.838646 3.162278 0 
C 3.162278 -0.838646 2.82908 -1.643056 2.236068 -2.236068 
C 1.643056 -2.82908 0.838646 -3.162278 0 -3.162278 
C -0.838646 -3.162278 -1.643056 -2.82908 -2.236068 -2.236068 
C -2.82908 -1.643056 -3.162278 -0.838646 -3.162278 0 
C -3.162278 0.838646 -2.82908 1.643056 -2.236068 2.236068 
C -1.643056 2.82908 -0.838646 3.162278 0 3.162278 
z
" style="stroke: #1f77b4"/>
    </defs>
    <g clip-path="url(#pa82c835a5a)">
     <use xlink:href="#m41c7fbd5c3" x="178.198382" y="145.05709" style="fill: #1f77b4; stroke: #1f77b4"/>
     <use xlink:href="#m41c7fbd5c3" x="165.83513" y="240.675528" style="fill: #1f77b4; stroke: #1f77b4"/>
     <use xlink:href="#m41c7fbd5c3" x="168.012682" y="263.729342" style="fill: #1f77b4; stroke: #1f77b4"/>
     <use xlink:href="#m41c7fbd5c3" x="170.145936" y="233.367239" style="fill: #1f77b4; stroke: #1f77b4"/>
     <use xlink:href="#m41c7fbd5c3" x="168.04622" y="209.263705" style="fill: #1f77b4; stroke: #1f77b4"/>
     <use xlink:href="#m41c7fbd5c3" x="191.154853" y="242.683038" style="fill: #1f77b4; stroke: #1f77b4"/>
     <use xlink:href="#m41c7fbd5c3" x="154.195861" y="248.407584" style="fill: #1f77b4; stroke: #1f77b4"/>
     <use xlink:href="#m41c7fbd5c3" x="181.407574" y="170.236355" style="fill: #1f77b4; stroke: #1f77b4"/>
     <use xlink:href="#m41c7fbd5c3" x="150.566009" y="267.850431" style="fill: #1f77b4; stroke: #1f77b4"/>
     <use xlink:href="#m41c7fbd5c3" x="166.541397" y="263.232876" style="fill: #1f77b4; stroke: #1f77b4"/>
     <use xlink:href="#m41c7fbd5c3" x="155.898068" y="253.269315" style="fill: #1f77b4; stroke: #1f77b4"/>
     <use xlink:href="#m41c7fbd5c3" x="185.772278" y="266.562308" style="fill: #1f77b4; stroke: #1f77b4"/>
     <use xlink:href="#m41c7fbd5c3" x="147.48887" y="242.620376" style="fill: #1f77b4; stroke: #1f77b4"/>
     <use xlink:href="#m41c7fbd5c3" x="172.271723" y="249.846954" style="fill: #1f77b4; stroke: #1f77b4"/>
     <use xlink:href="#m41c7fbd5c3" x="183.552592" y="132.550769" style="fill: #1f77b4; stroke: #1f77b4"/>
     <use xlink:href="#m41c7fbd5c3" x="186.232152" y="234.440417" style="fill: #1f77b4; stroke: #1f77b4"/>
     <use xlink:href="#m41c7fbd5c3" x="171.672557" y="257.500317" style="fill: #1f77b4; stroke: #1f77b4"/>
     <use xlink:href="#m41c7fbd5c3" x="164.346721" y="260.954966" style="fill: #1f77b4; stroke: #1f77b4"/>
     <use xlink:href="#m41c7fbd5c3" x="175.484716" y="263.158165" style="fill: #1f77b4; stroke: #1f77b4"/>
     <use xlink:href="#m41c7fbd5c3" x="165.405762" y="228.495567" style="fill: #1f77b4; stroke: #1f77b4"/>
     <use xlink:href="#m41c7fbd5c3" x="161.718704" y="250.484227" style="fill: #1f77b4; stroke: #1f77b4"/>
     <use xlink:href="#m41c7fbd5c3" x="163.012907" y="227.989336" style="fill: #1f77b4; stroke: #1f77b4"/>
     <use xlink:href="#m41c7fbd5c3" x="175.090036" y="236.520401" style="fill: #1f77b4; stroke: #1f77b4"/>
     <use xlink:href="#m41c7fbd5c3" x="171.21804" y="218.332353" style="fill: #1f77b4; stroke: #1f77b4"/>
     <use xlink:href="#m41c7fbd5c3" x="172.437737" y="254.399001" style="fill: #1f77b4; stroke: #1f77b4"/>
     <use xlink:href="#m41c7fbd5c3" x="173.228316" y="178.565689" style="fill: #1f77b4; stroke: #1f77b4"/>
     <use xlink:href="#m41c7fbd5c3" x="159.018567" y="239.24051" style="fill: #1f77b4; stroke: #1f77b4"/>
     <use xlink:href="#m41c7fbd5c3" x="174.68964" y="263.034324" style="fill: #1f77b4; stroke: #1f77b4"/>
     <use xlink:href="#m41c7fbd5c3" x="175.834122" y="268.016222" style="fill: #1f77b4; stroke: #1f77b4"/>
     <use xlink:href="#m41c7fbd5c3" x="171.651732" y="251.226167" style="fill: #1f77b4; stroke: #1f77b4"/>
     <use xlink:href="#m41c7fbd5c3" x="159.632862" y="259.98295" style="fill: #1f77b4; stroke: #1f77b4"/>
     <use xlink:href="#m41c7fbd5c3" x="177.29415" y="274.062162" style="fill: #1f77b4; stroke: #1f77b4"/>
     <use xlink:href="#m41c7fbd5c3" x="171.185444" y="243.541053" style="fill: #1f77b4; stroke: #1f77b4"/>
     <use xlink:href="#m41c7fbd5c3" x="165.172845" y="244.674419" style="fill: #1f77b4; stroke: #1f77b4"/>
     <use xlink:href="#m41c7fbd5c3" x="163.660102" y="248.43561" style="fill: #1f77b4; stroke: #1f77b4"/>
     <use xlink:href="#m41c7fbd5c3" x="175.231466" y="126.177028" style="fill: #1f77b4; stroke: #1f77b4"/>
     <use xlink:href="#m41c7fbd5c3" x="166.303833" y="206.471509" style="fill: #1f77b4; stroke: #1f77b4"/>
     <use xlink:href="#m41c7fbd5c3" x="174.538094" y="212.9378" style="fill: #1f77b4; stroke: #1f77b4"/>
     <use xlink:href="#m41c7fbd5c3" x="167.858484" y="222.53271" style="fill: #1f77b4; stroke: #1f77b4"/>
     <use xlink:href="#m41c7fbd5c3" x="185.027313" y="267.404318" style="fill: #1f77b4; stroke: #1f77b4"/>
     <use xlink:href="#m41c7fbd5c3" x="159.109061" y="234.038637" style="fill: #1f77b4; stroke: #1f77b4"/>
     <use xlink:href="#m41c7fbd5c3" x="177.217333" y="239.966403" style="fill: #1f77b4; stroke: #1f77b4"/>
     <use xlink:href="#m41c7fbd5c3" x="166.125128" y="237.68387" style="fill: #1f77b4; stroke: #1f77b4"/>
     <use xlink:href="#m41c7fbd5c3" x="190.21491" y="231.566652" style="fill: #1f77b4; stroke: #1f77b4"/>
     <use xlink:href="#m41c7fbd5c3" x="192.716092" y="223.018723" style="fill: #1f77b4; stroke: #1f77b4"/>
    </g>
   </g>
   <g id="PathCollection_2">
    <defs>
     <path id="m791c87de69" d="M 0 3.162278 
C 0.838646 3.162278 1.643056 2.82908 2.236068 2.236068 
C 2.82908 1.643056 3.162278 0.838646 3.162278 0 
C 3.162278 -0.838646 2.82908 -1.643056 2.236068 -2.236068 
C 1.643056 -2.82908 0.838646 -3.162278 0 -3.162278 
C -0.838646 -3.162278 -1.643056 -2.82908 -2.236068 -2.236068 
C -2.82908 -1.643056 -3.162278 -0.838646 -3.162278 0 
C -3.162278 0.838646 -2.82908 1.643056 -2.236068 2.236068 
C -1.643056 2.82908 -0.838646 3.162278 0 3.162278 
z
" style="stroke: #ff7f0e"/>
    </defs>
    <g clip-path="url(#pa82c835a5a)">
     <use xlink:href="#m791c87de69" x="348.930397" y="209.89843" style="fill: #ff7f0e; stroke: #ff7f0e"/>
     <use xlink:href="#m791c87de69" x="362.643349" y="232.188273" style="fill: #ff7f0e; stroke: #ff7f0e"/>
     <use xlink:href="#m791c87de69" x="350.985067" y="257.689472" style="fill: #ff7f0e; stroke: #ff7f0e"/>
     <use xlink:href="#m791c87de69" x="366.174793" y="216.295962" style="fill: #ff7f0e; stroke: #ff7f0e"/>
     <use xlink:href="#m791c87de69" x="345.546653" y="242.047993" style="fill: #ff7f0e; stroke: #ff7f0e"/>
     <use xlink:href="#m791c87de69" x="370.557382" y="239.109453" style="fill: #ff7f0e; stroke: #ff7f0e"/>
     <use xlink:href="#m791c87de69" x="354.487031" y="217.842766" style="fill: #ff7f0e; stroke: #ff7f0e"/>
     <use xlink:href="#m791c87de69" x="356.399747" y="202.453901" style="fill: #ff7f0e; stroke: #ff7f0e"/>
     <use xlink:href="#m791c87de69" x="340.994301" y="211.288495" style="fill: #ff7f0e; stroke: #ff7f0e"/>
     <use xlink:href="#m791c87de69" x="355.170872" y="273.527421" style="fill: #ff7f0e; stroke: #ff7f0e"/>
     <use xlink:href="#m791c87de69" x="374.649559" y="230.176308" style="fill: #ff7f0e; stroke: #ff7f0e"/>
     <use xlink:href="#m791c87de69" x="351.262603" y="279.173349" style="fill: #ff7f0e; stroke: #ff7f0e"/>
     <use xlink:href="#m791c87de69" x="368.926067" y="246.285103" style="fill: #ff7f0e; stroke: #ff7f0e"/>
     <use xlink:href="#m791c87de69" x="350.609634" y="143.018363" style="fill: #ff7f0e; stroke: #ff7f0e"/>
     <use xlink:href="#m791c87de69" x="352.649167" y="252.72697" style="fill: #ff7f0e; stroke: #ff7f0e"/>
     <use xlink:href="#m791c87de69" x="348.927746" y="158.789456" style="fill: #ff7f0e; stroke: #ff7f0e"/>
     <use xlink:href="#m791c87de69" x="346.710421" y="284.135991" style="fill: #ff7f0e; stroke: #ff7f0e"/>
     <use xlink:href="#m791c87de69" x="336.0932" y="211.855773" style="fill: #ff7f0e; stroke: #ff7f0e"/>
     <use xlink:href="#m791c87de69" x="368.305748" y="239.005221" style="fill: #ff7f0e; stroke: #ff7f0e"/>
     <use xlink:href="#m791c87de69" x="365.0242" y="266.674129" style="fill: #ff7f0e; stroke: #ff7f0e"/>
     <use xlink:href="#m791c87de69" x="367.057957" y="236.439417" style="fill: #ff7f0e; stroke: #ff7f0e"/>
     <use xlink:href="#m791c87de69" x="344.324536" y="224.730808" style="fill: #ff7f0e; stroke: #ff7f0e"/>
     <use xlink:href="#m791c87de69" x="343.34219" y="246.345815" style="fill: #ff7f0e; stroke: #ff7f0e"/>
     <use xlink:href="#m791c87de69" x="343.200109" y="270.645376" style="fill: #ff7f0e; stroke: #ff7f0e"/>
     <use xlink:href="#m791c87de69" x="334.188632" y="86.477489" style="fill: #ff7f0e; stroke: #ff7f0e"/>
     <use xlink:href="#m791c87de69" x="353.921055" y="203.301136" style="fill: #ff7f0e; stroke: #ff7f0e"/>
     <use xlink:href="#m791c87de69" x="359.684038" y="217.291972" style="fill: #ff7f0e; stroke: #ff7f0e"/>
     <use xlink:href="#m791c87de69" x="348.910842" y="209.433376" style="fill: #ff7f0e; stroke: #ff7f0e"/>
     <use xlink:href="#m791c87de69" x="361.262234" y="194.585249" style="fill: #ff7f0e; stroke: #ff7f0e"/>
     <use xlink:href="#m791c87de69" x="362.118041" y="292.404158" style="fill: #ff7f0e; stroke: #ff7f0e"/>
     <use xlink:href="#m791c87de69" x="370.256814" y="294.834545" style="fill: #ff7f0e; stroke: #ff7f0e"/>
     <use xlink:href="#m791c87de69" x="373.208916" y="291.442419" style="fill: #ff7f0e; stroke: #ff7f0e"/>
     <use xlink:href="#m791c87de69" x="370.611477" y="254.425166" style="fill: #ff7f0e; stroke: #ff7f0e"/>
     <use xlink:href="#m791c87de69" x="354.212299" y="277.698927" style="fill: #ff7f0e; stroke: #ff7f0e"/>
     <use xlink:href="#m791c87de69" x="371.469404" y="274.918006" style="fill: #ff7f0e; stroke: #ff7f0e"/>
     <use xlink:href="#m791c87de69" x="350.047389" y="261.277252" style="fill: #ff7f0e; stroke: #ff7f0e"/>
     <use xlink:href="#m791c87de69" x="367.142017" y="259.904029" style="fill: #ff7f0e; stroke: #ff7f0e"/>
     <use xlink:href="#m791c87de69" x="349.266883" y="241.14586" style="fill: #ff7f0e; stroke: #ff7f0e"/>
     <use xlink:href="#m791c87de69" x="367.969346" y="271.263318" style="fill: #ff7f0e; stroke: #ff7f0e"/>
     <use xlink:href="#m791c87de69" x="356.414526" y="278.544831" style="fill: #ff7f0e; stroke: #ff7f0e"/>
     <use xlink:href="#m791c87de69" x="354.082063" y="238.598246" style="fill: #ff7f0e; stroke: #ff7f0e"/>
     <use xlink:href="#m791c87de69" x="346.001927" y="202.30756" style="fill: #ff7f0e; stroke: #ff7f0e"/>
     <use xlink:href="#m791c87de69" x="347.155164" y="284.142978" style="fill: #ff7f0e; stroke: #ff7f0e"/>
     <use xlink:href="#m791c87de69" x="357.000458" y="187.709587" style="fill: #ff7f0e; stroke: #ff7f0e"/>
     <use xlink:href="#m791c87de69" x="363.967091" y="183.787808" style="fill: #ff7f0e; stroke: #ff7f0e"/>
     <use xlink:href="#m791c87de69" x="355.967248" y="233.605112" style="fill: #ff7f0e; stroke: #ff7f0e"/>
     <use xlink:href="#m791c87de69" x="360.125368" y="169.862709" style="fill: #ff7f0e; stroke: #ff7f0e"/>
     <use xlink:href="#m791c87de69" x="347.549624" y="253.549775" style="fill: #ff7f0e; stroke: #ff7f0e"/>
     <use xlink:href="#m791c87de69" x="356.270231" y="265.94824" style="fill: #ff7f0e; stroke: #ff7f0e"/>
     <use xlink:href="#m791c87de69" x="341.491349" y="195.03154" style="fill: #ff7f0e; stroke: #ff7f0e"/>
     <use xlink:href="#m791c87de69" x="359.314182" y="230.177422" style="fill: #ff7f0e; stroke: #ff7f0e"/>
     <use xlink:href="#m791c87de69" x="349.084264" y="236.104928" style="fill: #ff7f0e; stroke: #ff7f0e"/>
     <use xlink:href="#m791c87de69" x="335.998761" y="86.099069" style="fill: #ff7f0e; stroke: #ff7f0e"/>
     <use xlink:href="#m791c87de69" x="367.594688" y="218.089142" style="fill: #ff7f0e; stroke: #ff7f0e"/>
     <use xlink:href="#m791c87de69" x="347.530028" y="192.414385" style="fill: #ff7f0e; stroke: #ff7f0e"/>
     <use xlink:href="#m791c87de69" x="341.397398" y="226.137338" style="fill: #ff7f0e; stroke: #ff7f0e"/>
     <use xlink:href="#m791c87de69" x="366.618139" y="251.337687" style="fill: #ff7f0e; stroke: #ff7f0e"/>
     <use xlink:href="#m791c87de69" x="359.158473" y="244.865034" style="fill: #ff7f0e; stroke: #ff7f0e"/>
     <use xlink:href="#m791c87de69" x="356.788124" y="253.185859" style="fill: #ff7f0e; stroke: #ff7f0e"/>
     <use xlink:href="#m791c87de69" x="354.889209" y="191.232955" style="fill: #ff7f0e; stroke: #ff7f0e"/>
     <use xlink:href="#m791c87de69" x="355.409535" y="256.662575" style="fill: #ff7f0e; stroke: #ff7f0e"/>
     <use xlink:href="#m791c87de69" x="345.333516" y="251.598645" style="fill: #ff7f0e; stroke: #ff7f0e"/>
     <use xlink:href="#m791c87de69" x="373.713302" y="248.812983" style="fill: #ff7f0e; stroke: #ff7f0e"/>
     <use xlink:href="#m791c87de69" x="372.626363" y="239.374623" style="fill: #ff7f0e; stroke: #ff7f0e"/>
     <use xlink:href="#m791c87de69" x="347.152548" y="261.431953" style="fill: #ff7f0e; stroke: #ff7f0e"/>
     <use xlink:href="#m791c87de69" x="357.09679" y="261.525699" style="fill: #ff7f0e; stroke: #ff7f0e"/>
     <use xlink:href="#m791c87de69" x="349.277228" y="251.653112" style="fill: #ff7f0e; stroke: #ff7f0e"/>
     <use xlink:href="#m791c87de69" x="346.972888" y="256.615565" style="fill: #ff7f0e; stroke: #ff7f0e"/>
     <use xlink:href="#m791c87de69" x="365.629036" y="237.315315" style="fill: #ff7f0e; stroke: #ff7f0e"/>
     <use xlink:href="#m791c87de69" x="358.437296" y="233.000721" style="fill: #ff7f0e; stroke: #ff7f0e"/>
     <use xlink:href="#m791c87de69" x="357.279407" y="276.083341" style="fill: #ff7f0e; stroke: #ff7f0e"/>
     <use xlink:href="#m791c87de69" x="368.959623" y="249.778678" style="fill: #ff7f0e; stroke: #ff7f0e"/>
     <use xlink:href="#m791c87de69" x="359.314961" y="262.784548" style="fill: #ff7f0e; stroke: #ff7f0e"/>
     <use xlink:href="#m791c87de69" x="361.33466" y="226.492647" style="fill: #ff7f0e; stroke: #ff7f0e"/>
     <use xlink:href="#m791c87de69" x="355.157304" y="270.363947" style="fill: #ff7f0e; stroke: #ff7f0e"/>
     <use xlink:href="#m791c87de69" x="352.572104" y="234.783215" style="fill: #ff7f0e; stroke: #ff7f0e"/>
     <use xlink:href="#m791c87de69" x="362.96532" y="247.110032" style="fill: #ff7f0e; stroke: #ff7f0e"/>
     <use xlink:href="#m791c87de69" x="363.136169" y="182.582609" style="fill: #ff7f0e; stroke: #ff7f0e"/>
     <use xlink:href="#m791c87de69" x="351.931003" y="198.440735" style="fill: #ff7f0e; stroke: #ff7f0e"/>
     <use xlink:href="#m791c87de69" x="348.641368" y="246.819295" style="fill: #ff7f0e; stroke: #ff7f0e"/>
     <use xlink:href="#m791c87de69" x="360.632578" y="237.347762" style="fill: #ff7f0e; stroke: #ff7f0e"/>
     <use xlink:href="#m791c87de69" x="349.787023" y="216.599579" style="fill: #ff7f0e; stroke: #ff7f0e"/>
     <use xlink:href="#m791c87de69" x="353.081381" y="228.496272" style="fill: #ff7f0e; stroke: #ff7f0e"/>
     <use xlink:href="#m791c87de69" x="334.792248" y="233.847366" style="fill: #ff7f0e; stroke: #ff7f0e"/>
     <use xlink:href="#m791c87de69" x="354.736711" y="243.329408" style="fill: #ff7f0e; stroke: #ff7f0e"/>
     <use xlink:href="#m791c87de69" x="364.086628" y="204.493512" style="fill: #ff7f0e; stroke: #ff7f0e"/>
     <use xlink:href="#m791c87de69" x="351.968052" y="216.720316" style="fill: #ff7f0e; stroke: #ff7f0e"/>
     <use xlink:href="#m791c87de69" x="349.014308" y="248.22789" style="fill: #ff7f0e; stroke: #ff7f0e"/>
     <use xlink:href="#m791c87de69" x="349.360477" y="229.154878" style="fill: #ff7f0e; stroke: #ff7f0e"/>
     <use xlink:href="#m791c87de69" x="349.343958" y="253.879518" style="fill: #ff7f0e; stroke: #ff7f0e"/>
     <use xlink:href="#m791c87de69" x="369.457397" y="226.582133" style="fill: #ff7f0e; stroke: #ff7f0e"/>
     <use xlink:href="#m791c87de69" x="354.828386" y="240.118425" style="fill: #ff7f0e; stroke: #ff7f0e"/>
     <use xlink:href="#m791c87de69" x="353.777965" y="145.05709" style="fill: #ff7f0e; stroke: #ff7f0e"/>
     <use xlink:href="#m791c87de69" x="351.853513" y="155.214652" style="fill: #ff7f0e; stroke: #ff7f0e"/>
     <use xlink:href="#m791c87de69" x="355.804766" y="24.325455" style="fill: #ff7f0e; stroke: #ff7f0e"/>
     <use xlink:href="#m791c87de69" x="350.242428" y="183.579716" style="fill: #ff7f0e; stroke: #ff7f0e"/>
     <use xlink:href="#m791c87de69" x="347.262549" y="209.334791" style="fill: #ff7f0e; stroke: #ff7f0e"/>
     <use xlink:href="#m791c87de69" x="360.091122" y="71.503195" style="fill: #ff7f0e; stroke: #ff7f0e"/>
     <use xlink:href="#m791c87de69" x="354.643876" y="99.336672" style="fill: #ff7f0e; stroke: #ff7f0e"/>
     <use xlink:href="#m791c87de69" x="360.579369" y="122.376978" style="fill: #ff7f0e; stroke: #ff7f0e"/>
     <use xlink:href="#m791c87de69" x="351.30654" y="206.948975" style="fill: #ff7f0e; stroke: #ff7f0e"/>
     <use xlink:href="#m791c87de69" x="369.239708" y="187.107002" style="fill: #ff7f0e; stroke: #ff7f0e"/>
     <use xlink:href="#m791c87de69" x="359.082227" y="217.75352" style="fill: #ff7f0e; stroke: #ff7f0e"/>
     <use xlink:href="#m791c87de69" x="352.75819" y="212.34068" style="fill: #ff7f0e; stroke: #ff7f0e"/>
     <use xlink:href="#m791c87de69" x="355.127786" y="268.923661" style="fill: #ff7f0e; stroke: #ff7f0e"/>
     <use xlink:href="#m791c87de69" x="371.207833" y="253.823191" style="fill: #ff7f0e; stroke: #ff7f0e"/>
     <use xlink:href="#m791c87de69" x="350.665426" y="244.600283" style="fill: #ff7f0e; stroke: #ff7f0e"/>
     <use xlink:href="#m791c87de69" x="371.387627" y="249.161886" style="fill: #ff7f0e; stroke: #ff7f0e"/>
     <use xlink:href="#m791c87de69" x="348.162334" y="121.700124" style="fill: #ff7f0e; stroke: #ff7f0e"/>
     <use xlink:href="#m791c87de69" x="350.974087" y="181.119483" style="fill: #ff7f0e; stroke: #ff7f0e"/>
     <use xlink:href="#m791c87de69" x="340.050908" y="207.240911" style="fill: #ff7f0e; stroke: #ff7f0e"/>
     <use xlink:href="#m791c87de69" x="362.869757" y="177.975562" style="fill: #ff7f0e; stroke: #ff7f0e"/>
     <use xlink:href="#m791c87de69" x="345.558171" y="205.375768" style="fill: #ff7f0e; stroke: #ff7f0e"/>
     <use xlink:href="#m791c87de69" x="353.8928" y="186.716359" style="fill: #ff7f0e; stroke: #ff7f0e"/>
     <use xlink:href="#m791c87de69" x="355.217862" y="168.295279" style="fill: #ff7f0e; stroke: #ff7f0e"/>
     <use xlink:href="#m791c87de69" x="351.378753" y="135.031772" style="fill: #ff7f0e; stroke: #ff7f0e"/>
     <use xlink:href="#m791c87de69" x="348.604242" y="126.177028" style="fill: #ff7f0e; stroke: #ff7f0e"/>
     <use xlink:href="#m791c87de69" x="379.348406" y="205.545" style="fill: #ff7f0e; stroke: #ff7f0e"/>
     <use xlink:href="#m791c87de69" x="346.049194" y="176.188163" style="fill: #ff7f0e; stroke: #ff7f0e"/>
    </g>
   </g>
   <g id="patch_5">
    <path d="M 73.19 308.36 
L 73.19 10.8 
" style="fill: none; stroke: #000000; stroke-width: 0.8; stroke-linejoin: miter; stroke-linecap: square"/>
   </g>
   <g id="patch_6">
    <path d="M 450 308.36 
L 450 10.8 
" style="fill: none; stroke: #000000; stroke-width: 0.8; stroke-linejoin: miter; stroke-linecap: square"/>
   </g>
   <g id="patch_7">
    <path d="M 73.19 308.36 
L 450 308.36 
" style="fill: none; stroke: #000000; stroke-width: 0.8; stroke-linejoin: miter; stroke-linecap: square"/>
   </g>
   <g id="patch_8">
    <path d="M 73.19 10.8 
L 450 10.8 
" style="fill: none; stroke: #000000; stroke-width: 0.8; stroke-linejoin: miter; stroke-linecap: square"/>
   </g>
   <g id="text_13">
    <!-- p = 0.083 -->
    <g transform="translate(236.712188 110.899302) scale(0.1 -0.1)">
     <defs>
      <path id="DejaVuSerif-3d" d="M 678 2894 
L 4684 2894 
L 4684 2394 
L 678 2394 
L 678 2894 
z
M 678 1619 
L 4684 1619 
L 4684 1119 
L 678 1119 
L 678 1619 
z
" transform="scale(0.015625)"/>
      <path id="DejaVuSerif-2e" d="M 603 325 
Q 603 500 722 622 
Q 841 744 1019 744 
Q 1191 744 1312 622 
Q 1434 500 1434 325 
Q 1434 153 1312 31 
Q 1191 -91 1019 -91 
Q 841 -91 722 29 
Q 603 150 603 325 
z
" transform="scale(0.015625)"/>
      <path id="DejaVuSerif-33" d="M 622 4469 
Q 988 4606 1323 4678 
Q 1659 4750 1953 4750 
Q 2638 4750 3022 4454 
Q 3406 4159 3406 3634 
Q 3406 3213 3140 2930 
Q 2875 2647 2388 2547 
Q 2963 2466 3280 2130 
Q 3597 1794 3597 1259 
Q 3597 606 3158 257 
Q 2719 -91 1894 -91 
Q 1528 -91 1179 -12 
Q 831 66 488 225 
L 488 1131 
L 838 1131 
Q 869 681 1141 450 
Q 1413 219 1906 219 
Q 2384 219 2661 495 
Q 2938 772 2938 1253 
Q 2938 1803 2653 2086 
Q 2369 2369 1819 2369 
L 1522 2369 
L 1522 2688 
L 1678 2688 
Q 2225 2688 2498 2914 
Q 2772 3141 2772 3597 
Q 2772 4006 2547 4223 
Q 2322 4441 1900 4441 
Q 1478 4441 1245 4241 
Q 1013 4041 972 3647 
L 622 3647 
L 622 4469 
z
" transform="scale(0.015625)"/>
     </defs>
     <use xlink:href="#DejaVuSerif-70"/>
     <use xlink:href="#DejaVuSerif-20" x="64.013672"/>
     <use xlink:href="#DejaVuSerif-3d" x="95.800781"/>
     <use xlink:href="#DejaVuSerif-20" x="179.589844"/>
     <use xlink:href="#DejaVuSerif-30" x="211.376953"/>
     <use xlink:href="#DejaVuSerif-2e" x="275"/>
     <use xlink:href="#DejaVuSerif-30" x="306.787109"/>
     <use xlink:href="#DejaVuSerif-38" x="370.410156"/>
     <use xlink:href="#DejaVuSerif-33" x="434.033203"/>
    </g>
   </g>
  </g>
 </g>
 <defs>
  <clipPath id="pa82c835a5a">
   <rect x="73.19" y="10.8" width="376.81" height="297.56"/>
  </clipPath>
 </defs>
</svg>
