<?xml version="1.0" encoding="utf-8" standalone="no"?>
<!DOCTYPE svg PUBLIC "-//W3C//DTD SVG 1.1//EN"
  "http://www.w3.org/Graphics/SVG/1.1/DTD/svg11.dtd">
<svg xmlns:xlink="http://www.w3.org/1999/xlink" width="460.8pt" height="345.6pt" viewBox="0 0 460.8 345.6" xmlns="http://www.w3.org/2000/svg" version="1.1">
 <metadata>
  <rdf:RDF xmlns:dc="http://purl.org/dc/elements/1.1/" xmlns:cc="http://creativecommons.org/ns#" xmlns:rdf="http://www.w3.org/1999/02/22-rdf-syntax-ns#">
   <cc:Work>
    <dc:type rdf:resource="http://purl.org/dc/dcmitype/StillImage"/>
    <dc:date>2025-08-07T14:58:28.614895</dc:date>
    <dc:format>image/svg+xml</dc:format>
    <dc:creator>
     <cc:Agent>
      <dc:title>Matplotlib v3.10.0, https://matplotlib.org/</dc:title>
     </cc:Agent>
    </dc:creator>
   </cc:Work>
  </rdf:RDF>
 </metadata>
 <defs>
  <style type="text/css">*{stroke-linejoin: round; stroke-linecap: butt}</style>
 </defs>
 <g id="figure_1">
  <g id="patch_1">
   <path d="M 0 345.6 
L 460.8 345.6 
L 460.8 0 
L 0 0 
z
" style="fill: #ffffff"/>
  </g>
  <g id="axes_1">
   <g id="patch_2">
    <path d="M 28.96 319.16 
L 450 319.16 
L 450 10.8 
L 28.96 10.8 
z
" style="fill: #ffffff"/>
   </g>
   <g id="patch_3">
    <path d="M 48.098182 319.16 
L 82.894876 319.16 
L 82.894876 60.03395 
L 48.098182 60.03395 
z
" clip-path="url(#pedf98f959c)" style="fill: #808080"/>
   </g>
   <g id="patch_4">
    <path d="M 86.761175 319.16 
L 121.55787 319.16 
L 121.55787 94.58409 
L 86.761175 94.58409 
z
" clip-path="url(#pedf98f959c)" style="fill: #808080"/>
   </g>
   <g id="patch_5">
    <path d="M 125.424169 319.16 
L 160.220863 319.16 
L 160.220863 42.75888 
L 125.424169 42.75888 
z
" clip-path="url(#pedf98f959c)" style="fill: #808080"/>
   </g>
   <g id="patch_6">
    <path d="M 164.087163 319.16 
L 198.883857 319.16 
L 198.883857 25.48381 
L 164.087163 25.48381 
z
" clip-path="url(#pedf98f959c)" style="fill: #808080"/>
   </g>
   <g id="patch_7">
    <path d="M 202.750156 319.16 
L 237.54685 319.16 
L 237.54685 111.85916 
L 202.750156 111.85916 
z
" clip-path="url(#pedf98f959c)" style="fill: #808080"/>
   </g>
   <g id="patch_8">
    <path d="M 241.41315 319.16 
L 276.209844 319.16 
L 276.209844 111.85916 
L 241.41315 111.85916 
z
" clip-path="url(#pedf98f959c)" style="fill: #808080"/>
   </g>
   <g id="patch_9">
    <path d="M 280.076143 319.16 
L 314.872837 319.16 
L 314.872837 111.85916 
L 280.076143 111.85916 
z
" clip-path="url(#pedf98f959c)" style="fill: #808080"/>
   </g>
   <g id="patch_10">
    <path d="M 318.739137 319.16 
L 353.535831 319.16 
L 353.535831 180.95944 
L 318.739137 180.95944 
z
" clip-path="url(#pedf98f959c)" style="fill: #808080"/>
   </g>
   <g id="patch_11">
    <path d="M 357.40213 319.16 
L 392.198825 319.16 
L 392.198825 129.13423 
L 357.40213 129.13423 
z
" clip-path="url(#pedf98f959c)" style="fill: #808080"/>
   </g>
   <g id="patch_12">
    <path d="M 396.065124 319.16 
L 430.861818 319.16 
L 430.861818 111.85916 
L 396.065124 111.85916 
z
" clip-path="url(#pedf98f959c)" style="fill: #808080"/>
   </g>
   <g id="patch_13">
    <path d="M 50.997906 319.16 
L 79.995152 319.16 
L 79.995152 267.33479 
L 50.997906 267.33479 
z
" clip-path="url(#pedf98f959c)" style="fill: #8b0000"/>
   </g>
   <g id="patch_14">
    <path d="M 89.6609 319.16 
L 118.658145 319.16 
L 118.658145 232.78465 
L 89.6609 232.78465 
z
" clip-path="url(#pedf98f959c)" style="fill: #8b0000"/>
   </g>
   <g id="patch_15">
    <path d="M 128.323893 319.16 
L 157.321139 319.16 
L 157.321139 284.60986 
L 128.323893 284.60986 
z
" clip-path="url(#pedf98f959c)" style="fill: #8b0000"/>
   </g>
   <g id="patch_16">
    <path d="M 166.986887 319.16 
L 195.984132 319.16 
L 195.984132 284.60986 
L 166.986887 284.60986 
z
" clip-path="url(#pedf98f959c)" style="fill: #8b0000"/>
   </g>
   <g id="patch_17">
    <path d="M 205.649881 319.16 
L 234.647126 319.16 
L 234.647126 232.78465 
L 205.649881 232.78465 
z
" clip-path="url(#pedf98f959c)" style="fill: #8b0000"/>
   </g>
   <g id="patch_18">
    <path d="M 244.312874 319.16 
L 273.310119 319.16 
L 273.310119 215.50958 
L 244.312874 215.50958 
z
" clip-path="url(#pedf98f959c)" style="fill: #8b0000"/>
   </g>
   <g id="patch_19">
    <path d="M 282.975868 319.16 
L 311.973113 319.16 
L 311.973113 215.50958 
L 282.975868 215.50958 
z
" clip-path="url(#pedf98f959c)" style="fill: #8b0000"/>
   </g>
   <g id="patch_20">
    <path d="M 321.638861 319.16 
L 350.636107 319.16 
L 350.636107 146.4093 
L 321.638861 146.4093 
z
" clip-path="url(#pedf98f959c)" style="fill: #8b0000"/>
   </g>
   <g id="patch_21">
    <path d="M 360.301855 319.16 
L 389.2991 319.16 
L 389.2991 198.23451 
L 360.301855 198.23451 
z
" clip-path="url(#pedf98f959c)" style="fill: #8b0000"/>
   </g>
   <g id="patch_22">
    <path d="M 398.964848 319.16 
L 427.962094 319.16 
L 427.962094 232.78465 
L 398.964848 232.78465 
z
" clip-path="url(#pedf98f959c)" style="fill: #8b0000"/>
   </g>
   <g id="matplotlib.axis_1">
    <g id="xtick_1">
     <g id="line2d_1">
      <defs>
       <path id="m770c2d4a1b" d="M 0 0 
L 0 3.5 
" style="stroke: #000000; stroke-width: 0.8"/>
      </defs>
      <g>
       <use xlink:href="#m770c2d4a1b" x="84.828026" y="319.16" style="stroke: #000000; stroke-width: 0.8"/>
      </g>
     </g>
     <g id="text_1">
      <!-- 2 -->
      <g transform="translate(82.047557 333.317812) scale(0.1 -0.1)">
       <defs>
        <path id="ArialMT-32" d="M 3222 541 
L 3222 0 
L 194 0 
Q 188 203 259 391 
Q 375 700 629 1000 
Q 884 1300 1366 1694 
Q 2113 2306 2375 2664 
Q 2638 3022 2638 3341 
Q 2638 3675 2398 3904 
Q 2159 4134 1775 4134 
Q 1369 4134 1125 3890 
Q 881 3647 878 3216 
L 300 3275 
Q 359 3922 746 4261 
Q 1134 4600 1788 4600 
Q 2447 4600 2831 4234 
Q 3216 3869 3216 3328 
Q 3216 3053 3103 2787 
Q 2991 2522 2730 2228 
Q 2469 1934 1863 1422 
Q 1356 997 1212 845 
Q 1069 694 975 541 
L 3222 541 
z
" transform="scale(0.015625)"/>
       </defs>
       <use xlink:href="#ArialMT-32"/>
      </g>
     </g>
    </g>
    <g id="xtick_2">
     <g id="line2d_2">
      <g>
       <use xlink:href="#m770c2d4a1b" x="162.154013" y="319.16" style="stroke: #000000; stroke-width: 0.8"/>
      </g>
     </g>
     <g id="text_2">
      <!-- 4 -->
      <g transform="translate(159.373544 333.317812) scale(0.1 -0.1)">
       <defs>
        <path id="ArialMT-34" d="M 2069 0 
L 2069 1097 
L 81 1097 
L 81 1613 
L 2172 4581 
L 2631 4581 
L 2631 1613 
L 3250 1613 
L 3250 1097 
L 2631 1097 
L 2631 0 
L 2069 0 
z
M 2069 1613 
L 2069 3678 
L 634 1613 
L 2069 1613 
z
" transform="scale(0.015625)"/>
       </defs>
       <use xlink:href="#ArialMT-34"/>
      </g>
     </g>
    </g>
    <g id="xtick_3">
     <g id="line2d_3">
      <g>
       <use xlink:href="#m770c2d4a1b" x="239.48" y="319.16" style="stroke: #000000; stroke-width: 0.8"/>
      </g>
     </g>
     <g id="text_3">
      <!-- 6 -->
      <g transform="translate(236.699531 333.317812) scale(0.1 -0.1)">
       <defs>
        <path id="ArialMT-36" d="M 3184 3459 
L 2625 3416 
Q 2550 3747 2413 3897 
Q 2184 4138 1850 4138 
Q 1581 4138 1378 3988 
Q 1113 3794 959 3422 
Q 806 3050 800 2363 
Q 1003 2672 1297 2822 
Q 1591 2972 1913 2972 
Q 2475 2972 2870 2558 
Q 3266 2144 3266 1488 
Q 3266 1056 3080 686 
Q 2894 316 2569 119 
Q 2244 -78 1831 -78 
Q 1128 -78 684 439 
Q 241 956 241 2144 
Q 241 3472 731 4075 
Q 1159 4600 1884 4600 
Q 2425 4600 2770 4297 
Q 3116 3994 3184 3459 
z
M 888 1484 
Q 888 1194 1011 928 
Q 1134 663 1356 523 
Q 1578 384 1822 384 
Q 2178 384 2434 671 
Q 2691 959 2691 1453 
Q 2691 1928 2437 2201 
Q 2184 2475 1800 2475 
Q 1419 2475 1153 2201 
Q 888 1928 888 1484 
z
" transform="scale(0.015625)"/>
       </defs>
       <use xlink:href="#ArialMT-36"/>
      </g>
     </g>
    </g>
    <g id="xtick_4">
     <g id="line2d_4">
      <g>
       <use xlink:href="#m770c2d4a1b" x="316.805987" y="319.16" style="stroke: #000000; stroke-width: 0.8"/>
      </g>
     </g>
     <g id="text_4">
      <!-- 8 -->
      <g transform="translate(314.025518 333.317812) scale(0.1 -0.1)">
       <defs>
        <path id="ArialMT-38" d="M 1131 2484 
Q 781 2613 612 2850 
Q 444 3088 444 3419 
Q 444 3919 803 4259 
Q 1163 4600 1759 4600 
Q 2359 4600 2725 4251 
Q 3091 3903 3091 3403 
Q 3091 3084 2923 2848 
Q 2756 2613 2416 2484 
Q 2838 2347 3058 2040 
Q 3278 1734 3278 1309 
Q 3278 722 2862 322 
Q 2447 -78 1769 -78 
Q 1091 -78 675 323 
Q 259 725 259 1325 
Q 259 1772 486 2073 
Q 713 2375 1131 2484 
z
M 1019 3438 
Q 1019 3113 1228 2906 
Q 1438 2700 1772 2700 
Q 2097 2700 2305 2904 
Q 2513 3109 2513 3406 
Q 2513 3716 2298 3927 
Q 2084 4138 1766 4138 
Q 1444 4138 1231 3931 
Q 1019 3725 1019 3438 
z
M 838 1322 
Q 838 1081 952 856 
Q 1066 631 1291 507 
Q 1516 384 1775 384 
Q 2178 384 2440 643 
Q 2703 903 2703 1303 
Q 2703 1709 2433 1975 
Q 2163 2241 1756 2241 
Q 1359 2241 1098 1978 
Q 838 1716 838 1322 
z
" transform="scale(0.015625)"/>
       </defs>
       <use xlink:href="#ArialMT-38"/>
      </g>
     </g>
    </g>
    <g id="xtick_5">
     <g id="line2d_5">
      <g>
       <use xlink:href="#m770c2d4a1b" x="394.131974" y="319.16" style="stroke: #000000; stroke-width: 0.8"/>
      </g>
     </g>
     <g id="text_5">
      <!-- 10 -->
      <g transform="translate(388.571037 333.317812) scale(0.1 -0.1)">
       <defs>
        <path id="ArialMT-31" d="M 2384 0 
L 1822 0 
L 1822 3584 
Q 1619 3391 1289 3197 
Q 959 3003 697 2906 
L 697 3450 
Q 1169 3672 1522 3987 
Q 1875 4303 2022 4600 
L 2384 4600 
L 2384 0 
z
" transform="scale(0.015625)"/>
        <path id="ArialMT-30" d="M 266 2259 
Q 266 3072 433 3567 
Q 600 4063 929 4331 
Q 1259 4600 1759 4600 
Q 2128 4600 2406 4451 
Q 2684 4303 2865 4023 
Q 3047 3744 3150 3342 
Q 3253 2941 3253 2259 
Q 3253 1453 3087 958 
Q 2922 463 2592 192 
Q 2263 -78 1759 -78 
Q 1097 -78 719 397 
Q 266 969 266 2259 
z
M 844 2259 
Q 844 1131 1108 757 
Q 1372 384 1759 384 
Q 2147 384 2411 759 
Q 2675 1134 2675 2259 
Q 2675 3391 2411 3762 
Q 2147 4134 1753 4134 
Q 1366 4134 1134 3806 
Q 844 3388 844 2259 
z
" transform="scale(0.015625)"/>
       </defs>
       <use xlink:href="#ArialMT-31"/>
       <use xlink:href="#ArialMT-30" transform="translate(55.615234 0)"/>
      </g>
     </g>
    </g>
   </g>
   <g id="matplotlib.axis_2">
    <g id="ytick_1">
     <g id="line2d_6">
      <defs>
       <path id="m0a60688770" d="M 0 0 
L -3.5 0 
" style="stroke: #000000; stroke-width: 0.8"/>
      </defs>
      <g>
       <use xlink:href="#m0a60688770" x="28.96" y="319.16" style="stroke: #000000; stroke-width: 0.8"/>
      </g>
     </g>
     <g id="text_6">
      <!-- 0 -->
      <g transform="translate(16.399062 322.738906) scale(0.1 -0.1)">
       <use xlink:href="#ArialMT-30"/>
      </g>
     </g>
    </g>
    <g id="ytick_2">
     <g id="line2d_7">
      <g>
       <use xlink:href="#m0a60688770" x="28.96" y="284.60986" style="stroke: #000000; stroke-width: 0.8"/>
      </g>
     </g>
     <g id="text_7">
      <!-- 2 -->
      <g transform="translate(16.399062 288.188766) scale(0.1 -0.1)">
       <use xlink:href="#ArialMT-32"/>
      </g>
     </g>
    </g>
    <g id="ytick_3">
     <g id="line2d_8">
      <g>
       <use xlink:href="#m0a60688770" x="28.96" y="250.05972" style="stroke: #000000; stroke-width: 0.8"/>
      </g>
     </g>
     <g id="text_8">
      <!-- 4 -->
      <g transform="translate(16.399062 253.638626) scale(0.1 -0.1)">
       <use xlink:href="#ArialMT-34"/>
      </g>
     </g>
    </g>
    <g id="ytick_4">
     <g id="line2d_9">
      <g>
       <use xlink:href="#m0a60688770" x="28.96" y="215.50958" style="stroke: #000000; stroke-width: 0.8"/>
      </g>
     </g>
     <g id="text_9">
      <!-- 6 -->
      <g transform="translate(16.399062 219.088486) scale(0.1 -0.1)">
       <use xlink:href="#ArialMT-36"/>
      </g>
     </g>
    </g>
    <g id="ytick_5">
     <g id="line2d_10">
      <g>
       <use xlink:href="#m0a60688770" x="28.96" y="180.95944" style="stroke: #000000; stroke-width: 0.8"/>
      </g>
     </g>
     <g id="text_10">
      <!-- 8 -->
      <g transform="translate(16.399062 184.538346) scale(0.1 -0.1)">
       <use xlink:href="#ArialMT-38"/>
      </g>
     </g>
    </g>
    <g id="ytick_6">
     <g id="line2d_11">
      <g>
       <use xlink:href="#m0a60688770" x="28.96" y="146.4093" style="stroke: #000000; stroke-width: 0.8"/>
      </g>
     </g>
     <g id="text_11">
      <!-- 10 -->
      <g transform="translate(10.838125 149.988206) scale(0.1 -0.1)">
       <use xlink:href="#ArialMT-31"/>
       <use xlink:href="#ArialMT-30" transform="translate(55.615234 0)"/>
      </g>
     </g>
    </g>
    <g id="ytick_7">
     <g id="line2d_12">
      <g>
       <use xlink:href="#m0a60688770" x="28.96" y="111.85916" style="stroke: #000000; stroke-width: 0.8"/>
      </g>
     </g>
     <g id="text_12">
      <!-- 12 -->
      <g transform="translate(10.838125 115.438066) scale(0.1 -0.1)">
       <use xlink:href="#ArialMT-31"/>
       <use xlink:href="#ArialMT-32" transform="translate(55.615234 0)"/>
      </g>
     </g>
    </g>
    <g id="ytick_8">
     <g id="line2d_13">
      <g>
       <use xlink:href="#m0a60688770" x="28.96" y="77.30902" style="stroke: #000000; stroke-width: 0.8"/>
      </g>
     </g>
     <g id="text_13">
      <!-- 14 -->
      <g transform="translate(10.838125 80.887926) scale(0.1 -0.1)">
       <use xlink:href="#ArialMT-31"/>
       <use xlink:href="#ArialMT-34" transform="translate(55.615234 0)"/>
      </g>
     </g>
    </g>
    <g id="ytick_9">
     <g id="line2d_14">
      <g>
       <use xlink:href="#m0a60688770" x="28.96" y="42.75888" style="stroke: #000000; stroke-width: 0.8"/>
      </g>
     </g>
     <g id="text_14">
      <!-- 16 -->
      <g transform="translate(10.838125 46.337786) scale(0.1 -0.1)">
       <use xlink:href="#ArialMT-31"/>
       <use xlink:href="#ArialMT-36" transform="translate(55.615234 0)"/>
      </g>
     </g>
    </g>
   </g>
   <g id="patch_23">
    <path d="M 28.96 319.16 
L 28.96 10.8 
" style="fill: none; stroke: #000000; stroke-width: 0.8; stroke-linejoin: miter; stroke-linecap: square"/>
   </g>
   <g id="patch_24">
    <path d="M 450 319.16 
L 450 10.8 
" style="fill: none; stroke: #000000; stroke-width: 0.8; stroke-linejoin: miter; stroke-linecap: square"/>
   </g>
   <g id="patch_25">
    <path d="M 28.96 319.16 
L 450 319.16 
" style="fill: none; stroke: #000000; stroke-width: 0.8; stroke-linejoin: miter; stroke-linecap: square"/>
   </g>
   <g id="patch_26">
    <path d="M 28.96 10.8 
L 450 10.8 
" style="fill: none; stroke: #000000; stroke-width: 0.8; stroke-linejoin: miter; stroke-linecap: square"/>
   </g>
  </g>
 </g>
 <defs>
  <clipPath id="pedf98f959c">
   <rect x="28.96" y="10.8" width="421.04" height="308.36"/>
  </clipPath>
 </defs>
</svg>
