<?xml version="1.0" encoding="utf-8" standalone="no"?>
<!DOCTYPE svg PUBLIC "-//W3C//DTD SVG 1.1//EN"
  "http://www.w3.org/Graphics/SVG/1.1/DTD/svg11.dtd">
<svg xmlns:xlink="http://www.w3.org/1999/xlink" width="288pt" height="432pt" viewBox="0 0 288 432" xmlns="http://www.w3.org/2000/svg" version="1.1">
 <metadata>
  <rdf:RDF xmlns:dc="http://purl.org/dc/elements/1.1/" xmlns:cc="http://creativecommons.org/ns#" xmlns:rdf="http://www.w3.org/1999/02/22-rdf-syntax-ns#">
   <cc:Work>
    <dc:type rdf:resource="http://purl.org/dc/dcmitype/StillImage"/>
    <dc:date>2025-06-03T15:16:11.723197</dc:date>
    <dc:format>image/svg+xml</dc:format>
    <dc:creator>
     <cc:Agent>
      <dc:title>Matplotlib v3.9.2, https://matplotlib.org/</dc:title>
     </cc:Agent>
    </dc:creator>
   </cc:Work>
  </rdf:RDF>
 </metadata>
 <defs>
  <style type="text/css">*{stroke-linejoin: round; stroke-linecap: butt}</style>
 </defs>
 <g id="figure_1">
  <g id="patch_1">
   <path d="M 0 432 
L 288 432 
L 288 0 
L 0 0 
z
" style="fill: #ffffff"/>
  </g>
  <g id="axes_1">
   <g id="patch_2">
    <path d="M 38.27 404.12 
L 277.2 404.12 
L 277.2 26.16 
L 38.27 26.16 
z
" style="fill: #ffffff"/>
   </g>
   <g id="PathCollection_1">
    <defs>
     <path id="m0d5a5c14b5" d="M 0 5 
C 1.326016 5 2.597899 4.473168 3.535534 3.535534 
C 4.473168 2.597899 5 1.326016 5 0 
C 5 -1.326016 4.473168 -2.597899 3.535534 -3.535534 
C 2.597899 -4.473168 1.326016 -5 0 -5 
C -1.326016 -5 -2.597899 -4.473168 -3.535534 -3.535534 
C -4.473168 -2.597899 -5 -1.326016 -5 0 
C -5 1.326016 -4.473168 2.597899 -3.535534 3.535534 
C -2.597899 4.473168 -1.326016 5 0 5 
z
"/>
    </defs>
    <g clip-path="url(#pdafc3cc883)">
     <use xlink:href="#m0d5a5c14b5" x="103.552547" y="311.531629" style="fill: #ff0000; fill-opacity: 0.5"/>
     <use xlink:href="#m0d5a5c14b5" x="93.972025" y="282.996734" style="fill: #ff0000; fill-opacity: 0.5"/>
     <use xlink:href="#m0d5a5c14b5" x="107.27791" y="217.520716" style="fill: #ff0000; fill-opacity: 0.5"/>
     <use xlink:href="#m0d5a5c14b5" x="94.818389" y="293.370319" style="fill: #ff0000; fill-opacity: 0.5"/>
     <use xlink:href="#m0d5a5c14b5" x="106.144796" y="209.200766" style="fill: #ff0000; fill-opacity: 0.5"/>
     <use xlink:href="#m0d5a5c14b5" x="94.194968" y="284.836583" style="fill: #ff0000; fill-opacity: 0.5"/>
     <use xlink:href="#m0d5a5c14b5" x="105.606974" y="49.837364" style="fill: #ff0000; fill-opacity: 0.5"/>
     <use xlink:href="#m0d5a5c14b5" x="94.928505" y="263.798646" style="fill: #ff0000; fill-opacity: 0.5"/>
     <use xlink:href="#m0d5a5c14b5" x="94.686034" y="163.525247" style="fill: #ff0000; fill-opacity: 0.5"/>
     <use xlink:href="#m0d5a5c14b5" x="102.46963" y="321.80743" style="fill: #ff0000; fill-opacity: 0.5"/>
     <use xlink:href="#m0d5a5c14b5" x="104.069514" y="215.666188" style="fill: #ff0000; fill-opacity: 0.5"/>
     <use xlink:href="#m0d5a5c14b5" x="100.170316" y="321.118178" style="fill: #ff0000; fill-opacity: 0.5"/>
     <use xlink:href="#m0d5a5c14b5" x="88.954776" y="304.334269" style="fill: #ff0000; fill-opacity: 0.5"/>
     <use xlink:href="#m0d5a5c14b5" x="104.670464" y="265.273446" style="fill: #ff0000; fill-opacity: 0.5"/>
     <use xlink:href="#m0d5a5c14b5" x="94.47715" y="302.443733" style="fill: #ff0000; fill-opacity: 0.5"/>
     <use xlink:href="#m0d5a5c14b5" x="100.729675" y="354.029089" style="fill: #ff0000; fill-opacity: 0.5"/>
     <use xlink:href="#m0d5a5c14b5" x="95.033087" y="274.527838" style="fill: #ff0000; fill-opacity: 0.5"/>
     <use xlink:href="#m0d5a5c14b5" x="93.326188" y="282.002866" style="fill: #ff0000; fill-opacity: 0.5"/>
     <use xlink:href="#m0d5a5c14b5" x="99.42234" y="354.166505" style="fill: #ff0000; fill-opacity: 0.5"/>
     <use xlink:href="#m0d5a5c14b5" x="107.175759" y="228.164039" style="fill: #ff0000; fill-opacity: 0.5"/>
     <use xlink:href="#m0d5a5c14b5" x="99.23167" y="265.347656" style="fill: #ff0000; fill-opacity: 0.5"/>
     <use xlink:href="#m0d5a5c14b5" x="103.426526" y="386.94" style="fill: #ff0000; fill-opacity: 0.5"/>
     <use xlink:href="#m0d5a5c14b5" x="82.153434" y="242.543963" style="fill: #ff0000; fill-opacity: 0.5"/>
     <use xlink:href="#m0d5a5c14b5" x="111.032886" y="344.452196" style="fill: #ff0000; fill-opacity: 0.5"/>
     <use xlink:href="#m0d5a5c14b5" x="97.228596" y="304.334269" style="fill: #ff0000; fill-opacity: 0.5"/>
     <use xlink:href="#m0d5a5c14b5" x="101.389618" y="43.34" style="fill: #ff0000; fill-opacity: 0.5"/>
     <use xlink:href="#m0d5a5c14b5" x="96.210616" y="336.043229" style="fill: #ff0000; fill-opacity: 0.5"/>
     <use xlink:href="#m0d5a5c14b5" x="92.803549" y="247.440175" style="fill: #ff0000; fill-opacity: 0.5"/>
     <use xlink:href="#m0d5a5c14b5" x="91.567158" y="119.233119" style="fill: #ff0000; fill-opacity: 0.5"/>
     <use xlink:href="#m0d5a5c14b5" x="104.297746" y="278.825444" style="fill: #ff0000; fill-opacity: 0.5"/>
     <use xlink:href="#m0d5a5c14b5" x="104.003325" y="284.175713" style="fill: #ff0000; fill-opacity: 0.5"/>
    </g>
   </g>
   <g id="PathCollection_2">
    <defs>
     <path id="m81b7c7a59e" d="M 0 5 
C 1.326016 5 2.597899 4.473168 3.535534 3.535534 
C 4.473168 2.597899 5 1.326016 5 0 
C 5 -1.326016 4.473168 -2.597899 3.535534 -3.535534 
C 2.597899 -4.473168 1.326016 -5 0 -5 
C -1.326016 -5 -2.597899 -4.473168 -3.535534 -3.535534 
C -4.473168 -2.597899 -5 -1.326016 -5 0 
C -5 1.326016 -4.473168 2.597899 -3.535534 3.535534 
C -2.597899 4.473168 -1.326016 5 0 5 
z
"/>
    </defs>
    <g clip-path="url(#pdafc3cc883)">
     <use xlink:href="#m81b7c7a59e" x="222.535361" y="277.374177" style="fill: #808080; fill-opacity: 0.5"/>
     <use xlink:href="#m81b7c7a59e" x="217.336756" y="361.803876" style="fill: #808080; fill-opacity: 0.5"/>
     <use xlink:href="#m81b7c7a59e" x="222.350899" y="287.660267" style="fill: #808080; fill-opacity: 0.5"/>
     <use xlink:href="#m81b7c7a59e" x="214.951804" y="326.853172" style="fill: #808080; fill-opacity: 0.5"/>
     <use xlink:href="#m81b7c7a59e" x="214.555825" y="321.80743" style="fill: #808080; fill-opacity: 0.5"/>
     <use xlink:href="#m81b7c7a59e" x="217.027223" y="190.942698" style="fill: #808080; fill-opacity: 0.5"/>
     <use xlink:href="#m81b7c7a59e" x="224.69042" y="131.306029" style="fill: #808080; fill-opacity: 0.5"/>
     <use xlink:href="#m81b7c7a59e" x="218.100144" y="286.845371" style="fill: #808080; fill-opacity: 0.5"/>
     <use xlink:href="#m81b7c7a59e" x="225.474597" y="333.61823" style="fill: #808080; fill-opacity: 0.5"/>
     <use xlink:href="#m81b7c7a59e" x="220.885616" y="354.166505" style="fill: #808080; fill-opacity: 0.5"/>
     <use xlink:href="#m81b7c7a59e" x="228.367863" y="325.369323" style="fill: #808080; fill-opacity: 0.5"/>
     <use xlink:href="#m81b7c7a59e" x="221.492071" y="323.208295" style="fill: #808080; fill-opacity: 0.5"/>
     <use xlink:href="#m81b7c7a59e" x="212.883415" y="326.928327" style="fill: #808080; fill-opacity: 0.5"/>
     <use xlink:href="#m81b7c7a59e" x="213.237249" y="204.440169" style="fill: #808080; fill-opacity: 0.5"/>
     <use xlink:href="#m81b7c7a59e" x="221.384317" y="312.132502" style="fill: #808080; fill-opacity: 0.5"/>
     <use xlink:href="#m81b7c7a59e" x="219.074934" y="264.829136" style="fill: #808080; fill-opacity: 0.5"/>
     <use xlink:href="#m81b7c7a59e" x="220.429226" y="352.685238" style="fill: #808080; fill-opacity: 0.5"/>
     <use xlink:href="#m81b7c7a59e" x="216.847762" y="310.698362" style="fill: #808080; fill-opacity: 0.5"/>
     <use xlink:href="#m81b7c7a59e" x="231.299025" y="336.667753" style="fill: #808080; fill-opacity: 0.5"/>
     <use xlink:href="#m81b7c7a59e" x="212.884352" y="309.05857" style="fill: #808080; fill-opacity: 0.5"/>
     <use xlink:href="#m81b7c7a59e" x="211.882085" y="174.076528" style="fill: #808080; fill-opacity: 0.5"/>
     <use xlink:href="#m81b7c7a59e" x="218.304911" y="334.043111" style="fill: #808080; fill-opacity: 0.5"/>
     <use xlink:href="#m81b7c7a59e" x="226.3736" y="359.404756" style="fill: #808080; fill-opacity: 0.5"/>
     <use xlink:href="#m81b7c7a59e" x="214.236338" y="270.117854" style="fill: #808080; fill-opacity: 0.5"/>
     <use xlink:href="#m81b7c7a59e" x="220.802547" y="301.964393" style="fill: #808080; fill-opacity: 0.5"/>
     <use xlink:href="#m81b7c7a59e" x="217.385536" y="300.385764" style="fill: #808080; fill-opacity: 0.5"/>
     <use xlink:href="#m81b7c7a59e" x="210.189331" y="263.798646" style="fill: #808080; fill-opacity: 0.5"/>
     <use xlink:href="#m81b7c7a59e" x="221.330579" y="345.528012" style="fill: #808080; fill-opacity: 0.5"/>
     <use xlink:href="#m81b7c7a59e" x="228.964526" y="354.166505" style="fill: #808080; fill-opacity: 0.5"/>
     <use xlink:href="#m81b7c7a59e" x="224.509334" y="356.896586" style="fill: #808080; fill-opacity: 0.5"/>
     <use xlink:href="#m81b7c7a59e" x="218.060934" y="314.088593" style="fill: #808080; fill-opacity: 0.5"/>
     <use xlink:href="#m81b7c7a59e" x="224.999569" y="246.537255" style="fill: #808080; fill-opacity: 0.5"/>
     <use xlink:href="#m81b7c7a59e" x="215.217732" y="130.073202" style="fill: #808080; fill-opacity: 0.5"/>
     <use xlink:href="#m81b7c7a59e" x="201.041862" y="286.081793" style="fill: #808080; fill-opacity: 0.5"/>
     <use xlink:href="#m81b7c7a59e" x="218.89524" y="137.561566" style="fill: #808080; fill-opacity: 0.5"/>
     <use xlink:href="#m81b7c7a59e" x="202.487336" y="254.271876" style="fill: #808080; fill-opacity: 0.5"/>
     <use xlink:href="#m81b7c7a59e" x="210.185447" y="300.908755" style="fill: #808080; fill-opacity: 0.5"/>
     <use xlink:href="#m81b7c7a59e" x="208.196992" y="301.329448" style="fill: #808080; fill-opacity: 0.5"/>
     <use xlink:href="#m81b7c7a59e" x="221.031677" y="331.542682" style="fill: #808080; fill-opacity: 0.5"/>
     <use xlink:href="#m81b7c7a59e" x="218.628275" y="386.94" style="fill: #808080; fill-opacity: 0.5"/>
     <use xlink:href="#m81b7c7a59e" x="205.355975" y="215.53449" style="fill: #808080; fill-opacity: 0.5"/>
     <use xlink:href="#m81b7c7a59e" x="218.446885" y="121.603751" style="fill: #808080; fill-opacity: 0.5"/>
     <use xlink:href="#m81b7c7a59e" x="223.514801" y="312.132502" style="fill: #808080; fill-opacity: 0.5"/>
     <use xlink:href="#m81b7c7a59e" x="213.31078" y="363.093779" style="fill: #808080; fill-opacity: 0.5"/>
     <use xlink:href="#m81b7c7a59e" x="224.371912" y="331.542682" style="fill: #808080; fill-opacity: 0.5"/>
     <use xlink:href="#m81b7c7a59e" x="219.531465" y="356.154662" style="fill: #808080; fill-opacity: 0.5"/>
     <use xlink:href="#m81b7c7a59e" x="226.451691" y="278.201101" style="fill: #808080; fill-opacity: 0.5"/>
     <use xlink:href="#m81b7c7a59e" x="222.174426" y="231.990528" style="fill: #808080; fill-opacity: 0.5"/>
     <use xlink:href="#m81b7c7a59e" x="210.447033" y="343.402957" style="fill: #808080; fill-opacity: 0.5"/>
     <use xlink:href="#m81b7c7a59e" x="221.759333" y="331.869512" style="fill: #808080; fill-opacity: 0.5"/>
     <use xlink:href="#m81b7c7a59e" x="221.693658" y="261.979621" style="fill: #808080; fill-opacity: 0.5"/>
     <use xlink:href="#m81b7c7a59e" x="226.802639" y="320.436068" style="fill: #808080; fill-opacity: 0.5"/>
     <use xlink:href="#m81b7c7a59e" x="218.155898" y="325.369323" style="fill: #808080; fill-opacity: 0.5"/>
     <use xlink:href="#m81b7c7a59e" x="230.453901" y="386.94" style="fill: #808080; fill-opacity: 0.5"/>
     <use xlink:href="#m81b7c7a59e" x="213.992812" y="386.94" style="fill: #808080; fill-opacity: 0.5"/>
     <use xlink:href="#m81b7c7a59e" x="214.92805" y="301.964393" style="fill: #808080; fill-opacity: 0.5"/>
     <use xlink:href="#m81b7c7a59e" x="220.310293" y="205.680835" style="fill: #808080; fill-opacity: 0.5"/>
     <use xlink:href="#m81b7c7a59e" x="221.475209" y="233.013308" style="fill: #808080; fill-opacity: 0.5"/>
     <use xlink:href="#m81b7c7a59e" x="216.155138" y="290.052901" style="fill: #808080; fill-opacity: 0.5"/>
     <use xlink:href="#m81b7c7a59e" x="224.294513" y="286.395506" style="fill: #808080; fill-opacity: 0.5"/>
     <use xlink:href="#m81b7c7a59e" x="231.774679" y="356.154662" style="fill: #808080; fill-opacity: 0.5"/>
     <use xlink:href="#m81b7c7a59e" x="215.802538" y="273.409281" style="fill: #808080; fill-opacity: 0.5"/>
     <use xlink:href="#m81b7c7a59e" x="213.051096" y="347.768181" style="fill: #808080; fill-opacity: 0.5"/>
     <use xlink:href="#m81b7c7a59e" x="211.688382" y="321.80743" style="fill: #808080; fill-opacity: 0.5"/>
     <use xlink:href="#m81b7c7a59e" x="218.380517" y="356.896586" style="fill: #808080; fill-opacity: 0.5"/>
     <use xlink:href="#m81b7c7a59e" x="210.592352" y="334.043111" style="fill: #808080; fill-opacity: 0.5"/>
     <use xlink:href="#m81b7c7a59e" x="215.344523" y="336.667753" style="fill: #808080; fill-opacity: 0.5"/>
     <use xlink:href="#m81b7c7a59e" x="212.069902" y="326.106723" style="fill: #808080; fill-opacity: 0.5"/>
     <use xlink:href="#m81b7c7a59e" x="216.706772" y="325.369323" style="fill: #808080; fill-opacity: 0.5"/>
     <use xlink:href="#m81b7c7a59e" x="221.536302" y="312.132502" style="fill: #808080; fill-opacity: 0.5"/>
     <use xlink:href="#m81b7c7a59e" x="224.461551" y="236.123258" style="fill: #808080; fill-opacity: 0.5"/>
     <use xlink:href="#m81b7c7a59e" x="214.677802" y="275.941884" style="fill: #808080; fill-opacity: 0.5"/>
     <use xlink:href="#m81b7c7a59e" x="225.254949" y="309.05857" style="fill: #808080; fill-opacity: 0.5"/>
     <use xlink:href="#m81b7c7a59e" x="211.96117" y="338.49645" style="fill: #808080; fill-opacity: 0.5"/>
     <use xlink:href="#m81b7c7a59e" x="222.553997" y="344.134724" style="fill: #808080; fill-opacity: 0.5"/>
     <use xlink:href="#m81b7c7a59e" x="221.707371" y="296.659666" style="fill: #808080; fill-opacity: 0.5"/>
     <use xlink:href="#m81b7c7a59e" x="232.918268" y="314.088593" style="fill: #808080; fill-opacity: 0.5"/>
     <use xlink:href="#m81b7c7a59e" x="208.50505" y="321.393009" style="fill: #808080; fill-opacity: 0.5"/>
     <use xlink:href="#m81b7c7a59e" x="209.93862" y="309.05857" style="fill: #808080; fill-opacity: 0.5"/>
     <use xlink:href="#m81b7c7a59e" x="211.736411" y="326.853172" style="fill: #808080; fill-opacity: 0.5"/>
     <use xlink:href="#m81b7c7a59e" x="218.146864" y="244.748612" style="fill: #808080; fill-opacity: 0.5"/>
     <use xlink:href="#m81b7c7a59e" x="203.507564" y="57.28283" style="fill: #808080; fill-opacity: 0.5"/>
     <use xlink:href="#m81b7c7a59e" x="215.025067" y="272.026396" style="fill: #808080; fill-opacity: 0.5"/>
     <use xlink:href="#m81b7c7a59e" x="212.730586" y="270.582358" style="fill: #808080; fill-opacity: 0.5"/>
     <use xlink:href="#m81b7c7a59e" x="210.837381" y="241.609351" style="fill: #808080; fill-opacity: 0.5"/>
     <use xlink:href="#m81b7c7a59e" x="221.873456" y="293.370319" style="fill: #808080; fill-opacity: 0.5"/>
     <use xlink:href="#m81b7c7a59e" x="212.072983" y="334.043111" style="fill: #808080; fill-opacity: 0.5"/>
     <use xlink:href="#m81b7c7a59e" x="217.080361" y="298.070383" style="fill: #808080; fill-opacity: 0.5"/>
     <use xlink:href="#m81b7c7a59e" x="232.505322" y="321.393009" style="fill: #808080; fill-opacity: 0.5"/>
     <use xlink:href="#m81b7c7a59e" x="222.858866" y="272.538088" style="fill: #808080; fill-opacity: 0.5"/>
     <use xlink:href="#m81b7c7a59e" x="219.907747" y="249.92095" style="fill: #808080; fill-opacity: 0.5"/>
     <use xlink:href="#m81b7c7a59e" x="212.7044" y="338.49645" style="fill: #808080; fill-opacity: 0.5"/>
     <use xlink:href="#m81b7c7a59e" x="214.179222" y="334.214022" style="fill: #808080; fill-opacity: 0.5"/>
     <use xlink:href="#m81b7c7a59e" x="225.388493" y="263.798646" style="fill: #808080; fill-opacity: 0.5"/>
     <use xlink:href="#m81b7c7a59e" x="222.905183" y="291.460536" style="fill: #808080; fill-opacity: 0.5"/>
     <use xlink:href="#m81b7c7a59e" x="215.629457" y="277.662889" style="fill: #808080; fill-opacity: 0.5"/>
     <use xlink:href="#m81b7c7a59e" x="220.937267" y="259.476589" style="fill: #808080; fill-opacity: 0.5"/>
     <use xlink:href="#m81b7c7a59e" x="218.98321" y="253.694834" style="fill: #808080; fill-opacity: 0.5"/>
     <use xlink:href="#m81b7c7a59e" x="216.993218" y="307.452598" style="fill: #808080; fill-opacity: 0.5"/>
     <use xlink:href="#m81b7c7a59e" x="229.078903" y="296.659666" style="fill: #808080; fill-opacity: 0.5"/>
     <use xlink:href="#m81b7c7a59e" x="226.355956" y="323.208295" style="fill: #808080; fill-opacity: 0.5"/>
    </g>
   </g>
   <g id="matplotlib.axis_1">
    <g id="xtick_1">
     <g id="line2d_1">
      <defs>
       <path id="m98573b65c3" d="M 0 0 
L 0 3.5 
" style="stroke: #000000; stroke-width: 0.8"/>
      </defs>
      <g>
       <use xlink:href="#m98573b65c3" x="98.0025" y="404.12" style="stroke: #000000; stroke-width: 0.8"/>
      </g>
     </g>
     <g id="text_1">
      <!-- Mutants -->
      <g transform="translate(76.876719 418.718437) scale(0.1 -0.1)">
       <defs>
        <path id="DejaVuSerif-4d" d="M 353 0 
L 353 331 
L 947 331 
L 947 4331 
L 319 4331 
L 319 4666 
L 1678 4666 
L 3316 1344 
L 4953 4666 
L 6228 4666 
L 6228 4331 
L 5606 4331 
L 5606 331 
L 6203 331 
L 6203 0 
L 4378 0 
L 4378 331 
L 4972 331 
L 4972 3938 
L 3372 684 
L 2931 684 
L 1331 3938 
L 1331 331 
L 1925 331 
L 1925 0 
L 353 0 
z
" transform="scale(0.015625)"/>
        <path id="DejaVuSerif-75" d="M 2266 3322 
L 3341 3322 
L 3341 331 
L 3884 331 
L 3884 0 
L 2766 0 
L 2766 588 
Q 2606 256 2353 82 
Q 2100 -91 1766 -91 
Q 1213 -91 952 223 
Q 691 538 691 1209 
L 691 2988 
L 172 2988 
L 172 3322 
L 1269 3322 
L 1269 1388 
Q 1269 781 1417 556 
Q 1566 331 1947 331 
Q 2347 331 2556 625 
Q 2766 919 2766 1478 
L 2766 2988 
L 2266 2988 
L 2266 3322 
z
" transform="scale(0.015625)"/>
        <path id="DejaVuSerif-74" d="M 691 2988 
L 184 2988 
L 184 3322 
L 691 3322 
L 691 4353 
L 1269 4353 
L 1269 3322 
L 2350 3322 
L 2350 2988 
L 1269 2988 
L 1269 878 
Q 1269 456 1350 337 
Q 1431 219 1650 219 
Q 1875 219 1978 351 
Q 2081 484 2088 781 
L 2522 781 
Q 2497 328 2275 118 
Q 2053 -91 1600 -91 
Q 1103 -91 897 129 
Q 691 350 691 878 
L 691 2988 
z
" transform="scale(0.015625)"/>
        <path id="DejaVuSerif-61" d="M 2547 1044 
L 2547 1747 
L 1806 1747 
Q 1378 1747 1168 1562 
Q 959 1378 959 997 
Q 959 650 1171 447 
Q 1384 244 1747 244 
Q 2106 244 2326 466 
Q 2547 688 2547 1044 
z
M 3122 2075 
L 3122 331 
L 3634 331 
L 3634 0 
L 2547 0 
L 2547 359 
Q 2356 128 2106 18 
Q 1856 -91 1522 -91 
Q 969 -91 644 203 
Q 319 497 319 997 
Q 319 1513 691 1797 
Q 1063 2081 1741 2081 
L 2547 2081 
L 2547 2309 
Q 2547 2688 2317 2895 
Q 2088 3103 1672 3103 
Q 1328 3103 1125 2947 
Q 922 2791 872 2484 
L 575 2484 
L 575 3156 
Q 875 3284 1158 3348 
Q 1441 3413 1709 3413 
Q 2400 3413 2761 3070 
Q 3122 2728 3122 2075 
z
" transform="scale(0.015625)"/>
        <path id="DejaVuSerif-6e" d="M 263 0 
L 263 331 
L 781 331 
L 781 2988 
L 231 2988 
L 231 3322 
L 1356 3322 
L 1356 2731 
Q 1516 3069 1770 3241 
Q 2025 3413 2363 3413 
Q 2913 3413 3172 3097 
Q 3431 2781 3431 2113 
L 3431 331 
L 3944 331 
L 3944 0 
L 2356 0 
L 2356 331 
L 2853 331 
L 2853 1931 
Q 2853 2541 2703 2767 
Q 2553 2994 2175 2994 
Q 1775 2994 1565 2701 
Q 1356 2409 1356 1850 
L 1356 331 
L 1856 331 
L 1856 0 
L 263 0 
z
" transform="scale(0.015625)"/>
        <path id="DejaVuSerif-73" d="M 359 184 
L 359 959 
L 691 959 
Q 703 588 923 403 
Q 1144 219 1575 219 
Q 1963 219 2166 364 
Q 2369 509 2369 788 
Q 2369 1006 2220 1140 
Q 2072 1275 1594 1428 
L 1178 1569 
Q 750 1706 558 1912 
Q 366 2119 366 2438 
Q 366 2894 700 3153 
Q 1034 3413 1625 3413 
Q 1888 3413 2178 3344 
Q 2469 3275 2778 3144 
L 2778 2419 
L 2447 2419 
Q 2434 2741 2221 2922 
Q 2009 3103 1644 3103 
Q 1281 3103 1095 2975 
Q 909 2847 909 2591 
Q 909 2381 1050 2254 
Q 1191 2128 1613 1997 
L 2069 1856 
Q 2541 1709 2748 1489 
Q 2956 1269 2956 922 
Q 2956 450 2595 179 
Q 2234 -91 1600 -91 
Q 1278 -91 972 -22 
Q 666 47 359 184 
z
" transform="scale(0.015625)"/>
       </defs>
       <use xlink:href="#DejaVuSerif-4d"/>
       <use xlink:href="#DejaVuSerif-75" x="102.392578"/>
       <use xlink:href="#DejaVuSerif-74" x="166.796875"/>
       <use xlink:href="#DejaVuSerif-61" x="206.982422"/>
       <use xlink:href="#DejaVuSerif-6e" x="266.601562"/>
       <use xlink:href="#DejaVuSerif-74" x="331.005859"/>
       <use xlink:href="#DejaVuSerif-73" x="371.191406"/>
      </g>
     </g>
    </g>
    <g id="xtick_2">
     <g id="line2d_2">
      <g>
       <use xlink:href="#m98573b65c3" x="217.4675" y="404.12" style="stroke: #000000; stroke-width: 0.8"/>
      </g>
     </g>
     <g id="text_2">
      <!-- Non-members WT -->
      <g transform="translate(171.551094 418.718437) scale(0.1 -0.1)">
       <defs>
        <path id="DejaVuSerif-4e" d="M 313 0 
L 313 331 
L 941 331 
L 941 4331 
L 313 4331 
L 313 4666 
L 1509 4666 
L 4306 984 
L 4306 4331 
L 3681 4331 
L 3681 4666 
L 5319 4666 
L 5319 4331 
L 4691 4331 
L 4691 -91 
L 4313 -91 
L 1325 3841 
L 1325 331 
L 1953 331 
L 1953 0 
L 313 0 
z
" transform="scale(0.015625)"/>
        <path id="DejaVuSerif-6f" d="M 1925 219 
Q 2388 219 2623 584 
Q 2859 950 2859 1663 
Q 2859 2375 2623 2739 
Q 2388 3103 1925 3103 
Q 1463 3103 1227 2739 
Q 991 2375 991 1663 
Q 991 950 1228 584 
Q 1466 219 1925 219 
z
M 1925 -91 
Q 1200 -91 759 389 
Q 319 869 319 1663 
Q 319 2456 758 2934 
Q 1197 3413 1925 3413 
Q 2653 3413 3092 2934 
Q 3531 2456 3531 1663 
Q 3531 869 3092 389 
Q 2653 -91 1925 -91 
z
" transform="scale(0.015625)"/>
        <path id="DejaVuSerif-2d" d="M 281 1959 
L 1881 1959 
L 1881 1472 
L 281 1472 
L 281 1959 
z
" transform="scale(0.015625)"/>
        <path id="DejaVuSerif-6d" d="M 3316 2675 
Q 3481 3041 3739 3227 
Q 3997 3413 4341 3413 
Q 4863 3413 5119 3089 
Q 5375 2766 5375 2113 
L 5375 331 
L 5894 331 
L 5894 0 
L 4300 0 
L 4300 331 
L 4800 331 
L 4800 2047 
Q 4800 2556 4650 2772 
Q 4500 2988 4153 2988 
Q 3769 2988 3567 2697 
Q 3366 2406 3366 1850 
L 3366 331 
L 3866 331 
L 3866 0 
L 2291 0 
L 2291 331 
L 2791 331 
L 2791 2069 
Q 2791 2566 2641 2777 
Q 2491 2988 2144 2988 
Q 1759 2988 1557 2697 
Q 1356 2406 1356 1850 
L 1356 331 
L 1856 331 
L 1856 0 
L 263 0 
L 263 331 
L 781 331 
L 781 2994 
L 231 2994 
L 231 3322 
L 1356 3322 
L 1356 2731 
Q 1516 3063 1762 3238 
Q 2009 3413 2322 3413 
Q 2709 3413 2968 3220 
Q 3228 3028 3316 2675 
z
" transform="scale(0.015625)"/>
        <path id="DejaVuSerif-65" d="M 3469 1600 
L 991 1600 
L 991 1575 
Q 991 903 1244 561 
Q 1497 219 1991 219 
Q 2369 219 2611 417 
Q 2853 616 2950 1006 
L 3413 1006 
Q 3275 459 2904 184 
Q 2534 -91 1931 -91 
Q 1203 -91 761 389 
Q 319 869 319 1663 
Q 319 2450 753 2931 
Q 1188 3413 1894 3413 
Q 2647 3413 3050 2948 
Q 3453 2484 3469 1600 
z
M 2791 1931 
Q 2772 2513 2545 2808 
Q 2319 3103 1894 3103 
Q 1497 3103 1269 2806 
Q 1041 2509 991 1931 
L 2791 1931 
z
" transform="scale(0.015625)"/>
        <path id="DejaVuSerif-62" d="M 738 331 
L 738 4531 
L 184 4531 
L 184 4863 
L 1313 4863 
L 1313 2803 
Q 1481 3116 1742 3264 
Q 2003 3413 2388 3413 
Q 3000 3413 3387 2928 
Q 3775 2444 3775 1663 
Q 3775 881 3387 395 
Q 3000 -91 2388 -91 
Q 2003 -91 1742 57 
Q 1481 206 1313 519 
L 1313 0 
L 184 0 
L 184 331 
L 738 331 
z
M 1313 1497 
Q 1313 897 1542 583 
Q 1772 269 2209 269 
Q 2650 269 2876 622 
Q 3103 975 3103 1663 
Q 3103 2353 2876 2703 
Q 2650 3053 2209 3053 
Q 1772 3053 1542 2737 
Q 1313 2422 1313 1825 
L 1313 1497 
z
" transform="scale(0.015625)"/>
        <path id="DejaVuSerif-72" d="M 3059 3328 
L 3059 2497 
L 2728 2497 
Q 2713 2744 2591 2866 
Q 2469 2988 2234 2988 
Q 1809 2988 1582 2694 
Q 1356 2400 1356 1850 
L 1356 331 
L 2022 331 
L 2022 0 
L 263 0 
L 263 331 
L 781 331 
L 781 2994 
L 231 2994 
L 231 3322 
L 1356 3322 
L 1356 2731 
Q 1525 3078 1790 3245 
Q 2056 3413 2438 3413 
Q 2578 3413 2733 3391 
Q 2888 3369 3059 3328 
z
" transform="scale(0.015625)"/>
        <path id="DejaVuSerif-20" transform="scale(0.015625)"/>
        <path id="DejaVuSerif-57" d="M 4878 0 
L 4366 0 
L 3297 3794 
L 2228 0 
L 1716 0 
L 494 4331 
L 31 4331 
L 31 4666 
L 1734 4666 
L 1734 4331 
L 1153 4331 
L 2125 884 
L 3188 4666 
L 3694 4666 
L 4775 844 
L 5753 4331 
L 5216 4331 
L 5216 4666 
L 6559 4666 
L 6559 4331 
L 6100 4331 
L 4878 0 
z
" transform="scale(0.015625)"/>
        <path id="DejaVuSerif-54" d="M 1222 0 
L 1222 331 
L 1819 331 
L 1819 4294 
L 447 4294 
L 447 3566 
L 63 3566 
L 63 4666 
L 4206 4666 
L 4206 3566 
L 3822 3566 
L 3822 4294 
L 2450 4294 
L 2450 331 
L 3047 331 
L 3047 0 
L 1222 0 
z
" transform="scale(0.015625)"/>
       </defs>
       <use xlink:href="#DejaVuSerif-4e"/>
       <use xlink:href="#DejaVuSerif-6f" x="87.5"/>
       <use xlink:href="#DejaVuSerif-6e" x="147.705078"/>
       <use xlink:href="#DejaVuSerif-2d" x="212.109375"/>
       <use xlink:href="#DejaVuSerif-6d" x="245.898438"/>
       <use xlink:href="#DejaVuSerif-65" x="340.722656"/>
       <use xlink:href="#DejaVuSerif-6d" x="399.902344"/>
       <use xlink:href="#DejaVuSerif-62" x="494.726562"/>
       <use xlink:href="#DejaVuSerif-65" x="558.740234"/>
       <use xlink:href="#DejaVuSerif-72" x="617.919922"/>
       <use xlink:href="#DejaVuSerif-73" x="665.722656"/>
       <use xlink:href="#DejaVuSerif-20" x="717.041016"/>
       <use xlink:href="#DejaVuSerif-57" x="748.828125"/>
       <use xlink:href="#DejaVuSerif-54" x="851.611328"/>
      </g>
     </g>
    </g>
   </g>
   <g id="matplotlib.axis_2">
    <g id="ytick_1">
     <g id="line2d_3">
      <defs>
       <path id="mb9ce6c26bb" d="M 0 0 
L -3.5 0 
" style="stroke: #000000; stroke-width: 0.8"/>
      </defs>
      <g>
       <use xlink:href="#mb9ce6c26bb" x="38.27" y="386.94" style="stroke: #000000; stroke-width: 0.8"/>
      </g>
     </g>
     <g id="text_3">
      <!-- 0 -->
      <g transform="translate(24.9075 390.739219) scale(0.1 -0.1)">
       <defs>
        <path id="DejaVuSerif-30" d="M 2034 219 
Q 2513 219 2750 744 
Q 2988 1269 2988 2328 
Q 2988 3391 2750 3916 
Q 2513 4441 2034 4441 
Q 1556 4441 1318 3916 
Q 1081 3391 1081 2328 
Q 1081 1269 1318 744 
Q 1556 219 2034 219 
z
M 2034 -91 
Q 1275 -91 848 546 
Q 422 1184 422 2328 
Q 422 3475 848 4112 
Q 1275 4750 2034 4750 
Q 2797 4750 3222 4112 
Q 3647 3475 3647 2328 
Q 3647 1184 3222 546 
Q 2797 -91 2034 -91 
z
" transform="scale(0.015625)"/>
       </defs>
       <use xlink:href="#DejaVuSerif-30"/>
      </g>
     </g>
    </g>
    <g id="ytick_2">
     <g id="line2d_4">
      <g>
       <use xlink:href="#mb9ce6c26bb" x="38.27" y="343.402957" style="stroke: #000000; stroke-width: 0.8"/>
      </g>
     </g>
     <g id="text_4">
      <!-- 1 -->
      <g transform="translate(24.9075 347.202176) scale(0.1 -0.1)">
       <defs>
        <path id="DejaVuSerif-31" d="M 909 0 
L 909 331 
L 1722 331 
L 1722 4213 
L 781 3603 
L 781 4013 
L 1919 4750 
L 2350 4750 
L 2350 331 
L 3163 331 
L 3163 0 
L 909 0 
z
" transform="scale(0.015625)"/>
       </defs>
       <use xlink:href="#DejaVuSerif-31"/>
      </g>
     </g>
    </g>
    <g id="ytick_3">
     <g id="line2d_5">
      <g>
       <use xlink:href="#mb9ce6c26bb" x="38.27" y="299.865914" style="stroke: #000000; stroke-width: 0.8"/>
      </g>
     </g>
     <g id="text_5">
      <!-- 2 -->
      <g transform="translate(24.9075 303.665132) scale(0.1 -0.1)">
       <defs>
        <path id="DejaVuSerif-32" d="M 819 3553 
L 469 3553 
L 469 4384 
Q 803 4563 1142 4656 
Q 1481 4750 1806 4750 
Q 2534 4750 2956 4397 
Q 3378 4044 3378 3438 
Q 3378 2753 2422 1800 
Q 2347 1728 2309 1691 
L 1131 513 
L 3078 513 
L 3078 1088 
L 3444 1088 
L 3444 0 
L 434 0 
L 434 341 
L 1850 1753 
Q 2319 2222 2519 2614 
Q 2719 3006 2719 3438 
Q 2719 3909 2473 4175 
Q 2228 4441 1797 4441 
Q 1350 4441 1106 4219 
Q 863 3997 819 3553 
z
" transform="scale(0.015625)"/>
       </defs>
       <use xlink:href="#DejaVuSerif-32"/>
      </g>
     </g>
    </g>
    <g id="ytick_4">
     <g id="line2d_6">
      <g>
       <use xlink:href="#mb9ce6c26bb" x="38.27" y="256.32887" style="stroke: #000000; stroke-width: 0.8"/>
      </g>
     </g>
     <g id="text_6">
      <!-- 3 -->
      <g transform="translate(24.9075 260.128089) scale(0.1 -0.1)">
       <defs>
        <path id="DejaVuSerif-33" d="M 622 4469 
Q 988 4606 1323 4678 
Q 1659 4750 1953 4750 
Q 2638 4750 3022 4454 
Q 3406 4159 3406 3634 
Q 3406 3213 3140 2930 
Q 2875 2647 2388 2547 
Q 2963 2466 3280 2130 
Q 3597 1794 3597 1259 
Q 3597 606 3158 257 
Q 2719 -91 1894 -91 
Q 1528 -91 1179 -12 
Q 831 66 488 225 
L 488 1131 
L 838 1131 
Q 869 681 1141 450 
Q 1413 219 1906 219 
Q 2384 219 2661 495 
Q 2938 772 2938 1253 
Q 2938 1803 2653 2086 
Q 2369 2369 1819 2369 
L 1522 2369 
L 1522 2688 
L 1678 2688 
Q 2225 2688 2498 2914 
Q 2772 3141 2772 3597 
Q 2772 4006 2547 4223 
Q 2322 4441 1900 4441 
Q 1478 4441 1245 4241 
Q 1013 4041 972 3647 
L 622 3647 
L 622 4469 
z
" transform="scale(0.015625)"/>
       </defs>
       <use xlink:href="#DejaVuSerif-33"/>
      </g>
     </g>
    </g>
    <g id="ytick_5">
     <g id="line2d_7">
      <g>
       <use xlink:href="#mb9ce6c26bb" x="38.27" y="212.791827" style="stroke: #000000; stroke-width: 0.8"/>
      </g>
     </g>
     <g id="text_7">
      <!-- 4 -->
      <g transform="translate(24.9075 216.591046) scale(0.1 -0.1)">
       <defs>
        <path id="DejaVuSerif-34" d="M 2234 1581 
L 2234 4063 
L 641 1581 
L 2234 1581 
z
M 3609 0 
L 1484 0 
L 1484 331 
L 2234 331 
L 2234 1247 
L 197 1247 
L 197 1588 
L 2241 4750 
L 2859 4750 
L 2859 1581 
L 3750 1581 
L 3750 1247 
L 2859 1247 
L 2859 331 
L 3609 331 
L 3609 0 
z
" transform="scale(0.015625)"/>
       </defs>
       <use xlink:href="#DejaVuSerif-34"/>
      </g>
     </g>
    </g>
    <g id="ytick_6">
     <g id="line2d_8">
      <g>
       <use xlink:href="#mb9ce6c26bb" x="38.27" y="169.254784" style="stroke: #000000; stroke-width: 0.8"/>
      </g>
     </g>
     <g id="text_8">
      <!-- 5 -->
      <g transform="translate(24.9075 173.054003) scale(0.1 -0.1)">
       <defs>
        <path id="DejaVuSerif-35" d="M 3219 4666 
L 3219 4153 
L 1081 4153 
L 1081 2816 
Q 1244 2928 1461 2984 
Q 1678 3041 1947 3041 
Q 2703 3041 3140 2622 
Q 3578 2203 3578 1478 
Q 3578 738 3136 323 
Q 2694 -91 1894 -91 
Q 1572 -91 1234 -12 
Q 897 66 544 225 
L 544 1131 
L 897 1131 
Q 925 688 1179 453 
Q 1434 219 1894 219 
Q 2388 219 2653 544 
Q 2919 869 2919 1478 
Q 2919 2084 2655 2407 
Q 2391 2731 1894 2731 
Q 1613 2731 1398 2631 
Q 1184 2531 1019 2322 
L 750 2322 
L 750 4666 
L 3219 4666 
z
" transform="scale(0.015625)"/>
       </defs>
       <use xlink:href="#DejaVuSerif-35"/>
      </g>
     </g>
    </g>
    <g id="ytick_7">
     <g id="line2d_9">
      <g>
       <use xlink:href="#mb9ce6c26bb" x="38.27" y="125.717741" style="stroke: #000000; stroke-width: 0.8"/>
      </g>
     </g>
     <g id="text_9">
      <!-- 6 -->
      <g transform="translate(24.9075 129.51696) scale(0.1 -0.1)">
       <defs>
        <path id="DejaVuSerif-36" d="M 2094 219 
Q 2534 219 2771 542 
Q 3009 866 3009 1472 
Q 3009 2078 2771 2401 
Q 2534 2725 2094 2725 
Q 1647 2725 1412 2412 
Q 1178 2100 1178 1509 
Q 1178 888 1415 553 
Q 1653 219 2094 219 
z
M 1075 2569 
Q 1288 2803 1556 2918 
Q 1825 3034 2163 3034 
Q 2859 3034 3264 2615 
Q 3669 2197 3669 1472 
Q 3669 763 3233 336 
Q 2797 -91 2069 -91 
Q 1278 -91 853 498 
Q 428 1088 428 2181 
Q 428 3406 931 4078 
Q 1434 4750 2350 4750 
Q 2597 4750 2869 4703 
Q 3141 4656 3425 4563 
L 3425 3794 
L 3072 3794 
Q 3034 4109 2831 4275 
Q 2628 4441 2284 4441 
Q 1678 4441 1381 3981 
Q 1084 3522 1075 2569 
z
" transform="scale(0.015625)"/>
       </defs>
       <use xlink:href="#DejaVuSerif-36"/>
      </g>
     </g>
    </g>
    <g id="ytick_8">
     <g id="line2d_10">
      <g>
       <use xlink:href="#mb9ce6c26bb" x="38.27" y="82.180698" style="stroke: #000000; stroke-width: 0.8"/>
      </g>
     </g>
     <g id="text_10">
      <!-- 7 -->
      <g transform="translate(24.9075 85.979917) scale(0.1 -0.1)">
       <defs>
        <path id="DejaVuSerif-37" d="M 3609 4347 
L 1784 0 
L 1319 0 
L 3059 4153 
L 903 4153 
L 903 3578 
L 538 3578 
L 538 4666 
L 3609 4666 
L 3609 4347 
z
" transform="scale(0.015625)"/>
       </defs>
       <use xlink:href="#DejaVuSerif-37"/>
      </g>
     </g>
    </g>
    <g id="ytick_9">
     <g id="line2d_11">
      <g>
       <use xlink:href="#mb9ce6c26bb" x="38.27" y="38.643655" style="stroke: #000000; stroke-width: 0.8"/>
      </g>
     </g>
     <g id="text_11">
      <!-- 8 -->
      <g transform="translate(24.9075 42.442873) scale(0.1 -0.1)">
       <defs>
        <path id="DejaVuSerif-38" d="M 2981 1275 
Q 2981 1775 2732 2051 
Q 2484 2328 2034 2328 
Q 1584 2328 1336 2051 
Q 1088 1775 1088 1275 
Q 1088 772 1336 495 
Q 1584 219 2034 219 
Q 2484 219 2732 495 
Q 2981 772 2981 1275 
z
M 2853 3541 
Q 2853 3966 2637 4203 
Q 2422 4441 2034 4441 
Q 1650 4441 1433 4203 
Q 1216 3966 1216 3541 
Q 1216 3113 1433 2875 
Q 1650 2638 2034 2638 
Q 2422 2638 2637 2875 
Q 2853 3113 2853 3541 
z
M 2516 2484 
Q 3047 2413 3344 2092 
Q 3641 1772 3641 1275 
Q 3641 619 3225 264 
Q 2809 -91 2034 -91 
Q 1263 -91 845 264 
Q 428 619 428 1275 
Q 428 1772 725 2092 
Q 1022 2413 1556 2484 
Q 1084 2569 832 2842 
Q 581 3116 581 3541 
Q 581 4103 968 4426 
Q 1356 4750 2034 4750 
Q 2713 4750 3100 4426 
Q 3488 4103 3488 3541 
Q 3488 3116 3236 2842 
Q 2984 2569 2516 2484 
z
" transform="scale(0.015625)"/>
       </defs>
       <use xlink:href="#DejaVuSerif-38"/>
      </g>
     </g>
    </g>
    <g id="text_12">
     <!-- σ (dV(t)/dt) -->
     <g transform="translate(18.827813 243.661094) rotate(-90) scale(0.1 -0.1)">
      <defs>
       <path id="DejaVuSerif-3c3" d="M 1925 219 
Q 2388 219 2623 584 
Q 2859 950 2859 1663 
Q 2859 2309 2625 2706 
Q 2416 3044 1925 3047 
Q 1447 3047 1225 2706 
Q 991 2341 991 1663 
Q 991 950 1228 584 
Q 1466 219 1925 219 
z
M 1931 3322 
Q 3206 3322 4181 3322 
L 4181 2988 
L 3038 2988 
Q 3531 2509 3531 1663 
Q 3531 869 3092 389 
Q 2653 -91 1925 -91 
Q 1200 -91 759 389 
Q 319 869 319 1662 
Q 319 2456 756 2934 
Q 1113 3322 1931 3322 
z
" transform="scale(0.015625)"/>
       <path id="DejaVuSerif-28" d="M 2041 -997 
Q 1281 -656 893 83 
Q 506 822 506 1931 
Q 506 3044 893 3783 
Q 1281 4522 2041 4863 
L 2041 4556 
Q 1559 4225 1350 3623 
Q 1141 3022 1141 1931 
Q 1141 844 1350 242 
Q 1559 -359 2041 -691 
L 2041 -997 
z
" transform="scale(0.015625)"/>
       <path id="DejaVuSerif-64" d="M 3359 331 
L 3909 331 
L 3909 0 
L 2784 0 
L 2784 519 
Q 2616 206 2355 57 
Q 2094 -91 1709 -91 
Q 1097 -91 708 395 
Q 319 881 319 1663 
Q 319 2444 706 2928 
Q 1094 3413 1709 3413 
Q 2094 3413 2355 3264 
Q 2616 3116 2784 2803 
L 2784 4531 
L 2241 4531 
L 2241 4863 
L 3359 4863 
L 3359 331 
z
M 2784 1497 
L 2784 1825 
Q 2784 2422 2554 2737 
Q 2325 3053 1888 3053 
Q 1444 3053 1217 2703 
Q 991 2353 991 1663 
Q 991 975 1217 622 
Q 1444 269 1888 269 
Q 2325 269 2554 583 
Q 2784 897 2784 1497 
z
" transform="scale(0.015625)"/>
       <path id="DejaVuSerif-56" d="M 1119 4331 
L 2497 750 
L 3872 4331 
L 3347 4331 
L 3347 4666 
L 4716 4666 
L 4716 4331 
L 4263 4331 
L 2597 0 
L 2059 0 
L 403 4331 
L -63 4331 
L -63 4666 
L 1638 4666 
L 1638 4331 
L 1119 4331 
z
" transform="scale(0.015625)"/>
       <path id="DejaVuSerif-29" d="M 453 -997 
L 453 -691 
Q 934 -359 1145 242 
Q 1356 844 1356 1931 
Q 1356 3022 1145 3623 
Q 934 4225 453 4556 
L 453 4863 
Q 1216 4522 1603 3783 
Q 1991 3044 1991 1931 
Q 1991 822 1603 83 
Q 1216 -656 453 -997 
z
" transform="scale(0.015625)"/>
       <path id="DejaVuSerif-2f" d="M 1656 4666 
L 2156 4666 
L 500 -594 
L 0 -594 
L 1656 4666 
z
" transform="scale(0.015625)"/>
      </defs>
      <use xlink:href="#DejaVuSerif-3c3"/>
      <use xlink:href="#DejaVuSerif-20" x="68.261719"/>
      <use xlink:href="#DejaVuSerif-28" x="100.048828"/>
      <use xlink:href="#DejaVuSerif-64" x="139.0625"/>
      <use xlink:href="#DejaVuSerif-56" x="203.076172"/>
      <use xlink:href="#DejaVuSerif-28" x="275.292969"/>
      <use xlink:href="#DejaVuSerif-74" x="314.306641"/>
      <use xlink:href="#DejaVuSerif-29" x="354.492188"/>
      <use xlink:href="#DejaVuSerif-2f" x="393.505859"/>
      <use xlink:href="#DejaVuSerif-64" x="427.197266"/>
      <use xlink:href="#DejaVuSerif-74" x="491.210938"/>
      <use xlink:href="#DejaVuSerif-29" x="531.396484"/>
     </g>
    </g>
   </g>
   <g id="line2d_12">
    <path d="M 89.042625 307.932949 
L 106.962375 307.932949 
L 106.962375 235.354001 
L 89.042625 235.354001 
L 89.042625 307.932949 
" clip-path="url(#pdafc3cc883)" style="fill: none; stroke: #000000; stroke-linecap: square"/>
   </g>
   <g id="line2d_13">
    <path d="M 98.0025 307.932949 
L 98.0025 386.94 
" clip-path="url(#pdafc3cc883)" style="fill: none; stroke: #000000; stroke-linecap: square"/>
   </g>
   <g id="line2d_14">
    <path d="M 98.0025 235.354001 
L 98.0025 163.525247 
" clip-path="url(#pdafc3cc883)" style="fill: none; stroke: #000000; stroke-linecap: square"/>
   </g>
   <g id="line2d_15">
    <path d="M 93.522563 386.94 
L 102.482438 386.94 
" clip-path="url(#pdafc3cc883)" style="fill: none; stroke: #000000; stroke-linecap: square"/>
   </g>
   <g id="line2d_16">
    <path d="M 93.522563 163.525247 
L 102.482438 163.525247 
" clip-path="url(#pdafc3cc883)" style="fill: none; stroke: #000000; stroke-linecap: square"/>
   </g>
   <g id="line2d_17">
    <path d="M 208.507625 333.61823 
L 226.427375 333.61823 
L 226.427375 270.582358 
L 208.507625 270.582358 
L 208.507625 333.61823 
" clip-path="url(#pdafc3cc883)" style="fill: none; stroke: #000000; stroke-linecap: square"/>
   </g>
   <g id="line2d_18">
    <path d="M 217.4675 333.61823 
L 217.4675 386.94 
" clip-path="url(#pdafc3cc883)" style="fill: none; stroke: #000000; stroke-linecap: square"/>
   </g>
   <g id="line2d_19">
    <path d="M 217.4675 270.582358 
L 217.4675 190.942698 
" clip-path="url(#pdafc3cc883)" style="fill: none; stroke: #000000; stroke-linecap: square"/>
   </g>
   <g id="line2d_20">
    <path d="M 212.987562 386.94 
L 221.947437 386.94 
" clip-path="url(#pdafc3cc883)" style="fill: none; stroke: #000000; stroke-linecap: square"/>
   </g>
   <g id="line2d_21">
    <path d="M 212.987562 190.942698 
L 221.947437 190.942698 
" clip-path="url(#pdafc3cc883)" style="fill: none; stroke: #000000; stroke-linecap: square"/>
   </g>
   <g id="line2d_22">
    <path d="M 98.0025 144.981822 
L 98.0025 140.066697 
L 217.4675 140.066697 
L 217.4675 144.981822 
" clip-path="url(#pdafc3cc883)" style="fill: none; stroke: #000000; stroke-linecap: square"/>
   </g>
   <g id="line2d_23">
    <path d="M 89.042625 282.002866 
L 106.962375 282.002866 
" clip-path="url(#pdafc3cc883)" style="fill: none; stroke: #ff7f0e"/>
   </g>
   <g id="line2d_24">
    <path d="M 208.507625 309.05857 
L 226.427375 309.05857 
" clip-path="url(#pdafc3cc883)" style="fill: none; stroke: #ff7f0e"/>
   </g>
   <g id="patch_3">
    <path d="M 38.27 404.12 
L 38.27 26.16 
" style="fill: none; stroke: #000000; stroke-width: 0.8; stroke-linejoin: miter; stroke-linecap: square"/>
   </g>
   <g id="patch_4">
    <path d="M 277.2 404.12 
L 277.2 26.16 
" style="fill: none; stroke: #000000; stroke-width: 0.8; stroke-linejoin: miter; stroke-linecap: square"/>
   </g>
   <g id="patch_5">
    <path d="M 38.27 404.12 
L 277.2 404.12 
" style="fill: none; stroke: #000000; stroke-width: 0.8; stroke-linejoin: miter; stroke-linecap: square"/>
   </g>
   <g id="patch_6">
    <path d="M 38.27 26.16 
L 277.2 26.16 
" style="fill: none; stroke: #000000; stroke-width: 0.8; stroke-linejoin: miter; stroke-linecap: square"/>
   </g>
   <g id="text_13">
    <!-- * -->
    <g transform="translate(155.235 135.529448) scale(0.1 -0.1)">
     <defs>
      <path id="DejaVuSerif-2a" d="M 3097 3866 
L 1875 3297 
L 3097 2719 
L 2859 2350 
L 1772 3028 
L 1813 1838 
L 1388 1838 
L 1428 3028 
L 341 2350 
L 103 2719 
L 1325 3291 
L 103 3866 
L 341 4238 
L 1428 3559 
L 1388 4750 
L 1813 4750 
L 1772 3559 
L 2859 4238 
L 3097 3866 
z
" transform="scale(0.015625)"/>
     </defs>
     <use xlink:href="#DejaVuSerif-2a"/>
    </g>
   </g>
   <g id="text_14">
    <!-- indegree, threshold: 0% -->
    <g transform="translate(84.477812 20.16) scale(0.12 -0.12)">
     <defs>
      <path id="DejaVuSerif-69" d="M 622 4353 
Q 622 4497 726 4603 
Q 831 4709 978 4709 
Q 1122 4709 1226 4603 
Q 1331 4497 1331 4353 
Q 1331 4206 1228 4103 
Q 1125 4000 978 4000 
Q 831 4000 726 4103 
Q 622 4206 622 4353 
z
M 1356 331 
L 1900 331 
L 1900 0 
L 231 0 
L 231 331 
L 781 331 
L 781 2988 
L 231 2988 
L 231 3322 
L 1356 3322 
L 1356 331 
z
" transform="scale(0.015625)"/>
      <path id="DejaVuSerif-67" d="M 3359 2988 
L 3359 72 
Q 3359 -644 2965 -1033 
Q 2572 -1422 1844 -1422 
Q 1516 -1422 1216 -1362 
Q 916 -1303 641 -1184 
L 641 -488 
L 941 -488 
Q 997 -813 1206 -963 
Q 1416 -1113 1806 -1113 
Q 2313 -1113 2548 -827 
Q 2784 -541 2784 72 
L 2784 519 
Q 2616 206 2355 57 
Q 2094 -91 1709 -91 
Q 1097 -91 708 395 
Q 319 881 319 1663 
Q 319 2444 706 2928 
Q 1094 3413 1709 3413 
Q 2094 3413 2355 3264 
Q 2616 3116 2784 2803 
L 2784 3322 
L 3909 3322 
L 3909 2988 
L 3359 2988 
z
M 2784 1825 
Q 2784 2422 2554 2737 
Q 2325 3053 1888 3053 
Q 1444 3053 1217 2703 
Q 991 2353 991 1663 
Q 991 975 1217 622 
Q 1444 269 1888 269 
Q 2325 269 2554 583 
Q 2784 897 2784 1497 
L 2784 1825 
z
" transform="scale(0.015625)"/>
      <path id="DejaVuSerif-2c" d="M 231 -622 
Q 525 -406 662 -114 
Q 800 178 800 594 
L 800 709 
L 1416 709 
Q 1391 175 1164 -208 
Q 938 -591 481 -872 
L 231 -622 
z
" transform="scale(0.015625)"/>
      <path id="DejaVuSerif-68" d="M 263 0 
L 263 331 
L 781 331 
L 781 4531 
L 231 4531 
L 231 4863 
L 1356 4863 
L 1356 2731 
Q 1516 3069 1770 3241 
Q 2025 3413 2363 3413 
Q 2913 3413 3172 3097 
Q 3431 2781 3431 2113 
L 3431 331 
L 3944 331 
L 3944 0 
L 2356 0 
L 2356 331 
L 2853 331 
L 2853 1931 
Q 2853 2541 2704 2764 
Q 2556 2988 2175 2988 
Q 1775 2988 1565 2697 
Q 1356 2406 1356 1850 
L 1356 331 
L 1856 331 
L 1856 0 
L 263 0 
z
" transform="scale(0.015625)"/>
      <path id="DejaVuSerif-6c" d="M 1313 331 
L 1856 331 
L 1856 0 
L 184 0 
L 184 331 
L 738 331 
L 738 4531 
L 184 4531 
L 184 4863 
L 1313 4863 
L 1313 331 
z
" transform="scale(0.015625)"/>
      <path id="DejaVuSerif-3a" d="M 666 325 
Q 666 500 786 622 
Q 906 744 1081 744 
Q 1256 744 1376 622 
Q 1497 500 1497 325 
Q 1497 150 1378 29 
Q 1259 -91 1081 -91 
Q 903 -91 784 29 
Q 666 150 666 325 
z
M 666 2363 
Q 666 2538 786 2658 
Q 906 2778 1081 2778 
Q 1259 2778 1378 2659 
Q 1497 2541 1497 2363 
Q 1497 2184 1378 2065 
Q 1259 1947 1081 1947 
Q 906 1947 786 2067 
Q 666 2188 666 2363 
z
" transform="scale(0.015625)"/>
      <path id="DejaVuSerif-25" d="M 1434 4459 
Q 1159 4459 1004 4200 
Q 850 3941 850 3475 
Q 850 3016 1008 2753 
Q 1166 2491 1434 2491 
Q 1700 2491 1854 2752 
Q 2009 3013 2009 3475 
Q 2009 3938 1854 4198 
Q 1700 4459 1434 4459 
z
M 4653 2169 
Q 4381 2169 4226 1906 
Q 4072 1644 4072 1178 
Q 4072 719 4228 458 
Q 4384 197 4653 197 
Q 4922 197 5075 458 
Q 5228 719 5228 1178 
Q 5228 1641 5073 1905 
Q 4919 2169 4653 2169 
z
M 4653 2450 
Q 5147 2450 5437 2106 
Q 5728 1763 5728 1178 
Q 5728 594 5436 251 
Q 5144 -91 4653 -91 
Q 4153 -91 3862 251 
Q 3572 594 3572 1178 
Q 3572 1766 3864 2108 
Q 4156 2450 4653 2450 
z
M 4263 4750 
L 4738 4750 
L 1819 -91 
L 1344 -91 
L 4263 4750 
z
M 1428 4750 
Q 1922 4750 2215 4408 
Q 2509 4066 2509 3481 
Q 2509 2891 2217 2550 
Q 1925 2209 1428 2209 
Q 931 2209 642 2551 
Q 353 2894 353 3481 
Q 353 4063 643 4406 
Q 934 4750 1428 4750 
z
" transform="scale(0.015625)"/>
     </defs>
     <use xlink:href="#DejaVuSerif-69"/>
     <use xlink:href="#DejaVuSerif-6e" x="31.982422"/>
     <use xlink:href="#DejaVuSerif-64" x="96.386719"/>
     <use xlink:href="#DejaVuSerif-65" x="160.400391"/>
     <use xlink:href="#DejaVuSerif-67" x="219.580078"/>
     <use xlink:href="#DejaVuSerif-72" x="283.59375"/>
     <use xlink:href="#DejaVuSerif-65" x="331.396484"/>
     <use xlink:href="#DejaVuSerif-65" x="390.576172"/>
     <use xlink:href="#DejaVuSerif-2c" x="449.755859"/>
     <use xlink:href="#DejaVuSerif-20" x="481.542969"/>
     <use xlink:href="#DejaVuSerif-74" x="513.330078"/>
     <use xlink:href="#DejaVuSerif-68" x="553.515625"/>
     <use xlink:href="#DejaVuSerif-72" x="617.919922"/>
     <use xlink:href="#DejaVuSerif-65" x="665.722656"/>
     <use xlink:href="#DejaVuSerif-73" x="724.902344"/>
     <use xlink:href="#DejaVuSerif-68" x="776.220703"/>
     <use xlink:href="#DejaVuSerif-6f" x="840.625"/>
     <use xlink:href="#DejaVuSerif-6c" x="900.830078"/>
     <use xlink:href="#DejaVuSerif-64" x="932.8125"/>
     <use xlink:href="#DejaVuSerif-3a" x="996.826172"/>
     <use xlink:href="#DejaVuSerif-20" x="1030.517578"/>
     <use xlink:href="#DejaVuSerif-30" x="1062.304688"/>
     <use xlink:href="#DejaVuSerif-25" x="1125.927734"/>
    </g>
   </g>
  </g>
 </g>
 <defs>
  <clipPath id="pdafc3cc883">
   <rect x="38.27" y="26.16" width="238.93" height="377.96"/>
  </clipPath>
 </defs>
</svg>
