<?xml version="1.0" encoding="utf-8" standalone="no"?>
<!DOCTYPE svg PUBLIC "-//W3C//DTD SVG 1.1//EN"
  "http://www.w3.org/Graphics/SVG/1.1/DTD/svg11.dtd">
<svg xmlns:xlink="http://www.w3.org/1999/xlink" width="288pt" height="432pt" viewBox="0 0 288 432" xmlns="http://www.w3.org/2000/svg" version="1.1">
 <metadata>
  <rdf:RDF xmlns:dc="http://purl.org/dc/elements/1.1/" xmlns:cc="http://creativecommons.org/ns#" xmlns:rdf="http://www.w3.org/1999/02/22-rdf-syntax-ns#">
   <cc:Work>
    <dc:type rdf:resource="http://purl.org/dc/dcmitype/StillImage"/>
    <dc:date>2025-06-03T15:19:20.183019</dc:date>
    <dc:format>image/svg+xml</dc:format>
    <dc:creator>
     <cc:Agent>
      <dc:title>Matplotlib v3.9.2, https://matplotlib.org/</dc:title>
     </cc:Agent>
    </dc:creator>
   </cc:Work>
  </rdf:RDF>
 </metadata>
 <defs>
  <style type="text/css">*{stroke-linejoin: round; stroke-linecap: butt}</style>
 </defs>
 <g id="figure_1">
  <g id="patch_1">
   <path d="M 0 432 
L 288 432 
L 288 0 
L 0 0 
z
" style="fill: #ffffff"/>
  </g>
  <g id="axes_1">
   <g id="patch_2">
    <path d="M 38.27 404.12 
L 277.2 404.12 
L 277.2 26.16 
L 38.27 26.16 
z
" style="fill: #ffffff"/>
   </g>
   <g id="PathCollection_1">
    <defs>
     <path id="m4a8cb97b4e" d="M 0 5 
C 1.326016 5 2.597899 4.473168 3.535534 3.535534 
C 4.473168 2.597899 5 1.326016 5 0 
C 5 -1.326016 4.473168 -2.597899 3.535534 -3.535534 
C 2.597899 -4.473168 1.326016 -5 0 -5 
C -1.326016 -5 -2.597899 -4.473168 -3.535534 -3.535534 
C -4.473168 -2.597899 -5 -1.326016 -5 0 
C -5 1.326016 -4.473168 2.597899 -3.535534 3.535534 
C -2.597899 4.473168 -1.326016 5 0 5 
z
"/>
    </defs>
    <g clip-path="url(#pb6ff12bf70)">
     <use xlink:href="#m4a8cb97b4e" x="105.691749" y="323.207713" style="fill: #ff0000; fill-opacity: 0.5"/>
     <use xlink:href="#m4a8cb97b4e" x="95.423611" y="300.13023" style="fill: #ff0000; fill-opacity: 0.5"/>
     <use xlink:href="#m4a8cb97b4e" x="92.248391" y="248.010115" style="fill: #ff0000; fill-opacity: 0.5"/>
     <use xlink:href="#m4a8cb97b4e" x="100.16504" y="345.240643" style="fill: #ff0000; fill-opacity: 0.5"/>
     <use xlink:href="#m4a8cb97b4e" x="87.924263" y="223.867258" style="fill: #ff0000; fill-opacity: 0.5"/>
     <use xlink:href="#m4a8cb97b4e" x="97.316806" y="297.289158" style="fill: #ff0000; fill-opacity: 0.5"/>
     <use xlink:href="#m4a8cb97b4e" x="93.293793" y="43.34" style="fill: #ff0000; fill-opacity: 0.5"/>
     <use xlink:href="#m4a8cb97b4e" x="102.180783" y="245.11358" style="fill: #ff0000; fill-opacity: 0.5"/>
     <use xlink:href="#m4a8cb97b4e" x="104.495298" y="167.479666" style="fill: #ff0000; fill-opacity: 0.5"/>
     <use xlink:href="#m4a8cb97b4e" x="93.636089" y="324.338792" style="fill: #ff0000; fill-opacity: 0.5"/>
     <use xlink:href="#m4a8cb97b4e" x="106.698176" y="238.162391" style="fill: #ff0000; fill-opacity: 0.5"/>
     <use xlink:href="#m4a8cb97b4e" x="99.478736" y="354.656208" style="fill: #ff0000; fill-opacity: 0.5"/>
     <use xlink:href="#m4a8cb97b4e" x="95.728024" y="341.225162" style="fill: #ff0000; fill-opacity: 0.5"/>
     <use xlink:href="#m4a8cb97b4e" x="102.870058" y="355.956013" style="fill: #ff0000; fill-opacity: 0.5"/>
     <use xlink:href="#m4a8cb97b4e" x="103.020752" y="336.334398" style="fill: #ff0000; fill-opacity: 0.5"/>
     <use xlink:href="#m4a8cb97b4e" x="95.398255" y="352.57408" style="fill: #ff0000; fill-opacity: 0.5"/>
     <use xlink:href="#m4a8cb97b4e" x="101.369855" y="303.947055" style="fill: #ff0000; fill-opacity: 0.5"/>
     <use xlink:href="#m4a8cb97b4e" x="106.860282" y="322.865536" style="fill: #ff0000; fill-opacity: 0.5"/>
     <use xlink:href="#m4a8cb97b4e" x="93.006547" y="358.750163" style="fill: #ff0000; fill-opacity: 0.5"/>
     <use xlink:href="#m4a8cb97b4e" x="101.439936" y="278.586113" style="fill: #ff0000; fill-opacity: 0.5"/>
     <use xlink:href="#m4a8cb97b4e" x="96.942465" y="350.670145" style="fill: #ff0000; fill-opacity: 0.5"/>
     <use xlink:href="#m4a8cb97b4e" x="87.668448" y="376.620864" style="fill: #ff0000; fill-opacity: 0.5"/>
     <use xlink:href="#m4a8cb97b4e" x="92.913329" y="240.921595" style="fill: #ff0000; fill-opacity: 0.5"/>
     <use xlink:href="#m4a8cb97b4e" x="91.904213" y="351.612029" style="fill: #ff0000; fill-opacity: 0.5"/>
     <use xlink:href="#m4a8cb97b4e" x="92.133346" y="273.026091" style="fill: #ff0000; fill-opacity: 0.5"/>
     <use xlink:href="#m4a8cb97b4e" x="85.50542" y="82.785576" style="fill: #ff0000; fill-opacity: 0.5"/>
     <use xlink:href="#m4a8cb97b4e" x="107.854196" y="352.633283" style="fill: #ff0000; fill-opacity: 0.5"/>
     <use xlink:href="#m4a8cb97b4e" x="97.231741" y="249.107842" style="fill: #ff0000; fill-opacity: 0.5"/>
     <use xlink:href="#m4a8cb97b4e" x="92.578786" y="152.676196" style="fill: #ff0000; fill-opacity: 0.5"/>
     <use xlink:href="#m4a8cb97b4e" x="93.063872" y="279.550328" style="fill: #ff0000; fill-opacity: 0.5"/>
     <use xlink:href="#m4a8cb97b4e" x="88.585353" y="328.630157" style="fill: #ff0000; fill-opacity: 0.5"/>
    </g>
   </g>
   <g id="PathCollection_2">
    <defs>
     <path id="m97d1785684" d="M 0 5 
C 1.326016 5 2.597899 4.473168 3.535534 3.535534 
C 4.473168 2.597899 5 1.326016 5 0 
C 5 -1.326016 4.473168 -2.597899 3.535534 -3.535534 
C 2.597899 -4.473168 1.326016 -5 0 -5 
C -1.326016 -5 -2.597899 -4.473168 -3.535534 -3.535534 
C -4.473168 -2.597899 -5 -1.326016 -5 0 
C -5 1.326016 -4.473168 2.597899 -3.535534 3.535534 
C -2.597899 4.473168 -1.326016 5 0 5 
z
"/>
    </defs>
    <g clip-path="url(#pb6ff12bf70)">
     <use xlink:href="#m97d1785684" x="228.443988" y="291.118609" style="fill: #808080; fill-opacity: 0.5"/>
     <use xlink:href="#m97d1785684" x="221.423651" y="274.781308" style="fill: #808080; fill-opacity: 0.5"/>
     <use xlink:href="#m97d1785684" x="217.527306" y="324.78011" style="fill: #808080; fill-opacity: 0.5"/>
     <use xlink:href="#m97d1785684" x="220.994007" y="333.069775" style="fill: #808080; fill-opacity: 0.5"/>
     <use xlink:href="#m97d1785684" x="221.670037" y="365.816639" style="fill: #808080; fill-opacity: 0.5"/>
     <use xlink:href="#m97d1785684" x="222.704187" y="252.328974" style="fill: #808080; fill-opacity: 0.5"/>
     <use xlink:href="#m97d1785684" x="203.155405" y="168.887171" style="fill: #808080; fill-opacity: 0.5"/>
     <use xlink:href="#m97d1785684" x="226.569512" y="304.474334" style="fill: #808080; fill-opacity: 0.5"/>
     <use xlink:href="#m97d1785684" x="226.543446" y="359.264821" style="fill: #808080; fill-opacity: 0.5"/>
     <use xlink:href="#m97d1785684" x="215.814867" y="365.249061" style="fill: #808080; fill-opacity: 0.5"/>
     <use xlink:href="#m97d1785684" x="223.66539" y="346.34043" style="fill: #808080; fill-opacity: 0.5"/>
     <use xlink:href="#m97d1785684" x="208.087506" y="354.860235" style="fill: #808080; fill-opacity: 0.5"/>
     <use xlink:href="#m97d1785684" x="218.26345" y="357.082544" style="fill: #808080; fill-opacity: 0.5"/>
     <use xlink:href="#m97d1785684" x="221.847915" y="221.353681" style="fill: #808080; fill-opacity: 0.5"/>
     <use xlink:href="#m97d1785684" x="216.445933" y="319.065496" style="fill: #808080; fill-opacity: 0.5"/>
     <use xlink:href="#m97d1785684" x="214.016401" y="326.057855" style="fill: #808080; fill-opacity: 0.5"/>
     <use xlink:href="#m97d1785684" x="225.936957" y="360.477232" style="fill: #808080; fill-opacity: 0.5"/>
     <use xlink:href="#m97d1785684" x="226.506025" y="304.805897" style="fill: #808080; fill-opacity: 0.5"/>
     <use xlink:href="#m97d1785684" x="213.063124" y="359.580948" style="fill: #808080; fill-opacity: 0.5"/>
     <use xlink:href="#m97d1785684" x="210.917218" y="292.496015" style="fill: #808080; fill-opacity: 0.5"/>
     <use xlink:href="#m97d1785684" x="214.103227" y="165.535069" style="fill: #808080; fill-opacity: 0.5"/>
     <use xlink:href="#m97d1785684" x="222.246245" y="352.345158" style="fill: #808080; fill-opacity: 0.5"/>
     <use xlink:href="#m97d1785684" x="219.371072" y="354.725182" style="fill: #808080; fill-opacity: 0.5"/>
     <use xlink:href="#m97d1785684" x="222.805775" y="256.944923" style="fill: #808080; fill-opacity: 0.5"/>
     <use xlink:href="#m97d1785684" x="218.422037" y="321.833909" style="fill: #808080; fill-opacity: 0.5"/>
     <use xlink:href="#m97d1785684" x="213.969484" y="360.906436" style="fill: #808080; fill-opacity: 0.5"/>
     <use xlink:href="#m97d1785684" x="220.943859" y="296.108222" style="fill: #808080; fill-opacity: 0.5"/>
     <use xlink:href="#m97d1785684" x="215.989306" y="363.940547" style="fill: #808080; fill-opacity: 0.5"/>
     <use xlink:href="#m97d1785684" x="213.224251" y="362.149429" style="fill: #808080; fill-opacity: 0.5"/>
     <use xlink:href="#m97d1785684" x="214.923639" y="366.026552" style="fill: #808080; fill-opacity: 0.5"/>
     <use xlink:href="#m97d1785684" x="216.468614" y="335.426485" style="fill: #808080; fill-opacity: 0.5"/>
     <use xlink:href="#m97d1785684" x="209.251398" y="249.990391" style="fill: #808080; fill-opacity: 0.5"/>
     <use xlink:href="#m97d1785684" x="222.24996" y="154.837892" style="fill: #808080; fill-opacity: 0.5"/>
     <use xlink:href="#m97d1785684" x="214.14027" y="236.226468" style="fill: #808080; fill-opacity: 0.5"/>
     <use xlink:href="#m97d1785684" x="215.786528" y="180.57807" style="fill: #808080; fill-opacity: 0.5"/>
     <use xlink:href="#m97d1785684" x="226.930082" y="307.400739" style="fill: #808080; fill-opacity: 0.5"/>
     <use xlink:href="#m97d1785684" x="209.275975" y="345.504954" style="fill: #808080; fill-opacity: 0.5"/>
     <use xlink:href="#m97d1785684" x="215.295314" y="343.001108" style="fill: #808080; fill-opacity: 0.5"/>
     <use xlink:href="#m97d1785684" x="218.439938" y="360.900336" style="fill: #808080; fill-opacity: 0.5"/>
     <use xlink:href="#m97d1785684" x="223.229526" y="369.184168" style="fill: #808080; fill-opacity: 0.5"/>
     <use xlink:href="#m97d1785684" x="211.660561" y="232.671965" style="fill: #808080; fill-opacity: 0.5"/>
     <use xlink:href="#m97d1785684" x="218.150752" y="152.758273" style="fill: #808080; fill-opacity: 0.5"/>
     <use xlink:href="#m97d1785684" x="208.517464" y="312.927729" style="fill: #808080; fill-opacity: 0.5"/>
     <use xlink:href="#m97d1785684" x="219.069265" y="370.454296" style="fill: #808080; fill-opacity: 0.5"/>
     <use xlink:href="#m97d1785684" x="214.448784" y="341.077054" style="fill: #808080; fill-opacity: 0.5"/>
     <use xlink:href="#m97d1785684" x="214.274092" y="294.356019" style="fill: #808080; fill-opacity: 0.5"/>
     <use xlink:href="#m97d1785684" x="225.82463" y="236.243661" style="fill: #808080; fill-opacity: 0.5"/>
     <use xlink:href="#m97d1785684" x="215.932975" y="253.097669" style="fill: #808080; fill-opacity: 0.5"/>
     <use xlink:href="#m97d1785684" x="230.148409" y="336.201551" style="fill: #808080; fill-opacity: 0.5"/>
     <use xlink:href="#m97d1785684" x="206.595437" y="338.331122" style="fill: #808080; fill-opacity: 0.5"/>
     <use xlink:href="#m97d1785684" x="215.711881" y="303.509633" style="fill: #808080; fill-opacity: 0.5"/>
     <use xlink:href="#m97d1785684" x="208.061825" y="317.940156" style="fill: #808080; fill-opacity: 0.5"/>
     <use xlink:href="#m97d1785684" x="216.624322" y="384.979941" style="fill: #808080; fill-opacity: 0.5"/>
     <use xlink:href="#m97d1785684" x="213.895666" y="376.620864" style="fill: #808080; fill-opacity: 0.5"/>
     <use xlink:href="#m97d1785684" x="210.066924" y="386.94" style="fill: #808080; fill-opacity: 0.5"/>
     <use xlink:href="#m97d1785684" x="220.429697" y="335.04884" style="fill: #808080; fill-opacity: 0.5"/>
     <use xlink:href="#m97d1785684" x="228.224574" y="281.782142" style="fill: #808080; fill-opacity: 0.5"/>
     <use xlink:href="#m97d1785684" x="214.188786" y="337.938516" style="fill: #808080; fill-opacity: 0.5"/>
     <use xlink:href="#m97d1785684" x="221.331085" y="306.717906" style="fill: #808080; fill-opacity: 0.5"/>
     <use xlink:href="#m97d1785684" x="221.686655" y="289.512794" style="fill: #808080; fill-opacity: 0.5"/>
     <use xlink:href="#m97d1785684" x="216.07791" y="373.91137" style="fill: #808080; fill-opacity: 0.5"/>
     <use xlink:href="#m97d1785684" x="220.663859" y="350.670145" style="fill: #808080; fill-opacity: 0.5"/>
     <use xlink:href="#m97d1785684" x="219.786665" y="357.974303" style="fill: #808080; fill-opacity: 0.5"/>
     <use xlink:href="#m97d1785684" x="224.919969" y="312.927035" style="fill: #808080; fill-opacity: 0.5"/>
     <use xlink:href="#m97d1785684" x="220.200564" y="369.369189" style="fill: #808080; fill-opacity: 0.5"/>
     <use xlink:href="#m97d1785684" x="221.73129" y="365.315002" style="fill: #808080; fill-opacity: 0.5"/>
     <use xlink:href="#m97d1785684" x="213.922594" y="366.560183" style="fill: #808080; fill-opacity: 0.5"/>
     <use xlink:href="#m97d1785684" x="217.61165" y="312.709217" style="fill: #808080; fill-opacity: 0.5"/>
     <use xlink:href="#m97d1785684" x="221.275153" y="358.692085" style="fill: #808080; fill-opacity: 0.5"/>
     <use xlink:href="#m97d1785684" x="221.405325" y="353.085014" style="fill: #808080; fill-opacity: 0.5"/>
     <use xlink:href="#m97d1785684" x="215.937381" y="276.172983" style="fill: #808080; fill-opacity: 0.5"/>
     <use xlink:href="#m97d1785684" x="220.259317" y="284.918107" style="fill: #808080; fill-opacity: 0.5"/>
     <use xlink:href="#m97d1785684" x="218.336813" y="322.562796" style="fill: #808080; fill-opacity: 0.5"/>
     <use xlink:href="#m97d1785684" x="213.296744" y="340.015495" style="fill: #808080; fill-opacity: 0.5"/>
     <use xlink:href="#m97d1785684" x="208.10257" y="360.226251" style="fill: #808080; fill-opacity: 0.5"/>
     <use xlink:href="#m97d1785684" x="221.938915" y="313.738659" style="fill: #808080; fill-opacity: 0.5"/>
     <use xlink:href="#m97d1785684" x="224.103913" y="301.374614" style="fill: #808080; fill-opacity: 0.5"/>
     <use xlink:href="#m97d1785684" x="218.101268" y="347.807063" style="fill: #808080; fill-opacity: 0.5"/>
     <use xlink:href="#m97d1785684" x="213.063068" y="285.692293" style="fill: #808080; fill-opacity: 0.5"/>
     <use xlink:href="#m97d1785684" x="213.084434" y="366.336398" style="fill: #808080; fill-opacity: 0.5"/>
     <use xlink:href="#m97d1785684" x="224.532827" y="283.527901" style="fill: #808080; fill-opacity: 0.5"/>
     <use xlink:href="#m97d1785684" x="206.639054" y="80.255043" style="fill: #808080; fill-opacity: 0.5"/>
     <use xlink:href="#m97d1785684" x="213.147742" y="270.487764" style="fill: #808080; fill-opacity: 0.5"/>
     <use xlink:href="#m97d1785684" x="207.581323" y="331.412671" style="fill: #808080; fill-opacity: 0.5"/>
     <use xlink:href="#m97d1785684" x="212.594649" y="270.264323" style="fill: #808080; fill-opacity: 0.5"/>
     <use xlink:href="#m97d1785684" x="228.725365" y="364.185404" style="fill: #808080; fill-opacity: 0.5"/>
     <use xlink:href="#m97d1785684" x="217.630916" y="344.879887" style="fill: #808080; fill-opacity: 0.5"/>
     <use xlink:href="#m97d1785684" x="216.866696" y="351.454172" style="fill: #808080; fill-opacity: 0.5"/>
     <use xlink:href="#m97d1785684" x="214.786882" y="354.697442" style="fill: #808080; fill-opacity: 0.5"/>
     <use xlink:href="#m97d1785684" x="216.817294" y="325.943581" style="fill: #808080; fill-opacity: 0.5"/>
     <use xlink:href="#m97d1785684" x="221.937583" y="242.525519" style="fill: #808080; fill-opacity: 0.5"/>
     <use xlink:href="#m97d1785684" x="208.000795" y="341.77728" style="fill: #808080; fill-opacity: 0.5"/>
     <use xlink:href="#m97d1785684" x="223.243616" y="346.005551" style="fill: #808080; fill-opacity: 0.5"/>
     <use xlink:href="#m97d1785684" x="210.640202" y="289.388405" style="fill: #808080; fill-opacity: 0.5"/>
     <use xlink:href="#m97d1785684" x="217.777888" y="342.512046" style="fill: #808080; fill-opacity: 0.5"/>
     <use xlink:href="#m97d1785684" x="214.96248" y="363.43738" style="fill: #808080; fill-opacity: 0.5"/>
     <use xlink:href="#m97d1785684" x="222.355741" y="250.280251" style="fill: #808080; fill-opacity: 0.5"/>
     <use xlink:href="#m97d1785684" x="210.601222" y="327.350017" style="fill: #808080; fill-opacity: 0.5"/>
     <use xlink:href="#m97d1785684" x="210.309822" y="351.288855" style="fill: #808080; fill-opacity: 0.5"/>
     <use xlink:href="#m97d1785684" x="216.353034" y="333.379602" style="fill: #808080; fill-opacity: 0.5"/>
     <use xlink:href="#m97d1785684" x="230.712938" y="354.506516" style="fill: #808080; fill-opacity: 0.5"/>
    </g>
   </g>
   <g id="matplotlib.axis_1">
    <g id="xtick_1">
     <g id="line2d_1">
      <defs>
       <path id="m0675260bed" d="M 0 0 
L 0 3.5 
" style="stroke: #000000; stroke-width: 0.8"/>
      </defs>
      <g>
       <use xlink:href="#m0675260bed" x="98.0025" y="404.12" style="stroke: #000000; stroke-width: 0.8"/>
      </g>
     </g>
     <g id="text_1">
      <!-- Mutants -->
      <g transform="translate(76.876719 418.718437) scale(0.1 -0.1)">
       <defs>
        <path id="DejaVuSerif-4d" d="M 353 0 
L 353 331 
L 947 331 
L 947 4331 
L 319 4331 
L 319 4666 
L 1678 4666 
L 3316 1344 
L 4953 4666 
L 6228 4666 
L 6228 4331 
L 5606 4331 
L 5606 331 
L 6203 331 
L 6203 0 
L 4378 0 
L 4378 331 
L 4972 331 
L 4972 3938 
L 3372 684 
L 2931 684 
L 1331 3938 
L 1331 331 
L 1925 331 
L 1925 0 
L 353 0 
z
" transform="scale(0.015625)"/>
        <path id="DejaVuSerif-75" d="M 2266 3322 
L 3341 3322 
L 3341 331 
L 3884 331 
L 3884 0 
L 2766 0 
L 2766 588 
Q 2606 256 2353 82 
Q 2100 -91 1766 -91 
Q 1213 -91 952 223 
Q 691 538 691 1209 
L 691 2988 
L 172 2988 
L 172 3322 
L 1269 3322 
L 1269 1388 
Q 1269 781 1417 556 
Q 1566 331 1947 331 
Q 2347 331 2556 625 
Q 2766 919 2766 1478 
L 2766 2988 
L 2266 2988 
L 2266 3322 
z
" transform="scale(0.015625)"/>
        <path id="DejaVuSerif-74" d="M 691 2988 
L 184 2988 
L 184 3322 
L 691 3322 
L 691 4353 
L 1269 4353 
L 1269 3322 
L 2350 3322 
L 2350 2988 
L 1269 2988 
L 1269 878 
Q 1269 456 1350 337 
Q 1431 219 1650 219 
Q 1875 219 1978 351 
Q 2081 484 2088 781 
L 2522 781 
Q 2497 328 2275 118 
Q 2053 -91 1600 -91 
Q 1103 -91 897 129 
Q 691 350 691 878 
L 691 2988 
z
" transform="scale(0.015625)"/>
        <path id="DejaVuSerif-61" d="M 2547 1044 
L 2547 1747 
L 1806 1747 
Q 1378 1747 1168 1562 
Q 959 1378 959 997 
Q 959 650 1171 447 
Q 1384 244 1747 244 
Q 2106 244 2326 466 
Q 2547 688 2547 1044 
z
M 3122 2075 
L 3122 331 
L 3634 331 
L 3634 0 
L 2547 0 
L 2547 359 
Q 2356 128 2106 18 
Q 1856 -91 1522 -91 
Q 969 -91 644 203 
Q 319 497 319 997 
Q 319 1513 691 1797 
Q 1063 2081 1741 2081 
L 2547 2081 
L 2547 2309 
Q 2547 2688 2317 2895 
Q 2088 3103 1672 3103 
Q 1328 3103 1125 2947 
Q 922 2791 872 2484 
L 575 2484 
L 575 3156 
Q 875 3284 1158 3348 
Q 1441 3413 1709 3413 
Q 2400 3413 2761 3070 
Q 3122 2728 3122 2075 
z
" transform="scale(0.015625)"/>
        <path id="DejaVuSerif-6e" d="M 263 0 
L 263 331 
L 781 331 
L 781 2988 
L 231 2988 
L 231 3322 
L 1356 3322 
L 1356 2731 
Q 1516 3069 1770 3241 
Q 2025 3413 2363 3413 
Q 2913 3413 3172 3097 
Q 3431 2781 3431 2113 
L 3431 331 
L 3944 331 
L 3944 0 
L 2356 0 
L 2356 331 
L 2853 331 
L 2853 1931 
Q 2853 2541 2703 2767 
Q 2553 2994 2175 2994 
Q 1775 2994 1565 2701 
Q 1356 2409 1356 1850 
L 1356 331 
L 1856 331 
L 1856 0 
L 263 0 
z
" transform="scale(0.015625)"/>
        <path id="DejaVuSerif-73" d="M 359 184 
L 359 959 
L 691 959 
Q 703 588 923 403 
Q 1144 219 1575 219 
Q 1963 219 2166 364 
Q 2369 509 2369 788 
Q 2369 1006 2220 1140 
Q 2072 1275 1594 1428 
L 1178 1569 
Q 750 1706 558 1912 
Q 366 2119 366 2438 
Q 366 2894 700 3153 
Q 1034 3413 1625 3413 
Q 1888 3413 2178 3344 
Q 2469 3275 2778 3144 
L 2778 2419 
L 2447 2419 
Q 2434 2741 2221 2922 
Q 2009 3103 1644 3103 
Q 1281 3103 1095 2975 
Q 909 2847 909 2591 
Q 909 2381 1050 2254 
Q 1191 2128 1613 1997 
L 2069 1856 
Q 2541 1709 2748 1489 
Q 2956 1269 2956 922 
Q 2956 450 2595 179 
Q 2234 -91 1600 -91 
Q 1278 -91 972 -22 
Q 666 47 359 184 
z
" transform="scale(0.015625)"/>
       </defs>
       <use xlink:href="#DejaVuSerif-4d"/>
       <use xlink:href="#DejaVuSerif-75" x="102.392578"/>
       <use xlink:href="#DejaVuSerif-74" x="166.796875"/>
       <use xlink:href="#DejaVuSerif-61" x="206.982422"/>
       <use xlink:href="#DejaVuSerif-6e" x="266.601562"/>
       <use xlink:href="#DejaVuSerif-74" x="331.005859"/>
       <use xlink:href="#DejaVuSerif-73" x="371.191406"/>
      </g>
     </g>
    </g>
    <g id="xtick_2">
     <g id="line2d_2">
      <g>
       <use xlink:href="#m0675260bed" x="217.4675" y="404.12" style="stroke: #000000; stroke-width: 0.8"/>
      </g>
     </g>
     <g id="text_2">
      <!-- Non-members WT -->
      <g transform="translate(171.551094 418.718437) scale(0.1 -0.1)">
       <defs>
        <path id="DejaVuSerif-4e" d="M 313 0 
L 313 331 
L 941 331 
L 941 4331 
L 313 4331 
L 313 4666 
L 1509 4666 
L 4306 984 
L 4306 4331 
L 3681 4331 
L 3681 4666 
L 5319 4666 
L 5319 4331 
L 4691 4331 
L 4691 -91 
L 4313 -91 
L 1325 3841 
L 1325 331 
L 1953 331 
L 1953 0 
L 313 0 
z
" transform="scale(0.015625)"/>
        <path id="DejaVuSerif-6f" d="M 1925 219 
Q 2388 219 2623 584 
Q 2859 950 2859 1663 
Q 2859 2375 2623 2739 
Q 2388 3103 1925 3103 
Q 1463 3103 1227 2739 
Q 991 2375 991 1663 
Q 991 950 1228 584 
Q 1466 219 1925 219 
z
M 1925 -91 
Q 1200 -91 759 389 
Q 319 869 319 1663 
Q 319 2456 758 2934 
Q 1197 3413 1925 3413 
Q 2653 3413 3092 2934 
Q 3531 2456 3531 1663 
Q 3531 869 3092 389 
Q 2653 -91 1925 -91 
z
" transform="scale(0.015625)"/>
        <path id="DejaVuSerif-2d" d="M 281 1959 
L 1881 1959 
L 1881 1472 
L 281 1472 
L 281 1959 
z
" transform="scale(0.015625)"/>
        <path id="DejaVuSerif-6d" d="M 3316 2675 
Q 3481 3041 3739 3227 
Q 3997 3413 4341 3413 
Q 4863 3413 5119 3089 
Q 5375 2766 5375 2113 
L 5375 331 
L 5894 331 
L 5894 0 
L 4300 0 
L 4300 331 
L 4800 331 
L 4800 2047 
Q 4800 2556 4650 2772 
Q 4500 2988 4153 2988 
Q 3769 2988 3567 2697 
Q 3366 2406 3366 1850 
L 3366 331 
L 3866 331 
L 3866 0 
L 2291 0 
L 2291 331 
L 2791 331 
L 2791 2069 
Q 2791 2566 2641 2777 
Q 2491 2988 2144 2988 
Q 1759 2988 1557 2697 
Q 1356 2406 1356 1850 
L 1356 331 
L 1856 331 
L 1856 0 
L 263 0 
L 263 331 
L 781 331 
L 781 2994 
L 231 2994 
L 231 3322 
L 1356 3322 
L 1356 2731 
Q 1516 3063 1762 3238 
Q 2009 3413 2322 3413 
Q 2709 3413 2968 3220 
Q 3228 3028 3316 2675 
z
" transform="scale(0.015625)"/>
        <path id="DejaVuSerif-65" d="M 3469 1600 
L 991 1600 
L 991 1575 
Q 991 903 1244 561 
Q 1497 219 1991 219 
Q 2369 219 2611 417 
Q 2853 616 2950 1006 
L 3413 1006 
Q 3275 459 2904 184 
Q 2534 -91 1931 -91 
Q 1203 -91 761 389 
Q 319 869 319 1663 
Q 319 2450 753 2931 
Q 1188 3413 1894 3413 
Q 2647 3413 3050 2948 
Q 3453 2484 3469 1600 
z
M 2791 1931 
Q 2772 2513 2545 2808 
Q 2319 3103 1894 3103 
Q 1497 3103 1269 2806 
Q 1041 2509 991 1931 
L 2791 1931 
z
" transform="scale(0.015625)"/>
        <path id="DejaVuSerif-62" d="M 738 331 
L 738 4531 
L 184 4531 
L 184 4863 
L 1313 4863 
L 1313 2803 
Q 1481 3116 1742 3264 
Q 2003 3413 2388 3413 
Q 3000 3413 3387 2928 
Q 3775 2444 3775 1663 
Q 3775 881 3387 395 
Q 3000 -91 2388 -91 
Q 2003 -91 1742 57 
Q 1481 206 1313 519 
L 1313 0 
L 184 0 
L 184 331 
L 738 331 
z
M 1313 1497 
Q 1313 897 1542 583 
Q 1772 269 2209 269 
Q 2650 269 2876 622 
Q 3103 975 3103 1663 
Q 3103 2353 2876 2703 
Q 2650 3053 2209 3053 
Q 1772 3053 1542 2737 
Q 1313 2422 1313 1825 
L 1313 1497 
z
" transform="scale(0.015625)"/>
        <path id="DejaVuSerif-72" d="M 3059 3328 
L 3059 2497 
L 2728 2497 
Q 2713 2744 2591 2866 
Q 2469 2988 2234 2988 
Q 1809 2988 1582 2694 
Q 1356 2400 1356 1850 
L 1356 331 
L 2022 331 
L 2022 0 
L 263 0 
L 263 331 
L 781 331 
L 781 2994 
L 231 2994 
L 231 3322 
L 1356 3322 
L 1356 2731 
Q 1525 3078 1790 3245 
Q 2056 3413 2438 3413 
Q 2578 3413 2733 3391 
Q 2888 3369 3059 3328 
z
" transform="scale(0.015625)"/>
        <path id="DejaVuSerif-20" transform="scale(0.015625)"/>
        <path id="DejaVuSerif-57" d="M 4878 0 
L 4366 0 
L 3297 3794 
L 2228 0 
L 1716 0 
L 494 4331 
L 31 4331 
L 31 4666 
L 1734 4666 
L 1734 4331 
L 1153 4331 
L 2125 884 
L 3188 4666 
L 3694 4666 
L 4775 844 
L 5753 4331 
L 5216 4331 
L 5216 4666 
L 6559 4666 
L 6559 4331 
L 6100 4331 
L 4878 0 
z
" transform="scale(0.015625)"/>
        <path id="DejaVuSerif-54" d="M 1222 0 
L 1222 331 
L 1819 331 
L 1819 4294 
L 447 4294 
L 447 3566 
L 63 3566 
L 63 4666 
L 4206 4666 
L 4206 3566 
L 3822 3566 
L 3822 4294 
L 2450 4294 
L 2450 331 
L 3047 331 
L 3047 0 
L 1222 0 
z
" transform="scale(0.015625)"/>
       </defs>
       <use xlink:href="#DejaVuSerif-4e"/>
       <use xlink:href="#DejaVuSerif-6f" x="87.5"/>
       <use xlink:href="#DejaVuSerif-6e" x="147.705078"/>
       <use xlink:href="#DejaVuSerif-2d" x="212.109375"/>
       <use xlink:href="#DejaVuSerif-6d" x="245.898438"/>
       <use xlink:href="#DejaVuSerif-65" x="340.722656"/>
       <use xlink:href="#DejaVuSerif-6d" x="399.902344"/>
       <use xlink:href="#DejaVuSerif-62" x="494.726562"/>
       <use xlink:href="#DejaVuSerif-65" x="558.740234"/>
       <use xlink:href="#DejaVuSerif-72" x="617.919922"/>
       <use xlink:href="#DejaVuSerif-73" x="665.722656"/>
       <use xlink:href="#DejaVuSerif-20" x="717.041016"/>
       <use xlink:href="#DejaVuSerif-57" x="748.828125"/>
       <use xlink:href="#DejaVuSerif-54" x="851.611328"/>
      </g>
     </g>
    </g>
   </g>
   <g id="matplotlib.axis_2">
    <g id="ytick_1">
     <g id="line2d_3">
      <defs>
       <path id="m6492911d7c" d="M 0 0 
L -3.5 0 
" style="stroke: #000000; stroke-width: 0.8"/>
      </defs>
      <g>
       <use xlink:href="#m6492911d7c" x="38.27" y="386.94" style="stroke: #000000; stroke-width: 0.8"/>
      </g>
     </g>
     <g id="text_3">
      <!-- 0 -->
      <g transform="translate(24.9075 390.739219) scale(0.1 -0.1)">
       <defs>
        <path id="DejaVuSerif-30" d="M 2034 219 
Q 2513 219 2750 744 
Q 2988 1269 2988 2328 
Q 2988 3391 2750 3916 
Q 2513 4441 2034 4441 
Q 1556 4441 1318 3916 
Q 1081 3391 1081 2328 
Q 1081 1269 1318 744 
Q 1556 219 2034 219 
z
M 2034 -91 
Q 1275 -91 848 546 
Q 422 1184 422 2328 
Q 422 3475 848 4112 
Q 1275 4750 2034 4750 
Q 2797 4750 3222 4112 
Q 3647 3475 3647 2328 
Q 3647 1184 3222 546 
Q 2797 -91 2034 -91 
z
" transform="scale(0.015625)"/>
       </defs>
       <use xlink:href="#DejaVuSerif-30"/>
      </g>
     </g>
    </g>
    <g id="ytick_2">
     <g id="line2d_4">
      <g>
       <use xlink:href="#m6492911d7c" x="38.27" y="304.760056" style="stroke: #000000; stroke-width: 0.8"/>
      </g>
     </g>
     <g id="text_4">
      <!-- 2 -->
      <g transform="translate(24.9075 308.559275) scale(0.1 -0.1)">
       <defs>
        <path id="DejaVuSerif-32" d="M 819 3553 
L 469 3553 
L 469 4384 
Q 803 4563 1142 4656 
Q 1481 4750 1806 4750 
Q 2534 4750 2956 4397 
Q 3378 4044 3378 3438 
Q 3378 2753 2422 1800 
Q 2347 1728 2309 1691 
L 1131 513 
L 3078 513 
L 3078 1088 
L 3444 1088 
L 3444 0 
L 434 0 
L 434 341 
L 1850 1753 
Q 2319 2222 2519 2614 
Q 2719 3006 2719 3438 
Q 2719 3909 2473 4175 
Q 2228 4441 1797 4441 
Q 1350 4441 1106 4219 
Q 863 3997 819 3553 
z
" transform="scale(0.015625)"/>
       </defs>
       <use xlink:href="#DejaVuSerif-32"/>
      </g>
     </g>
    </g>
    <g id="ytick_3">
     <g id="line2d_5">
      <g>
       <use xlink:href="#m6492911d7c" x="38.27" y="222.580112" style="stroke: #000000; stroke-width: 0.8"/>
      </g>
     </g>
     <g id="text_5">
      <!-- 4 -->
      <g transform="translate(24.9075 226.379331) scale(0.1 -0.1)">
       <defs>
        <path id="DejaVuSerif-34" d="M 2234 1581 
L 2234 4063 
L 641 1581 
L 2234 1581 
z
M 3609 0 
L 1484 0 
L 1484 331 
L 2234 331 
L 2234 1247 
L 197 1247 
L 197 1588 
L 2241 4750 
L 2859 4750 
L 2859 1581 
L 3750 1581 
L 3750 1247 
L 2859 1247 
L 2859 331 
L 3609 331 
L 3609 0 
z
" transform="scale(0.015625)"/>
       </defs>
       <use xlink:href="#DejaVuSerif-34"/>
      </g>
     </g>
    </g>
    <g id="ytick_4">
     <g id="line2d_6">
      <g>
       <use xlink:href="#m6492911d7c" x="38.27" y="140.400168" style="stroke: #000000; stroke-width: 0.8"/>
      </g>
     </g>
     <g id="text_6">
      <!-- 6 -->
      <g transform="translate(24.9075 144.199387) scale(0.1 -0.1)">
       <defs>
        <path id="DejaVuSerif-36" d="M 2094 219 
Q 2534 219 2771 542 
Q 3009 866 3009 1472 
Q 3009 2078 2771 2401 
Q 2534 2725 2094 2725 
Q 1647 2725 1412 2412 
Q 1178 2100 1178 1509 
Q 1178 888 1415 553 
Q 1653 219 2094 219 
z
M 1075 2569 
Q 1288 2803 1556 2918 
Q 1825 3034 2163 3034 
Q 2859 3034 3264 2615 
Q 3669 2197 3669 1472 
Q 3669 763 3233 336 
Q 2797 -91 2069 -91 
Q 1278 -91 853 498 
Q 428 1088 428 2181 
Q 428 3406 931 4078 
Q 1434 4750 2350 4750 
Q 2597 4750 2869 4703 
Q 3141 4656 3425 4563 
L 3425 3794 
L 3072 3794 
Q 3034 4109 2831 4275 
Q 2628 4441 2284 4441 
Q 1678 4441 1381 3981 
Q 1084 3522 1075 2569 
z
" transform="scale(0.015625)"/>
       </defs>
       <use xlink:href="#DejaVuSerif-36"/>
      </g>
     </g>
    </g>
    <g id="ytick_5">
     <g id="line2d_7">
      <g>
       <use xlink:href="#m6492911d7c" x="38.27" y="58.220224" style="stroke: #000000; stroke-width: 0.8"/>
      </g>
     </g>
     <g id="text_7">
      <!-- 8 -->
      <g transform="translate(24.9075 62.019443) scale(0.1 -0.1)">
       <defs>
        <path id="DejaVuSerif-38" d="M 2981 1275 
Q 2981 1775 2732 2051 
Q 2484 2328 2034 2328 
Q 1584 2328 1336 2051 
Q 1088 1775 1088 1275 
Q 1088 772 1336 495 
Q 1584 219 2034 219 
Q 2484 219 2732 495 
Q 2981 772 2981 1275 
z
M 2853 3541 
Q 2853 3966 2637 4203 
Q 2422 4441 2034 4441 
Q 1650 4441 1433 4203 
Q 1216 3966 1216 3541 
Q 1216 3113 1433 2875 
Q 1650 2638 2034 2638 
Q 2422 2638 2637 2875 
Q 2853 3113 2853 3541 
z
M 2516 2484 
Q 3047 2413 3344 2092 
Q 3641 1772 3641 1275 
Q 3641 619 3225 264 
Q 2809 -91 2034 -91 
Q 1263 -91 845 264 
Q 428 619 428 1275 
Q 428 1772 725 2092 
Q 1022 2413 1556 2484 
Q 1084 2569 832 2842 
Q 581 3116 581 3541 
Q 581 4103 968 4426 
Q 1356 4750 2034 4750 
Q 2713 4750 3100 4426 
Q 3488 4103 3488 3541 
Q 3488 3116 3236 2842 
Q 2984 2569 2516 2484 
z
" transform="scale(0.015625)"/>
       </defs>
       <use xlink:href="#DejaVuSerif-38"/>
      </g>
     </g>
    </g>
    <g id="text_8">
     <!-- σ (dV(t)/dt) -->
     <g transform="translate(18.827813 243.661094) rotate(-90) scale(0.1 -0.1)">
      <defs>
       <path id="DejaVuSerif-3c3" d="M 1925 219 
Q 2388 219 2623 584 
Q 2859 950 2859 1663 
Q 2859 2309 2625 2706 
Q 2416 3044 1925 3047 
Q 1447 3047 1225 2706 
Q 991 2341 991 1663 
Q 991 950 1228 584 
Q 1466 219 1925 219 
z
M 1931 3322 
Q 3206 3322 4181 3322 
L 4181 2988 
L 3038 2988 
Q 3531 2509 3531 1663 
Q 3531 869 3092 389 
Q 2653 -91 1925 -91 
Q 1200 -91 759 389 
Q 319 869 319 1662 
Q 319 2456 756 2934 
Q 1113 3322 1931 3322 
z
" transform="scale(0.015625)"/>
       <path id="DejaVuSerif-28" d="M 2041 -997 
Q 1281 -656 893 83 
Q 506 822 506 1931 
Q 506 3044 893 3783 
Q 1281 4522 2041 4863 
L 2041 4556 
Q 1559 4225 1350 3623 
Q 1141 3022 1141 1931 
Q 1141 844 1350 242 
Q 1559 -359 2041 -691 
L 2041 -997 
z
" transform="scale(0.015625)"/>
       <path id="DejaVuSerif-64" d="M 3359 331 
L 3909 331 
L 3909 0 
L 2784 0 
L 2784 519 
Q 2616 206 2355 57 
Q 2094 -91 1709 -91 
Q 1097 -91 708 395 
Q 319 881 319 1663 
Q 319 2444 706 2928 
Q 1094 3413 1709 3413 
Q 2094 3413 2355 3264 
Q 2616 3116 2784 2803 
L 2784 4531 
L 2241 4531 
L 2241 4863 
L 3359 4863 
L 3359 331 
z
M 2784 1497 
L 2784 1825 
Q 2784 2422 2554 2737 
Q 2325 3053 1888 3053 
Q 1444 3053 1217 2703 
Q 991 2353 991 1663 
Q 991 975 1217 622 
Q 1444 269 1888 269 
Q 2325 269 2554 583 
Q 2784 897 2784 1497 
z
" transform="scale(0.015625)"/>
       <path id="DejaVuSerif-56" d="M 1119 4331 
L 2497 750 
L 3872 4331 
L 3347 4331 
L 3347 4666 
L 4716 4666 
L 4716 4331 
L 4263 4331 
L 2597 0 
L 2059 0 
L 403 4331 
L -63 4331 
L -63 4666 
L 1638 4666 
L 1638 4331 
L 1119 4331 
z
" transform="scale(0.015625)"/>
       <path id="DejaVuSerif-29" d="M 453 -997 
L 453 -691 
Q 934 -359 1145 242 
Q 1356 844 1356 1931 
Q 1356 3022 1145 3623 
Q 934 4225 453 4556 
L 453 4863 
Q 1216 4522 1603 3783 
Q 1991 3044 1991 1931 
Q 1991 822 1603 83 
Q 1216 -656 453 -997 
z
" transform="scale(0.015625)"/>
       <path id="DejaVuSerif-2f" d="M 1656 4666 
L 2156 4666 
L 500 -594 
L 0 -594 
L 1656 4666 
z
" transform="scale(0.015625)"/>
      </defs>
      <use xlink:href="#DejaVuSerif-3c3"/>
      <use xlink:href="#DejaVuSerif-20" x="68.261719"/>
      <use xlink:href="#DejaVuSerif-28" x="100.048828"/>
      <use xlink:href="#DejaVuSerif-64" x="139.0625"/>
      <use xlink:href="#DejaVuSerif-56" x="203.076172"/>
      <use xlink:href="#DejaVuSerif-28" x="275.292969"/>
      <use xlink:href="#DejaVuSerif-74" x="314.306641"/>
      <use xlink:href="#DejaVuSerif-29" x="354.492188"/>
      <use xlink:href="#DejaVuSerif-2f" x="393.505859"/>
      <use xlink:href="#DejaVuSerif-64" x="427.197266"/>
      <use xlink:href="#DejaVuSerif-74" x="491.210938"/>
      <use xlink:href="#DejaVuSerif-29" x="531.396484"/>
     </g>
    </g>
   </g>
   <g id="line2d_8">
    <path d="M 89.042625 347.955394 
L 106.962375 347.955394 
L 106.962375 246.561848 
L 89.042625 246.561848 
L 89.042625 347.955394 
" clip-path="url(#pb6ff12bf70)" style="fill: none; stroke: #000000; stroke-linecap: square"/>
   </g>
   <g id="line2d_9">
    <path d="M 98.0025 347.955394 
L 98.0025 376.620864 
" clip-path="url(#pb6ff12bf70)" style="fill: none; stroke: #000000; stroke-linecap: square"/>
   </g>
   <g id="line2d_10">
    <path d="M 98.0025 246.561848 
L 98.0025 152.676196 
" clip-path="url(#pb6ff12bf70)" style="fill: none; stroke: #000000; stroke-linecap: square"/>
   </g>
   <g id="line2d_11">
    <path d="M 93.522563 376.620864 
L 102.482438 376.620864 
" clip-path="url(#pb6ff12bf70)" style="fill: none; stroke: #000000; stroke-linecap: square"/>
   </g>
   <g id="line2d_12">
    <path d="M 93.522563 152.676196 
L 102.482438 152.676196 
" clip-path="url(#pb6ff12bf70)" style="fill: none; stroke: #000000; stroke-linecap: square"/>
   </g>
   <g id="line2d_13">
    <path d="M 208.507625 357.082544 
L 226.427375 357.082544 
L 226.427375 289.512794 
L 208.507625 289.512794 
L 208.507625 357.082544 
" clip-path="url(#pb6ff12bf70)" style="fill: none; stroke: #000000; stroke-linecap: square"/>
   </g>
   <g id="line2d_14">
    <path d="M 217.4675 357.082544 
L 217.4675 386.94 
" clip-path="url(#pb6ff12bf70)" style="fill: none; stroke: #000000; stroke-linecap: square"/>
   </g>
   <g id="line2d_15">
    <path d="M 217.4675 289.512794 
L 217.4675 221.353681 
" clip-path="url(#pb6ff12bf70)" style="fill: none; stroke: #000000; stroke-linecap: square"/>
   </g>
   <g id="line2d_16">
    <path d="M 212.987562 386.94 
L 221.947437 386.94 
" clip-path="url(#pb6ff12bf70)" style="fill: none; stroke: #000000; stroke-linecap: square"/>
   </g>
   <g id="line2d_17">
    <path d="M 212.987562 221.353681 
L 221.947437 221.353681 
" clip-path="url(#pb6ff12bf70)" style="fill: none; stroke: #000000; stroke-linecap: square"/>
   </g>
   <g id="line2d_18">
    <path d="M 98.0025 133.2323 
L 98.0025 128.078496 
L 217.4675 128.078496 
L 217.4675 133.2323 
" clip-path="url(#pb6ff12bf70)" style="fill: none; stroke: #000000; stroke-linecap: square"/>
   </g>
   <g id="line2d_19">
    <path d="M 89.042625 303.947055 
L 106.962375 303.947055 
" clip-path="url(#pb6ff12bf70)" style="fill: none; stroke: #ff7f0e"/>
   </g>
   <g id="line2d_20">
    <path d="M 208.507625 333.379602 
L 226.427375 333.379602 
" clip-path="url(#pb6ff12bf70)" style="fill: none; stroke: #ff7f0e"/>
   </g>
   <g id="patch_3">
    <path d="M 38.27 404.12 
L 38.27 26.16 
" style="fill: none; stroke: #000000; stroke-width: 0.8; stroke-linejoin: miter; stroke-linecap: square"/>
   </g>
   <g id="patch_4">
    <path d="M 277.2 404.12 
L 277.2 26.16 
" style="fill: none; stroke: #000000; stroke-width: 0.8; stroke-linejoin: miter; stroke-linecap: square"/>
   </g>
   <g id="patch_5">
    <path d="M 38.27 404.12 
L 277.2 404.12 
" style="fill: none; stroke: #000000; stroke-width: 0.8; stroke-linejoin: miter; stroke-linecap: square"/>
   </g>
   <g id="patch_6">
    <path d="M 38.27 26.16 
L 277.2 26.16 
" style="fill: none; stroke: #000000; stroke-width: 0.8; stroke-linejoin: miter; stroke-linecap: square"/>
   </g>
   <g id="text_9">
    <!-- * -->
    <g transform="translate(155.235 123.421907) scale(0.1 -0.1)">
     <defs>
      <path id="DejaVuSerif-2a" d="M 3097 3866 
L 1875 3297 
L 3097 2719 
L 2859 2350 
L 1772 3028 
L 1813 1838 
L 1388 1838 
L 1428 3028 
L 341 2350 
L 103 2719 
L 1325 3291 
L 103 3866 
L 341 4238 
L 1428 3559 
L 1388 4750 
L 1813 4750 
L 1772 3559 
L 2859 4238 
L 3097 3866 
z
" transform="scale(0.015625)"/>
     </defs>
     <use xlink:href="#DejaVuSerif-2a"/>
    </g>
   </g>
   <g id="text_10">
    <!-- summed injaccard, threshold: 0% -->
    <g transform="translate(55.615937 20.16) scale(0.12 -0.12)">
     <defs>
      <path id="DejaVuSerif-69" d="M 622 4353 
Q 622 4497 726 4603 
Q 831 4709 978 4709 
Q 1122 4709 1226 4603 
Q 1331 4497 1331 4353 
Q 1331 4206 1228 4103 
Q 1125 4000 978 4000 
Q 831 4000 726 4103 
Q 622 4206 622 4353 
z
M 1356 331 
L 1900 331 
L 1900 0 
L 231 0 
L 231 331 
L 781 331 
L 781 2988 
L 231 2988 
L 231 3322 
L 1356 3322 
L 1356 331 
z
" transform="scale(0.015625)"/>
      <path id="DejaVuSerif-6a" d="M 641 4353 
Q 641 4497 745 4603 
Q 850 4709 997 4709 
Q 1141 4709 1245 4603 
Q 1350 4497 1350 4353 
Q 1350 4206 1248 4103 
Q 1147 4000 997 4000 
Q 850 4000 745 4103 
Q 641 4206 641 4353 
z
M 781 2988 
L 238 2988 
L 238 3322 
L 1356 3322 
L 1356 -325 
Q 1356 -838 1051 -1130 
Q 747 -1422 213 -1422 
Q -13 -1422 -217 -1370 
Q -422 -1319 -616 -1216 
L -616 -531 
L -319 -531 
Q -297 -831 -164 -972 
Q -31 -1113 225 -1113 
Q 509 -1113 645 -920 
Q 781 -728 781 -325 
L 781 2988 
z
" transform="scale(0.015625)"/>
      <path id="DejaVuSerif-63" d="M 3291 997 
Q 3169 466 2822 187 
Q 2475 -91 1925 -91 
Q 1200 -91 759 389 
Q 319 869 319 1663 
Q 319 2459 759 2936 
Q 1200 3413 1925 3413 
Q 2241 3413 2553 3339 
Q 2866 3266 3181 3116 
L 3181 2266 
L 2847 2266 
Q 2781 2703 2561 2903 
Q 2341 3103 1931 3103 
Q 1466 3103 1228 2742 
Q 991 2381 991 1663 
Q 991 944 1227 581 
Q 1463 219 1931 219 
Q 2303 219 2525 412 
Q 2747 606 2828 997 
L 3291 997 
z
" transform="scale(0.015625)"/>
      <path id="DejaVuSerif-2c" d="M 231 -622 
Q 525 -406 662 -114 
Q 800 178 800 594 
L 800 709 
L 1416 709 
Q 1391 175 1164 -208 
Q 938 -591 481 -872 
L 231 -622 
z
" transform="scale(0.015625)"/>
      <path id="DejaVuSerif-68" d="M 263 0 
L 263 331 
L 781 331 
L 781 4531 
L 231 4531 
L 231 4863 
L 1356 4863 
L 1356 2731 
Q 1516 3069 1770 3241 
Q 2025 3413 2363 3413 
Q 2913 3413 3172 3097 
Q 3431 2781 3431 2113 
L 3431 331 
L 3944 331 
L 3944 0 
L 2356 0 
L 2356 331 
L 2853 331 
L 2853 1931 
Q 2853 2541 2704 2764 
Q 2556 2988 2175 2988 
Q 1775 2988 1565 2697 
Q 1356 2406 1356 1850 
L 1356 331 
L 1856 331 
L 1856 0 
L 263 0 
z
" transform="scale(0.015625)"/>
      <path id="DejaVuSerif-6c" d="M 1313 331 
L 1856 331 
L 1856 0 
L 184 0 
L 184 331 
L 738 331 
L 738 4531 
L 184 4531 
L 184 4863 
L 1313 4863 
L 1313 331 
z
" transform="scale(0.015625)"/>
      <path id="DejaVuSerif-3a" d="M 666 325 
Q 666 500 786 622 
Q 906 744 1081 744 
Q 1256 744 1376 622 
Q 1497 500 1497 325 
Q 1497 150 1378 29 
Q 1259 -91 1081 -91 
Q 903 -91 784 29 
Q 666 150 666 325 
z
M 666 2363 
Q 666 2538 786 2658 
Q 906 2778 1081 2778 
Q 1259 2778 1378 2659 
Q 1497 2541 1497 2363 
Q 1497 2184 1378 2065 
Q 1259 1947 1081 1947 
Q 906 1947 786 2067 
Q 666 2188 666 2363 
z
" transform="scale(0.015625)"/>
      <path id="DejaVuSerif-25" d="M 1434 4459 
Q 1159 4459 1004 4200 
Q 850 3941 850 3475 
Q 850 3016 1008 2753 
Q 1166 2491 1434 2491 
Q 1700 2491 1854 2752 
Q 2009 3013 2009 3475 
Q 2009 3938 1854 4198 
Q 1700 4459 1434 4459 
z
M 4653 2169 
Q 4381 2169 4226 1906 
Q 4072 1644 4072 1178 
Q 4072 719 4228 458 
Q 4384 197 4653 197 
Q 4922 197 5075 458 
Q 5228 719 5228 1178 
Q 5228 1641 5073 1905 
Q 4919 2169 4653 2169 
z
M 4653 2450 
Q 5147 2450 5437 2106 
Q 5728 1763 5728 1178 
Q 5728 594 5436 251 
Q 5144 -91 4653 -91 
Q 4153 -91 3862 251 
Q 3572 594 3572 1178 
Q 3572 1766 3864 2108 
Q 4156 2450 4653 2450 
z
M 4263 4750 
L 4738 4750 
L 1819 -91 
L 1344 -91 
L 4263 4750 
z
M 1428 4750 
Q 1922 4750 2215 4408 
Q 2509 4066 2509 3481 
Q 2509 2891 2217 2550 
Q 1925 2209 1428 2209 
Q 931 2209 642 2551 
Q 353 2894 353 3481 
Q 353 4063 643 4406 
Q 934 4750 1428 4750 
z
" transform="scale(0.015625)"/>
     </defs>
     <use xlink:href="#DejaVuSerif-73"/>
     <use xlink:href="#DejaVuSerif-75" x="51.318359"/>
     <use xlink:href="#DejaVuSerif-6d" x="115.722656"/>
     <use xlink:href="#DejaVuSerif-6d" x="210.546875"/>
     <use xlink:href="#DejaVuSerif-65" x="305.371094"/>
     <use xlink:href="#DejaVuSerif-64" x="364.550781"/>
     <use xlink:href="#DejaVuSerif-20" x="428.564453"/>
     <use xlink:href="#DejaVuSerif-69" x="460.351562"/>
     <use xlink:href="#DejaVuSerif-6e" x="492.333984"/>
     <use xlink:href="#DejaVuSerif-6a" x="556.738281"/>
     <use xlink:href="#DejaVuSerif-61" x="587.744141"/>
     <use xlink:href="#DejaVuSerif-63" x="647.363281"/>
     <use xlink:href="#DejaVuSerif-63" x="703.369141"/>
     <use xlink:href="#DejaVuSerif-61" x="759.375"/>
     <use xlink:href="#DejaVuSerif-72" x="818.994141"/>
     <use xlink:href="#DejaVuSerif-64" x="866.796875"/>
     <use xlink:href="#DejaVuSerif-2c" x="930.810547"/>
     <use xlink:href="#DejaVuSerif-20" x="962.597656"/>
     <use xlink:href="#DejaVuSerif-74" x="994.384766"/>
     <use xlink:href="#DejaVuSerif-68" x="1034.570312"/>
     <use xlink:href="#DejaVuSerif-72" x="1098.974609"/>
     <use xlink:href="#DejaVuSerif-65" x="1146.777344"/>
     <use xlink:href="#DejaVuSerif-73" x="1205.957031"/>
     <use xlink:href="#DejaVuSerif-68" x="1257.275391"/>
     <use xlink:href="#DejaVuSerif-6f" x="1321.679688"/>
     <use xlink:href="#DejaVuSerif-6c" x="1381.884766"/>
     <use xlink:href="#DejaVuSerif-64" x="1413.867188"/>
     <use xlink:href="#DejaVuSerif-3a" x="1477.880859"/>
     <use xlink:href="#DejaVuSerif-20" x="1511.572266"/>
     <use xlink:href="#DejaVuSerif-30" x="1543.359375"/>
     <use xlink:href="#DejaVuSerif-25" x="1606.982422"/>
    </g>
   </g>
  </g>
 </g>
 <defs>
  <clipPath id="pb6ff12bf70">
   <rect x="38.27" y="26.16" width="238.93" height="377.96"/>
  </clipPath>
 </defs>
</svg>
