<?xml version="1.0" encoding="utf-8" standalone="no"?>
<!DOCTYPE svg PUBLIC "-//W3C//DTD SVG 1.1//EN"
  "http://www.w3.org/Graphics/SVG/1.1/DTD/svg11.dtd">
<svg xmlns:xlink="http://www.w3.org/1999/xlink" width="288pt" height="432pt" viewBox="0 0 288 432" xmlns="http://www.w3.org/2000/svg" version="1.1">
 <metadata>
  <rdf:RDF xmlns:dc="http://purl.org/dc/elements/1.1/" xmlns:cc="http://creativecommons.org/ns#" xmlns:rdf="http://www.w3.org/1999/02/22-rdf-syntax-ns#">
   <cc:Work>
    <dc:type rdf:resource="http://purl.org/dc/dcmitype/StillImage"/>
    <dc:date>2025-06-03T14:40:32.598946</dc:date>
    <dc:format>image/svg+xml</dc:format>
    <dc:creator>
     <cc:Agent>
      <dc:title>Matplotlib v3.9.2, https://matplotlib.org/</dc:title>
     </cc:Agent>
    </dc:creator>
   </cc:Work>
  </rdf:RDF>
 </metadata>
 <defs>
  <style type="text/css">*{stroke-linejoin: round; stroke-linecap: butt}</style>
 </defs>
 <g id="figure_1">
  <g id="patch_1">
   <path d="M 0 432 
L 288 432 
L 288 0 
L 0 0 
z
" style="fill: #ffffff"/>
  </g>
  <g id="axes_1">
   <g id="patch_2">
    <path d="M 38.5625 404.12 
L 277.2 404.12 
L 277.2 26.16 
L 38.5625 26.16 
z
" style="fill: #ffffff"/>
   </g>
   <g id="PathCollection_1">
    <defs>
     <path id="ma84b50195b" d="M 0 5 
C 1.326016 5 2.597899 4.473168 3.535534 3.535534 
C 4.473168 2.597899 5 1.326016 5 0 
C 5 -1.326016 4.473168 -2.597899 3.535534 -3.535534 
C 2.597899 -4.473168 1.326016 -5 0 -5 
C -1.326016 -5 -2.597899 -4.473168 -3.535534 -3.535534 
C -4.473168 -2.597899 -5 -1.326016 -5 0 
C -5 1.326016 -4.473168 2.597899 -3.535534 3.535534 
C -2.597899 4.473168 -1.326016 5 0 5 
z
"/>
    </defs>
    <g clip-path="url(#p89d3a5ee2f)">
     <use xlink:href="#ma84b50195b" x="108.546214" y="154.411039" style="fill: #ff0000; fill-opacity: 0.5"/>
     <use xlink:href="#ma84b50195b" x="105.082892" y="203.567405" style="fill: #ff0000; fill-opacity: 0.5"/>
     <use xlink:href="#ma84b50195b" x="109.877439" y="293.475258" style="fill: #ff0000; fill-opacity: 0.5"/>
     <use xlink:href="#ma84b50195b" x="92.772354" y="343.55176" style="fill: #ff0000; fill-opacity: 0.5"/>
     <use xlink:href="#ma84b50195b" x="99.279639" y="169.253236" style="fill: #ff0000; fill-opacity: 0.5"/>
     <use xlink:href="#ma84b50195b" x="99.400614" y="293.072601" style="fill: #ff0000; fill-opacity: 0.5"/>
     <use xlink:href="#ma84b50195b" x="99.279008" y="279.735042" style="fill: #ff0000; fill-opacity: 0.5"/>
     <use xlink:href="#ma84b50195b" x="102.577227" y="176.596141" style="fill: #ff0000; fill-opacity: 0.5"/>
     <use xlink:href="#ma84b50195b" x="80.866549" y="185.630205" style="fill: #ff0000; fill-opacity: 0.5"/>
     <use xlink:href="#ma84b50195b" x="103.268392" y="254.818627" style="fill: #ff0000; fill-opacity: 0.5"/>
     <use xlink:href="#ma84b50195b" x="104.704501" y="212.292333" style="fill: #ff0000; fill-opacity: 0.5"/>
     <use xlink:href="#ma84b50195b" x="94.259013" y="150.046757" style="fill: #ff0000; fill-opacity: 0.5"/>
     <use xlink:href="#ma84b50195b" x="88.368739" y="95.777945" style="fill: #ff0000; fill-opacity: 0.5"/>
     <use xlink:href="#ma84b50195b" x="102.861126" y="271.66112" style="fill: #ff0000; fill-opacity: 0.5"/>
     <use xlink:href="#ma84b50195b" x="94.648787" y="240.971383" style="fill: #ff0000; fill-opacity: 0.5"/>
     <use xlink:href="#ma84b50195b" x="98.760256" y="144.453202" style="fill: #ff0000; fill-opacity: 0.5"/>
     <use xlink:href="#ma84b50195b" x="106.329956" y="146.60313" style="fill: #ff0000; fill-opacity: 0.5"/>
     <use xlink:href="#ma84b50195b" x="95.862946" y="157.069614" style="fill: #ff0000; fill-opacity: 0.5"/>
     <use xlink:href="#ma84b50195b" x="92.992679" y="89.514161" style="fill: #ff0000; fill-opacity: 0.5"/>
     <use xlink:href="#ma84b50195b" x="89.744103" y="152.422173" style="fill: #ff0000; fill-opacity: 0.5"/>
     <use xlink:href="#ma84b50195b" x="98.661249" y="176.700052" style="fill: #ff0000; fill-opacity: 0.5"/>
     <use xlink:href="#ma84b50195b" x="109.0646" y="91.470815" style="fill: #ff0000; fill-opacity: 0.5"/>
     <use xlink:href="#ma84b50195b" x="106.243087" y="145.271505" style="fill: #ff0000; fill-opacity: 0.5"/>
     <use xlink:href="#ma84b50195b" x="95.9134" y="199.639551" style="fill: #ff0000; fill-opacity: 0.5"/>
     <use xlink:href="#ma84b50195b" x="102.136763" y="181.031083" style="fill: #ff0000; fill-opacity: 0.5"/>
     <use xlink:href="#ma84b50195b" x="102.549244" y="209.317347" style="fill: #ff0000; fill-opacity: 0.5"/>
     <use xlink:href="#ma84b50195b" x="102.045051" y="96.459605" style="fill: #ff0000; fill-opacity: 0.5"/>
     <use xlink:href="#ma84b50195b" x="92.463401" y="176.916188" style="fill: #ff0000; fill-opacity: 0.5"/>
     <use xlink:href="#ma84b50195b" x="100.690531" y="159.368136" style="fill: #ff0000; fill-opacity: 0.5"/>
     <use xlink:href="#ma84b50195b" x="87.342939" y="161.765894" style="fill: #ff0000; fill-opacity: 0.5"/>
     <use xlink:href="#ma84b50195b" x="100.934457" y="116.776378" style="fill: #ff0000; fill-opacity: 0.5"/>
    </g>
   </g>
   <g id="PathCollection_2">
    <defs>
     <path id="ma339053df6" d="M 0 5 
C 1.326016 5 2.597899 4.473168 3.535534 3.535534 
C 4.473168 2.597899 5 1.326016 5 0 
C 5 -1.326016 4.473168 -2.597899 3.535534 -3.535534 
C 2.597899 -4.473168 1.326016 -5 0 -5 
C -1.326016 -5 -2.597899 -4.473168 -3.535534 -3.535534 
C -4.473168 -2.597899 -5 -1.326016 -5 0 
C -5 1.326016 -4.473168 2.597899 -3.535534 3.535534 
C -2.597899 4.473168 -1.326016 5 0 5 
z
"/>
    </defs>
    <g clip-path="url(#p89d3a5ee2f)">
     <use xlink:href="#ma339053df6" x="213.87695" y="314.512311" style="fill: #808080; fill-opacity: 0.5"/>
     <use xlink:href="#ma339053df6" x="225.773492" y="158.125528" style="fill: #808080; fill-opacity: 0.5"/>
     <use xlink:href="#ma339053df6" x="219.805366" y="165.028714" style="fill: #808080; fill-opacity: 0.5"/>
     <use xlink:href="#ma339053df6" x="223.085636" y="311.241524" style="fill: #808080; fill-opacity: 0.5"/>
     <use xlink:href="#ma339053df6" x="215.219561" y="215.980152" style="fill: #808080; fill-opacity: 0.5"/>
     <use xlink:href="#ma339053df6" x="224.715952" y="155.589395" style="fill: #808080; fill-opacity: 0.5"/>
     <use xlink:href="#ma339053df6" x="207.639092" y="201.712585" style="fill: #808080; fill-opacity: 0.5"/>
     <use xlink:href="#ma339053df6" x="208.366216" y="130.105624" style="fill: #808080; fill-opacity: 0.5"/>
     <use xlink:href="#ma339053df6" x="224.762408" y="360.062256" style="fill: #808080; fill-opacity: 0.5"/>
     <use xlink:href="#ma339053df6" x="209.156806" y="196.91707" style="fill: #808080; fill-opacity: 0.5"/>
     <use xlink:href="#ma339053df6" x="218.542968" y="343.089874" style="fill: #808080; fill-opacity: 0.5"/>
     <use xlink:href="#ma339053df6" x="215.02856" y="175.068642" style="fill: #808080; fill-opacity: 0.5"/>
     <use xlink:href="#ma339053df6" x="224.504287" y="95.570123" style="fill: #808080; fill-opacity: 0.5"/>
     <use xlink:href="#ma339053df6" x="219.801696" y="307.731913" style="fill: #808080; fill-opacity: 0.5"/>
     <use xlink:href="#ma339053df6" x="223.964885" y="273.395922" style="fill: #808080; fill-opacity: 0.5"/>
     <use xlink:href="#ma339053df6" x="218.23787" y="127.16337" style="fill: #808080; fill-opacity: 0.5"/>
     <use xlink:href="#ma339053df6" x="218.189233" y="72.59893" style="fill: #808080; fill-opacity: 0.5"/>
     <use xlink:href="#ma339053df6" x="214.90103" y="224.707158" style="fill: #808080; fill-opacity: 0.5"/>
     <use xlink:href="#ma339053df6" x="218.503833" y="80.461912" style="fill: #808080; fill-opacity: 0.5"/>
     <use xlink:href="#ma339053df6" x="210.068107" y="169.762922" style="fill: #808080; fill-opacity: 0.5"/>
     <use xlink:href="#ma339053df6" x="214.245315" y="188.572459" style="fill: #808080; fill-opacity: 0.5"/>
     <use xlink:href="#ma339053df6" x="229.828272" y="386.94" style="fill: #808080; fill-opacity: 0.5"/>
     <use xlink:href="#ma339053df6" x="223.760389" y="80.835474" style="fill: #808080; fill-opacity: 0.5"/>
     <use xlink:href="#ma339053df6" x="214.119059" y="277.772674" style="fill: #808080; fill-opacity: 0.5"/>
     <use xlink:href="#ma339053df6" x="215.554569" y="360.008741" style="fill: #808080; fill-opacity: 0.5"/>
     <use xlink:href="#ma339053df6" x="213.148987" y="246.370104" style="fill: #808080; fill-opacity: 0.5"/>
     <use xlink:href="#ma339053df6" x="217.709778" y="149.27989" style="fill: #808080; fill-opacity: 0.5"/>
     <use xlink:href="#ma339053df6" x="222.224581" y="166.256429" style="fill: #808080; fill-opacity: 0.5"/>
     <use xlink:href="#ma339053df6" x="215.458671" y="197.686015" style="fill: #808080; fill-opacity: 0.5"/>
     <use xlink:href="#ma339053df6" x="215.363104" y="278.051157" style="fill: #808080; fill-opacity: 0.5"/>
     <use xlink:href="#ma339053df6" x="219.724484" y="142.891412" style="fill: #808080; fill-opacity: 0.5"/>
     <use xlink:href="#ma339053df6" x="216.799681" y="227.550176" style="fill: #808080; fill-opacity: 0.5"/>
     <use xlink:href="#ma339053df6" x="218.427488" y="192.940378" style="fill: #808080; fill-opacity: 0.5"/>
     <use xlink:href="#ma339053df6" x="213.616421" y="193.159631" style="fill: #808080; fill-opacity: 0.5"/>
     <use xlink:href="#ma339053df6" x="220.094499" y="147.10814" style="fill: #808080; fill-opacity: 0.5"/>
     <use xlink:href="#ma339053df6" x="215.184141" y="178.116366" style="fill: #808080; fill-opacity: 0.5"/>
     <use xlink:href="#ma339053df6" x="214.612095" y="198.573939" style="fill: #808080; fill-opacity: 0.5"/>
     <use xlink:href="#ma339053df6" x="227.526899" y="91.259874" style="fill: #808080; fill-opacity: 0.5"/>
     <use xlink:href="#ma339053df6" x="220.380611" y="69.107505" style="fill: #808080; fill-opacity: 0.5"/>
     <use xlink:href="#ma339053df6" x="222.214458" y="89.150471" style="fill: #808080; fill-opacity: 0.5"/>
     <use xlink:href="#ma339053df6" x="219.266535" y="189.70977" style="fill: #808080; fill-opacity: 0.5"/>
     <use xlink:href="#ma339053df6" x="204.204617" y="194.853388" style="fill: #808080; fill-opacity: 0.5"/>
     <use xlink:href="#ma339053df6" x="212.946122" y="132.924223" style="fill: #808080; fill-opacity: 0.5"/>
     <use xlink:href="#ma339053df6" x="224.296441" y="96.846156" style="fill: #808080; fill-opacity: 0.5"/>
     <use xlink:href="#ma339053df6" x="215.015874" y="309.990429" style="fill: #808080; fill-opacity: 0.5"/>
     <use xlink:href="#ma339053df6" x="216.647629" y="262.557954" style="fill: #808080; fill-opacity: 0.5"/>
     <use xlink:href="#ma339053df6" x="219.371231" y="309.037561" style="fill: #808080; fill-opacity: 0.5"/>
     <use xlink:href="#ma339053df6" x="218.658271" y="174.184875" style="fill: #808080; fill-opacity: 0.5"/>
     <use xlink:href="#ma339053df6" x="221.479837" y="155.584546" style="fill: #808080; fill-opacity: 0.5"/>
     <use xlink:href="#ma339053df6" x="219.368193" y="92.348867" style="fill: #808080; fill-opacity: 0.5"/>
     <use xlink:href="#ma339053df6" x="212.189968" y="172.355513" style="fill: #808080; fill-opacity: 0.5"/>
     <use xlink:href="#ma339053df6" x="215.836122" y="193.582897" style="fill: #808080; fill-opacity: 0.5"/>
     <use xlink:href="#ma339053df6" x="206.561877" y="322.312253" style="fill: #808080; fill-opacity: 0.5"/>
     <use xlink:href="#ma339053df6" x="215.287639" y="115.954438" style="fill: #808080; fill-opacity: 0.5"/>
     <use xlink:href="#ma339053df6" x="213.78892" y="352.222134" style="fill: #808080; fill-opacity: 0.5"/>
     <use xlink:href="#ma339053df6" x="233.414922" y="117.601955" style="fill: #808080; fill-opacity: 0.5"/>
     <use xlink:href="#ma339053df6" x="219.826542" y="154.813523" style="fill: #808080; fill-opacity: 0.5"/>
     <use xlink:href="#ma339053df6" x="215.621912" y="133.520674" style="fill: #808080; fill-opacity: 0.5"/>
     <use xlink:href="#ma339053df6" x="204.996993" y="123.81742" style="fill: #808080; fill-opacity: 0.5"/>
     <use xlink:href="#ma339053df6" x="214.500205" y="163.944571" style="fill: #808080; fill-opacity: 0.5"/>
     <use xlink:href="#ma339053df6" x="213.131399" y="130.996665" style="fill: #808080; fill-opacity: 0.5"/>
     <use xlink:href="#ma339053df6" x="201.918187" y="129.154314" style="fill: #808080; fill-opacity: 0.5"/>
     <use xlink:href="#ma339053df6" x="216.099344" y="202.374502" style="fill: #808080; fill-opacity: 0.5"/>
     <use xlink:href="#ma339053df6" x="223.827455" y="112.001126" style="fill: #808080; fill-opacity: 0.5"/>
     <use xlink:href="#ma339053df6" x="222.222984" y="132.88058" style="fill: #808080; fill-opacity: 0.5"/>
     <use xlink:href="#ma339053df6" x="213.012756" y="135.088179" style="fill: #808080; fill-opacity: 0.5"/>
     <use xlink:href="#ma339053df6" x="228.814822" y="148.675645" style="fill: #808080; fill-opacity: 0.5"/>
     <use xlink:href="#ma339053df6" x="219.46202" y="246.064604" style="fill: #808080; fill-opacity: 0.5"/>
     <use xlink:href="#ma339053df6" x="214.316874" y="138.205004" style="fill: #808080; fill-opacity: 0.5"/>
     <use xlink:href="#ma339053df6" x="205.892413" y="167.387505" style="fill: #808080; fill-opacity: 0.5"/>
     <use xlink:href="#ma339053df6" x="216.919132" y="132.45385" style="fill: #808080; fill-opacity: 0.5"/>
     <use xlink:href="#ma339053df6" x="214.367096" y="153.960063" style="fill: #808080; fill-opacity: 0.5"/>
     <use xlink:href="#ma339053df6" x="219.271921" y="127.7619" style="fill: #808080; fill-opacity: 0.5"/>
     <use xlink:href="#ma339053df6" x="226.929714" y="166.554655" style="fill: #808080; fill-opacity: 0.5"/>
     <use xlink:href="#ma339053df6" x="214.945081" y="114.407196" style="fill: #808080; fill-opacity: 0.5"/>
     <use xlink:href="#ma339053df6" x="218.516479" y="146.8733" style="fill: #808080; fill-opacity: 0.5"/>
     <use xlink:href="#ma339053df6" x="206.900829" y="216.664409" style="fill: #808080; fill-opacity: 0.5"/>
     <use xlink:href="#ma339053df6" x="221.000779" y="126.440146" style="fill: #808080; fill-opacity: 0.5"/>
     <use xlink:href="#ma339053df6" x="225.979143" y="151.819487" style="fill: #808080; fill-opacity: 0.5"/>
     <use xlink:href="#ma339053df6" x="208.519775" y="152.279815" style="fill: #808080; fill-opacity: 0.5"/>
     <use xlink:href="#ma339053df6" x="221.42939" y="151.449562" style="fill: #808080; fill-opacity: 0.5"/>
     <use xlink:href="#ma339053df6" x="227.299485" y="205.204011" style="fill: #808080; fill-opacity: 0.5"/>
     <use xlink:href="#ma339053df6" x="216.002287" y="262.310645" style="fill: #808080; fill-opacity: 0.5"/>
     <use xlink:href="#ma339053df6" x="216.029715" y="118.776674" style="fill: #808080; fill-opacity: 0.5"/>
     <use xlink:href="#ma339053df6" x="210.177341" y="148.126473" style="fill: #808080; fill-opacity: 0.5"/>
     <use xlink:href="#ma339053df6" x="220.312898" y="215.914687" style="fill: #808080; fill-opacity: 0.5"/>
     <use xlink:href="#ma339053df6" x="220.084785" y="194.838841" style="fill: #808080; fill-opacity: 0.5"/>
     <use xlink:href="#ma339053df6" x="219.893067" y="109.286438" style="fill: #808080; fill-opacity: 0.5"/>
     <use xlink:href="#ma339053df6" x="211.643638" y="217.358537" style="fill: #808080; fill-opacity: 0.5"/>
     <use xlink:href="#ma339053df6" x="207.585196" y="143.289393" style="fill: #808080; fill-opacity: 0.5"/>
     <use xlink:href="#ma339053df6" x="219.503892" y="181.589607" style="fill: #808080; fill-opacity: 0.5"/>
     <use xlink:href="#ma339053df6" x="218.182513" y="217.889525" style="fill: #808080; fill-opacity: 0.5"/>
     <use xlink:href="#ma339053df6" x="223.232772" y="111.942416" style="fill: #808080; fill-opacity: 0.5"/>
     <use xlink:href="#ma339053df6" x="208.753648" y="172.838702" style="fill: #808080; fill-opacity: 0.5"/>
     <use xlink:href="#ma339053df6" x="220.365223" y="126.290513" style="fill: #808080; fill-opacity: 0.5"/>
     <use xlink:href="#ma339053df6" x="220.145333" y="104.602109" style="fill: #808080; fill-opacity: 0.5"/>
     <use xlink:href="#ma339053df6" x="237.393052" y="157.666066" style="fill: #808080; fill-opacity: 0.5"/>
     <use xlink:href="#ma339053df6" x="223.98881" y="171.500322" style="fill: #808080; fill-opacity: 0.5"/>
     <use xlink:href="#ma339053df6" x="220.314367" y="107.676849" style="fill: #808080; fill-opacity: 0.5"/>
     <use xlink:href="#ma339053df6" x="202.080169" y="134.150378" style="fill: #808080; fill-opacity: 0.5"/>
     <use xlink:href="#ma339053df6" x="225.292752" y="129.287321" style="fill: #808080; fill-opacity: 0.5"/>
    </g>
   </g>
   <g id="matplotlib.axis_1">
    <g id="xtick_1">
     <g id="line2d_1">
      <defs>
       <path id="mb2ac605d20" d="M 0 0 
L 0 3.5 
" style="stroke: #000000; stroke-width: 0.8"/>
      </defs>
      <g>
       <use xlink:href="#mb2ac605d20" x="98.221875" y="404.12" style="stroke: #000000; stroke-width: 0.8"/>
      </g>
     </g>
     <g id="text_1">
      <!-- Mutants -->
      <g transform="translate(77.096094 418.718437) scale(0.1 -0.1)">
       <defs>
        <path id="DejaVuSerif-4d" d="M 353 0 
L 353 331 
L 947 331 
L 947 4331 
L 319 4331 
L 319 4666 
L 1678 4666 
L 3316 1344 
L 4953 4666 
L 6228 4666 
L 6228 4331 
L 5606 4331 
L 5606 331 
L 6203 331 
L 6203 0 
L 4378 0 
L 4378 331 
L 4972 331 
L 4972 3938 
L 3372 684 
L 2931 684 
L 1331 3938 
L 1331 331 
L 1925 331 
L 1925 0 
L 353 0 
z
" transform="scale(0.015625)"/>
        <path id="DejaVuSerif-75" d="M 2266 3322 
L 3341 3322 
L 3341 331 
L 3884 331 
L 3884 0 
L 2766 0 
L 2766 588 
Q 2606 256 2353 82 
Q 2100 -91 1766 -91 
Q 1213 -91 952 223 
Q 691 538 691 1209 
L 691 2988 
L 172 2988 
L 172 3322 
L 1269 3322 
L 1269 1388 
Q 1269 781 1417 556 
Q 1566 331 1947 331 
Q 2347 331 2556 625 
Q 2766 919 2766 1478 
L 2766 2988 
L 2266 2988 
L 2266 3322 
z
" transform="scale(0.015625)"/>
        <path id="DejaVuSerif-74" d="M 691 2988 
L 184 2988 
L 184 3322 
L 691 3322 
L 691 4353 
L 1269 4353 
L 1269 3322 
L 2350 3322 
L 2350 2988 
L 1269 2988 
L 1269 878 
Q 1269 456 1350 337 
Q 1431 219 1650 219 
Q 1875 219 1978 351 
Q 2081 484 2088 781 
L 2522 781 
Q 2497 328 2275 118 
Q 2053 -91 1600 -91 
Q 1103 -91 897 129 
Q 691 350 691 878 
L 691 2988 
z
" transform="scale(0.015625)"/>
        <path id="DejaVuSerif-61" d="M 2547 1044 
L 2547 1747 
L 1806 1747 
Q 1378 1747 1168 1562 
Q 959 1378 959 997 
Q 959 650 1171 447 
Q 1384 244 1747 244 
Q 2106 244 2326 466 
Q 2547 688 2547 1044 
z
M 3122 2075 
L 3122 331 
L 3634 331 
L 3634 0 
L 2547 0 
L 2547 359 
Q 2356 128 2106 18 
Q 1856 -91 1522 -91 
Q 969 -91 644 203 
Q 319 497 319 997 
Q 319 1513 691 1797 
Q 1063 2081 1741 2081 
L 2547 2081 
L 2547 2309 
Q 2547 2688 2317 2895 
Q 2088 3103 1672 3103 
Q 1328 3103 1125 2947 
Q 922 2791 872 2484 
L 575 2484 
L 575 3156 
Q 875 3284 1158 3348 
Q 1441 3413 1709 3413 
Q 2400 3413 2761 3070 
Q 3122 2728 3122 2075 
z
" transform="scale(0.015625)"/>
        <path id="DejaVuSerif-6e" d="M 263 0 
L 263 331 
L 781 331 
L 781 2988 
L 231 2988 
L 231 3322 
L 1356 3322 
L 1356 2731 
Q 1516 3069 1770 3241 
Q 2025 3413 2363 3413 
Q 2913 3413 3172 3097 
Q 3431 2781 3431 2113 
L 3431 331 
L 3944 331 
L 3944 0 
L 2356 0 
L 2356 331 
L 2853 331 
L 2853 1931 
Q 2853 2541 2703 2767 
Q 2553 2994 2175 2994 
Q 1775 2994 1565 2701 
Q 1356 2409 1356 1850 
L 1356 331 
L 1856 331 
L 1856 0 
L 263 0 
z
" transform="scale(0.015625)"/>
        <path id="DejaVuSerif-73" d="M 359 184 
L 359 959 
L 691 959 
Q 703 588 923 403 
Q 1144 219 1575 219 
Q 1963 219 2166 364 
Q 2369 509 2369 788 
Q 2369 1006 2220 1140 
Q 2072 1275 1594 1428 
L 1178 1569 
Q 750 1706 558 1912 
Q 366 2119 366 2438 
Q 366 2894 700 3153 
Q 1034 3413 1625 3413 
Q 1888 3413 2178 3344 
Q 2469 3275 2778 3144 
L 2778 2419 
L 2447 2419 
Q 2434 2741 2221 2922 
Q 2009 3103 1644 3103 
Q 1281 3103 1095 2975 
Q 909 2847 909 2591 
Q 909 2381 1050 2254 
Q 1191 2128 1613 1997 
L 2069 1856 
Q 2541 1709 2748 1489 
Q 2956 1269 2956 922 
Q 2956 450 2595 179 
Q 2234 -91 1600 -91 
Q 1278 -91 972 -22 
Q 666 47 359 184 
z
" transform="scale(0.015625)"/>
       </defs>
       <use xlink:href="#DejaVuSerif-4d"/>
       <use xlink:href="#DejaVuSerif-75" x="102.392578"/>
       <use xlink:href="#DejaVuSerif-74" x="166.796875"/>
       <use xlink:href="#DejaVuSerif-61" x="206.982422"/>
       <use xlink:href="#DejaVuSerif-6e" x="266.601562"/>
       <use xlink:href="#DejaVuSerif-74" x="331.005859"/>
       <use xlink:href="#DejaVuSerif-73" x="371.191406"/>
      </g>
     </g>
    </g>
    <g id="xtick_2">
     <g id="line2d_2">
      <g>
       <use xlink:href="#mb2ac605d20" x="217.540625" y="404.12" style="stroke: #000000; stroke-width: 0.8"/>
      </g>
     </g>
     <g id="text_2">
      <!-- Non-members WT -->
      <g transform="translate(171.624219 418.718437) scale(0.1 -0.1)">
       <defs>
        <path id="DejaVuSerif-4e" d="M 313 0 
L 313 331 
L 941 331 
L 941 4331 
L 313 4331 
L 313 4666 
L 1509 4666 
L 4306 984 
L 4306 4331 
L 3681 4331 
L 3681 4666 
L 5319 4666 
L 5319 4331 
L 4691 4331 
L 4691 -91 
L 4313 -91 
L 1325 3841 
L 1325 331 
L 1953 331 
L 1953 0 
L 313 0 
z
" transform="scale(0.015625)"/>
        <path id="DejaVuSerif-6f" d="M 1925 219 
Q 2388 219 2623 584 
Q 2859 950 2859 1663 
Q 2859 2375 2623 2739 
Q 2388 3103 1925 3103 
Q 1463 3103 1227 2739 
Q 991 2375 991 1663 
Q 991 950 1228 584 
Q 1466 219 1925 219 
z
M 1925 -91 
Q 1200 -91 759 389 
Q 319 869 319 1663 
Q 319 2456 758 2934 
Q 1197 3413 1925 3413 
Q 2653 3413 3092 2934 
Q 3531 2456 3531 1663 
Q 3531 869 3092 389 
Q 2653 -91 1925 -91 
z
" transform="scale(0.015625)"/>
        <path id="DejaVuSerif-2d" d="M 281 1959 
L 1881 1959 
L 1881 1472 
L 281 1472 
L 281 1959 
z
" transform="scale(0.015625)"/>
        <path id="DejaVuSerif-6d" d="M 3316 2675 
Q 3481 3041 3739 3227 
Q 3997 3413 4341 3413 
Q 4863 3413 5119 3089 
Q 5375 2766 5375 2113 
L 5375 331 
L 5894 331 
L 5894 0 
L 4300 0 
L 4300 331 
L 4800 331 
L 4800 2047 
Q 4800 2556 4650 2772 
Q 4500 2988 4153 2988 
Q 3769 2988 3567 2697 
Q 3366 2406 3366 1850 
L 3366 331 
L 3866 331 
L 3866 0 
L 2291 0 
L 2291 331 
L 2791 331 
L 2791 2069 
Q 2791 2566 2641 2777 
Q 2491 2988 2144 2988 
Q 1759 2988 1557 2697 
Q 1356 2406 1356 1850 
L 1356 331 
L 1856 331 
L 1856 0 
L 263 0 
L 263 331 
L 781 331 
L 781 2994 
L 231 2994 
L 231 3322 
L 1356 3322 
L 1356 2731 
Q 1516 3063 1762 3238 
Q 2009 3413 2322 3413 
Q 2709 3413 2968 3220 
Q 3228 3028 3316 2675 
z
" transform="scale(0.015625)"/>
        <path id="DejaVuSerif-65" d="M 3469 1600 
L 991 1600 
L 991 1575 
Q 991 903 1244 561 
Q 1497 219 1991 219 
Q 2369 219 2611 417 
Q 2853 616 2950 1006 
L 3413 1006 
Q 3275 459 2904 184 
Q 2534 -91 1931 -91 
Q 1203 -91 761 389 
Q 319 869 319 1663 
Q 319 2450 753 2931 
Q 1188 3413 1894 3413 
Q 2647 3413 3050 2948 
Q 3453 2484 3469 1600 
z
M 2791 1931 
Q 2772 2513 2545 2808 
Q 2319 3103 1894 3103 
Q 1497 3103 1269 2806 
Q 1041 2509 991 1931 
L 2791 1931 
z
" transform="scale(0.015625)"/>
        <path id="DejaVuSerif-62" d="M 738 331 
L 738 4531 
L 184 4531 
L 184 4863 
L 1313 4863 
L 1313 2803 
Q 1481 3116 1742 3264 
Q 2003 3413 2388 3413 
Q 3000 3413 3387 2928 
Q 3775 2444 3775 1663 
Q 3775 881 3387 395 
Q 3000 -91 2388 -91 
Q 2003 -91 1742 57 
Q 1481 206 1313 519 
L 1313 0 
L 184 0 
L 184 331 
L 738 331 
z
M 1313 1497 
Q 1313 897 1542 583 
Q 1772 269 2209 269 
Q 2650 269 2876 622 
Q 3103 975 3103 1663 
Q 3103 2353 2876 2703 
Q 2650 3053 2209 3053 
Q 1772 3053 1542 2737 
Q 1313 2422 1313 1825 
L 1313 1497 
z
" transform="scale(0.015625)"/>
        <path id="DejaVuSerif-72" d="M 3059 3328 
L 3059 2497 
L 2728 2497 
Q 2713 2744 2591 2866 
Q 2469 2988 2234 2988 
Q 1809 2988 1582 2694 
Q 1356 2400 1356 1850 
L 1356 331 
L 2022 331 
L 2022 0 
L 263 0 
L 263 331 
L 781 331 
L 781 2994 
L 231 2994 
L 231 3322 
L 1356 3322 
L 1356 2731 
Q 1525 3078 1790 3245 
Q 2056 3413 2438 3413 
Q 2578 3413 2733 3391 
Q 2888 3369 3059 3328 
z
" transform="scale(0.015625)"/>
        <path id="DejaVuSerif-20" transform="scale(0.015625)"/>
        <path id="DejaVuSerif-57" d="M 4878 0 
L 4366 0 
L 3297 3794 
L 2228 0 
L 1716 0 
L 494 4331 
L 31 4331 
L 31 4666 
L 1734 4666 
L 1734 4331 
L 1153 4331 
L 2125 884 
L 3188 4666 
L 3694 4666 
L 4775 844 
L 5753 4331 
L 5216 4331 
L 5216 4666 
L 6559 4666 
L 6559 4331 
L 6100 4331 
L 4878 0 
z
" transform="scale(0.015625)"/>
        <path id="DejaVuSerif-54" d="M 1222 0 
L 1222 331 
L 1819 331 
L 1819 4294 
L 447 4294 
L 447 3566 
L 63 3566 
L 63 4666 
L 4206 4666 
L 4206 3566 
L 3822 3566 
L 3822 4294 
L 2450 4294 
L 2450 331 
L 3047 331 
L 3047 0 
L 1222 0 
z
" transform="scale(0.015625)"/>
       </defs>
       <use xlink:href="#DejaVuSerif-4e"/>
       <use xlink:href="#DejaVuSerif-6f" x="87.5"/>
       <use xlink:href="#DejaVuSerif-6e" x="147.705078"/>
       <use xlink:href="#DejaVuSerif-2d" x="212.109375"/>
       <use xlink:href="#DejaVuSerif-6d" x="245.898438"/>
       <use xlink:href="#DejaVuSerif-65" x="340.722656"/>
       <use xlink:href="#DejaVuSerif-6d" x="399.902344"/>
       <use xlink:href="#DejaVuSerif-62" x="494.726562"/>
       <use xlink:href="#DejaVuSerif-65" x="558.740234"/>
       <use xlink:href="#DejaVuSerif-72" x="617.919922"/>
       <use xlink:href="#DejaVuSerif-73" x="665.722656"/>
       <use xlink:href="#DejaVuSerif-20" x="717.041016"/>
       <use xlink:href="#DejaVuSerif-57" x="748.828125"/>
       <use xlink:href="#DejaVuSerif-54" x="851.611328"/>
      </g>
     </g>
    </g>
   </g>
   <g id="matplotlib.axis_2">
    <g id="ytick_1">
     <g id="line2d_3">
      <defs>
       <path id="m8080c12c65" d="M 0 0 
L -3.5 0 
" style="stroke: #000000; stroke-width: 0.8"/>
      </defs>
      <g>
       <use xlink:href="#m8080c12c65" x="38.5625" y="394.141066" style="stroke: #000000; stroke-width: 0.8"/>
      </g>
     </g>
     <g id="text_3">
      <!-- 1 -->
      <g transform="translate(25.2 397.940285) scale(0.1 -0.1)">
       <defs>
        <path id="DejaVuSerif-31" d="M 909 0 
L 909 331 
L 1722 331 
L 1722 4213 
L 781 3603 
L 781 4013 
L 1919 4750 
L 2350 4750 
L 2350 331 
L 3163 331 
L 3163 0 
L 909 0 
z
" transform="scale(0.015625)"/>
       </defs>
       <use xlink:href="#DejaVuSerif-31"/>
      </g>
     </g>
    </g>
    <g id="ytick_2">
     <g id="line2d_4">
      <g>
       <use xlink:href="#m8080c12c65" x="38.5625" y="320.821123" style="stroke: #000000; stroke-width: 0.8"/>
      </g>
     </g>
     <g id="text_4">
      <!-- 2 -->
      <g transform="translate(25.2 324.620342) scale(0.1 -0.1)">
       <defs>
        <path id="DejaVuSerif-32" d="M 819 3553 
L 469 3553 
L 469 4384 
Q 803 4563 1142 4656 
Q 1481 4750 1806 4750 
Q 2534 4750 2956 4397 
Q 3378 4044 3378 3438 
Q 3378 2753 2422 1800 
Q 2347 1728 2309 1691 
L 1131 513 
L 3078 513 
L 3078 1088 
L 3444 1088 
L 3444 0 
L 434 0 
L 434 341 
L 1850 1753 
Q 2319 2222 2519 2614 
Q 2719 3006 2719 3438 
Q 2719 3909 2473 4175 
Q 2228 4441 1797 4441 
Q 1350 4441 1106 4219 
Q 863 3997 819 3553 
z
" transform="scale(0.015625)"/>
       </defs>
       <use xlink:href="#DejaVuSerif-32"/>
      </g>
     </g>
    </g>
    <g id="ytick_3">
     <g id="line2d_5">
      <g>
       <use xlink:href="#m8080c12c65" x="38.5625" y="247.501181" style="stroke: #000000; stroke-width: 0.8"/>
      </g>
     </g>
     <g id="text_5">
      <!-- 3 -->
      <g transform="translate(25.2 251.300399) scale(0.1 -0.1)">
       <defs>
        <path id="DejaVuSerif-33" d="M 622 4469 
Q 988 4606 1323 4678 
Q 1659 4750 1953 4750 
Q 2638 4750 3022 4454 
Q 3406 4159 3406 3634 
Q 3406 3213 3140 2930 
Q 2875 2647 2388 2547 
Q 2963 2466 3280 2130 
Q 3597 1794 3597 1259 
Q 3597 606 3158 257 
Q 2719 -91 1894 -91 
Q 1528 -91 1179 -12 
Q 831 66 488 225 
L 488 1131 
L 838 1131 
Q 869 681 1141 450 
Q 1413 219 1906 219 
Q 2384 219 2661 495 
Q 2938 772 2938 1253 
Q 2938 1803 2653 2086 
Q 2369 2369 1819 2369 
L 1522 2369 
L 1522 2688 
L 1678 2688 
Q 2225 2688 2498 2914 
Q 2772 3141 2772 3597 
Q 2772 4006 2547 4223 
Q 2322 4441 1900 4441 
Q 1478 4441 1245 4241 
Q 1013 4041 972 3647 
L 622 3647 
L 622 4469 
z
" transform="scale(0.015625)"/>
       </defs>
       <use xlink:href="#DejaVuSerif-33"/>
      </g>
     </g>
    </g>
    <g id="ytick_4">
     <g id="line2d_6">
      <g>
       <use xlink:href="#m8080c12c65" x="38.5625" y="174.181238" style="stroke: #000000; stroke-width: 0.8"/>
      </g>
     </g>
     <g id="text_6">
      <!-- 4 -->
      <g transform="translate(25.2 177.980457) scale(0.1 -0.1)">
       <defs>
        <path id="DejaVuSerif-34" d="M 2234 1581 
L 2234 4063 
L 641 1581 
L 2234 1581 
z
M 3609 0 
L 1484 0 
L 1484 331 
L 2234 331 
L 2234 1247 
L 197 1247 
L 197 1588 
L 2241 4750 
L 2859 4750 
L 2859 1581 
L 3750 1581 
L 3750 1247 
L 2859 1247 
L 2859 331 
L 3609 331 
L 3609 0 
z
" transform="scale(0.015625)"/>
       </defs>
       <use xlink:href="#DejaVuSerif-34"/>
      </g>
     </g>
    </g>
    <g id="ytick_5">
     <g id="line2d_7">
      <g>
       <use xlink:href="#m8080c12c65" x="38.5625" y="100.861295" style="stroke: #000000; stroke-width: 0.8"/>
      </g>
     </g>
     <g id="text_7">
      <!-- 5 -->
      <g transform="translate(25.2 104.660514) scale(0.1 -0.1)">
       <defs>
        <path id="DejaVuSerif-35" d="M 3219 4666 
L 3219 4153 
L 1081 4153 
L 1081 2816 
Q 1244 2928 1461 2984 
Q 1678 3041 1947 3041 
Q 2703 3041 3140 2622 
Q 3578 2203 3578 1478 
Q 3578 738 3136 323 
Q 2694 -91 1894 -91 
Q 1572 -91 1234 -12 
Q 897 66 544 225 
L 544 1131 
L 897 1131 
Q 925 688 1179 453 
Q 1434 219 1894 219 
Q 2388 219 2653 544 
Q 2919 869 2919 1478 
Q 2919 2084 2655 2407 
Q 2391 2731 1894 2731 
Q 1613 2731 1398 2631 
Q 1184 2531 1019 2322 
L 750 2322 
L 750 4666 
L 3219 4666 
z
" transform="scale(0.015625)"/>
       </defs>
       <use xlink:href="#DejaVuSerif-35"/>
      </g>
     </g>
    </g>
    <g id="ytick_6">
     <g id="line2d_8">
      <g>
       <use xlink:href="#m8080c12c65" x="38.5625" y="27.541353" style="stroke: #000000; stroke-width: 0.8"/>
      </g>
     </g>
     <g id="text_8">
      <!-- 6 -->
      <g transform="translate(25.2 31.340571) scale(0.1 -0.1)">
       <defs>
        <path id="DejaVuSerif-36" d="M 2094 219 
Q 2534 219 2771 542 
Q 3009 866 3009 1472 
Q 3009 2078 2771 2401 
Q 2534 2725 2094 2725 
Q 1647 2725 1412 2412 
Q 1178 2100 1178 1509 
Q 1178 888 1415 553 
Q 1653 219 2094 219 
z
M 1075 2569 
Q 1288 2803 1556 2918 
Q 1825 3034 2163 3034 
Q 2859 3034 3264 2615 
Q 3669 2197 3669 1472 
Q 3669 763 3233 336 
Q 2797 -91 2069 -91 
Q 1278 -91 853 498 
Q 428 1088 428 2181 
Q 428 3406 931 4078 
Q 1434 4750 2350 4750 
Q 2597 4750 2869 4703 
Q 3141 4656 3425 4563 
L 3425 3794 
L 3072 3794 
Q 3034 4109 2831 4275 
Q 2628 4441 2284 4441 
Q 1678 4441 1381 3981 
Q 1084 3522 1075 2569 
z
" transform="scale(0.015625)"/>
       </defs>
       <use xlink:href="#DejaVuSerif-36"/>
      </g>
     </g>
    </g>
    <g id="text_9">
     <!-- μ [V(t)] -->
     <g transform="translate(19.120312 233.401719) rotate(-90) scale(0.1 -0.1)">
      <defs>
       <path id="DejaVuSerif-3bc" d="M 2309 3322 
L 3384 3322 
L 3384 325 
L 3928 325 
L 3928 0 
L 2809 0 
L 2809 588 
Q 2647 256 2417 82 
Q 2188 -91 1906 -91 
Q 1728 -91 1581 -34 
Q 1434 22 1313 134 
L 1313 -1331 
L 738 -1331 
L 738 2988 
L 219 2988 
L 219 3322 
L 1313 3322 
L 1313 1388 
Q 1313 781 1463 556 
Q 1613 331 1991 331 
Q 2391 331 2600 625 
Q 2809 919 2809 1478 
L 2809 2988 
L 2309 2988 
L 2309 3322 
z
" transform="scale(0.015625)"/>
       <path id="DejaVuSerif-5b" d="M 550 4863 
L 2003 4863 
L 2003 4531 
L 1147 4531 
L 1147 -513 
L 2003 -513 
L 2003 -844 
L 550 -844 
L 550 4863 
z
" transform="scale(0.015625)"/>
       <path id="DejaVuSerif-56" d="M 1119 4331 
L 2497 750 
L 3872 4331 
L 3347 4331 
L 3347 4666 
L 4716 4666 
L 4716 4331 
L 4263 4331 
L 2597 0 
L 2059 0 
L 403 4331 
L -63 4331 
L -63 4666 
L 1638 4666 
L 1638 4331 
L 1119 4331 
z
" transform="scale(0.015625)"/>
       <path id="DejaVuSerif-28" d="M 2041 -997 
Q 1281 -656 893 83 
Q 506 822 506 1931 
Q 506 3044 893 3783 
Q 1281 4522 2041 4863 
L 2041 4556 
Q 1559 4225 1350 3623 
Q 1141 3022 1141 1931 
Q 1141 844 1350 242 
Q 1559 -359 2041 -691 
L 2041 -997 
z
" transform="scale(0.015625)"/>
       <path id="DejaVuSerif-29" d="M 453 -997 
L 453 -691 
Q 934 -359 1145 242 
Q 1356 844 1356 1931 
Q 1356 3022 1145 3623 
Q 934 4225 453 4556 
L 453 4863 
Q 1216 4522 1603 3783 
Q 1991 3044 1991 1931 
Q 1991 822 1603 83 
Q 1216 -656 453 -997 
z
" transform="scale(0.015625)"/>
       <path id="DejaVuSerif-5d" d="M 1947 4863 
L 1947 -844 
L 494 -844 
L 494 -513 
L 1350 -513 
L 1350 4531 
L 494 4531 
L 494 4863 
L 1947 4863 
z
" transform="scale(0.015625)"/>
      </defs>
      <use xlink:href="#DejaVuSerif-3bc"/>
      <use xlink:href="#DejaVuSerif-20" x="64.990234"/>
      <use xlink:href="#DejaVuSerif-5b" x="96.777344"/>
      <use xlink:href="#DejaVuSerif-56" x="135.791016"/>
      <use xlink:href="#DejaVuSerif-28" x="208.007812"/>
      <use xlink:href="#DejaVuSerif-74" x="247.021484"/>
      <use xlink:href="#DejaVuSerif-29" x="287.207031"/>
      <use xlink:href="#DejaVuSerif-5d" x="326.220703"/>
     </g>
    </g>
   </g>
   <g id="line2d_9">
    <path d="M 89.272969 210.80484 
L 107.170781 210.80484 
L 107.170781 148.324943 
L 89.272969 148.324943 
L 89.272969 210.80484 
" clip-path="url(#p89d3a5ee2f)" style="fill: none; stroke: #000000; stroke-linecap: square"/>
   </g>
   <g id="line2d_10">
    <path d="M 98.221875 210.80484 
L 98.221875 293.475258 
" clip-path="url(#p89d3a5ee2f)" style="fill: none; stroke: #000000; stroke-linecap: square"/>
   </g>
   <g id="line2d_11">
    <path d="M 98.221875 148.324943 
L 98.221875 89.514161 
" clip-path="url(#p89d3a5ee2f)" style="fill: none; stroke: #000000; stroke-linecap: square"/>
   </g>
   <g id="line2d_12">
    <path d="M 93.747422 293.475258 
L 102.696328 293.475258 
" clip-path="url(#p89d3a5ee2f)" style="fill: none; stroke: #000000; stroke-linecap: square"/>
   </g>
   <g id="line2d_13">
    <path d="M 93.747422 89.514161 
L 102.696328 89.514161 
" clip-path="url(#p89d3a5ee2f)" style="fill: none; stroke: #000000; stroke-linecap: square"/>
   </g>
   <g id="line2d_14">
    <path d="M 208.591719 205.204011 
L 226.489531 205.204011 
L 226.489531 130.105624 
L 208.591719 130.105624 
L 208.591719 205.204011 
" clip-path="url(#p89d3a5ee2f)" style="fill: none; stroke: #000000; stroke-linecap: square"/>
   </g>
   <g id="line2d_15">
    <path d="M 217.540625 205.204011 
L 217.540625 314.512311 
" clip-path="url(#p89d3a5ee2f)" style="fill: none; stroke: #000000; stroke-linecap: square"/>
   </g>
   <g id="line2d_16">
    <path d="M 217.540625 130.105624 
L 217.540625 69.107505 
" clip-path="url(#p89d3a5ee2f)" style="fill: none; stroke: #000000; stroke-linecap: square"/>
   </g>
   <g id="line2d_17">
    <path d="M 213.066172 314.512311 
L 222.015078 314.512311 
" clip-path="url(#p89d3a5ee2f)" style="fill: none; stroke: #000000; stroke-linecap: square"/>
   </g>
   <g id="line2d_18">
    <path d="M 213.066172 69.107505 
L 222.015078 69.107505 
" clip-path="url(#p89d3a5ee2f)" style="fill: none; stroke: #000000; stroke-linecap: square"/>
   </g>
   <g id="line2d_19">
    <path d="M 98.221875 48.738906 
L 98.221875 43.34 
L 217.540625 43.34 
L 217.540625 48.738906 
" clip-path="url(#p89d3a5ee2f)" style="fill: none; stroke: #000000; stroke-linecap: square"/>
   </g>
   <g id="line2d_20">
    <path d="M 89.272969 176.596141 
L 107.170781 176.596141 
" clip-path="url(#p89d3a5ee2f)" style="fill: none; stroke: #ff7f0e"/>
   </g>
   <g id="line2d_21">
    <path d="M 208.591719 163.944571 
L 226.489531 163.944571 
" clip-path="url(#p89d3a5ee2f)" style="fill: none; stroke: #ff7f0e"/>
   </g>
   <g id="patch_3">
    <path d="M 38.5625 404.12 
L 38.5625 26.16 
" style="fill: none; stroke: #000000; stroke-width: 0.8; stroke-linejoin: miter; stroke-linecap: square"/>
   </g>
   <g id="patch_4">
    <path d="M 277.2 404.12 
L 277.2 26.16 
" style="fill: none; stroke: #000000; stroke-width: 0.8; stroke-linejoin: miter; stroke-linecap: square"/>
   </g>
   <g id="patch_5">
    <path d="M 38.5625 404.12 
L 277.2 404.12 
" style="fill: none; stroke: #000000; stroke-width: 0.8; stroke-linejoin: miter; stroke-linecap: square"/>
   </g>
   <g id="patch_6">
    <path d="M 38.5625 26.16 
L 277.2 26.16 
" style="fill: none; stroke: #000000; stroke-width: 0.8; stroke-linejoin: miter; stroke-linecap: square"/>
   </g>
   <g id="text_10">
    <!-- p = 0.745 -->
    <g transform="translate(132.998437 38.56086) scale(0.1 -0.1)">
     <defs>
      <path id="DejaVuSerif-70" d="M 1313 1825 
L 1313 1497 
Q 1313 897 1542 583 
Q 1772 269 2209 269 
Q 2650 269 2876 622 
Q 3103 975 3103 1663 
Q 3103 2353 2876 2703 
Q 2650 3053 2209 3053 
Q 1772 3053 1542 2737 
Q 1313 2422 1313 1825 
z
M 738 2988 
L 184 2988 
L 184 3322 
L 1313 3322 
L 1313 2803 
Q 1481 3116 1742 3264 
Q 2003 3413 2388 3413 
Q 3000 3413 3387 2928 
Q 3775 2444 3775 1663 
Q 3775 881 3387 395 
Q 3000 -91 2388 -91 
Q 2003 -91 1742 57 
Q 1481 206 1313 519 
L 1313 -997 
L 1856 -997 
L 1856 -1331 
L 184 -1331 
L 184 -997 
L 738 -997 
L 738 2988 
z
" transform="scale(0.015625)"/>
      <path id="DejaVuSerif-3d" d="M 678 2894 
L 4684 2894 
L 4684 2394 
L 678 2394 
L 678 2894 
z
M 678 1619 
L 4684 1619 
L 4684 1119 
L 678 1119 
L 678 1619 
z
" transform="scale(0.015625)"/>
      <path id="DejaVuSerif-30" d="M 2034 219 
Q 2513 219 2750 744 
Q 2988 1269 2988 2328 
Q 2988 3391 2750 3916 
Q 2513 4441 2034 4441 
Q 1556 4441 1318 3916 
Q 1081 3391 1081 2328 
Q 1081 1269 1318 744 
Q 1556 219 2034 219 
z
M 2034 -91 
Q 1275 -91 848 546 
Q 422 1184 422 2328 
Q 422 3475 848 4112 
Q 1275 4750 2034 4750 
Q 2797 4750 3222 4112 
Q 3647 3475 3647 2328 
Q 3647 1184 3222 546 
Q 2797 -91 2034 -91 
z
" transform="scale(0.015625)"/>
      <path id="DejaVuSerif-2e" d="M 603 325 
Q 603 500 722 622 
Q 841 744 1019 744 
Q 1191 744 1312 622 
Q 1434 500 1434 325 
Q 1434 153 1312 31 
Q 1191 -91 1019 -91 
Q 841 -91 722 29 
Q 603 150 603 325 
z
" transform="scale(0.015625)"/>
      <path id="DejaVuSerif-37" d="M 3609 4347 
L 1784 0 
L 1319 0 
L 3059 4153 
L 903 4153 
L 903 3578 
L 538 3578 
L 538 4666 
L 3609 4666 
L 3609 4347 
z
" transform="scale(0.015625)"/>
     </defs>
     <use xlink:href="#DejaVuSerif-70"/>
     <use xlink:href="#DejaVuSerif-20" x="64.013672"/>
     <use xlink:href="#DejaVuSerif-3d" x="95.800781"/>
     <use xlink:href="#DejaVuSerif-20" x="179.589844"/>
     <use xlink:href="#DejaVuSerif-30" x="211.376953"/>
     <use xlink:href="#DejaVuSerif-2e" x="275"/>
     <use xlink:href="#DejaVuSerif-37" x="306.787109"/>
     <use xlink:href="#DejaVuSerif-34" x="370.410156"/>
     <use xlink:href="#DejaVuSerif-35" x="434.033203"/>
    </g>
   </g>
   <g id="text_11">
    <!-- summed injaccard, threshold: 0% -->
    <g transform="translate(55.762187 20.16) scale(0.12 -0.12)">
     <defs>
      <path id="DejaVuSerif-64" d="M 3359 331 
L 3909 331 
L 3909 0 
L 2784 0 
L 2784 519 
Q 2616 206 2355 57 
Q 2094 -91 1709 -91 
Q 1097 -91 708 395 
Q 319 881 319 1663 
Q 319 2444 706 2928 
Q 1094 3413 1709 3413 
Q 2094 3413 2355 3264 
Q 2616 3116 2784 2803 
L 2784 4531 
L 2241 4531 
L 2241 4863 
L 3359 4863 
L 3359 331 
z
M 2784 1497 
L 2784 1825 
Q 2784 2422 2554 2737 
Q 2325 3053 1888 3053 
Q 1444 3053 1217 2703 
Q 991 2353 991 1663 
Q 991 975 1217 622 
Q 1444 269 1888 269 
Q 2325 269 2554 583 
Q 2784 897 2784 1497 
z
" transform="scale(0.015625)"/>
      <path id="DejaVuSerif-69" d="M 622 4353 
Q 622 4497 726 4603 
Q 831 4709 978 4709 
Q 1122 4709 1226 4603 
Q 1331 4497 1331 4353 
Q 1331 4206 1228 4103 
Q 1125 4000 978 4000 
Q 831 4000 726 4103 
Q 622 4206 622 4353 
z
M 1356 331 
L 1900 331 
L 1900 0 
L 231 0 
L 231 331 
L 781 331 
L 781 2988 
L 231 2988 
L 231 3322 
L 1356 3322 
L 1356 331 
z
" transform="scale(0.015625)"/>
      <path id="DejaVuSerif-6a" d="M 641 4353 
Q 641 4497 745 4603 
Q 850 4709 997 4709 
Q 1141 4709 1245 4603 
Q 1350 4497 1350 4353 
Q 1350 4206 1248 4103 
Q 1147 4000 997 4000 
Q 850 4000 745 4103 
Q 641 4206 641 4353 
z
M 781 2988 
L 238 2988 
L 238 3322 
L 1356 3322 
L 1356 -325 
Q 1356 -838 1051 -1130 
Q 747 -1422 213 -1422 
Q -13 -1422 -217 -1370 
Q -422 -1319 -616 -1216 
L -616 -531 
L -319 -531 
Q -297 -831 -164 -972 
Q -31 -1113 225 -1113 
Q 509 -1113 645 -920 
Q 781 -728 781 -325 
L 781 2988 
z
" transform="scale(0.015625)"/>
      <path id="DejaVuSerif-63" d="M 3291 997 
Q 3169 466 2822 187 
Q 2475 -91 1925 -91 
Q 1200 -91 759 389 
Q 319 869 319 1663 
Q 319 2459 759 2936 
Q 1200 3413 1925 3413 
Q 2241 3413 2553 3339 
Q 2866 3266 3181 3116 
L 3181 2266 
L 2847 2266 
Q 2781 2703 2561 2903 
Q 2341 3103 1931 3103 
Q 1466 3103 1228 2742 
Q 991 2381 991 1663 
Q 991 944 1227 581 
Q 1463 219 1931 219 
Q 2303 219 2525 412 
Q 2747 606 2828 997 
L 3291 997 
z
" transform="scale(0.015625)"/>
      <path id="DejaVuSerif-2c" d="M 231 -622 
Q 525 -406 662 -114 
Q 800 178 800 594 
L 800 709 
L 1416 709 
Q 1391 175 1164 -208 
Q 938 -591 481 -872 
L 231 -622 
z
" transform="scale(0.015625)"/>
      <path id="DejaVuSerif-68" d="M 263 0 
L 263 331 
L 781 331 
L 781 4531 
L 231 4531 
L 231 4863 
L 1356 4863 
L 1356 2731 
Q 1516 3069 1770 3241 
Q 2025 3413 2363 3413 
Q 2913 3413 3172 3097 
Q 3431 2781 3431 2113 
L 3431 331 
L 3944 331 
L 3944 0 
L 2356 0 
L 2356 331 
L 2853 331 
L 2853 1931 
Q 2853 2541 2704 2764 
Q 2556 2988 2175 2988 
Q 1775 2988 1565 2697 
Q 1356 2406 1356 1850 
L 1356 331 
L 1856 331 
L 1856 0 
L 263 0 
z
" transform="scale(0.015625)"/>
      <path id="DejaVuSerif-6c" d="M 1313 331 
L 1856 331 
L 1856 0 
L 184 0 
L 184 331 
L 738 331 
L 738 4531 
L 184 4531 
L 184 4863 
L 1313 4863 
L 1313 331 
z
" transform="scale(0.015625)"/>
      <path id="DejaVuSerif-3a" d="M 666 325 
Q 666 500 786 622 
Q 906 744 1081 744 
Q 1256 744 1376 622 
Q 1497 500 1497 325 
Q 1497 150 1378 29 
Q 1259 -91 1081 -91 
Q 903 -91 784 29 
Q 666 150 666 325 
z
M 666 2363 
Q 666 2538 786 2658 
Q 906 2778 1081 2778 
Q 1259 2778 1378 2659 
Q 1497 2541 1497 2363 
Q 1497 2184 1378 2065 
Q 1259 1947 1081 1947 
Q 906 1947 786 2067 
Q 666 2188 666 2363 
z
" transform="scale(0.015625)"/>
      <path id="DejaVuSerif-25" d="M 1434 4459 
Q 1159 4459 1004 4200 
Q 850 3941 850 3475 
Q 850 3016 1008 2753 
Q 1166 2491 1434 2491 
Q 1700 2491 1854 2752 
Q 2009 3013 2009 3475 
Q 2009 3938 1854 4198 
Q 1700 4459 1434 4459 
z
M 4653 2169 
Q 4381 2169 4226 1906 
Q 4072 1644 4072 1178 
Q 4072 719 4228 458 
Q 4384 197 4653 197 
Q 4922 197 5075 458 
Q 5228 719 5228 1178 
Q 5228 1641 5073 1905 
Q 4919 2169 4653 2169 
z
M 4653 2450 
Q 5147 2450 5437 2106 
Q 5728 1763 5728 1178 
Q 5728 594 5436 251 
Q 5144 -91 4653 -91 
Q 4153 -91 3862 251 
Q 3572 594 3572 1178 
Q 3572 1766 3864 2108 
Q 4156 2450 4653 2450 
z
M 4263 4750 
L 4738 4750 
L 1819 -91 
L 1344 -91 
L 4263 4750 
z
M 1428 4750 
Q 1922 4750 2215 4408 
Q 2509 4066 2509 3481 
Q 2509 2891 2217 2550 
Q 1925 2209 1428 2209 
Q 931 2209 642 2551 
Q 353 2894 353 3481 
Q 353 4063 643 4406 
Q 934 4750 1428 4750 
z
" transform="scale(0.015625)"/>
     </defs>
     <use xlink:href="#DejaVuSerif-73"/>
     <use xlink:href="#DejaVuSerif-75" x="51.318359"/>
     <use xlink:href="#DejaVuSerif-6d" x="115.722656"/>
     <use xlink:href="#DejaVuSerif-6d" x="210.546875"/>
     <use xlink:href="#DejaVuSerif-65" x="305.371094"/>
     <use xlink:href="#DejaVuSerif-64" x="364.550781"/>
     <use xlink:href="#DejaVuSerif-20" x="428.564453"/>
     <use xlink:href="#DejaVuSerif-69" x="460.351562"/>
     <use xlink:href="#DejaVuSerif-6e" x="492.333984"/>
     <use xlink:href="#DejaVuSerif-6a" x="556.738281"/>
     <use xlink:href="#DejaVuSerif-61" x="587.744141"/>
     <use xlink:href="#DejaVuSerif-63" x="647.363281"/>
     <use xlink:href="#DejaVuSerif-63" x="703.369141"/>
     <use xlink:href="#DejaVuSerif-61" x="759.375"/>
     <use xlink:href="#DejaVuSerif-72" x="818.994141"/>
     <use xlink:href="#DejaVuSerif-64" x="866.796875"/>
     <use xlink:href="#DejaVuSerif-2c" x="930.810547"/>
     <use xlink:href="#DejaVuSerif-20" x="962.597656"/>
     <use xlink:href="#DejaVuSerif-74" x="994.384766"/>
     <use xlink:href="#DejaVuSerif-68" x="1034.570312"/>
     <use xlink:href="#DejaVuSerif-72" x="1098.974609"/>
     <use xlink:href="#DejaVuSerif-65" x="1146.777344"/>
     <use xlink:href="#DejaVuSerif-73" x="1205.957031"/>
     <use xlink:href="#DejaVuSerif-68" x="1257.275391"/>
     <use xlink:href="#DejaVuSerif-6f" x="1321.679688"/>
     <use xlink:href="#DejaVuSerif-6c" x="1381.884766"/>
     <use xlink:href="#DejaVuSerif-64" x="1413.867188"/>
     <use xlink:href="#DejaVuSerif-3a" x="1477.880859"/>
     <use xlink:href="#DejaVuSerif-20" x="1511.572266"/>
     <use xlink:href="#DejaVuSerif-30" x="1543.359375"/>
     <use xlink:href="#DejaVuSerif-25" x="1606.982422"/>
    </g>
   </g>
  </g>
 </g>
 <defs>
  <clipPath id="p89d3a5ee2f">
   <rect x="38.5625" y="26.16" width="238.6375" height="377.96"/>
  </clipPath>
 </defs>
</svg>
