<?xml version="1.0" encoding="utf-8" standalone="no"?>
<!DOCTYPE svg PUBLIC "-//W3C//DTD SVG 1.1//EN"
  "http://www.w3.org/Graphics/SVG/1.1/DTD/svg11.dtd">
<svg xmlns:xlink="http://www.w3.org/1999/xlink" width="288pt" height="432pt" viewBox="0 0 288 432" xmlns="http://www.w3.org/2000/svg" version="1.1">
 <metadata>
  <rdf:RDF xmlns:dc="http://purl.org/dc/elements/1.1/" xmlns:cc="http://creativecommons.org/ns#" xmlns:rdf="http://www.w3.org/1999/02/22-rdf-syntax-ns#">
   <cc:Work>
    <dc:type rdf:resource="http://purl.org/dc/dcmitype/StillImage"/>
    <dc:date>2025-06-03T14:11:41.293867</dc:date>
    <dc:format>image/svg+xml</dc:format>
    <dc:creator>
     <cc:Agent>
      <dc:title>Matplotlib v3.9.2, https://matplotlib.org/</dc:title>
     </cc:Agent>
    </dc:creator>
   </cc:Work>
  </rdf:RDF>
 </metadata>
 <defs>
  <style type="text/css">*{stroke-linejoin: round; stroke-linecap: butt}</style>
 </defs>
 <g id="figure_1">
  <g id="patch_1">
   <path d="M 0 432 
L 288 432 
L 288 0 
L 0 0 
z
" style="fill: #ffffff"/>
  </g>
  <g id="axes_1">
   <g id="patch_2">
    <path d="M 47.72 404.12 
L 277.2 404.12 
L 277.2 26.16 
L 47.72 26.16 
z
" style="fill: #ffffff"/>
   </g>
   <g id="PathCollection_1">
    <defs>
     <path id="m442d2b3acb" d="M 0 5 
C 1.326016 5 2.597899 4.473168 3.535534 3.535534 
C 4.473168 2.597899 5 1.326016 5 0 
C 5 -1.326016 4.473168 -2.597899 3.535534 -3.535534 
C 2.597899 -4.473168 1.326016 -5 0 -5 
C -1.326016 -5 -2.597899 -4.473168 -3.535534 -3.535534 
C -4.473168 -2.597899 -5 -1.326016 -5 0 
C -5 1.326016 -4.473168 2.597899 -3.535534 3.535534 
C -2.597899 4.473168 -1.326016 5 0 5 
z
"/>
    </defs>
    <g clip-path="url(#p05c8347dda)">
     <use xlink:href="#m442d2b3acb" x="110.84113" y="386.94" style="fill: #ff0000; fill-opacity: 0.5"/>
     <use xlink:href="#m442d2b3acb" x="113.040595" y="242.133491" style="fill: #ff0000; fill-opacity: 0.5"/>
     <use xlink:href="#m442d2b3acb" x="113.469879" y="312.459569" style="fill: #ff0000; fill-opacity: 0.5"/>
     <use xlink:href="#m442d2b3acb" x="113.774369" y="195.596307" style="fill: #ff0000; fill-opacity: 0.5"/>
     <use xlink:href="#m442d2b3acb" x="109.558869" y="156.170824" style="fill: #ff0000; fill-opacity: 0.5"/>
     <use xlink:href="#m442d2b3acb" x="100.738448" y="201.037082" style="fill: #ff0000; fill-opacity: 0.5"/>
     <use xlink:href="#m442d2b3acb" x="115.023169" y="302.019242" style="fill: #ff0000; fill-opacity: 0.5"/>
     <use xlink:href="#m442d2b3acb" x="109.037541" y="201.037082" style="fill: #ff0000; fill-opacity: 0.5"/>
     <use xlink:href="#m442d2b3acb" x="105.312023" y="167.254289" style="fill: #ff0000; fill-opacity: 0.5"/>
     <use xlink:href="#m442d2b3acb" x="102.681339" y="181.61162" style="fill: #ff0000; fill-opacity: 0.5"/>
     <use xlink:href="#m442d2b3acb" x="99.557023" y="192.718797" style="fill: #ff0000; fill-opacity: 0.5"/>
     <use xlink:href="#m442d2b3acb" x="111.063088" y="162.260794" style="fill: #ff0000; fill-opacity: 0.5"/>
     <use xlink:href="#m442d2b3acb" x="104.235201" y="214.023448" style="fill: #ff0000; fill-opacity: 0.5"/>
     <use xlink:href="#m442d2b3acb" x="108.556832" y="228.943146" style="fill: #ff0000; fill-opacity: 0.5"/>
     <use xlink:href="#m442d2b3acb" x="117.298632" y="273.739545" style="fill: #ff0000; fill-opacity: 0.5"/>
     <use xlink:href="#m442d2b3acb" x="108.248438" y="228.943146" style="fill: #ff0000; fill-opacity: 0.5"/>
     <use xlink:href="#m442d2b3acb" x="94.428451" y="238.165455" style="fill: #ff0000; fill-opacity: 0.5"/>
     <use xlink:href="#m442d2b3acb" x="107.097023" y="223.76155" style="fill: #ff0000; fill-opacity: 0.5"/>
     <use xlink:href="#m442d2b3acb" x="91.751872" y="163.126613" style="fill: #ff0000; fill-opacity: 0.5"/>
     <use xlink:href="#m442d2b3acb" x="98.263385" y="193.864655" style="fill: #ff0000; fill-opacity: 0.5"/>
     <use xlink:href="#m442d2b3acb" x="106.429168" y="296.637276" style="fill: #ff0000; fill-opacity: 0.5"/>
     <use xlink:href="#m442d2b3acb" x="114.809808" y="310.620269" style="fill: #ff0000; fill-opacity: 0.5"/>
     <use xlink:href="#m442d2b3acb" x="105.502967" y="236.128621" style="fill: #ff0000; fill-opacity: 0.5"/>
     <use xlink:href="#m442d2b3acb" x="111.292239" y="251.639577" style="fill: #ff0000; fill-opacity: 0.5"/>
     <use xlink:href="#m442d2b3acb" x="103.150963" y="260.762147" style="fill: #ff0000; fill-opacity: 0.5"/>
     <use xlink:href="#m442d2b3acb" x="96.382324" y="305.350775" style="fill: #ff0000; fill-opacity: 0.5"/>
     <use xlink:href="#m442d2b3acb" x="107.086165" y="75.989774" style="fill: #ff0000; fill-opacity: 0.5"/>
     <use xlink:href="#m442d2b3acb" x="102.822586" y="193.864655" style="fill: #ff0000; fill-opacity: 0.5"/>
     <use xlink:href="#m442d2b3acb" x="109.087887" y="302.019242" style="fill: #ff0000; fill-opacity: 0.5"/>
     <use xlink:href="#m442d2b3acb" x="108.227748" y="260.762147" style="fill: #ff0000; fill-opacity: 0.5"/>
     <use xlink:href="#m442d2b3acb" x="109.239525" y="298.813565" style="fill: #ff0000; fill-opacity: 0.5"/>
    </g>
   </g>
   <g id="PathCollection_2">
    <defs>
     <path id="mb7512f7907" d="M 0 5 
C 1.326016 5 2.597899 4.473168 3.535534 3.535534 
C 4.473168 2.597899 5 1.326016 5 0 
C 5 -1.326016 4.473168 -2.597899 3.535534 -3.535534 
C 2.597899 -4.473168 1.326016 -5 0 -5 
C -1.326016 -5 -2.597899 -4.473168 -3.535534 -3.535534 
C -4.473168 -2.597899 -5 -1.326016 -5 0 
C -5 1.326016 -4.473168 2.597899 -3.535534 3.535534 
C -2.597899 4.473168 -1.326016 5 0 5 
z
"/>
    </defs>
    <g clip-path="url(#p05c8347dda)">
     <use xlink:href="#mb7512f7907" x="217.91645" y="324.6252" style="fill: #808080; fill-opacity: 0.5"/>
     <use xlink:href="#mb7512f7907" x="214.743423" y="262.310401" style="fill: #808080; fill-opacity: 0.5"/>
     <use xlink:href="#mb7512f7907" x="211.868727" y="263.878131" style="fill: #808080; fill-opacity: 0.5"/>
     <use xlink:href="#mb7512f7907" x="223.488364" y="241.75091" style="fill: #808080; fill-opacity: 0.5"/>
     <use xlink:href="#mb7512f7907" x="224.737131" y="251.639577" style="fill: #808080; fill-opacity: 0.5"/>
     <use xlink:href="#mb7512f7907" x="224.46379" y="171.075202" style="fill: #808080; fill-opacity: 0.5"/>
     <use xlink:href="#mb7512f7907" x="234.392941" y="101.377713" style="fill: #808080; fill-opacity: 0.5"/>
     <use xlink:href="#mb7512f7907" x="216.841799" y="173.660502" style="fill: #808080; fill-opacity: 0.5"/>
     <use xlink:href="#mb7512f7907" x="218.207194" y="223.252412" style="fill: #808080; fill-opacity: 0.5"/>
     <use xlink:href="#mb7512f7907" x="221.535352" y="256.227373" style="fill: #808080; fill-opacity: 0.5"/>
     <use xlink:href="#mb7512f7907" x="220.971548" y="289.829398" style="fill: #808080; fill-opacity: 0.5"/>
     <use xlink:href="#mb7512f7907" x="220.674148" y="185.704956" style="fill: #808080; fill-opacity: 0.5"/>
     <use xlink:href="#mb7512f7907" x="221.367445" y="71.034079" style="fill: #808080; fill-opacity: 0.5"/>
     <use xlink:href="#mb7512f7907" x="231.253953" y="241.75091" style="fill: #808080; fill-opacity: 0.5"/>
     <use xlink:href="#mb7512f7907" x="212.530517" y="112.269741" style="fill: #808080; fill-opacity: 0.5"/>
     <use xlink:href="#mb7512f7907" x="224.269727" y="268.705981" style="fill: #808080; fill-opacity: 0.5"/>
     <use xlink:href="#mb7512f7907" x="232.187053" y="262.310401" style="fill: #808080; fill-opacity: 0.5"/>
     <use xlink:href="#mb7512f7907" x="224.764296" y="228.06781" style="fill: #808080; fill-opacity: 0.5"/>
     <use xlink:href="#mb7512f7907" x="227.358072" y="298.813565" style="fill: #808080; fill-opacity: 0.5"/>
     <use xlink:href="#mb7512f7907" x="225.510139" y="201.037082" style="fill: #808080; fill-opacity: 0.5"/>
     <use xlink:href="#mb7512f7907" x="220.126236" y="237.979137" style="fill: #808080; fill-opacity: 0.5"/>
     <use xlink:href="#mb7512f7907" x="220.608944" y="249.60487" style="fill: #808080; fill-opacity: 0.5"/>
     <use xlink:href="#mb7512f7907" x="219.671951" y="193.864655" style="fill: #808080; fill-opacity: 0.5"/>
     <use xlink:href="#mb7512f7907" x="219.758802" y="263.878131" style="fill: #808080; fill-opacity: 0.5"/>
     <use xlink:href="#mb7512f7907" x="222.481091" y="264.556163" style="fill: #808080; fill-opacity: 0.5"/>
     <use xlink:href="#mb7512f7907" x="224.054187" y="217.098485" style="fill: #808080; fill-opacity: 0.5"/>
     <use xlink:href="#mb7512f7907" x="225.466168" y="224.442883" style="fill: #808080; fill-opacity: 0.5"/>
     <use xlink:href="#mb7512f7907" x="220.752291" y="234.300537" style="fill: #808080; fill-opacity: 0.5"/>
     <use xlink:href="#mb7512f7907" x="218.621868" y="290.402327" style="fill: #808080; fill-opacity: 0.5"/>
     <use xlink:href="#mb7512f7907" x="207.766051" y="305.350775" style="fill: #808080; fill-opacity: 0.5"/>
     <use xlink:href="#mb7512f7907" x="222.869352" y="193.864655" style="fill: #808080; fill-opacity: 0.5"/>
     <use xlink:href="#mb7512f7907" x="224.993045" y="153.779369" style="fill: #808080; fill-opacity: 0.5"/>
     <use xlink:href="#mb7512f7907" x="229.080967" y="266.843913" style="fill: #808080; fill-opacity: 0.5"/>
     <use xlink:href="#mb7512f7907" x="218.388508" y="196.905401" style="fill: #808080; fill-opacity: 0.5"/>
     <use xlink:href="#mb7512f7907" x="226.515779" y="264.556163" style="fill: #808080; fill-opacity: 0.5"/>
     <use xlink:href="#mb7512f7907" x="225.816048" y="228.943146" style="fill: #808080; fill-opacity: 0.5"/>
     <use xlink:href="#mb7512f7907" x="219.007042" y="237.979137" style="fill: #808080; fill-opacity: 0.5"/>
     <use xlink:href="#mb7512f7907" x="218.934122" y="280.82172" style="fill: #808080; fill-opacity: 0.5"/>
     <use xlink:href="#mb7512f7907" x="226.969254" y="217.098485" style="fill: #808080; fill-opacity: 0.5"/>
     <use xlink:href="#mb7512f7907" x="222.869815" y="234.300537" style="fill: #808080; fill-opacity: 0.5"/>
     <use xlink:href="#mb7512f7907" x="216.301293" y="210.68713" style="fill: #808080; fill-opacity: 0.5"/>
     <use xlink:href="#mb7512f7907" x="218.620565" y="134.364568" style="fill: #808080; fill-opacity: 0.5"/>
     <use xlink:href="#mb7512f7907" x="211.773892" y="201.485221" style="fill: #808080; fill-opacity: 0.5"/>
     <use xlink:href="#mb7512f7907" x="205.159269" y="290.402327" style="fill: #808080; fill-opacity: 0.5"/>
     <use xlink:href="#mb7512f7907" x="222.310498" y="241.75091" style="fill: #808080; fill-opacity: 0.5"/>
     <use xlink:href="#mb7512f7907" x="217.805486" y="310.620269" style="fill: #808080; fill-opacity: 0.5"/>
     <use xlink:href="#mb7512f7907" x="226.854975" y="139.916355" style="fill: #808080; fill-opacity: 0.5"/>
     <use xlink:href="#mb7512f7907" x="221.285916" y="117.366106" style="fill: #808080; fill-opacity: 0.5"/>
     <use xlink:href="#mb7512f7907" x="223.068589" y="171.075202" style="fill: #808080; fill-opacity: 0.5"/>
     <use xlink:href="#mb7512f7907" x="214.965118" y="318.677557" style="fill: #808080; fill-opacity: 0.5"/>
     <use xlink:href="#mb7512f7907" x="209.876591" y="222.070537" style="fill: #808080; fill-opacity: 0.5"/>
     <use xlink:href="#mb7512f7907" x="230.973281" y="279.007601" style="fill: #808080; fill-opacity: 0.5"/>
     <use xlink:href="#mb7512f7907" x="207.824504" y="157.980806" style="fill: #808080; fill-opacity: 0.5"/>
     <use xlink:href="#mb7512f7907" x="238.771299" y="386.94" style="fill: #808080; fill-opacity: 0.5"/>
     <use xlink:href="#mb7512f7907" x="223.763067" y="386.94" style="fill: #808080; fill-opacity: 0.5"/>
     <use xlink:href="#mb7512f7907" x="227.364097" y="249.60487" style="fill: #808080; fill-opacity: 0.5"/>
     <use xlink:href="#mb7512f7907" x="226.938698" y="115.316085" style="fill: #808080; fill-opacity: 0.5"/>
     <use xlink:href="#mb7512f7907" x="222.855267" y="310.620269" style="fill: #808080; fill-opacity: 0.5"/>
     <use xlink:href="#mb7512f7907" x="229.49131" y="284.27581" style="fill: #808080; fill-opacity: 0.5"/>
     <use xlink:href="#mb7512f7907" x="215.398144" y="324.6252" style="fill: #808080; fill-opacity: 0.5"/>
     <use xlink:href="#mb7512f7907" x="234.57034" y="234.300537" style="fill: #808080; fill-opacity: 0.5"/>
     <use xlink:href="#mb7512f7907" x="217.394717" y="246.213369" style="fill: #808080; fill-opacity: 0.5"/>
     <use xlink:href="#mb7512f7907" x="221.964933" y="222.070537" style="fill: #808080; fill-opacity: 0.5"/>
     <use xlink:href="#mb7512f7907" x="213.200669" y="212.267905" style="fill: #808080; fill-opacity: 0.5"/>
     <use xlink:href="#mb7512f7907" x="223.935212" y="201.485221" style="fill: #808080; fill-opacity: 0.5"/>
     <use xlink:href="#mb7512f7907" x="216.951434" y="217.098485" style="fill: #808080; fill-opacity: 0.5"/>
     <use xlink:href="#mb7512f7907" x="215.071357" y="202.986904" style="fill: #808080; fill-opacity: 0.5"/>
     <use xlink:href="#mb7512f7907" x="217.05231" y="251.639577" style="fill: #808080; fill-opacity: 0.5"/>
     <use xlink:href="#mb7512f7907" x="219.928732" y="310.620269" style="fill: #808080; fill-opacity: 0.5"/>
     <use xlink:href="#mb7512f7907" x="223.82486" y="281.608764" style="fill: #808080; fill-opacity: 0.5"/>
     <use xlink:href="#mb7512f7907" x="220.545564" y="222.070537" style="fill: #808080; fill-opacity: 0.5"/>
     <use xlink:href="#mb7512f7907" x="227.742846" y="290.402327" style="fill: #808080; fill-opacity: 0.5"/>
     <use xlink:href="#mb7512f7907" x="216.689484" y="305.691442" style="fill: #808080; fill-opacity: 0.5"/>
     <use xlink:href="#mb7512f7907" x="225.333046" y="271.555412" style="fill: #808080; fill-opacity: 0.5"/>
     <use xlink:href="#mb7512f7907" x="227.883354" y="224.442883" style="fill: #808080; fill-opacity: 0.5"/>
     <use xlink:href="#mb7512f7907" x="238.645547" y="216.283893" style="fill: #808080; fill-opacity: 0.5"/>
     <use xlink:href="#mb7512f7907" x="218.354911" y="206.334552" style="fill: #808080; fill-opacity: 0.5"/>
     <use xlink:href="#mb7512f7907" x="211.620749" y="163.126613" style="fill: #808080; fill-opacity: 0.5"/>
     <use xlink:href="#mb7512f7907" x="219.737392" y="290.402327" style="fill: #808080; fill-opacity: 0.5"/>
     <use xlink:href="#mb7512f7907" x="214.395318" y="182.966938" style="fill: #808080; fill-opacity: 0.5"/>
     <use xlink:href="#mb7512f7907" x="215.454069" y="224.442883" style="fill: #808080; fill-opacity: 0.5"/>
     <use xlink:href="#mb7512f7907" x="218.329557" y="281.608764" style="fill: #808080; fill-opacity: 0.5"/>
     <use xlink:href="#mb7512f7907" x="208.587306" y="268.705981" style="fill: #808080; fill-opacity: 0.5"/>
     <use xlink:href="#mb7512f7907" x="218.257306" y="185.704956" style="fill: #808080; fill-opacity: 0.5"/>
     <use xlink:href="#mb7512f7907" x="211.008091" y="154.972015" style="fill: #808080; fill-opacity: 0.5"/>
     <use xlink:href="#mb7512f7907" x="221.149688" y="156.170824" style="fill: #808080; fill-opacity: 0.5"/>
     <use xlink:href="#mb7512f7907" x="215.865456" y="202.986904" style="fill: #808080; fill-opacity: 0.5"/>
     <use xlink:href="#mb7512f7907" x="218.908813" y="185.016971" style="fill: #808080; fill-opacity: 0.5"/>
     <use xlink:href="#mb7512f7907" x="221.614234" y="146.401644" style="fill: #808080; fill-opacity: 0.5"/>
     <use xlink:href="#mb7512f7907" x="213.823286" y="249.60487" style="fill: #808080; fill-opacity: 0.5"/>
     <use xlink:href="#mb7512f7907" x="217.759276" y="217.098485" style="fill: #808080; fill-opacity: 0.5"/>
     <use xlink:href="#mb7512f7907" x="227.255151" y="192.718797" style="fill: #808080; fill-opacity: 0.5"/>
     <use xlink:href="#mb7512f7907" x="222.549989" y="238.165455" style="fill: #808080; fill-opacity: 0.5"/>
     <use xlink:href="#mb7512f7907" x="228.159586" y="228.06781" style="fill: #808080; fill-opacity: 0.5"/>
     <use xlink:href="#mb7512f7907" x="219.747179" y="164.743514" style="fill: #808080; fill-opacity: 0.5"/>
     <use xlink:href="#mb7512f7907" x="227.036052" y="197.929854" style="fill: #808080; fill-opacity: 0.5"/>
     <use xlink:href="#mb7512f7907" x="222.149823" y="213.863118" style="fill: #808080; fill-opacity: 0.5"/>
     <use xlink:href="#mb7512f7907" x="222.146729" y="280.82172" style="fill: #808080; fill-opacity: 0.5"/>
     <use xlink:href="#mb7512f7907" x="217.843266" y="255.803668" style="fill: #808080; fill-opacity: 0.5"/>
     <use xlink:href="#mb7512f7907" x="221.974979" y="224.442883" style="fill: #808080; fill-opacity: 0.5"/>
     <use xlink:href="#mb7512f7907" x="225.028636" y="217.098485" style="fill: #808080; fill-opacity: 0.5"/>
    </g>
   </g>
   <g id="matplotlib.axis_1">
    <g id="xtick_1">
     <g id="line2d_1">
      <defs>
       <path id="m79f89a629e" d="M 0 0 
L 0 3.5 
" style="stroke: #000000; stroke-width: 0.8"/>
      </defs>
      <g>
       <use xlink:href="#m79f89a629e" x="105.09" y="404.12" style="stroke: #000000; stroke-width: 0.8"/>
      </g>
     </g>
     <g id="text_1">
      <!-- Mutants -->
      <g transform="translate(83.964219 418.718437) scale(0.1 -0.1)">
       <defs>
        <path id="DejaVuSerif-4d" d="M 353 0 
L 353 331 
L 947 331 
L 947 4331 
L 319 4331 
L 319 4666 
L 1678 4666 
L 3316 1344 
L 4953 4666 
L 6228 4666 
L 6228 4331 
L 5606 4331 
L 5606 331 
L 6203 331 
L 6203 0 
L 4378 0 
L 4378 331 
L 4972 331 
L 4972 3938 
L 3372 684 
L 2931 684 
L 1331 3938 
L 1331 331 
L 1925 331 
L 1925 0 
L 353 0 
z
" transform="scale(0.015625)"/>
        <path id="DejaVuSerif-75" d="M 2266 3322 
L 3341 3322 
L 3341 331 
L 3884 331 
L 3884 0 
L 2766 0 
L 2766 588 
Q 2606 256 2353 82 
Q 2100 -91 1766 -91 
Q 1213 -91 952 223 
Q 691 538 691 1209 
L 691 2988 
L 172 2988 
L 172 3322 
L 1269 3322 
L 1269 1388 
Q 1269 781 1417 556 
Q 1566 331 1947 331 
Q 2347 331 2556 625 
Q 2766 919 2766 1478 
L 2766 2988 
L 2266 2988 
L 2266 3322 
z
" transform="scale(0.015625)"/>
        <path id="DejaVuSerif-74" d="M 691 2988 
L 184 2988 
L 184 3322 
L 691 3322 
L 691 4353 
L 1269 4353 
L 1269 3322 
L 2350 3322 
L 2350 2988 
L 1269 2988 
L 1269 878 
Q 1269 456 1350 337 
Q 1431 219 1650 219 
Q 1875 219 1978 351 
Q 2081 484 2088 781 
L 2522 781 
Q 2497 328 2275 118 
Q 2053 -91 1600 -91 
Q 1103 -91 897 129 
Q 691 350 691 878 
L 691 2988 
z
" transform="scale(0.015625)"/>
        <path id="DejaVuSerif-61" d="M 2547 1044 
L 2547 1747 
L 1806 1747 
Q 1378 1747 1168 1562 
Q 959 1378 959 997 
Q 959 650 1171 447 
Q 1384 244 1747 244 
Q 2106 244 2326 466 
Q 2547 688 2547 1044 
z
M 3122 2075 
L 3122 331 
L 3634 331 
L 3634 0 
L 2547 0 
L 2547 359 
Q 2356 128 2106 18 
Q 1856 -91 1522 -91 
Q 969 -91 644 203 
Q 319 497 319 997 
Q 319 1513 691 1797 
Q 1063 2081 1741 2081 
L 2547 2081 
L 2547 2309 
Q 2547 2688 2317 2895 
Q 2088 3103 1672 3103 
Q 1328 3103 1125 2947 
Q 922 2791 872 2484 
L 575 2484 
L 575 3156 
Q 875 3284 1158 3348 
Q 1441 3413 1709 3413 
Q 2400 3413 2761 3070 
Q 3122 2728 3122 2075 
z
" transform="scale(0.015625)"/>
        <path id="DejaVuSerif-6e" d="M 263 0 
L 263 331 
L 781 331 
L 781 2988 
L 231 2988 
L 231 3322 
L 1356 3322 
L 1356 2731 
Q 1516 3069 1770 3241 
Q 2025 3413 2363 3413 
Q 2913 3413 3172 3097 
Q 3431 2781 3431 2113 
L 3431 331 
L 3944 331 
L 3944 0 
L 2356 0 
L 2356 331 
L 2853 331 
L 2853 1931 
Q 2853 2541 2703 2767 
Q 2553 2994 2175 2994 
Q 1775 2994 1565 2701 
Q 1356 2409 1356 1850 
L 1356 331 
L 1856 331 
L 1856 0 
L 263 0 
z
" transform="scale(0.015625)"/>
        <path id="DejaVuSerif-73" d="M 359 184 
L 359 959 
L 691 959 
Q 703 588 923 403 
Q 1144 219 1575 219 
Q 1963 219 2166 364 
Q 2369 509 2369 788 
Q 2369 1006 2220 1140 
Q 2072 1275 1594 1428 
L 1178 1569 
Q 750 1706 558 1912 
Q 366 2119 366 2438 
Q 366 2894 700 3153 
Q 1034 3413 1625 3413 
Q 1888 3413 2178 3344 
Q 2469 3275 2778 3144 
L 2778 2419 
L 2447 2419 
Q 2434 2741 2221 2922 
Q 2009 3103 1644 3103 
Q 1281 3103 1095 2975 
Q 909 2847 909 2591 
Q 909 2381 1050 2254 
Q 1191 2128 1613 1997 
L 2069 1856 
Q 2541 1709 2748 1489 
Q 2956 1269 2956 922 
Q 2956 450 2595 179 
Q 2234 -91 1600 -91 
Q 1278 -91 972 -22 
Q 666 47 359 184 
z
" transform="scale(0.015625)"/>
       </defs>
       <use xlink:href="#DejaVuSerif-4d"/>
       <use xlink:href="#DejaVuSerif-75" x="102.392578"/>
       <use xlink:href="#DejaVuSerif-74" x="166.796875"/>
       <use xlink:href="#DejaVuSerif-61" x="206.982422"/>
       <use xlink:href="#DejaVuSerif-6e" x="266.601562"/>
       <use xlink:href="#DejaVuSerif-74" x="331.005859"/>
       <use xlink:href="#DejaVuSerif-73" x="371.191406"/>
      </g>
     </g>
    </g>
    <g id="xtick_2">
     <g id="line2d_2">
      <g>
       <use xlink:href="#m79f89a629e" x="219.83" y="404.12" style="stroke: #000000; stroke-width: 0.8"/>
      </g>
     </g>
     <g id="text_2">
      <!-- Non-members WT -->
      <g transform="translate(173.913594 418.718437) scale(0.1 -0.1)">
       <defs>
        <path id="DejaVuSerif-4e" d="M 313 0 
L 313 331 
L 941 331 
L 941 4331 
L 313 4331 
L 313 4666 
L 1509 4666 
L 4306 984 
L 4306 4331 
L 3681 4331 
L 3681 4666 
L 5319 4666 
L 5319 4331 
L 4691 4331 
L 4691 -91 
L 4313 -91 
L 1325 3841 
L 1325 331 
L 1953 331 
L 1953 0 
L 313 0 
z
" transform="scale(0.015625)"/>
        <path id="DejaVuSerif-6f" d="M 1925 219 
Q 2388 219 2623 584 
Q 2859 950 2859 1663 
Q 2859 2375 2623 2739 
Q 2388 3103 1925 3103 
Q 1463 3103 1227 2739 
Q 991 2375 991 1663 
Q 991 950 1228 584 
Q 1466 219 1925 219 
z
M 1925 -91 
Q 1200 -91 759 389 
Q 319 869 319 1663 
Q 319 2456 758 2934 
Q 1197 3413 1925 3413 
Q 2653 3413 3092 2934 
Q 3531 2456 3531 1663 
Q 3531 869 3092 389 
Q 2653 -91 1925 -91 
z
" transform="scale(0.015625)"/>
        <path id="DejaVuSerif-2d" d="M 281 1959 
L 1881 1959 
L 1881 1472 
L 281 1472 
L 281 1959 
z
" transform="scale(0.015625)"/>
        <path id="DejaVuSerif-6d" d="M 3316 2675 
Q 3481 3041 3739 3227 
Q 3997 3413 4341 3413 
Q 4863 3413 5119 3089 
Q 5375 2766 5375 2113 
L 5375 331 
L 5894 331 
L 5894 0 
L 4300 0 
L 4300 331 
L 4800 331 
L 4800 2047 
Q 4800 2556 4650 2772 
Q 4500 2988 4153 2988 
Q 3769 2988 3567 2697 
Q 3366 2406 3366 1850 
L 3366 331 
L 3866 331 
L 3866 0 
L 2291 0 
L 2291 331 
L 2791 331 
L 2791 2069 
Q 2791 2566 2641 2777 
Q 2491 2988 2144 2988 
Q 1759 2988 1557 2697 
Q 1356 2406 1356 1850 
L 1356 331 
L 1856 331 
L 1856 0 
L 263 0 
L 263 331 
L 781 331 
L 781 2994 
L 231 2994 
L 231 3322 
L 1356 3322 
L 1356 2731 
Q 1516 3063 1762 3238 
Q 2009 3413 2322 3413 
Q 2709 3413 2968 3220 
Q 3228 3028 3316 2675 
z
" transform="scale(0.015625)"/>
        <path id="DejaVuSerif-65" d="M 3469 1600 
L 991 1600 
L 991 1575 
Q 991 903 1244 561 
Q 1497 219 1991 219 
Q 2369 219 2611 417 
Q 2853 616 2950 1006 
L 3413 1006 
Q 3275 459 2904 184 
Q 2534 -91 1931 -91 
Q 1203 -91 761 389 
Q 319 869 319 1663 
Q 319 2450 753 2931 
Q 1188 3413 1894 3413 
Q 2647 3413 3050 2948 
Q 3453 2484 3469 1600 
z
M 2791 1931 
Q 2772 2513 2545 2808 
Q 2319 3103 1894 3103 
Q 1497 3103 1269 2806 
Q 1041 2509 991 1931 
L 2791 1931 
z
" transform="scale(0.015625)"/>
        <path id="DejaVuSerif-62" d="M 738 331 
L 738 4531 
L 184 4531 
L 184 4863 
L 1313 4863 
L 1313 2803 
Q 1481 3116 1742 3264 
Q 2003 3413 2388 3413 
Q 3000 3413 3387 2928 
Q 3775 2444 3775 1663 
Q 3775 881 3387 395 
Q 3000 -91 2388 -91 
Q 2003 -91 1742 57 
Q 1481 206 1313 519 
L 1313 0 
L 184 0 
L 184 331 
L 738 331 
z
M 1313 1497 
Q 1313 897 1542 583 
Q 1772 269 2209 269 
Q 2650 269 2876 622 
Q 3103 975 3103 1663 
Q 3103 2353 2876 2703 
Q 2650 3053 2209 3053 
Q 1772 3053 1542 2737 
Q 1313 2422 1313 1825 
L 1313 1497 
z
" transform="scale(0.015625)"/>
        <path id="DejaVuSerif-72" d="M 3059 3328 
L 3059 2497 
L 2728 2497 
Q 2713 2744 2591 2866 
Q 2469 2988 2234 2988 
Q 1809 2988 1582 2694 
Q 1356 2400 1356 1850 
L 1356 331 
L 2022 331 
L 2022 0 
L 263 0 
L 263 331 
L 781 331 
L 781 2994 
L 231 2994 
L 231 3322 
L 1356 3322 
L 1356 2731 
Q 1525 3078 1790 3245 
Q 2056 3413 2438 3413 
Q 2578 3413 2733 3391 
Q 2888 3369 3059 3328 
z
" transform="scale(0.015625)"/>
        <path id="DejaVuSerif-20" transform="scale(0.015625)"/>
        <path id="DejaVuSerif-57" d="M 4878 0 
L 4366 0 
L 3297 3794 
L 2228 0 
L 1716 0 
L 494 4331 
L 31 4331 
L 31 4666 
L 1734 4666 
L 1734 4331 
L 1153 4331 
L 2125 884 
L 3188 4666 
L 3694 4666 
L 4775 844 
L 5753 4331 
L 5216 4331 
L 5216 4666 
L 6559 4666 
L 6559 4331 
L 6100 4331 
L 4878 0 
z
" transform="scale(0.015625)"/>
        <path id="DejaVuSerif-54" d="M 1222 0 
L 1222 331 
L 1819 331 
L 1819 4294 
L 447 4294 
L 447 3566 
L 63 3566 
L 63 4666 
L 4206 4666 
L 4206 3566 
L 3822 3566 
L 3822 4294 
L 2450 4294 
L 2450 331 
L 3047 331 
L 3047 0 
L 1222 0 
z
" transform="scale(0.015625)"/>
       </defs>
       <use xlink:href="#DejaVuSerif-4e"/>
       <use xlink:href="#DejaVuSerif-6f" x="87.5"/>
       <use xlink:href="#DejaVuSerif-6e" x="147.705078"/>
       <use xlink:href="#DejaVuSerif-2d" x="212.109375"/>
       <use xlink:href="#DejaVuSerif-6d" x="245.898438"/>
       <use xlink:href="#DejaVuSerif-65" x="340.722656"/>
       <use xlink:href="#DejaVuSerif-6d" x="399.902344"/>
       <use xlink:href="#DejaVuSerif-62" x="494.726562"/>
       <use xlink:href="#DejaVuSerif-65" x="558.740234"/>
       <use xlink:href="#DejaVuSerif-72" x="617.919922"/>
       <use xlink:href="#DejaVuSerif-73" x="665.722656"/>
       <use xlink:href="#DejaVuSerif-20" x="717.041016"/>
       <use xlink:href="#DejaVuSerif-57" x="748.828125"/>
       <use xlink:href="#DejaVuSerif-54" x="851.611328"/>
      </g>
     </g>
    </g>
   </g>
   <g id="matplotlib.axis_2">
    <g id="ytick_1">
     <g id="line2d_3">
      <defs>
       <path id="m6c867a086f" d="M 0 0 
L -3.5 0 
" style="stroke: #000000; stroke-width: 0.8"/>
      </defs>
      <g>
       <use xlink:href="#m6c867a086f" x="47.72" y="386.94" style="stroke: #000000; stroke-width: 0.8"/>
      </g>
     </g>
     <g id="text_3">
      <!-- 0.0 -->
      <g transform="translate(24.816875 390.739219) scale(0.1 -0.1)">
       <defs>
        <path id="DejaVuSerif-30" d="M 2034 219 
Q 2513 219 2750 744 
Q 2988 1269 2988 2328 
Q 2988 3391 2750 3916 
Q 2513 4441 2034 4441 
Q 1556 4441 1318 3916 
Q 1081 3391 1081 2328 
Q 1081 1269 1318 744 
Q 1556 219 2034 219 
z
M 2034 -91 
Q 1275 -91 848 546 
Q 422 1184 422 2328 
Q 422 3475 848 4112 
Q 1275 4750 2034 4750 
Q 2797 4750 3222 4112 
Q 3647 3475 3647 2328 
Q 3647 1184 3222 546 
Q 2797 -91 2034 -91 
z
" transform="scale(0.015625)"/>
        <path id="DejaVuSerif-2e" d="M 603 325 
Q 603 500 722 622 
Q 841 744 1019 744 
Q 1191 744 1312 622 
Q 1434 500 1434 325 
Q 1434 153 1312 31 
Q 1191 -91 1019 -91 
Q 841 -91 722 29 
Q 603 150 603 325 
z
" transform="scale(0.015625)"/>
       </defs>
       <use xlink:href="#DejaVuSerif-30"/>
       <use xlink:href="#DejaVuSerif-2e" x="63.623047"/>
       <use xlink:href="#DejaVuSerif-30" x="95.410156"/>
      </g>
     </g>
    </g>
    <g id="ytick_2">
     <g id="line2d_4">
      <g>
       <use xlink:href="#m6c867a086f" x="47.72" y="332.9738" style="stroke: #000000; stroke-width: 0.8"/>
      </g>
     </g>
     <g id="text_4">
      <!-- 0.5 -->
      <g transform="translate(24.816875 336.773019) scale(0.1 -0.1)">
       <defs>
        <path id="DejaVuSerif-35" d="M 3219 4666 
L 3219 4153 
L 1081 4153 
L 1081 2816 
Q 1244 2928 1461 2984 
Q 1678 3041 1947 3041 
Q 2703 3041 3140 2622 
Q 3578 2203 3578 1478 
Q 3578 738 3136 323 
Q 2694 -91 1894 -91 
Q 1572 -91 1234 -12 
Q 897 66 544 225 
L 544 1131 
L 897 1131 
Q 925 688 1179 453 
Q 1434 219 1894 219 
Q 2388 219 2653 544 
Q 2919 869 2919 1478 
Q 2919 2084 2655 2407 
Q 2391 2731 1894 2731 
Q 1613 2731 1398 2631 
Q 1184 2531 1019 2322 
L 750 2322 
L 750 4666 
L 3219 4666 
z
" transform="scale(0.015625)"/>
       </defs>
       <use xlink:href="#DejaVuSerif-30"/>
       <use xlink:href="#DejaVuSerif-2e" x="63.623047"/>
       <use xlink:href="#DejaVuSerif-35" x="95.410156"/>
      </g>
     </g>
    </g>
    <g id="ytick_3">
     <g id="line2d_5">
      <g>
       <use xlink:href="#m6c867a086f" x="47.72" y="279.007601" style="stroke: #000000; stroke-width: 0.8"/>
      </g>
     </g>
     <g id="text_5">
      <!-- 1.0 -->
      <g transform="translate(24.816875 282.80682) scale(0.1 -0.1)">
       <defs>
        <path id="DejaVuSerif-31" d="M 909 0 
L 909 331 
L 1722 331 
L 1722 4213 
L 781 3603 
L 781 4013 
L 1919 4750 
L 2350 4750 
L 2350 331 
L 3163 331 
L 3163 0 
L 909 0 
z
" transform="scale(0.015625)"/>
       </defs>
       <use xlink:href="#DejaVuSerif-31"/>
       <use xlink:href="#DejaVuSerif-2e" x="63.623047"/>
       <use xlink:href="#DejaVuSerif-30" x="95.410156"/>
      </g>
     </g>
    </g>
    <g id="ytick_4">
     <g id="line2d_6">
      <g>
       <use xlink:href="#m6c867a086f" x="47.72" y="225.041401" style="stroke: #000000; stroke-width: 0.8"/>
      </g>
     </g>
     <g id="text_6">
      <!-- 1.5 -->
      <g transform="translate(24.816875 228.84062) scale(0.1 -0.1)">
       <use xlink:href="#DejaVuSerif-31"/>
       <use xlink:href="#DejaVuSerif-2e" x="63.623047"/>
       <use xlink:href="#DejaVuSerif-35" x="95.410156"/>
      </g>
     </g>
    </g>
    <g id="ytick_5">
     <g id="line2d_7">
      <g>
       <use xlink:href="#m6c867a086f" x="47.72" y="171.075202" style="stroke: #000000; stroke-width: 0.8"/>
      </g>
     </g>
     <g id="text_7">
      <!-- 2.0 -->
      <g transform="translate(24.816875 174.87442) scale(0.1 -0.1)">
       <defs>
        <path id="DejaVuSerif-32" d="M 819 3553 
L 469 3553 
L 469 4384 
Q 803 4563 1142 4656 
Q 1481 4750 1806 4750 
Q 2534 4750 2956 4397 
Q 3378 4044 3378 3438 
Q 3378 2753 2422 1800 
Q 2347 1728 2309 1691 
L 1131 513 
L 3078 513 
L 3078 1088 
L 3444 1088 
L 3444 0 
L 434 0 
L 434 341 
L 1850 1753 
Q 2319 2222 2519 2614 
Q 2719 3006 2719 3438 
Q 2719 3909 2473 4175 
Q 2228 4441 1797 4441 
Q 1350 4441 1106 4219 
Q 863 3997 819 3553 
z
" transform="scale(0.015625)"/>
       </defs>
       <use xlink:href="#DejaVuSerif-32"/>
       <use xlink:href="#DejaVuSerif-2e" x="63.623047"/>
       <use xlink:href="#DejaVuSerif-30" x="95.410156"/>
      </g>
     </g>
    </g>
    <g id="ytick_6">
     <g id="line2d_8">
      <g>
       <use xlink:href="#m6c867a086f" x="47.72" y="117.109002" style="stroke: #000000; stroke-width: 0.8"/>
      </g>
     </g>
     <g id="text_8">
      <!-- 2.5 -->
      <g transform="translate(24.816875 120.908221) scale(0.1 -0.1)">
       <use xlink:href="#DejaVuSerif-32"/>
       <use xlink:href="#DejaVuSerif-2e" x="63.623047"/>
       <use xlink:href="#DejaVuSerif-35" x="95.410156"/>
      </g>
     </g>
    </g>
    <g id="ytick_7">
     <g id="line2d_9">
      <g>
       <use xlink:href="#m6c867a086f" x="47.72" y="63.142802" style="stroke: #000000; stroke-width: 0.8"/>
      </g>
     </g>
     <g id="text_9">
      <!-- 3.0 -->
      <g transform="translate(24.816875 66.942021) scale(0.1 -0.1)">
       <defs>
        <path id="DejaVuSerif-33" d="M 622 4469 
Q 988 4606 1323 4678 
Q 1659 4750 1953 4750 
Q 2638 4750 3022 4454 
Q 3406 4159 3406 3634 
Q 3406 3213 3140 2930 
Q 2875 2647 2388 2547 
Q 2963 2466 3280 2130 
Q 3597 1794 3597 1259 
Q 3597 606 3158 257 
Q 2719 -91 1894 -91 
Q 1528 -91 1179 -12 
Q 831 66 488 225 
L 488 1131 
L 838 1131 
Q 869 681 1141 450 
Q 1413 219 1906 219 
Q 2384 219 2661 495 
Q 2938 772 2938 1253 
Q 2938 1803 2653 2086 
Q 2369 2369 1819 2369 
L 1522 2369 
L 1522 2688 
L 1678 2688 
Q 2225 2688 2498 2914 
Q 2772 3141 2772 3597 
Q 2772 4006 2547 4223 
Q 2322 4441 1900 4441 
Q 1478 4441 1245 4241 
Q 1013 4041 972 3647 
L 622 3647 
L 622 4469 
z
" transform="scale(0.015625)"/>
       </defs>
       <use xlink:href="#DejaVuSerif-33"/>
       <use xlink:href="#DejaVuSerif-2e" x="63.623047"/>
       <use xlink:href="#DejaVuSerif-30" x="95.410156"/>
      </g>
     </g>
    </g>
    <g id="text_10">
     <!-- σ (dV(t)/dt) -->
     <g transform="translate(18.737187 243.661094) rotate(-90) scale(0.1 -0.1)">
      <defs>
       <path id="DejaVuSerif-3c3" d="M 1925 219 
Q 2388 219 2623 584 
Q 2859 950 2859 1663 
Q 2859 2309 2625 2706 
Q 2416 3044 1925 3047 
Q 1447 3047 1225 2706 
Q 991 2341 991 1663 
Q 991 950 1228 584 
Q 1466 219 1925 219 
z
M 1931 3322 
Q 3206 3322 4181 3322 
L 4181 2988 
L 3038 2988 
Q 3531 2509 3531 1663 
Q 3531 869 3092 389 
Q 2653 -91 1925 -91 
Q 1200 -91 759 389 
Q 319 869 319 1662 
Q 319 2456 756 2934 
Q 1113 3322 1931 3322 
z
" transform="scale(0.015625)"/>
       <path id="DejaVuSerif-28" d="M 2041 -997 
Q 1281 -656 893 83 
Q 506 822 506 1931 
Q 506 3044 893 3783 
Q 1281 4522 2041 4863 
L 2041 4556 
Q 1559 4225 1350 3623 
Q 1141 3022 1141 1931 
Q 1141 844 1350 242 
Q 1559 -359 2041 -691 
L 2041 -997 
z
" transform="scale(0.015625)"/>
       <path id="DejaVuSerif-64" d="M 3359 331 
L 3909 331 
L 3909 0 
L 2784 0 
L 2784 519 
Q 2616 206 2355 57 
Q 2094 -91 1709 -91 
Q 1097 -91 708 395 
Q 319 881 319 1663 
Q 319 2444 706 2928 
Q 1094 3413 1709 3413 
Q 2094 3413 2355 3264 
Q 2616 3116 2784 2803 
L 2784 4531 
L 2241 4531 
L 2241 4863 
L 3359 4863 
L 3359 331 
z
M 2784 1497 
L 2784 1825 
Q 2784 2422 2554 2737 
Q 2325 3053 1888 3053 
Q 1444 3053 1217 2703 
Q 991 2353 991 1663 
Q 991 975 1217 622 
Q 1444 269 1888 269 
Q 2325 269 2554 583 
Q 2784 897 2784 1497 
z
" transform="scale(0.015625)"/>
       <path id="DejaVuSerif-56" d="M 1119 4331 
L 2497 750 
L 3872 4331 
L 3347 4331 
L 3347 4666 
L 4716 4666 
L 4716 4331 
L 4263 4331 
L 2597 0 
L 2059 0 
L 403 4331 
L -63 4331 
L -63 4666 
L 1638 4666 
L 1638 4331 
L 1119 4331 
z
" transform="scale(0.015625)"/>
       <path id="DejaVuSerif-29" d="M 453 -997 
L 453 -691 
Q 934 -359 1145 242 
Q 1356 844 1356 1931 
Q 1356 3022 1145 3623 
Q 934 4225 453 4556 
L 453 4863 
Q 1216 4522 1603 3783 
Q 1991 3044 1991 1931 
Q 1991 822 1603 83 
Q 1216 -656 453 -997 
z
" transform="scale(0.015625)"/>
       <path id="DejaVuSerif-2f" d="M 1656 4666 
L 2156 4666 
L 500 -594 
L 0 -594 
L 1656 4666 
z
" transform="scale(0.015625)"/>
      </defs>
      <use xlink:href="#DejaVuSerif-3c3"/>
      <use xlink:href="#DejaVuSerif-20" x="68.261719"/>
      <use xlink:href="#DejaVuSerif-28" x="100.048828"/>
      <use xlink:href="#DejaVuSerif-64" x="139.0625"/>
      <use xlink:href="#DejaVuSerif-56" x="203.076172"/>
      <use xlink:href="#DejaVuSerif-28" x="275.292969"/>
      <use xlink:href="#DejaVuSerif-74" x="314.306641"/>
      <use xlink:href="#DejaVuSerif-29" x="354.492188"/>
      <use xlink:href="#DejaVuSerif-2f" x="393.505859"/>
      <use xlink:href="#DejaVuSerif-64" x="427.197266"/>
      <use xlink:href="#DejaVuSerif-74" x="491.210938"/>
      <use xlink:href="#DejaVuSerif-29" x="531.396484"/>
     </g>
    </g>
   </g>
   <g id="line2d_10">
    <path d="M 96.4845 285.18841 
L 113.6955 285.18841 
L 113.6955 193.864655 
L 96.4845 193.864655 
L 96.4845 285.18841 
" clip-path="url(#p05c8347dda)" style="fill: none; stroke: #000000; stroke-linecap: square"/>
   </g>
   <g id="line2d_11">
    <path d="M 105.09 285.18841 
L 105.09 386.94 
" clip-path="url(#p05c8347dda)" style="fill: none; stroke: #000000; stroke-linecap: square"/>
   </g>
   <g id="line2d_12">
    <path d="M 105.09 193.864655 
L 105.09 75.989774 
" clip-path="url(#p05c8347dda)" style="fill: none; stroke: #000000; stroke-linecap: square"/>
   </g>
   <g id="line2d_13">
    <path d="M 100.78725 386.94 
L 109.39275 386.94 
" clip-path="url(#p05c8347dda)" style="fill: none; stroke: #000000; stroke-linecap: square"/>
   </g>
   <g id="line2d_14">
    <path d="M 100.78725 75.989774 
L 109.39275 75.989774 
" clip-path="url(#p05c8347dda)" style="fill: none; stroke: #000000; stroke-linecap: square"/>
   </g>
   <g id="line2d_15">
    <path d="M 211.2245 266.843913 
L 228.4355 266.843913 
L 228.4355 197.929854 
L 211.2245 197.929854 
L 211.2245 266.843913 
" clip-path="url(#p05c8347dda)" style="fill: none; stroke: #000000; stroke-linecap: square"/>
   </g>
   <g id="line2d_16">
    <path d="M 219.83 266.843913 
L 219.83 324.6252 
" clip-path="url(#p05c8347dda)" style="fill: none; stroke: #000000; stroke-linecap: square"/>
   </g>
   <g id="line2d_17">
    <path d="M 219.83 197.929854 
L 219.83 101.377713 
" clip-path="url(#p05c8347dda)" style="fill: none; stroke: #000000; stroke-linecap: square"/>
   </g>
   <g id="line2d_18">
    <path d="M 215.52725 324.6252 
L 224.13275 324.6252 
" clip-path="url(#p05c8347dda)" style="fill: none; stroke: #000000; stroke-linecap: square"/>
   </g>
   <g id="line2d_19">
    <path d="M 215.52725 101.377713 
L 224.13275 101.377713 
" clip-path="url(#p05c8347dda)" style="fill: none; stroke: #000000; stroke-linecap: square"/>
   </g>
   <g id="line2d_20">
    <path d="M 105.09 50.180905 
L 105.09 43.34 
L 219.83 43.34 
L 219.83 50.180905 
" clip-path="url(#p05c8347dda)" style="fill: none; stroke: #000000; stroke-linecap: square"/>
   </g>
   <g id="line2d_21">
    <path d="M 96.4845 228.943146 
L 113.6955 228.943146 
" clip-path="url(#p05c8347dda)" style="fill: none; stroke: #ff7f0e"/>
   </g>
   <g id="line2d_22">
    <path d="M 211.2245 228.06781 
L 228.4355 228.06781 
" clip-path="url(#p05c8347dda)" style="fill: none; stroke: #ff7f0e"/>
   </g>
   <g id="patch_3">
    <path d="M 47.72 404.12 
L 47.72 26.16 
" style="fill: none; stroke: #000000; stroke-width: 0.8; stroke-linejoin: miter; stroke-linecap: square"/>
   </g>
   <g id="patch_4">
    <path d="M 277.2 404.12 
L 277.2 26.16 
" style="fill: none; stroke: #000000; stroke-width: 0.8; stroke-linejoin: miter; stroke-linecap: square"/>
   </g>
   <g id="patch_5">
    <path d="M 47.72 404.12 
L 277.2 404.12 
" style="fill: none; stroke: #000000; stroke-width: 0.8; stroke-linejoin: miter; stroke-linecap: square"/>
   </g>
   <g id="patch_6">
    <path d="M 47.72 26.16 
L 277.2 26.16 
" style="fill: none; stroke: #000000; stroke-width: 0.8; stroke-linejoin: miter; stroke-linecap: square"/>
   </g>
   <g id="text_11">
    <!-- p = 0.765 -->
    <g transform="translate(137.577187 37.83986) scale(0.1 -0.1)">
     <defs>
      <path id="DejaVuSerif-70" d="M 1313 1825 
L 1313 1497 
Q 1313 897 1542 583 
Q 1772 269 2209 269 
Q 2650 269 2876 622 
Q 3103 975 3103 1663 
Q 3103 2353 2876 2703 
Q 2650 3053 2209 3053 
Q 1772 3053 1542 2737 
Q 1313 2422 1313 1825 
z
M 738 2988 
L 184 2988 
L 184 3322 
L 1313 3322 
L 1313 2803 
Q 1481 3116 1742 3264 
Q 2003 3413 2388 3413 
Q 3000 3413 3387 2928 
Q 3775 2444 3775 1663 
Q 3775 881 3387 395 
Q 3000 -91 2388 -91 
Q 2003 -91 1742 57 
Q 1481 206 1313 519 
L 1313 -997 
L 1856 -997 
L 1856 -1331 
L 184 -1331 
L 184 -997 
L 738 -997 
L 738 2988 
z
" transform="scale(0.015625)"/>
      <path id="DejaVuSerif-3d" d="M 678 2894 
L 4684 2894 
L 4684 2394 
L 678 2394 
L 678 2894 
z
M 678 1619 
L 4684 1619 
L 4684 1119 
L 678 1119 
L 678 1619 
z
" transform="scale(0.015625)"/>
      <path id="DejaVuSerif-37" d="M 3609 4347 
L 1784 0 
L 1319 0 
L 3059 4153 
L 903 4153 
L 903 3578 
L 538 3578 
L 538 4666 
L 3609 4666 
L 3609 4347 
z
" transform="scale(0.015625)"/>
      <path id="DejaVuSerif-36" d="M 2094 219 
Q 2534 219 2771 542 
Q 3009 866 3009 1472 
Q 3009 2078 2771 2401 
Q 2534 2725 2094 2725 
Q 1647 2725 1412 2412 
Q 1178 2100 1178 1509 
Q 1178 888 1415 553 
Q 1653 219 2094 219 
z
M 1075 2569 
Q 1288 2803 1556 2918 
Q 1825 3034 2163 3034 
Q 2859 3034 3264 2615 
Q 3669 2197 3669 1472 
Q 3669 763 3233 336 
Q 2797 -91 2069 -91 
Q 1278 -91 853 498 
Q 428 1088 428 2181 
Q 428 3406 931 4078 
Q 1434 4750 2350 4750 
Q 2597 4750 2869 4703 
Q 3141 4656 3425 4563 
L 3425 3794 
L 3072 3794 
Q 3034 4109 2831 4275 
Q 2628 4441 2284 4441 
Q 1678 4441 1381 3981 
Q 1084 3522 1075 2569 
z
" transform="scale(0.015625)"/>
     </defs>
     <use xlink:href="#DejaVuSerif-70"/>
     <use xlink:href="#DejaVuSerif-20" x="64.013672"/>
     <use xlink:href="#DejaVuSerif-3d" x="95.800781"/>
     <use xlink:href="#DejaVuSerif-20" x="179.589844"/>
     <use xlink:href="#DejaVuSerif-30" x="211.376953"/>
     <use xlink:href="#DejaVuSerif-2e" x="275"/>
     <use xlink:href="#DejaVuSerif-37" x="306.787109"/>
     <use xlink:href="#DejaVuSerif-36" x="370.410156"/>
     <use xlink:href="#DejaVuSerif-35" x="434.033203"/>
    </g>
   </g>
   <g id="text_12">
    <!-- out persistence, threshold: 0.0% -->
    <g transform="translate(63.595937 20.16) scale(0.12 -0.12)">
     <defs>
      <path id="DejaVuSerif-69" d="M 622 4353 
Q 622 4497 726 4603 
Q 831 4709 978 4709 
Q 1122 4709 1226 4603 
Q 1331 4497 1331 4353 
Q 1331 4206 1228 4103 
Q 1125 4000 978 4000 
Q 831 4000 726 4103 
Q 622 4206 622 4353 
z
M 1356 331 
L 1900 331 
L 1900 0 
L 231 0 
L 231 331 
L 781 331 
L 781 2988 
L 231 2988 
L 231 3322 
L 1356 3322 
L 1356 331 
z
" transform="scale(0.015625)"/>
      <path id="DejaVuSerif-63" d="M 3291 997 
Q 3169 466 2822 187 
Q 2475 -91 1925 -91 
Q 1200 -91 759 389 
Q 319 869 319 1663 
Q 319 2459 759 2936 
Q 1200 3413 1925 3413 
Q 2241 3413 2553 3339 
Q 2866 3266 3181 3116 
L 3181 2266 
L 2847 2266 
Q 2781 2703 2561 2903 
Q 2341 3103 1931 3103 
Q 1466 3103 1228 2742 
Q 991 2381 991 1663 
Q 991 944 1227 581 
Q 1463 219 1931 219 
Q 2303 219 2525 412 
Q 2747 606 2828 997 
L 3291 997 
z
" transform="scale(0.015625)"/>
      <path id="DejaVuSerif-2c" d="M 231 -622 
Q 525 -406 662 -114 
Q 800 178 800 594 
L 800 709 
L 1416 709 
Q 1391 175 1164 -208 
Q 938 -591 481 -872 
L 231 -622 
z
" transform="scale(0.015625)"/>
      <path id="DejaVuSerif-68" d="M 263 0 
L 263 331 
L 781 331 
L 781 4531 
L 231 4531 
L 231 4863 
L 1356 4863 
L 1356 2731 
Q 1516 3069 1770 3241 
Q 2025 3413 2363 3413 
Q 2913 3413 3172 3097 
Q 3431 2781 3431 2113 
L 3431 331 
L 3944 331 
L 3944 0 
L 2356 0 
L 2356 331 
L 2853 331 
L 2853 1931 
Q 2853 2541 2704 2764 
Q 2556 2988 2175 2988 
Q 1775 2988 1565 2697 
Q 1356 2406 1356 1850 
L 1356 331 
L 1856 331 
L 1856 0 
L 263 0 
z
" transform="scale(0.015625)"/>
      <path id="DejaVuSerif-6c" d="M 1313 331 
L 1856 331 
L 1856 0 
L 184 0 
L 184 331 
L 738 331 
L 738 4531 
L 184 4531 
L 184 4863 
L 1313 4863 
L 1313 331 
z
" transform="scale(0.015625)"/>
      <path id="DejaVuSerif-3a" d="M 666 325 
Q 666 500 786 622 
Q 906 744 1081 744 
Q 1256 744 1376 622 
Q 1497 500 1497 325 
Q 1497 150 1378 29 
Q 1259 -91 1081 -91 
Q 903 -91 784 29 
Q 666 150 666 325 
z
M 666 2363 
Q 666 2538 786 2658 
Q 906 2778 1081 2778 
Q 1259 2778 1378 2659 
Q 1497 2541 1497 2363 
Q 1497 2184 1378 2065 
Q 1259 1947 1081 1947 
Q 906 1947 786 2067 
Q 666 2188 666 2363 
z
" transform="scale(0.015625)"/>
      <path id="DejaVuSerif-25" d="M 1434 4459 
Q 1159 4459 1004 4200 
Q 850 3941 850 3475 
Q 850 3016 1008 2753 
Q 1166 2491 1434 2491 
Q 1700 2491 1854 2752 
Q 2009 3013 2009 3475 
Q 2009 3938 1854 4198 
Q 1700 4459 1434 4459 
z
M 4653 2169 
Q 4381 2169 4226 1906 
Q 4072 1644 4072 1178 
Q 4072 719 4228 458 
Q 4384 197 4653 197 
Q 4922 197 5075 458 
Q 5228 719 5228 1178 
Q 5228 1641 5073 1905 
Q 4919 2169 4653 2169 
z
M 4653 2450 
Q 5147 2450 5437 2106 
Q 5728 1763 5728 1178 
Q 5728 594 5436 251 
Q 5144 -91 4653 -91 
Q 4153 -91 3862 251 
Q 3572 594 3572 1178 
Q 3572 1766 3864 2108 
Q 4156 2450 4653 2450 
z
M 4263 4750 
L 4738 4750 
L 1819 -91 
L 1344 -91 
L 4263 4750 
z
M 1428 4750 
Q 1922 4750 2215 4408 
Q 2509 4066 2509 3481 
Q 2509 2891 2217 2550 
Q 1925 2209 1428 2209 
Q 931 2209 642 2551 
Q 353 2894 353 3481 
Q 353 4063 643 4406 
Q 934 4750 1428 4750 
z
" transform="scale(0.015625)"/>
     </defs>
     <use xlink:href="#DejaVuSerif-6f"/>
     <use xlink:href="#DejaVuSerif-75" x="60.205078"/>
     <use xlink:href="#DejaVuSerif-74" x="124.609375"/>
     <use xlink:href="#DejaVuSerif-20" x="164.794922"/>
     <use xlink:href="#DejaVuSerif-70" x="196.582031"/>
     <use xlink:href="#DejaVuSerif-65" x="260.595703"/>
     <use xlink:href="#DejaVuSerif-72" x="319.775391"/>
     <use xlink:href="#DejaVuSerif-73" x="367.578125"/>
     <use xlink:href="#DejaVuSerif-69" x="418.896484"/>
     <use xlink:href="#DejaVuSerif-73" x="450.878906"/>
     <use xlink:href="#DejaVuSerif-74" x="502.197266"/>
     <use xlink:href="#DejaVuSerif-65" x="542.382812"/>
     <use xlink:href="#DejaVuSerif-6e" x="601.5625"/>
     <use xlink:href="#DejaVuSerif-63" x="665.966797"/>
     <use xlink:href="#DejaVuSerif-65" x="721.972656"/>
     <use xlink:href="#DejaVuSerif-2c" x="781.152344"/>
     <use xlink:href="#DejaVuSerif-20" x="812.939453"/>
     <use xlink:href="#DejaVuSerif-74" x="844.726562"/>
     <use xlink:href="#DejaVuSerif-68" x="884.912109"/>
     <use xlink:href="#DejaVuSerif-72" x="949.316406"/>
     <use xlink:href="#DejaVuSerif-65" x="997.119141"/>
     <use xlink:href="#DejaVuSerif-73" x="1056.298828"/>
     <use xlink:href="#DejaVuSerif-68" x="1107.617188"/>
     <use xlink:href="#DejaVuSerif-6f" x="1172.021484"/>
     <use xlink:href="#DejaVuSerif-6c" x="1232.226562"/>
     <use xlink:href="#DejaVuSerif-64" x="1264.208984"/>
     <use xlink:href="#DejaVuSerif-3a" x="1328.222656"/>
     <use xlink:href="#DejaVuSerif-20" x="1361.914062"/>
     <use xlink:href="#DejaVuSerif-30" x="1393.701172"/>
     <use xlink:href="#DejaVuSerif-2e" x="1457.324219"/>
     <use xlink:href="#DejaVuSerif-30" x="1489.111328"/>
     <use xlink:href="#DejaVuSerif-25" x="1552.734375"/>
    </g>
   </g>
  </g>
 </g>
 <defs>
  <clipPath id="p05c8347dda">
   <rect x="47.72" y="26.16" width="229.48" height="377.96"/>
  </clipPath>
 </defs>
</svg>
