<?xml version="1.0" encoding="utf-8" standalone="no"?>
<!DOCTYPE svg PUBLIC "-//W3C//DTD SVG 1.1//EN"
  "http://www.w3.org/Graphics/SVG/1.1/DTD/svg11.dtd">
<svg xmlns:xlink="http://www.w3.org/1999/xlink" width="360pt" height="432pt" viewBox="0 0 360 432" xmlns="http://www.w3.org/2000/svg" version="1.1">
 <metadata>
  <rdf:RDF xmlns:dc="http://purl.org/dc/elements/1.1/" xmlns:cc="http://creativecommons.org/ns#" xmlns:rdf="http://www.w3.org/1999/02/22-rdf-syntax-ns#">
   <cc:Work>
    <dc:type rdf:resource="http://purl.org/dc/dcmitype/StillImage"/>
    <dc:date>2025-08-07T16:08:37.595028</dc:date>
    <dc:format>image/svg+xml</dc:format>
    <dc:creator>
     <cc:Agent>
      <dc:title>Matplotlib v3.10.0, https://matplotlib.org/</dc:title>
     </cc:Agent>
    </dc:creator>
   </cc:Work>
  </rdf:RDF>
 </metadata>
 <defs>
  <style type="text/css">*{stroke-linejoin: round; stroke-linecap: butt}</style>
 </defs>
 <g id="figure_1">
  <g id="patch_1">
   <path d="M 0 432 
L 360 432 
L 360 0 
L 0 0 
z
" style="fill: #ffffff"/>
  </g>
  <g id="axes_1">
   <g id="patch_2">
    <path d="M 62.84 405.56 
L 349.2 405.56 
L 349.2 10.8 
L 62.84 10.8 
z
" style="fill: #ffffff"/>
   </g>
   <g id="line2d_1">
    <path d="M 105.794 344.126908 
L 163.066 344.126908 
L 163.066 249.805622 
L 105.794 249.805622 
L 105.794 344.126908 
" clip-path="url(#p33611c59fe)" style="fill: none; stroke: #000000; stroke-linecap: square"/>
   </g>
   <g id="line2d_2">
    <path d="M 134.43 344.126908 
L 134.43 387.616364 
" clip-path="url(#p33611c59fe)" style="fill: none; stroke: #000000; stroke-linecap: square"/>
   </g>
   <g id="line2d_3">
    <path d="M 134.43 249.805622 
L 134.43 123.742681 
" clip-path="url(#p33611c59fe)" style="fill: none; stroke: #000000; stroke-linecap: square"/>
   </g>
   <g id="line2d_4">
    <path d="M 120.112 387.616364 
L 148.748 387.616364 
" clip-path="url(#p33611c59fe)" style="fill: none; stroke: #000000; stroke-linecap: square"/>
   </g>
   <g id="line2d_5">
    <path d="M 120.112 123.742681 
L 148.748 123.742681 
" clip-path="url(#p33611c59fe)" style="fill: none; stroke: #000000; stroke-linecap: square"/>
   </g>
   <g id="line2d_6">
    <path d="M 248.974 347.063858 
L 306.246 347.063858 
L 306.246 281.886155 
L 248.974 281.886155 
L 248.974 347.063858 
" clip-path="url(#p33611c59fe)" style="fill: none; stroke: #000000; stroke-linecap: square"/>
   </g>
   <g id="line2d_7">
    <path d="M 277.61 347.063858 
L 277.61 381.403584 
" clip-path="url(#p33611c59fe)" style="fill: none; stroke: #000000; stroke-linecap: square"/>
   </g>
   <g id="line2d_8">
    <path d="M 277.61 281.886155 
L 277.61 199.425629 
" clip-path="url(#p33611c59fe)" style="fill: none; stroke: #000000; stroke-linecap: square"/>
   </g>
   <g id="line2d_9">
    <path d="M 263.292 381.403584 
L 291.928 381.403584 
" clip-path="url(#p33611c59fe)" style="fill: none; stroke: #000000; stroke-linecap: square"/>
   </g>
   <g id="line2d_10">
    <path d="M 263.292 199.425629 
L 291.928 199.425629 
" clip-path="url(#p33611c59fe)" style="fill: none; stroke: #000000; stroke-linecap: square"/>
   </g>
   <g id="line2d_11">
    <path d="M 105.794 309.674223 
L 163.066 309.674223 
" clip-path="url(#p33611c59fe)" style="fill: none; stroke: #000000"/>
   </g>
   <g id="line2d_12">
    <path d="M 248.974 324.471933 
L 306.246 324.471933 
" clip-path="url(#p33611c59fe)" style="fill: none; stroke: #000000"/>
   </g>
   <g id="matplotlib.axis_1">
    <g id="xtick_1">
     <g id="line2d_13">
      <defs>
       <path id="m2bdd3cce6e" d="M 0 0 
L 0 3.5 
" style="stroke: #000000; stroke-width: 0.8"/>
      </defs>
      <g>
       <use xlink:href="#m2bdd3cce6e" x="134.43" y="405.56" style="stroke: #000000; stroke-width: 0.8"/>
      </g>
     </g>
     <g id="text_1">
      <!-- 1 -->
      <g transform="translate(131.649531 419.717812) scale(0.1 -0.1)">
       <defs>
        <path id="ArialMT-31" d="M 2384 0 
L 1822 0 
L 1822 3584 
Q 1619 3391 1289 3197 
Q 959 3003 697 2906 
L 697 3450 
Q 1169 3672 1522 3987 
Q 1875 4303 2022 4600 
L 2384 4600 
L 2384 0 
z
" transform="scale(0.015625)"/>
       </defs>
       <use xlink:href="#ArialMT-31"/>
      </g>
     </g>
    </g>
    <g id="xtick_2">
     <g id="line2d_14">
      <g>
       <use xlink:href="#m2bdd3cce6e" x="277.61" y="405.56" style="stroke: #000000; stroke-width: 0.8"/>
      </g>
     </g>
     <g id="text_2">
      <!-- 2 -->
      <g transform="translate(274.829531 419.717812) scale(0.1 -0.1)">
       <defs>
        <path id="ArialMT-32" d="M 3222 541 
L 3222 0 
L 194 0 
Q 188 203 259 391 
Q 375 700 629 1000 
Q 884 1300 1366 1694 
Q 2113 2306 2375 2664 
Q 2638 3022 2638 3341 
Q 2638 3675 2398 3904 
Q 2159 4134 1775 4134 
Q 1369 4134 1125 3890 
Q 881 3647 878 3216 
L 300 3275 
Q 359 3922 746 4261 
Q 1134 4600 1788 4600 
Q 2447 4600 2831 4234 
Q 3216 3869 3216 3328 
Q 3216 3053 3103 2787 
Q 2991 2522 2730 2228 
Q 2469 1934 1863 1422 
Q 1356 997 1212 845 
Q 1069 694 975 541 
L 3222 541 
z
" transform="scale(0.015625)"/>
       </defs>
       <use xlink:href="#ArialMT-32"/>
      </g>
     </g>
    </g>
   </g>
   <g id="matplotlib.axis_2">
    <g id="ytick_1">
     <g id="line2d_15">
      <defs>
       <path id="mdbbe78c31a" d="M 0 0 
L -3.5 0 
" style="stroke: #000000; stroke-width: 0.8"/>
      </defs>
      <g>
       <use xlink:href="#mdbbe78c31a" x="62.84" y="389.084839" style="stroke: #000000; stroke-width: 0.8"/>
      </g>
     </g>
     <g id="text_3">
      <!-- 0 -->
      <g transform="translate(50.279063 392.663745) scale(0.1 -0.1)">
       <defs>
        <path id="ArialMT-30" d="M 266 2259 
Q 266 3072 433 3567 
Q 600 4063 929 4331 
Q 1259 4600 1759 4600 
Q 2128 4600 2406 4451 
Q 2684 4303 2865 4023 
Q 3047 3744 3150 3342 
Q 3253 2941 3253 2259 
Q 3253 1453 3087 958 
Q 2922 463 2592 192 
Q 2263 -78 1759 -78 
Q 1097 -78 719 397 
Q 266 969 266 2259 
z
M 844 2259 
Q 844 1131 1108 757 
Q 1372 384 1759 384 
Q 2147 384 2411 759 
Q 2675 1134 2675 2259 
Q 2675 3391 2411 3762 
Q 2147 4134 1753 4134 
Q 1366 4134 1134 3806 
Q 844 3388 844 2259 
z
" transform="scale(0.015625)"/>
       </defs>
       <use xlink:href="#ArialMT-30"/>
      </g>
     </g>
    </g>
    <g id="ytick_2">
     <g id="line2d_16">
      <g>
       <use xlink:href="#mdbbe78c31a" x="62.84" y="332.605026" style="stroke: #000000; stroke-width: 0.8"/>
      </g>
     </g>
     <g id="text_4">
      <!-- 500 -->
      <g transform="translate(39.157188 336.183933) scale(0.1 -0.1)">
       <defs>
        <path id="ArialMT-35" d="M 266 1200 
L 856 1250 
Q 922 819 1161 601 
Q 1400 384 1738 384 
Q 2144 384 2425 690 
Q 2706 997 2706 1503 
Q 2706 1984 2436 2262 
Q 2166 2541 1728 2541 
Q 1456 2541 1237 2417 
Q 1019 2294 894 2097 
L 366 2166 
L 809 4519 
L 3088 4519 
L 3088 3981 
L 1259 3981 
L 1013 2750 
Q 1425 3038 1878 3038 
Q 2478 3038 2890 2622 
Q 3303 2206 3303 1553 
Q 3303 931 2941 478 
Q 2500 -78 1738 -78 
Q 1113 -78 717 272 
Q 322 622 266 1200 
z
" transform="scale(0.015625)"/>
       </defs>
       <use xlink:href="#ArialMT-35"/>
       <use xlink:href="#ArialMT-30" transform="translate(55.615234 0)"/>
       <use xlink:href="#ArialMT-30" transform="translate(111.230469 0)"/>
      </g>
     </g>
    </g>
    <g id="ytick_3">
     <g id="line2d_17">
      <g>
       <use xlink:href="#mdbbe78c31a" x="62.84" y="276.125214" style="stroke: #000000; stroke-width: 0.8"/>
      </g>
     </g>
     <g id="text_5">
      <!-- 1000 -->
      <g transform="translate(33.59625 279.70412) scale(0.1 -0.1)">
       <use xlink:href="#ArialMT-31"/>
       <use xlink:href="#ArialMT-30" transform="translate(55.615234 0)"/>
       <use xlink:href="#ArialMT-30" transform="translate(111.230469 0)"/>
       <use xlink:href="#ArialMT-30" transform="translate(166.845703 0)"/>
      </g>
     </g>
    </g>
    <g id="ytick_4">
     <g id="line2d_18">
      <g>
       <use xlink:href="#mdbbe78c31a" x="62.84" y="219.645402" style="stroke: #000000; stroke-width: 0.8"/>
      </g>
     </g>
     <g id="text_6">
      <!-- 1500 -->
      <g transform="translate(33.59625 223.224308) scale(0.1 -0.1)">
       <use xlink:href="#ArialMT-31"/>
       <use xlink:href="#ArialMT-35" transform="translate(55.615234 0)"/>
       <use xlink:href="#ArialMT-30" transform="translate(111.230469 0)"/>
       <use xlink:href="#ArialMT-30" transform="translate(166.845703 0)"/>
      </g>
     </g>
    </g>
    <g id="ytick_5">
     <g id="line2d_19">
      <g>
       <use xlink:href="#mdbbe78c31a" x="62.84" y="163.16559" style="stroke: #000000; stroke-width: 0.8"/>
      </g>
     </g>
     <g id="text_7">
      <!-- 2000 -->
      <g transform="translate(33.59625 166.744496) scale(0.1 -0.1)">
       <use xlink:href="#ArialMT-32"/>
       <use xlink:href="#ArialMT-30" transform="translate(55.615234 0)"/>
       <use xlink:href="#ArialMT-30" transform="translate(111.230469 0)"/>
       <use xlink:href="#ArialMT-30" transform="translate(166.845703 0)"/>
      </g>
     </g>
    </g>
    <g id="ytick_6">
     <g id="line2d_20">
      <g>
       <use xlink:href="#mdbbe78c31a" x="62.84" y="106.685777" style="stroke: #000000; stroke-width: 0.8"/>
      </g>
     </g>
     <g id="text_8">
      <!-- 2500 -->
      <g transform="translate(33.59625 110.264684) scale(0.1 -0.1)">
       <use xlink:href="#ArialMT-32"/>
       <use xlink:href="#ArialMT-35" transform="translate(55.615234 0)"/>
       <use xlink:href="#ArialMT-30" transform="translate(111.230469 0)"/>
       <use xlink:href="#ArialMT-30" transform="translate(166.845703 0)"/>
      </g>
     </g>
    </g>
    <g id="ytick_7">
     <g id="line2d_21">
      <g>
       <use xlink:href="#mdbbe78c31a" x="62.84" y="50.205965" style="stroke: #000000; stroke-width: 0.8"/>
      </g>
     </g>
     <g id="text_9">
      <!-- 3000 -->
      <g transform="translate(33.59625 53.784871) scale(0.1 -0.1)">
       <defs>
        <path id="ArialMT-33" d="M 269 1209 
L 831 1284 
Q 928 806 1161 595 
Q 1394 384 1728 384 
Q 2125 384 2398 659 
Q 2672 934 2672 1341 
Q 2672 1728 2419 1979 
Q 2166 2231 1775 2231 
Q 1616 2231 1378 2169 
L 1441 2663 
Q 1497 2656 1531 2656 
Q 1891 2656 2178 2843 
Q 2466 3031 2466 3422 
Q 2466 3731 2256 3934 
Q 2047 4138 1716 4138 
Q 1388 4138 1169 3931 
Q 950 3725 888 3313 
L 325 3413 
Q 428 3978 793 4289 
Q 1159 4600 1703 4600 
Q 2078 4600 2393 4439 
Q 2709 4278 2876 4000 
Q 3044 3722 3044 3409 
Q 3044 3113 2884 2869 
Q 2725 2625 2413 2481 
Q 2819 2388 3044 2092 
Q 3269 1797 3269 1353 
Q 3269 753 2831 336 
Q 2394 -81 1725 -81 
Q 1122 -81 723 278 
Q 325 638 269 1209 
z
" transform="scale(0.015625)"/>
       </defs>
       <use xlink:href="#ArialMT-33"/>
       <use xlink:href="#ArialMT-30" transform="translate(55.615234 0)"/>
       <use xlink:href="#ArialMT-30" transform="translate(111.230469 0)"/>
       <use xlink:href="#ArialMT-30" transform="translate(166.845703 0)"/>
      </g>
     </g>
    </g>
    <g id="text_10">
     <!-- Ingoing approaches -->
     <g transform="translate(25.386875 296.019063) rotate(-90) scale(0.2 -0.2)">
      <defs>
       <path id="ArialMT-49" d="M 597 0 
L 597 4581 
L 1203 4581 
L 1203 0 
L 597 0 
z
" transform="scale(0.015625)"/>
       <path id="ArialMT-6e" d="M 422 0 
L 422 3319 
L 928 3319 
L 928 2847 
Q 1294 3394 1984 3394 
Q 2284 3394 2536 3286 
Q 2788 3178 2913 3003 
Q 3038 2828 3088 2588 
Q 3119 2431 3119 2041 
L 3119 0 
L 2556 0 
L 2556 2019 
Q 2556 2363 2490 2533 
Q 2425 2703 2258 2804 
Q 2091 2906 1866 2906 
Q 1506 2906 1245 2678 
Q 984 2450 984 1813 
L 984 0 
L 422 0 
z
" transform="scale(0.015625)"/>
       <path id="ArialMT-67" d="M 319 -275 
L 866 -356 
Q 900 -609 1056 -725 
Q 1266 -881 1628 -881 
Q 2019 -881 2231 -725 
Q 2444 -569 2519 -288 
Q 2563 -116 2559 434 
Q 2191 0 1641 0 
Q 956 0 581 494 
Q 206 988 206 1678 
Q 206 2153 378 2554 
Q 550 2956 876 3175 
Q 1203 3394 1644 3394 
Q 2231 3394 2613 2919 
L 2613 3319 
L 3131 3319 
L 3131 450 
Q 3131 -325 2973 -648 
Q 2816 -972 2473 -1159 
Q 2131 -1347 1631 -1347 
Q 1038 -1347 672 -1080 
Q 306 -813 319 -275 
z
M 784 1719 
Q 784 1066 1043 766 
Q 1303 466 1694 466 
Q 2081 466 2343 764 
Q 2606 1063 2606 1700 
Q 2606 2309 2336 2618 
Q 2066 2928 1684 2928 
Q 1309 2928 1046 2623 
Q 784 2319 784 1719 
z
" transform="scale(0.015625)"/>
       <path id="ArialMT-6f" d="M 213 1659 
Q 213 2581 725 3025 
Q 1153 3394 1769 3394 
Q 2453 3394 2887 2945 
Q 3322 2497 3322 1706 
Q 3322 1066 3130 698 
Q 2938 331 2570 128 
Q 2203 -75 1769 -75 
Q 1072 -75 642 372 
Q 213 819 213 1659 
z
M 791 1659 
Q 791 1022 1069 705 
Q 1347 388 1769 388 
Q 2188 388 2466 706 
Q 2744 1025 2744 1678 
Q 2744 2294 2464 2611 
Q 2184 2928 1769 2928 
Q 1347 2928 1069 2612 
Q 791 2297 791 1659 
z
" transform="scale(0.015625)"/>
       <path id="ArialMT-69" d="M 425 3934 
L 425 4581 
L 988 4581 
L 988 3934 
L 425 3934 
z
M 425 0 
L 425 3319 
L 988 3319 
L 988 0 
L 425 0 
z
" transform="scale(0.015625)"/>
       <path id="ArialMT-20" transform="scale(0.015625)"/>
       <path id="ArialMT-61" d="M 2588 409 
Q 2275 144 1986 34 
Q 1697 -75 1366 -75 
Q 819 -75 525 192 
Q 231 459 231 875 
Q 231 1119 342 1320 
Q 453 1522 633 1644 
Q 813 1766 1038 1828 
Q 1203 1872 1538 1913 
Q 2219 1994 2541 2106 
Q 2544 2222 2544 2253 
Q 2544 2597 2384 2738 
Q 2169 2928 1744 2928 
Q 1347 2928 1158 2789 
Q 969 2650 878 2297 
L 328 2372 
Q 403 2725 575 2942 
Q 747 3159 1072 3276 
Q 1397 3394 1825 3394 
Q 2250 3394 2515 3294 
Q 2781 3194 2906 3042 
Q 3031 2891 3081 2659 
Q 3109 2516 3109 2141 
L 3109 1391 
Q 3109 606 3145 398 
Q 3181 191 3288 0 
L 2700 0 
Q 2613 175 2588 409 
z
M 2541 1666 
Q 2234 1541 1622 1453 
Q 1275 1403 1131 1340 
Q 988 1278 909 1158 
Q 831 1038 831 891 
Q 831 666 1001 516 
Q 1172 366 1500 366 
Q 1825 366 2078 508 
Q 2331 650 2450 897 
Q 2541 1088 2541 1459 
L 2541 1666 
z
" transform="scale(0.015625)"/>
       <path id="ArialMT-70" d="M 422 -1272 
L 422 3319 
L 934 3319 
L 934 2888 
Q 1116 3141 1344 3267 
Q 1572 3394 1897 3394 
Q 2322 3394 2647 3175 
Q 2972 2956 3137 2557 
Q 3303 2159 3303 1684 
Q 3303 1175 3120 767 
Q 2938 359 2589 142 
Q 2241 -75 1856 -75 
Q 1575 -75 1351 44 
Q 1128 163 984 344 
L 984 -1272 
L 422 -1272 
z
M 931 1641 
Q 931 1000 1190 694 
Q 1450 388 1819 388 
Q 2194 388 2461 705 
Q 2728 1022 2728 1688 
Q 2728 2322 2467 2637 
Q 2206 2953 1844 2953 
Q 1484 2953 1207 2617 
Q 931 2281 931 1641 
z
" transform="scale(0.015625)"/>
       <path id="ArialMT-72" d="M 416 0 
L 416 3319 
L 922 3319 
L 922 2816 
Q 1116 3169 1280 3281 
Q 1444 3394 1641 3394 
Q 1925 3394 2219 3213 
L 2025 2691 
Q 1819 2813 1613 2813 
Q 1428 2813 1281 2702 
Q 1134 2591 1072 2394 
Q 978 2094 978 1738 
L 978 0 
L 416 0 
z
" transform="scale(0.015625)"/>
       <path id="ArialMT-63" d="M 2588 1216 
L 3141 1144 
Q 3050 572 2676 248 
Q 2303 -75 1759 -75 
Q 1078 -75 664 370 
Q 250 816 250 1647 
Q 250 2184 428 2587 
Q 606 2991 970 3192 
Q 1334 3394 1763 3394 
Q 2303 3394 2647 3120 
Q 2991 2847 3088 2344 
L 2541 2259 
Q 2463 2594 2264 2762 
Q 2066 2931 1784 2931 
Q 1359 2931 1093 2626 
Q 828 2322 828 1663 
Q 828 994 1084 691 
Q 1341 388 1753 388 
Q 2084 388 2306 591 
Q 2528 794 2588 1216 
z
" transform="scale(0.015625)"/>
       <path id="ArialMT-68" d="M 422 0 
L 422 4581 
L 984 4581 
L 984 2938 
Q 1378 3394 1978 3394 
Q 2347 3394 2619 3248 
Q 2891 3103 3008 2847 
Q 3125 2591 3125 2103 
L 3125 0 
L 2563 0 
L 2563 2103 
Q 2563 2525 2380 2717 
Q 2197 2909 1863 2909 
Q 1613 2909 1392 2779 
Q 1172 2650 1078 2428 
Q 984 2206 984 1816 
L 984 0 
L 422 0 
z
" transform="scale(0.015625)"/>
       <path id="ArialMT-65" d="M 2694 1069 
L 3275 997 
Q 3138 488 2766 206 
Q 2394 -75 1816 -75 
Q 1088 -75 661 373 
Q 234 822 234 1631 
Q 234 2469 665 2931 
Q 1097 3394 1784 3394 
Q 2450 3394 2872 2941 
Q 3294 2488 3294 1666 
Q 3294 1616 3291 1516 
L 816 1516 
Q 847 969 1125 678 
Q 1403 388 1819 388 
Q 2128 388 2347 550 
Q 2566 713 2694 1069 
z
M 847 1978 
L 2700 1978 
Q 2663 2397 2488 2606 
Q 2219 2931 1791 2931 
Q 1403 2931 1139 2672 
Q 875 2413 847 1978 
z
" transform="scale(0.015625)"/>
       <path id="ArialMT-73" d="M 197 991 
L 753 1078 
Q 800 744 1014 566 
Q 1228 388 1613 388 
Q 2000 388 2187 545 
Q 2375 703 2375 916 
Q 2375 1106 2209 1216 
Q 2094 1291 1634 1406 
Q 1016 1563 777 1677 
Q 538 1791 414 1992 
Q 291 2194 291 2438 
Q 291 2659 392 2848 
Q 494 3038 669 3163 
Q 800 3259 1026 3326 
Q 1253 3394 1513 3394 
Q 1903 3394 2198 3281 
Q 2494 3169 2634 2976 
Q 2775 2784 2828 2463 
L 2278 2388 
Q 2241 2644 2061 2787 
Q 1881 2931 1553 2931 
Q 1166 2931 1000 2803 
Q 834 2675 834 2503 
Q 834 2394 903 2306 
Q 972 2216 1119 2156 
Q 1203 2125 1616 2013 
Q 2213 1853 2448 1751 
Q 2684 1650 2818 1456 
Q 2953 1263 2953 975 
Q 2953 694 2789 445 
Q 2625 197 2315 61 
Q 2006 -75 1616 -75 
Q 969 -75 630 194 
Q 291 463 197 991 
z
" transform="scale(0.015625)"/>
      </defs>
      <use xlink:href="#ArialMT-49"/>
      <use xlink:href="#ArialMT-6e" transform="translate(27.783203 0)"/>
      <use xlink:href="#ArialMT-67" transform="translate(83.398438 0)"/>
      <use xlink:href="#ArialMT-6f" transform="translate(139.013672 0)"/>
      <use xlink:href="#ArialMT-69" transform="translate(194.628906 0)"/>
      <use xlink:href="#ArialMT-6e" transform="translate(216.845703 0)"/>
      <use xlink:href="#ArialMT-67" transform="translate(272.460938 0)"/>
      <use xlink:href="#ArialMT-20" transform="translate(328.076172 0)"/>
      <use xlink:href="#ArialMT-61" transform="translate(355.859375 0)"/>
      <use xlink:href="#ArialMT-70" transform="translate(411.474609 0)"/>
      <use xlink:href="#ArialMT-70" transform="translate(467.089844 0)"/>
      <use xlink:href="#ArialMT-72" transform="translate(522.705078 0)"/>
      <use xlink:href="#ArialMT-6f" transform="translate(556.005859 0)"/>
      <use xlink:href="#ArialMT-61" transform="translate(611.621094 0)"/>
      <use xlink:href="#ArialMT-63" transform="translate(667.236328 0)"/>
      <use xlink:href="#ArialMT-68" transform="translate(717.236328 0)"/>
      <use xlink:href="#ArialMT-65" transform="translate(772.851562 0)"/>
      <use xlink:href="#ArialMT-73" transform="translate(828.466797 0)"/>
     </g>
    </g>
   </g>
   <g id="line2d_22">
    <path d="M 134.43 96.035944 
L 134.43 90.230723 
L 277.61 90.230723 
L 277.61 96.035944 
" clip-path="url(#p33611c59fe)" style="fill: none; stroke: #000000; stroke-linecap: square"/>
   </g>
   <g id="PathCollection_1">
    <defs>
     <path id="m40be259fb0" d="M 0 3.162278 
C 0.838646 3.162278 1.643056 2.82908 2.236068 2.236068 
C 2.82908 1.643056 3.162278 0.838646 3.162278 0 
C 3.162278 -0.838646 2.82908 -1.643056 2.236068 -2.236068 
C 1.643056 -2.82908 0.838646 -3.162278 0 -3.162278 
C -0.838646 -3.162278 -1.643056 -2.82908 -2.236068 -2.236068 
C -2.82908 -1.643056 -3.162278 -0.838646 -3.162278 0 
C -3.162278 0.838646 -2.82908 1.643056 -2.236068 2.236068 
C -1.643056 2.82908 -0.838646 3.162278 0 3.162278 
z
" style="stroke: #a9a9a9"/>
    </defs>
    <g clip-path="url(#p33611c59fe)">
     <use xlink:href="#m40be259fb0" x="128.398743" y="310.35198" style="fill: #a9a9a9; stroke: #a9a9a9"/>
     <use xlink:href="#m40be259fb0" x="124.909373" y="297.248664" style="fill: #a9a9a9; stroke: #a9a9a9"/>
     <use xlink:href="#m40be259fb0" x="137.126566" y="291.826602" style="fill: #a9a9a9; stroke: #a9a9a9"/>
     <use xlink:href="#m40be259fb0" x="141.879266" y="335.429017" style="fill: #a9a9a9; stroke: #a9a9a9"/>
     <use xlink:href="#m40be259fb0" x="127.175475" y="304.59104" style="fill: #a9a9a9; stroke: #a9a9a9"/>
     <use xlink:href="#m40be259fb0" x="137.612675" y="328.199601" style="fill: #a9a9a9; stroke: #a9a9a9"/>
     <use xlink:href="#m40be259fb0" x="132.546941" y="319.049872" style="fill: #a9a9a9; stroke: #a9a9a9"/>
     <use xlink:href="#m40be259fb0" x="135.030734" y="370.220581" style="fill: #a9a9a9; stroke: #a9a9a9"/>
     <use xlink:href="#m40be259fb0" x="139.858785" y="290.922925" style="fill: #a9a9a9; stroke: #a9a9a9"/>
     <use xlink:href="#m40be259fb0" x="127.908855" y="376.433361" style="fill: #a9a9a9; stroke: #a9a9a9"/>
     <use xlink:href="#m40be259fb0" x="128.013002" y="289.45445" style="fill: #a9a9a9; stroke: #a9a9a9"/>
     <use xlink:href="#m40be259fb0" x="147.803707" y="320.857226" style="fill: #a9a9a9; stroke: #a9a9a9"/>
     <use xlink:href="#m40be259fb0" x="135.419972" y="369.203945" style="fill: #a9a9a9; stroke: #a9a9a9"/>
     <use xlink:href="#m40be259fb0" x="128.70287" y="128.599944" style="fill: #a9a9a9; stroke: #a9a9a9"/>
     <use xlink:href="#m40be259fb0" x="136.965864" y="254.098087" style="fill: #a9a9a9; stroke: #a9a9a9"/>
     <use xlink:href="#m40be259fb0" x="135.209949" y="344.126908" style="fill: #a9a9a9; stroke: #a9a9a9"/>
     <use xlink:href="#m40be259fb0" x="119.52538" y="367.170672" style="fill: #a9a9a9; stroke: #a9a9a9"/>
     <use xlink:href="#m40be259fb0" x="125.098224" y="280.982478" style="fill: #a9a9a9; stroke: #a9a9a9"/>
     <use xlink:href="#m40be259fb0" x="140.690012" y="375.190805" style="fill: #a9a9a9; stroke: #a9a9a9"/>
     <use xlink:href="#m40be259fb0" x="135.591659" y="331.136551" style="fill: #a9a9a9; stroke: #a9a9a9"/>
     <use xlink:href="#m40be259fb0" x="142.621747" y="322.55162" style="fill: #a9a9a9; stroke: #a9a9a9"/>
     <use xlink:href="#m40be259fb0" x="140.267297" y="325.827449" style="fill: #a9a9a9; stroke: #a9a9a9"/>
     <use xlink:href="#m40be259fb0" x="141.577478" y="308.657586" style="fill: #a9a9a9; stroke: #a9a9a9"/>
     <use xlink:href="#m40be259fb0" x="142.277661" y="183.046484" style="fill: #a9a9a9; stroke: #a9a9a9"/>
     <use xlink:href="#m40be259fb0" x="126.712113" y="259.40719" style="fill: #a9a9a9; stroke: #a9a9a9"/>
     <use xlink:href="#m40be259fb0" x="138.174484" y="218.854685" style="fill: #a9a9a9; stroke: #a9a9a9"/>
     <use xlink:href="#m40be259fb0" x="129.190676" y="353.502557" style="fill: #a9a9a9; stroke: #a9a9a9"/>
     <use xlink:href="#m40be259fb0" x="136.173187" y="343.788029" style="fill: #a9a9a9; stroke: #a9a9a9"/>
     <use xlink:href="#m40be259fb0" x="126.935382" y="318.146195" style="fill: #a9a9a9; stroke: #a9a9a9"/>
     <use xlink:href="#m40be259fb0" x="139.999821" y="384.905333" style="fill: #a9a9a9; stroke: #a9a9a9"/>
     <use xlink:href="#m40be259fb0" x="142.869879" y="387.616364" style="fill: #a9a9a9; stroke: #a9a9a9"/>
     <use xlink:href="#m40be259fb0" x="143.326613" y="325.714489" style="fill: #a9a9a9; stroke: #a9a9a9"/>
     <use xlink:href="#m40be259fb0" x="151.284905" y="383.775736" style="fill: #a9a9a9; stroke: #a9a9a9"/>
     <use xlink:href="#m40be259fb0" x="131.619583" y="369.542824" style="fill: #a9a9a9; stroke: #a9a9a9"/>
     <use xlink:href="#m40be259fb0" x="144.756683" y="372.140895" style="fill: #a9a9a9; stroke: #a9a9a9"/>
     <use xlink:href="#m40be259fb0" x="129.549249" y="306.172474" style="fill: #a9a9a9; stroke: #a9a9a9"/>
     <use xlink:href="#m40be259fb0" x="139.318953" y="355.76175" style="fill: #a9a9a9; stroke: #a9a9a9"/>
     <use xlink:href="#m40be259fb0" x="134.343247" y="335.880856" style="fill: #a9a9a9; stroke: #a9a9a9"/>
     <use xlink:href="#m40be259fb0" x="128.260412" y="309.674223" style="fill: #a9a9a9; stroke: #a9a9a9"/>
     <use xlink:href="#m40be259fb0" x="129.683564" y="319.61467" style="fill: #a9a9a9; stroke: #a9a9a9"/>
     <use xlink:href="#m40be259fb0" x="131.694966" y="246.303873" style="fill: #a9a9a9; stroke: #a9a9a9"/>
     <use xlink:href="#m40be259fb0" x="123.713721" y="285.839742" style="fill: #a9a9a9; stroke: #a9a9a9"/>
     <use xlink:href="#m40be259fb0" x="131.211778" y="370.446501" style="fill: #a9a9a9; stroke: #a9a9a9"/>
     <use xlink:href="#m40be259fb0" x="130.205542" y="81.94762" style="fill: #a9a9a9; stroke: #a9a9a9"/>
     <use xlink:href="#m40be259fb0" x="135.463341" y="76.412598" style="fill: #a9a9a9; stroke: #a9a9a9"/>
     <use xlink:href="#m40be259fb0" x="146.032702" y="188.129667" style="fill: #a9a9a9; stroke: #a9a9a9"/>
     <use xlink:href="#m40be259fb0" x="139.736471" y="249.805622" style="fill: #a9a9a9; stroke: #a9a9a9"/>
     <use xlink:href="#m40be259fb0" x="141.973102" y="286.969338" style="fill: #a9a9a9; stroke: #a9a9a9"/>
     <use xlink:href="#m40be259fb0" x="128.919188" y="318.146195" style="fill: #a9a9a9; stroke: #a9a9a9"/>
     <use xlink:href="#m40be259fb0" x="126.752729" y="288.776692" style="fill: #a9a9a9; stroke: #a9a9a9"/>
     <use xlink:href="#m40be259fb0" x="130.612621" y="299.281937" style="fill: #a9a9a9; stroke: #a9a9a9"/>
     <use xlink:href="#m40be259fb0" x="131.330751" y="327.408884" style="fill: #a9a9a9; stroke: #a9a9a9"/>
     <use xlink:href="#m40be259fb0" x="137.912531" y="301.654089" style="fill: #a9a9a9; stroke: #a9a9a9"/>
     <use xlink:href="#m40be259fb0" x="129.301824" y="322.43866" style="fill: #a9a9a9; stroke: #a9a9a9"/>
     <use xlink:href="#m40be259fb0" x="138.615434" y="335.880856" style="fill: #a9a9a9; stroke: #a9a9a9"/>
     <use xlink:href="#m40be259fb0" x="139.672499" y="194.229486" style="fill: #a9a9a9; stroke: #a9a9a9"/>
     <use xlink:href="#m40be259fb0" x="123.035611" y="316.790679" style="fill: #a9a9a9; stroke: #a9a9a9"/>
     <use xlink:href="#m40be259fb0" x="142.010461" y="334.6383" style="fill: #a9a9a9; stroke: #a9a9a9"/>
     <use xlink:href="#m40be259fb0" x="140.789102" y="374.061209" style="fill: #a9a9a9; stroke: #a9a9a9"/>
     <use xlink:href="#m40be259fb0" x="131.979397" y="374.287128" style="fill: #a9a9a9; stroke: #a9a9a9"/>
     <use xlink:href="#m40be259fb0" x="131.045049" y="379.59623" style="fill: #a9a9a9; stroke: #a9a9a9"/>
     <use xlink:href="#m40be259fb0" x="134.90374" y="377.111119" style="fill: #a9a9a9; stroke: #a9a9a9"/>
     <use xlink:href="#m40be259fb0" x="133.365034" y="375.303765" style="fill: #a9a9a9; stroke: #a9a9a9"/>
     <use xlink:href="#m40be259fb0" x="146.271308" y="377.449997" style="fill: #a9a9a9; stroke: #a9a9a9"/>
     <use xlink:href="#m40be259fb0" x="133.669761" y="374.964886" style="fill: #a9a9a9; stroke: #a9a9a9"/>
     <use xlink:href="#m40be259fb0" x="136.665423" y="366.154035" style="fill: #a9a9a9; stroke: #a9a9a9"/>
     <use xlink:href="#m40be259fb0" x="134.939894" y="381.177665" style="fill: #a9a9a9; stroke: #a9a9a9"/>
     <use xlink:href="#m40be259fb0" x="131.492447" y="383.549817" style="fill: #a9a9a9; stroke: #a9a9a9"/>
     <use xlink:href="#m40be259fb0" x="137.917558" y="372.253855" style="fill: #a9a9a9; stroke: #a9a9a9"/>
     <use xlink:href="#m40be259fb0" x="124.047488" y="380.386948" style="fill: #a9a9a9; stroke: #a9a9a9"/>
     <use xlink:href="#m40be259fb0" x="145.745483" y="367.62251" style="fill: #a9a9a9; stroke: #a9a9a9"/>
     <use xlink:href="#m40be259fb0" x="131.917784" y="319.275791" style="fill: #a9a9a9; stroke: #a9a9a9"/>
     <use xlink:href="#m40be259fb0" x="139.700648" y="330.458794" style="fill: #a9a9a9; stroke: #a9a9a9"/>
     <use xlink:href="#m40be259fb0" x="137.592593" y="306.172474" style="fill: #a9a9a9; stroke: #a9a9a9"/>
     <use xlink:href="#m40be259fb0" x="137.11885" y="289.56741" style="fill: #a9a9a9; stroke: #a9a9a9"/>
     <use xlink:href="#m40be259fb0" x="139.739974" y="340.173321" style="fill: #a9a9a9; stroke: #a9a9a9"/>
     <use xlink:href="#m40be259fb0" x="131.28118" y="338.817806" style="fill: #a9a9a9; stroke: #a9a9a9"/>
     <use xlink:href="#m40be259fb0" x="127.804913" y="323.568257" style="fill: #a9a9a9; stroke: #a9a9a9"/>
     <use xlink:href="#m40be259fb0" x="126.126864" y="301.42817" style="fill: #a9a9a9; stroke: #a9a9a9"/>
     <use xlink:href="#m40be259fb0" x="137.268908" y="344.126908" style="fill: #a9a9a9; stroke: #a9a9a9"/>
     <use xlink:href="#m40be259fb0" x="135.822867" y="337.123411" style="fill: #a9a9a9; stroke: #a9a9a9"/>
     <use xlink:href="#m40be259fb0" x="127.25632" y="246.416833" style="fill: #a9a9a9; stroke: #a9a9a9"/>
     <use xlink:href="#m40be259fb0" x="134.962133" y="244.38356" style="fill: #a9a9a9; stroke: #a9a9a9"/>
     <use xlink:href="#m40be259fb0" x="136.113421" y="171.97644" style="fill: #a9a9a9; stroke: #a9a9a9"/>
     <use xlink:href="#m40be259fb0" x="139.341243" y="217.838048" style="fill: #a9a9a9; stroke: #a9a9a9"/>
     <use xlink:href="#m40be259fb0" x="127.86325" y="265.39405" style="fill: #a9a9a9; stroke: #a9a9a9"/>
     <use xlink:href="#m40be259fb0" x="130.112235" y="124.420438" style="fill: #a9a9a9; stroke: #a9a9a9"/>
     <use xlink:href="#m40be259fb0" x="137.079355" y="59.807533" style="fill: #a9a9a9; stroke: #a9a9a9"/>
     <use xlink:href="#m40be259fb0" x="140.380161" y="106.911697" style="fill: #a9a9a9; stroke: #a9a9a9"/>
     <use xlink:href="#m40be259fb0" x="135.026925" y="290.132208" style="fill: #a9a9a9; stroke: #a9a9a9"/>
     <use xlink:href="#m40be259fb0" x="130.120525" y="264.829252" style="fill: #a9a9a9; stroke: #a9a9a9"/>
     <use xlink:href="#m40be259fb0" x="138.678917" y="223.824908" style="fill: #a9a9a9; stroke: #a9a9a9"/>
     <use xlink:href="#m40be259fb0" x="132.326518" y="244.15764" style="fill: #a9a9a9; stroke: #a9a9a9"/>
     <use xlink:href="#m40be259fb0" x="128.280465" y="353.050719" style="fill: #a9a9a9; stroke: #a9a9a9"/>
     <use xlink:href="#m40be259fb0" x="131.516693" y="265.619969" style="fill: #a9a9a9; stroke: #a9a9a9"/>
     <use xlink:href="#m40be259fb0" x="148.063138" y="255.566563" style="fill: #a9a9a9; stroke: #a9a9a9"/>
     <use xlink:href="#m40be259fb0" x="133.572475" y="271.042031" style="fill: #a9a9a9; stroke: #a9a9a9"/>
     <use xlink:href="#m40be259fb0" x="136.571153" y="99.456361" style="fill: #a9a9a9; stroke: #a9a9a9"/>
     <use xlink:href="#m40be259fb0" x="134.575006" y="28.743636" style="fill: #a9a9a9; stroke: #a9a9a9"/>
     <use xlink:href="#m40be259fb0" x="131.005431" y="127.357389" style="fill: #a9a9a9; stroke: #a9a9a9"/>
     <use xlink:href="#m40be259fb0" x="129.508944" y="195.359083" style="fill: #a9a9a9; stroke: #a9a9a9"/>
     <use xlink:href="#m40be259fb0" x="124.780416" y="220.887958" style="fill: #a9a9a9; stroke: #a9a9a9"/>
     <use xlink:href="#m40be259fb0" x="145.143149" y="271.38091" style="fill: #a9a9a9; stroke: #a9a9a9"/>
     <use xlink:href="#m40be259fb0" x="132.82541" y="271.49387" style="fill: #a9a9a9; stroke: #a9a9a9"/>
     <use xlink:href="#m40be259fb0" x="130.144269" y="138.427432" style="fill: #a9a9a9; stroke: #a9a9a9"/>
     <use xlink:href="#m40be259fb0" x="124.429203" y="77.429235" style="fill: #a9a9a9; stroke: #a9a9a9"/>
     <use xlink:href="#m40be259fb0" x="142.726882" y="123.742681" style="fill: #a9a9a9; stroke: #a9a9a9"/>
     <use xlink:href="#m40be259fb0" x="133.590028" y="234.217193" style="fill: #a9a9a9; stroke: #a9a9a9"/>
     <use xlink:href="#m40be259fb0" x="131.051078" y="194.003567" style="fill: #a9a9a9; stroke: #a9a9a9"/>
    </g>
   </g>
   <g id="PathCollection_2">
    <defs>
     <path id="ma1fac8f881" d="M 0 3.162278 
C 0.838646 3.162278 1.643056 2.82908 2.236068 2.236068 
C 2.82908 1.643056 3.162278 0.838646 3.162278 0 
C 3.162278 -0.838646 2.82908 -1.643056 2.236068 -2.236068 
C 1.643056 -2.82908 0.838646 -3.162278 0 -3.162278 
C -0.838646 -3.162278 -1.643056 -2.82908 -2.236068 -2.236068 
C -2.82908 -1.643056 -3.162278 -0.838646 -3.162278 0 
C -3.162278 0.838646 -2.82908 1.643056 -2.236068 2.236068 
C -1.643056 2.82908 -0.838646 3.162278 0 3.162278 
z
" style="stroke: #b22222"/>
    </defs>
    <g clip-path="url(#p33611c59fe)">
     <use xlink:href="#ma1fac8f881" x="275.677377" y="346.49906" style="fill: #b22222; stroke: #b22222"/>
     <use xlink:href="#ma1fac8f881" x="283.047352" y="233.539436" style="fill: #b22222; stroke: #b22222"/>
     <use xlink:href="#ma1fac8f881" x="275.187937" y="314.418527" style="fill: #b22222; stroke: #b22222"/>
     <use xlink:href="#ma1fac8f881" x="294.164398" y="370.333541" style="fill: #b22222; stroke: #b22222"/>
     <use xlink:href="#ma1fac8f881" x="271.563082" y="311.481577" style="fill: #b22222; stroke: #b22222"/>
     <use xlink:href="#ma1fac8f881" x="276.048405" y="324.471933" style="fill: #b22222; stroke: #b22222"/>
     <use xlink:href="#ma1fac8f881" x="277.343286" y="341.189958" style="fill: #b22222; stroke: #b22222"/>
     <use xlink:href="#ma1fac8f881" x="283.866336" y="346.837939" style="fill: #b22222; stroke: #b22222"/>
     <use xlink:href="#ma1fac8f881" x="279.88377" y="179.544735" style="fill: #b22222; stroke: #b22222"/>
     <use xlink:href="#ma1fac8f881" x="276.239566" y="342.319554" style="fill: #b22222; stroke: #b22222"/>
     <use xlink:href="#ma1fac8f881" x="271.933842" y="367.50955" style="fill: #b22222; stroke: #b22222"/>
     <use xlink:href="#ma1fac8f881" x="284.241023" y="303.800322" style="fill: #b22222; stroke: #b22222"/>
     <use xlink:href="#ma1fac8f881" x="273.14332" y="332.492067" style="fill: #b22222; stroke: #b22222"/>
     <use xlink:href="#ma1fac8f881" x="283.274459" y="281.999115" style="fill: #b22222; stroke: #b22222"/>
     <use xlink:href="#ma1fac8f881" x="283.747418" y="62.744483" style="fill: #b22222; stroke: #b22222"/>
     <use xlink:href="#ma1fac8f881" x="281.704016" y="341.754756" style="fill: #b22222; stroke: #b22222"/>
     <use xlink:href="#ma1fac8f881" x="281.86674" y="323.455297" style="fill: #b22222; stroke: #b22222"/>
     <use xlink:href="#ma1fac8f881" x="281.327942" y="326.731126" style="fill: #b22222; stroke: #b22222"/>
     <use xlink:href="#ma1fac8f881" x="278.955569" y="286.856379" style="fill: #b22222; stroke: #b22222"/>
     <use xlink:href="#ma1fac8f881" x="276.316184" y="337.349331" style="fill: #b22222; stroke: #b22222"/>
     <use xlink:href="#ma1fac8f881" x="282.169087" y="278.949205" style="fill: #b22222; stroke: #b22222"/>
     <use xlink:href="#ma1fac8f881" x="268.529593" y="260.310867" style="fill: #b22222; stroke: #b22222"/>
     <use xlink:href="#ma1fac8f881" x="276.254189" y="199.425629" style="fill: #b22222; stroke: #b22222"/>
     <use xlink:href="#ma1fac8f881" x="275.094058" y="285.726782" style="fill: #b22222; stroke: #b22222"/>
     <use xlink:href="#ma1fac8f881" x="282.808594" y="104.313625" style="fill: #b22222; stroke: #b22222"/>
     <use xlink:href="#ma1fac8f881" x="273.620429" y="281.886155" style="fill: #b22222; stroke: #b22222"/>
     <use xlink:href="#ma1fac8f881" x="279.382514" y="378.466634" style="fill: #b22222; stroke: #b22222"/>
     <use xlink:href="#ma1fac8f881" x="284.133443" y="373.948249" style="fill: #b22222; stroke: #b22222"/>
     <use xlink:href="#ma1fac8f881" x="281.175848" y="381.403584" style="fill: #b22222; stroke: #b22222"/>
     <use xlink:href="#ma1fac8f881" x="274.06335" y="378.014796" style="fill: #b22222; stroke: #b22222"/>
     <use xlink:href="#ma1fac8f881" x="268.795543" y="380.838786" style="fill: #b22222; stroke: #b22222"/>
     <use xlink:href="#ma1fac8f881" x="283.497819" y="370.220581" style="fill: #b22222; stroke: #b22222"/>
     <use xlink:href="#ma1fac8f881" x="271.4333" y="370.55946" style="fill: #b22222; stroke: #b22222"/>
     <use xlink:href="#ma1fac8f881" x="285.288684" y="347.063858" style="fill: #b22222; stroke: #b22222"/>
     <use xlink:href="#ma1fac8f881" x="275.452823" y="135.603441" style="fill: #b22222; stroke: #b22222"/>
     <use xlink:href="#ma1fac8f881" x="271.367981" y="246.190914" style="fill: #b22222; stroke: #b22222"/>
     <use xlink:href="#ma1fac8f881" x="275.901512" y="300.185614" style="fill: #b22222; stroke: #b22222"/>
     <use xlink:href="#ma1fac8f881" x="268.556424" y="358.811659" style="fill: #b22222; stroke: #b22222"/>
     <use xlink:href="#ma1fac8f881" x="282.246501" y="323.116418" style="fill: #b22222; stroke: #b22222"/>
     <use xlink:href="#ma1fac8f881" x="289.476142" y="339.608523" style="fill: #b22222; stroke: #b22222"/>
     <use xlink:href="#ma1fac8f881" x="269.57659" y="247.20755" style="fill: #b22222; stroke: #b22222"/>
    </g>
   </g>
   <g id="patch_3">
    <path d="M 62.84 405.56 
L 62.84 10.8 
" style="fill: none; stroke: #000000; stroke-width: 0.8; stroke-linejoin: miter; stroke-linecap: square"/>
   </g>
   <g id="patch_4">
    <path d="M 62.84 405.56 
L 349.2 405.56 
" style="fill: none; stroke: #000000; stroke-width: 0.8; stroke-linejoin: miter; stroke-linecap: square"/>
   </g>
   <g id="text_11">
    <!-- p = 0.307 -->
    <g transform="translate(185.030156 85.340612) scale(0.1 -0.1)">
     <defs>
      <path id="ArialMT-3d" d="M 3381 2694 
L 356 2694 
L 356 3219 
L 3381 3219 
L 3381 2694 
z
M 3381 1303 
L 356 1303 
L 356 1828 
L 3381 1828 
L 3381 1303 
z
" transform="scale(0.015625)"/>
      <path id="ArialMT-2e" d="M 581 0 
L 581 641 
L 1222 641 
L 1222 0 
L 581 0 
z
" transform="scale(0.015625)"/>
      <path id="ArialMT-37" d="M 303 3981 
L 303 4522 
L 3269 4522 
L 3269 4084 
Q 2831 3619 2401 2847 
Q 1972 2075 1738 1259 
Q 1569 684 1522 0 
L 944 0 
Q 953 541 1156 1306 
Q 1359 2072 1739 2783 
Q 2119 3494 2547 3981 
L 303 3981 
z
" transform="scale(0.015625)"/>
     </defs>
     <use xlink:href="#ArialMT-70"/>
     <use xlink:href="#ArialMT-20" transform="translate(55.615234 0)"/>
     <use xlink:href="#ArialMT-3d" transform="translate(83.398438 0)"/>
     <use xlink:href="#ArialMT-20" transform="translate(141.796875 0)"/>
     <use xlink:href="#ArialMT-30" transform="translate(169.580078 0)"/>
     <use xlink:href="#ArialMT-2e" transform="translate(225.195312 0)"/>
     <use xlink:href="#ArialMT-33" transform="translate(252.978516 0)"/>
     <use xlink:href="#ArialMT-30" transform="translate(308.59375 0)"/>
     <use xlink:href="#ArialMT-37" transform="translate(364.208984 0)"/>
    </g>
   </g>
  </g>
 </g>
 <defs>
  <clipPath id="p33611c59fe">
   <rect x="62.84" y="10.8" width="286.36" height="394.76"/>
  </clipPath>
 </defs>
</svg>
