<?xml version="1.0" encoding="utf-8" standalone="no"?>
<!DOCTYPE svg PUBLIC "-//W3C//DTD SVG 1.1//EN"
  "http://www.w3.org/Graphics/SVG/1.1/DTD/svg11.dtd">
<svg xmlns:xlink="http://www.w3.org/1999/xlink" width="360pt" height="432pt" viewBox="0 0 360 432" xmlns="http://www.w3.org/2000/svg" version="1.1">
 <metadata>
  <rdf:RDF xmlns:dc="http://purl.org/dc/elements/1.1/" xmlns:cc="http://creativecommons.org/ns#" xmlns:rdf="http://www.w3.org/1999/02/22-rdf-syntax-ns#">
   <cc:Work>
    <dc:type rdf:resource="http://purl.org/dc/dcmitype/StillImage"/>
    <dc:date>2025-08-07T16:10:09.701530</dc:date>
    <dc:format>image/svg+xml</dc:format>
    <dc:creator>
     <cc:Agent>
      <dc:title>Matplotlib v3.10.0, https://matplotlib.org/</dc:title>
     </cc:Agent>
    </dc:creator>
   </cc:Work>
  </rdf:RDF>
 </metadata>
 <defs>
  <style type="text/css">*{stroke-linejoin: round; stroke-linecap: butt}</style>
 </defs>
 <g id="figure_1">
  <g id="patch_1">
   <path d="M 0 432 
L 360 432 
L 360 0 
L 0 0 
z
" style="fill: #ffffff"/>
  </g>
  <g id="axes_1">
   <g id="patch_2">
    <path d="M 68.42 405.56 
L 349.2 405.56 
L 349.2 10.8 
L 68.42 10.8 
z
" style="fill: #ffffff"/>
   </g>
   <g id="line2d_1">
    <path d="M 110.537 335.604803 
L 166.693 335.604803 
L 166.693 229.96292 
L 110.537 229.96292 
L 110.537 335.604803 
" clip-path="url(#pa6a92a73f9)" style="fill: none; stroke: #000000; stroke-linecap: square"/>
   </g>
   <g id="line2d_2">
    <path d="M 138.615 335.604803 
L 138.615 387.616364 
" clip-path="url(#pa6a92a73f9)" style="fill: none; stroke: #000000; stroke-linecap: square"/>
   </g>
   <g id="line2d_3">
    <path d="M 138.615 229.96292 
L 138.615 72.696572 
" clip-path="url(#pa6a92a73f9)" style="fill: none; stroke: #000000; stroke-linecap: square"/>
   </g>
   <g id="line2d_4">
    <path d="M 124.576 387.616364 
L 152.654 387.616364 
" clip-path="url(#pa6a92a73f9)" style="fill: none; stroke: #000000; stroke-linecap: square"/>
   </g>
   <g id="line2d_5">
    <path d="M 124.576 72.696572 
L 152.654 72.696572 
" clip-path="url(#pa6a92a73f9)" style="fill: none; stroke: #000000; stroke-linecap: square"/>
   </g>
   <g id="line2d_6">
    <path d="M 250.927 340.637045 
L 307.083 340.637045 
L 307.083 256.707701 
L 250.927 256.707701 
L 250.927 340.637045 
" clip-path="url(#pa6a92a73f9)" style="fill: none; stroke: #000000; stroke-linecap: square"/>
   </g>
   <g id="line2d_7">
    <path d="M 279.005 340.637045 
L 279.005 383.780599 
" clip-path="url(#pa6a92a73f9)" style="fill: none; stroke: #000000; stroke-linecap: square"/>
   </g>
   <g id="line2d_8">
    <path d="M 279.005 256.707701 
L 279.005 161.622967 
" clip-path="url(#pa6a92a73f9)" style="fill: none; stroke: #000000; stroke-linecap: square"/>
   </g>
   <g id="line2d_9">
    <path d="M 264.966 383.780599 
L 293.044 383.780599 
" clip-path="url(#pa6a92a73f9)" style="fill: none; stroke: #000000; stroke-linecap: square"/>
   </g>
   <g id="line2d_10">
    <path d="M 264.966 161.622967 
L 293.044 161.622967 
" clip-path="url(#pa6a92a73f9)" style="fill: none; stroke: #000000; stroke-linecap: square"/>
   </g>
   <g id="line2d_11">
    <path d="M 110.537 286.725198 
L 166.693 286.725198 
" clip-path="url(#pa6a92a73f9)" style="fill: none; stroke: #000000"/>
   </g>
   <g id="line2d_12">
    <path d="M 250.927 315.827742 
L 307.083 315.827742 
" clip-path="url(#pa6a92a73f9)" style="fill: none; stroke: #000000"/>
   </g>
   <g id="matplotlib.axis_1">
    <g id="xtick_1">
     <g id="line2d_13">
      <defs>
       <path id="m9f501143c4" d="M 0 0 
L 0 3.5 
" style="stroke: #000000; stroke-width: 0.8"/>
      </defs>
      <g>
       <use xlink:href="#m9f501143c4" x="138.615" y="405.56" style="stroke: #000000; stroke-width: 0.8"/>
      </g>
     </g>
     <g id="text_1">
      <!-- 1 -->
      <g transform="translate(135.834531 419.717812) scale(0.1 -0.1)">
       <defs>
        <path id="ArialMT-31" d="M 2384 0 
L 1822 0 
L 1822 3584 
Q 1619 3391 1289 3197 
Q 959 3003 697 2906 
L 697 3450 
Q 1169 3672 1522 3987 
Q 1875 4303 2022 4600 
L 2384 4600 
L 2384 0 
z
" transform="scale(0.015625)"/>
       </defs>
       <use xlink:href="#ArialMT-31"/>
      </g>
     </g>
    </g>
    <g id="xtick_2">
     <g id="line2d_14">
      <g>
       <use xlink:href="#m9f501143c4" x="279.005" y="405.56" style="stroke: #000000; stroke-width: 0.8"/>
      </g>
     </g>
     <g id="text_2">
      <!-- 2 -->
      <g transform="translate(276.224531 419.717812) scale(0.1 -0.1)">
       <defs>
        <path id="ArialMT-32" d="M 3222 541 
L 3222 0 
L 194 0 
Q 188 203 259 391 
Q 375 700 629 1000 
Q 884 1300 1366 1694 
Q 2113 2306 2375 2664 
Q 2638 3022 2638 3341 
Q 2638 3675 2398 3904 
Q 2159 4134 1775 4134 
Q 1369 4134 1125 3890 
Q 881 3647 878 3216 
L 300 3275 
Q 359 3922 746 4261 
Q 1134 4600 1788 4600 
Q 2447 4600 2831 4234 
Q 3216 3869 3216 3328 
Q 3216 3053 3103 2787 
Q 2991 2522 2730 2228 
Q 2469 1934 1863 1422 
Q 1356 997 1212 845 
Q 1069 694 975 541 
L 3222 541 
z
" transform="scale(0.015625)"/>
       </defs>
       <use xlink:href="#ArialMT-32"/>
      </g>
     </g>
    </g>
   </g>
   <g id="matplotlib.axis_2">
    <g id="ytick_1">
     <g id="line2d_15">
      <defs>
       <path id="md5ae1ed85a" d="M 0 0 
L -3.5 0 
" style="stroke: #000000; stroke-width: 0.8"/>
      </defs>
      <g>
       <use xlink:href="#md5ae1ed85a" x="68.42" y="392.2967" style="stroke: #000000; stroke-width: 0.8"/>
      </g>
     </g>
     <g id="text_3">
      <!-- 0 -->
      <g transform="translate(55.859063 395.875606) scale(0.1 -0.1)">
       <defs>
        <path id="ArialMT-30" d="M 266 2259 
Q 266 3072 433 3567 
Q 600 4063 929 4331 
Q 1259 4600 1759 4600 
Q 2128 4600 2406 4451 
Q 2684 4303 2865 4023 
Q 3047 3744 3150 3342 
Q 3253 2941 3253 2259 
Q 3253 1453 3087 958 
Q 2922 463 2592 192 
Q 2263 -78 1759 -78 
Q 1097 -78 719 397 
Q 266 969 266 2259 
z
M 844 2259 
Q 844 1131 1108 757 
Q 1372 384 1759 384 
Q 2147 384 2411 759 
Q 2675 1134 2675 2259 
Q 2675 3391 2411 3762 
Q 2147 4134 1753 4134 
Q 1366 4134 1134 3806 
Q 844 3388 844 2259 
z
" transform="scale(0.015625)"/>
       </defs>
       <use xlink:href="#ArialMT-30"/>
      </g>
     </g>
    </g>
    <g id="ytick_2">
     <g id="line2d_16">
      <g>
       <use xlink:href="#md5ae1ed85a" x="68.42" y="321.915699" style="stroke: #000000; stroke-width: 0.8"/>
      </g>
     </g>
     <g id="text_4">
      <!-- 2000 -->
      <g transform="translate(39.17625 325.494605) scale(0.1 -0.1)">
       <use xlink:href="#ArialMT-32"/>
       <use xlink:href="#ArialMT-30" transform="translate(55.615234 0)"/>
       <use xlink:href="#ArialMT-30" transform="translate(111.230469 0)"/>
       <use xlink:href="#ArialMT-30" transform="translate(166.845703 0)"/>
      </g>
     </g>
    </g>
    <g id="ytick_3">
     <g id="line2d_17">
      <g>
       <use xlink:href="#md5ae1ed85a" x="68.42" y="251.534697" style="stroke: #000000; stroke-width: 0.8"/>
      </g>
     </g>
     <g id="text_5">
      <!-- 4000 -->
      <g transform="translate(39.17625 255.113603) scale(0.1 -0.1)">
       <defs>
        <path id="ArialMT-34" d="M 2069 0 
L 2069 1097 
L 81 1097 
L 81 1613 
L 2172 4581 
L 2631 4581 
L 2631 1613 
L 3250 1613 
L 3250 1097 
L 2631 1097 
L 2631 0 
L 2069 0 
z
M 2069 1613 
L 2069 3678 
L 634 1613 
L 2069 1613 
z
" transform="scale(0.015625)"/>
       </defs>
       <use xlink:href="#ArialMT-34"/>
       <use xlink:href="#ArialMT-30" transform="translate(55.615234 0)"/>
       <use xlink:href="#ArialMT-30" transform="translate(111.230469 0)"/>
       <use xlink:href="#ArialMT-30" transform="translate(166.845703 0)"/>
      </g>
     </g>
    </g>
    <g id="ytick_4">
     <g id="line2d_18">
      <g>
       <use xlink:href="#md5ae1ed85a" x="68.42" y="181.153695" style="stroke: #000000; stroke-width: 0.8"/>
      </g>
     </g>
     <g id="text_6">
      <!-- 6000 -->
      <g transform="translate(39.17625 184.732602) scale(0.1 -0.1)">
       <defs>
        <path id="ArialMT-36" d="M 3184 3459 
L 2625 3416 
Q 2550 3747 2413 3897 
Q 2184 4138 1850 4138 
Q 1581 4138 1378 3988 
Q 1113 3794 959 3422 
Q 806 3050 800 2363 
Q 1003 2672 1297 2822 
Q 1591 2972 1913 2972 
Q 2475 2972 2870 2558 
Q 3266 2144 3266 1488 
Q 3266 1056 3080 686 
Q 2894 316 2569 119 
Q 2244 -78 1831 -78 
Q 1128 -78 684 439 
Q 241 956 241 2144 
Q 241 3472 731 4075 
Q 1159 4600 1884 4600 
Q 2425 4600 2770 4297 
Q 3116 3994 3184 3459 
z
M 888 1484 
Q 888 1194 1011 928 
Q 1134 663 1356 523 
Q 1578 384 1822 384 
Q 2178 384 2434 671 
Q 2691 959 2691 1453 
Q 2691 1928 2437 2201 
Q 2184 2475 1800 2475 
Q 1419 2475 1153 2201 
Q 888 1928 888 1484 
z
" transform="scale(0.015625)"/>
       </defs>
       <use xlink:href="#ArialMT-36"/>
       <use xlink:href="#ArialMT-30" transform="translate(55.615234 0)"/>
       <use xlink:href="#ArialMT-30" transform="translate(111.230469 0)"/>
       <use xlink:href="#ArialMT-30" transform="translate(166.845703 0)"/>
      </g>
     </g>
    </g>
    <g id="ytick_5">
     <g id="line2d_19">
      <g>
       <use xlink:href="#md5ae1ed85a" x="68.42" y="110.772694" style="stroke: #000000; stroke-width: 0.8"/>
      </g>
     </g>
     <g id="text_7">
      <!-- 8000 -->
      <g transform="translate(39.17625 114.3516) scale(0.1 -0.1)">
       <defs>
        <path id="ArialMT-38" d="M 1131 2484 
Q 781 2613 612 2850 
Q 444 3088 444 3419 
Q 444 3919 803 4259 
Q 1163 4600 1759 4600 
Q 2359 4600 2725 4251 
Q 3091 3903 3091 3403 
Q 3091 3084 2923 2848 
Q 2756 2613 2416 2484 
Q 2838 2347 3058 2040 
Q 3278 1734 3278 1309 
Q 3278 722 2862 322 
Q 2447 -78 1769 -78 
Q 1091 -78 675 323 
Q 259 725 259 1325 
Q 259 1772 486 2073 
Q 713 2375 1131 2484 
z
M 1019 3438 
Q 1019 3113 1228 2906 
Q 1438 2700 1772 2700 
Q 2097 2700 2305 2904 
Q 2513 3109 2513 3406 
Q 2513 3716 2298 3927 
Q 2084 4138 1766 4138 
Q 1444 4138 1231 3931 
Q 1019 3725 1019 3438 
z
M 838 1322 
Q 838 1081 952 856 
Q 1066 631 1291 507 
Q 1516 384 1775 384 
Q 2178 384 2440 643 
Q 2703 903 2703 1303 
Q 2703 1709 2433 1975 
Q 2163 2241 1756 2241 
Q 1359 2241 1098 1978 
Q 838 1716 838 1322 
z
" transform="scale(0.015625)"/>
       </defs>
       <use xlink:href="#ArialMT-38"/>
       <use xlink:href="#ArialMT-30" transform="translate(55.615234 0)"/>
       <use xlink:href="#ArialMT-30" transform="translate(111.230469 0)"/>
       <use xlink:href="#ArialMT-30" transform="translate(166.845703 0)"/>
      </g>
     </g>
    </g>
    <g id="ytick_6">
     <g id="line2d_20">
      <g>
       <use xlink:href="#md5ae1ed85a" x="68.42" y="40.391692" style="stroke: #000000; stroke-width: 0.8"/>
      </g>
     </g>
     <g id="text_8">
      <!-- 10000 -->
      <g transform="translate(33.615313 43.970598) scale(0.1 -0.1)">
       <use xlink:href="#ArialMT-31"/>
       <use xlink:href="#ArialMT-30" transform="translate(55.615234 0)"/>
       <use xlink:href="#ArialMT-30" transform="translate(111.230469 0)"/>
       <use xlink:href="#ArialMT-30" transform="translate(166.845703 0)"/>
       <use xlink:href="#ArialMT-30" transform="translate(222.460938 0)"/>
      </g>
     </g>
    </g>
    <g id="text_9">
     <!-- Total interactions -->
     <g transform="translate(25.640313 283.209687) rotate(-90) scale(0.2 -0.2)">
      <defs>
       <path id="ArialMT-54" d="M 1659 0 
L 1659 4041 
L 150 4041 
L 150 4581 
L 3781 4581 
L 3781 4041 
L 2266 4041 
L 2266 0 
L 1659 0 
z
" transform="scale(0.015625)"/>
       <path id="ArialMT-6f" d="M 213 1659 
Q 213 2581 725 3025 
Q 1153 3394 1769 3394 
Q 2453 3394 2887 2945 
Q 3322 2497 3322 1706 
Q 3322 1066 3130 698 
Q 2938 331 2570 128 
Q 2203 -75 1769 -75 
Q 1072 -75 642 372 
Q 213 819 213 1659 
z
M 791 1659 
Q 791 1022 1069 705 
Q 1347 388 1769 388 
Q 2188 388 2466 706 
Q 2744 1025 2744 1678 
Q 2744 2294 2464 2611 
Q 2184 2928 1769 2928 
Q 1347 2928 1069 2612 
Q 791 2297 791 1659 
z
" transform="scale(0.015625)"/>
       <path id="ArialMT-74" d="M 1650 503 
L 1731 6 
Q 1494 -44 1306 -44 
Q 1000 -44 831 53 
Q 663 150 594 308 
Q 525 466 525 972 
L 525 2881 
L 113 2881 
L 113 3319 
L 525 3319 
L 525 4141 
L 1084 4478 
L 1084 3319 
L 1650 3319 
L 1650 2881 
L 1084 2881 
L 1084 941 
Q 1084 700 1114 631 
Q 1144 563 1211 522 
Q 1278 481 1403 481 
Q 1497 481 1650 503 
z
" transform="scale(0.015625)"/>
       <path id="ArialMT-61" d="M 2588 409 
Q 2275 144 1986 34 
Q 1697 -75 1366 -75 
Q 819 -75 525 192 
Q 231 459 231 875 
Q 231 1119 342 1320 
Q 453 1522 633 1644 
Q 813 1766 1038 1828 
Q 1203 1872 1538 1913 
Q 2219 1994 2541 2106 
Q 2544 2222 2544 2253 
Q 2544 2597 2384 2738 
Q 2169 2928 1744 2928 
Q 1347 2928 1158 2789 
Q 969 2650 878 2297 
L 328 2372 
Q 403 2725 575 2942 
Q 747 3159 1072 3276 
Q 1397 3394 1825 3394 
Q 2250 3394 2515 3294 
Q 2781 3194 2906 3042 
Q 3031 2891 3081 2659 
Q 3109 2516 3109 2141 
L 3109 1391 
Q 3109 606 3145 398 
Q 3181 191 3288 0 
L 2700 0 
Q 2613 175 2588 409 
z
M 2541 1666 
Q 2234 1541 1622 1453 
Q 1275 1403 1131 1340 
Q 988 1278 909 1158 
Q 831 1038 831 891 
Q 831 666 1001 516 
Q 1172 366 1500 366 
Q 1825 366 2078 508 
Q 2331 650 2450 897 
Q 2541 1088 2541 1459 
L 2541 1666 
z
" transform="scale(0.015625)"/>
       <path id="ArialMT-6c" d="M 409 0 
L 409 4581 
L 972 4581 
L 972 0 
L 409 0 
z
" transform="scale(0.015625)"/>
       <path id="ArialMT-20" transform="scale(0.015625)"/>
       <path id="ArialMT-69" d="M 425 3934 
L 425 4581 
L 988 4581 
L 988 3934 
L 425 3934 
z
M 425 0 
L 425 3319 
L 988 3319 
L 988 0 
L 425 0 
z
" transform="scale(0.015625)"/>
       <path id="ArialMT-6e" d="M 422 0 
L 422 3319 
L 928 3319 
L 928 2847 
Q 1294 3394 1984 3394 
Q 2284 3394 2536 3286 
Q 2788 3178 2913 3003 
Q 3038 2828 3088 2588 
Q 3119 2431 3119 2041 
L 3119 0 
L 2556 0 
L 2556 2019 
Q 2556 2363 2490 2533 
Q 2425 2703 2258 2804 
Q 2091 2906 1866 2906 
Q 1506 2906 1245 2678 
Q 984 2450 984 1813 
L 984 0 
L 422 0 
z
" transform="scale(0.015625)"/>
       <path id="ArialMT-65" d="M 2694 1069 
L 3275 997 
Q 3138 488 2766 206 
Q 2394 -75 1816 -75 
Q 1088 -75 661 373 
Q 234 822 234 1631 
Q 234 2469 665 2931 
Q 1097 3394 1784 3394 
Q 2450 3394 2872 2941 
Q 3294 2488 3294 1666 
Q 3294 1616 3291 1516 
L 816 1516 
Q 847 969 1125 678 
Q 1403 388 1819 388 
Q 2128 388 2347 550 
Q 2566 713 2694 1069 
z
M 847 1978 
L 2700 1978 
Q 2663 2397 2488 2606 
Q 2219 2931 1791 2931 
Q 1403 2931 1139 2672 
Q 875 2413 847 1978 
z
" transform="scale(0.015625)"/>
       <path id="ArialMT-72" d="M 416 0 
L 416 3319 
L 922 3319 
L 922 2816 
Q 1116 3169 1280 3281 
Q 1444 3394 1641 3394 
Q 1925 3394 2219 3213 
L 2025 2691 
Q 1819 2813 1613 2813 
Q 1428 2813 1281 2702 
Q 1134 2591 1072 2394 
Q 978 2094 978 1738 
L 978 0 
L 416 0 
z
" transform="scale(0.015625)"/>
       <path id="ArialMT-63" d="M 2588 1216 
L 3141 1144 
Q 3050 572 2676 248 
Q 2303 -75 1759 -75 
Q 1078 -75 664 370 
Q 250 816 250 1647 
Q 250 2184 428 2587 
Q 606 2991 970 3192 
Q 1334 3394 1763 3394 
Q 2303 3394 2647 3120 
Q 2991 2847 3088 2344 
L 2541 2259 
Q 2463 2594 2264 2762 
Q 2066 2931 1784 2931 
Q 1359 2931 1093 2626 
Q 828 2322 828 1663 
Q 828 994 1084 691 
Q 1341 388 1753 388 
Q 2084 388 2306 591 
Q 2528 794 2588 1216 
z
" transform="scale(0.015625)"/>
       <path id="ArialMT-73" d="M 197 991 
L 753 1078 
Q 800 744 1014 566 
Q 1228 388 1613 388 
Q 2000 388 2187 545 
Q 2375 703 2375 916 
Q 2375 1106 2209 1216 
Q 2094 1291 1634 1406 
Q 1016 1563 777 1677 
Q 538 1791 414 1992 
Q 291 2194 291 2438 
Q 291 2659 392 2848 
Q 494 3038 669 3163 
Q 800 3259 1026 3326 
Q 1253 3394 1513 3394 
Q 1903 3394 2198 3281 
Q 2494 3169 2634 2976 
Q 2775 2784 2828 2463 
L 2278 2388 
Q 2241 2644 2061 2787 
Q 1881 2931 1553 2931 
Q 1166 2931 1000 2803 
Q 834 2675 834 2503 
Q 834 2394 903 2306 
Q 972 2216 1119 2156 
Q 1203 2125 1616 2013 
Q 2213 1853 2448 1751 
Q 2684 1650 2818 1456 
Q 2953 1263 2953 975 
Q 2953 694 2789 445 
Q 2625 197 2315 61 
Q 2006 -75 1616 -75 
Q 969 -75 630 194 
Q 291 463 197 991 
z
" transform="scale(0.015625)"/>
      </defs>
      <use xlink:href="#ArialMT-54"/>
      <use xlink:href="#ArialMT-6f" transform="translate(49.958984 0)"/>
      <use xlink:href="#ArialMT-74" transform="translate(105.574219 0)"/>
      <use xlink:href="#ArialMT-61" transform="translate(133.357422 0)"/>
      <use xlink:href="#ArialMT-6c" transform="translate(188.972656 0)"/>
      <use xlink:href="#ArialMT-20" transform="translate(211.189453 0)"/>
      <use xlink:href="#ArialMT-69" transform="translate(238.972656 0)"/>
      <use xlink:href="#ArialMT-6e" transform="translate(261.189453 0)"/>
      <use xlink:href="#ArialMT-74" transform="translate(316.804688 0)"/>
      <use xlink:href="#ArialMT-65" transform="translate(344.587891 0)"/>
      <use xlink:href="#ArialMT-72" transform="translate(400.203125 0)"/>
      <use xlink:href="#ArialMT-61" transform="translate(433.503906 0)"/>
      <use xlink:href="#ArialMT-63" transform="translate(489.119141 0)"/>
      <use xlink:href="#ArialMT-74" transform="translate(539.119141 0)"/>
      <use xlink:href="#ArialMT-69" transform="translate(566.902344 0)"/>
      <use xlink:href="#ArialMT-6f" transform="translate(589.119141 0)"/>
      <use xlink:href="#ArialMT-6e" transform="translate(644.734375 0)"/>
      <use xlink:href="#ArialMT-73" transform="translate(700.349609 0)"/>
     </g>
    </g>
   </g>
   <g id="line2d_21">
    <path d="M 138.615 39.629994 
L 138.615 32.701758 
L 279.005 32.701758 
L 279.005 39.629994 
" clip-path="url(#pa6a92a73f9)" style="fill: none; stroke: #000000; stroke-linecap: square"/>
   </g>
   <g id="PathCollection_1">
    <defs>
     <path id="ma10ed58c0f" d="M 0 3.162278 
C 0.838646 3.162278 1.643056 2.82908 2.236068 2.236068 
C 2.82908 1.643056 3.162278 0.838646 3.162278 0 
C 3.162278 -0.838646 2.82908 -1.643056 2.236068 -2.236068 
C 1.643056 -2.82908 0.838646 -3.162278 0 -3.162278 
C -0.838646 -3.162278 -1.643056 -2.82908 -2.236068 -2.236068 
C -2.82908 -1.643056 -3.162278 -0.838646 -3.162278 0 
C -3.162278 0.838646 -2.82908 1.643056 -2.236068 2.236068 
C -1.643056 2.82908 -0.838646 3.162278 0 3.162278 
z
" style="stroke: #a9a9a9"/>
    </defs>
    <g clip-path="url(#pa6a92a73f9)">
     <use xlink:href="#ma10ed58c0f" x="143.423719" y="311.49931" style="fill: #a9a9a9; stroke: #a9a9a9"/>
     <use xlink:href="#ma10ed58c0f" x="141.200435" y="284.367434" style="fill: #a9a9a9; stroke: #a9a9a9"/>
     <use xlink:href="#ma10ed58c0f" x="137.031788" y="285.317578" style="fill: #a9a9a9; stroke: #a9a9a9"/>
     <use xlink:href="#ma10ed58c0f" x="133.445755" y="337.012423" style="fill: #a9a9a9; stroke: #a9a9a9"/>
     <use xlink:href="#ma10ed58c0f" x="140.006245" y="298.936302" style="fill: #a9a9a9; stroke: #a9a9a9"/>
     <use xlink:href="#ma10ed58c0f" x="138.068737" y="307.24126" style="fill: #a9a9a9; stroke: #a9a9a9"/>
     <use xlink:href="#ma10ed58c0f" x="140.188182" y="302.31459" style="fill: #a9a9a9; stroke: #a9a9a9"/>
     <use xlink:href="#ma10ed58c0f" x="141.09061" y="359.604725" style="fill: #a9a9a9; stroke: #a9a9a9"/>
     <use xlink:href="#ma10ed58c0f" x="135.696798" y="286.514055" style="fill: #a9a9a9; stroke: #a9a9a9"/>
     <use xlink:href="#ma10ed58c0f" x="126.235404" y="371.710257" style="fill: #a9a9a9; stroke: #a9a9a9"/>
     <use xlink:href="#ma10ed58c0f" x="143.731234" y="286.725198" style="fill: #a9a9a9; stroke: #a9a9a9"/>
     <use xlink:href="#ma10ed58c0f" x="140.342921" y="324.167891" style="fill: #a9a9a9; stroke: #a9a9a9"/>
     <use xlink:href="#ma10ed58c0f" x="134.378903" y="353.939054" style="fill: #a9a9a9; stroke: #a9a9a9"/>
     <use xlink:href="#ma10ed58c0f" x="138.508563" y="121.118701" style="fill: #a9a9a9; stroke: #a9a9a9"/>
     <use xlink:href="#ma10ed58c0f" x="139.51006" y="211.69905" style="fill: #a9a9a9; stroke: #a9a9a9"/>
     <use xlink:href="#ma10ed58c0f" x="140.153226" y="318.572601" style="fill: #a9a9a9; stroke: #a9a9a9"/>
     <use xlink:href="#ma10ed58c0f" x="133.123397" y="361.751346" style="fill: #a9a9a9; stroke: #a9a9a9"/>
     <use xlink:href="#ma10ed58c0f" x="152.446786" y="270.431996" style="fill: #a9a9a9; stroke: #a9a9a9"/>
     <use xlink:href="#ma10ed58c0f" x="147.630193" y="366.079777" style="fill: #a9a9a9; stroke: #a9a9a9"/>
     <use xlink:href="#ma10ed58c0f" x="130.751716" y="315.123932" style="fill: #a9a9a9; stroke: #a9a9a9"/>
     <use xlink:href="#ma10ed58c0f" x="143.694835" y="311.604882" style="fill: #a9a9a9; stroke: #a9a9a9"/>
     <use xlink:href="#ma10ed58c0f" x="137.928263" y="320.965555" style="fill: #a9a9a9; stroke: #a9a9a9"/>
     <use xlink:href="#ma10ed58c0f" x="130.994587" y="286.725198" style="fill: #a9a9a9; stroke: #a9a9a9"/>
     <use xlink:href="#ma10ed58c0f" x="145.949852" y="149.939721" style="fill: #a9a9a9; stroke: #a9a9a9"/>
     <use xlink:href="#ma10ed58c0f" x="137.493831" y="252.484841" style="fill: #a9a9a9; stroke: #a9a9a9"/>
     <use xlink:href="#ma10ed58c0f" x="133.003064" y="229.96292" style="fill: #a9a9a9; stroke: #a9a9a9"/>
     <use xlink:href="#ma10ed58c0f" x="137.156643" y="343.346714" style="fill: #a9a9a9; stroke: #a9a9a9"/>
     <use xlink:href="#ma10ed58c0f" x="149.528663" y="321.810127" style="fill: #a9a9a9; stroke: #a9a9a9"/>
     <use xlink:href="#ma10ed58c0f" x="144.571019" y="312.414263" style="fill: #a9a9a9; stroke: #a9a9a9"/>
     <use xlink:href="#ma10ed58c0f" x="139.699792" y="383.639837" style="fill: #a9a9a9; stroke: #a9a9a9"/>
     <use xlink:href="#ma10ed58c0f" x="135.221042" y="387.123697" style="fill: #a9a9a9; stroke: #a9a9a9"/>
     <use xlink:href="#ma10ed58c0f" x="131.381282" y="333.810088" style="fill: #a9a9a9; stroke: #a9a9a9"/>
     <use xlink:href="#ma10ed58c0f" x="142.526206" y="387.616364" style="fill: #a9a9a9; stroke: #a9a9a9"/>
     <use xlink:href="#ma10ed58c0f" x="136.962542" y="360.202964" style="fill: #a9a9a9; stroke: #a9a9a9"/>
     <use xlink:href="#ma10ed58c0f" x="131.460049" y="367.381826" style="fill: #a9a9a9; stroke: #a9a9a9"/>
     <use xlink:href="#ma10ed58c0f" x="143.824108" y="273.071283" style="fill: #a9a9a9; stroke: #a9a9a9"/>
     <use xlink:href="#ma10ed58c0f" x="139.316172" y="335.604803" style="fill: #a9a9a9; stroke: #a9a9a9"/>
     <use xlink:href="#ma10ed58c0f" x="142.855921" y="321.000746" style="fill: #a9a9a9; stroke: #a9a9a9"/>
     <use xlink:href="#ma10ed58c0f" x="136.158991" y="280.883575" style="fill: #a9a9a9; stroke: #a9a9a9"/>
     <use xlink:href="#ma10ed58c0f" x="128.039346" y="287.851294" style="fill: #a9a9a9; stroke: #a9a9a9"/>
     <use xlink:href="#ma10ed58c0f" x="140.99547" y="217.048006" style="fill: #a9a9a9; stroke: #a9a9a9"/>
     <use xlink:href="#ma10ed58c0f" x="138.265447" y="247.487789" style="fill: #a9a9a9; stroke: #a9a9a9"/>
     <use xlink:href="#ma10ed58c0f" x="133.619111" y="362.490346" style="fill: #a9a9a9; stroke: #a9a9a9"/>
     <use xlink:href="#ma10ed58c0f" x="130.884108" y="110.843075" style="fill: #a9a9a9; stroke: #a9a9a9"/>
     <use xlink:href="#ma10ed58c0f" x="137.797397" y="98.420828" style="fill: #a9a9a9; stroke: #a9a9a9"/>
     <use xlink:href="#ma10ed58c0f" x="128.163747" y="150.256436" style="fill: #a9a9a9; stroke: #a9a9a9"/>
     <use xlink:href="#ma10ed58c0f" x="134.348057" y="265.329373" style="fill: #a9a9a9; stroke: #a9a9a9"/>
     <use xlink:href="#ma10ed58c0f" x="146.765855" y="289.470057" style="fill: #a9a9a9; stroke: #a9a9a9"/>
     <use xlink:href="#ma10ed58c0f" x="137.004647" y="301.329256" style="fill: #a9a9a9; stroke: #a9a9a9"/>
     <use xlink:href="#ma10ed58c0f" x="132.735737" y="258.150511" style="fill: #a9a9a9; stroke: #a9a9a9"/>
     <use xlink:href="#ma10ed58c0f" x="132.883854" y="280.989146" style="fill: #a9a9a9; stroke: #a9a9a9"/>
     <use xlink:href="#ma10ed58c0f" x="125.599394" y="327.088702" style="fill: #a9a9a9; stroke: #a9a9a9"/>
     <use xlink:href="#ma10ed58c0f" x="136.626566" y="276.132857" style="fill: #a9a9a9; stroke: #a9a9a9"/>
     <use xlink:href="#ma10ed58c0f" x="133.593909" y="307.206069" style="fill: #a9a9a9; stroke: #a9a9a9"/>
     <use xlink:href="#ma10ed58c0f" x="131.810515" y="306.994926" style="fill: #a9a9a9; stroke: #a9a9a9"/>
     <use xlink:href="#ma10ed58c0f" x="138.936778" y="142.16262" style="fill: #a9a9a9; stroke: #a9a9a9"/>
     <use xlink:href="#ma10ed58c0f" x="138.675469" y="270.185662" style="fill: #a9a9a9; stroke: #a9a9a9"/>
     <use xlink:href="#ma10ed58c0f" x="120.360852" y="318.009553" style="fill: #a9a9a9; stroke: #a9a9a9"/>
     <use xlink:href="#ma10ed58c0f" x="128.314476" y="378.994691" style="fill: #a9a9a9; stroke: #a9a9a9"/>
     <use xlink:href="#ma10ed58c0f" x="141.145646" y="377.692642" style="fill: #a9a9a9; stroke: #a9a9a9"/>
     <use xlink:href="#ma10ed58c0f" x="144.707307" y="378.572405" style="fill: #a9a9a9; stroke: #a9a9a9"/>
     <use xlink:href="#ma10ed58c0f" x="144.434279" y="377.164785" style="fill: #a9a9a9; stroke: #a9a9a9"/>
     <use xlink:href="#ma10ed58c0f" x="137.36612" y="373.962449" style="fill: #a9a9a9; stroke: #a9a9a9"/>
     <use xlink:href="#ma10ed58c0f" x="141.731577" y="379.768882" style="fill: #a9a9a9; stroke: #a9a9a9"/>
     <use xlink:href="#ma10ed58c0f" x="136.647616" y="370.548971" style="fill: #a9a9a9; stroke: #a9a9a9"/>
     <use xlink:href="#ma10ed58c0f" x="139.872827" y="369.000589" style="fill: #a9a9a9; stroke: #a9a9a9"/>
     <use xlink:href="#ma10ed58c0f" x="161.828254" y="382.795265" style="fill: #a9a9a9; stroke: #a9a9a9"/>
     <use xlink:href="#ma10ed58c0f" x="137.346081" y="379.522548" style="fill: #a9a9a9; stroke: #a9a9a9"/>
     <use xlink:href="#ma10ed58c0f" x="154.32727" y="370.830495" style="fill: #a9a9a9; stroke: #a9a9a9"/>
     <use xlink:href="#ma10ed58c0f" x="136.921464" y="377.763023" style="fill: #a9a9a9; stroke: #a9a9a9"/>
     <use xlink:href="#ma10ed58c0f" x="132.690315" y="365.516729" style="fill: #a9a9a9; stroke: #a9a9a9"/>
     <use xlink:href="#ma10ed58c0f" x="139.180142" y="265.716469" style="fill: #a9a9a9; stroke: #a9a9a9"/>
     <use xlink:href="#ma10ed58c0f" x="136.341079" y="285.176816" style="fill: #a9a9a9; stroke: #a9a9a9"/>
     <use xlink:href="#ma10ed58c0f" x="145.619528" y="307.24126" style="fill: #a9a9a9; stroke: #a9a9a9"/>
     <use xlink:href="#ma10ed58c0f" x="137.152871" y="259.593322" style="fill: #a9a9a9; stroke: #a9a9a9"/>
     <use xlink:href="#ma10ed58c0f" x="122.793014" y="323.006604" style="fill: #a9a9a9; stroke: #a9a9a9"/>
     <use xlink:href="#ma10ed58c0f" x="139.624887" y="308.68407" style="fill: #a9a9a9; stroke: #a9a9a9"/>
     <use xlink:href="#ma10ed58c0f" x="137.075328" y="288.519913" style="fill: #a9a9a9; stroke: #a9a9a9"/>
     <use xlink:href="#ma10ed58c0f" x="132.956767" y="285.247197" style="fill: #a9a9a9; stroke: #a9a9a9"/>
     <use xlink:href="#ma10ed58c0f" x="142.541799" y="325.575511" style="fill: #a9a9a9; stroke: #a9a9a9"/>
     <use xlink:href="#ma10ed58c0f" x="134.912251" y="316.601933" style="fill: #a9a9a9; stroke: #a9a9a9"/>
     <use xlink:href="#ma10ed58c0f" x="131.958822" y="230.350016" style="fill: #a9a9a9; stroke: #a9a9a9"/>
     <use xlink:href="#ma10ed58c0f" x="143.122194" y="240.660832" style="fill: #a9a9a9; stroke: #a9a9a9"/>
     <use xlink:href="#ma10ed58c0f" x="134.397764" y="172.989499" style="fill: #a9a9a9; stroke: #a9a9a9"/>
     <use xlink:href="#ma10ed58c0f" x="145.413232" y="193.751895" style="fill: #a9a9a9; stroke: #a9a9a9"/>
     <use xlink:href="#ma10ed58c0f" x="146.703172" y="240.836785" style="fill: #a9a9a9; stroke: #a9a9a9"/>
     <use xlink:href="#ma10ed58c0f" x="127.404019" y="31.558876" style="fill: #a9a9a9; stroke: #a9a9a9"/>
     <use xlink:href="#ma10ed58c0f" x="146.053073" y="34.057402" style="fill: #a9a9a9; stroke: #a9a9a9"/>
     <use xlink:href="#ma10ed58c0f" x="134.311247" y="117.916365" style="fill: #a9a9a9; stroke: #a9a9a9"/>
     <use xlink:href="#ma10ed58c0f" x="141.576887" y="274.23257" style="fill: #a9a9a9; stroke: #a9a9a9"/>
     <use xlink:href="#ma10ed58c0f" x="142.772866" y="246.572836" style="fill: #a9a9a9; stroke: #a9a9a9"/>
     <use xlink:href="#ma10ed58c0f" x="141.784398" y="182.948411" style="fill: #a9a9a9; stroke: #a9a9a9"/>
     <use xlink:href="#ma10ed58c0f" x="142.198309" y="191.147798" style="fill: #a9a9a9; stroke: #a9a9a9"/>
     <use xlink:href="#ma10ed58c0f" x="141.916101" y="335.956708" style="fill: #a9a9a9; stroke: #a9a9a9"/>
     <use xlink:href="#ma10ed58c0f" x="162.84943" y="235.523019" style="fill: #a9a9a9; stroke: #a9a9a9"/>
     <use xlink:href="#ma10ed58c0f" x="138.143606" y="206.244522" style="fill: #a9a9a9; stroke: #a9a9a9"/>
     <use xlink:href="#ma10ed58c0f" x="138.21415" y="225.74006" style="fill: #a9a9a9; stroke: #a9a9a9"/>
     <use xlink:href="#ma10ed58c0f" x="141.945765" y="98.878304" style="fill: #a9a9a9; stroke: #a9a9a9"/>
     <use xlink:href="#ma10ed58c0f" x="139.004687" y="76.286003" style="fill: #a9a9a9; stroke: #a9a9a9"/>
     <use xlink:href="#ma10ed58c0f" x="135.416418" y="168.696258" style="fill: #a9a9a9; stroke: #a9a9a9"/>
     <use xlink:href="#ma10ed58c0f" x="124.950091" y="176.473359" style="fill: #a9a9a9; stroke: #a9a9a9"/>
     <use xlink:href="#ma10ed58c0f" x="141.273156" y="222.326581" style="fill: #a9a9a9; stroke: #a9a9a9"/>
     <use xlink:href="#ma10ed58c0f" x="141.819414" y="256.602129" style="fill: #a9a9a9; stroke: #a9a9a9"/>
     <use xlink:href="#ma10ed58c0f" x="124.269778" y="235.135924" style="fill: #a9a9a9; stroke: #a9a9a9"/>
     <use xlink:href="#ma10ed58c0f" x="129.933226" y="72.696572" style="fill: #a9a9a9; stroke: #a9a9a9"/>
     <use xlink:href="#ma10ed58c0f" x="137.112855" y="28.743636" style="fill: #a9a9a9; stroke: #a9a9a9"/>
     <use xlink:href="#ma10ed58c0f" x="140.529224" y="82.37396" style="fill: #a9a9a9; stroke: #a9a9a9"/>
     <use xlink:href="#ma10ed58c0f" x="146.440423" y="171.757832" style="fill: #a9a9a9; stroke: #a9a9a9"/>
     <use xlink:href="#ma10ed58c0f" x="138.927826" y="132.414852" style="fill: #a9a9a9; stroke: #a9a9a9"/>
    </g>
   </g>
   <g id="PathCollection_2">
    <defs>
     <path id="mf9547ef5f7" d="M 0 3.162278 
C 0.838646 3.162278 1.643056 2.82908 2.236068 2.236068 
C 2.82908 1.643056 3.162278 0.838646 3.162278 0 
C 3.162278 -0.838646 2.82908 -1.643056 2.236068 -2.236068 
C 1.643056 -2.82908 0.838646 -3.162278 0 -3.162278 
C -0.838646 -3.162278 -1.643056 -2.82908 -2.236068 -2.236068 
C -2.82908 -1.643056 -3.162278 -0.838646 -3.162278 0 
C -3.162278 0.838646 -2.82908 1.643056 -2.236068 2.236068 
C -1.643056 2.82908 -0.838646 3.162278 0 3.162278 
z
" style="stroke: #b22222"/>
    </defs>
    <g clip-path="url(#pa6a92a73f9)">
     <use xlink:href="#mf9547ef5f7" x="266.625806" y="340.637045" style="fill: #b22222; stroke: #b22222"/>
     <use xlink:href="#mf9547ef5f7" x="283.90698" y="240.660832" style="fill: #b22222; stroke: #b22222"/>
     <use xlink:href="#mf9547ef5f7" x="277.548195" y="318.607792" style="fill: #b22222; stroke: #b22222"/>
     <use xlink:href="#mf9547ef5f7" x="278.713506" y="353.094482" style="fill: #b22222; stroke: #b22222"/>
     <use xlink:href="#mf9547ef5f7" x="282.601087" y="283.593243" style="fill: #b22222; stroke: #b22222"/>
     <use xlink:href="#mf9547ef5f7" x="283.845391" y="330.924467" style="fill: #b22222; stroke: #b22222"/>
     <use xlink:href="#mf9547ef5f7" x="282.386145" y="338.560806" style="fill: #b22222; stroke: #b22222"/>
     <use xlink:href="#mf9547ef5f7" x="280.891797" y="352.285101" style="fill: #b22222; stroke: #b22222"/>
     <use xlink:href="#mf9547ef5f7" x="281.245731" y="161.622967" style="fill: #b22222; stroke: #b22222"/>
     <use xlink:href="#mf9547ef5f7" x="269.509214" y="339.898045" style="fill: #b22222; stroke: #b22222"/>
     <use xlink:href="#mf9547ef5f7" x="283.976207" y="356.683913" style="fill: #b22222; stroke: #b22222"/>
     <use xlink:href="#mf9547ef5f7" x="285.355494" y="289.118152" style="fill: #b22222; stroke: #b22222"/>
     <use xlink:href="#mf9547ef5f7" x="273.620431" y="285.669483" style="fill: #b22222; stroke: #b22222"/>
     <use xlink:href="#mf9547ef5f7" x="278.373732" y="276.132857" style="fill: #b22222; stroke: #b22222"/>
     <use xlink:href="#mf9547ef5f7" x="272.656156" y="94.092396" style="fill: #b22222; stroke: #b22222"/>
     <use xlink:href="#mf9547ef5f7" x="280.059489" y="320.437698" style="fill: #b22222; stroke: #b22222"/>
     <use xlink:href="#mf9547ef5f7" x="275.605686" y="329.481656" style="fill: #b22222; stroke: #b22222"/>
     <use xlink:href="#mf9547ef5f7" x="284.091102" y="326.314511" style="fill: #b22222; stroke: #b22222"/>
     <use xlink:href="#mf9547ef5f7" x="278.313296" y="286.302912" style="fill: #b22222; stroke: #b22222"/>
     <use xlink:href="#mf9547ef5f7" x="273.522668" y="331.100419" style="fill: #b22222; stroke: #b22222"/>
     <use xlink:href="#mf9547ef5f7" x="280.748493" y="268.918804" style="fill: #b22222; stroke: #b22222"/>
     <use xlink:href="#mf9547ef5f7" x="271.274532" y="231.687255" style="fill: #b22222; stroke: #b22222"/>
     <use xlink:href="#mf9547ef5f7" x="275.824195" y="163.769588" style="fill: #b22222; stroke: #b22222"/>
     <use xlink:href="#mf9547ef5f7" x="270.457919" y="230.807492" style="fill: #b22222; stroke: #b22222"/>
     <use xlink:href="#mf9547ef5f7" x="277.45368" y="91.55868" style="fill: #b22222; stroke: #b22222"/>
     <use xlink:href="#mf9547ef5f7" x="274.516398" y="256.707701" style="fill: #b22222; stroke: #b22222"/>
     <use xlink:href="#mf9547ef5f7" x="279.660613" y="383.780599" style="fill: #b22222; stroke: #b22222"/>
     <use xlink:href="#mf9547ef5f7" x="270.913096" y="374.807021" style="fill: #b22222; stroke: #b22222"/>
     <use xlink:href="#mf9547ef5f7" x="265.530164" y="381.07093" style="fill: #b22222; stroke: #b22222"/>
     <use xlink:href="#mf9547ef5f7" x="273.969242" y="378.783548" style="fill: #b22222; stroke: #b22222"/>
     <use xlink:href="#mf9547ef5f7" x="275.366579" y="380.085596" style="fill: #b22222; stroke: #b22222"/>
     <use xlink:href="#mf9547ef5f7" x="284.973329" y="370.232256" style="fill: #b22222; stroke: #b22222"/>
     <use xlink:href="#mf9547ef5f7" x="279.154228" y="369.458065" style="fill: #b22222; stroke: #b22222"/>
     <use xlink:href="#mf9547ef5f7" x="271.906944" y="315.827742" style="fill: #b22222; stroke: #b22222"/>
     <use xlink:href="#mf9547ef5f7" x="281.993983" y="82.37396" style="fill: #b22222; stroke: #b22222"/>
     <use xlink:href="#mf9547ef5f7" x="279.292786" y="223.206344" style="fill: #b22222; stroke: #b22222"/>
     <use xlink:href="#mf9547ef5f7" x="278.300597" y="267.93347" style="fill: #b22222; stroke: #b22222"/>
     <use xlink:href="#mf9547ef5f7" x="284.42662" y="334.584279" style="fill: #b22222; stroke: #b22222"/>
     <use xlink:href="#mf9547ef5f7" x="278.564738" y="296.297014" style="fill: #b22222; stroke: #b22222"/>
     <use xlink:href="#mf9547ef5f7" x="279.660887" y="306.713402" style="fill: #b22222; stroke: #b22222"/>
     <use xlink:href="#mf9547ef5f7" x="263.863134" y="222.22101" style="fill: #b22222; stroke: #b22222"/>
    </g>
   </g>
   <g id="patch_3">
    <path d="M 68.42 405.56 
L 68.42 10.8 
" style="fill: none; stroke: #000000; stroke-width: 0.8; stroke-linejoin: miter; stroke-linecap: square"/>
   </g>
   <g id="patch_4">
    <path d="M 349.2 405.56 
L 349.2 10.8 
" style="fill: none; stroke: #000000; stroke-width: 0.8; stroke-linejoin: miter; stroke-linecap: square"/>
   </g>
   <g id="patch_5">
    <path d="M 68.42 405.56 
L 349.2 405.56 
" style="fill: none; stroke: #000000; stroke-width: 0.8; stroke-linejoin: miter; stroke-linecap: square"/>
   </g>
   <g id="patch_6">
    <path d="M 68.42 10.8 
L 349.2 10.8 
" style="fill: none; stroke: #000000; stroke-width: 0.8; stroke-linejoin: miter; stroke-linecap: square"/>
   </g>
   <g id="text_10">
    <!-- p = 0.262 -->
    <g transform="translate(187.820156 27.250141) scale(0.1 -0.1)">
     <defs>
      <path id="ArialMT-70" d="M 422 -1272 
L 422 3319 
L 934 3319 
L 934 2888 
Q 1116 3141 1344 3267 
Q 1572 3394 1897 3394 
Q 2322 3394 2647 3175 
Q 2972 2956 3137 2557 
Q 3303 2159 3303 1684 
Q 3303 1175 3120 767 
Q 2938 359 2589 142 
Q 2241 -75 1856 -75 
Q 1575 -75 1351 44 
Q 1128 163 984 344 
L 984 -1272 
L 422 -1272 
z
M 931 1641 
Q 931 1000 1190 694 
Q 1450 388 1819 388 
Q 2194 388 2461 705 
Q 2728 1022 2728 1688 
Q 2728 2322 2467 2637 
Q 2206 2953 1844 2953 
Q 1484 2953 1207 2617 
Q 931 2281 931 1641 
z
" transform="scale(0.015625)"/>
      <path id="ArialMT-3d" d="M 3381 2694 
L 356 2694 
L 356 3219 
L 3381 3219 
L 3381 2694 
z
M 3381 1303 
L 356 1303 
L 356 1828 
L 3381 1828 
L 3381 1303 
z
" transform="scale(0.015625)"/>
      <path id="ArialMT-2e" d="M 581 0 
L 581 641 
L 1222 641 
L 1222 0 
L 581 0 
z
" transform="scale(0.015625)"/>
     </defs>
     <use xlink:href="#ArialMT-70"/>
     <use xlink:href="#ArialMT-20" transform="translate(55.615234 0)"/>
     <use xlink:href="#ArialMT-3d" transform="translate(83.398438 0)"/>
     <use xlink:href="#ArialMT-20" transform="translate(141.796875 0)"/>
     <use xlink:href="#ArialMT-30" transform="translate(169.580078 0)"/>
     <use xlink:href="#ArialMT-2e" transform="translate(225.195312 0)"/>
     <use xlink:href="#ArialMT-32" transform="translate(252.978516 0)"/>
     <use xlink:href="#ArialMT-36" transform="translate(308.59375 0)"/>
     <use xlink:href="#ArialMT-32" transform="translate(364.208984 0)"/>
    </g>
   </g>
  </g>
 </g>
 <defs>
  <clipPath id="pa6a92a73f9">
   <rect x="68.42" y="10.8" width="280.78" height="394.76"/>
  </clipPath>
 </defs>
</svg>
