<?xml version="1.0" encoding="utf-8" standalone="no"?>
<!DOCTYPE svg PUBLIC "-//W3C//DTD SVG 1.1//EN"
  "http://www.w3.org/Graphics/SVG/1.1/DTD/svg11.dtd">
<svg xmlns:xlink="http://www.w3.org/1999/xlink" width="360pt" height="432pt" viewBox="0 0 360 432" xmlns="http://www.w3.org/2000/svg" version="1.1">
 <metadata>
  <rdf:RDF xmlns:dc="http://purl.org/dc/elements/1.1/" xmlns:cc="http://creativecommons.org/ns#" xmlns:rdf="http://www.w3.org/1999/02/22-rdf-syntax-ns#">
   <cc:Work>
    <dc:type rdf:resource="http://purl.org/dc/dcmitype/StillImage"/>
    <dc:date>2025-08-07T16:10:57.614565</dc:date>
    <dc:format>image/svg+xml</dc:format>
    <dc:creator>
     <cc:Agent>
      <dc:title>Matplotlib v3.10.0, https://matplotlib.org/</dc:title>
     </cc:Agent>
    </dc:creator>
   </cc:Work>
  </rdf:RDF>
 </metadata>
 <defs>
  <style type="text/css">*{stroke-linejoin: round; stroke-linecap: butt}</style>
 </defs>
 <g id="figure_1">
  <g id="patch_1">
   <path d="M 0 432 
L 360 432 
L 360 0 
L 0 0 
z
" style="fill: #ffffff"/>
  </g>
  <g id="axes_1">
   <g id="patch_2">
    <path d="M 45 384.48 
L 324 384.48 
L 324 51.84 
L 45 51.84 
z
" style="fill: #ffffff"/>
   </g>
   <g id="line2d_1">
    <path d="M 86.85 272.22936 
L 142.65 272.22936 
L 142.65 214.687614 
L 86.85 214.687614 
L 86.85 272.22936 
" clip-path="url(#pc12b7947ca)" style="fill: none; stroke: #000000; stroke-linecap: square"/>
   </g>
   <g id="line2d_2">
    <path d="M 114.75 272.22936 
L 114.75 316.126878 
" clip-path="url(#pc12b7947ca)" style="fill: none; stroke: #000000; stroke-linecap: square"/>
   </g>
   <g id="line2d_3">
    <path d="M 114.75 214.687614 
L 114.75 146.847181 
" clip-path="url(#pc12b7947ca)" style="fill: none; stroke: #000000; stroke-linecap: square"/>
   </g>
   <g id="line2d_4">
    <path d="M 100.8 316.126878 
L 128.7 316.126878 
" clip-path="url(#pc12b7947ca)" style="fill: none; stroke: #000000; stroke-linecap: square"/>
   </g>
   <g id="line2d_5">
    <path d="M 100.8 146.847181 
L 128.7 146.847181 
" clip-path="url(#pc12b7947ca)" style="fill: none; stroke: #000000; stroke-linecap: square"/>
   </g>
   <g id="line2d_6">
    <path d="M 226.35 272.005689 
L 282.15 272.005689 
L 282.15 208.155087 
L 226.35 208.155087 
L 226.35 272.005689 
" clip-path="url(#pc12b7947ca)" style="fill: none; stroke: #000000; stroke-linecap: square"/>
   </g>
   <g id="line2d_7">
    <path d="M 254.25 272.005689 
L 254.25 308.547036 
" clip-path="url(#pc12b7947ca)" style="fill: none; stroke: #000000; stroke-linecap: square"/>
   </g>
   <g id="line2d_8">
    <path d="M 254.25 208.155087 
L 254.25 118.769504 
" clip-path="url(#pc12b7947ca)" style="fill: none; stroke: #000000; stroke-linecap: square"/>
   </g>
   <g id="line2d_9">
    <path d="M 240.3 308.547036 
L 268.2 308.547036 
" clip-path="url(#pc12b7947ca)" style="fill: none; stroke: #000000; stroke-linecap: square"/>
   </g>
   <g id="line2d_10">
    <path d="M 240.3 118.769504 
L 268.2 118.769504 
" clip-path="url(#pc12b7947ca)" style="fill: none; stroke: #000000; stroke-linecap: square"/>
   </g>
   <g id="line2d_11">
    <path d="M 86.85 245.206669 
L 142.65 245.206669 
" clip-path="url(#pc12b7947ca)" style="fill: none; stroke: #000000"/>
   </g>
   <g id="line2d_12">
    <path d="M 226.35 244.676653 
L 282.15 244.676653 
" clip-path="url(#pc12b7947ca)" style="fill: none; stroke: #000000"/>
   </g>
   <g id="matplotlib.axis_1">
    <g id="xtick_1">
     <g id="line2d_13">
      <defs>
       <path id="mb91d37dabf" d="M 0 0 
L 0 3.5 
" style="stroke: #000000; stroke-width: 0.8"/>
      </defs>
      <g>
       <use xlink:href="#mb91d37dabf" x="114.75" y="384.48" style="stroke: #000000; stroke-width: 0.8"/>
      </g>
     </g>
     <g id="text_1">
      <!-- Mutants -->
      <g transform="translate(79.18125 405.795625) scale(0.2 -0.2)">
       <defs>
        <path id="ArialMT-4d" d="M 475 0 
L 475 4581 
L 1388 4581 
L 2472 1338 
Q 2622 884 2691 659 
Q 2769 909 2934 1394 
L 4031 4581 
L 4847 4581 
L 4847 0 
L 4263 0 
L 4263 3834 
L 2931 0 
L 2384 0 
L 1059 3900 
L 1059 0 
L 475 0 
z
" transform="scale(0.015625)"/>
        <path id="ArialMT-75" d="M 2597 0 
L 2597 488 
Q 2209 -75 1544 -75 
Q 1250 -75 995 37 
Q 741 150 617 320 
Q 494 491 444 738 
Q 409 903 409 1263 
L 409 3319 
L 972 3319 
L 972 1478 
Q 972 1038 1006 884 
Q 1059 663 1231 536 
Q 1403 409 1656 409 
Q 1909 409 2131 539 
Q 2353 669 2445 892 
Q 2538 1116 2538 1541 
L 2538 3319 
L 3100 3319 
L 3100 0 
L 2597 0 
z
" transform="scale(0.015625)"/>
        <path id="ArialMT-74" d="M 1650 503 
L 1731 6 
Q 1494 -44 1306 -44 
Q 1000 -44 831 53 
Q 663 150 594 308 
Q 525 466 525 972 
L 525 2881 
L 113 2881 
L 113 3319 
L 525 3319 
L 525 4141 
L 1084 4478 
L 1084 3319 
L 1650 3319 
L 1650 2881 
L 1084 2881 
L 1084 941 
Q 1084 700 1114 631 
Q 1144 563 1211 522 
Q 1278 481 1403 481 
Q 1497 481 1650 503 
z
" transform="scale(0.015625)"/>
        <path id="ArialMT-61" d="M 2588 409 
Q 2275 144 1986 34 
Q 1697 -75 1366 -75 
Q 819 -75 525 192 
Q 231 459 231 875 
Q 231 1119 342 1320 
Q 453 1522 633 1644 
Q 813 1766 1038 1828 
Q 1203 1872 1538 1913 
Q 2219 1994 2541 2106 
Q 2544 2222 2544 2253 
Q 2544 2597 2384 2738 
Q 2169 2928 1744 2928 
Q 1347 2928 1158 2789 
Q 969 2650 878 2297 
L 328 2372 
Q 403 2725 575 2942 
Q 747 3159 1072 3276 
Q 1397 3394 1825 3394 
Q 2250 3394 2515 3294 
Q 2781 3194 2906 3042 
Q 3031 2891 3081 2659 
Q 3109 2516 3109 2141 
L 3109 1391 
Q 3109 606 3145 398 
Q 3181 191 3288 0 
L 2700 0 
Q 2613 175 2588 409 
z
M 2541 1666 
Q 2234 1541 1622 1453 
Q 1275 1403 1131 1340 
Q 988 1278 909 1158 
Q 831 1038 831 891 
Q 831 666 1001 516 
Q 1172 366 1500 366 
Q 1825 366 2078 508 
Q 2331 650 2450 897 
Q 2541 1088 2541 1459 
L 2541 1666 
z
" transform="scale(0.015625)"/>
        <path id="ArialMT-6e" d="M 422 0 
L 422 3319 
L 928 3319 
L 928 2847 
Q 1294 3394 1984 3394 
Q 2284 3394 2536 3286 
Q 2788 3178 2913 3003 
Q 3038 2828 3088 2588 
Q 3119 2431 3119 2041 
L 3119 0 
L 2556 0 
L 2556 2019 
Q 2556 2363 2490 2533 
Q 2425 2703 2258 2804 
Q 2091 2906 1866 2906 
Q 1506 2906 1245 2678 
Q 984 2450 984 1813 
L 984 0 
L 422 0 
z
" transform="scale(0.015625)"/>
        <path id="ArialMT-73" d="M 197 991 
L 753 1078 
Q 800 744 1014 566 
Q 1228 388 1613 388 
Q 2000 388 2187 545 
Q 2375 703 2375 916 
Q 2375 1106 2209 1216 
Q 2094 1291 1634 1406 
Q 1016 1563 777 1677 
Q 538 1791 414 1992 
Q 291 2194 291 2438 
Q 291 2659 392 2848 
Q 494 3038 669 3163 
Q 800 3259 1026 3326 
Q 1253 3394 1513 3394 
Q 1903 3394 2198 3281 
Q 2494 3169 2634 2976 
Q 2775 2784 2828 2463 
L 2278 2388 
Q 2241 2644 2061 2787 
Q 1881 2931 1553 2931 
Q 1166 2931 1000 2803 
Q 834 2675 834 2503 
Q 834 2394 903 2306 
Q 972 2216 1119 2156 
Q 1203 2125 1616 2013 
Q 2213 1853 2448 1751 
Q 2684 1650 2818 1456 
Q 2953 1263 2953 975 
Q 2953 694 2789 445 
Q 2625 197 2315 61 
Q 2006 -75 1616 -75 
Q 969 -75 630 194 
Q 291 463 197 991 
z
" transform="scale(0.015625)"/>
       </defs>
       <use xlink:href="#ArialMT-4d"/>
       <use xlink:href="#ArialMT-75" transform="translate(83.300781 0)"/>
       <use xlink:href="#ArialMT-74" transform="translate(138.916016 0)"/>
       <use xlink:href="#ArialMT-61" transform="translate(166.699219 0)"/>
       <use xlink:href="#ArialMT-6e" transform="translate(222.314453 0)"/>
       <use xlink:href="#ArialMT-74" transform="translate(277.929688 0)"/>
       <use xlink:href="#ArialMT-73" transform="translate(305.712891 0)"/>
      </g>
     </g>
    </g>
    <g id="xtick_2">
     <g id="line2d_14">
      <g>
       <use xlink:href="#mb91d37dabf" x="254.25" y="384.48" style="stroke: #000000; stroke-width: 0.8"/>
      </g>
     </g>
     <g id="text_2">
      <!-- WT -->
      <g transform="translate(238.703125 405.795625) scale(0.2 -0.2)">
       <defs>
        <path id="ArialMT-57" d="M 1294 0 
L 78 4581 
L 700 4581 
L 1397 1578 
Q 1509 1106 1591 641 
Q 1766 1375 1797 1488 
L 2669 4581 
L 3400 4581 
L 4056 2263 
Q 4303 1400 4413 641 
Q 4500 1075 4641 1638 
L 5359 4581 
L 5969 4581 
L 4713 0 
L 4128 0 
L 3163 3491 
Q 3041 3928 3019 4028 
Q 2947 3713 2884 3491 
L 1913 0 
L 1294 0 
z
" transform="scale(0.015625)"/>
        <path id="ArialMT-54" d="M 1659 0 
L 1659 4041 
L 150 4041 
L 150 4581 
L 3781 4581 
L 3781 4041 
L 2266 4041 
L 2266 0 
L 1659 0 
z
" transform="scale(0.015625)"/>
       </defs>
       <use xlink:href="#ArialMT-57"/>
       <use xlink:href="#ArialMT-54" transform="translate(94.384766 0)"/>
      </g>
     </g>
    </g>
   </g>
   <g id="matplotlib.axis_2">
    <g id="ytick_1">
     <g id="line2d_15">
      <defs>
       <path id="md0ccc14a76" d="M 0 0 
L -3.5 0 
" style="stroke: #000000; stroke-width: 0.8"/>
      </defs>
      <g>
       <use xlink:href="#md0ccc14a76" x="45" y="361.468467" style="stroke: #000000; stroke-width: 0.8"/>
      </g>
     </g>
     <g id="text_3">
      <!-- 20 -->
      <g transform="translate(26.878125 365.047373) scale(0.1 -0.1)">
       <defs>
        <path id="ArialMT-32" d="M 3222 541 
L 3222 0 
L 194 0 
Q 188 203 259 391 
Q 375 700 629 1000 
Q 884 1300 1366 1694 
Q 2113 2306 2375 2664 
Q 2638 3022 2638 3341 
Q 2638 3675 2398 3904 
Q 2159 4134 1775 4134 
Q 1369 4134 1125 3890 
Q 881 3647 878 3216 
L 300 3275 
Q 359 3922 746 4261 
Q 1134 4600 1788 4600 
Q 2447 4600 2831 4234 
Q 3216 3869 3216 3328 
Q 3216 3053 3103 2787 
Q 2991 2522 2730 2228 
Q 2469 1934 1863 1422 
Q 1356 997 1212 845 
Q 1069 694 975 541 
L 3222 541 
z
" transform="scale(0.015625)"/>
        <path id="ArialMT-30" d="M 266 2259 
Q 266 3072 433 3567 
Q 600 4063 929 4331 
Q 1259 4600 1759 4600 
Q 2128 4600 2406 4451 
Q 2684 4303 2865 4023 
Q 3047 3744 3150 3342 
Q 3253 2941 3253 2259 
Q 3253 1453 3087 958 
Q 2922 463 2592 192 
Q 2263 -78 1759 -78 
Q 1097 -78 719 397 
Q 266 969 266 2259 
z
M 844 2259 
Q 844 1131 1108 757 
Q 1372 384 1759 384 
Q 2147 384 2411 759 
Q 2675 1134 2675 2259 
Q 2675 3391 2411 3762 
Q 2147 4134 1753 4134 
Q 1366 4134 1134 3806 
Q 844 3388 844 2259 
z
" transform="scale(0.015625)"/>
       </defs>
       <use xlink:href="#ArialMT-32"/>
       <use xlink:href="#ArialMT-30" transform="translate(55.615234 0)"/>
      </g>
     </g>
    </g>
    <g id="ytick_2">
     <g id="line2d_16">
      <g>
       <use xlink:href="#md0ccc14a76" x="45" y="320.645253" style="stroke: #000000; stroke-width: 0.8"/>
      </g>
     </g>
     <g id="text_4">
      <!-- 30 -->
      <g transform="translate(26.878125 324.224159) scale(0.1 -0.1)">
       <defs>
        <path id="ArialMT-33" d="M 269 1209 
L 831 1284 
Q 928 806 1161 595 
Q 1394 384 1728 384 
Q 2125 384 2398 659 
Q 2672 934 2672 1341 
Q 2672 1728 2419 1979 
Q 2166 2231 1775 2231 
Q 1616 2231 1378 2169 
L 1441 2663 
Q 1497 2656 1531 2656 
Q 1891 2656 2178 2843 
Q 2466 3031 2466 3422 
Q 2466 3731 2256 3934 
Q 2047 4138 1716 4138 
Q 1388 4138 1169 3931 
Q 950 3725 888 3313 
L 325 3413 
Q 428 3978 793 4289 
Q 1159 4600 1703 4600 
Q 2078 4600 2393 4439 
Q 2709 4278 2876 4000 
Q 3044 3722 3044 3409 
Q 3044 3113 2884 2869 
Q 2725 2625 2413 2481 
Q 2819 2388 3044 2092 
Q 3269 1797 3269 1353 
Q 3269 753 2831 336 
Q 2394 -81 1725 -81 
Q 1122 -81 723 278 
Q 325 638 269 1209 
z
" transform="scale(0.015625)"/>
       </defs>
       <use xlink:href="#ArialMT-33"/>
       <use xlink:href="#ArialMT-30" transform="translate(55.615234 0)"/>
      </g>
     </g>
    </g>
    <g id="ytick_3">
     <g id="line2d_17">
      <g>
       <use xlink:href="#md0ccc14a76" x="45" y="279.822039" style="stroke: #000000; stroke-width: 0.8"/>
      </g>
     </g>
     <g id="text_5">
      <!-- 40 -->
      <g transform="translate(26.878125 283.400945) scale(0.1 -0.1)">
       <defs>
        <path id="ArialMT-34" d="M 2069 0 
L 2069 1097 
L 81 1097 
L 81 1613 
L 2172 4581 
L 2631 4581 
L 2631 1613 
L 3250 1613 
L 3250 1097 
L 2631 1097 
L 2631 0 
L 2069 0 
z
M 2069 1613 
L 2069 3678 
L 634 1613 
L 2069 1613 
z
" transform="scale(0.015625)"/>
       </defs>
       <use xlink:href="#ArialMT-34"/>
       <use xlink:href="#ArialMT-30" transform="translate(55.615234 0)"/>
      </g>
     </g>
    </g>
    <g id="ytick_4">
     <g id="line2d_18">
      <g>
       <use xlink:href="#md0ccc14a76" x="45" y="238.998825" style="stroke: #000000; stroke-width: 0.8"/>
      </g>
     </g>
     <g id="text_6">
      <!-- 50 -->
      <g transform="translate(26.878125 242.577731) scale(0.1 -0.1)">
       <defs>
        <path id="ArialMT-35" d="M 266 1200 
L 856 1250 
Q 922 819 1161 601 
Q 1400 384 1738 384 
Q 2144 384 2425 690 
Q 2706 997 2706 1503 
Q 2706 1984 2436 2262 
Q 2166 2541 1728 2541 
Q 1456 2541 1237 2417 
Q 1019 2294 894 2097 
L 366 2166 
L 809 4519 
L 3088 4519 
L 3088 3981 
L 1259 3981 
L 1013 2750 
Q 1425 3038 1878 3038 
Q 2478 3038 2890 2622 
Q 3303 2206 3303 1553 
Q 3303 931 2941 478 
Q 2500 -78 1738 -78 
Q 1113 -78 717 272 
Q 322 622 266 1200 
z
" transform="scale(0.015625)"/>
       </defs>
       <use xlink:href="#ArialMT-35"/>
       <use xlink:href="#ArialMT-30" transform="translate(55.615234 0)"/>
      </g>
     </g>
    </g>
    <g id="ytick_5">
     <g id="line2d_19">
      <g>
       <use xlink:href="#md0ccc14a76" x="45" y="198.17561" style="stroke: #000000; stroke-width: 0.8"/>
      </g>
     </g>
     <g id="text_7">
      <!-- 60 -->
      <g transform="translate(26.878125 201.754517) scale(0.1 -0.1)">
       <defs>
        <path id="ArialMT-36" d="M 3184 3459 
L 2625 3416 
Q 2550 3747 2413 3897 
Q 2184 4138 1850 4138 
Q 1581 4138 1378 3988 
Q 1113 3794 959 3422 
Q 806 3050 800 2363 
Q 1003 2672 1297 2822 
Q 1591 2972 1913 2972 
Q 2475 2972 2870 2558 
Q 3266 2144 3266 1488 
Q 3266 1056 3080 686 
Q 2894 316 2569 119 
Q 2244 -78 1831 -78 
Q 1128 -78 684 439 
Q 241 956 241 2144 
Q 241 3472 731 4075 
Q 1159 4600 1884 4600 
Q 2425 4600 2770 4297 
Q 3116 3994 3184 3459 
z
M 888 1484 
Q 888 1194 1011 928 
Q 1134 663 1356 523 
Q 1578 384 1822 384 
Q 2178 384 2434 671 
Q 2691 959 2691 1453 
Q 2691 1928 2437 2201 
Q 2184 2475 1800 2475 
Q 1419 2475 1153 2201 
Q 888 1928 888 1484 
z
" transform="scale(0.015625)"/>
       </defs>
       <use xlink:href="#ArialMT-36"/>
       <use xlink:href="#ArialMT-30" transform="translate(55.615234 0)"/>
      </g>
     </g>
    </g>
    <g id="ytick_6">
     <g id="line2d_20">
      <g>
       <use xlink:href="#md0ccc14a76" x="45" y="157.352396" style="stroke: #000000; stroke-width: 0.8"/>
      </g>
     </g>
     <g id="text_8">
      <!-- 70 -->
      <g transform="translate(26.878125 160.931303) scale(0.1 -0.1)">
       <defs>
        <path id="ArialMT-37" d="M 303 3981 
L 303 4522 
L 3269 4522 
L 3269 4084 
Q 2831 3619 2401 2847 
Q 1972 2075 1738 1259 
Q 1569 684 1522 0 
L 944 0 
Q 953 541 1156 1306 
Q 1359 2072 1739 2783 
Q 2119 3494 2547 3981 
L 303 3981 
z
" transform="scale(0.015625)"/>
       </defs>
       <use xlink:href="#ArialMT-37"/>
       <use xlink:href="#ArialMT-30" transform="translate(55.615234 0)"/>
      </g>
     </g>
    </g>
    <g id="ytick_7">
     <g id="line2d_21">
      <g>
       <use xlink:href="#md0ccc14a76" x="45" y="116.529182" style="stroke: #000000; stroke-width: 0.8"/>
      </g>
     </g>
     <g id="text_9">
      <!-- 80 -->
      <g transform="translate(26.878125 120.108089) scale(0.1 -0.1)">
       <defs>
        <path id="ArialMT-38" d="M 1131 2484 
Q 781 2613 612 2850 
Q 444 3088 444 3419 
Q 444 3919 803 4259 
Q 1163 4600 1759 4600 
Q 2359 4600 2725 4251 
Q 3091 3903 3091 3403 
Q 3091 3084 2923 2848 
Q 2756 2613 2416 2484 
Q 2838 2347 3058 2040 
Q 3278 1734 3278 1309 
Q 3278 722 2862 322 
Q 2447 -78 1769 -78 
Q 1091 -78 675 323 
Q 259 725 259 1325 
Q 259 1772 486 2073 
Q 713 2375 1131 2484 
z
M 1019 3438 
Q 1019 3113 1228 2906 
Q 1438 2700 1772 2700 
Q 2097 2700 2305 2904 
Q 2513 3109 2513 3406 
Q 2513 3716 2298 3927 
Q 2084 4138 1766 4138 
Q 1444 4138 1231 3931 
Q 1019 3725 1019 3438 
z
M 838 1322 
Q 838 1081 952 856 
Q 1066 631 1291 507 
Q 1516 384 1775 384 
Q 2178 384 2440 643 
Q 2703 903 2703 1303 
Q 2703 1709 2433 1975 
Q 2163 2241 1756 2241 
Q 1359 2241 1098 1978 
Q 838 1716 838 1322 
z
" transform="scale(0.015625)"/>
       </defs>
       <use xlink:href="#ArialMT-38"/>
       <use xlink:href="#ArialMT-30" transform="translate(55.615234 0)"/>
      </g>
     </g>
    </g>
    <g id="ytick_8">
     <g id="line2d_22">
      <g>
       <use xlink:href="#md0ccc14a76" x="45" y="75.705968" style="stroke: #000000; stroke-width: 0.8"/>
      </g>
     </g>
     <g id="text_10">
      <!-- 90 -->
      <g transform="translate(26.878125 79.284874) scale(0.1 -0.1)">
       <defs>
        <path id="ArialMT-39" d="M 350 1059 
L 891 1109 
Q 959 728 1153 556 
Q 1347 384 1650 384 
Q 1909 384 2104 503 
Q 2300 622 2425 820 
Q 2550 1019 2634 1356 
Q 2719 1694 2719 2044 
Q 2719 2081 2716 2156 
Q 2547 1888 2255 1720 
Q 1963 1553 1622 1553 
Q 1053 1553 659 1965 
Q 266 2378 266 3053 
Q 266 3750 677 4175 
Q 1088 4600 1706 4600 
Q 2153 4600 2523 4359 
Q 2894 4119 3086 3673 
Q 3278 3228 3278 2384 
Q 3278 1506 3087 986 
Q 2897 466 2520 194 
Q 2144 -78 1638 -78 
Q 1100 -78 759 220 
Q 419 519 350 1059 
z
M 2653 3081 
Q 2653 3566 2395 3850 
Q 2138 4134 1775 4134 
Q 1400 4134 1122 3828 
Q 844 3522 844 3034 
Q 844 2597 1108 2323 
Q 1372 2050 1759 2050 
Q 2150 2050 2401 2323 
Q 2653 2597 2653 3081 
z
" transform="scale(0.015625)"/>
       </defs>
       <use xlink:href="#ArialMT-39"/>
       <use xlink:href="#ArialMT-30" transform="translate(55.615234 0)"/>
      </g>
     </g>
    </g>
    <g id="text_11">
     <!-- Mean interaction duration -->
     <g transform="translate(18.903125 330.9975) rotate(-90) scale(0.2 -0.2)">
      <defs>
       <path id="ArialMT-65" d="M 2694 1069 
L 3275 997 
Q 3138 488 2766 206 
Q 2394 -75 1816 -75 
Q 1088 -75 661 373 
Q 234 822 234 1631 
Q 234 2469 665 2931 
Q 1097 3394 1784 3394 
Q 2450 3394 2872 2941 
Q 3294 2488 3294 1666 
Q 3294 1616 3291 1516 
L 816 1516 
Q 847 969 1125 678 
Q 1403 388 1819 388 
Q 2128 388 2347 550 
Q 2566 713 2694 1069 
z
M 847 1978 
L 2700 1978 
Q 2663 2397 2488 2606 
Q 2219 2931 1791 2931 
Q 1403 2931 1139 2672 
Q 875 2413 847 1978 
z
" transform="scale(0.015625)"/>
       <path id="ArialMT-20" transform="scale(0.015625)"/>
       <path id="ArialMT-69" d="M 425 3934 
L 425 4581 
L 988 4581 
L 988 3934 
L 425 3934 
z
M 425 0 
L 425 3319 
L 988 3319 
L 988 0 
L 425 0 
z
" transform="scale(0.015625)"/>
       <path id="ArialMT-72" d="M 416 0 
L 416 3319 
L 922 3319 
L 922 2816 
Q 1116 3169 1280 3281 
Q 1444 3394 1641 3394 
Q 1925 3394 2219 3213 
L 2025 2691 
Q 1819 2813 1613 2813 
Q 1428 2813 1281 2702 
Q 1134 2591 1072 2394 
Q 978 2094 978 1738 
L 978 0 
L 416 0 
z
" transform="scale(0.015625)"/>
       <path id="ArialMT-63" d="M 2588 1216 
L 3141 1144 
Q 3050 572 2676 248 
Q 2303 -75 1759 -75 
Q 1078 -75 664 370 
Q 250 816 250 1647 
Q 250 2184 428 2587 
Q 606 2991 970 3192 
Q 1334 3394 1763 3394 
Q 2303 3394 2647 3120 
Q 2991 2847 3088 2344 
L 2541 2259 
Q 2463 2594 2264 2762 
Q 2066 2931 1784 2931 
Q 1359 2931 1093 2626 
Q 828 2322 828 1663 
Q 828 994 1084 691 
Q 1341 388 1753 388 
Q 2084 388 2306 591 
Q 2528 794 2588 1216 
z
" transform="scale(0.015625)"/>
       <path id="ArialMT-6f" d="M 213 1659 
Q 213 2581 725 3025 
Q 1153 3394 1769 3394 
Q 2453 3394 2887 2945 
Q 3322 2497 3322 1706 
Q 3322 1066 3130 698 
Q 2938 331 2570 128 
Q 2203 -75 1769 -75 
Q 1072 -75 642 372 
Q 213 819 213 1659 
z
M 791 1659 
Q 791 1022 1069 705 
Q 1347 388 1769 388 
Q 2188 388 2466 706 
Q 2744 1025 2744 1678 
Q 2744 2294 2464 2611 
Q 2184 2928 1769 2928 
Q 1347 2928 1069 2612 
Q 791 2297 791 1659 
z
" transform="scale(0.015625)"/>
       <path id="ArialMT-64" d="M 2575 0 
L 2575 419 
Q 2259 -75 1647 -75 
Q 1250 -75 917 144 
Q 584 363 401 755 
Q 219 1147 219 1656 
Q 219 2153 384 2558 
Q 550 2963 881 3178 
Q 1213 3394 1622 3394 
Q 1922 3394 2156 3267 
Q 2391 3141 2538 2938 
L 2538 4581 
L 3097 4581 
L 3097 0 
L 2575 0 
z
M 797 1656 
Q 797 1019 1065 703 
Q 1334 388 1700 388 
Q 2069 388 2326 689 
Q 2584 991 2584 1609 
Q 2584 2291 2321 2609 
Q 2059 2928 1675 2928 
Q 1300 2928 1048 2622 
Q 797 2316 797 1656 
z
" transform="scale(0.015625)"/>
      </defs>
      <use xlink:href="#ArialMT-4d"/>
      <use xlink:href="#ArialMT-65" transform="translate(83.300781 0)"/>
      <use xlink:href="#ArialMT-61" transform="translate(138.916016 0)"/>
      <use xlink:href="#ArialMT-6e" transform="translate(194.53125 0)"/>
      <use xlink:href="#ArialMT-20" transform="translate(250.146484 0)"/>
      <use xlink:href="#ArialMT-69" transform="translate(277.929688 0)"/>
      <use xlink:href="#ArialMT-6e" transform="translate(300.146484 0)"/>
      <use xlink:href="#ArialMT-74" transform="translate(355.761719 0)"/>
      <use xlink:href="#ArialMT-65" transform="translate(383.544922 0)"/>
      <use xlink:href="#ArialMT-72" transform="translate(439.160156 0)"/>
      <use xlink:href="#ArialMT-61" transform="translate(472.460938 0)"/>
      <use xlink:href="#ArialMT-63" transform="translate(528.076172 0)"/>
      <use xlink:href="#ArialMT-74" transform="translate(578.076172 0)"/>
      <use xlink:href="#ArialMT-69" transform="translate(605.859375 0)"/>
      <use xlink:href="#ArialMT-6f" transform="translate(628.076172 0)"/>
      <use xlink:href="#ArialMT-6e" transform="translate(683.691406 0)"/>
      <use xlink:href="#ArialMT-20" transform="translate(739.306641 0)"/>
      <use xlink:href="#ArialMT-64" transform="translate(767.089844 0)"/>
      <use xlink:href="#ArialMT-75" transform="translate(822.705078 0)"/>
      <use xlink:href="#ArialMT-72" transform="translate(878.320312 0)"/>
      <use xlink:href="#ArialMT-61" transform="translate(911.621094 0)"/>
      <use xlink:href="#ArialMT-74" transform="translate(967.236328 0)"/>
      <use xlink:href="#ArialMT-69" transform="translate(995.019531 0)"/>
      <use xlink:href="#ArialMT-6f" transform="translate(1017.236328 0)"/>
      <use xlink:href="#ArialMT-6e" transform="translate(1072.851562 0)"/>
     </g>
    </g>
   </g>
   <g id="line2d_23">
    <path d="M 114.75 98.046979 
L 114.75 93.705117 
L 254.25 93.705117 
L 254.25 98.046979 
" clip-path="url(#pc12b7947ca)" style="fill: none; stroke: #000000; stroke-linecap: square"/>
   </g>
   <g id="PathCollection_1">
    <defs>
     <path id="ma1dbcb5ccd" d="M 0 3.162278 
C 0.838646 3.162278 1.643056 2.82908 2.236068 2.236068 
C 2.82908 1.643056 3.162278 0.838646 3.162278 0 
C 3.162278 -0.838646 2.82908 -1.643056 2.236068 -2.236068 
C 1.643056 -2.82908 0.838646 -3.162278 0 -3.162278 
C -0.838646 -3.162278 -1.643056 -2.82908 -2.236068 -2.236068 
C -2.82908 -1.643056 -3.162278 -0.838646 -3.162278 0 
C -3.162278 0.838646 -2.82908 1.643056 -2.236068 2.236068 
C -1.643056 2.82908 -0.838646 3.162278 0 3.162278 
z
" style="stroke: #a9a9a9"/>
    </defs>
    <g clip-path="url(#pc12b7947ca)">
     <use xlink:href="#ma1dbcb5ccd" x="108.396601" y="236.506306" style="fill: #a9a9a9; stroke: #a9a9a9"/>
     <use xlink:href="#ma1dbcb5ccd" x="126.793429" y="198.089776" style="fill: #a9a9a9; stroke: #a9a9a9"/>
     <use xlink:href="#ma1dbcb5ccd" x="118.670133" y="229.523036" style="fill: #a9a9a9; stroke: #a9a9a9"/>
     <use xlink:href="#ma1dbcb5ccd" x="119.335226" y="245.206669" style="fill: #a9a9a9; stroke: #a9a9a9"/>
     <use xlink:href="#ma1dbcb5ccd" x="101.803674" y="240.948721" style="fill: #a9a9a9; stroke: #a9a9a9"/>
     <use xlink:href="#ma1dbcb5ccd" x="103.32534" y="213.931917" style="fill: #a9a9a9; stroke: #a9a9a9"/>
     <use xlink:href="#ma1dbcb5ccd" x="120.682132" y="200.909637" style="fill: #a9a9a9; stroke: #a9a9a9"/>
     <use xlink:href="#ma1dbcb5ccd" x="125.962017" y="305.76088" style="fill: #a9a9a9; stroke: #a9a9a9"/>
     <use xlink:href="#ma1dbcb5ccd" x="110.698244" y="281.76906" style="fill: #a9a9a9; stroke: #a9a9a9"/>
     <use xlink:href="#ma1dbcb5ccd" x="108.248561" y="260.191565" style="fill: #a9a9a9; stroke: #a9a9a9"/>
     <use xlink:href="#ma1dbcb5ccd" x="124.151542" y="290.969999" style="fill: #a9a9a9; stroke: #a9a9a9"/>
     <use xlink:href="#ma1dbcb5ccd" x="114.42402" y="250.445713" style="fill: #a9a9a9; stroke: #a9a9a9"/>
     <use xlink:href="#ma1dbcb5ccd" x="110.905178" y="316.126878" style="fill: #a9a9a9; stroke: #a9a9a9"/>
     <use xlink:href="#ma1dbcb5ccd" x="106.745789" y="299.476355" style="fill: #a9a9a9; stroke: #a9a9a9"/>
     <use xlink:href="#ma1dbcb5ccd" x="115.451899" y="280.538037" style="fill: #a9a9a9; stroke: #a9a9a9"/>
     <use xlink:href="#ma1dbcb5ccd" x="108.909153" y="274.085733" style="fill: #a9a9a9; stroke: #a9a9a9"/>
     <use xlink:href="#ma1dbcb5ccd" x="109.230746" y="271.778243" style="fill: #a9a9a9; stroke: #a9a9a9"/>
     <use xlink:href="#ma1dbcb5ccd" x="122.931803" y="252.110415" style="fill: #a9a9a9; stroke: #a9a9a9"/>
     <use xlink:href="#ma1dbcb5ccd" x="112.338169" y="309.854876" style="fill: #a9a9a9; stroke: #a9a9a9"/>
     <use xlink:href="#ma1dbcb5ccd" x="107.887148" y="212.889086" style="fill: #a9a9a9; stroke: #a9a9a9"/>
     <use xlink:href="#ma1dbcb5ccd" x="107.888771" y="234.050016" style="fill: #a9a9a9; stroke: #a9a9a9"/>
     <use xlink:href="#ma1dbcb5ccd" x="103.622721" y="242.438501" style="fill: #a9a9a9; stroke: #a9a9a9"/>
     <use xlink:href="#ma1dbcb5ccd" x="122.487079" y="254.472036" style="fill: #a9a9a9; stroke: #a9a9a9"/>
     <use xlink:href="#ma1dbcb5ccd" x="113.677084" y="240.964723" style="fill: #a9a9a9; stroke: #a9a9a9"/>
     <use xlink:href="#ma1dbcb5ccd" x="116.117532" y="255.909264" style="fill: #a9a9a9; stroke: #a9a9a9"/>
     <use xlink:href="#ma1dbcb5ccd" x="122.873421" y="248.526382" style="fill: #a9a9a9; stroke: #a9a9a9"/>
     <use xlink:href="#ma1dbcb5ccd" x="121.264349" y="282.997624" style="fill: #a9a9a9; stroke: #a9a9a9"/>
     <use xlink:href="#ma1dbcb5ccd" x="117.507895" y="264.676797" style="fill: #a9a9a9; stroke: #a9a9a9"/>
     <use xlink:href="#ma1dbcb5ccd" x="105.346914" y="250.409248" style="fill: #a9a9a9; stroke: #a9a9a9"/>
     <use xlink:href="#ma1dbcb5ccd" x="112.286856" y="288.840251" style="fill: #a9a9a9; stroke: #a9a9a9"/>
     <use xlink:href="#ma1dbcb5ccd" x="111.76427" y="283.183819" style="fill: #a9a9a9; stroke: #a9a9a9"/>
     <use xlink:href="#ma1dbcb5ccd" x="111.294" y="285.815977" style="fill: #a9a9a9; stroke: #a9a9a9"/>
     <use xlink:href="#ma1dbcb5ccd" x="115.846052" y="369.36" style="fill: #a9a9a9; stroke: #a9a9a9"/>
     <use xlink:href="#ma1dbcb5ccd" x="112.86726" y="230.455491" style="fill: #a9a9a9; stroke: #a9a9a9"/>
     <use xlink:href="#ma1dbcb5ccd" x="122.858102" y="300.867852" style="fill: #a9a9a9; stroke: #a9a9a9"/>
     <use xlink:href="#ma1dbcb5ccd" x="117.319044" y="180.436019" style="fill: #a9a9a9; stroke: #a9a9a9"/>
     <use xlink:href="#ma1dbcb5ccd" x="105.660519" y="181.960923" style="fill: #a9a9a9; stroke: #a9a9a9"/>
     <use xlink:href="#ma1dbcb5ccd" x="112.209743" y="222.511363" style="fill: #a9a9a9; stroke: #a9a9a9"/>
     <use xlink:href="#ma1dbcb5ccd" x="104.129584" y="146.847181" style="fill: #a9a9a9; stroke: #a9a9a9"/>
     <use xlink:href="#ma1dbcb5ccd" x="123.120956" y="177.481744" style="fill: #a9a9a9; stroke: #a9a9a9"/>
     <use xlink:href="#ma1dbcb5ccd" x="104.341825" y="239.871548" style="fill: #a9a9a9; stroke: #a9a9a9"/>
     <use xlink:href="#ma1dbcb5ccd" x="119.477957" y="268.395061" style="fill: #a9a9a9; stroke: #a9a9a9"/>
     <use xlink:href="#ma1dbcb5ccd" x="107.144329" y="287.214944" style="fill: #a9a9a9; stroke: #a9a9a9"/>
     <use xlink:href="#ma1dbcb5ccd" x="127.676369" y="267.698197" style="fill: #a9a9a9; stroke: #a9a9a9"/>
     <use xlink:href="#ma1dbcb5ccd" x="124.984092" y="257.058131" style="fill: #a9a9a9; stroke: #a9a9a9"/>
     <use xlink:href="#ma1dbcb5ccd" x="111.082501" y="229.020554" style="fill: #a9a9a9; stroke: #a9a9a9"/>
     <use xlink:href="#ma1dbcb5ccd" x="114.135259" y="214.687614" style="fill: #a9a9a9; stroke: #a9a9a9"/>
     <use xlink:href="#ma1dbcb5ccd" x="111.277832" y="226.454196" style="fill: #a9a9a9; stroke: #a9a9a9"/>
     <use xlink:href="#ma1dbcb5ccd" x="120.734379" y="247.65854" style="fill: #a9a9a9; stroke: #a9a9a9"/>
     <use xlink:href="#ma1dbcb5ccd" x="124.613474" y="220.620652" style="fill: #a9a9a9; stroke: #a9a9a9"/>
     <use xlink:href="#ma1dbcb5ccd" x="112.381088" y="248.510061" style="fill: #a9a9a9; stroke: #a9a9a9"/>
     <use xlink:href="#ma1dbcb5ccd" x="101.037288" y="270.30037" style="fill: #a9a9a9; stroke: #a9a9a9"/>
     <use xlink:href="#ma1dbcb5ccd" x="108.846529" y="242.165396" style="fill: #a9a9a9; stroke: #a9a9a9"/>
     <use xlink:href="#ma1dbcb5ccd" x="110.358146" y="282.952071" style="fill: #a9a9a9; stroke: #a9a9a9"/>
     <use xlink:href="#ma1dbcb5ccd" x="109.699461" y="260.037983" style="fill: #a9a9a9; stroke: #a9a9a9"/>
     <use xlink:href="#ma1dbcb5ccd" x="115.266221" y="183.473808" style="fill: #a9a9a9; stroke: #a9a9a9"/>
     <use xlink:href="#ma1dbcb5ccd" x="115.267519" y="230.157548" style="fill: #a9a9a9; stroke: #a9a9a9"/>
     <use xlink:href="#ma1dbcb5ccd" x="103.71768" y="287.542238" style="fill: #a9a9a9; stroke: #a9a9a9"/>
     <use xlink:href="#ma1dbcb5ccd" x="113.336952" y="292.021358" style="fill: #a9a9a9; stroke: #a9a9a9"/>
     <use xlink:href="#ma1dbcb5ccd" x="120.698899" y="299.459666" style="fill: #a9a9a9; stroke: #a9a9a9"/>
     <use xlink:href="#ma1dbcb5ccd" x="116.790393" y="288.255272" style="fill: #a9a9a9; stroke: #a9a9a9"/>
     <use xlink:href="#ma1dbcb5ccd" x="118.26149" y="301.270179" style="fill: #a9a9a9; stroke: #a9a9a9"/>
     <use xlink:href="#ma1dbcb5ccd" x="114.396404" y="258.965764" style="fill: #a9a9a9; stroke: #a9a9a9"/>
     <use xlink:href="#ma1dbcb5ccd" x="111.394528" y="285.684407" style="fill: #a9a9a9; stroke: #a9a9a9"/>
     <use xlink:href="#ma1dbcb5ccd" x="101.753649" y="168.939566" style="fill: #a9a9a9; stroke: #a9a9a9"/>
     <use xlink:href="#ma1dbcb5ccd" x="107.383445" y="203.840055" style="fill: #a9a9a9; stroke: #a9a9a9"/>
     <use xlink:href="#ma1dbcb5ccd" x="114.178857" y="268.792459" style="fill: #a9a9a9; stroke: #a9a9a9"/>
     <use xlink:href="#ma1dbcb5ccd" x="114.947284" y="228.864967" style="fill: #a9a9a9; stroke: #a9a9a9"/>
     <use xlink:href="#ma1dbcb5ccd" x="108.032361" y="173.513932" style="fill: #a9a9a9; stroke: #a9a9a9"/>
     <use xlink:href="#ma1dbcb5ccd" x="105.686465" y="215.09966" style="fill: #a9a9a9; stroke: #a9a9a9"/>
     <use xlink:href="#ma1dbcb5ccd" x="121.260613" y="206.561679" style="fill: #a9a9a9; stroke: #a9a9a9"/>
     <use xlink:href="#ma1dbcb5ccd" x="121.160802" y="77.758756" style="fill: #a9a9a9; stroke: #a9a9a9"/>
     <use xlink:href="#ma1dbcb5ccd" x="111.809331" y="104.028974" style="fill: #a9a9a9; stroke: #a9a9a9"/>
     <use xlink:href="#ma1dbcb5ccd" x="126.22763" y="99.83858" style="fill: #a9a9a9; stroke: #a9a9a9"/>
     <use xlink:href="#ma1dbcb5ccd" x="120.736266" y="105.057949" style="fill: #a9a9a9; stroke: #a9a9a9"/>
     <use xlink:href="#ma1dbcb5ccd" x="112.432262" y="263.512557" style="fill: #a9a9a9; stroke: #a9a9a9"/>
     <use xlink:href="#ma1dbcb5ccd" x="110.673627" y="241.826471" style="fill: #a9a9a9; stroke: #a9a9a9"/>
     <use xlink:href="#ma1dbcb5ccd" x="122.295742" y="216.764478" style="fill: #a9a9a9; stroke: #a9a9a9"/>
     <use xlink:href="#ma1dbcb5ccd" x="111.433571" y="227.784112" style="fill: #a9a9a9; stroke: #a9a9a9"/>
     <use xlink:href="#ma1dbcb5ccd" x="120.141108" y="269.869616" style="fill: #a9a9a9; stroke: #a9a9a9"/>
     <use xlink:href="#ma1dbcb5ccd" x="101.74994" y="245.174709" style="fill: #a9a9a9; stroke: #a9a9a9"/>
     <use xlink:href="#ma1dbcb5ccd" x="105.801068" y="203.665338" style="fill: #a9a9a9; stroke: #a9a9a9"/>
     <use xlink:href="#ma1dbcb5ccd" x="123.606581" y="202.067857" style="fill: #a9a9a9; stroke: #a9a9a9"/>
     <use xlink:href="#ma1dbcb5ccd" x="113.34392" y="233.369496" style="fill: #a9a9a9; stroke: #a9a9a9"/>
     <use xlink:href="#ma1dbcb5ccd" x="112.12528" y="260.653026" style="fill: #a9a9a9; stroke: #a9a9a9"/>
     <use xlink:href="#ma1dbcb5ccd" x="109.625819" y="272.22936" style="fill: #a9a9a9; stroke: #a9a9a9"/>
     <use xlink:href="#ma1dbcb5ccd" x="118.239599" y="295.147535" style="fill: #a9a9a9; stroke: #a9a9a9"/>
     <use xlink:href="#ma1dbcb5ccd" x="115.11999" y="289.30099" style="fill: #a9a9a9; stroke: #a9a9a9"/>
     <use xlink:href="#ma1dbcb5ccd" x="111.118602" y="272.655978" style="fill: #a9a9a9; stroke: #a9a9a9"/>
     <use xlink:href="#ma1dbcb5ccd" x="116.444174" y="257.849902" style="fill: #a9a9a9; stroke: #a9a9a9"/>
     <use xlink:href="#ma1dbcb5ccd" x="110.856731" y="262.788389" style="fill: #a9a9a9; stroke: #a9a9a9"/>
     <use xlink:href="#ma1dbcb5ccd" x="122.126484" y="261.031811" style="fill: #a9a9a9; stroke: #a9a9a9"/>
     <use xlink:href="#ma1dbcb5ccd" x="118.462568" y="280.491066" style="fill: #a9a9a9; stroke: #a9a9a9"/>
     <use xlink:href="#ma1dbcb5ccd" x="118.849887" y="272.542544" style="fill: #a9a9a9; stroke: #a9a9a9"/>
     <use xlink:href="#ma1dbcb5ccd" x="114.643274" y="214.104516" style="fill: #a9a9a9; stroke: #a9a9a9"/>
     <use xlink:href="#ma1dbcb5ccd" x="114.466943" y="194.135482" style="fill: #a9a9a9; stroke: #a9a9a9"/>
     <use xlink:href="#ma1dbcb5ccd" x="125.826241" y="239.006418" style="fill: #a9a9a9; stroke: #a9a9a9"/>
     <use xlink:href="#ma1dbcb5ccd" x="110.173353" y="239.077189" style="fill: #a9a9a9; stroke: #a9a9a9"/>
     <use xlink:href="#ma1dbcb5ccd" x="104.410951" y="242.344434" style="fill: #a9a9a9; stroke: #a9a9a9"/>
     <use xlink:href="#ma1dbcb5ccd" x="114.633667" y="203.083367" style="fill: #a9a9a9; stroke: #a9a9a9"/>
     <use xlink:href="#ma1dbcb5ccd" x="128.618772" y="237.911224" style="fill: #a9a9a9; stroke: #a9a9a9"/>
     <use xlink:href="#ma1dbcb5ccd" x="116.695455" y="220.458033" style="fill: #a9a9a9; stroke: #a9a9a9"/>
     <use xlink:href="#ma1dbcb5ccd" x="121.089524" y="256.207306" style="fill: #a9a9a9; stroke: #a9a9a9"/>
     <use xlink:href="#ma1dbcb5ccd" x="108.019902" y="271.134476" style="fill: #a9a9a9; stroke: #a9a9a9"/>
     <use xlink:href="#ma1dbcb5ccd" x="130.671994" y="170.931232" style="fill: #a9a9a9; stroke: #a9a9a9"/>
     <use xlink:href="#ma1dbcb5ccd" x="117.828691" y="173.743178" style="fill: #a9a9a9; stroke: #a9a9a9"/>
     <use xlink:href="#ma1dbcb5ccd" x="122.782666" y="81.264501" style="fill: #a9a9a9; stroke: #a9a9a9"/>
     <use xlink:href="#ma1dbcb5ccd" x="124.124639" y="118.802687" style="fill: #a9a9a9; stroke: #a9a9a9"/>
     <use xlink:href="#ma1dbcb5ccd" x="122.658405" y="116.256813" style="fill: #a9a9a9; stroke: #a9a9a9"/>
    </g>
   </g>
   <g id="PathCollection_2">
    <defs>
     <path id="m6b2b3ba72b" d="M 0 3.162278 
C 0.838646 3.162278 1.643056 2.82908 2.236068 2.236068 
C 2.82908 1.643056 3.162278 0.838646 3.162278 0 
C 3.162278 -0.838646 2.82908 -1.643056 2.236068 -2.236068 
C 1.643056 -2.82908 0.838646 -3.162278 0 -3.162278 
C -0.838646 -3.162278 -1.643056 -2.82908 -2.236068 -2.236068 
C -2.82908 -1.643056 -3.162278 -0.838646 -3.162278 0 
C -3.162278 0.838646 -2.82908 1.643056 -2.236068 2.236068 
C -1.643056 2.82908 -0.838646 3.162278 0 3.162278 
z
" style="stroke: #b22222"/>
    </defs>
    <g clip-path="url(#pc12b7947ca)">
     <use xlink:href="#m6b2b3ba72b" x="247.092239" y="244.676653" style="fill: #b22222; stroke: #b22222"/>
     <use xlink:href="#m6b2b3ba72b" x="256.147015" y="202.067857" style="fill: #b22222; stroke: #b22222"/>
     <use xlink:href="#m6b2b3ba72b" x="267.682043" y="240.602547" style="fill: #b22222; stroke: #b22222"/>
     <use xlink:href="#m6b2b3ba72b" x="253.523292" y="300.396203" style="fill: #b22222; stroke: #b22222"/>
     <use xlink:href="#m6b2b3ba72b" x="261.970541" y="273.505433" style="fill: #b22222; stroke: #b22222"/>
     <use xlink:href="#m6b2b3ba72b" x="252.161432" y="266.650049" style="fill: #b22222; stroke: #b22222"/>
     <use xlink:href="#m6b2b3ba72b" x="250.529476" y="251.025284" style="fill: #b22222; stroke: #b22222"/>
     <use xlink:href="#m6b2b3ba72b" x="254.721625" y="283.437337" style="fill: #b22222; stroke: #b22222"/>
     <use xlink:href="#m6b2b3ba72b" x="247.349765" y="250.558061" style="fill: #b22222; stroke: #b22222"/>
     <use xlink:href="#m6b2b3ba72b" x="256.470079" y="280.773007" style="fill: #b22222; stroke: #b22222"/>
     <use xlink:href="#m6b2b3ba72b" x="249.081699" y="214.177872" style="fill: #b22222; stroke: #b22222"/>
     <use xlink:href="#m6b2b3ba72b" x="259.533608" y="251.413634" style="fill: #b22222; stroke: #b22222"/>
     <use xlink:href="#m6b2b3ba72b" x="244.173735" y="162.421153" style="fill: #b22222; stroke: #b22222"/>
     <use xlink:href="#m6b2b3ba72b" x="260.654572" y="255.888294" style="fill: #b22222; stroke: #b22222"/>
     <use xlink:href="#m6b2b3ba72b" x="252.369978" y="244.797581" style="fill: #b22222; stroke: #b22222"/>
     <use xlink:href="#m6b2b3ba72b" x="260.593797" y="266.425379" style="fill: #b22222; stroke: #b22222"/>
     <use xlink:href="#m6b2b3ba72b" x="249.131119" y="295.320186" style="fill: #b22222; stroke: #b22222"/>
     <use xlink:href="#m6b2b3ba72b" x="255.387247" y="287.841959" style="fill: #b22222; stroke: #b22222"/>
     <use xlink:href="#m6b2b3ba72b" x="261.148347" y="238.59" style="fill: #b22222; stroke: #b22222"/>
     <use xlink:href="#m6b2b3ba72b" x="256.867771" y="271.739059" style="fill: #b22222; stroke: #b22222"/>
     <use xlink:href="#m6b2b3ba72b" x="268.702357" y="253.91126" style="fill: #b22222; stroke: #b22222"/>
     <use xlink:href="#m6b2b3ba72b" x="243.273416" y="181.607334" style="fill: #b22222; stroke: #b22222"/>
     <use xlink:href="#m6b2b3ba72b" x="252.609208" y="197.624789" style="fill: #b22222; stroke: #b22222"/>
     <use xlink:href="#m6b2b3ba72b" x="268.270451" y="222.562396" style="fill: #b22222; stroke: #b22222"/>
     <use xlink:href="#m6b2b3ba72b" x="252.726433" y="126.212861" style="fill: #b22222; stroke: #b22222"/>
     <use xlink:href="#m6b2b3ba72b" x="265.172055" y="201.227844" style="fill: #b22222; stroke: #b22222"/>
     <use xlink:href="#m6b2b3ba72b" x="256.00452" y="308.547036" style="fill: #b22222; stroke: #b22222"/>
     <use xlink:href="#m6b2b3ba72b" x="250.23696" y="284.406259" style="fill: #b22222; stroke: #b22222"/>
     <use xlink:href="#m6b2b3ba72b" x="252.571731" y="297.833263" style="fill: #b22222; stroke: #b22222"/>
     <use xlink:href="#m6b2b3ba72b" x="253.574758" y="290.826311" style="fill: #b22222; stroke: #b22222"/>
     <use xlink:href="#m6b2b3ba72b" x="259.138151" y="214.735756" style="fill: #b22222; stroke: #b22222"/>
     <use xlink:href="#m6b2b3ba72b" x="245.440072" y="208.155087" style="fill: #b22222; stroke: #b22222"/>
     <use xlink:href="#m6b2b3ba72b" x="265.262411" y="216.363087" style="fill: #b22222; stroke: #b22222"/>
     <use xlink:href="#m6b2b3ba72b" x="261.062418" y="66.96" style="fill: #b22222; stroke: #b22222"/>
     <use xlink:href="#m6b2b3ba72b" x="258.540886" y="81.264501" style="fill: #b22222; stroke: #b22222"/>
     <use xlink:href="#m6b2b3ba72b" x="243.163836" y="98.443797" style="fill: #b22222; stroke: #b22222"/>
     <use xlink:href="#m6b2b3ba72b" x="253.761712" y="118.769504" style="fill: #b22222; stroke: #b22222"/>
     <use xlink:href="#m6b2b3ba72b" x="240.669601" y="272.005689" style="fill: #b22222; stroke: #b22222"/>
     <use xlink:href="#m6b2b3ba72b" x="251.499383" y="221.752301" style="fill: #b22222; stroke: #b22222"/>
     <use xlink:href="#m6b2b3ba72b" x="244.379495" y="216.119208" style="fill: #b22222; stroke: #b22222"/>
     <use xlink:href="#m6b2b3ba72b" x="256.654205" y="238.366988" style="fill: #b22222; stroke: #b22222"/>
    </g>
   </g>
   <g id="patch_3">
    <path d="M 45 384.48 
L 45 51.84 
" style="fill: none; stroke: #000000; stroke-width: 0.8; stroke-linejoin: miter; stroke-linecap: square"/>
   </g>
   <g id="patch_4">
    <path d="M 324 384.48 
L 324 51.84 
" style="fill: none; stroke: #000000; stroke-width: 0.8; stroke-linejoin: miter; stroke-linecap: square"/>
   </g>
   <g id="patch_5">
    <path d="M 45 384.48 
L 324 384.48 
" style="fill: none; stroke: #000000; stroke-width: 0.8; stroke-linejoin: miter; stroke-linecap: square"/>
   </g>
   <g id="patch_6">
    <path d="M 45 51.84 
L 324 51.84 
" style="fill: none; stroke: #000000; stroke-width: 0.8; stroke-linejoin: miter; stroke-linecap: square"/>
   </g>
   <g id="text_12">
    <!-- p = 0.378 -->
    <g transform="translate(163.510156 89.546686) scale(0.1 -0.1)">
     <defs>
      <path id="ArialMT-70" d="M 422 -1272 
L 422 3319 
L 934 3319 
L 934 2888 
Q 1116 3141 1344 3267 
Q 1572 3394 1897 3394 
Q 2322 3394 2647 3175 
Q 2972 2956 3137 2557 
Q 3303 2159 3303 1684 
Q 3303 1175 3120 767 
Q 2938 359 2589 142 
Q 2241 -75 1856 -75 
Q 1575 -75 1351 44 
Q 1128 163 984 344 
L 984 -1272 
L 422 -1272 
z
M 931 1641 
Q 931 1000 1190 694 
Q 1450 388 1819 388 
Q 2194 388 2461 705 
Q 2728 1022 2728 1688 
Q 2728 2322 2467 2637 
Q 2206 2953 1844 2953 
Q 1484 2953 1207 2617 
Q 931 2281 931 1641 
z
" transform="scale(0.015625)"/>
      <path id="ArialMT-3d" d="M 3381 2694 
L 356 2694 
L 356 3219 
L 3381 3219 
L 3381 2694 
z
M 3381 1303 
L 356 1303 
L 356 1828 
L 3381 1828 
L 3381 1303 
z
" transform="scale(0.015625)"/>
      <path id="ArialMT-2e" d="M 581 0 
L 581 641 
L 1222 641 
L 1222 0 
L 581 0 
z
" transform="scale(0.015625)"/>
     </defs>
     <use xlink:href="#ArialMT-70"/>
     <use xlink:href="#ArialMT-20" transform="translate(55.615234 0)"/>
     <use xlink:href="#ArialMT-3d" transform="translate(83.398438 0)"/>
     <use xlink:href="#ArialMT-20" transform="translate(141.796875 0)"/>
     <use xlink:href="#ArialMT-30" transform="translate(169.580078 0)"/>
     <use xlink:href="#ArialMT-2e" transform="translate(225.195312 0)"/>
     <use xlink:href="#ArialMT-33" transform="translate(252.978516 0)"/>
     <use xlink:href="#ArialMT-37" transform="translate(308.59375 0)"/>
     <use xlink:href="#ArialMT-38" transform="translate(364.208984 0)"/>
    </g>
   </g>
  </g>
 </g>
 <defs>
  <clipPath id="pc12b7947ca">
   <rect x="45" y="51.84" width="279" height="332.64"/>
  </clipPath>
 </defs>
</svg>
