<?xml version="1.0" encoding="utf-8" standalone="no"?>
<!DOCTYPE svg PUBLIC "-//W3C//DTD SVG 1.1//EN"
  "http://www.w3.org/Graphics/SVG/1.1/DTD/svg11.dtd">
<svg xmlns:xlink="http://www.w3.org/1999/xlink" width="360pt" height="432pt" viewBox="0 0 360 432" xmlns="http://www.w3.org/2000/svg" version="1.1">
 <metadata>
  <rdf:RDF xmlns:dc="http://purl.org/dc/elements/1.1/" xmlns:cc="http://creativecommons.org/ns#" xmlns:rdf="http://www.w3.org/1999/02/22-rdf-syntax-ns#">
   <cc:Work>
    <dc:type rdf:resource="http://purl.org/dc/dcmitype/StillImage"/>
    <dc:date>2025-08-07T16:10:37.435298</dc:date>
    <dc:format>image/svg+xml</dc:format>
    <dc:creator>
     <cc:Agent>
      <dc:title>Matplotlib v3.10.0, https://matplotlib.org/</dc:title>
     </cc:Agent>
    </dc:creator>
   </cc:Work>
  </rdf:RDF>
 </metadata>
 <defs>
  <style type="text/css">*{stroke-linejoin: round; stroke-linecap: butt}</style>
 </defs>
 <g id="figure_1">
  <g id="patch_1">
   <path d="M 0 432 
L 360 432 
L 360 0 
L 0 0 
z
" style="fill: #ffffff"/>
  </g>
  <g id="axes_1">
   <g id="patch_2">
    <path d="M 62.93 405.56 
L 349.2 405.56 
L 349.2 10.8 
L 62.93 10.8 
z
" style="fill: #ffffff"/>
   </g>
   <g id="line2d_1">
    <path d="M 105.8705 351.718834 
L 163.1245 351.718834 
L 163.1245 239.41085 
L 105.8705 239.41085 
L 105.8705 351.718834 
" clip-path="url(#p115e3c7cb6)" style="fill: none; stroke: #000000; stroke-linecap: square"/>
   </g>
   <g id="line2d_2">
    <path d="M 134.4975 351.718834 
L 134.4975 387.616364 
" clip-path="url(#p115e3c7cb6)" style="fill: none; stroke: #000000; stroke-linecap: square"/>
   </g>
   <g id="line2d_3">
    <path d="M 134.4975 239.41085 
L 134.4975 95.923298 
" clip-path="url(#p115e3c7cb6)" style="fill: none; stroke: #000000; stroke-linecap: square"/>
   </g>
   <g id="line2d_4">
    <path d="M 120.184 387.616364 
L 148.811 387.616364 
" clip-path="url(#p115e3c7cb6)" style="fill: none; stroke: #000000; stroke-linecap: square"/>
   </g>
   <g id="line2d_5">
    <path d="M 120.184 95.923298 
L 148.811 95.923298 
" clip-path="url(#p115e3c7cb6)" style="fill: none; stroke: #000000; stroke-linecap: square"/>
   </g>
   <g id="line2d_6">
    <path d="M 249.0055 352.539349 
L 306.2595 352.539349 
L 306.2595 291.308421 
L 249.0055 291.308421 
L 249.0055 352.539349 
" clip-path="url(#p115e3c7cb6)" style="fill: none; stroke: #000000; stroke-linecap: square"/>
   </g>
   <g id="line2d_7">
    <path d="M 277.6325 352.539349 
L 277.6325 384.539433 
" clip-path="url(#p115e3c7cb6)" style="fill: none; stroke: #000000; stroke-linecap: square"/>
   </g>
   <g id="line2d_8">
    <path d="M 277.6325 291.308421 
L 277.6325 209.256926 
" clip-path="url(#p115e3c7cb6)" style="fill: none; stroke: #000000; stroke-linecap: square"/>
   </g>
   <g id="line2d_9">
    <path d="M 263.319 384.539433 
L 291.946 384.539433 
" clip-path="url(#p115e3c7cb6)" style="fill: none; stroke: #000000; stroke-linecap: square"/>
   </g>
   <g id="line2d_10">
    <path d="M 263.319 209.256926 
L 291.946 209.256926 
" clip-path="url(#p115e3c7cb6)" style="fill: none; stroke: #000000; stroke-linecap: square"/>
   </g>
   <g id="line2d_11">
    <path d="M 105.8705 309.35975 
L 163.1245 309.35975 
" clip-path="url(#p115e3c7cb6)" style="fill: none; stroke: #000000"/>
   </g>
   <g id="line2d_12">
    <path d="M 249.0055 332.846991 
L 306.2595 332.846991 
" clip-path="url(#p115e3c7cb6)" style="fill: none; stroke: #000000"/>
   </g>
   <g id="matplotlib.axis_1">
    <g id="xtick_1">
     <g id="line2d_13">
      <defs>
       <path id="ma22d4d5b07" d="M 0 0 
L 0 3.5 
" style="stroke: #000000; stroke-width: 0.8"/>
      </defs>
      <g>
       <use xlink:href="#ma22d4d5b07" x="134.4975" y="405.56" style="stroke: #000000; stroke-width: 0.8"/>
      </g>
     </g>
     <g id="text_1">
      <!-- 1 -->
      <g transform="translate(131.717031 419.717812) scale(0.1 -0.1)">
       <defs>
        <path id="ArialMT-31" d="M 2384 0 
L 1822 0 
L 1822 3584 
Q 1619 3391 1289 3197 
Q 959 3003 697 2906 
L 697 3450 
Q 1169 3672 1522 3987 
Q 1875 4303 2022 4600 
L 2384 4600 
L 2384 0 
z
" transform="scale(0.015625)"/>
       </defs>
       <use xlink:href="#ArialMT-31"/>
      </g>
     </g>
    </g>
    <g id="xtick_2">
     <g id="line2d_14">
      <g>
       <use xlink:href="#ma22d4d5b07" x="277.6325" y="405.56" style="stroke: #000000; stroke-width: 0.8"/>
      </g>
     </g>
     <g id="text_2">
      <!-- 2 -->
      <g transform="translate(274.852031 419.717812) scale(0.1 -0.1)">
       <defs>
        <path id="ArialMT-32" d="M 3222 541 
L 3222 0 
L 194 0 
Q 188 203 259 391 
Q 375 700 629 1000 
Q 884 1300 1366 1694 
Q 2113 2306 2375 2664 
Q 2638 3022 2638 3341 
Q 2638 3675 2398 3904 
Q 2159 4134 1775 4134 
Q 1369 4134 1125 3890 
Q 881 3647 878 3216 
L 300 3275 
Q 359 3922 746 4261 
Q 1134 4600 1788 4600 
Q 2447 4600 2831 4234 
Q 3216 3869 3216 3328 
Q 3216 3053 3103 2787 
Q 2991 2522 2730 2228 
Q 2469 1934 1863 1422 
Q 1356 997 1212 845 
Q 1069 694 975 541 
L 3222 541 
z
" transform="scale(0.015625)"/>
       </defs>
       <use xlink:href="#ArialMT-32"/>
      </g>
     </g>
    </g>
   </g>
   <g id="matplotlib.axis_2">
    <g id="ytick_1">
     <g id="line2d_15">
      <defs>
       <path id="m28f5c6f4f9" d="M 0 0 
L -3.5 0 
" style="stroke: #000000; stroke-width: 0.8"/>
      </defs>
      <g>
       <use xlink:href="#m28f5c6f4f9" x="62.93" y="390.795859" style="stroke: #000000; stroke-width: 0.8"/>
      </g>
     </g>
     <g id="text_3">
      <!-- 0 -->
      <g transform="translate(50.369063 394.374765) scale(0.1 -0.1)">
       <defs>
        <path id="ArialMT-30" d="M 266 2259 
Q 266 3072 433 3567 
Q 600 4063 929 4331 
Q 1259 4600 1759 4600 
Q 2128 4600 2406 4451 
Q 2684 4303 2865 4023 
Q 3047 3744 3150 3342 
Q 3253 2941 3253 2259 
Q 3253 1453 3087 958 
Q 2922 463 2592 192 
Q 2263 -78 1759 -78 
Q 1097 -78 719 397 
Q 266 969 266 2259 
z
M 844 2259 
Q 844 1131 1108 757 
Q 1372 384 1759 384 
Q 2147 384 2411 759 
Q 2675 1134 2675 2259 
Q 2675 3391 2411 3762 
Q 2147 4134 1753 4134 
Q 1366 4134 1134 3806 
Q 844 3388 844 2259 
z
" transform="scale(0.015625)"/>
       </defs>
       <use xlink:href="#ArialMT-30"/>
      </g>
     </g>
    </g>
    <g id="ytick_2">
     <g id="line2d_16">
      <g>
       <use xlink:href="#m28f5c6f4f9" x="62.93" y="339.513675" style="stroke: #000000; stroke-width: 0.8"/>
      </g>
     </g>
     <g id="text_4">
      <!-- 500 -->
      <g transform="translate(39.247188 343.092581) scale(0.1 -0.1)">
       <defs>
        <path id="ArialMT-35" d="M 266 1200 
L 856 1250 
Q 922 819 1161 601 
Q 1400 384 1738 384 
Q 2144 384 2425 690 
Q 2706 997 2706 1503 
Q 2706 1984 2436 2262 
Q 2166 2541 1728 2541 
Q 1456 2541 1237 2417 
Q 1019 2294 894 2097 
L 366 2166 
L 809 4519 
L 3088 4519 
L 3088 3981 
L 1259 3981 
L 1013 2750 
Q 1425 3038 1878 3038 
Q 2478 3038 2890 2622 
Q 3303 2206 3303 1553 
Q 3303 931 2941 478 
Q 2500 -78 1738 -78 
Q 1113 -78 717 272 
Q 322 622 266 1200 
z
" transform="scale(0.015625)"/>
       </defs>
       <use xlink:href="#ArialMT-35"/>
       <use xlink:href="#ArialMT-30" transform="translate(55.615234 0)"/>
       <use xlink:href="#ArialMT-30" transform="translate(111.230469 0)"/>
      </g>
     </g>
    </g>
    <g id="ytick_3">
     <g id="line2d_17">
      <g>
       <use xlink:href="#m28f5c6f4f9" x="62.93" y="288.23149" style="stroke: #000000; stroke-width: 0.8"/>
      </g>
     </g>
     <g id="text_5">
      <!-- 1000 -->
      <g transform="translate(33.68625 291.810396) scale(0.1 -0.1)">
       <use xlink:href="#ArialMT-31"/>
       <use xlink:href="#ArialMT-30" transform="translate(55.615234 0)"/>
       <use xlink:href="#ArialMT-30" transform="translate(111.230469 0)"/>
       <use xlink:href="#ArialMT-30" transform="translate(166.845703 0)"/>
      </g>
     </g>
    </g>
    <g id="ytick_4">
     <g id="line2d_18">
      <g>
       <use xlink:href="#m28f5c6f4f9" x="62.93" y="236.949306" style="stroke: #000000; stroke-width: 0.8"/>
      </g>
     </g>
     <g id="text_6">
      <!-- 1500 -->
      <g transform="translate(33.68625 240.528212) scale(0.1 -0.1)">
       <use xlink:href="#ArialMT-31"/>
       <use xlink:href="#ArialMT-35" transform="translate(55.615234 0)"/>
       <use xlink:href="#ArialMT-30" transform="translate(111.230469 0)"/>
       <use xlink:href="#ArialMT-30" transform="translate(166.845703 0)"/>
      </g>
     </g>
    </g>
    <g id="ytick_5">
     <g id="line2d_19">
      <g>
       <use xlink:href="#m28f5c6f4f9" x="62.93" y="185.667121" style="stroke: #000000; stroke-width: 0.8"/>
      </g>
     </g>
     <g id="text_7">
      <!-- 2000 -->
      <g transform="translate(33.68625 189.246027) scale(0.1 -0.1)">
       <use xlink:href="#ArialMT-32"/>
       <use xlink:href="#ArialMT-30" transform="translate(55.615234 0)"/>
       <use xlink:href="#ArialMT-30" transform="translate(111.230469 0)"/>
       <use xlink:href="#ArialMT-30" transform="translate(166.845703 0)"/>
      </g>
     </g>
    </g>
    <g id="ytick_6">
     <g id="line2d_20">
      <g>
       <use xlink:href="#m28f5c6f4f9" x="62.93" y="134.384936" style="stroke: #000000; stroke-width: 0.8"/>
      </g>
     </g>
     <g id="text_8">
      <!-- 2500 -->
      <g transform="translate(33.68625 137.963843) scale(0.1 -0.1)">
       <use xlink:href="#ArialMT-32"/>
       <use xlink:href="#ArialMT-35" transform="translate(55.615234 0)"/>
       <use xlink:href="#ArialMT-30" transform="translate(111.230469 0)"/>
       <use xlink:href="#ArialMT-30" transform="translate(166.845703 0)"/>
      </g>
     </g>
    </g>
    <g id="ytick_7">
     <g id="line2d_21">
      <g>
       <use xlink:href="#m28f5c6f4f9" x="62.93" y="83.102752" style="stroke: #000000; stroke-width: 0.8"/>
      </g>
     </g>
     <g id="text_9">
      <!-- 3000 -->
      <g transform="translate(33.68625 86.681658) scale(0.1 -0.1)">
       <defs>
        <path id="ArialMT-33" d="M 269 1209 
L 831 1284 
Q 928 806 1161 595 
Q 1394 384 1728 384 
Q 2125 384 2398 659 
Q 2672 934 2672 1341 
Q 2672 1728 2419 1979 
Q 2166 2231 1775 2231 
Q 1616 2231 1378 2169 
L 1441 2663 
Q 1497 2656 1531 2656 
Q 1891 2656 2178 2843 
Q 2466 3031 2466 3422 
Q 2466 3731 2256 3934 
Q 2047 4138 1716 4138 
Q 1388 4138 1169 3931 
Q 950 3725 888 3313 
L 325 3413 
Q 428 3978 793 4289 
Q 1159 4600 1703 4600 
Q 2078 4600 2393 4439 
Q 2709 4278 2876 4000 
Q 3044 3722 3044 3409 
Q 3044 3113 2884 2869 
Q 2725 2625 2413 2481 
Q 2819 2388 3044 2092 
Q 3269 1797 3269 1353 
Q 3269 753 2831 336 
Q 2394 -81 1725 -81 
Q 1122 -81 723 278 
Q 325 638 269 1209 
z
" transform="scale(0.015625)"/>
       </defs>
       <use xlink:href="#ArialMT-33"/>
       <use xlink:href="#ArialMT-30" transform="translate(55.615234 0)"/>
       <use xlink:href="#ArialMT-30" transform="translate(111.230469 0)"/>
       <use xlink:href="#ArialMT-30" transform="translate(166.845703 0)"/>
      </g>
     </g>
    </g>
    <g id="ytick_8">
     <g id="line2d_22">
      <g>
       <use xlink:href="#m28f5c6f4f9" x="62.93" y="31.820567" style="stroke: #000000; stroke-width: 0.8"/>
      </g>
     </g>
     <g id="text_10">
      <!-- 3500 -->
      <g transform="translate(33.68625 35.399474) scale(0.1 -0.1)">
       <use xlink:href="#ArialMT-33"/>
       <use xlink:href="#ArialMT-35" transform="translate(55.615234 0)"/>
       <use xlink:href="#ArialMT-30" transform="translate(111.230469 0)"/>
       <use xlink:href="#ArialMT-30" transform="translate(166.845703 0)"/>
      </g>
     </g>
    </g>
    <g id="text_11">
     <!-- Outgoing approaches -->
     <g transform="translate(25.476875 303.797187) rotate(-90) scale(0.2 -0.2)">
      <defs>
       <path id="ArialMT-4f" d="M 309 2231 
Q 309 3372 921 4017 
Q 1534 4663 2503 4663 
Q 3138 4663 3647 4359 
Q 4156 4056 4423 3514 
Q 4691 2972 4691 2284 
Q 4691 1588 4409 1038 
Q 4128 488 3612 205 
Q 3097 -78 2500 -78 
Q 1853 -78 1343 234 
Q 834 547 571 1087 
Q 309 1628 309 2231 
z
M 934 2222 
Q 934 1394 1379 917 
Q 1825 441 2497 441 
Q 3181 441 3623 922 
Q 4066 1403 4066 2288 
Q 4066 2847 3877 3264 
Q 3688 3681 3323 3911 
Q 2959 4141 2506 4141 
Q 1863 4141 1398 3698 
Q 934 3256 934 2222 
z
" transform="scale(0.015625)"/>
       <path id="ArialMT-75" d="M 2597 0 
L 2597 488 
Q 2209 -75 1544 -75 
Q 1250 -75 995 37 
Q 741 150 617 320 
Q 494 491 444 738 
Q 409 903 409 1263 
L 409 3319 
L 972 3319 
L 972 1478 
Q 972 1038 1006 884 
Q 1059 663 1231 536 
Q 1403 409 1656 409 
Q 1909 409 2131 539 
Q 2353 669 2445 892 
Q 2538 1116 2538 1541 
L 2538 3319 
L 3100 3319 
L 3100 0 
L 2597 0 
z
" transform="scale(0.015625)"/>
       <path id="ArialMT-74" d="M 1650 503 
L 1731 6 
Q 1494 -44 1306 -44 
Q 1000 -44 831 53 
Q 663 150 594 308 
Q 525 466 525 972 
L 525 2881 
L 113 2881 
L 113 3319 
L 525 3319 
L 525 4141 
L 1084 4478 
L 1084 3319 
L 1650 3319 
L 1650 2881 
L 1084 2881 
L 1084 941 
Q 1084 700 1114 631 
Q 1144 563 1211 522 
Q 1278 481 1403 481 
Q 1497 481 1650 503 
z
" transform="scale(0.015625)"/>
       <path id="ArialMT-67" d="M 319 -275 
L 866 -356 
Q 900 -609 1056 -725 
Q 1266 -881 1628 -881 
Q 2019 -881 2231 -725 
Q 2444 -569 2519 -288 
Q 2563 -116 2559 434 
Q 2191 0 1641 0 
Q 956 0 581 494 
Q 206 988 206 1678 
Q 206 2153 378 2554 
Q 550 2956 876 3175 
Q 1203 3394 1644 3394 
Q 2231 3394 2613 2919 
L 2613 3319 
L 3131 3319 
L 3131 450 
Q 3131 -325 2973 -648 
Q 2816 -972 2473 -1159 
Q 2131 -1347 1631 -1347 
Q 1038 -1347 672 -1080 
Q 306 -813 319 -275 
z
M 784 1719 
Q 784 1066 1043 766 
Q 1303 466 1694 466 
Q 2081 466 2343 764 
Q 2606 1063 2606 1700 
Q 2606 2309 2336 2618 
Q 2066 2928 1684 2928 
Q 1309 2928 1046 2623 
Q 784 2319 784 1719 
z
" transform="scale(0.015625)"/>
       <path id="ArialMT-6f" d="M 213 1659 
Q 213 2581 725 3025 
Q 1153 3394 1769 3394 
Q 2453 3394 2887 2945 
Q 3322 2497 3322 1706 
Q 3322 1066 3130 698 
Q 2938 331 2570 128 
Q 2203 -75 1769 -75 
Q 1072 -75 642 372 
Q 213 819 213 1659 
z
M 791 1659 
Q 791 1022 1069 705 
Q 1347 388 1769 388 
Q 2188 388 2466 706 
Q 2744 1025 2744 1678 
Q 2744 2294 2464 2611 
Q 2184 2928 1769 2928 
Q 1347 2928 1069 2612 
Q 791 2297 791 1659 
z
" transform="scale(0.015625)"/>
       <path id="ArialMT-69" d="M 425 3934 
L 425 4581 
L 988 4581 
L 988 3934 
L 425 3934 
z
M 425 0 
L 425 3319 
L 988 3319 
L 988 0 
L 425 0 
z
" transform="scale(0.015625)"/>
       <path id="ArialMT-6e" d="M 422 0 
L 422 3319 
L 928 3319 
L 928 2847 
Q 1294 3394 1984 3394 
Q 2284 3394 2536 3286 
Q 2788 3178 2913 3003 
Q 3038 2828 3088 2588 
Q 3119 2431 3119 2041 
L 3119 0 
L 2556 0 
L 2556 2019 
Q 2556 2363 2490 2533 
Q 2425 2703 2258 2804 
Q 2091 2906 1866 2906 
Q 1506 2906 1245 2678 
Q 984 2450 984 1813 
L 984 0 
L 422 0 
z
" transform="scale(0.015625)"/>
       <path id="ArialMT-20" transform="scale(0.015625)"/>
       <path id="ArialMT-61" d="M 2588 409 
Q 2275 144 1986 34 
Q 1697 -75 1366 -75 
Q 819 -75 525 192 
Q 231 459 231 875 
Q 231 1119 342 1320 
Q 453 1522 633 1644 
Q 813 1766 1038 1828 
Q 1203 1872 1538 1913 
Q 2219 1994 2541 2106 
Q 2544 2222 2544 2253 
Q 2544 2597 2384 2738 
Q 2169 2928 1744 2928 
Q 1347 2928 1158 2789 
Q 969 2650 878 2297 
L 328 2372 
Q 403 2725 575 2942 
Q 747 3159 1072 3276 
Q 1397 3394 1825 3394 
Q 2250 3394 2515 3294 
Q 2781 3194 2906 3042 
Q 3031 2891 3081 2659 
Q 3109 2516 3109 2141 
L 3109 1391 
Q 3109 606 3145 398 
Q 3181 191 3288 0 
L 2700 0 
Q 2613 175 2588 409 
z
M 2541 1666 
Q 2234 1541 1622 1453 
Q 1275 1403 1131 1340 
Q 988 1278 909 1158 
Q 831 1038 831 891 
Q 831 666 1001 516 
Q 1172 366 1500 366 
Q 1825 366 2078 508 
Q 2331 650 2450 897 
Q 2541 1088 2541 1459 
L 2541 1666 
z
" transform="scale(0.015625)"/>
       <path id="ArialMT-70" d="M 422 -1272 
L 422 3319 
L 934 3319 
L 934 2888 
Q 1116 3141 1344 3267 
Q 1572 3394 1897 3394 
Q 2322 3394 2647 3175 
Q 2972 2956 3137 2557 
Q 3303 2159 3303 1684 
Q 3303 1175 3120 767 
Q 2938 359 2589 142 
Q 2241 -75 1856 -75 
Q 1575 -75 1351 44 
Q 1128 163 984 344 
L 984 -1272 
L 422 -1272 
z
M 931 1641 
Q 931 1000 1190 694 
Q 1450 388 1819 388 
Q 2194 388 2461 705 
Q 2728 1022 2728 1688 
Q 2728 2322 2467 2637 
Q 2206 2953 1844 2953 
Q 1484 2953 1207 2617 
Q 931 2281 931 1641 
z
" transform="scale(0.015625)"/>
       <path id="ArialMT-72" d="M 416 0 
L 416 3319 
L 922 3319 
L 922 2816 
Q 1116 3169 1280 3281 
Q 1444 3394 1641 3394 
Q 1925 3394 2219 3213 
L 2025 2691 
Q 1819 2813 1613 2813 
Q 1428 2813 1281 2702 
Q 1134 2591 1072 2394 
Q 978 2094 978 1738 
L 978 0 
L 416 0 
z
" transform="scale(0.015625)"/>
       <path id="ArialMT-63" d="M 2588 1216 
L 3141 1144 
Q 3050 572 2676 248 
Q 2303 -75 1759 -75 
Q 1078 -75 664 370 
Q 250 816 250 1647 
Q 250 2184 428 2587 
Q 606 2991 970 3192 
Q 1334 3394 1763 3394 
Q 2303 3394 2647 3120 
Q 2991 2847 3088 2344 
L 2541 2259 
Q 2463 2594 2264 2762 
Q 2066 2931 1784 2931 
Q 1359 2931 1093 2626 
Q 828 2322 828 1663 
Q 828 994 1084 691 
Q 1341 388 1753 388 
Q 2084 388 2306 591 
Q 2528 794 2588 1216 
z
" transform="scale(0.015625)"/>
       <path id="ArialMT-68" d="M 422 0 
L 422 4581 
L 984 4581 
L 984 2938 
Q 1378 3394 1978 3394 
Q 2347 3394 2619 3248 
Q 2891 3103 3008 2847 
Q 3125 2591 3125 2103 
L 3125 0 
L 2563 0 
L 2563 2103 
Q 2563 2525 2380 2717 
Q 2197 2909 1863 2909 
Q 1613 2909 1392 2779 
Q 1172 2650 1078 2428 
Q 984 2206 984 1816 
L 984 0 
L 422 0 
z
" transform="scale(0.015625)"/>
       <path id="ArialMT-65" d="M 2694 1069 
L 3275 997 
Q 3138 488 2766 206 
Q 2394 -75 1816 -75 
Q 1088 -75 661 373 
Q 234 822 234 1631 
Q 234 2469 665 2931 
Q 1097 3394 1784 3394 
Q 2450 3394 2872 2941 
Q 3294 2488 3294 1666 
Q 3294 1616 3291 1516 
L 816 1516 
Q 847 969 1125 678 
Q 1403 388 1819 388 
Q 2128 388 2347 550 
Q 2566 713 2694 1069 
z
M 847 1978 
L 2700 1978 
Q 2663 2397 2488 2606 
Q 2219 2931 1791 2931 
Q 1403 2931 1139 2672 
Q 875 2413 847 1978 
z
" transform="scale(0.015625)"/>
       <path id="ArialMT-73" d="M 197 991 
L 753 1078 
Q 800 744 1014 566 
Q 1228 388 1613 388 
Q 2000 388 2187 545 
Q 2375 703 2375 916 
Q 2375 1106 2209 1216 
Q 2094 1291 1634 1406 
Q 1016 1563 777 1677 
Q 538 1791 414 1992 
Q 291 2194 291 2438 
Q 291 2659 392 2848 
Q 494 3038 669 3163 
Q 800 3259 1026 3326 
Q 1253 3394 1513 3394 
Q 1903 3394 2198 3281 
Q 2494 3169 2634 2976 
Q 2775 2784 2828 2463 
L 2278 2388 
Q 2241 2644 2061 2787 
Q 1881 2931 1553 2931 
Q 1166 2931 1000 2803 
Q 834 2675 834 2503 
Q 834 2394 903 2306 
Q 972 2216 1119 2156 
Q 1203 2125 1616 2013 
Q 2213 1853 2448 1751 
Q 2684 1650 2818 1456 
Q 2953 1263 2953 975 
Q 2953 694 2789 445 
Q 2625 197 2315 61 
Q 2006 -75 1616 -75 
Q 969 -75 630 194 
Q 291 463 197 991 
z
" transform="scale(0.015625)"/>
      </defs>
      <use xlink:href="#ArialMT-4f"/>
      <use xlink:href="#ArialMT-75" transform="translate(77.783203 0)"/>
      <use xlink:href="#ArialMT-74" transform="translate(133.398438 0)"/>
      <use xlink:href="#ArialMT-67" transform="translate(161.181641 0)"/>
      <use xlink:href="#ArialMT-6f" transform="translate(216.796875 0)"/>
      <use xlink:href="#ArialMT-69" transform="translate(272.412109 0)"/>
      <use xlink:href="#ArialMT-6e" transform="translate(294.628906 0)"/>
      <use xlink:href="#ArialMT-67" transform="translate(350.244141 0)"/>
      <use xlink:href="#ArialMT-20" transform="translate(405.859375 0)"/>
      <use xlink:href="#ArialMT-61" transform="translate(433.642578 0)"/>
      <use xlink:href="#ArialMT-70" transform="translate(489.257812 0)"/>
      <use xlink:href="#ArialMT-70" transform="translate(544.873047 0)"/>
      <use xlink:href="#ArialMT-72" transform="translate(600.488281 0)"/>
      <use xlink:href="#ArialMT-6f" transform="translate(633.789062 0)"/>
      <use xlink:href="#ArialMT-61" transform="translate(689.404297 0)"/>
      <use xlink:href="#ArialMT-63" transform="translate(745.019531 0)"/>
      <use xlink:href="#ArialMT-68" transform="translate(795.019531 0)"/>
      <use xlink:href="#ArialMT-65" transform="translate(850.634766 0)"/>
      <use xlink:href="#ArialMT-73" transform="translate(906.25 0)"/>
     </g>
    </g>
   </g>
   <g id="line2d_23">
    <path d="M 134.4975 65.295526 
L 134.4975 58.878279 
L 277.6325 58.878279 
L 277.6325 65.295526 
" clip-path="url(#p115e3c7cb6)" style="fill: none; stroke: #000000; stroke-linecap: square"/>
   </g>
   <g id="PathCollection_1">
    <defs>
     <path id="m9908f0d9fd" d="M 0 3.162278 
C 0.838646 3.162278 1.643056 2.82908 2.236068 2.236068 
C 2.82908 1.643056 3.162278 0.838646 3.162278 0 
C 3.162278 -0.838646 2.82908 -1.643056 2.236068 -2.236068 
C 1.643056 -2.82908 0.838646 -3.162278 0 -3.162278 
C -0.838646 -3.162278 -1.643056 -2.82908 -2.236068 -2.236068 
C -2.82908 -1.643056 -3.162278 -0.838646 -3.162278 0 
C -3.162278 0.838646 -2.82908 1.643056 -2.236068 2.236068 
C -1.643056 2.82908 -0.838646 3.162278 0 3.162278 
z
" style="stroke: #a9a9a9"/>
    </defs>
    <g clip-path="url(#p115e3c7cb6)">
     <use xlink:href="#m9908f0d9fd" x="128.561939" y="338.488031" style="fill: #a9a9a9; stroke: #a9a9a9"/>
     <use xlink:href="#m9908f0d9fd" x="136.335526" y="276.128894" style="fill: #a9a9a9; stroke: #a9a9a9"/>
     <use xlink:href="#m9908f0d9fd" x="132.543738" y="304.43666" style="fill: #a9a9a9; stroke: #a9a9a9"/>
     <use xlink:href="#m9908f0d9fd" x="144.773984" y="353.052171" style="fill: #a9a9a9; stroke: #a9a9a9"/>
     <use xlink:href="#m9908f0d9fd" x="131.041382" y="316.744385" style="fill: #a9a9a9; stroke: #a9a9a9"/>
     <use xlink:href="#m9908f0d9fd" x="136.987926" y="327.821336" style="fill: #a9a9a9; stroke: #a9a9a9"/>
     <use xlink:href="#m9908f0d9fd" x="141.775481" y="312.744374" style="fill: #a9a9a9; stroke: #a9a9a9"/>
     <use xlink:href="#m9908f0d9fd" x="154.461924" y="365.872717" style="fill: #a9a9a9; stroke: #a9a9a9"/>
     <use xlink:href="#m9908f0d9fd" x="127.978857" y="301.975115" style="fill: #a9a9a9; stroke: #a9a9a9"/>
     <use xlink:href="#m9908f0d9fd" x="135.014993" y="375.000946" style="fill: #a9a9a9; stroke: #a9a9a9"/>
     <use xlink:href="#m9908f0d9fd" x="129.872298" y="312.846939" style="fill: #a9a9a9; stroke: #a9a9a9"/>
     <use xlink:href="#m9908f0d9fd" x="133.019732" y="330.693139" style="fill: #a9a9a9; stroke: #a9a9a9"/>
     <use xlink:href="#m9908f0d9fd" x="134.442416" y="360.949628" style="fill: #a9a9a9; stroke: #a9a9a9"/>
     <use xlink:href="#m9908f0d9fd" x="132.368818" y="159.923464" style="fill: #a9a9a9; stroke: #a9a9a9"/>
     <use xlink:href="#m9908f0d9fd" x="118.632417" y="232.026216" style="fill: #a9a9a9; stroke: #a9a9a9"/>
     <use xlink:href="#m9908f0d9fd" x="131.190798" y="313.052067" style="fill: #a9a9a9; stroke: #a9a9a9"/>
     <use xlink:href="#m9908f0d9fd" x="127.866429" y="368.539391" style="fill: #a9a9a9; stroke: #a9a9a9"/>
     <use xlink:href="#m9908f0d9fd" x="134.430507" y="272.231448" style="fill: #a9a9a9; stroke: #a9a9a9"/>
     <use xlink:href="#m9908f0d9fd" x="129.809219" y="372.231708" style="fill: #a9a9a9; stroke: #a9a9a9"/>
     <use xlink:href="#m9908f0d9fd" x="126.432364" y="331.000832" style="fill: #a9a9a9; stroke: #a9a9a9"/>
     <use xlink:href="#m9908f0d9fd" x="123.422176" y="324.949534" style="fill: #a9a9a9; stroke: #a9a9a9"/>
     <use xlink:href="#m9908f0d9fd" x="125.937892" y="325.257227" style="fill: #a9a9a9; stroke: #a9a9a9"/>
     <use xlink:href="#m9908f0d9fd" x="148.400891" y="293.564837" style="fill: #a9a9a9; stroke: #a9a9a9"/>
     <use xlink:href="#m9908f0d9fd" x="133.723611" y="161.667059" style="fill: #a9a9a9; stroke: #a9a9a9"/>
     <use xlink:href="#m9908f0d9fd" x="127.076874" y="267.821181" style="fill: #a9a9a9; stroke: #a9a9a9"/>
     <use xlink:href="#m9908f0d9fd" x="128.006197" y="238.077514" style="fill: #a9a9a9; stroke: #a9a9a9"/>
     <use xlink:href="#m9908f0d9fd" x="141.009383" y="351.718834" style="fill: #a9a9a9; stroke: #a9a9a9"/>
     <use xlink:href="#m9908f0d9fd" x="132.378087" y="334.898278" style="fill: #a9a9a9; stroke: #a9a9a9"/>
     <use xlink:href="#m9908f0d9fd" x="141.936621" y="318.077721" style="fill: #a9a9a9; stroke: #a9a9a9"/>
     <use xlink:href="#m9908f0d9fd" x="130.067945" y="384.847126" style="fill: #a9a9a9; stroke: #a9a9a9"/>
     <use xlink:href="#m9908f0d9fd" x="144.126172" y="386.488156" style="fill: #a9a9a9; stroke: #a9a9a9"/>
     <use xlink:href="#m9908f0d9fd" x="125.227371" y="340.847011" style="fill: #a9a9a9; stroke: #a9a9a9"/>
     <use xlink:href="#m9908f0d9fd" x="148.224028" y="387.616364" style="fill: #a9a9a9; stroke: #a9a9a9"/>
     <use xlink:href="#m9908f0d9fd" x="132.56147" y="365.770153" style="fill: #a9a9a9; stroke: #a9a9a9"/>
     <use xlink:href="#m9908f0d9fd" x="126.462965" y="370.488114" style="fill: #a9a9a9; stroke: #a9a9a9"/>
     <use xlink:href="#m9908f0d9fd" x="137.11866" y="300.641779" style="fill: #a9a9a9; stroke: #a9a9a9"/>
     <use xlink:href="#m9908f0d9fd" x="128.844121" y="340.231625" style="fill: #a9a9a9; stroke: #a9a9a9"/>
     <use xlink:href="#m9908f0d9fd" x="139.257632" y="334.693149" style="fill: #a9a9a9; stroke: #a9a9a9"/>
     <use xlink:href="#m9908f0d9fd" x="128.886871" y="305.667433" style="fill: #a9a9a9; stroke: #a9a9a9"/>
     <use xlink:href="#m9908f0d9fd" x="141.933892" y="303.000759" style="fill: #a9a9a9; stroke: #a9a9a9"/>
     <use xlink:href="#m9908f0d9fd" x="123.910528" y="237.667256" style="fill: #a9a9a9; stroke: #a9a9a9"/>
     <use xlink:href="#m9908f0d9fd" x="138.324686" y="283.410965" style="fill: #a9a9a9; stroke: #a9a9a9"/>
     <use xlink:href="#m9908f0d9fd" x="123.825518" y="367.513747" style="fill: #a9a9a9; stroke: #a9a9a9"/>
     <use xlink:href="#m9908f0d9fd" x="131.991699" y="191.205597" style="fill: #a9a9a9; stroke: #a9a9a9"/>
     <use xlink:href="#m9908f0d9fd" x="131.145113" y="123.820806" style="fill: #a9a9a9; stroke: #a9a9a9"/>
     <use xlink:href="#m9908f0d9fd" x="120.356621" y="153.872167" style="fill: #a9a9a9; stroke: #a9a9a9"/>
     <use xlink:href="#m9908f0d9fd" x="133.489827" y="287.923797" style="fill: #a9a9a9; stroke: #a9a9a9"/>
     <use xlink:href="#m9908f0d9fd" x="134.568851" y="301.359729" style="fill: #a9a9a9; stroke: #a9a9a9"/>
     <use xlink:href="#m9908f0d9fd" x="135.840686" y="320.129009" style="fill: #a9a9a9; stroke: #a9a9a9"/>
     <use xlink:href="#m9908f0d9fd" x="143.026529" y="266.385279" style="fill: #a9a9a9; stroke: #a9a9a9"/>
     <use xlink:href="#m9908f0d9fd" x="142.067406" y="309.35975" style="fill: #a9a9a9; stroke: #a9a9a9"/>
     <use xlink:href="#m9908f0d9fd" x="136.878907" y="344.231636" style="fill: #a9a9a9; stroke: #a9a9a9"/>
     <use xlink:href="#m9908f0d9fd" x="147.308076" y="288.744312" style="fill: #a9a9a9; stroke: #a9a9a9"/>
     <use xlink:href="#m9908f0d9fd" x="140.119847" y="327.718772" style="fill: #a9a9a9; stroke: #a9a9a9"/>
     <use xlink:href="#m9908f0d9fd" x="145.78989" y="323.92389" style="fill: #a9a9a9; stroke: #a9a9a9"/>
     <use xlink:href="#m9908f0d9fd" x="130.792138" y="189.051745" style="fill: #a9a9a9; stroke: #a9a9a9"/>
     <use xlink:href="#m9908f0d9fd" x="130.773567" y="294.590481" style="fill: #a9a9a9; stroke: #a9a9a9"/>
     <use xlink:href="#m9908f0d9fd" x="135.908815" y="345.462408" style="fill: #a9a9a9; stroke: #a9a9a9"/>
     <use xlink:href="#m9908f0d9fd" x="138.052562" y="382.898403" style="fill: #a9a9a9; stroke: #a9a9a9"/>
     <use xlink:href="#m9908f0d9fd" x="125.81662" y="379.30865" style="fill: #a9a9a9; stroke: #a9a9a9"/>
     <use xlink:href="#m9908f0d9fd" x="130.276501" y="379.30865" style="fill: #a9a9a9; stroke: #a9a9a9"/>
     <use xlink:href="#m9908f0d9fd" x="119.938631" y="378.795828" style="fill: #a9a9a9; stroke: #a9a9a9"/>
     <use xlink:href="#m9908f0d9fd" x="129.8194" y="374.590689" style="fill: #a9a9a9; stroke: #a9a9a9"/>
     <use xlink:href="#m9908f0d9fd" x="135.408695" y="380.641987" style="fill: #a9a9a9; stroke: #a9a9a9"/>
     <use xlink:href="#m9908f0d9fd" x="126.255204" y="372.334273" style="fill: #a9a9a9; stroke: #a9a9a9"/>
     <use xlink:href="#m9908f0d9fd" x="130.033795" y="377.154798" style="fill: #a9a9a9; stroke: #a9a9a9"/>
     <use xlink:href="#m9908f0d9fd" x="114.755702" y="383.616353" style="fill: #a9a9a9; stroke: #a9a9a9"/>
     <use xlink:href="#m9908f0d9fd" x="132.392247" y="382.385581" style="fill: #a9a9a9; stroke: #a9a9a9"/>
     <use xlink:href="#m9908f0d9fd" x="136.391631" y="377.872749" style="fill: #a9a9a9; stroke: #a9a9a9"/>
     <use xlink:href="#m9908f0d9fd" x="144.276817" y="378.180442" style="fill: #a9a9a9; stroke: #a9a9a9"/>
     <use xlink:href="#m9908f0d9fd" x="136.347466" y="370.693243" style="fill: #a9a9a9; stroke: #a9a9a9"/>
     <use xlink:href="#m9908f0d9fd" x="132.40024" y="282.077628" style="fill: #a9a9a9; stroke: #a9a9a9"/>
     <use xlink:href="#m9908f0d9fd" x="140.946971" y="304.846918" style="fill: #a9a9a9; stroke: #a9a9a9"/>
     <use xlink:href="#m9908f0d9fd" x="133.086863" y="339.308546" style="fill: #a9a9a9; stroke: #a9a9a9"/>
     <use xlink:href="#m9908f0d9fd" x="144.650646" y="305.872562" style="fill: #a9a9a9; stroke: #a9a9a9"/>
     <use xlink:href="#m9908f0d9fd" x="128.405913" y="352.641914" style="fill: #a9a9a9; stroke: #a9a9a9"/>
     <use xlink:href="#m9908f0d9fd" x="120.175418" y="330.180317" style="fill: #a9a9a9; stroke: #a9a9a9"/>
     <use xlink:href="#m9908f0d9fd" x="128.86946" y="320.231573" style="fill: #a9a9a9; stroke: #a9a9a9"/>
     <use xlink:href="#m9908f0d9fd" x="136.342849" y="333.564941" style="fill: #a9a9a9; stroke: #a9a9a9"/>
     <use xlink:href="#m9908f0d9fd" x="126.962373" y="352.949607" style="fill: #a9a9a9; stroke: #a9a9a9"/>
     <use xlink:href="#m9908f0d9fd" x="139.284592" y="337.462387" style="fill: #a9a9a9; stroke: #a9a9a9"/>
     <use xlink:href="#m9908f0d9fd" x="135.753608" y="244.949326" style="fill: #a9a9a9; stroke: #a9a9a9"/>
     <use xlink:href="#m9908f0d9fd" x="134.523123" y="249.564723" style="fill: #a9a9a9; stroke: #a9a9a9"/>
     <use xlink:href="#m9908f0d9fd" x="136.136946" y="211.615906" style="fill: #a9a9a9; stroke: #a9a9a9"/>
     <use xlink:href="#m9908f0d9fd" x="138.466186" y="223.000551" style="fill: #a9a9a9; stroke: #a9a9a9"/>
     <use xlink:href="#m9908f0d9fd" x="126.308169" y="267.410923" style="fill: #a9a9a9; stroke: #a9a9a9"/>
     <use xlink:href="#m9908f0d9fd" x="147.340387" y="28.743636" style="fill: #a9a9a9; stroke: #a9a9a9"/>
     <use xlink:href="#m9908f0d9fd" x="134.306194" y="66.282195" style="fill: #a9a9a9; stroke: #a9a9a9"/>
     <use xlink:href="#m9908f0d9fd" x="147.48803" y="179.615823" style="fill: #a9a9a9; stroke: #a9a9a9"/>
     <use xlink:href="#m9908f0d9fd" x="141.140968" y="281.769935" style="fill: #a9a9a9; stroke: #a9a9a9"/>
     <use xlink:href="#m9908f0d9fd" x="134.575676" y="253.564733" style="fill: #a9a9a9; stroke: #a9a9a9"/>
     <use xlink:href="#m9908f0d9fd" x="120.907645" y="205.051787" style="fill: #a9a9a9; stroke: #a9a9a9"/>
     <use xlink:href="#m9908f0d9fd" x="140.4707" y="221.667215" style="fill: #a9a9a9; stroke: #a9a9a9"/>
     <use xlink:href="#m9908f0d9fd" x="143.152655" y="331.411089" style="fill: #a9a9a9; stroke: #a9a9a9"/>
     <use xlink:href="#m9908f0d9fd" x="122.085929" y="254.795506" style="fill: #a9a9a9; stroke: #a9a9a9"/>
     <use xlink:href="#m9908f0d9fd" x="123.262326" y="219.103105" style="fill: #a9a9a9; stroke: #a9a9a9"/>
     <use xlink:href="#m9908f0d9fd" x="140.351485" y="239.41085" style="fill: #a9a9a9; stroke: #a9a9a9"/>
     <use xlink:href="#m9908f0d9fd" x="135.699914" y="125.872094" style="fill: #a9a9a9; stroke: #a9a9a9"/>
     <use xlink:href="#m9908f0d9fd" x="138.37199" y="105.461784" style="fill: #a9a9a9; stroke: #a9a9a9"/>
     <use xlink:href="#m9908f0d9fd" x="137.096674" y="197.667152" style="fill: #a9a9a9; stroke: #a9a9a9"/>
     <use xlink:href="#m9908f0d9fd" x="133.000789" y="171.513238" style="fill: #a9a9a9; stroke: #a9a9a9"/>
     <use xlink:href="#m9908f0d9fd" x="138.392516" y="239.41085" style="fill: #a9a9a9; stroke: #a9a9a9"/>
     <use xlink:href="#m9908f0d9fd" x="126.61764" y="284.846866" style="fill: #a9a9a9; stroke: #a9a9a9"/>
     <use xlink:href="#m9908f0d9fd" x="139.056613" y="256.641664" style="fill: #a9a9a9; stroke: #a9a9a9"/>
     <use xlink:href="#m9908f0d9fd" x="131.694646" y="104.025883" style="fill: #a9a9a9; stroke: #a9a9a9"/>
     <use xlink:href="#m9908f0d9fd" x="118.335715" y="95.923298" style="fill: #a9a9a9; stroke: #a9a9a9"/>
     <use xlink:href="#m9908f0d9fd" x="128.419286" y="160.641415" style="fill: #a9a9a9; stroke: #a9a9a9"/>
     <use xlink:href="#m9908f0d9fd" x="133.715137" y="199.615875" style="fill: #a9a9a9; stroke: #a9a9a9"/>
     <use xlink:href="#m9908f0d9fd" x="138.8463" y="180.026081" style="fill: #a9a9a9; stroke: #a9a9a9"/>
    </g>
   </g>
   <g id="PathCollection_2">
    <defs>
     <path id="m93b9388e00" d="M 0 3.162278 
C 0.838646 3.162278 1.643056 2.82908 2.236068 2.236068 
C 2.82908 1.643056 3.162278 0.838646 3.162278 0 
C 3.162278 -0.838646 2.82908 -1.643056 2.236068 -2.236068 
C 1.643056 -2.82908 0.838646 -3.162278 0 -3.162278 
C -0.838646 -3.162278 -1.643056 -2.82908 -2.236068 -2.236068 
C -2.82908 -1.643056 -3.162278 -0.838646 -3.162278 0 
C -3.162278 0.838646 -2.82908 1.643056 -2.236068 2.236068 
C -1.643056 2.82908 -0.838646 3.162278 0 3.162278 
z
" style="stroke: #b22222"/>
    </defs>
    <g clip-path="url(#p115e3c7cb6)">
     <use xlink:href="#m93b9388e00" x="283.093509" y="344.641893" style="fill: #b22222; stroke: #b22222"/>
     <use xlink:href="#m93b9388e00" x="270.897512" y="259.410902" style="fill: #b22222; stroke: #b22222"/>
     <use xlink:href="#m93b9388e00" x="289.790609" y="326.180307" style="fill: #b22222; stroke: #b22222"/>
     <use xlink:href="#m93b9388e00" x="273.80368" y="362.590658" style="fill: #b22222; stroke: #b22222"/>
     <use xlink:href="#m93b9388e00" x="270.338341" y="297.359719" style="fill: #b22222; stroke: #b22222"/>
     <use xlink:href="#m93b9388e00" x="277.947854" y="344.539329" style="fill: #b22222; stroke: #b22222"/>
     <use xlink:href="#m93b9388e00" x="283.925642" y="340.744447" style="fill: #b22222; stroke: #b22222"/>
     <use xlink:href="#m93b9388e00" x="277.540616" y="355.923974" style="fill: #b22222; stroke: #b22222"/>
     <use xlink:href="#m93b9388e00" x="288.190759" y="215.000531" style="fill: #b22222; stroke: #b22222"/>
     <use xlink:href="#m93b9388e00" x="272.011929" y="350.282933" style="fill: #b22222; stroke: #b22222"/>
     <use xlink:href="#m93b9388e00" x="294.827859" y="359.000905" style="fill: #b22222; stroke: #b22222"/>
     <use xlink:href="#m93b9388e00" x="277.2582" y="332.846991" style="fill: #b22222; stroke: #b22222"/>
     <use xlink:href="#m93b9388e00" x="289.434436" y="282.077628" style="fill: #b22222; stroke: #b22222"/>
     <use xlink:href="#m93b9388e00" x="274.468497" y="299.411006" style="fill: #b22222; stroke: #b22222"/>
     <use xlink:href="#m93b9388e00" x="260.011331" y="130.282362" style="fill: #b22222; stroke: #b22222"/>
     <use xlink:href="#m93b9388e00" x="277.23349" y="341.564962" style="fill: #b22222; stroke: #b22222"/>
     <use xlink:href="#m93b9388e00" x="282.079176" y="352.539349" style="fill: #b22222; stroke: #b22222"/>
     <use xlink:href="#m93b9388e00" x="279.89926" y="343.103427" style="fill: #b22222; stroke: #b22222"/>
     <use xlink:href="#m93b9388e00" x="280.051327" y="300.43665" style="fill: #b22222; stroke: #b22222"/>
     <use xlink:href="#m93b9388e00" x="280.885889" y="335.513664" style="fill: #b22222; stroke: #b22222"/>
     <use xlink:href="#m93b9388e00" x="282.272056" y="295.616125" style="fill: #b22222; stroke: #b22222"/>
     <use xlink:href="#m93b9388e00" x="282.633043" y="259.616031" style="fill: #b22222; stroke: #b22222"/>
     <use xlink:href="#m93b9388e00" x="276.826827" y="209.256926" style="fill: #b22222; stroke: #b22222"/>
     <use xlink:href="#m93b9388e00" x="281.772161" y="269.667339" style="fill: #b22222; stroke: #b22222"/>
     <use xlink:href="#m93b9388e00" x="286.810763" y="154.077295" style="fill: #b22222; stroke: #b22222"/>
     <use xlink:href="#m93b9388e00" x="280.497274" y="302.693066" style="fill: #b22222; stroke: #b22222"/>
     <use xlink:href="#m93b9388e00" x="273.058565" y="384.539433" style="fill: #b22222; stroke: #b22222"/>
     <use xlink:href="#m93b9388e00" x="274.173751" y="377.359927" style="fill: #b22222; stroke: #b22222"/>
     <use xlink:href="#m93b9388e00" x="276.855472" y="381.66763" style="fill: #b22222; stroke: #b22222"/>
     <use xlink:href="#m93b9388e00" x="272.385373" y="378.795828" style="fill: #b22222; stroke: #b22222"/>
     <use xlink:href="#m93b9388e00" x="286.124171" y="383.103531" style="fill: #b22222; stroke: #b22222"/>
     <use xlink:href="#m93b9388e00" x="270.041939" y="376.744541" style="fill: #b22222; stroke: #b22222"/>
     <use xlink:href="#m93b9388e00" x="293.711356" y="375.924026" style="fill: #b22222; stroke: #b22222"/>
     <use xlink:href="#m93b9388e00" x="272.953443" y="333.052119" style="fill: #b22222; stroke: #b22222"/>
     <use xlink:href="#m93b9388e00" x="275.972447" y="149.872156" style="fill: #b22222; stroke: #b22222"/>
     <use xlink:href="#m93b9388e00" x="266.348917" y="264.128863" style="fill: #b22222; stroke: #b22222"/>
     <use xlink:href="#m93b9388e00" x="269.739344" y="301.975115" style="fill: #b22222; stroke: #b22222"/>
     <use xlink:href="#m93b9388e00" x="268.260212" y="351.61627" style="fill: #b22222; stroke: #b22222"/>
     <use xlink:href="#m93b9388e00" x="276.627422" y="331.513654" style="fill: #b22222; stroke: #b22222"/>
     <use xlink:href="#m93b9388e00" x="280.822416" y="328.231594" style="fill: #b22222; stroke: #b22222"/>
     <use xlink:href="#m93b9388e00" x="274.417062" y="291.308421" style="fill: #b22222; stroke: #b22222"/>
    </g>
   </g>
   <g id="patch_3">
    <path d="M 62.93 405.56 
L 62.93 10.8 
" style="fill: none; stroke: #000000; stroke-width: 0.8; stroke-linejoin: miter; stroke-linecap: square"/>
   </g>
   <g id="patch_4">
    <path d="M 62.93 405.56 
L 349.2 405.56 
" style="fill: none; stroke: #000000; stroke-width: 0.8; stroke-linejoin: miter; stroke-linecap: square"/>
   </g>
   <g id="text_12">
    <!-- p = 0.1 -->
    <g transform="translate(190.636094 53.682155) scale(0.1 -0.1)">
     <defs>
      <path id="ArialMT-3d" d="M 3381 2694 
L 356 2694 
L 356 3219 
L 3381 3219 
L 3381 2694 
z
M 3381 1303 
L 356 1303 
L 356 1828 
L 3381 1828 
L 3381 1303 
z
" transform="scale(0.015625)"/>
      <path id="ArialMT-2e" d="M 581 0 
L 581 641 
L 1222 641 
L 1222 0 
L 581 0 
z
" transform="scale(0.015625)"/>
     </defs>
     <use xlink:href="#ArialMT-70"/>
     <use xlink:href="#ArialMT-20" transform="translate(55.615234 0)"/>
     <use xlink:href="#ArialMT-3d" transform="translate(83.398438 0)"/>
     <use xlink:href="#ArialMT-20" transform="translate(141.796875 0)"/>
     <use xlink:href="#ArialMT-30" transform="translate(169.580078 0)"/>
     <use xlink:href="#ArialMT-2e" transform="translate(225.195312 0)"/>
     <use xlink:href="#ArialMT-31" transform="translate(252.978516 0)"/>
    </g>
   </g>
  </g>
 </g>
 <defs>
  <clipPath id="p115e3c7cb6">
   <rect x="62.93" y="10.8" width="286.27" height="394.76"/>
  </clipPath>
 </defs>
</svg>
