<?xml version="1.0" encoding="UTF-8" standalone="no"?>
<svg
   width="293.76pt"
   height="351.36pt"
   viewBox="0 0 293.76 351.36"
   version="1.1"
   id="svg114"
   sodipodi:docname="time_in_arena.svg"
   inkscape:version="1.3.2 (091e20e, 2023-11-25, custom)"
   xmlns:inkscape="http://www.inkscape.org/namespaces/inkscape"
   xmlns:sodipodi="http://sodipodi.sourceforge.net/DTD/sodipodi-0.dtd"
   xmlns:xlink="http://www.w3.org/1999/xlink"
   xmlns="http://www.w3.org/2000/svg"
   xmlns:svg="http://www.w3.org/2000/svg"
   xmlns:rdf="http://www.w3.org/1999/02/22-rdf-syntax-ns#"
   xmlns:cc="http://creativecommons.org/ns#"
   xmlns:dc="http://purl.org/dc/elements/1.1/">
  <sodipodi:namedview
     id="namedview114"
     pagecolor="#ffffff"
     bordercolor="#000000"
     borderopacity="0.25"
     inkscape:showpageshadow="2"
     inkscape:pageopacity="0.0"
     inkscape:pagecheckerboard="0"
     inkscape:deskcolor="#d1d1d1"
     inkscape:document-units="pt"
     showgrid="true"
     inkscape:zoom="1.2391878"
     inkscape:cx="96.434132"
     inkscape:cy="205.37646"
     inkscape:window-width="1920"
     inkscape:window-height="1017"
     inkscape:window-x="-8"
     inkscape:window-y="-8"
     inkscape:window-maximized="1"
     inkscape:current-layer="patch_1">
    <inkscape:grid
       id="grid114"
       units="pt"
       originx="0"
       originy="0"
       spacingx="0.99999994"
       spacingy="1"
       empcolor="#0099e5"
       empopacity="0.30196078"
       color="#0099e5"
       opacity="0.14902"
       empspacing="5"
       dotted="false"
       gridanglex="30"
       gridanglez="30"
       visible="true" />
  </sodipodi:namedview>
  <metadata
     id="metadata1">
    <rdf:RDF>
      <cc:Work>
        <dc:type
           rdf:resource="http://purl.org/dc/dcmitype/StillImage" />
        <dc:date>2024-09-03T15:27:37.782590</dc:date>
        <dc:format>image/svg+xml</dc:format>
        <dc:creator>
          <cc:Agent>
            <dc:title>Matplotlib v3.5.2, https://matplotlib.org/</dc:title>
          </cc:Agent>
        </dc:creator>
      </cc:Work>
    </rdf:RDF>
  </metadata>
  <defs
     id="defs1">
    <style
       type="text/css"
       id="style1">*{stroke-linejoin: round; stroke-linecap: butt}</style>
  </defs>
  <g
     id="figure_1">
    <g
       id="patch_1"
       inkscape:export-filename="time_in_arena_both.png"
       inkscape:export-xdpi="96"
       inkscape:export-ydpi="96">
      <path
         d="M 0,351.36 H 293.76 V -15.130878 H 0 Z"
         style="fill:#ffffff;stroke-width:1.0213"
         id="path1"
         inkscape:export-filename="time_in_arena_both.png"
         inkscape:export-xdpi="300"
         inkscape:export-ydpi="300" />
    </g>
    <g
       id="axes_1">
      <g
         id="patch_2">
        <path
           d="M 69.901801 323.453134  L 282.040851 323.453134  L 282.040851 8.486957  L 69.901801 8.486957  z "
           style="fill: #ffffff"
           id="path2" />
      </g>
      <g
         id="matplotlib.axis_1">
        <g
           id="xtick_1">
          <g
             id="line2d_1">
            <defs
               id="defs2">
              <path
                 id="m800c916e35"
                 d="M 0 0  L 0 3.5  "
                 style="stroke: #000000; stroke-width: 0.8" />
            </defs>
            <g
               id="g2">
              <use
                 xlink:href="#m800c916e35"
                 x="105.258309"
                 y="323.453134"
                 style="stroke: #000000; stroke-width: 0.8"
                 id="use2" />
            </g>
          </g>
          <g
             id="text_1">
            <!-- RC -->
            <g
               transform="translate(92.088465 344.290131)scale(0.2 -0.2)"
               id="g4">
              <defs
                 id="defs3">
                <path
                   id="CMR17-52"
                   d="M 2509 2156  C 3117 2278 3629 2689 3629 3203  C 3629 3806 2950 4352 2054 4352  L 333 4352  L 333 4185  C 774 4185 845 4185 845 3896  L 845 428  C 845 140 774 140 333 140  L 333 -26  C 518 -13 851 -13 1050 -13  C 1248 -13 1581 -13 1766 -26  L 1766 140  C 1325 140 1254 140 1254 428  L 1254 2112  L 2003 2112  C 2368 2112 2573 1964 2662 1881  C 2918 1632 2918 1459 2918 1024  C 2918 595 2918 377 3110 160  C 3354 -103 3680 -128 3821 -128  C 4294 -128 4365 403 4365 512  C 4365 550 4365 595 4307 595  C 4256 595 4250 556 4250 531  C 4218 115 4032 -26 3834 -26  C 3482 -26 3443 377 3405 768  C 3386 902 3373 998 3360 1139  C 3322 1459 3270 1926 2509 2156  z M 1984 2214  L 1254 2214  L 1254 3935  C 1254 4153 1267 4185 1523 4185  L 1990 4185  C 2522 4185 3142 3999 3142 3203  C 3142 2374 2464 2214 1984 2214  z "
                   transform="scale(0.015625)" />
                <path
                   id="CMR17-43"
                   d="M 3974 4351  C 3974 4467 3968 4473 3930 4473  C 3904 4473 3898 4467 3853 4390  L 3571 3849  C 3258 4249 2874 4480 2381 4480  C 1286 4480 294 3507 294 2179  C 294 837 1286 -128 2387 -128  C 3366 -128 3974 741 3974 1482  C 3974 1547 3974 1573 3917 1573  C 3866 1573 3866 1553 3859 1495  C 3808 592 3168 38 2477 38  C 1824 38 781 502 781 2179  C 781 3862 1843 4313 2464 4313  C 3187 4313 3712 3681 3834 2785  C 3846 2707 3846 2695 3904 2695  C 3974 2695 3974 2707 3974 2824  L 3974 4351  z "
                   transform="scale(0.015625)" />
              </defs>
              <use
                 xlink:href="#CMR17-52"
                 transform="scale(0.996264)"
                 id="use3" />
              <use
                 xlink:href="#CMR17-43"
                 transform="translate(65.188648 0)scale(0.996264)"
                 id="use4" />
            </g>
          </g>
        </g>
        <g
           id="xtick_2">
          <g
             id="line2d_2">
            <g
               id="g5">
              <use
                 xlink:href="#m800c916e35"
                 x="175.971326"
                 y="323.453134"
                 style="stroke: #000000; stroke-width: 0.8"
                 id="use5" />
            </g>
          </g>
          <g
             id="text_2">
            <!-- Mutants -->
            <g
               transform="translate(142.37848 344.290131)scale(0.2 -0.2)"
               id="g12">
              <defs
                 id="defs5">
                <path
                   id="CMR17-4d"
                   d="M 1338 4249  C 1299 4345 1293 4352 1158 4352  L 339 4352  L 339 4185  C 781 4185 851 4185 851 3898  L 851 624  C 851 465 851 166 339 166  L 339 0  C 486 12 755 12 915 12  C 1075 12 1344 12 1491 0  L 1491 166  C 979 166 979 465 979 624  L 979 4159  L 986 4159  L 2490 102  C 2515 38 2528 0 2579 0  C 2630 0 2643 38 2669 102  L 4186 4191  L 4192 4191  L 4192 453  C 4192 166 4122 166 3680 166  L 3680 0  C 3853 12 4198 12 4384 12  C 4570 12 4922 12 5094 0  L 5094 166  C 4653 166 4582 166 4582 453  L 4582 3898  C 4582 4185 4653 4185 5094 4185  L 5094 4352  L 4282 4352  C 4147 4352 4141 4345 4102 4249  L 2720 516  L 1338 4249  z "
                   transform="scale(0.015625)" />
                <path
                   id="CMR17-75"
                   d="M 1882 2745  L 1882 2579  C 2259 2579 2317 2540 2317 2229  L 2317 1053  C 2317 510 2029 38 1555 38  C 1030 38 986 355 986 691  L 986 2816  L 211 2745  L 211 2579  C 467 2579 640 2579 646 2320  L 646 1079  C 646 646 646 368 813 187  C 896 103 1056 -64 1517 -64  C 2061 -64 2272 400 2323 536  L 2330 536  L 2330 -64  L 3091 -13  L 3091 154  C 2714 154 2656 193 2656 503  L 2656 2816  L 1882 2745  z "
                   transform="scale(0.015625)" />
                <path
                   id="CMR17-74"
                   d="M 966 2585  L 1862 2585  L 1862 2752  L 966 2752  L 966 3968  L 851 3968  C 838 3292 614 2700 70 2687  L 70 2585  L 627 2585  L 627 778  C 627 655 627 -64 1370 -64  C 1747 -64 1965 308 1965 784  L 1965 1151  L 1850 1151  L 1850 790  C 1850 347 1677 51 1408 51  C 1222 51 966 179 966 765  L 966 2585  z "
                   transform="scale(0.015625)" />
                <path
                   id="CMR17-61"
                   d="M 2304 1656  C 2304 2048 2304 2275 2035 2534  C 1798 2751 1523 2816 1306 2816  C 800 2816 435 2408 435 1977  C 435 1740 627 1728 666 1728  C 749 1728 896 1779 896 1958  C 896 2118 774 2188 666 2188  C 640 2188 608 2182 589 2176  C 723 2594 1069 2713 1293 2713  C 1613 2713 1965 2421 1965 1875  L 1965 1632  C 1587 1619 1133 1568 774 1373  C 371 1147 256 822 256 576  C 256 77 832 -64 1171 -64  C 1523 -64 1850 135 1990 505  C 2003 219 2182 -39 2464 -39  C 2598 -39 2938 51 2938 563  L 2938 926  L 2822 926  L 2822 557  C 2822 161 2650 109 2566 109  C 2304 109 2304 446 2304 732  L 2304 1656  z M 1965 887  C 1965 323 1568 38 1216 38  C 896 38 646 278 646 576  C 646 771 730 1114 1101 1322  C 1408 1497 1760 1523 1965 1536  L 1965 887  z "
                   transform="scale(0.015625)" />
                <path
                   id="CMR17-6e"
                   d="M 2656 1954  C 2656 2282 2592 2816 1837 2816  C 1331 2816 1069 2424 973 2166  L 966 2166  L 966 2816  L 211 2745  L 211 2578  C 589 2578 646 2540 646 2231  L 646 443  C 646 198 621 166 211 166  L 211 0  C 365 12 646 12 813 12  C 979 12 1267 12 1421 0  L 1421 166  C 1011 166 986 192 986 443  L 986 1678  C 986 2269 1344 2713 1792 2713  C 2266 2713 2317 2289 2317 1980  L 2317 443  C 2317 198 2291 166 1882 166  L 1882 0  C 2035 12 2317 12 2483 12  C 2650 12 2938 12 3091 0  L 3091 166  C 2682 166 2656 192 2656 443  L 2656 1954  z "
                   transform="scale(0.015625)" />
                <path
                   id="CMR17-73"
                   d="M 1978 2688  C 1978 2803 1971 2809 1933 2809  C 1907 2809 1901 2803 1824 2707  C 1805 2681 1747 2617 1728 2592  C 1523 2809 1235 2816 1126 2816  C 416 2816 160 2444 160 2073  C 160 1497 813 1363 998 1324  C 1402 1241 1542 1216 1677 1100  C 1760 1024 1901 883 1901 652  C 1901 384 1747 38 1158 38  C 602 38 403 460 288 1024  C 269 1113 269 1120 218 1120  C 166 1120 160 1113 160 985  L 160 64  C 160 -52 166 -58 205 -58  C 237 -58 243 -52 275 0  C 314 57 410 211 448 275  C 576 102 800 -64 1158 -64  C 1792 -64 2131 281 2131 780  C 2131 1107 1958 1280 1875 1356  C 1683 1555 1459 1600 1190 1651  C 838 1728 390 1817 390 2208  C 390 2374 480 2726 1126 2726  C 1811 2726 1850 2086 1862 1881  C 1869 1849 1901 1843 1920 1843  C 1978 1843 1978 1862 1978 1971  L 1978 2688  z "
                   transform="scale(0.015625)" />
              </defs>
              <use
                 xlink:href="#CMR17-4d"
                 transform="scale(0.996264)"
                 id="use6" />
              <use
                 xlink:href="#CMR17-75"
                 transform="translate(84.686941 0)scale(0.996264)"
                 id="use7" />
              <use
                 xlink:href="#CMR17-74"
                 transform="translate(135.58231 0)scale(0.996264)"
                 id="use8" />
              <use
                 xlink:href="#CMR17-61"
                 transform="translate(170.863078 0)scale(0.996264)"
                 id="use9" />
              <use
                 xlink:href="#CMR17-6e"
                 transform="translate(216.553555 0)scale(0.996264)"
                 id="use10" />
              <use
                 xlink:href="#CMR17-74"
                 transform="translate(264.846471 0)scale(0.996264)"
                 id="use11" />
              <use
                 xlink:href="#CMR17-73"
                 transform="translate(300.127239 0)scale(0.996264)"
                 id="use12" />
            </g>
          </g>
        </g>
        <g
           id="xtick_3">
          <g
             id="line2d_3">
            <g
               id="g13">
              <use
                 xlink:href="#m800c916e35"
                 x="246.684343"
                 y="323.453134"
                 style="stroke: #000000; stroke-width: 0.8"
                 id="use13" />
            </g>
          </g>
          <g
             id="text_3">
            <!-- Others -->
            <g
               transform="translate(219.738484 344.290131)scale(0.2 -0.2)"
               id="g19">
              <defs
                 id="defs13">
                <path
                   id="CMR17-4f"
                   d="M 4307 2166  C 4307 3488 3366 4480 2304 4480  C 1216 4480 294 3475 294 2166  C 294 857 1229 -128 2298 -128  C 3392 -128 4307 876 4307 2166  z M 2304 -13  C 1574 -13 781 722 781 2250  C 781 3771 1651 4364 2298 4364  C 2976 4364 3821 3752 3821 2250  C 3821 696 3008 -13 2304 -13  z "
                   transform="scale(0.015625)" />
                <path
                   id="CMR17-68"
                   d="M 2656 1954  C 2656 2282 2592 2816 1837 2816  C 1312 2816 1056 2392 979 2179  L 973 2179  L 973 4416  L 211 4345  L 211 4179  C 589 4179 646 4141 646 3843  L 646 443  C 646 198 621 166 211 166  L 211 0  C 365 12 646 12 813 12  C 979 12 1267 12 1421 0  L 1421 166  C 1011 166 986 192 986 443  L 986 1678  C 986 2269 1344 2713 1792 2713  C 2266 2713 2317 2289 2317 1980  L 2317 443  C 2317 198 2291 166 1882 166  L 1882 0  C 2035 12 2317 12 2483 12  C 2650 12 2938 12 3091 0  L 3091 166  C 2682 166 2656 192 2656 443  L 2656 1954  z "
                   transform="scale(0.015625)" />
                <path
                   id="CMR17-65"
                   d="M 2438 1503  C 2464 1529 2464 1542 2464 1606  C 2464 2251 2118 2816 1389 2816  C 710 2816 173 2175 173 1394  C 173 554 781 -64 1459 -64  C 2176 -64 2458 619 2458 755  C 2458 800 2419 800 2406 800  C 2362 800 2355 787 2330 709  C 2189 270 1837 51 1504 51  C 1229 51 954 206 781 490  C 582 819 582 1200 582 1503  L 2438 1503  z M 589 1600  C 634 2511 1126 2713 1382 2713  C 1818 2713 2112 2308 2118 1600  L 589 1600  z "
                   transform="scale(0.015625)" />
                <path
                   id="CMR17-72"
                   d="M 960 1517  C 960 2134 1222 2713 1702 2713  C 1747 2713 1792 2707 1837 2687  C 1837 2687 1696 2642 1696 2475  C 1696 2321 1818 2257 1914 2257  C 1990 2257 2131 2302 2131 2482  C 2131 2687 1926 2816 1709 2816  C 1222 2816 1011 2340 947 2115  L 941 2115  L 941 2816  L 198 2745  L 198 2578  C 576 2578 634 2540 634 2231  L 634 443  C 634 198 608 166 198 166  L 198 0  C 352 12 646 12 813 12  C 998 12 1325 12 1498 0  L 1498 166  C 1037 166 960 166 960 455  L 960 1517  z "
                   transform="scale(0.015625)" />
              </defs>
              <use
                 xlink:href="#CMR17-4f"
                 transform="scale(0.996264)"
                 id="use14" />
              <use
                 xlink:href="#CMR17-74"
                 transform="translate(71.714788 0)scale(0.996264)"
                 id="use15" />
              <use
                 xlink:href="#CMR17-68"
                 transform="translate(106.995556 0)scale(0.996264)"
                 id="use16" />
              <use
                 xlink:href="#CMR17-65"
                 transform="translate(157.890926 0)scale(0.996264)"
                 id="use17" />
              <use
                 xlink:href="#CMR17-72"
                 transform="translate(198.376586 0)scale(0.996264)"
                 id="use18" />
              <use
                 xlink:href="#CMR17-73"
                 transform="translate(233.657354 0)scale(0.996264)"
                 id="use19" />
            </g>
          </g>
        </g>
      </g>
      <g
         id="matplotlib.axis_2">
        <g
           id="ytick_1">
          <g
             id="line2d_4">
            <defs
               id="defs19">
              <path
                 id="md03fca24cc"
                 d="M 0 0  L -3.5 0  "
                 style="stroke: #000000; stroke-width: 0.8" />
            </defs>
            <g
               id="g20">
              <use
                 xlink:href="#md03fca24cc"
                 x="69.901801"
                 y="310.969671"
                 style="stroke: #000000; stroke-width: 0.8"
                 id="use20" />
            </g>
          </g>
          <g
             id="text_4">
            <!-- $\mathdefault{0}$ -->
            <g
               transform="translate(57.920466 314.42892)scale(0.1 -0.1)"
               id="g21">
              <defs
                 id="defs20">
                <path
                   id="CMR17-30"
                   d="M 2688 2038  C 2688 2430 2682 3099 2413 3613  C 2176 4063 1798 4224 1466 4224  C 1158 4224 768 4082 525 3620  C 269 3137 243 2539 243 2038  C 243 1671 250 1112 448 623  C 723 -39 1216 -128 1466 -128  C 1760 -128 2208 -7 2470 604  C 2662 1048 2688 1568 2688 2038  z M 1466 -26  C 1056 -26 813 328 723 816  C 653 1196 653 1749 653 2109  C 653 2604 653 3015 736 3407  C 858 3954 1216 4121 1466 4121  C 1728 4121 2067 3947 2189 3420  C 2272 3054 2278 2623 2278 2109  C 2278 1691 2278 1176 2202 797  C 2067 96 1690 -26 1466 -26  z "
                   transform="scale(0.015625)" />
              </defs>
              <use
                 xlink:href="#CMR17-30"
                 transform="scale(0.996264)"
                 id="use21" />
            </g>
          </g>
        </g>
        <g
           id="ytick_2">
          <g
             id="line2d_5">
            <g
               id="g22">
              <use
                 xlink:href="#md03fca24cc"
                 x="69.901801"
                 y="275.595247"
                 style="stroke: #000000; stroke-width: 0.8"
                 id="use22" />
            </g>
          </g>
          <g
             id="text_5">
            <!-- $\mathdefault{2000}$ -->
            <g
               transform="translate(42.97646 279.054496)scale(0.1 -0.1)"
               id="g26">
              <defs
                 id="defs22">
                <path
                   id="CMR17-32"
                   d="M 2669 990  L 2554 990  C 2490 537 2438 460 2413 422  C 2381 371 1920 371 1830 371  L 602 371  C 832 620 1280 1073 1824 1596  C 2214 1966 2669 2400 2669 3033  C 2669 3788 2067 4224 1395 4224  C 691 4224 262 3603 262 3027  C 262 2777 448 2745 525 2745  C 589 2745 781 2783 781 3007  C 781 3206 614 3264 525 3264  C 486 3264 448 3257 422 3244  C 544 3788 915 4057 1306 4057  C 1862 4057 2227 3616 2227 3033  C 2227 2477 1901 1998 1536 1583  L 262 147  L 262 0  L 2515 0  L 2669 990  z "
                   transform="scale(0.015625)" />
              </defs>
              <use
                 xlink:href="#CMR17-32"
                 transform="scale(0.996264)"
                 id="use23" />
              <use
                 xlink:href="#CMR17-30"
                 transform="translate(45.690477 0)scale(0.996264)"
                 id="use24" />
              <use
                 xlink:href="#CMR17-30"
                 transform="translate(91.380954 0)scale(0.996264)"
                 id="use25" />
              <use
                 xlink:href="#CMR17-30"
                 transform="translate(137.071431 0)scale(0.996264)"
                 id="use26" />
            </g>
          </g>
        </g>
        <g
           id="ytick_3">
          <g
             id="line2d_6">
            <g
               id="g27">
              <use
                 xlink:href="#md03fca24cc"
                 x="69.901801"
                 y="240.220823"
                 style="stroke: #000000; stroke-width: 0.8"
                 id="use27" />
            </g>
          </g>
          <g
             id="text_6">
            <!-- $\mathdefault{4000}$ -->
            <g
               transform="translate(42.97646 243.680073)scale(0.1 -0.1)"
               id="g31">
              <defs
                 id="defs27">
                <path
                   id="CMR17-34"
                   d="M 2150 4147  C 2150 4281 2144 4288 2029 4288  L 128 1254  L 128 1088  L 1779 1088  L 1779 460  C 1779 230 1766 166 1318 166  L 1197 166  L 1197 0  C 1402 12 1747 12 1965 12  C 2182 12 2528 12 2733 0  L 2733 166  L 2611 166  C 2163 166 2150 230 2150 460  L 2150 1088  L 2803 1088  L 2803 1254  L 2150 1254  L 2150 4147  z M 1798 3723  L 1798 1254  L 256 1254  L 1798 3723  z "
                   transform="scale(0.015625)" />
              </defs>
              <use
                 xlink:href="#CMR17-34"
                 transform="scale(0.996264)"
                 id="use28" />
              <use
                 xlink:href="#CMR17-30"
                 transform="translate(45.690477 0)scale(0.996264)"
                 id="use29" />
              <use
                 xlink:href="#CMR17-30"
                 transform="translate(91.380954 0)scale(0.996264)"
                 id="use30" />
              <use
                 xlink:href="#CMR17-30"
                 transform="translate(137.071431 0)scale(0.996264)"
                 id="use31" />
            </g>
          </g>
        </g>
        <g
           id="ytick_4">
          <g
             id="line2d_7">
            <g
               id="g32">
              <use
                 xlink:href="#md03fca24cc"
                 x="69.901801"
                 y="204.8464"
                 style="stroke: #000000; stroke-width: 0.8"
                 id="use32" />
            </g>
          </g>
          <g
             id="text_7">
            <!-- $\mathdefault{6000}$ -->
            <g
               transform="translate(42.97646 208.305649)scale(0.1 -0.1)"
               id="g36">
              <defs
                 id="defs32">
                <path
                   id="CMR17-36"
                   d="M 678 2198  C 678 3712 1395 4076 1811 4076  C 1946 4076 2272 4049 2400 3782  C 2298 3782 2106 3782 2106 3558  C 2106 3385 2246 3328 2336 3328  C 2394 3328 2566 3353 2566 3571  C 2566 3987 2246 4224 1805 4224  C 1043 4224 243 3411 243 2011  C 243 257 966 -128 1478 -128  C 2099 -128 2688 431 2688 1295  C 2688 2101 2170 2688 1517 2688  C 1126 2688 838 2430 678 1979  L 678 2198  z M 1478 25  C 691 25 691 1212 691 1450  C 691 1914 909 2585 1504 2585  C 1613 2585 1926 2585 2138 2140  C 2253 1889 2253 1624 2253 1302  C 2253 954 2253 696 2118 438  C 1978 173 1773 25 1478 25  z "
                   transform="scale(0.015625)" />
              </defs>
              <use
                 xlink:href="#CMR17-36"
                 transform="scale(0.996264)"
                 id="use33" />
              <use
                 xlink:href="#CMR17-30"
                 transform="translate(45.690477 0)scale(0.996264)"
                 id="use34" />
              <use
                 xlink:href="#CMR17-30"
                 transform="translate(91.380954 0)scale(0.996264)"
                 id="use35" />
              <use
                 xlink:href="#CMR17-30"
                 transform="translate(137.071431 0)scale(0.996264)"
                 id="use36" />
            </g>
          </g>
        </g>
        <g
           id="ytick_5">
          <g
             id="line2d_8">
            <g
               id="g37">
              <use
                 xlink:href="#md03fca24cc"
                 x="69.901801"
                 y="169.471976"
                 style="stroke: #000000; stroke-width: 0.8"
                 id="use37" />
            </g>
          </g>
          <g
             id="text_8">
            <!-- $\mathdefault{8000}$ -->
            <g
               transform="translate(42.97646 172.931225)scale(0.1 -0.1)"
               id="g41">
              <defs
                 id="defs37">
                <path
                   id="CMR17-38"
                   d="M 1741 2289  C 2144 2494 2554 2803 2554 3298  C 2554 3884 1990 4224 1472 4224  C 890 4224 378 3800 378 3215  C 378 3054 416 2777 666 2533  C 730 2469 998 2276 1171 2154  C 883 2006 211 1652 211 945  C 211 282 838 -128 1459 -128  C 2144 -128 2720 366 2720 1022  C 2720 1607 2330 1877 2074 2051  L 1741 2289  z M 902 2855  C 851 2887 595 3086 595 3388  C 595 3781 998 4076 1459 4076  C 1965 4076 2336 3716 2336 3298  C 2336 2700 1670 2359 1638 2359  C 1632 2359 1626 2359 1574 2398  L 902 2855  z M 2080 1536  C 2176 1466 2483 1253 2483 861  C 2483 385 2010 25 1472 25  C 890 25 448 443 448 951  C 448 1459 838 1884 1280 2083  L 2080 1536  z "
                   transform="scale(0.015625)" />
              </defs>
              <use
                 xlink:href="#CMR17-38"
                 transform="scale(0.996264)"
                 id="use38" />
              <use
                 xlink:href="#CMR17-30"
                 transform="translate(45.690477 0)scale(0.996264)"
                 id="use39" />
              <use
                 xlink:href="#CMR17-30"
                 transform="translate(91.380954 0)scale(0.996264)"
                 id="use40" />
              <use
                 xlink:href="#CMR17-30"
                 transform="translate(137.071431 0)scale(0.996264)"
                 id="use41" />
            </g>
          </g>
        </g>
        <g
           id="ytick_6">
          <g
             id="line2d_9">
            <g
               id="g42">
              <use
                 xlink:href="#md03fca24cc"
                 x="69.901801"
                 y="134.097552"
                 style="stroke: #000000; stroke-width: 0.8"
                 id="use42" />
            </g>
          </g>
          <g
             id="text_9">
            <!-- $\mathdefault{10000}$ -->
            <g
               transform="translate(37.995125 137.556801)scale(0.1 -0.1)"
               id="g47">
              <defs
                 id="defs42">
                <path
                   id="CMR17-31"
                   d="M 1702 4083  C 1702 4217 1696 4224 1606 4224  C 1357 3927 979 3833 621 3820  C 602 3820 570 3820 563 3808  C 557 3795 557 3782 557 3648  C 755 3648 1088 3686 1344 3839  L 1344 467  C 1344 243 1331 166 781 166  L 589 166  L 589 0  C 896 6 1216 12 1523 12  C 1830 12 2150 6 2458 0  L 2458 166  L 2266 166  C 1715 166 1702 236 1702 467  L 1702 4083  z "
                   transform="scale(0.015625)" />
              </defs>
              <use
                 xlink:href="#CMR17-31"
                 transform="scale(0.996264)"
                 id="use43" />
              <use
                 xlink:href="#CMR17-30"
                 transform="translate(45.690477 0)scale(0.996264)"
                 id="use44" />
              <use
                 xlink:href="#CMR17-30"
                 transform="translate(91.380954 0)scale(0.996264)"
                 id="use45" />
              <use
                 xlink:href="#CMR17-30"
                 transform="translate(137.071431 0)scale(0.996264)"
                 id="use46" />
              <use
                 xlink:href="#CMR17-30"
                 transform="translate(182.761908 0)scale(0.996264)"
                 id="use47" />
            </g>
          </g>
        </g>
        <g
           id="ytick_7">
          <g
             id="line2d_10">
            <g
               id="g48">
              <use
                 xlink:href="#md03fca24cc"
                 x="69.901801"
                 y="98.723128"
                 style="stroke: #000000; stroke-width: 0.8"
                 id="use48" />
            </g>
          </g>
          <g
             id="text_10">
            <!-- $\mathdefault{12000}$ -->
            <g
               transform="translate(37.995125 102.182377)scale(0.1 -0.1)"
               id="g53">
              <use
                 xlink:href="#CMR17-31"
                 transform="scale(0.996264)"
                 id="use49" />
              <use
                 xlink:href="#CMR17-32"
                 transform="translate(45.690477 0)scale(0.996264)"
                 id="use50" />
              <use
                 xlink:href="#CMR17-30"
                 transform="translate(91.380954 0)scale(0.996264)"
                 id="use51" />
              <use
                 xlink:href="#CMR17-30"
                 transform="translate(137.071431 0)scale(0.996264)"
                 id="use52" />
              <use
                 xlink:href="#CMR17-30"
                 transform="translate(182.761908 0)scale(0.996264)"
                 id="use53" />
            </g>
          </g>
        </g>
        <g
           id="ytick_8">
          <g
             id="line2d_11">
            <g
               id="g54">
              <use
                 xlink:href="#md03fca24cc"
                 x="69.901801"
                 y="63.348704"
                 style="stroke: #000000; stroke-width: 0.8"
                 id="use54" />
            </g>
          </g>
          <g
             id="text_11">
            <!-- $\mathdefault{14000}$ -->
            <g
               transform="translate(37.995125 66.807954)scale(0.1 -0.1)"
               id="g59">
              <use
                 xlink:href="#CMR17-31"
                 transform="scale(0.996264)"
                 id="use55" />
              <use
                 xlink:href="#CMR17-34"
                 transform="translate(45.690477 0)scale(0.996264)"
                 id="use56" />
              <use
                 xlink:href="#CMR17-30"
                 transform="translate(91.380954 0)scale(0.996264)"
                 id="use57" />
              <use
                 xlink:href="#CMR17-30"
                 transform="translate(137.071431 0)scale(0.996264)"
                 id="use58" />
              <use
                 xlink:href="#CMR17-30"
                 transform="translate(182.761908 0)scale(0.996264)"
                 id="use59" />
            </g>
          </g>
        </g>
        <g
           id="ytick_9">
          <g
             id="line2d_12">
            <g
               id="g60">
              <use
                 xlink:href="#md03fca24cc"
                 x="69.901801"
                 y="27.97428"
                 style="stroke: #000000; stroke-width: 0.8"
                 id="use60" />
            </g>
          </g>
          <g
             id="text_12">
            <!-- $\mathdefault{16000}$ -->
            <g
               transform="translate(37.995125 31.43353)scale(0.1 -0.1)"
               id="g65">
              <use
                 xlink:href="#CMR17-31"
                 transform="scale(0.996264)"
                 id="use61" />
              <use
                 xlink:href="#CMR17-36"
                 transform="translate(45.690477 0)scale(0.996264)"
                 id="use62" />
              <use
                 xlink:href="#CMR17-30"
                 transform="translate(91.380954 0)scale(0.996264)"
                 id="use63" />
              <use
                 xlink:href="#CMR17-30"
                 transform="translate(137.071431 0)scale(0.996264)"
                 id="use64" />
              <use
                 xlink:href="#CMR17-30"
                 transform="translate(182.761908 0)scale(0.996264)"
                 id="use65" />
            </g>
          </g>
        </g>
        <g
           id="text_13">
          <!-- Avg. time in arena -->
          <g
             transform="translate(30.119491 241.963079)rotate(-90)scale(0.2 -0.2)"
             id="g80">
            <defs
               id="defs65">
              <path
                 id="CMR17-41"
                 d="M 2323 4441  C 2291 4524 2278 4544 2214 4544  C 2150 4544 2138 4524 2106 4441  L 749 580  C 627 236 371 166 147 166  L 147 0  C 262 12 518 12 640 12  C 800 12 1056 12 1210 0  L 1210 166  C 909 179 864 382 864 459  C 864 516 877 548 890 586  L 1229 1536  L 2906 1536  L 3290 453  C 3322 376 3322 363 3322 338  C 3322 166 3046 166 2925 166  L 2925 0  C 3110 12 3443 12 3642 12  C 3808 12 4128 12 4282 0  L 4282 166  C 3942 166 3827 166 3744 402  L 2323 4441  z M 2067 3924  L 2848 1702  L 1286 1702  L 2067 3924  z "
                 transform="scale(0.015625)" />
              <path
                 id="CMR17-76"
                 d="M 2502 2173  C 2560 2315 2662 2572 3034 2585  L 3034 2752  C 2912 2745 2752 2739 2630 2739  C 2496 2739 2285 2739 2157 2752  L 2157 2585  C 2317 2572 2406 2495 2406 2328  C 2406 2270 2406 2257 2368 2167  L 1664 379  L 902 2308  C 864 2392 864 2405 864 2431  C 864 2585 1075 2585 1171 2585  L 1171 2752  C 1018 2739 736 2739 576 2739  C 403 2739 205 2739 64 2752  L 64 2585  C 307 2585 442 2585 518 2386  L 1446 44  C 1485 -52 1491 -64 1549 -64  C 1606 -64 1613 -52 1651 44  L 2502 2173  z "
                 transform="scale(0.015625)" />
              <path
                 id="CMR17-67"
                 d="M 710 1165  C 832 1068 1043 960 1299 960  C 1805 960 2240 1359 2240 1895  C 2240 2063 2189 2321 1997 2521  C 2176 2713 2438 2777 2586 2777  C 2611 2777 2650 2777 2682 2758  C 2656 2751 2598 2726 2598 2623  C 2598 2540 2656 2483 2739 2483  C 2835 2483 2886 2547 2886 2630  C 2886 2751 2790 2880 2586 2880  C 2330 2880 2106 2758 1926 2591  C 1734 2764 1504 2828 1299 2828  C 794 2828 358 2431 358 1895  C 358 1527 570 1294 634 1230  C 442 1004 442 742 442 710  C 442 544 506 300 723 166  C 390 82 128 -184 128 -517  C 128 -996 736 -1344 1466 -1344  C 2170 -1344 2803 -1009 2803 -510  C 2803 384 1856 384 1363 384  C 1216 384 954 384 922 390  C 723 422 589 601 589 825  C 589 883 589 1024 710 1165  z M 1299 1068  C 736 1068 736 1766 736 1895  C 736 2024 736 2719 1299 2719  C 1862 2719 1862 2024 1862 1895  C 1862 1766 1862 1068 1299 1068  z M 1466 -1236  C 826 -1236 384 -883 384 -517  C 384 -311 493 -118 634 -11  C 794 102 858 102 1293 102  C 1818 102 2547 102 2547 -517  C 2547 -883 2106 -1236 1466 -1236  z "
                 transform="scale(0.015625)" />
              <path
                 id="CMR17-2e"
                 d="M 1062 262  C 1062 422 934 524 800 524  C 672 524 538 422 538 262  C 538 102 666 0 800 0  C 928 0 1062 102 1062 262  z "
                 transform="scale(0.015625)" />
              <path
                 id="CMR17-69"
                 d="M 992 3961  C 992 4102 877 4224 730 4224  C 589 4224 467 4108 467 3961  C 467 3820 582 3699 730 3699  C 870 3699 992 3814 992 3961  z M 243 2745  L 243 2579  C 602 2579 653 2540 653 2231  L 653 443  C 653 198 627 166 218 166  L 218 0  C 371 12 646 12 806 12  C 960 12 1222 12 1370 0  L 1370 166  C 992 166 979 205 979 436  L 979 2816  L 243 2745  z "
                 transform="scale(0.015625)" />
              <path
                 id="CMR17-6d"
                 d="M 4326 1954  C 4326 2276 4269 2816 3507 2816  C 3072 2816 2771 2520 2656 2173  L 2650 2173  C 2573 2700 2195 2816 1837 2816  C 1331 2816 1069 2424 973 2166  L 966 2166  L 966 2816  L 211 2745  L 211 2578  C 589 2578 646 2540 646 2231  L 646 443  C 646 198 621 166 211 166  L 211 0  C 365 12 646 12 813 12  C 979 12 1267 12 1421 0  L 1421 166  C 1011 166 986 192 986 443  L 986 1678  C 986 2269 1344 2713 1792 2713  C 2266 2713 2317 2289 2317 1980  L 2317 443  C 2317 198 2291 166 1882 166  L 1882 0  C 2035 12 2317 12 2483 12  C 2650 12 2938 12 3091 0  L 3091 166  C 2682 166 2656 192 2656 443  L 2656 1678  C 2656 2269 3014 2713 3462 2713  C 3936 2713 3987 2289 3987 1980  L 3987 443  C 3987 198 3962 166 3552 166  L 3552 0  C 3706 12 3987 12 4154 12  C 4320 12 4608 12 4762 0  L 4762 166  C 4352 166 4326 192 4326 443  L 4326 1954  z "
                 transform="scale(0.015625)" />
            </defs>
            <use
               xlink:href="#CMR17-41"
               transform="scale(0.996264)"
               id="use66" />
            <use
               xlink:href="#CMR17-76"
               transform="translate(69.07243 0)scale(0.996264)"
               id="use67" />
            <use
               xlink:href="#CMR17-67"
               transform="translate(117.365346 0)scale(0.996264)"
               id="use68" />
            <use
               xlink:href="#CMR17-2e"
               transform="translate(163.055823 0)scale(0.996264)"
               id="use69" />
            <use
               xlink:href="#CMR17-74"
               transform="translate(228.412542 0)scale(0.996264)"
               id="use70" />
            <use
               xlink:href="#CMR17-69"
               transform="translate(263.69331 0)scale(0.996264)"
               id="use71" />
            <use
               xlink:href="#CMR17-6d"
               transform="translate(288.564368 0)scale(0.996264)"
               id="use72" />
            <use
               xlink:href="#CMR17-65"
               transform="translate(365.483958 0)scale(0.996264)"
               id="use73" />
            <use
               xlink:href="#CMR17-69"
               transform="translate(436.045585 0)scale(0.996264)"
               id="use74" />
            <use
               xlink:href="#CMR17-6e"
               transform="translate(460.916643 0)scale(0.996264)"
               id="use75" />
            <use
               xlink:href="#CMR17-61"
               transform="translate(541.887979 0)scale(0.996264)"
               id="use76" />
            <use
               xlink:href="#CMR17-72"
               transform="translate(587.578456 0)scale(0.996264)"
               id="use77" />
            <use
               xlink:href="#CMR17-65"
               transform="translate(622.859224 0)scale(0.996264)"
               id="use78" />
            <use
               xlink:href="#CMR17-6e"
               transform="translate(663.344885 0)scale(0.996264)"
               id="use79" />
            <use
               xlink:href="#CMR17-61"
               transform="translate(714.240254 0)scale(0.996264)"
               id="use80" />
          </g>
        </g>
      </g>
      <g
         id="patch_3">
        <path
           d="M 84.044404 252.984681  L 126.472214 252.984681  L 126.472214 177.756773  L 84.044404 177.756773  L 84.044404 252.984681  z "
           clip-path="url(#p1b26465b3a)"
           style="fill: #a1c9f4; stroke: #000000; stroke-linejoin: miter"
           id="path80" />
      </g>
      <g
         id="line2d_13">
        <path
           d="M 105.258309 252.984681  L 105.258309 281.709913  "
           clip-path="url(#p1b26465b3a)"
           style="fill: none; stroke: #000000; stroke-linecap: square"
           id="path81" />
      </g>
      <g
         id="line2d_14">
        <path
           d="M 105.258309 177.756773  L 105.258309 72.741067  "
           clip-path="url(#p1b26465b3a)"
           style="fill: none; stroke: #000000; stroke-linecap: square"
           id="path82" />
      </g>
      <g
         id="line2d_15">
        <path
           d="M 94.651357 281.709913  L 115.865262 281.709913  "
           clip-path="url(#p1b26465b3a)"
           style="fill: none; stroke: #000000; stroke-linecap: square"
           id="path83" />
      </g>
      <g
         id="line2d_16">
        <path
           d="M 94.651357 72.741067  L 115.865262 72.741067  "
           clip-path="url(#p1b26465b3a)"
           style="fill: none; stroke: #000000; stroke-linecap: square"
           id="path84" />
      </g>
      <g
         id="line2d_17">
        <defs
           id="defs84">
          <path
             id="m2077c31c22"
             d="M 0 3  C 0.795609 3 1.55874 2.683901 2.12132 2.12132  C 2.683901 1.55874 3 0.795609 3 0  C 3 -0.795609 2.683901 -1.55874 2.12132 -2.12132  C 1.55874 -2.683901 0.795609 -3 0 -3  C -0.795609 -3 -1.55874 -2.683901 -2.12132 -2.12132  C -2.683901 -1.55874 -3 -0.795609 -3 0  C -3 0.795609 -2.683901 1.55874 -2.12132 2.12132  C -1.55874 2.683901 -0.795609 3 0 3  z "
             style="stroke: #000000" />
        </defs>
        <g
           clip-path="url(#p1b26465b3a)"
           id="g84">
          <use
             xlink:href="#m2077c31c22"
             x="105.258309"
             y="22.803601"
             style="fill-opacity: 0; stroke: #000000"
             id="use84" />
        </g>
      </g>
      <g
         id="patch_4">
        <path
           d="M 154.757421 275.686238  L 197.185231 275.686238  L 197.185231 244.07357  L 154.757421 244.07357  L 154.757421 275.686238  z "
           clip-path="url(#p1b26465b3a)"
           style="fill: #ffb482; stroke: #000000; stroke-linejoin: miter"
           id="path85" />
      </g>
      <g
         id="line2d_18">
        <path
           d="M 175.971326 275.686238  L 175.971326 287.148997  "
           clip-path="url(#p1b26465b3a)"
           style="fill: none; stroke: #000000; stroke-linecap: square"
           id="path86" />
      </g>
      <g
         id="line2d_19">
        <path
           d="M 175.971326 244.07357  L 175.971326 199.474583  "
           clip-path="url(#p1b26465b3a)"
           style="fill: none; stroke: #000000; stroke-linecap: square"
           id="path87" />
      </g>
      <g
         id="line2d_20">
        <path
           d="M 165.364373 287.148997  L 186.578278 287.148997  "
           clip-path="url(#p1b26465b3a)"
           style="fill: none; stroke: #000000; stroke-linecap: square"
           id="path88" />
      </g>
      <g
         id="line2d_21">
        <path
           d="M 165.364373 199.474583  L 186.578278 199.474583  "
           clip-path="url(#p1b26465b3a)"
           style="fill: none; stroke: #000000; stroke-linecap: square"
           id="path89" />
      </g>
      <g
         id="line2d_22">
        <g
           clip-path="url(#p1b26465b3a)"
           id="g91">
          <use
             xlink:href="#m2077c31c22"
             x="175.971326"
             y="150.597598"
             style="fill-opacity: 0; stroke: #000000"
             id="use89" />
          <use
             xlink:href="#m2077c31c22"
             x="175.971326"
             y="137.359703"
             style="fill-opacity: 0; stroke: #000000"
             id="use90" />
          <use
             xlink:href="#m2077c31c22"
             x="175.971326"
             y="183.549725"
             style="fill-opacity: 0; stroke: #000000"
             id="use91" />
        </g>
      </g>
      <g
         id="patch_5">
        <path
           d="M 225.470438 266.060678  L 267.898248 266.060678  L 267.898248 221.876422  L 225.470438 221.876422  L 225.470438 266.060678  z "
           clip-path="url(#p1b26465b3a)"
           style="fill: #8de5a1; stroke: #000000; stroke-linejoin: miter"
           id="path91" />
      </g>
      <g
         id="line2d_23">
        <path
           d="M 246.684343 266.060678  L 246.684343 309.13649  "
           clip-path="url(#p1b26465b3a)"
           style="fill: none; stroke: #000000; stroke-linecap: square"
           id="path92" />
      </g>
      <g
         id="line2d_24">
        <path
           d="M 246.684343 221.876422  L 246.684343 165.133257  "
           clip-path="url(#p1b26465b3a)"
           style="fill: none; stroke: #000000; stroke-linecap: square"
           id="path93" />
      </g>
      <g
         id="line2d_25">
        <path
           d="M 236.07739 309.13649  L 257.291295 309.13649  "
           clip-path="url(#p1b26465b3a)"
           style="fill: none; stroke: #000000; stroke-linecap: square"
           id="path94" />
      </g>
      <g
         id="line2d_26">
        <path
           d="M 236.07739 165.133257  L 257.291295 165.133257  "
           clip-path="url(#p1b26465b3a)"
           style="fill: none; stroke: #000000; stroke-linecap: square"
           id="path95" />
      </g>
      <g
         id="line2d_27">
        <g
           clip-path="url(#p1b26465b3a)"
           id="g97">
          <use
             xlink:href="#m2077c31c22"
             x="246.684343"
             y="148.439613"
             style="fill-opacity: 0; stroke: #000000"
             id="use95" />
          <use
             xlink:href="#m2077c31c22"
             x="246.684343"
             y="88.591304"
             style="fill-opacity: 0; stroke: #000000"
             id="use96" />
          <use
             xlink:href="#m2077c31c22"
             x="246.684343"
             y="88.190747"
             style="fill-opacity: 0; stroke: #000000"
             id="use97" />
        </g>
      </g>
      <g
         id="line2d_28">
        <path
           d="M 84.044404 224.681769  L 126.472214 224.681769  "
           clip-path="url(#p1b26465b3a)"
           style="fill: none; stroke: #000000; stroke-linecap: square"
           id="path97" />
      </g>
      <g
         id="line2d_29">
        <path
           d="M 154.757421 259.99372  L 197.185231 259.99372  "
           clip-path="url(#p1b26465b3a)"
           style="fill: none; stroke: #000000; stroke-linecap: square"
           id="path98" />
      </g>
      <g
         id="line2d_30">
        <path
           d="M 225.470438 248.642707  L 267.898248 248.642707  "
           clip-path="url(#p1b26465b3a)"
           style="fill: none; stroke: #000000; stroke-linecap: square"
           id="path99" />
      </g>
      <g
         id="patch_6">
        <path
           d="M 69.901801 323.453134  L 69.901801 8.486957  "
           style="fill: none; stroke: #000000; stroke-width: 0.8; stroke-linejoin: miter; stroke-linecap: square"
           id="path100" />
      </g>
      <g
         id="patch_7">
        <path
           d="M 282.040851 323.453134  L 282.040851 8.486957  "
           style="fill: none; stroke: #000000; stroke-width: 0.8; stroke-linejoin: miter; stroke-linecap: square"
           id="path101" />
      </g>
      <g
         id="patch_8">
        <path
           d="M 69.901801 323.453134  L 282.040851 323.453134  "
           style="fill: none; stroke: #000000; stroke-width: 0.8; stroke-linejoin: miter; stroke-linecap: square"
           id="path102" />
      </g>
      <g
         id="patch_9">
        <path
           d="M 69.901801 8.486957  L 282.040851 8.486957  "
           style="fill: none; stroke: #000000; stroke-width: 0.8; stroke-linejoin: miter; stroke-linecap: square"
           id="path103" />
      </g>
      <g
         id="text_14"
         transform="matrix(1.9297939,0,0,1.9297939,-86.352055,-38.148574)">
        <!-- $n = 34$ -->
        <g
           transform="matrix(0.0694,0,0,-0.0694,92.685356,45.661492)"
           id="g106">
          <defs
             id="defs103">
            <path
               id="CMMI12-6e"
               d="m 1318,1870 c 13,39 173,358 410,562 166,153 384,255 634,255 256,0 345,-191 345,-446 0,-364 -262,-1092 -390,-1437 -58,-153 -90,-236 -90,-351 0,-287 199,-517 506,-517 595,0 819,938 819,977 0,32 -26,57 -64,57 -58,0 -64,-19 -96,-128 C 3245,319 3002,64 2752,64 c -64,0 -166,6 -166,210 0,160 70,351 108,441 128,351 397,1066 397,1430 0,383 -224,671 -710,671 -570,0 -871,-403 -986,-563 -19,364 -281,563 -563,563 -205,0 -346,-122 -454,-339 -116,-230 -205,-613 -205,-639 0,-25 25,-57 70,-57 51,0 58,6 96,153 103,390 218,753 474,753 147,0 198,-102 198,-293 0,-141 -64,-390 -109,-587 L 723,1117 C 698,996 627,708 595,593 550,427 480,127 480,95 480,6 550,-64 646,-64 c 77,0 167,38 218,134 13,32 70,255 102,383 l 141,575 z"
               transform="scale(0.015625)" />
            <path
               id="CMR17-3d"
               d="m 4115,2048 c 96,0 192,0 192,108 0,116 -109,116 -217,116 H 512 c -109,0 -218,0 -218,-116 0,-108 96,-108 192,-108 z M 4090,927 c 108,0 217,0 217,116 0,109 -96,109 -192,109 H 486 c -96,0 -192,0 -192,-109 0,-116 109,-116 218,-116 z"
               transform="scale(0.015625)" />
            <path
               id="CMR17-33"
               d="m 1414,2176 c 570,0 820,-503 820,-1082 C 2234,322 1824,25 1453,25 1114,25 563,193 390,691 c 32,-13 64,-13 96,-13 154,0 269,102 269,269 0,185 -141,269 -269,269 -108,0 -275,-52 -275,-289 0,-592 576,-1055 1255,-1055 710,0 1254,560 1254,1215 0,631 -512,1089 -1120,1159 486,101 954,530 954,1107 0,503 -506,871 -1082,871 -582,0 -1094,-362 -1094,-877 0,-224 166,-263 249,-263 135,0 250,83 250,250 0,166 -115,250 -250,250 -25,0 -57,0 -83,-13 186,428 691,505 915,505 224,0 647,-110 647,-729 0,-180 -26,-496 -244,-773 -192,-245 -409,-258 -620,-277 -32,0 -180,-13 -205,-13 -45,-6 -71,-12 -71,-57 0,-45 7,-51 135,-51 z"
               transform="scale(0.015625)" />
          </defs>
          <use
             xlink:href="#CMMI12-6e"
             transform="scale(0.996264)"
             id="use103" />
          <use
             xlink:href="#CMR17-3d"
             transform="matrix(0.996264,0,0,0.996264,85.904056,0)"
             id="use104" />
          <use
             xlink:href="#CMR17-33"
             transform="matrix(0.996264,0,0,0.996264,185.29285,0)"
             id="use105" />
          <use
             xlink:href="#CMR17-34"
             transform="matrix(0.996264,0,0,0.996264,230.98333,0)"
             id="use106" />
        </g>
      </g>
      <g
         id="text_15"
         transform="matrix(1.867471,0,0,1.867471,-141.90549,-35.651503)">
        <!-- $n = 29$ -->
        <g
           transform="matrix(0.0694,0,0,-0.0694,163.39837,45.661492)"
           id="g110">
          <defs
             id="defs106">
            <path
               id="CMR17-39"
               d="M 2253,1871 C 2253,448 1670,25 1190,25 1043,25 685,43 538,281 c 166,-25 288,64 288,224 0,173 -141,231 -231,231 -57,0 -230,-26 -230,-244 0,-424 377,-620 838,-620 736,0 1485,793 1485,2218 0,1767 -717,2134 -1203,2134 -634,0 -1242,-560 -1242,-1424 0,-800 519,-1392 1171,-1392 538,0 775,502 839,714 z m -826,-361 c -173,0 -416,32 -614,419 -135,252 -135,548 -135,864 0,381 0,645 180,929 89,135 256,354 627,354 755,0 755,-1167 755,-1425 0,-458 -205,-1141 -813,-1141 z"
               transform="scale(0.015625)" />
          </defs>
          <use
             xlink:href="#CMMI12-6e"
             transform="scale(0.996264)"
             id="use107" />
          <use
             xlink:href="#CMR17-3d"
             transform="matrix(0.996264,0,0,0.996264,85.904056,0)"
             id="use108" />
          <use
             xlink:href="#CMR17-32"
             transform="matrix(0.996264,0,0,0.996264,185.29285,0)"
             id="use109" />
          <use
             xlink:href="#CMR17-39"
             transform="matrix(0.996264,0,0,0.996264,230.98333,0)"
             id="use110" />
        </g>
      </g>
      <g
         id="text_16"
         transform="matrix(1.8902992,0,0,1.8902992,-208.59558,-36.5897)">
        <!-- $n = 99$ -->
        <g
           transform="matrix(0.0694,0,0,-0.0694,234.11139,45.661492)"
           id="g114">
          <use
             xlink:href="#CMMI12-6e"
             transform="scale(0.996264)"
             id="use111" />
          <use
             xlink:href="#CMR17-3d"
             transform="matrix(0.996264,0,0,0.996264,85.904056,0)"
             id="use112" />
          <use
             xlink:href="#CMR17-39"
             transform="matrix(0.996264,0,0,0.996264,185.29285,0)"
             id="use113" />
          <use
             xlink:href="#CMR17-39"
             transform="matrix(0.996264,0,0,0.996264,230.98333,0)"
             id="use114" />
        </g>
      </g>
      <text
         xml:space="preserve"
         style="font-weight:bold;font-size:20px;font-family:Arial;-inkscape-font-specification:'Arial Bold';text-align:center;text-anchor:middle;fill:#ffffff;stroke-width:2.11748;stroke-linejoin:bevel"
         x="181.83389"
         y="3.6314108"
         id="text114"><tspan
           sodipodi:role="line"
           id="tspan114"
           style="font-size:20px;fill:#000000;stroke-width:2.11748"
           x="181.83389"
           y="3.6314108">Both cohorts</tspan></text>
    </g>
  </g>
  <defs
     id="defs114">
    <clipPath
       id="p1b26465b3a">
      <rect
         x="69.901801"
         y="8.486957"
         width="212.13905"
         height="314.966178"
         id="rect114" />
    </clipPath>
  </defs>
</svg>
