<?xml version="1.0" encoding="utf-8" standalone="no"?>
<!DOCTYPE svg PUBLIC "-//W3C//DTD SVG 1.1//EN"
  "http://www.w3.org/Graphics/SVG/1.1/DTD/svg11.dtd">
<svg xmlns:xlink="http://www.w3.org/1999/xlink" width="216pt" height="864pt" viewBox="0 0 216 864" xmlns="http://www.w3.org/2000/svg" version="1.1">
 <metadata>
  <rdf:RDF xmlns:dc="http://purl.org/dc/elements/1.1/" xmlns:cc="http://creativecommons.org/ns#" xmlns:rdf="http://www.w3.org/1999/02/22-rdf-syntax-ns#">
   <cc:Work>
    <dc:type rdf:resource="http://purl.org/dc/dcmitype/StillImage"/>
    <dc:date>2025-06-05T15:05:27.461218</dc:date>
    <dc:format>image/svg+xml</dc:format>
    <dc:creator>
     <cc:Agent>
      <dc:title>Matplotlib v3.9.2, https://matplotlib.org/</dc:title>
     </cc:Agent>
    </dc:creator>
   </cc:Work>
  </rdf:RDF>
 </metadata>
 <defs>
  <style type="text/css">*{stroke-linejoin: round; stroke-linecap: butt}</style>
 </defs>
 <g id="figure_1">
  <g id="patch_1">
   <path d="M 0 864 
L 216 864 
L 216 0 
L 0 0 
z
" style="fill: #ffffff"/>
  </g>
  <g id="axes_1">
   <g id="patch_2">
    <path d="M 27 218.383448 
L 194.4 218.383448 
L 194.4 103.68 
L 27 103.68 
z
" style="fill: #ffffff"/>
   </g>
   <g id="EdgeCollection_1">
    <path d="M 184.179708 165.69315 
C 204.414713 175.562865 204.414713 148.323435 184.179708 158.19315 
C 204.414713 148.323435 204.414713 175.562865 184.179708 165.69315 
" clip-path="url(#p4b81a2c343)" style="fill: #ffffff"/>
    <path d="M 174.57525 155.118015 
L 165.346239 134.859466 
" clip-path="url(#p4b81a2c343)" style="fill: #ffffff"/>
    <path d="M 172.332407 156.689112 
L 136.14643 121.166207 
" clip-path="url(#p4b81a2c343)" style="stroke: #000000; stroke-width: 1.453968"/>
    <path d="M 171.025468 158.492487 
L 95.5135 119.362831 
" clip-path="url(#p4b81a2c343)" style="stroke: #000000; stroke-width: 0.774603"/>
    <path d="M 170.378144 160.249954 
L 56.38566 133.833078 
" clip-path="url(#p4b81a2c343)" style="fill: #ffffff"/>
    <path d="M 170.184517 161.94315 
L 43.464254 161.94315 
" clip-path="url(#p4b81a2c343)" style="fill: #ffffff"/>
    <path d="M 170.378144 163.636345 
L 62.230759 188.698665 
" clip-path="url(#p4b81a2c343)" style="stroke: #000000; stroke-width: 2"/>
    <path d="M 171.025468 165.393812 
L 90.186261 207.283998 
" clip-path="url(#p4b81a2c343)" style="fill: #ffffff"/>
    <path d="M 172.332407 167.197188 
L 131.864741 206.923323 
" clip-path="url(#p4b81a2c343)" style="fill: #ffffff"/>
    <path d="M 174.57525 168.768284 
L 165.346239 189.026833 
" clip-path="url(#p4b81a2c343)" style="fill: #ffffff"/>
    <path d="M 166.182636 133.143006 
C 193.481578 124.949038 174.714065 105.206521 165.149161 132.05584 
C 174.714065 105.206521 193.481578 124.949038 166.182636 133.143006 
" clip-path="url(#p4b81a2c343)" style="fill: #ffffff"/>
    <path d="M 163.392576 132.804307 
L 137.453368 119.362831 
" clip-path="url(#p4b81a2c343)" style="fill: #ffffff"/>
    <path d="M 163.263111 133.1558 
L 96.160825 117.605364 
" clip-path="url(#p4b81a2c343)" style="fill: #ffffff"/>
    <path d="M 163.224385 133.494439 
L 56.424386 133.494439 
" clip-path="url(#p4b81a2c343)" style="fill: #ffffff"/>
    <path d="M 163.263111 133.833078 
L 43.425528 161.604511 
" clip-path="url(#p4b81a2c343)" style="fill: #ffffff"/>
    <path d="M 163.392576 134.184571 
L 61.583434 186.941198 
" clip-path="url(#p4b81a2c343)" style="fill: #ffffff"/>
    <path d="M 163.653963 134.545247 
L 89.924873 206.923323 
" clip-path="url(#p4b81a2c343)" style="fill: #ffffff"/>
    <path d="M 164.102532 134.859466 
L 131.416173 206.609104 
" clip-path="url(#p4b81a2c343)" style="fill: #ffffff"/>
    <path d="M 164.724385 134.994439 
L 164.724385 188.89186 
" clip-path="url(#p4b81a2c343)" style="fill: #ffffff"/>
    <path d="M 135.975597 110.48959 
C 150.355843 93.16691 123.890994 86.717236 128.688867 108.713761 
C 123.890994 86.717236 150.355843 93.16691 135.975597 110.48959 
" clip-path="url(#p4b81a2c343)" style="fill: #ffffff"/>
    <path d="M 123.294319 115.912169 
L 96.354451 115.912169 
" clip-path="url(#p4b81a2c343)" style="stroke: #000000; stroke-width: 0.692063"/>
    <path d="M 123.487946 117.605364 
L 56.38566 133.1558 
" clip-path="url(#p4b81a2c343)" style="fill: #ffffff"/>
    <path d="M 124.135271 119.362831 
L 43.296063 161.253017 
" clip-path="url(#p4b81a2c343)" style="fill: #ffffff"/>
    <path d="M 125.442209 121.166207 
L 60.276496 185.137822 
" clip-path="url(#p4b81a2c343)" style="stroke: #000000; stroke-width: 1.549206"/>
    <path d="M 127.685052 122.737303 
L 89.476305 206.609104 
" clip-path="url(#p4b81a2c343)" style="fill: #ffffff"/>
    <path d="M 130.794319 123.412169 
L 130.794319 206.474131 
" clip-path="url(#p4b81a2c343)" style="fill: #ffffff"/>
    <path d="M 133.903586 122.737303 
L 164.102532 189.026833 
" clip-path="url(#p4b81a2c343)" style="fill: #ffffff"/>
    <path d="M 90.959904 108.713761 
C 95.757777 86.717236 69.292927 93.16691 83.673174 110.48959 
C 69.292927 93.16691 95.757777 86.717236 90.959904 108.713761 
" clip-path="url(#p4b81a2c343)" style="fill: #ffffff"/>
    <path d="M 82.195403 119.362831 
L 56.256195 132.804307 
" clip-path="url(#p4b81a2c343)" style="fill: #ffffff"/>
    <path d="M 83.502341 121.166207 
L 43.034676 160.892342 
" clip-path="url(#p4b81a2c343)" style="fill: #ffffff"/>
    <path d="M 85.745184 122.737303 
L 58.033653 183.566726 
" clip-path="url(#p4b81a2c343)" style="fill: #ffffff"/>
    <path d="M 88.854451 123.412169 
L 88.854451 206.474131 
" clip-path="url(#p4b81a2c343)" style="fill: #ffffff"/>
    <path d="M 91.963719 122.737303 
L 130.172466 206.609104 
" clip-path="url(#p4b81a2c343)" style="fill: #ffffff"/>
    <path d="M 94.206562 121.166207 
L 163.653963 189.341053 
" clip-path="url(#p4b81a2c343)" style="stroke: #000000; stroke-width: 0.869841"/>
    <path d="M 54.49961 132.05584 
C 44.934706 105.206521 26.167193 124.949038 53.466135 133.143006 
C 26.167193 124.949038 44.934706 105.206521 54.49961 132.05584 
" clip-path="url(#p4b81a2c343)" style="fill: #ffffff"/>
    <path d="M 54.302532 134.859466 
L 42.586107 160.578123 
" clip-path="url(#p4b81a2c343)" style="fill: #ffffff"/>
    <path d="M 54.924386 134.994439 
L 54.924386 182.89186 
" clip-path="url(#p4b81a2c343)" style="fill: #ffffff"/>
    <path d="M 55.546239 134.859466 
L 88.232598 206.609104 
" clip-path="url(#p4b81a2c343)" style="fill: #ffffff"/>
    <path d="M 55.994808 134.545247 
L 129.723897 206.923323 
" clip-path="url(#p4b81a2c343)" style="fill: #ffffff"/>
    <path d="M 56.256195 134.184571 
L 163.392576 189.701728 
" clip-path="url(#p4b81a2c343)" style="fill: #ffffff"/>
    <path d="M 40.665215 161.19315 
C 15.234058 148.323435 15.234058 175.562865 40.665215 162.69315 
C 15.234058 175.562865 15.234058 148.323435 40.665215 161.19315 
" clip-path="url(#p4b81a2c343)" style="fill: #ffffff"/>
    <path d="M 42.586107 163.308177 
L 51.815118 183.566726 
" clip-path="url(#p4b81a2c343)" style="fill: #ffffff"/>
    <path d="M 43.034676 162.993957 
L 87.784029 206.923323 
" clip-path="url(#p4b81a2c343)" style="fill: #ffffff"/>
    <path d="M 43.296063 162.633282 
L 129.46251 207.283998 
" clip-path="url(#p4b81a2c343)" style="fill: #ffffff"/>
    <path d="M 43.425528 162.281789 
L 163.263111 190.053221 
" clip-path="url(#p4b81a2c343)" style="fill: #ffffff"/>
    <path d="M 47.633132 192.149024 
C 26.167193 198.937261 44.934706 218.679778 52.800507 197.584853 
C 44.934706 218.679778 26.167193 198.937261 47.633132 192.149024 
" clip-path="url(#p4b81a2c343)" style="fill: #ffffff"/>
    <path d="M 61.583434 193.842523 
L 87.522642 207.283998 
" clip-path="url(#p4b81a2c343)" style="stroke: #000000; stroke-width: 0.749206"/>
    <path d="M 62.230759 192.085056 
L 129.333045 207.635491 
" clip-path="url(#p4b81a2c343)" style="fill: #ffffff"/>
    <path d="M 62.424386 190.39186 
L 163.224385 190.39186 
" clip-path="url(#p4b81a2c343)" style="fill: #ffffff"/>
    <path d="M 87.818196 209.058646 
C 69.292927 230.719389 95.757777 237.169063 89.275542 209.413812 
C 95.757777 237.169063 69.292927 230.719389 87.818196 209.058646 
" clip-path="url(#p4b81a2c343)" style="fill: #ffffff"/>
    <path d="M 90.354451 207.974131 
L 129.294319 207.974131 
" clip-path="url(#p4b81a2c343)" style="fill: #ffffff"/>
    <path d="M 90.315726 207.635491 
L 163.263111 190.730499 
" clip-path="url(#p4b81a2c343)" style="fill: #ffffff"/>
    <path d="M 130.373229 209.413812 
C 123.890994 237.169063 150.355843 230.719389 131.830575 209.058646 
C 150.355843 230.719389 123.890994 237.169063 130.373229 209.413812 
" clip-path="url(#p4b81a2c343)" style="fill: #ffffff"/>
    <path d="M 132.126129 207.283998 
L 163.392576 191.081993 
" clip-path="url(#p4b81a2c343)" style="fill: #ffffff"/>
    <path d="M 165.149161 191.830459 
C 174.714065 218.679778 193.481578 198.937261 166.182636 190.743293 
C 193.481578 198.937261 174.714065 218.679778 165.149161 191.830459 
" clip-path="url(#p4b81a2c343)" style="fill: #ffffff"/>
   </g>
   <g id="VertexCollection_1">
    <path d="M 177.684517 169.44315 
C 179.67354 169.44315 181.581366 168.652902 182.987818 167.246451 
C 184.39427 165.839999 185.184517 163.932173 185.184517 161.94315 
C 185.184517 159.954126 184.39427 158.046301 182.987818 156.639849 
C 181.581366 155.233397 179.67354 154.44315 177.684517 154.44315 
C 175.695494 154.44315 173.787668 155.233397 172.381216 156.639849 
C 170.974765 158.046301 170.184517 159.954126 170.184517 161.94315 
C 170.184517 163.932173 170.974765 165.839999 172.381216 167.246451 
C 173.787668 168.652902 175.695494 169.44315 177.684517 169.44315 
z
" clip-path="url(#p4b81a2c343)" style="fill: #6b010e; stroke: #00ff00; stroke-width: 3"/>
    <path d="M 164.724385 134.994439 
C 165.12219 134.994439 165.503755 134.836389 165.785045 134.555099 
C 166.066336 134.273809 166.224385 133.892244 166.224385 133.494439 
C 166.224385 133.096634 166.066336 132.715069 165.785045 132.433779 
C 165.503755 132.152488 165.12219 131.994439 164.724385 131.994439 
C 164.326581 131.994439 163.945015 132.152488 163.663725 132.433779 
C 163.382435 132.715069 163.224385 133.096634 163.224385 133.494439 
C 163.224385 133.892244 163.382435 134.273809 163.663725 134.555099 
C 163.945015 134.836389 164.326581 134.994439 164.724385 134.994439 
z
" clip-path="url(#p4b81a2c343)" style="fill: #fdcab5; stroke: #00ff00; stroke-width: 3"/>
    <path d="M 130.794319 123.412169 
C 132.783343 123.412169 134.691168 122.621921 136.09762 121.21547 
C 137.504072 119.809018 138.294319 117.901192 138.294319 115.912169 
C 138.294319 113.923146 137.504072 112.01532 136.09762 110.608868 
C 134.691168 109.202416 132.783343 108.412169 130.794319 108.412169 
C 128.805296 108.412169 126.89747 109.202416 125.491019 110.608868 
C 124.084567 112.01532 123.294319 113.923146 123.294319 115.912169 
C 123.294319 117.901192 124.084567 119.809018 125.491019 121.21547 
C 126.89747 122.621921 128.805296 123.412169 130.794319 123.412169 
z
" clip-path="url(#p4b81a2c343)" style="fill: #6b010e; stroke: #00ff00; stroke-width: 3"/>
    <path d="M 88.854451 123.412169 
C 90.843475 123.412169 92.7513 122.621921 94.157752 121.21547 
C 95.564204 119.809018 96.354451 117.901192 96.354451 115.912169 
C 96.354451 113.923146 95.564204 112.01532 94.157752 110.608868 
C 92.7513 109.202416 90.843475 108.412169 88.854451 108.412169 
C 86.865428 108.412169 84.957602 109.202416 83.551151 110.608868 
C 82.144699 112.01532 81.354451 113.923146 81.354451 115.912169 
C 81.354451 117.901192 82.144699 119.809018 83.551151 121.21547 
C 84.957602 122.621921 86.865428 123.412169 88.854451 123.412169 
z
" clip-path="url(#p4b81a2c343)" style="fill: #6b010e; stroke: #00ff00; stroke-width: 3"/>
    <path d="M 54.924386 134.994439 
C 55.32219 134.994439 55.703755 134.836389 55.985046 134.555099 
C 56.266336 134.273809 56.424386 133.892244 56.424386 133.494439 
C 56.424386 133.096634 56.266336 132.715069 55.985046 132.433779 
C 55.703755 132.152488 55.32219 131.994439 54.924386 131.994439 
C 54.526581 131.994439 54.145016 132.152488 53.863725 132.433779 
C 53.582435 132.715069 53.424386 133.096634 53.424386 133.494439 
C 53.424386 133.892244 53.582435 134.273809 53.863725 134.555099 
C 54.145016 134.836389 54.526581 134.994439 54.924386 134.994439 
z
" clip-path="url(#p4b81a2c343)" style="fill: #fdcab5; stroke: #00ff00; stroke-width: 3"/>
    <path d="M 41.964254 163.44315 
C 42.362058 163.44315 42.743623 163.2851 43.024914 163.00381 
C 43.306204 162.722519 43.464254 162.340954 43.464254 161.94315 
C 43.464254 161.545345 43.306204 161.16378 43.024914 160.882489 
C 42.743623 160.601199 42.362058 160.44315 41.964254 160.44315 
C 41.566449 160.44315 41.184884 160.601199 40.903593 160.882489 
C 40.622303 161.16378 40.464254 161.545345 40.464254 161.94315 
C 40.464254 162.340954 40.622303 162.722519 40.903593 163.00381 
C 41.184884 163.2851 41.566449 163.44315 41.964254 163.44315 
z
" clip-path="url(#p4b81a2c343)" style="fill: #fdcab5; stroke: #00ff00; stroke-width: 3"/>
    <path d="M 54.924386 197.89186 
C 56.913409 197.89186 58.821235 197.101613 60.227686 195.695161 
C 61.634138 194.288709 62.424386 192.380884 62.424386 190.39186 
C 62.424386 188.402837 61.634138 186.495011 60.227686 185.088559 
C 58.821235 183.682108 56.913409 182.89186 54.924386 182.89186 
C 52.935362 182.89186 51.027536 183.682108 49.621085 185.088559 
C 48.214633 186.495011 47.424386 188.402837 47.424386 190.39186 
C 47.424386 192.380884 48.214633 194.288709 49.621085 195.695161 
C 51.027536 197.101613 52.935362 197.89186 54.924386 197.89186 
z
" clip-path="url(#p4b81a2c343)" style="fill: #6b010e; stroke: #ff0000; stroke-width: 3"/>
    <path d="M 88.854451 209.474131 
C 89.252256 209.474131 89.633821 209.316081 89.915112 209.034791 
C 90.196402 208.7535 90.354451 208.371935 90.354451 207.974131 
C 90.354451 207.576326 90.196402 207.194761 89.915112 206.91347 
C 89.633821 206.63218 89.252256 206.474131 88.854451 206.474131 
C 88.456647 206.474131 88.075082 206.63218 87.793791 206.91347 
C 87.512501 207.194761 87.354451 207.576326 87.354451 207.974131 
C 87.354451 208.371935 87.512501 208.7535 87.793791 209.034791 
C 88.075082 209.316081 88.456647 209.474131 88.854451 209.474131 
z
" clip-path="url(#p4b81a2c343)" style="fill: #fdcab5; stroke: #00ff00; stroke-width: 3"/>
    <path d="M 130.794319 209.474131 
C 131.192124 209.474131 131.573689 209.316081 131.85498 209.034791 
C 132.13627 208.7535 132.294319 208.371935 132.294319 207.974131 
C 132.294319 207.576326 132.13627 207.194761 131.85498 206.91347 
C 131.573689 206.63218 131.192124 206.474131 130.794319 206.474131 
C 130.396515 206.474131 130.01495 206.63218 129.733659 206.91347 
C 129.452369 207.194761 129.294319 207.576326 129.294319 207.974131 
C 129.294319 208.371935 129.452369 208.7535 129.733659 209.034791 
C 130.01495 209.316081 130.396515 209.474131 130.794319 209.474131 
z
" clip-path="url(#p4b81a2c343)" style="fill: #fdcab5; stroke: #00ff00; stroke-width: 3"/>
    <path d="M 164.724385 191.89186 
C 165.12219 191.89186 165.503755 191.733811 165.785045 191.452521 
C 166.066336 191.17123 166.224385 190.789665 166.224385 190.39186 
C 166.224385 189.994056 166.066336 189.612491 165.785045 189.3312 
C 165.503755 189.04991 165.12219 188.89186 164.724385 188.89186 
C 164.326581 188.89186 163.945015 189.04991 163.663725 189.3312 
C 163.382435 189.612491 163.224385 189.994056 163.224385 190.39186 
C 163.224385 190.789665 163.382435 191.17123 163.663725 191.452521 
C 163.945015 191.733811 164.326581 191.89186 164.724385 191.89186 
z
" clip-path="url(#p4b81a2c343)" style="fill: #fdcab5; stroke: #00ff00; stroke-width: 3"/>
   </g>
   <g id="matplotlib.axis_1"/>
   <g id="matplotlib.axis_2"/>
  </g>
  <g id="axes_2">
   <g id="patch_3">
    <path d="M 27 356.027586 
L 194.4 356.027586 
L 194.4 241.324138 
L 27 241.324138 
z
" style="fill: #ffffff"/>
   </g>
   <g id="EdgeCollection_2">
    <path d="M 184.179708 303.337288 
C 204.414713 313.207003 204.414713 285.967573 184.179708 295.837288 
C 204.414713 285.967573 204.414713 313.207003 184.179708 303.337288 
" clip-path="url(#p0719759bd8)" style="fill: #ffffff"/>
    <path d="M 174.57525 292.762153 
L 165.346239 272.503604 
" clip-path="url(#p0719759bd8)" style="fill: #ffffff"/>
    <path d="M 172.332407 294.33325 
L 136.14643 258.810345 
" clip-path="url(#p0719759bd8)" style="stroke: #000000; stroke-width: 1.13253"/>
    <path d="M 171.025468 296.136625 
L 90.186261 254.246439 
" clip-path="url(#p0719759bd8)" style="stroke: #000000; stroke-width: 1.188755"/>
    <path d="M 170.378144 297.894092 
L 56.38566 271.477216 
" clip-path="url(#p0719759bd8)" style="fill: #ffffff"/>
    <path d="M 170.184517 299.587288 
L 43.464254 299.587288 
" clip-path="url(#p0719759bd8)" style="fill: #ffffff"/>
    <path d="M 170.378144 301.280483 
L 62.230759 326.342803 
" clip-path="url(#p0719759bd8)" style="stroke: #000000; stroke-width: 2"/>
    <path d="M 171.025468 303.03795 
L 90.186261 344.928136 
" clip-path="url(#p0719759bd8)" style="fill: #ffffff"/>
    <path d="M 172.332407 304.841326 
L 131.864741 344.567461 
" clip-path="url(#p0719759bd8)" style="fill: #ffffff"/>
    <path d="M 174.57525 306.412422 
L 165.346239 326.670971 
" clip-path="url(#p0719759bd8)" style="fill: #ffffff"/>
    <path d="M 166.182636 270.787144 
C 193.481578 262.593176 174.714065 242.850659 165.149161 269.699978 
C 174.714065 242.850659 193.481578 262.593176 166.182636 270.787144 
" clip-path="url(#p0719759bd8)" style="fill: #ffffff"/>
    <path d="M 163.392576 270.448444 
L 137.453368 257.006969 
" clip-path="url(#p0719759bd8)" style="stroke: #000000; stroke-width: 0.738956"/>
    <path d="M 163.263111 270.799938 
L 90.315726 253.894946 
" clip-path="url(#p0719759bd8)" style="fill: #ffffff"/>
    <path d="M 163.224385 271.138577 
L 56.424386 271.138577 
" clip-path="url(#p0719759bd8)" style="fill: #ffffff"/>
    <path d="M 163.263111 271.477216 
L 43.425528 299.248648 
" clip-path="url(#p0719759bd8)" style="fill: #ffffff"/>
    <path d="M 163.392576 271.828709 
L 61.583434 324.585336 
" clip-path="url(#p0719759bd8)" style="stroke: #000000; stroke-width: 0.915663"/>
    <path d="M 163.653963 272.189384 
L 89.924873 344.567461 
" clip-path="url(#p0719759bd8)" style="fill: #ffffff"/>
    <path d="M 164.102532 272.503604 
L 131.416173 344.253242 
" clip-path="url(#p0719759bd8)" style="fill: #ffffff"/>
    <path d="M 164.724385 272.638577 
L 164.724385 326.535998 
" clip-path="url(#p0719759bd8)" style="fill: #ffffff"/>
    <path d="M 135.975597 248.133728 
C 150.355843 230.811048 123.890994 224.361374 128.688867 246.357899 
C 123.890994 224.361374 150.355843 230.811048 135.975597 248.133728 
" clip-path="url(#p0719759bd8)" style="fill: #ffffff"/>
    <path d="M 123.294319 253.556307 
L 90.354451 253.556307 
" clip-path="url(#p0719759bd8)" style="fill: #ffffff"/>
    <path d="M 123.487946 255.249502 
L 56.38566 270.799938 
" clip-path="url(#p0719759bd8)" style="fill: #ffffff"/>
    <path d="M 124.135271 257.006969 
L 43.296063 298.897155 
" clip-path="url(#p0719759bd8)" style="fill: #ffffff"/>
    <path d="M 125.442209 258.810345 
L 60.276496 322.78196 
" clip-path="url(#p0719759bd8)" style="stroke: #000000; stroke-width: 1.493976"/>
    <path d="M 127.685052 260.381441 
L 89.476305 344.253242 
" clip-path="url(#p0719759bd8)" style="fill: #ffffff"/>
    <path d="M 130.794319 261.056307 
L 130.794319 344.118268 
" clip-path="url(#p0719759bd8)" style="fill: #ffffff"/>
    <path d="M 133.903586 260.381441 
L 164.102532 326.670971 
" clip-path="url(#p0719759bd8)" style="fill: #ffffff"/>
    <path d="M 89.275542 252.116625 
C 95.757777 224.361374 69.292927 230.811048 87.818196 252.471791 
C 69.292927 230.811048 95.757777 224.361374 89.275542 252.116625 
" clip-path="url(#p0719759bd8)" style="fill: #ffffff"/>
    <path d="M 87.522642 254.246439 
L 56.256195 270.448444 
" clip-path="url(#p0719759bd8)" style="fill: #ffffff"/>
    <path d="M 87.784029 254.607114 
L 43.034676 298.53648 
" clip-path="url(#p0719759bd8)" style="fill: #ffffff"/>
    <path d="M 88.232598 254.921334 
L 58.033653 321.210864 
" clip-path="url(#p0719759bd8)" style="fill: #ffffff"/>
    <path d="M 88.854451 255.056307 
L 88.854451 344.118268 
" clip-path="url(#p0719759bd8)" style="fill: #ffffff"/>
    <path d="M 89.476305 254.921334 
L 130.172466 344.253242 
" clip-path="url(#p0719759bd8)" style="fill: #ffffff"/>
    <path d="M 89.924873 254.607114 
L 163.653963 326.985191 
" clip-path="url(#p0719759bd8)" style="stroke: #000000; stroke-width: 0.75502"/>
    <path d="M 54.49961 269.699978 
C 44.934706 242.850659 26.167193 262.593176 53.466135 270.787144 
C 26.167193 262.593176 44.934706 242.850659 54.49961 269.699978 
" clip-path="url(#p0719759bd8)" style="fill: #ffffff"/>
    <path d="M 54.302532 272.503604 
L 42.586107 298.222261 
" clip-path="url(#p0719759bd8)" style="fill: #ffffff"/>
    <path d="M 54.924386 272.638577 
L 54.924386 320.535998 
" clip-path="url(#p0719759bd8)" style="fill: #ffffff"/>
    <path d="M 55.546239 272.503604 
L 88.232598 344.253242 
" clip-path="url(#p0719759bd8)" style="fill: #ffffff"/>
    <path d="M 55.994808 272.189384 
L 129.723897 344.567461 
" clip-path="url(#p0719759bd8)" style="fill: #ffffff"/>
    <path d="M 56.256195 271.828709 
L 163.392576 327.345866 
" clip-path="url(#p0719759bd8)" style="fill: #ffffff"/>
    <path d="M 40.665215 298.837288 
C 15.234058 285.967573 15.234058 313.207003 40.665215 300.337288 
C 15.234058 313.207003 15.234058 285.967573 40.665215 298.837288 
" clip-path="url(#p0719759bd8)" style="fill: #ffffff"/>
    <path d="M 42.586107 300.952314 
L 51.815118 321.210864 
" clip-path="url(#p0719759bd8)" style="fill: #ffffff"/>
    <path d="M 43.034676 300.638095 
L 87.784029 344.567461 
" clip-path="url(#p0719759bd8)" style="fill: #ffffff"/>
    <path d="M 43.296063 300.27742 
L 129.46251 344.928136 
" clip-path="url(#p0719759bd8)" style="fill: #ffffff"/>
    <path d="M 43.425528 299.925927 
L 163.263111 327.697359 
" clip-path="url(#p0719759bd8)" style="fill: #ffffff"/>
    <path d="M 47.633132 329.793162 
C 26.167193 336.581399 44.934706 356.323916 52.800507 335.228991 
C 44.934706 356.323916 26.167193 336.581399 47.633132 329.793162 
" clip-path="url(#p0719759bd8)" style="fill: #ffffff"/>
    <path d="M 61.583434 331.48666 
L 87.522642 344.928136 
" clip-path="url(#p0719759bd8)" style="fill: #ffffff"/>
    <path d="M 62.230759 329.729194 
L 129.333045 345.279629 
" clip-path="url(#p0719759bd8)" style="fill: #ffffff"/>
    <path d="M 62.424386 328.035998 
L 163.224385 328.035998 
" clip-path="url(#p0719759bd8)" style="fill: #ffffff"/>
    <path d="M 87.818196 346.702784 
C 69.292927 368.363527 95.757777 374.813201 89.275542 347.05795 
C 95.757777 374.813201 69.292927 368.363527 87.818196 346.702784 
" clip-path="url(#p0719759bd8)" style="fill: #ffffff"/>
    <path d="M 90.354451 345.618268 
L 129.294319 345.618268 
" clip-path="url(#p0719759bd8)" style="stroke: #000000; stroke-width: 0.409639"/>
    <path d="M 90.315726 345.279629 
L 163.263111 328.374637 
" clip-path="url(#p0719759bd8)" style="fill: #ffffff"/>
    <path d="M 130.373229 347.05795 
C 123.890994 374.813201 150.355843 368.363527 131.830575 346.702784 
C 150.355843 368.363527 123.890994 374.813201 130.373229 347.05795 
" clip-path="url(#p0719759bd8)" style="fill: #ffffff"/>
    <path d="M 132.126129 344.928136 
L 163.392576 328.726131 
" clip-path="url(#p0719759bd8)" style="fill: #ffffff"/>
    <path d="M 165.149161 329.474597 
C 174.714065 356.323916 193.481578 336.581399 166.182636 328.387431 
C 193.481578 336.581399 174.714065 356.323916 165.149161 329.474597 
" clip-path="url(#p0719759bd8)" style="fill: #ffffff"/>
   </g>
   <g id="VertexCollection_2">
    <path d="M 177.684517 307.087288 
C 179.67354 307.087288 181.581366 306.29704 182.987818 304.890588 
C 184.39427 303.484137 185.184517 301.576311 185.184517 299.587288 
C 185.184517 297.598264 184.39427 295.690439 182.987818 294.283987 
C 181.581366 292.877535 179.67354 292.087288 177.684517 292.087288 
C 175.695494 292.087288 173.787668 292.877535 172.381216 294.283987 
C 170.974765 295.690439 170.184517 297.598264 170.184517 299.587288 
C 170.184517 301.576311 170.974765 303.484137 172.381216 304.890588 
C 173.787668 306.29704 175.695494 307.087288 177.684517 307.087288 
z
" clip-path="url(#p0719759bd8)" style="fill: #6b010e; stroke: #00ff00; stroke-width: 3"/>
    <path d="M 164.724385 272.638577 
C 165.12219 272.638577 165.503755 272.480527 165.785045 272.199237 
C 166.066336 271.917947 166.224385 271.536382 166.224385 271.138577 
C 166.224385 270.740772 166.066336 270.359207 165.785045 270.077917 
C 165.503755 269.796626 165.12219 269.638577 164.724385 269.638577 
C 164.326581 269.638577 163.945015 269.796626 163.663725 270.077917 
C 163.382435 270.359207 163.224385 270.740772 163.224385 271.138577 
C 163.224385 271.536382 163.382435 271.917947 163.663725 272.199237 
C 163.945015 272.480527 164.326581 272.638577 164.724385 272.638577 
z
" clip-path="url(#p0719759bd8)" style="fill: #fdcab5; stroke: #00ff00; stroke-width: 3"/>
    <path d="M 130.794319 261.056307 
C 132.783343 261.056307 134.691168 260.266059 136.09762 258.859608 
C 137.504072 257.453156 138.294319 255.54533 138.294319 253.556307 
C 138.294319 251.567283 137.504072 249.659458 136.09762 248.253006 
C 134.691168 246.846554 132.783343 246.056307 130.794319 246.056307 
C 128.805296 246.056307 126.89747 246.846554 125.491019 248.253006 
C 124.084567 249.659458 123.294319 251.567283 123.294319 253.556307 
C 123.294319 255.54533 124.084567 257.453156 125.491019 258.859608 
C 126.89747 260.266059 128.805296 261.056307 130.794319 261.056307 
z
" clip-path="url(#p0719759bd8)" style="fill: #6b010e; stroke: #00ff00; stroke-width: 3"/>
    <path d="M 88.854451 255.056307 
C 89.252256 255.056307 89.633821 254.898257 89.915112 254.616967 
C 90.196402 254.335677 90.354451 253.954111 90.354451 253.556307 
C 90.354451 253.158502 90.196402 252.776937 89.915112 252.495647 
C 89.633821 252.214356 89.252256 252.056307 88.854451 252.056307 
C 88.456647 252.056307 88.075082 252.214356 87.793791 252.495647 
C 87.512501 252.776937 87.354451 253.158502 87.354451 253.556307 
C 87.354451 253.954111 87.512501 254.335677 87.793791 254.616967 
C 88.075082 254.898257 88.456647 255.056307 88.854451 255.056307 
z
" clip-path="url(#p0719759bd8)" style="fill: #fdcab5; stroke: #00ff00; stroke-width: 3"/>
    <path d="M 54.924386 272.638577 
C 55.32219 272.638577 55.703755 272.480527 55.985046 272.199237 
C 56.266336 271.917947 56.424386 271.536382 56.424386 271.138577 
C 56.424386 270.740772 56.266336 270.359207 55.985046 270.077917 
C 55.703755 269.796626 55.32219 269.638577 54.924386 269.638577 
C 54.526581 269.638577 54.145016 269.796626 53.863725 270.077917 
C 53.582435 270.359207 53.424386 270.740772 53.424386 271.138577 
C 53.424386 271.536382 53.582435 271.917947 53.863725 272.199237 
C 54.145016 272.480527 54.526581 272.638577 54.924386 272.638577 
z
" clip-path="url(#p0719759bd8)" style="fill: #fdcab5; stroke: #00ff00; stroke-width: 3"/>
    <path d="M 41.964254 301.087288 
C 42.362058 301.087288 42.743623 300.929238 43.024914 300.647948 
C 43.306204 300.366657 43.464254 299.985092 43.464254 299.587288 
C 43.464254 299.189483 43.306204 298.807918 43.024914 298.526627 
C 42.743623 298.245337 42.362058 298.087288 41.964254 298.087288 
C 41.566449 298.087288 41.184884 298.245337 40.903593 298.526627 
C 40.622303 298.807918 40.464254 299.189483 40.464254 299.587288 
C 40.464254 299.985092 40.622303 300.366657 40.903593 300.647948 
C 41.184884 300.929238 41.566449 301.087288 41.964254 301.087288 
z
" clip-path="url(#p0719759bd8)" style="fill: #fdcab5; stroke: #00ff00; stroke-width: 3"/>
    <path d="M 54.924386 335.535998 
C 56.913409 335.535998 58.821235 334.745751 60.227686 333.339299 
C 61.634138 331.932847 62.424386 330.025022 62.424386 328.035998 
C 62.424386 326.046975 61.634138 324.139149 60.227686 322.732697 
C 58.821235 321.326246 56.913409 320.535998 54.924386 320.535998 
C 52.935362 320.535998 51.027536 321.326246 49.621085 322.732697 
C 48.214633 324.139149 47.424386 326.046975 47.424386 328.035998 
C 47.424386 330.025022 48.214633 331.932847 49.621085 333.339299 
C 51.027536 334.745751 52.935362 335.535998 54.924386 335.535998 
z
" clip-path="url(#p0719759bd8)" style="fill: #6b010e; stroke: #ff0000; stroke-width: 3"/>
    <path d="M 88.854451 347.118268 
C 89.252256 347.118268 89.633821 346.960219 89.915112 346.678929 
C 90.196402 346.397638 90.354451 346.016073 90.354451 345.618268 
C 90.354451 345.220464 90.196402 344.838899 89.915112 344.557608 
C 89.633821 344.276318 89.252256 344.118268 88.854451 344.118268 
C 88.456647 344.118268 88.075082 344.276318 87.793791 344.557608 
C 87.512501 344.838899 87.354451 345.220464 87.354451 345.618268 
C 87.354451 346.016073 87.512501 346.397638 87.793791 346.678929 
C 88.075082 346.960219 88.456647 347.118268 88.854451 347.118268 
z
" clip-path="url(#p0719759bd8)" style="fill: #fdcab5; stroke: #00ff00; stroke-width: 3"/>
    <path d="M 130.794319 347.118268 
C 131.192124 347.118268 131.573689 346.960219 131.85498 346.678929 
C 132.13627 346.397638 132.294319 346.016073 132.294319 345.618268 
C 132.294319 345.220464 132.13627 344.838899 131.85498 344.557608 
C 131.573689 344.276318 131.192124 344.118268 130.794319 344.118268 
C 130.396515 344.118268 130.01495 344.276318 129.733659 344.557608 
C 129.452369 344.838899 129.294319 345.220464 129.294319 345.618268 
C 129.294319 346.016073 129.452369 346.397638 129.733659 346.678929 
C 130.01495 346.960219 130.396515 347.118268 130.794319 347.118268 
z
" clip-path="url(#p0719759bd8)" style="fill: #fdcab5; stroke: #00ff00; stroke-width: 3"/>
    <path d="M 164.724385 329.535998 
C 165.12219 329.535998 165.503755 329.377949 165.785045 329.096658 
C 166.066336 328.815368 166.224385 328.433803 166.224385 328.035998 
C 166.224385 327.638194 166.066336 327.256628 165.785045 326.975338 
C 165.503755 326.694048 165.12219 326.535998 164.724385 326.535998 
C 164.326581 326.535998 163.945015 326.694048 163.663725 326.975338 
C 163.382435 327.256628 163.224385 327.638194 163.224385 328.035998 
C 163.224385 328.433803 163.382435 328.815368 163.663725 329.096658 
C 163.945015 329.377949 164.326581 329.535998 164.724385 329.535998 
z
" clip-path="url(#p0719759bd8)" style="fill: #fdcab5; stroke: #00ff00; stroke-width: 3"/>
   </g>
   <g id="matplotlib.axis_3"/>
   <g id="matplotlib.axis_4"/>
  </g>
  <g id="axes_3">
   <g id="patch_4">
    <path d="M 27 493.671724 
L 194.4 493.671724 
L 194.4 378.968276 
L 27 378.968276 
z
" style="fill: #ffffff"/>
   </g>
   <g id="EdgeCollection_3">
    <path d="M 184.179708 440.981426 
C 204.414713 450.851141 204.414713 423.611711 184.179708 433.481426 
C 204.414713 423.611711 204.414713 450.851141 184.179708 440.981426 
" clip-path="url(#p6d0c3a6f6a)" style="fill: #ffffff"/>
    <path d="M 174.57525 430.406291 
L 165.346239 410.147742 
" clip-path="url(#p6d0c3a6f6a)" style="fill: #ffffff"/>
    <path d="M 172.332407 431.977387 
L 131.864741 392.251252 
" clip-path="url(#p6d0c3a6f6a)" style="fill: #ffffff"/>
    <path d="M 171.025468 433.780763 
L 95.5135 394.651107 
" clip-path="url(#p6d0c3a6f6a)" style="stroke: #000000; stroke-width: 1.884817"/>
    <path d="M 170.378144 435.53823 
L 56.38566 409.121354 
" clip-path="url(#p6d0c3a6f6a)" style="fill: #ffffff"/>
    <path d="M 170.184517 437.231426 
L 43.464254 437.231426 
" clip-path="url(#p6d0c3a6f6a)" style="fill: #ffffff"/>
    <path d="M 170.378144 438.924621 
L 62.230759 463.986941 
" clip-path="url(#p6d0c3a6f6a)" style="stroke: #000000; stroke-width: 2"/>
    <path d="M 171.025468 440.682088 
L 90.186261 482.572274 
" clip-path="url(#p6d0c3a6f6a)" style="fill: #ffffff"/>
    <path d="M 172.332407 442.485464 
L 131.864741 482.211599 
" clip-path="url(#p6d0c3a6f6a)" style="fill: #ffffff"/>
    <path d="M 174.57525 444.05656 
L 167.833652 458.855002 
" clip-path="url(#p6d0c3a6f6a)" style="stroke: #000000; stroke-width: 1.267016"/>
    <path d="M 166.182636 408.431282 
C 193.481578 400.237314 174.714065 380.494797 165.149161 407.344116 
C 174.714065 380.494797 193.481578 400.237314 166.182636 408.431282 
" clip-path="url(#p6d0c3a6f6a)" style="fill: #ffffff"/>
    <path d="M 163.392576 408.092582 
L 132.126129 391.890577 
" clip-path="url(#p6d0c3a6f6a)" style="fill: #ffffff"/>
    <path d="M 163.263111 408.444076 
L 96.160825 392.89364 
" clip-path="url(#p6d0c3a6f6a)" style="fill: #ffffff"/>
    <path d="M 163.224385 408.782715 
L 56.424386 408.782715 
" clip-path="url(#p6d0c3a6f6a)" style="fill: #ffffff"/>
    <path d="M 163.263111 409.121354 
L 43.425528 436.892786 
" clip-path="url(#p6d0c3a6f6a)" style="fill: #ffffff"/>
    <path d="M 163.392576 409.472847 
L 61.583434 462.229474 
" clip-path="url(#p6d0c3a6f6a)" style="stroke: #000000; stroke-width: 1.298429"/>
    <path d="M 163.653963 409.833522 
L 89.924873 482.211599 
" clip-path="url(#p6d0c3a6f6a)" style="fill: #ffffff"/>
    <path d="M 164.102532 410.147742 
L 131.416173 481.89738 
" clip-path="url(#p6d0c3a6f6a)" style="fill: #ffffff"/>
    <path d="M 164.724385 410.282715 
L 164.724385 458.180136 
" clip-path="url(#p6d0c3a6f6a)" style="fill: #ffffff"/>
    <path d="M 131.830575 390.115929 
C 150.355843 368.455186 123.890994 362.005512 130.373229 389.760763 
C 123.890994 362.005512 150.355843 368.455186 131.830575 390.115929 
" clip-path="url(#p6d0c3a6f6a)" style="fill: #ffffff"/>
    <path d="M 129.294319 391.200445 
L 96.354451 391.200445 
" clip-path="url(#p6d0c3a6f6a)" style="stroke: #000000; stroke-width: 0.931937"/>
    <path d="M 129.333045 391.539084 
L 56.38566 408.444076 
" clip-path="url(#p6d0c3a6f6a)" style="fill: #ffffff"/>
    <path d="M 129.46251 391.890577 
L 43.296063 436.541293 
" clip-path="url(#p6d0c3a6f6a)" style="fill: #ffffff"/>
    <path d="M 129.723897 392.251252 
L 60.276496 460.426098 
" clip-path="url(#p6d0c3a6f6a)" style="stroke: #000000; stroke-width: 1.518325"/>
    <path d="M 130.172466 392.565472 
L 89.476305 481.89738 
" clip-path="url(#p6d0c3a6f6a)" style="fill: #ffffff"/>
    <path d="M 130.794319 392.700445 
L 130.794319 481.762406 
" clip-path="url(#p6d0c3a6f6a)" style="fill: #ffffff"/>
    <path d="M 131.416173 392.565472 
L 161.615118 458.855002 
" clip-path="url(#p6d0c3a6f6a)" style="fill: #ffffff"/>
    <path d="M 90.959904 384.002037 
C 95.757777 362.005512 69.292927 368.455186 83.673174 385.777866 
C 69.292927 368.455186 95.757777 362.005512 90.959904 384.002037 
" clip-path="url(#p6d0c3a6f6a)" style="fill: #ffffff"/>
    <path d="M 82.195403 394.651107 
L 56.256195 408.092582 
" clip-path="url(#p6d0c3a6f6a)" style="fill: #ffffff"/>
    <path d="M 83.502341 396.454483 
L 43.034676 436.180618 
" clip-path="url(#p6d0c3a6f6a)" style="fill: #ffffff"/>
    <path d="M 85.745184 398.025579 
L 58.033653 458.855002 
" clip-path="url(#p6d0c3a6f6a)" style="fill: #ffffff"/>
    <path d="M 88.854451 398.700445 
L 88.854451 481.762406 
" clip-path="url(#p6d0c3a6f6a)" style="fill: #ffffff"/>
    <path d="M 91.963719 398.025579 
L 130.172466 481.89738 
" clip-path="url(#p6d0c3a6f6a)" style="fill: #ffffff"/>
    <path d="M 94.206562 396.454483 
L 159.372275 460.426098 
" clip-path="url(#p6d0c3a6f6a)" style="stroke: #000000; stroke-width: 1.947644"/>
    <path d="M 54.49961 407.344116 
C 44.934706 380.494797 26.167193 400.237314 53.466135 408.431282 
C 26.167193 400.237314 44.934706 380.494797 54.49961 407.344116 
" clip-path="url(#p6d0c3a6f6a)" style="fill: #ffffff"/>
    <path d="M 54.302532 410.147742 
L 42.586107 435.866399 
" clip-path="url(#p6d0c3a6f6a)" style="fill: #ffffff"/>
    <path d="M 54.924386 410.282715 
L 54.924386 458.180136 
" clip-path="url(#p6d0c3a6f6a)" style="fill: #ffffff"/>
    <path d="M 55.546239 410.147742 
L 88.232598 481.89738 
" clip-path="url(#p6d0c3a6f6a)" style="fill: #ffffff"/>
    <path d="M 55.994808 409.833522 
L 129.723897 482.211599 
" clip-path="url(#p6d0c3a6f6a)" style="fill: #ffffff"/>
    <path d="M 56.256195 409.472847 
L 158.065336 462.229474 
" clip-path="url(#p6d0c3a6f6a)" style="fill: #ffffff"/>
    <path d="M 40.665215 436.481426 
C 15.234058 423.611711 15.234058 450.851141 40.665215 437.981426 
C 15.234058 450.851141 15.234058 423.611711 40.665215 436.481426 
" clip-path="url(#p6d0c3a6f6a)" style="fill: #ffffff"/>
    <path d="M 42.586107 438.596452 
L 51.815118 458.855002 
" clip-path="url(#p6d0c3a6f6a)" style="fill: #ffffff"/>
    <path d="M 43.034676 438.282233 
L 87.784029 482.211599 
" clip-path="url(#p6d0c3a6f6a)" style="fill: #ffffff"/>
    <path d="M 43.296063 437.921558 
L 129.46251 482.572274 
" clip-path="url(#p6d0c3a6f6a)" style="fill: #ffffff"/>
    <path d="M 43.425528 437.570065 
L 157.418012 463.986941 
" clip-path="url(#p6d0c3a6f6a)" style="fill: #ffffff"/>
    <path d="M 47.633132 467.4373 
C 26.167193 474.225537 44.934706 493.968054 52.800507 472.873129 
C 44.934706 493.968054 26.167193 474.225537 47.633132 467.4373 
" clip-path="url(#p6d0c3a6f6a)" style="fill: #ffffff"/>
    <path d="M 61.583434 469.130798 
L 87.522642 482.572274 
" clip-path="url(#p6d0c3a6f6a)" style="fill: #ffffff"/>
    <path d="M 62.230759 467.373332 
L 129.333045 482.923767 
" clip-path="url(#p6d0c3a6f6a)" style="fill: #ffffff"/>
    <path d="M 62.424386 465.680136 
L 157.224385 465.680136 
" clip-path="url(#p6d0c3a6f6a)" style="fill: #ffffff"/>
    <path d="M 87.818196 484.346922 
C 69.292927 506.007665 95.757777 512.457339 89.275542 484.702088 
C 95.757777 512.457339 69.292927 506.007665 87.818196 484.346922 
" clip-path="url(#p6d0c3a6f6a)" style="fill: #ffffff"/>
    <path d="M 90.354451 483.262406 
L 129.294319 483.262406 
" clip-path="url(#p6d0c3a6f6a)" style="stroke: #000000; stroke-width: 1.04712"/>
    <path d="M 90.315726 482.923767 
L 157.418012 467.373332 
" clip-path="url(#p6d0c3a6f6a)" style="fill: #ffffff"/>
    <path d="M 130.373229 484.702088 
C 123.890994 512.457339 150.355843 506.007665 131.830575 484.346922 
C 150.355843 506.007665 123.890994 512.457339 130.373229 484.702088 
" clip-path="url(#p6d0c3a6f6a)" style="fill: #ffffff"/>
    <path d="M 132.126129 482.572274 
L 158.065336 469.130798 
" clip-path="url(#p6d0c3a6f6a)" style="stroke: #000000; stroke-width: 1.507853"/>
    <path d="M 166.848264 472.873129 
C 174.714065 493.968054 193.481578 474.225537 172.015639 467.4373 
C 193.481578 474.225537 174.714065 493.968054 166.848264 472.873129 
" clip-path="url(#p6d0c3a6f6a)" style="fill: #ffffff"/>
   </g>
   <g id="VertexCollection_3">
    <path d="M 177.684517 444.731426 
C 179.67354 444.731426 181.581366 443.941178 182.987818 442.534726 
C 184.39427 441.128275 185.184517 439.220449 185.184517 437.231426 
C 185.184517 435.242402 184.39427 433.334576 182.987818 431.928125 
C 181.581366 430.521673 179.67354 429.731426 177.684517 429.731426 
C 175.695494 429.731426 173.787668 430.521673 172.381216 431.928125 
C 170.974765 433.334576 170.184517 435.242402 170.184517 437.231426 
C 170.184517 439.220449 170.974765 441.128275 172.381216 442.534726 
C 173.787668 443.941178 175.695494 444.731426 177.684517 444.731426 
z
" clip-path="url(#p6d0c3a6f6a)" style="fill: #6b010e; stroke: #00ff00; stroke-width: 3"/>
    <path d="M 164.724385 410.282715 
C 165.12219 410.282715 165.503755 410.124665 165.785045 409.843375 
C 166.066336 409.562085 166.224385 409.180519 166.224385 408.782715 
C 166.224385 408.38491 166.066336 408.003345 165.785045 407.722055 
C 165.503755 407.440764 165.12219 407.282715 164.724385 407.282715 
C 164.326581 407.282715 163.945015 407.440764 163.663725 407.722055 
C 163.382435 408.003345 163.224385 408.38491 163.224385 408.782715 
C 163.224385 409.180519 163.382435 409.562085 163.663725 409.843375 
C 163.945015 410.124665 164.326581 410.282715 164.724385 410.282715 
z
" clip-path="url(#p6d0c3a6f6a)" style="fill: #fdcab5; stroke: #00ff00; stroke-width: 3"/>
    <path d="M 130.794319 392.700445 
C 131.192124 392.700445 131.573689 392.542395 131.85498 392.261105 
C 132.13627 391.979814 132.294319 391.598249 132.294319 391.200445 
C 132.294319 390.80264 132.13627 390.421075 131.85498 390.139784 
C 131.573689 389.858494 131.192124 389.700445 130.794319 389.700445 
C 130.396515 389.700445 130.01495 389.858494 129.733659 390.139784 
C 129.452369 390.421075 129.294319 390.80264 129.294319 391.200445 
C 129.294319 391.598249 129.452369 391.979814 129.733659 392.261105 
C 130.01495 392.542395 130.396515 392.700445 130.794319 392.700445 
z
" clip-path="url(#p6d0c3a6f6a)" style="fill: #fdcab5; stroke: #00ff00; stroke-width: 3"/>
    <path d="M 88.854451 398.700445 
C 90.843475 398.700445 92.7513 397.910197 94.157752 396.503746 
C 95.564204 395.097294 96.354451 393.189468 96.354451 391.200445 
C 96.354451 389.211421 95.564204 387.303596 94.157752 385.897144 
C 92.7513 384.490692 90.843475 383.700445 88.854451 383.700445 
C 86.865428 383.700445 84.957602 384.490692 83.551151 385.897144 
C 82.144699 387.303596 81.354451 389.211421 81.354451 391.200445 
C 81.354451 393.189468 82.144699 395.097294 83.551151 396.503746 
C 84.957602 397.910197 86.865428 398.700445 88.854451 398.700445 
z
" clip-path="url(#p6d0c3a6f6a)" style="fill: #6b010e; stroke: #00ff00; stroke-width: 3"/>
    <path d="M 54.924386 410.282715 
C 55.32219 410.282715 55.703755 410.124665 55.985046 409.843375 
C 56.266336 409.562085 56.424386 409.180519 56.424386 408.782715 
C 56.424386 408.38491 56.266336 408.003345 55.985046 407.722055 
C 55.703755 407.440764 55.32219 407.282715 54.924386 407.282715 
C 54.526581 407.282715 54.145016 407.440764 53.863725 407.722055 
C 53.582435 408.003345 53.424386 408.38491 53.424386 408.782715 
C 53.424386 409.180519 53.582435 409.562085 53.863725 409.843375 
C 54.145016 410.124665 54.526581 410.282715 54.924386 410.282715 
z
" clip-path="url(#p6d0c3a6f6a)" style="fill: #fdcab5; stroke: #00ff00; stroke-width: 3"/>
    <path d="M 41.964254 438.731426 
C 42.362058 438.731426 42.743623 438.573376 43.024914 438.292086 
C 43.306204 438.010795 43.464254 437.62923 43.464254 437.231426 
C 43.464254 436.833621 43.306204 436.452056 43.024914 436.170765 
C 42.743623 435.889475 42.362058 435.731426 41.964254 435.731426 
C 41.566449 435.731426 41.184884 435.889475 40.903593 436.170765 
C 40.622303 436.452056 40.464254 436.833621 40.464254 437.231426 
C 40.464254 437.62923 40.622303 438.010795 40.903593 438.292086 
C 41.184884 438.573376 41.566449 438.731426 41.964254 438.731426 
z
" clip-path="url(#p6d0c3a6f6a)" style="fill: #fdcab5; stroke: #00ff00; stroke-width: 3"/>
    <path d="M 54.924386 473.180136 
C 56.913409 473.180136 58.821235 472.389889 60.227686 470.983437 
C 61.634138 469.576985 62.424386 467.669159 62.424386 465.680136 
C 62.424386 463.691113 61.634138 461.783287 60.227686 460.376835 
C 58.821235 458.970384 56.913409 458.180136 54.924386 458.180136 
C 52.935362 458.180136 51.027536 458.970384 49.621085 460.376835 
C 48.214633 461.783287 47.424386 463.691113 47.424386 465.680136 
C 47.424386 467.669159 48.214633 469.576985 49.621085 470.983437 
C 51.027536 472.389889 52.935362 473.180136 54.924386 473.180136 
z
" clip-path="url(#p6d0c3a6f6a)" style="fill: #6b010e; stroke: #ff0000; stroke-width: 3"/>
    <path d="M 88.854451 484.762406 
C 89.252256 484.762406 89.633821 484.604357 89.915112 484.323067 
C 90.196402 484.041776 90.354451 483.660211 90.354451 483.262406 
C 90.354451 482.864602 90.196402 482.483037 89.915112 482.201746 
C 89.633821 481.920456 89.252256 481.762406 88.854451 481.762406 
C 88.456647 481.762406 88.075082 481.920456 87.793791 482.201746 
C 87.512501 482.483037 87.354451 482.864602 87.354451 483.262406 
C 87.354451 483.660211 87.512501 484.041776 87.793791 484.323067 
C 88.075082 484.604357 88.456647 484.762406 88.854451 484.762406 
z
" clip-path="url(#p6d0c3a6f6a)" style="fill: #fdcab5; stroke: #00ff00; stroke-width: 3"/>
    <path d="M 130.794319 484.762406 
C 131.192124 484.762406 131.573689 484.604357 131.85498 484.323067 
C 132.13627 484.041776 132.294319 483.660211 132.294319 483.262406 
C 132.294319 482.864602 132.13627 482.483037 131.85498 482.201746 
C 131.573689 481.920456 131.192124 481.762406 130.794319 481.762406 
C 130.396515 481.762406 130.01495 481.920456 129.733659 482.201746 
C 129.452369 482.483037 129.294319 482.864602 129.294319 483.262406 
C 129.294319 483.660211 129.452369 484.041776 129.733659 484.323067 
C 130.01495 484.604357 130.396515 484.762406 130.794319 484.762406 
z
" clip-path="url(#p6d0c3a6f6a)" style="fill: #fdcab5; stroke: #00ff00; stroke-width: 3"/>
    <path d="M 164.724385 473.180136 
C 166.713409 473.180136 168.621234 472.389889 170.027686 470.983437 
C 171.434138 469.576985 172.224385 467.669159 172.224385 465.680136 
C 172.224385 463.691113 171.434138 461.783287 170.027686 460.376835 
C 168.621234 458.970384 166.713409 458.180136 164.724385 458.180136 
C 162.735362 458.180136 160.827536 458.970384 159.421084 460.376835 
C 158.014633 461.783287 157.224385 463.691113 157.224385 465.680136 
C 157.224385 467.669159 158.014633 469.576985 159.421084 470.983437 
C 160.827536 472.389889 162.735362 473.180136 164.724385 473.180136 
z
" clip-path="url(#p6d0c3a6f6a)" style="fill: #6b010e; stroke: #00ff00; stroke-width: 3"/>
   </g>
   <g id="matplotlib.axis_5"/>
   <g id="matplotlib.axis_6"/>
  </g>
  <g id="axes_4">
   <g id="patch_5">
    <path d="M 27 631.315862 
L 194.4 631.315862 
L 194.4 516.612414 
L 27 516.612414 
z
" style="fill: #ffffff"/>
   </g>
   <g id="EdgeCollection_4">
    <path d="M 184.179708 576.802712 
C 204.414713 586.672427 204.414713 559.432997 184.179708 569.302712 
C 204.414713 559.432997 204.414713 586.672427 184.179708 576.802712 
" clip-path="url(#p834e669067)" style="fill: #ffffff"/>
    <path d="M 174.57525 566.227578 
L 165.346239 545.969029 
" clip-path="url(#p834e669067)" style="fill: #ffffff"/>
    <path d="M 172.332407 567.798674 
L 131.864741 528.072539 
" clip-path="url(#p834e669067)" style="stroke: #000000; stroke-width: 1.026178"/>
    <path d="M 171.025468 569.60205 
L 90.186261 527.711864 
" clip-path="url(#p834e669067)" style="stroke: #000000; stroke-width: 1.602094"/>
    <path d="M 170.378144 571.359517 
L 56.38566 544.942641 
" clip-path="url(#p834e669067)" style="fill: #ffffff"/>
    <path d="M 170.184517 573.052712 
L 43.464254 573.052712 
" clip-path="url(#p834e669067)" style="fill: #ffffff"/>
    <path d="M 170.378144 574.745908 
L 62.230759 599.808228 
" clip-path="url(#p834e669067)" style="stroke: #000000; stroke-width: 1.329843"/>
    <path d="M 171.025468 576.503375 
L 95.5135 615.633031 
" clip-path="url(#p834e669067)" style="fill: #ffffff"/>
    <path d="M 172.332407 578.30675 
L 131.864741 618.032886 
" clip-path="url(#p834e669067)" style="fill: #ffffff"/>
    <path d="M 174.57525 579.877847 
L 165.346239 600.136396 
" clip-path="url(#p834e669067)" style="fill: #ffffff"/>
    <path d="M 166.182636 544.252569 
C 193.481578 536.058601 174.714065 516.316084 165.149161 543.165403 
C 174.714065 516.316084 193.481578 536.058601 166.182636 544.252569 
" clip-path="url(#p834e669067)" style="fill: #ffffff"/>
    <path d="M 163.392576 543.913869 
L 132.126129 527.711864 
" clip-path="url(#p834e669067)" style="fill: #ffffff"/>
    <path d="M 163.263111 544.265363 
L 90.315726 527.360371 
" clip-path="url(#p834e669067)" style="fill: #ffffff"/>
    <path d="M 163.224385 544.604002 
L 56.424386 544.604002 
" clip-path="url(#p834e669067)" style="fill: #ffffff"/>
    <path d="M 163.263111 544.942641 
L 43.425528 572.714073 
" clip-path="url(#p834e669067)" style="fill: #ffffff"/>
    <path d="M 163.392576 545.294134 
L 61.583434 598.050761 
" clip-path="url(#p834e669067)" style="stroke: #000000; stroke-width: 1.319372"/>
    <path d="M 163.653963 545.654809 
L 94.206562 613.829655 
" clip-path="url(#p834e669067)" style="stroke: #000000; stroke-width: 1.643979"/>
    <path d="M 164.102532 545.969029 
L 131.416173 617.718666 
" clip-path="url(#p834e669067)" style="fill: #ffffff"/>
    <path d="M 164.724385 546.104002 
L 164.724385 600.001423 
" clip-path="url(#p834e669067)" style="fill: #ffffff"/>
    <path d="M 131.830575 525.937216 
C 150.355843 504.276473 123.890994 497.826799 130.373229 525.58205 
C 123.890994 497.826799 150.355843 504.276473 131.830575 525.937216 
" clip-path="url(#p834e669067)" style="fill: #ffffff"/>
    <path d="M 129.294319 527.021732 
L 90.354451 527.021732 
" clip-path="url(#p834e669067)" style="fill: #ffffff"/>
    <path d="M 129.333045 527.360371 
L 56.38566 544.265363 
" clip-path="url(#p834e669067)" style="fill: #ffffff"/>
    <path d="M 129.46251 527.711864 
L 43.296063 572.36258 
" clip-path="url(#p834e669067)" style="fill: #ffffff"/>
    <path d="M 129.723897 528.072539 
L 60.276496 596.247385 
" clip-path="url(#p834e669067)" style="fill: #ffffff"/>
    <path d="M 130.172466 528.386758 
L 91.963719 612.258559 
" clip-path="url(#p834e669067)" style="fill: #ffffff"/>
    <path d="M 130.794319 528.521732 
L 130.794319 617.583693 
" clip-path="url(#p834e669067)" style="fill: #ffffff"/>
    <path d="M 131.416173 528.386758 
L 164.102532 600.136396 
" clip-path="url(#p834e669067)" style="fill: #ffffff"/>
    <path d="M 89.275542 525.58205 
C 95.757777 497.826799 69.292927 504.276473 87.818196 525.937216 
C 69.292927 504.276473 95.757777 497.826799 89.275542 525.58205 
" clip-path="url(#p834e669067)" style="fill: #ffffff"/>
    <path d="M 87.522642 527.711864 
L 56.256195 543.913869 
" clip-path="url(#p834e669067)" style="fill: #ffffff"/>
    <path d="M 87.784029 528.072539 
L 43.034676 572.001905 
" clip-path="url(#p834e669067)" style="fill: #ffffff"/>
    <path d="M 88.232598 528.386758 
L 58.033653 594.676289 
" clip-path="url(#p834e669067)" style="fill: #ffffff"/>
    <path d="M 88.854451 528.521732 
L 88.854451 611.583693 
" clip-path="url(#p834e669067)" style="fill: #ffffff"/>
    <path d="M 89.476305 528.386758 
L 130.172466 617.718666 
" clip-path="url(#p834e669067)" style="fill: #ffffff"/>
    <path d="M 89.924873 528.072539 
L 163.653963 600.450616 
" clip-path="url(#p834e669067)" style="stroke: #000000; stroke-width: 0.984293"/>
    <path d="M 54.49961 543.165403 
C 44.934706 516.316084 26.167193 536.058601 53.466135 544.252569 
C 26.167193 536.058601 44.934706 516.316084 54.49961 543.165403 
" clip-path="url(#p834e669067)" style="fill: #ffffff"/>
    <path d="M 54.302532 545.969029 
L 42.586107 571.687686 
" clip-path="url(#p834e669067)" style="fill: #ffffff"/>
    <path d="M 54.924386 546.104002 
L 54.924386 594.001423 
" clip-path="url(#p834e669067)" style="fill: #ffffff"/>
    <path d="M 55.546239 545.969029 
L 85.745184 612.258559 
" clip-path="url(#p834e669067)" style="fill: #ffffff"/>
    <path d="M 55.994808 545.654809 
L 129.723897 618.032886 
" clip-path="url(#p834e669067)" style="fill: #ffffff"/>
    <path d="M 56.256195 545.294134 
L 163.392576 600.811291 
" clip-path="url(#p834e669067)" style="fill: #ffffff"/>
    <path d="M 40.665215 572.302712 
C 15.234058 559.432997 15.234058 586.672427 40.665215 573.802712 
C 15.234058 586.672427 15.234058 559.432997 40.665215 572.302712 
" clip-path="url(#p834e669067)" style="fill: #ffffff"/>
    <path d="M 42.586107 574.417739 
L 51.815118 594.676289 
" clip-path="url(#p834e669067)" style="fill: #ffffff"/>
    <path d="M 43.034676 574.10352 
L 83.502341 613.829655 
" clip-path="url(#p834e669067)" style="fill: #ffffff"/>
    <path d="M 43.296063 573.742845 
L 129.46251 618.393561 
" clip-path="url(#p834e669067)" style="fill: #ffffff"/>
    <path d="M 43.425528 573.391352 
L 163.263111 601.162784 
" clip-path="url(#p834e669067)" style="fill: #ffffff"/>
    <path d="M 47.633132 603.258587 
C 26.167193 610.046824 44.934706 629.789341 52.800507 608.694416 
C 44.934706 629.789341 26.167193 610.046824 47.633132 603.258587 
" clip-path="url(#p834e669067)" style="fill: #ffffff"/>
    <path d="M 61.583434 604.952085 
L 82.195403 615.633031 
" clip-path="url(#p834e669067)" style="stroke: #000000; stroke-width: 1.151832"/>
    <path d="M 62.230759 603.194619 
L 129.333045 618.745054 
" clip-path="url(#p834e669067)" style="fill: #ffffff"/>
    <path d="M 62.424386 601.501423 
L 163.224385 601.501423 
" clip-path="url(#p834e669067)" style="fill: #ffffff"/>
    <path d="M 83.673174 624.506272 
C 69.292927 641.828952 95.757777 648.278626 90.959904 626.282101 
C 95.757777 648.278626 69.292927 641.828952 83.673174 624.506272 
" clip-path="url(#p834e669067)" style="fill: #ffffff"/>
    <path d="M 96.354451 619.083693 
L 129.294319 619.083693 
" clip-path="url(#p834e669067)" style="stroke: #000000; stroke-width: 2"/>
    <path d="M 96.160825 617.390498 
L 163.263111 601.840062 
" clip-path="url(#p834e669067)" style="fill: #ffffff"/>
    <path d="M 130.373229 620.523375 
C 123.890994 648.278626 150.355843 641.828952 131.830575 620.168209 
C 150.355843 641.828952 123.890994 648.278626 130.373229 620.523375 
" clip-path="url(#p834e669067)" style="fill: #ffffff"/>
    <path d="M 132.126129 618.393561 
L 163.392576 602.191556 
" clip-path="url(#p834e669067)" style="fill: #ffffff"/>
    <path d="M 165.149161 602.940022 
C 174.714065 629.789341 193.481578 610.046824 166.182636 601.852856 
C 193.481578 610.046824 174.714065 629.789341 165.149161 602.940022 
" clip-path="url(#p834e669067)" style="fill: #ffffff"/>
   </g>
   <g id="VertexCollection_4">
    <path d="M 177.684517 580.552712 
C 179.67354 580.552712 181.581366 579.762465 182.987818 578.356013 
C 184.39427 576.949561 185.184517 575.041736 185.184517 573.052712 
C 185.184517 571.063689 184.39427 569.155863 182.987818 567.749412 
C 181.581366 566.34296 179.67354 565.552712 177.684517 565.552712 
C 175.695494 565.552712 173.787668 566.34296 172.381216 567.749412 
C 170.974765 569.155863 170.184517 571.063689 170.184517 573.052712 
C 170.184517 575.041736 170.974765 576.949561 172.381216 578.356013 
C 173.787668 579.762465 175.695494 580.552712 177.684517 580.552712 
z
" clip-path="url(#p834e669067)" style="fill: #6b010e; stroke: #00ff00; stroke-width: 3"/>
    <path d="M 164.724385 546.104002 
C 165.12219 546.104002 165.503755 545.945952 165.785045 545.664662 
C 166.066336 545.383372 166.224385 545.001806 166.224385 544.604002 
C 166.224385 544.206197 166.066336 543.824632 165.785045 543.543342 
C 165.503755 543.262051 165.12219 543.104002 164.724385 543.104002 
C 164.326581 543.104002 163.945015 543.262051 163.663725 543.543342 
C 163.382435 543.824632 163.224385 544.206197 163.224385 544.604002 
C 163.224385 545.001806 163.382435 545.383372 163.663725 545.664662 
C 163.945015 545.945952 164.326581 546.104002 164.724385 546.104002 
z
" clip-path="url(#p834e669067)" style="fill: #fdcab5; stroke: #00ff00; stroke-width: 3"/>
    <path d="M 130.794319 528.521732 
C 131.192124 528.521732 131.573689 528.363682 131.85498 528.082392 
C 132.13627 527.801101 132.294319 527.419536 132.294319 527.021732 
C 132.294319 526.623927 132.13627 526.242362 131.85498 525.961071 
C 131.573689 525.679781 131.192124 525.521732 130.794319 525.521732 
C 130.396515 525.521732 130.01495 525.679781 129.733659 525.961071 
C 129.452369 526.242362 129.294319 526.623927 129.294319 527.021732 
C 129.294319 527.419536 129.452369 527.801101 129.733659 528.082392 
C 130.01495 528.363682 130.396515 528.521732 130.794319 528.521732 
z
" clip-path="url(#p834e669067)" style="fill: #fdcab5; stroke: #00ff00; stroke-width: 3"/>
    <path d="M 88.854451 528.521732 
C 89.252256 528.521732 89.633821 528.363682 89.915112 528.082392 
C 90.196402 527.801101 90.354451 527.419536 90.354451 527.021732 
C 90.354451 526.623927 90.196402 526.242362 89.915112 525.961071 
C 89.633821 525.679781 89.252256 525.521732 88.854451 525.521732 
C 88.456647 525.521732 88.075082 525.679781 87.793791 525.961071 
C 87.512501 526.242362 87.354451 526.623927 87.354451 527.021732 
C 87.354451 527.419536 87.512501 527.801101 87.793791 528.082392 
C 88.075082 528.363682 88.456647 528.521732 88.854451 528.521732 
z
" clip-path="url(#p834e669067)" style="fill: #fdcab5; stroke: #00ff00; stroke-width: 3"/>
    <path d="M 54.924386 546.104002 
C 55.32219 546.104002 55.703755 545.945952 55.985046 545.664662 
C 56.266336 545.383372 56.424386 545.001806 56.424386 544.604002 
C 56.424386 544.206197 56.266336 543.824632 55.985046 543.543342 
C 55.703755 543.262051 55.32219 543.104002 54.924386 543.104002 
C 54.526581 543.104002 54.145016 543.262051 53.863725 543.543342 
C 53.582435 543.824632 53.424386 544.206197 53.424386 544.604002 
C 53.424386 545.001806 53.582435 545.383372 53.863725 545.664662 
C 54.145016 545.945952 54.526581 546.104002 54.924386 546.104002 
z
" clip-path="url(#p834e669067)" style="fill: #fdcab5; stroke: #00ff00; stroke-width: 3"/>
    <path d="M 41.964254 574.552712 
C 42.362058 574.552712 42.743623 574.394663 43.024914 574.113373 
C 43.306204 573.832082 43.464254 573.450517 43.464254 573.052712 
C 43.464254 572.654908 43.306204 572.273343 43.024914 571.992052 
C 42.743623 571.710762 42.362058 571.552712 41.964254 571.552712 
C 41.566449 571.552712 41.184884 571.710762 40.903593 571.992052 
C 40.622303 572.273343 40.464254 572.654908 40.464254 573.052712 
C 40.464254 573.450517 40.622303 573.832082 40.903593 574.113373 
C 41.184884 574.394663 41.566449 574.552712 41.964254 574.552712 
z
" clip-path="url(#p834e669067)" style="fill: #fdcab5; stroke: #00ff00; stroke-width: 3"/>
    <path d="M 54.924386 609.001423 
C 56.913409 609.001423 58.821235 608.211176 60.227686 606.804724 
C 61.634138 605.398272 62.424386 603.490446 62.424386 601.501423 
C 62.424386 599.5124 61.634138 597.604574 60.227686 596.198122 
C 58.821235 594.79167 56.913409 594.001423 54.924386 594.001423 
C 52.935362 594.001423 51.027536 594.79167 49.621085 596.198122 
C 48.214633 597.604574 47.424386 599.5124 47.424386 601.501423 
C 47.424386 603.490446 48.214633 605.398272 49.621085 606.804724 
C 51.027536 608.211176 52.935362 609.001423 54.924386 609.001423 
z
" clip-path="url(#p834e669067)" style="fill: #6b010e; stroke: #ff0000; stroke-width: 3"/>
    <path d="M 88.854451 626.583693 
C 90.843475 626.583693 92.7513 625.793446 94.157752 624.386994 
C 95.564204 622.980542 96.354451 621.072717 96.354451 619.083693 
C 96.354451 617.09467 95.564204 615.186844 94.157752 613.780392 
C 92.7513 612.373941 90.843475 611.583693 88.854451 611.583693 
C 86.865428 611.583693 84.957602 612.373941 83.551151 613.780392 
C 82.144699 615.186844 81.354451 617.09467 81.354451 619.083693 
C 81.354451 621.072717 82.144699 622.980542 83.551151 624.386994 
C 84.957602 625.793446 86.865428 626.583693 88.854451 626.583693 
z
" clip-path="url(#p834e669067)" style="fill: #6b010e; stroke: #00ff00; stroke-width: 3"/>
    <path d="M 130.794319 620.583693 
C 131.192124 620.583693 131.573689 620.425644 131.85498 620.144353 
C 132.13627 619.863063 132.294319 619.481498 132.294319 619.083693 
C 132.294319 618.685889 132.13627 618.304323 131.85498 618.023033 
C 131.573689 617.741743 131.192124 617.583693 130.794319 617.583693 
C 130.396515 617.583693 130.01495 617.741743 129.733659 618.023033 
C 129.452369 618.304323 129.294319 618.685889 129.294319 619.083693 
C 129.294319 619.481498 129.452369 619.863063 129.733659 620.144353 
C 130.01495 620.425644 130.396515 620.583693 130.794319 620.583693 
z
" clip-path="url(#p834e669067)" style="fill: #fdcab5; stroke: #00ff00; stroke-width: 3"/>
    <path d="M 164.724385 603.001423 
C 165.12219 603.001423 165.503755 602.843374 165.785045 602.562083 
C 166.066336 602.280793 166.224385 601.899228 166.224385 601.501423 
C 166.224385 601.103618 166.066336 600.722053 165.785045 600.440763 
C 165.503755 600.159473 165.12219 600.001423 164.724385 600.001423 
C 164.326581 600.001423 163.945015 600.159473 163.663725 600.440763 
C 163.382435 600.722053 163.224385 601.103618 163.224385 601.501423 
C 163.224385 601.899228 163.382435 602.280793 163.663725 602.562083 
C 163.945015 602.843374 164.326581 603.001423 164.724385 603.001423 
z
" clip-path="url(#p834e669067)" style="fill: #fdcab5; stroke: #00ff00; stroke-width: 3"/>
   </g>
   <g id="matplotlib.axis_7"/>
   <g id="matplotlib.axis_8"/>
  </g>
  <g id="axes_5">
   <g id="patch_6">
    <path d="M 27 768.96 
L 194.4 768.96 
L 194.4 654.256552 
L 27 654.256552 
z
" style="fill: #ffffff"/>
   </g>
   <g id="EdgeCollection_5">
    <path d="M 184.207071 714.44685 
C 204.442076 724.316565 204.442076 697.077135 184.207071 706.94685 
C 204.442076 697.077135 204.442076 724.316565 184.207071 714.44685 
" clip-path="url(#p8208ea7dbf)" style="fill: #ffffff"/>
    <path d="M 174.634903 703.857098 
L 167.990727 689.087892 
" clip-path="url(#p8208ea7dbf)" style="fill: #ffffff"/>
    <path d="M 172.392918 705.409258 
L 132.471602 665.723388 
" clip-path="url(#p8208ea7dbf)" style="fill: #ffffff"/>
    <path d="M 171.070715 707.211893 
L 91.320423 665.362861 
" clip-path="url(#p8208ea7dbf)" style="fill: #ffffff"/>
    <path d="M 170.410246 708.983334 
L 57.946577 682.590843 
" clip-path="url(#p8208ea7dbf)" style="fill: #ffffff"/>
    <path d="M 170.21188 710.69685 
L 51.18812 710.69685 
" clip-path="url(#p8208ea7dbf)" style="stroke: #000000; stroke-width: 2"/>
    <path d="M 170.410246 712.410367 
L 63.787884 737.432045 
" clip-path="url(#p8208ea7dbf)" style="stroke: #000000; stroke-width: 1.803279"/>
    <path d="M 171.070715 714.181807 
L 96.633355 753.242874 
" clip-path="url(#p8208ea7dbf)" style="fill: #ffffff"/>
    <path d="M 172.392918 715.984443 
L 132.471602 755.670313 
" clip-path="url(#p8208ea7dbf)" style="fill: #ffffff"/>
    <path d="M 174.634903 717.536603 
L 165.529145 737.777611 
" clip-path="url(#p8208ea7dbf)" style="stroke: #000000; stroke-width: 1.125683"/>
    <path d="M 172.213597 680.527027 
C 193.712818 673.844946 175.043091 654.009931 167.073146 675.06573 
C 175.043091 654.009931 193.712818 673.844946 172.213597 680.527027 
" clip-path="url(#p8208ea7dbf)" style="fill: #ffffff"/>
    <path d="M 158.272585 678.763183 
L 132.736043 665.362861 
" clip-path="url(#p8208ea7dbf)" style="fill: #ffffff"/>
    <path d="M 157.612116 680.534623 
L 91.452517 665.008573 
" clip-path="url(#p8208ea7dbf)" style="fill: #ffffff"/>
    <path d="M 157.41375 682.24814 
L 57.98625 682.24814 
" clip-path="url(#p8208ea7dbf)" style="fill: #ffffff"/>
    <path d="M 157.612116 683.961656 
L 50.989754 708.983334 
" clip-path="url(#p8208ea7dbf)" style="stroke: #000000; stroke-width: 0.469945"/>
    <path d="M 158.272585 685.733097 
L 63.127415 735.660604 
" clip-path="url(#p8208ea7dbf)" style="stroke: #000000; stroke-width: 0.961749"/>
    <path d="M 159.594787 687.535732 
L 95.311153 751.440238 
" clip-path="url(#p8208ea7dbf)" style="stroke: #000000; stroke-width: 0.918033"/>
    <path d="M 161.836772 689.087892 
L 132.023205 755.359881 
" clip-path="url(#p8208ea7dbf)" style="fill: #ffffff"/>
    <path d="M 164.91375 689.74814 
L 164.91375 737.645561 
" clip-path="url(#p8208ea7dbf)" style="fill: #ffffff"/>
    <path d="M 132.446858 663.584029 
C 151.027918 641.971126 124.579787 635.453233 130.990433 663.225107 
C 124.579787 635.453233 151.027918 641.971126 132.446858 663.584029 
" clip-path="url(#p8208ea7dbf)" style="fill: #ffffff"/>
    <path d="M 129.90781 664.665869 
L 91.49219 664.665869 
" clip-path="url(#p8208ea7dbf)" style="fill: #ffffff"/>
    <path d="M 129.947483 665.008573 
L 57.946577 681.905436 
" clip-path="url(#p8208ea7dbf)" style="fill: #ffffff"/>
    <path d="M 130.079577 665.362861 
L 50.329285 707.211893 
" clip-path="url(#p8208ea7dbf)" style="fill: #ffffff"/>
    <path d="M 130.344017 665.723388 
L 61.805213 733.857968 
" clip-path="url(#p8208ea7dbf)" style="fill: #ffffff"/>
    <path d="M 130.792414 666.03382 
L 93.069168 749.888079 
" clip-path="url(#p8208ea7dbf)" style="fill: #ffffff"/>
    <path d="M 131.40781 666.165869 
L 131.40781 755.227831 
" clip-path="url(#p8208ea7dbf)" style="fill: #ffffff"/>
    <path d="M 132.023205 666.03382 
L 164.298354 737.777611 
" clip-path="url(#p8208ea7dbf)" style="fill: #ffffff"/>
    <path d="M 90.409567 663.225107 
C 96.820213 635.453233 70.372082 641.971126 88.953142 663.584029 
C 70.372082 641.971126 96.820213 635.453233 90.409567 663.225107 
" clip-path="url(#p8208ea7dbf)" style="fill: #ffffff"/>
    <path d="M 88.663957 665.362861 
L 57.814483 681.551148 
" clip-path="url(#p8208ea7dbf)" style="fill: #ffffff"/>
    <path d="M 88.928398 665.723388 
L 49.007082 705.409258 
" clip-path="url(#p8208ea7dbf)" style="stroke: #000000; stroke-width: 0.502732"/>
    <path d="M 89.376795 666.03382 
L 59.563228 732.305809 
" clip-path="url(#p8208ea7dbf)" style="fill: #ffffff"/>
    <path d="M 89.99219 666.165869 
L 89.99219 749.227831 
" clip-path="url(#p8208ea7dbf)" style="fill: #ffffff"/>
    <path d="M 90.607586 666.03382 
L 130.792414 755.359881 
" clip-path="url(#p8208ea7dbf)" style="fill: #ffffff"/>
    <path d="M 91.055983 665.723388 
L 163.849957 738.088043 
" clip-path="url(#p8208ea7dbf)" style="stroke: #000000; stroke-width: 0.73224"/>
    <path d="M 56.054371 680.811658 
C 46.356909 654.009931 27.687182 673.844946 55.026281 681.903917 
C 27.687182 673.844946 46.356909 654.009931 56.054371 680.811658 
" clip-path="url(#p8208ea7dbf)" style="fill: #ffffff"/>
    <path d="M 55.870855 683.61609 
L 46.765097 703.857098 
" clip-path="url(#p8208ea7dbf)" style="fill: #ffffff"/>
    <path d="M 56.48625 683.74814 
L 56.48625 731.645561 
" clip-path="url(#p8208ea7dbf)" style="fill: #ffffff"/>
    <path d="M 57.101646 683.61609 
L 86.915213 749.888079 
" clip-path="url(#p8208ea7dbf)" style="fill: #ffffff"/>
    <path d="M 57.550043 683.305658 
L 130.344017 755.670313 
" clip-path="url(#p8208ea7dbf)" style="fill: #ffffff"/>
    <path d="M 57.814483 682.945131 
L 163.585517 738.44857 
" clip-path="url(#p8208ea7dbf)" style="fill: #ffffff"/>
    <path d="M 37.192929 706.94685 
C 16.957924 697.077135 16.957924 724.316565 37.192929 714.44685 
C 16.957924 724.316565 16.957924 697.077135 37.192929 706.94685 
" clip-path="url(#p8208ea7dbf)" style="fill: #ffffff"/>
    <path d="M 46.765097 717.536603 
L 53.409273 732.305809 
" clip-path="url(#p8208ea7dbf)" style="fill: #ffffff"/>
    <path d="M 49.007082 715.984443 
L 84.673228 751.440238 
" clip-path="url(#p8208ea7dbf)" style="fill: #ffffff"/>
    <path d="M 50.329285 714.181807 
L 130.079577 756.03084 
" clip-path="url(#p8208ea7dbf)" style="fill: #ffffff"/>
    <path d="M 50.989754 712.410367 
L 163.453423 738.802858 
" clip-path="url(#p8208ea7dbf)" style="fill: #ffffff"/>
    <path d="M 49.186403 740.866674 
C 27.687182 747.548755 46.356909 767.38377 54.326854 746.327971 
C 46.356909 767.38377 27.687182 747.548755 49.186403 740.866674 
" clip-path="url(#p8208ea7dbf)" style="fill: #ffffff"/>
    <path d="M 63.127415 742.630518 
L 83.351025 753.242874 
" clip-path="url(#p8208ea7dbf)" style="stroke: #000000; stroke-width: 1.311475"/>
    <path d="M 63.787884 740.859077 
L 129.947483 756.385128 
" clip-path="url(#p8208ea7dbf)" style="fill: #ffffff"/>
    <path d="M 63.98625 739.145561 
L 163.41375 739.145561 
" clip-path="url(#p8208ea7dbf)" style="fill: #ffffff"/>
    <path d="M 84.796948 762.137032 
C 70.372082 779.422574 96.820213 785.940467 92.079074 763.931644 
C 96.820213 785.940467 70.372082 779.422574 84.796948 762.137032 
" clip-path="url(#p8208ea7dbf)" style="fill: #ffffff"/>
    <path d="M 97.49219 756.727831 
L 129.90781 756.727831 
" clip-path="url(#p8208ea7dbf)" style="stroke: #000000; stroke-width: 1.628415"/>
    <path d="M 97.293824 755.014315 
L 163.453423 739.488264 
" clip-path="url(#p8208ea7dbf)" style="fill: #ffffff"/>
    <path d="M 130.990433 758.168594 
C 124.579787 785.940467 151.027918 779.422574 132.446858 757.809671 
C 151.027918 779.422574 124.579787 785.940467 130.990433 758.168594 
" clip-path="url(#p8208ea7dbf)" style="fill: #ffffff"/>
    <path d="M 132.736043 756.03084 
L 163.585517 739.842552 
" clip-path="url(#p8208ea7dbf)" style="fill: #ffffff"/>
    <path d="M 165.345629 740.582043 
C 175.043091 767.38377 193.712818 747.548755 166.373719 739.489784 
C 193.712818 747.548755 175.043091 767.38377 165.345629 740.582043 
" clip-path="url(#p8208ea7dbf)" style="fill: #ffffff"/>
   </g>
   <g id="VertexCollection_5">
    <path d="M 177.71188 718.19685 
C 179.700903 718.19685 181.608729 717.406603 183.015181 716.000151 
C 184.421633 714.593699 185.21188 712.685874 185.21188 710.69685 
C 185.21188 708.707827 184.421633 706.800001 183.015181 705.393549 
C 181.608729 703.987098 179.700903 703.19685 177.71188 703.19685 
C 175.722857 703.19685 173.815031 703.987098 172.408579 705.393549 
C 171.002127 706.800001 170.21188 708.707827 170.21188 710.69685 
C 170.21188 712.685874 171.002127 714.593699 172.408579 716.000151 
C 173.815031 717.406603 175.722857 718.19685 177.71188 718.19685 
z
" clip-path="url(#p8208ea7dbf)" style="fill: #6b010e; stroke: #00ff00; stroke-width: 3"/>
    <path d="M 164.91375 689.74814 
C 166.902773 689.74814 168.810599 688.957892 170.217051 687.551441 
C 171.623503 686.144989 172.41375 684.237163 172.41375 682.24814 
C 172.41375 680.259116 171.623503 678.351291 170.217051 676.944839 
C 168.810599 675.538387 166.902773 674.74814 164.91375 674.74814 
C 162.924727 674.74814 161.016901 675.538387 159.610449 676.944839 
C 158.203997 678.351291 157.41375 680.259116 157.41375 682.24814 
C 157.41375 684.237163 158.203997 686.144989 159.610449 687.551441 
C 161.016901 688.957892 162.924727 689.74814 164.91375 689.74814 
z
" clip-path="url(#p8208ea7dbf)" style="fill: #6b010e; stroke: #00ff00; stroke-width: 3"/>
    <path d="M 131.40781 666.165869 
C 131.805614 666.165869 132.18718 666.00782 132.46847 665.72653 
C 132.74976 665.445239 132.90781 665.063674 132.90781 664.665869 
C 132.90781 664.268065 132.74976 663.8865 132.46847 663.605209 
C 132.18718 663.323919 131.805614 663.165869 131.40781 663.165869 
C 131.010005 663.165869 130.62844 663.323919 130.34715 663.605209 
C 130.065859 663.8865 129.90781 664.268065 129.90781 664.665869 
C 129.90781 665.063674 130.065859 665.445239 130.34715 665.72653 
C 130.62844 666.00782 131.010005 666.165869 131.40781 666.165869 
z
" clip-path="url(#p8208ea7dbf)" style="fill: #fdcab5; stroke: #00ff00; stroke-width: 3"/>
    <path d="M 89.99219 666.165869 
C 90.389995 666.165869 90.77156 666.00782 91.05285 665.72653 
C 91.334141 665.445239 91.49219 665.063674 91.49219 664.665869 
C 91.49219 664.268065 91.334141 663.8865 91.05285 663.605209 
C 90.77156 663.323919 90.389995 663.165869 89.99219 663.165869 
C 89.594386 663.165869 89.21282 663.323919 88.93153 663.605209 
C 88.65024 663.8865 88.49219 664.268065 88.49219 664.665869 
C 88.49219 665.063674 88.65024 665.445239 88.93153 665.72653 
C 89.21282 666.00782 89.594386 666.165869 89.99219 666.165869 
z
" clip-path="url(#p8208ea7dbf)" style="fill: #fdcab5; stroke: #00ff00; stroke-width: 3"/>
    <path d="M 56.48625 683.74814 
C 56.884055 683.74814 57.26562 683.59009 57.54691 683.3088 
C 57.828201 683.027509 57.98625 682.645944 57.98625 682.24814 
C 57.98625 681.850335 57.828201 681.46877 57.54691 681.187479 
C 57.26562 680.906189 56.884055 680.74814 56.48625 680.74814 
C 56.088445 680.74814 55.70688 680.906189 55.42559 681.187479 
C 55.1443 681.46877 54.98625 681.850335 54.98625 682.24814 
C 54.98625 682.645944 55.1443 683.027509 55.42559 683.3088 
C 55.70688 683.59009 56.088445 683.74814 56.48625 683.74814 
z
" clip-path="url(#p8208ea7dbf)" style="fill: #fdcab5; stroke: #00ff00; stroke-width: 3"/>
    <path d="M 43.68812 718.19685 
C 45.677143 718.19685 47.584969 717.406603 48.991421 716.000151 
C 50.397873 714.593699 51.18812 712.685874 51.18812 710.69685 
C 51.18812 708.707827 50.397873 706.800001 48.991421 705.393549 
C 47.584969 703.987098 45.677143 703.19685 43.68812 703.19685 
C 41.699097 703.19685 39.791271 703.987098 38.384819 705.393549 
C 36.978367 706.800001 36.18812 708.707827 36.18812 710.69685 
C 36.18812 712.685874 36.978367 714.593699 38.384819 716.000151 
C 39.791271 717.406603 41.699097 718.19685 43.68812 718.19685 
z
" clip-path="url(#p8208ea7dbf)" style="fill: #6b010e; stroke: #00ff00; stroke-width: 3"/>
    <path d="M 56.48625 746.645561 
C 58.475273 746.645561 60.383099 745.855314 61.789551 744.448862 
C 63.196003 743.04241 63.98625 741.134584 63.98625 739.145561 
C 63.98625 737.156538 63.196003 735.248712 61.789551 733.84226 
C 60.383099 732.435808 58.475273 731.645561 56.48625 731.645561 
C 54.497227 731.645561 52.589401 732.435808 51.182949 733.84226 
C 49.776497 735.248712 48.98625 737.156538 48.98625 739.145561 
C 48.98625 741.134584 49.776497 743.04241 51.182949 744.448862 
C 52.589401 745.855314 54.497227 746.645561 56.48625 746.645561 
z
" clip-path="url(#p8208ea7dbf)" style="fill: #6b010e; stroke: #ff0000; stroke-width: 3"/>
    <path d="M 89.99219 764.227831 
C 91.981213 764.227831 93.889039 763.437584 95.295491 762.031132 
C 96.701943 760.62468 97.49219 758.716854 97.49219 756.727831 
C 97.49219 754.738808 96.701943 752.830982 95.295491 751.42453 
C 93.889039 750.018079 91.981213 749.227831 89.99219 749.227831 
C 88.003167 749.227831 86.095341 750.018079 84.688889 751.42453 
C 83.282438 752.830982 82.49219 754.738808 82.49219 756.727831 
C 82.49219 758.716854 83.282438 760.62468 84.688889 762.031132 
C 86.095341 763.437584 88.003167 764.227831 89.99219 764.227831 
z
" clip-path="url(#p8208ea7dbf)" style="fill: #6b010e; stroke: #00ff00; stroke-width: 3"/>
    <path d="M 131.40781 758.227831 
C 131.805614 758.227831 132.18718 758.069782 132.46847 757.788491 
C 132.74976 757.507201 132.90781 757.125636 132.90781 756.727831 
C 132.90781 756.330027 132.74976 755.948461 132.46847 755.667171 
C 132.18718 755.385881 131.805614 755.227831 131.40781 755.227831 
C 131.010005 755.227831 130.62844 755.385881 130.34715 755.667171 
C 130.065859 755.948461 129.90781 756.330027 129.90781 756.727831 
C 129.90781 757.125636 130.065859 757.507201 130.34715 757.788491 
C 130.62844 758.069782 131.010005 758.227831 131.40781 758.227831 
z
" clip-path="url(#p8208ea7dbf)" style="fill: #fdcab5; stroke: #00ff00; stroke-width: 3"/>
    <path d="M 164.91375 740.645561 
C 165.311555 740.645561 165.69312 740.487512 165.97441 740.206221 
C 166.2557 739.924931 166.41375 739.543366 166.41375 739.145561 
C 166.41375 738.747756 166.2557 738.366191 165.97441 738.084901 
C 165.69312 737.803611 165.311555 737.645561 164.91375 737.645561 
C 164.515945 737.645561 164.13438 737.803611 163.85309 738.084901 
C 163.571799 738.366191 163.41375 738.747756 163.41375 739.145561 
C 163.41375 739.543366 163.571799 739.924931 163.85309 740.206221 
C 164.13438 740.487512 164.515945 740.645561 164.91375 740.645561 
z
" clip-path="url(#p8208ea7dbf)" style="fill: #fdcab5; stroke: #00ff00; stroke-width: 3"/>
   </g>
   <g id="matplotlib.axis_9"/>
   <g id="matplotlib.axis_10"/>
  </g>
 </g>
 <defs>
  <clipPath id="p4b81a2c343">
   <rect x="27" y="103.68" width="167.4" height="114.703448"/>
  </clipPath>
  <clipPath id="p0719759bd8">
   <rect x="27" y="241.324138" width="167.4" height="114.703448"/>
  </clipPath>
  <clipPath id="p6d0c3a6f6a">
   <rect x="27" y="378.968276" width="167.4" height="114.703448"/>
  </clipPath>
  <clipPath id="p834e669067">
   <rect x="27" y="516.612414" width="167.4" height="114.703448"/>
  </clipPath>
  <clipPath id="p8208ea7dbf">
   <rect x="27" y="654.256552" width="167.4" height="114.703448"/>
  </clipPath>
 </defs>
</svg>
