<?xml version="1.0" encoding="utf-8" standalone="no"?>
<!DOCTYPE svg PUBLIC "-//W3C//DTD SVG 1.1//EN"
  "http://www.w3.org/Graphics/SVG/1.1/DTD/svg11.dtd">
<svg xmlns:xlink="http://www.w3.org/1999/xlink" width="216pt" height="864pt" viewBox="0 0 216 864" xmlns="http://www.w3.org/2000/svg" version="1.1">
 <metadata>
  <rdf:RDF xmlns:dc="http://purl.org/dc/elements/1.1/" xmlns:cc="http://creativecommons.org/ns#" xmlns:rdf="http://www.w3.org/1999/02/22-rdf-syntax-ns#">
   <cc:Work>
    <dc:type rdf:resource="http://purl.org/dc/dcmitype/StillImage"/>
    <dc:date>2025-06-05T15:05:33.804447</dc:date>
    <dc:format>image/svg+xml</dc:format>
    <dc:creator>
     <cc:Agent>
      <dc:title>Matplotlib v3.9.2, https://matplotlib.org/</dc:title>
     </cc:Agent>
    </dc:creator>
   </cc:Work>
  </rdf:RDF>
 </metadata>
 <defs>
  <style type="text/css">*{stroke-linejoin: round; stroke-linecap: butt}</style>
 </defs>
 <g id="figure_1">
  <g id="patch_1">
   <path d="M 0 864 
L 216 864 
L 216 0 
L 0 0 
z
" style="fill: #ffffff"/>
  </g>
  <g id="axes_1">
   <g id="patch_2">
    <path d="M 27 218.383448 
L 194.4 218.383448 
L 194.4 103.68 
L 27 103.68 
z
" style="fill: #ffffff"/>
   </g>
   <g id="EdgeCollection_1">
    <path d="M 180.729172 160.870299 
C 206.160329 173.740014 206.160329 146.500584 180.729172 159.370299 
C 206.160329 146.500584 206.160329 173.740014 180.729172 160.870299 
" clip-path="url(#peecc5e7e6e)" style="fill: #ffffff"/>
    <path d="M 178.8017 158.758289 
L 166.93228 133.033598 
" clip-path="url(#peecc5e7e6e)" style="fill: #ffffff"/>
    <path d="M 178.353042 159.076328 
L 133.015871 115.133288 
" clip-path="url(#peecc5e7e6e)" style="stroke: #000000; stroke-width: 0.982659"/>
    <path d="M 178.094764 159.437081 
L 90.796591 114.772536 
" clip-path="url(#peecc5e7e6e)" style="fill: #ffffff"/>
    <path d="M 177.967921 159.785732 
L 56.558366 132.006155 
" clip-path="url(#peecc5e7e6e)" style="fill: #ffffff"/>
    <path d="M 177.930134 160.120299 
L 43.469866 160.120299 
" clip-path="url(#peecc5e7e6e)" style="fill: #ffffff"/>
    <path d="M 177.967921 160.454866 
L 56.558366 188.234442 
" clip-path="url(#peecc5e7e6e)" style="fill: #ffffff"/>
    <path d="M 178.094764 160.803517 
L 96.138071 202.735189 
" clip-path="url(#peecc5e7e6e)" style="fill: #ffffff"/>
    <path d="M 178.353042 161.164269 
L 137.324236 200.931427 
" clip-path="url(#peecc5e7e6e)" style="stroke: #000000; stroke-width: 1.144509"/>
    <path d="M 178.8017 161.482308 
L 166.93228 187.206999 
" clip-path="url(#peecc5e7e6e)" style="fill: #ffffff"/>
    <path d="M 167.760319 131.312861 
C 195.017905 122.982354 176.151809 103.334022 166.721416 130.230881 
C 176.151809 103.334022 195.017905 122.982354 167.760319 131.312861 
" clip-path="url(#peecc5e7e6e)" style="fill: #ffffff"/>
    <path d="M 164.968476 130.98837 
L 133.274149 114.772536 
" clip-path="url(#peecc5e7e6e)" style="fill: #ffffff"/>
    <path d="M 164.841634 131.337021 
L 90.923433 114.423885 
" clip-path="url(#peecc5e7e6e)" style="fill: #ffffff"/>
    <path d="M 164.803846 131.671588 
L 56.596154 131.671588 
" clip-path="url(#peecc5e7e6e)" style="fill: #ffffff"/>
    <path d="M 164.841634 132.006155 
L 43.432079 159.785732 
" clip-path="url(#peecc5e7e6e)" style="fill: #ffffff"/>
    <path d="M 164.968476 132.354806 
L 56.431524 187.885791 
" clip-path="url(#peecc5e7e6e)" style="fill: #ffffff"/>
    <path d="M 165.226755 132.715558 
L 94.846677 200.931427 
" clip-path="url(#peecc5e7e6e)" style="fill: #ffffff"/>
    <path d="M 165.675412 133.033598 
L 135.080949 199.34123 
" clip-path="url(#peecc5e7e6e)" style="fill: #ffffff"/>
    <path d="M 166.303846 133.171588 
L 166.303846 187.069009 
" clip-path="url(#peecc5e7e6e)" style="fill: #ffffff"/>
    <path d="M 132.97222 113.002119 
C 151.441274 91.293425 124.959793 84.912379 131.513958 112.650733 
C 124.959793 84.912379 151.441274 91.293425 132.97222 113.002119 
" clip-path="url(#peecc5e7e6e)" style="fill: #ffffff"/>
    <path d="M 130.438779 114.089318 
L 90.961221 114.089318 
" clip-path="url(#peecc5e7e6e)" style="fill: #181818; stroke: #181818; stroke-width: 0.369942"/>
    <path d="M 130.476567 114.423885 
L 56.558366 131.337021 
" clip-path="url(#peecc5e7e6e)" style="fill: #ffffff"/>
    <path d="M 130.603409 114.772536 
L 43.305236 159.437081 
" clip-path="url(#peecc5e7e6e)" style="fill: #ffffff"/>
    <path d="M 130.861688 115.133288 
L 56.173245 187.525039 
" clip-path="url(#peecc5e7e6e)" style="fill: #ffffff"/>
    <path d="M 131.310345 115.451328 
L 92.60339 199.34123 
" clip-path="url(#peecc5e7e6e)" style="fill: #ffffff"/>
    <path d="M 131.938779 115.589318 
L 131.938779 198.651279 
" clip-path="url(#peecc5e7e6e)" style="fill: #ffffff"/>
    <path d="M 132.567213 115.451328 
L 165.675412 187.206999 
" clip-path="url(#peecc5e7e6e)" style="fill: #ffffff"/>
    <path d="M 89.886042 112.650733 
C 96.440207 84.912379 69.958726 91.293425 88.42778 113.002119 
C 69.958726 91.293425 96.440207 84.912379 89.886042 112.650733 
" clip-path="url(#peecc5e7e6e)" style="fill: #ffffff"/>
    <path d="M 88.125851 114.772536 
L 56.431524 130.98837 
" clip-path="url(#peecc5e7e6e)" style="fill: #ffffff"/>
    <path d="M 88.384129 115.133288 
L 43.046958 159.076328 
" clip-path="url(#peecc5e7e6e)" style="fill: #ffffff"/>
    <path d="M 88.832787 115.451328 
L 55.724588 187.206999 
" clip-path="url(#peecc5e7e6e)" style="fill: #ffffff"/>
    <path d="M 89.461221 115.589318 
L 89.461221 198.651279 
" clip-path="url(#peecc5e7e6e)" style="fill: #ffffff"/>
    <path d="M 90.089655 115.451328 
L 128.79661 199.34123 
" clip-path="url(#peecc5e7e6e)" style="fill: #ffffff"/>
    <path d="M 90.538312 115.133288 
L 165.226755 187.525039 
" clip-path="url(#peecc5e7e6e)" style="fill: #ffffff"/>
    <path d="M 54.678584 130.230881 
C 45.248191 103.334022 26.382095 122.982354 53.639681 131.312861 
C 26.382095 122.982354 45.248191 103.334022 54.678584 130.230881 
" clip-path="url(#peecc5e7e6e)" style="fill: #ffffff"/>
    <path d="M 54.46772 133.033598 
L 42.5983 158.758289 
" clip-path="url(#peecc5e7e6e)" style="fill: #ffffff"/>
    <path d="M 55.096154 133.171588 
L 55.096154 187.069009 
" clip-path="url(#peecc5e7e6e)" style="fill: #ffffff"/>
    <path d="M 55.724588 133.033598 
L 86.319051 199.34123 
" clip-path="url(#peecc5e7e6e)" style="fill: #ffffff"/>
    <path d="M 56.173245 132.715558 
L 126.553323 200.931427 
" clip-path="url(#peecc5e7e6e)" style="fill: #ffffff"/>
    <path d="M 56.431524 132.354806 
L 164.968476 187.885791 
" clip-path="url(#peecc5e7e6e)" style="fill: #ffffff"/>
    <path d="M 40.670828 159.370299 
C 15.239671 146.500584 15.239671 173.740014 40.670828 160.870299 
C 15.239671 173.740014 15.239671 146.500584 40.670828 159.370299 
" clip-path="url(#peecc5e7e6e)" style="fill: #ffffff"/>
    <path d="M 42.5983 161.482308 
L 54.46772 187.206999 
" clip-path="url(#peecc5e7e6e)" style="fill: #ffffff"/>
    <path d="M 43.046958 161.164269 
L 84.075764 200.931427 
" clip-path="url(#peecc5e7e6e)" style="stroke: #000000; stroke-width: 1.017341"/>
    <path d="M 43.305236 160.803517 
L 125.261929 202.735189 
" clip-path="url(#peecc5e7e6e)" style="fill: #ffffff"/>
    <path d="M 43.432079 160.454866 
L 164.841634 188.234442 
" clip-path="url(#peecc5e7e6e)" style="fill: #ffffff"/>
    <path d="M 53.639681 188.927737 
C 26.382095 197.258244 45.248191 216.906575 54.678584 190.009716 
C 45.248191 216.906575 26.382095 197.258244 53.639681 188.927737 
" clip-path="url(#peecc5e7e6e)" style="fill: #ffffff"/>
    <path d="M 56.431524 189.252227 
L 82.784371 202.735189 
" clip-path="url(#peecc5e7e6e)" style="stroke: #000000; stroke-width: 2"/>
    <path d="M 56.558366 188.903576 
L 124.627718 204.478444 
" clip-path="url(#peecc5e7e6e)" style="stroke: #000000; stroke-width: 1.00578"/>
    <path d="M 56.596154 188.569009 
L 164.803846 188.569009 
" clip-path="url(#peecc5e7e6e)" style="fill: #ffffff"/>
    <path d="M 84.294018 211.587272 
C 69.958726 228.947172 96.440207 235.328218 91.585327 213.344205 
C 96.440207 235.328218 69.958726 228.947172 84.294018 211.587272 
" clip-path="url(#peecc5e7e6e)" style="fill: #ffffff"/>
    <path d="M 96.961221 206.151279 
L 124.438779 206.151279 
" clip-path="url(#peecc5e7e6e)" style="stroke: #000000; stroke-width: 1.971098"/>
    <path d="M 96.772282 204.478444 
L 164.841634 188.903576 
" clip-path="url(#peecc5e7e6e)" style="fill: #ffffff"/>
    <path d="M 129.814673 213.344205 
C 124.959793 235.328218 151.441274 228.947172 137.105982 211.587272 
C 151.441274 228.947172 124.959793 235.328218 129.814673 213.344205 
" clip-path="url(#peecc5e7e6e)" style="fill: #ffffff"/>
    <path d="M 138.615629 202.735189 
L 164.968476 189.252227 
" clip-path="url(#peecc5e7e6e)" style="fill: #ffffff"/>
    <path d="M 166.721416 190.009716 
C 176.151809 216.906575 195.017905 197.258244 167.760319 188.927737 
C 195.017905 197.258244 176.151809 216.906575 166.721416 190.009716 
" clip-path="url(#peecc5e7e6e)" style="fill: #ffffff"/>
   </g>
   <g id="VertexCollection_1">
    <path d="M 179.430134 161.620299 
C 179.827938 161.620299 180.209503 161.462249 180.490794 161.180959 
C 180.772084 160.899668 180.930134 160.518103 180.930134 160.120299 
C 180.930134 159.722494 180.772084 159.340929 180.490794 159.059638 
C 180.209503 158.778348 179.827938 158.620299 179.430134 158.620299 
C 179.032329 158.620299 178.650764 158.778348 178.369473 159.059638 
C 178.088183 159.340929 177.930134 159.722494 177.930134 160.120299 
C 177.930134 160.518103 178.088183 160.899668 178.369473 161.180959 
C 178.650764 161.462249 179.032329 161.620299 179.430134 161.620299 
z
" clip-path="url(#peecc5e7e6e)" style="fill: #fdcab5; stroke: #00ff00; stroke-width: 3"/>
    <path d="M 166.303846 133.171588 
C 166.701651 133.171588 167.083216 133.013538 167.364506 132.732248 
C 167.645797 132.450958 167.803846 132.069393 167.803846 131.671588 
C 167.803846 131.273783 167.645797 130.892218 167.364506 130.610928 
C 167.083216 130.329637 166.701651 130.171588 166.303846 130.171588 
C 165.906041 130.171588 165.524476 130.329637 165.243186 130.610928 
C 164.961895 130.892218 164.803846 131.273783 164.803846 131.671588 
C 164.803846 132.069393 164.961895 132.450958 165.243186 132.732248 
C 165.524476 133.013538 165.906041 133.171588 166.303846 133.171588 
z
" clip-path="url(#peecc5e7e6e)" style="fill: #fdcab5; stroke: #00ff00; stroke-width: 3"/>
    <path d="M 131.938779 115.589318 
C 132.336584 115.589318 132.718149 115.431268 132.999439 115.149978 
C 133.28073 114.868688 133.438779 114.487122 133.438779 114.089318 
C 133.438779 113.691513 133.28073 113.309948 132.999439 113.028658 
C 132.718149 112.747367 132.336584 112.589318 131.938779 112.589318 
C 131.540975 112.589318 131.159409 112.747367 130.878119 113.028658 
C 130.596829 113.309948 130.438779 113.691513 130.438779 114.089318 
C 130.438779 114.487122 130.596829 114.868688 130.878119 115.149978 
C 131.159409 115.431268 131.540975 115.589318 131.938779 115.589318 
z
" clip-path="url(#peecc5e7e6e)" style="fill: #fdcab5; stroke: #ff0000; stroke-width: 3"/>
    <path d="M 89.461221 115.589318 
C 89.859025 115.589318 90.240591 115.431268 90.521881 115.149978 
C 90.803171 114.868688 90.961221 114.487122 90.961221 114.089318 
C 90.961221 113.691513 90.803171 113.309948 90.521881 113.028658 
C 90.240591 112.747367 89.859025 112.589318 89.461221 112.589318 
C 89.063416 112.589318 88.681851 112.747367 88.400561 113.028658 
C 88.11927 113.309948 87.961221 113.691513 87.961221 114.089318 
C 87.961221 114.487122 88.11927 114.868688 88.400561 115.149978 
C 88.681851 115.431268 89.063416 115.589318 89.461221 115.589318 
z
" clip-path="url(#peecc5e7e6e)" style="fill: #fdcab5; stroke: #00ff00; stroke-width: 3"/>
    <path d="M 55.096154 133.171588 
C 55.493959 133.171588 55.875524 133.013538 56.156814 132.732248 
C 56.438105 132.450958 56.596154 132.069393 56.596154 131.671588 
C 56.596154 131.273783 56.438105 130.892218 56.156814 130.610928 
C 55.875524 130.329637 55.493959 130.171588 55.096154 130.171588 
C 54.698349 130.171588 54.316784 130.329637 54.035494 130.610928 
C 53.754203 130.892218 53.596154 131.273783 53.596154 131.671588 
C 53.596154 132.069393 53.754203 132.450958 54.035494 132.732248 
C 54.316784 133.013538 54.698349 133.171588 55.096154 133.171588 
z
" clip-path="url(#peecc5e7e6e)" style="fill: #fdcab5; stroke: #00ff00; stroke-width: 3"/>
    <path d="M 41.969866 161.620299 
C 42.367671 161.620299 42.749236 161.462249 43.030527 161.180959 
C 43.311817 160.899668 43.469866 160.518103 43.469866 160.120299 
C 43.469866 159.722494 43.311817 159.340929 43.030527 159.059638 
C 42.749236 158.778348 42.367671 158.620299 41.969866 158.620299 
C 41.572062 158.620299 41.190497 158.778348 40.909206 159.059638 
C 40.627916 159.340929 40.469866 159.722494 40.469866 160.120299 
C 40.469866 160.518103 40.627916 160.899668 40.909206 161.180959 
C 41.190497 161.462249 41.572062 161.620299 41.969866 161.620299 
z
" clip-path="url(#peecc5e7e6e)" style="fill: #fdcab5; stroke: #00ff00; stroke-width: 3"/>
    <path d="M 55.096154 190.069009 
C 55.493959 190.069009 55.875524 189.91096 56.156814 189.62967 
C 56.438105 189.348379 56.596154 188.966814 56.596154 188.569009 
C 56.596154 188.171205 56.438105 187.78964 56.156814 187.508349 
C 55.875524 187.227059 55.493959 187.069009 55.096154 187.069009 
C 54.698349 187.069009 54.316784 187.227059 54.035494 187.508349 
C 53.754203 187.78964 53.596154 188.171205 53.596154 188.569009 
C 53.596154 188.966814 53.754203 189.348379 54.035494 189.62967 
C 54.316784 189.91096 54.698349 190.069009 55.096154 190.069009 
z
" clip-path="url(#peecc5e7e6e)" style="fill: #fdcab5; stroke: #00ff00; stroke-width: 3"/>
    <path d="M 89.461221 213.651279 
C 91.450244 213.651279 93.35807 212.861032 94.764522 211.45458 
C 96.170973 210.048129 96.961221 208.140303 96.961221 206.151279 
C 96.961221 204.162256 96.170973 202.25443 94.764522 200.847979 
C 93.35807 199.441527 91.450244 198.651279 89.461221 198.651279 
C 87.472197 198.651279 85.564372 199.441527 84.15792 200.847979 
C 82.751468 202.25443 81.961221 204.162256 81.961221 206.151279 
C 81.961221 208.140303 82.751468 210.048129 84.15792 211.45458 
C 85.564372 212.861032 87.472197 213.651279 89.461221 213.651279 
z
" clip-path="url(#peecc5e7e6e)" style="fill: #6b010e; stroke: #00ff00; stroke-width: 3"/>
    <path d="M 131.938779 213.651279 
C 133.927803 213.651279 135.835628 212.861032 137.24208 211.45458 
C 138.648532 210.048129 139.438779 208.140303 139.438779 206.151279 
C 139.438779 204.162256 138.648532 202.25443 137.24208 200.847979 
C 135.835628 199.441527 133.927803 198.651279 131.938779 198.651279 
C 129.949756 198.651279 128.04193 199.441527 126.635478 200.847979 
C 125.229027 202.25443 124.438779 204.162256 124.438779 206.151279 
C 124.438779 208.140303 125.229027 210.048129 126.635478 211.45458 
C 128.04193 212.861032 129.949756 213.651279 131.938779 213.651279 
z
" clip-path="url(#peecc5e7e6e)" style="fill: #6b010e; stroke: #00ff00; stroke-width: 3"/>
    <path d="M 166.303846 190.069009 
C 166.701651 190.069009 167.083216 189.91096 167.364506 189.62967 
C 167.645797 189.348379 167.803846 188.966814 167.803846 188.569009 
C 167.803846 188.171205 167.645797 187.78964 167.364506 187.508349 
C 167.083216 187.227059 166.701651 187.069009 166.303846 187.069009 
C 165.906041 187.069009 165.524476 187.227059 165.243186 187.508349 
C 164.961895 187.78964 164.803846 188.171205 164.803846 188.569009 
C 164.803846 188.966814 164.961895 189.348379 165.243186 189.62967 
C 165.524476 189.91096 165.906041 190.069009 166.303846 190.069009 
z
" clip-path="url(#peecc5e7e6e)" style="fill: #fdcab5; stroke: #00ff00; stroke-width: 3"/>
   </g>
   <g id="matplotlib.axis_1"/>
   <g id="matplotlib.axis_2"/>
  </g>
  <g id="axes_2">
   <g id="patch_3">
    <path d="M 27 356.027586 
L 194.4 356.027586 
L 194.4 241.324138 
L 27 241.324138 
z
" style="fill: #ffffff"/>
   </g>
   <g id="EdgeCollection_2">
    <path d="M 184.179708 301.514437 
C 204.414713 311.384152 204.414713 284.144722 184.179708 294.014437 
C 204.414713 284.144722 204.414713 311.384152 184.179708 301.514437 
" clip-path="url(#p71d5209cce)" style="fill: #ffffff"/>
    <path d="M 174.57525 290.939302 
L 165.346239 270.680753 
" clip-path="url(#p71d5209cce)" style="fill: #ffffff"/>
    <path d="M 172.332407 292.510398 
L 131.864741 252.784263 
" clip-path="url(#p71d5209cce)" style="stroke: #000000; stroke-width: 0.864721"/>
    <path d="M 171.025468 294.313774 
L 90.186261 252.423588 
" clip-path="url(#p71d5209cce)" style="fill: #ffffff"/>
    <path d="M 170.378144 296.071241 
L 56.38566 269.654365 
" clip-path="url(#p71d5209cce)" style="fill: #ffffff"/>
    <path d="M 170.184517 297.764437 
L 43.464254 297.764437 
" clip-path="url(#p71d5209cce)" style="fill: #ffffff"/>
    <path d="M 170.378144 299.457632 
L 62.230759 324.519952 
" clip-path="url(#p71d5209cce)" style="stroke: #000000; stroke-width: 0.891247"/>
    <path d="M 171.025468 301.215099 
L 95.5135 340.344755 
" clip-path="url(#p71d5209cce)" style="fill: #ffffff"/>
    <path d="M 172.332407 303.018475 
L 136.14643 338.541379 
" clip-path="url(#p71d5209cce)" style="stroke: #000000; stroke-width: 0.567639"/>
    <path d="M 174.57525 304.589571 
L 165.346239 324.84812 
" clip-path="url(#p71d5209cce)" style="fill: #ffffff"/>
    <path d="M 166.182636 268.964293 
C 193.481578 260.770325 174.714065 241.027808 165.149161 267.877127 
C 174.714065 241.027808 193.481578 260.770325 166.182636 268.964293 
" clip-path="url(#p71d5209cce)" style="fill: #ffffff"/>
    <path d="M 163.392576 268.625593 
L 132.126129 252.423588 
" clip-path="url(#p71d5209cce)" style="fill: #ffffff"/>
    <path d="M 163.263111 268.977087 
L 90.315726 252.072095 
" clip-path="url(#p71d5209cce)" style="fill: #282828; stroke: #282828; stroke-width: 0.350133"/>
    <path d="M 163.224385 269.315726 
L 56.424386 269.315726 
" clip-path="url(#p71d5209cce)" style="fill: #ffffff"/>
    <path d="M 163.263111 269.654365 
L 43.425528 297.425797 
" clip-path="url(#p71d5209cce)" style="fill: #ffffff"/>
    <path d="M 163.392576 270.005858 
L 61.583434 322.762485 
" clip-path="url(#p71d5209cce)" style="fill: #ffffff"/>
    <path d="M 163.653963 270.366533 
L 94.206562 338.541379 
" clip-path="url(#p71d5209cce)" style="fill: #ffffff"/>
    <path d="M 164.102532 270.680753 
L 133.903586 336.970283 
" clip-path="url(#p71d5209cce)" style="fill: #ffffff"/>
    <path d="M 164.724385 270.815726 
L 164.724385 324.713147 
" clip-path="url(#p71d5209cce)" style="fill: #ffffff"/>
    <path d="M 131.830575 250.64894 
C 150.355843 228.988197 123.890994 222.538523 130.373229 250.293774 
C 123.890994 222.538523 150.355843 228.988197 131.830575 250.64894 
" clip-path="url(#p71d5209cce)" style="fill: #ffffff"/>
    <path d="M 129.294319 251.733456 
L 90.354451 251.733456 
" clip-path="url(#p71d5209cce)" style="fill: #2c2c2c; stroke: #2c2c2c; stroke-width: 0.344828"/>
    <path d="M 129.333045 252.072095 
L 56.38566 268.977087 
" clip-path="url(#p71d5209cce)" style="fill: #ffffff"/>
    <path d="M 129.46251 252.423588 
L 43.296063 297.074304 
" clip-path="url(#p71d5209cce)" style="fill: #ffffff"/>
    <path d="M 129.723897 252.784263 
L 60.276496 320.959109 
" clip-path="url(#p71d5209cce)" style="fill: #ffffff"/>
    <path d="M 130.172466 253.098483 
L 91.963719 336.970283 
" clip-path="url(#p71d5209cce)" style="fill: #ffffff"/>
    <path d="M 130.794319 253.233456 
L 130.794319 336.295417 
" clip-path="url(#p71d5209cce)" style="fill: #ffffff"/>
    <path d="M 131.416173 253.098483 
L 164.102532 324.84812 
" clip-path="url(#p71d5209cce)" style="fill: #ffffff"/>
    <path d="M 89.275542 250.293774 
C 95.757777 222.538523 69.292927 228.988197 87.818196 250.64894 
C 69.292927 228.988197 95.757777 222.538523 89.275542 250.293774 
" clip-path="url(#p71d5209cce)" style="fill: #ffffff"/>
    <path d="M 87.522642 252.423588 
L 56.256195 268.625593 
" clip-path="url(#p71d5209cce)" style="fill: #ffffff"/>
    <path d="M 87.784029 252.784263 
L 43.034676 296.713629 
" clip-path="url(#p71d5209cce)" style="fill: #ffffff"/>
    <path d="M 88.232598 253.098483 
L 58.033653 319.388013 
" clip-path="url(#p71d5209cce)" style="fill: #ffffff"/>
    <path d="M 88.854451 253.233456 
L 88.854451 336.295417 
" clip-path="url(#p71d5209cce)" style="fill: #ffffff"/>
    <path d="M 89.476305 253.098483 
L 127.685052 336.970283 
" clip-path="url(#p71d5209cce)" style="fill: #ffffff"/>
    <path d="M 89.924873 252.784263 
L 163.653963 325.16234 
" clip-path="url(#p71d5209cce)" style="fill: #ffffff"/>
    <path d="M 54.49961 267.877127 
C 44.934706 241.027808 26.167193 260.770325 53.466135 268.964293 
C 26.167193 260.770325 44.934706 241.027808 54.49961 267.877127 
" clip-path="url(#p71d5209cce)" style="fill: #ffffff"/>
    <path d="M 54.302532 270.680753 
L 42.586107 296.39941 
" clip-path="url(#p71d5209cce)" style="fill: #ffffff"/>
    <path d="M 54.924386 270.815726 
L 54.924386 318.713147 
" clip-path="url(#p71d5209cce)" style="fill: #ffffff"/>
    <path d="M 55.546239 270.680753 
L 85.745184 336.970283 
" clip-path="url(#p71d5209cce)" style="fill: #ffffff"/>
    <path d="M 55.994808 270.366533 
L 125.442209 338.541379 
" clip-path="url(#p71d5209cce)" style="fill: #ffffff"/>
    <path d="M 56.256195 270.005858 
L 163.392576 325.523015 
" clip-path="url(#p71d5209cce)" style="fill: #ffffff"/>
    <path d="M 40.665215 297.014437 
C 15.234058 284.144722 15.234058 311.384152 40.665215 298.514437 
C 15.234058 311.384152 15.234058 284.144722 40.665215 297.014437 
" clip-path="url(#p71d5209cce)" style="fill: #ffffff"/>
    <path d="M 42.586107 299.129463 
L 51.815118 319.388013 
" clip-path="url(#p71d5209cce)" style="fill: #ffffff"/>
    <path d="M 43.034676 298.815244 
L 83.502341 338.541379 
" clip-path="url(#p71d5209cce)" style="fill: #ffffff"/>
    <path d="M 43.296063 298.454569 
L 124.135271 340.344755 
" clip-path="url(#p71d5209cce)" style="fill: #ffffff"/>
    <path d="M 43.425528 298.103076 
L 163.263111 325.874508 
" clip-path="url(#p71d5209cce)" style="stroke: #000000; stroke-width: 0.6313"/>
    <path d="M 47.633132 327.970311 
C 26.167193 334.758548 44.934706 354.501065 52.800507 333.40614 
C 44.934706 354.501065 26.167193 334.758548 47.633132 327.970311 
" clip-path="url(#p71d5209cce)" style="fill: #ffffff"/>
    <path d="M 61.583434 329.663809 
L 82.195403 340.344755 
" clip-path="url(#p71d5209cce)" style="stroke: #000000; stroke-width: 2"/>
    <path d="M 62.230759 327.906343 
L 123.487946 342.102222 
" clip-path="url(#p71d5209cce)" style="stroke: #000000; stroke-width: 1.129973"/>
    <path d="M 62.424386 326.213147 
L 163.224385 326.213147 
" clip-path="url(#p71d5209cce)" style="fill: #ffffff"/>
    <path d="M 83.673174 349.217996 
C 69.292927 366.540676 95.757777 372.99035 90.959904 350.993825 
C 95.757777 372.99035 69.292927 366.540676 83.673174 349.217996 
" clip-path="url(#p71d5209cce)" style="fill: #ffffff"/>
    <path d="M 96.354451 343.795417 
L 123.294319 343.795417 
" clip-path="url(#p71d5209cce)" style="stroke: #000000; stroke-width: 1.480106"/>
    <path d="M 96.160825 342.102222 
L 163.263111 326.551786 
" clip-path="url(#p71d5209cce)" style="stroke: #000000; stroke-width: 0.748011"/>
    <path d="M 128.688867 350.993825 
C 123.890994 372.99035 150.355843 366.540676 135.975597 349.217996 
C 150.355843 366.540676 123.890994 372.99035 128.688867 350.993825 
" clip-path="url(#p71d5209cce)" style="fill: #ffffff"/>
    <path d="M 137.453368 340.344755 
L 163.392576 326.90328 
" clip-path="url(#p71d5209cce)" style="fill: #ffffff"/>
    <path d="M 165.149161 327.651746 
C 174.714065 354.501065 193.481578 334.758548 166.182636 326.56458 
C 193.481578 334.758548 174.714065 354.501065 165.149161 327.651746 
" clip-path="url(#p71d5209cce)" style="fill: #ffffff"/>
   </g>
   <g id="VertexCollection_2">
    <path d="M 177.684517 305.264437 
C 179.67354 305.264437 181.581366 304.474189 182.987818 303.067737 
C 184.39427 301.661286 185.184517 299.75346 185.184517 297.764437 
C 185.184517 295.775413 184.39427 293.867588 182.987818 292.461136 
C 181.581366 291.054684 179.67354 290.264437 177.684517 290.264437 
C 175.695494 290.264437 173.787668 291.054684 172.381216 292.461136 
C 170.974765 293.867588 170.184517 295.775413 170.184517 297.764437 
C 170.184517 299.75346 170.974765 301.661286 172.381216 303.067737 
C 173.787668 304.474189 175.695494 305.264437 177.684517 305.264437 
z
" clip-path="url(#p71d5209cce)" style="fill: #6b010e; stroke: #00ff00; stroke-width: 3"/>
    <path d="M 164.724385 270.815726 
C 165.12219 270.815726 165.503755 270.657676 165.785045 270.376386 
C 166.066336 270.095096 166.224385 269.713531 166.224385 269.315726 
C 166.224385 268.917921 166.066336 268.536356 165.785045 268.255066 
C 165.503755 267.973775 165.12219 267.815726 164.724385 267.815726 
C 164.326581 267.815726 163.945015 267.973775 163.663725 268.255066 
C 163.382435 268.536356 163.224385 268.917921 163.224385 269.315726 
C 163.224385 269.713531 163.382435 270.095096 163.663725 270.376386 
C 163.945015 270.657676 164.326581 270.815726 164.724385 270.815726 
z
" clip-path="url(#p71d5209cce)" style="fill: #fdcab5; stroke: #00ff00; stroke-width: 3"/>
    <path d="M 130.794319 253.233456 
C 131.192124 253.233456 131.573689 253.075406 131.85498 252.794116 
C 132.13627 252.512826 132.294319 252.13126 132.294319 251.733456 
C 132.294319 251.335651 132.13627 250.954086 131.85498 250.672796 
C 131.573689 250.391505 131.192124 250.233456 130.794319 250.233456 
C 130.396515 250.233456 130.01495 250.391505 129.733659 250.672796 
C 129.452369 250.954086 129.294319 251.335651 129.294319 251.733456 
C 129.294319 252.13126 129.452369 252.512826 129.733659 252.794116 
C 130.01495 253.075406 130.396515 253.233456 130.794319 253.233456 
z
" clip-path="url(#p71d5209cce)" style="fill: #fdcab5; stroke: #ff0000; stroke-width: 3"/>
    <path d="M 88.854451 253.233456 
C 89.252256 253.233456 89.633821 253.075406 89.915112 252.794116 
C 90.196402 252.512826 90.354451 252.13126 90.354451 251.733456 
C 90.354451 251.335651 90.196402 250.954086 89.915112 250.672796 
C 89.633821 250.391505 89.252256 250.233456 88.854451 250.233456 
C 88.456647 250.233456 88.075082 250.391505 87.793791 250.672796 
C 87.512501 250.954086 87.354451 251.335651 87.354451 251.733456 
C 87.354451 252.13126 87.512501 252.512826 87.793791 252.794116 
C 88.075082 253.075406 88.456647 253.233456 88.854451 253.233456 
z
" clip-path="url(#p71d5209cce)" style="fill: #fdcab5; stroke: #00ff00; stroke-width: 3"/>
    <path d="M 54.924386 270.815726 
C 55.32219 270.815726 55.703755 270.657676 55.985046 270.376386 
C 56.266336 270.095096 56.424386 269.713531 56.424386 269.315726 
C 56.424386 268.917921 56.266336 268.536356 55.985046 268.255066 
C 55.703755 267.973775 55.32219 267.815726 54.924386 267.815726 
C 54.526581 267.815726 54.145016 267.973775 53.863725 268.255066 
C 53.582435 268.536356 53.424386 268.917921 53.424386 269.315726 
C 53.424386 269.713531 53.582435 270.095096 53.863725 270.376386 
C 54.145016 270.657676 54.526581 270.815726 54.924386 270.815726 
z
" clip-path="url(#p71d5209cce)" style="fill: #fdcab5; stroke: #00ff00; stroke-width: 3"/>
    <path d="M 41.964254 299.264437 
C 42.362058 299.264437 42.743623 299.106387 43.024914 298.825097 
C 43.306204 298.543806 43.464254 298.162241 43.464254 297.764437 
C 43.464254 297.366632 43.306204 296.985067 43.024914 296.703776 
C 42.743623 296.422486 42.362058 296.264437 41.964254 296.264437 
C 41.566449 296.264437 41.184884 296.422486 40.903593 296.703776 
C 40.622303 296.985067 40.464254 297.366632 40.464254 297.764437 
C 40.464254 298.162241 40.622303 298.543806 40.903593 298.825097 
C 41.184884 299.106387 41.566449 299.264437 41.964254 299.264437 
z
" clip-path="url(#p71d5209cce)" style="fill: #fdcab5; stroke: #00ff00; stroke-width: 3"/>
    <path d="M 54.924386 333.713147 
C 56.913409 333.713147 58.821235 332.9229 60.227686 331.516448 
C 61.634138 330.109996 62.424386 328.202171 62.424386 326.213147 
C 62.424386 324.224124 61.634138 322.316298 60.227686 320.909846 
C 58.821235 319.503395 56.913409 318.713147 54.924386 318.713147 
C 52.935362 318.713147 51.027536 319.503395 49.621085 320.909846 
C 48.214633 322.316298 47.424386 324.224124 47.424386 326.213147 
C 47.424386 328.202171 48.214633 330.109996 49.621085 331.516448 
C 51.027536 332.9229 52.935362 333.713147 54.924386 333.713147 
z
" clip-path="url(#p71d5209cce)" style="fill: #6b010e; stroke: #00ff00; stroke-width: 3"/>
    <path d="M 88.854451 351.295417 
C 90.843475 351.295417 92.7513 350.50517 94.157752 349.098718 
C 95.564204 347.692266 96.354451 345.784441 96.354451 343.795417 
C 96.354451 341.806394 95.564204 339.898568 94.157752 338.492117 
C 92.7513 337.085665 90.843475 336.295417 88.854451 336.295417 
C 86.865428 336.295417 84.957602 337.085665 83.551151 338.492117 
C 82.144699 339.898568 81.354451 341.806394 81.354451 343.795417 
C 81.354451 345.784441 82.144699 347.692266 83.551151 349.098718 
C 84.957602 350.50517 86.865428 351.295417 88.854451 351.295417 
z
" clip-path="url(#p71d5209cce)" style="fill: #6b010e; stroke: #00ff00; stroke-width: 3"/>
    <path d="M 130.794319 351.295417 
C 132.783343 351.295417 134.691168 350.50517 136.09762 349.098718 
C 137.504072 347.692266 138.294319 345.784441 138.294319 343.795417 
C 138.294319 341.806394 137.504072 339.898568 136.09762 338.492117 
C 134.691168 337.085665 132.783343 336.295417 130.794319 336.295417 
C 128.805296 336.295417 126.89747 337.085665 125.491019 338.492117 
C 124.084567 339.898568 123.294319 341.806394 123.294319 343.795417 
C 123.294319 345.784441 124.084567 347.692266 125.491019 349.098718 
C 126.89747 350.50517 128.805296 351.295417 130.794319 351.295417 
z
" clip-path="url(#p71d5209cce)" style="fill: #6b010e; stroke: #00ff00; stroke-width: 3"/>
    <path d="M 164.724385 327.713147 
C 165.12219 327.713147 165.503755 327.555098 165.785045 327.273807 
C 166.066336 326.992517 166.224385 326.610952 166.224385 326.213147 
C 166.224385 325.815343 166.066336 325.433777 165.785045 325.152487 
C 165.503755 324.871197 165.12219 324.713147 164.724385 324.713147 
C 164.326581 324.713147 163.945015 324.871197 163.663725 325.152487 
C 163.382435 325.433777 163.224385 325.815343 163.224385 326.213147 
C 163.224385 326.610952 163.382435 326.992517 163.663725 327.273807 
C 163.945015 327.555098 164.326581 327.713147 164.724385 327.713147 
z
" clip-path="url(#p71d5209cce)" style="fill: #fdcab5; stroke: #00ff00; stroke-width: 3"/>
   </g>
   <g id="matplotlib.axis_3"/>
   <g id="matplotlib.axis_4"/>
  </g>
  <g id="axes_3">
   <g id="patch_4">
    <path d="M 27 493.671724 
L 194.4 493.671724 
L 194.4 378.968276 
L 27 378.968276 
z
" style="fill: #ffffff"/>
   </g>
   <g id="EdgeCollection_3">
    <path d="M 180.729172 436.158574 
C 206.160329 449.028289 206.160329 421.788859 180.729172 434.658574 
C 206.160329 421.788859 206.160329 449.028289 180.729172 436.158574 
" clip-path="url(#p6efe0076c9)" style="fill: #ffffff"/>
    <path d="M 178.8017 434.046565 
L 166.93228 408.321874 
" clip-path="url(#p6efe0076c9)" style="fill: #ffffff"/>
    <path d="M 178.353042 434.364604 
L 133.015871 390.421564 
" clip-path="url(#p6efe0076c9)" style="stroke: #000000; stroke-width: 0.704225"/>
    <path d="M 178.094764 434.725356 
L 90.796591 390.060812 
" clip-path="url(#p6efe0076c9)" style="fill: #ffffff"/>
    <path d="M 177.967921 435.074007 
L 56.558366 407.294431 
" clip-path="url(#p6efe0076c9)" style="fill: #ffffff"/>
    <path d="M 177.930134 435.408574 
L 43.469866 435.408574 
" clip-path="url(#p6efe0076c9)" style="fill: #ffffff"/>
    <path d="M 177.967921 435.743142 
L 62.407216 462.18445 
" clip-path="url(#p6efe0076c9)" style="fill: #ffffff"/>
    <path d="M 178.094764 436.091793 
L 96.138071 478.023465 
" clip-path="url(#p6efe0076c9)" style="fill: #ffffff"/>
    <path d="M 178.353042 436.452545 
L 137.324236 476.219703 
" clip-path="url(#p6efe0076c9)" style="fill: #ffffff"/>
    <path d="M 178.8017 436.770584 
L 169.446015 457.047236 
" clip-path="url(#p6efe0076c9)" style="fill: #ffffff"/>
    <path d="M 167.760319 406.601136 
C 195.017905 398.27063 176.151809 378.622298 166.721416 405.519157 
C 176.151809 378.622298 195.017905 398.27063 167.760319 406.601136 
" clip-path="url(#p6efe0076c9)" style="fill: #ffffff"/>
    <path d="M 164.968476 406.276646 
L 133.274149 390.060812 
" clip-path="url(#p6efe0076c9)" style="fill: #ffffff"/>
    <path d="M 164.841634 406.625297 
L 90.923433 389.712161 
" clip-path="url(#p6efe0076c9)" style="fill: #ffffff"/>
    <path d="M 164.803846 406.959864 
L 56.596154 406.959864 
" clip-path="url(#p6efe0076c9)" style="fill: #ffffff"/>
    <path d="M 164.841634 407.294431 
L 43.432079 435.074007 
" clip-path="url(#p6efe0076c9)" style="fill: #ffffff"/>
    <path d="M 164.968476 407.643082 
L 61.773004 460.441195 
" clip-path="url(#p6efe0076c9)" style="stroke: #000000; stroke-width: 0.788732"/>
    <path d="M 165.226755 408.003834 
L 94.846677 476.219703 
" clip-path="url(#p6efe0076c9)" style="fill: #ffffff"/>
    <path d="M 165.675412 408.321874 
L 135.080949 474.629506 
" clip-path="url(#p6efe0076c9)" style="stroke: #000000; stroke-width: 0.580282"/>
    <path d="M 166.303846 408.459864 
L 166.303846 456.357285 
" clip-path="url(#p6efe0076c9)" style="fill: #ffffff"/>
    <path d="M 132.97222 388.290395 
C 151.441274 366.581701 124.959793 360.200655 131.513958 387.939009 
C 124.959793 360.200655 151.441274 366.581701 132.97222 388.290395 
" clip-path="url(#p6efe0076c9)" style="fill: #ffffff"/>
    <path d="M 130.438779 389.377594 
L 90.961221 389.377594 
" clip-path="url(#p6efe0076c9)" style="stroke: #000000; stroke-width: 0.416901"/>
    <path d="M 130.476567 389.712161 
L 56.558366 406.625297 
" clip-path="url(#p6efe0076c9)" style="fill: #ffffff"/>
    <path d="M 130.603409 390.060812 
L 43.305236 434.725356 
" clip-path="url(#p6efe0076c9)" style="fill: #ffffff"/>
    <path d="M 130.861688 390.421564 
L 60.481611 458.637433 
" clip-path="url(#p6efe0076c9)" style="fill: #ffffff"/>
    <path d="M 131.310345 390.739604 
L 92.60339 474.629506 
" clip-path="url(#p6efe0076c9)" style="fill: #ffffff"/>
    <path d="M 131.938779 390.877594 
L 131.938779 473.939555 
" clip-path="url(#p6efe0076c9)" style="fill: #ffffff"/>
    <path d="M 132.567213 390.739604 
L 163.161677 457.047236 
" clip-path="url(#p6efe0076c9)" style="fill: #ffffff"/>
    <path d="M 89.886042 387.939009 
C 96.440207 360.200655 69.958726 366.581701 88.42778 388.290395 
C 69.958726 366.581701 96.440207 360.200655 89.886042 387.939009 
" clip-path="url(#p6efe0076c9)" style="fill: #ffffff"/>
    <path d="M 88.125851 390.060812 
L 56.431524 406.276646 
" clip-path="url(#p6efe0076c9)" style="fill: #ffffff"/>
    <path d="M 88.384129 390.421564 
L 43.046958 434.364604 
" clip-path="url(#p6efe0076c9)" style="fill: #ffffff"/>
    <path d="M 88.832787 390.739604 
L 58.238323 457.047236 
" clip-path="url(#p6efe0076c9)" style="fill: #ffffff"/>
    <path d="M 89.461221 390.877594 
L 89.461221 473.939555 
" clip-path="url(#p6efe0076c9)" style="fill: #ffffff"/>
    <path d="M 90.089655 390.739604 
L 128.79661 474.629506 
" clip-path="url(#p6efe0076c9)" style="fill: #ffffff"/>
    <path d="M 90.538312 390.421564 
L 160.918389 458.637433 
" clip-path="url(#p6efe0076c9)" style="fill: #ffffff"/>
    <path d="M 54.678584 405.519157 
C 45.248191 378.622298 26.382095 398.27063 53.639681 406.601136 
C 26.382095 398.27063 45.248191 378.622298 54.678584 405.519157 
" clip-path="url(#p6efe0076c9)" style="fill: #ffffff"/>
    <path d="M 54.46772 408.321874 
L 42.5983 434.046565 
" clip-path="url(#p6efe0076c9)" style="fill: #ffffff"/>
    <path d="M 55.096154 408.459864 
L 55.096154 456.357285 
" clip-path="url(#p6efe0076c9)" style="fill: #ffffff"/>
    <path d="M 55.724588 408.321874 
L 86.319051 474.629506 
" clip-path="url(#p6efe0076c9)" style="fill: #ffffff"/>
    <path d="M 56.173245 408.003834 
L 126.553323 476.219703 
" clip-path="url(#p6efe0076c9)" style="fill: #ffffff"/>
    <path d="M 56.431524 407.643082 
L 159.626996 460.441195 
" clip-path="url(#p6efe0076c9)" style="stroke: #000000; stroke-width: 0.467606"/>
    <path d="M 40.670828 434.658574 
C 15.239671 421.788859 15.239671 449.028289 40.670828 436.158574 
C 15.239671 449.028289 15.239671 421.788859 40.670828 434.658574 
" clip-path="url(#p6efe0076c9)" style="fill: #ffffff"/>
    <path d="M 42.5983 436.770584 
L 51.953985 457.047236 
" clip-path="url(#p6efe0076c9)" style="fill: #ffffff"/>
    <path d="M 43.046958 436.452545 
L 84.075764 476.219703 
" clip-path="url(#p6efe0076c9)" style="fill: #ffffff"/>
    <path d="M 43.305236 436.091793 
L 125.261929 478.023465 
" clip-path="url(#p6efe0076c9)" style="fill: #ffffff"/>
    <path d="M 43.432079 435.743142 
L 158.992784 462.18445 
" clip-path="url(#p6efe0076c9)" style="stroke: #000000; stroke-width: 0.687324"/>
    <path d="M 47.813787 465.650922 
C 26.382095 472.546519 45.248191 492.194851 53.008306 471.060818 
C 45.248191 492.194851 26.382095 472.546519 47.813787 465.650922 
" clip-path="url(#p6efe0076c9)" style="fill: #ffffff"/>
    <path d="M 61.773004 467.273376 
L 82.784371 478.023465 
" clip-path="url(#p6efe0076c9)" style="stroke: #000000; stroke-width: 2"/>
    <path d="M 62.407216 465.530121 
L 124.627718 479.76672 
" clip-path="url(#p6efe0076c9)" style="stroke: #000000; stroke-width: 0.850704"/>
    <path d="M 62.596154 463.857285 
L 158.803846 463.857285 
" clip-path="url(#p6efe0076c9)" style="fill: #ffffff"/>
    <path d="M 84.294018 486.875548 
C 69.958726 504.235448 96.440207 510.616494 91.585327 488.632481 
C 96.440207 510.616494 69.958726 504.235448 84.294018 486.875548 
" clip-path="url(#p6efe0076c9)" style="fill: #ffffff"/>
    <path d="M 96.961221 481.439555 
L 124.438779 481.439555 
" clip-path="url(#p6efe0076c9)" style="stroke: #000000; stroke-width: 1.622535"/>
    <path d="M 96.772282 479.76672 
L 158.992784 465.530121 
" clip-path="url(#p6efe0076c9)" style="stroke: #000000; stroke-width: 0.828169"/>
    <path d="M 129.814673 488.632481 
C 124.959793 510.616494 151.441274 504.235448 137.105982 486.875548 
C 151.441274 504.235448 124.959793 510.616494 129.814673 488.632481 
" clip-path="url(#p6efe0076c9)" style="fill: #ffffff"/>
    <path d="M 138.615629 478.023465 
L 159.626996 467.273376 
" clip-path="url(#p6efe0076c9)" style="fill: #ffffff"/>
    <path d="M 168.391694 471.060818 
C 176.151809 492.194851 195.017905 472.546519 173.586213 465.650922 
C 195.017905 472.546519 176.151809 492.194851 168.391694 471.060818 
" clip-path="url(#p6efe0076c9)" style="fill: #ffffff"/>
   </g>
   <g id="VertexCollection_3">
    <path d="M 179.430134 436.908574 
C 179.827938 436.908574 180.209503 436.750525 180.490794 436.469235 
C 180.772084 436.187944 180.930134 435.806379 180.930134 435.408574 
C 180.930134 435.01077 180.772084 434.629205 180.490794 434.347914 
C 180.209503 434.066624 179.827938 433.908574 179.430134 433.908574 
C 179.032329 433.908574 178.650764 434.066624 178.369473 434.347914 
C 178.088183 434.629205 177.930134 435.01077 177.930134 435.408574 
C 177.930134 435.806379 178.088183 436.187944 178.369473 436.469235 
C 178.650764 436.750525 179.032329 436.908574 179.430134 436.908574 
z
" clip-path="url(#p6efe0076c9)" style="fill: #fdcab5; stroke: #00ff00; stroke-width: 3"/>
    <path d="M 166.303846 408.459864 
C 166.701651 408.459864 167.083216 408.301814 167.364506 408.020524 
C 167.645797 407.739234 167.803846 407.357668 167.803846 406.959864 
C 167.803846 406.562059 167.645797 406.180494 167.364506 405.899204 
C 167.083216 405.617913 166.701651 405.459864 166.303846 405.459864 
C 165.906041 405.459864 165.524476 405.617913 165.243186 405.899204 
C 164.961895 406.180494 164.803846 406.562059 164.803846 406.959864 
C 164.803846 407.357668 164.961895 407.739234 165.243186 408.020524 
C 165.524476 408.301814 165.906041 408.459864 166.303846 408.459864 
z
" clip-path="url(#p6efe0076c9)" style="fill: #fdcab5; stroke: #00ff00; stroke-width: 3"/>
    <path d="M 131.938779 390.877594 
C 132.336584 390.877594 132.718149 390.719544 132.999439 390.438254 
C 133.28073 390.156963 133.438779 389.775398 133.438779 389.377594 
C 133.438779 388.979789 133.28073 388.598224 132.999439 388.316933 
C 132.718149 388.035643 132.336584 387.877594 131.938779 387.877594 
C 131.540975 387.877594 131.159409 388.035643 130.878119 388.316933 
C 130.596829 388.598224 130.438779 388.979789 130.438779 389.377594 
C 130.438779 389.775398 130.596829 390.156963 130.878119 390.438254 
C 131.159409 390.719544 131.540975 390.877594 131.938779 390.877594 
z
" clip-path="url(#p6efe0076c9)" style="fill: #fdcab5; stroke: #ff0000; stroke-width: 3"/>
    <path d="M 89.461221 390.877594 
C 89.859025 390.877594 90.240591 390.719544 90.521881 390.438254 
C 90.803171 390.156963 90.961221 389.775398 90.961221 389.377594 
C 90.961221 388.979789 90.803171 388.598224 90.521881 388.316933 
C 90.240591 388.035643 89.859025 387.877594 89.461221 387.877594 
C 89.063416 387.877594 88.681851 388.035643 88.400561 388.316933 
C 88.11927 388.598224 87.961221 388.979789 87.961221 389.377594 
C 87.961221 389.775398 88.11927 390.156963 88.400561 390.438254 
C 88.681851 390.719544 89.063416 390.877594 89.461221 390.877594 
z
" clip-path="url(#p6efe0076c9)" style="fill: #fdcab5; stroke: #00ff00; stroke-width: 3"/>
    <path d="M 55.096154 408.459864 
C 55.493959 408.459864 55.875524 408.301814 56.156814 408.020524 
C 56.438105 407.739234 56.596154 407.357668 56.596154 406.959864 
C 56.596154 406.562059 56.438105 406.180494 56.156814 405.899204 
C 55.875524 405.617913 55.493959 405.459864 55.096154 405.459864 
C 54.698349 405.459864 54.316784 405.617913 54.035494 405.899204 
C 53.754203 406.180494 53.596154 406.562059 53.596154 406.959864 
C 53.596154 407.357668 53.754203 407.739234 54.035494 408.020524 
C 54.316784 408.301814 54.698349 408.459864 55.096154 408.459864 
z
" clip-path="url(#p6efe0076c9)" style="fill: #fdcab5; stroke: #00ff00; stroke-width: 3"/>
    <path d="M 41.969866 436.908574 
C 42.367671 436.908574 42.749236 436.750525 43.030527 436.469235 
C 43.311817 436.187944 43.469866 435.806379 43.469866 435.408574 
C 43.469866 435.01077 43.311817 434.629205 43.030527 434.347914 
C 42.749236 434.066624 42.367671 433.908574 41.969866 433.908574 
C 41.572062 433.908574 41.190497 434.066624 40.909206 434.347914 
C 40.627916 434.629205 40.469866 435.01077 40.469866 435.408574 
C 40.469866 435.806379 40.627916 436.187944 40.909206 436.469235 
C 41.190497 436.750525 41.572062 436.908574 41.969866 436.908574 
z
" clip-path="url(#p6efe0076c9)" style="fill: #fdcab5; stroke: #00ff00; stroke-width: 3"/>
    <path d="M 55.096154 471.357285 
C 57.085177 471.357285 58.993003 470.567038 60.399455 469.160586 
C 61.805907 467.754134 62.596154 465.846308 62.596154 463.857285 
C 62.596154 461.868262 61.805907 459.960436 60.399455 458.553984 
C 58.993003 457.147533 57.085177 456.357285 55.096154 456.357285 
C 53.107131 456.357285 51.199305 457.147533 49.792853 458.553984 
C 48.386401 459.960436 47.596154 461.868262 47.596154 463.857285 
C 47.596154 465.846308 48.386401 467.754134 49.792853 469.160586 
C 51.199305 470.567038 53.107131 471.357285 55.096154 471.357285 
z
" clip-path="url(#p6efe0076c9)" style="fill: #6b010e; stroke: #00ff00; stroke-width: 3"/>
    <path d="M 89.461221 488.939555 
C 91.450244 488.939555 93.35807 488.149308 94.764522 486.742856 
C 96.170973 485.336404 96.961221 483.428579 96.961221 481.439555 
C 96.961221 479.450532 96.170973 477.542706 94.764522 476.136254 
C 93.35807 474.729803 91.450244 473.939555 89.461221 473.939555 
C 87.472197 473.939555 85.564372 474.729803 84.15792 476.136254 
C 82.751468 477.542706 81.961221 479.450532 81.961221 481.439555 
C 81.961221 483.428579 82.751468 485.336404 84.15792 486.742856 
C 85.564372 488.149308 87.472197 488.939555 89.461221 488.939555 
z
" clip-path="url(#p6efe0076c9)" style="fill: #6b010e; stroke: #00ff00; stroke-width: 3"/>
    <path d="M 131.938779 488.939555 
C 133.927803 488.939555 135.835628 488.149308 137.24208 486.742856 
C 138.648532 485.336404 139.438779 483.428579 139.438779 481.439555 
C 139.438779 479.450532 138.648532 477.542706 137.24208 476.136254 
C 135.835628 474.729803 133.927803 473.939555 131.938779 473.939555 
C 129.949756 473.939555 128.04193 474.729803 126.635478 476.136254 
C 125.229027 477.542706 124.438779 479.450532 124.438779 481.439555 
C 124.438779 483.428579 125.229027 485.336404 126.635478 486.742856 
C 128.04193 488.149308 129.949756 488.939555 131.938779 488.939555 
z
" clip-path="url(#p6efe0076c9)" style="fill: #6b010e; stroke: #00ff00; stroke-width: 3"/>
    <path d="M 166.303846 471.357285 
C 168.292869 471.357285 170.200695 470.567038 171.607147 469.160586 
C 173.013599 467.754134 173.803846 465.846308 173.803846 463.857285 
C 173.803846 461.868262 173.013599 459.960436 171.607147 458.553984 
C 170.200695 457.147533 168.292869 456.357285 166.303846 456.357285 
C 164.314823 456.357285 162.406997 457.147533 161.000545 458.553984 
C 159.594093 459.960436 158.803846 461.868262 158.803846 463.857285 
C 158.803846 465.846308 159.594093 467.754134 161.000545 469.160586 
C 162.406997 470.567038 164.314823 471.357285 166.303846 471.357285 
z
" clip-path="url(#p6efe0076c9)" style="fill: #6b010e; stroke: #00ff00; stroke-width: 3"/>
   </g>
   <g id="matplotlib.axis_5"/>
   <g id="matplotlib.axis_6"/>
  </g>
  <g id="axes_4">
   <g id="patch_5">
    <path d="M 27 631.315862 
L 194.4 631.315862 
L 194.4 516.612414 
L 27 516.612414 
z
" style="fill: #ffffff"/>
   </g>
   <g id="EdgeCollection_4">
    <path d="M 180.734785 573.802712 
C 206.165942 586.672427 206.165942 559.432997 180.734785 572.302712 
C 206.165942 559.432997 206.165942 586.672427 180.734785 573.802712 
" clip-path="url(#p2d26b9865e)" style="fill: #ffffff"/>
    <path d="M 178.813893 571.687686 
L 167.097468 545.969029 
" clip-path="url(#p2d26b9865e)" style="fill: #ffffff"/>
    <path d="M 178.365324 572.001905 
L 133.615971 528.072539 
" clip-path="url(#p2d26b9865e)" style="stroke: #000000; stroke-width: 0.881459"/>
    <path d="M 178.103937 572.36258 
L 91.93749 527.711864 
" clip-path="url(#p2d26b9865e)" style="fill: #ffffff"/>
    <path d="M 177.974472 572.714073 
L 58.136889 544.942641 
" clip-path="url(#p2d26b9865e)" style="fill: #ffffff"/>
    <path d="M 177.935746 573.052712 
L 51.215483 573.052712 
" clip-path="url(#p2d26b9865e)" style="fill: #ffffff"/>
    <path d="M 177.974472 573.391352 
L 63.981988 599.808228 
" clip-path="url(#p2d26b9865e)" style="fill: #ffffff"/>
    <path d="M 178.103937 573.742845 
L 97.264729 615.633031 
" clip-path="url(#p2d26b9865e)" style="fill: #ffffff"/>
    <path d="M 178.365324 574.10352 
L 137.897659 613.829655 
" clip-path="url(#p2d26b9865e)" style="fill: #ffffff"/>
    <path d="M 178.813893 574.417739 
L 167.097468 600.136396 
" clip-path="url(#p2d26b9865e)" style="fill: #ffffff"/>
    <path d="M 167.933865 544.252569 
C 195.232807 536.058601 176.465294 516.316084 166.90039 543.165403 
C 176.465294 516.316084 195.232807 536.058601 167.933865 544.252569 
" clip-path="url(#p2d26b9865e)" style="fill: #ffffff"/>
    <path d="M 165.143805 543.913869 
L 133.877358 527.711864 
" clip-path="url(#p2d26b9865e)" style="fill: #ffffff"/>
    <path d="M 165.01434 544.265363 
L 92.066955 527.360371 
" clip-path="url(#p2d26b9865e)" style="fill: #ffffff"/>
    <path d="M 164.975614 544.604002 
L 58.175615 544.604002 
" clip-path="url(#p2d26b9865e)" style="fill: #ffffff"/>
    <path d="M 165.01434 544.942641 
L 51.021856 571.359517 
" clip-path="url(#p2d26b9865e)" style="fill: #ffffff"/>
    <path d="M 165.143805 545.294134 
L 63.334664 598.050761 
" clip-path="url(#p2d26b9865e)" style="stroke: #000000; stroke-width: 0.911854"/>
    <path d="M 165.405192 545.654809 
L 95.957791 613.829655 
" clip-path="url(#p2d26b9865e)" style="fill: #ffffff"/>
    <path d="M 165.853761 545.969029 
L 135.654816 612.258559 
" clip-path="url(#p2d26b9865e)" style="fill: #ffffff"/>
    <path d="M 166.475614 546.104002 
L 166.475614 600.001423 
" clip-path="url(#p2d26b9865e)" style="fill: #ffffff"/>
    <path d="M 133.581804 525.937216 
C 152.107073 504.276473 125.642223 497.826799 132.124458 525.58205 
C 125.642223 497.826799 152.107073 504.276473 133.581804 525.937216 
" clip-path="url(#p2d26b9865e)" style="fill: #ffffff"/>
    <path d="M 131.045549 527.021732 
L 92.105681 527.021732 
" clip-path="url(#p2d26b9865e)" style="stroke: #000000; stroke-width: 0.431611"/>
    <path d="M 131.084274 527.360371 
L 58.136889 544.265363 
" clip-path="url(#p2d26b9865e)" style="fill: #ffffff"/>
    <path d="M 131.213739 527.711864 
L 50.374532 569.60205 
" clip-path="url(#p2d26b9865e)" style="fill: #ffffff"/>
    <path d="M 131.475127 528.072539 
L 62.027725 596.247385 
" clip-path="url(#p2d26b9865e)" style="fill: #ffffff"/>
    <path d="M 131.923695 528.386758 
L 93.714948 612.258559 
" clip-path="url(#p2d26b9865e)" style="fill: #ffffff"/>
    <path d="M 132.545549 528.521732 
L 132.545549 611.583693 
" clip-path="url(#p2d26b9865e)" style="fill: #ffffff"/>
    <path d="M 133.167402 528.386758 
L 165.853761 600.136396 
" clip-path="url(#p2d26b9865e)" style="fill: #ffffff"/>
    <path d="M 91.026771 525.58205 
C 97.509006 497.826799 71.044157 504.276473 89.569425 525.937216 
C 71.044157 504.276473 97.509006 497.826799 91.026771 525.58205 
" clip-path="url(#p2d26b9865e)" style="fill: #ffffff"/>
    <path d="M 89.273871 527.711864 
L 58.007424 543.913869 
" clip-path="url(#p2d26b9865e)" style="fill: #ffffff"/>
    <path d="M 89.535259 528.072539 
L 49.067593 567.798674 
" clip-path="url(#p2d26b9865e)" style="fill: #ffffff"/>
    <path d="M 89.983827 528.386758 
L 59.784882 594.676289 
" clip-path="url(#p2d26b9865e)" style="fill: #ffffff"/>
    <path d="M 90.605681 528.521732 
L 90.605681 611.583693 
" clip-path="url(#p2d26b9865e)" style="fill: #ffffff"/>
    <path d="M 91.227534 528.386758 
L 129.436281 612.258559 
" clip-path="url(#p2d26b9865e)" style="fill: #ffffff"/>
    <path d="M 91.676103 528.072539 
L 165.405192 600.450616 
" clip-path="url(#p2d26b9865e)" style="fill: #ffffff"/>
    <path d="M 56.250839 543.165403 
C 46.685935 516.316084 27.918422 536.058601 55.217364 544.252569 
C 27.918422 536.058601 46.685935 516.316084 56.250839 543.165403 
" clip-path="url(#p2d26b9865e)" style="fill: #ffffff"/>
    <path d="M 56.053761 545.969029 
L 46.82475 566.227578 
" clip-path="url(#p2d26b9865e)" style="stroke: #000000; stroke-width: 0.966565"/>
    <path d="M 56.675615 546.104002 
L 56.675615 594.001423 
" clip-path="url(#p2d26b9865e)" style="fill: #ffffff"/>
    <path d="M 57.297468 545.969029 
L 87.496414 612.258559 
" clip-path="url(#p2d26b9865e)" style="fill: #ffffff"/>
    <path d="M 57.746037 545.654809 
L 127.193438 613.829655 
" clip-path="url(#p2d26b9865e)" style="fill: #ffffff"/>
    <path d="M 58.007424 545.294134 
L 165.143805 600.811291 
" clip-path="url(#p2d26b9865e)" style="fill: #ffffff"/>
    <path d="M 37.220292 569.302712 
C 16.985287 559.432997 16.985287 586.672427 37.220292 576.802712 
C 16.985287 586.672427 16.985287 559.432997 37.220292 569.302712 
" clip-path="url(#p2d26b9865e)" style="fill: #ffffff"/>
    <path d="M 46.82475 579.877847 
L 53.566348 594.676289 
" clip-path="url(#p2d26b9865e)" style="fill: #ffffff"/>
    <path d="M 49.067593 578.30675 
L 85.25357 613.829655 
" clip-path="url(#p2d26b9865e)" style="stroke: #000000; stroke-width: 0.844985"/>
    <path d="M 50.374532 576.503375 
L 125.8865 615.633031 
" clip-path="url(#p2d26b9865e)" style="stroke: #000000; stroke-width: 0.881459"/>
    <path d="M 51.021856 574.745908 
L 165.01434 601.162784 
" clip-path="url(#p2d26b9865e)" style="fill: #ffffff"/>
    <path d="M 49.384361 603.258587 
C 27.918422 610.046824 46.685935 629.789341 54.551736 608.694416 
C 46.685935 629.789341 27.918422 610.046824 49.384361 603.258587 
" clip-path="url(#p2d26b9865e)" style="fill: #ffffff"/>
    <path d="M 63.334664 604.952085 
L 83.946632 615.633031 
" clip-path="url(#p2d26b9865e)" style="stroke: #000000; stroke-width: 2"/>
    <path d="M 63.981988 603.194619 
L 125.239175 617.390498 
" clip-path="url(#p2d26b9865e)" style="stroke: #000000; stroke-width: 1.075988"/>
    <path d="M 64.175615 601.501423 
L 164.975614 601.501423 
" clip-path="url(#p2d26b9865e)" style="fill: #ffffff"/>
    <path d="M 85.424403 624.506272 
C 71.044157 641.828952 97.509006 648.278626 92.711133 626.282101 
C 97.509006 648.278626 71.044157 641.828952 85.424403 624.506272 
" clip-path="url(#p2d26b9865e)" style="fill: #ffffff"/>
    <path d="M 98.105681 619.083693 
L 125.045549 619.083693 
" clip-path="url(#p2d26b9865e)" style="stroke: #000000; stroke-width: 1.659574"/>
    <path d="M 97.912054 617.390498 
L 165.01434 601.840062 
" clip-path="url(#p2d26b9865e)" style="fill: #ffffff"/>
    <path d="M 130.440096 626.282101 
C 125.642223 648.278626 152.107073 641.828952 137.726826 624.506272 
C 152.107073 641.828952 125.642223 648.278626 130.440096 626.282101 
" clip-path="url(#p2d26b9865e)" style="fill: #ffffff"/>
    <path d="M 139.204597 615.633031 
L 165.143805 602.191556 
" clip-path="url(#p2d26b9865e)" style="fill: #ffffff"/>
    <path d="M 166.90039 602.940022 
C 176.465294 629.789341 195.232807 610.046824 167.933865 601.852856 
C 195.232807 610.046824 176.465294 629.789341 166.90039 602.940022 
" clip-path="url(#p2d26b9865e)" style="fill: #ffffff"/>
   </g>
   <g id="VertexCollection_4">
    <path d="M 179.435746 574.552712 
C 179.833551 574.552712 180.215116 574.394663 180.496407 574.113373 
C 180.777697 573.832082 180.935746 573.450517 180.935746 573.052712 
C 180.935746 572.654908 180.777697 572.273343 180.496407 571.992052 
C 180.215116 571.710762 179.833551 571.552712 179.435746 571.552712 
C 179.037942 571.552712 178.656377 571.710762 178.375086 571.992052 
C 178.093796 572.273343 177.935746 572.654908 177.935746 573.052712 
C 177.935746 573.450517 178.093796 573.832082 178.375086 574.113373 
C 178.656377 574.394663 179.037942 574.552712 179.435746 574.552712 
z
" clip-path="url(#p2d26b9865e)" style="fill: #fdcab5; stroke: #00ff00; stroke-width: 3"/>
    <path d="M 166.475614 546.104002 
C 166.873419 546.104002 167.254984 545.945952 167.536275 545.664662 
C 167.817565 545.383372 167.975614 545.001806 167.975614 544.604002 
C 167.975614 544.206197 167.817565 543.824632 167.536275 543.543342 
C 167.254984 543.262051 166.873419 543.104002 166.475614 543.104002 
C 166.07781 543.104002 165.696245 543.262051 165.414954 543.543342 
C 165.133664 543.824632 164.975614 544.206197 164.975614 544.604002 
C 164.975614 545.001806 165.133664 545.383372 165.414954 545.664662 
C 165.696245 545.945952 166.07781 546.104002 166.475614 546.104002 
z
" clip-path="url(#p2d26b9865e)" style="fill: #fdcab5; stroke: #00ff00; stroke-width: 3"/>
    <path d="M 132.545549 528.521732 
C 132.943353 528.521732 133.324918 528.363682 133.606209 528.082392 
C 133.887499 527.801101 134.045549 527.419536 134.045549 527.021732 
C 134.045549 526.623927 133.887499 526.242362 133.606209 525.961071 
C 133.324918 525.679781 132.943353 525.521732 132.545549 525.521732 
C 132.147744 525.521732 131.766179 525.679781 131.484888 525.961071 
C 131.203598 526.242362 131.045549 526.623927 131.045549 527.021732 
C 131.045549 527.419536 131.203598 527.801101 131.484888 528.082392 
C 131.766179 528.363682 132.147744 528.521732 132.545549 528.521732 
z
" clip-path="url(#p2d26b9865e)" style="fill: #fdcab5; stroke: #ff0000; stroke-width: 3"/>
    <path d="M 90.605681 528.521732 
C 91.003485 528.521732 91.38505 528.363682 91.666341 528.082392 
C 91.947631 527.801101 92.105681 527.419536 92.105681 527.021732 
C 92.105681 526.623927 91.947631 526.242362 91.666341 525.961071 
C 91.38505 525.679781 91.003485 525.521732 90.605681 525.521732 
C 90.207876 525.521732 89.826311 525.679781 89.54502 525.961071 
C 89.26373 526.242362 89.105681 526.623927 89.105681 527.021732 
C 89.105681 527.419536 89.26373 527.801101 89.54502 528.082392 
C 89.826311 528.363682 90.207876 528.521732 90.605681 528.521732 
z
" clip-path="url(#p2d26b9865e)" style="fill: #fdcab5; stroke: #00ff00; stroke-width: 3"/>
    <path d="M 56.675615 546.104002 
C 57.073419 546.104002 57.454985 545.945952 57.736275 545.664662 
C 58.017565 545.383372 58.175615 545.001806 58.175615 544.604002 
C 58.175615 544.206197 58.017565 543.824632 57.736275 543.543342 
C 57.454985 543.262051 57.073419 543.104002 56.675615 543.104002 
C 56.27781 543.104002 55.896245 543.262051 55.614955 543.543342 
C 55.333664 543.824632 55.175615 544.206197 55.175615 544.604002 
C 55.175615 545.001806 55.333664 545.383372 55.614955 545.664662 
C 55.896245 545.945952 56.27781 546.104002 56.675615 546.104002 
z
" clip-path="url(#p2d26b9865e)" style="fill: #fdcab5; stroke: #00ff00; stroke-width: 3"/>
    <path d="M 43.715483 580.552712 
C 45.704506 580.552712 47.612332 579.762465 49.018784 578.356013 
C 50.425235 576.949561 51.215483 575.041736 51.215483 573.052712 
C 51.215483 571.063689 50.425235 569.155863 49.018784 567.749412 
C 47.612332 566.34296 45.704506 565.552712 43.715483 565.552712 
C 41.72646 565.552712 39.818634 566.34296 38.412182 567.749412 
C 37.00573 569.155863 36.215483 571.063689 36.215483 573.052712 
C 36.215483 575.041736 37.00573 576.949561 38.412182 578.356013 
C 39.818634 579.762465 41.72646 580.552712 43.715483 580.552712 
z
" clip-path="url(#p2d26b9865e)" style="fill: #6b010e; stroke: #00ff00; stroke-width: 3"/>
    <path d="M 56.675615 609.001423 
C 58.664638 609.001423 60.572464 608.211176 61.978916 606.804724 
C 63.385367 605.398272 64.175615 603.490446 64.175615 601.501423 
C 64.175615 599.5124 63.385367 597.604574 61.978916 596.198122 
C 60.572464 594.79167 58.664638 594.001423 56.675615 594.001423 
C 54.686591 594.001423 52.778766 594.79167 51.372314 596.198122 
C 49.965862 597.604574 49.175615 599.5124 49.175615 601.501423 
C 49.175615 603.490446 49.965862 605.398272 51.372314 606.804724 
C 52.778766 608.211176 54.686591 609.001423 56.675615 609.001423 
z
" clip-path="url(#p2d26b9865e)" style="fill: #6b010e; stroke: #00ff00; stroke-width: 3"/>
    <path d="M 90.605681 626.583693 
C 92.594704 626.583693 94.50253 625.793446 95.908981 624.386994 
C 97.315433 622.980542 98.105681 621.072717 98.105681 619.083693 
C 98.105681 617.09467 97.315433 615.186844 95.908981 613.780392 
C 94.50253 612.373941 92.594704 611.583693 90.605681 611.583693 
C 88.616657 611.583693 86.708832 612.373941 85.30238 613.780392 
C 83.895928 615.186844 83.105681 617.09467 83.105681 619.083693 
C 83.105681 621.072717 83.895928 622.980542 85.30238 624.386994 
C 86.708832 625.793446 88.616657 626.583693 90.605681 626.583693 
z
" clip-path="url(#p2d26b9865e)" style="fill: #6b010e; stroke: #00ff00; stroke-width: 3"/>
    <path d="M 132.545549 626.583693 
C 134.534572 626.583693 136.442398 625.793446 137.848849 624.386994 
C 139.255301 622.980542 140.045549 621.072717 140.045549 619.083693 
C 140.045549 617.09467 139.255301 615.186844 137.848849 613.780392 
C 136.442398 612.373941 134.534572 611.583693 132.545549 611.583693 
C 130.556525 611.583693 128.6487 612.373941 127.242248 613.780392 
C 125.835796 615.186844 125.045549 617.09467 125.045549 619.083693 
C 125.045549 621.072717 125.835796 622.980542 127.242248 624.386994 
C 128.6487 625.793446 130.556525 626.583693 132.545549 626.583693 
z
" clip-path="url(#p2d26b9865e)" style="fill: #6b010e; stroke: #00ff00; stroke-width: 3"/>
    <path d="M 166.475614 603.001423 
C 166.873419 603.001423 167.254984 602.843374 167.536275 602.562083 
C 167.817565 602.280793 167.975614 601.899228 167.975614 601.501423 
C 167.975614 601.103618 167.817565 600.722053 167.536275 600.440763 
C 167.254984 600.159473 166.873419 600.001423 166.475614 600.001423 
C 166.07781 600.001423 165.696245 600.159473 165.414954 600.440763 
C 165.133664 600.722053 164.975614 601.103618 164.975614 601.501423 
C 164.975614 601.899228 165.133664 602.280793 165.414954 602.562083 
C 165.696245 602.843374 166.07781 603.001423 166.475614 603.001423 
z
" clip-path="url(#p2d26b9865e)" style="fill: #fdcab5; stroke: #00ff00; stroke-width: 3"/>
   </g>
   <g id="matplotlib.axis_7"/>
   <g id="matplotlib.axis_8"/>
  </g>
  <g id="axes_5">
   <g id="patch_6">
    <path d="M 27 768.96 
L 194.4 768.96 
L 194.4 654.256552 
L 27 654.256552 
z
" style="fill: #ffffff"/>
   </g>
   <g id="EdgeCollection_5">
    <path d="M 180.734785 711.44685 
C 206.165942 724.316565 206.165942 697.077135 180.734785 709.94685 
C 206.165942 697.077135 206.165942 724.316565 180.734785 711.44685 
" clip-path="url(#p6cb84fec05)" style="fill: #ffffff"/>
    <path d="M 178.813893 709.331823 
L 167.097468 683.613167 
" clip-path="url(#p6cb84fec05)" style="fill: #ffffff"/>
    <path d="M 178.365324 709.646043 
L 133.615971 665.716677 
" clip-path="url(#p6cb84fec05)" style="stroke: #000000; stroke-width: 0.462777"/>
    <path d="M 178.103937 710.006718 
L 91.93749 665.356002 
" clip-path="url(#p6cb84fec05)" style="fill: #ffffff"/>
    <path d="M 177.974472 710.358211 
L 58.136889 682.586779 
" clip-path="url(#p6cb84fec05)" style="fill: #ffffff"/>
    <path d="M 177.935746 710.69685 
L 51.215483 710.69685 
" clip-path="url(#p6cb84fec05)" style="fill: #ffffff"/>
    <path d="M 177.974472 711.035489 
L 63.981988 737.452366 
" clip-path="url(#p6cb84fec05)" style="fill: #ffffff"/>
    <path d="M 178.103937 711.386983 
L 97.264729 753.277169 
" clip-path="url(#p6cb84fec05)" style="fill: #ffffff"/>
    <path d="M 178.365324 711.747658 
L 133.615971 755.677024 
" clip-path="url(#p6cb84fec05)" style="fill: #ffffff"/>
    <path d="M 178.813893 712.061877 
L 167.097468 737.780534 
" clip-path="url(#p6cb84fec05)" style="fill: #ffffff"/>
    <path d="M 167.933865 681.896707 
C 195.232807 673.702739 176.465294 653.960222 166.90039 680.809541 
C 176.465294 653.960222 195.232807 673.702739 167.933865 681.896707 
" clip-path="url(#p6cb84fec05)" style="fill: #ffffff"/>
    <path d="M 165.143805 681.558007 
L 133.877358 665.356002 
" clip-path="url(#p6cb84fec05)" style="fill: #ffffff"/>
    <path d="M 165.01434 681.909501 
L 92.066955 665.004509 
" clip-path="url(#p6cb84fec05)" style="fill: #4d4d4d; stroke: #4d4d4d; stroke-width: 0.309859"/>
    <path d="M 164.975614 682.24814 
L 58.175615 682.24814 
" clip-path="url(#p6cb84fec05)" style="fill: #ffffff"/>
    <path d="M 165.01434 682.586779 
L 51.021856 709.003655 
" clip-path="url(#p6cb84fec05)" style="fill: #ffffff"/>
    <path d="M 165.143805 682.938272 
L 63.334664 735.694899 
" clip-path="url(#p6cb84fec05)" style="stroke: #000000; stroke-width: 1.102616"/>
    <path d="M 165.405192 683.298947 
L 95.957791 751.473793 
" clip-path="url(#p6cb84fec05)" style="fill: #ffffff"/>
    <path d="M 165.853761 683.613167 
L 133.167402 755.362804 
" clip-path="url(#p6cb84fec05)" style="fill: #ffffff"/>
    <path d="M 166.475614 683.74814 
L 166.475614 737.645561 
" clip-path="url(#p6cb84fec05)" style="fill: #ffffff"/>
    <path d="M 133.581804 663.581354 
C 152.107073 641.920611 125.642223 635.470937 132.124458 663.226188 
C 125.642223 635.470937 152.107073 641.920611 133.581804 663.581354 
" clip-path="url(#p6cb84fec05)" style="fill: #ffffff"/>
    <path d="M 131.045549 664.665869 
L 92.105681 664.665869 
" clip-path="url(#p6cb84fec05)" style="fill: #ffffff"/>
    <path d="M 131.084274 665.004509 
L 58.136889 681.909501 
" clip-path="url(#p6cb84fec05)" style="fill: #ffffff"/>
    <path d="M 131.213739 665.356002 
L 50.374532 707.246188 
" clip-path="url(#p6cb84fec05)" style="fill: #ffffff"/>
    <path d="M 131.475127 665.716677 
L 62.027725 733.891523 
" clip-path="url(#p6cb84fec05)" style="fill: #ffffff"/>
    <path d="M 131.923695 666.030896 
L 93.714948 749.902697 
" clip-path="url(#p6cb84fec05)" style="fill: #ffffff"/>
    <path d="M 132.545549 666.165869 
L 132.545549 755.227831 
" clip-path="url(#p6cb84fec05)" style="fill: #ffffff"/>
    <path d="M 133.167402 666.030896 
L 165.853761 737.780534 
" clip-path="url(#p6cb84fec05)" style="fill: #ffffff"/>
    <path d="M 91.026771 663.226188 
C 97.509006 635.470937 71.044157 641.920611 89.569425 663.581354 
C 71.044157 641.920611 97.509006 635.470937 91.026771 663.226188 
" clip-path="url(#p6cb84fec05)" style="fill: #ffffff"/>
    <path d="M 89.273871 665.356002 
L 58.007424 681.558007 
" clip-path="url(#p6cb84fec05)" style="fill: #ffffff"/>
    <path d="M 89.535259 665.716677 
L 49.067593 705.442812 
" clip-path="url(#p6cb84fec05)" style="fill: #ffffff"/>
    <path d="M 89.983827 666.030896 
L 59.784882 732.320427 
" clip-path="url(#p6cb84fec05)" style="fill: #ffffff"/>
    <path d="M 90.605681 666.165869 
L 90.605681 749.227831 
" clip-path="url(#p6cb84fec05)" style="fill: #ffffff"/>
    <path d="M 91.227534 666.030896 
L 131.923695 755.362804 
" clip-path="url(#p6cb84fec05)" style="fill: #ffffff"/>
    <path d="M 91.676103 665.716677 
L 165.405192 738.094753 
" clip-path="url(#p6cb84fec05)" style="fill: #ffffff"/>
    <path d="M 56.250839 680.809541 
C 46.685935 653.960222 27.918422 673.702739 55.217364 681.896707 
C 27.918422 673.702739 46.685935 653.960222 56.250839 680.809541 
" clip-path="url(#p6cb84fec05)" style="fill: #ffffff"/>
    <path d="M 56.053761 683.613167 
L 46.82475 703.871716 
" clip-path="url(#p6cb84fec05)" style="fill: #ffffff"/>
    <path d="M 56.675615 683.74814 
L 56.675615 731.645561 
" clip-path="url(#p6cb84fec05)" style="fill: #ffffff"/>
    <path d="M 57.297468 683.613167 
L 87.496414 749.902697 
" clip-path="url(#p6cb84fec05)" style="fill: #ffffff"/>
    <path d="M 57.746037 683.298947 
L 131.475127 755.677024 
" clip-path="url(#p6cb84fec05)" style="fill: #ffffff"/>
    <path d="M 58.007424 682.938272 
L 165.143805 738.455429 
" clip-path="url(#p6cb84fec05)" style="fill: #ffffff"/>
    <path d="M 37.220292 706.94685 
C 16.985287 697.077135 16.985287 724.316565 37.220292 714.44685 
C 16.985287 724.316565 16.985287 697.077135 37.220292 706.94685 
" clip-path="url(#p6cb84fec05)" style="fill: #ffffff"/>
    <path d="M 46.82475 717.521985 
L 53.566348 732.320427 
" clip-path="url(#p6cb84fec05)" style="stroke: #000000; stroke-width: 0.828974"/>
    <path d="M 49.067593 715.950888 
L 85.25357 751.473793 
" clip-path="url(#p6cb84fec05)" style="fill: #ffffff"/>
    <path d="M 50.374532 714.147513 
L 131.213739 756.037699 
" clip-path="url(#p6cb84fec05)" style="stroke: #000000; stroke-width: 0.748491"/>
    <path d="M 51.021856 712.390046 
L 165.01434 738.806922 
" clip-path="url(#p6cb84fec05)" style="stroke: #000000; stroke-width: 0.881288"/>
    <path d="M 49.384361 740.902725 
C 27.918422 747.690962 46.685935 767.433479 54.551736 746.338554 
C 46.685935 767.433479 27.918422 747.690962 49.384361 740.902725 
" clip-path="url(#p6cb84fec05)" style="fill: #ffffff"/>
    <path d="M 63.334664 742.596223 
L 83.946632 753.277169 
" clip-path="url(#p6cb84fec05)" style="stroke: #000000; stroke-width: 2"/>
    <path d="M 63.981988 740.838757 
L 131.084274 756.389192 
" clip-path="url(#p6cb84fec05)" style="fill: #ffffff"/>
    <path d="M 64.175615 739.145561 
L 164.975614 739.145561 
" clip-path="url(#p6cb84fec05)" style="fill: #ffffff"/>
    <path d="M 85.424403 762.15041 
C 71.044157 779.47309 97.509006 785.922764 92.711133 763.926239 
C 97.509006 785.922764 71.044157 779.47309 85.424403 762.15041 
" clip-path="url(#p6cb84fec05)" style="fill: #ffffff"/>
    <path d="M 98.105681 756.727831 
L 131.045549 756.727831 
" clip-path="url(#p6cb84fec05)" style="stroke: #000000; stroke-width: 0.535211"/>
    <path d="M 97.912054 755.034636 
L 165.01434 739.4842 
" clip-path="url(#p6cb84fec05)" style="stroke: #000000; stroke-width: 0.539235"/>
    <path d="M 132.124458 758.167513 
C 125.642223 785.922764 152.107073 779.47309 133.581804 757.812347 
C 152.107073 779.47309 125.642223 785.922764 132.124458 758.167513 
" clip-path="url(#p6cb84fec05)" style="fill: #ffffff"/>
    <path d="M 133.877358 756.037699 
L 165.143805 739.835693 
" clip-path="url(#p6cb84fec05)" style="fill: #ffffff"/>
    <path d="M 166.90039 740.58416 
C 176.465294 767.433479 195.232807 747.690962 167.933865 739.496994 
C 195.232807 747.690962 176.465294 767.433479 166.90039 740.58416 
" clip-path="url(#p6cb84fec05)" style="fill: #ffffff"/>
   </g>
   <g id="VertexCollection_5">
    <path d="M 179.435746 712.19685 
C 179.833551 712.19685 180.215116 712.038801 180.496407 711.757511 
C 180.777697 711.47622 180.935746 711.094655 180.935746 710.69685 
C 180.935746 710.299046 180.777697 709.917481 180.496407 709.63619 
C 180.215116 709.3549 179.833551 709.19685 179.435746 709.19685 
C 179.037942 709.19685 178.656377 709.3549 178.375086 709.63619 
C 178.093796 709.917481 177.935746 710.299046 177.935746 710.69685 
C 177.935746 711.094655 178.093796 711.47622 178.375086 711.757511 
C 178.656377 712.038801 179.037942 712.19685 179.435746 712.19685 
z
" clip-path="url(#p6cb84fec05)" style="fill: #fdcab5; stroke: #00ff00; stroke-width: 3"/>
    <path d="M 166.475614 683.74814 
C 166.873419 683.74814 167.254984 683.59009 167.536275 683.3088 
C 167.817565 683.027509 167.975614 682.645944 167.975614 682.24814 
C 167.975614 681.850335 167.817565 681.46877 167.536275 681.187479 
C 167.254984 680.906189 166.873419 680.74814 166.475614 680.74814 
C 166.07781 680.74814 165.696245 680.906189 165.414954 681.187479 
C 165.133664 681.46877 164.975614 681.850335 164.975614 682.24814 
C 164.975614 682.645944 165.133664 683.027509 165.414954 683.3088 
C 165.696245 683.59009 166.07781 683.74814 166.475614 683.74814 
z
" clip-path="url(#p6cb84fec05)" style="fill: #fdcab5; stroke: #00ff00; stroke-width: 3"/>
    <path d="M 132.545549 666.165869 
C 132.943353 666.165869 133.324918 666.00782 133.606209 665.72653 
C 133.887499 665.445239 134.045549 665.063674 134.045549 664.665869 
C 134.045549 664.268065 133.887499 663.8865 133.606209 663.605209 
C 133.324918 663.323919 132.943353 663.165869 132.545549 663.165869 
C 132.147744 663.165869 131.766179 663.323919 131.484888 663.605209 
C 131.203598 663.8865 131.045549 664.268065 131.045549 664.665869 
C 131.045549 665.063674 131.203598 665.445239 131.484888 665.72653 
C 131.766179 666.00782 132.147744 666.165869 132.545549 666.165869 
z
" clip-path="url(#p6cb84fec05)" style="fill: #fdcab5; stroke: #ff0000; stroke-width: 3"/>
    <path d="M 90.605681 666.165869 
C 91.003485 666.165869 91.38505 666.00782 91.666341 665.72653 
C 91.947631 665.445239 92.105681 665.063674 92.105681 664.665869 
C 92.105681 664.268065 91.947631 663.8865 91.666341 663.605209 
C 91.38505 663.323919 91.003485 663.165869 90.605681 663.165869 
C 90.207876 663.165869 89.826311 663.323919 89.54502 663.605209 
C 89.26373 663.8865 89.105681 664.268065 89.105681 664.665869 
C 89.105681 665.063674 89.26373 665.445239 89.54502 665.72653 
C 89.826311 666.00782 90.207876 666.165869 90.605681 666.165869 
z
" clip-path="url(#p6cb84fec05)" style="fill: #fdcab5; stroke: #00ff00; stroke-width: 3"/>
    <path d="M 56.675615 683.74814 
C 57.073419 683.74814 57.454985 683.59009 57.736275 683.3088 
C 58.017565 683.027509 58.175615 682.645944 58.175615 682.24814 
C 58.175615 681.850335 58.017565 681.46877 57.736275 681.187479 
C 57.454985 680.906189 57.073419 680.74814 56.675615 680.74814 
C 56.27781 680.74814 55.896245 680.906189 55.614955 681.187479 
C 55.333664 681.46877 55.175615 681.850335 55.175615 682.24814 
C 55.175615 682.645944 55.333664 683.027509 55.614955 683.3088 
C 55.896245 683.59009 56.27781 683.74814 56.675615 683.74814 
z
" clip-path="url(#p6cb84fec05)" style="fill: #fdcab5; stroke: #00ff00; stroke-width: 3"/>
    <path d="M 43.715483 718.19685 
C 45.704506 718.19685 47.612332 717.406603 49.018784 716.000151 
C 50.425235 714.593699 51.215483 712.685874 51.215483 710.69685 
C 51.215483 708.707827 50.425235 706.800001 49.018784 705.393549 
C 47.612332 703.987098 45.704506 703.19685 43.715483 703.19685 
C 41.72646 703.19685 39.818634 703.987098 38.412182 705.393549 
C 37.00573 706.800001 36.215483 708.707827 36.215483 710.69685 
C 36.215483 712.685874 37.00573 714.593699 38.412182 716.000151 
C 39.818634 717.406603 41.72646 718.19685 43.715483 718.19685 
z
" clip-path="url(#p6cb84fec05)" style="fill: #6b010e; stroke: #00ff00; stroke-width: 3"/>
    <path d="M 56.675615 746.645561 
C 58.664638 746.645561 60.572464 745.855314 61.978916 744.448862 
C 63.385367 743.04241 64.175615 741.134584 64.175615 739.145561 
C 64.175615 737.156538 63.385367 735.248712 61.978916 733.84226 
C 60.572464 732.435808 58.664638 731.645561 56.675615 731.645561 
C 54.686591 731.645561 52.778766 732.435808 51.372314 733.84226 
C 49.965862 735.248712 49.175615 737.156538 49.175615 739.145561 
C 49.175615 741.134584 49.965862 743.04241 51.372314 744.448862 
C 52.778766 745.855314 54.686591 746.645561 56.675615 746.645561 
z
" clip-path="url(#p6cb84fec05)" style="fill: #6b010e; stroke: #00ff00; stroke-width: 3"/>
    <path d="M 90.605681 764.227831 
C 92.594704 764.227831 94.50253 763.437584 95.908981 762.031132 
C 97.315433 760.62468 98.105681 758.716854 98.105681 756.727831 
C 98.105681 754.738808 97.315433 752.830982 95.908981 751.42453 
C 94.50253 750.018079 92.594704 749.227831 90.605681 749.227831 
C 88.616657 749.227831 86.708832 750.018079 85.30238 751.42453 
C 83.895928 752.830982 83.105681 754.738808 83.105681 756.727831 
C 83.105681 758.716854 83.895928 760.62468 85.30238 762.031132 
C 86.708832 763.437584 88.616657 764.227831 90.605681 764.227831 
z
" clip-path="url(#p6cb84fec05)" style="fill: #6b010e; stroke: #00ff00; stroke-width: 3"/>
    <path d="M 132.545549 758.227831 
C 132.943353 758.227831 133.324918 758.069782 133.606209 757.788491 
C 133.887499 757.507201 134.045549 757.125636 134.045549 756.727831 
C 134.045549 756.330027 133.887499 755.948461 133.606209 755.667171 
C 133.324918 755.385881 132.943353 755.227831 132.545549 755.227831 
C 132.147744 755.227831 131.766179 755.385881 131.484888 755.667171 
C 131.203598 755.948461 131.045549 756.330027 131.045549 756.727831 
C 131.045549 757.125636 131.203598 757.507201 131.484888 757.788491 
C 131.766179 758.069782 132.147744 758.227831 132.545549 758.227831 
z
" clip-path="url(#p6cb84fec05)" style="fill: #fdcab5; stroke: #00ff00; stroke-width: 3"/>
    <path d="M 166.475614 740.645561 
C 166.873419 740.645561 167.254984 740.487512 167.536275 740.206221 
C 167.817565 739.924931 167.975614 739.543366 167.975614 739.145561 
C 167.975614 738.747756 167.817565 738.366191 167.536275 738.084901 
C 167.254984 737.803611 166.873419 737.645561 166.475614 737.645561 
C 166.07781 737.645561 165.696245 737.803611 165.414954 738.084901 
C 165.133664 738.366191 164.975614 738.747756 164.975614 739.145561 
C 164.975614 739.543366 165.133664 739.924931 165.414954 740.206221 
C 165.696245 740.487512 166.07781 740.645561 166.475614 740.645561 
z
" clip-path="url(#p6cb84fec05)" style="fill: #fdcab5; stroke: #00ff00; stroke-width: 3"/>
   </g>
   <g id="matplotlib.axis_9"/>
   <g id="matplotlib.axis_10"/>
  </g>
 </g>
 <defs>
  <clipPath id="peecc5e7e6e">
   <rect x="27" y="103.68" width="167.4" height="114.703448"/>
  </clipPath>
  <clipPath id="p71d5209cce">
   <rect x="27" y="241.324138" width="167.4" height="114.703448"/>
  </clipPath>
  <clipPath id="p6efe0076c9">
   <rect x="27" y="378.968276" width="167.4" height="114.703448"/>
  </clipPath>
  <clipPath id="p2d26b9865e">
   <rect x="27" y="516.612414" width="167.4" height="114.703448"/>
  </clipPath>
  <clipPath id="p6cb84fec05">
   <rect x="27" y="654.256552" width="167.4" height="114.703448"/>
  </clipPath>
 </defs>
</svg>
