<?xml version="1.0" encoding="utf-8" standalone="no"?>
<!DOCTYPE svg PUBLIC "-//W3C//DTD SVG 1.1//EN"
  "http://www.w3.org/Graphics/SVG/1.1/DTD/svg11.dtd">
<svg xmlns:xlink="http://www.w3.org/1999/xlink" width="216pt" height="864pt" viewBox="0 0 216 864" xmlns="http://www.w3.org/2000/svg" version="1.1">
 <metadata>
  <rdf:RDF xmlns:dc="http://purl.org/dc/elements/1.1/" xmlns:cc="http://creativecommons.org/ns#" xmlns:rdf="http://www.w3.org/1999/02/22-rdf-syntax-ns#">
   <cc:Work>
    <dc:type rdf:resource="http://purl.org/dc/dcmitype/StillImage"/>
    <dc:date>2025-06-05T15:05:29.339452</dc:date>
    <dc:format>image/svg+xml</dc:format>
    <dc:creator>
     <cc:Agent>
      <dc:title>Matplotlib v3.9.2, https://matplotlib.org/</dc:title>
     </cc:Agent>
    </dc:creator>
   </cc:Work>
  </rdf:RDF>
 </metadata>
 <defs>
  <style type="text/css">*{stroke-linejoin: round; stroke-linecap: butt}</style>
 </defs>
 <g id="figure_1">
  <g id="patch_1">
   <path d="M 0 864 
L 216 864 
L 216 0 
L 0 0 
z
" style="fill: #ffffff"/>
  </g>
  <g id="axes_1">
   <g id="patch_2">
    <path d="M 27 218.383448 
L 194.4 218.383448 
L 194.4 103.68 
L 27 103.68 
z
" style="fill: #ffffff"/>
   </g>
   <g id="EdgeCollection_1">
    <path d="M 180.729172 162.69315 
C 206.160329 175.562865 206.160329 148.323435 180.729172 161.19315 
C 206.160329 148.323435 206.160329 175.562865 180.729172 162.69315 
" clip-path="url(#p58d6875f2d)" style="fill: #ffffff"/>
    <path d="M 178.8017 160.58114 
L 166.93228 134.856449 
" clip-path="url(#p58d6875f2d)" style="fill: #ffffff"/>
    <path d="M 178.353042 160.899179 
L 137.324236 121.132021 
" clip-path="url(#p58d6875f2d)" style="fill: #ffffff"/>
    <path d="M 178.094764 161.259932 
L 96.138071 119.328259 
" clip-path="url(#p58d6875f2d)" style="fill: #ffffff"/>
    <path d="M 177.967921 161.608583 
L 62.407216 135.167274 
" clip-path="url(#p58d6875f2d)" style="fill: #ffffff"/>
    <path d="M 177.930134 161.94315 
L 43.469866 161.94315 
" clip-path="url(#p58d6875f2d)" style="fill: #ffffff"/>
    <path d="M 177.967921 162.277717 
L 56.558366 190.057293 
" clip-path="url(#p58d6875f2d)" style="fill: #ffffff"/>
    <path d="M 178.094764 162.626368 
L 90.796591 207.290912 
" clip-path="url(#p58d6875f2d)" style="fill: #ffffff"/>
    <path d="M 178.353042 162.98712 
L 133.015871 206.93016 
" clip-path="url(#p58d6875f2d)" style="fill: #ffffff"/>
    <path d="M 178.8017 163.30516 
L 166.93228 189.02985 
" clip-path="url(#p58d6875f2d)" style="fill: #ffffff"/>
    <path d="M 167.760319 133.135712 
C 195.017905 124.805205 176.151809 105.156873 166.721416 132.053732 
C 176.151809 105.156873 195.017905 124.805205 167.760319 133.135712 
" clip-path="url(#p58d6875f2d)" style="fill: #ffffff"/>
    <path d="M 164.968476 132.811221 
L 138.615629 119.328259 
" clip-path="url(#p58d6875f2d)" style="fill: #ffffff"/>
    <path d="M 164.841634 133.159872 
L 96.772282 117.585004 
" clip-path="url(#p58d6875f2d)" style="fill: #ffffff"/>
    <path d="M 164.803846 133.494439 
L 62.596154 133.494439 
" clip-path="url(#p58d6875f2d)" style="fill: #ffffff"/>
    <path d="M 164.841634 133.829006 
L 43.432079 161.608583 
" clip-path="url(#p58d6875f2d)" style="fill: #ffffff"/>
    <path d="M 164.968476 134.177657 
L 56.431524 189.708642 
" clip-path="url(#p58d6875f2d)" style="fill: #ffffff"/>
    <path d="M 165.226755 134.538409 
L 90.538312 206.93016 
" clip-path="url(#p58d6875f2d)" style="fill: #ffffff"/>
    <path d="M 165.675412 134.856449 
L 132.567213 206.612121 
" clip-path="url(#p58d6875f2d)" style="fill: #ffffff"/>
    <path d="M 166.303846 134.994439 
L 166.303846 188.89186 
" clip-path="url(#p58d6875f2d)" style="fill: #ffffff"/>
    <path d="M 137.105982 110.476176 
C 151.441274 93.116276 124.959793 86.73523 129.814673 108.719244 
C 124.959793 86.73523 151.441274 93.116276 137.105982 110.476176 
" clip-path="url(#p58d6875f2d)" style="fill: #ffffff"/>
    <path d="M 124.438779 115.912169 
L 96.961221 115.912169 
" clip-path="url(#p58d6875f2d)" style="stroke: #000000; stroke-width: 0.704724"/>
    <path d="M 124.627718 117.585004 
L 62.407216 131.821604 
" clip-path="url(#p58d6875f2d)" style="stroke: #000000; stroke-width: 2"/>
    <path d="M 125.261929 119.328259 
L 43.305236 161.259932 
" clip-path="url(#p58d6875f2d)" style="stroke: #000000; stroke-width: 0.602362"/>
    <path d="M 126.553323 121.132021 
L 56.173245 189.34789 
" clip-path="url(#p58d6875f2d)" style="fill: #ffffff"/>
    <path d="M 128.79661 122.722218 
L 90.089655 206.612121 
" clip-path="url(#p58d6875f2d)" style="fill: #ffffff"/>
    <path d="M 131.938779 123.412169 
L 131.938779 206.474131 
" clip-path="url(#p58d6875f2d)" style="fill: #ffffff"/>
    <path d="M 135.080949 122.722218 
L 165.675412 189.02985 
" clip-path="url(#p58d6875f2d)" style="fill: #ffffff"/>
    <path d="M 91.585327 108.719244 
C 96.440207 86.73523 69.958726 93.116276 84.294018 110.476176 
C 69.958726 93.116276 96.440207 86.73523 91.585327 108.719244 
" clip-path="url(#p58d6875f2d)" style="fill: #ffffff"/>
    <path d="M 82.784371 119.328259 
L 61.773004 130.078348 
" clip-path="url(#p58d6875f2d)" style="stroke: #000000; stroke-width: 0.744094"/>
    <path d="M 84.075764 121.132021 
L 43.046958 160.899179 
" clip-path="url(#p58d6875f2d)" style="fill: #ffffff"/>
    <path d="M 86.319051 122.722218 
L 55.724588 189.02985 
" clip-path="url(#p58d6875f2d)" style="fill: #ffffff"/>
    <path d="M 89.461221 123.412169 
L 89.461221 206.474131 
" clip-path="url(#p58d6875f2d)" style="stroke: #000000; stroke-width: 0.759843"/>
    <path d="M 92.60339 122.722218 
L 131.310345 206.612121 
" clip-path="url(#p58d6875f2d)" style="fill: #ffffff"/>
    <path d="M 94.846677 121.132021 
L 165.226755 189.34789 
" clip-path="url(#p58d6875f2d)" style="fill: #ffffff"/>
    <path d="M 53.008306 126.290906 
C 45.248191 105.156873 26.382095 124.805205 47.813787 131.700802 
C 26.382095 124.805205 45.248191 105.156873 53.008306 126.290906 
" clip-path="url(#p58d6875f2d)" style="fill: #ffffff"/>
    <path d="M 51.953985 140.304488 
L 42.5983 160.58114 
" clip-path="url(#p58d6875f2d)" style="fill: #ffffff"/>
    <path d="M 55.096154 140.994439 
L 55.096154 188.89186 
" clip-path="url(#p58d6875f2d)" style="fill: #ffffff"/>
    <path d="M 58.238323 140.304488 
L 88.832787 206.612121 
" clip-path="url(#p58d6875f2d)" style="fill: #ffffff"/>
    <path d="M 60.481611 138.714291 
L 130.861688 206.93016 
" clip-path="url(#p58d6875f2d)" style="stroke: #000000; stroke-width: 0.677165"/>
    <path d="M 61.773004 136.910529 
L 164.968476 189.708642 
" clip-path="url(#p58d6875f2d)" style="fill: #ffffff"/>
    <path d="M 40.670828 161.19315 
C 15.239671 148.323435 15.239671 175.562865 40.670828 162.69315 
C 15.239671 175.562865 15.239671 148.323435 40.670828 161.19315 
" clip-path="url(#p58d6875f2d)" style="fill: #ffffff"/>
    <path d="M 42.5983 163.30516 
L 54.46772 189.02985 
" clip-path="url(#p58d6875f2d)" style="fill: #ffffff"/>
    <path d="M 43.046958 162.98712 
L 88.384129 206.93016 
" clip-path="url(#p58d6875f2d)" style="fill: #ffffff"/>
    <path d="M 43.305236 162.626368 
L 130.603409 207.290912 
" clip-path="url(#p58d6875f2d)" style="fill: #ffffff"/>
    <path d="M 43.432079 162.277717 
L 164.841634 190.057293 
" clip-path="url(#p58d6875f2d)" style="fill: #ffffff"/>
    <path d="M 53.639681 190.750588 
C 26.382095 199.081095 45.248191 218.729426 54.678584 191.832567 
C 45.248191 218.729426 26.382095 199.081095 53.639681 190.750588 
" clip-path="url(#p58d6875f2d)" style="fill: #ffffff"/>
    <path d="M 56.431524 191.075078 
L 88.125851 207.290912 
" clip-path="url(#p58d6875f2d)" style="fill: #ffffff"/>
    <path d="M 56.558366 190.726427 
L 130.476567 207.639563 
" clip-path="url(#p58d6875f2d)" style="fill: #ffffff"/>
    <path d="M 56.596154 190.39186 
L 164.803846 190.39186 
" clip-path="url(#p58d6875f2d)" style="fill: #ffffff"/>
    <path d="M 88.42778 209.061329 
C 69.958726 230.770023 96.440207 237.151069 89.886042 209.412716 
C 96.440207 237.151069 69.958726 230.770023 88.42778 209.061329 
" clip-path="url(#p58d6875f2d)" style="fill: #ffffff"/>
    <path d="M 90.961221 207.974131 
L 130.438779 207.974131 
" clip-path="url(#p58d6875f2d)" style="fill: #ffffff"/>
    <path d="M 90.923433 207.639563 
L 164.841634 190.726427 
" clip-path="url(#p58d6875f2d)" style="fill: #ffffff"/>
    <path d="M 131.513958 209.412716 
C 124.959793 237.151069 151.441274 230.770023 132.97222 209.061329 
C 151.441274 230.770023 124.959793 237.151069 131.513958 209.412716 
" clip-path="url(#p58d6875f2d)" style="fill: #ffffff"/>
    <path d="M 133.274149 207.290912 
L 164.968476 191.075078 
" clip-path="url(#p58d6875f2d)" style="fill: #ffffff"/>
    <path d="M 166.721416 191.832567 
C 176.151809 218.729426 195.017905 199.081095 167.760319 190.750588 
C 195.017905 199.081095 176.151809 218.729426 166.721416 191.832567 
" clip-path="url(#p58d6875f2d)" style="fill: #ffffff"/>
   </g>
   <g id="VertexCollection_1">
    <path d="M 179.430134 163.44315 
C 179.827938 163.44315 180.209503 163.2851 180.490794 163.00381 
C 180.772084 162.722519 180.930134 162.340954 180.930134 161.94315 
C 180.930134 161.545345 180.772084 161.16378 180.490794 160.882489 
C 180.209503 160.601199 179.827938 160.44315 179.430134 160.44315 
C 179.032329 160.44315 178.650764 160.601199 178.369473 160.882489 
C 178.088183 161.16378 177.930134 161.545345 177.930134 161.94315 
C 177.930134 162.340954 178.088183 162.722519 178.369473 163.00381 
C 178.650764 163.2851 179.032329 163.44315 179.430134 163.44315 
z
" clip-path="url(#p58d6875f2d)" style="fill: #fdcab5; stroke: #00ff00; stroke-width: 3"/>
    <path d="M 166.303846 134.994439 
C 166.701651 134.994439 167.083216 134.836389 167.364506 134.555099 
C 167.645797 134.273809 167.803846 133.892244 167.803846 133.494439 
C 167.803846 133.096634 167.645797 132.715069 167.364506 132.433779 
C 167.083216 132.152488 166.701651 131.994439 166.303846 131.994439 
C 165.906041 131.994439 165.524476 132.152488 165.243186 132.433779 
C 164.961895 132.715069 164.803846 133.096634 164.803846 133.494439 
C 164.803846 133.892244 164.961895 134.273809 165.243186 134.555099 
C 165.524476 134.836389 165.906041 134.994439 166.303846 134.994439 
z
" clip-path="url(#p58d6875f2d)" style="fill: #fdcab5; stroke: #ff0000; stroke-width: 3"/>
    <path d="M 131.938779 123.412169 
C 133.927803 123.412169 135.835628 122.621921 137.24208 121.21547 
C 138.648532 119.809018 139.438779 117.901192 139.438779 115.912169 
C 139.438779 113.923146 138.648532 112.01532 137.24208 110.608868 
C 135.835628 109.202416 133.927803 108.412169 131.938779 108.412169 
C 129.949756 108.412169 128.04193 109.202416 126.635478 110.608868 
C 125.229027 112.01532 124.438779 113.923146 124.438779 115.912169 
C 124.438779 117.901192 125.229027 119.809018 126.635478 121.21547 
C 128.04193 122.621921 129.949756 123.412169 131.938779 123.412169 
z
" clip-path="url(#p58d6875f2d)" style="fill: #6b010e; stroke: #00ff00; stroke-width: 3"/>
    <path d="M 89.461221 123.412169 
C 91.450244 123.412169 93.35807 122.621921 94.764522 121.21547 
C 96.170973 119.809018 96.961221 117.901192 96.961221 115.912169 
C 96.961221 113.923146 96.170973 112.01532 94.764522 110.608868 
C 93.35807 109.202416 91.450244 108.412169 89.461221 108.412169 
C 87.472197 108.412169 85.564372 109.202416 84.15792 110.608868 
C 82.751468 112.01532 81.961221 113.923146 81.961221 115.912169 
C 81.961221 117.901192 82.751468 119.809018 84.15792 121.21547 
C 85.564372 122.621921 87.472197 123.412169 89.461221 123.412169 
z
" clip-path="url(#p58d6875f2d)" style="fill: #6b010e; stroke: #00ff00; stroke-width: 3"/>
    <path d="M 55.096154 140.994439 
C 57.085177 140.994439 58.993003 140.204192 60.399455 138.79774 
C 61.805907 137.391288 62.596154 135.483462 62.596154 133.494439 
C 62.596154 131.505416 61.805907 129.59759 60.399455 128.191138 
C 58.993003 126.784686 57.085177 125.994439 55.096154 125.994439 
C 53.107131 125.994439 51.199305 126.784686 49.792853 128.191138 
C 48.386401 129.59759 47.596154 131.505416 47.596154 133.494439 
C 47.596154 135.483462 48.386401 137.391288 49.792853 138.79774 
C 51.199305 140.204192 53.107131 140.994439 55.096154 140.994439 
z
" clip-path="url(#p58d6875f2d)" style="fill: #6b010e; stroke: #00ff00; stroke-width: 3"/>
    <path d="M 41.969866 163.44315 
C 42.367671 163.44315 42.749236 163.2851 43.030527 163.00381 
C 43.311817 162.722519 43.469866 162.340954 43.469866 161.94315 
C 43.469866 161.545345 43.311817 161.16378 43.030527 160.882489 
C 42.749236 160.601199 42.367671 160.44315 41.969866 160.44315 
C 41.572062 160.44315 41.190497 160.601199 40.909206 160.882489 
C 40.627916 161.16378 40.469866 161.545345 40.469866 161.94315 
C 40.469866 162.340954 40.627916 162.722519 40.909206 163.00381 
C 41.190497 163.2851 41.572062 163.44315 41.969866 163.44315 
z
" clip-path="url(#p58d6875f2d)" style="fill: #fdcab5; stroke: #00ff00; stroke-width: 3"/>
    <path d="M 55.096154 191.89186 
C 55.493959 191.89186 55.875524 191.733811 56.156814 191.452521 
C 56.438105 191.17123 56.596154 190.789665 56.596154 190.39186 
C 56.596154 189.994056 56.438105 189.612491 56.156814 189.3312 
C 55.875524 189.04991 55.493959 188.89186 55.096154 188.89186 
C 54.698349 188.89186 54.316784 189.04991 54.035494 189.3312 
C 53.754203 189.612491 53.596154 189.994056 53.596154 190.39186 
C 53.596154 190.789665 53.754203 191.17123 54.035494 191.452521 
C 54.316784 191.733811 54.698349 191.89186 55.096154 191.89186 
z
" clip-path="url(#p58d6875f2d)" style="fill: #fdcab5; stroke: #00ff00; stroke-width: 3"/>
    <path d="M 89.461221 209.474131 
C 89.859025 209.474131 90.240591 209.316081 90.521881 209.034791 
C 90.803171 208.7535 90.961221 208.371935 90.961221 207.974131 
C 90.961221 207.576326 90.803171 207.194761 90.521881 206.91347 
C 90.240591 206.63218 89.859025 206.474131 89.461221 206.474131 
C 89.063416 206.474131 88.681851 206.63218 88.400561 206.91347 
C 88.11927 207.194761 87.961221 207.576326 87.961221 207.974131 
C 87.961221 208.371935 88.11927 208.7535 88.400561 209.034791 
C 88.681851 209.316081 89.063416 209.474131 89.461221 209.474131 
z
" clip-path="url(#p58d6875f2d)" style="fill: #fdcab5; stroke: #00ff00; stroke-width: 3"/>
    <path d="M 131.938779 209.474131 
C 132.336584 209.474131 132.718149 209.316081 132.999439 209.034791 
C 133.28073 208.7535 133.438779 208.371935 133.438779 207.974131 
C 133.438779 207.576326 133.28073 207.194761 132.999439 206.91347 
C 132.718149 206.63218 132.336584 206.474131 131.938779 206.474131 
C 131.540975 206.474131 131.159409 206.63218 130.878119 206.91347 
C 130.596829 207.194761 130.438779 207.576326 130.438779 207.974131 
C 130.438779 208.371935 130.596829 208.7535 130.878119 209.034791 
C 131.159409 209.316081 131.540975 209.474131 131.938779 209.474131 
z
" clip-path="url(#p58d6875f2d)" style="fill: #fdcab5; stroke: #00ff00; stroke-width: 3"/>
    <path d="M 166.303846 191.89186 
C 166.701651 191.89186 167.083216 191.733811 167.364506 191.452521 
C 167.645797 191.17123 167.803846 190.789665 167.803846 190.39186 
C 167.803846 189.994056 167.645797 189.612491 167.364506 189.3312 
C 167.083216 189.04991 166.701651 188.89186 166.303846 188.89186 
C 165.906041 188.89186 165.524476 189.04991 165.243186 189.3312 
C 164.961895 189.612491 164.803846 189.994056 164.803846 190.39186 
C 164.803846 190.789665 164.961895 191.17123 165.243186 191.452521 
C 165.524476 191.733811 165.906041 191.89186 166.303846 191.89186 
z
" clip-path="url(#p58d6875f2d)" style="fill: #fdcab5; stroke: #00ff00; stroke-width: 3"/>
   </g>
   <g id="matplotlib.axis_1"/>
   <g id="matplotlib.axis_2"/>
  </g>
  <g id="axes_2">
   <g id="patch_3">
    <path d="M 27 356.027586 
L 194.4 356.027586 
L 194.4 241.324138 
L 27 241.324138 
z
" style="fill: #ffffff"/>
   </g>
   <g id="EdgeCollection_2">
    <path d="M 180.729172 299.425862 
C 206.160329 312.295577 206.160329 285.056147 180.729172 297.925862 
C 206.160329 285.056147 206.160329 312.295577 180.729172 299.425862 
" clip-path="url(#p021d0ad2d2)" style="fill: #ffffff"/>
    <path d="M 178.791787 297.31847 
L 166.942193 272.121267 
" clip-path="url(#p021d0ad2d2)" style="fill: #ffffff"/>
    <path d="M 178.343157 297.642188 
L 133.025755 254.546993 
" clip-path="url(#p021d0ad2d2)" style="fill: #ffffff"/>
    <path d="M 178.089556 298.00292 
L 96.164109 256.878031 
" clip-path="url(#p021d0ad2d2)" style="fill: #ffffff"/>
    <path d="M 177.96656 298.347301 
L 62.414022 272.406678 
" clip-path="url(#p021d0ad2d2)" style="fill: #ffffff"/>
    <path d="M 177.930134 298.675862 
L 43.469866 298.675862 
" clip-path="url(#p021d0ad2d2)" style="fill: #ffffff"/>
    <path d="M 177.96656 299.004423 
L 56.559728 326.259288 
" clip-path="url(#p021d0ad2d2)" style="fill: #ffffff"/>
    <path d="M 178.089556 299.348804 
L 90.801798 343.165463 
" clip-path="url(#p021d0ad2d2)" style="fill: #ffffff"/>
    <path d="M 178.343157 299.709537 
L 137.37366 338.670033 
" clip-path="url(#p021d0ad2d2)" style="fill: #ffffff"/>
    <path d="M 178.791787 300.033254 
L 166.942193 325.230457 
" clip-path="url(#p021d0ad2d2)" style="fill: #ffffff"/>
    <path d="M 167.757593 270.394256 
C 194.952061 261.859957 175.939423 242.35339 166.71062 269.320083 
C 175.939423 242.35339 194.952061 261.859957 167.757593 270.394256 
" clip-path="url(#p021d0ad2d2)" style="fill: #ffffff"/>
    <path d="M 164.963268 270.090933 
L 133.279357 254.186261 
" clip-path="url(#p021d0ad2d2)" style="fill: #ffffff"/>
    <path d="M 164.840272 270.435315 
L 96.779089 255.156122 
" clip-path="url(#p021d0ad2d2)" style="fill: #ffffff"/>
    <path d="M 164.803846 270.763875 
L 62.596154 270.763875 
" clip-path="url(#p021d0ad2d2)" style="fill: #ffffff"/>
    <path d="M 164.840272 271.092436 
L 43.43344 298.347301 
" clip-path="url(#p021d0ad2d2)" style="fill: #ffffff"/>
    <path d="M 164.963268 271.436818 
L 56.436732 325.914907 
" clip-path="url(#p021d0ad2d2)" style="fill: #ffffff"/>
    <path d="M 165.21687 271.79755 
L 90.548197 342.804731 
" clip-path="url(#p021d0ad2d2)" style="fill: #ffffff"/>
    <path d="M 165.665499 272.121267 
L 135.130512 337.051444 
" clip-path="url(#p021d0ad2d2)" style="fill: #ffffff"/>
    <path d="M 166.303846 272.263875 
L 166.303846 325.087849 
" clip-path="url(#p021d0ad2d2)" style="fill: #ffffff"/>
    <path d="M 132.968037 252.42216 
C 151.353594 230.642705 124.847806 224.363394 131.508437 252.076375 
C 124.847806 224.363394 151.353594 230.642705 132.968037 252.42216 
" clip-path="url(#p021d0ad2d2)" style="fill: #ffffff"/>
    <path d="M 130.438779 253.513319 
L 96.961221 253.513319 
" clip-path="url(#p021d0ad2d2)" style="fill: #ffffff"/>
    <path d="M 130.475206 253.841879 
L 62.414022 269.121072 
" clip-path="url(#p021d0ad2d2)" style="stroke: #000000; stroke-width: 2"/>
    <path d="M 130.598202 254.186261 
L 43.310444 298.00292 
" clip-path="url(#p021d0ad2d2)" style="fill: #ffffff"/>
    <path d="M 130.851803 254.546993 
L 56.18313 325.554174 
" clip-path="url(#p021d0ad2d2)" style="fill: #ffffff"/>
    <path d="M 131.300433 254.870711 
L 90.099567 342.481013 
" clip-path="url(#p021d0ad2d2)" style="fill: #ffffff"/>
    <path d="M 131.938779 255.013319 
L 131.938779 336.338406 
" clip-path="url(#p021d0ad2d2)" style="stroke: #000000; stroke-width: 0.508642"/>
    <path d="M 132.577126 254.870711 
L 165.665499 325.230457 
" clip-path="url(#p021d0ad2d2)" style="fill: #ffffff"/>
    <path d="M 91.612932 246.328603 
C 96.552194 224.363394 70.046406 230.642705 84.31493 248.057524 
C 70.046406 230.642705 96.552194 224.363394 91.612932 246.328603 
" clip-path="url(#p021d0ad2d2)" style="fill: #ffffff"/>
    <path d="M 82.758332 256.878031 
L 61.799042 267.399163 
" clip-path="url(#p021d0ad2d2)" style="stroke: #000000; stroke-width: 0.854321"/>
    <path d="M 84.02634 258.681691 
L 43.056843 297.642188 
" clip-path="url(#p021d0ad2d2)" style="fill: #ffffff"/>
    <path d="M 86.269488 260.30028 
L 55.734501 325.230457 
" clip-path="url(#p021d0ad2d2)" style="fill: #ffffff"/>
    <path d="M 89.461221 261.013319 
L 89.461221 342.338406 
" clip-path="url(#p021d0ad2d2)" style="stroke: #000000; stroke-width: 1.209877"/>
    <path d="M 92.652953 260.30028 
L 128.747047 337.051444 
" clip-path="url(#p021d0ad2d2)" style="fill: #ffffff"/>
    <path d="M 94.896101 258.681691 
L 165.21687 325.554174 
" clip-path="url(#p021d0ad2d2)" style="stroke: #000000; stroke-width: 0.8"/>
    <path d="M 53.062283 263.544916 
C 45.460577 242.35339 26.447939 261.859957 47.827417 268.915779 
C 26.447939 261.859957 45.460577 242.35339 53.062283 263.544916 
" clip-path="url(#p021d0ad2d2)" style="fill: #ffffff"/>
    <path d="M 51.904421 277.550836 
L 42.608213 297.31847 
" clip-path="url(#p021d0ad2d2)" style="fill: #ffffff"/>
    <path d="M 55.096154 278.263875 
L 55.096154 325.087849 
" clip-path="url(#p021d0ad2d2)" style="fill: #ffffff"/>
    <path d="M 58.287887 277.550836 
L 88.822874 342.481013 
" clip-path="url(#p021d0ad2d2)" style="fill: #ffffff"/>
    <path d="M 60.531034 275.932248 
L 126.503899 338.670033 
" clip-path="url(#p021d0ad2d2)" style="stroke: #000000; stroke-width: 0.849383"/>
    <path d="M 61.799042 274.128587 
L 164.963268 325.914907 
" clip-path="url(#p021d0ad2d2)" style="fill: #ffffff"/>
    <path d="M 40.670828 297.925862 
C 15.239671 285.056147 15.239671 312.295577 40.670828 299.425862 
C 15.239671 312.295577 15.239671 285.056147 40.670828 297.925862 
" clip-path="url(#p021d0ad2d2)" style="fill: #ffffff"/>
    <path d="M 42.608213 300.033254 
L 54.457807 325.230457 
" clip-path="url(#p021d0ad2d2)" style="fill: #ffffff"/>
    <path d="M 43.056843 299.709537 
L 88.374245 342.804731 
" clip-path="url(#p021d0ad2d2)" style="fill: #ffffff"/>
    <path d="M 43.310444 299.348804 
L 125.235891 340.473694 
" clip-path="url(#p021d0ad2d2)" style="fill: #ffffff"/>
    <path d="M 43.43344 299.004423 
L 164.840272 326.259288 
" clip-path="url(#p021d0ad2d2)" style="fill: #ffffff"/>
    <path d="M 53.642407 326.957468 
C 26.447939 335.491767 45.460577 354.998334 54.68938 328.031641 
C 45.460577 354.998334 26.447939 335.491767 53.642407 326.957468 
" clip-path="url(#p021d0ad2d2)" style="fill: #ffffff"/>
    <path d="M 56.436732 327.260791 
L 88.120643 343.165463 
" clip-path="url(#p021d0ad2d2)" style="fill: #ffffff"/>
    <path d="M 56.559728 326.91641 
L 124.620911 342.195603 
" clip-path="url(#p021d0ad2d2)" style="fill: #ffffff"/>
    <path d="M 56.596154 326.587849 
L 164.803846 326.587849 
" clip-path="url(#p021d0ad2d2)" style="fill: #ffffff"/>
    <path d="M 88.431963 344.929565 
C 70.046406 366.70902 96.552194 372.98833 89.891563 345.275349 
C 96.552194 372.98833 70.046406 366.70902 88.431963 344.929565 
" clip-path="url(#p021d0ad2d2)" style="fill: #ffffff"/>
    <path d="M 90.961221 343.838406 
L 124.438779 343.838406 
" clip-path="url(#p021d0ad2d2)" style="stroke: #000000; stroke-width: 0.538272"/>
    <path d="M 90.924794 343.509845 
L 164.840272 326.91641 
" clip-path="url(#p021d0ad2d2)" style="fill: #ffffff"/>
    <path d="M 129.787068 351.023121 
C 124.847806 372.98833 151.353594 366.70902 137.08507 349.2942 
C 151.353594 366.70902 124.847806 372.98833 129.787068 351.023121 
" clip-path="url(#p021d0ad2d2)" style="fill: #ffffff"/>
    <path d="M 138.641668 340.473694 
L 164.963268 327.260791 
" clip-path="url(#p021d0ad2d2)" style="fill: #ffffff"/>
    <path d="M 166.71062 328.031641 
C 175.939423 354.998334 194.952061 335.491767 167.757593 326.957468 
C 194.952061 335.491767 175.939423 354.998334 166.71062 328.031641 
" clip-path="url(#p021d0ad2d2)" style="fill: #ffffff"/>
   </g>
   <g id="VertexCollection_2">
    <path d="M 179.430134 300.175862 
C 179.827938 300.175862 180.209503 300.017813 180.490794 299.736522 
C 180.772084 299.455232 180.930134 299.073667 180.930134 298.675862 
C 180.930134 298.278057 180.772084 297.896492 180.490794 297.615202 
C 180.209503 297.333912 179.827938 297.175862 179.430134 297.175862 
C 179.032329 297.175862 178.650764 297.333912 178.369473 297.615202 
C 178.088183 297.896492 177.930134 298.278057 177.930134 298.675862 
C 177.930134 299.073667 178.088183 299.455232 178.369473 299.736522 
C 178.650764 300.017813 179.032329 300.175862 179.430134 300.175862 
z
" clip-path="url(#p021d0ad2d2)" style="fill: #fdcab5; stroke: #00ff00; stroke-width: 3"/>
    <path d="M 166.303846 272.263875 
C 166.701651 272.263875 167.083216 272.105826 167.364506 271.824535 
C 167.645797 271.543245 167.803846 271.16168 167.803846 270.763875 
C 167.803846 270.36607 167.645797 269.984505 167.364506 269.703215 
C 167.083216 269.421925 166.701651 269.263875 166.303846 269.263875 
C 165.906041 269.263875 165.524476 269.421925 165.243186 269.703215 
C 164.961895 269.984505 164.803846 270.36607 164.803846 270.763875 
C 164.803846 271.16168 164.961895 271.543245 165.243186 271.824535 
C 165.524476 272.105826 165.906041 272.263875 166.303846 272.263875 
z
" clip-path="url(#p021d0ad2d2)" style="fill: #fdcab5; stroke: #ff0000; stroke-width: 3"/>
    <path d="M 131.938779 255.013319 
C 132.336584 255.013319 132.718149 254.855269 132.999439 254.573979 
C 133.28073 254.292688 133.438779 253.911123 133.438779 253.513319 
C 133.438779 253.115514 133.28073 252.733949 132.999439 252.452658 
C 132.718149 252.171368 132.336584 252.013319 131.938779 252.013319 
C 131.540975 252.013319 131.159409 252.171368 130.878119 252.452658 
C 130.596829 252.733949 130.438779 253.115514 130.438779 253.513319 
C 130.438779 253.911123 130.596829 254.292688 130.878119 254.573979 
C 131.159409 254.855269 131.540975 255.013319 131.938779 255.013319 
z
" clip-path="url(#p021d0ad2d2)" style="fill: #fdcab5; stroke: #00ff00; stroke-width: 3"/>
    <path d="M 89.461221 261.013319 
C 91.450244 261.013319 93.35807 260.223071 94.764522 258.816619 
C 96.170973 257.410168 96.961221 255.502342 96.961221 253.513319 
C 96.961221 251.524295 96.170973 249.616469 94.764522 248.210018 
C 93.35807 246.803566 91.450244 246.013319 89.461221 246.013319 
C 87.472197 246.013319 85.564372 246.803566 84.15792 248.210018 
C 82.751468 249.616469 81.961221 251.524295 81.961221 253.513319 
C 81.961221 255.502342 82.751468 257.410168 84.15792 258.816619 
C 85.564372 260.223071 87.472197 261.013319 89.461221 261.013319 
z
" clip-path="url(#p021d0ad2d2)" style="fill: #6b010e; stroke: #00ff00; stroke-width: 3"/>
    <path d="M 55.096154 278.263875 
C 57.085177 278.263875 58.993003 277.473628 60.399455 276.067176 
C 61.805907 274.660724 62.596154 272.752898 62.596154 270.763875 
C 62.596154 268.774852 61.805907 266.867026 60.399455 265.460574 
C 58.993003 264.054122 57.085177 263.263875 55.096154 263.263875 
C 53.107131 263.263875 51.199305 264.054122 49.792853 265.460574 
C 48.386401 266.867026 47.596154 268.774852 47.596154 270.763875 
C 47.596154 272.752898 48.386401 274.660724 49.792853 276.067176 
C 51.199305 277.473628 53.107131 278.263875 55.096154 278.263875 
z
" clip-path="url(#p021d0ad2d2)" style="fill: #6b010e; stroke: #00ff00; stroke-width: 3"/>
    <path d="M 41.969866 300.175862 
C 42.367671 300.175862 42.749236 300.017813 43.030527 299.736522 
C 43.311817 299.455232 43.469866 299.073667 43.469866 298.675862 
C 43.469866 298.278057 43.311817 297.896492 43.030527 297.615202 
C 42.749236 297.333912 42.367671 297.175862 41.969866 297.175862 
C 41.572062 297.175862 41.190497 297.333912 40.909206 297.615202 
C 40.627916 297.896492 40.469866 298.278057 40.469866 298.675862 
C 40.469866 299.073667 40.627916 299.455232 40.909206 299.736522 
C 41.190497 300.017813 41.572062 300.175862 41.969866 300.175862 
z
" clip-path="url(#p021d0ad2d2)" style="fill: #fdcab5; stroke: #00ff00; stroke-width: 3"/>
    <path d="M 55.096154 328.087849 
C 55.493959 328.087849 55.875524 327.9298 56.156814 327.648509 
C 56.438105 327.367219 56.596154 326.985654 56.596154 326.587849 
C 56.596154 326.190044 56.438105 325.808479 56.156814 325.527189 
C 55.875524 325.245898 55.493959 325.087849 55.096154 325.087849 
C 54.698349 325.087849 54.316784 325.245898 54.035494 325.527189 
C 53.754203 325.808479 53.596154 326.190044 53.596154 326.587849 
C 53.596154 326.985654 53.754203 327.367219 54.035494 327.648509 
C 54.316784 327.9298 54.698349 328.087849 55.096154 328.087849 
z
" clip-path="url(#p021d0ad2d2)" style="fill: #fdcab5; stroke: #00ff00; stroke-width: 3"/>
    <path d="M 89.461221 345.338406 
C 89.859025 345.338406 90.240591 345.180356 90.521881 344.899066 
C 90.803171 344.617775 90.961221 344.23621 90.961221 343.838406 
C 90.961221 343.440601 90.803171 343.059036 90.521881 342.777745 
C 90.240591 342.496455 89.859025 342.338406 89.461221 342.338406 
C 89.063416 342.338406 88.681851 342.496455 88.400561 342.777745 
C 88.11927 343.059036 87.961221 343.440601 87.961221 343.838406 
C 87.961221 344.23621 88.11927 344.617775 88.400561 344.899066 
C 88.681851 345.180356 89.063416 345.338406 89.461221 345.338406 
z
" clip-path="url(#p021d0ad2d2)" style="fill: #fdcab5; stroke: #00ff00; stroke-width: 3"/>
    <path d="M 131.938779 351.338406 
C 133.927803 351.338406 135.835628 350.548158 137.24208 349.141706 
C 138.648532 347.735255 139.438779 345.827429 139.438779 343.838406 
C 139.438779 341.849382 138.648532 339.941557 137.24208 338.535105 
C 135.835628 337.128653 133.927803 336.338406 131.938779 336.338406 
C 129.949756 336.338406 128.04193 337.128653 126.635478 338.535105 
C 125.229027 339.941557 124.438779 341.849382 124.438779 343.838406 
C 124.438779 345.827429 125.229027 347.735255 126.635478 349.141706 
C 128.04193 350.548158 129.949756 351.338406 131.938779 351.338406 
z
" clip-path="url(#p021d0ad2d2)" style="fill: #6b010e; stroke: #00ff00; stroke-width: 3"/>
    <path d="M 166.303846 328.087849 
C 166.701651 328.087849 167.083216 327.9298 167.364506 327.648509 
C 167.645797 327.367219 167.803846 326.985654 167.803846 326.587849 
C 167.803846 326.190044 167.645797 325.808479 167.364506 325.527189 
C 167.083216 325.245898 166.701651 325.087849 166.303846 325.087849 
C 165.906041 325.087849 165.524476 325.245898 165.243186 325.527189 
C 164.961895 325.808479 164.803846 326.190044 164.803846 326.587849 
C 164.803846 326.985654 164.961895 327.367219 165.243186 327.648509 
C 165.524476 327.9298 165.906041 328.087849 166.303846 328.087849 
z
" clip-path="url(#p021d0ad2d2)" style="fill: #fdcab5; stroke: #00ff00; stroke-width: 3"/>
   </g>
   <g id="matplotlib.axis_3"/>
   <g id="matplotlib.axis_4"/>
  </g>
  <g id="axes_3">
   <g id="patch_4">
    <path d="M 27 493.671724 
L 194.4 493.671724 
L 194.4 378.968276 
L 27 378.968276 
z
" style="fill: #ffffff"/>
   </g>
   <g id="EdgeCollection_3">
    <path d="M 180.729172 437.981426 
C 206.160329 450.851141 206.160329 423.611711 180.729172 436.481426 
C 206.160329 423.611711 206.160329 450.851141 180.729172 437.981426 
" clip-path="url(#p6c6834705c)" style="fill: #ffffff"/>
    <path d="M 178.8017 435.869416 
L 166.93228 410.144725 
" clip-path="url(#p6c6834705c)" style="fill: #ffffff"/>
    <path d="M 178.353042 436.187455 
L 137.324236 396.420297 
" clip-path="url(#p6c6834705c)" style="fill: #ffffff"/>
    <path d="M 178.094764 436.548207 
L 96.138071 394.616535 
" clip-path="url(#p6c6834705c)" style="fill: #ffffff"/>
    <path d="M 177.967921 436.896858 
L 62.407216 410.45555 
" clip-path="url(#p6c6834705c)" style="fill: #ffffff"/>
    <path d="M 177.930134 437.231426 
L 43.469866 437.231426 
" clip-path="url(#p6c6834705c)" style="fill: #ffffff"/>
    <path d="M 177.967921 437.565993 
L 56.558366 465.345569 
" clip-path="url(#p6c6834705c)" style="fill: #ffffff"/>
    <path d="M 178.094764 437.914644 
L 90.796591 482.579188 
" clip-path="url(#p6c6834705c)" style="fill: #ffffff"/>
    <path d="M 178.353042 438.275396 
L 133.015871 482.218436 
" clip-path="url(#p6c6834705c)" style="fill: #ffffff"/>
    <path d="M 178.8017 438.593435 
L 166.93228 464.318126 
" clip-path="url(#p6c6834705c)" style="fill: #ffffff"/>
    <path d="M 167.760319 408.423987 
C 195.017905 400.093481 176.151809 380.445149 166.721416 407.342008 
C 176.151809 380.445149 195.017905 400.093481 167.760319 408.423987 
" clip-path="url(#p6c6834705c)" style="fill: #ffffff"/>
    <path d="M 164.968476 408.099497 
L 138.615629 394.616535 
" clip-path="url(#p6c6834705c)" style="fill: #ffffff"/>
    <path d="M 164.841634 408.448148 
L 96.772282 392.87328 
" clip-path="url(#p6c6834705c)" style="fill: #ffffff"/>
    <path d="M 164.803846 408.782715 
L 62.596154 408.782715 
" clip-path="url(#p6c6834705c)" style="fill: #ffffff"/>
    <path d="M 164.841634 409.117282 
L 43.432079 436.896858 
" clip-path="url(#p6c6834705c)" style="fill: #ffffff"/>
    <path d="M 164.968476 409.465933 
L 56.431524 464.996918 
" clip-path="url(#p6c6834705c)" style="fill: #ffffff"/>
    <path d="M 165.226755 409.826685 
L 90.538312 482.218436 
" clip-path="url(#p6c6834705c)" style="fill: #ffffff"/>
    <path d="M 165.675412 410.144725 
L 132.567213 481.900396 
" clip-path="url(#p6c6834705c)" style="fill: #ffffff"/>
    <path d="M 166.303846 410.282715 
L 166.303846 464.180136 
" clip-path="url(#p6c6834705c)" style="fill: #ffffff"/>
    <path d="M 137.105982 385.764452 
C 151.441274 368.404552 124.959793 362.023506 129.814673 384.007519 
C 124.959793 362.023506 151.441274 368.404552 137.105982 385.764452 
" clip-path="url(#p6c6834705c)" style="fill: #ffffff"/>
    <path d="M 124.438779 391.200445 
L 96.961221 391.200445 
" clip-path="url(#p6c6834705c)" style="stroke: #000000; stroke-width: 0.937198"/>
    <path d="M 124.627718 392.87328 
L 62.407216 407.109879 
" clip-path="url(#p6c6834705c)" style="stroke: #000000; stroke-width: 2"/>
    <path d="M 125.261929 394.616535 
L 43.305236 436.548207 
" clip-path="url(#p6c6834705c)" style="fill: #ffffff"/>
    <path d="M 126.553323 396.420297 
L 56.173245 464.636166 
" clip-path="url(#p6c6834705c)" style="fill: #ffffff"/>
    <path d="M 128.79661 398.010494 
L 90.089655 481.900396 
" clip-path="url(#p6c6834705c)" style="fill: #ffffff"/>
    <path d="M 131.938779 398.700445 
L 131.938779 481.762406 
" clip-path="url(#p6c6834705c)" style="stroke: #000000; stroke-width: 0.792271"/>
    <path d="M 135.080949 398.010494 
L 165.675412 464.318126 
" clip-path="url(#p6c6834705c)" style="fill: #ffffff"/>
    <path d="M 91.585327 384.007519 
C 96.440207 362.023506 69.958726 368.404552 84.294018 385.764452 
C 69.958726 368.404552 96.440207 362.023506 91.585327 384.007519 
" clip-path="url(#p6c6834705c)" style="fill: #ffffff"/>
    <path d="M 82.784371 394.616535 
L 61.773004 405.366624 
" clip-path="url(#p6c6834705c)" style="fill: #ffffff"/>
    <path d="M 84.075764 396.420297 
L 43.046958 436.187455 
" clip-path="url(#p6c6834705c)" style="fill: #ffffff"/>
    <path d="M 86.319051 398.010494 
L 55.724588 464.318126 
" clip-path="url(#p6c6834705c)" style="fill: #ffffff"/>
    <path d="M 89.461221 398.700445 
L 89.461221 481.762406 
" clip-path="url(#p6c6834705c)" style="stroke: #000000; stroke-width: 0.830918"/>
    <path d="M 92.60339 398.010494 
L 131.310345 481.900396 
" clip-path="url(#p6c6834705c)" style="fill: #ffffff"/>
    <path d="M 94.846677 396.420297 
L 165.226755 464.636166 
" clip-path="url(#p6c6834705c)" style="stroke: #000000; stroke-width: 0.879227"/>
    <path d="M 53.008306 401.579182 
C 45.248191 380.445149 26.382095 400.093481 47.813787 406.989078 
C 26.382095 400.093481 45.248191 380.445149 53.008306 401.579182 
" clip-path="url(#p6c6834705c)" style="fill: #ffffff"/>
    <path d="M 51.953985 415.592764 
L 42.5983 435.869416 
" clip-path="url(#p6c6834705c)" style="fill: #ffffff"/>
    <path d="M 55.096154 416.282715 
L 55.096154 464.180136 
" clip-path="url(#p6c6834705c)" style="fill: #ffffff"/>
    <path d="M 58.238323 415.592764 
L 88.832787 481.900396 
" clip-path="url(#p6c6834705c)" style="fill: #ffffff"/>
    <path d="M 60.481611 414.002567 
L 130.861688 482.218436 
" clip-path="url(#p6c6834705c)" style="stroke: #000000; stroke-width: 0.879227"/>
    <path d="M 61.773004 412.198805 
L 164.968476 464.996918 
" clip-path="url(#p6c6834705c)" style="stroke: #000000; stroke-width: 0.908213"/>
    <path d="M 40.670828 436.481426 
C 15.239671 423.611711 15.239671 450.851141 40.670828 437.981426 
C 15.239671 450.851141 15.239671 423.611711 40.670828 436.481426 
" clip-path="url(#p6c6834705c)" style="fill: #ffffff"/>
    <path d="M 42.5983 438.593435 
L 54.46772 464.318126 
" clip-path="url(#p6c6834705c)" style="fill: #ffffff"/>
    <path d="M 43.046958 438.275396 
L 88.384129 482.218436 
" clip-path="url(#p6c6834705c)" style="fill: #ffffff"/>
    <path d="M 43.305236 437.914644 
L 130.603409 482.579188 
" clip-path="url(#p6c6834705c)" style="fill: #ffffff"/>
    <path d="M 43.432079 437.565993 
L 164.841634 465.345569 
" clip-path="url(#p6c6834705c)" style="fill: #ffffff"/>
    <path d="M 53.639681 466.038864 
C 26.382095 474.36937 45.248191 494.017702 54.678584 467.120843 
C 45.248191 494.017702 26.382095 474.36937 53.639681 466.038864 
" clip-path="url(#p6c6834705c)" style="fill: #ffffff"/>
    <path d="M 56.431524 466.363354 
L 88.125851 482.579188 
" clip-path="url(#p6c6834705c)" style="fill: #ffffff"/>
    <path d="M 56.558366 466.014703 
L 130.476567 482.927839 
" clip-path="url(#p6c6834705c)" style="fill: #ffffff"/>
    <path d="M 56.596154 465.680136 
L 164.803846 465.680136 
" clip-path="url(#p6c6834705c)" style="fill: #ffffff"/>
    <path d="M 88.42778 484.349605 
C 69.958726 506.058299 96.440207 512.439345 89.886042 484.700991 
C 96.440207 512.439345 69.958726 506.058299 88.42778 484.349605 
" clip-path="url(#p6c6834705c)" style="fill: #ffffff"/>
    <path d="M 90.961221 483.262406 
L 130.438779 483.262406 
" clip-path="url(#p6c6834705c)" style="fill: #ffffff"/>
    <path d="M 90.923433 482.927839 
L 164.841634 466.014703 
" clip-path="url(#p6c6834705c)" style="fill: #ffffff"/>
    <path d="M 131.513958 484.700991 
C 124.959793 512.439345 151.441274 506.058299 132.97222 484.349605 
C 151.441274 506.058299 124.959793 512.439345 131.513958 484.700991 
" clip-path="url(#p6c6834705c)" style="fill: #ffffff"/>
    <path d="M 133.274149 482.579188 
L 164.968476 466.363354 
" clip-path="url(#p6c6834705c)" style="fill: #ffffff"/>
    <path d="M 166.721416 467.120843 
C 176.151809 494.017702 195.017905 474.36937 167.760319 466.038864 
C 195.017905 474.36937 176.151809 494.017702 166.721416 467.120843 
" clip-path="url(#p6c6834705c)" style="fill: #ffffff"/>
   </g>
   <g id="VertexCollection_3">
    <path d="M 179.430134 438.731426 
C 179.827938 438.731426 180.209503 438.573376 180.490794 438.292086 
C 180.772084 438.010795 180.930134 437.62923 180.930134 437.231426 
C 180.930134 436.833621 180.772084 436.452056 180.490794 436.170765 
C 180.209503 435.889475 179.827938 435.731426 179.430134 435.731426 
C 179.032329 435.731426 178.650764 435.889475 178.369473 436.170765 
C 178.088183 436.452056 177.930134 436.833621 177.930134 437.231426 
C 177.930134 437.62923 178.088183 438.010795 178.369473 438.292086 
C 178.650764 438.573376 179.032329 438.731426 179.430134 438.731426 
z
" clip-path="url(#p6c6834705c)" style="fill: #fdcab5; stroke: #00ff00; stroke-width: 3"/>
    <path d="M 166.303846 410.282715 
C 166.701651 410.282715 167.083216 410.124665 167.364506 409.843375 
C 167.645797 409.562085 167.803846 409.180519 167.803846 408.782715 
C 167.803846 408.38491 167.645797 408.003345 167.364506 407.722055 
C 167.083216 407.440764 166.701651 407.282715 166.303846 407.282715 
C 165.906041 407.282715 165.524476 407.440764 165.243186 407.722055 
C 164.961895 408.003345 164.803846 408.38491 164.803846 408.782715 
C 164.803846 409.180519 164.961895 409.562085 165.243186 409.843375 
C 165.524476 410.124665 165.906041 410.282715 166.303846 410.282715 
z
" clip-path="url(#p6c6834705c)" style="fill: #fdcab5; stroke: #ff0000; stroke-width: 3"/>
    <path d="M 131.938779 398.700445 
C 133.927803 398.700445 135.835628 397.910197 137.24208 396.503746 
C 138.648532 395.097294 139.438779 393.189468 139.438779 391.200445 
C 139.438779 389.211421 138.648532 387.303596 137.24208 385.897144 
C 135.835628 384.490692 133.927803 383.700445 131.938779 383.700445 
C 129.949756 383.700445 128.04193 384.490692 126.635478 385.897144 
C 125.229027 387.303596 124.438779 389.211421 124.438779 391.200445 
C 124.438779 393.189468 125.229027 395.097294 126.635478 396.503746 
C 128.04193 397.910197 129.949756 398.700445 131.938779 398.700445 
z
" clip-path="url(#p6c6834705c)" style="fill: #6b010e; stroke: #00ff00; stroke-width: 3"/>
    <path d="M 89.461221 398.700445 
C 91.450244 398.700445 93.35807 397.910197 94.764522 396.503746 
C 96.170973 395.097294 96.961221 393.189468 96.961221 391.200445 
C 96.961221 389.211421 96.170973 387.303596 94.764522 385.897144 
C 93.35807 384.490692 91.450244 383.700445 89.461221 383.700445 
C 87.472197 383.700445 85.564372 384.490692 84.15792 385.897144 
C 82.751468 387.303596 81.961221 389.211421 81.961221 391.200445 
C 81.961221 393.189468 82.751468 395.097294 84.15792 396.503746 
C 85.564372 397.910197 87.472197 398.700445 89.461221 398.700445 
z
" clip-path="url(#p6c6834705c)" style="fill: #6b010e; stroke: #00ff00; stroke-width: 3"/>
    <path d="M 55.096154 416.282715 
C 57.085177 416.282715 58.993003 415.492467 60.399455 414.086016 
C 61.805907 412.679564 62.596154 410.771738 62.596154 408.782715 
C 62.596154 406.793692 61.805907 404.885866 60.399455 403.479414 
C 58.993003 402.072962 57.085177 401.282715 55.096154 401.282715 
C 53.107131 401.282715 51.199305 402.072962 49.792853 403.479414 
C 48.386401 404.885866 47.596154 406.793692 47.596154 408.782715 
C 47.596154 410.771738 48.386401 412.679564 49.792853 414.086016 
C 51.199305 415.492467 53.107131 416.282715 55.096154 416.282715 
z
" clip-path="url(#p6c6834705c)" style="fill: #6b010e; stroke: #00ff00; stroke-width: 3"/>
    <path d="M 41.969866 438.731426 
C 42.367671 438.731426 42.749236 438.573376 43.030527 438.292086 
C 43.311817 438.010795 43.469866 437.62923 43.469866 437.231426 
C 43.469866 436.833621 43.311817 436.452056 43.030527 436.170765 
C 42.749236 435.889475 42.367671 435.731426 41.969866 435.731426 
C 41.572062 435.731426 41.190497 435.889475 40.909206 436.170765 
C 40.627916 436.452056 40.469866 436.833621 40.469866 437.231426 
C 40.469866 437.62923 40.627916 438.010795 40.909206 438.292086 
C 41.190497 438.573376 41.572062 438.731426 41.969866 438.731426 
z
" clip-path="url(#p6c6834705c)" style="fill: #fdcab5; stroke: #00ff00; stroke-width: 3"/>
    <path d="M 55.096154 467.180136 
C 55.493959 467.180136 55.875524 467.022087 56.156814 466.740796 
C 56.438105 466.459506 56.596154 466.077941 56.596154 465.680136 
C 56.596154 465.282332 56.438105 464.900766 56.156814 464.619476 
C 55.875524 464.338186 55.493959 464.180136 55.096154 464.180136 
C 54.698349 464.180136 54.316784 464.338186 54.035494 464.619476 
C 53.754203 464.900766 53.596154 465.282332 53.596154 465.680136 
C 53.596154 466.077941 53.754203 466.459506 54.035494 466.740796 
C 54.316784 467.022087 54.698349 467.180136 55.096154 467.180136 
z
" clip-path="url(#p6c6834705c)" style="fill: #fdcab5; stroke: #00ff00; stroke-width: 3"/>
    <path d="M 89.461221 484.762406 
C 89.859025 484.762406 90.240591 484.604357 90.521881 484.323067 
C 90.803171 484.041776 90.961221 483.660211 90.961221 483.262406 
C 90.961221 482.864602 90.803171 482.483037 90.521881 482.201746 
C 90.240591 481.920456 89.859025 481.762406 89.461221 481.762406 
C 89.063416 481.762406 88.681851 481.920456 88.400561 482.201746 
C 88.11927 482.483037 87.961221 482.864602 87.961221 483.262406 
C 87.961221 483.660211 88.11927 484.041776 88.400561 484.323067 
C 88.681851 484.604357 89.063416 484.762406 89.461221 484.762406 
z
" clip-path="url(#p6c6834705c)" style="fill: #fdcab5; stroke: #00ff00; stroke-width: 3"/>
    <path d="M 131.938779 484.762406 
C 132.336584 484.762406 132.718149 484.604357 132.999439 484.323067 
C 133.28073 484.041776 133.438779 483.660211 133.438779 483.262406 
C 133.438779 482.864602 133.28073 482.483037 132.999439 482.201746 
C 132.718149 481.920456 132.336584 481.762406 131.938779 481.762406 
C 131.540975 481.762406 131.159409 481.920456 130.878119 482.201746 
C 130.596829 482.483037 130.438779 482.864602 130.438779 483.262406 
C 130.438779 483.660211 130.596829 484.041776 130.878119 484.323067 
C 131.159409 484.604357 131.540975 484.762406 131.938779 484.762406 
z
" clip-path="url(#p6c6834705c)" style="fill: #fdcab5; stroke: #00ff00; stroke-width: 3"/>
    <path d="M 166.303846 467.180136 
C 166.701651 467.180136 167.083216 467.022087 167.364506 466.740796 
C 167.645797 466.459506 167.803846 466.077941 167.803846 465.680136 
C 167.803846 465.282332 167.645797 464.900766 167.364506 464.619476 
C 167.083216 464.338186 166.701651 464.180136 166.303846 464.180136 
C 165.906041 464.180136 165.524476 464.338186 165.243186 464.619476 
C 164.961895 464.900766 164.803846 465.282332 164.803846 465.680136 
C 164.803846 466.077941 164.961895 466.459506 165.243186 466.740796 
C 165.524476 467.022087 165.906041 467.180136 166.303846 467.180136 
z
" clip-path="url(#p6c6834705c)" style="fill: #fdcab5; stroke: #00ff00; stroke-width: 3"/>
   </g>
   <g id="matplotlib.axis_5"/>
   <g id="matplotlib.axis_6"/>
  </g>
  <g id="axes_4">
   <g id="patch_5">
    <path d="M 27 631.315862 
L 194.4 631.315862 
L 194.4 516.612414 
L 27 516.612414 
z
" style="fill: #ffffff"/>
   </g>
   <g id="EdgeCollection_4">
    <path d="M 180.729172 574.714138 
C 206.160329 587.583853 206.160329 560.344423 180.729172 573.214138 
C 206.160329 560.344423 206.160329 587.583853 180.729172 574.714138 
" clip-path="url(#pcfb9af8a18)" style="fill: #ffffff"/>
    <path d="M 178.791787 572.606746 
L 169.495579 552.839112 
" clip-path="url(#pcfb9af8a18)" style="stroke: #000000; stroke-width: 0.983051"/>
    <path d="M 178.343157 572.930463 
L 133.025755 529.835269 
" clip-path="url(#pcfb9af8a18)" style="fill: #ffffff"/>
    <path d="M 178.089556 573.291196 
L 96.164109 532.166306 
" clip-path="url(#pcfb9af8a18)" style="fill: #ffffff"/>
    <path d="M 177.96656 573.635577 
L 56.559728 546.380712 
" clip-path="url(#pcfb9af8a18)" style="fill: #ffffff"/>
    <path d="M 177.930134 573.964138 
L 43.469866 573.964138 
" clip-path="url(#pcfb9af8a18)" style="fill: #ffffff"/>
    <path d="M 177.96656 574.292699 
L 56.559728 601.547564 
" clip-path="url(#pcfb9af8a18)" style="fill: #ffffff"/>
    <path d="M 178.089556 574.63708 
L 96.164109 615.761969 
" clip-path="url(#pcfb9af8a18)" style="fill: #ffffff"/>
    <path d="M 178.343157 574.997812 
L 137.37366 613.958309 
" clip-path="url(#pcfb9af8a18)" style="fill: #ffffff"/>
    <path d="M 178.791787 575.32153 
L 166.942193 600.518733 
" clip-path="url(#pcfb9af8a18)" style="fill: #ffffff"/>
    <path d="M 173.572583 544.204055 
C 194.952061 537.148233 175.939423 517.641666 168.337717 538.833192 
C 175.939423 517.641666 194.952061 537.148233 173.572583 544.204055 
" clip-path="url(#pcfb9af8a18)" style="fill: #ffffff"/>
    <path d="M 159.600958 542.687439 
L 133.279357 529.474537 
" clip-path="url(#pcfb9af8a18)" style="fill: #ffffff"/>
    <path d="M 158.985978 544.409348 
L 96.779089 530.444397 
" clip-path="url(#pcfb9af8a18)" style="stroke: #000000; stroke-width: 1.220339"/>
    <path d="M 158.803846 546.052151 
L 56.596154 546.052151 
" clip-path="url(#pcfb9af8a18)" style="fill: #ffffff"/>
    <path d="M 158.985978 547.694954 
L 43.43344 573.635577 
" clip-path="url(#pcfb9af8a18)" style="fill: #ffffff"/>
    <path d="M 159.600958 549.416863 
L 56.436732 601.203182 
" clip-path="url(#pcfb9af8a18)" style="fill: #ffffff"/>
    <path d="M 160.868966 551.220524 
L 94.896101 613.958309 
" clip-path="url(#pcfb9af8a18)" style="stroke: #000000; stroke-width: 1.084746"/>
    <path d="M 163.112113 552.839112 
L 135.130512 612.33972 
" clip-path="url(#pcfb9af8a18)" style="fill: #ffffff"/>
    <path d="M 166.303846 553.552151 
L 166.303846 600.376125 
" clip-path="url(#pcfb9af8a18)" style="fill: #ffffff"/>
    <path d="M 132.968037 527.710435 
C 151.353594 505.93098 124.847806 499.65167 131.508437 527.364651 
C 124.847806 499.65167 151.353594 505.93098 132.968037 527.710435 
" clip-path="url(#pcfb9af8a18)" style="fill: #ffffff"/>
    <path d="M 130.438779 528.801594 
L 96.961221 528.801594 
" clip-path="url(#pcfb9af8a18)" style="fill: #ffffff"/>
    <path d="M 130.475206 529.130155 
L 56.559728 545.72359 
" clip-path="url(#pcfb9af8a18)" style="stroke: #000000; stroke-width: 2"/>
    <path d="M 130.598202 529.474537 
L 43.310444 573.291196 
" clip-path="url(#pcfb9af8a18)" style="fill: #ffffff"/>
    <path d="M 130.851803 529.835269 
L 56.18313 600.84245 
" clip-path="url(#pcfb9af8a18)" style="fill: #ffffff"/>
    <path d="M 131.300433 530.158987 
L 92.652953 612.33972 
" clip-path="url(#pcfb9af8a18)" style="fill: #ffffff"/>
    <path d="M 131.938779 530.301594 
L 131.938779 611.626681 
" clip-path="url(#pcfb9af8a18)" style="fill: #ffffff"/>
    <path d="M 132.577126 530.158987 
L 165.665499 600.518733 
" clip-path="url(#pcfb9af8a18)" style="fill: #ffffff"/>
    <path d="M 91.612932 521.616879 
C 96.552194 499.65167 70.046406 505.93098 84.31493 523.3458 
C 70.046406 505.93098 96.552194 499.65167 91.612932 521.616879 
" clip-path="url(#pcfb9af8a18)" style="fill: #ffffff"/>
    <path d="M 82.758332 532.166306 
L 56.436732 545.379209 
" clip-path="url(#pcfb9af8a18)" style="fill: #ffffff"/>
    <path d="M 84.02634 533.969967 
L 43.056843 572.930463 
" clip-path="url(#pcfb9af8a18)" style="fill: #ffffff"/>
    <path d="M 86.269488 535.588556 
L 55.734501 600.518733 
" clip-path="url(#pcfb9af8a18)" style="fill: #ffffff"/>
    <path d="M 89.461221 536.301594 
L 89.461221 611.626681 
" clip-path="url(#pcfb9af8a18)" style="stroke: #000000; stroke-width: 1.762712"/>
    <path d="M 92.652953 535.588556 
L 128.747047 612.33972 
" clip-path="url(#pcfb9af8a18)" style="fill: #ffffff"/>
    <path d="M 94.896101 533.969967 
L 165.21687 600.84245 
" clip-path="url(#pcfb9af8a18)" style="stroke: #000000; stroke-width: 1.491525"/>
    <path d="M 54.68938 544.608359 
C 45.460577 517.641666 26.447939 537.148233 53.642407 545.682532 
C 26.447939 537.148233 45.460577 517.641666 54.68938 544.608359 
" clip-path="url(#pcfb9af8a18)" style="fill: #ffffff"/>
    <path d="M 54.457807 547.409543 
L 42.608213 572.606746 
" clip-path="url(#pcfb9af8a18)" style="fill: #ffffff"/>
    <path d="M 55.096154 547.552151 
L 55.096154 600.376125 
" clip-path="url(#pcfb9af8a18)" style="fill: #ffffff"/>
    <path d="M 55.734501 547.409543 
L 86.269488 612.33972 
" clip-path="url(#pcfb9af8a18)" style="fill: #ffffff"/>
    <path d="M 56.18313 547.085826 
L 126.503899 613.958309 
" clip-path="url(#pcfb9af8a18)" style="stroke: #000000; stroke-width: 1.491525"/>
    <path d="M 56.436732 546.725093 
L 164.963268 601.203182 
" clip-path="url(#pcfb9af8a18)" style="fill: #ffffff"/>
    <path d="M 40.670828 573.214138 
C 15.239671 560.344423 15.239671 587.583853 40.670828 574.714138 
C 15.239671 587.583853 15.239671 560.344423 40.670828 573.214138 
" clip-path="url(#pcfb9af8a18)" style="fill: #ffffff"/>
    <path d="M 42.608213 575.32153 
L 54.457807 600.518733 
" clip-path="url(#pcfb9af8a18)" style="fill: #ffffff"/>
    <path d="M 43.056843 574.997812 
L 84.02634 613.958309 
" clip-path="url(#pcfb9af8a18)" style="fill: #ffffff"/>
    <path d="M 43.310444 574.63708 
L 125.235891 615.761969 
" clip-path="url(#pcfb9af8a18)" style="stroke: #000000; stroke-width: 1.084746"/>
    <path d="M 43.43344 574.292699 
L 164.840272 601.547564 
" clip-path="url(#pcfb9af8a18)" style="stroke: #000000; stroke-width: 1.694915"/>
    <path d="M 53.642407 602.245744 
C 26.447939 610.780043 45.460577 630.28661 54.68938 603.319917 
C 45.460577 630.28661 26.447939 610.780043 53.642407 602.245744 
" clip-path="url(#pcfb9af8a18)" style="fill: #ffffff"/>
    <path d="M 56.436732 602.549067 
L 82.758332 615.761969 
" clip-path="url(#pcfb9af8a18)" style="fill: #ffffff"/>
    <path d="M 56.559728 602.204685 
L 124.620911 617.483878 
" clip-path="url(#pcfb9af8a18)" style="fill: #ffffff"/>
    <path d="M 56.596154 601.876125 
L 164.803846 601.876125 
" clip-path="url(#pcfb9af8a18)" style="fill: #ffffff"/>
    <path d="M 84.31493 624.582476 
C 70.046406 641.997295 96.552194 648.276606 91.612932 626.311397 
C 96.552194 648.276606 70.046406 641.997295 84.31493 624.582476 
" clip-path="url(#pcfb9af8a18)" style="fill: #ffffff"/>
    <path d="M 96.961221 619.126681 
L 124.438779 619.126681 
" clip-path="url(#pcfb9af8a18)" style="stroke: #000000; stroke-width: 1.830508"/>
    <path d="M 96.779089 617.483878 
L 164.840272 602.204685 
" clip-path="url(#pcfb9af8a18)" style="fill: #ffffff"/>
    <path d="M 129.787068 626.311397 
C 124.847806 648.276606 151.353594 641.997295 137.08507 624.582476 
C 151.353594 641.997295 124.847806 648.276606 129.787068 626.311397 
" clip-path="url(#pcfb9af8a18)" style="fill: #ffffff"/>
    <path d="M 138.641668 615.761969 
L 164.963268 602.549067 
" clip-path="url(#pcfb9af8a18)" style="fill: #ffffff"/>
    <path d="M 166.71062 603.319917 
C 175.939423 630.28661 194.952061 610.780043 167.757593 602.245744 
C 194.952061 610.780043 175.939423 630.28661 166.71062 603.319917 
" clip-path="url(#pcfb9af8a18)" style="fill: #ffffff"/>
   </g>
   <g id="VertexCollection_4">
    <path d="M 179.430134 575.464138 
C 179.827938 575.464138 180.209503 575.306088 180.490794 575.024798 
C 180.772084 574.743508 180.930134 574.361943 180.930134 573.964138 
C 180.930134 573.566333 180.772084 573.184768 180.490794 572.903478 
C 180.209503 572.622187 179.827938 572.464138 179.430134 572.464138 
C 179.032329 572.464138 178.650764 572.622187 178.369473 572.903478 
C 178.088183 573.184768 177.930134 573.566333 177.930134 573.964138 
C 177.930134 574.361943 178.088183 574.743508 178.369473 575.024798 
C 178.650764 575.306088 179.032329 575.464138 179.430134 575.464138 
z
" clip-path="url(#pcfb9af8a18)" style="fill: #fdcab5; stroke: #00ff00; stroke-width: 3"/>
    <path d="M 166.303846 553.552151 
C 168.292869 553.552151 170.200695 552.761904 171.607147 551.355452 
C 173.013599 549.949 173.803846 548.041174 173.803846 546.052151 
C 173.803846 544.063128 173.013599 542.155302 171.607147 540.74885 
C 170.200695 539.342398 168.292869 538.552151 166.303846 538.552151 
C 164.314823 538.552151 162.406997 539.342398 161.000545 540.74885 
C 159.594093 542.155302 158.803846 544.063128 158.803846 546.052151 
C 158.803846 548.041174 159.594093 549.949 161.000545 551.355452 
C 162.406997 552.761904 164.314823 553.552151 166.303846 553.552151 
z
" clip-path="url(#pcfb9af8a18)" style="fill: #6b010e; stroke: #ff0000; stroke-width: 3"/>
    <path d="M 131.938779 530.301594 
C 132.336584 530.301594 132.718149 530.143545 132.999439 529.862255 
C 133.28073 529.580964 133.438779 529.199399 133.438779 528.801594 
C 133.438779 528.40379 133.28073 528.022225 132.999439 527.740934 
C 132.718149 527.459644 132.336584 527.301594 131.938779 527.301594 
C 131.540975 527.301594 131.159409 527.459644 130.878119 527.740934 
C 130.596829 528.022225 130.438779 528.40379 130.438779 528.801594 
C 130.438779 529.199399 130.596829 529.580964 130.878119 529.862255 
C 131.159409 530.143545 131.540975 530.301594 131.938779 530.301594 
z
" clip-path="url(#pcfb9af8a18)" style="fill: #fdcab5; stroke: #00ff00; stroke-width: 3"/>
    <path d="M 89.461221 536.301594 
C 91.450244 536.301594 93.35807 535.511347 94.764522 534.104895 
C 96.170973 532.698443 96.961221 530.790618 96.961221 528.801594 
C 96.961221 526.812571 96.170973 524.904745 94.764522 523.498294 
C 93.35807 522.091842 91.450244 521.301594 89.461221 521.301594 
C 87.472197 521.301594 85.564372 522.091842 84.15792 523.498294 
C 82.751468 524.904745 81.961221 526.812571 81.961221 528.801594 
C 81.961221 530.790618 82.751468 532.698443 84.15792 534.104895 
C 85.564372 535.511347 87.472197 536.301594 89.461221 536.301594 
z
" clip-path="url(#pcfb9af8a18)" style="fill: #6b010e; stroke: #00ff00; stroke-width: 3"/>
    <path d="M 55.096154 547.552151 
C 55.493959 547.552151 55.875524 547.394102 56.156814 547.112811 
C 56.438105 546.831521 56.596154 546.449956 56.596154 546.052151 
C 56.596154 545.654346 56.438105 545.272781 56.156814 544.991491 
C 55.875524 544.7102 55.493959 544.552151 55.096154 544.552151 
C 54.698349 544.552151 54.316784 544.7102 54.035494 544.991491 
C 53.754203 545.272781 53.596154 545.654346 53.596154 546.052151 
C 53.596154 546.449956 53.754203 546.831521 54.035494 547.112811 
C 54.316784 547.394102 54.698349 547.552151 55.096154 547.552151 
z
" clip-path="url(#pcfb9af8a18)" style="fill: #fdcab5; stroke: #00ff00; stroke-width: 3"/>
    <path d="M 41.969866 575.464138 
C 42.367671 575.464138 42.749236 575.306088 43.030527 575.024798 
C 43.311817 574.743508 43.469866 574.361943 43.469866 573.964138 
C 43.469866 573.566333 43.311817 573.184768 43.030527 572.903478 
C 42.749236 572.622187 42.367671 572.464138 41.969866 572.464138 
C 41.572062 572.464138 41.190497 572.622187 40.909206 572.903478 
C 40.627916 573.184768 40.469866 573.566333 40.469866 573.964138 
C 40.469866 574.361943 40.627916 574.743508 40.909206 575.024798 
C 41.190497 575.306088 41.572062 575.464138 41.969866 575.464138 
z
" clip-path="url(#pcfb9af8a18)" style="fill: #fdcab5; stroke: #00ff00; stroke-width: 3"/>
    <path d="M 55.096154 603.376125 
C 55.493959 603.376125 55.875524 603.218075 56.156814 602.936785 
C 56.438105 602.655495 56.596154 602.27393 56.596154 601.876125 
C 56.596154 601.47832 56.438105 601.096755 56.156814 600.815465 
C 55.875524 600.534174 55.493959 600.376125 55.096154 600.376125 
C 54.698349 600.376125 54.316784 600.534174 54.035494 600.815465 
C 53.754203 601.096755 53.596154 601.47832 53.596154 601.876125 
C 53.596154 602.27393 53.754203 602.655495 54.035494 602.936785 
C 54.316784 603.218075 54.698349 603.376125 55.096154 603.376125 
z
" clip-path="url(#pcfb9af8a18)" style="fill: #fdcab5; stroke: #00ff00; stroke-width: 3"/>
    <path d="M 89.461221 626.626681 
C 91.450244 626.626681 93.35807 625.836434 94.764522 624.429982 
C 96.170973 623.023531 96.961221 621.115705 96.961221 619.126681 
C 96.961221 617.137658 96.170973 615.229832 94.764522 613.823381 
C 93.35807 612.416929 91.450244 611.626681 89.461221 611.626681 
C 87.472197 611.626681 85.564372 612.416929 84.15792 613.823381 
C 82.751468 615.229832 81.961221 617.137658 81.961221 619.126681 
C 81.961221 621.115705 82.751468 623.023531 84.15792 624.429982 
C 85.564372 625.836434 87.472197 626.626681 89.461221 626.626681 
z
" clip-path="url(#pcfb9af8a18)" style="fill: #6b010e; stroke: #00ff00; stroke-width: 3"/>
    <path d="M 131.938779 626.626681 
C 133.927803 626.626681 135.835628 625.836434 137.24208 624.429982 
C 138.648532 623.023531 139.438779 621.115705 139.438779 619.126681 
C 139.438779 617.137658 138.648532 615.229832 137.24208 613.823381 
C 135.835628 612.416929 133.927803 611.626681 131.938779 611.626681 
C 129.949756 611.626681 128.04193 612.416929 126.635478 613.823381 
C 125.229027 615.229832 124.438779 617.137658 124.438779 619.126681 
C 124.438779 621.115705 125.229027 623.023531 126.635478 624.429982 
C 128.04193 625.836434 129.949756 626.626681 131.938779 626.626681 
z
" clip-path="url(#pcfb9af8a18)" style="fill: #6b010e; stroke: #00ff00; stroke-width: 3"/>
    <path d="M 166.303846 603.376125 
C 166.701651 603.376125 167.083216 603.218075 167.364506 602.936785 
C 167.645797 602.655495 167.803846 602.27393 167.803846 601.876125 
C 167.803846 601.47832 167.645797 601.096755 167.364506 600.815465 
C 167.083216 600.534174 166.701651 600.376125 166.303846 600.376125 
C 165.906041 600.376125 165.524476 600.534174 165.243186 600.815465 
C 164.961895 601.096755 164.803846 601.47832 164.803846 601.876125 
C 164.803846 602.27393 164.961895 602.655495 165.243186 602.936785 
C 165.524476 603.218075 165.906041 603.376125 166.303846 603.376125 
z
" clip-path="url(#pcfb9af8a18)" style="fill: #fdcab5; stroke: #00ff00; stroke-width: 3"/>
   </g>
   <g id="matplotlib.axis_7"/>
   <g id="matplotlib.axis_8"/>
  </g>
  <g id="axes_5">
   <g id="patch_6">
    <path d="M 27 768.96 
L 194.4 768.96 
L 194.4 654.256552 
L 27 654.256552 
z
" style="fill: #ffffff"/>
   </g>
   <g id="EdgeCollection_5">
    <path d="M 180.729172 712.358276 
C 206.160329 725.227991 206.160329 697.988561 180.729172 710.858276 
C 206.160329 697.988561 206.160329 725.227991 180.729172 712.358276 
" clip-path="url(#pa731987642)" style="fill: #ffffff"/>
    <path d="M 178.791787 710.250884 
L 166.942193 685.053681 
" clip-path="url(#pa731987642)" style="fill: #ffffff"/>
    <path d="M 178.343157 710.574601 
L 133.025755 667.479407 
" clip-path="url(#pa731987642)" style="fill: #ffffff"/>
    <path d="M 178.089556 710.935333 
L 96.164109 669.810444 
" clip-path="url(#pa731987642)" style="fill: #ffffff"/>
    <path d="M 177.96656 711.279715 
L 62.414022 685.339092 
" clip-path="url(#pa731987642)" style="fill: #ffffff"/>
    <path d="M 177.930134 711.608276 
L 43.469866 711.608276 
" clip-path="url(#pa731987642)" style="fill: #ffffff"/>
    <path d="M 177.96656 711.936836 
L 56.559728 739.191702 
" clip-path="url(#pa731987642)" style="fill: #ffffff"/>
    <path d="M 178.089556 712.281218 
L 96.164109 753.406107 
" clip-path="url(#pa731987642)" style="fill: #ffffff"/>
    <path d="M 178.343157 712.64195 
L 133.025755 755.737145 
" clip-path="url(#pa731987642)" style="stroke: #000000; stroke-width: 0.655367"/>
    <path d="M 178.791787 712.965668 
L 169.495579 732.733302 
" clip-path="url(#pa731987642)" style="fill: #ffffff"/>
    <path d="M 167.757593 683.32667 
C 194.952061 674.792371 175.939423 655.285804 166.71062 682.252497 
C 175.939423 655.285804 194.952061 674.792371 167.757593 683.32667 
" clip-path="url(#pa731987642)" style="fill: #ffffff"/>
    <path d="M 164.963268 683.023347 
L 133.279357 667.118675 
" clip-path="url(#pa731987642)" style="fill: #ffffff"/>
    <path d="M 164.840272 683.367728 
L 96.779089 668.088535 
" clip-path="url(#pa731987642)" style="fill: #ffffff"/>
    <path d="M 164.803846 683.696289 
L 62.596154 683.696289 
" clip-path="url(#pa731987642)" style="fill: #ffffff"/>
    <path d="M 164.840272 684.02485 
L 43.43344 711.279715 
" clip-path="url(#pa731987642)" style="fill: #ffffff"/>
    <path d="M 164.963268 684.369231 
L 56.436732 738.84732 
" clip-path="url(#pa731987642)" style="fill: #ffffff"/>
    <path d="M 165.21687 684.729963 
L 94.896101 751.602447 
" clip-path="url(#pa731987642)" style="stroke: #000000; stroke-width: 0.576271"/>
    <path d="M 165.665499 685.053681 
L 132.577126 755.413427 
" clip-path="url(#pa731987642)" style="fill: #ffffff"/>
    <path d="M 166.303846 685.196289 
L 166.303846 732.020263 
" clip-path="url(#pa731987642)" style="fill: #ffffff"/>
    <path d="M 132.968037 665.354573 
C 151.353594 643.575118 124.847806 637.295808 131.508437 665.008789 
C 124.847806 637.295808 151.353594 643.575118 132.968037 665.354573 
" clip-path="url(#pa731987642)" style="fill: #ffffff"/>
    <path d="M 130.438779 666.445732 
L 96.961221 666.445732 
" clip-path="url(#pa731987642)" style="fill: #ffffff"/>
    <path d="M 130.475206 666.774293 
L 62.414022 682.053486 
" clip-path="url(#pa731987642)" style="stroke: #000000; stroke-width: 1.265537"/>
    <path d="M 130.598202 667.118675 
L 43.310444 710.935333 
" clip-path="url(#pa731987642)" style="fill: #ffffff"/>
    <path d="M 130.851803 667.479407 
L 56.18313 738.486588 
" clip-path="url(#pa731987642)" style="fill: #ffffff"/>
    <path d="M 131.300433 667.803125 
L 92.652953 749.983858 
" clip-path="url(#pa731987642)" style="fill: #ffffff"/>
    <path d="M 131.938779 667.945732 
L 131.938779 755.270819 
" clip-path="url(#pa731987642)" style="fill: #ffffff"/>
    <path d="M 132.577126 667.803125 
L 163.112113 732.733302 
" clip-path="url(#pa731987642)" style="fill: #ffffff"/>
    <path d="M 91.612932 659.261017 
C 96.552194 637.295808 70.046406 643.575118 84.31493 660.989938 
C 70.046406 643.575118 96.552194 637.295808 91.612932 659.261017 
" clip-path="url(#pa731987642)" style="fill: #ffffff"/>
    <path d="M 82.758332 669.810444 
L 61.799042 680.331577 
" clip-path="url(#pa731987642)" style="stroke: #000000; stroke-width: 1.265537"/>
    <path d="M 84.02634 671.614105 
L 43.056843 710.574601 
" clip-path="url(#pa731987642)" style="fill: #ffffff"/>
    <path d="M 86.269488 673.232693 
L 55.734501 738.162871 
" clip-path="url(#pa731987642)" style="fill: #ffffff"/>
    <path d="M 89.461221 673.945732 
L 89.461221 749.270819 
" clip-path="url(#pa731987642)" style="stroke: #000000; stroke-width: 1.322034"/>
    <path d="M 92.652953 673.232693 
L 131.300433 755.413427 
" clip-path="url(#pa731987642)" style="fill: #ffffff"/>
    <path d="M 94.896101 671.614105 
L 160.868966 734.35189 
" clip-path="url(#pa731987642)" style="stroke: #000000; stroke-width: 2"/>
    <path d="M 53.062283 676.47733 
C 45.460577 655.285804 26.447939 674.792371 47.827417 681.848193 
C 26.447939 674.792371 45.460577 655.285804 53.062283 676.47733 
" clip-path="url(#pa731987642)" style="fill: #ffffff"/>
    <path d="M 51.904421 690.48325 
L 42.608213 710.250884 
" clip-path="url(#pa731987642)" style="fill: #ffffff"/>
    <path d="M 55.096154 691.196289 
L 55.096154 738.020263 
" clip-path="url(#pa731987642)" style="fill: #ffffff"/>
    <path d="M 58.287887 690.48325 
L 86.269488 749.983858 
" clip-path="url(#pa731987642)" style="fill: #ffffff"/>
    <path d="M 60.531034 688.864662 
L 130.851803 755.737145 
" clip-path="url(#pa731987642)" style="fill: #ffffff"/>
    <path d="M 61.799042 687.061001 
L 159.600958 736.155551 
" clip-path="url(#pa731987642)" style="stroke: #000000; stroke-width: 0.915254"/>
    <path d="M 40.670828 710.858276 
C 15.239671 697.988561 15.239671 725.227991 40.670828 712.358276 
C 15.239671 725.227991 15.239671 697.988561 40.670828 710.858276 
" clip-path="url(#pa731987642)" style="fill: #ffffff"/>
    <path d="M 42.608213 712.965668 
L 54.457807 738.162871 
" clip-path="url(#pa731987642)" style="fill: #ffffff"/>
    <path d="M 43.056843 712.64195 
L 84.02634 751.602447 
" clip-path="url(#pa731987642)" style="fill: #ffffff"/>
    <path d="M 43.310444 712.281218 
L 130.598202 756.097877 
" clip-path="url(#pa731987642)" style="fill: #ffffff"/>
    <path d="M 43.43344 711.936836 
L 158.985978 737.87746 
" clip-path="url(#pa731987642)" style="stroke: #000000; stroke-width: 0.610169"/>
    <path d="M 53.642407 739.889882 
C 26.447939 748.424181 45.460577 767.930748 54.68938 740.964055 
C 45.460577 767.930748 26.447939 748.424181 53.642407 739.889882 
" clip-path="url(#pa731987642)" style="fill: #ffffff"/>
    <path d="M 56.436732 740.193205 
L 82.758332 753.406107 
" clip-path="url(#pa731987642)" style="fill: #ffffff"/>
    <path d="M 56.559728 739.848823 
L 130.475206 756.442259 
" clip-path="url(#pa731987642)" style="fill: #ffffff"/>
    <path d="M 56.596154 739.520263 
L 158.803846 739.520263 
" clip-path="url(#pa731987642)" style="fill: #ffffff"/>
    <path d="M 84.31493 762.226614 
C 70.046406 779.641433 96.552194 785.920744 91.612932 763.955535 
C 96.552194 785.920744 70.046406 779.641433 84.31493 762.226614 
" clip-path="url(#pa731987642)" style="fill: #ffffff"/>
    <path d="M 96.961221 756.770819 
L 130.438779 756.770819 
" clip-path="url(#pa731987642)" style="stroke: #000000; stroke-width: 1.276836"/>
    <path d="M 96.779089 755.128016 
L 158.985978 741.163066 
" clip-path="url(#pa731987642)" style="fill: #ffffff"/>
    <path d="M 131.508437 758.207763 
C 124.847806 785.920744 151.353594 779.641433 132.968037 757.861978 
C 151.353594 779.641433 124.847806 785.920744 131.508437 758.207763 
" clip-path="url(#pa731987642)" style="fill: #ffffff"/>
    <path d="M 133.279357 756.097877 
L 159.600958 742.884975 
" clip-path="url(#pa731987642)" style="fill: #ffffff"/>
    <path d="M 168.337717 746.739222 
C 175.939423 767.930748 194.952061 748.424181 173.572583 741.368359 
C 194.952061 748.424181 175.939423 767.930748 168.337717 746.739222 
" clip-path="url(#pa731987642)" style="fill: #ffffff"/>
   </g>
   <g id="VertexCollection_5">
    <path d="M 179.430134 713.108276 
C 179.827938 713.108276 180.209503 712.950226 180.490794 712.668936 
C 180.772084 712.387646 180.930134 712.006081 180.930134 711.608276 
C 180.930134 711.210471 180.772084 710.828906 180.490794 710.547616 
C 180.209503 710.266325 179.827938 710.108276 179.430134 710.108276 
C 179.032329 710.108276 178.650764 710.266325 178.369473 710.547616 
C 178.088183 710.828906 177.930134 711.210471 177.930134 711.608276 
C 177.930134 712.006081 178.088183 712.387646 178.369473 712.668936 
C 178.650764 712.950226 179.032329 713.108276 179.430134 713.108276 
z
" clip-path="url(#pa731987642)" style="fill: #fdcab5; stroke: #00ff00; stroke-width: 3"/>
    <path d="M 166.303846 685.196289 
C 166.701651 685.196289 167.083216 685.038239 167.364506 684.756949 
C 167.645797 684.475659 167.803846 684.094094 167.803846 683.696289 
C 167.803846 683.298484 167.645797 682.916919 167.364506 682.635629 
C 167.083216 682.354338 166.701651 682.196289 166.303846 682.196289 
C 165.906041 682.196289 165.524476 682.354338 165.243186 682.635629 
C 164.961895 682.916919 164.803846 683.298484 164.803846 683.696289 
C 164.803846 684.094094 164.961895 684.475659 165.243186 684.756949 
C 165.524476 685.038239 165.906041 685.196289 166.303846 685.196289 
z
" clip-path="url(#pa731987642)" style="fill: #fdcab5; stroke: #ff0000; stroke-width: 3"/>
    <path d="M 131.938779 667.945732 
C 132.336584 667.945732 132.718149 667.787683 132.999439 667.506392 
C 133.28073 667.225102 133.438779 666.843537 133.438779 666.445732 
C 133.438779 666.047928 133.28073 665.666362 132.999439 665.385072 
C 132.718149 665.103782 132.336584 664.945732 131.938779 664.945732 
C 131.540975 664.945732 131.159409 665.103782 130.878119 665.385072 
C 130.596829 665.666362 130.438779 666.047928 130.438779 666.445732 
C 130.438779 666.843537 130.596829 667.225102 130.878119 667.506392 
C 131.159409 667.787683 131.540975 667.945732 131.938779 667.945732 
z
" clip-path="url(#pa731987642)" style="fill: #fdcab5; stroke: #00ff00; stroke-width: 3"/>
    <path d="M 89.461221 673.945732 
C 91.450244 673.945732 93.35807 673.155485 94.764522 671.749033 
C 96.170973 670.342581 96.961221 668.434756 96.961221 666.445732 
C 96.961221 664.456709 96.170973 662.548883 94.764522 661.142431 
C 93.35807 659.73598 91.450244 658.945732 89.461221 658.945732 
C 87.472197 658.945732 85.564372 659.73598 84.15792 661.142431 
C 82.751468 662.548883 81.961221 664.456709 81.961221 666.445732 
C 81.961221 668.434756 82.751468 670.342581 84.15792 671.749033 
C 85.564372 673.155485 87.472197 673.945732 89.461221 673.945732 
z
" clip-path="url(#pa731987642)" style="fill: #6b010e; stroke: #00ff00; stroke-width: 3"/>
    <path d="M 55.096154 691.196289 
C 57.085177 691.196289 58.993003 690.406042 60.399455 688.99959 
C 61.805907 687.593138 62.596154 685.685312 62.596154 683.696289 
C 62.596154 681.707266 61.805907 679.79944 60.399455 678.392988 
C 58.993003 676.986536 57.085177 676.196289 55.096154 676.196289 
C 53.107131 676.196289 51.199305 676.986536 49.792853 678.392988 
C 48.386401 679.79944 47.596154 681.707266 47.596154 683.696289 
C 47.596154 685.685312 48.386401 687.593138 49.792853 688.99959 
C 51.199305 690.406042 53.107131 691.196289 55.096154 691.196289 
z
" clip-path="url(#pa731987642)" style="fill: #6b010e; stroke: #00ff00; stroke-width: 3"/>
    <path d="M 41.969866 713.108276 
C 42.367671 713.108276 42.749236 712.950226 43.030527 712.668936 
C 43.311817 712.387646 43.469866 712.006081 43.469866 711.608276 
C 43.469866 711.210471 43.311817 710.828906 43.030527 710.547616 
C 42.749236 710.266325 42.367671 710.108276 41.969866 710.108276 
C 41.572062 710.108276 41.190497 710.266325 40.909206 710.547616 
C 40.627916 710.828906 40.469866 711.210471 40.469866 711.608276 
C 40.469866 712.006081 40.627916 712.387646 40.909206 712.668936 
C 41.190497 712.950226 41.572062 713.108276 41.969866 713.108276 
z
" clip-path="url(#pa731987642)" style="fill: #fdcab5; stroke: #00ff00; stroke-width: 3"/>
    <path d="M 55.096154 741.020263 
C 55.493959 741.020263 55.875524 740.862213 56.156814 740.580923 
C 56.438105 740.299633 56.596154 739.918067 56.596154 739.520263 
C 56.596154 739.122458 56.438105 738.740893 56.156814 738.459603 
C 55.875524 738.178312 55.493959 738.020263 55.096154 738.020263 
C 54.698349 738.020263 54.316784 738.178312 54.035494 738.459603 
C 53.754203 738.740893 53.596154 739.122458 53.596154 739.520263 
C 53.596154 739.918067 53.754203 740.299633 54.035494 740.580923 
C 54.316784 740.862213 54.698349 741.020263 55.096154 741.020263 
z
" clip-path="url(#pa731987642)" style="fill: #fdcab5; stroke: #00ff00; stroke-width: 3"/>
    <path d="M 89.461221 764.270819 
C 91.450244 764.270819 93.35807 763.480572 94.764522 762.07412 
C 96.170973 760.667668 96.961221 758.759843 96.961221 756.770819 
C 96.961221 754.781796 96.170973 752.87397 94.764522 751.467519 
C 93.35807 750.061067 91.450244 749.270819 89.461221 749.270819 
C 87.472197 749.270819 85.564372 750.061067 84.15792 751.467519 
C 82.751468 752.87397 81.961221 754.781796 81.961221 756.770819 
C 81.961221 758.759843 82.751468 760.667668 84.15792 762.07412 
C 85.564372 763.480572 87.472197 764.270819 89.461221 764.270819 
z
" clip-path="url(#pa731987642)" style="fill: #6b010e; stroke: #00ff00; stroke-width: 3"/>
    <path d="M 131.938779 758.270819 
C 132.336584 758.270819 132.718149 758.11277 132.999439 757.83148 
C 133.28073 757.550189 133.438779 757.168624 133.438779 756.770819 
C 133.438779 756.373015 133.28073 755.99145 132.999439 755.710159 
C 132.718149 755.428869 132.336584 755.270819 131.938779 755.270819 
C 131.540975 755.270819 131.159409 755.428869 130.878119 755.710159 
C 130.596829 755.99145 130.438779 756.373015 130.438779 756.770819 
C 130.438779 757.168624 130.596829 757.550189 130.878119 757.83148 
C 131.159409 758.11277 131.540975 758.270819 131.938779 758.270819 
z
" clip-path="url(#pa731987642)" style="fill: #fdcab5; stroke: #00ff00; stroke-width: 3"/>
    <path d="M 166.303846 747.020263 
C 168.292869 747.020263 170.200695 746.230015 171.607147 744.823564 
C 173.013599 743.417112 173.803846 741.509286 173.803846 739.520263 
C 173.803846 737.53124 173.013599 735.623414 171.607147 734.216962 
C 170.200695 732.81051 168.292869 732.020263 166.303846 732.020263 
C 164.314823 732.020263 162.406997 732.81051 161.000545 734.216962 
C 159.594093 735.623414 158.803846 737.53124 158.803846 739.520263 
C 158.803846 741.509286 159.594093 743.417112 161.000545 744.823564 
C 162.406997 746.230015 164.314823 747.020263 166.303846 747.020263 
z
" clip-path="url(#pa731987642)" style="fill: #6b010e; stroke: #00ff00; stroke-width: 3"/>
   </g>
   <g id="matplotlib.axis_9"/>
   <g id="matplotlib.axis_10"/>
  </g>
 </g>
 <defs>
  <clipPath id="p58d6875f2d">
   <rect x="27" y="103.68" width="167.4" height="114.703448"/>
  </clipPath>
  <clipPath id="p021d0ad2d2">
   <rect x="27" y="241.324138" width="167.4" height="114.703448"/>
  </clipPath>
  <clipPath id="p6c6834705c">
   <rect x="27" y="378.968276" width="167.4" height="114.703448"/>
  </clipPath>
  <clipPath id="pcfb9af8a18">
   <rect x="27" y="516.612414" width="167.4" height="114.703448"/>
  </clipPath>
  <clipPath id="pa731987642">
   <rect x="27" y="654.256552" width="167.4" height="114.703448"/>
  </clipPath>
 </defs>
</svg>
