<?xml version="1.0" encoding="utf-8" standalone="no"?>
<!DOCTYPE svg PUBLIC "-//W3C//DTD SVG 1.1//EN"
  "http://www.w3.org/Graphics/SVG/1.1/DTD/svg11.dtd">
<svg xmlns:xlink="http://www.w3.org/1999/xlink" width="216pt" height="864pt" viewBox="0 0 216 864" xmlns="http://www.w3.org/2000/svg" version="1.1">
 <metadata>
  <rdf:RDF xmlns:dc="http://purl.org/dc/elements/1.1/" xmlns:cc="http://creativecommons.org/ns#" xmlns:rdf="http://www.w3.org/1999/02/22-rdf-syntax-ns#">
   <cc:Work>
    <dc:type rdf:resource="http://purl.org/dc/dcmitype/StillImage"/>
    <dc:date>2025-06-05T15:05:30.124331</dc:date>
    <dc:format>image/svg+xml</dc:format>
    <dc:creator>
     <cc:Agent>
      <dc:title>Matplotlib v3.9.2, https://matplotlib.org/</dc:title>
     </cc:Agent>
    </dc:creator>
   </cc:Work>
  </rdf:RDF>
 </metadata>
 <defs>
  <style type="text/css">*{stroke-linejoin: round; stroke-linecap: butt}</style>
 </defs>
 <g id="figure_1">
  <g id="patch_1">
   <path d="M 0 864 
L 216 864 
L 216 0 
L 0 0 
z
" style="fill: #ffffff"/>
  </g>
  <g id="axes_1">
   <g id="patch_2">
    <path d="M 27 218.383448 
L 194.4 218.383448 
L 194.4 103.68 
L 27 103.68 
z
" style="fill: #ffffff"/>
   </g>
   <g id="EdgeCollection_1">
    <path d="M 180.734785 161.781724 
C 206.165942 174.651439 206.165942 147.412009 180.734785 160.281724 
C 206.165942 147.412009 206.165942 174.651439 180.734785 161.781724 
" clip-path="url(#p3c022510fe)" style="fill: #ffffff"/>
    <path d="M 178.823845 159.662207 
L 169.535124 138.872827 
" clip-path="url(#p3c022510fe)" style="fill: #ffffff"/>
    <path d="M 178.375576 159.970575 
L 133.605719 115.159402 
" clip-path="url(#p3c022510fe)" style="fill: #ffffff"/>
    <path d="M 178.109483 160.330991 
L 91.931944 114.798985 
" clip-path="url(#p3c022510fe)" style="fill: #ffffff"/>
    <path d="M 177.975944 160.686794 
L 58.135417 132.370174 
" clip-path="url(#p3c022510fe)" style="fill: #ffffff"/>
    <path d="M 177.935746 161.031724 
L 51.215483 161.031724 
" clip-path="url(#p3c022510fe)" style="fill: #ffffff"/>
    <path d="M 177.975944 161.376655 
L 63.974626 188.313552 
" clip-path="url(#p3c022510fe)" style="fill: #ffffff"/>
    <path d="M 178.109483 161.732457 
L 91.931944 207.264463 
" clip-path="url(#p3c022510fe)" style="fill: #ffffff"/>
    <path d="M 178.375576 162.092873 
L 133.605719 206.904046 
" clip-path="url(#p3c022510fe)" style="fill: #ffffff"/>
    <path d="M 178.823845 162.401241 
L 167.087516 188.668688 
" clip-path="url(#p3c022510fe)" style="fill: #ffffff"/>
    <path d="M 173.780058 130.323742 
C 195.297147 123.699424 176.680757 103.81434 168.654292 124.848659 
C 176.680757 103.81434 195.297147 123.699424 173.780058 130.323742 
" clip-path="url(#p3c022510fe)" style="fill: #ffffff"/>
    <path d="M 159.844299 128.52158 
L 133.871812 114.798985 
" clip-path="url(#p3c022510fe)" style="stroke: #000000; stroke-width: 1.272727"/>
    <path d="M 159.176603 130.30059 
L 92.065483 114.443183 
" clip-path="url(#p3c022510fe)" style="fill: #ffffff"/>
    <path d="M 158.975614 132.025243 
L 58.175615 132.025243 
" clip-path="url(#p3c022510fe)" style="fill: #ffffff"/>
    <path d="M 159.176603 133.749897 
L 51.014494 159.307071 
" clip-path="url(#p3c022510fe)" style="stroke: #000000; stroke-width: 0.807095"/>
    <path d="M 159.844299 135.528907 
L 63.30693 186.534541 
" clip-path="url(#p3c022510fe)" style="stroke: #000000; stroke-width: 1.059867"/>
    <path d="M 161.17476 137.33099 
L 91.665851 206.904046 
" clip-path="url(#p3c022510fe)" style="fill: #ffffff"/>
    <path d="M 163.416105 138.872827 
L 133.15745 206.595679 
" clip-path="url(#p3c022510fe)" style="fill: #ffffff"/>
    <path d="M 166.475614 139.525243 
L 166.475614 188.538205 
" clip-path="url(#p3c022510fe)" style="fill: #ffffff"/>
    <path d="M 133.586121 113.017878 
C 152.197623 91.431185 125.758705 84.876022 132.130203 112.656903 
C 125.758705 84.876022 152.197623 91.431185 133.586121 113.017878 
" clip-path="url(#p3c022510fe)" style="fill: #ffffff"/>
    <path d="M 131.045549 114.098253 
L 92.105681 114.098253 
" clip-path="url(#p3c022510fe)" style="fill: #ffffff"/>
    <path d="M 131.085746 114.443183 
L 58.135417 131.680313 
" clip-path="url(#p3c022510fe)" style="stroke: #000000; stroke-width: 0.687361"/>
    <path d="M 131.219286 114.798985 
L 50.346798 157.528061 
" clip-path="url(#p3c022510fe)" style="fill: #ffffff"/>
    <path d="M 131.485378 115.159402 
L 61.976469 184.732458 
" clip-path="url(#p3c022510fe)" style="fill: #ffffff"/>
    <path d="M 131.933647 115.467769 
L 91.217582 206.595679 
" clip-path="url(#p3c022510fe)" style="fill: #ffffff"/>
    <path d="M 132.545549 115.598253 
L 132.545549 206.465196 
" clip-path="url(#p3c022510fe)" style="fill: #ffffff"/>
    <path d="M 133.15745 115.467769 
L 165.863713 188.668688 
" clip-path="url(#p3c022510fe)" style="fill: #ffffff"/>
    <path d="M 91.021026 112.656903 
C 97.392524 84.876022 70.953606 91.431185 89.565108 113.017878 
C 70.953606 91.431185 97.392524 84.876022 91.021026 112.656903 
" clip-path="url(#p3c022510fe)" style="fill: #ffffff"/>
    <path d="M 89.279418 114.798985 
L 58.001878 131.324511 
" clip-path="url(#p3c022510fe)" style="fill: #ffffff"/>
    <path d="M 89.54551 115.159402 
L 49.016337 155.725978 
" clip-path="url(#p3c022510fe)" style="fill: #ffffff"/>
    <path d="M 89.993779 115.467769 
L 59.735124 183.190621 
" clip-path="url(#p3c022510fe)" style="fill: #ffffff"/>
    <path d="M 90.605681 115.598253 
L 90.605681 206.465196 
" clip-path="url(#p3c022510fe)" style="fill: #ffffff"/>
    <path d="M 91.217582 115.467769 
L 131.933647 206.595679 
" clip-path="url(#p3c022510fe)" style="fill: #ffffff"/>
    <path d="M 91.665851 115.159402 
L 165.415444 188.977056 
" clip-path="url(#p3c022510fe)" style="fill: #ffffff"/>
    <path d="M 56.239879 130.589927 
C 46.470472 103.81434 27.854082 123.699424 55.214726 131.684943 
C 27.854082 123.699424 46.470472 103.81434 56.239879 130.589927 
" clip-path="url(#p3c022510fe)" style="fill: #ffffff"/>
    <path d="M 56.063713 133.39476 
L 46.774992 154.18414 
" clip-path="url(#p3c022510fe)" style="fill: #ffffff"/>
    <path d="M 56.675615 133.525243 
L 56.675615 182.538205 
" clip-path="url(#p3c022510fe)" style="stroke: #000000; stroke-width: 0.789357"/>
    <path d="M 57.287517 133.39476 
L 89.993779 206.595679 
" clip-path="url(#p3c022510fe)" style="fill: #ffffff"/>
    <path d="M 57.735786 133.086393 
L 131.485378 206.904046 
" clip-path="url(#p3c022510fe)" style="fill: #ffffff"/>
    <path d="M 58.001878 132.725976 
L 165.149351 189.337472 
" clip-path="url(#p3c022510fe)" style="fill: #ffffff"/>
    <path d="M 37.220292 157.281724 
C 16.985287 147.412009 16.985287 174.651439 37.220292 164.781724 
C 16.985287 174.651439 16.985287 147.412009 37.220292 157.281724 
" clip-path="url(#p3c022510fe)" style="fill: #ffffff"/>
    <path d="M 46.774992 167.879308 
L 53.616106 183.190621 
" clip-path="url(#p3c022510fe)" style="stroke: #000000; stroke-width: 0.740576"/>
    <path d="M 49.016337 166.33747 
L 89.54551 206.904046 
" clip-path="url(#p3c022510fe)" style="fill: #ffffff"/>
    <path d="M 50.346798 164.535388 
L 131.219286 207.264463 
" clip-path="url(#p3c022510fe)" style="stroke: #000000; stroke-width: 2"/>
    <path d="M 51.014494 162.756377 
L 165.015812 189.693274 
" clip-path="url(#p3c022510fe)" style="fill: #ffffff"/>
    <path d="M 49.371171 191.739706 
C 27.854082 198.364024 46.470472 218.249108 54.496937 197.214789 
C 46.470472 218.249108 27.854082 198.364024 49.371171 191.739706 
" clip-path="url(#p3c022510fe)" style="fill: #ffffff"/>
    <path d="M 63.30693 193.541868 
L 89.279418 207.264463 
" clip-path="url(#p3c022510fe)" style="fill: #ffffff"/>
    <path d="M 63.974626 191.762858 
L 131.085746 207.620265 
" clip-path="url(#p3c022510fe)" style="fill: #ffffff"/>
    <path d="M 64.175615 190.038205 
L 164.975614 190.038205 
" clip-path="url(#p3c022510fe)" style="fill: #ffffff"/>
    <path d="M 89.565108 209.04557 
C 70.953606 230.632264 97.392524 237.187426 91.021026 209.406545 
C 97.392524 237.187426 70.953606 230.632264 89.565108 209.04557 
" clip-path="url(#p3c022510fe)" style="fill: #ffffff"/>
    <path d="M 92.105681 207.965196 
L 131.045549 207.965196 
" clip-path="url(#p3c022510fe)" style="fill: #ffffff"/>
    <path d="M 92.065483 207.620265 
L 165.015812 190.383135 
" clip-path="url(#p3c022510fe)" style="fill: #ffffff"/>
    <path d="M 132.130203 209.406545 
C 125.758705 237.187426 152.197623 230.632264 133.586121 209.04557 
C 152.197623 230.632264 125.758705 237.187426 132.130203 209.406545 
" clip-path="url(#p3c022510fe)" style="fill: #ffffff"/>
    <path d="M 133.871812 207.264463 
L 165.149351 190.738937 
" clip-path="url(#p3c022510fe)" style="fill: #ffffff"/>
    <path d="M 166.91135 191.473522 
C 176.680757 218.249108 195.297147 198.364024 167.936503 190.378505 
C 195.297147 198.364024 176.680757 218.249108 166.91135 191.473522 
" clip-path="url(#p3c022510fe)" style="fill: #ffffff"/>
   </g>
   <g id="VertexCollection_1">
    <path d="M 179.435746 162.531724 
C 179.833551 162.531724 180.215116 162.373675 180.496407 162.092384 
C 180.777697 161.811094 180.935746 161.429529 180.935746 161.031724 
C 180.935746 160.633919 180.777697 160.252354 180.496407 159.971064 
C 180.215116 159.689774 179.833551 159.531724 179.435746 159.531724 
C 179.037942 159.531724 178.656377 159.689774 178.375086 159.971064 
C 178.093796 160.252354 177.935746 160.633919 177.935746 161.031724 
C 177.935746 161.429529 178.093796 161.811094 178.375086 162.092384 
C 178.656377 162.373675 179.037942 162.531724 179.435746 162.531724 
z
" clip-path="url(#p3c022510fe)" style="fill: #fdcab5; stroke: #00ff00; stroke-width: 3"/>
    <path d="M 166.475614 139.525243 
C 168.464638 139.525243 170.372464 138.734996 171.778915 137.328544 
C 173.185367 135.922093 173.975614 134.014267 173.975614 132.025243 
C 173.975614 130.03622 173.185367 128.128394 171.778915 126.721943 
C 170.372464 125.315491 168.464638 124.525243 166.475614 124.525243 
C 164.486591 124.525243 162.578765 125.315491 161.172314 126.721943 
C 159.765862 128.128394 158.975614 130.03622 158.975614 132.025243 
C 158.975614 134.014267 159.765862 135.922093 161.172314 137.328544 
C 162.578765 138.734996 164.486591 139.525243 166.475614 139.525243 
z
" clip-path="url(#p3c022510fe)" style="fill: #6b010e; stroke: #00ff00; stroke-width: 3"/>
    <path d="M 132.545549 115.598253 
C 132.943353 115.598253 133.324918 115.440203 133.606209 115.158913 
C 133.887499 114.877622 134.045549 114.496057 134.045549 114.098253 
C 134.045549 113.700448 133.887499 113.318883 133.606209 113.037592 
C 133.324918 112.756302 132.943353 112.598253 132.545549 112.598253 
C 132.147744 112.598253 131.766179 112.756302 131.484888 113.037592 
C 131.203598 113.318883 131.045549 113.700448 131.045549 114.098253 
C 131.045549 114.496057 131.203598 114.877622 131.484888 115.158913 
C 131.766179 115.440203 132.147744 115.598253 132.545549 115.598253 
z
" clip-path="url(#p3c022510fe)" style="fill: #fdcab5; stroke: #00ff00; stroke-width: 3"/>
    <path d="M 90.605681 115.598253 
C 91.003485 115.598253 91.38505 115.440203 91.666341 115.158913 
C 91.947631 114.877622 92.105681 114.496057 92.105681 114.098253 
C 92.105681 113.700448 91.947631 113.318883 91.666341 113.037592 
C 91.38505 112.756302 91.003485 112.598253 90.605681 112.598253 
C 90.207876 112.598253 89.826311 112.756302 89.54502 113.037592 
C 89.26373 113.318883 89.105681 113.700448 89.105681 114.098253 
C 89.105681 114.496057 89.26373 114.877622 89.54502 115.158913 
C 89.826311 115.440203 90.207876 115.598253 90.605681 115.598253 
z
" clip-path="url(#p3c022510fe)" style="fill: #fdcab5; stroke: #ff0000; stroke-width: 3"/>
    <path d="M 56.675615 133.525243 
C 57.073419 133.525243 57.454985 133.367194 57.736275 133.085904 
C 58.017565 132.804613 58.175615 132.423048 58.175615 132.025243 
C 58.175615 131.627439 58.017565 131.245874 57.736275 130.964583 
C 57.454985 130.683293 57.073419 130.525243 56.675615 130.525243 
C 56.27781 130.525243 55.896245 130.683293 55.614955 130.964583 
C 55.333664 131.245874 55.175615 131.627439 55.175615 132.025243 
C 55.175615 132.423048 55.333664 132.804613 55.614955 133.085904 
C 55.896245 133.367194 56.27781 133.525243 56.675615 133.525243 
z
" clip-path="url(#p3c022510fe)" style="fill: #fdcab5; stroke: #00ff00; stroke-width: 3"/>
    <path d="M 43.715483 168.531724 
C 45.704506 168.531724 47.612332 167.741477 49.018784 166.335025 
C 50.425235 164.928573 51.215483 163.020747 51.215483 161.031724 
C 51.215483 159.042701 50.425235 157.134875 49.018784 155.728423 
C 47.612332 154.321971 45.704506 153.531724 43.715483 153.531724 
C 41.72646 153.531724 39.818634 154.321971 38.412182 155.728423 
C 37.00573 157.134875 36.215483 159.042701 36.215483 161.031724 
C 36.215483 163.020747 37.00573 164.928573 38.412182 166.335025 
C 39.818634 167.741477 41.72646 168.531724 43.715483 168.531724 
z
" clip-path="url(#p3c022510fe)" style="fill: #6b010e; stroke: #ff0000; stroke-width: 3"/>
    <path d="M 56.675615 197.538205 
C 58.664638 197.538205 60.572464 196.747957 61.978916 195.341506 
C 63.385367 193.935054 64.175615 192.027228 64.175615 190.038205 
C 64.175615 188.049182 63.385367 186.141356 61.978916 184.734904 
C 60.572464 183.328452 58.664638 182.538205 56.675615 182.538205 
C 54.686591 182.538205 52.778766 183.328452 51.372314 184.734904 
C 49.965862 186.141356 49.175615 188.049182 49.175615 190.038205 
C 49.175615 192.027228 49.965862 193.935054 51.372314 195.341506 
C 52.778766 196.747957 54.686591 197.538205 56.675615 197.538205 
z
" clip-path="url(#p3c022510fe)" style="fill: #6b010e; stroke: #00ff00; stroke-width: 3"/>
    <path d="M 90.605681 209.465196 
C 91.003485 209.465196 91.38505 209.307146 91.666341 209.025856 
C 91.947631 208.744566 92.105681 208.363 92.105681 207.965196 
C 92.105681 207.567391 91.947631 207.185826 91.666341 206.904536 
C 91.38505 206.623245 91.003485 206.465196 90.605681 206.465196 
C 90.207876 206.465196 89.826311 206.623245 89.54502 206.904536 
C 89.26373 207.185826 89.105681 207.567391 89.105681 207.965196 
C 89.105681 208.363 89.26373 208.744566 89.54502 209.025856 
C 89.826311 209.307146 90.207876 209.465196 90.605681 209.465196 
z
" clip-path="url(#p3c022510fe)" style="fill: #fdcab5; stroke: #00ff00; stroke-width: 3"/>
    <path d="M 132.545549 209.465196 
C 132.943353 209.465196 133.324918 209.307146 133.606209 209.025856 
C 133.887499 208.744566 134.045549 208.363 134.045549 207.965196 
C 134.045549 207.567391 133.887499 207.185826 133.606209 206.904536 
C 133.324918 206.623245 132.943353 206.465196 132.545549 206.465196 
C 132.147744 206.465196 131.766179 206.623245 131.484888 206.904536 
C 131.203598 207.185826 131.045549 207.567391 131.045549 207.965196 
C 131.045549 208.363 131.203598 208.744566 131.484888 209.025856 
C 131.766179 209.307146 132.147744 209.465196 132.545549 209.465196 
z
" clip-path="url(#p3c022510fe)" style="fill: #fdcab5; stroke: #00ff00; stroke-width: 3"/>
    <path d="M 166.475614 191.538205 
C 166.873419 191.538205 167.254984 191.380155 167.536275 191.098865 
C 167.817565 190.817575 167.975614 190.436009 167.975614 190.038205 
C 167.975614 189.6404 167.817565 189.258835 167.536275 188.977545 
C 167.254984 188.696254 166.873419 188.538205 166.475614 188.538205 
C 166.07781 188.538205 165.696245 188.696254 165.414954 188.977545 
C 165.133664 189.258835 164.975614 189.6404 164.975614 190.038205 
C 164.975614 190.436009 165.133664 190.817575 165.414954 191.098865 
C 165.696245 191.380155 166.07781 191.538205 166.475614 191.538205 
z
" clip-path="url(#p3c022510fe)" style="fill: #fdcab5; stroke: #00ff00; stroke-width: 3"/>
   </g>
   <g id="matplotlib.axis_1"/>
   <g id="matplotlib.axis_2"/>
  </g>
  <g id="axes_2">
   <g id="patch_3">
    <path d="M 27 356.027586 
L 194.4 356.027586 
L 194.4 241.324138 
L 27 241.324138 
z
" style="fill: #ffffff"/>
   </g>
   <g id="EdgeCollection_2">
    <path d="M 180.729172 299.425862 
C 206.160329 312.295577 206.160329 285.056147 180.729172 297.925862 
C 206.160329 285.056147 206.160329 312.295577 180.729172 299.425862 
" clip-path="url(#p70784299a0)" style="fill: #ffffff"/>
    <path d="M 178.811713 297.309276 
L 169.395947 276.50231 
" clip-path="url(#p70784299a0)" style="fill: #ffffff"/>
    <path d="M 178.363225 297.621487 
L 133.005687 252.796766 
" clip-path="url(#p70784299a0)" style="fill: #ffffff"/>
    <path d="M 178.100215 297.982092 
L 90.791139 252.43616 
" clip-path="url(#p70784299a0)" style="fill: #ffffff"/>
    <path d="M 177.969359 298.335071 
L 62.400025 271.373337 
" clip-path="url(#p70784299a0)" style="fill: #ffffff"/>
    <path d="M 177.930134 298.675862 
L 43.469866 298.675862 
" clip-path="url(#p70784299a0)" style="fill: #ffffff"/>
    <path d="M 177.969359 299.016653 
L 62.400025 325.978387 
" clip-path="url(#p70784299a0)" style="fill: #ffffff"/>
    <path d="M 178.100215 299.369632 
L 90.791139 344.915564 
" clip-path="url(#p70784299a0)" style="fill: #ffffff"/>
    <path d="M 178.363225 299.730237 
L 133.005687 344.554959 
" clip-path="url(#p70784299a0)" style="fill: #ffffff"/>
    <path d="M 178.811713 300.042448 
L 166.922266 326.315757 
" clip-path="url(#p70784299a0)" style="fill: #ffffff"/>
    <path d="M 173.599684 267.931351 
C 195.083357 261.199449 176.367699 241.407767 168.446586 262.481985 
C 176.367699 241.407767 195.083357 261.199449 173.599684 267.931351 
" clip-path="url(#p70784299a0)" style="fill: #ffffff"/>
    <path d="M 159.654253 266.200533 
L 133.268698 252.43616 
" clip-path="url(#p70784299a0)" style="stroke: #000000; stroke-width: 1.618538"/>
    <path d="M 158.999975 267.965426 
L 90.921995 252.083182 
" clip-path="url(#p70784299a0)" style="fill: #ffffff"/>
    <path d="M 158.803846 269.669381 
L 62.596154 269.669381 
" clip-path="url(#p70784299a0)" style="stroke: #000000; stroke-width: 0.87344"/>
    <path d="M 158.999975 271.373337 
L 43.430641 298.335071 
" clip-path="url(#p70784299a0)" style="fill: #ffffff"/>
    <path d="M 159.654253 273.13823 
L 61.745747 324.213495 
" clip-path="url(#p70784299a0)" style="stroke: #000000; stroke-width: 1.45098"/>
    <path d="M 160.969305 274.941257 
L 90.528129 344.554959 
" clip-path="url(#p70784299a0)" style="fill: #ffffff"/>
    <path d="M 163.211745 276.50231 
L 132.5572 344.242748 
" clip-path="url(#p70784299a0)" style="fill: #ffffff"/>
    <path d="M 166.303846 277.169381 
L 166.303846 326.182343 
" clip-path="url(#p70784299a0)" style="fill: #ffffff"/>
    <path d="M 132.976516 250.659292 
C 151.531366 229.023884 125.075355 222.538052 131.519657 250.302135 
C 125.075355 222.538052 151.531366 229.023884 132.976516 250.659292 
" clip-path="url(#p70784299a0)" style="fill: #ffffff"/>
    <path d="M 130.438779 251.74239 
L 90.961221 251.74239 
" clip-path="url(#p70784299a0)" style="fill: #ffffff"/>
    <path d="M 130.478005 252.083182 
L 62.400025 267.965426 
" clip-path="url(#p70784299a0)" style="stroke: #000000; stroke-width: 0.58467"/>
    <path d="M 130.608861 252.43616 
L 43.299785 297.982092 
" clip-path="url(#p70784299a0)" style="fill: #ffffff"/>
    <path d="M 130.871871 252.796766 
L 60.430695 322.410467 
" clip-path="url(#p70784299a0)" style="fill: #ffffff"/>
    <path d="M 131.320359 253.108976 
L 90.079641 344.242748 
" clip-path="url(#p70784299a0)" style="fill: #ffffff"/>
    <path d="M 131.938779 253.24239 
L 131.938779 344.109334 
" clip-path="url(#p70784299a0)" style="fill: #ffffff"/>
    <path d="M 132.5572 253.108976 
L 165.685426 326.315757 
" clip-path="url(#p70784299a0)" style="fill: #ffffff"/>
    <path d="M 89.880343 250.302135 
C 96.324645 222.538052 69.868634 229.023884 88.423484 250.659292 
C 69.868634 229.023884 96.324645 222.538052 89.880343 250.302135 
" clip-path="url(#p70784299a0)" style="fill: #ffffff"/>
    <path d="M 88.131302 252.43616 
L 61.745747 266.200533 
" clip-path="url(#p70784299a0)" style="fill: #ffffff"/>
    <path d="M 88.394313 252.796766 
L 43.036775 297.621487 
" clip-path="url(#p70784299a0)" style="fill: #ffffff"/>
    <path d="M 88.8428 253.108976 
L 58.188255 320.849414 
" clip-path="url(#p70784299a0)" style="fill: #ffffff"/>
    <path d="M 89.461221 253.24239 
L 89.461221 344.109334 
" clip-path="url(#p70784299a0)" style="fill: #ffffff"/>
    <path d="M 90.079641 253.108976 
L 131.320359 344.242748 
" clip-path="url(#p70784299a0)" style="fill: #ffffff"/>
    <path d="M 90.528129 252.796766 
L 165.236938 326.627968 
" clip-path="url(#p70784299a0)" style="fill: #ffffff"/>
    <path d="M 52.953414 262.481985 
C 45.032301 241.407767 26.316643 261.199449 47.800316 267.931351 
C 26.316643 261.199449 45.032301 241.407767 52.953414 262.481985 
" clip-path="url(#p70784299a0)" style="fill: #ffffff"/>
    <path d="M 52.004053 276.50231 
L 42.588287 297.309276 
" clip-path="url(#p70784299a0)" style="fill: #ffffff"/>
    <path d="M 55.096154 277.169381 
L 55.096154 320.182343 
" clip-path="url(#p70784299a0)" style="stroke: #000000; stroke-width: 0.691622"/>
    <path d="M 58.188255 276.50231 
L 88.8428 344.242748 
" clip-path="url(#p70784299a0)" style="fill: #ffffff"/>
    <path d="M 60.430695 274.941257 
L 130.871871 344.554959 
" clip-path="url(#p70784299a0)" style="fill: #ffffff"/>
    <path d="M 61.745747 273.13823 
L 164.973927 326.988573 
" clip-path="url(#p70784299a0)" style="fill: #ffffff"/>
    <path d="M 40.670828 297.925862 
C 15.239671 285.056147 15.239671 312.295577 40.670828 299.425862 
C 15.239671 312.295577 15.239671 285.056147 40.670828 297.925862 
" clip-path="url(#p70784299a0)" style="fill: #ffffff"/>
    <path d="M 42.588287 300.042448 
L 52.004053 320.849414 
" clip-path="url(#p70784299a0)" style="fill: #ffffff"/>
    <path d="M 43.036775 299.730237 
L 88.394313 344.554959 
" clip-path="url(#p70784299a0)" style="fill: #ffffff"/>
    <path d="M 43.299785 299.369632 
L 130.608861 344.915564 
" clip-path="url(#p70784299a0)" style="stroke: #000000; stroke-width: 2"/>
    <path d="M 43.430641 299.016653 
L 164.843072 327.341552 
" clip-path="url(#p70784299a0)" style="fill: #ffffff"/>
    <path d="M 47.800316 329.420373 
C 26.316643 336.152275 45.032301 355.943958 52.953414 334.869739 
C 45.032301 355.943958 26.316643 336.152275 47.800316 329.420373 
" clip-path="url(#p70784299a0)" style="fill: #ffffff"/>
    <path d="M 61.745747 331.151191 
L 88.131302 344.915564 
" clip-path="url(#p70784299a0)" style="fill: #ffffff"/>
    <path d="M 62.400025 329.386298 
L 130.478005 345.268543 
" clip-path="url(#p70784299a0)" style="stroke: #000000; stroke-width: 0.534759"/>
    <path d="M 62.596154 327.682343 
L 164.803846 327.682343 
" clip-path="url(#p70784299a0)" style="fill: #ffffff"/>
    <path d="M 88.423484 346.692432 
C 69.868634 368.32784 96.324645 374.813672 89.880343 347.049589 
C 96.324645 374.813672 69.868634 368.32784 88.423484 346.692432 
" clip-path="url(#p70784299a0)" style="fill: #ffffff"/>
    <path d="M 90.961221 345.609334 
L 130.438779 345.609334 
" clip-path="url(#p70784299a0)" style="fill: #ffffff"/>
    <path d="M 90.921995 345.268543 
L 164.843072 328.023134 
" clip-path="url(#p70784299a0)" style="fill: #ffffff"/>
    <path d="M 131.519657 347.049589 
C 125.075355 374.813672 151.531366 368.32784 132.976516 346.692432 
C 151.531366 368.32784 125.075355 374.813672 131.519657 347.049589 
" clip-path="url(#p70784299a0)" style="fill: #ffffff"/>
    <path d="M 133.268698 344.915564 
L 164.973927 328.376112 
" clip-path="url(#p70784299a0)" style="fill: #ffffff"/>
    <path d="M 166.732394 329.119822 
C 176.367699 355.943958 195.083357 336.152275 167.763014 328.029949 
C 195.083357 336.152275 176.367699 355.943958 166.732394 329.119822 
" clip-path="url(#p70784299a0)" style="fill: #ffffff"/>
   </g>
   <g id="VertexCollection_2">
    <path d="M 179.430134 300.175862 
C 179.827938 300.175862 180.209503 300.017813 180.490794 299.736522 
C 180.772084 299.455232 180.930134 299.073667 180.930134 298.675862 
C 180.930134 298.278057 180.772084 297.896492 180.490794 297.615202 
C 180.209503 297.333912 179.827938 297.175862 179.430134 297.175862 
C 179.032329 297.175862 178.650764 297.333912 178.369473 297.615202 
C 178.088183 297.896492 177.930134 298.278057 177.930134 298.675862 
C 177.930134 299.073667 178.088183 299.455232 178.369473 299.736522 
C 178.650764 300.017813 179.032329 300.175862 179.430134 300.175862 
z
" clip-path="url(#p70784299a0)" style="fill: #fdcab5; stroke: #00ff00; stroke-width: 3"/>
    <path d="M 166.303846 277.169381 
C 168.292869 277.169381 170.200695 276.379134 171.607147 274.972682 
C 173.013599 273.56623 173.803846 271.658405 173.803846 269.669381 
C 173.803846 267.680358 173.013599 265.772532 171.607147 264.366081 
C 170.200695 262.959629 168.292869 262.169381 166.303846 262.169381 
C 164.314823 262.169381 162.406997 262.959629 161.000545 264.366081 
C 159.594093 265.772532 158.803846 267.680358 158.803846 269.669381 
C 158.803846 271.658405 159.594093 273.56623 161.000545 274.972682 
C 162.406997 276.379134 164.314823 277.169381 166.303846 277.169381 
z
" clip-path="url(#p70784299a0)" style="fill: #6b010e; stroke: #00ff00; stroke-width: 3"/>
    <path d="M 131.938779 253.24239 
C 132.336584 253.24239 132.718149 253.084341 132.999439 252.803051 
C 133.28073 252.52176 133.438779 252.140195 133.438779 251.74239 
C 133.438779 251.344586 133.28073 250.963021 132.999439 250.68173 
C 132.718149 250.40044 132.336584 250.24239 131.938779 250.24239 
C 131.540975 250.24239 131.159409 250.40044 130.878119 250.68173 
C 130.596829 250.963021 130.438779 251.344586 130.438779 251.74239 
C 130.438779 252.140195 130.596829 252.52176 130.878119 252.803051 
C 131.159409 253.084341 131.540975 253.24239 131.938779 253.24239 
z
" clip-path="url(#p70784299a0)" style="fill: #fdcab5; stroke: #00ff00; stroke-width: 3"/>
    <path d="M 89.461221 253.24239 
C 89.859025 253.24239 90.240591 253.084341 90.521881 252.803051 
C 90.803171 252.52176 90.961221 252.140195 90.961221 251.74239 
C 90.961221 251.344586 90.803171 250.963021 90.521881 250.68173 
C 90.240591 250.40044 89.859025 250.24239 89.461221 250.24239 
C 89.063416 250.24239 88.681851 250.40044 88.400561 250.68173 
C 88.11927 250.963021 87.961221 251.344586 87.961221 251.74239 
C 87.961221 252.140195 88.11927 252.52176 88.400561 252.803051 
C 88.681851 253.084341 89.063416 253.24239 89.461221 253.24239 
z
" clip-path="url(#p70784299a0)" style="fill: #fdcab5; stroke: #ff0000; stroke-width: 3"/>
    <path d="M 55.096154 277.169381 
C 57.085177 277.169381 58.993003 276.379134 60.399455 274.972682 
C 61.805907 273.56623 62.596154 271.658405 62.596154 269.669381 
C 62.596154 267.680358 61.805907 265.772532 60.399455 264.366081 
C 58.993003 262.959629 57.085177 262.169381 55.096154 262.169381 
C 53.107131 262.169381 51.199305 262.959629 49.792853 264.366081 
C 48.386401 265.772532 47.596154 267.680358 47.596154 269.669381 
C 47.596154 271.658405 48.386401 273.56623 49.792853 274.972682 
C 51.199305 276.379134 53.107131 277.169381 55.096154 277.169381 
z
" clip-path="url(#p70784299a0)" style="fill: #6b010e; stroke: #00ff00; stroke-width: 3"/>
    <path d="M 41.969866 300.175862 
C 42.367671 300.175862 42.749236 300.017813 43.030527 299.736522 
C 43.311817 299.455232 43.469866 299.073667 43.469866 298.675862 
C 43.469866 298.278057 43.311817 297.896492 43.030527 297.615202 
C 42.749236 297.333912 42.367671 297.175862 41.969866 297.175862 
C 41.572062 297.175862 41.190497 297.333912 40.909206 297.615202 
C 40.627916 297.896492 40.469866 298.278057 40.469866 298.675862 
C 40.469866 299.073667 40.627916 299.455232 40.909206 299.736522 
C 41.190497 300.017813 41.572062 300.175862 41.969866 300.175862 
z
" clip-path="url(#p70784299a0)" style="fill: #fdcab5; stroke: #ff0000; stroke-width: 3"/>
    <path d="M 55.096154 335.182343 
C 57.085177 335.182343 58.993003 334.392095 60.399455 332.985644 
C 61.805907 331.579192 62.596154 329.671366 62.596154 327.682343 
C 62.596154 325.693319 61.805907 323.785494 60.399455 322.379042 
C 58.993003 320.97259 57.085177 320.182343 55.096154 320.182343 
C 53.107131 320.182343 51.199305 320.97259 49.792853 322.379042 
C 48.386401 323.785494 47.596154 325.693319 47.596154 327.682343 
C 47.596154 329.671366 48.386401 331.579192 49.792853 332.985644 
C 51.199305 334.392095 53.107131 335.182343 55.096154 335.182343 
z
" clip-path="url(#p70784299a0)" style="fill: #6b010e; stroke: #00ff00; stroke-width: 3"/>
    <path d="M 89.461221 347.109334 
C 89.859025 347.109334 90.240591 346.951284 90.521881 346.669994 
C 90.803171 346.388703 90.961221 346.007138 90.961221 345.609334 
C 90.961221 345.211529 90.803171 344.829964 90.521881 344.548673 
C 90.240591 344.267383 89.859025 344.109334 89.461221 344.109334 
C 89.063416 344.109334 88.681851 344.267383 88.400561 344.548673 
C 88.11927 344.829964 87.961221 345.211529 87.961221 345.609334 
C 87.961221 346.007138 88.11927 346.388703 88.400561 346.669994 
C 88.681851 346.951284 89.063416 347.109334 89.461221 347.109334 
z
" clip-path="url(#p70784299a0)" style="fill: #fdcab5; stroke: #00ff00; stroke-width: 3"/>
    <path d="M 131.938779 347.109334 
C 132.336584 347.109334 132.718149 346.951284 132.999439 346.669994 
C 133.28073 346.388703 133.438779 346.007138 133.438779 345.609334 
C 133.438779 345.211529 133.28073 344.829964 132.999439 344.548673 
C 132.718149 344.267383 132.336584 344.109334 131.938779 344.109334 
C 131.540975 344.109334 131.159409 344.267383 130.878119 344.548673 
C 130.596829 344.829964 130.438779 345.211529 130.438779 345.609334 
C 130.438779 346.007138 130.596829 346.388703 130.878119 346.669994 
C 131.159409 346.951284 131.540975 347.109334 131.938779 347.109334 
z
" clip-path="url(#p70784299a0)" style="fill: #fdcab5; stroke: #00ff00; stroke-width: 3"/>
    <path d="M 166.303846 329.182343 
C 166.701651 329.182343 167.083216 329.024293 167.364506 328.743003 
C 167.645797 328.461713 167.803846 328.080147 167.803846 327.682343 
C 167.803846 327.284538 167.645797 326.902973 167.364506 326.621683 
C 167.083216 326.340392 166.701651 326.182343 166.303846 326.182343 
C 165.906041 326.182343 165.524476 326.340392 165.243186 326.621683 
C 164.961895 326.902973 164.803846 327.284538 164.803846 327.682343 
C 164.803846 328.080147 164.961895 328.461713 165.243186 328.743003 
C 165.524476 329.024293 165.906041 329.182343 166.303846 329.182343 
z
" clip-path="url(#p70784299a0)" style="fill: #fdcab5; stroke: #00ff00; stroke-width: 3"/>
   </g>
   <g id="matplotlib.axis_3"/>
   <g id="matplotlib.axis_4"/>
  </g>
  <g id="axes_3">
   <g id="patch_4">
    <path d="M 27 493.671724 
L 194.4 493.671724 
L 194.4 378.968276 
L 27 378.968276 
z
" style="fill: #ffffff"/>
   </g>
   <g id="EdgeCollection_3">
    <path d="M 180.729172 437.07 
C 206.160329 449.939715 206.160329 422.700285 180.729172 435.57 
C 206.160329 422.700285 206.160329 449.939715 180.729172 437.07 
" clip-path="url(#p695e3a305d)" style="fill: #ffffff"/>
    <path d="M 178.811713 434.953414 
L 169.395947 414.146448 
" clip-path="url(#p695e3a305d)" style="fill: #ffffff"/>
    <path d="M 178.363225 435.265625 
L 133.005687 390.440904 
" clip-path="url(#p695e3a305d)" style="fill: #ffffff"/>
    <path d="M 178.100215 435.62623 
L 90.791139 390.080298 
" clip-path="url(#p695e3a305d)" style="fill: #ffffff"/>
    <path d="M 177.969359 435.979209 
L 56.556928 407.65431 
" clip-path="url(#p695e3a305d)" style="fill: #ffffff"/>
    <path d="M 177.930134 436.32 
L 43.469866 436.32 
" clip-path="url(#p695e3a305d)" style="fill: #ffffff"/>
    <path d="M 177.969359 436.660791 
L 62.400025 463.622525 
" clip-path="url(#p695e3a305d)" style="fill: #ffffff"/>
    <path d="M 178.100215 437.01377 
L 90.791139 482.559702 
" clip-path="url(#p695e3a305d)" style="fill: #ffffff"/>
    <path d="M 178.363225 437.374375 
L 133.005687 482.199096 
" clip-path="url(#p695e3a305d)" style="fill: #ffffff"/>
    <path d="M 178.811713 437.686586 
L 166.922266 463.959895 
" clip-path="url(#p695e3a305d)" style="fill: #ffffff"/>
    <path d="M 173.599684 405.575489 
C 195.083357 398.843587 176.367699 379.051905 168.446586 400.126123 
C 176.367699 379.051905 195.083357 398.843587 173.599684 405.575489 
" clip-path="url(#p695e3a305d)" style="fill: #ffffff"/>
    <path d="M 159.654253 403.844671 
L 133.268698 390.080298 
" clip-path="url(#p695e3a305d)" style="stroke: #000000; stroke-width: 0.865625"/>
    <path d="M 158.999975 405.609564 
L 90.921995 389.72732 
" clip-path="url(#p695e3a305d)" style="fill: #ffffff"/>
    <path d="M 158.803846 407.313519 
L 56.596154 407.313519 
" clip-path="url(#p695e3a305d)" style="stroke: #000000; stroke-width: 0.721875"/>
    <path d="M 158.999975 409.017475 
L 43.430641 435.979209 
" clip-path="url(#p695e3a305d)" style="fill: #ffffff"/>
    <path d="M 159.654253 410.782368 
L 61.745747 461.857632 
" clip-path="url(#p695e3a305d)" style="stroke: #000000; stroke-width: 1.525"/>
    <path d="M 160.969305 412.585395 
L 90.528129 482.199096 
" clip-path="url(#p695e3a305d)" style="fill: #ffffff"/>
    <path d="M 163.211745 414.146448 
L 132.5572 481.886886 
" clip-path="url(#p695e3a305d)" style="fill: #ffffff"/>
    <path d="M 166.303846 414.813519 
L 166.303846 463.826481 
" clip-path="url(#p695e3a305d)" style="fill: #ffffff"/>
    <path d="M 132.976516 388.30343 
C 151.531366 366.668022 125.075355 360.18219 131.519657 387.946273 
C 125.075355 360.18219 151.531366 366.668022 132.976516 388.30343 
" clip-path="url(#p695e3a305d)" style="fill: #ffffff"/>
    <path d="M 130.438779 389.386528 
L 90.961221 389.386528 
" clip-path="url(#p695e3a305d)" style="fill: #ffffff"/>
    <path d="M 130.478005 389.72732 
L 56.556928 406.972728 
" clip-path="url(#p695e3a305d)" style="fill: #ffffff"/>
    <path d="M 130.608861 390.080298 
L 43.299785 435.62623 
" clip-path="url(#p695e3a305d)" style="fill: #ffffff"/>
    <path d="M 130.871871 390.440904 
L 60.430695 460.054605 
" clip-path="url(#p695e3a305d)" style="fill: #ffffff"/>
    <path d="M 131.320359 390.753114 
L 90.079641 481.886886 
" clip-path="url(#p695e3a305d)" style="fill: #ffffff"/>
    <path d="M 131.938779 390.886528 
L 131.938779 481.753472 
" clip-path="url(#p695e3a305d)" style="fill: #ffffff"/>
    <path d="M 132.5572 390.753114 
L 165.685426 463.959895 
" clip-path="url(#p695e3a305d)" style="fill: #ffffff"/>
    <path d="M 89.880343 387.946273 
C 96.324645 360.18219 69.868634 366.668022 88.423484 388.30343 
C 69.868634 366.668022 96.324645 360.18219 89.880343 387.946273 
" clip-path="url(#p695e3a305d)" style="fill: #ffffff"/>
    <path d="M 88.131302 390.080298 
L 56.426073 406.61975 
" clip-path="url(#p695e3a305d)" style="fill: #ffffff"/>
    <path d="M 88.394313 390.440904 
L 43.036775 435.265625 
" clip-path="url(#p695e3a305d)" style="fill: #ffffff"/>
    <path d="M 88.8428 390.753114 
L 58.188255 458.493552 
" clip-path="url(#p695e3a305d)" style="fill: #ffffff"/>
    <path d="M 89.461221 390.886528 
L 89.461221 481.753472 
" clip-path="url(#p695e3a305d)" style="fill: #ffffff"/>
    <path d="M 90.079641 390.753114 
L 131.320359 481.886886 
" clip-path="url(#p695e3a305d)" style="fill: #ffffff"/>
    <path d="M 90.528129 390.440904 
L 165.236938 464.272105 
" clip-path="url(#p695e3a305d)" style="fill: #ffffff"/>
    <path d="M 54.667606 405.87604 
C 45.032301 379.051905 26.316643 398.843587 53.636986 406.965913 
C 26.316643 398.843587 45.032301 379.051905 54.667606 405.87604 
" clip-path="url(#p695e3a305d)" style="fill: #ffffff"/>
    <path d="M 54.477734 408.680105 
L 42.588287 434.953414 
" clip-path="url(#p695e3a305d)" style="fill: #ffffff"/>
    <path d="M 55.096154 408.813519 
L 55.096154 457.826481 
" clip-path="url(#p695e3a305d)" style="stroke: #000000; stroke-width: 0.596875"/>
    <path d="M 55.714574 408.680105 
L 88.8428 481.886886 
" clip-path="url(#p695e3a305d)" style="fill: #ffffff"/>
    <path d="M 56.163062 408.367895 
L 130.871871 482.199096 
" clip-path="url(#p695e3a305d)" style="fill: #ffffff"/>
    <path d="M 56.426073 408.007289 
L 164.973927 464.632711 
" clip-path="url(#p695e3a305d)" style="fill: #ffffff"/>
    <path d="M 40.670828 435.57 
C 15.239671 422.700285 15.239671 449.939715 40.670828 437.07 
C 15.239671 449.939715 15.239671 422.700285 40.670828 435.57 
" clip-path="url(#p695e3a305d)" style="fill: #ffffff"/>
    <path d="M 42.588287 437.686586 
L 52.004053 458.493552 
" clip-path="url(#p695e3a305d)" style="stroke: #000000; stroke-width: 0.765625"/>
    <path d="M 43.036775 437.374375 
L 88.394313 482.199096 
" clip-path="url(#p695e3a305d)" style="fill: #ffffff"/>
    <path d="M 43.299785 437.01377 
L 130.608861 482.559702 
" clip-path="url(#p695e3a305d)" style="stroke: #000000; stroke-width: 2"/>
    <path d="M 43.430641 436.660791 
L 164.843072 464.98569 
" clip-path="url(#p695e3a305d)" style="fill: #ffffff"/>
    <path d="M 47.800316 467.064511 
C 26.316643 473.796413 45.032301 493.588095 52.953414 472.513877 
C 45.032301 493.588095 26.316643 473.796413 47.800316 467.064511 
" clip-path="url(#p695e3a305d)" style="fill: #ffffff"/>
    <path d="M 61.745747 468.795329 
L 88.131302 482.559702 
" clip-path="url(#p695e3a305d)" style="fill: #ffffff"/>
    <path d="M 62.400025 467.030436 
L 130.478005 482.91268 
" clip-path="url(#p695e3a305d)" style="fill: #ffffff"/>
    <path d="M 62.596154 465.326481 
L 164.803846 465.326481 
" clip-path="url(#p695e3a305d)" style="fill: #ffffff"/>
    <path d="M 88.423484 484.33657 
C 69.868634 505.971978 96.324645 512.45781 89.880343 484.693727 
C 96.324645 512.45781 69.868634 505.971978 88.423484 484.33657 
" clip-path="url(#p695e3a305d)" style="fill: #ffffff"/>
    <path d="M 90.961221 483.253472 
L 130.438779 483.253472 
" clip-path="url(#p695e3a305d)" style="fill: #ffffff"/>
    <path d="M 90.921995 482.91268 
L 164.843072 465.667272 
" clip-path="url(#p695e3a305d)" style="fill: #ffffff"/>
    <path d="M 131.519657 484.693727 
C 125.075355 512.45781 151.531366 505.971978 132.976516 484.33657 
C 151.531366 505.971978 125.075355 512.45781 131.519657 484.693727 
" clip-path="url(#p695e3a305d)" style="fill: #ffffff"/>
    <path d="M 133.268698 482.559702 
L 164.973927 466.02025 
" clip-path="url(#p695e3a305d)" style="fill: #ffffff"/>
    <path d="M 166.732394 466.76396 
C 176.367699 493.588095 195.083357 473.796413 167.763014 465.674087 
C 195.083357 473.796413 176.367699 493.588095 166.732394 466.76396 
" clip-path="url(#p695e3a305d)" style="fill: #ffffff"/>
   </g>
   <g id="VertexCollection_3">
    <path d="M 179.430134 437.82 
C 179.827938 437.82 180.209503 437.661951 180.490794 437.38066 
C 180.772084 437.09937 180.930134 436.717805 180.930134 436.32 
C 180.930134 435.922195 180.772084 435.54063 180.490794 435.25934 
C 180.209503 434.978049 179.827938 434.82 179.430134 434.82 
C 179.032329 434.82 178.650764 434.978049 178.369473 435.25934 
C 178.088183 435.54063 177.930134 435.922195 177.930134 436.32 
C 177.930134 436.717805 178.088183 437.09937 178.369473 437.38066 
C 178.650764 437.661951 179.032329 437.82 179.430134 437.82 
z
" clip-path="url(#p695e3a305d)" style="fill: #fdcab5; stroke: #00ff00; stroke-width: 3"/>
    <path d="M 166.303846 414.813519 
C 168.292869 414.813519 170.200695 414.023272 171.607147 412.61682 
C 173.013599 411.210368 173.803846 409.302543 173.803846 407.313519 
C 173.803846 405.324496 173.013599 403.41667 171.607147 402.010218 
C 170.200695 400.603767 168.292869 399.813519 166.303846 399.813519 
C 164.314823 399.813519 162.406997 400.603767 161.000545 402.010218 
C 159.594093 403.41667 158.803846 405.324496 158.803846 407.313519 
C 158.803846 409.302543 159.594093 411.210368 161.000545 412.61682 
C 162.406997 414.023272 164.314823 414.813519 166.303846 414.813519 
z
" clip-path="url(#p695e3a305d)" style="fill: #6b010e; stroke: #00ff00; stroke-width: 3"/>
    <path d="M 131.938779 390.886528 
C 132.336584 390.886528 132.718149 390.728479 132.999439 390.447189 
C 133.28073 390.165898 133.438779 389.784333 133.438779 389.386528 
C 133.438779 388.988724 133.28073 388.607159 132.999439 388.325868 
C 132.718149 388.044578 132.336584 387.886528 131.938779 387.886528 
C 131.540975 387.886528 131.159409 388.044578 130.878119 388.325868 
C 130.596829 388.607159 130.438779 388.988724 130.438779 389.386528 
C 130.438779 389.784333 130.596829 390.165898 130.878119 390.447189 
C 131.159409 390.728479 131.540975 390.886528 131.938779 390.886528 
z
" clip-path="url(#p695e3a305d)" style="fill: #fdcab5; stroke: #00ff00; stroke-width: 3"/>
    <path d="M 89.461221 390.886528 
C 89.859025 390.886528 90.240591 390.728479 90.521881 390.447189 
C 90.803171 390.165898 90.961221 389.784333 90.961221 389.386528 
C 90.961221 388.988724 90.803171 388.607159 90.521881 388.325868 
C 90.240591 388.044578 89.859025 387.886528 89.461221 387.886528 
C 89.063416 387.886528 88.681851 388.044578 88.400561 388.325868 
C 88.11927 388.607159 87.961221 388.988724 87.961221 389.386528 
C 87.961221 389.784333 88.11927 390.165898 88.400561 390.447189 
C 88.681851 390.728479 89.063416 390.886528 89.461221 390.886528 
z
" clip-path="url(#p695e3a305d)" style="fill: #fdcab5; stroke: #ff0000; stroke-width: 3"/>
    <path d="M 55.096154 408.813519 
C 55.493959 408.813519 55.875524 408.65547 56.156814 408.37418 
C 56.438105 408.092889 56.596154 407.711324 56.596154 407.313519 
C 56.596154 406.915715 56.438105 406.53415 56.156814 406.252859 
C 55.875524 405.971569 55.493959 405.813519 55.096154 405.813519 
C 54.698349 405.813519 54.316784 405.971569 54.035494 406.252859 
C 53.754203 406.53415 53.596154 406.915715 53.596154 407.313519 
C 53.596154 407.711324 53.754203 408.092889 54.035494 408.37418 
C 54.316784 408.65547 54.698349 408.813519 55.096154 408.813519 
z
" clip-path="url(#p695e3a305d)" style="fill: #fdcab5; stroke: #00ff00; stroke-width: 3"/>
    <path d="M 41.969866 437.82 
C 42.367671 437.82 42.749236 437.661951 43.030527 437.38066 
C 43.311817 437.09937 43.469866 436.717805 43.469866 436.32 
C 43.469866 435.922195 43.311817 435.54063 43.030527 435.25934 
C 42.749236 434.978049 42.367671 434.82 41.969866 434.82 
C 41.572062 434.82 41.190497 434.978049 40.909206 435.25934 
C 40.627916 435.54063 40.469866 435.922195 40.469866 436.32 
C 40.469866 436.717805 40.627916 437.09937 40.909206 437.38066 
C 41.190497 437.661951 41.572062 437.82 41.969866 437.82 
z
" clip-path="url(#p695e3a305d)" style="fill: #fdcab5; stroke: #ff0000; stroke-width: 3"/>
    <path d="M 55.096154 472.826481 
C 57.085177 472.826481 58.993003 472.036233 60.399455 470.629782 
C 61.805907 469.22333 62.596154 467.315504 62.596154 465.326481 
C 62.596154 463.337457 61.805907 461.429632 60.399455 460.02318 
C 58.993003 458.616728 57.085177 457.826481 55.096154 457.826481 
C 53.107131 457.826481 51.199305 458.616728 49.792853 460.02318 
C 48.386401 461.429632 47.596154 463.337457 47.596154 465.326481 
C 47.596154 467.315504 48.386401 469.22333 49.792853 470.629782 
C 51.199305 472.036233 53.107131 472.826481 55.096154 472.826481 
z
" clip-path="url(#p695e3a305d)" style="fill: #6b010e; stroke: #00ff00; stroke-width: 3"/>
    <path d="M 89.461221 484.753472 
C 89.859025 484.753472 90.240591 484.595422 90.521881 484.314132 
C 90.803171 484.032841 90.961221 483.651276 90.961221 483.253472 
C 90.961221 482.855667 90.803171 482.474102 90.521881 482.192811 
C 90.240591 481.911521 89.859025 481.753472 89.461221 481.753472 
C 89.063416 481.753472 88.681851 481.911521 88.400561 482.192811 
C 88.11927 482.474102 87.961221 482.855667 87.961221 483.253472 
C 87.961221 483.651276 88.11927 484.032841 88.400561 484.314132 
C 88.681851 484.595422 89.063416 484.753472 89.461221 484.753472 
z
" clip-path="url(#p695e3a305d)" style="fill: #fdcab5; stroke: #00ff00; stroke-width: 3"/>
    <path d="M 131.938779 484.753472 
C 132.336584 484.753472 132.718149 484.595422 132.999439 484.314132 
C 133.28073 484.032841 133.438779 483.651276 133.438779 483.253472 
C 133.438779 482.855667 133.28073 482.474102 132.999439 482.192811 
C 132.718149 481.911521 132.336584 481.753472 131.938779 481.753472 
C 131.540975 481.753472 131.159409 481.911521 130.878119 482.192811 
C 130.596829 482.474102 130.438779 482.855667 130.438779 483.253472 
C 130.438779 483.651276 130.596829 484.032841 130.878119 484.314132 
C 131.159409 484.595422 131.540975 484.753472 131.938779 484.753472 
z
" clip-path="url(#p695e3a305d)" style="fill: #fdcab5; stroke: #00ff00; stroke-width: 3"/>
    <path d="M 166.303846 466.826481 
C 166.701651 466.826481 167.083216 466.668431 167.364506 466.387141 
C 167.645797 466.10585 167.803846 465.724285 167.803846 465.326481 
C 167.803846 464.928676 167.645797 464.547111 167.364506 464.26582 
C 167.083216 463.98453 166.701651 463.826481 166.303846 463.826481 
C 165.906041 463.826481 165.524476 463.98453 165.243186 464.26582 
C 164.961895 464.547111 164.803846 464.928676 164.803846 465.326481 
C 164.803846 465.724285 164.961895 466.10585 165.243186 466.387141 
C 165.524476 466.668431 165.906041 466.826481 166.303846 466.826481 
z
" clip-path="url(#p695e3a305d)" style="fill: #fdcab5; stroke: #00ff00; stroke-width: 3"/>
   </g>
   <g id="matplotlib.axis_5"/>
   <g id="matplotlib.axis_6"/>
  </g>
  <g id="axes_4">
   <g id="patch_5">
    <path d="M 27 631.315862 
L 194.4 631.315862 
L 194.4 516.612414 
L 27 516.612414 
z
" style="fill: #ffffff"/>
   </g>
   <g id="EdgeCollection_4">
    <path d="M 180.734785 574.714138 
C 206.165942 587.583853 206.165942 560.344423 180.734785 573.214138 
C 206.165942 560.344423 206.165942 587.583853 180.734785 574.714138 
" clip-path="url(#p6afd1f6da6)" style="fill: #ffffff"/>
    <path d="M 178.823845 572.594621 
L 169.535124 551.805241 
" clip-path="url(#p6afd1f6da6)" style="fill: #ffffff"/>
    <path d="M 178.375576 572.902989 
L 133.605719 528.091816 
" clip-path="url(#p6afd1f6da6)" style="fill: #ffffff"/>
    <path d="M 178.109483 573.263405 
L 91.931944 527.731399 
" clip-path="url(#p6afd1f6da6)" style="fill: #ffffff"/>
    <path d="M 177.975944 573.619207 
L 63.974626 546.68231 
" clip-path="url(#p6afd1f6da6)" style="fill: #ffffff"/>
    <path d="M 177.935746 573.964138 
L 51.215483 573.964138 
" clip-path="url(#p6afd1f6da6)" style="fill: #ffffff"/>
    <path d="M 177.975944 574.309069 
L 58.135417 602.625688 
" clip-path="url(#p6afd1f6da6)" style="fill: #ffffff"/>
    <path d="M 178.109483 574.664871 
L 91.931944 620.196877 
" clip-path="url(#p6afd1f6da6)" style="fill: #ffffff"/>
    <path d="M 178.375576 575.025287 
L 133.605719 619.83646 
" clip-path="url(#p6afd1f6da6)" style="fill: #ffffff"/>
    <path d="M 178.823845 575.333655 
L 167.087516 601.601102 
" clip-path="url(#p6afd1f6da6)" style="fill: #ffffff"/>
    <path d="M 173.780058 543.256156 
C 195.297147 536.631838 176.680757 516.746754 168.654292 537.781073 
C 176.680757 516.746754 195.297147 536.631838 173.780058 543.256156 
" clip-path="url(#p6afd1f6da6)" style="fill: #ffffff"/>
    <path d="M 159.844299 541.453994 
L 133.871812 527.731399 
" clip-path="url(#p6afd1f6da6)" style="fill: #ffffff"/>
    <path d="M 159.176603 543.233004 
L 92.065483 527.375597 
" clip-path="url(#p6afd1f6da6)" style="fill: #ffffff"/>
    <path d="M 158.975614 544.957657 
L 64.175615 544.957657 
" clip-path="url(#p6afd1f6da6)" style="stroke: #000000; stroke-width: 0.788546"/>
    <path d="M 159.176603 546.68231 
L 51.014494 572.239485 
" clip-path="url(#p6afd1f6da6)" style="stroke: #000000; stroke-width: 0.60793"/>
    <path d="M 159.844299 548.461321 
L 58.001878 602.269886 
" clip-path="url(#p6afd1f6da6)" style="stroke: #000000; stroke-width: 1.396476"/>
    <path d="M 161.17476 550.263404 
L 91.665851 619.83646 
" clip-path="url(#p6afd1f6da6)" style="fill: #ffffff"/>
    <path d="M 163.416105 551.805241 
L 133.15745 619.528093 
" clip-path="url(#p6afd1f6da6)" style="fill: #ffffff"/>
    <path d="M 166.475614 552.457657 
L 166.475614 601.470619 
" clip-path="url(#p6afd1f6da6)" style="fill: #ffffff"/>
    <path d="M 133.586121 525.950292 
C 152.197623 504.363598 125.758705 497.808436 132.130203 525.589317 
C 125.758705 497.808436 152.197623 504.363598 133.586121 525.950292 
" clip-path="url(#p6afd1f6da6)" style="fill: #ffffff"/>
    <path d="M 131.045549 527.030666 
L 92.105681 527.030666 
" clip-path="url(#p6afd1f6da6)" style="fill: #ffffff"/>
    <path d="M 131.085746 527.375597 
L 63.974626 543.233004 
" clip-path="url(#p6afd1f6da6)" style="fill: #ffffff"/>
    <path d="M 131.219286 527.731399 
L 50.346798 570.460475 
" clip-path="url(#p6afd1f6da6)" style="fill: #ffffff"/>
    <path d="M 131.485378 528.091816 
L 57.735786 601.909469 
" clip-path="url(#p6afd1f6da6)" style="fill: #ffffff"/>
    <path d="M 131.933647 528.400183 
L 91.217582 619.528093 
" clip-path="url(#p6afd1f6da6)" style="fill: #ffffff"/>
    <path d="M 132.545549 528.530666 
L 132.545549 619.39761 
" clip-path="url(#p6afd1f6da6)" style="fill: #ffffff"/>
    <path d="M 133.15745 528.400183 
L 165.863713 601.601102 
" clip-path="url(#p6afd1f6da6)" style="fill: #ffffff"/>
    <path d="M 91.021026 525.589317 
C 97.392524 497.808436 70.953606 504.363598 89.565108 525.950292 
C 70.953606 504.363598 97.392524 497.808436 91.021026 525.589317 
" clip-path="url(#p6afd1f6da6)" style="fill: #ffffff"/>
    <path d="M 89.279418 527.731399 
L 63.30693 541.453994 
" clip-path="url(#p6afd1f6da6)" style="fill: #ffffff"/>
    <path d="M 89.54551 528.091816 
L 49.016337 568.658392 
" clip-path="url(#p6afd1f6da6)" style="fill: #ffffff"/>
    <path d="M 89.993779 528.400183 
L 57.287517 601.601102 
" clip-path="url(#p6afd1f6da6)" style="fill: #ffffff"/>
    <path d="M 90.605681 528.530666 
L 90.605681 619.39761 
" clip-path="url(#p6afd1f6da6)" style="fill: #ffffff"/>
    <path d="M 91.217582 528.400183 
L 131.933647 619.528093 
" clip-path="url(#p6afd1f6da6)" style="fill: #ffffff"/>
    <path d="M 91.665851 528.091816 
L 165.415444 601.909469 
" clip-path="url(#p6afd1f6da6)" style="fill: #ffffff"/>
    <path d="M 54.496937 537.781073 
C 46.470472 516.746754 27.854082 536.631838 49.371171 543.256156 
C 27.854082 536.631838 46.470472 516.746754 54.496937 537.781073 
" clip-path="url(#p6afd1f6da6)" style="fill: #ffffff"/>
    <path d="M 53.616106 551.805241 
L 46.774992 567.116554 
" clip-path="url(#p6afd1f6da6)" style="stroke: #000000; stroke-width: 0.572687"/>
    <path d="M 56.675615 552.457657 
L 56.675615 601.470619 
" clip-path="url(#p6afd1f6da6)" style="stroke: #000000; stroke-width: 0.700441"/>
    <path d="M 59.735124 551.805241 
L 89.993779 619.528093 
" clip-path="url(#p6afd1f6da6)" style="fill: #ffffff"/>
    <path d="M 61.976469 550.263404 
L 131.485378 619.83646 
" clip-path="url(#p6afd1f6da6)" style="fill: #ffffff"/>
    <path d="M 63.30693 548.461321 
L 165.149351 602.269886 
" clip-path="url(#p6afd1f6da6)" style="fill: #ffffff"/>
    <path d="M 37.220292 570.214138 
C 16.985287 560.344423 16.985287 587.583853 37.220292 577.714138 
C 16.985287 587.583853 16.985287 560.344423 37.220292 570.214138 
" clip-path="url(#p6afd1f6da6)" style="fill: #ffffff"/>
    <path d="M 46.774992 580.811722 
L 56.063713 601.601102 
" clip-path="url(#p6afd1f6da6)" style="fill: #ffffff"/>
    <path d="M 49.016337 579.269884 
L 89.54551 619.83646 
" clip-path="url(#p6afd1f6da6)" style="fill: #ffffff"/>
    <path d="M 50.346798 577.467801 
L 131.219286 620.196877 
" clip-path="url(#p6afd1f6da6)" style="stroke: #000000; stroke-width: 2"/>
    <path d="M 51.014494 575.688791 
L 165.015812 602.625688 
" clip-path="url(#p6afd1f6da6)" style="fill: #ffffff"/>
    <path d="M 55.214726 603.310919 
C 27.854082 611.296438 46.470472 631.181522 56.239879 604.405935 
C 46.470472 631.181522 27.854082 611.296438 55.214726 603.310919 
" clip-path="url(#p6afd1f6da6)" style="fill: #ffffff"/>
    <path d="M 58.001878 603.671351 
L 89.279418 620.196877 
" clip-path="url(#p6afd1f6da6)" style="fill: #ffffff"/>
    <path d="M 58.135417 603.315549 
L 131.085746 620.552679 
" clip-path="url(#p6afd1f6da6)" style="fill: #ffffff"/>
    <path d="M 58.175615 602.970619 
L 164.975614 602.970619 
" clip-path="url(#p6afd1f6da6)" style="fill: #ffffff"/>
    <path d="M 89.565108 621.977984 
C 70.953606 643.564677 97.392524 650.11984 91.021026 622.338959 
C 97.392524 650.11984 70.953606 643.564677 89.565108 621.977984 
" clip-path="url(#p6afd1f6da6)" style="fill: #ffffff"/>
    <path d="M 92.105681 620.89761 
L 131.045549 620.89761 
" clip-path="url(#p6afd1f6da6)" style="fill: #ffffff"/>
    <path d="M 92.065483 620.552679 
L 165.015812 603.315549 
" clip-path="url(#p6afd1f6da6)" style="fill: #ffffff"/>
    <path d="M 132.130203 622.338959 
C 125.758705 650.11984 152.197623 643.564677 133.586121 621.977984 
C 152.197623 643.564677 125.758705 650.11984 132.130203 622.338959 
" clip-path="url(#p6afd1f6da6)" style="fill: #ffffff"/>
    <path d="M 133.871812 620.196877 
L 165.149351 603.671351 
" clip-path="url(#p6afd1f6da6)" style="fill: #ffffff"/>
    <path d="M 166.91135 604.405935 
C 176.680757 631.181522 195.297147 611.296438 167.936503 603.310919 
C 195.297147 611.296438 176.680757 631.181522 166.91135 604.405935 
" clip-path="url(#p6afd1f6da6)" style="fill: #ffffff"/>
   </g>
   <g id="VertexCollection_4">
    <path d="M 179.435746 575.464138 
C 179.833551 575.464138 180.215116 575.306088 180.496407 575.024798 
C 180.777697 574.743508 180.935746 574.361943 180.935746 573.964138 
C 180.935746 573.566333 180.777697 573.184768 180.496407 572.903478 
C 180.215116 572.622187 179.833551 572.464138 179.435746 572.464138 
C 179.037942 572.464138 178.656377 572.622187 178.375086 572.903478 
C 178.093796 573.184768 177.935746 573.566333 177.935746 573.964138 
C 177.935746 574.361943 178.093796 574.743508 178.375086 575.024798 
C 178.656377 575.306088 179.037942 575.464138 179.435746 575.464138 
z
" clip-path="url(#p6afd1f6da6)" style="fill: #fdcab5; stroke: #00ff00; stroke-width: 3"/>
    <path d="M 166.475614 552.457657 
C 168.464638 552.457657 170.372464 551.66741 171.778915 550.260958 
C 173.185367 548.854506 173.975614 546.946681 173.975614 544.957657 
C 173.975614 542.968634 173.185367 541.060808 171.778915 539.654356 
C 170.372464 538.247905 168.464638 537.457657 166.475614 537.457657 
C 164.486591 537.457657 162.578765 538.247905 161.172314 539.654356 
C 159.765862 541.060808 158.975614 542.968634 158.975614 544.957657 
C 158.975614 546.946681 159.765862 548.854506 161.172314 550.260958 
C 162.578765 551.66741 164.486591 552.457657 166.475614 552.457657 
z
" clip-path="url(#p6afd1f6da6)" style="fill: #6b010e; stroke: #00ff00; stroke-width: 3"/>
    <path d="M 132.545549 528.530666 
C 132.943353 528.530666 133.324918 528.372617 133.606209 528.091327 
C 133.887499 527.810036 134.045549 527.428471 134.045549 527.030666 
C 134.045549 526.632862 133.887499 526.251297 133.606209 525.970006 
C 133.324918 525.688716 132.943353 525.530666 132.545549 525.530666 
C 132.147744 525.530666 131.766179 525.688716 131.484888 525.970006 
C 131.203598 526.251297 131.045549 526.632862 131.045549 527.030666 
C 131.045549 527.428471 131.203598 527.810036 131.484888 528.091327 
C 131.766179 528.372617 132.147744 528.530666 132.545549 528.530666 
z
" clip-path="url(#p6afd1f6da6)" style="fill: #fdcab5; stroke: #00ff00; stroke-width: 3"/>
    <path d="M 90.605681 528.530666 
C 91.003485 528.530666 91.38505 528.372617 91.666341 528.091327 
C 91.947631 527.810036 92.105681 527.428471 92.105681 527.030666 
C 92.105681 526.632862 91.947631 526.251297 91.666341 525.970006 
C 91.38505 525.688716 91.003485 525.530666 90.605681 525.530666 
C 90.207876 525.530666 89.826311 525.688716 89.54502 525.970006 
C 89.26373 526.251297 89.105681 526.632862 89.105681 527.030666 
C 89.105681 527.428471 89.26373 527.810036 89.54502 528.091327 
C 89.826311 528.372617 90.207876 528.530666 90.605681 528.530666 
z
" clip-path="url(#p6afd1f6da6)" style="fill: #fdcab5; stroke: #ff0000; stroke-width: 3"/>
    <path d="M 56.675615 552.457657 
C 58.664638 552.457657 60.572464 551.66741 61.978916 550.260958 
C 63.385367 548.854506 64.175615 546.946681 64.175615 544.957657 
C 64.175615 542.968634 63.385367 541.060808 61.978916 539.654356 
C 60.572464 538.247905 58.664638 537.457657 56.675615 537.457657 
C 54.686591 537.457657 52.778766 538.247905 51.372314 539.654356 
C 49.965862 541.060808 49.175615 542.968634 49.175615 544.957657 
C 49.175615 546.946681 49.965862 548.854506 51.372314 550.260958 
C 52.778766 551.66741 54.686591 552.457657 56.675615 552.457657 
z
" clip-path="url(#p6afd1f6da6)" style="fill: #6b010e; stroke: #00ff00; stroke-width: 3"/>
    <path d="M 43.715483 581.464138 
C 45.704506 581.464138 47.612332 580.673891 49.018784 579.267439 
C 50.425235 577.860987 51.215483 575.953161 51.215483 573.964138 
C 51.215483 571.975115 50.425235 570.067289 49.018784 568.660837 
C 47.612332 567.254385 45.704506 566.464138 43.715483 566.464138 
C 41.72646 566.464138 39.818634 567.254385 38.412182 568.660837 
C 37.00573 570.067289 36.215483 571.975115 36.215483 573.964138 
C 36.215483 575.953161 37.00573 577.860987 38.412182 579.267439 
C 39.818634 580.673891 41.72646 581.464138 43.715483 581.464138 
z
" clip-path="url(#p6afd1f6da6)" style="fill: #6b010e; stroke: #ff0000; stroke-width: 3"/>
    <path d="M 56.675615 604.470619 
C 57.073419 604.470619 57.454985 604.312569 57.736275 604.031279 
C 58.017565 603.749988 58.175615 603.368423 58.175615 602.970619 
C 58.175615 602.572814 58.017565 602.191249 57.736275 601.909958 
C 57.454985 601.628668 57.073419 601.470619 56.675615 601.470619 
C 56.27781 601.470619 55.896245 601.628668 55.614955 601.909958 
C 55.333664 602.191249 55.175615 602.572814 55.175615 602.970619 
C 55.175615 603.368423 55.333664 603.749988 55.614955 604.031279 
C 55.896245 604.312569 56.27781 604.470619 56.675615 604.470619 
z
" clip-path="url(#p6afd1f6da6)" style="fill: #fdcab5; stroke: #00ff00; stroke-width: 3"/>
    <path d="M 90.605681 622.39761 
C 91.003485 622.39761 91.38505 622.23956 91.666341 621.95827 
C 91.947631 621.676979 92.105681 621.295414 92.105681 620.89761 
C 92.105681 620.499805 91.947631 620.11824 91.666341 619.836949 
C 91.38505 619.555659 91.003485 619.39761 90.605681 619.39761 
C 90.207876 619.39761 89.826311 619.555659 89.54502 619.836949 
C 89.26373 620.11824 89.105681 620.499805 89.105681 620.89761 
C 89.105681 621.295414 89.26373 621.676979 89.54502 621.95827 
C 89.826311 622.23956 90.207876 622.39761 90.605681 622.39761 
z
" clip-path="url(#p6afd1f6da6)" style="fill: #fdcab5; stroke: #00ff00; stroke-width: 3"/>
    <path d="M 132.545549 622.39761 
C 132.943353 622.39761 133.324918 622.23956 133.606209 621.95827 
C 133.887499 621.676979 134.045549 621.295414 134.045549 620.89761 
C 134.045549 620.499805 133.887499 620.11824 133.606209 619.836949 
C 133.324918 619.555659 132.943353 619.39761 132.545549 619.39761 
C 132.147744 619.39761 131.766179 619.555659 131.484888 619.836949 
C 131.203598 620.11824 131.045549 620.499805 131.045549 620.89761 
C 131.045549 621.295414 131.203598 621.676979 131.484888 621.95827 
C 131.766179 622.23956 132.147744 622.39761 132.545549 622.39761 
z
" clip-path="url(#p6afd1f6da6)" style="fill: #fdcab5; stroke: #00ff00; stroke-width: 3"/>
    <path d="M 166.475614 604.470619 
C 166.873419 604.470619 167.254984 604.312569 167.536275 604.031279 
C 167.817565 603.749988 167.975614 603.368423 167.975614 602.970619 
C 167.975614 602.572814 167.817565 602.191249 167.536275 601.909958 
C 167.254984 601.628668 166.873419 601.470619 166.475614 601.470619 
C 166.07781 601.470619 165.696245 601.628668 165.414954 601.909958 
C 165.133664 602.191249 164.975614 602.572814 164.975614 602.970619 
C 164.975614 603.368423 165.133664 603.749988 165.414954 604.031279 
C 165.696245 604.312569 166.07781 604.470619 166.475614 604.470619 
z
" clip-path="url(#p6afd1f6da6)" style="fill: #fdcab5; stroke: #00ff00; stroke-width: 3"/>
   </g>
   <g id="matplotlib.axis_7"/>
   <g id="matplotlib.axis_8"/>
  </g>
  <g id="axes_5">
   <g id="patch_6">
    <path d="M 27 768.96 
L 194.4 768.96 
L 194.4 654.256552 
L 27 654.256552 
z
" style="fill: #ffffff"/>
   </g>
   <g id="EdgeCollection_5">
    <path d="M 180.734785 712.358276 
C 206.165942 725.227991 206.165942 697.988561 180.734785 710.858276 
C 206.165942 697.988561 206.165942 725.227991 180.734785 712.358276 
" clip-path="url(#p01a7a96bc3)" style="fill: #ffffff"/>
    <path d="M 178.823845 710.238759 
L 169.535124 689.449379 
" clip-path="url(#p01a7a96bc3)" style="fill: #ffffff"/>
    <path d="M 178.375576 710.547127 
L 133.605719 665.735954 
" clip-path="url(#p01a7a96bc3)" style="fill: #ffffff"/>
    <path d="M 178.109483 710.907543 
L 91.931944 665.375537 
" clip-path="url(#p01a7a96bc3)" style="fill: #ffffff"/>
    <path d="M 177.975944 711.263345 
L 58.135417 682.946726 
" clip-path="url(#p01a7a96bc3)" style="fill: #ffffff"/>
    <path d="M 177.935746 711.608276 
L 51.215483 711.608276 
" clip-path="url(#p01a7a96bc3)" style="fill: #ffffff"/>
    <path d="M 177.975944 711.953206 
L 63.974626 738.890103 
" clip-path="url(#p01a7a96bc3)" style="fill: #ffffff"/>
    <path d="M 178.109483 712.309009 
L 91.931944 757.841015 
" clip-path="url(#p01a7a96bc3)" style="fill: #ffffff"/>
    <path d="M 178.375576 712.669425 
L 133.605719 757.480598 
" clip-path="url(#p01a7a96bc3)" style="fill: #ffffff"/>
    <path d="M 178.823845 712.977793 
L 167.087516 739.24524 
" clip-path="url(#p01a7a96bc3)" style="fill: #ffffff"/>
    <path d="M 173.780058 680.900294 
C 195.297147 674.275976 176.680757 654.390892 168.654292 675.425211 
C 176.680757 654.390892 195.297147 674.275976 173.780058 680.900294 
" clip-path="url(#p01a7a96bc3)" style="fill: #ffffff"/>
    <path d="M 159.844299 679.098132 
L 133.871812 665.375537 
" clip-path="url(#p01a7a96bc3)" style="fill: #ffffff"/>
    <path d="M 159.176603 680.877142 
L 92.065483 665.019735 
" clip-path="url(#p01a7a96bc3)" style="fill: #ffffff"/>
    <path d="M 158.975614 682.601795 
L 58.175615 682.601795 
" clip-path="url(#p01a7a96bc3)" style="fill: #ffffff"/>
    <path d="M 159.176603 684.326448 
L 51.014494 709.883623 
" clip-path="url(#p01a7a96bc3)" style="stroke: #000000; stroke-width: 0.423077"/>
    <path d="M 159.844299 686.105459 
L 63.30693 737.111093 
" clip-path="url(#p01a7a96bc3)" style="stroke: #000000; stroke-width: 1.272436"/>
    <path d="M 161.17476 687.907542 
L 91.665851 757.480598 
" clip-path="url(#p01a7a96bc3)" style="fill: #ffffff"/>
    <path d="M 163.416105 689.449379 
L 133.15745 757.172231 
" clip-path="url(#p01a7a96bc3)" style="fill: #ffffff"/>
    <path d="M 166.475614 690.101795 
L 166.475614 739.114757 
" clip-path="url(#p01a7a96bc3)" style="stroke: #000000; stroke-width: 0.592949"/>
    <path d="M 133.586121 663.59443 
C 152.197623 642.007736 125.758705 635.452574 132.130203 663.233455 
C 125.758705 635.452574 152.197623 642.007736 133.586121 663.59443 
" clip-path="url(#p01a7a96bc3)" style="fill: #ffffff"/>
    <path d="M 131.045549 664.674804 
L 92.105681 664.674804 
" clip-path="url(#p01a7a96bc3)" style="fill: #ffffff"/>
    <path d="M 131.085746 665.019735 
L 58.135417 682.256865 
" clip-path="url(#p01a7a96bc3)" style="fill: #ffffff"/>
    <path d="M 131.219286 665.375537 
L 50.346798 708.104612 
" clip-path="url(#p01a7a96bc3)" style="fill: #ffffff"/>
    <path d="M 131.485378 665.735954 
L 61.976469 735.30901 
" clip-path="url(#p01a7a96bc3)" style="fill: #ffffff"/>
    <path d="M 131.933647 666.044321 
L 91.217582 757.172231 
" clip-path="url(#p01a7a96bc3)" style="fill: #ffffff"/>
    <path d="M 132.545549 666.174804 
L 132.545549 757.041747 
" clip-path="url(#p01a7a96bc3)" style="fill: #ffffff"/>
    <path d="M 133.15745 666.044321 
L 165.863713 739.24524 
" clip-path="url(#p01a7a96bc3)" style="fill: #ffffff"/>
    <path d="M 91.021026 663.233455 
C 97.392524 635.452574 70.953606 642.007736 89.565108 663.59443 
C 70.953606 642.007736 97.392524 635.452574 91.021026 663.233455 
" clip-path="url(#p01a7a96bc3)" style="fill: #ffffff"/>
    <path d="M 89.279418 665.375537 
L 58.001878 681.901063 
" clip-path="url(#p01a7a96bc3)" style="fill: #ffffff"/>
    <path d="M 89.54551 665.735954 
L 49.016337 706.30253 
" clip-path="url(#p01a7a96bc3)" style="fill: #ffffff"/>
    <path d="M 89.993779 666.044321 
L 59.735124 733.767173 
" clip-path="url(#p01a7a96bc3)" style="fill: #ffffff"/>
    <path d="M 90.605681 666.174804 
L 90.605681 757.041747 
" clip-path="url(#p01a7a96bc3)" style="fill: #ffffff"/>
    <path d="M 91.217582 666.044321 
L 131.933647 757.172231 
" clip-path="url(#p01a7a96bc3)" style="fill: #ffffff"/>
    <path d="M 91.665851 665.735954 
L 165.415444 739.553607 
" clip-path="url(#p01a7a96bc3)" style="fill: #ffffff"/>
    <path d="M 56.239879 681.166478 
C 46.470472 654.390892 27.854082 674.275976 55.214726 682.261495 
C 27.854082 674.275976 46.470472 654.390892 56.239879 681.166478 
" clip-path="url(#p01a7a96bc3)" style="fill: #ffffff"/>
    <path d="M 56.063713 683.971312 
L 46.774992 704.760692 
" clip-path="url(#p01a7a96bc3)" style="fill: #ffffff"/>
    <path d="M 56.675615 684.101795 
L 56.675615 733.114757 
" clip-path="url(#p01a7a96bc3)" style="fill: #ffffff"/>
    <path d="M 57.287517 683.971312 
L 89.993779 757.172231 
" clip-path="url(#p01a7a96bc3)" style="fill: #ffffff"/>
    <path d="M 57.735786 683.662944 
L 131.485378 757.480598 
" clip-path="url(#p01a7a96bc3)" style="fill: #ffffff"/>
    <path d="M 58.001878 683.302528 
L 165.149351 739.914024 
" clip-path="url(#p01a7a96bc3)" style="fill: #ffffff"/>
    <path d="M 37.220292 707.858276 
C 16.985287 697.988561 16.985287 725.227991 37.220292 715.358276 
C 16.985287 725.227991 16.985287 697.988561 37.220292 707.858276 
" clip-path="url(#p01a7a96bc3)" style="fill: #ffffff"/>
    <path d="M 46.774992 718.45586 
L 53.616106 733.767173 
" clip-path="url(#p01a7a96bc3)" style="stroke: #000000; stroke-width: 0.458333"/>
    <path d="M 49.016337 716.914022 
L 89.54551 757.480598 
" clip-path="url(#p01a7a96bc3)" style="fill: #ffffff"/>
    <path d="M 50.346798 715.111939 
L 131.219286 757.841015 
" clip-path="url(#p01a7a96bc3)" style="stroke: #000000; stroke-width: 2"/>
    <path d="M 51.014494 713.332929 
L 165.015812 740.269826 
" clip-path="url(#p01a7a96bc3)" style="fill: #ffffff"/>
    <path d="M 49.371171 742.316258 
C 27.854082 748.940576 46.470472 768.82566 54.496937 747.791341 
C 46.470472 768.82566 27.854082 748.940576 49.371171 742.316258 
" clip-path="url(#p01a7a96bc3)" style="fill: #ffffff"/>
    <path d="M 63.30693 744.11842 
L 89.279418 757.841015 
" clip-path="url(#p01a7a96bc3)" style="fill: #ffffff"/>
    <path d="M 63.974626 742.33941 
L 131.085746 758.196817 
" clip-path="url(#p01a7a96bc3)" style="fill: #ffffff"/>
    <path d="M 64.175615 740.614757 
L 164.975614 740.614757 
" clip-path="url(#p01a7a96bc3)" style="stroke: #000000; stroke-width: 0.413462"/>
    <path d="M 89.565108 759.622122 
C 70.953606 781.208815 97.392524 787.763978 91.021026 759.983097 
C 97.392524 787.763978 70.953606 781.208815 89.565108 759.622122 
" clip-path="url(#p01a7a96bc3)" style="fill: #ffffff"/>
    <path d="M 92.105681 758.541747 
L 131.045549 758.541747 
" clip-path="url(#p01a7a96bc3)" style="fill: #ffffff"/>
    <path d="M 92.065483 758.196817 
L 165.015812 740.959687 
" clip-path="url(#p01a7a96bc3)" style="fill: #ffffff"/>
    <path d="M 132.130203 759.983097 
C 125.758705 787.763978 152.197623 781.208815 133.586121 759.622122 
C 152.197623 781.208815 125.758705 787.763978 132.130203 759.983097 
" clip-path="url(#p01a7a96bc3)" style="fill: #ffffff"/>
    <path d="M 133.871812 757.841015 
L 165.149351 741.315489 
" clip-path="url(#p01a7a96bc3)" style="fill: #ffffff"/>
    <path d="M 166.91135 742.050073 
C 176.680757 768.82566 195.297147 748.940576 167.936503 740.955057 
C 195.297147 748.940576 176.680757 768.82566 166.91135 742.050073 
" clip-path="url(#p01a7a96bc3)" style="fill: #ffffff"/>
   </g>
   <g id="VertexCollection_5">
    <path d="M 179.435746 713.108276 
C 179.833551 713.108276 180.215116 712.950226 180.496407 712.668936 
C 180.777697 712.387646 180.935746 712.006081 180.935746 711.608276 
C 180.935746 711.210471 180.777697 710.828906 180.496407 710.547616 
C 180.215116 710.266325 179.833551 710.108276 179.435746 710.108276 
C 179.037942 710.108276 178.656377 710.266325 178.375086 710.547616 
C 178.093796 710.828906 177.935746 711.210471 177.935746 711.608276 
C 177.935746 712.006081 178.093796 712.387646 178.375086 712.668936 
C 178.656377 712.950226 179.037942 713.108276 179.435746 713.108276 
z
" clip-path="url(#p01a7a96bc3)" style="fill: #fdcab5; stroke: #00ff00; stroke-width: 3"/>
    <path d="M 166.475614 690.101795 
C 168.464638 690.101795 170.372464 689.311548 171.778915 687.905096 
C 173.185367 686.498644 173.975614 684.590818 173.975614 682.601795 
C 173.975614 680.612772 173.185367 678.704946 171.778915 677.298494 
C 170.372464 675.892043 168.464638 675.101795 166.475614 675.101795 
C 164.486591 675.101795 162.578765 675.892043 161.172314 677.298494 
C 159.765862 678.704946 158.975614 680.612772 158.975614 682.601795 
C 158.975614 684.590818 159.765862 686.498644 161.172314 687.905096 
C 162.578765 689.311548 164.486591 690.101795 166.475614 690.101795 
z
" clip-path="url(#p01a7a96bc3)" style="fill: #6b010e; stroke: #00ff00; stroke-width: 3"/>
    <path d="M 132.545549 666.174804 
C 132.943353 666.174804 133.324918 666.016755 133.606209 665.735464 
C 133.887499 665.454174 134.045549 665.072609 134.045549 664.674804 
C 134.045549 664.277 133.887499 663.895434 133.606209 663.614144 
C 133.324918 663.332854 132.943353 663.174804 132.545549 663.174804 
C 132.147744 663.174804 131.766179 663.332854 131.484888 663.614144 
C 131.203598 663.895434 131.045549 664.277 131.045549 664.674804 
C 131.045549 665.072609 131.203598 665.454174 131.484888 665.735464 
C 131.766179 666.016755 132.147744 666.174804 132.545549 666.174804 
z
" clip-path="url(#p01a7a96bc3)" style="fill: #fdcab5; stroke: #00ff00; stroke-width: 3"/>
    <path d="M 90.605681 666.174804 
C 91.003485 666.174804 91.38505 666.016755 91.666341 665.735464 
C 91.947631 665.454174 92.105681 665.072609 92.105681 664.674804 
C 92.105681 664.277 91.947631 663.895434 91.666341 663.614144 
C 91.38505 663.332854 91.003485 663.174804 90.605681 663.174804 
C 90.207876 663.174804 89.826311 663.332854 89.54502 663.614144 
C 89.26373 663.895434 89.105681 664.277 89.105681 664.674804 
C 89.105681 665.072609 89.26373 665.454174 89.54502 665.735464 
C 89.826311 666.016755 90.207876 666.174804 90.605681 666.174804 
z
" clip-path="url(#p01a7a96bc3)" style="fill: #fdcab5; stroke: #ff0000; stroke-width: 3"/>
    <path d="M 56.675615 684.101795 
C 57.073419 684.101795 57.454985 683.943746 57.736275 683.662455 
C 58.017565 683.381165 58.175615 682.9996 58.175615 682.601795 
C 58.175615 682.203991 58.017565 681.822425 57.736275 681.541135 
C 57.454985 681.259845 57.073419 681.101795 56.675615 681.101795 
C 56.27781 681.101795 55.896245 681.259845 55.614955 681.541135 
C 55.333664 681.822425 55.175615 682.203991 55.175615 682.601795 
C 55.175615 682.9996 55.333664 683.381165 55.614955 683.662455 
C 55.896245 683.943746 56.27781 684.101795 56.675615 684.101795 
z
" clip-path="url(#p01a7a96bc3)" style="fill: #fdcab5; stroke: #00ff00; stroke-width: 3"/>
    <path d="M 43.715483 719.108276 
C 45.704506 719.108276 47.612332 718.318029 49.018784 716.911577 
C 50.425235 715.505125 51.215483 713.597299 51.215483 711.608276 
C 51.215483 709.619253 50.425235 707.711427 49.018784 706.304975 
C 47.612332 704.898523 45.704506 704.108276 43.715483 704.108276 
C 41.72646 704.108276 39.818634 704.898523 38.412182 706.304975 
C 37.00573 707.711427 36.215483 709.619253 36.215483 711.608276 
C 36.215483 713.597299 37.00573 715.505125 38.412182 716.911577 
C 39.818634 718.318029 41.72646 719.108276 43.715483 719.108276 
z
" clip-path="url(#p01a7a96bc3)" style="fill: #6b010e; stroke: #ff0000; stroke-width: 3"/>
    <path d="M 56.675615 748.114757 
C 58.664638 748.114757 60.572464 747.324509 61.978916 745.918057 
C 63.385367 744.511606 64.175615 742.60378 64.175615 740.614757 
C 64.175615 738.625733 63.385367 736.717907 61.978916 735.311456 
C 60.572464 733.905004 58.664638 733.114757 56.675615 733.114757 
C 54.686591 733.114757 52.778766 733.905004 51.372314 735.311456 
C 49.965862 736.717907 49.175615 738.625733 49.175615 740.614757 
C 49.175615 742.60378 49.965862 744.511606 51.372314 745.918057 
C 52.778766 747.324509 54.686591 748.114757 56.675615 748.114757 
z
" clip-path="url(#p01a7a96bc3)" style="fill: #6b010e; stroke: #00ff00; stroke-width: 3"/>
    <path d="M 90.605681 760.041747 
C 91.003485 760.041747 91.38505 759.883698 91.666341 759.602408 
C 91.947631 759.321117 92.105681 758.939552 92.105681 758.541747 
C 92.105681 758.143943 91.947631 757.762378 91.666341 757.481087 
C 91.38505 757.199797 91.003485 757.041747 90.605681 757.041747 
C 90.207876 757.041747 89.826311 757.199797 89.54502 757.481087 
C 89.26373 757.762378 89.105681 758.143943 89.105681 758.541747 
C 89.105681 758.939552 89.26373 759.321117 89.54502 759.602408 
C 89.826311 759.883698 90.207876 760.041747 90.605681 760.041747 
z
" clip-path="url(#p01a7a96bc3)" style="fill: #fdcab5; stroke: #00ff00; stroke-width: 3"/>
    <path d="M 132.545549 760.041747 
C 132.943353 760.041747 133.324918 759.883698 133.606209 759.602408 
C 133.887499 759.321117 134.045549 758.939552 134.045549 758.541747 
C 134.045549 758.143943 133.887499 757.762378 133.606209 757.481087 
C 133.324918 757.199797 132.943353 757.041747 132.545549 757.041747 
C 132.147744 757.041747 131.766179 757.199797 131.484888 757.481087 
C 131.203598 757.762378 131.045549 758.143943 131.045549 758.541747 
C 131.045549 758.939552 131.203598 759.321117 131.484888 759.602408 
C 131.766179 759.883698 132.147744 760.041747 132.545549 760.041747 
z
" clip-path="url(#p01a7a96bc3)" style="fill: #fdcab5; stroke: #00ff00; stroke-width: 3"/>
    <path d="M 166.475614 742.114757 
C 166.873419 742.114757 167.254984 741.956707 167.536275 741.675417 
C 167.817565 741.394126 167.975614 741.012561 167.975614 740.614757 
C 167.975614 740.216952 167.817565 739.835387 167.536275 739.554096 
C 167.254984 739.272806 166.873419 739.114757 166.475614 739.114757 
C 166.07781 739.114757 165.696245 739.272806 165.414954 739.554096 
C 165.133664 739.835387 164.975614 740.216952 164.975614 740.614757 
C 164.975614 741.012561 165.133664 741.394126 165.414954 741.675417 
C 165.696245 741.956707 166.07781 742.114757 166.475614 742.114757 
z
" clip-path="url(#p01a7a96bc3)" style="fill: #fdcab5; stroke: #00ff00; stroke-width: 3"/>
   </g>
   <g id="matplotlib.axis_9"/>
   <g id="matplotlib.axis_10"/>
  </g>
 </g>
 <defs>
  <clipPath id="p3c022510fe">
   <rect x="27" y="103.68" width="167.4" height="114.703448"/>
  </clipPath>
  <clipPath id="p70784299a0">
   <rect x="27" y="241.324138" width="167.4" height="114.703448"/>
  </clipPath>
  <clipPath id="p695e3a305d">
   <rect x="27" y="378.968276" width="167.4" height="114.703448"/>
  </clipPath>
  <clipPath id="p6afd1f6da6">
   <rect x="27" y="516.612414" width="167.4" height="114.703448"/>
  </clipPath>
  <clipPath id="p01a7a96bc3">
   <rect x="27" y="654.256552" width="167.4" height="114.703448"/>
  </clipPath>
 </defs>
</svg>
