<?xml version="1.0" encoding="utf-8" standalone="no"?>
<!DOCTYPE svg PUBLIC "-//W3C//DTD SVG 1.1//EN"
  "http://www.w3.org/Graphics/SVG/1.1/DTD/svg11.dtd">
<svg xmlns:xlink="http://www.w3.org/1999/xlink" width="216pt" height="864pt" viewBox="0 0 216 864" xmlns="http://www.w3.org/2000/svg" version="1.1">
 <metadata>
  <rdf:RDF xmlns:dc="http://purl.org/dc/elements/1.1/" xmlns:cc="http://creativecommons.org/ns#" xmlns:rdf="http://www.w3.org/1999/02/22-rdf-syntax-ns#">
   <cc:Work>
    <dc:type rdf:resource="http://purl.org/dc/dcmitype/StillImage"/>
    <dc:date>2025-06-05T15:05:32.536130</dc:date>
    <dc:format>image/svg+xml</dc:format>
    <dc:creator>
     <cc:Agent>
      <dc:title>Matplotlib v3.9.2, https://matplotlib.org/</dc:title>
     </cc:Agent>
    </dc:creator>
   </cc:Work>
  </rdf:RDF>
 </metadata>
 <defs>
  <style type="text/css">*{stroke-linejoin: round; stroke-linecap: butt}</style>
 </defs>
 <g id="figure_1">
  <g id="patch_1">
   <path d="M 0 864 
L 216 864 
L 216 0 
L 0 0 
z
" style="fill: #ffffff"/>
  </g>
  <g id="axes_1">
   <g id="patch_2">
    <path d="M 27 218.383448 
L 194.4 218.383448 
L 194.4 103.68 
L 27 103.68 
z
" style="fill: #ffffff"/>
   </g>
   <g id="EdgeCollection_1">
    <path d="M 180.734785 160.870299 
C 206.165942 173.740014 206.165942 146.500584 180.734785 159.370299 
C 206.165942 146.500584 206.165942 173.740014 180.734785 160.870299 
" clip-path="url(#pc929fcd1ad)" style="fill: #ffffff"/>
    <path d="M 178.813893 158.755272 
L 167.097468 133.036615 
" clip-path="url(#pc929fcd1ad)" style="fill: #ffffff"/>
    <path d="M 178.365324 159.069491 
L 133.615971 115.140125 
" clip-path="url(#pc929fcd1ad)" style="fill: #ffffff"/>
    <path d="M 178.103937 159.430166 
L 91.93749 114.77945 
" clip-path="url(#pc929fcd1ad)" style="fill: #ffffff"/>
    <path d="M 177.974472 159.78166 
L 58.136889 132.010227 
" clip-path="url(#pc929fcd1ad)" style="fill: #ffffff"/>
    <path d="M 177.935746 160.120299 
L 51.215483 160.120299 
" clip-path="url(#pc929fcd1ad)" style="fill: #ffffff"/>
    <path d="M 177.974472 160.458938 
L 63.981988 186.875814 
" clip-path="url(#pc929fcd1ad)" style="stroke: #000000; stroke-width: 1.390099"/>
    <path d="M 178.103937 160.810431 
L 91.93749 205.461147 
" clip-path="url(#pc929fcd1ad)" style="fill: #ffffff"/>
    <path d="M 178.365324 161.171106 
L 137.897659 200.897241 
" clip-path="url(#pc929fcd1ad)" style="fill: #ffffff"/>
    <path d="M 178.813893 161.485325 
L 167.097468 187.203982 
" clip-path="url(#pc929fcd1ad)" style="fill: #ffffff"/>
    <path d="M 167.933865 131.320155 
C 195.232807 123.126187 176.465294 103.38367 166.90039 130.232989 
C 176.465294 103.38367 195.232807 123.126187 167.933865 131.320155 
" clip-path="url(#pc929fcd1ad)" style="fill: #ffffff"/>
    <path d="M 165.143805 130.981455 
L 133.877358 114.77945 
" clip-path="url(#pc929fcd1ad)" style="fill: #ffffff"/>
    <path d="M 165.01434 131.332949 
L 92.066955 114.427957 
" clip-path="url(#pc929fcd1ad)" style="fill: #ffffff"/>
    <path d="M 164.975614 131.671588 
L 58.175615 131.671588 
" clip-path="url(#pc929fcd1ad)" style="fill: #ffffff"/>
    <path d="M 165.01434 132.010227 
L 51.021856 158.427103 
" clip-path="url(#pc929fcd1ad)" style="fill: #ffffff"/>
    <path d="M 165.143805 132.36172 
L 63.334664 185.118347 
" clip-path="url(#pc929fcd1ad)" style="fill: #ffffff"/>
    <path d="M 165.405192 132.722396 
L 91.676103 205.100472 
" clip-path="url(#pc929fcd1ad)" style="fill: #ffffff"/>
    <path d="M 165.853761 133.036615 
L 135.654816 199.326145 
" clip-path="url(#pc929fcd1ad)" style="fill: #ffffff"/>
    <path d="M 166.475614 133.171588 
L 166.475614 187.069009 
" clip-path="url(#pc929fcd1ad)" style="fill: #ffffff"/>
    <path d="M 133.581804 113.004802 
C 152.107073 91.344059 125.642223 84.894385 132.124458 112.649636 
C 125.642223 84.894385 152.107073 91.344059 133.581804 113.004802 
" clip-path="url(#pc929fcd1ad)" style="fill: #ffffff"/>
    <path d="M 131.045549 114.089318 
L 92.105681 114.089318 
" clip-path="url(#pc929fcd1ad)" style="fill: #ffffff"/>
    <path d="M 131.084274 114.427957 
L 58.136889 131.332949 
" clip-path="url(#pc929fcd1ad)" style="fill: #ffffff"/>
    <path d="M 131.213739 114.77945 
L 50.374532 156.669636 
" clip-path="url(#pc929fcd1ad)" style="fill: #ffffff"/>
    <path d="M 131.475127 115.140125 
L 62.027725 183.314971 
" clip-path="url(#pc929fcd1ad)" style="fill: #ffffff"/>
    <path d="M 131.923695 115.454345 
L 91.227534 204.786253 
" clip-path="url(#pc929fcd1ad)" style="fill: #ffffff"/>
    <path d="M 132.545549 115.589318 
L 132.545549 198.651279 
" clip-path="url(#pc929fcd1ad)" style="fill: #ffffff"/>
    <path d="M 133.167402 115.454345 
L 165.853761 187.203982 
" clip-path="url(#pc929fcd1ad)" style="fill: #ffffff"/>
    <path d="M 91.026771 112.649636 
C 97.509006 84.894385 71.044157 91.344059 89.569425 113.004802 
C 71.044157 91.344059 97.509006 84.894385 91.026771 112.649636 
" clip-path="url(#pc929fcd1ad)" style="fill: #ffffff"/>
    <path d="M 89.273871 114.77945 
L 58.007424 130.981455 
" clip-path="url(#pc929fcd1ad)" style="fill: #ffffff"/>
    <path d="M 89.535259 115.140125 
L 49.067593 154.866261 
" clip-path="url(#pc929fcd1ad)" style="fill: #ffffff"/>
    <path d="M 89.983827 115.454345 
L 59.784882 181.743875 
" clip-path="url(#pc929fcd1ad)" style="fill: #ffffff"/>
    <path d="M 90.605681 115.589318 
L 90.605681 204.651279 
" clip-path="url(#pc929fcd1ad)" style="fill: #ffffff"/>
    <path d="M 91.227534 115.454345 
L 129.436281 199.326145 
" clip-path="url(#pc929fcd1ad)" style="stroke: #000000; stroke-width: 1.655446"/>
    <path d="M 91.676103 115.140125 
L 165.405192 187.518202 
" clip-path="url(#pc929fcd1ad)" style="stroke: #000000; stroke-width: 1.382178"/>
    <path d="M 56.250839 130.232989 
C 46.685935 103.38367 27.918422 123.126187 55.217364 131.320155 
C 27.918422 123.126187 46.685935 103.38367 56.250839 130.232989 
" clip-path="url(#pc929fcd1ad)" style="fill: #ffffff"/>
    <path d="M 56.053761 133.036615 
L 46.82475 153.295164 
" clip-path="url(#pc929fcd1ad)" style="fill: #ffffff"/>
    <path d="M 56.675615 133.171588 
L 56.675615 181.069009 
" clip-path="url(#pc929fcd1ad)" style="fill: #ffffff"/>
    <path d="M 57.297468 133.036615 
L 89.983827 204.786253 
" clip-path="url(#pc929fcd1ad)" style="fill: #ffffff"/>
    <path d="M 57.746037 132.722396 
L 127.193438 200.897241 
" clip-path="url(#pc929fcd1ad)" style="fill: #ffffff"/>
    <path d="M 58.007424 132.36172 
L 165.143805 187.878877 
" clip-path="url(#pc929fcd1ad)" style="fill: #ffffff"/>
    <path d="M 37.220292 156.370299 
C 16.985287 146.500584 16.985287 173.740014 37.220292 163.870299 
C 16.985287 173.740014 16.985287 146.500584 37.220292 156.370299 
" clip-path="url(#pc929fcd1ad)" style="fill: #ffffff"/>
    <path d="M 46.82475 166.945433 
L 53.566348 181.743875 
" clip-path="url(#pc929fcd1ad)" style="stroke: #000000; stroke-width: 1.738614"/>
    <path d="M 49.067593 165.374337 
L 89.535259 205.100472 
" clip-path="url(#pc929fcd1ad)" style="fill: #ffffff"/>
    <path d="M 50.374532 163.570961 
L 125.8865 202.700617 
" clip-path="url(#pc929fcd1ad)" style="stroke: #000000; stroke-width: 2"/>
    <path d="M 51.021856 161.813494 
L 165.01434 188.23037 
" clip-path="url(#pc929fcd1ad)" style="stroke: #000000; stroke-width: 1.576238"/>
    <path d="M 49.384361 190.326173 
C 27.918422 197.11441 46.685935 216.856927 54.551736 195.762002 
C 46.685935 216.856927 27.918422 197.11441 49.384361 190.326173 
" clip-path="url(#pc929fcd1ad)" style="fill: #ffffff"/>
    <path d="M 63.334664 192.019671 
L 89.273871 205.461147 
" clip-path="url(#pc929fcd1ad)" style="fill: #ffffff"/>
    <path d="M 63.981988 190.262205 
L 125.239175 204.458084 
" clip-path="url(#pc929fcd1ad)" style="stroke: #000000; stroke-width: 1.560396"/>
    <path d="M 64.175615 188.569009 
L 164.975614 188.569009 
" clip-path="url(#pc929fcd1ad)" style="fill: #ffffff"/>
    <path d="M 89.569425 207.235795 
C 71.044157 228.896538 97.509006 235.346212 91.026771 207.590961 
C 97.509006 235.346212 71.044157 228.896538 89.569425 207.235795 
" clip-path="url(#pc929fcd1ad)" style="fill: #ffffff"/>
    <path d="M 92.105681 206.151279 
L 125.045549 206.151279 
" clip-path="url(#pc929fcd1ad)" style="fill: #ffffff"/>
    <path d="M 92.066955 205.81264 
L 165.01434 188.907648 
" clip-path="url(#pc929fcd1ad)" style="fill: #ffffff"/>
    <path d="M 130.440096 213.349687 
C 125.642223 235.346212 152.107073 228.896538 137.726826 211.573858 
C 152.107073 228.896538 125.642223 235.346212 130.440096 213.349687 
" clip-path="url(#pc929fcd1ad)" style="fill: #ffffff"/>
    <path d="M 139.204597 202.700617 
L 165.143805 189.259142 
" clip-path="url(#pc929fcd1ad)" style="fill: #ffffff"/>
    <path d="M 166.90039 190.007608 
C 176.465294 216.856927 195.232807 197.11441 167.933865 188.920442 
C 195.232807 197.11441 176.465294 216.856927 166.90039 190.007608 
" clip-path="url(#pc929fcd1ad)" style="fill: #ffffff"/>
   </g>
   <g id="VertexCollection_1">
    <path d="M 179.435746 161.620299 
C 179.833551 161.620299 180.215116 161.462249 180.496407 161.180959 
C 180.777697 160.899668 180.935746 160.518103 180.935746 160.120299 
C 180.935746 159.722494 180.777697 159.340929 180.496407 159.059638 
C 180.215116 158.778348 179.833551 158.620299 179.435746 158.620299 
C 179.037942 158.620299 178.656377 158.778348 178.375086 159.059638 
C 178.093796 159.340929 177.935746 159.722494 177.935746 160.120299 
C 177.935746 160.518103 178.093796 160.899668 178.375086 161.180959 
C 178.656377 161.462249 179.037942 161.620299 179.435746 161.620299 
z
" clip-path="url(#pc929fcd1ad)" style="fill: #fdcab5; stroke: #00ff00; stroke-width: 3"/>
    <path d="M 166.475614 133.171588 
C 166.873419 133.171588 167.254984 133.013538 167.536275 132.732248 
C 167.817565 132.450958 167.975614 132.069393 167.975614 131.671588 
C 167.975614 131.273783 167.817565 130.892218 167.536275 130.610928 
C 167.254984 130.329637 166.873419 130.171588 166.475614 130.171588 
C 166.07781 130.171588 165.696245 130.329637 165.414954 130.610928 
C 165.133664 130.892218 164.975614 131.273783 164.975614 131.671588 
C 164.975614 132.069393 165.133664 132.450958 165.414954 132.732248 
C 165.696245 133.013538 166.07781 133.171588 166.475614 133.171588 
z
" clip-path="url(#pc929fcd1ad)" style="fill: #fdcab5; stroke: #00ff00; stroke-width: 3"/>
    <path d="M 132.545549 115.589318 
C 132.943353 115.589318 133.324918 115.431268 133.606209 115.149978 
C 133.887499 114.868688 134.045549 114.487122 134.045549 114.089318 
C 134.045549 113.691513 133.887499 113.309948 133.606209 113.028658 
C 133.324918 112.747367 132.943353 112.589318 132.545549 112.589318 
C 132.147744 112.589318 131.766179 112.747367 131.484888 113.028658 
C 131.203598 113.309948 131.045549 113.691513 131.045549 114.089318 
C 131.045549 114.487122 131.203598 114.868688 131.484888 115.149978 
C 131.766179 115.431268 132.147744 115.589318 132.545549 115.589318 
z
" clip-path="url(#pc929fcd1ad)" style="fill: #fdcab5; stroke: #00ff00; stroke-width: 3"/>
    <path d="M 90.605681 115.589318 
C 91.003485 115.589318 91.38505 115.431268 91.666341 115.149978 
C 91.947631 114.868688 92.105681 114.487122 92.105681 114.089318 
C 92.105681 113.691513 91.947631 113.309948 91.666341 113.028658 
C 91.38505 112.747367 91.003485 112.589318 90.605681 112.589318 
C 90.207876 112.589318 89.826311 112.747367 89.54502 113.028658 
C 89.26373 113.309948 89.105681 113.691513 89.105681 114.089318 
C 89.105681 114.487122 89.26373 114.868688 89.54502 115.149978 
C 89.826311 115.431268 90.207876 115.589318 90.605681 115.589318 
z
" clip-path="url(#pc929fcd1ad)" style="fill: #fdcab5; stroke: #ff0000; stroke-width: 3"/>
    <path d="M 56.675615 133.171588 
C 57.073419 133.171588 57.454985 133.013538 57.736275 132.732248 
C 58.017565 132.450958 58.175615 132.069393 58.175615 131.671588 
C 58.175615 131.273783 58.017565 130.892218 57.736275 130.610928 
C 57.454985 130.329637 57.073419 130.171588 56.675615 130.171588 
C 56.27781 130.171588 55.896245 130.329637 55.614955 130.610928 
C 55.333664 130.892218 55.175615 131.273783 55.175615 131.671588 
C 55.175615 132.069393 55.333664 132.450958 55.614955 132.732248 
C 55.896245 133.013538 56.27781 133.171588 56.675615 133.171588 
z
" clip-path="url(#pc929fcd1ad)" style="fill: #fdcab5; stroke: #00ff00; stroke-width: 3"/>
    <path d="M 43.715483 167.620299 
C 45.704506 167.620299 47.612332 166.830051 49.018784 165.423599 
C 50.425235 164.017148 51.215483 162.109322 51.215483 160.120299 
C 51.215483 158.131275 50.425235 156.22345 49.018784 154.816998 
C 47.612332 153.410546 45.704506 152.620299 43.715483 152.620299 
C 41.72646 152.620299 39.818634 153.410546 38.412182 154.816998 
C 37.00573 156.22345 36.215483 158.131275 36.215483 160.120299 
C 36.215483 162.109322 37.00573 164.017148 38.412182 165.423599 
C 39.818634 166.830051 41.72646 167.620299 43.715483 167.620299 
z
" clip-path="url(#pc929fcd1ad)" style="fill: #6b010e; stroke: #00ff00; stroke-width: 3"/>
    <path d="M 56.675615 196.069009 
C 58.664638 196.069009 60.572464 195.278762 61.978916 193.87231 
C 63.385367 192.465858 64.175615 190.558033 64.175615 188.569009 
C 64.175615 186.579986 63.385367 184.67216 61.978916 183.265708 
C 60.572464 181.859257 58.664638 181.069009 56.675615 181.069009 
C 54.686591 181.069009 52.778766 181.859257 51.372314 183.265708 
C 49.965862 184.67216 49.175615 186.579986 49.175615 188.569009 
C 49.175615 190.558033 49.965862 192.465858 51.372314 193.87231 
C 52.778766 195.278762 54.686591 196.069009 56.675615 196.069009 
z
" clip-path="url(#pc929fcd1ad)" style="fill: #6b010e; stroke: #00ff00; stroke-width: 3"/>
    <path d="M 90.605681 207.651279 
C 91.003485 207.651279 91.38505 207.49323 91.666341 207.21194 
C 91.947631 206.930649 92.105681 206.549084 92.105681 206.151279 
C 92.105681 205.753475 91.947631 205.37191 91.666341 205.090619 
C 91.38505 204.809329 91.003485 204.651279 90.605681 204.651279 
C 90.207876 204.651279 89.826311 204.809329 89.54502 205.090619 
C 89.26373 205.37191 89.105681 205.753475 89.105681 206.151279 
C 89.105681 206.549084 89.26373 206.930649 89.54502 207.21194 
C 89.826311 207.49323 90.207876 207.651279 90.605681 207.651279 
z
" clip-path="url(#pc929fcd1ad)" style="fill: #fdcab5; stroke: #00ff00; stroke-width: 3"/>
    <path d="M 132.545549 213.651279 
C 134.534572 213.651279 136.442398 212.861032 137.848849 211.45458 
C 139.255301 210.048129 140.045549 208.140303 140.045549 206.151279 
C 140.045549 204.162256 139.255301 202.25443 137.848849 200.847979 
C 136.442398 199.441527 134.534572 198.651279 132.545549 198.651279 
C 130.556525 198.651279 128.6487 199.441527 127.242248 200.847979 
C 125.835796 202.25443 125.045549 204.162256 125.045549 206.151279 
C 125.045549 208.140303 125.835796 210.048129 127.242248 211.45458 
C 128.6487 212.861032 130.556525 213.651279 132.545549 213.651279 
z
" clip-path="url(#pc929fcd1ad)" style="fill: #6b010e; stroke: #00ff00; stroke-width: 3"/>
    <path d="M 166.475614 190.069009 
C 166.873419 190.069009 167.254984 189.91096 167.536275 189.62967 
C 167.817565 189.348379 167.975614 188.966814 167.975614 188.569009 
C 167.975614 188.171205 167.817565 187.78964 167.536275 187.508349 
C 167.254984 187.227059 166.873419 187.069009 166.475614 187.069009 
C 166.07781 187.069009 165.696245 187.227059 165.414954 187.508349 
C 165.133664 187.78964 164.975614 188.171205 164.975614 188.569009 
C 164.975614 188.966814 165.133664 189.348379 165.414954 189.62967 
C 165.696245 189.91096 166.07781 190.069009 166.475614 190.069009 
z
" clip-path="url(#pc929fcd1ad)" style="fill: #fdcab5; stroke: #00ff00; stroke-width: 3"/>
   </g>
   <g id="matplotlib.axis_1"/>
   <g id="matplotlib.axis_2"/>
  </g>
  <g id="axes_2">
   <g id="patch_3">
    <path d="M 27 356.027586 
L 194.4 356.027586 
L 194.4 241.324138 
L 27 241.324138 
z
" style="fill: #ffffff"/>
   </g>
   <g id="EdgeCollection_2">
    <path d="M 180.734785 298.514437 
C 206.165942 311.384152 206.165942 284.144722 180.734785 297.014437 
C 206.165942 284.144722 206.165942 311.384152 180.734785 298.514437 
" clip-path="url(#p1e0b2bdfe9)" style="fill: #ffffff"/>
    <path d="M 178.813893 296.39941 
L 167.097468 270.680753 
" clip-path="url(#p1e0b2bdfe9)" style="fill: #ffffff"/>
    <path d="M 178.365324 296.713629 
L 133.615971 252.784263 
" clip-path="url(#p1e0b2bdfe9)" style="fill: #ffffff"/>
    <path d="M 178.103937 297.074304 
L 91.93749 252.423588 
" clip-path="url(#p1e0b2bdfe9)" style="fill: #ffffff"/>
    <path d="M 177.974472 297.425797 
L 58.136889 269.654365 
" clip-path="url(#p1e0b2bdfe9)" style="fill: #ffffff"/>
    <path d="M 177.935746 297.764437 
L 51.215483 297.764437 
" clip-path="url(#p1e0b2bdfe9)" style="fill: #ffffff"/>
    <path d="M 177.974472 298.103076 
L 63.981988 324.519952 
" clip-path="url(#p1e0b2bdfe9)" style="stroke: #000000; stroke-width: 1.793696"/>
    <path d="M 178.103937 298.454569 
L 97.264729 340.344755 
" clip-path="url(#p1e0b2bdfe9)" style="fill: #ffffff"/>
    <path d="M 178.365324 298.815244 
L 133.615971 342.74461 
" clip-path="url(#p1e0b2bdfe9)" style="fill: #ffffff"/>
    <path d="M 178.813893 299.129463 
L 167.097468 324.84812 
" clip-path="url(#p1e0b2bdfe9)" style="fill: #ffffff"/>
    <path d="M 167.933865 268.964293 
C 195.232807 260.770325 176.465294 241.027808 166.90039 267.877127 
C 176.465294 241.027808 195.232807 260.770325 167.933865 268.964293 
" clip-path="url(#p1e0b2bdfe9)" style="fill: #ffffff"/>
    <path d="M 165.143805 268.625593 
L 133.877358 252.423588 
" clip-path="url(#p1e0b2bdfe9)" style="fill: #ffffff"/>
    <path d="M 165.01434 268.977087 
L 92.066955 252.072095 
" clip-path="url(#p1e0b2bdfe9)" style="fill: #ffffff"/>
    <path d="M 164.975614 269.315726 
L 58.175615 269.315726 
" clip-path="url(#p1e0b2bdfe9)" style="fill: #ffffff"/>
    <path d="M 165.01434 269.654365 
L 51.021856 296.071241 
" clip-path="url(#p1e0b2bdfe9)" style="fill: #ffffff"/>
    <path d="M 165.143805 270.005858 
L 63.334664 322.762485 
" clip-path="url(#p1e0b2bdfe9)" style="fill: #ffffff"/>
    <path d="M 165.405192 270.366533 
L 95.957791 338.541379 
" clip-path="url(#p1e0b2bdfe9)" style="fill: #ffffff"/>
    <path d="M 165.853761 270.680753 
L 133.167402 342.430391 
" clip-path="url(#p1e0b2bdfe9)" style="fill: #ffffff"/>
    <path d="M 166.475614 270.815726 
L 166.475614 324.713147 
" clip-path="url(#p1e0b2bdfe9)" style="stroke: #000000; stroke-width: 1.369628"/>
    <path d="M 133.581804 250.64894 
C 152.107073 228.988197 125.642223 222.538523 132.124458 250.293774 
C 125.642223 222.538523 152.107073 228.988197 133.581804 250.64894 
" clip-path="url(#p1e0b2bdfe9)" style="fill: #ffffff"/>
    <path d="M 131.045549 251.733456 
L 92.105681 251.733456 
" clip-path="url(#p1e0b2bdfe9)" style="fill: #ffffff"/>
    <path d="M 131.084274 252.072095 
L 58.136889 268.977087 
" clip-path="url(#p1e0b2bdfe9)" style="fill: #ffffff"/>
    <path d="M 131.213739 252.423588 
L 50.374532 294.313774 
" clip-path="url(#p1e0b2bdfe9)" style="fill: #ffffff"/>
    <path d="M 131.475127 252.784263 
L 62.027725 320.959109 
" clip-path="url(#p1e0b2bdfe9)" style="fill: #ffffff"/>
    <path d="M 131.923695 253.098483 
L 93.714948 336.970283 
" clip-path="url(#p1e0b2bdfe9)" style="fill: #ffffff"/>
    <path d="M 132.545549 253.233456 
L 132.545549 342.295417 
" clip-path="url(#p1e0b2bdfe9)" style="fill: #ffffff"/>
    <path d="M 133.167402 253.098483 
L 165.853761 324.84812 
" clip-path="url(#p1e0b2bdfe9)" style="fill: #ffffff"/>
    <path d="M 91.026771 250.293774 
C 97.509006 222.538523 71.044157 228.988197 89.569425 250.64894 
C 71.044157 228.988197 97.509006 222.538523 91.026771 250.293774 
" clip-path="url(#p1e0b2bdfe9)" style="fill: #ffffff"/>
    <path d="M 89.273871 252.423588 
L 58.007424 268.625593 
" clip-path="url(#p1e0b2bdfe9)" style="fill: #ffffff"/>
    <path d="M 89.535259 252.784263 
L 49.067593 292.510398 
" clip-path="url(#p1e0b2bdfe9)" style="fill: #ffffff"/>
    <path d="M 89.983827 253.098483 
L 59.784882 319.388013 
" clip-path="url(#p1e0b2bdfe9)" style="fill: #ffffff"/>
    <path d="M 90.605681 253.233456 
L 90.605681 336.295417 
" clip-path="url(#p1e0b2bdfe9)" style="fill: #ffffff"/>
    <path d="M 91.227534 253.098483 
L 131.923695 342.430391 
" clip-path="url(#p1e0b2bdfe9)" style="stroke: #000000; stroke-width: 1.438395"/>
    <path d="M 91.676103 252.784263 
L 165.405192 325.16234 
" clip-path="url(#p1e0b2bdfe9)" style="fill: #ffffff"/>
    <path d="M 56.250839 267.877127 
C 46.685935 241.027808 27.918422 260.770325 55.217364 268.964293 
C 27.918422 260.770325 46.685935 241.027808 56.250839 267.877127 
" clip-path="url(#p1e0b2bdfe9)" style="fill: #ffffff"/>
    <path d="M 56.053761 270.680753 
L 46.82475 290.939302 
" clip-path="url(#p1e0b2bdfe9)" style="fill: #ffffff"/>
    <path d="M 56.675615 270.815726 
L 56.675615 318.713147 
" clip-path="url(#p1e0b2bdfe9)" style="fill: #ffffff"/>
    <path d="M 57.297468 270.680753 
L 87.496414 336.970283 
" clip-path="url(#p1e0b2bdfe9)" style="fill: #ffffff"/>
    <path d="M 57.746037 270.366533 
L 131.475127 342.74461 
" clip-path="url(#p1e0b2bdfe9)" style="fill: #ffffff"/>
    <path d="M 58.007424 270.005858 
L 165.143805 325.523015 
" clip-path="url(#p1e0b2bdfe9)" style="fill: #ffffff"/>
    <path d="M 37.220292 294.014437 
C 16.985287 284.144722 16.985287 311.384152 37.220292 301.514437 
C 16.985287 311.384152 16.985287 284.144722 37.220292 294.014437 
" clip-path="url(#p1e0b2bdfe9)" style="fill: #ffffff"/>
    <path d="M 46.82475 304.589571 
L 53.566348 319.388013 
" clip-path="url(#p1e0b2bdfe9)" style="stroke: #000000; stroke-width: 1.982808"/>
    <path d="M 49.067593 303.018475 
L 85.25357 338.541379 
" clip-path="url(#p1e0b2bdfe9)" style="stroke: #000000; stroke-width: 1.776504"/>
    <path d="M 50.374532 301.215099 
L 131.213739 343.105285 
" clip-path="url(#p1e0b2bdfe9)" style="fill: #ffffff"/>
    <path d="M 51.021856 299.457632 
L 165.01434 325.874508 
" clip-path="url(#p1e0b2bdfe9)" style="stroke: #000000; stroke-width: 1.575931"/>
    <path d="M 49.384361 327.970311 
C 27.918422 334.758548 46.685935 354.501065 54.551736 333.40614 
C 46.685935 354.501065 27.918422 334.758548 49.384361 327.970311 
" clip-path="url(#p1e0b2bdfe9)" style="fill: #ffffff"/>
    <path d="M 63.334664 329.663809 
L 83.946632 340.344755 
" clip-path="url(#p1e0b2bdfe9)" style="stroke: #000000; stroke-width: 2"/>
    <path d="M 63.981988 327.906343 
L 131.084274 343.456778 
" clip-path="url(#p1e0b2bdfe9)" style="fill: #ffffff"/>
    <path d="M 64.175615 326.213147 
L 164.975614 326.213147 
" clip-path="url(#p1e0b2bdfe9)" style="fill: #ffffff"/>
    <path d="M 85.424403 349.217996 
C 71.044157 366.540676 97.509006 372.99035 92.711133 350.993825 
C 97.509006 372.99035 71.044157 366.540676 85.424403 349.217996 
" clip-path="url(#p1e0b2bdfe9)" style="fill: #ffffff"/>
    <path d="M 98.105681 343.795417 
L 131.045549 343.795417 
" clip-path="url(#p1e0b2bdfe9)" style="stroke: #000000; stroke-width: 1.793696"/>
    <path d="M 97.912054 342.102222 
L 165.01434 326.551786 
" clip-path="url(#p1e0b2bdfe9)" style="fill: #ffffff"/>
    <path d="M 132.124458 345.235099 
C 125.642223 372.99035 152.107073 366.540676 133.581804 344.879933 
C 152.107073 366.540676 125.642223 372.99035 132.124458 345.235099 
" clip-path="url(#p1e0b2bdfe9)" style="fill: #ffffff"/>
    <path d="M 133.877358 343.105285 
L 165.143805 326.90328 
" clip-path="url(#p1e0b2bdfe9)" style="fill: #ffffff"/>
    <path d="M 166.90039 327.651746 
C 176.465294 354.501065 195.232807 334.758548 167.933865 326.56458 
C 195.232807 334.758548 176.465294 354.501065 166.90039 327.651746 
" clip-path="url(#p1e0b2bdfe9)" style="fill: #ffffff"/>
   </g>
   <g id="VertexCollection_2">
    <path d="M 179.435746 299.264437 
C 179.833551 299.264437 180.215116 299.106387 180.496407 298.825097 
C 180.777697 298.543806 180.935746 298.162241 180.935746 297.764437 
C 180.935746 297.366632 180.777697 296.985067 180.496407 296.703776 
C 180.215116 296.422486 179.833551 296.264437 179.435746 296.264437 
C 179.037942 296.264437 178.656377 296.422486 178.375086 296.703776 
C 178.093796 296.985067 177.935746 297.366632 177.935746 297.764437 
C 177.935746 298.162241 178.093796 298.543806 178.375086 298.825097 
C 178.656377 299.106387 179.037942 299.264437 179.435746 299.264437 
z
" clip-path="url(#p1e0b2bdfe9)" style="fill: #fdcab5; stroke: #00ff00; stroke-width: 3"/>
    <path d="M 166.475614 270.815726 
C 166.873419 270.815726 167.254984 270.657676 167.536275 270.376386 
C 167.817565 270.095096 167.975614 269.713531 167.975614 269.315726 
C 167.975614 268.917921 167.817565 268.536356 167.536275 268.255066 
C 167.254984 267.973775 166.873419 267.815726 166.475614 267.815726 
C 166.07781 267.815726 165.696245 267.973775 165.414954 268.255066 
C 165.133664 268.536356 164.975614 268.917921 164.975614 269.315726 
C 164.975614 269.713531 165.133664 270.095096 165.414954 270.376386 
C 165.696245 270.657676 166.07781 270.815726 166.475614 270.815726 
z
" clip-path="url(#p1e0b2bdfe9)" style="fill: #fdcab5; stroke: #00ff00; stroke-width: 3"/>
    <path d="M 132.545549 253.233456 
C 132.943353 253.233456 133.324918 253.075406 133.606209 252.794116 
C 133.887499 252.512826 134.045549 252.13126 134.045549 251.733456 
C 134.045549 251.335651 133.887499 250.954086 133.606209 250.672796 
C 133.324918 250.391505 132.943353 250.233456 132.545549 250.233456 
C 132.147744 250.233456 131.766179 250.391505 131.484888 250.672796 
C 131.203598 250.954086 131.045549 251.335651 131.045549 251.733456 
C 131.045549 252.13126 131.203598 252.512826 131.484888 252.794116 
C 131.766179 253.075406 132.147744 253.233456 132.545549 253.233456 
z
" clip-path="url(#p1e0b2bdfe9)" style="fill: #fdcab5; stroke: #00ff00; stroke-width: 3"/>
    <path d="M 90.605681 253.233456 
C 91.003485 253.233456 91.38505 253.075406 91.666341 252.794116 
C 91.947631 252.512826 92.105681 252.13126 92.105681 251.733456 
C 92.105681 251.335651 91.947631 250.954086 91.666341 250.672796 
C 91.38505 250.391505 91.003485 250.233456 90.605681 250.233456 
C 90.207876 250.233456 89.826311 250.391505 89.54502 250.672796 
C 89.26373 250.954086 89.105681 251.335651 89.105681 251.733456 
C 89.105681 252.13126 89.26373 252.512826 89.54502 252.794116 
C 89.826311 253.075406 90.207876 253.233456 90.605681 253.233456 
z
" clip-path="url(#p1e0b2bdfe9)" style="fill: #fdcab5; stroke: #ff0000; stroke-width: 3"/>
    <path d="M 56.675615 270.815726 
C 57.073419 270.815726 57.454985 270.657676 57.736275 270.376386 
C 58.017565 270.095096 58.175615 269.713531 58.175615 269.315726 
C 58.175615 268.917921 58.017565 268.536356 57.736275 268.255066 
C 57.454985 267.973775 57.073419 267.815726 56.675615 267.815726 
C 56.27781 267.815726 55.896245 267.973775 55.614955 268.255066 
C 55.333664 268.536356 55.175615 268.917921 55.175615 269.315726 
C 55.175615 269.713531 55.333664 270.095096 55.614955 270.376386 
C 55.896245 270.657676 56.27781 270.815726 56.675615 270.815726 
z
" clip-path="url(#p1e0b2bdfe9)" style="fill: #fdcab5; stroke: #00ff00; stroke-width: 3"/>
    <path d="M 43.715483 305.264437 
C 45.704506 305.264437 47.612332 304.474189 49.018784 303.067737 
C 50.425235 301.661286 51.215483 299.75346 51.215483 297.764437 
C 51.215483 295.775413 50.425235 293.867588 49.018784 292.461136 
C 47.612332 291.054684 45.704506 290.264437 43.715483 290.264437 
C 41.72646 290.264437 39.818634 291.054684 38.412182 292.461136 
C 37.00573 293.867588 36.215483 295.775413 36.215483 297.764437 
C 36.215483 299.75346 37.00573 301.661286 38.412182 303.067737 
C 39.818634 304.474189 41.72646 305.264437 43.715483 305.264437 
z
" clip-path="url(#p1e0b2bdfe9)" style="fill: #6b010e; stroke: #00ff00; stroke-width: 3"/>
    <path d="M 56.675615 333.713147 
C 58.664638 333.713147 60.572464 332.9229 61.978916 331.516448 
C 63.385367 330.109996 64.175615 328.202171 64.175615 326.213147 
C 64.175615 324.224124 63.385367 322.316298 61.978916 320.909846 
C 60.572464 319.503395 58.664638 318.713147 56.675615 318.713147 
C 54.686591 318.713147 52.778766 319.503395 51.372314 320.909846 
C 49.965862 322.316298 49.175615 324.224124 49.175615 326.213147 
C 49.175615 328.202171 49.965862 330.109996 51.372314 331.516448 
C 52.778766 332.9229 54.686591 333.713147 56.675615 333.713147 
z
" clip-path="url(#p1e0b2bdfe9)" style="fill: #6b010e; stroke: #00ff00; stroke-width: 3"/>
    <path d="M 90.605681 351.295417 
C 92.594704 351.295417 94.50253 350.50517 95.908981 349.098718 
C 97.315433 347.692266 98.105681 345.784441 98.105681 343.795417 
C 98.105681 341.806394 97.315433 339.898568 95.908981 338.492117 
C 94.50253 337.085665 92.594704 336.295417 90.605681 336.295417 
C 88.616657 336.295417 86.708832 337.085665 85.30238 338.492117 
C 83.895928 339.898568 83.105681 341.806394 83.105681 343.795417 
C 83.105681 345.784441 83.895928 347.692266 85.30238 349.098718 
C 86.708832 350.50517 88.616657 351.295417 90.605681 351.295417 
z
" clip-path="url(#p1e0b2bdfe9)" style="fill: #6b010e; stroke: #00ff00; stroke-width: 3"/>
    <path d="M 132.545549 345.295417 
C 132.943353 345.295417 133.324918 345.137368 133.606209 344.856078 
C 133.887499 344.574787 134.045549 344.193222 134.045549 343.795417 
C 134.045549 343.397613 133.887499 343.016048 133.606209 342.734757 
C 133.324918 342.453467 132.943353 342.295417 132.545549 342.295417 
C 132.147744 342.295417 131.766179 342.453467 131.484888 342.734757 
C 131.203598 343.016048 131.045549 343.397613 131.045549 343.795417 
C 131.045549 344.193222 131.203598 344.574787 131.484888 344.856078 
C 131.766179 345.137368 132.147744 345.295417 132.545549 345.295417 
z
" clip-path="url(#p1e0b2bdfe9)" style="fill: #fdcab5; stroke: #00ff00; stroke-width: 3"/>
    <path d="M 166.475614 327.713147 
C 166.873419 327.713147 167.254984 327.555098 167.536275 327.273807 
C 167.817565 326.992517 167.975614 326.610952 167.975614 326.213147 
C 167.975614 325.815343 167.817565 325.433777 167.536275 325.152487 
C 167.254984 324.871197 166.873419 324.713147 166.475614 324.713147 
C 166.07781 324.713147 165.696245 324.871197 165.414954 325.152487 
C 165.133664 325.433777 164.975614 325.815343 164.975614 326.213147 
C 164.975614 326.610952 165.133664 326.992517 165.414954 327.273807 
C 165.696245 327.555098 166.07781 327.713147 166.475614 327.713147 
z
" clip-path="url(#p1e0b2bdfe9)" style="fill: #fdcab5; stroke: #00ff00; stroke-width: 3"/>
   </g>
   <g id="matplotlib.axis_3"/>
   <g id="matplotlib.axis_4"/>
  </g>
  <g id="axes_3">
   <g id="patch_4">
    <path d="M 27 493.671724 
L 194.4 493.671724 
L 194.4 378.968276 
L 27 378.968276 
z
" style="fill: #ffffff"/>
   </g>
   <g id="EdgeCollection_3">
    <path d="M 180.734785 436.158574 
C 206.165942 449.028289 206.165942 421.788859 180.734785 434.658574 
C 206.165942 421.788859 206.165942 449.028289 180.734785 436.158574 
" clip-path="url(#p8cb80c606c)" style="fill: #ffffff"/>
    <path d="M 178.813893 434.043548 
L 167.097468 408.324891 
" clip-path="url(#p8cb80c606c)" style="fill: #ffffff"/>
    <path d="M 178.365324 434.357767 
L 133.615971 390.428401 
" clip-path="url(#p8cb80c606c)" style="fill: #ffffff"/>
    <path d="M 178.103937 434.718442 
L 91.93749 390.067726 
" clip-path="url(#p8cb80c606c)" style="fill: #ffffff"/>
    <path d="M 177.974472 435.069935 
L 58.136889 407.298503 
" clip-path="url(#p8cb80c606c)" style="fill: #ffffff"/>
    <path d="M 177.935746 435.408574 
L 51.215483 435.408574 
" clip-path="url(#p8cb80c606c)" style="fill: #ffffff"/>
    <path d="M 177.974472 435.747214 
L 58.136889 463.518646 
" clip-path="url(#p8cb80c606c)" style="fill: #ffffff"/>
    <path d="M 178.103937 436.098707 
L 97.264729 477.988893 
" clip-path="url(#p8cb80c606c)" style="fill: #ffffff"/>
    <path d="M 178.365324 436.459382 
L 133.615971 480.388748 
" clip-path="url(#p8cb80c606c)" style="stroke: #000000; stroke-width: 1.198091"/>
    <path d="M 178.813893 436.773601 
L 167.097468 462.492258 
" clip-path="url(#p8cb80c606c)" style="fill: #ffffff"/>
    <path d="M 167.933865 406.608431 
C 195.232807 398.414463 176.465294 378.671946 166.90039 405.521265 
C 176.465294 378.671946 195.232807 398.414463 167.933865 406.608431 
" clip-path="url(#p8cb80c606c)" style="fill: #ffffff"/>
    <path d="M 165.143805 406.269731 
L 133.877358 390.067726 
" clip-path="url(#p8cb80c606c)" style="fill: #ffffff"/>
    <path d="M 165.01434 406.621225 
L 92.066955 389.716233 
" clip-path="url(#p8cb80c606c)" style="fill: #ffffff"/>
    <path d="M 164.975614 406.959864 
L 58.175615 406.959864 
" clip-path="url(#p8cb80c606c)" style="fill: #ffffff"/>
    <path d="M 165.01434 407.298503 
L 51.021856 433.715379 
" clip-path="url(#p8cb80c606c)" style="fill: #ffffff"/>
    <path d="M 165.143805 407.649996 
L 58.007424 463.167153 
" clip-path="url(#p8cb80c606c)" style="fill: #ffffff"/>
    <path d="M 165.405192 408.010671 
L 95.957791 476.185517 
" clip-path="url(#p8cb80c606c)" style="fill: #ffffff"/>
    <path d="M 165.853761 408.324891 
L 133.167402 480.074528 
" clip-path="url(#p8cb80c606c)" style="fill: #ffffff"/>
    <path d="M 166.475614 408.459864 
L 166.475614 462.357285 
" clip-path="url(#p8cb80c606c)" style="fill: #ffffff"/>
    <path d="M 133.581804 388.293078 
C 152.107073 366.632335 125.642223 360.182661 132.124458 387.937912 
C 125.642223 360.182661 152.107073 366.632335 133.581804 388.293078 
" clip-path="url(#p8cb80c606c)" style="fill: #ffffff"/>
    <path d="M 131.045549 389.377594 
L 92.105681 389.377594 
" clip-path="url(#p8cb80c606c)" style="fill: #ffffff"/>
    <path d="M 131.084274 389.716233 
L 58.136889 406.621225 
" clip-path="url(#p8cb80c606c)" style="fill: #ffffff"/>
    <path d="M 131.213739 390.067726 
L 50.374532 431.957912 
" clip-path="url(#p8cb80c606c)" style="fill: #ffffff"/>
    <path d="M 131.475127 390.428401 
L 57.746037 462.806478 
" clip-path="url(#p8cb80c606c)" style="fill: #ffffff"/>
    <path d="M 131.923695 390.74262 
L 93.714948 474.614421 
" clip-path="url(#p8cb80c606c)" style="fill: #ffffff"/>
    <path d="M 132.545549 390.877594 
L 132.545549 479.939555 
" clip-path="url(#p8cb80c606c)" style="fill: #ffffff"/>
    <path d="M 133.167402 390.74262 
L 165.853761 462.492258 
" clip-path="url(#p8cb80c606c)" style="fill: #ffffff"/>
    <path d="M 91.026771 387.937912 
C 97.509006 360.182661 71.044157 366.632335 89.569425 388.293078 
C 71.044157 366.632335 97.509006 360.182661 91.026771 387.937912 
" clip-path="url(#p8cb80c606c)" style="fill: #ffffff"/>
    <path d="M 89.273871 390.067726 
L 58.007424 406.269731 
" clip-path="url(#p8cb80c606c)" style="fill: #ffffff"/>
    <path d="M 89.535259 390.428401 
L 49.067593 430.154536 
" clip-path="url(#p8cb80c606c)" style="fill: #ffffff"/>
    <path d="M 89.983827 390.74262 
L 57.297468 462.492258 
" clip-path="url(#p8cb80c606c)" style="stroke: #000000; stroke-width: 1.026253"/>
    <path d="M 90.605681 390.877594 
L 90.605681 473.939555 
" clip-path="url(#p8cb80c606c)" style="stroke: #000000; stroke-width: 1.866348"/>
    <path d="M 91.227534 390.74262 
L 131.923695 480.074528 
" clip-path="url(#p8cb80c606c)" style="fill: #ffffff"/>
    <path d="M 91.676103 390.428401 
L 165.405192 462.806478 
" clip-path="url(#p8cb80c606c)" style="fill: #ffffff"/>
    <path d="M 56.250839 405.521265 
C 46.685935 378.671946 27.918422 398.414463 55.217364 406.608431 
C 27.918422 398.414463 46.685935 378.671946 56.250839 405.521265 
" clip-path="url(#p8cb80c606c)" style="fill: #ffffff"/>
    <path d="M 56.053761 408.324891 
L 46.82475 428.58344 
" clip-path="url(#p8cb80c606c)" style="fill: #ffffff"/>
    <path d="M 56.675615 408.459864 
L 56.675615 462.357285 
" clip-path="url(#p8cb80c606c)" style="fill: #ffffff"/>
    <path d="M 57.297468 408.324891 
L 87.496414 474.614421 
" clip-path="url(#p8cb80c606c)" style="fill: #ffffff"/>
    <path d="M 57.746037 408.010671 
L 131.475127 480.388748 
" clip-path="url(#p8cb80c606c)" style="fill: #ffffff"/>
    <path d="M 58.007424 407.649996 
L 165.143805 463.167153 
" clip-path="url(#p8cb80c606c)" style="fill: #ffffff"/>
    <path d="M 37.220292 431.658574 
C 16.985287 421.788859 16.985287 449.028289 37.220292 439.158574 
C 16.985287 449.028289 16.985287 421.788859 37.220292 431.658574 
" clip-path="url(#p8cb80c606c)" style="fill: #ffffff"/>
    <path d="M 46.82475 442.233709 
L 56.053761 462.492258 
" clip-path="url(#p8cb80c606c)" style="stroke: #000000; stroke-width: 1.28401"/>
    <path d="M 49.067593 440.662613 
L 85.25357 476.185517 
" clip-path="url(#p8cb80c606c)" style="stroke: #000000; stroke-width: 1.708831"/>
    <path d="M 50.374532 438.859237 
L 131.213739 480.749423 
" clip-path="url(#p8cb80c606c)" style="fill: #ffffff"/>
    <path d="M 51.021856 437.10177 
L 165.01434 463.518646 
" clip-path="url(#p8cb80c606c)" style="stroke: #000000; stroke-width: 1.264916"/>
    <path d="M 55.217364 464.208718 
C 27.918422 472.402686 46.685935 492.145203 56.250839 465.295884 
C 46.685935 492.145203 27.918422 472.402686 55.217364 464.208718 
" clip-path="url(#p8cb80c606c)" style="fill: #ffffff"/>
    <path d="M 58.007424 464.547418 
L 83.946632 477.988893 
" clip-path="url(#p8cb80c606c)" style="fill: #ffffff"/>
    <path d="M 58.136889 464.195924 
L 131.084274 481.100916 
" clip-path="url(#p8cb80c606c)" style="fill: #ffffff"/>
    <path d="M 58.175615 463.857285 
L 164.975614 463.857285 
" clip-path="url(#p8cb80c606c)" style="fill: #ffffff"/>
    <path d="M 85.424403 486.862134 
C 71.044157 504.184814 97.509006 510.634488 92.711133 488.637963 
C 97.509006 510.634488 71.044157 504.184814 85.424403 486.862134 
" clip-path="url(#p8cb80c606c)" style="fill: #ffffff"/>
    <path d="M 98.105681 481.439555 
L 131.045549 481.439555 
" clip-path="url(#p8cb80c606c)" style="stroke: #000000; stroke-width: 2"/>
    <path d="M 97.912054 479.74636 
L 165.01434 464.195924 
" clip-path="url(#p8cb80c606c)" style="fill: #ffffff"/>
    <path d="M 132.124458 482.879237 
C 125.642223 510.634488 152.107073 504.184814 133.581804 482.524071 
C 152.107073 504.184814 125.642223 510.634488 132.124458 482.879237 
" clip-path="url(#p8cb80c606c)" style="fill: #ffffff"/>
    <path d="M 133.877358 480.749423 
L 165.143805 464.547418 
" clip-path="url(#p8cb80c606c)" style="fill: #ffffff"/>
    <path d="M 166.90039 465.295884 
C 176.465294 492.145203 195.232807 472.402686 167.933865 464.208718 
C 195.232807 472.402686 176.465294 492.145203 166.90039 465.295884 
" clip-path="url(#p8cb80c606c)" style="fill: #ffffff"/>
   </g>
   <g id="VertexCollection_3">
    <path d="M 179.435746 436.908574 
C 179.833551 436.908574 180.215116 436.750525 180.496407 436.469235 
C 180.777697 436.187944 180.935746 435.806379 180.935746 435.408574 
C 180.935746 435.01077 180.777697 434.629205 180.496407 434.347914 
C 180.215116 434.066624 179.833551 433.908574 179.435746 433.908574 
C 179.037942 433.908574 178.656377 434.066624 178.375086 434.347914 
C 178.093796 434.629205 177.935746 435.01077 177.935746 435.408574 
C 177.935746 435.806379 178.093796 436.187944 178.375086 436.469235 
C 178.656377 436.750525 179.037942 436.908574 179.435746 436.908574 
z
" clip-path="url(#p8cb80c606c)" style="fill: #fdcab5; stroke: #00ff00; stroke-width: 3"/>
    <path d="M 166.475614 408.459864 
C 166.873419 408.459864 167.254984 408.301814 167.536275 408.020524 
C 167.817565 407.739234 167.975614 407.357668 167.975614 406.959864 
C 167.975614 406.562059 167.817565 406.180494 167.536275 405.899204 
C 167.254984 405.617913 166.873419 405.459864 166.475614 405.459864 
C 166.07781 405.459864 165.696245 405.617913 165.414954 405.899204 
C 165.133664 406.180494 164.975614 406.562059 164.975614 406.959864 
C 164.975614 407.357668 165.133664 407.739234 165.414954 408.020524 
C 165.696245 408.301814 166.07781 408.459864 166.475614 408.459864 
z
" clip-path="url(#p8cb80c606c)" style="fill: #fdcab5; stroke: #00ff00; stroke-width: 3"/>
    <path d="M 132.545549 390.877594 
C 132.943353 390.877594 133.324918 390.719544 133.606209 390.438254 
C 133.887499 390.156963 134.045549 389.775398 134.045549 389.377594 
C 134.045549 388.979789 133.887499 388.598224 133.606209 388.316933 
C 133.324918 388.035643 132.943353 387.877594 132.545549 387.877594 
C 132.147744 387.877594 131.766179 388.035643 131.484888 388.316933 
C 131.203598 388.598224 131.045549 388.979789 131.045549 389.377594 
C 131.045549 389.775398 131.203598 390.156963 131.484888 390.438254 
C 131.766179 390.719544 132.147744 390.877594 132.545549 390.877594 
z
" clip-path="url(#p8cb80c606c)" style="fill: #fdcab5; stroke: #00ff00; stroke-width: 3"/>
    <path d="M 90.605681 390.877594 
C 91.003485 390.877594 91.38505 390.719544 91.666341 390.438254 
C 91.947631 390.156963 92.105681 389.775398 92.105681 389.377594 
C 92.105681 388.979789 91.947631 388.598224 91.666341 388.316933 
C 91.38505 388.035643 91.003485 387.877594 90.605681 387.877594 
C 90.207876 387.877594 89.826311 388.035643 89.54502 388.316933 
C 89.26373 388.598224 89.105681 388.979789 89.105681 389.377594 
C 89.105681 389.775398 89.26373 390.156963 89.54502 390.438254 
C 89.826311 390.719544 90.207876 390.877594 90.605681 390.877594 
z
" clip-path="url(#p8cb80c606c)" style="fill: #fdcab5; stroke: #ff0000; stroke-width: 3"/>
    <path d="M 56.675615 408.459864 
C 57.073419 408.459864 57.454985 408.301814 57.736275 408.020524 
C 58.017565 407.739234 58.175615 407.357668 58.175615 406.959864 
C 58.175615 406.562059 58.017565 406.180494 57.736275 405.899204 
C 57.454985 405.617913 57.073419 405.459864 56.675615 405.459864 
C 56.27781 405.459864 55.896245 405.617913 55.614955 405.899204 
C 55.333664 406.180494 55.175615 406.562059 55.175615 406.959864 
C 55.175615 407.357668 55.333664 407.739234 55.614955 408.020524 
C 55.896245 408.301814 56.27781 408.459864 56.675615 408.459864 
z
" clip-path="url(#p8cb80c606c)" style="fill: #fdcab5; stroke: #00ff00; stroke-width: 3"/>
    <path d="M 43.715483 442.908574 
C 45.704506 442.908574 47.612332 442.118327 49.018784 440.711875 
C 50.425235 439.305424 51.215483 437.397598 51.215483 435.408574 
C 51.215483 433.419551 50.425235 431.511725 49.018784 430.105274 
C 47.612332 428.698822 45.704506 427.908574 43.715483 427.908574 
C 41.72646 427.908574 39.818634 428.698822 38.412182 430.105274 
C 37.00573 431.511725 36.215483 433.419551 36.215483 435.408574 
C 36.215483 437.397598 37.00573 439.305424 38.412182 440.711875 
C 39.818634 442.118327 41.72646 442.908574 43.715483 442.908574 
z
" clip-path="url(#p8cb80c606c)" style="fill: #6b010e; stroke: #00ff00; stroke-width: 3"/>
    <path d="M 56.675615 465.357285 
C 57.073419 465.357285 57.454985 465.199236 57.736275 464.917945 
C 58.017565 464.636655 58.175615 464.25509 58.175615 463.857285 
C 58.175615 463.459481 58.017565 463.077915 57.736275 462.796625 
C 57.454985 462.515335 57.073419 462.357285 56.675615 462.357285 
C 56.27781 462.357285 55.896245 462.515335 55.614955 462.796625 
C 55.333664 463.077915 55.175615 463.459481 55.175615 463.857285 
C 55.175615 464.25509 55.333664 464.636655 55.614955 464.917945 
C 55.896245 465.199236 56.27781 465.357285 56.675615 465.357285 
z
" clip-path="url(#p8cb80c606c)" style="fill: #fdcab5; stroke: #00ff00; stroke-width: 3"/>
    <path d="M 90.605681 488.939555 
C 92.594704 488.939555 94.50253 488.149308 95.908981 486.742856 
C 97.315433 485.336404 98.105681 483.428579 98.105681 481.439555 
C 98.105681 479.450532 97.315433 477.542706 95.908981 476.136254 
C 94.50253 474.729803 92.594704 473.939555 90.605681 473.939555 
C 88.616657 473.939555 86.708832 474.729803 85.30238 476.136254 
C 83.895928 477.542706 83.105681 479.450532 83.105681 481.439555 
C 83.105681 483.428579 83.895928 485.336404 85.30238 486.742856 
C 86.708832 488.149308 88.616657 488.939555 90.605681 488.939555 
z
" clip-path="url(#p8cb80c606c)" style="fill: #6b010e; stroke: #00ff00; stroke-width: 3"/>
    <path d="M 132.545549 482.939555 
C 132.943353 482.939555 133.324918 482.781506 133.606209 482.500216 
C 133.887499 482.218925 134.045549 481.83736 134.045549 481.439555 
C 134.045549 481.041751 133.887499 480.660186 133.606209 480.378895 
C 133.324918 480.097605 132.943353 479.939555 132.545549 479.939555 
C 132.147744 479.939555 131.766179 480.097605 131.484888 480.378895 
C 131.203598 480.660186 131.045549 481.041751 131.045549 481.439555 
C 131.045549 481.83736 131.203598 482.218925 131.484888 482.500216 
C 131.766179 482.781506 132.147744 482.939555 132.545549 482.939555 
z
" clip-path="url(#p8cb80c606c)" style="fill: #fdcab5; stroke: #00ff00; stroke-width: 3"/>
    <path d="M 166.475614 465.357285 
C 166.873419 465.357285 167.254984 465.199236 167.536275 464.917945 
C 167.817565 464.636655 167.975614 464.25509 167.975614 463.857285 
C 167.975614 463.459481 167.817565 463.077915 167.536275 462.796625 
C 167.254984 462.515335 166.873419 462.357285 166.475614 462.357285 
C 166.07781 462.357285 165.696245 462.515335 165.414954 462.796625 
C 165.133664 463.077915 164.975614 463.459481 164.975614 463.857285 
C 164.975614 464.25509 165.133664 464.636655 165.414954 464.917945 
C 165.696245 465.199236 166.07781 465.357285 166.475614 465.357285 
z
" clip-path="url(#p8cb80c606c)" style="fill: #fdcab5; stroke: #00ff00; stroke-width: 3"/>
   </g>
   <g id="matplotlib.axis_5"/>
   <g id="matplotlib.axis_6"/>
  </g>
  <g id="axes_4">
   <g id="patch_5">
    <path d="M 27 631.315862 
L 194.4 631.315862 
L 194.4 516.612414 
L 27 516.612414 
z
" style="fill: #ffffff"/>
   </g>
   <g id="EdgeCollection_4">
    <path d="M 180.734785 574.714138 
C 206.165942 587.583853 206.165942 560.344423 180.734785 573.214138 
C 206.165942 560.344423 206.165942 587.583853 180.734785 574.714138 
" clip-path="url(#ped21dfa279)" style="fill: #ffffff"/>
    <path d="M 178.80404 572.603643 
L 167.107321 547.412646 
" clip-path="url(#ped21dfa279)" style="fill: #ffffff"/>
    <path d="M 178.35537 572.923568 
L 133.625925 529.842165 
" clip-path="url(#ped21dfa279)" style="fill: #ffffff"/>
    <path d="M 178.098637 573.284331 
L 97.29123 532.200628 
" clip-path="url(#ped21dfa279)" style="fill: #ffffff"/>
    <path d="M 177.973078 573.631571 
L 58.138283 546.384718 
" clip-path="url(#ped21dfa279)" style="fill: #ffffff"/>
    <path d="M 177.935746 573.964138 
L 51.215483 573.964138 
" clip-path="url(#ped21dfa279)" style="fill: #ffffff"/>
    <path d="M 177.973078 574.296705 
L 58.138283 601.543558 
" clip-path="url(#ped21dfa279)" style="fill: #ffffff"/>
    <path d="M 178.098637 574.643945 
L 97.29123 615.727648 
" clip-path="url(#ped21dfa279)" style="fill: #ffffff"/>
    <path d="M 178.35537 575.004708 
L 133.625925 618.086111 
" clip-path="url(#ped21dfa279)" style="fill: #ffffff"/>
    <path d="M 178.80404 575.324633 
L 167.107321 600.51563 
" clip-path="url(#ped21dfa279)" style="fill: #ffffff"/>
    <path d="M 167.931194 545.689815 
C 195.168048 537.291771 176.253307 517.690262 166.889612 544.610414 
C 176.253307 517.690262 195.168048 537.291771 167.931194 545.689815 
" clip-path="url(#ped21dfa279)" style="fill: #ffffff"/>
    <path d="M 165.138505 545.372344 
L 133.882658 529.481401 
" clip-path="url(#ped21dfa279)" style="fill: #ffffff"/>
    <path d="M 165.012946 545.719584 
L 97.919023 530.46443 
" clip-path="url(#ped21dfa279)" style="fill: #ffffff"/>
    <path d="M 164.975614 546.052151 
L 58.175615 546.052151 
" clip-path="url(#ped21dfa279)" style="fill: #ffffff"/>
    <path d="M 165.012946 546.384718 
L 51.028825 572.301302 
" clip-path="url(#ped21dfa279)" style="fill: #ffffff"/>
    <path d="M 165.138505 546.731958 
L 58.012725 601.196318 
" clip-path="url(#ped21dfa279)" style="fill: #ffffff"/>
    <path d="M 165.395238 547.092721 
L 96.007563 613.92383 
" clip-path="url(#ped21dfa279)" style="fill: #ffffff"/>
    <path d="M 165.843908 547.412646 
L 133.177255 617.766187 
" clip-path="url(#ped21dfa279)" style="fill: #ffffff"/>
    <path d="M 166.475614 547.552151 
L 166.475614 600.376125 
" clip-path="url(#ped21dfa279)" style="stroke: #000000; stroke-width: 0.922374"/>
    <path d="M 133.577601 527.713078 
C 152.018929 505.980826 125.529325 499.633588 132.118891 527.363553 
C 125.529325 499.633588 152.018929 505.980826 133.577601 527.713078 
" clip-path="url(#ped21dfa279)" style="fill: #ffffff"/>
    <path d="M 131.045549 528.801594 
L 98.105681 528.801594 
" clip-path="url(#ped21dfa279)" style="fill: #ffffff"/>
    <path d="M 131.08288 529.134161 
L 58.138283 545.719584 
" clip-path="url(#ped21dfa279)" style="fill: #ffffff"/>
    <path d="M 131.208439 529.481401 
L 50.401032 570.565104 
" clip-path="url(#ped21dfa279)" style="fill: #ffffff"/>
    <path d="M 131.465172 529.842165 
L 57.755991 600.835555 
" clip-path="url(#ped21dfa279)" style="fill: #ffffff"/>
    <path d="M 131.913842 530.162089 
L 93.764215 612.324207 
" clip-path="url(#ped21dfa279)" style="fill: #ffffff"/>
    <path d="M 132.545549 530.301594 
L 132.545549 617.626681 
" clip-path="url(#ped21dfa279)" style="fill: #ffffff"/>
    <path d="M 133.177255 530.162089 
L 165.843908 600.51563 
" clip-path="url(#ped21dfa279)" style="fill: #ffffff"/>
    <path d="M 92.738967 521.611386 
C 97.621904 499.633588 71.1323 505.980826 85.445421 523.359011 
C 71.1323 505.980826 97.621904 499.633588 92.738967 521.611386 
" clip-path="url(#ped21dfa279)" style="fill: #ffffff"/>
    <path d="M 83.920131 532.200628 
L 58.012725 545.372344 
" clip-path="url(#ped21dfa279)" style="fill: #ffffff"/>
    <path d="M 85.203798 534.004446 
L 49.117365 568.761286 
" clip-path="url(#ped21dfa279)" style="stroke: #000000; stroke-width: 0.90411"/>
    <path d="M 87.447146 535.604069 
L 57.307322 600.51563 
" clip-path="url(#ped21dfa279)" style="stroke: #000000; stroke-width: 0.90411"/>
    <path d="M 90.605681 536.301594 
L 90.605681 611.626681 
" clip-path="url(#ped21dfa279)" style="stroke: #000000; stroke-width: 1.059361"/>
    <path d="M 93.764215 535.604069 
L 131.913842 617.766187 
" clip-path="url(#ped21dfa279)" style="fill: #ffffff"/>
    <path d="M 96.007563 534.004446 
L 165.395238 600.835555 
" clip-path="url(#ped21dfa279)" style="fill: #ffffff"/>
    <path d="M 56.261617 544.610414 
C 46.897922 517.690262 27.983181 537.291771 55.220035 545.689815 
C 27.983181 537.291771 46.897922 517.690262 56.261617 544.610414 
" clip-path="url(#ped21dfa279)" style="fill: #ffffff"/>
    <path d="M 56.043908 547.412646 
L 46.874017 567.161663 
" clip-path="url(#ped21dfa279)" style="fill: #ffffff"/>
    <path d="M 56.675615 547.552151 
L 56.675615 600.376125 
" clip-path="url(#ped21dfa279)" style="fill: #ffffff"/>
    <path d="M 57.307322 547.412646 
L 87.447146 612.324207 
" clip-path="url(#ped21dfa279)" style="fill: #ffffff"/>
    <path d="M 57.755991 547.092721 
L 131.465172 618.086111 
" clip-path="url(#ped21dfa279)" style="fill: #ffffff"/>
    <path d="M 58.012725 546.731958 
L 165.138505 601.196318 
" clip-path="url(#ped21dfa279)" style="fill: #ffffff"/>
    <path d="M 37.220292 570.214138 
C 16.985287 560.344423 16.985287 587.583853 37.220292 577.714138 
C 16.985287 587.583853 16.985287 560.344423 37.220292 570.214138 
" clip-path="url(#ped21dfa279)" style="fill: #ffffff"/>
    <path d="M 46.874017 580.766613 
L 56.043908 600.51563 
" clip-path="url(#ped21dfa279)" style="fill: #ffffff"/>
    <path d="M 49.117365 579.16699 
L 85.203798 613.92383 
" clip-path="url(#ped21dfa279)" style="stroke: #000000; stroke-width: 1.3379"/>
    <path d="M 50.401032 577.363172 
L 131.208439 618.446875 
" clip-path="url(#ped21dfa279)" style="fill: #ffffff"/>
    <path d="M 51.028825 575.626974 
L 165.012946 601.543558 
" clip-path="url(#ped21dfa279)" style="stroke: #000000; stroke-width: 0.949772"/>
    <path d="M 55.220035 602.238461 
C 27.983181 610.636505 46.897922 630.238013 56.261617 603.317862 
C 46.897922 630.238013 27.983181 610.636505 55.220035 602.238461 
" clip-path="url(#ped21dfa279)" style="fill: #ffffff"/>
    <path d="M 58.012725 602.555932 
L 83.920131 615.727648 
" clip-path="url(#ped21dfa279)" style="fill: #ffffff"/>
    <path d="M 58.138283 602.208692 
L 131.08288 618.794114 
" clip-path="url(#ped21dfa279)" style="fill: #ffffff"/>
    <path d="M 58.175615 601.876125 
L 164.975614 601.876125 
" clip-path="url(#ped21dfa279)" style="fill: #ffffff"/>
    <path d="M 85.445421 624.569265 
C 71.1323 641.94745 97.621904 648.294688 92.738967 626.31689 
C 97.621904 648.294688 71.1323 641.94745 85.445421 624.569265 
" clip-path="url(#ped21dfa279)" style="fill: #ffffff"/>
    <path d="M 98.105681 619.126681 
L 131.045549 619.126681 
" clip-path="url(#ped21dfa279)" style="stroke: #000000; stroke-width: 2"/>
    <path d="M 97.919023 617.463846 
L 165.012946 602.208692 
" clip-path="url(#ped21dfa279)" style="fill: #ffffff"/>
    <path d="M 132.118891 620.564723 
C 125.529325 648.294688 152.018929 641.94745 133.577601 620.215198 
C 152.018929 641.94745 125.529325 648.294688 132.118891 620.564723 
" clip-path="url(#ped21dfa279)" style="fill: #ffffff"/>
    <path d="M 133.882658 618.446875 
L 165.138505 602.555932 
" clip-path="url(#ped21dfa279)" style="fill: #ffffff"/>
    <path d="M 166.889612 603.317862 
C 176.253307 630.238013 195.168048 610.636505 167.931194 602.238461 
C 195.168048 610.636505 176.253307 630.238013 166.889612 603.317862 
" clip-path="url(#ped21dfa279)" style="fill: #ffffff"/>
   </g>
   <g id="VertexCollection_4">
    <path d="M 179.435746 575.464138 
C 179.833551 575.464138 180.215116 575.306088 180.496407 575.024798 
C 180.777697 574.743508 180.935746 574.361943 180.935746 573.964138 
C 180.935746 573.566333 180.777697 573.184768 180.496407 572.903478 
C 180.215116 572.622187 179.833551 572.464138 179.435746 572.464138 
C 179.037942 572.464138 178.656377 572.622187 178.375086 572.903478 
C 178.093796 573.184768 177.935746 573.566333 177.935746 573.964138 
C 177.935746 574.361943 178.093796 574.743508 178.375086 575.024798 
C 178.656377 575.306088 179.037942 575.464138 179.435746 575.464138 
z
" clip-path="url(#ped21dfa279)" style="fill: #fdcab5; stroke: #00ff00; stroke-width: 3"/>
    <path d="M 166.475614 547.552151 
C 166.873419 547.552151 167.254984 547.394102 167.536275 547.112811 
C 167.817565 546.831521 167.975614 546.449956 167.975614 546.052151 
C 167.975614 545.654346 167.817565 545.272781 167.536275 544.991491 
C 167.254984 544.7102 166.873419 544.552151 166.475614 544.552151 
C 166.07781 544.552151 165.696245 544.7102 165.414954 544.991491 
C 165.133664 545.272781 164.975614 545.654346 164.975614 546.052151 
C 164.975614 546.449956 165.133664 546.831521 165.414954 547.112811 
C 165.696245 547.394102 166.07781 547.552151 166.475614 547.552151 
z
" clip-path="url(#ped21dfa279)" style="fill: #fdcab5; stroke: #00ff00; stroke-width: 3"/>
    <path d="M 132.545549 530.301594 
C 132.943353 530.301594 133.324918 530.143545 133.606209 529.862255 
C 133.887499 529.580964 134.045549 529.199399 134.045549 528.801594 
C 134.045549 528.40379 133.887499 528.022225 133.606209 527.740934 
C 133.324918 527.459644 132.943353 527.301594 132.545549 527.301594 
C 132.147744 527.301594 131.766179 527.459644 131.484888 527.740934 
C 131.203598 528.022225 131.045549 528.40379 131.045549 528.801594 
C 131.045549 529.199399 131.203598 529.580964 131.484888 529.862255 
C 131.766179 530.143545 132.147744 530.301594 132.545549 530.301594 
z
" clip-path="url(#ped21dfa279)" style="fill: #fdcab5; stroke: #00ff00; stroke-width: 3"/>
    <path d="M 90.605681 536.301594 
C 92.594704 536.301594 94.50253 535.511347 95.908981 534.104895 
C 97.315433 532.698443 98.105681 530.790618 98.105681 528.801594 
C 98.105681 526.812571 97.315433 524.904745 95.908981 523.498294 
C 94.50253 522.091842 92.594704 521.301594 90.605681 521.301594 
C 88.616657 521.301594 86.708832 522.091842 85.30238 523.498294 
C 83.895928 524.904745 83.105681 526.812571 83.105681 528.801594 
C 83.105681 530.790618 83.895928 532.698443 85.30238 534.104895 
C 86.708832 535.511347 88.616657 536.301594 90.605681 536.301594 
z
" clip-path="url(#ped21dfa279)" style="fill: #6b010e; stroke: #ff0000; stroke-width: 3"/>
    <path d="M 56.675615 547.552151 
C 57.073419 547.552151 57.454985 547.394102 57.736275 547.112811 
C 58.017565 546.831521 58.175615 546.449956 58.175615 546.052151 
C 58.175615 545.654346 58.017565 545.272781 57.736275 544.991491 
C 57.454985 544.7102 57.073419 544.552151 56.675615 544.552151 
C 56.27781 544.552151 55.896245 544.7102 55.614955 544.991491 
C 55.333664 545.272781 55.175615 545.654346 55.175615 546.052151 
C 55.175615 546.449956 55.333664 546.831521 55.614955 547.112811 
C 55.896245 547.394102 56.27781 547.552151 56.675615 547.552151 
z
" clip-path="url(#ped21dfa279)" style="fill: #fdcab5; stroke: #00ff00; stroke-width: 3"/>
    <path d="M 43.715483 581.464138 
C 45.704506 581.464138 47.612332 580.673891 49.018784 579.267439 
C 50.425235 577.860987 51.215483 575.953161 51.215483 573.964138 
C 51.215483 571.975115 50.425235 570.067289 49.018784 568.660837 
C 47.612332 567.254385 45.704506 566.464138 43.715483 566.464138 
C 41.72646 566.464138 39.818634 567.254385 38.412182 568.660837 
C 37.00573 570.067289 36.215483 571.975115 36.215483 573.964138 
C 36.215483 575.953161 37.00573 577.860987 38.412182 579.267439 
C 39.818634 580.673891 41.72646 581.464138 43.715483 581.464138 
z
" clip-path="url(#ped21dfa279)" style="fill: #6b010e; stroke: #00ff00; stroke-width: 3"/>
    <path d="M 56.675615 603.376125 
C 57.073419 603.376125 57.454985 603.218075 57.736275 602.936785 
C 58.017565 602.655495 58.175615 602.27393 58.175615 601.876125 
C 58.175615 601.47832 58.017565 601.096755 57.736275 600.815465 
C 57.454985 600.534174 57.073419 600.376125 56.675615 600.376125 
C 56.27781 600.376125 55.896245 600.534174 55.614955 600.815465 
C 55.333664 601.096755 55.175615 601.47832 55.175615 601.876125 
C 55.175615 602.27393 55.333664 602.655495 55.614955 602.936785 
C 55.896245 603.218075 56.27781 603.376125 56.675615 603.376125 
z
" clip-path="url(#ped21dfa279)" style="fill: #fdcab5; stroke: #00ff00; stroke-width: 3"/>
    <path d="M 90.605681 626.626681 
C 92.594704 626.626681 94.50253 625.836434 95.908981 624.429982 
C 97.315433 623.023531 98.105681 621.115705 98.105681 619.126681 
C 98.105681 617.137658 97.315433 615.229832 95.908981 613.823381 
C 94.50253 612.416929 92.594704 611.626681 90.605681 611.626681 
C 88.616657 611.626681 86.708832 612.416929 85.30238 613.823381 
C 83.895928 615.229832 83.105681 617.137658 83.105681 619.126681 
C 83.105681 621.115705 83.895928 623.023531 85.30238 624.429982 
C 86.708832 625.836434 88.616657 626.626681 90.605681 626.626681 
z
" clip-path="url(#ped21dfa279)" style="fill: #6b010e; stroke: #00ff00; stroke-width: 3"/>
    <path d="M 132.545549 620.626681 
C 132.943353 620.626681 133.324918 620.468632 133.606209 620.187342 
C 133.887499 619.906051 134.045549 619.524486 134.045549 619.126681 
C 134.045549 618.728877 133.887499 618.347312 133.606209 618.066021 
C 133.324918 617.784731 132.943353 617.626681 132.545549 617.626681 
C 132.147744 617.626681 131.766179 617.784731 131.484888 618.066021 
C 131.203598 618.347312 131.045549 618.728877 131.045549 619.126681 
C 131.045549 619.524486 131.203598 619.906051 131.484888 620.187342 
C 131.766179 620.468632 132.147744 620.626681 132.545549 620.626681 
z
" clip-path="url(#ped21dfa279)" style="fill: #fdcab5; stroke: #00ff00; stroke-width: 3"/>
    <path d="M 166.475614 603.376125 
C 166.873419 603.376125 167.254984 603.218075 167.536275 602.936785 
C 167.817565 602.655495 167.975614 602.27393 167.975614 601.876125 
C 167.975614 601.47832 167.817565 601.096755 167.536275 600.815465 
C 167.254984 600.534174 166.873419 600.376125 166.475614 600.376125 
C 166.07781 600.376125 165.696245 600.534174 165.414954 600.815465 
C 165.133664 601.096755 164.975614 601.47832 164.975614 601.876125 
C 164.975614 602.27393 165.133664 602.655495 165.414954 602.936785 
C 165.696245 603.218075 166.07781 603.376125 166.475614 603.376125 
z
" clip-path="url(#ped21dfa279)" style="fill: #fdcab5; stroke: #00ff00; stroke-width: 3"/>
   </g>
   <g id="matplotlib.axis_7"/>
   <g id="matplotlib.axis_8"/>
  </g>
  <g id="axes_5">
   <g id="patch_6">
    <path d="M 27 768.96 
L 194.4 768.96 
L 194.4 654.256552 
L 27 654.256552 
z
" style="fill: #ffffff"/>
   </g>
   <g id="EdgeCollection_5">
    <path d="M 180.729172 712.358276 
C 206.160329 725.227991 206.160329 697.988561 180.729172 710.858276 
C 206.160329 697.988561 206.160329 725.227991 180.729172 712.358276 
" clip-path="url(#pdd5d556142)" style="fill: #ffffff"/>
    <path d="M 178.791787 710.250884 
L 166.942193 685.053681 
" clip-path="url(#pdd5d556142)" style="fill: #ffffff"/>
    <path d="M 178.343157 710.574601 
L 133.025755 667.479407 
" clip-path="url(#pdd5d556142)" style="fill: #ffffff"/>
    <path d="M 178.089556 710.935333 
L 96.164109 669.810444 
" clip-path="url(#pdd5d556142)" style="fill: #ffffff"/>
    <path d="M 177.96656 711.279715 
L 56.559728 684.02485 
" clip-path="url(#pdd5d556142)" style="fill: #ffffff"/>
    <path d="M 177.930134 711.608276 
L 43.469866 711.608276 
" clip-path="url(#pdd5d556142)" style="fill: #ffffff"/>
    <path d="M 177.96656 711.936836 
L 56.559728 739.191702 
" clip-path="url(#pdd5d556142)" style="fill: #ffffff"/>
    <path d="M 178.089556 712.281218 
L 96.164109 753.406107 
" clip-path="url(#pdd5d556142)" style="fill: #ffffff"/>
    <path d="M 178.343157 712.64195 
L 133.025755 755.737145 
" clip-path="url(#pdd5d556142)" style="fill: #ffffff"/>
    <path d="M 178.791787 712.965668 
L 166.942193 738.162871 
" clip-path="url(#pdd5d556142)" style="fill: #ffffff"/>
    <path d="M 167.757593 683.32667 
C 194.952061 674.792371 175.939423 655.285804 166.71062 682.252497 
C 175.939423 655.285804 194.952061 674.792371 167.757593 683.32667 
" clip-path="url(#pdd5d556142)" style="fill: #ffffff"/>
    <path d="M 164.963268 683.023347 
L 133.279357 667.118675 
" clip-path="url(#pdd5d556142)" style="fill: #ffffff"/>
    <path d="M 164.840272 683.367728 
L 96.779089 668.088535 
" clip-path="url(#pdd5d556142)" style="fill: #ffffff"/>
    <path d="M 164.803846 683.696289 
L 56.596154 683.696289 
" clip-path="url(#pdd5d556142)" style="fill: #ffffff"/>
    <path d="M 164.840272 684.02485 
L 43.43344 711.279715 
" clip-path="url(#pdd5d556142)" style="fill: #ffffff"/>
    <path d="M 164.963268 684.369231 
L 56.436732 738.84732 
" clip-path="url(#pdd5d556142)" style="fill: #ffffff"/>
    <path d="M 165.21687 684.729963 
L 94.896101 751.602447 
" clip-path="url(#pdd5d556142)" style="fill: #ffffff"/>
    <path d="M 165.665499 685.053681 
L 132.577126 755.413427 
" clip-path="url(#pdd5d556142)" style="stroke: #000000; stroke-width: 0.663677"/>
    <path d="M 166.303846 685.196289 
L 166.303846 738.020263 
" clip-path="url(#pdd5d556142)" style="fill: #ffffff"/>
    <path d="M 132.968037 665.354573 
C 151.353594 643.575118 124.847806 637.295808 131.508437 665.008789 
C 124.847806 637.295808 151.353594 643.575118 132.968037 665.354573 
" clip-path="url(#pdd5d556142)" style="fill: #ffffff"/>
    <path d="M 130.438779 666.445732 
L 96.961221 666.445732 
" clip-path="url(#pdd5d556142)" style="fill: #ffffff"/>
    <path d="M 130.475206 666.774293 
L 56.559728 683.367728 
" clip-path="url(#pdd5d556142)" style="fill: #ffffff"/>
    <path d="M 130.598202 667.118675 
L 43.310444 710.935333 
" clip-path="url(#pdd5d556142)" style="fill: #ffffff"/>
    <path d="M 130.851803 667.479407 
L 56.18313 738.486588 
" clip-path="url(#pdd5d556142)" style="fill: #ffffff"/>
    <path d="M 131.300433 667.803125 
L 92.652953 749.983858 
" clip-path="url(#pdd5d556142)" style="fill: #ffffff"/>
    <path d="M 131.938779 667.945732 
L 131.938779 755.270819 
" clip-path="url(#pdd5d556142)" style="fill: #ffffff"/>
    <path d="M 132.577126 667.803125 
L 165.665499 738.162871 
" clip-path="url(#pdd5d556142)" style="fill: #ffffff"/>
    <path d="M 91.612932 659.261017 
C 96.552194 637.295808 70.046406 643.575118 84.31493 660.989938 
C 70.046406 643.575118 96.552194 637.295808 91.612932 659.261017 
" clip-path="url(#pdd5d556142)" style="fill: #ffffff"/>
    <path d="M 82.758332 669.810444 
L 56.436732 683.023347 
" clip-path="url(#pdd5d556142)" style="fill: #ffffff"/>
    <path d="M 84.02634 671.614105 
L 43.056843 710.574601 
" clip-path="url(#pdd5d556142)" style="fill: #ffffff"/>
    <path d="M 86.269488 673.232693 
L 55.734501 738.162871 
" clip-path="url(#pdd5d556142)" style="stroke: #000000; stroke-width: 1.112108"/>
    <path d="M 89.461221 673.945732 
L 89.461221 749.270819 
" clip-path="url(#pdd5d556142)" style="stroke: #000000; stroke-width: 2"/>
    <path d="M 92.652953 673.232693 
L 131.300433 755.413427 
" clip-path="url(#pdd5d556142)" style="fill: #ffffff"/>
    <path d="M 94.896101 671.614105 
L 165.21687 738.486588 
" clip-path="url(#pdd5d556142)" style="stroke: #000000; stroke-width: 1.09417"/>
    <path d="M 54.68938 682.252497 
C 45.460577 655.285804 26.447939 674.792371 53.642407 683.32667 
C 26.447939 674.792371 45.460577 655.285804 54.68938 682.252497 
" clip-path="url(#pdd5d556142)" style="fill: #ffffff"/>
    <path d="M 54.457807 685.053681 
L 42.608213 710.250884 
" clip-path="url(#pdd5d556142)" style="fill: #ffffff"/>
    <path d="M 55.096154 685.196289 
L 55.096154 738.020263 
" clip-path="url(#pdd5d556142)" style="fill: #ffffff"/>
    <path d="M 55.734501 685.053681 
L 86.269488 749.983858 
" clip-path="url(#pdd5d556142)" style="fill: #ffffff"/>
    <path d="M 56.18313 684.729963 
L 130.851803 755.737145 
" clip-path="url(#pdd5d556142)" style="fill: #ffffff"/>
    <path d="M 56.436732 684.369231 
L 164.963268 738.84732 
" clip-path="url(#pdd5d556142)" style="fill: #ffffff"/>
    <path d="M 40.670828 710.858276 
C 15.239671 697.988561 15.239671 725.227991 40.670828 712.358276 
C 15.239671 725.227991 15.239671 697.988561 40.670828 710.858276 
" clip-path="url(#pdd5d556142)" style="fill: #ffffff"/>
    <path d="M 42.608213 712.965668 
L 54.457807 738.162871 
" clip-path="url(#pdd5d556142)" style="fill: #ffffff"/>
    <path d="M 43.056843 712.64195 
L 84.02634 751.602447 
" clip-path="url(#pdd5d556142)" style="fill: #ffffff"/>
    <path d="M 43.310444 712.281218 
L 130.598202 756.097877 
" clip-path="url(#pdd5d556142)" style="fill: #ffffff"/>
    <path d="M 43.43344 711.936836 
L 164.840272 739.191702 
" clip-path="url(#pdd5d556142)" style="stroke: #000000; stroke-width: 0.784753"/>
    <path d="M 53.642407 739.889882 
C 26.447939 748.424181 45.460577 767.930748 54.68938 740.964055 
C 45.460577 767.930748 26.447939 748.424181 53.642407 739.889882 
" clip-path="url(#pdd5d556142)" style="fill: #ffffff"/>
    <path d="M 56.436732 740.193205 
L 82.758332 753.406107 
" clip-path="url(#pdd5d556142)" style="stroke: #000000; stroke-width: 1.286996"/>
    <path d="M 56.559728 739.848823 
L 130.475206 756.442259 
" clip-path="url(#pdd5d556142)" style="fill: #ffffff"/>
    <path d="M 56.596154 739.520263 
L 164.803846 739.520263 
" clip-path="url(#pdd5d556142)" style="fill: #ffffff"/>
    <path d="M 84.31493 762.226614 
C 70.046406 779.641433 96.552194 785.920744 91.612932 763.955535 
C 96.552194 785.920744 70.046406 779.641433 84.31493 762.226614 
" clip-path="url(#pdd5d556142)" style="fill: #ffffff"/>
    <path d="M 96.961221 756.770819 
L 130.438779 756.770819 
" clip-path="url(#pdd5d556142)" style="stroke: #000000; stroke-width: 1.578475"/>
    <path d="M 96.779089 755.128016 
L 164.840272 739.848823 
" clip-path="url(#pdd5d556142)" style="fill: #ffffff"/>
    <path d="M 131.508437 758.207763 
C 124.847806 785.920744 151.353594 779.641433 132.968037 757.861978 
C 151.353594 779.641433 124.847806 785.920744 131.508437 758.207763 
" clip-path="url(#pdd5d556142)" style="fill: #ffffff"/>
    <path d="M 133.279357 756.097877 
L 164.963268 740.193205 
" clip-path="url(#pdd5d556142)" style="fill: #ffffff"/>
    <path d="M 166.71062 740.964055 
C 175.939423 767.930748 194.952061 748.424181 167.757593 739.889882 
C 194.952061 748.424181 175.939423 767.930748 166.71062 740.964055 
" clip-path="url(#pdd5d556142)" style="fill: #ffffff"/>
   </g>
   <g id="VertexCollection_5">
    <path d="M 179.430134 713.108276 
C 179.827938 713.108276 180.209503 712.950226 180.490794 712.668936 
C 180.772084 712.387646 180.930134 712.006081 180.930134 711.608276 
C 180.930134 711.210471 180.772084 710.828906 180.490794 710.547616 
C 180.209503 710.266325 179.827938 710.108276 179.430134 710.108276 
C 179.032329 710.108276 178.650764 710.266325 178.369473 710.547616 
C 178.088183 710.828906 177.930134 711.210471 177.930134 711.608276 
C 177.930134 712.006081 178.088183 712.387646 178.369473 712.668936 
C 178.650764 712.950226 179.032329 713.108276 179.430134 713.108276 
z
" clip-path="url(#pdd5d556142)" style="fill: #fdcab5; stroke: #00ff00; stroke-width: 3"/>
    <path d="M 166.303846 685.196289 
C 166.701651 685.196289 167.083216 685.038239 167.364506 684.756949 
C 167.645797 684.475659 167.803846 684.094094 167.803846 683.696289 
C 167.803846 683.298484 167.645797 682.916919 167.364506 682.635629 
C 167.083216 682.354338 166.701651 682.196289 166.303846 682.196289 
C 165.906041 682.196289 165.524476 682.354338 165.243186 682.635629 
C 164.961895 682.916919 164.803846 683.298484 164.803846 683.696289 
C 164.803846 684.094094 164.961895 684.475659 165.243186 684.756949 
C 165.524476 685.038239 165.906041 685.196289 166.303846 685.196289 
z
" clip-path="url(#pdd5d556142)" style="fill: #fdcab5; stroke: #00ff00; stroke-width: 3"/>
    <path d="M 131.938779 667.945732 
C 132.336584 667.945732 132.718149 667.787683 132.999439 667.506392 
C 133.28073 667.225102 133.438779 666.843537 133.438779 666.445732 
C 133.438779 666.047928 133.28073 665.666362 132.999439 665.385072 
C 132.718149 665.103782 132.336584 664.945732 131.938779 664.945732 
C 131.540975 664.945732 131.159409 665.103782 130.878119 665.385072 
C 130.596829 665.666362 130.438779 666.047928 130.438779 666.445732 
C 130.438779 666.843537 130.596829 667.225102 130.878119 667.506392 
C 131.159409 667.787683 131.540975 667.945732 131.938779 667.945732 
z
" clip-path="url(#pdd5d556142)" style="fill: #fdcab5; stroke: #00ff00; stroke-width: 3"/>
    <path d="M 89.461221 673.945732 
C 91.450244 673.945732 93.35807 673.155485 94.764522 671.749033 
C 96.170973 670.342581 96.961221 668.434756 96.961221 666.445732 
C 96.961221 664.456709 96.170973 662.548883 94.764522 661.142431 
C 93.35807 659.73598 91.450244 658.945732 89.461221 658.945732 
C 87.472197 658.945732 85.564372 659.73598 84.15792 661.142431 
C 82.751468 662.548883 81.961221 664.456709 81.961221 666.445732 
C 81.961221 668.434756 82.751468 670.342581 84.15792 671.749033 
C 85.564372 673.155485 87.472197 673.945732 89.461221 673.945732 
z
" clip-path="url(#pdd5d556142)" style="fill: #6b010e; stroke: #ff0000; stroke-width: 3"/>
    <path d="M 55.096154 685.196289 
C 55.493959 685.196289 55.875524 685.038239 56.156814 684.756949 
C 56.438105 684.475659 56.596154 684.094094 56.596154 683.696289 
C 56.596154 683.298484 56.438105 682.916919 56.156814 682.635629 
C 55.875524 682.354338 55.493959 682.196289 55.096154 682.196289 
C 54.698349 682.196289 54.316784 682.354338 54.035494 682.635629 
C 53.754203 682.916919 53.596154 683.298484 53.596154 683.696289 
C 53.596154 684.094094 53.754203 684.475659 54.035494 684.756949 
C 54.316784 685.038239 54.698349 685.196289 55.096154 685.196289 
z
" clip-path="url(#pdd5d556142)" style="fill: #fdcab5; stroke: #00ff00; stroke-width: 3"/>
    <path d="M 41.969866 713.108276 
C 42.367671 713.108276 42.749236 712.950226 43.030527 712.668936 
C 43.311817 712.387646 43.469866 712.006081 43.469866 711.608276 
C 43.469866 711.210471 43.311817 710.828906 43.030527 710.547616 
C 42.749236 710.266325 42.367671 710.108276 41.969866 710.108276 
C 41.572062 710.108276 41.190497 710.266325 40.909206 710.547616 
C 40.627916 710.828906 40.469866 711.210471 40.469866 711.608276 
C 40.469866 712.006081 40.627916 712.387646 40.909206 712.668936 
C 41.190497 712.950226 41.572062 713.108276 41.969866 713.108276 
z
" clip-path="url(#pdd5d556142)" style="fill: #fdcab5; stroke: #00ff00; stroke-width: 3"/>
    <path d="M 55.096154 741.020263 
C 55.493959 741.020263 55.875524 740.862213 56.156814 740.580923 
C 56.438105 740.299633 56.596154 739.918067 56.596154 739.520263 
C 56.596154 739.122458 56.438105 738.740893 56.156814 738.459603 
C 55.875524 738.178312 55.493959 738.020263 55.096154 738.020263 
C 54.698349 738.020263 54.316784 738.178312 54.035494 738.459603 
C 53.754203 738.740893 53.596154 739.122458 53.596154 739.520263 
C 53.596154 739.918067 53.754203 740.299633 54.035494 740.580923 
C 54.316784 740.862213 54.698349 741.020263 55.096154 741.020263 
z
" clip-path="url(#pdd5d556142)" style="fill: #fdcab5; stroke: #00ff00; stroke-width: 3"/>
    <path d="M 89.461221 764.270819 
C 91.450244 764.270819 93.35807 763.480572 94.764522 762.07412 
C 96.170973 760.667668 96.961221 758.759843 96.961221 756.770819 
C 96.961221 754.781796 96.170973 752.87397 94.764522 751.467519 
C 93.35807 750.061067 91.450244 749.270819 89.461221 749.270819 
C 87.472197 749.270819 85.564372 750.061067 84.15792 751.467519 
C 82.751468 752.87397 81.961221 754.781796 81.961221 756.770819 
C 81.961221 758.759843 82.751468 760.667668 84.15792 762.07412 
C 85.564372 763.480572 87.472197 764.270819 89.461221 764.270819 
z
" clip-path="url(#pdd5d556142)" style="fill: #6b010e; stroke: #00ff00; stroke-width: 3"/>
    <path d="M 131.938779 758.270819 
C 132.336584 758.270819 132.718149 758.11277 132.999439 757.83148 
C 133.28073 757.550189 133.438779 757.168624 133.438779 756.770819 
C 133.438779 756.373015 133.28073 755.99145 132.999439 755.710159 
C 132.718149 755.428869 132.336584 755.270819 131.938779 755.270819 
C 131.540975 755.270819 131.159409 755.428869 130.878119 755.710159 
C 130.596829 755.99145 130.438779 756.373015 130.438779 756.770819 
C 130.438779 757.168624 130.596829 757.550189 130.878119 757.83148 
C 131.159409 758.11277 131.540975 758.270819 131.938779 758.270819 
z
" clip-path="url(#pdd5d556142)" style="fill: #fdcab5; stroke: #00ff00; stroke-width: 3"/>
    <path d="M 166.303846 741.020263 
C 166.701651 741.020263 167.083216 740.862213 167.364506 740.580923 
C 167.645797 740.299633 167.803846 739.918067 167.803846 739.520263 
C 167.803846 739.122458 167.645797 738.740893 167.364506 738.459603 
C 167.083216 738.178312 166.701651 738.020263 166.303846 738.020263 
C 165.906041 738.020263 165.524476 738.178312 165.243186 738.459603 
C 164.961895 738.740893 164.803846 739.122458 164.803846 739.520263 
C 164.803846 739.918067 164.961895 740.299633 165.243186 740.580923 
C 165.524476 740.862213 165.906041 741.020263 166.303846 741.020263 
z
" clip-path="url(#pdd5d556142)" style="fill: #fdcab5; stroke: #00ff00; stroke-width: 3"/>
   </g>
   <g id="matplotlib.axis_9"/>
   <g id="matplotlib.axis_10"/>
  </g>
 </g>
 <defs>
  <clipPath id="pc929fcd1ad">
   <rect x="27" y="103.68" width="167.4" height="114.703448"/>
  </clipPath>
  <clipPath id="p1e0b2bdfe9">
   <rect x="27" y="241.324138" width="167.4" height="114.703448"/>
  </clipPath>
  <clipPath id="p8cb80c606c">
   <rect x="27" y="378.968276" width="167.4" height="114.703448"/>
  </clipPath>
  <clipPath id="ped21dfa279">
   <rect x="27" y="516.612414" width="167.4" height="114.703448"/>
  </clipPath>
  <clipPath id="pdd5d556142">
   <rect x="27" y="654.256552" width="167.4" height="114.703448"/>
  </clipPath>
 </defs>
</svg>
