<?xml version="1.0" encoding="utf-8" standalone="no"?>
<!DOCTYPE svg PUBLIC "-//W3C//DTD SVG 1.1//EN"
  "http://www.w3.org/Graphics/SVG/1.1/DTD/svg11.dtd">
<svg xmlns:xlink="http://www.w3.org/1999/xlink" width="144pt" height="144pt" viewBox="0 0 144 144" xmlns="http://www.w3.org/2000/svg" version="1.1">
 <metadata>
  <rdf:RDF xmlns:dc="http://purl.org/dc/elements/1.1/" xmlns:cc="http://creativecommons.org/ns#" xmlns:rdf="http://www.w3.org/1999/02/22-rdf-syntax-ns#">
   <cc:Work>
    <dc:type rdf:resource="http://purl.org/dc/dcmitype/StillImage"/>
    <dc:date>2025-06-03T17:18:16.539890</dc:date>
    <dc:format>image/svg+xml</dc:format>
    <dc:creator>
     <cc:Agent>
      <dc:title>Matplotlib v3.9.2, https://matplotlib.org/</dc:title>
     </cc:Agent>
    </dc:creator>
   </cc:Work>
  </rdf:RDF>
 </metadata>
 <defs>
  <style type="text/css">*{stroke-linejoin: round; stroke-linecap: butt}</style>
 </defs>
 <g id="figure_1">
  <g id="patch_1">
   <path d="M 0 144 
L 144 144 
L 144 0 
L 0 0 
z
" style="fill: #ffffff"/>
  </g>
  <g id="axes_1">
   <g id="patch_2">
    <path d="M 18 128.16 
L 129.6 128.16 
L 129.6 17.28 
L 18 17.28 
z
" style="fill: #ffffff"/>
   </g>
   <g id="matplotlib.axis_1">
    <g id="xtick_1">
     <g id="line2d_1">
      <defs>
       <path id="m4c734e11ec" d="M 0 0 
L 0 3.5 
" style="stroke: #000000; stroke-width: 0.8"/>
      </defs>
      <g>
       <use xlink:href="#m4c734e11ec" x="18" y="128.16" style="stroke: #000000; stroke-width: 0.8"/>
      </g>
     </g>
     <g id="text_1">
      <!-- 0.0 -->
      <g transform="translate(10.048437 142.758438) scale(0.1 -0.1)">
       <defs>
        <path id="DejaVuSerif-30" d="M 2034 219 
Q 2513 219 2750 744 
Q 2988 1269 2988 2328 
Q 2988 3391 2750 3916 
Q 2513 4441 2034 4441 
Q 1556 4441 1318 3916 
Q 1081 3391 1081 2328 
Q 1081 1269 1318 744 
Q 1556 219 2034 219 
z
M 2034 -91 
Q 1275 -91 848 546 
Q 422 1184 422 2328 
Q 422 3475 848 4112 
Q 1275 4750 2034 4750 
Q 2797 4750 3222 4112 
Q 3647 3475 3647 2328 
Q 3647 1184 3222 546 
Q 2797 -91 2034 -91 
z
" transform="scale(0.015625)"/>
        <path id="DejaVuSerif-2e" d="M 603 325 
Q 603 500 722 622 
Q 841 744 1019 744 
Q 1191 744 1312 622 
Q 1434 500 1434 325 
Q 1434 153 1312 31 
Q 1191 -91 1019 -91 
Q 841 -91 722 29 
Q 603 150 603 325 
z
" transform="scale(0.015625)"/>
       </defs>
       <use xlink:href="#DejaVuSerif-30"/>
       <use xlink:href="#DejaVuSerif-2e" x="63.623047"/>
       <use xlink:href="#DejaVuSerif-30" x="95.410156"/>
      </g>
     </g>
    </g>
    <g id="xtick_2">
     <g id="line2d_2">
      <g>
       <use xlink:href="#m4c734e11ec" x="73.8" y="128.16" style="stroke: #000000; stroke-width: 0.8"/>
      </g>
     </g>
     <g id="text_2">
      <!-- 0.5 -->
      <g transform="translate(65.848438 142.758438) scale(0.1 -0.1)">
       <defs>
        <path id="DejaVuSerif-35" d="M 3219 4666 
L 3219 4153 
L 1081 4153 
L 1081 2816 
Q 1244 2928 1461 2984 
Q 1678 3041 1947 3041 
Q 2703 3041 3140 2622 
Q 3578 2203 3578 1478 
Q 3578 738 3136 323 
Q 2694 -91 1894 -91 
Q 1572 -91 1234 -12 
Q 897 66 544 225 
L 544 1131 
L 897 1131 
Q 925 688 1179 453 
Q 1434 219 1894 219 
Q 2388 219 2653 544 
Q 2919 869 2919 1478 
Q 2919 2084 2655 2407 
Q 2391 2731 1894 2731 
Q 1613 2731 1398 2631 
Q 1184 2531 1019 2322 
L 750 2322 
L 750 4666 
L 3219 4666 
z
" transform="scale(0.015625)"/>
       </defs>
       <use xlink:href="#DejaVuSerif-30"/>
       <use xlink:href="#DejaVuSerif-2e" x="63.623047"/>
       <use xlink:href="#DejaVuSerif-35" x="95.410156"/>
      </g>
     </g>
    </g>
    <g id="xtick_3">
     <g id="line2d_3">
      <g>
       <use xlink:href="#m4c734e11ec" x="129.6" y="128.16" style="stroke: #000000; stroke-width: 0.8"/>
      </g>
     </g>
     <g id="text_3">
      <!-- 1.0 -->
      <g transform="translate(121.648438 142.758438) scale(0.1 -0.1)">
       <defs>
        <path id="DejaVuSerif-31" d="M 909 0 
L 909 331 
L 1722 331 
L 1722 4213 
L 781 3603 
L 781 4013 
L 1919 4750 
L 2350 4750 
L 2350 331 
L 3163 331 
L 3163 0 
L 909 0 
z
" transform="scale(0.015625)"/>
       </defs>
       <use xlink:href="#DejaVuSerif-31"/>
       <use xlink:href="#DejaVuSerif-2e" x="63.623047"/>
       <use xlink:href="#DejaVuSerif-30" x="95.410156"/>
      </g>
     </g>
    </g>
   </g>
   <g id="matplotlib.axis_2">
    <g id="ytick_1">
     <g id="line2d_4">
      <defs>
       <path id="m37d654f78b" d="M 0 0 
L -3.5 0 
" style="stroke: #000000; stroke-width: 0.8"/>
      </defs>
      <g>
       <use xlink:href="#m37d654f78b" x="18" y="128.16" style="stroke: #000000; stroke-width: 0.8"/>
      </g>
     </g>
     <g id="text_4">
      <!-- 0.0 -->
      <g transform="translate(-4.903125 131.959219) scale(0.1 -0.1)">
       <use xlink:href="#DejaVuSerif-30"/>
       <use xlink:href="#DejaVuSerif-2e" x="63.623047"/>
       <use xlink:href="#DejaVuSerif-30" x="95.410156"/>
      </g>
     </g>
    </g>
    <g id="ytick_2">
     <g id="line2d_5">
      <g>
       <use xlink:href="#m37d654f78b" x="18" y="105.984" style="stroke: #000000; stroke-width: 0.8"/>
      </g>
     </g>
     <g id="text_5">
      <!-- 0.2 -->
      <g transform="translate(-4.903125 109.783219) scale(0.1 -0.1)">
       <defs>
        <path id="DejaVuSerif-32" d="M 819 3553 
L 469 3553 
L 469 4384 
Q 803 4563 1142 4656 
Q 1481 4750 1806 4750 
Q 2534 4750 2956 4397 
Q 3378 4044 3378 3438 
Q 3378 2753 2422 1800 
Q 2347 1728 2309 1691 
L 1131 513 
L 3078 513 
L 3078 1088 
L 3444 1088 
L 3444 0 
L 434 0 
L 434 341 
L 1850 1753 
Q 2319 2222 2519 2614 
Q 2719 3006 2719 3438 
Q 2719 3909 2473 4175 
Q 2228 4441 1797 4441 
Q 1350 4441 1106 4219 
Q 863 3997 819 3553 
z
" transform="scale(0.015625)"/>
       </defs>
       <use xlink:href="#DejaVuSerif-30"/>
       <use xlink:href="#DejaVuSerif-2e" x="63.623047"/>
       <use xlink:href="#DejaVuSerif-32" x="95.410156"/>
      </g>
     </g>
    </g>
    <g id="ytick_3">
     <g id="line2d_6">
      <g>
       <use xlink:href="#m37d654f78b" x="18" y="83.808" style="stroke: #000000; stroke-width: 0.8"/>
      </g>
     </g>
     <g id="text_6">
      <!-- 0.4 -->
      <g transform="translate(-4.903125 87.607219) scale(0.1 -0.1)">
       <defs>
        <path id="DejaVuSerif-34" d="M 2234 1581 
L 2234 4063 
L 641 1581 
L 2234 1581 
z
M 3609 0 
L 1484 0 
L 1484 331 
L 2234 331 
L 2234 1247 
L 197 1247 
L 197 1588 
L 2241 4750 
L 2859 4750 
L 2859 1581 
L 3750 1581 
L 3750 1247 
L 2859 1247 
L 2859 331 
L 3609 331 
L 3609 0 
z
" transform="scale(0.015625)"/>
       </defs>
       <use xlink:href="#DejaVuSerif-30"/>
       <use xlink:href="#DejaVuSerif-2e" x="63.623047"/>
       <use xlink:href="#DejaVuSerif-34" x="95.410156"/>
      </g>
     </g>
    </g>
    <g id="ytick_4">
     <g id="line2d_7">
      <g>
       <use xlink:href="#m37d654f78b" x="18" y="61.632" style="stroke: #000000; stroke-width: 0.8"/>
      </g>
     </g>
     <g id="text_7">
      <!-- 0.6 -->
      <g transform="translate(-4.903125 65.431219) scale(0.1 -0.1)">
       <defs>
        <path id="DejaVuSerif-36" d="M 2094 219 
Q 2534 219 2771 542 
Q 3009 866 3009 1472 
Q 3009 2078 2771 2401 
Q 2534 2725 2094 2725 
Q 1647 2725 1412 2412 
Q 1178 2100 1178 1509 
Q 1178 888 1415 553 
Q 1653 219 2094 219 
z
M 1075 2569 
Q 1288 2803 1556 2918 
Q 1825 3034 2163 3034 
Q 2859 3034 3264 2615 
Q 3669 2197 3669 1472 
Q 3669 763 3233 336 
Q 2797 -91 2069 -91 
Q 1278 -91 853 498 
Q 428 1088 428 2181 
Q 428 3406 931 4078 
Q 1434 4750 2350 4750 
Q 2597 4750 2869 4703 
Q 3141 4656 3425 4563 
L 3425 3794 
L 3072 3794 
Q 3034 4109 2831 4275 
Q 2628 4441 2284 4441 
Q 1678 4441 1381 3981 
Q 1084 3522 1075 2569 
z
" transform="scale(0.015625)"/>
       </defs>
       <use xlink:href="#DejaVuSerif-30"/>
       <use xlink:href="#DejaVuSerif-2e" x="63.623047"/>
       <use xlink:href="#DejaVuSerif-36" x="95.410156"/>
      </g>
     </g>
    </g>
    <g id="ytick_5">
     <g id="line2d_8">
      <g>
       <use xlink:href="#m37d654f78b" x="18" y="39.456" style="stroke: #000000; stroke-width: 0.8"/>
      </g>
     </g>
     <g id="text_8">
      <!-- 0.8 -->
      <g transform="translate(-4.903125 43.255219) scale(0.1 -0.1)">
       <defs>
        <path id="DejaVuSerif-38" d="M 2981 1275 
Q 2981 1775 2732 2051 
Q 2484 2328 2034 2328 
Q 1584 2328 1336 2051 
Q 1088 1775 1088 1275 
Q 1088 772 1336 495 
Q 1584 219 2034 219 
Q 2484 219 2732 495 
Q 2981 772 2981 1275 
z
M 2853 3541 
Q 2853 3966 2637 4203 
Q 2422 4441 2034 4441 
Q 1650 4441 1433 4203 
Q 1216 3966 1216 3541 
Q 1216 3113 1433 2875 
Q 1650 2638 2034 2638 
Q 2422 2638 2637 2875 
Q 2853 3113 2853 3541 
z
M 2516 2484 
Q 3047 2413 3344 2092 
Q 3641 1772 3641 1275 
Q 3641 619 3225 264 
Q 2809 -91 2034 -91 
Q 1263 -91 845 264 
Q 428 619 428 1275 
Q 428 1772 725 2092 
Q 1022 2413 1556 2484 
Q 1084 2569 832 2842 
Q 581 3116 581 3541 
Q 581 4103 968 4426 
Q 1356 4750 2034 4750 
Q 2713 4750 3100 4426 
Q 3488 4103 3488 3541 
Q 3488 3116 3236 2842 
Q 2984 2569 2516 2484 
z
" transform="scale(0.015625)"/>
       </defs>
       <use xlink:href="#DejaVuSerif-30"/>
       <use xlink:href="#DejaVuSerif-2e" x="63.623047"/>
       <use xlink:href="#DejaVuSerif-38" x="95.410156"/>
      </g>
     </g>
    </g>
    <g id="ytick_6">
     <g id="line2d_9">
      <g>
       <use xlink:href="#m37d654f78b" x="18" y="17.28" style="stroke: #000000; stroke-width: 0.8"/>
      </g>
     </g>
     <g id="text_9">
      <!-- 1.0 -->
      <g transform="translate(-4.903125 21.079219) scale(0.1 -0.1)">
       <use xlink:href="#DejaVuSerif-31"/>
       <use xlink:href="#DejaVuSerif-2e" x="63.623047"/>
       <use xlink:href="#DejaVuSerif-30" x="95.410156"/>
      </g>
     </g>
    </g>
   </g>
   <g id="patch_3">
    <path d="M 18 128.16 
L 18 17.28 
" style="fill: none; stroke: #000000; stroke-width: 0.8; stroke-linejoin: miter; stroke-linecap: square"/>
   </g>
   <g id="patch_4">
    <path d="M 129.6 128.16 
L 129.6 17.28 
" style="fill: none; stroke: #000000; stroke-width: 0.8; stroke-linejoin: miter; stroke-linecap: square"/>
   </g>
   <g id="patch_5">
    <path d="M 18 128.16 
L 129.6 128.16 
" style="fill: none; stroke: #000000; stroke-width: 0.8; stroke-linejoin: miter; stroke-linecap: square"/>
   </g>
   <g id="patch_6">
    <path d="M 18 17.28 
L 129.6 17.28 
" style="fill: none; stroke: #000000; stroke-width: 0.8; stroke-linejoin: miter; stroke-linecap: square"/>
   </g>
  </g>
  <g id="patch_7">
   <path d="M 18.36 128.16 
L 129.24 128.16 
L 129.24 17.28 
L 18.36 17.28 
z
" style="fill: #ffffff"/>
  </g>
  <g id="axes_2">
   <g id="patch_8">
    <path d="M 88.376295 77.17945 
Q 87.607094 76.956016 86.837894 76.732581 
" clip-path="url(#p6acd96853c)" style="fill: none; opacity: 0.592486; stroke: #e5e5e5; stroke-width: 0.184971; stroke-linecap: round"/>
   </g>
   <g id="Path3DCollection_1">
    <path d="M 82.036969 75.69158 
C 82.130732 75.69158 82.220668 75.654328 82.286969 75.588027 
C 82.35327 75.521726 82.390522 75.431791 82.390522 75.338027 
C 82.390522 75.244264 82.35327 75.154328 82.286969 75.088027 
C 82.220668 75.021726 82.130732 74.984474 82.036969 74.984474 
C 81.943205 74.984474 81.85327 75.021726 81.786969 75.088027 
C 81.720668 75.154328 81.683415 75.244264 81.683415 75.338027 
C 81.683415 75.431791 81.720668 75.521726 81.786969 75.588027 
C 81.85327 75.654328 81.943205 75.69158 82.036969 75.69158 
z
" clip-path="url(#p6acd96853c)" style="fill: #fff5f0; stroke: #00ff00; stroke-width: 2"/>
    <path d="M 63.769997 76.881398 
C 63.863761 76.881398 63.953697 76.844145 64.019997 76.777844 
C 64.086298 76.711543 64.123551 76.621608 64.123551 76.527844 
C 64.123551 76.434081 64.086298 76.344145 64.019997 76.277844 
C 63.953697 76.211543 63.863761 76.174291 63.769997 76.174291 
C 63.676234 76.174291 63.586298 76.211543 63.519997 76.277844 
C 63.453697 76.344145 63.416444 76.434081 63.416444 76.527844 
C 63.416444 76.621608 63.453697 76.711543 63.519997 76.777844 
C 63.586298 76.844145 63.676234 76.881398 63.769997 76.881398 
z
" clip-path="url(#p6acd96853c)" style="fill: #fff5f0; stroke: #00ff00; stroke-width: 2"/>
    <path d="M 97.976735 80.321703 
C 98.070498 80.321703 98.160434 80.28445 98.226735 80.21815 
C 98.293036 80.151849 98.330288 80.061913 98.330288 79.96815 
C 98.330288 79.874386 98.293036 79.78445 98.226735 79.71815 
C 98.160434 79.651849 98.070498 79.614596 97.976735 79.614596 
C 97.882972 79.614596 97.793036 79.651849 97.726735 79.71815 
C 97.660434 79.78445 97.623182 79.874386 97.623182 79.96815 
C 97.623182 80.061913 97.660434 80.151849 97.726735 80.21815 
C 97.793036 80.28445 97.882972 80.321703 97.976735 80.321703 
z
" clip-path="url(#p6acd96853c)" style="fill: #fff5f0; stroke: #ff0000; stroke-width: 2"/>
    <path d="M 49.391636 83.537671 
C 49.485399 83.537671 49.575335 83.500419 49.641636 83.434118 
C 49.707936 83.367817 49.745189 83.277881 49.745189 83.184118 
C 49.745189 83.090354 49.707936 83.000419 49.641636 82.934118 
C 49.575335 82.867817 49.485399 82.830565 49.391636 82.830565 
C 49.297872 82.830565 49.207936 82.867817 49.141636 82.934118 
C 49.075335 83.000419 49.038082 83.090354 49.038082 83.184118 
C 49.038082 83.277881 49.075335 83.367817 49.141636 83.434118 
C 49.207936 83.500419 49.297872 83.537671 49.391636 83.537671 
z
" clip-path="url(#p6acd96853c)" style="fill: #fff5f0; stroke: #00ff00; stroke-width: 2"/>
    <path d="M 105.914786 89.354064 
C 106.00855 89.354064 106.098485 89.316812 106.164786 89.250511 
C 106.231087 89.18421 106.268339 89.094274 106.268339 89.000511 
C 106.268339 88.906747 106.231087 88.816812 106.164786 88.750511 
C 106.098485 88.68421 106.00855 88.646957 105.914786 88.646957 
C 105.821023 88.646957 105.731087 88.68421 105.664786 88.750511 
C 105.598485 88.816812 105.561233 88.906747 105.561233 89.000511 
C 105.561233 89.094274 105.598485 89.18421 105.664786 89.250511 
C 105.731087 89.316812 105.821023 89.354064 105.914786 89.354064 
z
" clip-path="url(#p6acd96853c)" style="fill: #fff5f0; stroke: #00ff00; stroke-width: 2"/>
    <path d="M 44.273099 93.544363 
C 44.366863 93.544363 44.456799 93.507111 44.523099 93.44081 
C 44.5894 93.374509 44.626653 93.284573 44.626653 93.19081 
C 44.626653 93.097046 44.5894 93.007111 44.523099 92.94081 
C 44.456799 92.874509 44.366863 92.837256 44.273099 92.837256 
C 44.179336 92.837256 44.0894 92.874509 44.023099 92.94081 
C 43.956799 93.007111 43.919546 93.097046 43.919546 93.19081 
C 43.919546 93.284573 43.956799 93.374509 44.023099 93.44081 
C 44.0894 93.507111 44.179336 93.544363 44.273099 93.544363 
z
" clip-path="url(#p6acd96853c)" style="fill: #fff5f0; stroke: #00ff00; stroke-width: 2"/>
    <path d="M 102.317046 99.69325 
C 102.410809 99.69325 102.500745 99.655997 102.567046 99.589697 
C 102.633347 99.523396 102.670599 99.43346 102.670599 99.339697 
C 102.670599 99.245933 102.633347 99.155997 102.567046 99.089697 
C 102.500745 99.023396 102.410809 98.986143 102.317046 98.986143 
C 102.223282 98.986143 102.133347 99.023396 102.067046 99.089697 
C 102.000745 99.155997 101.963492 99.245933 101.963492 99.339697 
C 101.963492 99.43346 102.000745 99.523396 102.067046 99.589697 
C 102.133347 99.655997 102.223282 99.69325 102.317046 99.69325 
z
" clip-path="url(#p6acd96853c)" style="fill: #fff5f0; stroke: #00ff00; stroke-width: 2"/>
    <path d="M 51.095278 106.453746 
C 52.032913 106.453746 52.93227 106.08122 53.595278 105.418212 
C 54.258286 104.755204 54.630812 103.855847 54.630812 102.918212 
C 54.630812 101.980578 54.258286 101.08122 53.595278 100.418212 
C 52.93227 99.755204 52.032913 99.382678 51.095278 99.382678 
C 50.157644 99.382678 49.258286 99.755204 48.595278 100.418212 
C 47.93227 101.08122 47.559744 101.980578 47.559744 102.918212 
C 47.559744 103.855847 47.93227 104.755204 48.595278 105.418212 
C 49.258286 106.08122 50.157644 106.453746 51.095278 106.453746 
z
" clip-path="url(#p6acd96853c)" style="fill: #67000d; stroke: #00ff00; stroke-width: 2"/>
    <path d="M 87.764928 107.251234 
C 87.858692 107.251234 87.948627 107.213982 88.014928 107.147681 
C 88.081229 107.08138 88.118482 106.991444 88.118482 106.897681 
C 88.118482 106.803918 88.081229 106.713982 88.014928 106.647681 
C 87.948627 106.58138 87.858692 106.544128 87.764928 106.544128 
C 87.671165 106.544128 87.581229 106.58138 87.514928 106.647681 
C 87.448627 106.713982 87.411375 106.803918 87.411375 106.897681 
C 87.411375 106.991444 87.448627 107.08138 87.514928 107.147681 
C 87.581229 107.213982 87.671165 107.251234 87.764928 107.251234 
z
" clip-path="url(#p6acd96853c)" style="fill: #fff5f0; stroke: #00ff00; stroke-width: 2"/>
    <path d="M 67.86666 111.847611 
C 68.804295 111.847611 69.703652 111.475085 70.36666 110.812077 
C 71.029668 110.149069 71.402194 109.249711 71.402194 108.312077 
C 71.402194 107.374442 71.029668 106.475085 70.36666 105.812077 
C 69.703652 105.149069 68.804295 104.776543 67.86666 104.776543 
C 66.929025 104.776543 66.029668 105.149069 65.36666 105.812077 
C 64.703652 106.475085 64.331126 107.374442 64.331126 108.312077 
C 64.331126 109.249711 64.703652 110.149069 65.36666 110.812077 
C 66.029668 111.475085 66.929025 111.847611 67.86666 111.847611 
z
" clip-path="url(#p6acd96853c)" style="fill: #67000d; stroke: #00ff00; stroke-width: 2"/>
   </g>
   <g id="patch_9">
    <path d="M 91.637409 78.126726 
Q 92.40661 78.350161 93.17581 78.573595 
" clip-path="url(#p6acd96853c)" style="fill: none; opacity: 0.592486; stroke: #e5e5e5; stroke-width: 0.184971; stroke-linecap: round"/>
   </g>
   <g id="Path3DCollection_2">
    <path d="M 82.099153 66.1499 
C 82.192916 66.1499 82.282852 66.112647 82.349153 66.046346 
C 82.415453 65.980045 82.452706 65.89011 82.452706 65.796346 
C 82.452706 65.702583 82.415453 65.612647 82.349153 65.546346 
C 82.282852 65.480045 82.192916 65.442793 82.099153 65.442793 
C 82.005389 65.442793 81.915453 65.480045 81.849153 65.546346 
C 81.782852 65.612647 81.745599 65.702583 81.745599 65.796346 
C 81.745599 65.89011 81.782852 65.980045 81.849153 66.046346 
C 81.915453 66.112647 82.005389 66.1499 82.099153 66.1499 
z
" clip-path="url(#p6acd96853c)" style="fill: #f7fbff; stroke: #00ff00; stroke-width: 2"/>
    <path d="M 63.663248 67.318011 
C 63.757012 67.318011 63.846948 67.280758 63.913248 67.214458 
C 63.979549 67.148157 64.016802 67.058221 64.016802 66.964458 
C 64.016802 66.870694 63.979549 66.780758 63.913248 66.714458 
C 63.846948 66.648157 63.757012 66.610904 63.663248 66.610904 
C 63.569485 66.610904 63.479549 66.648157 63.413248 66.714458 
C 63.346948 66.780758 63.309695 66.870694 63.309695 66.964458 
C 63.309695 67.058221 63.346948 67.148157 63.413248 67.214458 
C 63.479549 67.280758 63.569485 67.318011 63.663248 67.318011 
z
" clip-path="url(#p6acd96853c)" style="fill: #f7fbff; stroke: #00ff00; stroke-width: 2"/>
    <path d="M 98.188804 70.695968 
C 98.282568 70.695968 98.372504 70.658715 98.438804 70.592415 
C 98.505105 70.526114 98.542358 70.436178 98.542358 70.342415 
C 98.542358 70.248651 98.505105 70.158715 98.438804 70.092415 
C 98.372504 70.026114 98.282568 69.988861 98.188804 69.988861 
C 98.095041 69.988861 98.005105 70.026114 97.938804 70.092415 
C 97.872504 70.158715 97.835251 70.248651 97.835251 70.342415 
C 97.835251 70.436178 97.872504 70.526114 97.938804 70.592415 
C 98.005105 70.658715 98.095041 70.695968 98.188804 70.695968 
z
" clip-path="url(#p6acd96853c)" style="fill: #f7fbff; stroke: #ff0000; stroke-width: 2"/>
    <path d="M 49.14716 73.854208 
C 49.240924 73.854208 49.330859 73.816955 49.39716 73.750654 
C 49.463461 73.684353 49.500714 73.594418 49.500714 73.500654 
C 49.500714 73.406891 49.463461 73.316955 49.39716 73.250654 
C 49.330859 73.184353 49.240924 73.147101 49.14716 73.147101 
C 49.053397 73.147101 48.963461 73.184353 48.89716 73.250654 
C 48.830859 73.316955 48.793607 73.406891 48.793607 73.500654 
C 48.793607 73.594418 48.830859 73.684353 48.89716 73.750654 
C 48.963461 73.816955 49.053397 73.854208 49.14716 73.854208 
z
" clip-path="url(#p6acd96853c)" style="fill: #f7fbff; stroke: #00ff00; stroke-width: 2"/>
    <path d="M 106.208444 79.567552 
C 106.302208 79.567552 106.392144 79.5303 106.458444 79.463999 
C 106.524745 79.397698 106.561998 79.307762 106.561998 79.213999 
C 106.561998 79.120236 106.524745 79.0303 106.458444 78.963999 
C 106.392144 78.897698 106.302208 78.860446 106.208444 78.860446 
C 106.114681 78.860446 106.024745 78.897698 105.958444 78.963999 
C 105.892144 79.0303 105.854891 79.120236 105.854891 79.213999 
C 105.854891 79.307762 105.892144 79.397698 105.958444 79.463999 
C 106.024745 79.5303 106.114681 79.567552 106.208444 79.567552 
z
" clip-path="url(#p6acd96853c)" style="fill: #f7fbff; stroke: #00ff00; stroke-width: 2"/>
    <path d="M 43.972059 86.866679 
C 44.909693 86.866679 45.809051 86.494153 46.472059 85.831145 
C 47.135066 85.168137 47.507593 84.26878 47.507593 83.331145 
C 47.507593 82.393511 47.135066 81.494153 46.472059 80.831145 
C 45.809051 80.168137 44.909693 79.795611 43.972059 79.795611 
C 43.034424 79.795611 42.135066 80.168137 41.472059 80.831145 
C 40.809051 81.494153 40.436525 82.393511 40.436525 83.331145 
C 40.436525 84.26878 40.809051 85.168137 41.472059 85.831145 
C 42.135066 86.494153 43.034424 86.866679 43.972059 86.866679 
z
" clip-path="url(#p6acd96853c)" style="fill: #08306b; stroke: #00ff00; stroke-width: 2"/>
    <path d="M 102.583634 92.909868 
C 103.521268 92.909868 104.420626 92.537342 105.083634 91.874334 
C 105.746641 91.211326 106.119168 90.311969 106.119168 89.374334 
C 106.119168 88.4367 105.746641 87.537342 105.083634 86.874334 
C 104.420626 86.211326 103.521268 85.8388 102.583634 85.8388 
C 101.645999 85.8388 100.746641 86.211326 100.083634 86.874334 
C 99.420626 87.537342 99.0481 88.4367 99.0481 89.374334 
C 99.0481 90.311969 99.420626 91.211326 100.083634 91.874334 
C 100.746641 92.537342 101.645999 92.909868 102.583634 92.909868 
z
" clip-path="url(#p6acd96853c)" style="fill: #08306b; stroke: #00ff00; stroke-width: 2"/>
    <path d="M 50.854164 96.427772 
C 51.791799 96.427772 52.691156 96.055246 53.354164 95.392238 
C 54.017172 94.72923 54.389698 93.829873 54.389698 92.892238 
C 54.389698 91.954603 54.017172 91.055246 53.354164 90.392238 
C 52.691156 89.72923 51.791799 89.356704 50.854164 89.356704 
C 49.91653 89.356704 49.017172 89.72923 48.354164 90.392238 
C 47.691156 91.055246 47.31863 91.954603 47.31863 92.892238 
C 47.31863 93.829873 47.691156 94.72923 48.354164 95.392238 
C 49.017172 96.055246 49.91653 96.427772 50.854164 96.427772 
z
" clip-path="url(#p6acd96853c)" style="fill: #08306b; stroke: #00ff00; stroke-width: 2"/>
    <path d="M 87.890443 97.158637 
C 87.984206 97.158637 88.074142 97.121385 88.140443 97.055084 
C 88.206744 96.988783 88.243996 96.898847 88.243996 96.805084 
C 88.243996 96.71132 88.206744 96.621385 88.140443 96.555084 
C 88.074142 96.488783 87.984206 96.451531 87.890443 96.451531 
C 87.796679 96.451531 87.706744 96.488783 87.640443 96.555084 
C 87.574142 96.621385 87.536889 96.71132 87.536889 96.805084 
C 87.536889 96.898847 87.574142 96.988783 87.640443 97.055084 
C 87.706744 97.121385 87.796679 97.158637 87.890443 97.158637 
z
" clip-path="url(#p6acd96853c)" style="fill: #f7fbff; stroke: #00ff00; stroke-width: 2"/>
    <path d="M 67.791556 101.731532 
C 68.729191 101.731532 69.628549 101.359006 70.291556 100.695998 
C 70.954564 100.032991 71.32709 99.133633 71.32709 98.195998 
C 71.32709 97.258364 70.954564 96.359006 70.291556 95.695998 
C 69.628549 95.032991 68.729191 94.660464 67.791556 94.660464 
C 66.853922 94.660464 65.954564 95.032991 65.291556 95.695998 
C 64.628549 96.359006 64.256023 97.258364 64.256023 98.195998 
C 64.256023 99.133633 64.628549 100.032991 65.291556 100.695998 
C 65.954564 101.359006 66.853922 101.731532 67.791556 101.731532 
z
" clip-path="url(#p6acd96853c)" style="fill: #08306b; stroke: #00ff00; stroke-width: 2"/>
   </g>
   <g id="patch_10">
    <path d="M 88.568795 67.624318 
Q 87.739556 67.39002 86.910318 67.155722 
" clip-path="url(#p6acd96853c)" style="fill: none; opacity: 0.586207; stroke: #e8e8e8; stroke-width: 0.172414; stroke-linecap: round"/>
   </g>
   <g id="Path3DCollection_3">
    <path d="M 82.162495 56.430477 
C 82.256258 56.430477 82.346194 56.393224 82.412495 56.326923 
C 82.478796 56.260623 82.516048 56.170687 82.516048 56.076923 
C 82.516048 55.98316 82.478796 55.893224 82.412495 55.826923 
C 82.346194 55.760623 82.256258 55.72337 82.162495 55.72337 
C 82.068731 55.72337 81.978796 55.760623 81.912495 55.826923 
C 81.846194 55.893224 81.808941 55.98316 81.808941 56.076923 
C 81.808941 56.170687 81.846194 56.260623 81.912495 56.326923 
C 81.978796 56.393224 82.068731 56.430477 82.162495 56.430477 
z
" clip-path="url(#p6acd96853c)" style="fill: #f7fcf5; stroke: #00ff00; stroke-width: 2"/>
    <path d="M 63.554504 57.575862 
C 63.648268 57.575862 63.738203 57.538609 63.804504 57.472308 
C 63.870805 57.406008 63.908057 57.316072 63.908057 57.222308 
C 63.908057 57.128545 63.870805 57.038609 63.804504 56.972308 
C 63.738203 56.906008 63.648268 56.868755 63.554504 56.868755 
C 63.460741 56.868755 63.370805 56.906008 63.304504 56.972308 
C 63.238203 57.038609 63.200951 57.128545 63.200951 57.222308 
C 63.200951 57.316072 63.238203 57.406008 63.304504 57.472308 
C 63.370805 57.538609 63.460741 57.575862 63.554504 57.575862 
z
" clip-path="url(#p6acd96853c)" style="fill: #f7fcf5; stroke: #00ff00; stroke-width: 2"/>
    <path d="M 98.404877 60.88851 
C 98.498641 60.88851 98.588577 60.851257 98.654877 60.784956 
C 98.721178 60.718655 98.758431 60.62872 98.758431 60.534956 
C 98.758431 60.441193 98.721178 60.351257 98.654877 60.284956 
C 98.588577 60.218655 98.498641 60.181403 98.404877 60.181403 
C 98.311114 60.181403 98.221178 60.218655 98.154877 60.284956 
C 98.088577 60.351257 98.051324 60.441193 98.051324 60.534956 
C 98.051324 60.62872 98.088577 60.718655 98.154877 60.784956 
C 98.221178 60.851257 98.311114 60.88851 98.404877 60.88851 
z
" clip-path="url(#p6acd96853c)" style="fill: #f7fcf5; stroke: #ff0000; stroke-width: 2"/>
    <path d="M 48.898027 63.986242 
C 48.99179 63.986242 49.081726 63.948989 49.148027 63.882688 
C 49.214328 63.816388 49.25158 63.726452 49.25158 63.632688 
C 49.25158 63.538925 49.214328 63.448989 49.148027 63.382688 
C 49.081726 63.316388 48.99179 63.279135 48.898027 63.279135 
C 48.804263 63.279135 48.714328 63.316388 48.648027 63.382688 
C 48.581726 63.448989 48.544473 63.538925 48.544473 63.632688 
C 48.544473 63.726452 48.581726 63.816388 48.648027 63.882688 
C 48.714328 63.948989 48.804263 63.986242 48.898027 63.986242 
z
" clip-path="url(#p6acd96853c)" style="fill: #f7fcf5; stroke: #00ff00; stroke-width: 2"/>
    <path d="M 106.507791 69.591487 
C 106.601554 69.591487 106.69149 69.554234 106.757791 69.487934 
C 106.824091 69.421633 106.861344 69.331697 106.861344 69.237934 
C 106.861344 69.14417 106.824091 69.054234 106.757791 68.987934 
C 106.69149 68.921633 106.601554 68.88438 106.507791 68.88438 
C 106.414027 68.88438 106.324091 68.921633 106.257791 68.987934 
C 106.19149 69.054234 106.154237 69.14417 106.154237 69.237934 
C 106.154237 69.331697 106.19149 69.421633 106.257791 69.487934 
C 106.324091 69.554234 106.414027 69.591487 106.507791 69.591487 
z
" clip-path="url(#p6acd96853c)" style="fill: #f7fcf5; stroke: #00ff00; stroke-width: 2"/>
    <path d="M 43.665119 76.813801 
C 44.602753 76.813801 45.502111 76.441275 46.165119 75.778268 
C 46.828126 75.11526 47.200653 74.215902 47.200653 73.278268 
C 47.200653 72.340633 46.828126 71.441275 46.165119 70.778268 
C 45.502111 70.11526 44.602753 69.742734 43.665119 69.742734 
C 42.727484 69.742734 41.828126 70.11526 41.165119 70.778268 
C 40.502111 71.441275 40.129585 72.340633 40.129585 73.278268 
C 40.129585 74.215902 40.502111 75.11526 41.165119 75.778268 
C 41.828126 76.441275 42.727484 76.813801 43.665119 76.813801 
z
" clip-path="url(#p6acd96853c)" style="fill: #00441b; stroke: #00ff00; stroke-width: 2"/>
    <path d="M 102.855535 79.563913 
C 102.949298 79.563913 103.039234 79.52666 103.105535 79.460359 
C 103.171836 79.394059 103.209088 79.304123 103.209088 79.210359 
C 103.209088 79.116596 103.171836 79.02666 103.105535 78.960359 
C 103.039234 78.894059 102.949298 78.856806 102.855535 78.856806 
C 102.761771 78.856806 102.671836 78.894059 102.605535 78.960359 
C 102.539234 79.02666 102.501981 79.116596 102.501981 79.210359 
C 102.501981 79.304123 102.539234 79.394059 102.605535 79.460359 
C 102.671836 79.52666 102.761771 79.563913 102.855535 79.563913 
z
" clip-path="url(#p6acd96853c)" style="fill: #f7fcf5; stroke: #00ff00; stroke-width: 2"/>
    <path d="M 50.608198 86.200028 
C 51.545832 86.200028 52.44519 85.827502 53.108198 85.164494 
C 53.771205 84.501486 54.143732 83.602129 54.143732 82.664494 
C 54.143732 81.726859 53.771205 80.827502 53.108198 80.164494 
C 52.44519 79.501486 51.545832 79.12896 50.608198 79.12896 
C 49.670563 79.12896 48.771205 79.501486 48.108198 80.164494 
C 47.44519 80.827502 47.072664 81.726859 47.072664 82.664494 
C 47.072664 83.602129 47.44519 84.501486 48.108198 85.164494 
C 48.771205 85.827502 49.670563 86.200028 50.608198 86.200028 
z
" clip-path="url(#p6acd96853c)" style="fill: #00441b; stroke: #00ff00; stroke-width: 2"/>
    <path d="M 88.018511 90.042727 
C 88.956145 90.042727 89.855503 89.670201 90.518511 89.007193 
C 91.181518 88.344185 91.554045 87.444828 91.554045 86.507193 
C 91.554045 85.569558 91.181518 84.670201 90.518511 84.007193 
C 89.855503 83.344185 88.956145 82.971659 88.018511 82.971659 
C 87.080876 82.971659 86.181518 83.344185 85.518511 84.007193 
C 84.855503 84.670201 84.482977 85.569558 84.482977 86.507193 
C 84.482977 87.444828 84.855503 88.344185 85.518511 89.007193 
C 86.181518 89.670201 87.080876 90.042727 88.018511 90.042727 
z
" clip-path="url(#p6acd96853c)" style="fill: #00441b; stroke: #00ff00; stroke-width: 2"/>
    <path d="M 67.71492 91.408904 
C 68.652554 91.408904 69.551912 91.036378 70.21492 90.37337 
C 70.877927 89.710362 71.250453 88.811005 71.250453 87.87337 
C 71.250453 86.935736 70.877927 86.036378 70.21492 85.37337 
C 69.551912 84.710362 68.652554 84.337836 67.71492 84.337836 
C 66.777285 84.337836 65.877927 84.710362 65.21492 85.37337 
C 64.551912 86.036378 64.179386 86.935736 64.179386 87.87337 
C 64.179386 88.811005 64.551912 89.710362 65.21492 90.37337 
C 65.877927 91.036378 66.777285 91.408904 67.71492 91.408904 
z
" clip-path="url(#p6acd96853c)" style="fill: #00441b; stroke: #00ff00; stroke-width: 2"/>
   </g>
   <g id="patch_11">
    <path d="M 91.719162 68.514442 
Q 92.548401 68.74874 93.377639 68.983039 
" clip-path="url(#p6acd96853c)" style="fill: none; opacity: 0.586207; stroke: #e8e8e8; stroke-width: 0.172414; stroke-linecap: round"/>
   </g>
   <g id="Path3DCollection_4">
    <path d="M 82.227028 46.528299 
C 82.320791 46.528299 82.410727 46.491047 82.477028 46.424746 
C 82.543329 46.358445 82.580581 46.268509 82.580581 46.174746 
C 82.580581 46.080982 82.543329 45.991047 82.477028 45.924746 
C 82.410727 45.858445 82.320791 45.821192 82.227028 45.821192 
C 82.133265 45.821192 82.043329 45.858445 81.977028 45.924746 
C 81.910727 45.991047 81.873475 46.080982 81.873475 46.174746 
C 81.873475 46.268509 81.910727 46.358445 81.977028 46.424746 
C 82.043329 46.491047 82.133265 46.528299 82.227028 46.528299 
z
" clip-path="url(#p6acd96853c)" style="fill: #fff5eb; stroke: #00ff00; stroke-width: 2"/>
    <path d="M 63.443708 47.64989 
C 63.537471 47.64989 63.627407 47.612638 63.693708 47.546337 
C 63.760009 47.480036 63.797261 47.3901 63.797261 47.296337 
C 63.797261 47.202573 63.760009 47.112638 63.693708 47.046337 
C 63.627407 46.980036 63.537471 46.942784 63.443708 46.942784 
C 63.349944 46.942784 63.260009 46.980036 63.193708 47.046337 
C 63.127407 47.112638 63.090155 47.202573 63.090155 47.296337 
C 63.090155 47.3901 63.127407 47.480036 63.193708 47.546337 
C 63.260009 47.612638 63.349944 47.64989 63.443708 47.64989 
z
" clip-path="url(#p6acd96853c)" style="fill: #fff5eb; stroke: #00ff00; stroke-width: 2"/>
    <path d="M 98.625069 50.894133 
C 98.718832 50.894133 98.808768 50.85688 98.875069 50.790579 
C 98.941369 50.724279 98.978622 50.634343 98.978622 50.540579 
C 98.978622 50.446816 98.941369 50.35688 98.875069 50.290579 
C 98.808768 50.224279 98.718832 50.187026 98.625069 50.187026 
C 98.531305 50.187026 98.441369 50.224279 98.375069 50.290579 
C 98.308768 50.35688 98.271515 50.446816 98.271515 50.540579 
C 98.271515 50.634343 98.308768 50.724279 98.375069 50.790579 
C 98.441369 50.85688 98.531305 50.894133 98.625069 50.894133 
z
" clip-path="url(#p6acd96853c)" style="fill: #fff5eb; stroke: #ff0000; stroke-width: 2"/>
    <path d="M 48.644101 57.110431 
C 49.581736 57.110431 50.481093 56.737905 51.144101 56.074897 
C 51.807109 55.411889 52.179635 54.512532 52.179635 53.574897 
C 52.179635 52.637263 51.807109 51.737905 51.144101 51.074897 
C 50.481093 50.411889 49.581736 50.039363 48.644101 50.039363 
C 47.706466 50.039363 46.807109 50.411889 46.144101 51.074897 
C 45.481093 51.737905 45.108567 52.637263 45.108567 53.574897 
C 45.108567 54.512532 45.481093 55.411889 46.144101 56.074897 
C 46.807109 56.737905 47.706466 57.110431 48.644101 57.110431 
z
" clip-path="url(#p6acd96853c)" style="fill: #7f2704; stroke: #00ff00; stroke-width: 2"/>
    <path d="M 106.812991 59.420307 
C 106.906755 59.420307 106.996691 59.383055 107.062991 59.316754 
C 107.129292 59.250453 107.166545 59.160517 107.166545 59.066754 
C 107.166545 58.972991 107.129292 58.883055 107.062991 58.816754 
C 106.996691 58.750453 106.906755 58.713201 106.812991 58.713201 
C 106.719228 58.713201 106.629292 58.750453 106.562991 58.816754 
C 106.496691 58.883055 106.459438 58.972991 106.459438 59.066754 
C 106.459438 59.160517 106.496691 59.250453 106.562991 59.316754 
C 106.629292 59.383055 106.719228 59.420307 106.812991 59.420307 
z
" clip-path="url(#p6acd96853c)" style="fill: #fff5eb; stroke: #00ff00; stroke-width: 2"/>
    <path d="M 43.352104 66.561975 
C 44.289739 66.561975 45.189097 66.189449 45.852104 65.526441 
C 46.515112 64.863434 46.887638 63.964076 46.887638 63.026441 
C 46.887638 62.088807 46.515112 61.189449 45.852104 60.526441 
C 45.189097 59.863434 44.289739 59.490907 43.352104 59.490907 
C 42.41447 59.490907 41.515112 59.863434 40.852104 60.526441 
C 40.189097 61.189449 39.81657 62.088807 39.81657 63.026441 
C 39.81657 63.964076 40.189097 64.863434 40.852104 65.526441 
C 41.515112 66.189449 42.41447 66.561975 43.352104 66.561975 
z
" clip-path="url(#p6acd96853c)" style="fill: #7f2704; stroke: #00ff00; stroke-width: 2"/>
    <path d="M 103.132909 69.195328 
C 103.226673 69.195328 103.316609 69.158076 103.382909 69.091775 
C 103.44921 69.025474 103.486463 68.935538 103.486463 68.841775 
C 103.486463 68.748011 103.44921 68.658076 103.382909 68.591775 
C 103.316609 68.525474 103.226673 68.488222 103.132909 68.488222 
C 103.039146 68.488222 102.94921 68.525474 102.882909 68.591775 
C 102.816609 68.658076 102.779356 68.748011 102.779356 68.841775 
C 102.779356 68.935538 102.816609 69.025474 102.882909 69.091775 
C 102.94921 69.158076 103.039146 69.195328 103.132909 69.195328 
z
" clip-path="url(#p6acd96853c)" style="fill: #fff5eb; stroke: #00ff00; stroke-width: 2"/>
    <path d="M 50.357231 75.764361 
C 51.294866 75.764361 52.194223 75.391835 52.857231 74.728827 
C 53.520239 74.06582 53.892765 73.166462 53.892765 72.228827 
C 53.892765 71.291193 53.520239 70.391835 52.857231 69.728827 
C 52.194223 69.06582 51.294866 68.693294 50.357231 68.693294 
C 49.419596 68.693294 48.520239 69.06582 47.857231 69.728827 
C 47.194223 70.391835 46.821697 71.291193 46.821697 72.228827 
C 46.821697 73.166462 47.194223 74.06582 47.857231 74.728827 
C 48.520239 75.391835 49.419596 75.764361 50.357231 75.764361 
z
" clip-path="url(#p6acd96853c)" style="fill: #7f2704; stroke: #00ff00; stroke-width: 2"/>
    <path d="M 88.14921 76.351233 
C 88.242974 76.351233 88.33291 76.313981 88.39921 76.24768 
C 88.465511 76.181379 88.502764 76.091443 88.502764 75.99768 
C 88.502764 75.903916 88.465511 75.813981 88.39921 75.74768 
C 88.33291 75.681379 88.242974 75.644127 88.14921 75.644127 
C 88.055447 75.644127 87.965511 75.681379 87.89921 75.74768 
C 87.83291 75.813981 87.795657 75.903916 87.795657 75.99768 
C 87.795657 76.091443 87.83291 76.181379 87.89921 76.24768 
C 87.965511 76.313981 88.055447 76.351233 88.14921 76.351233 
z
" clip-path="url(#p6acd96853c)" style="fill: #fff5eb; stroke: #00ff00; stroke-width: 2"/>
    <path d="M 67.636702 80.873335 
C 68.574336 80.873335 69.473694 80.500809 70.136702 79.837801 
C 70.799709 79.174794 71.172236 78.275436 71.172236 77.337801 
C 71.172236 76.400167 70.799709 75.500809 70.136702 74.837801 
C 69.473694 74.174794 68.574336 73.802267 67.636702 73.802267 
C 66.699067 73.802267 65.799709 74.174794 65.136702 74.837801 
C 64.473694 75.500809 64.101168 76.400167 64.101168 77.337801 
C 64.101168 78.275436 64.473694 79.174794 65.136702 79.837801 
C 65.799709 80.500809 66.699067 80.873335 67.636702 80.873335 
z
" clip-path="url(#p6acd96853c)" style="fill: #7f2704; stroke: #00ff00; stroke-width: 2"/>
   </g>
   <g id="patch_12">
    <path d="M 88.764928 57.889088 
Q 87.873535 57.644428 86.982142 57.399768 
" clip-path="url(#p6acd96853c)" style="fill: none; opacity: 0.604225; stroke: #e1e1e1; stroke-width: 0.208451; stroke-linecap: round"/>
   </g>
   <g id="Path3DCollection_5">
    <path d="M 82.292786 36.438163 
C 82.38655 36.438163 82.476485 36.400911 82.542786 36.33461 
C 82.609087 36.268309 82.64634 36.178373 82.64634 36.08461 
C 82.64634 35.990846 82.609087 35.900911 82.542786 35.83461 
C 82.476485 35.768309 82.38655 35.731056 82.292786 35.731056 
C 82.199023 35.731056 82.109087 35.768309 82.042786 35.83461 
C 81.976485 35.900911 81.939233 35.990846 81.939233 36.08461 
C 81.939233 36.178373 81.976485 36.268309 82.042786 36.33461 
C 82.109087 36.400911 82.199023 36.438163 82.292786 36.438163 
z
" clip-path="url(#p6acd96853c)" style="fill: #fcfbfd; stroke: #00ff00; stroke-width: 2"/>
    <path d="M 63.330801 37.534844 
C 63.424565 37.534844 63.5145 37.497592 63.580801 37.431291 
C 63.647102 37.36499 63.684355 37.275054 63.684355 37.181291 
C 63.684355 37.087527 63.647102 36.997592 63.580801 36.931291 
C 63.5145 36.86499 63.424565 36.827737 63.330801 36.827737 
C 63.237038 36.827737 63.147102 36.86499 63.080801 36.931291 
C 63.0145 36.997592 62.977248 37.087527 62.977248 37.181291 
C 62.977248 37.275054 63.0145 37.36499 63.080801 37.431291 
C 63.147102 37.497592 63.237038 37.534844 63.330801 37.534844 
z
" clip-path="url(#p6acd96853c)" style="fill: #fcfbfd; stroke: #00ff00; stroke-width: 2"/>
    <path d="M 98.849497 40.707443 
C 98.94326 40.707443 99.033196 40.67019 99.099497 40.603889 
C 99.165797 40.537588 99.20305 40.447653 99.20305 40.353889 
C 99.20305 40.260126 99.165797 40.17019 99.099497 40.103889 
C 99.033196 40.037588 98.94326 40.000336 98.849497 40.000336 
C 98.755733 40.000336 98.665797 40.037588 98.599497 40.103889 
C 98.533196 40.17019 98.495943 40.260126 98.495943 40.353889 
C 98.495943 40.447653 98.533196 40.537588 98.599497 40.603889 
C 98.665797 40.67019 98.755733 40.707443 98.849497 40.707443 
z
" clip-path="url(#p6acd96853c)" style="fill: #fcfbfd; stroke: #ff0000; stroke-width: 2"/>
    <path d="M 48.385243 46.857284 
C 49.322878 46.857284 50.222235 46.484757 50.885243 45.82175 
C 51.548251 45.158742 51.920777 44.259384 51.920777 43.32175 
C 51.920777 42.384115 51.548251 41.484757 50.885243 40.82175 
C 50.222235 40.158742 49.322878 39.786216 48.385243 39.786216 
C 47.447608 39.786216 46.548251 40.158742 45.885243 40.82175 
C 45.222235 41.484757 44.849709 42.384115 44.849709 43.32175 
C 44.849709 44.259384 45.222235 45.158742 45.885243 45.82175 
C 46.548251 46.484757 47.447608 46.857284 48.385243 46.857284 
z
" clip-path="url(#p6acd96853c)" style="fill: #3f007d; stroke: #00ff00; stroke-width: 2"/>
    <path d="M 107.12422 49.048233 
C 107.217984 49.048233 107.30792 49.01098 107.37422 48.944679 
C 107.440521 48.878378 107.477774 48.788443 107.477774 48.694679 
C 107.477774 48.600916 107.440521 48.51098 107.37422 48.444679 
C 107.30792 48.378378 107.217984 48.341126 107.12422 48.341126 
C 107.030457 48.341126 106.940521 48.378378 106.87422 48.444679 
C 106.80792 48.51098 106.770667 48.600916 106.770667 48.694679 
C 106.770667 48.788443 106.80792 48.878378 106.87422 48.944679 
C 106.940521 49.01098 107.030457 49.048233 107.12422 49.048233 
z
" clip-path="url(#p6acd96853c)" style="fill: #fcfbfd; stroke: #00ff00; stroke-width: 2"/>
    <path d="M 43.032833 56.105236 
C 43.970468 56.105236 44.869826 55.732709 45.532833 55.069702 
C 46.195841 54.406694 46.568367 53.507336 46.568367 52.569702 
C 46.568367 51.632067 46.195841 50.732709 45.532833 50.069702 
C 44.869826 49.406694 43.970468 49.034168 43.032833 49.034168 
C 42.095199 49.034168 41.195841 49.406694 40.532833 50.069702 
C 39.869826 50.732709 39.497299 51.632067 39.497299 52.569702 
C 39.497299 53.507336 39.869826 54.406694 40.532833 55.069702 
C 41.195841 55.732709 42.095199 56.105236 43.032833 56.105236 
z
" clip-path="url(#p6acd96853c)" style="fill: #3f007d; stroke: #00ff00; stroke-width: 2"/>
    <path d="M 103.415925 58.615893 
C 103.509688 58.615893 103.599624 58.57864 103.665925 58.51234 
C 103.732225 58.446039 103.769478 58.356103 103.769478 58.26234 
C 103.769478 58.168576 103.732225 58.07864 103.665925 58.01234 
C 103.599624 57.946039 103.509688 57.908786 103.415925 57.908786 
C 103.322161 57.908786 103.232225 57.946039 103.165925 58.01234 
C 103.099624 58.07864 103.062371 58.168576 103.062371 58.26234 
C 103.062371 58.356103 103.099624 58.446039 103.165925 58.51234 
C 103.232225 58.57864 103.322161 58.615893 103.415925 58.615893 
z
" clip-path="url(#p6acd96853c)" style="fill: #fcfbfd; stroke: #00ff00; stroke-width: 2"/>
    <path d="M 50.10111 65.114367 
C 51.038745 65.114367 51.938102 64.741841 52.60111 64.078833 
C 53.264118 63.415825 53.636644 62.516467 53.636644 61.578833 
C 53.636644 60.641198 53.264118 59.741841 52.60111 59.078833 
C 51.938102 58.415825 51.038745 58.043299 50.10111 58.043299 
C 49.163475 58.043299 48.264118 58.415825 47.60111 59.078833 
C 46.938102 59.741841 46.565576 60.641198 46.565576 61.578833 
C 46.565576 62.516467 46.938102 63.415825 47.60111 64.078833 
C 48.264118 64.741841 49.163475 65.114367 50.10111 65.114367 
z
" clip-path="url(#p6acd96853c)" style="fill: #3f007d; stroke: #00ff00; stroke-width: 2"/>
    <path d="M 88.282624 65.623507 
C 88.376387 65.623507 88.466323 65.586254 88.532624 65.519954 
C 88.598925 65.453653 88.636177 65.363717 88.636177 65.269954 
C 88.636177 65.17619 88.598925 65.086254 88.532624 65.019954 
C 88.466323 64.953653 88.376387 64.9164 88.282624 64.9164 
C 88.18886 64.9164 88.098925 64.953653 88.032624 65.019954 
C 87.966323 65.086254 87.92907 65.17619 87.92907 65.269954 
C 87.92907 65.363717 87.966323 65.453653 88.032624 65.519954 
C 88.098925 65.586254 88.18886 65.623507 88.282624 65.623507 
z
" clip-path="url(#p6acd96853c)" style="fill: #fcfbfd; stroke: #00ff00; stroke-width: 2"/>
    <path d="M 67.556853 66.936187 
C 67.650617 66.936187 67.740553 66.898935 67.806853 66.832634 
C 67.873154 66.766333 67.910407 66.676397 67.910407 66.582634 
C 67.910407 66.48887 67.873154 66.398935 67.806853 66.332634 
C 67.740553 66.266333 67.650617 66.229081 67.556853 66.229081 
C 67.46309 66.229081 67.373154 66.266333 67.306853 66.332634 
C 67.240553 66.398935 67.2033 66.48887 67.2033 66.582634 
C 67.2033 66.676397 67.240553 66.766333 67.306853 66.832634 
C 67.373154 66.898935 67.46309 66.936187 67.556853 66.936187 
z
" clip-path="url(#p6acd96853c)" style="fill: #fcfbfd; stroke: #00ff00; stroke-width: 2"/>
   </g>
   <g id="patch_13">
    <path d="M 91.802444 58.722792 
Q 92.693837 58.967452 93.58523 59.212112 
" clip-path="url(#p6acd96853c)" style="fill: none; opacity: 0.604225; stroke: #e1e1e1; stroke-width: 0.208451; stroke-linecap: round"/>
   </g>
   <g id="patch_14">
    <path d="M 88.964797 47.968617 
Q 88.012363 47.71504 87.05993 47.461463 
" clip-path="url(#p6acd96853c)" style="fill: none; opacity: 0.607903; stroke: #e0e0e0; stroke-width: 0.215805; stroke-linecap: round"/>
   </g>
   <g id="patch_15">
    <path d="M 91.887299 48.746708 
Q 92.839733 49.000285 93.792167 49.253862 
" clip-path="url(#p6acd96853c)" style="fill: none; opacity: 0.607903; stroke: #e0e0e0; stroke-width: 0.215805; stroke-linecap: round"/>
   </g>
   <g id="patch_16">
    <path d="M 97.470592 74.351083 
Q 91.970874 71.2903 86.471156 68.229517 
" clip-path="url(#p6acd96853c)" style="fill: none; opacity: 0.587533; stroke: #e7e7e7; stroke-width: 0.175066; stroke-linecap: round"/>
   </g>
   <g id="patch_17">
    <path d="M 90.837005 70.659263 
Q 96.336723 73.720045 101.836441 76.780828 
" clip-path="url(#p6acd96853c)" style="fill: none; opacity: 0.587533; stroke: #e7e7e7; stroke-width: 0.175066; stroke-linecap: round"/>
   </g>
   <g id="patch_18">
    <path d="M 54.240925 51.20051 
Q 53.744917 51.410935 53.24891 51.621361 
" clip-path="url(#p6acd96853c)" style="fill: none; opacity: 0.741641; stroke: #9c9c9c; stroke-width: 0.483283; stroke-linecap: round"/>
   </g>
   <g id="patch_19">
    <path d="M 57.846884 49.670724 
Q 58.342892 49.460299 58.838899 49.249873 
" clip-path="url(#p6acd96853c)" style="fill: none; opacity: 0.741641; stroke: #9c9c9c; stroke-width: 0.483283; stroke-linecap: round"/>
   </g>
   <g id="patch_20">
    <path d="M 100.130996 89.582982 
Q 99.60032 87.214485 99.069644 84.845987 
" clip-path="url(#p6acd96853c)" style="fill: none; opacity: 0.745665; stroke: #999999; stroke-width: 0.491329; stroke-linecap: round"/>
   </g>
   <g id="patch_21">
    <path d="M 100.162785 89.724864 
Q 100.693461 92.093361 101.224137 94.461859 
" clip-path="url(#p6acd96853c)" style="fill: none; opacity: 0.745665; stroke: #999999; stroke-width: 0.491329; stroke-linecap: round"/>
   </g>
   <g id="patch_22">
    <path d="M 96.531363 69.879347 
Q 72.594093 71.418342 48.656823 72.957337 
" clip-path="url(#p6acd96853c)" style="fill: none; opacity: 0.697183; stroke: #b8b8b8; stroke-width: 0.394366; stroke-linecap: round"/>
   </g>
   <g id="patch_23">
    <path d="M 53.641546 72.636855 
Q 77.578816 71.09786 101.516086 69.558865 
" clip-path="url(#p6acd96853c)" style="fill: none; opacity: 0.697183; stroke: #b8b8b8; stroke-width: 0.394366; stroke-linecap: round"/>
   </g>
   <g id="patch_24">
    <path d="M 50.251359 93.142705 
Q 50.458424 95.541236 50.665489 97.939768 
" clip-path="url(#p6acd96853c)" style="fill: none; opacity: 0.754335; stroke: #949494; stroke-width: 0.508671; stroke-linecap: round"/>
   </g>
   <g id="patch_25">
    <path d="M 50.014323 101.376932 
Q 50.5548 102.147572 51.095278 102.918212 
" clip-path="url(#p6acd96853c)" style="fill: none; stroke: #000000; stroke-linecap: round"/>
   </g>
   <g id="patch_26">
    <path d="M 50.235554 92.959625 
Q 50.028489 90.561094 49.821424 88.162562 
" clip-path="url(#p6acd96853c)" style="fill: none; opacity: 0.754335; stroke: #949494; stroke-width: 0.508671; stroke-linecap: round"/>
   </g>
   <g id="patch_27">
    <path d="M 45.354055 94.73209 
Q 44.813577 93.96145 44.273099 93.19081 
" clip-path="url(#p6acd96853c)" style="fill: none; stroke: #000000; stroke-linecap: round"/>
   </g>
   <g id="patch_28">
    <path d="M 100.333644 79.630698 
Q 99.82414 77.424277 99.314636 75.217856 
" clip-path="url(#p6acd96853c)" style="fill: none; opacity: 0.71618; stroke: #ababab; stroke-width: 0.432361; stroke-linecap: round"/>
   </g>
   <g id="patch_29">
    <path d="M 92.634977 88.348571 
Q 70.791018 86.096333 48.947058 83.844096 
" clip-path="url(#p6acd96853c)" style="fill: none; opacity: 0.722812; stroke: #a8a8a8; stroke-width: 0.445623; stroke-linecap: round"/>
   </g>
   <g id="patch_30">
    <path d="M 100.438794 80.086051 
Q 100.948298 82.292472 101.457802 84.498893 
" clip-path="url(#p6acd96853c)" style="fill: none; opacity: 0.71618; stroke: #ababab; stroke-width: 0.432361; stroke-linecap: round"/>
   </g>
   <g id="patch_31">
    <path d="M 53.920715 84.356909 
Q 75.764675 86.609146 97.608634 88.861383 
" clip-path="url(#p6acd96853c)" style="fill: none; opacity: 0.722812; stroke: #a8a8a8; stroke-width: 0.445623; stroke-linecap: round"/>
   </g>
   <g id="patch_32">
    <path d="M 98.209517 44.167553 
Q 92.479727 41.257812 86.749937 38.348071 
" clip-path="url(#p6acd96853c)" style="fill: none; opacity: 0.577465; stroke: #ebebeb; stroke-width: 0.15493; stroke-linecap: round"/>
   </g>
   <g id="patch_33">
    <path d="M 91.207489 40.611736 
Q 96.937279 43.521477 102.667069 46.431218 
" clip-path="url(#p6acd96853c)" style="fill: none; opacity: 0.577465; stroke: #ebebeb; stroke-width: 0.15493; stroke-linecap: round"/>
   </g>
   <g id="patch_34">
    <path d="M 96.831381 59.689564 
Q 72.587159 61.202299 48.342938 62.715035 
" clip-path="url(#p6acd96853c)" style="fill: none; opacity: 0.727964; stroke: #a4a4a4; stroke-width: 0.455927; stroke-linecap: round"/>
   </g>
   <g id="patch_35">
    <path d="M 53.333715 62.403632 
Q 77.577936 60.890896 101.822158 59.378161 
" clip-path="url(#p6acd96853c)" style="fill: none; opacity: 0.727964; stroke: #a4a4a4; stroke-width: 0.455927; stroke-linecap: round"/>
   </g>
   <g id="patch_36">
    <path d="M 49.814119 91.447337 
Q 50.334142 92.169787 50.854164 92.892238 
" clip-path="url(#p6acd96853c)" style="fill: none; stroke: #000000; stroke-linecap: round"/>
   </g>
   <g id="patch_37">
    <path d="M 45.012103 84.776047 
Q 44.492081 84.053596 43.972059 83.331145 
" clip-path="url(#p6acd96853c)" style="fill: none; stroke: #000000; stroke-linecap: round"/>
   </g>
   <g id="patch_38">
    <path d="M 100.537846 69.485107 
Q 100.05095 67.442043 99.564054 65.398978 
" clip-path="url(#p6acd96853c)" style="fill: none; opacity: 0.676056; stroke: #c3c3c3; stroke-width: 0.352113; stroke-linecap: round"/>
   </g>
   <g id="patch_39">
    <path d="M 100.722566 70.260209 
Q 101.209462 72.303273 101.696358 74.346337 
" clip-path="url(#p6acd96853c)" style="fill: none; opacity: 0.676056; stroke: #c3c3c3; stroke-width: 0.352113; stroke-linecap: round"/>
   </g>
   <g id="patch_40">
    <path d="M 97.145148 49.298023 
Q 72.584221 50.782998 48.023294 52.267974 
" clip-path="url(#p6acd96853c)" style="fill: none; opacity: 0.775654; stroke: #888888; stroke-width: 0.551308; stroke-linecap: round"/>
   </g>
   <g id="patch_41">
    <path d="M 43.376506 51.9759 
Q 43.20467 52.272801 43.032833 52.569702 
" clip-path="url(#p6acd96853c)" style="fill: none; opacity: 0.707243; stroke: #b2b2b2; stroke-width: 0.414487; stroke-linecap: round"/>
   </g>
   <g id="patch_42">
    <path d="M 53.011906 51.966358 
Q 77.572833 50.481382 102.13376 48.996407 
" clip-path="url(#p6acd96853c)" style="fill: none; opacity: 0.775654; stroke: #888888; stroke-width: 0.551308; stroke-linecap: round"/>
   </g>
   <g id="patch_43">
    <path d="M 48.04157 43.915551 
Q 48.213407 43.61865 48.385243 43.32175 
" clip-path="url(#p6acd96853c)" style="fill: none; opacity: 0.707243; stroke: #b2b2b2; stroke-width: 0.414487; stroke-linecap: round"/>
   </g>
   <g id="patch_44">
    <path d="M 92.640491 101.859893 
Q 82.671383 104.456283 72.702275 107.052672 
" clip-path="url(#p6acd96853c)" style="fill: none; opacity: 0.786127; stroke: #828282; stroke-width: 0.572254; stroke-linecap: round"/>
   </g>
   <g id="patch_45">
    <path d="M 52.691554 98.586252 
Q 58.172894 102.099279 63.654234 105.612306 
" clip-path="url(#p6acd96853c)" style="fill: none; opacity: 0.751445; stroke: #959595; stroke-width: 0.50289; stroke-linecap: round"/>
   </g>
   <g id="patch_46">
    <path d="M 60.615167 105.979915 
Q 61.859747 106.380186 63.104327 106.780457 
" clip-path="url(#p6acd96853c)" style="fill: none; opacity: 0.992775; stroke: #030303; stroke-width: 0.985549; stroke-linecap: round"/>
   </g>
   <g id="patch_47">
    <path d="M 77.543215 105.791881 
Q 87.512323 103.195491 97.481431 100.599101 
" clip-path="url(#p6acd96853c)" style="fill: none; opacity: 0.786127; stroke: #828282; stroke-width: 0.572254; stroke-linecap: round"/>
   </g>
   <g id="patch_48">
    <path d="M 59.448206 102.916634 
Q 53.966865 99.403608 48.485525 95.890581 
" clip-path="url(#p6acd96853c)" style="fill: none; opacity: 0.751445; stroke: #959595; stroke-width: 0.50289; stroke-linecap: round"/>
   </g>
   <g id="patch_49">
    <path d="M 58.346772 105.250374 
Q 57.102192 104.850103 55.857611 104.449832 
" clip-path="url(#p6acd96853c)" style="fill: none; opacity: 0.992775; stroke: #030303; stroke-width: 0.985549; stroke-linecap: round"/>
   </g>
   <g id="patch_50">
    <path d="M 49.613181 81.319349 
Q 50.110689 81.991921 50.608198 82.664494 
" clip-path="url(#p6acd96853c)" style="fill: none; stroke: #000000; stroke-linecap: round"/>
   </g>
   <g id="patch_51">
    <path d="M 44.660135 74.623413 
Q 44.162627 73.95084 43.665119 73.278268 
" clip-path="url(#p6acd96853c)" style="fill: none; stroke: #000000; stroke-linecap: round"/>
   </g>
   <g id="patch_52">
    <path d="M 100.741421 59.132669 
Q 100.281052 57.263638 99.820683 55.394607 
" clip-path="url(#p6acd96853c)" style="fill: none; opacity: 0.720365; stroke: #a9a9a9; stroke-width: 0.440729; stroke-linecap: round"/>
   </g>
   <g id="patch_53">
    <path d="M 101.016557 60.249685 
Q 101.476926 62.118717 101.937295 63.987748 
" clip-path="url(#p6acd96853c)" style="fill: none; opacity: 0.720365; stroke: #a9a9a9; stroke-width: 0.440729; stroke-linecap: round"/>
   </g>
   <g id="patch_54">
    <path d="M 57.714477 78.653971 
Q 70.660452 86.441091 83.606428 94.228211 
" clip-path="url(#p6acd96853c)" style="fill: none; opacity: 0.657825; stroke: #cbcbcb; stroke-width: 0.31565; stroke-linecap: round"/>
   </g>
   <g id="patch_55">
    <path d="M 60.795909 93.942573 
Q 71.857636 95.111234 82.919363 96.279894 
" clip-path="url(#p6acd96853c)" style="fill: none; opacity: 0.687003; stroke: #bebebe; stroke-width: 0.374005; stroke-linecap: round"/>
   </g>
   <g id="patch_56">
    <path d="M 79.323126 91.651767 
Q 66.377151 83.864647 53.431175 76.077527 
" clip-path="url(#p6acd96853c)" style="fill: none; opacity: 0.657825; stroke: #cbcbcb; stroke-width: 0.31565; stroke-linecap: round"/>
   </g>
   <g id="patch_57">
    <path d="M 77.948698 95.754748 
Q 66.886971 94.586088 55.825244 93.417428 
" clip-path="url(#p6acd96853c)" style="fill: none; opacity: 0.687003; stroke: #bebebe; stroke-width: 0.374005; stroke-linecap: round"/>
   </g>
   <g id="patch_58">
    <path d="M 92.887551 91.832813 
Q 82.764295 94.399603 72.641039 96.966394 
" clip-path="url(#p6acd96853c)" style="fill: none; opacity: 0.64191; stroke: #d2d2d2; stroke-width: 0.28382; stroke-linecap: round"/>
   </g>
   <g id="patch_59">
    <path d="M 52.453684 88.624209 
Q 58.001306 92.086271 63.548927 95.548333 
" clip-path="url(#p6acd96853c)" style="fill: none; opacity: 0.782493; stroke: #848484; stroke-width: 0.564987; stroke-linecap: round"/>
   </g>
   <g id="patch_60">
    <path d="M 60.393853 95.879488 
Q 61.706873 96.290646 63.019893 96.701804 
" clip-path="url(#p6acd96853c)" style="fill: none; opacity: 0.870027; stroke: #545454; stroke-width: 0.740053; stroke-linecap: round"/>
   </g>
   <g id="patch_61">
    <path d="M 77.48764 95.737519 
Q 87.610895 93.170729 97.734151 90.603939 
" clip-path="url(#p6acd96853c)" style="fill: none; opacity: 0.64191; stroke: #d2d2d2; stroke-width: 0.28382; stroke-linecap: round"/>
   </g>
   <g id="patch_62">
    <path d="M 59.309931 92.902935 
Q 53.76231 89.440873 48.214688 85.978811 
" clip-path="url(#p6acd96853c)" style="fill: none; opacity: 0.782493; stroke: #848484; stroke-width: 0.564987; stroke-linecap: round"/>
   </g>
   <g id="patch_63">
    <path d="M 58.251868 95.208749 
Q 56.938848 94.797591 55.625828 94.386433 
" clip-path="url(#p6acd96853c)" style="fill: none; opacity: 0.870027; stroke: #545454; stroke-width: 0.740053; stroke-linecap: round"/>
   </g>
   <g id="patch_64">
    <path d="M 49.558802 63.534894 
Q 49.729365 65.392118 49.899928 67.249343 
" clip-path="url(#p6acd96853c)" style="fill: none; opacity: 0.711246; stroke: #afafaf; stroke-width: 0.422492; stroke-linecap: round"/>
   </g>
   <g id="patch_65">
    <path d="M 49.40805 70.981922 
Q 49.882641 71.605375 50.357231 72.228827 
" clip-path="url(#p6acd96853c)" style="fill: none; stroke: #000000; stroke-linecap: round"/>
   </g>
   <g id="patch_66">
    <path d="M 49.44253 62.268831 
Q 49.271967 60.411606 49.101404 58.554382 
" clip-path="url(#p6acd96853c)" style="fill: none; opacity: 0.711246; stroke: #afafaf; stroke-width: 0.422492; stroke-linecap: round"/>
   </g>
   <g id="patch_67">
    <path d="M 44.301285 64.273347 
Q 43.826695 63.649894 43.352104 63.026441 
" clip-path="url(#p6acd96853c)" style="fill: none; stroke: #000000; stroke-linecap: round"/>
   </g>
   <g id="patch_68">
    <path d="M 100.944301 48.569216 
Q 100.514191 46.882426 100.084081 45.195637 
" clip-path="url(#p6acd96853c)" style="fill: none; opacity: 0.615694; stroke: #dddddd; stroke-width: 0.231388; stroke-linecap: round"/>
   </g>
   <g id="patch_69">
    <path d="M 101.32112 50.047013 
Q 101.75123 51.733802 102.18134 53.420592 
" clip-path="url(#p6acd96853c)" style="fill: none; opacity: 0.615694; stroke: #dddddd; stroke-width: 0.231388; stroke-linecap: round"/>
   </g>
   <g id="patch_70">
    <path d="M 69.966152 64.897436 
Q 77.389171 73.783235 84.81219 82.669034 
" clip-path="url(#p6acd96853c)" style="fill: none; opacity: 0.616901; stroke: #dcdcdc; stroke-width: 0.233803; stroke-linecap: round"/>
   </g>
   <g id="patch_71">
    <path d="M 57.529652 68.679767 
Q 70.617307 76.332372 83.704962 83.984978 
" clip-path="url(#p6acd96853c)" style="fill: none; opacity: 0.671831; stroke: #c5c5c5; stroke-width: 0.343662; stroke-linecap: round"/>
   </g>
   <g id="patch_72">
    <path d="M 60.559012 83.686618 
Q 71.803261 84.841601 83.04751 85.996584 
" clip-path="url(#p6acd96853c)" style="fill: none; opacity: 0.707042; stroke: #b2b2b2; stroke-width: 0.414085; stroke-linecap: round"/>
   </g>
   <g id="patch_73">
    <path d="M 81.606863 78.832065 
Q 74.183844 69.946266 66.760825 61.060467 
" clip-path="url(#p6acd96853c)" style="fill: none; opacity: 0.616901; stroke: #dcdcdc; stroke-width: 0.233803; stroke-linecap: round"/>
   </g>
   <g id="patch_74">
    <path d="M 79.386885 81.460114 
Q 66.29923 73.807509 53.211575 66.154904 
" clip-path="url(#p6acd96853c)" style="fill: none; opacity: 0.671831; stroke: #c5c5c5; stroke-width: 0.343662; stroke-linecap: round"/>
   </g>
   <g id="patch_75">
    <path d="M 78.067696 85.485069 
Q 66.823447 84.330086 55.579198 83.175103 
" clip-path="url(#p6acd96853c)" style="fill: none; opacity: 0.707042; stroke: #b2b2b2; stroke-width: 0.414085; stroke-linecap: round"/>
   </g>
   <g id="patch_76">
    <path d="M 97.493846 73.568079 
Q 84.856342 79.638922 72.218837 85.709765 
" clip-path="url(#p6acd96853c)" style="fill: none; opacity: 0.64507; stroke: #d0d0d0; stroke-width: 0.290141; stroke-linecap: round"/>
   </g>
   <g id="patch_77">
    <path d="M 52.211136 78.464589 
Q 57.826337 81.872286 63.441538 85.279983 
" clip-path="url(#p6acd96853c)" style="fill: none; opacity: 0.712676; stroke: #aeaeae; stroke-width: 0.425352; stroke-linecap: round"/>
   </g>
   <g id="patch_78">
    <path d="M 60.176435 85.577955 
Q 61.554932 85.997698 62.93343 86.41744 
" clip-path="url(#p6acd96853c)" style="fill: none; opacity: 0.905634; stroke: #3c3c3c; stroke-width: 0.811268; stroke-linecap: round"/>
   </g>
   <g id="patch_79">
    <path d="M 76.728864 83.543225 
Q 89.366368 77.472382 102.003873 71.401539 
" clip-path="url(#p6acd96853c)" style="fill: none; opacity: 0.64507; stroke: #d0d0d0; stroke-width: 0.290141; stroke-linecap: round"/>
   </g>
   <g id="patch_80">
    <path d="M 59.168903 82.687049 
Q 53.553702 79.279352 47.938501 75.871655 
" clip-path="url(#p6acd96853c)" style="fill: none; opacity: 0.712676; stroke: #aeaeae; stroke-width: 0.425352; stroke-linecap: round"/>
   </g>
   <g id="patch_81">
    <path d="M 58.146682 84.959909 
Q 56.768185 84.540167 55.389688 84.120424 
" clip-path="url(#p6acd96853c)" style="fill: none; opacity: 0.905634; stroke: #3c3c3c; stroke-width: 0.811268; stroke-linecap: round"/>
   </g>
   <g id="patch_82">
    <path d="M 49.205496 60.437295 
Q 49.653303 61.008064 50.10111 61.578833 
" clip-path="url(#p6acd96853c)" style="fill: none; stroke: #000000; stroke-linecap: round"/>
   </g>
   <g id="patch_83">
    <path d="M 43.928448 53.71124 
Q 43.48064 53.140471 43.032833 52.569702 
" clip-path="url(#p6acd96853c)" style="fill: none; stroke: #000000; stroke-linecap: round"/>
   </g>
   <g id="patch_84">
    <path d="M 54.88764 61.386604 
Q 59.70122 67.409193 64.5148 73.431783 
" clip-path="url(#p6acd96853c)" style="fill: none; opacity: 0.720365; stroke: #a9a9a9; stroke-width: 0.440729; stroke-linecap: round"/>
   </g>
   <g id="patch_85">
    <path d="M 51.969698 68.104948 
Q 57.647839 71.451181 63.325981 74.797414 
" clip-path="url(#p6acd96853c)" style="fill: none; opacity: 0.768997; stroke: #8c8c8c; stroke-width: 0.537994; stroke-linecap: round"/>
   </g>
   <g id="patch_86">
    <path d="M 59.946156 75.063959 
Q 61.393766 75.49197 62.841376 75.919981 
" clip-path="url(#p6acd96853c)" style="fill: none; opacity: 0.914894; stroke: #353535; stroke-width: 0.829787; stroke-linecap: round"/>
   </g>
   <g id="patch_87">
    <path d="M 61.393162 69.526095 
Q 56.579582 63.503505 51.766002 57.480915 
" clip-path="url(#p6acd96853c)" style="fill: none; opacity: 0.720365; stroke: #a9a9a9; stroke-width: 0.440729; stroke-linecap: round"/>
   </g>
   <g id="patch_88">
    <path d="M 59.019108 72.259295 
Q 53.340967 68.913062 47.662825 65.566829 
" clip-path="url(#p6acd96853c)" style="fill: none; opacity: 0.768997; stroke: #8c8c8c; stroke-width: 0.537994; stroke-linecap: round"/>
   </g>
   <g id="patch_89">
    <path d="M 58.047777 74.50267 
Q 56.600167 74.074659 55.152557 73.646648 
" clip-path="url(#p6acd96853c)" style="fill: none; opacity: 0.914894; stroke: #353535; stroke-width: 0.829787; stroke-linecap: round"/>
   </g>
   <g id="patch_90">
    <path d="M 57.149322 48.143013 
Q 70.525013 55.5012 83.900703 62.859387 
" clip-path="url(#p6acd96853c)" style="fill: none; opacity: 0.720322; stroke: #a9a9a9; stroke-width: 0.440644; stroke-linecap: round"/>
   </g>
   <g id="patch_91">
    <path d="M 60.051981 62.540813 
Q 71.677478 63.664685 83.302975 64.788556 
" clip-path="url(#p6acd96853c)" style="fill: none; opacity: 0.634809; stroke: #d5d5d5; stroke-width: 0.269618; stroke-linecap: round"/>
   </g>
   <g id="patch_92">
    <path d="M 79.518545 60.44869 
Q 66.142854 53.090503 52.767164 45.732316 
" clip-path="url(#p6acd96853c)" style="fill: none; opacity: 0.720322; stroke: #a9a9a9; stroke-width: 0.440644; stroke-linecap: round"/>
   </g>
   <g id="patch_93">
    <path d="M 78.331753 64.307973 
Q 66.706256 63.184102 55.080758 62.06023 
" clip-path="url(#p6acd96853c)" style="fill: none; opacity: 0.634809; stroke: #d5d5d5; stroke-width: 0.269618; stroke-linecap: round"/>
   </g>
   <g id="patch_94">
    <path d="M 54.743796 51.036572 
Q 59.559641 56.879629 64.375486 62.722686 
" clip-path="url(#p6acd96853c)" style="fill: none; opacity: 0.687123; stroke: #bebebe; stroke-width: 0.374245; stroke-linecap: round"/>
   </g>
   <g id="patch_95">
    <path d="M 59.711145 64.333611 
Q 61.230101 64.76903 62.749058 65.204449 
" clip-path="url(#p6acd96853c)" style="fill: none; opacity: 0.633803; stroke: #d5d5d5; stroke-width: 0.267606; stroke-linecap: round"/>
   </g>
   <g id="patch_96">
    <path d="M 61.198301 58.867812 
Q 56.382455 53.024754 51.56661 47.181697 
" clip-path="url(#p6acd96853c)" style="fill: none; opacity: 0.687123; stroke: #bebebe; stroke-width: 0.374245; stroke-linecap: round"/>
   </g>
   <g id="patch_97">
    <path d="M 57.946819 63.827856 
Q 56.427862 63.392437 54.908905 62.957018 
" clip-path="url(#p6acd96853c)" style="fill: none; opacity: 0.633803; stroke: #d5d5d5; stroke-width: 0.267606; stroke-linecap: round"/>
   </g>
  </g>
 </g>
 <defs>
  <clipPath id="p6acd96853c">
   <rect x="18.36" y="17.28" width="110.88" height="110.88"/>
  </clipPath>
 </defs>
</svg>
