<?xml version="1.0" encoding="utf-8" standalone="no"?>
<!DOCTYPE svg PUBLIC "-//W3C//DTD SVG 1.1//EN"
  "http://www.w3.org/Graphics/SVG/1.1/DTD/svg11.dtd">
<svg xmlns:xlink="http://www.w3.org/1999/xlink" width="144pt" height="144pt" viewBox="0 0 144 144" xmlns="http://www.w3.org/2000/svg" version="1.1">
 <metadata>
  <rdf:RDF xmlns:dc="http://purl.org/dc/elements/1.1/" xmlns:cc="http://creativecommons.org/ns#" xmlns:rdf="http://www.w3.org/1999/02/22-rdf-syntax-ns#">
   <cc:Work>
    <dc:type rdf:resource="http://purl.org/dc/dcmitype/StillImage"/>
    <dc:date>2025-06-03T17:18:17.034229</dc:date>
    <dc:format>image/svg+xml</dc:format>
    <dc:creator>
     <cc:Agent>
      <dc:title>Matplotlib v3.9.2, https://matplotlib.org/</dc:title>
     </cc:Agent>
    </dc:creator>
   </cc:Work>
  </rdf:RDF>
 </metadata>
 <defs>
  <style type="text/css">*{stroke-linejoin: round; stroke-linecap: butt}</style>
 </defs>
 <g id="figure_1">
  <g id="patch_1">
   <path d="M 0 144 
L 144 144 
L 144 0 
L 0 0 
z
" style="fill: #ffffff"/>
  </g>
  <g id="axes_1">
   <g id="patch_2">
    <path d="M 18 128.16 
L 129.6 128.16 
L 129.6 17.28 
L 18 17.28 
z
" style="fill: #ffffff"/>
   </g>
   <g id="matplotlib.axis_1">
    <g id="xtick_1">
     <g id="line2d_1">
      <defs>
       <path id="m68ac5f2a5e" d="M 0 0 
L 0 3.5 
" style="stroke: #000000; stroke-width: 0.8"/>
      </defs>
      <g>
       <use xlink:href="#m68ac5f2a5e" x="18" y="128.16" style="stroke: #000000; stroke-width: 0.8"/>
      </g>
     </g>
     <g id="text_1">
      <!-- 0.0 -->
      <g transform="translate(10.048437 142.758438) scale(0.1 -0.1)">
       <defs>
        <path id="DejaVuSerif-30" d="M 2034 219 
Q 2513 219 2750 744 
Q 2988 1269 2988 2328 
Q 2988 3391 2750 3916 
Q 2513 4441 2034 4441 
Q 1556 4441 1318 3916 
Q 1081 3391 1081 2328 
Q 1081 1269 1318 744 
Q 1556 219 2034 219 
z
M 2034 -91 
Q 1275 -91 848 546 
Q 422 1184 422 2328 
Q 422 3475 848 4112 
Q 1275 4750 2034 4750 
Q 2797 4750 3222 4112 
Q 3647 3475 3647 2328 
Q 3647 1184 3222 546 
Q 2797 -91 2034 -91 
z
" transform="scale(0.015625)"/>
        <path id="DejaVuSerif-2e" d="M 603 325 
Q 603 500 722 622 
Q 841 744 1019 744 
Q 1191 744 1312 622 
Q 1434 500 1434 325 
Q 1434 153 1312 31 
Q 1191 -91 1019 -91 
Q 841 -91 722 29 
Q 603 150 603 325 
z
" transform="scale(0.015625)"/>
       </defs>
       <use xlink:href="#DejaVuSerif-30"/>
       <use xlink:href="#DejaVuSerif-2e" x="63.623047"/>
       <use xlink:href="#DejaVuSerif-30" x="95.410156"/>
      </g>
     </g>
    </g>
    <g id="xtick_2">
     <g id="line2d_2">
      <g>
       <use xlink:href="#m68ac5f2a5e" x="73.8" y="128.16" style="stroke: #000000; stroke-width: 0.8"/>
      </g>
     </g>
     <g id="text_2">
      <!-- 0.5 -->
      <g transform="translate(65.848438 142.758438) scale(0.1 -0.1)">
       <defs>
        <path id="DejaVuSerif-35" d="M 3219 4666 
L 3219 4153 
L 1081 4153 
L 1081 2816 
Q 1244 2928 1461 2984 
Q 1678 3041 1947 3041 
Q 2703 3041 3140 2622 
Q 3578 2203 3578 1478 
Q 3578 738 3136 323 
Q 2694 -91 1894 -91 
Q 1572 -91 1234 -12 
Q 897 66 544 225 
L 544 1131 
L 897 1131 
Q 925 688 1179 453 
Q 1434 219 1894 219 
Q 2388 219 2653 544 
Q 2919 869 2919 1478 
Q 2919 2084 2655 2407 
Q 2391 2731 1894 2731 
Q 1613 2731 1398 2631 
Q 1184 2531 1019 2322 
L 750 2322 
L 750 4666 
L 3219 4666 
z
" transform="scale(0.015625)"/>
       </defs>
       <use xlink:href="#DejaVuSerif-30"/>
       <use xlink:href="#DejaVuSerif-2e" x="63.623047"/>
       <use xlink:href="#DejaVuSerif-35" x="95.410156"/>
      </g>
     </g>
    </g>
    <g id="xtick_3">
     <g id="line2d_3">
      <g>
       <use xlink:href="#m68ac5f2a5e" x="129.6" y="128.16" style="stroke: #000000; stroke-width: 0.8"/>
      </g>
     </g>
     <g id="text_3">
      <!-- 1.0 -->
      <g transform="translate(121.648438 142.758438) scale(0.1 -0.1)">
       <defs>
        <path id="DejaVuSerif-31" d="M 909 0 
L 909 331 
L 1722 331 
L 1722 4213 
L 781 3603 
L 781 4013 
L 1919 4750 
L 2350 4750 
L 2350 331 
L 3163 331 
L 3163 0 
L 909 0 
z
" transform="scale(0.015625)"/>
       </defs>
       <use xlink:href="#DejaVuSerif-31"/>
       <use xlink:href="#DejaVuSerif-2e" x="63.623047"/>
       <use xlink:href="#DejaVuSerif-30" x="95.410156"/>
      </g>
     </g>
    </g>
   </g>
   <g id="matplotlib.axis_2">
    <g id="ytick_1">
     <g id="line2d_4">
      <defs>
       <path id="m2c9fd23463" d="M 0 0 
L -3.5 0 
" style="stroke: #000000; stroke-width: 0.8"/>
      </defs>
      <g>
       <use xlink:href="#m2c9fd23463" x="18" y="128.16" style="stroke: #000000; stroke-width: 0.8"/>
      </g>
     </g>
     <g id="text_4">
      <!-- 0.0 -->
      <g transform="translate(-4.903125 131.959219) scale(0.1 -0.1)">
       <use xlink:href="#DejaVuSerif-30"/>
       <use xlink:href="#DejaVuSerif-2e" x="63.623047"/>
       <use xlink:href="#DejaVuSerif-30" x="95.410156"/>
      </g>
     </g>
    </g>
    <g id="ytick_2">
     <g id="line2d_5">
      <g>
       <use xlink:href="#m2c9fd23463" x="18" y="105.984" style="stroke: #000000; stroke-width: 0.8"/>
      </g>
     </g>
     <g id="text_5">
      <!-- 0.2 -->
      <g transform="translate(-4.903125 109.783219) scale(0.1 -0.1)">
       <defs>
        <path id="DejaVuSerif-32" d="M 819 3553 
L 469 3553 
L 469 4384 
Q 803 4563 1142 4656 
Q 1481 4750 1806 4750 
Q 2534 4750 2956 4397 
Q 3378 4044 3378 3438 
Q 3378 2753 2422 1800 
Q 2347 1728 2309 1691 
L 1131 513 
L 3078 513 
L 3078 1088 
L 3444 1088 
L 3444 0 
L 434 0 
L 434 341 
L 1850 1753 
Q 2319 2222 2519 2614 
Q 2719 3006 2719 3438 
Q 2719 3909 2473 4175 
Q 2228 4441 1797 4441 
Q 1350 4441 1106 4219 
Q 863 3997 819 3553 
z
" transform="scale(0.015625)"/>
       </defs>
       <use xlink:href="#DejaVuSerif-30"/>
       <use xlink:href="#DejaVuSerif-2e" x="63.623047"/>
       <use xlink:href="#DejaVuSerif-32" x="95.410156"/>
      </g>
     </g>
    </g>
    <g id="ytick_3">
     <g id="line2d_6">
      <g>
       <use xlink:href="#m2c9fd23463" x="18" y="83.808" style="stroke: #000000; stroke-width: 0.8"/>
      </g>
     </g>
     <g id="text_6">
      <!-- 0.4 -->
      <g transform="translate(-4.903125 87.607219) scale(0.1 -0.1)">
       <defs>
        <path id="DejaVuSerif-34" d="M 2234 1581 
L 2234 4063 
L 641 1581 
L 2234 1581 
z
M 3609 0 
L 1484 0 
L 1484 331 
L 2234 331 
L 2234 1247 
L 197 1247 
L 197 1588 
L 2241 4750 
L 2859 4750 
L 2859 1581 
L 3750 1581 
L 3750 1247 
L 2859 1247 
L 2859 331 
L 3609 331 
L 3609 0 
z
" transform="scale(0.015625)"/>
       </defs>
       <use xlink:href="#DejaVuSerif-30"/>
       <use xlink:href="#DejaVuSerif-2e" x="63.623047"/>
       <use xlink:href="#DejaVuSerif-34" x="95.410156"/>
      </g>
     </g>
    </g>
    <g id="ytick_4">
     <g id="line2d_7">
      <g>
       <use xlink:href="#m2c9fd23463" x="18" y="61.632" style="stroke: #000000; stroke-width: 0.8"/>
      </g>
     </g>
     <g id="text_7">
      <!-- 0.6 -->
      <g transform="translate(-4.903125 65.431219) scale(0.1 -0.1)">
       <defs>
        <path id="DejaVuSerif-36" d="M 2094 219 
Q 2534 219 2771 542 
Q 3009 866 3009 1472 
Q 3009 2078 2771 2401 
Q 2534 2725 2094 2725 
Q 1647 2725 1412 2412 
Q 1178 2100 1178 1509 
Q 1178 888 1415 553 
Q 1653 219 2094 219 
z
M 1075 2569 
Q 1288 2803 1556 2918 
Q 1825 3034 2163 3034 
Q 2859 3034 3264 2615 
Q 3669 2197 3669 1472 
Q 3669 763 3233 336 
Q 2797 -91 2069 -91 
Q 1278 -91 853 498 
Q 428 1088 428 2181 
Q 428 3406 931 4078 
Q 1434 4750 2350 4750 
Q 2597 4750 2869 4703 
Q 3141 4656 3425 4563 
L 3425 3794 
L 3072 3794 
Q 3034 4109 2831 4275 
Q 2628 4441 2284 4441 
Q 1678 4441 1381 3981 
Q 1084 3522 1075 2569 
z
" transform="scale(0.015625)"/>
       </defs>
       <use xlink:href="#DejaVuSerif-30"/>
       <use xlink:href="#DejaVuSerif-2e" x="63.623047"/>
       <use xlink:href="#DejaVuSerif-36" x="95.410156"/>
      </g>
     </g>
    </g>
    <g id="ytick_5">
     <g id="line2d_8">
      <g>
       <use xlink:href="#m2c9fd23463" x="18" y="39.456" style="stroke: #000000; stroke-width: 0.8"/>
      </g>
     </g>
     <g id="text_8">
      <!-- 0.8 -->
      <g transform="translate(-4.903125 43.255219) scale(0.1 -0.1)">
       <defs>
        <path id="DejaVuSerif-38" d="M 2981 1275 
Q 2981 1775 2732 2051 
Q 2484 2328 2034 2328 
Q 1584 2328 1336 2051 
Q 1088 1775 1088 1275 
Q 1088 772 1336 495 
Q 1584 219 2034 219 
Q 2484 219 2732 495 
Q 2981 772 2981 1275 
z
M 2853 3541 
Q 2853 3966 2637 4203 
Q 2422 4441 2034 4441 
Q 1650 4441 1433 4203 
Q 1216 3966 1216 3541 
Q 1216 3113 1433 2875 
Q 1650 2638 2034 2638 
Q 2422 2638 2637 2875 
Q 2853 3113 2853 3541 
z
M 2516 2484 
Q 3047 2413 3344 2092 
Q 3641 1772 3641 1275 
Q 3641 619 3225 264 
Q 2809 -91 2034 -91 
Q 1263 -91 845 264 
Q 428 619 428 1275 
Q 428 1772 725 2092 
Q 1022 2413 1556 2484 
Q 1084 2569 832 2842 
Q 581 3116 581 3541 
Q 581 4103 968 4426 
Q 1356 4750 2034 4750 
Q 2713 4750 3100 4426 
Q 3488 4103 3488 3541 
Q 3488 3116 3236 2842 
Q 2984 2569 2516 2484 
z
" transform="scale(0.015625)"/>
       </defs>
       <use xlink:href="#DejaVuSerif-30"/>
       <use xlink:href="#DejaVuSerif-2e" x="63.623047"/>
       <use xlink:href="#DejaVuSerif-38" x="95.410156"/>
      </g>
     </g>
    </g>
    <g id="ytick_6">
     <g id="line2d_9">
      <g>
       <use xlink:href="#m2c9fd23463" x="18" y="17.28" style="stroke: #000000; stroke-width: 0.8"/>
      </g>
     </g>
     <g id="text_9">
      <!-- 1.0 -->
      <g transform="translate(-4.903125 21.079219) scale(0.1 -0.1)">
       <use xlink:href="#DejaVuSerif-31"/>
       <use xlink:href="#DejaVuSerif-2e" x="63.623047"/>
       <use xlink:href="#DejaVuSerif-30" x="95.410156"/>
      </g>
     </g>
    </g>
   </g>
   <g id="patch_3">
    <path d="M 18 128.16 
L 18 17.28 
" style="fill: none; stroke: #000000; stroke-width: 0.8; stroke-linejoin: miter; stroke-linecap: square"/>
   </g>
   <g id="patch_4">
    <path d="M 129.6 128.16 
L 129.6 17.28 
" style="fill: none; stroke: #000000; stroke-width: 0.8; stroke-linejoin: miter; stroke-linecap: square"/>
   </g>
   <g id="patch_5">
    <path d="M 18 128.16 
L 129.6 128.16 
" style="fill: none; stroke: #000000; stroke-width: 0.8; stroke-linejoin: miter; stroke-linecap: square"/>
   </g>
   <g id="patch_6">
    <path d="M 18 17.28 
L 129.6 17.28 
" style="fill: none; stroke: #000000; stroke-width: 0.8; stroke-linejoin: miter; stroke-linecap: square"/>
   </g>
  </g>
  <g id="patch_7">
   <path d="M 18.36 128.16 
L 129.24 128.16 
L 129.24 17.28 
L 18.36 17.28 
z
" style="fill: #ffffff"/>
  </g>
  <g id="axes_2">
   <g id="patch_8">
    <path d="M 99.312018 81.487509 
Q 98.644376 80.727829 97.976735 79.96815 
" clip-path="url(#p46fa4e7b84)" style="fill: none; opacity: 0.829211; stroke: #6a6a6a; stroke-width: 0.658422; stroke-linecap: round"/>
   </g>
   <g id="Path3DCollection_1">
    <path d="M 82.036969 75.69158 
C 82.130732 75.69158 82.220668 75.654328 82.286969 75.588027 
C 82.35327 75.521726 82.390522 75.431791 82.390522 75.338027 
C 82.390522 75.244264 82.35327 75.154328 82.286969 75.088027 
C 82.220668 75.021726 82.130732 74.984474 82.036969 74.984474 
C 81.943205 74.984474 81.85327 75.021726 81.786969 75.088027 
C 81.720668 75.154328 81.683415 75.244264 81.683415 75.338027 
C 81.683415 75.431791 81.720668 75.521726 81.786969 75.588027 
C 81.85327 75.654328 81.943205 75.69158 82.036969 75.69158 
z
" clip-path="url(#p46fa4e7b84)" style="fill: #fff5f0; stroke: #00ff00; stroke-width: 2"/>
    <path d="M 63.769997 76.881398 
C 63.863761 76.881398 63.953697 76.844145 64.019997 76.777844 
C 64.086298 76.711543 64.123551 76.621608 64.123551 76.527844 
C 64.123551 76.434081 64.086298 76.344145 64.019997 76.277844 
C 63.953697 76.211543 63.863761 76.174291 63.769997 76.174291 
C 63.676234 76.174291 63.586298 76.211543 63.519997 76.277844 
C 63.453697 76.344145 63.416444 76.434081 63.416444 76.527844 
C 63.416444 76.621608 63.453697 76.711543 63.519997 76.777844 
C 63.586298 76.844145 63.676234 76.881398 63.769997 76.881398 
z
" clip-path="url(#p46fa4e7b84)" style="fill: #fff5f0; stroke: #00ff00; stroke-width: 2"/>
    <path d="M 97.976735 83.503683 
C 98.91437 83.503683 99.813727 83.131157 100.476735 82.46815 
C 101.139743 81.805142 101.512269 80.905784 101.512269 79.96815 
C 101.512269 79.030515 101.139743 78.131157 100.476735 77.46815 
C 99.813727 76.805142 98.91437 76.432616 97.976735 76.432616 
C 97.0391 76.432616 96.139743 76.805142 95.476735 77.46815 
C 94.813727 78.131157 94.441201 79.030515 94.441201 79.96815 
C 94.441201 80.905784 94.813727 81.805142 95.476735 82.46815 
C 96.139743 83.131157 97.0391 83.503683 97.976735 83.503683 
z
" clip-path="url(#p46fa4e7b84)" style="fill: #67000d; stroke: #00ff00; stroke-width: 2"/>
    <path d="M 49.391636 83.537671 
C 49.485399 83.537671 49.575335 83.500419 49.641636 83.434118 
C 49.707936 83.367817 49.745189 83.277881 49.745189 83.184118 
C 49.745189 83.090354 49.707936 83.000419 49.641636 82.934118 
C 49.575335 82.867817 49.485399 82.830565 49.391636 82.830565 
C 49.297872 82.830565 49.207936 82.867817 49.141636 82.934118 
C 49.075335 83.000419 49.038082 83.090354 49.038082 83.184118 
C 49.038082 83.277881 49.075335 83.367817 49.141636 83.434118 
C 49.207936 83.500419 49.297872 83.537671 49.391636 83.537671 
z
" clip-path="url(#p46fa4e7b84)" style="fill: #fff5f0; stroke: #ff0000; stroke-width: 2"/>
    <path d="M 105.914786 92.536045 
C 106.852421 92.536045 107.751778 92.163519 108.414786 91.500511 
C 109.077794 90.837503 109.45032 89.938145 109.45032 89.000511 
C 109.45032 88.062876 109.077794 87.163519 108.414786 86.500511 
C 107.751778 85.837503 106.852421 85.464977 105.914786 85.464977 
C 104.977152 85.464977 104.077794 85.837503 103.414786 86.500511 
C 102.751778 87.163519 102.379252 88.062876 102.379252 89.000511 
C 102.379252 89.938145 102.751778 90.837503 103.414786 91.500511 
C 104.077794 92.163519 104.977152 92.536045 105.914786 92.536045 
z
" clip-path="url(#p46fa4e7b84)" style="fill: #67000d; stroke: #00ff00; stroke-width: 2"/>
    <path d="M 44.273099 93.544363 
C 44.366863 93.544363 44.456799 93.507111 44.523099 93.44081 
C 44.5894 93.374509 44.626653 93.284573 44.626653 93.19081 
C 44.626653 93.097046 44.5894 93.007111 44.523099 92.94081 
C 44.456799 92.874509 44.366863 92.837256 44.273099 92.837256 
C 44.179336 92.837256 44.0894 92.874509 44.023099 92.94081 
C 43.956799 93.007111 43.919546 93.097046 43.919546 93.19081 
C 43.919546 93.284573 43.956799 93.374509 44.023099 93.44081 
C 44.0894 93.507111 44.179336 93.544363 44.273099 93.544363 
z
" clip-path="url(#p46fa4e7b84)" style="fill: #fff5f0; stroke: #00ff00; stroke-width: 2"/>
    <path d="M 102.317046 102.875231 
C 103.25468 102.875231 104.154038 102.502704 104.817046 101.839697 
C 105.480054 101.176689 105.85258 100.277331 105.85258 99.339697 
C 105.85258 98.402062 105.480054 97.502704 104.817046 96.839697 
C 104.154038 96.176689 103.25468 95.804163 102.317046 95.804163 
C 101.379411 95.804163 100.480054 96.176689 99.817046 96.839697 
C 99.154038 97.502704 98.781512 98.402062 98.781512 99.339697 
C 98.781512 100.277331 99.154038 101.176689 99.817046 101.839697 
C 100.480054 102.502704 101.379411 102.875231 102.317046 102.875231 
z
" clip-path="url(#p46fa4e7b84)" style="fill: #67000d; stroke: #00ff00; stroke-width: 2"/>
    <path d="M 51.095278 106.453746 
C 52.032913 106.453746 52.93227 106.08122 53.595278 105.418212 
C 54.258286 104.755204 54.630812 103.855847 54.630812 102.918212 
C 54.630812 101.980578 54.258286 101.08122 53.595278 100.418212 
C 52.93227 99.755204 52.032913 99.382678 51.095278 99.382678 
C 50.157644 99.382678 49.258286 99.755204 48.595278 100.418212 
C 47.93227 101.08122 47.559744 101.980578 47.559744 102.918212 
C 47.559744 103.855847 47.93227 104.755204 48.595278 105.418212 
C 49.258286 106.08122 50.157644 106.453746 51.095278 106.453746 
z
" clip-path="url(#p46fa4e7b84)" style="fill: #67000d; stroke: #ff0000; stroke-width: 2"/>
    <path d="M 87.764928 107.251234 
C 87.858692 107.251234 87.948627 107.213982 88.014928 107.147681 
C 88.081229 107.08138 88.118482 106.991444 88.118482 106.897681 
C 88.118482 106.803918 88.081229 106.713982 88.014928 106.647681 
C 87.948627 106.58138 87.858692 106.544128 87.764928 106.544128 
C 87.671165 106.544128 87.581229 106.58138 87.514928 106.647681 
C 87.448627 106.713982 87.411375 106.803918 87.411375 106.897681 
C 87.411375 106.991444 87.448627 107.08138 87.514928 107.147681 
C 87.581229 107.213982 87.671165 107.251234 87.764928 107.251234 
z
" clip-path="url(#p46fa4e7b84)" style="fill: #fff5f0; stroke: #00ff00; stroke-width: 2"/>
    <path d="M 67.86666 108.66563 
C 67.960423 108.66563 68.050359 108.628378 68.11666 108.562077 
C 68.182961 108.495776 68.220213 108.40584 68.220213 108.312077 
C 68.220213 108.218313 68.182961 108.128378 68.11666 108.062077 
C 68.050359 107.995776 67.960423 107.958523 67.86666 107.958523 
C 67.772897 107.958523 67.682961 107.995776 67.61666 108.062077 
C 67.550359 108.128378 67.513107 108.218313 67.513107 108.312077 
C 67.513107 108.40584 67.550359 108.495776 67.61666 108.562077 
C 67.682961 108.628378 67.772897 108.66563 67.86666 108.66563 
z
" clip-path="url(#p46fa4e7b84)" style="fill: #fff5f0; stroke: #00ff00; stroke-width: 2"/>
   </g>
   <g id="patch_9">
    <path d="M 104.579504 87.481151 
Q 105.247145 88.240831 105.914786 89.000511 
" clip-path="url(#p46fa4e7b84)" style="fill: none; opacity: 0.829211; stroke: #6a6a6a; stroke-width: 0.658422; stroke-linecap: round"/>
   </g>
   <g id="Path3DCollection_2">
    <path d="M 82.099153 66.1499 
C 82.192916 66.1499 82.282852 66.112647 82.349153 66.046346 
C 82.415453 65.980045 82.452706 65.89011 82.452706 65.796346 
C 82.452706 65.702583 82.415453 65.612647 82.349153 65.546346 
C 82.282852 65.480045 82.192916 65.442793 82.099153 65.442793 
C 82.005389 65.442793 81.915453 65.480045 81.849153 65.546346 
C 81.782852 65.612647 81.745599 65.702583 81.745599 65.796346 
C 81.745599 65.89011 81.782852 65.980045 81.849153 66.046346 
C 81.915453 66.112647 82.005389 66.1499 82.099153 66.1499 
z
" clip-path="url(#p46fa4e7b84)" style="fill: #f7fbff; stroke: #00ff00; stroke-width: 2"/>
    <path d="M 63.663248 67.318011 
C 63.757012 67.318011 63.846948 67.280758 63.913248 67.214458 
C 63.979549 67.148157 64.016802 67.058221 64.016802 66.964458 
C 64.016802 66.870694 63.979549 66.780758 63.913248 66.714458 
C 63.846948 66.648157 63.757012 66.610904 63.663248 66.610904 
C 63.569485 66.610904 63.479549 66.648157 63.413248 66.714458 
C 63.346948 66.780758 63.309695 66.870694 63.309695 66.964458 
C 63.309695 67.058221 63.346948 67.148157 63.413248 67.214458 
C 63.479549 67.280758 63.569485 67.318011 63.663248 67.318011 
z
" clip-path="url(#p46fa4e7b84)" style="fill: #f7fbff; stroke: #00ff00; stroke-width: 2"/>
    <path d="M 98.188804 73.877948 
C 99.126439 73.877948 100.025797 73.505422 100.688804 72.842415 
C 101.351812 72.179407 101.724338 71.280049 101.724338 70.342415 
C 101.724338 69.40478 101.351812 68.505422 100.688804 67.842415 
C 100.025797 67.179407 99.126439 66.806881 98.188804 66.806881 
C 97.25117 66.806881 96.351812 67.179407 95.688804 67.842415 
C 95.025797 68.505422 94.653271 69.40478 94.653271 70.342415 
C 94.653271 71.280049 95.025797 72.179407 95.688804 72.842415 
C 96.351812 73.505422 97.25117 73.877948 98.188804 73.877948 
z
" clip-path="url(#p46fa4e7b84)" style="fill: #08306b; stroke: #00ff00; stroke-width: 2"/>
    <path d="M 49.14716 73.854208 
C 49.240924 73.854208 49.330859 73.816955 49.39716 73.750654 
C 49.463461 73.684353 49.500714 73.594418 49.500714 73.500654 
C 49.500714 73.406891 49.463461 73.316955 49.39716 73.250654 
C 49.330859 73.184353 49.240924 73.147101 49.14716 73.147101 
C 49.053397 73.147101 48.963461 73.184353 48.89716 73.250654 
C 48.830859 73.316955 48.793607 73.406891 48.793607 73.500654 
C 48.793607 73.594418 48.830859 73.684353 48.89716 73.750654 
C 48.963461 73.816955 49.053397 73.854208 49.14716 73.854208 
z
" clip-path="url(#p46fa4e7b84)" style="fill: #f7fbff; stroke: #ff0000; stroke-width: 2"/>
    <path d="M 106.208444 79.567552 
C 106.302208 79.567552 106.392144 79.5303 106.458444 79.463999 
C 106.524745 79.397698 106.561998 79.307762 106.561998 79.213999 
C 106.561998 79.120236 106.524745 79.0303 106.458444 78.963999 
C 106.392144 78.897698 106.302208 78.860446 106.208444 78.860446 
C 106.114681 78.860446 106.024745 78.897698 105.958444 78.963999 
C 105.892144 79.0303 105.854891 79.120236 105.854891 79.213999 
C 105.854891 79.307762 105.892144 79.397698 105.958444 79.463999 
C 106.024745 79.5303 106.114681 79.567552 106.208444 79.567552 
z
" clip-path="url(#p46fa4e7b84)" style="fill: #f7fbff; stroke: #00ff00; stroke-width: 2"/>
    <path d="M 43.972059 83.684699 
C 44.065822 83.684699 44.155758 83.647446 44.222059 83.581145 
C 44.288359 83.514844 44.325612 83.424909 44.325612 83.331145 
C 44.325612 83.237382 44.288359 83.147446 44.222059 83.081145 
C 44.155758 83.014844 44.065822 82.977592 43.972059 82.977592 
C 43.878295 82.977592 43.788359 83.014844 43.722059 83.081145 
C 43.655758 83.147446 43.618505 83.237382 43.618505 83.331145 
C 43.618505 83.424909 43.655758 83.514844 43.722059 83.581145 
C 43.788359 83.647446 43.878295 83.684699 43.972059 83.684699 
z
" clip-path="url(#p46fa4e7b84)" style="fill: #f7fbff; stroke: #00ff00; stroke-width: 2"/>
    <path d="M 102.583634 92.909868 
C 103.521268 92.909868 104.420626 92.537342 105.083634 91.874334 
C 105.746641 91.211326 106.119168 90.311969 106.119168 89.374334 
C 106.119168 88.4367 105.746641 87.537342 105.083634 86.874334 
C 104.420626 86.211326 103.521268 85.8388 102.583634 85.8388 
C 101.645999 85.8388 100.746641 86.211326 100.083634 86.874334 
C 99.420626 87.537342 99.0481 88.4367 99.0481 89.374334 
C 99.0481 90.311969 99.420626 91.211326 100.083634 91.874334 
C 100.746641 92.537342 101.645999 92.909868 102.583634 92.909868 
z
" clip-path="url(#p46fa4e7b84)" style="fill: #08306b; stroke: #00ff00; stroke-width: 2"/>
    <path d="M 50.854164 93.245791 
C 50.947928 93.245791 51.037863 93.208539 51.104164 93.142238 
C 51.170465 93.075937 51.207717 92.986001 51.207717 92.892238 
C 51.207717 92.798475 51.170465 92.708539 51.104164 92.642238 
C 51.037863 92.575937 50.947928 92.538685 50.854164 92.538685 
C 50.760401 92.538685 50.670465 92.575937 50.604164 92.642238 
C 50.537863 92.708539 50.500611 92.798475 50.500611 92.892238 
C 50.500611 92.986001 50.537863 93.075937 50.604164 93.142238 
C 50.670465 93.208539 50.760401 93.245791 50.854164 93.245791 
z
" clip-path="url(#p46fa4e7b84)" style="fill: #f7fbff; stroke: #ff0000; stroke-width: 2"/>
    <path d="M 87.890443 97.158637 
C 87.984206 97.158637 88.074142 97.121385 88.140443 97.055084 
C 88.206744 96.988783 88.243996 96.898847 88.243996 96.805084 
C 88.243996 96.71132 88.206744 96.621385 88.140443 96.555084 
C 88.074142 96.488783 87.984206 96.451531 87.890443 96.451531 
C 87.796679 96.451531 87.706744 96.488783 87.640443 96.555084 
C 87.574142 96.621385 87.536889 96.71132 87.536889 96.805084 
C 87.536889 96.898847 87.574142 96.988783 87.640443 97.055084 
C 87.706744 97.121385 87.796679 97.158637 87.890443 97.158637 
z
" clip-path="url(#p46fa4e7b84)" style="fill: #f7fbff; stroke: #00ff00; stroke-width: 2"/>
    <path d="M 67.791556 98.549552 
C 67.88532 98.549552 67.975256 98.512299 68.041556 98.445998 
C 68.107857 98.379698 68.14511 98.289762 68.14511 98.195998 
C 68.14511 98.102235 68.107857 98.012299 68.041556 97.945998 
C 67.975256 97.879698 67.88532 97.842445 67.791556 97.842445 
C 67.697793 97.842445 67.607857 97.879698 67.541556 97.945998 
C 67.475256 98.012299 67.438003 98.102235 67.438003 98.195998 
C 67.438003 98.289762 67.475256 98.379698 67.541556 98.445998 
C 67.607857 98.512299 67.697793 98.549552 67.791556 98.549552 
z
" clip-path="url(#p46fa4e7b84)" style="fill: #f7fbff; stroke: #00ff00; stroke-width: 2"/>
   </g>
   <g id="patch_10">
    <path d="M 99.502569 71.795743 
Q 98.845687 71.069079 98.188804 70.342415 
" clip-path="url(#p46fa4e7b84)" style="fill: none; stroke: #000000; stroke-linecap: round"/>
   </g>
   <g id="Path3DCollection_3">
    <path d="M 82.162495 56.430477 
C 82.256258 56.430477 82.346194 56.393224 82.412495 56.326923 
C 82.478796 56.260623 82.516048 56.170687 82.516048 56.076923 
C 82.516048 55.98316 82.478796 55.893224 82.412495 55.826923 
C 82.346194 55.760623 82.256258 55.72337 82.162495 55.72337 
C 82.068731 55.72337 81.978796 55.760623 81.912495 55.826923 
C 81.846194 55.893224 81.808941 55.98316 81.808941 56.076923 
C 81.808941 56.170687 81.846194 56.260623 81.912495 56.326923 
C 81.978796 56.393224 82.068731 56.430477 82.162495 56.430477 
z
" clip-path="url(#p46fa4e7b84)" style="fill: #f7fcf5; stroke: #00ff00; stroke-width: 2"/>
    <path d="M 63.554504 57.575862 
C 63.648268 57.575862 63.738203 57.538609 63.804504 57.472308 
C 63.870805 57.406008 63.908057 57.316072 63.908057 57.222308 
C 63.908057 57.128545 63.870805 57.038609 63.804504 56.972308 
C 63.738203 56.906008 63.648268 56.868755 63.554504 56.868755 
C 63.460741 56.868755 63.370805 56.906008 63.304504 56.972308 
C 63.238203 57.038609 63.200951 57.128545 63.200951 57.222308 
C 63.200951 57.316072 63.238203 57.406008 63.304504 57.472308 
C 63.370805 57.538609 63.460741 57.575862 63.554504 57.575862 
z
" clip-path="url(#p46fa4e7b84)" style="fill: #f7fcf5; stroke: #00ff00; stroke-width: 2"/>
    <path d="M 98.404877 64.07049 
C 99.342512 64.07049 100.24187 63.697964 100.904877 63.034956 
C 101.567885 62.371948 101.940411 61.472591 101.940411 60.534956 
C 101.940411 59.597322 101.567885 58.697964 100.904877 58.034956 
C 100.24187 57.371948 99.342512 56.999422 98.404877 56.999422 
C 97.467243 56.999422 96.567885 57.371948 95.904877 58.034956 
C 95.24187 58.697964 94.869344 59.597322 94.869344 60.534956 
C 94.869344 61.472591 95.24187 62.371948 95.904877 63.034956 
C 96.567885 63.697964 97.467243 64.07049 98.404877 64.07049 
z
" clip-path="url(#p46fa4e7b84)" style="fill: #00441b; stroke: #00ff00; stroke-width: 2"/>
    <path d="M 48.898027 63.986242 
C 48.99179 63.986242 49.081726 63.948989 49.148027 63.882688 
C 49.214328 63.816388 49.25158 63.726452 49.25158 63.632688 
C 49.25158 63.538925 49.214328 63.448989 49.148027 63.382688 
C 49.081726 63.316388 48.99179 63.279135 48.898027 63.279135 
C 48.804263 63.279135 48.714328 63.316388 48.648027 63.382688 
C 48.581726 63.448989 48.544473 63.538925 48.544473 63.632688 
C 48.544473 63.726452 48.581726 63.816388 48.648027 63.882688 
C 48.714328 63.948989 48.804263 63.986242 48.898027 63.986242 
z
" clip-path="url(#p46fa4e7b84)" style="fill: #f7fcf5; stroke: #ff0000; stroke-width: 2"/>
    <path d="M 106.507791 69.591487 
C 106.601554 69.591487 106.69149 69.554234 106.757791 69.487934 
C 106.824091 69.421633 106.861344 69.331697 106.861344 69.237934 
C 106.861344 69.14417 106.824091 69.054234 106.757791 68.987934 
C 106.69149 68.921633 106.601554 68.88438 106.507791 68.88438 
C 106.414027 68.88438 106.324091 68.921633 106.257791 68.987934 
C 106.19149 69.054234 106.154237 69.14417 106.154237 69.237934 
C 106.154237 69.331697 106.19149 69.421633 106.257791 69.487934 
C 106.324091 69.554234 106.414027 69.591487 106.507791 69.591487 
z
" clip-path="url(#p46fa4e7b84)" style="fill: #f7fcf5; stroke: #00ff00; stroke-width: 2"/>
    <path d="M 43.665119 76.813801 
C 44.602753 76.813801 45.502111 76.441275 46.165119 75.778268 
C 46.828126 75.11526 47.200653 74.215902 47.200653 73.278268 
C 47.200653 72.340633 46.828126 71.441275 46.165119 70.778268 
C 45.502111 70.11526 44.602753 69.742734 43.665119 69.742734 
C 42.727484 69.742734 41.828126 70.11526 41.165119 70.778268 
C 40.502111 71.441275 40.129585 72.340633 40.129585 73.278268 
C 40.129585 74.215902 40.502111 75.11526 41.165119 75.778268 
C 41.828126 76.441275 42.727484 76.813801 43.665119 76.813801 
z
" clip-path="url(#p46fa4e7b84)" style="fill: #00441b; stroke: #00ff00; stroke-width: 2"/>
    <path d="M 102.855535 82.745893 
C 103.793169 82.745893 104.692527 82.373367 105.355535 81.710359 
C 106.018543 81.047352 106.391069 80.147994 106.391069 79.210359 
C 106.391069 78.272725 106.018543 77.373367 105.355535 76.710359 
C 104.692527 76.047352 103.793169 75.674825 102.855535 75.674825 
C 101.9179 75.674825 101.018543 76.047352 100.355535 76.710359 
C 99.692527 77.373367 99.320001 78.272725 99.320001 79.210359 
C 99.320001 80.147994 99.692527 81.047352 100.355535 81.710359 
C 101.018543 82.373367 101.9179 82.745893 102.855535 82.745893 
z
" clip-path="url(#p46fa4e7b84)" style="fill: #00441b; stroke: #00ff00; stroke-width: 2"/>
    <path d="M 50.608198 83.018047 
C 50.701961 83.018047 50.791897 82.980795 50.858198 82.914494 
C 50.924498 82.848193 50.961751 82.758257 50.961751 82.664494 
C 50.961751 82.570731 50.924498 82.480795 50.858198 82.414494 
C 50.791897 82.348193 50.701961 82.310941 50.608198 82.310941 
C 50.514434 82.310941 50.424498 82.348193 50.358198 82.414494 
C 50.291897 82.480795 50.254644 82.570731 50.254644 82.664494 
C 50.254644 82.758257 50.291897 82.848193 50.358198 82.914494 
C 50.424498 82.980795 50.514434 83.018047 50.608198 83.018047 
z
" clip-path="url(#p46fa4e7b84)" style="fill: #f7fcf5; stroke: #ff0000; stroke-width: 2"/>
    <path d="M 88.018511 86.860746 
C 88.112274 86.860746 88.20221 86.823494 88.268511 86.757193 
C 88.334812 86.690892 88.372064 86.600956 88.372064 86.507193 
C 88.372064 86.41343 88.334812 86.323494 88.268511 86.257193 
C 88.20221 86.190892 88.112274 86.15364 88.018511 86.15364 
C 87.924747 86.15364 87.834812 86.190892 87.768511 86.257193 
C 87.70221 86.323494 87.664957 86.41343 87.664957 86.507193 
C 87.664957 86.600956 87.70221 86.690892 87.768511 86.757193 
C 87.834812 86.823494 87.924747 86.860746 88.018511 86.860746 
z
" clip-path="url(#p46fa4e7b84)" style="fill: #f7fcf5; stroke: #00ff00; stroke-width: 2"/>
    <path d="M 67.71492 88.226924 
C 67.808683 88.226924 67.898619 88.189671 67.96492 88.12337 
C 68.03122 88.057069 68.068473 87.967134 68.068473 87.87337 
C 68.068473 87.779607 68.03122 87.689671 67.96492 87.62337 
C 67.898619 87.557069 67.808683 87.519817 67.71492 87.519817 
C 67.621156 87.519817 67.53122 87.557069 67.46492 87.62337 
C 67.398619 87.689671 67.361366 87.779607 67.361366 87.87337 
C 67.361366 87.967134 67.398619 88.057069 67.46492 88.12337 
C 67.53122 88.189671 67.621156 88.226924 67.71492 88.226924 
z
" clip-path="url(#p46fa4e7b84)" style="fill: #f7fcf5; stroke: #00ff00; stroke-width: 2"/>
   </g>
   <g id="patch_11">
    <path d="M 96.258244 78.217721 
Q 75.191389 76.108371 54.124534 73.999021 
" clip-path="url(#p46fa4e7b84)" style="fill: none; opacity: 0.731579; stroke: #a2a2a2; stroke-width: 0.463158; stroke-linecap: round"/>
   </g>
   <g id="Path3DCollection_4">
    <path d="M 82.227028 46.528299 
C 82.320791 46.528299 82.410727 46.491047 82.477028 46.424746 
C 82.543329 46.358445 82.580581 46.268509 82.580581 46.174746 
C 82.580581 46.080982 82.543329 45.991047 82.477028 45.924746 
C 82.410727 45.858445 82.320791 45.821192 82.227028 45.821192 
C 82.133265 45.821192 82.043329 45.858445 81.977028 45.924746 
C 81.910727 45.991047 81.873475 46.080982 81.873475 46.174746 
C 81.873475 46.268509 81.910727 46.358445 81.977028 46.424746 
C 82.043329 46.491047 82.133265 46.528299 82.227028 46.528299 
z
" clip-path="url(#p46fa4e7b84)" style="fill: #fff5eb; stroke: #00ff00; stroke-width: 2"/>
    <path d="M 63.443708 47.64989 
C 63.537471 47.64989 63.627407 47.612638 63.693708 47.546337 
C 63.760009 47.480036 63.797261 47.3901 63.797261 47.296337 
C 63.797261 47.202573 63.760009 47.112638 63.693708 47.046337 
C 63.627407 46.980036 63.537471 46.942784 63.443708 46.942784 
C 63.349944 46.942784 63.260009 46.980036 63.193708 47.046337 
C 63.127407 47.112638 63.090155 47.202573 63.090155 47.296337 
C 63.090155 47.3901 63.127407 47.480036 63.193708 47.546337 
C 63.260009 47.612638 63.349944 47.64989 63.443708 47.64989 
z
" clip-path="url(#p46fa4e7b84)" style="fill: #fff5eb; stroke: #00ff00; stroke-width: 2"/>
    <path d="M 98.625069 54.076113 
C 99.562703 54.076113 100.462061 53.703587 101.125069 53.040579 
C 101.788076 52.377572 102.160603 51.478214 102.160603 50.540579 
C 102.160603 49.602945 101.788076 48.703587 101.125069 48.040579 
C 100.462061 47.377572 99.562703 47.005046 98.625069 47.005046 
C 97.687434 47.005046 96.788076 47.377572 96.125069 48.040579 
C 95.462061 48.703587 95.089535 49.602945 95.089535 50.540579 
C 95.089535 51.478214 95.462061 52.377572 96.125069 53.040579 
C 96.788076 53.703587 97.687434 54.076113 98.625069 54.076113 
z
" clip-path="url(#p46fa4e7b84)" style="fill: #7f2704; stroke: #00ff00; stroke-width: 2"/>
    <path d="M 48.644101 53.928451 
C 48.737864 53.928451 48.8278 53.891198 48.894101 53.824897 
C 48.960402 53.758596 48.997654 53.668661 48.997654 53.574897 
C 48.997654 53.481134 48.960402 53.391198 48.894101 53.324897 
C 48.8278 53.258596 48.737864 53.221344 48.644101 53.221344 
C 48.550338 53.221344 48.460402 53.258596 48.394101 53.324897 
C 48.3278 53.391198 48.290548 53.481134 48.290548 53.574897 
C 48.290548 53.668661 48.3278 53.758596 48.394101 53.824897 
C 48.460402 53.891198 48.550338 53.928451 48.644101 53.928451 
z
" clip-path="url(#p46fa4e7b84)" style="fill: #fff5eb; stroke: #ff0000; stroke-width: 2"/>
    <path d="M 106.812991 59.420307 
C 106.906755 59.420307 106.996691 59.383055 107.062991 59.316754 
C 107.129292 59.250453 107.166545 59.160517 107.166545 59.066754 
C 107.166545 58.972991 107.129292 58.883055 107.062991 58.816754 
C 106.996691 58.750453 106.906755 58.713201 106.812991 58.713201 
C 106.719228 58.713201 106.629292 58.750453 106.562991 58.816754 
C 106.496691 58.883055 106.459438 58.972991 106.459438 59.066754 
C 106.459438 59.160517 106.496691 59.250453 106.562991 59.316754 
C 106.629292 59.383055 106.719228 59.420307 106.812991 59.420307 
z
" clip-path="url(#p46fa4e7b84)" style="fill: #fff5eb; stroke: #00ff00; stroke-width: 2"/>
    <path d="M 43.352104 63.379995 
C 43.445868 63.379995 43.535804 63.342742 43.602104 63.276441 
C 43.668405 63.210141 43.705658 63.120205 43.705658 63.026441 
C 43.705658 62.932678 43.668405 62.842742 43.602104 62.776441 
C 43.535804 62.710141 43.445868 62.672888 43.352104 62.672888 
C 43.258341 62.672888 43.168405 62.710141 43.102104 62.776441 
C 43.035804 62.842742 42.998551 62.932678 42.998551 63.026441 
C 42.998551 63.120205 43.035804 63.210141 43.102104 63.276441 
C 43.168405 63.342742 43.258341 63.379995 43.352104 63.379995 
z
" clip-path="url(#p46fa4e7b84)" style="fill: #fff5eb; stroke: #00ff00; stroke-width: 2"/>
    <path d="M 103.132909 72.377309 
C 104.070544 72.377309 104.969902 72.004783 105.632909 71.341775 
C 106.295917 70.678767 106.668443 69.779409 106.668443 68.841775 
C 106.668443 67.90414 106.295917 67.004783 105.632909 66.341775 
C 104.969902 65.678767 104.070544 65.306241 103.132909 65.306241 
C 102.195275 65.306241 101.295917 65.678767 100.632909 66.341775 
C 99.969902 67.004783 99.597376 67.90414 99.597376 68.841775 
C 99.597376 69.779409 99.969902 70.678767 100.632909 71.341775 
C 101.295917 72.004783 102.195275 72.377309 103.132909 72.377309 
z
" clip-path="url(#p46fa4e7b84)" style="fill: #7f2704; stroke: #00ff00; stroke-width: 2"/>
    <path d="M 50.357231 75.764361 
C 51.294866 75.764361 52.194223 75.391835 52.857231 74.728827 
C 53.520239 74.06582 53.892765 73.166462 53.892765 72.228827 
C 53.892765 71.291193 53.520239 70.391835 52.857231 69.728827 
C 52.194223 69.06582 51.294866 68.693294 50.357231 68.693294 
C 49.419596 68.693294 48.520239 69.06582 47.857231 69.728827 
C 47.194223 70.391835 46.821697 71.291193 46.821697 72.228827 
C 46.821697 73.166462 47.194223 74.06582 47.857231 74.728827 
C 48.520239 75.391835 49.419596 75.764361 50.357231 75.764361 
z
" clip-path="url(#p46fa4e7b84)" style="fill: #7f2704; stroke: #ff0000; stroke-width: 2"/>
    <path d="M 88.14921 76.351233 
C 88.242974 76.351233 88.33291 76.313981 88.39921 76.24768 
C 88.465511 76.181379 88.502764 76.091443 88.502764 75.99768 
C 88.502764 75.903916 88.465511 75.813981 88.39921 75.74768 
C 88.33291 75.681379 88.242974 75.644127 88.14921 75.644127 
C 88.055447 75.644127 87.965511 75.681379 87.89921 75.74768 
C 87.83291 75.813981 87.795657 75.903916 87.795657 75.99768 
C 87.795657 76.091443 87.83291 76.181379 87.89921 76.24768 
C 87.965511 76.313981 88.055447 76.351233 88.14921 76.351233 
z
" clip-path="url(#p46fa4e7b84)" style="fill: #fff5eb; stroke: #00ff00; stroke-width: 2"/>
    <path d="M 67.636702 77.691355 
C 67.730465 77.691355 67.820401 77.654102 67.886702 77.587801 
C 67.953002 77.521501 67.990255 77.431565 67.990255 77.337801 
C 67.990255 77.244038 67.953002 77.154102 67.886702 77.087801 
C 67.820401 77.021501 67.730465 76.984248 67.636702 76.984248 
C 67.542938 76.984248 67.453002 77.021501 67.386702 77.087801 
C 67.320401 77.154102 67.283148 77.244038 67.283148 77.337801 
C 67.283148 77.431565 67.320401 77.521501 67.386702 77.587801 
C 67.453002 77.654102 67.542938 77.691355 67.636702 77.691355 
z
" clip-path="url(#p46fa4e7b84)" style="fill: #fff5eb; stroke: #00ff00; stroke-width: 2"/>
   </g>
   <g id="patch_12">
    <path d="M 104.89468 77.760671 
Q 105.551562 78.487335 106.208444 79.213999 
" clip-path="url(#p46fa4e7b84)" style="fill: none; stroke: #000000; stroke-linecap: round"/>
   </g>
   <g id="Path3DCollection_5">
    <path d="M 82.292786 36.438163 
C 82.38655 36.438163 82.476485 36.400911 82.542786 36.33461 
C 82.609087 36.268309 82.64634 36.178373 82.64634 36.08461 
C 82.64634 35.990846 82.609087 35.900911 82.542786 35.83461 
C 82.476485 35.768309 82.38655 35.731056 82.292786 35.731056 
C 82.199023 35.731056 82.109087 35.768309 82.042786 35.83461 
C 81.976485 35.900911 81.939233 35.990846 81.939233 36.08461 
C 81.939233 36.178373 81.976485 36.268309 82.042786 36.33461 
C 82.109087 36.400911 82.199023 36.438163 82.292786 36.438163 
z
" clip-path="url(#p46fa4e7b84)" style="fill: #fcfbfd; stroke: #00ff00; stroke-width: 2"/>
    <path d="M 63.330801 37.534844 
C 63.424565 37.534844 63.5145 37.497592 63.580801 37.431291 
C 63.647102 37.36499 63.684355 37.275054 63.684355 37.181291 
C 63.684355 37.087527 63.647102 36.997592 63.580801 36.931291 
C 63.5145 36.86499 63.424565 36.827737 63.330801 36.827737 
C 63.237038 36.827737 63.147102 36.86499 63.080801 36.931291 
C 63.0145 36.997592 62.977248 37.087527 62.977248 37.181291 
C 62.977248 37.275054 63.0145 37.36499 63.080801 37.431291 
C 63.147102 37.497592 63.237038 37.534844 63.330801 37.534844 
z
" clip-path="url(#p46fa4e7b84)" style="fill: #fcfbfd; stroke: #00ff00; stroke-width: 2"/>
    <path d="M 98.849497 43.889423 
C 99.787131 43.889423 100.686489 43.516897 101.349497 42.853889 
C 102.012504 42.190881 102.385031 41.291524 102.385031 40.353889 
C 102.385031 39.416255 102.012504 38.516897 101.349497 37.853889 
C 100.686489 37.190881 99.787131 36.818355 98.849497 36.818355 
C 97.911862 36.818355 97.012504 37.190881 96.349497 37.853889 
C 95.686489 38.516897 95.313963 39.416255 95.313963 40.353889 
C 95.313963 41.291524 95.686489 42.190881 96.349497 42.853889 
C 97.012504 43.516897 97.911862 43.889423 98.849497 43.889423 
z
" clip-path="url(#p46fa4e7b84)" style="fill: #3f007d; stroke: #00ff00; stroke-width: 2"/>
    <path d="M 48.385243 43.675303 
C 48.479006 43.675303 48.568942 43.63805 48.635243 43.57175 
C 48.701544 43.505449 48.738796 43.415513 48.738796 43.32175 
C 48.738796 43.227986 48.701544 43.13805 48.635243 43.07175 
C 48.568942 43.005449 48.479006 42.968196 48.385243 42.968196 
C 48.29148 42.968196 48.201544 43.005449 48.135243 43.07175 
C 48.068942 43.13805 48.03169 43.227986 48.03169 43.32175 
C 48.03169 43.415513 48.068942 43.505449 48.135243 43.57175 
C 48.201544 43.63805 48.29148 43.675303 48.385243 43.675303 
z
" clip-path="url(#p46fa4e7b84)" style="fill: #fcfbfd; stroke: #ff0000; stroke-width: 2"/>
    <path d="M 107.12422 49.048233 
C 107.217984 49.048233 107.30792 49.01098 107.37422 48.944679 
C 107.440521 48.878378 107.477774 48.788443 107.477774 48.694679 
C 107.477774 48.600916 107.440521 48.51098 107.37422 48.444679 
C 107.30792 48.378378 107.217984 48.341126 107.12422 48.341126 
C 107.030457 48.341126 106.940521 48.378378 106.87422 48.444679 
C 106.80792 48.51098 106.770667 48.600916 106.770667 48.694679 
C 106.770667 48.788443 106.80792 48.878378 106.87422 48.944679 
C 106.940521 49.01098 107.030457 49.048233 107.12422 49.048233 
z
" clip-path="url(#p46fa4e7b84)" style="fill: #fcfbfd; stroke: #00ff00; stroke-width: 2"/>
    <path d="M 43.032833 52.923255 
C 43.126597 52.923255 43.216533 52.886003 43.282833 52.819702 
C 43.349134 52.753401 43.386387 52.663465 43.386387 52.569702 
C 43.386387 52.475938 43.349134 52.386003 43.282833 52.319702 
C 43.216533 52.253401 43.126597 52.216148 43.032833 52.216148 
C 42.93907 52.216148 42.849134 52.253401 42.782833 52.319702 
C 42.716533 52.386003 42.67928 52.475938 42.67928 52.569702 
C 42.67928 52.663465 42.716533 52.753401 42.782833 52.819702 
C 42.849134 52.886003 42.93907 52.923255 43.032833 52.923255 
z
" clip-path="url(#p46fa4e7b84)" style="fill: #fcfbfd; stroke: #00ff00; stroke-width: 2"/>
    <path d="M 103.415925 61.797874 
C 104.353559 61.797874 105.252917 61.425347 105.915925 60.76234 
C 106.578932 60.099332 106.951459 59.199974 106.951459 58.26234 
C 106.951459 57.324705 106.578932 56.425347 105.915925 55.76234 
C 105.252917 55.099332 104.353559 54.726806 103.415925 54.726806 
C 102.47829 54.726806 101.578932 55.099332 100.915925 55.76234 
C 100.252917 56.425347 99.880391 57.324705 99.880391 58.26234 
C 99.880391 59.199974 100.252917 60.099332 100.915925 60.76234 
C 101.578932 61.425347 102.47829 61.797874 103.415925 61.797874 
z
" clip-path="url(#p46fa4e7b84)" style="fill: #3f007d; stroke: #00ff00; stroke-width: 2"/>
    <path d="M 50.10111 61.932386 
C 50.194873 61.932386 50.284809 61.895134 50.35111 61.828833 
C 50.417411 61.762532 50.454663 61.672596 50.454663 61.578833 
C 50.454663 61.485069 50.417411 61.395134 50.35111 61.328833 
C 50.284809 61.262532 50.194873 61.225279 50.10111 61.225279 
C 50.007347 61.225279 49.917411 61.262532 49.85111 61.328833 
C 49.784809 61.395134 49.747557 61.485069 49.747557 61.578833 
C 49.747557 61.672596 49.784809 61.762532 49.85111 61.828833 
C 49.917411 61.895134 50.007347 61.932386 50.10111 61.932386 
z
" clip-path="url(#p46fa4e7b84)" style="fill: #fcfbfd; stroke: #ff0000; stroke-width: 2"/>
    <path d="M 88.282624 65.623507 
C 88.376387 65.623507 88.466323 65.586254 88.532624 65.519954 
C 88.598925 65.453653 88.636177 65.363717 88.636177 65.269954 
C 88.636177 65.17619 88.598925 65.086254 88.532624 65.019954 
C 88.466323 64.953653 88.376387 64.9164 88.282624 64.9164 
C 88.18886 64.9164 88.098925 64.953653 88.032624 65.019954 
C 87.966323 65.086254 87.92907 65.17619 87.92907 65.269954 
C 87.92907 65.363717 87.966323 65.453653 88.032624 65.519954 
C 88.098925 65.586254 88.18886 65.623507 88.282624 65.623507 
z
" clip-path="url(#p46fa4e7b84)" style="fill: #fcfbfd; stroke: #00ff00; stroke-width: 2"/>
    <path d="M 67.556853 66.936187 
C 67.650617 66.936187 67.740553 66.898935 67.806853 66.832634 
C 67.873154 66.766333 67.910407 66.676397 67.910407 66.582634 
C 67.910407 66.48887 67.873154 66.398935 67.806853 66.332634 
C 67.740553 66.266333 67.650617 66.229081 67.556853 66.229081 
C 67.46309 66.229081 67.373154 66.266333 67.306853 66.332634 
C 67.240553 66.398935 67.2033 66.48887 67.2033 66.582634 
C 67.2033 66.676397 67.240553 66.766333 67.306853 66.832634 
C 67.373154 66.898935 67.46309 66.936187 67.556853 66.936187 
z
" clip-path="url(#p46fa4e7b84)" style="fill: #fcfbfd; stroke: #00ff00; stroke-width: 2"/>
   </g>
   <g id="patch_13">
    <path d="M 59.097361 74.496933 
Q 80.164216 76.606282 101.231071 78.715632 
" clip-path="url(#p46fa4e7b84)" style="fill: none; opacity: 0.731579; stroke: #a2a2a2; stroke-width: 0.463158; stroke-linecap: round"/>
   </g>
   <g id="patch_14">
    <path d="M 99.692718 61.918169 
Q 99.048798 61.226562 98.404877 60.534956 
" clip-path="url(#p46fa4e7b84)" style="fill: none; stroke: #000000; stroke-linecap: round"/>
   </g>
   <g id="patch_15">
    <path d="M 105.21995 67.854721 
Q 105.86387 68.546327 106.507791 69.237934 
" clip-path="url(#p46fa4e7b84)" style="fill: none; stroke: #000000; stroke-linecap: round"/>
   </g>
   <g id="patch_16">
    <path d="M 105.60297 89.896607 
Q 105.758878 89.448559 105.914786 89.000511 
" clip-path="url(#p46fa4e7b84)" style="fill: none; opacity: 0.801805; stroke: #797979; stroke-width: 0.60361; stroke-linecap: round"/>
   </g>
   <g id="patch_17">
    <path d="M 100.130996 89.582982 
Q 99.60032 87.214485 99.069644 84.845987 
" clip-path="url(#p46fa4e7b84)" style="fill: none; opacity: 0.938503; stroke: #242424; stroke-width: 0.877005; stroke-linecap: round"/>
   </g>
   <g id="patch_18">
    <path d="M 102.628862 98.4436 
Q 102.472954 98.891648 102.317046 99.339697 
" clip-path="url(#p46fa4e7b84)" style="fill: none; opacity: 0.801805; stroke: #797979; stroke-width: 0.60361; stroke-linecap: round"/>
   </g>
   <g id="patch_19">
    <path d="M 100.162785 89.724864 
Q 100.693461 92.093361 101.224137 94.461859 
" clip-path="url(#p46fa4e7b84)" style="fill: none; opacity: 0.938503; stroke: #242424; stroke-width: 0.877005; stroke-linecap: round"/>
   </g>
   <g id="patch_20">
    <path d="M 99.88644 51.85406 
Q 99.255755 51.19732 98.625069 50.540579 
" clip-path="url(#p46fa4e7b84)" style="fill: none; stroke: #000000; stroke-linecap: round"/>
   </g>
   <g id="patch_21">
    <path d="M 105.551619 57.753273 
Q 106.182305 58.410014 106.812991 59.066754 
" clip-path="url(#p46fa4e7b84)" style="fill: none; stroke: #000000; stroke-linecap: round"/>
   </g>
   <g id="patch_22">
    <path d="M 44.128875 72.423447 
Q 43.896997 72.850857 43.665119 73.278268 
" clip-path="url(#p46fa4e7b84)" style="fill: none; opacity: 0.675127; stroke: #c3c3c3; stroke-width: 0.350254; stroke-linecap: round"/>
   </g>
   <g id="patch_23">
    <path d="M 48.434271 64.487509 
Q 48.666149 64.060099 48.898027 63.632688 
" clip-path="url(#p46fa4e7b84)" style="fill: none; opacity: 0.675127; stroke: #c3c3c3; stroke-width: 0.350254; stroke-linecap: round"/>
   </g>
   <g id="patch_24">
    <path d="M 92.340931 100.03666 
Q 74.211624 101.303231 56.082317 102.569802 
" clip-path="url(#p46fa4e7b84)" style="fill: none; opacity: 0.870989; stroke: #545454; stroke-width: 0.741979; stroke-linecap: round"/>
   </g>
   <g id="patch_25">
    <path d="M 96.221664 91.461423 
Q 76.080874 96.574812 55.940085 101.688202 
" clip-path="url(#p46fa4e7b84)" style="fill: none; opacity: 0.779746; stroke: #868686; stroke-width: 0.559492; stroke-linecap: round"/>
   </g>
   <g id="patch_26">
    <path d="M 88.994747 84.365137 
Q 72.289973 92.54269 55.585199 100.720243 
" clip-path="url(#p46fa4e7b84)" style="fill: none; stroke: #000000; stroke-linecap: round"/>
   </g>
   <g id="patch_27">
    <path d="M 61.071393 102.221249 
Q 79.2007 100.954678 97.330007 99.688107 
" clip-path="url(#p46fa4e7b84)" style="fill: none; opacity: 0.870989; stroke: #545454; stroke-width: 0.741979; stroke-linecap: round"/>
   </g>
   <g id="patch_28">
    <path d="M 60.7884 100.4573 
Q 80.92919 95.343911 101.069979 90.230521 
" clip-path="url(#p46fa4e7b84)" style="fill: none; opacity: 0.779746; stroke: #868686; stroke-width: 0.559492; stroke-linecap: round"/>
   </g>
   <g id="patch_29">
    <path d="M 60.077266 98.521224 
Q 76.78204 90.343671 93.486814 82.166118 
" clip-path="url(#p46fa4e7b84)" style="fill: none; stroke: #000000; stroke-linecap: round"/>
   </g>
   <g id="patch_30">
    <path d="M 100.333644 79.630698 
Q 99.82414 77.424277 99.314636 75.217856 
" clip-path="url(#p46fa4e7b84)" style="fill: none; opacity: 0.944737; stroke: #212121; stroke-width: 0.889474; stroke-linecap: round"/>
   </g>
   <g id="patch_31">
    <path d="M 92.998075 86.526876 
Q 73.469376 80.725739 53.940678 74.924602 
" clip-path="url(#p46fa4e7b84)" style="fill: none; opacity: 0.889474; stroke: #474747; stroke-width: 0.778947; stroke-linecap: round"/>
   </g>
   <g id="patch_32">
    <path d="M 100.438794 80.086051 
Q 100.948298 82.292472 101.457802 84.498893 
" clip-path="url(#p46fa4e7b84)" style="fill: none; opacity: 0.944737; stroke: #212121; stroke-width: 0.889474; stroke-linecap: round"/>
   </g>
   <g id="patch_33">
    <path d="M 58.732719 76.348112 
Q 78.261418 82.149249 97.790116 87.950386 
" clip-path="url(#p46fa4e7b84)" style="fill: none; opacity: 0.889474; stroke: #474747; stroke-width: 0.778947; stroke-linecap: round"/>
   </g>
   <g id="patch_34">
    <path d="M 100.079796 41.594012 
Q 99.464646 40.97395 98.849497 40.353889 
" clip-path="url(#p46fa4e7b84)" style="fill: none; opacity: 0.951965; stroke: #1c1c1c; stroke-width: 0.90393; stroke-linecap: round"/>
   </g>
   <g id="patch_35">
    <path d="M 97.168279 47.783996 
Q 75.267423 45.780697 53.366567 43.777398 
" clip-path="url(#p46fa4e7b84)" style="fill: none; opacity: 0.757642; stroke: #929292; stroke-width: 0.515284; stroke-linecap: round"/>
   </g>
   <g id="patch_36">
    <path d="M 105.893921 47.454557 
Q 106.509071 48.074618 107.12422 48.694679 
" clip-path="url(#p46fa4e7b84)" style="fill: none; opacity: 0.951965; stroke: #1c1c1c; stroke-width: 0.90393; stroke-linecap: round"/>
   </g>
   <g id="patch_37">
    <path d="M 58.341184 44.232432 
Q 80.24204 46.235732 102.142896 48.239031 
" clip-path="url(#p46fa4e7b84)" style="fill: none; opacity: 0.757642; stroke: #929292; stroke-width: 0.515284; stroke-linecap: round"/>
   </g>
   <g id="patch_38">
    <path d="M 106.294683 69.819821 
Q 106.401237 69.528877 106.507791 69.237934 
" clip-path="url(#p46fa4e7b84)" style="fill: none; opacity: 0.69797; stroke: #b6b6b6; stroke-width: 0.395939; stroke-linecap: round"/>
   </g>
   <g id="patch_39">
    <path d="M 100.537846 69.485107 
Q 100.05095 67.442043 99.564054 65.398978 
" clip-path="url(#p46fa4e7b84)" style="fill: none; opacity: 0.944162; stroke: #212121; stroke-width: 0.888325; stroke-linecap: round"/>
   </g>
   <g id="patch_40">
    <path d="M 93.248964 76.436918 
Q 73.475928 70.728392 53.702892 65.019865 
" clip-path="url(#p46fa4e7b84)" style="fill: none; opacity: 0.860406; stroke: #5a5a5a; stroke-width: 0.720812; stroke-linecap: round"/>
   </g>
   <g id="patch_41">
    <path d="M 103.068642 78.628472 
Q 102.962089 78.919416 102.855535 79.210359 
" clip-path="url(#p46fa4e7b84)" style="fill: none; opacity: 0.69797; stroke: #b6b6b6; stroke-width: 0.395939; stroke-linecap: round"/>
   </g>
   <g id="patch_42">
    <path d="M 100.722566 70.260209 
Q 101.209462 72.303273 101.696358 74.346337 
" clip-path="url(#p46fa4e7b84)" style="fill: none; opacity: 0.944162; stroke: #212121; stroke-width: 0.888325; stroke-linecap: round"/>
   </g>
   <g id="patch_43">
    <path d="M 58.504597 66.40613 
Q 78.277633 72.114656 98.050669 77.823182 
" clip-path="url(#p46fa4e7b84)" style="fill: none; opacity: 0.860406; stroke: #5a5a5a; stroke-width: 0.720812; stroke-linecap: round"/>
   </g>
   <g id="patch_44">
    <path d="M 89.329226 64.736921 
Q 72.236341 72.650811 55.143455 80.564701 
" clip-path="url(#p46fa4e7b84)" style="fill: none; opacity: 0.895939; stroke: #434343; stroke-width: 0.791878; stroke-linecap: round"/>
   </g>
   <g id="patch_45">
    <path d="M 59.683849 78.462529 
Q 76.776735 70.548639 93.86962 62.634749 
" clip-path="url(#p46fa4e7b84)" style="fill: none; opacity: 0.895939; stroke: #434343; stroke-width: 0.791878; stroke-linecap: round"/>
   </g>
   <g id="patch_46">
    <path d="M 106.655761 59.484388 
Q 106.734376 59.275571 106.812991 59.066754 
" clip-path="url(#p46fa4e7b84)" style="fill: none; opacity: 0.726027; stroke: #a5a5a5; stroke-width: 0.452055; stroke-linecap: round"/>
   </g>
   <g id="patch_47">
    <path d="M 100.741421 59.132669 
Q 100.281052 57.263638 99.820683 55.394607 
" clip-path="url(#p46fa4e7b84)" style="fill: none; opacity: 0.915525; stroke: #353535; stroke-width: 0.83105; stroke-linecap: round"/>
   </g>
   <g id="patch_48">
    <path d="M 93.504913 66.144167 
Q 73.482654 60.534256 53.460395 54.924344 
" clip-path="url(#p46fa4e7b84)" style="fill: none; opacity: 0.771689; stroke: #8a8a8a; stroke-width: 0.543379; stroke-linecap: round"/>
   </g>
   <g id="patch_49">
    <path d="M 103.29014 68.424141 
Q 103.211524 68.632958 103.132909 68.841775 
" clip-path="url(#p46fa4e7b84)" style="fill: none; opacity: 0.726027; stroke: #a5a5a5; stroke-width: 0.452055; stroke-linecap: round"/>
   </g>
   <g id="patch_50">
    <path d="M 101.016557 60.249685 
Q 101.476926 62.118717 101.937295 63.987748 
" clip-path="url(#p46fa4e7b84)" style="fill: none; opacity: 0.915525; stroke: #353535; stroke-width: 0.83105; stroke-linecap: round"/>
   </g>
   <g id="patch_51">
    <path d="M 58.272098 56.272505 
Q 78.294356 61.882416 98.316615 67.492328 
" clip-path="url(#p46fa4e7b84)" style="fill: none; opacity: 0.771689; stroke: #8a8a8a; stroke-width: 0.543379; stroke-linecap: round"/>
   </g>
   <g id="patch_52">
    <path d="M 93.662255 93.88612 
Q 93.007008 94.217496 92.351761 94.548873 
" clip-path="url(#p46fa4e7b84)" style="fill: none; opacity: 0.760526; stroke: #909090; stroke-width: 0.521053; stroke-linecap: round"/>
   </g>
   <g id="patch_53">
    <path d="M 94.562001 79.661848 
Q 92.132648 85.904313 89.703295 92.146778 
" clip-path="url(#p46fa4e7b84)" style="fill: none; opacity: 0.755263; stroke: #939393; stroke-width: 0.510526; stroke-linecap: round"/>
   </g>
   <g id="patch_54">
    <path d="M 96.811821 92.293298 
Q 97.467068 91.961922 98.122316 91.630545 
" clip-path="url(#p46fa4e7b84)" style="fill: none; opacity: 0.760526; stroke: #909090; stroke-width: 0.521053; stroke-linecap: round"/>
   </g>
   <g id="patch_55">
    <path d="M 91.517246 87.48565 
Q 93.946599 81.243185 96.375952 75.000721 
" clip-path="url(#p46fa4e7b84)" style="fill: none; opacity: 0.755263; stroke: #939393; stroke-width: 0.510526; stroke-linecap: round"/>
   </g>
   <g id="patch_56">
    <path d="M 52.453684 88.624209 
Q 58.001306 92.086271 63.548927 95.548333 
" clip-path="url(#p46fa4e7b84)" style="fill: none; opacity: 0.652632; stroke: #cdcdcd; stroke-width: 0.305263; stroke-linecap: round"/>
   </g>
   <g id="patch_57">
    <path d="M 59.309931 92.902935 
Q 53.76231 89.440873 48.214688 85.978811 
" clip-path="url(#p46fa4e7b84)" style="fill: none; opacity: 0.652632; stroke: #cdcdcd; stroke-width: 0.305263; stroke-linecap: round"/>
   </g>
   <g id="patch_58">
    <path d="M 89.501198 54.64022 
Q 72.209666 62.409845 54.918134 70.179471 
" clip-path="url(#p46fa4e7b84)" style="fill: none; opacity: 0.746575; stroke: #999999; stroke-width: 0.493151; stroke-linecap: round"/>
   </g>
   <g id="patch_59">
    <path d="M 49.558802 63.534894 
Q 49.729365 65.392118 49.899928 67.249343 
" clip-path="url(#p46fa4e7b84)" style="fill: none; opacity: 0.780822; stroke: #858585; stroke-width: 0.561644; stroke-linecap: round"/>
   </g>
   <g id="patch_60">
    <path d="M 49.40805 70.981922 
Q 49.882641 71.605375 50.357231 72.228827 
" clip-path="url(#p46fa4e7b84)" style="fill: none; opacity: 0.732877; stroke: #a2a2a2; stroke-width: 0.465753; stroke-linecap: round"/>
   </g>
   <g id="patch_61">
    <path d="M 59.481101 68.129187 
Q 76.772634 60.359562 94.064166 52.589936 
" clip-path="url(#p46fa4e7b84)" style="fill: none; opacity: 0.746575; stroke: #999999; stroke-width: 0.493151; stroke-linecap: round"/>
   </g>
   <g id="patch_62">
    <path d="M 49.44253 62.268831 
Q 49.271967 60.411606 49.101404 58.554382 
" clip-path="url(#p46fa4e7b84)" style="fill: none; opacity: 0.780822; stroke: #858585; stroke-width: 0.561644; stroke-linecap: round"/>
   </g>
   <g id="patch_63">
    <path d="M 44.301285 64.273347 
Q 43.826695 63.649894 43.352104 63.026441 
" clip-path="url(#p46fa4e7b84)" style="fill: none; opacity: 0.732877; stroke: #a2a2a2; stroke-width: 0.465753; stroke-linecap: round"/>
   </g>
   <g id="patch_64">
    <path d="M 100.944301 48.569216 
Q 100.514191 46.882426 100.084081 45.195637 
" clip-path="url(#p46fa4e7b84)" style="fill: none; stroke: #000000; stroke-linecap: round"/>
   </g>
   <g id="patch_65">
    <path d="M 93.766074 55.642447 
Q 73.489562 50.137463 53.21305 44.632478 
" clip-path="url(#p46fa4e7b84)" style="fill: none; opacity: 0.90393; stroke: #3d3d3d; stroke-width: 0.80786; stroke-linecap: round"/>
   </g>
   <g id="patch_66">
    <path d="M 101.32112 50.047013 
Q 101.75123 51.733802 102.18134 53.420592 
" clip-path="url(#p46fa4e7b84)" style="fill: none; stroke: #000000; stroke-linecap: round"/>
   </g>
   <g id="patch_67">
    <path d="M 58.035093 45.941642 
Q 78.311606 51.446627 98.588118 56.951611 
" clip-path="url(#p46fa4e7b84)" style="fill: none; opacity: 0.90393; stroke: #3d3d3d; stroke-width: 0.80786; stroke-linecap: round"/>
   </g>
   <g id="patch_68">
    <path d="M 53.245603 76.135761 
Q 68.235901 80.606795 83.2262 85.077829 
" clip-path="url(#p46fa4e7b84)" style="fill: none; opacity: 0.65736; stroke: #cbcbcb; stroke-width: 0.314721; stroke-linecap: round"/>
   </g>
   <g id="patch_69">
    <path d="M 78.438026 83.6497 
Q 63.447728 79.178666 48.45743 74.707631 
" clip-path="url(#p46fa4e7b84)" style="fill: none; opacity: 0.65736; stroke: #cbcbcb; stroke-width: 0.314721; stroke-linecap: round"/>
   </g>
   <g id="patch_70">
    <path d="M 52.211136 78.464589 
Q 57.826337 81.872286 63.441538 85.279983 
" clip-path="url(#p46fa4e7b84)" style="fill: none; opacity: 0.715736; stroke: #ababab; stroke-width: 0.431472; stroke-linecap: round"/>
   </g>
   <g id="patch_71">
    <path d="M 59.168903 82.687049 
Q 53.553702 79.279352 47.938501 75.871655 
" clip-path="url(#p46fa4e7b84)" style="fill: none; opacity: 0.715736; stroke: #ababab; stroke-width: 0.431472; stroke-linecap: round"/>
   </g>
   <g id="patch_72">
    <path d="M 93.435667 58.88317 
Q 74.263881 60.075767 55.092096 61.268364 
" clip-path="url(#p46fa4e7b84)" style="fill: none; opacity: 0.868996; stroke: #555555; stroke-width: 0.737991; stroke-linecap: round"/>
   </g>
   <g id="patch_73">
    <path d="M 89.682396 44.345225 
Q 72.183187 51.964344 54.683977 59.583462 
" clip-path="url(#p46fa4e7b84)" style="fill: none; opacity: 0.9869; stroke: #070707; stroke-width: 0.973799; stroke-linecap: round"/>
   </g>
   <g id="patch_74">
    <path d="M 60.081367 60.958003 
Q 79.253153 59.765405 98.424939 58.572808 
" clip-path="url(#p46fa4e7b84)" style="fill: none; opacity: 0.868996; stroke: #555555; stroke-width: 0.737991; stroke-linecap: round"/>
   </g>
   <g id="patch_75">
    <path d="M 59.268211 57.587497 
Q 76.76742 49.968378 94.266629 42.34926 
" clip-path="url(#p46fa4e7b84)" style="fill: none; opacity: 0.9869; stroke: #070707; stroke-width: 0.973799; stroke-linecap: round"/>
   </g>
   <g id="patch_76">
    <path d="M 51.969698 68.104948 
Q 57.647839 71.451181 63.325981 74.797414 
" clip-path="url(#p46fa4e7b84)" style="fill: none; opacity: 0.634703; stroke: #d5d5d5; stroke-width: 0.269406; stroke-linecap: round"/>
   </g>
   <g id="patch_77">
    <path d="M 59.019108 72.259295 
Q 53.340967 68.913062 47.662825 65.566829 
" clip-path="url(#p46fa4e7b84)" style="fill: none; opacity: 0.634703; stroke: #d5d5d5; stroke-width: 0.269406; stroke-linecap: round"/>
   </g>
   <g id="patch_78">
    <path d="M 52.663328 55.272691 
Q 68.066325 59.595848 83.469323 63.919005 
" clip-path="url(#p46fa4e7b84)" style="fill: none; opacity: 0.737991; stroke: #9e9e9e; stroke-width: 0.475983; stroke-linecap: round"/>
   </g>
   <g id="patch_79">
    <path d="M 78.652129 62.566964 
Q 63.249132 58.243807 47.846134 53.92065 
" clip-path="url(#p46fa4e7b84)" style="fill: none; opacity: 0.737991; stroke: #9e9e9e; stroke-width: 0.475983; stroke-linecap: round"/>
   </g>
   <g id="patch_80">
    <path d="M 77.941441 45.090313 
Q 73.836157 53.586758 69.730873 62.083204 
" clip-path="url(#p46fa4e7b84)" style="fill: none; opacity: 0.687773; stroke: #bebebe; stroke-width: 0.375546; stroke-linecap: round"/>
   </g>
   <g id="patch_81">
    <path d="M 51.717426 57.532045 
Q 57.465792 60.81664 63.214159 64.101235 
" clip-path="url(#p46fa4e7b84)" style="fill: none; opacity: 0.842795; stroke: #636363; stroke-width: 0.68559; stroke-linecap: round"/>
   </g>
   <g id="patch_82">
    <path d="M 71.908199 57.576931 
Q 76.013483 49.080485 80.118767 40.58404 
" clip-path="url(#p46fa4e7b84)" style="fill: none; opacity: 0.687773; stroke: #bebebe; stroke-width: 0.375546; stroke-linecap: round"/>
   </g>
   <g id="patch_83">
    <path d="M 58.872261 61.620291 
Q 53.123894 58.335696 47.375528 55.051101 
" clip-path="url(#p46fa4e7b84)" style="fill: none; opacity: 0.842795; stroke: #636363; stroke-width: 0.68559; stroke-linecap: round"/>
   </g>
  </g>
 </g>
 <defs>
  <clipPath id="p46fa4e7b84">
   <rect x="18.36" y="17.28" width="110.88" height="110.88"/>
  </clipPath>
 </defs>
</svg>
