<?xml version="1.0" encoding="utf-8" standalone="no"?>
<!DOCTYPE svg PUBLIC "-//W3C//DTD SVG 1.1//EN"
  "http://www.w3.org/Graphics/SVG/1.1/DTD/svg11.dtd">
<svg xmlns:xlink="http://www.w3.org/1999/xlink" width="144pt" height="144pt" viewBox="0 0 144 144" xmlns="http://www.w3.org/2000/svg" version="1.1">
 <metadata>
  <rdf:RDF xmlns:dc="http://purl.org/dc/elements/1.1/" xmlns:cc="http://creativecommons.org/ns#" xmlns:rdf="http://www.w3.org/1999/02/22-rdf-syntax-ns#">
   <cc:Work>
    <dc:type rdf:resource="http://purl.org/dc/dcmitype/StillImage"/>
    <dc:date>2025-06-03T17:18:18.317209</dc:date>
    <dc:format>image/svg+xml</dc:format>
    <dc:creator>
     <cc:Agent>
      <dc:title>Matplotlib v3.9.2, https://matplotlib.org/</dc:title>
     </cc:Agent>
    </dc:creator>
   </cc:Work>
  </rdf:RDF>
 </metadata>
 <defs>
  <style type="text/css">*{stroke-linejoin: round; stroke-linecap: butt}</style>
 </defs>
 <g id="figure_1">
  <g id="patch_1">
   <path d="M 0 144 
L 144 144 
L 144 0 
L 0 0 
z
" style="fill: #ffffff"/>
  </g>
  <g id="axes_1">
   <g id="patch_2">
    <path d="M 18 128.16 
L 129.6 128.16 
L 129.6 17.28 
L 18 17.28 
z
" style="fill: #ffffff"/>
   </g>
   <g id="matplotlib.axis_1">
    <g id="xtick_1">
     <g id="line2d_1">
      <defs>
       <path id="m71b20d9b69" d="M 0 0 
L 0 3.5 
" style="stroke: #000000; stroke-width: 0.8"/>
      </defs>
      <g>
       <use xlink:href="#m71b20d9b69" x="18" y="128.16" style="stroke: #000000; stroke-width: 0.8"/>
      </g>
     </g>
     <g id="text_1">
      <!-- 0.0 -->
      <g transform="translate(10.048437 142.758438) scale(0.1 -0.1)">
       <defs>
        <path id="DejaVuSerif-30" d="M 2034 219 
Q 2513 219 2750 744 
Q 2988 1269 2988 2328 
Q 2988 3391 2750 3916 
Q 2513 4441 2034 4441 
Q 1556 4441 1318 3916 
Q 1081 3391 1081 2328 
Q 1081 1269 1318 744 
Q 1556 219 2034 219 
z
M 2034 -91 
Q 1275 -91 848 546 
Q 422 1184 422 2328 
Q 422 3475 848 4112 
Q 1275 4750 2034 4750 
Q 2797 4750 3222 4112 
Q 3647 3475 3647 2328 
Q 3647 1184 3222 546 
Q 2797 -91 2034 -91 
z
" transform="scale(0.015625)"/>
        <path id="DejaVuSerif-2e" d="M 603 325 
Q 603 500 722 622 
Q 841 744 1019 744 
Q 1191 744 1312 622 
Q 1434 500 1434 325 
Q 1434 153 1312 31 
Q 1191 -91 1019 -91 
Q 841 -91 722 29 
Q 603 150 603 325 
z
" transform="scale(0.015625)"/>
       </defs>
       <use xlink:href="#DejaVuSerif-30"/>
       <use xlink:href="#DejaVuSerif-2e" x="63.623047"/>
       <use xlink:href="#DejaVuSerif-30" x="95.410156"/>
      </g>
     </g>
    </g>
    <g id="xtick_2">
     <g id="line2d_2">
      <g>
       <use xlink:href="#m71b20d9b69" x="73.8" y="128.16" style="stroke: #000000; stroke-width: 0.8"/>
      </g>
     </g>
     <g id="text_2">
      <!-- 0.5 -->
      <g transform="translate(65.848438 142.758438) scale(0.1 -0.1)">
       <defs>
        <path id="DejaVuSerif-35" d="M 3219 4666 
L 3219 4153 
L 1081 4153 
L 1081 2816 
Q 1244 2928 1461 2984 
Q 1678 3041 1947 3041 
Q 2703 3041 3140 2622 
Q 3578 2203 3578 1478 
Q 3578 738 3136 323 
Q 2694 -91 1894 -91 
Q 1572 -91 1234 -12 
Q 897 66 544 225 
L 544 1131 
L 897 1131 
Q 925 688 1179 453 
Q 1434 219 1894 219 
Q 2388 219 2653 544 
Q 2919 869 2919 1478 
Q 2919 2084 2655 2407 
Q 2391 2731 1894 2731 
Q 1613 2731 1398 2631 
Q 1184 2531 1019 2322 
L 750 2322 
L 750 4666 
L 3219 4666 
z
" transform="scale(0.015625)"/>
       </defs>
       <use xlink:href="#DejaVuSerif-30"/>
       <use xlink:href="#DejaVuSerif-2e" x="63.623047"/>
       <use xlink:href="#DejaVuSerif-35" x="95.410156"/>
      </g>
     </g>
    </g>
    <g id="xtick_3">
     <g id="line2d_3">
      <g>
       <use xlink:href="#m71b20d9b69" x="129.6" y="128.16" style="stroke: #000000; stroke-width: 0.8"/>
      </g>
     </g>
     <g id="text_3">
      <!-- 1.0 -->
      <g transform="translate(121.648438 142.758438) scale(0.1 -0.1)">
       <defs>
        <path id="DejaVuSerif-31" d="M 909 0 
L 909 331 
L 1722 331 
L 1722 4213 
L 781 3603 
L 781 4013 
L 1919 4750 
L 2350 4750 
L 2350 331 
L 3163 331 
L 3163 0 
L 909 0 
z
" transform="scale(0.015625)"/>
       </defs>
       <use xlink:href="#DejaVuSerif-31"/>
       <use xlink:href="#DejaVuSerif-2e" x="63.623047"/>
       <use xlink:href="#DejaVuSerif-30" x="95.410156"/>
      </g>
     </g>
    </g>
   </g>
   <g id="matplotlib.axis_2">
    <g id="ytick_1">
     <g id="line2d_4">
      <defs>
       <path id="maba02a551f" d="M 0 0 
L -3.5 0 
" style="stroke: #000000; stroke-width: 0.8"/>
      </defs>
      <g>
       <use xlink:href="#maba02a551f" x="18" y="128.16" style="stroke: #000000; stroke-width: 0.8"/>
      </g>
     </g>
     <g id="text_4">
      <!-- 0.0 -->
      <g transform="translate(-4.903125 131.959219) scale(0.1 -0.1)">
       <use xlink:href="#DejaVuSerif-30"/>
       <use xlink:href="#DejaVuSerif-2e" x="63.623047"/>
       <use xlink:href="#DejaVuSerif-30" x="95.410156"/>
      </g>
     </g>
    </g>
    <g id="ytick_2">
     <g id="line2d_5">
      <g>
       <use xlink:href="#maba02a551f" x="18" y="105.984" style="stroke: #000000; stroke-width: 0.8"/>
      </g>
     </g>
     <g id="text_5">
      <!-- 0.2 -->
      <g transform="translate(-4.903125 109.783219) scale(0.1 -0.1)">
       <defs>
        <path id="DejaVuSerif-32" d="M 819 3553 
L 469 3553 
L 469 4384 
Q 803 4563 1142 4656 
Q 1481 4750 1806 4750 
Q 2534 4750 2956 4397 
Q 3378 4044 3378 3438 
Q 3378 2753 2422 1800 
Q 2347 1728 2309 1691 
L 1131 513 
L 3078 513 
L 3078 1088 
L 3444 1088 
L 3444 0 
L 434 0 
L 434 341 
L 1850 1753 
Q 2319 2222 2519 2614 
Q 2719 3006 2719 3438 
Q 2719 3909 2473 4175 
Q 2228 4441 1797 4441 
Q 1350 4441 1106 4219 
Q 863 3997 819 3553 
z
" transform="scale(0.015625)"/>
       </defs>
       <use xlink:href="#DejaVuSerif-30"/>
       <use xlink:href="#DejaVuSerif-2e" x="63.623047"/>
       <use xlink:href="#DejaVuSerif-32" x="95.410156"/>
      </g>
     </g>
    </g>
    <g id="ytick_3">
     <g id="line2d_6">
      <g>
       <use xlink:href="#maba02a551f" x="18" y="83.808" style="stroke: #000000; stroke-width: 0.8"/>
      </g>
     </g>
     <g id="text_6">
      <!-- 0.4 -->
      <g transform="translate(-4.903125 87.607219) scale(0.1 -0.1)">
       <defs>
        <path id="DejaVuSerif-34" d="M 2234 1581 
L 2234 4063 
L 641 1581 
L 2234 1581 
z
M 3609 0 
L 1484 0 
L 1484 331 
L 2234 331 
L 2234 1247 
L 197 1247 
L 197 1588 
L 2241 4750 
L 2859 4750 
L 2859 1581 
L 3750 1581 
L 3750 1247 
L 2859 1247 
L 2859 331 
L 3609 331 
L 3609 0 
z
" transform="scale(0.015625)"/>
       </defs>
       <use xlink:href="#DejaVuSerif-30"/>
       <use xlink:href="#DejaVuSerif-2e" x="63.623047"/>
       <use xlink:href="#DejaVuSerif-34" x="95.410156"/>
      </g>
     </g>
    </g>
    <g id="ytick_4">
     <g id="line2d_7">
      <g>
       <use xlink:href="#maba02a551f" x="18" y="61.632" style="stroke: #000000; stroke-width: 0.8"/>
      </g>
     </g>
     <g id="text_7">
      <!-- 0.6 -->
      <g transform="translate(-4.903125 65.431219) scale(0.1 -0.1)">
       <defs>
        <path id="DejaVuSerif-36" d="M 2094 219 
Q 2534 219 2771 542 
Q 3009 866 3009 1472 
Q 3009 2078 2771 2401 
Q 2534 2725 2094 2725 
Q 1647 2725 1412 2412 
Q 1178 2100 1178 1509 
Q 1178 888 1415 553 
Q 1653 219 2094 219 
z
M 1075 2569 
Q 1288 2803 1556 2918 
Q 1825 3034 2163 3034 
Q 2859 3034 3264 2615 
Q 3669 2197 3669 1472 
Q 3669 763 3233 336 
Q 2797 -91 2069 -91 
Q 1278 -91 853 498 
Q 428 1088 428 2181 
Q 428 3406 931 4078 
Q 1434 4750 2350 4750 
Q 2597 4750 2869 4703 
Q 3141 4656 3425 4563 
L 3425 3794 
L 3072 3794 
Q 3034 4109 2831 4275 
Q 2628 4441 2284 4441 
Q 1678 4441 1381 3981 
Q 1084 3522 1075 2569 
z
" transform="scale(0.015625)"/>
       </defs>
       <use xlink:href="#DejaVuSerif-30"/>
       <use xlink:href="#DejaVuSerif-2e" x="63.623047"/>
       <use xlink:href="#DejaVuSerif-36" x="95.410156"/>
      </g>
     </g>
    </g>
    <g id="ytick_5">
     <g id="line2d_8">
      <g>
       <use xlink:href="#maba02a551f" x="18" y="39.456" style="stroke: #000000; stroke-width: 0.8"/>
      </g>
     </g>
     <g id="text_8">
      <!-- 0.8 -->
      <g transform="translate(-4.903125 43.255219) scale(0.1 -0.1)">
       <defs>
        <path id="DejaVuSerif-38" d="M 2981 1275 
Q 2981 1775 2732 2051 
Q 2484 2328 2034 2328 
Q 1584 2328 1336 2051 
Q 1088 1775 1088 1275 
Q 1088 772 1336 495 
Q 1584 219 2034 219 
Q 2484 219 2732 495 
Q 2981 772 2981 1275 
z
M 2853 3541 
Q 2853 3966 2637 4203 
Q 2422 4441 2034 4441 
Q 1650 4441 1433 4203 
Q 1216 3966 1216 3541 
Q 1216 3113 1433 2875 
Q 1650 2638 2034 2638 
Q 2422 2638 2637 2875 
Q 2853 3113 2853 3541 
z
M 2516 2484 
Q 3047 2413 3344 2092 
Q 3641 1772 3641 1275 
Q 3641 619 3225 264 
Q 2809 -91 2034 -91 
Q 1263 -91 845 264 
Q 428 619 428 1275 
Q 428 1772 725 2092 
Q 1022 2413 1556 2484 
Q 1084 2569 832 2842 
Q 581 3116 581 3541 
Q 581 4103 968 4426 
Q 1356 4750 2034 4750 
Q 2713 4750 3100 4426 
Q 3488 4103 3488 3541 
Q 3488 3116 3236 2842 
Q 2984 2569 2516 2484 
z
" transform="scale(0.015625)"/>
       </defs>
       <use xlink:href="#DejaVuSerif-30"/>
       <use xlink:href="#DejaVuSerif-2e" x="63.623047"/>
       <use xlink:href="#DejaVuSerif-38" x="95.410156"/>
      </g>
     </g>
    </g>
    <g id="ytick_6">
     <g id="line2d_9">
      <g>
       <use xlink:href="#maba02a551f" x="18" y="17.28" style="stroke: #000000; stroke-width: 0.8"/>
      </g>
     </g>
     <g id="text_9">
      <!-- 1.0 -->
      <g transform="translate(-4.903125 21.079219) scale(0.1 -0.1)">
       <use xlink:href="#DejaVuSerif-31"/>
       <use xlink:href="#DejaVuSerif-2e" x="63.623047"/>
       <use xlink:href="#DejaVuSerif-30" x="95.410156"/>
      </g>
     </g>
    </g>
   </g>
   <g id="patch_3">
    <path d="M 18 128.16 
L 18 17.28 
" style="fill: none; stroke: #000000; stroke-width: 0.8; stroke-linejoin: miter; stroke-linecap: square"/>
   </g>
   <g id="patch_4">
    <path d="M 129.6 128.16 
L 129.6 17.28 
" style="fill: none; stroke: #000000; stroke-width: 0.8; stroke-linejoin: miter; stroke-linecap: square"/>
   </g>
   <g id="patch_5">
    <path d="M 18 128.16 
L 129.6 128.16 
" style="fill: none; stroke: #000000; stroke-width: 0.8; stroke-linejoin: miter; stroke-linecap: square"/>
   </g>
   <g id="patch_6">
    <path d="M 18 17.28 
L 129.6 17.28 
" style="fill: none; stroke: #000000; stroke-width: 0.8; stroke-linejoin: miter; stroke-linecap: square"/>
   </g>
  </g>
  <g id="patch_7">
   <path d="M 18.36 128.16 
L 129.24 128.16 
L 129.24 17.28 
L 18.36 17.28 
z
" style="fill: #ffffff"/>
  </g>
  <g id="axes_2">
   <g id="patch_8">
    <path d="M 87.998167 80.628656 
Q 71.190282 81.741211 54.382397 82.853767 
" clip-path="url(#p785d256c52)" style="fill: none; opacity: 0.660377; stroke: #cacaca; stroke-width: 0.320755; stroke-linecap: round"/>
   </g>
   <g id="Path3DCollection_1">
    <path d="M 82.036969 75.69158 
C 82.130732 75.69158 82.220668 75.654328 82.286969 75.588027 
C 82.35327 75.521726 82.390522 75.431791 82.390522 75.338027 
C 82.390522 75.244264 82.35327 75.154328 82.286969 75.088027 
C 82.220668 75.021726 82.130732 74.984474 82.036969 74.984474 
C 81.943205 74.984474 81.85327 75.021726 81.786969 75.088027 
C 81.720668 75.154328 81.683415 75.244264 81.683415 75.338027 
C 81.683415 75.431791 81.720668 75.521726 81.786969 75.588027 
C 81.85327 75.654328 81.943205 75.69158 82.036969 75.69158 
z
" clip-path="url(#p785d256c52)" style="fill: #fff5f0; stroke: #ff0000; stroke-width: 2"/>
    <path d="M 63.769997 76.881398 
C 63.863761 76.881398 63.953697 76.844145 64.019997 76.777844 
C 64.086298 76.711543 64.123551 76.621608 64.123551 76.527844 
C 64.123551 76.434081 64.086298 76.344145 64.019997 76.277844 
C 63.953697 76.211543 63.863761 76.174291 63.769997 76.174291 
C 63.676234 76.174291 63.586298 76.211543 63.519997 76.277844 
C 63.453697 76.344145 63.416444 76.434081 63.416444 76.527844 
C 63.416444 76.621608 63.453697 76.711543 63.519997 76.777844 
C 63.586298 76.844145 63.676234 76.881398 63.769997 76.881398 
z
" clip-path="url(#p785d256c52)" style="fill: #fff5f0; stroke: #00ff00; stroke-width: 2"/>
    <path d="M 97.976735 80.321703 
C 98.070498 80.321703 98.160434 80.28445 98.226735 80.21815 
C 98.293036 80.151849 98.330288 80.061913 98.330288 79.96815 
C 98.330288 79.874386 98.293036 79.78445 98.226735 79.71815 
C 98.160434 79.651849 98.070498 79.614596 97.976735 79.614596 
C 97.882972 79.614596 97.793036 79.651849 97.726735 79.71815 
C 97.660434 79.78445 97.623182 79.874386 97.623182 79.96815 
C 97.623182 80.061913 97.660434 80.151849 97.726735 80.21815 
C 97.793036 80.28445 97.882972 80.321703 97.976735 80.321703 
z
" clip-path="url(#p785d256c52)" style="fill: #fff5f0; stroke: #ff0000; stroke-width: 2"/>
    <path d="M 49.391636 83.537671 
C 49.485399 83.537671 49.575335 83.500419 49.641636 83.434118 
C 49.707936 83.367817 49.745189 83.277881 49.745189 83.184118 
C 49.745189 83.090354 49.707936 83.000419 49.641636 82.934118 
C 49.575335 82.867817 49.485399 82.830565 49.391636 82.830565 
C 49.297872 82.830565 49.207936 82.867817 49.141636 82.934118 
C 49.075335 83.000419 49.038082 83.090354 49.038082 83.184118 
C 49.038082 83.277881 49.075335 83.367817 49.141636 83.434118 
C 49.207936 83.500419 49.297872 83.537671 49.391636 83.537671 
z
" clip-path="url(#p785d256c52)" style="fill: #fff5f0; stroke: #00ff00; stroke-width: 2"/>
    <path d="M 105.914786 89.354064 
C 106.00855 89.354064 106.098485 89.316812 106.164786 89.250511 
C 106.231087 89.18421 106.268339 89.094274 106.268339 89.000511 
C 106.268339 88.906747 106.231087 88.816812 106.164786 88.750511 
C 106.098485 88.68421 106.00855 88.646957 105.914786 88.646957 
C 105.821023 88.646957 105.731087 88.68421 105.664786 88.750511 
C 105.598485 88.816812 105.561233 88.906747 105.561233 89.000511 
C 105.561233 89.094274 105.598485 89.18421 105.664786 89.250511 
C 105.731087 89.316812 105.821023 89.354064 105.914786 89.354064 
z
" clip-path="url(#p785d256c52)" style="fill: #fff5f0; stroke: #00ff00; stroke-width: 2"/>
    <path d="M 44.273099 96.726344 
C 45.210734 96.726344 46.110092 96.353818 46.773099 95.69081 
C 47.436107 95.027802 47.808633 94.128444 47.808633 93.19081 
C 47.808633 92.253175 47.436107 91.353818 46.773099 90.69081 
C 46.110092 90.027802 45.210734 89.655276 44.273099 89.655276 
C 43.335465 89.655276 42.436107 90.027802 41.773099 90.69081 
C 41.110092 91.353818 40.737566 92.253175 40.737566 93.19081 
C 40.737566 94.128444 41.110092 95.027802 41.773099 95.69081 
C 42.436107 96.353818 43.335465 96.726344 44.273099 96.726344 
z
" clip-path="url(#p785d256c52)" style="fill: #67000d; stroke: #00ff00; stroke-width: 2"/>
    <path d="M 102.317046 99.69325 
C 102.410809 99.69325 102.500745 99.655997 102.567046 99.589697 
C 102.633347 99.523396 102.670599 99.43346 102.670599 99.339697 
C 102.670599 99.245933 102.633347 99.155997 102.567046 99.089697 
C 102.500745 99.023396 102.410809 98.986143 102.317046 98.986143 
C 102.223282 98.986143 102.133347 99.023396 102.067046 99.089697 
C 102.000745 99.155997 101.963492 99.245933 101.963492 99.339697 
C 101.963492 99.43346 102.000745 99.523396 102.067046 99.589697 
C 102.133347 99.655997 102.223282 99.69325 102.317046 99.69325 
z
" clip-path="url(#p785d256c52)" style="fill: #fff5f0; stroke: #00ff00; stroke-width: 2"/>
    <path d="M 51.095278 103.271766 
C 51.189042 103.271766 51.278977 103.234513 51.345278 103.168212 
C 51.411579 103.101911 51.448832 103.011976 51.448832 102.918212 
C 51.448832 102.824449 51.411579 102.734513 51.345278 102.668212 
C 51.278977 102.601911 51.189042 102.564659 51.095278 102.564659 
C 51.001515 102.564659 50.911579 102.601911 50.845278 102.668212 
C 50.778977 102.734513 50.741725 102.824449 50.741725 102.918212 
C 50.741725 103.011976 50.778977 103.101911 50.845278 103.168212 
C 50.911579 103.234513 51.001515 103.271766 51.095278 103.271766 
z
" clip-path="url(#p785d256c52)" style="fill: #fff5f0; stroke: #00ff00; stroke-width: 2"/>
    <path d="M 87.764928 107.251234 
C 87.858692 107.251234 87.948627 107.213982 88.014928 107.147681 
C 88.081229 107.08138 88.118482 106.991444 88.118482 106.897681 
C 88.118482 106.803918 88.081229 106.713982 88.014928 106.647681 
C 87.948627 106.58138 87.858692 106.544128 87.764928 106.544128 
C 87.671165 106.544128 87.581229 106.58138 87.514928 106.647681 
C 87.448627 106.713982 87.411375 106.803918 87.411375 106.897681 
C 87.411375 106.991444 87.448627 107.08138 87.514928 107.147681 
C 87.581229 107.213982 87.671165 107.251234 87.764928 107.251234 
z
" clip-path="url(#p785d256c52)" style="fill: #fff5f0; stroke: #ff0000; stroke-width: 2"/>
    <path d="M 67.86666 108.66563 
C 67.960423 108.66563 68.050359 108.628378 68.11666 108.562077 
C 68.182961 108.495776 68.220213 108.40584 68.220213 108.312077 
C 68.220213 108.218313 68.182961 108.128378 68.11666 108.062077 
C 68.050359 107.995776 67.960423 107.958523 67.86666 107.958523 
C 67.772897 107.958523 67.682961 107.995776 67.61666 108.062077 
C 67.550359 108.128378 67.513107 108.218313 67.513107 108.312077 
C 67.513107 108.40584 67.550359 108.495776 67.61666 108.562077 
C 67.682961 108.628378 67.772897 108.66563 67.86666 108.66563 
z
" clip-path="url(#p785d256c52)" style="fill: #fff5f0; stroke: #ff0000; stroke-width: 2"/>
   </g>
   <g id="patch_9">
    <path d="M 59.370204 82.523612 
Q 76.178089 81.411056 92.985974 80.2985 
" clip-path="url(#p785d256c52)" style="fill: none; opacity: 0.660377; stroke: #cacaca; stroke-width: 0.320755; stroke-linecap: round"/>
   </g>
   <g id="Path3DCollection_2">
    <path d="M 82.099153 66.1499 
C 82.192916 66.1499 82.282852 66.112647 82.349153 66.046346 
C 82.415453 65.980045 82.452706 65.89011 82.452706 65.796346 
C 82.452706 65.702583 82.415453 65.612647 82.349153 65.546346 
C 82.282852 65.480045 82.192916 65.442793 82.099153 65.442793 
C 82.005389 65.442793 81.915453 65.480045 81.849153 65.546346 
C 81.782852 65.612647 81.745599 65.702583 81.745599 65.796346 
C 81.745599 65.89011 81.782852 65.980045 81.849153 66.046346 
C 81.915453 66.112647 82.005389 66.1499 82.099153 66.1499 
z
" clip-path="url(#p785d256c52)" style="fill: #f7fbff; stroke: #ff0000; stroke-width: 2"/>
    <path d="M 63.663248 70.499992 
C 64.600883 70.499992 65.500241 70.127465 66.163248 69.464458 
C 66.826256 68.80145 67.198782 67.902092 67.198782 66.964458 
C 67.198782 66.026823 66.826256 65.127465 66.163248 64.464458 
C 65.500241 63.80145 64.600883 63.428924 63.663248 63.428924 
C 62.725614 63.428924 61.826256 63.80145 61.163248 64.464458 
C 60.500241 65.127465 60.127715 66.026823 60.127715 66.964458 
C 60.127715 67.902092 60.500241 68.80145 61.163248 69.464458 
C 61.826256 70.127465 62.725614 70.499992 63.663248 70.499992 
z
" clip-path="url(#p785d256c52)" style="fill: #08306b; stroke: #00ff00; stroke-width: 2"/>
    <path d="M 98.188804 70.695968 
C 98.282568 70.695968 98.372504 70.658715 98.438804 70.592415 
C 98.505105 70.526114 98.542358 70.436178 98.542358 70.342415 
C 98.542358 70.248651 98.505105 70.158715 98.438804 70.092415 
C 98.372504 70.026114 98.282568 69.988861 98.188804 69.988861 
C 98.095041 69.988861 98.005105 70.026114 97.938804 70.092415 
C 97.872504 70.158715 97.835251 70.248651 97.835251 70.342415 
C 97.835251 70.436178 97.872504 70.526114 97.938804 70.592415 
C 98.005105 70.658715 98.095041 70.695968 98.188804 70.695968 
z
" clip-path="url(#p785d256c52)" style="fill: #f7fbff; stroke: #ff0000; stroke-width: 2"/>
    <path d="M 49.14716 77.036188 
C 50.084795 77.036188 50.984152 76.663662 51.64716 76.000654 
C 52.310168 75.337646 52.682694 74.438289 52.682694 73.500654 
C 52.682694 72.56302 52.310168 71.663662 51.64716 71.000654 
C 50.984152 70.337646 50.084795 69.96512 49.14716 69.96512 
C 48.209526 69.96512 47.310168 70.337646 46.64716 71.000654 
C 45.984152 71.663662 45.611626 72.56302 45.611626 73.500654 
C 45.611626 74.438289 45.984152 75.337646 46.64716 76.000654 
C 47.310168 76.663662 48.209526 77.036188 49.14716 77.036188 
z
" clip-path="url(#p785d256c52)" style="fill: #08306b; stroke: #00ff00; stroke-width: 2"/>
    <path d="M 106.208444 82.749533 
C 107.146079 82.749533 108.045437 82.377007 108.708444 81.713999 
C 109.371452 81.050991 109.743978 80.151634 109.743978 79.213999 
C 109.743978 78.276364 109.371452 77.377007 108.708444 76.713999 
C 108.045437 76.050991 107.146079 75.678465 106.208444 75.678465 
C 105.27081 75.678465 104.371452 76.050991 103.708444 76.713999 
C 103.045437 77.377007 102.67291 78.276364 102.67291 79.213999 
C 102.67291 80.151634 103.045437 81.050991 103.708444 81.713999 
C 104.371452 82.377007 105.27081 82.749533 106.208444 82.749533 
z
" clip-path="url(#p785d256c52)" style="fill: #08306b; stroke: #00ff00; stroke-width: 2"/>
    <path d="M 43.972059 86.866679 
C 44.909693 86.866679 45.809051 86.494153 46.472059 85.831145 
C 47.135066 85.168137 47.507593 84.26878 47.507593 83.331145 
C 47.507593 82.393511 47.135066 81.494153 46.472059 80.831145 
C 45.809051 80.168137 44.909693 79.795611 43.972059 79.795611 
C 43.034424 79.795611 42.135066 80.168137 41.472059 80.831145 
C 40.809051 81.494153 40.436525 82.393511 40.436525 83.331145 
C 40.436525 84.26878 40.809051 85.168137 41.472059 85.831145 
C 42.135066 86.494153 43.034424 86.866679 43.972059 86.866679 
z
" clip-path="url(#p785d256c52)" style="fill: #08306b; stroke: #00ff00; stroke-width: 2"/>
    <path d="M 102.583634 92.909868 
C 103.521268 92.909868 104.420626 92.537342 105.083634 91.874334 
C 105.746641 91.211326 106.119168 90.311969 106.119168 89.374334 
C 106.119168 88.4367 105.746641 87.537342 105.083634 86.874334 
C 104.420626 86.211326 103.521268 85.8388 102.583634 85.8388 
C 101.645999 85.8388 100.746641 86.211326 100.083634 86.874334 
C 99.420626 87.537342 99.0481 88.4367 99.0481 89.374334 
C 99.0481 90.311969 99.420626 91.211326 100.083634 91.874334 
C 100.746641 92.537342 101.645999 92.909868 102.583634 92.909868 
z
" clip-path="url(#p785d256c52)" style="fill: #08306b; stroke: #00ff00; stroke-width: 2"/>
    <path d="M 50.854164 93.245791 
C 50.947928 93.245791 51.037863 93.208539 51.104164 93.142238 
C 51.170465 93.075937 51.207717 92.986001 51.207717 92.892238 
C 51.207717 92.798475 51.170465 92.708539 51.104164 92.642238 
C 51.037863 92.575937 50.947928 92.538685 50.854164 92.538685 
C 50.760401 92.538685 50.670465 92.575937 50.604164 92.642238 
C 50.537863 92.708539 50.500611 92.798475 50.500611 92.892238 
C 50.500611 92.986001 50.537863 93.075937 50.604164 93.142238 
C 50.670465 93.208539 50.760401 93.245791 50.854164 93.245791 
z
" clip-path="url(#p785d256c52)" style="fill: #f7fbff; stroke: #00ff00; stroke-width: 2"/>
    <path d="M 87.890443 97.158637 
C 87.984206 97.158637 88.074142 97.121385 88.140443 97.055084 
C 88.206744 96.988783 88.243996 96.898847 88.243996 96.805084 
C 88.243996 96.71132 88.206744 96.621385 88.140443 96.555084 
C 88.074142 96.488783 87.984206 96.451531 87.890443 96.451531 
C 87.796679 96.451531 87.706744 96.488783 87.640443 96.555084 
C 87.574142 96.621385 87.536889 96.71132 87.536889 96.805084 
C 87.536889 96.898847 87.574142 96.988783 87.640443 97.055084 
C 87.706744 97.121385 87.796679 97.158637 87.890443 97.158637 
z
" clip-path="url(#p785d256c52)" style="fill: #f7fbff; stroke: #ff0000; stroke-width: 2"/>
    <path d="M 67.791556 98.549552 
C 67.88532 98.549552 67.975256 98.512299 68.041556 98.445998 
C 68.107857 98.379698 68.14511 98.289762 68.14511 98.195998 
C 68.14511 98.102235 68.107857 98.012299 68.041556 97.945998 
C 67.975256 97.879698 67.88532 97.842445 67.791556 97.842445 
C 67.697793 97.842445 67.607857 97.879698 67.541556 97.945998 
C 67.475256 98.012299 67.438003 98.102235 67.438003 98.195998 
C 67.438003 98.289762 67.475256 98.379698 67.541556 98.445998 
C 67.607857 98.512299 67.697793 98.549552 67.791556 98.549552 
z
" clip-path="url(#p785d256c52)" style="fill: #f7fbff; stroke: #ff0000; stroke-width: 2"/>
   </g>
   <g id="patch_10">
    <path d="M 54.544622 71.070325 
Q 54.124263 71.259601 53.703904 71.448877 
" clip-path="url(#p785d256c52)" style="fill: none; opacity: 0.825843; stroke: #6c6c6c; stroke-width: 0.651685; stroke-linecap: round"/>
   </g>
   <g id="Path3DCollection_3">
    <path d="M 82.162495 59.612457 
C 83.100129 59.612457 83.999487 59.239931 84.662495 58.576923 
C 85.325503 57.913916 85.698029 57.014558 85.698029 56.076923 
C 85.698029 55.139289 85.325503 54.239931 84.662495 53.576923 
C 83.999487 52.913916 83.100129 52.541389 82.162495 52.541389 
C 81.22486 52.541389 80.325503 52.913916 79.662495 53.576923 
C 78.999487 54.239931 78.626961 55.139289 78.626961 56.076923 
C 78.626961 57.014558 78.999487 57.913916 79.662495 58.576923 
C 80.325503 59.239931 81.22486 59.612457 82.162495 59.612457 
z
" clip-path="url(#p785d256c52)" style="fill: #00441b; stroke: #ff0000; stroke-width: 2"/>
    <path d="M 63.554504 57.575862 
C 63.648268 57.575862 63.738203 57.538609 63.804504 57.472308 
C 63.870805 57.406008 63.908057 57.316072 63.908057 57.222308 
C 63.908057 57.128545 63.870805 57.038609 63.804504 56.972308 
C 63.738203 56.906008 63.648268 56.868755 63.554504 56.868755 
C 63.460741 56.868755 63.370805 56.906008 63.304504 56.972308 
C 63.238203 57.038609 63.200951 57.128545 63.200951 57.222308 
C 63.200951 57.316072 63.238203 57.406008 63.304504 57.472308 
C 63.370805 57.538609 63.460741 57.575862 63.554504 57.575862 
z
" clip-path="url(#p785d256c52)" style="fill: #f7fcf5; stroke: #00ff00; stroke-width: 2"/>
    <path d="M 98.404877 60.88851 
C 98.498641 60.88851 98.588577 60.851257 98.654877 60.784956 
C 98.721178 60.718655 98.758431 60.62872 98.758431 60.534956 
C 98.758431 60.441193 98.721178 60.351257 98.654877 60.284956 
C 98.588577 60.218655 98.498641 60.181403 98.404877 60.181403 
C 98.311114 60.181403 98.221178 60.218655 98.154877 60.284956 
C 98.088577 60.351257 98.051324 60.441193 98.051324 60.534956 
C 98.051324 60.62872 98.088577 60.718655 98.154877 60.784956 
C 98.221178 60.851257 98.311114 60.88851 98.404877 60.88851 
z
" clip-path="url(#p785d256c52)" style="fill: #f7fcf5; stroke: #ff0000; stroke-width: 2"/>
    <path d="M 48.898027 63.986242 
C 48.99179 63.986242 49.081726 63.948989 49.148027 63.882688 
C 49.214328 63.816388 49.25158 63.726452 49.25158 63.632688 
C 49.25158 63.538925 49.214328 63.448989 49.148027 63.382688 
C 49.081726 63.316388 48.99179 63.279135 48.898027 63.279135 
C 48.804263 63.279135 48.714328 63.316388 48.648027 63.382688 
C 48.581726 63.448989 48.544473 63.538925 48.544473 63.632688 
C 48.544473 63.726452 48.581726 63.816388 48.648027 63.882688 
C 48.714328 63.948989 48.804263 63.986242 48.898027 63.986242 
z
" clip-path="url(#p785d256c52)" style="fill: #f7fcf5; stroke: #00ff00; stroke-width: 2"/>
    <path d="M 106.507791 69.591487 
C 106.601554 69.591487 106.69149 69.554234 106.757791 69.487934 
C 106.824091 69.421633 106.861344 69.331697 106.861344 69.237934 
C 106.861344 69.14417 106.824091 69.054234 106.757791 68.987934 
C 106.69149 68.921633 106.601554 68.88438 106.507791 68.88438 
C 106.414027 68.88438 106.324091 68.921633 106.257791 68.987934 
C 106.19149 69.054234 106.154237 69.14417 106.154237 69.237934 
C 106.154237 69.331697 106.19149 69.421633 106.257791 69.487934 
C 106.324091 69.554234 106.414027 69.591487 106.507791 69.591487 
z
" clip-path="url(#p785d256c52)" style="fill: #f7fcf5; stroke: #00ff00; stroke-width: 2"/>
    <path d="M 43.665119 73.631821 
C 43.758882 73.631821 43.848818 73.594568 43.915119 73.528268 
C 43.981419 73.461967 44.018672 73.372031 44.018672 73.278268 
C 44.018672 73.184504 43.981419 73.094568 43.915119 73.028268 
C 43.848818 72.961967 43.758882 72.924714 43.665119 72.924714 
C 43.571355 72.924714 43.481419 72.961967 43.415119 73.028268 
C 43.348818 73.094568 43.311565 73.184504 43.311565 73.278268 
C 43.311565 73.372031 43.348818 73.461967 43.415119 73.528268 
C 43.481419 73.594568 43.571355 73.631821 43.665119 73.631821 
z
" clip-path="url(#p785d256c52)" style="fill: #f7fcf5; stroke: #00ff00; stroke-width: 2"/>
    <path d="M 102.855535 79.563913 
C 102.949298 79.563913 103.039234 79.52666 103.105535 79.460359 
C 103.171836 79.394059 103.209088 79.304123 103.209088 79.210359 
C 103.209088 79.116596 103.171836 79.02666 103.105535 78.960359 
C 103.039234 78.894059 102.949298 78.856806 102.855535 78.856806 
C 102.761771 78.856806 102.671836 78.894059 102.605535 78.960359 
C 102.539234 79.02666 102.501981 79.116596 102.501981 79.210359 
C 102.501981 79.304123 102.539234 79.394059 102.605535 79.460359 
C 102.671836 79.52666 102.761771 79.563913 102.855535 79.563913 
z
" clip-path="url(#p785d256c52)" style="fill: #f7fcf5; stroke: #00ff00; stroke-width: 2"/>
    <path d="M 50.608198 83.018047 
C 50.701961 83.018047 50.791897 82.980795 50.858198 82.914494 
C 50.924498 82.848193 50.961751 82.758257 50.961751 82.664494 
C 50.961751 82.570731 50.924498 82.480795 50.858198 82.414494 
C 50.791897 82.348193 50.701961 82.310941 50.608198 82.310941 
C 50.514434 82.310941 50.424498 82.348193 50.358198 82.414494 
C 50.291897 82.480795 50.254644 82.570731 50.254644 82.664494 
C 50.254644 82.758257 50.291897 82.848193 50.358198 82.914494 
C 50.424498 82.980795 50.514434 83.018047 50.608198 83.018047 
z
" clip-path="url(#p785d256c52)" style="fill: #f7fcf5; stroke: #00ff00; stroke-width: 2"/>
    <path d="M 88.018511 90.042727 
C 88.956145 90.042727 89.855503 89.670201 90.518511 89.007193 
C 91.181518 88.344185 91.554045 87.444828 91.554045 86.507193 
C 91.554045 85.569558 91.181518 84.670201 90.518511 84.007193 
C 89.855503 83.344185 88.956145 82.971659 88.018511 82.971659 
C 87.080876 82.971659 86.181518 83.344185 85.518511 84.007193 
C 84.855503 84.670201 84.482977 85.569558 84.482977 86.507193 
C 84.482977 87.444828 84.855503 88.344185 85.518511 89.007193 
C 86.181518 89.670201 87.080876 90.042727 88.018511 90.042727 
z
" clip-path="url(#p785d256c52)" style="fill: #00441b; stroke: #ff0000; stroke-width: 2"/>
    <path d="M 67.71492 91.408904 
C 68.652554 91.408904 69.551912 91.036378 70.21492 90.37337 
C 70.877927 89.710362 71.250453 88.811005 71.250453 87.87337 
C 71.250453 86.935736 70.877927 86.036378 70.21492 85.37337 
C 69.551912 84.710362 68.652554 84.337836 67.71492 84.337836 
C 66.777285 84.337836 65.877927 84.710362 65.21492 85.37337 
C 64.551912 86.036378 64.179386 86.935736 64.179386 87.87337 
C 64.179386 88.811005 64.551912 89.710362 65.21492 90.37337 
C 65.877927 91.036378 66.777285 91.408904 67.71492 91.408904 
z
" clip-path="url(#p785d256c52)" style="fill: #00441b; stroke: #ff0000; stroke-width: 2"/>
   </g>
   <g id="patch_11">
    <path d="M 58.265787 69.394787 
Q 58.686146 69.20551 59.106505 69.016234 
" clip-path="url(#p785d256c52)" style="fill: none; opacity: 0.825843; stroke: #6c6c6c; stroke-width: 0.651685; stroke-linecap: round"/>
   </g>
   <g id="Path3DCollection_4">
    <path d="M 82.227028 46.528299 
C 82.320791 46.528299 82.410727 46.491047 82.477028 46.424746 
C 82.543329 46.358445 82.580581 46.268509 82.580581 46.174746 
C 82.580581 46.080982 82.543329 45.991047 82.477028 45.924746 
C 82.410727 45.858445 82.320791 45.821192 82.227028 45.821192 
C 82.133265 45.821192 82.043329 45.858445 81.977028 45.924746 
C 81.910727 45.991047 81.873475 46.080982 81.873475 46.174746 
C 81.873475 46.268509 81.910727 46.358445 81.977028 46.424746 
C 82.043329 46.491047 82.133265 46.528299 82.227028 46.528299 
z
" clip-path="url(#p785d256c52)" style="fill: #fff5eb; stroke: #ff0000; stroke-width: 2"/>
    <path d="M 63.443708 50.831871 
C 64.381342 50.831871 65.2807 50.459345 65.943708 49.796337 
C 66.606716 49.133329 66.979242 48.233971 66.979242 47.296337 
C 66.979242 46.358702 66.606716 45.459345 65.943708 44.796337 
C 65.2807 44.133329 64.381342 43.760803 63.443708 43.760803 
C 62.506073 43.760803 61.606716 44.133329 60.943708 44.796337 
C 60.2807 45.459345 59.908174 46.358702 59.908174 47.296337 
C 59.908174 48.233971 60.2807 49.133329 60.943708 49.796337 
C 61.606716 50.459345 62.506073 50.831871 63.443708 50.831871 
z
" clip-path="url(#p785d256c52)" style="fill: #7f2704; stroke: #00ff00; stroke-width: 2"/>
    <path d="M 98.625069 50.894133 
C 98.718832 50.894133 98.808768 50.85688 98.875069 50.790579 
C 98.941369 50.724279 98.978622 50.634343 98.978622 50.540579 
C 98.978622 50.446816 98.941369 50.35688 98.875069 50.290579 
C 98.808768 50.224279 98.718832 50.187026 98.625069 50.187026 
C 98.531305 50.187026 98.441369 50.224279 98.375069 50.290579 
C 98.308768 50.35688 98.271515 50.446816 98.271515 50.540579 
C 98.271515 50.634343 98.308768 50.724279 98.375069 50.790579 
C 98.441369 50.85688 98.531305 50.894133 98.625069 50.894133 
z
" clip-path="url(#p785d256c52)" style="fill: #fff5eb; stroke: #ff0000; stroke-width: 2"/>
    <path d="M 48.644101 53.928451 
C 48.737864 53.928451 48.8278 53.891198 48.894101 53.824897 
C 48.960402 53.758596 48.997654 53.668661 48.997654 53.574897 
C 48.997654 53.481134 48.960402 53.391198 48.894101 53.324897 
C 48.8278 53.258596 48.737864 53.221344 48.644101 53.221344 
C 48.550338 53.221344 48.460402 53.258596 48.394101 53.324897 
C 48.3278 53.391198 48.290548 53.481134 48.290548 53.574897 
C 48.290548 53.668661 48.3278 53.758596 48.394101 53.824897 
C 48.460402 53.891198 48.550338 53.928451 48.644101 53.928451 
z
" clip-path="url(#p785d256c52)" style="fill: #fff5eb; stroke: #00ff00; stroke-width: 2"/>
    <path d="M 106.812991 59.420307 
C 106.906755 59.420307 106.996691 59.383055 107.062991 59.316754 
C 107.129292 59.250453 107.166545 59.160517 107.166545 59.066754 
C 107.166545 58.972991 107.129292 58.883055 107.062991 58.816754 
C 106.996691 58.750453 106.906755 58.713201 106.812991 58.713201 
C 106.719228 58.713201 106.629292 58.750453 106.562991 58.816754 
C 106.496691 58.883055 106.459438 58.972991 106.459438 59.066754 
C 106.459438 59.160517 106.496691 59.250453 106.562991 59.316754 
C 106.629292 59.383055 106.719228 59.420307 106.812991 59.420307 
z
" clip-path="url(#p785d256c52)" style="fill: #fff5eb; stroke: #00ff00; stroke-width: 2"/>
    <path d="M 43.352104 63.379995 
C 43.445868 63.379995 43.535804 63.342742 43.602104 63.276441 
C 43.668405 63.210141 43.705658 63.120205 43.705658 63.026441 
C 43.705658 62.932678 43.668405 62.842742 43.602104 62.776441 
C 43.535804 62.710141 43.445868 62.672888 43.352104 62.672888 
C 43.258341 62.672888 43.168405 62.710141 43.102104 62.776441 
C 43.035804 62.842742 42.998551 62.932678 42.998551 63.026441 
C 42.998551 63.120205 43.035804 63.210141 43.102104 63.276441 
C 43.168405 63.342742 43.258341 63.379995 43.352104 63.379995 
z
" clip-path="url(#p785d256c52)" style="fill: #fff5eb; stroke: #00ff00; stroke-width: 2"/>
    <path d="M 103.132909 72.377309 
C 104.070544 72.377309 104.969902 72.004783 105.632909 71.341775 
C 106.295917 70.678767 106.668443 69.779409 106.668443 68.841775 
C 106.668443 67.90414 106.295917 67.004783 105.632909 66.341775 
C 104.969902 65.678767 104.070544 65.306241 103.132909 65.306241 
C 102.195275 65.306241 101.295917 65.678767 100.632909 66.341775 
C 99.969902 67.004783 99.597376 67.90414 99.597376 68.841775 
C 99.597376 69.779409 99.969902 70.678767 100.632909 71.341775 
C 101.295917 72.004783 102.195275 72.377309 103.132909 72.377309 
z
" clip-path="url(#p785d256c52)" style="fill: #7f2704; stroke: #00ff00; stroke-width: 2"/>
    <path d="M 50.357231 72.582381 
C 50.450994 72.582381 50.54093 72.545128 50.607231 72.478827 
C 50.673532 72.412527 50.710784 72.322591 50.710784 72.228827 
C 50.710784 72.135064 50.673532 72.045128 50.607231 71.978827 
C 50.54093 71.912527 50.450994 71.875274 50.357231 71.875274 
C 50.263468 71.875274 50.173532 71.912527 50.107231 71.978827 
C 50.04093 72.045128 50.003678 72.135064 50.003678 72.228827 
C 50.003678 72.322591 50.04093 72.412527 50.107231 72.478827 
C 50.173532 72.545128 50.263468 72.582381 50.357231 72.582381 
z
" clip-path="url(#p785d256c52)" style="fill: #fff5eb; stroke: #00ff00; stroke-width: 2"/>
    <path d="M 88.14921 79.533214 
C 89.086845 79.533214 89.986203 79.160688 90.64921 78.49768 
C 91.312218 77.834672 91.684744 76.935314 91.684744 75.99768 
C 91.684744 75.060045 91.312218 74.160688 90.64921 73.49768 
C 89.986203 72.834672 89.086845 72.462146 88.14921 72.462146 
C 87.211576 72.462146 86.312218 72.834672 85.64921 73.49768 
C 84.986203 74.160688 84.613676 75.060045 84.613676 75.99768 
C 84.613676 76.935314 84.986203 77.834672 85.64921 78.49768 
C 86.312218 79.160688 87.211576 79.533214 88.14921 79.533214 
z
" clip-path="url(#p785d256c52)" style="fill: #7f2704; stroke: #ff0000; stroke-width: 2"/>
    <path d="M 67.636702 80.873335 
C 68.574336 80.873335 69.473694 80.500809 70.136702 79.837801 
C 70.799709 79.174794 71.172236 78.275436 71.172236 77.337801 
C 71.172236 76.400167 70.799709 75.500809 70.136702 74.837801 
C 69.473694 74.174794 68.574336 73.802267 67.636702 73.802267 
C 66.699067 73.802267 65.799709 74.174794 65.136702 74.837801 
C 64.473694 75.500809 64.101168 76.400167 64.101168 77.337801 
C 64.101168 78.275436 64.473694 79.174794 65.136702 79.837801 
C 65.799709 80.500809 66.699067 80.873335 67.636702 80.873335 
z
" clip-path="url(#p785d256c52)" style="fill: #7f2704; stroke: #ff0000; stroke-width: 2"/>
   </g>
   <g id="patch_12">
    <path d="M 88.764928 57.889088 
Q 87.873535 57.644428 86.982142 57.399768 
" clip-path="url(#p785d256c52)" style="fill: none; opacity: 0.692164; stroke: #bababa; stroke-width: 0.384328; stroke-linecap: round"/>
   </g>
   <g id="Path3DCollection_5">
    <path d="M 82.292786 36.438163 
C 82.38655 36.438163 82.476485 36.400911 82.542786 36.33461 
C 82.609087 36.268309 82.64634 36.178373 82.64634 36.08461 
C 82.64634 35.990846 82.609087 35.900911 82.542786 35.83461 
C 82.476485 35.768309 82.38655 35.731056 82.292786 35.731056 
C 82.199023 35.731056 82.109087 35.768309 82.042786 35.83461 
C 81.976485 35.900911 81.939233 35.990846 81.939233 36.08461 
C 81.939233 36.178373 81.976485 36.268309 82.042786 36.33461 
C 82.109087 36.400911 82.199023 36.438163 82.292786 36.438163 
z
" clip-path="url(#p785d256c52)" style="fill: #fcfbfd; stroke: #ff0000; stroke-width: 2"/>
    <path d="M 63.330801 40.716825 
C 64.268436 40.716825 65.167793 40.344299 65.830801 39.681291 
C 66.493809 39.018283 66.866335 38.118925 66.866335 37.181291 
C 66.866335 36.243656 66.493809 35.344299 65.830801 34.681291 
C 65.167793 34.018283 64.268436 33.645757 63.330801 33.645757 
C 62.393167 33.645757 61.493809 34.018283 60.830801 34.681291 
C 60.167793 35.344299 59.795267 36.243656 59.795267 37.181291 
C 59.795267 38.118925 60.167793 39.018283 60.830801 39.681291 
C 61.493809 40.344299 62.393167 40.716825 63.330801 40.716825 
z
" clip-path="url(#p785d256c52)" style="fill: #3f007d; stroke: #00ff00; stroke-width: 2"/>
    <path d="M 98.849497 40.707443 
C 98.94326 40.707443 99.033196 40.67019 99.099497 40.603889 
C 99.165797 40.537588 99.20305 40.447653 99.20305 40.353889 
C 99.20305 40.260126 99.165797 40.17019 99.099497 40.103889 
C 99.033196 40.037588 98.94326 40.000336 98.849497 40.000336 
C 98.755733 40.000336 98.665797 40.037588 98.599497 40.103889 
C 98.533196 40.17019 98.495943 40.260126 98.495943 40.353889 
C 98.495943 40.447653 98.533196 40.537588 98.599497 40.603889 
C 98.665797 40.67019 98.755733 40.707443 98.849497 40.707443 
z
" clip-path="url(#p785d256c52)" style="fill: #fcfbfd; stroke: #ff0000; stroke-width: 2"/>
    <path d="M 48.385243 46.857284 
C 49.322878 46.857284 50.222235 46.484757 50.885243 45.82175 
C 51.548251 45.158742 51.920777 44.259384 51.920777 43.32175 
C 51.920777 42.384115 51.548251 41.484757 50.885243 40.82175 
C 50.222235 40.158742 49.322878 39.786216 48.385243 39.786216 
C 47.447608 39.786216 46.548251 40.158742 45.885243 40.82175 
C 45.222235 41.484757 44.849709 42.384115 44.849709 43.32175 
C 44.849709 44.259384 45.222235 45.158742 45.885243 45.82175 
C 46.548251 46.484757 47.447608 46.857284 48.385243 46.857284 
z
" clip-path="url(#p785d256c52)" style="fill: #3f007d; stroke: #00ff00; stroke-width: 2"/>
    <path d="M 107.12422 49.048233 
C 107.217984 49.048233 107.30792 49.01098 107.37422 48.944679 
C 107.440521 48.878378 107.477774 48.788443 107.477774 48.694679 
C 107.477774 48.600916 107.440521 48.51098 107.37422 48.444679 
C 107.30792 48.378378 107.217984 48.341126 107.12422 48.341126 
C 107.030457 48.341126 106.940521 48.378378 106.87422 48.444679 
C 106.80792 48.51098 106.770667 48.600916 106.770667 48.694679 
C 106.770667 48.788443 106.80792 48.878378 106.87422 48.944679 
C 106.940521 49.01098 107.030457 49.048233 107.12422 49.048233 
z
" clip-path="url(#p785d256c52)" style="fill: #fcfbfd; stroke: #00ff00; stroke-width: 2"/>
    <path d="M 43.032833 52.923255 
C 43.126597 52.923255 43.216533 52.886003 43.282833 52.819702 
C 43.349134 52.753401 43.386387 52.663465 43.386387 52.569702 
C 43.386387 52.475938 43.349134 52.386003 43.282833 52.319702 
C 43.216533 52.253401 43.126597 52.216148 43.032833 52.216148 
C 42.93907 52.216148 42.849134 52.253401 42.782833 52.319702 
C 42.716533 52.386003 42.67928 52.475938 42.67928 52.569702 
C 42.67928 52.663465 42.716533 52.753401 42.782833 52.819702 
C 42.849134 52.886003 42.93907 52.923255 43.032833 52.923255 
z
" clip-path="url(#p785d256c52)" style="fill: #fcfbfd; stroke: #00ff00; stroke-width: 2"/>
    <path d="M 103.415925 61.797874 
C 104.353559 61.797874 105.252917 61.425347 105.915925 60.76234 
C 106.578932 60.099332 106.951459 59.199974 106.951459 58.26234 
C 106.951459 57.324705 106.578932 56.425347 105.915925 55.76234 
C 105.252917 55.099332 104.353559 54.726806 103.415925 54.726806 
C 102.47829 54.726806 101.578932 55.099332 100.915925 55.76234 
C 100.252917 56.425347 99.880391 57.324705 99.880391 58.26234 
C 99.880391 59.199974 100.252917 60.099332 100.915925 60.76234 
C 101.578932 61.425347 102.47829 61.797874 103.415925 61.797874 
z
" clip-path="url(#p785d256c52)" style="fill: #3f007d; stroke: #00ff00; stroke-width: 2"/>
    <path d="M 50.10111 61.932386 
C 50.194873 61.932386 50.284809 61.895134 50.35111 61.828833 
C 50.417411 61.762532 50.454663 61.672596 50.454663 61.578833 
C 50.454663 61.485069 50.417411 61.395134 50.35111 61.328833 
C 50.284809 61.262532 50.194873 61.225279 50.10111 61.225279 
C 50.007347 61.225279 49.917411 61.262532 49.85111 61.328833 
C 49.784809 61.395134 49.747557 61.485069 49.747557 61.578833 
C 49.747557 61.672596 49.784809 61.762532 49.85111 61.828833 
C 49.917411 61.895134 50.007347 61.932386 50.10111 61.932386 
z
" clip-path="url(#p785d256c52)" style="fill: #fcfbfd; stroke: #00ff00; stroke-width: 2"/>
    <path d="M 88.282624 68.805488 
C 89.220258 68.805488 90.119616 68.432961 90.782624 67.769954 
C 91.445632 67.106946 91.818158 66.207588 91.818158 65.269954 
C 91.818158 64.332319 91.445632 63.432961 90.782624 62.769954 
C 90.119616 62.106946 89.220258 61.73442 88.282624 61.73442 
C 87.344989 61.73442 86.445632 62.106946 85.782624 62.769954 
C 85.119616 63.432961 84.74709 64.332319 84.74709 65.269954 
C 84.74709 66.207588 85.119616 67.106946 85.782624 67.769954 
C 86.445632 68.432961 87.344989 68.805488 88.282624 68.805488 
z
" clip-path="url(#p785d256c52)" style="fill: #3f007d; stroke: #ff0000; stroke-width: 2"/>
    <path d="M 67.556853 66.936187 
C 67.650617 66.936187 67.740553 66.898935 67.806853 66.832634 
C 67.873154 66.766333 67.910407 66.676397 67.910407 66.582634 
C 67.910407 66.48887 67.873154 66.398935 67.806853 66.332634 
C 67.740553 66.266333 67.650617 66.229081 67.556853 66.229081 
C 67.46309 66.229081 67.373154 66.266333 67.306853 66.332634 
C 67.240553 66.398935 67.2033 66.48887 67.2033 66.582634 
C 67.2033 66.676397 67.240553 66.766333 67.306853 66.832634 
C 67.373154 66.898935 67.46309 66.936187 67.556853 66.936187 
z
" clip-path="url(#p785d256c52)" style="fill: #fcfbfd; stroke: #ff0000; stroke-width: 2"/>
   </g>
   <g id="patch_13">
    <path d="M 91.802444 58.722792 
Q 92.693837 58.967452 93.58523 59.212112 
" clip-path="url(#p785d256c52)" style="fill: none; opacity: 0.692164; stroke: #bababa; stroke-width: 0.384328; stroke-linecap: round"/>
   </g>
   <g id="patch_14">
    <path d="M 97.237508 84.035519 
Q 91.806358 80.927907 86.375209 77.820295 
" clip-path="url(#p785d256c52)" style="fill: none; opacity: 0.726415; stroke: #a5a5a5; stroke-width: 0.45283; stroke-linecap: round"/>
   </g>
   <g id="patch_15">
    <path d="M 90.714247 80.303019 
Q 96.145397 83.410631 101.576546 86.518243 
" clip-path="url(#p785d256c52)" style="fill: none; opacity: 0.726415; stroke: #a5a5a5; stroke-width: 0.45283; stroke-linecap: round"/>
   </g>
   <g id="patch_16">
    <path d="M 72.412985 58.291449 
Q 63.093977 60.408189 53.774969 62.524929 
" clip-path="url(#p785d256c52)" style="fill: none; opacity: 0.70709; stroke: #b2b2b2; stroke-width: 0.414179; stroke-linecap: round"/>
   </g>
   <g id="patch_17">
    <path d="M 58.647537 61.418163 
Q 67.966545 59.301423 77.285552 57.184683 
" clip-path="url(#p785d256c52)" style="fill: none; opacity: 0.70709; stroke: #b2b2b2; stroke-width: 0.414179; stroke-linecap: round"/>
   </g>
   <g id="patch_18">
    <path d="M 99.502569 71.795743 
Q 98.845687 71.069079 98.188804 70.342415 
" clip-path="url(#p785d256c52)" style="fill: none; opacity: 0.668539; stroke: #c5c5c5; stroke-width: 0.337079; stroke-linecap: round"/>
   </g>
   <g id="patch_19">
    <path d="M 97.470592 74.351083 
Q 91.970874 71.2903 86.471156 68.229517 
" clip-path="url(#p785d256c52)" style="fill: none; stroke: #000000; stroke-linecap: round"/>
   </g>
   <g id="patch_20">
    <path d="M 104.89468 77.760671 
Q 105.551562 78.487335 106.208444 79.213999 
" clip-path="url(#p785d256c52)" style="fill: none; opacity: 0.668539; stroke: #c5c5c5; stroke-width: 0.337079; stroke-linecap: round"/>
   </g>
   <g id="patch_21">
    <path d="M 90.837005 70.659263 
Q 96.336723 73.720045 101.836441 76.780828 
" clip-path="url(#p785d256c52)" style="fill: none; stroke: #000000; stroke-linecap: round"/>
   </g>
   <g id="patch_22">
    <path d="M 56.165922 83.026645 
Q 52.119865 86.484595 48.073808 89.942545 
" clip-path="url(#p785d256c52)" style="fill: none; opacity: 0.915094; stroke: #353535; stroke-width: 0.830189; stroke-linecap: round"/>
   </g>
   <g id="patch_23">
    <path d="M 44.836688 92.088999 
Q 44.554894 92.639904 44.273099 93.19081 
" clip-path="url(#p785d256c52)" style="fill: none; opacity: 0.924528; stroke: #2e2e2e; stroke-width: 0.849057; stroke-linecap: round"/>
   </g>
   <g id="patch_24">
    <path d="M 51.877175 86.692009 
Q 55.923232 83.234059 59.969288 79.776109 
" clip-path="url(#p785d256c52)" style="fill: none; opacity: 0.915094; stroke: #353535; stroke-width: 0.830189; stroke-linecap: round"/>
   </g>
   <g id="patch_25">
    <path d="M 48.828047 84.285929 
Q 49.109841 83.735023 49.391636 83.184118 
" clip-path="url(#p785d256c52)" style="fill: none; opacity: 0.924528; stroke: #2e2e2e; stroke-width: 0.849057; stroke-linecap: round"/>
   </g>
   <g id="patch_26">
    <path d="M 72.457971 48.327402 
Q 62.991434 50.413397 53.524898 52.499391 
" clip-path="url(#p785d256c52)" style="fill: none; opacity: 0.65873; stroke: #cacaca; stroke-width: 0.31746; stroke-linecap: round"/>
   </g>
   <g id="patch_27">
    <path d="M 58.413158 51.422241 
Q 67.879695 49.336246 77.346231 47.250252 
" clip-path="url(#p785d256c52)" style="fill: none; opacity: 0.65873; stroke: #cacaca; stroke-width: 0.31746; stroke-linecap: round"/>
   </g>
   <g id="patch_28">
    <path d="M 55.973781 73.355697 
Q 51.896536 76.744573 47.819291 80.133449 
" clip-path="url(#p785d256c52)" style="fill: none; opacity: 0.825843; stroke: #6c6c6c; stroke-width: 0.651685; stroke-linecap: round"/>
   </g>
   <g id="patch_29">
    <path d="M 44.488811 82.349536 
Q 44.230435 82.840341 43.972059 83.331145 
" clip-path="url(#p785d256c52)" style="fill: none; opacity: 0.910112; stroke: #393939; stroke-width: 0.820225; stroke-linecap: round"/>
   </g>
   <g id="patch_30">
    <path d="M 51.661526 76.939906 
Q 55.738771 73.55103 59.816017 70.162154 
" clip-path="url(#p785d256c52)" style="fill: none; opacity: 0.825843; stroke: #6c6c6c; stroke-width: 0.651685; stroke-linecap: round"/>
   </g>
   <g id="patch_31">
    <path d="M 48.630408 74.482263 
Q 48.888784 73.991459 49.14716 73.500654 
" clip-path="url(#p785d256c52)" style="fill: none; opacity: 0.910112; stroke: #393939; stroke-width: 0.820225; stroke-linecap: round"/>
   </g>
   <g id="patch_32">
    <path d="M 88.866913 40.940976 
Q 71.124062 41.984454 53.381211 43.027931 
" clip-path="url(#p785d256c52)" style="fill: none; opacity: 0.753378; stroke: #949494; stroke-width: 0.506757; stroke-linecap: round"/>
   </g>
   <g id="patch_33">
    <path d="M 72.512082 38.172178 
Q 62.894627 40.224904 53.277172 42.277629 
" clip-path="url(#p785d256c52)" style="fill: none; opacity: 0.625; stroke: #dadada; stroke-width: 0.25; stroke-linecap: round"/>
   </g>
   <g id="patch_34">
    <path d="M 58.367826 42.734662 
Q 76.110678 41.691185 93.853529 40.647708 
" clip-path="url(#p785d256c52)" style="fill: none; opacity: 0.753378; stroke: #949494; stroke-width: 0.506757; stroke-linecap: round"/>
   </g>
   <g id="patch_35">
    <path d="M 58.165947 41.234181 
Q 67.783402 39.181456 77.400857 37.128731 
" clip-path="url(#p785d256c52)" style="fill: none; opacity: 0.625; stroke: #dadada; stroke-width: 0.25; stroke-linecap: round"/>
   </g>
   <g id="patch_36">
    <path d="M 105.60297 89.896607 
Q 105.758878 89.448559 105.914786 89.000511 
" clip-path="url(#p785d256c52)" style="fill: none; opacity: 0.886792; stroke: #4a4a4a; stroke-width: 0.773585; stroke-linecap: round"/>
   </g>
   <g id="patch_37">
    <path d="M 95.863169 91.70147 
Q 90.564419 85.430348 85.26567 79.159227 
" clip-path="url(#p785d256c52)" style="fill: none; stroke: #000000; stroke-linecap: round"/>
   </g>
   <g id="patch_38">
    <path d="M 102.628862 98.4436 
Q 102.472954 98.891648 102.317046 99.339697 
" clip-path="url(#p785d256c52)" style="fill: none; opacity: 0.886792; stroke: #4a4a4a; stroke-width: 0.773585; stroke-linecap: round"/>
   </g>
   <g id="patch_39">
    <path d="M 88.490846 82.976254 
Q 93.789595 89.247375 99.088345 95.518497 
" clip-path="url(#p785d256c52)" style="fill: none; stroke: #000000; stroke-linecap: round"/>
   </g>
   <g id="patch_40">
    <path d="M 44.128875 72.423447 
Q 43.896997 72.850857 43.665119 73.278268 
" clip-path="url(#p785d256c52)" style="fill: none; opacity: 0.649254; stroke: #cecece; stroke-width: 0.298507; stroke-linecap: round"/>
   </g>
   <g id="patch_41">
    <path d="M 48.434271 64.487509 
Q 48.666149 64.060099 48.898027 63.632688 
" clip-path="url(#p785d256c52)" style="fill: none; opacity: 0.649254; stroke: #cecece; stroke-width: 0.298507; stroke-linecap: round"/>
   </g>
   <g id="patch_42">
    <path d="M 50.014323 101.376932 
Q 50.5548 102.147572 51.095278 102.918212 
" clip-path="url(#p785d256c52)" style="fill: none; opacity: 0.820755; stroke: #6f6f6f; stroke-width: 0.641509; stroke-linecap: round"/>
   </g>
   <g id="patch_43">
    <path d="M 45.354055 94.73209 
Q 44.813577 93.96145 44.273099 93.19081 
" clip-path="url(#p785d256c52)" style="fill: none; opacity: 0.820755; stroke: #6f6f6f; stroke-width: 0.641509; stroke-linecap: round"/>
   </g>
   <g id="patch_44">
    <path d="M 105.94384 79.955684 
Q 106.076142 79.584841 106.208444 79.213999 
" clip-path="url(#p785d256c52)" style="fill: none; opacity: 0.702247; stroke: #b4b4b4; stroke-width: 0.404494; stroke-linecap: round"/>
   </g>
   <g id="patch_45">
    <path d="M 96.024699 81.824888 
Q 90.701475 75.697767 85.378252 69.570645 
" clip-path="url(#p785d256c52)" style="fill: none; opacity: 0.685393; stroke: #bebebe; stroke-width: 0.370787; stroke-linecap: round"/>
   </g>
   <g id="patch_46">
    <path d="M 92.998075 86.526876 
Q 73.469376 80.725739 53.940678 74.924602 
" clip-path="url(#p785d256c52)" style="fill: none; opacity: 0.797753; stroke: #7b7b7b; stroke-width: 0.595506; stroke-linecap: round"/>
   </g>
   <g id="patch_47">
    <path d="M 102.848238 88.632649 
Q 102.715936 89.003492 102.583634 89.374334 
" clip-path="url(#p785d256c52)" style="fill: none; opacity: 0.702247; stroke: #b4b4b4; stroke-width: 0.404494; stroke-linecap: round"/>
   </g>
   <g id="patch_48">
    <path d="M 88.658087 73.345792 
Q 93.981311 79.472914 99.304535 85.600035 
" clip-path="url(#p785d256c52)" style="fill: none; opacity: 0.685393; stroke: #bebebe; stroke-width: 0.370787; stroke-linecap: round"/>
   </g>
   <g id="patch_49">
    <path d="M 58.732719 76.348112 
Q 78.261418 82.149249 97.790116 87.950386 
" clip-path="url(#p785d256c52)" style="fill: none; opacity: 0.797753; stroke: #7b7b7b; stroke-width: 0.595506; stroke-linecap: round"/>
   </g>
   <g id="patch_50">
    <path d="M 100.079796 41.594012 
Q 99.464646 40.97395 98.849497 40.353889 
" clip-path="url(#p785d256c52)" style="fill: none; opacity: 0.699324; stroke: #b6b6b6; stroke-width: 0.398649; stroke-linecap: round"/>
   </g>
   <g id="patch_51">
    <path d="M 105.893921 47.454557 
Q 106.509071 48.074618 107.12422 48.694679 
" clip-path="url(#p785d256c52)" style="fill: none; opacity: 0.699324; stroke: #b6b6b6; stroke-width: 0.398649; stroke-linecap: round"/>
   </g>
   <g id="patch_52">
    <path d="M 55.568447 53.462031 
Q 51.43022 56.701928 47.291994 59.941826 
" clip-path="url(#p785d256c52)" style="fill: none; opacity: 0.630159; stroke: #d7d7d7; stroke-width: 0.260317; stroke-linecap: round"/>
   </g>
   <g id="patch_53">
    <path d="M 51.227365 56.860747 
Q 55.365592 53.62085 59.503818 50.380953 
" clip-path="url(#p785d256c52)" style="fill: none; opacity: 0.630159; stroke: #d7d7d7; stroke-width: 0.260317; stroke-linecap: round"/>
   </g>
   <g id="patch_54">
    <path d="M 49.814119 91.447337 
Q 50.334142 92.169787 50.854164 92.892238 
" clip-path="url(#p785d256c52)" style="fill: none; opacity: 0.702247; stroke: #b4b4b4; stroke-width: 0.404494; stroke-linecap: round"/>
   </g>
   <g id="patch_55">
    <path d="M 45.012103 84.776047 
Q 44.492081 84.053596 43.972059 83.331145 
" clip-path="url(#p785d256c52)" style="fill: none; opacity: 0.702247; stroke: #b4b4b4; stroke-width: 0.404494; stroke-linecap: round"/>
   </g>
   <g id="patch_56">
    <path d="M 69.970836 84.376104 
Q 77.318067 93.675327 84.665298 102.97455 
" clip-path="url(#p785d256c52)" style="fill: none; opacity: 0.943396; stroke: #222222; stroke-width: 0.886792; stroke-linecap: round"/>
   </g>
   <g id="patch_57">
    <path d="M 81.56409 99.049421 
Q 74.216859 89.750198 66.869627 80.450975 
" clip-path="url(#p785d256c52)" style="fill: none; opacity: 0.943396; stroke: #222222; stroke-width: 0.886792; stroke-linecap: round"/>
   </g>
   <g id="patch_58">
    <path d="M 55.359785 43.224323 
Q 51.1871 46.387743 47.014415 49.551163 
" clip-path="url(#p785d256c52)" style="fill: none; opacity: 0.631757; stroke: #d6d6d6; stroke-width: 0.263514; stroke-linecap: round"/>
   </g>
   <g id="patch_59">
    <path d="M 51.003849 46.52667 
Q 55.176535 43.36325 59.34922 40.19983 
" clip-path="url(#p785d256c52)" style="fill: none; opacity: 0.631757; stroke: #d6d6d6; stroke-width: 0.263514; stroke-linecap: round"/>
   </g>
   <g id="patch_60">
    <path d="M 77.840084 107.603152 
Q 80.30918 107.427646 82.778275 107.252139 
" clip-path="url(#p785d256c52)" style="fill: none; opacity: 0.641509; stroke: #d2d2d2; stroke-width: 0.283019; stroke-linecap: round"/>
   </g>
   <g id="patch_61">
    <path d="M 77.791504 107.606605 
Q 75.322408 107.782112 72.853313 107.957619 
" clip-path="url(#p785d256c52)" style="fill: none; opacity: 0.641509; stroke: #d2d2d2; stroke-width: 0.283019; stroke-linecap: round"/>
   </g>
   <g id="patch_62">
    <path d="M 106.655761 59.484388 
Q 106.734376 59.275571 106.812991 59.066754 
" clip-path="url(#p785d256c52)" style="fill: none; opacity: 0.648413; stroke: #cfcfcf; stroke-width: 0.296825; stroke-linecap: round"/>
   </g>
   <g id="patch_63">
    <path d="M 96.352279 61.489932 
Q 90.983752 55.669152 85.615226 49.848371 
" clip-path="url(#p785d256c52)" style="fill: none; opacity: 0.665873; stroke: #c7c7c7; stroke-width: 0.331746; stroke-linecap: round"/>
   </g>
   <g id="patch_64">
    <path d="M 93.504913 66.144167 
Q 73.482654 60.534256 53.460395 54.924344 
" clip-path="url(#p785d256c52)" style="fill: none; opacity: 0.650794; stroke: #cecece; stroke-width: 0.301587; stroke-linecap: round"/>
   </g>
   <g id="patch_65">
    <path d="M 103.29014 68.424141 
Q 103.211524 68.632958 103.132909 68.841775 
" clip-path="url(#p785d256c52)" style="fill: none; opacity: 0.648413; stroke: #cfcfcf; stroke-width: 0.296825; stroke-linecap: round"/>
   </g>
   <g id="patch_66">
    <path d="M 89.007659 53.526589 
Q 94.376185 59.347369 99.744711 65.168149 
" clip-path="url(#p785d256c52)" style="fill: none; opacity: 0.665873; stroke: #c7c7c7; stroke-width: 0.331746; stroke-linecap: round"/>
   </g>
   <g id="patch_67">
    <path d="M 58.272098 56.272505 
Q 78.294356 61.882416 98.316615 67.492328 
" clip-path="url(#p785d256c52)" style="fill: none; opacity: 0.650794; stroke: #cecece; stroke-width: 0.301587; stroke-linecap: round"/>
   </g>
   <g id="patch_68">
    <path d="M 69.965513 74.726955 
Q 77.351451 83.824211 84.737388 92.921468 
" clip-path="url(#p785d256c52)" style="fill: none; opacity: 0.842697; stroke: #636363; stroke-width: 0.685393; stroke-linecap: round"/>
   </g>
   <g id="patch_69">
    <path d="M 81.588178 89.042587 
Q 74.202241 79.945331 66.816303 70.848074 
" clip-path="url(#p785d256c52)" style="fill: none; opacity: 0.842697; stroke: #636363; stroke-width: 0.685393; stroke-linecap: round"/>
   </g>
   <g id="patch_70">
    <path d="M 90.817694 77.096705 
Q 81.14711 85.958047 71.476526 94.81939 
" clip-path="url(#p785d256c52)" style="fill: none; opacity: 0.668539; stroke: #c5c5c5; stroke-width: 0.337079; stroke-linecap: round"/>
   </g>
   <g id="patch_71">
    <path d="M 75.162666 91.441708 
Q 84.833251 82.580365 94.503835 73.719023 
" clip-path="url(#p785d256c52)" style="fill: none; opacity: 0.668539; stroke: #c5c5c5; stroke-width: 0.337079; stroke-linecap: round"/>
   </g>
   <g id="patch_72">
    <path d="M 77.767395 97.505635 
Q 80.335229 97.327932 82.903063 97.150228 
" clip-path="url(#p785d256c52)" style="fill: none; opacity: 0.719101; stroke: #aaaaaa; stroke-width: 0.438202; stroke-linecap: round"/>
   </g>
   <g id="patch_73">
    <path d="M 77.914604 97.495447 
Q 75.34677 97.673151 72.778937 97.850854 
" clip-path="url(#p785d256c52)" style="fill: none; opacity: 0.719101; stroke: #aaaaaa; stroke-width: 0.438202; stroke-linecap: round"/>
   </g>
   <g id="patch_74">
    <path d="M 107.029159 48.939944 
Q 107.07669 48.817311 107.12422 48.694679 
" clip-path="url(#p785d256c52)" style="fill: none; opacity: 0.959459; stroke: #181818; stroke-width: 0.918919; stroke-linecap: round"/>
   </g>
   <g id="patch_75">
    <path d="M 96.518415 51.020466 
Q 91.129104 45.362089 85.739792 39.703711 
" clip-path="url(#p785d256c52)" style="fill: none; opacity: 0.753378; stroke: #949494; stroke-width: 0.506757; stroke-linecap: round"/>
   </g>
   <g id="patch_76">
    <path d="M 93.766074 55.642447 
Q 73.489562 50.137463 53.21305 44.632478 
" clip-path="url(#p785d256c52)" style="fill: none; opacity: 0.756757; stroke: #929292; stroke-width: 0.513514; stroke-linecap: round"/>
   </g>
   <g id="patch_77">
    <path d="M 103.510986 58.017075 
Q 103.463455 58.139707 103.415925 58.26234 
" clip-path="url(#p785d256c52)" style="fill: none; opacity: 0.959459; stroke: #181818; stroke-width: 0.918919; stroke-linecap: round"/>
   </g>
   <g id="patch_78">
    <path d="M 89.190295 43.326483 
Q 94.579607 48.984861 99.968919 54.643239 
" clip-path="url(#p785d256c52)" style="fill: none; opacity: 0.753378; stroke: #949494; stroke-width: 0.506757; stroke-linecap: round"/>
   </g>
   <g id="patch_79">
    <path d="M 58.035093 45.941642 
Q 78.311606 51.446627 98.588118 56.951611 
" clip-path="url(#p785d256c52)" style="fill: none; opacity: 0.756757; stroke: #929292; stroke-width: 0.513514; stroke-linecap: round"/>
   </g>
   <g id="patch_80">
    <path d="M 84.051832 65.894697 
Q 85.562821 73.746418 87.07381 81.598138 
" clip-path="url(#p785d256c52)" style="fill: none; stroke: #000000; stroke-linecap: round"/>
   </g>
   <g id="patch_81">
    <path d="M 69.966152 64.897436 
Q 77.389171 73.783235 84.81219 82.669034 
" clip-path="url(#p785d256c52)" style="fill: none; opacity: 0.970149; stroke: #111111; stroke-width: 0.940299; stroke-linecap: round"/>
   </g>
   <g id="patch_82">
    <path d="M 86.129174 76.689419 
Q 84.618185 68.837699 83.107196 60.985979 
" clip-path="url(#p785d256c52)" style="fill: none; stroke: #000000; stroke-linecap: round"/>
   </g>
   <g id="patch_83">
    <path d="M 81.606863 78.832065 
Q 74.183844 69.946266 66.760825 61.060467 
" clip-path="url(#p785d256c52)" style="fill: none; opacity: 0.970149; stroke: #111111; stroke-width: 0.940299; stroke-linecap: round"/>
   </g>
   <g id="patch_84">
    <path d="M 64.899834 67.133766 
Q 65.971126 75.02631 67.042419 82.918853 
" clip-path="url(#p785d256c52)" style="fill: none; opacity: 0.660448; stroke: #cacaca; stroke-width: 0.320896; stroke-linecap: round"/>
   </g>
   <g id="patch_85">
    <path d="M 60.176435 85.577955 
Q 61.554932 85.997698 62.93343 86.41744 
" clip-path="url(#p785d256c52)" style="fill: none; opacity: 0.649254; stroke: #cecece; stroke-width: 0.298507; stroke-linecap: round"/>
   </g>
   <g id="patch_86">
    <path d="M 66.36959 77.961912 
Q 65.298297 70.069369 64.227004 62.176826 
" clip-path="url(#p785d256c52)" style="fill: none; opacity: 0.660448; stroke: #cacaca; stroke-width: 0.320896; stroke-linecap: round"/>
   </g>
   <g id="patch_87">
    <path d="M 58.146682 84.959909 
Q 56.768185 84.540167 55.389688 84.120424 
" clip-path="url(#p785d256c52)" style="fill: none; opacity: 0.649254; stroke: #cecece; stroke-width: 0.298507; stroke-linecap: round"/>
   </g>
   <g id="patch_88">
    <path d="M 77.693223 87.201955 
Q 80.361513 87.022413 83.029803 86.84287 
" clip-path="url(#p785d256c52)" style="fill: none; opacity: 0.873134; stroke: #535353; stroke-width: 0.746269; stroke-linecap: round"/>
   </g>
   <g id="patch_89">
    <path d="M 78.040208 87.178608 
Q 75.371917 87.35815 72.703627 87.537693 
" clip-path="url(#p785d256c52)" style="fill: none; opacity: 0.873134; stroke: #535353; stroke-width: 0.746269; stroke-linecap: round"/>
   </g>
   <g id="patch_90">
    <path d="M 49.205496 60.437295 
Q 49.653303 61.008064 50.10111 61.578833 
" clip-path="url(#p785d256c52)" style="fill: none; opacity: 0.679054; stroke: #c1c1c1; stroke-width: 0.358108; stroke-linecap: round"/>
   </g>
   <g id="patch_91">
    <path d="M 43.928448 53.71124 
Q 43.48064 53.140471 43.032833 52.569702 
" clip-path="url(#p785d256c52)" style="fill: none; opacity: 0.679054; stroke: #c1c1c1; stroke-width: 0.358108; stroke-linecap: round"/>
   </g>
   <g id="patch_92">
    <path d="M 99.406259 65.785802 
Q 95.628717 69.212615 91.851174 72.639428 
" clip-path="url(#p785d256c52)" style="fill: none; opacity: 0.752381; stroke: #959595; stroke-width: 0.504762; stroke-linecap: round"/>
   </g>
   <g id="patch_93">
    <path d="M 69.966902 54.874585 
Q 77.427818 63.542222 84.888735 72.209859 
" clip-path="url(#p785d256c52)" style="fill: none; stroke: #000000; stroke-linecap: round"/>
   </g>
   <g id="patch_94">
    <path d="M 95.555943 69.278632 
Q 99.333485 65.851819 103.111027 62.425006 
" clip-path="url(#p785d256c52)" style="fill: none; opacity: 0.752381; stroke: #959595; stroke-width: 0.504762; stroke-linecap: round"/>
   </g>
   <g id="patch_95">
    <path d="M 81.626017 68.419432 
Q 74.1651 59.751795 66.704183 51.084158 
" clip-path="url(#p785d256c52)" style="fill: none; stroke: #000000; stroke-linecap: round"/>
   </g>
   <g id="patch_96">
    <path d="M 64.826188 57.201366 
Q 65.885963 64.794316 66.945738 72.387266 
" clip-path="url(#p785d256c52)" style="fill: none; opacity: 0.635714; stroke: #d4d4d4; stroke-width: 0.271429; stroke-linecap: round"/>
   </g>
   <g id="patch_97">
    <path d="M 59.946156 75.063959 
Q 61.393766 75.49197 62.841376 75.919981 
" clip-path="url(#p785d256c52)" style="fill: none; opacity: 0.62381; stroke: #dadada; stroke-width: 0.247619; stroke-linecap: round"/>
   </g>
   <g id="patch_98">
    <path d="M 66.254222 67.432773 
Q 65.194447 59.839822 64.134672 52.246872 
" clip-path="url(#p785d256c52)" style="fill: none; opacity: 0.635714; stroke: #d4d4d4; stroke-width: 0.271429; stroke-linecap: round"/>
   </g>
   <g id="patch_99">
    <path d="M 58.047777 74.50267 
Q 56.600167 74.074659 55.152557 73.646648 
" clip-path="url(#p785d256c52)" style="fill: none; opacity: 0.62381; stroke: #dadada; stroke-width: 0.247619; stroke-linecap: round"/>
   </g>
   <g id="patch_100">
    <path d="M 77.615016 76.685899 
Q 80.386157 76.504855 83.157298 76.323811 
" clip-path="url(#p785d256c52)" style="fill: none; opacity: 0.82381; stroke: #6d6d6d; stroke-width: 0.647619; stroke-linecap: round"/>
   </g>
   <g id="patch_101">
    <path d="M 78.170897 76.649582 
Q 75.399755 76.830626 72.628614 77.01167 
" clip-path="url(#p785d256c52)" style="fill: none; opacity: 0.82381; stroke: #6d6d6d; stroke-width: 0.647619; stroke-linecap: round"/>
   </g>
   <g id="patch_102">
    <path d="M 69.973858 44.659486 
Q 77.468786 53.096645 84.963713 61.533803 
" clip-path="url(#p785d256c52)" style="fill: none; stroke: #000000; stroke-linecap: round"/>
   </g>
   <g id="patch_103">
    <path d="M 60.051981 62.540813 
Q 71.677478 63.664685 83.302975 64.788556 
" clip-path="url(#p785d256c52)" style="fill: none; opacity: 0.763514; stroke: #8f8f8f; stroke-width: 0.527027; stroke-linecap: round"/>
   </g>
   <g id="patch_104">
    <path d="M 81.639567 57.791759 
Q 74.144639 49.3546 66.649712 40.917441 
" clip-path="url(#p785d256c52)" style="fill: none; stroke: #000000; stroke-linecap: round"/>
   </g>
   <g id="patch_105">
    <path d="M 78.331753 64.307973 
Q 66.706256 63.184102 55.080758 62.06023 
" clip-path="url(#p785d256c52)" style="fill: none; opacity: 0.763514; stroke: #8f8f8f; stroke-width: 0.527027; stroke-linecap: round"/>
   </g>
   <g id="patch_106">
    <path d="M 64.75307 47.07625 
Q 65.799355 54.355426 66.84564 61.634603 
" clip-path="url(#p785d256c52)" style="fill: none; opacity: 0.648649; stroke: #cfcfcf; stroke-width: 0.297297; stroke-linecap: round"/>
   </g>
   <g id="patch_107">
    <path d="M 66.134585 56.687675 
Q 65.0883 49.408498 64.042015 42.129321 
" clip-path="url(#p785d256c52)" style="fill: none; opacity: 0.648649; stroke: #cfcfcf; stroke-width: 0.297297; stroke-linecap: round"/>
   </g>
   <g id="patch_108">
    <path d="M 77.537708 65.95049 
Q 80.414124 65.76831 83.29054 65.586131 
" clip-path="url(#p785d256c52)" style="fill: none; opacity: 0.672297; stroke: #c5c5c5; stroke-width: 0.344595; stroke-linecap: round"/>
   </g>
   <g id="patch_109">
    <path d="M 78.301769 65.902098 
Q 75.425353 66.084277 72.548937 66.266457 
" clip-path="url(#p785d256c52)" style="fill: none; opacity: 0.672297; stroke: #c5c5c5; stroke-width: 0.344595; stroke-linecap: round"/>
   </g>
  </g>
 </g>
 <defs>
  <clipPath id="p785d256c52">
   <rect x="18.36" y="17.28" width="110.88" height="110.88"/>
  </clipPath>
 </defs>
</svg>
