<?xml version="1.0" encoding="utf-8" standalone="no"?>
<!DOCTYPE svg PUBLIC "-//W3C//DTD SVG 1.1//EN"
  "http://www.w3.org/Graphics/SVG/1.1/DTD/svg11.dtd">
<svg xmlns:xlink="http://www.w3.org/1999/xlink" width="144pt" height="144pt" viewBox="0 0 144 144" xmlns="http://www.w3.org/2000/svg" version="1.1">
 <metadata>
  <rdf:RDF xmlns:dc="http://purl.org/dc/elements/1.1/" xmlns:cc="http://creativecommons.org/ns#" xmlns:rdf="http://www.w3.org/1999/02/22-rdf-syntax-ns#">
   <cc:Work>
    <dc:type rdf:resource="http://purl.org/dc/dcmitype/StillImage"/>
    <dc:date>2025-06-03T17:18:14.862768</dc:date>
    <dc:format>image/svg+xml</dc:format>
    <dc:creator>
     <cc:Agent>
      <dc:title>Matplotlib v3.9.2, https://matplotlib.org/</dc:title>
     </cc:Agent>
    </dc:creator>
   </cc:Work>
  </rdf:RDF>
 </metadata>
 <defs>
  <style type="text/css">*{stroke-linejoin: round; stroke-linecap: butt}</style>
 </defs>
 <g id="figure_1">
  <g id="patch_1">
   <path d="M 0 144 
L 144 144 
L 144 0 
L 0 0 
z
" style="fill: #ffffff"/>
  </g>
  <g id="axes_1">
   <g id="patch_2">
    <path d="M 18 128.16 
L 129.6 128.16 
L 129.6 17.28 
L 18 17.28 
z
" style="fill: #ffffff"/>
   </g>
   <g id="matplotlib.axis_1">
    <g id="xtick_1">
     <g id="line2d_1">
      <defs>
       <path id="m72193f106c" d="M 0 0 
L 0 3.5 
" style="stroke: #000000; stroke-width: 0.8"/>
      </defs>
      <g>
       <use xlink:href="#m72193f106c" x="18" y="128.16" style="stroke: #000000; stroke-width: 0.8"/>
      </g>
     </g>
     <g id="text_1">
      <!-- 0.0 -->
      <g transform="translate(10.048437 142.758438) scale(0.1 -0.1)">
       <defs>
        <path id="DejaVuSerif-30" d="M 2034 219 
Q 2513 219 2750 744 
Q 2988 1269 2988 2328 
Q 2988 3391 2750 3916 
Q 2513 4441 2034 4441 
Q 1556 4441 1318 3916 
Q 1081 3391 1081 2328 
Q 1081 1269 1318 744 
Q 1556 219 2034 219 
z
M 2034 -91 
Q 1275 -91 848 546 
Q 422 1184 422 2328 
Q 422 3475 848 4112 
Q 1275 4750 2034 4750 
Q 2797 4750 3222 4112 
Q 3647 3475 3647 2328 
Q 3647 1184 3222 546 
Q 2797 -91 2034 -91 
z
" transform="scale(0.015625)"/>
        <path id="DejaVuSerif-2e" d="M 603 325 
Q 603 500 722 622 
Q 841 744 1019 744 
Q 1191 744 1312 622 
Q 1434 500 1434 325 
Q 1434 153 1312 31 
Q 1191 -91 1019 -91 
Q 841 -91 722 29 
Q 603 150 603 325 
z
" transform="scale(0.015625)"/>
       </defs>
       <use xlink:href="#DejaVuSerif-30"/>
       <use xlink:href="#DejaVuSerif-2e" x="63.623047"/>
       <use xlink:href="#DejaVuSerif-30" x="95.410156"/>
      </g>
     </g>
    </g>
    <g id="xtick_2">
     <g id="line2d_2">
      <g>
       <use xlink:href="#m72193f106c" x="73.8" y="128.16" style="stroke: #000000; stroke-width: 0.8"/>
      </g>
     </g>
     <g id="text_2">
      <!-- 0.5 -->
      <g transform="translate(65.848438 142.758438) scale(0.1 -0.1)">
       <defs>
        <path id="DejaVuSerif-35" d="M 3219 4666 
L 3219 4153 
L 1081 4153 
L 1081 2816 
Q 1244 2928 1461 2984 
Q 1678 3041 1947 3041 
Q 2703 3041 3140 2622 
Q 3578 2203 3578 1478 
Q 3578 738 3136 323 
Q 2694 -91 1894 -91 
Q 1572 -91 1234 -12 
Q 897 66 544 225 
L 544 1131 
L 897 1131 
Q 925 688 1179 453 
Q 1434 219 1894 219 
Q 2388 219 2653 544 
Q 2919 869 2919 1478 
Q 2919 2084 2655 2407 
Q 2391 2731 1894 2731 
Q 1613 2731 1398 2631 
Q 1184 2531 1019 2322 
L 750 2322 
L 750 4666 
L 3219 4666 
z
" transform="scale(0.015625)"/>
       </defs>
       <use xlink:href="#DejaVuSerif-30"/>
       <use xlink:href="#DejaVuSerif-2e" x="63.623047"/>
       <use xlink:href="#DejaVuSerif-35" x="95.410156"/>
      </g>
     </g>
    </g>
    <g id="xtick_3">
     <g id="line2d_3">
      <g>
       <use xlink:href="#m72193f106c" x="129.6" y="128.16" style="stroke: #000000; stroke-width: 0.8"/>
      </g>
     </g>
     <g id="text_3">
      <!-- 1.0 -->
      <g transform="translate(121.648438 142.758438) scale(0.1 -0.1)">
       <defs>
        <path id="DejaVuSerif-31" d="M 909 0 
L 909 331 
L 1722 331 
L 1722 4213 
L 781 3603 
L 781 4013 
L 1919 4750 
L 2350 4750 
L 2350 331 
L 3163 331 
L 3163 0 
L 909 0 
z
" transform="scale(0.015625)"/>
       </defs>
       <use xlink:href="#DejaVuSerif-31"/>
       <use xlink:href="#DejaVuSerif-2e" x="63.623047"/>
       <use xlink:href="#DejaVuSerif-30" x="95.410156"/>
      </g>
     </g>
    </g>
   </g>
   <g id="matplotlib.axis_2">
    <g id="ytick_1">
     <g id="line2d_4">
      <defs>
       <path id="maead31530f" d="M 0 0 
L -3.5 0 
" style="stroke: #000000; stroke-width: 0.8"/>
      </defs>
      <g>
       <use xlink:href="#maead31530f" x="18" y="128.16" style="stroke: #000000; stroke-width: 0.8"/>
      </g>
     </g>
     <g id="text_4">
      <!-- 0.0 -->
      <g transform="translate(-4.903125 131.959219) scale(0.1 -0.1)">
       <use xlink:href="#DejaVuSerif-30"/>
       <use xlink:href="#DejaVuSerif-2e" x="63.623047"/>
       <use xlink:href="#DejaVuSerif-30" x="95.410156"/>
      </g>
     </g>
    </g>
    <g id="ytick_2">
     <g id="line2d_5">
      <g>
       <use xlink:href="#maead31530f" x="18" y="105.984" style="stroke: #000000; stroke-width: 0.8"/>
      </g>
     </g>
     <g id="text_5">
      <!-- 0.2 -->
      <g transform="translate(-4.903125 109.783219) scale(0.1 -0.1)">
       <defs>
        <path id="DejaVuSerif-32" d="M 819 3553 
L 469 3553 
L 469 4384 
Q 803 4563 1142 4656 
Q 1481 4750 1806 4750 
Q 2534 4750 2956 4397 
Q 3378 4044 3378 3438 
Q 3378 2753 2422 1800 
Q 2347 1728 2309 1691 
L 1131 513 
L 3078 513 
L 3078 1088 
L 3444 1088 
L 3444 0 
L 434 0 
L 434 341 
L 1850 1753 
Q 2319 2222 2519 2614 
Q 2719 3006 2719 3438 
Q 2719 3909 2473 4175 
Q 2228 4441 1797 4441 
Q 1350 4441 1106 4219 
Q 863 3997 819 3553 
z
" transform="scale(0.015625)"/>
       </defs>
       <use xlink:href="#DejaVuSerif-30"/>
       <use xlink:href="#DejaVuSerif-2e" x="63.623047"/>
       <use xlink:href="#DejaVuSerif-32" x="95.410156"/>
      </g>
     </g>
    </g>
    <g id="ytick_3">
     <g id="line2d_6">
      <g>
       <use xlink:href="#maead31530f" x="18" y="83.808" style="stroke: #000000; stroke-width: 0.8"/>
      </g>
     </g>
     <g id="text_6">
      <!-- 0.4 -->
      <g transform="translate(-4.903125 87.607219) scale(0.1 -0.1)">
       <defs>
        <path id="DejaVuSerif-34" d="M 2234 1581 
L 2234 4063 
L 641 1581 
L 2234 1581 
z
M 3609 0 
L 1484 0 
L 1484 331 
L 2234 331 
L 2234 1247 
L 197 1247 
L 197 1588 
L 2241 4750 
L 2859 4750 
L 2859 1581 
L 3750 1581 
L 3750 1247 
L 2859 1247 
L 2859 331 
L 3609 331 
L 3609 0 
z
" transform="scale(0.015625)"/>
       </defs>
       <use xlink:href="#DejaVuSerif-30"/>
       <use xlink:href="#DejaVuSerif-2e" x="63.623047"/>
       <use xlink:href="#DejaVuSerif-34" x="95.410156"/>
      </g>
     </g>
    </g>
    <g id="ytick_4">
     <g id="line2d_7">
      <g>
       <use xlink:href="#maead31530f" x="18" y="61.632" style="stroke: #000000; stroke-width: 0.8"/>
      </g>
     </g>
     <g id="text_7">
      <!-- 0.6 -->
      <g transform="translate(-4.903125 65.431219) scale(0.1 -0.1)">
       <defs>
        <path id="DejaVuSerif-36" d="M 2094 219 
Q 2534 219 2771 542 
Q 3009 866 3009 1472 
Q 3009 2078 2771 2401 
Q 2534 2725 2094 2725 
Q 1647 2725 1412 2412 
Q 1178 2100 1178 1509 
Q 1178 888 1415 553 
Q 1653 219 2094 219 
z
M 1075 2569 
Q 1288 2803 1556 2918 
Q 1825 3034 2163 3034 
Q 2859 3034 3264 2615 
Q 3669 2197 3669 1472 
Q 3669 763 3233 336 
Q 2797 -91 2069 -91 
Q 1278 -91 853 498 
Q 428 1088 428 2181 
Q 428 3406 931 4078 
Q 1434 4750 2350 4750 
Q 2597 4750 2869 4703 
Q 3141 4656 3425 4563 
L 3425 3794 
L 3072 3794 
Q 3034 4109 2831 4275 
Q 2628 4441 2284 4441 
Q 1678 4441 1381 3981 
Q 1084 3522 1075 2569 
z
" transform="scale(0.015625)"/>
       </defs>
       <use xlink:href="#DejaVuSerif-30"/>
       <use xlink:href="#DejaVuSerif-2e" x="63.623047"/>
       <use xlink:href="#DejaVuSerif-36" x="95.410156"/>
      </g>
     </g>
    </g>
    <g id="ytick_5">
     <g id="line2d_8">
      <g>
       <use xlink:href="#maead31530f" x="18" y="39.456" style="stroke: #000000; stroke-width: 0.8"/>
      </g>
     </g>
     <g id="text_8">
      <!-- 0.8 -->
      <g transform="translate(-4.903125 43.255219) scale(0.1 -0.1)">
       <defs>
        <path id="DejaVuSerif-38" d="M 2981 1275 
Q 2981 1775 2732 2051 
Q 2484 2328 2034 2328 
Q 1584 2328 1336 2051 
Q 1088 1775 1088 1275 
Q 1088 772 1336 495 
Q 1584 219 2034 219 
Q 2484 219 2732 495 
Q 2981 772 2981 1275 
z
M 2853 3541 
Q 2853 3966 2637 4203 
Q 2422 4441 2034 4441 
Q 1650 4441 1433 4203 
Q 1216 3966 1216 3541 
Q 1216 3113 1433 2875 
Q 1650 2638 2034 2638 
Q 2422 2638 2637 2875 
Q 2853 3113 2853 3541 
z
M 2516 2484 
Q 3047 2413 3344 2092 
Q 3641 1772 3641 1275 
Q 3641 619 3225 264 
Q 2809 -91 2034 -91 
Q 1263 -91 845 264 
Q 428 619 428 1275 
Q 428 1772 725 2092 
Q 1022 2413 1556 2484 
Q 1084 2569 832 2842 
Q 581 3116 581 3541 
Q 581 4103 968 4426 
Q 1356 4750 2034 4750 
Q 2713 4750 3100 4426 
Q 3488 4103 3488 3541 
Q 3488 3116 3236 2842 
Q 2984 2569 2516 2484 
z
" transform="scale(0.015625)"/>
       </defs>
       <use xlink:href="#DejaVuSerif-30"/>
       <use xlink:href="#DejaVuSerif-2e" x="63.623047"/>
       <use xlink:href="#DejaVuSerif-38" x="95.410156"/>
      </g>
     </g>
    </g>
    <g id="ytick_6">
     <g id="line2d_9">
      <g>
       <use xlink:href="#maead31530f" x="18" y="17.28" style="stroke: #000000; stroke-width: 0.8"/>
      </g>
     </g>
     <g id="text_9">
      <!-- 1.0 -->
      <g transform="translate(-4.903125 21.079219) scale(0.1 -0.1)">
       <use xlink:href="#DejaVuSerif-31"/>
       <use xlink:href="#DejaVuSerif-2e" x="63.623047"/>
       <use xlink:href="#DejaVuSerif-30" x="95.410156"/>
      </g>
     </g>
    </g>
   </g>
   <g id="patch_3">
    <path d="M 18 128.16 
L 18 17.28 
" style="fill: none; stroke: #000000; stroke-width: 0.8; stroke-linejoin: miter; stroke-linecap: square"/>
   </g>
   <g id="patch_4">
    <path d="M 129.6 128.16 
L 129.6 17.28 
" style="fill: none; stroke: #000000; stroke-width: 0.8; stroke-linejoin: miter; stroke-linecap: square"/>
   </g>
   <g id="patch_5">
    <path d="M 18 128.16 
L 129.6 128.16 
" style="fill: none; stroke: #000000; stroke-width: 0.8; stroke-linejoin: miter; stroke-linecap: square"/>
   </g>
   <g id="patch_6">
    <path d="M 18 17.28 
L 129.6 17.28 
" style="fill: none; stroke: #000000; stroke-width: 0.8; stroke-linejoin: miter; stroke-linecap: square"/>
   </g>
  </g>
  <g id="patch_7">
   <path d="M 18.36 128.16 
L 129.24 128.16 
L 129.24 17.28 
L 18.36 17.28 
z
" style="fill: #ffffff"/>
  </g>
  <g id="axes_2">
   <g id="patch_8">
    <path d="M 88.376295 77.17945 
Q 87.607094 76.956016 86.837894 76.732581 
" clip-path="url(#p031ec8f55d)" style="fill: none; opacity: 0.851327; stroke: #5f5f5f; stroke-width: 0.702655; stroke-linecap: round"/>
   </g>
   <g id="Path3DCollection_1">
    <path d="M 82.036969 78.873561 
C 82.974603 78.873561 83.873961 78.501035 84.536969 77.838027 
C 85.199977 77.175019 85.572503 76.275662 85.572503 75.338027 
C 85.572503 74.400393 85.199977 73.501035 84.536969 72.838027 
C 83.873961 72.175019 82.974603 71.802493 82.036969 71.802493 
C 81.099334 71.802493 80.199977 72.175019 79.536969 72.838027 
C 78.873961 73.501035 78.501435 74.400393 78.501435 75.338027 
C 78.501435 76.275662 78.873961 77.175019 79.536969 77.838027 
C 80.199977 78.501035 81.099334 78.873561 82.036969 78.873561 
z
" clip-path="url(#p031ec8f55d)" style="fill: #67000d; stroke: #00ff00; stroke-width: 2"/>
    <path d="M 63.769997 76.881398 
C 63.863761 76.881398 63.953697 76.844145 64.019997 76.777844 
C 64.086298 76.711543 64.123551 76.621608 64.123551 76.527844 
C 64.123551 76.434081 64.086298 76.344145 64.019997 76.277844 
C 63.953697 76.211543 63.863761 76.174291 63.769997 76.174291 
C 63.676234 76.174291 63.586298 76.211543 63.519997 76.277844 
C 63.453697 76.344145 63.416444 76.434081 63.416444 76.527844 
C 63.416444 76.621608 63.453697 76.711543 63.519997 76.777844 
C 63.586298 76.844145 63.676234 76.881398 63.769997 76.881398 
z
" clip-path="url(#p031ec8f55d)" style="fill: #fff5f0; stroke: #00ff00; stroke-width: 2"/>
    <path d="M 97.976735 80.321703 
C 98.070498 80.321703 98.160434 80.28445 98.226735 80.21815 
C 98.293036 80.151849 98.330288 80.061913 98.330288 79.96815 
C 98.330288 79.874386 98.293036 79.78445 98.226735 79.71815 
C 98.160434 79.651849 98.070498 79.614596 97.976735 79.614596 
C 97.882972 79.614596 97.793036 79.651849 97.726735 79.71815 
C 97.660434 79.78445 97.623182 79.874386 97.623182 79.96815 
C 97.623182 80.061913 97.660434 80.151849 97.726735 80.21815 
C 97.793036 80.28445 97.882972 80.321703 97.976735 80.321703 
z
" clip-path="url(#p031ec8f55d)" style="fill: #fff5f0; stroke: #ff0000; stroke-width: 2"/>
    <path d="M 49.391636 83.537671 
C 49.485399 83.537671 49.575335 83.500419 49.641636 83.434118 
C 49.707936 83.367817 49.745189 83.277881 49.745189 83.184118 
C 49.745189 83.090354 49.707936 83.000419 49.641636 82.934118 
C 49.575335 82.867817 49.485399 82.830565 49.391636 82.830565 
C 49.297872 82.830565 49.207936 82.867817 49.141636 82.934118 
C 49.075335 83.000419 49.038082 83.090354 49.038082 83.184118 
C 49.038082 83.277881 49.075335 83.367817 49.141636 83.434118 
C 49.207936 83.500419 49.297872 83.537671 49.391636 83.537671 
z
" clip-path="url(#p031ec8f55d)" style="fill: #fff5f0; stroke: #00ff00; stroke-width: 2"/>
    <path d="M 105.914786 89.354064 
C 106.00855 89.354064 106.098485 89.316812 106.164786 89.250511 
C 106.231087 89.18421 106.268339 89.094274 106.268339 89.000511 
C 106.268339 88.906747 106.231087 88.816812 106.164786 88.750511 
C 106.098485 88.68421 106.00855 88.646957 105.914786 88.646957 
C 105.821023 88.646957 105.731087 88.68421 105.664786 88.750511 
C 105.598485 88.816812 105.561233 88.906747 105.561233 89.000511 
C 105.561233 89.094274 105.598485 89.18421 105.664786 89.250511 
C 105.731087 89.316812 105.821023 89.354064 105.914786 89.354064 
z
" clip-path="url(#p031ec8f55d)" style="fill: #fff5f0; stroke: #00ff00; stroke-width: 2"/>
    <path d="M 44.273099 93.544363 
C 44.366863 93.544363 44.456799 93.507111 44.523099 93.44081 
C 44.5894 93.374509 44.626653 93.284573 44.626653 93.19081 
C 44.626653 93.097046 44.5894 93.007111 44.523099 92.94081 
C 44.456799 92.874509 44.366863 92.837256 44.273099 92.837256 
C 44.179336 92.837256 44.0894 92.874509 44.023099 92.94081 
C 43.956799 93.007111 43.919546 93.097046 43.919546 93.19081 
C 43.919546 93.284573 43.956799 93.374509 44.023099 93.44081 
C 44.0894 93.507111 44.179336 93.544363 44.273099 93.544363 
z
" clip-path="url(#p031ec8f55d)" style="fill: #fff5f0; stroke: #00ff00; stroke-width: 2"/>
    <path d="M 102.317046 99.69325 
C 102.410809 99.69325 102.500745 99.655997 102.567046 99.589697 
C 102.633347 99.523396 102.670599 99.43346 102.670599 99.339697 
C 102.670599 99.245933 102.633347 99.155997 102.567046 99.089697 
C 102.500745 99.023396 102.410809 98.986143 102.317046 98.986143 
C 102.223282 98.986143 102.133347 99.023396 102.067046 99.089697 
C 102.000745 99.155997 101.963492 99.245933 101.963492 99.339697 
C 101.963492 99.43346 102.000745 99.523396 102.067046 99.589697 
C 102.133347 99.655997 102.223282 99.69325 102.317046 99.69325 
z
" clip-path="url(#p031ec8f55d)" style="fill: #fff5f0; stroke: #00ff00; stroke-width: 2"/>
    <path d="M 51.095278 103.271766 
C 51.189042 103.271766 51.278977 103.234513 51.345278 103.168212 
C 51.411579 103.101911 51.448832 103.011976 51.448832 102.918212 
C 51.448832 102.824449 51.411579 102.734513 51.345278 102.668212 
C 51.278977 102.601911 51.189042 102.564659 51.095278 102.564659 
C 51.001515 102.564659 50.911579 102.601911 50.845278 102.668212 
C 50.778977 102.734513 50.741725 102.824449 50.741725 102.918212 
C 50.741725 103.011976 50.778977 103.101911 50.845278 103.168212 
C 50.911579 103.234513 51.001515 103.271766 51.095278 103.271766 
z
" clip-path="url(#p031ec8f55d)" style="fill: #fff5f0; stroke: #00ff00; stroke-width: 2"/>
    <path d="M 87.764928 110.433215 
C 88.702563 110.433215 89.60192 110.060689 90.264928 109.397681 
C 90.927936 108.734673 91.300462 107.835316 91.300462 106.897681 
C 91.300462 105.960046 90.927936 105.060689 90.264928 104.397681 
C 89.60192 103.734673 88.702563 103.362147 87.764928 103.362147 
C 86.827294 103.362147 85.927936 103.734673 85.264928 104.397681 
C 84.60192 105.060689 84.229394 105.960046 84.229394 106.897681 
C 84.229394 107.835316 84.60192 108.734673 85.264928 109.397681 
C 85.927936 110.060689 86.827294 110.433215 87.764928 110.433215 
z
" clip-path="url(#p031ec8f55d)" style="fill: #67000d; stroke: #00ff00; stroke-width: 2"/>
    <path d="M 67.86666 111.847611 
C 68.804295 111.847611 69.703652 111.475085 70.36666 110.812077 
C 71.029668 110.149069 71.402194 109.249711 71.402194 108.312077 
C 71.402194 107.374442 71.029668 106.475085 70.36666 105.812077 
C 69.703652 105.149069 68.804295 104.776543 67.86666 104.776543 
C 66.929025 104.776543 66.029668 105.149069 65.36666 105.812077 
C 64.703652 106.475085 64.331126 107.374442 64.331126 108.312077 
C 64.331126 109.249711 64.703652 110.149069 65.36666 110.812077 
C 66.029668 111.475085 66.929025 111.847611 67.86666 111.847611 
z
" clip-path="url(#p031ec8f55d)" style="fill: #67000d; stroke: #00ff00; stroke-width: 2"/>
   </g>
   <g id="patch_9">
    <path d="M 91.637409 78.126726 
Q 92.40661 78.350161 93.17581 78.573595 
" clip-path="url(#p031ec8f55d)" style="fill: none; opacity: 0.851327; stroke: #5f5f5f; stroke-width: 0.702655; stroke-linecap: round"/>
   </g>
   <g id="Path3DCollection_2">
    <path d="M 82.099153 69.33188 
C 83.036787 69.33188 83.936145 68.959354 84.599153 68.296346 
C 85.26216 67.633338 85.634687 66.733981 85.634687 65.796346 
C 85.634687 64.858712 85.26216 63.959354 84.599153 63.296346 
C 83.936145 62.633338 83.036787 62.260812 82.099153 62.260812 
C 81.161518 62.260812 80.26216 62.633338 79.599153 63.296346 
C 78.936145 63.959354 78.563619 64.858712 78.563619 65.796346 
C 78.563619 66.733981 78.936145 67.633338 79.599153 68.296346 
C 80.26216 68.959354 81.161518 69.33188 82.099153 69.33188 
z
" clip-path="url(#p031ec8f55d)" style="fill: #08306b; stroke: #00ff00; stroke-width: 2"/>
    <path d="M 63.663248 67.318011 
C 63.757012 67.318011 63.846948 67.280758 63.913248 67.214458 
C 63.979549 67.148157 64.016802 67.058221 64.016802 66.964458 
C 64.016802 66.870694 63.979549 66.780758 63.913248 66.714458 
C 63.846948 66.648157 63.757012 66.610904 63.663248 66.610904 
C 63.569485 66.610904 63.479549 66.648157 63.413248 66.714458 
C 63.346948 66.780758 63.309695 66.870694 63.309695 66.964458 
C 63.309695 67.058221 63.346948 67.148157 63.413248 67.214458 
C 63.479549 67.280758 63.569485 67.318011 63.663248 67.318011 
z
" clip-path="url(#p031ec8f55d)" style="fill: #f7fbff; stroke: #00ff00; stroke-width: 2"/>
    <path d="M 98.188804 70.695968 
C 98.282568 70.695968 98.372504 70.658715 98.438804 70.592415 
C 98.505105 70.526114 98.542358 70.436178 98.542358 70.342415 
C 98.542358 70.248651 98.505105 70.158715 98.438804 70.092415 
C 98.372504 70.026114 98.282568 69.988861 98.188804 69.988861 
C 98.095041 69.988861 98.005105 70.026114 97.938804 70.092415 
C 97.872504 70.158715 97.835251 70.248651 97.835251 70.342415 
C 97.835251 70.436178 97.872504 70.526114 97.938804 70.592415 
C 98.005105 70.658715 98.095041 70.695968 98.188804 70.695968 
z
" clip-path="url(#p031ec8f55d)" style="fill: #f7fbff; stroke: #ff0000; stroke-width: 2"/>
    <path d="M 49.14716 73.854208 
C 49.240924 73.854208 49.330859 73.816955 49.39716 73.750654 
C 49.463461 73.684353 49.500714 73.594418 49.500714 73.500654 
C 49.500714 73.406891 49.463461 73.316955 49.39716 73.250654 
C 49.330859 73.184353 49.240924 73.147101 49.14716 73.147101 
C 49.053397 73.147101 48.963461 73.184353 48.89716 73.250654 
C 48.830859 73.316955 48.793607 73.406891 48.793607 73.500654 
C 48.793607 73.594418 48.830859 73.684353 48.89716 73.750654 
C 48.963461 73.816955 49.053397 73.854208 49.14716 73.854208 
z
" clip-path="url(#p031ec8f55d)" style="fill: #f7fbff; stroke: #00ff00; stroke-width: 2"/>
    <path d="M 106.208444 79.567552 
C 106.302208 79.567552 106.392144 79.5303 106.458444 79.463999 
C 106.524745 79.397698 106.561998 79.307762 106.561998 79.213999 
C 106.561998 79.120236 106.524745 79.0303 106.458444 78.963999 
C 106.392144 78.897698 106.302208 78.860446 106.208444 78.860446 
C 106.114681 78.860446 106.024745 78.897698 105.958444 78.963999 
C 105.892144 79.0303 105.854891 79.120236 105.854891 79.213999 
C 105.854891 79.307762 105.892144 79.397698 105.958444 79.463999 
C 106.024745 79.5303 106.114681 79.567552 106.208444 79.567552 
z
" clip-path="url(#p031ec8f55d)" style="fill: #f7fbff; stroke: #00ff00; stroke-width: 2"/>
    <path d="M 43.972059 83.684699 
C 44.065822 83.684699 44.155758 83.647446 44.222059 83.581145 
C 44.288359 83.514844 44.325612 83.424909 44.325612 83.331145 
C 44.325612 83.237382 44.288359 83.147446 44.222059 83.081145 
C 44.155758 83.014844 44.065822 82.977592 43.972059 82.977592 
C 43.878295 82.977592 43.788359 83.014844 43.722059 83.081145 
C 43.655758 83.147446 43.618505 83.237382 43.618505 83.331145 
C 43.618505 83.424909 43.655758 83.514844 43.722059 83.581145 
C 43.788359 83.647446 43.878295 83.684699 43.972059 83.684699 
z
" clip-path="url(#p031ec8f55d)" style="fill: #f7fbff; stroke: #00ff00; stroke-width: 2"/>
    <path d="M 102.583634 89.727887 
C 102.677397 89.727887 102.767333 89.690635 102.833634 89.624334 
C 102.899935 89.558033 102.937187 89.468098 102.937187 89.374334 
C 102.937187 89.280571 102.899935 89.190635 102.833634 89.124334 
C 102.767333 89.058033 102.677397 89.020781 102.583634 89.020781 
C 102.48987 89.020781 102.399935 89.058033 102.333634 89.124334 
C 102.267333 89.190635 102.23008 89.280571 102.23008 89.374334 
C 102.23008 89.468098 102.267333 89.558033 102.333634 89.624334 
C 102.399935 89.690635 102.48987 89.727887 102.583634 89.727887 
z
" clip-path="url(#p031ec8f55d)" style="fill: #f7fbff; stroke: #00ff00; stroke-width: 2"/>
    <path d="M 50.854164 93.245791 
C 50.947928 93.245791 51.037863 93.208539 51.104164 93.142238 
C 51.170465 93.075937 51.207717 92.986001 51.207717 92.892238 
C 51.207717 92.798475 51.170465 92.708539 51.104164 92.642238 
C 51.037863 92.575937 50.947928 92.538685 50.854164 92.538685 
C 50.760401 92.538685 50.670465 92.575937 50.604164 92.642238 
C 50.537863 92.708539 50.500611 92.798475 50.500611 92.892238 
C 50.500611 92.986001 50.537863 93.075937 50.604164 93.142238 
C 50.670465 93.208539 50.760401 93.245791 50.854164 93.245791 
z
" clip-path="url(#p031ec8f55d)" style="fill: #f7fbff; stroke: #00ff00; stroke-width: 2"/>
    <path d="M 87.890443 100.340618 
C 88.828077 100.340618 89.727435 99.968092 90.390443 99.305084 
C 91.053451 98.642076 91.425977 97.742718 91.425977 96.805084 
C 91.425977 95.867449 91.053451 94.968092 90.390443 94.305084 
C 89.727435 93.642076 88.828077 93.26955 87.890443 93.26955 
C 86.952808 93.26955 86.053451 93.642076 85.390443 94.305084 
C 84.727435 94.968092 84.354909 95.867449 84.354909 96.805084 
C 84.354909 97.742718 84.727435 98.642076 85.390443 99.305084 
C 86.053451 99.968092 86.952808 100.340618 87.890443 100.340618 
z
" clip-path="url(#p031ec8f55d)" style="fill: #08306b; stroke: #00ff00; stroke-width: 2"/>
    <path d="M 67.791556 101.731532 
C 68.729191 101.731532 69.628549 101.359006 70.291556 100.695998 
C 70.954564 100.032991 71.32709 99.133633 71.32709 98.195998 
C 71.32709 97.258364 70.954564 96.359006 70.291556 95.695998 
C 69.628549 95.032991 68.729191 94.660464 67.791556 94.660464 
C 66.853922 94.660464 65.954564 95.032991 65.291556 95.695998 
C 64.628549 96.359006 64.256023 97.258364 64.256023 98.195998 
C 64.256023 99.133633 64.628549 100.032991 65.291556 100.695998 
C 65.954564 101.359006 66.853922 101.731532 67.791556 101.731532 
z
" clip-path="url(#p031ec8f55d)" style="fill: #08306b; stroke: #00ff00; stroke-width: 2"/>
   </g>
   <g id="patch_10">
    <path d="M 88.568795 67.624318 
Q 87.739556 67.39002 86.910318 67.155722 
" clip-path="url(#p031ec8f55d)" style="fill: none; opacity: 0.635892; stroke: #d4d4d4; stroke-width: 0.271784; stroke-linecap: round"/>
   </g>
   <g id="Path3DCollection_3">
    <path d="M 82.162495 59.612457 
C 83.100129 59.612457 83.999487 59.239931 84.662495 58.576923 
C 85.325503 57.913916 85.698029 57.014558 85.698029 56.076923 
C 85.698029 55.139289 85.325503 54.239931 84.662495 53.576923 
C 83.999487 52.913916 83.100129 52.541389 82.162495 52.541389 
C 81.22486 52.541389 80.325503 52.913916 79.662495 53.576923 
C 78.999487 54.239931 78.626961 55.139289 78.626961 56.076923 
C 78.626961 57.014558 78.999487 57.913916 79.662495 58.576923 
C 80.325503 59.239931 81.22486 59.612457 82.162495 59.612457 
z
" clip-path="url(#p031ec8f55d)" style="fill: #00441b; stroke: #00ff00; stroke-width: 2"/>
    <path d="M 63.554504 57.575862 
C 63.648268 57.575862 63.738203 57.538609 63.804504 57.472308 
C 63.870805 57.406008 63.908057 57.316072 63.908057 57.222308 
C 63.908057 57.128545 63.870805 57.038609 63.804504 56.972308 
C 63.738203 56.906008 63.648268 56.868755 63.554504 56.868755 
C 63.460741 56.868755 63.370805 56.906008 63.304504 56.972308 
C 63.238203 57.038609 63.200951 57.128545 63.200951 57.222308 
C 63.200951 57.316072 63.238203 57.406008 63.304504 57.472308 
C 63.370805 57.538609 63.460741 57.575862 63.554504 57.575862 
z
" clip-path="url(#p031ec8f55d)" style="fill: #f7fcf5; stroke: #00ff00; stroke-width: 2"/>
    <path d="M 98.404877 60.88851 
C 98.498641 60.88851 98.588577 60.851257 98.654877 60.784956 
C 98.721178 60.718655 98.758431 60.62872 98.758431 60.534956 
C 98.758431 60.441193 98.721178 60.351257 98.654877 60.284956 
C 98.588577 60.218655 98.498641 60.181403 98.404877 60.181403 
C 98.311114 60.181403 98.221178 60.218655 98.154877 60.284956 
C 98.088577 60.351257 98.051324 60.441193 98.051324 60.534956 
C 98.051324 60.62872 98.088577 60.718655 98.154877 60.784956 
C 98.221178 60.851257 98.311114 60.88851 98.404877 60.88851 
z
" clip-path="url(#p031ec8f55d)" style="fill: #f7fcf5; stroke: #ff0000; stroke-width: 2"/>
    <path d="M 48.898027 63.986242 
C 48.99179 63.986242 49.081726 63.948989 49.148027 63.882688 
C 49.214328 63.816388 49.25158 63.726452 49.25158 63.632688 
C 49.25158 63.538925 49.214328 63.448989 49.148027 63.382688 
C 49.081726 63.316388 48.99179 63.279135 48.898027 63.279135 
C 48.804263 63.279135 48.714328 63.316388 48.648027 63.382688 
C 48.581726 63.448989 48.544473 63.538925 48.544473 63.632688 
C 48.544473 63.726452 48.581726 63.816388 48.648027 63.882688 
C 48.714328 63.948989 48.804263 63.986242 48.898027 63.986242 
z
" clip-path="url(#p031ec8f55d)" style="fill: #f7fcf5; stroke: #00ff00; stroke-width: 2"/>
    <path d="M 106.507791 69.591487 
C 106.601554 69.591487 106.69149 69.554234 106.757791 69.487934 
C 106.824091 69.421633 106.861344 69.331697 106.861344 69.237934 
C 106.861344 69.14417 106.824091 69.054234 106.757791 68.987934 
C 106.69149 68.921633 106.601554 68.88438 106.507791 68.88438 
C 106.414027 68.88438 106.324091 68.921633 106.257791 68.987934 
C 106.19149 69.054234 106.154237 69.14417 106.154237 69.237934 
C 106.154237 69.331697 106.19149 69.421633 106.257791 69.487934 
C 106.324091 69.554234 106.414027 69.591487 106.507791 69.591487 
z
" clip-path="url(#p031ec8f55d)" style="fill: #f7fcf5; stroke: #00ff00; stroke-width: 2"/>
    <path d="M 43.665119 73.631821 
C 43.758882 73.631821 43.848818 73.594568 43.915119 73.528268 
C 43.981419 73.461967 44.018672 73.372031 44.018672 73.278268 
C 44.018672 73.184504 43.981419 73.094568 43.915119 73.028268 
C 43.848818 72.961967 43.758882 72.924714 43.665119 72.924714 
C 43.571355 72.924714 43.481419 72.961967 43.415119 73.028268 
C 43.348818 73.094568 43.311565 73.184504 43.311565 73.278268 
C 43.311565 73.372031 43.348818 73.461967 43.415119 73.528268 
C 43.481419 73.594568 43.571355 73.631821 43.665119 73.631821 
z
" clip-path="url(#p031ec8f55d)" style="fill: #f7fcf5; stroke: #00ff00; stroke-width: 2"/>
    <path d="M 102.855535 79.563913 
C 102.949298 79.563913 103.039234 79.52666 103.105535 79.460359 
C 103.171836 79.394059 103.209088 79.304123 103.209088 79.210359 
C 103.209088 79.116596 103.171836 79.02666 103.105535 78.960359 
C 103.039234 78.894059 102.949298 78.856806 102.855535 78.856806 
C 102.761771 78.856806 102.671836 78.894059 102.605535 78.960359 
C 102.539234 79.02666 102.501981 79.116596 102.501981 79.210359 
C 102.501981 79.304123 102.539234 79.394059 102.605535 79.460359 
C 102.671836 79.52666 102.761771 79.563913 102.855535 79.563913 
z
" clip-path="url(#p031ec8f55d)" style="fill: #f7fcf5; stroke: #00ff00; stroke-width: 2"/>
    <path d="M 50.608198 83.018047 
C 50.701961 83.018047 50.791897 82.980795 50.858198 82.914494 
C 50.924498 82.848193 50.961751 82.758257 50.961751 82.664494 
C 50.961751 82.570731 50.924498 82.480795 50.858198 82.414494 
C 50.791897 82.348193 50.701961 82.310941 50.608198 82.310941 
C 50.514434 82.310941 50.424498 82.348193 50.358198 82.414494 
C 50.291897 82.480795 50.254644 82.570731 50.254644 82.664494 
C 50.254644 82.758257 50.291897 82.848193 50.358198 82.914494 
C 50.424498 82.980795 50.514434 83.018047 50.608198 83.018047 
z
" clip-path="url(#p031ec8f55d)" style="fill: #f7fcf5; stroke: #00ff00; stroke-width: 2"/>
    <path d="M 88.018511 90.042727 
C 88.956145 90.042727 89.855503 89.670201 90.518511 89.007193 
C 91.181518 88.344185 91.554045 87.444828 91.554045 86.507193 
C 91.554045 85.569558 91.181518 84.670201 90.518511 84.007193 
C 89.855503 83.344185 88.956145 82.971659 88.018511 82.971659 
C 87.080876 82.971659 86.181518 83.344185 85.518511 84.007193 
C 84.855503 84.670201 84.482977 85.569558 84.482977 86.507193 
C 84.482977 87.444828 84.855503 88.344185 85.518511 89.007193 
C 86.181518 89.670201 87.080876 90.042727 88.018511 90.042727 
z
" clip-path="url(#p031ec8f55d)" style="fill: #00441b; stroke: #00ff00; stroke-width: 2"/>
    <path d="M 67.71492 91.408904 
C 68.652554 91.408904 69.551912 91.036378 70.21492 90.37337 
C 70.877927 89.710362 71.250453 88.811005 71.250453 87.87337 
C 71.250453 86.935736 70.877927 86.036378 70.21492 85.37337 
C 69.551912 84.710362 68.652554 84.337836 67.71492 84.337836 
C 66.777285 84.337836 65.877927 84.710362 65.21492 85.37337 
C 64.551912 86.036378 64.179386 86.935736 64.179386 87.87337 
C 64.179386 88.811005 64.551912 89.710362 65.21492 90.37337 
C 65.877927 91.036378 66.777285 91.408904 67.71492 91.408904 
z
" clip-path="url(#p031ec8f55d)" style="fill: #00441b; stroke: #00ff00; stroke-width: 2"/>
   </g>
   <g id="patch_11">
    <path d="M 91.719162 68.514442 
Q 92.548401 68.74874 93.377639 68.983039 
" clip-path="url(#p031ec8f55d)" style="fill: none; opacity: 0.635892; stroke: #d4d4d4; stroke-width: 0.271784; stroke-linecap: round"/>
   </g>
   <g id="Path3DCollection_4">
    <path d="M 82.227028 46.528299 
C 82.320791 46.528299 82.410727 46.491047 82.477028 46.424746 
C 82.543329 46.358445 82.580581 46.268509 82.580581 46.174746 
C 82.580581 46.080982 82.543329 45.991047 82.477028 45.924746 
C 82.410727 45.858445 82.320791 45.821192 82.227028 45.821192 
C 82.133265 45.821192 82.043329 45.858445 81.977028 45.924746 
C 81.910727 45.991047 81.873475 46.080982 81.873475 46.174746 
C 81.873475 46.268509 81.910727 46.358445 81.977028 46.424746 
C 82.043329 46.491047 82.133265 46.528299 82.227028 46.528299 
z
" clip-path="url(#p031ec8f55d)" style="fill: #fff5eb; stroke: #00ff00; stroke-width: 2"/>
    <path d="M 63.443708 47.64989 
C 63.537471 47.64989 63.627407 47.612638 63.693708 47.546337 
C 63.760009 47.480036 63.797261 47.3901 63.797261 47.296337 
C 63.797261 47.202573 63.760009 47.112638 63.693708 47.046337 
C 63.627407 46.980036 63.537471 46.942784 63.443708 46.942784 
C 63.349944 46.942784 63.260009 46.980036 63.193708 47.046337 
C 63.127407 47.112638 63.090155 47.202573 63.090155 47.296337 
C 63.090155 47.3901 63.127407 47.480036 63.193708 47.546337 
C 63.260009 47.612638 63.349944 47.64989 63.443708 47.64989 
z
" clip-path="url(#p031ec8f55d)" style="fill: #fff5eb; stroke: #00ff00; stroke-width: 2"/>
    <path d="M 98.625069 50.894133 
C 98.718832 50.894133 98.808768 50.85688 98.875069 50.790579 
C 98.941369 50.724279 98.978622 50.634343 98.978622 50.540579 
C 98.978622 50.446816 98.941369 50.35688 98.875069 50.290579 
C 98.808768 50.224279 98.718832 50.187026 98.625069 50.187026 
C 98.531305 50.187026 98.441369 50.224279 98.375069 50.290579 
C 98.308768 50.35688 98.271515 50.446816 98.271515 50.540579 
C 98.271515 50.634343 98.308768 50.724279 98.375069 50.790579 
C 98.441369 50.85688 98.531305 50.894133 98.625069 50.894133 
z
" clip-path="url(#p031ec8f55d)" style="fill: #fff5eb; stroke: #ff0000; stroke-width: 2"/>
    <path d="M 48.644101 57.110431 
C 49.581736 57.110431 50.481093 56.737905 51.144101 56.074897 
C 51.807109 55.411889 52.179635 54.512532 52.179635 53.574897 
C 52.179635 52.637263 51.807109 51.737905 51.144101 51.074897 
C 50.481093 50.411889 49.581736 50.039363 48.644101 50.039363 
C 47.706466 50.039363 46.807109 50.411889 46.144101 51.074897 
C 45.481093 51.737905 45.108567 52.637263 45.108567 53.574897 
C 45.108567 54.512532 45.481093 55.411889 46.144101 56.074897 
C 46.807109 56.737905 47.706466 57.110431 48.644101 57.110431 
z
" clip-path="url(#p031ec8f55d)" style="fill: #7f2704; stroke: #00ff00; stroke-width: 2"/>
    <path d="M 106.812991 59.420307 
C 106.906755 59.420307 106.996691 59.383055 107.062991 59.316754 
C 107.129292 59.250453 107.166545 59.160517 107.166545 59.066754 
C 107.166545 58.972991 107.129292 58.883055 107.062991 58.816754 
C 106.996691 58.750453 106.906755 58.713201 106.812991 58.713201 
C 106.719228 58.713201 106.629292 58.750453 106.562991 58.816754 
C 106.496691 58.883055 106.459438 58.972991 106.459438 59.066754 
C 106.459438 59.160517 106.496691 59.250453 106.562991 59.316754 
C 106.629292 59.383055 106.719228 59.420307 106.812991 59.420307 
z
" clip-path="url(#p031ec8f55d)" style="fill: #fff5eb; stroke: #00ff00; stroke-width: 2"/>
    <path d="M 43.352104 63.379995 
C 43.445868 63.379995 43.535804 63.342742 43.602104 63.276441 
C 43.668405 63.210141 43.705658 63.120205 43.705658 63.026441 
C 43.705658 62.932678 43.668405 62.842742 43.602104 62.776441 
C 43.535804 62.710141 43.445868 62.672888 43.352104 62.672888 
C 43.258341 62.672888 43.168405 62.710141 43.102104 62.776441 
C 43.035804 62.842742 42.998551 62.932678 42.998551 63.026441 
C 42.998551 63.120205 43.035804 63.210141 43.102104 63.276441 
C 43.168405 63.342742 43.258341 63.379995 43.352104 63.379995 
z
" clip-path="url(#p031ec8f55d)" style="fill: #fff5eb; stroke: #00ff00; stroke-width: 2"/>
    <path d="M 103.132909 69.195328 
C 103.226673 69.195328 103.316609 69.158076 103.382909 69.091775 
C 103.44921 69.025474 103.486463 68.935538 103.486463 68.841775 
C 103.486463 68.748011 103.44921 68.658076 103.382909 68.591775 
C 103.316609 68.525474 103.226673 68.488222 103.132909 68.488222 
C 103.039146 68.488222 102.94921 68.525474 102.882909 68.591775 
C 102.816609 68.658076 102.779356 68.748011 102.779356 68.841775 
C 102.779356 68.935538 102.816609 69.025474 102.882909 69.091775 
C 102.94921 69.158076 103.039146 69.195328 103.132909 69.195328 
z
" clip-path="url(#p031ec8f55d)" style="fill: #fff5eb; stroke: #00ff00; stroke-width: 2"/>
    <path d="M 50.357231 72.582381 
C 50.450994 72.582381 50.54093 72.545128 50.607231 72.478827 
C 50.673532 72.412527 50.710784 72.322591 50.710784 72.228827 
C 50.710784 72.135064 50.673532 72.045128 50.607231 71.978827 
C 50.54093 71.912527 50.450994 71.875274 50.357231 71.875274 
C 50.263468 71.875274 50.173532 71.912527 50.107231 71.978827 
C 50.04093 72.045128 50.003678 72.135064 50.003678 72.228827 
C 50.003678 72.322591 50.04093 72.412527 50.107231 72.478827 
C 50.173532 72.545128 50.263468 72.582381 50.357231 72.582381 
z
" clip-path="url(#p031ec8f55d)" style="fill: #fff5eb; stroke: #00ff00; stroke-width: 2"/>
    <path d="M 88.14921 79.533214 
C 89.086845 79.533214 89.986203 79.160688 90.64921 78.49768 
C 91.312218 77.834672 91.684744 76.935314 91.684744 75.99768 
C 91.684744 75.060045 91.312218 74.160688 90.64921 73.49768 
C 89.986203 72.834672 89.086845 72.462146 88.14921 72.462146 
C 87.211576 72.462146 86.312218 72.834672 85.64921 73.49768 
C 84.986203 74.160688 84.613676 75.060045 84.613676 75.99768 
C 84.613676 76.935314 84.986203 77.834672 85.64921 78.49768 
C 86.312218 79.160688 87.211576 79.533214 88.14921 79.533214 
z
" clip-path="url(#p031ec8f55d)" style="fill: #7f2704; stroke: #00ff00; stroke-width: 2"/>
    <path d="M 67.636702 80.873335 
C 68.574336 80.873335 69.473694 80.500809 70.136702 79.837801 
C 70.799709 79.174794 71.172236 78.275436 71.172236 77.337801 
C 71.172236 76.400167 70.799709 75.500809 70.136702 74.837801 
C 69.473694 74.174794 68.574336 73.802267 67.636702 73.802267 
C 66.699067 73.802267 65.799709 74.174794 65.136702 74.837801 
C 64.473694 75.500809 64.101168 76.400167 64.101168 77.337801 
C 64.101168 78.275436 64.473694 79.174794 65.136702 79.837801 
C 65.799709 80.500809 66.699067 80.873335 67.636702 80.873335 
z
" clip-path="url(#p031ec8f55d)" style="fill: #7f2704; stroke: #00ff00; stroke-width: 2"/>
   </g>
   <g id="patch_12">
    <path d="M 96.258244 78.217721 
Q 75.191389 76.108371 54.124534 73.999021 
" clip-path="url(#p031ec8f55d)" style="fill: none; opacity: 0.569502; stroke: #eeeeee; stroke-width: 0.139004; stroke-linecap: round"/>
   </g>
   <g id="Path3DCollection_5">
    <path d="M 82.292786 39.620144 
C 83.230421 39.620144 84.129778 39.247618 84.792786 38.58461 
C 85.455794 37.921602 85.82832 37.022244 85.82832 36.08461 
C 85.82832 35.146975 85.455794 34.247618 84.792786 33.58461 
C 84.129778 32.921602 83.230421 32.549076 82.292786 32.549076 
C 81.355152 32.549076 80.455794 32.921602 79.792786 33.58461 
C 79.129778 34.247618 78.757252 35.146975 78.757252 36.08461 
C 78.757252 37.022244 79.129778 37.921602 79.792786 38.58461 
C 80.455794 39.247618 81.355152 39.620144 82.292786 39.620144 
z
" clip-path="url(#p031ec8f55d)" style="fill: #3f007d; stroke: #00ff00; stroke-width: 2"/>
    <path d="M 63.330801 37.534844 
C 63.424565 37.534844 63.5145 37.497592 63.580801 37.431291 
C 63.647102 37.36499 63.684355 37.275054 63.684355 37.181291 
C 63.684355 37.087527 63.647102 36.997592 63.580801 36.931291 
C 63.5145 36.86499 63.424565 36.827737 63.330801 36.827737 
C 63.237038 36.827737 63.147102 36.86499 63.080801 36.931291 
C 63.0145 36.997592 62.977248 37.087527 62.977248 37.181291 
C 62.977248 37.275054 63.0145 37.36499 63.080801 37.431291 
C 63.147102 37.497592 63.237038 37.534844 63.330801 37.534844 
z
" clip-path="url(#p031ec8f55d)" style="fill: #fcfbfd; stroke: #00ff00; stroke-width: 2"/>
    <path d="M 98.849497 40.707443 
C 98.94326 40.707443 99.033196 40.67019 99.099497 40.603889 
C 99.165797 40.537588 99.20305 40.447653 99.20305 40.353889 
C 99.20305 40.260126 99.165797 40.17019 99.099497 40.103889 
C 99.033196 40.037588 98.94326 40.000336 98.849497 40.000336 
C 98.755733 40.000336 98.665797 40.037588 98.599497 40.103889 
C 98.533196 40.17019 98.495943 40.260126 98.495943 40.353889 
C 98.495943 40.447653 98.533196 40.537588 98.599497 40.603889 
C 98.665797 40.67019 98.755733 40.707443 98.849497 40.707443 
z
" clip-path="url(#p031ec8f55d)" style="fill: #fcfbfd; stroke: #ff0000; stroke-width: 2"/>
    <path d="M 48.385243 46.857284 
C 49.322878 46.857284 50.222235 46.484757 50.885243 45.82175 
C 51.548251 45.158742 51.920777 44.259384 51.920777 43.32175 
C 51.920777 42.384115 51.548251 41.484757 50.885243 40.82175 
C 50.222235 40.158742 49.322878 39.786216 48.385243 39.786216 
C 47.447608 39.786216 46.548251 40.158742 45.885243 40.82175 
C 45.222235 41.484757 44.849709 42.384115 44.849709 43.32175 
C 44.849709 44.259384 45.222235 45.158742 45.885243 45.82175 
C 46.548251 46.484757 47.447608 46.857284 48.385243 46.857284 
z
" clip-path="url(#p031ec8f55d)" style="fill: #3f007d; stroke: #00ff00; stroke-width: 2"/>
    <path d="M 107.12422 49.048233 
C 107.217984 49.048233 107.30792 49.01098 107.37422 48.944679 
C 107.440521 48.878378 107.477774 48.788443 107.477774 48.694679 
C 107.477774 48.600916 107.440521 48.51098 107.37422 48.444679 
C 107.30792 48.378378 107.217984 48.341126 107.12422 48.341126 
C 107.030457 48.341126 106.940521 48.378378 106.87422 48.444679 
C 106.80792 48.51098 106.770667 48.600916 106.770667 48.694679 
C 106.770667 48.788443 106.80792 48.878378 106.87422 48.944679 
C 106.940521 49.01098 107.030457 49.048233 107.12422 49.048233 
z
" clip-path="url(#p031ec8f55d)" style="fill: #fcfbfd; stroke: #00ff00; stroke-width: 2"/>
    <path d="M 43.032833 52.923255 
C 43.126597 52.923255 43.216533 52.886003 43.282833 52.819702 
C 43.349134 52.753401 43.386387 52.663465 43.386387 52.569702 
C 43.386387 52.475938 43.349134 52.386003 43.282833 52.319702 
C 43.216533 52.253401 43.126597 52.216148 43.032833 52.216148 
C 42.93907 52.216148 42.849134 52.253401 42.782833 52.319702 
C 42.716533 52.386003 42.67928 52.475938 42.67928 52.569702 
C 42.67928 52.663465 42.716533 52.753401 42.782833 52.819702 
C 42.849134 52.886003 42.93907 52.923255 43.032833 52.923255 
z
" clip-path="url(#p031ec8f55d)" style="fill: #fcfbfd; stroke: #00ff00; stroke-width: 2"/>
    <path d="M 103.415925 58.615893 
C 103.509688 58.615893 103.599624 58.57864 103.665925 58.51234 
C 103.732225 58.446039 103.769478 58.356103 103.769478 58.26234 
C 103.769478 58.168576 103.732225 58.07864 103.665925 58.01234 
C 103.599624 57.946039 103.509688 57.908786 103.415925 57.908786 
C 103.322161 57.908786 103.232225 57.946039 103.165925 58.01234 
C 103.099624 58.07864 103.062371 58.168576 103.062371 58.26234 
C 103.062371 58.356103 103.099624 58.446039 103.165925 58.51234 
C 103.232225 58.57864 103.322161 58.615893 103.415925 58.615893 
z
" clip-path="url(#p031ec8f55d)" style="fill: #fcfbfd; stroke: #00ff00; stroke-width: 2"/>
    <path d="M 50.10111 61.932386 
C 50.194873 61.932386 50.284809 61.895134 50.35111 61.828833 
C 50.417411 61.762532 50.454663 61.672596 50.454663 61.578833 
C 50.454663 61.485069 50.417411 61.395134 50.35111 61.328833 
C 50.284809 61.262532 50.194873 61.225279 50.10111 61.225279 
C 50.007347 61.225279 49.917411 61.262532 49.85111 61.328833 
C 49.784809 61.395134 49.747557 61.485069 49.747557 61.578833 
C 49.747557 61.672596 49.784809 61.762532 49.85111 61.828833 
C 49.917411 61.895134 50.007347 61.932386 50.10111 61.932386 
z
" clip-path="url(#p031ec8f55d)" style="fill: #fcfbfd; stroke: #00ff00; stroke-width: 2"/>
    <path d="M 88.282624 65.623507 
C 88.376387 65.623507 88.466323 65.586254 88.532624 65.519954 
C 88.598925 65.453653 88.636177 65.363717 88.636177 65.269954 
C 88.636177 65.17619 88.598925 65.086254 88.532624 65.019954 
C 88.466323 64.953653 88.376387 64.9164 88.282624 64.9164 
C 88.18886 64.9164 88.098925 64.953653 88.032624 65.019954 
C 87.966323 65.086254 87.92907 65.17619 87.92907 65.269954 
C 87.92907 65.363717 87.966323 65.453653 88.032624 65.519954 
C 88.098925 65.586254 88.18886 65.623507 88.282624 65.623507 
z
" clip-path="url(#p031ec8f55d)" style="fill: #fcfbfd; stroke: #00ff00; stroke-width: 2"/>
    <path d="M 67.556853 70.118168 
C 68.494488 70.118168 69.393846 69.745642 70.056853 69.082634 
C 70.719861 68.419626 71.092387 67.520268 71.092387 66.582634 
C 71.092387 65.644999 70.719861 64.745642 70.056853 64.082634 
C 69.393846 63.419626 68.494488 63.0471 67.556853 63.0471 
C 66.619219 63.0471 65.719861 63.419626 65.056853 64.082634 
C 64.393846 64.745642 64.02132 65.644999 64.02132 66.582634 
C 64.02132 67.520268 64.393846 68.419626 65.056853 69.082634 
C 65.719861 69.745642 66.619219 70.118168 67.556853 70.118168 
z
" clip-path="url(#p031ec8f55d)" style="fill: #3f007d; stroke: #00ff00; stroke-width: 2"/>
   </g>
   <g id="patch_13">
    <path d="M 59.097361 74.496933 
Q 80.164216 76.606282 101.231071 78.715632 
" clip-path="url(#p031ec8f55d)" style="fill: none; opacity: 0.569502; stroke: #eeeeee; stroke-width: 0.139004; stroke-linecap: round"/>
   </g>
   <g id="patch_14">
    <path d="M 56.165922 83.026645 
Q 52.119865 86.484595 48.073808 89.942545 
" clip-path="url(#p031ec8f55d)" style="fill: none; opacity: 0.582301; stroke: #e9e9e9; stroke-width: 0.164602; stroke-linecap: round"/>
   </g>
   <g id="patch_15">
    <path d="M 51.877175 86.692009 
Q 55.923232 83.234059 59.969288 79.776109 
" clip-path="url(#p031ec8f55d)" style="fill: none; opacity: 0.582301; stroke: #e9e9e9; stroke-width: 0.164602; stroke-linecap: round"/>
   </g>
   <g id="patch_16">
    <path d="M 72.457971 48.327402 
Q 62.991434 50.413397 53.524898 52.499391 
" clip-path="url(#p031ec8f55d)" style="fill: none; opacity: 0.631279; stroke: #d7d7d7; stroke-width: 0.262557; stroke-linecap: round"/>
   </g>
   <g id="patch_17">
    <path d="M 58.413158 51.422241 
Q 67.879695 49.336246 77.346231 47.250252 
" clip-path="url(#p031ec8f55d)" style="fill: none; opacity: 0.631279; stroke: #d7d7d7; stroke-width: 0.262557; stroke-linecap: round"/>
   </g>
   <g id="patch_18">
    <path d="M 97.708179 64.480884 
Q 92.134732 61.467892 86.561286 58.4549 
" clip-path="url(#p031ec8f55d)" style="fill: none; opacity: 0.656103; stroke: #cccccc; stroke-width: 0.312207; stroke-linecap: round"/>
   </g>
   <g id="patch_19">
    <path d="M 90.962107 60.833973 
Q 96.535553 63.846965 102.109 66.859958 
" clip-path="url(#p031ec8f55d)" style="fill: none; opacity: 0.656103; stroke: #cccccc; stroke-width: 0.312207; stroke-linecap: round"/>
   </g>
   <g id="patch_20">
    <path d="M 55.973781 73.355697 
Q 51.896536 76.744573 47.819291 80.133449 
" clip-path="url(#p031ec8f55d)" style="fill: none; opacity: 0.53112; stroke: #f8f8f8; stroke-width: 0.062241; stroke-linecap: round"/>
   </g>
   <g id="patch_21">
    <path d="M 51.661526 76.939906 
Q 55.738771 73.55103 59.816017 70.162154 
" clip-path="url(#p031ec8f55d)" style="fill: none; opacity: 0.53112; stroke: #f8f8f8; stroke-width: 0.062241; stroke-linecap: round"/>
   </g>
   <g id="patch_22">
    <path d="M 72.512082 38.172178 
Q 62.894627 40.224904 53.277172 42.277629 
" clip-path="url(#p031ec8f55d)" style="fill: none; opacity: 0.644208; stroke: #d1d1d1; stroke-width: 0.288416; stroke-linecap: round"/>
   </g>
   <g id="patch_23">
    <path d="M 58.165947 41.234181 
Q 67.783402 39.181456 77.400857 37.128731 
" clip-path="url(#p031ec8f55d)" style="fill: none; opacity: 0.644208; stroke: #d1d1d1; stroke-width: 0.288416; stroke-linecap: round"/>
   </g>
   <g id="patch_24">
    <path d="M 55.773073 63.503967 
Q 51.665651 66.819736 47.558228 70.135505 
" clip-path="url(#p031ec8f55d)" style="fill: none; opacity: 0.550469; stroke: #f3f3f3; stroke-width: 0.100939; stroke-linecap: round"/>
   </g>
   <g id="patch_25">
    <path d="M 51.446549 66.996609 
Q 55.553972 63.68084 59.661395 60.365071 
" clip-path="url(#p031ec8f55d)" style="fill: none; opacity: 0.550469; stroke: #f3f3f3; stroke-width: 0.100939; stroke-linecap: round"/>
   </g>
   <g id="patch_26">
    <path d="M 97.168279 47.783996 
Q 75.267423 45.780697 53.366567 43.777398 
" clip-path="url(#p031ec8f55d)" style="fill: none; opacity: 0.615839; stroke: #dcdcdc; stroke-width: 0.231678; stroke-linecap: round"/>
   </g>
   <g id="patch_27">
    <path d="M 58.341184 44.232432 
Q 80.24204 46.235732 102.142896 48.239031 
" clip-path="url(#p031ec8f55d)" style="fill: none; opacity: 0.615839; stroke: #dcdcdc; stroke-width: 0.231678; stroke-linecap: round"/>
   </g>
   <g id="patch_28">
    <path d="M 55.568447 53.462031 
Q 51.43022 56.701928 47.291994 59.941826 
" clip-path="url(#p031ec8f55d)" style="fill: none; opacity: 0.530822; stroke: #f8f8f8; stroke-width: 0.061644; stroke-linecap: round"/>
   </g>
   <g id="patch_29">
    <path d="M 51.227365 56.860747 
Q 55.365592 53.62085 59.503818 50.380953 
" clip-path="url(#p031ec8f55d)" style="fill: none; opacity: 0.530822; stroke: #f8f8f8; stroke-width: 0.061644; stroke-linecap: round"/>
   </g>
   <g id="patch_30">
    <path d="M 98.796196 96.019994 
Q 95.059408 99.704757 91.32262 103.389521 
" clip-path="url(#p031ec8f55d)" style="fill: none; opacity: 0.736283; stroke: #9f9f9f; stroke-width: 0.472566; stroke-linecap: round"/>
   </g>
   <g id="patch_31">
    <path d="M 83.822062 85.173451 
Q 85.347083 93.575944 86.872104 101.978437 
" clip-path="url(#p031ec8f55d)" style="fill: none; opacity: 0.782301; stroke: #848484; stroke-width: 0.564602; stroke-linecap: round"/>
   </g>
   <g id="patch_32">
    <path d="M 94.883519 99.878198 
Q 98.620307 96.193434 102.357095 92.508671 
" clip-path="url(#p031ec8f55d)" style="fill: none; opacity: 0.736283; stroke: #9f9f9f; stroke-width: 0.472566; stroke-linecap: round"/>
   </g>
   <g id="patch_33">
    <path d="M 85.979835 97.062257 
Q 84.454814 88.659764 82.929793 80.257271 
" clip-path="url(#p031ec8f55d)" style="fill: none; opacity: 0.782301; stroke: #848484; stroke-width: 0.564602; stroke-linecap: round"/>
   </g>
   <g id="patch_34">
    <path d="M 90.69364 86.824045 
Q 81.101126 95.853897 71.508611 104.883749 
" clip-path="url(#p031ec8f55d)" style="fill: none; opacity: 0.702655; stroke: #b4b4b4; stroke-width: 0.40531; stroke-linecap: round"/>
   </g>
   <g id="patch_35">
    <path d="M 78.087895 84.52745 
Q 73.964839 94.121725 69.841784 103.716 
" clip-path="url(#p031ec8f55d)" style="fill: none; stroke: #000000; stroke-linecap: round"/>
   </g>
   <g id="patch_36">
    <path d="M 75.149755 101.456182 
Q 84.742269 92.426329 94.334784 83.396477 
" clip-path="url(#p031ec8f55d)" style="fill: none; opacity: 0.702655; stroke: #b4b4b4; stroke-width: 0.40531; stroke-linecap: round"/>
   </g>
   <g id="patch_37">
    <path d="M 71.815734 99.122654 
Q 75.93879 89.528379 80.061845 79.934104 
" clip-path="url(#p031ec8f55d)" style="fill: none; stroke: #000000; stroke-linecap: round"/>
   </g>
   <g id="patch_38">
    <path d="M 77.840084 107.603152 
Q 80.30918 107.427646 82.778275 107.252139 
" clip-path="url(#p031ec8f55d)" style="fill: none; opacity: 0.902655; stroke: #3f3f3f; stroke-width: 0.80531; stroke-linecap: round"/>
   </g>
   <g id="patch_39">
    <path d="M 77.791504 107.606605 
Q 75.322408 107.782112 72.853313 107.957619 
" clip-path="url(#p031ec8f55d)" style="fill: none; opacity: 0.902655; stroke: #3f3f3f; stroke-width: 0.80531; stroke-linecap: round"/>
   </g>
   <g id="patch_40">
    <path d="M 83.935088 75.626631 
Q 85.453834 83.758567 86.97258 91.890504 
" clip-path="url(#p031ec8f55d)" style="fill: none; opacity: 0.684647; stroke: #bebebe; stroke-width: 0.369295; stroke-linecap: round"/>
   </g>
   <g id="patch_41">
    <path d="M 57.714477 78.653971 
Q 70.660452 86.441091 83.606428 94.228211 
" clip-path="url(#p031ec8f55d)" style="fill: none; opacity: 0.63278; stroke: #d6d6d6; stroke-width: 0.26556; stroke-linecap: round"/>
   </g>
   <g id="patch_42">
    <path d="M 86.054508 86.974799 
Q 84.535761 78.842863 83.017015 70.710926 
" clip-path="url(#p031ec8f55d)" style="fill: none; opacity: 0.684647; stroke: #bebebe; stroke-width: 0.369295; stroke-linecap: round"/>
   </g>
   <g id="patch_43">
    <path d="M 79.323126 91.651767 
Q 66.377151 83.864647 53.431175 76.077527 
" clip-path="url(#p031ec8f55d)" style="fill: none; opacity: 0.63278; stroke: #d6d6d6; stroke-width: 0.26556; stroke-linecap: round"/>
   </g>
   <g id="patch_44">
    <path d="M 90.817694 77.096705 
Q 81.14711 85.958047 71.476526 94.81939 
" clip-path="url(#p031ec8f55d)" style="fill: none; opacity: 0.58195; stroke: #e9e9e9; stroke-width: 0.1639; stroke-linecap: round"/>
   </g>
   <g id="patch_45">
    <path d="M 78.059422 74.944344 
Q 73.935104 84.283891 69.810786 93.623438 
" clip-path="url(#p031ec8f55d)" style="fill: none; stroke: #000000; stroke-linecap: round"/>
   </g>
   <g id="patch_46">
    <path d="M 75.162666 91.441708 
Q 84.833251 82.580365 94.503835 73.719023 
" clip-path="url(#p031ec8f55d)" style="fill: none; opacity: 0.58195; stroke: #e9e9e9; stroke-width: 0.1639; stroke-linecap: round"/>
   </g>
   <g id="patch_47">
    <path d="M 71.831287 89.048001 
Q 75.955605 79.708454 80.079923 70.368907 
" clip-path="url(#p031ec8f55d)" style="fill: none; stroke: #000000; stroke-linecap: round"/>
   </g>
   <g id="patch_48">
    <path d="M 77.767395 97.505635 
Q 80.335229 97.327932 82.903063 97.150228 
" clip-path="url(#p031ec8f55d)" style="fill: none; opacity: 0.744813; stroke: #999999; stroke-width: 0.489627; stroke-linecap: round"/>
   </g>
   <g id="patch_49">
    <path d="M 77.914604 97.495447 
Q 75.34677 97.673151 72.778937 97.850854 
" clip-path="url(#p031ec8f55d)" style="fill: none; opacity: 0.744813; stroke: #999999; stroke-width: 0.489627; stroke-linecap: round"/>
   </g>
   <g id="patch_50">
    <path d="M 99.201907 76.061736 
Q 95.438159 79.577132 91.674411 83.092528 
" clip-path="url(#p031ec8f55d)" style="fill: none; opacity: 0.67723; stroke: #c2c2c2; stroke-width: 0.35446; stroke-linecap: round"/>
   </g>
   <g id="patch_51">
    <path d="M 84.051832 65.894697 
Q 85.562821 73.746418 87.07381 81.598138 
" clip-path="url(#p031ec8f55d)" style="fill: none; opacity: 0.713615; stroke: #adadad; stroke-width: 0.42723; stroke-linecap: round"/>
   </g>
   <g id="patch_52">
    <path d="M 95.324394 79.68339 
Q 99.088142 76.167994 102.85189 72.652598 
" clip-path="url(#p031ec8f55d)" style="fill: none; opacity: 0.67723; stroke: #c2c2c2; stroke-width: 0.35446; stroke-linecap: round"/>
   </g>
   <g id="patch_53">
    <path d="M 86.129174 76.689419 
Q 84.618185 68.837699 83.107196 60.985979 
" clip-path="url(#p031ec8f55d)" style="fill: none; opacity: 0.713615; stroke: #adadad; stroke-width: 0.42723; stroke-linecap: round"/>
   </g>
   <g id="patch_54">
    <path d="M 78.026806 65.178812 
Q 73.904946 74.250263 69.783087 83.321715 
" clip-path="url(#p031ec8f55d)" style="fill: none; stroke: #000000; stroke-linecap: round"/>
   </g>
   <g id="patch_55">
    <path d="M 55.028677 71.53044 
Q 59.839445 77.727866 64.650213 83.925292 
" clip-path="url(#p031ec8f55d)" style="fill: none; opacity: 0.634977; stroke: #d5d5d5; stroke-width: 0.269953; stroke-linecap: round"/>
   </g>
   <g id="patch_56">
    <path d="M 71.850608 78.771482 
Q 75.972468 69.70003 80.094327 60.628579 
" clip-path="url(#p031ec8f55d)" style="fill: none; stroke: #000000; stroke-linecap: round"/>
   </g>
   <g id="patch_57">
    <path d="M 61.584269 79.975619 
Q 56.773501 73.778193 51.962733 67.580767 
" clip-path="url(#p031ec8f55d)" style="fill: none; opacity: 0.634977; stroke: #d5d5d5; stroke-width: 0.269953; stroke-linecap: round"/>
   </g>
   <g id="patch_58">
    <path d="M 77.693223 87.201955 
Q 80.361513 87.022413 83.029803 86.84287 
" clip-path="url(#p031ec8f55d)" style="fill: none; opacity: 0.712441; stroke: #aeaeae; stroke-width: 0.424883; stroke-linecap: round"/>
   </g>
   <g id="patch_59">
    <path d="M 78.040208 87.178608 
Q 75.371917 87.35815 72.703627 87.537693 
" clip-path="url(#p031ec8f55d)" style="fill: none; opacity: 0.712441; stroke: #aeaeae; stroke-width: 0.424883; stroke-linecap: round"/>
   </g>
   <g id="patch_60">
    <path d="M 74.455103 42.291669 
Q 64.238734 50.382531 54.022365 58.473392 
" clip-path="url(#p031ec8f55d)" style="fill: none; opacity: 0.63948; stroke: #d3d3d3; stroke-width: 0.27896; stroke-linecap: round"/>
   </g>
   <g id="patch_61">
    <path d="M 57.938793 55.371774 
Q 68.155162 47.280912 78.371532 39.19005 
" clip-path="url(#p031ec8f55d)" style="fill: none; opacity: 0.63948; stroke: #d3d3d3; stroke-width: 0.27896; stroke-linecap: round"/>
   </g>
   <g id="patch_62">
    <path d="M 99.406259 65.785802 
Q 95.628717 69.212615 91.851174 72.639428 
" clip-path="url(#p031ec8f55d)" style="fill: none; opacity: 0.633562; stroke: #d5d5d5; stroke-width: 0.267123; stroke-linecap: round"/>
   </g>
   <g id="patch_63">
    <path d="M 57.341301 58.511358 
Q 70.569673 66.019676 83.798044 73.527993 
" clip-path="url(#p031ec8f55d)" style="fill: none; opacity: 0.643836; stroke: #d1d1d1; stroke-width: 0.287671; stroke-linecap: round"/>
   </g>
   <g id="patch_64">
    <path d="M 95.555943 69.278632 
Q 99.333485 65.851819 103.111027 62.425006 
" clip-path="url(#p031ec8f55d)" style="fill: none; opacity: 0.633562; stroke: #d5d5d5; stroke-width: 0.267123; stroke-linecap: round"/>
   </g>
   <g id="patch_65">
    <path d="M 79.45201 71.061219 
Q 66.223638 63.552901 52.995267 56.044584 
" clip-path="url(#p031ec8f55d)" style="fill: none; opacity: 0.643836; stroke: #d1d1d1; stroke-width: 0.287671; stroke-linecap: round"/>
   </g>
   <g id="patch_66">
    <path d="M 77.986358 55.23227 
Q 73.872142 64.019704 69.757926 72.807139 
" clip-path="url(#p031ec8f55d)" style="fill: none; stroke: #000000; stroke-linecap: round"/>
   </g>
   <g id="patch_67">
    <path d="M 54.88764 61.386604 
Q 59.70122 67.409193 64.5148 73.431783 
" clip-path="url(#p031ec8f55d)" style="fill: none; opacity: 0.610731; stroke: #dfdfdf; stroke-width: 0.221461; stroke-linecap: round"/>
   </g>
   <g id="patch_68">
    <path d="M 71.877371 68.280277 
Q 75.991587 59.492843 80.105803 50.705408 
" clip-path="url(#p031ec8f55d)" style="fill: none; stroke: #000000; stroke-linecap: round"/>
   </g>
   <g id="patch_69">
    <path d="M 61.393162 69.526095 
Q 56.579582 63.503505 51.766002 57.480915 
" clip-path="url(#p031ec8f55d)" style="fill: none; opacity: 0.610731; stroke: #dfdfdf; stroke-width: 0.221461; stroke-linecap: round"/>
   </g>
   <g id="patch_70">
    <path d="M 77.615016 76.685899 
Q 80.386157 76.504855 83.157298 76.323811 
" clip-path="url(#p031ec8f55d)" style="fill: none; opacity: 0.712329; stroke: #aeaeae; stroke-width: 0.424658; stroke-linecap: round"/>
   </g>
   <g id="patch_71">
    <path d="M 78.170897 76.649582 
Q 75.399755 76.830626 72.628614 77.01167 
" clip-path="url(#p031ec8f55d)" style="fill: none; opacity: 0.712329; stroke: #aeaeae; stroke-width: 0.424658; stroke-linecap: round"/>
   </g>
   <g id="patch_72">
    <path d="M 77.941441 45.090313 
Q 73.836157 53.586758 69.730873 62.083204 
" clip-path="url(#p031ec8f55d)" style="fill: none; stroke: #000000; stroke-linecap: round"/>
   </g>
   <g id="patch_73">
    <path d="M 54.743796 51.036572 
Q 59.559641 56.879629 64.375486 62.722686 
" clip-path="url(#p031ec8f55d)" style="fill: none; opacity: 0.671395; stroke: #c5c5c5; stroke-width: 0.34279; stroke-linecap: round"/>
   </g>
   <g id="patch_74">
    <path d="M 71.908199 57.576931 
Q 76.013483 49.080485 80.118767 40.58404 
" clip-path="url(#p031ec8f55d)" style="fill: none; stroke: #000000; stroke-linecap: round"/>
   </g>
   <g id="patch_75">
    <path d="M 61.198301 58.867812 
Q 56.382455 53.024754 51.56661 47.181697 
" clip-path="url(#p031ec8f55d)" style="fill: none; opacity: 0.671395; stroke: #c5c5c5; stroke-width: 0.34279; stroke-linecap: round"/>
   </g>
   <g id="patch_76">
    <path d="M 77.537708 65.95049 
Q 80.414124 65.76831 83.29054 65.586131 
" clip-path="url(#p031ec8f55d)" style="fill: none; opacity: 0.663121; stroke: #c8c8c8; stroke-width: 0.326241; stroke-linecap: round"/>
   </g>
   <g id="patch_77">
    <path d="M 78.301769 65.902098 
Q 75.425353 66.084277 72.548937 66.266457 
" clip-path="url(#p031ec8f55d)" style="fill: none; opacity: 0.663121; stroke: #c8c8c8; stroke-width: 0.326241; stroke-linecap: round"/>
   </g>
  </g>
 </g>
 <defs>
  <clipPath id="p031ec8f55d">
   <rect x="18.36" y="17.28" width="110.88" height="110.88"/>
  </clipPath>
 </defs>
</svg>
