<?xml version="1.0" encoding="utf-8" standalone="no"?>
<!DOCTYPE svg PUBLIC "-//W3C//DTD SVG 1.1//EN"
  "http://www.w3.org/Graphics/SVG/1.1/DTD/svg11.dtd">
<svg xmlns:xlink="http://www.w3.org/1999/xlink" width="144pt" height="144pt" viewBox="0 0 144 144" xmlns="http://www.w3.org/2000/svg" version="1.1">
 <metadata>
  <rdf:RDF xmlns:dc="http://purl.org/dc/elements/1.1/" xmlns:cc="http://creativecommons.org/ns#" xmlns:rdf="http://www.w3.org/1999/02/22-rdf-syntax-ns#">
   <cc:Work>
    <dc:type rdf:resource="http://purl.org/dc/dcmitype/StillImage"/>
    <dc:date>2025-06-03T17:18:15.074696</dc:date>
    <dc:format>image/svg+xml</dc:format>
    <dc:creator>
     <cc:Agent>
      <dc:title>Matplotlib v3.9.2, https://matplotlib.org/</dc:title>
     </cc:Agent>
    </dc:creator>
   </cc:Work>
  </rdf:RDF>
 </metadata>
 <defs>
  <style type="text/css">*{stroke-linejoin: round; stroke-linecap: butt}</style>
 </defs>
 <g id="figure_1">
  <g id="patch_1">
   <path d="M 0 144 
L 144 144 
L 144 0 
L 0 0 
z
" style="fill: #ffffff"/>
  </g>
  <g id="axes_1">
   <g id="patch_2">
    <path d="M 18 128.16 
L 129.6 128.16 
L 129.6 17.28 
L 18 17.28 
z
" style="fill: #ffffff"/>
   </g>
   <g id="matplotlib.axis_1">
    <g id="xtick_1">
     <g id="line2d_1">
      <defs>
       <path id="mfe3dcb0468" d="M 0 0 
L 0 3.5 
" style="stroke: #000000; stroke-width: 0.8"/>
      </defs>
      <g>
       <use xlink:href="#mfe3dcb0468" x="18" y="128.16" style="stroke: #000000; stroke-width: 0.8"/>
      </g>
     </g>
     <g id="text_1">
      <!-- 0.0 -->
      <g transform="translate(10.048437 142.758438) scale(0.1 -0.1)">
       <defs>
        <path id="DejaVuSerif-30" d="M 2034 219 
Q 2513 219 2750 744 
Q 2988 1269 2988 2328 
Q 2988 3391 2750 3916 
Q 2513 4441 2034 4441 
Q 1556 4441 1318 3916 
Q 1081 3391 1081 2328 
Q 1081 1269 1318 744 
Q 1556 219 2034 219 
z
M 2034 -91 
Q 1275 -91 848 546 
Q 422 1184 422 2328 
Q 422 3475 848 4112 
Q 1275 4750 2034 4750 
Q 2797 4750 3222 4112 
Q 3647 3475 3647 2328 
Q 3647 1184 3222 546 
Q 2797 -91 2034 -91 
z
" transform="scale(0.015625)"/>
        <path id="DejaVuSerif-2e" d="M 603 325 
Q 603 500 722 622 
Q 841 744 1019 744 
Q 1191 744 1312 622 
Q 1434 500 1434 325 
Q 1434 153 1312 31 
Q 1191 -91 1019 -91 
Q 841 -91 722 29 
Q 603 150 603 325 
z
" transform="scale(0.015625)"/>
       </defs>
       <use xlink:href="#DejaVuSerif-30"/>
       <use xlink:href="#DejaVuSerif-2e" x="63.623047"/>
       <use xlink:href="#DejaVuSerif-30" x="95.410156"/>
      </g>
     </g>
    </g>
    <g id="xtick_2">
     <g id="line2d_2">
      <g>
       <use xlink:href="#mfe3dcb0468" x="73.8" y="128.16" style="stroke: #000000; stroke-width: 0.8"/>
      </g>
     </g>
     <g id="text_2">
      <!-- 0.5 -->
      <g transform="translate(65.848438 142.758438) scale(0.1 -0.1)">
       <defs>
        <path id="DejaVuSerif-35" d="M 3219 4666 
L 3219 4153 
L 1081 4153 
L 1081 2816 
Q 1244 2928 1461 2984 
Q 1678 3041 1947 3041 
Q 2703 3041 3140 2622 
Q 3578 2203 3578 1478 
Q 3578 738 3136 323 
Q 2694 -91 1894 -91 
Q 1572 -91 1234 -12 
Q 897 66 544 225 
L 544 1131 
L 897 1131 
Q 925 688 1179 453 
Q 1434 219 1894 219 
Q 2388 219 2653 544 
Q 2919 869 2919 1478 
Q 2919 2084 2655 2407 
Q 2391 2731 1894 2731 
Q 1613 2731 1398 2631 
Q 1184 2531 1019 2322 
L 750 2322 
L 750 4666 
L 3219 4666 
z
" transform="scale(0.015625)"/>
       </defs>
       <use xlink:href="#DejaVuSerif-30"/>
       <use xlink:href="#DejaVuSerif-2e" x="63.623047"/>
       <use xlink:href="#DejaVuSerif-35" x="95.410156"/>
      </g>
     </g>
    </g>
    <g id="xtick_3">
     <g id="line2d_3">
      <g>
       <use xlink:href="#mfe3dcb0468" x="129.6" y="128.16" style="stroke: #000000; stroke-width: 0.8"/>
      </g>
     </g>
     <g id="text_3">
      <!-- 1.0 -->
      <g transform="translate(121.648438 142.758438) scale(0.1 -0.1)">
       <defs>
        <path id="DejaVuSerif-31" d="M 909 0 
L 909 331 
L 1722 331 
L 1722 4213 
L 781 3603 
L 781 4013 
L 1919 4750 
L 2350 4750 
L 2350 331 
L 3163 331 
L 3163 0 
L 909 0 
z
" transform="scale(0.015625)"/>
       </defs>
       <use xlink:href="#DejaVuSerif-31"/>
       <use xlink:href="#DejaVuSerif-2e" x="63.623047"/>
       <use xlink:href="#DejaVuSerif-30" x="95.410156"/>
      </g>
     </g>
    </g>
   </g>
   <g id="matplotlib.axis_2">
    <g id="ytick_1">
     <g id="line2d_4">
      <defs>
       <path id="m80eda56451" d="M 0 0 
L -3.5 0 
" style="stroke: #000000; stroke-width: 0.8"/>
      </defs>
      <g>
       <use xlink:href="#m80eda56451" x="18" y="128.16" style="stroke: #000000; stroke-width: 0.8"/>
      </g>
     </g>
     <g id="text_4">
      <!-- 0.0 -->
      <g transform="translate(-4.903125 131.959219) scale(0.1 -0.1)">
       <use xlink:href="#DejaVuSerif-30"/>
       <use xlink:href="#DejaVuSerif-2e" x="63.623047"/>
       <use xlink:href="#DejaVuSerif-30" x="95.410156"/>
      </g>
     </g>
    </g>
    <g id="ytick_2">
     <g id="line2d_5">
      <g>
       <use xlink:href="#m80eda56451" x="18" y="105.984" style="stroke: #000000; stroke-width: 0.8"/>
      </g>
     </g>
     <g id="text_5">
      <!-- 0.2 -->
      <g transform="translate(-4.903125 109.783219) scale(0.1 -0.1)">
       <defs>
        <path id="DejaVuSerif-32" d="M 819 3553 
L 469 3553 
L 469 4384 
Q 803 4563 1142 4656 
Q 1481 4750 1806 4750 
Q 2534 4750 2956 4397 
Q 3378 4044 3378 3438 
Q 3378 2753 2422 1800 
Q 2347 1728 2309 1691 
L 1131 513 
L 3078 513 
L 3078 1088 
L 3444 1088 
L 3444 0 
L 434 0 
L 434 341 
L 1850 1753 
Q 2319 2222 2519 2614 
Q 2719 3006 2719 3438 
Q 2719 3909 2473 4175 
Q 2228 4441 1797 4441 
Q 1350 4441 1106 4219 
Q 863 3997 819 3553 
z
" transform="scale(0.015625)"/>
       </defs>
       <use xlink:href="#DejaVuSerif-30"/>
       <use xlink:href="#DejaVuSerif-2e" x="63.623047"/>
       <use xlink:href="#DejaVuSerif-32" x="95.410156"/>
      </g>
     </g>
    </g>
    <g id="ytick_3">
     <g id="line2d_6">
      <g>
       <use xlink:href="#m80eda56451" x="18" y="83.808" style="stroke: #000000; stroke-width: 0.8"/>
      </g>
     </g>
     <g id="text_6">
      <!-- 0.4 -->
      <g transform="translate(-4.903125 87.607219) scale(0.1 -0.1)">
       <defs>
        <path id="DejaVuSerif-34" d="M 2234 1581 
L 2234 4063 
L 641 1581 
L 2234 1581 
z
M 3609 0 
L 1484 0 
L 1484 331 
L 2234 331 
L 2234 1247 
L 197 1247 
L 197 1588 
L 2241 4750 
L 2859 4750 
L 2859 1581 
L 3750 1581 
L 3750 1247 
L 2859 1247 
L 2859 331 
L 3609 331 
L 3609 0 
z
" transform="scale(0.015625)"/>
       </defs>
       <use xlink:href="#DejaVuSerif-30"/>
       <use xlink:href="#DejaVuSerif-2e" x="63.623047"/>
       <use xlink:href="#DejaVuSerif-34" x="95.410156"/>
      </g>
     </g>
    </g>
    <g id="ytick_4">
     <g id="line2d_7">
      <g>
       <use xlink:href="#m80eda56451" x="18" y="61.632" style="stroke: #000000; stroke-width: 0.8"/>
      </g>
     </g>
     <g id="text_7">
      <!-- 0.6 -->
      <g transform="translate(-4.903125 65.431219) scale(0.1 -0.1)">
       <defs>
        <path id="DejaVuSerif-36" d="M 2094 219 
Q 2534 219 2771 542 
Q 3009 866 3009 1472 
Q 3009 2078 2771 2401 
Q 2534 2725 2094 2725 
Q 1647 2725 1412 2412 
Q 1178 2100 1178 1509 
Q 1178 888 1415 553 
Q 1653 219 2094 219 
z
M 1075 2569 
Q 1288 2803 1556 2918 
Q 1825 3034 2163 3034 
Q 2859 3034 3264 2615 
Q 3669 2197 3669 1472 
Q 3669 763 3233 336 
Q 2797 -91 2069 -91 
Q 1278 -91 853 498 
Q 428 1088 428 2181 
Q 428 3406 931 4078 
Q 1434 4750 2350 4750 
Q 2597 4750 2869 4703 
Q 3141 4656 3425 4563 
L 3425 3794 
L 3072 3794 
Q 3034 4109 2831 4275 
Q 2628 4441 2284 4441 
Q 1678 4441 1381 3981 
Q 1084 3522 1075 2569 
z
" transform="scale(0.015625)"/>
       </defs>
       <use xlink:href="#DejaVuSerif-30"/>
       <use xlink:href="#DejaVuSerif-2e" x="63.623047"/>
       <use xlink:href="#DejaVuSerif-36" x="95.410156"/>
      </g>
     </g>
    </g>
    <g id="ytick_5">
     <g id="line2d_8">
      <g>
       <use xlink:href="#m80eda56451" x="18" y="39.456" style="stroke: #000000; stroke-width: 0.8"/>
      </g>
     </g>
     <g id="text_8">
      <!-- 0.8 -->
      <g transform="translate(-4.903125 43.255219) scale(0.1 -0.1)">
       <defs>
        <path id="DejaVuSerif-38" d="M 2981 1275 
Q 2981 1775 2732 2051 
Q 2484 2328 2034 2328 
Q 1584 2328 1336 2051 
Q 1088 1775 1088 1275 
Q 1088 772 1336 495 
Q 1584 219 2034 219 
Q 2484 219 2732 495 
Q 2981 772 2981 1275 
z
M 2853 3541 
Q 2853 3966 2637 4203 
Q 2422 4441 2034 4441 
Q 1650 4441 1433 4203 
Q 1216 3966 1216 3541 
Q 1216 3113 1433 2875 
Q 1650 2638 2034 2638 
Q 2422 2638 2637 2875 
Q 2853 3113 2853 3541 
z
M 2516 2484 
Q 3047 2413 3344 2092 
Q 3641 1772 3641 1275 
Q 3641 619 3225 264 
Q 2809 -91 2034 -91 
Q 1263 -91 845 264 
Q 428 619 428 1275 
Q 428 1772 725 2092 
Q 1022 2413 1556 2484 
Q 1084 2569 832 2842 
Q 581 3116 581 3541 
Q 581 4103 968 4426 
Q 1356 4750 2034 4750 
Q 2713 4750 3100 4426 
Q 3488 4103 3488 3541 
Q 3488 3116 3236 2842 
Q 2984 2569 2516 2484 
z
" transform="scale(0.015625)"/>
       </defs>
       <use xlink:href="#DejaVuSerif-30"/>
       <use xlink:href="#DejaVuSerif-2e" x="63.623047"/>
       <use xlink:href="#DejaVuSerif-38" x="95.410156"/>
      </g>
     </g>
    </g>
    <g id="ytick_6">
     <g id="line2d_9">
      <g>
       <use xlink:href="#m80eda56451" x="18" y="17.28" style="stroke: #000000; stroke-width: 0.8"/>
      </g>
     </g>
     <g id="text_9">
      <!-- 1.0 -->
      <g transform="translate(-4.903125 21.079219) scale(0.1 -0.1)">
       <use xlink:href="#DejaVuSerif-31"/>
       <use xlink:href="#DejaVuSerif-2e" x="63.623047"/>
       <use xlink:href="#DejaVuSerif-30" x="95.410156"/>
      </g>
     </g>
    </g>
   </g>
   <g id="patch_3">
    <path d="M 18 128.16 
L 18 17.28 
" style="fill: none; stroke: #000000; stroke-width: 0.8; stroke-linejoin: miter; stroke-linecap: square"/>
   </g>
   <g id="patch_4">
    <path d="M 129.6 128.16 
L 129.6 17.28 
" style="fill: none; stroke: #000000; stroke-width: 0.8; stroke-linejoin: miter; stroke-linecap: square"/>
   </g>
   <g id="patch_5">
    <path d="M 18 128.16 
L 129.6 128.16 
" style="fill: none; stroke: #000000; stroke-width: 0.8; stroke-linejoin: miter; stroke-linecap: square"/>
   </g>
   <g id="patch_6">
    <path d="M 18 17.28 
L 129.6 17.28 
" style="fill: none; stroke: #000000; stroke-width: 0.8; stroke-linejoin: miter; stroke-linecap: square"/>
   </g>
  </g>
  <g id="patch_7">
   <path d="M 18.36 128.16 
L 129.24 128.16 
L 129.24 17.28 
L 18.36 17.28 
z
" style="fill: #ffffff"/>
  </g>
  <g id="axes_2">
   <g id="patch_8">
    <path d="M 80.029012 76.923381 
Q 76.366412 76.678534 72.703811 76.433686 
" clip-path="url(#p2202e210c0)" style="fill: none; stroke: #000000; stroke-linecap: round"/>
   </g>
   <g id="Path3DCollection_1">
    <path d="M 67.717144 79.635858 
C 68.654779 79.635858 69.554137 79.263332 70.217144 78.600324 
C 70.880152 77.937316 71.252678 77.037959 71.252678 76.100324 
C 71.252678 75.16269 70.880152 74.263332 70.217144 73.600324 
C 69.554137 72.937316 68.654779 72.56479 67.717144 72.56479 
C 66.77951 72.56479 65.880152 72.937316 65.217144 73.600324 
C 64.554137 74.263332 64.181611 75.16269 64.181611 76.100324 
C 64.181611 77.037959 64.554137 77.937316 65.217144 78.600324 
C 65.880152 79.263332 66.77951 79.635858 67.717144 79.635858 
z
" clip-path="url(#p2202e210c0)" style="fill: #67000d; stroke: #00ff00; stroke-width: 2"/>
    <path d="M 90.006386 81.12591 
C 90.94402 81.12591 91.843378 80.753384 92.506386 80.090376 
C 93.169394 79.427368 93.54192 78.52801 93.54192 77.590376 
C 93.54192 76.652741 93.169394 75.753384 92.506386 75.090376 
C 91.843378 74.427368 90.94402 74.054842 90.006386 74.054842 
C 89.068751 74.054842 88.169394 74.427368 87.506386 75.090376 
C 86.843378 75.753384 86.470852 76.652741 86.470852 77.590376 
C 86.470852 78.52801 86.843378 79.427368 87.506386 80.090376 
C 88.169394 80.753384 89.068751 81.12591 90.006386 81.12591 
z
" clip-path="url(#p2202e210c0)" style="fill: #67000d; stroke: #00ff00; stroke-width: 2"/>
    <path d="M 49.420764 83.513163 
C 49.514527 83.513163 49.604463 83.47591 49.670764 83.409609 
C 49.737064 83.343309 49.774317 83.253373 49.774317 83.159609 
C 49.774317 83.065846 49.737064 82.97591 49.670764 82.909609 
C 49.604463 82.843309 49.514527 82.806056 49.420764 82.806056 
C 49.327 82.806056 49.237064 82.843309 49.170764 82.909609 
C 49.104463 82.97591 49.06721 83.065846 49.06721 83.159609 
C 49.06721 83.253373 49.104463 83.343309 49.170764 83.409609 
C 49.237064 83.47591 49.327 83.513163 49.420764 83.513163 
z
" clip-path="url(#p2202e210c0)" style="fill: #fff5f0; stroke: #ff0000; stroke-width: 2"/>
    <path d="M 104.464822 90.462032 
C 105.402457 90.462032 106.301815 90.089506 106.964822 89.426498 
C 107.62783 88.76349 108.000356 87.864133 108.000356 86.926498 
C 108.000356 85.988864 107.62783 85.089506 106.964822 84.426498 
C 106.301815 83.76349 105.402457 83.390964 104.464822 83.390964 
C 103.527188 83.390964 102.62783 83.76349 101.964822 84.426498 
C 101.301815 85.089506 100.929288 85.988864 100.929288 86.926498 
C 100.929288 87.864133 101.301815 88.76349 101.964822 89.426498 
C 102.62783 90.089506 103.527188 90.462032 104.464822 90.462032 
z
" clip-path="url(#p2202e210c0)" style="fill: #67000d; stroke: #00ff00; stroke-width: 2"/>
    <path d="M 45.457997 95.638642 
C 45.55176 95.638642 45.641696 95.60139 45.707997 95.535089 
C 45.774297 95.468788 45.81155 95.378852 45.81155 95.285089 
C 45.81155 95.191326 45.774297 95.10139 45.707997 95.035089 
C 45.641696 94.968788 45.55176 94.931536 45.457997 94.931536 
C 45.364233 94.931536 45.274297 94.968788 45.207997 95.035089 
C 45.141696 95.10139 45.104443 95.191326 45.104443 95.285089 
C 45.104443 95.378852 45.141696 95.468788 45.207997 95.535089 
C 45.274297 95.60139 45.364233 95.638642 45.457997 95.638642 
z
" clip-path="url(#p2202e210c0)" style="fill: #fff5f0; stroke: #00ff00; stroke-width: 2"/>
    <path d="M 102.343701 99.66648 
C 102.437465 99.66648 102.527401 99.629227 102.593701 99.562926 
C 102.660002 99.496625 102.697255 99.40669 102.697255 99.312926 
C 102.697255 99.219163 102.660002 99.129227 102.593701 99.062926 
C 102.527401 98.996625 102.437465 98.959373 102.343701 98.959373 
C 102.249938 98.959373 102.160002 98.996625 102.093701 99.062926 
C 102.027401 99.129227 101.990148 99.219163 101.990148 99.312926 
C 101.990148 99.40669 102.027401 99.496625 102.093701 99.562926 
C 102.160002 99.629227 102.249938 99.66648 102.343701 99.66648 
z
" clip-path="url(#p2202e210c0)" style="fill: #fff5f0; stroke: #00ff00; stroke-width: 2"/>
    <path d="M 59.421522 105.949579 
C 59.515285 105.949579 59.605221 105.912326 59.671522 105.846026 
C 59.737822 105.779725 59.775075 105.689789 59.775075 105.596026 
C 59.775075 105.502262 59.737822 105.412326 59.671522 105.346026 
C 59.605221 105.279725 59.515285 105.242472 59.421522 105.242472 
C 59.327758 105.242472 59.237822 105.279725 59.171522 105.346026 
C 59.105221 105.412326 59.067968 105.502262 59.067968 105.596026 
C 59.067968 105.689789 59.105221 105.779725 59.171522 105.846026 
C 59.237822 105.912326 59.327758 105.949579 59.421522 105.949579 
z
" clip-path="url(#p2202e210c0)" style="fill: #fff5f0; stroke: #00ff00; stroke-width: 2"/>
    <path d="M 83.554683 107.701273 
C 83.648446 107.701273 83.738382 107.664021 83.804683 107.59772 
C 83.870984 107.531419 83.908236 107.441483 83.908236 107.34772 
C 83.908236 107.253956 83.870984 107.164021 83.804683 107.09772 
C 83.738382 107.031419 83.648446 106.994166 83.554683 106.994166 
C 83.46092 106.994166 83.370984 107.031419 83.304683 107.09772 
C 83.238382 107.164021 83.20113 107.253956 83.20113 107.34772 
C 83.20113 107.441483 83.238382 107.531419 83.304683 107.59772 
C 83.370984 107.664021 83.46092 107.701273 83.554683 107.701273 
z
" clip-path="url(#p2202e210c0)" style="fill: #fff5f0; stroke: #00ff00; stroke-width: 2"/>
   </g>
   <g id="patch_9">
    <path d="M 77.694519 76.767319 
Q 81.357119 77.012166 85.019719 77.257014 
" clip-path="url(#p2202e210c0)" style="fill: none; stroke: #000000; stroke-linecap: round"/>
   </g>
   <g id="Path3DCollection_2">
    <path d="M 67.647031 70.080262 
C 68.584666 70.080262 69.484023 69.707736 70.147031 69.044728 
C 70.810039 68.381721 71.182565 67.482363 71.182565 66.544728 
C 71.182565 65.607094 70.810039 64.707736 70.147031 64.044728 
C 69.484023 63.381721 68.584666 63.009195 67.647031 63.009195 
C 66.709396 63.009195 65.810039 63.381721 65.147031 64.044728 
C 64.484023 64.707736 64.111497 65.607094 64.111497 66.544728 
C 64.111497 67.482363 64.484023 68.381721 65.147031 69.044728 
C 65.810039 69.707736 66.709396 70.080262 67.647031 70.080262 
z
" clip-path="url(#p2202e210c0)" style="fill: #08306b; stroke: #00ff00; stroke-width: 2"/>
    <path d="M 90.142993 71.543202 
C 91.080627 71.543202 91.979985 71.170676 92.642993 70.507668 
C 93.306001 69.84466 93.678527 68.945302 93.678527 68.007668 
C 93.678527 67.070033 93.306001 66.170676 92.642993 65.507668 
C 91.979985 64.84466 91.080627 64.472134 90.142993 64.472134 
C 89.205358 64.472134 88.306001 64.84466 87.642993 65.507668 
C 86.979985 66.170676 86.607459 67.070033 86.607459 68.007668 
C 86.607459 68.945302 86.979985 69.84466 87.642993 70.507668 
C 88.306001 71.170676 89.205358 71.543202 90.142993 71.543202 
z
" clip-path="url(#p2202e210c0)" style="fill: #08306b; stroke: #00ff00; stroke-width: 2"/>
    <path d="M 49.17658 73.830137 
C 49.270344 73.830137 49.360279 73.792884 49.42658 73.726583 
C 49.492881 73.660283 49.530133 73.570347 49.530133 73.476583 
C 49.530133 73.38282 49.492881 73.292884 49.42658 73.226583 
C 49.360279 73.160283 49.270344 73.12303 49.17658 73.12303 
C 49.082817 73.12303 48.992881 73.160283 48.92658 73.226583 
C 48.860279 73.292884 48.823027 73.38282 48.823027 73.476583 
C 48.823027 73.570347 48.860279 73.660283 48.92658 73.726583 
C 48.992881 73.792884 49.082817 73.830137 49.17658 73.830137 
z
" clip-path="url(#p2202e210c0)" style="fill: #f7fbff; stroke: #ff0000; stroke-width: 2"/>
    <path d="M 104.742963 80.712064 
C 105.680598 80.712064 106.579955 80.339538 107.242963 79.67653 
C 107.905971 79.013522 108.278497 78.114165 108.278497 77.17653 
C 108.278497 76.238896 107.905971 75.339538 107.242963 74.67653 
C 106.579955 74.013522 105.680598 73.640996 104.742963 73.640996 
C 103.805329 73.640996 102.905971 74.013522 102.242963 74.67653 
C 101.579955 75.339538 101.207429 76.238896 101.207429 77.17653 
C 101.207429 78.114165 101.579955 79.013522 102.242963 79.67653 
C 102.905971 80.339538 103.805329 80.712064 104.742963 80.712064 
z
" clip-path="url(#p2202e210c0)" style="fill: #08306b; stroke: #00ff00; stroke-width: 2"/>
    <path d="M 45.166789 85.742757 
C 45.260553 85.742757 45.350489 85.705505 45.416789 85.639204 
C 45.48309 85.572903 45.520343 85.482968 45.520343 85.389204 
C 45.520343 85.295441 45.48309 85.205505 45.416789 85.139204 
C 45.350489 85.072903 45.260553 85.035651 45.166789 85.035651 
C 45.073026 85.035651 44.98309 85.072903 44.916789 85.139204 
C 44.850489 85.205505 44.813236 85.295441 44.813236 85.389204 
C 44.813236 85.482968 44.850489 85.572903 44.916789 85.639204 
C 44.98309 85.705505 45.073026 85.742757 45.166789 85.742757 
z
" clip-path="url(#p2202e210c0)" style="fill: #f7fbff; stroke: #00ff00; stroke-width: 2"/>
    <path d="M 102.610533 89.701573 
C 102.704297 89.701573 102.794232 89.66432 102.860533 89.59802 
C 102.926834 89.531719 102.964086 89.441783 102.964086 89.34802 
C 102.964086 89.254256 102.926834 89.16432 102.860533 89.09802 
C 102.794232 89.031719 102.704297 88.994466 102.610533 88.994466 
C 102.51677 88.994466 102.426834 89.031719 102.360533 89.09802 
C 102.294232 89.16432 102.25698 89.254256 102.25698 89.34802 
C 102.25698 89.441783 102.294232 89.531719 102.360533 89.59802 
C 102.426834 89.66432 102.51677 89.701573 102.610533 89.701573 
z
" clip-path="url(#p2202e210c0)" style="fill: #f7fbff; stroke: #00ff00; stroke-width: 2"/>
    <path d="M 59.262222 99.060664 
C 60.199857 99.060664 61.099214 98.688138 61.762222 98.02513 
C 62.42523 97.362122 62.797756 96.462765 62.797756 95.52513 
C 62.797756 94.587495 62.42523 93.688138 61.762222 93.02513 
C 61.099214 92.362122 60.199857 91.989596 59.262222 91.989596 
C 58.324588 91.989596 57.42523 92.362122 56.762222 93.02513 
C 56.099214 93.688138 55.726688 94.587495 55.726688 95.52513 
C 55.726688 96.462765 56.099214 97.362122 56.762222 98.02513 
C 57.42523 98.688138 58.324588 99.060664 59.262222 99.060664 
z
" clip-path="url(#p2202e210c0)" style="fill: #08306b; stroke: #00ff00; stroke-width: 2"/>
    <path d="M 83.637907 97.601194 
C 83.731671 97.601194 83.821607 97.563941 83.887907 97.49764 
C 83.954208 97.431339 83.991461 97.341404 83.991461 97.24764 
C 83.991461 97.153877 83.954208 97.063941 83.887907 96.99764 
C 83.821607 96.931339 83.731671 96.894087 83.637907 96.894087 
C 83.544144 96.894087 83.454208 96.931339 83.387907 96.99764 
C 83.321607 97.063941 83.284354 97.153877 83.284354 97.24764 
C 83.284354 97.341404 83.321607 97.431339 83.387907 97.49764 
C 83.454208 97.563941 83.544144 97.601194 83.637907 97.601194 
z
" clip-path="url(#p2202e210c0)" style="fill: #f7fbff; stroke: #00ff00; stroke-width: 2"/>
   </g>
   <g id="patch_10">
    <path d="M 80.166451 67.358881 
Q 76.402373 67.114099 72.638294 66.869316 
" clip-path="url(#p2202e210c0)" style="fill: none; stroke: #000000; stroke-linecap: round"/>
   </g>
   <g id="Path3DCollection_3">
    <path d="M 67.575609 60.346271 
C 68.513243 60.346271 69.412601 59.973745 70.075609 59.310737 
C 70.738616 58.647729 71.111142 57.748371 71.111142 56.810737 
C 71.111142 55.873102 70.738616 54.973745 70.075609 54.310737 
C 69.412601 53.647729 68.513243 53.275203 67.575609 53.275203 
C 66.637974 53.275203 65.738616 53.647729 65.075609 54.310737 
C 64.412601 54.973745 64.040075 55.873102 64.040075 56.810737 
C 64.040075 57.748371 64.412601 58.647729 65.075609 59.310737 
C 65.738616 59.973745 66.637974 60.346271 67.575609 60.346271 
z
" clip-path="url(#p2202e210c0)" style="fill: #00441b; stroke: #00ff00; stroke-width: 2"/>
    <path d="M 90.282161 61.780818 
C 91.219796 61.780818 92.119153 61.408292 92.782161 60.745284 
C 93.445169 60.082276 93.817695 59.182918 93.817695 58.245284 
C 93.817695 57.307649 93.445169 56.408292 92.782161 55.745284 
C 92.119153 55.082276 91.219796 54.70975 90.282161 54.70975 
C 89.344526 54.70975 88.445169 55.082276 87.782161 55.745284 
C 87.119153 56.408292 86.746627 57.307649 86.746627 58.245284 
C 86.746627 59.182918 87.119153 60.082276 87.782161 60.745284 
C 88.445169 61.408292 89.344526 61.780818 90.282161 61.780818 
z
" clip-path="url(#p2202e210c0)" style="fill: #00441b; stroke: #00ff00; stroke-width: 2"/>
    <path d="M 48.927744 63.96263 
C 49.021508 63.96263 49.111444 63.925378 49.177744 63.859077 
C 49.244045 63.792776 49.281298 63.70284 49.281298 63.609077 
C 49.281298 63.515313 49.244045 63.425378 49.177744 63.359077 
C 49.111444 63.292776 49.021508 63.255523 48.927744 63.255523 
C 48.833981 63.255523 48.744045 63.292776 48.677744 63.359077 
C 48.611444 63.425378 48.574191 63.515313 48.574191 63.609077 
C 48.574191 63.70284 48.611444 63.792776 48.677744 63.859077 
C 48.744045 63.925378 48.833981 63.96263 48.927744 63.96263 
z
" clip-path="url(#p2202e210c0)" style="fill: #f7fcf5; stroke: #ff0000; stroke-width: 2"/>
    <path d="M 105.02646 67.592367 
C 105.120224 67.592367 105.210159 67.555115 105.27646 67.488814 
C 105.342761 67.422513 105.380014 67.332577 105.380014 67.238814 
C 105.380014 67.14505 105.342761 67.055115 105.27646 66.988814 
C 105.210159 66.922513 105.120224 66.88526 105.02646 66.88526 
C 104.932697 66.88526 104.842761 66.922513 104.77646 66.988814 
C 104.710159 67.055115 104.672907 67.14505 104.672907 67.238814 
C 104.672907 67.332577 104.710159 67.422513 104.77646 67.488814 
C 104.842761 67.555115 104.932697 67.592367 105.02646 67.592367 
z
" clip-path="url(#p2202e210c0)" style="fill: #f7fcf5; stroke: #00ff00; stroke-width: 2"/>
    <path d="M 44.869842 75.651824 
C 44.963606 75.651824 45.053541 75.614572 45.119842 75.548271 
C 45.186143 75.48197 45.223396 75.392035 45.223396 75.298271 
C 45.223396 75.204508 45.186143 75.114572 45.119842 75.048271 
C 45.053541 74.98197 44.963606 74.944718 44.869842 74.944718 
C 44.776079 74.944718 44.686143 74.98197 44.619842 75.048271 
C 44.553541 75.114572 44.516289 75.204508 44.516289 75.298271 
C 44.516289 75.392035 44.553541 75.48197 44.619842 75.548271 
C 44.686143 75.614572 44.776079 75.651824 44.869842 75.651824 
z
" clip-path="url(#p2202e210c0)" style="fill: #f7fcf5; stroke: #00ff00; stroke-width: 2"/>
    <path d="M 102.882682 79.538078 
C 102.976446 79.538078 103.066382 79.500825 103.132682 79.434524 
C 103.198983 79.368224 103.236236 79.278288 103.236236 79.184524 
C 103.236236 79.090761 103.198983 79.000825 103.132682 78.934524 
C 103.066382 78.868224 102.976446 78.830971 102.882682 78.830971 
C 102.788919 78.830971 102.698983 78.868224 102.632682 78.934524 
C 102.566382 79.000825 102.529129 79.090761 102.529129 79.184524 
C 102.529129 79.278288 102.566382 79.368224 102.632682 79.434524 
C 102.698983 79.500825 102.788919 79.538078 102.882682 79.538078 
z
" clip-path="url(#p2202e210c0)" style="fill: #f7fcf5; stroke: #00ff00; stroke-width: 2"/>
    <path d="M 59.099693 88.785629 
C 60.037328 88.785629 60.936686 88.413102 61.599693 87.750095 
C 62.262701 87.087087 62.635227 86.187729 62.635227 85.250095 
C 62.635227 84.31246 62.262701 83.413102 61.599693 82.750095 
C 60.936686 82.087087 60.037328 81.714561 59.099693 81.714561 
C 58.162059 81.714561 57.262701 82.087087 56.599693 82.750095 
C 55.936686 83.413102 55.56416 84.31246 55.56416 85.250095 
C 55.56416 86.187729 55.936686 87.087087 56.599693 87.750095 
C 57.262701 88.413102 58.162059 88.785629 59.099693 88.785629 
z
" clip-path="url(#p2202e210c0)" style="fill: #00441b; stroke: #00ff00; stroke-width: 2"/>
    <path d="M 83.722827 87.29542 
C 83.81659 87.29542 83.906526 87.258168 83.972827 87.191867 
C 84.039128 87.125566 84.07638 87.035631 84.07638 86.941867 
C 84.07638 86.848104 84.039128 86.758168 83.972827 86.691867 
C 83.906526 86.625566 83.81659 86.588314 83.722827 86.588314 
C 83.629063 86.588314 83.539128 86.625566 83.472827 86.691867 
C 83.406526 86.758168 83.369273 86.848104 83.369273 86.941867 
C 83.369273 87.035631 83.406526 87.125566 83.472827 87.191867 
C 83.539128 87.258168 83.629063 87.29542 83.722827 87.29542 
z
" clip-path="url(#p2202e210c0)" style="fill: #f7fcf5; stroke: #00ff00; stroke-width: 2"/>
   </g>
   <g id="patch_11">
    <path d="M 77.623573 67.193515 
Q 81.387651 67.438297 85.15173 67.68308 
" clip-path="url(#p2202e210c0)" style="fill: none; stroke: #000000; stroke-linecap: round"/>
   </g>
   <g id="Path3DCollection_4">
    <path d="M 67.50284 50.428841 
C 68.440475 50.428841 69.339832 50.056315 70.00284 49.393307 
C 70.665848 48.730299 71.038374 47.830941 71.038374 46.893307 
C 71.038374 45.955672 70.665848 45.056315 70.00284 44.393307 
C 69.339832 43.730299 68.440475 43.357773 67.50284 43.357773 
C 66.565206 43.357773 65.665848 43.730299 65.00284 44.393307 
C 64.339832 45.056315 63.967306 45.955672 63.967306 46.893307 
C 63.967306 47.830941 64.339832 48.730299 65.00284 49.393307 
C 65.665848 50.056315 66.565206 50.428841 67.50284 50.428841 
z
" clip-path="url(#p2202e210c0)" style="fill: #7f2704; stroke: #00ff00; stroke-width: 2"/>
    <path d="M 90.423963 51.833657 
C 91.361598 51.833657 92.260956 51.461131 92.923963 50.798123 
C 93.586971 50.135115 93.959497 49.235758 93.959497 48.298123 
C 93.959497 47.360488 93.586971 46.461131 92.923963 45.798123 
C 92.260956 45.135115 91.361598 44.762589 90.423963 44.762589 
C 89.486329 44.762589 88.586971 45.135115 87.923963 45.798123 
C 87.260956 46.461131 86.88843 47.360488 86.88843 48.298123 
C 86.88843 49.235758 87.260956 50.135115 87.923963 50.798123 
C 88.586971 51.461131 89.486329 51.833657 90.423963 51.833657 
z
" clip-path="url(#p2202e210c0)" style="fill: #7f2704; stroke: #00ff00; stroke-width: 2"/>
    <path d="M 48.674122 53.90532 
C 48.767886 53.90532 48.857821 53.868068 48.924122 53.801767 
C 48.990423 53.735466 49.027676 53.64553 49.027676 53.551767 
C 49.027676 53.458003 48.990423 53.368068 48.924122 53.301767 
C 48.857821 53.235466 48.767886 53.198213 48.674122 53.198213 
C 48.580359 53.198213 48.490423 53.235466 48.424122 53.301767 
C 48.357821 53.368068 48.320569 53.458003 48.320569 53.551767 
C 48.320569 53.64553 48.357821 53.735466 48.424122 53.801767 
C 48.490423 53.868068 48.580359 53.90532 48.674122 53.90532 
z
" clip-path="url(#p2202e210c0)" style="fill: #fff5eb; stroke: #ff0000; stroke-width: 2"/>
    <path d="M 105.315469 57.461427 
C 105.409233 57.461427 105.499168 57.424174 105.565469 57.357874 
C 105.63177 57.291573 105.669023 57.201637 105.669023 57.107874 
C 105.669023 57.01411 105.63177 56.924174 105.565469 56.857874 
C 105.499168 56.791573 105.409233 56.75432 105.315469 56.75432 
C 105.221706 56.75432 105.13177 56.791573 105.065469 56.857874 
C 104.999168 56.924174 104.961916 57.01411 104.961916 57.107874 
C 104.961916 57.201637 104.999168 57.291573 105.065469 57.357874 
C 105.13177 57.424174 105.221706 57.461427 105.315469 57.461427 
z
" clip-path="url(#p2202e210c0)" style="fill: #fff5eb; stroke: #00ff00; stroke-width: 2"/>
    <path d="M 44.566984 65.360019 
C 44.660747 65.360019 44.750683 65.322767 44.816984 65.256466 
C 44.883285 65.190165 44.920537 65.100229 44.920537 65.006466 
C 44.920537 64.912703 44.883285 64.822767 44.816984 64.756466 
C 44.750683 64.690165 44.660747 64.652913 44.566984 64.652913 
C 44.473221 64.652913 44.383285 64.690165 44.316984 64.756466 
C 44.250683 64.822767 44.213431 64.912703 44.213431 65.006466 
C 44.213431 65.100229 44.250683 65.190165 44.316984 65.256466 
C 44.383285 65.322767 44.473221 65.360019 44.566984 65.360019 
z
" clip-path="url(#p2202e210c0)" style="fill: #fff5eb; stroke: #00ff00; stroke-width: 2"/>
    <path d="M 103.16031 69.169998 
C 103.254073 69.169998 103.344009 69.132745 103.41031 69.066444 
C 103.476611 69.000143 103.513863 68.910208 103.513863 68.816444 
C 103.513863 68.722681 103.476611 68.632745 103.41031 68.566444 
C 103.344009 68.500143 103.254073 68.462891 103.16031 68.462891 
C 103.066546 68.462891 102.976611 68.500143 102.91031 68.566444 
C 102.844009 68.632745 102.806756 68.722681 102.806756 68.816444 
C 102.806756 68.910208 102.844009 69.000143 102.91031 69.066444 
C 102.976611 69.132745 103.066546 69.169998 103.16031 69.169998 
z
" clip-path="url(#p2202e210c0)" style="fill: #fff5eb; stroke: #00ff00; stroke-width: 2"/>
    <path d="M 58.933837 78.300183 
C 59.871471 78.300183 60.770829 77.927657 61.433837 77.264649 
C 62.096844 76.601641 62.469371 75.702284 62.469371 74.764649 
C 62.469371 73.827014 62.096844 72.927657 61.433837 72.264649 
C 60.770829 71.601641 59.871471 71.229115 58.933837 71.229115 
C 57.996202 71.229115 57.096844 71.601641 56.433837 72.264649 
C 55.770829 72.927657 55.398303 73.827014 55.398303 74.764649 
C 55.398303 75.702284 55.770829 76.601641 56.433837 77.264649 
C 57.096844 77.927657 57.996202 78.300183 58.933837 78.300183 
z
" clip-path="url(#p2202e210c0)" style="fill: #7f2704; stroke: #00ff00; stroke-width: 2"/>
    <path d="M 83.809493 76.777606 
C 83.903257 76.777606 83.993193 76.740353 84.059493 76.674053 
C 84.125794 76.607752 84.163047 76.517816 84.163047 76.424053 
C 84.163047 76.330289 84.125794 76.240353 84.059493 76.174053 
C 83.993193 76.107752 83.903257 76.070499 83.809493 76.070499 
C 83.71573 76.070499 83.625794 76.107752 83.559493 76.174053 
C 83.493193 76.240353 83.45594 76.330289 83.45594 76.424053 
C 83.45594 76.517816 83.493193 76.607752 83.559493 76.674053 
C 83.625794 76.740353 83.71573 76.777606 83.809493 76.777606 
z
" clip-path="url(#p2202e210c0)" style="fill: #fff5eb; stroke: #00ff00; stroke-width: 2"/>
   </g>
   <g id="patch_12">
    <path d="M 80.300924 57.614693 
Q 76.434553 57.370424 72.568182 57.126156 
" clip-path="url(#p2202e210c0)" style="fill: none; stroke: #000000; stroke-linecap: round"/>
   </g>
   <g id="Path3DCollection_5">
    <path d="M 67.428687 40.322737 
C 68.366322 40.322737 69.26568 39.950211 69.928687 39.287204 
C 70.591695 38.624196 70.964221 37.724838 70.964221 36.787204 
C 70.964221 35.849569 70.591695 34.950211 69.928687 34.287204 
C 69.26568 33.624196 68.366322 33.25167 67.428687 33.25167 
C 66.491053 33.25167 65.591695 33.624196 64.928687 34.287204 
C 64.26568 34.950211 63.893153 35.849569 63.893153 36.787204 
C 63.893153 37.724838 64.26568 38.624196 64.928687 39.287204 
C 65.591695 39.950211 66.491053 40.322737 67.428687 40.322737 
z
" clip-path="url(#p2202e210c0)" style="fill: #3f007d; stroke: #00ff00; stroke-width: 2"/>
    <path d="M 90.568475 41.696423 
C 91.50611 41.696423 92.405468 41.323897 93.068475 40.660889 
C 93.731483 39.997881 94.104009 39.098524 94.104009 38.160889 
C 94.104009 37.223254 93.731483 36.323897 93.068475 35.660889 
C 92.405468 34.997881 91.50611 34.625355 90.568475 34.625355 
C 89.630841 34.625355 88.731483 34.997881 88.068475 35.660889 
C 87.405468 36.323897 87.032941 37.223254 87.032941 38.160889 
C 87.032941 39.098524 87.405468 39.997881 88.068475 40.660889 
C 88.731483 41.323897 89.630841 41.696423 90.568475 41.696423 
z
" clip-path="url(#p2202e210c0)" style="fill: #3f007d; stroke: #00ff00; stroke-width: 2"/>
    <path d="M 48.415574 43.652677 
C 48.509338 43.652677 48.599273 43.615425 48.665574 43.549124 
C 48.731875 43.482823 48.769128 43.392887 48.769128 43.299124 
C 48.769128 43.20536 48.731875 43.115425 48.665574 43.049124 
C 48.599273 42.982823 48.509338 42.945571 48.415574 42.945571 
C 48.321811 42.945571 48.231875 42.982823 48.165574 43.049124 
C 48.099273 43.115425 48.062021 43.20536 48.062021 43.299124 
C 48.062021 43.392887 48.099273 43.482823 48.165574 43.549124 
C 48.231875 43.615425 48.321811 43.652677 48.415574 43.652677 
z
" clip-path="url(#p2202e210c0)" style="fill: #fcfbfd; stroke: #ff0000; stroke-width: 2"/>
    <path d="M 105.610153 47.131572 
C 105.703916 47.131572 105.793852 47.094319 105.860153 47.028018 
C 105.926454 46.961718 105.963706 46.871782 105.963706 46.778018 
C 105.963706 46.684255 105.926454 46.594319 105.860153 46.528018 
C 105.793852 46.461718 105.703916 46.424465 105.610153 46.424465 
C 105.516389 46.424465 105.426454 46.461718 105.360153 46.528018 
C 105.293852 46.594319 105.256599 46.684255 105.256599 46.778018 
C 105.256599 46.871782 105.293852 46.961718 105.360153 47.028018 
C 105.426454 47.094319 105.516389 47.131572 105.610153 47.131572 
z
" clip-path="url(#p2202e210c0)" style="fill: #fcfbfd; stroke: #00ff00; stroke-width: 2"/>
    <path d="M 44.258036 54.861284 
C 44.3518 54.861284 44.441736 54.824031 44.508036 54.757731 
C 44.574337 54.69143 44.61159 54.601494 44.61159 54.507731 
C 44.61159 54.413967 44.574337 54.324031 44.508036 54.257731 
C 44.441736 54.19143 44.3518 54.154177 44.258036 54.154177 
C 44.164273 54.154177 44.074337 54.19143 44.008036 54.257731 
C 43.941736 54.324031 43.904483 54.413967 43.904483 54.507731 
C 43.904483 54.601494 43.941736 54.69143 44.008036 54.757731 
C 44.074337 54.824031 44.164273 54.861284 44.258036 54.861284 
z
" clip-path="url(#p2202e210c0)" style="fill: #fcfbfd; stroke: #00ff00; stroke-width: 2"/>
    <path d="M 103.443583 58.591092 
C 103.537346 58.591092 103.627282 58.55384 103.693583 58.487539 
C 103.759883 58.421238 103.797136 58.331303 103.797136 58.237539 
C 103.797136 58.143776 103.759883 58.05384 103.693583 57.987539 
C 103.627282 57.921238 103.537346 57.883986 103.443583 57.883986 
C 103.349819 57.883986 103.259883 57.921238 103.193583 57.987539 
C 103.127282 58.05384 103.090029 58.143776 103.090029 58.237539 
C 103.090029 58.331303 103.127282 58.421238 103.193583 58.487539 
C 103.259883 58.55384 103.349819 58.591092 103.443583 58.591092 
z
" clip-path="url(#p2202e210c0)" style="fill: #fcfbfd; stroke: #00ff00; stroke-width: 2"/>
    <path d="M 58.764548 67.597797 
C 59.702183 67.597797 60.601541 67.225271 61.264548 66.562263 
C 61.927556 65.899255 62.300082 64.999898 62.300082 64.062263 
C 62.300082 63.124629 61.927556 62.225271 61.264548 61.562263 
C 60.601541 60.899255 59.702183 60.526729 58.764548 60.526729 
C 57.826914 60.526729 56.927556 60.899255 56.264548 61.562263 
C 55.601541 62.225271 55.229014 63.124629 55.229014 64.062263 
C 55.229014 64.999898 55.601541 65.899255 56.264548 66.562263 
C 56.927556 67.225271 57.826914 67.597797 58.764548 67.597797 
z
" clip-path="url(#p2202e210c0)" style="fill: #3f007d; stroke: #00ff00; stroke-width: 2"/>
    <path d="M 83.897962 66.041138 
C 83.991725 66.041138 84.081661 66.003885 84.147962 65.937584 
C 84.214263 65.871284 84.251515 65.781348 84.251515 65.687584 
C 84.251515 65.593821 84.214263 65.503885 84.147962 65.437584 
C 84.081661 65.371284 83.991725 65.334031 83.897962 65.334031 
C 83.804198 65.334031 83.714263 65.371284 83.647962 65.437584 
C 83.581661 65.503885 83.544408 65.593821 83.544408 65.687584 
C 83.544408 65.781348 83.581661 65.871284 83.647962 65.937584 
C 83.714263 66.003885 83.804198 66.041138 83.897962 66.041138 
z
" clip-path="url(#p2202e210c0)" style="fill: #fcfbfd; stroke: #00ff00; stroke-width: 2"/>
   </g>
   <g id="patch_13">
    <path d="M 77.556846 57.441328 
Q 81.423217 57.685596 85.289587 57.929865 
" clip-path="url(#p2202e210c0)" style="fill: none; stroke: #000000; stroke-linecap: round"/>
   </g>
   <g id="patch_14">
    <path d="M 96.06721 81.50398 
Q 95.136483 80.902989 94.205756 80.301999 
" clip-path="url(#p2202e210c0)" style="fill: none; opacity: 0.83142; stroke: #696969; stroke-width: 0.662841; stroke-linecap: round"/>
   </g>
   <g id="patch_15">
    <path d="M 94.869695 84.099693 
Q 83.691475 80.806496 72.513255 77.513299 
" clip-path="url(#p2202e210c0)" style="fill: none; opacity: 0.942611; stroke: #222222; stroke-width: 0.885222; stroke-linecap: round"/>
   </g>
   <g id="patch_16">
    <path d="M 98.403998 83.012894 
Q 99.334725 83.613885 100.265452 84.214875 
" clip-path="url(#p2202e210c0)" style="fill: none; opacity: 0.83142; stroke: #696969; stroke-width: 0.662841; stroke-linecap: round"/>
   </g>
   <g id="patch_17">
    <path d="M 77.312272 78.927129 
Q 88.490492 82.220326 99.668711 85.513524 
" clip-path="url(#p2202e210c0)" style="fill: none; opacity: 0.942611; stroke: #222222; stroke-width: 0.885222; stroke-linecap: round"/>
   </g>
   <g id="patch_18">
    <path d="M 80.443538 47.686431 
Q 76.467496 47.442743 72.491454 47.199055 
" clip-path="url(#p2202e210c0)" style="fill: none; stroke: #000000; stroke-linecap: round"/>
   </g>
   <g id="patch_19">
    <path d="M 77.483266 47.504999 
Q 81.459308 47.748687 85.43535 47.992375 
" clip-path="url(#p2202e210c0)" style="fill: none; stroke: #000000; stroke-linecap: round"/>
   </g>
   <g id="patch_20">
    <path d="M 96.277404 71.860112 
Q 95.326391 71.26287 94.375377 70.665629 
" clip-path="url(#p2202e210c0)" style="fill: none; opacity: 0.74502; stroke: #999999; stroke-width: 0.49004; stroke-linecap: round"/>
   </g>
   <g id="patch_21">
    <path d="M 95.129357 74.421243 
Q 83.791891 71.171892 72.454425 67.922542 
" clip-path="url(#p2202e210c0)" style="fill: none; opacity: 0.815737; stroke: #717171; stroke-width: 0.631474; stroke-linecap: round"/>
   </g>
   <g id="patch_22">
    <path d="M 98.608552 73.324086 
Q 99.559565 73.921328 100.510579 74.518569 
" clip-path="url(#p2202e210c0)" style="fill: none; opacity: 0.74502; stroke: #999999; stroke-width: 0.49004; stroke-linecap: round"/>
   </g>
   <g id="patch_23">
    <path d="M 77.260637 69.300016 
Q 88.598103 72.549366 99.935569 75.798717 
" clip-path="url(#p2202e210c0)" style="fill: none; opacity: 0.815737; stroke: #717171; stroke-width: 0.631474; stroke-linecap: round"/>
   </g>
   <g id="patch_24">
    <path d="M 80.583228 37.568118 
Q 76.502944 37.325894 73.538729 37.149924 
" clip-path="url(#p2202e210c0)" style="fill: none; stroke: #000000; stroke-linecap: round"/>
    <path d="M 81.287628 41.616977 
L 73.538729 37.149924 
L 81.76171 33.631036 
z
" clip-path="url(#p2202e210c0)" style="stroke: #000000; stroke-linecap: round"/>
   </g>
   <g id="patch_25">
    <path d="M 77.413935 37.379974 
Q 81.494219 37.622199 84.458434 37.798169 
" clip-path="url(#p2202e210c0)" style="fill: none; stroke: #000000; stroke-linecap: round"/>
    <path d="M 76.709535 33.331116 
L 84.458434 37.798169 
L 76.235452 41.317056 
z
" clip-path="url(#p2202e210c0)" style="stroke: #000000; stroke-linecap: round"/>
   </g>
   <g id="patch_26">
    <path d="M 96.491613 62.032842 
Q 95.51987 61.440112 94.548127 60.847381 
" clip-path="url(#p2202e210c0)" style="fill: none; opacity: 0.806624; stroke: #777777; stroke-width: 0.613248; stroke-linecap: round"/>
   </g>
   <g id="patch_27">
    <path d="M 95.394021 64.55669 
Q 83.894136 61.354582 72.394252 58.152474 
" clip-path="url(#p2202e210c0)" style="fill: none; opacity: 0.83547; stroke: #676767; stroke-width: 0.67094; stroke-linecap: round"/>
   </g>
   <g id="patch_28">
    <path d="M 98.817008 63.451255 
Q 99.788751 64.043986 100.760494 64.636717 
" clip-path="url(#p2202e210c0)" style="fill: none; opacity: 0.806624; stroke: #777777; stroke-width: 0.613248; stroke-linecap: round"/>
   </g>
   <g id="patch_29">
    <path d="M 77.208048 59.492861 
Q 88.707932 62.694969 100.207817 65.897077 
" clip-path="url(#p2202e210c0)" style="fill: none; opacity: 0.83547; stroke: #676767; stroke-width: 0.67094; stroke-linecap: round"/>
   </g>
   <g id="patch_30">
    <path d="M 96.709953 52.016887 
Q 95.720094 51.431291 94.730235 50.845694 
" clip-path="url(#p2202e210c0)" style="fill: none; opacity: 0.850811; stroke: #5f5f5f; stroke-width: 0.701622; stroke-linecap: round"/>
   </g>
   <g id="patch_31">
    <path d="M 95.663833 54.500615 
Q 83.998265 51.349321 72.332698 48.198027 
" clip-path="url(#p2202e210c0)" style="fill: none; opacity: 0.883243; stroke: #4d4d4d; stroke-width: 0.766486; stroke-linecap: round"/>
   </g>
   <g id="patch_32">
    <path d="M 99.02948 53.389109 
Q 100.019339 53.974706 101.009198 54.560302 
" clip-path="url(#p2202e210c0)" style="fill: none; opacity: 0.850811; stroke: #5f5f5f; stroke-width: 0.701622; stroke-linecap: round"/>
   </g>
   <g id="patch_33">
    <path d="M 77.154477 49.500565 
Q 88.820044 52.651859 100.485612 55.803153 
" clip-path="url(#p2202e210c0)" style="fill: none; opacity: 0.883243; stroke: #4d4d4d; stroke-width: 0.766486; stroke-linecap: round"/>
   </g>
   <g id="patch_34">
    <path d="M 96.932544 41.806759 
Q 95.921068 41.227301 95.577943 41.030731 
" clip-path="url(#p2202e210c0)" style="fill: none; opacity: 0.84447; stroke: #626262; stroke-width: 0.68894; stroke-linecap: round"/>
    <path d="M 100.531172 48.478249 
L 95.577943 41.030731 
L 104.507895 41.536658 
z
" clip-path="url(#p2202e210c0)" style="fill: #626262; opacity: 0.84447; stroke: #626262; stroke-width: 0.68894; stroke-linecap: round"/>
   </g>
   <g id="patch_35">
    <path d="M 95.938944 44.247386 
Q 84.100854 41.149753 72.944382 38.230477 
" clip-path="url(#p2202e210c0)" style="fill: none; opacity: 0.815092; stroke: #717171; stroke-width: 0.630184; stroke-linecap: round"/>
    <path d="M 79.671236 44.125342 
L 72.944382 38.230477 
L 81.696386 36.385912 
z
" clip-path="url(#p2202e210c0)" style="fill: #717171; opacity: 0.815092; stroke: #717171; stroke-width: 0.630184; stroke-linecap: round"/>
   </g>
   <g id="patch_36">
    <path d="M 99.246084 43.132148 
Q 100.257561 43.711606 100.600685 43.908177 
" clip-path="url(#p2202e210c0)" style="fill: none; opacity: 0.84447; stroke: #626262; stroke-width: 0.68894; stroke-linecap: round"/>
    <path d="M 95.647456 36.460659 
L 100.600685 43.908177 
L 91.670733 43.402249 
z
" clip-path="url(#p2202e210c0)" style="fill: #626262; opacity: 0.84447; stroke: #626262; stroke-width: 0.68894; stroke-linecap: round"/>
   </g>
   <g id="patch_37">
    <path d="M 77.099896 39.317836 
Q 88.937987 42.415469 100.094458 45.334745 
" clip-path="url(#p2202e210c0)" style="fill: none; opacity: 0.815092; stroke: #717171; stroke-width: 0.630184; stroke-linecap: round"/>
    <path d="M 93.367604 39.43988 
L 100.094458 45.334745 
L 91.342454 47.17931 
z
" clip-path="url(#p2202e210c0)" style="fill: #717171; opacity: 0.815092; stroke: #717171; stroke-width: 0.630184; stroke-linecap: round"/>
   </g>
   <g id="patch_38">
    <path d="M 65.010333 85.724593 
Q 62.893039 93.25279 60.775744 100.780987 
" clip-path="url(#p2202e210c0)" style="fill: none; opacity: 0.697991; stroke: #b6b6b6; stroke-width: 0.395983; stroke-linecap: round"/>
   </g>
   <g id="patch_39">
    <path d="M 62.128333 95.971757 
Q 64.245628 88.44356 66.362922 80.915362 
" clip-path="url(#p2202e210c0)" style="fill: none; opacity: 0.697991; stroke: #b6b6b6; stroke-width: 0.395983; stroke-linecap: round"/>
   </g>
   <g id="patch_40">
    <path d="M 97.310144 93.913886 
Q 92.220691 98.884339 87.131237 103.854792 
" clip-path="url(#p2202e210c0)" style="fill: none; opacity: 0.614778; stroke: #dddddd; stroke-width: 0.229555; stroke-linecap: round"/>
   </g>
   <g id="patch_41">
    <path d="M 87.887058 87.365402 
Q 86.250254 94.914874 84.613449 102.464346 
" clip-path="url(#p2202e210c0)" style="fill: none; opacity: 0.655667; stroke: #cccccc; stroke-width: 0.311334; stroke-linecap: round"/>
   </g>
   <g id="patch_42">
    <path d="M 90.709361 100.360332 
Q 95.798814 95.389879 100.888268 90.419426 
" clip-path="url(#p2202e210c0)" style="fill: none; opacity: 0.614778; stroke: #dddddd; stroke-width: 0.229555; stroke-linecap: round"/>
   </g>
   <g id="patch_43">
    <path d="M 85.674011 97.572694 
Q 87.310815 90.023222 88.947619 82.47375 
" clip-path="url(#p2202e210c0)" style="fill: none; opacity: 0.655667; stroke: #cccccc; stroke-width: 0.311334; stroke-linecap: round"/>
   </g>
   <g id="patch_44">
    <path d="M 95.468601 80.918148 
Q 79.683557 87.286414 63.898513 93.65468 
" clip-path="url(#p2202e210c0)" style="fill: none; opacity: 0.620518; stroke: #dbdbdb; stroke-width: 0.241036; stroke-linecap: round"/>
   </g>
   <g id="patch_45">
    <path d="M 82.67725 74.660296 
Q 72.837622 83.428264 62.997994 92.196231 
" clip-path="url(#p2202e210c0)" style="fill: none; opacity: 0.669323; stroke: #c5c5c5; stroke-width: 0.338645; stroke-linecap: round"/>
   </g>
   <g id="patch_46">
    <path d="M 64.86813 76.149439 
Q 62.759756 83.43661 60.651381 90.723781 
" clip-path="url(#p2202e210c0)" style="fill: none; opacity: 0.751992; stroke: #959595; stroke-width: 0.503984; stroke-linecap: round"/>
   </g>
   <g id="patch_47">
    <path d="M 68.536585 91.783512 
Q 84.321629 85.415246 100.106673 79.04698 
" clip-path="url(#p2202e210c0)" style="fill: none; opacity: 0.620518; stroke: #dbdbdb; stroke-width: 0.241036; stroke-linecap: round"/>
   </g>
   <g id="patch_48">
    <path d="M 66.727965 88.872501 
Q 76.567593 80.104534 86.407221 71.336566 
" clip-path="url(#p2202e210c0)" style="fill: none; opacity: 0.669323; stroke: #c5c5c5; stroke-width: 0.338645; stroke-linecap: round"/>
   </g>
   <g id="patch_49">
    <path d="M 62.041123 85.920419 
Q 64.149497 78.633248 66.257872 71.346078 
" clip-path="url(#p2202e210c0)" style="fill: none; opacity: 0.751992; stroke: #959595; stroke-width: 0.503984; stroke-linecap: round"/>
   </g>
   <g id="patch_50">
    <path d="M 82.724448 64.790456 
Q 72.802455 73.383155 62.880462 81.975853 
" clip-path="url(#p2202e210c0)" style="fill: none; opacity: 0.818376; stroke: #707070; stroke-width: 0.636752; stroke-linecap: round"/>
   </g>
   <g id="patch_51">
    <path d="M 64.718919 66.395828 
Q 62.62337 73.427052 60.527822 80.458275 
" clip-path="url(#p2202e210c0)" style="fill: none; opacity: 0.797009; stroke: #7c7c7c; stroke-width: 0.594017; stroke-linecap: round"/>
   </g>
   <g id="patch_52">
    <path d="M 53.065208 81.029802 
Q 54.033142 81.706739 55.001076 82.383675 
" clip-path="url(#p2202e210c0)" style="fill: none; opacity: 0.726496; stroke: #a5a5a5; stroke-width: 0.452991; stroke-linecap: round"/>
   </g>
   <g id="patch_53">
    <path d="M 66.657407 78.704922 
Q 76.5794 70.112224 86.501393 61.519525 
" clip-path="url(#p2202e210c0)" style="fill: none; opacity: 0.818376; stroke: #707070; stroke-width: 0.636752; stroke-linecap: round"/>
   </g>
   <g id="patch_54">
    <path d="M 61.956383 75.665003 
Q 64.051932 68.63378 66.14748 61.602556 
" clip-path="url(#p2202e210c0)" style="fill: none; opacity: 0.797009; stroke: #7c7c7c; stroke-width: 0.594017; stroke-linecap: round"/>
   </g>
   <g id="patch_55">
    <path d="M 50.904327 79.518563 
Q 49.936394 78.841627 48.96846 78.16469 
" clip-path="url(#p2202e210c0)" style="fill: none; opacity: 0.726496; stroke: #a5a5a5; stroke-width: 0.452991; stroke-linecap: round"/>
   </g>
   <g id="patch_56">
    <path d="M 82.768618 54.732216 
Q 72.764236 63.140605 62.759854 71.548993 
" clip-path="url(#p2202e210c0)" style="fill: none; opacity: 0.92; stroke: #323232; stroke-width: 0.84; stroke-linecap: round"/>
   </g>
   <g id="patch_57">
    <path d="M 64.564567 56.450265 
Q 62.483974 63.217555 60.40338 69.984845 
" clip-path="url(#p2202e210c0)" style="fill: none; opacity: 0.854595; stroke: #5d5d5d; stroke-width: 0.709189; stroke-linecap: round"/>
   </g>
   <g id="patch_58">
    <path d="M 52.841253 70.626474 
Q 53.818506 71.290239 54.795759 71.954004 
" clip-path="url(#p2202e210c0)" style="fill: none; opacity: 0.808649; stroke: #767676; stroke-width: 0.617297; stroke-linecap: round"/>
   </g>
   <g id="patch_59">
    <path d="M 66.589182 68.330556 
Q 76.593564 59.922167 86.597946 51.513779 
" clip-path="url(#p2202e210c0)" style="fill: none; opacity: 0.92; stroke: #323232; stroke-width: 0.84; stroke-linecap: round"/>
   </g>
   <g id="patch_60">
    <path d="M 61.872109 65.207691 
Q 63.952703 58.440401 66.033296 51.673111 
" clip-path="url(#p2202e210c0)" style="fill: none; opacity: 0.854595; stroke: #5d5d5d; stroke-width: 0.709189; stroke-linecap: round"/>
   </g>
   <g id="patch_61">
    <path d="M 50.659568 69.144641 
Q 49.682315 68.480876 48.705062 67.817111 
" clip-path="url(#p2202e210c0)" style="fill: none; opacity: 0.808649; stroke: #767676; stroke-width: 0.617297; stroke-linecap: round"/>
   </g>
   <g id="patch_62">
    <path d="M 82.813551 44.476562 
Q 72.728059 52.690268 63.174899 60.470438 
" clip-path="url(#p2202e210c0)" style="fill: none; opacity: 0.807028; stroke: #777777; stroke-width: 0.614055; stroke-linecap: round"/>
    <path d="M 71.903948 58.520129 
L 63.174899 60.470438 
L 66.852081 52.317013 
z
" clip-path="url(#p2202e210c0)" style="fill: #777777; opacity: 0.807028; stroke: #777777; stroke-width: 0.614055; stroke-linecap: round"/>
   </g>
   <g id="patch_63">
    <path d="M 64.400681 46.319491 
Q 62.340107 52.806259 60.427719 58.826535 
" clip-path="url(#p2202e210c0)" style="fill: none; opacity: 0.718894; stroke: #aaaaaa; stroke-width: 0.437788; stroke-linecap: round"/>
    <path d="M 66.662 52.412977 
L 60.427719 58.826535 
L 59.037441 49.990975 
z
" clip-path="url(#p2202e210c0)" style="fill: #aaaaaa; opacity: 0.718894; stroke: #aaaaaa; stroke-width: 0.437788; stroke-linecap: round"/>
   </g>
   <g id="patch_64">
    <path d="M 52.612739 60.010451 
Q 53.599492 60.660363 54.174252 61.038922 
" clip-path="url(#p2202e210c0)" style="fill: none; opacity: 0.720622; stroke: #a9a9a9; stroke-width: 0.441244; stroke-linecap: round"/>
    <path d="M 49.693392 53.297998 
L 54.174252 61.038922 
L 45.292997 59.979056 
z
" clip-path="url(#p2202e210c0)" style="fill: #a9a9a9; opacity: 0.720622; stroke: #a9a9a9; stroke-width: 0.441244; stroke-linecap: round"/>
   </g>
   <g id="patch_65">
    <path d="M 66.519473 57.74659 
Q 76.604965 49.532884 86.038275 41.850321 
" clip-path="url(#p2202e210c0)" style="fill: none; opacity: 0.876152; stroke: #515151; stroke-width: 0.752304; stroke-linecap: round"/>
    <path d="M 77.309226 43.80063 
L 86.038275 41.850321 
L 82.361093 50.003745 
z
" clip-path="url(#p2202e210c0)" style="fill: #515151; opacity: 0.876152; stroke: #515151; stroke-width: 0.752304; stroke-linecap: round"/>
   </g>
   <g id="patch_66">
    <path d="M 61.792555 54.529976 
Q 63.853128 48.043208 65.714042 42.184976 
" clip-path="url(#p2202e210c0)" style="fill: none; opacity: 0.794931; stroke: #7d7d7d; stroke-width: 0.589862; stroke-linecap: round"/>
    <path d="M 59.479761 48.598534 
L 65.714042 42.184976 
L 67.10432 51.020536 
z
" clip-path="url(#p2202e210c0)" style="fill: #7d7d7d; opacity: 0.794931; stroke: #7d7d7d; stroke-width: 0.589862; stroke-linecap: round"/>
   </g>
   <g id="patch_67">
    <path d="M 50.409846 58.559543 
Q 49.423093 57.909631 48.848333 57.531072 
" clip-path="url(#p2202e210c0)" style="fill: none; opacity: 0.720622; stroke: #a9a9a9; stroke-width: 0.441244; stroke-linecap: round"/>
    <path d="M 53.329193 65.271995 
L 48.848333 57.531072 
L 57.729588 58.590938 
z
" clip-path="url(#p2202e210c0)" style="fill: #a9a9a9; opacity: 0.720622; stroke: #a9a9a9; stroke-width: 0.441244; stroke-linecap: round"/>
   </g>
  </g>
 </g>
 <defs>
  <clipPath id="p2202e210c0">
   <rect x="18.36" y="17.28" width="110.88" height="110.88"/>
  </clipPath>
 </defs>
</svg>
