<?xml version="1.0" encoding="utf-8" standalone="no"?>
<!DOCTYPE svg PUBLIC "-//W3C//DTD SVG 1.1//EN"
  "http://www.w3.org/Graphics/SVG/1.1/DTD/svg11.dtd">
<svg xmlns:xlink="http://www.w3.org/1999/xlink" width="144pt" height="144pt" viewBox="0 0 144 144" xmlns="http://www.w3.org/2000/svg" version="1.1">
 <metadata>
  <rdf:RDF xmlns:dc="http://purl.org/dc/elements/1.1/" xmlns:cc="http://creativecommons.org/ns#" xmlns:rdf="http://www.w3.org/1999/02/22-rdf-syntax-ns#">
   <cc:Work>
    <dc:type rdf:resource="http://purl.org/dc/dcmitype/StillImage"/>
    <dc:date>2025-06-03T17:18:15.290455</dc:date>
    <dc:format>image/svg+xml</dc:format>
    <dc:creator>
     <cc:Agent>
      <dc:title>Matplotlib v3.9.2, https://matplotlib.org/</dc:title>
     </cc:Agent>
    </dc:creator>
   </cc:Work>
  </rdf:RDF>
 </metadata>
 <defs>
  <style type="text/css">*{stroke-linejoin: round; stroke-linecap: butt}</style>
 </defs>
 <g id="figure_1">
  <g id="patch_1">
   <path d="M 0 144 
L 144 144 
L 144 0 
L 0 0 
z
" style="fill: #ffffff"/>
  </g>
  <g id="axes_1">
   <g id="patch_2">
    <path d="M 18 128.16 
L 129.6 128.16 
L 129.6 17.28 
L 18 17.28 
z
" style="fill: #ffffff"/>
   </g>
   <g id="matplotlib.axis_1">
    <g id="xtick_1">
     <g id="line2d_1">
      <defs>
       <path id="ma2d0a18f87" d="M 0 0 
L 0 3.5 
" style="stroke: #000000; stroke-width: 0.8"/>
      </defs>
      <g>
       <use xlink:href="#ma2d0a18f87" x="18" y="128.16" style="stroke: #000000; stroke-width: 0.8"/>
      </g>
     </g>
     <g id="text_1">
      <!-- 0.0 -->
      <g transform="translate(10.048437 142.758438) scale(0.1 -0.1)">
       <defs>
        <path id="DejaVuSerif-30" d="M 2034 219 
Q 2513 219 2750 744 
Q 2988 1269 2988 2328 
Q 2988 3391 2750 3916 
Q 2513 4441 2034 4441 
Q 1556 4441 1318 3916 
Q 1081 3391 1081 2328 
Q 1081 1269 1318 744 
Q 1556 219 2034 219 
z
M 2034 -91 
Q 1275 -91 848 546 
Q 422 1184 422 2328 
Q 422 3475 848 4112 
Q 1275 4750 2034 4750 
Q 2797 4750 3222 4112 
Q 3647 3475 3647 2328 
Q 3647 1184 3222 546 
Q 2797 -91 2034 -91 
z
" transform="scale(0.015625)"/>
        <path id="DejaVuSerif-2e" d="M 603 325 
Q 603 500 722 622 
Q 841 744 1019 744 
Q 1191 744 1312 622 
Q 1434 500 1434 325 
Q 1434 153 1312 31 
Q 1191 -91 1019 -91 
Q 841 -91 722 29 
Q 603 150 603 325 
z
" transform="scale(0.015625)"/>
       </defs>
       <use xlink:href="#DejaVuSerif-30"/>
       <use xlink:href="#DejaVuSerif-2e" x="63.623047"/>
       <use xlink:href="#DejaVuSerif-30" x="95.410156"/>
      </g>
     </g>
    </g>
    <g id="xtick_2">
     <g id="line2d_2">
      <g>
       <use xlink:href="#ma2d0a18f87" x="73.8" y="128.16" style="stroke: #000000; stroke-width: 0.8"/>
      </g>
     </g>
     <g id="text_2">
      <!-- 0.5 -->
      <g transform="translate(65.848438 142.758438) scale(0.1 -0.1)">
       <defs>
        <path id="DejaVuSerif-35" d="M 3219 4666 
L 3219 4153 
L 1081 4153 
L 1081 2816 
Q 1244 2928 1461 2984 
Q 1678 3041 1947 3041 
Q 2703 3041 3140 2622 
Q 3578 2203 3578 1478 
Q 3578 738 3136 323 
Q 2694 -91 1894 -91 
Q 1572 -91 1234 -12 
Q 897 66 544 225 
L 544 1131 
L 897 1131 
Q 925 688 1179 453 
Q 1434 219 1894 219 
Q 2388 219 2653 544 
Q 2919 869 2919 1478 
Q 2919 2084 2655 2407 
Q 2391 2731 1894 2731 
Q 1613 2731 1398 2631 
Q 1184 2531 1019 2322 
L 750 2322 
L 750 4666 
L 3219 4666 
z
" transform="scale(0.015625)"/>
       </defs>
       <use xlink:href="#DejaVuSerif-30"/>
       <use xlink:href="#DejaVuSerif-2e" x="63.623047"/>
       <use xlink:href="#DejaVuSerif-35" x="95.410156"/>
      </g>
     </g>
    </g>
    <g id="xtick_3">
     <g id="line2d_3">
      <g>
       <use xlink:href="#ma2d0a18f87" x="129.6" y="128.16" style="stroke: #000000; stroke-width: 0.8"/>
      </g>
     </g>
     <g id="text_3">
      <!-- 1.0 -->
      <g transform="translate(121.648438 142.758438) scale(0.1 -0.1)">
       <defs>
        <path id="DejaVuSerif-31" d="M 909 0 
L 909 331 
L 1722 331 
L 1722 4213 
L 781 3603 
L 781 4013 
L 1919 4750 
L 2350 4750 
L 2350 331 
L 3163 331 
L 3163 0 
L 909 0 
z
" transform="scale(0.015625)"/>
       </defs>
       <use xlink:href="#DejaVuSerif-31"/>
       <use xlink:href="#DejaVuSerif-2e" x="63.623047"/>
       <use xlink:href="#DejaVuSerif-30" x="95.410156"/>
      </g>
     </g>
    </g>
   </g>
   <g id="matplotlib.axis_2">
    <g id="ytick_1">
     <g id="line2d_4">
      <defs>
       <path id="m6ad3a4ea7a" d="M 0 0 
L -3.5 0 
" style="stroke: #000000; stroke-width: 0.8"/>
      </defs>
      <g>
       <use xlink:href="#m6ad3a4ea7a" x="18" y="128.16" style="stroke: #000000; stroke-width: 0.8"/>
      </g>
     </g>
     <g id="text_4">
      <!-- 0.0 -->
      <g transform="translate(-4.903125 131.959219) scale(0.1 -0.1)">
       <use xlink:href="#DejaVuSerif-30"/>
       <use xlink:href="#DejaVuSerif-2e" x="63.623047"/>
       <use xlink:href="#DejaVuSerif-30" x="95.410156"/>
      </g>
     </g>
    </g>
    <g id="ytick_2">
     <g id="line2d_5">
      <g>
       <use xlink:href="#m6ad3a4ea7a" x="18" y="105.984" style="stroke: #000000; stroke-width: 0.8"/>
      </g>
     </g>
     <g id="text_5">
      <!-- 0.2 -->
      <g transform="translate(-4.903125 109.783219) scale(0.1 -0.1)">
       <defs>
        <path id="DejaVuSerif-32" d="M 819 3553 
L 469 3553 
L 469 4384 
Q 803 4563 1142 4656 
Q 1481 4750 1806 4750 
Q 2534 4750 2956 4397 
Q 3378 4044 3378 3438 
Q 3378 2753 2422 1800 
Q 2347 1728 2309 1691 
L 1131 513 
L 3078 513 
L 3078 1088 
L 3444 1088 
L 3444 0 
L 434 0 
L 434 341 
L 1850 1753 
Q 2319 2222 2519 2614 
Q 2719 3006 2719 3438 
Q 2719 3909 2473 4175 
Q 2228 4441 1797 4441 
Q 1350 4441 1106 4219 
Q 863 3997 819 3553 
z
" transform="scale(0.015625)"/>
       </defs>
       <use xlink:href="#DejaVuSerif-30"/>
       <use xlink:href="#DejaVuSerif-2e" x="63.623047"/>
       <use xlink:href="#DejaVuSerif-32" x="95.410156"/>
      </g>
     </g>
    </g>
    <g id="ytick_3">
     <g id="line2d_6">
      <g>
       <use xlink:href="#m6ad3a4ea7a" x="18" y="83.808" style="stroke: #000000; stroke-width: 0.8"/>
      </g>
     </g>
     <g id="text_6">
      <!-- 0.4 -->
      <g transform="translate(-4.903125 87.607219) scale(0.1 -0.1)">
       <defs>
        <path id="DejaVuSerif-34" d="M 2234 1581 
L 2234 4063 
L 641 1581 
L 2234 1581 
z
M 3609 0 
L 1484 0 
L 1484 331 
L 2234 331 
L 2234 1247 
L 197 1247 
L 197 1588 
L 2241 4750 
L 2859 4750 
L 2859 1581 
L 3750 1581 
L 3750 1247 
L 2859 1247 
L 2859 331 
L 3609 331 
L 3609 0 
z
" transform="scale(0.015625)"/>
       </defs>
       <use xlink:href="#DejaVuSerif-30"/>
       <use xlink:href="#DejaVuSerif-2e" x="63.623047"/>
       <use xlink:href="#DejaVuSerif-34" x="95.410156"/>
      </g>
     </g>
    </g>
    <g id="ytick_4">
     <g id="line2d_7">
      <g>
       <use xlink:href="#m6ad3a4ea7a" x="18" y="61.632" style="stroke: #000000; stroke-width: 0.8"/>
      </g>
     </g>
     <g id="text_7">
      <!-- 0.6 -->
      <g transform="translate(-4.903125 65.431219) scale(0.1 -0.1)">
       <defs>
        <path id="DejaVuSerif-36" d="M 2094 219 
Q 2534 219 2771 542 
Q 3009 866 3009 1472 
Q 3009 2078 2771 2401 
Q 2534 2725 2094 2725 
Q 1647 2725 1412 2412 
Q 1178 2100 1178 1509 
Q 1178 888 1415 553 
Q 1653 219 2094 219 
z
M 1075 2569 
Q 1288 2803 1556 2918 
Q 1825 3034 2163 3034 
Q 2859 3034 3264 2615 
Q 3669 2197 3669 1472 
Q 3669 763 3233 336 
Q 2797 -91 2069 -91 
Q 1278 -91 853 498 
Q 428 1088 428 2181 
Q 428 3406 931 4078 
Q 1434 4750 2350 4750 
Q 2597 4750 2869 4703 
Q 3141 4656 3425 4563 
L 3425 3794 
L 3072 3794 
Q 3034 4109 2831 4275 
Q 2628 4441 2284 4441 
Q 1678 4441 1381 3981 
Q 1084 3522 1075 2569 
z
" transform="scale(0.015625)"/>
       </defs>
       <use xlink:href="#DejaVuSerif-30"/>
       <use xlink:href="#DejaVuSerif-2e" x="63.623047"/>
       <use xlink:href="#DejaVuSerif-36" x="95.410156"/>
      </g>
     </g>
    </g>
    <g id="ytick_5">
     <g id="line2d_8">
      <g>
       <use xlink:href="#m6ad3a4ea7a" x="18" y="39.456" style="stroke: #000000; stroke-width: 0.8"/>
      </g>
     </g>
     <g id="text_8">
      <!-- 0.8 -->
      <g transform="translate(-4.903125 43.255219) scale(0.1 -0.1)">
       <defs>
        <path id="DejaVuSerif-38" d="M 2981 1275 
Q 2981 1775 2732 2051 
Q 2484 2328 2034 2328 
Q 1584 2328 1336 2051 
Q 1088 1775 1088 1275 
Q 1088 772 1336 495 
Q 1584 219 2034 219 
Q 2484 219 2732 495 
Q 2981 772 2981 1275 
z
M 2853 3541 
Q 2853 3966 2637 4203 
Q 2422 4441 2034 4441 
Q 1650 4441 1433 4203 
Q 1216 3966 1216 3541 
Q 1216 3113 1433 2875 
Q 1650 2638 2034 2638 
Q 2422 2638 2637 2875 
Q 2853 3113 2853 3541 
z
M 2516 2484 
Q 3047 2413 3344 2092 
Q 3641 1772 3641 1275 
Q 3641 619 3225 264 
Q 2809 -91 2034 -91 
Q 1263 -91 845 264 
Q 428 619 428 1275 
Q 428 1772 725 2092 
Q 1022 2413 1556 2484 
Q 1084 2569 832 2842 
Q 581 3116 581 3541 
Q 581 4103 968 4426 
Q 1356 4750 2034 4750 
Q 2713 4750 3100 4426 
Q 3488 4103 3488 3541 
Q 3488 3116 3236 2842 
Q 2984 2569 2516 2484 
z
" transform="scale(0.015625)"/>
       </defs>
       <use xlink:href="#DejaVuSerif-30"/>
       <use xlink:href="#DejaVuSerif-2e" x="63.623047"/>
       <use xlink:href="#DejaVuSerif-38" x="95.410156"/>
      </g>
     </g>
    </g>
    <g id="ytick_6">
     <g id="line2d_9">
      <g>
       <use xlink:href="#m6ad3a4ea7a" x="18" y="17.28" style="stroke: #000000; stroke-width: 0.8"/>
      </g>
     </g>
     <g id="text_9">
      <!-- 1.0 -->
      <g transform="translate(-4.903125 21.079219) scale(0.1 -0.1)">
       <use xlink:href="#DejaVuSerif-31"/>
       <use xlink:href="#DejaVuSerif-2e" x="63.623047"/>
       <use xlink:href="#DejaVuSerif-30" x="95.410156"/>
      </g>
     </g>
    </g>
   </g>
   <g id="patch_3">
    <path d="M 18 128.16 
L 18 17.28 
" style="fill: none; stroke: #000000; stroke-width: 0.8; stroke-linejoin: miter; stroke-linecap: square"/>
   </g>
   <g id="patch_4">
    <path d="M 129.6 128.16 
L 129.6 17.28 
" style="fill: none; stroke: #000000; stroke-width: 0.8; stroke-linejoin: miter; stroke-linecap: square"/>
   </g>
   <g id="patch_5">
    <path d="M 18 128.16 
L 129.6 128.16 
" style="fill: none; stroke: #000000; stroke-width: 0.8; stroke-linejoin: miter; stroke-linecap: square"/>
   </g>
   <g id="patch_6">
    <path d="M 18 17.28 
L 129.6 17.28 
" style="fill: none; stroke: #000000; stroke-width: 0.8; stroke-linejoin: miter; stroke-linecap: square"/>
   </g>
  </g>
  <g id="patch_7">
   <path d="M 18.36 128.16 
L 129.24 128.16 
L 129.24 17.28 
L 18.36 17.28 
z
" style="fill: #ffffff"/>
  </g>
  <g id="axes_2">
   <g id="patch_8">
    <path d="M 72.060598 75.987837 
Q 70.410979 76.095285 68.76136 76.202732 
" clip-path="url(#p60f50237f0)" style="fill: none; opacity: 0.686024; stroke: #bebebe; stroke-width: 0.372047; stroke-linecap: round"/>
   </g>
   <g id="Path3DCollection_1">
    <path d="M 82.036969 78.873561 
C 82.974603 78.873561 83.873961 78.501035 84.536969 77.838027 
C 85.199977 77.175019 85.572503 76.275662 85.572503 75.338027 
C 85.572503 74.400393 85.199977 73.501035 84.536969 72.838027 
C 83.873961 72.175019 82.974603 71.802493 82.036969 71.802493 
C 81.099334 71.802493 80.199977 72.175019 79.536969 72.838027 
C 78.873961 73.501035 78.501435 74.400393 78.501435 75.338027 
C 78.501435 76.275662 78.873961 77.175019 79.536969 77.838027 
C 80.199977 78.501035 81.099334 78.873561 82.036969 78.873561 
z
" clip-path="url(#p60f50237f0)" style="fill: #67000d; stroke: #00ff00; stroke-width: 2"/>
    <path d="M 63.769997 80.063378 
C 64.707632 80.063378 65.60699 79.690852 66.269997 79.027844 
C 66.933005 78.364836 67.305531 77.465479 67.305531 76.527844 
C 67.305531 75.59021 66.933005 74.690852 66.269997 74.027844 
C 65.60699 73.364836 64.707632 72.99231 63.769997 72.99231 
C 62.832363 72.99231 61.933005 73.364836 61.269997 74.027844 
C 60.60699 74.690852 60.234463 75.59021 60.234463 76.527844 
C 60.234463 77.465479 60.60699 78.364836 61.269997 79.027844 
C 61.933005 79.690852 62.832363 80.063378 63.769997 80.063378 
z
" clip-path="url(#p60f50237f0)" style="fill: #67000d; stroke: #00ff00; stroke-width: 2"/>
    <path d="M 97.976735 83.503683 
C 98.91437 83.503683 99.813727 83.131157 100.476735 82.46815 
C 101.139743 81.805142 101.512269 80.905784 101.512269 79.96815 
C 101.512269 79.030515 101.139743 78.131157 100.476735 77.46815 
C 99.813727 76.805142 98.91437 76.432616 97.976735 76.432616 
C 97.0391 76.432616 96.139743 76.805142 95.476735 77.46815 
C 94.813727 78.131157 94.441201 79.030515 94.441201 79.96815 
C 94.441201 80.905784 94.813727 81.805142 95.476735 82.46815 
C 96.139743 83.131157 97.0391 83.503683 97.976735 83.503683 
z
" clip-path="url(#p60f50237f0)" style="fill: #67000d; stroke: #00ff00; stroke-width: 2"/>
    <path d="M 49.391636 83.537671 
C 49.485399 83.537671 49.575335 83.500419 49.641636 83.434118 
C 49.707936 83.367817 49.745189 83.277881 49.745189 83.184118 
C 49.745189 83.090354 49.707936 83.000419 49.641636 82.934118 
C 49.575335 82.867817 49.485399 82.830565 49.391636 82.830565 
C 49.297872 82.830565 49.207936 82.867817 49.141636 82.934118 
C 49.075335 83.000419 49.038082 83.090354 49.038082 83.184118 
C 49.038082 83.277881 49.075335 83.367817 49.141636 83.434118 
C 49.207936 83.500419 49.297872 83.537671 49.391636 83.537671 
z
" clip-path="url(#p60f50237f0)" style="fill: #fff5f0; stroke: #00ff00; stroke-width: 2"/>
    <path d="M 105.914786 89.354064 
C 106.00855 89.354064 106.098485 89.316812 106.164786 89.250511 
C 106.231087 89.18421 106.268339 89.094274 106.268339 89.000511 
C 106.268339 88.906747 106.231087 88.816812 106.164786 88.750511 
C 106.098485 88.68421 106.00855 88.646957 105.914786 88.646957 
C 105.821023 88.646957 105.731087 88.68421 105.664786 88.750511 
C 105.598485 88.816812 105.561233 88.906747 105.561233 89.000511 
C 105.561233 89.094274 105.598485 89.18421 105.664786 89.250511 
C 105.731087 89.316812 105.821023 89.354064 105.914786 89.354064 
z
" clip-path="url(#p60f50237f0)" style="fill: #fff5f0; stroke: #ff0000; stroke-width: 2"/>
    <path d="M 44.273099 93.544363 
C 44.366863 93.544363 44.456799 93.507111 44.523099 93.44081 
C 44.5894 93.374509 44.626653 93.284573 44.626653 93.19081 
C 44.626653 93.097046 44.5894 93.007111 44.523099 92.94081 
C 44.456799 92.874509 44.366863 92.837256 44.273099 92.837256 
C 44.179336 92.837256 44.0894 92.874509 44.023099 92.94081 
C 43.956799 93.007111 43.919546 93.097046 43.919546 93.19081 
C 43.919546 93.284573 43.956799 93.374509 44.023099 93.44081 
C 44.0894 93.507111 44.179336 93.544363 44.273099 93.544363 
z
" clip-path="url(#p60f50237f0)" style="fill: #fff5f0; stroke: #00ff00; stroke-width: 2"/>
    <path d="M 102.317046 99.69325 
C 102.410809 99.69325 102.500745 99.655997 102.567046 99.589697 
C 102.633347 99.523396 102.670599 99.43346 102.670599 99.339697 
C 102.670599 99.245933 102.633347 99.155997 102.567046 99.089697 
C 102.500745 99.023396 102.410809 98.986143 102.317046 98.986143 
C 102.223282 98.986143 102.133347 99.023396 102.067046 99.089697 
C 102.000745 99.155997 101.963492 99.245933 101.963492 99.339697 
C 101.963492 99.43346 102.000745 99.523396 102.067046 99.589697 
C 102.133347 99.655997 102.223282 99.69325 102.317046 99.69325 
z
" clip-path="url(#p60f50237f0)" style="fill: #fff5f0; stroke: #00ff00; stroke-width: 2"/>
    <path d="M 51.095278 103.271766 
C 51.189042 103.271766 51.278977 103.234513 51.345278 103.168212 
C 51.411579 103.101911 51.448832 103.011976 51.448832 102.918212 
C 51.448832 102.824449 51.411579 102.734513 51.345278 102.668212 
C 51.278977 102.601911 51.189042 102.564659 51.095278 102.564659 
C 51.001515 102.564659 50.911579 102.601911 50.845278 102.668212 
C 50.778977 102.734513 50.741725 102.824449 50.741725 102.918212 
C 50.741725 103.011976 50.778977 103.101911 50.845278 103.168212 
C 50.911579 103.234513 51.001515 103.271766 51.095278 103.271766 
z
" clip-path="url(#p60f50237f0)" style="fill: #fff5f0; stroke: #00ff00; stroke-width: 2"/>
    <path d="M 87.764928 107.251234 
C 87.858692 107.251234 87.948627 107.213982 88.014928 107.147681 
C 88.081229 107.08138 88.118482 106.991444 88.118482 106.897681 
C 88.118482 106.803918 88.081229 106.713982 88.014928 106.647681 
C 87.948627 106.58138 87.858692 106.544128 87.764928 106.544128 
C 87.671165 106.544128 87.581229 106.58138 87.514928 106.647681 
C 87.448627 106.713982 87.411375 106.803918 87.411375 106.897681 
C 87.411375 106.991444 87.448627 107.08138 87.514928 107.147681 
C 87.581229 107.213982 87.671165 107.251234 87.764928 107.251234 
z
" clip-path="url(#p60f50237f0)" style="fill: #fff5f0; stroke: #00ff00; stroke-width: 2"/>
    <path d="M 67.86666 108.66563 
C 67.960423 108.66563 68.050359 108.628378 68.11666 108.562077 
C 68.182961 108.495776 68.220213 108.40584 68.220213 108.312077 
C 68.220213 108.218313 68.182961 108.128378 68.11666 108.062077 
C 68.050359 107.995776 67.960423 107.958523 67.86666 107.958523 
C 67.772897 107.958523 67.682961 107.995776 67.61666 108.062077 
C 67.550359 108.128378 67.513107 108.218313 67.513107 108.312077 
C 67.513107 108.40584 67.550359 108.495776 67.61666 108.562077 
C 67.682961 108.628378 67.772897 108.66563 67.86666 108.66563 
z
" clip-path="url(#p60f50237f0)" style="fill: #fff5f0; stroke: #00ff00; stroke-width: 2"/>
   </g>
   <g id="patch_9">
    <path d="M 73.746368 75.878034 
Q 75.395987 75.770587 77.045606 75.663139 
" clip-path="url(#p60f50237f0)" style="fill: none; opacity: 0.686024; stroke: #bebebe; stroke-width: 0.372047; stroke-linecap: round"/>
   </g>
   <g id="Path3DCollection_2">
    <path d="M 82.099153 69.33188 
C 83.036787 69.33188 83.936145 68.959354 84.599153 68.296346 
C 85.26216 67.633338 85.634687 66.733981 85.634687 65.796346 
C 85.634687 64.858712 85.26216 63.959354 84.599153 63.296346 
C 83.936145 62.633338 83.036787 62.260812 82.099153 62.260812 
C 81.161518 62.260812 80.26216 62.633338 79.599153 63.296346 
C 78.936145 63.959354 78.563619 64.858712 78.563619 65.796346 
C 78.563619 66.733981 78.936145 67.633338 79.599153 68.296346 
C 80.26216 68.959354 81.161518 69.33188 82.099153 69.33188 
z
" clip-path="url(#p60f50237f0)" style="fill: #08306b; stroke: #00ff00; stroke-width: 2"/>
    <path d="M 63.663248 70.499992 
C 64.600883 70.499992 65.500241 70.127465 66.163248 69.464458 
C 66.826256 68.80145 67.198782 67.902092 67.198782 66.964458 
C 67.198782 66.026823 66.826256 65.127465 66.163248 64.464458 
C 65.500241 63.80145 64.600883 63.428924 63.663248 63.428924 
C 62.725614 63.428924 61.826256 63.80145 61.163248 64.464458 
C 60.500241 65.127465 60.127715 66.026823 60.127715 66.964458 
C 60.127715 67.902092 60.500241 68.80145 61.163248 69.464458 
C 61.826256 70.127465 62.725614 70.499992 63.663248 70.499992 
z
" clip-path="url(#p60f50237f0)" style="fill: #08306b; stroke: #00ff00; stroke-width: 2"/>
    <path d="M 98.188804 70.695968 
C 98.282568 70.695968 98.372504 70.658715 98.438804 70.592415 
C 98.505105 70.526114 98.542358 70.436178 98.542358 70.342415 
C 98.542358 70.248651 98.505105 70.158715 98.438804 70.092415 
C 98.372504 70.026114 98.282568 69.988861 98.188804 69.988861 
C 98.095041 69.988861 98.005105 70.026114 97.938804 70.092415 
C 97.872504 70.158715 97.835251 70.248651 97.835251 70.342415 
C 97.835251 70.436178 97.872504 70.526114 97.938804 70.592415 
C 98.005105 70.658715 98.095041 70.695968 98.188804 70.695968 
z
" clip-path="url(#p60f50237f0)" style="fill: #f7fbff; stroke: #00ff00; stroke-width: 2"/>
    <path d="M 49.14716 73.854208 
C 49.240924 73.854208 49.330859 73.816955 49.39716 73.750654 
C 49.463461 73.684353 49.500714 73.594418 49.500714 73.500654 
C 49.500714 73.406891 49.463461 73.316955 49.39716 73.250654 
C 49.330859 73.184353 49.240924 73.147101 49.14716 73.147101 
C 49.053397 73.147101 48.963461 73.184353 48.89716 73.250654 
C 48.830859 73.316955 48.793607 73.406891 48.793607 73.500654 
C 48.793607 73.594418 48.830859 73.684353 48.89716 73.750654 
C 48.963461 73.816955 49.053397 73.854208 49.14716 73.854208 
z
" clip-path="url(#p60f50237f0)" style="fill: #f7fbff; stroke: #00ff00; stroke-width: 2"/>
    <path d="M 106.208444 79.567552 
C 106.302208 79.567552 106.392144 79.5303 106.458444 79.463999 
C 106.524745 79.397698 106.561998 79.307762 106.561998 79.213999 
C 106.561998 79.120236 106.524745 79.0303 106.458444 78.963999 
C 106.392144 78.897698 106.302208 78.860446 106.208444 78.860446 
C 106.114681 78.860446 106.024745 78.897698 105.958444 78.963999 
C 105.892144 79.0303 105.854891 79.120236 105.854891 79.213999 
C 105.854891 79.307762 105.892144 79.397698 105.958444 79.463999 
C 106.024745 79.5303 106.114681 79.567552 106.208444 79.567552 
z
" clip-path="url(#p60f50237f0)" style="fill: #f7fbff; stroke: #ff0000; stroke-width: 2"/>
    <path d="M 43.972059 83.684699 
C 44.065822 83.684699 44.155758 83.647446 44.222059 83.581145 
C 44.288359 83.514844 44.325612 83.424909 44.325612 83.331145 
C 44.325612 83.237382 44.288359 83.147446 44.222059 83.081145 
C 44.155758 83.014844 44.065822 82.977592 43.972059 82.977592 
C 43.878295 82.977592 43.788359 83.014844 43.722059 83.081145 
C 43.655758 83.147446 43.618505 83.237382 43.618505 83.331145 
C 43.618505 83.424909 43.655758 83.514844 43.722059 83.581145 
C 43.788359 83.647446 43.878295 83.684699 43.972059 83.684699 
z
" clip-path="url(#p60f50237f0)" style="fill: #f7fbff; stroke: #00ff00; stroke-width: 2"/>
    <path d="M 102.583634 89.727887 
C 102.677397 89.727887 102.767333 89.690635 102.833634 89.624334 
C 102.899935 89.558033 102.937187 89.468098 102.937187 89.374334 
C 102.937187 89.280571 102.899935 89.190635 102.833634 89.124334 
C 102.767333 89.058033 102.677397 89.020781 102.583634 89.020781 
C 102.48987 89.020781 102.399935 89.058033 102.333634 89.124334 
C 102.267333 89.190635 102.23008 89.280571 102.23008 89.374334 
C 102.23008 89.468098 102.267333 89.558033 102.333634 89.624334 
C 102.399935 89.690635 102.48987 89.727887 102.583634 89.727887 
z
" clip-path="url(#p60f50237f0)" style="fill: #f7fbff; stroke: #00ff00; stroke-width: 2"/>
    <path d="M 50.854164 93.245791 
C 50.947928 93.245791 51.037863 93.208539 51.104164 93.142238 
C 51.170465 93.075937 51.207717 92.986001 51.207717 92.892238 
C 51.207717 92.798475 51.170465 92.708539 51.104164 92.642238 
C 51.037863 92.575937 50.947928 92.538685 50.854164 92.538685 
C 50.760401 92.538685 50.670465 92.575937 50.604164 92.642238 
C 50.537863 92.708539 50.500611 92.798475 50.500611 92.892238 
C 50.500611 92.986001 50.537863 93.075937 50.604164 93.142238 
C 50.670465 93.208539 50.760401 93.245791 50.854164 93.245791 
z
" clip-path="url(#p60f50237f0)" style="fill: #f7fbff; stroke: #00ff00; stroke-width: 2"/>
    <path d="M 87.890443 97.158637 
C 87.984206 97.158637 88.074142 97.121385 88.140443 97.055084 
C 88.206744 96.988783 88.243996 96.898847 88.243996 96.805084 
C 88.243996 96.71132 88.206744 96.621385 88.140443 96.555084 
C 88.074142 96.488783 87.984206 96.451531 87.890443 96.451531 
C 87.796679 96.451531 87.706744 96.488783 87.640443 96.555084 
C 87.574142 96.621385 87.536889 96.71132 87.536889 96.805084 
C 87.536889 96.898847 87.574142 96.988783 87.640443 97.055084 
C 87.706744 97.121385 87.796679 97.158637 87.890443 97.158637 
z
" clip-path="url(#p60f50237f0)" style="fill: #f7fbff; stroke: #00ff00; stroke-width: 2"/>
    <path d="M 67.791556 101.731532 
C 68.729191 101.731532 69.628549 101.359006 70.291556 100.695998 
C 70.954564 100.032991 71.32709 99.133633 71.32709 98.195998 
C 71.32709 97.258364 70.954564 96.359006 70.291556 95.695998 
C 69.628549 95.032991 68.729191 94.660464 67.791556 94.660464 
C 66.853922 94.660464 65.954564 95.032991 65.291556 95.695998 
C 64.628549 96.359006 64.256023 97.258364 64.256023 98.195998 
C 64.256023 99.133633 64.628549 100.032991 65.291556 100.695998 
C 65.954564 101.359006 66.853922 101.731532 67.791556 101.731532 
z
" clip-path="url(#p60f50237f0)" style="fill: #08306b; stroke: #00ff00; stroke-width: 2"/>
   </g>
   <g id="patch_10">
    <path d="M 72.120539 66.428598 
Q 70.388199 66.53836 68.655858 66.648123 
" clip-path="url(#p60f50237f0)" style="fill: none; opacity: 0.71358; stroke: #adadad; stroke-width: 0.42716; stroke-linecap: round"/>
   </g>
   <g id="Path3DCollection_3">
    <path d="M 82.162495 59.612457 
C 83.100129 59.612457 83.999487 59.239931 84.662495 58.576923 
C 85.325503 57.913916 85.698029 57.014558 85.698029 56.076923 
C 85.698029 55.139289 85.325503 54.239931 84.662495 53.576923 
C 83.999487 52.913916 83.100129 52.541389 82.162495 52.541389 
C 81.22486 52.541389 80.325503 52.913916 79.662495 53.576923 
C 78.999487 54.239931 78.626961 55.139289 78.626961 56.076923 
C 78.626961 57.014558 78.999487 57.913916 79.662495 58.576923 
C 80.325503 59.239931 81.22486 59.612457 82.162495 59.612457 
z
" clip-path="url(#p60f50237f0)" style="fill: #00441b; stroke: #00ff00; stroke-width: 2"/>
    <path d="M 63.554504 60.757842 
C 64.492139 60.757842 65.391496 60.385316 66.054504 59.722308 
C 66.717512 59.059301 67.090038 58.159943 67.090038 57.222308 
C 67.090038 56.284674 66.717512 55.385316 66.054504 54.722308 
C 65.391496 54.059301 64.492139 53.686775 63.554504 53.686775 
C 62.61687 53.686775 61.717512 54.059301 61.054504 54.722308 
C 60.391496 55.385316 60.01897 56.284674 60.01897 57.222308 
C 60.01897 58.159943 60.391496 59.059301 61.054504 59.722308 
C 61.717512 60.385316 62.61687 60.757842 63.554504 60.757842 
z
" clip-path="url(#p60f50237f0)" style="fill: #00441b; stroke: #00ff00; stroke-width: 2"/>
    <path d="M 98.404877 64.07049 
C 99.342512 64.07049 100.24187 63.697964 100.904877 63.034956 
C 101.567885 62.371948 101.940411 61.472591 101.940411 60.534956 
C 101.940411 59.597322 101.567885 58.697964 100.904877 58.034956 
C 100.24187 57.371948 99.342512 56.999422 98.404877 56.999422 
C 97.467243 56.999422 96.567885 57.371948 95.904877 58.034956 
C 95.24187 58.697964 94.869344 59.597322 94.869344 60.534956 
C 94.869344 61.472591 95.24187 62.371948 95.904877 63.034956 
C 96.567885 63.697964 97.467243 64.07049 98.404877 64.07049 
z
" clip-path="url(#p60f50237f0)" style="fill: #00441b; stroke: #00ff00; stroke-width: 2"/>
    <path d="M 48.898027 63.986242 
C 48.99179 63.986242 49.081726 63.948989 49.148027 63.882688 
C 49.214328 63.816388 49.25158 63.726452 49.25158 63.632688 
C 49.25158 63.538925 49.214328 63.448989 49.148027 63.382688 
C 49.081726 63.316388 48.99179 63.279135 48.898027 63.279135 
C 48.804263 63.279135 48.714328 63.316388 48.648027 63.382688 
C 48.581726 63.448989 48.544473 63.538925 48.544473 63.632688 
C 48.544473 63.726452 48.581726 63.816388 48.648027 63.882688 
C 48.714328 63.948989 48.804263 63.986242 48.898027 63.986242 
z
" clip-path="url(#p60f50237f0)" style="fill: #f7fcf5; stroke: #00ff00; stroke-width: 2"/>
    <path d="M 106.507791 69.591487 
C 106.601554 69.591487 106.69149 69.554234 106.757791 69.487934 
C 106.824091 69.421633 106.861344 69.331697 106.861344 69.237934 
C 106.861344 69.14417 106.824091 69.054234 106.757791 68.987934 
C 106.69149 68.921633 106.601554 68.88438 106.507791 68.88438 
C 106.414027 68.88438 106.324091 68.921633 106.257791 68.987934 
C 106.19149 69.054234 106.154237 69.14417 106.154237 69.237934 
C 106.154237 69.331697 106.19149 69.421633 106.257791 69.487934 
C 106.324091 69.554234 106.414027 69.591487 106.507791 69.591487 
z
" clip-path="url(#p60f50237f0)" style="fill: #f7fcf5; stroke: #ff0000; stroke-width: 2"/>
    <path d="M 43.665119 73.631821 
C 43.758882 73.631821 43.848818 73.594568 43.915119 73.528268 
C 43.981419 73.461967 44.018672 73.372031 44.018672 73.278268 
C 44.018672 73.184504 43.981419 73.094568 43.915119 73.028268 
C 43.848818 72.961967 43.758882 72.924714 43.665119 72.924714 
C 43.571355 72.924714 43.481419 72.961967 43.415119 73.028268 
C 43.348818 73.094568 43.311565 73.184504 43.311565 73.278268 
C 43.311565 73.372031 43.348818 73.461967 43.415119 73.528268 
C 43.481419 73.594568 43.571355 73.631821 43.665119 73.631821 
z
" clip-path="url(#p60f50237f0)" style="fill: #f7fcf5; stroke: #00ff00; stroke-width: 2"/>
    <path d="M 102.855535 79.563913 
C 102.949298 79.563913 103.039234 79.52666 103.105535 79.460359 
C 103.171836 79.394059 103.209088 79.304123 103.209088 79.210359 
C 103.209088 79.116596 103.171836 79.02666 103.105535 78.960359 
C 103.039234 78.894059 102.949298 78.856806 102.855535 78.856806 
C 102.761771 78.856806 102.671836 78.894059 102.605535 78.960359 
C 102.539234 79.02666 102.501981 79.116596 102.501981 79.210359 
C 102.501981 79.304123 102.539234 79.394059 102.605535 79.460359 
C 102.671836 79.52666 102.761771 79.563913 102.855535 79.563913 
z
" clip-path="url(#p60f50237f0)" style="fill: #f7fcf5; stroke: #00ff00; stroke-width: 2"/>
    <path d="M 50.608198 83.018047 
C 50.701961 83.018047 50.791897 82.980795 50.858198 82.914494 
C 50.924498 82.848193 50.961751 82.758257 50.961751 82.664494 
C 50.961751 82.570731 50.924498 82.480795 50.858198 82.414494 
C 50.791897 82.348193 50.701961 82.310941 50.608198 82.310941 
C 50.514434 82.310941 50.424498 82.348193 50.358198 82.414494 
C 50.291897 82.480795 50.254644 82.570731 50.254644 82.664494 
C 50.254644 82.758257 50.291897 82.848193 50.358198 82.914494 
C 50.424498 82.980795 50.514434 83.018047 50.608198 83.018047 
z
" clip-path="url(#p60f50237f0)" style="fill: #f7fcf5; stroke: #00ff00; stroke-width: 2"/>
    <path d="M 88.018511 86.860746 
C 88.112274 86.860746 88.20221 86.823494 88.268511 86.757193 
C 88.334812 86.690892 88.372064 86.600956 88.372064 86.507193 
C 88.372064 86.41343 88.334812 86.323494 88.268511 86.257193 
C 88.20221 86.190892 88.112274 86.15364 88.018511 86.15364 
C 87.924747 86.15364 87.834812 86.190892 87.768511 86.257193 
C 87.70221 86.323494 87.664957 86.41343 87.664957 86.507193 
C 87.664957 86.600956 87.70221 86.690892 87.768511 86.757193 
C 87.834812 86.823494 87.924747 86.860746 88.018511 86.860746 
z
" clip-path="url(#p60f50237f0)" style="fill: #f7fcf5; stroke: #00ff00; stroke-width: 2"/>
    <path d="M 67.71492 88.226924 
C 67.808683 88.226924 67.898619 88.189671 67.96492 88.12337 
C 68.03122 88.057069 68.068473 87.967134 68.068473 87.87337 
C 68.068473 87.779607 68.03122 87.689671 67.96492 87.62337 
C 67.898619 87.557069 67.808683 87.519817 67.71492 87.519817 
C 67.621156 87.519817 67.53122 87.557069 67.46492 87.62337 
C 67.398619 87.689671 67.361366 87.779607 67.361366 87.87337 
C 67.361366 87.967134 67.398619 88.057069 67.46492 88.12337 
C 67.53122 88.189671 67.621156 88.226924 67.71492 88.226924 
z
" clip-path="url(#p60f50237f0)" style="fill: #f7fcf5; stroke: #00ff00; stroke-width: 2"/>
   </g>
   <g id="patch_11">
    <path d="M 73.641862 66.332206 
Q 75.374202 66.222444 77.106543 66.112681 
" clip-path="url(#p60f50237f0)" style="fill: none; opacity: 0.71358; stroke: #adadad; stroke-width: 0.42716; stroke-linecap: round"/>
   </g>
   <g id="Path3DCollection_4">
    <path d="M 82.227028 49.71028 
C 83.164663 49.71028 84.06402 49.337754 84.727028 48.674746 
C 85.390036 48.011738 85.762562 47.11238 85.762562 46.174746 
C 85.762562 45.237111 85.390036 44.337754 84.727028 43.674746 
C 84.06402 43.011738 83.164663 42.639212 82.227028 42.639212 
C 81.289393 42.639212 80.390036 43.011738 79.727028 43.674746 
C 79.06402 44.337754 78.691494 45.237111 78.691494 46.174746 
C 78.691494 47.11238 79.06402 48.011738 79.727028 48.674746 
C 80.390036 49.337754 81.289393 49.71028 82.227028 49.71028 
z
" clip-path="url(#p60f50237f0)" style="fill: #7f2704; stroke: #00ff00; stroke-width: 2"/>
    <path d="M 63.443708 47.64989 
C 63.537471 47.64989 63.627407 47.612638 63.693708 47.546337 
C 63.760009 47.480036 63.797261 47.3901 63.797261 47.296337 
C 63.797261 47.202573 63.760009 47.112638 63.693708 47.046337 
C 63.627407 46.980036 63.537471 46.942784 63.443708 46.942784 
C 63.349944 46.942784 63.260009 46.980036 63.193708 47.046337 
C 63.127407 47.112638 63.090155 47.202573 63.090155 47.296337 
C 63.090155 47.3901 63.127407 47.480036 63.193708 47.546337 
C 63.260009 47.612638 63.349944 47.64989 63.443708 47.64989 
z
" clip-path="url(#p60f50237f0)" style="fill: #fff5eb; stroke: #00ff00; stroke-width: 2"/>
    <path d="M 98.625069 50.894133 
C 98.718832 50.894133 98.808768 50.85688 98.875069 50.790579 
C 98.941369 50.724279 98.978622 50.634343 98.978622 50.540579 
C 98.978622 50.446816 98.941369 50.35688 98.875069 50.290579 
C 98.808768 50.224279 98.718832 50.187026 98.625069 50.187026 
C 98.531305 50.187026 98.441369 50.224279 98.375069 50.290579 
C 98.308768 50.35688 98.271515 50.446816 98.271515 50.540579 
C 98.271515 50.634343 98.308768 50.724279 98.375069 50.790579 
C 98.441369 50.85688 98.531305 50.894133 98.625069 50.894133 
z
" clip-path="url(#p60f50237f0)" style="fill: #fff5eb; stroke: #00ff00; stroke-width: 2"/>
    <path d="M 48.644101 53.928451 
C 48.737864 53.928451 48.8278 53.891198 48.894101 53.824897 
C 48.960402 53.758596 48.997654 53.668661 48.997654 53.574897 
C 48.997654 53.481134 48.960402 53.391198 48.894101 53.324897 
C 48.8278 53.258596 48.737864 53.221344 48.644101 53.221344 
C 48.550338 53.221344 48.460402 53.258596 48.394101 53.324897 
C 48.3278 53.391198 48.290548 53.481134 48.290548 53.574897 
C 48.290548 53.668661 48.3278 53.758596 48.394101 53.824897 
C 48.460402 53.891198 48.550338 53.928451 48.644101 53.928451 
z
" clip-path="url(#p60f50237f0)" style="fill: #fff5eb; stroke: #00ff00; stroke-width: 2"/>
    <path d="M 106.812991 62.602288 
C 107.750626 62.602288 108.649984 62.229762 109.312991 61.566754 
C 109.975999 60.903746 110.348525 60.004389 110.348525 59.066754 
C 110.348525 58.129119 109.975999 57.229762 109.312991 56.566754 
C 108.649984 55.903746 107.750626 55.53122 106.812991 55.53122 
C 105.875357 55.53122 104.975999 55.903746 104.312991 56.566754 
C 103.649984 57.229762 103.277457 58.129119 103.277457 59.066754 
C 103.277457 60.004389 103.649984 60.903746 104.312991 61.566754 
C 104.975999 62.229762 105.875357 62.602288 106.812991 62.602288 
z
" clip-path="url(#p60f50237f0)" style="fill: #7f2704; stroke: #ff0000; stroke-width: 2"/>
    <path d="M 43.352104 63.379995 
C 43.445868 63.379995 43.535804 63.342742 43.602104 63.276441 
C 43.668405 63.210141 43.705658 63.120205 43.705658 63.026441 
C 43.705658 62.932678 43.668405 62.842742 43.602104 62.776441 
C 43.535804 62.710141 43.445868 62.672888 43.352104 62.672888 
C 43.258341 62.672888 43.168405 62.710141 43.102104 62.776441 
C 43.035804 62.842742 42.998551 62.932678 42.998551 63.026441 
C 42.998551 63.120205 43.035804 63.210141 43.102104 63.276441 
C 43.168405 63.342742 43.258341 63.379995 43.352104 63.379995 
z
" clip-path="url(#p60f50237f0)" style="fill: #fff5eb; stroke: #00ff00; stroke-width: 2"/>
    <path d="M 103.132909 69.195328 
C 103.226673 69.195328 103.316609 69.158076 103.382909 69.091775 
C 103.44921 69.025474 103.486463 68.935538 103.486463 68.841775 
C 103.486463 68.748011 103.44921 68.658076 103.382909 68.591775 
C 103.316609 68.525474 103.226673 68.488222 103.132909 68.488222 
C 103.039146 68.488222 102.94921 68.525474 102.882909 68.591775 
C 102.816609 68.658076 102.779356 68.748011 102.779356 68.841775 
C 102.779356 68.935538 102.816609 69.025474 102.882909 69.091775 
C 102.94921 69.158076 103.039146 69.195328 103.132909 69.195328 
z
" clip-path="url(#p60f50237f0)" style="fill: #fff5eb; stroke: #00ff00; stroke-width: 2"/>
    <path d="M 50.357231 75.764361 
C 51.294866 75.764361 52.194223 75.391835 52.857231 74.728827 
C 53.520239 74.06582 53.892765 73.166462 53.892765 72.228827 
C 53.892765 71.291193 53.520239 70.391835 52.857231 69.728827 
C 52.194223 69.06582 51.294866 68.693294 50.357231 68.693294 
C 49.419596 68.693294 48.520239 69.06582 47.857231 69.728827 
C 47.194223 70.391835 46.821697 71.291193 46.821697 72.228827 
C 46.821697 73.166462 47.194223 74.06582 47.857231 74.728827 
C 48.520239 75.391835 49.419596 75.764361 50.357231 75.764361 
z
" clip-path="url(#p60f50237f0)" style="fill: #7f2704; stroke: #00ff00; stroke-width: 2"/>
    <path d="M 88.14921 76.351233 
C 88.242974 76.351233 88.33291 76.313981 88.39921 76.24768 
C 88.465511 76.181379 88.502764 76.091443 88.502764 75.99768 
C 88.502764 75.903916 88.465511 75.813981 88.39921 75.74768 
C 88.33291 75.681379 88.242974 75.644127 88.14921 75.644127 
C 88.055447 75.644127 87.965511 75.681379 87.89921 75.74768 
C 87.83291 75.813981 87.795657 75.903916 87.795657 75.99768 
C 87.795657 76.091443 87.83291 76.181379 87.89921 76.24768 
C 87.965511 76.313981 88.055447 76.351233 88.14921 76.351233 
z
" clip-path="url(#p60f50237f0)" style="fill: #fff5eb; stroke: #00ff00; stroke-width: 2"/>
    <path d="M 67.636702 80.873335 
C 68.574336 80.873335 69.473694 80.500809 70.136702 79.837801 
C 70.799709 79.174794 71.172236 78.275436 71.172236 77.337801 
C 71.172236 76.400167 70.799709 75.500809 70.136702 74.837801 
C 69.473694 74.174794 68.574336 73.802267 67.636702 73.802267 
C 66.699067 73.802267 65.799709 74.174794 65.136702 74.837801 
C 64.473694 75.500809 64.101168 76.400167 64.101168 77.337801 
C 64.101168 78.275436 64.473694 79.174794 65.136702 79.837801 
C 65.799709 80.500809 66.699067 80.873335 67.636702 80.873335 
z
" clip-path="url(#p60f50237f0)" style="fill: #7f2704; stroke: #00ff00; stroke-width: 2"/>
   </g>
   <g id="patch_12">
    <path d="M 88.376295 77.17945 
Q 87.607094 76.956016 86.837894 76.732581 
" clip-path="url(#p60f50237f0)" style="fill: none; opacity: 0.676181; stroke: #c3c3c3; stroke-width: 0.352362; stroke-linecap: round"/>
   </g>
   <g id="Path3DCollection_5">
    <path d="M 82.292786 39.620144 
C 83.230421 39.620144 84.129778 39.247618 84.792786 38.58461 
C 85.455794 37.921602 85.82832 37.022244 85.82832 36.08461 
C 85.82832 35.146975 85.455794 34.247618 84.792786 33.58461 
C 84.129778 32.921602 83.230421 32.549076 82.292786 32.549076 
C 81.355152 32.549076 80.455794 32.921602 79.792786 33.58461 
C 79.129778 34.247618 78.757252 35.146975 78.757252 36.08461 
C 78.757252 37.022244 79.129778 37.921602 79.792786 38.58461 
C 80.455794 39.247618 81.355152 39.620144 82.292786 39.620144 
z
" clip-path="url(#p60f50237f0)" style="fill: #3f007d; stroke: #00ff00; stroke-width: 2"/>
    <path d="M 63.330801 40.716825 
C 64.268436 40.716825 65.167793 40.344299 65.830801 39.681291 
C 66.493809 39.018283 66.866335 38.118925 66.866335 37.181291 
C 66.866335 36.243656 66.493809 35.344299 65.830801 34.681291 
C 65.167793 34.018283 64.268436 33.645757 63.330801 33.645757 
C 62.393167 33.645757 61.493809 34.018283 60.830801 34.681291 
C 60.167793 35.344299 59.795267 36.243656 59.795267 37.181291 
C 59.795267 38.118925 60.167793 39.018283 60.830801 39.681291 
C 61.493809 40.344299 62.393167 40.716825 63.330801 40.716825 
z
" clip-path="url(#p60f50237f0)" style="fill: #3f007d; stroke: #00ff00; stroke-width: 2"/>
    <path d="M 98.849497 40.707443 
C 98.94326 40.707443 99.033196 40.67019 99.099497 40.603889 
C 99.165797 40.537588 99.20305 40.447653 99.20305 40.353889 
C 99.20305 40.260126 99.165797 40.17019 99.099497 40.103889 
C 99.033196 40.037588 98.94326 40.000336 98.849497 40.000336 
C 98.755733 40.000336 98.665797 40.037588 98.599497 40.103889 
C 98.533196 40.17019 98.495943 40.260126 98.495943 40.353889 
C 98.495943 40.447653 98.533196 40.537588 98.599497 40.603889 
C 98.665797 40.67019 98.755733 40.707443 98.849497 40.707443 
z
" clip-path="url(#p60f50237f0)" style="fill: #fcfbfd; stroke: #00ff00; stroke-width: 2"/>
    <path d="M 48.385243 43.675303 
C 48.479006 43.675303 48.568942 43.63805 48.635243 43.57175 
C 48.701544 43.505449 48.738796 43.415513 48.738796 43.32175 
C 48.738796 43.227986 48.701544 43.13805 48.635243 43.07175 
C 48.568942 43.005449 48.479006 42.968196 48.385243 42.968196 
C 48.29148 42.968196 48.201544 43.005449 48.135243 43.07175 
C 48.068942 43.13805 48.03169 43.227986 48.03169 43.32175 
C 48.03169 43.415513 48.068942 43.505449 48.135243 43.57175 
C 48.201544 43.63805 48.29148 43.675303 48.385243 43.675303 
z
" clip-path="url(#p60f50237f0)" style="fill: #fcfbfd; stroke: #00ff00; stroke-width: 2"/>
    <path d="M 107.12422 49.048233 
C 107.217984 49.048233 107.30792 49.01098 107.37422 48.944679 
C 107.440521 48.878378 107.477774 48.788443 107.477774 48.694679 
C 107.477774 48.600916 107.440521 48.51098 107.37422 48.444679 
C 107.30792 48.378378 107.217984 48.341126 107.12422 48.341126 
C 107.030457 48.341126 106.940521 48.378378 106.87422 48.444679 
C 106.80792 48.51098 106.770667 48.600916 106.770667 48.694679 
C 106.770667 48.788443 106.80792 48.878378 106.87422 48.944679 
C 106.940521 49.01098 107.030457 49.048233 107.12422 49.048233 
z
" clip-path="url(#p60f50237f0)" style="fill: #fcfbfd; stroke: #ff0000; stroke-width: 2"/>
    <path d="M 43.032833 52.923255 
C 43.126597 52.923255 43.216533 52.886003 43.282833 52.819702 
C 43.349134 52.753401 43.386387 52.663465 43.386387 52.569702 
C 43.386387 52.475938 43.349134 52.386003 43.282833 52.319702 
C 43.216533 52.253401 43.126597 52.216148 43.032833 52.216148 
C 42.93907 52.216148 42.849134 52.253401 42.782833 52.319702 
C 42.716533 52.386003 42.67928 52.475938 42.67928 52.569702 
C 42.67928 52.663465 42.716533 52.753401 42.782833 52.819702 
C 42.849134 52.886003 42.93907 52.923255 43.032833 52.923255 
z
" clip-path="url(#p60f50237f0)" style="fill: #fcfbfd; stroke: #00ff00; stroke-width: 2"/>
    <path d="M 103.415925 58.615893 
C 103.509688 58.615893 103.599624 58.57864 103.665925 58.51234 
C 103.732225 58.446039 103.769478 58.356103 103.769478 58.26234 
C 103.769478 58.168576 103.732225 58.07864 103.665925 58.01234 
C 103.599624 57.946039 103.509688 57.908786 103.415925 57.908786 
C 103.322161 57.908786 103.232225 57.946039 103.165925 58.01234 
C 103.099624 58.07864 103.062371 58.168576 103.062371 58.26234 
C 103.062371 58.356103 103.099624 58.446039 103.165925 58.51234 
C 103.232225 58.57864 103.322161 58.615893 103.415925 58.615893 
z
" clip-path="url(#p60f50237f0)" style="fill: #fcfbfd; stroke: #00ff00; stroke-width: 2"/>
    <path d="M 50.10111 65.114367 
C 51.038745 65.114367 51.938102 64.741841 52.60111 64.078833 
C 53.264118 63.415825 53.636644 62.516467 53.636644 61.578833 
C 53.636644 60.641198 53.264118 59.741841 52.60111 59.078833 
C 51.938102 58.415825 51.038745 58.043299 50.10111 58.043299 
C 49.163475 58.043299 48.264118 58.415825 47.60111 59.078833 
C 46.938102 59.741841 46.565576 60.641198 46.565576 61.578833 
C 46.565576 62.516467 46.938102 63.415825 47.60111 64.078833 
C 48.264118 64.741841 49.163475 65.114367 50.10111 65.114367 
z
" clip-path="url(#p60f50237f0)" style="fill: #3f007d; stroke: #00ff00; stroke-width: 2"/>
    <path d="M 88.282624 68.805488 
C 89.220258 68.805488 90.119616 68.432961 90.782624 67.769954 
C 91.445632 67.106946 91.818158 66.207588 91.818158 65.269954 
C 91.818158 64.332319 91.445632 63.432961 90.782624 62.769954 
C 90.119616 62.106946 89.220258 61.73442 88.282624 61.73442 
C 87.344989 61.73442 86.445632 62.106946 85.782624 62.769954 
C 85.119616 63.432961 84.74709 64.332319 84.74709 65.269954 
C 84.74709 66.207588 85.119616 67.106946 85.782624 67.769954 
C 86.445632 68.432961 87.344989 68.805488 88.282624 68.805488 
z
" clip-path="url(#p60f50237f0)" style="fill: #3f007d; stroke: #00ff00; stroke-width: 2"/>
    <path d="M 67.556853 66.936187 
C 67.650617 66.936187 67.740553 66.898935 67.806853 66.832634 
C 67.873154 66.766333 67.910407 66.676397 67.910407 66.582634 
C 67.910407 66.48887 67.873154 66.398935 67.806853 66.332634 
C 67.740553 66.266333 67.650617 66.229081 67.556853 66.229081 
C 67.46309 66.229081 67.373154 66.266333 67.306853 66.332634 
C 67.240553 66.398935 67.2033 66.48887 67.2033 66.582634 
C 67.2033 66.676397 67.240553 66.766333 67.306853 66.832634 
C 67.373154 66.898935 67.46309 66.936187 67.556853 66.936187 
z
" clip-path="url(#p60f50237f0)" style="fill: #fcfbfd; stroke: #00ff00; stroke-width: 2"/>
   </g>
   <g id="patch_13">
    <path d="M 88.026216 78.967387 
Q 78.386797 77.997913 68.747378 77.028439 
" clip-path="url(#p60f50237f0)" style="fill: none; stroke: #000000; stroke-linecap: round"/>
   </g>
   <g id="patch_14">
    <path d="M 91.637409 78.126726 
Q 92.40661 78.350161 93.17581 78.573595 
" clip-path="url(#p60f50237f0)" style="fill: none; opacity: 0.676181; stroke: #c3c3c3; stroke-width: 0.352362; stroke-linecap: round"/>
   </g>
   <g id="patch_15">
    <path d="M 73.720517 77.528607 
Q 83.359936 78.498081 92.999354 79.467555 
" clip-path="url(#p60f50237f0)" style="fill: none; stroke: #000000; stroke-linecap: round"/>
   </g>
   <g id="patch_16">
    <path d="M 87.998167 80.628656 
Q 71.190282 81.741211 54.382397 82.853767 
" clip-path="url(#p60f50237f0)" style="fill: none; opacity: 0.650591; stroke: #cecece; stroke-width: 0.301181; stroke-linecap: round"/>
   </g>
   <g id="patch_17">
    <path d="M 59.370204 82.523612 
Q 76.178089 81.411056 92.985974 80.2985 
" clip-path="url(#p60f50237f0)" style="fill: none; opacity: 0.650591; stroke: #cecece; stroke-width: 0.301181; stroke-linecap: round"/>
   </g>
   <g id="patch_18">
    <path d="M 88.238263 69.36886 
Q 78.439156 68.410122 68.640049 67.451384 
" clip-path="url(#p60f50237f0)" style="fill: none; stroke: #000000; stroke-linecap: round"/>
   </g>
   <g id="patch_19">
    <path d="M 73.61379 67.938012 
Q 83.412897 68.89675 93.212004 69.855488 
" clip-path="url(#p60f50237f0)" style="fill: none; stroke: #000000; stroke-linecap: round"/>
   </g>
   <g id="patch_20">
    <path d="M 88.764928 57.889088 
Q 87.873535 57.644428 86.982142 57.399768 
" clip-path="url(#p60f50237f0)" style="fill: none; opacity: 0.7343; stroke: #a0a0a0; stroke-width: 0.468599; stroke-linecap: round"/>
   </g>
   <g id="patch_21">
    <path d="M 88.445805 59.588312 
Q 78.490196 58.641997 68.534587 57.695682 
" clip-path="url(#p60f50237f0)" style="fill: none; stroke: #000000; stroke-linecap: round"/>
   </g>
   <g id="patch_22">
    <path d="M 91.802444 58.722792 
Q 92.693837 58.967452 93.58523 59.212112 
" clip-path="url(#p60f50237f0)" style="fill: none; opacity: 0.7343; stroke: #a0a0a0; stroke-width: 0.468599; stroke-linecap: round"/>
   </g>
   <g id="patch_23">
    <path d="M 73.513577 58.168953 
Q 83.469186 59.115267 93.424794 60.061582 
" clip-path="url(#p60f50237f0)" style="fill: none; stroke: #000000; stroke-linecap: round"/>
   </g>
   <g id="patch_24">
    <path d="M 72.30719 36.662134 
Q 70.315116 36.777348 68.323041 36.892561 
" clip-path="url(#p60f50237f0)" style="fill: none; opacity: 0.816384; stroke: #717171; stroke-width: 0.632768; stroke-linecap: round"/>
   </g>
   <g id="patch_25">
    <path d="M 73.316397 36.603766 
Q 75.308472 36.488553 77.300546 36.37334 
" clip-path="url(#p60f50237f0)" style="fill: none; opacity: 0.816384; stroke: #717171; stroke-width: 0.632768; stroke-linecap: round"/>
   </g>
   <g id="patch_26">
    <path d="M 88.665892 49.622196 
Q 78.544074 48.688814 68.422257 47.755433 
" clip-path="url(#p60f50237f0)" style="fill: none; stroke: #000000; stroke-linecap: round"/>
   </g>
   <g id="patch_27">
    <path d="M 73.402885 48.214721 
Q 83.524702 49.148102 93.64652 50.081484 
" clip-path="url(#p60f50237f0)" style="fill: none; stroke: #000000; stroke-linecap: round"/>
   </g>
   <g id="patch_28">
    <path d="M 88.890214 39.464307 
Q 78.601864 38.545332 68.313514 37.626356 
" clip-path="url(#p60f50237f0)" style="fill: none; opacity: 0.816384; stroke: #717171; stroke-width: 0.632768; stroke-linecap: round"/>
   </g>
   <g id="patch_29">
    <path d="M 73.290084 38.070873 
Q 83.578434 38.989848 93.866784 39.908824 
" clip-path="url(#p60f50237f0)" style="fill: none; opacity: 0.816384; stroke: #717171; stroke-width: 0.632768; stroke-linecap: round"/>
   </g>
   <g id="patch_30">
    <path d="M 97.956402 54.422672 
Q 92.305578 51.459581 86.654755 48.496489 
" clip-path="url(#p60f50237f0)" style="fill: none; opacity: 0.805085; stroke: #787878; stroke-width: 0.610169; stroke-linecap: round"/>
   </g>
   <g id="patch_31">
    <path d="M 91.083617 50.818827 
Q 96.734441 53.781919 102.385265 56.745011 
" clip-path="url(#p60f50237f0)" style="fill: none; opacity: 0.805085; stroke: #787878; stroke-width: 0.610169; stroke-linecap: round"/>
   </g>
   <g id="patch_32">
    <path d="M 74.571606 81.992353 
Q 64.700486 90.791074 54.829367 99.589795 
" clip-path="url(#p60f50237f0)" style="fill: none; opacity: 0.689961; stroke: #bbbbbb; stroke-width: 0.379921; stroke-linecap: round"/>
   </g>
   <g id="patch_33">
    <path d="M 58.560641 96.263886 
Q 68.43176 87.465165 78.30288 78.666444 
" clip-path="url(#p60f50237f0)" style="fill: none; opacity: 0.689961; stroke: #bbbbbb; stroke-width: 0.379921; stroke-linecap: round"/>
   </g>
   <g id="patch_34">
    <path d="M 74.545356 72.347056 
Q 64.589676 80.980697 54.633997 89.614338 
" clip-path="url(#p60f50237f0)" style="fill: none; opacity: 0.802469; stroke: #797979; stroke-width: 0.604938; stroke-linecap: round"/>
   </g>
   <g id="patch_35">
    <path d="M 58.40796 86.341528 
Q 68.36364 77.707887 78.31932 69.074246 
" clip-path="url(#p60f50237f0)" style="fill: none; opacity: 0.802469; stroke: #797979; stroke-width: 0.604938; stroke-linecap: round"/>
   </g>
   <g id="patch_36">
    <path d="M 65.048704 86.448777 
Q 66.137945 94.899722 67.227185 103.350666 
" clip-path="url(#p60f50237f0)" style="fill: none; opacity: 0.669291; stroke: #c5c5c5; stroke-width: 0.338583; stroke-linecap: round"/>
   </g>
   <g id="patch_37">
    <path d="M 66.587953 98.391144 
Q 65.498713 89.940199 64.409472 81.489255 
" clip-path="url(#p60f50237f0)" style="fill: none; opacity: 0.669291; stroke: #c5c5c5; stroke-width: 0.338583; stroke-linecap: round"/>
   </g>
   <g id="patch_38">
    <path d="M 74.514661 62.520969 
Q 64.474355 70.980905 54.434049 79.440842 
" clip-path="url(#p60f50237f0)" style="fill: none; opacity: 0.707729; stroke: #b0b0b0; stroke-width: 0.415459; stroke-linecap: round"/>
   </g>
   <g id="patch_39">
    <path d="M 58.256032 76.220448 
Q 68.296338 67.760512 78.336644 59.300576 
" clip-path="url(#p60f50237f0)" style="fill: none; opacity: 0.707729; stroke: #b0b0b0; stroke-width: 0.415459; stroke-linecap: round"/>
   </g>
   <g id="patch_40">
    <path d="M 106.655761 59.484388 
Q 106.734376 59.275571 106.812991 59.066754 
" clip-path="url(#p60f50237f0)" style="fill: none; opacity: 0.745763; stroke: #999999; stroke-width: 0.491525; stroke-linecap: round"/>
   </g>
   <g id="patch_41">
    <path d="M 103.29014 68.424141 
Q 103.211524 68.632958 103.132909 68.841775 
" clip-path="url(#p60f50237f0)" style="fill: none; opacity: 0.745763; stroke: #999999; stroke-width: 0.491525; stroke-linecap: round"/>
   </g>
   <g id="patch_42">
    <path d="M 83.935088 75.626631 
Q 85.453834 83.758567 86.97258 91.890504 
" clip-path="url(#p60f50237f0)" style="fill: none; opacity: 0.7; stroke: #b5b5b5; stroke-width: 0.4; stroke-linecap: round"/>
   </g>
   <g id="patch_43">
    <path d="M 86.054508 86.974799 
Q 84.535761 78.842863 83.017015 70.710926 
" clip-path="url(#p60f50237f0)" style="fill: none; opacity: 0.7; stroke: #b5b5b5; stroke-width: 0.4; stroke-linecap: round"/>
   </g>
   <g id="patch_44">
    <path d="M 90.817694 77.096705 
Q 81.14711 85.958047 71.476526 94.81939 
" clip-path="url(#p60f50237f0)" style="fill: none; opacity: 0.62716; stroke: #d9d9d9; stroke-width: 0.254321; stroke-linecap: round"/>
   </g>
   <g id="patch_45">
    <path d="M 64.974006 76.880624 
Q 66.055179 85.059931 67.136352 93.239237 
" clip-path="url(#p60f50237f0)" style="fill: none; opacity: 0.712346; stroke: #aeaeae; stroke-width: 0.424691; stroke-linecap: round"/>
   </g>
   <g id="patch_46">
    <path d="M 60.393853 95.879488 
Q 61.706873 96.290646 63.019893 96.701804 
" clip-path="url(#p60f50237f0)" style="fill: none; opacity: 0.634568; stroke: #d5d5d5; stroke-width: 0.269136; stroke-linecap: round"/>
   </g>
   <g id="patch_47">
    <path d="M 75.162666 91.441708 
Q 84.833251 82.580365 94.503835 73.719023 
" clip-path="url(#p60f50237f0)" style="fill: none; opacity: 0.62716; stroke: #d9d9d9; stroke-width: 0.254321; stroke-linecap: round"/>
   </g>
   <g id="patch_48">
    <path d="M 66.480799 88.279832 
Q 65.399626 80.100525 64.318453 71.921219 
" clip-path="url(#p60f50237f0)" style="fill: none; opacity: 0.712346; stroke: #aeaeae; stroke-width: 0.424691; stroke-linecap: round"/>
   </g>
   <g id="patch_49">
    <path d="M 58.251868 95.208749 
Q 56.938848 94.797591 55.625828 94.386433 
" clip-path="url(#p60f50237f0)" style="fill: none; opacity: 0.634568; stroke: #d5d5d5; stroke-width: 0.269136; stroke-linecap: round"/>
   </g>
   <g id="patch_50">
    <path d="M 97.071754 61.337822 
Q 76.148016 66.215974 55.224278 71.094126 
" clip-path="url(#p60f50237f0)" style="fill: none; opacity: 0.771186; stroke: #8a8a8a; stroke-width: 0.542373; stroke-linecap: round"/>
   </g>
   <g id="patch_51">
    <path d="M 74.483274 52.505392 
Q 64.356639 60.784082 54.230003 69.062773 
" clip-path="url(#p60f50237f0)" style="fill: none; opacity: 0.940678; stroke: #232323; stroke-width: 0.881356; stroke-linecap: round"/>
   </g>
   <g id="patch_52">
    <path d="M 60.098468 69.957759 
Q 81.022207 65.079607 101.945945 60.201455 
" clip-path="url(#p60f50237f0)" style="fill: none; opacity: 0.771186; stroke: #8a8a8a; stroke-width: 0.542373; stroke-linecap: round"/>
   </g>
   <g id="patch_53">
    <path d="M 58.100985 65.898182 
Q 68.22762 57.619491 78.354256 49.3408 
" clip-path="url(#p60f50237f0)" style="fill: none; opacity: 0.940678; stroke: #232323; stroke-width: 0.881356; stroke-linecap: round"/>
   </g>
   <g id="patch_54">
    <path d="M 84.051832 65.894697 
Q 85.562821 73.746418 87.07381 81.598138 
" clip-path="url(#p60f50237f0)" style="fill: none; opacity: 0.719807; stroke: #a9a9a9; stroke-width: 0.439614; stroke-linecap: round"/>
   </g>
   <g id="patch_55">
    <path d="M 69.966152 64.897436 
Q 77.389171 73.783235 84.81219 82.669034 
" clip-path="url(#p60f50237f0)" style="fill: none; opacity: 0.727053; stroke: #a5a5a5; stroke-width: 0.454106; stroke-linecap: round"/>
   </g>
   <g id="patch_56">
    <path d="M 86.129174 76.689419 
Q 84.618185 68.837699 83.107196 60.985979 
" clip-path="url(#p60f50237f0)" style="fill: none; opacity: 0.719807; stroke: #a9a9a9; stroke-width: 0.439614; stroke-linecap: round"/>
   </g>
   <g id="patch_57">
    <path d="M 81.606863 78.832065 
Q 74.183844 69.946266 66.760825 61.060467 
" clip-path="url(#p60f50237f0)" style="fill: none; opacity: 0.727053; stroke: #a5a5a5; stroke-width: 0.454106; stroke-linecap: round"/>
   </g>
   <g id="patch_58">
    <path d="M 90.936563 67.187682 
Q 81.192374 75.867742 71.448184 84.547802 
" clip-path="url(#p60f50237f0)" style="fill: none; opacity: 0.698068; stroke: #b6b6b6; stroke-width: 0.396135; stroke-linecap: round"/>
   </g>
   <g id="patch_59">
    <path d="M 64.899834 67.133766 
Q 65.971126 75.02631 67.042419 82.918853 
" clip-path="url(#p60f50237f0)" style="fill: none; opacity: 0.719807; stroke: #a9a9a9; stroke-width: 0.439614; stroke-linecap: round"/>
   </g>
   <g id="patch_60">
    <path d="M 75.183234 81.220645 
Q 84.927423 72.540584 94.671613 63.860524 
" clip-path="url(#p60f50237f0)" style="fill: none; opacity: 0.698068; stroke: #b6b6b6; stroke-width: 0.396135; stroke-linecap: round"/>
   </g>
   <g id="patch_61">
    <path d="M 66.36959 77.961912 
Q 65.298297 70.069369 64.227004 62.176826 
" clip-path="url(#p60f50237f0)" style="fill: none; opacity: 0.719807; stroke: #a9a9a9; stroke-width: 0.439614; stroke-linecap: round"/>
   </g>
   <g id="patch_62">
    <path d="M 97.368619 50.89892 
Q 76.174115 55.687737 54.979611 60.476554 
" clip-path="url(#p60f50237f0)" style="fill: none; opacity: 0.644068; stroke: #d1d1d1; stroke-width: 0.288136; stroke-linecap: round"/>
   </g>
   <g id="patch_63">
    <path d="M 74.455103 42.291669 
Q 64.238734 50.382531 54.022365 58.473392 
" clip-path="url(#p60f50237f0)" style="fill: none; opacity: 0.830508; stroke: #6a6a6a; stroke-width: 0.661017; stroke-linecap: round"/>
   </g>
   <g id="patch_64">
    <path d="M 59.856712 59.374592 
Q 81.051216 54.585775 102.24572 49.796958 
" clip-path="url(#p60f50237f0)" style="fill: none; opacity: 0.644068; stroke: #d1d1d1; stroke-width: 0.288136; stroke-linecap: round"/>
   </g>
   <g id="patch_65">
    <path d="M 57.938793 55.371774 
Q 68.155162 47.280912 78.371532 39.19005 
" clip-path="url(#p60f50237f0)" style="fill: none; opacity: 0.830508; stroke: #6a6a6a; stroke-width: 0.661017; stroke-linecap: round"/>
   </g>
   <g id="patch_66">
    <path d="M 84.175305 55.98588 
Q 85.675706 63.541604 87.176108 71.097329 
" clip-path="url(#p60f50237f0)" style="fill: none; opacity: 0.872881; stroke: #535353; stroke-width: 0.745763; stroke-linecap: round"/>
   </g>
   <g id="patch_67">
    <path d="M 57.341301 58.511358 
Q 70.569673 66.019676 83.798044 73.527993 
" clip-path="url(#p60f50237f0)" style="fill: none; opacity: 0.923729; stroke: #2f2f2f; stroke-width: 0.847458; stroke-linecap: round"/>
   </g>
   <g id="patch_68">
    <path d="M 86.200934 66.186546 
Q 84.700532 58.630821 83.20013 51.075096 
" clip-path="url(#p60f50237f0)" style="fill: none; opacity: 0.872881; stroke: #535353; stroke-width: 0.745763; stroke-linecap: round"/>
   </g>
   <g id="patch_69">
    <path d="M 79.45201 71.061219 
Q 66.223638 63.552901 52.995267 56.044584 
" clip-path="url(#p60f50237f0)" style="fill: none; opacity: 0.923729; stroke: #2f2f2f; stroke-width: 0.847458; stroke-linecap: round"/>
   </g>
   <g id="patch_70">
    <path d="M 64.826188 57.201366 
Q 65.885963 64.794316 66.945738 72.387266 
" clip-path="url(#p60f50237f0)" style="fill: none; opacity: 0.872881; stroke: #535353; stroke-width: 0.745763; stroke-linecap: round"/>
   </g>
   <g id="patch_71">
    <path d="M 54.88764 61.386604 
Q 59.70122 67.409193 64.5148 73.431783 
" clip-path="url(#p60f50237f0)" style="fill: none; opacity: 0.771186; stroke: #8a8a8a; stroke-width: 0.542373; stroke-linecap: round"/>
   </g>
   <g id="patch_72">
    <path d="M 59.946156 75.063959 
Q 61.393766 75.49197 62.841376 75.919981 
" clip-path="url(#p60f50237f0)" style="fill: none; opacity: 0.957627; stroke: #181818; stroke-width: 0.915254; stroke-linecap: round"/>
   </g>
   <g id="patch_73">
    <path d="M 66.254222 67.432773 
Q 65.194447 59.839822 64.134672 52.246872 
" clip-path="url(#p60f50237f0)" style="fill: none; opacity: 0.872881; stroke: #535353; stroke-width: 0.745763; stroke-linecap: round"/>
   </g>
   <g id="patch_74">
    <path d="M 61.393162 69.526095 
Q 56.579582 63.503505 51.766002 57.480915 
" clip-path="url(#p60f50237f0)" style="fill: none; opacity: 0.771186; stroke: #8a8a8a; stroke-width: 0.542373; stroke-linecap: round"/>
   </g>
   <g id="patch_75">
    <path d="M 58.047777 74.50267 
Q 56.600167 74.074659 55.152557 73.646648 
" clip-path="url(#p60f50237f0)" style="fill: none; opacity: 0.957627; stroke: #181818; stroke-width: 0.915254; stroke-linecap: round"/>
   </g>
   <g id="patch_76">
    <path d="M 84.302804 45.878373 
Q 85.789892 53.124177 87.276981 60.369982 
" clip-path="url(#p60f50237f0)" style="fill: none; stroke: #000000; stroke-linecap: round"/>
   </g>
   <g id="patch_77">
    <path d="M 69.973858 44.659486 
Q 77.468786 53.096645 84.963713 61.533803 
" clip-path="url(#p60f50237f0)" style="fill: none; opacity: 0.728814; stroke: #a4a4a4; stroke-width: 0.457627; stroke-linecap: round"/>
   </g>
   <g id="patch_78">
    <path d="M 57.149322 48.143013 
Q 70.525013 55.5012 83.900703 62.859387 
" clip-path="url(#p60f50237f0)" style="fill: none; opacity: 0.652542; stroke: #cdcdcd; stroke-width: 0.305085; stroke-linecap: round"/>
   </g>
   <g id="patch_79">
    <path d="M 86.272606 55.47619 
Q 84.785518 48.230386 83.298429 40.984582 
" clip-path="url(#p60f50237f0)" style="fill: none; stroke: #000000; stroke-linecap: round"/>
   </g>
   <g id="patch_80">
    <path d="M 81.639567 57.791759 
Q 74.144639 49.3546 66.649712 40.917441 
" clip-path="url(#p60f50237f0)" style="fill: none; opacity: 0.728814; stroke: #a4a4a4; stroke-width: 0.457627; stroke-linecap: round"/>
   </g>
   <g id="patch_81">
    <path d="M 79.518545 60.44869 
Q 66.142854 53.090503 52.767164 45.732316 
" clip-path="url(#p60f50237f0)" style="fill: none; opacity: 0.652542; stroke: #cdcdcd; stroke-width: 0.305085; stroke-linecap: round"/>
   </g>
   <g id="patch_82">
    <path d="M 93.67637 60.522185 
Q 83.050968 62.987572 72.425567 65.452958 
" clip-path="url(#p60f50237f0)" style="fill: none; opacity: 0.663842; stroke: #c8c8c8; stroke-width: 0.327684; stroke-linecap: round"/>
   </g>
   <g id="patch_83">
    <path d="M 59.711145 64.333611 
Q 61.230101 64.76903 62.749058 65.204449 
" clip-path="url(#p60f50237f0)" style="fill: none; opacity: 0.819209; stroke: #6f6f6f; stroke-width: 0.638418; stroke-linecap: round"/>
   </g>
   <g id="patch_84">
    <path d="M 77.296408 64.322788 
Q 87.92181 61.857402 98.547211 59.392016 
" clip-path="url(#p60f50237f0)" style="fill: none; opacity: 0.663842; stroke: #c8c8c8; stroke-width: 0.327684; stroke-linecap: round"/>
   </g>
   <g id="patch_85">
    <path d="M 57.946819 63.827856 
Q 56.427862 63.392437 54.908905 62.957018 
" clip-path="url(#p60f50237f0)" style="fill: none; opacity: 0.819209; stroke: #6f6f6f; stroke-width: 0.638418; stroke-linecap: round"/>
   </g>
  </g>
 </g>
 <defs>
  <clipPath id="p60f50237f0">
   <rect x="18.36" y="17.28" width="110.88" height="110.88"/>
  </clipPath>
 </defs>
</svg>
