<?xml version="1.0" encoding="utf-8" standalone="no"?>
<!DOCTYPE svg PUBLIC "-//W3C//DTD SVG 1.1//EN"
  "http://www.w3.org/Graphics/SVG/1.1/DTD/svg11.dtd">
<svg xmlns:xlink="http://www.w3.org/1999/xlink" width="144pt" height="144pt" viewBox="0 0 144 144" xmlns="http://www.w3.org/2000/svg" version="1.1">
 <metadata>
  <rdf:RDF xmlns:dc="http://purl.org/dc/elements/1.1/" xmlns:cc="http://creativecommons.org/ns#" xmlns:rdf="http://www.w3.org/1999/02/22-rdf-syntax-ns#">
   <cc:Work>
    <dc:type rdf:resource="http://purl.org/dc/dcmitype/StillImage"/>
    <dc:date>2025-06-03T17:18:15.518539</dc:date>
    <dc:format>image/svg+xml</dc:format>
    <dc:creator>
     <cc:Agent>
      <dc:title>Matplotlib v3.9.2, https://matplotlib.org/</dc:title>
     </cc:Agent>
    </dc:creator>
   </cc:Work>
  </rdf:RDF>
 </metadata>
 <defs>
  <style type="text/css">*{stroke-linejoin: round; stroke-linecap: butt}</style>
 </defs>
 <g id="figure_1">
  <g id="patch_1">
   <path d="M 0 144 
L 144 144 
L 144 0 
L 0 0 
z
" style="fill: #ffffff"/>
  </g>
  <g id="axes_1">
   <g id="patch_2">
    <path d="M 18 128.16 
L 129.6 128.16 
L 129.6 17.28 
L 18 17.28 
z
" style="fill: #ffffff"/>
   </g>
   <g id="matplotlib.axis_1">
    <g id="xtick_1">
     <g id="line2d_1">
      <defs>
       <path id="m955cd3c2a2" d="M 0 0 
L 0 3.5 
" style="stroke: #000000; stroke-width: 0.8"/>
      </defs>
      <g>
       <use xlink:href="#m955cd3c2a2" x="18" y="128.16" style="stroke: #000000; stroke-width: 0.8"/>
      </g>
     </g>
     <g id="text_1">
      <!-- 0.0 -->
      <g transform="translate(10.048437 142.758438) scale(0.1 -0.1)">
       <defs>
        <path id="DejaVuSerif-30" d="M 2034 219 
Q 2513 219 2750 744 
Q 2988 1269 2988 2328 
Q 2988 3391 2750 3916 
Q 2513 4441 2034 4441 
Q 1556 4441 1318 3916 
Q 1081 3391 1081 2328 
Q 1081 1269 1318 744 
Q 1556 219 2034 219 
z
M 2034 -91 
Q 1275 -91 848 546 
Q 422 1184 422 2328 
Q 422 3475 848 4112 
Q 1275 4750 2034 4750 
Q 2797 4750 3222 4112 
Q 3647 3475 3647 2328 
Q 3647 1184 3222 546 
Q 2797 -91 2034 -91 
z
" transform="scale(0.015625)"/>
        <path id="DejaVuSerif-2e" d="M 603 325 
Q 603 500 722 622 
Q 841 744 1019 744 
Q 1191 744 1312 622 
Q 1434 500 1434 325 
Q 1434 153 1312 31 
Q 1191 -91 1019 -91 
Q 841 -91 722 29 
Q 603 150 603 325 
z
" transform="scale(0.015625)"/>
       </defs>
       <use xlink:href="#DejaVuSerif-30"/>
       <use xlink:href="#DejaVuSerif-2e" x="63.623047"/>
       <use xlink:href="#DejaVuSerif-30" x="95.410156"/>
      </g>
     </g>
    </g>
    <g id="xtick_2">
     <g id="line2d_2">
      <g>
       <use xlink:href="#m955cd3c2a2" x="73.8" y="128.16" style="stroke: #000000; stroke-width: 0.8"/>
      </g>
     </g>
     <g id="text_2">
      <!-- 0.5 -->
      <g transform="translate(65.848438 142.758438) scale(0.1 -0.1)">
       <defs>
        <path id="DejaVuSerif-35" d="M 3219 4666 
L 3219 4153 
L 1081 4153 
L 1081 2816 
Q 1244 2928 1461 2984 
Q 1678 3041 1947 3041 
Q 2703 3041 3140 2622 
Q 3578 2203 3578 1478 
Q 3578 738 3136 323 
Q 2694 -91 1894 -91 
Q 1572 -91 1234 -12 
Q 897 66 544 225 
L 544 1131 
L 897 1131 
Q 925 688 1179 453 
Q 1434 219 1894 219 
Q 2388 219 2653 544 
Q 2919 869 2919 1478 
Q 2919 2084 2655 2407 
Q 2391 2731 1894 2731 
Q 1613 2731 1398 2631 
Q 1184 2531 1019 2322 
L 750 2322 
L 750 4666 
L 3219 4666 
z
" transform="scale(0.015625)"/>
       </defs>
       <use xlink:href="#DejaVuSerif-30"/>
       <use xlink:href="#DejaVuSerif-2e" x="63.623047"/>
       <use xlink:href="#DejaVuSerif-35" x="95.410156"/>
      </g>
     </g>
    </g>
    <g id="xtick_3">
     <g id="line2d_3">
      <g>
       <use xlink:href="#m955cd3c2a2" x="129.6" y="128.16" style="stroke: #000000; stroke-width: 0.8"/>
      </g>
     </g>
     <g id="text_3">
      <!-- 1.0 -->
      <g transform="translate(121.648438 142.758438) scale(0.1 -0.1)">
       <defs>
        <path id="DejaVuSerif-31" d="M 909 0 
L 909 331 
L 1722 331 
L 1722 4213 
L 781 3603 
L 781 4013 
L 1919 4750 
L 2350 4750 
L 2350 331 
L 3163 331 
L 3163 0 
L 909 0 
z
" transform="scale(0.015625)"/>
       </defs>
       <use xlink:href="#DejaVuSerif-31"/>
       <use xlink:href="#DejaVuSerif-2e" x="63.623047"/>
       <use xlink:href="#DejaVuSerif-30" x="95.410156"/>
      </g>
     </g>
    </g>
   </g>
   <g id="matplotlib.axis_2">
    <g id="ytick_1">
     <g id="line2d_4">
      <defs>
       <path id="mab9274dc15" d="M 0 0 
L -3.5 0 
" style="stroke: #000000; stroke-width: 0.8"/>
      </defs>
      <g>
       <use xlink:href="#mab9274dc15" x="18" y="128.16" style="stroke: #000000; stroke-width: 0.8"/>
      </g>
     </g>
     <g id="text_4">
      <!-- 0.0 -->
      <g transform="translate(-4.903125 131.959219) scale(0.1 -0.1)">
       <use xlink:href="#DejaVuSerif-30"/>
       <use xlink:href="#DejaVuSerif-2e" x="63.623047"/>
       <use xlink:href="#DejaVuSerif-30" x="95.410156"/>
      </g>
     </g>
    </g>
    <g id="ytick_2">
     <g id="line2d_5">
      <g>
       <use xlink:href="#mab9274dc15" x="18" y="105.984" style="stroke: #000000; stroke-width: 0.8"/>
      </g>
     </g>
     <g id="text_5">
      <!-- 0.2 -->
      <g transform="translate(-4.903125 109.783219) scale(0.1 -0.1)">
       <defs>
        <path id="DejaVuSerif-32" d="M 819 3553 
L 469 3553 
L 469 4384 
Q 803 4563 1142 4656 
Q 1481 4750 1806 4750 
Q 2534 4750 2956 4397 
Q 3378 4044 3378 3438 
Q 3378 2753 2422 1800 
Q 2347 1728 2309 1691 
L 1131 513 
L 3078 513 
L 3078 1088 
L 3444 1088 
L 3444 0 
L 434 0 
L 434 341 
L 1850 1753 
Q 2319 2222 2519 2614 
Q 2719 3006 2719 3438 
Q 2719 3909 2473 4175 
Q 2228 4441 1797 4441 
Q 1350 4441 1106 4219 
Q 863 3997 819 3553 
z
" transform="scale(0.015625)"/>
       </defs>
       <use xlink:href="#DejaVuSerif-30"/>
       <use xlink:href="#DejaVuSerif-2e" x="63.623047"/>
       <use xlink:href="#DejaVuSerif-32" x="95.410156"/>
      </g>
     </g>
    </g>
    <g id="ytick_3">
     <g id="line2d_6">
      <g>
       <use xlink:href="#mab9274dc15" x="18" y="83.808" style="stroke: #000000; stroke-width: 0.8"/>
      </g>
     </g>
     <g id="text_6">
      <!-- 0.4 -->
      <g transform="translate(-4.903125 87.607219) scale(0.1 -0.1)">
       <defs>
        <path id="DejaVuSerif-34" d="M 2234 1581 
L 2234 4063 
L 641 1581 
L 2234 1581 
z
M 3609 0 
L 1484 0 
L 1484 331 
L 2234 331 
L 2234 1247 
L 197 1247 
L 197 1588 
L 2241 4750 
L 2859 4750 
L 2859 1581 
L 3750 1581 
L 3750 1247 
L 2859 1247 
L 2859 331 
L 3609 331 
L 3609 0 
z
" transform="scale(0.015625)"/>
       </defs>
       <use xlink:href="#DejaVuSerif-30"/>
       <use xlink:href="#DejaVuSerif-2e" x="63.623047"/>
       <use xlink:href="#DejaVuSerif-34" x="95.410156"/>
      </g>
     </g>
    </g>
    <g id="ytick_4">
     <g id="line2d_7">
      <g>
       <use xlink:href="#mab9274dc15" x="18" y="61.632" style="stroke: #000000; stroke-width: 0.8"/>
      </g>
     </g>
     <g id="text_7">
      <!-- 0.6 -->
      <g transform="translate(-4.903125 65.431219) scale(0.1 -0.1)">
       <defs>
        <path id="DejaVuSerif-36" d="M 2094 219 
Q 2534 219 2771 542 
Q 3009 866 3009 1472 
Q 3009 2078 2771 2401 
Q 2534 2725 2094 2725 
Q 1647 2725 1412 2412 
Q 1178 2100 1178 1509 
Q 1178 888 1415 553 
Q 1653 219 2094 219 
z
M 1075 2569 
Q 1288 2803 1556 2918 
Q 1825 3034 2163 3034 
Q 2859 3034 3264 2615 
Q 3669 2197 3669 1472 
Q 3669 763 3233 336 
Q 2797 -91 2069 -91 
Q 1278 -91 853 498 
Q 428 1088 428 2181 
Q 428 3406 931 4078 
Q 1434 4750 2350 4750 
Q 2597 4750 2869 4703 
Q 3141 4656 3425 4563 
L 3425 3794 
L 3072 3794 
Q 3034 4109 2831 4275 
Q 2628 4441 2284 4441 
Q 1678 4441 1381 3981 
Q 1084 3522 1075 2569 
z
" transform="scale(0.015625)"/>
       </defs>
       <use xlink:href="#DejaVuSerif-30"/>
       <use xlink:href="#DejaVuSerif-2e" x="63.623047"/>
       <use xlink:href="#DejaVuSerif-36" x="95.410156"/>
      </g>
     </g>
    </g>
    <g id="ytick_5">
     <g id="line2d_8">
      <g>
       <use xlink:href="#mab9274dc15" x="18" y="39.456" style="stroke: #000000; stroke-width: 0.8"/>
      </g>
     </g>
     <g id="text_8">
      <!-- 0.8 -->
      <g transform="translate(-4.903125 43.255219) scale(0.1 -0.1)">
       <defs>
        <path id="DejaVuSerif-38" d="M 2981 1275 
Q 2981 1775 2732 2051 
Q 2484 2328 2034 2328 
Q 1584 2328 1336 2051 
Q 1088 1775 1088 1275 
Q 1088 772 1336 495 
Q 1584 219 2034 219 
Q 2484 219 2732 495 
Q 2981 772 2981 1275 
z
M 2853 3541 
Q 2853 3966 2637 4203 
Q 2422 4441 2034 4441 
Q 1650 4441 1433 4203 
Q 1216 3966 1216 3541 
Q 1216 3113 1433 2875 
Q 1650 2638 2034 2638 
Q 2422 2638 2637 2875 
Q 2853 3113 2853 3541 
z
M 2516 2484 
Q 3047 2413 3344 2092 
Q 3641 1772 3641 1275 
Q 3641 619 3225 264 
Q 2809 -91 2034 -91 
Q 1263 -91 845 264 
Q 428 619 428 1275 
Q 428 1772 725 2092 
Q 1022 2413 1556 2484 
Q 1084 2569 832 2842 
Q 581 3116 581 3541 
Q 581 4103 968 4426 
Q 1356 4750 2034 4750 
Q 2713 4750 3100 4426 
Q 3488 4103 3488 3541 
Q 3488 3116 3236 2842 
Q 2984 2569 2516 2484 
z
" transform="scale(0.015625)"/>
       </defs>
       <use xlink:href="#DejaVuSerif-30"/>
       <use xlink:href="#DejaVuSerif-2e" x="63.623047"/>
       <use xlink:href="#DejaVuSerif-38" x="95.410156"/>
      </g>
     </g>
    </g>
    <g id="ytick_6">
     <g id="line2d_9">
      <g>
       <use xlink:href="#mab9274dc15" x="18" y="17.28" style="stroke: #000000; stroke-width: 0.8"/>
      </g>
     </g>
     <g id="text_9">
      <!-- 1.0 -->
      <g transform="translate(-4.903125 21.079219) scale(0.1 -0.1)">
       <use xlink:href="#DejaVuSerif-31"/>
       <use xlink:href="#DejaVuSerif-2e" x="63.623047"/>
       <use xlink:href="#DejaVuSerif-30" x="95.410156"/>
      </g>
     </g>
    </g>
   </g>
   <g id="patch_3">
    <path d="M 18 128.16 
L 18 17.28 
" style="fill: none; stroke: #000000; stroke-width: 0.8; stroke-linejoin: miter; stroke-linecap: square"/>
   </g>
   <g id="patch_4">
    <path d="M 129.6 128.16 
L 129.6 17.28 
" style="fill: none; stroke: #000000; stroke-width: 0.8; stroke-linejoin: miter; stroke-linecap: square"/>
   </g>
   <g id="patch_5">
    <path d="M 18 128.16 
L 129.6 128.16 
" style="fill: none; stroke: #000000; stroke-width: 0.8; stroke-linejoin: miter; stroke-linecap: square"/>
   </g>
   <g id="patch_6">
    <path d="M 18 17.28 
L 129.6 17.28 
" style="fill: none; stroke: #000000; stroke-width: 0.8; stroke-linejoin: miter; stroke-linecap: square"/>
   </g>
  </g>
  <g id="patch_7">
   <path d="M 18.36 128.16 
L 129.24 128.16 
L 129.24 17.28 
L 18.36 17.28 
z
" style="fill: #ffffff"/>
  </g>
  <g id="axes_2">
   <g id="patch_8">
    <path d="M 88.026216 78.967387 
Q 78.386797 77.997913 68.747378 77.028439 
" clip-path="url(#p32fecf8f55)" style="fill: none; opacity: 0.67184; stroke: #c5c5c5; stroke-width: 0.343681; stroke-linecap: round"/>
   </g>
   <g id="Path3DCollection_1">
    <path d="M 82.036969 75.69158 
C 82.130732 75.69158 82.220668 75.654328 82.286969 75.588027 
C 82.35327 75.521726 82.390522 75.431791 82.390522 75.338027 
C 82.390522 75.244264 82.35327 75.154328 82.286969 75.088027 
C 82.220668 75.021726 82.130732 74.984474 82.036969 74.984474 
C 81.943205 74.984474 81.85327 75.021726 81.786969 75.088027 
C 81.720668 75.154328 81.683415 75.244264 81.683415 75.338027 
C 81.683415 75.431791 81.720668 75.521726 81.786969 75.588027 
C 81.85327 75.654328 81.943205 75.69158 82.036969 75.69158 
z
" clip-path="url(#p32fecf8f55)" style="fill: #fff5f0; stroke: #ff0000; stroke-width: 2"/>
    <path d="M 63.769997 76.881398 
C 63.863761 76.881398 63.953697 76.844145 64.019997 76.777844 
C 64.086298 76.711543 64.123551 76.621608 64.123551 76.527844 
C 64.123551 76.434081 64.086298 76.344145 64.019997 76.277844 
C 63.953697 76.211543 63.863761 76.174291 63.769997 76.174291 
C 63.676234 76.174291 63.586298 76.211543 63.519997 76.277844 
C 63.453697 76.344145 63.416444 76.434081 63.416444 76.527844 
C 63.416444 76.621608 63.453697 76.711543 63.519997 76.777844 
C 63.586298 76.844145 63.676234 76.881398 63.769997 76.881398 
z
" clip-path="url(#p32fecf8f55)" style="fill: #fff5f0; stroke: #00ff00; stroke-width: 2"/>
    <path d="M 97.976735 80.321703 
C 98.070498 80.321703 98.160434 80.28445 98.226735 80.21815 
C 98.293036 80.151849 98.330288 80.061913 98.330288 79.96815 
C 98.330288 79.874386 98.293036 79.78445 98.226735 79.71815 
C 98.160434 79.651849 98.070498 79.614596 97.976735 79.614596 
C 97.882972 79.614596 97.793036 79.651849 97.726735 79.71815 
C 97.660434 79.78445 97.623182 79.874386 97.623182 79.96815 
C 97.623182 80.061913 97.660434 80.151849 97.726735 80.21815 
C 97.793036 80.28445 97.882972 80.321703 97.976735 80.321703 
z
" clip-path="url(#p32fecf8f55)" style="fill: #fff5f0; stroke: #00ff00; stroke-width: 2"/>
    <path d="M 49.391636 86.719652 
C 50.32927 86.719652 51.228628 86.347126 51.891636 85.684118 
C 52.554643 85.02111 52.927169 84.121753 52.927169 83.184118 
C 52.927169 82.246483 52.554643 81.347126 51.891636 80.684118 
C 51.228628 80.02111 50.32927 79.648584 49.391636 79.648584 
C 48.454001 79.648584 47.554643 80.02111 46.891636 80.684118 
C 46.228628 81.347126 45.856102 82.246483 45.856102 83.184118 
C 45.856102 84.121753 46.228628 85.02111 46.891636 85.684118 
C 47.554643 86.347126 48.454001 86.719652 49.391636 86.719652 
z
" clip-path="url(#p32fecf8f55)" style="fill: #67000d; stroke: #ff0000; stroke-width: 2"/>
    <path d="M 105.914786 92.536045 
C 106.852421 92.536045 107.751778 92.163519 108.414786 91.500511 
C 109.077794 90.837503 109.45032 89.938145 109.45032 89.000511 
C 109.45032 88.062876 109.077794 87.163519 108.414786 86.500511 
C 107.751778 85.837503 106.852421 85.464977 105.914786 85.464977 
C 104.977152 85.464977 104.077794 85.837503 103.414786 86.500511 
C 102.751778 87.163519 102.379252 88.062876 102.379252 89.000511 
C 102.379252 89.938145 102.751778 90.837503 103.414786 91.500511 
C 104.077794 92.163519 104.977152 92.536045 105.914786 92.536045 
z
" clip-path="url(#p32fecf8f55)" style="fill: #67000d; stroke: #00ff00; stroke-width: 2"/>
    <path d="M 44.273099 96.726344 
C 45.210734 96.726344 46.110092 96.353818 46.773099 95.69081 
C 47.436107 95.027802 47.808633 94.128444 47.808633 93.19081 
C 47.808633 92.253175 47.436107 91.353818 46.773099 90.69081 
C 46.110092 90.027802 45.210734 89.655276 44.273099 89.655276 
C 43.335465 89.655276 42.436107 90.027802 41.773099 90.69081 
C 41.110092 91.353818 40.737566 92.253175 40.737566 93.19081 
C 40.737566 94.128444 41.110092 95.027802 41.773099 95.69081 
C 42.436107 96.353818 43.335465 96.726344 44.273099 96.726344 
z
" clip-path="url(#p32fecf8f55)" style="fill: #67000d; stroke: #00ff00; stroke-width: 2"/>
    <path d="M 102.317046 99.69325 
C 102.410809 99.69325 102.500745 99.655997 102.567046 99.589697 
C 102.633347 99.523396 102.670599 99.43346 102.670599 99.339697 
C 102.670599 99.245933 102.633347 99.155997 102.567046 99.089697 
C 102.500745 99.023396 102.410809 98.986143 102.317046 98.986143 
C 102.223282 98.986143 102.133347 99.023396 102.067046 99.089697 
C 102.000745 99.155997 101.963492 99.245933 101.963492 99.339697 
C 101.963492 99.43346 102.000745 99.523396 102.067046 99.589697 
C 102.133347 99.655997 102.223282 99.69325 102.317046 99.69325 
z
" clip-path="url(#p32fecf8f55)" style="fill: #fff5f0; stroke: #00ff00; stroke-width: 2"/>
    <path d="M 51.095278 103.271766 
C 51.189042 103.271766 51.278977 103.234513 51.345278 103.168212 
C 51.411579 103.101911 51.448832 103.011976 51.448832 102.918212 
C 51.448832 102.824449 51.411579 102.734513 51.345278 102.668212 
C 51.278977 102.601911 51.189042 102.564659 51.095278 102.564659 
C 51.001515 102.564659 50.911579 102.601911 50.845278 102.668212 
C 50.778977 102.734513 50.741725 102.824449 50.741725 102.918212 
C 50.741725 103.011976 50.778977 103.101911 50.845278 103.168212 
C 50.911579 103.234513 51.001515 103.271766 51.095278 103.271766 
z
" clip-path="url(#p32fecf8f55)" style="fill: #fff5f0; stroke: #00ff00; stroke-width: 2"/>
    <path d="M 87.764928 107.251234 
C 87.858692 107.251234 87.948627 107.213982 88.014928 107.147681 
C 88.081229 107.08138 88.118482 106.991444 88.118482 106.897681 
C 88.118482 106.803918 88.081229 106.713982 88.014928 106.647681 
C 87.948627 106.58138 87.858692 106.544128 87.764928 106.544128 
C 87.671165 106.544128 87.581229 106.58138 87.514928 106.647681 
C 87.448627 106.713982 87.411375 106.803918 87.411375 106.897681 
C 87.411375 106.991444 87.448627 107.08138 87.514928 107.147681 
C 87.581229 107.213982 87.671165 107.251234 87.764928 107.251234 
z
" clip-path="url(#p32fecf8f55)" style="fill: #fff5f0; stroke: #00ff00; stroke-width: 2"/>
    <path d="M 67.86666 108.66563 
C 67.960423 108.66563 68.050359 108.628378 68.11666 108.562077 
C 68.182961 108.495776 68.220213 108.40584 68.220213 108.312077 
C 68.220213 108.218313 68.182961 108.128378 68.11666 108.062077 
C 68.050359 107.995776 67.960423 107.958523 67.86666 107.958523 
C 67.772897 107.958523 67.682961 107.995776 67.61666 108.062077 
C 67.550359 108.128378 67.513107 108.218313 67.513107 108.312077 
C 67.513107 108.40584 67.550359 108.495776 67.61666 108.562077 
C 67.682961 108.628378 67.772897 108.66563 67.86666 108.66563 
z
" clip-path="url(#p32fecf8f55)" style="fill: #fff5f0; stroke: #00ff00; stroke-width: 2"/>
   </g>
   <g id="patch_9">
    <path d="M 73.720517 77.528607 
Q 83.359936 78.498081 92.999354 79.467555 
" clip-path="url(#p32fecf8f55)" style="fill: none; opacity: 0.67184; stroke: #c5c5c5; stroke-width: 0.343681; stroke-linecap: round"/>
   </g>
   <g id="Path3DCollection_2">
    <path d="M 82.099153 66.1499 
C 82.192916 66.1499 82.282852 66.112647 82.349153 66.046346 
C 82.415453 65.980045 82.452706 65.89011 82.452706 65.796346 
C 82.452706 65.702583 82.415453 65.612647 82.349153 65.546346 
C 82.282852 65.480045 82.192916 65.442793 82.099153 65.442793 
C 82.005389 65.442793 81.915453 65.480045 81.849153 65.546346 
C 81.782852 65.612647 81.745599 65.702583 81.745599 65.796346 
C 81.745599 65.89011 81.782852 65.980045 81.849153 66.046346 
C 81.915453 66.112647 82.005389 66.1499 82.099153 66.1499 
z
" clip-path="url(#p32fecf8f55)" style="fill: #f7fbff; stroke: #ff0000; stroke-width: 2"/>
    <path d="M 63.663248 70.499992 
C 64.600883 70.499992 65.500241 70.127465 66.163248 69.464458 
C 66.826256 68.80145 67.198782 67.902092 67.198782 66.964458 
C 67.198782 66.026823 66.826256 65.127465 66.163248 64.464458 
C 65.500241 63.80145 64.600883 63.428924 63.663248 63.428924 
C 62.725614 63.428924 61.826256 63.80145 61.163248 64.464458 
C 60.500241 65.127465 60.127715 66.026823 60.127715 66.964458 
C 60.127715 67.902092 60.500241 68.80145 61.163248 69.464458 
C 61.826256 70.127465 62.725614 70.499992 63.663248 70.499992 
z
" clip-path="url(#p32fecf8f55)" style="fill: #08306b; stroke: #00ff00; stroke-width: 2"/>
    <path d="M 98.188804 70.695968 
C 98.282568 70.695968 98.372504 70.658715 98.438804 70.592415 
C 98.505105 70.526114 98.542358 70.436178 98.542358 70.342415 
C 98.542358 70.248651 98.505105 70.158715 98.438804 70.092415 
C 98.372504 70.026114 98.282568 69.988861 98.188804 69.988861 
C 98.095041 69.988861 98.005105 70.026114 97.938804 70.092415 
C 97.872504 70.158715 97.835251 70.248651 97.835251 70.342415 
C 97.835251 70.436178 97.872504 70.526114 97.938804 70.592415 
C 98.005105 70.658715 98.095041 70.695968 98.188804 70.695968 
z
" clip-path="url(#p32fecf8f55)" style="fill: #f7fbff; stroke: #00ff00; stroke-width: 2"/>
    <path d="M 49.14716 73.854208 
C 49.240924 73.854208 49.330859 73.816955 49.39716 73.750654 
C 49.463461 73.684353 49.500714 73.594418 49.500714 73.500654 
C 49.500714 73.406891 49.463461 73.316955 49.39716 73.250654 
C 49.330859 73.184353 49.240924 73.147101 49.14716 73.147101 
C 49.053397 73.147101 48.963461 73.184353 48.89716 73.250654 
C 48.830859 73.316955 48.793607 73.406891 48.793607 73.500654 
C 48.793607 73.594418 48.830859 73.684353 48.89716 73.750654 
C 48.963461 73.816955 49.053397 73.854208 49.14716 73.854208 
z
" clip-path="url(#p32fecf8f55)" style="fill: #f7fbff; stroke: #ff0000; stroke-width: 2"/>
    <path d="M 106.208444 82.749533 
C 107.146079 82.749533 108.045437 82.377007 108.708444 81.713999 
C 109.371452 81.050991 109.743978 80.151634 109.743978 79.213999 
C 109.743978 78.276364 109.371452 77.377007 108.708444 76.713999 
C 108.045437 76.050991 107.146079 75.678465 106.208444 75.678465 
C 105.27081 75.678465 104.371452 76.050991 103.708444 76.713999 
C 103.045437 77.377007 102.67291 78.276364 102.67291 79.213999 
C 102.67291 80.151634 103.045437 81.050991 103.708444 81.713999 
C 104.371452 82.377007 105.27081 82.749533 106.208444 82.749533 
z
" clip-path="url(#p32fecf8f55)" style="fill: #08306b; stroke: #00ff00; stroke-width: 2"/>
    <path d="M 43.972059 86.866679 
C 44.909693 86.866679 45.809051 86.494153 46.472059 85.831145 
C 47.135066 85.168137 47.507593 84.26878 47.507593 83.331145 
C 47.507593 82.393511 47.135066 81.494153 46.472059 80.831145 
C 45.809051 80.168137 44.909693 79.795611 43.972059 79.795611 
C 43.034424 79.795611 42.135066 80.168137 41.472059 80.831145 
C 40.809051 81.494153 40.436525 82.393511 40.436525 83.331145 
C 40.436525 84.26878 40.809051 85.168137 41.472059 85.831145 
C 42.135066 86.494153 43.034424 86.866679 43.972059 86.866679 
z
" clip-path="url(#p32fecf8f55)" style="fill: #08306b; stroke: #00ff00; stroke-width: 2"/>
    <path d="M 102.583634 89.727887 
C 102.677397 89.727887 102.767333 89.690635 102.833634 89.624334 
C 102.899935 89.558033 102.937187 89.468098 102.937187 89.374334 
C 102.937187 89.280571 102.899935 89.190635 102.833634 89.124334 
C 102.767333 89.058033 102.677397 89.020781 102.583634 89.020781 
C 102.48987 89.020781 102.399935 89.058033 102.333634 89.124334 
C 102.267333 89.190635 102.23008 89.280571 102.23008 89.374334 
C 102.23008 89.468098 102.267333 89.558033 102.333634 89.624334 
C 102.399935 89.690635 102.48987 89.727887 102.583634 89.727887 
z
" clip-path="url(#p32fecf8f55)" style="fill: #f7fbff; stroke: #00ff00; stroke-width: 2"/>
    <path d="M 50.854164 93.245791 
C 50.947928 93.245791 51.037863 93.208539 51.104164 93.142238 
C 51.170465 93.075937 51.207717 92.986001 51.207717 92.892238 
C 51.207717 92.798475 51.170465 92.708539 51.104164 92.642238 
C 51.037863 92.575937 50.947928 92.538685 50.854164 92.538685 
C 50.760401 92.538685 50.670465 92.575937 50.604164 92.642238 
C 50.537863 92.708539 50.500611 92.798475 50.500611 92.892238 
C 50.500611 92.986001 50.537863 93.075937 50.604164 93.142238 
C 50.670465 93.208539 50.760401 93.245791 50.854164 93.245791 
z
" clip-path="url(#p32fecf8f55)" style="fill: #f7fbff; stroke: #00ff00; stroke-width: 2"/>
    <path d="M 87.890443 97.158637 
C 87.984206 97.158637 88.074142 97.121385 88.140443 97.055084 
C 88.206744 96.988783 88.243996 96.898847 88.243996 96.805084 
C 88.243996 96.71132 88.206744 96.621385 88.140443 96.555084 
C 88.074142 96.488783 87.984206 96.451531 87.890443 96.451531 
C 87.796679 96.451531 87.706744 96.488783 87.640443 96.555084 
C 87.574142 96.621385 87.536889 96.71132 87.536889 96.805084 
C 87.536889 96.898847 87.574142 96.988783 87.640443 97.055084 
C 87.706744 97.121385 87.796679 97.158637 87.890443 97.158637 
z
" clip-path="url(#p32fecf8f55)" style="fill: #f7fbff; stroke: #00ff00; stroke-width: 2"/>
    <path d="M 67.791556 98.549552 
C 67.88532 98.549552 67.975256 98.512299 68.041556 98.445998 
C 68.107857 98.379698 68.14511 98.289762 68.14511 98.195998 
C 68.14511 98.102235 68.107857 98.012299 68.041556 97.945998 
C 67.975256 97.879698 67.88532 97.842445 67.791556 97.842445 
C 67.697793 97.842445 67.607857 97.879698 67.541556 97.945998 
C 67.475256 98.012299 67.438003 98.102235 67.438003 98.195998 
C 67.438003 98.289762 67.475256 98.379698 67.541556 98.445998 
C 67.607857 98.512299 67.697793 98.549552 67.791556 98.549552 
z
" clip-path="url(#p32fecf8f55)" style="fill: #f7fbff; stroke: #00ff00; stroke-width: 2"/>
   </g>
   <g id="patch_10">
    <path d="M 88.238263 69.36886 
Q 78.439156 68.410122 68.640049 67.451384 
" clip-path="url(#p32fecf8f55)" style="fill: none; opacity: 0.646168; stroke: #d0d0d0; stroke-width: 0.292335; stroke-linecap: round"/>
   </g>
   <g id="Path3DCollection_3">
    <path d="M 82.162495 56.430477 
C 82.256258 56.430477 82.346194 56.393224 82.412495 56.326923 
C 82.478796 56.260623 82.516048 56.170687 82.516048 56.076923 
C 82.516048 55.98316 82.478796 55.893224 82.412495 55.826923 
C 82.346194 55.760623 82.256258 55.72337 82.162495 55.72337 
C 82.068731 55.72337 81.978796 55.760623 81.912495 55.826923 
C 81.846194 55.893224 81.808941 55.98316 81.808941 56.076923 
C 81.808941 56.170687 81.846194 56.260623 81.912495 56.326923 
C 81.978796 56.393224 82.068731 56.430477 82.162495 56.430477 
z
" clip-path="url(#p32fecf8f55)" style="fill: #f7fcf5; stroke: #ff0000; stroke-width: 2"/>
    <path d="M 63.554504 57.575862 
C 63.648268 57.575862 63.738203 57.538609 63.804504 57.472308 
C 63.870805 57.406008 63.908057 57.316072 63.908057 57.222308 
C 63.908057 57.128545 63.870805 57.038609 63.804504 56.972308 
C 63.738203 56.906008 63.648268 56.868755 63.554504 56.868755 
C 63.460741 56.868755 63.370805 56.906008 63.304504 56.972308 
C 63.238203 57.038609 63.200951 57.128545 63.200951 57.222308 
C 63.200951 57.316072 63.238203 57.406008 63.304504 57.472308 
C 63.370805 57.538609 63.460741 57.575862 63.554504 57.575862 
z
" clip-path="url(#p32fecf8f55)" style="fill: #f7fcf5; stroke: #00ff00; stroke-width: 2"/>
    <path d="M 98.404877 60.88851 
C 98.498641 60.88851 98.588577 60.851257 98.654877 60.784956 
C 98.721178 60.718655 98.758431 60.62872 98.758431 60.534956 
C 98.758431 60.441193 98.721178 60.351257 98.654877 60.284956 
C 98.588577 60.218655 98.498641 60.181403 98.404877 60.181403 
C 98.311114 60.181403 98.221178 60.218655 98.154877 60.284956 
C 98.088577 60.351257 98.051324 60.441193 98.051324 60.534956 
C 98.051324 60.62872 98.088577 60.718655 98.154877 60.784956 
C 98.221178 60.851257 98.311114 60.88851 98.404877 60.88851 
z
" clip-path="url(#p32fecf8f55)" style="fill: #f7fcf5; stroke: #00ff00; stroke-width: 2"/>
    <path d="M 48.898027 63.986242 
C 48.99179 63.986242 49.081726 63.948989 49.148027 63.882688 
C 49.214328 63.816388 49.25158 63.726452 49.25158 63.632688 
C 49.25158 63.538925 49.214328 63.448989 49.148027 63.382688 
C 49.081726 63.316388 48.99179 63.279135 48.898027 63.279135 
C 48.804263 63.279135 48.714328 63.316388 48.648027 63.382688 
C 48.581726 63.448989 48.544473 63.538925 48.544473 63.632688 
C 48.544473 63.726452 48.581726 63.816388 48.648027 63.882688 
C 48.714328 63.948989 48.804263 63.986242 48.898027 63.986242 
z
" clip-path="url(#p32fecf8f55)" style="fill: #f7fcf5; stroke: #ff0000; stroke-width: 2"/>
    <path d="M 106.507791 72.773468 
C 107.445425 72.773468 108.344783 72.400941 109.007791 71.737934 
C 109.670798 71.074926 110.043324 70.175568 110.043324 69.237934 
C 110.043324 68.300299 109.670798 67.400941 109.007791 66.737934 
C 108.344783 66.074926 107.445425 65.7024 106.507791 65.7024 
C 105.570156 65.7024 104.670798 66.074926 104.007791 66.737934 
C 103.344783 67.400941 102.972257 68.300299 102.972257 69.237934 
C 102.972257 70.175568 103.344783 71.074926 104.007791 71.737934 
C 104.670798 72.400941 105.570156 72.773468 106.507791 72.773468 
z
" clip-path="url(#p32fecf8f55)" style="fill: #00441b; stroke: #00ff00; stroke-width: 2"/>
    <path d="M 43.665119 76.813801 
C 44.602753 76.813801 45.502111 76.441275 46.165119 75.778268 
C 46.828126 75.11526 47.200653 74.215902 47.200653 73.278268 
C 47.200653 72.340633 46.828126 71.441275 46.165119 70.778268 
C 45.502111 70.11526 44.602753 69.742734 43.665119 69.742734 
C 42.727484 69.742734 41.828126 70.11526 41.165119 70.778268 
C 40.502111 71.441275 40.129585 72.340633 40.129585 73.278268 
C 40.129585 74.215902 40.502111 75.11526 41.165119 75.778268 
C 41.828126 76.441275 42.727484 76.813801 43.665119 76.813801 
z
" clip-path="url(#p32fecf8f55)" style="fill: #00441b; stroke: #00ff00; stroke-width: 2"/>
    <path d="M 102.855535 79.563913 
C 102.949298 79.563913 103.039234 79.52666 103.105535 79.460359 
C 103.171836 79.394059 103.209088 79.304123 103.209088 79.210359 
C 103.209088 79.116596 103.171836 79.02666 103.105535 78.960359 
C 103.039234 78.894059 102.949298 78.856806 102.855535 78.856806 
C 102.761771 78.856806 102.671836 78.894059 102.605535 78.960359 
C 102.539234 79.02666 102.501981 79.116596 102.501981 79.210359 
C 102.501981 79.304123 102.539234 79.394059 102.605535 79.460359 
C 102.671836 79.52666 102.761771 79.563913 102.855535 79.563913 
z
" clip-path="url(#p32fecf8f55)" style="fill: #f7fcf5; stroke: #00ff00; stroke-width: 2"/>
    <path d="M 50.608198 83.018047 
C 50.701961 83.018047 50.791897 82.980795 50.858198 82.914494 
C 50.924498 82.848193 50.961751 82.758257 50.961751 82.664494 
C 50.961751 82.570731 50.924498 82.480795 50.858198 82.414494 
C 50.791897 82.348193 50.701961 82.310941 50.608198 82.310941 
C 50.514434 82.310941 50.424498 82.348193 50.358198 82.414494 
C 50.291897 82.480795 50.254644 82.570731 50.254644 82.664494 
C 50.254644 82.758257 50.291897 82.848193 50.358198 82.914494 
C 50.424498 82.980795 50.514434 83.018047 50.608198 83.018047 
z
" clip-path="url(#p32fecf8f55)" style="fill: #f7fcf5; stroke: #00ff00; stroke-width: 2"/>
    <path d="M 88.018511 86.860746 
C 88.112274 86.860746 88.20221 86.823494 88.268511 86.757193 
C 88.334812 86.690892 88.372064 86.600956 88.372064 86.507193 
C 88.372064 86.41343 88.334812 86.323494 88.268511 86.257193 
C 88.20221 86.190892 88.112274 86.15364 88.018511 86.15364 
C 87.924747 86.15364 87.834812 86.190892 87.768511 86.257193 
C 87.70221 86.323494 87.664957 86.41343 87.664957 86.507193 
C 87.664957 86.600956 87.70221 86.690892 87.768511 86.757193 
C 87.834812 86.823494 87.924747 86.860746 88.018511 86.860746 
z
" clip-path="url(#p32fecf8f55)" style="fill: #f7fcf5; stroke: #00ff00; stroke-width: 2"/>
    <path d="M 67.71492 88.226924 
C 67.808683 88.226924 67.898619 88.189671 67.96492 88.12337 
C 68.03122 88.057069 68.068473 87.967134 68.068473 87.87337 
C 68.068473 87.779607 68.03122 87.689671 67.96492 87.62337 
C 67.898619 87.557069 67.808683 87.519817 67.71492 87.519817 
C 67.621156 87.519817 67.53122 87.557069 67.46492 87.62337 
C 67.398619 87.689671 67.361366 87.779607 67.361366 87.87337 
C 67.361366 87.967134 67.398619 88.057069 67.46492 88.12337 
C 67.53122 88.189671 67.621156 88.226924 67.71492 88.226924 
z
" clip-path="url(#p32fecf8f55)" style="fill: #f7fcf5; stroke: #00ff00; stroke-width: 2"/>
   </g>
   <g id="patch_11">
    <path d="M 73.61379 67.938012 
Q 83.412897 68.89675 93.212004 69.855488 
" clip-path="url(#p32fecf8f55)" style="fill: none; opacity: 0.646168; stroke: #d0d0d0; stroke-width: 0.292335; stroke-linecap: round"/>
   </g>
   <g id="Path3DCollection_4">
    <path d="M 82.227028 46.528299 
C 82.320791 46.528299 82.410727 46.491047 82.477028 46.424746 
C 82.543329 46.358445 82.580581 46.268509 82.580581 46.174746 
C 82.580581 46.080982 82.543329 45.991047 82.477028 45.924746 
C 82.410727 45.858445 82.320791 45.821192 82.227028 45.821192 
C 82.133265 45.821192 82.043329 45.858445 81.977028 45.924746 
C 81.910727 45.991047 81.873475 46.080982 81.873475 46.174746 
C 81.873475 46.268509 81.910727 46.358445 81.977028 46.424746 
C 82.043329 46.491047 82.133265 46.528299 82.227028 46.528299 
z
" clip-path="url(#p32fecf8f55)" style="fill: #fff5eb; stroke: #ff0000; stroke-width: 2"/>
    <path d="M 63.443708 50.831871 
C 64.381342 50.831871 65.2807 50.459345 65.943708 49.796337 
C 66.606716 49.133329 66.979242 48.233971 66.979242 47.296337 
C 66.979242 46.358702 66.606716 45.459345 65.943708 44.796337 
C 65.2807 44.133329 64.381342 43.760803 63.443708 43.760803 
C 62.506073 43.760803 61.606716 44.133329 60.943708 44.796337 
C 60.2807 45.459345 59.908174 46.358702 59.908174 47.296337 
C 59.908174 48.233971 60.2807 49.133329 60.943708 49.796337 
C 61.606716 50.459345 62.506073 50.831871 63.443708 50.831871 
z
" clip-path="url(#p32fecf8f55)" style="fill: #7f2704; stroke: #00ff00; stroke-width: 2"/>
    <path d="M 98.625069 50.894133 
C 98.718832 50.894133 98.808768 50.85688 98.875069 50.790579 
C 98.941369 50.724279 98.978622 50.634343 98.978622 50.540579 
C 98.978622 50.446816 98.941369 50.35688 98.875069 50.290579 
C 98.808768 50.224279 98.718832 50.187026 98.625069 50.187026 
C 98.531305 50.187026 98.441369 50.224279 98.375069 50.290579 
C 98.308768 50.35688 98.271515 50.446816 98.271515 50.540579 
C 98.271515 50.634343 98.308768 50.724279 98.375069 50.790579 
C 98.441369 50.85688 98.531305 50.894133 98.625069 50.894133 
z
" clip-path="url(#p32fecf8f55)" style="fill: #fff5eb; stroke: #00ff00; stroke-width: 2"/>
    <path d="M 48.644101 57.110431 
C 49.581736 57.110431 50.481093 56.737905 51.144101 56.074897 
C 51.807109 55.411889 52.179635 54.512532 52.179635 53.574897 
C 52.179635 52.637263 51.807109 51.737905 51.144101 51.074897 
C 50.481093 50.411889 49.581736 50.039363 48.644101 50.039363 
C 47.706466 50.039363 46.807109 50.411889 46.144101 51.074897 
C 45.481093 51.737905 45.108567 52.637263 45.108567 53.574897 
C 45.108567 54.512532 45.481093 55.411889 46.144101 56.074897 
C 46.807109 56.737905 47.706466 57.110431 48.644101 57.110431 
z
" clip-path="url(#p32fecf8f55)" style="fill: #7f2704; stroke: #ff0000; stroke-width: 2"/>
    <path d="M 106.812991 62.602288 
C 107.750626 62.602288 108.649984 62.229762 109.312991 61.566754 
C 109.975999 60.903746 110.348525 60.004389 110.348525 59.066754 
C 110.348525 58.129119 109.975999 57.229762 109.312991 56.566754 
C 108.649984 55.903746 107.750626 55.53122 106.812991 55.53122 
C 105.875357 55.53122 104.975999 55.903746 104.312991 56.566754 
C 103.649984 57.229762 103.277457 58.129119 103.277457 59.066754 
C 103.277457 60.004389 103.649984 60.903746 104.312991 61.566754 
C 104.975999 62.229762 105.875357 62.602288 106.812991 62.602288 
z
" clip-path="url(#p32fecf8f55)" style="fill: #7f2704; stroke: #00ff00; stroke-width: 2"/>
    <path d="M 43.352104 63.379995 
C 43.445868 63.379995 43.535804 63.342742 43.602104 63.276441 
C 43.668405 63.210141 43.705658 63.120205 43.705658 63.026441 
C 43.705658 62.932678 43.668405 62.842742 43.602104 62.776441 
C 43.535804 62.710141 43.445868 62.672888 43.352104 62.672888 
C 43.258341 62.672888 43.168405 62.710141 43.102104 62.776441 
C 43.035804 62.842742 42.998551 62.932678 42.998551 63.026441 
C 42.998551 63.120205 43.035804 63.210141 43.102104 63.276441 
C 43.168405 63.342742 43.258341 63.379995 43.352104 63.379995 
z
" clip-path="url(#p32fecf8f55)" style="fill: #fff5eb; stroke: #00ff00; stroke-width: 2"/>
    <path d="M 103.132909 69.195328 
C 103.226673 69.195328 103.316609 69.158076 103.382909 69.091775 
C 103.44921 69.025474 103.486463 68.935538 103.486463 68.841775 
C 103.486463 68.748011 103.44921 68.658076 103.382909 68.591775 
C 103.316609 68.525474 103.226673 68.488222 103.132909 68.488222 
C 103.039146 68.488222 102.94921 68.525474 102.882909 68.591775 
C 102.816609 68.658076 102.779356 68.748011 102.779356 68.841775 
C 102.779356 68.935538 102.816609 69.025474 102.882909 69.091775 
C 102.94921 69.158076 103.039146 69.195328 103.132909 69.195328 
z
" clip-path="url(#p32fecf8f55)" style="fill: #fff5eb; stroke: #00ff00; stroke-width: 2"/>
    <path d="M 50.357231 72.582381 
C 50.450994 72.582381 50.54093 72.545128 50.607231 72.478827 
C 50.673532 72.412527 50.710784 72.322591 50.710784 72.228827 
C 50.710784 72.135064 50.673532 72.045128 50.607231 71.978827 
C 50.54093 71.912527 50.450994 71.875274 50.357231 71.875274 
C 50.263468 71.875274 50.173532 71.912527 50.107231 71.978827 
C 50.04093 72.045128 50.003678 72.135064 50.003678 72.228827 
C 50.003678 72.322591 50.04093 72.412527 50.107231 72.478827 
C 50.173532 72.545128 50.263468 72.582381 50.357231 72.582381 
z
" clip-path="url(#p32fecf8f55)" style="fill: #fff5eb; stroke: #00ff00; stroke-width: 2"/>
    <path d="M 88.14921 76.351233 
C 88.242974 76.351233 88.33291 76.313981 88.39921 76.24768 
C 88.465511 76.181379 88.502764 76.091443 88.502764 75.99768 
C 88.502764 75.903916 88.465511 75.813981 88.39921 75.74768 
C 88.33291 75.681379 88.242974 75.644127 88.14921 75.644127 
C 88.055447 75.644127 87.965511 75.681379 87.89921 75.74768 
C 87.83291 75.813981 87.795657 75.903916 87.795657 75.99768 
C 87.795657 76.091443 87.83291 76.181379 87.89921 76.24768 
C 87.965511 76.313981 88.055447 76.351233 88.14921 76.351233 
z
" clip-path="url(#p32fecf8f55)" style="fill: #fff5eb; stroke: #00ff00; stroke-width: 2"/>
    <path d="M 67.636702 77.691355 
C 67.730465 77.691355 67.820401 77.654102 67.886702 77.587801 
C 67.953002 77.521501 67.990255 77.431565 67.990255 77.337801 
C 67.990255 77.244038 67.953002 77.154102 67.886702 77.087801 
C 67.820401 77.021501 67.730465 76.984248 67.636702 76.984248 
C 67.542938 76.984248 67.453002 77.021501 67.386702 77.087801 
C 67.320401 77.154102 67.283148 77.244038 67.283148 77.337801 
C 67.283148 77.431565 67.320401 77.521501 67.386702 77.587801 
C 67.453002 77.654102 67.542938 77.691355 67.636702 77.691355 
z
" clip-path="url(#p32fecf8f55)" style="fill: #fff5eb; stroke: #00ff00; stroke-width: 2"/>
   </g>
   <g id="patch_12">
    <path d="M 99.312018 81.487509 
Q 98.644376 80.727829 97.976735 79.96815 
" clip-path="url(#p32fecf8f55)" style="fill: none; opacity: 0.818182; stroke: #707070; stroke-width: 0.636364; stroke-linecap: round"/>
   </g>
   <g id="Path3DCollection_5">
    <path d="M 82.292786 36.438163 
C 82.38655 36.438163 82.476485 36.400911 82.542786 36.33461 
C 82.609087 36.268309 82.64634 36.178373 82.64634 36.08461 
C 82.64634 35.990846 82.609087 35.900911 82.542786 35.83461 
C 82.476485 35.768309 82.38655 35.731056 82.292786 35.731056 
C 82.199023 35.731056 82.109087 35.768309 82.042786 35.83461 
C 81.976485 35.900911 81.939233 35.990846 81.939233 36.08461 
C 81.939233 36.178373 81.976485 36.268309 82.042786 36.33461 
C 82.109087 36.400911 82.199023 36.438163 82.292786 36.438163 
z
" clip-path="url(#p32fecf8f55)" style="fill: #fcfbfd; stroke: #ff0000; stroke-width: 2"/>
    <path d="M 63.330801 37.534844 
C 63.424565 37.534844 63.5145 37.497592 63.580801 37.431291 
C 63.647102 37.36499 63.684355 37.275054 63.684355 37.181291 
C 63.684355 37.087527 63.647102 36.997592 63.580801 36.931291 
C 63.5145 36.86499 63.424565 36.827737 63.330801 36.827737 
C 63.237038 36.827737 63.147102 36.86499 63.080801 36.931291 
C 63.0145 36.997592 62.977248 37.087527 62.977248 37.181291 
C 62.977248 37.275054 63.0145 37.36499 63.080801 37.431291 
C 63.147102 37.497592 63.237038 37.534844 63.330801 37.534844 
z
" clip-path="url(#p32fecf8f55)" style="fill: #fcfbfd; stroke: #00ff00; stroke-width: 2"/>
    <path d="M 98.849497 40.707443 
C 98.94326 40.707443 99.033196 40.67019 99.099497 40.603889 
C 99.165797 40.537588 99.20305 40.447653 99.20305 40.353889 
C 99.20305 40.260126 99.165797 40.17019 99.099497 40.103889 
C 99.033196 40.037588 98.94326 40.000336 98.849497 40.000336 
C 98.755733 40.000336 98.665797 40.037588 98.599497 40.103889 
C 98.533196 40.17019 98.495943 40.260126 98.495943 40.353889 
C 98.495943 40.447653 98.533196 40.537588 98.599497 40.603889 
C 98.665797 40.67019 98.755733 40.707443 98.849497 40.707443 
z
" clip-path="url(#p32fecf8f55)" style="fill: #fcfbfd; stroke: #00ff00; stroke-width: 2"/>
    <path d="M 48.385243 46.857284 
C 49.322878 46.857284 50.222235 46.484757 50.885243 45.82175 
C 51.548251 45.158742 51.920777 44.259384 51.920777 43.32175 
C 51.920777 42.384115 51.548251 41.484757 50.885243 40.82175 
C 50.222235 40.158742 49.322878 39.786216 48.385243 39.786216 
C 47.447608 39.786216 46.548251 40.158742 45.885243 40.82175 
C 45.222235 41.484757 44.849709 42.384115 44.849709 43.32175 
C 44.849709 44.259384 45.222235 45.158742 45.885243 45.82175 
C 46.548251 46.484757 47.447608 46.857284 48.385243 46.857284 
z
" clip-path="url(#p32fecf8f55)" style="fill: #3f007d; stroke: #ff0000; stroke-width: 2"/>
    <path d="M 107.12422 52.230213 
C 108.061855 52.230213 108.961213 51.857687 109.62422 51.194679 
C 110.287228 50.531671 110.659754 49.632314 110.659754 48.694679 
C 110.659754 47.757045 110.287228 46.857687 109.62422 46.194679 
C 108.961213 45.531671 108.061855 45.159145 107.12422 45.159145 
C 106.186586 45.159145 105.287228 45.531671 104.62422 46.194679 
C 103.961213 46.857687 103.588686 47.757045 103.588686 48.694679 
C 103.588686 49.632314 103.961213 50.531671 104.62422 51.194679 
C 105.287228 51.857687 106.186586 52.230213 107.12422 52.230213 
z
" clip-path="url(#p32fecf8f55)" style="fill: #3f007d; stroke: #00ff00; stroke-width: 2"/>
    <path d="M 43.032833 56.105236 
C 43.970468 56.105236 44.869826 55.732709 45.532833 55.069702 
C 46.195841 54.406694 46.568367 53.507336 46.568367 52.569702 
C 46.568367 51.632067 46.195841 50.732709 45.532833 50.069702 
C 44.869826 49.406694 43.970468 49.034168 43.032833 49.034168 
C 42.095199 49.034168 41.195841 49.406694 40.532833 50.069702 
C 39.869826 50.732709 39.497299 51.632067 39.497299 52.569702 
C 39.497299 53.507336 39.869826 54.406694 40.532833 55.069702 
C 41.195841 55.732709 42.095199 56.105236 43.032833 56.105236 
z
" clip-path="url(#p32fecf8f55)" style="fill: #3f007d; stroke: #00ff00; stroke-width: 2"/>
    <path d="M 103.415925 58.615893 
C 103.509688 58.615893 103.599624 58.57864 103.665925 58.51234 
C 103.732225 58.446039 103.769478 58.356103 103.769478 58.26234 
C 103.769478 58.168576 103.732225 58.07864 103.665925 58.01234 
C 103.599624 57.946039 103.509688 57.908786 103.415925 57.908786 
C 103.322161 57.908786 103.232225 57.946039 103.165925 58.01234 
C 103.099624 58.07864 103.062371 58.168576 103.062371 58.26234 
C 103.062371 58.356103 103.099624 58.446039 103.165925 58.51234 
C 103.232225 58.57864 103.322161 58.615893 103.415925 58.615893 
z
" clip-path="url(#p32fecf8f55)" style="fill: #fcfbfd; stroke: #00ff00; stroke-width: 2"/>
    <path d="M 50.10111 61.932386 
C 50.194873 61.932386 50.284809 61.895134 50.35111 61.828833 
C 50.417411 61.762532 50.454663 61.672596 50.454663 61.578833 
C 50.454663 61.485069 50.417411 61.395134 50.35111 61.328833 
C 50.284809 61.262532 50.194873 61.225279 50.10111 61.225279 
C 50.007347 61.225279 49.917411 61.262532 49.85111 61.328833 
C 49.784809 61.395134 49.747557 61.485069 49.747557 61.578833 
C 49.747557 61.672596 49.784809 61.762532 49.85111 61.828833 
C 49.917411 61.895134 50.007347 61.932386 50.10111 61.932386 
z
" clip-path="url(#p32fecf8f55)" style="fill: #fcfbfd; stroke: #00ff00; stroke-width: 2"/>
    <path d="M 88.282624 65.623507 
C 88.376387 65.623507 88.466323 65.586254 88.532624 65.519954 
C 88.598925 65.453653 88.636177 65.363717 88.636177 65.269954 
C 88.636177 65.17619 88.598925 65.086254 88.532624 65.019954 
C 88.466323 64.953653 88.376387 64.9164 88.282624 64.9164 
C 88.18886 64.9164 88.098925 64.953653 88.032624 65.019954 
C 87.966323 65.086254 87.92907 65.17619 87.92907 65.269954 
C 87.92907 65.363717 87.966323 65.453653 88.032624 65.519954 
C 88.098925 65.586254 88.18886 65.623507 88.282624 65.623507 
z
" clip-path="url(#p32fecf8f55)" style="fill: #fcfbfd; stroke: #00ff00; stroke-width: 2"/>
    <path d="M 67.556853 66.936187 
C 67.650617 66.936187 67.740553 66.898935 67.806853 66.832634 
C 67.873154 66.766333 67.910407 66.676397 67.910407 66.582634 
C 67.910407 66.48887 67.873154 66.398935 67.806853 66.332634 
C 67.740553 66.266333 67.650617 66.229081 67.556853 66.229081 
C 67.46309 66.229081 67.373154 66.266333 67.306853 66.332634 
C 67.240553 66.398935 67.2033 66.48887 67.2033 66.582634 
C 67.2033 66.676397 67.240553 66.766333 67.306853 66.832634 
C 67.373154 66.898935 67.46309 66.936187 67.556853 66.936187 
z
" clip-path="url(#p32fecf8f55)" style="fill: #fcfbfd; stroke: #00ff00; stroke-width: 2"/>
   </g>
   <g id="patch_13">
    <path d="M 95.968726 87.977033 
Q 75.166245 85.836399 54.363763 83.695764 
" clip-path="url(#p32fecf8f55)" style="fill: none; opacity: 0.701774; stroke: #b4b4b4; stroke-width: 0.403548; stroke-linecap: round"/>
   </g>
   <g id="patch_14">
    <path d="M 104.579504 87.481151 
Q 105.247145 88.240831 105.914786 89.000511 
" clip-path="url(#p32fecf8f55)" style="fill: none; opacity: 0.818182; stroke: #707070; stroke-width: 0.636364; stroke-linecap: round"/>
   </g>
   <g id="patch_15">
    <path d="M 59.337695 84.207596 
Q 80.140177 86.34823 100.942659 88.488865 
" clip-path="url(#p32fecf8f55)" style="fill: none; opacity: 0.701774; stroke: #b4b4b4; stroke-width: 0.403548; stroke-linecap: round"/>
   </g>
   <g id="patch_16">
    <path d="M 99.502569 71.795743 
Q 98.845687 71.069079 98.188804 70.342415 
" clip-path="url(#p32fecf8f55)" style="fill: none; opacity: 0.904635; stroke: #3d3d3d; stroke-width: 0.809269; stroke-linecap: round"/>
   </g>
   <g id="patch_17">
    <path d="M 96.597863 76.446936 
Q 82.532708 72.397321 68.467553 68.347705 
" clip-path="url(#p32fecf8f55)" style="fill: none; opacity: 0.71836; stroke: #aaaaaa; stroke-width: 0.43672; stroke-linecap: round"/>
   </g>
   <g id="patch_18">
    <path d="M 104.89468 77.760671 
Q 105.551562 78.487335 106.208444 79.213999 
" clip-path="url(#p32fecf8f55)" style="fill: none; opacity: 0.904635; stroke: #3d3d3d; stroke-width: 0.809269; stroke-linecap: round"/>
   </g>
   <g id="patch_19">
    <path d="M 73.27383 69.73152 
Q 87.338985 73.781136 101.40414 77.830752 
" clip-path="url(#p32fecf8f55)" style="fill: none; opacity: 0.71836; stroke: #aaaaaa; stroke-width: 0.43672; stroke-linecap: round"/>
   </g>
   <g id="patch_20">
    <path d="M 95.940902 89.678519 
Q 72.599884 91.265202 49.258866 92.851886 
" clip-path="url(#p32fecf8f55)" style="fill: none; opacity: 0.764967; stroke: #8e8e8e; stroke-width: 0.529933; stroke-linecap: round"/>
   </g>
   <g id="patch_21">
    <path d="M 56.165922 83.026645 
Q 52.119865 86.484595 48.073808 89.942545 
" clip-path="url(#p32fecf8f55)" style="fill: none; opacity: 0.697339; stroke: #b8b8b8; stroke-width: 0.394678; stroke-linecap: round"/>
   </g>
   <g id="patch_22">
    <path d="M 44.836688 92.088999 
Q 44.554894 92.639904 44.273099 93.19081 
" clip-path="url(#p32fecf8f55)" style="fill: none; opacity: 0.685144; stroke: #bebebe; stroke-width: 0.370288; stroke-linecap: round"/>
   </g>
   <g id="patch_23">
    <path d="M 54.246983 92.512802 
Q 77.588001 90.926118 100.92902 89.339435 
" clip-path="url(#p32fecf8f55)" style="fill: none; opacity: 0.764967; stroke: #8e8e8e; stroke-width: 0.529933; stroke-linecap: round"/>
   </g>
   <g id="patch_24">
    <path d="M 51.877175 86.692009 
Q 55.923232 83.234059 59.969288 79.776109 
" clip-path="url(#p32fecf8f55)" style="fill: none; opacity: 0.697339; stroke: #b8b8b8; stroke-width: 0.394678; stroke-linecap: round"/>
   </g>
   <g id="patch_25">
    <path d="M 48.828047 84.285929 
Q 49.109841 83.735023 49.391636 83.184118 
" clip-path="url(#p32fecf8f55)" style="fill: none; opacity: 0.685144; stroke: #bebebe; stroke-width: 0.370288; stroke-linecap: round"/>
   </g>
   <g id="patch_26">
    <path d="M 54.240925 51.20051 
Q 53.744917 51.410935 53.24891 51.621361 
" clip-path="url(#p32fecf8f55)" style="fill: none; opacity: 0.643172; stroke: #d1d1d1; stroke-width: 0.286344; stroke-linecap: round"/>
   </g>
   <g id="patch_27">
    <path d="M 57.846884 49.670724 
Q 58.342892 49.460299 58.838899 49.249873 
" clip-path="url(#p32fecf8f55)" style="fill: none; opacity: 0.643172; stroke: #d1d1d1; stroke-width: 0.286344; stroke-linecap: round"/>
   </g>
   <g id="patch_28">
    <path d="M 99.692718 61.918169 
Q 99.048798 61.226562 98.404877 60.534956 
" clip-path="url(#p32fecf8f55)" style="fill: none; opacity: 0.716406; stroke: #ababab; stroke-width: 0.432812; stroke-linecap: round"/>
   </g>
   <g id="patch_29">
    <path d="M 96.878431 66.544245 
Q 82.622608 62.556363 68.366785 58.568482 
" clip-path="url(#p32fecf8f55)" style="fill: none; opacity: 0.680469; stroke: #c0c0c0; stroke-width: 0.360938; stroke-linecap: round"/>
   </g>
   <g id="patch_30">
    <path d="M 105.21995 67.854721 
Q 105.86387 68.546327 106.507791 69.237934 
" clip-path="url(#p32fecf8f55)" style="fill: none; opacity: 0.716406; stroke: #ababab; stroke-width: 0.432812; stroke-linecap: round"/>
   </g>
   <g id="patch_31">
    <path d="M 73.183863 59.915997 
Q 87.439686 63.903879 101.69551 67.89176 
" clip-path="url(#p32fecf8f55)" style="fill: none; opacity: 0.680469; stroke: #c0c0c0; stroke-width: 0.360938; stroke-linecap: round"/>
   </g>
   <g id="patch_32">
    <path d="M 96.229502 79.87414 
Q 72.596597 81.437536 48.963691 83.000932 
" clip-path="url(#p32fecf8f55)" style="fill: none; opacity: 0.862745; stroke: #585858; stroke-width: 0.72549; stroke-linecap: round"/>
   </g>
   <g id="patch_33">
    <path d="M 55.973781 73.355697 
Q 51.896536 76.744573 47.819291 80.133449 
" clip-path="url(#p32fecf8f55)" style="fill: none; opacity: 0.672906; stroke: #c4c4c4; stroke-width: 0.345811; stroke-linecap: round"/>
   </g>
   <g id="patch_34">
    <path d="M 53.951001 82.671005 
Q 77.583907 81.107608 101.216812 79.544212 
" clip-path="url(#p32fecf8f55)" style="fill: none; opacity: 0.862745; stroke: #585858; stroke-width: 0.72549; stroke-linecap: round"/>
   </g>
   <g id="patch_35">
    <path d="M 51.661526 76.939906 
Q 55.738771 73.55103 59.816017 70.162154 
" clip-path="url(#p32fecf8f55)" style="fill: none; opacity: 0.672906; stroke: #c4c4c4; stroke-width: 0.345811; stroke-linecap: round"/>
   </g>
   <g id="patch_36">
    <path d="M 97.164491 56.448152 
Q 82.718313 52.527462 68.272135 48.606771 
" clip-path="url(#p32fecf8f55)" style="fill: none; opacity: 0.697137; stroke: #b8b8b8; stroke-width: 0.394273; stroke-linecap: round"/>
   </g>
   <g id="patch_37">
    <path d="M 96.854267 58.126528 
Q 75.237081 56.085601 53.619894 54.044673 
" clip-path="url(#p32fecf8f55)" style="fill: none; opacity: 0.651982; stroke: #cdcdcd; stroke-width: 0.303965; stroke-linecap: round"/>
   </g>
   <g id="patch_38">
    <path d="M 73.092209 49.914939 
Q 87.538386 53.835629 101.984564 57.756319 
" clip-path="url(#p32fecf8f55)" style="fill: none; opacity: 0.697137; stroke: #b8b8b8; stroke-width: 0.394273; stroke-linecap: round"/>
   </g>
   <g id="patch_39">
    <path d="M 58.602825 54.515123 
Q 80.220012 56.55605 101.837198 58.596978 
" clip-path="url(#p32fecf8f55)" style="fill: none; opacity: 0.651982; stroke: #cdcdcd; stroke-width: 0.303965; stroke-linecap: round"/>
   </g>
   <g id="patch_40">
    <path d="M 96.531363 69.879347 
Q 72.594093 71.418342 48.656823 72.957337 
" clip-path="url(#p32fecf8f55)" style="fill: none; opacity: 0.88125; stroke: #4e4e4e; stroke-width: 0.7625; stroke-linecap: round"/>
   </g>
   <g id="patch_41">
    <path d="M 55.773073 63.503967 
Q 51.665651 66.819736 47.558228 70.135505 
" clip-path="url(#p32fecf8f55)" style="fill: none; opacity: 0.649219; stroke: #cecece; stroke-width: 0.298438; stroke-linecap: round"/>
   </g>
   <g id="patch_42">
    <path d="M 44.128875 72.423447 
Q 43.896997 72.850857 43.665119 73.278268 
" clip-path="url(#p32fecf8f55)" style="fill: none; opacity: 0.691406; stroke: #bbbbbb; stroke-width: 0.382812; stroke-linecap: round"/>
   </g>
   <g id="patch_43">
    <path d="M 53.641546 72.636855 
Q 77.578816 71.09786 101.516086 69.558865 
" clip-path="url(#p32fecf8f55)" style="fill: none; opacity: 0.88125; stroke: #4e4e4e; stroke-width: 0.7625; stroke-linecap: round"/>
   </g>
   <g id="patch_44">
    <path d="M 51.446549 66.996609 
Q 55.553972 63.68084 59.661395 60.365071 
" clip-path="url(#p32fecf8f55)" style="fill: none; opacity: 0.649219; stroke: #cecece; stroke-width: 0.298438; stroke-linecap: round"/>
   </g>
   <g id="patch_45">
    <path d="M 48.434271 64.487509 
Q 48.666149 64.060099 48.898027 63.632688 
" clip-path="url(#p32fecf8f55)" style="fill: none; opacity: 0.691406; stroke: #bbbbbb; stroke-width: 0.382812; stroke-linecap: round"/>
   </g>
   <g id="patch_46">
    <path d="M 97.168279 47.783996 
Q 75.267423 45.780697 53.366567 43.777398 
" clip-path="url(#p32fecf8f55)" style="fill: none; opacity: 0.605769; stroke: #e1e1e1; stroke-width: 0.211538; stroke-linecap: round"/>
   </g>
   <g id="patch_47">
    <path d="M 58.341184 44.232432 
Q 80.24204 46.235732 102.142896 48.239031 
" clip-path="url(#p32fecf8f55)" style="fill: none; opacity: 0.605769; stroke: #e1e1e1; stroke-width: 0.211538; stroke-linecap: round"/>
   </g>
   <g id="patch_48">
    <path d="M 96.831381 59.689564 
Q 72.587159 61.202299 48.342938 62.715035 
" clip-path="url(#p32fecf8f55)" style="fill: none; opacity: 0.849119; stroke: #606060; stroke-width: 0.698238; stroke-linecap: round"/>
   </g>
   <g id="patch_49">
    <path d="M 55.568447 53.462031 
Q 51.43022 56.701928 47.291994 59.941826 
" clip-path="url(#p32fecf8f55)" style="fill: none; opacity: 0.67511; stroke: #c3c3c3; stroke-width: 0.35022; stroke-linecap: round"/>
   </g>
   <g id="patch_50">
    <path d="M 53.333715 62.403632 
Q 77.577936 60.890896 101.822158 59.378161 
" clip-path="url(#p32fecf8f55)" style="fill: none; opacity: 0.849119; stroke: #606060; stroke-width: 0.698238; stroke-linecap: round"/>
   </g>
   <g id="patch_51">
    <path d="M 51.227365 56.860747 
Q 55.365592 53.62085 59.503818 50.380953 
" clip-path="url(#p32fecf8f55)" style="fill: none; opacity: 0.67511; stroke: #c3c3c3; stroke-width: 0.35022; stroke-linecap: round"/>
   </g>
   <g id="patch_52">
    <path d="M 97.145148 49.298023 
Q 72.584221 50.782998 48.023294 52.267974 
" clip-path="url(#p32fecf8f55)" style="fill: none; opacity: 0.818109; stroke: #707070; stroke-width: 0.636218; stroke-linecap: round"/>
   </g>
   <g id="patch_53">
    <path d="M 43.376506 51.9759 
Q 43.20467 52.272801 43.032833 52.569702 
" clip-path="url(#p32fecf8f55)" style="fill: none; opacity: 0.614583; stroke: #dddddd; stroke-width: 0.229167; stroke-linecap: round"/>
   </g>
   <g id="patch_54">
    <path d="M 53.011906 51.966358 
Q 77.572833 50.481382 102.13376 48.996407 
" clip-path="url(#p32fecf8f55)" style="fill: none; opacity: 0.818109; stroke: #707070; stroke-width: 0.636218; stroke-linecap: round"/>
   </g>
   <g id="patch_55">
    <path d="M 48.04157 43.915551 
Q 48.213407 43.61865 48.385243 43.32175 
" clip-path="url(#p32fecf8f55)" style="fill: none; opacity: 0.614583; stroke: #dddddd; stroke-width: 0.229167; stroke-linecap: round"/>
   </g>
   <g id="patch_56">
    <path d="M 55.316183 91.242119 
Q 60.110704 97.763168 64.905225 104.284217 
" clip-path="url(#p32fecf8f55)" style="fill: none; stroke: #000000; stroke-linecap: round"/>
   </g>
   <g id="patch_57">
    <path d="M 61.942113 100.254075 
Q 57.147592 93.733027 52.35307 87.211978 
" clip-path="url(#p32fecf8f55)" style="fill: none; stroke: #000000; stroke-linecap: round"/>
   </g>
   <g id="patch_58">
    <path d="M 55.17154 81.480217 
Q 59.975681 87.843518 64.779822 94.206819 
" clip-path="url(#p32fecf8f55)" style="fill: none; stroke: #000000; stroke-linecap: round"/>
   </g>
   <g id="patch_59">
    <path d="M 52.453684 88.624209 
Q 58.001306 92.086271 63.548927 95.548333 
" clip-path="url(#p32fecf8f55)" style="fill: none; opacity: 0.63369; stroke: #d5d5d5; stroke-width: 0.26738; stroke-linecap: round"/>
   </g>
   <g id="patch_60">
    <path d="M 61.767177 90.216436 
Q 56.963036 83.853134 52.158895 77.489833 
" clip-path="url(#p32fecf8f55)" style="fill: none; stroke: #000000; stroke-linecap: round"/>
   </g>
   <g id="patch_61">
    <path d="M 59.309931 92.902935 
Q 53.76231 89.440873 48.214688 85.978811 
" clip-path="url(#p32fecf8f55)" style="fill: none; opacity: 0.63369; stroke: #d5d5d5; stroke-width: 0.26738; stroke-linecap: round"/>
   </g>
   <g id="patch_62">
    <path d="M 55.028677 71.53044 
Q 59.839445 77.727866 64.650213 83.925292 
" clip-path="url(#p32fecf8f55)" style="fill: none; stroke: #000000; stroke-linecap: round"/>
   </g>
   <g id="patch_63">
    <path d="M 61.584269 79.975619 
Q 56.773501 73.778193 51.962733 67.580767 
" clip-path="url(#p32fecf8f55)" style="fill: none; stroke: #000000; stroke-linecap: round"/>
   </g>
   <g id="patch_64">
    <path d="M 54.88764 61.386604 
Q 59.70122 67.409193 64.5148 73.431783 
" clip-path="url(#p32fecf8f55)" style="fill: none; stroke: #000000; stroke-linecap: round"/>
   </g>
   <g id="patch_65">
    <path d="M 61.393162 69.526095 
Q 56.579582 63.503505 51.766002 57.480915 
" clip-path="url(#p32fecf8f55)" style="fill: none; stroke: #000000; stroke-linecap: round"/>
   </g>
   <g id="patch_66">
    <path d="M 99.614722 55.300913 
Q 95.825828 58.634068 92.036935 61.967222 
" clip-path="url(#p32fecf8f55)" style="fill: none; opacity: 0.648237; stroke: #cfcfcf; stroke-width: 0.296474; stroke-linecap: round"/>
   </g>
   <g id="patch_67">
    <path d="M 52.663328 55.272691 
Q 68.066325 59.595848 83.469323 63.919005 
" clip-path="url(#p32fecf8f55)" style="fill: none; opacity: 0.603365; stroke: #e1e1e1; stroke-width: 0.206731; stroke-linecap: round"/>
   </g>
   <g id="patch_68">
    <path d="M 95.792122 58.663719 
Q 99.581016 55.330565 103.36991 51.99741 
" clip-path="url(#p32fecf8f55)" style="fill: none; opacity: 0.648237; stroke: #cfcfcf; stroke-width: 0.296474; stroke-linecap: round"/>
   </g>
   <g id="patch_69">
    <path d="M 78.652129 62.566964 
Q 63.249132 58.243807 47.846134 53.92065 
" clip-path="url(#p32fecf8f55)" style="fill: none; opacity: 0.603365; stroke: #e1e1e1; stroke-width: 0.206731; stroke-linecap: round"/>
   </g>
   <g id="patch_70">
    <path d="M 54.743796 51.036572 
Q 59.559641 56.879629 64.375486 62.722686 
" clip-path="url(#p32fecf8f55)" style="fill: none; stroke: #000000; stroke-linecap: round"/>
   </g>
   <g id="patch_71">
    <path d="M 61.198301 58.867812 
Q 56.382455 53.024754 51.56661 47.181697 
" clip-path="url(#p32fecf8f55)" style="fill: none; stroke: #000000; stroke-linecap: round"/>
   </g>
  </g>
 </g>
 <defs>
  <clipPath id="p32fecf8f55">
   <rect x="18.36" y="17.28" width="110.88" height="110.88"/>
  </clipPath>
 </defs>
</svg>
