<?xml version="1.0" encoding="utf-8" standalone="no"?>
<!DOCTYPE svg PUBLIC "-//W3C//DTD SVG 1.1//EN"
  "http://www.w3.org/Graphics/SVG/1.1/DTD/svg11.dtd">
<svg xmlns:xlink="http://www.w3.org/1999/xlink" width="144pt" height="144pt" viewBox="0 0 144 144" xmlns="http://www.w3.org/2000/svg" version="1.1">
 <metadata>
  <rdf:RDF xmlns:dc="http://purl.org/dc/elements/1.1/" xmlns:cc="http://creativecommons.org/ns#" xmlns:rdf="http://www.w3.org/1999/02/22-rdf-syntax-ns#">
   <cc:Work>
    <dc:type rdf:resource="http://purl.org/dc/dcmitype/StillImage"/>
    <dc:date>2025-06-03T17:18:15.996618</dc:date>
    <dc:format>image/svg+xml</dc:format>
    <dc:creator>
     <cc:Agent>
      <dc:title>Matplotlib v3.9.2, https://matplotlib.org/</dc:title>
     </cc:Agent>
    </dc:creator>
   </cc:Work>
  </rdf:RDF>
 </metadata>
 <defs>
  <style type="text/css">*{stroke-linejoin: round; stroke-linecap: butt}</style>
 </defs>
 <g id="figure_1">
  <g id="patch_1">
   <path d="M 0 144 
L 144 144 
L 144 0 
L 0 0 
z
" style="fill: #ffffff"/>
  </g>
  <g id="axes_1">
   <g id="patch_2">
    <path d="M 18 128.16 
L 129.6 128.16 
L 129.6 17.28 
L 18 17.28 
z
" style="fill: #ffffff"/>
   </g>
   <g id="matplotlib.axis_1">
    <g id="xtick_1">
     <g id="line2d_1">
      <defs>
       <path id="m1e3a416f49" d="M 0 0 
L 0 3.5 
" style="stroke: #000000; stroke-width: 0.8"/>
      </defs>
      <g>
       <use xlink:href="#m1e3a416f49" x="18" y="128.16" style="stroke: #000000; stroke-width: 0.8"/>
      </g>
     </g>
     <g id="text_1">
      <!-- 0.0 -->
      <g transform="translate(10.048437 142.758438) scale(0.1 -0.1)">
       <defs>
        <path id="DejaVuSerif-30" d="M 2034 219 
Q 2513 219 2750 744 
Q 2988 1269 2988 2328 
Q 2988 3391 2750 3916 
Q 2513 4441 2034 4441 
Q 1556 4441 1318 3916 
Q 1081 3391 1081 2328 
Q 1081 1269 1318 744 
Q 1556 219 2034 219 
z
M 2034 -91 
Q 1275 -91 848 546 
Q 422 1184 422 2328 
Q 422 3475 848 4112 
Q 1275 4750 2034 4750 
Q 2797 4750 3222 4112 
Q 3647 3475 3647 2328 
Q 3647 1184 3222 546 
Q 2797 -91 2034 -91 
z
" transform="scale(0.015625)"/>
        <path id="DejaVuSerif-2e" d="M 603 325 
Q 603 500 722 622 
Q 841 744 1019 744 
Q 1191 744 1312 622 
Q 1434 500 1434 325 
Q 1434 153 1312 31 
Q 1191 -91 1019 -91 
Q 841 -91 722 29 
Q 603 150 603 325 
z
" transform="scale(0.015625)"/>
       </defs>
       <use xlink:href="#DejaVuSerif-30"/>
       <use xlink:href="#DejaVuSerif-2e" x="63.623047"/>
       <use xlink:href="#DejaVuSerif-30" x="95.410156"/>
      </g>
     </g>
    </g>
    <g id="xtick_2">
     <g id="line2d_2">
      <g>
       <use xlink:href="#m1e3a416f49" x="73.8" y="128.16" style="stroke: #000000; stroke-width: 0.8"/>
      </g>
     </g>
     <g id="text_2">
      <!-- 0.5 -->
      <g transform="translate(65.848438 142.758438) scale(0.1 -0.1)">
       <defs>
        <path id="DejaVuSerif-35" d="M 3219 4666 
L 3219 4153 
L 1081 4153 
L 1081 2816 
Q 1244 2928 1461 2984 
Q 1678 3041 1947 3041 
Q 2703 3041 3140 2622 
Q 3578 2203 3578 1478 
Q 3578 738 3136 323 
Q 2694 -91 1894 -91 
Q 1572 -91 1234 -12 
Q 897 66 544 225 
L 544 1131 
L 897 1131 
Q 925 688 1179 453 
Q 1434 219 1894 219 
Q 2388 219 2653 544 
Q 2919 869 2919 1478 
Q 2919 2084 2655 2407 
Q 2391 2731 1894 2731 
Q 1613 2731 1398 2631 
Q 1184 2531 1019 2322 
L 750 2322 
L 750 4666 
L 3219 4666 
z
" transform="scale(0.015625)"/>
       </defs>
       <use xlink:href="#DejaVuSerif-30"/>
       <use xlink:href="#DejaVuSerif-2e" x="63.623047"/>
       <use xlink:href="#DejaVuSerif-35" x="95.410156"/>
      </g>
     </g>
    </g>
    <g id="xtick_3">
     <g id="line2d_3">
      <g>
       <use xlink:href="#m1e3a416f49" x="129.6" y="128.16" style="stroke: #000000; stroke-width: 0.8"/>
      </g>
     </g>
     <g id="text_3">
      <!-- 1.0 -->
      <g transform="translate(121.648438 142.758438) scale(0.1 -0.1)">
       <defs>
        <path id="DejaVuSerif-31" d="M 909 0 
L 909 331 
L 1722 331 
L 1722 4213 
L 781 3603 
L 781 4013 
L 1919 4750 
L 2350 4750 
L 2350 331 
L 3163 331 
L 3163 0 
L 909 0 
z
" transform="scale(0.015625)"/>
       </defs>
       <use xlink:href="#DejaVuSerif-31"/>
       <use xlink:href="#DejaVuSerif-2e" x="63.623047"/>
       <use xlink:href="#DejaVuSerif-30" x="95.410156"/>
      </g>
     </g>
    </g>
   </g>
   <g id="matplotlib.axis_2">
    <g id="ytick_1">
     <g id="line2d_4">
      <defs>
       <path id="mc2024f6b3c" d="M 0 0 
L -3.5 0 
" style="stroke: #000000; stroke-width: 0.8"/>
      </defs>
      <g>
       <use xlink:href="#mc2024f6b3c" x="18" y="128.16" style="stroke: #000000; stroke-width: 0.8"/>
      </g>
     </g>
     <g id="text_4">
      <!-- 0.0 -->
      <g transform="translate(-4.903125 131.959219) scale(0.1 -0.1)">
       <use xlink:href="#DejaVuSerif-30"/>
       <use xlink:href="#DejaVuSerif-2e" x="63.623047"/>
       <use xlink:href="#DejaVuSerif-30" x="95.410156"/>
      </g>
     </g>
    </g>
    <g id="ytick_2">
     <g id="line2d_5">
      <g>
       <use xlink:href="#mc2024f6b3c" x="18" y="105.984" style="stroke: #000000; stroke-width: 0.8"/>
      </g>
     </g>
     <g id="text_5">
      <!-- 0.2 -->
      <g transform="translate(-4.903125 109.783219) scale(0.1 -0.1)">
       <defs>
        <path id="DejaVuSerif-32" d="M 819 3553 
L 469 3553 
L 469 4384 
Q 803 4563 1142 4656 
Q 1481 4750 1806 4750 
Q 2534 4750 2956 4397 
Q 3378 4044 3378 3438 
Q 3378 2753 2422 1800 
Q 2347 1728 2309 1691 
L 1131 513 
L 3078 513 
L 3078 1088 
L 3444 1088 
L 3444 0 
L 434 0 
L 434 341 
L 1850 1753 
Q 2319 2222 2519 2614 
Q 2719 3006 2719 3438 
Q 2719 3909 2473 4175 
Q 2228 4441 1797 4441 
Q 1350 4441 1106 4219 
Q 863 3997 819 3553 
z
" transform="scale(0.015625)"/>
       </defs>
       <use xlink:href="#DejaVuSerif-30"/>
       <use xlink:href="#DejaVuSerif-2e" x="63.623047"/>
       <use xlink:href="#DejaVuSerif-32" x="95.410156"/>
      </g>
     </g>
    </g>
    <g id="ytick_3">
     <g id="line2d_6">
      <g>
       <use xlink:href="#mc2024f6b3c" x="18" y="83.808" style="stroke: #000000; stroke-width: 0.8"/>
      </g>
     </g>
     <g id="text_6">
      <!-- 0.4 -->
      <g transform="translate(-4.903125 87.607219) scale(0.1 -0.1)">
       <defs>
        <path id="DejaVuSerif-34" d="M 2234 1581 
L 2234 4063 
L 641 1581 
L 2234 1581 
z
M 3609 0 
L 1484 0 
L 1484 331 
L 2234 331 
L 2234 1247 
L 197 1247 
L 197 1588 
L 2241 4750 
L 2859 4750 
L 2859 1581 
L 3750 1581 
L 3750 1247 
L 2859 1247 
L 2859 331 
L 3609 331 
L 3609 0 
z
" transform="scale(0.015625)"/>
       </defs>
       <use xlink:href="#DejaVuSerif-30"/>
       <use xlink:href="#DejaVuSerif-2e" x="63.623047"/>
       <use xlink:href="#DejaVuSerif-34" x="95.410156"/>
      </g>
     </g>
    </g>
    <g id="ytick_4">
     <g id="line2d_7">
      <g>
       <use xlink:href="#mc2024f6b3c" x="18" y="61.632" style="stroke: #000000; stroke-width: 0.8"/>
      </g>
     </g>
     <g id="text_7">
      <!-- 0.6 -->
      <g transform="translate(-4.903125 65.431219) scale(0.1 -0.1)">
       <defs>
        <path id="DejaVuSerif-36" d="M 2094 219 
Q 2534 219 2771 542 
Q 3009 866 3009 1472 
Q 3009 2078 2771 2401 
Q 2534 2725 2094 2725 
Q 1647 2725 1412 2412 
Q 1178 2100 1178 1509 
Q 1178 888 1415 553 
Q 1653 219 2094 219 
z
M 1075 2569 
Q 1288 2803 1556 2918 
Q 1825 3034 2163 3034 
Q 2859 3034 3264 2615 
Q 3669 2197 3669 1472 
Q 3669 763 3233 336 
Q 2797 -91 2069 -91 
Q 1278 -91 853 498 
Q 428 1088 428 2181 
Q 428 3406 931 4078 
Q 1434 4750 2350 4750 
Q 2597 4750 2869 4703 
Q 3141 4656 3425 4563 
L 3425 3794 
L 3072 3794 
Q 3034 4109 2831 4275 
Q 2628 4441 2284 4441 
Q 1678 4441 1381 3981 
Q 1084 3522 1075 2569 
z
" transform="scale(0.015625)"/>
       </defs>
       <use xlink:href="#DejaVuSerif-30"/>
       <use xlink:href="#DejaVuSerif-2e" x="63.623047"/>
       <use xlink:href="#DejaVuSerif-36" x="95.410156"/>
      </g>
     </g>
    </g>
    <g id="ytick_5">
     <g id="line2d_8">
      <g>
       <use xlink:href="#mc2024f6b3c" x="18" y="39.456" style="stroke: #000000; stroke-width: 0.8"/>
      </g>
     </g>
     <g id="text_8">
      <!-- 0.8 -->
      <g transform="translate(-4.903125 43.255219) scale(0.1 -0.1)">
       <defs>
        <path id="DejaVuSerif-38" d="M 2981 1275 
Q 2981 1775 2732 2051 
Q 2484 2328 2034 2328 
Q 1584 2328 1336 2051 
Q 1088 1775 1088 1275 
Q 1088 772 1336 495 
Q 1584 219 2034 219 
Q 2484 219 2732 495 
Q 2981 772 2981 1275 
z
M 2853 3541 
Q 2853 3966 2637 4203 
Q 2422 4441 2034 4441 
Q 1650 4441 1433 4203 
Q 1216 3966 1216 3541 
Q 1216 3113 1433 2875 
Q 1650 2638 2034 2638 
Q 2422 2638 2637 2875 
Q 2853 3113 2853 3541 
z
M 2516 2484 
Q 3047 2413 3344 2092 
Q 3641 1772 3641 1275 
Q 3641 619 3225 264 
Q 2809 -91 2034 -91 
Q 1263 -91 845 264 
Q 428 619 428 1275 
Q 428 1772 725 2092 
Q 1022 2413 1556 2484 
Q 1084 2569 832 2842 
Q 581 3116 581 3541 
Q 581 4103 968 4426 
Q 1356 4750 2034 4750 
Q 2713 4750 3100 4426 
Q 3488 4103 3488 3541 
Q 3488 3116 3236 2842 
Q 2984 2569 2516 2484 
z
" transform="scale(0.015625)"/>
       </defs>
       <use xlink:href="#DejaVuSerif-30"/>
       <use xlink:href="#DejaVuSerif-2e" x="63.623047"/>
       <use xlink:href="#DejaVuSerif-38" x="95.410156"/>
      </g>
     </g>
    </g>
    <g id="ytick_6">
     <g id="line2d_9">
      <g>
       <use xlink:href="#mc2024f6b3c" x="18" y="17.28" style="stroke: #000000; stroke-width: 0.8"/>
      </g>
     </g>
     <g id="text_9">
      <!-- 1.0 -->
      <g transform="translate(-4.903125 21.079219) scale(0.1 -0.1)">
       <use xlink:href="#DejaVuSerif-31"/>
       <use xlink:href="#DejaVuSerif-2e" x="63.623047"/>
       <use xlink:href="#DejaVuSerif-30" x="95.410156"/>
      </g>
     </g>
    </g>
   </g>
   <g id="patch_3">
    <path d="M 18 128.16 
L 18 17.28 
" style="fill: none; stroke: #000000; stroke-width: 0.8; stroke-linejoin: miter; stroke-linecap: square"/>
   </g>
   <g id="patch_4">
    <path d="M 129.6 128.16 
L 129.6 17.28 
" style="fill: none; stroke: #000000; stroke-width: 0.8; stroke-linejoin: miter; stroke-linecap: square"/>
   </g>
   <g id="patch_5">
    <path d="M 18 128.16 
L 129.6 128.16 
" style="fill: none; stroke: #000000; stroke-width: 0.8; stroke-linejoin: miter; stroke-linecap: square"/>
   </g>
   <g id="patch_6">
    <path d="M 18 17.28 
L 129.6 17.28 
" style="fill: none; stroke: #000000; stroke-width: 0.8; stroke-linejoin: miter; stroke-linecap: square"/>
   </g>
  </g>
  <g id="patch_7">
   <path d="M 18.36 128.16 
L 129.24 128.16 
L 129.24 17.28 
L 18.36 17.28 
z
" style="fill: #ffffff"/>
  </g>
  <g id="axes_2">
   <g id="patch_8">
    <path d="M 72.060598 75.987837 
Q 70.410979 76.095285 68.76136 76.202732 
" clip-path="url(#p7ff973a29e)" style="fill: none; opacity: 0.833684; stroke: #686868; stroke-width: 0.667368; stroke-linecap: round"/>
   </g>
   <g id="Path3DCollection_1">
    <path d="M 82.036969 78.873561 
C 82.974603 78.873561 83.873961 78.501035 84.536969 77.838027 
C 85.199977 77.175019 85.572503 76.275662 85.572503 75.338027 
C 85.572503 74.400393 85.199977 73.501035 84.536969 72.838027 
C 83.873961 72.175019 82.974603 71.802493 82.036969 71.802493 
C 81.099334 71.802493 80.199977 72.175019 79.536969 72.838027 
C 78.873961 73.501035 78.501435 74.400393 78.501435 75.338027 
C 78.501435 76.275662 78.873961 77.175019 79.536969 77.838027 
C 80.199977 78.501035 81.099334 78.873561 82.036969 78.873561 
z
" clip-path="url(#p7ff973a29e)" style="fill: #67000d; stroke: #00ff00; stroke-width: 2"/>
    <path d="M 63.769997 80.063378 
C 64.707632 80.063378 65.60699 79.690852 66.269997 79.027844 
C 66.933005 78.364836 67.305531 77.465479 67.305531 76.527844 
C 67.305531 75.59021 66.933005 74.690852 66.269997 74.027844 
C 65.60699 73.364836 64.707632 72.99231 63.769997 72.99231 
C 62.832363 72.99231 61.933005 73.364836 61.269997 74.027844 
C 60.60699 74.690852 60.234463 75.59021 60.234463 76.527844 
C 60.234463 77.465479 60.60699 78.364836 61.269997 79.027844 
C 61.933005 79.690852 62.832363 80.063378 63.769997 80.063378 
z
" clip-path="url(#p7ff973a29e)" style="fill: #67000d; stroke: #00ff00; stroke-width: 2"/>
    <path d="M 97.976735 80.321703 
C 98.070498 80.321703 98.160434 80.28445 98.226735 80.21815 
C 98.293036 80.151849 98.330288 80.061913 98.330288 79.96815 
C 98.330288 79.874386 98.293036 79.78445 98.226735 79.71815 
C 98.160434 79.651849 98.070498 79.614596 97.976735 79.614596 
C 97.882972 79.614596 97.793036 79.651849 97.726735 79.71815 
C 97.660434 79.78445 97.623182 79.874386 97.623182 79.96815 
C 97.623182 80.061913 97.660434 80.151849 97.726735 80.21815 
C 97.793036 80.28445 97.882972 80.321703 97.976735 80.321703 
z
" clip-path="url(#p7ff973a29e)" style="fill: #fff5f0; stroke: #00ff00; stroke-width: 2"/>
    <path d="M 49.391636 86.719652 
C 50.32927 86.719652 51.228628 86.347126 51.891636 85.684118 
C 52.554643 85.02111 52.927169 84.121753 52.927169 83.184118 
C 52.927169 82.246483 52.554643 81.347126 51.891636 80.684118 
C 51.228628 80.02111 50.32927 79.648584 49.391636 79.648584 
C 48.454001 79.648584 47.554643 80.02111 46.891636 80.684118 
C 46.228628 81.347126 45.856102 82.246483 45.856102 83.184118 
C 45.856102 84.121753 46.228628 85.02111 46.891636 85.684118 
C 47.554643 86.347126 48.454001 86.719652 49.391636 86.719652 
z
" clip-path="url(#p7ff973a29e)" style="fill: #67000d; stroke: #ff0000; stroke-width: 2"/>
    <path d="M 105.914786 89.354064 
C 106.00855 89.354064 106.098485 89.316812 106.164786 89.250511 
C 106.231087 89.18421 106.268339 89.094274 106.268339 89.000511 
C 106.268339 88.906747 106.231087 88.816812 106.164786 88.750511 
C 106.098485 88.68421 106.00855 88.646957 105.914786 88.646957 
C 105.821023 88.646957 105.731087 88.68421 105.664786 88.750511 
C 105.598485 88.816812 105.561233 88.906747 105.561233 89.000511 
C 105.561233 89.094274 105.598485 89.18421 105.664786 89.250511 
C 105.731087 89.316812 105.821023 89.354064 105.914786 89.354064 
z
" clip-path="url(#p7ff973a29e)" style="fill: #fff5f0; stroke: #00ff00; stroke-width: 2"/>
    <path d="M 44.273099 96.726344 
C 45.210734 96.726344 46.110092 96.353818 46.773099 95.69081 
C 47.436107 95.027802 47.808633 94.128444 47.808633 93.19081 
C 47.808633 92.253175 47.436107 91.353818 46.773099 90.69081 
C 46.110092 90.027802 45.210734 89.655276 44.273099 89.655276 
C 43.335465 89.655276 42.436107 90.027802 41.773099 90.69081 
C 41.110092 91.353818 40.737566 92.253175 40.737566 93.19081 
C 40.737566 94.128444 41.110092 95.027802 41.773099 95.69081 
C 42.436107 96.353818 43.335465 96.726344 44.273099 96.726344 
z
" clip-path="url(#p7ff973a29e)" style="fill: #67000d; stroke: #00ff00; stroke-width: 2"/>
    <path d="M 102.317046 99.69325 
C 102.410809 99.69325 102.500745 99.655997 102.567046 99.589697 
C 102.633347 99.523396 102.670599 99.43346 102.670599 99.339697 
C 102.670599 99.245933 102.633347 99.155997 102.567046 99.089697 
C 102.500745 99.023396 102.410809 98.986143 102.317046 98.986143 
C 102.223282 98.986143 102.133347 99.023396 102.067046 99.089697 
C 102.000745 99.155997 101.963492 99.245933 101.963492 99.339697 
C 101.963492 99.43346 102.000745 99.523396 102.067046 99.589697 
C 102.133347 99.655997 102.223282 99.69325 102.317046 99.69325 
z
" clip-path="url(#p7ff973a29e)" style="fill: #fff5f0; stroke: #ff0000; stroke-width: 2"/>
    <path d="M 51.095278 103.271766 
C 51.189042 103.271766 51.278977 103.234513 51.345278 103.168212 
C 51.411579 103.101911 51.448832 103.011976 51.448832 102.918212 
C 51.448832 102.824449 51.411579 102.734513 51.345278 102.668212 
C 51.278977 102.601911 51.189042 102.564659 51.095278 102.564659 
C 51.001515 102.564659 50.911579 102.601911 50.845278 102.668212 
C 50.778977 102.734513 50.741725 102.824449 50.741725 102.918212 
C 50.741725 103.011976 50.778977 103.101911 50.845278 103.168212 
C 50.911579 103.234513 51.001515 103.271766 51.095278 103.271766 
z
" clip-path="url(#p7ff973a29e)" style="fill: #fff5f0; stroke: #00ff00; stroke-width: 2"/>
    <path d="M 87.764928 107.251234 
C 87.858692 107.251234 87.948627 107.213982 88.014928 107.147681 
C 88.081229 107.08138 88.118482 106.991444 88.118482 106.897681 
C 88.118482 106.803918 88.081229 106.713982 88.014928 106.647681 
C 87.948627 106.58138 87.858692 106.544128 87.764928 106.544128 
C 87.671165 106.544128 87.581229 106.58138 87.514928 106.647681 
C 87.448627 106.713982 87.411375 106.803918 87.411375 106.897681 
C 87.411375 106.991444 87.448627 107.08138 87.514928 107.147681 
C 87.581229 107.213982 87.671165 107.251234 87.764928 107.251234 
z
" clip-path="url(#p7ff973a29e)" style="fill: #fff5f0; stroke: #00ff00; stroke-width: 2"/>
    <path d="M 67.86666 108.66563 
C 67.960423 108.66563 68.050359 108.628378 68.11666 108.562077 
C 68.182961 108.495776 68.220213 108.40584 68.220213 108.312077 
C 68.220213 108.218313 68.182961 108.128378 68.11666 108.062077 
C 68.050359 107.995776 67.960423 107.958523 67.86666 107.958523 
C 67.772897 107.958523 67.682961 107.995776 67.61666 108.062077 
C 67.550359 108.128378 67.513107 108.218313 67.513107 108.312077 
C 67.513107 108.40584 67.550359 108.495776 67.61666 108.562077 
C 67.682961 108.628378 67.772897 108.66563 67.86666 108.66563 
z
" clip-path="url(#p7ff973a29e)" style="fill: #fff5f0; stroke: #00ff00; stroke-width: 2"/>
   </g>
   <g id="patch_9">
    <path d="M 73.746368 75.878034 
Q 75.395987 75.770587 77.045606 75.663139 
" clip-path="url(#p7ff973a29e)" style="fill: none; opacity: 0.833684; stroke: #686868; stroke-width: 0.667368; stroke-linecap: round"/>
   </g>
   <g id="Path3DCollection_2">
    <path d="M 82.099153 69.33188 
C 83.036787 69.33188 83.936145 68.959354 84.599153 68.296346 
C 85.26216 67.633338 85.634687 66.733981 85.634687 65.796346 
C 85.634687 64.858712 85.26216 63.959354 84.599153 63.296346 
C 83.936145 62.633338 83.036787 62.260812 82.099153 62.260812 
C 81.161518 62.260812 80.26216 62.633338 79.599153 63.296346 
C 78.936145 63.959354 78.563619 64.858712 78.563619 65.796346 
C 78.563619 66.733981 78.936145 67.633338 79.599153 68.296346 
C 80.26216 68.959354 81.161518 69.33188 82.099153 69.33188 
z
" clip-path="url(#p7ff973a29e)" style="fill: #08306b; stroke: #00ff00; stroke-width: 2"/>
    <path d="M 63.663248 70.499992 
C 64.600883 70.499992 65.500241 70.127465 66.163248 69.464458 
C 66.826256 68.80145 67.198782 67.902092 67.198782 66.964458 
C 67.198782 66.026823 66.826256 65.127465 66.163248 64.464458 
C 65.500241 63.80145 64.600883 63.428924 63.663248 63.428924 
C 62.725614 63.428924 61.826256 63.80145 61.163248 64.464458 
C 60.500241 65.127465 60.127715 66.026823 60.127715 66.964458 
C 60.127715 67.902092 60.500241 68.80145 61.163248 69.464458 
C 61.826256 70.127465 62.725614 70.499992 63.663248 70.499992 
z
" clip-path="url(#p7ff973a29e)" style="fill: #08306b; stroke: #00ff00; stroke-width: 2"/>
    <path d="M 98.188804 70.695968 
C 98.282568 70.695968 98.372504 70.658715 98.438804 70.592415 
C 98.505105 70.526114 98.542358 70.436178 98.542358 70.342415 
C 98.542358 70.248651 98.505105 70.158715 98.438804 70.092415 
C 98.372504 70.026114 98.282568 69.988861 98.188804 69.988861 
C 98.095041 69.988861 98.005105 70.026114 97.938804 70.092415 
C 97.872504 70.158715 97.835251 70.248651 97.835251 70.342415 
C 97.835251 70.436178 97.872504 70.526114 97.938804 70.592415 
C 98.005105 70.658715 98.095041 70.695968 98.188804 70.695968 
z
" clip-path="url(#p7ff973a29e)" style="fill: #f7fbff; stroke: #00ff00; stroke-width: 2"/>
    <path d="M 49.14716 73.854208 
C 49.240924 73.854208 49.330859 73.816955 49.39716 73.750654 
C 49.463461 73.684353 49.500714 73.594418 49.500714 73.500654 
C 49.500714 73.406891 49.463461 73.316955 49.39716 73.250654 
C 49.330859 73.184353 49.240924 73.147101 49.14716 73.147101 
C 49.053397 73.147101 48.963461 73.184353 48.89716 73.250654 
C 48.830859 73.316955 48.793607 73.406891 48.793607 73.500654 
C 48.793607 73.594418 48.830859 73.684353 48.89716 73.750654 
C 48.963461 73.816955 49.053397 73.854208 49.14716 73.854208 
z
" clip-path="url(#p7ff973a29e)" style="fill: #f7fbff; stroke: #ff0000; stroke-width: 2"/>
    <path d="M 106.208444 79.567552 
C 106.302208 79.567552 106.392144 79.5303 106.458444 79.463999 
C 106.524745 79.397698 106.561998 79.307762 106.561998 79.213999 
C 106.561998 79.120236 106.524745 79.0303 106.458444 78.963999 
C 106.392144 78.897698 106.302208 78.860446 106.208444 78.860446 
C 106.114681 78.860446 106.024745 78.897698 105.958444 78.963999 
C 105.892144 79.0303 105.854891 79.120236 105.854891 79.213999 
C 105.854891 79.307762 105.892144 79.397698 105.958444 79.463999 
C 106.024745 79.5303 106.114681 79.567552 106.208444 79.567552 
z
" clip-path="url(#p7ff973a29e)" style="fill: #f7fbff; stroke: #00ff00; stroke-width: 2"/>
    <path d="M 43.972059 86.866679 
C 44.909693 86.866679 45.809051 86.494153 46.472059 85.831145 
C 47.135066 85.168137 47.507593 84.26878 47.507593 83.331145 
C 47.507593 82.393511 47.135066 81.494153 46.472059 80.831145 
C 45.809051 80.168137 44.909693 79.795611 43.972059 79.795611 
C 43.034424 79.795611 42.135066 80.168137 41.472059 80.831145 
C 40.809051 81.494153 40.436525 82.393511 40.436525 83.331145 
C 40.436525 84.26878 40.809051 85.168137 41.472059 85.831145 
C 42.135066 86.494153 43.034424 86.866679 43.972059 86.866679 
z
" clip-path="url(#p7ff973a29e)" style="fill: #08306b; stroke: #00ff00; stroke-width: 2"/>
    <path d="M 102.583634 89.727887 
C 102.677397 89.727887 102.767333 89.690635 102.833634 89.624334 
C 102.899935 89.558033 102.937187 89.468098 102.937187 89.374334 
C 102.937187 89.280571 102.899935 89.190635 102.833634 89.124334 
C 102.767333 89.058033 102.677397 89.020781 102.583634 89.020781 
C 102.48987 89.020781 102.399935 89.058033 102.333634 89.124334 
C 102.267333 89.190635 102.23008 89.280571 102.23008 89.374334 
C 102.23008 89.468098 102.267333 89.558033 102.333634 89.624334 
C 102.399935 89.690635 102.48987 89.727887 102.583634 89.727887 
z
" clip-path="url(#p7ff973a29e)" style="fill: #f7fbff; stroke: #ff0000; stroke-width: 2"/>
    <path d="M 50.854164 93.245791 
C 50.947928 93.245791 51.037863 93.208539 51.104164 93.142238 
C 51.170465 93.075937 51.207717 92.986001 51.207717 92.892238 
C 51.207717 92.798475 51.170465 92.708539 51.104164 92.642238 
C 51.037863 92.575937 50.947928 92.538685 50.854164 92.538685 
C 50.760401 92.538685 50.670465 92.575937 50.604164 92.642238 
C 50.537863 92.708539 50.500611 92.798475 50.500611 92.892238 
C 50.500611 92.986001 50.537863 93.075937 50.604164 93.142238 
C 50.670465 93.208539 50.760401 93.245791 50.854164 93.245791 
z
" clip-path="url(#p7ff973a29e)" style="fill: #f7fbff; stroke: #00ff00; stroke-width: 2"/>
    <path d="M 87.890443 100.340618 
C 88.828077 100.340618 89.727435 99.968092 90.390443 99.305084 
C 91.053451 98.642076 91.425977 97.742718 91.425977 96.805084 
C 91.425977 95.867449 91.053451 94.968092 90.390443 94.305084 
C 89.727435 93.642076 88.828077 93.26955 87.890443 93.26955 
C 86.952808 93.26955 86.053451 93.642076 85.390443 94.305084 
C 84.727435 94.968092 84.354909 95.867449 84.354909 96.805084 
C 84.354909 97.742718 84.727435 98.642076 85.390443 99.305084 
C 86.053451 99.968092 86.952808 100.340618 87.890443 100.340618 
z
" clip-path="url(#p7ff973a29e)" style="fill: #08306b; stroke: #00ff00; stroke-width: 2"/>
    <path d="M 67.791556 98.549552 
C 67.88532 98.549552 67.975256 98.512299 68.041556 98.445998 
C 68.107857 98.379698 68.14511 98.289762 68.14511 98.195998 
C 68.14511 98.102235 68.107857 98.012299 68.041556 97.945998 
C 67.975256 97.879698 67.88532 97.842445 67.791556 97.842445 
C 67.697793 97.842445 67.607857 97.879698 67.541556 97.945998 
C 67.475256 98.012299 67.438003 98.102235 67.438003 98.195998 
C 67.438003 98.289762 67.475256 98.379698 67.541556 98.445998 
C 67.607857 98.512299 67.697793 98.549552 67.791556 98.549552 
z
" clip-path="url(#p7ff973a29e)" style="fill: #f7fbff; stroke: #00ff00; stroke-width: 2"/>
   </g>
   <g id="patch_10">
    <path d="M 72.120539 66.428598 
Q 70.388199 66.53836 68.655858 66.648123 
" clip-path="url(#p7ff973a29e)" style="fill: none; opacity: 0.761838; stroke: #909090; stroke-width: 0.523677; stroke-linecap: round"/>
   </g>
   <g id="Path3DCollection_3">
    <path d="M 82.162495 56.430477 
C 82.256258 56.430477 82.346194 56.393224 82.412495 56.326923 
C 82.478796 56.260623 82.516048 56.170687 82.516048 56.076923 
C 82.516048 55.98316 82.478796 55.893224 82.412495 55.826923 
C 82.346194 55.760623 82.256258 55.72337 82.162495 55.72337 
C 82.068731 55.72337 81.978796 55.760623 81.912495 55.826923 
C 81.846194 55.893224 81.808941 55.98316 81.808941 56.076923 
C 81.808941 56.170687 81.846194 56.260623 81.912495 56.326923 
C 81.978796 56.393224 82.068731 56.430477 82.162495 56.430477 
z
" clip-path="url(#p7ff973a29e)" style="fill: #f7fcf5; stroke: #00ff00; stroke-width: 2"/>
    <path d="M 63.554504 57.575862 
C 63.648268 57.575862 63.738203 57.538609 63.804504 57.472308 
C 63.870805 57.406008 63.908057 57.316072 63.908057 57.222308 
C 63.908057 57.128545 63.870805 57.038609 63.804504 56.972308 
C 63.738203 56.906008 63.648268 56.868755 63.554504 56.868755 
C 63.460741 56.868755 63.370805 56.906008 63.304504 56.972308 
C 63.238203 57.038609 63.200951 57.128545 63.200951 57.222308 
C 63.200951 57.316072 63.238203 57.406008 63.304504 57.472308 
C 63.370805 57.538609 63.460741 57.575862 63.554504 57.575862 
z
" clip-path="url(#p7ff973a29e)" style="fill: #f7fcf5; stroke: #00ff00; stroke-width: 2"/>
    <path d="M 98.404877 60.88851 
C 98.498641 60.88851 98.588577 60.851257 98.654877 60.784956 
C 98.721178 60.718655 98.758431 60.62872 98.758431 60.534956 
C 98.758431 60.441193 98.721178 60.351257 98.654877 60.284956 
C 98.588577 60.218655 98.498641 60.181403 98.404877 60.181403 
C 98.311114 60.181403 98.221178 60.218655 98.154877 60.284956 
C 98.088577 60.351257 98.051324 60.441193 98.051324 60.534956 
C 98.051324 60.62872 98.088577 60.718655 98.154877 60.784956 
C 98.221178 60.851257 98.311114 60.88851 98.404877 60.88851 
z
" clip-path="url(#p7ff973a29e)" style="fill: #f7fcf5; stroke: #00ff00; stroke-width: 2"/>
    <path d="M 48.898027 63.986242 
C 48.99179 63.986242 49.081726 63.948989 49.148027 63.882688 
C 49.214328 63.816388 49.25158 63.726452 49.25158 63.632688 
C 49.25158 63.538925 49.214328 63.448989 49.148027 63.382688 
C 49.081726 63.316388 48.99179 63.279135 48.898027 63.279135 
C 48.804263 63.279135 48.714328 63.316388 48.648027 63.382688 
C 48.581726 63.448989 48.544473 63.538925 48.544473 63.632688 
C 48.544473 63.726452 48.581726 63.816388 48.648027 63.882688 
C 48.714328 63.948989 48.804263 63.986242 48.898027 63.986242 
z
" clip-path="url(#p7ff973a29e)" style="fill: #f7fcf5; stroke: #ff0000; stroke-width: 2"/>
    <path d="M 106.507791 69.591487 
C 106.601554 69.591487 106.69149 69.554234 106.757791 69.487934 
C 106.824091 69.421633 106.861344 69.331697 106.861344 69.237934 
C 106.861344 69.14417 106.824091 69.054234 106.757791 68.987934 
C 106.69149 68.921633 106.601554 68.88438 106.507791 68.88438 
C 106.414027 68.88438 106.324091 68.921633 106.257791 68.987934 
C 106.19149 69.054234 106.154237 69.14417 106.154237 69.237934 
C 106.154237 69.331697 106.19149 69.421633 106.257791 69.487934 
C 106.324091 69.554234 106.414027 69.591487 106.507791 69.591487 
z
" clip-path="url(#p7ff973a29e)" style="fill: #f7fcf5; stroke: #00ff00; stroke-width: 2"/>
    <path d="M 43.665119 76.813801 
C 44.602753 76.813801 45.502111 76.441275 46.165119 75.778268 
C 46.828126 75.11526 47.200653 74.215902 47.200653 73.278268 
C 47.200653 72.340633 46.828126 71.441275 46.165119 70.778268 
C 45.502111 70.11526 44.602753 69.742734 43.665119 69.742734 
C 42.727484 69.742734 41.828126 70.11526 41.165119 70.778268 
C 40.502111 71.441275 40.129585 72.340633 40.129585 73.278268 
C 40.129585 74.215902 40.502111 75.11526 41.165119 75.778268 
C 41.828126 76.441275 42.727484 76.813801 43.665119 76.813801 
z
" clip-path="url(#p7ff973a29e)" style="fill: #00441b; stroke: #00ff00; stroke-width: 2"/>
    <path d="M 102.855535 79.563913 
C 102.949298 79.563913 103.039234 79.52666 103.105535 79.460359 
C 103.171836 79.394059 103.209088 79.304123 103.209088 79.210359 
C 103.209088 79.116596 103.171836 79.02666 103.105535 78.960359 
C 103.039234 78.894059 102.949298 78.856806 102.855535 78.856806 
C 102.761771 78.856806 102.671836 78.894059 102.605535 78.960359 
C 102.539234 79.02666 102.501981 79.116596 102.501981 79.210359 
C 102.501981 79.304123 102.539234 79.394059 102.605535 79.460359 
C 102.671836 79.52666 102.761771 79.563913 102.855535 79.563913 
z
" clip-path="url(#p7ff973a29e)" style="fill: #f7fcf5; stroke: #ff0000; stroke-width: 2"/>
    <path d="M 50.608198 83.018047 
C 50.701961 83.018047 50.791897 82.980795 50.858198 82.914494 
C 50.924498 82.848193 50.961751 82.758257 50.961751 82.664494 
C 50.961751 82.570731 50.924498 82.480795 50.858198 82.414494 
C 50.791897 82.348193 50.701961 82.310941 50.608198 82.310941 
C 50.514434 82.310941 50.424498 82.348193 50.358198 82.414494 
C 50.291897 82.480795 50.254644 82.570731 50.254644 82.664494 
C 50.254644 82.758257 50.291897 82.848193 50.358198 82.914494 
C 50.424498 82.980795 50.514434 83.018047 50.608198 83.018047 
z
" clip-path="url(#p7ff973a29e)" style="fill: #f7fcf5; stroke: #00ff00; stroke-width: 2"/>
    <path d="M 88.018511 86.860746 
C 88.112274 86.860746 88.20221 86.823494 88.268511 86.757193 
C 88.334812 86.690892 88.372064 86.600956 88.372064 86.507193 
C 88.372064 86.41343 88.334812 86.323494 88.268511 86.257193 
C 88.20221 86.190892 88.112274 86.15364 88.018511 86.15364 
C 87.924747 86.15364 87.834812 86.190892 87.768511 86.257193 
C 87.70221 86.323494 87.664957 86.41343 87.664957 86.507193 
C 87.664957 86.600956 87.70221 86.690892 87.768511 86.757193 
C 87.834812 86.823494 87.924747 86.860746 88.018511 86.860746 
z
" clip-path="url(#p7ff973a29e)" style="fill: #f7fcf5; stroke: #00ff00; stroke-width: 2"/>
    <path d="M 67.71492 88.226924 
C 67.808683 88.226924 67.898619 88.189671 67.96492 88.12337 
C 68.03122 88.057069 68.068473 87.967134 68.068473 87.87337 
C 68.068473 87.779607 68.03122 87.689671 67.96492 87.62337 
C 67.898619 87.557069 67.808683 87.519817 67.71492 87.519817 
C 67.621156 87.519817 67.53122 87.557069 67.46492 87.62337 
C 67.398619 87.689671 67.361366 87.779607 67.361366 87.87337 
C 67.361366 87.967134 67.398619 88.057069 67.46492 88.12337 
C 67.53122 88.189671 67.621156 88.226924 67.71492 88.226924 
z
" clip-path="url(#p7ff973a29e)" style="fill: #f7fcf5; stroke: #00ff00; stroke-width: 2"/>
   </g>
   <g id="patch_11">
    <path d="M 73.641862 66.332206 
Q 75.374202 66.222444 77.106543 66.112681 
" clip-path="url(#p7ff973a29e)" style="fill: none; opacity: 0.761838; stroke: #909090; stroke-width: 0.523677; stroke-linecap: round"/>
   </g>
   <g id="Path3DCollection_4">
    <path d="M 82.227028 46.528299 
C 82.320791 46.528299 82.410727 46.491047 82.477028 46.424746 
C 82.543329 46.358445 82.580581 46.268509 82.580581 46.174746 
C 82.580581 46.080982 82.543329 45.991047 82.477028 45.924746 
C 82.410727 45.858445 82.320791 45.821192 82.227028 45.821192 
C 82.133265 45.821192 82.043329 45.858445 81.977028 45.924746 
C 81.910727 45.991047 81.873475 46.080982 81.873475 46.174746 
C 81.873475 46.268509 81.910727 46.358445 81.977028 46.424746 
C 82.043329 46.491047 82.133265 46.528299 82.227028 46.528299 
z
" clip-path="url(#p7ff973a29e)" style="fill: #fff5eb; stroke: #00ff00; stroke-width: 2"/>
    <path d="M 63.443708 50.831871 
C 64.381342 50.831871 65.2807 50.459345 65.943708 49.796337 
C 66.606716 49.133329 66.979242 48.233971 66.979242 47.296337 
C 66.979242 46.358702 66.606716 45.459345 65.943708 44.796337 
C 65.2807 44.133329 64.381342 43.760803 63.443708 43.760803 
C 62.506073 43.760803 61.606716 44.133329 60.943708 44.796337 
C 60.2807 45.459345 59.908174 46.358702 59.908174 47.296337 
C 59.908174 48.233971 60.2807 49.133329 60.943708 49.796337 
C 61.606716 50.459345 62.506073 50.831871 63.443708 50.831871 
z
" clip-path="url(#p7ff973a29e)" style="fill: #7f2704; stroke: #00ff00; stroke-width: 2"/>
    <path d="M 98.625069 50.894133 
C 98.718832 50.894133 98.808768 50.85688 98.875069 50.790579 
C 98.941369 50.724279 98.978622 50.634343 98.978622 50.540579 
C 98.978622 50.446816 98.941369 50.35688 98.875069 50.290579 
C 98.808768 50.224279 98.718832 50.187026 98.625069 50.187026 
C 98.531305 50.187026 98.441369 50.224279 98.375069 50.290579 
C 98.308768 50.35688 98.271515 50.446816 98.271515 50.540579 
C 98.271515 50.634343 98.308768 50.724279 98.375069 50.790579 
C 98.441369 50.85688 98.531305 50.894133 98.625069 50.894133 
z
" clip-path="url(#p7ff973a29e)" style="fill: #fff5eb; stroke: #00ff00; stroke-width: 2"/>
    <path d="M 48.644101 53.928451 
C 48.737864 53.928451 48.8278 53.891198 48.894101 53.824897 
C 48.960402 53.758596 48.997654 53.668661 48.997654 53.574897 
C 48.997654 53.481134 48.960402 53.391198 48.894101 53.324897 
C 48.8278 53.258596 48.737864 53.221344 48.644101 53.221344 
C 48.550338 53.221344 48.460402 53.258596 48.394101 53.324897 
C 48.3278 53.391198 48.290548 53.481134 48.290548 53.574897 
C 48.290548 53.668661 48.3278 53.758596 48.394101 53.824897 
C 48.460402 53.891198 48.550338 53.928451 48.644101 53.928451 
z
" clip-path="url(#p7ff973a29e)" style="fill: #fff5eb; stroke: #ff0000; stroke-width: 2"/>
    <path d="M 106.812991 62.602288 
C 107.750626 62.602288 108.649984 62.229762 109.312991 61.566754 
C 109.975999 60.903746 110.348525 60.004389 110.348525 59.066754 
C 110.348525 58.129119 109.975999 57.229762 109.312991 56.566754 
C 108.649984 55.903746 107.750626 55.53122 106.812991 55.53122 
C 105.875357 55.53122 104.975999 55.903746 104.312991 56.566754 
C 103.649984 57.229762 103.277457 58.129119 103.277457 59.066754 
C 103.277457 60.004389 103.649984 60.903746 104.312991 61.566754 
C 104.975999 62.229762 105.875357 62.602288 106.812991 62.602288 
z
" clip-path="url(#p7ff973a29e)" style="fill: #7f2704; stroke: #00ff00; stroke-width: 2"/>
    <path d="M 43.352104 66.561975 
C 44.289739 66.561975 45.189097 66.189449 45.852104 65.526441 
C 46.515112 64.863434 46.887638 63.964076 46.887638 63.026441 
C 46.887638 62.088807 46.515112 61.189449 45.852104 60.526441 
C 45.189097 59.863434 44.289739 59.490907 43.352104 59.490907 
C 42.41447 59.490907 41.515112 59.863434 40.852104 60.526441 
C 40.189097 61.189449 39.81657 62.088807 39.81657 63.026441 
C 39.81657 63.964076 40.189097 64.863434 40.852104 65.526441 
C 41.515112 66.189449 42.41447 66.561975 43.352104 66.561975 
z
" clip-path="url(#p7ff973a29e)" style="fill: #7f2704; stroke: #00ff00; stroke-width: 2"/>
    <path d="M 103.132909 69.195328 
C 103.226673 69.195328 103.316609 69.158076 103.382909 69.091775 
C 103.44921 69.025474 103.486463 68.935538 103.486463 68.841775 
C 103.486463 68.748011 103.44921 68.658076 103.382909 68.591775 
C 103.316609 68.525474 103.226673 68.488222 103.132909 68.488222 
C 103.039146 68.488222 102.94921 68.525474 102.882909 68.591775 
C 102.816609 68.658076 102.779356 68.748011 102.779356 68.841775 
C 102.779356 68.935538 102.816609 69.025474 102.882909 69.091775 
C 102.94921 69.158076 103.039146 69.195328 103.132909 69.195328 
z
" clip-path="url(#p7ff973a29e)" style="fill: #fff5eb; stroke: #ff0000; stroke-width: 2"/>
    <path d="M 50.357231 75.764361 
C 51.294866 75.764361 52.194223 75.391835 52.857231 74.728827 
C 53.520239 74.06582 53.892765 73.166462 53.892765 72.228827 
C 53.892765 71.291193 53.520239 70.391835 52.857231 69.728827 
C 52.194223 69.06582 51.294866 68.693294 50.357231 68.693294 
C 49.419596 68.693294 48.520239 69.06582 47.857231 69.728827 
C 47.194223 70.391835 46.821697 71.291193 46.821697 72.228827 
C 46.821697 73.166462 47.194223 74.06582 47.857231 74.728827 
C 48.520239 75.391835 49.419596 75.764361 50.357231 75.764361 
z
" clip-path="url(#p7ff973a29e)" style="fill: #7f2704; stroke: #00ff00; stroke-width: 2"/>
    <path d="M 88.14921 76.351233 
C 88.242974 76.351233 88.33291 76.313981 88.39921 76.24768 
C 88.465511 76.181379 88.502764 76.091443 88.502764 75.99768 
C 88.502764 75.903916 88.465511 75.813981 88.39921 75.74768 
C 88.33291 75.681379 88.242974 75.644127 88.14921 75.644127 
C 88.055447 75.644127 87.965511 75.681379 87.89921 75.74768 
C 87.83291 75.813981 87.795657 75.903916 87.795657 75.99768 
C 87.795657 76.091443 87.83291 76.181379 87.89921 76.24768 
C 87.965511 76.313981 88.055447 76.351233 88.14921 76.351233 
z
" clip-path="url(#p7ff973a29e)" style="fill: #fff5eb; stroke: #00ff00; stroke-width: 2"/>
    <path d="M 67.636702 80.873335 
C 68.574336 80.873335 69.473694 80.500809 70.136702 79.837801 
C 70.799709 79.174794 71.172236 78.275436 71.172236 77.337801 
C 71.172236 76.400167 70.799709 75.500809 70.136702 74.837801 
C 69.473694 74.174794 68.574336 73.802267 67.636702 73.802267 
C 66.699067 73.802267 65.799709 74.174794 65.136702 74.837801 
C 64.473694 75.500809 64.101168 76.400167 64.101168 77.337801 
C 64.101168 78.275436 64.473694 79.174794 65.136702 79.837801 
C 65.799709 80.500809 66.699067 80.873335 67.636702 80.873335 
z
" clip-path="url(#p7ff973a29e)" style="fill: #7f2704; stroke: #00ff00; stroke-width: 2"/>
   </g>
   <g id="patch_12">
    <path d="M 72.181597 56.691282 
Q 70.363926 56.803165 68.546255 56.915049 
" clip-path="url(#p7ff973a29e)" style="fill: none; opacity: 0.621988; stroke: #dadada; stroke-width: 0.243976; stroke-linecap: round"/>
   </g>
   <g id="Path3DCollection_5">
    <path d="M 82.292786 39.620144 
C 83.230421 39.620144 84.129778 39.247618 84.792786 38.58461 
C 85.455794 37.921602 85.82832 37.022244 85.82832 36.08461 
C 85.82832 35.146975 85.455794 34.247618 84.792786 33.58461 
C 84.129778 32.921602 83.230421 32.549076 82.292786 32.549076 
C 81.355152 32.549076 80.455794 32.921602 79.792786 33.58461 
C 79.129778 34.247618 78.757252 35.146975 78.757252 36.08461 
C 78.757252 37.022244 79.129778 37.921602 79.792786 38.58461 
C 80.455794 39.247618 81.355152 39.620144 82.292786 39.620144 
z
" clip-path="url(#p7ff973a29e)" style="fill: #3f007d; stroke: #00ff00; stroke-width: 2"/>
    <path d="M 63.330801 40.716825 
C 64.268436 40.716825 65.167793 40.344299 65.830801 39.681291 
C 66.493809 39.018283 66.866335 38.118925 66.866335 37.181291 
C 66.866335 36.243656 66.493809 35.344299 65.830801 34.681291 
C 65.167793 34.018283 64.268436 33.645757 63.330801 33.645757 
C 62.393167 33.645757 61.493809 34.018283 60.830801 34.681291 
C 60.167793 35.344299 59.795267 36.243656 59.795267 37.181291 
C 59.795267 38.118925 60.167793 39.018283 60.830801 39.681291 
C 61.493809 40.344299 62.393167 40.716825 63.330801 40.716825 
z
" clip-path="url(#p7ff973a29e)" style="fill: #3f007d; stroke: #00ff00; stroke-width: 2"/>
    <path d="M 98.849497 40.707443 
C 98.94326 40.707443 99.033196 40.67019 99.099497 40.603889 
C 99.165797 40.537588 99.20305 40.447653 99.20305 40.353889 
C 99.20305 40.260126 99.165797 40.17019 99.099497 40.103889 
C 99.033196 40.037588 98.94326 40.000336 98.849497 40.000336 
C 98.755733 40.000336 98.665797 40.037588 98.599497 40.103889 
C 98.533196 40.17019 98.495943 40.260126 98.495943 40.353889 
C 98.495943 40.447653 98.533196 40.537588 98.599497 40.603889 
C 98.665797 40.67019 98.755733 40.707443 98.849497 40.707443 
z
" clip-path="url(#p7ff973a29e)" style="fill: #fcfbfd; stroke: #00ff00; stroke-width: 2"/>
    <path d="M 48.385243 43.675303 
C 48.479006 43.675303 48.568942 43.63805 48.635243 43.57175 
C 48.701544 43.505449 48.738796 43.415513 48.738796 43.32175 
C 48.738796 43.227986 48.701544 43.13805 48.635243 43.07175 
C 48.568942 43.005449 48.479006 42.968196 48.385243 42.968196 
C 48.29148 42.968196 48.201544 43.005449 48.135243 43.07175 
C 48.068942 43.13805 48.03169 43.227986 48.03169 43.32175 
C 48.03169 43.415513 48.068942 43.505449 48.135243 43.57175 
C 48.201544 43.63805 48.29148 43.675303 48.385243 43.675303 
z
" clip-path="url(#p7ff973a29e)" style="fill: #fcfbfd; stroke: #ff0000; stroke-width: 2"/>
    <path d="M 107.12422 49.048233 
C 107.217984 49.048233 107.30792 49.01098 107.37422 48.944679 
C 107.440521 48.878378 107.477774 48.788443 107.477774 48.694679 
C 107.477774 48.600916 107.440521 48.51098 107.37422 48.444679 
C 107.30792 48.378378 107.217984 48.341126 107.12422 48.341126 
C 107.030457 48.341126 106.940521 48.378378 106.87422 48.444679 
C 106.80792 48.51098 106.770667 48.600916 106.770667 48.694679 
C 106.770667 48.788443 106.80792 48.878378 106.87422 48.944679 
C 106.940521 49.01098 107.030457 49.048233 107.12422 49.048233 
z
" clip-path="url(#p7ff973a29e)" style="fill: #fcfbfd; stroke: #00ff00; stroke-width: 2"/>
    <path d="M 43.032833 56.105236 
C 43.970468 56.105236 44.869826 55.732709 45.532833 55.069702 
C 46.195841 54.406694 46.568367 53.507336 46.568367 52.569702 
C 46.568367 51.632067 46.195841 50.732709 45.532833 50.069702 
C 44.869826 49.406694 43.970468 49.034168 43.032833 49.034168 
C 42.095199 49.034168 41.195841 49.406694 40.532833 50.069702 
C 39.869826 50.732709 39.497299 51.632067 39.497299 52.569702 
C 39.497299 53.507336 39.869826 54.406694 40.532833 55.069702 
C 41.195841 55.732709 42.095199 56.105236 43.032833 56.105236 
z
" clip-path="url(#p7ff973a29e)" style="fill: #3f007d; stroke: #00ff00; stroke-width: 2"/>
    <path d="M 103.415925 61.797874 
C 104.353559 61.797874 105.252917 61.425347 105.915925 60.76234 
C 106.578932 60.099332 106.951459 59.199974 106.951459 58.26234 
C 106.951459 57.324705 106.578932 56.425347 105.915925 55.76234 
C 105.252917 55.099332 104.353559 54.726806 103.415925 54.726806 
C 102.47829 54.726806 101.578932 55.099332 100.915925 55.76234 
C 100.252917 56.425347 99.880391 57.324705 99.880391 58.26234 
C 99.880391 59.199974 100.252917 60.099332 100.915925 60.76234 
C 101.578932 61.425347 102.47829 61.797874 103.415925 61.797874 
z
" clip-path="url(#p7ff973a29e)" style="fill: #3f007d; stroke: #ff0000; stroke-width: 2"/>
    <path d="M 50.10111 61.932386 
C 50.194873 61.932386 50.284809 61.895134 50.35111 61.828833 
C 50.417411 61.762532 50.454663 61.672596 50.454663 61.578833 
C 50.454663 61.485069 50.417411 61.395134 50.35111 61.328833 
C 50.284809 61.262532 50.194873 61.225279 50.10111 61.225279 
C 50.007347 61.225279 49.917411 61.262532 49.85111 61.328833 
C 49.784809 61.395134 49.747557 61.485069 49.747557 61.578833 
C 49.747557 61.672596 49.784809 61.762532 49.85111 61.828833 
C 49.917411 61.895134 50.007347 61.932386 50.10111 61.932386 
z
" clip-path="url(#p7ff973a29e)" style="fill: #fcfbfd; stroke: #00ff00; stroke-width: 2"/>
    <path d="M 88.282624 65.623507 
C 88.376387 65.623507 88.466323 65.586254 88.532624 65.519954 
C 88.598925 65.453653 88.636177 65.363717 88.636177 65.269954 
C 88.636177 65.17619 88.598925 65.086254 88.532624 65.019954 
C 88.466323 64.953653 88.376387 64.9164 88.282624 64.9164 
C 88.18886 64.9164 88.098925 64.953653 88.032624 65.019954 
C 87.966323 65.086254 87.92907 65.17619 87.92907 65.269954 
C 87.92907 65.363717 87.966323 65.453653 88.032624 65.519954 
C 88.098925 65.586254 88.18886 65.623507 88.282624 65.623507 
z
" clip-path="url(#p7ff973a29e)" style="fill: #fcfbfd; stroke: #00ff00; stroke-width: 2"/>
    <path d="M 67.556853 66.936187 
C 67.650617 66.936187 67.740553 66.898935 67.806853 66.832634 
C 67.873154 66.766333 67.910407 66.676397 67.910407 66.582634 
C 67.910407 66.48887 67.873154 66.398935 67.806853 66.332634 
C 67.740553 66.266333 67.650617 66.229081 67.556853 66.229081 
C 67.46309 66.229081 67.373154 66.266333 67.306853 66.332634 
C 67.240553 66.398935 67.2033 66.48887 67.2033 66.582634 
C 67.2033 66.676397 67.240553 66.766333 67.306853 66.832634 
C 67.373154 66.898935 67.46309 66.936187 67.556853 66.936187 
z
" clip-path="url(#p7ff973a29e)" style="fill: #fcfbfd; stroke: #00ff00; stroke-width: 2"/>
   </g>
   <g id="patch_13">
    <path d="M 73.535401 56.60795 
Q 75.353073 56.496066 77.170744 56.384183 
" clip-path="url(#p7ff973a29e)" style="fill: none; opacity: 0.621988; stroke: #dadada; stroke-width: 0.243976; stroke-linecap: round"/>
   </g>
   <g id="patch_14">
    <path d="M 72.31749 77.67404 
Q 63.285118 79.844911 54.252745 82.015782 
" clip-path="url(#p7ff973a29e)" style="fill: none; opacity: 0.775789; stroke: #888888; stroke-width: 0.551579; stroke-linecap: round"/>
   </g>
   <g id="patch_15">
    <path d="M 54.695763 80.728642 
Q 54.311162 80.906688 53.926561 81.084734 
" clip-path="url(#p7ff973a29e)" style="fill: none; opacity: 0.791579; stroke: #7e7e7e; stroke-width: 0.583158; stroke-linecap: round"/>
   </g>
   <g id="patch_16">
    <path d="M 59.111114 80.848105 
Q 68.143487 78.677234 77.175859 76.506363 
" clip-path="url(#p7ff973a29e)" style="fill: none; opacity: 0.775789; stroke: #888888; stroke-width: 0.551579; stroke-linecap: round"/>
   </g>
   <g id="patch_17">
    <path d="M 58.46587 78.98332 
Q 58.850471 78.805274 59.235072 78.627228 
" clip-path="url(#p7ff973a29e)" style="fill: none; opacity: 0.791579; stroke: #7e7e7e; stroke-width: 0.583158; stroke-linecap: round"/>
   </g>
   <g id="patch_18">
    <path d="M 72.360777 68.073217 
Q 63.189528 70.217492 54.018279 72.361767 
" clip-path="url(#p7ff973a29e)" style="fill: none; opacity: 0.633705; stroke: #d5d5d5; stroke-width: 0.267409; stroke-linecap: round"/>
   </g>
   <g id="patch_19">
    <path d="M 58.885536 71.223783 
Q 68.056785 69.079508 77.228034 66.935233 
" clip-path="url(#p7ff973a29e)" style="fill: none; opacity: 0.633705; stroke: #d5d5d5; stroke-width: 0.267409; stroke-linecap: round"/>
   </g>
   <g id="patch_20">
    <path d="M 72.30719 36.662134 
Q 70.315116 36.777348 68.323041 36.892561 
" clip-path="url(#p7ff973a29e)" style="fill: none; opacity: 0.789552; stroke: #818181; stroke-width: 0.579104; stroke-linecap: round"/>
   </g>
   <g id="patch_21">
    <path d="M 73.316397 36.603766 
Q 75.308472 36.488553 77.300546 36.37334 
" clip-path="url(#p7ff973a29e)" style="fill: none; opacity: 0.789552; stroke: #818181; stroke-width: 0.579104; stroke-linecap: round"/>
   </g>
   <g id="patch_22">
    <path d="M 72.994753 79.612714 
Q 60.893583 85.333514 48.792412 91.054315 
" clip-path="url(#p7ff973a29e)" style="fill: none; stroke: #000000; stroke-linecap: round"/>
   </g>
   <g id="patch_23">
    <path d="M 56.165922 83.026645 
Q 52.119865 86.484595 48.073808 89.942545 
" clip-path="url(#p7ff973a29e)" style="fill: none; opacity: 0.874737; stroke: #525252; stroke-width: 0.749474; stroke-linecap: round"/>
   </g>
   <g id="patch_24">
    <path d="M 53.315315 88.916123 
Q 65.416485 83.195323 77.517656 77.474522 
" clip-path="url(#p7ff973a29e)" style="fill: none; stroke: #000000; stroke-linecap: round"/>
   </g>
   <g id="patch_25">
    <path d="M 51.877175 86.692009 
Q 55.923232 83.234059 59.969288 79.776109 
" clip-path="url(#p7ff973a29e)" style="fill: none; opacity: 0.874737; stroke: #525252; stroke-width: 0.749474; stroke-linecap: round"/>
   </g>
   <g id="patch_26">
    <path d="M 72.457971 48.327402 
Q 62.991434 50.413397 53.524898 52.499391 
" clip-path="url(#p7ff973a29e)" style="fill: none; opacity: 0.603226; stroke: #e1e1e1; stroke-width: 0.206452; stroke-linecap: round"/>
   </g>
   <g id="patch_27">
    <path d="M 58.413158 51.422241 
Q 67.879695 49.336246 77.346231 47.250252 
" clip-path="url(#p7ff973a29e)" style="fill: none; opacity: 0.603226; stroke: #e1e1e1; stroke-width: 0.206452; stroke-linecap: round"/>
   </g>
   <g id="patch_28">
    <path d="M 73.011854 69.97563 
Q 60.762463 75.609173 48.513072 81.242716 
" clip-path="url(#p7ff973a29e)" style="fill: none; stroke: #000000; stroke-linecap: round"/>
   </g>
   <g id="patch_29">
    <path d="M 55.973781 73.355697 
Q 51.896536 76.744573 47.819291 80.133449 
" clip-path="url(#p7ff973a29e)" style="fill: none; opacity: 0.913649; stroke: #363636; stroke-width: 0.827298; stroke-linecap: round"/>
   </g>
   <g id="patch_30">
    <path d="M 53.059357 79.151861 
Q 65.308749 73.518318 77.55814 67.884776 
" clip-path="url(#p7ff973a29e)" style="fill: none; stroke: #000000; stroke-linecap: round"/>
   </g>
   <g id="patch_31">
    <path d="M 51.661526 76.939906 
Q 55.738771 73.55103 59.816017 70.162154 
" clip-path="url(#p7ff973a29e)" style="fill: none; opacity: 0.913649; stroke: #363636; stroke-width: 0.827298; stroke-linecap: round"/>
   </g>
   <g id="patch_32">
    <path d="M 72.512082 38.172178 
Q 62.894627 40.224904 53.277172 42.277629 
" clip-path="url(#p7ff973a29e)" style="fill: none; opacity: 0.762687; stroke: #8f8f8f; stroke-width: 0.525373; stroke-linecap: round"/>
   </g>
   <g id="patch_33">
    <path d="M 58.165947 41.234181 
Q 67.783402 39.181456 77.400857 37.128731 
" clip-path="url(#p7ff973a29e)" style="fill: none; opacity: 0.762687; stroke: #8f8f8f; stroke-width: 0.525373; stroke-linecap: round"/>
   </g>
   <g id="patch_34">
    <path d="M 105.60297 89.896607 
Q 105.758878 89.448559 105.914786 89.000511 
" clip-path="url(#p7ff973a29e)" style="fill: none; opacity: 0.695789; stroke: #b9b9b9; stroke-width: 0.391579; stroke-linecap: round"/>
   </g>
   <g id="patch_35">
    <path d="M 92.752096 96.419978 
Q 73.46299 90.531943 54.173884 84.643908 
" clip-path="url(#p7ff973a29e)" style="fill: none; opacity: 0.666316; stroke: #c7c7c7; stroke-width: 0.332632; stroke-linecap: round"/>
   </g>
   <g id="patch_36">
    <path d="M 102.628862 98.4436 
Q 102.472954 98.891648 102.317046 99.339697 
" clip-path="url(#p7ff973a29e)" style="fill: none; opacity: 0.695789; stroke: #b9b9b9; stroke-width: 0.391579; stroke-linecap: round"/>
   </g>
   <g id="patch_37">
    <path d="M 58.956585 86.103836 
Q 78.245692 91.991872 97.534798 97.879907 
" clip-path="url(#p7ff973a29e)" style="fill: none; opacity: 0.666316; stroke: #c7c7c7; stroke-width: 0.332632; stroke-linecap: round"/>
   </g>
   <g id="patch_38">
    <path d="M 73.033936 60.155733 
Q 60.631419 65.697409 48.228901 71.239085 
" clip-path="url(#p7ff973a29e)" style="fill: none; stroke: #000000; stroke-linecap: round"/>
   </g>
   <g id="patch_39">
    <path d="M 55.773073 63.503967 
Q 51.665651 66.819736 47.558228 70.135505 
" clip-path="url(#p7ff973a29e)" style="fill: none; opacity: 0.661145; stroke: #c9c9c9; stroke-width: 0.322289; stroke-linecap: round"/>
   </g>
   <g id="patch_40">
    <path d="M 52.793677 69.199458 
Q 65.196195 63.657782 77.598713 58.116106 
" clip-path="url(#p7ff973a29e)" style="fill: none; stroke: #000000; stroke-linecap: round"/>
   </g>
   <g id="patch_41">
    <path d="M 51.446549 66.996609 
Q 55.553972 63.68084 59.661395 60.365071 
" clip-path="url(#p7ff973a29e)" style="fill: none; opacity: 0.661145; stroke: #c9c9c9; stroke-width: 0.322289; stroke-linecap: round"/>
   </g>
   <g id="patch_42">
    <path d="M 105.94384 79.955684 
Q 106.076142 79.584841 106.208444 79.213999 
" clip-path="url(#p7ff973a29e)" style="fill: none; opacity: 0.649025; stroke: #cecece; stroke-width: 0.29805; stroke-linecap: round"/>
   </g>
   <g id="patch_43">
    <path d="M 102.848238 88.632649 
Q 102.715936 89.003492 102.583634 89.374334 
" clip-path="url(#p7ff973a29e)" style="fill: none; opacity: 0.649025; stroke: #cecece; stroke-width: 0.29805; stroke-linecap: round"/>
   </g>
   <g id="patch_44">
    <path d="M 73.051654 50.152133 
Q 60.494966 55.595268 47.938277 61.038404 
" clip-path="url(#p7ff973a29e)" style="fill: none; opacity: 0.948387; stroke: #1e1e1e; stroke-width: 0.896774; stroke-linecap: round"/>
   </g>
   <g id="patch_45">
    <path d="M 55.568447 53.462031 
Q 51.43022 56.701928 47.291994 59.941826 
" clip-path="url(#p7ff973a29e)" style="fill: none; opacity: 0.767742; stroke: #8d8d8d; stroke-width: 0.535484; stroke-linecap: round"/>
   </g>
   <g id="patch_46">
    <path d="M 52.527478 59.049054 
Q 65.084167 53.605919 77.640855 48.162783 
" clip-path="url(#p7ff973a29e)" style="fill: none; opacity: 0.948387; stroke: #1e1e1e; stroke-width: 0.896774; stroke-linecap: round"/>
   </g>
   <g id="patch_47">
    <path d="M 51.227365 56.860747 
Q 55.365592 53.62085 59.503818 50.380953 
" clip-path="url(#p7ff973a29e)" style="fill: none; opacity: 0.767742; stroke: #8d8d8d; stroke-width: 0.535484; stroke-linecap: round"/>
   </g>
   <g id="patch_48">
    <path d="M 106.294683 69.819821 
Q 106.401237 69.528877 106.507791 69.237934 
" clip-path="url(#p7ff973a29e)" style="fill: none; opacity: 0.63253; stroke: #d6d6d6; stroke-width: 0.26506; stroke-linecap: round"/>
   </g>
   <g id="patch_49">
    <path d="M 93.248964 76.436918 
Q 73.475928 70.728392 53.702892 65.019865 
" clip-path="url(#p7ff973a29e)" style="fill: none; opacity: 0.560241; stroke: #f1f1f1; stroke-width: 0.120482; stroke-linecap: round"/>
   </g>
   <g id="patch_50">
    <path d="M 103.068642 78.628472 
Q 102.962089 78.919416 102.855535 79.210359 
" clip-path="url(#p7ff973a29e)" style="fill: none; opacity: 0.63253; stroke: #d6d6d6; stroke-width: 0.26506; stroke-linecap: round"/>
   </g>
   <g id="patch_51">
    <path d="M 58.504597 66.40613 
Q 78.277633 72.114656 98.050669 77.823182 
" clip-path="url(#p7ff973a29e)" style="fill: none; opacity: 0.560241; stroke: #f1f1f1; stroke-width: 0.120482; stroke-linecap: round"/>
   </g>
   <g id="patch_52">
    <path d="M 94.430276 89.320508 
Q 91.983657 95.77248 89.537039 102.224453 
" clip-path="url(#p7ff973a29e)" style="fill: none; opacity: 0.616842; stroke: #dcdcdc; stroke-width: 0.233684; stroke-linecap: round"/>
   </g>
   <g id="patch_53">
    <path d="M 53.810828 96.196717 
Q 68.402553 100.795441 82.994278 105.394164 
" clip-path="url(#p7ff973a29e)" style="fill: none; opacity: 0.701053; stroke: #b5b5b5; stroke-width: 0.402105; stroke-linecap: round"/>
   </g>
   <g id="patch_54">
    <path d="M 91.311387 97.545323 
Q 93.758006 91.09335 96.204625 84.641378 
" clip-path="url(#p7ff973a29e)" style="fill: none; opacity: 0.616842; stroke: #dcdcdc; stroke-width: 0.233684; stroke-linecap: round"/>
   </g>
   <g id="patch_55">
    <path d="M 78.2272 103.891773 
Q 63.635475 99.29305 49.04375 94.694327 
" clip-path="url(#p7ff973a29e)" style="fill: none; opacity: 0.701053; stroke: #b5b5b5; stroke-width: 0.402105; stroke-linecap: round"/>
   </g>
   <g id="patch_56">
    <path d="M 73.074461 39.955346 
Q 60.358477 45.294736 47.642492 50.634125 
" clip-path="url(#p7ff973a29e)" style="fill: none; opacity: 0.777612; stroke: #878787; stroke-width: 0.555224; stroke-linecap: round"/>
   </g>
   <g id="patch_57">
    <path d="M 55.359785 43.224323 
Q 51.1871 46.387743 47.014415 49.551163 
" clip-path="url(#p7ff973a29e)" style="fill: none; opacity: 0.767164; stroke: #8d8d8d; stroke-width: 0.534328; stroke-linecap: round"/>
   </g>
   <g id="patch_58">
    <path d="M 52.251158 48.698965 
Q 64.967143 43.359576 77.683127 38.020187 
" clip-path="url(#p7ff973a29e)" style="fill: none; opacity: 0.777612; stroke: #878787; stroke-width: 0.555224; stroke-linecap: round"/>
   </g>
   <g id="patch_59">
    <path d="M 51.003849 46.52667 
Q 55.176535 43.36325 59.34922 40.19983 
" clip-path="url(#p7ff973a29e)" style="fill: none; opacity: 0.767164; stroke: #8d8d8d; stroke-width: 0.534328; stroke-linecap: round"/>
   </g>
   <g id="patch_60">
    <path d="M 96.999579 93.52548 
Q 84.661119 99.787943 72.322659 106.050406 
" clip-path="url(#p7ff973a29e)" style="fill: none; opacity: 0.633684; stroke: #d5d5d5; stroke-width: 0.267368; stroke-linecap: round"/>
   </g>
   <g id="patch_61">
    <path d="M 76.781867 103.787107 
Q 89.120327 97.524644 101.458787 91.262181 
" clip-path="url(#p7ff973a29e)" style="fill: none; opacity: 0.633684; stroke: #d5d5d5; stroke-width: 0.267368; stroke-linecap: round"/>
   </g>
   <g id="patch_62">
    <path d="M 106.655761 59.484388 
Q 106.734376 59.275571 106.812991 59.066754 
" clip-path="url(#p7ff973a29e)" style="fill: none; opacity: 0.925806; stroke: #2e2e2e; stroke-width: 0.851613; stroke-linecap: round"/>
   </g>
   <g id="patch_63">
    <path d="M 93.504913 66.144167 
Q 73.482654 60.534256 53.460395 54.924344 
" clip-path="url(#p7ff973a29e)" style="fill: none; opacity: 0.6; stroke: #e3e3e3; stroke-width: 0.2; stroke-linecap: round"/>
   </g>
   <g id="patch_64">
    <path d="M 103.29014 68.424141 
Q 103.211524 68.632958 103.132909 68.841775 
" clip-path="url(#p7ff973a29e)" style="fill: none; opacity: 0.925806; stroke: #2e2e2e; stroke-width: 0.851613; stroke-linecap: round"/>
   </g>
   <g id="patch_65">
    <path d="M 58.272098 56.272505 
Q 78.294356 61.882416 98.316615 67.492328 
" clip-path="url(#p7ff973a29e)" style="fill: none; opacity: 0.6; stroke: #e3e3e3; stroke-width: 0.2; stroke-linecap: round"/>
   </g>
   <g id="patch_66">
    <path d="M 69.965513 74.726955 
Q 77.351451 83.824211 84.737388 92.921468 
" clip-path="url(#p7ff973a29e)" style="fill: none; opacity: 0.749304; stroke: #979797; stroke-width: 0.498607; stroke-linecap: round"/>
   </g>
   <g id="patch_67">
    <path d="M 53.533636 86.264589 
Q 68.323587 90.802071 83.113538 95.339554 
" clip-path="url(#p7ff973a29e)" style="fill: none; opacity: 0.837047; stroke: #666666; stroke-width: 0.674095; stroke-linecap: round"/>
   </g>
   <g id="patch_68">
    <path d="M 81.588178 89.042587 
Q 74.202241 79.945331 66.816303 70.848074 
" clip-path="url(#p7ff973a29e)" style="fill: none; opacity: 0.749304; stroke: #979797; stroke-width: 0.498607; stroke-linecap: round"/>
   </g>
   <g id="patch_69">
    <path d="M 78.328866 93.87164 
Q 63.538915 89.334158 48.748963 84.796675 
" clip-path="url(#p7ff973a29e)" style="fill: none; opacity: 0.837047; stroke: #666666; stroke-width: 0.674095; stroke-linecap: round"/>
   </g>
   <g id="patch_70">
    <path d="M 97.244348 83.643209 
Q 84.759629 89.811979 72.27491 95.980748 
" clip-path="url(#p7ff973a29e)" style="fill: none; opacity: 0.700557; stroke: #b5b5b5; stroke-width: 0.401114; stroke-linecap: round"/>
   </g>
   <g id="patch_71">
    <path d="M 76.755653 93.766788 
Q 89.240372 87.598018 101.725091 81.429249 
" clip-path="url(#p7ff973a29e)" style="fill: none; opacity: 0.700557; stroke: #b5b5b5; stroke-width: 0.401114; stroke-linecap: round"/>
   </g>
   <g id="patch_72">
    <path d="M 77.767395 97.505635 
Q 80.335229 97.327932 82.903063 97.150228 
" clip-path="url(#p7ff973a29e)" style="fill: none; opacity: 0.711699; stroke: #aeaeae; stroke-width: 0.423398; stroke-linecap: round"/>
   </g>
   <g id="patch_73">
    <path d="M 77.914604 97.495447 
Q 75.34677 97.673151 72.778937 97.850854 
" clip-path="url(#p7ff973a29e)" style="fill: none; opacity: 0.711699; stroke: #aeaeae; stroke-width: 0.423398; stroke-linecap: round"/>
   </g>
   <g id="patch_74">
    <path d="M 97.071754 61.337822 
Q 76.148016 66.215974 55.224278 71.094126 
" clip-path="url(#p7ff973a29e)" style="fill: none; opacity: 0.709677; stroke: #afafaf; stroke-width: 0.419355; stroke-linecap: round"/>
   </g>
   <g id="patch_75">
    <path d="M 58.796667 56.149928 
Q 55.737989 61.977351 52.679312 67.804775 
" clip-path="url(#p7ff973a29e)" style="fill: none; opacity: 0.745161; stroke: #999999; stroke-width: 0.490323; stroke-linecap: round"/>
   </g>
   <g id="patch_76">
    <path d="M 60.098468 69.957759 
Q 81.022207 65.079607 101.945945 60.201455 
" clip-path="url(#p7ff973a29e)" style="fill: none; opacity: 0.709677; stroke: #afafaf; stroke-width: 0.419355; stroke-linecap: round"/>
   </g>
   <g id="patch_77">
    <path d="M 55.004272 63.375237 
Q 58.06295 57.547813 61.121627 51.72039 
" clip-path="url(#p7ff973a29e)" style="fill: none; opacity: 0.745161; stroke: #999999; stroke-width: 0.490323; stroke-linecap: round"/>
   </g>
   <g id="patch_78">
    <path d="M 107.029159 48.939944 
Q 107.07669 48.817311 107.12422 48.694679 
" clip-path="url(#p7ff973a29e)" style="fill: none; stroke: #000000; stroke-linecap: round"/>
   </g>
   <g id="patch_79">
    <path d="M 93.766074 55.642447 
Q 73.489562 50.137463 53.21305 44.632478 
" clip-path="url(#p7ff973a29e)" style="fill: none; opacity: 0.789552; stroke: #818181; stroke-width: 0.579104; stroke-linecap: round"/>
   </g>
   <g id="patch_80">
    <path d="M 103.510986 58.017075 
Q 103.463455 58.139707 103.415925 58.26234 
" clip-path="url(#p7ff973a29e)" style="fill: none; stroke: #000000; stroke-linecap: round"/>
   </g>
   <g id="patch_81">
    <path d="M 58.035093 45.941642 
Q 78.311606 51.446627 98.588118 56.951611 
" clip-path="url(#p7ff973a29e)" style="fill: none; opacity: 0.789552; stroke: #818181; stroke-width: 0.579104; stroke-linecap: round"/>
   </g>
   <g id="patch_82">
    <path d="M 53.245603 76.135761 
Q 68.235901 80.606795 83.2262 85.077829 
" clip-path="url(#p7ff973a29e)" style="fill: none; opacity: 0.75; stroke: #979797; stroke-width: 0.5; stroke-linecap: round"/>
   </g>
   <g id="patch_83">
    <path d="M 78.438026 83.6497 
Q 63.447728 79.178666 48.45743 74.707631 
" clip-path="url(#p7ff973a29e)" style="fill: none; opacity: 0.75; stroke: #979797; stroke-width: 0.5; stroke-linecap: round"/>
   </g>
   <g id="patch_84">
    <path d="M 97.493846 73.568079 
Q 84.856342 79.638922 72.218837 85.709765 
" clip-path="url(#p7ff973a29e)" style="fill: none; opacity: 0.667169; stroke: #c6c6c6; stroke-width: 0.334337; stroke-linecap: round"/>
   </g>
   <g id="patch_85">
    <path d="M 76.728864 83.543225 
Q 89.366368 77.472382 102.003873 71.401539 
" clip-path="url(#p7ff973a29e)" style="fill: none; opacity: 0.667169; stroke: #c6c6c6; stroke-width: 0.334337; stroke-linecap: round"/>
   </g>
   <g id="patch_86">
    <path d="M 77.693223 87.201955 
Q 80.361513 87.022413 83.029803 86.84287 
" clip-path="url(#p7ff973a29e)" style="fill: none; opacity: 0.64759; stroke: #cfcfcf; stroke-width: 0.295181; stroke-linecap: round"/>
   </g>
   <g id="patch_87">
    <path d="M 78.040208 87.178608 
Q 75.371917 87.35815 72.703627 87.537693 
" clip-path="url(#p7ff973a29e)" style="fill: none; opacity: 0.64759; stroke: #cfcfcf; stroke-width: 0.295181; stroke-linecap: round"/>
   </g>
   <g id="patch_88">
    <path d="M 58.565076 45.970005 
Q 55.524372 51.577522 52.483667 57.185039 
" clip-path="url(#p7ff973a29e)" style="fill: none; opacity: 0.767164; stroke: #8d8d8d; stroke-width: 0.534328; stroke-linecap: round"/>
   </g>
   <g id="patch_89">
    <path d="M 54.866835 52.790119 
Q 57.90754 47.182602 60.948244 41.575084 
" clip-path="url(#p7ff973a29e)" style="fill: none; opacity: 0.767164; stroke: #8d8d8d; stroke-width: 0.534328; stroke-linecap: round"/>
   </g>
   <g id="patch_90">
    <path d="M 94.820665 59.785559 
Q 92.436955 65.578147 90.053246 71.370734 
" clip-path="url(#p7ff973a29e)" style="fill: none; opacity: 0.706452; stroke: #b2b2b2; stroke-width: 0.412903; stroke-linecap: round"/>
   </g>
   <g id="patch_91">
    <path d="M 52.957343 65.807689 
Q 68.154027 70.207969 83.35071 74.608249 
" clip-path="url(#p7ff973a29e)" style="fill: none; opacity: 0.722581; stroke: #a8a8a8; stroke-width: 0.445161; stroke-linecap: round"/>
   </g>
   <g id="patch_92">
    <path d="M 91.953614 66.7527 
Q 94.337324 60.960113 96.721033 55.167525 
" clip-path="url(#p7ff973a29e)" style="fill: none; opacity: 0.706452; stroke: #b2b2b2; stroke-width: 0.412903; stroke-linecap: round"/>
   </g>
   <g id="patch_93">
    <path d="M 78.543972 73.216432 
Q 63.347288 68.816152 48.150605 64.415872 
" clip-path="url(#p7ff973a29e)" style="fill: none; opacity: 0.722581; stroke: #a8a8a8; stroke-width: 0.445161; stroke-linecap: round"/>
   </g>
   <g id="patch_94">
    <path d="M 97.748214 63.294387 
Q 84.95854 69.259238 72.168867 75.224089 
" clip-path="url(#p7ff973a29e)" style="fill: none; stroke: #000000; stroke-linecap: round"/>
   </g>
   <g id="patch_95">
    <path d="M 64.826188 57.201366 
Q 65.885963 64.794316 66.945738 72.387266 
" clip-path="url(#p7ff973a29e)" style="fill: none; opacity: 0.819355; stroke: #6f6f6f; stroke-width: 0.63871; stroke-linecap: round"/>
   </g>
   <g id="patch_96">
    <path d="M 59.946156 75.063959 
Q 61.393766 75.49197 62.841376 75.919981 
" clip-path="url(#p7ff973a29e)" style="fill: none; opacity: 0.725806; stroke: #a5a5a5; stroke-width: 0.451613; stroke-linecap: round"/>
   </g>
   <g id="patch_97">
    <path d="M 76.701479 73.110168 
Q 89.491153 67.145317 102.280827 61.180466 
" clip-path="url(#p7ff973a29e)" style="fill: none; stroke: #000000; stroke-linecap: round"/>
   </g>
   <g id="patch_98">
    <path d="M 66.254222 67.432773 
Q 65.194447 59.839822 64.134672 52.246872 
" clip-path="url(#p7ff973a29e)" style="fill: none; opacity: 0.819355; stroke: #6f6f6f; stroke-width: 0.63871; stroke-linecap: round"/>
   </g>
   <g id="patch_99">
    <path d="M 58.047777 74.50267 
Q 56.600167 74.074659 55.152557 73.646648 
" clip-path="url(#p7ff973a29e)" style="fill: none; opacity: 0.725806; stroke: #a5a5a5; stroke-width: 0.451613; stroke-linecap: round"/>
   </g>
   <g id="patch_100">
    <path d="M 94.944965 49.560545 
Q 92.590536 55.112149 90.236108 60.663753 
" clip-path="url(#p7ff973a29e)" style="fill: none; opacity: 0.728358; stroke: #a4a4a4; stroke-width: 0.456716; stroke-linecap: round"/>
   </g>
   <g id="patch_101">
    <path d="M 52.663328 55.272691 
Q 68.066325 59.595848 83.469323 63.919005 
" clip-path="url(#p7ff973a29e)" style="fill: none; opacity: 0.734328; stroke: #a0a0a0; stroke-width: 0.468657; stroke-linecap: round"/>
   </g>
   <g id="patch_102">
    <path d="M 92.187156 56.063298 
Q 94.541584 50.511694 96.896012 44.96009 
" clip-path="url(#p7ff973a29e)" style="fill: none; opacity: 0.728358; stroke: #a4a4a4; stroke-width: 0.456716; stroke-linecap: round"/>
   </g>
   <g id="patch_103">
    <path d="M 78.652129 62.566964 
Q 63.249132 58.243807 47.846134 53.92065 
" clip-path="url(#p7ff973a29e)" style="fill: none; opacity: 0.734328; stroke: #a0a0a0; stroke-width: 0.468657; stroke-linecap: round"/>
   </g>
   <g id="patch_104">
    <path d="M 93.67637 60.522185 
Q 83.050968 62.987572 72.425567 65.452958 
" clip-path="url(#p7ff973a29e)" style="fill: none; opacity: 0.722388; stroke: #a8a8a8; stroke-width: 0.444776; stroke-linecap: round"/>
   </g>
   <g id="patch_105">
    <path d="M 98.012424 52.814018 
Q 85.061743 58.668873 72.111062 64.523728 
" clip-path="url(#p7ff973a29e)" style="fill: none; opacity: 0.883582; stroke: #4b4b4b; stroke-width: 0.767164; stroke-linecap: round"/>
   </g>
   <g id="patch_106">
    <path d="M 77.296408 64.322788 
Q 87.92181 61.857402 98.547211 59.392016 
" clip-path="url(#p7ff973a29e)" style="fill: none; opacity: 0.722388; stroke: #a8a8a8; stroke-width: 0.444776; stroke-linecap: round"/>
   </g>
   <g id="patch_107">
    <path d="M 76.66865 62.463295 
Q 89.619331 56.60844 102.570012 50.753585 
" clip-path="url(#p7ff973a29e)" style="fill: none; opacity: 0.883582; stroke: #4b4b4b; stroke-width: 0.767164; stroke-linecap: round"/>
   </g>
  </g>
 </g>
 <defs>
  <clipPath id="p7ff973a29e">
   <rect x="18.36" y="17.28" width="110.88" height="110.88"/>
  </clipPath>
 </defs>
</svg>
