<?xml version="1.0" encoding="utf-8" standalone="no"?>
<!DOCTYPE svg PUBLIC "-//W3C//DTD SVG 1.1//EN"
  "http://www.w3.org/Graphics/SVG/1.1/DTD/svg11.dtd">
<svg xmlns:xlink="http://www.w3.org/1999/xlink" width="171.36pt" height="504pt" viewBox="0 0 171.36 504" xmlns="http://www.w3.org/2000/svg" version="1.1">
 <metadata>
  <rdf:RDF xmlns:dc="http://purl.org/dc/elements/1.1/" xmlns:cc="http://creativecommons.org/ns#" xmlns:rdf="http://www.w3.org/1999/02/22-rdf-syntax-ns#">
   <cc:Work>
    <dc:type rdf:resource="http://purl.org/dc/dcmitype/StillImage"/>
    <dc:date>2025-06-10T14:40:39.697999</dc:date>
    <dc:format>image/svg+xml</dc:format>
    <dc:creator>
     <cc:Agent>
      <dc:title>Matplotlib v3.9.2, https://matplotlib.org/</dc:title>
     </cc:Agent>
    </dc:creator>
   </cc:Work>
  </rdf:RDF>
 </metadata>
 <defs>
  <style type="text/css">*{stroke-linejoin: round; stroke-linecap: butt}</style>
 </defs>
 <g id="figure_1">
  <g id="patch_1">
   <path d="M 0 504 
L 171.36 504 
L 171.36 0 
L 0 0 
z
" style="fill: #ffffff"/>
  </g>
  <g id="axes_1">
   <g id="patch_2">
    <path d="M 12.852 98.64 
L 158.508 98.64 
L 158.508 10.8 
L 12.852 10.8 
z
" style="fill: #ffffff"/>
   </g>
   <g id="EdgeCollection_1">
    <path d="M 146.590582 55.47 
C 172.02174 68.339715 172.02174 41.100285 146.590582 53.97 
C 172.02174 41.100285 172.02174 68.339715 146.590582 55.47 
" clip-path="url(#p0caefe679a)" style="fill: #020202"/>
    <path d="M 144.411742 53.505114 
L 131.350936 35.469934 
" clip-path="url(#p0caefe679a)" style="fill: #020202"/>
    <path d="M 143.989484 53.975258 
L 90.888239 23.60283 
" clip-path="url(#p0caefe679a)" style="fill: #020202"/>
    <path d="M 143.831948 54.374195 
L 49.366655 31.993611 
" clip-path="url(#p0caefe679a)" style="fill: #020202"/>
    <path d="M 143.791544 54.72 
L 27.568456 54.72 
" clip-path="url(#p0caefe679a)" style="fill: #020202"/>
    <path d="M 143.831948 55.065805 
L 49.366655 77.446389 
" clip-path="url(#p0caefe679a)" style="fill: #020202"/>
    <path d="M 143.989484 55.464742 
L 90.888239 85.83717 
" clip-path="url(#p0caefe679a)" style="fill: #020202"/>
    <path d="M 144.411742 55.934886 
L 131.350936 73.970066 
" clip-path="url(#p0caefe679a)" style="fill: #020202"/>
    <path d="M 133.211044 27.95277 
C 153.996007 15.932841 131.336318 0.815796 128.219819 24.622954 
C 131.336318 0.815796 153.996007 15.932841 133.211044 27.95277 
" clip-path="url(#p0caefe679a)" style="fill: #020202"/>
    <path d="M 121.993345 29.227169 
L 91.518382 22.007084 
" clip-path="url(#p0caefe679a)" style="fill: #020202; stroke: #020202; stroke-width: 1.485"/>
    <path d="M 121.831727 30.61039 
L 49.528273 30.61039 
" clip-path="url(#p0caefe679a)" style="fill: #020202; stroke: #020202; stroke-width: 1.485"/>
    <path d="M 121.993345 31.993611 
L 27.528052 54.374195 
" clip-path="url(#p0caefe679a)" style="fill: #020202"/>
    <path d="M 122.623488 33.589357 
L 48.736512 75.850643 
" clip-path="url(#p0caefe679a)" style="fill: #020202; stroke: #020202; stroke-width: 1.485"/>
    <path d="M 124.312518 35.469934 
L 89.199209 83.956593 
" clip-path="url(#p0caefe679a)" style="fill: #020202; stroke: #020202; stroke-width: 1.485"/>
    <path d="M 127.831727 36.61039 
L 127.831727 72.82961 
" clip-path="url(#p0caefe679a)" style="fill: #020202; stroke: #020202; stroke-width: 1.485"/>
    <path d="M 88.68 15.42771 
C 99.299715 -6.106333 72.060285 -6.106333 82.68 15.42771 
C 72.060285 -6.106333 99.299715 -6.106333 88.68 15.42771 
" clip-path="url(#p0caefe679a)" style="fill: #020202"/>
    <path d="M 79.841618 22.007084 
L 49.366655 29.227169 
" clip-path="url(#p0caefe679a)" style="fill: #020202; stroke: #020202; stroke-width: 1.485"/>
    <path d="M 80.471761 23.60283 
L 27.370516 53.975258 
" clip-path="url(#p0caefe679a)" style="fill: #020202"/>
    <path d="M 82.160791 25.483407 
L 47.047482 73.970066 
" clip-path="url(#p0caefe679a)" style="fill: #020202; stroke: #020202; stroke-width: 1.485"/>
    <path d="M 85.68 26.623863 
L 85.68 82.816137 
" clip-path="url(#p0caefe679a)" style="fill: #020202; stroke: #020202; stroke-width: 1.485"/>
    <path d="M 89.199209 25.483407 
L 124.312518 73.970066 
" clip-path="url(#p0caefe679a)" style="fill: #020202; stroke: #020202; stroke-width: 1.485"/>
    <path d="M 43.140181 24.622954 
C 40.023682 0.815796 17.363993 15.932841 38.148956 27.95277 
C 17.363993 15.932841 40.023682 0.815796 43.140181 24.622954 
" clip-path="url(#p0caefe679a)" style="fill: #020202"/>
    <path d="M 40.009064 35.469934 
L 26.948258 53.505114 
" clip-path="url(#p0caefe679a)" style="fill: #020202"/>
    <path d="M 43.528273 36.61039 
L 43.528273 72.82961 
" clip-path="url(#p0caefe679a)" style="fill: #020202; stroke: #020202; stroke-width: 1.485"/>
    <path d="M 47.047482 35.469934 
L 82.160791 83.956593 
" clip-path="url(#p0caefe679a)" style="fill: #020202; stroke: #020202; stroke-width: 1.485"/>
    <path d="M 48.736512 33.589357 
L 122.623488 75.850643 
" clip-path="url(#p0caefe679a)" style="fill: #020202; stroke: #020202; stroke-width: 1.485"/>
    <path d="M 24.769418 53.97 
C -0.66174 41.100285 -0.66174 68.339715 24.769418 55.47 
C -0.66174 68.339715 -0.66174 41.100285 24.769418 53.97 
" clip-path="url(#p0caefe679a)" style="fill: #020202"/>
    <path d="M 26.948258 55.934886 
L 40.009064 73.970066 
" clip-path="url(#p0caefe679a)" style="fill: #020202"/>
    <path d="M 27.370516 55.464742 
L 80.471761 85.83717 
" clip-path="url(#p0caefe679a)" style="fill: #020202"/>
    <path d="M 27.528052 55.065805 
L 121.993345 77.446389 
" clip-path="url(#p0caefe679a)" style="fill: #020202"/>
    <path d="M 38.148956 81.48723 
C 17.363993 93.507159 40.023682 108.624204 43.140181 84.817046 
C 40.023682 108.624204 17.363993 93.507159 38.148956 81.48723 
" clip-path="url(#p0caefe679a)" style="fill: #020202"/>
    <path d="M 49.366655 80.212831 
L 79.841618 87.432916 
" clip-path="url(#p0caefe679a)" style="fill: #020202; stroke: #020202; stroke-width: 1.485"/>
    <path d="M 49.528273 78.82961 
L 121.831727 78.82961 
" clip-path="url(#p0caefe679a)" style="fill: #020202; stroke: #020202; stroke-width: 1.485"/>
    <path d="M 82.68 94.01229 
C 72.060285 115.546333 99.299715 115.546333 88.68 94.01229 
C 99.299715 115.546333 72.060285 115.546333 82.68 94.01229 
" clip-path="url(#p0caefe679a)" style="fill: #020202"/>
    <path d="M 91.518382 87.432916 
L 121.993345 80.212831 
" clip-path="url(#p0caefe679a)" style="fill: #020202; stroke: #020202; stroke-width: 1.485"/>
    <path d="M 128.219819 84.817046 
C 131.336318 108.624204 153.996007 93.507159 133.211044 81.48723 
C 153.996007 93.507159 131.336318 108.624204 128.219819 84.817046 
" clip-path="url(#p0caefe679a)" style="fill: #020202"/>
   </g>
   <g id="VertexCollection_1">
    <path d="M 145.291544 56.22 
C 145.689348 56.22 146.070914 56.061951 146.352204 55.78066 
C 146.633494 55.49937 146.791544 55.117805 146.791544 54.72 
C 146.791544 54.322195 146.633494 53.94063 146.352204 53.65934 
C 146.070914 53.378049 145.689348 53.22 145.291544 53.22 
C 144.893739 53.22 144.512174 53.378049 144.230884 53.65934 
C 143.949593 53.94063 143.791544 54.322195 143.791544 54.72 
C 143.791544 55.117805 143.949593 55.49937 144.230884 55.78066 
C 144.512174 56.061951 144.893739 56.22 145.291544 56.22 
z
" clip-path="url(#p0caefe679a)" style="fill: #bebebe"/>
    <path d="M 127.831727 36.61039 
C 129.422945 36.61039 130.949206 35.978192 132.074368 34.853031 
C 133.199529 33.727869 133.831727 32.201609 133.831727 30.61039 
C 133.831727 29.019171 133.199529 27.492911 132.074368 26.367749 
C 130.949206 25.242588 129.422945 24.61039 127.831727 24.61039 
C 126.240508 24.61039 124.714248 25.242588 123.589086 26.367749 
C 122.463925 27.492911 121.831727 29.019171 121.831727 30.61039 
C 121.831727 32.201609 122.463925 33.727869 123.589086 34.853031 
C 124.714248 35.978192 126.240508 36.61039 127.831727 36.61039 
z
" clip-path="url(#p0caefe679a)" style="fill: #bebebe"/>
    <path d="M 85.68 26.623863 
C 87.271219 26.623863 88.797479 25.991665 89.922641 24.866503 
C 91.047802 23.741342 91.68 22.215081 91.68 20.623863 
C 91.68 19.032644 91.047802 17.506383 89.922641 16.381222 
C 88.797479 15.25606 87.271219 14.623863 85.68 14.623863 
C 84.088781 14.623863 82.562521 15.25606 81.437359 16.381222 
C 80.312198 17.506383 79.68 19.032644 79.68 20.623863 
C 79.68 22.215081 80.312198 23.741342 81.437359 24.866503 
C 82.562521 25.991665 84.088781 26.623863 85.68 26.623863 
z
" clip-path="url(#p0caefe679a)" style="fill: #bebebe"/>
    <path d="M 43.528273 36.61039 
C 45.119492 36.61039 46.645752 35.978192 47.770914 34.853031 
C 48.896075 33.727869 49.528273 32.201609 49.528273 30.61039 
C 49.528273 29.019171 48.896075 27.492911 47.770914 26.367749 
C 46.645752 25.242588 45.119492 24.61039 43.528273 24.61039 
C 41.937055 24.61039 40.410794 25.242588 39.285632 26.367749 
C 38.160471 27.492911 37.528273 29.019171 37.528273 30.61039 
C 37.528273 32.201609 38.160471 33.727869 39.285632 34.853031 
C 40.410794 35.978192 41.937055 36.61039 43.528273 36.61039 
z
" clip-path="url(#p0caefe679a)" style="fill: #bebebe"/>
    <path d="M 26.068456 56.22 
C 26.466261 56.22 26.847826 56.061951 27.129116 55.78066 
C 27.410407 55.49937 27.568456 55.117805 27.568456 54.72 
C 27.568456 54.322195 27.410407 53.94063 27.129116 53.65934 
C 26.847826 53.378049 26.466261 53.22 26.068456 53.22 
C 25.670652 53.22 25.289086 53.378049 25.007796 53.65934 
C 24.726506 53.94063 24.568456 54.322195 24.568456 54.72 
C 24.568456 55.117805 24.726506 55.49937 25.007796 55.78066 
C 25.289086 56.061951 25.670652 56.22 26.068456 56.22 
z
" clip-path="url(#p0caefe679a)" style="fill: #bebebe"/>
    <path d="M 43.528273 84.82961 
C 45.119492 84.82961 46.645752 84.197412 47.770914 83.072251 
C 48.896075 81.947089 49.528273 80.420829 49.528273 78.82961 
C 49.528273 77.238391 48.896075 75.712131 47.770914 74.586969 
C 46.645752 73.461808 45.119492 72.82961 43.528273 72.82961 
C 41.937055 72.82961 40.410794 73.461808 39.285632 74.586969 
C 38.160471 75.712131 37.528273 77.238391 37.528273 78.82961 
C 37.528273 80.420829 38.160471 81.947089 39.285632 83.072251 
C 40.410794 84.197412 41.937055 84.82961 43.528273 84.82961 
z
" clip-path="url(#p0caefe679a)" style="fill: #bebebe"/>
    <path d="M 85.68 94.816137 
C 87.271219 94.816137 88.797479 94.18394 89.922641 93.058778 
C 91.047802 91.933617 91.68 90.407356 91.68 88.816137 
C 91.68 87.224919 91.047802 85.698658 89.922641 84.573497 
C 88.797479 83.448335 87.271219 82.816137 85.68 82.816137 
C 84.088781 82.816137 82.562521 83.448335 81.437359 84.573497 
C 80.312198 85.698658 79.68 87.224919 79.68 88.816137 
C 79.68 90.407356 80.312198 91.933617 81.437359 93.058778 
C 82.562521 94.18394 84.088781 94.816137 85.68 94.816137 
z
" clip-path="url(#p0caefe679a)" style="fill: #bebebe"/>
    <path d="M 127.831727 84.82961 
C 129.422945 84.82961 130.949206 84.197412 132.074368 83.072251 
C 133.199529 81.947089 133.831727 80.420829 133.831727 78.82961 
C 133.831727 77.238391 133.199529 75.712131 132.074368 74.586969 
C 130.949206 73.461808 129.422945 72.82961 127.831727 72.82961 
C 126.240508 72.82961 124.714248 73.461808 123.589086 74.586969 
C 122.463925 75.712131 121.831727 77.238391 121.831727 78.82961 
C 121.831727 80.420829 122.463925 81.947089 123.589086 83.072251 
C 124.714248 84.197412 126.240508 84.82961 127.831727 84.82961 
z
" clip-path="url(#p0caefe679a)" style="fill: #bebebe"/>
   </g>
   <g id="matplotlib.axis_1"/>
   <g id="matplotlib.axis_2"/>
  </g>
  <g id="axes_2">
   <g id="patch_3">
    <path d="M 12.852 197.28 
L 158.508 197.28 
L 158.508 109.44 
L 12.852 109.44 
z
" style="fill: #ffffff"/>
   </g>
   <g id="EdgeCollection_2">
    <path d="M 146.590582 154.11 
C 172.02174 166.979715 172.02174 139.740285 146.590582 152.61 
C 172.02174 139.740285 172.02174 166.979715 146.590582 154.11 
" clip-path="url(#pf9ed9dd82e)" style="fill: #020202"/>
    <path d="M 144.411742 152.145114 
L 131.350936 134.109934 
" clip-path="url(#pf9ed9dd82e)" style="fill: #020202"/>
    <path d="M 143.989484 152.615258 
L 90.888239 122.24283 
" clip-path="url(#pf9ed9dd82e)" style="fill: #020202"/>
    <path d="M 143.831948 153.014195 
L 49.366655 130.633611 
" clip-path="url(#pf9ed9dd82e)" style="fill: #020202"/>
    <path d="M 143.791544 153.36 
L 27.568456 153.36 
" clip-path="url(#pf9ed9dd82e)" style="fill: #020202"/>
    <path d="M 143.831948 153.705805 
L 49.366655 176.086389 
" clip-path="url(#pf9ed9dd82e)" style="fill: #020202"/>
    <path d="M 143.989484 154.104742 
L 90.888239 184.47717 
" clip-path="url(#pf9ed9dd82e)" style="fill: #020202"/>
    <path d="M 144.411742 154.574886 
L 128.711529 176.254724 
" clip-path="url(#pf9ed9dd82e)" style="fill: #020202"/>
    <path d="M 133.211044 126.59277 
C 153.996007 114.572841 131.336318 99.455796 128.219819 123.262954 
C 131.336318 99.455796 153.996007 114.572841 133.211044 126.59277 
" clip-path="url(#pf9ed9dd82e)" style="fill: #020202"/>
    <path d="M 121.993345 127.867169 
L 91.518382 120.647084 
" clip-path="url(#pf9ed9dd82e)" style="fill: #020202; stroke: #020202; stroke-width: 1.485"/>
    <path d="M 121.831727 129.25039 
L 49.528273 129.25039 
" clip-path="url(#pf9ed9dd82e)" style="fill: #020202; stroke: #020202; stroke-width: 1.485"/>
    <path d="M 121.993345 130.633611 
L 27.528052 153.014195 
" clip-path="url(#pf9ed9dd82e)" style="fill: #020202"/>
    <path d="M 122.623488 132.229357 
L 48.736512 174.490643 
" clip-path="url(#pf9ed9dd82e)" style="fill: #020202; stroke: #020202; stroke-width: 1.485"/>
    <path d="M 124.312518 134.109934 
L 89.199209 182.596593 
" clip-path="url(#pf9ed9dd82e)" style="fill: #020202; stroke: #020202; stroke-width: 1.485"/>
    <path d="M 127.831727 135.25039 
L 127.831727 175.96961 
" clip-path="url(#pf9ed9dd82e)" style="fill: #020202; stroke: #020202; stroke-width: 1.485"/>
    <path d="M 88.68 114.06771 
C 99.299715 92.533667 72.060285 92.533667 82.68 114.06771 
C 72.060285 92.533667 99.299715 92.533667 88.68 114.06771 
" clip-path="url(#pf9ed9dd82e)" style="fill: #020202"/>
    <path d="M 79.841618 120.647084 
L 49.366655 127.867169 
" clip-path="url(#pf9ed9dd82e)" style="fill: #020202; stroke: #020202; stroke-width: 1.485"/>
    <path d="M 80.471761 122.24283 
L 27.370516 152.615258 
" clip-path="url(#pf9ed9dd82e)" style="fill: #020202"/>
    <path d="M 82.160791 124.123407 
L 47.047482 172.610066 
" clip-path="url(#pf9ed9dd82e)" style="fill: #020202; stroke: #020202; stroke-width: 1.485"/>
    <path d="M 85.68 125.263863 
L 85.68 181.456137 
" clip-path="url(#pf9ed9dd82e)" style="fill: #020202; stroke: #020202; stroke-width: 1.485"/>
    <path d="M 89.199209 124.123407 
L 126.951925 176.254724 
" clip-path="url(#pf9ed9dd82e)" style="fill: #020202; stroke: #020202; stroke-width: 1.485"/>
    <path d="M 43.140181 123.262954 
C 40.023682 99.455796 17.363993 114.572841 38.148956 126.59277 
C 17.363993 114.572841 40.023682 99.455796 43.140181 123.262954 
" clip-path="url(#pf9ed9dd82e)" style="fill: #020202"/>
    <path d="M 40.009064 134.109934 
L 26.948258 152.145114 
" clip-path="url(#pf9ed9dd82e)" style="fill: #020202"/>
    <path d="M 43.528273 135.25039 
L 43.528273 171.46961 
" clip-path="url(#pf9ed9dd82e)" style="fill: #020202; stroke: #020202; stroke-width: 1.485"/>
    <path d="M 47.047482 134.109934 
L 82.160791 182.596593 
" clip-path="url(#pf9ed9dd82e)" style="fill: #020202; stroke: #020202; stroke-width: 1.485"/>
    <path d="M 48.736512 132.229357 
L 126.529667 176.724868 
" clip-path="url(#pf9ed9dd82e)" style="fill: #020202; stroke: #020202; stroke-width: 1.485"/>
    <path d="M 24.769418 152.61 
C -0.66174 139.740285 -0.66174 166.979715 24.769418 154.11 
C -0.66174 166.979715 -0.66174 139.740285 24.769418 152.61 
" clip-path="url(#pf9ed9dd82e)" style="fill: #020202"/>
    <path d="M 26.948258 154.574886 
L 40.009064 172.610066 
" clip-path="url(#pf9ed9dd82e)" style="fill: #020202; stroke: #020202; stroke-width: 1.485"/>
    <path d="M 27.370516 154.104742 
L 80.471761 184.47717 
" clip-path="url(#pf9ed9dd82e)" style="fill: #020202; stroke: #020202; stroke-width: 1.485"/>
    <path d="M 27.528052 153.705805 
L 126.372131 177.123805 
" clip-path="url(#pf9ed9dd82e)" style="fill: #020202"/>
    <path d="M 38.148956 180.12723 
C 17.363993 192.147159 40.023682 207.264204 43.140181 183.457046 
C 40.023682 207.264204 17.363993 192.147159 38.148956 180.12723 
" clip-path="url(#pf9ed9dd82e)" style="fill: #020202"/>
    <path d="M 49.366655 178.852831 
L 79.841618 186.072916 
" clip-path="url(#pf9ed9dd82e)" style="fill: #020202; stroke: #020202; stroke-width: 1.485"/>
    <path d="M 49.528273 177.46961 
L 126.331727 177.46961 
" clip-path="url(#pf9ed9dd82e)" style="fill: #020202"/>
    <path d="M 82.68 192.65229 
C 72.060285 214.186333 99.299715 214.186333 88.68 192.65229 
C 99.299715 214.186333 72.060285 214.186333 82.68 192.65229 
" clip-path="url(#pf9ed9dd82e)" style="fill: #020202"/>
    <path d="M 91.518382 186.072916 
L 126.372131 177.815415 
" clip-path="url(#pf9ed9dd82e)" style="fill: #020202"/>
    <path d="M 127.92875 178.966469 
C 131.336318 207.264204 153.996007 192.147159 129.176556 178.134015 
C 153.996007 192.147159 131.336318 207.264204 127.92875 178.966469 
" clip-path="url(#pf9ed9dd82e)" style="fill: #020202"/>
   </g>
   <g id="VertexCollection_2">
    <path d="M 145.291544 154.86 
C 145.689348 154.86 146.070914 154.701951 146.352204 154.42066 
C 146.633494 154.13937 146.791544 153.757805 146.791544 153.36 
C 146.791544 152.962195 146.633494 152.58063 146.352204 152.29934 
C 146.070914 152.018049 145.689348 151.86 145.291544 151.86 
C 144.893739 151.86 144.512174 152.018049 144.230884 152.29934 
C 143.949593 152.58063 143.791544 152.962195 143.791544 153.36 
C 143.791544 153.757805 143.949593 154.13937 144.230884 154.42066 
C 144.512174 154.701951 144.893739 154.86 145.291544 154.86 
z
" clip-path="url(#pf9ed9dd82e)" style="fill: #bebebe"/>
    <path d="M 127.831727 135.25039 
C 129.422945 135.25039 130.949206 134.618192 132.074368 133.493031 
C 133.199529 132.367869 133.831727 130.841609 133.831727 129.25039 
C 133.831727 127.659171 133.199529 126.132911 132.074368 125.007749 
C 130.949206 123.882588 129.422945 123.25039 127.831727 123.25039 
C 126.240508 123.25039 124.714248 123.882588 123.589086 125.007749 
C 122.463925 126.132911 121.831727 127.659171 121.831727 129.25039 
C 121.831727 130.841609 122.463925 132.367869 123.589086 133.493031 
C 124.714248 134.618192 126.240508 135.25039 127.831727 135.25039 
z
" clip-path="url(#pf9ed9dd82e)" style="fill: #bebebe"/>
    <path d="M 85.68 125.263863 
C 87.271219 125.263863 88.797479 124.631665 89.922641 123.506503 
C 91.047802 122.381342 91.68 120.855081 91.68 119.263863 
C 91.68 117.672644 91.047802 116.146383 89.922641 115.021222 
C 88.797479 113.89606 87.271219 113.263863 85.68 113.263863 
C 84.088781 113.263863 82.562521 113.89606 81.437359 115.021222 
C 80.312198 116.146383 79.68 117.672644 79.68 119.263863 
C 79.68 120.855081 80.312198 122.381342 81.437359 123.506503 
C 82.562521 124.631665 84.088781 125.263863 85.68 125.263863 
z
" clip-path="url(#pf9ed9dd82e)" style="fill: #bebebe"/>
    <path d="M 43.528273 135.25039 
C 45.119492 135.25039 46.645752 134.618192 47.770914 133.493031 
C 48.896075 132.367869 49.528273 130.841609 49.528273 129.25039 
C 49.528273 127.659171 48.896075 126.132911 47.770914 125.007749 
C 46.645752 123.882588 45.119492 123.25039 43.528273 123.25039 
C 41.937055 123.25039 40.410794 123.882588 39.285632 125.007749 
C 38.160471 126.132911 37.528273 127.659171 37.528273 129.25039 
C 37.528273 130.841609 38.160471 132.367869 39.285632 133.493031 
C 40.410794 134.618192 41.937055 135.25039 43.528273 135.25039 
z
" clip-path="url(#pf9ed9dd82e)" style="fill: #bebebe"/>
    <path d="M 26.068456 154.86 
C 26.466261 154.86 26.847826 154.701951 27.129116 154.42066 
C 27.410407 154.13937 27.568456 153.757805 27.568456 153.36 
C 27.568456 152.962195 27.410407 152.58063 27.129116 152.29934 
C 26.847826 152.018049 26.466261 151.86 26.068456 151.86 
C 25.670652 151.86 25.289086 152.018049 25.007796 152.29934 
C 24.726506 152.58063 24.568456 152.962195 24.568456 153.36 
C 24.568456 153.757805 24.726506 154.13937 25.007796 154.42066 
C 25.289086 154.701951 25.670652 154.86 26.068456 154.86 
z
" clip-path="url(#pf9ed9dd82e)" style="fill: #bebebe"/>
    <path d="M 43.528273 183.46961 
C 45.119492 183.46961 46.645752 182.837412 47.770914 181.712251 
C 48.896075 180.587089 49.528273 179.060829 49.528273 177.46961 
C 49.528273 175.878391 48.896075 174.352131 47.770914 173.226969 
C 46.645752 172.101808 45.119492 171.46961 43.528273 171.46961 
C 41.937055 171.46961 40.410794 172.101808 39.285632 173.226969 
C 38.160471 174.352131 37.528273 175.878391 37.528273 177.46961 
C 37.528273 179.060829 38.160471 180.587089 39.285632 181.712251 
C 40.410794 182.837412 41.937055 183.46961 43.528273 183.46961 
z
" clip-path="url(#pf9ed9dd82e)" style="fill: #bebebe"/>
    <path d="M 85.68 193.456137 
C 87.271219 193.456137 88.797479 192.82394 89.922641 191.698778 
C 91.047802 190.573617 91.68 189.047356 91.68 187.456137 
C 91.68 185.864919 91.047802 184.338658 89.922641 183.213497 
C 88.797479 182.088335 87.271219 181.456137 85.68 181.456137 
C 84.088781 181.456137 82.562521 182.088335 81.437359 183.213497 
C 80.312198 184.338658 79.68 185.864919 79.68 187.456137 
C 79.68 189.047356 80.312198 190.573617 81.437359 191.698778 
C 82.562521 192.82394 84.088781 193.456137 85.68 193.456137 
z
" clip-path="url(#pf9ed9dd82e)" style="fill: #bebebe"/>
    <path d="M 127.831727 178.96961 
C 128.229532 178.96961 128.611097 178.811561 128.892387 178.53027 
C 129.173677 178.24898 129.331727 177.867415 129.331727 177.46961 
C 129.331727 177.071805 129.173677 176.69024 128.892387 176.40895 
C 128.611097 176.127659 128.229532 175.96961 127.831727 175.96961 
C 127.433922 175.96961 127.052357 176.127659 126.771067 176.40895 
C 126.489776 176.69024 126.331727 177.071805 126.331727 177.46961 
C 126.331727 177.867415 126.489776 178.24898 126.771067 178.53027 
C 127.052357 178.811561 127.433922 178.96961 127.831727 178.96961 
z
" clip-path="url(#pf9ed9dd82e)" style="fill: #bebebe"/>
   </g>
   <g id="matplotlib.axis_3"/>
   <g id="matplotlib.axis_4"/>
  </g>
  <g id="axes_3">
   <g id="patch_4">
    <path d="M 12.852 295.92 
L 158.508 295.92 
L 158.508 208.08 
L 12.852 208.08 
z
" style="fill: #ffffff"/>
   </g>
   <g id="EdgeCollection_3">
    <path d="M 146.590582 252.75 
C 172.02174 265.619715 172.02174 238.380285 146.590582 251.25 
C 172.02174 238.380285 172.02174 265.619715 146.590582 252.75 
" clip-path="url(#pa8aca04386)" style="fill: #020202"/>
    <path d="M 144.411742 250.785114 
L 131.350936 232.749934 
" clip-path="url(#pa8aca04386)" style="fill: #020202"/>
    <path d="M 143.989484 251.255258 
L 90.888239 220.88283 
" clip-path="url(#pa8aca04386)" style="fill: #020202"/>
    <path d="M 143.831948 251.654195 
L 49.366655 229.273611 
" clip-path="url(#pa8aca04386)" style="fill: #020202"/>
    <path d="M 143.791544 252 
L 27.568456 252 
" clip-path="url(#pa8aca04386)" style="fill: #020202"/>
    <path d="M 143.831948 252.345805 
L 49.366655 274.726389 
" clip-path="url(#pa8aca04386)" style="fill: #020202"/>
    <path d="M 143.989484 252.744742 
L 90.888239 283.11717 
" clip-path="url(#pa8aca04386)" style="fill: #020202"/>
    <path d="M 144.411742 253.214886 
L 131.350936 271.250066 
" clip-path="url(#pa8aca04386)" style="fill: #020202"/>
    <path d="M 133.211044 225.23277 
C 153.996007 213.212841 131.336318 198.095796 128.219819 221.902954 
C 131.336318 198.095796 153.996007 213.212841 133.211044 225.23277 
" clip-path="url(#pa8aca04386)" style="fill: #020202"/>
    <path d="M 121.993345 226.507169 
L 91.518382 219.287084 
" clip-path="url(#pa8aca04386)" style="fill: #020202; stroke: #020202; stroke-width: 1.485"/>
    <path d="M 121.831727 227.89039 
L 49.528273 227.89039 
" clip-path="url(#pa8aca04386)" style="fill: #020202; stroke: #020202; stroke-width: 1.485"/>
    <path d="M 121.993345 229.273611 
L 27.528052 251.654195 
" clip-path="url(#pa8aca04386)" style="fill: #020202"/>
    <path d="M 122.623488 230.869357 
L 48.736512 273.130643 
" clip-path="url(#pa8aca04386)" style="fill: #020202; stroke: #020202; stroke-width: 1.485"/>
    <path d="M 124.312518 232.749934 
L 89.199209 281.236593 
" clip-path="url(#pa8aca04386)" style="fill: #020202; stroke: #020202; stroke-width: 1.485"/>
    <path d="M 127.831727 233.89039 
L 127.831727 270.10961 
" clip-path="url(#pa8aca04386)" style="fill: #020202; stroke: #020202; stroke-width: 1.485"/>
    <path d="M 88.68 212.70771 
C 99.299715 191.173667 72.060285 191.173667 82.68 212.70771 
C 72.060285 191.173667 99.299715 191.173667 88.68 212.70771 
" clip-path="url(#pa8aca04386)" style="fill: #020202"/>
    <path d="M 79.841618 219.287084 
L 49.366655 226.507169 
" clip-path="url(#pa8aca04386)" style="fill: #020202; stroke: #020202; stroke-width: 1.485"/>
    <path d="M 80.471761 220.88283 
L 27.370516 251.255258 
" clip-path="url(#pa8aca04386)" style="fill: #020202"/>
    <path d="M 82.160791 222.763407 
L 47.047482 271.250066 
" clip-path="url(#pa8aca04386)" style="fill: #020202; stroke: #020202; stroke-width: 1.485"/>
    <path d="M 85.68 223.903863 
L 85.68 280.096137 
" clip-path="url(#pa8aca04386)" style="fill: #020202; stroke: #020202; stroke-width: 1.485"/>
    <path d="M 89.199209 222.763407 
L 124.312518 271.250066 
" clip-path="url(#pa8aca04386)" style="fill: #020202; stroke: #020202; stroke-width: 1.485"/>
    <path d="M 43.140181 221.902954 
C 40.023682 198.095796 17.363993 213.212841 38.148956 225.23277 
C 17.363993 213.212841 40.023682 198.095796 43.140181 221.902954 
" clip-path="url(#pa8aca04386)" style="fill: #020202"/>
    <path d="M 40.009064 232.749934 
L 26.948258 250.785114 
" clip-path="url(#pa8aca04386)" style="fill: #020202"/>
    <path d="M 43.528273 233.89039 
L 43.528273 270.10961 
" clip-path="url(#pa8aca04386)" style="fill: #020202; stroke: #020202; stroke-width: 1.485"/>
    <path d="M 47.047482 232.749934 
L 82.160791 281.236593 
" clip-path="url(#pa8aca04386)" style="fill: #020202; stroke: #020202; stroke-width: 1.485"/>
    <path d="M 48.736512 230.869357 
L 122.623488 273.130643 
" clip-path="url(#pa8aca04386)" style="fill: #020202; stroke: #020202; stroke-width: 1.485"/>
    <path d="M 24.769418 251.25 
C -0.66174 238.380285 -0.66174 265.619715 24.769418 252.75 
C -0.66174 265.619715 -0.66174 238.380285 24.769418 251.25 
" clip-path="url(#pa8aca04386)" style="fill: #020202"/>
    <path d="M 26.948258 253.214886 
L 40.009064 271.250066 
" clip-path="url(#pa8aca04386)" style="fill: #020202"/>
    <path d="M 27.370516 252.744742 
L 80.471761 283.11717 
" clip-path="url(#pa8aca04386)" style="fill: #020202"/>
    <path d="M 27.528052 252.345805 
L 121.993345 274.726389 
" clip-path="url(#pa8aca04386)" style="fill: #020202"/>
    <path d="M 38.148956 278.76723 
C 17.363993 290.787159 40.023682 305.904204 43.140181 282.097046 
C 40.023682 305.904204 17.363993 290.787159 38.148956 278.76723 
" clip-path="url(#pa8aca04386)" style="fill: #020202"/>
    <path d="M 49.366655 277.492831 
L 79.841618 284.712916 
" clip-path="url(#pa8aca04386)" style="fill: #020202; stroke: #020202; stroke-width: 1.485"/>
    <path d="M 49.528273 276.10961 
L 121.831727 276.10961 
" clip-path="url(#pa8aca04386)" style="fill: #020202; stroke: #020202; stroke-width: 1.485"/>
    <path d="M 82.68 291.29229 
C 72.060285 312.826333 99.299715 312.826333 88.68 291.29229 
C 99.299715 312.826333 72.060285 312.826333 82.68 291.29229 
" clip-path="url(#pa8aca04386)" style="fill: #020202"/>
    <path d="M 91.518382 284.712916 
L 121.993345 277.492831 
" clip-path="url(#pa8aca04386)" style="fill: #020202; stroke: #020202; stroke-width: 1.485"/>
    <path d="M 128.219819 282.097046 
C 131.336318 305.904204 153.996007 290.787159 133.211044 278.76723 
C 153.996007 290.787159 131.336318 305.904204 128.219819 282.097046 
" clip-path="url(#pa8aca04386)" style="fill: #020202"/>
   </g>
   <g id="VertexCollection_3">
    <path d="M 145.291544 253.5 
C 145.689348 253.5 146.070914 253.341951 146.352204 253.06066 
C 146.633494 252.77937 146.791544 252.397805 146.791544 252 
C 146.791544 251.602195 146.633494 251.22063 146.352204 250.93934 
C 146.070914 250.658049 145.689348 250.5 145.291544 250.5 
C 144.893739 250.5 144.512174 250.658049 144.230884 250.93934 
C 143.949593 251.22063 143.791544 251.602195 143.791544 252 
C 143.791544 252.397805 143.949593 252.77937 144.230884 253.06066 
C 144.512174 253.341951 144.893739 253.5 145.291544 253.5 
z
" clip-path="url(#pa8aca04386)" style="fill: #bebebe"/>
    <path d="M 127.831727 233.89039 
C 129.422945 233.89039 130.949206 233.258192 132.074368 232.133031 
C 133.199529 231.007869 133.831727 229.481609 133.831727 227.89039 
C 133.831727 226.299171 133.199529 224.772911 132.074368 223.647749 
C 130.949206 222.522588 129.422945 221.89039 127.831727 221.89039 
C 126.240508 221.89039 124.714248 222.522588 123.589086 223.647749 
C 122.463925 224.772911 121.831727 226.299171 121.831727 227.89039 
C 121.831727 229.481609 122.463925 231.007869 123.589086 232.133031 
C 124.714248 233.258192 126.240508 233.89039 127.831727 233.89039 
z
" clip-path="url(#pa8aca04386)" style="fill: #bebebe"/>
    <path d="M 85.68 223.903863 
C 87.271219 223.903863 88.797479 223.271665 89.922641 222.146503 
C 91.047802 221.021342 91.68 219.495081 91.68 217.903863 
C 91.68 216.312644 91.047802 214.786383 89.922641 213.661222 
C 88.797479 212.53606 87.271219 211.903863 85.68 211.903863 
C 84.088781 211.903863 82.562521 212.53606 81.437359 213.661222 
C 80.312198 214.786383 79.68 216.312644 79.68 217.903863 
C 79.68 219.495081 80.312198 221.021342 81.437359 222.146503 
C 82.562521 223.271665 84.088781 223.903863 85.68 223.903863 
z
" clip-path="url(#pa8aca04386)" style="fill: #bebebe"/>
    <path d="M 43.528273 233.89039 
C 45.119492 233.89039 46.645752 233.258192 47.770914 232.133031 
C 48.896075 231.007869 49.528273 229.481609 49.528273 227.89039 
C 49.528273 226.299171 48.896075 224.772911 47.770914 223.647749 
C 46.645752 222.522588 45.119492 221.89039 43.528273 221.89039 
C 41.937055 221.89039 40.410794 222.522588 39.285632 223.647749 
C 38.160471 224.772911 37.528273 226.299171 37.528273 227.89039 
C 37.528273 229.481609 38.160471 231.007869 39.285632 232.133031 
C 40.410794 233.258192 41.937055 233.89039 43.528273 233.89039 
z
" clip-path="url(#pa8aca04386)" style="fill: #bebebe"/>
    <path d="M 26.068456 253.5 
C 26.466261 253.5 26.847826 253.341951 27.129116 253.06066 
C 27.410407 252.77937 27.568456 252.397805 27.568456 252 
C 27.568456 251.602195 27.410407 251.22063 27.129116 250.93934 
C 26.847826 250.658049 26.466261 250.5 26.068456 250.5 
C 25.670652 250.5 25.289086 250.658049 25.007796 250.93934 
C 24.726506 251.22063 24.568456 251.602195 24.568456 252 
C 24.568456 252.397805 24.726506 252.77937 25.007796 253.06066 
C 25.289086 253.341951 25.670652 253.5 26.068456 253.5 
z
" clip-path="url(#pa8aca04386)" style="fill: #bebebe"/>
    <path d="M 43.528273 282.10961 
C 45.119492 282.10961 46.645752 281.477412 47.770914 280.352251 
C 48.896075 279.227089 49.528273 277.700829 49.528273 276.10961 
C 49.528273 274.518391 48.896075 272.992131 47.770914 271.866969 
C 46.645752 270.741808 45.119492 270.10961 43.528273 270.10961 
C 41.937055 270.10961 40.410794 270.741808 39.285632 271.866969 
C 38.160471 272.992131 37.528273 274.518391 37.528273 276.10961 
C 37.528273 277.700829 38.160471 279.227089 39.285632 280.352251 
C 40.410794 281.477412 41.937055 282.10961 43.528273 282.10961 
z
" clip-path="url(#pa8aca04386)" style="fill: #bebebe"/>
    <path d="M 85.68 292.096137 
C 87.271219 292.096137 88.797479 291.46394 89.922641 290.338778 
C 91.047802 289.213617 91.68 287.687356 91.68 286.096137 
C 91.68 284.504919 91.047802 282.978658 89.922641 281.853497 
C 88.797479 280.728335 87.271219 280.096137 85.68 280.096137 
C 84.088781 280.096137 82.562521 280.728335 81.437359 281.853497 
C 80.312198 282.978658 79.68 284.504919 79.68 286.096137 
C 79.68 287.687356 80.312198 289.213617 81.437359 290.338778 
C 82.562521 291.46394 84.088781 292.096137 85.68 292.096137 
z
" clip-path="url(#pa8aca04386)" style="fill: #bebebe"/>
    <path d="M 127.831727 282.10961 
C 129.422945 282.10961 130.949206 281.477412 132.074368 280.352251 
C 133.199529 279.227089 133.831727 277.700829 133.831727 276.10961 
C 133.831727 274.518391 133.199529 272.992131 132.074368 271.866969 
C 130.949206 270.741808 129.422945 270.10961 127.831727 270.10961 
C 126.240508 270.10961 124.714248 270.741808 123.589086 271.866969 
C 122.463925 272.992131 121.831727 274.518391 121.831727 276.10961 
C 121.831727 277.700829 122.463925 279.227089 123.589086 280.352251 
C 124.714248 281.477412 126.240508 282.10961 127.831727 282.10961 
z
" clip-path="url(#pa8aca04386)" style="fill: #bebebe"/>
   </g>
   <g id="matplotlib.axis_5"/>
   <g id="matplotlib.axis_6"/>
  </g>
  <g id="axes_4">
   <g id="patch_5">
    <path d="M 12.852 394.56 
L 158.508 394.56 
L 158.508 306.72 
L 12.852 306.72 
z
" style="fill: #ffffff"/>
   </g>
   <g id="EdgeCollection_4">
    <path d="M 146.598758 351.39 
C 172.029916 364.259715 172.029916 337.020285 146.598758 349.89 
C 172.029916 337.020285 172.029916 364.259715 146.598758 351.39 
" clip-path="url(#p138909110c)" style="fill: #020202"/>
    <path d="M 144.428158 349.419189 
L 131.573615 331.413633 
" clip-path="url(#p138909110c)" style="fill: #020202"/>
    <path d="M 144.002283 349.887233 
L 91.722812 319.55493 
" clip-path="url(#p138909110c)" style="fill: #020202"/>
    <path d="M 143.841247 350.289493 
L 50.812657 327.932419 
" clip-path="url(#p138909110c)" style="fill: #020202"/>
    <path d="M 143.79972 350.64 
L 33.766409 350.64 
" clip-path="url(#p138909110c)" style="fill: #020202"/>
    <path d="M 143.841247 350.990507 
L 50.812657 373.347581 
" clip-path="url(#p138909110c)" style="fill: #020202"/>
    <path d="M 144.002283 351.392767 
L 91.722812 381.72507 
" clip-path="url(#p138909110c)" style="fill: #020202"/>
    <path d="M 144.428158 351.860811 
L 128.958928 373.528799 
" clip-path="url(#p138909110c)" style="fill: #020202"/>
    <path d="M 133.479888 323.899669 
C 154.324622 311.983695 131.740715 296.75367 128.505355 320.544967 
C 131.740715 296.75367 154.324622 311.983695 133.479888 323.899669 
" clip-path="url(#p138909110c)" style="fill: #020202"/>
    <path d="M 122.253472 325.128361 
L 92.366958 317.945892 
" clip-path="url(#p138909110c)" style="fill: #020202; stroke: #020202; stroke-width: 1.485"/>
    <path d="M 122.087365 326.53039 
L 50.978764 326.53039 
" clip-path="url(#p138909110c)" style="fill: #020202; stroke: #020202; stroke-width: 1.485"/>
    <path d="M 122.253472 327.932419 
L 33.600302 349.237971 
" clip-path="url(#p138909110c)" style="fill: #020202; stroke: #020202; stroke-width: 1.485"/>
    <path d="M 122.897618 329.541457 
L 50.168511 371.738543 
" clip-path="url(#p138909110c)" style="fill: #020202; stroke: #020202; stroke-width: 1.485"/>
    <path d="M 124.601116 331.413633 
L 90.019314 379.852894 
" clip-path="url(#p138909110c)" style="fill: #020202; stroke: #020202; stroke-width: 1.485"/>
    <path d="M 128.087365 332.53039 
L 128.087365 373.24961 
" clip-path="url(#p138909110c)" style="fill: #020202"/>
    <path d="M 89.533064 311.34771 
C 100.152779 289.813667 72.913349 289.813667 83.533064 311.34771 
C 72.913349 289.813667 100.152779 289.813667 89.533064 311.34771 
" clip-path="url(#p138909110c)" style="fill: #020202"/>
    <path d="M 80.699171 317.945892 
L 50.812657 325.128361 
" clip-path="url(#p138909110c)" style="fill: #020202; stroke: #020202; stroke-width: 1.485"/>
    <path d="M 81.343317 319.55493 
L 32.956156 347.628933 
" clip-path="url(#p138909110c)" style="fill: #020202; stroke: #020202; stroke-width: 1.485"/>
    <path d="M 83.046815 321.427106 
L 48.465013 369.866367 
" clip-path="url(#p138909110c)" style="fill: #020202; stroke: #020202; stroke-width: 1.485"/>
    <path d="M 86.533064 322.543863 
L 86.533064 378.736137 
" clip-path="url(#p138909110c)" style="fill: #020202; stroke: #020202; stroke-width: 1.485"/>
    <path d="M 90.019314 321.427106 
L 127.215803 373.528799 
" clip-path="url(#p138909110c)" style="fill: #020202"/>
    <path d="M 44.560774 320.544967 
C 41.325414 296.75367 18.741506 311.983695 39.58624 323.899669 
C 18.741506 311.983695 41.325414 296.75367 44.560774 320.544967 
" clip-path="url(#p138909110c)" style="fill: #020202"/>
    <path d="M 41.492514 331.413633 
L 31.252658 345.756757 
" clip-path="url(#p138909110c)" style="fill: #020202; stroke: #020202; stroke-width: 1.485"/>
    <path d="M 44.978764 332.53039 
L 44.978764 368.74961 
" clip-path="url(#p138909110c)" style="fill: #020202; stroke: #020202; stroke-width: 1.485"/>
    <path d="M 48.465013 331.413633 
L 83.046815 379.852894 
" clip-path="url(#p138909110c)" style="fill: #020202; stroke: #020202; stroke-width: 1.485"/>
    <path d="M 50.168511 329.541457 
L 126.789928 373.996843 
" clip-path="url(#p138909110c)" style="fill: #020202"/>
    <path d="M 22.570256 347.64 
C 1.036213 337.020285 1.036213 364.259715 22.570256 353.64 
C 1.036213 364.259715 1.036213 337.020285 22.570256 347.64 
" clip-path="url(#p138909110c)" style="fill: #020202"/>
    <path d="M 31.252658 355.523243 
L 41.492514 369.866367 
" clip-path="url(#p138909110c)" style="fill: #020202; stroke: #020202; stroke-width: 1.485"/>
    <path d="M 32.956156 353.651067 
L 81.343317 381.72507 
" clip-path="url(#p138909110c)" style="fill: #020202; stroke: #020202; stroke-width: 1.485"/>
    <path d="M 33.600302 352.042029 
L 126.628892 374.399103 
" clip-path="url(#p138909110c)" style="fill: #020202"/>
    <path d="M 39.58624 377.380331 
C 18.741506 389.296305 41.325414 404.52633 44.560774 380.735033 
C 41.325414 404.52633 18.741506 389.296305 39.58624 377.380331 
" clip-path="url(#p138909110c)" style="fill: #020202"/>
    <path d="M 50.812657 376.151639 
L 80.699171 383.334108 
" clip-path="url(#p138909110c)" style="fill: #020202; stroke: #020202; stroke-width: 1.485"/>
    <path d="M 50.978764 374.74961 
L 126.587365 374.74961 
" clip-path="url(#p138909110c)" style="fill: #020202"/>
    <path d="M 83.533064 389.93229 
C 72.913349 411.466333 100.152779 411.466333 89.533064 389.93229 
C 100.152779 411.466333 72.913349 411.466333 83.533064 389.93229 
" clip-path="url(#p138909110c)" style="fill: #020202"/>
    <path d="M 92.366958 383.334108 
L 126.628892 375.100117 
" clip-path="url(#p138909110c)" style="fill: #020202"/>
    <path d="M 128.191863 376.245966 
C 131.740715 404.52633 154.324622 389.296305 129.435496 375.40729 
C 154.324622 389.296305 131.740715 404.52633 128.191863 376.245966 
" clip-path="url(#p138909110c)" style="fill: #020202"/>
   </g>
   <g id="VertexCollection_4">
    <path d="M 145.29972 352.14 
C 145.697525 352.14 146.07909 351.981951 146.36038 351.70066 
C 146.641671 351.41937 146.79972 351.037805 146.79972 350.64 
C 146.79972 350.242195 146.641671 349.86063 146.36038 349.57934 
C 146.07909 349.298049 145.697525 349.14 145.29972 349.14 
C 144.901916 349.14 144.52035 349.298049 144.23906 349.57934 
C 143.95777 349.86063 143.79972 350.242195 143.79972 350.64 
C 143.79972 351.037805 143.95777 351.41937 144.23906 351.70066 
C 144.52035 351.981951 144.901916 352.14 145.29972 352.14 
z
" clip-path="url(#p138909110c)" style="fill: #bebebe"/>
    <path d="M 128.087365 332.53039 
C 129.678584 332.53039 131.204844 331.898192 132.330006 330.773031 
C 133.455167 329.647869 134.087365 328.121609 134.087365 326.53039 
C 134.087365 324.939171 133.455167 323.412911 132.330006 322.287749 
C 131.204844 321.162588 129.678584 320.53039 128.087365 320.53039 
C 126.496147 320.53039 124.969886 321.162588 123.844725 322.287749 
C 122.719563 323.412911 122.087365 324.939171 122.087365 326.53039 
C 122.087365 328.121609 122.719563 329.647869 123.844725 330.773031 
C 124.969886 331.898192 126.496147 332.53039 128.087365 332.53039 
z
" clip-path="url(#p138909110c)" style="fill: #bebebe"/>
    <path d="M 86.533064 322.543863 
C 88.124283 322.543863 89.650544 321.911665 90.775705 320.786503 
C 91.900867 319.661342 92.533064 318.135081 92.533064 316.543863 
C 92.533064 314.952644 91.900867 313.426383 90.775705 312.301222 
C 89.650544 311.17606 88.124283 310.543863 86.533064 310.543863 
C 84.941846 310.543863 83.415585 311.17606 82.290424 312.301222 
C 81.165262 313.426383 80.533064 314.952644 80.533064 316.543863 
C 80.533064 318.135081 81.165262 319.661342 82.290424 320.786503 
C 83.415585 321.911665 84.941846 322.543863 86.533064 322.543863 
z
" clip-path="url(#p138909110c)" style="fill: #bebebe"/>
    <path d="M 44.978764 332.53039 
C 46.569982 332.53039 48.096243 331.898192 49.221404 330.773031 
C 50.346566 329.647869 50.978764 328.121609 50.978764 326.53039 
C 50.978764 324.939171 50.346566 323.412911 49.221404 322.287749 
C 48.096243 321.162588 46.569982 320.53039 44.978764 320.53039 
C 43.387545 320.53039 41.861284 321.162588 40.736123 322.287749 
C 39.610961 323.412911 38.978764 324.939171 38.978764 326.53039 
C 38.978764 328.121609 39.610961 329.647869 40.736123 330.773031 
C 41.861284 331.898192 43.387545 332.53039 44.978764 332.53039 
z
" clip-path="url(#p138909110c)" style="fill: #bebebe"/>
    <path d="M 27.766409 356.64 
C 29.357627 356.64 30.883888 356.007802 32.009049 354.882641 
C 33.134211 353.757479 33.766409 352.231219 33.766409 350.64 
C 33.766409 349.048781 33.134211 347.522521 32.009049 346.397359 
C 30.883888 345.272198 29.357627 344.64 27.766409 344.64 
C 26.17519 344.64 24.648929 345.272198 23.523768 346.397359 
C 22.398606 347.522521 21.766409 349.048781 21.766409 350.64 
C 21.766409 352.231219 22.398606 353.757479 23.523768 354.882641 
C 24.648929 356.007802 26.17519 356.64 27.766409 356.64 
z
" clip-path="url(#p138909110c)" style="fill: #bebebe"/>
    <path d="M 44.978764 380.74961 
C 46.569982 380.74961 48.096243 380.117412 49.221404 378.992251 
C 50.346566 377.867089 50.978764 376.340829 50.978764 374.74961 
C 50.978764 373.158391 50.346566 371.632131 49.221404 370.506969 
C 48.096243 369.381808 46.569982 368.74961 44.978764 368.74961 
C 43.387545 368.74961 41.861284 369.381808 40.736123 370.506969 
C 39.610961 371.632131 38.978764 373.158391 38.978764 374.74961 
C 38.978764 376.340829 39.610961 377.867089 40.736123 378.992251 
C 41.861284 380.117412 43.387545 380.74961 44.978764 380.74961 
z
" clip-path="url(#p138909110c)" style="fill: #bebebe"/>
    <path d="M 86.533064 390.736137 
C 88.124283 390.736137 89.650544 390.10394 90.775705 388.978778 
C 91.900867 387.853617 92.533064 386.327356 92.533064 384.736137 
C 92.533064 383.144919 91.900867 381.618658 90.775705 380.493497 
C 89.650544 379.368335 88.124283 378.736137 86.533064 378.736137 
C 84.941846 378.736137 83.415585 379.368335 82.290424 380.493497 
C 81.165262 381.618658 80.533064 383.144919 80.533064 384.736137 
C 80.533064 386.327356 81.165262 387.853617 82.290424 388.978778 
C 83.415585 390.10394 84.941846 390.736137 86.533064 390.736137 
z
" clip-path="url(#p138909110c)" style="fill: #bebebe"/>
    <path d="M 128.087365 376.24961 
C 128.48517 376.24961 128.866735 376.091561 129.148025 375.81027 
C 129.429316 375.52898 129.587365 375.147415 129.587365 374.74961 
C 129.587365 374.351805 129.429316 373.97024 129.148025 373.68895 
C 128.866735 373.407659 128.48517 373.24961 128.087365 373.24961 
C 127.689561 373.24961 127.307995 373.407659 127.026705 373.68895 
C 126.745415 373.97024 126.587365 374.351805 126.587365 374.74961 
C 126.587365 375.147415 126.745415 375.52898 127.026705 375.81027 
C 127.307995 376.091561 127.689561 376.24961 128.087365 376.24961 
z
" clip-path="url(#p138909110c)" style="fill: #bebebe"/>
   </g>
   <g id="matplotlib.axis_7"/>
   <g id="matplotlib.axis_8"/>
  </g>
  <g id="axes_5">
   <g id="patch_6">
    <path d="M 12.852 493.2 
L 158.508 493.2 
L 158.508 405.36 
L 12.852 405.36 
z
" style="fill: #ffffff"/>
   </g>
   <g id="EdgeCollection_5">
    <path d="M 146.598758 450.03 
C 172.029916 462.899715 172.029916 435.660285 146.598758 448.53 
C 172.029916 435.660285 172.029916 462.899715 146.598758 450.03 
" clip-path="url(#pdd3c1b0bd6)" style="fill: #020202"/>
    <path d="M 144.428158 448.059189 
L 131.573615 430.053633 
" clip-path="url(#pdd3c1b0bd6)" style="fill: #020202"/>
    <path d="M 144.002283 448.527233 
L 91.722812 418.19493 
" clip-path="url(#pdd3c1b0bd6)" style="fill: #020202"/>
    <path d="M 143.841247 448.929493 
L 50.812657 426.572419 
" clip-path="url(#pdd3c1b0bd6)" style="fill: #020202"/>
    <path d="M 143.79972 449.28 
L 33.766409 449.28 
" clip-path="url(#pdd3c1b0bd6)" style="fill: #020202"/>
    <path d="M 143.841247 449.630507 
L 50.812657 471.987581 
" clip-path="url(#pdd3c1b0bd6)" style="fill: #020202"/>
    <path d="M 144.002283 450.032767 
L 91.722812 480.36507 
" clip-path="url(#pdd3c1b0bd6)" style="fill: #020202"/>
    <path d="M 144.428158 450.500811 
L 128.958928 472.168799 
" clip-path="url(#pdd3c1b0bd6)" style="fill: #020202"/>
    <path d="M 133.479888 422.539669 
C 154.324622 410.623695 131.740715 395.39367 128.505355 419.184967 
C 131.740715 395.39367 154.324622 410.623695 133.479888 422.539669 
" clip-path="url(#pdd3c1b0bd6)" style="fill: #020202"/>
    <path d="M 122.253472 423.768361 
L 92.366958 416.585892 
" clip-path="url(#pdd3c1b0bd6)" style="fill: #020202; stroke: #020202; stroke-width: 1.485"/>
    <path d="M 122.087365 425.17039 
L 50.978764 425.17039 
" clip-path="url(#pdd3c1b0bd6)" style="fill: #020202; stroke: #020202; stroke-width: 1.485"/>
    <path d="M 122.253472 426.572419 
L 33.600302 447.877971 
" clip-path="url(#pdd3c1b0bd6)" style="fill: #020202; stroke: #020202; stroke-width: 1.485"/>
    <path d="M 122.897618 428.181457 
L 50.168511 470.378543 
" clip-path="url(#pdd3c1b0bd6)" style="fill: #020202; stroke: #020202; stroke-width: 1.485"/>
    <path d="M 124.601116 430.053633 
L 90.019314 478.492894 
" clip-path="url(#pdd3c1b0bd6)" style="fill: #020202; stroke: #020202; stroke-width: 1.485"/>
    <path d="M 128.087365 431.17039 
L 128.087365 471.88961 
" clip-path="url(#pdd3c1b0bd6)" style="fill: #020202"/>
    <path d="M 89.533064 409.98771 
C 100.152779 388.453667 72.913349 388.453667 83.533064 409.98771 
C 72.913349 388.453667 100.152779 388.453667 89.533064 409.98771 
" clip-path="url(#pdd3c1b0bd6)" style="fill: #020202"/>
    <path d="M 80.699171 416.585892 
L 50.812657 423.768361 
" clip-path="url(#pdd3c1b0bd6)" style="fill: #020202; stroke: #020202; stroke-width: 1.485"/>
    <path d="M 81.343317 418.19493 
L 32.956156 446.268933 
" clip-path="url(#pdd3c1b0bd6)" style="fill: #020202; stroke: #020202; stroke-width: 1.485"/>
    <path d="M 83.046815 420.067106 
L 48.465013 468.506367 
" clip-path="url(#pdd3c1b0bd6)" style="fill: #020202; stroke: #020202; stroke-width: 1.485"/>
    <path d="M 86.533064 421.183863 
L 86.533064 477.376137 
" clip-path="url(#pdd3c1b0bd6)" style="fill: #020202; stroke: #020202; stroke-width: 1.485"/>
    <path d="M 90.019314 420.067106 
L 127.215803 472.168799 
" clip-path="url(#pdd3c1b0bd6)" style="fill: #020202"/>
    <path d="M 44.560774 419.184967 
C 41.325414 395.39367 18.741506 410.623695 39.58624 422.539669 
C 18.741506 410.623695 41.325414 395.39367 44.560774 419.184967 
" clip-path="url(#pdd3c1b0bd6)" style="fill: #020202"/>
    <path d="M 41.492514 430.053633 
L 31.252658 444.396757 
" clip-path="url(#pdd3c1b0bd6)" style="fill: #020202; stroke: #020202; stroke-width: 1.485"/>
    <path d="M 44.978764 431.17039 
L 44.978764 467.38961 
" clip-path="url(#pdd3c1b0bd6)" style="fill: #020202; stroke: #020202; stroke-width: 1.485"/>
    <path d="M 48.465013 430.053633 
L 83.046815 478.492894 
" clip-path="url(#pdd3c1b0bd6)" style="fill: #020202; stroke: #020202; stroke-width: 1.485"/>
    <path d="M 50.168511 428.181457 
L 126.789928 472.636843 
" clip-path="url(#pdd3c1b0bd6)" style="fill: #020202"/>
    <path d="M 22.570256 446.28 
C 1.036213 435.660285 1.036213 462.899715 22.570256 452.28 
C 1.036213 462.899715 1.036213 435.660285 22.570256 446.28 
" clip-path="url(#pdd3c1b0bd6)" style="fill: #020202"/>
    <path d="M 31.252658 454.163243 
L 41.492514 468.506367 
" clip-path="url(#pdd3c1b0bd6)" style="fill: #020202; stroke: #020202; stroke-width: 1.485"/>
    <path d="M 32.956156 452.291067 
L 81.343317 480.36507 
" clip-path="url(#pdd3c1b0bd6)" style="fill: #020202; stroke: #020202; stroke-width: 1.485"/>
    <path d="M 33.600302 450.682029 
L 126.628892 473.039103 
" clip-path="url(#pdd3c1b0bd6)" style="fill: #020202"/>
    <path d="M 39.58624 476.020331 
C 18.741506 487.936305 41.325414 503.16633 44.560774 479.375033 
C 41.325414 503.16633 18.741506 487.936305 39.58624 476.020331 
" clip-path="url(#pdd3c1b0bd6)" style="fill: #020202"/>
    <path d="M 50.812657 474.791639 
L 80.699171 481.974108 
" clip-path="url(#pdd3c1b0bd6)" style="fill: #020202; stroke: #020202; stroke-width: 1.485"/>
    <path d="M 50.978764 473.38961 
L 126.587365 473.38961 
" clip-path="url(#pdd3c1b0bd6)" style="fill: #020202"/>
    <path d="M 83.533064 488.57229 
C 72.913349 510.106333 100.152779 510.106333 89.533064 488.57229 
C 100.152779 510.106333 72.913349 510.106333 83.533064 488.57229 
" clip-path="url(#pdd3c1b0bd6)" style="fill: #020202"/>
    <path d="M 92.366958 481.974108 
L 126.628892 473.740117 
" clip-path="url(#pdd3c1b0bd6)" style="fill: #020202"/>
    <path d="M 128.191863 474.885966 
C 131.740715 503.16633 154.324622 487.936305 129.435496 474.04729 
C 154.324622 487.936305 131.740715 503.16633 128.191863 474.885966 
" clip-path="url(#pdd3c1b0bd6)" style="fill: #020202"/>
   </g>
   <g id="VertexCollection_5">
    <path d="M 145.29972 450.78 
C 145.697525 450.78 146.07909 450.621951 146.36038 450.34066 
C 146.641671 450.05937 146.79972 449.677805 146.79972 449.28 
C 146.79972 448.882195 146.641671 448.50063 146.36038 448.21934 
C 146.07909 447.938049 145.697525 447.78 145.29972 447.78 
C 144.901916 447.78 144.52035 447.938049 144.23906 448.21934 
C 143.95777 448.50063 143.79972 448.882195 143.79972 449.28 
C 143.79972 449.677805 143.95777 450.05937 144.23906 450.34066 
C 144.52035 450.621951 144.901916 450.78 145.29972 450.78 
z
" clip-path="url(#pdd3c1b0bd6)" style="fill: #bebebe"/>
    <path d="M 128.087365 431.17039 
C 129.678584 431.17039 131.204844 430.538192 132.330006 429.413031 
C 133.455167 428.287869 134.087365 426.761609 134.087365 425.17039 
C 134.087365 423.579171 133.455167 422.052911 132.330006 420.927749 
C 131.204844 419.802588 129.678584 419.17039 128.087365 419.17039 
C 126.496147 419.17039 124.969886 419.802588 123.844725 420.927749 
C 122.719563 422.052911 122.087365 423.579171 122.087365 425.17039 
C 122.087365 426.761609 122.719563 428.287869 123.844725 429.413031 
C 124.969886 430.538192 126.496147 431.17039 128.087365 431.17039 
z
" clip-path="url(#pdd3c1b0bd6)" style="fill: #bebebe"/>
    <path d="M 86.533064 421.183863 
C 88.124283 421.183863 89.650544 420.551665 90.775705 419.426503 
C 91.900867 418.301342 92.533064 416.775081 92.533064 415.183863 
C 92.533064 413.592644 91.900867 412.066383 90.775705 410.941222 
C 89.650544 409.81606 88.124283 409.183863 86.533064 409.183863 
C 84.941846 409.183863 83.415585 409.81606 82.290424 410.941222 
C 81.165262 412.066383 80.533064 413.592644 80.533064 415.183863 
C 80.533064 416.775081 81.165262 418.301342 82.290424 419.426503 
C 83.415585 420.551665 84.941846 421.183863 86.533064 421.183863 
z
" clip-path="url(#pdd3c1b0bd6)" style="fill: #bebebe"/>
    <path d="M 44.978764 431.17039 
C 46.569982 431.17039 48.096243 430.538192 49.221404 429.413031 
C 50.346566 428.287869 50.978764 426.761609 50.978764 425.17039 
C 50.978764 423.579171 50.346566 422.052911 49.221404 420.927749 
C 48.096243 419.802588 46.569982 419.17039 44.978764 419.17039 
C 43.387545 419.17039 41.861284 419.802588 40.736123 420.927749 
C 39.610961 422.052911 38.978764 423.579171 38.978764 425.17039 
C 38.978764 426.761609 39.610961 428.287869 40.736123 429.413031 
C 41.861284 430.538192 43.387545 431.17039 44.978764 431.17039 
z
" clip-path="url(#pdd3c1b0bd6)" style="fill: #bebebe"/>
    <path d="M 27.766409 455.28 
C 29.357627 455.28 30.883888 454.647802 32.009049 453.522641 
C 33.134211 452.397479 33.766409 450.871219 33.766409 449.28 
C 33.766409 447.688781 33.134211 446.162521 32.009049 445.037359 
C 30.883888 443.912198 29.357627 443.28 27.766409 443.28 
C 26.17519 443.28 24.648929 443.912198 23.523768 445.037359 
C 22.398606 446.162521 21.766409 447.688781 21.766409 449.28 
C 21.766409 450.871219 22.398606 452.397479 23.523768 453.522641 
C 24.648929 454.647802 26.17519 455.28 27.766409 455.28 
z
" clip-path="url(#pdd3c1b0bd6)" style="fill: #bebebe"/>
    <path d="M 44.978764 479.38961 
C 46.569982 479.38961 48.096243 478.757412 49.221404 477.632251 
C 50.346566 476.507089 50.978764 474.980829 50.978764 473.38961 
C 50.978764 471.798391 50.346566 470.272131 49.221404 469.146969 
C 48.096243 468.021808 46.569982 467.38961 44.978764 467.38961 
C 43.387545 467.38961 41.861284 468.021808 40.736123 469.146969 
C 39.610961 470.272131 38.978764 471.798391 38.978764 473.38961 
C 38.978764 474.980829 39.610961 476.507089 40.736123 477.632251 
C 41.861284 478.757412 43.387545 479.38961 44.978764 479.38961 
z
" clip-path="url(#pdd3c1b0bd6)" style="fill: #bebebe"/>
    <path d="M 86.533064 489.376137 
C 88.124283 489.376137 89.650544 488.74394 90.775705 487.618778 
C 91.900867 486.493617 92.533064 484.967356 92.533064 483.376137 
C 92.533064 481.784919 91.900867 480.258658 90.775705 479.133497 
C 89.650544 478.008335 88.124283 477.376137 86.533064 477.376137 
C 84.941846 477.376137 83.415585 478.008335 82.290424 479.133497 
C 81.165262 480.258658 80.533064 481.784919 80.533064 483.376137 
C 80.533064 484.967356 81.165262 486.493617 82.290424 487.618778 
C 83.415585 488.74394 84.941846 489.376137 86.533064 489.376137 
z
" clip-path="url(#pdd3c1b0bd6)" style="fill: #bebebe"/>
    <path d="M 128.087365 474.88961 
C 128.48517 474.88961 128.866735 474.731561 129.148025 474.45027 
C 129.429316 474.16898 129.587365 473.787415 129.587365 473.38961 
C 129.587365 472.991805 129.429316 472.61024 129.148025 472.32895 
C 128.866735 472.047659 128.48517 471.88961 128.087365 471.88961 
C 127.689561 471.88961 127.307995 472.047659 127.026705 472.32895 
C 126.745415 472.61024 126.587365 472.991805 126.587365 473.38961 
C 126.587365 473.787415 126.745415 474.16898 127.026705 474.45027 
C 127.307995 474.731561 127.689561 474.88961 128.087365 474.88961 
z
" clip-path="url(#pdd3c1b0bd6)" style="fill: #bebebe"/>
   </g>
   <g id="matplotlib.axis_9"/>
   <g id="matplotlib.axis_10"/>
  </g>
 </g>
 <defs>
  <clipPath id="p0caefe679a">
   <rect x="12.852" y="10.8" width="145.656" height="87.84"/>
  </clipPath>
  <clipPath id="pf9ed9dd82e">
   <rect x="12.852" y="109.44" width="145.656" height="87.84"/>
  </clipPath>
  <clipPath id="pa8aca04386">
   <rect x="12.852" y="208.08" width="145.656" height="87.84"/>
  </clipPath>
  <clipPath id="p138909110c">
   <rect x="12.852" y="306.72" width="145.656" height="87.84"/>
  </clipPath>
  <clipPath id="pdd3c1b0bd6">
   <rect x="12.852" y="405.36" width="145.656" height="87.84"/>
  </clipPath>
 </defs>
</svg>
