<?xml version="1.0" encoding="utf-8" standalone="no"?>
<!DOCTYPE svg PUBLIC "-//W3C//DTD SVG 1.1//EN"
  "http://www.w3.org/Graphics/SVG/1.1/DTD/svg11.dtd">
<svg xmlns:xlink="http://www.w3.org/1999/xlink" width="171.36pt" height="504pt" viewBox="0 0 171.36 504" xmlns="http://www.w3.org/2000/svg" version="1.1">
 <metadata>
  <rdf:RDF xmlns:dc="http://purl.org/dc/elements/1.1/" xmlns:cc="http://creativecommons.org/ns#" xmlns:rdf="http://www.w3.org/1999/02/22-rdf-syntax-ns#">
   <cc:Work>
    <dc:type rdf:resource="http://purl.org/dc/dcmitype/StillImage"/>
    <dc:date>2025-06-10T14:39:51.980336</dc:date>
    <dc:format>image/svg+xml</dc:format>
    <dc:creator>
     <cc:Agent>
      <dc:title>Matplotlib v3.9.2, https://matplotlib.org/</dc:title>
     </cc:Agent>
    </dc:creator>
   </cc:Work>
  </rdf:RDF>
 </metadata>
 <defs>
  <style type="text/css">*{stroke-linejoin: round; stroke-linecap: butt}</style>
 </defs>
 <g id="figure_1">
  <g id="patch_1">
   <path d="M 0 504 
L 171.36 504 
L 171.36 0 
L 0 0 
z
" style="fill: #ffffff"/>
  </g>
  <g id="axes_1">
   <g id="patch_2">
    <path d="M 12.852 98.64 
L 158.508 98.64 
L 158.508 10.8 
L 12.852 10.8 
z
" style="fill: #ffffff"/>
   </g>
   <g id="EdgeCollection_1">
    <path d="M 146.590582 56.314731 
C 172.02174 69.184446 172.02174 41.945016 146.590582 54.814731 
C 172.02174 41.945016 172.02174 69.184446 146.590582 56.314731 
" clip-path="url(#p0d9a4c7b64)" style="fill: #020202"/>
    <path d="M 144.425022 54.340337 
L 131.297813 35.791607 
" clip-path="url(#p0d9a4c7b64)" style="fill: #020202"/>
    <path d="M 143.996976 54.807041 
L 90.858273 23.705851 
" clip-path="url(#p0d9a4c7b64)" style="fill: #020202"/>
    <path d="M 143.833771 55.211319 
L 49.359363 32.307676 
" clip-path="url(#p0d9a4c7b64)" style="fill: #020202"/>
    <path d="M 143.791544 55.564731 
L 27.568456 55.564731 
" clip-path="url(#p0d9a4c7b64)" style="fill: #020202"/>
    <path d="M 143.833771 55.918142 
L 44.986046 79.882018 
" clip-path="url(#p0d9a4c7b64)" style="fill: #020202"/>
    <path d="M 143.996976 56.32242 
L 86.974568 89.696678 
" clip-path="url(#p0d9a4c7b64)" style="fill: #020202"/>
    <path d="M 144.425022 56.789124 
L 128.698248 79.011035 
" clip-path="url(#p0d9a4c7b64)" style="fill: #020202"/>
    <path d="M 133.232267 28.279809 
C 154.113334 16.427618 131.576093 1.128621 128.268014 24.909915 
C 131.576093 1.128621 154.113334 16.427618 133.232267 28.279809 
" clip-path="url(#p0d9a4c7b64)" style="fill: #020202"/>
    <path d="M 122.000637 29.480388 
L 91.51109 22.088738 
" clip-path="url(#p0d9a4c7b64)" style="fill: #020202; stroke: #020202; stroke-width: 1.485"/>
    <path d="M 121.831727 30.894032 
L 49.528273 30.894032 
" clip-path="url(#p0d9a4c7b64)" style="fill: #020202; stroke: #020202; stroke-width: 1.485"/>
    <path d="M 122.000637 32.307676 
L 27.526229 55.211319 
" clip-path="url(#p0d9a4c7b64)" style="fill: #020202"/>
    <path d="M 122.653454 33.924789 
L 44.822841 79.47774 
" clip-path="url(#p0d9a4c7b64)" style="fill: #020202; stroke: #020202; stroke-width: 1.485"/>
    <path d="M 124.365641 35.791607 
L 86.546522 89.229973 
" clip-path="url(#p0d9a4c7b64)" style="fill: #020202"/>
    <path d="M 127.831727 36.894032 
L 127.831727 78.735429 
" clip-path="url(#p0d9a4c7b64)" style="fill: #020202; stroke: #020202; stroke-width: 1.485"/>
    <path d="M 88.68 15.478942 
C 99.299715 -6.055102 72.060285 -6.055102 82.68 15.478942 
C 72.060285 -6.055102 99.299715 -6.055102 88.68 15.478942 
" clip-path="url(#p0d9a4c7b64)" style="fill: #020202"/>
    <path d="M 79.84891 22.088738 
L 49.359363 29.480388 
" clip-path="url(#p0d9a4c7b64)" style="fill: #020202; stroke: #020202; stroke-width: 1.485"/>
    <path d="M 80.501727 23.705851 
L 27.363024 54.807041 
" clip-path="url(#p0d9a4c7b64)" style="fill: #020202"/>
    <path d="M 82.213914 25.57267 
L 44.394795 79.011035 
" clip-path="url(#p0d9a4c7b64)" style="fill: #020202"/>
    <path d="M 85.68 26.675094 
L 85.68 88.954367 
" clip-path="url(#p0d9a4c7b64)" style="fill: #020202; stroke: #020202; stroke-width: 1.485"/>
    <path d="M 89.146086 25.57267 
L 126.965205 79.011035 
" clip-path="url(#p0d9a4c7b64)" style="fill: #020202; stroke: #020202; stroke-width: 1.485"/>
    <path d="M 43.091986 24.909915 
C 39.783907 1.128621 17.246666 16.427618 38.127733 28.279809 
C 17.246666 16.427618 39.783907 1.128621 43.091986 24.909915 
" clip-path="url(#p0d9a4c7b64)" style="fill: #020202"/>
    <path d="M 40.062187 35.791607 
L 26.934978 54.340337 
" clip-path="url(#p0d9a4c7b64)" style="fill: #020202"/>
    <path d="M 43.528273 36.894032 
L 43.528273 78.735429 
" clip-path="url(#p0d9a4c7b64)" style="fill: #020202"/>
    <path d="M 46.994359 35.791607 
L 84.813478 89.229973 
" clip-path="url(#p0d9a4c7b64)" style="fill: #020202; stroke: #020202; stroke-width: 1.485"/>
    <path d="M 48.706546 33.924789 
L 126.537159 79.47774 
" clip-path="url(#p0d9a4c7b64)" style="fill: #020202; stroke: #020202; stroke-width: 1.485"/>
    <path d="M 24.769418 54.814731 
C -0.66174 41.945016 -0.66174 69.184446 24.769418 56.314731 
C -0.66174 69.184446 -0.66174 41.945016 24.769418 54.814731 
" clip-path="url(#p0d9a4c7b64)" style="fill: #020202"/>
    <path d="M 26.934978 56.789124 
L 42.661752 79.011035 
" clip-path="url(#p0d9a4c7b64)" style="fill: #020202"/>
    <path d="M 27.363024 56.32242 
L 84.385432 89.696678 
" clip-path="url(#p0d9a4c7b64)" style="fill: #020202"/>
    <path d="M 27.526229 55.918142 
L 126.373954 79.882018 
" clip-path="url(#p0d9a4c7b64)" style="fill: #020202"/>
    <path d="M 42.178138 80.888985 
C 17.246666 94.701843 39.783907 110.000841 43.419201 81.731458 
C 39.783907 110.000841 17.246666 94.701843 42.178138 80.888985 
" clip-path="url(#p0d9a4c7b64)" style="fill: #020202"/>
    <path d="M 44.986046 80.58884 
L 84.222228 90.100956 
" clip-path="url(#p0d9a4c7b64)" style="fill: #020202; stroke: #020202; stroke-width: 1.485"/>
    <path d="M 45.028273 80.235429 
L 126.331727 80.235429 
" clip-path="url(#p0d9a4c7b64)" style="fill: #020202"/>
    <path d="M 84.93 91.753405 
C 72.060285 117.184563 99.299715 117.184563 86.43 91.753405 
C 99.299715 117.184563 72.060285 117.184563 84.93 91.753405 
" clip-path="url(#p0d9a4c7b64)" style="fill: #020202"/>
    <path d="M 87.137772 90.100956 
L 126.373954 80.58884 
" clip-path="url(#p0d9a4c7b64)" style="fill: #020202"/>
    <path d="M 127.940799 81.731458 
C 131.576093 110.000841 154.113334 94.701843 129.181862 80.888985 
C 154.113334 94.701843 131.576093 110.000841 127.940799 81.731458 
" clip-path="url(#p0d9a4c7b64)" style="fill: #020202"/>
   </g>
   <g id="VertexCollection_1">
    <path d="M 145.291544 57.064731 
C 145.689348 57.064731 146.070914 56.906681 146.352204 56.625391 
C 146.633494 56.3441 146.791544 55.962535 146.791544 55.564731 
C 146.791544 55.166926 146.633494 54.785361 146.352204 54.50407 
C 146.070914 54.22278 145.689348 54.064731 145.291544 54.064731 
C 144.893739 54.064731 144.512174 54.22278 144.230884 54.50407 
C 143.949593 54.785361 143.791544 55.166926 143.791544 55.564731 
C 143.791544 55.962535 143.949593 56.3441 144.230884 56.625391 
C 144.512174 56.906681 144.893739 57.064731 145.291544 57.064731 
z
" clip-path="url(#p0d9a4c7b64)" style="fill: #bebebe"/>
    <path d="M 127.831727 36.894032 
C 129.422945 36.894032 130.949206 36.261834 132.074368 35.136673 
C 133.199529 34.011511 133.831727 32.485251 133.831727 30.894032 
C 133.831727 29.302813 133.199529 27.776553 132.074368 26.651391 
C 130.949206 25.52623 129.422945 24.894032 127.831727 24.894032 
C 126.240508 24.894032 124.714248 25.52623 123.589086 26.651391 
C 122.463925 27.776553 121.831727 29.302813 121.831727 30.894032 
C 121.831727 32.485251 122.463925 34.011511 123.589086 35.136673 
C 124.714248 36.261834 126.240508 36.894032 127.831727 36.894032 
z
" clip-path="url(#p0d9a4c7b64)" style="fill: #bebebe"/>
    <path d="M 85.68 26.675094 
C 87.271219 26.675094 88.797479 26.042896 89.922641 24.917735 
C 91.047802 23.792573 91.68 22.266313 91.68 20.675094 
C 91.68 19.083875 91.047802 17.557615 89.922641 16.432453 
C 88.797479 15.307292 87.271219 14.675094 85.68 14.675094 
C 84.088781 14.675094 82.562521 15.307292 81.437359 16.432453 
C 80.312198 17.557615 79.68 19.083875 79.68 20.675094 
C 79.68 22.266313 80.312198 23.792573 81.437359 24.917735 
C 82.562521 26.042896 84.088781 26.675094 85.68 26.675094 
z
" clip-path="url(#p0d9a4c7b64)" style="fill: #bebebe"/>
    <path d="M 43.528273 36.894032 
C 45.119492 36.894032 46.645752 36.261834 47.770914 35.136673 
C 48.896075 34.011511 49.528273 32.485251 49.528273 30.894032 
C 49.528273 29.302813 48.896075 27.776553 47.770914 26.651391 
C 46.645752 25.52623 45.119492 24.894032 43.528273 24.894032 
C 41.937055 24.894032 40.410794 25.52623 39.285632 26.651391 
C 38.160471 27.776553 37.528273 29.302813 37.528273 30.894032 
C 37.528273 32.485251 38.160471 34.011511 39.285632 35.136673 
C 40.410794 36.261834 41.937055 36.894032 43.528273 36.894032 
z
" clip-path="url(#p0d9a4c7b64)" style="fill: #bebebe"/>
    <path d="M 26.068456 57.064731 
C 26.466261 57.064731 26.847826 56.906681 27.129116 56.625391 
C 27.410407 56.3441 27.568456 55.962535 27.568456 55.564731 
C 27.568456 55.166926 27.410407 54.785361 27.129116 54.50407 
C 26.847826 54.22278 26.466261 54.064731 26.068456 54.064731 
C 25.670652 54.064731 25.289086 54.22278 25.007796 54.50407 
C 24.726506 54.785361 24.568456 55.166926 24.568456 55.564731 
C 24.568456 55.962535 24.726506 56.3441 25.007796 56.625391 
C 25.289086 56.906681 25.670652 57.064731 26.068456 57.064731 
z
" clip-path="url(#p0d9a4c7b64)" style="fill: #bebebe"/>
    <path d="M 43.528273 81.735429 
C 43.926078 81.735429 44.307643 81.57738 44.588933 81.296089 
C 44.870224 81.014799 45.028273 80.633234 45.028273 80.235429 
C 45.028273 79.837624 44.870224 79.456059 44.588933 79.174769 
C 44.307643 78.893479 43.926078 78.735429 43.528273 78.735429 
C 43.130468 78.735429 42.748903 78.893479 42.467613 79.174769 
C 42.186323 79.456059 42.028273 79.837624 42.028273 80.235429 
C 42.028273 80.633234 42.186323 81.014799 42.467613 81.296089 
C 42.748903 81.57738 43.130468 81.735429 43.528273 81.735429 
z
" clip-path="url(#p0d9a4c7b64)" style="fill: #bebebe"/>
    <path d="M 85.68 91.954367 
C 86.077805 91.954367 86.45937 91.796318 86.74066 91.515027 
C 87.021951 91.233737 87.18 90.852172 87.18 90.454367 
C 87.18 90.056562 87.021951 89.674997 86.74066 89.393707 
C 86.45937 89.112416 86.077805 88.954367 85.68 88.954367 
C 85.282195 88.954367 84.90063 89.112416 84.61934 89.393707 
C 84.338049 89.674997 84.18 90.056562 84.18 90.454367 
C 84.18 90.852172 84.338049 91.233737 84.61934 91.515027 
C 84.90063 91.796318 85.282195 91.954367 85.68 91.954367 
z
" clip-path="url(#p0d9a4c7b64)" style="fill: #bebebe"/>
    <path d="M 127.831727 81.735429 
C 128.229532 81.735429 128.611097 81.57738 128.892387 81.296089 
C 129.173677 81.014799 129.331727 80.633234 129.331727 80.235429 
C 129.331727 79.837624 129.173677 79.456059 128.892387 79.174769 
C 128.611097 78.893479 128.229532 78.735429 127.831727 78.735429 
C 127.433922 78.735429 127.052357 78.893479 126.771067 79.174769 
C 126.489776 79.456059 126.331727 79.837624 126.331727 80.235429 
C 126.331727 80.633234 126.489776 81.014799 126.771067 81.296089 
C 127.052357 81.57738 127.433922 81.735429 127.831727 81.735429 
z
" clip-path="url(#p0d9a4c7b64)" style="fill: #bebebe"/>
   </g>
   <g id="matplotlib.axis_1"/>
   <g id="matplotlib.axis_2"/>
  </g>
  <g id="axes_2">
   <g id="patch_3">
    <path d="M 12.852 197.28 
L 158.508 197.28 
L 158.508 109.44 
L 12.852 109.44 
z
" style="fill: #ffffff"/>
   </g>
   <g id="EdgeCollection_2">
    <path d="M 146.590582 154.11 
C 172.02174 166.979715 172.02174 139.740285 146.590582 152.61 
C 172.02174 139.740285 172.02174 166.979715 146.590582 154.11 
" clip-path="url(#pf303e4c772)" style="fill: #020202"/>
    <path d="M 144.411742 152.145114 
L 131.350936 134.109934 
" clip-path="url(#pf303e4c772)" style="fill: #020202"/>
    <path d="M 143.989484 152.615258 
L 90.888239 122.24283 
" clip-path="url(#pf303e4c772)" style="fill: #020202"/>
    <path d="M 143.831948 153.014195 
L 49.366655 130.633611 
" clip-path="url(#pf303e4c772)" style="fill: #020202"/>
    <path d="M 143.791544 153.36 
L 27.568456 153.36 
" clip-path="url(#pf303e4c772)" style="fill: #020202"/>
    <path d="M 143.831948 153.705805 
L 44.987869 177.123805 
" clip-path="url(#pf303e4c772)" style="fill: #020202"/>
    <path d="M 143.989484 154.104742 
L 90.888239 184.47717 
" clip-path="url(#pf303e4c772)" style="fill: #020202"/>
    <path d="M 144.411742 154.574886 
L 128.711529 176.254724 
" clip-path="url(#pf303e4c772)" style="fill: #020202"/>
    <path d="M 133.211044 126.59277 
C 153.996007 114.572841 131.336318 99.455796 128.219819 123.262954 
C 131.336318 99.455796 153.996007 114.572841 133.211044 126.59277 
" clip-path="url(#pf303e4c772)" style="fill: #020202"/>
    <path d="M 121.993345 127.867169 
L 91.518382 120.647084 
" clip-path="url(#pf303e4c772)" style="fill: #020202; stroke: #020202; stroke-width: 1.485"/>
    <path d="M 121.831727 129.25039 
L 49.528273 129.25039 
" clip-path="url(#pf303e4c772)" style="fill: #020202; stroke: #020202; stroke-width: 1.485"/>
    <path d="M 121.993345 130.633611 
L 27.528052 153.014195 
" clip-path="url(#pf303e4c772)" style="fill: #020202"/>
    <path d="M 122.623488 132.229357 
L 44.830333 176.724868 
" clip-path="url(#pf303e4c772)" style="fill: #020202; stroke: #020202; stroke-width: 1.485"/>
    <path d="M 124.312518 134.109934 
L 89.199209 182.596593 
" clip-path="url(#pf303e4c772)" style="fill: #020202; stroke: #020202; stroke-width: 1.485"/>
    <path d="M 127.831727 135.25039 
L 127.831727 175.96961 
" clip-path="url(#pf303e4c772)" style="fill: #020202"/>
    <path d="M 88.68 114.06771 
C 99.299715 92.533667 72.060285 92.533667 82.68 114.06771 
C 72.060285 92.533667 99.299715 92.533667 88.68 114.06771 
" clip-path="url(#pf303e4c772)" style="fill: #020202"/>
    <path d="M 79.841618 120.647084 
L 49.366655 127.867169 
" clip-path="url(#pf303e4c772)" style="fill: #020202; stroke: #020202; stroke-width: 1.485"/>
    <path d="M 80.471761 122.24283 
L 27.370516 152.615258 
" clip-path="url(#pf303e4c772)" style="fill: #020202"/>
    <path d="M 82.160791 124.123407 
L 44.408075 176.254724 
" clip-path="url(#pf303e4c772)" style="fill: #020202"/>
    <path d="M 85.68 125.263863 
L 85.68 181.456137 
" clip-path="url(#pf303e4c772)" style="fill: #020202; stroke: #020202; stroke-width: 1.485"/>
    <path d="M 89.199209 124.123407 
L 126.951925 176.254724 
" clip-path="url(#pf303e4c772)" style="fill: #020202; stroke: #020202; stroke-width: 1.485"/>
    <path d="M 43.140181 123.262954 
C 40.023682 99.455796 17.363993 114.572841 38.148956 126.59277 
C 17.363993 114.572841 40.023682 99.455796 43.140181 123.262954 
" clip-path="url(#pf303e4c772)" style="fill: #020202"/>
    <path d="M 40.009064 134.109934 
L 26.948258 152.145114 
" clip-path="url(#pf303e4c772)" style="fill: #020202"/>
    <path d="M 43.528273 135.25039 
L 43.528273 175.96961 
" clip-path="url(#pf303e4c772)" style="fill: #020202; stroke: #020202; stroke-width: 1.485"/>
    <path d="M 47.047482 134.109934 
L 82.160791 182.596593 
" clip-path="url(#pf303e4c772)" style="fill: #020202; stroke: #020202; stroke-width: 1.485"/>
    <path d="M 48.736512 132.229357 
L 126.529667 176.724868 
" clip-path="url(#pf303e4c772)" style="fill: #020202"/>
    <path d="M 24.769418 152.61 
C -0.66174 139.740285 -0.66174 166.979715 24.769418 154.11 
C -0.66174 166.979715 -0.66174 139.740285 24.769418 152.61 
" clip-path="url(#pf303e4c772)" style="fill: #020202"/>
    <path d="M 26.948258 154.574886 
L 42.648471 176.254724 
" clip-path="url(#pf303e4c772)" style="fill: #020202"/>
    <path d="M 27.370516 154.104742 
L 80.471761 184.47717 
" clip-path="url(#pf303e4c772)" style="fill: #020202"/>
    <path d="M 27.528052 153.705805 
L 126.372131 177.123805 
" clip-path="url(#pf303e4c772)" style="fill: #020202"/>
    <path d="M 42.183444 178.134015 
C 17.363993 192.147159 40.023682 207.264204 43.43125 178.966469 
C 40.023682 207.264204 17.363993 192.147159 42.183444 178.134015 
" clip-path="url(#pf303e4c772)" style="fill: #020202"/>
    <path d="M 44.987869 177.815415 
L 79.841618 186.072916 
" clip-path="url(#pf303e4c772)" style="fill: #020202; stroke: #020202; stroke-width: 1.485"/>
    <path d="M 45.028273 177.46961 
L 126.331727 177.46961 
" clip-path="url(#pf303e4c772)" style="fill: #020202"/>
    <path d="M 82.68 192.65229 
C 72.060285 214.186333 99.299715 214.186333 88.68 192.65229 
C 99.299715 214.186333 72.060285 214.186333 82.68 192.65229 
" clip-path="url(#pf303e4c772)" style="fill: #020202"/>
    <path d="M 91.518382 186.072916 
L 126.372131 177.815415 
" clip-path="url(#pf303e4c772)" style="fill: #020202"/>
    <path d="M 127.92875 178.966469 
C 131.336318 207.264204 153.996007 192.147159 129.176556 178.134015 
C 153.996007 192.147159 131.336318 207.264204 127.92875 178.966469 
" clip-path="url(#pf303e4c772)" style="fill: #020202"/>
   </g>
   <g id="VertexCollection_2">
    <path d="M 145.291544 154.86 
C 145.689348 154.86 146.070914 154.701951 146.352204 154.42066 
C 146.633494 154.13937 146.791544 153.757805 146.791544 153.36 
C 146.791544 152.962195 146.633494 152.58063 146.352204 152.29934 
C 146.070914 152.018049 145.689348 151.86 145.291544 151.86 
C 144.893739 151.86 144.512174 152.018049 144.230884 152.29934 
C 143.949593 152.58063 143.791544 152.962195 143.791544 153.36 
C 143.791544 153.757805 143.949593 154.13937 144.230884 154.42066 
C 144.512174 154.701951 144.893739 154.86 145.291544 154.86 
z
" clip-path="url(#pf303e4c772)" style="fill: #bebebe"/>
    <path d="M 127.831727 135.25039 
C 129.422945 135.25039 130.949206 134.618192 132.074368 133.493031 
C 133.199529 132.367869 133.831727 130.841609 133.831727 129.25039 
C 133.831727 127.659171 133.199529 126.132911 132.074368 125.007749 
C 130.949206 123.882588 129.422945 123.25039 127.831727 123.25039 
C 126.240508 123.25039 124.714248 123.882588 123.589086 125.007749 
C 122.463925 126.132911 121.831727 127.659171 121.831727 129.25039 
C 121.831727 130.841609 122.463925 132.367869 123.589086 133.493031 
C 124.714248 134.618192 126.240508 135.25039 127.831727 135.25039 
z
" clip-path="url(#pf303e4c772)" style="fill: #bebebe"/>
    <path d="M 85.68 125.263863 
C 87.271219 125.263863 88.797479 124.631665 89.922641 123.506503 
C 91.047802 122.381342 91.68 120.855081 91.68 119.263863 
C 91.68 117.672644 91.047802 116.146383 89.922641 115.021222 
C 88.797479 113.89606 87.271219 113.263863 85.68 113.263863 
C 84.088781 113.263863 82.562521 113.89606 81.437359 115.021222 
C 80.312198 116.146383 79.68 117.672644 79.68 119.263863 
C 79.68 120.855081 80.312198 122.381342 81.437359 123.506503 
C 82.562521 124.631665 84.088781 125.263863 85.68 125.263863 
z
" clip-path="url(#pf303e4c772)" style="fill: #bebebe"/>
    <path d="M 43.528273 135.25039 
C 45.119492 135.25039 46.645752 134.618192 47.770914 133.493031 
C 48.896075 132.367869 49.528273 130.841609 49.528273 129.25039 
C 49.528273 127.659171 48.896075 126.132911 47.770914 125.007749 
C 46.645752 123.882588 45.119492 123.25039 43.528273 123.25039 
C 41.937055 123.25039 40.410794 123.882588 39.285632 125.007749 
C 38.160471 126.132911 37.528273 127.659171 37.528273 129.25039 
C 37.528273 130.841609 38.160471 132.367869 39.285632 133.493031 
C 40.410794 134.618192 41.937055 135.25039 43.528273 135.25039 
z
" clip-path="url(#pf303e4c772)" style="fill: #bebebe"/>
    <path d="M 26.068456 154.86 
C 26.466261 154.86 26.847826 154.701951 27.129116 154.42066 
C 27.410407 154.13937 27.568456 153.757805 27.568456 153.36 
C 27.568456 152.962195 27.410407 152.58063 27.129116 152.29934 
C 26.847826 152.018049 26.466261 151.86 26.068456 151.86 
C 25.670652 151.86 25.289086 152.018049 25.007796 152.29934 
C 24.726506 152.58063 24.568456 152.962195 24.568456 153.36 
C 24.568456 153.757805 24.726506 154.13937 25.007796 154.42066 
C 25.289086 154.701951 25.670652 154.86 26.068456 154.86 
z
" clip-path="url(#pf303e4c772)" style="fill: #bebebe"/>
    <path d="M 43.528273 178.96961 
C 43.926078 178.96961 44.307643 178.811561 44.588933 178.53027 
C 44.870224 178.24898 45.028273 177.867415 45.028273 177.46961 
C 45.028273 177.071805 44.870224 176.69024 44.588933 176.40895 
C 44.307643 176.127659 43.926078 175.96961 43.528273 175.96961 
C 43.130468 175.96961 42.748903 176.127659 42.467613 176.40895 
C 42.186323 176.69024 42.028273 177.071805 42.028273 177.46961 
C 42.028273 177.867415 42.186323 178.24898 42.467613 178.53027 
C 42.748903 178.811561 43.130468 178.96961 43.528273 178.96961 
z
" clip-path="url(#pf303e4c772)" style="fill: #bebebe"/>
    <path d="M 85.68 193.456137 
C 87.271219 193.456137 88.797479 192.82394 89.922641 191.698778 
C 91.047802 190.573617 91.68 189.047356 91.68 187.456137 
C 91.68 185.864919 91.047802 184.338658 89.922641 183.213497 
C 88.797479 182.088335 87.271219 181.456137 85.68 181.456137 
C 84.088781 181.456137 82.562521 182.088335 81.437359 183.213497 
C 80.312198 184.338658 79.68 185.864919 79.68 187.456137 
C 79.68 189.047356 80.312198 190.573617 81.437359 191.698778 
C 82.562521 192.82394 84.088781 193.456137 85.68 193.456137 
z
" clip-path="url(#pf303e4c772)" style="fill: #bebebe"/>
    <path d="M 127.831727 178.96961 
C 128.229532 178.96961 128.611097 178.811561 128.892387 178.53027 
C 129.173677 178.24898 129.331727 177.867415 129.331727 177.46961 
C 129.331727 177.071805 129.173677 176.69024 128.892387 176.40895 
C 128.611097 176.127659 128.229532 175.96961 127.831727 175.96961 
C 127.433922 175.96961 127.052357 176.127659 126.771067 176.40895 
C 126.489776 176.69024 126.331727 177.071805 126.331727 177.46961 
C 126.331727 177.867415 126.489776 178.24898 126.771067 178.53027 
C 127.052357 178.811561 127.433922 178.96961 127.831727 178.96961 
z
" clip-path="url(#pf303e4c772)" style="fill: #bebebe"/>
   </g>
   <g id="matplotlib.axis_3"/>
   <g id="matplotlib.axis_4"/>
  </g>
  <g id="axes_3">
   <g id="patch_4">
    <path d="M 12.852 295.92 
L 158.508 295.92 
L 158.508 208.08 
L 12.852 208.08 
z
" style="fill: #ffffff"/>
   </g>
   <g id="EdgeCollection_3">
    <path d="M 146.590582 252.75 
C 172.02174 265.619715 172.02174 238.380285 146.590582 251.25 
C 172.02174 238.380285 172.02174 265.619715 146.590582 252.75 
" clip-path="url(#pfdd2c9de65)" style="fill: #020202"/>
    <path d="M 144.411742 250.785114 
L 131.350936 232.749934 
" clip-path="url(#pfdd2c9de65)" style="fill: #020202"/>
    <path d="M 143.989484 251.255258 
L 90.888239 220.88283 
" clip-path="url(#pfdd2c9de65)" style="fill: #020202"/>
    <path d="M 143.831948 251.654195 
L 49.366655 229.273611 
" clip-path="url(#pfdd2c9de65)" style="fill: #020202"/>
    <path d="M 143.791544 252 
L 27.568456 252 
" clip-path="url(#pfdd2c9de65)" style="fill: #020202"/>
    <path d="M 143.831948 252.345805 
L 49.366655 274.726389 
" clip-path="url(#pfdd2c9de65)" style="fill: #020202"/>
    <path d="M 143.989484 252.744742 
L 90.888239 283.11717 
" clip-path="url(#pfdd2c9de65)" style="fill: #020202"/>
    <path d="M 144.411742 253.214886 
L 128.711529 274.894724 
" clip-path="url(#pfdd2c9de65)" style="fill: #020202"/>
    <path d="M 133.211044 225.23277 
C 153.996007 213.212841 131.336318 198.095796 128.219819 221.902954 
C 131.336318 198.095796 153.996007 213.212841 133.211044 225.23277 
" clip-path="url(#pfdd2c9de65)" style="fill: #020202"/>
    <path d="M 121.993345 226.507169 
L 91.518382 219.287084 
" clip-path="url(#pfdd2c9de65)" style="fill: #020202; stroke: #020202; stroke-width: 1.485"/>
    <path d="M 121.831727 227.89039 
L 49.528273 227.89039 
" clip-path="url(#pfdd2c9de65)" style="fill: #020202; stroke: #020202; stroke-width: 1.485"/>
    <path d="M 121.993345 229.273611 
L 27.528052 251.654195 
" clip-path="url(#pfdd2c9de65)" style="fill: #020202"/>
    <path d="M 122.623488 230.869357 
L 48.736512 273.130643 
" clip-path="url(#pfdd2c9de65)" style="fill: #020202; stroke: #020202; stroke-width: 1.485"/>
    <path d="M 124.312518 232.749934 
L 89.199209 281.236593 
" clip-path="url(#pfdd2c9de65)" style="fill: #020202; stroke: #020202; stroke-width: 1.485"/>
    <path d="M 127.831727 233.89039 
L 127.831727 274.60961 
" clip-path="url(#pfdd2c9de65)" style="fill: #020202"/>
    <path d="M 88.68 212.70771 
C 99.299715 191.173667 72.060285 191.173667 82.68 212.70771 
C 72.060285 191.173667 99.299715 191.173667 88.68 212.70771 
" clip-path="url(#pfdd2c9de65)" style="fill: #020202"/>
    <path d="M 79.841618 219.287084 
L 49.366655 226.507169 
" clip-path="url(#pfdd2c9de65)" style="fill: #020202; stroke: #020202; stroke-width: 1.485"/>
    <path d="M 80.471761 220.88283 
L 27.370516 251.255258 
" clip-path="url(#pfdd2c9de65)" style="fill: #020202"/>
    <path d="M 82.160791 222.763407 
L 47.047482 271.250066 
" clip-path="url(#pfdd2c9de65)" style="fill: #020202; stroke: #020202; stroke-width: 1.485"/>
    <path d="M 85.68 223.903863 
L 85.68 280.096137 
" clip-path="url(#pfdd2c9de65)" style="fill: #020202; stroke: #020202; stroke-width: 1.485"/>
    <path d="M 89.199209 222.763407 
L 126.951925 274.894724 
" clip-path="url(#pfdd2c9de65)" style="fill: #020202"/>
    <path d="M 43.140181 221.902954 
C 40.023682 198.095796 17.363993 213.212841 38.148956 225.23277 
C 17.363993 213.212841 40.023682 198.095796 43.140181 221.902954 
" clip-path="url(#pfdd2c9de65)" style="fill: #020202"/>
    <path d="M 40.009064 232.749934 
L 26.948258 250.785114 
" clip-path="url(#pfdd2c9de65)" style="fill: #020202"/>
    <path d="M 43.528273 233.89039 
L 43.528273 270.10961 
" clip-path="url(#pfdd2c9de65)" style="fill: #020202; stroke: #020202; stroke-width: 1.485"/>
    <path d="M 47.047482 232.749934 
L 82.160791 281.236593 
" clip-path="url(#pfdd2c9de65)" style="fill: #020202; stroke: #020202; stroke-width: 1.485"/>
    <path d="M 48.736512 230.869357 
L 126.529667 275.364868 
" clip-path="url(#pfdd2c9de65)" style="fill: #020202"/>
    <path d="M 24.769418 251.25 
C -0.66174 238.380285 -0.66174 265.619715 24.769418 252.75 
C -0.66174 265.619715 -0.66174 238.380285 24.769418 251.25 
" clip-path="url(#pfdd2c9de65)" style="fill: #020202"/>
    <path d="M 26.948258 253.214886 
L 40.009064 271.250066 
" clip-path="url(#pfdd2c9de65)" style="fill: #020202"/>
    <path d="M 27.370516 252.744742 
L 80.471761 283.11717 
" clip-path="url(#pfdd2c9de65)" style="fill: #020202"/>
    <path d="M 27.528052 252.345805 
L 126.372131 275.763805 
" clip-path="url(#pfdd2c9de65)" style="fill: #020202"/>
    <path d="M 38.148956 278.76723 
C 17.363993 290.787159 40.023682 305.904204 43.140181 282.097046 
C 40.023682 305.904204 17.363993 290.787159 38.148956 278.76723 
" clip-path="url(#pfdd2c9de65)" style="fill: #020202"/>
    <path d="M 49.366655 277.492831 
L 79.841618 284.712916 
" clip-path="url(#pfdd2c9de65)" style="fill: #020202; stroke: #020202; stroke-width: 1.485"/>
    <path d="M 49.528273 276.10961 
L 126.331727 276.10961 
" clip-path="url(#pfdd2c9de65)" style="fill: #020202"/>
    <path d="M 82.68 291.29229 
C 72.060285 312.826333 99.299715 312.826333 88.68 291.29229 
C 99.299715 312.826333 72.060285 312.826333 82.68 291.29229 
" clip-path="url(#pfdd2c9de65)" style="fill: #020202"/>
    <path d="M 91.518382 284.712916 
L 126.372131 276.455415 
" clip-path="url(#pfdd2c9de65)" style="fill: #020202"/>
    <path d="M 127.92875 277.606469 
C 131.336318 305.904204 153.996007 290.787159 129.176556 276.774015 
C 153.996007 290.787159 131.336318 305.904204 127.92875 277.606469 
" clip-path="url(#pfdd2c9de65)" style="fill: #020202"/>
   </g>
   <g id="VertexCollection_3">
    <path d="M 145.291544 253.5 
C 145.689348 253.5 146.070914 253.341951 146.352204 253.06066 
C 146.633494 252.77937 146.791544 252.397805 146.791544 252 
C 146.791544 251.602195 146.633494 251.22063 146.352204 250.93934 
C 146.070914 250.658049 145.689348 250.5 145.291544 250.5 
C 144.893739 250.5 144.512174 250.658049 144.230884 250.93934 
C 143.949593 251.22063 143.791544 251.602195 143.791544 252 
C 143.791544 252.397805 143.949593 252.77937 144.230884 253.06066 
C 144.512174 253.341951 144.893739 253.5 145.291544 253.5 
z
" clip-path="url(#pfdd2c9de65)" style="fill: #bebebe"/>
    <path d="M 127.831727 233.89039 
C 129.422945 233.89039 130.949206 233.258192 132.074368 232.133031 
C 133.199529 231.007869 133.831727 229.481609 133.831727 227.89039 
C 133.831727 226.299171 133.199529 224.772911 132.074368 223.647749 
C 130.949206 222.522588 129.422945 221.89039 127.831727 221.89039 
C 126.240508 221.89039 124.714248 222.522588 123.589086 223.647749 
C 122.463925 224.772911 121.831727 226.299171 121.831727 227.89039 
C 121.831727 229.481609 122.463925 231.007869 123.589086 232.133031 
C 124.714248 233.258192 126.240508 233.89039 127.831727 233.89039 
z
" clip-path="url(#pfdd2c9de65)" style="fill: #bebebe"/>
    <path d="M 85.68 223.903863 
C 87.271219 223.903863 88.797479 223.271665 89.922641 222.146503 
C 91.047802 221.021342 91.68 219.495081 91.68 217.903863 
C 91.68 216.312644 91.047802 214.786383 89.922641 213.661222 
C 88.797479 212.53606 87.271219 211.903863 85.68 211.903863 
C 84.088781 211.903863 82.562521 212.53606 81.437359 213.661222 
C 80.312198 214.786383 79.68 216.312644 79.68 217.903863 
C 79.68 219.495081 80.312198 221.021342 81.437359 222.146503 
C 82.562521 223.271665 84.088781 223.903863 85.68 223.903863 
z
" clip-path="url(#pfdd2c9de65)" style="fill: #bebebe"/>
    <path d="M 43.528273 233.89039 
C 45.119492 233.89039 46.645752 233.258192 47.770914 232.133031 
C 48.896075 231.007869 49.528273 229.481609 49.528273 227.89039 
C 49.528273 226.299171 48.896075 224.772911 47.770914 223.647749 
C 46.645752 222.522588 45.119492 221.89039 43.528273 221.89039 
C 41.937055 221.89039 40.410794 222.522588 39.285632 223.647749 
C 38.160471 224.772911 37.528273 226.299171 37.528273 227.89039 
C 37.528273 229.481609 38.160471 231.007869 39.285632 232.133031 
C 40.410794 233.258192 41.937055 233.89039 43.528273 233.89039 
z
" clip-path="url(#pfdd2c9de65)" style="fill: #bebebe"/>
    <path d="M 26.068456 253.5 
C 26.466261 253.5 26.847826 253.341951 27.129116 253.06066 
C 27.410407 252.77937 27.568456 252.397805 27.568456 252 
C 27.568456 251.602195 27.410407 251.22063 27.129116 250.93934 
C 26.847826 250.658049 26.466261 250.5 26.068456 250.5 
C 25.670652 250.5 25.289086 250.658049 25.007796 250.93934 
C 24.726506 251.22063 24.568456 251.602195 24.568456 252 
C 24.568456 252.397805 24.726506 252.77937 25.007796 253.06066 
C 25.289086 253.341951 25.670652 253.5 26.068456 253.5 
z
" clip-path="url(#pfdd2c9de65)" style="fill: #bebebe"/>
    <path d="M 43.528273 282.10961 
C 45.119492 282.10961 46.645752 281.477412 47.770914 280.352251 
C 48.896075 279.227089 49.528273 277.700829 49.528273 276.10961 
C 49.528273 274.518391 48.896075 272.992131 47.770914 271.866969 
C 46.645752 270.741808 45.119492 270.10961 43.528273 270.10961 
C 41.937055 270.10961 40.410794 270.741808 39.285632 271.866969 
C 38.160471 272.992131 37.528273 274.518391 37.528273 276.10961 
C 37.528273 277.700829 38.160471 279.227089 39.285632 280.352251 
C 40.410794 281.477412 41.937055 282.10961 43.528273 282.10961 
z
" clip-path="url(#pfdd2c9de65)" style="fill: #bebebe"/>
    <path d="M 85.68 292.096137 
C 87.271219 292.096137 88.797479 291.46394 89.922641 290.338778 
C 91.047802 289.213617 91.68 287.687356 91.68 286.096137 
C 91.68 284.504919 91.047802 282.978658 89.922641 281.853497 
C 88.797479 280.728335 87.271219 280.096137 85.68 280.096137 
C 84.088781 280.096137 82.562521 280.728335 81.437359 281.853497 
C 80.312198 282.978658 79.68 284.504919 79.68 286.096137 
C 79.68 287.687356 80.312198 289.213617 81.437359 290.338778 
C 82.562521 291.46394 84.088781 292.096137 85.68 292.096137 
z
" clip-path="url(#pfdd2c9de65)" style="fill: #bebebe"/>
    <path d="M 127.831727 277.60961 
C 128.229532 277.60961 128.611097 277.451561 128.892387 277.17027 
C 129.173677 276.88898 129.331727 276.507415 129.331727 276.10961 
C 129.331727 275.711805 129.173677 275.33024 128.892387 275.04895 
C 128.611097 274.767659 128.229532 274.60961 127.831727 274.60961 
C 127.433922 274.60961 127.052357 274.767659 126.771067 275.04895 
C 126.489776 275.33024 126.331727 275.711805 126.331727 276.10961 
C 126.331727 276.507415 126.489776 276.88898 126.771067 277.17027 
C 127.052357 277.451561 127.433922 277.60961 127.831727 277.60961 
z
" clip-path="url(#pfdd2c9de65)" style="fill: #bebebe"/>
   </g>
   <g id="matplotlib.axis_5"/>
   <g id="matplotlib.axis_6"/>
  </g>
  <g id="axes_4">
   <g id="patch_5">
    <path d="M 12.852 394.56 
L 158.508 394.56 
L 158.508 306.72 
L 12.852 306.72 
z
" style="fill: #ffffff"/>
   </g>
   <g id="EdgeCollection_4">
    <path d="M 146.590582 351.39 
C 172.02174 364.259715 172.02174 337.020285 146.590582 349.89 
C 172.02174 337.020285 172.02174 364.259715 146.590582 351.39 
" clip-path="url(#pba255b0a57)" style="fill: #020202"/>
    <path d="M 144.411742 349.425114 
L 131.350936 331.389934 
" clip-path="url(#pba255b0a57)" style="fill: #020202"/>
    <path d="M 143.989484 349.895258 
L 90.888239 319.52283 
" clip-path="url(#pba255b0a57)" style="fill: #020202"/>
    <path d="M 143.831948 350.294195 
L 49.366655 327.913611 
" clip-path="url(#pba255b0a57)" style="fill: #020202"/>
    <path d="M 143.791544 350.64 
L 27.568456 350.64 
" clip-path="url(#pba255b0a57)" style="fill: #020202"/>
    <path d="M 143.831948 350.985805 
L 44.987869 374.403805 
" clip-path="url(#pba255b0a57)" style="fill: #020202"/>
    <path d="M 143.989484 351.384742 
L 90.888239 381.75717 
" clip-path="url(#pba255b0a57)" style="fill: #020202"/>
    <path d="M 144.411742 351.854886 
L 128.711529 373.534724 
" clip-path="url(#pba255b0a57)" style="fill: #020202"/>
    <path d="M 133.211044 323.87277 
C 153.996007 311.852841 131.336318 296.735796 128.219819 320.542954 
C 131.336318 296.735796 153.996007 311.852841 133.211044 323.87277 
" clip-path="url(#pba255b0a57)" style="fill: #020202"/>
    <path d="M 121.993345 325.147169 
L 91.518382 317.927084 
" clip-path="url(#pba255b0a57)" style="fill: #020202; stroke: #020202; stroke-width: 1.485"/>
    <path d="M 121.831727 326.53039 
L 49.528273 326.53039 
" clip-path="url(#pba255b0a57)" style="fill: #020202; stroke: #020202; stroke-width: 1.485"/>
    <path d="M 121.993345 327.913611 
L 27.528052 350.294195 
" clip-path="url(#pba255b0a57)" style="fill: #020202"/>
    <path d="M 122.623488 329.509357 
L 44.830333 374.004868 
" clip-path="url(#pba255b0a57)" style="fill: #020202; stroke: #020202; stroke-width: 1.485"/>
    <path d="M 124.312518 331.389934 
L 89.199209 379.876593 
" clip-path="url(#pba255b0a57)" style="fill: #020202; stroke: #020202; stroke-width: 1.485"/>
    <path d="M 127.831727 332.53039 
L 127.831727 373.24961 
" clip-path="url(#pba255b0a57)" style="fill: #020202"/>
    <path d="M 88.68 311.34771 
C 99.299715 289.813667 72.060285 289.813667 82.68 311.34771 
C 72.060285 289.813667 99.299715 289.813667 88.68 311.34771 
" clip-path="url(#pba255b0a57)" style="fill: #020202"/>
    <path d="M 79.841618 317.927084 
L 49.366655 325.147169 
" clip-path="url(#pba255b0a57)" style="fill: #020202; stroke: #020202; stroke-width: 1.485"/>
    <path d="M 80.471761 319.52283 
L 27.370516 349.895258 
" clip-path="url(#pba255b0a57)" style="fill: #020202; stroke: #020202; stroke-width: 1.485"/>
    <path d="M 82.160791 321.403407 
L 44.408075 373.534724 
" clip-path="url(#pba255b0a57)" style="fill: #020202"/>
    <path d="M 85.68 322.543863 
L 85.68 378.736137 
" clip-path="url(#pba255b0a57)" style="fill: #020202; stroke: #020202; stroke-width: 1.485"/>
    <path d="M 89.199209 321.403407 
L 126.951925 373.534724 
" clip-path="url(#pba255b0a57)" style="fill: #020202"/>
    <path d="M 43.140181 320.542954 
C 40.023682 296.735796 17.363993 311.852841 38.148956 323.87277 
C 17.363993 311.852841 40.023682 296.735796 43.140181 320.542954 
" clip-path="url(#pba255b0a57)" style="fill: #020202"/>
    <path d="M 40.009064 331.389934 
L 26.948258 349.425114 
" clip-path="url(#pba255b0a57)" style="fill: #020202"/>
    <path d="M 43.528273 332.53039 
L 43.528273 373.24961 
" clip-path="url(#pba255b0a57)" style="fill: #020202; stroke: #020202; stroke-width: 1.485"/>
    <path d="M 47.047482 331.389934 
L 82.160791 379.876593 
" clip-path="url(#pba255b0a57)" style="fill: #020202; stroke: #020202; stroke-width: 1.485"/>
    <path d="M 48.736512 329.509357 
L 126.529667 374.004868 
" clip-path="url(#pba255b0a57)" style="fill: #020202"/>
    <path d="M 24.769418 349.89 
C -0.66174 337.020285 -0.66174 364.259715 24.769418 351.39 
C -0.66174 364.259715 -0.66174 337.020285 24.769418 349.89 
" clip-path="url(#pba255b0a57)" style="fill: #020202"/>
    <path d="M 26.948258 351.854886 
L 42.648471 373.534724 
" clip-path="url(#pba255b0a57)" style="fill: #020202"/>
    <path d="M 27.370516 351.384742 
L 80.471761 381.75717 
" clip-path="url(#pba255b0a57)" style="fill: #020202"/>
    <path d="M 27.528052 350.985805 
L 126.372131 374.403805 
" clip-path="url(#pba255b0a57)" style="fill: #020202"/>
    <path d="M 42.183444 375.414015 
C 17.363993 389.427159 40.023682 404.544204 43.43125 376.246469 
C 40.023682 404.544204 17.363993 389.427159 42.183444 375.414015 
" clip-path="url(#pba255b0a57)" style="fill: #020202"/>
    <path d="M 44.987869 375.095415 
L 79.841618 383.352916 
" clip-path="url(#pba255b0a57)" style="fill: #020202; stroke: #020202; stroke-width: 1.485"/>
    <path d="M 45.028273 374.74961 
L 126.331727 374.74961 
" clip-path="url(#pba255b0a57)" style="fill: #020202"/>
    <path d="M 82.68 389.93229 
C 72.060285 411.466333 99.299715 411.466333 88.68 389.93229 
C 99.299715 411.466333 72.060285 411.466333 82.68 389.93229 
" clip-path="url(#pba255b0a57)" style="fill: #020202"/>
    <path d="M 91.518382 383.352916 
L 126.372131 375.095415 
" clip-path="url(#pba255b0a57)" style="fill: #020202"/>
    <path d="M 127.92875 376.246469 
C 131.336318 404.544204 153.996007 389.427159 129.176556 375.414015 
C 153.996007 389.427159 131.336318 404.544204 127.92875 376.246469 
" clip-path="url(#pba255b0a57)" style="fill: #020202"/>
   </g>
   <g id="VertexCollection_4">
    <path d="M 145.291544 352.14 
C 145.689348 352.14 146.070914 351.981951 146.352204 351.70066 
C 146.633494 351.41937 146.791544 351.037805 146.791544 350.64 
C 146.791544 350.242195 146.633494 349.86063 146.352204 349.57934 
C 146.070914 349.298049 145.689348 349.14 145.291544 349.14 
C 144.893739 349.14 144.512174 349.298049 144.230884 349.57934 
C 143.949593 349.86063 143.791544 350.242195 143.791544 350.64 
C 143.791544 351.037805 143.949593 351.41937 144.230884 351.70066 
C 144.512174 351.981951 144.893739 352.14 145.291544 352.14 
z
" clip-path="url(#pba255b0a57)" style="fill: #bebebe"/>
    <path d="M 127.831727 332.53039 
C 129.422945 332.53039 130.949206 331.898192 132.074368 330.773031 
C 133.199529 329.647869 133.831727 328.121609 133.831727 326.53039 
C 133.831727 324.939171 133.199529 323.412911 132.074368 322.287749 
C 130.949206 321.162588 129.422945 320.53039 127.831727 320.53039 
C 126.240508 320.53039 124.714248 321.162588 123.589086 322.287749 
C 122.463925 323.412911 121.831727 324.939171 121.831727 326.53039 
C 121.831727 328.121609 122.463925 329.647869 123.589086 330.773031 
C 124.714248 331.898192 126.240508 332.53039 127.831727 332.53039 
z
" clip-path="url(#pba255b0a57)" style="fill: #bebebe"/>
    <path d="M 85.68 322.543863 
C 87.271219 322.543863 88.797479 321.911665 89.922641 320.786503 
C 91.047802 319.661342 91.68 318.135081 91.68 316.543863 
C 91.68 314.952644 91.047802 313.426383 89.922641 312.301222 
C 88.797479 311.17606 87.271219 310.543863 85.68 310.543863 
C 84.088781 310.543863 82.562521 311.17606 81.437359 312.301222 
C 80.312198 313.426383 79.68 314.952644 79.68 316.543863 
C 79.68 318.135081 80.312198 319.661342 81.437359 320.786503 
C 82.562521 321.911665 84.088781 322.543863 85.68 322.543863 
z
" clip-path="url(#pba255b0a57)" style="fill: #bebebe"/>
    <path d="M 43.528273 332.53039 
C 45.119492 332.53039 46.645752 331.898192 47.770914 330.773031 
C 48.896075 329.647869 49.528273 328.121609 49.528273 326.53039 
C 49.528273 324.939171 48.896075 323.412911 47.770914 322.287749 
C 46.645752 321.162588 45.119492 320.53039 43.528273 320.53039 
C 41.937055 320.53039 40.410794 321.162588 39.285632 322.287749 
C 38.160471 323.412911 37.528273 324.939171 37.528273 326.53039 
C 37.528273 328.121609 38.160471 329.647869 39.285632 330.773031 
C 40.410794 331.898192 41.937055 332.53039 43.528273 332.53039 
z
" clip-path="url(#pba255b0a57)" style="fill: #bebebe"/>
    <path d="M 26.068456 352.14 
C 26.466261 352.14 26.847826 351.981951 27.129116 351.70066 
C 27.410407 351.41937 27.568456 351.037805 27.568456 350.64 
C 27.568456 350.242195 27.410407 349.86063 27.129116 349.57934 
C 26.847826 349.298049 26.466261 349.14 26.068456 349.14 
C 25.670652 349.14 25.289086 349.298049 25.007796 349.57934 
C 24.726506 349.86063 24.568456 350.242195 24.568456 350.64 
C 24.568456 351.037805 24.726506 351.41937 25.007796 351.70066 
C 25.289086 351.981951 25.670652 352.14 26.068456 352.14 
z
" clip-path="url(#pba255b0a57)" style="fill: #bebebe"/>
    <path d="M 43.528273 376.24961 
C 43.926078 376.24961 44.307643 376.091561 44.588933 375.81027 
C 44.870224 375.52898 45.028273 375.147415 45.028273 374.74961 
C 45.028273 374.351805 44.870224 373.97024 44.588933 373.68895 
C 44.307643 373.407659 43.926078 373.24961 43.528273 373.24961 
C 43.130468 373.24961 42.748903 373.407659 42.467613 373.68895 
C 42.186323 373.97024 42.028273 374.351805 42.028273 374.74961 
C 42.028273 375.147415 42.186323 375.52898 42.467613 375.81027 
C 42.748903 376.091561 43.130468 376.24961 43.528273 376.24961 
z
" clip-path="url(#pba255b0a57)" style="fill: #bebebe"/>
    <path d="M 85.68 390.736137 
C 87.271219 390.736137 88.797479 390.10394 89.922641 388.978778 
C 91.047802 387.853617 91.68 386.327356 91.68 384.736137 
C 91.68 383.144919 91.047802 381.618658 89.922641 380.493497 
C 88.797479 379.368335 87.271219 378.736137 85.68 378.736137 
C 84.088781 378.736137 82.562521 379.368335 81.437359 380.493497 
C 80.312198 381.618658 79.68 383.144919 79.68 384.736137 
C 79.68 386.327356 80.312198 387.853617 81.437359 388.978778 
C 82.562521 390.10394 84.088781 390.736137 85.68 390.736137 
z
" clip-path="url(#pba255b0a57)" style="fill: #bebebe"/>
    <path d="M 127.831727 376.24961 
C 128.229532 376.24961 128.611097 376.091561 128.892387 375.81027 
C 129.173677 375.52898 129.331727 375.147415 129.331727 374.74961 
C 129.331727 374.351805 129.173677 373.97024 128.892387 373.68895 
C 128.611097 373.407659 128.229532 373.24961 127.831727 373.24961 
C 127.433922 373.24961 127.052357 373.407659 126.771067 373.68895 
C 126.489776 373.97024 126.331727 374.351805 126.331727 374.74961 
C 126.331727 375.147415 126.489776 375.52898 126.771067 375.81027 
C 127.052357 376.091561 127.433922 376.24961 127.831727 376.24961 
z
" clip-path="url(#pba255b0a57)" style="fill: #bebebe"/>
   </g>
   <g id="matplotlib.axis_7"/>
   <g id="matplotlib.axis_8"/>
  </g>
  <g id="axes_5">
   <g id="patch_6">
    <path d="M 12.852 493.2 
L 158.508 493.2 
L 158.508 405.36 
L 12.852 405.36 
z
" style="fill: #ffffff"/>
   </g>
   <g id="EdgeCollection_5">
    <path d="M 146.590582 450.03 
C 172.02174 462.899715 172.02174 435.660285 146.590582 448.53 
C 172.02174 435.660285 172.02174 462.899715 146.590582 450.03 
" clip-path="url(#p19c7a02b47)" style="fill: #020202"/>
    <path d="M 144.411742 448.065114 
L 131.350936 430.029934 
" clip-path="url(#p19c7a02b47)" style="fill: #020202"/>
    <path d="M 143.989484 448.535258 
L 90.888239 418.16283 
" clip-path="url(#p19c7a02b47)" style="fill: #020202"/>
    <path d="M 143.831948 448.934195 
L 49.366655 426.553611 
" clip-path="url(#p19c7a02b47)" style="fill: #020202"/>
    <path d="M 143.791544 449.28 
L 27.568456 449.28 
" clip-path="url(#p19c7a02b47)" style="fill: #020202"/>
    <path d="M 143.831948 449.625805 
L 49.366655 472.006389 
" clip-path="url(#p19c7a02b47)" style="fill: #020202"/>
    <path d="M 143.989484 450.024742 
L 90.888239 480.39717 
" clip-path="url(#p19c7a02b47)" style="fill: #020202"/>
    <path d="M 144.411742 450.494886 
L 128.711529 472.174724 
" clip-path="url(#p19c7a02b47)" style="fill: #020202"/>
    <path d="M 133.211044 422.51277 
C 153.996007 410.492841 131.336318 395.375796 128.219819 419.182954 
C 131.336318 395.375796 153.996007 410.492841 133.211044 422.51277 
" clip-path="url(#p19c7a02b47)" style="fill: #020202"/>
    <path d="M 121.993345 423.787169 
L 91.518382 416.567084 
" clip-path="url(#p19c7a02b47)" style="fill: #020202; stroke: #020202; stroke-width: 1.485"/>
    <path d="M 121.831727 425.17039 
L 49.528273 425.17039 
" clip-path="url(#p19c7a02b47)" style="fill: #020202; stroke: #020202; stroke-width: 1.485"/>
    <path d="M 121.993345 426.553611 
L 27.528052 448.934195 
" clip-path="url(#p19c7a02b47)" style="fill: #020202"/>
    <path d="M 122.623488 428.149357 
L 48.736512 470.410643 
" clip-path="url(#p19c7a02b47)" style="fill: #020202; stroke: #020202; stroke-width: 1.485"/>
    <path d="M 124.312518 430.029934 
L 89.199209 478.516593 
" clip-path="url(#p19c7a02b47)" style="fill: #020202; stroke: #020202; stroke-width: 1.485"/>
    <path d="M 127.831727 431.17039 
L 127.831727 471.88961 
" clip-path="url(#p19c7a02b47)" style="fill: #020202"/>
    <path d="M 88.68 409.98771 
C 99.299715 388.453667 72.060285 388.453667 82.68 409.98771 
C 72.060285 388.453667 99.299715 388.453667 88.68 409.98771 
" clip-path="url(#p19c7a02b47)" style="fill: #020202"/>
    <path d="M 79.841618 416.567084 
L 49.366655 423.787169 
" clip-path="url(#p19c7a02b47)" style="fill: #020202; stroke: #020202; stroke-width: 1.485"/>
    <path d="M 80.471761 418.16283 
L 27.370516 448.535258 
" clip-path="url(#p19c7a02b47)" style="fill: #020202"/>
    <path d="M 82.160791 420.043407 
L 47.047482 468.530066 
" clip-path="url(#p19c7a02b47)" style="fill: #020202; stroke: #020202; stroke-width: 1.485"/>
    <path d="M 85.68 421.183863 
L 85.68 477.376137 
" clip-path="url(#p19c7a02b47)" style="fill: #020202; stroke: #020202; stroke-width: 1.485"/>
    <path d="M 89.199209 420.043407 
L 126.951925 472.174724 
" clip-path="url(#p19c7a02b47)" style="fill: #020202"/>
    <path d="M 43.140181 419.182954 
C 40.023682 395.375796 17.363993 410.492841 38.148956 422.51277 
C 17.363993 410.492841 40.023682 395.375796 43.140181 419.182954 
" clip-path="url(#p19c7a02b47)" style="fill: #020202"/>
    <path d="M 40.009064 430.029934 
L 26.948258 448.065114 
" clip-path="url(#p19c7a02b47)" style="fill: #020202"/>
    <path d="M 43.528273 431.17039 
L 43.528273 467.38961 
" clip-path="url(#p19c7a02b47)" style="fill: #020202; stroke: #020202; stroke-width: 1.485"/>
    <path d="M 47.047482 430.029934 
L 82.160791 478.516593 
" clip-path="url(#p19c7a02b47)" style="fill: #020202; stroke: #020202; stroke-width: 1.485"/>
    <path d="M 48.736512 428.149357 
L 126.529667 472.644868 
" clip-path="url(#p19c7a02b47)" style="fill: #020202"/>
    <path d="M 24.769418 448.53 
C -0.66174 435.660285 -0.66174 462.899715 24.769418 450.03 
C -0.66174 462.899715 -0.66174 435.660285 24.769418 448.53 
" clip-path="url(#p19c7a02b47)" style="fill: #020202"/>
    <path d="M 26.948258 450.494886 
L 40.009064 468.530066 
" clip-path="url(#p19c7a02b47)" style="fill: #020202"/>
    <path d="M 27.370516 450.024742 
L 80.471761 480.39717 
" clip-path="url(#p19c7a02b47)" style="fill: #020202"/>
    <path d="M 27.528052 449.625805 
L 126.372131 473.043805 
" clip-path="url(#p19c7a02b47)" style="fill: #020202"/>
    <path d="M 38.148956 476.04723 
C 17.363993 488.067159 40.023682 503.184204 43.140181 479.377046 
C 40.023682 503.184204 17.363993 488.067159 38.148956 476.04723 
" clip-path="url(#p19c7a02b47)" style="fill: #020202"/>
    <path d="M 49.366655 474.772831 
L 79.841618 481.992916 
" clip-path="url(#p19c7a02b47)" style="fill: #020202; stroke: #020202; stroke-width: 1.485"/>
    <path d="M 49.528273 473.38961 
L 126.331727 473.38961 
" clip-path="url(#p19c7a02b47)" style="fill: #020202"/>
    <path d="M 82.68 488.57229 
C 72.060285 510.106333 99.299715 510.106333 88.68 488.57229 
C 99.299715 510.106333 72.060285 510.106333 82.68 488.57229 
" clip-path="url(#p19c7a02b47)" style="fill: #020202"/>
    <path d="M 91.518382 481.992916 
L 126.372131 473.735415 
" clip-path="url(#p19c7a02b47)" style="fill: #020202"/>
    <path d="M 127.92875 474.886469 
C 131.336318 503.184204 153.996007 488.067159 129.176556 474.054015 
C 153.996007 488.067159 131.336318 503.184204 127.92875 474.886469 
" clip-path="url(#p19c7a02b47)" style="fill: #020202"/>
   </g>
   <g id="VertexCollection_5">
    <path d="M 145.291544 450.78 
C 145.689348 450.78 146.070914 450.621951 146.352204 450.34066 
C 146.633494 450.05937 146.791544 449.677805 146.791544 449.28 
C 146.791544 448.882195 146.633494 448.50063 146.352204 448.21934 
C 146.070914 447.938049 145.689348 447.78 145.291544 447.78 
C 144.893739 447.78 144.512174 447.938049 144.230884 448.21934 
C 143.949593 448.50063 143.791544 448.882195 143.791544 449.28 
C 143.791544 449.677805 143.949593 450.05937 144.230884 450.34066 
C 144.512174 450.621951 144.893739 450.78 145.291544 450.78 
z
" clip-path="url(#p19c7a02b47)" style="fill: #bebebe"/>
    <path d="M 127.831727 431.17039 
C 129.422945 431.17039 130.949206 430.538192 132.074368 429.413031 
C 133.199529 428.287869 133.831727 426.761609 133.831727 425.17039 
C 133.831727 423.579171 133.199529 422.052911 132.074368 420.927749 
C 130.949206 419.802588 129.422945 419.17039 127.831727 419.17039 
C 126.240508 419.17039 124.714248 419.802588 123.589086 420.927749 
C 122.463925 422.052911 121.831727 423.579171 121.831727 425.17039 
C 121.831727 426.761609 122.463925 428.287869 123.589086 429.413031 
C 124.714248 430.538192 126.240508 431.17039 127.831727 431.17039 
z
" clip-path="url(#p19c7a02b47)" style="fill: #bebebe"/>
    <path d="M 85.68 421.183863 
C 87.271219 421.183863 88.797479 420.551665 89.922641 419.426503 
C 91.047802 418.301342 91.68 416.775081 91.68 415.183863 
C 91.68 413.592644 91.047802 412.066383 89.922641 410.941222 
C 88.797479 409.81606 87.271219 409.183863 85.68 409.183863 
C 84.088781 409.183863 82.562521 409.81606 81.437359 410.941222 
C 80.312198 412.066383 79.68 413.592644 79.68 415.183863 
C 79.68 416.775081 80.312198 418.301342 81.437359 419.426503 
C 82.562521 420.551665 84.088781 421.183863 85.68 421.183863 
z
" clip-path="url(#p19c7a02b47)" style="fill: #bebebe"/>
    <path d="M 43.528273 431.17039 
C 45.119492 431.17039 46.645752 430.538192 47.770914 429.413031 
C 48.896075 428.287869 49.528273 426.761609 49.528273 425.17039 
C 49.528273 423.579171 48.896075 422.052911 47.770914 420.927749 
C 46.645752 419.802588 45.119492 419.17039 43.528273 419.17039 
C 41.937055 419.17039 40.410794 419.802588 39.285632 420.927749 
C 38.160471 422.052911 37.528273 423.579171 37.528273 425.17039 
C 37.528273 426.761609 38.160471 428.287869 39.285632 429.413031 
C 40.410794 430.538192 41.937055 431.17039 43.528273 431.17039 
z
" clip-path="url(#p19c7a02b47)" style="fill: #bebebe"/>
    <path d="M 26.068456 450.78 
C 26.466261 450.78 26.847826 450.621951 27.129116 450.34066 
C 27.410407 450.05937 27.568456 449.677805 27.568456 449.28 
C 27.568456 448.882195 27.410407 448.50063 27.129116 448.21934 
C 26.847826 447.938049 26.466261 447.78 26.068456 447.78 
C 25.670652 447.78 25.289086 447.938049 25.007796 448.21934 
C 24.726506 448.50063 24.568456 448.882195 24.568456 449.28 
C 24.568456 449.677805 24.726506 450.05937 25.007796 450.34066 
C 25.289086 450.621951 25.670652 450.78 26.068456 450.78 
z
" clip-path="url(#p19c7a02b47)" style="fill: #bebebe"/>
    <path d="M 43.528273 479.38961 
C 45.119492 479.38961 46.645752 478.757412 47.770914 477.632251 
C 48.896075 476.507089 49.528273 474.980829 49.528273 473.38961 
C 49.528273 471.798391 48.896075 470.272131 47.770914 469.146969 
C 46.645752 468.021808 45.119492 467.38961 43.528273 467.38961 
C 41.937055 467.38961 40.410794 468.021808 39.285632 469.146969 
C 38.160471 470.272131 37.528273 471.798391 37.528273 473.38961 
C 37.528273 474.980829 38.160471 476.507089 39.285632 477.632251 
C 40.410794 478.757412 41.937055 479.38961 43.528273 479.38961 
z
" clip-path="url(#p19c7a02b47)" style="fill: #bebebe"/>
    <path d="M 85.68 489.376137 
C 87.271219 489.376137 88.797479 488.74394 89.922641 487.618778 
C 91.047802 486.493617 91.68 484.967356 91.68 483.376137 
C 91.68 481.784919 91.047802 480.258658 89.922641 479.133497 
C 88.797479 478.008335 87.271219 477.376137 85.68 477.376137 
C 84.088781 477.376137 82.562521 478.008335 81.437359 479.133497 
C 80.312198 480.258658 79.68 481.784919 79.68 483.376137 
C 79.68 484.967356 80.312198 486.493617 81.437359 487.618778 
C 82.562521 488.74394 84.088781 489.376137 85.68 489.376137 
z
" clip-path="url(#p19c7a02b47)" style="fill: #bebebe"/>
    <path d="M 127.831727 474.88961 
C 128.229532 474.88961 128.611097 474.731561 128.892387 474.45027 
C 129.173677 474.16898 129.331727 473.787415 129.331727 473.38961 
C 129.331727 472.991805 129.173677 472.61024 128.892387 472.32895 
C 128.611097 472.047659 128.229532 471.88961 127.831727 471.88961 
C 127.433922 471.88961 127.052357 472.047659 126.771067 472.32895 
C 126.489776 472.61024 126.331727 472.991805 126.331727 473.38961 
C 126.331727 473.787415 126.489776 474.16898 126.771067 474.45027 
C 127.052357 474.731561 127.433922 474.88961 127.831727 474.88961 
z
" clip-path="url(#p19c7a02b47)" style="fill: #bebebe"/>
   </g>
   <g id="matplotlib.axis_9"/>
   <g id="matplotlib.axis_10"/>
  </g>
 </g>
 <defs>
  <clipPath id="p0d9a4c7b64">
   <rect x="12.852" y="10.8" width="145.656" height="87.84"/>
  </clipPath>
  <clipPath id="pf303e4c772">
   <rect x="12.852" y="109.44" width="145.656" height="87.84"/>
  </clipPath>
  <clipPath id="pfdd2c9de65">
   <rect x="12.852" y="208.08" width="145.656" height="87.84"/>
  </clipPath>
  <clipPath id="pba255b0a57">
   <rect x="12.852" y="306.72" width="145.656" height="87.84"/>
  </clipPath>
  <clipPath id="p19c7a02b47">
   <rect x="12.852" y="405.36" width="145.656" height="87.84"/>
  </clipPath>
 </defs>
</svg>
