<?xml version="1.0" encoding="utf-8" standalone="no"?>
<!DOCTYPE svg PUBLIC "-//W3C//DTD SVG 1.1//EN"
  "http://www.w3.org/Graphics/SVG/1.1/DTD/svg11.dtd">
<svg xmlns:xlink="http://www.w3.org/1999/xlink" width="171.36pt" height="504pt" viewBox="0 0 171.36 504" xmlns="http://www.w3.org/2000/svg" version="1.1">
 <metadata>
  <rdf:RDF xmlns:dc="http://purl.org/dc/elements/1.1/" xmlns:cc="http://creativecommons.org/ns#" xmlns:rdf="http://www.w3.org/1999/02/22-rdf-syntax-ns#">
   <cc:Work>
    <dc:type rdf:resource="http://purl.org/dc/dcmitype/StillImage"/>
    <dc:date>2025-06-10T14:41:02.448236</dc:date>
    <dc:format>image/svg+xml</dc:format>
    <dc:creator>
     <cc:Agent>
      <dc:title>Matplotlib v3.9.2, https://matplotlib.org/</dc:title>
     </cc:Agent>
    </dc:creator>
   </cc:Work>
  </rdf:RDF>
 </metadata>
 <defs>
  <style type="text/css">*{stroke-linejoin: round; stroke-linecap: butt}</style>
 </defs>
 <g id="figure_1">
  <g id="patch_1">
   <path d="M 0 504 
L 171.36 504 
L 171.36 0 
L 0 0 
z
" style="fill: #ffffff"/>
  </g>
  <g id="axes_1">
   <g id="patch_2">
    <path d="M 12.852 98.64 
L 158.508 98.64 
L 158.508 10.8 
L 12.852 10.8 
z
" style="fill: #ffffff"/>
   </g>
   <g id="EdgeCollection_1">
    <path d="M 146.590582 56.314731 
C 172.02174 69.184446 172.02174 41.945016 146.590582 54.814731 
C 172.02174 41.945016 172.02174 69.184446 146.590582 56.314731 
" clip-path="url(#p06253ee129)" style="fill: #020202"/>
    <path d="M 144.425022 54.340337 
L 131.297813 35.791607 
" clip-path="url(#p06253ee129)" style="fill: #020202"/>
    <path d="M 143.996976 54.807041 
L 90.858273 23.705851 
" clip-path="url(#p06253ee129)" style="fill: #020202"/>
    <path d="M 143.833771 55.211319 
L 49.359363 32.307676 
" clip-path="url(#p06253ee129)" style="fill: #020202"/>
    <path d="M 143.791544 55.564731 
L 27.568456 55.564731 
" clip-path="url(#p06253ee129)" style="fill: #020202"/>
    <path d="M 143.833771 55.918142 
L 44.986046 79.882018 
" clip-path="url(#p06253ee129)" style="fill: #020202"/>
    <path d="M 143.996976 56.32242 
L 86.974568 89.696678 
" clip-path="url(#p06253ee129)" style="fill: #020202"/>
    <path d="M 144.425022 56.789124 
L 128.698248 79.011035 
" clip-path="url(#p06253ee129)" style="fill: #020202"/>
    <path d="M 133.232267 28.279809 
C 154.113334 16.427618 131.576093 1.128621 128.268014 24.909915 
C 131.576093 1.128621 154.113334 16.427618 133.232267 28.279809 
" clip-path="url(#p06253ee129)" style="fill: #020202"/>
    <path d="M 122.000637 29.480388 
L 91.51109 22.088738 
" clip-path="url(#p06253ee129)" style="fill: #020202; stroke: #020202; stroke-width: 1.485"/>
    <path d="M 121.831727 30.894032 
L 49.528273 30.894032 
" clip-path="url(#p06253ee129)" style="fill: #020202; stroke: #020202; stroke-width: 1.485"/>
    <path d="M 122.000637 32.307676 
L 27.526229 55.211319 
" clip-path="url(#p06253ee129)" style="fill: #020202"/>
    <path d="M 122.653454 33.924789 
L 44.822841 79.47774 
" clip-path="url(#p06253ee129)" style="fill: #020202"/>
    <path d="M 124.365641 35.791607 
L 86.546522 89.229973 
" clip-path="url(#p06253ee129)" style="fill: #020202"/>
    <path d="M 127.831727 36.894032 
L 127.831727 78.735429 
" clip-path="url(#p06253ee129)" style="fill: #020202"/>
    <path d="M 88.68 15.478942 
C 99.299715 -6.055102 72.060285 -6.055102 82.68 15.478942 
C 72.060285 -6.055102 99.299715 -6.055102 88.68 15.478942 
" clip-path="url(#p06253ee129)" style="fill: #020202"/>
    <path d="M 79.84891 22.088738 
L 49.359363 29.480388 
" clip-path="url(#p06253ee129)" style="fill: #020202; stroke: #020202; stroke-width: 1.485"/>
    <path d="M 80.501727 23.705851 
L 27.363024 54.807041 
" clip-path="url(#p06253ee129)" style="fill: #020202"/>
    <path d="M 82.213914 25.57267 
L 44.394795 79.011035 
" clip-path="url(#p06253ee129)" style="fill: #020202"/>
    <path d="M 85.68 26.675094 
L 85.68 88.954367 
" clip-path="url(#p06253ee129)" style="fill: #020202"/>
    <path d="M 89.146086 25.57267 
L 126.965205 79.011035 
" clip-path="url(#p06253ee129)" style="fill: #020202"/>
    <path d="M 43.091986 24.909915 
C 39.783907 1.128621 17.246666 16.427618 38.127733 28.279809 
C 17.246666 16.427618 39.783907 1.128621 43.091986 24.909915 
" clip-path="url(#p06253ee129)" style="fill: #020202"/>
    <path d="M 40.062187 35.791607 
L 26.934978 54.340337 
" clip-path="url(#p06253ee129)" style="fill: #020202"/>
    <path d="M 43.528273 36.894032 
L 43.528273 78.735429 
" clip-path="url(#p06253ee129)" style="fill: #020202"/>
    <path d="M 46.994359 35.791607 
L 84.813478 89.229973 
" clip-path="url(#p06253ee129)" style="fill: #020202"/>
    <path d="M 48.706546 33.924789 
L 126.537159 79.47774 
" clip-path="url(#p06253ee129)" style="fill: #020202"/>
    <path d="M 24.769418 54.814731 
C -0.66174 41.945016 -0.66174 69.184446 24.769418 56.314731 
C -0.66174 69.184446 -0.66174 41.945016 24.769418 54.814731 
" clip-path="url(#p06253ee129)" style="fill: #020202"/>
    <path d="M 26.934978 56.789124 
L 42.661752 79.011035 
" clip-path="url(#p06253ee129)" style="fill: #020202"/>
    <path d="M 27.363024 56.32242 
L 84.385432 89.696678 
" clip-path="url(#p06253ee129)" style="fill: #020202"/>
    <path d="M 27.526229 55.918142 
L 126.373954 79.882018 
" clip-path="url(#p06253ee129)" style="fill: #020202"/>
    <path d="M 42.178138 80.888985 
C 17.246666 94.701843 39.783907 110.000841 43.419201 81.731458 
C 39.783907 110.000841 17.246666 94.701843 42.178138 80.888985 
" clip-path="url(#p06253ee129)" style="fill: #020202"/>
    <path d="M 44.986046 80.58884 
L 84.222228 90.100956 
" clip-path="url(#p06253ee129)" style="fill: #020202"/>
    <path d="M 45.028273 80.235429 
L 126.331727 80.235429 
" clip-path="url(#p06253ee129)" style="fill: #020202"/>
    <path d="M 84.93 91.753405 
C 72.060285 117.184563 99.299715 117.184563 86.43 91.753405 
C 99.299715 117.184563 72.060285 117.184563 84.93 91.753405 
" clip-path="url(#p06253ee129)" style="fill: #020202"/>
    <path d="M 87.137772 90.100956 
L 126.373954 80.58884 
" clip-path="url(#p06253ee129)" style="fill: #020202"/>
    <path d="M 127.940799 81.731458 
C 131.576093 110.000841 154.113334 94.701843 129.181862 80.888985 
C 154.113334 94.701843 131.576093 110.000841 127.940799 81.731458 
" clip-path="url(#p06253ee129)" style="fill: #020202"/>
   </g>
   <g id="VertexCollection_1">
    <path d="M 145.291544 57.064731 
C 145.689348 57.064731 146.070914 56.906681 146.352204 56.625391 
C 146.633494 56.3441 146.791544 55.962535 146.791544 55.564731 
C 146.791544 55.166926 146.633494 54.785361 146.352204 54.50407 
C 146.070914 54.22278 145.689348 54.064731 145.291544 54.064731 
C 144.893739 54.064731 144.512174 54.22278 144.230884 54.50407 
C 143.949593 54.785361 143.791544 55.166926 143.791544 55.564731 
C 143.791544 55.962535 143.949593 56.3441 144.230884 56.625391 
C 144.512174 56.906681 144.893739 57.064731 145.291544 57.064731 
z
" clip-path="url(#p06253ee129)" style="fill: #bebebe"/>
    <path d="M 127.831727 36.894032 
C 129.422945 36.894032 130.949206 36.261834 132.074368 35.136673 
C 133.199529 34.011511 133.831727 32.485251 133.831727 30.894032 
C 133.831727 29.302813 133.199529 27.776553 132.074368 26.651391 
C 130.949206 25.52623 129.422945 24.894032 127.831727 24.894032 
C 126.240508 24.894032 124.714248 25.52623 123.589086 26.651391 
C 122.463925 27.776553 121.831727 29.302813 121.831727 30.894032 
C 121.831727 32.485251 122.463925 34.011511 123.589086 35.136673 
C 124.714248 36.261834 126.240508 36.894032 127.831727 36.894032 
z
" clip-path="url(#p06253ee129)" style="fill: #bebebe"/>
    <path d="M 85.68 26.675094 
C 87.271219 26.675094 88.797479 26.042896 89.922641 24.917735 
C 91.047802 23.792573 91.68 22.266313 91.68 20.675094 
C 91.68 19.083875 91.047802 17.557615 89.922641 16.432453 
C 88.797479 15.307292 87.271219 14.675094 85.68 14.675094 
C 84.088781 14.675094 82.562521 15.307292 81.437359 16.432453 
C 80.312198 17.557615 79.68 19.083875 79.68 20.675094 
C 79.68 22.266313 80.312198 23.792573 81.437359 24.917735 
C 82.562521 26.042896 84.088781 26.675094 85.68 26.675094 
z
" clip-path="url(#p06253ee129)" style="fill: #bebebe"/>
    <path d="M 43.528273 36.894032 
C 45.119492 36.894032 46.645752 36.261834 47.770914 35.136673 
C 48.896075 34.011511 49.528273 32.485251 49.528273 30.894032 
C 49.528273 29.302813 48.896075 27.776553 47.770914 26.651391 
C 46.645752 25.52623 45.119492 24.894032 43.528273 24.894032 
C 41.937055 24.894032 40.410794 25.52623 39.285632 26.651391 
C 38.160471 27.776553 37.528273 29.302813 37.528273 30.894032 
C 37.528273 32.485251 38.160471 34.011511 39.285632 35.136673 
C 40.410794 36.261834 41.937055 36.894032 43.528273 36.894032 
z
" clip-path="url(#p06253ee129)" style="fill: #bebebe"/>
    <path d="M 26.068456 57.064731 
C 26.466261 57.064731 26.847826 56.906681 27.129116 56.625391 
C 27.410407 56.3441 27.568456 55.962535 27.568456 55.564731 
C 27.568456 55.166926 27.410407 54.785361 27.129116 54.50407 
C 26.847826 54.22278 26.466261 54.064731 26.068456 54.064731 
C 25.670652 54.064731 25.289086 54.22278 25.007796 54.50407 
C 24.726506 54.785361 24.568456 55.166926 24.568456 55.564731 
C 24.568456 55.962535 24.726506 56.3441 25.007796 56.625391 
C 25.289086 56.906681 25.670652 57.064731 26.068456 57.064731 
z
" clip-path="url(#p06253ee129)" style="fill: #bebebe"/>
    <path d="M 43.528273 81.735429 
C 43.926078 81.735429 44.307643 81.57738 44.588933 81.296089 
C 44.870224 81.014799 45.028273 80.633234 45.028273 80.235429 
C 45.028273 79.837624 44.870224 79.456059 44.588933 79.174769 
C 44.307643 78.893479 43.926078 78.735429 43.528273 78.735429 
C 43.130468 78.735429 42.748903 78.893479 42.467613 79.174769 
C 42.186323 79.456059 42.028273 79.837624 42.028273 80.235429 
C 42.028273 80.633234 42.186323 81.014799 42.467613 81.296089 
C 42.748903 81.57738 43.130468 81.735429 43.528273 81.735429 
z
" clip-path="url(#p06253ee129)" style="fill: #bebebe"/>
    <path d="M 85.68 91.954367 
C 86.077805 91.954367 86.45937 91.796318 86.74066 91.515027 
C 87.021951 91.233737 87.18 90.852172 87.18 90.454367 
C 87.18 90.056562 87.021951 89.674997 86.74066 89.393707 
C 86.45937 89.112416 86.077805 88.954367 85.68 88.954367 
C 85.282195 88.954367 84.90063 89.112416 84.61934 89.393707 
C 84.338049 89.674997 84.18 90.056562 84.18 90.454367 
C 84.18 90.852172 84.338049 91.233737 84.61934 91.515027 
C 84.90063 91.796318 85.282195 91.954367 85.68 91.954367 
z
" clip-path="url(#p06253ee129)" style="fill: #bebebe"/>
    <path d="M 127.831727 81.735429 
C 128.229532 81.735429 128.611097 81.57738 128.892387 81.296089 
C 129.173677 81.014799 129.331727 80.633234 129.331727 80.235429 
C 129.331727 79.837624 129.173677 79.456059 128.892387 79.174769 
C 128.611097 78.893479 128.229532 78.735429 127.831727 78.735429 
C 127.433922 78.735429 127.052357 78.893479 126.771067 79.174769 
C 126.489776 79.456059 126.331727 79.837624 126.331727 80.235429 
C 126.331727 80.633234 126.489776 81.014799 126.771067 81.296089 
C 127.052357 81.57738 127.433922 81.735429 127.831727 81.735429 
z
" clip-path="url(#p06253ee129)" style="fill: #bebebe"/>
   </g>
   <g id="matplotlib.axis_1"/>
   <g id="matplotlib.axis_2"/>
  </g>
  <g id="axes_2">
   <g id="patch_3">
    <path d="M 12.852 197.28 
L 158.508 197.28 
L 158.508 109.44 
L 12.852 109.44 
z
" style="fill: #ffffff"/>
   </g>
   <g id="EdgeCollection_2">
    <path d="M 146.590582 154.954731 
C 172.02174 167.824446 172.02174 140.585016 146.590582 153.454731 
C 172.02174 140.585016 172.02174 167.824446 146.590582 154.954731 
" clip-path="url(#pe769be5c5f)" style="fill: #020202"/>
    <path d="M 144.425022 152.980337 
L 131.297813 134.431607 
" clip-path="url(#pe769be5c5f)" style="fill: #020202"/>
    <path d="M 143.996976 153.447041 
L 90.858273 122.345851 
" clip-path="url(#pe769be5c5f)" style="fill: #020202"/>
    <path d="M 143.833771 153.851319 
L 49.359363 130.947676 
" clip-path="url(#pe769be5c5f)" style="fill: #020202"/>
    <path d="M 143.791544 154.204731 
L 27.568456 154.204731 
" clip-path="url(#pe769be5c5f)" style="fill: #020202"/>
    <path d="M 143.833771 154.558142 
L 44.986046 178.522018 
" clip-path="url(#pe769be5c5f)" style="fill: #020202"/>
    <path d="M 143.996976 154.96242 
L 86.974568 188.336678 
" clip-path="url(#pe769be5c5f)" style="fill: #020202"/>
    <path d="M 144.425022 155.429124 
L 128.698248 177.651035 
" clip-path="url(#pe769be5c5f)" style="fill: #020202"/>
    <path d="M 133.232267 126.919809 
C 154.113334 115.067618 131.576093 99.768621 128.268014 123.549915 
C 131.576093 99.768621 154.113334 115.067618 133.232267 126.919809 
" clip-path="url(#pe769be5c5f)" style="fill: #020202"/>
    <path d="M 122.000637 128.120388 
L 91.51109 120.728738 
" clip-path="url(#pe769be5c5f)" style="fill: #020202; stroke: #020202; stroke-width: 1.485"/>
    <path d="M 121.831727 129.534032 
L 49.528273 129.534032 
" clip-path="url(#pe769be5c5f)" style="fill: #020202; stroke: #020202; stroke-width: 1.485"/>
    <path d="M 122.000637 130.947676 
L 27.526229 153.851319 
" clip-path="url(#pe769be5c5f)" style="fill: #020202"/>
    <path d="M 122.653454 132.564789 
L 44.822841 178.11774 
" clip-path="url(#pe769be5c5f)" style="fill: #020202"/>
    <path d="M 124.365641 134.431607 
L 86.546522 187.869973 
" clip-path="url(#pe769be5c5f)" style="fill: #020202"/>
    <path d="M 127.831727 135.534032 
L 127.831727 177.375429 
" clip-path="url(#pe769be5c5f)" style="fill: #020202"/>
    <path d="M 88.68 114.118942 
C 99.299715 92.584898 72.060285 92.584898 82.68 114.118942 
C 72.060285 92.584898 99.299715 92.584898 88.68 114.118942 
" clip-path="url(#pe769be5c5f)" style="fill: #020202"/>
    <path d="M 79.84891 120.728738 
L 49.359363 128.120388 
" clip-path="url(#pe769be5c5f)" style="fill: #020202; stroke: #020202; stroke-width: 1.485"/>
    <path d="M 80.501727 122.345851 
L 27.363024 153.447041 
" clip-path="url(#pe769be5c5f)" style="fill: #020202"/>
    <path d="M 82.213914 124.21267 
L 44.394795 177.651035 
" clip-path="url(#pe769be5c5f)" style="fill: #020202"/>
    <path d="M 85.68 125.315094 
L 85.68 187.594367 
" clip-path="url(#pe769be5c5f)" style="fill: #020202"/>
    <path d="M 89.146086 124.21267 
L 126.965205 177.651035 
" clip-path="url(#pe769be5c5f)" style="fill: #020202"/>
    <path d="M 43.091986 123.549915 
C 39.783907 99.768621 17.246666 115.067618 38.127733 126.919809 
C 17.246666 115.067618 39.783907 99.768621 43.091986 123.549915 
" clip-path="url(#pe769be5c5f)" style="fill: #020202"/>
    <path d="M 40.062187 134.431607 
L 26.934978 152.980337 
" clip-path="url(#pe769be5c5f)" style="fill: #020202"/>
    <path d="M 43.528273 135.534032 
L 43.528273 177.375429 
" clip-path="url(#pe769be5c5f)" style="fill: #020202"/>
    <path d="M 46.994359 134.431607 
L 84.813478 187.869973 
" clip-path="url(#pe769be5c5f)" style="fill: #020202"/>
    <path d="M 48.706546 132.564789 
L 126.537159 178.11774 
" clip-path="url(#pe769be5c5f)" style="fill: #020202"/>
    <path d="M 24.769418 153.454731 
C -0.66174 140.585016 -0.66174 167.824446 24.769418 154.954731 
C -0.66174 167.824446 -0.66174 140.585016 24.769418 153.454731 
" clip-path="url(#pe769be5c5f)" style="fill: #020202"/>
    <path d="M 26.934978 155.429124 
L 42.661752 177.651035 
" clip-path="url(#pe769be5c5f)" style="fill: #020202"/>
    <path d="M 27.363024 154.96242 
L 84.385432 188.336678 
" clip-path="url(#pe769be5c5f)" style="fill: #020202"/>
    <path d="M 27.526229 154.558142 
L 126.373954 178.522018 
" clip-path="url(#pe769be5c5f)" style="fill: #020202"/>
    <path d="M 42.178138 179.528985 
C 17.246666 193.341843 39.783907 208.640841 43.419201 180.371458 
C 39.783907 208.640841 17.246666 193.341843 42.178138 179.528985 
" clip-path="url(#pe769be5c5f)" style="fill: #020202"/>
    <path d="M 44.986046 179.22884 
L 84.222228 188.740956 
" clip-path="url(#pe769be5c5f)" style="fill: #020202"/>
    <path d="M 45.028273 178.875429 
L 126.331727 178.875429 
" clip-path="url(#pe769be5c5f)" style="fill: #020202"/>
    <path d="M 84.93 190.393405 
C 72.060285 215.824563 99.299715 215.824563 86.43 190.393405 
C 99.299715 215.824563 72.060285 215.824563 84.93 190.393405 
" clip-path="url(#pe769be5c5f)" style="fill: #020202"/>
    <path d="M 87.137772 188.740956 
L 126.373954 179.22884 
" clip-path="url(#pe769be5c5f)" style="fill: #020202"/>
    <path d="M 127.940799 180.371458 
C 131.576093 208.640841 154.113334 193.341843 129.181862 179.528985 
C 154.113334 193.341843 131.576093 208.640841 127.940799 180.371458 
" clip-path="url(#pe769be5c5f)" style="fill: #020202"/>
   </g>
   <g id="VertexCollection_2">
    <path d="M 145.291544 155.704731 
C 145.689348 155.704731 146.070914 155.546681 146.352204 155.265391 
C 146.633494 154.9841 146.791544 154.602535 146.791544 154.204731 
C 146.791544 153.806926 146.633494 153.425361 146.352204 153.14407 
C 146.070914 152.86278 145.689348 152.704731 145.291544 152.704731 
C 144.893739 152.704731 144.512174 152.86278 144.230884 153.14407 
C 143.949593 153.425361 143.791544 153.806926 143.791544 154.204731 
C 143.791544 154.602535 143.949593 154.9841 144.230884 155.265391 
C 144.512174 155.546681 144.893739 155.704731 145.291544 155.704731 
z
" clip-path="url(#pe769be5c5f)" style="fill: #bebebe"/>
    <path d="M 127.831727 135.534032 
C 129.422945 135.534032 130.949206 134.901834 132.074368 133.776673 
C 133.199529 132.651511 133.831727 131.125251 133.831727 129.534032 
C 133.831727 127.942813 133.199529 126.416553 132.074368 125.291391 
C 130.949206 124.16623 129.422945 123.534032 127.831727 123.534032 
C 126.240508 123.534032 124.714248 124.16623 123.589086 125.291391 
C 122.463925 126.416553 121.831727 127.942813 121.831727 129.534032 
C 121.831727 131.125251 122.463925 132.651511 123.589086 133.776673 
C 124.714248 134.901834 126.240508 135.534032 127.831727 135.534032 
z
" clip-path="url(#pe769be5c5f)" style="fill: #bebebe"/>
    <path d="M 85.68 125.315094 
C 87.271219 125.315094 88.797479 124.682896 89.922641 123.557735 
C 91.047802 122.432573 91.68 120.906313 91.68 119.315094 
C 91.68 117.723875 91.047802 116.197615 89.922641 115.072453 
C 88.797479 113.947292 87.271219 113.315094 85.68 113.315094 
C 84.088781 113.315094 82.562521 113.947292 81.437359 115.072453 
C 80.312198 116.197615 79.68 117.723875 79.68 119.315094 
C 79.68 120.906313 80.312198 122.432573 81.437359 123.557735 
C 82.562521 124.682896 84.088781 125.315094 85.68 125.315094 
z
" clip-path="url(#pe769be5c5f)" style="fill: #bebebe"/>
    <path d="M 43.528273 135.534032 
C 45.119492 135.534032 46.645752 134.901834 47.770914 133.776673 
C 48.896075 132.651511 49.528273 131.125251 49.528273 129.534032 
C 49.528273 127.942813 48.896075 126.416553 47.770914 125.291391 
C 46.645752 124.16623 45.119492 123.534032 43.528273 123.534032 
C 41.937055 123.534032 40.410794 124.16623 39.285632 125.291391 
C 38.160471 126.416553 37.528273 127.942813 37.528273 129.534032 
C 37.528273 131.125251 38.160471 132.651511 39.285632 133.776673 
C 40.410794 134.901834 41.937055 135.534032 43.528273 135.534032 
z
" clip-path="url(#pe769be5c5f)" style="fill: #bebebe"/>
    <path d="M 26.068456 155.704731 
C 26.466261 155.704731 26.847826 155.546681 27.129116 155.265391 
C 27.410407 154.9841 27.568456 154.602535 27.568456 154.204731 
C 27.568456 153.806926 27.410407 153.425361 27.129116 153.14407 
C 26.847826 152.86278 26.466261 152.704731 26.068456 152.704731 
C 25.670652 152.704731 25.289086 152.86278 25.007796 153.14407 
C 24.726506 153.425361 24.568456 153.806926 24.568456 154.204731 
C 24.568456 154.602535 24.726506 154.9841 25.007796 155.265391 
C 25.289086 155.546681 25.670652 155.704731 26.068456 155.704731 
z
" clip-path="url(#pe769be5c5f)" style="fill: #bebebe"/>
    <path d="M 43.528273 180.375429 
C 43.926078 180.375429 44.307643 180.21738 44.588933 179.936089 
C 44.870224 179.654799 45.028273 179.273234 45.028273 178.875429 
C 45.028273 178.477624 44.870224 178.096059 44.588933 177.814769 
C 44.307643 177.533479 43.926078 177.375429 43.528273 177.375429 
C 43.130468 177.375429 42.748903 177.533479 42.467613 177.814769 
C 42.186323 178.096059 42.028273 178.477624 42.028273 178.875429 
C 42.028273 179.273234 42.186323 179.654799 42.467613 179.936089 
C 42.748903 180.21738 43.130468 180.375429 43.528273 180.375429 
z
" clip-path="url(#pe769be5c5f)" style="fill: #bebebe"/>
    <path d="M 85.68 190.594367 
C 86.077805 190.594367 86.45937 190.436318 86.74066 190.155027 
C 87.021951 189.873737 87.18 189.492172 87.18 189.094367 
C 87.18 188.696562 87.021951 188.314997 86.74066 188.033707 
C 86.45937 187.752416 86.077805 187.594367 85.68 187.594367 
C 85.282195 187.594367 84.90063 187.752416 84.61934 188.033707 
C 84.338049 188.314997 84.18 188.696562 84.18 189.094367 
C 84.18 189.492172 84.338049 189.873737 84.61934 190.155027 
C 84.90063 190.436318 85.282195 190.594367 85.68 190.594367 
z
" clip-path="url(#pe769be5c5f)" style="fill: #bebebe"/>
    <path d="M 127.831727 180.375429 
C 128.229532 180.375429 128.611097 180.21738 128.892387 179.936089 
C 129.173677 179.654799 129.331727 179.273234 129.331727 178.875429 
C 129.331727 178.477624 129.173677 178.096059 128.892387 177.814769 
C 128.611097 177.533479 128.229532 177.375429 127.831727 177.375429 
C 127.433922 177.375429 127.052357 177.533479 126.771067 177.814769 
C 126.489776 178.096059 126.331727 178.477624 126.331727 178.875429 
C 126.331727 179.273234 126.489776 179.654799 126.771067 179.936089 
C 127.052357 180.21738 127.433922 180.375429 127.831727 180.375429 
z
" clip-path="url(#pe769be5c5f)" style="fill: #bebebe"/>
   </g>
   <g id="matplotlib.axis_3"/>
   <g id="matplotlib.axis_4"/>
  </g>
  <g id="axes_3">
   <g id="patch_4">
    <path d="M 12.852 295.92 
L 158.508 295.92 
L 158.508 208.08 
L 12.852 208.08 
z
" style="fill: #ffffff"/>
   </g>
   <g id="EdgeCollection_3">
    <path d="M 146.590582 253.594731 
C 172.02174 266.464446 172.02174 239.225016 146.590582 252.094731 
C 172.02174 239.225016 172.02174 266.464446 146.590582 253.594731 
" clip-path="url(#p8466850f94)" style="fill: #020202"/>
    <path d="M 144.425022 251.620337 
L 128.698248 229.398426 
" clip-path="url(#p8466850f94)" style="fill: #020202"/>
    <path d="M 143.996976 252.087041 
L 90.858273 220.985851 
" clip-path="url(#p8466850f94)" style="fill: #020202"/>
    <path d="M 143.833771 252.491319 
L 49.359363 229.587676 
" clip-path="url(#p8466850f94)" style="fill: #020202"/>
    <path d="M 143.791544 252.844731 
L 27.568456 252.844731 
" clip-path="url(#p8466850f94)" style="fill: #020202"/>
    <path d="M 143.833771 253.198142 
L 44.986046 277.162018 
" clip-path="url(#p8466850f94)" style="fill: #020202"/>
    <path d="M 143.996976 253.60242 
L 86.974568 286.976678 
" clip-path="url(#p8466850f94)" style="fill: #020202"/>
    <path d="M 144.425022 254.069124 
L 128.698248 276.291035 
" clip-path="url(#p8466850f94)" style="fill: #020202"/>
    <path d="M 129.181862 227.520476 
C 154.113334 213.707618 131.576093 198.408621 127.940799 226.678003 
C 131.576093 198.408621 154.113334 213.707618 129.181862 227.520476 
" clip-path="url(#p8466850f94)" style="fill: #020202"/>
    <path d="M 126.373954 227.820621 
L 91.51109 219.368738 
" clip-path="url(#p8466850f94)" style="fill: #020202"/>
    <path d="M 126.331727 228.174032 
L 49.528273 228.174032 
" clip-path="url(#p8466850f94)" style="fill: #020202; stroke: #020202; stroke-width: 1.485"/>
    <path d="M 126.373954 228.527443 
L 27.526229 252.491319 
" clip-path="url(#p8466850f94)" style="fill: #020202"/>
    <path d="M 126.537159 228.931721 
L 44.822841 276.75774 
" clip-path="url(#p8466850f94)" style="fill: #020202"/>
    <path d="M 126.965205 229.398426 
L 86.546522 286.509973 
" clip-path="url(#p8466850f94)" style="fill: #020202"/>
    <path d="M 127.831727 229.674032 
L 127.831727 276.015429 
" clip-path="url(#p8466850f94)" style="fill: #020202"/>
    <path d="M 88.68 212.758942 
C 99.299715 191.224898 72.060285 191.224898 82.68 212.758942 
C 72.060285 191.224898 99.299715 191.224898 88.68 212.758942 
" clip-path="url(#p8466850f94)" style="fill: #020202"/>
    <path d="M 79.84891 219.368738 
L 49.359363 226.760388 
" clip-path="url(#p8466850f94)" style="fill: #020202; stroke: #020202; stroke-width: 1.485"/>
    <path d="M 80.501727 220.985851 
L 27.363024 252.087041 
" clip-path="url(#p8466850f94)" style="fill: #020202"/>
    <path d="M 82.213914 222.85267 
L 44.394795 276.291035 
" clip-path="url(#p8466850f94)" style="fill: #020202"/>
    <path d="M 85.68 223.955094 
L 85.68 286.234367 
" clip-path="url(#p8466850f94)" style="fill: #020202; stroke: #020202; stroke-width: 1.485"/>
    <path d="M 89.146086 222.85267 
L 126.965205 276.291035 
" clip-path="url(#p8466850f94)" style="fill: #020202"/>
    <path d="M 43.091986 222.189915 
C 39.783907 198.408621 17.246666 213.707618 38.127733 225.559809 
C 17.246666 213.707618 39.783907 198.408621 43.091986 222.189915 
" clip-path="url(#p8466850f94)" style="fill: #020202"/>
    <path d="M 40.062187 233.071607 
L 26.934978 251.620337 
" clip-path="url(#p8466850f94)" style="fill: #020202"/>
    <path d="M 43.528273 234.174032 
L 43.528273 276.015429 
" clip-path="url(#p8466850f94)" style="fill: #020202"/>
    <path d="M 46.994359 233.071607 
L 84.813478 286.509973 
" clip-path="url(#p8466850f94)" style="fill: #020202"/>
    <path d="M 48.706546 231.204789 
L 126.537159 276.75774 
" clip-path="url(#p8466850f94)" style="fill: #020202"/>
    <path d="M 24.769418 252.094731 
C -0.66174 239.225016 -0.66174 266.464446 24.769418 253.594731 
C -0.66174 266.464446 -0.66174 239.225016 24.769418 252.094731 
" clip-path="url(#p8466850f94)" style="fill: #020202"/>
    <path d="M 26.934978 254.069124 
L 42.661752 276.291035 
" clip-path="url(#p8466850f94)" style="fill: #020202"/>
    <path d="M 27.363024 253.60242 
L 84.385432 286.976678 
" clip-path="url(#p8466850f94)" style="fill: #020202"/>
    <path d="M 27.526229 253.198142 
L 126.373954 277.162018 
" clip-path="url(#p8466850f94)" style="fill: #020202"/>
    <path d="M 42.178138 278.168985 
C 17.246666 291.981843 39.783907 307.280841 43.419201 279.011458 
C 39.783907 307.280841 17.246666 291.981843 42.178138 278.168985 
" clip-path="url(#p8466850f94)" style="fill: #020202"/>
    <path d="M 44.986046 277.86884 
L 84.222228 287.380956 
" clip-path="url(#p8466850f94)" style="fill: #020202"/>
    <path d="M 45.028273 277.515429 
L 126.331727 277.515429 
" clip-path="url(#p8466850f94)" style="fill: #020202"/>
    <path d="M 84.93 289.033405 
C 72.060285 314.464563 99.299715 314.464563 86.43 289.033405 
C 99.299715 314.464563 72.060285 314.464563 84.93 289.033405 
" clip-path="url(#p8466850f94)" style="fill: #020202"/>
    <path d="M 87.137772 287.380956 
L 126.373954 277.86884 
" clip-path="url(#p8466850f94)" style="fill: #020202"/>
    <path d="M 127.940799 279.011458 
C 131.576093 307.280841 154.113334 291.981843 129.181862 278.168985 
C 154.113334 291.981843 131.576093 307.280841 127.940799 279.011458 
" clip-path="url(#p8466850f94)" style="fill: #020202"/>
   </g>
   <g id="VertexCollection_3">
    <path d="M 145.291544 254.344731 
C 145.689348 254.344731 146.070914 254.186681 146.352204 253.905391 
C 146.633494 253.6241 146.791544 253.242535 146.791544 252.844731 
C 146.791544 252.446926 146.633494 252.065361 146.352204 251.78407 
C 146.070914 251.50278 145.689348 251.344731 145.291544 251.344731 
C 144.893739 251.344731 144.512174 251.50278 144.230884 251.78407 
C 143.949593 252.065361 143.791544 252.446926 143.791544 252.844731 
C 143.791544 253.242535 143.949593 253.6241 144.230884 253.905391 
C 144.512174 254.186681 144.893739 254.344731 145.291544 254.344731 
z
" clip-path="url(#p8466850f94)" style="fill: #bebebe"/>
    <path d="M 127.831727 229.674032 
C 128.229532 229.674032 128.611097 229.515983 128.892387 229.234692 
C 129.173677 228.953402 129.331727 228.571837 129.331727 228.174032 
C 129.331727 227.776227 129.173677 227.394662 128.892387 227.113372 
C 128.611097 226.832081 128.229532 226.674032 127.831727 226.674032 
C 127.433922 226.674032 127.052357 226.832081 126.771067 227.113372 
C 126.489776 227.394662 126.331727 227.776227 126.331727 228.174032 
C 126.331727 228.571837 126.489776 228.953402 126.771067 229.234692 
C 127.052357 229.515983 127.433922 229.674032 127.831727 229.674032 
z
" clip-path="url(#p8466850f94)" style="fill: #bebebe"/>
    <path d="M 85.68 223.955094 
C 87.271219 223.955094 88.797479 223.322896 89.922641 222.197735 
C 91.047802 221.072573 91.68 219.546313 91.68 217.955094 
C 91.68 216.363875 91.047802 214.837615 89.922641 213.712453 
C 88.797479 212.587292 87.271219 211.955094 85.68 211.955094 
C 84.088781 211.955094 82.562521 212.587292 81.437359 213.712453 
C 80.312198 214.837615 79.68 216.363875 79.68 217.955094 
C 79.68 219.546313 80.312198 221.072573 81.437359 222.197735 
C 82.562521 223.322896 84.088781 223.955094 85.68 223.955094 
z
" clip-path="url(#p8466850f94)" style="fill: #bebebe"/>
    <path d="M 43.528273 234.174032 
C 45.119492 234.174032 46.645752 233.541834 47.770914 232.416673 
C 48.896075 231.291511 49.528273 229.765251 49.528273 228.174032 
C 49.528273 226.582813 48.896075 225.056553 47.770914 223.931391 
C 46.645752 222.80623 45.119492 222.174032 43.528273 222.174032 
C 41.937055 222.174032 40.410794 222.80623 39.285632 223.931391 
C 38.160471 225.056553 37.528273 226.582813 37.528273 228.174032 
C 37.528273 229.765251 38.160471 231.291511 39.285632 232.416673 
C 40.410794 233.541834 41.937055 234.174032 43.528273 234.174032 
z
" clip-path="url(#p8466850f94)" style="fill: #bebebe"/>
    <path d="M 26.068456 254.344731 
C 26.466261 254.344731 26.847826 254.186681 27.129116 253.905391 
C 27.410407 253.6241 27.568456 253.242535 27.568456 252.844731 
C 27.568456 252.446926 27.410407 252.065361 27.129116 251.78407 
C 26.847826 251.50278 26.466261 251.344731 26.068456 251.344731 
C 25.670652 251.344731 25.289086 251.50278 25.007796 251.78407 
C 24.726506 252.065361 24.568456 252.446926 24.568456 252.844731 
C 24.568456 253.242535 24.726506 253.6241 25.007796 253.905391 
C 25.289086 254.186681 25.670652 254.344731 26.068456 254.344731 
z
" clip-path="url(#p8466850f94)" style="fill: #bebebe"/>
    <path d="M 43.528273 279.015429 
C 43.926078 279.015429 44.307643 278.85738 44.588933 278.576089 
C 44.870224 278.294799 45.028273 277.913234 45.028273 277.515429 
C 45.028273 277.117624 44.870224 276.736059 44.588933 276.454769 
C 44.307643 276.173479 43.926078 276.015429 43.528273 276.015429 
C 43.130468 276.015429 42.748903 276.173479 42.467613 276.454769 
C 42.186323 276.736059 42.028273 277.117624 42.028273 277.515429 
C 42.028273 277.913234 42.186323 278.294799 42.467613 278.576089 
C 42.748903 278.85738 43.130468 279.015429 43.528273 279.015429 
z
" clip-path="url(#p8466850f94)" style="fill: #bebebe"/>
    <path d="M 85.68 289.234367 
C 86.077805 289.234367 86.45937 289.076318 86.74066 288.795027 
C 87.021951 288.513737 87.18 288.132172 87.18 287.734367 
C 87.18 287.336562 87.021951 286.954997 86.74066 286.673707 
C 86.45937 286.392416 86.077805 286.234367 85.68 286.234367 
C 85.282195 286.234367 84.90063 286.392416 84.61934 286.673707 
C 84.338049 286.954997 84.18 287.336562 84.18 287.734367 
C 84.18 288.132172 84.338049 288.513737 84.61934 288.795027 
C 84.90063 289.076318 85.282195 289.234367 85.68 289.234367 
z
" clip-path="url(#p8466850f94)" style="fill: #bebebe"/>
    <path d="M 127.831727 279.015429 
C 128.229532 279.015429 128.611097 278.85738 128.892387 278.576089 
C 129.173677 278.294799 129.331727 277.913234 129.331727 277.515429 
C 129.331727 277.117624 129.173677 276.736059 128.892387 276.454769 
C 128.611097 276.173479 128.229532 276.015429 127.831727 276.015429 
C 127.433922 276.015429 127.052357 276.173479 126.771067 276.454769 
C 126.489776 276.736059 126.331727 277.117624 126.331727 277.515429 
C 126.331727 277.913234 126.489776 278.294799 126.771067 278.576089 
C 127.052357 278.85738 127.433922 279.015429 127.831727 279.015429 
z
" clip-path="url(#p8466850f94)" style="fill: #bebebe"/>
   </g>
   <g id="matplotlib.axis_5"/>
   <g id="matplotlib.axis_6"/>
  </g>
  <g id="axes_4">
   <g id="patch_5">
    <path d="M 12.852 394.56 
L 158.508 394.56 
L 158.508 306.72 
L 12.852 306.72 
z
" style="fill: #ffffff"/>
   </g>
   <g id="EdgeCollection_4">
    <path d="M 146.590582 352.234731 
C 172.02174 365.104446 172.02174 337.865016 146.590582 350.734731 
C 172.02174 337.865016 172.02174 365.104446 146.590582 352.234731 
" clip-path="url(#p624f09e480)" style="fill: #020202"/>
    <path d="M 144.425022 350.260337 
L 128.698248 328.038426 
" clip-path="url(#p624f09e480)" style="fill: #020202"/>
    <path d="M 143.996976 350.727041 
L 90.858273 319.625851 
" clip-path="url(#p624f09e480)" style="fill: #020202"/>
    <path d="M 143.833771 351.131319 
L 49.359363 328.227676 
" clip-path="url(#p624f09e480)" style="fill: #020202"/>
    <path d="M 143.791544 351.484731 
L 27.568456 351.484731 
" clip-path="url(#p624f09e480)" style="fill: #020202"/>
    <path d="M 143.833771 351.838142 
L 44.986046 375.802018 
" clip-path="url(#p624f09e480)" style="fill: #020202"/>
    <path d="M 143.996976 352.24242 
L 86.974568 385.616678 
" clip-path="url(#p624f09e480)" style="fill: #020202"/>
    <path d="M 144.425022 352.709124 
L 128.698248 374.931035 
" clip-path="url(#p624f09e480)" style="fill: #020202"/>
    <path d="M 129.181862 326.160476 
C 154.113334 312.347618 131.576093 297.048621 127.940799 325.318003 
C 131.576093 297.048621 154.113334 312.347618 129.181862 326.160476 
" clip-path="url(#p624f09e480)" style="fill: #020202"/>
    <path d="M 126.373954 326.460621 
L 91.51109 318.008738 
" clip-path="url(#p624f09e480)" style="fill: #020202"/>
    <path d="M 126.331727 326.814032 
L 49.528273 326.814032 
" clip-path="url(#p624f09e480)" style="fill: #020202; stroke: #020202; stroke-width: 1.485"/>
    <path d="M 126.373954 327.167443 
L 27.526229 351.131319 
" clip-path="url(#p624f09e480)" style="fill: #020202"/>
    <path d="M 126.537159 327.571721 
L 44.822841 375.39774 
" clip-path="url(#p624f09e480)" style="fill: #020202"/>
    <path d="M 126.965205 328.038426 
L 86.546522 385.149973 
" clip-path="url(#p624f09e480)" style="fill: #020202"/>
    <path d="M 127.831727 328.314032 
L 127.831727 374.655429 
" clip-path="url(#p624f09e480)" style="fill: #020202"/>
    <path d="M 88.68 311.398942 
C 99.299715 289.864898 72.060285 289.864898 82.68 311.398942 
C 72.060285 289.864898 99.299715 289.864898 88.68 311.398942 
" clip-path="url(#p624f09e480)" style="fill: #020202"/>
    <path d="M 79.84891 318.008738 
L 49.359363 325.400388 
" clip-path="url(#p624f09e480)" style="fill: #020202; stroke: #020202; stroke-width: 1.485"/>
    <path d="M 80.501727 319.625851 
L 27.363024 350.727041 
" clip-path="url(#p624f09e480)" style="fill: #020202"/>
    <path d="M 82.213914 321.49267 
L 44.394795 374.931035 
" clip-path="url(#p624f09e480)" style="fill: #020202"/>
    <path d="M 85.68 322.595094 
L 85.68 384.874367 
" clip-path="url(#p624f09e480)" style="fill: #020202; stroke: #020202; stroke-width: 1.485"/>
    <path d="M 89.146086 321.49267 
L 126.965205 374.931035 
" clip-path="url(#p624f09e480)" style="fill: #020202"/>
    <path d="M 43.091986 320.829915 
C 39.783907 297.048621 17.246666 312.347618 38.127733 324.199809 
C 17.246666 312.347618 39.783907 297.048621 43.091986 320.829915 
" clip-path="url(#p624f09e480)" style="fill: #020202"/>
    <path d="M 40.062187 331.711607 
L 26.934978 350.260337 
" clip-path="url(#p624f09e480)" style="fill: #020202"/>
    <path d="M 43.528273 332.814032 
L 43.528273 374.655429 
" clip-path="url(#p624f09e480)" style="fill: #020202"/>
    <path d="M 46.994359 331.711607 
L 84.813478 385.149973 
" clip-path="url(#p624f09e480)" style="fill: #020202"/>
    <path d="M 48.706546 329.844789 
L 126.537159 375.39774 
" clip-path="url(#p624f09e480)" style="fill: #020202"/>
    <path d="M 24.769418 350.734731 
C -0.66174 337.865016 -0.66174 365.104446 24.769418 352.234731 
C -0.66174 365.104446 -0.66174 337.865016 24.769418 350.734731 
" clip-path="url(#p624f09e480)" style="fill: #020202"/>
    <path d="M 26.934978 352.709124 
L 42.661752 374.931035 
" clip-path="url(#p624f09e480)" style="fill: #020202"/>
    <path d="M 27.363024 352.24242 
L 84.385432 385.616678 
" clip-path="url(#p624f09e480)" style="fill: #020202"/>
    <path d="M 27.526229 351.838142 
L 126.373954 375.802018 
" clip-path="url(#p624f09e480)" style="fill: #020202"/>
    <path d="M 42.178138 376.808985 
C 17.246666 390.621843 39.783907 405.920841 43.419201 377.651458 
C 39.783907 405.920841 17.246666 390.621843 42.178138 376.808985 
" clip-path="url(#p624f09e480)" style="fill: #020202"/>
    <path d="M 44.986046 376.50884 
L 84.222228 386.020956 
" clip-path="url(#p624f09e480)" style="fill: #020202"/>
    <path d="M 45.028273 376.155429 
L 126.331727 376.155429 
" clip-path="url(#p624f09e480)" style="fill: #020202"/>
    <path d="M 84.93 387.673405 
C 72.060285 413.104563 99.299715 413.104563 86.43 387.673405 
C 99.299715 413.104563 72.060285 413.104563 84.93 387.673405 
" clip-path="url(#p624f09e480)" style="fill: #020202"/>
    <path d="M 87.137772 386.020956 
L 126.373954 376.50884 
" clip-path="url(#p624f09e480)" style="fill: #020202"/>
    <path d="M 127.940799 377.651458 
C 131.576093 405.920841 154.113334 390.621843 129.181862 376.808985 
C 154.113334 390.621843 131.576093 405.920841 127.940799 377.651458 
" clip-path="url(#p624f09e480)" style="fill: #020202"/>
   </g>
   <g id="VertexCollection_4">
    <path d="M 145.291544 352.984731 
C 145.689348 352.984731 146.070914 352.826681 146.352204 352.545391 
C 146.633494 352.2641 146.791544 351.882535 146.791544 351.484731 
C 146.791544 351.086926 146.633494 350.705361 146.352204 350.42407 
C 146.070914 350.14278 145.689348 349.984731 145.291544 349.984731 
C 144.893739 349.984731 144.512174 350.14278 144.230884 350.42407 
C 143.949593 350.705361 143.791544 351.086926 143.791544 351.484731 
C 143.791544 351.882535 143.949593 352.2641 144.230884 352.545391 
C 144.512174 352.826681 144.893739 352.984731 145.291544 352.984731 
z
" clip-path="url(#p624f09e480)" style="fill: #bebebe"/>
    <path d="M 127.831727 328.314032 
C 128.229532 328.314032 128.611097 328.155983 128.892387 327.874692 
C 129.173677 327.593402 129.331727 327.211837 129.331727 326.814032 
C 129.331727 326.416227 129.173677 326.034662 128.892387 325.753372 
C 128.611097 325.472081 128.229532 325.314032 127.831727 325.314032 
C 127.433922 325.314032 127.052357 325.472081 126.771067 325.753372 
C 126.489776 326.034662 126.331727 326.416227 126.331727 326.814032 
C 126.331727 327.211837 126.489776 327.593402 126.771067 327.874692 
C 127.052357 328.155983 127.433922 328.314032 127.831727 328.314032 
z
" clip-path="url(#p624f09e480)" style="fill: #bebebe"/>
    <path d="M 85.68 322.595094 
C 87.271219 322.595094 88.797479 321.962896 89.922641 320.837735 
C 91.047802 319.712573 91.68 318.186313 91.68 316.595094 
C 91.68 315.003875 91.047802 313.477615 89.922641 312.352453 
C 88.797479 311.227292 87.271219 310.595094 85.68 310.595094 
C 84.088781 310.595094 82.562521 311.227292 81.437359 312.352453 
C 80.312198 313.477615 79.68 315.003875 79.68 316.595094 
C 79.68 318.186313 80.312198 319.712573 81.437359 320.837735 
C 82.562521 321.962896 84.088781 322.595094 85.68 322.595094 
z
" clip-path="url(#p624f09e480)" style="fill: #bebebe"/>
    <path d="M 43.528273 332.814032 
C 45.119492 332.814032 46.645752 332.181834 47.770914 331.056673 
C 48.896075 329.931511 49.528273 328.405251 49.528273 326.814032 
C 49.528273 325.222813 48.896075 323.696553 47.770914 322.571391 
C 46.645752 321.44623 45.119492 320.814032 43.528273 320.814032 
C 41.937055 320.814032 40.410794 321.44623 39.285632 322.571391 
C 38.160471 323.696553 37.528273 325.222813 37.528273 326.814032 
C 37.528273 328.405251 38.160471 329.931511 39.285632 331.056673 
C 40.410794 332.181834 41.937055 332.814032 43.528273 332.814032 
z
" clip-path="url(#p624f09e480)" style="fill: #bebebe"/>
    <path d="M 26.068456 352.984731 
C 26.466261 352.984731 26.847826 352.826681 27.129116 352.545391 
C 27.410407 352.2641 27.568456 351.882535 27.568456 351.484731 
C 27.568456 351.086926 27.410407 350.705361 27.129116 350.42407 
C 26.847826 350.14278 26.466261 349.984731 26.068456 349.984731 
C 25.670652 349.984731 25.289086 350.14278 25.007796 350.42407 
C 24.726506 350.705361 24.568456 351.086926 24.568456 351.484731 
C 24.568456 351.882535 24.726506 352.2641 25.007796 352.545391 
C 25.289086 352.826681 25.670652 352.984731 26.068456 352.984731 
z
" clip-path="url(#p624f09e480)" style="fill: #bebebe"/>
    <path d="M 43.528273 377.655429 
C 43.926078 377.655429 44.307643 377.49738 44.588933 377.216089 
C 44.870224 376.934799 45.028273 376.553234 45.028273 376.155429 
C 45.028273 375.757624 44.870224 375.376059 44.588933 375.094769 
C 44.307643 374.813479 43.926078 374.655429 43.528273 374.655429 
C 43.130468 374.655429 42.748903 374.813479 42.467613 375.094769 
C 42.186323 375.376059 42.028273 375.757624 42.028273 376.155429 
C 42.028273 376.553234 42.186323 376.934799 42.467613 377.216089 
C 42.748903 377.49738 43.130468 377.655429 43.528273 377.655429 
z
" clip-path="url(#p624f09e480)" style="fill: #bebebe"/>
    <path d="M 85.68 387.874367 
C 86.077805 387.874367 86.45937 387.716318 86.74066 387.435027 
C 87.021951 387.153737 87.18 386.772172 87.18 386.374367 
C 87.18 385.976562 87.021951 385.594997 86.74066 385.313707 
C 86.45937 385.032416 86.077805 384.874367 85.68 384.874367 
C 85.282195 384.874367 84.90063 385.032416 84.61934 385.313707 
C 84.338049 385.594997 84.18 385.976562 84.18 386.374367 
C 84.18 386.772172 84.338049 387.153737 84.61934 387.435027 
C 84.90063 387.716318 85.282195 387.874367 85.68 387.874367 
z
" clip-path="url(#p624f09e480)" style="fill: #bebebe"/>
    <path d="M 127.831727 377.655429 
C 128.229532 377.655429 128.611097 377.49738 128.892387 377.216089 
C 129.173677 376.934799 129.331727 376.553234 129.331727 376.155429 
C 129.331727 375.757624 129.173677 375.376059 128.892387 375.094769 
C 128.611097 374.813479 128.229532 374.655429 127.831727 374.655429 
C 127.433922 374.655429 127.052357 374.813479 126.771067 375.094769 
C 126.489776 375.376059 126.331727 375.757624 126.331727 376.155429 
C 126.331727 376.553234 126.489776 376.934799 126.771067 377.216089 
C 127.052357 377.49738 127.433922 377.655429 127.831727 377.655429 
z
" clip-path="url(#p624f09e480)" style="fill: #bebebe"/>
   </g>
   <g id="matplotlib.axis_7"/>
   <g id="matplotlib.axis_8"/>
  </g>
  <g id="axes_5">
   <g id="patch_6">
    <path d="M 12.852 493.2 
L 158.508 493.2 
L 158.508 405.36 
L 12.852 405.36 
z
" style="fill: #ffffff"/>
   </g>
   <g id="EdgeCollection_5">
    <path d="M 146.590582 450.874731 
C 172.02174 463.744446 172.02174 436.505016 146.590582 449.374731 
C 172.02174 436.505016 172.02174 463.744446 146.590582 450.874731 
" clip-path="url(#p03438b2639)" style="fill: #020202"/>
    <path d="M 144.425022 448.900337 
L 128.698248 426.678426 
" clip-path="url(#p03438b2639)" style="fill: #020202"/>
    <path d="M 143.996976 449.367041 
L 90.858273 418.265851 
" clip-path="url(#p03438b2639)" style="fill: #020202"/>
    <path d="M 143.833771 449.771319 
L 49.359363 426.867676 
" clip-path="url(#p03438b2639)" style="fill: #020202"/>
    <path d="M 143.791544 450.124731 
L 27.568456 450.124731 
" clip-path="url(#p03438b2639)" style="fill: #020202"/>
    <path d="M 143.833771 450.478142 
L 44.986046 474.442018 
" clip-path="url(#p03438b2639)" style="fill: #020202"/>
    <path d="M 143.996976 450.88242 
L 86.974568 484.256678 
" clip-path="url(#p03438b2639)" style="fill: #020202"/>
    <path d="M 144.425022 451.349124 
L 128.698248 473.571035 
" clip-path="url(#p03438b2639)" style="fill: #020202"/>
    <path d="M 129.181862 424.800476 
C 154.113334 410.987618 131.576093 395.688621 127.940799 423.958003 
C 131.576093 395.688621 154.113334 410.987618 129.181862 424.800476 
" clip-path="url(#p03438b2639)" style="fill: #020202"/>
    <path d="M 126.373954 425.100621 
L 91.51109 416.648738 
" clip-path="url(#p03438b2639)" style="fill: #020202"/>
    <path d="M 126.331727 425.454032 
L 49.528273 425.454032 
" clip-path="url(#p03438b2639)" style="fill: #020202; stroke: #020202; stroke-width: 1.485"/>
    <path d="M 126.373954 425.807443 
L 27.526229 449.771319 
" clip-path="url(#p03438b2639)" style="fill: #020202"/>
    <path d="M 126.537159 426.211721 
L 44.822841 474.03774 
" clip-path="url(#p03438b2639)" style="fill: #020202"/>
    <path d="M 126.965205 426.678426 
L 86.546522 483.789973 
" clip-path="url(#p03438b2639)" style="fill: #020202"/>
    <path d="M 127.831727 426.954032 
L 127.831727 473.295429 
" clip-path="url(#p03438b2639)" style="fill: #020202"/>
    <path d="M 88.68 410.038942 
C 99.299715 388.504898 72.060285 388.504898 82.68 410.038942 
C 72.060285 388.504898 99.299715 388.504898 88.68 410.038942 
" clip-path="url(#p03438b2639)" style="fill: #020202"/>
    <path d="M 79.84891 416.648738 
L 49.359363 424.040388 
" clip-path="url(#p03438b2639)" style="fill: #020202; stroke: #020202; stroke-width: 1.485"/>
    <path d="M 80.501727 418.265851 
L 27.363024 449.367041 
" clip-path="url(#p03438b2639)" style="fill: #020202"/>
    <path d="M 82.213914 420.13267 
L 44.394795 473.571035 
" clip-path="url(#p03438b2639)" style="fill: #020202"/>
    <path d="M 85.68 421.235094 
L 85.68 483.514367 
" clip-path="url(#p03438b2639)" style="fill: #020202; stroke: #020202; stroke-width: 1.485"/>
    <path d="M 89.146086 420.13267 
L 126.965205 473.571035 
" clip-path="url(#p03438b2639)" style="fill: #020202"/>
    <path d="M 43.091986 419.469915 
C 39.783907 395.688621 17.246666 410.987618 38.127733 422.839809 
C 17.246666 410.987618 39.783907 395.688621 43.091986 419.469915 
" clip-path="url(#p03438b2639)" style="fill: #020202"/>
    <path d="M 40.062187 430.351607 
L 26.934978 448.900337 
" clip-path="url(#p03438b2639)" style="fill: #020202"/>
    <path d="M 43.528273 431.454032 
L 43.528273 473.295429 
" clip-path="url(#p03438b2639)" style="fill: #020202"/>
    <path d="M 46.994359 430.351607 
L 84.813478 483.789973 
" clip-path="url(#p03438b2639)" style="fill: #020202"/>
    <path d="M 48.706546 428.484789 
L 126.537159 474.03774 
" clip-path="url(#p03438b2639)" style="fill: #020202"/>
    <path d="M 24.769418 449.374731 
C -0.66174 436.505016 -0.66174 463.744446 24.769418 450.874731 
C -0.66174 463.744446 -0.66174 436.505016 24.769418 449.374731 
" clip-path="url(#p03438b2639)" style="fill: #020202"/>
    <path d="M 26.934978 451.349124 
L 42.661752 473.571035 
" clip-path="url(#p03438b2639)" style="fill: #020202"/>
    <path d="M 27.363024 450.88242 
L 84.385432 484.256678 
" clip-path="url(#p03438b2639)" style="fill: #020202"/>
    <path d="M 27.526229 450.478142 
L 126.373954 474.442018 
" clip-path="url(#p03438b2639)" style="fill: #020202"/>
    <path d="M 42.178138 475.448985 
C 17.246666 489.261843 39.783907 504.560841 43.419201 476.291458 
C 39.783907 504.560841 17.246666 489.261843 42.178138 475.448985 
" clip-path="url(#p03438b2639)" style="fill: #020202"/>
    <path d="M 44.986046 475.14884 
L 84.222228 484.660956 
" clip-path="url(#p03438b2639)" style="fill: #020202"/>
    <path d="M 45.028273 474.795429 
L 126.331727 474.795429 
" clip-path="url(#p03438b2639)" style="fill: #020202"/>
    <path d="M 84.93 486.313405 
C 72.060285 511.744563 99.299715 511.744563 86.43 486.313405 
C 99.299715 511.744563 72.060285 511.744563 84.93 486.313405 
" clip-path="url(#p03438b2639)" style="fill: #020202"/>
    <path d="M 87.137772 484.660956 
L 126.373954 475.14884 
" clip-path="url(#p03438b2639)" style="fill: #020202"/>
    <path d="M 127.940799 476.291458 
C 131.576093 504.560841 154.113334 489.261843 129.181862 475.448985 
C 154.113334 489.261843 131.576093 504.560841 127.940799 476.291458 
" clip-path="url(#p03438b2639)" style="fill: #020202"/>
   </g>
   <g id="VertexCollection_5">
    <path d="M 145.291544 451.624731 
C 145.689348 451.624731 146.070914 451.466681 146.352204 451.185391 
C 146.633494 450.9041 146.791544 450.522535 146.791544 450.124731 
C 146.791544 449.726926 146.633494 449.345361 146.352204 449.06407 
C 146.070914 448.78278 145.689348 448.624731 145.291544 448.624731 
C 144.893739 448.624731 144.512174 448.78278 144.230884 449.06407 
C 143.949593 449.345361 143.791544 449.726926 143.791544 450.124731 
C 143.791544 450.522535 143.949593 450.9041 144.230884 451.185391 
C 144.512174 451.466681 144.893739 451.624731 145.291544 451.624731 
z
" clip-path="url(#p03438b2639)" style="fill: #bebebe"/>
    <path d="M 127.831727 426.954032 
C 128.229532 426.954032 128.611097 426.795983 128.892387 426.514692 
C 129.173677 426.233402 129.331727 425.851837 129.331727 425.454032 
C 129.331727 425.056227 129.173677 424.674662 128.892387 424.393372 
C 128.611097 424.112081 128.229532 423.954032 127.831727 423.954032 
C 127.433922 423.954032 127.052357 424.112081 126.771067 424.393372 
C 126.489776 424.674662 126.331727 425.056227 126.331727 425.454032 
C 126.331727 425.851837 126.489776 426.233402 126.771067 426.514692 
C 127.052357 426.795983 127.433922 426.954032 127.831727 426.954032 
z
" clip-path="url(#p03438b2639)" style="fill: #bebebe"/>
    <path d="M 85.68 421.235094 
C 87.271219 421.235094 88.797479 420.602896 89.922641 419.477735 
C 91.047802 418.352573 91.68 416.826313 91.68 415.235094 
C 91.68 413.643875 91.047802 412.117615 89.922641 410.992453 
C 88.797479 409.867292 87.271219 409.235094 85.68 409.235094 
C 84.088781 409.235094 82.562521 409.867292 81.437359 410.992453 
C 80.312198 412.117615 79.68 413.643875 79.68 415.235094 
C 79.68 416.826313 80.312198 418.352573 81.437359 419.477735 
C 82.562521 420.602896 84.088781 421.235094 85.68 421.235094 
z
" clip-path="url(#p03438b2639)" style="fill: #bebebe"/>
    <path d="M 43.528273 431.454032 
C 45.119492 431.454032 46.645752 430.821834 47.770914 429.696673 
C 48.896075 428.571511 49.528273 427.045251 49.528273 425.454032 
C 49.528273 423.862813 48.896075 422.336553 47.770914 421.211391 
C 46.645752 420.08623 45.119492 419.454032 43.528273 419.454032 
C 41.937055 419.454032 40.410794 420.08623 39.285632 421.211391 
C 38.160471 422.336553 37.528273 423.862813 37.528273 425.454032 
C 37.528273 427.045251 38.160471 428.571511 39.285632 429.696673 
C 40.410794 430.821834 41.937055 431.454032 43.528273 431.454032 
z
" clip-path="url(#p03438b2639)" style="fill: #bebebe"/>
    <path d="M 26.068456 451.624731 
C 26.466261 451.624731 26.847826 451.466681 27.129116 451.185391 
C 27.410407 450.9041 27.568456 450.522535 27.568456 450.124731 
C 27.568456 449.726926 27.410407 449.345361 27.129116 449.06407 
C 26.847826 448.78278 26.466261 448.624731 26.068456 448.624731 
C 25.670652 448.624731 25.289086 448.78278 25.007796 449.06407 
C 24.726506 449.345361 24.568456 449.726926 24.568456 450.124731 
C 24.568456 450.522535 24.726506 450.9041 25.007796 451.185391 
C 25.289086 451.466681 25.670652 451.624731 26.068456 451.624731 
z
" clip-path="url(#p03438b2639)" style="fill: #bebebe"/>
    <path d="M 43.528273 476.295429 
C 43.926078 476.295429 44.307643 476.13738 44.588933 475.856089 
C 44.870224 475.574799 45.028273 475.193234 45.028273 474.795429 
C 45.028273 474.397624 44.870224 474.016059 44.588933 473.734769 
C 44.307643 473.453479 43.926078 473.295429 43.528273 473.295429 
C 43.130468 473.295429 42.748903 473.453479 42.467613 473.734769 
C 42.186323 474.016059 42.028273 474.397624 42.028273 474.795429 
C 42.028273 475.193234 42.186323 475.574799 42.467613 475.856089 
C 42.748903 476.13738 43.130468 476.295429 43.528273 476.295429 
z
" clip-path="url(#p03438b2639)" style="fill: #bebebe"/>
    <path d="M 85.68 486.514367 
C 86.077805 486.514367 86.45937 486.356318 86.74066 486.075027 
C 87.021951 485.793737 87.18 485.412172 87.18 485.014367 
C 87.18 484.616562 87.021951 484.234997 86.74066 483.953707 
C 86.45937 483.672416 86.077805 483.514367 85.68 483.514367 
C 85.282195 483.514367 84.90063 483.672416 84.61934 483.953707 
C 84.338049 484.234997 84.18 484.616562 84.18 485.014367 
C 84.18 485.412172 84.338049 485.793737 84.61934 486.075027 
C 84.90063 486.356318 85.282195 486.514367 85.68 486.514367 
z
" clip-path="url(#p03438b2639)" style="fill: #bebebe"/>
    <path d="M 127.831727 476.295429 
C 128.229532 476.295429 128.611097 476.13738 128.892387 475.856089 
C 129.173677 475.574799 129.331727 475.193234 129.331727 474.795429 
C 129.331727 474.397624 129.173677 474.016059 128.892387 473.734769 
C 128.611097 473.453479 128.229532 473.295429 127.831727 473.295429 
C 127.433922 473.295429 127.052357 473.453479 126.771067 473.734769 
C 126.489776 474.016059 126.331727 474.397624 126.331727 474.795429 
C 126.331727 475.193234 126.489776 475.574799 126.771067 475.856089 
C 127.052357 476.13738 127.433922 476.295429 127.831727 476.295429 
z
" clip-path="url(#p03438b2639)" style="fill: #bebebe"/>
   </g>
   <g id="matplotlib.axis_9"/>
   <g id="matplotlib.axis_10"/>
  </g>
 </g>
 <defs>
  <clipPath id="p06253ee129">
   <rect x="12.852" y="10.8" width="145.656" height="87.84"/>
  </clipPath>
  <clipPath id="pe769be5c5f">
   <rect x="12.852" y="109.44" width="145.656" height="87.84"/>
  </clipPath>
  <clipPath id="p8466850f94">
   <rect x="12.852" y="208.08" width="145.656" height="87.84"/>
  </clipPath>
  <clipPath id="p624f09e480">
   <rect x="12.852" y="306.72" width="145.656" height="87.84"/>
  </clipPath>
  <clipPath id="p03438b2639">
   <rect x="12.852" y="405.36" width="145.656" height="87.84"/>
  </clipPath>
 </defs>
</svg>
