<?xml version="1.0" encoding="utf-8" standalone="no"?>
<!DOCTYPE svg PUBLIC "-//W3C//DTD SVG 1.1//EN"
  "http://www.w3.org/Graphics/SVG/1.1/DTD/svg11.dtd">
<svg xmlns:xlink="http://www.w3.org/1999/xlink" width="171.36pt" height="514.08pt" viewBox="0 0 171.36 514.08" xmlns="http://www.w3.org/2000/svg" version="1.1">
 <metadata>
  <rdf:RDF xmlns:dc="http://purl.org/dc/elements/1.1/" xmlns:cc="http://creativecommons.org/ns#" xmlns:rdf="http://www.w3.org/1999/02/22-rdf-syntax-ns#">
   <cc:Work>
    <dc:type rdf:resource="http://purl.org/dc/dcmitype/StillImage"/>
    <dc:date>2025-06-10T14:38:29.731601</dc:date>
    <dc:format>image/svg+xml</dc:format>
    <dc:creator>
     <cc:Agent>
      <dc:title>Matplotlib v3.9.2, https://matplotlib.org/</dc:title>
     </cc:Agent>
    </dc:creator>
   </cc:Work>
  </rdf:RDF>
 </metadata>
 <defs>
  <style type="text/css">*{stroke-linejoin: round; stroke-linecap: butt}</style>
 </defs>
 <g id="figure_1">
  <g id="patch_1">
   <path d="M 0 514.08 
L 171.36 514.08 
L 171.36 0 
L 0 0 
z
" style="fill: #ffffff"/>
  </g>
  <g id="axes_1">
   <g id="patch_2">
    <path d="M 12.852 100.6128 
L 158.508 100.6128 
L 158.508 11.016 
L 12.852 11.016 
z
" style="fill: #ffffff"/>
   </g>
   <g id="EdgeCollection_1">
    <path d="M 146.590582 57.426025 
C 172.02174 70.29574 172.02174 43.05631 146.590582 55.926025 
C 172.02174 43.05631 172.02174 70.29574 146.590582 57.426025 
" clip-path="url(#pf1333594df)" style="fill: #020202"/>
    <path d="M 144.436454 55.44362 
L 131.252084 36.441533 
" clip-path="url(#pf1333594df)" style="fill: #020202"/>
    <path d="M 144.003597 55.907135 
L 90.831789 24.164157 
" clip-path="url(#pf1333594df)" style="fill: #020202"/>
    <path d="M 143.835403 56.315949 
L 49.352836 32.952216 
" clip-path="url(#pf1333594df)" style="fill: #020202"/>
    <path d="M 143.791544 56.676025 
L 27.568456 56.676025 
" clip-path="url(#pf1333594df)" style="fill: #020202"/>
    <path d="M 143.835403 57.036101 
L 44.984414 81.480062 
" clip-path="url(#pf1333594df)" style="fill: #020202"/>
    <path d="M 144.003597 57.444915 
L 86.967947 91.494564 
" clip-path="url(#pf1333594df)" style="fill: #020202"/>
    <path d="M 144.436454 57.90843 
L 128.686816 80.607733 
" clip-path="url(#pf1333594df)" style="fill: #020202"/>
    <path d="M 133.250281 28.935234 
C 154.213103 17.228252 131.782587 1.773205 128.309535 25.530968 
C 131.782587 1.773205 154.213103 17.228252 133.250281 28.935234 
" clip-path="url(#pf1333594df)" style="fill: #020202"/>
    <path d="M 122.007164 30.07161 
L 91.504562 22.528899 
" clip-path="url(#pf1333594df)" style="fill: #020202; stroke: #020202; stroke-width: 1.485"/>
    <path d="M 121.831727 31.511913 
L 49.528273 31.511913 
" clip-path="url(#pf1333594df)" style="fill: #020202; stroke: #020202; stroke-width: 1.485"/>
    <path d="M 122.007164 32.952216 
L 27.524597 56.315949 
" clip-path="url(#pf1333594df)" style="fill: #020202"/>
    <path d="M 122.679938 34.587473 
L 44.81622 81.071247 
" clip-path="url(#pf1333594df)" style="fill: #020202"/>
    <path d="M 124.411369 36.441533 
L 86.535089 91.031049 
" clip-path="url(#pf1333594df)" style="fill: #020202"/>
    <path d="M 127.831727 37.511913 
L 127.831727 80.340138 
" clip-path="url(#pf1333594df)" style="fill: #020202; stroke: #020202; stroke-width: 1.485"/>
    <path d="M 88.68 15.892444 
C 99.299715 -5.6416 72.060285 -5.6416 82.68 15.892444 
C 72.060285 -5.6416 99.299715 -5.6416 88.68 15.892444 
" clip-path="url(#pf1333594df)" style="fill: #020202"/>
    <path d="M 79.855438 22.528899 
L 49.352836 30.07161 
" clip-path="url(#pf1333594df)" style="fill: #020202; stroke: #020202; stroke-width: 1.485"/>
    <path d="M 80.528211 24.164157 
L 27.356403 55.907135 
" clip-path="url(#pf1333594df)" style="fill: #020202"/>
    <path d="M 82.259642 26.018216 
L 44.383363 80.607733 
" clip-path="url(#pf1333594df)" style="fill: #020202"/>
    <path d="M 85.68 27.088596 
L 85.68 90.763454 
" clip-path="url(#pf1333594df)" style="fill: #020202"/>
    <path d="M 89.100358 26.018216 
L 126.976637 80.607733 
" clip-path="url(#pf1333594df)" style="fill: #020202; stroke: #020202; stroke-width: 1.485"/>
    <path d="M 43.050465 25.530968 
C 39.577413 1.773205 17.146897 17.228252 38.109719 28.935234 
C 17.146897 17.228252 39.577413 1.773205 43.050465 25.530968 
" clip-path="url(#pf1333594df)" style="fill: #020202"/>
    <path d="M 40.107916 36.441533 
L 26.923546 55.44362 
" clip-path="url(#pf1333594df)" style="fill: #020202"/>
    <path d="M 43.528273 37.511913 
L 43.528273 80.340138 
" clip-path="url(#pf1333594df)" style="fill: #020202"/>
    <path d="M 46.948631 36.441533 
L 84.824911 91.031049 
" clip-path="url(#pf1333594df)" style="fill: #020202; stroke: #020202; stroke-width: 1.485"/>
    <path d="M 48.680062 34.587473 
L 126.54378 81.071247 
" clip-path="url(#pf1333594df)" style="fill: #020202"/>
    <path d="M 24.769418 55.926025 
C -0.66174 43.05631 -0.66174 70.29574 24.769418 57.426025 
C -0.66174 70.29574 -0.66174 43.05631 24.769418 55.926025 
" clip-path="url(#pf1333594df)" style="fill: #020202"/>
    <path d="M 26.923546 57.90843 
L 42.673184 80.607733 
" clip-path="url(#pf1333594df)" style="fill: #020202"/>
    <path d="M 27.356403 57.444915 
L 84.392053 91.494564 
" clip-path="url(#pf1333594df)" style="fill: #020202"/>
    <path d="M 27.524597 57.036101 
L 126.375586 81.480062 
" clip-path="url(#pf1333594df)" style="fill: #020202"/>
    <path d="M 42.173635 82.484307 
C 17.146897 96.123799 39.577413 111.578845 43.408821 83.335374 
C 39.577413 111.578845 17.146897 96.123799 42.173635 82.484307 
" clip-path="url(#pf1333594df)" style="fill: #020202"/>
    <path d="M 44.984414 82.200213 
L 84.223859 91.903379 
" clip-path="url(#pf1333594df)" style="fill: #020202"/>
    <path d="M 45.028273 81.840138 
L 126.331727 81.840138 
" clip-path="url(#pf1333594df)" style="fill: #020202"/>
    <path d="M 84.93 93.562492 
C 72.060285 118.99365 99.299715 118.99365 86.43 93.562492 
C 99.299715 118.99365 72.060285 118.99365 84.93 93.562492 
" clip-path="url(#pf1333594df)" style="fill: #020202"/>
    <path d="M 87.136141 91.903379 
L 126.375586 82.200213 
" clip-path="url(#pf1333594df)" style="fill: #020202"/>
    <path d="M 127.951179 83.335374 
C 131.782587 111.578845 154.213103 96.123799 129.186365 82.484307 
C 154.213103 96.123799 131.782587 111.578845 127.951179 83.335374 
" clip-path="url(#pf1333594df)" style="fill: #020202"/>
   </g>
   <g id="VertexCollection_1">
    <path d="M 145.291544 58.176025 
C 145.689348 58.176025 146.070914 58.017976 146.352204 57.736685 
C 146.633494 57.455395 146.791544 57.07383 146.791544 56.676025 
C 146.791544 56.27822 146.633494 55.896655 146.352204 55.615365 
C 146.070914 55.334075 145.689348 55.176025 145.291544 55.176025 
C 144.893739 55.176025 144.512174 55.334075 144.230884 55.615365 
C 143.949593 55.896655 143.791544 56.27822 143.791544 56.676025 
C 143.791544 57.07383 143.949593 57.455395 144.230884 57.736685 
C 144.512174 58.017976 144.893739 58.176025 145.291544 58.176025 
z
" clip-path="url(#pf1333594df)" style="fill: #bebebe"/>
    <path d="M 127.831727 37.511913 
C 129.422945 37.511913 130.949206 36.879715 132.074368 35.754553 
C 133.199529 34.629392 133.831727 33.103131 133.831727 31.511913 
C 133.831727 29.920694 133.199529 28.394433 132.074368 27.269272 
C 130.949206 26.14411 129.422945 25.511913 127.831727 25.511913 
C 126.240508 25.511913 124.714248 26.14411 123.589086 27.269272 
C 122.463925 28.394433 121.831727 29.920694 121.831727 31.511913 
C 121.831727 33.103131 122.463925 34.629392 123.589086 35.754553 
C 124.714248 36.879715 126.240508 37.511913 127.831727 37.511913 
z
" clip-path="url(#pf1333594df)" style="fill: #bebebe"/>
    <path d="M 85.68 27.088596 
C 87.271219 27.088596 88.797479 26.456398 89.922641 25.331237 
C 91.047802 24.206075 91.68 22.679815 91.68 21.088596 
C 91.68 19.497377 91.047802 17.971117 89.922641 16.845955 
C 88.797479 15.720794 87.271219 15.088596 85.68 15.088596 
C 84.088781 15.088596 82.562521 15.720794 81.437359 16.845955 
C 80.312198 17.971117 79.68 19.497377 79.68 21.088596 
C 79.68 22.679815 80.312198 24.206075 81.437359 25.331237 
C 82.562521 26.456398 84.088781 27.088596 85.68 27.088596 
z
" clip-path="url(#pf1333594df)" style="fill: #bebebe"/>
    <path d="M 43.528273 37.511913 
C 45.119492 37.511913 46.645752 36.879715 47.770914 35.754553 
C 48.896075 34.629392 49.528273 33.103131 49.528273 31.511913 
C 49.528273 29.920694 48.896075 28.394433 47.770914 27.269272 
C 46.645752 26.14411 45.119492 25.511913 43.528273 25.511913 
C 41.937055 25.511913 40.410794 26.14411 39.285632 27.269272 
C 38.160471 28.394433 37.528273 29.920694 37.528273 31.511913 
C 37.528273 33.103131 38.160471 34.629392 39.285632 35.754553 
C 40.410794 36.879715 41.937055 37.511913 43.528273 37.511913 
z
" clip-path="url(#pf1333594df)" style="fill: #bebebe"/>
    <path d="M 26.068456 58.176025 
C 26.466261 58.176025 26.847826 58.017976 27.129116 57.736685 
C 27.410407 57.455395 27.568456 57.07383 27.568456 56.676025 
C 27.568456 56.27822 27.410407 55.896655 27.129116 55.615365 
C 26.847826 55.334075 26.466261 55.176025 26.068456 55.176025 
C 25.670652 55.176025 25.289086 55.334075 25.007796 55.615365 
C 24.726506 55.896655 24.568456 56.27822 24.568456 56.676025 
C 24.568456 57.07383 24.726506 57.455395 25.007796 57.736685 
C 25.289086 58.017976 25.670652 58.176025 26.068456 58.176025 
z
" clip-path="url(#pf1333594df)" style="fill: #bebebe"/>
    <path d="M 43.528273 83.340138 
C 43.926078 83.340138 44.307643 83.182088 44.588933 82.900798 
C 44.870224 82.619507 45.028273 82.237942 45.028273 81.840138 
C 45.028273 81.442333 44.870224 81.060768 44.588933 80.779477 
C 44.307643 80.498187 43.926078 80.340138 43.528273 80.340138 
C 43.130468 80.340138 42.748903 80.498187 42.467613 80.779477 
C 42.186323 81.060768 42.028273 81.442333 42.028273 81.840138 
C 42.028273 82.237942 42.186323 82.619507 42.467613 82.900798 
C 42.748903 83.182088 43.130468 83.340138 43.528273 83.340138 
z
" clip-path="url(#pf1333594df)" style="fill: #bebebe"/>
    <path d="M 85.68 93.763454 
C 86.077805 93.763454 86.45937 93.605405 86.74066 93.324114 
C 87.021951 93.042824 87.18 92.661259 87.18 92.263454 
C 87.18 91.86565 87.021951 91.484085 86.74066 91.202794 
C 86.45937 90.921504 86.077805 90.763454 85.68 90.763454 
C 85.282195 90.763454 84.90063 90.921504 84.61934 91.202794 
C 84.338049 91.484085 84.18 91.86565 84.18 92.263454 
C 84.18 92.661259 84.338049 93.042824 84.61934 93.324114 
C 84.90063 93.605405 85.282195 93.763454 85.68 93.763454 
z
" clip-path="url(#pf1333594df)" style="fill: #bebebe"/>
    <path d="M 127.831727 83.340138 
C 128.229532 83.340138 128.611097 83.182088 128.892387 82.900798 
C 129.173677 82.619507 129.331727 82.237942 129.331727 81.840138 
C 129.331727 81.442333 129.173677 81.060768 128.892387 80.779477 
C 128.611097 80.498187 128.229532 80.340138 127.831727 80.340138 
C 127.433922 80.340138 127.052357 80.498187 126.771067 80.779477 
C 126.489776 81.060768 126.331727 81.442333 126.331727 81.840138 
C 126.331727 82.237942 126.489776 82.619507 126.771067 82.900798 
C 127.052357 83.182088 127.433922 83.340138 127.831727 83.340138 
z
" clip-path="url(#pf1333594df)" style="fill: #bebebe"/>
   </g>
   <g id="matplotlib.axis_1"/>
   <g id="matplotlib.axis_2"/>
  </g>
  <g id="axes_2">
   <g id="patch_3">
    <path d="M 12.852 201.2256 
L 158.508 201.2256 
L 158.508 111.6288 
L 12.852 111.6288 
z
" style="fill: #ffffff"/>
   </g>
   <g id="EdgeCollection_2">
    <path d="M 146.590582 157.1772 
C 172.02174 170.046915 172.02174 142.807485 146.590582 155.6772 
C 172.02174 142.807485 172.02174 170.046915 146.590582 157.1772 
" clip-path="url(#p89eb8423bb)" style="fill: #020202"/>
    <path d="M 144.423173 155.204117 
L 131.30521 136.72773 
" clip-path="url(#p89eb8423bb)" style="fill: #020202"/>
    <path d="M 143.99592 155.671318 
L 90.862497 124.672668 
" clip-path="url(#p89eb8423bb)" style="fill: #020202"/>
    <path d="M 143.833513 156.074857 
L 49.360397 133.244771 
" clip-path="url(#p89eb8423bb)" style="fill: #020202"/>
    <path d="M 143.791544 156.4272 
L 27.568456 156.4272 
" clip-path="url(#p89eb8423bb)" style="fill: #020202"/>
    <path d="M 143.833513 156.779543 
L 44.986304 180.666659 
" clip-path="url(#p89eb8423bb)" style="fill: #020202"/>
    <path d="M 143.99592 157.183082 
L 90.862497 188.181732 
" clip-path="url(#p89eb8423bb)" style="fill: #020202"/>
    <path d="M 144.423173 157.650283 
L 128.700098 179.795919 
" clip-path="url(#p89eb8423bb)" style="fill: #020202"/>
    <path d="M 133.229331 129.215118 
C 154.097089 117.339511 131.5427 102.065805 128.2613 125.850795 
C 131.5427 102.065805 154.097089 117.339511 133.229331 129.215118 
" clip-path="url(#p89eb8423bb)" style="fill: #020202"/>
    <path d="M 121.999603 130.426025 
L 91.512124 123.058513 
" clip-path="url(#p89eb8423bb)" style="fill: #020202; stroke: #020202; stroke-width: 1.485"/>
    <path d="M 121.831727 131.835398 
L 49.528273 131.835398 
" clip-path="url(#p89eb8423bb)" style="fill: #020202; stroke: #020202; stroke-width: 1.485"/>
    <path d="M 121.999603 133.244771 
L 27.526487 156.074857 
" clip-path="url(#p89eb8423bb)" style="fill: #020202"/>
    <path d="M 122.64923 134.858926 
L 44.823897 180.26312 
" clip-path="url(#p89eb8423bb)" style="fill: #020202"/>
    <path d="M 124.358243 136.72773 
L 89.153484 186.312928 
" clip-path="url(#p89eb8423bb)" style="fill: #020202; stroke: #020202; stroke-width: 1.485"/>
    <path d="M 127.831727 137.835398 
L 127.831727 179.519002 
" clip-path="url(#p89eb8423bb)" style="fill: #020202"/>
    <path d="M 88.68 116.452987 
C 99.299715 94.918944 72.060285 94.918944 82.68 116.452987 
C 72.060285 94.918944 99.299715 94.918944 88.68 116.452987 
" clip-path="url(#p89eb8423bb)" style="fill: #020202"/>
    <path d="M 79.847876 123.058513 
L 49.360397 130.426025 
" clip-path="url(#p89eb8423bb)" style="fill: #020202; stroke: #020202; stroke-width: 1.485"/>
    <path d="M 80.497503 124.672668 
L 27.36408 155.671318 
" clip-path="url(#p89eb8423bb)" style="fill: #020202"/>
    <path d="M 82.206516 126.541472 
L 44.396644 179.795919 
" clip-path="url(#p89eb8423bb)" style="fill: #020202"/>
    <path d="M 85.68 127.64914 
L 85.68 185.20526 
" clip-path="url(#p89eb8423bb)" style="fill: #020202; stroke: #020202; stroke-width: 1.485"/>
    <path d="M 89.153484 126.541472 
L 126.963356 179.795919 
" clip-path="url(#p89eb8423bb)" style="fill: #020202"/>
    <path d="M 43.0987 125.850795 
C 39.8173 102.065805 17.262911 117.339511 38.130669 129.215118 
C 17.262911 117.339511 39.8173 102.065805 43.0987 125.850795 
" clip-path="url(#p89eb8423bb)" style="fill: #020202"/>
    <path d="M 40.05479 136.72773 
L 26.936827 155.204117 
" clip-path="url(#p89eb8423bb)" style="fill: #020202"/>
    <path d="M 43.528273 137.835398 
L 43.528273 179.519002 
" clip-path="url(#p89eb8423bb)" style="fill: #020202"/>
    <path d="M 47.001757 136.72773 
L 82.206516 186.312928 
" clip-path="url(#p89eb8423bb)" style="fill: #020202; stroke: #020202; stroke-width: 1.485"/>
    <path d="M 48.71077 134.858926 
L 126.536103 180.26312 
" clip-path="url(#p89eb8423bb)" style="fill: #020202"/>
    <path d="M 24.769418 155.6772 
C -0.66174 142.807485 -0.66174 170.046915 24.769418 157.1772 
C -0.66174 170.046915 -0.66174 142.807485 24.769418 155.6772 
" clip-path="url(#p89eb8423bb)" style="fill: #020202"/>
    <path d="M 26.936827 157.650283 
L 42.659902 179.795919 
" clip-path="url(#p89eb8423bb)" style="fill: #020202"/>
    <path d="M 27.36408 157.183082 
L 80.497503 188.181732 
" clip-path="url(#p89eb8423bb)" style="fill: #020202"/>
    <path d="M 27.526487 156.779543 
L 126.373696 180.666659 
" clip-path="url(#p89eb8423bb)" style="fill: #020202"/>
    <path d="M 42.178872 181.674072 
C 17.262911 195.514889 39.8173 210.788595 43.42088 182.515153 
C 39.8173 210.788595 17.262911 195.514889 42.178872 181.674072 
" clip-path="url(#p89eb8423bb)" style="fill: #020202"/>
    <path d="M 44.986304 181.371345 
L 79.847876 189.795887 
" clip-path="url(#p89eb8423bb)" style="fill: #020202"/>
    <path d="M 45.028273 181.019002 
L 126.331727 181.019002 
" clip-path="url(#p89eb8423bb)" style="fill: #020202"/>
    <path d="M 82.68 196.401413 
C 72.060285 217.935456 99.299715 217.935456 88.68 196.401413 
C 99.299715 217.935456 72.060285 217.935456 82.68 196.401413 
" clip-path="url(#p89eb8423bb)" style="fill: #020202"/>
    <path d="M 91.512124 189.795887 
L 126.373696 181.371345 
" clip-path="url(#p89eb8423bb)" style="fill: #020202"/>
    <path d="M 127.93912 182.515153 
C 131.5427 210.788595 154.097089 195.514889 129.181128 181.674072 
C 154.097089 195.514889 131.5427 210.788595 127.93912 182.515153 
" clip-path="url(#p89eb8423bb)" style="fill: #020202"/>
   </g>
   <g id="VertexCollection_2">
    <path d="M 145.291544 157.9272 
C 145.689348 157.9272 146.070914 157.769151 146.352204 157.48786 
C 146.633494 157.20657 146.791544 156.825005 146.791544 156.4272 
C 146.791544 156.029395 146.633494 155.64783 146.352204 155.36654 
C 146.070914 155.085249 145.689348 154.9272 145.291544 154.9272 
C 144.893739 154.9272 144.512174 155.085249 144.230884 155.36654 
C 143.949593 155.64783 143.791544 156.029395 143.791544 156.4272 
C 143.791544 156.825005 143.949593 157.20657 144.230884 157.48786 
C 144.512174 157.769151 144.893739 157.9272 145.291544 157.9272 
z
" clip-path="url(#p89eb8423bb)" style="fill: #bebebe"/>
    <path d="M 127.831727 137.835398 
C 129.422945 137.835398 130.949206 137.2032 132.074368 136.078039 
C 133.199529 134.952877 133.831727 133.426616 133.831727 131.835398 
C 133.831727 130.244179 133.199529 128.717919 132.074368 127.592757 
C 130.949206 126.467596 129.422945 125.835398 127.831727 125.835398 
C 126.240508 125.835398 124.714248 126.467596 123.589086 127.592757 
C 122.463925 128.717919 121.831727 130.244179 121.831727 131.835398 
C 121.831727 133.426616 122.463925 134.952877 123.589086 136.078039 
C 124.714248 137.2032 126.240508 137.835398 127.831727 137.835398 
z
" clip-path="url(#p89eb8423bb)" style="fill: #bebebe"/>
    <path d="M 85.68 127.64914 
C 87.271219 127.64914 88.797479 127.016942 89.922641 125.891781 
C 91.047802 124.766619 91.68 123.240358 91.68 121.64914 
C 91.68 120.057921 91.047802 118.531661 89.922641 117.406499 
C 88.797479 116.281338 87.271219 115.64914 85.68 115.64914 
C 84.088781 115.64914 82.562521 116.281338 81.437359 117.406499 
C 80.312198 118.531661 79.68 120.057921 79.68 121.64914 
C 79.68 123.240358 80.312198 124.766619 81.437359 125.891781 
C 82.562521 127.016942 84.088781 127.64914 85.68 127.64914 
z
" clip-path="url(#p89eb8423bb)" style="fill: #bebebe"/>
    <path d="M 43.528273 137.835398 
C 45.119492 137.835398 46.645752 137.2032 47.770914 136.078039 
C 48.896075 134.952877 49.528273 133.426616 49.528273 131.835398 
C 49.528273 130.244179 48.896075 128.717919 47.770914 127.592757 
C 46.645752 126.467596 45.119492 125.835398 43.528273 125.835398 
C 41.937055 125.835398 40.410794 126.467596 39.285632 127.592757 
C 38.160471 128.717919 37.528273 130.244179 37.528273 131.835398 
C 37.528273 133.426616 38.160471 134.952877 39.285632 136.078039 
C 40.410794 137.2032 41.937055 137.835398 43.528273 137.835398 
z
" clip-path="url(#p89eb8423bb)" style="fill: #bebebe"/>
    <path d="M 26.068456 157.9272 
C 26.466261 157.9272 26.847826 157.769151 27.129116 157.48786 
C 27.410407 157.20657 27.568456 156.825005 27.568456 156.4272 
C 27.568456 156.029395 27.410407 155.64783 27.129116 155.36654 
C 26.847826 155.085249 26.466261 154.9272 26.068456 154.9272 
C 25.670652 154.9272 25.289086 155.085249 25.007796 155.36654 
C 24.726506 155.64783 24.568456 156.029395 24.568456 156.4272 
C 24.568456 156.825005 24.726506 157.20657 25.007796 157.48786 
C 25.289086 157.769151 25.670652 157.9272 26.068456 157.9272 
z
" clip-path="url(#p89eb8423bb)" style="fill: #bebebe"/>
    <path d="M 43.528273 182.519002 
C 43.926078 182.519002 44.307643 182.360953 44.588933 182.079662 
C 44.870224 181.798372 45.028273 181.416807 45.028273 181.019002 
C 45.028273 180.621198 44.870224 180.239632 44.588933 179.958342 
C 44.307643 179.677052 43.926078 179.519002 43.528273 179.519002 
C 43.130468 179.519002 42.748903 179.677052 42.467613 179.958342 
C 42.186323 180.239632 42.028273 180.621198 42.028273 181.019002 
C 42.028273 181.416807 42.186323 181.798372 42.467613 182.079662 
C 42.748903 182.360953 43.130468 182.519002 43.528273 182.519002 
z
" clip-path="url(#p89eb8423bb)" style="fill: #bebebe"/>
    <path d="M 85.68 197.20526 
C 87.271219 197.20526 88.797479 196.573062 89.922641 195.447901 
C 91.047802 194.322739 91.68 192.796479 91.68 191.20526 
C 91.68 189.614042 91.047802 188.087781 89.922641 186.962619 
C 88.797479 185.837458 87.271219 185.20526 85.68 185.20526 
C 84.088781 185.20526 82.562521 185.837458 81.437359 186.962619 
C 80.312198 188.087781 79.68 189.614042 79.68 191.20526 
C 79.68 192.796479 80.312198 194.322739 81.437359 195.447901 
C 82.562521 196.573062 84.088781 197.20526 85.68 197.20526 
z
" clip-path="url(#p89eb8423bb)" style="fill: #bebebe"/>
    <path d="M 127.831727 182.519002 
C 128.229532 182.519002 128.611097 182.360953 128.892387 182.079662 
C 129.173677 181.798372 129.331727 181.416807 129.331727 181.019002 
C 129.331727 180.621198 129.173677 180.239632 128.892387 179.958342 
C 128.611097 179.677052 128.229532 179.519002 127.831727 179.519002 
C 127.433922 179.519002 127.052357 179.677052 126.771067 179.958342 
C 126.489776 180.239632 126.331727 180.621198 126.331727 181.019002 
C 126.331727 181.416807 126.489776 181.798372 126.771067 182.079662 
C 127.052357 182.360953 127.433922 182.519002 127.831727 182.519002 
z
" clip-path="url(#p89eb8423bb)" style="fill: #bebebe"/>
   </g>
   <g id="matplotlib.axis_3"/>
   <g id="matplotlib.axis_4"/>
  </g>
  <g id="axes_3">
   <g id="patch_4">
    <path d="M 12.852 301.8384 
L 158.508 301.8384 
L 158.508 212.2416 
L 12.852 212.2416 
z
" style="fill: #ffffff"/>
   </g>
   <g id="EdgeCollection_3">
    <path d="M 146.590582 257.79 
C 172.02174 270.659715 172.02174 243.420285 146.590582 256.29 
C 172.02174 243.420285 172.02174 270.659715 146.590582 257.79 
" clip-path="url(#p33ff86c6d7)" style="fill: #020202"/>
    <path d="M 144.423173 255.816917 
L 128.700098 233.671281 
" clip-path="url(#p33ff86c6d7)" style="fill: #020202"/>
    <path d="M 143.99592 256.284118 
L 90.862497 225.285468 
" clip-path="url(#p33ff86c6d7)" style="fill: #020202"/>
    <path d="M 143.833513 256.687657 
L 49.360397 233.857571 
" clip-path="url(#p33ff86c6d7)" style="fill: #020202"/>
    <path d="M 143.791544 257.04 
L 27.568456 257.04 
" clip-path="url(#p33ff86c6d7)" style="fill: #020202"/>
    <path d="M 143.833513 257.392343 
L 44.986304 281.279459 
" clip-path="url(#p33ff86c6d7)" style="fill: #020202"/>
    <path d="M 143.99592 257.795882 
L 90.862497 288.794532 
" clip-path="url(#p33ff86c6d7)" style="fill: #020202"/>
    <path d="M 144.423173 258.263083 
L 128.700098 280.408719 
" clip-path="url(#p33ff86c6d7)" style="fill: #020202"/>
    <path d="M 129.181128 231.793128 
C 154.097089 217.952311 131.5427 202.678605 127.93912 230.952047 
C 131.5427 202.678605 154.097089 217.952311 129.181128 231.793128 
" clip-path="url(#p33ff86c6d7)" style="fill: #020202"/>
    <path d="M 126.373696 232.095855 
L 91.512124 223.671313 
" clip-path="url(#p33ff86c6d7)" style="fill: #020202; stroke: #020202; stroke-width: 1.485"/>
    <path d="M 126.331727 232.448198 
L 49.528273 232.448198 
" clip-path="url(#p33ff86c6d7)" style="fill: #020202; stroke: #020202; stroke-width: 1.485"/>
    <path d="M 126.373696 232.800541 
L 27.526487 256.687657 
" clip-path="url(#p33ff86c6d7)" style="fill: #020202"/>
    <path d="M 126.536103 233.20408 
L 44.823897 280.87592 
" clip-path="url(#p33ff86c6d7)" style="fill: #020202"/>
    <path d="M 126.963356 233.671281 
L 89.153484 286.925728 
" clip-path="url(#p33ff86c6d7)" style="fill: #020202"/>
    <path d="M 127.831727 233.948198 
L 127.831727 280.131802 
" clip-path="url(#p33ff86c6d7)" style="fill: #020202"/>
    <path d="M 88.68 217.065787 
C 99.299715 195.531744 72.060285 195.531744 82.68 217.065787 
C 72.060285 195.531744 99.299715 195.531744 88.68 217.065787 
" clip-path="url(#p33ff86c6d7)" style="fill: #020202"/>
    <path d="M 79.847876 223.671313 
L 49.360397 231.038825 
" clip-path="url(#p33ff86c6d7)" style="fill: #020202; stroke: #020202; stroke-width: 1.485"/>
    <path d="M 80.497503 225.285468 
L 27.36408 256.284118 
" clip-path="url(#p33ff86c6d7)" style="fill: #020202"/>
    <path d="M 82.206516 227.154272 
L 44.396644 280.408719 
" clip-path="url(#p33ff86c6d7)" style="fill: #020202"/>
    <path d="M 85.68 228.26194 
L 85.68 285.81806 
" clip-path="url(#p33ff86c6d7)" style="fill: #020202; stroke: #020202; stroke-width: 1.485"/>
    <path d="M 89.153484 227.154272 
L 126.963356 280.408719 
" clip-path="url(#p33ff86c6d7)" style="fill: #020202"/>
    <path d="M 43.0987 226.463595 
C 39.8173 202.678605 17.262911 217.952311 38.130669 229.827918 
C 17.262911 217.952311 39.8173 202.678605 43.0987 226.463595 
" clip-path="url(#p33ff86c6d7)" style="fill: #020202"/>
    <path d="M 40.05479 237.34053 
L 26.936827 255.816917 
" clip-path="url(#p33ff86c6d7)" style="fill: #020202"/>
    <path d="M 43.528273 238.448198 
L 43.528273 280.131802 
" clip-path="url(#p33ff86c6d7)" style="fill: #020202"/>
    <path d="M 47.001757 237.34053 
L 82.206516 286.925728 
" clip-path="url(#p33ff86c6d7)" style="fill: #020202; stroke: #020202; stroke-width: 1.485"/>
    <path d="M 48.71077 235.471726 
L 126.536103 280.87592 
" clip-path="url(#p33ff86c6d7)" style="fill: #020202"/>
    <path d="M 24.769418 256.29 
C -0.66174 243.420285 -0.66174 270.659715 24.769418 257.79 
C -0.66174 270.659715 -0.66174 243.420285 24.769418 256.29 
" clip-path="url(#p33ff86c6d7)" style="fill: #020202"/>
    <path d="M 26.936827 258.263083 
L 42.659902 280.408719 
" clip-path="url(#p33ff86c6d7)" style="fill: #020202"/>
    <path d="M 27.36408 257.795882 
L 80.497503 288.794532 
" clip-path="url(#p33ff86c6d7)" style="fill: #020202"/>
    <path d="M 27.526487 257.392343 
L 126.373696 281.279459 
" clip-path="url(#p33ff86c6d7)" style="fill: #020202"/>
    <path d="M 42.178872 282.286872 
C 17.262911 296.127689 39.8173 311.401395 43.42088 283.127953 
C 39.8173 311.401395 17.262911 296.127689 42.178872 282.286872 
" clip-path="url(#p33ff86c6d7)" style="fill: #020202"/>
    <path d="M 44.986304 281.984145 
L 79.847876 290.408687 
" clip-path="url(#p33ff86c6d7)" style="fill: #020202; stroke: #020202; stroke-width: 1.485"/>
    <path d="M 45.028273 281.631802 
L 126.331727 281.631802 
" clip-path="url(#p33ff86c6d7)" style="fill: #020202"/>
    <path d="M 82.68 297.014213 
C 72.060285 318.548256 99.299715 318.548256 88.68 297.014213 
C 99.299715 318.548256 72.060285 318.548256 82.68 297.014213 
" clip-path="url(#p33ff86c6d7)" style="fill: #020202"/>
    <path d="M 91.512124 290.408687 
L 126.373696 281.984145 
" clip-path="url(#p33ff86c6d7)" style="fill: #020202"/>
    <path d="M 127.93912 283.127953 
C 131.5427 311.401395 154.097089 296.127689 129.181128 282.286872 
C 154.097089 296.127689 131.5427 311.401395 127.93912 283.127953 
" clip-path="url(#p33ff86c6d7)" style="fill: #020202"/>
   </g>
   <g id="VertexCollection_3">
    <path d="M 145.291544 258.54 
C 145.689348 258.54 146.070914 258.381951 146.352204 258.10066 
C 146.633494 257.81937 146.791544 257.437805 146.791544 257.04 
C 146.791544 256.642195 146.633494 256.26063 146.352204 255.97934 
C 146.070914 255.698049 145.689348 255.54 145.291544 255.54 
C 144.893739 255.54 144.512174 255.698049 144.230884 255.97934 
C 143.949593 256.26063 143.791544 256.642195 143.791544 257.04 
C 143.791544 257.437805 143.949593 257.81937 144.230884 258.10066 
C 144.512174 258.381951 144.893739 258.54 145.291544 258.54 
z
" clip-path="url(#p33ff86c6d7)" style="fill: #bebebe"/>
    <path d="M 127.831727 233.948198 
C 128.229532 233.948198 128.611097 233.790148 128.892387 233.508858 
C 129.173677 233.227568 129.331727 232.846002 129.331727 232.448198 
C 129.331727 232.050393 129.173677 231.668828 128.892387 231.387538 
C 128.611097 231.106247 128.229532 230.948198 127.831727 230.948198 
C 127.433922 230.948198 127.052357 231.106247 126.771067 231.387538 
C 126.489776 231.668828 126.331727 232.050393 126.331727 232.448198 
C 126.331727 232.846002 126.489776 233.227568 126.771067 233.508858 
C 127.052357 233.790148 127.433922 233.948198 127.831727 233.948198 
z
" clip-path="url(#p33ff86c6d7)" style="fill: #bebebe"/>
    <path d="M 85.68 228.26194 
C 87.271219 228.26194 88.797479 227.629742 89.922641 226.504581 
C 91.047802 225.379419 91.68 223.853158 91.68 222.26194 
C 91.68 220.670721 91.047802 219.144461 89.922641 218.019299 
C 88.797479 216.894138 87.271219 216.26194 85.68 216.26194 
C 84.088781 216.26194 82.562521 216.894138 81.437359 218.019299 
C 80.312198 219.144461 79.68 220.670721 79.68 222.26194 
C 79.68 223.853158 80.312198 225.379419 81.437359 226.504581 
C 82.562521 227.629742 84.088781 228.26194 85.68 228.26194 
z
" clip-path="url(#p33ff86c6d7)" style="fill: #bebebe"/>
    <path d="M 43.528273 238.448198 
C 45.119492 238.448198 46.645752 237.816 47.770914 236.690839 
C 48.896075 235.565677 49.528273 234.039416 49.528273 232.448198 
C 49.528273 230.856979 48.896075 229.330719 47.770914 228.205557 
C 46.645752 227.080396 45.119492 226.448198 43.528273 226.448198 
C 41.937055 226.448198 40.410794 227.080396 39.285632 228.205557 
C 38.160471 229.330719 37.528273 230.856979 37.528273 232.448198 
C 37.528273 234.039416 38.160471 235.565677 39.285632 236.690839 
C 40.410794 237.816 41.937055 238.448198 43.528273 238.448198 
z
" clip-path="url(#p33ff86c6d7)" style="fill: #bebebe"/>
    <path d="M 26.068456 258.54 
C 26.466261 258.54 26.847826 258.381951 27.129116 258.10066 
C 27.410407 257.81937 27.568456 257.437805 27.568456 257.04 
C 27.568456 256.642195 27.410407 256.26063 27.129116 255.97934 
C 26.847826 255.698049 26.466261 255.54 26.068456 255.54 
C 25.670652 255.54 25.289086 255.698049 25.007796 255.97934 
C 24.726506 256.26063 24.568456 256.642195 24.568456 257.04 
C 24.568456 257.437805 24.726506 257.81937 25.007796 258.10066 
C 25.289086 258.381951 25.670652 258.54 26.068456 258.54 
z
" clip-path="url(#p33ff86c6d7)" style="fill: #bebebe"/>
    <path d="M 43.528273 283.131802 
C 43.926078 283.131802 44.307643 282.973753 44.588933 282.692462 
C 44.870224 282.411172 45.028273 282.029607 45.028273 281.631802 
C 45.028273 281.233998 44.870224 280.852432 44.588933 280.571142 
C 44.307643 280.289852 43.926078 280.131802 43.528273 280.131802 
C 43.130468 280.131802 42.748903 280.289852 42.467613 280.571142 
C 42.186323 280.852432 42.028273 281.233998 42.028273 281.631802 
C 42.028273 282.029607 42.186323 282.411172 42.467613 282.692462 
C 42.748903 282.973753 43.130468 283.131802 43.528273 283.131802 
z
" clip-path="url(#p33ff86c6d7)" style="fill: #bebebe"/>
    <path d="M 85.68 297.81806 
C 87.271219 297.81806 88.797479 297.185862 89.922641 296.060701 
C 91.047802 294.935539 91.68 293.409279 91.68 291.81806 
C 91.68 290.226842 91.047802 288.700581 89.922641 287.575419 
C 88.797479 286.450258 87.271219 285.81806 85.68 285.81806 
C 84.088781 285.81806 82.562521 286.450258 81.437359 287.575419 
C 80.312198 288.700581 79.68 290.226842 79.68 291.81806 
C 79.68 293.409279 80.312198 294.935539 81.437359 296.060701 
C 82.562521 297.185862 84.088781 297.81806 85.68 297.81806 
z
" clip-path="url(#p33ff86c6d7)" style="fill: #bebebe"/>
    <path d="M 127.831727 283.131802 
C 128.229532 283.131802 128.611097 282.973753 128.892387 282.692462 
C 129.173677 282.411172 129.331727 282.029607 129.331727 281.631802 
C 129.331727 281.233998 129.173677 280.852432 128.892387 280.571142 
C 128.611097 280.289852 128.229532 280.131802 127.831727 280.131802 
C 127.433922 280.131802 127.052357 280.289852 126.771067 280.571142 
C 126.489776 280.852432 126.331727 281.233998 126.331727 281.631802 
C 126.331727 282.029607 126.489776 282.411172 126.771067 282.692462 
C 127.052357 282.973753 127.433922 283.131802 127.831727 283.131802 
z
" clip-path="url(#p33ff86c6d7)" style="fill: #bebebe"/>
   </g>
   <g id="matplotlib.axis_5"/>
   <g id="matplotlib.axis_6"/>
  </g>
  <g id="axes_4">
   <g id="patch_5">
    <path d="M 12.852 402.4512 
L 158.508 402.4512 
L 158.508 312.8544 
L 12.852 312.8544 
z
" style="fill: #ffffff"/>
   </g>
   <g id="EdgeCollection_4">
    <path d="M 146.590582 358.4028 
C 172.02174 371.272515 172.02174 344.033085 146.590582 356.9028 
C 172.02174 344.033085 172.02174 371.272515 146.590582 358.4028 
" clip-path="url(#p71ca17bbb0)" style="fill: #020202"/>
    <path d="M 144.423173 356.429717 
L 128.700098 334.284081 
" clip-path="url(#p71ca17bbb0)" style="fill: #020202"/>
    <path d="M 143.99592 356.896918 
L 90.862497 325.898268 
" clip-path="url(#p71ca17bbb0)" style="fill: #020202"/>
    <path d="M 143.833513 357.300457 
L 49.360397 334.470371 
" clip-path="url(#p71ca17bbb0)" style="fill: #020202"/>
    <path d="M 143.791544 357.6528 
L 27.568456 357.6528 
" clip-path="url(#p71ca17bbb0)" style="fill: #020202"/>
    <path d="M 143.833513 358.005143 
L 44.986304 381.892259 
" clip-path="url(#p71ca17bbb0)" style="fill: #020202"/>
    <path d="M 143.99592 358.408682 
L 90.862497 389.407332 
" clip-path="url(#p71ca17bbb0)" style="fill: #020202"/>
    <path d="M 144.423173 358.875883 
L 128.700098 381.021519 
" clip-path="url(#p71ca17bbb0)" style="fill: #020202"/>
    <path d="M 129.181128 332.405928 
C 154.097089 318.565111 131.5427 303.291405 127.93912 331.564847 
C 131.5427 303.291405 154.097089 318.565111 129.181128 332.405928 
" clip-path="url(#p71ca17bbb0)" style="fill: #020202"/>
    <path d="M 126.373696 332.708655 
L 91.512124 324.284113 
" clip-path="url(#p71ca17bbb0)" style="fill: #020202; stroke: #020202; stroke-width: 1.485"/>
    <path d="M 126.331727 333.060998 
L 49.528273 333.060998 
" clip-path="url(#p71ca17bbb0)" style="fill: #020202; stroke: #020202; stroke-width: 1.485"/>
    <path d="M 126.373696 333.413341 
L 27.526487 357.300457 
" clip-path="url(#p71ca17bbb0)" style="fill: #020202"/>
    <path d="M 126.536103 333.81688 
L 44.823897 381.48872 
" clip-path="url(#p71ca17bbb0)" style="fill: #020202"/>
    <path d="M 126.963356 334.284081 
L 89.153484 387.538528 
" clip-path="url(#p71ca17bbb0)" style="fill: #020202"/>
    <path d="M 127.831727 334.560998 
L 127.831727 380.744602 
" clip-path="url(#p71ca17bbb0)" style="fill: #020202"/>
    <path d="M 88.68 317.678587 
C 99.299715 296.144544 72.060285 296.144544 82.68 317.678587 
C 72.060285 296.144544 99.299715 296.144544 88.68 317.678587 
" clip-path="url(#p71ca17bbb0)" style="fill: #020202"/>
    <path d="M 79.847876 324.284113 
L 49.360397 331.651625 
" clip-path="url(#p71ca17bbb0)" style="fill: #020202; stroke: #020202; stroke-width: 1.485"/>
    <path d="M 80.497503 325.898268 
L 27.36408 356.896918 
" clip-path="url(#p71ca17bbb0)" style="fill: #020202"/>
    <path d="M 82.206516 327.767072 
L 44.396644 381.021519 
" clip-path="url(#p71ca17bbb0)" style="fill: #020202"/>
    <path d="M 85.68 328.87474 
L 85.68 386.43086 
" clip-path="url(#p71ca17bbb0)" style="fill: #020202; stroke: #020202; stroke-width: 1.485"/>
    <path d="M 89.153484 327.767072 
L 126.963356 381.021519 
" clip-path="url(#p71ca17bbb0)" style="fill: #020202"/>
    <path d="M 43.0987 327.076395 
C 39.8173 303.291405 17.262911 318.565111 38.130669 330.440718 
C 17.262911 318.565111 39.8173 303.291405 43.0987 327.076395 
" clip-path="url(#p71ca17bbb0)" style="fill: #020202"/>
    <path d="M 40.05479 337.95333 
L 26.936827 356.429717 
" clip-path="url(#p71ca17bbb0)" style="fill: #020202"/>
    <path d="M 43.528273 339.060998 
L 43.528273 380.744602 
" clip-path="url(#p71ca17bbb0)" style="fill: #020202"/>
    <path d="M 47.001757 337.95333 
L 82.206516 387.538528 
" clip-path="url(#p71ca17bbb0)" style="fill: #020202; stroke: #020202; stroke-width: 1.485"/>
    <path d="M 48.71077 336.084526 
L 126.536103 381.48872 
" clip-path="url(#p71ca17bbb0)" style="fill: #020202"/>
    <path d="M 24.769418 356.9028 
C -0.66174 344.033085 -0.66174 371.272515 24.769418 358.4028 
C -0.66174 371.272515 -0.66174 344.033085 24.769418 356.9028 
" clip-path="url(#p71ca17bbb0)" style="fill: #020202"/>
    <path d="M 26.936827 358.875883 
L 42.659902 381.021519 
" clip-path="url(#p71ca17bbb0)" style="fill: #020202"/>
    <path d="M 27.36408 358.408682 
L 80.497503 389.407332 
" clip-path="url(#p71ca17bbb0)" style="fill: #020202"/>
    <path d="M 27.526487 358.005143 
L 126.373696 381.892259 
" clip-path="url(#p71ca17bbb0)" style="fill: #020202"/>
    <path d="M 42.178872 382.899672 
C 17.262911 396.740489 39.8173 412.014195 43.42088 383.740753 
C 39.8173 412.014195 17.262911 396.740489 42.178872 382.899672 
" clip-path="url(#p71ca17bbb0)" style="fill: #020202"/>
    <path d="M 44.986304 382.596945 
L 79.847876 391.021487 
" clip-path="url(#p71ca17bbb0)" style="fill: #020202; stroke: #020202; stroke-width: 1.485"/>
    <path d="M 45.028273 382.244602 
L 126.331727 382.244602 
" clip-path="url(#p71ca17bbb0)" style="fill: #020202"/>
    <path d="M 82.68 397.627013 
C 72.060285 419.161056 99.299715 419.161056 88.68 397.627013 
C 99.299715 419.161056 72.060285 419.161056 82.68 397.627013 
" clip-path="url(#p71ca17bbb0)" style="fill: #020202"/>
    <path d="M 91.512124 391.021487 
L 126.373696 382.596945 
" clip-path="url(#p71ca17bbb0)" style="fill: #020202"/>
    <path d="M 127.93912 383.740753 
C 131.5427 412.014195 154.097089 396.740489 129.181128 382.899672 
C 154.097089 396.740489 131.5427 412.014195 127.93912 383.740753 
" clip-path="url(#p71ca17bbb0)" style="fill: #020202"/>
   </g>
   <g id="VertexCollection_4">
    <path d="M 145.291544 359.1528 
C 145.689348 359.1528 146.070914 358.994751 146.352204 358.71346 
C 146.633494 358.43217 146.791544 358.050605 146.791544 357.6528 
C 146.791544 357.254995 146.633494 356.87343 146.352204 356.59214 
C 146.070914 356.310849 145.689348 356.1528 145.291544 356.1528 
C 144.893739 356.1528 144.512174 356.310849 144.230884 356.59214 
C 143.949593 356.87343 143.791544 357.254995 143.791544 357.6528 
C 143.791544 358.050605 143.949593 358.43217 144.230884 358.71346 
C 144.512174 358.994751 144.893739 359.1528 145.291544 359.1528 
z
" clip-path="url(#p71ca17bbb0)" style="fill: #bebebe"/>
    <path d="M 127.831727 334.560998 
C 128.229532 334.560998 128.611097 334.402948 128.892387 334.121658 
C 129.173677 333.840368 129.331727 333.458802 129.331727 333.060998 
C 129.331727 332.663193 129.173677 332.281628 128.892387 332.000338 
C 128.611097 331.719047 128.229532 331.560998 127.831727 331.560998 
C 127.433922 331.560998 127.052357 331.719047 126.771067 332.000338 
C 126.489776 332.281628 126.331727 332.663193 126.331727 333.060998 
C 126.331727 333.458802 126.489776 333.840368 126.771067 334.121658 
C 127.052357 334.402948 127.433922 334.560998 127.831727 334.560998 
z
" clip-path="url(#p71ca17bbb0)" style="fill: #bebebe"/>
    <path d="M 85.68 328.87474 
C 87.271219 328.87474 88.797479 328.242542 89.922641 327.117381 
C 91.047802 325.992219 91.68 324.465958 91.68 322.87474 
C 91.68 321.283521 91.047802 319.757261 89.922641 318.632099 
C 88.797479 317.506938 87.271219 316.87474 85.68 316.87474 
C 84.088781 316.87474 82.562521 317.506938 81.437359 318.632099 
C 80.312198 319.757261 79.68 321.283521 79.68 322.87474 
C 79.68 324.465958 80.312198 325.992219 81.437359 327.117381 
C 82.562521 328.242542 84.088781 328.87474 85.68 328.87474 
z
" clip-path="url(#p71ca17bbb0)" style="fill: #bebebe"/>
    <path d="M 43.528273 339.060998 
C 45.119492 339.060998 46.645752 338.4288 47.770914 337.303639 
C 48.896075 336.178477 49.528273 334.652216 49.528273 333.060998 
C 49.528273 331.469779 48.896075 329.943519 47.770914 328.818357 
C 46.645752 327.693196 45.119492 327.060998 43.528273 327.060998 
C 41.937055 327.060998 40.410794 327.693196 39.285632 328.818357 
C 38.160471 329.943519 37.528273 331.469779 37.528273 333.060998 
C 37.528273 334.652216 38.160471 336.178477 39.285632 337.303639 
C 40.410794 338.4288 41.937055 339.060998 43.528273 339.060998 
z
" clip-path="url(#p71ca17bbb0)" style="fill: #bebebe"/>
    <path d="M 26.068456 359.1528 
C 26.466261 359.1528 26.847826 358.994751 27.129116 358.71346 
C 27.410407 358.43217 27.568456 358.050605 27.568456 357.6528 
C 27.568456 357.254995 27.410407 356.87343 27.129116 356.59214 
C 26.847826 356.310849 26.466261 356.1528 26.068456 356.1528 
C 25.670652 356.1528 25.289086 356.310849 25.007796 356.59214 
C 24.726506 356.87343 24.568456 357.254995 24.568456 357.6528 
C 24.568456 358.050605 24.726506 358.43217 25.007796 358.71346 
C 25.289086 358.994751 25.670652 359.1528 26.068456 359.1528 
z
" clip-path="url(#p71ca17bbb0)" style="fill: #bebebe"/>
    <path d="M 43.528273 383.744602 
C 43.926078 383.744602 44.307643 383.586553 44.588933 383.305262 
C 44.870224 383.023972 45.028273 382.642407 45.028273 382.244602 
C 45.028273 381.846798 44.870224 381.465232 44.588933 381.183942 
C 44.307643 380.902652 43.926078 380.744602 43.528273 380.744602 
C 43.130468 380.744602 42.748903 380.902652 42.467613 381.183942 
C 42.186323 381.465232 42.028273 381.846798 42.028273 382.244602 
C 42.028273 382.642407 42.186323 383.023972 42.467613 383.305262 
C 42.748903 383.586553 43.130468 383.744602 43.528273 383.744602 
z
" clip-path="url(#p71ca17bbb0)" style="fill: #bebebe"/>
    <path d="M 85.68 398.43086 
C 87.271219 398.43086 88.797479 397.798662 89.922641 396.673501 
C 91.047802 395.548339 91.68 394.022079 91.68 392.43086 
C 91.68 390.839642 91.047802 389.313381 89.922641 388.188219 
C 88.797479 387.063058 87.271219 386.43086 85.68 386.43086 
C 84.088781 386.43086 82.562521 387.063058 81.437359 388.188219 
C 80.312198 389.313381 79.68 390.839642 79.68 392.43086 
C 79.68 394.022079 80.312198 395.548339 81.437359 396.673501 
C 82.562521 397.798662 84.088781 398.43086 85.68 398.43086 
z
" clip-path="url(#p71ca17bbb0)" style="fill: #bebebe"/>
    <path d="M 127.831727 383.744602 
C 128.229532 383.744602 128.611097 383.586553 128.892387 383.305262 
C 129.173677 383.023972 129.331727 382.642407 129.331727 382.244602 
C 129.331727 381.846798 129.173677 381.465232 128.892387 381.183942 
C 128.611097 380.902652 128.229532 380.744602 127.831727 380.744602 
C 127.433922 380.744602 127.052357 380.902652 126.771067 381.183942 
C 126.489776 381.465232 126.331727 381.846798 126.331727 382.244602 
C 126.331727 382.642407 126.489776 383.023972 126.771067 383.305262 
C 127.052357 383.586553 127.433922 383.744602 127.831727 383.744602 
z
" clip-path="url(#p71ca17bbb0)" style="fill: #bebebe"/>
   </g>
   <g id="matplotlib.axis_7"/>
   <g id="matplotlib.axis_8"/>
  </g>
  <g id="axes_5">
   <g id="patch_6">
    <path d="M 12.852 503.064 
L 158.508 503.064 
L 158.508 413.4672 
L 12.852 413.4672 
z
" style="fill: #ffffff"/>
   </g>
   <g id="EdgeCollection_5">
    <path d="M 146.590582 459.0156 
C 172.02174 471.885315 172.02174 444.645885 146.590582 457.5156 
C 172.02174 444.645885 172.02174 471.885315 146.590582 459.0156 
" clip-path="url(#pb2ab7b7212)" style="fill: #020202"/>
    <path d="M 144.423173 457.042517 
L 128.700098 434.896881 
" clip-path="url(#pb2ab7b7212)" style="fill: #020202"/>
    <path d="M 143.99592 457.509718 
L 90.862497 426.511068 
" clip-path="url(#pb2ab7b7212)" style="fill: #020202"/>
    <path d="M 143.833513 457.913257 
L 49.360397 435.083171 
" clip-path="url(#pb2ab7b7212)" style="fill: #020202"/>
    <path d="M 143.791544 458.2656 
L 27.568456 458.2656 
" clip-path="url(#pb2ab7b7212)" style="fill: #020202"/>
    <path d="M 143.833513 458.617943 
L 44.986304 482.505059 
" clip-path="url(#pb2ab7b7212)" style="fill: #020202"/>
    <path d="M 143.99592 459.021482 
L 90.862497 490.020132 
" clip-path="url(#pb2ab7b7212)" style="fill: #020202"/>
    <path d="M 144.423173 459.488683 
L 128.700098 481.634319 
" clip-path="url(#pb2ab7b7212)" style="fill: #020202"/>
    <path d="M 129.181128 433.018728 
C 154.097089 419.177911 131.5427 403.904205 127.93912 432.177647 
C 131.5427 403.904205 154.097089 419.177911 129.181128 433.018728 
" clip-path="url(#pb2ab7b7212)" style="fill: #020202"/>
    <path d="M 126.373696 433.321455 
L 91.512124 424.896913 
" clip-path="url(#pb2ab7b7212)" style="fill: #020202; stroke: #020202; stroke-width: 1.485"/>
    <path d="M 126.331727 433.673798 
L 49.528273 433.673798 
" clip-path="url(#pb2ab7b7212)" style="fill: #020202; stroke: #020202; stroke-width: 1.485"/>
    <path d="M 126.373696 434.026141 
L 27.526487 457.913257 
" clip-path="url(#pb2ab7b7212)" style="fill: #020202"/>
    <path d="M 126.536103 434.42968 
L 44.823897 482.10152 
" clip-path="url(#pb2ab7b7212)" style="fill: #020202"/>
    <path d="M 126.963356 434.896881 
L 89.153484 488.151328 
" clip-path="url(#pb2ab7b7212)" style="fill: #020202"/>
    <path d="M 127.831727 435.173798 
L 127.831727 481.357402 
" clip-path="url(#pb2ab7b7212)" style="fill: #020202"/>
    <path d="M 88.68 418.291387 
C 99.299715 396.757344 72.060285 396.757344 82.68 418.291387 
C 72.060285 396.757344 99.299715 396.757344 88.68 418.291387 
" clip-path="url(#pb2ab7b7212)" style="fill: #020202"/>
    <path d="M 79.847876 424.896913 
L 49.360397 432.264425 
" clip-path="url(#pb2ab7b7212)" style="fill: #020202; stroke: #020202; stroke-width: 1.485"/>
    <path d="M 80.497503 426.511068 
L 27.36408 457.509718 
" clip-path="url(#pb2ab7b7212)" style="fill: #020202"/>
    <path d="M 82.206516 428.379872 
L 44.396644 481.634319 
" clip-path="url(#pb2ab7b7212)" style="fill: #020202"/>
    <path d="M 85.68 429.48754 
L 85.68 487.04366 
" clip-path="url(#pb2ab7b7212)" style="fill: #020202; stroke: #020202; stroke-width: 1.485"/>
    <path d="M 89.153484 428.379872 
L 126.963356 481.634319 
" clip-path="url(#pb2ab7b7212)" style="fill: #020202"/>
    <path d="M 43.0987 427.689195 
C 39.8173 403.904205 17.262911 419.177911 38.130669 431.053518 
C 17.262911 419.177911 39.8173 403.904205 43.0987 427.689195 
" clip-path="url(#pb2ab7b7212)" style="fill: #020202"/>
    <path d="M 40.05479 438.56613 
L 26.936827 457.042517 
" clip-path="url(#pb2ab7b7212)" style="fill: #020202"/>
    <path d="M 43.528273 439.673798 
L 43.528273 481.357402 
" clip-path="url(#pb2ab7b7212)" style="fill: #020202"/>
    <path d="M 47.001757 438.56613 
L 82.206516 488.151328 
" clip-path="url(#pb2ab7b7212)" style="fill: #020202; stroke: #020202; stroke-width: 1.485"/>
    <path d="M 48.71077 436.697326 
L 126.536103 482.10152 
" clip-path="url(#pb2ab7b7212)" style="fill: #020202"/>
    <path d="M 24.769418 457.5156 
C -0.66174 444.645885 -0.66174 471.885315 24.769418 459.0156 
C -0.66174 471.885315 -0.66174 444.645885 24.769418 457.5156 
" clip-path="url(#pb2ab7b7212)" style="fill: #020202"/>
    <path d="M 26.936827 459.488683 
L 42.659902 481.634319 
" clip-path="url(#pb2ab7b7212)" style="fill: #020202"/>
    <path d="M 27.36408 459.021482 
L 80.497503 490.020132 
" clip-path="url(#pb2ab7b7212)" style="fill: #020202"/>
    <path d="M 27.526487 458.617943 
L 126.373696 482.505059 
" clip-path="url(#pb2ab7b7212)" style="fill: #020202"/>
    <path d="M 42.178872 483.512472 
C 17.262911 497.353289 39.8173 512.626995 43.42088 484.353553 
C 39.8173 512.626995 17.262911 497.353289 42.178872 483.512472 
" clip-path="url(#pb2ab7b7212)" style="fill: #020202"/>
    <path d="M 44.986304 483.209745 
L 79.847876 491.634287 
" clip-path="url(#pb2ab7b7212)" style="fill: #020202; stroke: #020202; stroke-width: 1.485"/>
    <path d="M 45.028273 482.857402 
L 126.331727 482.857402 
" clip-path="url(#pb2ab7b7212)" style="fill: #020202"/>
    <path d="M 82.68 498.239813 
C 72.060285 519.773856 99.299715 519.773856 88.68 498.239813 
C 99.299715 519.773856 72.060285 519.773856 82.68 498.239813 
" clip-path="url(#pb2ab7b7212)" style="fill: #020202"/>
    <path d="M 91.512124 491.634287 
L 126.373696 483.209745 
" clip-path="url(#pb2ab7b7212)" style="fill: #020202"/>
    <path d="M 127.93912 484.353553 
C 131.5427 512.626995 154.097089 497.353289 129.181128 483.512472 
C 154.097089 497.353289 131.5427 512.626995 127.93912 484.353553 
" clip-path="url(#pb2ab7b7212)" style="fill: #020202"/>
   </g>
   <g id="VertexCollection_5">
    <path d="M 145.291544 459.7656 
C 145.689348 459.7656 146.070914 459.607551 146.352204 459.32626 
C 146.633494 459.04497 146.791544 458.663405 146.791544 458.2656 
C 146.791544 457.867795 146.633494 457.48623 146.352204 457.20494 
C 146.070914 456.923649 145.689348 456.7656 145.291544 456.7656 
C 144.893739 456.7656 144.512174 456.923649 144.230884 457.20494 
C 143.949593 457.48623 143.791544 457.867795 143.791544 458.2656 
C 143.791544 458.663405 143.949593 459.04497 144.230884 459.32626 
C 144.512174 459.607551 144.893739 459.7656 145.291544 459.7656 
z
" clip-path="url(#pb2ab7b7212)" style="fill: #bebebe"/>
    <path d="M 127.831727 435.173798 
C 128.229532 435.173798 128.611097 435.015748 128.892387 434.734458 
C 129.173677 434.453168 129.331727 434.071602 129.331727 433.673798 
C 129.331727 433.275993 129.173677 432.894428 128.892387 432.613138 
C 128.611097 432.331847 128.229532 432.173798 127.831727 432.173798 
C 127.433922 432.173798 127.052357 432.331847 126.771067 432.613138 
C 126.489776 432.894428 126.331727 433.275993 126.331727 433.673798 
C 126.331727 434.071602 126.489776 434.453168 126.771067 434.734458 
C 127.052357 435.015748 127.433922 435.173798 127.831727 435.173798 
z
" clip-path="url(#pb2ab7b7212)" style="fill: #bebebe"/>
    <path d="M 85.68 429.48754 
C 87.271219 429.48754 88.797479 428.855342 89.922641 427.730181 
C 91.047802 426.605019 91.68 425.078758 91.68 423.48754 
C 91.68 421.896321 91.047802 420.370061 89.922641 419.244899 
C 88.797479 418.119738 87.271219 417.48754 85.68 417.48754 
C 84.088781 417.48754 82.562521 418.119738 81.437359 419.244899 
C 80.312198 420.370061 79.68 421.896321 79.68 423.48754 
C 79.68 425.078758 80.312198 426.605019 81.437359 427.730181 
C 82.562521 428.855342 84.088781 429.48754 85.68 429.48754 
z
" clip-path="url(#pb2ab7b7212)" style="fill: #bebebe"/>
    <path d="M 43.528273 439.673798 
C 45.119492 439.673798 46.645752 439.0416 47.770914 437.916439 
C 48.896075 436.791277 49.528273 435.265016 49.528273 433.673798 
C 49.528273 432.082579 48.896075 430.556319 47.770914 429.431157 
C 46.645752 428.305996 45.119492 427.673798 43.528273 427.673798 
C 41.937055 427.673798 40.410794 428.305996 39.285632 429.431157 
C 38.160471 430.556319 37.528273 432.082579 37.528273 433.673798 
C 37.528273 435.265016 38.160471 436.791277 39.285632 437.916439 
C 40.410794 439.0416 41.937055 439.673798 43.528273 439.673798 
z
" clip-path="url(#pb2ab7b7212)" style="fill: #bebebe"/>
    <path d="M 26.068456 459.7656 
C 26.466261 459.7656 26.847826 459.607551 27.129116 459.32626 
C 27.410407 459.04497 27.568456 458.663405 27.568456 458.2656 
C 27.568456 457.867795 27.410407 457.48623 27.129116 457.20494 
C 26.847826 456.923649 26.466261 456.7656 26.068456 456.7656 
C 25.670652 456.7656 25.289086 456.923649 25.007796 457.20494 
C 24.726506 457.48623 24.568456 457.867795 24.568456 458.2656 
C 24.568456 458.663405 24.726506 459.04497 25.007796 459.32626 
C 25.289086 459.607551 25.670652 459.7656 26.068456 459.7656 
z
" clip-path="url(#pb2ab7b7212)" style="fill: #bebebe"/>
    <path d="M 43.528273 484.357402 
C 43.926078 484.357402 44.307643 484.199353 44.588933 483.918062 
C 44.870224 483.636772 45.028273 483.255207 45.028273 482.857402 
C 45.028273 482.459598 44.870224 482.078032 44.588933 481.796742 
C 44.307643 481.515452 43.926078 481.357402 43.528273 481.357402 
C 43.130468 481.357402 42.748903 481.515452 42.467613 481.796742 
C 42.186323 482.078032 42.028273 482.459598 42.028273 482.857402 
C 42.028273 483.255207 42.186323 483.636772 42.467613 483.918062 
C 42.748903 484.199353 43.130468 484.357402 43.528273 484.357402 
z
" clip-path="url(#pb2ab7b7212)" style="fill: #bebebe"/>
    <path d="M 85.68 499.04366 
C 87.271219 499.04366 88.797479 498.411462 89.922641 497.286301 
C 91.047802 496.161139 91.68 494.634879 91.68 493.04366 
C 91.68 491.452442 91.047802 489.926181 89.922641 488.801019 
C 88.797479 487.675858 87.271219 487.04366 85.68 487.04366 
C 84.088781 487.04366 82.562521 487.675858 81.437359 488.801019 
C 80.312198 489.926181 79.68 491.452442 79.68 493.04366 
C 79.68 494.634879 80.312198 496.161139 81.437359 497.286301 
C 82.562521 498.411462 84.088781 499.04366 85.68 499.04366 
z
" clip-path="url(#pb2ab7b7212)" style="fill: #bebebe"/>
    <path d="M 127.831727 484.357402 
C 128.229532 484.357402 128.611097 484.199353 128.892387 483.918062 
C 129.173677 483.636772 129.331727 483.255207 129.331727 482.857402 
C 129.331727 482.459598 129.173677 482.078032 128.892387 481.796742 
C 128.611097 481.515452 128.229532 481.357402 127.831727 481.357402 
C 127.433922 481.357402 127.052357 481.515452 126.771067 481.796742 
C 126.489776 482.078032 126.331727 482.459598 126.331727 482.857402 
C 126.331727 483.255207 126.489776 483.636772 126.771067 483.918062 
C 127.052357 484.199353 127.433922 484.357402 127.831727 484.357402 
z
" clip-path="url(#pb2ab7b7212)" style="fill: #bebebe"/>
   </g>
   <g id="matplotlib.axis_9"/>
   <g id="matplotlib.axis_10"/>
  </g>
 </g>
 <defs>
  <clipPath id="pf1333594df">
   <rect x="12.852" y="11.016" width="145.656" height="89.5968"/>
  </clipPath>
  <clipPath id="p89eb8423bb">
   <rect x="12.852" y="111.6288" width="145.656" height="89.5968"/>
  </clipPath>
  <clipPath id="p33ff86c6d7">
   <rect x="12.852" y="212.2416" width="145.656" height="89.5968"/>
  </clipPath>
  <clipPath id="p71ca17bbb0">
   <rect x="12.852" y="312.8544" width="145.656" height="89.5968"/>
  </clipPath>
  <clipPath id="pb2ab7b7212">
   <rect x="12.852" y="413.4672" width="145.656" height="89.5968"/>
  </clipPath>
 </defs>
</svg>
