<?xml version="1.0" encoding="utf-8" standalone="no"?>
<!DOCTYPE svg PUBLIC "-//W3C//DTD SVG 1.1//EN"
  "http://www.w3.org/Graphics/SVG/1.1/DTD/svg11.dtd">
<svg xmlns:xlink="http://www.w3.org/1999/xlink" width="460.8pt" height="345.6pt" viewBox="0 0 460.8 345.6" xmlns="http://www.w3.org/2000/svg" version="1.1">
 <metadata>
  <rdf:RDF xmlns:dc="http://purl.org/dc/elements/1.1/" xmlns:cc="http://creativecommons.org/ns#" xmlns:rdf="http://www.w3.org/1999/02/22-rdf-syntax-ns#">
   <cc:Work>
    <dc:type rdf:resource="http://purl.org/dc/dcmitype/StillImage"/>
    <dc:date>2024-06-24T14:14:01.235861</dc:date>
    <dc:format>image/svg+xml</dc:format>
    <dc:creator>
     <cc:Agent>
      <dc:title>Matplotlib v3.7.0, https://matplotlib.org/</dc:title>
     </cc:Agent>
    </dc:creator>
   </cc:Work>
  </rdf:RDF>
 </metadata>
 <defs>
  <style type="text/css">*{stroke-linejoin: round; stroke-linecap: butt}</style>
 </defs>
 <g id="figure_1">
  <g id="patch_1">
   <path d="M 0 345.6 
L 460.8 345.6 
L 460.8 0 
L 0 0 
z
" style="fill: #ffffff"/>
  </g>
  <g id="axes_1">
   <g id="patch_2">
    <path d="M 57.6 307.584 
L 414.72 307.584 
L 414.72 41.472 
L 57.6 41.472 
z
" style="fill: #ffffff"/>
   </g>
   <g id="EdgeCollection_1">
    <path d="M 109.624841 124.600739 
L 307.439514 264.195197 
" clip-path="url(#p489f8a6209)" style="fill: #f0f0f0; stroke: #f0f0f0; stroke-width: 0.133427"/>
    <path d="M 102.588646 127.721219 
L 92.831664 207.687979 
" clip-path="url(#p489f8a6209)" style="fill: #dbdbdb; stroke: #dbdbdb; stroke-width: 0.249298"/>
    <path d="M 110.246693 117.006609 
L 204.954609 71.126264 
" clip-path="url(#p489f8a6209)" style="fill: #d6d6d6; stroke: #d6d6d6; stroke-width: 0.273876"/>
    <path d="M 106.89048 126.964803 
L 181.750947 274.511183 
" clip-path="url(#p489f8a6209)" style="fill: #ffffff"/>
    <path d="M 110.960811 119.540477 
L 327.202836 98.218378 
" clip-path="url(#p489f8a6209)" style="fill: #f6f6f6; stroke: #f6f6f6; stroke-width: 0.08427"/>
    <path d="M 110.790379 122.02478 
L 373.103325 184.905807 
" clip-path="url(#p489f8a6209)" style="fill: #e3e3e3; stroke: #e3e3e3; stroke-width: 0.207163"/>
    <path d="M 110.358584 123.304426 
L 224.824371 173.817877 
" clip-path="url(#p489f8a6209)" style="fill: #e5e5e5; stroke: #e5e5e5; stroke-width: 0.196629"/>
    <path d="M 306.275881 266.763232 
L 99.21477 216.889042 
" clip-path="url(#p489f8a6209)" style="stroke: #000000; stroke-width: 2.963483"/>
    <path d="M 310.172475 261.831843 
L 215.099169 74.544106 
" clip-path="url(#p489f8a6209)" style="stroke: #000000; stroke-width: 3.799157"/>
    <path d="M 306.103642 269.256447 
L 192.608127 280.462615 
" clip-path="url(#p489f8a6209)" style="fill: #c6c6c6; stroke: #c6c6c6; stroke-width: 0.344101"/>
    <path d="M 314.485595 261.07593 
L 333.748394 104.926001 
" clip-path="url(#p489f8a6209)" style="fill: #181818; stroke: #181818; stroke-width: 0.926966"/>
    <path d="M 318.310193 262.709564 
L 375.653853 192.464098 
" clip-path="url(#p489f8a6209)" style="stroke: #000000; stroke-width: 1.162219"/>
    <path d="M 308.571214 262.925881 
L 236.682083 182.439497 
" clip-path="url(#p489f8a6209)" style="fill: #464646; stroke: #464646; stroke-width: 0.793539"/>
    <path d="M 96.655578 209.314214 
L 206.97202 73.674997 
" clip-path="url(#p489f8a6209)" style="stroke: #000000; stroke-width: 5"/>
    <path d="M 98.042397 219.469434 
L 179.025326 276.86289 
" clip-path="url(#p489f8a6209)" style="fill: #9e9e9e; stroke: #9e9e9e; stroke-width: 0.484551"/>
    <path d="M 98.672382 211.861693 
L 327.917561 100.7535 
" clip-path="url(#p489f8a6209)" style="fill: #1d1d1d; stroke: #1d1d1d; stroke-width: 0.90941"/>
    <path d="M 99.38702 214.395936 
L 372.93298 187.390988 
" clip-path="url(#p489f8a6209)" style="stroke: #000000; stroke-width: 1.727528"/>
    <path d="M 99.156796 213.151208 
L 224.452455 178.827432 
" clip-path="url(#p489f8a6209)" style="stroke: #000000; stroke-width: 1.485253"/>
    <path d="M 210.777746 75.29899 
L 186.070971 273.75701 
" clip-path="url(#p489f8a6209)" style="fill: #676767; stroke: #676767; stroke-width: 0.68118"/>
    <path d="M 218.99565 69.613189 
L 327.375286 95.72568 
" clip-path="url(#p489f8a6209)" style="stroke: #000000; stroke-width: 1.443118"/>
    <path d="M 217.836334 72.174789 
L 374.264659 182.335811 
" clip-path="url(#p489f8a6209)" style="stroke: #000000; stroke-width: 2.247191"/>
    <path d="M 213.056772 75.233489 
L 230.333472 169.468827 
" clip-path="url(#p489f8a6209)" style="stroke: #000000; stroke-width: 1.397472"/>
    <path d="M 189.87867 275.382609 
L 329.93239 103.299373 
" clip-path="url(#p489f8a6209)" style="fill: #c1c1c1; stroke: #c1c1c1; stroke-width: 0.36868"/>
    <path d="M 191.894686 277.930931 
L 373.646432 189.922782 
" clip-path="url(#p489f8a6209)" style="fill: #c3c3c3; stroke: #c3c3c3; stroke-width: 0.358146"/>
    <path d="M 188.199342 274.349925 
L 228.631027 183.695504 
" clip-path="url(#p489f8a6209)" style="fill: #e9e9e9; stroke: #e9e9e9; stroke-width: 0.175562"/>
    <path d="M 338.089073 104.156027 
L 376.974265 179.980555 
" clip-path="url(#p489f8a6209)" style="fill: #111111; stroke: #111111; stroke-width: 0.948034"/>
    <path d="M 328.726076 102.060601 
L 237.626513 172.267697 
" clip-path="url(#p489f8a6209)" style="fill: #aeaeae; stroke: #aeaeae; stroke-width: 0.435393"/>
    <path d="M 372.912957 186.160563 
L 239.169688 177.339466 
" clip-path="url(#p489f8a6209)" style="fill: #a3a3a3; stroke: #a3a3a3; stroke-width: 0.470506"/>
   </g>
   <g id="VertexCollection_1">
    <path d="M 103.497007 127.77643 
C 105.48603 127.77643 107.393856 126.986183 108.800308 125.579731 
C 110.20676 124.173279 110.997007 122.265453 110.997007 120.27643 
C 110.997007 118.287407 110.20676 116.379581 108.800308 114.973129 
C 107.393856 113.566677 105.48603 112.77643 103.497007 112.77643 
C 101.507984 112.77643 99.600158 113.566677 98.193706 114.973129 
C 96.787254 116.379581 95.997007 118.287407 95.997007 120.27643 
C 95.997007 122.265453 96.787254 124.173279 98.193706 125.579731 
C 99.600158 126.986183 101.507984 127.77643 103.497007 127.77643 
z
" clip-path="url(#p489f8a6209)" style="fill: #0000ff; stroke: #0000ff; stroke-width: 3"/>
    <path d="M 313.567348 276.019506 
C 315.556372 276.019506 317.464197 275.229259 318.870649 273.822807 
C 320.277101 272.416355 321.067348 270.508529 321.067348 268.519506 
C 321.067348 266.530483 320.277101 264.622657 318.870649 263.216205 
C 317.464197 261.809753 315.556372 261.019506 313.567348 261.019506 
C 311.578325 261.019506 309.670499 261.809753 308.264047 263.216205 
C 306.857596 264.622657 306.067348 266.530483 306.067348 268.519506 
C 306.067348 270.508529 306.857596 272.416355 308.264047 273.822807 
C 309.670499 275.229259 311.578325 276.019506 313.567348 276.019506 
z
" clip-path="url(#p489f8a6209)" style="fill: #0000ff; stroke: #0000ff; stroke-width: 3"/>
    <path d="M 91.923303 222.632768 
C 93.912326 222.632768 95.820152 221.84252 97.226604 220.436068 
C 98.633055 219.029617 99.423303 217.121791 99.423303 215.132768 
C 99.423303 213.143744 98.633055 211.235918 97.226604 209.829467 
C 95.820152 208.423015 93.912326 207.632768 91.923303 207.632768 
C 89.934279 207.632768 88.026454 208.423015 86.620002 209.829467 
C 85.21355 211.235918 84.423303 213.143744 84.423303 215.132768 
C 84.423303 217.121791 85.21355 219.029617 86.620002 220.436068 
C 88.026454 221.84252 89.934279 222.632768 91.923303 222.632768 
z
" clip-path="url(#p489f8a6209)" style="fill: #0000ff; stroke: #0000ff; stroke-width: 3"/>
    <path d="M 211.704296 75.356443 
C 213.693319 75.356443 215.601145 74.566196 217.007597 73.159744 
C 218.414048 71.753292 219.204296 69.845467 219.204296 67.856443 
C 219.204296 65.86742 218.414048 63.959594 217.007597 62.553142 
C 215.601145 61.146691 213.693319 60.356443 211.704296 60.356443 
C 209.715273 60.356443 207.807447 61.146691 206.400995 62.553142 
C 204.994543 63.959594 204.204296 65.86742 204.204296 67.856443 
C 204.204296 69.845467 204.994543 71.753292 206.400995 73.159744 
C 207.807447 74.566196 209.715273 75.356443 211.704296 75.356443 
z
" clip-path="url(#p489f8a6209)" style="fill: #0000ff; stroke: #0000ff; stroke-width: 3"/>
    <path d="M 185.14442 288.699557 
C 187.133444 288.699557 189.041269 287.909309 190.447721 286.502858 
C 191.854173 285.096406 192.64442 283.18858 192.64442 281.199557 
C 192.64442 279.210533 191.854173 277.302708 190.447721 275.896256 
C 189.041269 274.489804 187.133444 273.699557 185.14442 273.699557 
C 183.155397 273.699557 181.247571 274.489804 179.841119 275.896256 
C 178.434668 277.302708 177.64442 279.210533 177.64442 281.199557 
C 177.64442 283.18858 178.434668 285.096406 179.841119 286.502858 
C 181.247571 287.909309 183.155397 288.699557 185.14442 288.699557 
z
" clip-path="url(#p489f8a6209)" style="fill: #0000ff; stroke: #0000ff; stroke-width: 3"/>
    <path d="M 334.666641 104.982425 
C 336.655664 104.982425 338.56349 104.192178 339.969941 102.785726 
C 341.376393 101.379274 342.166641 99.471449 342.166641 97.482425 
C 342.166641 95.493402 341.376393 93.585576 339.969941 92.179125 
C 338.56349 90.772673 336.655664 89.982425 334.666641 89.982425 
C 332.677617 89.982425 330.769792 90.772673 329.36334 92.179125 
C 327.956888 93.585576 327.166641 95.493402 327.166641 97.482425 
C 327.166641 99.471449 327.956888 101.379274 329.36334 102.785726 
C 330.769792 104.192178 332.677617 104.982425 334.666641 104.982425 
z
" clip-path="url(#p489f8a6209)" style="fill: #0000ff; stroke: #0000ff; stroke-width: 3"/>
    <path d="M 380.396697 194.154156 
C 382.385721 194.154156 384.293546 193.363909 385.699998 191.957457 
C 387.10645 190.551005 387.896697 188.64318 387.896697 186.654156 
C 387.896697 184.665133 387.10645 182.757307 385.699998 181.350856 
C 384.293546 179.944404 382.385721 179.154156 380.396697 179.154156 
C 378.407674 179.154156 376.499848 179.944404 375.093396 181.350856 
C 373.686945 182.757307 372.896697 184.665133 372.896697 186.654156 
C 372.896697 188.64318 373.686945 190.551005 375.093396 191.957457 
C 376.499848 193.363909 378.407674 194.154156 380.396697 194.154156 
z
" clip-path="url(#p489f8a6209)" style="fill: #0000ff; stroke: #0000ff; stroke-width: 3"/>
    <path d="M 231.685948 184.345873 
C 233.674971 184.345873 235.582797 183.555625 236.989249 182.149174 
C 238.395701 180.742722 239.185948 178.834896 239.185948 176.845873 
C 239.185948 174.856849 238.395701 172.949024 236.989249 171.542572 
C 235.582797 170.13612 233.674971 169.345873 231.685948 169.345873 
C 229.696925 169.345873 227.789099 170.13612 226.382647 171.542572 
C 224.976196 172.949024 224.185948 174.856849 224.185948 176.845873 
C 224.185948 178.834896 224.976196 180.742722 226.382647 182.149174 
C 227.789099 183.555625 229.696925 184.345873 231.685948 184.345873 
z
" clip-path="url(#p489f8a6209)" style="fill: #0000ff; stroke: #0000ff; stroke-width: 3"/>
   </g>
   <g id="text_1">
    <g clip-path="url(#p489f8a6209)">
     <!-- 0007CB0942 -->
     <g transform="translate(64.650757 123.58768) scale(0.12 -0.12)">
      <defs>
       <path id="DejaVuSans-30" d="M 2034 4250 
Q 1547 4250 1301 3770 
Q 1056 3291 1056 2328 
Q 1056 1369 1301 889 
Q 1547 409 2034 409 
Q 2525 409 2770 889 
Q 3016 1369 3016 2328 
Q 3016 3291 2770 3770 
Q 2525 4250 2034 4250 
z
M 2034 4750 
Q 2819 4750 3233 4129 
Q 3647 3509 3647 2328 
Q 3647 1150 3233 529 
Q 2819 -91 2034 -91 
Q 1250 -91 836 529 
Q 422 1150 422 2328 
Q 422 3509 836 4129 
Q 1250 4750 2034 4750 
z
" transform="scale(0.015625)"/>
       <path id="DejaVuSans-37" d="M 525 4666 
L 3525 4666 
L 3525 4397 
L 1831 0 
L 1172 0 
L 2766 4134 
L 525 4134 
L 525 4666 
z
" transform="scale(0.015625)"/>
       <path id="DejaVuSans-43" d="M 4122 4306 
L 4122 3641 
Q 3803 3938 3442 4084 
Q 3081 4231 2675 4231 
Q 1875 4231 1450 3742 
Q 1025 3253 1025 2328 
Q 1025 1406 1450 917 
Q 1875 428 2675 428 
Q 3081 428 3442 575 
Q 3803 722 4122 1019 
L 4122 359 
Q 3791 134 3420 21 
Q 3050 -91 2638 -91 
Q 1578 -91 968 557 
Q 359 1206 359 2328 
Q 359 3453 968 4101 
Q 1578 4750 2638 4750 
Q 3056 4750 3426 4639 
Q 3797 4528 4122 4306 
z
" transform="scale(0.015625)"/>
       <path id="DejaVuSans-42" d="M 1259 2228 
L 1259 519 
L 2272 519 
Q 2781 519 3026 730 
Q 3272 941 3272 1375 
Q 3272 1813 3026 2020 
Q 2781 2228 2272 2228 
L 1259 2228 
z
M 1259 4147 
L 1259 2741 
L 2194 2741 
Q 2656 2741 2882 2914 
Q 3109 3088 3109 3444 
Q 3109 3797 2882 3972 
Q 2656 4147 2194 4147 
L 1259 4147 
z
M 628 4666 
L 2241 4666 
Q 2963 4666 3353 4366 
Q 3744 4066 3744 3513 
Q 3744 3084 3544 2831 
Q 3344 2578 2956 2516 
Q 3422 2416 3680 2098 
Q 3938 1781 3938 1306 
Q 3938 681 3513 340 
Q 3088 0 2303 0 
L 628 0 
L 628 4666 
z
" transform="scale(0.015625)"/>
       <path id="DejaVuSans-39" d="M 703 97 
L 703 672 
Q 941 559 1184 500 
Q 1428 441 1663 441 
Q 2288 441 2617 861 
Q 2947 1281 2994 2138 
Q 2813 1869 2534 1725 
Q 2256 1581 1919 1581 
Q 1219 1581 811 2004 
Q 403 2428 403 3163 
Q 403 3881 828 4315 
Q 1253 4750 1959 4750 
Q 2769 4750 3195 4129 
Q 3622 3509 3622 2328 
Q 3622 1225 3098 567 
Q 2575 -91 1691 -91 
Q 1453 -91 1209 -44 
Q 966 3 703 97 
z
M 1959 2075 
Q 2384 2075 2632 2365 
Q 2881 2656 2881 3163 
Q 2881 3666 2632 3958 
Q 2384 4250 1959 4250 
Q 1534 4250 1286 3958 
Q 1038 3666 1038 3163 
Q 1038 2656 1286 2365 
Q 1534 2075 1959 2075 
z
" transform="scale(0.015625)"/>
       <path id="DejaVuSans-34" d="M 2419 4116 
L 825 1625 
L 2419 1625 
L 2419 4116 
z
M 2253 4666 
L 3047 4666 
L 3047 1625 
L 3713 1625 
L 3713 1100 
L 3047 1100 
L 3047 0 
L 2419 0 
L 2419 1100 
L 313 1100 
L 313 1709 
L 2253 4666 
z
" transform="scale(0.015625)"/>
       <path id="DejaVuSans-32" d="M 1228 531 
L 3431 531 
L 3431 0 
L 469 0 
L 469 531 
Q 828 903 1448 1529 
Q 2069 2156 2228 2338 
Q 2531 2678 2651 2914 
Q 2772 3150 2772 3378 
Q 2772 3750 2511 3984 
Q 2250 4219 1831 4219 
Q 1534 4219 1204 4116 
Q 875 4013 500 3803 
L 500 4441 
Q 881 4594 1212 4672 
Q 1544 4750 1819 4750 
Q 2544 4750 2975 4387 
Q 3406 4025 3406 3419 
Q 3406 3131 3298 2873 
Q 3191 2616 2906 2266 
Q 2828 2175 2409 1742 
Q 1991 1309 1228 531 
z
" transform="scale(0.015625)"/>
      </defs>
      <use xlink:href="#DejaVuSans-30"/>
      <use xlink:href="#DejaVuSans-30" x="63.623047"/>
      <use xlink:href="#DejaVuSans-30" x="127.246094"/>
      <use xlink:href="#DejaVuSans-37" x="190.869141"/>
      <use xlink:href="#DejaVuSans-43" x="254.492188"/>
      <use xlink:href="#DejaVuSans-42" x="324.316406"/>
      <use xlink:href="#DejaVuSans-30" x="392.919922"/>
      <use xlink:href="#DejaVuSans-39" x="456.542969"/>
      <use xlink:href="#DejaVuSans-34" x="520.166016"/>
      <use xlink:href="#DejaVuSans-32" x="583.789062"/>
     </g>
    </g>
   </g>
   <g id="text_2">
    <g clip-path="url(#p489f8a6209)">
     <!-- 0007CD38E5 -->
     <g transform="translate(274.243911 271.830756) scale(0.12 -0.12)">
      <defs>
       <path id="DejaVuSans-44" d="M 1259 4147 
L 1259 519 
L 2022 519 
Q 2988 519 3436 956 
Q 3884 1394 3884 2338 
Q 3884 3275 3436 3711 
Q 2988 4147 2022 4147 
L 1259 4147 
z
M 628 4666 
L 1925 4666 
Q 3281 4666 3915 4102 
Q 4550 3538 4550 2338 
Q 4550 1131 3912 565 
Q 3275 0 1925 0 
L 628 0 
L 628 4666 
z
" transform="scale(0.015625)"/>
       <path id="DejaVuSans-33" d="M 2597 2516 
Q 3050 2419 3304 2112 
Q 3559 1806 3559 1356 
Q 3559 666 3084 287 
Q 2609 -91 1734 -91 
Q 1441 -91 1130 -33 
Q 819 25 488 141 
L 488 750 
Q 750 597 1062 519 
Q 1375 441 1716 441 
Q 2309 441 2620 675 
Q 2931 909 2931 1356 
Q 2931 1769 2642 2001 
Q 2353 2234 1838 2234 
L 1294 2234 
L 1294 2753 
L 1863 2753 
Q 2328 2753 2575 2939 
Q 2822 3125 2822 3475 
Q 2822 3834 2567 4026 
Q 2313 4219 1838 4219 
Q 1578 4219 1281 4162 
Q 984 4106 628 3988 
L 628 4550 
Q 988 4650 1302 4700 
Q 1616 4750 1894 4750 
Q 2613 4750 3031 4423 
Q 3450 4097 3450 3541 
Q 3450 3153 3228 2886 
Q 3006 2619 2597 2516 
z
" transform="scale(0.015625)"/>
       <path id="DejaVuSans-38" d="M 2034 2216 
Q 1584 2216 1326 1975 
Q 1069 1734 1069 1313 
Q 1069 891 1326 650 
Q 1584 409 2034 409 
Q 2484 409 2743 651 
Q 3003 894 3003 1313 
Q 3003 1734 2745 1975 
Q 2488 2216 2034 2216 
z
M 1403 2484 
Q 997 2584 770 2862 
Q 544 3141 544 3541 
Q 544 4100 942 4425 
Q 1341 4750 2034 4750 
Q 2731 4750 3128 4425 
Q 3525 4100 3525 3541 
Q 3525 3141 3298 2862 
Q 3072 2584 2669 2484 
Q 3125 2378 3379 2068 
Q 3634 1759 3634 1313 
Q 3634 634 3220 271 
Q 2806 -91 2034 -91 
Q 1263 -91 848 271 
Q 434 634 434 1313 
Q 434 1759 690 2068 
Q 947 2378 1403 2484 
z
M 1172 3481 
Q 1172 3119 1398 2916 
Q 1625 2713 2034 2713 
Q 2441 2713 2670 2916 
Q 2900 3119 2900 3481 
Q 2900 3844 2670 4047 
Q 2441 4250 2034 4250 
Q 1625 4250 1398 4047 
Q 1172 3844 1172 3481 
z
" transform="scale(0.015625)"/>
       <path id="DejaVuSans-45" d="M 628 4666 
L 3578 4666 
L 3578 4134 
L 1259 4134 
L 1259 2753 
L 3481 2753 
L 3481 2222 
L 1259 2222 
L 1259 531 
L 3634 531 
L 3634 0 
L 628 0 
L 628 4666 
z
" transform="scale(0.015625)"/>
       <path id="DejaVuSans-35" d="M 691 4666 
L 3169 4666 
L 3169 4134 
L 1269 4134 
L 1269 2991 
Q 1406 3038 1543 3061 
Q 1681 3084 1819 3084 
Q 2600 3084 3056 2656 
Q 3513 2228 3513 1497 
Q 3513 744 3044 326 
Q 2575 -91 1722 -91 
Q 1428 -91 1123 -41 
Q 819 9 494 109 
L 494 744 
Q 775 591 1075 516 
Q 1375 441 1709 441 
Q 2250 441 2565 725 
Q 2881 1009 2881 1497 
Q 2881 1984 2565 2268 
Q 2250 2553 1709 2553 
Q 1456 2553 1204 2497 
Q 953 2441 691 2322 
L 691 4666 
z
" transform="scale(0.015625)"/>
      </defs>
      <use xlink:href="#DejaVuSans-30"/>
      <use xlink:href="#DejaVuSans-30" x="63.623047"/>
      <use xlink:href="#DejaVuSans-30" x="127.246094"/>
      <use xlink:href="#DejaVuSans-37" x="190.869141"/>
      <use xlink:href="#DejaVuSans-43" x="254.492188"/>
      <use xlink:href="#DejaVuSans-44" x="324.316406"/>
      <use xlink:href="#DejaVuSans-33" x="401.318359"/>
      <use xlink:href="#DejaVuSans-38" x="464.941406"/>
      <use xlink:href="#DejaVuSans-45" x="528.564453"/>
      <use xlink:href="#DejaVuSans-35" x="591.748047"/>
     </g>
    </g>
   </g>
   <g id="text_3">
    <g clip-path="url(#p489f8a6209)">
     <!-- 0007CD81D3 -->
     <g transform="translate(51.771115 218.444018) scale(0.12 -0.12)">
      <defs>
       <path id="DejaVuSans-31" d="M 794 531 
L 1825 531 
L 1825 4091 
L 703 3866 
L 703 4441 
L 1819 4666 
L 2450 4666 
L 2450 531 
L 3481 531 
L 3481 0 
L 794 0 
L 794 531 
z
" transform="scale(0.015625)"/>
      </defs>
      <use xlink:href="#DejaVuSans-30"/>
      <use xlink:href="#DejaVuSans-30" x="63.623047"/>
      <use xlink:href="#DejaVuSans-30" x="127.246094"/>
      <use xlink:href="#DejaVuSans-37" x="190.869141"/>
      <use xlink:href="#DejaVuSans-43" x="254.492188"/>
      <use xlink:href="#DejaVuSans-44" x="324.316406"/>
      <use xlink:href="#DejaVuSans-38" x="401.318359"/>
      <use xlink:href="#DejaVuSans-31" x="464.941406"/>
      <use xlink:href="#DejaVuSans-44" x="528.564453"/>
      <use xlink:href="#DejaVuSans-33" x="605.566406"/>
     </g>
    </g>
   </g>
   <g id="text_4">
    <g clip-path="url(#p489f8a6209)">
     <!-- 0007CD86B3 -->
     <g transform="translate(172.055546 71.167693) scale(0.12 -0.12)">
      <defs>
       <path id="DejaVuSans-36" d="M 2113 2584 
Q 1688 2584 1439 2293 
Q 1191 2003 1191 1497 
Q 1191 994 1439 701 
Q 1688 409 2113 409 
Q 2538 409 2786 701 
Q 3034 994 3034 1497 
Q 3034 2003 2786 2293 
Q 2538 2584 2113 2584 
z
M 3366 4563 
L 3366 3988 
Q 3128 4100 2886 4159 
Q 2644 4219 2406 4219 
Q 1781 4219 1451 3797 
Q 1122 3375 1075 2522 
Q 1259 2794 1537 2939 
Q 1816 3084 2150 3084 
Q 2853 3084 3261 2657 
Q 3669 2231 3669 1497 
Q 3669 778 3244 343 
Q 2819 -91 2113 -91 
Q 1303 -91 875 529 
Q 447 1150 447 2328 
Q 447 3434 972 4092 
Q 1497 4750 2381 4750 
Q 2619 4750 2861 4703 
Q 3103 4656 3366 4563 
z
" transform="scale(0.015625)"/>
      </defs>
      <use xlink:href="#DejaVuSans-30"/>
      <use xlink:href="#DejaVuSans-30" x="63.623047"/>
      <use xlink:href="#DejaVuSans-30" x="127.246094"/>
      <use xlink:href="#DejaVuSans-37" x="190.869141"/>
      <use xlink:href="#DejaVuSans-43" x="254.492188"/>
      <use xlink:href="#DejaVuSans-44" x="324.316406"/>
      <use xlink:href="#DejaVuSans-38" x="401.318359"/>
      <use xlink:href="#DejaVuSans-36" x="464.941406"/>
      <use xlink:href="#DejaVuSans-42" x="528.564453"/>
      <use xlink:href="#DejaVuSans-33" x="597.167969"/>
     </g>
    </g>
   </g>
   <g id="text_5">
    <g clip-path="url(#p489f8a6209)">
     <!-- 0007CDC395 -->
     <g transform="translate(145.422545 284.510807) scale(0.12 -0.12)">
      <use xlink:href="#DejaVuSans-30"/>
      <use xlink:href="#DejaVuSans-30" x="63.623047"/>
      <use xlink:href="#DejaVuSans-30" x="127.246094"/>
      <use xlink:href="#DejaVuSans-37" x="190.869141"/>
      <use xlink:href="#DejaVuSans-43" x="254.492188"/>
      <use xlink:href="#DejaVuSans-44" x="324.316406"/>
      <use xlink:href="#DejaVuSans-43" x="401.318359"/>
      <use xlink:href="#DejaVuSans-33" x="471.142578"/>
      <use xlink:href="#DejaVuSans-39" x="534.765625"/>
      <use xlink:href="#DejaVuSans-35" x="598.388672"/>
     </g>
    </g>
   </g>
   <g id="text_6">
    <g clip-path="url(#p489f8a6209)">
     <!-- 0007CDC91B -->
     <g transform="translate(294.645703 100.793675) scale(0.12 -0.12)">
      <use xlink:href="#DejaVuSans-30"/>
      <use xlink:href="#DejaVuSans-30" x="63.623047"/>
      <use xlink:href="#DejaVuSans-30" x="127.246094"/>
      <use xlink:href="#DejaVuSans-37" x="190.869141"/>
      <use xlink:href="#DejaVuSans-43" x="254.492188"/>
      <use xlink:href="#DejaVuSans-44" x="324.316406"/>
      <use xlink:href="#DejaVuSans-43" x="401.318359"/>
      <use xlink:href="#DejaVuSans-39" x="471.142578"/>
      <use xlink:href="#DejaVuSans-31" x="534.765625"/>
      <use xlink:href="#DejaVuSans-42" x="598.388672"/>
     </g>
    </g>
   </g>
   <g id="text_7">
    <g clip-path="url(#p489f8a6209)">
     <!-- 0007CDDBAF -->
     <g transform="translate(340.025135 189.965406) scale(0.12 -0.12)">
      <defs>
       <path id="DejaVuSans-41" d="M 2188 4044 
L 1331 1722 
L 3047 1722 
L 2188 4044 
z
M 1831 4666 
L 2547 4666 
L 4325 0 
L 3669 0 
L 3244 1197 
L 1141 1197 
L 716 0 
L 50 0 
L 1831 4666 
z
" transform="scale(0.015625)"/>
       <path id="DejaVuSans-46" d="M 628 4666 
L 3309 4666 
L 3309 4134 
L 1259 4134 
L 1259 2759 
L 3109 2759 
L 3109 2228 
L 1259 2228 
L 1259 0 
L 628 0 
L 628 4666 
z
" transform="scale(0.015625)"/>
      </defs>
      <use xlink:href="#DejaVuSans-30"/>
      <use xlink:href="#DejaVuSans-30" x="63.623047"/>
      <use xlink:href="#DejaVuSans-30" x="127.246094"/>
      <use xlink:href="#DejaVuSans-37" x="190.869141"/>
      <use xlink:href="#DejaVuSans-43" x="254.492188"/>
      <use xlink:href="#DejaVuSans-44" x="324.316406"/>
      <use xlink:href="#DejaVuSans-44" x="401.318359"/>
      <use xlink:href="#DejaVuSans-42" x="478.320312"/>
      <use xlink:href="#DejaVuSans-41" x="546.923828"/>
      <use xlink:href="#DejaVuSans-46" x="615.332031"/>
     </g>
    </g>
   </g>
   <g id="text_8">
    <g clip-path="url(#p489f8a6209)">
     <!-- 0007CE0327 -->
     <g transform="translate(193.165011 180.157123) scale(0.12 -0.12)">
      <use xlink:href="#DejaVuSans-30"/>
      <use xlink:href="#DejaVuSans-30" x="63.623047"/>
      <use xlink:href="#DejaVuSans-30" x="127.246094"/>
      <use xlink:href="#DejaVuSans-37" x="190.869141"/>
      <use xlink:href="#DejaVuSans-43" x="254.492188"/>
      <use xlink:href="#DejaVuSans-45" x="324.316406"/>
      <use xlink:href="#DejaVuSans-30" x="387.5"/>
      <use xlink:href="#DejaVuSans-33" x="451.123047"/>
      <use xlink:href="#DejaVuSans-32" x="514.746094"/>
      <use xlink:href="#DejaVuSans-37" x="578.369141"/>
     </g>
    </g>
   </g>
   <g id="matplotlib.axis_1"/>
   <g id="matplotlib.axis_2"/>
  </g>
 </g>
 <defs>
  <clipPath id="p489f8a6209">
   <rect x="57.6" y="41.472" width="357.12" height="266.112"/>
  </clipPath>
 </defs>
</svg>
