<?xml version="1.0" encoding="utf-8" standalone="no"?>
<!DOCTYPE svg PUBLIC "-//W3C//DTD SVG 1.1//EN"
  "http://www.w3.org/Graphics/SVG/1.1/DTD/svg11.dtd">
<svg xmlns:xlink="http://www.w3.org/1999/xlink" width="216pt" height="900.72pt" viewBox="0 0 216 900.72" xmlns="http://www.w3.org/2000/svg" version="1.1">
 <metadata>
  <rdf:RDF xmlns:dc="http://purl.org/dc/elements/1.1/" xmlns:cc="http://creativecommons.org/ns#" xmlns:rdf="http://www.w3.org/1999/02/22-rdf-syntax-ns#">
   <cc:Work>
    <dc:type rdf:resource="http://purl.org/dc/dcmitype/StillImage"/>
    <dc:date>2025-06-04T13:58:56.712088</dc:date>
    <dc:format>image/svg+xml</dc:format>
    <dc:creator>
     <cc:Agent>
      <dc:title>Matplotlib v3.9.2, https://matplotlib.org/</dc:title>
     </cc:Agent>
    </dc:creator>
   </cc:Work>
  </rdf:RDF>
 </metadata>
 <defs>
  <style type="text/css">*{stroke-linejoin: round; stroke-linecap: butt}</style>
 </defs>
 <g id="figure_1">
  <g id="patch_1">
   <path d="M 0 900.72 
L 216 900.72 
L 216 0 
L 0 0 
z
" style="fill: #ffffff"/>
  </g>
  <g id="axes_1">
   <g id="patch_2">
    <path d="M 27 227.664745 
L 194.4 227.664745 
L 194.4 108.0864 
L 27 108.0864 
z
" style="fill: #ffffff"/>
   </g>
   <g id="EdgeCollection_1">
    <path d="M 180.729172 169.530507 
C 206.160329 182.400222 206.160329 155.160792 180.729172 168.030507 
C 206.160329 155.160792 206.160329 182.400222 180.729172 169.530507 
" clip-path="url(#p433174125f)" style="fill: #ffffff"/>
    <path d="M 178.665592 167.489973 
L 163.12225 141.25306 
" clip-path="url(#p433174125f)" style="fill: #ffffff"/>
    <path d="M 178.200816 167.920985 
L 116.846589 125.022978 
" clip-path="url(#p433174125f)" style="fill: #ffffff"/>
    <path d="M 177.98934 168.363235 
L 69.304422 136.88675 
" clip-path="url(#p433174125f)" style="fill: #ffffff"/>
    <path d="M 177.930134 168.780507 
L 43.469866 168.780507 
" clip-path="url(#p433174125f)" style="fill: #ffffff"/>
    <path d="M 177.98934 169.197778 
L 63.54125 202.343349 
" clip-path="url(#p433174125f)" style="fill: #ffffff"/>
    <path d="M 178.200816 169.640029 
L 111.929318 215.976123 
" clip-path="url(#p433174125f)" style="fill: #ffffff"/>
    <path d="M 178.665592 170.07104 
L 160.064085 201.470087 
" clip-path="url(#p433174125f)" style="fill: #ffffff"/>
    <path d="M 166.241301 131.961025 
C 186.434114 122.005273 164.897374 105.327282 160.311457 127.368971 
C 164.897374 105.327282 186.434114 122.005273 166.241301 131.961025 
" clip-path="url(#p433174125f)" style="fill: #ffffff"/>
    <path d="M 152.095578 132.714036 
L 117.903965 122.811726 
" clip-path="url(#p433174125f)" style="stroke: #000000; stroke-width: 1.325681"/>
    <path d="M 151.799543 134.800393 
L 69.600457 134.800393 
" clip-path="url(#p433174125f)" style="stroke: #000000; stroke-width: 1.770445"/>
    <path d="M 152.095578 136.88675 
L 43.41066 168.363235 
" clip-path="url(#p433174125f)" style="fill: #ffffff"/>
    <path d="M 153.152954 139.098002 
L 63.329774 201.901099 
" clip-path="url(#p433174125f)" style="fill: #ffffff"/>
    <path d="M 155.476837 141.25306 
L 111.464541 215.545111 
" clip-path="url(#p433174125f)" style="fill: #ffffff"/>
    <path d="M 159.299543 142.300393 
L 159.299543 201.26062 
" clip-path="url(#p433174125f)" style="stroke: #000000; stroke-width: 0.45911"/>
    <path d="M 114.45 114.230179 
C 124.319715 93.995174 97.080285 93.995174 106.95 114.230179 
C 97.080285 93.995174 124.319715 93.995174 114.45 114.230179 
" clip-path="url(#p433174125f)" style="fill: #ffffff"/>
    <path d="M 103.496035 122.811726 
L 69.304422 132.714036 
" clip-path="url(#p433174125f)" style="stroke: #000000; stroke-width: 2"/>
    <path d="M 104.553411 125.022978 
L 43.199184 167.920985 
" clip-path="url(#p433174125f)" style="fill: #ffffff"/>
    <path d="M 106.877294 127.178037 
L 62.864998 201.470087 
" clip-path="url(#p433174125f)" style="fill: #ffffff"/>
    <path d="M 110.7 128.225369 
L 110.7 215.335644 
" clip-path="url(#p433174125f)" style="fill: #ffffff"/>
    <path d="M 114.522706 127.178037 
L 158.535002 201.470087 
" clip-path="url(#p433174125f)" style="stroke: #000000; stroke-width: 0.622669"/>
    <path d="M 61.088543 127.368971 
C 56.502626 105.327282 34.965886 122.005273 55.158699 131.961025 
C 34.965886 122.005273 56.502626 105.327282 61.088543 127.368971 
" clip-path="url(#p433174125f)" style="fill: #ffffff"/>
    <path d="M 58.27775 141.25306 
L 42.734408 167.489973 
" clip-path="url(#p433174125f)" style="fill: #ffffff"/>
    <path d="M 62.100457 142.300393 
L 62.100457 201.26062 
" clip-path="url(#p433174125f)" style="fill: #ffffff"/>
    <path d="M 65.923163 141.25306 
L 109.935459 215.545111 
" clip-path="url(#p433174125f)" style="stroke: #000000; stroke-width: 0.791966"/>
    <path d="M 68.247046 139.098002 
L 158.070226 201.901099 
" clip-path="url(#p433174125f)" style="fill: #ffffff"/>
    <path d="M 40.670828 168.030507 
C 15.239671 155.160792 15.239671 182.400222 40.670828 169.530507 
C 15.239671 182.400222 15.239671 155.160792 40.670828 168.030507 
" clip-path="url(#p433174125f)" style="fill: #ffffff"/>
    <path d="M 42.734408 170.07104 
L 61.335915 201.470087 
" clip-path="url(#p433174125f)" style="fill: #ffffff"/>
    <path d="M 43.199184 169.640029 
L 109.470682 215.976123 
" clip-path="url(#p433174125f)" style="fill: #ffffff"/>
    <path d="M 43.41066 169.197778 
L 157.85875 202.343349 
" clip-path="url(#p433174125f)" style="fill: #ffffff"/>
    <path d="M 60.712105 203.328494 
C 34.965886 215.55574 56.502626 232.233732 61.898074 204.246905 
C 56.502626 232.233732 34.965886 215.55574 60.712105 203.328494 
" clip-path="url(#p433174125f)" style="fill: #ffffff"/>
    <path d="M 63.54125 203.177892 
L 109.259207 216.418373 
" clip-path="url(#p433174125f)" style="fill: #ffffff"/>
    <path d="M 63.600457 202.76062 
L 157.799543 202.76062 
" clip-path="url(#p433174125f)" style="fill: #ffffff"/>
    <path d="M 109.95 218.134683 
C 97.080285 243.56584 124.319715 243.56584 111.45 218.134683 
C 124.319715 243.56584 97.080285 243.56584 109.95 218.134683 
" clip-path="url(#p433174125f)" style="fill: #ffffff"/>
    <path d="M 112.140793 216.418373 
L 157.85875 203.177892 
" clip-path="url(#p433174125f)" style="fill: #ffffff"/>
    <path d="M 159.501926 204.246905 
C 164.897374 232.233732 186.434114 215.55574 160.687895 203.328494 
C 186.434114 215.55574 164.897374 232.233732 159.501926 204.246905 
" clip-path="url(#p433174125f)" style="fill: #ffffff"/>
   </g>
   <g id="VertexCollection_1">
    <path d="M 179.430134 170.280507 
C 179.827938 170.280507 180.209503 170.122457 180.490794 169.841167 
C 180.772084 169.559877 180.930134 169.178311 180.930134 168.780507 
C 180.930134 168.382702 180.772084 168.001137 180.490794 167.719847 
C 180.209503 167.438556 179.827938 167.280507 179.430134 167.280507 
C 179.032329 167.280507 178.650764 167.438556 178.369473 167.719847 
C 178.088183 168.001137 177.930134 168.382702 177.930134 168.780507 
C 177.930134 169.178311 178.088183 169.559877 178.369473 169.841167 
C 178.650764 170.122457 179.032329 170.280507 179.430134 170.280507 
z
" clip-path="url(#p433174125f)" style="fill: #fdcab5; stroke: #fdcab5; stroke-width: 3"/>
    <path d="M 159.299543 142.300393 
C 161.288567 142.300393 163.196393 141.510146 164.602844 140.103694 
C 166.009296 138.697242 166.799543 136.789416 166.799543 134.800393 
C 166.799543 132.81137 166.009296 130.903544 164.602844 129.497092 
C 163.196393 128.09064 161.288567 127.300393 159.299543 127.300393 
C 157.31052 127.300393 155.402694 128.09064 153.996243 129.497092 
C 152.589791 130.903544 151.799543 132.81137 151.799543 134.800393 
C 151.799543 136.789416 152.589791 138.697242 153.996243 140.103694 
C 155.402694 141.510146 157.31052 142.300393 159.299543 142.300393 
z
" clip-path="url(#p433174125f)" style="fill: #6b010e; stroke: #6b010e; stroke-width: 3"/>
    <path d="M 110.7 128.225369 
C 112.689023 128.225369 114.596849 127.435122 116.003301 126.02867 
C 117.409753 124.622218 118.2 122.714393 118.2 120.725369 
C 118.2 118.736346 117.409753 116.82852 116.003301 115.422068 
C 114.596849 114.015617 112.689023 113.225369 110.7 113.225369 
C 108.710977 113.225369 106.803151 114.015617 105.396699 115.422068 
C 103.990247 116.82852 103.2 118.736346 103.2 120.725369 
C 103.2 122.714393 103.990247 124.622218 105.396699 126.02867 
C 106.803151 127.435122 108.710977 128.225369 110.7 128.225369 
z
" clip-path="url(#p433174125f)" style="fill: #6b010e; stroke: #6b010e; stroke-width: 3"/>
    <path d="M 62.100457 142.300393 
C 64.08948 142.300393 65.997306 141.510146 67.403757 140.103694 
C 68.810209 138.697242 69.600457 136.789416 69.600457 134.800393 
C 69.600457 132.81137 68.810209 130.903544 67.403757 129.497092 
C 65.997306 128.09064 64.08948 127.300393 62.100457 127.300393 
C 60.111433 127.300393 58.203607 128.09064 56.797156 129.497092 
C 55.390704 130.903544 54.600457 132.81137 54.600457 134.800393 
C 54.600457 136.789416 55.390704 138.697242 56.797156 140.103694 
C 58.203607 141.510146 60.111433 142.300393 62.100457 142.300393 
z
" clip-path="url(#p433174125f)" style="fill: #6b010e; stroke: #6b010e; stroke-width: 3"/>
    <path d="M 41.969866 170.280507 
C 42.367671 170.280507 42.749236 170.122457 43.030527 169.841167 
C 43.311817 169.559877 43.469866 169.178311 43.469866 168.780507 
C 43.469866 168.382702 43.311817 168.001137 43.030527 167.719847 
C 42.749236 167.438556 42.367671 167.280507 41.969866 167.280507 
C 41.572062 167.280507 41.190497 167.438556 40.909206 167.719847 
C 40.627916 168.001137 40.469866 168.382702 40.469866 168.780507 
C 40.469866 169.178311 40.627916 169.559877 40.909206 169.841167 
C 41.190497 170.122457 41.572062 170.280507 41.969866 170.280507 
z
" clip-path="url(#p433174125f)" style="fill: #fdcab5; stroke: #fdcab5; stroke-width: 3"/>
    <path d="M 62.100457 204.26062 
C 62.498261 204.26062 62.879826 204.102571 63.161117 203.821281 
C 63.442407 203.53999 63.600457 203.158425 63.600457 202.76062 
C 63.600457 202.362816 63.442407 201.981251 63.161117 201.69996 
C 62.879826 201.41867 62.498261 201.26062 62.100457 201.26062 
C 61.702652 201.26062 61.321087 201.41867 61.039796 201.69996 
C 60.758506 201.981251 60.600457 202.362816 60.600457 202.76062 
C 60.600457 203.158425 60.758506 203.53999 61.039796 203.821281 
C 61.321087 204.102571 61.702652 204.26062 62.100457 204.26062 
z
" clip-path="url(#p433174125f)" style="fill: #fdcab5; stroke: #fdcab5; stroke-width: 3"/>
    <path d="M 110.7 218.335644 
C 111.097805 218.335644 111.47937 218.177595 111.76066 217.896305 
C 112.041951 217.615014 112.2 217.233449 112.2 216.835644 
C 112.2 216.43784 112.041951 216.056275 111.76066 215.774984 
C 111.47937 215.493694 111.097805 215.335644 110.7 215.335644 
C 110.302195 215.335644 109.92063 215.493694 109.63934 215.774984 
C 109.358049 216.056275 109.2 216.43784 109.2 216.835644 
C 109.2 217.233449 109.358049 217.615014 109.63934 217.896305 
C 109.92063 218.177595 110.302195 218.335644 110.7 218.335644 
z
" clip-path="url(#p433174125f)" style="fill: #fdcab5; stroke: #fdcab5; stroke-width: 3"/>
    <path d="M 159.299543 204.26062 
C 159.697348 204.26062 160.078913 204.102571 160.360204 203.821281 
C 160.641494 203.53999 160.799543 203.158425 160.799543 202.76062 
C 160.799543 202.362816 160.641494 201.981251 160.360204 201.69996 
C 160.078913 201.41867 159.697348 201.26062 159.299543 201.26062 
C 158.901739 201.26062 158.520174 201.41867 158.238883 201.69996 
C 157.957593 201.981251 157.799543 202.362816 157.799543 202.76062 
C 157.799543 203.158425 157.957593 203.53999 158.238883 203.821281 
C 158.520174 204.102571 158.901739 204.26062 159.299543 204.26062 
z
" clip-path="url(#p433174125f)" style="fill: #fdcab5; stroke: #fdcab5; stroke-width: 3"/>
   </g>
   <g id="matplotlib.axis_1"/>
   <g id="matplotlib.axis_2"/>
  </g>
  <g id="axes_2">
   <g id="patch_3">
    <path d="M 27 371.158759 
L 194.4 371.158759 
L 194.4 251.580414 
L 27 251.580414 
z
" style="fill: #ffffff"/>
   </g>
   <g id="EdgeCollection_2">
    <path d="M 180.729172 312.119586 
C 206.160329 324.989301 206.160329 297.749871 180.729172 310.619586 
C 206.160329 297.749871 206.160329 324.989301 180.729172 312.119586 
" clip-path="url(#pc72c0ff401)" style="fill: #ffffff"/>
    <path d="M 178.655302 310.085205 
L 163.173702 284.422495 
" clip-path="url(#pc72c0ff401)" style="fill: #ffffff"/>
    <path d="M 178.193558 310.520539 
L 116.882878 268.423931 
" clip-path="url(#pc72c0ff401)" style="fill: #ffffff"/>
    <path d="M 177.987349 310.959253 
L 69.314378 280.052254 
" clip-path="url(#pc72c0ff401)" style="fill: #ffffff"/>
    <path d="M 177.930134 311.369586 
L 43.469866 311.369586 
" clip-path="url(#pc72c0ff401)" style="fill: #ffffff"/>
    <path d="M 177.987349 311.779919 
L 63.543241 344.328251 
" clip-path="url(#pc72c0ff401)" style="fill: #ffffff"/>
    <path d="M 178.193558 312.218633 
L 116.882878 354.315242 
" clip-path="url(#pc72c0ff401)" style="fill: #ffffff"/>
    <path d="M 178.655302 312.653968 
L 160.074375 343.454203 
" clip-path="url(#pc72c0ff401)" style="fill: #ffffff"/>
    <path d="M 166.222979 275.116834 
C 186.351638 265.032004 164.708561 248.492241 160.263858 270.56284 
C 164.708561 248.492241 186.351638 265.032004 166.222979 275.116834 
" clip-path="url(#pc72c0ff401)" style="fill: #ffffff"/>
    <path d="M 152.085622 275.948922 
L 117.913922 266.230362 
" clip-path="url(#pc72c0ff401)" style="stroke: #000000; stroke-width: 0.98008"/>
    <path d="M 151.799543 278.000588 
L 69.600457 278.000588 
" clip-path="url(#pc72c0ff401)" style="stroke: #000000; stroke-width: 1.262948"/>
    <path d="M 152.085622 280.052254 
L 43.412651 310.959253 
" clip-path="url(#pc72c0ff401)" style="fill: #ffffff"/>
    <path d="M 153.116665 282.245822 
L 63.337032 343.889538 
" clip-path="url(#pc72c0ff401)" style="fill: #ffffff"/>
    <path d="M 155.425385 284.422495 
L 114.574158 352.138569 
" clip-path="url(#pc72c0ff401)" style="stroke: #000000; stroke-width: 0.482072"/>
    <path d="M 159.299543 285.500588 
L 159.299543 343.238585 
" clip-path="url(#pc72c0ff401)" style="fill: #ffffff"/>
    <path d="M 114.45 257.683506 
C 124.319715 237.4485 97.080285 237.4485 106.95 257.683506 
C 97.080285 237.4485 124.319715 237.4485 114.45 257.683506 
" clip-path="url(#pc72c0ff401)" style="fill: #ffffff"/>
    <path d="M 103.486078 266.230362 
L 69.314378 275.948922 
" clip-path="url(#pc72c0ff401)" style="stroke: #000000; stroke-width: 2"/>
    <path d="M 104.517122 268.423931 
L 43.206442 310.520539 
" clip-path="url(#pc72c0ff401)" style="fill: #ffffff"/>
    <path d="M 106.825842 270.600604 
L 62.875288 343.454203 
" clip-path="url(#pc72c0ff401)" style="fill: #ffffff"/>
    <path d="M 110.7 271.678696 
L 110.7 351.060476 
" clip-path="url(#pc72c0ff401)" style="stroke: #000000; stroke-width: 0.677291"/>
    <path d="M 114.574158 270.600604 
L 158.524712 343.454203 
" clip-path="url(#pc72c0ff401)" style="fill: #ffffff"/>
    <path d="M 61.136142 270.56284 
C 56.691439 248.492241 35.048362 265.032004 55.177021 275.116834 
C 35.048362 265.032004 56.691439 248.492241 61.136142 270.56284 
" clip-path="url(#pc72c0ff401)" style="fill: #ffffff"/>
    <path d="M 58.226298 284.422495 
L 42.744698 310.085205 
" clip-path="url(#pc72c0ff401)" style="fill: #ffffff"/>
    <path d="M 62.100457 285.500588 
L 62.100457 343.238585 
" clip-path="url(#pc72c0ff401)" style="fill: #ffffff"/>
    <path d="M 65.974615 284.422495 
L 106.825842 352.138569 
" clip-path="url(#pc72c0ff401)" style="stroke: #000000; stroke-width: 1.007968"/>
    <path d="M 68.283335 282.245822 
L 158.062968 343.889538 
" clip-path="url(#pc72c0ff401)" style="fill: #ffffff"/>
    <path d="M 40.670828 310.619586 
C 15.239671 297.749871 15.239671 324.989301 40.670828 312.119586 
C 15.239671 324.989301 15.239671 297.749871 40.670828 310.619586 
" clip-path="url(#pc72c0ff401)" style="fill: #ffffff"/>
    <path d="M 42.744698 312.653968 
L 61.325625 343.454203 
" clip-path="url(#pc72c0ff401)" style="fill: #ffffff"/>
    <path d="M 43.206442 312.218633 
L 104.517122 354.315242 
" clip-path="url(#pc72c0ff401)" style="fill: #ffffff"/>
    <path d="M 43.412651 311.779919 
L 157.856759 344.328251 
" clip-path="url(#pc72c0ff401)" style="fill: #ffffff"/>
    <path d="M 60.715769 345.315335 
C 35.048362 357.707169 56.691439 374.246931 61.907594 346.226134 
C 56.691439 374.246931 35.048362 357.707169 60.715769 345.315335 
" clip-path="url(#pc72c0ff401)" style="fill: #ffffff"/>
    <path d="M 63.543241 345.148918 
L 103.486078 356.50881 
" clip-path="url(#pc72c0ff401)" style="fill: #ffffff"/>
    <path d="M 63.600457 344.738585 
L 157.799543 344.738585 
" clip-path="url(#pc72c0ff401)" style="fill: #ffffff"/>
    <path d="M 106.95 365.055667 
C 97.080285 385.290672 124.319715 385.290672 114.45 365.055667 
C 124.319715 385.290672 97.080285 385.290672 106.95 365.055667 
" clip-path="url(#pc72c0ff401)" style="fill: #ffffff"/>
    <path d="M 117.913922 356.50881 
L 157.856759 345.148918 
" clip-path="url(#pc72c0ff401)" style="fill: #ffffff"/>
    <path d="M 159.492406 346.226134 
C 164.708561 374.246931 186.351638 357.707169 160.684231 345.315335 
C 186.351638 357.707169 164.708561 374.246931 159.492406 346.226134 
" clip-path="url(#pc72c0ff401)" style="fill: #ffffff"/>
   </g>
   <g id="VertexCollection_2">
    <path d="M 179.430134 312.869586 
C 179.827938 312.869586 180.209503 312.711537 180.490794 312.430246 
C 180.772084 312.148956 180.930134 311.767391 180.930134 311.369586 
C 180.930134 310.971782 180.772084 310.590216 180.490794 310.308926 
C 180.209503 310.027636 179.827938 309.869586 179.430134 309.869586 
C 179.032329 309.869586 178.650764 310.027636 178.369473 310.308926 
C 178.088183 310.590216 177.930134 310.971782 177.930134 311.369586 
C 177.930134 311.767391 178.088183 312.148956 178.369473 312.430246 
C 178.650764 312.711537 179.032329 312.869586 179.430134 312.869586 
z
" clip-path="url(#pc72c0ff401)" style="fill: #fdcab5; stroke: #fdcab5; stroke-width: 3"/>
    <path d="M 159.299543 285.500588 
C 161.288567 285.500588 163.196393 284.71034 164.602844 283.303889 
C 166.009296 281.897437 166.799543 279.989611 166.799543 278.000588 
C 166.799543 276.011565 166.009296 274.103739 164.602844 272.697287 
C 163.196393 271.290835 161.288567 270.500588 159.299543 270.500588 
C 157.31052 270.500588 155.402694 271.290835 153.996243 272.697287 
C 152.589791 274.103739 151.799543 276.011565 151.799543 278.000588 
C 151.799543 279.989611 152.589791 281.897437 153.996243 283.303889 
C 155.402694 284.71034 157.31052 285.500588 159.299543 285.500588 
z
" clip-path="url(#pc72c0ff401)" style="fill: #6b010e; stroke: #6b010e; stroke-width: 3"/>
    <path d="M 110.7 271.678696 
C 112.689023 271.678696 114.596849 270.888449 116.003301 269.481997 
C 117.409753 268.075545 118.2 266.167719 118.2 264.178696 
C 118.2 262.189673 117.409753 260.281847 116.003301 258.875395 
C 114.596849 257.468943 112.689023 256.678696 110.7 256.678696 
C 108.710977 256.678696 106.803151 257.468943 105.396699 258.875395 
C 103.990247 260.281847 103.2 262.189673 103.2 264.178696 
C 103.2 266.167719 103.990247 268.075545 105.396699 269.481997 
C 106.803151 270.888449 108.710977 271.678696 110.7 271.678696 
z
" clip-path="url(#pc72c0ff401)" style="fill: #6b010e; stroke: #6b010e; stroke-width: 3"/>
    <path d="M 62.100457 285.500588 
C 64.08948 285.500588 65.997306 284.71034 67.403757 283.303889 
C 68.810209 281.897437 69.600457 279.989611 69.600457 278.000588 
C 69.600457 276.011565 68.810209 274.103739 67.403757 272.697287 
C 65.997306 271.290835 64.08948 270.500588 62.100457 270.500588 
C 60.111433 270.500588 58.203607 271.290835 56.797156 272.697287 
C 55.390704 274.103739 54.600457 276.011565 54.600457 278.000588 
C 54.600457 279.989611 55.390704 281.897437 56.797156 283.303889 
C 58.203607 284.71034 60.111433 285.500588 62.100457 285.500588 
z
" clip-path="url(#pc72c0ff401)" style="fill: #6b010e; stroke: #6b010e; stroke-width: 3"/>
    <path d="M 41.969866 312.869586 
C 42.367671 312.869586 42.749236 312.711537 43.030527 312.430246 
C 43.311817 312.148956 43.469866 311.767391 43.469866 311.369586 
C 43.469866 310.971782 43.311817 310.590216 43.030527 310.308926 
C 42.749236 310.027636 42.367671 309.869586 41.969866 309.869586 
C 41.572062 309.869586 41.190497 310.027636 40.909206 310.308926 
C 40.627916 310.590216 40.469866 310.971782 40.469866 311.369586 
C 40.469866 311.767391 40.627916 312.148956 40.909206 312.430246 
C 41.190497 312.711537 41.572062 312.869586 41.969866 312.869586 
z
" clip-path="url(#pc72c0ff401)" style="fill: #fdcab5; stroke: #fdcab5; stroke-width: 3"/>
    <path d="M 62.100457 346.238585 
C 62.498261 346.238585 62.879826 346.080535 63.161117 345.799245 
C 63.442407 345.517954 63.600457 345.136389 63.600457 344.738585 
C 63.600457 344.34078 63.442407 343.959215 63.161117 343.677924 
C 62.879826 343.396634 62.498261 343.238585 62.100457 343.238585 
C 61.702652 343.238585 61.321087 343.396634 61.039796 343.677924 
C 60.758506 343.959215 60.600457 344.34078 60.600457 344.738585 
C 60.600457 345.136389 60.758506 345.517954 61.039796 345.799245 
C 61.321087 346.080535 61.702652 346.238585 62.100457 346.238585 
z
" clip-path="url(#pc72c0ff401)" style="fill: #fdcab5; stroke: #fdcab5; stroke-width: 3"/>
    <path d="M 110.7 366.060476 
C 112.689023 366.060476 114.596849 365.270229 116.003301 363.863777 
C 117.409753 362.457325 118.2 360.5495 118.2 358.560476 
C 118.2 356.571453 117.409753 354.663627 116.003301 353.257175 
C 114.596849 351.850724 112.689023 351.060476 110.7 351.060476 
C 108.710977 351.060476 106.803151 351.850724 105.396699 353.257175 
C 103.990247 354.663627 103.2 356.571453 103.2 358.560476 
C 103.2 360.5495 103.990247 362.457325 105.396699 363.863777 
C 106.803151 365.270229 108.710977 366.060476 110.7 366.060476 
z
" clip-path="url(#pc72c0ff401)" style="fill: #6b010e; stroke: #6b010e; stroke-width: 3"/>
    <path d="M 159.299543 346.238585 
C 159.697348 346.238585 160.078913 346.080535 160.360204 345.799245 
C 160.641494 345.517954 160.799543 345.136389 160.799543 344.738585 
C 160.799543 344.34078 160.641494 343.959215 160.360204 343.677924 
C 160.078913 343.396634 159.697348 343.238585 159.299543 343.238585 
C 158.901739 343.238585 158.520174 343.396634 158.238883 343.677924 
C 157.957593 343.959215 157.799543 344.34078 157.799543 344.738585 
C 157.799543 345.136389 157.957593 345.517954 158.238883 345.799245 
C 158.520174 346.080535 158.901739 346.238585 159.299543 346.238585 
z
" clip-path="url(#pc72c0ff401)" style="fill: #fdcab5; stroke: #fdcab5; stroke-width: 3"/>
   </g>
   <g id="matplotlib.axis_3"/>
   <g id="matplotlib.axis_4"/>
  </g>
  <g id="axes_3">
   <g id="patch_4">
    <path d="M 27 514.652772 
L 194.4 514.652772 
L 194.4 395.074428 
L 27 395.074428 
z
" style="fill: #ffffff"/>
   </g>
   <g id="EdgeCollection_3">
    <path d="M 180.729172 455.6136 
C 206.160329 468.483315 206.160329 441.243885 180.729172 454.1136 
C 206.160329 441.243885 206.160329 468.483315 180.729172 455.6136 
" clip-path="url(#pfac815aa55)" style="fill: #ffffff"/>
    <path d="M 178.655302 453.579218 
L 160.074375 422.778983 
" clip-path="url(#pfac815aa55)" style="fill: #ffffff"/>
    <path d="M 178.193558 454.014553 
L 116.882878 411.917944 
" clip-path="url(#pfac815aa55)" style="fill: #ffffff"/>
    <path d="M 177.987349 454.453267 
L 69.314378 423.546268 
" clip-path="url(#pfac815aa55)" style="fill: #ffffff"/>
    <path d="M 177.930134 454.8636 
L 43.469866 454.8636 
" clip-path="url(#pfac815aa55)" style="fill: #ffffff"/>
    <path d="M 177.987349 455.273933 
L 63.543241 487.822265 
" clip-path="url(#pfac815aa55)" style="fill: #ffffff"/>
    <path d="M 178.193558 455.712647 
L 116.882878 497.809256 
" clip-path="url(#pfac815aa55)" style="fill: #ffffff"/>
    <path d="M 178.655302 456.147982 
L 160.074375 486.948217 
" clip-path="url(#pfac815aa55)" style="fill: #ffffff"/>
    <path d="M 160.684231 420.917851 
C 186.351638 408.526017 164.708561 391.986255 159.492406 420.007052 
C 164.708561 391.986255 186.351638 408.526017 160.684231 420.917851 
" clip-path="url(#pfac815aa55)" style="fill: #ffffff"/>
    <path d="M 157.856759 421.084268 
L 117.913922 409.724376 
" clip-path="url(#pfac815aa55)" style="stroke: #000000; stroke-width: 1.226496"/>
    <path d="M 157.799543 421.494602 
L 69.600457 421.494602 
" clip-path="url(#pfac815aa55)" style="stroke: #000000; stroke-width: 1.34188"/>
    <path d="M 157.856759 421.904935 
L 43.412651 454.453267 
" clip-path="url(#pfac815aa55)" style="fill: #ffffff"/>
    <path d="M 158.062968 422.343648 
L 63.337032 487.383552 
" clip-path="url(#pfac815aa55)" style="fill: #ffffff"/>
    <path d="M 158.524712 422.778983 
L 114.574158 495.632583 
" clip-path="url(#pfac815aa55)" style="fill: #ffffff"/>
    <path d="M 159.299543 422.994602 
L 159.299543 486.732598 
" clip-path="url(#pfac815aa55)" style="fill: #ffffff"/>
    <path d="M 114.45 401.177519 
C 124.319715 380.942514 97.080285 380.942514 106.95 401.177519 
C 97.080285 380.942514 124.319715 380.942514 114.45 401.177519 
" clip-path="url(#pfac815aa55)" style="fill: #ffffff"/>
    <path d="M 103.486078 409.724376 
L 69.314378 419.442935 
" clip-path="url(#pfac815aa55)" style="stroke: #000000; stroke-width: 2"/>
    <path d="M 104.517122 411.917944 
L 43.206442 454.014553 
" clip-path="url(#pfac815aa55)" style="fill: #ffffff"/>
    <path d="M 106.825842 414.094617 
L 62.875288 486.948217 
" clip-path="url(#pfac815aa55)" style="fill: #ffffff"/>
    <path d="M 110.7 415.17271 
L 110.7 494.55449 
" clip-path="url(#pfac815aa55)" style="stroke: #000000; stroke-width: 1.273504"/>
    <path d="M 114.574158 414.094617 
L 158.524712 486.948217 
" clip-path="url(#pfac815aa55)" style="fill: #ffffff"/>
    <path d="M 61.136142 414.056853 
C 56.691439 391.986255 35.048362 408.526017 55.177021 418.610848 
C 35.048362 408.526017 56.691439 391.986255 61.136142 414.056853 
" clip-path="url(#pfac815aa55)" style="fill: #ffffff"/>
    <path d="M 58.226298 427.916509 
L 42.744698 453.579218 
" clip-path="url(#pfac815aa55)" style="fill: #ffffff"/>
    <path d="M 62.100457 428.994602 
L 62.100457 486.732598 
" clip-path="url(#pfac815aa55)" style="fill: #ffffff"/>
    <path d="M 65.974615 427.916509 
L 106.825842 495.632583 
" clip-path="url(#pfac815aa55)" style="stroke: #000000; stroke-width: 1.188034"/>
    <path d="M 68.283335 425.739836 
L 158.062968 487.383552 
" clip-path="url(#pfac815aa55)" style="fill: #ffffff"/>
    <path d="M 40.670828 454.1136 
C 15.239671 441.243885 15.239671 468.483315 40.670828 455.6136 
C 15.239671 468.483315 15.239671 441.243885 40.670828 454.1136 
" clip-path="url(#pfac815aa55)" style="fill: #ffffff"/>
    <path d="M 42.744698 456.147982 
L 61.325625 486.948217 
" clip-path="url(#pfac815aa55)" style="fill: #ffffff"/>
    <path d="M 43.206442 455.712647 
L 104.517122 497.809256 
" clip-path="url(#pfac815aa55)" style="fill: #ffffff"/>
    <path d="M 43.412651 455.273933 
L 157.856759 487.822265 
" clip-path="url(#pfac815aa55)" style="fill: #ffffff"/>
    <path d="M 60.715769 488.809349 
C 35.048362 501.201183 56.691439 517.740945 61.907594 489.720148 
C 56.691439 517.740945 35.048362 501.201183 60.715769 488.809349 
" clip-path="url(#pfac815aa55)" style="fill: #ffffff"/>
    <path d="M 63.543241 488.642932 
L 103.486078 500.002824 
" clip-path="url(#pfac815aa55)" style="stroke: #000000; stroke-width: 0.905983"/>
    <path d="M 63.600457 488.232598 
L 157.799543 488.232598 
" clip-path="url(#pfac815aa55)" style="fill: #ffffff"/>
    <path d="M 106.95 508.549681 
C 97.080285 528.784686 124.319715 528.784686 114.45 508.549681 
C 124.319715 528.784686 97.080285 528.784686 106.95 508.549681 
" clip-path="url(#pfac815aa55)" style="fill: #ffffff"/>
    <path d="M 117.913922 500.002824 
L 157.856759 488.642932 
" clip-path="url(#pfac815aa55)" style="fill: #ffffff"/>
    <path d="M 159.492406 489.720148 
C 164.708561 517.740945 186.351638 501.201183 160.684231 488.809349 
C 186.351638 501.201183 164.708561 517.740945 159.492406 489.720148 
" clip-path="url(#pfac815aa55)" style="fill: #ffffff"/>
   </g>
   <g id="VertexCollection_3">
    <path d="M 179.430134 456.3636 
C 179.827938 456.3636 180.209503 456.205551 180.490794 455.92426 
C 180.772084 455.64297 180.930134 455.261405 180.930134 454.8636 
C 180.930134 454.465795 180.772084 454.08423 180.490794 453.80294 
C 180.209503 453.521649 179.827938 453.3636 179.430134 453.3636 
C 179.032329 453.3636 178.650764 453.521649 178.369473 453.80294 
C 178.088183 454.08423 177.930134 454.465795 177.930134 454.8636 
C 177.930134 455.261405 178.088183 455.64297 178.369473 455.92426 
C 178.650764 456.205551 179.032329 456.3636 179.430134 456.3636 
z
" clip-path="url(#pfac815aa55)" style="fill: #fdcab5; stroke: #fdcab5; stroke-width: 3"/>
    <path d="M 159.299543 422.994602 
C 159.697348 422.994602 160.078913 422.836552 160.360204 422.555262 
C 160.641494 422.273971 160.799543 421.892406 160.799543 421.494602 
C 160.799543 421.096797 160.641494 420.715232 160.360204 420.433941 
C 160.078913 420.152651 159.697348 419.994602 159.299543 419.994602 
C 158.901739 419.994602 158.520174 420.152651 158.238883 420.433941 
C 157.957593 420.715232 157.799543 421.096797 157.799543 421.494602 
C 157.799543 421.892406 157.957593 422.273971 158.238883 422.555262 
C 158.520174 422.836552 158.901739 422.994602 159.299543 422.994602 
z
" clip-path="url(#pfac815aa55)" style="fill: #fdcab5; stroke: #fdcab5; stroke-width: 3"/>
    <path d="M 110.7 415.17271 
C 112.689023 415.17271 114.596849 414.382463 116.003301 412.976011 
C 117.409753 411.569559 118.2 409.661733 118.2 407.67271 
C 118.2 405.683687 117.409753 403.775861 116.003301 402.369409 
C 114.596849 400.962957 112.689023 400.17271 110.7 400.17271 
C 108.710977 400.17271 106.803151 400.962957 105.396699 402.369409 
C 103.990247 403.775861 103.2 405.683687 103.2 407.67271 
C 103.2 409.661733 103.990247 411.569559 105.396699 412.976011 
C 106.803151 414.382463 108.710977 415.17271 110.7 415.17271 
z
" clip-path="url(#pfac815aa55)" style="fill: #6b010e; stroke: #6b010e; stroke-width: 3"/>
    <path d="M 62.100457 428.994602 
C 64.08948 428.994602 65.997306 428.204354 67.403757 426.797902 
C 68.810209 425.391451 69.600457 423.483625 69.600457 421.494602 
C 69.600457 419.505578 68.810209 417.597753 67.403757 416.191301 
C 65.997306 414.784849 64.08948 413.994602 62.100457 413.994602 
C 60.111433 413.994602 58.203607 414.784849 56.797156 416.191301 
C 55.390704 417.597753 54.600457 419.505578 54.600457 421.494602 
C 54.600457 423.483625 55.390704 425.391451 56.797156 426.797902 
C 58.203607 428.204354 60.111433 428.994602 62.100457 428.994602 
z
" clip-path="url(#pfac815aa55)" style="fill: #6b010e; stroke: #6b010e; stroke-width: 3"/>
    <path d="M 41.969866 456.3636 
C 42.367671 456.3636 42.749236 456.205551 43.030527 455.92426 
C 43.311817 455.64297 43.469866 455.261405 43.469866 454.8636 
C 43.469866 454.465795 43.311817 454.08423 43.030527 453.80294 
C 42.749236 453.521649 42.367671 453.3636 41.969866 453.3636 
C 41.572062 453.3636 41.190497 453.521649 40.909206 453.80294 
C 40.627916 454.08423 40.469866 454.465795 40.469866 454.8636 
C 40.469866 455.261405 40.627916 455.64297 40.909206 455.92426 
C 41.190497 456.205551 41.572062 456.3636 41.969866 456.3636 
z
" clip-path="url(#pfac815aa55)" style="fill: #fdcab5; stroke: #fdcab5; stroke-width: 3"/>
    <path d="M 62.100457 489.732598 
C 62.498261 489.732598 62.879826 489.574549 63.161117 489.293259 
C 63.442407 489.011968 63.600457 488.630403 63.600457 488.232598 
C 63.600457 487.834794 63.442407 487.453229 63.161117 487.171938 
C 62.879826 486.890648 62.498261 486.732598 62.100457 486.732598 
C 61.702652 486.732598 61.321087 486.890648 61.039796 487.171938 
C 60.758506 487.453229 60.600457 487.834794 60.600457 488.232598 
C 60.600457 488.630403 60.758506 489.011968 61.039796 489.293259 
C 61.321087 489.574549 61.702652 489.732598 62.100457 489.732598 
z
" clip-path="url(#pfac815aa55)" style="fill: #fdcab5; stroke: #fdcab5; stroke-width: 3"/>
    <path d="M 110.7 509.55449 
C 112.689023 509.55449 114.596849 508.764243 116.003301 507.357791 
C 117.409753 505.951339 118.2 504.043513 118.2 502.05449 
C 118.2 500.065467 117.409753 498.157641 116.003301 496.751189 
C 114.596849 495.344737 112.689023 494.55449 110.7 494.55449 
C 108.710977 494.55449 106.803151 495.344737 105.396699 496.751189 
C 103.990247 498.157641 103.2 500.065467 103.2 502.05449 
C 103.2 504.043513 103.990247 505.951339 105.396699 507.357791 
C 106.803151 508.764243 108.710977 509.55449 110.7 509.55449 
z
" clip-path="url(#pfac815aa55)" style="fill: #6b010e; stroke: #6b010e; stroke-width: 3"/>
    <path d="M 159.299543 489.732598 
C 159.697348 489.732598 160.078913 489.574549 160.360204 489.293259 
C 160.641494 489.011968 160.799543 488.630403 160.799543 488.232598 
C 160.799543 487.834794 160.641494 487.453229 160.360204 487.171938 
C 160.078913 486.890648 159.697348 486.732598 159.299543 486.732598 
C 158.901739 486.732598 158.520174 486.890648 158.238883 487.171938 
C 157.957593 487.453229 157.799543 487.834794 157.799543 488.232598 
C 157.799543 488.630403 157.957593 489.011968 158.238883 489.293259 
C 158.520174 489.574549 158.901739 489.732598 159.299543 489.732598 
z
" clip-path="url(#pfac815aa55)" style="fill: #fdcab5; stroke: #fdcab5; stroke-width: 3"/>
   </g>
   <g id="matplotlib.axis_5"/>
   <g id="matplotlib.axis_6"/>
  </g>
  <g id="axes_4">
   <g id="patch_5">
    <path d="M 27 658.146786 
L 194.4 658.146786 
L 194.4 538.568441 
L 27 538.568441 
z
" style="fill: #ffffff"/>
   </g>
   <g id="EdgeCollection_4">
    <path d="M 180.729172 599.107614 
C 206.160329 611.977329 206.160329 584.737899 180.729172 597.607614 
C 206.160329 584.737899 206.160329 611.977329 180.729172 599.107614 
" clip-path="url(#p1f357def98)" style="fill: #ffffff"/>
    <path d="M 178.655302 597.073232 
L 160.074375 566.272997 
" clip-path="url(#p1f357def98)" style="fill: #ffffff"/>
    <path d="M 178.193558 597.508567 
L 116.882878 555.411958 
" clip-path="url(#p1f357def98)" style="fill: #ffffff"/>
    <path d="M 177.987349 597.947281 
L 69.314378 567.040282 
" clip-path="url(#p1f357def98)" style="fill: #ffffff"/>
    <path d="M 177.930134 598.357614 
L 43.469866 598.357614 
" clip-path="url(#p1f357def98)" style="fill: #ffffff"/>
    <path d="M 177.987349 598.767947 
L 63.543241 631.316279 
" clip-path="url(#p1f357def98)" style="fill: #ffffff"/>
    <path d="M 178.193558 599.206661 
L 116.882878 641.303269 
" clip-path="url(#p1f357def98)" style="fill: #ffffff"/>
    <path d="M 178.655302 599.641995 
L 160.074375 630.442231 
" clip-path="url(#p1f357def98)" style="fill: #ffffff"/>
    <path d="M 160.684231 564.411865 
C 186.351638 552.020031 164.708561 535.480269 159.492406 563.501066 
C 164.708561 535.480269 186.351638 552.020031 160.684231 564.411865 
" clip-path="url(#p1f357def98)" style="fill: #ffffff"/>
    <path d="M 157.856759 564.578282 
L 117.913922 553.21839 
" clip-path="url(#p1f357def98)" style="stroke: #000000; stroke-width: 1.403243"/>
    <path d="M 157.799543 564.988615 
L 69.600457 564.988615 
" clip-path="url(#p1f357def98)" style="stroke: #000000; stroke-width: 1.532973"/>
    <path d="M 157.856759 565.398949 
L 43.412651 597.947281 
" clip-path="url(#p1f357def98)" style="fill: #ffffff"/>
    <path d="M 158.062968 565.837662 
L 63.337032 630.877565 
" clip-path="url(#p1f357def98)" style="fill: #ffffff"/>
    <path d="M 158.524712 566.272997 
L 114.574158 639.126596 
" clip-path="url(#p1f357def98)" style="fill: #ffffff"/>
    <path d="M 159.299543 566.488615 
L 159.299543 630.226612 
" clip-path="url(#p1f357def98)" style="fill: #ffffff"/>
    <path d="M 114.45 544.671533 
C 124.319715 524.436528 97.080285 524.436528 106.95 544.671533 
C 97.080285 524.436528 124.319715 524.436528 114.45 544.671533 
" clip-path="url(#p1f357def98)" style="fill: #ffffff"/>
    <path d="M 103.486078 553.21839 
L 69.314378 562.936949 
" clip-path="url(#p1f357def98)" style="stroke: #000000; stroke-width: 2"/>
    <path d="M 104.517122 555.411958 
L 43.206442 597.508567 
" clip-path="url(#p1f357def98)" style="fill: #ffffff"/>
    <path d="M 106.825842 557.588631 
L 62.875288 630.442231 
" clip-path="url(#p1f357def98)" style="fill: #ffffff"/>
    <path d="M 110.7 558.666724 
L 110.7 638.048504 
" clip-path="url(#p1f357def98)" style="stroke: #000000; stroke-width: 1.68"/>
    <path d="M 114.574158 557.588631 
L 158.524712 630.442231 
" clip-path="url(#p1f357def98)" style="fill: #ffffff"/>
    <path d="M 61.136142 557.550867 
C 56.691439 535.480269 35.048362 552.020031 55.177021 562.104862 
C 35.048362 552.020031 56.691439 535.480269 61.136142 557.550867 
" clip-path="url(#p1f357def98)" style="fill: #ffffff"/>
    <path d="M 58.226298 571.410523 
L 42.744698 597.073232 
" clip-path="url(#p1f357def98)" style="fill: #ffffff"/>
    <path d="M 62.100457 572.488615 
L 62.100457 630.226612 
" clip-path="url(#p1f357def98)" style="fill: #ffffff"/>
    <path d="M 65.974615 571.410523 
L 106.825842 639.126596 
" clip-path="url(#p1f357def98)" style="stroke: #000000; stroke-width: 1.418378"/>
    <path d="M 68.283335 569.23385 
L 158.062968 630.877565 
" clip-path="url(#p1f357def98)" style="fill: #ffffff"/>
    <path d="M 40.670828 597.607614 
C 15.239671 584.737899 15.239671 611.977329 40.670828 599.107614 
C 15.239671 611.977329 15.239671 584.737899 40.670828 597.607614 
" clip-path="url(#p1f357def98)" style="fill: #ffffff"/>
    <path d="M 42.744698 599.641995 
L 61.325625 630.442231 
" clip-path="url(#p1f357def98)" style="fill: #ffffff"/>
    <path d="M 43.206442 599.206661 
L 104.517122 641.303269 
" clip-path="url(#p1f357def98)" style="fill: #ffffff"/>
    <path d="M 43.412651 598.767947 
L 157.856759 631.316279 
" clip-path="url(#p1f357def98)" style="fill: #ffffff"/>
    <path d="M 60.715769 632.303363 
C 35.048362 644.695196 56.691439 661.234959 61.907594 633.214162 
C 56.691439 661.234959 35.048362 644.695196 60.715769 632.303363 
" clip-path="url(#p1f357def98)" style="fill: #ffffff"/>
    <path d="M 63.543241 632.136945 
L 103.486078 643.496838 
" clip-path="url(#p1f357def98)" style="stroke: #000000; stroke-width: 1.234595"/>
    <path d="M 63.600457 631.726612 
L 157.799543 631.726612 
" clip-path="url(#p1f357def98)" style="fill: #ffffff"/>
    <path d="M 106.95 652.043694 
C 97.080285 672.2787 124.319715 672.2787 114.45 652.043694 
C 124.319715 672.2787 97.080285 672.2787 106.95 652.043694 
" clip-path="url(#p1f357def98)" style="fill: #ffffff"/>
    <path d="M 117.913922 643.496838 
L 157.856759 632.136945 
" clip-path="url(#p1f357def98)" style="fill: #ffffff"/>
    <path d="M 159.492406 633.214162 
C 164.708561 661.234959 186.351638 644.695196 160.684231 632.303363 
C 186.351638 644.695196 164.708561 661.234959 159.492406 633.214162 
" clip-path="url(#p1f357def98)" style="fill: #ffffff"/>
   </g>
   <g id="VertexCollection_4">
    <path d="M 179.430134 599.857614 
C 179.827938 599.857614 180.209503 599.699564 180.490794 599.418274 
C 180.772084 599.136984 180.930134 598.755418 180.930134 598.357614 
C 180.930134 597.959809 180.772084 597.578244 180.490794 597.296954 
C 180.209503 597.015663 179.827938 596.857614 179.430134 596.857614 
C 179.032329 596.857614 178.650764 597.015663 178.369473 597.296954 
C 178.088183 597.578244 177.930134 597.959809 177.930134 598.357614 
C 177.930134 598.755418 178.088183 599.136984 178.369473 599.418274 
C 178.650764 599.699564 179.032329 599.857614 179.430134 599.857614 
z
" clip-path="url(#p1f357def98)" style="fill: #fdcab5; stroke: #fdcab5; stroke-width: 3"/>
    <path d="M 159.299543 566.488615 
C 159.697348 566.488615 160.078913 566.330566 160.360204 566.049276 
C 160.641494 565.767985 160.799543 565.38642 160.799543 564.988615 
C 160.799543 564.590811 160.641494 564.209246 160.360204 563.927955 
C 160.078913 563.646665 159.697348 563.488615 159.299543 563.488615 
C 158.901739 563.488615 158.520174 563.646665 158.238883 563.927955 
C 157.957593 564.209246 157.799543 564.590811 157.799543 564.988615 
C 157.799543 565.38642 157.957593 565.767985 158.238883 566.049276 
C 158.520174 566.330566 158.901739 566.488615 159.299543 566.488615 
z
" clip-path="url(#p1f357def98)" style="fill: #fdcab5; stroke: #fdcab5; stroke-width: 3"/>
    <path d="M 110.7 558.666724 
C 112.689023 558.666724 114.596849 557.876476 116.003301 556.470025 
C 117.409753 555.063573 118.2 553.155747 118.2 551.166724 
C 118.2 549.1777 117.409753 547.269875 116.003301 545.863423 
C 114.596849 544.456971 112.689023 543.666724 110.7 543.666724 
C 108.710977 543.666724 106.803151 544.456971 105.396699 545.863423 
C 103.990247 547.269875 103.2 549.1777 103.2 551.166724 
C 103.2 553.155747 103.990247 555.063573 105.396699 556.470025 
C 106.803151 557.876476 108.710977 558.666724 110.7 558.666724 
z
" clip-path="url(#p1f357def98)" style="fill: #6b010e; stroke: #6b010e; stroke-width: 3"/>
    <path d="M 62.100457 572.488615 
C 64.08948 572.488615 65.997306 571.698368 67.403757 570.291916 
C 68.810209 568.885464 69.600457 566.977639 69.600457 564.988615 
C 69.600457 562.999592 68.810209 561.091766 67.403757 559.685315 
C 65.997306 558.278863 64.08948 557.488615 62.100457 557.488615 
C 60.111433 557.488615 58.203607 558.278863 56.797156 559.685315 
C 55.390704 561.091766 54.600457 562.999592 54.600457 564.988615 
C 54.600457 566.977639 55.390704 568.885464 56.797156 570.291916 
C 58.203607 571.698368 60.111433 572.488615 62.100457 572.488615 
z
" clip-path="url(#p1f357def98)" style="fill: #6b010e; stroke: #6b010e; stroke-width: 3"/>
    <path d="M 41.969866 599.857614 
C 42.367671 599.857614 42.749236 599.699564 43.030527 599.418274 
C 43.311817 599.136984 43.469866 598.755418 43.469866 598.357614 
C 43.469866 597.959809 43.311817 597.578244 43.030527 597.296954 
C 42.749236 597.015663 42.367671 596.857614 41.969866 596.857614 
C 41.572062 596.857614 41.190497 597.015663 40.909206 597.296954 
C 40.627916 597.578244 40.469866 597.959809 40.469866 598.357614 
C 40.469866 598.755418 40.627916 599.136984 40.909206 599.418274 
C 41.190497 599.699564 41.572062 599.857614 41.969866 599.857614 
z
" clip-path="url(#p1f357def98)" style="fill: #fdcab5; stroke: #fdcab5; stroke-width: 3"/>
    <path d="M 62.100457 633.226612 
C 62.498261 633.226612 62.879826 633.068563 63.161117 632.787272 
C 63.442407 632.505982 63.600457 632.124417 63.600457 631.726612 
C 63.600457 631.328808 63.442407 630.947242 63.161117 630.665952 
C 62.879826 630.384662 62.498261 630.226612 62.100457 630.226612 
C 61.702652 630.226612 61.321087 630.384662 61.039796 630.665952 
C 60.758506 630.947242 60.600457 631.328808 60.600457 631.726612 
C 60.600457 632.124417 60.758506 632.505982 61.039796 632.787272 
C 61.321087 633.068563 61.702652 633.226612 62.100457 633.226612 
z
" clip-path="url(#p1f357def98)" style="fill: #fdcab5; stroke: #fdcab5; stroke-width: 3"/>
    <path d="M 110.7 653.048504 
C 112.689023 653.048504 114.596849 652.258257 116.003301 650.851805 
C 117.409753 649.445353 118.2 647.537527 118.2 645.548504 
C 118.2 643.559481 117.409753 641.651655 116.003301 640.245203 
C 114.596849 638.838751 112.689023 638.048504 110.7 638.048504 
C 108.710977 638.048504 106.803151 638.838751 105.396699 640.245203 
C 103.990247 641.651655 103.2 643.559481 103.2 645.548504 
C 103.2 647.537527 103.990247 649.445353 105.396699 650.851805 
C 106.803151 652.258257 108.710977 653.048504 110.7 653.048504 
z
" clip-path="url(#p1f357def98)" style="fill: #6b010e; stroke: #6b010e; stroke-width: 3"/>
    <path d="M 159.299543 633.226612 
C 159.697348 633.226612 160.078913 633.068563 160.360204 632.787272 
C 160.641494 632.505982 160.799543 632.124417 160.799543 631.726612 
C 160.799543 631.328808 160.641494 630.947242 160.360204 630.665952 
C 160.078913 630.384662 159.697348 630.226612 159.299543 630.226612 
C 158.901739 630.226612 158.520174 630.384662 158.238883 630.665952 
C 157.957593 630.947242 157.799543 631.328808 157.799543 631.726612 
C 157.799543 632.124417 157.957593 632.505982 158.238883 632.787272 
C 158.520174 633.068563 158.901739 633.226612 159.299543 633.226612 
z
" clip-path="url(#p1f357def98)" style="fill: #fdcab5; stroke: #fdcab5; stroke-width: 3"/>
   </g>
   <g id="matplotlib.axis_7"/>
   <g id="matplotlib.axis_8"/>
  </g>
  <g id="axes_5">
   <g id="patch_6">
    <path d="M 27 801.6408 
L 194.4 801.6408 
L 194.4 682.062455 
L 27 682.062455 
z
" style="fill: #ffffff"/>
   </g>
   <g id="EdgeCollection_5">
    <path d="M 180.729172 742.601628 
C 206.160329 755.471343 206.160329 728.231913 180.729172 741.101628 
C 206.160329 728.231913 206.160329 755.471343 180.729172 742.601628 
" clip-path="url(#p9db9ad109e)" style="fill: #ffffff"/>
    <path d="M 178.655302 740.567246 
L 160.074375 709.767011 
" clip-path="url(#p9db9ad109e)" style="fill: #ffffff"/>
    <path d="M 178.193558 741.002581 
L 116.882878 698.905972 
" clip-path="url(#p9db9ad109e)" style="fill: #ffffff"/>
    <path d="M 177.987349 741.441294 
L 69.314378 710.534295 
" clip-path="url(#p9db9ad109e)" style="fill: #ffffff"/>
    <path d="M 177.930134 741.851628 
L 43.469866 741.851628 
" clip-path="url(#p9db9ad109e)" style="fill: #ffffff"/>
    <path d="M 177.987349 742.261961 
L 63.543241 774.810293 
" clip-path="url(#p9db9ad109e)" style="fill: #ffffff"/>
    <path d="M 178.193558 742.700674 
L 116.882878 784.797283 
" clip-path="url(#p9db9ad109e)" style="fill: #ffffff"/>
    <path d="M 178.655302 743.136009 
L 160.074375 773.936245 
" clip-path="url(#p9db9ad109e)" style="fill: #ffffff"/>
    <path d="M 160.684231 707.905878 
C 186.351638 695.514045 164.708561 678.974282 159.492406 706.99508 
C 164.708561 678.974282 186.351638 695.514045 160.684231 707.905878 
" clip-path="url(#p9db9ad109e)" style="fill: #ffffff"/>
    <path d="M 157.856759 708.072296 
L 117.913922 696.712404 
" clip-path="url(#p9db9ad109e)" style="stroke: #000000; stroke-width: 1.37788"/>
    <path d="M 157.799543 708.482629 
L 69.600457 708.482629 
" clip-path="url(#p9db9ad109e)" style="stroke: #000000; stroke-width: 1.260369"/>
    <path d="M 157.856759 708.892962 
L 43.412651 741.441294 
" clip-path="url(#p9db9ad109e)" style="fill: #ffffff"/>
    <path d="M 158.062968 709.331676 
L 63.337032 774.371579 
" clip-path="url(#p9db9ad109e)" style="fill: #ffffff"/>
    <path d="M 158.524712 709.767011 
L 114.574158 782.62061 
" clip-path="url(#p9db9ad109e)" style="fill: #ffffff"/>
    <path d="M 159.299543 709.982629 
L 159.299543 773.720626 
" clip-path="url(#p9db9ad109e)" style="fill: #ffffff"/>
    <path d="M 114.45 688.165547 
C 124.319715 667.930542 97.080285 667.930542 106.95 688.165547 
C 97.080285 667.930542 124.319715 667.930542 114.45 688.165547 
" clip-path="url(#p9db9ad109e)" style="fill: #ffffff"/>
    <path d="M 103.486078 696.712404 
L 69.314378 706.430963 
" clip-path="url(#p9db9ad109e)" style="stroke: #000000; stroke-width: 2"/>
    <path d="M 104.517122 698.905972 
L 43.206442 741.002581 
" clip-path="url(#p9db9ad109e)" style="fill: #ffffff"/>
    <path d="M 106.825842 701.082645 
L 62.875288 773.936245 
" clip-path="url(#p9db9ad109e)" style="fill: #ffffff"/>
    <path d="M 110.7 702.160737 
L 110.7 781.542518 
" clip-path="url(#p9db9ad109e)" style="stroke: #000000; stroke-width: 1.504608"/>
    <path d="M 114.574158 701.082645 
L 158.524712 773.936245 
" clip-path="url(#p9db9ad109e)" style="fill: #ffffff"/>
    <path d="M 61.136142 701.044881 
C 56.691439 678.974282 35.048362 695.514045 55.177021 705.598876 
C 35.048362 695.514045 56.691439 678.974282 61.136142 701.044881 
" clip-path="url(#p9db9ad109e)" style="fill: #ffffff"/>
    <path d="M 58.226298 714.904537 
L 42.744698 740.567246 
" clip-path="url(#p9db9ad109e)" style="fill: #ffffff"/>
    <path d="M 62.100457 715.982629 
L 62.100457 773.720626 
" clip-path="url(#p9db9ad109e)" style="fill: #ffffff"/>
    <path d="M 65.974615 714.904537 
L 106.825842 782.62061 
" clip-path="url(#p9db9ad109e)" style="stroke: #000000; stroke-width: 1.179724"/>
    <path d="M 68.283335 712.727864 
L 158.062968 774.371579 
" clip-path="url(#p9db9ad109e)" style="fill: #ffffff"/>
    <path d="M 40.670828 741.101628 
C 15.239671 728.231913 15.239671 755.471343 40.670828 742.601628 
C 15.239671 755.471343 15.239671 728.231913 40.670828 741.101628 
" clip-path="url(#p9db9ad109e)" style="fill: #ffffff"/>
    <path d="M 42.744698 743.136009 
L 61.325625 773.936245 
" clip-path="url(#p9db9ad109e)" style="fill: #ffffff"/>
    <path d="M 43.206442 742.700674 
L 104.517122 784.797283 
" clip-path="url(#p9db9ad109e)" style="fill: #ffffff"/>
    <path d="M 43.412651 742.261961 
L 157.856759 774.810293 
" clip-path="url(#p9db9ad109e)" style="fill: #ffffff"/>
    <path d="M 60.715769 775.797377 
C 35.048362 788.18921 56.691439 804.728973 61.907594 776.708176 
C 56.691439 804.728973 35.048362 788.18921 60.715769 775.797377 
" clip-path="url(#p9db9ad109e)" style="fill: #ffffff"/>
    <path d="M 63.543241 775.630959 
L 103.486078 786.990851 
" clip-path="url(#p9db9ad109e)" style="stroke: #000000; stroke-width: 0.882488"/>
    <path d="M 63.600457 775.220626 
L 157.799543 775.220626 
" clip-path="url(#p9db9ad109e)" style="fill: #ffffff"/>
    <path d="M 106.95 795.537708 
C 97.080285 815.772713 124.319715 815.772713 114.45 795.537708 
C 124.319715 815.772713 97.080285 815.772713 106.95 795.537708 
" clip-path="url(#p9db9ad109e)" style="fill: #ffffff"/>
    <path d="M 117.913922 786.990851 
L 157.856759 775.630959 
" clip-path="url(#p9db9ad109e)" style="fill: #ffffff"/>
    <path d="M 159.492406 776.708176 
C 164.708561 804.728973 186.351638 788.18921 160.684231 775.797377 
C 186.351638 788.18921 164.708561 804.728973 159.492406 776.708176 
" clip-path="url(#p9db9ad109e)" style="fill: #ffffff"/>
   </g>
   <g id="VertexCollection_5">
    <path d="M 179.430134 743.351628 
C 179.827938 743.351628 180.209503 743.193578 180.490794 742.912288 
C 180.772084 742.630997 180.930134 742.249432 180.930134 741.851628 
C 180.930134 741.453823 180.772084 741.072258 180.490794 740.790967 
C 180.209503 740.509677 179.827938 740.351628 179.430134 740.351628 
C 179.032329 740.351628 178.650764 740.509677 178.369473 740.790967 
C 178.088183 741.072258 177.930134 741.453823 177.930134 741.851628 
C 177.930134 742.249432 178.088183 742.630997 178.369473 742.912288 
C 178.650764 743.193578 179.032329 743.351628 179.430134 743.351628 
z
" clip-path="url(#p9db9ad109e)" style="fill: #fdcab5; stroke: #fdcab5; stroke-width: 3"/>
    <path d="M 159.299543 709.982629 
C 159.697348 709.982629 160.078913 709.82458 160.360204 709.543289 
C 160.641494 709.261999 160.799543 708.880434 160.799543 708.482629 
C 160.799543 708.084825 160.641494 707.703259 160.360204 707.421969 
C 160.078913 707.140679 159.697348 706.982629 159.299543 706.982629 
C 158.901739 706.982629 158.520174 707.140679 158.238883 707.421969 
C 157.957593 707.703259 157.799543 708.084825 157.799543 708.482629 
C 157.799543 708.880434 157.957593 709.261999 158.238883 709.543289 
C 158.520174 709.82458 158.901739 709.982629 159.299543 709.982629 
z
" clip-path="url(#p9db9ad109e)" style="fill: #fdcab5; stroke: #fdcab5; stroke-width: 3"/>
    <path d="M 110.7 702.160737 
C 112.689023 702.160737 114.596849 701.37049 116.003301 699.964038 
C 117.409753 698.557586 118.2 696.649761 118.2 694.660737 
C 118.2 692.671714 117.409753 690.763888 116.003301 689.357437 
C 114.596849 687.950985 112.689023 687.160737 110.7 687.160737 
C 108.710977 687.160737 106.803151 687.950985 105.396699 689.357437 
C 103.990247 690.763888 103.2 692.671714 103.2 694.660737 
C 103.2 696.649761 103.990247 698.557586 105.396699 699.964038 
C 106.803151 701.37049 108.710977 702.160737 110.7 702.160737 
z
" clip-path="url(#p9db9ad109e)" style="fill: #6b010e; stroke: #6b010e; stroke-width: 3"/>
    <path d="M 62.100457 715.982629 
C 64.08948 715.982629 65.997306 715.192382 67.403757 713.78593 
C 68.810209 712.379478 69.600457 710.471652 69.600457 708.482629 
C 69.600457 706.493606 68.810209 704.58578 67.403757 703.179328 
C 65.997306 701.772876 64.08948 700.982629 62.100457 700.982629 
C 60.111433 700.982629 58.203607 701.772876 56.797156 703.179328 
C 55.390704 704.58578 54.600457 706.493606 54.600457 708.482629 
C 54.600457 710.471652 55.390704 712.379478 56.797156 713.78593 
C 58.203607 715.192382 60.111433 715.982629 62.100457 715.982629 
z
" clip-path="url(#p9db9ad109e)" style="fill: #6b010e; stroke: #6b010e; stroke-width: 3"/>
    <path d="M 41.969866 743.351628 
C 42.367671 743.351628 42.749236 743.193578 43.030527 742.912288 
C 43.311817 742.630997 43.469866 742.249432 43.469866 741.851628 
C 43.469866 741.453823 43.311817 741.072258 43.030527 740.790967 
C 42.749236 740.509677 42.367671 740.351628 41.969866 740.351628 
C 41.572062 740.351628 41.190497 740.509677 40.909206 740.790967 
C 40.627916 741.072258 40.469866 741.453823 40.469866 741.851628 
C 40.469866 742.249432 40.627916 742.630997 40.909206 742.912288 
C 41.190497 743.193578 41.572062 743.351628 41.969866 743.351628 
z
" clip-path="url(#p9db9ad109e)" style="fill: #fdcab5; stroke: #fdcab5; stroke-width: 3"/>
    <path d="M 62.100457 776.720626 
C 62.498261 776.720626 62.879826 776.562577 63.161117 776.281286 
C 63.442407 775.999996 63.600457 775.618431 63.600457 775.220626 
C 63.600457 774.822821 63.442407 774.441256 63.161117 774.159966 
C 62.879826 773.878675 62.498261 773.720626 62.100457 773.720626 
C 61.702652 773.720626 61.321087 773.878675 61.039796 774.159966 
C 60.758506 774.441256 60.600457 774.822821 60.600457 775.220626 
C 60.600457 775.618431 60.758506 775.999996 61.039796 776.281286 
C 61.321087 776.562577 61.702652 776.720626 62.100457 776.720626 
z
" clip-path="url(#p9db9ad109e)" style="fill: #fdcab5; stroke: #fdcab5; stroke-width: 3"/>
    <path d="M 110.7 796.542518 
C 112.689023 796.542518 114.596849 795.75227 116.003301 794.345819 
C 117.409753 792.939367 118.2 791.031541 118.2 789.042518 
C 118.2 787.053494 117.409753 785.145669 116.003301 783.739217 
C 114.596849 782.332765 112.689023 781.542518 110.7 781.542518 
C 108.710977 781.542518 106.803151 782.332765 105.396699 783.739217 
C 103.990247 785.145669 103.2 787.053494 103.2 789.042518 
C 103.2 791.031541 103.990247 792.939367 105.396699 794.345819 
C 106.803151 795.75227 108.710977 796.542518 110.7 796.542518 
z
" clip-path="url(#p9db9ad109e)" style="fill: #6b010e; stroke: #6b010e; stroke-width: 3"/>
    <path d="M 159.299543 776.720626 
C 159.697348 776.720626 160.078913 776.562577 160.360204 776.281286 
C 160.641494 775.999996 160.799543 775.618431 160.799543 775.220626 
C 160.799543 774.822821 160.641494 774.441256 160.360204 774.159966 
C 160.078913 773.878675 159.697348 773.720626 159.299543 773.720626 
C 158.901739 773.720626 158.520174 773.878675 158.238883 774.159966 
C 157.957593 774.441256 157.799543 774.822821 157.799543 775.220626 
C 157.799543 775.618431 157.957593 775.999996 158.238883 776.281286 
C 158.520174 776.562577 158.901739 776.720626 159.299543 776.720626 
z
" clip-path="url(#p9db9ad109e)" style="fill: #fdcab5; stroke: #fdcab5; stroke-width: 3"/>
   </g>
   <g id="matplotlib.axis_9"/>
   <g id="matplotlib.axis_10"/>
  </g>
 </g>
 <defs>
  <clipPath id="p433174125f">
   <rect x="27" y="108.0864" width="167.4" height="119.578345"/>
  </clipPath>
  <clipPath id="pc72c0ff401">
   <rect x="27" y="251.580414" width="167.4" height="119.578345"/>
  </clipPath>
  <clipPath id="pfac815aa55">
   <rect x="27" y="395.074428" width="167.4" height="119.578345"/>
  </clipPath>
  <clipPath id="p1f357def98">
   <rect x="27" y="538.568441" width="167.4" height="119.578345"/>
  </clipPath>
  <clipPath id="p9db9ad109e">
   <rect x="27" y="682.062455" width="167.4" height="119.578345"/>
  </clipPath>
 </defs>
</svg>
