<?xml version="1.0" encoding="utf-8" standalone="no"?>
<!DOCTYPE svg PUBLIC "-//W3C//DTD SVG 1.1//EN"
  "http://www.w3.org/Graphics/SVG/1.1/DTD/svg11.dtd">
<svg xmlns:xlink="http://www.w3.org/1999/xlink" width="216pt" height="925.2pt" viewBox="0 0 216 925.2" xmlns="http://www.w3.org/2000/svg" version="1.1">
 <metadata>
  <rdf:RDF xmlns:dc="http://purl.org/dc/elements/1.1/" xmlns:cc="http://creativecommons.org/ns#" xmlns:rdf="http://www.w3.org/1999/02/22-rdf-syntax-ns#">
   <cc:Work>
    <dc:type rdf:resource="http://purl.org/dc/dcmitype/StillImage"/>
    <dc:date>2025-06-04T13:59:27.411085</dc:date>
    <dc:format>image/svg+xml</dc:format>
    <dc:creator>
     <cc:Agent>
      <dc:title>Matplotlib v3.9.2, https://matplotlib.org/</dc:title>
     </cc:Agent>
    </dc:creator>
   </cc:Work>
  </rdf:RDF>
 </metadata>
 <defs>
  <style type="text/css">*{stroke-linejoin: round; stroke-linecap: butt}</style>
 </defs>
 <g id="figure_1">
  <g id="patch_1">
   <path d="M 0 925.2 
L 216 925.2 
L 216 0 
L 0 0 
z
" style="fill: #ffffff"/>
  </g>
  <g id="axes_1">
   <g id="patch_2">
    <path d="M 27 233.852276 
L 194.4 233.852276 
L 194.4 111.024 
L 27 111.024 
z
" style="fill: #ffffff"/>
   </g>
   <g id="EdgeCollection_1">
    <path d="M 180.729172 174.117667 
C 206.160329 186.987382 206.160329 159.747952 180.729172 172.617667 
C 206.160329 159.747952 206.160329 186.987382 180.729172 174.117667 
" clip-path="url(#p164cfb3581)" style="fill: #ffffff"/>
    <path d="M 178.680721 172.06829 
L 163.046607 144.960918 
" clip-path="url(#p164cfb3581)" style="fill: #ffffff"/>
    <path d="M 178.211786 172.492664 
L 116.791736 128.381489 
" clip-path="url(#p164cfb3581)" style="fill: #ffffff"/>
    <path d="M 177.992402 172.939966 
L 69.289114 140.602539 
" clip-path="url(#p164cfb3581)" style="fill: #ffffff"/>
    <path d="M 177.930134 173.367667 
L 43.469866 173.367667 
" clip-path="url(#p164cfb3581)" style="fill: #ffffff"/>
    <path d="M 177.992402 173.795368 
L 63.538188 207.8436 
" clip-path="url(#p164cfb3581)" style="fill: #ffffff"/>
    <path d="M 178.211786 174.24267 
L 111.918347 221.853856 
" clip-path="url(#p164cfb3581)" style="fill: #ffffff"/>
    <path d="M 178.680721 174.667044 
L 160.048956 206.971924 
" clip-path="url(#p164cfb3581)" style="fill: #ffffff"/>
    <path d="M 166.267863 135.690493 
C 186.553998 125.926301 165.176072 109.045222 160.381747 131.042521 
C 165.176072 109.045222 186.553998 125.926301 166.267863 135.690493 
" clip-path="url(#p164cfb3581)" style="fill: #ffffff"/>
    <path d="M 152.110886 136.325527 
L 117.888657 126.144981 
" clip-path="url(#p164cfb3581)" style="stroke: #000000; stroke-width: 1.276103"/>
    <path d="M 151.799543 138.464033 
L 69.600457 138.464033 
" clip-path="url(#p164cfb3581)" style="stroke: #000000; stroke-width: 1.984266"/>
    <path d="M 152.110886 140.602539 
L 43.407598 172.939966 
" clip-path="url(#p164cfb3581)" style="fill: #ffffff"/>
    <path d="M 153.207808 142.839048 
L 63.318804 207.396298 
" clip-path="url(#p164cfb3581)" style="fill: #ffffff"/>
    <path d="M 155.55248 144.960918 
L 111.449413 221.429482 
" clip-path="url(#p164cfb3581)" style="stroke: #000000; stroke-width: 0.490451"/>
    <path d="M 159.299543 145.964033 
L 159.299543 206.771301 
" clip-path="url(#p164cfb3581)" style="fill: #ffffff"/>
    <path d="M 114.45 117.511284 
C 124.319715 97.276279 97.080285 97.276279 106.95 117.511284 
C 97.080285 97.276279 124.319715 97.276279 114.45 117.511284 
" clip-path="url(#p164cfb3581)" style="fill: #ffffff"/>
    <path d="M 103.511343 126.144981 
L 69.289114 136.325527 
" clip-path="url(#p164cfb3581)" style="stroke: #000000; stroke-width: 2"/>
    <path d="M 104.608264 128.381489 
L 43.188214 172.492664 
" clip-path="url(#p164cfb3581)" style="fill: #ffffff"/>
    <path d="M 106.952937 130.503359 
L 62.849869 206.971924 
" clip-path="url(#p164cfb3581)" style="fill: #ffffff"/>
    <path d="M 110.7 131.506474 
L 110.7 221.228859 
" clip-path="url(#p164cfb3581)" style="fill: #ffffff"/>
    <path d="M 114.447063 130.503359 
L 158.550131 206.971924 
" clip-path="url(#p164cfb3581)" style="stroke: #000000; stroke-width: 0.850015"/>
    <path d="M 61.018253 131.042521 
C 56.223928 109.045222 34.846002 125.926301 55.132137 135.690493 
C 34.846002 125.926301 56.223928 109.045222 61.018253 131.042521 
" clip-path="url(#p164cfb3581)" style="fill: #ffffff"/>
    <path d="M 58.353393 144.960918 
L 42.719279 172.06829 
" clip-path="url(#p164cfb3581)" style="fill: #ffffff"/>
    <path d="M 62.100457 145.964033 
L 62.100457 206.771301 
" clip-path="url(#p164cfb3581)" style="fill: #ffffff"/>
    <path d="M 65.84752 144.960918 
L 109.950587 221.429482 
" clip-path="url(#p164cfb3581)" style="stroke: #000000; stroke-width: 0.95991"/>
    <path d="M 68.192192 142.839048 
L 158.081196 207.396298 
" clip-path="url(#p164cfb3581)" style="fill: #ffffff"/>
    <path d="M 40.670828 172.617667 
C 15.239671 159.747952 15.239671 186.987382 40.670828 174.117667 
C 15.239671 186.987382 15.239671 159.747952 40.670828 172.617667 
" clip-path="url(#p164cfb3581)" style="fill: #ffffff"/>
    <path d="M 42.719279 174.667044 
L 61.351044 206.971924 
" clip-path="url(#p164cfb3581)" style="fill: #ffffff"/>
    <path d="M 43.188214 174.24267 
L 109.481653 221.853856 
" clip-path="url(#p164cfb3581)" style="fill: #ffffff"/>
    <path d="M 43.407598 173.795368 
L 157.861812 207.8436 
" clip-path="url(#p164cfb3581)" style="fill: #ffffff"/>
    <path d="M 60.706793 208.826009 
C 34.846002 220.809033 56.223928 237.690111 61.884016 209.755603 
C 56.223928 237.690111 34.846002 220.809033 60.706793 208.826009 
" clip-path="url(#p164cfb3581)" style="fill: #ffffff"/>
    <path d="M 63.538188 208.699002 
L 109.262269 222.301158 
" clip-path="url(#p164cfb3581)" style="fill: #ffffff"/>
    <path d="M 63.600457 208.271301 
L 157.799543 208.271301 
" clip-path="url(#p164cfb3581)" style="fill: #ffffff"/>
    <path d="M 109.95 224.027897 
C 97.080285 249.459055 124.319715 249.459055 111.45 224.027897 
C 124.319715 249.459055 97.080285 249.459055 109.95 224.027897 
" clip-path="url(#p164cfb3581)" style="fill: #ffffff"/>
    <path d="M 112.137731 222.301158 
L 157.861812 208.699002 
" clip-path="url(#p164cfb3581)" style="fill: #ffffff"/>
    <path d="M 159.515984 209.755603 
C 165.176072 237.690111 186.553998 220.809033 160.693207 208.826009 
C 186.553998 220.809033 165.176072 237.690111 159.515984 209.755603 
" clip-path="url(#p164cfb3581)" style="fill: #ffffff"/>
   </g>
   <g id="VertexCollection_1">
    <path d="M 179.430134 174.867667 
C 179.827938 174.867667 180.209503 174.709617 180.490794 174.428327 
C 180.772084 174.147037 180.930134 173.765472 180.930134 173.367667 
C 180.930134 172.969862 180.772084 172.588297 180.490794 172.307007 
C 180.209503 172.025716 179.827938 171.867667 179.430134 171.867667 
C 179.032329 171.867667 178.650764 172.025716 178.369473 172.307007 
C 178.088183 172.588297 177.930134 172.969862 177.930134 173.367667 
C 177.930134 173.765472 178.088183 174.147037 178.369473 174.428327 
C 178.650764 174.709617 179.032329 174.867667 179.430134 174.867667 
z
" clip-path="url(#p164cfb3581)" style="fill: #fdcab5; stroke: #fdcab5; stroke-width: 3"/>
    <path d="M 159.299543 145.964033 
C 161.288567 145.964033 163.196393 145.173786 164.602844 143.767334 
C 166.009296 142.360882 166.799543 140.453056 166.799543 138.464033 
C 166.799543 136.47501 166.009296 134.567184 164.602844 133.160732 
C 163.196393 131.75428 161.288567 130.964033 159.299543 130.964033 
C 157.31052 130.964033 155.402694 131.75428 153.996243 133.160732 
C 152.589791 134.567184 151.799543 136.47501 151.799543 138.464033 
C 151.799543 140.453056 152.589791 142.360882 153.996243 143.767334 
C 155.402694 145.173786 157.31052 145.964033 159.299543 145.964033 
z
" clip-path="url(#p164cfb3581)" style="fill: #6b010e; stroke: #6b010e; stroke-width: 3"/>
    <path d="M 110.7 131.506474 
C 112.689023 131.506474 114.596849 130.716227 116.003301 129.309775 
C 117.409753 127.903323 118.2 125.995498 118.2 124.006474 
C 118.2 122.017451 117.409753 120.109625 116.003301 118.703174 
C 114.596849 117.296722 112.689023 116.506474 110.7 116.506474 
C 108.710977 116.506474 106.803151 117.296722 105.396699 118.703174 
C 103.990247 120.109625 103.2 122.017451 103.2 124.006474 
C 103.2 125.995498 103.990247 127.903323 105.396699 129.309775 
C 106.803151 130.716227 108.710977 131.506474 110.7 131.506474 
z
" clip-path="url(#p164cfb3581)" style="fill: #6b010e; stroke: #6b010e; stroke-width: 3"/>
    <path d="M 62.100457 145.964033 
C 64.08948 145.964033 65.997306 145.173786 67.403757 143.767334 
C 68.810209 142.360882 69.600457 140.453056 69.600457 138.464033 
C 69.600457 136.47501 68.810209 134.567184 67.403757 133.160732 
C 65.997306 131.75428 64.08948 130.964033 62.100457 130.964033 
C 60.111433 130.964033 58.203607 131.75428 56.797156 133.160732 
C 55.390704 134.567184 54.600457 136.47501 54.600457 138.464033 
C 54.600457 140.453056 55.390704 142.360882 56.797156 143.767334 
C 58.203607 145.173786 60.111433 145.964033 62.100457 145.964033 
z
" clip-path="url(#p164cfb3581)" style="fill: #6b010e; stroke: #6b010e; stroke-width: 3"/>
    <path d="M 41.969866 174.867667 
C 42.367671 174.867667 42.749236 174.709617 43.030527 174.428327 
C 43.311817 174.147037 43.469866 173.765472 43.469866 173.367667 
C 43.469866 172.969862 43.311817 172.588297 43.030527 172.307007 
C 42.749236 172.025716 42.367671 171.867667 41.969866 171.867667 
C 41.572062 171.867667 41.190497 172.025716 40.909206 172.307007 
C 40.627916 172.588297 40.469866 172.969862 40.469866 173.367667 
C 40.469866 173.765472 40.627916 174.147037 40.909206 174.428327 
C 41.190497 174.709617 41.572062 174.867667 41.969866 174.867667 
z
" clip-path="url(#p164cfb3581)" style="fill: #fdcab5; stroke: #fdcab5; stroke-width: 3"/>
    <path d="M 62.100457 209.771301 
C 62.498261 209.771301 62.879826 209.613251 63.161117 209.331961 
C 63.442407 209.050671 63.600457 208.669105 63.600457 208.271301 
C 63.600457 207.873496 63.442407 207.491931 63.161117 207.210641 
C 62.879826 206.92935 62.498261 206.771301 62.100457 206.771301 
C 61.702652 206.771301 61.321087 206.92935 61.039796 207.210641 
C 60.758506 207.491931 60.600457 207.873496 60.600457 208.271301 
C 60.600457 208.669105 60.758506 209.050671 61.039796 209.331961 
C 61.321087 209.613251 61.702652 209.771301 62.100457 209.771301 
z
" clip-path="url(#p164cfb3581)" style="fill: #fdcab5; stroke: #fdcab5; stroke-width: 3"/>
    <path d="M 110.7 224.228859 
C 111.097805 224.228859 111.47937 224.07081 111.76066 223.78952 
C 112.041951 223.508229 112.2 223.126664 112.2 222.728859 
C 112.2 222.331055 112.041951 221.94949 111.76066 221.668199 
C 111.47937 221.386909 111.097805 221.228859 110.7 221.228859 
C 110.302195 221.228859 109.92063 221.386909 109.63934 221.668199 
C 109.358049 221.94949 109.2 222.331055 109.2 222.728859 
C 109.2 223.126664 109.358049 223.508229 109.63934 223.78952 
C 109.92063 224.07081 110.302195 224.228859 110.7 224.228859 
z
" clip-path="url(#p164cfb3581)" style="fill: #fdcab5; stroke: #fdcab5; stroke-width: 3"/>
    <path d="M 159.299543 209.771301 
C 159.697348 209.771301 160.078913 209.613251 160.360204 209.331961 
C 160.641494 209.050671 160.799543 208.669105 160.799543 208.271301 
C 160.799543 207.873496 160.641494 207.491931 160.360204 207.210641 
C 160.078913 206.92935 159.697348 206.771301 159.299543 206.771301 
C 158.901739 206.771301 158.520174 206.92935 158.238883 207.210641 
C 157.957593 207.491931 157.799543 207.873496 157.799543 208.271301 
C 157.799543 208.669105 157.957593 209.050671 158.238883 209.331961 
C 158.520174 209.613251 158.901739 209.771301 159.299543 209.771301 
z
" clip-path="url(#p164cfb3581)" style="fill: #fdcab5; stroke: #fdcab5; stroke-width: 3"/>
   </g>
   <g id="matplotlib.axis_1"/>
   <g id="matplotlib.axis_2"/>
  </g>
  <g id="axes_2">
   <g id="patch_3">
    <path d="M 27 381.246207 
L 194.4 381.246207 
L 194.4 258.417931 
L 27 258.417931 
z
" style="fill: #ffffff"/>
   </g>
   <g id="EdgeCollection_2">
    <path d="M 180.729172 320.582069 
C 206.160329 333.451784 206.160329 306.212354 180.729172 319.082069 
C 206.160329 306.212354 206.160329 333.451784 180.729172 320.582069 
" clip-path="url(#p6faf9712c3)" style="fill: #ffffff"/>
    <path d="M 178.670492 318.538645 
L 163.097749 292.023279 
" clip-path="url(#p6faf9712c3)" style="fill: #ffffff"/>
    <path d="M 178.204329 318.967543 
L 116.82902 275.681241 
" clip-path="url(#p6faf9712c3)" style="fill: #ffffff"/>
    <path d="M 177.990314 319.41145 
L 69.299553 287.659255 
" clip-path="url(#p6faf9712c3)" style="fill: #ffffff"/>
    <path d="M 177.930134 319.832069 
L 43.469866 319.832069 
" clip-path="url(#p6faf9712c3)" style="fill: #ffffff"/>
    <path d="M 177.990314 320.252688 
L 63.540276 353.687359 
" clip-path="url(#p6faf9712c3)" style="fill: #ffffff"/>
    <path d="M 178.204329 320.696595 
L 116.82902 363.982897 
" clip-path="url(#p6faf9712c3)" style="fill: #ffffff"/>
    <path d="M 178.670492 321.125493 
L 160.059184 352.814555 
" clip-path="url(#p6faf9712c3)" style="fill: #ffffff"/>
    <path d="M 166.249953 282.738037 
C 186.473122 272.844093 164.987495 256.100307 160.334183 278.127867 
C 164.987495 256.100307 186.473122 272.844093 166.249953 282.738037 
" clip-path="url(#p6faf9712c3)" style="fill: #ffffff"/>
    <path d="M 152.100447 283.453063 
L 117.899096 273.461709 
" clip-path="url(#p6faf9712c3)" style="stroke: #000000; stroke-width: 0.732966"/>
    <path d="M 151.799543 285.556159 
L 69.600457 285.556159 
" clip-path="url(#p6faf9712c3)" style="stroke: #000000; stroke-width: 1.145857"/>
    <path d="M 152.100447 287.659255 
L 43.409686 319.41145 
" clip-path="url(#p6faf9712c3)" style="fill: #ffffff"/>
    <path d="M 153.170523 289.878787 
L 63.326261 353.243453 
" clip-path="url(#p6faf9712c3)" style="fill: #ffffff"/>
    <path d="M 155.501338 292.023279 
L 114.498205 361.838406 
" clip-path="url(#p6faf9712c3)" style="stroke: #000000; stroke-width: 0.549059"/>
    <path d="M 159.299543 293.056159 
L 159.299543 352.607979 
" clip-path="url(#p6faf9712c3)" style="fill: #ffffff"/>
    <path d="M 114.45 264.863422 
C 124.319715 244.628417 97.080285 244.628417 106.95 264.863422 
C 97.080285 244.628417 124.319715 244.628417 114.45 264.863422 
" clip-path="url(#p6faf9712c3)" style="fill: #ffffff"/>
    <path d="M 103.500904 273.461709 
L 69.299553 283.453063 
" clip-path="url(#p6faf9712c3)" style="stroke: #000000; stroke-width: 2"/>
    <path d="M 104.57098 275.681241 
L 43.195671 318.967543 
" clip-path="url(#p6faf9712c3)" style="fill: #ffffff"/>
    <path d="M 106.901795 277.825732 
L 62.860098 352.814555 
" clip-path="url(#p6faf9712c3)" style="fill: #ffffff"/>
    <path d="M 110.7 278.858613 
L 110.7 360.805525 
" clip-path="url(#p6faf9712c3)" style="stroke: #000000; stroke-width: 0.570944"/>
    <path d="M 114.498205 277.825732 
L 158.539902 352.814555 
" clip-path="url(#p6faf9712c3)" style="fill: #ffffff"/>
    <path d="M 61.065817 278.127867 
C 56.412505 256.100307 34.926878 272.844093 55.150047 282.738037 
C 34.926878 272.844093 56.412505 256.100307 61.065817 278.127867 
" clip-path="url(#p6faf9712c3)" style="fill: #ffffff"/>
    <path d="M 58.302251 292.023279 
L 42.729508 318.538645 
" clip-path="url(#p6faf9712c3)" style="fill: #ffffff"/>
    <path d="M 62.100457 293.056159 
L 62.100457 352.607979 
" clip-path="url(#p6faf9712c3)" style="fill: #ffffff"/>
    <path d="M 65.898662 292.023279 
L 106.901795 361.838406 
" clip-path="url(#p6faf9712c3)" style="stroke: #000000; stroke-width: 1.138022"/>
    <path d="M 68.229477 289.878787 
L 158.073739 353.243453 
" clip-path="url(#p6faf9712c3)" style="fill: #ffffff"/>
    <path d="M 40.670828 319.082069 
C 15.239671 306.212354 15.239671 333.451784 40.670828 320.582069 
C 15.239671 333.451784 15.239671 306.212354 40.670828 319.082069 
" clip-path="url(#p6faf9712c3)" style="fill: #ffffff"/>
    <path d="M 42.729508 321.125493 
L 61.340816 352.814555 
" clip-path="url(#p6faf9712c3)" style="fill: #ffffff"/>
    <path d="M 43.195671 320.696595 
L 104.57098 363.982897 
" clip-path="url(#p6faf9712c3)" style="fill: #ffffff"/>
    <path d="M 43.409686 320.252688 
L 157.859724 353.687359 
" clip-path="url(#p6faf9712c3)" style="fill: #ffffff"/>
    <path d="M 60.710375 354.671603 
C 34.926878 366.820045 56.412505 383.56383 61.893529 355.593637 
C 56.412505 383.56383 34.926878 366.820045 60.710375 354.671603 
" clip-path="url(#p6faf9712c3)" style="fill: #ffffff"/>
    <path d="M 63.540276 354.528598 
L 103.500904 366.202429 
" clip-path="url(#p6faf9712c3)" style="fill: #ffffff"/>
    <path d="M 63.600457 354.107979 
L 157.799543 354.107979 
" clip-path="url(#p6faf9712c3)" style="fill: #ffffff"/>
    <path d="M 106.95 374.800716 
C 97.080285 395.035721 124.319715 395.035721 114.45 374.800716 
C 124.319715 395.035721 97.080285 395.035721 106.95 374.800716 
" clip-path="url(#p6faf9712c3)" style="fill: #ffffff"/>
    <path d="M 117.899096 366.202429 
L 157.859724 354.528598 
" clip-path="url(#p6faf9712c3)" style="fill: #ffffff"/>
    <path d="M 159.506471 355.593637 
C 164.987495 383.56383 186.473122 366.820045 160.689625 354.671603 
C 186.473122 366.820045 164.987495 383.56383 159.506471 355.593637 
" clip-path="url(#p6faf9712c3)" style="fill: #ffffff"/>
   </g>
   <g id="VertexCollection_2">
    <path d="M 179.430134 321.332069 
C 179.827938 321.332069 180.209503 321.17402 180.490794 320.892729 
C 180.772084 320.611439 180.930134 320.229874 180.930134 319.832069 
C 180.930134 319.434264 180.772084 319.052699 180.490794 318.771409 
C 180.209503 318.490118 179.827938 318.332069 179.430134 318.332069 
C 179.032329 318.332069 178.650764 318.490118 178.369473 318.771409 
C 178.088183 319.052699 177.930134 319.434264 177.930134 319.832069 
C 177.930134 320.229874 178.088183 320.611439 178.369473 320.892729 
C 178.650764 321.17402 179.032329 321.332069 179.430134 321.332069 
z
" clip-path="url(#p6faf9712c3)" style="fill: #fdcab5; stroke: #fdcab5; stroke-width: 3"/>
    <path d="M 159.299543 293.056159 
C 161.288567 293.056159 163.196393 292.265912 164.602844 290.85946 
C 166.009296 289.453008 166.799543 287.545183 166.799543 285.556159 
C 166.799543 283.567136 166.009296 281.65931 164.602844 280.252858 
C 163.196393 278.846407 161.288567 278.056159 159.299543 278.056159 
C 157.31052 278.056159 155.402694 278.846407 153.996243 280.252858 
C 152.589791 281.65931 151.799543 283.567136 151.799543 285.556159 
C 151.799543 287.545183 152.589791 289.453008 153.996243 290.85946 
C 155.402694 292.265912 157.31052 293.056159 159.299543 293.056159 
z
" clip-path="url(#p6faf9712c3)" style="fill: #6b010e; stroke: #6b010e; stroke-width: 3"/>
    <path d="M 110.7 278.858613 
C 112.689023 278.858613 114.596849 278.068365 116.003301 276.661914 
C 117.409753 275.255462 118.2 273.347636 118.2 271.358613 
C 118.2 269.369589 117.409753 267.461764 116.003301 266.055312 
C 114.596849 264.64886 112.689023 263.858613 110.7 263.858613 
C 108.710977 263.858613 106.803151 264.64886 105.396699 266.055312 
C 103.990247 267.461764 103.2 269.369589 103.2 271.358613 
C 103.2 273.347636 103.990247 275.255462 105.396699 276.661914 
C 106.803151 278.068365 108.710977 278.858613 110.7 278.858613 
z
" clip-path="url(#p6faf9712c3)" style="fill: #6b010e; stroke: #6b010e; stroke-width: 3"/>
    <path d="M 62.100457 293.056159 
C 64.08948 293.056159 65.997306 292.265912 67.403757 290.85946 
C 68.810209 289.453008 69.600457 287.545183 69.600457 285.556159 
C 69.600457 283.567136 68.810209 281.65931 67.403757 280.252858 
C 65.997306 278.846407 64.08948 278.056159 62.100457 278.056159 
C 60.111433 278.056159 58.203607 278.846407 56.797156 280.252858 
C 55.390704 281.65931 54.600457 283.567136 54.600457 285.556159 
C 54.600457 287.545183 55.390704 289.453008 56.797156 290.85946 
C 58.203607 292.265912 60.111433 293.056159 62.100457 293.056159 
z
" clip-path="url(#p6faf9712c3)" style="fill: #6b010e; stroke: #6b010e; stroke-width: 3"/>
    <path d="M 41.969866 321.332069 
C 42.367671 321.332069 42.749236 321.17402 43.030527 320.892729 
C 43.311817 320.611439 43.469866 320.229874 43.469866 319.832069 
C 43.469866 319.434264 43.311817 319.052699 43.030527 318.771409 
C 42.749236 318.490118 42.367671 318.332069 41.969866 318.332069 
C 41.572062 318.332069 41.190497 318.490118 40.909206 318.771409 
C 40.627916 319.052699 40.469866 319.434264 40.469866 319.832069 
C 40.469866 320.229874 40.627916 320.611439 40.909206 320.892729 
C 41.190497 321.17402 41.572062 321.332069 41.969866 321.332069 
z
" clip-path="url(#p6faf9712c3)" style="fill: #fdcab5; stroke: #fdcab5; stroke-width: 3"/>
    <path d="M 62.100457 355.607979 
C 62.498261 355.607979 62.879826 355.449929 63.161117 355.168639 
C 63.442407 354.887348 63.600457 354.505783 63.600457 354.107979 
C 63.600457 353.710174 63.442407 353.328609 63.161117 353.047318 
C 62.879826 352.766028 62.498261 352.607979 62.100457 352.607979 
C 61.702652 352.607979 61.321087 352.766028 61.039796 353.047318 
C 60.758506 353.328609 60.600457 353.710174 60.600457 354.107979 
C 60.600457 354.505783 60.758506 354.887348 61.039796 355.168639 
C 61.321087 355.449929 61.702652 355.607979 62.100457 355.607979 
z
" clip-path="url(#p6faf9712c3)" style="fill: #fdcab5; stroke: #fdcab5; stroke-width: 3"/>
    <path d="M 110.7 375.805525 
C 112.689023 375.805525 114.596849 375.015278 116.003301 373.608826 
C 117.409753 372.202374 118.2 370.294549 118.2 368.305525 
C 118.2 366.316502 117.409753 364.408676 116.003301 363.002224 
C 114.596849 361.595773 112.689023 360.805525 110.7 360.805525 
C 108.710977 360.805525 106.803151 361.595773 105.396699 363.002224 
C 103.990247 364.408676 103.2 366.316502 103.2 368.305525 
C 103.2 370.294549 103.990247 372.202374 105.396699 373.608826 
C 106.803151 375.015278 108.710977 375.805525 110.7 375.805525 
z
" clip-path="url(#p6faf9712c3)" style="fill: #6b010e; stroke: #6b010e; stroke-width: 3"/>
    <path d="M 159.299543 355.607979 
C 159.697348 355.607979 160.078913 355.449929 160.360204 355.168639 
C 160.641494 354.887348 160.799543 354.505783 160.799543 354.107979 
C 160.799543 353.710174 160.641494 353.328609 160.360204 353.047318 
C 160.078913 352.766028 159.697348 352.607979 159.299543 352.607979 
C 158.901739 352.607979 158.520174 352.766028 158.238883 353.047318 
C 157.957593 353.328609 157.799543 353.710174 157.799543 354.107979 
C 157.799543 354.505783 157.957593 354.887348 158.238883 355.168639 
C 158.520174 355.449929 158.901739 355.607979 159.299543 355.607979 
z
" clip-path="url(#p6faf9712c3)" style="fill: #fdcab5; stroke: #fdcab5; stroke-width: 3"/>
   </g>
   <g id="matplotlib.axis_3"/>
   <g id="matplotlib.axis_4"/>
  </g>
  <g id="axes_3">
   <g id="patch_4">
    <path d="M 27 528.640138 
L 194.4 528.640138 
L 194.4 405.811862 
L 27 405.811862 
z
" style="fill: #ffffff"/>
   </g>
   <g id="EdgeCollection_3">
    <path d="M 180.729172 467.976 
C 206.160329 480.845715 206.160329 453.606285 180.729172 466.476 
C 206.160329 453.606285 206.160329 480.845715 180.729172 467.976 
" clip-path="url(#p04ca284b4d)" style="fill: #ffffff"/>
    <path d="M 178.670492 465.932576 
L 160.059184 434.243514 
" clip-path="url(#p04ca284b4d)" style="fill: #ffffff"/>
    <path d="M 178.204329 466.361474 
L 116.82902 423.075172 
" clip-path="url(#p04ca284b4d)" style="fill: #ffffff"/>
    <path d="M 177.990314 466.805381 
L 69.299553 435.053186 
" clip-path="url(#p04ca284b4d)" style="fill: #ffffff"/>
    <path d="M 177.930134 467.226 
L 43.469866 467.226 
" clip-path="url(#p04ca284b4d)" style="fill: #ffffff"/>
    <path d="M 177.990314 467.646619 
L 63.540276 501.08129 
" clip-path="url(#p04ca284b4d)" style="fill: #ffffff"/>
    <path d="M 178.204329 468.090526 
L 116.82902 511.376828 
" clip-path="url(#p04ca284b4d)" style="fill: #ffffff"/>
    <path d="M 178.670492 468.519424 
L 160.059184 500.208486 
" clip-path="url(#p04ca284b4d)" style="fill: #ffffff"/>
    <path d="M 160.689625 432.386466 
C 186.473122 420.238024 164.987495 403.494238 159.506471 431.464432 
C 164.987495 403.494238 186.473122 420.238024 160.689625 432.386466 
" clip-path="url(#p04ca284b4d)" style="fill: #ffffff"/>
    <path d="M 157.859724 432.529471 
L 117.899096 420.85564 
" clip-path="url(#p04ca284b4d)" style="stroke: #000000; stroke-width: 1.081278"/>
    <path d="M 157.799543 432.95009 
L 69.600457 432.95009 
" clip-path="url(#p04ca284b4d)" style="stroke: #000000; stroke-width: 1.245105"/>
    <path d="M 157.859724 433.37071 
L 43.409686 466.805381 
" clip-path="url(#p04ca284b4d)" style="fill: #ffffff"/>
    <path d="M 158.073739 433.814616 
L 63.326261 500.637384 
" clip-path="url(#p04ca284b4d)" style="fill: #ffffff"/>
    <path d="M 158.539902 434.243514 
L 114.498205 509.232337 
" clip-path="url(#p04ca284b4d)" style="fill: #ffffff"/>
    <path d="M 159.299543 434.45009 
L 159.299543 500.00191 
" clip-path="url(#p04ca284b4d)" style="fill: #ffffff"/>
    <path d="M 114.45 412.257353 
C 124.319715 392.022348 97.080285 392.022348 106.95 412.257353 
C 97.080285 392.022348 124.319715 392.022348 114.45 412.257353 
" clip-path="url(#p04ca284b4d)" style="fill: #ffffff"/>
    <path d="M 103.500904 420.85564 
L 69.299553 430.846994 
" clip-path="url(#p04ca284b4d)" style="stroke: #000000; stroke-width: 2"/>
    <path d="M 104.57098 423.075172 
L 43.195671 466.361474 
" clip-path="url(#p04ca284b4d)" style="fill: #ffffff"/>
    <path d="M 106.901795 425.219663 
L 62.860098 500.208486 
" clip-path="url(#p04ca284b4d)" style="fill: #ffffff"/>
    <path d="M 110.7 426.252544 
L 110.7 508.199456 
" clip-path="url(#p04ca284b4d)" style="stroke: #000000; stroke-width: 1.364633"/>
    <path d="M 114.498205 425.219663 
L 158.539902 500.208486 
" clip-path="url(#p04ca284b4d)" style="fill: #ffffff"/>
    <path d="M 61.065817 425.521798 
C 56.412505 403.494238 34.926878 420.238024 55.150047 430.131968 
C 34.926878 420.238024 56.412505 403.494238 61.065817 425.521798 
" clip-path="url(#p04ca284b4d)" style="fill: #ffffff"/>
    <path d="M 58.302251 439.41721 
L 42.729508 465.932576 
" clip-path="url(#p04ca284b4d)" style="fill: #ffffff"/>
    <path d="M 62.100457 440.45009 
L 62.100457 500.00191 
" clip-path="url(#p04ca284b4d)" style="fill: #ffffff"/>
    <path d="M 65.898662 439.41721 
L 106.901795 509.232337 
" clip-path="url(#p04ca284b4d)" style="stroke: #000000; stroke-width: 1.36629"/>
    <path d="M 68.229477 437.272718 
L 158.073739 500.637384 
" clip-path="url(#p04ca284b4d)" style="fill: #ffffff"/>
    <path d="M 40.670828 466.476 
C 15.239671 453.606285 15.239671 480.845715 40.670828 467.976 
C 15.239671 480.845715 15.239671 453.606285 40.670828 466.476 
" clip-path="url(#p04ca284b4d)" style="fill: #ffffff"/>
    <path d="M 42.729508 468.519424 
L 61.340816 500.208486 
" clip-path="url(#p04ca284b4d)" style="fill: #ffffff"/>
    <path d="M 43.195671 468.090526 
L 104.57098 511.376828 
" clip-path="url(#p04ca284b4d)" style="fill: #ffffff"/>
    <path d="M 43.409686 467.646619 
L 157.859724 501.08129 
" clip-path="url(#p04ca284b4d)" style="fill: #ffffff"/>
    <path d="M 60.710375 502.065534 
C 34.926878 514.213976 56.412505 530.957762 61.893529 502.987568 
C 56.412505 530.957762 34.926878 514.213976 60.710375 502.065534 
" clip-path="url(#p04ca284b4d)" style="fill: #ffffff"/>
    <path d="M 63.540276 501.922529 
L 103.500904 513.59636 
" clip-path="url(#p04ca284b4d)" style="stroke: #000000; stroke-width: 1.002292"/>
    <path d="M 63.600457 501.50191 
L 157.799543 501.50191 
" clip-path="url(#p04ca284b4d)" style="stroke: #000000; stroke-width: 0.558867"/>
    <path d="M 106.95 522.194647 
C 97.080285 542.429652 124.319715 542.429652 114.45 522.194647 
C 124.319715 542.429652 97.080285 542.429652 106.95 522.194647 
" clip-path="url(#p04ca284b4d)" style="fill: #ffffff"/>
    <path d="M 117.899096 513.59636 
L 157.859724 501.922529 
" clip-path="url(#p04ca284b4d)" style="fill: #ffffff"/>
    <path d="M 159.506471 502.987568 
C 164.987495 530.957762 186.473122 514.213976 160.689625 502.065534 
C 186.473122 514.213976 164.987495 530.957762 159.506471 502.987568 
" clip-path="url(#p04ca284b4d)" style="fill: #ffffff"/>
   </g>
   <g id="VertexCollection_3">
    <path d="M 179.430134 468.726 
C 179.827938 468.726 180.209503 468.567951 180.490794 468.28666 
C 180.772084 468.00537 180.930134 467.623805 180.930134 467.226 
C 180.930134 466.828195 180.772084 466.44663 180.490794 466.16534 
C 180.209503 465.884049 179.827938 465.726 179.430134 465.726 
C 179.032329 465.726 178.650764 465.884049 178.369473 466.16534 
C 178.088183 466.44663 177.930134 466.828195 177.930134 467.226 
C 177.930134 467.623805 178.088183 468.00537 178.369473 468.28666 
C 178.650764 468.567951 179.032329 468.726 179.430134 468.726 
z
" clip-path="url(#p04ca284b4d)" style="fill: #fdcab5; stroke: #fdcab5; stroke-width: 3"/>
    <path d="M 159.299543 434.45009 
C 159.697348 434.45009 160.078913 434.292041 160.360204 434.010751 
C 160.641494 433.72946 160.799543 433.347895 160.799543 432.95009 
C 160.799543 432.552286 160.641494 432.170721 160.360204 431.88943 
C 160.078913 431.60814 159.697348 431.45009 159.299543 431.45009 
C 158.901739 431.45009 158.520174 431.60814 158.238883 431.88943 
C 157.957593 432.170721 157.799543 432.552286 157.799543 432.95009 
C 157.799543 433.347895 157.957593 433.72946 158.238883 434.010751 
C 158.520174 434.292041 158.901739 434.45009 159.299543 434.45009 
z
" clip-path="url(#p04ca284b4d)" style="fill: #fdcab5; stroke: #fdcab5; stroke-width: 3"/>
    <path d="M 110.7 426.252544 
C 112.689023 426.252544 114.596849 425.462296 116.003301 424.055845 
C 117.409753 422.649393 118.2 420.741567 118.2 418.752544 
C 118.2 416.76352 117.409753 414.855695 116.003301 413.449243 
C 114.596849 412.042791 112.689023 411.252544 110.7 411.252544 
C 108.710977 411.252544 106.803151 412.042791 105.396699 413.449243 
C 103.990247 414.855695 103.2 416.76352 103.2 418.752544 
C 103.2 420.741567 103.990247 422.649393 105.396699 424.055845 
C 106.803151 425.462296 108.710977 426.252544 110.7 426.252544 
z
" clip-path="url(#p04ca284b4d)" style="fill: #6b010e; stroke: #6b010e; stroke-width: 3"/>
    <path d="M 62.100457 440.45009 
C 64.08948 440.45009 65.997306 439.659843 67.403757 438.253391 
C 68.810209 436.846939 69.600457 434.939114 69.600457 432.95009 
C 69.600457 430.961067 68.810209 429.053241 67.403757 427.646789 
C 65.997306 426.240338 64.08948 425.45009 62.100457 425.45009 
C 60.111433 425.45009 58.203607 426.240338 56.797156 427.646789 
C 55.390704 429.053241 54.600457 430.961067 54.600457 432.95009 
C 54.600457 434.939114 55.390704 436.846939 56.797156 438.253391 
C 58.203607 439.659843 60.111433 440.45009 62.100457 440.45009 
z
" clip-path="url(#p04ca284b4d)" style="fill: #6b010e; stroke: #6b010e; stroke-width: 3"/>
    <path d="M 41.969866 468.726 
C 42.367671 468.726 42.749236 468.567951 43.030527 468.28666 
C 43.311817 468.00537 43.469866 467.623805 43.469866 467.226 
C 43.469866 466.828195 43.311817 466.44663 43.030527 466.16534 
C 42.749236 465.884049 42.367671 465.726 41.969866 465.726 
C 41.572062 465.726 41.190497 465.884049 40.909206 466.16534 
C 40.627916 466.44663 40.469866 466.828195 40.469866 467.226 
C 40.469866 467.623805 40.627916 468.00537 40.909206 468.28666 
C 41.190497 468.567951 41.572062 468.726 41.969866 468.726 
z
" clip-path="url(#p04ca284b4d)" style="fill: #fdcab5; stroke: #fdcab5; stroke-width: 3"/>
    <path d="M 62.100457 503.00191 
C 62.498261 503.00191 62.879826 502.84386 63.161117 502.56257 
C 63.442407 502.281279 63.600457 501.899714 63.600457 501.50191 
C 63.600457 501.104105 63.442407 500.72254 63.161117 500.441249 
C 62.879826 500.159959 62.498261 500.00191 62.100457 500.00191 
C 61.702652 500.00191 61.321087 500.159959 61.039796 500.441249 
C 60.758506 500.72254 60.600457 501.104105 60.600457 501.50191 
C 60.600457 501.899714 60.758506 502.281279 61.039796 502.56257 
C 61.321087 502.84386 61.702652 503.00191 62.100457 503.00191 
z
" clip-path="url(#p04ca284b4d)" style="fill: #fdcab5; stroke: #fdcab5; stroke-width: 3"/>
    <path d="M 110.7 523.199456 
C 112.689023 523.199456 114.596849 522.409209 116.003301 521.002757 
C 117.409753 519.596305 118.2 517.68848 118.2 515.699456 
C 118.2 513.710433 117.409753 511.802607 116.003301 510.396155 
C 114.596849 508.989704 112.689023 508.199456 110.7 508.199456 
C 108.710977 508.199456 106.803151 508.989704 105.396699 510.396155 
C 103.990247 511.802607 103.2 513.710433 103.2 515.699456 
C 103.2 517.68848 103.990247 519.596305 105.396699 521.002757 
C 106.803151 522.409209 108.710977 523.199456 110.7 523.199456 
z
" clip-path="url(#p04ca284b4d)" style="fill: #6b010e; stroke: #6b010e; stroke-width: 3"/>
    <path d="M 159.299543 503.00191 
C 159.697348 503.00191 160.078913 502.84386 160.360204 502.56257 
C 160.641494 502.281279 160.799543 501.899714 160.799543 501.50191 
C 160.799543 501.104105 160.641494 500.72254 160.360204 500.441249 
C 160.078913 500.159959 159.697348 500.00191 159.299543 500.00191 
C 158.901739 500.00191 158.520174 500.159959 158.238883 500.441249 
C 157.957593 500.72254 157.799543 501.104105 157.799543 501.50191 
C 157.799543 501.899714 157.957593 502.281279 158.238883 502.56257 
C 158.520174 502.84386 158.901739 503.00191 159.299543 503.00191 
z
" clip-path="url(#p04ca284b4d)" style="fill: #fdcab5; stroke: #fdcab5; stroke-width: 3"/>
   </g>
   <g id="matplotlib.axis_5"/>
   <g id="matplotlib.axis_6"/>
  </g>
  <g id="axes_4">
   <g id="patch_5">
    <path d="M 27 676.034069 
L 194.4 676.034069 
L 194.4 553.205793 
L 27 553.205793 
z
" style="fill: #ffffff"/>
   </g>
   <g id="EdgeCollection_4">
    <path d="M 180.729172 615.369931 
C 206.160329 628.239646 206.160329 601.000216 180.729172 613.869931 
C 206.160329 601.000216 206.160329 628.239646 180.729172 615.369931 
" clip-path="url(#p90f852e3ea)" style="fill: #ffffff"/>
    <path d="M 178.670492 613.326507 
L 160.059184 581.637445 
" clip-path="url(#p90f852e3ea)" style="fill: #ffffff"/>
    <path d="M 178.204329 613.755405 
L 116.82902 570.469103 
" clip-path="url(#p90f852e3ea)" style="fill: #ffffff"/>
    <path d="M 177.990314 614.199312 
L 69.299553 582.447117 
" clip-path="url(#p90f852e3ea)" style="fill: #ffffff"/>
    <path d="M 177.930134 614.619931 
L 43.469866 614.619931 
" clip-path="url(#p90f852e3ea)" style="fill: #ffffff"/>
    <path d="M 177.990314 615.04055 
L 63.540276 648.475221 
" clip-path="url(#p90f852e3ea)" style="fill: #ffffff"/>
    <path d="M 178.204329 615.484457 
L 116.82902 658.770759 
" clip-path="url(#p90f852e3ea)" style="fill: #ffffff"/>
    <path d="M 178.670492 615.913355 
L 160.059184 647.602417 
" clip-path="url(#p90f852e3ea)" style="fill: #ffffff"/>
    <path d="M 160.689625 579.780397 
C 186.473122 567.631955 164.987495 550.88817 159.506471 578.858363 
C 164.987495 550.88817 186.473122 567.631955 160.689625 579.780397 
" clip-path="url(#p90f852e3ea)" style="fill: #ffffff"/>
    <path d="M 157.859724 579.923402 
L 117.899096 568.249571 
" clip-path="url(#p90f852e3ea)" style="stroke: #000000; stroke-width: 1.087076"/>
    <path d="M 157.799543 580.344021 
L 69.600457 580.344021 
" clip-path="url(#p90f852e3ea)" style="stroke: #000000; stroke-width: 1.425328"/>
    <path d="M 157.859724 580.764641 
L 43.409686 614.199312 
" clip-path="url(#p90f852e3ea)" style="fill: #ffffff"/>
    <path d="M 158.073739 581.208547 
L 63.326261 648.031315 
" clip-path="url(#p90f852e3ea)" style="fill: #ffffff"/>
    <path d="M 158.539902 581.637445 
L 114.498205 656.626268 
" clip-path="url(#p90f852e3ea)" style="fill: #ffffff"/>
    <path d="M 159.299543 581.844021 
L 159.299543 647.395841 
" clip-path="url(#p90f852e3ea)" style="fill: #ffffff"/>
    <path d="M 114.45 559.651284 
C 124.319715 539.416279 97.080285 539.416279 106.95 559.651284 
C 97.080285 539.416279 124.319715 539.416279 114.45 559.651284 
" clip-path="url(#p90f852e3ea)" style="fill: #ffffff"/>
    <path d="M 103.500904 568.249571 
L 69.299553 578.240925 
" clip-path="url(#p90f852e3ea)" style="stroke: #000000; stroke-width: 2"/>
    <path d="M 104.57098 570.469103 
L 43.195671 613.755405 
" clip-path="url(#p90f852e3ea)" style="fill: #ffffff"/>
    <path d="M 106.901795 572.613594 
L 62.860098 647.602417 
" clip-path="url(#p90f852e3ea)" style="fill: #ffffff"/>
    <path d="M 110.7 573.646475 
L 110.7 655.593387 
" clip-path="url(#p90f852e3ea)" style="stroke: #000000; stroke-width: 1.642283"/>
    <path d="M 114.498205 572.613594 
L 158.539902 647.602417 
" clip-path="url(#p90f852e3ea)" style="fill: #ffffff"/>
    <path d="M 61.065817 572.915729 
C 56.412505 550.88817 34.926878 567.631955 55.150047 577.525899 
C 34.926878 567.631955 56.412505 550.88817 61.065817 572.915729 
" clip-path="url(#p90f852e3ea)" style="fill: #ffffff"/>
    <path d="M 58.302251 586.811141 
L 42.729508 613.326507 
" clip-path="url(#p90f852e3ea)" style="fill: #ffffff"/>
    <path d="M 62.100457 587.844021 
L 62.100457 647.395841 
" clip-path="url(#p90f852e3ea)" style="fill: #ffffff"/>
    <path d="M 65.898662 586.811141 
L 106.901795 656.626268 
" clip-path="url(#p90f852e3ea)" style="stroke: #000000; stroke-width: 1.438487"/>
    <path d="M 68.229477 584.666649 
L 158.073739 648.031315 
" clip-path="url(#p90f852e3ea)" style="fill: #ffffff"/>
    <path d="M 40.670828 613.869931 
C 15.239671 601.000216 15.239671 628.239646 40.670828 615.369931 
C 15.239671 628.239646 15.239671 601.000216 40.670828 613.869931 
" clip-path="url(#p90f852e3ea)" style="fill: #ffffff"/>
    <path d="M 42.729508 615.913355 
L 61.340816 647.602417 
" clip-path="url(#p90f852e3ea)" style="stroke: #000000; stroke-width: 0.751429"/>
    <path d="M 43.195671 615.484457 
L 104.57098 658.770759 
" clip-path="url(#p90f852e3ea)" style="fill: #ffffff"/>
    <path d="M 43.409686 615.04055 
L 157.859724 648.475221 
" clip-path="url(#p90f852e3ea)" style="fill: #ffffff"/>
    <path d="M 60.710375 649.459465 
C 34.926878 661.607907 56.412505 678.351693 61.893529 650.381499 
C 56.412505 678.351693 34.926878 661.607907 60.710375 649.459465 
" clip-path="url(#p90f852e3ea)" style="fill: #ffffff"/>
    <path d="M 63.540276 649.31646 
L 103.500904 660.990291 
" clip-path="url(#p90f852e3ea)" style="stroke: #000000; stroke-width: 1.641407"/>
    <path d="M 63.600457 648.895841 
L 157.799543 648.895841 
" clip-path="url(#p90f852e3ea)" style="fill: #ffffff"/>
    <path d="M 106.95 669.588578 
C 97.080285 689.823583 124.319715 689.823583 114.45 669.588578 
C 124.319715 689.823583 97.080285 689.823583 106.95 669.588578 
" clip-path="url(#p90f852e3ea)" style="fill: #ffffff"/>
    <path d="M 117.899096 660.990291 
L 157.859724 649.31646 
" clip-path="url(#p90f852e3ea)" style="fill: #ffffff"/>
    <path d="M 159.506471 650.381499 
C 164.987495 678.351693 186.473122 661.607907 160.689625 649.459465 
C 186.473122 661.607907 164.987495 678.351693 159.506471 650.381499 
" clip-path="url(#p90f852e3ea)" style="fill: #ffffff"/>
   </g>
   <g id="VertexCollection_4">
    <path d="M 179.430134 616.119931 
C 179.827938 616.119931 180.209503 615.961882 180.490794 615.680591 
C 180.772084 615.399301 180.930134 615.017736 180.930134 614.619931 
C 180.930134 614.222126 180.772084 613.840561 180.490794 613.559271 
C 180.209503 613.27798 179.827938 613.119931 179.430134 613.119931 
C 179.032329 613.119931 178.650764 613.27798 178.369473 613.559271 
C 178.088183 613.840561 177.930134 614.222126 177.930134 614.619931 
C 177.930134 615.017736 178.088183 615.399301 178.369473 615.680591 
C 178.650764 615.961882 179.032329 616.119931 179.430134 616.119931 
z
" clip-path="url(#p90f852e3ea)" style="fill: #fdcab5; stroke: #fdcab5; stroke-width: 3"/>
    <path d="M 159.299543 581.844021 
C 159.697348 581.844021 160.078913 581.685972 160.360204 581.404682 
C 160.641494 581.123391 160.799543 580.741826 160.799543 580.344021 
C 160.799543 579.946217 160.641494 579.564652 160.360204 579.283361 
C 160.078913 579.002071 159.697348 578.844021 159.299543 578.844021 
C 158.901739 578.844021 158.520174 579.002071 158.238883 579.283361 
C 157.957593 579.564652 157.799543 579.946217 157.799543 580.344021 
C 157.799543 580.741826 157.957593 581.123391 158.238883 581.404682 
C 158.520174 581.685972 158.901739 581.844021 159.299543 581.844021 
z
" clip-path="url(#p90f852e3ea)" style="fill: #fdcab5; stroke: #fdcab5; stroke-width: 3"/>
    <path d="M 110.7 573.646475 
C 112.689023 573.646475 114.596849 572.856227 116.003301 571.449776 
C 117.409753 570.043324 118.2 568.135498 118.2 566.146475 
C 118.2 564.157451 117.409753 562.249626 116.003301 560.843174 
C 114.596849 559.436722 112.689023 558.646475 110.7 558.646475 
C 108.710977 558.646475 106.803151 559.436722 105.396699 560.843174 
C 103.990247 562.249626 103.2 564.157451 103.2 566.146475 
C 103.2 568.135498 103.990247 570.043324 105.396699 571.449776 
C 106.803151 572.856227 108.710977 573.646475 110.7 573.646475 
z
" clip-path="url(#p90f852e3ea)" style="fill: #6b010e; stroke: #6b010e; stroke-width: 3"/>
    <path d="M 62.100457 587.844021 
C 64.08948 587.844021 65.997306 587.053774 67.403757 585.647322 
C 68.810209 584.24087 69.600457 582.333045 69.600457 580.344021 
C 69.600457 578.354998 68.810209 576.447172 67.403757 575.040721 
C 65.997306 573.634269 64.08948 572.844021 62.100457 572.844021 
C 60.111433 572.844021 58.203607 573.634269 56.797156 575.040721 
C 55.390704 576.447172 54.600457 578.354998 54.600457 580.344021 
C 54.600457 582.333045 55.390704 584.24087 56.797156 585.647322 
C 58.203607 587.053774 60.111433 587.844021 62.100457 587.844021 
z
" clip-path="url(#p90f852e3ea)" style="fill: #6b010e; stroke: #6b010e; stroke-width: 3"/>
    <path d="M 41.969866 616.119931 
C 42.367671 616.119931 42.749236 615.961882 43.030527 615.680591 
C 43.311817 615.399301 43.469866 615.017736 43.469866 614.619931 
C 43.469866 614.222126 43.311817 613.840561 43.030527 613.559271 
C 42.749236 613.27798 42.367671 613.119931 41.969866 613.119931 
C 41.572062 613.119931 41.190497 613.27798 40.909206 613.559271 
C 40.627916 613.840561 40.469866 614.222126 40.469866 614.619931 
C 40.469866 615.017736 40.627916 615.399301 40.909206 615.680591 
C 41.190497 615.961882 41.572062 616.119931 41.969866 616.119931 
z
" clip-path="url(#p90f852e3ea)" style="fill: #fdcab5; stroke: #fdcab5; stroke-width: 3"/>
    <path d="M 62.100457 650.395841 
C 62.498261 650.395841 62.879826 650.237791 63.161117 649.956501 
C 63.442407 649.67521 63.600457 649.293645 63.600457 648.895841 
C 63.600457 648.498036 63.442407 648.116471 63.161117 647.835181 
C 62.879826 647.55389 62.498261 647.395841 62.100457 647.395841 
C 61.702652 647.395841 61.321087 647.55389 61.039796 647.835181 
C 60.758506 648.116471 60.600457 648.498036 60.600457 648.895841 
C 60.600457 649.293645 60.758506 649.67521 61.039796 649.956501 
C 61.321087 650.237791 61.702652 650.395841 62.100457 650.395841 
z
" clip-path="url(#p90f852e3ea)" style="fill: #fdcab5; stroke: #fdcab5; stroke-width: 3"/>
    <path d="M 110.7 670.593387 
C 112.689023 670.593387 114.596849 669.80314 116.003301 668.396688 
C 117.409753 666.990236 118.2 665.082411 118.2 663.093387 
C 118.2 661.104364 117.409753 659.196538 116.003301 657.790086 
C 114.596849 656.383635 112.689023 655.593387 110.7 655.593387 
C 108.710977 655.593387 106.803151 656.383635 105.396699 657.790086 
C 103.990247 659.196538 103.2 661.104364 103.2 663.093387 
C 103.2 665.082411 103.990247 666.990236 105.396699 668.396688 
C 106.803151 669.80314 108.710977 670.593387 110.7 670.593387 
z
" clip-path="url(#p90f852e3ea)" style="fill: #6b010e; stroke: #6b010e; stroke-width: 3"/>
    <path d="M 159.299543 650.395841 
C 159.697348 650.395841 160.078913 650.237791 160.360204 649.956501 
C 160.641494 649.67521 160.799543 649.293645 160.799543 648.895841 
C 160.799543 648.498036 160.641494 648.116471 160.360204 647.835181 
C 160.078913 647.55389 159.697348 647.395841 159.299543 647.395841 
C 158.901739 647.395841 158.520174 647.55389 158.238883 647.835181 
C 157.957593 648.116471 157.799543 648.498036 157.799543 648.895841 
C 157.799543 649.293645 157.957593 649.67521 158.238883 649.956501 
C 158.520174 650.237791 158.901739 650.395841 159.299543 650.395841 
z
" clip-path="url(#p90f852e3ea)" style="fill: #fdcab5; stroke: #fdcab5; stroke-width: 3"/>
   </g>
   <g id="matplotlib.axis_7"/>
   <g id="matplotlib.axis_8"/>
  </g>
  <g id="axes_5">
   <g id="patch_6">
    <path d="M 27 823.428 
L 194.4 823.428 
L 194.4 700.599724 
L 27 700.599724 
z
" style="fill: #ffffff"/>
   </g>
   <g id="EdgeCollection_5">
    <path d="M 180.729172 762.763862 
C 206.160329 775.633577 206.160329 748.394147 180.729172 761.263862 
C 206.160329 748.394147 206.160329 775.633577 180.729172 762.763862 
" clip-path="url(#paf63397dcd)" style="fill: #ffffff"/>
    <path d="M 178.670492 760.720438 
L 163.097749 734.205072 
" clip-path="url(#paf63397dcd)" style="fill: #ffffff"/>
    <path d="M 178.204329 761.149336 
L 116.82902 717.863034 
" clip-path="url(#paf63397dcd)" style="fill: #ffffff"/>
    <path d="M 177.990314 761.593243 
L 69.299553 729.841048 
" clip-path="url(#paf63397dcd)" style="fill: #ffffff"/>
    <path d="M 177.930134 762.013862 
L 43.469866 762.013862 
" clip-path="url(#paf63397dcd)" style="fill: #ffffff"/>
    <path d="M 177.990314 762.434481 
L 63.540276 795.869153 
" clip-path="url(#paf63397dcd)" style="fill: #ffffff"/>
    <path d="M 178.204329 762.878388 
L 116.82902 806.16469 
" clip-path="url(#paf63397dcd)" style="fill: #ffffff"/>
    <path d="M 178.670492 763.307286 
L 160.059184 794.996348 
" clip-path="url(#paf63397dcd)" style="fill: #ffffff"/>
    <path d="M 166.249953 724.91983 
C 186.473122 715.025886 164.987495 698.282101 160.334183 720.30966 
C 164.987495 698.282101 186.473122 715.025886 166.249953 724.91983 
" clip-path="url(#paf63397dcd)" style="fill: #ffffff"/>
    <path d="M 152.100447 725.634856 
L 117.899096 715.643502 
" clip-path="url(#paf63397dcd)" style="stroke: #000000; stroke-width: 1.374847"/>
    <path d="M 151.799543 727.737952 
L 69.600457 727.737952 
" clip-path="url(#paf63397dcd)" style="stroke: #000000; stroke-width: 0.993819"/>
    <path d="M 152.100447 729.841048 
L 43.409686 761.593243 
" clip-path="url(#paf63397dcd)" style="fill: #ffffff"/>
    <path d="M 153.170523 732.06058 
L 63.326261 795.425246 
" clip-path="url(#paf63397dcd)" style="stroke: #000000; stroke-width: 1.193222"/>
    <path d="M 155.501338 734.205072 
L 114.498205 804.020199 
" clip-path="url(#paf63397dcd)" style="fill: #ffffff"/>
    <path d="M 159.299543 735.237952 
L 159.299543 794.789772 
" clip-path="url(#paf63397dcd)" style="fill: #ffffff"/>
    <path d="M 114.45 707.045215 
C 124.319715 686.81021 97.080285 686.81021 106.95 707.045215 
C 97.080285 686.81021 124.319715 686.81021 114.45 707.045215 
" clip-path="url(#paf63397dcd)" style="fill: #ffffff"/>
    <path d="M 103.500904 715.643502 
L 69.299553 725.634856 
" clip-path="url(#paf63397dcd)" style="stroke: #000000; stroke-width: 2"/>
    <path d="M 104.57098 717.863034 
L 43.195671 761.149336 
" clip-path="url(#paf63397dcd)" style="fill: #ffffff"/>
    <path d="M 106.901795 720.007526 
L 62.860098 794.996348 
" clip-path="url(#paf63397dcd)" style="fill: #ffffff"/>
    <path d="M 110.7 721.040406 
L 110.7 802.987318 
" clip-path="url(#paf63397dcd)" style="stroke: #000000; stroke-width: 1.651427"/>
    <path d="M 114.498205 720.007526 
L 158.539902 794.996348 
" clip-path="url(#paf63397dcd)" style="fill: #ffffff"/>
    <path d="M 61.065817 720.30966 
C 56.412505 698.282101 34.926878 715.025886 55.150047 724.91983 
C 34.926878 715.025886 56.412505 698.282101 61.065817 720.30966 
" clip-path="url(#paf63397dcd)" style="fill: #ffffff"/>
    <path d="M 58.302251 734.205072 
L 42.729508 760.720438 
" clip-path="url(#paf63397dcd)" style="fill: #ffffff"/>
    <path d="M 62.100457 735.237952 
L 62.100457 794.789772 
" clip-path="url(#paf63397dcd)" style="fill: #ffffff"/>
    <path d="M 65.898662 734.205072 
L 106.901795 804.020199 
" clip-path="url(#paf63397dcd)" style="stroke: #000000; stroke-width: 1.198153"/>
    <path d="M 68.229477 732.06058 
L 158.073739 795.425246 
" clip-path="url(#paf63397dcd)" style="fill: #ffffff"/>
    <path d="M 40.670828 761.263862 
C 15.239671 748.394147 15.239671 775.633577 40.670828 762.763862 
C 15.239671 775.633577 15.239671 748.394147 40.670828 761.263862 
" clip-path="url(#paf63397dcd)" style="fill: #ffffff"/>
    <path d="M 42.729508 763.307286 
L 61.340816 794.996348 
" clip-path="url(#paf63397dcd)" style="fill: #ffffff"/>
    <path d="M 43.195671 762.878388 
L 104.57098 806.16469 
" clip-path="url(#paf63397dcd)" style="fill: #ffffff"/>
    <path d="M 43.409686 762.434481 
L 157.859724 795.869153 
" clip-path="url(#paf63397dcd)" style="fill: #ffffff"/>
    <path d="M 60.710375 796.853396 
C 34.926878 809.001838 56.412505 825.745624 61.893529 797.77543 
C 56.412505 825.745624 34.926878 809.001838 60.710375 796.853396 
" clip-path="url(#paf63397dcd)" style="fill: #ffffff"/>
    <path d="M 63.540276 796.710391 
L 103.500904 808.384222 
" clip-path="url(#paf63397dcd)" style="stroke: #000000; stroke-width: 1.184645"/>
    <path d="M 63.600457 796.289772 
L 157.799543 796.289772 
" clip-path="url(#paf63397dcd)" style="fill: #ffffff"/>
    <path d="M 106.95 816.982509 
C 97.080285 837.217514 124.319715 837.217514 114.45 816.982509 
C 124.319715 837.217514 97.080285 837.217514 106.95 816.982509 
" clip-path="url(#paf63397dcd)" style="fill: #ffffff"/>
    <path d="M 117.899096 808.384222 
L 157.859724 796.710391 
" clip-path="url(#paf63397dcd)" style="fill: #ffffff"/>
    <path d="M 159.506471 797.77543 
C 164.987495 825.745624 186.473122 809.001838 160.689625 796.853396 
C 186.473122 809.001838 164.987495 825.745624 159.506471 797.77543 
" clip-path="url(#paf63397dcd)" style="fill: #ffffff"/>
   </g>
   <g id="VertexCollection_5">
    <path d="M 179.430134 763.513862 
C 179.827938 763.513862 180.209503 763.355813 180.490794 763.074522 
C 180.772084 762.793232 180.930134 762.411667 180.930134 762.013862 
C 180.930134 761.616057 180.772084 761.234492 180.490794 760.953202 
C 180.209503 760.671912 179.827938 760.513862 179.430134 760.513862 
C 179.032329 760.513862 178.650764 760.671912 178.369473 760.953202 
C 178.088183 761.234492 177.930134 761.616057 177.930134 762.013862 
C 177.930134 762.411667 178.088183 762.793232 178.369473 763.074522 
C 178.650764 763.355813 179.032329 763.513862 179.430134 763.513862 
z
" clip-path="url(#paf63397dcd)" style="fill: #fdcab5; stroke: #fdcab5; stroke-width: 3"/>
    <path d="M 159.299543 735.237952 
C 161.288567 735.237952 163.196393 734.447705 164.602844 733.041253 
C 166.009296 731.634801 166.799543 729.726976 166.799543 727.737952 
C 166.799543 725.748929 166.009296 723.841103 164.602844 722.434652 
C 163.196393 721.0282 161.288567 720.237952 159.299543 720.237952 
C 157.31052 720.237952 155.402694 721.0282 153.996243 722.434652 
C 152.589791 723.841103 151.799543 725.748929 151.799543 727.737952 
C 151.799543 729.726976 152.589791 731.634801 153.996243 733.041253 
C 155.402694 734.447705 157.31052 735.237952 159.299543 735.237952 
z
" clip-path="url(#paf63397dcd)" style="fill: #6b010e; stroke: #6b010e; stroke-width: 3"/>
    <path d="M 110.7 721.040406 
C 112.689023 721.040406 114.596849 720.250158 116.003301 718.843707 
C 117.409753 717.437255 118.2 715.529429 118.2 713.540406 
C 118.2 711.551383 117.409753 709.643557 116.003301 708.237105 
C 114.596849 706.830653 112.689023 706.040406 110.7 706.040406 
C 108.710977 706.040406 106.803151 706.830653 105.396699 708.237105 
C 103.990247 709.643557 103.2 711.551383 103.2 713.540406 
C 103.2 715.529429 103.990247 717.437255 105.396699 718.843707 
C 106.803151 720.250158 108.710977 721.040406 110.7 721.040406 
z
" clip-path="url(#paf63397dcd)" style="fill: #6b010e; stroke: #6b010e; stroke-width: 3"/>
    <path d="M 62.100457 735.237952 
C 64.08948 735.237952 65.997306 734.447705 67.403757 733.041253 
C 68.810209 731.634801 69.600457 729.726976 69.600457 727.737952 
C 69.600457 725.748929 68.810209 723.841103 67.403757 722.434652 
C 65.997306 721.0282 64.08948 720.237952 62.100457 720.237952 
C 60.111433 720.237952 58.203607 721.0282 56.797156 722.434652 
C 55.390704 723.841103 54.600457 725.748929 54.600457 727.737952 
C 54.600457 729.726976 55.390704 731.634801 56.797156 733.041253 
C 58.203607 734.447705 60.111433 735.237952 62.100457 735.237952 
z
" clip-path="url(#paf63397dcd)" style="fill: #6b010e; stroke: #6b010e; stroke-width: 3"/>
    <path d="M 41.969866 763.513862 
C 42.367671 763.513862 42.749236 763.355813 43.030527 763.074522 
C 43.311817 762.793232 43.469866 762.411667 43.469866 762.013862 
C 43.469866 761.616057 43.311817 761.234492 43.030527 760.953202 
C 42.749236 760.671912 42.367671 760.513862 41.969866 760.513862 
C 41.572062 760.513862 41.190497 760.671912 40.909206 760.953202 
C 40.627916 761.234492 40.469866 761.616057 40.469866 762.013862 
C 40.469866 762.411667 40.627916 762.793232 40.909206 763.074522 
C 41.190497 763.355813 41.572062 763.513862 41.969866 763.513862 
z
" clip-path="url(#paf63397dcd)" style="fill: #fdcab5; stroke: #fdcab5; stroke-width: 3"/>
    <path d="M 62.100457 797.789772 
C 62.498261 797.789772 62.879826 797.631722 63.161117 797.350432 
C 63.442407 797.069142 63.600457 796.687576 63.600457 796.289772 
C 63.600457 795.891967 63.442407 795.510402 63.161117 795.229112 
C 62.879826 794.947821 62.498261 794.789772 62.100457 794.789772 
C 61.702652 794.789772 61.321087 794.947821 61.039796 795.229112 
C 60.758506 795.510402 60.600457 795.891967 60.600457 796.289772 
C 60.600457 796.687576 60.758506 797.069142 61.039796 797.350432 
C 61.321087 797.631722 61.702652 797.789772 62.100457 797.789772 
z
" clip-path="url(#paf63397dcd)" style="fill: #fdcab5; stroke: #fdcab5; stroke-width: 3"/>
    <path d="M 110.7 817.987318 
C 112.689023 817.987318 114.596849 817.197071 116.003301 815.790619 
C 117.409753 814.384167 118.2 812.476342 118.2 810.487318 
C 118.2 808.498295 117.409753 806.590469 116.003301 805.184018 
C 114.596849 803.777566 112.689023 802.987318 110.7 802.987318 
C 108.710977 802.987318 106.803151 803.777566 105.396699 805.184018 
C 103.990247 806.590469 103.2 808.498295 103.2 810.487318 
C 103.2 812.476342 103.990247 814.384167 105.396699 815.790619 
C 106.803151 817.197071 108.710977 817.987318 110.7 817.987318 
z
" clip-path="url(#paf63397dcd)" style="fill: #6b010e; stroke: #6b010e; stroke-width: 3"/>
    <path d="M 159.299543 797.789772 
C 159.697348 797.789772 160.078913 797.631722 160.360204 797.350432 
C 160.641494 797.069142 160.799543 796.687576 160.799543 796.289772 
C 160.799543 795.891967 160.641494 795.510402 160.360204 795.229112 
C 160.078913 794.947821 159.697348 794.789772 159.299543 794.789772 
C 158.901739 794.789772 158.520174 794.947821 158.238883 795.229112 
C 157.957593 795.510402 157.799543 795.891967 157.799543 796.289772 
C 157.799543 796.687576 157.957593 797.069142 158.238883 797.350432 
C 158.520174 797.631722 158.901739 797.789772 159.299543 797.789772 
z
" clip-path="url(#paf63397dcd)" style="fill: #fdcab5; stroke: #fdcab5; stroke-width: 3"/>
   </g>
   <g id="matplotlib.axis_9"/>
   <g id="matplotlib.axis_10"/>
  </g>
 </g>
 <defs>
  <clipPath id="p164cfb3581">
   <rect x="27" y="111.024" width="167.4" height="122.828276"/>
  </clipPath>
  <clipPath id="p6faf9712c3">
   <rect x="27" y="258.417931" width="167.4" height="122.828276"/>
  </clipPath>
  <clipPath id="p04ca284b4d">
   <rect x="27" y="405.811862" width="167.4" height="122.828276"/>
  </clipPath>
  <clipPath id="p90f852e3ea">
   <rect x="27" y="553.205793" width="167.4" height="122.828276"/>
  </clipPath>
  <clipPath id="paf63397dcd">
   <rect x="27" y="700.599724" width="167.4" height="122.828276"/>
  </clipPath>
 </defs>
</svg>
