<?xml version="1.0" encoding="utf-8" standalone="no"?>
<!DOCTYPE svg PUBLIC "-//W3C//DTD SVG 1.1//EN"
  "http://www.w3.org/Graphics/SVG/1.1/DTD/svg11.dtd">
<svg xmlns:xlink="http://www.w3.org/1999/xlink" width="288pt" height="432pt" viewBox="0 0 288 432" xmlns="http://www.w3.org/2000/svg" version="1.1">
 <metadata>
  <rdf:RDF xmlns:dc="http://purl.org/dc/elements/1.1/" xmlns:cc="http://creativecommons.org/ns#" xmlns:rdf="http://www.w3.org/1999/02/22-rdf-syntax-ns#">
   <cc:Work>
    <dc:type rdf:resource="http://purl.org/dc/dcmitype/StillImage"/>
    <dc:date>2025-08-14T15:54:26.089715</dc:date>
    <dc:format>image/svg+xml</dc:format>
    <dc:creator>
     <cc:Agent>
      <dc:title>Matplotlib v3.10.0, https://matplotlib.org/</dc:title>
     </cc:Agent>
    </dc:creator>
   </cc:Work>
  </rdf:RDF>
 </metadata>
 <defs>
  <style type="text/css">*{stroke-linejoin: round; stroke-linecap: butt}</style>
 </defs>
 <g id="figure_1">
  <g id="patch_1">
   <path d="M 0 432 
L 288 432 
L 288 0 
L 0 0 
z
" style="fill: #ffffff"/>
  </g>
  <g id="axes_1">
   <g id="patch_2">
    <path d="M 51.05 404.12 
L 277.2 404.12 
L 277.2 68.496 
L 51.05 68.496 
z
" style="fill: #ffffff"/>
   </g>
   <g id="PathCollection_1">
    <defs>
     <path id="C0_0_3f7fa8b806" d="M 0 5 
C 1.326016 5 2.597899 4.473168 3.535534 3.535534 
C 4.473168 2.597899 5 1.326016 5 -0 
C 5 -1.326016 4.473168 -2.597899 3.535534 -3.535534 
C 2.597899 -4.473168 1.326016 -5 0 -5 
C -1.326016 -5 -2.597899 -4.473168 -3.535534 -3.535534 
C -4.473168 -2.597899 -5 -1.326016 -5 0 
C -5 1.326016 -4.473168 2.597899 -3.535534 3.535534 
C -2.597899 4.473168 -1.326016 5 0 5 
z
"/>
    </defs>
    <g clip-path="url(#p60e90233dc)">
     <use xlink:href="#C0_0_3f7fa8b806" x="103.574635" y="349.619551" style="fill: #ff0000; fill-opacity: 0.5"/>
    </g>
    <g clip-path="url(#p60e90233dc)">
     <use xlink:href="#C0_0_3f7fa8b806" x="103.547386" y="329.190613" style="fill: #ff0000; fill-opacity: 0.5"/>
    </g>
    <g clip-path="url(#p60e90233dc)">
     <use xlink:href="#C0_0_3f7fa8b806" x="103.869507" y="365.270091" style="fill: #ff0000; fill-opacity: 0.5"/>
    </g>
    <g clip-path="url(#p60e90233dc)">
     <use xlink:href="#C0_0_3f7fa8b806" x="109.358247" y="286.089996" style="fill: #ff0000; fill-opacity: 0.5"/>
    </g>
    <g clip-path="url(#p60e90233dc)">
     <use xlink:href="#C0_0_3f7fa8b806" x="108.510805" y="276.048679" style="fill: #ff0000; fill-opacity: 0.5"/>
    </g>
    <g clip-path="url(#p60e90233dc)">
     <use xlink:href="#C0_0_3f7fa8b806" x="102.337015" y="378.818058" style="fill: #ff0000; fill-opacity: 0.5"/>
    </g>
    <g clip-path="url(#p60e90233dc)">
     <use xlink:href="#C0_0_3f7fa8b806" x="101.061532" y="374.657629" style="fill: #ff0000; fill-opacity: 0.5"/>
    </g>
    <g clip-path="url(#p60e90233dc)">
     <use xlink:href="#C0_0_3f7fa8b806" x="107.185895" y="386.741242" style="fill: #ff0000; fill-opacity: 0.5"/>
    </g>
    <g clip-path="url(#p60e90233dc)">
     <use xlink:href="#C0_0_3f7fa8b806" x="107.696166" y="240.096046" style="fill: #ff0000; fill-opacity: 0.5"/>
    </g>
    <g clip-path="url(#p60e90233dc)">
     <use xlink:href="#C0_0_3f7fa8b806" x="109.306719" y="364.267477" style="fill: #ff0000; fill-opacity: 0.5"/>
    </g>
    <g clip-path="url(#p60e90233dc)">
     <use xlink:href="#C0_0_3f7fa8b806" x="107.177348" y="234.050452" style="fill: #ff0000; fill-opacity: 0.5"/>
    </g>
    <g clip-path="url(#p60e90233dc)">
     <use xlink:href="#C0_0_3f7fa8b806" x="105.535831" y="362.930125" style="fill: #ff0000; fill-opacity: 0.5"/>
    </g>
    <g clip-path="url(#p60e90233dc)">
     <use xlink:href="#C0_0_3f7fa8b806" x="109.542066" y="347.047557" style="fill: #ff0000; fill-opacity: 0.5"/>
    </g>
    <g clip-path="url(#p60e90233dc)">
     <use xlink:href="#C0_0_3f7fa8b806" x="106.917802" y="272.443946" style="fill: #ff0000; fill-opacity: 0.5"/>
    </g>
    <g clip-path="url(#p60e90233dc)">
     <use xlink:href="#C0_0_3f7fa8b806" x="104.931909" y="334.660327" style="fill: #ff0000; fill-opacity: 0.5"/>
    </g>
    <g clip-path="url(#p60e90233dc)">
     <use xlink:href="#C0_0_3f7fa8b806" x="106.767416" y="368.968945" style="fill: #ff0000; fill-opacity: 0.5"/>
    </g>
    <g clip-path="url(#p60e90233dc)">
     <use xlink:href="#C0_0_3f7fa8b806" x="110.654538" y="349.428182" style="fill: #ff0000; fill-opacity: 0.5"/>
    </g>
    <g clip-path="url(#p60e90233dc)">
     <use xlink:href="#C0_0_3f7fa8b806" x="112.103913" y="310.552508" style="fill: #ff0000; fill-opacity: 0.5"/>
    </g>
    <g clip-path="url(#p60e90233dc)">
     <use xlink:href="#C0_0_3f7fa8b806" x="105.288922" y="364.156159" style="fill: #ff0000; fill-opacity: 0.5"/>
    </g>
    <g clip-path="url(#p60e90233dc)">
     <use xlink:href="#C0_0_3f7fa8b806" x="106.180522" y="360.670813" style="fill: #ff0000; fill-opacity: 0.5"/>
    </g>
    <g clip-path="url(#p60e90233dc)">
     <use xlink:href="#C0_0_3f7fa8b806" x="104.317094" y="263.610303" style="fill: #ff0000; fill-opacity: 0.5"/>
    </g>
    <g clip-path="url(#p60e90233dc)">
     <use xlink:href="#C0_0_3f7fa8b806" x="106.054856" y="359.221909" style="fill: #ff0000; fill-opacity: 0.5"/>
    </g>
    <g clip-path="url(#p60e90233dc)">
     <use xlink:href="#C0_0_3f7fa8b806" x="106.116365" y="361.907293" style="fill: #ff0000; fill-opacity: 0.5"/>
    </g>
    <g clip-path="url(#p60e90233dc)">
     <use xlink:href="#C0_0_3f7fa8b806" x="104.119242" y="356.589413" style="fill: #ff0000; fill-opacity: 0.5"/>
    </g>
    <g clip-path="url(#p60e90233dc)">
     <use xlink:href="#C0_0_3f7fa8b806" x="111.019343" y="311.25585" style="fill: #ff0000; fill-opacity: 0.5"/>
    </g>
    <g clip-path="url(#p60e90233dc)">
     <use xlink:href="#C0_0_3f7fa8b806" x="109.413537" y="313.373127" style="fill: #ff0000; fill-opacity: 0.5"/>
    </g>
    <g clip-path="url(#p60e90233dc)">
     <use xlink:href="#C0_0_3f7fa8b806" x="107.061206" y="244.67845" style="fill: #ff0000; fill-opacity: 0.5"/>
    </g>
    <g clip-path="url(#p60e90233dc)">
     <use xlink:href="#C0_0_3f7fa8b806" x="105.38472" y="340.474149" style="fill: #ff0000; fill-opacity: 0.5"/>
    </g>
    <g clip-path="url(#p60e90233dc)">
     <use xlink:href="#C0_0_3f7fa8b806" x="109.353026" y="318.586239" style="fill: #ff0000; fill-opacity: 0.5"/>
    </g>
    <g clip-path="url(#p60e90233dc)">
     <use xlink:href="#C0_0_3f7fa8b806" x="105.833285" y="372.73341" style="fill: #ff0000; fill-opacity: 0.5"/>
    </g>
    <g clip-path="url(#p60e90233dc)">
     <use xlink:href="#C0_0_3f7fa8b806" x="114.622741" y="357.185517" style="fill: #ff0000; fill-opacity: 0.5"/>
    </g>
    <g clip-path="url(#p60e90233dc)">
     <use xlink:href="#C0_0_3f7fa8b806" x="108.513278" y="344.9533" style="fill: #ff0000; fill-opacity: 0.5"/>
    </g>
    <g clip-path="url(#p60e90233dc)">
     <use xlink:href="#C0_0_3f7fa8b806" x="105.982061" y="320.935893" style="fill: #ff0000; fill-opacity: 0.5"/>
    </g>
    <g clip-path="url(#p60e90233dc)">
     <use xlink:href="#C0_0_3f7fa8b806" x="105.605039" y="288.009156" style="fill: #ff0000; fill-opacity: 0.5"/>
    </g>
    <g clip-path="url(#p60e90233dc)">
     <use xlink:href="#C0_0_3f7fa8b806" x="112.633991" y="378.976202" style="fill: #ff0000; fill-opacity: 0.5"/>
    </g>
    <g clip-path="url(#p60e90233dc)">
     <use xlink:href="#C0_0_3f7fa8b806" x="105.209888" y="193.292704" style="fill: #ff0000; fill-opacity: 0.5"/>
    </g>
    <g clip-path="url(#p60e90233dc)">
     <use xlink:href="#C0_0_3f7fa8b806" x="111.14266" y="295.975766" style="fill: #ff0000; fill-opacity: 0.5"/>
    </g>
    <g clip-path="url(#p60e90233dc)">
     <use xlink:href="#C0_0_3f7fa8b806" x="111.800146" y="345.571796" style="fill: #ff0000; fill-opacity: 0.5"/>
    </g>
    <g clip-path="url(#p60e90233dc)">
     <use xlink:href="#C0_0_3f7fa8b806" x="103.429734" y="372.142798" style="fill: #ff0000; fill-opacity: 0.5"/>
    </g>
    <g clip-path="url(#p60e90233dc)">
     <use xlink:href="#C0_0_3f7fa8b806" x="109.620985" y="83.751636" style="fill: #ff0000; fill-opacity: 0.5"/>
    </g>
    <g clip-path="url(#p60e90233dc)">
     <use xlink:href="#C0_0_3f7fa8b806" x="109.676299" y="366.647768" style="fill: #ff0000; fill-opacity: 0.5"/>
    </g>
    <g clip-path="url(#p60e90233dc)">
     <use xlink:href="#C0_0_3f7fa8b806" x="108.238021" y="367.147555" style="fill: #ff0000; fill-opacity: 0.5"/>
    </g>
   </g>
   <g id="PathCollection_2">
    <defs>
     <path id="C1_0_d967bf849f" d="M 0 5 
C 1.326016 5 2.597899 4.473168 3.535534 3.535534 
C 4.473168 2.597899 5 1.326016 5 -0 
C 5 -1.326016 4.473168 -2.597899 3.535534 -3.535534 
C 2.597899 -4.473168 1.326016 -5 0 -5 
C -1.326016 -5 -2.597899 -4.473168 -3.535534 -3.535534 
C -4.473168 -2.597899 -5 -1.326016 -5 0 
C -5 1.326016 -4.473168 2.597899 -3.535534 3.535534 
C -2.597899 4.473168 -1.326016 5 0 5 
z
"/>
    </defs>
    <g clip-path="url(#p60e90233dc)">
     <use xlink:href="#C1_0_d967bf849f" x="218.281646" y="376.540056" style="fill: #808080; fill-opacity: 0.5"/>
    </g>
    <g clip-path="url(#p60e90233dc)">
     <use xlink:href="#C1_0_d967bf849f" x="218.350445" y="335.577834" style="fill: #808080; fill-opacity: 0.5"/>
    </g>
    <g clip-path="url(#p60e90233dc)">
     <use xlink:href="#C1_0_d967bf849f" x="217.034544" y="288.594067" style="fill: #808080; fill-opacity: 0.5"/>
    </g>
    <g clip-path="url(#p60e90233dc)">
     <use xlink:href="#C1_0_d967bf849f" x="221.977825" y="328.31172" style="fill: #808080; fill-opacity: 0.5"/>
    </g>
    <g clip-path="url(#p60e90233dc)">
     <use xlink:href="#C1_0_d967bf849f" x="218.053727" y="319.081488" style="fill: #808080; fill-opacity: 0.5"/>
    </g>
    <g clip-path="url(#p60e90233dc)">
     <use xlink:href="#C1_0_d967bf849f" x="218.665781" y="373.79148" style="fill: #808080; fill-opacity: 0.5"/>
    </g>
    <g clip-path="url(#p60e90233dc)">
     <use xlink:href="#C1_0_d967bf849f" x="214.771519" y="305.609833" style="fill: #808080; fill-opacity: 0.5"/>
    </g>
    <g clip-path="url(#p60e90233dc)">
     <use xlink:href="#C1_0_d967bf849f" x="215.013465" y="350.501204" style="fill: #808080; fill-opacity: 0.5"/>
    </g>
    <g clip-path="url(#p60e90233dc)">
     <use xlink:href="#C1_0_d967bf849f" x="207.652928" y="372.533965" style="fill: #808080; fill-opacity: 0.5"/>
    </g>
    <g clip-path="url(#p60e90233dc)">
     <use xlink:href="#C1_0_d967bf849f" x="213.358404" y="345.308579" style="fill: #808080; fill-opacity: 0.5"/>
    </g>
    <g clip-path="url(#p60e90233dc)">
     <use xlink:href="#C1_0_d967bf849f" x="214.329467" y="351.70347" style="fill: #808080; fill-opacity: 0.5"/>
    </g>
    <g clip-path="url(#p60e90233dc)">
     <use xlink:href="#C1_0_d967bf849f" x="218.211331" y="346.486607" style="fill: #808080; fill-opacity: 0.5"/>
    </g>
    <g clip-path="url(#p60e90233dc)">
     <use xlink:href="#C1_0_d967bf849f" x="217.686743" y="340.053811" style="fill: #808080; fill-opacity: 0.5"/>
    </g>
    <g clip-path="url(#p60e90233dc)">
     <use xlink:href="#C1_0_d967bf849f" x="215.655082" y="358.61361" style="fill: #808080; fill-opacity: 0.5"/>
    </g>
    <g clip-path="url(#p60e90233dc)">
     <use xlink:href="#C1_0_d967bf849f" x="228.758724" y="243.73886" style="fill: #808080; fill-opacity: 0.5"/>
    </g>
    <g clip-path="url(#p60e90233dc)">
     <use xlink:href="#C1_0_d967bf849f" x="221.918856" y="372.527311" style="fill: #808080; fill-opacity: 0.5"/>
    </g>
    <g clip-path="url(#p60e90233dc)">
     <use xlink:href="#C1_0_d967bf849f" x="219.839468" y="343.965826" style="fill: #808080; fill-opacity: 0.5"/>
    </g>
    <g clip-path="url(#p60e90233dc)">
     <use xlink:href="#C1_0_d967bf849f" x="220.023582" y="376.782742" style="fill: #808080; fill-opacity: 0.5"/>
    </g>
    <g clip-path="url(#p60e90233dc)">
     <use xlink:href="#C1_0_d967bf849f" x="216.070102" y="225.131129" style="fill: #808080; fill-opacity: 0.5"/>
    </g>
    <g clip-path="url(#p60e90233dc)">
     <use xlink:href="#C1_0_d967bf849f" x="229.229904" y="371.141367" style="fill: #808080; fill-opacity: 0.5"/>
    </g>
    <g clip-path="url(#p60e90233dc)">
     <use xlink:href="#C1_0_d967bf849f" x="215.989904" y="295.584294" style="fill: #808080; fill-opacity: 0.5"/>
    </g>
    <g clip-path="url(#p60e90233dc)">
     <use xlink:href="#C1_0_d967bf849f" x="222.845038" y="302.294629" style="fill: #808080; fill-opacity: 0.5"/>
    </g>
    <g clip-path="url(#p60e90233dc)">
     <use xlink:href="#C1_0_d967bf849f" x="221.732752" y="360.166412" style="fill: #808080; fill-opacity: 0.5"/>
    </g>
    <g clip-path="url(#p60e90233dc)">
     <use xlink:href="#C1_0_d967bf849f" x="218.848189" y="336.39656" style="fill: #808080; fill-opacity: 0.5"/>
    </g>
    <g clip-path="url(#p60e90233dc)">
     <use xlink:href="#C1_0_d967bf849f" x="228.861233" y="286.313153" style="fill: #808080; fill-opacity: 0.5"/>
    </g>
    <g clip-path="url(#p60e90233dc)">
     <use xlink:href="#C1_0_d967bf849f" x="227.175387" y="366.123786" style="fill: #808080; fill-opacity: 0.5"/>
    </g>
    <g clip-path="url(#p60e90233dc)">
     <use xlink:href="#C1_0_d967bf849f" x="216.849107" y="367.510456" style="fill: #808080; fill-opacity: 0.5"/>
    </g>
    <g clip-path="url(#p60e90233dc)">
     <use xlink:href="#C1_0_d967bf849f" x="220.636301" y="186.492709" style="fill: #808080; fill-opacity: 0.5"/>
    </g>
    <g clip-path="url(#p60e90233dc)">
     <use xlink:href="#C1_0_d967bf849f" x="218.634028" y="366.8511" style="fill: #808080; fill-opacity: 0.5"/>
    </g>
    <g clip-path="url(#p60e90233dc)">
     <use xlink:href="#C1_0_d967bf849f" x="218.14741" y="247.395575" style="fill: #808080; fill-opacity: 0.5"/>
    </g>
    <g clip-path="url(#p60e90233dc)">
     <use xlink:href="#C1_0_d967bf849f" x="221.442856" y="313.495648" style="fill: #808080; fill-opacity: 0.5"/>
    </g>
    <g clip-path="url(#p60e90233dc)">
     <use xlink:href="#C1_0_d967bf849f" x="218.999003" y="329.133473" style="fill: #808080; fill-opacity: 0.5"/>
    </g>
    <g clip-path="url(#p60e90233dc)">
     <use xlink:href="#C1_0_d967bf849f" x="217.484005" y="375.30962" style="fill: #808080; fill-opacity: 0.5"/>
    </g>
    <g clip-path="url(#p60e90233dc)">
     <use xlink:href="#C1_0_d967bf849f" x="215.514358" y="357.902963" style="fill: #808080; fill-opacity: 0.5"/>
    </g>
    <g clip-path="url(#p60e90233dc)">
     <use xlink:href="#C1_0_d967bf849f" x="229.435037" y="316.410304" style="fill: #808080; fill-opacity: 0.5"/>
    </g>
    <g clip-path="url(#p60e90233dc)">
     <use xlink:href="#C1_0_d967bf849f" x="224.165719" y="368.66733" style="fill: #808080; fill-opacity: 0.5"/>
    </g>
    <g clip-path="url(#p60e90233dc)">
     <use xlink:href="#C1_0_d967bf849f" x="221.109093" y="278.953051" style="fill: #808080; fill-opacity: 0.5"/>
    </g>
    <g clip-path="url(#p60e90233dc)">
     <use xlink:href="#C1_0_d967bf849f" x="214.581037" y="349.206445" style="fill: #808080; fill-opacity: 0.5"/>
    </g>
    <g clip-path="url(#p60e90233dc)">
     <use xlink:href="#C1_0_d967bf849f" x="220.421463" y="261.653273" style="fill: #808080; fill-opacity: 0.5"/>
    </g>
    <g clip-path="url(#p60e90233dc)">
     <use xlink:href="#C1_0_d967bf849f" x="235.316077" y="375.506565" style="fill: #808080; fill-opacity: 0.5"/>
    </g>
    <g clip-path="url(#p60e90233dc)">
     <use xlink:href="#C1_0_d967bf849f" x="220.430175" y="371.913423" style="fill: #808080; fill-opacity: 0.5"/>
    </g>
    <g clip-path="url(#p60e90233dc)">
     <use xlink:href="#C1_0_d967bf849f" x="224.239716" y="373.944789" style="fill: #808080; fill-opacity: 0.5"/>
    </g>
    <g clip-path="url(#p60e90233dc)">
     <use xlink:href="#C1_0_d967bf849f" x="216.463992" y="293.071438" style="fill: #808080; fill-opacity: 0.5"/>
    </g>
    <g clip-path="url(#p60e90233dc)">
     <use xlink:href="#C1_0_d967bf849f" x="215.766481" y="352.284715" style="fill: #808080; fill-opacity: 0.5"/>
    </g>
    <g clip-path="url(#p60e90233dc)">
     <use xlink:href="#C1_0_d967bf849f" x="215.091803" y="377.983428" style="fill: #808080; fill-opacity: 0.5"/>
    </g>
    <g clip-path="url(#p60e90233dc)">
     <use xlink:href="#C1_0_d967bf849f" x="220.866645" y="386.686756" style="fill: #808080; fill-opacity: 0.5"/>
    </g>
    <g clip-path="url(#p60e90233dc)">
     <use xlink:href="#C1_0_d967bf849f" x="214.066908" y="327.412453" style="fill: #808080; fill-opacity: 0.5"/>
    </g>
    <g clip-path="url(#p60e90233dc)">
     <use xlink:href="#C1_0_d967bf849f" x="223.786998" y="388.864364" style="fill: #808080; fill-opacity: 0.5"/>
    </g>
    <g clip-path="url(#p60e90233dc)">
     <use xlink:href="#C1_0_d967bf849f" x="230.679556" y="351.614686" style="fill: #808080; fill-opacity: 0.5"/>
    </g>
    <g clip-path="url(#p60e90233dc)">
     <use xlink:href="#C1_0_d967bf849f" x="218.013285" y="289.837935" style="fill: #808080; fill-opacity: 0.5"/>
    </g>
    <g clip-path="url(#p60e90233dc)">
     <use xlink:href="#C1_0_d967bf849f" x="222.267746" y="361.38053" style="fill: #808080; fill-opacity: 0.5"/>
    </g>
    <g clip-path="url(#p60e90233dc)">
     <use xlink:href="#C1_0_d967bf849f" x="214.125715" y="348.381571" style="fill: #808080; fill-opacity: 0.5"/>
    </g>
    <g clip-path="url(#p60e90233dc)">
     <use xlink:href="#C1_0_d967bf849f" x="225.787432" y="319.194208" style="fill: #808080; fill-opacity: 0.5"/>
    </g>
    <g clip-path="url(#p60e90233dc)">
     <use xlink:href="#C1_0_d967bf849f" x="222.499621" y="345.11706" style="fill: #808080; fill-opacity: 0.5"/>
    </g>
    <g clip-path="url(#p60e90233dc)">
     <use xlink:href="#C1_0_d967bf849f" x="222.933496" y="242.822864" style="fill: #808080; fill-opacity: 0.5"/>
    </g>
    <g clip-path="url(#p60e90233dc)">
     <use xlink:href="#C1_0_d967bf849f" x="230.374646" y="327.616407" style="fill: #808080; fill-opacity: 0.5"/>
    </g>
    <g clip-path="url(#p60e90233dc)">
     <use xlink:href="#C1_0_d967bf849f" x="218.453057" y="332.950255" style="fill: #808080; fill-opacity: 0.5"/>
    </g>
    <g clip-path="url(#p60e90233dc)">
     <use xlink:href="#C1_0_d967bf849f" x="219.241202" y="346.718581" style="fill: #808080; fill-opacity: 0.5"/>
    </g>
    <g clip-path="url(#p60e90233dc)">
     <use xlink:href="#C1_0_d967bf849f" x="229.511452" y="352.502548" style="fill: #808080; fill-opacity: 0.5"/>
    </g>
    <g clip-path="url(#p60e90233dc)">
     <use xlink:href="#C1_0_d967bf849f" x="224.27183" y="364.421225" style="fill: #808080; fill-opacity: 0.5"/>
    </g>
    <g clip-path="url(#p60e90233dc)">
     <use xlink:href="#C1_0_d967bf849f" x="219.369858" y="337.17132" style="fill: #808080; fill-opacity: 0.5"/>
    </g>
    <g clip-path="url(#p60e90233dc)">
     <use xlink:href="#C1_0_d967bf849f" x="217.496328" y="329.762016" style="fill: #808080; fill-opacity: 0.5"/>
    </g>
    <g clip-path="url(#p60e90233dc)">
     <use xlink:href="#C1_0_d967bf849f" x="215.506746" y="352.926568" style="fill: #808080; fill-opacity: 0.5"/>
    </g>
    <g clip-path="url(#p60e90233dc)">
     <use xlink:href="#C1_0_d967bf849f" x="215.400682" y="299.961167" style="fill: #808080; fill-opacity: 0.5"/>
    </g>
    <g clip-path="url(#p60e90233dc)">
     <use xlink:href="#C1_0_d967bf849f" x="225.59557" y="270.952301" style="fill: #808080; fill-opacity: 0.5"/>
    </g>
    <g clip-path="url(#p60e90233dc)">
     <use xlink:href="#C1_0_d967bf849f" x="228.414401" y="350.579373" style="fill: #808080; fill-opacity: 0.5"/>
    </g>
    <g clip-path="url(#p60e90233dc)">
     <use xlink:href="#C1_0_d967bf849f" x="221.460844" y="352.969077" style="fill: #808080; fill-opacity: 0.5"/>
    </g>
    <g clip-path="url(#p60e90233dc)">
     <use xlink:href="#C1_0_d967bf849f" x="218.892385" y="257.638655" style="fill: #808080; fill-opacity: 0.5"/>
    </g>
    <g clip-path="url(#p60e90233dc)">
     <use xlink:href="#C1_0_d967bf849f" x="221.479032" y="330.299688" style="fill: #808080; fill-opacity: 0.5"/>
    </g>
    <g clip-path="url(#p60e90233dc)">
     <use xlink:href="#C1_0_d967bf849f" x="219.381905" y="379.599614" style="fill: #808080; fill-opacity: 0.5"/>
    </g>
    <g clip-path="url(#p60e90233dc)">
     <use xlink:href="#C1_0_d967bf849f" x="220.549627" y="244.403713" style="fill: #808080; fill-opacity: 0.5"/>
    </g>
    <g clip-path="url(#p60e90233dc)">
     <use xlink:href="#C1_0_d967bf849f" x="215.544991" y="382.630964" style="fill: #808080; fill-opacity: 0.5"/>
    </g>
    <g clip-path="url(#p60e90233dc)">
     <use xlink:href="#C1_0_d967bf849f" x="218.469322" y="370.289473" style="fill: #808080; fill-opacity: 0.5"/>
    </g>
    <g clip-path="url(#p60e90233dc)">
     <use xlink:href="#C1_0_d967bf849f" x="226.345388" y="274.623913" style="fill: #808080; fill-opacity: 0.5"/>
    </g>
    <g clip-path="url(#p60e90233dc)">
     <use xlink:href="#C1_0_d967bf849f" x="228.861911" y="322.69535" style="fill: #808080; fill-opacity: 0.5"/>
    </g>
    <g clip-path="url(#p60e90233dc)">
     <use xlink:href="#C1_0_d967bf849f" x="214.65061" y="317.764409" style="fill: #808080; fill-opacity: 0.5"/>
    </g>
    <g clip-path="url(#p60e90233dc)">
     <use xlink:href="#C1_0_d967bf849f" x="230.873913" y="381.222336" style="fill: #808080; fill-opacity: 0.5"/>
    </g>
    <g clip-path="url(#p60e90233dc)">
     <use xlink:href="#C1_0_d967bf849f" x="221.086644" y="367.239992" style="fill: #808080; fill-opacity: 0.5"/>
    </g>
    <g clip-path="url(#p60e90233dc)">
     <use xlink:href="#C1_0_d967bf849f" x="211.115982" y="344.652295" style="fill: #808080; fill-opacity: 0.5"/>
    </g>
    <g clip-path="url(#p60e90233dc)">
     <use xlink:href="#C1_0_d967bf849f" x="212.858412" y="315.932378" style="fill: #808080; fill-opacity: 0.5"/>
    </g>
    <g clip-path="url(#p60e90233dc)">
     <use xlink:href="#C1_0_d967bf849f" x="217.898035" y="354.522138" style="fill: #808080; fill-opacity: 0.5"/>
    </g>
    <g clip-path="url(#p60e90233dc)">
     <use xlink:href="#C1_0_d967bf849f" x="216.125099" y="382.171115" style="fill: #808080; fill-opacity: 0.5"/>
    </g>
    <g clip-path="url(#p60e90233dc)">
     <use xlink:href="#C1_0_d967bf849f" x="225.75169" y="348.75027" style="fill: #808080; fill-opacity: 0.5"/>
    </g>
    <g clip-path="url(#p60e90233dc)">
     <use xlink:href="#C1_0_d967bf849f" x="223.768505" y="340.122776" style="fill: #808080; fill-opacity: 0.5"/>
    </g>
    <g clip-path="url(#p60e90233dc)">
     <use xlink:href="#C1_0_d967bf849f" x="208.637484" y="356.690209" style="fill: #808080; fill-opacity: 0.5"/>
    </g>
    <g clip-path="url(#p60e90233dc)">
     <use xlink:href="#C1_0_d967bf849f" x="229.574653" y="344.253503" style="fill: #808080; fill-opacity: 0.5"/>
    </g>
    <g clip-path="url(#p60e90233dc)">
     <use xlink:href="#C1_0_d967bf849f" x="234.222775" y="372.501564" style="fill: #808080; fill-opacity: 0.5"/>
    </g>
    <g clip-path="url(#p60e90233dc)">
     <use xlink:href="#C1_0_d967bf849f" x="225.590691" y="335.886379" style="fill: #808080; fill-opacity: 0.5"/>
    </g>
   </g>
   <g id="FillBetweenPolyCollection_1">
    <path d="M 118.90122 386.741242 
L 96.27378 386.741242 
L 95.34286 383.680741 
L 94.454704 380.62024 
L 93.627001 377.559739 
L 92.876347 374.499238 
L 92.217545 371.438737 
L 91.662991 368.378236 
L 91.222155 365.317735 
L 90.901216 362.257234 
L 90.702859 359.196733 
L 90.62625 356.136232 
L 90.667185 353.07573 
L 90.818403 350.015229 
L 91.07003 346.954728 
L 91.410136 343.894227 
L 91.825342 340.833726 
L 92.301462 337.773225 
L 92.824126 334.712724 
L 93.379344 331.652223 
L 93.954001 328.591722 
L 94.536246 325.531221 
L 95.115775 322.47072 
L 95.683992 319.410219 
L 96.234084 316.349718 
L 96.760976 313.289217 
L 97.261236 310.228716 
L 97.7329 307.168214 
L 98.175271 304.107713 
L 98.588694 301.047212 
L 98.974333 297.986711 
L 99.33395 294.92621 
L 99.669707 291.865709 
L 99.984002 288.805208 
L 100.279326 285.744707 
L 100.558155 282.684206 
L 100.822868 279.623705 
L 101.075699 276.563204 
L 101.318698 273.502703 
L 101.553718 270.442202 
L 101.782407 267.381701 
L 102.006207 264.321199 
L 102.226357 261.260698 
L 102.44389 258.200197 
L 102.659628 255.139696 
L 102.874181 252.079195 
L 103.087936 249.018694 
L 103.301049 245.958193 
L 103.513444 242.897692 
L 103.724817 239.837191 
L 103.934652 236.77669 
L 104.142246 233.716189 
L 104.346747 230.655688 
L 104.547206 227.595187 
L 104.742632 224.534686 
L 104.932059 221.474184 
L 105.1146 218.413683 
L 105.289508 215.353182 
L 105.456216 212.292681 
L 105.614363 209.23218 
L 105.763809 206.171679 
L 105.904623 203.111178 
L 106.037056 200.050677 
L 106.16151 196.990176 
L 106.27848 193.929675 
L 106.388509 190.869174 
L 106.492129 187.808673 
L 106.589822 184.748172 
L 106.681978 181.687671 
L 106.768872 178.62717 
L 106.850652 175.566668 
L 106.92734 172.506167 
L 106.99884 169.445666 
L 107.064962 166.385165 
L 107.125448 163.324664 
L 107.179992 160.264163 
L 107.228276 157.203662 
L 107.269992 154.143161 
L 107.304862 151.08266 
L 107.33266 148.022159 
L 107.353227 144.961658 
L 107.366482 141.901157 
L 107.372432 138.840656 
L 107.371183 135.780155 
L 107.362952 132.719653 
L 107.348072 129.659152 
L 107.327006 126.598651 
L 107.30035 123.53815 
L 107.268842 120.477649 
L 107.233356 117.417148 
L 107.194904 114.356647 
L 107.154613 111.296146 
L 107.113709 108.235645 
L 107.073478 105.175144 
L 107.035232 102.114643 
L 107.000256 99.054142 
L 106.969762 95.993641 
L 106.944832 92.93314 
L 106.926374 89.872639 
L 106.915074 86.812137 
L 106.911366 83.751636 
L 108.263634 83.751636 
L 108.263634 83.751636 
L 108.259926 86.812137 
L 108.248626 89.872639 
L 108.230168 92.93314 
L 108.205238 95.993641 
L 108.174744 99.054142 
L 108.139768 102.114643 
L 108.101522 105.175144 
L 108.061291 108.235645 
L 108.020387 111.296146 
L 107.980096 114.356647 
L 107.941644 117.417148 
L 107.906158 120.477649 
L 107.87465 123.53815 
L 107.847994 126.598651 
L 107.826928 129.659152 
L 107.812048 132.719653 
L 107.803817 135.780155 
L 107.802568 138.840656 
L 107.808518 141.901157 
L 107.821773 144.961658 
L 107.84234 148.022159 
L 107.870138 151.08266 
L 107.905008 154.143161 
L 107.946724 157.203662 
L 107.995008 160.264163 
L 108.049552 163.324664 
L 108.110038 166.385165 
L 108.17616 169.445666 
L 108.24766 172.506167 
L 108.324348 175.566668 
L 108.406128 178.62717 
L 108.493022 181.687671 
L 108.585178 184.748172 
L 108.682871 187.808673 
L 108.786491 190.869174 
L 108.89652 193.929675 
L 109.01349 196.990176 
L 109.137944 200.050677 
L 109.270377 203.111178 
L 109.411191 206.171679 
L 109.560637 209.23218 
L 109.718784 212.292681 
L 109.885492 215.353182 
L 110.0604 218.413683 
L 110.242941 221.474184 
L 110.432368 224.534686 
L 110.627794 227.595187 
L 110.828253 230.655688 
L 111.032754 233.716189 
L 111.240348 236.77669 
L 111.450183 239.837191 
L 111.661556 242.897692 
L 111.873951 245.958193 
L 112.087064 249.018694 
L 112.300819 252.079195 
L 112.515372 255.139696 
L 112.73111 258.200197 
L 112.948643 261.260698 
L 113.168793 264.321199 
L 113.392593 267.381701 
L 113.621282 270.442202 
L 113.856302 273.502703 
L 114.099301 276.563204 
L 114.352132 279.623705 
L 114.616845 282.684206 
L 114.895674 285.744707 
L 115.190998 288.805208 
L 115.505293 291.865709 
L 115.84105 294.92621 
L 116.200667 297.986711 
L 116.586306 301.047212 
L 116.999729 304.107713 
L 117.4421 307.168214 
L 117.913764 310.228716 
L 118.414024 313.289217 
L 118.940916 316.349718 
L 119.491008 319.410219 
L 120.059225 322.47072 
L 120.638754 325.531221 
L 121.220999 328.591722 
L 121.795656 331.652223 
L 122.350874 334.712724 
L 122.873538 337.773225 
L 123.349658 340.833726 
L 123.764864 343.894227 
L 124.10497 346.954728 
L 124.356597 350.015229 
L 124.507815 353.07573 
L 124.54875 356.136232 
L 124.472141 359.196733 
L 124.273784 362.257234 
L 123.952845 365.317735 
L 123.512009 368.378236 
L 122.957455 371.438737 
L 122.298653 374.499238 
L 121.547999 377.559739 
L 120.720296 380.62024 
L 119.83214 383.680741 
L 118.90122 386.741242 
z
" clip-path="url(#p60e90233dc)" style="fill: #f08080; fill-opacity: 0.3"/>
   </g>
   <g id="FillBetweenPolyCollection_2">
    <path d="M 231.138058 388.864364 
L 210.186942 388.864364 
L 209.030466 386.820206 
L 207.866081 384.776047 
L 206.710899 382.731889 
L 205.58182 380.687731 
L 204.49487 378.643573 
L 203.464628 376.599415 
L 202.503796 374.555257 
L 201.622917 372.511099 
L 200.83028 370.46694 
L 200.131968 368.422782 
L 199.532057 366.378624 
L 199.032888 364.334466 
L 198.635395 362.290308 
L 198.339422 360.24615 
L 198.143992 358.201992 
L 198.0475 356.157834 
L 198.04782 354.113675 
L 198.142319 352.069517 
L 198.327809 350.025359 
L 198.600445 347.981201 
L 198.955623 345.937043 
L 199.387885 343.892885 
L 199.890878 341.848727 
L 200.457365 339.804569 
L 201.079299 337.76041 
L 201.747966 335.716252 
L 202.454165 333.672094 
L 203.18842 331.627936 
L 203.941213 329.583778 
L 204.703198 327.53962 
L 205.465416 325.495462 
L 206.219474 323.451304 
L 206.957705 321.407145 
L 207.673304 319.362987 
L 208.36043 317.318829 
L 209.014301 315.274671 
L 209.631254 313.230513 
L 210.208781 311.186355 
L 210.745538 309.142197 
L 211.24132 307.098039 
L 211.696984 305.05388 
L 212.11434 303.009722 
L 212.495989 300.965564 
L 212.845133 298.921406 
L 213.165347 296.877248 
L 213.460347 294.83309 
L 213.733752 292.788932 
L 213.988878 290.744774 
L 214.22856 288.700615 
L 214.455034 286.656457 
L 214.669869 284.612299 
L 214.873973 282.568141 
L 215.067653 280.523983 
L 215.250736 278.479825 
L 215.422721 276.435667 
L 215.58297 274.391509 
L 215.730897 272.34735 
L 215.866158 270.303192 
L 215.988806 268.259034 
L 216.099417 266.214876 
L 216.199159 264.170718 
L 216.289807 262.12656 
L 216.373701 260.082402 
L 216.453641 258.038244 
L 216.532746 255.994085 
L 216.614269 253.949927 
L 216.70139 251.905769 
L 216.797013 249.861611 
L 216.903572 247.817453 
L 217.022869 245.773295 
L 217.155954 243.729137 
L 217.303063 241.684979 
L 217.463606 239.64082 
L 217.636216 237.596662 
L 217.818844 235.552504 
L 218.00889 233.508346 
L 218.203362 231.464188 
L 218.399049 229.42003 
L 218.592682 227.375872 
L 218.781095 225.331714 
L 218.961356 223.287555 
L 219.130877 221.243397 
L 219.287497 219.199239 
L 219.429539 217.155081 
L 219.555842 215.110923 
L 219.665774 213.066765 
L 219.759229 211.022607 
L 219.836606 208.978449 
L 219.898775 206.93429 
L 219.947028 204.890132 
L 219.98302 202.845974 
L 220.008691 200.801816 
L 220.026179 198.757658 
L 220.037724 196.7135 
L 220.045565 194.669342 
L 220.051838 192.625184 
L 220.058473 190.581025 
L 220.067117 188.536867 
L 220.079061 186.492709 
L 221.245939 186.492709 
L 221.245939 186.492709 
L 221.257883 188.536867 
L 221.266527 190.581025 
L 221.273162 192.625184 
L 221.279435 194.669342 
L 221.287276 196.7135 
L 221.298821 198.757658 
L 221.316309 200.801816 
L 221.34198 202.845974 
L 221.377972 204.890132 
L 221.426225 206.93429 
L 221.488394 208.978449 
L 221.565771 211.022607 
L 221.659226 213.066765 
L 221.769158 215.110923 
L 221.895461 217.155081 
L 222.037503 219.199239 
L 222.194123 221.243397 
L 222.363644 223.287555 
L 222.543905 225.331714 
L 222.732318 227.375872 
L 222.925951 229.42003 
L 223.121638 231.464188 
L 223.31611 233.508346 
L 223.506156 235.552504 
L 223.688784 237.596662 
L 223.861394 239.64082 
L 224.021937 241.684979 
L 224.169046 243.729137 
L 224.302131 245.773295 
L 224.421428 247.817453 
L 224.527987 249.861611 
L 224.62361 251.905769 
L 224.710731 253.949927 
L 224.792254 255.994085 
L 224.871359 258.038244 
L 224.951299 260.082402 
L 225.035193 262.12656 
L 225.125841 264.170718 
L 225.225583 266.214876 
L 225.336194 268.259034 
L 225.458842 270.303192 
L 225.594103 272.34735 
L 225.74203 274.391509 
L 225.902279 276.435667 
L 226.074264 278.479825 
L 226.257347 280.523983 
L 226.451027 282.568141 
L 226.655131 284.612299 
L 226.869966 286.656457 
L 227.09644 288.700615 
L 227.336122 290.744774 
L 227.591248 292.788932 
L 227.864653 294.83309 
L 228.159653 296.877248 
L 228.479867 298.921406 
L 228.829011 300.965564 
L 229.21066 303.009722 
L 229.628016 305.05388 
L 230.08368 307.098039 
L 230.579462 309.142197 
L 231.116219 311.186355 
L 231.693746 313.230513 
L 232.310699 315.274671 
L 232.96457 317.318829 
L 233.651696 319.362987 
L 234.367295 321.407145 
L 235.105526 323.451304 
L 235.859584 325.495462 
L 236.621802 327.53962 
L 237.383787 329.583778 
L 238.13658 331.627936 
L 238.870835 333.672094 
L 239.577034 335.716252 
L 240.245701 337.76041 
L 240.867635 339.804569 
L 241.434122 341.848727 
L 241.937115 343.892885 
L 242.369377 345.937043 
L 242.724555 347.981201 
L 242.997191 350.025359 
L 243.182681 352.069517 
L 243.27718 354.113675 
L 243.2775 356.157834 
L 243.181008 358.201992 
L 242.985578 360.24615 
L 242.689605 362.290308 
L 242.292112 364.334466 
L 241.792943 366.378624 
L 241.193032 368.422782 
L 240.49472 370.46694 
L 239.702083 372.511099 
L 238.821204 374.555257 
L 237.860372 376.599415 
L 236.83013 378.643573 
L 235.74318 380.687731 
L 234.614101 382.731889 
L 233.458919 384.776047 
L 232.294534 386.820206 
L 231.138058 388.864364 
z
" clip-path="url(#p60e90233dc)" style="fill: #808080; fill-opacity: 0.3"/>
   </g>
   <g id="matplotlib.axis_1">
    <g id="xtick_1">
     <g id="line2d_1">
      <defs>
       <path id="m76be79173d" d="M 0 0 
L 0 3.5 
" style="stroke: #000000; stroke-width: 0.8"/>
      </defs>
      <g>
       <use xlink:href="#m76be79173d" x="107.5875" y="404.12" style="stroke: #000000; stroke-width: 0.8"/>
      </g>
     </g>
     <g id="text_1">
      <!-- Mutants -->
      <g transform="translate(86.461719 418.718437) scale(0.1 -0.1)">
       <defs>
        <path id="DejaVuSerif-4d" d="M 353 0 
L 353 331 
L 947 331 
L 947 4331 
L 319 4331 
L 319 4666 
L 1678 4666 
L 3316 1344 
L 4953 4666 
L 6228 4666 
L 6228 4331 
L 5606 4331 
L 5606 331 
L 6203 331 
L 6203 0 
L 4378 0 
L 4378 331 
L 4972 331 
L 4972 3938 
L 3372 684 
L 2931 684 
L 1331 3938 
L 1331 331 
L 1925 331 
L 1925 0 
L 353 0 
z
" transform="scale(0.015625)"/>
        <path id="DejaVuSerif-75" d="M 2266 3322 
L 3341 3322 
L 3341 331 
L 3884 331 
L 3884 0 
L 2766 0 
L 2766 588 
Q 2606 256 2353 82 
Q 2100 -91 1766 -91 
Q 1213 -91 952 223 
Q 691 538 691 1209 
L 691 2988 
L 172 2988 
L 172 3322 
L 1269 3322 
L 1269 1388 
Q 1269 781 1417 556 
Q 1566 331 1947 331 
Q 2347 331 2556 625 
Q 2766 919 2766 1478 
L 2766 2988 
L 2266 2988 
L 2266 3322 
z
" transform="scale(0.015625)"/>
        <path id="DejaVuSerif-74" d="M 691 2988 
L 184 2988 
L 184 3322 
L 691 3322 
L 691 4353 
L 1269 4353 
L 1269 3322 
L 2350 3322 
L 2350 2988 
L 1269 2988 
L 1269 878 
Q 1269 456 1350 337 
Q 1431 219 1650 219 
Q 1875 219 1978 351 
Q 2081 484 2088 781 
L 2522 781 
Q 2497 328 2275 118 
Q 2053 -91 1600 -91 
Q 1103 -91 897 129 
Q 691 350 691 878 
L 691 2988 
z
" transform="scale(0.015625)"/>
        <path id="DejaVuSerif-61" d="M 2547 1044 
L 2547 1747 
L 1806 1747 
Q 1378 1747 1168 1562 
Q 959 1378 959 997 
Q 959 650 1171 447 
Q 1384 244 1747 244 
Q 2106 244 2326 466 
Q 2547 688 2547 1044 
z
M 3122 2075 
L 3122 331 
L 3634 331 
L 3634 0 
L 2547 0 
L 2547 359 
Q 2356 128 2106 18 
Q 1856 -91 1522 -91 
Q 969 -91 644 203 
Q 319 497 319 997 
Q 319 1513 691 1797 
Q 1063 2081 1741 2081 
L 2547 2081 
L 2547 2309 
Q 2547 2688 2317 2895 
Q 2088 3103 1672 3103 
Q 1328 3103 1125 2947 
Q 922 2791 872 2484 
L 575 2484 
L 575 3156 
Q 875 3284 1158 3348 
Q 1441 3413 1709 3413 
Q 2400 3413 2761 3070 
Q 3122 2728 3122 2075 
z
" transform="scale(0.015625)"/>
        <path id="DejaVuSerif-6e" d="M 263 0 
L 263 331 
L 781 331 
L 781 2988 
L 231 2988 
L 231 3322 
L 1356 3322 
L 1356 2731 
Q 1516 3069 1770 3241 
Q 2025 3413 2363 3413 
Q 2913 3413 3172 3097 
Q 3431 2781 3431 2113 
L 3431 331 
L 3944 331 
L 3944 0 
L 2356 0 
L 2356 331 
L 2853 331 
L 2853 1931 
Q 2853 2541 2703 2767 
Q 2553 2994 2175 2994 
Q 1775 2994 1565 2701 
Q 1356 2409 1356 1850 
L 1356 331 
L 1856 331 
L 1856 0 
L 263 0 
z
" transform="scale(0.015625)"/>
        <path id="DejaVuSerif-73" d="M 359 184 
L 359 959 
L 691 959 
Q 703 588 923 403 
Q 1144 219 1575 219 
Q 1963 219 2166 364 
Q 2369 509 2369 788 
Q 2369 1006 2220 1140 
Q 2072 1275 1594 1428 
L 1178 1569 
Q 750 1706 558 1912 
Q 366 2119 366 2438 
Q 366 2894 700 3153 
Q 1034 3413 1625 3413 
Q 1888 3413 2178 3344 
Q 2469 3275 2778 3144 
L 2778 2419 
L 2447 2419 
Q 2434 2741 2221 2922 
Q 2009 3103 1644 3103 
Q 1281 3103 1095 2975 
Q 909 2847 909 2591 
Q 909 2381 1050 2254 
Q 1191 2128 1613 1997 
L 2069 1856 
Q 2541 1709 2748 1489 
Q 2956 1269 2956 922 
Q 2956 450 2595 179 
Q 2234 -91 1600 -91 
Q 1278 -91 972 -22 
Q 666 47 359 184 
z
" transform="scale(0.015625)"/>
       </defs>
       <use xlink:href="#DejaVuSerif-4d"/>
       <use xlink:href="#DejaVuSerif-75" transform="translate(102.392578 0)"/>
       <use xlink:href="#DejaVuSerif-74" transform="translate(166.796875 0)"/>
       <use xlink:href="#DejaVuSerif-61" transform="translate(206.982422 0)"/>
       <use xlink:href="#DejaVuSerif-6e" transform="translate(266.601562 0)"/>
       <use xlink:href="#DejaVuSerif-74" transform="translate(331.005859 0)"/>
       <use xlink:href="#DejaVuSerif-73" transform="translate(371.191406 0)"/>
      </g>
     </g>
    </g>
    <g id="xtick_2">
     <g id="line2d_2">
      <g>
       <use xlink:href="#m76be79173d" x="220.6625" y="404.12" style="stroke: #000000; stroke-width: 0.8"/>
      </g>
     </g>
     <g id="text_2">
      <!-- Non-members WT -->
      <g transform="translate(174.746094 418.718437) scale(0.1 -0.1)">
       <defs>
        <path id="DejaVuSerif-4e" d="M 313 0 
L 313 331 
L 941 331 
L 941 4331 
L 313 4331 
L 313 4666 
L 1509 4666 
L 4306 984 
L 4306 4331 
L 3681 4331 
L 3681 4666 
L 5319 4666 
L 5319 4331 
L 4691 4331 
L 4691 -91 
L 4313 -91 
L 1325 3841 
L 1325 331 
L 1953 331 
L 1953 0 
L 313 0 
z
" transform="scale(0.015625)"/>
        <path id="DejaVuSerif-6f" d="M 1925 219 
Q 2388 219 2623 584 
Q 2859 950 2859 1663 
Q 2859 2375 2623 2739 
Q 2388 3103 1925 3103 
Q 1463 3103 1227 2739 
Q 991 2375 991 1663 
Q 991 950 1228 584 
Q 1466 219 1925 219 
z
M 1925 -91 
Q 1200 -91 759 389 
Q 319 869 319 1663 
Q 319 2456 758 2934 
Q 1197 3413 1925 3413 
Q 2653 3413 3092 2934 
Q 3531 2456 3531 1663 
Q 3531 869 3092 389 
Q 2653 -91 1925 -91 
z
" transform="scale(0.015625)"/>
        <path id="DejaVuSerif-2d" d="M 281 1959 
L 1881 1959 
L 1881 1472 
L 281 1472 
L 281 1959 
z
" transform="scale(0.015625)"/>
        <path id="DejaVuSerif-6d" d="M 3316 2675 
Q 3481 3041 3739 3227 
Q 3997 3413 4341 3413 
Q 4863 3413 5119 3089 
Q 5375 2766 5375 2113 
L 5375 331 
L 5894 331 
L 5894 0 
L 4300 0 
L 4300 331 
L 4800 331 
L 4800 2047 
Q 4800 2556 4650 2772 
Q 4500 2988 4153 2988 
Q 3769 2988 3567 2697 
Q 3366 2406 3366 1850 
L 3366 331 
L 3866 331 
L 3866 0 
L 2291 0 
L 2291 331 
L 2791 331 
L 2791 2069 
Q 2791 2566 2641 2777 
Q 2491 2988 2144 2988 
Q 1759 2988 1557 2697 
Q 1356 2406 1356 1850 
L 1356 331 
L 1856 331 
L 1856 0 
L 263 0 
L 263 331 
L 781 331 
L 781 2994 
L 231 2994 
L 231 3322 
L 1356 3322 
L 1356 2731 
Q 1516 3063 1762 3238 
Q 2009 3413 2322 3413 
Q 2709 3413 2968 3220 
Q 3228 3028 3316 2675 
z
" transform="scale(0.015625)"/>
        <path id="DejaVuSerif-65" d="M 3469 1600 
L 991 1600 
L 991 1575 
Q 991 903 1244 561 
Q 1497 219 1991 219 
Q 2369 219 2611 417 
Q 2853 616 2950 1006 
L 3413 1006 
Q 3275 459 2904 184 
Q 2534 -91 1931 -91 
Q 1203 -91 761 389 
Q 319 869 319 1663 
Q 319 2450 753 2931 
Q 1188 3413 1894 3413 
Q 2647 3413 3050 2948 
Q 3453 2484 3469 1600 
z
M 2791 1931 
Q 2772 2513 2545 2808 
Q 2319 3103 1894 3103 
Q 1497 3103 1269 2806 
Q 1041 2509 991 1931 
L 2791 1931 
z
" transform="scale(0.015625)"/>
        <path id="DejaVuSerif-62" d="M 738 331 
L 738 4531 
L 184 4531 
L 184 4863 
L 1313 4863 
L 1313 2803 
Q 1481 3116 1742 3264 
Q 2003 3413 2388 3413 
Q 3000 3413 3387 2928 
Q 3775 2444 3775 1663 
Q 3775 881 3387 395 
Q 3000 -91 2388 -91 
Q 2003 -91 1742 57 
Q 1481 206 1313 519 
L 1313 0 
L 184 0 
L 184 331 
L 738 331 
z
M 1313 1497 
Q 1313 897 1542 583 
Q 1772 269 2209 269 
Q 2650 269 2876 622 
Q 3103 975 3103 1663 
Q 3103 2353 2876 2703 
Q 2650 3053 2209 3053 
Q 1772 3053 1542 2737 
Q 1313 2422 1313 1825 
L 1313 1497 
z
" transform="scale(0.015625)"/>
        <path id="DejaVuSerif-72" d="M 3059 3328 
L 3059 2497 
L 2728 2497 
Q 2713 2744 2591 2866 
Q 2469 2988 2234 2988 
Q 1809 2988 1582 2694 
Q 1356 2400 1356 1850 
L 1356 331 
L 2022 331 
L 2022 0 
L 263 0 
L 263 331 
L 781 331 
L 781 2994 
L 231 2994 
L 231 3322 
L 1356 3322 
L 1356 2731 
Q 1525 3078 1790 3245 
Q 2056 3413 2438 3413 
Q 2578 3413 2733 3391 
Q 2888 3369 3059 3328 
z
" transform="scale(0.015625)"/>
        <path id="DejaVuSerif-20" transform="scale(0.015625)"/>
        <path id="DejaVuSerif-57" d="M 4878 0 
L 4366 0 
L 3297 3794 
L 2228 0 
L 1716 0 
L 494 4331 
L 31 4331 
L 31 4666 
L 1734 4666 
L 1734 4331 
L 1153 4331 
L 2125 884 
L 3188 4666 
L 3694 4666 
L 4775 844 
L 5753 4331 
L 5216 4331 
L 5216 4666 
L 6559 4666 
L 6559 4331 
L 6100 4331 
L 4878 0 
z
" transform="scale(0.015625)"/>
        <path id="DejaVuSerif-54" d="M 1222 0 
L 1222 331 
L 1819 331 
L 1819 4294 
L 447 4294 
L 447 3566 
L 63 3566 
L 63 4666 
L 4206 4666 
L 4206 3566 
L 3822 3566 
L 3822 4294 
L 2450 4294 
L 2450 331 
L 3047 331 
L 3047 0 
L 1222 0 
z
" transform="scale(0.015625)"/>
       </defs>
       <use xlink:href="#DejaVuSerif-4e"/>
       <use xlink:href="#DejaVuSerif-6f" transform="translate(87.5 0)"/>
       <use xlink:href="#DejaVuSerif-6e" transform="translate(147.705078 0)"/>
       <use xlink:href="#DejaVuSerif-2d" transform="translate(212.109375 0)"/>
       <use xlink:href="#DejaVuSerif-6d" transform="translate(245.898438 0)"/>
       <use xlink:href="#DejaVuSerif-65" transform="translate(340.722656 0)"/>
       <use xlink:href="#DejaVuSerif-6d" transform="translate(399.902344 0)"/>
       <use xlink:href="#DejaVuSerif-62" transform="translate(494.726562 0)"/>
       <use xlink:href="#DejaVuSerif-65" transform="translate(558.740234 0)"/>
       <use xlink:href="#DejaVuSerif-72" transform="translate(617.919922 0)"/>
       <use xlink:href="#DejaVuSerif-73" transform="translate(665.722656 0)"/>
       <use xlink:href="#DejaVuSerif-20" transform="translate(717.041016 0)"/>
       <use xlink:href="#DejaVuSerif-57" transform="translate(748.828125 0)"/>
       <use xlink:href="#DejaVuSerif-54" transform="translate(851.611328 0)"/>
      </g>
     </g>
    </g>
   </g>
   <g id="matplotlib.axis_2">
    <g id="ytick_1">
     <g id="line2d_3">
      <defs>
       <path id="m34088d9834" d="M 0 0 
L -3.5 0 
" style="stroke: #000000; stroke-width: 0.8"/>
      </defs>
      <g>
       <use xlink:href="#m34088d9834" x="51.05" y="391.148994" style="stroke: #000000; stroke-width: 0.8"/>
      </g>
     </g>
     <g id="text_3">
      <!-- 0 -->
      <g transform="translate(37.6875 394.948213) scale(0.1 -0.1)">
       <defs>
        <path id="DejaVuSerif-30" d="M 2034 219 
Q 2513 219 2750 744 
Q 2988 1269 2988 2328 
Q 2988 3391 2750 3916 
Q 2513 4441 2034 4441 
Q 1556 4441 1318 3916 
Q 1081 3391 1081 2328 
Q 1081 1269 1318 744 
Q 1556 219 2034 219 
z
M 2034 -91 
Q 1275 -91 848 546 
Q 422 1184 422 2328 
Q 422 3475 848 4112 
Q 1275 4750 2034 4750 
Q 2797 4750 3222 4112 
Q 3647 3475 3647 2328 
Q 3647 1184 3222 546 
Q 2797 -91 2034 -91 
z
" transform="scale(0.015625)"/>
       </defs>
       <use xlink:href="#DejaVuSerif-30"/>
      </g>
     </g>
    </g>
    <g id="ytick_2">
     <g id="line2d_4">
      <g>
       <use xlink:href="#m34088d9834" x="51.05" y="350.851896" style="stroke: #000000; stroke-width: 0.8"/>
      </g>
     </g>
     <g id="text_4">
      <!-- 20 -->
      <g transform="translate(31.325 354.651115) scale(0.1 -0.1)">
       <defs>
        <path id="DejaVuSerif-32" d="M 819 3553 
L 469 3553 
L 469 4384 
Q 803 4563 1142 4656 
Q 1481 4750 1806 4750 
Q 2534 4750 2956 4397 
Q 3378 4044 3378 3438 
Q 3378 2753 2422 1800 
Q 2347 1728 2309 1691 
L 1131 513 
L 3078 513 
L 3078 1088 
L 3444 1088 
L 3444 0 
L 434 0 
L 434 341 
L 1850 1753 
Q 2319 2222 2519 2614 
Q 2719 3006 2719 3438 
Q 2719 3909 2473 4175 
Q 2228 4441 1797 4441 
Q 1350 4441 1106 4219 
Q 863 3997 819 3553 
z
" transform="scale(0.015625)"/>
       </defs>
       <use xlink:href="#DejaVuSerif-32"/>
       <use xlink:href="#DejaVuSerif-30" transform="translate(63.623047 0)"/>
      </g>
     </g>
    </g>
    <g id="ytick_3">
     <g id="line2d_5">
      <g>
       <use xlink:href="#m34088d9834" x="51.05" y="310.554798" style="stroke: #000000; stroke-width: 0.8"/>
      </g>
     </g>
     <g id="text_5">
      <!-- 40 -->
      <g transform="translate(31.325 314.354016) scale(0.1 -0.1)">
       <defs>
        <path id="DejaVuSerif-34" d="M 2234 1581 
L 2234 4063 
L 641 1581 
L 2234 1581 
z
M 3609 0 
L 1484 0 
L 1484 331 
L 2234 331 
L 2234 1247 
L 197 1247 
L 197 1588 
L 2241 4750 
L 2859 4750 
L 2859 1581 
L 3750 1581 
L 3750 1247 
L 2859 1247 
L 2859 331 
L 3609 331 
L 3609 0 
z
" transform="scale(0.015625)"/>
       </defs>
       <use xlink:href="#DejaVuSerif-34"/>
       <use xlink:href="#DejaVuSerif-30" transform="translate(63.623047 0)"/>
      </g>
     </g>
    </g>
    <g id="ytick_4">
     <g id="line2d_6">
      <g>
       <use xlink:href="#m34088d9834" x="51.05" y="270.257699" style="stroke: #000000; stroke-width: 0.8"/>
      </g>
     </g>
     <g id="text_6">
      <!-- 60 -->
      <g transform="translate(31.325 274.056918) scale(0.1 -0.1)">
       <defs>
        <path id="DejaVuSerif-36" d="M 2094 219 
Q 2534 219 2771 542 
Q 3009 866 3009 1472 
Q 3009 2078 2771 2401 
Q 2534 2725 2094 2725 
Q 1647 2725 1412 2412 
Q 1178 2100 1178 1509 
Q 1178 888 1415 553 
Q 1653 219 2094 219 
z
M 1075 2569 
Q 1288 2803 1556 2918 
Q 1825 3034 2163 3034 
Q 2859 3034 3264 2615 
Q 3669 2197 3669 1472 
Q 3669 763 3233 336 
Q 2797 -91 2069 -91 
Q 1278 -91 853 498 
Q 428 1088 428 2181 
Q 428 3406 931 4078 
Q 1434 4750 2350 4750 
Q 2597 4750 2869 4703 
Q 3141 4656 3425 4563 
L 3425 3794 
L 3072 3794 
Q 3034 4109 2831 4275 
Q 2628 4441 2284 4441 
Q 1678 4441 1381 3981 
Q 1084 3522 1075 2569 
z
" transform="scale(0.015625)"/>
       </defs>
       <use xlink:href="#DejaVuSerif-36"/>
       <use xlink:href="#DejaVuSerif-30" transform="translate(63.623047 0)"/>
      </g>
     </g>
    </g>
    <g id="ytick_5">
     <g id="line2d_7">
      <g>
       <use xlink:href="#m34088d9834" x="51.05" y="229.960601" style="stroke: #000000; stroke-width: 0.8"/>
      </g>
     </g>
     <g id="text_7">
      <!-- 80 -->
      <g transform="translate(31.325 233.75982) scale(0.1 -0.1)">
       <defs>
        <path id="DejaVuSerif-38" d="M 2981 1275 
Q 2981 1775 2732 2051 
Q 2484 2328 2034 2328 
Q 1584 2328 1336 2051 
Q 1088 1775 1088 1275 
Q 1088 772 1336 495 
Q 1584 219 2034 219 
Q 2484 219 2732 495 
Q 2981 772 2981 1275 
z
M 2853 3541 
Q 2853 3966 2637 4203 
Q 2422 4441 2034 4441 
Q 1650 4441 1433 4203 
Q 1216 3966 1216 3541 
Q 1216 3113 1433 2875 
Q 1650 2638 2034 2638 
Q 2422 2638 2637 2875 
Q 2853 3113 2853 3541 
z
M 2516 2484 
Q 3047 2413 3344 2092 
Q 3641 1772 3641 1275 
Q 3641 619 3225 264 
Q 2809 -91 2034 -91 
Q 1263 -91 845 264 
Q 428 619 428 1275 
Q 428 1772 725 2092 
Q 1022 2413 1556 2484 
Q 1084 2569 832 2842 
Q 581 3116 581 3541 
Q 581 4103 968 4426 
Q 1356 4750 2034 4750 
Q 2713 4750 3100 4426 
Q 3488 4103 3488 3541 
Q 3488 3116 3236 2842 
Q 2984 2569 2516 2484 
z
" transform="scale(0.015625)"/>
       </defs>
       <use xlink:href="#DejaVuSerif-38"/>
       <use xlink:href="#DejaVuSerif-30" transform="translate(63.623047 0)"/>
      </g>
     </g>
    </g>
    <g id="ytick_6">
     <g id="line2d_8">
      <g>
       <use xlink:href="#m34088d9834" x="51.05" y="189.663503" style="stroke: #000000; stroke-width: 0.8"/>
      </g>
     </g>
     <g id="text_8">
      <!-- 100 -->
      <g transform="translate(24.9625 193.462721) scale(0.1 -0.1)">
       <defs>
        <path id="DejaVuSerif-31" d="M 909 0 
L 909 331 
L 1722 331 
L 1722 4213 
L 781 3603 
L 781 4013 
L 1919 4750 
L 2350 4750 
L 2350 331 
L 3163 331 
L 3163 0 
L 909 0 
z
" transform="scale(0.015625)"/>
       </defs>
       <use xlink:href="#DejaVuSerif-31"/>
       <use xlink:href="#DejaVuSerif-30" transform="translate(63.623047 0)"/>
       <use xlink:href="#DejaVuSerif-30" transform="translate(127.246094 0)"/>
      </g>
     </g>
    </g>
    <g id="ytick_7">
     <g id="line2d_9">
      <g>
       <use xlink:href="#m34088d9834" x="51.05" y="149.366404" style="stroke: #000000; stroke-width: 0.8"/>
      </g>
     </g>
     <g id="text_9">
      <!-- 120 -->
      <g transform="translate(24.9625 153.165623) scale(0.1 -0.1)">
       <use xlink:href="#DejaVuSerif-31"/>
       <use xlink:href="#DejaVuSerif-32" transform="translate(63.623047 0)"/>
       <use xlink:href="#DejaVuSerif-30" transform="translate(127.246094 0)"/>
      </g>
     </g>
    </g>
    <g id="ytick_8">
     <g id="line2d_10">
      <g>
       <use xlink:href="#m34088d9834" x="51.05" y="109.069306" style="stroke: #000000; stroke-width: 0.8"/>
      </g>
     </g>
     <g id="text_10">
      <!-- 140 -->
      <g transform="translate(24.9625 112.868525) scale(0.1 -0.1)">
       <use xlink:href="#DejaVuSerif-31"/>
       <use xlink:href="#DejaVuSerif-34" transform="translate(63.623047 0)"/>
       <use xlink:href="#DejaVuSerif-30" transform="translate(127.246094 0)"/>
      </g>
     </g>
    </g>
    <g id="ytick_9">
     <g id="line2d_11">
      <g>
       <use xlink:href="#m34088d9834" x="51.05" y="68.772208" style="stroke: #000000; stroke-width: 0.8"/>
      </g>
     </g>
     <g id="text_11">
      <!-- 160 -->
      <g transform="translate(24.9625 72.571426) scale(0.1 -0.1)">
       <use xlink:href="#DejaVuSerif-31"/>
       <use xlink:href="#DejaVuSerif-36" transform="translate(63.623047 0)"/>
       <use xlink:href="#DejaVuSerif-30" transform="translate(127.246094 0)"/>
      </g>
     </g>
    </g>
    <g id="text_12">
     <!-- σ (dV(t)/dt) -->
     <g transform="translate(18.882812 264.829094) rotate(-90) scale(0.1 -0.1)">
      <defs>
       <path id="DejaVuSerif-3c3" d="M 1925 219 
Q 2388 219 2623 584 
Q 2859 950 2859 1663 
Q 2859 2309 2625 2706 
Q 2416 3044 1925 3047 
Q 1447 3047 1225 2706 
Q 991 2341 991 1663 
Q 991 950 1228 584 
Q 1466 219 1925 219 
z
M 1931 3322 
Q 3206 3322 4181 3322 
L 4181 2988 
L 3038 2988 
Q 3531 2509 3531 1663 
Q 3531 869 3092 389 
Q 2653 -91 1925 -91 
Q 1200 -91 759 389 
Q 319 869 319 1662 
Q 319 2456 756 2934 
Q 1113 3322 1931 3322 
z
" transform="scale(0.015625)"/>
       <path id="DejaVuSerif-28" d="M 2041 -997 
Q 1281 -656 893 83 
Q 506 822 506 1931 
Q 506 3044 893 3783 
Q 1281 4522 2041 4863 
L 2041 4556 
Q 1559 4225 1350 3623 
Q 1141 3022 1141 1931 
Q 1141 844 1350 242 
Q 1559 -359 2041 -691 
L 2041 -997 
z
" transform="scale(0.015625)"/>
       <path id="DejaVuSerif-64" d="M 3359 331 
L 3909 331 
L 3909 0 
L 2784 0 
L 2784 519 
Q 2616 206 2355 57 
Q 2094 -91 1709 -91 
Q 1097 -91 708 395 
Q 319 881 319 1663 
Q 319 2444 706 2928 
Q 1094 3413 1709 3413 
Q 2094 3413 2355 3264 
Q 2616 3116 2784 2803 
L 2784 4531 
L 2241 4531 
L 2241 4863 
L 3359 4863 
L 3359 331 
z
M 2784 1497 
L 2784 1825 
Q 2784 2422 2554 2737 
Q 2325 3053 1888 3053 
Q 1444 3053 1217 2703 
Q 991 2353 991 1663 
Q 991 975 1217 622 
Q 1444 269 1888 269 
Q 2325 269 2554 583 
Q 2784 897 2784 1497 
z
" transform="scale(0.015625)"/>
       <path id="DejaVuSerif-56" d="M 1119 4331 
L 2497 750 
L 3872 4331 
L 3347 4331 
L 3347 4666 
L 4716 4666 
L 4716 4331 
L 4263 4331 
L 2597 0 
L 2059 0 
L 403 4331 
L -63 4331 
L -63 4666 
L 1638 4666 
L 1638 4331 
L 1119 4331 
z
" transform="scale(0.015625)"/>
       <path id="DejaVuSerif-29" d="M 453 -997 
L 453 -691 
Q 934 -359 1145 242 
Q 1356 844 1356 1931 
Q 1356 3022 1145 3623 
Q 934 4225 453 4556 
L 453 4863 
Q 1216 4522 1603 3783 
Q 1991 3044 1991 1931 
Q 1991 822 1603 83 
Q 1216 -656 453 -997 
z
" transform="scale(0.015625)"/>
       <path id="DejaVuSerif-2f" d="M 1656 4666 
L 2156 4666 
L 500 -594 
L 0 -594 
L 1656 4666 
z
" transform="scale(0.015625)"/>
      </defs>
      <use xlink:href="#DejaVuSerif-3c3"/>
      <use xlink:href="#DejaVuSerif-20" transform="translate(68.261719 0)"/>
      <use xlink:href="#DejaVuSerif-28" transform="translate(100.048828 0)"/>
      <use xlink:href="#DejaVuSerif-64" transform="translate(139.0625 0)"/>
      <use xlink:href="#DejaVuSerif-56" transform="translate(203.076172 0)"/>
      <use xlink:href="#DejaVuSerif-28" transform="translate(275.292969 0)"/>
      <use xlink:href="#DejaVuSerif-74" transform="translate(314.306641 0)"/>
      <use xlink:href="#DejaVuSerif-29" transform="translate(354.492188 0)"/>
      <use xlink:href="#DejaVuSerif-2f" transform="translate(393.505859 0)"/>
      <use xlink:href="#DejaVuSerif-64" transform="translate(427.197266 0)"/>
      <use xlink:href="#DejaVuSerif-74" transform="translate(491.210938 0)"/>
      <use xlink:href="#DejaVuSerif-29" transform="translate(531.396484 0)"/>
     </g>
    </g>
   </g>
   <g id="line2d_12">
    <path d="M 99.106875 364.239647 
L 116.068125 364.239647 
L 116.068125 299.619952 
L 99.106875 299.619952 
L 99.106875 364.239647 
" clip-path="url(#p60e90233dc)" style="fill: none; stroke: #000000; stroke-linecap: square"/>
   </g>
   <g id="line2d_13">
    <path d="M 107.5875 364.239647 
L 107.5875 386.741242 
" clip-path="url(#p60e90233dc)" style="fill: none; stroke: #000000; stroke-linecap: square"/>
   </g>
   <g id="line2d_14">
    <path d="M 107.5875 299.619952 
L 107.5875 234.050452 
" clip-path="url(#p60e90233dc)" style="fill: none; stroke: #000000; stroke-linecap: square"/>
   </g>
   <g id="line2d_15">
    <path d="M 103.347188 386.741242 
L 111.827813 386.741242 
" clip-path="url(#p60e90233dc)" style="fill: none; stroke: #000000; stroke-linecap: square"/>
   </g>
   <g id="line2d_16">
    <path d="M 103.347188 234.050452 
L 111.827813 234.050452 
" clip-path="url(#p60e90233dc)" style="fill: none; stroke: #000000; stroke-linecap: square"/>
   </g>
   <g id="line2d_17">
    <path d="M 212.181875 366.948323 
L 229.143125 366.948323 
L 229.143125 317.425883 
L 212.181875 317.425883 
L 212.181875 366.948323 
" clip-path="url(#p60e90233dc)" style="fill: none; stroke: #000000; stroke-linecap: square"/>
   </g>
   <g id="line2d_18">
    <path d="M 220.6625 366.948323 
L 220.6625 388.864364 
" clip-path="url(#p60e90233dc)" style="fill: none; stroke: #000000; stroke-linecap: square"/>
   </g>
   <g id="line2d_19">
    <path d="M 220.6625 317.425883 
L 220.6625 243.73886 
" clip-path="url(#p60e90233dc)" style="fill: none; stroke: #000000; stroke-linecap: square"/>
   </g>
   <g id="line2d_20">
    <path d="M 216.422188 388.864364 
L 224.902813 388.864364 
" clip-path="url(#p60e90233dc)" style="fill: none; stroke: #000000; stroke-linecap: square"/>
   </g>
   <g id="line2d_21">
    <path d="M 216.422188 243.73886 
L 224.902813 243.73886 
" clip-path="url(#p60e90233dc)" style="fill: none; stroke: #000000; stroke-linecap: square"/>
   </g>
   <g id="line2d_22">
    <path d="M 104.760625 221.200898 
L 104.760625 217.794992 
L 217.835625 217.794992 
L 217.835625 221.200898 
" clip-path="url(#p60e90233dc)" style="fill: none; stroke: #000000; stroke-linecap: square"/>
   </g>
   <g id="LineCollection_1">
    <path d="M 99.106875 346.309676 
L 116.068125 346.309676 
" clip-path="url(#p60e90233dc)" style="fill: none; stroke: #000000; stroke-width: 5"/>
    <path d="M 209.355 345.897593 
L 231.97 345.897593 
" clip-path="url(#p60e90233dc)" style="fill: none; stroke: #000000; stroke-width: 5"/>
   </g>
   <g id="line2d_23">
    <path d="M 99.106875 346.309676 
L 116.068125 346.309676 
" clip-path="url(#p60e90233dc)" style="fill: none; stroke: #ff7f0e"/>
   </g>
   <g id="line2d_24">
    <defs>
     <path id="m2eda9a0691" d="M 0 -3 
L -3 3 
L 3 3 
z
" style="stroke: #2ca02c; stroke-linejoin: miter"/>
    </defs>
    <g clip-path="url(#p60e90233dc)">
     <use xlink:href="#m2eda9a0691" x="107.5875" y="324.112586" style="fill: #2ca02c; stroke: #2ca02c; stroke-linejoin: miter"/>
    </g>
   </g>
   <g id="line2d_25">
    <path d="M 212.181875 345.897593 
L 229.143125 345.897593 
" clip-path="url(#p60e90233dc)" style="fill: none; stroke: #ff7f0e"/>
   </g>
   <g id="line2d_26">
    <g clip-path="url(#p60e90233dc)">
     <use xlink:href="#m2eda9a0691" x="220.6625" y="334.548797" style="fill: #2ca02c; stroke: #2ca02c; stroke-linejoin: miter"/>
    </g>
   </g>
   <g id="patch_3">
    <path d="M 51.05 404.12 
L 51.05 68.496 
" style="fill: none; stroke: #000000; stroke-width: 0.8; stroke-linejoin: miter; stroke-linecap: square"/>
   </g>
   <g id="patch_4">
    <path d="M 277.2 404.12 
L 277.2 68.496 
" style="fill: none; stroke: #000000; stroke-width: 0.8; stroke-linejoin: miter; stroke-linecap: square"/>
   </g>
   <g id="patch_5">
    <path d="M 51.05 404.12 
L 277.2 404.12 
" style="fill: none; stroke: #000000; stroke-width: 0.8; stroke-linejoin: miter; stroke-linecap: square"/>
   </g>
   <g id="patch_6">
    <path d="M 51.05 68.496 
L 277.2 68.496 
" style="fill: none; stroke: #000000; stroke-width: 0.8; stroke-linejoin: miter; stroke-linecap: square"/>
   </g>
   <g id="text_13">
    <!-- p = 0.961 -->
    <g transform="translate(136.415313 214.012351) scale(0.1 -0.1)">
     <defs>
      <path id="DejaVuSerif-70" d="M 1313 1825 
L 1313 1497 
Q 1313 897 1542 583 
Q 1772 269 2209 269 
Q 2650 269 2876 622 
Q 3103 975 3103 1663 
Q 3103 2353 2876 2703 
Q 2650 3053 2209 3053 
Q 1772 3053 1542 2737 
Q 1313 2422 1313 1825 
z
M 738 2988 
L 184 2988 
L 184 3322 
L 1313 3322 
L 1313 2803 
Q 1481 3116 1742 3264 
Q 2003 3413 2388 3413 
Q 3000 3413 3387 2928 
Q 3775 2444 3775 1663 
Q 3775 881 3387 395 
Q 3000 -91 2388 -91 
Q 2003 -91 1742 57 
Q 1481 206 1313 519 
L 1313 -997 
L 1856 -997 
L 1856 -1331 
L 184 -1331 
L 184 -997 
L 738 -997 
L 738 2988 
z
" transform="scale(0.015625)"/>
      <path id="DejaVuSerif-3d" d="M 678 2894 
L 4684 2894 
L 4684 2394 
L 678 2394 
L 678 2894 
z
M 678 1619 
L 4684 1619 
L 4684 1119 
L 678 1119 
L 678 1619 
z
" transform="scale(0.015625)"/>
      <path id="DejaVuSerif-2e" d="M 603 325 
Q 603 500 722 622 
Q 841 744 1019 744 
Q 1191 744 1312 622 
Q 1434 500 1434 325 
Q 1434 153 1312 31 
Q 1191 -91 1019 -91 
Q 841 -91 722 29 
Q 603 150 603 325 
z
" transform="scale(0.015625)"/>
      <path id="DejaVuSerif-39" d="M 2994 2091 
Q 2784 1856 2512 1740 
Q 2241 1625 1900 1625 
Q 1206 1625 804 2044 
Q 403 2463 403 3188 
Q 403 3897 839 4323 
Q 1275 4750 2003 4750 
Q 2794 4750 3217 4161 
Q 3641 3572 3641 2478 
Q 3641 1253 3137 581 
Q 2634 -91 1722 -91 
Q 1475 -91 1203 -44 
Q 931 3 647 97 
L 647 872 
L 997 872 
Q 1038 556 1241 387 
Q 1444 219 1784 219 
Q 2391 219 2687 676 
Q 2984 1134 2994 2091 
z
M 1978 4441 
Q 1534 4441 1298 4117 
Q 1063 3794 1063 3188 
Q 1063 2581 1298 2256 
Q 1534 1931 1978 1931 
Q 2422 1931 2658 2245 
Q 2894 2559 2894 3150 
Q 2894 3772 2656 4106 
Q 2419 4441 1978 4441 
z
" transform="scale(0.015625)"/>
     </defs>
     <use xlink:href="#DejaVuSerif-70"/>
     <use xlink:href="#DejaVuSerif-20" transform="translate(64.013672 0)"/>
     <use xlink:href="#DejaVuSerif-3d" transform="translate(95.800781 0)"/>
     <use xlink:href="#DejaVuSerif-20" transform="translate(179.589844 0)"/>
     <use xlink:href="#DejaVuSerif-30" transform="translate(211.376953 0)"/>
     <use xlink:href="#DejaVuSerif-2e" transform="translate(275 0)"/>
     <use xlink:href="#DejaVuSerif-39" transform="translate(306.787109 0)"/>
     <use xlink:href="#DejaVuSerif-36" transform="translate(370.410156 0)"/>
     <use xlink:href="#DejaVuSerif-31" transform="translate(434.033203 0)"/>
    </g>
   </g>
   <g id="text_14">
    <!-- outstrength -->
    <g transform="translate(128.347188 21.6795) scale(0.12 -0.12)">
     <defs>
      <path id="DejaVuSerif-67" d="M 3359 2988 
L 3359 72 
Q 3359 -644 2965 -1033 
Q 2572 -1422 1844 -1422 
Q 1516 -1422 1216 -1362 
Q 916 -1303 641 -1184 
L 641 -488 
L 941 -488 
Q 997 -813 1206 -963 
Q 1416 -1113 1806 -1113 
Q 2313 -1113 2548 -827 
Q 2784 -541 2784 72 
L 2784 519 
Q 2616 206 2355 57 
Q 2094 -91 1709 -91 
Q 1097 -91 708 395 
Q 319 881 319 1663 
Q 319 2444 706 2928 
Q 1094 3413 1709 3413 
Q 2094 3413 2355 3264 
Q 2616 3116 2784 2803 
L 2784 3322 
L 3909 3322 
L 3909 2988 
L 3359 2988 
z
M 2784 1825 
Q 2784 2422 2554 2737 
Q 2325 3053 1888 3053 
Q 1444 3053 1217 2703 
Q 991 2353 991 1663 
Q 991 975 1217 622 
Q 1444 269 1888 269 
Q 2325 269 2554 583 
Q 2784 897 2784 1497 
L 2784 1825 
z
" transform="scale(0.015625)"/>
      <path id="DejaVuSerif-68" d="M 263 0 
L 263 331 
L 781 331 
L 781 4531 
L 231 4531 
L 231 4863 
L 1356 4863 
L 1356 2731 
Q 1516 3069 1770 3241 
Q 2025 3413 2363 3413 
Q 2913 3413 3172 3097 
Q 3431 2781 3431 2113 
L 3431 331 
L 3944 331 
L 3944 0 
L 2356 0 
L 2356 331 
L 2853 331 
L 2853 1931 
Q 2853 2541 2704 2764 
Q 2556 2988 2175 2988 
Q 1775 2988 1565 2697 
Q 1356 2406 1356 1850 
L 1356 331 
L 1856 331 
L 1856 0 
L 263 0 
z
" transform="scale(0.015625)"/>
     </defs>
     <use xlink:href="#DejaVuSerif-6f"/>
     <use xlink:href="#DejaVuSerif-75" transform="translate(60.205078 0)"/>
     <use xlink:href="#DejaVuSerif-74" transform="translate(124.609375 0)"/>
     <use xlink:href="#DejaVuSerif-73" transform="translate(164.794922 0)"/>
     <use xlink:href="#DejaVuSerif-74" transform="translate(216.113281 0)"/>
     <use xlink:href="#DejaVuSerif-72" transform="translate(256.298828 0)"/>
     <use xlink:href="#DejaVuSerif-65" transform="translate(304.101562 0)"/>
     <use xlink:href="#DejaVuSerif-6e" transform="translate(363.28125 0)"/>
     <use xlink:href="#DejaVuSerif-67" transform="translate(427.685547 0)"/>
     <use xlink:href="#DejaVuSerif-74" transform="translate(491.699219 0)"/>
     <use xlink:href="#DejaVuSerif-68" transform="translate(531.884766 0)"/>
    </g>
    <!--  mnn = None thresh = 0,  -->
    <g transform="translate(85.662813 35.2875) scale(0.12 -0.12)">
     <defs>
      <path id="DejaVuSerif-2c" d="M 231 -622 
Q 525 -406 662 -114 
Q 800 178 800 594 
L 800 709 
L 1416 709 
Q 1391 175 1164 -208 
Q 938 -591 481 -872 
L 231 -622 
z
" transform="scale(0.015625)"/>
     </defs>
     <use xlink:href="#DejaVuSerif-20"/>
     <use xlink:href="#DejaVuSerif-6d" transform="translate(31.787109 0)"/>
     <use xlink:href="#DejaVuSerif-6e" transform="translate(126.611328 0)"/>
     <use xlink:href="#DejaVuSerif-6e" transform="translate(191.015625 0)"/>
     <use xlink:href="#DejaVuSerif-20" transform="translate(255.419922 0)"/>
     <use xlink:href="#DejaVuSerif-3d" transform="translate(287.207031 0)"/>
     <use xlink:href="#DejaVuSerif-20" transform="translate(370.996094 0)"/>
     <use xlink:href="#DejaVuSerif-4e" transform="translate(402.783203 0)"/>
     <use xlink:href="#DejaVuSerif-6f" transform="translate(490.283203 0)"/>
     <use xlink:href="#DejaVuSerif-6e" transform="translate(550.488281 0)"/>
     <use xlink:href="#DejaVuSerif-65" transform="translate(614.892578 0)"/>
     <use xlink:href="#DejaVuSerif-20" transform="translate(674.072266 0)"/>
     <use xlink:href="#DejaVuSerif-74" transform="translate(705.859375 0)"/>
     <use xlink:href="#DejaVuSerif-68" transform="translate(746.044922 0)"/>
     <use xlink:href="#DejaVuSerif-72" transform="translate(810.449219 0)"/>
     <use xlink:href="#DejaVuSerif-65" transform="translate(858.251953 0)"/>
     <use xlink:href="#DejaVuSerif-73" transform="translate(917.431641 0)"/>
     <use xlink:href="#DejaVuSerif-68" transform="translate(968.75 0)"/>
     <use xlink:href="#DejaVuSerif-20" transform="translate(1033.154297 0)"/>
     <use xlink:href="#DejaVuSerif-3d" transform="translate(1064.941406 0)"/>
     <use xlink:href="#DejaVuSerif-20" transform="translate(1148.730469 0)"/>
     <use xlink:href="#DejaVuSerif-30" transform="translate(1180.517578 0)"/>
     <use xlink:href="#DejaVuSerif-2c" transform="translate(1244.140625 0)"/>
     <use xlink:href="#DejaVuSerif-20" transform="translate(1275.927734 0)"/>
    </g>
    <!--  group_norm = False,  -->
    <g transform="translate(96.6175 48.724875) scale(0.12 -0.12)">
     <defs>
      <path id="DejaVuSerif-5f" d="M 3200 -1259 
L 3200 -1509 
L 0 -1509 
L 0 -1259 
L 3200 -1259 
z
" transform="scale(0.015625)"/>
      <path id="DejaVuSerif-46" d="M 353 0 
L 353 331 
L 947 331 
L 947 4331 
L 353 4331 
L 353 4666 
L 4172 4666 
L 4172 3628 
L 3788 3628 
L 3788 4281 
L 1581 4281 
L 1581 2719 
L 3175 2719 
L 3175 3303 
L 3559 3303 
L 3559 1753 
L 3175 1753 
L 3175 2338 
L 1581 2338 
L 1581 331 
L 2328 331 
L 2328 0 
L 353 0 
z
" transform="scale(0.015625)"/>
      <path id="DejaVuSerif-6c" d="M 1313 331 
L 1856 331 
L 1856 0 
L 184 0 
L 184 331 
L 738 331 
L 738 4531 
L 184 4531 
L 184 4863 
L 1313 4863 
L 1313 331 
z
" transform="scale(0.015625)"/>
     </defs>
     <use xlink:href="#DejaVuSerif-20"/>
     <use xlink:href="#DejaVuSerif-67" transform="translate(31.787109 0)"/>
     <use xlink:href="#DejaVuSerif-72" transform="translate(95.800781 0)"/>
     <use xlink:href="#DejaVuSerif-6f" transform="translate(143.603516 0)"/>
     <use xlink:href="#DejaVuSerif-75" transform="translate(203.808594 0)"/>
     <use xlink:href="#DejaVuSerif-70" transform="translate(268.212891 0)"/>
     <use xlink:href="#DejaVuSerif-5f" transform="translate(332.226562 0)"/>
     <use xlink:href="#DejaVuSerif-6e" transform="translate(382.226562 0)"/>
     <use xlink:href="#DejaVuSerif-6f" transform="translate(446.630859 0)"/>
     <use xlink:href="#DejaVuSerif-72" transform="translate(506.835938 0)"/>
     <use xlink:href="#DejaVuSerif-6d" transform="translate(554.638672 0)"/>
     <use xlink:href="#DejaVuSerif-20" transform="translate(649.462891 0)"/>
     <use xlink:href="#DejaVuSerif-3d" transform="translate(681.25 0)"/>
     <use xlink:href="#DejaVuSerif-20" transform="translate(765.039062 0)"/>
     <use xlink:href="#DejaVuSerif-46" transform="translate(796.826172 0)"/>
     <use xlink:href="#DejaVuSerif-61" transform="translate(859.460938 0)"/>
     <use xlink:href="#DejaVuSerif-6c" transform="translate(919.080078 0)"/>
     <use xlink:href="#DejaVuSerif-73" transform="translate(951.0625 0)"/>
     <use xlink:href="#DejaVuSerif-65" transform="translate(1002.380859 0)"/>
     <use xlink:href="#DejaVuSerif-2c" transform="translate(1061.560547 0)"/>
     <use xlink:href="#DejaVuSerif-20" transform="translate(1093.347656 0)"/>
    </g>
    <!--  permutation test on the median. -->
    <g transform="translate(63.875313 62.496) scale(0.12 -0.12)">
     <defs>
      <path id="DejaVuSerif-69" d="M 622 4353 
Q 622 4497 726 4603 
Q 831 4709 978 4709 
Q 1122 4709 1226 4603 
Q 1331 4497 1331 4353 
Q 1331 4206 1228 4103 
Q 1125 4000 978 4000 
Q 831 4000 726 4103 
Q 622 4206 622 4353 
z
M 1356 331 
L 1900 331 
L 1900 0 
L 231 0 
L 231 331 
L 781 331 
L 781 2988 
L 231 2988 
L 231 3322 
L 1356 3322 
L 1356 331 
z
" transform="scale(0.015625)"/>
     </defs>
     <use xlink:href="#DejaVuSerif-20"/>
     <use xlink:href="#DejaVuSerif-70" transform="translate(31.787109 0)"/>
     <use xlink:href="#DejaVuSerif-65" transform="translate(95.800781 0)"/>
     <use xlink:href="#DejaVuSerif-72" transform="translate(154.980469 0)"/>
     <use xlink:href="#DejaVuSerif-6d" transform="translate(202.783203 0)"/>
     <use xlink:href="#DejaVuSerif-75" transform="translate(297.607422 0)"/>
     <use xlink:href="#DejaVuSerif-74" transform="translate(362.011719 0)"/>
     <use xlink:href="#DejaVuSerif-61" transform="translate(402.197266 0)"/>
     <use xlink:href="#DejaVuSerif-74" transform="translate(461.816406 0)"/>
     <use xlink:href="#DejaVuSerif-69" transform="translate(502.001953 0)"/>
     <use xlink:href="#DejaVuSerif-6f" transform="translate(533.984375 0)"/>
     <use xlink:href="#DejaVuSerif-6e" transform="translate(594.189453 0)"/>
     <use xlink:href="#DejaVuSerif-20" transform="translate(658.59375 0)"/>
     <use xlink:href="#DejaVuSerif-74" transform="translate(690.380859 0)"/>
     <use xlink:href="#DejaVuSerif-65" transform="translate(730.566406 0)"/>
     <use xlink:href="#DejaVuSerif-73" transform="translate(789.746094 0)"/>
     <use xlink:href="#DejaVuSerif-74" transform="translate(841.064453 0)"/>
     <use xlink:href="#DejaVuSerif-20" transform="translate(881.25 0)"/>
     <use xlink:href="#DejaVuSerif-6f" transform="translate(913.037109 0)"/>
     <use xlink:href="#DejaVuSerif-6e" transform="translate(973.242188 0)"/>
     <use xlink:href="#DejaVuSerif-20" transform="translate(1037.646484 0)"/>
     <use xlink:href="#DejaVuSerif-74" transform="translate(1069.433594 0)"/>
     <use xlink:href="#DejaVuSerif-68" transform="translate(1109.619141 0)"/>
     <use xlink:href="#DejaVuSerif-65" transform="translate(1174.023438 0)"/>
     <use xlink:href="#DejaVuSerif-20" transform="translate(1233.203125 0)"/>
     <use xlink:href="#DejaVuSerif-6d" transform="translate(1264.990234 0)"/>
     <use xlink:href="#DejaVuSerif-65" transform="translate(1359.814453 0)"/>
     <use xlink:href="#DejaVuSerif-64" transform="translate(1418.994141 0)"/>
     <use xlink:href="#DejaVuSerif-69" transform="translate(1483.007812 0)"/>
     <use xlink:href="#DejaVuSerif-61" transform="translate(1514.990234 0)"/>
     <use xlink:href="#DejaVuSerif-6e" transform="translate(1574.609375 0)"/>
     <use xlink:href="#DejaVuSerif-2e" transform="translate(1639.013672 0)"/>
    </g>
   </g>
  </g>
 </g>
 <defs>
  <clipPath id="p60e90233dc">
   <rect x="51.05" y="68.496" width="226.15" height="335.624"/>
  </clipPath>
 </defs>
</svg>
