<?xml version="1.0" encoding="utf-8" standalone="no"?>
<!DOCTYPE svg PUBLIC "-//W3C//DTD SVG 1.1//EN"
  "http://www.w3.org/Graphics/SVG/1.1/DTD/svg11.dtd">
<svg xmlns:xlink="http://www.w3.org/1999/xlink" width="460.8pt" height="345.6pt" viewBox="0 0 460.8 345.6" xmlns="http://www.w3.org/2000/svg" version="1.1">
 <metadata>
  <rdf:RDF xmlns:dc="http://purl.org/dc/elements/1.1/" xmlns:cc="http://creativecommons.org/ns#" xmlns:rdf="http://www.w3.org/1999/02/22-rdf-syntax-ns#">
   <cc:Work>
    <dc:type rdf:resource="http://purl.org/dc/dcmitype/StillImage"/>
    <dc:date>2025-06-03T11:46:38.073191</dc:date>
    <dc:format>image/svg+xml</dc:format>
    <dc:creator>
     <cc:Agent>
      <dc:title>Matplotlib v3.9.2, https://matplotlib.org/</dc:title>
     </cc:Agent>
    </dc:creator>
   </cc:Work>
  </rdf:RDF>
 </metadata>
 <defs>
  <style type="text/css">*{stroke-linejoin: round; stroke-linecap: butt}</style>
 </defs>
 <g id="figure_1">
  <g id="patch_1">
   <path d="M 0 345.6 
L 460.8 345.6 
L 460.8 0 
L 0 0 
z
" style="fill: #ffffff"/>
  </g>
  <g id="axes_1">
   <g id="patch_2">
    <path d="M 57.6 307.584 
L 414.72 307.584 
L 414.72 41.472 
L 57.6 41.472 
z
" style="fill: #ffffff"/>
   </g>
   <g id="patch_3">
    <path d="M 81.408 248.032809 
L 152.832 248.032809 
L 152.832 194.773037 
L 81.408 194.773037 
L 81.408 248.032809 
z
" clip-path="url(#p0742756518)" style="fill: #a1c9f4; stroke: #000000; stroke-linejoin: miter"/>
   </g>
   <g id="line2d_1">
    <path d="M 117.12 248.032809 
L 117.12 282.082703 
" clip-path="url(#p0742756518)" style="fill: none; stroke: #000000; stroke-linecap: square"/>
   </g>
   <g id="line2d_2">
    <path d="M 117.12 194.773037 
L 117.12 156.309471 
" clip-path="url(#p0742756518)" style="fill: none; stroke: #000000; stroke-linecap: square"/>
   </g>
   <g id="line2d_3">
    <path d="M 99.264 282.082703 
L 134.976 282.082703 
" clip-path="url(#p0742756518)" style="fill: none; stroke: #000000; stroke-linecap: square"/>
   </g>
   <g id="line2d_4">
    <path d="M 99.264 156.309471 
L 134.976 156.309471 
" clip-path="url(#p0742756518)" style="fill: none; stroke: #000000; stroke-linecap: square"/>
   </g>
   <g id="patch_4">
    <path d="M 200.448 279.717062 
L 271.872 279.717062 
L 271.872 247.189502 
L 200.448 247.189502 
L 200.448 279.717062 
z
" clip-path="url(#p0742756518)" style="fill: #ffb482; stroke: #000000; stroke-linejoin: miter"/>
   </g>
   <g id="line2d_5">
    <path d="M 236.16 279.717062 
L 236.16 293.078551 
" clip-path="url(#p0742756518)" style="fill: none; stroke: #000000; stroke-linecap: square"/>
   </g>
   <g id="line2d_6">
    <path d="M 236.16 247.189502 
L 236.16 214.793367 
" clip-path="url(#p0742756518)" style="fill: none; stroke: #000000; stroke-linecap: square"/>
   </g>
   <g id="line2d_7">
    <path d="M 218.304 293.078551 
L 254.016 293.078551 
" clip-path="url(#p0742756518)" style="fill: none; stroke: #000000; stroke-linecap: square"/>
   </g>
   <g id="line2d_8">
    <path d="M 218.304 214.793367 
L 254.016 214.793367 
" clip-path="url(#p0742756518)" style="fill: none; stroke: #000000; stroke-linecap: square"/>
   </g>
   <g id="patch_5">
    <path d="M 319.488 287.733955 
L 390.912 287.733955 
L 390.912 257.988214 
L 319.488 257.988214 
L 319.488 287.733955 
z
" clip-path="url(#p0742756518)" style="fill: #8de5a1; stroke: #000000; stroke-linejoin: miter"/>
   </g>
   <g id="line2d_9">
    <path d="M 355.2 287.733955 
L 355.2 295.488 
" clip-path="url(#p0742756518)" style="fill: none; stroke: #000000; stroke-linecap: square"/>
   </g>
   <g id="line2d_10">
    <path d="M 355.2 257.988214 
L 355.2 213.566738 
" clip-path="url(#p0742756518)" style="fill: none; stroke: #000000; stroke-linecap: square"/>
   </g>
   <g id="line2d_11">
    <path d="M 337.344 295.488 
L 373.056 295.488 
" clip-path="url(#p0742756518)" style="fill: none; stroke: #000000; stroke-linecap: square"/>
   </g>
   <g id="line2d_12">
    <path d="M 337.344 213.566738 
L 373.056 213.566738 
" clip-path="url(#p0742756518)" style="fill: none; stroke: #000000; stroke-linecap: square"/>
   </g>
   <g id="PathCollection_1">
    <defs>
     <path id="mf5cd917205" d="M 0 3.162278 
C 0.838646 3.162278 1.643056 2.82908 2.236068 2.236068 
C 2.82908 1.643056 3.162278 0.838646 3.162278 0 
C 3.162278 -0.838646 2.82908 -1.643056 2.236068 -2.236068 
C 1.643056 -2.82908 0.838646 -3.162278 0 -3.162278 
C -0.838646 -3.162278 -1.643056 -2.82908 -2.236068 -2.236068 
C -2.82908 -1.643056 -3.162278 -0.838646 -3.162278 0 
C -3.162278 0.838646 -2.82908 1.643056 -2.236068 2.236068 
C -1.643056 2.82908 -0.838646 3.162278 0 3.162278 
z
" style="stroke: #1f77b4"/>
    </defs>
    <g clip-path="url(#p0742756518)">
     <use xlink:href="#mf5cd917205" x="125.248978" y="240.727798" style="fill: #1f77b4; stroke: #1f77b4"/>
     <use xlink:href="#mf5cd917205" x="120.310389" y="239.939251" style="fill: #1f77b4; stroke: #1f77b4"/>
     <use xlink:href="#mf5cd917205" x="115.957689" y="211.85822" style="fill: #1f77b4; stroke: #1f77b4"/>
     <use xlink:href="#mf5cd917205" x="111.476403" y="229.644333" style="fill: #1f77b4; stroke: #1f77b4"/>
     <use xlink:href="#mf5cd917205" x="115.761837" y="248.087569" style="fill: #1f77b4; stroke: #1f77b4"/>
     <use xlink:href="#mf5cd917205" x="119.490438" y="193.414984" style="fill: #1f77b4; stroke: #1f77b4"/>
     <use xlink:href="#mf5cd917205" x="108.618796" y="168.356716" style="fill: #1f77b4; stroke: #1f77b4"/>
     <use xlink:href="#mf5cd917205" x="121.463435" y="186.624719" style="fill: #1f77b4; stroke: #1f77b4"/>
     <use xlink:href="#mf5cd917205" x="122.055036" y="257.681557" style="fill: #1f77b4; stroke: #1f77b4"/>
     <use xlink:href="#mf5cd917205" x="114.365004" y="247.868529" style="fill: #1f77b4; stroke: #1f77b4"/>
     <use xlink:href="#mf5cd917205" x="114.066849" y="231.966166" style="fill: #1f77b4; stroke: #1f77b4"/>
     <use xlink:href="#mf5cd917205" x="121.476076" y="282.082703" style="fill: #1f77b4; stroke: #1f77b4"/>
     <use xlink:href="#mf5cd917205" x="111.364982" y="248.175186" style="fill: #1f77b4; stroke: #1f77b4"/>
     <use xlink:href="#mf5cd917205" x="124.113897" y="244.276259" style="fill: #1f77b4; stroke: #1f77b4"/>
     <use xlink:href="#mf5cd917205" x="111.490552" y="250.277977" style="fill: #1f77b4; stroke: #1f77b4"/>
     <use xlink:href="#mf5cd917205" x="108.588008" y="183.73338" style="fill: #1f77b4; stroke: #1f77b4"/>
     <use xlink:href="#mf5cd917205" x="124.672706" y="156.309471" style="fill: #1f77b4; stroke: #1f77b4"/>
     <use xlink:href="#mf5cd917205" x="121.067734" y="220.926509" style="fill: #1f77b4; stroke: #1f77b4"/>
     <use xlink:href="#mf5cd917205" x="112.17726" y="230.827154" style="fill: #1f77b4; stroke: #1f77b4"/>
     <use xlink:href="#mf5cd917205" x="126.004432" y="250.409402" style="fill: #1f77b4; stroke: #1f77b4"/>
     <use xlink:href="#mf5cd917205" x="114.63305" y="250.45321" style="fill: #1f77b4; stroke: #1f77b4"/>
     <use xlink:href="#mf5cd917205" x="117.919145" y="198.847196" style="fill: #1f77b4; stroke: #1f77b4"/>
     <use xlink:href="#mf5cd917205" x="115.192068" y="175.190789" style="fill: #1f77b4; stroke: #1f77b4"/>
     <use xlink:href="#mf5cd917205" x="116.567899" y="193.152135" style="fill: #1f77b4; stroke: #1f77b4"/>
     <use xlink:href="#mf5cd917205" x="112.130021" y="235.996517" style="fill: #1f77b4; stroke: #1f77b4"/>
     <use xlink:href="#mf5cd917205" x="114.432611" y="220.400811" style="fill: #1f77b4; stroke: #1f77b4"/>
    </g>
   </g>
   <g id="PathCollection_2">
    <defs>
     <path id="mc52a6ae966" d="M 0 3.162278 
C 0.838646 3.162278 1.643056 2.82908 2.236068 2.236068 
C 2.82908 1.643056 3.162278 0.838646 3.162278 0 
C 3.162278 -0.838646 2.82908 -1.643056 2.236068 -2.236068 
C 1.643056 -2.82908 0.838646 -3.162278 0 -3.162278 
C -0.838646 -3.162278 -1.643056 -2.82908 -2.236068 -2.236068 
C -2.82908 -1.643056 -3.162278 -0.838646 -3.162278 0 
C -3.162278 0.838646 -2.82908 1.643056 -2.236068 2.236068 
C -1.643056 2.82908 -0.838646 3.162278 0 3.162278 
z
" style="stroke: #ff7f0e"/>
    </defs>
    <g clip-path="url(#p0742756518)">
     <use xlink:href="#mc52a6ae966" x="237.073223" y="235.733668" style="fill: #ff7f0e; stroke: #ff7f0e"/>
     <use xlink:href="#mc52a6ae966" x="242.727578" y="267.100311" style="fill: #ff7f0e; stroke: #ff7f0e"/>
     <use xlink:href="#mc52a6ae966" x="240.424648" y="265.961299" style="fill: #ff7f0e; stroke: #ff7f0e"/>
     <use xlink:href="#mc52a6ae966" x="236.106261" y="270.999238" style="fill: #ff7f0e; stroke: #ff7f0e"/>
     <use xlink:href="#mc52a6ae966" x="225.555953" y="279.673254" style="fill: #ff7f0e; stroke: #ff7f0e"/>
     <use xlink:href="#mc52a6ae966" x="235.928126" y="214.793367" style="fill: #ff7f0e; stroke: #ff7f0e"/>
     <use xlink:href="#mc52a6ae966" x="227.428591" y="277.920927" style="fill: #ff7f0e; stroke: #ff7f0e"/>
     <use xlink:href="#mc52a6ae966" x="240.130533" y="262.982344" style="fill: #ff7f0e; stroke: #ff7f0e"/>
     <use xlink:href="#mc52a6ae966" x="231.935232" y="274.109617" style="fill: #ff7f0e; stroke: #ff7f0e"/>
     <use xlink:href="#mc52a6ae966" x="230.828406" y="169.495728" style="fill: #ff7f0e; stroke: #ff7f0e"/>
     <use xlink:href="#mc52a6ae966" x="244.323569" y="277.701886" style="fill: #ff7f0e; stroke: #ff7f0e"/>
     <use xlink:href="#mc52a6ae966" x="245.747028" y="271.875401" style="fill: #ff7f0e; stroke: #ff7f0e"/>
     <use xlink:href="#mc52a6ae966" x="239.232073" y="256.41112" style="fill: #ff7f0e; stroke: #ff7f0e"/>
     <use xlink:href="#mc52a6ae966" x="231.011448" y="275.993368" style="fill: #ff7f0e; stroke: #ff7f0e"/>
     <use xlink:href="#mc52a6ae966" x="238.491095" y="253.344549" style="fill: #ff7f0e; stroke: #ff7f0e"/>
     <use xlink:href="#mc52a6ae966" x="235.659228" y="222.503603" style="fill: #ff7f0e; stroke: #ff7f0e"/>
     <use xlink:href="#mc52a6ae966" x="229.114046" y="185.617131" style="fill: #ff7f0e; stroke: #ff7f0e"/>
     <use xlink:href="#mc52a6ae966" x="237.158164" y="291.939539" style="fill: #ff7f0e; stroke: #ff7f0e"/>
     <use xlink:href="#mc52a6ae966" x="229.379959" y="290.187212" style="fill: #ff7f0e; stroke: #ff7f0e"/>
     <use xlink:href="#mc52a6ae966" x="241.660532" y="293.078551" style="fill: #ff7f0e; stroke: #ff7f0e"/>
     <use xlink:href="#mc52a6ae966" x="245.655737" y="291.764306" style="fill: #ff7f0e; stroke: #ff7f0e"/>
     <use xlink:href="#mc52a6ae966" x="237.001603" y="288.741543" style="fill: #ff7f0e; stroke: #ff7f0e"/>
     <use xlink:href="#mc52a6ae966" x="229.626666" y="288.872968" style="fill: #ff7f0e; stroke: #ff7f0e"/>
     <use xlink:href="#mc52a6ae966" x="237.407486" y="279.76087" style="fill: #ff7f0e; stroke: #ff7f0e"/>
     <use xlink:href="#mc52a6ae966" x="233.752827" y="197.751992" style="fill: #ff7f0e; stroke: #ff7f0e"/>
     <use xlink:href="#mc52a6ae966" x="239.867987" y="240.640182" style="fill: #ff7f0e; stroke: #ff7f0e"/>
     <use xlink:href="#mc52a6ae966" x="234.724977" y="261.580483" style="fill: #ff7f0e; stroke: #ff7f0e"/>
     <use xlink:href="#mc52a6ae966" x="236.564244" y="284.316919" style="fill: #ff7f0e; stroke: #ff7f0e"/>
     <use xlink:href="#mc52a6ae966" x="250.068913" y="270.47354" style="fill: #ff7f0e; stroke: #ff7f0e"/>
     <use xlink:href="#mc52a6ae966" x="243.595353" y="276.869531" style="fill: #ff7f0e; stroke: #ff7f0e"/>
     <use xlink:href="#mc52a6ae966" x="230.130008" y="241.034455" style="fill: #ff7f0e; stroke: #ff7f0e"/>
    </g>
   </g>
   <g id="PathCollection_3">
    <defs>
     <path id="m34eed1e81c" d="M 0 3.162278 
C 0.838646 3.162278 1.643056 2.82908 2.236068 2.236068 
C 2.82908 1.643056 3.162278 0.838646 3.162278 0 
C 3.162278 -0.838646 2.82908 -1.643056 2.236068 -2.236068 
C 1.643056 -2.82908 0.838646 -3.162278 0 -3.162278 
C -0.838646 -3.162278 -1.643056 -2.82908 -2.236068 -2.236068 
C -2.82908 -1.643056 -3.162278 -0.838646 -3.162278 0 
C -3.162278 0.838646 -2.82908 1.643056 -2.236068 2.236068 
C -1.643056 2.82908 -0.838646 3.162278 0 3.162278 
z
" style="stroke: #2ca02c"/>
    </defs>
    <g clip-path="url(#p0742756518)">
     <use xlink:href="#m34eed1e81c" x="348.66955" y="265.523218" style="fill: #2ca02c; stroke: #2ca02c"/>
     <use xlink:href="#m34eed1e81c" x="351.878756" y="260.441471" style="fill: #2ca02c; stroke: #2ca02c"/>
     <use xlink:href="#m34eed1e81c" x="357.096833" y="258.338679" style="fill: #2ca02c; stroke: #2ca02c"/>
     <use xlink:href="#m34eed1e81c" x="348.346105" y="279.541829" style="fill: #2ca02c; stroke: #2ca02c"/>
     <use xlink:href="#m34eed1e81c" x="351.967004" y="275.248629" style="fill: #2ca02c; stroke: #2ca02c"/>
     <use xlink:href="#m34eed1e81c" x="350.834386" y="263.289001" style="fill: #2ca02c; stroke: #2ca02c"/>
     <use xlink:href="#m34eed1e81c" x="351.955629" y="272.444907" style="fill: #2ca02c; stroke: #2ca02c"/>
     <use xlink:href="#m34eed1e81c" x="358.052919" y="268.896446" style="fill: #2ca02c; stroke: #2ca02c"/>
     <use xlink:href="#m34eed1e81c" x="351.220233" y="288.741543" style="fill: #2ca02c; stroke: #2ca02c"/>
     <use xlink:href="#m34eed1e81c" x="357.62889" y="257.988214" style="fill: #2ca02c; stroke: #2ca02c"/>
     <use xlink:href="#m34eed1e81c" x="357.565989" y="291.150992" style="fill: #2ca02c; stroke: #2ca02c"/>
     <use xlink:href="#m34eed1e81c" x="344.17718" y="257.418708" style="fill: #2ca02c; stroke: #2ca02c"/>
     <use xlink:href="#m34eed1e81c" x="362.362861" y="288.785351" style="fill: #2ca02c; stroke: #2ca02c"/>
     <use xlink:href="#m34eed1e81c" x="354.671195" y="269.597377" style="fill: #2ca02c; stroke: #2ca02c"/>
     <use xlink:href="#m34eed1e81c" x="350.669633" y="288.34727" style="fill: #2ca02c; stroke: #2ca02c"/>
     <use xlink:href="#m34eed1e81c" x="352.496997" y="195.035886" style="fill: #2ca02c; stroke: #2ca02c"/>
     <use xlink:href="#m34eed1e81c" x="360.077392" y="243.706753" style="fill: #2ca02c; stroke: #2ca02c"/>
     <use xlink:href="#m34eed1e81c" x="359.351408" y="278.621858" style="fill: #2ca02c; stroke: #2ca02c"/>
     <use xlink:href="#m34eed1e81c" x="341.230175" y="287.558723" style="fill: #2ca02c; stroke: #2ca02c"/>
     <use xlink:href="#m34eed1e81c" x="365.613892" y="254.133096" style="fill: #2ca02c; stroke: #2ca02c"/>
     <use xlink:href="#m34eed1e81c" x="359.392663" y="277.482846" style="fill: #2ca02c; stroke: #2ca02c"/>
     <use xlink:href="#m34eed1e81c" x="347.527356" y="290.669102" style="fill: #2ca02c; stroke: #2ca02c"/>
     <use xlink:href="#m34eed1e81c" x="349.951085" y="273.583919" style="fill: #2ca02c; stroke: #2ca02c"/>
     <use xlink:href="#m34eed1e81c" x="355.217089" y="270.254499" style="fill: #2ca02c; stroke: #2ca02c"/>
     <use xlink:href="#m34eed1e81c" x="354.364676" y="271.524936" style="fill: #2ca02c; stroke: #2ca02c"/>
     <use xlink:href="#m34eed1e81c" x="363.323753" y="264.866095" style="fill: #2ca02c; stroke: #2ca02c"/>
     <use xlink:href="#m34eed1e81c" x="365.427113" y="216.15142" style="fill: #2ca02c; stroke: #2ca02c"/>
     <use xlink:href="#m34eed1e81c" x="354.80182" y="245.765737" style="fill: #2ca02c; stroke: #2ca02c"/>
     <use xlink:href="#m34eed1e81c" x="353.169911" y="230.038607" style="fill: #2ca02c; stroke: #2ca02c"/>
     <use xlink:href="#m34eed1e81c" x="358.682047" y="282.257935" style="fill: #2ca02c; stroke: #2ca02c"/>
     <use xlink:href="#m34eed1e81c" x="352.435436" y="223.817848" style="fill: #2ca02c; stroke: #2ca02c"/>
     <use xlink:href="#m34eed1e81c" x="345.967565" y="278.490433" style="fill: #2ca02c; stroke: #2ca02c"/>
     <use xlink:href="#m34eed1e81c" x="366.86855" y="268.545981" style="fill: #2ca02c; stroke: #2ca02c"/>
     <use xlink:href="#m34eed1e81c" x="366.277274" y="294.436604" style="fill: #2ca02c; stroke: #2ca02c"/>
     <use xlink:href="#m34eed1e81c" x="349.546888" y="295.488" style="fill: #2ca02c; stroke: #2ca02c"/>
     <use xlink:href="#m34eed1e81c" x="360.801006" y="271.481128" style="fill: #2ca02c; stroke: #2ca02c"/>
     <use xlink:href="#m34eed1e81c" x="358.972017" y="293.998523" style="fill: #2ca02c; stroke: #2ca02c"/>
     <use xlink:href="#m34eed1e81c" x="358.665669" y="288.478694" style="fill: #2ca02c; stroke: #2ca02c"/>
     <use xlink:href="#m34eed1e81c" x="345.312449" y="289.486282" style="fill: #2ca02c; stroke: #2ca02c"/>
     <use xlink:href="#m34eed1e81c" x="345.131602" y="287.690147" style="fill: #2ca02c; stroke: #2ca02c"/>
     <use xlink:href="#m34eed1e81c" x="346.595584" y="263.902316" style="fill: #2ca02c; stroke: #2ca02c"/>
     <use xlink:href="#m34eed1e81c" x="353.439849" y="283.134098" style="fill: #2ca02c; stroke: #2ca02c"/>
     <use xlink:href="#m34eed1e81c" x="353.376094" y="275.423862" style="fill: #2ca02c; stroke: #2ca02c"/>
     <use xlink:href="#m34eed1e81c" x="352.587774" y="265.260369" style="fill: #2ca02c; stroke: #2ca02c"/>
     <use xlink:href="#m34eed1e81c" x="356.46513" y="269.115487" style="fill: #2ca02c; stroke: #2ca02c"/>
     <use xlink:href="#m34eed1e81c" x="351.590134" y="240.68399" style="fill: #2ca02c; stroke: #2ca02c"/>
     <use xlink:href="#m34eed1e81c" x="350.325435" y="256.016847" style="fill: #2ca02c; stroke: #2ca02c"/>
     <use xlink:href="#m34eed1e81c" x="356.708014" y="254.527369" style="fill: #2ca02c; stroke: #2ca02c"/>
     <use xlink:href="#m34eed1e81c" x="338.928501" y="288.829159" style="fill: #2ca02c; stroke: #2ca02c"/>
     <use xlink:href="#m34eed1e81c" x="355.179235" y="176.943115" style="fill: #2ca02c; stroke: #2ca02c"/>
     <use xlink:href="#m34eed1e81c" x="358.059886" y="174.796515" style="fill: #2ca02c; stroke: #2ca02c"/>
     <use xlink:href="#m34eed1e81c" x="355.959028" y="218.122787" style="fill: #2ca02c; stroke: #2ca02c"/>
     <use xlink:href="#m34eed1e81c" x="365.305896" y="242.042043" style="fill: #2ca02c; stroke: #2ca02c"/>
     <use xlink:href="#m34eed1e81c" x="346.775174" y="256.454928" style="fill: #2ca02c; stroke: #2ca02c"/>
     <use xlink:href="#m34eed1e81c" x="355.374244" y="270.604964" style="fill: #2ca02c; stroke: #2ca02c"/>
     <use xlink:href="#m34eed1e81c" x="354.298323" y="268.545981" style="fill: #2ca02c; stroke: #2ca02c"/>
     <use xlink:href="#m34eed1e81c" x="358.709772" y="257.155859" style="fill: #2ca02c; stroke: #2ca02c"/>
     <use xlink:href="#m34eed1e81c" x="359.384795" y="213.566738" style="fill: #2ca02c; stroke: #2ca02c"/>
     <use xlink:href="#m34eed1e81c" x="344.854715" y="261.230018" style="fill: #2ca02c; stroke: #2ca02c"/>
     <use xlink:href="#m34eed1e81c" x="347.552589" y="272.13825" style="fill: #2ca02c; stroke: #2ca02c"/>
     <use xlink:href="#m34eed1e81c" x="356.848802" y="262.149989" style="fill: #2ca02c; stroke: #2ca02c"/>
     <use xlink:href="#m34eed1e81c" x="347.236127" y="270.210691" style="fill: #2ca02c; stroke: #2ca02c"/>
     <use xlink:href="#m34eed1e81c" x="357.000606" y="275.423862" style="fill: #2ca02c; stroke: #2ca02c"/>
     <use xlink:href="#m34eed1e81c" x="358.200597" y="220.488428" style="fill: #2ca02c; stroke: #2ca02c"/>
     <use xlink:href="#m34eed1e81c" x="361.015117" y="268.020283" style="fill: #2ca02c; stroke: #2ca02c"/>
     <use xlink:href="#m34eed1e81c" x="348.224734" y="246.116202" style="fill: #2ca02c; stroke: #2ca02c"/>
     <use xlink:href="#m34eed1e81c" x="356.126222" y="255.973038" style="fill: #2ca02c; stroke: #2ca02c"/>
     <use xlink:href="#m34eed1e81c" x="360.972561" y="274.941972" style="fill: #2ca02c; stroke: #2ca02c"/>
     <use xlink:href="#m34eed1e81c" x="351.40438" y="254.483561" style="fill: #2ca02c; stroke: #2ca02c"/>
     <use xlink:href="#m34eed1e81c" x="352.300705" y="290.231021" style="fill: #2ca02c; stroke: #2ca02c"/>
     <use xlink:href="#m34eed1e81c" x="355.685074" y="290.318637" style="fill: #2ca02c; stroke: #2ca02c"/>
     <use xlink:href="#m34eed1e81c" x="365.313095" y="292.377621" style="fill: #2ca02c; stroke: #2ca02c"/>
     <use xlink:href="#m34eed1e81c" x="360.841955" y="291.413841" style="fill: #2ca02c; stroke: #2ca02c"/>
     <use xlink:href="#m34eed1e81c" x="361.332002" y="290.71291" style="fill: #2ca02c; stroke: #2ca02c"/>
     <use xlink:href="#m34eed1e81c" x="353.971561" y="291.545265" style="fill: #2ca02c; stroke: #2ca02c"/>
     <use xlink:href="#m34eed1e81c" x="352.678186" y="290.581486" style="fill: #2ca02c; stroke: #2ca02c"/>
     <use xlink:href="#m34eed1e81c" x="353.438039" y="292.85951" style="fill: #2ca02c; stroke: #2ca02c"/>
     <use xlink:href="#m34eed1e81c" x="357.031309" y="287.164449" style="fill: #2ca02c; stroke: #2ca02c"/>
     <use xlink:href="#m34eed1e81c" x="355.790594" y="292.990935" style="fill: #2ca02c; stroke: #2ca02c"/>
     <use xlink:href="#m34eed1e81c" x="356.618622" y="293.910906" style="fill: #2ca02c; stroke: #2ca02c"/>
     <use xlink:href="#m34eed1e81c" x="358.669572" y="289.53009" style="fill: #2ca02c; stroke: #2ca02c"/>
     <use xlink:href="#m34eed1e81c" x="355.949302" y="292.684278" style="fill: #2ca02c; stroke: #2ca02c"/>
     <use xlink:href="#m34eed1e81c" x="359.607051" y="287.733955" style="fill: #2ca02c; stroke: #2ca02c"/>
     <use xlink:href="#m34eed1e81c" x="362.846084" y="268.984062" style="fill: #2ca02c; stroke: #2ca02c"/>
     <use xlink:href="#m34eed1e81c" x="359.535687" y="273.32107" style="fill: #2ca02c; stroke: #2ca02c"/>
     <use xlink:href="#m34eed1e81c" x="342.410452" y="263.902316" style="fill: #2ca02c; stroke: #2ca02c"/>
     <use xlink:href="#m34eed1e81c" x="349.047841" y="257.462516" style="fill: #2ca02c; stroke: #2ca02c"/>
     <use xlink:href="#m34eed1e81c" x="352.084144" y="277.088572" style="fill: #2ca02c; stroke: #2ca02c"/>
     <use xlink:href="#m34eed1e81c" x="356.579285" y="276.562874" style="fill: #2ca02c; stroke: #2ca02c"/>
     <use xlink:href="#m34eed1e81c" x="344.797255" y="270.648772" style="fill: #2ca02c; stroke: #2ca02c"/>
     <use xlink:href="#m34eed1e81c" x="360.548064" y="262.062373" style="fill: #2ca02c; stroke: #2ca02c"/>
     <use xlink:href="#m34eed1e81c" x="345.727537" y="278.621858" style="fill: #2ca02c; stroke: #2ca02c"/>
     <use xlink:href="#m34eed1e81c" x="356.708325" y="275.905752" style="fill: #2ca02c; stroke: #2ca02c"/>
    </g>
   </g>
   <g id="line2d_13">
    <path d="M 81.408 231.39666 
L 152.832 231.39666 
" clip-path="url(#p0742756518)" style="fill: none; stroke: #000000"/>
   </g>
   <g id="line2d_14">
    <path d="M 200.448 270.999238 
L 271.872 270.999238 
" clip-path="url(#p0742756518)" style="fill: none; stroke: #000000"/>
   </g>
   <g id="line2d_15">
    <path d="M 319.488 271.481128 
L 390.912 271.481128 
" clip-path="url(#p0742756518)" style="fill: none; stroke: #000000"/>
   </g>
   <g id="matplotlib.axis_1">
    <g id="xtick_1">
     <g id="line2d_16">
      <defs>
       <path id="mf2bac2be35" d="M 0 0 
L 0 3.5 
" style="stroke: #000000; stroke-width: 0.8"/>
      </defs>
      <g>
       <use xlink:href="#mf2bac2be35" x="117.12" y="307.584" style="stroke: #000000; stroke-width: 0.8"/>
      </g>
     </g>
     <g id="text_1">
      <!-- RC -->
      <g transform="translate(101.93875 329.780875) scale(0.2 -0.2)">
       <defs>
        <path id="DejaVuSerif-52" d="M 3066 2316 
Q 3284 2256 3442 2114 
Q 3600 1972 3725 1716 
L 4403 331 
L 4972 331 
L 4972 0 
L 3872 0 
L 3144 1484 
Q 2934 1916 2759 2042 
Q 2584 2169 2278 2169 
L 1581 2169 
L 1581 331 
L 2241 331 
L 2241 0 
L 353 0 
L 353 331 
L 947 331 
L 947 4331 
L 353 4331 
L 353 4666 
L 2719 4666 
Q 3400 4666 3770 4341 
Q 4141 4016 4141 3419 
Q 4141 2938 3870 2661 
Q 3600 2384 3066 2316 
z
M 1581 2503 
L 2503 2503 
Q 2975 2503 3200 2726 
Q 3425 2950 3425 3419 
Q 3425 3888 3200 4109 
Q 2975 4331 2503 4331 
L 1581 4331 
L 1581 2503 
z
" transform="scale(0.015625)"/>
        <path id="DejaVuSerif-43" d="M 4513 1234 
Q 4306 581 3820 245 
Q 3334 -91 2591 -91 
Q 2134 -91 1743 65 
Q 1353 222 1050 525 
Q 700 875 529 1320 
Q 359 1766 359 2328 
Q 359 3416 987 4083 
Q 1616 4750 2644 4750 
Q 3025 4750 3456 4650 
Q 3888 4550 4384 4347 
L 4384 3272 
L 4031 3272 
Q 3916 3859 3567 4137 
Q 3219 4416 2591 4416 
Q 1844 4416 1459 3886 
Q 1075 3356 1075 2328 
Q 1075 1303 1459 773 
Q 1844 244 2591 244 
Q 3113 244 3450 492 
Q 3788 741 3938 1234 
L 4513 1234 
z
" transform="scale(0.015625)"/>
       </defs>
       <use xlink:href="#DejaVuSerif-52"/>
       <use xlink:href="#DejaVuSerif-43" x="75.292969"/>
      </g>
     </g>
    </g>
    <g id="xtick_2">
     <g id="line2d_17">
      <g>
       <use xlink:href="#mf2bac2be35" x="236.16" y="307.584" style="stroke: #000000; stroke-width: 0.8"/>
      </g>
     </g>
     <g id="text_2">
      <!-- Mutants -->
      <g transform="translate(193.908437 329.780875) scale(0.2 -0.2)">
       <defs>
        <path id="DejaVuSerif-4d" d="M 353 0 
L 353 331 
L 947 331 
L 947 4331 
L 319 4331 
L 319 4666 
L 1678 4666 
L 3316 1344 
L 4953 4666 
L 6228 4666 
L 6228 4331 
L 5606 4331 
L 5606 331 
L 6203 331 
L 6203 0 
L 4378 0 
L 4378 331 
L 4972 331 
L 4972 3938 
L 3372 684 
L 2931 684 
L 1331 3938 
L 1331 331 
L 1925 331 
L 1925 0 
L 353 0 
z
" transform="scale(0.015625)"/>
        <path id="DejaVuSerif-75" d="M 2266 3322 
L 3341 3322 
L 3341 331 
L 3884 331 
L 3884 0 
L 2766 0 
L 2766 588 
Q 2606 256 2353 82 
Q 2100 -91 1766 -91 
Q 1213 -91 952 223 
Q 691 538 691 1209 
L 691 2988 
L 172 2988 
L 172 3322 
L 1269 3322 
L 1269 1388 
Q 1269 781 1417 556 
Q 1566 331 1947 331 
Q 2347 331 2556 625 
Q 2766 919 2766 1478 
L 2766 2988 
L 2266 2988 
L 2266 3322 
z
" transform="scale(0.015625)"/>
        <path id="DejaVuSerif-74" d="M 691 2988 
L 184 2988 
L 184 3322 
L 691 3322 
L 691 4353 
L 1269 4353 
L 1269 3322 
L 2350 3322 
L 2350 2988 
L 1269 2988 
L 1269 878 
Q 1269 456 1350 337 
Q 1431 219 1650 219 
Q 1875 219 1978 351 
Q 2081 484 2088 781 
L 2522 781 
Q 2497 328 2275 118 
Q 2053 -91 1600 -91 
Q 1103 -91 897 129 
Q 691 350 691 878 
L 691 2988 
z
" transform="scale(0.015625)"/>
        <path id="DejaVuSerif-61" d="M 2547 1044 
L 2547 1747 
L 1806 1747 
Q 1378 1747 1168 1562 
Q 959 1378 959 997 
Q 959 650 1171 447 
Q 1384 244 1747 244 
Q 2106 244 2326 466 
Q 2547 688 2547 1044 
z
M 3122 2075 
L 3122 331 
L 3634 331 
L 3634 0 
L 2547 0 
L 2547 359 
Q 2356 128 2106 18 
Q 1856 -91 1522 -91 
Q 969 -91 644 203 
Q 319 497 319 997 
Q 319 1513 691 1797 
Q 1063 2081 1741 2081 
L 2547 2081 
L 2547 2309 
Q 2547 2688 2317 2895 
Q 2088 3103 1672 3103 
Q 1328 3103 1125 2947 
Q 922 2791 872 2484 
L 575 2484 
L 575 3156 
Q 875 3284 1158 3348 
Q 1441 3413 1709 3413 
Q 2400 3413 2761 3070 
Q 3122 2728 3122 2075 
z
" transform="scale(0.015625)"/>
        <path id="DejaVuSerif-6e" d="M 263 0 
L 263 331 
L 781 331 
L 781 2988 
L 231 2988 
L 231 3322 
L 1356 3322 
L 1356 2731 
Q 1516 3069 1770 3241 
Q 2025 3413 2363 3413 
Q 2913 3413 3172 3097 
Q 3431 2781 3431 2113 
L 3431 331 
L 3944 331 
L 3944 0 
L 2356 0 
L 2356 331 
L 2853 331 
L 2853 1931 
Q 2853 2541 2703 2767 
Q 2553 2994 2175 2994 
Q 1775 2994 1565 2701 
Q 1356 2409 1356 1850 
L 1356 331 
L 1856 331 
L 1856 0 
L 263 0 
z
" transform="scale(0.015625)"/>
        <path id="DejaVuSerif-73" d="M 359 184 
L 359 959 
L 691 959 
Q 703 588 923 403 
Q 1144 219 1575 219 
Q 1963 219 2166 364 
Q 2369 509 2369 788 
Q 2369 1006 2220 1140 
Q 2072 1275 1594 1428 
L 1178 1569 
Q 750 1706 558 1912 
Q 366 2119 366 2438 
Q 366 2894 700 3153 
Q 1034 3413 1625 3413 
Q 1888 3413 2178 3344 
Q 2469 3275 2778 3144 
L 2778 2419 
L 2447 2419 
Q 2434 2741 2221 2922 
Q 2009 3103 1644 3103 
Q 1281 3103 1095 2975 
Q 909 2847 909 2591 
Q 909 2381 1050 2254 
Q 1191 2128 1613 1997 
L 2069 1856 
Q 2541 1709 2748 1489 
Q 2956 1269 2956 922 
Q 2956 450 2595 179 
Q 2234 -91 1600 -91 
Q 1278 -91 972 -22 
Q 666 47 359 184 
z
" transform="scale(0.015625)"/>
       </defs>
       <use xlink:href="#DejaVuSerif-4d"/>
       <use xlink:href="#DejaVuSerif-75" x="102.392578"/>
       <use xlink:href="#DejaVuSerif-74" x="166.796875"/>
       <use xlink:href="#DejaVuSerif-61" x="206.982422"/>
       <use xlink:href="#DejaVuSerif-6e" x="266.601562"/>
       <use xlink:href="#DejaVuSerif-74" x="331.005859"/>
       <use xlink:href="#DejaVuSerif-73" x="371.191406"/>
      </g>
     </g>
    </g>
    <g id="xtick_3">
     <g id="line2d_18">
      <g>
       <use xlink:href="#mf2bac2be35" x="355.2" y="307.584" style="stroke: #000000; stroke-width: 0.8"/>
      </g>
     </g>
     <g id="text_3">
      <!-- Non-members -->
      <g transform="translate(283.49375 329.780875) scale(0.2 -0.2)">
       <defs>
        <path id="DejaVuSerif-4e" d="M 313 0 
L 313 331 
L 941 331 
L 941 4331 
L 313 4331 
L 313 4666 
L 1509 4666 
L 4306 984 
L 4306 4331 
L 3681 4331 
L 3681 4666 
L 5319 4666 
L 5319 4331 
L 4691 4331 
L 4691 -91 
L 4313 -91 
L 1325 3841 
L 1325 331 
L 1953 331 
L 1953 0 
L 313 0 
z
" transform="scale(0.015625)"/>
        <path id="DejaVuSerif-6f" d="M 1925 219 
Q 2388 219 2623 584 
Q 2859 950 2859 1663 
Q 2859 2375 2623 2739 
Q 2388 3103 1925 3103 
Q 1463 3103 1227 2739 
Q 991 2375 991 1663 
Q 991 950 1228 584 
Q 1466 219 1925 219 
z
M 1925 -91 
Q 1200 -91 759 389 
Q 319 869 319 1663 
Q 319 2456 758 2934 
Q 1197 3413 1925 3413 
Q 2653 3413 3092 2934 
Q 3531 2456 3531 1663 
Q 3531 869 3092 389 
Q 2653 -91 1925 -91 
z
" transform="scale(0.015625)"/>
        <path id="DejaVuSerif-2d" d="M 281 1959 
L 1881 1959 
L 1881 1472 
L 281 1472 
L 281 1959 
z
" transform="scale(0.015625)"/>
        <path id="DejaVuSerif-6d" d="M 3316 2675 
Q 3481 3041 3739 3227 
Q 3997 3413 4341 3413 
Q 4863 3413 5119 3089 
Q 5375 2766 5375 2113 
L 5375 331 
L 5894 331 
L 5894 0 
L 4300 0 
L 4300 331 
L 4800 331 
L 4800 2047 
Q 4800 2556 4650 2772 
Q 4500 2988 4153 2988 
Q 3769 2988 3567 2697 
Q 3366 2406 3366 1850 
L 3366 331 
L 3866 331 
L 3866 0 
L 2291 0 
L 2291 331 
L 2791 331 
L 2791 2069 
Q 2791 2566 2641 2777 
Q 2491 2988 2144 2988 
Q 1759 2988 1557 2697 
Q 1356 2406 1356 1850 
L 1356 331 
L 1856 331 
L 1856 0 
L 263 0 
L 263 331 
L 781 331 
L 781 2994 
L 231 2994 
L 231 3322 
L 1356 3322 
L 1356 2731 
Q 1516 3063 1762 3238 
Q 2009 3413 2322 3413 
Q 2709 3413 2968 3220 
Q 3228 3028 3316 2675 
z
" transform="scale(0.015625)"/>
        <path id="DejaVuSerif-65" d="M 3469 1600 
L 991 1600 
L 991 1575 
Q 991 903 1244 561 
Q 1497 219 1991 219 
Q 2369 219 2611 417 
Q 2853 616 2950 1006 
L 3413 1006 
Q 3275 459 2904 184 
Q 2534 -91 1931 -91 
Q 1203 -91 761 389 
Q 319 869 319 1663 
Q 319 2450 753 2931 
Q 1188 3413 1894 3413 
Q 2647 3413 3050 2948 
Q 3453 2484 3469 1600 
z
M 2791 1931 
Q 2772 2513 2545 2808 
Q 2319 3103 1894 3103 
Q 1497 3103 1269 2806 
Q 1041 2509 991 1931 
L 2791 1931 
z
" transform="scale(0.015625)"/>
        <path id="DejaVuSerif-62" d="M 738 331 
L 738 4531 
L 184 4531 
L 184 4863 
L 1313 4863 
L 1313 2803 
Q 1481 3116 1742 3264 
Q 2003 3413 2388 3413 
Q 3000 3413 3387 2928 
Q 3775 2444 3775 1663 
Q 3775 881 3387 395 
Q 3000 -91 2388 -91 
Q 2003 -91 1742 57 
Q 1481 206 1313 519 
L 1313 0 
L 184 0 
L 184 331 
L 738 331 
z
M 1313 1497 
Q 1313 897 1542 583 
Q 1772 269 2209 269 
Q 2650 269 2876 622 
Q 3103 975 3103 1663 
Q 3103 2353 2876 2703 
Q 2650 3053 2209 3053 
Q 1772 3053 1542 2737 
Q 1313 2422 1313 1825 
L 1313 1497 
z
" transform="scale(0.015625)"/>
        <path id="DejaVuSerif-72" d="M 3059 3328 
L 3059 2497 
L 2728 2497 
Q 2713 2744 2591 2866 
Q 2469 2988 2234 2988 
Q 1809 2988 1582 2694 
Q 1356 2400 1356 1850 
L 1356 331 
L 2022 331 
L 2022 0 
L 263 0 
L 263 331 
L 781 331 
L 781 2994 
L 231 2994 
L 231 3322 
L 1356 3322 
L 1356 2731 
Q 1525 3078 1790 3245 
Q 2056 3413 2438 3413 
Q 2578 3413 2733 3391 
Q 2888 3369 3059 3328 
z
" transform="scale(0.015625)"/>
       </defs>
       <use xlink:href="#DejaVuSerif-4e"/>
       <use xlink:href="#DejaVuSerif-6f" x="87.5"/>
       <use xlink:href="#DejaVuSerif-6e" x="147.705078"/>
       <use xlink:href="#DejaVuSerif-2d" x="212.109375"/>
       <use xlink:href="#DejaVuSerif-6d" x="245.898438"/>
       <use xlink:href="#DejaVuSerif-65" x="340.722656"/>
       <use xlink:href="#DejaVuSerif-6d" x="399.902344"/>
       <use xlink:href="#DejaVuSerif-62" x="494.726562"/>
       <use xlink:href="#DejaVuSerif-65" x="558.740234"/>
       <use xlink:href="#DejaVuSerif-72" x="617.919922"/>
       <use xlink:href="#DejaVuSerif-73" x="665.722656"/>
      </g>
     </g>
    </g>
   </g>
   <g id="matplotlib.axis_2">
    <g id="ytick_1">
     <g id="line2d_19">
      <defs>
       <path id="mef7356a94b" d="M 0 0 
L -3.5 0 
" style="stroke: #000000; stroke-width: 0.8"/>
      </defs>
      <g>
       <use xlink:href="#mef7356a94b" x="57.6" y="296.057506" style="stroke: #000000; stroke-width: 0.8"/>
      </g>
     </g>
     <g id="text_4">
      <!-- 0 -->
      <g transform="translate(44.2375 299.856725) scale(0.1 -0.1)">
       <defs>
        <path id="DejaVuSerif-30" d="M 2034 219 
Q 2513 219 2750 744 
Q 2988 1269 2988 2328 
Q 2988 3391 2750 3916 
Q 2513 4441 2034 4441 
Q 1556 4441 1318 3916 
Q 1081 3391 1081 2328 
Q 1081 1269 1318 744 
Q 1556 219 2034 219 
z
M 2034 -91 
Q 1275 -91 848 546 
Q 422 1184 422 2328 
Q 422 3475 848 4112 
Q 1275 4750 2034 4750 
Q 2797 4750 3222 4112 
Q 3647 3475 3647 2328 
Q 3647 1184 3222 546 
Q 2797 -91 2034 -91 
z
" transform="scale(0.015625)"/>
       </defs>
       <use xlink:href="#DejaVuSerif-30"/>
      </g>
     </g>
    </g>
    <g id="ytick_2">
     <g id="line2d_20">
      <g>
       <use xlink:href="#mef7356a94b" x="57.6" y="252.249345" style="stroke: #000000; stroke-width: 0.8"/>
      </g>
     </g>
     <g id="text_5">
      <!-- 1000 -->
      <g transform="translate(25.15 256.048563) scale(0.1 -0.1)">
       <defs>
        <path id="DejaVuSerif-31" d="M 909 0 
L 909 331 
L 1722 331 
L 1722 4213 
L 781 3603 
L 781 4013 
L 1919 4750 
L 2350 4750 
L 2350 331 
L 3163 331 
L 3163 0 
L 909 0 
z
" transform="scale(0.015625)"/>
       </defs>
       <use xlink:href="#DejaVuSerif-31"/>
       <use xlink:href="#DejaVuSerif-30" x="63.623047"/>
       <use xlink:href="#DejaVuSerif-30" x="127.246094"/>
       <use xlink:href="#DejaVuSerif-30" x="190.869141"/>
      </g>
     </g>
    </g>
    <g id="ytick_3">
     <g id="line2d_21">
      <g>
       <use xlink:href="#mef7356a94b" x="57.6" y="208.441183" style="stroke: #000000; stroke-width: 0.8"/>
      </g>
     </g>
     <g id="text_6">
      <!-- 2000 -->
      <g transform="translate(25.15 212.240402) scale(0.1 -0.1)">
       <defs>
        <path id="DejaVuSerif-32" d="M 819 3553 
L 469 3553 
L 469 4384 
Q 803 4563 1142 4656 
Q 1481 4750 1806 4750 
Q 2534 4750 2956 4397 
Q 3378 4044 3378 3438 
Q 3378 2753 2422 1800 
Q 2347 1728 2309 1691 
L 1131 513 
L 3078 513 
L 3078 1088 
L 3444 1088 
L 3444 0 
L 434 0 
L 434 341 
L 1850 1753 
Q 2319 2222 2519 2614 
Q 2719 3006 2719 3438 
Q 2719 3909 2473 4175 
Q 2228 4441 1797 4441 
Q 1350 4441 1106 4219 
Q 863 3997 819 3553 
z
" transform="scale(0.015625)"/>
       </defs>
       <use xlink:href="#DejaVuSerif-32"/>
       <use xlink:href="#DejaVuSerif-30" x="63.623047"/>
       <use xlink:href="#DejaVuSerif-30" x="127.246094"/>
       <use xlink:href="#DejaVuSerif-30" x="190.869141"/>
      </g>
     </g>
    </g>
    <g id="ytick_4">
     <g id="line2d_22">
      <g>
       <use xlink:href="#mef7356a94b" x="57.6" y="164.633022" style="stroke: #000000; stroke-width: 0.8"/>
      </g>
     </g>
     <g id="text_7">
      <!-- 3000 -->
      <g transform="translate(25.15 168.432241) scale(0.1 -0.1)">
       <defs>
        <path id="DejaVuSerif-33" d="M 622 4469 
Q 988 4606 1323 4678 
Q 1659 4750 1953 4750 
Q 2638 4750 3022 4454 
Q 3406 4159 3406 3634 
Q 3406 3213 3140 2930 
Q 2875 2647 2388 2547 
Q 2963 2466 3280 2130 
Q 3597 1794 3597 1259 
Q 3597 606 3158 257 
Q 2719 -91 1894 -91 
Q 1528 -91 1179 -12 
Q 831 66 488 225 
L 488 1131 
L 838 1131 
Q 869 681 1141 450 
Q 1413 219 1906 219 
Q 2384 219 2661 495 
Q 2938 772 2938 1253 
Q 2938 1803 2653 2086 
Q 2369 2369 1819 2369 
L 1522 2369 
L 1522 2688 
L 1678 2688 
Q 2225 2688 2498 2914 
Q 2772 3141 2772 3597 
Q 2772 4006 2547 4223 
Q 2322 4441 1900 4441 
Q 1478 4441 1245 4241 
Q 1013 4041 972 3647 
L 622 3647 
L 622 4469 
z
" transform="scale(0.015625)"/>
       </defs>
       <use xlink:href="#DejaVuSerif-33"/>
       <use xlink:href="#DejaVuSerif-30" x="63.623047"/>
       <use xlink:href="#DejaVuSerif-30" x="127.246094"/>
       <use xlink:href="#DejaVuSerif-30" x="190.869141"/>
      </g>
     </g>
    </g>
    <g id="ytick_5">
     <g id="line2d_23">
      <g>
       <use xlink:href="#mef7356a94b" x="57.6" y="120.824861" style="stroke: #000000; stroke-width: 0.8"/>
      </g>
     </g>
     <g id="text_8">
      <!-- 4000 -->
      <g transform="translate(25.15 124.624079) scale(0.1 -0.1)">
       <defs>
        <path id="DejaVuSerif-34" d="M 2234 1581 
L 2234 4063 
L 641 1581 
L 2234 1581 
z
M 3609 0 
L 1484 0 
L 1484 331 
L 2234 331 
L 2234 1247 
L 197 1247 
L 197 1588 
L 2241 4750 
L 2859 4750 
L 2859 1581 
L 3750 1581 
L 3750 1247 
L 2859 1247 
L 2859 331 
L 3609 331 
L 3609 0 
z
" transform="scale(0.015625)"/>
       </defs>
       <use xlink:href="#DejaVuSerif-34"/>
       <use xlink:href="#DejaVuSerif-30" x="63.623047"/>
       <use xlink:href="#DejaVuSerif-30" x="127.246094"/>
       <use xlink:href="#DejaVuSerif-30" x="190.869141"/>
      </g>
     </g>
    </g>
    <g id="ytick_6">
     <g id="line2d_24">
      <g>
       <use xlink:href="#mef7356a94b" x="57.6" y="77.016699" style="stroke: #000000; stroke-width: 0.8"/>
      </g>
     </g>
     <g id="text_9">
      <!-- 5000 -->
      <g transform="translate(25.15 80.815918) scale(0.1 -0.1)">
       <defs>
        <path id="DejaVuSerif-35" d="M 3219 4666 
L 3219 4153 
L 1081 4153 
L 1081 2816 
Q 1244 2928 1461 2984 
Q 1678 3041 1947 3041 
Q 2703 3041 3140 2622 
Q 3578 2203 3578 1478 
Q 3578 738 3136 323 
Q 2694 -91 1894 -91 
Q 1572 -91 1234 -12 
Q 897 66 544 225 
L 544 1131 
L 897 1131 
Q 925 688 1179 453 
Q 1434 219 1894 219 
Q 2388 219 2653 544 
Q 2919 869 2919 1478 
Q 2919 2084 2655 2407 
Q 2391 2731 1894 2731 
Q 1613 2731 1398 2631 
Q 1184 2531 1019 2322 
L 750 2322 
L 750 4666 
L 3219 4666 
z
" transform="scale(0.015625)"/>
       </defs>
       <use xlink:href="#DejaVuSerif-35"/>
       <use xlink:href="#DejaVuSerif-30" x="63.623047"/>
       <use xlink:href="#DejaVuSerif-30" x="127.246094"/>
       <use xlink:href="#DejaVuSerif-30" x="190.869141"/>
      </g>
     </g>
    </g>
    <g id="text_10">
     <!-- Ingoing approaches -->
     <g transform="translate(16.70625 275.178) rotate(-90) scale(0.2 -0.2)">
      <defs>
       <path id="DejaVuSerif-49" d="M 1581 331 
L 2175 331 
L 2175 0 
L 353 0 
L 353 331 
L 947 331 
L 947 4331 
L 353 4331 
L 353 4666 
L 2175 4666 
L 2175 4331 
L 1581 4331 
L 1581 331 
z
" transform="scale(0.015625)"/>
       <path id="DejaVuSerif-67" d="M 3359 2988 
L 3359 72 
Q 3359 -644 2965 -1033 
Q 2572 -1422 1844 -1422 
Q 1516 -1422 1216 -1362 
Q 916 -1303 641 -1184 
L 641 -488 
L 941 -488 
Q 997 -813 1206 -963 
Q 1416 -1113 1806 -1113 
Q 2313 -1113 2548 -827 
Q 2784 -541 2784 72 
L 2784 519 
Q 2616 206 2355 57 
Q 2094 -91 1709 -91 
Q 1097 -91 708 395 
Q 319 881 319 1663 
Q 319 2444 706 2928 
Q 1094 3413 1709 3413 
Q 2094 3413 2355 3264 
Q 2616 3116 2784 2803 
L 2784 3322 
L 3909 3322 
L 3909 2988 
L 3359 2988 
z
M 2784 1825 
Q 2784 2422 2554 2737 
Q 2325 3053 1888 3053 
Q 1444 3053 1217 2703 
Q 991 2353 991 1663 
Q 991 975 1217 622 
Q 1444 269 1888 269 
Q 2325 269 2554 583 
Q 2784 897 2784 1497 
L 2784 1825 
z
" transform="scale(0.015625)"/>
       <path id="DejaVuSerif-69" d="M 622 4353 
Q 622 4497 726 4603 
Q 831 4709 978 4709 
Q 1122 4709 1226 4603 
Q 1331 4497 1331 4353 
Q 1331 4206 1228 4103 
Q 1125 4000 978 4000 
Q 831 4000 726 4103 
Q 622 4206 622 4353 
z
M 1356 331 
L 1900 331 
L 1900 0 
L 231 0 
L 231 331 
L 781 331 
L 781 2988 
L 231 2988 
L 231 3322 
L 1356 3322 
L 1356 331 
z
" transform="scale(0.015625)"/>
       <path id="DejaVuSerif-20" transform="scale(0.015625)"/>
       <path id="DejaVuSerif-70" d="M 1313 1825 
L 1313 1497 
Q 1313 897 1542 583 
Q 1772 269 2209 269 
Q 2650 269 2876 622 
Q 3103 975 3103 1663 
Q 3103 2353 2876 2703 
Q 2650 3053 2209 3053 
Q 1772 3053 1542 2737 
Q 1313 2422 1313 1825 
z
M 738 2988 
L 184 2988 
L 184 3322 
L 1313 3322 
L 1313 2803 
Q 1481 3116 1742 3264 
Q 2003 3413 2388 3413 
Q 3000 3413 3387 2928 
Q 3775 2444 3775 1663 
Q 3775 881 3387 395 
Q 3000 -91 2388 -91 
Q 2003 -91 1742 57 
Q 1481 206 1313 519 
L 1313 -997 
L 1856 -997 
L 1856 -1331 
L 184 -1331 
L 184 -997 
L 738 -997 
L 738 2988 
z
" transform="scale(0.015625)"/>
       <path id="DejaVuSerif-63" d="M 3291 997 
Q 3169 466 2822 187 
Q 2475 -91 1925 -91 
Q 1200 -91 759 389 
Q 319 869 319 1663 
Q 319 2459 759 2936 
Q 1200 3413 1925 3413 
Q 2241 3413 2553 3339 
Q 2866 3266 3181 3116 
L 3181 2266 
L 2847 2266 
Q 2781 2703 2561 2903 
Q 2341 3103 1931 3103 
Q 1466 3103 1228 2742 
Q 991 2381 991 1663 
Q 991 944 1227 581 
Q 1463 219 1931 219 
Q 2303 219 2525 412 
Q 2747 606 2828 997 
L 3291 997 
z
" transform="scale(0.015625)"/>
       <path id="DejaVuSerif-68" d="M 263 0 
L 263 331 
L 781 331 
L 781 4531 
L 231 4531 
L 231 4863 
L 1356 4863 
L 1356 2731 
Q 1516 3069 1770 3241 
Q 2025 3413 2363 3413 
Q 2913 3413 3172 3097 
Q 3431 2781 3431 2113 
L 3431 331 
L 3944 331 
L 3944 0 
L 2356 0 
L 2356 331 
L 2853 331 
L 2853 1931 
Q 2853 2541 2704 2764 
Q 2556 2988 2175 2988 
Q 1775 2988 1565 2697 
Q 1356 2406 1356 1850 
L 1356 331 
L 1856 331 
L 1856 0 
L 263 0 
z
" transform="scale(0.015625)"/>
      </defs>
      <use xlink:href="#DejaVuSerif-49"/>
      <use xlink:href="#DejaVuSerif-6e" x="39.501953"/>
      <use xlink:href="#DejaVuSerif-67" x="103.90625"/>
      <use xlink:href="#DejaVuSerif-6f" x="167.919922"/>
      <use xlink:href="#DejaVuSerif-69" x="228.125"/>
      <use xlink:href="#DejaVuSerif-6e" x="260.107422"/>
      <use xlink:href="#DejaVuSerif-67" x="324.511719"/>
      <use xlink:href="#DejaVuSerif-20" x="388.525391"/>
      <use xlink:href="#DejaVuSerif-61" x="420.3125"/>
      <use xlink:href="#DejaVuSerif-70" x="479.931641"/>
      <use xlink:href="#DejaVuSerif-70" x="543.945312"/>
      <use xlink:href="#DejaVuSerif-72" x="607.958984"/>
      <use xlink:href="#DejaVuSerif-6f" x="655.761719"/>
      <use xlink:href="#DejaVuSerif-61" x="715.966797"/>
      <use xlink:href="#DejaVuSerif-63" x="775.585938"/>
      <use xlink:href="#DejaVuSerif-68" x="831.591797"/>
      <use xlink:href="#DejaVuSerif-65" x="895.996094"/>
      <use xlink:href="#DejaVuSerif-73" x="955.175781"/>
     </g>
    </g>
   </g>
   <g id="line2d_25">
    <path d="M 117.12 120.262232 
L 117.12 117.200305 
L 355.2 117.200305 
L 355.2 120.262232 
" clip-path="url(#p0742756518)" style="fill: none; stroke: #000000; stroke-linecap: square"/>
   </g>
   <g id="line2d_26">
    <path d="M 117.12 84.751944 
L 117.12 80.829615 
L 236.16 80.829615 
L 236.16 84.751944 
" clip-path="url(#p0742756518)" style="fill: none; stroke: #000000; stroke-linecap: square"/>
   </g>
   <g id="line2d_27">
    <path d="M 236.16 58.290484 
L 236.16 53.568 
L 355.2 53.568 
L 355.2 58.290484 
" clip-path="url(#p0742756518)" style="fill: none; stroke: #000000; stroke-linecap: square"/>
   </g>
   <g id="patch_6">
    <path d="M 57.6 307.584 
L 57.6 41.472 
" style="fill: none; stroke: #000000; stroke-width: 0.8; stroke-linejoin: miter; stroke-linecap: square"/>
   </g>
   <g id="patch_7">
    <path d="M 414.72 307.584 
L 414.72 41.472 
" style="fill: none; stroke: #000000; stroke-width: 0.8; stroke-linejoin: miter; stroke-linecap: square"/>
   </g>
   <g id="patch_8">
    <path d="M 57.6 307.584 
L 414.72 307.584 
" style="fill: none; stroke: #000000; stroke-width: 0.8; stroke-linejoin: miter; stroke-linecap: square"/>
   </g>
   <g id="patch_9">
    <path d="M 57.6 41.472 
L 414.72 41.472 
" style="fill: none; stroke: #000000; stroke-width: 0.8; stroke-linejoin: miter; stroke-linecap: square"/>
   </g>
   <g id="text_11">
    <!-- *** -->
    <g transform="translate(221.16 117.633821) scale(0.2 -0.2)">
     <defs>
      <path id="DejaVuSerif-2a" d="M 3097 3866 
L 1875 3297 
L 3097 2719 
L 2859 2350 
L 1772 3028 
L 1813 1838 
L 1388 1838 
L 1428 3028 
L 341 2350 
L 103 2719 
L 1325 3291 
L 103 3866 
L 341 4238 
L 1428 3559 
L 1388 4750 
L 1813 4750 
L 1772 3559 
L 2859 4238 
L 3097 3866 
z
" transform="scale(0.015625)"/>
     </defs>
     <use xlink:href="#DejaVuSerif-2a"/>
     <use xlink:href="#DejaVuSerif-2a" x="50"/>
     <use xlink:href="#DejaVuSerif-2a" x="100"/>
    </g>
   </g>
   <g id="text_12">
    <!-- *** -->
    <g transform="translate(161.64 82.553734) scale(0.2 -0.2)">
     <use xlink:href="#DejaVuSerif-2a"/>
     <use xlink:href="#DejaVuSerif-2a" x="50"/>
     <use xlink:href="#DejaVuSerif-2a" x="100"/>
    </g>
   </g>
   <g id="text_13">
    <!-- p = 0.183 -->
    <g transform="translate(270.797187 49.12707) scale(0.1 -0.1)">
     <defs>
      <path id="DejaVuSerif-3d" d="M 678 2894 
L 4684 2894 
L 4684 2394 
L 678 2394 
L 678 2894 
z
M 678 1619 
L 4684 1619 
L 4684 1119 
L 678 1119 
L 678 1619 
z
" transform="scale(0.015625)"/>
      <path id="DejaVuSerif-2e" d="M 603 325 
Q 603 500 722 622 
Q 841 744 1019 744 
Q 1191 744 1312 622 
Q 1434 500 1434 325 
Q 1434 153 1312 31 
Q 1191 -91 1019 -91 
Q 841 -91 722 29 
Q 603 150 603 325 
z
" transform="scale(0.015625)"/>
      <path id="DejaVuSerif-38" d="M 2981 1275 
Q 2981 1775 2732 2051 
Q 2484 2328 2034 2328 
Q 1584 2328 1336 2051 
Q 1088 1775 1088 1275 
Q 1088 772 1336 495 
Q 1584 219 2034 219 
Q 2484 219 2732 495 
Q 2981 772 2981 1275 
z
M 2853 3541 
Q 2853 3966 2637 4203 
Q 2422 4441 2034 4441 
Q 1650 4441 1433 4203 
Q 1216 3966 1216 3541 
Q 1216 3113 1433 2875 
Q 1650 2638 2034 2638 
Q 2422 2638 2637 2875 
Q 2853 3113 2853 3541 
z
M 2516 2484 
Q 3047 2413 3344 2092 
Q 3641 1772 3641 1275 
Q 3641 619 3225 264 
Q 2809 -91 2034 -91 
Q 1263 -91 845 264 
Q 428 619 428 1275 
Q 428 1772 725 2092 
Q 1022 2413 1556 2484 
Q 1084 2569 832 2842 
Q 581 3116 581 3541 
Q 581 4103 968 4426 
Q 1356 4750 2034 4750 
Q 2713 4750 3100 4426 
Q 3488 4103 3488 3541 
Q 3488 3116 3236 2842 
Q 2984 2569 2516 2484 
z
" transform="scale(0.015625)"/>
     </defs>
     <use xlink:href="#DejaVuSerif-70"/>
     <use xlink:href="#DejaVuSerif-20" x="64.013672"/>
     <use xlink:href="#DejaVuSerif-3d" x="95.800781"/>
     <use xlink:href="#DejaVuSerif-20" x="179.589844"/>
     <use xlink:href="#DejaVuSerif-30" x="211.376953"/>
     <use xlink:href="#DejaVuSerif-2e" x="275"/>
     <use xlink:href="#DejaVuSerif-31" x="306.787109"/>
     <use xlink:href="#DejaVuSerif-38" x="370.410156"/>
     <use xlink:href="#DejaVuSerif-33" x="434.033203"/>
    </g>
   </g>
  </g>
 </g>
 <defs>
  <clipPath id="p0742756518">
   <rect x="57.6" y="41.472" width="357.12" height="266.112"/>
  </clipPath>
 </defs>
</svg>
