<?xml version="1.0" encoding="utf-8" standalone="no"?>
<!DOCTYPE svg PUBLIC "-//W3C//DTD SVG 1.1//EN"
  "http://www.w3.org/Graphics/SVG/1.1/DTD/svg11.dtd">
<svg xmlns:xlink="http://www.w3.org/1999/xlink" width="460.8pt" height="345.6pt" viewBox="0 0 460.8 345.6" xmlns="http://www.w3.org/2000/svg" version="1.1">
 <metadata>
  <rdf:RDF xmlns:dc="http://purl.org/dc/elements/1.1/" xmlns:cc="http://creativecommons.org/ns#" xmlns:rdf="http://www.w3.org/1999/02/22-rdf-syntax-ns#">
   <cc:Work>
    <dc:type rdf:resource="http://purl.org/dc/dcmitype/StillImage"/>
    <dc:date>2025-06-03T11:46:29.394927</dc:date>
    <dc:format>image/svg+xml</dc:format>
    <dc:creator>
     <cc:Agent>
      <dc:title>Matplotlib v3.9.2, https://matplotlib.org/</dc:title>
     </cc:Agent>
    </dc:creator>
   </cc:Work>
  </rdf:RDF>
 </metadata>
 <defs>
  <style type="text/css">*{stroke-linejoin: round; stroke-linecap: butt}</style>
 </defs>
 <g id="figure_1">
  <g id="patch_1">
   <path d="M 0 345.6 
L 460.8 345.6 
L 460.8 0 
L 0 0 
z
" style="fill: #ffffff"/>
  </g>
  <g id="axes_1">
   <g id="patch_2">
    <path d="M 73.19 308.36 
L 437.925 308.36 
L 437.925 11.145242 
L 73.19 11.145242 
z
" style="fill: #ffffff"/>
   </g>
   <g id="patch_3">
    <path d="M 97.505667 228.929183 
L 170.452667 228.929183 
L 170.452667 171.845108 
L 97.505667 171.845108 
L 97.505667 228.929183 
z
" clip-path="url(#p80586c82ad)" style="fill: #a1c9f4; stroke: #000000; stroke-linejoin: miter"/>
   </g>
   <g id="line2d_1">
    <path d="M 133.979167 228.929183 
L 133.979167 272.473891 
" clip-path="url(#p80586c82ad)" style="fill: none; stroke: #000000; stroke-linecap: square"/>
   </g>
   <g id="line2d_2">
    <path d="M 133.979167 171.845108 
L 133.979167 139.404739 
" clip-path="url(#p80586c82ad)" style="fill: none; stroke: #000000; stroke-linecap: square"/>
   </g>
   <g id="line2d_3">
    <path d="M 115.742417 272.473891 
L 152.215917 272.473891 
" clip-path="url(#p80586c82ad)" style="fill: none; stroke: #000000; stroke-linecap: square"/>
   </g>
   <g id="line2d_4">
    <path d="M 115.742417 139.404739 
L 152.215917 139.404739 
" clip-path="url(#p80586c82ad)" style="fill: none; stroke: #000000; stroke-linecap: square"/>
   </g>
   <g id="patch_4">
    <path d="M 219.084 273.030251 
L 292.031 273.030251 
L 292.031 237.103104 
L 219.084 237.103104 
L 219.084 273.030251 
z
" clip-path="url(#p80586c82ad)" style="fill: #ffb482; stroke: #000000; stroke-linejoin: miter"/>
   </g>
   <g id="line2d_5">
    <path d="M 255.5575 273.030251 
L 255.5575 293.188779 
" clip-path="url(#p80586c82ad)" style="fill: none; stroke: #000000; stroke-linecap: square"/>
   </g>
   <g id="line2d_6">
    <path d="M 255.5575 237.103104 
L 255.5575 196.961339 
" clip-path="url(#p80586c82ad)" style="fill: none; stroke: #000000; stroke-linecap: square"/>
   </g>
   <g id="line2d_7">
    <path d="M 237.32075 293.188779 
L 273.79425 293.188779 
" clip-path="url(#p80586c82ad)" style="fill: none; stroke: #000000; stroke-linecap: square"/>
   </g>
   <g id="line2d_8">
    <path d="M 237.32075 196.961339 
L 273.79425 196.961339 
" clip-path="url(#p80586c82ad)" style="fill: none; stroke: #000000; stroke-linecap: square"/>
   </g>
   <g id="patch_5">
    <path d="M 340.662333 282.717014 
L 413.609333 282.717014 
L 413.609333 246.561227 
L 340.662333 246.561227 
L 340.662333 282.717014 
z
" clip-path="url(#p80586c82ad)" style="fill: #8de5a1; stroke: #000000; stroke-linejoin: miter"/>
   </g>
   <g id="line2d_9">
    <path d="M 377.135833 282.717014 
L 377.135833 294.850238 
" clip-path="url(#p80586c82ad)" style="fill: none; stroke: #000000; stroke-linecap: square"/>
   </g>
   <g id="line2d_10">
    <path d="M 377.135833 246.561227 
L 377.135833 200.02513 
" clip-path="url(#p80586c82ad)" style="fill: none; stroke: #000000; stroke-linecap: square"/>
   </g>
   <g id="line2d_11">
    <path d="M 358.899083 294.850238 
L 395.372583 294.850238 
" clip-path="url(#p80586c82ad)" style="fill: none; stroke: #000000; stroke-linecap: square"/>
   </g>
   <g id="line2d_12">
    <path d="M 358.899083 200.02513 
L 395.372583 200.02513 
" clip-path="url(#p80586c82ad)" style="fill: none; stroke: #000000; stroke-linecap: square"/>
   </g>
   <g id="PathCollection_1">
    <defs>
     <path id="mcad53637c5" d="M 0 3.162278 
C 0.838646 3.162278 1.643056 2.82908 2.236068 2.236068 
C 2.82908 1.643056 3.162278 0.838646 3.162278 0 
C 3.162278 -0.838646 2.82908 -1.643056 2.236068 -2.236068 
C 1.643056 -2.82908 0.838646 -3.162278 0 -3.162278 
C -0.838646 -3.162278 -1.643056 -2.82908 -2.236068 -2.236068 
C -2.82908 -1.643056 -3.162278 -0.838646 -3.162278 0 
C -3.162278 0.838646 -2.82908 1.643056 -2.236068 2.236068 
C -1.643056 2.82908 -0.838646 3.162278 0 3.162278 
z
" style="stroke: #1f77b4"/>
    </defs>
    <g clip-path="url(#p80586c82ad)">
     <use xlink:href="#mcad53637c5" x="131.70423" y="226.730417" style="fill: #1f77b4; stroke: #1f77b4"/>
     <use xlink:href="#mcad53637c5" x="146.132502" y="231.196541" style="fill: #1f77b4; stroke: #1f77b4"/>
     <use xlink:href="#mcad53637c5" x="136.508717" y="201.884745" style="fill: #1f77b4; stroke: #1f77b4"/>
     <use xlink:href="#mcad53637c5" x="137.908016" y="210.877964" style="fill: #1f77b4; stroke: #1f77b4"/>
     <use xlink:href="#mcad53637c5" x="126.65686" y="231.272755" style="fill: #1f77b4; stroke: #1f77b4"/>
     <use xlink:href="#mcad53637c5" x="135.131412" y="140.624159" style="fill: #1f77b4; stroke: #1f77b4"/>
     <use xlink:href="#mcad53637c5" x="131.759966" y="141.706393" style="fill: #1f77b4; stroke: #1f77b4"/>
     <use xlink:href="#mcad53637c5" x="142.302668" y="178.029851" style="fill: #1f77b4; stroke: #1f77b4"/>
     <use xlink:href="#mcad53637c5" x="146.078962" y="245.738118" style="fill: #1f77b4; stroke: #1f77b4"/>
     <use xlink:href="#mcad53637c5" x="134.61167" y="233.757322" style="fill: #1f77b4; stroke: #1f77b4"/>
     <use xlink:href="#mcad53637c5" x="130.87252" y="206.198442" style="fill: #1f77b4; stroke: #1f77b4"/>
     <use xlink:href="#mcad53637c5" x="137.861951" y="272.473891" style="fill: #1f77b4; stroke: #1f77b4"/>
     <use xlink:href="#mcad53637c5" x="136.313994" y="228.9711" style="fill: #1f77b4; stroke: #1f77b4"/>
     <use xlink:href="#mcad53637c5" x="126.375215" y="216.289138" style="fill: #1f77b4; stroke: #1f77b4"/>
     <use xlink:href="#mcad53637c5" x="129.509075" y="224.733618" style="fill: #1f77b4; stroke: #1f77b4"/>
     <use xlink:href="#mcad53637c5" x="128.161405" y="169.783527" style="fill: #1f77b4; stroke: #1f77b4"/>
     <use xlink:href="#mcad53637c5" x="125.953153" y="159.997686" style="fill: #1f77b4; stroke: #1f77b4"/>
     <use xlink:href="#mcad53637c5" x="130.006559" y="203.393777" style="fill: #1f77b4; stroke: #1f77b4"/>
     <use xlink:href="#mcad53637c5" x="133.778998" y="223.255072" style="fill: #1f77b4; stroke: #1f77b4"/>
     <use xlink:href="#mcad53637c5" x="144.04744" y="238.101504" style="fill: #1f77b4; stroke: #1f77b4"/>
     <use xlink:href="#mcad53637c5" x="138.094634" y="228.80343" style="fill: #1f77b4; stroke: #1f77b4"/>
     <use xlink:href="#mcad53637c5" x="135.046555" y="158.442926" style="fill: #1f77b4; stroke: #1f77b4"/>
     <use xlink:href="#mcad53637c5" x="136.673467" y="139.404739" style="fill: #1f77b4; stroke: #1f77b4"/>
     <use xlink:href="#mcad53637c5" x="135.701256" y="162.63468" style="fill: #1f77b4; stroke: #1f77b4"/>
     <use xlink:href="#mcad53637c5" x="136.330154" y="201.351249" style="fill: #1f77b4; stroke: #1f77b4"/>
     <use xlink:href="#mcad53637c5" x="128.383551" y="184.309862" style="fill: #1f77b4; stroke: #1f77b4"/>
    </g>
   </g>
   <g id="PathCollection_2">
    <defs>
     <path id="ma775974857" d="M 0 3.162278 
C 0.838646 3.162278 1.643056 2.82908 2.236068 2.236068 
C 2.82908 1.643056 3.162278 0.838646 3.162278 0 
C 3.162278 -0.838646 2.82908 -1.643056 2.236068 -2.236068 
C 1.643056 -2.82908 0.838646 -3.162278 0 -3.162278 
C -0.838646 -3.162278 -1.643056 -2.82908 -2.236068 -2.236068 
C -2.82908 -1.643056 -3.162278 -0.838646 -3.162278 0 
C -3.162278 0.838646 -2.82908 1.643056 -2.236068 2.236068 
C -1.643056 2.82908 -0.838646 3.162278 0 3.162278 
z
" style="stroke: #ff7f0e"/>
    </defs>
    <g clip-path="url(#p80586c82ad)">
     <use xlink:href="#ma775974857" x="260.79472" y="231.196541" style="fill: #ff7f0e; stroke: #ff7f0e"/>
     <use xlink:href="#ma775974857" x="264.026266" y="264.959218" style="fill: #ff7f0e; stroke: #ff7f0e"/>
     <use xlink:href="#ma775974857" x="258.917466" y="249.792688" style="fill: #ff7f0e; stroke: #ff7f0e"/>
     <use xlink:href="#ma775974857" x="260.688953" y="270.294178" style="fill: #ff7f0e; stroke: #ff7f0e"/>
     <use xlink:href="#ma775974857" x="252.296123" y="279.546524" style="fill: #ff7f0e; stroke: #ff7f0e"/>
     <use xlink:href="#ma775974857" x="244.637845" y="196.961339" style="fill: #ff7f0e; stroke: #ff7f0e"/>
     <use xlink:href="#ma775974857" x="257.911215" y="274.181078" style="fill: #ff7f0e; stroke: #ff7f0e"/>
     <use xlink:href="#ma775974857" x="265.975725" y="252.185799" style="fill: #ff7f0e; stroke: #ff7f0e"/>
     <use xlink:href="#ma775974857" x="260.695409" y="250.69201" style="fill: #ff7f0e; stroke: #ff7f0e"/>
     <use xlink:href="#ma775974857" x="259.812709" y="167.710514" style="fill: #ff7f0e; stroke: #ff7f0e"/>
     <use xlink:href="#ma775974857" x="257.561795" y="265.751841" style="fill: #ff7f0e; stroke: #ff7f0e"/>
     <use xlink:href="#ma775974857" x="255.658263" y="268.297379" style="fill: #ff7f0e; stroke: #ff7f0e"/>
     <use xlink:href="#ma775974857" x="264.927447" y="250.966379" style="fill: #ff7f0e; stroke: #ff7f0e"/>
     <use xlink:href="#ma775974857" x="264.264289" y="270.370392" style="fill: #ff7f0e; stroke: #ff7f0e"/>
     <use xlink:href="#ma775974857" x="264.963445" y="243.436464" style="fill: #ff7f0e; stroke: #ff7f0e"/>
     <use xlink:href="#ma775974857" x="256.620883" y="197.891146" style="fill: #ff7f0e; stroke: #ff7f0e"/>
     <use xlink:href="#ma775974857" x="262.639694" y="166.613036" style="fill: #ff7f0e; stroke: #ff7f0e"/>
     <use xlink:href="#ma775974857" x="255.230506" y="293.188779" style="fill: #ff7f0e; stroke: #ff7f0e"/>
     <use xlink:href="#ma775974857" x="252.151012" y="289.30188" style="fill: #ff7f0e; stroke: #ff7f0e"/>
     <use xlink:href="#ma775974857" x="266.917464" y="292.015088" style="fill: #ff7f0e; stroke: #ff7f0e"/>
     <use xlink:href="#ma775974857" x="256.751397" y="291.02431" style="fill: #ff7f0e; stroke: #ff7f0e"/>
     <use xlink:href="#ma775974857" x="252.368493" y="287.320323" style="fill: #ff7f0e; stroke: #ff7f0e"/>
     <use xlink:href="#ma775974857" x="254.036084" y="286.984983" style="fill: #ff7f0e; stroke: #ff7f0e"/>
     <use xlink:href="#ma775974857" x="260.170232" y="263.755041" style="fill: #ff7f0e; stroke: #ff7f0e"/>
     <use xlink:href="#ma775974857" x="246.783179" y="162.63468" style="fill: #ff7f0e; stroke: #ff7f0e"/>
     <use xlink:href="#ma775974857" x="265.549436" y="223.63614" style="fill: #ff7f0e; stroke: #ff7f0e"/>
     <use xlink:href="#ma775974857" x="249.261874" y="243.009667" style="fill: #ff7f0e; stroke: #ff7f0e"/>
     <use xlink:href="#ma775974857" x="245.851493" y="271.879424" style="fill: #ff7f0e; stroke: #ff7f0e"/>
     <use xlink:href="#ma775974857" x="264.819929" y="255.295319" style="fill: #ff7f0e; stroke: #ff7f0e"/>
     <use xlink:href="#ma775974857" x="260.978016" y="259.807171" style="fill: #ff7f0e; stroke: #ff7f0e"/>
     <use xlink:href="#ma775974857" x="258.286927" y="223.209343" style="fill: #ff7f0e; stroke: #ff7f0e"/>
    </g>
   </g>
   <g id="PathCollection_3">
    <defs>
     <path id="mdeafceb84d" d="M 0 3.162278 
C 0.838646 3.162278 1.643056 2.82908 2.236068 2.236068 
C 2.82908 1.643056 3.162278 0.838646 3.162278 0 
C 3.162278 -0.838646 2.82908 -1.643056 2.236068 -2.236068 
C 1.643056 -2.82908 0.838646 -3.162278 0 -3.162278 
C -0.838646 -3.162278 -1.643056 -2.82908 -2.236068 -2.236068 
C -2.82908 -1.643056 -3.162278 -0.838646 -3.162278 0 
C -3.162278 0.838646 -2.82908 1.643056 -2.236068 2.236068 
C -1.643056 2.82908 -0.838646 3.162278 0 3.162278 
z
" style="stroke: #2ca02c"/>
    </defs>
    <g clip-path="url(#p80586c82ad)">
     <use xlink:href="#mdeafceb84d" x="375.041264" y="261.880184" style="fill: #2ca02c; stroke: #2ca02c"/>
     <use xlink:href="#mdeafceb84d" x="374.085415" y="250.128029" style="fill: #2ca02c; stroke: #2ca02c"/>
     <use xlink:href="#mdeafceb84d" x="377.094729" y="250.539583" style="fill: #2ca02c; stroke: #2ca02c"/>
     <use xlink:href="#mdeafceb84d" x="365.849069" y="274.501176" style="fill: #2ca02c; stroke: #2ca02c"/>
     <use xlink:href="#mdeafceb84d" x="373.707352" y="272.931173" style="fill: #2ca02c; stroke: #2ca02c"/>
     <use xlink:href="#mdeafceb84d" x="368.060576" y="256.438524" style="fill: #2ca02c; stroke: #2ca02c"/>
     <use xlink:href="#mdeafceb84d" x="380.699905" y="260.035812" style="fill: #2ca02c; stroke: #2ca02c"/>
     <use xlink:href="#mdeafceb84d" x="377.446444" y="257.901828" style="fill: #2ca02c; stroke: #2ca02c"/>
     <use xlink:href="#mdeafceb84d" x="377.389503" y="282.717014" style="fill: #2ca02c; stroke: #2ca02c"/>
     <use xlink:href="#mdeafceb84d" x="382.837829" y="251.057836" style="fill: #2ca02c; stroke: #2ca02c"/>
     <use xlink:href="#mdeafceb84d" x="377.531195" y="287.960518" style="fill: #2ca02c; stroke: #2ca02c"/>
     <use xlink:href="#mdeafceb84d" x="377.714883" y="251.149292" style="fill: #2ca02c; stroke: #2ca02c"/>
     <use xlink:href="#mdeafceb84d" x="374.92953" y="279.897107" style="fill: #2ca02c; stroke: #2ca02c"/>
     <use xlink:href="#mdeafceb84d" x="382.807246" y="267.367572" style="fill: #2ca02c; stroke: #2ca02c"/>
     <use xlink:href="#mdeafceb84d" x="377.299769" y="280.262933" style="fill: #2ca02c; stroke: #2ca02c"/>
     <use xlink:href="#mdeafceb84d" x="385.165869" y="179.416941" style="fill: #2ca02c; stroke: #2ca02c"/>
     <use xlink:href="#mdeafceb84d" x="386.307412" y="218.651763" style="fill: #2ca02c; stroke: #2ca02c"/>
     <use xlink:href="#mdeafceb84d" x="376.822072" y="264.943975" style="fill: #2ca02c; stroke: #2ca02c"/>
     <use xlink:href="#mdeafceb84d" x="384.158581" y="283.646822" style="fill: #2ca02c; stroke: #2ca02c"/>
     <use xlink:href="#mdeafceb84d" x="379.287187" y="244.091902" style="fill: #2ca02c; stroke: #2ca02c"/>
     <use xlink:href="#mdeafceb84d" x="376.323946" y="273.601854" style="fill: #2ca02c; stroke: #2ca02c"/>
     <use xlink:href="#mdeafceb84d" x="366.004908" y="285.521679" style="fill: #2ca02c; stroke: #2ca02c"/>
     <use xlink:href="#mdeafceb84d" x="376.616785" y="263.450186" style="fill: #2ca02c; stroke: #2ca02c"/>
     <use xlink:href="#mdeafceb84d" x="375.250479" y="261.925912" style="fill: #2ca02c; stroke: #2ca02c"/>
     <use xlink:href="#mdeafceb84d" x="383.730892" y="265.980482" style="fill: #2ca02c; stroke: #2ca02c"/>
     <use xlink:href="#mdeafceb84d" x="376.699327" y="251.149292" style="fill: #2ca02c; stroke: #2ca02c"/>
     <use xlink:href="#mdeafceb84d" x="360.523312" y="191.900748" style="fill: #2ca02c; stroke: #2ca02c"/>
     <use xlink:href="#mdeafceb84d" x="383.965085" y="236.318103" style="fill: #2ca02c; stroke: #2ca02c"/>
     <use xlink:href="#mdeafceb84d" x="376.599899" y="226.562747" style="fill: #2ca02c; stroke: #2ca02c"/>
     <use xlink:href="#mdeafceb84d" x="379.836629" y="275.674867" style="fill: #2ca02c; stroke: #2ca02c"/>
     <use xlink:href="#mdeafceb84d" x="374.245132" y="209.750001" style="fill: #2ca02c; stroke: #2ca02c"/>
     <use xlink:href="#mdeafceb84d" x="369.529653" y="266.346308" style="fill: #2ca02c; stroke: #2ca02c"/>
     <use xlink:href="#mdeafceb84d" x="375.651161" y="262.276495" style="fill: #2ca02c; stroke: #2ca02c"/>
     <use xlink:href="#mdeafceb84d" x="373.277356" y="293.127808" style="fill: #2ca02c; stroke: #2ca02c"/>
     <use xlink:href="#mdeafceb84d" x="376.450504" y="294.63684" style="fill: #2ca02c; stroke: #2ca02c"/>
     <use xlink:href="#mdeafceb84d" x="388.02455" y="271.544083" style="fill: #2ca02c; stroke: #2ca02c"/>
     <use xlink:href="#mdeafceb84d" x="370.155338" y="294.850238" style="fill: #2ca02c; stroke: #2ca02c"/>
     <use xlink:href="#mdeafceb84d" x="387.577324" y="282.976141" style="fill: #2ca02c; stroke: #2ca02c"/>
     <use xlink:href="#mdeafceb84d" x="380.906046" y="286.085661" style="fill: #2ca02c; stroke: #2ca02c"/>
     <use xlink:href="#mdeafceb84d" x="377.610466" y="281.451867" style="fill: #2ca02c; stroke: #2ca02c"/>
     <use xlink:href="#mdeafceb84d" x="375.895153" y="245.235108" style="fill: #2ca02c; stroke: #2ca02c"/>
     <use xlink:href="#mdeafceb84d" x="368.865577" y="272.321463" style="fill: #2ca02c; stroke: #2ca02c"/>
     <use xlink:href="#mdeafceb84d" x="372.908921" y="265.995725" style="fill: #2ca02c; stroke: #2ca02c"/>
     <use xlink:href="#mdeafceb84d" x="376.40164" y="248.618997" style="fill: #2ca02c; stroke: #2ca02c"/>
     <use xlink:href="#mdeafceb84d" x="377.049238" y="251.63706" style="fill: #2ca02c; stroke: #2ca02c"/>
     <use xlink:href="#mdeafceb84d" x="370.665241" y="220.96866" style="fill: #2ca02c; stroke: #2ca02c"/>
     <use xlink:href="#mdeafceb84d" x="376.975853" y="234.153633" style="fill: #2ca02c; stroke: #2ca02c"/>
     <use xlink:href="#mdeafceb84d" x="368.112256" y="246.561227" style="fill: #2ca02c; stroke: #2ca02c"/>
     <use xlink:href="#mdeafceb84d" x="382.527574" y="283.966919" style="fill: #2ca02c; stroke: #2ca02c"/>
     <use xlink:href="#mdeafceb84d" x="368.910952" y="174.96606" style="fill: #2ca02c; stroke: #2ca02c"/>
     <use xlink:href="#mdeafceb84d" x="379.026338" y="169.585371" style="fill: #2ca02c; stroke: #2ca02c"/>
     <use xlink:href="#mdeafceb84d" x="373.212905" y="192.037933" style="fill: #2ca02c; stroke: #2ca02c"/>
     <use xlink:href="#mdeafceb84d" x="368.903508" y="241.881704" style="fill: #2ca02c; stroke: #2ca02c"/>
     <use xlink:href="#mdeafceb84d" x="372.356802" y="252.338226" style="fill: #2ca02c; stroke: #2ca02c"/>
     <use xlink:href="#mdeafceb84d" x="369.793703" y="269.669226" style="fill: #2ca02c; stroke: #2ca02c"/>
     <use xlink:href="#mdeafceb84d" x="384.506219" y="257.475031" style="fill: #2ca02c; stroke: #2ca02c"/>
     <use xlink:href="#mdeafceb84d" x="373.885832" y="238.772185" style="fill: #2ca02c; stroke: #2ca02c"/>
     <use xlink:href="#mdeafceb84d" x="372.529189" y="200.02513" style="fill: #2ca02c; stroke: #2ca02c"/>
     <use xlink:href="#mdeafceb84d" x="373.74301" y="248.664725" style="fill: #2ca02c; stroke: #2ca02c"/>
     <use xlink:href="#mdeafceb84d" x="380.919824" y="268.632719" style="fill: #2ca02c; stroke: #2ca02c"/>
     <use xlink:href="#mdeafceb84d" x="373.61122" y="246.561227" style="fill: #2ca02c; stroke: #2ca02c"/>
     <use xlink:href="#mdeafceb84d" x="381.476684" y="260.020569" style="fill: #2ca02c; stroke: #2ca02c"/>
     <use xlink:href="#mdeafceb84d" x="374.039403" y="259.929113" style="fill: #2ca02c; stroke: #2ca02c"/>
     <use xlink:href="#mdeafceb84d" x="383.48515" y="188.532102" style="fill: #2ca02c; stroke: #2ca02c"/>
     <use xlink:href="#mdeafceb84d" x="382.003803" y="243.985203" style="fill: #2ca02c; stroke: #2ca02c"/>
     <use xlink:href="#mdeafceb84d" x="371.752054" y="227.309641" style="fill: #2ca02c; stroke: #2ca02c"/>
     <use xlink:href="#mdeafceb84d" x="377.88042" y="226.928573" style="fill: #2ca02c; stroke: #2ca02c"/>
     <use xlink:href="#mdeafceb84d" x="388.386245" y="264.700091" style="fill: #2ca02c; stroke: #2ca02c"/>
     <use xlink:href="#mdeafceb84d" x="378.483666" y="238.147232" style="fill: #2ca02c; stroke: #2ca02c"/>
     <use xlink:href="#mdeafceb84d" x="379.035499" y="291.115766" style="fill: #2ca02c; stroke: #2ca02c"/>
     <use xlink:href="#mdeafceb84d" x="379.329923" y="290.551785" style="fill: #2ca02c; stroke: #2ca02c"/>
     <use xlink:href="#mdeafceb84d" x="382.052246" y="290.932853" style="fill: #2ca02c; stroke: #2ca02c"/>
     <use xlink:href="#mdeafceb84d" x="377.045184" y="290.323143" style="fill: #2ca02c; stroke: #2ca02c"/>
     <use xlink:href="#mdeafceb84d" x="373.079348" y="288.936054" style="fill: #2ca02c; stroke: #2ca02c"/>
     <use xlink:href="#mdeafceb84d" x="377.30955" y="291.451106" style="fill: #2ca02c; stroke: #2ca02c"/>
     <use xlink:href="#mdeafceb84d" x="381.406349" y="287.457508" style="fill: #2ca02c; stroke: #2ca02c"/>
     <use xlink:href="#mdeafceb84d" x="375.628118" y="291.588291" style="fill: #2ca02c; stroke: #2ca02c"/>
     <use xlink:href="#mdeafceb84d" x="372.80048" y="286.786827" style="fill: #2ca02c; stroke: #2ca02c"/>
     <use xlink:href="#mdeafceb84d" x="381.276188" y="292.761982" style="fill: #2ca02c; stroke: #2ca02c"/>
     <use xlink:href="#mdeafceb84d" x="366.455499" y="291.344407" style="fill: #2ca02c; stroke: #2ca02c"/>
     <use xlink:href="#mdeafceb84d" x="371.463414" y="287.57945" style="fill: #2ca02c; stroke: #2ca02c"/>
     <use xlink:href="#mdeafceb84d" x="387.486982" y="290.58227" style="fill: #2ca02c; stroke: #2ca02c"/>
     <use xlink:href="#mdeafceb84d" x="386.435726" y="285.277795" style="fill: #2ca02c; stroke: #2ca02c"/>
     <use xlink:href="#mdeafceb84d" x="388.834976" y="242.049374" style="fill: #2ca02c; stroke: #2ca02c"/>
     <use xlink:href="#mdeafceb84d" x="369.005956" y="250.478612" style="fill: #2ca02c; stroke: #2ca02c"/>
     <use xlink:href="#mdeafceb84d" x="375.389503" y="260.035812" style="fill: #2ca02c; stroke: #2ca02c"/>
     <use xlink:href="#mdeafceb84d" x="374.079628" y="239.397137" style="fill: #2ca02c; stroke: #2ca02c"/>
     <use xlink:href="#mdeafceb84d" x="382.933115" y="266.864561" style="fill: #2ca02c; stroke: #2ca02c"/>
     <use xlink:href="#mdeafceb84d" x="383.604759" y="260.660764" style="fill: #2ca02c; stroke: #2ca02c"/>
     <use xlink:href="#mdeafceb84d" x="367.362165" y="251.926672" style="fill: #2ca02c; stroke: #2ca02c"/>
     <use xlink:href="#mdeafceb84d" x="374.490871" y="250.509097" style="fill: #2ca02c; stroke: #2ca02c"/>
     <use xlink:href="#mdeafceb84d" x="377.798612" y="267.977281" style="fill: #2ca02c; stroke: #2ca02c"/>
     <use xlink:href="#mdeafceb84d" x="381.91268" y="264.090382" style="fill: #2ca02c; stroke: #2ca02c"/>
    </g>
   </g>
   <g id="line2d_13">
    <path d="M 97.505667 208.538203 
L 170.452667 208.538203 
" clip-path="url(#p80586c82ad)" style="fill: none; stroke: #000000"/>
   </g>
   <g id="line2d_14">
    <path d="M 219.084 259.807171 
L 292.031 259.807171 
" clip-path="url(#p80586c82ad)" style="fill: none; stroke: #000000"/>
   </g>
   <g id="line2d_15">
    <path d="M 340.662333 261.925912 
L 413.609333 261.925912 
" clip-path="url(#p80586c82ad)" style="fill: none; stroke: #000000"/>
   </g>
   <g id="matplotlib.axis_1">
    <g id="xtick_1">
     <g id="line2d_16">
      <defs>
       <path id="mf5d515ffdf" d="M 0 0 
L 0 3.5 
" style="stroke: #000000; stroke-width: 0.8"/>
      </defs>
      <g>
       <use xlink:href="#mf5d515ffdf" x="133.979167" y="308.36" style="stroke: #000000; stroke-width: 0.8"/>
      </g>
     </g>
     <g id="text_1">
      <!-- RC -->
      <g transform="translate(118.797917 330.556875) scale(0.2 -0.2)">
       <defs>
        <path id="DejaVuSerif-52" d="M 3066 2316 
Q 3284 2256 3442 2114 
Q 3600 1972 3725 1716 
L 4403 331 
L 4972 331 
L 4972 0 
L 3872 0 
L 3144 1484 
Q 2934 1916 2759 2042 
Q 2584 2169 2278 2169 
L 1581 2169 
L 1581 331 
L 2241 331 
L 2241 0 
L 353 0 
L 353 331 
L 947 331 
L 947 4331 
L 353 4331 
L 353 4666 
L 2719 4666 
Q 3400 4666 3770 4341 
Q 4141 4016 4141 3419 
Q 4141 2938 3870 2661 
Q 3600 2384 3066 2316 
z
M 1581 2503 
L 2503 2503 
Q 2975 2503 3200 2726 
Q 3425 2950 3425 3419 
Q 3425 3888 3200 4109 
Q 2975 4331 2503 4331 
L 1581 4331 
L 1581 2503 
z
" transform="scale(0.015625)"/>
        <path id="DejaVuSerif-43" d="M 4513 1234 
Q 4306 581 3820 245 
Q 3334 -91 2591 -91 
Q 2134 -91 1743 65 
Q 1353 222 1050 525 
Q 700 875 529 1320 
Q 359 1766 359 2328 
Q 359 3416 987 4083 
Q 1616 4750 2644 4750 
Q 3025 4750 3456 4650 
Q 3888 4550 4384 4347 
L 4384 3272 
L 4031 3272 
Q 3916 3859 3567 4137 
Q 3219 4416 2591 4416 
Q 1844 4416 1459 3886 
Q 1075 3356 1075 2328 
Q 1075 1303 1459 773 
Q 1844 244 2591 244 
Q 3113 244 3450 492 
Q 3788 741 3938 1234 
L 4513 1234 
z
" transform="scale(0.015625)"/>
       </defs>
       <use xlink:href="#DejaVuSerif-52"/>
       <use xlink:href="#DejaVuSerif-43" x="75.292969"/>
      </g>
     </g>
    </g>
    <g id="xtick_2">
     <g id="line2d_17">
      <g>
       <use xlink:href="#mf5d515ffdf" x="255.5575" y="308.36" style="stroke: #000000; stroke-width: 0.8"/>
      </g>
     </g>
     <g id="text_2">
      <!-- Mutants -->
      <g transform="translate(213.305938 330.556875) scale(0.2 -0.2)">
       <defs>
        <path id="DejaVuSerif-4d" d="M 353 0 
L 353 331 
L 947 331 
L 947 4331 
L 319 4331 
L 319 4666 
L 1678 4666 
L 3316 1344 
L 4953 4666 
L 6228 4666 
L 6228 4331 
L 5606 4331 
L 5606 331 
L 6203 331 
L 6203 0 
L 4378 0 
L 4378 331 
L 4972 331 
L 4972 3938 
L 3372 684 
L 2931 684 
L 1331 3938 
L 1331 331 
L 1925 331 
L 1925 0 
L 353 0 
z
" transform="scale(0.015625)"/>
        <path id="DejaVuSerif-75" d="M 2266 3322 
L 3341 3322 
L 3341 331 
L 3884 331 
L 3884 0 
L 2766 0 
L 2766 588 
Q 2606 256 2353 82 
Q 2100 -91 1766 -91 
Q 1213 -91 952 223 
Q 691 538 691 1209 
L 691 2988 
L 172 2988 
L 172 3322 
L 1269 3322 
L 1269 1388 
Q 1269 781 1417 556 
Q 1566 331 1947 331 
Q 2347 331 2556 625 
Q 2766 919 2766 1478 
L 2766 2988 
L 2266 2988 
L 2266 3322 
z
" transform="scale(0.015625)"/>
        <path id="DejaVuSerif-74" d="M 691 2988 
L 184 2988 
L 184 3322 
L 691 3322 
L 691 4353 
L 1269 4353 
L 1269 3322 
L 2350 3322 
L 2350 2988 
L 1269 2988 
L 1269 878 
Q 1269 456 1350 337 
Q 1431 219 1650 219 
Q 1875 219 1978 351 
Q 2081 484 2088 781 
L 2522 781 
Q 2497 328 2275 118 
Q 2053 -91 1600 -91 
Q 1103 -91 897 129 
Q 691 350 691 878 
L 691 2988 
z
" transform="scale(0.015625)"/>
        <path id="DejaVuSerif-61" d="M 2547 1044 
L 2547 1747 
L 1806 1747 
Q 1378 1747 1168 1562 
Q 959 1378 959 997 
Q 959 650 1171 447 
Q 1384 244 1747 244 
Q 2106 244 2326 466 
Q 2547 688 2547 1044 
z
M 3122 2075 
L 3122 331 
L 3634 331 
L 3634 0 
L 2547 0 
L 2547 359 
Q 2356 128 2106 18 
Q 1856 -91 1522 -91 
Q 969 -91 644 203 
Q 319 497 319 997 
Q 319 1513 691 1797 
Q 1063 2081 1741 2081 
L 2547 2081 
L 2547 2309 
Q 2547 2688 2317 2895 
Q 2088 3103 1672 3103 
Q 1328 3103 1125 2947 
Q 922 2791 872 2484 
L 575 2484 
L 575 3156 
Q 875 3284 1158 3348 
Q 1441 3413 1709 3413 
Q 2400 3413 2761 3070 
Q 3122 2728 3122 2075 
z
" transform="scale(0.015625)"/>
        <path id="DejaVuSerif-6e" d="M 263 0 
L 263 331 
L 781 331 
L 781 2988 
L 231 2988 
L 231 3322 
L 1356 3322 
L 1356 2731 
Q 1516 3069 1770 3241 
Q 2025 3413 2363 3413 
Q 2913 3413 3172 3097 
Q 3431 2781 3431 2113 
L 3431 331 
L 3944 331 
L 3944 0 
L 2356 0 
L 2356 331 
L 2853 331 
L 2853 1931 
Q 2853 2541 2703 2767 
Q 2553 2994 2175 2994 
Q 1775 2994 1565 2701 
Q 1356 2409 1356 1850 
L 1356 331 
L 1856 331 
L 1856 0 
L 263 0 
z
" transform="scale(0.015625)"/>
        <path id="DejaVuSerif-73" d="M 359 184 
L 359 959 
L 691 959 
Q 703 588 923 403 
Q 1144 219 1575 219 
Q 1963 219 2166 364 
Q 2369 509 2369 788 
Q 2369 1006 2220 1140 
Q 2072 1275 1594 1428 
L 1178 1569 
Q 750 1706 558 1912 
Q 366 2119 366 2438 
Q 366 2894 700 3153 
Q 1034 3413 1625 3413 
Q 1888 3413 2178 3344 
Q 2469 3275 2778 3144 
L 2778 2419 
L 2447 2419 
Q 2434 2741 2221 2922 
Q 2009 3103 1644 3103 
Q 1281 3103 1095 2975 
Q 909 2847 909 2591 
Q 909 2381 1050 2254 
Q 1191 2128 1613 1997 
L 2069 1856 
Q 2541 1709 2748 1489 
Q 2956 1269 2956 922 
Q 2956 450 2595 179 
Q 2234 -91 1600 -91 
Q 1278 -91 972 -22 
Q 666 47 359 184 
z
" transform="scale(0.015625)"/>
       </defs>
       <use xlink:href="#DejaVuSerif-4d"/>
       <use xlink:href="#DejaVuSerif-75" x="102.392578"/>
       <use xlink:href="#DejaVuSerif-74" x="166.796875"/>
       <use xlink:href="#DejaVuSerif-61" x="206.982422"/>
       <use xlink:href="#DejaVuSerif-6e" x="266.601562"/>
       <use xlink:href="#DejaVuSerif-74" x="331.005859"/>
       <use xlink:href="#DejaVuSerif-73" x="371.191406"/>
      </g>
     </g>
    </g>
    <g id="xtick_3">
     <g id="line2d_18">
      <g>
       <use xlink:href="#mf5d515ffdf" x="377.135833" y="308.36" style="stroke: #000000; stroke-width: 0.8"/>
      </g>
     </g>
     <g id="text_3">
      <!-- Non-members -->
      <g transform="translate(305.429583 330.556875) scale(0.2 -0.2)">
       <defs>
        <path id="DejaVuSerif-4e" d="M 313 0 
L 313 331 
L 941 331 
L 941 4331 
L 313 4331 
L 313 4666 
L 1509 4666 
L 4306 984 
L 4306 4331 
L 3681 4331 
L 3681 4666 
L 5319 4666 
L 5319 4331 
L 4691 4331 
L 4691 -91 
L 4313 -91 
L 1325 3841 
L 1325 331 
L 1953 331 
L 1953 0 
L 313 0 
z
" transform="scale(0.015625)"/>
        <path id="DejaVuSerif-6f" d="M 1925 219 
Q 2388 219 2623 584 
Q 2859 950 2859 1663 
Q 2859 2375 2623 2739 
Q 2388 3103 1925 3103 
Q 1463 3103 1227 2739 
Q 991 2375 991 1663 
Q 991 950 1228 584 
Q 1466 219 1925 219 
z
M 1925 -91 
Q 1200 -91 759 389 
Q 319 869 319 1663 
Q 319 2456 758 2934 
Q 1197 3413 1925 3413 
Q 2653 3413 3092 2934 
Q 3531 2456 3531 1663 
Q 3531 869 3092 389 
Q 2653 -91 1925 -91 
z
" transform="scale(0.015625)"/>
        <path id="DejaVuSerif-2d" d="M 281 1959 
L 1881 1959 
L 1881 1472 
L 281 1472 
L 281 1959 
z
" transform="scale(0.015625)"/>
        <path id="DejaVuSerif-6d" d="M 3316 2675 
Q 3481 3041 3739 3227 
Q 3997 3413 4341 3413 
Q 4863 3413 5119 3089 
Q 5375 2766 5375 2113 
L 5375 331 
L 5894 331 
L 5894 0 
L 4300 0 
L 4300 331 
L 4800 331 
L 4800 2047 
Q 4800 2556 4650 2772 
Q 4500 2988 4153 2988 
Q 3769 2988 3567 2697 
Q 3366 2406 3366 1850 
L 3366 331 
L 3866 331 
L 3866 0 
L 2291 0 
L 2291 331 
L 2791 331 
L 2791 2069 
Q 2791 2566 2641 2777 
Q 2491 2988 2144 2988 
Q 1759 2988 1557 2697 
Q 1356 2406 1356 1850 
L 1356 331 
L 1856 331 
L 1856 0 
L 263 0 
L 263 331 
L 781 331 
L 781 2994 
L 231 2994 
L 231 3322 
L 1356 3322 
L 1356 2731 
Q 1516 3063 1762 3238 
Q 2009 3413 2322 3413 
Q 2709 3413 2968 3220 
Q 3228 3028 3316 2675 
z
" transform="scale(0.015625)"/>
        <path id="DejaVuSerif-65" d="M 3469 1600 
L 991 1600 
L 991 1575 
Q 991 903 1244 561 
Q 1497 219 1991 219 
Q 2369 219 2611 417 
Q 2853 616 2950 1006 
L 3413 1006 
Q 3275 459 2904 184 
Q 2534 -91 1931 -91 
Q 1203 -91 761 389 
Q 319 869 319 1663 
Q 319 2450 753 2931 
Q 1188 3413 1894 3413 
Q 2647 3413 3050 2948 
Q 3453 2484 3469 1600 
z
M 2791 1931 
Q 2772 2513 2545 2808 
Q 2319 3103 1894 3103 
Q 1497 3103 1269 2806 
Q 1041 2509 991 1931 
L 2791 1931 
z
" transform="scale(0.015625)"/>
        <path id="DejaVuSerif-62" d="M 738 331 
L 738 4531 
L 184 4531 
L 184 4863 
L 1313 4863 
L 1313 2803 
Q 1481 3116 1742 3264 
Q 2003 3413 2388 3413 
Q 3000 3413 3387 2928 
Q 3775 2444 3775 1663 
Q 3775 881 3387 395 
Q 3000 -91 2388 -91 
Q 2003 -91 1742 57 
Q 1481 206 1313 519 
L 1313 0 
L 184 0 
L 184 331 
L 738 331 
z
M 1313 1497 
Q 1313 897 1542 583 
Q 1772 269 2209 269 
Q 2650 269 2876 622 
Q 3103 975 3103 1663 
Q 3103 2353 2876 2703 
Q 2650 3053 2209 3053 
Q 1772 3053 1542 2737 
Q 1313 2422 1313 1825 
L 1313 1497 
z
" transform="scale(0.015625)"/>
        <path id="DejaVuSerif-72" d="M 3059 3328 
L 3059 2497 
L 2728 2497 
Q 2713 2744 2591 2866 
Q 2469 2988 2234 2988 
Q 1809 2988 1582 2694 
Q 1356 2400 1356 1850 
L 1356 331 
L 2022 331 
L 2022 0 
L 263 0 
L 263 331 
L 781 331 
L 781 2994 
L 231 2994 
L 231 3322 
L 1356 3322 
L 1356 2731 
Q 1525 3078 1790 3245 
Q 2056 3413 2438 3413 
Q 2578 3413 2733 3391 
Q 2888 3369 3059 3328 
z
" transform="scale(0.015625)"/>
       </defs>
       <use xlink:href="#DejaVuSerif-4e"/>
       <use xlink:href="#DejaVuSerif-6f" x="87.5"/>
       <use xlink:href="#DejaVuSerif-6e" x="147.705078"/>
       <use xlink:href="#DejaVuSerif-2d" x="212.109375"/>
       <use xlink:href="#DejaVuSerif-6d" x="245.898438"/>
       <use xlink:href="#DejaVuSerif-65" x="340.722656"/>
       <use xlink:href="#DejaVuSerif-6d" x="399.902344"/>
       <use xlink:href="#DejaVuSerif-62" x="494.726562"/>
       <use xlink:href="#DejaVuSerif-65" x="558.740234"/>
       <use xlink:href="#DejaVuSerif-72" x="617.919922"/>
       <use xlink:href="#DejaVuSerif-73" x="665.722656"/>
      </g>
     </g>
    </g>
   </g>
   <g id="matplotlib.axis_2">
    <g id="ytick_1">
     <g id="line2d_19">
      <defs>
       <path id="m67e44e15f3" d="M 0 0 
L -3.5 0 
" style="stroke: #000000; stroke-width: 0.8"/>
      </defs>
      <g>
       <use xlink:href="#m67e44e15f3" x="73.19" y="296.877523" style="stroke: #000000; stroke-width: 0.8"/>
      </g>
     </g>
     <g id="text_4">
      <!-- 0 -->
      <g transform="translate(59.8275 300.676742) scale(0.1 -0.1)">
       <defs>
        <path id="DejaVuSerif-30" d="M 2034 219 
Q 2513 219 2750 744 
Q 2988 1269 2988 2328 
Q 2988 3391 2750 3916 
Q 2513 4441 2034 4441 
Q 1556 4441 1318 3916 
Q 1081 3391 1081 2328 
Q 1081 1269 1318 744 
Q 1556 219 2034 219 
z
M 2034 -91 
Q 1275 -91 848 546 
Q 422 1184 422 2328 
Q 422 3475 848 4112 
Q 1275 4750 2034 4750 
Q 2797 4750 3222 4112 
Q 3647 3475 3647 2328 
Q 3647 1184 3222 546 
Q 2797 -91 2034 -91 
z
" transform="scale(0.015625)"/>
       </defs>
       <use xlink:href="#DejaVuSerif-30"/>
      </g>
     </g>
    </g>
    <g id="ytick_2">
     <g id="line2d_20">
      <g>
       <use xlink:href="#m67e44e15f3" x="73.19" y="258.770664" style="stroke: #000000; stroke-width: 0.8"/>
      </g>
     </g>
     <g id="text_5">
      <!-- 2500 -->
      <g transform="translate(40.74 262.569883) scale(0.1 -0.1)">
       <defs>
        <path id="DejaVuSerif-32" d="M 819 3553 
L 469 3553 
L 469 4384 
Q 803 4563 1142 4656 
Q 1481 4750 1806 4750 
Q 2534 4750 2956 4397 
Q 3378 4044 3378 3438 
Q 3378 2753 2422 1800 
Q 2347 1728 2309 1691 
L 1131 513 
L 3078 513 
L 3078 1088 
L 3444 1088 
L 3444 0 
L 434 0 
L 434 341 
L 1850 1753 
Q 2319 2222 2519 2614 
Q 2719 3006 2719 3438 
Q 2719 3909 2473 4175 
Q 2228 4441 1797 4441 
Q 1350 4441 1106 4219 
Q 863 3997 819 3553 
z
" transform="scale(0.015625)"/>
        <path id="DejaVuSerif-35" d="M 3219 4666 
L 3219 4153 
L 1081 4153 
L 1081 2816 
Q 1244 2928 1461 2984 
Q 1678 3041 1947 3041 
Q 2703 3041 3140 2622 
Q 3578 2203 3578 1478 
Q 3578 738 3136 323 
Q 2694 -91 1894 -91 
Q 1572 -91 1234 -12 
Q 897 66 544 225 
L 544 1131 
L 897 1131 
Q 925 688 1179 453 
Q 1434 219 1894 219 
Q 2388 219 2653 544 
Q 2919 869 2919 1478 
Q 2919 2084 2655 2407 
Q 2391 2731 1894 2731 
Q 1613 2731 1398 2631 
Q 1184 2531 1019 2322 
L 750 2322 
L 750 4666 
L 3219 4666 
z
" transform="scale(0.015625)"/>
       </defs>
       <use xlink:href="#DejaVuSerif-32"/>
       <use xlink:href="#DejaVuSerif-35" x="63.623047"/>
       <use xlink:href="#DejaVuSerif-30" x="127.246094"/>
       <use xlink:href="#DejaVuSerif-30" x="190.869141"/>
      </g>
     </g>
    </g>
    <g id="ytick_3">
     <g id="line2d_21">
      <g>
       <use xlink:href="#m67e44e15f3" x="73.19" y="220.663805" style="stroke: #000000; stroke-width: 0.8"/>
      </g>
     </g>
     <g id="text_6">
      <!-- 5000 -->
      <g transform="translate(40.74 224.463024) scale(0.1 -0.1)">
       <use xlink:href="#DejaVuSerif-35"/>
       <use xlink:href="#DejaVuSerif-30" x="63.623047"/>
       <use xlink:href="#DejaVuSerif-30" x="127.246094"/>
       <use xlink:href="#DejaVuSerif-30" x="190.869141"/>
      </g>
     </g>
    </g>
    <g id="ytick_4">
     <g id="line2d_22">
      <g>
       <use xlink:href="#m67e44e15f3" x="73.19" y="182.556946" style="stroke: #000000; stroke-width: 0.8"/>
      </g>
     </g>
     <g id="text_7">
      <!-- 7500 -->
      <g transform="translate(40.74 186.356165) scale(0.1 -0.1)">
       <defs>
        <path id="DejaVuSerif-37" d="M 3609 4347 
L 1784 0 
L 1319 0 
L 3059 4153 
L 903 4153 
L 903 3578 
L 538 3578 
L 538 4666 
L 3609 4666 
L 3609 4347 
z
" transform="scale(0.015625)"/>
       </defs>
       <use xlink:href="#DejaVuSerif-37"/>
       <use xlink:href="#DejaVuSerif-35" x="63.623047"/>
       <use xlink:href="#DejaVuSerif-30" x="127.246094"/>
       <use xlink:href="#DejaVuSerif-30" x="190.869141"/>
      </g>
     </g>
    </g>
    <g id="ytick_5">
     <g id="line2d_23">
      <g>
       <use xlink:href="#m67e44e15f3" x="73.19" y="144.450087" style="stroke: #000000; stroke-width: 0.8"/>
      </g>
     </g>
     <g id="text_8">
      <!-- 10000 -->
      <g transform="translate(34.3775 148.249306) scale(0.1 -0.1)">
       <defs>
        <path id="DejaVuSerif-31" d="M 909 0 
L 909 331 
L 1722 331 
L 1722 4213 
L 781 3603 
L 781 4013 
L 1919 4750 
L 2350 4750 
L 2350 331 
L 3163 331 
L 3163 0 
L 909 0 
z
" transform="scale(0.015625)"/>
       </defs>
       <use xlink:href="#DejaVuSerif-31"/>
       <use xlink:href="#DejaVuSerif-30" x="63.623047"/>
       <use xlink:href="#DejaVuSerif-30" x="127.246094"/>
       <use xlink:href="#DejaVuSerif-30" x="190.869141"/>
       <use xlink:href="#DejaVuSerif-30" x="254.492188"/>
      </g>
     </g>
    </g>
    <g id="ytick_6">
     <g id="line2d_24">
      <g>
       <use xlink:href="#m67e44e15f3" x="73.19" y="106.343228" style="stroke: #000000; stroke-width: 0.8"/>
      </g>
     </g>
     <g id="text_9">
      <!-- 12500 -->
      <g transform="translate(34.3775 110.142447) scale(0.1 -0.1)">
       <use xlink:href="#DejaVuSerif-31"/>
       <use xlink:href="#DejaVuSerif-32" x="63.623047"/>
       <use xlink:href="#DejaVuSerif-35" x="127.246094"/>
       <use xlink:href="#DejaVuSerif-30" x="190.869141"/>
       <use xlink:href="#DejaVuSerif-30" x="254.492188"/>
      </g>
     </g>
    </g>
    <g id="ytick_7">
     <g id="line2d_25">
      <g>
       <use xlink:href="#m67e44e15f3" x="73.19" y="68.236369" style="stroke: #000000; stroke-width: 0.8"/>
      </g>
     </g>
     <g id="text_10">
      <!-- 15000 -->
      <g transform="translate(34.3775 72.035588) scale(0.1 -0.1)">
       <use xlink:href="#DejaVuSerif-31"/>
       <use xlink:href="#DejaVuSerif-35" x="63.623047"/>
       <use xlink:href="#DejaVuSerif-30" x="127.246094"/>
       <use xlink:href="#DejaVuSerif-30" x="190.869141"/>
       <use xlink:href="#DejaVuSerif-30" x="254.492188"/>
      </g>
     </g>
    </g>
    <g id="ytick_8">
     <g id="line2d_26">
      <g>
       <use xlink:href="#m67e44e15f3" x="73.19" y="30.12951" style="stroke: #000000; stroke-width: 0.8"/>
      </g>
     </g>
     <g id="text_11">
      <!-- 17500 -->
      <g transform="translate(34.3775 33.928729) scale(0.1 -0.1)">
       <use xlink:href="#DejaVuSerif-31"/>
       <use xlink:href="#DejaVuSerif-37" x="63.623047"/>
       <use xlink:href="#DejaVuSerif-35" x="127.246094"/>
       <use xlink:href="#DejaVuSerif-30" x="190.869141"/>
       <use xlink:href="#DejaVuSerif-30" x="254.492188"/>
      </g>
     </g>
    </g>
    <g id="text_12">
     <!-- Total interactions -->
     <g transform="translate(26.218125 248.754184) rotate(-90) scale(0.2 -0.2)">
      <defs>
       <path id="DejaVuSerif-54" d="M 1222 0 
L 1222 331 
L 1819 331 
L 1819 4294 
L 447 4294 
L 447 3566 
L 63 3566 
L 63 4666 
L 4206 4666 
L 4206 3566 
L 3822 3566 
L 3822 4294 
L 2450 4294 
L 2450 331 
L 3047 331 
L 3047 0 
L 1222 0 
z
" transform="scale(0.015625)"/>
       <path id="DejaVuSerif-6c" d="M 1313 331 
L 1856 331 
L 1856 0 
L 184 0 
L 184 331 
L 738 331 
L 738 4531 
L 184 4531 
L 184 4863 
L 1313 4863 
L 1313 331 
z
" transform="scale(0.015625)"/>
       <path id="DejaVuSerif-20" transform="scale(0.015625)"/>
       <path id="DejaVuSerif-69" d="M 622 4353 
Q 622 4497 726 4603 
Q 831 4709 978 4709 
Q 1122 4709 1226 4603 
Q 1331 4497 1331 4353 
Q 1331 4206 1228 4103 
Q 1125 4000 978 4000 
Q 831 4000 726 4103 
Q 622 4206 622 4353 
z
M 1356 331 
L 1900 331 
L 1900 0 
L 231 0 
L 231 331 
L 781 331 
L 781 2988 
L 231 2988 
L 231 3322 
L 1356 3322 
L 1356 331 
z
" transform="scale(0.015625)"/>
       <path id="DejaVuSerif-63" d="M 3291 997 
Q 3169 466 2822 187 
Q 2475 -91 1925 -91 
Q 1200 -91 759 389 
Q 319 869 319 1663 
Q 319 2459 759 2936 
Q 1200 3413 1925 3413 
Q 2241 3413 2553 3339 
Q 2866 3266 3181 3116 
L 3181 2266 
L 2847 2266 
Q 2781 2703 2561 2903 
Q 2341 3103 1931 3103 
Q 1466 3103 1228 2742 
Q 991 2381 991 1663 
Q 991 944 1227 581 
Q 1463 219 1931 219 
Q 2303 219 2525 412 
Q 2747 606 2828 997 
L 3291 997 
z
" transform="scale(0.015625)"/>
      </defs>
      <use xlink:href="#DejaVuSerif-54"/>
      <use xlink:href="#DejaVuSerif-6f" x="58.949219"/>
      <use xlink:href="#DejaVuSerif-74" x="119.154297"/>
      <use xlink:href="#DejaVuSerif-61" x="159.339844"/>
      <use xlink:href="#DejaVuSerif-6c" x="218.958984"/>
      <use xlink:href="#DejaVuSerif-20" x="250.941406"/>
      <use xlink:href="#DejaVuSerif-69" x="282.728516"/>
      <use xlink:href="#DejaVuSerif-6e" x="314.710938"/>
      <use xlink:href="#DejaVuSerif-74" x="379.115234"/>
      <use xlink:href="#DejaVuSerif-65" x="419.300781"/>
      <use xlink:href="#DejaVuSerif-72" x="478.480469"/>
      <use xlink:href="#DejaVuSerif-61" x="526.283203"/>
      <use xlink:href="#DejaVuSerif-63" x="585.902344"/>
      <use xlink:href="#DejaVuSerif-74" x="641.908203"/>
      <use xlink:href="#DejaVuSerif-69" x="682.09375"/>
      <use xlink:href="#DejaVuSerif-6f" x="714.076172"/>
      <use xlink:href="#DejaVuSerif-6e" x="774.28125"/>
      <use xlink:href="#DejaVuSerif-73" x="838.685547"/>
     </g>
    </g>
   </g>
   <g id="line2d_27">
    <path d="M 133.979167 99.144355 
L 133.979167 95.724554 
L 377.135833 95.724554 
L 377.135833 99.144355 
" clip-path="url(#p80586c82ad)" style="fill: none; stroke: #000000; stroke-linecap: square"/>
   </g>
   <g id="line2d_28">
    <path d="M 133.979167 59.483679 
L 133.979167 55.102914 
L 255.5575 55.102914 
L 255.5575 59.483679 
" clip-path="url(#p80586c82ad)" style="fill: none; stroke: #000000; stroke-linecap: square"/>
   </g>
   <g id="line2d_29">
    <path d="M 255.5575 29.929445 
L 255.5575 24.655004 
L 377.135833 24.655004 
L 377.135833 29.929445 
" clip-path="url(#p80586c82ad)" style="fill: none; stroke: #000000; stroke-linecap: square"/>
   </g>
   <g id="patch_6">
    <path d="M 73.19 308.36 
L 73.19 11.145242 
" style="fill: none; stroke: #000000; stroke-width: 0.8; stroke-linejoin: miter; stroke-linecap: square"/>
   </g>
   <g id="patch_7">
    <path d="M 437.925 308.36 
L 437.925 11.145242 
" style="fill: none; stroke: #000000; stroke-width: 0.8; stroke-linejoin: miter; stroke-linecap: square"/>
   </g>
   <g id="patch_8">
    <path d="M 73.19 308.36 
L 437.925 308.36 
" style="fill: none; stroke: #000000; stroke-width: 0.8; stroke-linejoin: miter; stroke-linecap: square"/>
   </g>
   <g id="patch_9">
    <path d="M 73.19 11.145242 
L 437.925 11.145242 
" style="fill: none; stroke: #000000; stroke-width: 0.8; stroke-linejoin: miter; stroke-linecap: square"/>
   </g>
   <g id="text_13">
    <!-- *** -->
    <g transform="translate(240.5575 96.69488) scale(0.2 -0.2)">
     <defs>
      <path id="DejaVuSerif-2a" d="M 3097 3866 
L 1875 3297 
L 3097 2719 
L 2859 2350 
L 1772 3028 
L 1813 1838 
L 1388 1838 
L 1428 3028 
L 341 2350 
L 103 2719 
L 1325 3291 
L 103 3866 
L 341 4238 
L 1428 3559 
L 1388 4750 
L 1813 4750 
L 1772 3559 
L 2859 4238 
L 3097 3866 
z
" transform="scale(0.015625)"/>
     </defs>
     <use xlink:href="#DejaVuSerif-2a"/>
     <use xlink:href="#DejaVuSerif-2a" x="50"/>
     <use xlink:href="#DejaVuSerif-2a" x="100"/>
    </g>
   </g>
   <g id="text_14">
    <!-- *** -->
    <g transform="translate(179.768333 57.514687) scale(0.2 -0.2)">
     <use xlink:href="#DejaVuSerif-2a"/>
     <use xlink:href="#DejaVuSerif-2a" x="50"/>
     <use xlink:href="#DejaVuSerif-2a" x="100"/>
    </g>
   </g>
   <g id="text_15">
    <!-- p = 0.21 -->
    <g transform="translate(294.645104 19.938096) scale(0.1 -0.1)">
     <defs>
      <path id="DejaVuSerif-70" d="M 1313 1825 
L 1313 1497 
Q 1313 897 1542 583 
Q 1772 269 2209 269 
Q 2650 269 2876 622 
Q 3103 975 3103 1663 
Q 3103 2353 2876 2703 
Q 2650 3053 2209 3053 
Q 1772 3053 1542 2737 
Q 1313 2422 1313 1825 
z
M 738 2988 
L 184 2988 
L 184 3322 
L 1313 3322 
L 1313 2803 
Q 1481 3116 1742 3264 
Q 2003 3413 2388 3413 
Q 3000 3413 3387 2928 
Q 3775 2444 3775 1663 
Q 3775 881 3387 395 
Q 3000 -91 2388 -91 
Q 2003 -91 1742 57 
Q 1481 206 1313 519 
L 1313 -997 
L 1856 -997 
L 1856 -1331 
L 184 -1331 
L 184 -997 
L 738 -997 
L 738 2988 
z
" transform="scale(0.015625)"/>
      <path id="DejaVuSerif-3d" d="M 678 2894 
L 4684 2894 
L 4684 2394 
L 678 2394 
L 678 2894 
z
M 678 1619 
L 4684 1619 
L 4684 1119 
L 678 1119 
L 678 1619 
z
" transform="scale(0.015625)"/>
      <path id="DejaVuSerif-2e" d="M 603 325 
Q 603 500 722 622 
Q 841 744 1019 744 
Q 1191 744 1312 622 
Q 1434 500 1434 325 
Q 1434 153 1312 31 
Q 1191 -91 1019 -91 
Q 841 -91 722 29 
Q 603 150 603 325 
z
" transform="scale(0.015625)"/>
     </defs>
     <use xlink:href="#DejaVuSerif-70"/>
     <use xlink:href="#DejaVuSerif-20" x="64.013672"/>
     <use xlink:href="#DejaVuSerif-3d" x="95.800781"/>
     <use xlink:href="#DejaVuSerif-20" x="179.589844"/>
     <use xlink:href="#DejaVuSerif-30" x="211.376953"/>
     <use xlink:href="#DejaVuSerif-2e" x="275"/>
     <use xlink:href="#DejaVuSerif-32" x="306.787109"/>
     <use xlink:href="#DejaVuSerif-31" x="370.410156"/>
    </g>
   </g>
  </g>
 </g>
 <defs>
  <clipPath id="p80586c82ad">
   <rect x="73.19" y="11.145242" width="364.735" height="297.214758"/>
  </clipPath>
 </defs>
</svg>
