<?xml version="1.0" encoding="utf-8" standalone="no"?>
<!DOCTYPE svg PUBLIC "-//W3C//DTD SVG 1.1//EN"
  "http://www.w3.org/Graphics/SVG/1.1/DTD/svg11.dtd">
<svg xmlns:xlink="http://www.w3.org/1999/xlink" width="460.8pt" height="345.6pt" viewBox="0 0 460.8 345.6" xmlns="http://www.w3.org/2000/svg" version="1.1">
 <metadata>
  <rdf:RDF xmlns:dc="http://purl.org/dc/elements/1.1/" xmlns:cc="http://creativecommons.org/ns#" xmlns:rdf="http://www.w3.org/1999/02/22-rdf-syntax-ns#">
   <cc:Work>
    <dc:type rdf:resource="http://purl.org/dc/dcmitype/StillImage"/>
    <dc:date>2025-07-07T15:52:03.815437</dc:date>
    <dc:format>image/svg+xml</dc:format>
    <dc:creator>
     <cc:Agent>
      <dc:title>Matplotlib v3.9.2, https://matplotlib.org/</dc:title>
     </cc:Agent>
    </dc:creator>
   </cc:Work>
  </rdf:RDF>
 </metadata>
 <defs>
  <style type="text/css">*{stroke-linejoin: round; stroke-linecap: butt}</style>
 </defs>
 <g id="figure_1">
  <g id="patch_1">
   <path d="M 0 345.6 
L 460.8 345.6 
L 460.8 0 
L 0 0 
z
" style="fill: #ffffff"/>
  </g>
  <g id="axes_1">
   <g id="patch_2">
    <path d="M 68.42 309.08 
L 450 309.08 
L 450 10.8 
L 68.42 10.8 
z
" style="fill: #ffffff"/>
   </g>
   <g id="patch_3">
    <path d="M 93.858667 229.364496 
L 170.174667 229.364496 
L 170.174667 172.075827 
L 93.858667 172.075827 
L 93.858667 229.364496 
z
" clip-path="url(#p8eab651ba4)" style="fill: #6495ed; stroke: #000000; stroke-linejoin: miter"/>
   </g>
   <g id="line2d_1">
    <path d="M 132.016667 229.364496 
L 132.016667 273.065272 
" clip-path="url(#p8eab651ba4)" style="fill: none; stroke: #000000; stroke-linecap: square"/>
   </g>
   <g id="line2d_2">
    <path d="M 132.016667 172.075827 
L 132.016667 139.519189 
" clip-path="url(#p8eab651ba4)" style="fill: none; stroke: #000000; stroke-linecap: square"/>
   </g>
   <g id="line2d_3">
    <path d="M 112.937667 273.065272 
L 151.095667 273.065272 
" clip-path="url(#p8eab651ba4)" style="fill: none; stroke: #000000; stroke-linecap: square"/>
   </g>
   <g id="line2d_4">
    <path d="M 112.937667 139.519189 
L 151.095667 139.519189 
" clip-path="url(#p8eab651ba4)" style="fill: none; stroke: #000000; stroke-linecap: square"/>
   </g>
   <g id="patch_4">
    <path d="M 221.052 283.345108 
L 297.368 283.345108 
L 297.368 247.059735 
L 221.052 247.059735 
L 221.052 283.345108 
z
" clip-path="url(#p8eab651ba4)" style="fill: #a9a9a9; stroke: #000000; stroke-linejoin: miter"/>
   </g>
   <g id="line2d_5">
    <path d="M 259.21 283.345108 
L 259.21 295.521818 
" clip-path="url(#p8eab651ba4)" style="fill: none; stroke: #000000; stroke-linecap: square"/>
   </g>
   <g id="line2d_6">
    <path d="M 259.21 247.059735 
L 259.21 200.356849 
" clip-path="url(#p8eab651ba4)" style="fill: none; stroke: #000000; stroke-linecap: square"/>
   </g>
   <g id="line2d_7">
    <path d="M 240.131 295.521818 
L 278.289 295.521818 
" clip-path="url(#p8eab651ba4)" style="fill: none; stroke: #000000; stroke-linecap: square"/>
   </g>
   <g id="line2d_8">
    <path d="M 240.131 200.356849 
L 278.289 200.356849 
" clip-path="url(#p8eab651ba4)" style="fill: none; stroke: #000000; stroke-linecap: square"/>
   </g>
   <g id="patch_5">
    <path d="M 348.245333 273.623626 
L 424.561333 273.623626 
L 424.561333 237.567714 
L 348.245333 237.567714 
L 348.245333 273.623626 
z
" clip-path="url(#p8eab651ba4)" style="fill: #b22222; stroke: #000000; stroke-linejoin: miter"/>
   </g>
   <g id="line2d_9">
    <path d="M 386.403333 273.623626 
L 386.403333 293.854404 
" clip-path="url(#p8eab651ba4)" style="fill: none; stroke: #000000; stroke-linecap: square"/>
   </g>
   <g id="line2d_10">
    <path d="M 386.403333 237.567714 
L 386.403333 197.282077 
" clip-path="url(#p8eab651ba4)" style="fill: none; stroke: #000000; stroke-linecap: square"/>
   </g>
   <g id="line2d_11">
    <path d="M 367.324333 293.854404 
L 405.482333 293.854404 
" clip-path="url(#p8eab651ba4)" style="fill: none; stroke: #000000; stroke-linecap: square"/>
   </g>
   <g id="line2d_12">
    <path d="M 367.324333 197.282077 
L 405.482333 197.282077 
" clip-path="url(#p8eab651ba4)" style="fill: none; stroke: #000000; stroke-linecap: square"/>
   </g>
   <g id="PathCollection_1">
    <defs>
     <path id="md17f8f951b" d="M 0 3.162278 
C 0.838646 3.162278 1.643056 2.82908 2.236068 2.236068 
C 2.82908 1.643056 3.162278 0.838646 3.162278 0 
C 3.162278 -0.838646 2.82908 -1.643056 2.236068 -2.236068 
C 1.643056 -2.82908 0.838646 -3.162278 0 -3.162278 
C -0.838646 -3.162278 -1.643056 -2.82908 -2.236068 -2.236068 
C -2.82908 -1.643056 -3.162278 -0.838646 -3.162278 0 
C -3.162278 0.838646 -2.82908 1.643056 -2.236068 2.236068 
C -1.643056 2.82908 -0.838646 3.162278 0 3.162278 
z
" style="stroke: #4169e1"/>
    </defs>
    <g clip-path="url(#p8eab651ba4)">
     <use xlink:href="#md17f8f951b" x="134.49541" y="227.15785" style="fill: #4169e1; stroke: #4169e1"/>
     <use xlink:href="#md17f8f951b" x="130.422358" y="231.639981" style="fill: #4169e1; stroke: #4169e1"/>
     <use xlink:href="#md17f8f951b" x="125.728414" y="202.223129" style="fill: #4169e1; stroke: #4169e1"/>
     <use xlink:href="#md17f8f951b" x="136.704544" y="211.24858" style="fill: #4169e1; stroke: #4169e1"/>
     <use xlink:href="#md17f8f951b" x="125.670323" y="231.716468" style="fill: #4169e1; stroke: #4169e1"/>
     <use xlink:href="#md17f8f951b" x="131.534103" y="140.742979" style="fill: #4169e1; stroke: #4169e1"/>
     <use xlink:href="#md17f8f951b" x="136.225297" y="141.829093" style="fill: #4169e1; stroke: #4169e1"/>
     <use xlink:href="#md17f8f951b" x="134.960691" y="178.282737" style="fill: #4169e1; stroke: #4169e1"/>
     <use xlink:href="#md17f8f951b" x="128.217993" y="246.233676" style="fill: #4169e1; stroke: #4169e1"/>
     <use xlink:href="#md17f8f951b" x="136.572158" y="234.20994" style="fill: #4169e1; stroke: #4169e1"/>
     <use xlink:href="#md17f8f951b" x="140.575061" y="206.552286" style="fill: #4169e1; stroke: #4169e1"/>
     <use xlink:href="#md17f8f951b" x="139.370498" y="273.065272" style="fill: #4169e1; stroke: #4169e1"/>
     <use xlink:href="#md17f8f951b" x="127.051881" y="229.406564" style="fill: #4169e1; stroke: #4169e1"/>
     <use xlink:href="#md17f8f951b" x="133.551423" y="216.679148" style="fill: #4169e1; stroke: #4169e1"/>
     <use xlink:href="#md17f8f951b" x="135.516626" y="225.153894" style="fill: #4169e1; stroke: #4169e1"/>
     <use xlink:href="#md17f8f951b" x="133.175906" y="170.006858" style="fill: #4169e1; stroke: #4169e1"/>
     <use xlink:href="#md17f8f951b" x="128.232536" y="160.185943" style="fill: #4169e1; stroke: #4169e1"/>
     <use xlink:href="#md17f8f951b" x="138.006814" y="203.737569" style="fill: #4169e1; stroke: #4169e1"/>
     <use xlink:href="#md17f8f951b" x="123.49755" y="223.670049" style="fill: #4169e1; stroke: #4169e1"/>
     <use xlink:href="#md17f8f951b" x="136.716531" y="238.569692" style="fill: #4169e1; stroke: #4169e1"/>
     <use xlink:href="#md17f8f951b" x="134.43663" y="229.238293" style="fill: #4169e1; stroke: #4169e1"/>
     <use xlink:href="#md17f8f951b" x="126.877572" y="158.625611" style="fill: #4169e1; stroke: #4169e1"/>
     <use xlink:href="#md17f8f951b" x="141.737015" y="139.519189" style="fill: #4169e1; stroke: #4169e1"/>
     <use xlink:href="#md17f8f951b" x="126.815533" y="162.832389" style="fill: #4169e1; stroke: #4169e1"/>
     <use xlink:href="#md17f8f951b" x="135.89484" y="201.687721" style="fill: #4169e1; stroke: #4169e1"/>
     <use xlink:href="#md17f8f951b" x="124.622076" y="184.585256" style="fill: #4169e1; stroke: #4169e1"/>
    </g>
   </g>
   <g id="PathCollection_2">
    <defs>
     <path id="m8c44456d8c" d="M 0 3.162278 
C 0.838646 3.162278 1.643056 2.82908 2.236068 2.236068 
C 2.82908 1.643056 3.162278 0.838646 3.162278 0 
C 3.162278 -0.838646 2.82908 -1.643056 2.236068 -2.236068 
C 1.643056 -2.82908 0.838646 -3.162278 0 -3.162278 
C -0.838646 -3.162278 -1.643056 -2.82908 -2.236068 -2.236068 
C -2.82908 -1.643056 -3.162278 -0.838646 -3.162278 0 
C -3.162278 0.838646 -2.82908 1.643056 -2.236068 2.236068 
C -1.643056 2.82908 -0.838646 3.162278 0 3.162278 
z
" style="stroke: #808080"/>
    </defs>
    <g clip-path="url(#p8eab651ba4)">
     <use xlink:href="#m8c44456d8c" x="256.731982" y="262.433596" style="fill: #808080; stroke: #808080"/>
     <use xlink:href="#m8c44456d8c" x="249.424472" y="250.63932" style="fill: #808080; stroke: #808080"/>
     <use xlink:href="#m8c44456d8c" x="257.926441" y="251.052349" style="fill: #808080; stroke: #808080"/>
     <use xlink:href="#m8c44456d8c" x="258.267798" y="275.099823" style="fill: #808080; stroke: #808080"/>
     <use xlink:href="#m8c44456d8c" x="242.967655" y="273.524193" style="fill: #808080; stroke: #808080"/>
     <use xlink:href="#m8c44456d8c" x="260.0766" y="256.972434" style="fill: #808080; stroke: #808080"/>
     <use xlink:href="#m8c44456d8c" x="273.292788" y="260.582614" style="fill: #808080; stroke: #808080"/>
     <use xlink:href="#m8c44456d8c" x="251.806676" y="258.440982" style="fill: #808080; stroke: #808080"/>
     <use xlink:href="#m8c44456d8c" x="260.422263" y="283.345108" style="fill: #808080; stroke: #808080"/>
     <use xlink:href="#m8c44456d8c" x="253.185162" y="251.57246" style="fill: #808080; stroke: #808080"/>
     <use xlink:href="#m8c44456d8c" x="253.688663" y="288.607405" style="fill: #808080; stroke: #808080"/>
     <use xlink:href="#m8c44456d8c" x="259.531424" y="251.664244" style="fill: #808080; stroke: #808080"/>
     <use xlink:href="#m8c44456d8c" x="262.903723" y="280.515093" style="fill: #808080; stroke: #808080"/>
     <use xlink:href="#m8c44456d8c" x="262.556223" y="267.940651" style="fill: #808080; stroke: #808080"/>
     <use xlink:href="#m8c44456d8c" x="264.939932" y="280.88223" style="fill: #808080; stroke: #808080"/>
     <use xlink:href="#m8c44456d8c" x="258.392198" y="179.674798" style="fill: #808080; stroke: #808080"/>
     <use xlink:href="#m8c44456d8c" x="257.415703" y="219.050241" style="fill: #808080; stroke: #808080"/>
     <use xlink:href="#m8c44456d8c" x="266.183007" y="265.508369" style="fill: #808080; stroke: #808080"/>
     <use xlink:href="#m8c44456d8c" x="255.852986" y="284.278248" style="fill: #808080; stroke: #808080"/>
     <use xlink:href="#m8c44456d8c" x="261.576224" y="244.58156" style="fill: #808080; stroke: #808080"/>
     <use xlink:href="#m8c44456d8c" x="251.435437" y="274.197278" style="fill: #808080; stroke: #808080"/>
     <use xlink:href="#m8c44456d8c" x="256.881791" y="286.159825" style="fill: #808080; stroke: #808080"/>
     <use xlink:href="#m8c44456d8c" x="270.133266" y="264.009226" style="fill: #808080; stroke: #808080"/>
     <use xlink:href="#m8c44456d8c" x="262.955567" y="262.479489" style="fill: #808080; stroke: #808080"/>
     <use xlink:href="#m8c44456d8c" x="247.957692" y="266.54859" style="fill: #808080; stroke: #808080"/>
     <use xlink:href="#m8c44456d8c" x="263.692944" y="251.664244" style="fill: #808080; stroke: #808080"/>
     <use xlink:href="#m8c44456d8c" x="250.503041" y="192.203348" style="fill: #808080; stroke: #808080"/>
     <use xlink:href="#m8c44456d8c" x="250.477299" y="236.779899" style="fill: #808080; stroke: #808080"/>
     <use xlink:href="#m8c44456d8c" x="270.127731" y="226.989579" style="fill: #808080; stroke: #808080"/>
     <use xlink:href="#m8c44456d8c" x="254.933394" y="276.277721" style="fill: #808080; stroke: #808080"/>
     <use xlink:href="#m8c44456d8c" x="263.842976" y="210.116574" style="fill: #808080; stroke: #808080"/>
     <use xlink:href="#m8c44456d8c" x="264.166594" y="266.915727" style="fill: #808080; stroke: #808080"/>
     <use xlink:href="#m8c44456d8c" x="242.374293" y="262.831328" style="fill: #808080; stroke: #808080"/>
     <use xlink:href="#m8c44456d8c" x="261.819161" y="293.793215" style="fill: #808080; stroke: #808080"/>
     <use xlink:href="#m8c44456d8c" x="233.053914" y="295.307655" style="fill: #808080; stroke: #808080"/>
     <use xlink:href="#m8c44456d8c" x="265.468981" y="272.132132" style="fill: #808080; stroke: #808080"/>
     <use xlink:href="#m8c44456d8c" x="259.272766" y="295.521818" style="fill: #808080; stroke: #808080"/>
     <use xlink:href="#m8c44456d8c" x="265.52722" y="283.605163" style="fill: #808080; stroke: #808080"/>
     <use xlink:href="#m8c44456d8c" x="264.422571" y="286.725828" style="fill: #808080; stroke: #808080"/>
     <use xlink:href="#m8c44456d8c" x="265.659773" y="282.075426" style="fill: #808080; stroke: #808080"/>
     <use xlink:href="#m8c44456d8c" x="259.436871" y="245.728863" style="fill: #808080; stroke: #808080"/>
     <use xlink:href="#m8c44456d8c" x="245.586832" y="272.912298" style="fill: #808080; stroke: #808080"/>
     <use xlink:href="#m8c44456d8c" x="269.436377" y="266.563888" style="fill: #808080; stroke: #808080"/>
     <use xlink:href="#m8c44456d8c" x="267.691773" y="249.12488" style="fill: #808080; stroke: #808080"/>
     <use xlink:href="#m8c44456d8c" x="265.47688" y="252.15376" style="fill: #808080; stroke: #808080"/>
     <use xlink:href="#m8c44456d8c" x="256.491194" y="221.375442" style="fill: #808080; stroke: #808080"/>
     <use xlink:href="#m8c44456d8c" x="268.87656" y="234.607672" style="fill: #808080; stroke: #808080"/>
     <use xlink:href="#m8c44456d8c" x="256.236737" y="247.059735" style="fill: #808080; stroke: #808080"/>
     <use xlink:href="#m8c44456d8c" x="253.95096" y="284.599493" style="fill: #808080; stroke: #808080"/>
     <use xlink:href="#m8c44456d8c" x="252.737806" y="175.207965" style="fill: #808080; stroke: #808080"/>
     <use xlink:href="#m8c44456d8c" x="264.567644" y="169.807992" style="fill: #808080; stroke: #808080"/>
     <use xlink:href="#m8c44456d8c" x="257.476833" y="192.341025" style="fill: #808080; stroke: #808080"/>
     <use xlink:href="#m8c44456d8c" x="257.356131" y="242.363441" style="fill: #808080; stroke: #808080"/>
     <use xlink:href="#m8c44456d8c" x="260.686152" y="252.85744" style="fill: #808080; stroke: #808080"/>
     <use xlink:href="#m8c44456d8c" x="257.494317" y="270.250555" style="fill: #808080; stroke: #808080"/>
     <use xlink:href="#m8c44456d8c" x="262.66203" y="258.012655" style="fill: #808080; stroke: #808080"/>
     <use xlink:href="#m8c44456d8c" x="256.411801" y="239.242776" style="fill: #808080; stroke: #808080"/>
     <use xlink:href="#m8c44456d8c" x="254.429259" y="200.356849" style="fill: #808080; stroke: #808080"/>
     <use xlink:href="#m8c44456d8c" x="264.784741" y="249.170772" style="fill: #808080; stroke: #808080"/>
     <use xlink:href="#m8c44456d8c" x="258.555087" y="269.210333" style="fill: #808080; stroke: #808080"/>
     <use xlink:href="#m8c44456d8c" x="256.556974" y="247.059735" style="fill: #808080; stroke: #808080"/>
     <use xlink:href="#m8c44456d8c" x="263.737206" y="260.567317" style="fill: #808080; stroke: #808080"/>
     <use xlink:href="#m8c44456d8c" x="255.732185" y="260.475532" style="fill: #808080; stroke: #808080"/>
     <use xlink:href="#m8c44456d8c" x="267.907556" y="188.822629" style="fill: #808080; stroke: #808080"/>
     <use xlink:href="#m8c44456d8c" x="264.285706" y="244.474478" style="fill: #808080; stroke: #808080"/>
     <use xlink:href="#m8c44456d8c" x="262.542609" y="227.73915" style="fill: #808080; stroke: #808080"/>
     <use xlink:href="#m8c44456d8c" x="265.934067" y="227.356716" style="fill: #808080; stroke: #808080"/>
     <use xlink:href="#m8c44456d8c" x="261.728505" y="265.263611" style="fill: #808080; stroke: #808080"/>
     <use xlink:href="#m8c44456d8c" x="273.515172" y="238.615584" style="fill: #808080; stroke: #808080"/>
     <use xlink:href="#m8c44456d8c" x="253.014983" y="291.773961" style="fill: #808080; stroke: #808080"/>
     <use xlink:href="#m8c44456d8c" x="260.157972" y="291.207958" style="fill: #808080; stroke: #808080"/>
     <use xlink:href="#m8c44456d8c" x="258.438118" y="291.590393" style="fill: #808080; stroke: #808080"/>
     <use xlink:href="#m8c44456d8c" x="260.144123" y="290.978498" style="fill: #808080; stroke: #808080"/>
     <use xlink:href="#m8c44456d8c" x="262.945112" y="289.586437" style="fill: #808080; stroke: #808080"/>
     <use xlink:href="#m8c44456d8c" x="260.893379" y="292.110504" style="fill: #808080; stroke: #808080"/>
     <use xlink:href="#m8c44456d8c" x="251.610273" y="288.102591" style="fill: #808080; stroke: #808080"/>
     <use xlink:href="#m8c44456d8c" x="278.175443" y="292.24818" style="fill: #808080; stroke: #808080"/>
     <use xlink:href="#m8c44456d8c" x="254.702905" y="287.429507" style="fill: #808080; stroke: #808080"/>
     <use xlink:href="#m8c44456d8c" x="260.045948" y="293.426078" style="fill: #808080; stroke: #808080"/>
     <use xlink:href="#m8c44456d8c" x="262.627379" y="292.003422" style="fill: #808080; stroke: #808080"/>
     <use xlink:href="#m8c44456d8c" x="261.447999" y="288.22497" style="fill: #808080; stroke: #808080"/>
     <use xlink:href="#m8c44456d8c" x="252.794571" y="291.238553" style="fill: #808080; stroke: #808080"/>
     <use xlink:href="#m8c44456d8c" x="253.441004" y="285.915067" style="fill: #808080; stroke: #808080"/>
     <use xlink:href="#m8c44456d8c" x="262.597437" y="242.531712" style="fill: #808080; stroke: #808080"/>
     <use xlink:href="#m8c44456d8c" x="276.25202" y="250.99116" style="fill: #808080; stroke: #808080"/>
     <use xlink:href="#m8c44456d8c" x="261.311758" y="260.582614" style="fill: #808080; stroke: #808080"/>
     <use xlink:href="#m8c44456d8c" x="268.528574" y="239.869968" style="fill: #808080; stroke: #808080"/>
     <use xlink:href="#m8c44456d8c" x="260.286998" y="267.435838" style="fill: #808080; stroke: #808080"/>
     <use xlink:href="#m8c44456d8c" x="252.158143" y="261.209806" style="fill: #808080; stroke: #808080"/>
     <use xlink:href="#m8c44456d8c" x="256.254341" y="252.444411" style="fill: #808080; stroke: #808080"/>
     <use xlink:href="#m8c44456d8c" x="272.294819" y="251.021755" style="fill: #808080; stroke: #808080"/>
     <use xlink:href="#m8c44456d8c" x="259.568841" y="268.552546" style="fill: #808080; stroke: #808080"/>
     <use xlink:href="#m8c44456d8c" x="247.372574" y="264.651716" style="fill: #808080; stroke: #808080"/>
    </g>
   </g>
   <g id="PathCollection_3">
    <defs>
     <path id="m3ff693cc00" d="M 0 3.162278 
C 0.838646 3.162278 1.643056 2.82908 2.236068 2.236068 
C 2.82908 1.643056 3.162278 0.838646 3.162278 0 
C 3.162278 -0.838646 2.82908 -1.643056 2.236068 -2.236068 
C 1.643056 -2.82908 0.838646 -3.162278 0 -3.162278 
C -0.838646 -3.162278 -1.643056 -2.82908 -2.236068 -2.236068 
C -2.82908 -1.643056 -3.162278 -0.838646 -3.162278 0 
C -3.162278 0.838646 -2.82908 1.643056 -2.236068 2.236068 
C -1.643056 2.82908 -0.838646 3.162278 0 3.162278 
z
" style="stroke: #8b0000"/>
    </defs>
    <g clip-path="url(#p8eab651ba4)">
     <use xlink:href="#m3ff693cc00" x="379.830159" y="231.639981" style="fill: #8b0000; stroke: #8b0000"/>
     <use xlink:href="#m3ff693cc00" x="392.281424" y="265.523666" style="fill: #8b0000; stroke: #8b0000"/>
     <use xlink:href="#m3ff693cc00" x="391.767217" y="250.302778" style="fill: #8b0000; stroke: #8b0000"/>
     <use xlink:href="#m3ff693cc00" x="383.531112" y="270.877747" style="fill: #8b0000; stroke: #8b0000"/>
     <use xlink:href="#m3ff693cc00" x="390.933107" y="280.163254" style="fill: #8b0000; stroke: #8b0000"/>
     <use xlink:href="#m3ff693cc00" x="385.012479" y="197.282077" style="fill: #8b0000; stroke: #8b0000"/>
     <use xlink:href="#m3ff693cc00" x="388.393708" y="274.778578" style="fill: #8b0000; stroke: #8b0000"/>
     <use xlink:href="#m3ff693cc00" x="399.585926" y="252.704466" style="fill: #8b0000; stroke: #8b0000"/>
     <use xlink:href="#m3ff693cc00" x="390.599589" y="251.205323" style="fill: #8b0000; stroke: #8b0000"/>
     <use xlink:href="#m3ff693cc00" x="394.651758" y="167.926415" style="fill: #8b0000; stroke: #8b0000"/>
     <use xlink:href="#m3ff693cc00" x="367.152397" y="266.31913" style="fill: #8b0000; stroke: #8b0000"/>
     <use xlink:href="#m3ff693cc00" x="382.942727" y="268.873791" style="fill: #8b0000; stroke: #8b0000"/>
     <use xlink:href="#m3ff693cc00" x="382.288745" y="251.480676" style="fill: #8b0000; stroke: #8b0000"/>
     <use xlink:href="#m3ff693cc00" x="400.808485" y="270.954234" style="fill: #8b0000; stroke: #8b0000"/>
     <use xlink:href="#m3ff693cc00" x="402.93709" y="243.923773" style="fill: #8b0000; stroke: #8b0000"/>
     <use xlink:href="#m3ff693cc00" x="390.917791" y="198.215217" style="fill: #8b0000; stroke: #8b0000"/>
     <use xlink:href="#m3ff693cc00" x="386.922496" y="166.825004" style="fill: #8b0000; stroke: #8b0000"/>
     <use xlink:href="#m3ff693cc00" x="381.704202" y="293.854404" style="fill: #8b0000; stroke: #8b0000"/>
     <use xlink:href="#m3ff693cc00" x="386.136511" y="289.953574" style="fill: #8b0000; stroke: #8b0000"/>
     <use xlink:href="#m3ff693cc00" x="385.937414" y="292.676506" style="fill: #8b0000; stroke: #8b0000"/>
     <use xlink:href="#m3ff693cc00" x="384.275671" y="291.682177" style="fill: #8b0000; stroke: #8b0000"/>
     <use xlink:href="#m3ff693cc00" x="390.270927" y="287.964915" style="fill: #8b0000; stroke: #8b0000"/>
     <use xlink:href="#m3ff693cc00" x="389.211966" y="287.628373" style="fill: #8b0000; stroke: #8b0000"/>
     <use xlink:href="#m3ff693cc00" x="386.288897" y="264.315173" style="fill: #8b0000; stroke: #8b0000"/>
     <use xlink:href="#m3ff693cc00" x="381.141978" y="162.832389" style="fill: #8b0000; stroke: #8b0000"/>
     <use xlink:href="#m3ff693cc00" x="391.960991" y="224.052483" style="fill: #8b0000; stroke: #8b0000"/>
     <use xlink:href="#m3ff693cc00" x="383.97133" y="243.495446" style="fill: #8b0000; stroke: #8b0000"/>
     <use xlink:href="#m3ff693cc00" x="384.675264" y="272.468674" style="fill: #8b0000; stroke: #8b0000"/>
     <use xlink:href="#m3ff693cc00" x="388.76793" y="255.82513" style="fill: #8b0000; stroke: #8b0000"/>
     <use xlink:href="#m3ff693cc00" x="388.804297" y="260.353153" style="fill: #8b0000; stroke: #8b0000"/>
     <use xlink:href="#m3ff693cc00" x="386.919278" y="223.624156" style="fill: #8b0000; stroke: #8b0000"/>
    </g>
   </g>
   <g id="line2d_13">
    <path d="M 93.858667 208.900433 
L 170.174667 208.900433 
" clip-path="url(#p8eab651ba4)" style="fill: none; stroke: #000000"/>
   </g>
   <g id="line2d_14">
    <path d="M 221.052 262.479489 
L 297.368 262.479489 
" clip-path="url(#p8eab651ba4)" style="fill: none; stroke: #000000"/>
   </g>
   <g id="line2d_15">
    <path d="M 348.245333 260.353153 
L 424.561333 260.353153 
" clip-path="url(#p8eab651ba4)" style="fill: none; stroke: #000000"/>
   </g>
   <g id="matplotlib.axis_1">
    <g id="xtick_1">
     <g id="line2d_16">
      <defs>
       <path id="m829977fc95" d="M 0 0 
L 0 3.5 
" style="stroke: #000000; stroke-width: 0.8"/>
      </defs>
      <g>
       <use xlink:href="#m829977fc95" x="132.016667" y="309.08" style="stroke: #000000; stroke-width: 0.8"/>
      </g>
     </g>
     <g id="text_1">
      <!-- RC -->
      <g transform="translate(117.572917 330.395625) scale(0.2 -0.2)">
       <defs>
        <path id="ArialMT-52" d="M 503 0 
L 503 4581 
L 2534 4581 
Q 3147 4581 3465 4457 
Q 3784 4334 3975 4021 
Q 4166 3709 4166 3331 
Q 4166 2844 3850 2509 
Q 3534 2175 2875 2084 
Q 3116 1969 3241 1856 
Q 3506 1613 3744 1247 
L 4541 0 
L 3778 0 
L 3172 953 
Q 2906 1366 2734 1584 
Q 2563 1803 2427 1890 
Q 2291 1978 2150 2013 
Q 2047 2034 1813 2034 
L 1109 2034 
L 1109 0 
L 503 0 
z
M 1109 2559 
L 2413 2559 
Q 2828 2559 3062 2645 
Q 3297 2731 3419 2920 
Q 3541 3109 3541 3331 
Q 3541 3656 3305 3865 
Q 3069 4075 2559 4075 
L 1109 4075 
L 1109 2559 
z
" transform="scale(0.015625)"/>
        <path id="ArialMT-43" d="M 3763 1606 
L 4369 1453 
Q 4178 706 3683 314 
Q 3188 -78 2472 -78 
Q 1731 -78 1267 223 
Q 803 525 561 1097 
Q 319 1669 319 2325 
Q 319 3041 592 3573 
Q 866 4106 1370 4382 
Q 1875 4659 2481 4659 
Q 3169 4659 3637 4309 
Q 4106 3959 4291 3325 
L 3694 3184 
Q 3534 3684 3231 3912 
Q 2928 4141 2469 4141 
Q 1941 4141 1586 3887 
Q 1231 3634 1087 3207 
Q 944 2781 944 2328 
Q 944 1744 1114 1308 
Q 1284 872 1643 656 
Q 2003 441 2422 441 
Q 2931 441 3284 734 
Q 3638 1028 3763 1606 
z
" transform="scale(0.015625)"/>
       </defs>
       <use xlink:href="#ArialMT-52"/>
       <use xlink:href="#ArialMT-43" x="72.216797"/>
      </g>
     </g>
    </g>
    <g id="xtick_2">
     <g id="line2d_17">
      <g>
       <use xlink:href="#m829977fc95" x="259.21" y="309.08" style="stroke: #000000; stroke-width: 0.8"/>
      </g>
     </g>
     <g id="text_2">
      <!-- Non-members -->
      <g transform="translate(195.864688 330.395625) scale(0.2 -0.2)">
       <defs>
        <path id="ArialMT-4e" d="M 488 0 
L 488 4581 
L 1109 4581 
L 3516 984 
L 3516 4581 
L 4097 4581 
L 4097 0 
L 3475 0 
L 1069 3600 
L 1069 0 
L 488 0 
z
" transform="scale(0.015625)"/>
        <path id="ArialMT-6f" d="M 213 1659 
Q 213 2581 725 3025 
Q 1153 3394 1769 3394 
Q 2453 3394 2887 2945 
Q 3322 2497 3322 1706 
Q 3322 1066 3130 698 
Q 2938 331 2570 128 
Q 2203 -75 1769 -75 
Q 1072 -75 642 372 
Q 213 819 213 1659 
z
M 791 1659 
Q 791 1022 1069 705 
Q 1347 388 1769 388 
Q 2188 388 2466 706 
Q 2744 1025 2744 1678 
Q 2744 2294 2464 2611 
Q 2184 2928 1769 2928 
Q 1347 2928 1069 2612 
Q 791 2297 791 1659 
z
" transform="scale(0.015625)"/>
        <path id="ArialMT-6e" d="M 422 0 
L 422 3319 
L 928 3319 
L 928 2847 
Q 1294 3394 1984 3394 
Q 2284 3394 2536 3286 
Q 2788 3178 2913 3003 
Q 3038 2828 3088 2588 
Q 3119 2431 3119 2041 
L 3119 0 
L 2556 0 
L 2556 2019 
Q 2556 2363 2490 2533 
Q 2425 2703 2258 2804 
Q 2091 2906 1866 2906 
Q 1506 2906 1245 2678 
Q 984 2450 984 1813 
L 984 0 
L 422 0 
z
" transform="scale(0.015625)"/>
        <path id="ArialMT-2d" d="M 203 1375 
L 203 1941 
L 1931 1941 
L 1931 1375 
L 203 1375 
z
" transform="scale(0.015625)"/>
        <path id="ArialMT-6d" d="M 422 0 
L 422 3319 
L 925 3319 
L 925 2853 
Q 1081 3097 1340 3245 
Q 1600 3394 1931 3394 
Q 2300 3394 2536 3241 
Q 2772 3088 2869 2813 
Q 3263 3394 3894 3394 
Q 4388 3394 4653 3120 
Q 4919 2847 4919 2278 
L 4919 0 
L 4359 0 
L 4359 2091 
Q 4359 2428 4304 2576 
Q 4250 2725 4106 2815 
Q 3963 2906 3769 2906 
Q 3419 2906 3187 2673 
Q 2956 2441 2956 1928 
L 2956 0 
L 2394 0 
L 2394 2156 
Q 2394 2531 2256 2718 
Q 2119 2906 1806 2906 
Q 1569 2906 1367 2781 
Q 1166 2656 1075 2415 
Q 984 2175 984 1722 
L 984 0 
L 422 0 
z
" transform="scale(0.015625)"/>
        <path id="ArialMT-65" d="M 2694 1069 
L 3275 997 
Q 3138 488 2766 206 
Q 2394 -75 1816 -75 
Q 1088 -75 661 373 
Q 234 822 234 1631 
Q 234 2469 665 2931 
Q 1097 3394 1784 3394 
Q 2450 3394 2872 2941 
Q 3294 2488 3294 1666 
Q 3294 1616 3291 1516 
L 816 1516 
Q 847 969 1125 678 
Q 1403 388 1819 388 
Q 2128 388 2347 550 
Q 2566 713 2694 1069 
z
M 847 1978 
L 2700 1978 
Q 2663 2397 2488 2606 
Q 2219 2931 1791 2931 
Q 1403 2931 1139 2672 
Q 875 2413 847 1978 
z
" transform="scale(0.015625)"/>
        <path id="ArialMT-62" d="M 941 0 
L 419 0 
L 419 4581 
L 981 4581 
L 981 2947 
Q 1338 3394 1891 3394 
Q 2197 3394 2470 3270 
Q 2744 3147 2920 2923 
Q 3097 2700 3197 2384 
Q 3297 2069 3297 1709 
Q 3297 856 2875 390 
Q 2453 -75 1863 -75 
Q 1275 -75 941 416 
L 941 0 
z
M 934 1684 
Q 934 1088 1097 822 
Q 1363 388 1816 388 
Q 2184 388 2453 708 
Q 2722 1028 2722 1663 
Q 2722 2313 2464 2622 
Q 2206 2931 1841 2931 
Q 1472 2931 1203 2611 
Q 934 2291 934 1684 
z
" transform="scale(0.015625)"/>
        <path id="ArialMT-72" d="M 416 0 
L 416 3319 
L 922 3319 
L 922 2816 
Q 1116 3169 1280 3281 
Q 1444 3394 1641 3394 
Q 1925 3394 2219 3213 
L 2025 2691 
Q 1819 2813 1613 2813 
Q 1428 2813 1281 2702 
Q 1134 2591 1072 2394 
Q 978 2094 978 1738 
L 978 0 
L 416 0 
z
" transform="scale(0.015625)"/>
        <path id="ArialMT-73" d="M 197 991 
L 753 1078 
Q 800 744 1014 566 
Q 1228 388 1613 388 
Q 2000 388 2187 545 
Q 2375 703 2375 916 
Q 2375 1106 2209 1216 
Q 2094 1291 1634 1406 
Q 1016 1563 777 1677 
Q 538 1791 414 1992 
Q 291 2194 291 2438 
Q 291 2659 392 2848 
Q 494 3038 669 3163 
Q 800 3259 1026 3326 
Q 1253 3394 1513 3394 
Q 1903 3394 2198 3281 
Q 2494 3169 2634 2976 
Q 2775 2784 2828 2463 
L 2278 2388 
Q 2241 2644 2061 2787 
Q 1881 2931 1553 2931 
Q 1166 2931 1000 2803 
Q 834 2675 834 2503 
Q 834 2394 903 2306 
Q 972 2216 1119 2156 
Q 1203 2125 1616 2013 
Q 2213 1853 2448 1751 
Q 2684 1650 2818 1456 
Q 2953 1263 2953 975 
Q 2953 694 2789 445 
Q 2625 197 2315 61 
Q 2006 -75 1616 -75 
Q 969 -75 630 194 
Q 291 463 197 991 
z
" transform="scale(0.015625)"/>
       </defs>
       <use xlink:href="#ArialMT-4e"/>
       <use xlink:href="#ArialMT-6f" x="72.216797"/>
       <use xlink:href="#ArialMT-6e" x="127.832031"/>
       <use xlink:href="#ArialMT-2d" x="183.447266"/>
       <use xlink:href="#ArialMT-6d" x="216.748047"/>
       <use xlink:href="#ArialMT-65" x="300.048828"/>
       <use xlink:href="#ArialMT-6d" x="355.664062"/>
       <use xlink:href="#ArialMT-62" x="438.964844"/>
       <use xlink:href="#ArialMT-65" x="494.580078"/>
       <use xlink:href="#ArialMT-72" x="550.195312"/>
       <use xlink:href="#ArialMT-73" x="583.496094"/>
      </g>
     </g>
    </g>
    <g id="xtick_3">
     <g id="line2d_18">
      <g>
       <use xlink:href="#m829977fc95" x="386.403333" y="309.08" style="stroke: #000000; stroke-width: 0.8"/>
      </g>
     </g>
     <g id="text_3">
      <!-- Mutants -->
      <g transform="translate(350.834583 330.395625) scale(0.2 -0.2)">
       <defs>
        <path id="ArialMT-4d" d="M 475 0 
L 475 4581 
L 1388 4581 
L 2472 1338 
Q 2622 884 2691 659 
Q 2769 909 2934 1394 
L 4031 4581 
L 4847 4581 
L 4847 0 
L 4263 0 
L 4263 3834 
L 2931 0 
L 2384 0 
L 1059 3900 
L 1059 0 
L 475 0 
z
" transform="scale(0.015625)"/>
        <path id="ArialMT-75" d="M 2597 0 
L 2597 488 
Q 2209 -75 1544 -75 
Q 1250 -75 995 37 
Q 741 150 617 320 
Q 494 491 444 738 
Q 409 903 409 1263 
L 409 3319 
L 972 3319 
L 972 1478 
Q 972 1038 1006 884 
Q 1059 663 1231 536 
Q 1403 409 1656 409 
Q 1909 409 2131 539 
Q 2353 669 2445 892 
Q 2538 1116 2538 1541 
L 2538 3319 
L 3100 3319 
L 3100 0 
L 2597 0 
z
" transform="scale(0.015625)"/>
        <path id="ArialMT-74" d="M 1650 503 
L 1731 6 
Q 1494 -44 1306 -44 
Q 1000 -44 831 53 
Q 663 150 594 308 
Q 525 466 525 972 
L 525 2881 
L 113 2881 
L 113 3319 
L 525 3319 
L 525 4141 
L 1084 4478 
L 1084 3319 
L 1650 3319 
L 1650 2881 
L 1084 2881 
L 1084 941 
Q 1084 700 1114 631 
Q 1144 563 1211 522 
Q 1278 481 1403 481 
Q 1497 481 1650 503 
z
" transform="scale(0.015625)"/>
        <path id="ArialMT-61" d="M 2588 409 
Q 2275 144 1986 34 
Q 1697 -75 1366 -75 
Q 819 -75 525 192 
Q 231 459 231 875 
Q 231 1119 342 1320 
Q 453 1522 633 1644 
Q 813 1766 1038 1828 
Q 1203 1872 1538 1913 
Q 2219 1994 2541 2106 
Q 2544 2222 2544 2253 
Q 2544 2597 2384 2738 
Q 2169 2928 1744 2928 
Q 1347 2928 1158 2789 
Q 969 2650 878 2297 
L 328 2372 
Q 403 2725 575 2942 
Q 747 3159 1072 3276 
Q 1397 3394 1825 3394 
Q 2250 3394 2515 3294 
Q 2781 3194 2906 3042 
Q 3031 2891 3081 2659 
Q 3109 2516 3109 2141 
L 3109 1391 
Q 3109 606 3145 398 
Q 3181 191 3288 0 
L 2700 0 
Q 2613 175 2588 409 
z
M 2541 1666 
Q 2234 1541 1622 1453 
Q 1275 1403 1131 1340 
Q 988 1278 909 1158 
Q 831 1038 831 891 
Q 831 666 1001 516 
Q 1172 366 1500 366 
Q 1825 366 2078 508 
Q 2331 650 2450 897 
Q 2541 1088 2541 1459 
L 2541 1666 
z
" transform="scale(0.015625)"/>
       </defs>
       <use xlink:href="#ArialMT-4d"/>
       <use xlink:href="#ArialMT-75" x="83.300781"/>
       <use xlink:href="#ArialMT-74" x="138.916016"/>
       <use xlink:href="#ArialMT-61" x="166.699219"/>
       <use xlink:href="#ArialMT-6e" x="222.314453"/>
       <use xlink:href="#ArialMT-74" x="277.929688"/>
       <use xlink:href="#ArialMT-73" x="305.712891"/>
      </g>
     </g>
    </g>
   </g>
   <g id="matplotlib.axis_2">
    <g id="ytick_1">
     <g id="line2d_19">
      <defs>
       <path id="m4e989be42a" d="M 0 0 
L -3.5 0 
" style="stroke: #000000; stroke-width: 0.8"/>
      </defs>
      <g>
       <use xlink:href="#m4e989be42a" x="68.42" y="297.556369" style="stroke: #000000; stroke-width: 0.8"/>
      </g>
     </g>
     <g id="text_4">
      <!-- 0 -->
      <g transform="translate(55.859063 301.135275) scale(0.1 -0.1)">
       <defs>
        <path id="ArialMT-30" d="M 266 2259 
Q 266 3072 433 3567 
Q 600 4063 929 4331 
Q 1259 4600 1759 4600 
Q 2128 4600 2406 4451 
Q 2684 4303 2865 4023 
Q 3047 3744 3150 3342 
Q 3253 2941 3253 2259 
Q 3253 1453 3087 958 
Q 2922 463 2592 192 
Q 2263 -78 1759 -78 
Q 1097 -78 719 397 
Q 266 969 266 2259 
z
M 844 2259 
Q 844 1131 1108 757 
Q 1372 384 1759 384 
Q 2147 384 2411 759 
Q 2675 1134 2675 2259 
Q 2675 3391 2411 3762 
Q 2147 4134 1753 4134 
Q 1366 4134 1134 3806 
Q 844 3388 844 2259 
z
" transform="scale(0.015625)"/>
       </defs>
       <use xlink:href="#ArialMT-30"/>
      </g>
     </g>
    </g>
    <g id="ytick_2">
     <g id="line2d_20">
      <g>
       <use xlink:href="#m4e989be42a" x="68.42" y="259.312932" style="stroke: #000000; stroke-width: 0.8"/>
      </g>
     </g>
     <g id="text_5">
      <!-- 2500 -->
      <g transform="translate(39.17625 262.891838) scale(0.1 -0.1)">
       <defs>
        <path id="ArialMT-32" d="M 3222 541 
L 3222 0 
L 194 0 
Q 188 203 259 391 
Q 375 700 629 1000 
Q 884 1300 1366 1694 
Q 2113 2306 2375 2664 
Q 2638 3022 2638 3341 
Q 2638 3675 2398 3904 
Q 2159 4134 1775 4134 
Q 1369 4134 1125 3890 
Q 881 3647 878 3216 
L 300 3275 
Q 359 3922 746 4261 
Q 1134 4600 1788 4600 
Q 2447 4600 2831 4234 
Q 3216 3869 3216 3328 
Q 3216 3053 3103 2787 
Q 2991 2522 2730 2228 
Q 2469 1934 1863 1422 
Q 1356 997 1212 845 
Q 1069 694 975 541 
L 3222 541 
z
" transform="scale(0.015625)"/>
        <path id="ArialMT-35" d="M 266 1200 
L 856 1250 
Q 922 819 1161 601 
Q 1400 384 1738 384 
Q 2144 384 2425 690 
Q 2706 997 2706 1503 
Q 2706 1984 2436 2262 
Q 2166 2541 1728 2541 
Q 1456 2541 1237 2417 
Q 1019 2294 894 2097 
L 366 2166 
L 809 4519 
L 3088 4519 
L 3088 3981 
L 1259 3981 
L 1013 2750 
Q 1425 3038 1878 3038 
Q 2478 3038 2890 2622 
Q 3303 2206 3303 1553 
Q 3303 931 2941 478 
Q 2500 -78 1738 -78 
Q 1113 -78 717 272 
Q 322 622 266 1200 
z
" transform="scale(0.015625)"/>
       </defs>
       <use xlink:href="#ArialMT-32"/>
       <use xlink:href="#ArialMT-35" x="55.615234"/>
       <use xlink:href="#ArialMT-30" x="111.230469"/>
       <use xlink:href="#ArialMT-30" x="166.845703"/>
      </g>
     </g>
    </g>
    <g id="ytick_3">
     <g id="line2d_21">
      <g>
       <use xlink:href="#m4e989be42a" x="68.42" y="221.069495" style="stroke: #000000; stroke-width: 0.8"/>
      </g>
     </g>
     <g id="text_6">
      <!-- 5000 -->
      <g transform="translate(39.17625 224.648401) scale(0.1 -0.1)">
       <use xlink:href="#ArialMT-35"/>
       <use xlink:href="#ArialMT-30" x="55.615234"/>
       <use xlink:href="#ArialMT-30" x="111.230469"/>
       <use xlink:href="#ArialMT-30" x="166.845703"/>
      </g>
     </g>
    </g>
    <g id="ytick_4">
     <g id="line2d_22">
      <g>
       <use xlink:href="#m4e989be42a" x="68.42" y="182.826058" style="stroke: #000000; stroke-width: 0.8"/>
      </g>
     </g>
     <g id="text_7">
      <!-- 7500 -->
      <g transform="translate(39.17625 186.404964) scale(0.1 -0.1)">
       <defs>
        <path id="ArialMT-37" d="M 303 3981 
L 303 4522 
L 3269 4522 
L 3269 4084 
Q 2831 3619 2401 2847 
Q 1972 2075 1738 1259 
Q 1569 684 1522 0 
L 944 0 
Q 953 541 1156 1306 
Q 1359 2072 1739 2783 
Q 2119 3494 2547 3981 
L 303 3981 
z
" transform="scale(0.015625)"/>
       </defs>
       <use xlink:href="#ArialMT-37"/>
       <use xlink:href="#ArialMT-35" x="55.615234"/>
       <use xlink:href="#ArialMT-30" x="111.230469"/>
       <use xlink:href="#ArialMT-30" x="166.845703"/>
      </g>
     </g>
    </g>
    <g id="ytick_5">
     <g id="line2d_23">
      <g>
       <use xlink:href="#m4e989be42a" x="68.42" y="144.582621" style="stroke: #000000; stroke-width: 0.8"/>
      </g>
     </g>
     <g id="text_8">
      <!-- 10000 -->
      <g transform="translate(33.615313 148.161527) scale(0.1 -0.1)">
       <defs>
        <path id="ArialMT-31" d="M 2384 0 
L 1822 0 
L 1822 3584 
Q 1619 3391 1289 3197 
Q 959 3003 697 2906 
L 697 3450 
Q 1169 3672 1522 3987 
Q 1875 4303 2022 4600 
L 2384 4600 
L 2384 0 
z
" transform="scale(0.015625)"/>
       </defs>
       <use xlink:href="#ArialMT-31"/>
       <use xlink:href="#ArialMT-30" x="55.615234"/>
       <use xlink:href="#ArialMT-30" x="111.230469"/>
       <use xlink:href="#ArialMT-30" x="166.845703"/>
       <use xlink:href="#ArialMT-30" x="222.460938"/>
      </g>
     </g>
    </g>
    <g id="ytick_6">
     <g id="line2d_24">
      <g>
       <use xlink:href="#m4e989be42a" x="68.42" y="106.339183" style="stroke: #000000; stroke-width: 0.8"/>
      </g>
     </g>
     <g id="text_9">
      <!-- 12500 -->
      <g transform="translate(33.615313 109.91809) scale(0.1 -0.1)">
       <use xlink:href="#ArialMT-31"/>
       <use xlink:href="#ArialMT-32" x="55.615234"/>
       <use xlink:href="#ArialMT-35" x="111.230469"/>
       <use xlink:href="#ArialMT-30" x="166.845703"/>
       <use xlink:href="#ArialMT-30" x="222.460938"/>
      </g>
     </g>
    </g>
    <g id="ytick_7">
     <g id="line2d_25">
      <g>
       <use xlink:href="#m4e989be42a" x="68.42" y="68.095746" style="stroke: #000000; stroke-width: 0.8"/>
      </g>
     </g>
     <g id="text_10">
      <!-- 15000 -->
      <g transform="translate(33.615313 71.674653) scale(0.1 -0.1)">
       <use xlink:href="#ArialMT-31"/>
       <use xlink:href="#ArialMT-35" x="55.615234"/>
       <use xlink:href="#ArialMT-30" x="111.230469"/>
       <use xlink:href="#ArialMT-30" x="166.845703"/>
       <use xlink:href="#ArialMT-30" x="222.460938"/>
      </g>
     </g>
    </g>
    <g id="ytick_8">
     <g id="line2d_26">
      <g>
       <use xlink:href="#m4e989be42a" x="68.42" y="29.852309" style="stroke: #000000; stroke-width: 0.8"/>
      </g>
     </g>
     <g id="text_11">
      <!-- 17500 -->
      <g transform="translate(33.615313 33.431215) scale(0.1 -0.1)">
       <use xlink:href="#ArialMT-31"/>
       <use xlink:href="#ArialMT-37" x="55.615234"/>
       <use xlink:href="#ArialMT-35" x="111.230469"/>
       <use xlink:href="#ArialMT-30" x="166.845703"/>
       <use xlink:href="#ArialMT-30" x="222.460938"/>
      </g>
     </g>
    </g>
    <g id="text_12">
     <!-- Total interactions -->
     <g transform="translate(25.640313 234.969688) rotate(-90) scale(0.2 -0.2)">
      <defs>
       <path id="ArialMT-54" d="M 1659 0 
L 1659 4041 
L 150 4041 
L 150 4581 
L 3781 4581 
L 3781 4041 
L 2266 4041 
L 2266 0 
L 1659 0 
z
" transform="scale(0.015625)"/>
       <path id="ArialMT-6c" d="M 409 0 
L 409 4581 
L 972 4581 
L 972 0 
L 409 0 
z
" transform="scale(0.015625)"/>
       <path id="ArialMT-20" transform="scale(0.015625)"/>
       <path id="ArialMT-69" d="M 425 3934 
L 425 4581 
L 988 4581 
L 988 3934 
L 425 3934 
z
M 425 0 
L 425 3319 
L 988 3319 
L 988 0 
L 425 0 
z
" transform="scale(0.015625)"/>
       <path id="ArialMT-63" d="M 2588 1216 
L 3141 1144 
Q 3050 572 2676 248 
Q 2303 -75 1759 -75 
Q 1078 -75 664 370 
Q 250 816 250 1647 
Q 250 2184 428 2587 
Q 606 2991 970 3192 
Q 1334 3394 1763 3394 
Q 2303 3394 2647 3120 
Q 2991 2847 3088 2344 
L 2541 2259 
Q 2463 2594 2264 2762 
Q 2066 2931 1784 2931 
Q 1359 2931 1093 2626 
Q 828 2322 828 1663 
Q 828 994 1084 691 
Q 1341 388 1753 388 
Q 2084 388 2306 591 
Q 2528 794 2588 1216 
z
" transform="scale(0.015625)"/>
      </defs>
      <use xlink:href="#ArialMT-54"/>
      <use xlink:href="#ArialMT-6f" x="49.958984"/>
      <use xlink:href="#ArialMT-74" x="105.574219"/>
      <use xlink:href="#ArialMT-61" x="133.357422"/>
      <use xlink:href="#ArialMT-6c" x="188.972656"/>
      <use xlink:href="#ArialMT-20" x="211.189453"/>
      <use xlink:href="#ArialMT-69" x="238.972656"/>
      <use xlink:href="#ArialMT-6e" x="261.189453"/>
      <use xlink:href="#ArialMT-74" x="316.804688"/>
      <use xlink:href="#ArialMT-65" x="344.587891"/>
      <use xlink:href="#ArialMT-72" x="400.203125"/>
      <use xlink:href="#ArialMT-61" x="433.503906"/>
      <use xlink:href="#ArialMT-63" x="489.119141"/>
      <use xlink:href="#ArialMT-74" x="539.119141"/>
      <use xlink:href="#ArialMT-69" x="566.902344"/>
      <use xlink:href="#ArialMT-6f" x="589.119141"/>
      <use xlink:href="#ArialMT-6e" x="644.734375"/>
      <use xlink:href="#ArialMT-73" x="700.349609"/>
     </g>
    </g>
   </g>
   <g id="line2d_27">
    <path d="M 132.016667 99.114509 
L 132.016667 95.682451 
L 386.403333 95.682451 
L 386.403333 99.114509 
" clip-path="url(#p8eab651ba4)" style="fill: none; stroke: #000000; stroke-linecap: square"/>
   </g>
   <g id="line2d_28">
    <path d="M 132.016667 59.311686 
L 132.016667 54.91522 
L 259.21 54.91522 
L 259.21 59.311686 
" clip-path="url(#p8eab651ba4)" style="fill: none; stroke: #000000; stroke-linecap: square"/>
   </g>
   <g id="line2d_29">
    <path d="M 259.21 29.651527 
L 259.21 24.358182 
L 386.403333 24.358182 
L 386.403333 29.651527 
" clip-path="url(#p8eab651ba4)" style="fill: none; stroke: #000000; stroke-linecap: square"/>
   </g>
   <g id="patch_6">
    <path d="M 68.42 309.08 
L 68.42 10.8 
" style="fill: none; stroke: #000000; stroke-width: 0.8; stroke-linejoin: miter; stroke-linecap: square"/>
   </g>
   <g id="patch_7">
    <path d="M 450 309.08 
L 450 10.8 
" style="fill: none; stroke: #000000; stroke-width: 0.8; stroke-linejoin: miter; stroke-linecap: square"/>
   </g>
   <g id="patch_8">
    <path d="M 68.42 309.08 
L 450 309.08 
" style="fill: none; stroke: #000000; stroke-width: 0.8; stroke-linejoin: miter; stroke-linecap: square"/>
   </g>
   <g id="patch_9">
    <path d="M 68.42 10.8 
L 450 10.8 
" style="fill: none; stroke: #000000; stroke-width: 0.8; stroke-linejoin: miter; stroke-linecap: square"/>
   </g>
   <g id="text_13">
    <!-- *** -->
    <g transform="translate(247.533438 96.855538) scale(0.2 -0.2)">
     <defs>
      <path id="ArialMT-2a" d="M 200 3741 
L 344 4184 
Q 841 4009 1066 3881 
Q 1006 4447 1003 4659 
L 1456 4659 
Q 1447 4350 1384 3884 
Q 1706 4047 2122 4184 
L 2266 3741 
Q 1869 3609 1488 3566 
Q 1678 3400 2025 2975 
L 1650 2709 
Q 1469 2956 1222 3381 
Q 991 2941 816 2709 
L 447 2975 
Q 809 3422 966 3566 
Q 563 3644 200 3741 
z
" transform="scale(0.015625)"/>
     </defs>
     <use xlink:href="#ArialMT-2a"/>
     <use xlink:href="#ArialMT-2a" x="38.916016"/>
     <use xlink:href="#ArialMT-2a" x="77.832031"/>
    </g>
   </g>
   <g id="text_14">
    <!-- *** -->
    <g transform="translate(183.936771 57.534919) scale(0.2 -0.2)">
     <use xlink:href="#ArialMT-2a"/>
     <use xlink:href="#ArialMT-2a" x="38.916016"/>
     <use xlink:href="#ArialMT-2a" x="77.832031"/>
    </g>
   </g>
   <g id="text_15">
    <!-- p = 0.197 -->
    <g transform="translate(301.816823 19.724009) scale(0.1 -0.1)">
     <defs>
      <path id="ArialMT-70" d="M 422 -1272 
L 422 3319 
L 934 3319 
L 934 2888 
Q 1116 3141 1344 3267 
Q 1572 3394 1897 3394 
Q 2322 3394 2647 3175 
Q 2972 2956 3137 2557 
Q 3303 2159 3303 1684 
Q 3303 1175 3120 767 
Q 2938 359 2589 142 
Q 2241 -75 1856 -75 
Q 1575 -75 1351 44 
Q 1128 163 984 344 
L 984 -1272 
L 422 -1272 
z
M 931 1641 
Q 931 1000 1190 694 
Q 1450 388 1819 388 
Q 2194 388 2461 705 
Q 2728 1022 2728 1688 
Q 2728 2322 2467 2637 
Q 2206 2953 1844 2953 
Q 1484 2953 1207 2617 
Q 931 2281 931 1641 
z
" transform="scale(0.015625)"/>
      <path id="ArialMT-3d" d="M 3381 2694 
L 356 2694 
L 356 3219 
L 3381 3219 
L 3381 2694 
z
M 3381 1303 
L 356 1303 
L 356 1828 
L 3381 1828 
L 3381 1303 
z
" transform="scale(0.015625)"/>
      <path id="ArialMT-2e" d="M 581 0 
L 581 641 
L 1222 641 
L 1222 0 
L 581 0 
z
" transform="scale(0.015625)"/>
      <path id="ArialMT-39" d="M 350 1059 
L 891 1109 
Q 959 728 1153 556 
Q 1347 384 1650 384 
Q 1909 384 2104 503 
Q 2300 622 2425 820 
Q 2550 1019 2634 1356 
Q 2719 1694 2719 2044 
Q 2719 2081 2716 2156 
Q 2547 1888 2255 1720 
Q 1963 1553 1622 1553 
Q 1053 1553 659 1965 
Q 266 2378 266 3053 
Q 266 3750 677 4175 
Q 1088 4600 1706 4600 
Q 2153 4600 2523 4359 
Q 2894 4119 3086 3673 
Q 3278 3228 3278 2384 
Q 3278 1506 3087 986 
Q 2897 466 2520 194 
Q 2144 -78 1638 -78 
Q 1100 -78 759 220 
Q 419 519 350 1059 
z
M 2653 3081 
Q 2653 3566 2395 3850 
Q 2138 4134 1775 4134 
Q 1400 4134 1122 3828 
Q 844 3522 844 3034 
Q 844 2597 1108 2323 
Q 1372 2050 1759 2050 
Q 2150 2050 2401 2323 
Q 2653 2597 2653 3081 
z
" transform="scale(0.015625)"/>
     </defs>
     <use xlink:href="#ArialMT-70"/>
     <use xlink:href="#ArialMT-20" x="55.615234"/>
     <use xlink:href="#ArialMT-3d" x="83.398438"/>
     <use xlink:href="#ArialMT-20" x="141.796875"/>
     <use xlink:href="#ArialMT-30" x="169.580078"/>
     <use xlink:href="#ArialMT-2e" x="225.195312"/>
     <use xlink:href="#ArialMT-31" x="252.978516"/>
     <use xlink:href="#ArialMT-39" x="308.59375"/>
     <use xlink:href="#ArialMT-37" x="364.208984"/>
    </g>
   </g>
  </g>
 </g>
 <defs>
  <clipPath id="p8eab651ba4">
   <rect x="68.42" y="10.8" width="381.58" height="298.28"/>
  </clipPath>
 </defs>
</svg>
