<?xml version="1.0" encoding="utf-8" standalone="no"?>
<!DOCTYPE svg PUBLIC "-//W3C//DTD SVG 1.1//EN"
  "http://www.w3.org/Graphics/SVG/1.1/DTD/svg11.dtd">
<svg xmlns:xlink="http://www.w3.org/1999/xlink" width="460.8pt" height="345.6pt" viewBox="0 0 460.8 345.6" xmlns="http://www.w3.org/2000/svg" version="1.1">
 <metadata>
  <rdf:RDF xmlns:dc="http://purl.org/dc/elements/1.1/" xmlns:cc="http://creativecommons.org/ns#" xmlns:rdf="http://www.w3.org/1999/02/22-rdf-syntax-ns#">
   <cc:Work>
    <dc:type rdf:resource="http://purl.org/dc/dcmitype/StillImage"/>
    <dc:date>2025-07-07T15:51:40.274846</dc:date>
    <dc:format>image/svg+xml</dc:format>
    <dc:creator>
     <cc:Agent>
      <dc:title>Matplotlib v3.9.2, https://matplotlib.org/</dc:title>
     </cc:Agent>
    </dc:creator>
   </cc:Work>
  </rdf:RDF>
 </metadata>
 <defs>
  <style type="text/css">*{stroke-linejoin: round; stroke-linecap: butt}</style>
 </defs>
 <g id="figure_1">
  <g id="patch_1">
   <path d="M 0 345.6 
L 460.8 345.6 
L 460.8 0 
L 0 0 
z
" style="fill: #ffffff"/>
  </g>
  <g id="axes_1">
   <g id="patch_2">
    <path d="M 62.93 309.08 
L 450 309.08 
L 450 10.8 
L 62.93 10.8 
z
" style="fill: #ffffff"/>
   </g>
   <g id="patch_3">
    <path d="M 101.637 229.956398 
L 153.246333 229.956398 
L 153.246333 186.648614 
L 101.637 186.648614 
L 101.637 229.956398 
z
" clip-path="url(#p4059561753)" style="fill: #6495ed; stroke: #000000; stroke-linejoin: miter"/>
   </g>
   <g id="line2d_1">
    <path d="M 127.441667 229.956398 
L 127.441667 268.235051 
" clip-path="url(#p4059561753)" style="fill: none; stroke: #000000; stroke-linecap: square"/>
   </g>
   <g id="line2d_2">
    <path d="M 127.441667 186.648614 
L 127.441667 139.519189 
" clip-path="url(#p4059561753)" style="fill: none; stroke: #000000; stroke-linecap: square"/>
   </g>
   <g id="line2d_3">
    <path d="M 114.539333 268.235051 
L 140.344 268.235051 
" clip-path="url(#p4059561753)" style="fill: none; stroke: #000000; stroke-linecap: square"/>
   </g>
   <g id="line2d_4">
    <path d="M 114.539333 139.519189 
L 140.344 139.519189 
" clip-path="url(#p4059561753)" style="fill: none; stroke: #000000; stroke-linecap: square"/>
   </g>
   <g id="patch_4">
    <path d="M 230.660333 284.91583 
L 282.269667 284.91583 
L 282.269667 252.69952 
L 230.660333 252.69952 
L 230.660333 284.91583 
z
" clip-path="url(#p4059561753)" style="fill: #a9a9a9; stroke: #000000; stroke-linejoin: miter"/>
   </g>
   <g id="line2d_5">
    <path d="M 256.465 284.91583 
L 256.465 295.521818 
" clip-path="url(#p4059561753)" style="fill: none; stroke: #000000; stroke-linecap: square"/>
   </g>
   <g id="line2d_6">
    <path d="M 256.465 252.69952 
L 256.465 219.985276 
" clip-path="url(#p4059561753)" style="fill: none; stroke: #000000; stroke-linecap: square"/>
   </g>
   <g id="line2d_7">
    <path d="M 243.562667 295.521818 
L 269.367333 295.521818 
" clip-path="url(#p4059561753)" style="fill: none; stroke: #000000; stroke-linecap: square"/>
   </g>
   <g id="line2d_8">
    <path d="M 243.562667 219.985276 
L 269.367333 219.985276 
" clip-path="url(#p4059561753)" style="fill: none; stroke: #000000; stroke-linecap: square"/>
   </g>
   <g id="patch_5">
    <path d="M 359.683667 277.720688 
L 411.293 277.720688 
L 411.293 246.525142 
L 359.683667 246.525142 
L 359.683667 277.720688 
z
" clip-path="url(#p4059561753)" style="fill: #b22222; stroke: #000000; stroke-linejoin: miter"/>
   </g>
   <g id="line2d_9">
    <path d="M 385.488333 277.720688 
L 385.488333 294.028017 
" clip-path="url(#p4059561753)" style="fill: none; stroke: #000000; stroke-linecap: square"/>
   </g>
   <g id="line2d_10">
    <path d="M 385.488333 246.525142 
L 385.488333 208.931147 
" clip-path="url(#p4059561753)" style="fill: none; stroke: #000000; stroke-linecap: square"/>
   </g>
   <g id="line2d_11">
    <path d="M 372.586 294.028017 
L 398.390667 294.028017 
" clip-path="url(#p4059561753)" style="fill: none; stroke: #000000; stroke-linecap: square"/>
   </g>
   <g id="line2d_12">
    <path d="M 372.586 208.931147 
L 398.390667 208.931147 
" clip-path="url(#p4059561753)" style="fill: none; stroke: #000000; stroke-linecap: square"/>
   </g>
   <g id="PathCollection_1">
    <defs>
     <path id="mafd9651781" d="M 0 3.162278 
C 0.838646 3.162278 1.643056 2.82908 2.236068 2.236068 
C 2.82908 1.643056 3.162278 0.838646 3.162278 0 
C 3.162278 -0.838646 2.82908 -1.643056 2.236068 -2.236068 
C 1.643056 -2.82908 0.838646 -3.162278 0 -3.162278 
C -0.838646 -3.162278 -1.643056 -2.82908 -2.236068 -2.236068 
C -2.82908 -1.643056 -3.162278 -0.838646 -3.162278 0 
C -3.162278 0.838646 -2.82908 1.643056 -2.236068 2.236068 
C -1.643056 2.82908 -0.838646 3.162278 0 3.162278 
z
" style="stroke: #4169e1"/>
    </defs>
    <g clip-path="url(#p4059561753)">
     <use xlink:href="#mafd9651781" x="135.088052" y="226.25924" style="fill: #4169e1; stroke: #4169e1"/>
     <use xlink:href="#mafd9651781" x="130.065323" y="228.499942" style="fill: #4169e1; stroke: #4169e1"/>
     <use xlink:href="#mafd9651781" x="135.222854" y="210.076395" style="fill: #4169e1; stroke: #4169e1"/>
     <use xlink:href="#mafd9651781" x="128.915074" y="215.603459" style="fill: #4169e1; stroke: #4169e1"/>
     <use xlink:href="#mafd9651781" x="120.171967" y="237.163988" style="fill: #4169e1; stroke: #4169e1"/>
     <use xlink:href="#mafd9651781" x="138.524841" y="121.294816" style="fill: #4169e1; stroke: #4169e1"/>
     <use xlink:href="#mafd9651781" x="123.844626" y="139.519189" style="fill: #4169e1; stroke: #4169e1"/>
     <use xlink:href="#mafd9651781" x="124.458475" y="194.540863" style="fill: #4169e1; stroke: #4169e1"/>
     <use xlink:href="#mafd9651781" x="121.513331" y="244.13506" style="fill: #4169e1; stroke: #4169e1"/>
     <use xlink:href="#mafd9651781" x="131.283102" y="230.441883" style="fill: #4169e1; stroke: #4169e1"/>
     <use xlink:href="#mafd9651781" x="124.530276" y="206.889619" style="fill: #4169e1; stroke: #4169e1"/>
     <use xlink:href="#mafd9651781" x="126.845213" y="268.235051" style="fill: #4169e1; stroke: #4169e1"/>
     <use xlink:href="#mafd9651781" x="128.170799" y="231.039404" style="fill: #4169e1; stroke: #4169e1"/>
     <use xlink:href="#mafd9651781" x="124.480001" y="213.711311" style="fill: #4169e1; stroke: #4169e1"/>
     <use xlink:href="#mafd9651781" x="121.441351" y="223.570398" style="fill: #4169e1; stroke: #4169e1"/>
     <use xlink:href="#mafd9651781" x="124.531031" y="168.449138" style="fill: #4169e1; stroke: #4169e1"/>
     <use xlink:href="#mafd9651781" x="120.07217" y="158.540257" style="fill: #4169e1; stroke: #4169e1"/>
     <use xlink:href="#mafd9651781" x="132.461399" y="190.607187" style="fill: #4169e1; stroke: #4169e1"/>
     <use xlink:href="#mafd9651781" x="126.847287" y="223.570398" style="fill: #4169e1; stroke: #4169e1"/>
     <use xlink:href="#mafd9651781" x="137.672771" y="245.628861" style="fill: #4169e1; stroke: #4169e1"/>
     <use xlink:href="#mafd9651781" x="129.85647" y="231.935684" style="fill: #4169e1; stroke: #4169e1"/>
     <use xlink:href="#mafd9651781" x="133.840339" y="157.84315" style="fill: #4169e1; stroke: #4169e1"/>
     <use xlink:href="#mafd9651781" x="126.226894" y="153.909473" style="fill: #4169e1; stroke: #4169e1"/>
     <use xlink:href="#mafd9651781" x="133.281023" y="185.32909" style="fill: #4169e1; stroke: #4169e1"/>
     <use xlink:href="#mafd9651781" x="132.628961" y="204.250571" style="fill: #4169e1; stroke: #4169e1"/>
     <use xlink:href="#mafd9651781" x="130.955446" y="194.740037" style="fill: #4169e1; stroke: #4169e1"/>
    </g>
   </g>
   <g id="PathCollection_2">
    <defs>
     <path id="me159368fcc" d="M 0 3.162278 
C 0.838646 3.162278 1.643056 2.82908 2.236068 2.236068 
C 2.82908 1.643056 3.162278 0.838646 3.162278 0 
C 3.162278 -0.838646 2.82908 -1.643056 2.236068 -2.236068 
C 1.643056 -2.82908 0.838646 -3.162278 0 -3.162278 
C -0.838646 -3.162278 -1.643056 -2.82908 -2.236068 -2.236068 
C -2.82908 -1.643056 -3.162278 -0.838646 -3.162278 0 
C -3.162278 0.838646 -2.82908 1.643056 -2.236068 2.236068 
C -1.643056 2.82908 -0.838646 3.162278 0 3.162278 
z
" style="stroke: #808080"/>
    </defs>
    <g clip-path="url(#p4059561753)">
     <use xlink:href="#me159368fcc" x="252.204668" y="271.670794" style="fill: #808080; stroke: #808080"/>
     <use xlink:href="#me159368fcc" x="268.435599" y="241.396425" style="fill: #808080; stroke: #808080"/>
     <use xlink:href="#me159368fcc" x="253.859091" y="255.139395" style="fill: #808080; stroke: #808080"/>
     <use xlink:href="#me159368fcc" x="258.007005" y="274.658396" style="fill: #808080; stroke: #808080"/>
     <use xlink:href="#me159368fcc" x="255.16331" y="278.741452" style="fill: #808080; stroke: #808080"/>
     <use xlink:href="#me159368fcc" x="256.624356" y="261.114599" style="fill: #808080; stroke: #808080"/>
     <use xlink:href="#me159368fcc" x="258.802853" y="266.492283" style="fill: #808080; stroke: #808080"/>
     <use xlink:href="#me159368fcc" x="257.926912" y="259.172658" style="fill: #808080; stroke: #808080"/>
     <use xlink:href="#me159368fcc" x="266.679283" y="284.965624" style="fill: #808080; stroke: #808080"/>
     <use xlink:href="#me159368fcc" x="251.781258" y="253.944354" style="fill: #808080; stroke: #808080"/>
     <use xlink:href="#me159368fcc" x="260.841919" y="289.397234" style="fill: #808080; stroke: #808080"/>
     <use xlink:href="#me159368fcc" x="254.474592" y="259.222451" style="fill: #808080; stroke: #808080"/>
     <use xlink:href="#me159368fcc" x="252.735035" y="283.372236" style="fill: #808080; stroke: #808080"/>
     <use xlink:href="#me159368fcc" x="250.796954" y="267.886498" style="fill: #808080; stroke: #808080"/>
     <use xlink:href="#me159368fcc" x="256.527299" y="282.575542" style="fill: #808080; stroke: #808080"/>
     <use xlink:href="#me159368fcc" x="258.892081" y="184.980536" style="fill: #808080; stroke: #808080"/>
     <use xlink:href="#me159368fcc" x="258.069935" y="219.985276" style="fill: #808080; stroke: #808080"/>
     <use xlink:href="#me159368fcc" x="242.586118" y="259.322038" style="fill: #808080; stroke: #808080"/>
     <use xlink:href="#me159368fcc" x="260.785161" y="286.260251" style="fill: #808080; stroke: #808080"/>
     <use xlink:href="#me159368fcc" x="262.019012" y="239.504277" style="fill: #808080; stroke: #808080"/>
     <use xlink:href="#me159368fcc" x="261.08944" y="272.766248" style="fill: #808080; stroke: #808080"/>
     <use xlink:href="#me159368fcc" x="240.436022" y="288.052813" style="fill: #808080; stroke: #808080"/>
     <use xlink:href="#me159368fcc" x="262.219859" y="268.035878" style="fill: #808080; stroke: #808080"/>
     <use xlink:href="#me159368fcc" x="248.699908" y="265.098069" style="fill: #808080; stroke: #808080"/>
     <use xlink:href="#me159368fcc" x="254.706907" y="265.247449" style="fill: #808080; stroke: #808080"/>
     <use xlink:href="#me159368fcc" x="253.384567" y="249.861298" style="fill: #808080; stroke: #808080"/>
     <use xlink:href="#me159368fcc" x="260.609476" y="185.827024" style="fill: #808080; stroke: #808080"/>
     <use xlink:href="#me159368fcc" x="258.622406" y="237.363162" style="fill: #808080; stroke: #808080"/>
     <use xlink:href="#me159368fcc" x="256.164093" y="222.923084" style="fill: #808080; stroke: #808080"/>
     <use xlink:href="#me159368fcc" x="257.31531" y="278.094139" style="fill: #808080; stroke: #808080"/>
     <use xlink:href="#me159368fcc" x="247.015326" y="233.180519" style="fill: #808080; stroke: #808080"/>
     <use xlink:href="#me159368fcc" x="257.628991" y="269.928026" style="fill: #808080; stroke: #808080"/>
     <use xlink:href="#me159368fcc" x="259.26135" y="261.761913" style="fill: #808080; stroke: #808080"/>
     <use xlink:href="#me159368fcc" x="263.389841" y="294.177397" style="fill: #808080; stroke: #808080"/>
     <use xlink:href="#me159368fcc" x="263.358118" y="294.974091" style="fill: #808080; stroke: #808080"/>
     <use xlink:href="#me159368fcc" x="250.293642" y="272.816041" style="fill: #808080; stroke: #808080"/>
     <use xlink:href="#me159368fcc" x="258.28391" y="295.521818" style="fill: #808080; stroke: #808080"/>
     <use xlink:href="#me159368fcc" x="255.67407" y="284.91583" style="fill: #808080; stroke: #808080"/>
     <use xlink:href="#me159368fcc" x="249.312392" y="287.206325" style="fill: #808080; stroke: #808080"/>
     <use xlink:href="#me159368fcc" x="260.820267" y="281.629468" style="fill: #808080; stroke: #808080"/>
     <use xlink:href="#me159368fcc" x="255.861042" y="253.29704" style="fill: #808080; stroke: #808080"/>
     <use xlink:href="#me159368fcc" x="262.583058" y="272.517281" style="fill: #808080; stroke: #808080"/>
     <use xlink:href="#me159368fcc" x="253.5944" y="269.828439" style="fill: #808080; stroke: #808080"/>
     <use xlink:href="#me159368fcc" x="270.845773" y="255.736915" style="fill: #808080; stroke: #808080"/>
     <use xlink:href="#me159368fcc" x="258.511075" y="254.442288" style="fill: #808080; stroke: #808080"/>
     <use xlink:href="#me159368fcc" x="254.437169" y="222.723911" style="fill: #808080; stroke: #808080"/>
     <use xlink:href="#me159368fcc" x="256.715515" y="244.931754" style="fill: #808080; stroke: #808080"/>
     <use xlink:href="#me159368fcc" x="255.736446" y="252.69952" style="fill: #808080; stroke: #808080"/>
     <use xlink:href="#me159368fcc" x="259.119681" y="285.762318" style="fill: #808080; stroke: #808080"/>
     <use xlink:href="#me159368fcc" x="258.080523" y="200.167514" style="fill: #808080; stroke: #808080"/>
     <use xlink:href="#me159368fcc" x="249.025762" y="167.45327" style="fill: #808080; stroke: #808080"/>
     <use xlink:href="#me159368fcc" x="256.967684" y="182.042728" style="fill: #808080; stroke: #808080"/>
     <use xlink:href="#me159368fcc" x="258.402245" y="247.122662" style="fill: #808080; stroke: #808080"/>
     <use xlink:href="#me159368fcc" x="257.268056" y="253.645594" style="fill: #808080; stroke: #808080"/>
     <use xlink:href="#me159368fcc" x="253.42712" y="278.492486" style="fill: #808080; stroke: #808080"/>
     <use xlink:href="#me159368fcc" x="255.289288" y="262.757781" style="fill: #808080; stroke: #808080"/>
     <use xlink:href="#me159368fcc" x="269.412587" y="236.666055" style="fill: #808080; stroke: #808080"/>
     <use xlink:href="#me159368fcc" x="257.459017" y="181.694174" style="fill: #808080; stroke: #808080"/>
     <use xlink:href="#me159368fcc" x="264.98936" y="257.529477" style="fill: #808080; stroke: #808080"/>
     <use xlink:href="#me159368fcc" x="261.993243" y="274.459223" style="fill: #808080; stroke: #808080"/>
     <use xlink:href="#me159368fcc" x="247.427687" y="247.521009" style="fill: #808080; stroke: #808080"/>
     <use xlink:href="#me159368fcc" x="252.421588" y="266.44249" style="fill: #808080; stroke: #808080"/>
     <use xlink:href="#me159368fcc" x="251.996364" y="264.600135" style="fill: #808080; stroke: #808080"/>
     <use xlink:href="#me159368fcc" x="257.130567" y="199.121854" style="fill: #808080; stroke: #808080"/>
     <use xlink:href="#me159368fcc" x="247.58081" y="250.359231" style="fill: #808080; stroke: #808080"/>
     <use xlink:href="#me159368fcc" x="255.317626" y="233.379692" style="fill: #808080; stroke: #808080"/>
     <use xlink:href="#me159368fcc" x="260.852604" y="238.259442" style="fill: #808080; stroke: #808080"/>
     <use xlink:href="#me159368fcc" x="269.688722" y="275.056743" style="fill: #808080; stroke: #808080"/>
     <use xlink:href="#me159368fcc" x="261.493631" y="254.292908" style="fill: #808080; stroke: #808080"/>
     <use xlink:href="#me159368fcc" x="262.023228" y="293.231323" style="fill: #808080; stroke: #808080"/>
     <use xlink:href="#me159368fcc" x="247.297329" y="291.488555" style="fill: #808080; stroke: #808080"/>
     <use xlink:href="#me159368fcc" x="263.298869" y="291.488555" style="fill: #808080; stroke: #808080"/>
     <use xlink:href="#me159368fcc" x="256.147458" y="291.239588" style="fill: #808080; stroke: #808080"/>
     <use xlink:href="#me159368fcc" x="255.675283" y="289.19806" style="fill: #808080; stroke: #808080"/>
     <use xlink:href="#me159368fcc" x="255.434021" y="292.135869" style="fill: #808080; stroke: #808080"/>
     <use xlink:href="#me159368fcc" x="255.097856" y="288.102606" style="fill: #808080; stroke: #808080"/>
     <use xlink:href="#me159368fcc" x="253.549751" y="293.33091" style="fill: #808080; stroke: #808080"/>
     <use xlink:href="#me159368fcc" x="255.306993" y="290.442894" style="fill: #808080; stroke: #808080"/>
     <use xlink:href="#me159368fcc" x="253.919348" y="293.579877" style="fill: #808080; stroke: #808080"/>
     <use xlink:href="#me159368fcc" x="262.676979" y="292.982356" style="fill: #808080; stroke: #808080"/>
     <use xlink:href="#me159368fcc" x="259.421075" y="290.791448" style="fill: #808080; stroke: #808080"/>
     <use xlink:href="#me159368fcc" x="253.044876" y="290.940828" style="fill: #808080; stroke: #808080"/>
     <use xlink:href="#me159368fcc" x="257.498504" y="287.305912" style="fill: #808080; stroke: #808080"/>
     <use xlink:href="#me159368fcc" x="249.270726" y="244.28444" style="fill: #808080; stroke: #808080"/>
     <use xlink:href="#me159368fcc" x="259.410288" y="255.338568" style="fill: #808080; stroke: #808080"/>
     <use xlink:href="#me159368fcc" x="258.316174" y="272.069141" style="fill: #808080; stroke: #808080"/>
     <use xlink:href="#me159368fcc" x="258.752558" y="255.836502" style="fill: #808080; stroke: #808080"/>
     <use xlink:href="#me159368fcc" x="256.639579" y="278.542279" style="fill: #808080; stroke: #808080"/>
     <use xlink:href="#me159368fcc" x="255.601584" y="267.637531" style="fill: #808080; stroke: #808080"/>
     <use xlink:href="#me159368fcc" x="252.858619" y="262.807574" style="fill: #808080; stroke: #808080"/>
     <use xlink:href="#me159368fcc" x="263.941235" y="269.280712" style="fill: #808080; stroke: #808080"/>
     <use xlink:href="#me159368fcc" x="264.703715" y="278.691659" style="fill: #808080; stroke: #808080"/>
     <use xlink:href="#me159368fcc" x="260.09051" y="271.17286" style="fill: #808080; stroke: #808080"/>
    </g>
   </g>
   <g id="PathCollection_3">
    <defs>
     <path id="m13d686acfc" d="M 0 3.162278 
C 0.838646 3.162278 1.643056 2.82908 2.236068 2.236068 
C 2.82908 1.643056 3.162278 0.838646 3.162278 0 
C 3.162278 -0.838646 2.82908 -1.643056 2.236068 -2.236068 
C 1.643056 -2.82908 0.838646 -3.162278 0 -3.162278 
C -0.838646 -3.162278 -1.643056 -2.82908 -2.236068 -2.236068 
C -2.82908 -1.643056 -3.162278 -0.838646 -3.162278 0 
C -3.162278 0.838646 -2.82908 1.643056 -2.236068 2.236068 
C -1.643056 2.82908 -0.838646 3.162278 0 3.162278 
z
" style="stroke: #8b0000"/>
    </defs>
    <g clip-path="url(#p4059561753)">
     <use xlink:href="#m13d686acfc" x="378.658786" y="233.280105" style="fill: #8b0000; stroke: #8b0000"/>
     <use xlink:href="#m13d686acfc" x="394.70485" y="265.695589" style="fill: #8b0000; stroke: #8b0000"/>
     <use xlink:href="#m13d686acfc" x="401.989329" y="251.703652" style="fill: #8b0000; stroke: #8b0000"/>
     <use xlink:href="#m13d686acfc" x="376.859598" y="274.608603" style="fill: #8b0000; stroke: #8b0000"/>
     <use xlink:href="#m13d686acfc" x="386.491944" y="280.135667" style="fill: #8b0000; stroke: #8b0000"/>
     <use xlink:href="#m13d686acfc" x="392.381718" y="211.719576" style="fill: #8b0000; stroke: #8b0000"/>
     <use xlink:href="#m13d686acfc" x="390.770114" y="277.397031" style="fill: #8b0000; stroke: #8b0000"/>
     <use xlink:href="#m13d686acfc" x="376.760984" y="268.932159" style="fill: #8b0000; stroke: #8b0000"/>
     <use xlink:href="#m13d686acfc" x="389.014017" y="244.28444" style="fill: #8b0000; stroke: #8b0000"/>
     <use xlink:href="#m13d686acfc" x="379.613428" y="170.590252" style="fill: #8b0000; stroke: #8b0000"/>
     <use xlink:href="#m13d686acfc" x="383.16007" y="273.164595" style="fill: #8b0000; stroke: #8b0000"/>
     <use xlink:href="#m13d686acfc" x="379.743653" y="273.911496" style="fill: #8b0000; stroke: #8b0000"/>
     <use xlink:href="#m13d686acfc" x="374.779089" y="253.197454" style="fill: #8b0000; stroke: #8b0000"/>
     <use xlink:href="#m13d686acfc" x="383.407365" y="270.226786" style="fill: #8b0000; stroke: #8b0000"/>
     <use xlink:href="#m13d686acfc" x="388.513043" y="250.857165" style="fill: #8b0000; stroke: #8b0000"/>
     <use xlink:href="#m13d686acfc" x="397.06261" y="208.931147" style="fill: #8b0000; stroke: #8b0000"/>
     <use xlink:href="#m13d686acfc" x="379.698584" y="182.142314" style="fill: #8b0000; stroke: #8b0000"/>
     <use xlink:href="#m13d686acfc" x="382.802941" y="294.028017" style="fill: #8b0000; stroke: #8b0000"/>
     <use xlink:href="#m13d686acfc" x="381.912409" y="290.542481" style="fill: #8b0000; stroke: #8b0000"/>
     <use xlink:href="#m13d686acfc" x="387.812446" y="292.633803" style="fill: #8b0000; stroke: #8b0000"/>
     <use xlink:href="#m13d686acfc" x="385.775596" y="291.239588" style="fill: #8b0000; stroke: #8b0000"/>
     <use xlink:href="#m13d686acfc" x="391.738668" y="290.243721" style="fill: #8b0000; stroke: #8b0000"/>
     <use xlink:href="#m13d686acfc" x="379.114259" y="289.845374" style="fill: #8b0000; stroke: #8b0000"/>
     <use xlink:href="#m13d686acfc" x="392.399773" y="269.031745" style="fill: #8b0000; stroke: #8b0000"/>
     <use xlink:href="#m13d686acfc" x="382.838296" y="180.100786" style="fill: #8b0000; stroke: #8b0000"/>
     <use xlink:href="#m13d686acfc" x="379.700033" y="235.5706" style="fill: #8b0000; stroke: #8b0000"/>
     <use xlink:href="#m13d686acfc" x="393.603326" y="253.944354" style="fill: #8b0000; stroke: #8b0000"/>
     <use xlink:href="#m13d686acfc" x="387.115791" y="278.044345" style="fill: #8b0000; stroke: #8b0000"/>
     <use xlink:href="#m13d686acfc" x="379.981193" y="268.284845" style="fill: #8b0000; stroke: #8b0000"/>
     <use xlink:href="#m13d686acfc" x="381.455799" y="266.691457" style="fill: #8b0000; stroke: #8b0000"/>
     <use xlink:href="#m13d686acfc" x="378.940997" y="248.765844" style="fill: #8b0000; stroke: #8b0000"/>
    </g>
   </g>
   <g id="line2d_13">
    <path d="M 101.637 211.893853 
L 153.246333 211.893853 
" clip-path="url(#p4059561753)" style="fill: none; stroke: #000000"/>
   </g>
   <g id="line2d_14">
    <path d="M 230.660333 267.637531 
L 282.269667 267.637531 
" clip-path="url(#p4059561753)" style="fill: none; stroke: #000000"/>
   </g>
   <g id="line2d_15">
    <path d="M 359.683667 268.284845 
L 411.293 268.284845 
" clip-path="url(#p4059561753)" style="fill: none; stroke: #000000"/>
   </g>
   <g id="matplotlib.axis_1">
    <g id="xtick_1">
     <g id="line2d_16">
      <defs>
       <path id="m066439b7e0" d="M 0 0 
L 0 3.5 
" style="stroke: #000000; stroke-width: 0.8"/>
      </defs>
      <g>
       <use xlink:href="#m066439b7e0" x="127.441667" y="309.08" style="stroke: #000000; stroke-width: 0.8"/>
      </g>
     </g>
     <g id="text_1">
      <!-- RC -->
      <g transform="translate(112.997917 330.395625) scale(0.2 -0.2)">
       <defs>
        <path id="ArialMT-52" d="M 503 0 
L 503 4581 
L 2534 4581 
Q 3147 4581 3465 4457 
Q 3784 4334 3975 4021 
Q 4166 3709 4166 3331 
Q 4166 2844 3850 2509 
Q 3534 2175 2875 2084 
Q 3116 1969 3241 1856 
Q 3506 1613 3744 1247 
L 4541 0 
L 3778 0 
L 3172 953 
Q 2906 1366 2734 1584 
Q 2563 1803 2427 1890 
Q 2291 1978 2150 2013 
Q 2047 2034 1813 2034 
L 1109 2034 
L 1109 0 
L 503 0 
z
M 1109 2559 
L 2413 2559 
Q 2828 2559 3062 2645 
Q 3297 2731 3419 2920 
Q 3541 3109 3541 3331 
Q 3541 3656 3305 3865 
Q 3069 4075 2559 4075 
L 1109 4075 
L 1109 2559 
z
" transform="scale(0.015625)"/>
        <path id="ArialMT-43" d="M 3763 1606 
L 4369 1453 
Q 4178 706 3683 314 
Q 3188 -78 2472 -78 
Q 1731 -78 1267 223 
Q 803 525 561 1097 
Q 319 1669 319 2325 
Q 319 3041 592 3573 
Q 866 4106 1370 4382 
Q 1875 4659 2481 4659 
Q 3169 4659 3637 4309 
Q 4106 3959 4291 3325 
L 3694 3184 
Q 3534 3684 3231 3912 
Q 2928 4141 2469 4141 
Q 1941 4141 1586 3887 
Q 1231 3634 1087 3207 
Q 944 2781 944 2328 
Q 944 1744 1114 1308 
Q 1284 872 1643 656 
Q 2003 441 2422 441 
Q 2931 441 3284 734 
Q 3638 1028 3763 1606 
z
" transform="scale(0.015625)"/>
       </defs>
       <use xlink:href="#ArialMT-52"/>
       <use xlink:href="#ArialMT-43" x="72.216797"/>
      </g>
     </g>
    </g>
    <g id="xtick_2">
     <g id="line2d_17">
      <g>
       <use xlink:href="#m066439b7e0" x="256.465" y="309.08" style="stroke: #000000; stroke-width: 0.8"/>
      </g>
     </g>
     <g id="text_2">
      <!-- Non-members -->
      <g transform="translate(193.119687 330.395625) scale(0.2 -0.2)">
       <defs>
        <path id="ArialMT-4e" d="M 488 0 
L 488 4581 
L 1109 4581 
L 3516 984 
L 3516 4581 
L 4097 4581 
L 4097 0 
L 3475 0 
L 1069 3600 
L 1069 0 
L 488 0 
z
" transform="scale(0.015625)"/>
        <path id="ArialMT-6f" d="M 213 1659 
Q 213 2581 725 3025 
Q 1153 3394 1769 3394 
Q 2453 3394 2887 2945 
Q 3322 2497 3322 1706 
Q 3322 1066 3130 698 
Q 2938 331 2570 128 
Q 2203 -75 1769 -75 
Q 1072 -75 642 372 
Q 213 819 213 1659 
z
M 791 1659 
Q 791 1022 1069 705 
Q 1347 388 1769 388 
Q 2188 388 2466 706 
Q 2744 1025 2744 1678 
Q 2744 2294 2464 2611 
Q 2184 2928 1769 2928 
Q 1347 2928 1069 2612 
Q 791 2297 791 1659 
z
" transform="scale(0.015625)"/>
        <path id="ArialMT-6e" d="M 422 0 
L 422 3319 
L 928 3319 
L 928 2847 
Q 1294 3394 1984 3394 
Q 2284 3394 2536 3286 
Q 2788 3178 2913 3003 
Q 3038 2828 3088 2588 
Q 3119 2431 3119 2041 
L 3119 0 
L 2556 0 
L 2556 2019 
Q 2556 2363 2490 2533 
Q 2425 2703 2258 2804 
Q 2091 2906 1866 2906 
Q 1506 2906 1245 2678 
Q 984 2450 984 1813 
L 984 0 
L 422 0 
z
" transform="scale(0.015625)"/>
        <path id="ArialMT-2d" d="M 203 1375 
L 203 1941 
L 1931 1941 
L 1931 1375 
L 203 1375 
z
" transform="scale(0.015625)"/>
        <path id="ArialMT-6d" d="M 422 0 
L 422 3319 
L 925 3319 
L 925 2853 
Q 1081 3097 1340 3245 
Q 1600 3394 1931 3394 
Q 2300 3394 2536 3241 
Q 2772 3088 2869 2813 
Q 3263 3394 3894 3394 
Q 4388 3394 4653 3120 
Q 4919 2847 4919 2278 
L 4919 0 
L 4359 0 
L 4359 2091 
Q 4359 2428 4304 2576 
Q 4250 2725 4106 2815 
Q 3963 2906 3769 2906 
Q 3419 2906 3187 2673 
Q 2956 2441 2956 1928 
L 2956 0 
L 2394 0 
L 2394 2156 
Q 2394 2531 2256 2718 
Q 2119 2906 1806 2906 
Q 1569 2906 1367 2781 
Q 1166 2656 1075 2415 
Q 984 2175 984 1722 
L 984 0 
L 422 0 
z
" transform="scale(0.015625)"/>
        <path id="ArialMT-65" d="M 2694 1069 
L 3275 997 
Q 3138 488 2766 206 
Q 2394 -75 1816 -75 
Q 1088 -75 661 373 
Q 234 822 234 1631 
Q 234 2469 665 2931 
Q 1097 3394 1784 3394 
Q 2450 3394 2872 2941 
Q 3294 2488 3294 1666 
Q 3294 1616 3291 1516 
L 816 1516 
Q 847 969 1125 678 
Q 1403 388 1819 388 
Q 2128 388 2347 550 
Q 2566 713 2694 1069 
z
M 847 1978 
L 2700 1978 
Q 2663 2397 2488 2606 
Q 2219 2931 1791 2931 
Q 1403 2931 1139 2672 
Q 875 2413 847 1978 
z
" transform="scale(0.015625)"/>
        <path id="ArialMT-62" d="M 941 0 
L 419 0 
L 419 4581 
L 981 4581 
L 981 2947 
Q 1338 3394 1891 3394 
Q 2197 3394 2470 3270 
Q 2744 3147 2920 2923 
Q 3097 2700 3197 2384 
Q 3297 2069 3297 1709 
Q 3297 856 2875 390 
Q 2453 -75 1863 -75 
Q 1275 -75 941 416 
L 941 0 
z
M 934 1684 
Q 934 1088 1097 822 
Q 1363 388 1816 388 
Q 2184 388 2453 708 
Q 2722 1028 2722 1663 
Q 2722 2313 2464 2622 
Q 2206 2931 1841 2931 
Q 1472 2931 1203 2611 
Q 934 2291 934 1684 
z
" transform="scale(0.015625)"/>
        <path id="ArialMT-72" d="M 416 0 
L 416 3319 
L 922 3319 
L 922 2816 
Q 1116 3169 1280 3281 
Q 1444 3394 1641 3394 
Q 1925 3394 2219 3213 
L 2025 2691 
Q 1819 2813 1613 2813 
Q 1428 2813 1281 2702 
Q 1134 2591 1072 2394 
Q 978 2094 978 1738 
L 978 0 
L 416 0 
z
" transform="scale(0.015625)"/>
        <path id="ArialMT-73" d="M 197 991 
L 753 1078 
Q 800 744 1014 566 
Q 1228 388 1613 388 
Q 2000 388 2187 545 
Q 2375 703 2375 916 
Q 2375 1106 2209 1216 
Q 2094 1291 1634 1406 
Q 1016 1563 777 1677 
Q 538 1791 414 1992 
Q 291 2194 291 2438 
Q 291 2659 392 2848 
Q 494 3038 669 3163 
Q 800 3259 1026 3326 
Q 1253 3394 1513 3394 
Q 1903 3394 2198 3281 
Q 2494 3169 2634 2976 
Q 2775 2784 2828 2463 
L 2278 2388 
Q 2241 2644 2061 2787 
Q 1881 2931 1553 2931 
Q 1166 2931 1000 2803 
Q 834 2675 834 2503 
Q 834 2394 903 2306 
Q 972 2216 1119 2156 
Q 1203 2125 1616 2013 
Q 2213 1853 2448 1751 
Q 2684 1650 2818 1456 
Q 2953 1263 2953 975 
Q 2953 694 2789 445 
Q 2625 197 2315 61 
Q 2006 -75 1616 -75 
Q 969 -75 630 194 
Q 291 463 197 991 
z
" transform="scale(0.015625)"/>
       </defs>
       <use xlink:href="#ArialMT-4e"/>
       <use xlink:href="#ArialMT-6f" x="72.216797"/>
       <use xlink:href="#ArialMT-6e" x="127.832031"/>
       <use xlink:href="#ArialMT-2d" x="183.447266"/>
       <use xlink:href="#ArialMT-6d" x="216.748047"/>
       <use xlink:href="#ArialMT-65" x="300.048828"/>
       <use xlink:href="#ArialMT-6d" x="355.664062"/>
       <use xlink:href="#ArialMT-62" x="438.964844"/>
       <use xlink:href="#ArialMT-65" x="494.580078"/>
       <use xlink:href="#ArialMT-72" x="550.195312"/>
       <use xlink:href="#ArialMT-73" x="583.496094"/>
      </g>
     </g>
    </g>
    <g id="xtick_3">
     <g id="line2d_18">
      <g>
       <use xlink:href="#m066439b7e0" x="385.488333" y="309.08" style="stroke: #000000; stroke-width: 0.8"/>
      </g>
     </g>
     <g id="text_3">
      <!-- Mutants -->
      <g transform="translate(349.919583 330.395625) scale(0.2 -0.2)">
       <defs>
        <path id="ArialMT-4d" d="M 475 0 
L 475 4581 
L 1388 4581 
L 2472 1338 
Q 2622 884 2691 659 
Q 2769 909 2934 1394 
L 4031 4581 
L 4847 4581 
L 4847 0 
L 4263 0 
L 4263 3834 
L 2931 0 
L 2384 0 
L 1059 3900 
L 1059 0 
L 475 0 
z
" transform="scale(0.015625)"/>
        <path id="ArialMT-75" d="M 2597 0 
L 2597 488 
Q 2209 -75 1544 -75 
Q 1250 -75 995 37 
Q 741 150 617 320 
Q 494 491 444 738 
Q 409 903 409 1263 
L 409 3319 
L 972 3319 
L 972 1478 
Q 972 1038 1006 884 
Q 1059 663 1231 536 
Q 1403 409 1656 409 
Q 1909 409 2131 539 
Q 2353 669 2445 892 
Q 2538 1116 2538 1541 
L 2538 3319 
L 3100 3319 
L 3100 0 
L 2597 0 
z
" transform="scale(0.015625)"/>
        <path id="ArialMT-74" d="M 1650 503 
L 1731 6 
Q 1494 -44 1306 -44 
Q 1000 -44 831 53 
Q 663 150 594 308 
Q 525 466 525 972 
L 525 2881 
L 113 2881 
L 113 3319 
L 525 3319 
L 525 4141 
L 1084 4478 
L 1084 3319 
L 1650 3319 
L 1650 2881 
L 1084 2881 
L 1084 941 
Q 1084 700 1114 631 
Q 1144 563 1211 522 
Q 1278 481 1403 481 
Q 1497 481 1650 503 
z
" transform="scale(0.015625)"/>
        <path id="ArialMT-61" d="M 2588 409 
Q 2275 144 1986 34 
Q 1697 -75 1366 -75 
Q 819 -75 525 192 
Q 231 459 231 875 
Q 231 1119 342 1320 
Q 453 1522 633 1644 
Q 813 1766 1038 1828 
Q 1203 1872 1538 1913 
Q 2219 1994 2541 2106 
Q 2544 2222 2544 2253 
Q 2544 2597 2384 2738 
Q 2169 2928 1744 2928 
Q 1347 2928 1158 2789 
Q 969 2650 878 2297 
L 328 2372 
Q 403 2725 575 2942 
Q 747 3159 1072 3276 
Q 1397 3394 1825 3394 
Q 2250 3394 2515 3294 
Q 2781 3194 2906 3042 
Q 3031 2891 3081 2659 
Q 3109 2516 3109 2141 
L 3109 1391 
Q 3109 606 3145 398 
Q 3181 191 3288 0 
L 2700 0 
Q 2613 175 2588 409 
z
M 2541 1666 
Q 2234 1541 1622 1453 
Q 1275 1403 1131 1340 
Q 988 1278 909 1158 
Q 831 1038 831 891 
Q 831 666 1001 516 
Q 1172 366 1500 366 
Q 1825 366 2078 508 
Q 2331 650 2450 897 
Q 2541 1088 2541 1459 
L 2541 1666 
z
" transform="scale(0.015625)"/>
       </defs>
       <use xlink:href="#ArialMT-4d"/>
       <use xlink:href="#ArialMT-75" x="83.300781"/>
       <use xlink:href="#ArialMT-74" x="138.916016"/>
       <use xlink:href="#ArialMT-61" x="166.699219"/>
       <use xlink:href="#ArialMT-6e" x="222.314453"/>
       <use xlink:href="#ArialMT-74" x="277.929688"/>
       <use xlink:href="#ArialMT-73" x="305.712891"/>
      </g>
     </g>
    </g>
   </g>
   <g id="matplotlib.axis_2">
    <g id="ytick_1">
     <g id="line2d_19">
      <defs>
       <path id="ma5ddafe0da" d="M 0 0 
L -3.5 0 
" style="stroke: #000000; stroke-width: 0.8"/>
      </defs>
      <g>
       <use xlink:href="#ma5ddafe0da" x="62.93" y="297.065413" style="stroke: #000000; stroke-width: 0.8"/>
      </g>
     </g>
     <g id="text_4">
      <!-- 0 -->
      <g transform="translate(50.369063 300.644319) scale(0.1 -0.1)">
       <defs>
        <path id="ArialMT-30" d="M 266 2259 
Q 266 3072 433 3567 
Q 600 4063 929 4331 
Q 1259 4600 1759 4600 
Q 2128 4600 2406 4451 
Q 2684 4303 2865 4023 
Q 3047 3744 3150 3342 
Q 3253 2941 3253 2259 
Q 3253 1453 3087 958 
Q 2922 463 2592 192 
Q 2263 -78 1759 -78 
Q 1097 -78 719 397 
Q 266 969 266 2259 
z
M 844 2259 
Q 844 1131 1108 757 
Q 1372 384 1759 384 
Q 2147 384 2411 759 
Q 2675 1134 2675 2259 
Q 2675 3391 2411 3762 
Q 2147 4134 1753 4134 
Q 1366 4134 1134 3806 
Q 844 3388 844 2259 
z
" transform="scale(0.015625)"/>
       </defs>
       <use xlink:href="#ArialMT-30"/>
      </g>
     </g>
    </g>
    <g id="ytick_2">
     <g id="line2d_20">
      <g>
       <use xlink:href="#ma5ddafe0da" x="62.93" y="247.272042" style="stroke: #000000; stroke-width: 0.8"/>
      </g>
     </g>
     <g id="text_5">
      <!-- 1000 -->
      <g transform="translate(33.68625 250.850949) scale(0.1 -0.1)">
       <defs>
        <path id="ArialMT-31" d="M 2384 0 
L 1822 0 
L 1822 3584 
Q 1619 3391 1289 3197 
Q 959 3003 697 2906 
L 697 3450 
Q 1169 3672 1522 3987 
Q 1875 4303 2022 4600 
L 2384 4600 
L 2384 0 
z
" transform="scale(0.015625)"/>
       </defs>
       <use xlink:href="#ArialMT-31"/>
       <use xlink:href="#ArialMT-30" x="55.615234"/>
       <use xlink:href="#ArialMT-30" x="111.230469"/>
       <use xlink:href="#ArialMT-30" x="166.845703"/>
      </g>
     </g>
    </g>
    <g id="ytick_3">
     <g id="line2d_21">
      <g>
       <use xlink:href="#ma5ddafe0da" x="62.93" y="197.478672" style="stroke: #000000; stroke-width: 0.8"/>
      </g>
     </g>
     <g id="text_6">
      <!-- 2000 -->
      <g transform="translate(33.68625 201.057579) scale(0.1 -0.1)">
       <defs>
        <path id="ArialMT-32" d="M 3222 541 
L 3222 0 
L 194 0 
Q 188 203 259 391 
Q 375 700 629 1000 
Q 884 1300 1366 1694 
Q 2113 2306 2375 2664 
Q 2638 3022 2638 3341 
Q 2638 3675 2398 3904 
Q 2159 4134 1775 4134 
Q 1369 4134 1125 3890 
Q 881 3647 878 3216 
L 300 3275 
Q 359 3922 746 4261 
Q 1134 4600 1788 4600 
Q 2447 4600 2831 4234 
Q 3216 3869 3216 3328 
Q 3216 3053 3103 2787 
Q 2991 2522 2730 2228 
Q 2469 1934 1863 1422 
Q 1356 997 1212 845 
Q 1069 694 975 541 
L 3222 541 
z
" transform="scale(0.015625)"/>
       </defs>
       <use xlink:href="#ArialMT-32"/>
       <use xlink:href="#ArialMT-30" x="55.615234"/>
       <use xlink:href="#ArialMT-30" x="111.230469"/>
       <use xlink:href="#ArialMT-30" x="166.845703"/>
      </g>
     </g>
    </g>
    <g id="ytick_4">
     <g id="line2d_22">
      <g>
       <use xlink:href="#ma5ddafe0da" x="62.93" y="147.685302" style="stroke: #000000; stroke-width: 0.8"/>
      </g>
     </g>
     <g id="text_7">
      <!-- 3000 -->
      <g transform="translate(33.68625 151.264208) scale(0.1 -0.1)">
       <defs>
        <path id="ArialMT-33" d="M 269 1209 
L 831 1284 
Q 928 806 1161 595 
Q 1394 384 1728 384 
Q 2125 384 2398 659 
Q 2672 934 2672 1341 
Q 2672 1728 2419 1979 
Q 2166 2231 1775 2231 
Q 1616 2231 1378 2169 
L 1441 2663 
Q 1497 2656 1531 2656 
Q 1891 2656 2178 2843 
Q 2466 3031 2466 3422 
Q 2466 3731 2256 3934 
Q 2047 4138 1716 4138 
Q 1388 4138 1169 3931 
Q 950 3725 888 3313 
L 325 3413 
Q 428 3978 793 4289 
Q 1159 4600 1703 4600 
Q 2078 4600 2393 4439 
Q 2709 4278 2876 4000 
Q 3044 3722 3044 3409 
Q 3044 3113 2884 2869 
Q 2725 2625 2413 2481 
Q 2819 2388 3044 2092 
Q 3269 1797 3269 1353 
Q 3269 753 2831 336 
Q 2394 -81 1725 -81 
Q 1122 -81 723 278 
Q 325 638 269 1209 
z
" transform="scale(0.015625)"/>
       </defs>
       <use xlink:href="#ArialMT-33"/>
       <use xlink:href="#ArialMT-30" x="55.615234"/>
       <use xlink:href="#ArialMT-30" x="111.230469"/>
       <use xlink:href="#ArialMT-30" x="166.845703"/>
      </g>
     </g>
    </g>
    <g id="ytick_5">
     <g id="line2d_23">
      <g>
       <use xlink:href="#ma5ddafe0da" x="62.93" y="97.891932" style="stroke: #000000; stroke-width: 0.8"/>
      </g>
     </g>
     <g id="text_8">
      <!-- 4000 -->
      <g transform="translate(33.68625 101.470838) scale(0.1 -0.1)">
       <defs>
        <path id="ArialMT-34" d="M 2069 0 
L 2069 1097 
L 81 1097 
L 81 1613 
L 2172 4581 
L 2631 4581 
L 2631 1613 
L 3250 1613 
L 3250 1097 
L 2631 1097 
L 2631 0 
L 2069 0 
z
M 2069 1613 
L 2069 3678 
L 634 1613 
L 2069 1613 
z
" transform="scale(0.015625)"/>
       </defs>
       <use xlink:href="#ArialMT-34"/>
       <use xlink:href="#ArialMT-30" x="55.615234"/>
       <use xlink:href="#ArialMT-30" x="111.230469"/>
       <use xlink:href="#ArialMT-30" x="166.845703"/>
      </g>
     </g>
    </g>
    <g id="ytick_6">
     <g id="line2d_24">
      <g>
       <use xlink:href="#ma5ddafe0da" x="62.93" y="48.098562" style="stroke: #000000; stroke-width: 0.8"/>
      </g>
     </g>
     <g id="text_9">
      <!-- 5000 -->
      <g transform="translate(33.68625 51.677468) scale(0.1 -0.1)">
       <defs>
        <path id="ArialMT-35" d="M 266 1200 
L 856 1250 
Q 922 819 1161 601 
Q 1400 384 1738 384 
Q 2144 384 2425 690 
Q 2706 997 2706 1503 
Q 2706 1984 2436 2262 
Q 2166 2541 1728 2541 
Q 1456 2541 1237 2417 
Q 1019 2294 894 2097 
L 366 2166 
L 809 4519 
L 3088 4519 
L 3088 3981 
L 1259 3981 
L 1013 2750 
Q 1425 3038 1878 3038 
Q 2478 3038 2890 2622 
Q 3303 2206 3303 1553 
Q 3303 931 2941 478 
Q 2500 -78 1738 -78 
Q 1113 -78 717 272 
Q 322 622 266 1200 
z
" transform="scale(0.015625)"/>
       </defs>
       <use xlink:href="#ArialMT-35"/>
       <use xlink:href="#ArialMT-30" x="55.615234"/>
       <use xlink:href="#ArialMT-30" x="111.230469"/>
       <use xlink:href="#ArialMT-30" x="166.845703"/>
      </g>
     </g>
    </g>
    <g id="text_10">
     <!-- Outgoing approaches -->
     <g transform="translate(25.476875 255.557187) rotate(-90) scale(0.2 -0.2)">
      <defs>
       <path id="ArialMT-4f" d="M 309 2231 
Q 309 3372 921 4017 
Q 1534 4663 2503 4663 
Q 3138 4663 3647 4359 
Q 4156 4056 4423 3514 
Q 4691 2972 4691 2284 
Q 4691 1588 4409 1038 
Q 4128 488 3612 205 
Q 3097 -78 2500 -78 
Q 1853 -78 1343 234 
Q 834 547 571 1087 
Q 309 1628 309 2231 
z
M 934 2222 
Q 934 1394 1379 917 
Q 1825 441 2497 441 
Q 3181 441 3623 922 
Q 4066 1403 4066 2288 
Q 4066 2847 3877 3264 
Q 3688 3681 3323 3911 
Q 2959 4141 2506 4141 
Q 1863 4141 1398 3698 
Q 934 3256 934 2222 
z
" transform="scale(0.015625)"/>
       <path id="ArialMT-67" d="M 319 -275 
L 866 -356 
Q 900 -609 1056 -725 
Q 1266 -881 1628 -881 
Q 2019 -881 2231 -725 
Q 2444 -569 2519 -288 
Q 2563 -116 2559 434 
Q 2191 0 1641 0 
Q 956 0 581 494 
Q 206 988 206 1678 
Q 206 2153 378 2554 
Q 550 2956 876 3175 
Q 1203 3394 1644 3394 
Q 2231 3394 2613 2919 
L 2613 3319 
L 3131 3319 
L 3131 450 
Q 3131 -325 2973 -648 
Q 2816 -972 2473 -1159 
Q 2131 -1347 1631 -1347 
Q 1038 -1347 672 -1080 
Q 306 -813 319 -275 
z
M 784 1719 
Q 784 1066 1043 766 
Q 1303 466 1694 466 
Q 2081 466 2343 764 
Q 2606 1063 2606 1700 
Q 2606 2309 2336 2618 
Q 2066 2928 1684 2928 
Q 1309 2928 1046 2623 
Q 784 2319 784 1719 
z
" transform="scale(0.015625)"/>
       <path id="ArialMT-69" d="M 425 3934 
L 425 4581 
L 988 4581 
L 988 3934 
L 425 3934 
z
M 425 0 
L 425 3319 
L 988 3319 
L 988 0 
L 425 0 
z
" transform="scale(0.015625)"/>
       <path id="ArialMT-20" transform="scale(0.015625)"/>
       <path id="ArialMT-70" d="M 422 -1272 
L 422 3319 
L 934 3319 
L 934 2888 
Q 1116 3141 1344 3267 
Q 1572 3394 1897 3394 
Q 2322 3394 2647 3175 
Q 2972 2956 3137 2557 
Q 3303 2159 3303 1684 
Q 3303 1175 3120 767 
Q 2938 359 2589 142 
Q 2241 -75 1856 -75 
Q 1575 -75 1351 44 
Q 1128 163 984 344 
L 984 -1272 
L 422 -1272 
z
M 931 1641 
Q 931 1000 1190 694 
Q 1450 388 1819 388 
Q 2194 388 2461 705 
Q 2728 1022 2728 1688 
Q 2728 2322 2467 2637 
Q 2206 2953 1844 2953 
Q 1484 2953 1207 2617 
Q 931 2281 931 1641 
z
" transform="scale(0.015625)"/>
       <path id="ArialMT-63" d="M 2588 1216 
L 3141 1144 
Q 3050 572 2676 248 
Q 2303 -75 1759 -75 
Q 1078 -75 664 370 
Q 250 816 250 1647 
Q 250 2184 428 2587 
Q 606 2991 970 3192 
Q 1334 3394 1763 3394 
Q 2303 3394 2647 3120 
Q 2991 2847 3088 2344 
L 2541 2259 
Q 2463 2594 2264 2762 
Q 2066 2931 1784 2931 
Q 1359 2931 1093 2626 
Q 828 2322 828 1663 
Q 828 994 1084 691 
Q 1341 388 1753 388 
Q 2084 388 2306 591 
Q 2528 794 2588 1216 
z
" transform="scale(0.015625)"/>
       <path id="ArialMT-68" d="M 422 0 
L 422 4581 
L 984 4581 
L 984 2938 
Q 1378 3394 1978 3394 
Q 2347 3394 2619 3248 
Q 2891 3103 3008 2847 
Q 3125 2591 3125 2103 
L 3125 0 
L 2563 0 
L 2563 2103 
Q 2563 2525 2380 2717 
Q 2197 2909 1863 2909 
Q 1613 2909 1392 2779 
Q 1172 2650 1078 2428 
Q 984 2206 984 1816 
L 984 0 
L 422 0 
z
" transform="scale(0.015625)"/>
      </defs>
      <use xlink:href="#ArialMT-4f"/>
      <use xlink:href="#ArialMT-75" x="77.783203"/>
      <use xlink:href="#ArialMT-74" x="133.398438"/>
      <use xlink:href="#ArialMT-67" x="161.181641"/>
      <use xlink:href="#ArialMT-6f" x="216.796875"/>
      <use xlink:href="#ArialMT-69" x="272.412109"/>
      <use xlink:href="#ArialMT-6e" x="294.628906"/>
      <use xlink:href="#ArialMT-67" x="350.244141"/>
      <use xlink:href="#ArialMT-20" x="405.859375"/>
      <use xlink:href="#ArialMT-61" x="433.642578"/>
      <use xlink:href="#ArialMT-70" x="489.257812"/>
      <use xlink:href="#ArialMT-70" x="544.873047"/>
      <use xlink:href="#ArialMT-72" x="600.488281"/>
      <use xlink:href="#ArialMT-6f" x="633.789062"/>
      <use xlink:href="#ArialMT-61" x="689.404297"/>
      <use xlink:href="#ArialMT-63" x="745.019531"/>
      <use xlink:href="#ArialMT-68" x="795.019531"/>
      <use xlink:href="#ArialMT-65" x="850.634766"/>
      <use xlink:href="#ArialMT-73" x="906.25"/>
     </g>
    </g>
   </g>
   <g id="line2d_25">
    <path d="M 127.441667 99.114509 
L 127.441667 95.682451 
L 385.488333 95.682451 
L 385.488333 99.114509 
" clip-path="url(#p4059561753)" style="fill: none; stroke: #000000; stroke-linecap: square"/>
   </g>
   <g id="line2d_26">
    <path d="M 127.441667 59.311686 
L 127.441667 54.91522 
L 256.465 54.91522 
L 256.465 59.311686 
" clip-path="url(#p4059561753)" style="fill: none; stroke: #000000; stroke-linecap: square"/>
   </g>
   <g id="line2d_27">
    <path d="M 256.465 29.651527 
L 256.465 24.358182 
L 385.488333 24.358182 
L 385.488333 29.651527 
" clip-path="url(#p4059561753)" style="fill: none; stroke: #000000; stroke-linecap: square"/>
   </g>
   <g id="patch_6">
    <path d="M 62.93 309.08 
L 62.93 10.8 
" style="fill: none; stroke: #000000; stroke-width: 0.8; stroke-linejoin: miter; stroke-linecap: square"/>
   </g>
   <g id="patch_7">
    <path d="M 62.93 309.08 
L 450 309.08 
" style="fill: none; stroke: #000000; stroke-width: 0.8; stroke-linejoin: miter; stroke-linecap: square"/>
   </g>
   <g id="text_11">
    <!-- *** -->
    <g transform="translate(244.788437 96.855538) scale(0.2 -0.2)">
     <defs>
      <path id="ArialMT-2a" d="M 200 3741 
L 344 4184 
Q 841 4009 1066 3881 
Q 1006 4447 1003 4659 
L 1456 4659 
Q 1447 4350 1384 3884 
Q 1706 4047 2122 4184 
L 2266 3741 
Q 1869 3609 1488 3566 
Q 1678 3400 2025 2975 
L 1650 2709 
Q 1469 2956 1222 3381 
Q 991 2941 816 2709 
L 447 2975 
Q 809 3422 966 3566 
Q 563 3644 200 3741 
z
" transform="scale(0.015625)"/>
     </defs>
     <use xlink:href="#ArialMT-2a"/>
     <use xlink:href="#ArialMT-2a" x="38.916016"/>
     <use xlink:href="#ArialMT-2a" x="77.832031"/>
    </g>
   </g>
   <g id="text_12">
    <!-- *** -->
    <g transform="translate(180.276771 57.534919) scale(0.2 -0.2)">
     <use xlink:href="#ArialMT-2a"/>
     <use xlink:href="#ArialMT-2a" x="38.916016"/>
     <use xlink:href="#ArialMT-2a" x="77.832031"/>
    </g>
   </g>
   <g id="text_13">
    <!-- p = 0.375 -->
    <g transform="translate(299.986823 19.724009) scale(0.1 -0.1)">
     <defs>
      <path id="ArialMT-3d" d="M 3381 2694 
L 356 2694 
L 356 3219 
L 3381 3219 
L 3381 2694 
z
M 3381 1303 
L 356 1303 
L 356 1828 
L 3381 1828 
L 3381 1303 
z
" transform="scale(0.015625)"/>
      <path id="ArialMT-2e" d="M 581 0 
L 581 641 
L 1222 641 
L 1222 0 
L 581 0 
z
" transform="scale(0.015625)"/>
      <path id="ArialMT-37" d="M 303 3981 
L 303 4522 
L 3269 4522 
L 3269 4084 
Q 2831 3619 2401 2847 
Q 1972 2075 1738 1259 
Q 1569 684 1522 0 
L 944 0 
Q 953 541 1156 1306 
Q 1359 2072 1739 2783 
Q 2119 3494 2547 3981 
L 303 3981 
z
" transform="scale(0.015625)"/>
     </defs>
     <use xlink:href="#ArialMT-70"/>
     <use xlink:href="#ArialMT-20" x="55.615234"/>
     <use xlink:href="#ArialMT-3d" x="83.398438"/>
     <use xlink:href="#ArialMT-20" x="141.796875"/>
     <use xlink:href="#ArialMT-30" x="169.580078"/>
     <use xlink:href="#ArialMT-2e" x="225.195312"/>
     <use xlink:href="#ArialMT-33" x="252.978516"/>
     <use xlink:href="#ArialMT-37" x="308.59375"/>
     <use xlink:href="#ArialMT-35" x="364.208984"/>
    </g>
   </g>
  </g>
 </g>
 <defs>
  <clipPath id="p4059561753">
   <rect x="62.93" y="10.8" width="387.07" height="298.28"/>
  </clipPath>
 </defs>
</svg>
