<?xml version="1.0" encoding="utf-8" standalone="no"?>
<!DOCTYPE svg PUBLIC "-//W3C//DTD SVG 1.1//EN"
  "http://www.w3.org/Graphics/SVG/1.1/DTD/svg11.dtd">
<svg xmlns:xlink="http://www.w3.org/1999/xlink" width="387.36pt" height="273.6pt" viewBox="0 0 387.36 273.6" xmlns="http://www.w3.org/2000/svg" version="1.1">
 <metadata>
  <rdf:RDF xmlns:dc="http://purl.org/dc/elements/1.1/" xmlns:cc="http://creativecommons.org/ns#" xmlns:rdf="http://www.w3.org/1999/02/22-rdf-syntax-ns#">
   <cc:Work>
    <dc:type rdf:resource="http://purl.org/dc/dcmitype/StillImage"/>
    <dc:date>2025-08-07T16:33:56.922188</dc:date>
    <dc:format>image/svg+xml</dc:format>
    <dc:creator>
     <cc:Agent>
      <dc:title>Matplotlib v3.10.0, https://matplotlib.org/</dc:title>
     </cc:Agent>
    </dc:creator>
   </cc:Work>
  </rdf:RDF>
 </metadata>
 <defs>
  <style type="text/css">*{stroke-linejoin: round; stroke-linecap: butt}</style>
 </defs>
 <g id="figure_1">
  <g id="patch_1">
   <path d="M 0 273.6 
L 387.36 273.6 
L 387.36 0 
L 0 0 
z
" style="fill: #ffffff"/>
  </g>
  <g id="axes_1">
   <g id="patch_2">
    <path d="M 67.71268 250.470667 
L 375.7392 250.470667 
L 375.7392 6.84 
L 67.71268 6.84 
z
" style="fill: #ffffff"/>
   </g>
   <g id="patch_3">
    <path d="M 98.515332 185.050611 
L 139.585535 185.050611 
L 139.585535 152.626068 
L 98.515332 152.626068 
L 98.515332 185.050611 
z
" clip-path="url(#p9daba865af)" style="fill: #6495ed; stroke: #000000; stroke-linejoin: miter"/>
   </g>
   <g id="line2d_1">
    <path d="M 119.050433 185.050611 
L 119.050433 217.10912 
" clip-path="url(#p9daba865af)" style="fill: none; stroke: #000000; stroke-linecap: square"/>
   </g>
   <g id="line2d_2">
    <path d="M 119.050433 152.626068 
L 119.050433 111.975919 
" clip-path="url(#p9daba865af)" style="fill: none; stroke: #000000; stroke-linecap: square"/>
   </g>
   <g id="line2d_3">
    <path d="M 108.782883 217.10912 
L 129.317984 217.10912 
" clip-path="url(#p9daba865af)" style="fill: none; stroke: #000000; stroke-linecap: square"/>
   </g>
   <g id="line2d_4">
    <path d="M 108.782883 111.975919 
L 129.317984 111.975919 
" clip-path="url(#p9daba865af)" style="fill: none; stroke: #000000; stroke-linecap: square"/>
   </g>
   <g id="patch_4">
    <path d="M 201.190839 231.425131 
L 242.261041 231.425131 
L 242.261041 205.192668 
L 201.190839 205.192668 
L 201.190839 231.425131 
z
" clip-path="url(#p9daba865af)" style="fill: #a9a9a9; stroke: #000000; stroke-linejoin: miter"/>
   </g>
   <g id="line2d_5">
    <path d="M 221.72594 231.425131 
L 221.72594 239.396545 
" clip-path="url(#p9daba865af)" style="fill: none; stroke: #000000; stroke-linecap: square"/>
   </g>
   <g id="line2d_6">
    <path d="M 221.72594 205.192668 
L 221.72594 177.699421 
" clip-path="url(#p9daba865af)" style="fill: none; stroke: #000000; stroke-linecap: square"/>
   </g>
   <g id="line2d_7">
    <path d="M 211.458389 239.396545 
L 231.993491 239.396545 
" clip-path="url(#p9daba865af)" style="fill: none; stroke: #000000; stroke-linecap: square"/>
   </g>
   <g id="line2d_8">
    <path d="M 211.458389 177.699421 
L 231.993491 177.699421 
" clip-path="url(#p9daba865af)" style="fill: none; stroke: #000000; stroke-linecap: square"/>
   </g>
   <g id="patch_5">
    <path d="M 303.866345 225.48724 
L 344.936548 225.48724 
L 344.936548 201.206961 
L 303.866345 201.206961 
L 303.866345 225.48724 
z
" clip-path="url(#p9daba865af)" style="fill: #b22222; stroke: #000000; stroke-linejoin: miter"/>
   </g>
   <g id="line2d_9">
    <path d="M 324.401447 225.48724 
L 324.401447 238.176431 
" clip-path="url(#p9daba865af)" style="fill: none; stroke: #000000; stroke-linecap: square"/>
   </g>
   <g id="line2d_10">
    <path d="M 324.401447 201.206961 
L 324.401447 168.670574 
" clip-path="url(#p9daba865af)" style="fill: none; stroke: #000000; stroke-linecap: square"/>
   </g>
   <g id="line2d_11">
    <path d="M 314.133896 238.176431 
L 334.668997 238.176431 
" clip-path="url(#p9daba865af)" style="fill: none; stroke: #000000; stroke-linecap: square"/>
   </g>
   <g id="line2d_12">
    <path d="M 314.133896 168.670574 
L 334.668997 168.670574 
" clip-path="url(#p9daba865af)" style="fill: none; stroke: #000000; stroke-linecap: square"/>
   </g>
   <g id="PathCollection_1">
    <defs>
     <path id="m426715cf06" d="M 0 3.162278 
C 0.838646 3.162278 1.643056 2.82908 2.236068 2.236068 
C 2.82908 1.643056 3.162278 0.838646 3.162278 0 
C 3.162278 -0.838646 2.82908 -1.643056 2.236068 -2.236068 
C 1.643056 -2.82908 0.838646 -3.162278 0 -3.162278 
C -0.838646 -3.162278 -1.643056 -2.82908 -2.236068 -2.236068 
C -2.82908 -1.643056 -3.162278 -0.838646 -3.162278 0 
C -3.162278 0.838646 -2.82908 1.643056 -2.236068 2.236068 
C -1.643056 2.82908 -0.838646 3.162278 0 3.162278 
z
" style="stroke: #4169e1"/>
    </defs>
    <g clip-path="url(#p9daba865af)">
     <use xlink:href="#m426715cf06" x="122.1087" y="182.823902" style="fill: #4169e1; stroke: #4169e1"/>
     <use xlink:href="#m426715cf06" x="117.215723" y="184.654074" style="fill: #4169e1; stroke: #4169e1"/>
     <use xlink:href="#m426715cf06" x="112.176435" y="169.605995" style="fill: #4169e1; stroke: #4169e1"/>
     <use xlink:href="#m426715cf06" x="116.853212" y="174.120419" style="fill: #4169e1; stroke: #4169e1"/>
     <use xlink:href="#m426715cf06" x="112.766403" y="191.730738" style="fill: #4169e1; stroke: #4169e1"/>
     <use xlink:href="#m426715cf06" x="116.234812" y="97.090522" style="fill: #4169e1; stroke: #4169e1"/>
     <use xlink:href="#m426715cf06" x="118.555355" y="111.975919" style="fill: #4169e1; stroke: #4169e1"/>
     <use xlink:href="#m426715cf06" x="125.8389" y="156.916804" style="fill: #4169e1; stroke: #4169e1"/>
     <use xlink:href="#m426715cf06" x="108.08256" y="197.424606" style="fill: #4169e1; stroke: #4169e1"/>
     <use xlink:href="#m426715cf06" x="122.962952" y="186.240223" style="fill: #4169e1; stroke: #4169e1"/>
     <use xlink:href="#m426715cf06" x="120.231721" y="167.003084" style="fill: #4169e1; stroke: #4169e1"/>
     <use xlink:href="#m426715cf06" x="120.887443" y="173.591702" style="fill: #4169e1; stroke: #4169e1"/>
     <use xlink:href="#m426715cf06" x="118.340532" y="217.10912" style="fill: #4169e1; stroke: #4169e1"/>
     <use xlink:href="#m426715cf06" x="119.299695" y="186.728269" style="fill: #4169e1; stroke: #4169e1"/>
     <use xlink:href="#m426715cf06" x="112.109016" y="172.57494" style="fill: #4169e1; stroke: #4169e1"/>
     <use xlink:href="#m426715cf06" x="114.352369" y="180.627696" style="fill: #4169e1; stroke: #4169e1"/>
     <use xlink:href="#m426715cf06" x="123.72317" y="135.60547" style="fill: #4169e1; stroke: #4169e1"/>
     <use xlink:href="#m426715cf06" x="117.316183" y="127.512044" style="fill: #4169e1; stroke: #4169e1"/>
     <use xlink:href="#m426715cf06" x="115.168115" y="164.074809" style="fill: #4169e1; stroke: #4169e1"/>
     <use xlink:href="#m426715cf06" x="116.427223" y="153.703836" style="fill: #4169e1; stroke: #4169e1"/>
     <use xlink:href="#m426715cf06" x="114.980587" y="180.627696" style="fill: #4169e1; stroke: #4169e1"/>
     <use xlink:href="#m426715cf06" x="121.645367" y="198.64472" style="fill: #4169e1; stroke: #4169e1"/>
     <use xlink:href="#m426715cf06" x="125.147381" y="187.460337" style="fill: #4169e1; stroke: #4169e1"/>
     <use xlink:href="#m426715cf06" x="125.750762" y="126.942657" style="fill: #4169e1; stroke: #4169e1"/>
     <use xlink:href="#m426715cf06" x="122.972687" y="123.729689" style="fill: #4169e1; stroke: #4169e1"/>
     <use xlink:href="#m426715cf06" x="119.595541" y="149.392764" style="fill: #4169e1; stroke: #4169e1"/>
     <use xlink:href="#m426715cf06" x="107.073986" y="164.847548" style="fill: #4169e1; stroke: #4169e1"/>
     <use xlink:href="#m426715cf06" x="122.638578" y="157.079486" style="fill: #4169e1; stroke: #4169e1"/>
    </g>
   </g>
   <g id="PathCollection_2">
    <defs>
     <path id="m3fb348aa15" d="M 0 3.162278 
C 0.838646 3.162278 1.643056 2.82908 2.236068 2.236068 
C 2.82908 1.643056 3.162278 0.838646 3.162278 0 
C 3.162278 -0.838646 2.82908 -1.643056 2.236068 -2.236068 
C 1.643056 -2.82908 0.838646 -3.162278 0 -3.162278 
C -0.838646 -3.162278 -1.643056 -2.82908 -2.236068 -2.236068 
C -2.82908 -1.643056 -3.162278 -0.838646 -3.162278 0 
C -3.162278 0.838646 -2.82908 1.643056 -2.236068 2.236068 
C -1.643056 2.82908 -0.838646 3.162278 0 3.162278 
z
" style="stroke: #808080"/>
    </defs>
    <g clip-path="url(#p9daba865af)">
     <use xlink:href="#m3fb348aa15" x="220.894798" y="219.915384" style="fill: #808080; stroke: #808080"/>
     <use xlink:href="#m3fb348aa15" x="225.862446" y="195.187729" style="fill: #808080; stroke: #808080"/>
     <use xlink:href="#m3fb348aa15" x="224.371454" y="206.412783" style="fill: #808080; stroke: #808080"/>
     <use xlink:href="#m3fb348aa15" x="220.954277" y="225.690592" style="fill: #808080; stroke: #808080"/>
     <use xlink:href="#m3fb348aa15" x="227.024279" y="211.293241" style="fill: #808080; stroke: #808080"/>
     <use xlink:href="#m3fb348aa15" x="221.156486" y="215.685653" style="fill: #808080; stroke: #808080"/>
     <use xlink:href="#m3fb348aa15" x="222.88617" y="209.707092" style="fill: #808080; stroke: #808080"/>
     <use xlink:href="#m3fb348aa15" x="220.353467" y="230.774403" style="fill: #808080; stroke: #808080"/>
     <use xlink:href="#m3fb348aa15" x="220.729397" y="205.436691" style="fill: #808080; stroke: #808080"/>
     <use xlink:href="#m3fb348aa15" x="223.374033" y="234.394076" style="fill: #808080; stroke: #808080"/>
     <use xlink:href="#m3fb348aa15" x="225.452824" y="209.747763" style="fill: #808080; stroke: #808080"/>
     <use xlink:href="#m3fb348aa15" x="218.191721" y="216.824427" style="fill: #808080; stroke: #808080"/>
     <use xlink:href="#m3fb348aa15" x="230.436443" y="228.82222" style="fill: #808080; stroke: #808080"/>
     <use xlink:href="#m3fb348aa15" x="219.874812" y="149.108071" style="fill: #808080; stroke: #808080"/>
     <use xlink:href="#m3fb348aa15" x="220.496464" y="177.699421" style="fill: #808080; stroke: #808080"/>
     <use xlink:href="#m3fb348aa15" x="216.315922" y="209.829104" style="fill: #808080; stroke: #808080"/>
     <use xlink:href="#m3fb348aa15" x="213.218647" y="231.831835" style="fill: #808080; stroke: #808080"/>
     <use xlink:href="#m3fb348aa15" x="227.392553" y="193.642251" style="fill: #808080; stroke: #808080"/>
     <use xlink:href="#m3fb348aa15" x="219.328218" y="233.295973" style="fill: #808080; stroke: #808080"/>
     <use xlink:href="#m3fb348aa15" x="212.574104" y="216.946438" style="fill: #808080; stroke: #808080"/>
     <use xlink:href="#m3fb348aa15" x="223.419204" y="214.54688" style="fill: #808080; stroke: #808080"/>
     <use xlink:href="#m3fb348aa15" x="226.346645" y="214.668891" style="fill: #808080; stroke: #808080"/>
     <use xlink:href="#m3fb348aa15" x="220.198197" y="202.101712" style="fill: #808080; stroke: #808080"/>
     <use xlink:href="#m3fb348aa15" x="226.391471" y="149.799469" style="fill: #808080; stroke: #808080"/>
     <use xlink:href="#m3fb348aa15" x="218.145012" y="191.89342" style="fill: #808080; stroke: #808080"/>
     <use xlink:href="#m3fb348aa15" x="222.018647" y="180.09898" style="fill: #808080; stroke: #808080"/>
     <use xlink:href="#m3fb348aa15" x="222.536312" y="225.161876" style="fill: #808080; stroke: #808080"/>
     <use xlink:href="#m3fb348aa15" x="228.248463" y="218.491917" style="fill: #808080; stroke: #808080"/>
     <use xlink:href="#m3fb348aa15" x="215.371491" y="211.821957" style="fill: #808080; stroke: #808080"/>
     <use xlink:href="#m3fb348aa15" x="222.998771" y="238.298442" style="fill: #808080; stroke: #808080"/>
     <use xlink:href="#m3fb348aa15" x="224.675261" y="238.94917" style="fill: #808080; stroke: #808080"/>
     <use xlink:href="#m3fb348aa15" x="221.152173" y="220.850805" style="fill: #808080; stroke: #808080"/>
     <use xlink:href="#m3fb348aa15" x="224.682935" y="239.396545" style="fill: #808080; stroke: #808080"/>
     <use xlink:href="#m3fb348aa15" x="230.585739" y="230.733732" style="fill: #808080; stroke: #808080"/>
     <use xlink:href="#m3fb348aa15" x="220.99512" y="232.604575" style="fill: #808080; stroke: #808080"/>
     <use xlink:href="#m3fb348aa15" x="217.077939" y="204.907975" style="fill: #808080; stroke: #808080"/>
     <use xlink:href="#m3fb348aa15" x="227.269936" y="220.606782" style="fill: #808080; stroke: #808080"/>
     <use xlink:href="#m3fb348aa15" x="225.427748" y="218.410576" style="fill: #808080; stroke: #808080"/>
     <use xlink:href="#m3fb348aa15" x="218.733606" y="206.900829" style="fill: #808080; stroke: #808080"/>
     <use xlink:href="#m3fb348aa15" x="214.022034" y="205.843396" style="fill: #808080; stroke: #808080"/>
     <use xlink:href="#m3fb348aa15" x="229.511161" y="179.936298" style="fill: #808080; stroke: #808080"/>
     <use xlink:href="#m3fb348aa15" x="215.975363" y="198.075334" style="fill: #808080; stroke: #808080"/>
     <use xlink:href="#m3fb348aa15" x="224.370191" y="231.425131" style="fill: #808080; stroke: #808080"/>
     <use xlink:href="#m3fb348aa15" x="225.167916" y="161.512569" style="fill: #808080; stroke: #808080"/>
     <use xlink:href="#m3fb348aa15" x="213.936671" y="134.792061" style="fill: #808080; stroke: #808080"/>
     <use xlink:href="#m3fb348aa15" x="223.311254" y="146.708512" style="fill: #808080; stroke: #808080"/>
     <use xlink:href="#m3fb348aa15" x="218.159698" y="199.864835" style="fill: #808080; stroke: #808080"/>
     <use xlink:href="#m3fb348aa15" x="232.770956" y="205.192668" style="fill: #808080; stroke: #808080"/>
     <use xlink:href="#m3fb348aa15" x="219.860127" y="212.635367" style="fill: #808080; stroke: #808080"/>
     <use xlink:href="#m3fb348aa15" x="226.288175" y="191.324033" style="fill: #808080; stroke: #808080"/>
     <use xlink:href="#m3fb348aa15" x="227.147834" y="208.364966" style="fill: #808080; stroke: #808080"/>
     <use xlink:href="#m3fb348aa15" x="216.576472" y="222.192931" style="fill: #808080; stroke: #808080"/>
     <use xlink:href="#m3fb348aa15" x="218.63349" y="200.190199" style="fill: #808080; stroke: #808080"/>
     <use xlink:href="#m3fb348aa15" x="221.142092" y="215.644983" style="fill: #808080; stroke: #808080"/>
     <use xlink:href="#m3fb348aa15" x="221.970559" y="214.140175" style="fill: #808080; stroke: #808080"/>
     <use xlink:href="#m3fb348aa15" x="225.092265" y="160.658488" style="fill: #808080; stroke: #808080"/>
     <use xlink:href="#m3fb348aa15" x="222.255799" y="202.508416" style="fill: #808080; stroke: #808080"/>
     <use xlink:href="#m3fb348aa15" x="225.086533" y="222.680977" style="fill: #808080; stroke: #808080"/>
     <use xlink:href="#m3fb348aa15" x="225.656183" y="237.525703" style="fill: #808080; stroke: #808080"/>
     <use xlink:href="#m3fb348aa15" x="222.551607" y="236.102236" style="fill: #808080; stroke: #808080"/>
     <use xlink:href="#m3fb348aa15" x="219.347609" y="236.102236" style="fill: #808080; stroke: #808080"/>
     <use xlink:href="#m3fb348aa15" x="225.528122" y="235.898884" style="fill: #808080; stroke: #808080"/>
     <use xlink:href="#m3fb348aa15" x="222.834892" y="234.231394" style="fill: #808080; stroke: #808080"/>
     <use xlink:href="#m3fb348aa15" x="234.167217" y="236.630953" style="fill: #808080; stroke: #808080"/>
     <use xlink:href="#m3fb348aa15" x="222.701334" y="233.336643" style="fill: #808080; stroke: #808080"/>
     <use xlink:href="#m3fb348aa15" x="220.421234" y="235.248156" style="fill: #808080; stroke: #808080"/>
     <use xlink:href="#m3fb348aa15" x="219.132906" y="237.810397" style="fill: #808080; stroke: #808080"/>
     <use xlink:href="#m3fb348aa15" x="215.476973" y="237.322351" style="fill: #808080; stroke: #808080"/>
     <use xlink:href="#m3fb348aa15" x="220.933634" y="235.532849" style="fill: #808080; stroke: #808080"/>
     <use xlink:href="#m3fb348aa15" x="222.275819" y="235.654861" style="fill: #808080; stroke: #808080"/>
     <use xlink:href="#m3fb348aa15" x="222.992948" y="232.685916" style="fill: #808080; stroke: #808080"/>
     <use xlink:href="#m3fb348aa15" x="221.920211" y="197.546617" style="fill: #808080; stroke: #808080"/>
     <use xlink:href="#m3fb348aa15" x="224.657027" y="206.575465" style="fill: #808080; stroke: #808080"/>
     <use xlink:href="#m3fb348aa15" x="223.400022" y="220.240747" style="fill: #808080; stroke: #808080"/>
     <use xlink:href="#m3fb348aa15" x="214.692473" y="206.98217" style="fill: #808080; stroke: #808080"/>
     <use xlink:href="#m3fb348aa15" x="221.432742" y="225.52791" style="fill: #808080; stroke: #808080"/>
     <use xlink:href="#m3fb348aa15" x="219.50703" y="216.621074" style="fill: #808080; stroke: #808080"/>
     <use xlink:href="#m3fb348aa15" x="214.285528" y="212.676037" style="fill: #808080; stroke: #808080"/>
     <use xlink:href="#m3fb348aa15" x="226.004833" y="217.9632" style="fill: #808080; stroke: #808080"/>
     <use xlink:href="#m3fb348aa15" x="230.768417" y="225.649922" style="fill: #808080; stroke: #808080"/>
     <use xlink:href="#m3fb348aa15" x="220.781564" y="219.508679" style="fill: #808080; stroke: #808080"/>
    </g>
   </g>
   <g id="PathCollection_3">
    <defs>
     <path id="ma09ffeb8a7" d="M 0 3.162278 
C 0.838646 3.162278 1.643056 2.82908 2.236068 2.236068 
C 2.82908 1.643056 3.162278 0.838646 3.162278 0 
C 3.162278 -0.838646 2.82908 -1.643056 2.236068 -2.236068 
C 1.643056 -2.82908 0.838646 -3.162278 0 -3.162278 
C -0.838646 -3.162278 -1.643056 -2.82908 -2.236068 -2.236068 
C -2.82908 -1.643056 -3.162278 -0.838646 -3.162278 0 
C -3.162278 0.838646 -2.82908 1.643056 -2.236068 2.236068 
C -1.643056 2.82908 -0.838646 3.162278 0 3.162278 
z
" style="stroke: #8b0000"/>
    </defs>
    <g clip-path="url(#p9daba865af)">
     <use xlink:href="#ma09ffeb8a7" x="331.62485" y="222.355613" style="fill: #8b0000; stroke: #8b0000"/>
     <use xlink:href="#ma09ffeb8a7" x="321.79486" y="188.55844" style="fill: #8b0000; stroke: #8b0000"/>
     <use xlink:href="#ma09ffeb8a7" x="320.581952" y="215.034926" style="fill: #8b0000; stroke: #8b0000"/>
     <use xlink:href="#ma09ffeb8a7" x="325.682416" y="229.472947" style="fill: #8b0000; stroke: #8b0000"/>
     <use xlink:href="#ma09ffeb8a7" x="318.710182" y="203.60652" style="fill: #8b0000; stroke: #8b0000"/>
     <use xlink:href="#ma09ffeb8a7" x="325.316876" y="222.314942" style="fill: #8b0000; stroke: #8b0000"/>
     <use xlink:href="#ma09ffeb8a7" x="320.157704" y="220.810134" style="fill: #8b0000; stroke: #8b0000"/>
     <use xlink:href="#ma09ffeb8a7" x="321.751299" y="226.829366" style="fill: #8b0000; stroke: #8b0000"/>
     <use xlink:href="#ma09ffeb8a7" x="325.757947" y="170.948121" style="fill: #8b0000; stroke: #8b0000"/>
     <use xlink:href="#ma09ffeb8a7" x="325.883169" y="224.592489" style="fill: #8b0000; stroke: #8b0000"/>
     <use xlink:href="#ma09ffeb8a7" x="329.696846" y="228.04948" style="fill: #8b0000; stroke: #8b0000"/>
     <use xlink:href="#ma09ffeb8a7" x="324.200683" y="217.678507" style="fill: #8b0000; stroke: #8b0000"/>
     <use xlink:href="#ma09ffeb8a7" x="318.77847" y="197.546617" style="fill: #8b0000; stroke: #8b0000"/>
     <use xlink:href="#ma09ffeb8a7" x="325.090902" y="204.419929" style="fill: #8b0000; stroke: #8b0000"/>
     <use xlink:href="#ma09ffeb8a7" x="328.694488" y="137.354301" style="fill: #8b0000; stroke: #8b0000"/>
     <use xlink:href="#ma09ffeb8a7" x="333.41127" y="221.135498" style="fill: #8b0000; stroke: #8b0000"/>
     <use xlink:href="#ma09ffeb8a7" x="331.797096" y="225.48724" style="fill: #8b0000; stroke: #8b0000"/>
     <use xlink:href="#ma09ffeb8a7" x="325.724049" y="221.745555" style="fill: #8b0000; stroke: #8b0000"/>
     <use xlink:href="#ma09ffeb8a7" x="331.35631" y="204.826634" style="fill: #8b0000; stroke: #8b0000"/>
     <use xlink:href="#ma09ffeb8a7" x="315.622681" y="218.73594" style="fill: #8b0000; stroke: #8b0000"/>
     <use xlink:href="#ma09ffeb8a7" x="331.066417" y="202.915121" style="fill: #8b0000; stroke: #8b0000"/>
     <use xlink:href="#ma09ffeb8a7" x="325.579676" y="188.639781" style="fill: #8b0000; stroke: #8b0000"/>
     <use xlink:href="#ma09ffeb8a7" x="319.113765" y="168.670574" style="fill: #8b0000; stroke: #8b0000"/>
     <use xlink:href="#ma09ffeb8a7" x="312.748914" y="192.625489" style="fill: #8b0000; stroke: #8b0000"/>
     <use xlink:href="#ma09ffeb8a7" x="326.184673" y="146.789853" style="fill: #8b0000; stroke: #8b0000"/>
     <use xlink:href="#ma09ffeb8a7" x="319.784273" y="205.721385" style="fill: #8b0000; stroke: #8b0000"/>
     <use xlink:href="#ma09ffeb8a7" x="332.743953" y="238.176431" style="fill: #8b0000; stroke: #8b0000"/>
     <use xlink:href="#ma09ffeb8a7" x="321.297596" y="235.329497" style="fill: #8b0000; stroke: #8b0000"/>
     <use xlink:href="#ma09ffeb8a7" x="313.98007" y="237.037657" style="fill: #8b0000; stroke: #8b0000"/>
     <use xlink:href="#ma09ffeb8a7" x="325.301894" y="235.898884" style="fill: #8b0000; stroke: #8b0000"/>
     <use xlink:href="#ma09ffeb8a7" x="322.425519" y="237.607044" style="fill: #8b0000; stroke: #8b0000"/>
     <use xlink:href="#ma09ffeb8a7" x="329.170931" y="235.085474" style="fill: #8b0000; stroke: #8b0000"/>
     <use xlink:href="#ma09ffeb8a7" x="325.537248" y="234.76011" style="fill: #8b0000; stroke: #8b0000"/>
     <use xlink:href="#ma09ffeb8a7" x="329.28651" y="217.759848" style="fill: #8b0000; stroke: #8b0000"/>
     <use xlink:href="#ma09ffeb8a7" x="317.644547" y="145.122364" style="fill: #8b0000; stroke: #8b0000"/>
     <use xlink:href="#ma09ffeb8a7" x="319.601976" y="190.429283" style="fill: #8b0000; stroke: #8b0000"/>
     <use xlink:href="#ma09ffeb8a7" x="325.710013" y="205.436691" style="fill: #8b0000; stroke: #8b0000"/>
     <use xlink:href="#ma09ffeb8a7" x="327.879953" y="225.121206" style="fill: #8b0000; stroke: #8b0000"/>
     <use xlink:href="#ma09ffeb8a7" x="318.184964" y="217.149791" style="fill: #8b0000; stroke: #8b0000"/>
     <use xlink:href="#ma09ffeb8a7" x="325.620356" y="215.848335" style="fill: #8b0000; stroke: #8b0000"/>
     <use xlink:href="#ma09ffeb8a7" x="323.694064" y="201.206961" style="fill: #8b0000; stroke: #8b0000"/>
    </g>
   </g>
   <g id="line2d_13">
    <path d="M 98.515332 171.090468 
L 139.585535 171.090468 
" clip-path="url(#p9daba865af)" style="fill: none; stroke: #000000"/>
   </g>
   <g id="line2d_14">
    <path d="M 201.190839 216.621074 
L 242.261041 216.621074 
" clip-path="url(#p9daba865af)" style="fill: none; stroke: #000000"/>
   </g>
   <g id="line2d_15">
    <path d="M 303.866345 217.678507 
L 344.936548 217.678507 
" clip-path="url(#p9daba865af)" style="fill: none; stroke: #000000"/>
   </g>
   <g id="matplotlib.axis_1">
    <g id="xtick_1">
     <g id="line2d_16">
      <defs>
       <path id="m37bab0ed13" d="M 0 0 
L 0 3.5 
" style="stroke: #000000; stroke-width: 0.8"/>
      </defs>
      <g>
       <use xlink:href="#m37bab0ed13" x="119.050433" y="250.470667" style="stroke: #000000; stroke-width: 0.8"/>
      </g>
     </g>
     <g id="text_1">
      <!-- RC -->
      <g transform="translate(104.606683 271.786292) scale(0.2 -0.2)">
       <defs>
        <path id="ArialMT-52" d="M 503 0 
L 503 4581 
L 2534 4581 
Q 3147 4581 3465 4457 
Q 3784 4334 3975 4021 
Q 4166 3709 4166 3331 
Q 4166 2844 3850 2509 
Q 3534 2175 2875 2084 
Q 3116 1969 3241 1856 
Q 3506 1613 3744 1247 
L 4541 0 
L 3778 0 
L 3172 953 
Q 2906 1366 2734 1584 
Q 2563 1803 2427 1890 
Q 2291 1978 2150 2013 
Q 2047 2034 1813 2034 
L 1109 2034 
L 1109 0 
L 503 0 
z
M 1109 2559 
L 2413 2559 
Q 2828 2559 3062 2645 
Q 3297 2731 3419 2920 
Q 3541 3109 3541 3331 
Q 3541 3656 3305 3865 
Q 3069 4075 2559 4075 
L 1109 4075 
L 1109 2559 
z
" transform="scale(0.015625)"/>
        <path id="ArialMT-43" d="M 3763 1606 
L 4369 1453 
Q 4178 706 3683 314 
Q 3188 -78 2472 -78 
Q 1731 -78 1267 223 
Q 803 525 561 1097 
Q 319 1669 319 2325 
Q 319 3041 592 3573 
Q 866 4106 1370 4382 
Q 1875 4659 2481 4659 
Q 3169 4659 3637 4309 
Q 4106 3959 4291 3325 
L 3694 3184 
Q 3534 3684 3231 3912 
Q 2928 4141 2469 4141 
Q 1941 4141 1586 3887 
Q 1231 3634 1087 3207 
Q 944 2781 944 2328 
Q 944 1744 1114 1308 
Q 1284 872 1643 656 
Q 2003 441 2422 441 
Q 2931 441 3284 734 
Q 3638 1028 3763 1606 
z
" transform="scale(0.015625)"/>
       </defs>
       <use xlink:href="#ArialMT-52"/>
       <use xlink:href="#ArialMT-43" transform="translate(72.216797 0)"/>
      </g>
     </g>
    </g>
    <g id="xtick_2">
     <g id="line2d_17">
      <g>
       <use xlink:href="#m37bab0ed13" x="221.72594" y="250.470667" style="stroke: #000000; stroke-width: 0.8"/>
      </g>
     </g>
     <g id="text_2">
      <!-- Non-members -->
      <g transform="translate(158.380628 271.786292) scale(0.2 -0.2)">
       <defs>
        <path id="ArialMT-4e" d="M 488 0 
L 488 4581 
L 1109 4581 
L 3516 984 
L 3516 4581 
L 4097 4581 
L 4097 0 
L 3475 0 
L 1069 3600 
L 1069 0 
L 488 0 
z
" transform="scale(0.015625)"/>
        <path id="ArialMT-6f" d="M 213 1659 
Q 213 2581 725 3025 
Q 1153 3394 1769 3394 
Q 2453 3394 2887 2945 
Q 3322 2497 3322 1706 
Q 3322 1066 3130 698 
Q 2938 331 2570 128 
Q 2203 -75 1769 -75 
Q 1072 -75 642 372 
Q 213 819 213 1659 
z
M 791 1659 
Q 791 1022 1069 705 
Q 1347 388 1769 388 
Q 2188 388 2466 706 
Q 2744 1025 2744 1678 
Q 2744 2294 2464 2611 
Q 2184 2928 1769 2928 
Q 1347 2928 1069 2612 
Q 791 2297 791 1659 
z
" transform="scale(0.015625)"/>
        <path id="ArialMT-6e" d="M 422 0 
L 422 3319 
L 928 3319 
L 928 2847 
Q 1294 3394 1984 3394 
Q 2284 3394 2536 3286 
Q 2788 3178 2913 3003 
Q 3038 2828 3088 2588 
Q 3119 2431 3119 2041 
L 3119 0 
L 2556 0 
L 2556 2019 
Q 2556 2363 2490 2533 
Q 2425 2703 2258 2804 
Q 2091 2906 1866 2906 
Q 1506 2906 1245 2678 
Q 984 2450 984 1813 
L 984 0 
L 422 0 
z
" transform="scale(0.015625)"/>
        <path id="ArialMT-2d" d="M 203 1375 
L 203 1941 
L 1931 1941 
L 1931 1375 
L 203 1375 
z
" transform="scale(0.015625)"/>
        <path id="ArialMT-6d" d="M 422 0 
L 422 3319 
L 925 3319 
L 925 2853 
Q 1081 3097 1340 3245 
Q 1600 3394 1931 3394 
Q 2300 3394 2536 3241 
Q 2772 3088 2869 2813 
Q 3263 3394 3894 3394 
Q 4388 3394 4653 3120 
Q 4919 2847 4919 2278 
L 4919 0 
L 4359 0 
L 4359 2091 
Q 4359 2428 4304 2576 
Q 4250 2725 4106 2815 
Q 3963 2906 3769 2906 
Q 3419 2906 3187 2673 
Q 2956 2441 2956 1928 
L 2956 0 
L 2394 0 
L 2394 2156 
Q 2394 2531 2256 2718 
Q 2119 2906 1806 2906 
Q 1569 2906 1367 2781 
Q 1166 2656 1075 2415 
Q 984 2175 984 1722 
L 984 0 
L 422 0 
z
" transform="scale(0.015625)"/>
        <path id="ArialMT-65" d="M 2694 1069 
L 3275 997 
Q 3138 488 2766 206 
Q 2394 -75 1816 -75 
Q 1088 -75 661 373 
Q 234 822 234 1631 
Q 234 2469 665 2931 
Q 1097 3394 1784 3394 
Q 2450 3394 2872 2941 
Q 3294 2488 3294 1666 
Q 3294 1616 3291 1516 
L 816 1516 
Q 847 969 1125 678 
Q 1403 388 1819 388 
Q 2128 388 2347 550 
Q 2566 713 2694 1069 
z
M 847 1978 
L 2700 1978 
Q 2663 2397 2488 2606 
Q 2219 2931 1791 2931 
Q 1403 2931 1139 2672 
Q 875 2413 847 1978 
z
" transform="scale(0.015625)"/>
        <path id="ArialMT-62" d="M 941 0 
L 419 0 
L 419 4581 
L 981 4581 
L 981 2947 
Q 1338 3394 1891 3394 
Q 2197 3394 2470 3270 
Q 2744 3147 2920 2923 
Q 3097 2700 3197 2384 
Q 3297 2069 3297 1709 
Q 3297 856 2875 390 
Q 2453 -75 1863 -75 
Q 1275 -75 941 416 
L 941 0 
z
M 934 1684 
Q 934 1088 1097 822 
Q 1363 388 1816 388 
Q 2184 388 2453 708 
Q 2722 1028 2722 1663 
Q 2722 2313 2464 2622 
Q 2206 2931 1841 2931 
Q 1472 2931 1203 2611 
Q 934 2291 934 1684 
z
" transform="scale(0.015625)"/>
        <path id="ArialMT-72" d="M 416 0 
L 416 3319 
L 922 3319 
L 922 2816 
Q 1116 3169 1280 3281 
Q 1444 3394 1641 3394 
Q 1925 3394 2219 3213 
L 2025 2691 
Q 1819 2813 1613 2813 
Q 1428 2813 1281 2702 
Q 1134 2591 1072 2394 
Q 978 2094 978 1738 
L 978 0 
L 416 0 
z
" transform="scale(0.015625)"/>
        <path id="ArialMT-73" d="M 197 991 
L 753 1078 
Q 800 744 1014 566 
Q 1228 388 1613 388 
Q 2000 388 2187 545 
Q 2375 703 2375 916 
Q 2375 1106 2209 1216 
Q 2094 1291 1634 1406 
Q 1016 1563 777 1677 
Q 538 1791 414 1992 
Q 291 2194 291 2438 
Q 291 2659 392 2848 
Q 494 3038 669 3163 
Q 800 3259 1026 3326 
Q 1253 3394 1513 3394 
Q 1903 3394 2198 3281 
Q 2494 3169 2634 2976 
Q 2775 2784 2828 2463 
L 2278 2388 
Q 2241 2644 2061 2787 
Q 1881 2931 1553 2931 
Q 1166 2931 1000 2803 
Q 834 2675 834 2503 
Q 834 2394 903 2306 
Q 972 2216 1119 2156 
Q 1203 2125 1616 2013 
Q 2213 1853 2448 1751 
Q 2684 1650 2818 1456 
Q 2953 1263 2953 975 
Q 2953 694 2789 445 
Q 2625 197 2315 61 
Q 2006 -75 1616 -75 
Q 969 -75 630 194 
Q 291 463 197 991 
z
" transform="scale(0.015625)"/>
       </defs>
       <use xlink:href="#ArialMT-4e"/>
       <use xlink:href="#ArialMT-6f" transform="translate(72.216797 0)"/>
       <use xlink:href="#ArialMT-6e" transform="translate(127.832031 0)"/>
       <use xlink:href="#ArialMT-2d" transform="translate(183.447266 0)"/>
       <use xlink:href="#ArialMT-6d" transform="translate(216.748047 0)"/>
       <use xlink:href="#ArialMT-65" transform="translate(300.048828 0)"/>
       <use xlink:href="#ArialMT-6d" transform="translate(355.664062 0)"/>
       <use xlink:href="#ArialMT-62" transform="translate(438.964844 0)"/>
       <use xlink:href="#ArialMT-65" transform="translate(494.580078 0)"/>
       <use xlink:href="#ArialMT-72" transform="translate(550.195312 0)"/>
       <use xlink:href="#ArialMT-73" transform="translate(583.496094 0)"/>
      </g>
     </g>
    </g>
    <g id="xtick_3">
     <g id="line2d_18">
      <g>
       <use xlink:href="#m37bab0ed13" x="324.401447" y="250.470667" style="stroke: #000000; stroke-width: 0.8"/>
      </g>
     </g>
     <g id="text_3">
      <!-- Mutants -->
      <g transform="translate(288.832697 271.786292) scale(0.2 -0.2)">
       <defs>
        <path id="ArialMT-4d" d="M 475 0 
L 475 4581 
L 1388 4581 
L 2472 1338 
Q 2622 884 2691 659 
Q 2769 909 2934 1394 
L 4031 4581 
L 4847 4581 
L 4847 0 
L 4263 0 
L 4263 3834 
L 2931 0 
L 2384 0 
L 1059 3900 
L 1059 0 
L 475 0 
z
" transform="scale(0.015625)"/>
        <path id="ArialMT-75" d="M 2597 0 
L 2597 488 
Q 2209 -75 1544 -75 
Q 1250 -75 995 37 
Q 741 150 617 320 
Q 494 491 444 738 
Q 409 903 409 1263 
L 409 3319 
L 972 3319 
L 972 1478 
Q 972 1038 1006 884 
Q 1059 663 1231 536 
Q 1403 409 1656 409 
Q 1909 409 2131 539 
Q 2353 669 2445 892 
Q 2538 1116 2538 1541 
L 2538 3319 
L 3100 3319 
L 3100 0 
L 2597 0 
z
" transform="scale(0.015625)"/>
        <path id="ArialMT-74" d="M 1650 503 
L 1731 6 
Q 1494 -44 1306 -44 
Q 1000 -44 831 53 
Q 663 150 594 308 
Q 525 466 525 972 
L 525 2881 
L 113 2881 
L 113 3319 
L 525 3319 
L 525 4141 
L 1084 4478 
L 1084 3319 
L 1650 3319 
L 1650 2881 
L 1084 2881 
L 1084 941 
Q 1084 700 1114 631 
Q 1144 563 1211 522 
Q 1278 481 1403 481 
Q 1497 481 1650 503 
z
" transform="scale(0.015625)"/>
        <path id="ArialMT-61" d="M 2588 409 
Q 2275 144 1986 34 
Q 1697 -75 1366 -75 
Q 819 -75 525 192 
Q 231 459 231 875 
Q 231 1119 342 1320 
Q 453 1522 633 1644 
Q 813 1766 1038 1828 
Q 1203 1872 1538 1913 
Q 2219 1994 2541 2106 
Q 2544 2222 2544 2253 
Q 2544 2597 2384 2738 
Q 2169 2928 1744 2928 
Q 1347 2928 1158 2789 
Q 969 2650 878 2297 
L 328 2372 
Q 403 2725 575 2942 
Q 747 3159 1072 3276 
Q 1397 3394 1825 3394 
Q 2250 3394 2515 3294 
Q 2781 3194 2906 3042 
Q 3031 2891 3081 2659 
Q 3109 2516 3109 2141 
L 3109 1391 
Q 3109 606 3145 398 
Q 3181 191 3288 0 
L 2700 0 
Q 2613 175 2588 409 
z
M 2541 1666 
Q 2234 1541 1622 1453 
Q 1275 1403 1131 1340 
Q 988 1278 909 1158 
Q 831 1038 831 891 
Q 831 666 1001 516 
Q 1172 366 1500 366 
Q 1825 366 2078 508 
Q 2331 650 2450 897 
Q 2541 1088 2541 1459 
L 2541 1666 
z
" transform="scale(0.015625)"/>
       </defs>
       <use xlink:href="#ArialMT-4d"/>
       <use xlink:href="#ArialMT-75" transform="translate(83.300781 0)"/>
       <use xlink:href="#ArialMT-74" transform="translate(138.916016 0)"/>
       <use xlink:href="#ArialMT-61" transform="translate(166.699219 0)"/>
       <use xlink:href="#ArialMT-6e" transform="translate(222.314453 0)"/>
       <use xlink:href="#ArialMT-74" transform="translate(277.929688 0)"/>
       <use xlink:href="#ArialMT-73" transform="translate(305.712891 0)"/>
      </g>
     </g>
    </g>
   </g>
   <g id="matplotlib.axis_2">
    <g id="ytick_1">
     <g id="line2d_19">
      <defs>
       <path id="meb503b2e56" d="M 0 0 
L -3.5 0 
" style="stroke: #000000; stroke-width: 0.8"/>
      </defs>
      <g>
       <use xlink:href="#meb503b2e56" x="67.71268" y="240.65733" style="stroke: #000000; stroke-width: 0.8"/>
      </g>
     </g>
     <g id="text_4">
      <!-- 0 -->
      <g transform="translate(55.151743 244.236237) scale(0.1 -0.1)">
       <defs>
        <path id="ArialMT-30" d="M 266 2259 
Q 266 3072 433 3567 
Q 600 4063 929 4331 
Q 1259 4600 1759 4600 
Q 2128 4600 2406 4451 
Q 2684 4303 2865 4023 
Q 3047 3744 3150 3342 
Q 3253 2941 3253 2259 
Q 3253 1453 3087 958 
Q 2922 463 2592 192 
Q 2263 -78 1759 -78 
Q 1097 -78 719 397 
Q 266 969 266 2259 
z
M 844 2259 
Q 844 1131 1108 757 
Q 1372 384 1759 384 
Q 2147 384 2411 759 
Q 2675 1134 2675 2259 
Q 2675 3391 2411 3762 
Q 2147 4134 1753 4134 
Q 1366 4134 1134 3806 
Q 844 3388 844 2259 
z
" transform="scale(0.015625)"/>
       </defs>
       <use xlink:href="#ArialMT-30"/>
      </g>
     </g>
    </g>
    <g id="ytick_2">
     <g id="line2d_20">
      <g>
       <use xlink:href="#meb503b2e56" x="67.71268" y="199.986846" style="stroke: #000000; stroke-width: 0.8"/>
      </g>
     </g>
     <g id="text_5">
      <!-- 1000 -->
      <g transform="translate(38.46893 203.565753) scale(0.1 -0.1)">
       <defs>
        <path id="ArialMT-31" d="M 2384 0 
L 1822 0 
L 1822 3584 
Q 1619 3391 1289 3197 
Q 959 3003 697 2906 
L 697 3450 
Q 1169 3672 1522 3987 
Q 1875 4303 2022 4600 
L 2384 4600 
L 2384 0 
z
" transform="scale(0.015625)"/>
       </defs>
       <use xlink:href="#ArialMT-31"/>
       <use xlink:href="#ArialMT-30" transform="translate(55.615234 0)"/>
       <use xlink:href="#ArialMT-30" transform="translate(111.230469 0)"/>
       <use xlink:href="#ArialMT-30" transform="translate(166.845703 0)"/>
      </g>
     </g>
    </g>
    <g id="ytick_3">
     <g id="line2d_21">
      <g>
       <use xlink:href="#meb503b2e56" x="67.71268" y="159.316362" style="stroke: #000000; stroke-width: 0.8"/>
      </g>
     </g>
     <g id="text_6">
      <!-- 2000 -->
      <g transform="translate(38.46893 162.895269) scale(0.1 -0.1)">
       <defs>
        <path id="ArialMT-32" d="M 3222 541 
L 3222 0 
L 194 0 
Q 188 203 259 391 
Q 375 700 629 1000 
Q 884 1300 1366 1694 
Q 2113 2306 2375 2664 
Q 2638 3022 2638 3341 
Q 2638 3675 2398 3904 
Q 2159 4134 1775 4134 
Q 1369 4134 1125 3890 
Q 881 3647 878 3216 
L 300 3275 
Q 359 3922 746 4261 
Q 1134 4600 1788 4600 
Q 2447 4600 2831 4234 
Q 3216 3869 3216 3328 
Q 3216 3053 3103 2787 
Q 2991 2522 2730 2228 
Q 2469 1934 1863 1422 
Q 1356 997 1212 845 
Q 1069 694 975 541 
L 3222 541 
z
" transform="scale(0.015625)"/>
       </defs>
       <use xlink:href="#ArialMT-32"/>
       <use xlink:href="#ArialMT-30" transform="translate(55.615234 0)"/>
       <use xlink:href="#ArialMT-30" transform="translate(111.230469 0)"/>
       <use xlink:href="#ArialMT-30" transform="translate(166.845703 0)"/>
      </g>
     </g>
    </g>
    <g id="ytick_4">
     <g id="line2d_22">
      <g>
       <use xlink:href="#meb503b2e56" x="67.71268" y="118.645878" style="stroke: #000000; stroke-width: 0.8"/>
      </g>
     </g>
     <g id="text_7">
      <!-- 3000 -->
      <g transform="translate(38.46893 122.224785) scale(0.1 -0.1)">
       <defs>
        <path id="ArialMT-33" d="M 269 1209 
L 831 1284 
Q 928 806 1161 595 
Q 1394 384 1728 384 
Q 2125 384 2398 659 
Q 2672 934 2672 1341 
Q 2672 1728 2419 1979 
Q 2166 2231 1775 2231 
Q 1616 2231 1378 2169 
L 1441 2663 
Q 1497 2656 1531 2656 
Q 1891 2656 2178 2843 
Q 2466 3031 2466 3422 
Q 2466 3731 2256 3934 
Q 2047 4138 1716 4138 
Q 1388 4138 1169 3931 
Q 950 3725 888 3313 
L 325 3413 
Q 428 3978 793 4289 
Q 1159 4600 1703 4600 
Q 2078 4600 2393 4439 
Q 2709 4278 2876 4000 
Q 3044 3722 3044 3409 
Q 3044 3113 2884 2869 
Q 2725 2625 2413 2481 
Q 2819 2388 3044 2092 
Q 3269 1797 3269 1353 
Q 3269 753 2831 336 
Q 2394 -81 1725 -81 
Q 1122 -81 723 278 
Q 325 638 269 1209 
z
" transform="scale(0.015625)"/>
       </defs>
       <use xlink:href="#ArialMT-33"/>
       <use xlink:href="#ArialMT-30" transform="translate(55.615234 0)"/>
       <use xlink:href="#ArialMT-30" transform="translate(111.230469 0)"/>
       <use xlink:href="#ArialMT-30" transform="translate(166.845703 0)"/>
      </g>
     </g>
    </g>
    <g id="ytick_5">
     <g id="line2d_23">
      <g>
       <use xlink:href="#meb503b2e56" x="67.71268" y="77.975394" style="stroke: #000000; stroke-width: 0.8"/>
      </g>
     </g>
     <g id="text_8">
      <!-- 4000 -->
      <g transform="translate(38.46893 81.554301) scale(0.1 -0.1)">
       <defs>
        <path id="ArialMT-34" d="M 2069 0 
L 2069 1097 
L 81 1097 
L 81 1613 
L 2172 4581 
L 2631 4581 
L 2631 1613 
L 3250 1613 
L 3250 1097 
L 2631 1097 
L 2631 0 
L 2069 0 
z
M 2069 1613 
L 2069 3678 
L 634 1613 
L 2069 1613 
z
" transform="scale(0.015625)"/>
       </defs>
       <use xlink:href="#ArialMT-34"/>
       <use xlink:href="#ArialMT-30" transform="translate(55.615234 0)"/>
       <use xlink:href="#ArialMT-30" transform="translate(111.230469 0)"/>
       <use xlink:href="#ArialMT-30" transform="translate(166.845703 0)"/>
      </g>
     </g>
    </g>
    <g id="ytick_6">
     <g id="line2d_24">
      <g>
       <use xlink:href="#meb503b2e56" x="67.71268" y="37.30491" style="stroke: #000000; stroke-width: 0.8"/>
      </g>
     </g>
     <g id="text_9">
      <!-- 5000 -->
      <g transform="translate(38.46893 40.883817) scale(0.1 -0.1)">
       <defs>
        <path id="ArialMT-35" d="M 266 1200 
L 856 1250 
Q 922 819 1161 601 
Q 1400 384 1738 384 
Q 2144 384 2425 690 
Q 2706 997 2706 1503 
Q 2706 1984 2436 2262 
Q 2166 2541 1728 2541 
Q 1456 2541 1237 2417 
Q 1019 2294 894 2097 
L 366 2166 
L 809 4519 
L 3088 4519 
L 3088 3981 
L 1259 3981 
L 1013 2750 
Q 1425 3038 1878 3038 
Q 2478 3038 2890 2622 
Q 3303 2206 3303 1553 
Q 3303 931 2941 478 
Q 2500 -78 1738 -78 
Q 1113 -78 717 272 
Q 322 622 266 1200 
z
" transform="scale(0.015625)"/>
       </defs>
       <use xlink:href="#ArialMT-35"/>
       <use xlink:href="#ArialMT-30" transform="translate(55.615234 0)"/>
       <use xlink:href="#ArialMT-30" transform="translate(111.230469 0)"/>
       <use xlink:href="#ArialMT-30" transform="translate(166.845703 0)"/>
      </g>
     </g>
    </g>
    <g id="text_10">
     <!-- Outgoing approaches -->
     <g transform="translate(30.259555 224.272521) rotate(-90) scale(0.2 -0.2)">
      <defs>
       <path id="ArialMT-4f" d="M 309 2231 
Q 309 3372 921 4017 
Q 1534 4663 2503 4663 
Q 3138 4663 3647 4359 
Q 4156 4056 4423 3514 
Q 4691 2972 4691 2284 
Q 4691 1588 4409 1038 
Q 4128 488 3612 205 
Q 3097 -78 2500 -78 
Q 1853 -78 1343 234 
Q 834 547 571 1087 
Q 309 1628 309 2231 
z
M 934 2222 
Q 934 1394 1379 917 
Q 1825 441 2497 441 
Q 3181 441 3623 922 
Q 4066 1403 4066 2288 
Q 4066 2847 3877 3264 
Q 3688 3681 3323 3911 
Q 2959 4141 2506 4141 
Q 1863 4141 1398 3698 
Q 934 3256 934 2222 
z
" transform="scale(0.015625)"/>
       <path id="ArialMT-67" d="M 319 -275 
L 866 -356 
Q 900 -609 1056 -725 
Q 1266 -881 1628 -881 
Q 2019 -881 2231 -725 
Q 2444 -569 2519 -288 
Q 2563 -116 2559 434 
Q 2191 0 1641 0 
Q 956 0 581 494 
Q 206 988 206 1678 
Q 206 2153 378 2554 
Q 550 2956 876 3175 
Q 1203 3394 1644 3394 
Q 2231 3394 2613 2919 
L 2613 3319 
L 3131 3319 
L 3131 450 
Q 3131 -325 2973 -648 
Q 2816 -972 2473 -1159 
Q 2131 -1347 1631 -1347 
Q 1038 -1347 672 -1080 
Q 306 -813 319 -275 
z
M 784 1719 
Q 784 1066 1043 766 
Q 1303 466 1694 466 
Q 2081 466 2343 764 
Q 2606 1063 2606 1700 
Q 2606 2309 2336 2618 
Q 2066 2928 1684 2928 
Q 1309 2928 1046 2623 
Q 784 2319 784 1719 
z
" transform="scale(0.015625)"/>
       <path id="ArialMT-69" d="M 425 3934 
L 425 4581 
L 988 4581 
L 988 3934 
L 425 3934 
z
M 425 0 
L 425 3319 
L 988 3319 
L 988 0 
L 425 0 
z
" transform="scale(0.015625)"/>
       <path id="ArialMT-20" transform="scale(0.015625)"/>
       <path id="ArialMT-70" d="M 422 -1272 
L 422 3319 
L 934 3319 
L 934 2888 
Q 1116 3141 1344 3267 
Q 1572 3394 1897 3394 
Q 2322 3394 2647 3175 
Q 2972 2956 3137 2557 
Q 3303 2159 3303 1684 
Q 3303 1175 3120 767 
Q 2938 359 2589 142 
Q 2241 -75 1856 -75 
Q 1575 -75 1351 44 
Q 1128 163 984 344 
L 984 -1272 
L 422 -1272 
z
M 931 1641 
Q 931 1000 1190 694 
Q 1450 388 1819 388 
Q 2194 388 2461 705 
Q 2728 1022 2728 1688 
Q 2728 2322 2467 2637 
Q 2206 2953 1844 2953 
Q 1484 2953 1207 2617 
Q 931 2281 931 1641 
z
" transform="scale(0.015625)"/>
       <path id="ArialMT-63" d="M 2588 1216 
L 3141 1144 
Q 3050 572 2676 248 
Q 2303 -75 1759 -75 
Q 1078 -75 664 370 
Q 250 816 250 1647 
Q 250 2184 428 2587 
Q 606 2991 970 3192 
Q 1334 3394 1763 3394 
Q 2303 3394 2647 3120 
Q 2991 2847 3088 2344 
L 2541 2259 
Q 2463 2594 2264 2762 
Q 2066 2931 1784 2931 
Q 1359 2931 1093 2626 
Q 828 2322 828 1663 
Q 828 994 1084 691 
Q 1341 388 1753 388 
Q 2084 388 2306 591 
Q 2528 794 2588 1216 
z
" transform="scale(0.015625)"/>
       <path id="ArialMT-68" d="M 422 0 
L 422 4581 
L 984 4581 
L 984 2938 
Q 1378 3394 1978 3394 
Q 2347 3394 2619 3248 
Q 2891 3103 3008 2847 
Q 3125 2591 3125 2103 
L 3125 0 
L 2563 0 
L 2563 2103 
Q 2563 2525 2380 2717 
Q 2197 2909 1863 2909 
Q 1613 2909 1392 2779 
Q 1172 2650 1078 2428 
Q 984 2206 984 1816 
L 984 0 
L 422 0 
z
" transform="scale(0.015625)"/>
      </defs>
      <use xlink:href="#ArialMT-4f"/>
      <use xlink:href="#ArialMT-75" transform="translate(77.783203 0)"/>
      <use xlink:href="#ArialMT-74" transform="translate(133.398438 0)"/>
      <use xlink:href="#ArialMT-67" transform="translate(161.181641 0)"/>
      <use xlink:href="#ArialMT-6f" transform="translate(216.796875 0)"/>
      <use xlink:href="#ArialMT-69" transform="translate(272.412109 0)"/>
      <use xlink:href="#ArialMT-6e" transform="translate(294.628906 0)"/>
      <use xlink:href="#ArialMT-67" transform="translate(350.244141 0)"/>
      <use xlink:href="#ArialMT-20" transform="translate(405.859375 0)"/>
      <use xlink:href="#ArialMT-61" transform="translate(433.642578 0)"/>
      <use xlink:href="#ArialMT-70" transform="translate(489.257812 0)"/>
      <use xlink:href="#ArialMT-70" transform="translate(544.873047 0)"/>
      <use xlink:href="#ArialMT-72" transform="translate(600.488281 0)"/>
      <use xlink:href="#ArialMT-6f" transform="translate(633.789062 0)"/>
      <use xlink:href="#ArialMT-61" transform="translate(689.404297 0)"/>
      <use xlink:href="#ArialMT-63" transform="translate(745.019531 0)"/>
      <use xlink:href="#ArialMT-68" transform="translate(795.019531 0)"/>
      <use xlink:href="#ArialMT-65" transform="translate(850.634766 0)"/>
      <use xlink:href="#ArialMT-73" transform="translate(906.25 0)"/>
     </g>
    </g>
   </g>
   <g id="line2d_25">
    <path d="M 119.050433 78.973977 
L 119.050433 76.170723 
L 324.401447 76.170723 
L 324.401447 78.973977 
" clip-path="url(#p9daba865af)" style="fill: none; stroke: #000000; stroke-linecap: square"/>
   </g>
   <g id="line2d_26">
    <path d="M 119.050433 46.463623 
L 119.050433 42.872655 
L 221.72594 42.872655 
L 221.72594 46.463623 
" clip-path="url(#p9daba865af)" style="fill: none; stroke: #000000; stroke-linecap: square"/>
   </g>
   <g id="line2d_27">
    <path d="M 221.72594 22.237647 
L 221.72594 17.914121 
L 324.401447 17.914121 
L 324.401447 22.237647 
" clip-path="url(#p9daba865af)" style="fill: none; stroke: #000000; stroke-linecap: square"/>
   </g>
   <g id="patch_6">
    <path d="M 67.71268 250.470667 
L 67.71268 6.84 
" style="fill: none; stroke: #000000; stroke-width: 0.8; stroke-linejoin: miter; stroke-linecap: square"/>
   </g>
   <g id="patch_7">
    <path d="M 67.71268 250.470667 
L 375.7392 250.470667 
" style="fill: none; stroke: #000000; stroke-width: 0.8; stroke-linejoin: miter; stroke-linecap: square"/>
   </g>
   <g id="text_11">
    <!-- *** -->
    <g transform="translate(210.049378 76.400604) scale(0.2 -0.2)">
     <defs>
      <path id="ArialMT-2a" d="M 200 3741 
L 344 4184 
Q 841 4009 1066 3881 
Q 1006 4447 1003 4659 
L 1456 4659 
Q 1447 4350 1384 3884 
Q 1706 4047 2122 4184 
L 2266 3741 
Q 1869 3609 1488 3566 
Q 1678 3400 2025 2975 
L 1650 2709 
Q 1469 2956 1222 3381 
Q 991 2941 816 2709 
L 447 2975 
Q 809 3422 966 3566 
Q 563 3644 200 3741 
z
" transform="scale(0.015625)"/>
     </defs>
     <use xlink:href="#ArialMT-2a"/>
     <use xlink:href="#ArialMT-2a" transform="translate(38.916016 0)"/>
     <use xlink:href="#ArialMT-2a" transform="translate(77.832031 0)"/>
    </g>
   </g>
   <g id="text_12">
    <!-- *** -->
    <g transform="translate(158.711624 44.284107) scale(0.2 -0.2)">
     <use xlink:href="#ArialMT-2a"/>
     <use xlink:href="#ArialMT-2a" transform="translate(38.916016 0)"/>
     <use xlink:href="#ArialMT-2a" transform="translate(77.832031 0)"/>
    </g>
   </g>
   <g id="text_13">
    <!-- p = 0.472 -->
    <g transform="translate(252.07385 13.764858) scale(0.1 -0.1)">
     <defs>
      <path id="ArialMT-3d" d="M 3381 2694 
L 356 2694 
L 356 3219 
L 3381 3219 
L 3381 2694 
z
M 3381 1303 
L 356 1303 
L 356 1828 
L 3381 1828 
L 3381 1303 
z
" transform="scale(0.015625)"/>
      <path id="ArialMT-2e" d="M 581 0 
L 581 641 
L 1222 641 
L 1222 0 
L 581 0 
z
" transform="scale(0.015625)"/>
      <path id="ArialMT-37" d="M 303 3981 
L 303 4522 
L 3269 4522 
L 3269 4084 
Q 2831 3619 2401 2847 
Q 1972 2075 1738 1259 
Q 1569 684 1522 0 
L 944 0 
Q 953 541 1156 1306 
Q 1359 2072 1739 2783 
Q 2119 3494 2547 3981 
L 303 3981 
z
" transform="scale(0.015625)"/>
     </defs>
     <use xlink:href="#ArialMT-70"/>
     <use xlink:href="#ArialMT-20" transform="translate(55.615234 0)"/>
     <use xlink:href="#ArialMT-3d" transform="translate(83.398438 0)"/>
     <use xlink:href="#ArialMT-20" transform="translate(141.796875 0)"/>
     <use xlink:href="#ArialMT-30" transform="translate(169.580078 0)"/>
     <use xlink:href="#ArialMT-2e" transform="translate(225.195312 0)"/>
     <use xlink:href="#ArialMT-34" transform="translate(252.978516 0)"/>
     <use xlink:href="#ArialMT-37" transform="translate(308.59375 0)"/>
     <use xlink:href="#ArialMT-32" transform="translate(364.208984 0)"/>
    </g>
   </g>
  </g>
 </g>
 <defs>
  <clipPath id="p9daba865af">
   <rect x="67.71268" y="6.84" width="308.02652" height="243.630667"/>
  </clipPath>
 </defs>
</svg>
