<?xml version="1.0" encoding="utf-8" standalone="no"?>
<!DOCTYPE svg PUBLIC "-//W3C//DTD SVG 1.1//EN"
  "http://www.w3.org/Graphics/SVG/1.1/DTD/svg11.dtd">
<svg xmlns:xlink="http://www.w3.org/1999/xlink" width="460.8pt" height="345.6pt" viewBox="0 0 460.8 345.6" xmlns="http://www.w3.org/2000/svg" version="1.1">
 <metadata>
  <rdf:RDF xmlns:dc="http://purl.org/dc/elements/1.1/" xmlns:cc="http://creativecommons.org/ns#" xmlns:rdf="http://www.w3.org/1999/02/22-rdf-syntax-ns#">
   <cc:Work>
    <dc:type rdf:resource="http://purl.org/dc/dcmitype/StillImage"/>
    <dc:date>2025-06-03T11:46:44.004338</dc:date>
    <dc:format>image/svg+xml</dc:format>
    <dc:creator>
     <cc:Agent>
      <dc:title>Matplotlib v3.9.2, https://matplotlib.org/</dc:title>
     </cc:Agent>
    </dc:creator>
   </cc:Work>
  </rdf:RDF>
 </metadata>
 <defs>
  <style type="text/css">*{stroke-linejoin: round; stroke-linecap: butt}</style>
 </defs>
 <g id="figure_1">
  <g id="patch_1">
   <path d="M 0 345.6 
L 460.8 345.6 
L 460.8 0 
L 0 0 
z
" style="fill: #ffffff"/>
  </g>
  <g id="axes_1">
   <g id="patch_2">
    <path d="M 57.6 307.584 
L 414.72 307.584 
L 414.72 41.472 
L 57.6 41.472 
z
" style="fill: #ffffff"/>
   </g>
   <g id="patch_3">
    <path d="M 81.408 236.993481 
L 152.832 236.993481 
L 152.832 198.356224 
L 81.408 198.356224 
L 81.408 236.993481 
z
" clip-path="url(#pa0cda96385)" style="fill: #a1c9f4; stroke: #000000; stroke-linejoin: miter"/>
   </g>
   <g id="line2d_1">
    <path d="M 117.12 236.993481 
L 117.12 271.143974 
" clip-path="url(#pa0cda96385)" style="fill: none; stroke: #000000; stroke-linecap: square"/>
   </g>
   <g id="line2d_2">
    <path d="M 117.12 198.356224 
L 117.12 156.309471 
" clip-path="url(#pa0cda96385)" style="fill: none; stroke: #000000; stroke-linecap: square"/>
   </g>
   <g id="line2d_3">
    <path d="M 99.264 271.143974 
L 134.976 271.143974 
" clip-path="url(#pa0cda96385)" style="fill: none; stroke: #000000; stroke-linecap: square"/>
   </g>
   <g id="line2d_4">
    <path d="M 99.264 156.309471 
L 134.976 156.309471 
" clip-path="url(#pa0cda96385)" style="fill: none; stroke: #000000; stroke-linecap: square"/>
   </g>
   <g id="patch_4">
    <path d="M 200.448 279.606633 
L 271.872 279.606633 
L 271.872 251.775369 
L 200.448 251.775369 
L 200.448 279.606633 
z
" clip-path="url(#pa0cda96385)" style="fill: #ffb482; stroke: #000000; stroke-linejoin: miter"/>
   </g>
   <g id="line2d_5">
    <path d="M 236.16 279.606633 
L 236.16 294.155298 
" clip-path="url(#pa0cda96385)" style="fill: none; stroke: #000000; stroke-linecap: square"/>
   </g>
   <g id="line2d_6">
    <path d="M 236.16 251.775369 
L 236.16 218.235698 
" clip-path="url(#pa0cda96385)" style="fill: none; stroke: #000000; stroke-linecap: square"/>
   </g>
   <g id="line2d_7">
    <path d="M 218.304 294.155298 
L 254.016 294.155298 
" clip-path="url(#pa0cda96385)" style="fill: none; stroke: #000000; stroke-linecap: square"/>
   </g>
   <g id="line2d_8">
    <path d="M 218.304 218.235698 
L 254.016 218.235698 
" clip-path="url(#pa0cda96385)" style="fill: none; stroke: #000000; stroke-linecap: square"/>
   </g>
   <g id="patch_5">
    <path d="M 319.488 286.025815 
L 390.912 286.025815 
L 390.912 257.283871 
L 319.488 257.283871 
L 319.488 286.025815 
z
" clip-path="url(#pa0cda96385)" style="fill: #8de5a1; stroke: #000000; stroke-linejoin: miter"/>
   </g>
   <g id="line2d_9">
    <path d="M 355.2 286.025815 
L 355.2 295.488 
" clip-path="url(#pa0cda96385)" style="fill: none; stroke: #000000; stroke-linecap: square"/>
   </g>
   <g id="line2d_10">
    <path d="M 355.2 257.283871 
L 355.2 228.097694 
" clip-path="url(#pa0cda96385)" style="fill: none; stroke: #000000; stroke-linecap: square"/>
   </g>
   <g id="line2d_11">
    <path d="M 337.344 295.488 
L 373.056 295.488 
" clip-path="url(#pa0cda96385)" style="fill: none; stroke: #000000; stroke-linecap: square"/>
   </g>
   <g id="line2d_12">
    <path d="M 337.344 228.097694 
L 373.056 228.097694 
" clip-path="url(#pa0cda96385)" style="fill: none; stroke: #000000; stroke-linecap: square"/>
   </g>
   <g id="PathCollection_1">
    <defs>
     <path id="m103b60dfe5" d="M 0 3.162278 
C 0.838646 3.162278 1.643056 2.82908 2.236068 2.236068 
C 2.82908 1.643056 3.162278 0.838646 3.162278 0 
C 3.162278 -0.838646 2.82908 -1.643056 2.236068 -2.236068 
C 1.643056 -2.82908 0.838646 -3.162278 0 -3.162278 
C -0.838646 -3.162278 -1.643056 -2.82908 -2.236068 -2.236068 
C -2.82908 -1.643056 -3.162278 -0.838646 -3.162278 0 
C -3.162278 0.838646 -2.82908 1.643056 -2.236068 2.236068 
C -1.643056 2.82908 -0.838646 3.162278 0 3.162278 
z
" style="stroke: #1f77b4"/>
    </defs>
    <g clip-path="url(#pa0cda96385)">
     <use xlink:href="#m103b60dfe5" x="133.228124" y="233.695043" style="fill: #1f77b4; stroke: #1f77b4"/>
     <use xlink:href="#m103b60dfe5" x="122.070818" y="235.694097" style="fill: #1f77b4; stroke: #1f77b4"/>
     <use xlink:href="#m103b60dfe5" x="115.05123" y="219.257437" style="fill: #1f77b4; stroke: #1f77b4"/>
     <use xlink:href="#m103b60dfe5" x="115.516256" y="224.188435" style="fill: #1f77b4; stroke: #1f77b4"/>
     <use xlink:href="#m103b60dfe5" x="121.471089" y="243.423769" style="fill: #1f77b4; stroke: #1f77b4"/>
     <use xlink:href="#m103b60dfe5" x="130.291292" y="140.050505" style="fill: #1f77b4; stroke: #1f77b4"/>
     <use xlink:href="#m103b60dfe5" x="113.254114" y="156.309471" style="fill: #1f77b4; stroke: #1f77b4"/>
     <use xlink:href="#m103b60dfe5" x="119.383219" y="205.397334" style="fill: #1f77b4; stroke: #1f77b4"/>
     <use xlink:href="#m103b60dfe5" x="113.140068" y="249.643046" style="fill: #1f77b4; stroke: #1f77b4"/>
     <use xlink:href="#m103b60dfe5" x="119.977626" y="237.426609" style="fill: #1f77b4; stroke: #1f77b4"/>
     <use xlink:href="#m103b60dfe5" x="116.514741" y="216.414339" style="fill: #1f77b4; stroke: #1f77b4"/>
     <use xlink:href="#m103b60dfe5" x="116.207458" y="271.143974" style="fill: #1f77b4; stroke: #1f77b4"/>
     <use xlink:href="#m103b60dfe5" x="108.177787" y="237.95969" style="fill: #1f77b4; stroke: #1f77b4"/>
     <use xlink:href="#m103b60dfe5" x="108.972948" y="222.500345" style="fill: #1f77b4; stroke: #1f77b4"/>
     <use xlink:href="#m103b60dfe5" x="125.638113" y="231.296179" style="fill: #1f77b4; stroke: #1f77b4"/>
     <use xlink:href="#m103b60dfe5" x="113.568278" y="182.11947" style="fill: #1f77b4; stroke: #1f77b4"/>
     <use xlink:href="#m103b60dfe5" x="111.279487" y="173.279212" style="fill: #1f77b4; stroke: #1f77b4"/>
     <use xlink:href="#m103b60dfe5" x="119.855661" y="201.887885" style="fill: #1f77b4; stroke: #1f77b4"/>
     <use xlink:href="#m103b60dfe5" x="109.291718" y="231.296179" style="fill: #1f77b4; stroke: #1f77b4"/>
     <use xlink:href="#m103b60dfe5" x="117.765683" y="250.975748" style="fill: #1f77b4; stroke: #1f77b4"/>
     <use xlink:href="#m103b60dfe5" x="108.492424" y="238.759311" style="fill: #1f77b4; stroke: #1f77b4"/>
     <use xlink:href="#m103b60dfe5" x="115.845229" y="172.657284" style="fill: #1f77b4; stroke: #1f77b4"/>
     <use xlink:href="#m103b60dfe5" x="100.892139" y="169.147835" style="fill: #1f77b4; stroke: #1f77b4"/>
     <use xlink:href="#m103b60dfe5" x="114.703134" y="197.179004" style="fill: #1f77b4; stroke: #1f77b4"/>
     <use xlink:href="#m103b60dfe5" x="115.095341" y="214.059898" style="fill: #1f77b4; stroke: #1f77b4"/>
     <use xlink:href="#m103b60dfe5" x="122.278666" y="205.575028" style="fill: #1f77b4; stroke: #1f77b4"/>
    </g>
   </g>
   <g id="PathCollection_2">
    <defs>
     <path id="m250406ee3f" d="M 0 3.162278 
C 0.838646 3.162278 1.643056 2.82908 2.236068 2.236068 
C 2.82908 1.643056 3.162278 0.838646 3.162278 0 
C 3.162278 -0.838646 2.82908 -1.643056 2.236068 -2.236068 
C 1.643056 -2.82908 0.838646 -3.162278 0 -3.162278 
C -0.838646 -3.162278 -1.643056 -2.82908 -2.236068 -2.236068 
C -2.82908 -1.643056 -3.162278 -0.838646 -3.162278 0 
C -3.162278 0.838646 -2.82908 1.643056 -2.236068 2.236068 
C -1.643056 2.82908 -0.838646 3.162278 0 3.162278 
z
" style="stroke: #ff7f0e"/>
    </defs>
    <g clip-path="url(#pa0cda96385)">
     <use xlink:href="#m250406ee3f" x="226.608631" y="239.958743" style="fill: #ff7f0e; stroke: #ff7f0e"/>
     <use xlink:href="#m250406ee3f" x="227.955702" y="268.87838" style="fill: #ff7f0e; stroke: #ff7f0e"/>
     <use xlink:href="#m250406ee3f" x="233.844796" y="256.395403" style="fill: #ff7f0e; stroke: #ff7f0e"/>
     <use xlink:href="#m250406ee3f" x="243.004907" y="276.83017" style="fill: #ff7f0e; stroke: #ff7f0e"/>
     <use xlink:href="#m250406ee3f" x="234.918026" y="281.761168" style="fill: #ff7f0e; stroke: #ff7f0e"/>
     <use xlink:href="#m250406ee3f" x="247.493964" y="220.723409" style="fill: #ff7f0e; stroke: #ff7f0e"/>
     <use xlink:href="#m250406ee3f" x="239.996809" y="279.31788" style="fill: #ff7f0e; stroke: #ff7f0e"/>
     <use xlink:href="#m250406ee3f" x="239.390645" y="271.765902" style="fill: #ff7f0e; stroke: #ff7f0e"/>
     <use xlink:href="#m250406ee3f" x="239.246562" y="249.776316" style="fill: #ff7f0e; stroke: #ff7f0e"/>
     <use xlink:href="#m250406ee3f" x="236.252715" y="184.029676" style="fill: #ff7f0e; stroke: #ff7f0e"/>
     <use xlink:href="#m250406ee3f" x="236.98237" y="275.541891" style="fill: #ff7f0e; stroke: #ff7f0e"/>
     <use xlink:href="#m250406ee3f" x="233.230923" y="276.208242" style="fill: #ff7f0e; stroke: #ff7f0e"/>
     <use xlink:href="#m250406ee3f" x="228.868081" y="257.728106" style="fill: #ff7f0e; stroke: #ff7f0e"/>
     <use xlink:href="#m250406ee3f" x="239.963237" y="272.92091" style="fill: #ff7f0e; stroke: #ff7f0e"/>
     <use xlink:href="#m250406ee3f" x="247.412163" y="255.640205" style="fill: #ff7f0e; stroke: #ff7f0e"/>
     <use xlink:href="#m250406ee3f" x="244.085021" y="218.235698" style="fill: #ff7f0e; stroke: #ff7f0e"/>
     <use xlink:href="#m250406ee3f" x="246.598878" y="194.335906" style="fill: #ff7f0e; stroke: #ff7f0e"/>
     <use xlink:href="#m250406ee3f" x="234.366225" y="294.155298" style="fill: #ff7f0e; stroke: #ff7f0e"/>
     <use xlink:href="#m250406ee3f" x="228.160426" y="291.045659" style="fill: #ff7f0e; stroke: #ff7f0e"/>
     <use xlink:href="#m250406ee3f" x="245.482424" y="292.911442" style="fill: #ff7f0e; stroke: #ff7f0e"/>
     <use xlink:href="#m250406ee3f" x="246.030756" y="291.667587" style="fill: #ff7f0e; stroke: #ff7f0e"/>
     <use xlink:href="#m250406ee3f" x="235.796424" y="290.779119" style="fill: #ff7f0e; stroke: #ff7f0e"/>
     <use xlink:href="#m250406ee3f" x="233.66267" y="290.423732" style="fill: #ff7f0e; stroke: #ff7f0e"/>
     <use xlink:href="#m250406ee3f" x="236.436715" y="271.854748" style="fill: #ff7f0e; stroke: #ff7f0e"/>
     <use xlink:href="#m250406ee3f" x="229.425664" y="192.514547" style="fill: #ff7f0e; stroke: #ff7f0e"/>
     <use xlink:href="#m250406ee3f" x="239.069764" y="242.00222" style="fill: #ff7f0e; stroke: #ff7f0e"/>
     <use xlink:href="#m250406ee3f" x="231.032054" y="258.394457" style="fill: #ff7f0e; stroke: #ff7f0e"/>
     <use xlink:href="#m250406ee3f" x="239.751128" y="279.895385" style="fill: #ff7f0e; stroke: #ff7f0e"/>
     <use xlink:href="#m250406ee3f" x="239.343904" y="271.188397" style="fill: #ff7f0e; stroke: #ff7f0e"/>
     <use xlink:href="#m250406ee3f" x="245.993867" y="269.766848" style="fill: #ff7f0e; stroke: #ff7f0e"/>
     <use xlink:href="#m250406ee3f" x="232.973968" y="253.774422" style="fill: #ff7f0e; stroke: #ff7f0e"/>
    </g>
   </g>
   <g id="PathCollection_3">
    <defs>
     <path id="m6f8268f0c8" d="M 0 3.162278 
C 0.838646 3.162278 1.643056 2.82908 2.236068 2.236068 
C 2.82908 1.643056 3.162278 0.838646 3.162278 0 
C 3.162278 -0.838646 2.82908 -1.643056 2.236068 -2.236068 
C 1.643056 -2.82908 0.838646 -3.162278 0 -3.162278 
C -0.838646 -3.162278 -1.643056 -2.82908 -2.236068 -2.236068 
C -2.82908 -1.643056 -3.162278 -0.838646 -3.162278 0 
C -3.162278 0.838646 -2.82908 1.643056 -2.236068 2.236068 
C -1.643056 2.82908 -0.838646 3.162278 0 3.162278 
z
" style="stroke: #2ca02c"/>
    </defs>
    <g clip-path="url(#pa0cda96385)">
     <use xlink:href="#m6f8268f0c8" x="347.681584" y="274.209189" style="fill: #2ca02c; stroke: #2ca02c"/>
     <use xlink:href="#m6f8268f0c8" x="359.235717" y="247.199758" style="fill: #2ca02c; stroke: #2ca02c"/>
     <use xlink:href="#m6f8268f0c8" x="352.993176" y="259.460618" style="fill: #2ca02c; stroke: #2ca02c"/>
     <use xlink:href="#m6f8268f0c8" x="355.021221" y="276.874593" style="fill: #2ca02c; stroke: #2ca02c"/>
     <use xlink:href="#m6f8268f0c8" x="351.735734" y="280.517312" style="fill: #2ca02c; stroke: #2ca02c"/>
     <use xlink:href="#m6f8268f0c8" x="354.529503" y="264.791427" style="fill: #2ca02c; stroke: #2ca02c"/>
     <use xlink:href="#m6f8268f0c8" x="352.099173" y="269.589155" style="fill: #2ca02c; stroke: #2ca02c"/>
     <use xlink:href="#m6f8268f0c8" x="360.632558" y="263.058914" style="fill: #2ca02c; stroke: #2ca02c"/>
     <use xlink:href="#m6f8268f0c8" x="350.5931" y="286.070238" style="fill: #2ca02c; stroke: #2ca02c"/>
     <use xlink:href="#m6f8268f0c8" x="362.0115" y="258.394457" style="fill: #2ca02c; stroke: #2ca02c"/>
     <use xlink:href="#m6f8268f0c8" x="364.690142" y="290.023921" style="fill: #2ca02c; stroke: #2ca02c"/>
     <use xlink:href="#m6f8268f0c8" x="345.773832" y="263.103338" style="fill: #2ca02c; stroke: #2ca02c"/>
     <use xlink:href="#m6f8268f0c8" x="357.129586" y="284.648689" style="fill: #2ca02c; stroke: #2ca02c"/>
     <use xlink:href="#m6f8268f0c8" x="361.481971" y="270.83301" style="fill: #2ca02c; stroke: #2ca02c"/>
     <use xlink:href="#m6f8268f0c8" x="360.935402" y="283.937915" style="fill: #2ca02c; stroke: #2ca02c"/>
     <use xlink:href="#m6f8268f0c8" x="362.299457" y="196.86804" style="fill: #2ca02c; stroke: #2ca02c"/>
     <use xlink:href="#m6f8268f0c8" x="354.114556" y="228.097694" style="fill: #2ca02c; stroke: #2ca02c"/>
     <use xlink:href="#m6f8268f0c8" x="348.736915" y="263.192184" style="fill: #2ca02c; stroke: #2ca02c"/>
     <use xlink:href="#m6f8268f0c8" x="359.956963" y="287.225247" style="fill: #2ca02c; stroke: #2ca02c"/>
     <use xlink:href="#m6f8268f0c8" x="357.961498" y="245.511669" style="fill: #2ca02c; stroke: #2ca02c"/>
     <use xlink:href="#m6f8268f0c8" x="355.845735" y="275.186504" style="fill: #2ca02c; stroke: #2ca02c"/>
     <use xlink:href="#m6f8268f0c8" x="345.738087" y="288.824489" style="fill: #2ca02c; stroke: #2ca02c"/>
     <use xlink:href="#m6f8268f0c8" x="359.817698" y="270.96628" style="fill: #2ca02c; stroke: #2ca02c"/>
     <use xlink:href="#m6f8268f0c8" x="358.097508" y="268.345299" style="fill: #2ca02c; stroke: #2ca02c"/>
     <use xlink:href="#m6f8268f0c8" x="347.475273" y="268.47857" style="fill: #2ca02c; stroke: #2ca02c"/>
     <use xlink:href="#m6f8268f0c8" x="351.576109" y="254.751737" style="fill: #2ca02c; stroke: #2ca02c"/>
     <use xlink:href="#m6f8268f0c8" x="351.124895" y="197.623238" style="fill: #2ca02c; stroke: #2ca02c"/>
     <use xlink:href="#m6f8268f0c8" x="354.639833" y="243.601463" style="fill: #2ca02c; stroke: #2ca02c"/>
     <use xlink:href="#m6f8268f0c8" x="361.356903" y="230.718675" style="fill: #2ca02c; stroke: #2ca02c"/>
     <use xlink:href="#m6f8268f0c8" x="363.185397" y="279.939808" style="fill: #2ca02c; stroke: #2ca02c"/>
     <use xlink:href="#m6f8268f0c8" x="349.457227" y="239.869897" style="fill: #2ca02c; stroke: #2ca02c"/>
     <use xlink:href="#m6f8268f0c8" x="371.050986" y="272.65437" style="fill: #2ca02c; stroke: #2ca02c"/>
     <use xlink:href="#m6f8268f0c8" x="360.691356" y="265.368931" style="fill: #2ca02c; stroke: #2ca02c"/>
     <use xlink:href="#m6f8268f0c8" x="350.610282" y="294.288568" style="fill: #2ca02c; stroke: #2ca02c"/>
     <use xlink:href="#m6f8268f0c8" x="356.240663" y="294.999343" style="fill: #2ca02c; stroke: #2ca02c"/>
     <use xlink:href="#m6f8268f0c8" x="351.87284" y="275.230927" style="fill: #2ca02c; stroke: #2ca02c"/>
     <use xlink:href="#m6f8268f0c8" x="355.474833" y="295.488" style="fill: #2ca02c; stroke: #2ca02c"/>
     <use xlink:href="#m6f8268f0c8" x="358.034961" y="286.025815" style="fill: #2ca02c; stroke: #2ca02c"/>
     <use xlink:href="#m6f8268f0c8" x="366.428814" y="288.069291" style="fill: #2ca02c; stroke: #2ca02c"/>
     <use xlink:href="#m6f8268f0c8" x="356.154164" y="283.09387" style="fill: #2ca02c; stroke: #2ca02c"/>
     <use xlink:href="#m6f8268f0c8" x="344.890313" y="257.816952" style="fill: #2ca02c; stroke: #2ca02c"/>
     <use xlink:href="#m6f8268f0c8" x="348.102635" y="274.964387" style="fill: #2ca02c; stroke: #2ca02c"/>
     <use xlink:href="#m6f8268f0c8" x="348.522533" y="272.565523" style="fill: #2ca02c; stroke: #2ca02c"/>
     <use xlink:href="#m6f8268f0c8" x="363.614124" y="259.993699" style="fill: #2ca02c; stroke: #2ca02c"/>
     <use xlink:href="#m6f8268f0c8" x="355.94219" y="258.838691" style="fill: #2ca02c; stroke: #2ca02c"/>
     <use xlink:href="#m6f8268f0c8" x="353.68674" y="230.540982" style="fill: #2ca02c; stroke: #2ca02c"/>
     <use xlink:href="#m6f8268f0c8" x="345.971731" y="250.35382" style="fill: #2ca02c; stroke: #2ca02c"/>
     <use xlink:href="#m6f8268f0c8" x="351.128819" y="257.283871" style="fill: #2ca02c; stroke: #2ca02c"/>
     <use xlink:href="#m6f8268f0c8" x="353.222921" y="286.781013" style="fill: #2ca02c; stroke: #2ca02c"/>
     <use xlink:href="#m6f8268f0c8" x="356.459534" y="210.417179" style="fill: #2ca02c; stroke: #2ca02c"/>
     <use xlink:href="#m6f8268f0c8" x="352.546138" y="181.231002" style="fill: #2ca02c; stroke: #2ca02c"/>
     <use xlink:href="#m6f8268f0c8" x="365.401127" y="194.247059" style="fill: #2ca02c; stroke: #2ca02c"/>
     <use xlink:href="#m6f8268f0c8" x="356.692126" y="252.30845" style="fill: #2ca02c; stroke: #2ca02c"/>
     <use xlink:href="#m6f8268f0c8" x="351.614983" y="258.127916" style="fill: #2ca02c; stroke: #2ca02c"/>
     <use xlink:href="#m6f8268f0c8" x="346.175582" y="280.295195" style="fill: #2ca02c; stroke: #2ca02c"/>
     <use xlink:href="#m6f8268f0c8" x="335.172011" y="266.257399" style="fill: #2ca02c; stroke: #2ca02c"/>
     <use xlink:href="#m6f8268f0c8" x="361.249802" y="242.979535" style="fill: #2ca02c; stroke: #2ca02c"/>
     <use xlink:href="#m6f8268f0c8" x="363.364256" y="193.936096" style="fill: #2ca02c; stroke: #2ca02c"/>
     <use xlink:href="#m6f8268f0c8" x="343.445457" y="261.592942" style="fill: #2ca02c; stroke: #2ca02c"/>
     <use xlink:href="#m6f8268f0c8" x="353.040155" y="276.6969" style="fill: #2ca02c; stroke: #2ca02c"/>
     <use xlink:href="#m6f8268f0c8" x="357.204663" y="252.663837" style="fill: #2ca02c; stroke: #2ca02c"/>
     <use xlink:href="#m6f8268f0c8" x="359.839704" y="269.544731" style="fill: #2ca02c; stroke: #2ca02c"/>
     <use xlink:href="#m6f8268f0c8" x="352.874296" y="267.901065" style="fill: #2ca02c; stroke: #2ca02c"/>
     <use xlink:href="#m6f8268f0c8" x="358.196776" y="209.484287" style="fill: #2ca02c; stroke: #2ca02c"/>
     <use xlink:href="#m6f8268f0c8" x="347.800588" y="255.195971" style="fill: #2ca02c; stroke: #2ca02c"/>
     <use xlink:href="#m6f8268f0c8" x="356.647742" y="240.04759" style="fill: #2ca02c; stroke: #2ca02c"/>
     <use xlink:href="#m6f8268f0c8" x="353.161346" y="244.401084" style="fill: #2ca02c; stroke: #2ca02c"/>
     <use xlink:href="#m6f8268f0c8" x="355.081739" y="277.22998" style="fill: #2ca02c; stroke: #2ca02c"/>
     <use xlink:href="#m6f8268f0c8" x="360.493414" y="258.70542" style="fill: #2ca02c; stroke: #2ca02c"/>
     <use xlink:href="#m6f8268f0c8" x="349.74973" y="293.444523" style="fill: #2ca02c; stroke: #2ca02c"/>
     <use xlink:href="#m6f8268f0c8" x="359.299603" y="291.889704" style="fill: #2ca02c; stroke: #2ca02c"/>
     <use xlink:href="#m6f8268f0c8" x="350.589737" y="291.889704" style="fill: #2ca02c; stroke: #2ca02c"/>
     <use xlink:href="#m6f8268f0c8" x="350.699234" y="291.667587" style="fill: #2ca02c; stroke: #2ca02c"/>
     <use xlink:href="#m6f8268f0c8" x="350.341653" y="289.846228" style="fill: #2ca02c; stroke: #2ca02c"/>
     <use xlink:href="#m6f8268f0c8" x="349.402449" y="292.467208" style="fill: #2ca02c; stroke: #2ca02c"/>
     <use xlink:href="#m6f8268f0c8" x="344.096184" y="288.868913" style="fill: #2ca02c; stroke: #2ca02c"/>
     <use xlink:href="#m6f8268f0c8" x="362.196407" y="293.53337" style="fill: #2ca02c; stroke: #2ca02c"/>
     <use xlink:href="#m6f8268f0c8" x="354.668733" y="290.956813" style="fill: #2ca02c; stroke: #2ca02c"/>
     <use xlink:href="#m6f8268f0c8" x="352.546596" y="293.755487" style="fill: #2ca02c; stroke: #2ca02c"/>
     <use xlink:href="#m6f8268f0c8" x="362.574482" y="293.222406" style="fill: #2ca02c; stroke: #2ca02c"/>
     <use xlink:href="#m6f8268f0c8" x="350.131163" y="291.267776" style="fill: #2ca02c; stroke: #2ca02c"/>
     <use xlink:href="#m6f8268f0c8" x="354.776558" y="291.401047" style="fill: #2ca02c; stroke: #2ca02c"/>
     <use xlink:href="#m6f8268f0c8" x="354.095699" y="288.158138" style="fill: #2ca02c; stroke: #2ca02c"/>
     <use xlink:href="#m6f8268f0c8" x="357.112971" y="249.776316" style="fill: #2ca02c; stroke: #2ca02c"/>
     <use xlink:href="#m6f8268f0c8" x="349.913749" y="259.638312" style="fill: #2ca02c; stroke: #2ca02c"/>
     <use xlink:href="#m6f8268f0c8" x="352.224692" y="274.564576" style="fill: #2ca02c; stroke: #2ca02c"/>
     <use xlink:href="#m6f8268f0c8" x="356.042011" y="260.082546" style="fill: #2ca02c; stroke: #2ca02c"/>
     <use xlink:href="#m6f8268f0c8" x="351.577939" y="280.339619" style="fill: #2ca02c; stroke: #2ca02c"/>
     <use xlink:href="#m6f8268f0c8" x="352.081067" y="270.610893" style="fill: #2ca02c; stroke: #2ca02c"/>
     <use xlink:href="#m6f8268f0c8" x="341.81312" y="266.301823" style="fill: #2ca02c; stroke: #2ca02c"/>
     <use xlink:href="#m6f8268f0c8" x="355.756629" y="272.076865" style="fill: #2ca02c; stroke: #2ca02c"/>
     <use xlink:href="#m6f8268f0c8" x="354.323044" y="280.472889" style="fill: #2ca02c; stroke: #2ca02c"/>
     <use xlink:href="#m6f8268f0c8" x="348.027513" y="273.764955" style="fill: #2ca02c; stroke: #2ca02c"/>
    </g>
   </g>
   <g id="line2d_13">
    <path d="M 81.408 220.878891 
L 152.832 220.878891 
" clip-path="url(#pa0cda96385)" style="fill: none; stroke: #000000"/>
   </g>
   <g id="line2d_14">
    <path d="M 200.448 271.188397 
L 271.872 271.188397 
" clip-path="url(#pa0cda96385)" style="fill: none; stroke: #000000"/>
   </g>
   <g id="line2d_15">
    <path d="M 319.488 270.610893 
L 390.912 270.610893 
" clip-path="url(#pa0cda96385)" style="fill: none; stroke: #000000"/>
   </g>
   <g id="matplotlib.axis_1">
    <g id="xtick_1">
     <g id="line2d_16">
      <defs>
       <path id="mdc262e9c70" d="M 0 0 
L 0 3.5 
" style="stroke: #000000; stroke-width: 0.8"/>
      </defs>
      <g>
       <use xlink:href="#mdc262e9c70" x="117.12" y="307.584" style="stroke: #000000; stroke-width: 0.8"/>
      </g>
     </g>
     <g id="text_1">
      <!-- RC -->
      <g transform="translate(101.93875 329.780875) scale(0.2 -0.2)">
       <defs>
        <path id="DejaVuSerif-52" d="M 3066 2316 
Q 3284 2256 3442 2114 
Q 3600 1972 3725 1716 
L 4403 331 
L 4972 331 
L 4972 0 
L 3872 0 
L 3144 1484 
Q 2934 1916 2759 2042 
Q 2584 2169 2278 2169 
L 1581 2169 
L 1581 331 
L 2241 331 
L 2241 0 
L 353 0 
L 353 331 
L 947 331 
L 947 4331 
L 353 4331 
L 353 4666 
L 2719 4666 
Q 3400 4666 3770 4341 
Q 4141 4016 4141 3419 
Q 4141 2938 3870 2661 
Q 3600 2384 3066 2316 
z
M 1581 2503 
L 2503 2503 
Q 2975 2503 3200 2726 
Q 3425 2950 3425 3419 
Q 3425 3888 3200 4109 
Q 2975 4331 2503 4331 
L 1581 4331 
L 1581 2503 
z
" transform="scale(0.015625)"/>
        <path id="DejaVuSerif-43" d="M 4513 1234 
Q 4306 581 3820 245 
Q 3334 -91 2591 -91 
Q 2134 -91 1743 65 
Q 1353 222 1050 525 
Q 700 875 529 1320 
Q 359 1766 359 2328 
Q 359 3416 987 4083 
Q 1616 4750 2644 4750 
Q 3025 4750 3456 4650 
Q 3888 4550 4384 4347 
L 4384 3272 
L 4031 3272 
Q 3916 3859 3567 4137 
Q 3219 4416 2591 4416 
Q 1844 4416 1459 3886 
Q 1075 3356 1075 2328 
Q 1075 1303 1459 773 
Q 1844 244 2591 244 
Q 3113 244 3450 492 
Q 3788 741 3938 1234 
L 4513 1234 
z
" transform="scale(0.015625)"/>
       </defs>
       <use xlink:href="#DejaVuSerif-52"/>
       <use xlink:href="#DejaVuSerif-43" x="75.292969"/>
      </g>
     </g>
    </g>
    <g id="xtick_2">
     <g id="line2d_17">
      <g>
       <use xlink:href="#mdc262e9c70" x="236.16" y="307.584" style="stroke: #000000; stroke-width: 0.8"/>
      </g>
     </g>
     <g id="text_2">
      <!-- Mutants -->
      <g transform="translate(193.908437 329.780875) scale(0.2 -0.2)">
       <defs>
        <path id="DejaVuSerif-4d" d="M 353 0 
L 353 331 
L 947 331 
L 947 4331 
L 319 4331 
L 319 4666 
L 1678 4666 
L 3316 1344 
L 4953 4666 
L 6228 4666 
L 6228 4331 
L 5606 4331 
L 5606 331 
L 6203 331 
L 6203 0 
L 4378 0 
L 4378 331 
L 4972 331 
L 4972 3938 
L 3372 684 
L 2931 684 
L 1331 3938 
L 1331 331 
L 1925 331 
L 1925 0 
L 353 0 
z
" transform="scale(0.015625)"/>
        <path id="DejaVuSerif-75" d="M 2266 3322 
L 3341 3322 
L 3341 331 
L 3884 331 
L 3884 0 
L 2766 0 
L 2766 588 
Q 2606 256 2353 82 
Q 2100 -91 1766 -91 
Q 1213 -91 952 223 
Q 691 538 691 1209 
L 691 2988 
L 172 2988 
L 172 3322 
L 1269 3322 
L 1269 1388 
Q 1269 781 1417 556 
Q 1566 331 1947 331 
Q 2347 331 2556 625 
Q 2766 919 2766 1478 
L 2766 2988 
L 2266 2988 
L 2266 3322 
z
" transform="scale(0.015625)"/>
        <path id="DejaVuSerif-74" d="M 691 2988 
L 184 2988 
L 184 3322 
L 691 3322 
L 691 4353 
L 1269 4353 
L 1269 3322 
L 2350 3322 
L 2350 2988 
L 1269 2988 
L 1269 878 
Q 1269 456 1350 337 
Q 1431 219 1650 219 
Q 1875 219 1978 351 
Q 2081 484 2088 781 
L 2522 781 
Q 2497 328 2275 118 
Q 2053 -91 1600 -91 
Q 1103 -91 897 129 
Q 691 350 691 878 
L 691 2988 
z
" transform="scale(0.015625)"/>
        <path id="DejaVuSerif-61" d="M 2547 1044 
L 2547 1747 
L 1806 1747 
Q 1378 1747 1168 1562 
Q 959 1378 959 997 
Q 959 650 1171 447 
Q 1384 244 1747 244 
Q 2106 244 2326 466 
Q 2547 688 2547 1044 
z
M 3122 2075 
L 3122 331 
L 3634 331 
L 3634 0 
L 2547 0 
L 2547 359 
Q 2356 128 2106 18 
Q 1856 -91 1522 -91 
Q 969 -91 644 203 
Q 319 497 319 997 
Q 319 1513 691 1797 
Q 1063 2081 1741 2081 
L 2547 2081 
L 2547 2309 
Q 2547 2688 2317 2895 
Q 2088 3103 1672 3103 
Q 1328 3103 1125 2947 
Q 922 2791 872 2484 
L 575 2484 
L 575 3156 
Q 875 3284 1158 3348 
Q 1441 3413 1709 3413 
Q 2400 3413 2761 3070 
Q 3122 2728 3122 2075 
z
" transform="scale(0.015625)"/>
        <path id="DejaVuSerif-6e" d="M 263 0 
L 263 331 
L 781 331 
L 781 2988 
L 231 2988 
L 231 3322 
L 1356 3322 
L 1356 2731 
Q 1516 3069 1770 3241 
Q 2025 3413 2363 3413 
Q 2913 3413 3172 3097 
Q 3431 2781 3431 2113 
L 3431 331 
L 3944 331 
L 3944 0 
L 2356 0 
L 2356 331 
L 2853 331 
L 2853 1931 
Q 2853 2541 2703 2767 
Q 2553 2994 2175 2994 
Q 1775 2994 1565 2701 
Q 1356 2409 1356 1850 
L 1356 331 
L 1856 331 
L 1856 0 
L 263 0 
z
" transform="scale(0.015625)"/>
        <path id="DejaVuSerif-73" d="M 359 184 
L 359 959 
L 691 959 
Q 703 588 923 403 
Q 1144 219 1575 219 
Q 1963 219 2166 364 
Q 2369 509 2369 788 
Q 2369 1006 2220 1140 
Q 2072 1275 1594 1428 
L 1178 1569 
Q 750 1706 558 1912 
Q 366 2119 366 2438 
Q 366 2894 700 3153 
Q 1034 3413 1625 3413 
Q 1888 3413 2178 3344 
Q 2469 3275 2778 3144 
L 2778 2419 
L 2447 2419 
Q 2434 2741 2221 2922 
Q 2009 3103 1644 3103 
Q 1281 3103 1095 2975 
Q 909 2847 909 2591 
Q 909 2381 1050 2254 
Q 1191 2128 1613 1997 
L 2069 1856 
Q 2541 1709 2748 1489 
Q 2956 1269 2956 922 
Q 2956 450 2595 179 
Q 2234 -91 1600 -91 
Q 1278 -91 972 -22 
Q 666 47 359 184 
z
" transform="scale(0.015625)"/>
       </defs>
       <use xlink:href="#DejaVuSerif-4d"/>
       <use xlink:href="#DejaVuSerif-75" x="102.392578"/>
       <use xlink:href="#DejaVuSerif-74" x="166.796875"/>
       <use xlink:href="#DejaVuSerif-61" x="206.982422"/>
       <use xlink:href="#DejaVuSerif-6e" x="266.601562"/>
       <use xlink:href="#DejaVuSerif-74" x="331.005859"/>
       <use xlink:href="#DejaVuSerif-73" x="371.191406"/>
      </g>
     </g>
    </g>
    <g id="xtick_3">
     <g id="line2d_18">
      <g>
       <use xlink:href="#mdc262e9c70" x="355.2" y="307.584" style="stroke: #000000; stroke-width: 0.8"/>
      </g>
     </g>
     <g id="text_3">
      <!-- Non-members -->
      <g transform="translate(283.49375 329.780875) scale(0.2 -0.2)">
       <defs>
        <path id="DejaVuSerif-4e" d="M 313 0 
L 313 331 
L 941 331 
L 941 4331 
L 313 4331 
L 313 4666 
L 1509 4666 
L 4306 984 
L 4306 4331 
L 3681 4331 
L 3681 4666 
L 5319 4666 
L 5319 4331 
L 4691 4331 
L 4691 -91 
L 4313 -91 
L 1325 3841 
L 1325 331 
L 1953 331 
L 1953 0 
L 313 0 
z
" transform="scale(0.015625)"/>
        <path id="DejaVuSerif-6f" d="M 1925 219 
Q 2388 219 2623 584 
Q 2859 950 2859 1663 
Q 2859 2375 2623 2739 
Q 2388 3103 1925 3103 
Q 1463 3103 1227 2739 
Q 991 2375 991 1663 
Q 991 950 1228 584 
Q 1466 219 1925 219 
z
M 1925 -91 
Q 1200 -91 759 389 
Q 319 869 319 1663 
Q 319 2456 758 2934 
Q 1197 3413 1925 3413 
Q 2653 3413 3092 2934 
Q 3531 2456 3531 1663 
Q 3531 869 3092 389 
Q 2653 -91 1925 -91 
z
" transform="scale(0.015625)"/>
        <path id="DejaVuSerif-2d" d="M 281 1959 
L 1881 1959 
L 1881 1472 
L 281 1472 
L 281 1959 
z
" transform="scale(0.015625)"/>
        <path id="DejaVuSerif-6d" d="M 3316 2675 
Q 3481 3041 3739 3227 
Q 3997 3413 4341 3413 
Q 4863 3413 5119 3089 
Q 5375 2766 5375 2113 
L 5375 331 
L 5894 331 
L 5894 0 
L 4300 0 
L 4300 331 
L 4800 331 
L 4800 2047 
Q 4800 2556 4650 2772 
Q 4500 2988 4153 2988 
Q 3769 2988 3567 2697 
Q 3366 2406 3366 1850 
L 3366 331 
L 3866 331 
L 3866 0 
L 2291 0 
L 2291 331 
L 2791 331 
L 2791 2069 
Q 2791 2566 2641 2777 
Q 2491 2988 2144 2988 
Q 1759 2988 1557 2697 
Q 1356 2406 1356 1850 
L 1356 331 
L 1856 331 
L 1856 0 
L 263 0 
L 263 331 
L 781 331 
L 781 2994 
L 231 2994 
L 231 3322 
L 1356 3322 
L 1356 2731 
Q 1516 3063 1762 3238 
Q 2009 3413 2322 3413 
Q 2709 3413 2968 3220 
Q 3228 3028 3316 2675 
z
" transform="scale(0.015625)"/>
        <path id="DejaVuSerif-65" d="M 3469 1600 
L 991 1600 
L 991 1575 
Q 991 903 1244 561 
Q 1497 219 1991 219 
Q 2369 219 2611 417 
Q 2853 616 2950 1006 
L 3413 1006 
Q 3275 459 2904 184 
Q 2534 -91 1931 -91 
Q 1203 -91 761 389 
Q 319 869 319 1663 
Q 319 2450 753 2931 
Q 1188 3413 1894 3413 
Q 2647 3413 3050 2948 
Q 3453 2484 3469 1600 
z
M 2791 1931 
Q 2772 2513 2545 2808 
Q 2319 3103 1894 3103 
Q 1497 3103 1269 2806 
Q 1041 2509 991 1931 
L 2791 1931 
z
" transform="scale(0.015625)"/>
        <path id="DejaVuSerif-62" d="M 738 331 
L 738 4531 
L 184 4531 
L 184 4863 
L 1313 4863 
L 1313 2803 
Q 1481 3116 1742 3264 
Q 2003 3413 2388 3413 
Q 3000 3413 3387 2928 
Q 3775 2444 3775 1663 
Q 3775 881 3387 395 
Q 3000 -91 2388 -91 
Q 2003 -91 1742 57 
Q 1481 206 1313 519 
L 1313 0 
L 184 0 
L 184 331 
L 738 331 
z
M 1313 1497 
Q 1313 897 1542 583 
Q 1772 269 2209 269 
Q 2650 269 2876 622 
Q 3103 975 3103 1663 
Q 3103 2353 2876 2703 
Q 2650 3053 2209 3053 
Q 1772 3053 1542 2737 
Q 1313 2422 1313 1825 
L 1313 1497 
z
" transform="scale(0.015625)"/>
        <path id="DejaVuSerif-72" d="M 3059 3328 
L 3059 2497 
L 2728 2497 
Q 2713 2744 2591 2866 
Q 2469 2988 2234 2988 
Q 1809 2988 1582 2694 
Q 1356 2400 1356 1850 
L 1356 331 
L 2022 331 
L 2022 0 
L 263 0 
L 263 331 
L 781 331 
L 781 2994 
L 231 2994 
L 231 3322 
L 1356 3322 
L 1356 2731 
Q 1525 3078 1790 3245 
Q 2056 3413 2438 3413 
Q 2578 3413 2733 3391 
Q 2888 3369 3059 3328 
z
" transform="scale(0.015625)"/>
       </defs>
       <use xlink:href="#DejaVuSerif-4e"/>
       <use xlink:href="#DejaVuSerif-6f" x="87.5"/>
       <use xlink:href="#DejaVuSerif-6e" x="147.705078"/>
       <use xlink:href="#DejaVuSerif-2d" x="212.109375"/>
       <use xlink:href="#DejaVuSerif-6d" x="245.898438"/>
       <use xlink:href="#DejaVuSerif-65" x="340.722656"/>
       <use xlink:href="#DejaVuSerif-6d" x="399.902344"/>
       <use xlink:href="#DejaVuSerif-62" x="494.726562"/>
       <use xlink:href="#DejaVuSerif-65" x="558.740234"/>
       <use xlink:href="#DejaVuSerif-72" x="617.919922"/>
       <use xlink:href="#DejaVuSerif-73" x="665.722656"/>
      </g>
     </g>
    </g>
   </g>
   <g id="matplotlib.axis_2">
    <g id="ytick_1">
     <g id="line2d_19">
      <defs>
       <path id="m1010b417d4" d="M 0 0 
L -3.5 0 
" style="stroke: #000000; stroke-width: 0.8"/>
      </defs>
      <g>
       <use xlink:href="#m1010b417d4" x="57.6" y="296.865126" style="stroke: #000000; stroke-width: 0.8"/>
      </g>
     </g>
     <g id="text_4">
      <!-- 0 -->
      <g transform="translate(44.2375 300.664344) scale(0.1 -0.1)">
       <defs>
        <path id="DejaVuSerif-30" d="M 2034 219 
Q 2513 219 2750 744 
Q 2988 1269 2988 2328 
Q 2988 3391 2750 3916 
Q 2513 4441 2034 4441 
Q 1556 4441 1318 3916 
Q 1081 3391 1081 2328 
Q 1081 1269 1318 744 
Q 1556 219 2034 219 
z
M 2034 -91 
Q 1275 -91 848 546 
Q 422 1184 422 2328 
Q 422 3475 848 4112 
Q 1275 4750 2034 4750 
Q 2797 4750 3222 4112 
Q 3647 3475 3647 2328 
Q 3647 1184 3222 546 
Q 2797 -91 2034 -91 
z
" transform="scale(0.015625)"/>
       </defs>
       <use xlink:href="#DejaVuSerif-30"/>
      </g>
     </g>
    </g>
    <g id="ytick_2">
     <g id="line2d_20">
      <g>
       <use xlink:href="#m1010b417d4" x="57.6" y="252.44172" style="stroke: #000000; stroke-width: 0.8"/>
      </g>
     </g>
     <g id="text_5">
      <!-- 1000 -->
      <g transform="translate(25.15 256.240939) scale(0.1 -0.1)">
       <defs>
        <path id="DejaVuSerif-31" d="M 909 0 
L 909 331 
L 1722 331 
L 1722 4213 
L 781 3603 
L 781 4013 
L 1919 4750 
L 2350 4750 
L 2350 331 
L 3163 331 
L 3163 0 
L 909 0 
z
" transform="scale(0.015625)"/>
       </defs>
       <use xlink:href="#DejaVuSerif-31"/>
       <use xlink:href="#DejaVuSerif-30" x="63.623047"/>
       <use xlink:href="#DejaVuSerif-30" x="127.246094"/>
       <use xlink:href="#DejaVuSerif-30" x="190.869141"/>
      </g>
     </g>
    </g>
    <g id="ytick_3">
     <g id="line2d_21">
      <g>
       <use xlink:href="#m1010b417d4" x="57.6" y="208.018315" style="stroke: #000000; stroke-width: 0.8"/>
      </g>
     </g>
     <g id="text_6">
      <!-- 2000 -->
      <g transform="translate(25.15 211.817534) scale(0.1 -0.1)">
       <defs>
        <path id="DejaVuSerif-32" d="M 819 3553 
L 469 3553 
L 469 4384 
Q 803 4563 1142 4656 
Q 1481 4750 1806 4750 
Q 2534 4750 2956 4397 
Q 3378 4044 3378 3438 
Q 3378 2753 2422 1800 
Q 2347 1728 2309 1691 
L 1131 513 
L 3078 513 
L 3078 1088 
L 3444 1088 
L 3444 0 
L 434 0 
L 434 341 
L 1850 1753 
Q 2319 2222 2519 2614 
Q 2719 3006 2719 3438 
Q 2719 3909 2473 4175 
Q 2228 4441 1797 4441 
Q 1350 4441 1106 4219 
Q 863 3997 819 3553 
z
" transform="scale(0.015625)"/>
       </defs>
       <use xlink:href="#DejaVuSerif-32"/>
       <use xlink:href="#DejaVuSerif-30" x="63.623047"/>
       <use xlink:href="#DejaVuSerif-30" x="127.246094"/>
       <use xlink:href="#DejaVuSerif-30" x="190.869141"/>
      </g>
     </g>
    </g>
    <g id="ytick_4">
     <g id="line2d_22">
      <g>
       <use xlink:href="#m1010b417d4" x="57.6" y="163.59491" style="stroke: #000000; stroke-width: 0.8"/>
      </g>
     </g>
     <g id="text_7">
      <!-- 3000 -->
      <g transform="translate(25.15 167.394129) scale(0.1 -0.1)">
       <defs>
        <path id="DejaVuSerif-33" d="M 622 4469 
Q 988 4606 1323 4678 
Q 1659 4750 1953 4750 
Q 2638 4750 3022 4454 
Q 3406 4159 3406 3634 
Q 3406 3213 3140 2930 
Q 2875 2647 2388 2547 
Q 2963 2466 3280 2130 
Q 3597 1794 3597 1259 
Q 3597 606 3158 257 
Q 2719 -91 1894 -91 
Q 1528 -91 1179 -12 
Q 831 66 488 225 
L 488 1131 
L 838 1131 
Q 869 681 1141 450 
Q 1413 219 1906 219 
Q 2384 219 2661 495 
Q 2938 772 2938 1253 
Q 2938 1803 2653 2086 
Q 2369 2369 1819 2369 
L 1522 2369 
L 1522 2688 
L 1678 2688 
Q 2225 2688 2498 2914 
Q 2772 3141 2772 3597 
Q 2772 4006 2547 4223 
Q 2322 4441 1900 4441 
Q 1478 4441 1245 4241 
Q 1013 4041 972 3647 
L 622 3647 
L 622 4469 
z
" transform="scale(0.015625)"/>
       </defs>
       <use xlink:href="#DejaVuSerif-33"/>
       <use xlink:href="#DejaVuSerif-30" x="63.623047"/>
       <use xlink:href="#DejaVuSerif-30" x="127.246094"/>
       <use xlink:href="#DejaVuSerif-30" x="190.869141"/>
      </g>
     </g>
    </g>
    <g id="ytick_5">
     <g id="line2d_23">
      <g>
       <use xlink:href="#m1010b417d4" x="57.6" y="119.171505" style="stroke: #000000; stroke-width: 0.8"/>
      </g>
     </g>
     <g id="text_8">
      <!-- 4000 -->
      <g transform="translate(25.15 122.970723) scale(0.1 -0.1)">
       <defs>
        <path id="DejaVuSerif-34" d="M 2234 1581 
L 2234 4063 
L 641 1581 
L 2234 1581 
z
M 3609 0 
L 1484 0 
L 1484 331 
L 2234 331 
L 2234 1247 
L 197 1247 
L 197 1588 
L 2241 4750 
L 2859 4750 
L 2859 1581 
L 3750 1581 
L 3750 1247 
L 2859 1247 
L 2859 331 
L 3609 331 
L 3609 0 
z
" transform="scale(0.015625)"/>
       </defs>
       <use xlink:href="#DejaVuSerif-34"/>
       <use xlink:href="#DejaVuSerif-30" x="63.623047"/>
       <use xlink:href="#DejaVuSerif-30" x="127.246094"/>
       <use xlink:href="#DejaVuSerif-30" x="190.869141"/>
      </g>
     </g>
    </g>
    <g id="ytick_6">
     <g id="line2d_24">
      <g>
       <use xlink:href="#m1010b417d4" x="57.6" y="74.748099" style="stroke: #000000; stroke-width: 0.8"/>
      </g>
     </g>
     <g id="text_9">
      <!-- 5000 -->
      <g transform="translate(25.15 78.547318) scale(0.1 -0.1)">
       <defs>
        <path id="DejaVuSerif-35" d="M 3219 4666 
L 3219 4153 
L 1081 4153 
L 1081 2816 
Q 1244 2928 1461 2984 
Q 1678 3041 1947 3041 
Q 2703 3041 3140 2622 
Q 3578 2203 3578 1478 
Q 3578 738 3136 323 
Q 2694 -91 1894 -91 
Q 1572 -91 1234 -12 
Q 897 66 544 225 
L 544 1131 
L 897 1131 
Q 925 688 1179 453 
Q 1434 219 1894 219 
Q 2388 219 2653 544 
Q 2919 869 2919 1478 
Q 2919 2084 2655 2407 
Q 2391 2731 1894 2731 
Q 1613 2731 1398 2631 
Q 1184 2531 1019 2322 
L 750 2322 
L 750 4666 
L 3219 4666 
z
" transform="scale(0.015625)"/>
       </defs>
       <use xlink:href="#DejaVuSerif-35"/>
       <use xlink:href="#DejaVuSerif-30" x="63.623047"/>
       <use xlink:href="#DejaVuSerif-30" x="127.246094"/>
       <use xlink:href="#DejaVuSerif-30" x="190.869141"/>
      </g>
     </g>
    </g>
    <g id="text_10">
     <!-- Outgoing approaches -->
     <g transform="translate(16.70625 283.445187) rotate(-90) scale(0.2 -0.2)">
      <defs>
       <path id="DejaVuSerif-4f" d="M 2625 244 
Q 3391 244 3781 770 
Q 4172 1297 4172 2328 
Q 4172 3363 3781 3889 
Q 3391 4416 2625 4416 
Q 1856 4416 1465 3889 
Q 1075 3363 1075 2328 
Q 1075 1297 1465 770 
Q 1856 244 2625 244 
z
M 2625 -91 
Q 2150 -91 1751 65 
Q 1353 222 1050 525 
Q 700 875 529 1319 
Q 359 1763 359 2328 
Q 359 2894 529 3339 
Q 700 3784 1050 4134 
Q 1356 4441 1750 4595 
Q 2144 4750 2625 4750 
Q 3641 4750 4266 4084 
Q 4891 3419 4891 2328 
Q 4891 1769 4719 1320 
Q 4547 872 4197 525 
Q 3891 219 3497 64 
Q 3103 -91 2625 -91 
z
" transform="scale(0.015625)"/>
       <path id="DejaVuSerif-67" d="M 3359 2988 
L 3359 72 
Q 3359 -644 2965 -1033 
Q 2572 -1422 1844 -1422 
Q 1516 -1422 1216 -1362 
Q 916 -1303 641 -1184 
L 641 -488 
L 941 -488 
Q 997 -813 1206 -963 
Q 1416 -1113 1806 -1113 
Q 2313 -1113 2548 -827 
Q 2784 -541 2784 72 
L 2784 519 
Q 2616 206 2355 57 
Q 2094 -91 1709 -91 
Q 1097 -91 708 395 
Q 319 881 319 1663 
Q 319 2444 706 2928 
Q 1094 3413 1709 3413 
Q 2094 3413 2355 3264 
Q 2616 3116 2784 2803 
L 2784 3322 
L 3909 3322 
L 3909 2988 
L 3359 2988 
z
M 2784 1825 
Q 2784 2422 2554 2737 
Q 2325 3053 1888 3053 
Q 1444 3053 1217 2703 
Q 991 2353 991 1663 
Q 991 975 1217 622 
Q 1444 269 1888 269 
Q 2325 269 2554 583 
Q 2784 897 2784 1497 
L 2784 1825 
z
" transform="scale(0.015625)"/>
       <path id="DejaVuSerif-69" d="M 622 4353 
Q 622 4497 726 4603 
Q 831 4709 978 4709 
Q 1122 4709 1226 4603 
Q 1331 4497 1331 4353 
Q 1331 4206 1228 4103 
Q 1125 4000 978 4000 
Q 831 4000 726 4103 
Q 622 4206 622 4353 
z
M 1356 331 
L 1900 331 
L 1900 0 
L 231 0 
L 231 331 
L 781 331 
L 781 2988 
L 231 2988 
L 231 3322 
L 1356 3322 
L 1356 331 
z
" transform="scale(0.015625)"/>
       <path id="DejaVuSerif-20" transform="scale(0.015625)"/>
       <path id="DejaVuSerif-70" d="M 1313 1825 
L 1313 1497 
Q 1313 897 1542 583 
Q 1772 269 2209 269 
Q 2650 269 2876 622 
Q 3103 975 3103 1663 
Q 3103 2353 2876 2703 
Q 2650 3053 2209 3053 
Q 1772 3053 1542 2737 
Q 1313 2422 1313 1825 
z
M 738 2988 
L 184 2988 
L 184 3322 
L 1313 3322 
L 1313 2803 
Q 1481 3116 1742 3264 
Q 2003 3413 2388 3413 
Q 3000 3413 3387 2928 
Q 3775 2444 3775 1663 
Q 3775 881 3387 395 
Q 3000 -91 2388 -91 
Q 2003 -91 1742 57 
Q 1481 206 1313 519 
L 1313 -997 
L 1856 -997 
L 1856 -1331 
L 184 -1331 
L 184 -997 
L 738 -997 
L 738 2988 
z
" transform="scale(0.015625)"/>
       <path id="DejaVuSerif-63" d="M 3291 997 
Q 3169 466 2822 187 
Q 2475 -91 1925 -91 
Q 1200 -91 759 389 
Q 319 869 319 1663 
Q 319 2459 759 2936 
Q 1200 3413 1925 3413 
Q 2241 3413 2553 3339 
Q 2866 3266 3181 3116 
L 3181 2266 
L 2847 2266 
Q 2781 2703 2561 2903 
Q 2341 3103 1931 3103 
Q 1466 3103 1228 2742 
Q 991 2381 991 1663 
Q 991 944 1227 581 
Q 1463 219 1931 219 
Q 2303 219 2525 412 
Q 2747 606 2828 997 
L 3291 997 
z
" transform="scale(0.015625)"/>
       <path id="DejaVuSerif-68" d="M 263 0 
L 263 331 
L 781 331 
L 781 4531 
L 231 4531 
L 231 4863 
L 1356 4863 
L 1356 2731 
Q 1516 3069 1770 3241 
Q 2025 3413 2363 3413 
Q 2913 3413 3172 3097 
Q 3431 2781 3431 2113 
L 3431 331 
L 3944 331 
L 3944 0 
L 2356 0 
L 2356 331 
L 2853 331 
L 2853 1931 
Q 2853 2541 2704 2764 
Q 2556 2988 2175 2988 
Q 1775 2988 1565 2697 
Q 1356 2406 1356 1850 
L 1356 331 
L 1856 331 
L 1856 0 
L 263 0 
z
" transform="scale(0.015625)"/>
      </defs>
      <use xlink:href="#DejaVuSerif-4f"/>
      <use xlink:href="#DejaVuSerif-75" x="81.982422"/>
      <use xlink:href="#DejaVuSerif-74" x="146.386719"/>
      <use xlink:href="#DejaVuSerif-67" x="186.572266"/>
      <use xlink:href="#DejaVuSerif-6f" x="250.585938"/>
      <use xlink:href="#DejaVuSerif-69" x="310.791016"/>
      <use xlink:href="#DejaVuSerif-6e" x="342.773438"/>
      <use xlink:href="#DejaVuSerif-67" x="407.177734"/>
      <use xlink:href="#DejaVuSerif-20" x="471.191406"/>
      <use xlink:href="#DejaVuSerif-61" x="502.978516"/>
      <use xlink:href="#DejaVuSerif-70" x="562.597656"/>
      <use xlink:href="#DejaVuSerif-70" x="626.611328"/>
      <use xlink:href="#DejaVuSerif-72" x="690.625"/>
      <use xlink:href="#DejaVuSerif-6f" x="738.427734"/>
      <use xlink:href="#DejaVuSerif-61" x="798.632812"/>
      <use xlink:href="#DejaVuSerif-63" x="858.251953"/>
      <use xlink:href="#DejaVuSerif-68" x="914.257812"/>
      <use xlink:href="#DejaVuSerif-65" x="978.662109"/>
      <use xlink:href="#DejaVuSerif-73" x="1037.841797"/>
     </g>
    </g>
   </g>
   <g id="line2d_25">
    <path d="M 117.12 120.262232 
L 117.12 117.200305 
L 355.2 117.200305 
L 355.2 120.262232 
" clip-path="url(#pa0cda96385)" style="fill: none; stroke: #000000; stroke-linecap: square"/>
   </g>
   <g id="line2d_26">
    <path d="M 117.12 84.751944 
L 117.12 80.829615 
L 236.16 80.829615 
L 236.16 84.751944 
" clip-path="url(#pa0cda96385)" style="fill: none; stroke: #000000; stroke-linecap: square"/>
   </g>
   <g id="line2d_27">
    <path d="M 236.16 58.290484 
L 236.16 53.568 
L 355.2 53.568 
L 355.2 58.290484 
" clip-path="url(#pa0cda96385)" style="fill: none; stroke: #000000; stroke-linecap: square"/>
   </g>
   <g id="patch_6">
    <path d="M 57.6 307.584 
L 57.6 41.472 
" style="fill: none; stroke: #000000; stroke-width: 0.8; stroke-linejoin: miter; stroke-linecap: square"/>
   </g>
   <g id="patch_7">
    <path d="M 414.72 307.584 
L 414.72 41.472 
" style="fill: none; stroke: #000000; stroke-width: 0.8; stroke-linejoin: miter; stroke-linecap: square"/>
   </g>
   <g id="patch_8">
    <path d="M 57.6 307.584 
L 414.72 307.584 
" style="fill: none; stroke: #000000; stroke-width: 0.8; stroke-linejoin: miter; stroke-linecap: square"/>
   </g>
   <g id="patch_9">
    <path d="M 57.6 41.472 
L 414.72 41.472 
" style="fill: none; stroke: #000000; stroke-width: 0.8; stroke-linejoin: miter; stroke-linecap: square"/>
   </g>
   <g id="text_11">
    <!-- *** -->
    <g transform="translate(221.16 117.633821) scale(0.2 -0.2)">
     <defs>
      <path id="DejaVuSerif-2a" d="M 3097 3866 
L 1875 3297 
L 3097 2719 
L 2859 2350 
L 1772 3028 
L 1813 1838 
L 1388 1838 
L 1428 3028 
L 341 2350 
L 103 2719 
L 1325 3291 
L 103 3866 
L 341 4238 
L 1428 3559 
L 1388 4750 
L 1813 4750 
L 1772 3559 
L 2859 4238 
L 3097 3866 
z
" transform="scale(0.015625)"/>
     </defs>
     <use xlink:href="#DejaVuSerif-2a"/>
     <use xlink:href="#DejaVuSerif-2a" x="50"/>
     <use xlink:href="#DejaVuSerif-2a" x="100"/>
    </g>
   </g>
   <g id="text_12">
    <!-- *** -->
    <g transform="translate(161.64 82.553734) scale(0.2 -0.2)">
     <use xlink:href="#DejaVuSerif-2a"/>
     <use xlink:href="#DejaVuSerif-2a" x="50"/>
     <use xlink:href="#DejaVuSerif-2a" x="100"/>
    </g>
   </g>
   <g id="text_13">
    <!-- p = 0.379 -->
    <g transform="translate(270.797187 49.12707) scale(0.1 -0.1)">
     <defs>
      <path id="DejaVuSerif-3d" d="M 678 2894 
L 4684 2894 
L 4684 2394 
L 678 2394 
L 678 2894 
z
M 678 1619 
L 4684 1619 
L 4684 1119 
L 678 1119 
L 678 1619 
z
" transform="scale(0.015625)"/>
      <path id="DejaVuSerif-2e" d="M 603 325 
Q 603 500 722 622 
Q 841 744 1019 744 
Q 1191 744 1312 622 
Q 1434 500 1434 325 
Q 1434 153 1312 31 
Q 1191 -91 1019 -91 
Q 841 -91 722 29 
Q 603 150 603 325 
z
" transform="scale(0.015625)"/>
      <path id="DejaVuSerif-37" d="M 3609 4347 
L 1784 0 
L 1319 0 
L 3059 4153 
L 903 4153 
L 903 3578 
L 538 3578 
L 538 4666 
L 3609 4666 
L 3609 4347 
z
" transform="scale(0.015625)"/>
      <path id="DejaVuSerif-39" d="M 2994 2091 
Q 2784 1856 2512 1740 
Q 2241 1625 1900 1625 
Q 1206 1625 804 2044 
Q 403 2463 403 3188 
Q 403 3897 839 4323 
Q 1275 4750 2003 4750 
Q 2794 4750 3217 4161 
Q 3641 3572 3641 2478 
Q 3641 1253 3137 581 
Q 2634 -91 1722 -91 
Q 1475 -91 1203 -44 
Q 931 3 647 97 
L 647 872 
L 997 872 
Q 1038 556 1241 387 
Q 1444 219 1784 219 
Q 2391 219 2687 676 
Q 2984 1134 2994 2091 
z
M 1978 4441 
Q 1534 4441 1298 4117 
Q 1063 3794 1063 3188 
Q 1063 2581 1298 2256 
Q 1534 1931 1978 1931 
Q 2422 1931 2658 2245 
Q 2894 2559 2894 3150 
Q 2894 3772 2656 4106 
Q 2419 4441 1978 4441 
z
" transform="scale(0.015625)"/>
     </defs>
     <use xlink:href="#DejaVuSerif-70"/>
     <use xlink:href="#DejaVuSerif-20" x="64.013672"/>
     <use xlink:href="#DejaVuSerif-3d" x="95.800781"/>
     <use xlink:href="#DejaVuSerif-20" x="179.589844"/>
     <use xlink:href="#DejaVuSerif-30" x="211.376953"/>
     <use xlink:href="#DejaVuSerif-2e" x="275"/>
     <use xlink:href="#DejaVuSerif-33" x="306.787109"/>
     <use xlink:href="#DejaVuSerif-37" x="370.410156"/>
     <use xlink:href="#DejaVuSerif-39" x="434.033203"/>
    </g>
   </g>
  </g>
 </g>
 <defs>
  <clipPath id="pa0cda96385">
   <rect x="57.6" y="41.472" width="357.12" height="266.112"/>
  </clipPath>
 </defs>
</svg>
