<?xml version="1.0" encoding="utf-8" standalone="no"?>
<!DOCTYPE svg PUBLIC "-//W3C//DTD SVG 1.1//EN"
  "http://www.w3.org/Graphics/SVG/1.1/DTD/svg11.dtd">
<svg xmlns:xlink="http://www.w3.org/1999/xlink" width="216pt" height="864pt" viewBox="0 0 216 864" xmlns="http://www.w3.org/2000/svg" version="1.1">
 <metadata>
  <rdf:RDF xmlns:dc="http://purl.org/dc/elements/1.1/" xmlns:cc="http://creativecommons.org/ns#" xmlns:rdf="http://www.w3.org/1999/02/22-rdf-syntax-ns#">
   <cc:Work>
    <dc:type rdf:resource="http://purl.org/dc/dcmitype/StillImage"/>
    <dc:date>2025-06-05T15:05:28.700145</dc:date>
    <dc:format>image/svg+xml</dc:format>
    <dc:creator>
     <cc:Agent>
      <dc:title>Matplotlib v3.9.2, https://matplotlib.org/</dc:title>
     </cc:Agent>
    </dc:creator>
   </cc:Work>
  </rdf:RDF>
 </metadata>
 <defs>
  <style type="text/css">*{stroke-linejoin: round; stroke-linecap: butt}</style>
 </defs>
 <g id="figure_1">
  <g id="patch_1">
   <path d="M 0 864 
L 216 864 
L 216 0 
L 0 0 
z
" style="fill: #ffffff"/>
  </g>
  <g id="axes_1">
   <g id="patch_2">
    <path d="M 27 218.383448 
L 194.4 218.383448 
L 194.4 103.68 
L 27 103.68 
z
" style="fill: #ffffff"/>
   </g>
   <g id="EdgeCollection_1">
    <path d="M 180.729172 162.649767 
C 206.160329 175.519482 206.160329 148.280052 180.729172 161.149767 
C 206.160329 148.280052 206.160329 175.519482 180.729172 162.649767 
" clip-path="url(#p56d205d113)" style="fill: #ffffff"/>
    <path d="M 178.641937 160.623543 
L 163.240526 135.686051 
" clip-path="url(#p56d205d113)" style="fill: #ffffff"/>
    <path d="M 178.184371 161.064257 
L 116.92881 119.981262 
" clip-path="url(#p56d205d113)" style="fill: #ffffff"/>
    <path d="M 177.984867 161.498264 
L 69.326789 131.312449 
" clip-path="url(#p56d205d113)" style="fill: #ffffff"/>
    <path d="M 177.930134 161.899767 
L 43.469866 161.899767 
" clip-path="url(#p56d205d113)" style="fill: #ffffff"/>
    <path d="M 177.984867 162.30127 
L 63.545723 194.093097 
" clip-path="url(#p56d205d113)" style="fill: #ffffff"/>
    <path d="M 178.184371 162.735277 
L 111.945762 207.160312 
" clip-path="url(#p56d205d113)" style="fill: #ffffff"/>
    <path d="M 178.641937 163.17599 
L 160.08774 193.218376 
" clip-path="url(#p56d205d113)" style="fill: #ffffff"/>
    <path d="M 166.198874 126.363975 
C 186.243374 116.112891 164.464143 99.752828 160.202264 121.859459 
C 164.464143 99.752828 186.243374 116.112891 166.198874 126.363975 
" clip-path="url(#p56d205d113)" style="fill: #ffffff"/>
    <path d="M 152.073211 127.297418 
L 117.926333 117.811227 
" clip-path="url(#p56d205d113)" style="stroke: #000000; stroke-width: 1.325681"/>
    <path d="M 151.799543 129.304934 
L 69.600457 129.304934 
" clip-path="url(#p56d205d113)" style="stroke: #000000; stroke-width: 1.770445"/>
    <path d="M 152.073211 131.312449 
L 43.415133 161.498264 
" clip-path="url(#p56d205d113)" style="fill: #ffffff"/>
    <path d="M 153.070733 133.482484 
L 63.346219 193.65909 
" clip-path="url(#p56d205d113)" style="fill: #ffffff"/>
    <path d="M 155.358561 135.686051 
L 111.488196 206.719598 
" clip-path="url(#p56d205d113)" style="fill: #ffffff"/>
    <path d="M 159.299543 136.804934 
L 159.299543 192.9946 
" clip-path="url(#p56d205d113)" style="stroke: #000000; stroke-width: 0.45911"/>
    <path d="M 114.45 109.308521 
C 124.319715 89.073516 97.080285 89.073516 106.95 109.308521 
C 97.080285 89.073516 124.319715 89.073516 114.45 109.308521 
" clip-path="url(#p56d205d113)" style="fill: #ffffff"/>
    <path d="M 103.473667 117.811227 
L 69.326789 127.297418 
" clip-path="url(#p56d205d113)" style="stroke: #000000; stroke-width: 2"/>
    <path d="M 104.47119 119.981262 
L 43.215629 161.064257 
" clip-path="url(#p56d205d113)" style="fill: #ffffff"/>
    <path d="M 106.759018 122.184829 
L 62.888653 193.218376 
" clip-path="url(#p56d205d113)" style="fill: #ffffff"/>
    <path d="M 110.7 123.303712 
L 110.7 206.495822 
" clip-path="url(#p56d205d113)" style="fill: #ffffff"/>
    <path d="M 114.640982 122.184829 
L 158.511347 193.218376 
" clip-path="url(#p56d205d113)" style="stroke: #000000; stroke-width: 0.622669"/>
    <path d="M 61.197736 121.859459 
C 56.935857 99.752828 35.156626 116.112891 55.201126 126.363975 
C 35.156626 116.112891 56.935857 99.752828 61.197736 121.859459 
" clip-path="url(#p56d205d113)" style="fill: #ffffff"/>
    <path d="M 58.159474 135.686051 
L 42.758063 160.623543 
" clip-path="url(#p56d205d113)" style="fill: #ffffff"/>
    <path d="M 62.100457 136.804934 
L 62.100457 192.9946 
" clip-path="url(#p56d205d113)" style="fill: #ffffff"/>
    <path d="M 66.041439 135.686051 
L 109.911804 206.719598 
" clip-path="url(#p56d205d113)" style="stroke: #000000; stroke-width: 0.791966"/>
    <path d="M 68.329267 133.482484 
L 158.053781 193.65909 
" clip-path="url(#p56d205d113)" style="fill: #ffffff"/>
    <path d="M 40.670828 161.149767 
C 15.239671 148.280052 15.239671 175.519482 40.670828 162.649767 
C 15.239671 175.519482 15.239671 148.280052 40.670828 161.149767 
" clip-path="url(#p56d205d113)" style="fill: #ffffff"/>
    <path d="M 42.758063 163.17599 
L 61.31226 193.218376 
" clip-path="url(#p56d205d113)" style="fill: #ffffff"/>
    <path d="M 43.215629 162.735277 
L 109.454238 207.160312 
" clip-path="url(#p56d205d113)" style="fill: #ffffff"/>
    <path d="M 43.415133 162.30127 
L 157.854277 194.093097 
" clip-path="url(#p56d205d113)" style="fill: #ffffff"/>
    <path d="M 60.72059 195.082792 
C 35.156626 207.686643 56.935857 224.046705 61.919912 195.983695 
C 56.935857 224.046705 35.156626 207.686643 60.72059 195.082792 
" clip-path="url(#p56d205d113)" style="fill: #ffffff"/>
    <path d="M 63.545723 194.896103 
L 109.254733 207.594319 
" clip-path="url(#p56d205d113)" style="fill: #ffffff"/>
    <path d="M 63.600457 194.4946 
L 157.799543 194.4946 
" clip-path="url(#p56d205d113)" style="fill: #ffffff"/>
    <path d="M 109.95 209.29486 
C 97.080285 234.726018 124.319715 234.726018 111.45 209.29486 
C 124.319715 234.726018 97.080285 234.726018 109.95 209.29486 
" clip-path="url(#p56d205d113)" style="fill: #ffffff"/>
    <path d="M 112.145267 207.594319 
L 157.854277 194.896103 
" clip-path="url(#p56d205d113)" style="fill: #ffffff"/>
    <path d="M 159.480088 195.983695 
C 164.464143 224.046705 186.243374 207.686643 160.67941 195.082792 
C 186.243374 207.686643 164.464143 224.046705 159.480088 195.983695 
" clip-path="url(#p56d205d113)" style="fill: #ffffff"/>
   </g>
   <g id="VertexCollection_1">
    <path d="M 179.430134 163.399767 
C 179.827938 163.399767 180.209503 163.241717 180.490794 162.960427 
C 180.772084 162.679137 180.930134 162.297571 180.930134 161.899767 
C 180.930134 161.501962 180.772084 161.120397 180.490794 160.839107 
C 180.209503 160.557816 179.827938 160.399767 179.430134 160.399767 
C 179.032329 160.399767 178.650764 160.557816 178.369473 160.839107 
C 178.088183 161.120397 177.930134 161.501962 177.930134 161.899767 
C 177.930134 162.297571 178.088183 162.679137 178.369473 162.960427 
C 178.650764 163.241717 179.032329 163.399767 179.430134 163.399767 
z
" clip-path="url(#p56d205d113)" style="fill: #fdcab5; stroke: #00ff00; stroke-width: 3"/>
    <path d="M 159.299543 136.804934 
C 161.288567 136.804934 163.196393 136.014686 164.602844 134.608234 
C 166.009296 133.201783 166.799543 131.293957 166.799543 129.304934 
C 166.799543 127.31591 166.009296 125.408084 164.602844 124.001633 
C 163.196393 122.595181 161.288567 121.804934 159.299543 121.804934 
C 157.31052 121.804934 155.402694 122.595181 153.996243 124.001633 
C 152.589791 125.408084 151.799543 127.31591 151.799543 129.304934 
C 151.799543 131.293957 152.589791 133.201783 153.996243 134.608234 
C 155.402694 136.014686 157.31052 136.804934 159.299543 136.804934 
z
" clip-path="url(#p56d205d113)" style="fill: #6b010e; stroke: #00ff00; stroke-width: 3"/>
    <path d="M 110.7 123.303712 
C 112.689023 123.303712 114.596849 122.513464 116.003301 121.107012 
C 117.409753 119.700561 118.2 117.792735 118.2 115.803712 
C 118.2 113.814688 117.409753 111.906862 116.003301 110.500411 
C 114.596849 109.093959 112.689023 108.303712 110.7 108.303712 
C 108.710977 108.303712 106.803151 109.093959 105.396699 110.500411 
C 103.990247 111.906862 103.2 113.814688 103.2 115.803712 
C 103.2 117.792735 103.990247 119.700561 105.396699 121.107012 
C 106.803151 122.513464 108.710977 123.303712 110.7 123.303712 
z
" clip-path="url(#p56d205d113)" style="fill: #6b010e; stroke: #00ff00; stroke-width: 3"/>
    <path d="M 62.100457 136.804934 
C 64.08948 136.804934 65.997306 136.014686 67.403757 134.608234 
C 68.810209 133.201783 69.600457 131.293957 69.600457 129.304934 
C 69.600457 127.31591 68.810209 125.408084 67.403757 124.001633 
C 65.997306 122.595181 64.08948 121.804934 62.100457 121.804934 
C 60.111433 121.804934 58.203607 122.595181 56.797156 124.001633 
C 55.390704 125.408084 54.600457 127.31591 54.600457 129.304934 
C 54.600457 131.293957 55.390704 133.201783 56.797156 134.608234 
C 58.203607 136.014686 60.111433 136.804934 62.100457 136.804934 
z
" clip-path="url(#p56d205d113)" style="fill: #6b010e; stroke: #00ff00; stroke-width: 3"/>
    <path d="M 41.969866 163.399767 
C 42.367671 163.399767 42.749236 163.241717 43.030527 162.960427 
C 43.311817 162.679137 43.469866 162.297571 43.469866 161.899767 
C 43.469866 161.501962 43.311817 161.120397 43.030527 160.839107 
C 42.749236 160.557816 42.367671 160.399767 41.969866 160.399767 
C 41.572062 160.399767 41.190497 160.557816 40.909206 160.839107 
C 40.627916 161.120397 40.469866 161.501962 40.469866 161.899767 
C 40.469866 162.297571 40.627916 162.679137 40.909206 162.960427 
C 41.190497 163.241717 41.572062 163.399767 41.969866 163.399767 
z
" clip-path="url(#p56d205d113)" style="fill: #fdcab5; stroke: #ff0000; stroke-width: 3"/>
    <path d="M 62.100457 195.9946 
C 62.498261 195.9946 62.879826 195.836551 63.161117 195.55526 
C 63.442407 195.27397 63.600457 194.892405 63.600457 194.4946 
C 63.600457 194.096795 63.442407 193.71523 63.161117 193.43394 
C 62.879826 193.152649 62.498261 192.9946 62.100457 192.9946 
C 61.702652 192.9946 61.321087 193.152649 61.039796 193.43394 
C 60.758506 193.71523 60.600457 194.096795 60.600457 194.4946 
C 60.600457 194.892405 60.758506 195.27397 61.039796 195.55526 
C 61.321087 195.836551 61.702652 195.9946 62.100457 195.9946 
z
" clip-path="url(#p56d205d113)" style="fill: #fdcab5; stroke: #00ff00; stroke-width: 3"/>
    <path d="M 110.7 209.495822 
C 111.097805 209.495822 111.47937 209.337772 111.76066 209.056482 
C 112.041951 208.775192 112.2 208.393627 112.2 207.995822 
C 112.2 207.598017 112.041951 207.216452 111.76066 206.935162 
C 111.47937 206.653871 111.097805 206.495822 110.7 206.495822 
C 110.302195 206.495822 109.92063 206.653871 109.63934 206.935162 
C 109.358049 207.216452 109.2 207.598017 109.2 207.995822 
C 109.2 208.393627 109.358049 208.775192 109.63934 209.056482 
C 109.92063 209.337772 110.302195 209.495822 110.7 209.495822 
z
" clip-path="url(#p56d205d113)" style="fill: #fdcab5; stroke: #00ff00; stroke-width: 3"/>
    <path d="M 159.299543 195.9946 
C 159.697348 195.9946 160.078913 195.836551 160.360204 195.55526 
C 160.641494 195.27397 160.799543 194.892405 160.799543 194.4946 
C 160.799543 194.096795 160.641494 193.71523 160.360204 193.43394 
C 160.078913 193.152649 159.697348 192.9946 159.299543 192.9946 
C 158.901739 192.9946 158.520174 193.152649 158.238883 193.43394 
C 157.957593 193.71523 157.799543 194.096795 157.799543 194.4946 
C 157.799543 194.892405 157.957593 195.27397 158.238883 195.55526 
C 158.520174 195.836551 158.901739 195.9946 159.299543 195.9946 
z
" clip-path="url(#p56d205d113)" style="fill: #fdcab5; stroke: #00ff00; stroke-width: 3"/>
   </g>
   <g id="matplotlib.axis_1"/>
   <g id="matplotlib.axis_2"/>
  </g>
  <g id="axes_2">
   <g id="patch_3">
    <path d="M 27 356.027586 
L 194.4 356.027586 
L 194.4 241.324138 
L 27 241.324138 
z
" style="fill: #ffffff"/>
   </g>
   <g id="EdgeCollection_2">
    <path d="M 180.729172 299.425862 
C 206.160329 312.295577 206.160329 285.056147 180.729172 297.925862 
C 206.160329 285.056147 206.160329 312.295577 180.729172 299.425862 
" clip-path="url(#p2a8bcaad68)" style="fill: #ffffff"/>
    <path d="M 178.631567 297.406102 
L 163.292377 273.016032 
" clip-path="url(#p2a8bcaad68)" style="fill: #ffffff"/>
    <path d="M 178.177425 297.850803 
L 116.963541 257.534115 
" clip-path="url(#p2a8bcaad68)" style="fill: #ffffff"/>
    <path d="M 177.983018 298.281075 
L 69.336034 268.641164 
" clip-path="url(#p2a8bcaad68)" style="fill: #ffffff"/>
    <path d="M 177.930134 298.675862 
L 43.469866 298.675862 
" clip-path="url(#p2a8bcaad68)" style="fill: #ffffff"/>
    <path d="M 177.983018 299.070649 
L 63.547572 330.289707 
" clip-path="url(#p2a8bcaad68)" style="fill: #ffffff"/>
    <path d="M 178.177425 299.500921 
L 116.963541 339.817609 
" clip-path="url(#p2a8bcaad68)" style="fill: #ffffff"/>
    <path d="M 178.631567 299.945622 
L 160.09811 329.414733 
" clip-path="url(#p2a8bcaad68)" style="fill: #ffffff"/>
    <path d="M 166.179925 263.68221 
C 186.158458 253.303147 164.275046 237.082701 160.154631 259.216135 
C 164.275046 237.082701 186.158458 253.303147 166.179925 263.68221 
" clip-path="url(#p2a8bcaad68)" style="fill: #ffffff"/>
    <path d="M 152.063966 264.693297 
L 117.935578 255.382754 
" clip-path="url(#p2a8bcaad68)" style="stroke: #000000; stroke-width: 0.98008"/>
    <path d="M 151.799543 266.66723 
L 69.600457 266.66723 
" clip-path="url(#p2a8bcaad68)" style="stroke: #000000; stroke-width: 1.262948"/>
    <path d="M 152.063966 268.641164 
L 43.416982 298.281075 
" clip-path="url(#p2a8bcaad68)" style="fill: #ffffff"/>
    <path d="M 153.036002 270.792524 
L 63.353165 329.859435 
" clip-path="url(#p2a8bcaad68)" style="fill: #ffffff"/>
    <path d="M 155.30671 273.016032 
L 114.692833 337.594101 
" clip-path="url(#p2a8bcaad68)" style="stroke: #000000; stroke-width: 0.482072"/>
    <path d="M 159.299543 274.16723 
L 159.299543 329.184494 
" clip-path="url(#p2a8bcaad68)" style="fill: #ffffff"/>
    <path d="M 114.45 246.913631 
C 124.319715 226.678625 97.080285 226.678625 106.95 246.913631 
C 97.080285 226.678625 124.319715 226.678625 114.45 246.913631 
" clip-path="url(#p2a8bcaad68)" style="fill: #ffffff"/>
    <path d="M 103.464422 255.382754 
L 69.336034 264.693297 
" clip-path="url(#p2a8bcaad68)" style="stroke: #000000; stroke-width: 2"/>
    <path d="M 104.436459 257.534115 
L 43.222575 297.850803 
" clip-path="url(#p2a8bcaad68)" style="fill: #ffffff"/>
    <path d="M 106.707167 259.757623 
L 62.899023 329.414733 
" clip-path="url(#p2a8bcaad68)" style="fill: #ffffff"/>
    <path d="M 110.7 260.908821 
L 110.7 336.442903 
" clip-path="url(#p2a8bcaad68)" style="stroke: #000000; stroke-width: 0.677291"/>
    <path d="M 114.692833 259.757623 
L 158.500977 329.414733 
" clip-path="url(#p2a8bcaad68)" style="fill: #ffffff"/>
    <path d="M 61.245369 259.216135 
C 57.124954 237.082701 35.241542 253.303147 55.220075 263.68221 
C 35.241542 253.303147 57.124954 237.082701 61.245369 259.216135 
" clip-path="url(#p2a8bcaad68)" style="fill: #ffffff"/>
    <path d="M 58.107623 273.016032 
L 42.768433 297.406102 
" clip-path="url(#p2a8bcaad68)" style="fill: #ffffff"/>
    <path d="M 62.100457 274.16723 
L 62.100457 329.184494 
" clip-path="url(#p2a8bcaad68)" style="fill: #ffffff"/>
    <path d="M 66.09329 273.016032 
L 106.707167 337.594101 
" clip-path="url(#p2a8bcaad68)" style="stroke: #000000; stroke-width: 1.007968"/>
    <path d="M 68.363998 270.792524 
L 158.046835 329.859435 
" clip-path="url(#p2a8bcaad68)" style="fill: #ffffff"/>
    <path d="M 40.670828 297.925862 
C 15.239671 285.056147 15.239671 312.295577 40.670828 299.425862 
C 15.239671 312.295577 15.239671 285.056147 40.670828 297.925862 
" clip-path="url(#p2a8bcaad68)" style="fill: #ffffff"/>
    <path d="M 42.768433 299.945622 
L 61.30189 329.414733 
" clip-path="url(#p2a8bcaad68)" style="fill: #ffffff"/>
    <path d="M 43.222575 299.500921 
L 104.436459 339.817609 
" clip-path="url(#p2a8bcaad68)" style="fill: #ffffff"/>
    <path d="M 43.416982 299.070649 
L 157.852428 330.289707 
" clip-path="url(#p2a8bcaad68)" style="fill: #ffffff"/>
    <path d="M 60.72438 331.281498 
C 35.241542 344.048577 57.124954 360.269023 61.929439 332.174713 
C 57.124954 360.269023 35.241542 344.048577 60.72438 331.281498 
" clip-path="url(#p2a8bcaad68)" style="fill: #ffffff"/>
    <path d="M 63.547572 331.07928 
L 103.464422 341.96897 
" clip-path="url(#p2a8bcaad68)" style="fill: #ffffff"/>
    <path d="M 63.600457 330.684494 
L 157.799543 330.684494 
" clip-path="url(#p2a8bcaad68)" style="fill: #ffffff"/>
    <path d="M 106.95 350.438093 
C 97.080285 370.673099 124.319715 370.673099 114.45 350.438093 
C 124.319715 370.673099 97.080285 370.673099 106.95 350.438093 
" clip-path="url(#p2a8bcaad68)" style="fill: #ffffff"/>
    <path d="M 117.935578 341.96897 
L 157.852428 331.07928 
" clip-path="url(#p2a8bcaad68)" style="fill: #ffffff"/>
    <path d="M 159.470561 332.174713 
C 164.275046 360.269023 186.158458 344.048577 160.67562 331.281498 
C 186.158458 344.048577 164.275046 360.269023 159.470561 332.174713 
" clip-path="url(#p2a8bcaad68)" style="fill: #ffffff"/>
   </g>
   <g id="VertexCollection_2">
    <path d="M 179.430134 300.175862 
C 179.827938 300.175862 180.209503 300.017813 180.490794 299.736522 
C 180.772084 299.455232 180.930134 299.073667 180.930134 298.675862 
C 180.930134 298.278057 180.772084 297.896492 180.490794 297.615202 
C 180.209503 297.333912 179.827938 297.175862 179.430134 297.175862 
C 179.032329 297.175862 178.650764 297.333912 178.369473 297.615202 
C 178.088183 297.896492 177.930134 298.278057 177.930134 298.675862 
C 177.930134 299.073667 178.088183 299.455232 178.369473 299.736522 
C 178.650764 300.017813 179.032329 300.175862 179.430134 300.175862 
z
" clip-path="url(#p2a8bcaad68)" style="fill: #fdcab5; stroke: #00ff00; stroke-width: 3"/>
    <path d="M 159.299543 274.16723 
C 161.288567 274.16723 163.196393 273.376983 164.602844 271.970531 
C 166.009296 270.56408 166.799543 268.656254 166.799543 266.66723 
C 166.799543 264.678207 166.009296 262.770381 164.602844 261.36393 
C 163.196393 259.957478 161.288567 259.16723 159.299543 259.16723 
C 157.31052 259.16723 155.402694 259.957478 153.996243 261.36393 
C 152.589791 262.770381 151.799543 264.678207 151.799543 266.66723 
C 151.799543 268.656254 152.589791 270.56408 153.996243 271.970531 
C 155.402694 273.376983 157.31052 274.16723 159.299543 274.16723 
z
" clip-path="url(#p2a8bcaad68)" style="fill: #6b010e; stroke: #00ff00; stroke-width: 3"/>
    <path d="M 110.7 260.908821 
C 112.689023 260.908821 114.596849 260.118574 116.003301 258.712122 
C 117.409753 257.30567 118.2 255.397844 118.2 253.408821 
C 118.2 251.419798 117.409753 249.511972 116.003301 248.10552 
C 114.596849 246.699068 112.689023 245.908821 110.7 245.908821 
C 108.710977 245.908821 106.803151 246.699068 105.396699 248.10552 
C 103.990247 249.511972 103.2 251.419798 103.2 253.408821 
C 103.2 255.397844 103.990247 257.30567 105.396699 258.712122 
C 106.803151 260.118574 108.710977 260.908821 110.7 260.908821 
z
" clip-path="url(#p2a8bcaad68)" style="fill: #6b010e; stroke: #00ff00; stroke-width: 3"/>
    <path d="M 62.100457 274.16723 
C 64.08948 274.16723 65.997306 273.376983 67.403757 271.970531 
C 68.810209 270.56408 69.600457 268.656254 69.600457 266.66723 
C 69.600457 264.678207 68.810209 262.770381 67.403757 261.36393 
C 65.997306 259.957478 64.08948 259.16723 62.100457 259.16723 
C 60.111433 259.16723 58.203607 259.957478 56.797156 261.36393 
C 55.390704 262.770381 54.600457 264.678207 54.600457 266.66723 
C 54.600457 268.656254 55.390704 270.56408 56.797156 271.970531 
C 58.203607 273.376983 60.111433 274.16723 62.100457 274.16723 
z
" clip-path="url(#p2a8bcaad68)" style="fill: #6b010e; stroke: #00ff00; stroke-width: 3"/>
    <path d="M 41.969866 300.175862 
C 42.367671 300.175862 42.749236 300.017813 43.030527 299.736522 
C 43.311817 299.455232 43.469866 299.073667 43.469866 298.675862 
C 43.469866 298.278057 43.311817 297.896492 43.030527 297.615202 
C 42.749236 297.333912 42.367671 297.175862 41.969866 297.175862 
C 41.572062 297.175862 41.190497 297.333912 40.909206 297.615202 
C 40.627916 297.896492 40.469866 298.278057 40.469866 298.675862 
C 40.469866 299.073667 40.627916 299.455232 40.909206 299.736522 
C 41.190497 300.017813 41.572062 300.175862 41.969866 300.175862 
z
" clip-path="url(#p2a8bcaad68)" style="fill: #fdcab5; stroke: #ff0000; stroke-width: 3"/>
    <path d="M 62.100457 332.184494 
C 62.498261 332.184494 62.879826 332.026444 63.161117 331.745154 
C 63.442407 331.463863 63.600457 331.082298 63.600457 330.684494 
C 63.600457 330.286689 63.442407 329.905124 63.161117 329.623833 
C 62.879826 329.342543 62.498261 329.184494 62.100457 329.184494 
C 61.702652 329.184494 61.321087 329.342543 61.039796 329.623833 
C 60.758506 329.905124 60.600457 330.286689 60.600457 330.684494 
C 60.600457 331.082298 60.758506 331.463863 61.039796 331.745154 
C 61.321087 332.026444 61.702652 332.184494 62.100457 332.184494 
z
" clip-path="url(#p2a8bcaad68)" style="fill: #fdcab5; stroke: #00ff00; stroke-width: 3"/>
    <path d="M 110.7 351.442903 
C 112.689023 351.442903 114.596849 350.652656 116.003301 349.246204 
C 117.409753 347.839752 118.2 345.931926 118.2 343.942903 
C 118.2 341.95388 117.409753 340.046054 116.003301 338.639602 
C 114.596849 337.23315 112.689023 336.442903 110.7 336.442903 
C 108.710977 336.442903 106.803151 337.23315 105.396699 338.639602 
C 103.990247 340.046054 103.2 341.95388 103.2 343.942903 
C 103.2 345.931926 103.990247 347.839752 105.396699 349.246204 
C 106.803151 350.652656 108.710977 351.442903 110.7 351.442903 
z
" clip-path="url(#p2a8bcaad68)" style="fill: #6b010e; stroke: #00ff00; stroke-width: 3"/>
    <path d="M 159.299543 332.184494 
C 159.697348 332.184494 160.078913 332.026444 160.360204 331.745154 
C 160.641494 331.463863 160.799543 331.082298 160.799543 330.684494 
C 160.799543 330.286689 160.641494 329.905124 160.360204 329.623833 
C 160.078913 329.342543 159.697348 329.184494 159.299543 329.184494 
C 158.901739 329.184494 158.520174 329.342543 158.238883 329.623833 
C 157.957593 329.905124 157.799543 330.286689 157.799543 330.684494 
C 157.799543 331.082298 157.957593 331.463863 158.238883 331.745154 
C 158.520174 332.026444 158.901739 332.184494 159.299543 332.184494 
z
" clip-path="url(#p2a8bcaad68)" style="fill: #fdcab5; stroke: #00ff00; stroke-width: 3"/>
   </g>
   <g id="matplotlib.axis_3"/>
   <g id="matplotlib.axis_4"/>
  </g>
  <g id="axes_3">
   <g id="patch_4">
    <path d="M 27 493.671724 
L 194.4 493.671724 
L 194.4 378.968276 
L 27 378.968276 
z
" style="fill: #ffffff"/>
   </g>
   <g id="EdgeCollection_3">
    <path d="M 180.729172 437.07 
C 206.160329 449.939715 206.160329 422.700285 180.729172 435.57 
C 206.160329 422.700285 206.160329 449.939715 180.729172 437.07 
" clip-path="url(#p19c9f2d9d7)" style="fill: #ffffff"/>
    <path d="M 178.631567 435.05024 
L 160.09811 405.581129 
" clip-path="url(#p19c9f2d9d7)" style="fill: #ffffff"/>
    <path d="M 178.177425 435.494941 
L 116.963541 395.178253 
" clip-path="url(#p19c9f2d9d7)" style="fill: #ffffff"/>
    <path d="M 177.983018 435.925213 
L 69.336034 406.285302 
" clip-path="url(#p19c9f2d9d7)" style="fill: #ffffff"/>
    <path d="M 177.930134 436.32 
L 43.469866 436.32 
" clip-path="url(#p19c9f2d9d7)" style="fill: #ffffff"/>
    <path d="M 177.983018 436.714787 
L 63.547572 467.933845 
" clip-path="url(#p19c9f2d9d7)" style="fill: #ffffff"/>
    <path d="M 178.177425 437.145059 
L 116.963541 477.461747 
" clip-path="url(#p19c9f2d9d7)" style="fill: #ffffff"/>
    <path d="M 178.631567 437.58976 
L 160.09811 467.058871 
" clip-path="url(#p19c9f2d9d7)" style="fill: #ffffff"/>
    <path d="M 160.67562 403.714364 
C 186.158458 390.947285 164.275046 374.726839 159.470561 402.821149 
C 164.275046 374.726839 186.158458 390.947285 160.67562 403.714364 
" clip-path="url(#p19c9f2d9d7)" style="fill: #ffffff"/>
    <path d="M 157.852428 403.916582 
L 117.935578 393.026892 
" clip-path="url(#p19c9f2d9d7)" style="stroke: #000000; stroke-width: 1.226496"/>
    <path d="M 157.799543 404.311368 
L 69.600457 404.311368 
" clip-path="url(#p19c9f2d9d7)" style="stroke: #000000; stroke-width: 1.34188"/>
    <path d="M 157.852428 404.706155 
L 43.416982 435.925213 
" clip-path="url(#p19c9f2d9d7)" style="fill: #ffffff"/>
    <path d="M 158.046835 405.136427 
L 63.353165 467.503573 
" clip-path="url(#p19c9f2d9d7)" style="fill: #ffffff"/>
    <path d="M 158.500977 405.581129 
L 114.692833 475.238239 
" clip-path="url(#p19c9f2d9d7)" style="fill: #ffffff"/>
    <path d="M 159.299543 405.811368 
L 159.299543 466.828632 
" clip-path="url(#p19c9f2d9d7)" style="fill: #ffffff"/>
    <path d="M 114.45 384.557769 
C 124.319715 364.322763 97.080285 364.322763 106.95 384.557769 
C 97.080285 364.322763 124.319715 364.322763 114.45 384.557769 
" clip-path="url(#p19c9f2d9d7)" style="fill: #ffffff"/>
    <path d="M 103.464422 393.026892 
L 69.336034 402.337435 
" clip-path="url(#p19c9f2d9d7)" style="stroke: #000000; stroke-width: 2"/>
    <path d="M 104.436459 395.178253 
L 43.222575 435.494941 
" clip-path="url(#p19c9f2d9d7)" style="fill: #ffffff"/>
    <path d="M 106.707167 397.401761 
L 62.899023 467.058871 
" clip-path="url(#p19c9f2d9d7)" style="fill: #ffffff"/>
    <path d="M 110.7 398.552959 
L 110.7 474.087041 
" clip-path="url(#p19c9f2d9d7)" style="stroke: #000000; stroke-width: 1.273504"/>
    <path d="M 114.692833 397.401761 
L 158.500977 467.058871 
" clip-path="url(#p19c9f2d9d7)" style="fill: #ffffff"/>
    <path d="M 61.245369 396.860273 
C 57.124954 374.726839 35.241542 390.947285 55.220075 401.326348 
C 35.241542 390.947285 57.124954 374.726839 61.245369 396.860273 
" clip-path="url(#p19c9f2d9d7)" style="fill: #ffffff"/>
    <path d="M 58.107623 410.66017 
L 42.768433 435.05024 
" clip-path="url(#p19c9f2d9d7)" style="fill: #ffffff"/>
    <path d="M 62.100457 411.811368 
L 62.100457 466.828632 
" clip-path="url(#p19c9f2d9d7)" style="fill: #ffffff"/>
    <path d="M 66.09329 410.66017 
L 106.707167 475.238239 
" clip-path="url(#p19c9f2d9d7)" style="stroke: #000000; stroke-width: 1.188034"/>
    <path d="M 68.363998 408.436662 
L 158.046835 467.503573 
" clip-path="url(#p19c9f2d9d7)" style="fill: #ffffff"/>
    <path d="M 40.670828 435.57 
C 15.239671 422.700285 15.239671 449.939715 40.670828 437.07 
C 15.239671 449.939715 15.239671 422.700285 40.670828 435.57 
" clip-path="url(#p19c9f2d9d7)" style="fill: #ffffff"/>
    <path d="M 42.768433 437.58976 
L 61.30189 467.058871 
" clip-path="url(#p19c9f2d9d7)" style="fill: #ffffff"/>
    <path d="M 43.222575 437.145059 
L 104.436459 477.461747 
" clip-path="url(#p19c9f2d9d7)" style="fill: #ffffff"/>
    <path d="M 43.416982 436.714787 
L 157.852428 467.933845 
" clip-path="url(#p19c9f2d9d7)" style="fill: #ffffff"/>
    <path d="M 60.72438 468.925636 
C 35.241542 481.692715 57.124954 497.913161 61.929439 469.818851 
C 57.124954 497.913161 35.241542 481.692715 60.72438 468.925636 
" clip-path="url(#p19c9f2d9d7)" style="fill: #ffffff"/>
    <path d="M 63.547572 468.723418 
L 103.464422 479.613108 
" clip-path="url(#p19c9f2d9d7)" style="stroke: #000000; stroke-width: 0.905983"/>
    <path d="M 63.600457 468.328632 
L 157.799543 468.328632 
" clip-path="url(#p19c9f2d9d7)" style="fill: #ffffff"/>
    <path d="M 106.95 488.082231 
C 97.080285 508.317237 124.319715 508.317237 114.45 488.082231 
C 124.319715 508.317237 97.080285 508.317237 106.95 488.082231 
" clip-path="url(#p19c9f2d9d7)" style="fill: #ffffff"/>
    <path d="M 117.935578 479.613108 
L 157.852428 468.723418 
" clip-path="url(#p19c9f2d9d7)" style="fill: #ffffff"/>
    <path d="M 159.470561 469.818851 
C 164.275046 497.913161 186.158458 481.692715 160.67562 468.925636 
C 186.158458 481.692715 164.275046 497.913161 159.470561 469.818851 
" clip-path="url(#p19c9f2d9d7)" style="fill: #ffffff"/>
   </g>
   <g id="VertexCollection_3">
    <path d="M 179.430134 437.82 
C 179.827938 437.82 180.209503 437.661951 180.490794 437.38066 
C 180.772084 437.09937 180.930134 436.717805 180.930134 436.32 
C 180.930134 435.922195 180.772084 435.54063 180.490794 435.25934 
C 180.209503 434.978049 179.827938 434.82 179.430134 434.82 
C 179.032329 434.82 178.650764 434.978049 178.369473 435.25934 
C 178.088183 435.54063 177.930134 435.922195 177.930134 436.32 
C 177.930134 436.717805 178.088183 437.09937 178.369473 437.38066 
C 178.650764 437.661951 179.032329 437.82 179.430134 437.82 
z
" clip-path="url(#p19c9f2d9d7)" style="fill: #fdcab5; stroke: #00ff00; stroke-width: 3"/>
    <path d="M 159.299543 405.811368 
C 159.697348 405.811368 160.078913 405.653319 160.360204 405.372029 
C 160.641494 405.090738 160.799543 404.709173 160.799543 404.311368 
C 160.799543 403.913564 160.641494 403.531999 160.360204 403.250708 
C 160.078913 402.969418 159.697348 402.811368 159.299543 402.811368 
C 158.901739 402.811368 158.520174 402.969418 158.238883 403.250708 
C 157.957593 403.531999 157.799543 403.913564 157.799543 404.311368 
C 157.799543 404.709173 157.957593 405.090738 158.238883 405.372029 
C 158.520174 405.653319 158.901739 405.811368 159.299543 405.811368 
z
" clip-path="url(#p19c9f2d9d7)" style="fill: #fdcab5; stroke: #00ff00; stroke-width: 3"/>
    <path d="M 110.7 398.552959 
C 112.689023 398.552959 114.596849 397.762712 116.003301 396.35626 
C 117.409753 394.949808 118.2 393.041982 118.2 391.052959 
C 118.2 389.063936 117.409753 387.15611 116.003301 385.749658 
C 114.596849 384.343206 112.689023 383.552959 110.7 383.552959 
C 108.710977 383.552959 106.803151 384.343206 105.396699 385.749658 
C 103.990247 387.15611 103.2 389.063936 103.2 391.052959 
C 103.2 393.041982 103.990247 394.949808 105.396699 396.35626 
C 106.803151 397.762712 108.710977 398.552959 110.7 398.552959 
z
" clip-path="url(#p19c9f2d9d7)" style="fill: #6b010e; stroke: #00ff00; stroke-width: 3"/>
    <path d="M 62.100457 411.811368 
C 64.08948 411.811368 65.997306 411.021121 67.403757 409.614669 
C 68.810209 408.208217 69.600457 406.300392 69.600457 404.311368 
C 69.600457 402.322345 68.810209 400.414519 67.403757 399.008068 
C 65.997306 397.601616 64.08948 396.811368 62.100457 396.811368 
C 60.111433 396.811368 58.203607 397.601616 56.797156 399.008068 
C 55.390704 400.414519 54.600457 402.322345 54.600457 404.311368 
C 54.600457 406.300392 55.390704 408.208217 56.797156 409.614669 
C 58.203607 411.021121 60.111433 411.811368 62.100457 411.811368 
z
" clip-path="url(#p19c9f2d9d7)" style="fill: #6b010e; stroke: #00ff00; stroke-width: 3"/>
    <path d="M 41.969866 437.82 
C 42.367671 437.82 42.749236 437.661951 43.030527 437.38066 
C 43.311817 437.09937 43.469866 436.717805 43.469866 436.32 
C 43.469866 435.922195 43.311817 435.54063 43.030527 435.25934 
C 42.749236 434.978049 42.367671 434.82 41.969866 434.82 
C 41.572062 434.82 41.190497 434.978049 40.909206 435.25934 
C 40.627916 435.54063 40.469866 435.922195 40.469866 436.32 
C 40.469866 436.717805 40.627916 437.09937 40.909206 437.38066 
C 41.190497 437.661951 41.572062 437.82 41.969866 437.82 
z
" clip-path="url(#p19c9f2d9d7)" style="fill: #fdcab5; stroke: #ff0000; stroke-width: 3"/>
    <path d="M 62.100457 469.828632 
C 62.498261 469.828632 62.879826 469.670582 63.161117 469.389292 
C 63.442407 469.108001 63.600457 468.726436 63.600457 468.328632 
C 63.600457 467.930827 63.442407 467.549262 63.161117 467.267971 
C 62.879826 466.986681 62.498261 466.828632 62.100457 466.828632 
C 61.702652 466.828632 61.321087 466.986681 61.039796 467.267971 
C 60.758506 467.549262 60.600457 467.930827 60.600457 468.328632 
C 60.600457 468.726436 60.758506 469.108001 61.039796 469.389292 
C 61.321087 469.670582 61.702652 469.828632 62.100457 469.828632 
z
" clip-path="url(#p19c9f2d9d7)" style="fill: #fdcab5; stroke: #00ff00; stroke-width: 3"/>
    <path d="M 110.7 489.087041 
C 112.689023 489.087041 114.596849 488.296794 116.003301 486.890342 
C 117.409753 485.48389 118.2 483.576064 118.2 481.587041 
C 118.2 479.598018 117.409753 477.690192 116.003301 476.28374 
C 114.596849 474.877288 112.689023 474.087041 110.7 474.087041 
C 108.710977 474.087041 106.803151 474.877288 105.396699 476.28374 
C 103.990247 477.690192 103.2 479.598018 103.2 481.587041 
C 103.2 483.576064 103.990247 485.48389 105.396699 486.890342 
C 106.803151 488.296794 108.710977 489.087041 110.7 489.087041 
z
" clip-path="url(#p19c9f2d9d7)" style="fill: #6b010e; stroke: #00ff00; stroke-width: 3"/>
    <path d="M 159.299543 469.828632 
C 159.697348 469.828632 160.078913 469.670582 160.360204 469.389292 
C 160.641494 469.108001 160.799543 468.726436 160.799543 468.328632 
C 160.799543 467.930827 160.641494 467.549262 160.360204 467.267971 
C 160.078913 466.986681 159.697348 466.828632 159.299543 466.828632 
C 158.901739 466.828632 158.520174 466.986681 158.238883 467.267971 
C 157.957593 467.549262 157.799543 467.930827 157.799543 468.328632 
C 157.799543 468.726436 157.957593 469.108001 158.238883 469.389292 
C 158.520174 469.670582 158.901739 469.828632 159.299543 469.828632 
z
" clip-path="url(#p19c9f2d9d7)" style="fill: #fdcab5; stroke: #00ff00; stroke-width: 3"/>
   </g>
   <g id="matplotlib.axis_5"/>
   <g id="matplotlib.axis_6"/>
  </g>
  <g id="axes_4">
   <g id="patch_5">
    <path d="M 27 631.315862 
L 194.4 631.315862 
L 194.4 516.612414 
L 27 516.612414 
z
" style="fill: #ffffff"/>
   </g>
   <g id="EdgeCollection_4">
    <path d="M 180.729172 574.714138 
C 206.160329 587.583853 206.160329 560.344423 180.729172 573.214138 
C 206.160329 560.344423 206.160329 587.583853 180.729172 574.714138 
" clip-path="url(#pddaaa51916)" style="fill: #ffffff"/>
    <path d="M 178.631567 572.694378 
L 160.09811 543.225267 
" clip-path="url(#pddaaa51916)" style="fill: #ffffff"/>
    <path d="M 178.177425 573.139079 
L 116.963541 532.822391 
" clip-path="url(#pddaaa51916)" style="fill: #ffffff"/>
    <path d="M 177.983018 573.569351 
L 69.336034 543.92944 
" clip-path="url(#pddaaa51916)" style="fill: #ffffff"/>
    <path d="M 177.930134 573.964138 
L 43.469866 573.964138 
" clip-path="url(#pddaaa51916)" style="fill: #ffffff"/>
    <path d="M 177.983018 574.358925 
L 63.547572 605.577983 
" clip-path="url(#pddaaa51916)" style="fill: #ffffff"/>
    <path d="M 178.177425 574.789197 
L 116.963541 615.105885 
" clip-path="url(#pddaaa51916)" style="fill: #ffffff"/>
    <path d="M 178.631567 575.233898 
L 160.09811 604.703009 
" clip-path="url(#pddaaa51916)" style="fill: #ffffff"/>
    <path d="M 160.67562 541.358502 
C 186.158458 528.591423 164.275046 512.370977 159.470561 540.465287 
C 164.275046 512.370977 186.158458 528.591423 160.67562 541.358502 
" clip-path="url(#pddaaa51916)" style="fill: #ffffff"/>
    <path d="M 157.852428 541.56072 
L 117.935578 530.67103 
" clip-path="url(#pddaaa51916)" style="stroke: #000000; stroke-width: 1.403243"/>
    <path d="M 157.799543 541.955506 
L 69.600457 541.955506 
" clip-path="url(#pddaaa51916)" style="stroke: #000000; stroke-width: 1.532973"/>
    <path d="M 157.852428 542.350293 
L 43.416982 573.569351 
" clip-path="url(#pddaaa51916)" style="fill: #ffffff"/>
    <path d="M 158.046835 542.780565 
L 63.353165 605.147711 
" clip-path="url(#pddaaa51916)" style="fill: #ffffff"/>
    <path d="M 158.500977 543.225267 
L 114.692833 612.882377 
" clip-path="url(#pddaaa51916)" style="fill: #ffffff"/>
    <path d="M 159.299543 543.455506 
L 159.299543 604.47277 
" clip-path="url(#pddaaa51916)" style="fill: #ffffff"/>
    <path d="M 114.45 522.201907 
C 124.319715 501.966901 97.080285 501.966901 106.95 522.201907 
C 97.080285 501.966901 124.319715 501.966901 114.45 522.201907 
" clip-path="url(#pddaaa51916)" style="fill: #ffffff"/>
    <path d="M 103.464422 530.67103 
L 69.336034 539.981573 
" clip-path="url(#pddaaa51916)" style="stroke: #000000; stroke-width: 2"/>
    <path d="M 104.436459 532.822391 
L 43.222575 573.139079 
" clip-path="url(#pddaaa51916)" style="fill: #ffffff"/>
    <path d="M 106.707167 535.045899 
L 62.899023 604.703009 
" clip-path="url(#pddaaa51916)" style="fill: #ffffff"/>
    <path d="M 110.7 536.197097 
L 110.7 611.731179 
" clip-path="url(#pddaaa51916)" style="stroke: #000000; stroke-width: 1.68"/>
    <path d="M 114.692833 535.045899 
L 158.500977 604.703009 
" clip-path="url(#pddaaa51916)" style="fill: #ffffff"/>
    <path d="M 61.245369 534.504411 
C 57.124954 512.370977 35.241542 528.591423 55.220075 538.970486 
C 35.241542 528.591423 57.124954 512.370977 61.245369 534.504411 
" clip-path="url(#pddaaa51916)" style="fill: #ffffff"/>
    <path d="M 58.107623 548.304308 
L 42.768433 572.694378 
" clip-path="url(#pddaaa51916)" style="fill: #ffffff"/>
    <path d="M 62.100457 549.455506 
L 62.100457 604.47277 
" clip-path="url(#pddaaa51916)" style="fill: #ffffff"/>
    <path d="M 66.09329 548.304308 
L 106.707167 612.882377 
" clip-path="url(#pddaaa51916)" style="stroke: #000000; stroke-width: 1.418378"/>
    <path d="M 68.363998 546.0808 
L 158.046835 605.147711 
" clip-path="url(#pddaaa51916)" style="fill: #ffffff"/>
    <path d="M 40.670828 573.214138 
C 15.239671 560.344423 15.239671 587.583853 40.670828 574.714138 
C 15.239671 587.583853 15.239671 560.344423 40.670828 573.214138 
" clip-path="url(#pddaaa51916)" style="fill: #ffffff"/>
    <path d="M 42.768433 575.233898 
L 61.30189 604.703009 
" clip-path="url(#pddaaa51916)" style="fill: #ffffff"/>
    <path d="M 43.222575 574.789197 
L 104.436459 615.105885 
" clip-path="url(#pddaaa51916)" style="fill: #ffffff"/>
    <path d="M 43.416982 574.358925 
L 157.852428 605.577983 
" clip-path="url(#pddaaa51916)" style="fill: #ffffff"/>
    <path d="M 60.72438 606.569774 
C 35.241542 619.336853 57.124954 635.557299 61.929439 607.462989 
C 57.124954 635.557299 35.241542 619.336853 60.72438 606.569774 
" clip-path="url(#pddaaa51916)" style="fill: #ffffff"/>
    <path d="M 63.547572 606.367556 
L 103.464422 617.257246 
" clip-path="url(#pddaaa51916)" style="stroke: #000000; stroke-width: 1.234595"/>
    <path d="M 63.600457 605.97277 
L 157.799543 605.97277 
" clip-path="url(#pddaaa51916)" style="fill: #ffffff"/>
    <path d="M 106.95 625.726369 
C 97.080285 645.961375 124.319715 645.961375 114.45 625.726369 
C 124.319715 645.961375 97.080285 645.961375 106.95 625.726369 
" clip-path="url(#pddaaa51916)" style="fill: #ffffff"/>
    <path d="M 117.935578 617.257246 
L 157.852428 606.367556 
" clip-path="url(#pddaaa51916)" style="fill: #ffffff"/>
    <path d="M 159.470561 607.462989 
C 164.275046 635.557299 186.158458 619.336853 160.67562 606.569774 
C 186.158458 619.336853 164.275046 635.557299 159.470561 607.462989 
" clip-path="url(#pddaaa51916)" style="fill: #ffffff"/>
   </g>
   <g id="VertexCollection_4">
    <path d="M 179.430134 575.464138 
C 179.827938 575.464138 180.209503 575.306088 180.490794 575.024798 
C 180.772084 574.743508 180.930134 574.361943 180.930134 573.964138 
C 180.930134 573.566333 180.772084 573.184768 180.490794 572.903478 
C 180.209503 572.622187 179.827938 572.464138 179.430134 572.464138 
C 179.032329 572.464138 178.650764 572.622187 178.369473 572.903478 
C 178.088183 573.184768 177.930134 573.566333 177.930134 573.964138 
C 177.930134 574.361943 178.088183 574.743508 178.369473 575.024798 
C 178.650764 575.306088 179.032329 575.464138 179.430134 575.464138 
z
" clip-path="url(#pddaaa51916)" style="fill: #fdcab5; stroke: #00ff00; stroke-width: 3"/>
    <path d="M 159.299543 543.455506 
C 159.697348 543.455506 160.078913 543.297457 160.360204 543.016167 
C 160.641494 542.734876 160.799543 542.353311 160.799543 541.955506 
C 160.799543 541.557702 160.641494 541.176137 160.360204 540.894846 
C 160.078913 540.613556 159.697348 540.455506 159.299543 540.455506 
C 158.901739 540.455506 158.520174 540.613556 158.238883 540.894846 
C 157.957593 541.176137 157.799543 541.557702 157.799543 541.955506 
C 157.799543 542.353311 157.957593 542.734876 158.238883 543.016167 
C 158.520174 543.297457 158.901739 543.455506 159.299543 543.455506 
z
" clip-path="url(#pddaaa51916)" style="fill: #fdcab5; stroke: #00ff00; stroke-width: 3"/>
    <path d="M 110.7 536.197097 
C 112.689023 536.197097 114.596849 535.40685 116.003301 534.000398 
C 117.409753 532.593946 118.2 530.68612 118.2 528.697097 
C 118.2 526.708074 117.409753 524.800248 116.003301 523.393796 
C 114.596849 521.987344 112.689023 521.197097 110.7 521.197097 
C 108.710977 521.197097 106.803151 521.987344 105.396699 523.393796 
C 103.990247 524.800248 103.2 526.708074 103.2 528.697097 
C 103.2 530.68612 103.990247 532.593946 105.396699 534.000398 
C 106.803151 535.40685 108.710977 536.197097 110.7 536.197097 
z
" clip-path="url(#pddaaa51916)" style="fill: #6b010e; stroke: #00ff00; stroke-width: 3"/>
    <path d="M 62.100457 549.455506 
C 64.08948 549.455506 65.997306 548.665259 67.403757 547.258807 
C 68.810209 545.852355 69.600457 543.94453 69.600457 541.955506 
C 69.600457 539.966483 68.810209 538.058657 67.403757 536.652205 
C 65.997306 535.245754 64.08948 534.455506 62.100457 534.455506 
C 60.111433 534.455506 58.203607 535.245754 56.797156 536.652205 
C 55.390704 538.058657 54.600457 539.966483 54.600457 541.955506 
C 54.600457 543.94453 55.390704 545.852355 56.797156 547.258807 
C 58.203607 548.665259 60.111433 549.455506 62.100457 549.455506 
z
" clip-path="url(#pddaaa51916)" style="fill: #6b010e; stroke: #00ff00; stroke-width: 3"/>
    <path d="M 41.969866 575.464138 
C 42.367671 575.464138 42.749236 575.306088 43.030527 575.024798 
C 43.311817 574.743508 43.469866 574.361943 43.469866 573.964138 
C 43.469866 573.566333 43.311817 573.184768 43.030527 572.903478 
C 42.749236 572.622187 42.367671 572.464138 41.969866 572.464138 
C 41.572062 572.464138 41.190497 572.622187 40.909206 572.903478 
C 40.627916 573.184768 40.469866 573.566333 40.469866 573.964138 
C 40.469866 574.361943 40.627916 574.743508 40.909206 575.024798 
C 41.190497 575.306088 41.572062 575.464138 41.969866 575.464138 
z
" clip-path="url(#pddaaa51916)" style="fill: #fdcab5; stroke: #ff0000; stroke-width: 3"/>
    <path d="M 62.100457 607.47277 
C 62.498261 607.47277 62.879826 607.31472 63.161117 607.03343 
C 63.442407 606.752139 63.600457 606.370574 63.600457 605.97277 
C 63.600457 605.574965 63.442407 605.1934 63.161117 604.912109 
C 62.879826 604.630819 62.498261 604.47277 62.100457 604.47277 
C 61.702652 604.47277 61.321087 604.630819 61.039796 604.912109 
C 60.758506 605.1934 60.600457 605.574965 60.600457 605.97277 
C 60.600457 606.370574 60.758506 606.752139 61.039796 607.03343 
C 61.321087 607.31472 61.702652 607.47277 62.100457 607.47277 
z
" clip-path="url(#pddaaa51916)" style="fill: #fdcab5; stroke: #00ff00; stroke-width: 3"/>
    <path d="M 110.7 626.731179 
C 112.689023 626.731179 114.596849 625.940932 116.003301 624.53448 
C 117.409753 623.128028 118.2 621.220202 118.2 619.231179 
C 118.2 617.242156 117.409753 615.33433 116.003301 613.927878 
C 114.596849 612.521426 112.689023 611.731179 110.7 611.731179 
C 108.710977 611.731179 106.803151 612.521426 105.396699 613.927878 
C 103.990247 615.33433 103.2 617.242156 103.2 619.231179 
C 103.2 621.220202 103.990247 623.128028 105.396699 624.53448 
C 106.803151 625.940932 108.710977 626.731179 110.7 626.731179 
z
" clip-path="url(#pddaaa51916)" style="fill: #6b010e; stroke: #00ff00; stroke-width: 3"/>
    <path d="M 159.299543 607.47277 
C 159.697348 607.47277 160.078913 607.31472 160.360204 607.03343 
C 160.641494 606.752139 160.799543 606.370574 160.799543 605.97277 
C 160.799543 605.574965 160.641494 605.1934 160.360204 604.912109 
C 160.078913 604.630819 159.697348 604.47277 159.299543 604.47277 
C 158.901739 604.47277 158.520174 604.630819 158.238883 604.912109 
C 157.957593 605.1934 157.799543 605.574965 157.799543 605.97277 
C 157.799543 606.370574 157.957593 606.752139 158.238883 607.03343 
C 158.520174 607.31472 158.901739 607.47277 159.299543 607.47277 
z
" clip-path="url(#pddaaa51916)" style="fill: #fdcab5; stroke: #00ff00; stroke-width: 3"/>
   </g>
   <g id="matplotlib.axis_7"/>
   <g id="matplotlib.axis_8"/>
  </g>
  <g id="axes_5">
   <g id="patch_6">
    <path d="M 27 768.96 
L 194.4 768.96 
L 194.4 654.256552 
L 27 654.256552 
z
" style="fill: #ffffff"/>
   </g>
   <g id="EdgeCollection_5">
    <path d="M 180.729172 712.358276 
C 206.160329 725.227991 206.160329 697.988561 180.729172 710.858276 
C 206.160329 697.988561 206.160329 725.227991 180.729172 712.358276 
" clip-path="url(#p93eb878fc7)" style="fill: #ffffff"/>
    <path d="M 178.631567 710.338516 
L 160.09811 680.869405 
" clip-path="url(#p93eb878fc7)" style="fill: #ffffff"/>
    <path d="M 178.177425 710.783217 
L 116.963541 670.466529 
" clip-path="url(#p93eb878fc7)" style="fill: #ffffff"/>
    <path d="M 177.983018 711.213489 
L 69.336034 681.573578 
" clip-path="url(#p93eb878fc7)" style="fill: #ffffff"/>
    <path d="M 177.930134 711.608276 
L 43.469866 711.608276 
" clip-path="url(#p93eb878fc7)" style="fill: #ffffff"/>
    <path d="M 177.983018 712.003063 
L 63.547572 743.222121 
" clip-path="url(#p93eb878fc7)" style="fill: #ffffff"/>
    <path d="M 178.177425 712.433335 
L 116.963541 752.750023 
" clip-path="url(#p93eb878fc7)" style="fill: #ffffff"/>
    <path d="M 178.631567 712.878036 
L 160.09811 742.347147 
" clip-path="url(#p93eb878fc7)" style="fill: #ffffff"/>
    <path d="M 160.67562 679.00264 
C 186.158458 666.235561 164.275046 650.015115 159.470561 678.109425 
C 164.275046 650.015115 186.158458 666.235561 160.67562 679.00264 
" clip-path="url(#p93eb878fc7)" style="fill: #ffffff"/>
    <path d="M 157.852428 679.204858 
L 117.935578 668.315168 
" clip-path="url(#p93eb878fc7)" style="stroke: #000000; stroke-width: 1.37788"/>
    <path d="M 157.799543 679.599644 
L 69.600457 679.599644 
" clip-path="url(#p93eb878fc7)" style="stroke: #000000; stroke-width: 1.260369"/>
    <path d="M 157.852428 679.994431 
L 43.416982 711.213489 
" clip-path="url(#p93eb878fc7)" style="fill: #ffffff"/>
    <path d="M 158.046835 680.424703 
L 63.353165 742.791849 
" clip-path="url(#p93eb878fc7)" style="fill: #ffffff"/>
    <path d="M 158.500977 680.869405 
L 114.692833 750.526515 
" clip-path="url(#p93eb878fc7)" style="fill: #ffffff"/>
    <path d="M 159.299543 681.099644 
L 159.299543 742.116907 
" clip-path="url(#p93eb878fc7)" style="fill: #ffffff"/>
    <path d="M 114.45 659.846044 
C 124.319715 639.611039 97.080285 639.611039 106.95 659.846044 
C 97.080285 639.611039 124.319715 639.611039 114.45 659.846044 
" clip-path="url(#p93eb878fc7)" style="fill: #ffffff"/>
    <path d="M 103.464422 668.315168 
L 69.336034 677.625711 
" clip-path="url(#p93eb878fc7)" style="stroke: #000000; stroke-width: 2"/>
    <path d="M 104.436459 670.466529 
L 43.222575 710.783217 
" clip-path="url(#p93eb878fc7)" style="fill: #ffffff"/>
    <path d="M 106.707167 672.690037 
L 62.899023 742.347147 
" clip-path="url(#p93eb878fc7)" style="fill: #ffffff"/>
    <path d="M 110.7 673.841235 
L 110.7 749.375317 
" clip-path="url(#p93eb878fc7)" style="stroke: #000000; stroke-width: 1.504608"/>
    <path d="M 114.692833 672.690037 
L 158.500977 742.347147 
" clip-path="url(#p93eb878fc7)" style="fill: #ffffff"/>
    <path d="M 61.245369 672.148549 
C 57.124954 650.015115 35.241542 666.235561 55.220075 676.614624 
C 35.241542 666.235561 57.124954 650.015115 61.245369 672.148549 
" clip-path="url(#p93eb878fc7)" style="fill: #ffffff"/>
    <path d="M 58.107623 685.948446 
L 42.768433 710.338516 
" clip-path="url(#p93eb878fc7)" style="fill: #ffffff"/>
    <path d="M 62.100457 687.099644 
L 62.100457 742.116907 
" clip-path="url(#p93eb878fc7)" style="fill: #ffffff"/>
    <path d="M 66.09329 685.948446 
L 106.707167 750.526515 
" clip-path="url(#p93eb878fc7)" style="stroke: #000000; stroke-width: 1.179724"/>
    <path d="M 68.363998 683.724938 
L 158.046835 742.791849 
" clip-path="url(#p93eb878fc7)" style="fill: #ffffff"/>
    <path d="M 40.670828 710.858276 
C 15.239671 697.988561 15.239671 725.227991 40.670828 712.358276 
C 15.239671 725.227991 15.239671 697.988561 40.670828 710.858276 
" clip-path="url(#p93eb878fc7)" style="fill: #ffffff"/>
    <path d="M 42.768433 712.878036 
L 61.30189 742.347147 
" clip-path="url(#p93eb878fc7)" style="fill: #ffffff"/>
    <path d="M 43.222575 712.433335 
L 104.436459 752.750023 
" clip-path="url(#p93eb878fc7)" style="fill: #ffffff"/>
    <path d="M 43.416982 712.003063 
L 157.852428 743.222121 
" clip-path="url(#p93eb878fc7)" style="fill: #ffffff"/>
    <path d="M 60.72438 744.213912 
C 35.241542 756.980991 57.124954 773.201437 61.929439 745.107127 
C 57.124954 773.201437 35.241542 756.980991 60.72438 744.213912 
" clip-path="url(#p93eb878fc7)" style="fill: #ffffff"/>
    <path d="M 63.547572 744.011694 
L 103.464422 754.901384 
" clip-path="url(#p93eb878fc7)" style="stroke: #000000; stroke-width: 0.882488"/>
    <path d="M 63.600457 743.616907 
L 157.799543 743.616907 
" clip-path="url(#p93eb878fc7)" style="fill: #ffffff"/>
    <path d="M 106.95 763.370507 
C 97.080285 783.605512 124.319715 783.605512 114.45 763.370507 
C 124.319715 783.605512 97.080285 783.605512 106.95 763.370507 
" clip-path="url(#p93eb878fc7)" style="fill: #ffffff"/>
    <path d="M 117.935578 754.901384 
L 157.852428 744.011694 
" clip-path="url(#p93eb878fc7)" style="fill: #ffffff"/>
    <path d="M 159.470561 745.107127 
C 164.275046 773.201437 186.158458 756.980991 160.67562 744.213912 
C 186.158458 756.980991 164.275046 773.201437 159.470561 745.107127 
" clip-path="url(#p93eb878fc7)" style="fill: #ffffff"/>
   </g>
   <g id="VertexCollection_5">
    <path d="M 179.430134 713.108276 
C 179.827938 713.108276 180.209503 712.950226 180.490794 712.668936 
C 180.772084 712.387646 180.930134 712.006081 180.930134 711.608276 
C 180.930134 711.210471 180.772084 710.828906 180.490794 710.547616 
C 180.209503 710.266325 179.827938 710.108276 179.430134 710.108276 
C 179.032329 710.108276 178.650764 710.266325 178.369473 710.547616 
C 178.088183 710.828906 177.930134 711.210471 177.930134 711.608276 
C 177.930134 712.006081 178.088183 712.387646 178.369473 712.668936 
C 178.650764 712.950226 179.032329 713.108276 179.430134 713.108276 
z
" clip-path="url(#p93eb878fc7)" style="fill: #fdcab5; stroke: #00ff00; stroke-width: 3"/>
    <path d="M 159.299543 681.099644 
C 159.697348 681.099644 160.078913 680.941595 160.360204 680.660304 
C 160.641494 680.379014 160.799543 679.997449 160.799543 679.599644 
C 160.799543 679.20184 160.641494 678.820274 160.360204 678.538984 
C 160.078913 678.257694 159.697348 678.099644 159.299543 678.099644 
C 158.901739 678.099644 158.520174 678.257694 158.238883 678.538984 
C 157.957593 678.820274 157.799543 679.20184 157.799543 679.599644 
C 157.799543 679.997449 157.957593 680.379014 158.238883 680.660304 
C 158.520174 680.941595 158.901739 681.099644 159.299543 681.099644 
z
" clip-path="url(#p93eb878fc7)" style="fill: #fdcab5; stroke: #00ff00; stroke-width: 3"/>
    <path d="M 110.7 673.841235 
C 112.689023 673.841235 114.596849 673.050988 116.003301 671.644536 
C 117.409753 670.238084 118.2 668.330258 118.2 666.341235 
C 118.2 664.352212 117.409753 662.444386 116.003301 661.037934 
C 114.596849 659.631482 112.689023 658.841235 110.7 658.841235 
C 108.710977 658.841235 106.803151 659.631482 105.396699 661.037934 
C 103.990247 662.444386 103.2 664.352212 103.2 666.341235 
C 103.2 668.330258 103.990247 670.238084 105.396699 671.644536 
C 106.803151 673.050988 108.710977 673.841235 110.7 673.841235 
z
" clip-path="url(#p93eb878fc7)" style="fill: #6b010e; stroke: #00ff00; stroke-width: 3"/>
    <path d="M 62.100457 687.099644 
C 64.08948 687.099644 65.997306 686.309397 67.403757 684.902945 
C 68.810209 683.496493 69.600457 681.588668 69.600457 679.599644 
C 69.600457 677.610621 68.810209 675.702795 67.403757 674.296343 
C 65.997306 672.889892 64.08948 672.099644 62.100457 672.099644 
C 60.111433 672.099644 58.203607 672.889892 56.797156 674.296343 
C 55.390704 675.702795 54.600457 677.610621 54.600457 679.599644 
C 54.600457 681.588668 55.390704 683.496493 56.797156 684.902945 
C 58.203607 686.309397 60.111433 687.099644 62.100457 687.099644 
z
" clip-path="url(#p93eb878fc7)" style="fill: #6b010e; stroke: #00ff00; stroke-width: 3"/>
    <path d="M 41.969866 713.108276 
C 42.367671 713.108276 42.749236 712.950226 43.030527 712.668936 
C 43.311817 712.387646 43.469866 712.006081 43.469866 711.608276 
C 43.469866 711.210471 43.311817 710.828906 43.030527 710.547616 
C 42.749236 710.266325 42.367671 710.108276 41.969866 710.108276 
C 41.572062 710.108276 41.190497 710.266325 40.909206 710.547616 
C 40.627916 710.828906 40.469866 711.210471 40.469866 711.608276 
C 40.469866 712.006081 40.627916 712.387646 40.909206 712.668936 
C 41.190497 712.950226 41.572062 713.108276 41.969866 713.108276 
z
" clip-path="url(#p93eb878fc7)" style="fill: #fdcab5; stroke: #ff0000; stroke-width: 3"/>
    <path d="M 62.100457 745.116907 
C 62.498261 745.116907 62.879826 744.958858 63.161117 744.677568 
C 63.442407 744.396277 63.600457 744.014712 63.600457 743.616907 
C 63.600457 743.219103 63.442407 742.837538 63.161117 742.556247 
C 62.879826 742.274957 62.498261 742.116907 62.100457 742.116907 
C 61.702652 742.116907 61.321087 742.274957 61.039796 742.556247 
C 60.758506 742.837538 60.600457 743.219103 60.600457 743.616907 
C 60.600457 744.014712 60.758506 744.396277 61.039796 744.677568 
C 61.321087 744.958858 61.702652 745.116907 62.100457 745.116907 
z
" clip-path="url(#p93eb878fc7)" style="fill: #fdcab5; stroke: #00ff00; stroke-width: 3"/>
    <path d="M 110.7 764.375317 
C 112.689023 764.375317 114.596849 763.585069 116.003301 762.178618 
C 117.409753 760.772166 118.2 758.86434 118.2 756.875317 
C 118.2 754.886294 117.409753 752.978468 116.003301 751.572016 
C 114.596849 750.165564 112.689023 749.375317 110.7 749.375317 
C 108.710977 749.375317 106.803151 750.165564 105.396699 751.572016 
C 103.990247 752.978468 103.2 754.886294 103.2 756.875317 
C 103.2 758.86434 103.990247 760.772166 105.396699 762.178618 
C 106.803151 763.585069 108.710977 764.375317 110.7 764.375317 
z
" clip-path="url(#p93eb878fc7)" style="fill: #6b010e; stroke: #00ff00; stroke-width: 3"/>
    <path d="M 159.299543 745.116907 
C 159.697348 745.116907 160.078913 744.958858 160.360204 744.677568 
C 160.641494 744.396277 160.799543 744.014712 160.799543 743.616907 
C 160.799543 743.219103 160.641494 742.837538 160.360204 742.556247 
C 160.078913 742.274957 159.697348 742.116907 159.299543 742.116907 
C 158.901739 742.116907 158.520174 742.274957 158.238883 742.556247 
C 157.957593 742.837538 157.799543 743.219103 157.799543 743.616907 
C 157.799543 744.014712 157.957593 744.396277 158.238883 744.677568 
C 158.520174 744.958858 158.901739 745.116907 159.299543 745.116907 
z
" clip-path="url(#p93eb878fc7)" style="fill: #fdcab5; stroke: #00ff00; stroke-width: 3"/>
   </g>
   <g id="matplotlib.axis_9"/>
   <g id="matplotlib.axis_10"/>
  </g>
 </g>
 <defs>
  <clipPath id="p56d205d113">
   <rect x="27" y="103.68" width="167.4" height="114.703448"/>
  </clipPath>
  <clipPath id="p2a8bcaad68">
   <rect x="27" y="241.324138" width="167.4" height="114.703448"/>
  </clipPath>
  <clipPath id="p19c9f2d9d7">
   <rect x="27" y="378.968276" width="167.4" height="114.703448"/>
  </clipPath>
  <clipPath id="pddaaa51916">
   <rect x="27" y="516.612414" width="167.4" height="114.703448"/>
  </clipPath>
  <clipPath id="p93eb878fc7">
   <rect x="27" y="654.256552" width="167.4" height="114.703448"/>
  </clipPath>
 </defs>
</svg>
