<?xml version="1.0" encoding="utf-8" standalone="no"?>
<!DOCTYPE svg PUBLIC "-//W3C//DTD SVG 1.1//EN"
  "http://www.w3.org/Graphics/SVG/1.1/DTD/svg11.dtd">
<svg xmlns:xlink="http://www.w3.org/1999/xlink" width="216pt" height="864pt" viewBox="0 0 216 864" xmlns="http://www.w3.org/2000/svg" version="1.1">
 <metadata>
  <rdf:RDF xmlns:dc="http://purl.org/dc/elements/1.1/" xmlns:cc="http://creativecommons.org/ns#" xmlns:rdf="http://www.w3.org/1999/02/22-rdf-syntax-ns#">
   <cc:Work>
    <dc:type rdf:resource="http://purl.org/dc/dcmitype/StillImage"/>
    <dc:date>2025-06-05T15:05:31.736767</dc:date>
    <dc:format>image/svg+xml</dc:format>
    <dc:creator>
     <cc:Agent>
      <dc:title>Matplotlib v3.9.2, https://matplotlib.org/</dc:title>
     </cc:Agent>
    </dc:creator>
   </cc:Work>
  </rdf:RDF>
 </metadata>
 <defs>
  <style type="text/css">*{stroke-linejoin: round; stroke-linecap: butt}</style>
 </defs>
 <g id="figure_1">
  <g id="patch_1">
   <path d="M 0 864 
L 216 864 
L 216 0 
L 0 0 
z
" style="fill: #ffffff"/>
  </g>
  <g id="axes_1">
   <g id="patch_2">
    <path d="M 27 218.383448 
L 194.4 218.383448 
L 194.4 103.68 
L 27 103.68 
z
" style="fill: #ffffff"/>
   </g>
   <g id="EdgeCollection_1">
    <path d="M 180.734785 162.69315 
C 206.165942 175.562865 206.165942 148.323435 180.734785 161.19315 
C 206.165942 148.323435 206.165942 175.562865 180.734785 162.69315 
" clip-path="url(#p919744cab1)" style="fill: #ffffff"/>
    <path d="M 178.813893 160.578123 
L 167.097468 134.859466 
" clip-path="url(#p919744cab1)" style="stroke: #000000; stroke-width: 0.783158"/>
    <path d="M 178.365324 160.892342 
L 133.615971 116.962976 
" clip-path="url(#p919744cab1)" style="fill: #ffffff"/>
    <path d="M 178.103937 161.253017 
L 97.264729 119.362831 
" clip-path="url(#p919744cab1)" style="fill: #ffffff"/>
    <path d="M 177.974472 161.604511 
L 63.981988 135.187634 
" clip-path="url(#p919744cab1)" style="fill: #ffffff"/>
    <path d="M 177.935746 161.94315 
L 51.215483 161.94315 
" clip-path="url(#p919744cab1)" style="stroke: #000000; stroke-width: 0.665263"/>
    <path d="M 177.974472 162.281789 
L 63.981988 188.698665 
" clip-path="url(#p919744cab1)" style="fill: #ffffff"/>
    <path d="M 178.103937 162.633282 
L 91.93749 207.283998 
" clip-path="url(#p919744cab1)" style="fill: #ffffff"/>
    <path d="M 178.365324 162.993957 
L 133.615971 206.923323 
" clip-path="url(#p919744cab1)" style="fill: #ffffff"/>
    <path d="M 178.813893 163.308177 
L 167.097468 189.026833 
" clip-path="url(#p919744cab1)" style="fill: #ffffff"/>
    <path d="M 167.933865 133.143006 
C 195.232807 124.949038 176.465294 105.206521 166.90039 132.05584 
C 176.465294 105.206521 195.232807 124.949038 167.933865 133.143006 
" clip-path="url(#p919744cab1)" style="fill: #ffffff"/>
    <path d="M 165.143805 132.804307 
L 133.877358 116.602301 
" clip-path="url(#p919744cab1)" style="fill: #ffffff"/>
    <path d="M 165.01434 133.1558 
L 97.912054 117.605364 
" clip-path="url(#p919744cab1)" style="fill: #ffffff"/>
    <path d="M 164.975614 133.494439 
L 64.175615 133.494439 
" clip-path="url(#p919744cab1)" style="fill: #ffffff"/>
    <path d="M 165.01434 133.833078 
L 51.021856 160.249954 
" clip-path="url(#p919744cab1)" style="fill: #ffffff"/>
    <path d="M 165.143805 134.184571 
L 63.334664 186.941198 
" clip-path="url(#p919744cab1)" style="fill: #ffffff"/>
    <path d="M 165.405192 134.545247 
L 91.676103 206.923323 
" clip-path="url(#p919744cab1)" style="fill: #ffffff"/>
    <path d="M 165.853761 134.859466 
L 133.167402 206.609104 
" clip-path="url(#p919744cab1)" style="stroke: #000000; stroke-width: 0.534737"/>
    <path d="M 166.475614 134.994439 
L 166.475614 188.89186 
" clip-path="url(#p919744cab1)" style="fill: #ffffff"/>
    <path d="M 133.581804 114.827653 
C 152.107073 93.16691 125.642223 86.717236 132.124458 114.472487 
C 125.642223 86.717236 152.107073 93.16691 133.581804 114.827653 
" clip-path="url(#p919744cab1)" style="fill: #ffffff"/>
    <path d="M 131.045549 115.912169 
L 98.105681 115.912169 
" clip-path="url(#p919744cab1)" style="fill: #ffffff"/>
    <path d="M 131.084274 116.250808 
L 63.981988 131.801243 
" clip-path="url(#p919744cab1)" style="fill: #ffffff"/>
    <path d="M 131.213739 116.602301 
L 50.374532 158.492487 
" clip-path="url(#p919744cab1)" style="fill: #ffffff"/>
    <path d="M 131.475127 116.962976 
L 62.027725 185.137822 
" clip-path="url(#p919744cab1)" style="fill: #ffffff"/>
    <path d="M 131.923695 117.277196 
L 91.227534 206.609104 
" clip-path="url(#p919744cab1)" style="fill: #ffffff"/>
    <path d="M 132.545549 117.412169 
L 132.545549 206.474131 
" clip-path="url(#p919744cab1)" style="fill: #ffffff"/>
    <path d="M 133.167402 117.277196 
L 165.853761 189.026833 
" clip-path="url(#p919744cab1)" style="stroke: #000000; stroke-width: 0.467368"/>
    <path d="M 92.711133 108.713761 
C 97.509006 86.717236 71.044157 93.16691 85.424403 110.48959 
C 71.044157 93.16691 97.509006 86.717236 92.711133 108.713761 
" clip-path="url(#p919744cab1)" style="fill: #ffffff"/>
    <path d="M 83.946632 119.362831 
L 63.334664 130.043777 
" clip-path="url(#p919744cab1)" style="stroke: #000000; stroke-width: 1.334737"/>
    <path d="M 85.25357 121.166207 
L 49.067593 156.689112 
" clip-path="url(#p919744cab1)" style="stroke: #000000; stroke-width: 1.103158"/>
    <path d="M 87.496414 122.737303 
L 59.784882 183.566726 
" clip-path="url(#p919744cab1)" style="stroke: #000000; stroke-width: 2"/>
    <path d="M 90.605681 123.412169 
L 90.605681 206.474131 
" clip-path="url(#p919744cab1)" style="fill: #ffffff"/>
    <path d="M 93.714948 122.737303 
L 131.923695 206.609104 
" clip-path="url(#p919744cab1)" style="fill: #ffffff"/>
    <path d="M 95.957791 121.166207 
L 165.405192 189.341053 
" clip-path="url(#p919744cab1)" style="fill: #ffffff"/>
    <path d="M 54.551736 126.301446 
C 46.685935 105.206521 27.918422 124.949038 49.384361 131.737275 
C 27.918422 124.949038 46.685935 105.206521 54.551736 126.301446 
" clip-path="url(#p919744cab1)" style="fill: #ffffff"/>
    <path d="M 53.566348 140.319573 
L 46.82475 155.118015 
" clip-path="url(#p919744cab1)" style="stroke: #000000; stroke-width: 1.166316"/>
    <path d="M 56.675615 140.994439 
L 56.675615 182.89186 
" clip-path="url(#p919744cab1)" style="stroke: #000000; stroke-width: 1.498947"/>
    <path d="M 59.784882 140.319573 
L 89.983827 206.609104 
" clip-path="url(#p919744cab1)" style="fill: #ffffff"/>
    <path d="M 62.027725 138.748477 
L 131.475127 206.923323 
" clip-path="url(#p919744cab1)" style="fill: #ffffff"/>
    <path d="M 63.334664 136.945101 
L 165.143805 189.701728 
" clip-path="url(#p919744cab1)" style="fill: #ffffff"/>
    <path d="M 37.220292 158.19315 
C 16.985287 148.323435 16.985287 175.562865 37.220292 165.69315 
C 16.985287 175.562865 16.985287 148.323435 37.220292 158.19315 
" clip-path="url(#p919744cab1)" style="fill: #ffffff"/>
    <path d="M 46.82475 168.768284 
L 53.566348 183.566726 
" clip-path="url(#p919744cab1)" style="fill: #ffffff"/>
    <path d="M 49.067593 167.197188 
L 89.535259 206.923323 
" clip-path="url(#p919744cab1)" style="fill: #ffffff"/>
    <path d="M 50.374532 165.393812 
L 131.213739 207.283998 
" clip-path="url(#p919744cab1)" style="fill: #ffffff"/>
    <path d="M 51.021856 163.636345 
L 165.01434 190.053221 
" clip-path="url(#p919744cab1)" style="fill: #ffffff"/>
    <path d="M 49.384361 192.149024 
C 27.918422 198.937261 46.685935 218.679778 54.551736 197.584853 
C 46.685935 218.679778 27.918422 198.937261 49.384361 192.149024 
" clip-path="url(#p919744cab1)" style="fill: #ffffff"/>
    <path d="M 63.334664 193.842523 
L 89.273871 207.283998 
" clip-path="url(#p919744cab1)" style="fill: #ffffff"/>
    <path d="M 63.981988 192.085056 
L 131.084274 207.635491 
" clip-path="url(#p919744cab1)" style="fill: #ffffff"/>
    <path d="M 64.175615 190.39186 
L 164.975614 190.39186 
" clip-path="url(#p919744cab1)" style="stroke: #000000; stroke-width: 0.804211"/>
    <path d="M 89.569425 209.058646 
C 71.044157 230.719389 97.509006 237.169063 91.026771 209.413812 
C 97.509006 237.169063 71.044157 230.719389 89.569425 209.058646 
" clip-path="url(#p919744cab1)" style="fill: #ffffff"/>
    <path d="M 92.105681 207.974131 
L 131.045549 207.974131 
" clip-path="url(#p919744cab1)" style="fill: #ffffff"/>
    <path d="M 92.066955 207.635491 
L 165.01434 190.730499 
" clip-path="url(#p919744cab1)" style="fill: #ffffff"/>
    <path d="M 132.124458 209.413812 
C 125.642223 237.169063 152.107073 230.719389 133.581804 209.058646 
C 152.107073 230.719389 125.642223 237.169063 132.124458 209.413812 
" clip-path="url(#p919744cab1)" style="fill: #ffffff"/>
    <path d="M 133.877358 207.283998 
L 165.143805 191.081993 
" clip-path="url(#p919744cab1)" style="fill: #ffffff"/>
    <path d="M 166.90039 191.830459 
C 176.465294 218.679778 195.232807 198.937261 167.933865 190.743293 
C 195.232807 198.937261 176.465294 218.679778 166.90039 191.830459 
" clip-path="url(#p919744cab1)" style="fill: #ffffff"/>
   </g>
   <g id="VertexCollection_1">
    <path d="M 179.435746 163.44315 
C 179.833551 163.44315 180.215116 163.2851 180.496407 163.00381 
C 180.777697 162.722519 180.935746 162.340954 180.935746 161.94315 
C 180.935746 161.545345 180.777697 161.16378 180.496407 160.882489 
C 180.215116 160.601199 179.833551 160.44315 179.435746 160.44315 
C 179.037942 160.44315 178.656377 160.601199 178.375086 160.882489 
C 178.093796 161.16378 177.935746 161.545345 177.935746 161.94315 
C 177.935746 162.340954 178.093796 162.722519 178.375086 163.00381 
C 178.656377 163.2851 179.037942 163.44315 179.435746 163.44315 
z
" clip-path="url(#p919744cab1)" style="fill: #fdcab5; stroke: #ff0000; stroke-width: 3"/>
    <path d="M 166.475614 134.994439 
C 166.873419 134.994439 167.254984 134.836389 167.536275 134.555099 
C 167.817565 134.273809 167.975614 133.892244 167.975614 133.494439 
C 167.975614 133.096634 167.817565 132.715069 167.536275 132.433779 
C 167.254984 132.152488 166.873419 131.994439 166.475614 131.994439 
C 166.07781 131.994439 165.696245 132.152488 165.414954 132.433779 
C 165.133664 132.715069 164.975614 133.096634 164.975614 133.494439 
C 164.975614 133.892244 165.133664 134.273809 165.414954 134.555099 
C 165.696245 134.836389 166.07781 134.994439 166.475614 134.994439 
z
" clip-path="url(#p919744cab1)" style="fill: #fdcab5; stroke: #00ff00; stroke-width: 3"/>
    <path d="M 132.545549 117.412169 
C 132.943353 117.412169 133.324918 117.254119 133.606209 116.972829 
C 133.887499 116.691539 134.045549 116.309973 134.045549 115.912169 
C 134.045549 115.514364 133.887499 115.132799 133.606209 114.851509 
C 133.324918 114.570218 132.943353 114.412169 132.545549 114.412169 
C 132.147744 114.412169 131.766179 114.570218 131.484888 114.851509 
C 131.203598 115.132799 131.045549 115.514364 131.045549 115.912169 
C 131.045549 116.309973 131.203598 116.691539 131.484888 116.972829 
C 131.766179 117.254119 132.147744 117.412169 132.545549 117.412169 
z
" clip-path="url(#p919744cab1)" style="fill: #fdcab5; stroke: #00ff00; stroke-width: 3"/>
    <path d="M 90.605681 123.412169 
C 92.594704 123.412169 94.50253 122.621921 95.908981 121.21547 
C 97.315433 119.809018 98.105681 117.901192 98.105681 115.912169 
C 98.105681 113.923146 97.315433 112.01532 95.908981 110.608868 
C 94.50253 109.202416 92.594704 108.412169 90.605681 108.412169 
C 88.616657 108.412169 86.708832 109.202416 85.30238 110.608868 
C 83.895928 112.01532 83.105681 113.923146 83.105681 115.912169 
C 83.105681 117.901192 83.895928 119.809018 85.30238 121.21547 
C 86.708832 122.621921 88.616657 123.412169 90.605681 123.412169 
z
" clip-path="url(#p919744cab1)" style="fill: #6b010e; stroke: #00ff00; stroke-width: 3"/>
    <path d="M 56.675615 140.994439 
C 58.664638 140.994439 60.572464 140.204192 61.978916 138.79774 
C 63.385367 137.391288 64.175615 135.483462 64.175615 133.494439 
C 64.175615 131.505416 63.385367 129.59759 61.978916 128.191138 
C 60.572464 126.784686 58.664638 125.994439 56.675615 125.994439 
C 54.686591 125.994439 52.778766 126.784686 51.372314 128.191138 
C 49.965862 129.59759 49.175615 131.505416 49.175615 133.494439 
C 49.175615 135.483462 49.965862 137.391288 51.372314 138.79774 
C 52.778766 140.204192 54.686591 140.994439 56.675615 140.994439 
z
" clip-path="url(#p919744cab1)" style="fill: #6b010e; stroke: #00ff00; stroke-width: 3"/>
    <path d="M 43.715483 169.44315 
C 45.704506 169.44315 47.612332 168.652902 49.018784 167.246451 
C 50.425235 165.839999 51.215483 163.932173 51.215483 161.94315 
C 51.215483 159.954126 50.425235 158.046301 49.018784 156.639849 
C 47.612332 155.233397 45.704506 154.44315 43.715483 154.44315 
C 41.72646 154.44315 39.818634 155.233397 38.412182 156.639849 
C 37.00573 158.046301 36.215483 159.954126 36.215483 161.94315 
C 36.215483 163.932173 37.00573 165.839999 38.412182 167.246451 
C 39.818634 168.652902 41.72646 169.44315 43.715483 169.44315 
z
" clip-path="url(#p919744cab1)" style="fill: #6b010e; stroke: #ff0000; stroke-width: 3"/>
    <path d="M 56.675615 197.89186 
C 58.664638 197.89186 60.572464 197.101613 61.978916 195.695161 
C 63.385367 194.288709 64.175615 192.380884 64.175615 190.39186 
C 64.175615 188.402837 63.385367 186.495011 61.978916 185.088559 
C 60.572464 183.682108 58.664638 182.89186 56.675615 182.89186 
C 54.686591 182.89186 52.778766 183.682108 51.372314 185.088559 
C 49.965862 186.495011 49.175615 188.402837 49.175615 190.39186 
C 49.175615 192.380884 49.965862 194.288709 51.372314 195.695161 
C 52.778766 197.101613 54.686591 197.89186 56.675615 197.89186 
z
" clip-path="url(#p919744cab1)" style="fill: #6b010e; stroke: #00ff00; stroke-width: 3"/>
    <path d="M 90.605681 209.474131 
C 91.003485 209.474131 91.38505 209.316081 91.666341 209.034791 
C 91.947631 208.7535 92.105681 208.371935 92.105681 207.974131 
C 92.105681 207.576326 91.947631 207.194761 91.666341 206.91347 
C 91.38505 206.63218 91.003485 206.474131 90.605681 206.474131 
C 90.207876 206.474131 89.826311 206.63218 89.54502 206.91347 
C 89.26373 207.194761 89.105681 207.576326 89.105681 207.974131 
C 89.105681 208.371935 89.26373 208.7535 89.54502 209.034791 
C 89.826311 209.316081 90.207876 209.474131 90.605681 209.474131 
z
" clip-path="url(#p919744cab1)" style="fill: #fdcab5; stroke: #00ff00; stroke-width: 3"/>
    <path d="M 132.545549 209.474131 
C 132.943353 209.474131 133.324918 209.316081 133.606209 209.034791 
C 133.887499 208.7535 134.045549 208.371935 134.045549 207.974131 
C 134.045549 207.576326 133.887499 207.194761 133.606209 206.91347 
C 133.324918 206.63218 132.943353 206.474131 132.545549 206.474131 
C 132.147744 206.474131 131.766179 206.63218 131.484888 206.91347 
C 131.203598 207.194761 131.045549 207.576326 131.045549 207.974131 
C 131.045549 208.371935 131.203598 208.7535 131.484888 209.034791 
C 131.766179 209.316081 132.147744 209.474131 132.545549 209.474131 
z
" clip-path="url(#p919744cab1)" style="fill: #fdcab5; stroke: #00ff00; stroke-width: 3"/>
    <path d="M 166.475614 191.89186 
C 166.873419 191.89186 167.254984 191.733811 167.536275 191.452521 
C 167.817565 191.17123 167.975614 190.789665 167.975614 190.39186 
C 167.975614 189.994056 167.817565 189.612491 167.536275 189.3312 
C 167.254984 189.04991 166.873419 188.89186 166.475614 188.89186 
C 166.07781 188.89186 165.696245 189.04991 165.414954 189.3312 
C 165.133664 189.612491 164.975614 189.994056 164.975614 190.39186 
C 164.975614 190.789665 165.133664 191.17123 165.414954 191.452521 
C 165.696245 191.733811 166.07781 191.89186 166.475614 191.89186 
z
" clip-path="url(#p919744cab1)" style="fill: #fdcab5; stroke: #00ff00; stroke-width: 3"/>
   </g>
   <g id="matplotlib.axis_1"/>
   <g id="matplotlib.axis_2"/>
  </g>
  <g id="axes_2">
   <g id="patch_3">
    <path d="M 27 356.027586 
L 194.4 356.027586 
L 194.4 241.324138 
L 27 241.324138 
z
" style="fill: #ffffff"/>
   </g>
   <g id="EdgeCollection_2">
    <path d="M 180.729172 300.337288 
C 206.160329 313.207003 206.160329 285.967573 180.729172 298.837288 
C 206.160329 285.967573 206.160329 313.207003 180.729172 300.337288 
" clip-path="url(#pa07d4ebecd)" style="fill: #ffffff"/>
    <path d="M 178.8017 298.225278 
L 166.93228 272.500587 
" clip-path="url(#pa07d4ebecd)" style="stroke: #000000; stroke-width: 0.5961"/>
    <path d="M 178.353042 298.543317 
L 133.015871 254.600277 
" clip-path="url(#pa07d4ebecd)" style="fill: #ffffff"/>
    <path d="M 178.094764 298.904069 
L 96.138071 256.972397 
" clip-path="url(#pa07d4ebecd)" style="fill: #ffffff"/>
    <path d="M 177.967921 299.252721 
L 62.407216 272.811412 
" clip-path="url(#pa07d4ebecd)" style="fill: #ffffff"/>
    <path d="M 177.930134 299.587288 
L 43.469866 299.587288 
" clip-path="url(#pa07d4ebecd)" style="fill: #ffffff"/>
    <path d="M 177.967921 299.921855 
L 62.407216 326.363163 
" clip-path="url(#pa07d4ebecd)" style="fill: #ffffff"/>
    <path d="M 178.094764 300.270506 
L 90.796591 344.93505 
" clip-path="url(#pa07d4ebecd)" style="fill: #ffffff"/>
    <path d="M 178.353042 300.631258 
L 133.015871 344.574298 
" clip-path="url(#pa07d4ebecd)" style="fill: #ffffff"/>
    <path d="M 178.8017 300.949297 
L 169.446015 321.225949 
" clip-path="url(#pa07d4ebecd)" style="fill: #ffffff"/>
    <path d="M 167.760319 270.779849 
C 195.017905 262.449343 176.151809 242.801011 166.721416 269.69787 
C 176.151809 242.801011 195.017905 262.449343 167.760319 270.779849 
" clip-path="url(#pa07d4ebecd)" style="fill: #ffffff"/>
    <path d="M 164.968476 270.455359 
L 133.274149 254.239525 
" clip-path="url(#pa07d4ebecd)" style="fill: #ffffff"/>
    <path d="M 164.841634 270.80401 
L 96.772282 255.229142 
" clip-path="url(#pa07d4ebecd)" style="fill: #ffffff"/>
    <path d="M 164.803846 271.138577 
L 62.596154 271.138577 
" clip-path="url(#pa07d4ebecd)" style="fill: #ffffff"/>
    <path d="M 164.841634 271.473144 
L 43.432079 299.252721 
" clip-path="url(#pa07d4ebecd)" style="fill: #ffffff"/>
    <path d="M 164.968476 271.821795 
L 61.773004 324.619908 
" clip-path="url(#pa07d4ebecd)" style="fill: #ffffff"/>
    <path d="M 165.226755 272.182547 
L 90.538312 344.574298 
" clip-path="url(#pa07d4ebecd)" style="fill: #ffffff"/>
    <path d="M 165.675412 272.500587 
L 132.567213 344.256259 
" clip-path="url(#pa07d4ebecd)" style="stroke: #000000; stroke-width: 0.802228"/>
    <path d="M 166.303846 272.638577 
L 166.303846 320.535998 
" clip-path="url(#pa07d4ebecd)" style="fill: #ffffff"/>
    <path d="M 132.97222 252.469108 
C 151.441274 230.760414 124.959793 224.379368 131.513958 252.117722 
C 124.959793 224.379368 151.441274 230.760414 132.97222 252.469108 
" clip-path="url(#pa07d4ebecd)" style="fill: #ffffff"/>
    <path d="M 130.438779 253.556307 
L 96.961221 253.556307 
" clip-path="url(#pa07d4ebecd)" style="fill: #ffffff"/>
    <path d="M 130.476567 253.890874 
L 62.407216 269.465742 
" clip-path="url(#pa07d4ebecd)" style="fill: #ffffff"/>
    <path d="M 130.603409 254.239525 
L 43.305236 298.904069 
" clip-path="url(#pa07d4ebecd)" style="fill: #ffffff"/>
    <path d="M 130.861688 254.600277 
L 60.481611 322.816146 
" clip-path="url(#pa07d4ebecd)" style="fill: #ffffff"/>
    <path d="M 131.310345 254.918317 
L 90.089655 344.256259 
" clip-path="url(#pa07d4ebecd)" style="fill: #ffffff"/>
    <path d="M 131.938779 255.056307 
L 131.938779 344.118268 
" clip-path="url(#pa07d4ebecd)" style="fill: #ffffff"/>
    <path d="M 132.567213 254.918317 
L 163.161677 321.225949 
" clip-path="url(#pa07d4ebecd)" style="fill: #ffffff"/>
    <path d="M 91.585327 246.363382 
C 96.440207 224.379368 69.958726 230.760414 84.294018 248.120314 
C 69.958726 230.760414 96.440207 224.379368 91.585327 246.363382 
" clip-path="url(#pa07d4ebecd)" style="fill: #ffffff"/>
    <path d="M 82.784371 256.972397 
L 61.773004 267.722486 
" clip-path="url(#pa07d4ebecd)" style="stroke: #000000; stroke-width: 1.047354"/>
    <path d="M 84.075764 258.776159 
L 43.046958 298.543317 
" clip-path="url(#pa07d4ebecd)" style="stroke: #000000; stroke-width: 0.534819"/>
    <path d="M 86.319051 260.366356 
L 58.238323 321.225949 
" clip-path="url(#pa07d4ebecd)" style="stroke: #000000; stroke-width: 2"/>
    <path d="M 89.461221 261.056307 
L 89.461221 344.118268 
" clip-path="url(#pa07d4ebecd)" style="fill: #ffffff"/>
    <path d="M 92.60339 260.366356 
L 131.310345 344.256259 
" clip-path="url(#pa07d4ebecd)" style="fill: #ffffff"/>
    <path d="M 94.846677 258.776159 
L 160.918389 322.816146 
" clip-path="url(#pa07d4ebecd)" style="fill: #ffffff"/>
    <path d="M 53.008306 263.935044 
C 45.248191 242.801011 26.382095 262.449343 47.813787 269.34494 
C 26.382095 262.449343 45.248191 242.801011 53.008306 263.935044 
" clip-path="url(#pa07d4ebecd)" style="fill: #ffffff"/>
    <path d="M 51.953985 277.948626 
L 42.5983 298.225278 
" clip-path="url(#pa07d4ebecd)" style="fill: #ffffff"/>
    <path d="M 55.096154 278.638577 
L 55.096154 320.535998 
" clip-path="url(#pa07d4ebecd)" style="stroke: #000000; stroke-width: 1.654596"/>
    <path d="M 58.238323 277.948626 
L 88.832787 344.256259 
" clip-path="url(#pa07d4ebecd)" style="fill: #ffffff"/>
    <path d="M 60.481611 276.358429 
L 130.861688 344.574298 
" clip-path="url(#pa07d4ebecd)" style="fill: #ffffff"/>
    <path d="M 61.773004 274.554667 
L 159.626996 324.619908 
" clip-path="url(#pa07d4ebecd)" style="stroke: #000000; stroke-width: 0.997214"/>
    <path d="M 40.670828 298.837288 
C 15.239671 285.967573 15.239671 313.207003 40.670828 300.337288 
C 15.239671 313.207003 15.239671 285.967573 40.670828 298.837288 
" clip-path="url(#pa07d4ebecd)" style="fill: #ffffff"/>
    <path d="M 42.5983 300.949297 
L 51.953985 321.225949 
" clip-path="url(#pa07d4ebecd)" style="fill: #ffffff"/>
    <path d="M 43.046958 300.631258 
L 88.384129 344.574298 
" clip-path="url(#pa07d4ebecd)" style="fill: #ffffff"/>
    <path d="M 43.305236 300.270506 
L 130.603409 344.93505 
" clip-path="url(#pa07d4ebecd)" style="fill: #ffffff"/>
    <path d="M 43.432079 299.921855 
L 158.992784 326.363163 
" clip-path="url(#pa07d4ebecd)" style="fill: #ffffff"/>
    <path d="M 47.813787 329.829635 
C 26.382095 336.725232 45.248191 356.373564 53.008306 335.239531 
C 45.248191 356.373564 26.382095 336.725232 47.813787 329.829635 
" clip-path="url(#pa07d4ebecd)" style="fill: #ffffff"/>
    <path d="M 61.773004 331.452089 
L 88.125851 344.93505 
" clip-path="url(#pa07d4ebecd)" style="fill: #ffffff"/>
    <path d="M 62.407216 329.708834 
L 130.476567 345.283701 
" clip-path="url(#pa07d4ebecd)" style="fill: #ffffff"/>
    <path d="M 62.596154 328.035998 
L 158.803846 328.035998 
" clip-path="url(#pa07d4ebecd)" style="stroke: #000000; stroke-width: 1.348189"/>
    <path d="M 88.42778 346.705467 
C 69.958726 368.414161 96.440207 374.795207 89.886042 347.056853 
C 96.440207 374.795207 69.958726 368.414161 88.42778 346.705467 
" clip-path="url(#pa07d4ebecd)" style="fill: #ffffff"/>
    <path d="M 90.961221 345.618268 
L 130.438779 345.618268 
" clip-path="url(#pa07d4ebecd)" style="fill: #ffffff"/>
    <path d="M 90.923433 345.283701 
L 158.992784 329.708834 
" clip-path="url(#pa07d4ebecd)" style="fill: #ffffff"/>
    <path d="M 131.513958 347.056853 
C 124.959793 374.795207 151.441274 368.414161 132.97222 346.705467 
C 151.441274 368.414161 124.959793 374.795207 131.513958 347.056853 
" clip-path="url(#pa07d4ebecd)" style="fill: #ffffff"/>
    <path d="M 133.274149 344.93505 
L 159.626996 331.452089 
" clip-path="url(#pa07d4ebecd)" style="stroke: #000000; stroke-width: 0.846797"/>
    <path d="M 168.391694 335.239531 
C 176.151809 356.373564 195.017905 336.725232 173.586213 329.829635 
C 195.017905 336.725232 176.151809 356.373564 168.391694 335.239531 
" clip-path="url(#pa07d4ebecd)" style="fill: #ffffff"/>
   </g>
   <g id="VertexCollection_2">
    <path d="M 179.430134 301.087288 
C 179.827938 301.087288 180.209503 300.929238 180.490794 300.647948 
C 180.772084 300.366657 180.930134 299.985092 180.930134 299.587288 
C 180.930134 299.189483 180.772084 298.807918 180.490794 298.526627 
C 180.209503 298.245337 179.827938 298.087288 179.430134 298.087288 
C 179.032329 298.087288 178.650764 298.245337 178.369473 298.526627 
C 178.088183 298.807918 177.930134 299.189483 177.930134 299.587288 
C 177.930134 299.985092 178.088183 300.366657 178.369473 300.647948 
C 178.650764 300.929238 179.032329 301.087288 179.430134 301.087288 
z
" clip-path="url(#pa07d4ebecd)" style="fill: #fdcab5; stroke: #ff0000; stroke-width: 3"/>
    <path d="M 166.303846 272.638577 
C 166.701651 272.638577 167.083216 272.480527 167.364506 272.199237 
C 167.645797 271.917947 167.803846 271.536382 167.803846 271.138577 
C 167.803846 270.740772 167.645797 270.359207 167.364506 270.077917 
C 167.083216 269.796626 166.701651 269.638577 166.303846 269.638577 
C 165.906041 269.638577 165.524476 269.796626 165.243186 270.077917 
C 164.961895 270.359207 164.803846 270.740772 164.803846 271.138577 
C 164.803846 271.536382 164.961895 271.917947 165.243186 272.199237 
C 165.524476 272.480527 165.906041 272.638577 166.303846 272.638577 
z
" clip-path="url(#pa07d4ebecd)" style="fill: #fdcab5; stroke: #00ff00; stroke-width: 3"/>
    <path d="M 131.938779 255.056307 
C 132.336584 255.056307 132.718149 254.898257 132.999439 254.616967 
C 133.28073 254.335677 133.438779 253.954111 133.438779 253.556307 
C 133.438779 253.158502 133.28073 252.776937 132.999439 252.495647 
C 132.718149 252.214356 132.336584 252.056307 131.938779 252.056307 
C 131.540975 252.056307 131.159409 252.214356 130.878119 252.495647 
C 130.596829 252.776937 130.438779 253.158502 130.438779 253.556307 
C 130.438779 253.954111 130.596829 254.335677 130.878119 254.616967 
C 131.159409 254.898257 131.540975 255.056307 131.938779 255.056307 
z
" clip-path="url(#pa07d4ebecd)" style="fill: #fdcab5; stroke: #00ff00; stroke-width: 3"/>
    <path d="M 89.461221 261.056307 
C 91.450244 261.056307 93.35807 260.266059 94.764522 258.859608 
C 96.170973 257.453156 96.961221 255.54533 96.961221 253.556307 
C 96.961221 251.567283 96.170973 249.659458 94.764522 248.253006 
C 93.35807 246.846554 91.450244 246.056307 89.461221 246.056307 
C 87.472197 246.056307 85.564372 246.846554 84.15792 248.253006 
C 82.751468 249.659458 81.961221 251.567283 81.961221 253.556307 
C 81.961221 255.54533 82.751468 257.453156 84.15792 258.859608 
C 85.564372 260.266059 87.472197 261.056307 89.461221 261.056307 
z
" clip-path="url(#pa07d4ebecd)" style="fill: #6b010e; stroke: #00ff00; stroke-width: 3"/>
    <path d="M 55.096154 278.638577 
C 57.085177 278.638577 58.993003 277.84833 60.399455 276.441878 
C 61.805907 275.035426 62.596154 273.1276 62.596154 271.138577 
C 62.596154 269.149554 61.805907 267.241728 60.399455 265.835276 
C 58.993003 264.428824 57.085177 263.638577 55.096154 263.638577 
C 53.107131 263.638577 51.199305 264.428824 49.792853 265.835276 
C 48.386401 267.241728 47.596154 269.149554 47.596154 271.138577 
C 47.596154 273.1276 48.386401 275.035426 49.792853 276.441878 
C 51.199305 277.84833 53.107131 278.638577 55.096154 278.638577 
z
" clip-path="url(#pa07d4ebecd)" style="fill: #6b010e; stroke: #00ff00; stroke-width: 3"/>
    <path d="M 41.969866 301.087288 
C 42.367671 301.087288 42.749236 300.929238 43.030527 300.647948 
C 43.311817 300.366657 43.469866 299.985092 43.469866 299.587288 
C 43.469866 299.189483 43.311817 298.807918 43.030527 298.526627 
C 42.749236 298.245337 42.367671 298.087288 41.969866 298.087288 
C 41.572062 298.087288 41.190497 298.245337 40.909206 298.526627 
C 40.627916 298.807918 40.469866 299.189483 40.469866 299.587288 
C 40.469866 299.985092 40.627916 300.366657 40.909206 300.647948 
C 41.190497 300.929238 41.572062 301.087288 41.969866 301.087288 
z
" clip-path="url(#pa07d4ebecd)" style="fill: #fdcab5; stroke: #ff0000; stroke-width: 3"/>
    <path d="M 55.096154 335.535998 
C 57.085177 335.535998 58.993003 334.745751 60.399455 333.339299 
C 61.805907 331.932847 62.596154 330.025022 62.596154 328.035998 
C 62.596154 326.046975 61.805907 324.139149 60.399455 322.732697 
C 58.993003 321.326246 57.085177 320.535998 55.096154 320.535998 
C 53.107131 320.535998 51.199305 321.326246 49.792853 322.732697 
C 48.386401 324.139149 47.596154 326.046975 47.596154 328.035998 
C 47.596154 330.025022 48.386401 331.932847 49.792853 333.339299 
C 51.199305 334.745751 53.107131 335.535998 55.096154 335.535998 
z
" clip-path="url(#pa07d4ebecd)" style="fill: #6b010e; stroke: #00ff00; stroke-width: 3"/>
    <path d="M 89.461221 347.118268 
C 89.859025 347.118268 90.240591 346.960219 90.521881 346.678929 
C 90.803171 346.397638 90.961221 346.016073 90.961221 345.618268 
C 90.961221 345.220464 90.803171 344.838899 90.521881 344.557608 
C 90.240591 344.276318 89.859025 344.118268 89.461221 344.118268 
C 89.063416 344.118268 88.681851 344.276318 88.400561 344.557608 
C 88.11927 344.838899 87.961221 345.220464 87.961221 345.618268 
C 87.961221 346.016073 88.11927 346.397638 88.400561 346.678929 
C 88.681851 346.960219 89.063416 347.118268 89.461221 347.118268 
z
" clip-path="url(#pa07d4ebecd)" style="fill: #fdcab5; stroke: #00ff00; stroke-width: 3"/>
    <path d="M 131.938779 347.118268 
C 132.336584 347.118268 132.718149 346.960219 132.999439 346.678929 
C 133.28073 346.397638 133.438779 346.016073 133.438779 345.618268 
C 133.438779 345.220464 133.28073 344.838899 132.999439 344.557608 
C 132.718149 344.276318 132.336584 344.118268 131.938779 344.118268 
C 131.540975 344.118268 131.159409 344.276318 130.878119 344.557608 
C 130.596829 344.838899 130.438779 345.220464 130.438779 345.618268 
C 130.438779 346.016073 130.596829 346.397638 130.878119 346.678929 
C 131.159409 346.960219 131.540975 347.118268 131.938779 347.118268 
z
" clip-path="url(#pa07d4ebecd)" style="fill: #fdcab5; stroke: #00ff00; stroke-width: 3"/>
    <path d="M 166.303846 335.535998 
C 168.292869 335.535998 170.200695 334.745751 171.607147 333.339299 
C 173.013599 331.932847 173.803846 330.025022 173.803846 328.035998 
C 173.803846 326.046975 173.013599 324.139149 171.607147 322.732697 
C 170.200695 321.326246 168.292869 320.535998 166.303846 320.535998 
C 164.314823 320.535998 162.406997 321.326246 161.000545 322.732697 
C 159.594093 324.139149 158.803846 326.046975 158.803846 328.035998 
C 158.803846 330.025022 159.594093 331.932847 161.000545 333.339299 
C 162.406997 334.745751 164.314823 335.535998 166.303846 335.535998 
z
" clip-path="url(#pa07d4ebecd)" style="fill: #6b010e; stroke: #00ff00; stroke-width: 3"/>
   </g>
   <g id="matplotlib.axis_3"/>
   <g id="matplotlib.axis_4"/>
  </g>
  <g id="axes_3">
   <g id="patch_4">
    <path d="M 27 493.671724 
L 194.4 493.671724 
L 194.4 378.968276 
L 27 378.968276 
z
" style="fill: #ffffff"/>
   </g>
   <g id="EdgeCollection_3">
    <path d="M 180.729172 437.07 
C 206.160329 449.939715 206.160329 422.700285 180.729172 435.57 
C 206.160329 422.700285 206.160329 449.939715 180.729172 437.07 
" clip-path="url(#p83ee2a1e85)" style="fill: #ffffff"/>
    <path d="M 178.811713 434.953414 
L 166.922266 408.680105 
" clip-path="url(#p83ee2a1e85)" style="stroke: #000000; stroke-width: 0.53012"/>
    <path d="M 178.363225 435.265625 
L 133.005687 390.440904 
" clip-path="url(#p83ee2a1e85)" style="fill: #ffffff"/>
    <path d="M 178.100215 435.62623 
L 90.791139 390.080298 
" clip-path="url(#p83ee2a1e85)" style="fill: #ffffff"/>
    <path d="M 177.969359 435.979209 
L 56.556928 407.65431 
" clip-path="url(#p83ee2a1e85)" style="fill: #ffffff"/>
    <path d="M 177.930134 436.32 
L 43.469866 436.32 
" clip-path="url(#p83ee2a1e85)" style="fill: #7c7c7c; stroke: #7c7c7c; stroke-width: 0.240964"/>
    <path d="M 177.969359 436.660791 
L 62.400025 463.622525 
" clip-path="url(#p83ee2a1e85)" style="fill: #ffffff"/>
    <path d="M 178.100215 437.01377 
L 90.791139 482.559702 
" clip-path="url(#p83ee2a1e85)" style="fill: #ffffff"/>
    <path d="M 178.363225 437.374375 
L 133.005687 482.199096 
" clip-path="url(#p83ee2a1e85)" style="fill: #ffffff"/>
    <path d="M 178.811713 437.686586 
L 166.922266 463.959895 
" clip-path="url(#p83ee2a1e85)" style="fill: #ffffff"/>
    <path d="M 167.763014 406.965913 
C 195.083357 398.843587 176.367699 379.051905 166.732394 405.87604 
C 176.367699 379.051905 195.083357 398.843587 167.763014 406.965913 
" clip-path="url(#p83ee2a1e85)" style="fill: #ffffff"/>
    <path d="M 164.973927 406.61975 
L 133.268698 390.080298 
" clip-path="url(#p83ee2a1e85)" style="fill: #ffffff"/>
    <path d="M 164.843072 406.972728 
L 90.921995 389.72732 
" clip-path="url(#p83ee2a1e85)" style="fill: #ffffff"/>
    <path d="M 164.803846 407.313519 
L 56.596154 407.313519 
" clip-path="url(#p83ee2a1e85)" style="fill: #ffffff"/>
    <path d="M 164.843072 407.65431 
L 43.430641 435.979209 
" clip-path="url(#p83ee2a1e85)" style="fill: #ffffff"/>
    <path d="M 164.973927 408.007289 
L 61.745747 461.857632 
" clip-path="url(#p83ee2a1e85)" style="fill: #ffffff"/>
    <path d="M 165.236938 408.367895 
L 90.528129 482.199096 
" clip-path="url(#p83ee2a1e85)" style="fill: #ffffff"/>
    <path d="M 165.685426 408.680105 
L 132.5572 481.886886 
" clip-path="url(#p83ee2a1e85)" style="stroke: #000000; stroke-width: 0.668675"/>
    <path d="M 166.303846 408.813519 
L 166.303846 463.826481 
" clip-path="url(#p83ee2a1e85)" style="fill: #ffffff"/>
    <path d="M 132.976516 388.30343 
C 151.531366 366.668022 125.075355 360.18219 131.519657 387.946273 
C 125.075355 360.18219 151.531366 366.668022 132.976516 388.30343 
" clip-path="url(#p83ee2a1e85)" style="fill: #ffffff"/>
    <path d="M 130.438779 389.386528 
L 90.961221 389.386528 
" clip-path="url(#p83ee2a1e85)" style="fill: #ffffff"/>
    <path d="M 130.478005 389.72732 
L 56.556928 406.972728 
" clip-path="url(#p83ee2a1e85)" style="fill: #ffffff"/>
    <path d="M 130.608861 390.080298 
L 43.299785 435.62623 
" clip-path="url(#p83ee2a1e85)" style="fill: #ffffff"/>
    <path d="M 130.871871 390.440904 
L 60.430695 460.054605 
" clip-path="url(#p83ee2a1e85)" style="fill: #ffffff"/>
    <path d="M 131.320359 390.753114 
L 90.079641 481.886886 
" clip-path="url(#p83ee2a1e85)" style="fill: #ffffff"/>
    <path d="M 131.938779 390.886528 
L 131.938779 481.753472 
" clip-path="url(#p83ee2a1e85)" style="fill: #ffffff"/>
    <path d="M 132.5572 390.753114 
L 165.685426 463.959895 
" clip-path="url(#p83ee2a1e85)" style="fill: #ffffff"/>
    <path d="M 89.880343 387.946273 
C 96.324645 360.18219 69.868634 366.668022 88.423484 388.30343 
C 69.868634 366.668022 96.324645 360.18219 89.880343 387.946273 
" clip-path="url(#p83ee2a1e85)" style="fill: #ffffff"/>
    <path d="M 88.131302 390.080298 
L 56.426073 406.61975 
" clip-path="url(#p83ee2a1e85)" style="stroke: #000000; stroke-width: 0.487952"/>
    <path d="M 88.394313 390.440904 
L 43.036775 435.265625 
" clip-path="url(#p83ee2a1e85)" style="fill: #ffffff"/>
    <path d="M 88.8428 390.753114 
L 58.188255 458.493552 
" clip-path="url(#p83ee2a1e85)" style="stroke: #000000; stroke-width: 2"/>
    <path d="M 89.461221 390.886528 
L 89.461221 481.753472 
" clip-path="url(#p83ee2a1e85)" style="fill: #ffffff"/>
    <path d="M 90.079641 390.753114 
L 131.320359 481.886886 
" clip-path="url(#p83ee2a1e85)" style="fill: #ffffff"/>
    <path d="M 90.528129 390.440904 
L 165.236938 464.272105 
" clip-path="url(#p83ee2a1e85)" style="fill: #ffffff"/>
    <path d="M 54.667606 405.87604 
C 45.032301 379.051905 26.316643 398.843587 53.636986 406.965913 
C 26.316643 398.843587 45.032301 379.051905 54.667606 405.87604 
" clip-path="url(#p83ee2a1e85)" style="fill: #ffffff"/>
    <path d="M 54.477734 408.680105 
L 42.588287 434.953414 
" clip-path="url(#p83ee2a1e85)" style="fill: #ffffff"/>
    <path d="M 55.096154 408.813519 
L 55.096154 457.826481 
" clip-path="url(#p83ee2a1e85)" style="stroke: #000000; stroke-width: 0.644578"/>
    <path d="M 55.714574 408.680105 
L 88.8428 481.886886 
" clip-path="url(#p83ee2a1e85)" style="fill: #ffffff"/>
    <path d="M 56.163062 408.367895 
L 130.871871 482.199096 
" clip-path="url(#p83ee2a1e85)" style="fill: #ffffff"/>
    <path d="M 56.426073 408.007289 
L 164.973927 464.632711 
" clip-path="url(#p83ee2a1e85)" style="fill: #ffffff"/>
    <path d="M 40.670828 435.57 
C 15.239671 422.700285 15.239671 449.939715 40.670828 437.07 
C 15.239671 449.939715 15.239671 422.700285 40.670828 435.57 
" clip-path="url(#p83ee2a1e85)" style="fill: #ffffff"/>
    <path d="M 42.588287 437.686586 
L 52.004053 458.493552 
" clip-path="url(#p83ee2a1e85)" style="fill: #ffffff"/>
    <path d="M 43.036775 437.374375 
L 88.394313 482.199096 
" clip-path="url(#p83ee2a1e85)" style="fill: #ffffff"/>
    <path d="M 43.299785 437.01377 
L 130.608861 482.559702 
" clip-path="url(#p83ee2a1e85)" style="fill: #ffffff"/>
    <path d="M 43.430641 436.660791 
L 164.843072 464.98569 
" clip-path="url(#p83ee2a1e85)" style="fill: #ffffff"/>
    <path d="M 47.800316 467.064511 
C 26.316643 473.796413 45.032301 493.588095 52.953414 472.513877 
C 45.032301 493.588095 26.316643 473.796413 47.800316 467.064511 
" clip-path="url(#p83ee2a1e85)" style="fill: #ffffff"/>
    <path d="M 61.745747 468.795329 
L 88.131302 482.559702 
" clip-path="url(#p83ee2a1e85)" style="fill: #ffffff"/>
    <path d="M 62.400025 467.030436 
L 130.478005 482.91268 
" clip-path="url(#p83ee2a1e85)" style="fill: #ffffff"/>
    <path d="M 62.596154 465.326481 
L 164.803846 465.326481 
" clip-path="url(#p83ee2a1e85)" style="stroke: #000000"/>
    <path d="M 88.423484 484.33657 
C 69.868634 505.971978 96.324645 512.45781 89.880343 484.693727 
C 96.324645 512.45781 69.868634 505.971978 88.423484 484.33657 
" clip-path="url(#p83ee2a1e85)" style="fill: #ffffff"/>
    <path d="M 90.961221 483.253472 
L 130.438779 483.253472 
" clip-path="url(#p83ee2a1e85)" style="fill: #ffffff"/>
    <path d="M 90.921995 482.91268 
L 164.843072 465.667272 
" clip-path="url(#p83ee2a1e85)" style="fill: #ffffff"/>
    <path d="M 131.519657 484.693727 
C 125.075355 512.45781 151.531366 505.971978 132.976516 484.33657 
C 151.531366 505.971978 125.075355 512.45781 131.519657 484.693727 
" clip-path="url(#p83ee2a1e85)" style="fill: #ffffff"/>
    <path d="M 133.268698 482.559702 
L 164.973927 466.02025 
" clip-path="url(#p83ee2a1e85)" style="stroke: #000000; stroke-width: 0.590361"/>
    <path d="M 166.732394 466.76396 
C 176.367699 493.588095 195.083357 473.796413 167.763014 465.674087 
C 195.083357 473.796413 176.367699 493.588095 166.732394 466.76396 
" clip-path="url(#p83ee2a1e85)" style="fill: #ffffff"/>
   </g>
   <g id="VertexCollection_3">
    <path d="M 179.430134 437.82 
C 179.827938 437.82 180.209503 437.661951 180.490794 437.38066 
C 180.772084 437.09937 180.930134 436.717805 180.930134 436.32 
C 180.930134 435.922195 180.772084 435.54063 180.490794 435.25934 
C 180.209503 434.978049 179.827938 434.82 179.430134 434.82 
C 179.032329 434.82 178.650764 434.978049 178.369473 435.25934 
C 178.088183 435.54063 177.930134 435.922195 177.930134 436.32 
C 177.930134 436.717805 178.088183 437.09937 178.369473 437.38066 
C 178.650764 437.661951 179.032329 437.82 179.430134 437.82 
z
" clip-path="url(#p83ee2a1e85)" style="fill: #fdcab5; stroke: #ff0000; stroke-width: 3"/>
    <path d="M 166.303846 408.813519 
C 166.701651 408.813519 167.083216 408.65547 167.364506 408.37418 
C 167.645797 408.092889 167.803846 407.711324 167.803846 407.313519 
C 167.803846 406.915715 167.645797 406.53415 167.364506 406.252859 
C 167.083216 405.971569 166.701651 405.813519 166.303846 405.813519 
C 165.906041 405.813519 165.524476 405.971569 165.243186 406.252859 
C 164.961895 406.53415 164.803846 406.915715 164.803846 407.313519 
C 164.803846 407.711324 164.961895 408.092889 165.243186 408.37418 
C 165.524476 408.65547 165.906041 408.813519 166.303846 408.813519 
z
" clip-path="url(#p83ee2a1e85)" style="fill: #fdcab5; stroke: #00ff00; stroke-width: 3"/>
    <path d="M 131.938779 390.886528 
C 132.336584 390.886528 132.718149 390.728479 132.999439 390.447189 
C 133.28073 390.165898 133.438779 389.784333 133.438779 389.386528 
C 133.438779 388.988724 133.28073 388.607159 132.999439 388.325868 
C 132.718149 388.044578 132.336584 387.886528 131.938779 387.886528 
C 131.540975 387.886528 131.159409 388.044578 130.878119 388.325868 
C 130.596829 388.607159 130.438779 388.988724 130.438779 389.386528 
C 130.438779 389.784333 130.596829 390.165898 130.878119 390.447189 
C 131.159409 390.728479 131.540975 390.886528 131.938779 390.886528 
z
" clip-path="url(#p83ee2a1e85)" style="fill: #fdcab5; stroke: #00ff00; stroke-width: 3"/>
    <path d="M 89.461221 390.886528 
C 89.859025 390.886528 90.240591 390.728479 90.521881 390.447189 
C 90.803171 390.165898 90.961221 389.784333 90.961221 389.386528 
C 90.961221 388.988724 90.803171 388.607159 90.521881 388.325868 
C 90.240591 388.044578 89.859025 387.886528 89.461221 387.886528 
C 89.063416 387.886528 88.681851 388.044578 88.400561 388.325868 
C 88.11927 388.607159 87.961221 388.988724 87.961221 389.386528 
C 87.961221 389.784333 88.11927 390.165898 88.400561 390.447189 
C 88.681851 390.728479 89.063416 390.886528 89.461221 390.886528 
z
" clip-path="url(#p83ee2a1e85)" style="fill: #fdcab5; stroke: #00ff00; stroke-width: 3"/>
    <path d="M 55.096154 408.813519 
C 55.493959 408.813519 55.875524 408.65547 56.156814 408.37418 
C 56.438105 408.092889 56.596154 407.711324 56.596154 407.313519 
C 56.596154 406.915715 56.438105 406.53415 56.156814 406.252859 
C 55.875524 405.971569 55.493959 405.813519 55.096154 405.813519 
C 54.698349 405.813519 54.316784 405.971569 54.035494 406.252859 
C 53.754203 406.53415 53.596154 406.915715 53.596154 407.313519 
C 53.596154 407.711324 53.754203 408.092889 54.035494 408.37418 
C 54.316784 408.65547 54.698349 408.813519 55.096154 408.813519 
z
" clip-path="url(#p83ee2a1e85)" style="fill: #fdcab5; stroke: #00ff00; stroke-width: 3"/>
    <path d="M 41.969866 437.82 
C 42.367671 437.82 42.749236 437.661951 43.030527 437.38066 
C 43.311817 437.09937 43.469866 436.717805 43.469866 436.32 
C 43.469866 435.922195 43.311817 435.54063 43.030527 435.25934 
C 42.749236 434.978049 42.367671 434.82 41.969866 434.82 
C 41.572062 434.82 41.190497 434.978049 40.909206 435.25934 
C 40.627916 435.54063 40.469866 435.922195 40.469866 436.32 
C 40.469866 436.717805 40.627916 437.09937 40.909206 437.38066 
C 41.190497 437.661951 41.572062 437.82 41.969866 437.82 
z
" clip-path="url(#p83ee2a1e85)" style="fill: #fdcab5; stroke: #ff0000; stroke-width: 3"/>
    <path d="M 55.096154 472.826481 
C 57.085177 472.826481 58.993003 472.036233 60.399455 470.629782 
C 61.805907 469.22333 62.596154 467.315504 62.596154 465.326481 
C 62.596154 463.337457 61.805907 461.429632 60.399455 460.02318 
C 58.993003 458.616728 57.085177 457.826481 55.096154 457.826481 
C 53.107131 457.826481 51.199305 458.616728 49.792853 460.02318 
C 48.386401 461.429632 47.596154 463.337457 47.596154 465.326481 
C 47.596154 467.315504 48.386401 469.22333 49.792853 470.629782 
C 51.199305 472.036233 53.107131 472.826481 55.096154 472.826481 
z
" clip-path="url(#p83ee2a1e85)" style="fill: #6b010e; stroke: #00ff00; stroke-width: 3"/>
    <path d="M 89.461221 484.753472 
C 89.859025 484.753472 90.240591 484.595422 90.521881 484.314132 
C 90.803171 484.032841 90.961221 483.651276 90.961221 483.253472 
C 90.961221 482.855667 90.803171 482.474102 90.521881 482.192811 
C 90.240591 481.911521 89.859025 481.753472 89.461221 481.753472 
C 89.063416 481.753472 88.681851 481.911521 88.400561 482.192811 
C 88.11927 482.474102 87.961221 482.855667 87.961221 483.253472 
C 87.961221 483.651276 88.11927 484.032841 88.400561 484.314132 
C 88.681851 484.595422 89.063416 484.753472 89.461221 484.753472 
z
" clip-path="url(#p83ee2a1e85)" style="fill: #fdcab5; stroke: #00ff00; stroke-width: 3"/>
    <path d="M 131.938779 484.753472 
C 132.336584 484.753472 132.718149 484.595422 132.999439 484.314132 
C 133.28073 484.032841 133.438779 483.651276 133.438779 483.253472 
C 133.438779 482.855667 133.28073 482.474102 132.999439 482.192811 
C 132.718149 481.911521 132.336584 481.753472 131.938779 481.753472 
C 131.540975 481.753472 131.159409 481.911521 130.878119 482.192811 
C 130.596829 482.474102 130.438779 482.855667 130.438779 483.253472 
C 130.438779 483.651276 130.596829 484.032841 130.878119 484.314132 
C 131.159409 484.595422 131.540975 484.753472 131.938779 484.753472 
z
" clip-path="url(#p83ee2a1e85)" style="fill: #fdcab5; stroke: #00ff00; stroke-width: 3"/>
    <path d="M 166.303846 466.826481 
C 166.701651 466.826481 167.083216 466.668431 167.364506 466.387141 
C 167.645797 466.10585 167.803846 465.724285 167.803846 465.326481 
C 167.803846 464.928676 167.645797 464.547111 167.364506 464.26582 
C 167.083216 463.98453 166.701651 463.826481 166.303846 463.826481 
C 165.906041 463.826481 165.524476 463.98453 165.243186 464.26582 
C 164.961895 464.547111 164.803846 464.928676 164.803846 465.326481 
C 164.803846 465.724285 164.961895 466.10585 165.243186 466.387141 
C 165.524476 466.668431 165.906041 466.826481 166.303846 466.826481 
z
" clip-path="url(#p83ee2a1e85)" style="fill: #fdcab5; stroke: #00ff00; stroke-width: 3"/>
   </g>
   <g id="matplotlib.axis_5"/>
   <g id="matplotlib.axis_6"/>
  </g>
  <g id="axes_4">
   <g id="patch_5">
    <path d="M 27 631.315862 
L 194.4 631.315862 
L 194.4 516.612414 
L 27 516.612414 
z
" style="fill: #ffffff"/>
   </g>
   <g id="EdgeCollection_4">
    <path d="M 180.729172 573.802712 
C 206.160329 586.672427 206.160329 559.432997 180.729172 572.302712 
C 206.160329 559.432997 206.160329 586.672427 180.729172 573.802712 
" clip-path="url(#pd9828c9498)" style="fill: #ffffff"/>
    <path d="M 178.8017 571.690703 
L 169.446015 551.414051 
" clip-path="url(#pd9828c9498)" style="stroke: #000000; stroke-width: 1.703226"/>
    <path d="M 178.353042 572.008742 
L 133.015871 528.065702 
" clip-path="url(#pd9828c9498)" style="fill: #ffffff"/>
    <path d="M 178.094764 572.369494 
L 90.796591 527.70495 
" clip-path="url(#pd9828c9498)" style="fill: #ffffff"/>
    <path d="M 177.967921 572.718145 
L 62.407216 546.276837 
" clip-path="url(#pd9828c9498)" style="fill: #ffffff"/>
    <path d="M 177.930134 573.052712 
L 43.469866 573.052712 
" clip-path="url(#pd9828c9498)" style="fill: #020202; stroke: #020202; stroke-width: 0.4"/>
    <path d="M 177.967921 573.387279 
L 62.407216 599.828588 
" clip-path="url(#pd9828c9498)" style="fill: #ffffff"/>
    <path d="M 178.094764 573.735931 
L 96.138071 615.667603 
" clip-path="url(#pd9828c9498)" style="fill: #ffffff"/>
    <path d="M 178.353042 574.096683 
L 137.324236 613.863841 
" clip-path="url(#pd9828c9498)" style="fill: #ffffff"/>
    <path d="M 178.8017 574.414722 
L 166.93228 600.139413 
" clip-path="url(#pd9828c9498)" style="fill: #ffffff"/>
    <path d="M 173.586213 542.810365 
C 195.017905 535.914768 176.151809 516.266436 168.391694 537.400469 
C 176.151809 516.266436 195.017905 535.914768 173.586213 542.810365 
" clip-path="url(#pd9828c9498)" style="fill: #ffffff"/>
    <path d="M 159.626996 541.187911 
L 133.274149 527.70495 
" clip-path="url(#pd9828c9498)" style="fill: #ffffff"/>
    <path d="M 158.992784 542.931166 
L 90.923433 527.356299 
" clip-path="url(#pd9828c9498)" style="fill: #ffffff"/>
    <path d="M 158.803846 544.604002 
L 62.596154 544.604002 
" clip-path="url(#pd9828c9498)" style="fill: #ffffff"/>
    <path d="M 158.992784 546.276837 
L 43.432079 572.718145 
" clip-path="url(#pd9828c9498)" style="fill: #ffffff"/>
    <path d="M 159.626996 548.020092 
L 61.773004 598.085333 
" clip-path="url(#pd9828c9498)" style="fill: #ffffff"/>
    <path d="M 160.918389 549.823854 
L 94.846677 613.863841 
" clip-path="url(#pd9828c9498)" style="stroke: #000000; stroke-width: 0.83871"/>
    <path d="M 163.161677 551.414051 
L 135.080949 612.273644 
" clip-path="url(#pd9828c9498)" style="stroke: #000000; stroke-width: 2"/>
    <path d="M 166.303846 552.104002 
L 166.303846 600.001423 
" clip-path="url(#pd9828c9498)" style="fill: #ffffff"/>
    <path d="M 132.97222 525.934533 
C 151.441274 504.225839 124.959793 497.844793 131.513958 525.583147 
C 124.959793 497.844793 151.441274 504.225839 132.97222 525.934533 
" clip-path="url(#pd9828c9498)" style="fill: #ffffff"/>
    <path d="M 130.438779 527.021732 
L 90.961221 527.021732 
" clip-path="url(#pd9828c9498)" style="fill: #ffffff"/>
    <path d="M 130.476567 527.356299 
L 62.407216 542.931166 
" clip-path="url(#pd9828c9498)" style="fill: #ffffff"/>
    <path d="M 130.603409 527.70495 
L 43.305236 572.369494 
" clip-path="url(#pd9828c9498)" style="fill: #ffffff"/>
    <path d="M 130.861688 528.065702 
L 60.481611 596.281571 
" clip-path="url(#pd9828c9498)" style="fill: #ffffff"/>
    <path d="M 131.310345 528.383741 
L 92.60339 612.273644 
" clip-path="url(#pd9828c9498)" style="fill: #ffffff"/>
    <path d="M 131.938779 528.521732 
L 131.938779 611.583693 
" clip-path="url(#pd9828c9498)" style="fill: #ffffff"/>
    <path d="M 132.567213 528.383741 
L 165.675412 600.139413 
" clip-path="url(#pd9828c9498)" style="stroke: #000000; stroke-width: 0.825806"/>
    <path d="M 89.886042 525.583147 
C 96.440207 497.844793 69.958726 504.225839 88.42778 525.934533 
C 69.958726 504.225839 96.440207 497.844793 89.886042 525.583147 
" clip-path="url(#pd9828c9498)" style="fill: #ffffff"/>
    <path d="M 88.125851 527.70495 
L 61.773004 541.187911 
" clip-path="url(#pd9828c9498)" style="fill: #ffffff"/>
    <path d="M 88.384129 528.065702 
L 43.046958 572.008742 
" clip-path="url(#pd9828c9498)" style="stroke: #000000; stroke-width: 0.412903"/>
    <path d="M 88.832787 528.383741 
L 58.238323 594.691374 
" clip-path="url(#pd9828c9498)" style="stroke: #000000; stroke-width: 1.793548"/>
    <path d="M 89.461221 528.521732 
L 89.461221 611.583693 
" clip-path="url(#pd9828c9498)" style="fill: #ffffff"/>
    <path d="M 90.089655 528.383741 
L 128.79661 612.273644 
" clip-path="url(#pd9828c9498)" style="fill: #ffffff"/>
    <path d="M 90.538312 528.065702 
L 165.226755 600.457453 
" clip-path="url(#pd9828c9498)" style="fill: #ffffff"/>
    <path d="M 53.008306 537.400469 
C 45.248191 516.266436 26.382095 535.914768 47.813787 542.810365 
C 26.382095 535.914768 45.248191 516.266436 53.008306 537.400469 
" clip-path="url(#pd9828c9498)" style="fill: #ffffff"/>
    <path d="M 51.953985 551.414051 
L 42.5983 571.690703 
" clip-path="url(#pd9828c9498)" style="fill: #ffffff"/>
    <path d="M 55.096154 552.104002 
L 55.096154 594.001423 
" clip-path="url(#pd9828c9498)" style="stroke: #000000; stroke-width: 1.070968"/>
    <path d="M 58.238323 551.414051 
L 86.319051 612.273644 
" clip-path="url(#pd9828c9498)" style="stroke: #000000; stroke-width: 0.980645"/>
    <path d="M 60.481611 549.823854 
L 126.553323 613.863841 
" clip-path="url(#pd9828c9498)" style="stroke: #000000; stroke-width: 1.277419"/>
    <path d="M 61.773004 548.020092 
L 164.968476 600.818205 
" clip-path="url(#pd9828c9498)" style="fill: #ffffff"/>
    <path d="M 40.670828 572.302712 
C 15.239671 559.432997 15.239671 586.672427 40.670828 573.802712 
C 15.239671 586.672427 15.239671 559.432997 40.670828 572.302712 
" clip-path="url(#pd9828c9498)" style="fill: #ffffff"/>
    <path d="M 42.5983 574.414722 
L 51.953985 594.691374 
" clip-path="url(#pd9828c9498)" style="fill: #ffffff"/>
    <path d="M 43.046958 574.096683 
L 84.075764 613.863841 
" clip-path="url(#pd9828c9498)" style="fill: #ffffff"/>
    <path d="M 43.305236 573.735931 
L 125.261929 615.667603 
" clip-path="url(#pd9828c9498)" style="fill: #ffffff"/>
    <path d="M 43.432079 573.387279 
L 164.841634 601.166856 
" clip-path="url(#pd9828c9498)" style="fill: #ffffff"/>
    <path d="M 47.813787 603.29506 
C 26.382095 610.190657 45.248191 629.838989 53.008306 608.704956 
C 45.248191 629.838989 26.382095 610.190657 47.813787 603.29506 
" clip-path="url(#pd9828c9498)" style="fill: #ffffff"/>
    <path d="M 61.773004 604.917514 
L 82.784371 615.667603 
" clip-path="url(#pd9828c9498)" style="fill: #ffffff"/>
    <path d="M 62.407216 603.174258 
L 124.627718 617.410858 
" clip-path="url(#pd9828c9498)" style="fill: #ffffff"/>
    <path d="M 62.596154 601.501423 
L 164.803846 601.501423 
" clip-path="url(#pd9828c9498)" style="stroke: #000000; stroke-width: 0.890323"/>
    <path d="M 84.294018 624.519686 
C 69.958726 641.879586 96.440207 648.260632 91.585327 626.276618 
C 96.440207 648.260632 69.958726 641.879586 84.294018 624.519686 
" clip-path="url(#pd9828c9498)" style="fill: #ffffff"/>
    <path d="M 96.961221 619.083693 
L 124.438779 619.083693 
" clip-path="url(#pd9828c9498)" style="stroke: #000000; stroke-width: 0.903226"/>
    <path d="M 96.772282 617.410858 
L 164.841634 601.83599 
" clip-path="url(#pd9828c9498)" style="fill: #ffffff"/>
    <path d="M 129.814673 626.276618 
C 124.959793 648.260632 151.441274 641.879586 137.105982 624.519686 
C 151.441274 641.879586 124.959793 648.260632 129.814673 626.276618 
" clip-path="url(#pd9828c9498)" style="fill: #ffffff"/>
    <path d="M 138.615629 615.667603 
L 164.968476 602.184641 
" clip-path="url(#pd9828c9498)" style="fill: #ffffff"/>
    <path d="M 166.721416 602.94213 
C 176.151809 629.838989 195.017905 610.190657 167.760319 601.860151 
C 195.017905 610.190657 176.151809 629.838989 166.721416 602.94213 
" clip-path="url(#pd9828c9498)" style="fill: #ffffff"/>
   </g>
   <g id="VertexCollection_4">
    <path d="M 179.430134 574.552712 
C 179.827938 574.552712 180.209503 574.394663 180.490794 574.113373 
C 180.772084 573.832082 180.930134 573.450517 180.930134 573.052712 
C 180.930134 572.654908 180.772084 572.273343 180.490794 571.992052 
C 180.209503 571.710762 179.827938 571.552712 179.430134 571.552712 
C 179.032329 571.552712 178.650764 571.710762 178.369473 571.992052 
C 178.088183 572.273343 177.930134 572.654908 177.930134 573.052712 
C 177.930134 573.450517 178.088183 573.832082 178.369473 574.113373 
C 178.650764 574.394663 179.032329 574.552712 179.430134 574.552712 
z
" clip-path="url(#pd9828c9498)" style="fill: #fdcab5; stroke: #ff0000; stroke-width: 3"/>
    <path d="M 166.303846 552.104002 
C 168.292869 552.104002 170.200695 551.313754 171.607147 549.907303 
C 173.013599 548.500851 173.803846 546.593025 173.803846 544.604002 
C 173.803846 542.614978 173.013599 540.707153 171.607147 539.300701 
C 170.200695 537.894249 168.292869 537.104002 166.303846 537.104002 
C 164.314823 537.104002 162.406997 537.894249 161.000545 539.300701 
C 159.594093 540.707153 158.803846 542.614978 158.803846 544.604002 
C 158.803846 546.593025 159.594093 548.500851 161.000545 549.907303 
C 162.406997 551.313754 164.314823 552.104002 166.303846 552.104002 
z
" clip-path="url(#pd9828c9498)" style="fill: #6b010e; stroke: #00ff00; stroke-width: 3"/>
    <path d="M 131.938779 528.521732 
C 132.336584 528.521732 132.718149 528.363682 132.999439 528.082392 
C 133.28073 527.801101 133.438779 527.419536 133.438779 527.021732 
C 133.438779 526.623927 133.28073 526.242362 132.999439 525.961071 
C 132.718149 525.679781 132.336584 525.521732 131.938779 525.521732 
C 131.540975 525.521732 131.159409 525.679781 130.878119 525.961071 
C 130.596829 526.242362 130.438779 526.623927 130.438779 527.021732 
C 130.438779 527.419536 130.596829 527.801101 130.878119 528.082392 
C 131.159409 528.363682 131.540975 528.521732 131.938779 528.521732 
z
" clip-path="url(#pd9828c9498)" style="fill: #fdcab5; stroke: #00ff00; stroke-width: 3"/>
    <path d="M 89.461221 528.521732 
C 89.859025 528.521732 90.240591 528.363682 90.521881 528.082392 
C 90.803171 527.801101 90.961221 527.419536 90.961221 527.021732 
C 90.961221 526.623927 90.803171 526.242362 90.521881 525.961071 
C 90.240591 525.679781 89.859025 525.521732 89.461221 525.521732 
C 89.063416 525.521732 88.681851 525.679781 88.400561 525.961071 
C 88.11927 526.242362 87.961221 526.623927 87.961221 527.021732 
C 87.961221 527.419536 88.11927 527.801101 88.400561 528.082392 
C 88.681851 528.363682 89.063416 528.521732 89.461221 528.521732 
z
" clip-path="url(#pd9828c9498)" style="fill: #fdcab5; stroke: #00ff00; stroke-width: 3"/>
    <path d="M 55.096154 552.104002 
C 57.085177 552.104002 58.993003 551.313754 60.399455 549.907303 
C 61.805907 548.500851 62.596154 546.593025 62.596154 544.604002 
C 62.596154 542.614978 61.805907 540.707153 60.399455 539.300701 
C 58.993003 537.894249 57.085177 537.104002 55.096154 537.104002 
C 53.107131 537.104002 51.199305 537.894249 49.792853 539.300701 
C 48.386401 540.707153 47.596154 542.614978 47.596154 544.604002 
C 47.596154 546.593025 48.386401 548.500851 49.792853 549.907303 
C 51.199305 551.313754 53.107131 552.104002 55.096154 552.104002 
z
" clip-path="url(#pd9828c9498)" style="fill: #6b010e; stroke: #00ff00; stroke-width: 3"/>
    <path d="M 41.969866 574.552712 
C 42.367671 574.552712 42.749236 574.394663 43.030527 574.113373 
C 43.311817 573.832082 43.469866 573.450517 43.469866 573.052712 
C 43.469866 572.654908 43.311817 572.273343 43.030527 571.992052 
C 42.749236 571.710762 42.367671 571.552712 41.969866 571.552712 
C 41.572062 571.552712 41.190497 571.710762 40.909206 571.992052 
C 40.627916 572.273343 40.469866 572.654908 40.469866 573.052712 
C 40.469866 573.450517 40.627916 573.832082 40.909206 574.113373 
C 41.190497 574.394663 41.572062 574.552712 41.969866 574.552712 
z
" clip-path="url(#pd9828c9498)" style="fill: #fdcab5; stroke: #ff0000; stroke-width: 3"/>
    <path d="M 55.096154 609.001423 
C 57.085177 609.001423 58.993003 608.211176 60.399455 606.804724 
C 61.805907 605.398272 62.596154 603.490446 62.596154 601.501423 
C 62.596154 599.5124 61.805907 597.604574 60.399455 596.198122 
C 58.993003 594.79167 57.085177 594.001423 55.096154 594.001423 
C 53.107131 594.001423 51.199305 594.79167 49.792853 596.198122 
C 48.386401 597.604574 47.596154 599.5124 47.596154 601.501423 
C 47.596154 603.490446 48.386401 605.398272 49.792853 606.804724 
C 51.199305 608.211176 53.107131 609.001423 55.096154 609.001423 
z
" clip-path="url(#pd9828c9498)" style="fill: #6b010e; stroke: #00ff00; stroke-width: 3"/>
    <path d="M 89.461221 626.583693 
C 91.450244 626.583693 93.35807 625.793446 94.764522 624.386994 
C 96.170973 622.980542 96.961221 621.072717 96.961221 619.083693 
C 96.961221 617.09467 96.170973 615.186844 94.764522 613.780392 
C 93.35807 612.373941 91.450244 611.583693 89.461221 611.583693 
C 87.472197 611.583693 85.564372 612.373941 84.15792 613.780392 
C 82.751468 615.186844 81.961221 617.09467 81.961221 619.083693 
C 81.961221 621.072717 82.751468 622.980542 84.15792 624.386994 
C 85.564372 625.793446 87.472197 626.583693 89.461221 626.583693 
z
" clip-path="url(#pd9828c9498)" style="fill: #6b010e; stroke: #00ff00; stroke-width: 3"/>
    <path d="M 131.938779 626.583693 
C 133.927803 626.583693 135.835628 625.793446 137.24208 624.386994 
C 138.648532 622.980542 139.438779 621.072717 139.438779 619.083693 
C 139.438779 617.09467 138.648532 615.186844 137.24208 613.780392 
C 135.835628 612.373941 133.927803 611.583693 131.938779 611.583693 
C 129.949756 611.583693 128.04193 612.373941 126.635478 613.780392 
C 125.229027 615.186844 124.438779 617.09467 124.438779 619.083693 
C 124.438779 621.072717 125.229027 622.980542 126.635478 624.386994 
C 128.04193 625.793446 129.949756 626.583693 131.938779 626.583693 
z
" clip-path="url(#pd9828c9498)" style="fill: #6b010e; stroke: #00ff00; stroke-width: 3"/>
    <path d="M 166.303846 603.001423 
C 166.701651 603.001423 167.083216 602.843374 167.364506 602.562083 
C 167.645797 602.280793 167.803846 601.899228 167.803846 601.501423 
C 167.803846 601.103618 167.645797 600.722053 167.364506 600.440763 
C 167.083216 600.159473 166.701651 600.001423 166.303846 600.001423 
C 165.906041 600.001423 165.524476 600.159473 165.243186 600.440763 
C 164.961895 600.722053 164.803846 601.103618 164.803846 601.501423 
C 164.803846 601.899228 164.961895 602.280793 165.243186 602.562083 
C 165.524476 602.843374 165.906041 603.001423 166.303846 603.001423 
z
" clip-path="url(#pd9828c9498)" style="fill: #fdcab5; stroke: #00ff00; stroke-width: 3"/>
   </g>
   <g id="matplotlib.axis_7"/>
   <g id="matplotlib.axis_8"/>
  </g>
  <g id="axes_5">
   <g id="patch_6">
    <path d="M 27 768.96 
L 194.4 768.96 
L 194.4 654.256552 
L 27 654.256552 
z
" style="fill: #ffffff"/>
   </g>
   <g id="EdgeCollection_5">
    <path d="M 184.179708 716.269701 
C 204.414713 726.139416 204.414713 698.899986 184.179708 708.769701 
C 204.414713 698.899986 204.414713 726.139416 184.179708 716.269701 
" clip-path="url(#pf4ae33cc78)" style="fill: #ffffff"/>
    <path d="M 174.57525 705.694567 
L 165.346239 685.436018 
" clip-path="url(#pf4ae33cc78)" style="stroke: #000000; stroke-width: 2"/>
    <path d="M 172.332407 707.265663 
L 131.864741 667.539528 
" clip-path="url(#pf4ae33cc78)" style="fill: #ffffff"/>
    <path d="M 171.025468 709.069039 
L 95.5135 669.939383 
" clip-path="url(#pf4ae33cc78)" style="fill: #ffffff"/>
    <path d="M 170.378144 710.826506 
L 62.230759 685.764186 
" clip-path="url(#pf4ae33cc78)" style="fill: #ffffff"/>
    <path d="M 170.184517 712.519701 
L 43.464254 712.519701 
" clip-path="url(#pf4ae33cc78)" style="stroke: #000000; stroke-width: 1.158209"/>
    <path d="M 170.378144 714.212897 
L 62.230759 739.275217 
" clip-path="url(#pf4ae33cc78)" style="fill: #ffffff"/>
    <path d="M 171.025468 715.970364 
L 90.186261 757.86055 
" clip-path="url(#pf4ae33cc78)" style="fill: #ffffff"/>
    <path d="M 172.332407 717.773739 
L 131.864741 757.499875 
" clip-path="url(#pf4ae33cc78)" style="stroke: #000000; stroke-width: 0.889552"/>
    <path d="M 174.57525 719.344836 
L 165.346239 739.603385 
" clip-path="url(#pf4ae33cc78)" style="fill: #ffffff"/>
    <path d="M 166.182636 683.719558 
C 193.481578 675.52559 174.714065 655.783073 165.149161 682.632392 
C 174.714065 655.783073 193.481578 675.52559 166.182636 683.719558 
" clip-path="url(#pf4ae33cc78)" style="fill: #ffffff"/>
    <path d="M 163.392576 683.380858 
L 132.126129 667.178853 
" clip-path="url(#pf4ae33cc78)" style="fill: #ffffff"/>
    <path d="M 163.263111 683.732352 
L 96.160825 668.181916 
" clip-path="url(#pf4ae33cc78)" style="fill: #ffffff"/>
    <path d="M 163.224385 684.070991 
L 62.424386 684.070991 
" clip-path="url(#pf4ae33cc78)" style="fill: #ffffff"/>
    <path d="M 163.263111 684.40963 
L 43.425528 712.181062 
" clip-path="url(#pf4ae33cc78)" style="fill: #ffffff"/>
    <path d="M 163.392576 684.761123 
L 61.583434 737.51775 
" clip-path="url(#pf4ae33cc78)" style="fill: #ffffff"/>
    <path d="M 163.653963 685.121798 
L 89.924873 757.499875 
" clip-path="url(#pf4ae33cc78)" style="fill: #ffffff"/>
    <path d="M 164.102532 685.436018 
L 131.416173 757.185655 
" clip-path="url(#pf4ae33cc78)" style="stroke: #000000; stroke-width: 1.534328"/>
    <path d="M 164.724385 685.570991 
L 164.724385 739.468412 
" clip-path="url(#pf4ae33cc78)" style="fill: #ffffff"/>
    <path d="M 131.830575 665.404205 
C 150.355843 643.743462 123.890994 637.293788 130.373229 665.049039 
C 123.890994 637.293788 150.355843 643.743462 131.830575 665.404205 
" clip-path="url(#pf4ae33cc78)" style="fill: #ffffff"/>
    <path d="M 129.294319 666.488721 
L 96.354451 666.488721 
" clip-path="url(#pf4ae33cc78)" style="fill: #ffffff"/>
    <path d="M 129.333045 666.82736 
L 62.230759 682.377795 
" clip-path="url(#pf4ae33cc78)" style="fill: #ffffff"/>
    <path d="M 129.46251 667.178853 
L 43.296063 711.829569 
" clip-path="url(#pf4ae33cc78)" style="fill: #ffffff"/>
    <path d="M 129.723897 667.539528 
L 60.276496 735.714374 
" clip-path="url(#pf4ae33cc78)" style="fill: #ffffff"/>
    <path d="M 130.172466 667.853747 
L 89.476305 757.185655 
" clip-path="url(#pf4ae33cc78)" style="fill: #ffffff"/>
    <path d="M 130.794319 667.988721 
L 130.794319 757.050682 
" clip-path="url(#pf4ae33cc78)" style="fill: #ffffff"/>
    <path d="M 131.416173 667.853747 
L 164.102532 739.603385 
" clip-path="url(#pf4ae33cc78)" style="stroke: #000000; stroke-width: 0.913433"/>
    <path d="M 90.959904 659.290313 
C 95.757777 637.293788 69.292927 643.743462 83.673174 661.066142 
C 69.292927 643.743462 95.757777 637.293788 90.959904 659.290313 
" clip-path="url(#pf4ae33cc78)" style="fill: #ffffff"/>
    <path d="M 82.195403 669.939383 
L 61.583434 680.620329 
" clip-path="url(#pf4ae33cc78)" style="stroke: #000000; stroke-width: 1.158209"/>
    <path d="M 83.502341 671.742759 
L 43.034676 711.468894 
" clip-path="url(#pf4ae33cc78)" style="stroke: #000000; stroke-width: 1.050746"/>
    <path d="M 85.745184 673.313855 
L 58.033653 734.143278 
" clip-path="url(#pf4ae33cc78)" style="stroke: #000000; stroke-width: 1.110448"/>
    <path d="M 88.854451 673.988721 
L 88.854451 757.050682 
" clip-path="url(#pf4ae33cc78)" style="fill: #ffffff"/>
    <path d="M 91.963719 673.313855 
L 130.172466 757.185655 
" clip-path="url(#pf4ae33cc78)" style="fill: #ffffff"/>
    <path d="M 94.206562 671.742759 
L 163.653963 739.917604 
" clip-path="url(#pf4ae33cc78)" style="fill: #ffffff"/>
    <path d="M 52.800507 676.877998 
C 44.934706 655.783073 26.167193 675.52559 47.633132 682.313827 
C 26.167193 675.52559 44.934706 655.783073 52.800507 676.877998 
" clip-path="url(#pf4ae33cc78)" style="fill: #ffffff"/>
    <path d="M 51.815118 690.896125 
L 42.586107 711.154675 
" clip-path="url(#pf4ae33cc78)" style="fill: #ffffff"/>
    <path d="M 54.924386 691.570991 
L 54.924386 733.468412 
" clip-path="url(#pf4ae33cc78)" style="stroke: #000000; stroke-width: 1.068657"/>
    <path d="M 58.033653 690.896125 
L 88.232598 757.185655 
" clip-path="url(#pf4ae33cc78)" style="stroke: #000000; stroke-width: 1.068657"/>
    <path d="M 60.276496 689.325029 
L 129.723897 757.499875 
" clip-path="url(#pf4ae33cc78)" style="fill: #ffffff"/>
    <path d="M 61.583434 687.521653 
L 163.392576 740.27828 
" clip-path="url(#pf4ae33cc78)" style="fill: #ffffff"/>
    <path d="M 40.665215 711.769701 
C 15.234058 698.899986 15.234058 726.139416 40.665215 713.269701 
C 15.234058 726.139416 15.234058 698.899986 40.665215 711.769701 
" clip-path="url(#pf4ae33cc78)" style="fill: #ffffff"/>
    <path d="M 42.586107 713.884728 
L 51.815118 734.143278 
" clip-path="url(#pf4ae33cc78)" style="fill: #ffffff"/>
    <path d="M 43.034676 713.570509 
L 87.784029 757.499875 
" clip-path="url(#pf4ae33cc78)" style="fill: #ffffff"/>
    <path d="M 43.296063 713.209834 
L 129.46251 757.86055 
" clip-path="url(#pf4ae33cc78)" style="fill: #ffffff"/>
    <path d="M 43.425528 712.85834 
L 163.263111 740.629773 
" clip-path="url(#pf4ae33cc78)" style="fill: #ffffff"/>
    <path d="M 47.633132 742.725576 
C 26.167193 749.513813 44.934706 769.25633 52.800507 748.161405 
C 44.934706 769.25633 26.167193 749.513813 47.633132 742.725576 
" clip-path="url(#pf4ae33cc78)" style="fill: #ffffff"/>
    <path d="M 61.583434 744.419074 
L 87.522642 757.86055 
" clip-path="url(#pf4ae33cc78)" style="fill: #ffffff"/>
    <path d="M 62.230759 742.661608 
L 129.333045 758.212043 
" clip-path="url(#pf4ae33cc78)" style="fill: #ffffff"/>
    <path d="M 62.424386 740.968412 
L 163.224385 740.968412 
" clip-path="url(#pf4ae33cc78)" style="stroke: #000000; stroke-width: 0.937313"/>
    <path d="M 87.818196 759.635198 
C 69.292927 781.295941 95.757777 787.745615 89.275542 759.990364 
C 95.757777 787.745615 69.292927 781.295941 87.818196 759.635198 
" clip-path="url(#pf4ae33cc78)" style="fill: #ffffff"/>
    <path d="M 90.354451 758.550682 
L 129.294319 758.550682 
" clip-path="url(#pf4ae33cc78)" style="fill: #ffffff"/>
    <path d="M 90.315726 758.212043 
L 163.263111 741.307051 
" clip-path="url(#pf4ae33cc78)" style="fill: #ffffff"/>
    <path d="M 130.373229 759.990364 
C 123.890994 787.745615 150.355843 781.295941 131.830575 759.635198 
C 150.355843 781.295941 123.890994 787.745615 130.373229 759.990364 
" clip-path="url(#pf4ae33cc78)" style="fill: #ffffff"/>
    <path d="M 132.126129 757.86055 
L 163.392576 741.658545 
" clip-path="url(#pf4ae33cc78)" style="fill: #ffffff"/>
    <path d="M 165.149161 742.407011 
C 174.714065 769.25633 193.481578 749.513813 166.182636 741.319845 
C 193.481578 749.513813 174.714065 769.25633 165.149161 742.407011 
" clip-path="url(#pf4ae33cc78)" style="fill: #ffffff"/>
   </g>
   <g id="VertexCollection_5">
    <path d="M 177.684517 720.019701 
C 179.67354 720.019701 181.581366 719.229454 182.987818 717.823002 
C 184.39427 716.41655 185.184517 714.508725 185.184517 712.519701 
C 185.184517 710.530678 184.39427 708.622852 182.987818 707.216401 
C 181.581366 705.809949 179.67354 705.019701 177.684517 705.019701 
C 175.695494 705.019701 173.787668 705.809949 172.381216 707.216401 
C 170.974765 708.622852 170.184517 710.530678 170.184517 712.519701 
C 170.184517 714.508725 170.974765 716.41655 172.381216 717.823002 
C 173.787668 719.229454 175.695494 720.019701 177.684517 720.019701 
z
" clip-path="url(#pf4ae33cc78)" style="fill: #6b010e; stroke: #ff0000; stroke-width: 3"/>
    <path d="M 164.724385 685.570991 
C 165.12219 685.570991 165.503755 685.412941 165.785045 685.131651 
C 166.066336 684.85036 166.224385 684.468795 166.224385 684.070991 
C 166.224385 683.673186 166.066336 683.291621 165.785045 683.01033 
C 165.503755 682.72904 165.12219 682.570991 164.724385 682.570991 
C 164.326581 682.570991 163.945015 682.72904 163.663725 683.01033 
C 163.382435 683.291621 163.224385 683.673186 163.224385 684.070991 
C 163.224385 684.468795 163.382435 684.85036 163.663725 685.131651 
C 163.945015 685.412941 164.326581 685.570991 164.724385 685.570991 
z
" clip-path="url(#pf4ae33cc78)" style="fill: #fdcab5; stroke: #00ff00; stroke-width: 3"/>
    <path d="M 130.794319 667.988721 
C 131.192124 667.988721 131.573689 667.830671 131.85498 667.549381 
C 132.13627 667.26809 132.294319 666.886525 132.294319 666.488721 
C 132.294319 666.090916 132.13627 665.709351 131.85498 665.42806 
C 131.573689 665.14677 131.192124 664.988721 130.794319 664.988721 
C 130.396515 664.988721 130.01495 665.14677 129.733659 665.42806 
C 129.452369 665.709351 129.294319 666.090916 129.294319 666.488721 
C 129.294319 666.886525 129.452369 667.26809 129.733659 667.549381 
C 130.01495 667.830671 130.396515 667.988721 130.794319 667.988721 
z
" clip-path="url(#pf4ae33cc78)" style="fill: #fdcab5; stroke: #00ff00; stroke-width: 3"/>
    <path d="M 88.854451 673.988721 
C 90.843475 673.988721 92.7513 673.198473 94.157752 671.792021 
C 95.564204 670.38557 96.354451 668.477744 96.354451 666.488721 
C 96.354451 664.499697 95.564204 662.591871 94.157752 661.18542 
C 92.7513 659.778968 90.843475 658.988721 88.854451 658.988721 
C 86.865428 658.988721 84.957602 659.778968 83.551151 661.18542 
C 82.144699 662.591871 81.354451 664.499697 81.354451 666.488721 
C 81.354451 668.477744 82.144699 670.38557 83.551151 671.792021 
C 84.957602 673.198473 86.865428 673.988721 88.854451 673.988721 
z
" clip-path="url(#pf4ae33cc78)" style="fill: #6b010e; stroke: #00ff00; stroke-width: 3"/>
    <path d="M 54.924386 691.570991 
C 56.913409 691.570991 58.821235 690.780743 60.227686 689.374292 
C 61.634138 687.96784 62.424386 686.060014 62.424386 684.070991 
C 62.424386 682.081967 61.634138 680.174142 60.227686 678.76769 
C 58.821235 677.361238 56.913409 676.570991 54.924386 676.570991 
C 52.935362 676.570991 51.027536 677.361238 49.621085 678.76769 
C 48.214633 680.174142 47.424386 682.081967 47.424386 684.070991 
C 47.424386 686.060014 48.214633 687.96784 49.621085 689.374292 
C 51.027536 690.780743 52.935362 691.570991 54.924386 691.570991 
z
" clip-path="url(#pf4ae33cc78)" style="fill: #6b010e; stroke: #00ff00; stroke-width: 3"/>
    <path d="M 41.964254 714.019701 
C 42.362058 714.019701 42.743623 713.861652 43.024914 713.580362 
C 43.306204 713.299071 43.464254 712.917506 43.464254 712.519701 
C 43.464254 712.121897 43.306204 711.740332 43.024914 711.459041 
C 42.743623 711.177751 42.362058 711.019701 41.964254 711.019701 
C 41.566449 711.019701 41.184884 711.177751 40.903593 711.459041 
C 40.622303 711.740332 40.464254 712.121897 40.464254 712.519701 
C 40.464254 712.917506 40.622303 713.299071 40.903593 713.580362 
C 41.184884 713.861652 41.566449 714.019701 41.964254 714.019701 
z
" clip-path="url(#pf4ae33cc78)" style="fill: #fdcab5; stroke: #ff0000; stroke-width: 3"/>
    <path d="M 54.924386 748.468412 
C 56.913409 748.468412 58.821235 747.678165 60.227686 746.271713 
C 61.634138 744.865261 62.424386 742.957435 62.424386 740.968412 
C 62.424386 738.979389 61.634138 737.071563 60.227686 735.665111 
C 58.821235 734.258659 56.913409 733.468412 54.924386 733.468412 
C 52.935362 733.468412 51.027536 734.258659 49.621085 735.665111 
C 48.214633 737.071563 47.424386 738.979389 47.424386 740.968412 
C 47.424386 742.957435 48.214633 744.865261 49.621085 746.271713 
C 51.027536 747.678165 52.935362 748.468412 54.924386 748.468412 
z
" clip-path="url(#pf4ae33cc78)" style="fill: #6b010e; stroke: #00ff00; stroke-width: 3"/>
    <path d="M 88.854451 760.050682 
C 89.252256 760.050682 89.633821 759.892633 89.915112 759.611342 
C 90.196402 759.330052 90.354451 758.948487 90.354451 758.550682 
C 90.354451 758.152878 90.196402 757.771312 89.915112 757.490022 
C 89.633821 757.208732 89.252256 757.050682 88.854451 757.050682 
C 88.456647 757.050682 88.075082 757.208732 87.793791 757.490022 
C 87.512501 757.771312 87.354451 758.152878 87.354451 758.550682 
C 87.354451 758.948487 87.512501 759.330052 87.793791 759.611342 
C 88.075082 759.892633 88.456647 760.050682 88.854451 760.050682 
z
" clip-path="url(#pf4ae33cc78)" style="fill: #fdcab5; stroke: #00ff00; stroke-width: 3"/>
    <path d="M 130.794319 760.050682 
C 131.192124 760.050682 131.573689 759.892633 131.85498 759.611342 
C 132.13627 759.330052 132.294319 758.948487 132.294319 758.550682 
C 132.294319 758.152878 132.13627 757.771312 131.85498 757.490022 
C 131.573689 757.208732 131.192124 757.050682 130.794319 757.050682 
C 130.396515 757.050682 130.01495 757.208732 129.733659 757.490022 
C 129.452369 757.771312 129.294319 758.152878 129.294319 758.550682 
C 129.294319 758.948487 129.452369 759.330052 129.733659 759.611342 
C 130.01495 759.892633 130.396515 760.050682 130.794319 760.050682 
z
" clip-path="url(#pf4ae33cc78)" style="fill: #fdcab5; stroke: #00ff00; stroke-width: 3"/>
    <path d="M 164.724385 742.468412 
C 165.12219 742.468412 165.503755 742.310363 165.785045 742.029072 
C 166.066336 741.747782 166.224385 741.366217 166.224385 740.968412 
C 166.224385 740.570607 166.066336 740.189042 165.785045 739.907752 
C 165.503755 739.626462 165.12219 739.468412 164.724385 739.468412 
C 164.326581 739.468412 163.945015 739.626462 163.663725 739.907752 
C 163.382435 740.189042 163.224385 740.570607 163.224385 740.968412 
C 163.224385 741.366217 163.382435 741.747782 163.663725 742.029072 
C 163.945015 742.310363 164.326581 742.468412 164.724385 742.468412 
z
" clip-path="url(#pf4ae33cc78)" style="fill: #fdcab5; stroke: #00ff00; stroke-width: 3"/>
   </g>
   <g id="matplotlib.axis_9"/>
   <g id="matplotlib.axis_10"/>
  </g>
 </g>
 <defs>
  <clipPath id="p919744cab1">
   <rect x="27" y="103.68" width="167.4" height="114.703448"/>
  </clipPath>
  <clipPath id="pa07d4ebecd">
   <rect x="27" y="241.324138" width="167.4" height="114.703448"/>
  </clipPath>
  <clipPath id="p83ee2a1e85">
   <rect x="27" y="378.968276" width="167.4" height="114.703448"/>
  </clipPath>
  <clipPath id="pd9828c9498">
   <rect x="27" y="516.612414" width="167.4" height="114.703448"/>
  </clipPath>
  <clipPath id="pf4ae33cc78">
   <rect x="27" y="654.256552" width="167.4" height="114.703448"/>
  </clipPath>
 </defs>
</svg>
