<?xml version="1.0" encoding="utf-8" standalone="no"?>
<!DOCTYPE svg PUBLIC "-//W3C//DTD SVG 1.1//EN"
  "http://www.w3.org/Graphics/SVG/1.1/DTD/svg11.dtd">
<svg xmlns:xlink="http://www.w3.org/1999/xlink" width="144pt" height="144pt" viewBox="0 0 144 144" xmlns="http://www.w3.org/2000/svg" version="1.1">
 <metadata>
  <rdf:RDF xmlns:dc="http://purl.org/dc/elements/1.1/" xmlns:cc="http://creativecommons.org/ns#" xmlns:rdf="http://www.w3.org/1999/02/22-rdf-syntax-ns#">
   <cc:Work>
    <dc:type rdf:resource="http://purl.org/dc/dcmitype/StillImage"/>
    <dc:date>2025-06-03T17:18:16.795415</dc:date>
    <dc:format>image/svg+xml</dc:format>
    <dc:creator>
     <cc:Agent>
      <dc:title>Matplotlib v3.9.2, https://matplotlib.org/</dc:title>
     </cc:Agent>
    </dc:creator>
   </cc:Work>
  </rdf:RDF>
 </metadata>
 <defs>
  <style type="text/css">*{stroke-linejoin: round; stroke-linecap: butt}</style>
 </defs>
 <g id="figure_1">
  <g id="patch_1">
   <path d="M 0 144 
L 144 144 
L 144 0 
L 0 0 
z
" style="fill: #ffffff"/>
  </g>
  <g id="axes_1">
   <g id="patch_2">
    <path d="M 18 128.16 
L 129.6 128.16 
L 129.6 17.28 
L 18 17.28 
z
" style="fill: #ffffff"/>
   </g>
   <g id="matplotlib.axis_1">
    <g id="xtick_1">
     <g id="line2d_1">
      <defs>
       <path id="m4bc8fa3203" d="M 0 0 
L 0 3.5 
" style="stroke: #000000; stroke-width: 0.8"/>
      </defs>
      <g>
       <use xlink:href="#m4bc8fa3203" x="18" y="128.16" style="stroke: #000000; stroke-width: 0.8"/>
      </g>
     </g>
     <g id="text_1">
      <!-- 0.0 -->
      <g transform="translate(10.048437 142.758438) scale(0.1 -0.1)">
       <defs>
        <path id="DejaVuSerif-30" d="M 2034 219 
Q 2513 219 2750 744 
Q 2988 1269 2988 2328 
Q 2988 3391 2750 3916 
Q 2513 4441 2034 4441 
Q 1556 4441 1318 3916 
Q 1081 3391 1081 2328 
Q 1081 1269 1318 744 
Q 1556 219 2034 219 
z
M 2034 -91 
Q 1275 -91 848 546 
Q 422 1184 422 2328 
Q 422 3475 848 4112 
Q 1275 4750 2034 4750 
Q 2797 4750 3222 4112 
Q 3647 3475 3647 2328 
Q 3647 1184 3222 546 
Q 2797 -91 2034 -91 
z
" transform="scale(0.015625)"/>
        <path id="DejaVuSerif-2e" d="M 603 325 
Q 603 500 722 622 
Q 841 744 1019 744 
Q 1191 744 1312 622 
Q 1434 500 1434 325 
Q 1434 153 1312 31 
Q 1191 -91 1019 -91 
Q 841 -91 722 29 
Q 603 150 603 325 
z
" transform="scale(0.015625)"/>
       </defs>
       <use xlink:href="#DejaVuSerif-30"/>
       <use xlink:href="#DejaVuSerif-2e" x="63.623047"/>
       <use xlink:href="#DejaVuSerif-30" x="95.410156"/>
      </g>
     </g>
    </g>
    <g id="xtick_2">
     <g id="line2d_2">
      <g>
       <use xlink:href="#m4bc8fa3203" x="73.8" y="128.16" style="stroke: #000000; stroke-width: 0.8"/>
      </g>
     </g>
     <g id="text_2">
      <!-- 0.5 -->
      <g transform="translate(65.848438 142.758438) scale(0.1 -0.1)">
       <defs>
        <path id="DejaVuSerif-35" d="M 3219 4666 
L 3219 4153 
L 1081 4153 
L 1081 2816 
Q 1244 2928 1461 2984 
Q 1678 3041 1947 3041 
Q 2703 3041 3140 2622 
Q 3578 2203 3578 1478 
Q 3578 738 3136 323 
Q 2694 -91 1894 -91 
Q 1572 -91 1234 -12 
Q 897 66 544 225 
L 544 1131 
L 897 1131 
Q 925 688 1179 453 
Q 1434 219 1894 219 
Q 2388 219 2653 544 
Q 2919 869 2919 1478 
Q 2919 2084 2655 2407 
Q 2391 2731 1894 2731 
Q 1613 2731 1398 2631 
Q 1184 2531 1019 2322 
L 750 2322 
L 750 4666 
L 3219 4666 
z
" transform="scale(0.015625)"/>
       </defs>
       <use xlink:href="#DejaVuSerif-30"/>
       <use xlink:href="#DejaVuSerif-2e" x="63.623047"/>
       <use xlink:href="#DejaVuSerif-35" x="95.410156"/>
      </g>
     </g>
    </g>
    <g id="xtick_3">
     <g id="line2d_3">
      <g>
       <use xlink:href="#m4bc8fa3203" x="129.6" y="128.16" style="stroke: #000000; stroke-width: 0.8"/>
      </g>
     </g>
     <g id="text_3">
      <!-- 1.0 -->
      <g transform="translate(121.648438 142.758438) scale(0.1 -0.1)">
       <defs>
        <path id="DejaVuSerif-31" d="M 909 0 
L 909 331 
L 1722 331 
L 1722 4213 
L 781 3603 
L 781 4013 
L 1919 4750 
L 2350 4750 
L 2350 331 
L 3163 331 
L 3163 0 
L 909 0 
z
" transform="scale(0.015625)"/>
       </defs>
       <use xlink:href="#DejaVuSerif-31"/>
       <use xlink:href="#DejaVuSerif-2e" x="63.623047"/>
       <use xlink:href="#DejaVuSerif-30" x="95.410156"/>
      </g>
     </g>
    </g>
   </g>
   <g id="matplotlib.axis_2">
    <g id="ytick_1">
     <g id="line2d_4">
      <defs>
       <path id="m70b3396a45" d="M 0 0 
L -3.5 0 
" style="stroke: #000000; stroke-width: 0.8"/>
      </defs>
      <g>
       <use xlink:href="#m70b3396a45" x="18" y="128.16" style="stroke: #000000; stroke-width: 0.8"/>
      </g>
     </g>
     <g id="text_4">
      <!-- 0.0 -->
      <g transform="translate(-4.903125 131.959219) scale(0.1 -0.1)">
       <use xlink:href="#DejaVuSerif-30"/>
       <use xlink:href="#DejaVuSerif-2e" x="63.623047"/>
       <use xlink:href="#DejaVuSerif-30" x="95.410156"/>
      </g>
     </g>
    </g>
    <g id="ytick_2">
     <g id="line2d_5">
      <g>
       <use xlink:href="#m70b3396a45" x="18" y="105.984" style="stroke: #000000; stroke-width: 0.8"/>
      </g>
     </g>
     <g id="text_5">
      <!-- 0.2 -->
      <g transform="translate(-4.903125 109.783219) scale(0.1 -0.1)">
       <defs>
        <path id="DejaVuSerif-32" d="M 819 3553 
L 469 3553 
L 469 4384 
Q 803 4563 1142 4656 
Q 1481 4750 1806 4750 
Q 2534 4750 2956 4397 
Q 3378 4044 3378 3438 
Q 3378 2753 2422 1800 
Q 2347 1728 2309 1691 
L 1131 513 
L 3078 513 
L 3078 1088 
L 3444 1088 
L 3444 0 
L 434 0 
L 434 341 
L 1850 1753 
Q 2319 2222 2519 2614 
Q 2719 3006 2719 3438 
Q 2719 3909 2473 4175 
Q 2228 4441 1797 4441 
Q 1350 4441 1106 4219 
Q 863 3997 819 3553 
z
" transform="scale(0.015625)"/>
       </defs>
       <use xlink:href="#DejaVuSerif-30"/>
       <use xlink:href="#DejaVuSerif-2e" x="63.623047"/>
       <use xlink:href="#DejaVuSerif-32" x="95.410156"/>
      </g>
     </g>
    </g>
    <g id="ytick_3">
     <g id="line2d_6">
      <g>
       <use xlink:href="#m70b3396a45" x="18" y="83.808" style="stroke: #000000; stroke-width: 0.8"/>
      </g>
     </g>
     <g id="text_6">
      <!-- 0.4 -->
      <g transform="translate(-4.903125 87.607219) scale(0.1 -0.1)">
       <defs>
        <path id="DejaVuSerif-34" d="M 2234 1581 
L 2234 4063 
L 641 1581 
L 2234 1581 
z
M 3609 0 
L 1484 0 
L 1484 331 
L 2234 331 
L 2234 1247 
L 197 1247 
L 197 1588 
L 2241 4750 
L 2859 4750 
L 2859 1581 
L 3750 1581 
L 3750 1247 
L 2859 1247 
L 2859 331 
L 3609 331 
L 3609 0 
z
" transform="scale(0.015625)"/>
       </defs>
       <use xlink:href="#DejaVuSerif-30"/>
       <use xlink:href="#DejaVuSerif-2e" x="63.623047"/>
       <use xlink:href="#DejaVuSerif-34" x="95.410156"/>
      </g>
     </g>
    </g>
    <g id="ytick_4">
     <g id="line2d_7">
      <g>
       <use xlink:href="#m70b3396a45" x="18" y="61.632" style="stroke: #000000; stroke-width: 0.8"/>
      </g>
     </g>
     <g id="text_7">
      <!-- 0.6 -->
      <g transform="translate(-4.903125 65.431219) scale(0.1 -0.1)">
       <defs>
        <path id="DejaVuSerif-36" d="M 2094 219 
Q 2534 219 2771 542 
Q 3009 866 3009 1472 
Q 3009 2078 2771 2401 
Q 2534 2725 2094 2725 
Q 1647 2725 1412 2412 
Q 1178 2100 1178 1509 
Q 1178 888 1415 553 
Q 1653 219 2094 219 
z
M 1075 2569 
Q 1288 2803 1556 2918 
Q 1825 3034 2163 3034 
Q 2859 3034 3264 2615 
Q 3669 2197 3669 1472 
Q 3669 763 3233 336 
Q 2797 -91 2069 -91 
Q 1278 -91 853 498 
Q 428 1088 428 2181 
Q 428 3406 931 4078 
Q 1434 4750 2350 4750 
Q 2597 4750 2869 4703 
Q 3141 4656 3425 4563 
L 3425 3794 
L 3072 3794 
Q 3034 4109 2831 4275 
Q 2628 4441 2284 4441 
Q 1678 4441 1381 3981 
Q 1084 3522 1075 2569 
z
" transform="scale(0.015625)"/>
       </defs>
       <use xlink:href="#DejaVuSerif-30"/>
       <use xlink:href="#DejaVuSerif-2e" x="63.623047"/>
       <use xlink:href="#DejaVuSerif-36" x="95.410156"/>
      </g>
     </g>
    </g>
    <g id="ytick_5">
     <g id="line2d_8">
      <g>
       <use xlink:href="#m70b3396a45" x="18" y="39.456" style="stroke: #000000; stroke-width: 0.8"/>
      </g>
     </g>
     <g id="text_8">
      <!-- 0.8 -->
      <g transform="translate(-4.903125 43.255219) scale(0.1 -0.1)">
       <defs>
        <path id="DejaVuSerif-38" d="M 2981 1275 
Q 2981 1775 2732 2051 
Q 2484 2328 2034 2328 
Q 1584 2328 1336 2051 
Q 1088 1775 1088 1275 
Q 1088 772 1336 495 
Q 1584 219 2034 219 
Q 2484 219 2732 495 
Q 2981 772 2981 1275 
z
M 2853 3541 
Q 2853 3966 2637 4203 
Q 2422 4441 2034 4441 
Q 1650 4441 1433 4203 
Q 1216 3966 1216 3541 
Q 1216 3113 1433 2875 
Q 1650 2638 2034 2638 
Q 2422 2638 2637 2875 
Q 2853 3113 2853 3541 
z
M 2516 2484 
Q 3047 2413 3344 2092 
Q 3641 1772 3641 1275 
Q 3641 619 3225 264 
Q 2809 -91 2034 -91 
Q 1263 -91 845 264 
Q 428 619 428 1275 
Q 428 1772 725 2092 
Q 1022 2413 1556 2484 
Q 1084 2569 832 2842 
Q 581 3116 581 3541 
Q 581 4103 968 4426 
Q 1356 4750 2034 4750 
Q 2713 4750 3100 4426 
Q 3488 4103 3488 3541 
Q 3488 3116 3236 2842 
Q 2984 2569 2516 2484 
z
" transform="scale(0.015625)"/>
       </defs>
       <use xlink:href="#DejaVuSerif-30"/>
       <use xlink:href="#DejaVuSerif-2e" x="63.623047"/>
       <use xlink:href="#DejaVuSerif-38" x="95.410156"/>
      </g>
     </g>
    </g>
    <g id="ytick_6">
     <g id="line2d_9">
      <g>
       <use xlink:href="#m70b3396a45" x="18" y="17.28" style="stroke: #000000; stroke-width: 0.8"/>
      </g>
     </g>
     <g id="text_9">
      <!-- 1.0 -->
      <g transform="translate(-4.903125 21.079219) scale(0.1 -0.1)">
       <use xlink:href="#DejaVuSerif-31"/>
       <use xlink:href="#DejaVuSerif-2e" x="63.623047"/>
       <use xlink:href="#DejaVuSerif-30" x="95.410156"/>
      </g>
     </g>
    </g>
   </g>
   <g id="patch_3">
    <path d="M 18 128.16 
L 18 17.28 
" style="fill: none; stroke: #000000; stroke-width: 0.8; stroke-linejoin: miter; stroke-linecap: square"/>
   </g>
   <g id="patch_4">
    <path d="M 129.6 128.16 
L 129.6 17.28 
" style="fill: none; stroke: #000000; stroke-width: 0.8; stroke-linejoin: miter; stroke-linecap: square"/>
   </g>
   <g id="patch_5">
    <path d="M 18 128.16 
L 129.6 128.16 
" style="fill: none; stroke: #000000; stroke-width: 0.8; stroke-linejoin: miter; stroke-linecap: square"/>
   </g>
   <g id="patch_6">
    <path d="M 18 17.28 
L 129.6 17.28 
" style="fill: none; stroke: #000000; stroke-width: 0.8; stroke-linejoin: miter; stroke-linecap: square"/>
   </g>
  </g>
  <g id="patch_7">
   <path d="M 18.36 128.16 
L 129.24 128.16 
L 129.24 17.28 
L 18.36 17.28 
z
" style="fill: #ffffff"/>
  </g>
  <g id="axes_2">
   <g id="patch_8">
    <path d="M 87.998167 80.628656 
Q 71.190282 81.741211 54.382397 82.853767 
" clip-path="url(#pd30ca3d3e0)" style="fill: none; opacity: 0.83045; stroke: #6a6a6a; stroke-width: 0.6609; stroke-linecap: round"/>
   </g>
   <g id="Path3DCollection_1">
    <path d="M 82.036969 75.69158 
C 82.130732 75.69158 82.220668 75.654328 82.286969 75.588027 
C 82.35327 75.521726 82.390522 75.431791 82.390522 75.338027 
C 82.390522 75.244264 82.35327 75.154328 82.286969 75.088027 
C 82.220668 75.021726 82.130732 74.984474 82.036969 74.984474 
C 81.943205 74.984474 81.85327 75.021726 81.786969 75.088027 
C 81.720668 75.154328 81.683415 75.244264 81.683415 75.338027 
C 81.683415 75.431791 81.720668 75.521726 81.786969 75.588027 
C 81.85327 75.654328 81.943205 75.69158 82.036969 75.69158 
z
" clip-path="url(#pd30ca3d3e0)" style="fill: #fff5f0; stroke: #ff0000; stroke-width: 2"/>
    <path d="M 63.769997 76.881398 
C 63.863761 76.881398 63.953697 76.844145 64.019997 76.777844 
C 64.086298 76.711543 64.123551 76.621608 64.123551 76.527844 
C 64.123551 76.434081 64.086298 76.344145 64.019997 76.277844 
C 63.953697 76.211543 63.863761 76.174291 63.769997 76.174291 
C 63.676234 76.174291 63.586298 76.211543 63.519997 76.277844 
C 63.453697 76.344145 63.416444 76.434081 63.416444 76.527844 
C 63.416444 76.621608 63.453697 76.711543 63.519997 76.777844 
C 63.586298 76.844145 63.676234 76.881398 63.769997 76.881398 
z
" clip-path="url(#pd30ca3d3e0)" style="fill: #fff5f0; stroke: #00ff00; stroke-width: 2"/>
    <path d="M 97.976735 83.503683 
C 98.91437 83.503683 99.813727 83.131157 100.476735 82.46815 
C 101.139743 81.805142 101.512269 80.905784 101.512269 79.96815 
C 101.512269 79.030515 101.139743 78.131157 100.476735 77.46815 
C 99.813727 76.805142 98.91437 76.432616 97.976735 76.432616 
C 97.0391 76.432616 96.139743 76.805142 95.476735 77.46815 
C 94.813727 78.131157 94.441201 79.030515 94.441201 79.96815 
C 94.441201 80.905784 94.813727 81.805142 95.476735 82.46815 
C 96.139743 83.131157 97.0391 83.503683 97.976735 83.503683 
z
" clip-path="url(#pd30ca3d3e0)" style="fill: #67000d; stroke: #ff0000; stroke-width: 2"/>
    <path d="M 49.391636 86.719652 
C 50.32927 86.719652 51.228628 86.347126 51.891636 85.684118 
C 52.554643 85.02111 52.927169 84.121753 52.927169 83.184118 
C 52.927169 82.246483 52.554643 81.347126 51.891636 80.684118 
C 51.228628 80.02111 50.32927 79.648584 49.391636 79.648584 
C 48.454001 79.648584 47.554643 80.02111 46.891636 80.684118 
C 46.228628 81.347126 45.856102 82.246483 45.856102 83.184118 
C 45.856102 84.121753 46.228628 85.02111 46.891636 85.684118 
C 47.554643 86.347126 48.454001 86.719652 49.391636 86.719652 
z
" clip-path="url(#pd30ca3d3e0)" style="fill: #67000d; stroke: #00ff00; stroke-width: 2"/>
    <path d="M 105.914786 89.354064 
C 106.00855 89.354064 106.098485 89.316812 106.164786 89.250511 
C 106.231087 89.18421 106.268339 89.094274 106.268339 89.000511 
C 106.268339 88.906747 106.231087 88.816812 106.164786 88.750511 
C 106.098485 88.68421 106.00855 88.646957 105.914786 88.646957 
C 105.821023 88.646957 105.731087 88.68421 105.664786 88.750511 
C 105.598485 88.816812 105.561233 88.906747 105.561233 89.000511 
C 105.561233 89.094274 105.598485 89.18421 105.664786 89.250511 
C 105.731087 89.316812 105.821023 89.354064 105.914786 89.354064 
z
" clip-path="url(#pd30ca3d3e0)" style="fill: #fff5f0; stroke: #00ff00; stroke-width: 2"/>
    <path d="M 44.273099 93.544363 
C 44.366863 93.544363 44.456799 93.507111 44.523099 93.44081 
C 44.5894 93.374509 44.626653 93.284573 44.626653 93.19081 
C 44.626653 93.097046 44.5894 93.007111 44.523099 92.94081 
C 44.456799 92.874509 44.366863 92.837256 44.273099 92.837256 
C 44.179336 92.837256 44.0894 92.874509 44.023099 92.94081 
C 43.956799 93.007111 43.919546 93.097046 43.919546 93.19081 
C 43.919546 93.284573 43.956799 93.374509 44.023099 93.44081 
C 44.0894 93.507111 44.179336 93.544363 44.273099 93.544363 
z
" clip-path="url(#pd30ca3d3e0)" style="fill: #fff5f0; stroke: #ff0000; stroke-width: 2"/>
    <path d="M 102.317046 99.69325 
C 102.410809 99.69325 102.500745 99.655997 102.567046 99.589697 
C 102.633347 99.523396 102.670599 99.43346 102.670599 99.339697 
C 102.670599 99.245933 102.633347 99.155997 102.567046 99.089697 
C 102.500745 99.023396 102.410809 98.986143 102.317046 98.986143 
C 102.223282 98.986143 102.133347 99.023396 102.067046 99.089697 
C 102.000745 99.155997 101.963492 99.245933 101.963492 99.339697 
C 101.963492 99.43346 102.000745 99.523396 102.067046 99.589697 
C 102.133347 99.655997 102.223282 99.69325 102.317046 99.69325 
z
" clip-path="url(#pd30ca3d3e0)" style="fill: #fff5f0; stroke: #ff0000; stroke-width: 2"/>
    <path d="M 51.095278 103.271766 
C 51.189042 103.271766 51.278977 103.234513 51.345278 103.168212 
C 51.411579 103.101911 51.448832 103.011976 51.448832 102.918212 
C 51.448832 102.824449 51.411579 102.734513 51.345278 102.668212 
C 51.278977 102.601911 51.189042 102.564659 51.095278 102.564659 
C 51.001515 102.564659 50.911579 102.601911 50.845278 102.668212 
C 50.778977 102.734513 50.741725 102.824449 50.741725 102.918212 
C 50.741725 103.011976 50.778977 103.101911 50.845278 103.168212 
C 50.911579 103.234513 51.001515 103.271766 51.095278 103.271766 
z
" clip-path="url(#pd30ca3d3e0)" style="fill: #fff5f0; stroke: #00ff00; stroke-width: 2"/>
    <path d="M 87.764928 107.251234 
C 87.858692 107.251234 87.948627 107.213982 88.014928 107.147681 
C 88.081229 107.08138 88.118482 106.991444 88.118482 106.897681 
C 88.118482 106.803918 88.081229 106.713982 88.014928 106.647681 
C 87.948627 106.58138 87.858692 106.544128 87.764928 106.544128 
C 87.671165 106.544128 87.581229 106.58138 87.514928 106.647681 
C 87.448627 106.713982 87.411375 106.803918 87.411375 106.897681 
C 87.411375 106.991444 87.448627 107.08138 87.514928 107.147681 
C 87.581229 107.213982 87.671165 107.251234 87.764928 107.251234 
z
" clip-path="url(#pd30ca3d3e0)" style="fill: #fff5f0; stroke: #00ff00; stroke-width: 2"/>
    <path d="M 67.86666 111.847611 
C 68.804295 111.847611 69.703652 111.475085 70.36666 110.812077 
C 71.029668 110.149069 71.402194 109.249711 71.402194 108.312077 
C 71.402194 107.374442 71.029668 106.475085 70.36666 105.812077 
C 69.703652 105.149069 68.804295 104.776543 67.86666 104.776543 
C 66.929025 104.776543 66.029668 105.149069 65.36666 105.812077 
C 64.703652 106.475085 64.331126 107.374442 64.331126 108.312077 
C 64.331126 109.249711 64.703652 110.149069 65.36666 110.812077 
C 66.029668 111.475085 66.929025 111.847611 67.86666 111.847611 
z
" clip-path="url(#pd30ca3d3e0)" style="fill: #67000d; stroke: #00ff00; stroke-width: 2"/>
   </g>
   <g id="patch_9">
    <path d="M 59.370204 82.523612 
Q 76.178089 81.411056 92.985974 80.2985 
" clip-path="url(#pd30ca3d3e0)" style="fill: none; opacity: 0.83045; stroke: #6a6a6a; stroke-width: 0.6609; stroke-linecap: round"/>
   </g>
   <g id="Path3DCollection_2">
    <path d="M 82.099153 66.1499 
C 82.192916 66.1499 82.282852 66.112647 82.349153 66.046346 
C 82.415453 65.980045 82.452706 65.89011 82.452706 65.796346 
C 82.452706 65.702583 82.415453 65.612647 82.349153 65.546346 
C 82.282852 65.480045 82.192916 65.442793 82.099153 65.442793 
C 82.005389 65.442793 81.915453 65.480045 81.849153 65.546346 
C 81.782852 65.612647 81.745599 65.702583 81.745599 65.796346 
C 81.745599 65.89011 81.782852 65.980045 81.849153 66.046346 
C 81.915453 66.112647 82.005389 66.1499 82.099153 66.1499 
z
" clip-path="url(#pd30ca3d3e0)" style="fill: #f7fbff; stroke: #ff0000; stroke-width: 2"/>
    <path d="M 63.663248 67.318011 
C 63.757012 67.318011 63.846948 67.280758 63.913248 67.214458 
C 63.979549 67.148157 64.016802 67.058221 64.016802 66.964458 
C 64.016802 66.870694 63.979549 66.780758 63.913248 66.714458 
C 63.846948 66.648157 63.757012 66.610904 63.663248 66.610904 
C 63.569485 66.610904 63.479549 66.648157 63.413248 66.714458 
C 63.346948 66.780758 63.309695 66.870694 63.309695 66.964458 
C 63.309695 67.058221 63.346948 67.148157 63.413248 67.214458 
C 63.479549 67.280758 63.569485 67.318011 63.663248 67.318011 
z
" clip-path="url(#pd30ca3d3e0)" style="fill: #f7fbff; stroke: #00ff00; stroke-width: 2"/>
    <path d="M 98.188804 70.695968 
C 98.282568 70.695968 98.372504 70.658715 98.438804 70.592415 
C 98.505105 70.526114 98.542358 70.436178 98.542358 70.342415 
C 98.542358 70.248651 98.505105 70.158715 98.438804 70.092415 
C 98.372504 70.026114 98.282568 69.988861 98.188804 69.988861 
C 98.095041 69.988861 98.005105 70.026114 97.938804 70.092415 
C 97.872504 70.158715 97.835251 70.248651 97.835251 70.342415 
C 97.835251 70.436178 97.872504 70.526114 97.938804 70.592415 
C 98.005105 70.658715 98.095041 70.695968 98.188804 70.695968 
z
" clip-path="url(#pd30ca3d3e0)" style="fill: #f7fbff; stroke: #ff0000; stroke-width: 2"/>
    <path d="M 49.14716 77.036188 
C 50.084795 77.036188 50.984152 76.663662 51.64716 76.000654 
C 52.310168 75.337646 52.682694 74.438289 52.682694 73.500654 
C 52.682694 72.56302 52.310168 71.663662 51.64716 71.000654 
C 50.984152 70.337646 50.084795 69.96512 49.14716 69.96512 
C 48.209526 69.96512 47.310168 70.337646 46.64716 71.000654 
C 45.984152 71.663662 45.611626 72.56302 45.611626 73.500654 
C 45.611626 74.438289 45.984152 75.337646 46.64716 76.000654 
C 47.310168 76.663662 48.209526 77.036188 49.14716 77.036188 
z
" clip-path="url(#pd30ca3d3e0)" style="fill: #08306b; stroke: #00ff00; stroke-width: 2"/>
    <path d="M 106.208444 79.567552 
C 106.302208 79.567552 106.392144 79.5303 106.458444 79.463999 
C 106.524745 79.397698 106.561998 79.307762 106.561998 79.213999 
C 106.561998 79.120236 106.524745 79.0303 106.458444 78.963999 
C 106.392144 78.897698 106.302208 78.860446 106.208444 78.860446 
C 106.114681 78.860446 106.024745 78.897698 105.958444 78.963999 
C 105.892144 79.0303 105.854891 79.120236 105.854891 79.213999 
C 105.854891 79.307762 105.892144 79.397698 105.958444 79.463999 
C 106.024745 79.5303 106.114681 79.567552 106.208444 79.567552 
z
" clip-path="url(#pd30ca3d3e0)" style="fill: #f7fbff; stroke: #00ff00; stroke-width: 2"/>
    <path d="M 43.972059 86.866679 
C 44.909693 86.866679 45.809051 86.494153 46.472059 85.831145 
C 47.135066 85.168137 47.507593 84.26878 47.507593 83.331145 
C 47.507593 82.393511 47.135066 81.494153 46.472059 80.831145 
C 45.809051 80.168137 44.909693 79.795611 43.972059 79.795611 
C 43.034424 79.795611 42.135066 80.168137 41.472059 80.831145 
C 40.809051 81.494153 40.436525 82.393511 40.436525 83.331145 
C 40.436525 84.26878 40.809051 85.168137 41.472059 85.831145 
C 42.135066 86.494153 43.034424 86.866679 43.972059 86.866679 
z
" clip-path="url(#pd30ca3d3e0)" style="fill: #08306b; stroke: #ff0000; stroke-width: 2"/>
    <path d="M 102.583634 89.727887 
C 102.677397 89.727887 102.767333 89.690635 102.833634 89.624334 
C 102.899935 89.558033 102.937187 89.468098 102.937187 89.374334 
C 102.937187 89.280571 102.899935 89.190635 102.833634 89.124334 
C 102.767333 89.058033 102.677397 89.020781 102.583634 89.020781 
C 102.48987 89.020781 102.399935 89.058033 102.333634 89.124334 
C 102.267333 89.190635 102.23008 89.280571 102.23008 89.374334 
C 102.23008 89.468098 102.267333 89.558033 102.333634 89.624334 
C 102.399935 89.690635 102.48987 89.727887 102.583634 89.727887 
z
" clip-path="url(#pd30ca3d3e0)" style="fill: #f7fbff; stroke: #ff0000; stroke-width: 2"/>
    <path d="M 50.854164 93.245791 
C 50.947928 93.245791 51.037863 93.208539 51.104164 93.142238 
C 51.170465 93.075937 51.207717 92.986001 51.207717 92.892238 
C 51.207717 92.798475 51.170465 92.708539 51.104164 92.642238 
C 51.037863 92.575937 50.947928 92.538685 50.854164 92.538685 
C 50.760401 92.538685 50.670465 92.575937 50.604164 92.642238 
C 50.537863 92.708539 50.500611 92.798475 50.500611 92.892238 
C 50.500611 92.986001 50.537863 93.075937 50.604164 93.142238 
C 50.670465 93.208539 50.760401 93.245791 50.854164 93.245791 
z
" clip-path="url(#pd30ca3d3e0)" style="fill: #f7fbff; stroke: #00ff00; stroke-width: 2"/>
    <path d="M 87.890443 97.158637 
C 87.984206 97.158637 88.074142 97.121385 88.140443 97.055084 
C 88.206744 96.988783 88.243996 96.898847 88.243996 96.805084 
C 88.243996 96.71132 88.206744 96.621385 88.140443 96.555084 
C 88.074142 96.488783 87.984206 96.451531 87.890443 96.451531 
C 87.796679 96.451531 87.706744 96.488783 87.640443 96.555084 
C 87.574142 96.621385 87.536889 96.71132 87.536889 96.805084 
C 87.536889 96.898847 87.574142 96.988783 87.640443 97.055084 
C 87.706744 97.121385 87.796679 97.158637 87.890443 97.158637 
z
" clip-path="url(#pd30ca3d3e0)" style="fill: #f7fbff; stroke: #00ff00; stroke-width: 2"/>
    <path d="M 67.791556 101.731532 
C 68.729191 101.731532 69.628549 101.359006 70.291556 100.695998 
C 70.954564 100.032991 71.32709 99.133633 71.32709 98.195998 
C 71.32709 97.258364 70.954564 96.359006 70.291556 95.695998 
C 69.628549 95.032991 68.729191 94.660464 67.791556 94.660464 
C 66.853922 94.660464 65.954564 95.032991 65.291556 95.695998 
C 64.628549 96.359006 64.256023 97.258364 64.256023 98.195998 
C 64.256023 99.133633 64.628549 100.032991 65.291556 100.695998 
C 65.954564 101.359006 66.853922 101.731532 67.791556 101.731532 
z
" clip-path="url(#pd30ca3d3e0)" style="fill: #08306b; stroke: #00ff00; stroke-width: 2"/>
   </g>
   <g id="patch_10">
    <path d="M 99.312018 81.487509 
Q 98.644376 80.727829 97.976735 79.96815 
" clip-path="url(#pd30ca3d3e0)" style="fill: none; opacity: 0.749135; stroke: #979797; stroke-width: 0.49827; stroke-linecap: round"/>
   </g>
   <g id="Path3DCollection_3">
    <path d="M 82.162495 56.430477 
C 82.256258 56.430477 82.346194 56.393224 82.412495 56.326923 
C 82.478796 56.260623 82.516048 56.170687 82.516048 56.076923 
C 82.516048 55.98316 82.478796 55.893224 82.412495 55.826923 
C 82.346194 55.760623 82.256258 55.72337 82.162495 55.72337 
C 82.068731 55.72337 81.978796 55.760623 81.912495 55.826923 
C 81.846194 55.893224 81.808941 55.98316 81.808941 56.076923 
C 81.808941 56.170687 81.846194 56.260623 81.912495 56.326923 
C 81.978796 56.393224 82.068731 56.430477 82.162495 56.430477 
z
" clip-path="url(#pd30ca3d3e0)" style="fill: #f7fcf5; stroke: #ff0000; stroke-width: 2"/>
    <path d="M 63.554504 57.575862 
C 63.648268 57.575862 63.738203 57.538609 63.804504 57.472308 
C 63.870805 57.406008 63.908057 57.316072 63.908057 57.222308 
C 63.908057 57.128545 63.870805 57.038609 63.804504 56.972308 
C 63.738203 56.906008 63.648268 56.868755 63.554504 56.868755 
C 63.460741 56.868755 63.370805 56.906008 63.304504 56.972308 
C 63.238203 57.038609 63.200951 57.128545 63.200951 57.222308 
C 63.200951 57.316072 63.238203 57.406008 63.304504 57.472308 
C 63.370805 57.538609 63.460741 57.575862 63.554504 57.575862 
z
" clip-path="url(#pd30ca3d3e0)" style="fill: #f7fcf5; stroke: #00ff00; stroke-width: 2"/>
    <path d="M 98.404877 60.88851 
C 98.498641 60.88851 98.588577 60.851257 98.654877 60.784956 
C 98.721178 60.718655 98.758431 60.62872 98.758431 60.534956 
C 98.758431 60.441193 98.721178 60.351257 98.654877 60.284956 
C 98.588577 60.218655 98.498641 60.181403 98.404877 60.181403 
C 98.311114 60.181403 98.221178 60.218655 98.154877 60.284956 
C 98.088577 60.351257 98.051324 60.441193 98.051324 60.534956 
C 98.051324 60.62872 98.088577 60.718655 98.154877 60.784956 
C 98.221178 60.851257 98.311114 60.88851 98.404877 60.88851 
z
" clip-path="url(#pd30ca3d3e0)" style="fill: #f7fcf5; stroke: #ff0000; stroke-width: 2"/>
    <path d="M 48.898027 67.168222 
C 49.835661 67.168222 50.735019 66.795696 51.398027 66.132688 
C 52.061035 65.469681 52.433561 64.570323 52.433561 63.632688 
C 52.433561 62.695054 52.061035 61.795696 51.398027 61.132688 
C 50.735019 60.469681 49.835661 60.097155 48.898027 60.097155 
C 47.960392 60.097155 47.061035 60.469681 46.398027 61.132688 
C 45.735019 61.795696 45.362493 62.695054 45.362493 63.632688 
C 45.362493 64.570323 45.735019 65.469681 46.398027 66.132688 
C 47.061035 66.795696 47.960392 67.168222 48.898027 67.168222 
z
" clip-path="url(#pd30ca3d3e0)" style="fill: #00441b; stroke: #00ff00; stroke-width: 2"/>
    <path d="M 106.507791 69.591487 
C 106.601554 69.591487 106.69149 69.554234 106.757791 69.487934 
C 106.824091 69.421633 106.861344 69.331697 106.861344 69.237934 
C 106.861344 69.14417 106.824091 69.054234 106.757791 68.987934 
C 106.69149 68.921633 106.601554 68.88438 106.507791 68.88438 
C 106.414027 68.88438 106.324091 68.921633 106.257791 68.987934 
C 106.19149 69.054234 106.154237 69.14417 106.154237 69.237934 
C 106.154237 69.331697 106.19149 69.421633 106.257791 69.487934 
C 106.324091 69.554234 106.414027 69.591487 106.507791 69.591487 
z
" clip-path="url(#pd30ca3d3e0)" style="fill: #f7fcf5; stroke: #00ff00; stroke-width: 2"/>
    <path d="M 43.665119 76.813801 
C 44.602753 76.813801 45.502111 76.441275 46.165119 75.778268 
C 46.828126 75.11526 47.200653 74.215902 47.200653 73.278268 
C 47.200653 72.340633 46.828126 71.441275 46.165119 70.778268 
C 45.502111 70.11526 44.602753 69.742734 43.665119 69.742734 
C 42.727484 69.742734 41.828126 70.11526 41.165119 70.778268 
C 40.502111 71.441275 40.129585 72.340633 40.129585 73.278268 
C 40.129585 74.215902 40.502111 75.11526 41.165119 75.778268 
C 41.828126 76.441275 42.727484 76.813801 43.665119 76.813801 
z
" clip-path="url(#pd30ca3d3e0)" style="fill: #00441b; stroke: #ff0000; stroke-width: 2"/>
    <path d="M 102.855535 79.563913 
C 102.949298 79.563913 103.039234 79.52666 103.105535 79.460359 
C 103.171836 79.394059 103.209088 79.304123 103.209088 79.210359 
C 103.209088 79.116596 103.171836 79.02666 103.105535 78.960359 
C 103.039234 78.894059 102.949298 78.856806 102.855535 78.856806 
C 102.761771 78.856806 102.671836 78.894059 102.605535 78.960359 
C 102.539234 79.02666 102.501981 79.116596 102.501981 79.210359 
C 102.501981 79.304123 102.539234 79.394059 102.605535 79.460359 
C 102.671836 79.52666 102.761771 79.563913 102.855535 79.563913 
z
" clip-path="url(#pd30ca3d3e0)" style="fill: #f7fcf5; stroke: #ff0000; stroke-width: 2"/>
    <path d="M 50.608198 83.018047 
C 50.701961 83.018047 50.791897 82.980795 50.858198 82.914494 
C 50.924498 82.848193 50.961751 82.758257 50.961751 82.664494 
C 50.961751 82.570731 50.924498 82.480795 50.858198 82.414494 
C 50.791897 82.348193 50.701961 82.310941 50.608198 82.310941 
C 50.514434 82.310941 50.424498 82.348193 50.358198 82.414494 
C 50.291897 82.480795 50.254644 82.570731 50.254644 82.664494 
C 50.254644 82.758257 50.291897 82.848193 50.358198 82.914494 
C 50.424498 82.980795 50.514434 83.018047 50.608198 83.018047 
z
" clip-path="url(#pd30ca3d3e0)" style="fill: #f7fcf5; stroke: #00ff00; stroke-width: 2"/>
    <path d="M 88.018511 86.860746 
C 88.112274 86.860746 88.20221 86.823494 88.268511 86.757193 
C 88.334812 86.690892 88.372064 86.600956 88.372064 86.507193 
C 88.372064 86.41343 88.334812 86.323494 88.268511 86.257193 
C 88.20221 86.190892 88.112274 86.15364 88.018511 86.15364 
C 87.924747 86.15364 87.834812 86.190892 87.768511 86.257193 
C 87.70221 86.323494 87.664957 86.41343 87.664957 86.507193 
C 87.664957 86.600956 87.70221 86.690892 87.768511 86.757193 
C 87.834812 86.823494 87.924747 86.860746 88.018511 86.860746 
z
" clip-path="url(#pd30ca3d3e0)" style="fill: #f7fcf5; stroke: #00ff00; stroke-width: 2"/>
    <path d="M 67.71492 91.408904 
C 68.652554 91.408904 69.551912 91.036378 70.21492 90.37337 
C 70.877927 89.710362 71.250453 88.811005 71.250453 87.87337 
C 71.250453 86.935736 70.877927 86.036378 70.21492 85.37337 
C 69.551912 84.710362 68.652554 84.337836 67.71492 84.337836 
C 66.777285 84.337836 65.877927 84.710362 65.21492 85.37337 
C 64.551912 86.036378 64.179386 86.935736 64.179386 87.87337 
C 64.179386 88.811005 64.551912 89.710362 65.21492 90.37337 
C 65.877927 91.036378 66.777285 91.408904 67.71492 91.408904 
z
" clip-path="url(#pd30ca3d3e0)" style="fill: #00441b; stroke: #00ff00; stroke-width: 2"/>
   </g>
   <g id="patch_11">
    <path d="M 104.579504 87.481151 
Q 105.247145 88.240831 105.914786 89.000511 
" clip-path="url(#pd30ca3d3e0)" style="fill: none; opacity: 0.749135; stroke: #979797; stroke-width: 0.49827; stroke-linecap: round"/>
   </g>
   <g id="Path3DCollection_4">
    <path d="M 82.227028 46.528299 
C 82.320791 46.528299 82.410727 46.491047 82.477028 46.424746 
C 82.543329 46.358445 82.580581 46.268509 82.580581 46.174746 
C 82.580581 46.080982 82.543329 45.991047 82.477028 45.924746 
C 82.410727 45.858445 82.320791 45.821192 82.227028 45.821192 
C 82.133265 45.821192 82.043329 45.858445 81.977028 45.924746 
C 81.910727 45.991047 81.873475 46.080982 81.873475 46.174746 
C 81.873475 46.268509 81.910727 46.358445 81.977028 46.424746 
C 82.043329 46.491047 82.133265 46.528299 82.227028 46.528299 
z
" clip-path="url(#pd30ca3d3e0)" style="fill: #fff5eb; stroke: #ff0000; stroke-width: 2"/>
    <path d="M 63.443708 50.831871 
C 64.381342 50.831871 65.2807 50.459345 65.943708 49.796337 
C 66.606716 49.133329 66.979242 48.233971 66.979242 47.296337 
C 66.979242 46.358702 66.606716 45.459345 65.943708 44.796337 
C 65.2807 44.133329 64.381342 43.760803 63.443708 43.760803 
C 62.506073 43.760803 61.606716 44.133329 60.943708 44.796337 
C 60.2807 45.459345 59.908174 46.358702 59.908174 47.296337 
C 59.908174 48.233971 60.2807 49.133329 60.943708 49.796337 
C 61.606716 50.459345 62.506073 50.831871 63.443708 50.831871 
z
" clip-path="url(#pd30ca3d3e0)" style="fill: #7f2704; stroke: #00ff00; stroke-width: 2"/>
    <path d="M 98.625069 50.894133 
C 98.718832 50.894133 98.808768 50.85688 98.875069 50.790579 
C 98.941369 50.724279 98.978622 50.634343 98.978622 50.540579 
C 98.978622 50.446816 98.941369 50.35688 98.875069 50.290579 
C 98.808768 50.224279 98.718832 50.187026 98.625069 50.187026 
C 98.531305 50.187026 98.441369 50.224279 98.375069 50.290579 
C 98.308768 50.35688 98.271515 50.446816 98.271515 50.540579 
C 98.271515 50.634343 98.308768 50.724279 98.375069 50.790579 
C 98.441369 50.85688 98.531305 50.894133 98.625069 50.894133 
z
" clip-path="url(#pd30ca3d3e0)" style="fill: #fff5eb; stroke: #ff0000; stroke-width: 2"/>
    <path d="M 48.644101 57.110431 
C 49.581736 57.110431 50.481093 56.737905 51.144101 56.074897 
C 51.807109 55.411889 52.179635 54.512532 52.179635 53.574897 
C 52.179635 52.637263 51.807109 51.737905 51.144101 51.074897 
C 50.481093 50.411889 49.581736 50.039363 48.644101 50.039363 
C 47.706466 50.039363 46.807109 50.411889 46.144101 51.074897 
C 45.481093 51.737905 45.108567 52.637263 45.108567 53.574897 
C 45.108567 54.512532 45.481093 55.411889 46.144101 56.074897 
C 46.807109 56.737905 47.706466 57.110431 48.644101 57.110431 
z
" clip-path="url(#pd30ca3d3e0)" style="fill: #7f2704; stroke: #00ff00; stroke-width: 2"/>
    <path d="M 106.812991 59.420307 
C 106.906755 59.420307 106.996691 59.383055 107.062991 59.316754 
C 107.129292 59.250453 107.166545 59.160517 107.166545 59.066754 
C 107.166545 58.972991 107.129292 58.883055 107.062991 58.816754 
C 106.996691 58.750453 106.906755 58.713201 106.812991 58.713201 
C 106.719228 58.713201 106.629292 58.750453 106.562991 58.816754 
C 106.496691 58.883055 106.459438 58.972991 106.459438 59.066754 
C 106.459438 59.160517 106.496691 59.250453 106.562991 59.316754 
C 106.629292 59.383055 106.719228 59.420307 106.812991 59.420307 
z
" clip-path="url(#pd30ca3d3e0)" style="fill: #fff5eb; stroke: #00ff00; stroke-width: 2"/>
    <path d="M 43.352104 66.561975 
C 44.289739 66.561975 45.189097 66.189449 45.852104 65.526441 
C 46.515112 64.863434 46.887638 63.964076 46.887638 63.026441 
C 46.887638 62.088807 46.515112 61.189449 45.852104 60.526441 
C 45.189097 59.863434 44.289739 59.490907 43.352104 59.490907 
C 42.41447 59.490907 41.515112 59.863434 40.852104 60.526441 
C 40.189097 61.189449 39.81657 62.088807 39.81657 63.026441 
C 39.81657 63.964076 40.189097 64.863434 40.852104 65.526441 
C 41.515112 66.189449 42.41447 66.561975 43.352104 66.561975 
z
" clip-path="url(#pd30ca3d3e0)" style="fill: #7f2704; stroke: #ff0000; stroke-width: 2"/>
    <path d="M 103.132909 69.195328 
C 103.226673 69.195328 103.316609 69.158076 103.382909 69.091775 
C 103.44921 69.025474 103.486463 68.935538 103.486463 68.841775 
C 103.486463 68.748011 103.44921 68.658076 103.382909 68.591775 
C 103.316609 68.525474 103.226673 68.488222 103.132909 68.488222 
C 103.039146 68.488222 102.94921 68.525474 102.882909 68.591775 
C 102.816609 68.658076 102.779356 68.748011 102.779356 68.841775 
C 102.779356 68.935538 102.816609 69.025474 102.882909 69.091775 
C 102.94921 69.158076 103.039146 69.195328 103.132909 69.195328 
z
" clip-path="url(#pd30ca3d3e0)" style="fill: #fff5eb; stroke: #ff0000; stroke-width: 2"/>
    <path d="M 50.357231 72.582381 
C 50.450994 72.582381 50.54093 72.545128 50.607231 72.478827 
C 50.673532 72.412527 50.710784 72.322591 50.710784 72.228827 
C 50.710784 72.135064 50.673532 72.045128 50.607231 71.978827 
C 50.54093 71.912527 50.450994 71.875274 50.357231 71.875274 
C 50.263468 71.875274 50.173532 71.912527 50.107231 71.978827 
C 50.04093 72.045128 50.003678 72.135064 50.003678 72.228827 
C 50.003678 72.322591 50.04093 72.412527 50.107231 72.478827 
C 50.173532 72.545128 50.263468 72.582381 50.357231 72.582381 
z
" clip-path="url(#pd30ca3d3e0)" style="fill: #fff5eb; stroke: #00ff00; stroke-width: 2"/>
    <path d="M 88.14921 76.351233 
C 88.242974 76.351233 88.33291 76.313981 88.39921 76.24768 
C 88.465511 76.181379 88.502764 76.091443 88.502764 75.99768 
C 88.502764 75.903916 88.465511 75.813981 88.39921 75.74768 
C 88.33291 75.681379 88.242974 75.644127 88.14921 75.644127 
C 88.055447 75.644127 87.965511 75.681379 87.89921 75.74768 
C 87.83291 75.813981 87.795657 75.903916 87.795657 75.99768 
C 87.795657 76.091443 87.83291 76.181379 87.89921 76.24768 
C 87.965511 76.313981 88.055447 76.351233 88.14921 76.351233 
z
" clip-path="url(#pd30ca3d3e0)" style="fill: #fff5eb; stroke: #00ff00; stroke-width: 2"/>
    <path d="M 67.636702 80.873335 
C 68.574336 80.873335 69.473694 80.500809 70.136702 79.837801 
C 70.799709 79.174794 71.172236 78.275436 71.172236 77.337801 
C 71.172236 76.400167 70.799709 75.500809 70.136702 74.837801 
C 69.473694 74.174794 68.574336 73.802267 67.636702 73.802267 
C 66.699067 73.802267 65.799709 74.174794 65.136702 74.837801 
C 64.473694 75.500809 64.101168 76.400167 64.101168 77.337801 
C 64.101168 78.275436 64.473694 79.174794 65.136702 79.837801 
C 65.799709 80.500809 66.699067 80.873335 67.636702 80.873335 
z
" clip-path="url(#pd30ca3d3e0)" style="fill: #7f2704; stroke: #00ff00; stroke-width: 2"/>
   </g>
   <g id="patch_12">
    <path d="M 88.42434 61.159456 
Q 71.158115 62.239835 53.891891 63.320213 
" clip-path="url(#pd30ca3d3e0)" style="fill: none; opacity: 0.835165; stroke: #676767; stroke-width: 0.67033; stroke-linecap: round"/>
   </g>
   <g id="Path3DCollection_5">
    <path d="M 82.292786 36.438163 
C 82.38655 36.438163 82.476485 36.400911 82.542786 36.33461 
C 82.609087 36.268309 82.64634 36.178373 82.64634 36.08461 
C 82.64634 35.990846 82.609087 35.900911 82.542786 35.83461 
C 82.476485 35.768309 82.38655 35.731056 82.292786 35.731056 
C 82.199023 35.731056 82.109087 35.768309 82.042786 35.83461 
C 81.976485 35.900911 81.939233 35.990846 81.939233 36.08461 
C 81.939233 36.178373 81.976485 36.268309 82.042786 36.33461 
C 82.109087 36.400911 82.199023 36.438163 82.292786 36.438163 
z
" clip-path="url(#pd30ca3d3e0)" style="fill: #fcfbfd; stroke: #ff0000; stroke-width: 2"/>
    <path d="M 63.330801 40.716825 
C 64.268436 40.716825 65.167793 40.344299 65.830801 39.681291 
C 66.493809 39.018283 66.866335 38.118925 66.866335 37.181291 
C 66.866335 36.243656 66.493809 35.344299 65.830801 34.681291 
C 65.167793 34.018283 64.268436 33.645757 63.330801 33.645757 
C 62.393167 33.645757 61.493809 34.018283 60.830801 34.681291 
C 60.167793 35.344299 59.795267 36.243656 59.795267 37.181291 
C 59.795267 38.118925 60.167793 39.018283 60.830801 39.681291 
C 61.493809 40.344299 62.393167 40.716825 63.330801 40.716825 
z
" clip-path="url(#pd30ca3d3e0)" style="fill: #3f007d; stroke: #00ff00; stroke-width: 2"/>
    <path d="M 98.849497 43.889423 
C 99.787131 43.889423 100.686489 43.516897 101.349497 42.853889 
C 102.012504 42.190881 102.385031 41.291524 102.385031 40.353889 
C 102.385031 39.416255 102.012504 38.516897 101.349497 37.853889 
C 100.686489 37.190881 99.787131 36.818355 98.849497 36.818355 
C 97.911862 36.818355 97.012504 37.190881 96.349497 37.853889 
C 95.686489 38.516897 95.313963 39.416255 95.313963 40.353889 
C 95.313963 41.291524 95.686489 42.190881 96.349497 42.853889 
C 97.012504 43.516897 97.911862 43.889423 98.849497 43.889423 
z
" clip-path="url(#pd30ca3d3e0)" style="fill: #3f007d; stroke: #ff0000; stroke-width: 2"/>
    <path d="M 48.385243 46.857284 
C 49.322878 46.857284 50.222235 46.484757 50.885243 45.82175 
C 51.548251 45.158742 51.920777 44.259384 51.920777 43.32175 
C 51.920777 42.384115 51.548251 41.484757 50.885243 40.82175 
C 50.222235 40.158742 49.322878 39.786216 48.385243 39.786216 
C 47.447608 39.786216 46.548251 40.158742 45.885243 40.82175 
C 45.222235 41.484757 44.849709 42.384115 44.849709 43.32175 
C 44.849709 44.259384 45.222235 45.158742 45.885243 45.82175 
C 46.548251 46.484757 47.447608 46.857284 48.385243 46.857284 
z
" clip-path="url(#pd30ca3d3e0)" style="fill: #3f007d; stroke: #00ff00; stroke-width: 2"/>
    <path d="M 107.12422 49.048233 
C 107.217984 49.048233 107.30792 49.01098 107.37422 48.944679 
C 107.440521 48.878378 107.477774 48.788443 107.477774 48.694679 
C 107.477774 48.600916 107.440521 48.51098 107.37422 48.444679 
C 107.30792 48.378378 107.217984 48.341126 107.12422 48.341126 
C 107.030457 48.341126 106.940521 48.378378 106.87422 48.444679 
C 106.80792 48.51098 106.770667 48.600916 106.770667 48.694679 
C 106.770667 48.788443 106.80792 48.878378 106.87422 48.944679 
C 106.940521 49.01098 107.030457 49.048233 107.12422 49.048233 
z
" clip-path="url(#pd30ca3d3e0)" style="fill: #fcfbfd; stroke: #00ff00; stroke-width: 2"/>
    <path d="M 43.032833 52.923255 
C 43.126597 52.923255 43.216533 52.886003 43.282833 52.819702 
C 43.349134 52.753401 43.386387 52.663465 43.386387 52.569702 
C 43.386387 52.475938 43.349134 52.386003 43.282833 52.319702 
C 43.216533 52.253401 43.126597 52.216148 43.032833 52.216148 
C 42.93907 52.216148 42.849134 52.253401 42.782833 52.319702 
C 42.716533 52.386003 42.67928 52.475938 42.67928 52.569702 
C 42.67928 52.663465 42.716533 52.753401 42.782833 52.819702 
C 42.849134 52.886003 42.93907 52.923255 43.032833 52.923255 
z
" clip-path="url(#pd30ca3d3e0)" style="fill: #fcfbfd; stroke: #ff0000; stroke-width: 2"/>
    <path d="M 103.415925 58.615893 
C 103.509688 58.615893 103.599624 58.57864 103.665925 58.51234 
C 103.732225 58.446039 103.769478 58.356103 103.769478 58.26234 
C 103.769478 58.168576 103.732225 58.07864 103.665925 58.01234 
C 103.599624 57.946039 103.509688 57.908786 103.415925 57.908786 
C 103.322161 57.908786 103.232225 57.946039 103.165925 58.01234 
C 103.099624 58.07864 103.062371 58.168576 103.062371 58.26234 
C 103.062371 58.356103 103.099624 58.446039 103.165925 58.51234 
C 103.232225 58.57864 103.322161 58.615893 103.415925 58.615893 
z
" clip-path="url(#pd30ca3d3e0)" style="fill: #fcfbfd; stroke: #ff0000; stroke-width: 2"/>
    <path d="M 50.10111 61.932386 
C 50.194873 61.932386 50.284809 61.895134 50.35111 61.828833 
C 50.417411 61.762532 50.454663 61.672596 50.454663 61.578833 
C 50.454663 61.485069 50.417411 61.395134 50.35111 61.328833 
C 50.284809 61.262532 50.194873 61.225279 50.10111 61.225279 
C 50.007347 61.225279 49.917411 61.262532 49.85111 61.328833 
C 49.784809 61.395134 49.747557 61.485069 49.747557 61.578833 
C 49.747557 61.672596 49.784809 61.762532 49.85111 61.828833 
C 49.917411 61.895134 50.007347 61.932386 50.10111 61.932386 
z
" clip-path="url(#pd30ca3d3e0)" style="fill: #fcfbfd; stroke: #00ff00; stroke-width: 2"/>
    <path d="M 88.282624 65.623507 
C 88.376387 65.623507 88.466323 65.586254 88.532624 65.519954 
C 88.598925 65.453653 88.636177 65.363717 88.636177 65.269954 
C 88.636177 65.17619 88.598925 65.086254 88.532624 65.019954 
C 88.466323 64.953653 88.376387 64.9164 88.282624 64.9164 
C 88.18886 64.9164 88.098925 64.953653 88.032624 65.019954 
C 87.966323 65.086254 87.92907 65.17619 87.92907 65.269954 
C 87.92907 65.363717 87.966323 65.453653 88.032624 65.519954 
C 88.098925 65.586254 88.18886 65.623507 88.282624 65.623507 
z
" clip-path="url(#pd30ca3d3e0)" style="fill: #fcfbfd; stroke: #00ff00; stroke-width: 2"/>
    <path d="M 67.556853 70.118168 
C 68.494488 70.118168 69.393846 69.745642 70.056853 69.082634 
C 70.719861 68.419626 71.092387 67.520268 71.092387 66.582634 
C 71.092387 65.644999 70.719861 64.745642 70.056853 64.082634 
C 69.393846 63.419626 68.494488 63.0471 67.556853 63.0471 
C 66.619219 63.0471 65.719861 63.419626 65.056853 64.082634 
C 64.393846 64.745642 64.02132 65.644999 64.02132 66.582634 
C 64.02132 67.520268 64.393846 68.419626 65.056853 69.082634 
C 65.719861 69.745642 66.619219 70.118168 67.556853 70.118168 
z
" clip-path="url(#pd30ca3d3e0)" style="fill: #3f007d; stroke: #00ff00; stroke-width: 2"/>
   </g>
   <g id="patch_13">
    <path d="M 58.878564 63.008188 
Q 76.144789 61.92781 93.411013 60.847431 
" clip-path="url(#pd30ca3d3e0)" style="fill: none; opacity: 0.835165; stroke: #676767; stroke-width: 0.67033; stroke-linecap: round"/>
   </g>
   <g id="patch_14">
    <path d="M 44.836688 92.088999 
Q 44.554894 92.639904 44.273099 93.19081 
" clip-path="url(#pd30ca3d3e0)" style="fill: none; opacity: 0.887543; stroke: #484848; stroke-width: 0.775087; stroke-linecap: round"/>
   </g>
   <g id="patch_15">
    <path d="M 48.828047 84.285929 
Q 49.109841 83.735023 49.391636 83.184118 
" clip-path="url(#pd30ca3d3e0)" style="fill: none; opacity: 0.887543; stroke: #484848; stroke-width: 0.775087; stroke-linecap: round"/>
   </g>
   <g id="patch_16">
    <path d="M 54.240925 51.20051 
Q 53.744917 51.410935 53.24891 51.621361 
" clip-path="url(#pd30ca3d3e0)" style="fill: none; opacity: 0.656699; stroke: #cccccc; stroke-width: 0.313397; stroke-linecap: round"/>
   </g>
   <g id="patch_17">
    <path d="M 57.846884 49.670724 
Q 58.342892 49.460299 58.838899 49.249873 
" clip-path="url(#pd30ca3d3e0)" style="fill: none; opacity: 0.656699; stroke: #cccccc; stroke-width: 0.313397; stroke-linecap: round"/>
   </g>
   <g id="patch_18">
    <path d="M 88.890214 39.464307 
Q 78.601864 38.545332 68.313514 37.626356 
" clip-path="url(#pd30ca3d3e0)" style="fill: none; opacity: 0.64313; stroke: #d1d1d1; stroke-width: 0.28626; stroke-linecap: round"/>
   </g>
   <g id="patch_19">
    <path d="M 73.290084 38.070873 
Q 83.578434 38.989848 93.866784 39.908824 
" clip-path="url(#pd30ca3d3e0)" style="fill: none; opacity: 0.64313; stroke: #d1d1d1; stroke-width: 0.28626; stroke-linecap: round"/>
   </g>
   <g id="patch_20">
    <path d="M 44.488811 82.349536 
Q 44.230435 82.840341 43.972059 83.331145 
" clip-path="url(#pd30ca3d3e0)" style="fill: none; opacity: 0.835664; stroke: #676767; stroke-width: 0.671329; stroke-linecap: round"/>
   </g>
   <g id="patch_21">
    <path d="M 48.630408 74.482263 
Q 48.888784 73.991459 49.14716 73.500654 
" clip-path="url(#pd30ca3d3e0)" style="fill: none; opacity: 0.835664; stroke: #676767; stroke-width: 0.671329; stroke-linecap: round"/>
   </g>
   <g id="patch_22">
    <path d="M 88.866913 40.940976 
Q 71.124062 41.984454 53.381211 43.027931 
" clip-path="url(#pd30ca3d3e0)" style="fill: none; opacity: 0.698473; stroke: #b6b6b6; stroke-width: 0.396947; stroke-linecap: round"/>
   </g>
   <g id="patch_23">
    <path d="M 54.081048 40.981599 
Q 53.545676 41.20156 53.010303 41.42152 
" clip-path="url(#pd30ca3d3e0)" style="fill: none; opacity: 0.706107; stroke: #b2b2b2; stroke-width: 0.412214; stroke-linecap: round"/>
   </g>
   <g id="patch_24">
    <path d="M 58.367826 42.734662 
Q 76.110678 41.691185 93.853529 40.647708 
" clip-path="url(#pd30ca3d3e0)" style="fill: none; opacity: 0.698473; stroke: #b6b6b6; stroke-width: 0.396947; stroke-linecap: round"/>
   </g>
   <g id="patch_25">
    <path d="M 57.634996 39.521441 
Q 58.170369 39.301481 58.705741 39.08152 
" clip-path="url(#pd30ca3d3e0)" style="fill: none; opacity: 0.706107; stroke: #b2b2b2; stroke-width: 0.412214; stroke-linecap: round"/>
   </g>
   <g id="patch_26">
    <path d="M 44.128875 72.423447 
Q 43.896997 72.850857 43.665119 73.278268 
" clip-path="url(#pd30ca3d3e0)" style="fill: none; opacity: 0.950549; stroke: #1d1d1d; stroke-width: 0.901099; stroke-linecap: round"/>
   </g>
   <g id="patch_27">
    <path d="M 48.434271 64.487509 
Q 48.666149 64.060099 48.898027 63.632688 
" clip-path="url(#pd30ca3d3e0)" style="fill: none; opacity: 0.950549; stroke: #1d1d1d; stroke-width: 0.901099; stroke-linecap: round"/>
   </g>
   <g id="patch_28">
    <path d="M 50.014323 101.376932 
Q 50.5548 102.147572 51.095278 102.918212 
" clip-path="url(#pd30ca3d3e0)" style="fill: none; stroke: #000000; stroke-linecap: round"/>
   </g>
   <g id="patch_29">
    <path d="M 45.354055 94.73209 
Q 44.813577 93.96145 44.273099 93.19081 
" clip-path="url(#pd30ca3d3e0)" style="fill: none; stroke: #000000; stroke-linecap: round"/>
   </g>
   <g id="patch_30">
    <path d="M 105.94384 79.955684 
Q 106.076142 79.584841 106.208444 79.213999 
" clip-path="url(#pd30ca3d3e0)" style="fill: none; opacity: 0.769231; stroke: #8c8c8c; stroke-width: 0.538462; stroke-linecap: round"/>
   </g>
   <g id="patch_31">
    <path d="M 92.998075 86.526876 
Q 73.469376 80.725739 53.940678 74.924602 
" clip-path="url(#pd30ca3d3e0)" style="fill: none; opacity: 0.737762; stroke: #9e9e9e; stroke-width: 0.475524; stroke-linecap: round"/>
   </g>
   <g id="patch_32">
    <path d="M 102.848238 88.632649 
Q 102.715936 89.003492 102.583634 89.374334 
" clip-path="url(#pd30ca3d3e0)" style="fill: none; opacity: 0.769231; stroke: #8c8c8c; stroke-width: 0.538462; stroke-linecap: round"/>
   </g>
   <g id="patch_33">
    <path d="M 58.732719 76.348112 
Q 78.261418 82.149249 97.790116 87.950386 
" clip-path="url(#pd30ca3d3e0)" style="fill: none; opacity: 0.737762; stroke: #9e9e9e; stroke-width: 0.475524; stroke-linecap: round"/>
   </g>
   <g id="patch_34">
    <path d="M 55.568447 53.462031 
Q 51.43022 56.701928 47.291994 59.941826 
" clip-path="url(#pd30ca3d3e0)" style="fill: none; opacity: 0.704545; stroke: #b3b3b3; stroke-width: 0.409091; stroke-linecap: round"/>
   </g>
   <g id="patch_35">
    <path d="M 43.759082 62.299577 
Q 43.555593 62.663009 43.352104 63.026441 
" clip-path="url(#pd30ca3d3e0)" style="fill: none; opacity: 0.698565; stroke: #b6b6b6; stroke-width: 0.397129; stroke-linecap: round"/>
   </g>
   <g id="patch_36">
    <path d="M 51.227365 56.860747 
Q 55.365592 53.62085 59.503818 50.380953 
" clip-path="url(#pd30ca3d3e0)" style="fill: none; opacity: 0.704545; stroke: #b3b3b3; stroke-width: 0.409091; stroke-linecap: round"/>
   </g>
   <g id="patch_37">
    <path d="M 48.237124 54.301761 
Q 48.440612 53.938329 48.644101 53.574897 
" clip-path="url(#pd30ca3d3e0)" style="fill: none; opacity: 0.698565; stroke: #b6b6b6; stroke-width: 0.397129; stroke-linecap: round"/>
   </g>
   <g id="patch_38">
    <path d="M 49.814119 91.447337 
Q 50.334142 92.169787 50.854164 92.892238 
" clip-path="url(#pd30ca3d3e0)" style="fill: none; opacity: 0.758741; stroke: #919191; stroke-width: 0.517483; stroke-linecap: round"/>
   </g>
   <g id="patch_39">
    <path d="M 45.012103 84.776047 
Q 44.492081 84.053596 43.972059 83.331145 
" clip-path="url(#pd30ca3d3e0)" style="fill: none; opacity: 0.758741; stroke: #919191; stroke-width: 0.517483; stroke-linecap: round"/>
   </g>
   <g id="patch_40">
    <path d="M 106.294683 69.819821 
Q 106.401237 69.528877 106.507791 69.237934 
" clip-path="url(#pd30ca3d3e0)" style="fill: none; opacity: 0.637363; stroke: #d4d4d4; stroke-width: 0.274725; stroke-linecap: round"/>
   </g>
   <g id="patch_41">
    <path d="M 103.068642 78.628472 
Q 102.962089 78.919416 102.855535 79.210359 
" clip-path="url(#pd30ca3d3e0)" style="fill: none; opacity: 0.637363; stroke: #d4d4d4; stroke-width: 0.274725; stroke-linecap: round"/>
   </g>
   <g id="patch_42">
    <path d="M 61.037086 103.997118 
Q 71.916479 105.177773 82.795873 106.358428 
" clip-path="url(#pd30ca3d3e0)" style="fill: none; opacity: 0.792388; stroke: #7e7e7e; stroke-width: 0.584775; stroke-linecap: round"/>
   </g>
   <g id="patch_43">
    <path d="M 77.82312 105.818775 
Q 66.943727 104.63812 56.064334 103.457465 
" clip-path="url(#pd30ca3d3e0)" style="fill: none; opacity: 0.792388; stroke: #7e7e7e; stroke-width: 0.584775; stroke-linecap: round"/>
   </g>
   <g id="patch_44">
    <path d="M 90.69364 86.824045 
Q 81.101126 95.853897 71.508611 104.883749 
" clip-path="url(#pd30ca3d3e0)" style="fill: none; opacity: 0.861592; stroke: #5a5a5a; stroke-width: 0.723183; stroke-linecap: round"/>
   </g>
   <g id="patch_45">
    <path d="M 65.048704 86.448777 
Q 66.137945 94.899722 67.227185 103.350666 
" clip-path="url(#pd30ca3d3e0)" style="fill: none; opacity: 0.908304; stroke: #3a3a3a; stroke-width: 0.816609; stroke-linecap: round"/>
   </g>
   <g id="patch_46">
    <path d="M 55.316183 91.242119 
Q 60.110704 97.763168 64.905225 104.284217 
" clip-path="url(#pd30ca3d3e0)" style="fill: none; opacity: 0.918685; stroke: #323232; stroke-width: 0.83737; stroke-linecap: round"/>
   </g>
   <g id="patch_47">
    <path d="M 75.149755 101.456182 
Q 84.742269 92.426329 94.334784 83.396477 
" clip-path="url(#pd30ca3d3e0)" style="fill: none; opacity: 0.861592; stroke: #5a5a5a; stroke-width: 0.723183; stroke-linecap: round"/>
   </g>
   <g id="patch_48">
    <path d="M 66.587953 98.391144 
Q 65.498713 89.940199 64.409472 81.489255 
" clip-path="url(#pd30ca3d3e0)" style="fill: none; opacity: 0.908304; stroke: #3a3a3a; stroke-width: 0.816609; stroke-linecap: round"/>
   </g>
   <g id="patch_49">
    <path d="M 61.942113 100.254075 
Q 57.147592 93.733027 52.35307 87.211978 
" clip-path="url(#pd30ca3d3e0)" style="fill: none; opacity: 0.918685; stroke: #323232; stroke-width: 0.83737; stroke-linecap: round"/>
   </g>
   <g id="patch_50">
    <path d="M 49.613181 81.319349 
Q 50.110689 81.991921 50.608198 82.664494 
" clip-path="url(#pd30ca3d3e0)" style="fill: none; opacity: 0.741758; stroke: #9c9c9c; stroke-width: 0.483516; stroke-linecap: round"/>
   </g>
   <g id="patch_51">
    <path d="M 44.660135 74.623413 
Q 44.162627 73.95084 43.665119 73.278268 
" clip-path="url(#pd30ca3d3e0)" style="fill: none; opacity: 0.741758; stroke: #9c9c9c; stroke-width: 0.483516; stroke-linecap: round"/>
   </g>
   <g id="patch_52">
    <path d="M 106.655761 59.484388 
Q 106.734376 59.275571 106.812991 59.066754 
" clip-path="url(#pd30ca3d3e0)" style="fill: none; opacity: 0.551435; stroke: #f3f3f3; stroke-width: 0.102871; stroke-linecap: round"/>
   </g>
   <g id="patch_53">
    <path d="M 103.29014 68.424141 
Q 103.211524 68.632958 103.132909 68.841775 
" clip-path="url(#pd30ca3d3e0)" style="fill: none; opacity: 0.551435; stroke: #f3f3f3; stroke-width: 0.102871; stroke-linecap: round"/>
   </g>
   <g id="patch_54">
    <path d="M 60.795909 93.942573 
Q 71.857636 95.111234 82.919363 96.279894 
" clip-path="url(#pd30ca3d3e0)" style="fill: none; opacity: 0.793706; stroke: #7d7d7d; stroke-width: 0.587413; stroke-linecap: round"/>
   </g>
   <g id="patch_55">
    <path d="M 77.948698 95.754748 
Q 66.886971 94.586088 55.825244 93.417428 
" clip-path="url(#pd30ca3d3e0)" style="fill: none; opacity: 0.793706; stroke: #7d7d7d; stroke-width: 0.587413; stroke-linecap: round"/>
   </g>
   <g id="patch_56">
    <path d="M 90.817694 77.096705 
Q 81.14711 85.958047 71.476526 94.81939 
" clip-path="url(#pd30ca3d3e0)" style="fill: none; stroke: #000000; stroke-linecap: round"/>
   </g>
   <g id="patch_57">
    <path d="M 55.17154 81.480217 
Q 59.975681 87.843518 64.779822 94.206819 
" clip-path="url(#pd30ca3d3e0)" style="fill: none; opacity: 0.972028; stroke: #101010; stroke-width: 0.944056; stroke-linecap: round"/>
   </g>
   <g id="patch_58">
    <path d="M 52.453684 88.624209 
Q 58.001306 92.086271 63.548927 95.548333 
" clip-path="url(#pd30ca3d3e0)" style="fill: none; opacity: 0.895105; stroke: #434343; stroke-width: 0.79021; stroke-linecap: round"/>
   </g>
   <g id="patch_59">
    <path d="M 75.162666 91.441708 
Q 84.833251 82.580365 94.503835 73.719023 
" clip-path="url(#pd30ca3d3e0)" style="fill: none; stroke: #000000; stroke-linecap: round"/>
   </g>
   <g id="patch_60">
    <path d="M 61.767177 90.216436 
Q 56.963036 83.853134 52.158895 77.489833 
" clip-path="url(#pd30ca3d3e0)" style="fill: none; opacity: 0.972028; stroke: #101010; stroke-width: 0.944056; stroke-linecap: round"/>
   </g>
   <g id="patch_61">
    <path d="M 59.309931 92.902935 
Q 53.76231 89.440873 48.214688 85.978811 
" clip-path="url(#pd30ca3d3e0)" style="fill: none; opacity: 0.895105; stroke: #434343; stroke-width: 0.79021; stroke-linecap: round"/>
   </g>
   <g id="patch_62">
    <path d="M 49.40805 70.981922 
Q 49.882641 71.605375 50.357231 72.228827 
" clip-path="url(#pd30ca3d3e0)" style="fill: none; opacity: 0.677033; stroke: #c2c2c2; stroke-width: 0.354067; stroke-linecap: round"/>
   </g>
   <g id="patch_63">
    <path d="M 44.301285 64.273347 
Q 43.826695 63.649894 43.352104 63.026441 
" clip-path="url(#pd30ca3d3e0)" style="fill: none; opacity: 0.677033; stroke: #c2c2c2; stroke-width: 0.354067; stroke-linecap: round"/>
   </g>
   <g id="patch_64">
    <path d="M 107.029159 48.939944 
Q 107.07669 48.817311 107.12422 48.694679 
" clip-path="url(#pd30ca3d3e0)" style="fill: none; opacity: 0.568702; stroke: #eeeeee; stroke-width: 0.137405; stroke-linecap: round"/>
   </g>
   <g id="patch_65">
    <path d="M 103.510986 58.017075 
Q 103.463455 58.139707 103.415925 58.26234 
" clip-path="url(#pd30ca3d3e0)" style="fill: none; opacity: 0.568702; stroke: #eeeeee; stroke-width: 0.137405; stroke-linecap: round"/>
   </g>
   <g id="patch_66">
    <path d="M 60.559012 83.686618 
Q 71.803261 84.841601 83.04751 85.996584 
" clip-path="url(#pd30ca3d3e0)" style="fill: none; opacity: 0.708791; stroke: #b0b0b0; stroke-width: 0.417582; stroke-linecap: round"/>
   </g>
   <g id="patch_67">
    <path d="M 78.067696 85.485069 
Q 66.823447 84.330086 55.579198 83.175103 
" clip-path="url(#pd30ca3d3e0)" style="fill: none; opacity: 0.708791; stroke: #b0b0b0; stroke-width: 0.417582; stroke-linecap: round"/>
   </g>
   <g id="patch_68">
    <path d="M 90.936563 67.187682 
Q 81.192374 75.867742 71.448184 84.547802 
" clip-path="url(#pd30ca3d3e0)" style="fill: none; stroke: #000000; stroke-linecap: round"/>
   </g>
   <g id="patch_69">
    <path d="M 55.028677 71.53044 
Q 59.839445 77.727866 64.650213 83.925292 
" clip-path="url(#pd30ca3d3e0)" style="fill: none; opacity: 0.994505; stroke: #030303; stroke-width: 0.989011; stroke-linecap: round"/>
   </g>
   <g id="patch_70">
    <path d="M 52.211136 78.464589 
Q 57.826337 81.872286 63.441538 85.279983 
" clip-path="url(#pd30ca3d3e0)" style="fill: none; opacity: 0.862637; stroke: #585858; stroke-width: 0.725275; stroke-linecap: round"/>
   </g>
   <g id="patch_71">
    <path d="M 75.183234 81.220645 
Q 84.927423 72.540584 94.671613 63.860524 
" clip-path="url(#pd30ca3d3e0)" style="fill: none; stroke: #000000; stroke-linecap: round"/>
   </g>
   <g id="patch_72">
    <path d="M 61.584269 79.975619 
Q 56.773501 73.778193 51.962733 67.580767 
" clip-path="url(#pd30ca3d3e0)" style="fill: none; opacity: 0.994505; stroke: #030303; stroke-width: 0.989011; stroke-linecap: round"/>
   </g>
   <g id="patch_73">
    <path d="M 59.168903 82.687049 
Q 53.553702 79.279352 47.938501 75.871655 
" clip-path="url(#pd30ca3d3e0)" style="fill: none; opacity: 0.862637; stroke: #585858; stroke-width: 0.725275; stroke-linecap: round"/>
   </g>
   <g id="patch_74">
    <path d="M 91.061441 57.081234 
Q 81.240607 65.57381 71.419774 74.066386 
" clip-path="url(#pd30ca3d3e0)" style="fill: none; opacity: 0.727273; stroke: #a4a4a4; stroke-width: 0.454545; stroke-linecap: round"/>
   </g>
   <g id="patch_75">
    <path d="M 64.826188 57.201366 
Q 65.885963 64.794316 66.945738 72.387266 
" clip-path="url(#pd30ca3d3e0)" style="fill: none; stroke: #000000; stroke-linecap: round"/>
   </g>
   <g id="patch_76">
    <path d="M 54.88764 61.386604 
Q 59.70122 67.409193 64.5148 73.431783 
" clip-path="url(#pd30ca3d3e0)" style="fill: none; opacity: 0.647129; stroke: #cfcfcf; stroke-width: 0.294258; stroke-linecap: round"/>
   </g>
   <g id="patch_77">
    <path d="M 75.20033 70.797146 
Q 85.021163 62.304571 94.841996 53.811995 
" clip-path="url(#pd30ca3d3e0)" style="fill: none; opacity: 0.727273; stroke: #a4a4a4; stroke-width: 0.454545; stroke-linecap: round"/>
   </g>
   <g id="patch_78">
    <path d="M 66.254222 67.432773 
Q 65.194447 59.839822 64.134672 52.246872 
" clip-path="url(#pd30ca3d3e0)" style="fill: none; stroke: #000000; stroke-linecap: round"/>
   </g>
   <g id="patch_79">
    <path d="M 61.393162 69.526095 
Q 56.579582 63.503505 51.766002 57.480915 
" clip-path="url(#pd30ca3d3e0)" style="fill: none; opacity: 0.647129; stroke: #cfcfcf; stroke-width: 0.294258; stroke-linecap: round"/>
   </g>
   <g id="patch_80">
    <path d="M 91.182952 46.779804 
Q 81.286351 55.074898 71.38975 63.369992 
" clip-path="url(#pd30ca3d3e0)" style="fill: none; opacity: 0.742366; stroke: #9c9c9c; stroke-width: 0.484733; stroke-linecap: round"/>
   </g>
   <g id="patch_81">
    <path d="M 64.75307 47.07625 
Q 65.799355 54.355426 66.84564 61.634603 
" clip-path="url(#pd30ca3d3e0)" style="fill: none; stroke: #000000; stroke-linecap: round"/>
   </g>
   <g id="patch_82">
    <path d="M 54.743796 51.036572 
Q 59.559641 56.879629 64.375486 62.722686 
" clip-path="url(#pd30ca3d3e0)" style="fill: none; opacity: 0.721374; stroke: #a8a8a8; stroke-width: 0.442748; stroke-linecap: round"/>
   </g>
   <g id="patch_83">
    <path d="M 75.223398 60.15672 
Q 85.119999 51.861625 95.016601 43.566531 
" clip-path="url(#pd30ca3d3e0)" style="fill: none; opacity: 0.742366; stroke: #9c9c9c; stroke-width: 0.484733; stroke-linecap: round"/>
   </g>
   <g id="patch_84">
    <path d="M 66.134585 56.687675 
Q 65.0883 49.408498 64.042015 42.129321 
" clip-path="url(#pd30ca3d3e0)" style="fill: none; stroke: #000000; stroke-linecap: round"/>
   </g>
   <g id="patch_85">
    <path d="M 61.198301 58.867812 
Q 56.382455 53.024754 51.56661 47.181697 
" clip-path="url(#pd30ca3d3e0)" style="fill: none; opacity: 0.721374; stroke: #a8a8a8; stroke-width: 0.442748; stroke-linecap: round"/>
   </g>
  </g>
 </g>
 <defs>
  <clipPath id="pd30ca3d3e0">
   <rect x="18.36" y="17.28" width="110.88" height="110.88"/>
  </clipPath>
 </defs>
</svg>
