<?xml version="1.0" encoding="utf-8" standalone="no"?>
<!DOCTYPE svg PUBLIC "-//W3C//DTD SVG 1.1//EN"
  "http://www.w3.org/Graphics/SVG/1.1/DTD/svg11.dtd">
<svg xmlns:xlink="http://www.w3.org/1999/xlink" width="144pt" height="144pt" viewBox="0 0 144 144" xmlns="http://www.w3.org/2000/svg" version="1.1">
 <metadata>
  <rdf:RDF xmlns:dc="http://purl.org/dc/elements/1.1/" xmlns:cc="http://creativecommons.org/ns#" xmlns:rdf="http://www.w3.org/1999/02/22-rdf-syntax-ns#">
   <cc:Work>
    <dc:type rdf:resource="http://purl.org/dc/dcmitype/StillImage"/>
    <dc:date>2025-06-03T17:18:18.605657</dc:date>
    <dc:format>image/svg+xml</dc:format>
    <dc:creator>
     <cc:Agent>
      <dc:title>Matplotlib v3.9.2, https://matplotlib.org/</dc:title>
     </cc:Agent>
    </dc:creator>
   </cc:Work>
  </rdf:RDF>
 </metadata>
 <defs>
  <style type="text/css">*{stroke-linejoin: round; stroke-linecap: butt}</style>
 </defs>
 <g id="figure_1">
  <g id="patch_1">
   <path d="M 0 144 
L 144 144 
L 144 0 
L 0 0 
z
" style="fill: #ffffff"/>
  </g>
  <g id="axes_1">
   <g id="patch_2">
    <path d="M 18 128.16 
L 129.6 128.16 
L 129.6 17.28 
L 18 17.28 
z
" style="fill: #ffffff"/>
   </g>
   <g id="matplotlib.axis_1">
    <g id="xtick_1">
     <g id="line2d_1">
      <defs>
       <path id="mdda3f62702" d="M 0 0 
L 0 3.5 
" style="stroke: #000000; stroke-width: 0.8"/>
      </defs>
      <g>
       <use xlink:href="#mdda3f62702" x="18" y="128.16" style="stroke: #000000; stroke-width: 0.8"/>
      </g>
     </g>
     <g id="text_1">
      <!-- 0.0 -->
      <g transform="translate(10.048437 142.758438) scale(0.1 -0.1)">
       <defs>
        <path id="DejaVuSerif-30" d="M 2034 219 
Q 2513 219 2750 744 
Q 2988 1269 2988 2328 
Q 2988 3391 2750 3916 
Q 2513 4441 2034 4441 
Q 1556 4441 1318 3916 
Q 1081 3391 1081 2328 
Q 1081 1269 1318 744 
Q 1556 219 2034 219 
z
M 2034 -91 
Q 1275 -91 848 546 
Q 422 1184 422 2328 
Q 422 3475 848 4112 
Q 1275 4750 2034 4750 
Q 2797 4750 3222 4112 
Q 3647 3475 3647 2328 
Q 3647 1184 3222 546 
Q 2797 -91 2034 -91 
z
" transform="scale(0.015625)"/>
        <path id="DejaVuSerif-2e" d="M 603 325 
Q 603 500 722 622 
Q 841 744 1019 744 
Q 1191 744 1312 622 
Q 1434 500 1434 325 
Q 1434 153 1312 31 
Q 1191 -91 1019 -91 
Q 841 -91 722 29 
Q 603 150 603 325 
z
" transform="scale(0.015625)"/>
       </defs>
       <use xlink:href="#DejaVuSerif-30"/>
       <use xlink:href="#DejaVuSerif-2e" x="63.623047"/>
       <use xlink:href="#DejaVuSerif-30" x="95.410156"/>
      </g>
     </g>
    </g>
    <g id="xtick_2">
     <g id="line2d_2">
      <g>
       <use xlink:href="#mdda3f62702" x="73.8" y="128.16" style="stroke: #000000; stroke-width: 0.8"/>
      </g>
     </g>
     <g id="text_2">
      <!-- 0.5 -->
      <g transform="translate(65.848438 142.758438) scale(0.1 -0.1)">
       <defs>
        <path id="DejaVuSerif-35" d="M 3219 4666 
L 3219 4153 
L 1081 4153 
L 1081 2816 
Q 1244 2928 1461 2984 
Q 1678 3041 1947 3041 
Q 2703 3041 3140 2622 
Q 3578 2203 3578 1478 
Q 3578 738 3136 323 
Q 2694 -91 1894 -91 
Q 1572 -91 1234 -12 
Q 897 66 544 225 
L 544 1131 
L 897 1131 
Q 925 688 1179 453 
Q 1434 219 1894 219 
Q 2388 219 2653 544 
Q 2919 869 2919 1478 
Q 2919 2084 2655 2407 
Q 2391 2731 1894 2731 
Q 1613 2731 1398 2631 
Q 1184 2531 1019 2322 
L 750 2322 
L 750 4666 
L 3219 4666 
z
" transform="scale(0.015625)"/>
       </defs>
       <use xlink:href="#DejaVuSerif-30"/>
       <use xlink:href="#DejaVuSerif-2e" x="63.623047"/>
       <use xlink:href="#DejaVuSerif-35" x="95.410156"/>
      </g>
     </g>
    </g>
    <g id="xtick_3">
     <g id="line2d_3">
      <g>
       <use xlink:href="#mdda3f62702" x="129.6" y="128.16" style="stroke: #000000; stroke-width: 0.8"/>
      </g>
     </g>
     <g id="text_3">
      <!-- 1.0 -->
      <g transform="translate(121.648438 142.758438) scale(0.1 -0.1)">
       <defs>
        <path id="DejaVuSerif-31" d="M 909 0 
L 909 331 
L 1722 331 
L 1722 4213 
L 781 3603 
L 781 4013 
L 1919 4750 
L 2350 4750 
L 2350 331 
L 3163 331 
L 3163 0 
L 909 0 
z
" transform="scale(0.015625)"/>
       </defs>
       <use xlink:href="#DejaVuSerif-31"/>
       <use xlink:href="#DejaVuSerif-2e" x="63.623047"/>
       <use xlink:href="#DejaVuSerif-30" x="95.410156"/>
      </g>
     </g>
    </g>
   </g>
   <g id="matplotlib.axis_2">
    <g id="ytick_1">
     <g id="line2d_4">
      <defs>
       <path id="m125af742c7" d="M 0 0 
L -3.5 0 
" style="stroke: #000000; stroke-width: 0.8"/>
      </defs>
      <g>
       <use xlink:href="#m125af742c7" x="18" y="128.16" style="stroke: #000000; stroke-width: 0.8"/>
      </g>
     </g>
     <g id="text_4">
      <!-- 0.0 -->
      <g transform="translate(-4.903125 131.959219) scale(0.1 -0.1)">
       <use xlink:href="#DejaVuSerif-30"/>
       <use xlink:href="#DejaVuSerif-2e" x="63.623047"/>
       <use xlink:href="#DejaVuSerif-30" x="95.410156"/>
      </g>
     </g>
    </g>
    <g id="ytick_2">
     <g id="line2d_5">
      <g>
       <use xlink:href="#m125af742c7" x="18" y="105.984" style="stroke: #000000; stroke-width: 0.8"/>
      </g>
     </g>
     <g id="text_5">
      <!-- 0.2 -->
      <g transform="translate(-4.903125 109.783219) scale(0.1 -0.1)">
       <defs>
        <path id="DejaVuSerif-32" d="M 819 3553 
L 469 3553 
L 469 4384 
Q 803 4563 1142 4656 
Q 1481 4750 1806 4750 
Q 2534 4750 2956 4397 
Q 3378 4044 3378 3438 
Q 3378 2753 2422 1800 
Q 2347 1728 2309 1691 
L 1131 513 
L 3078 513 
L 3078 1088 
L 3444 1088 
L 3444 0 
L 434 0 
L 434 341 
L 1850 1753 
Q 2319 2222 2519 2614 
Q 2719 3006 2719 3438 
Q 2719 3909 2473 4175 
Q 2228 4441 1797 4441 
Q 1350 4441 1106 4219 
Q 863 3997 819 3553 
z
" transform="scale(0.015625)"/>
       </defs>
       <use xlink:href="#DejaVuSerif-30"/>
       <use xlink:href="#DejaVuSerif-2e" x="63.623047"/>
       <use xlink:href="#DejaVuSerif-32" x="95.410156"/>
      </g>
     </g>
    </g>
    <g id="ytick_3">
     <g id="line2d_6">
      <g>
       <use xlink:href="#m125af742c7" x="18" y="83.808" style="stroke: #000000; stroke-width: 0.8"/>
      </g>
     </g>
     <g id="text_6">
      <!-- 0.4 -->
      <g transform="translate(-4.903125 87.607219) scale(0.1 -0.1)">
       <defs>
        <path id="DejaVuSerif-34" d="M 2234 1581 
L 2234 4063 
L 641 1581 
L 2234 1581 
z
M 3609 0 
L 1484 0 
L 1484 331 
L 2234 331 
L 2234 1247 
L 197 1247 
L 197 1588 
L 2241 4750 
L 2859 4750 
L 2859 1581 
L 3750 1581 
L 3750 1247 
L 2859 1247 
L 2859 331 
L 3609 331 
L 3609 0 
z
" transform="scale(0.015625)"/>
       </defs>
       <use xlink:href="#DejaVuSerif-30"/>
       <use xlink:href="#DejaVuSerif-2e" x="63.623047"/>
       <use xlink:href="#DejaVuSerif-34" x="95.410156"/>
      </g>
     </g>
    </g>
    <g id="ytick_4">
     <g id="line2d_7">
      <g>
       <use xlink:href="#m125af742c7" x="18" y="61.632" style="stroke: #000000; stroke-width: 0.8"/>
      </g>
     </g>
     <g id="text_7">
      <!-- 0.6 -->
      <g transform="translate(-4.903125 65.431219) scale(0.1 -0.1)">
       <defs>
        <path id="DejaVuSerif-36" d="M 2094 219 
Q 2534 219 2771 542 
Q 3009 866 3009 1472 
Q 3009 2078 2771 2401 
Q 2534 2725 2094 2725 
Q 1647 2725 1412 2412 
Q 1178 2100 1178 1509 
Q 1178 888 1415 553 
Q 1653 219 2094 219 
z
M 1075 2569 
Q 1288 2803 1556 2918 
Q 1825 3034 2163 3034 
Q 2859 3034 3264 2615 
Q 3669 2197 3669 1472 
Q 3669 763 3233 336 
Q 2797 -91 2069 -91 
Q 1278 -91 853 498 
Q 428 1088 428 2181 
Q 428 3406 931 4078 
Q 1434 4750 2350 4750 
Q 2597 4750 2869 4703 
Q 3141 4656 3425 4563 
L 3425 3794 
L 3072 3794 
Q 3034 4109 2831 4275 
Q 2628 4441 2284 4441 
Q 1678 4441 1381 3981 
Q 1084 3522 1075 2569 
z
" transform="scale(0.015625)"/>
       </defs>
       <use xlink:href="#DejaVuSerif-30"/>
       <use xlink:href="#DejaVuSerif-2e" x="63.623047"/>
       <use xlink:href="#DejaVuSerif-36" x="95.410156"/>
      </g>
     </g>
    </g>
    <g id="ytick_5">
     <g id="line2d_8">
      <g>
       <use xlink:href="#m125af742c7" x="18" y="39.456" style="stroke: #000000; stroke-width: 0.8"/>
      </g>
     </g>
     <g id="text_8">
      <!-- 0.8 -->
      <g transform="translate(-4.903125 43.255219) scale(0.1 -0.1)">
       <defs>
        <path id="DejaVuSerif-38" d="M 2981 1275 
Q 2981 1775 2732 2051 
Q 2484 2328 2034 2328 
Q 1584 2328 1336 2051 
Q 1088 1775 1088 1275 
Q 1088 772 1336 495 
Q 1584 219 2034 219 
Q 2484 219 2732 495 
Q 2981 772 2981 1275 
z
M 2853 3541 
Q 2853 3966 2637 4203 
Q 2422 4441 2034 4441 
Q 1650 4441 1433 4203 
Q 1216 3966 1216 3541 
Q 1216 3113 1433 2875 
Q 1650 2638 2034 2638 
Q 2422 2638 2637 2875 
Q 2853 3113 2853 3541 
z
M 2516 2484 
Q 3047 2413 3344 2092 
Q 3641 1772 3641 1275 
Q 3641 619 3225 264 
Q 2809 -91 2034 -91 
Q 1263 -91 845 264 
Q 428 619 428 1275 
Q 428 1772 725 2092 
Q 1022 2413 1556 2484 
Q 1084 2569 832 2842 
Q 581 3116 581 3541 
Q 581 4103 968 4426 
Q 1356 4750 2034 4750 
Q 2713 4750 3100 4426 
Q 3488 4103 3488 3541 
Q 3488 3116 3236 2842 
Q 2984 2569 2516 2484 
z
" transform="scale(0.015625)"/>
       </defs>
       <use xlink:href="#DejaVuSerif-30"/>
       <use xlink:href="#DejaVuSerif-2e" x="63.623047"/>
       <use xlink:href="#DejaVuSerif-38" x="95.410156"/>
      </g>
     </g>
    </g>
    <g id="ytick_6">
     <g id="line2d_9">
      <g>
       <use xlink:href="#m125af742c7" x="18" y="17.28" style="stroke: #000000; stroke-width: 0.8"/>
      </g>
     </g>
     <g id="text_9">
      <!-- 1.0 -->
      <g transform="translate(-4.903125 21.079219) scale(0.1 -0.1)">
       <use xlink:href="#DejaVuSerif-31"/>
       <use xlink:href="#DejaVuSerif-2e" x="63.623047"/>
       <use xlink:href="#DejaVuSerif-30" x="95.410156"/>
      </g>
     </g>
    </g>
   </g>
   <g id="patch_3">
    <path d="M 18 128.16 
L 18 17.28 
" style="fill: none; stroke: #000000; stroke-width: 0.8; stroke-linejoin: miter; stroke-linecap: square"/>
   </g>
   <g id="patch_4">
    <path d="M 129.6 128.16 
L 129.6 17.28 
" style="fill: none; stroke: #000000; stroke-width: 0.8; stroke-linejoin: miter; stroke-linecap: square"/>
   </g>
   <g id="patch_5">
    <path d="M 18 128.16 
L 129.6 128.16 
" style="fill: none; stroke: #000000; stroke-width: 0.8; stroke-linejoin: miter; stroke-linecap: square"/>
   </g>
   <g id="patch_6">
    <path d="M 18 17.28 
L 129.6 17.28 
" style="fill: none; stroke: #000000; stroke-width: 0.8; stroke-linejoin: miter; stroke-linecap: square"/>
   </g>
  </g>
  <g id="patch_7">
   <path d="M 18.36 128.16 
L 129.24 128.16 
L 129.24 17.28 
L 18.36 17.28 
z
" style="fill: #ffffff"/>
  </g>
  <g id="axes_2">
   <g id="patch_8">
    <path d="M 72.060598 75.987837 
Q 70.410979 76.095285 68.76136 76.202732 
" clip-path="url(#pf09a36daf9)" style="fill: none; opacity: 0.814516; stroke: #727272; stroke-width: 0.629032; stroke-linecap: round"/>
   </g>
   <g id="Path3DCollection_1">
    <path d="M 82.036969 78.873561 
C 82.974603 78.873561 83.873961 78.501035 84.536969 77.838027 
C 85.199977 77.175019 85.572503 76.275662 85.572503 75.338027 
C 85.572503 74.400393 85.199977 73.501035 84.536969 72.838027 
C 83.873961 72.175019 82.974603 71.802493 82.036969 71.802493 
C 81.099334 71.802493 80.199977 72.175019 79.536969 72.838027 
C 78.873961 73.501035 78.501435 74.400393 78.501435 75.338027 
C 78.501435 76.275662 78.873961 77.175019 79.536969 77.838027 
C 80.199977 78.501035 81.099334 78.873561 82.036969 78.873561 
z
" clip-path="url(#pf09a36daf9)" style="fill: #67000d; stroke: #ff0000; stroke-width: 2"/>
    <path d="M 63.769997 80.063378 
C 64.707632 80.063378 65.60699 79.690852 66.269997 79.027844 
C 66.933005 78.364836 67.305531 77.465479 67.305531 76.527844 
C 67.305531 75.59021 66.933005 74.690852 66.269997 74.027844 
C 65.60699 73.364836 64.707632 72.99231 63.769997 72.99231 
C 62.832363 72.99231 61.933005 73.364836 61.269997 74.027844 
C 60.60699 74.690852 60.234463 75.59021 60.234463 76.527844 
C 60.234463 77.465479 60.60699 78.364836 61.269997 79.027844 
C 61.933005 79.690852 62.832363 80.063378 63.769997 80.063378 
z
" clip-path="url(#pf09a36daf9)" style="fill: #67000d; stroke: #00ff00; stroke-width: 2"/>
    <path d="M 97.976735 83.503683 
C 98.91437 83.503683 99.813727 83.131157 100.476735 82.46815 
C 101.139743 81.805142 101.512269 80.905784 101.512269 79.96815 
C 101.512269 79.030515 101.139743 78.131157 100.476735 77.46815 
C 99.813727 76.805142 98.91437 76.432616 97.976735 76.432616 
C 97.0391 76.432616 96.139743 76.805142 95.476735 77.46815 
C 94.813727 78.131157 94.441201 79.030515 94.441201 79.96815 
C 94.441201 80.905784 94.813727 81.805142 95.476735 82.46815 
C 96.139743 83.131157 97.0391 83.503683 97.976735 83.503683 
z
" clip-path="url(#pf09a36daf9)" style="fill: #67000d; stroke: #00ff00; stroke-width: 2"/>
    <path d="M 49.391636 83.537671 
C 49.485399 83.537671 49.575335 83.500419 49.641636 83.434118 
C 49.707936 83.367817 49.745189 83.277881 49.745189 83.184118 
C 49.745189 83.090354 49.707936 83.000419 49.641636 82.934118 
C 49.575335 82.867817 49.485399 82.830565 49.391636 82.830565 
C 49.297872 82.830565 49.207936 82.867817 49.141636 82.934118 
C 49.075335 83.000419 49.038082 83.090354 49.038082 83.184118 
C 49.038082 83.277881 49.075335 83.367817 49.141636 83.434118 
C 49.207936 83.500419 49.297872 83.537671 49.391636 83.537671 
z
" clip-path="url(#pf09a36daf9)" style="fill: #fff5f0; stroke: #00ff00; stroke-width: 2"/>
    <path d="M 105.914786 89.354064 
C 106.00855 89.354064 106.098485 89.316812 106.164786 89.250511 
C 106.231087 89.18421 106.268339 89.094274 106.268339 89.000511 
C 106.268339 88.906747 106.231087 88.816812 106.164786 88.750511 
C 106.098485 88.68421 106.00855 88.646957 105.914786 88.646957 
C 105.821023 88.646957 105.731087 88.68421 105.664786 88.750511 
C 105.598485 88.816812 105.561233 88.906747 105.561233 89.000511 
C 105.561233 89.094274 105.598485 89.18421 105.664786 89.250511 
C 105.731087 89.316812 105.821023 89.354064 105.914786 89.354064 
z
" clip-path="url(#pf09a36daf9)" style="fill: #fff5f0; stroke: #00ff00; stroke-width: 2"/>
    <path d="M 44.273099 93.544363 
C 44.366863 93.544363 44.456799 93.507111 44.523099 93.44081 
C 44.5894 93.374509 44.626653 93.284573 44.626653 93.19081 
C 44.626653 93.097046 44.5894 93.007111 44.523099 92.94081 
C 44.456799 92.874509 44.366863 92.837256 44.273099 92.837256 
C 44.179336 92.837256 44.0894 92.874509 44.023099 92.94081 
C 43.956799 93.007111 43.919546 93.097046 43.919546 93.19081 
C 43.919546 93.284573 43.956799 93.374509 44.023099 93.44081 
C 44.0894 93.507111 44.179336 93.544363 44.273099 93.544363 
z
" clip-path="url(#pf09a36daf9)" style="fill: #fff5f0; stroke: #00ff00; stroke-width: 2"/>
    <path d="M 102.317046 102.875231 
C 103.25468 102.875231 104.154038 102.502704 104.817046 101.839697 
C 105.480054 101.176689 105.85258 100.277331 105.85258 99.339697 
C 105.85258 98.402062 105.480054 97.502704 104.817046 96.839697 
C 104.154038 96.176689 103.25468 95.804163 102.317046 95.804163 
C 101.379411 95.804163 100.480054 96.176689 99.817046 96.839697 
C 99.154038 97.502704 98.781512 98.402062 98.781512 99.339697 
C 98.781512 100.277331 99.154038 101.176689 99.817046 101.839697 
C 100.480054 102.502704 101.379411 102.875231 102.317046 102.875231 
z
" clip-path="url(#pf09a36daf9)" style="fill: #67000d; stroke: #00ff00; stroke-width: 2"/>
    <path d="M 51.095278 103.271766 
C 51.189042 103.271766 51.278977 103.234513 51.345278 103.168212 
C 51.411579 103.101911 51.448832 103.011976 51.448832 102.918212 
C 51.448832 102.824449 51.411579 102.734513 51.345278 102.668212 
C 51.278977 102.601911 51.189042 102.564659 51.095278 102.564659 
C 51.001515 102.564659 50.911579 102.601911 50.845278 102.668212 
C 50.778977 102.734513 50.741725 102.824449 50.741725 102.918212 
C 50.741725 103.011976 50.778977 103.101911 50.845278 103.168212 
C 50.911579 103.234513 51.001515 103.271766 51.095278 103.271766 
z
" clip-path="url(#pf09a36daf9)" style="fill: #fff5f0; stroke: #00ff00; stroke-width: 2"/>
    <path d="M 87.764928 110.433215 
C 88.702563 110.433215 89.60192 110.060689 90.264928 109.397681 
C 90.927936 108.734673 91.300462 107.835316 91.300462 106.897681 
C 91.300462 105.960046 90.927936 105.060689 90.264928 104.397681 
C 89.60192 103.734673 88.702563 103.362147 87.764928 103.362147 
C 86.827294 103.362147 85.927936 103.734673 85.264928 104.397681 
C 84.60192 105.060689 84.229394 105.960046 84.229394 106.897681 
C 84.229394 107.835316 84.60192 108.734673 85.264928 109.397681 
C 85.927936 110.060689 86.827294 110.433215 87.764928 110.433215 
z
" clip-path="url(#pf09a36daf9)" style="fill: #67000d; stroke: #ff0000; stroke-width: 2"/>
    <path d="M 67.86666 111.847611 
C 68.804295 111.847611 69.703652 111.475085 70.36666 110.812077 
C 71.029668 110.149069 71.402194 109.249711 71.402194 108.312077 
C 71.402194 107.374442 71.029668 106.475085 70.36666 105.812077 
C 69.703652 105.149069 68.804295 104.776543 67.86666 104.776543 
C 66.929025 104.776543 66.029668 105.149069 65.36666 105.812077 
C 64.703652 106.475085 64.331126 107.374442 64.331126 108.312077 
C 64.331126 109.249711 64.703652 110.149069 65.36666 110.812077 
C 66.029668 111.475085 66.929025 111.847611 67.86666 111.847611 
z
" clip-path="url(#pf09a36daf9)" style="fill: #67000d; stroke: #00ff00; stroke-width: 2"/>
   </g>
   <g id="patch_9">
    <path d="M 73.746368 75.878034 
Q 75.395987 75.770587 77.045606 75.663139 
" clip-path="url(#pf09a36daf9)" style="fill: none; opacity: 0.814516; stroke: #727272; stroke-width: 0.629032; stroke-linecap: round"/>
   </g>
   <g id="Path3DCollection_2">
    <path d="M 82.099153 66.1499 
C 82.192916 66.1499 82.282852 66.112647 82.349153 66.046346 
C 82.415453 65.980045 82.452706 65.89011 82.452706 65.796346 
C 82.452706 65.702583 82.415453 65.612647 82.349153 65.546346 
C 82.282852 65.480045 82.192916 65.442793 82.099153 65.442793 
C 82.005389 65.442793 81.915453 65.480045 81.849153 65.546346 
C 81.782852 65.612647 81.745599 65.702583 81.745599 65.796346 
C 81.745599 65.89011 81.782852 65.980045 81.849153 66.046346 
C 81.915453 66.112647 82.005389 66.1499 82.099153 66.1499 
z
" clip-path="url(#pf09a36daf9)" style="fill: #f7fbff; stroke: #ff0000; stroke-width: 2"/>
    <path d="M 63.663248 70.499992 
C 64.600883 70.499992 65.500241 70.127465 66.163248 69.464458 
C 66.826256 68.80145 67.198782 67.902092 67.198782 66.964458 
C 67.198782 66.026823 66.826256 65.127465 66.163248 64.464458 
C 65.500241 63.80145 64.600883 63.428924 63.663248 63.428924 
C 62.725614 63.428924 61.826256 63.80145 61.163248 64.464458 
C 60.500241 65.127465 60.127715 66.026823 60.127715 66.964458 
C 60.127715 67.902092 60.500241 68.80145 61.163248 69.464458 
C 61.826256 70.127465 62.725614 70.499992 63.663248 70.499992 
z
" clip-path="url(#pf09a36daf9)" style="fill: #08306b; stroke: #00ff00; stroke-width: 2"/>
    <path d="M 98.188804 73.877948 
C 99.126439 73.877948 100.025797 73.505422 100.688804 72.842415 
C 101.351812 72.179407 101.724338 71.280049 101.724338 70.342415 
C 101.724338 69.40478 101.351812 68.505422 100.688804 67.842415 
C 100.025797 67.179407 99.126439 66.806881 98.188804 66.806881 
C 97.25117 66.806881 96.351812 67.179407 95.688804 67.842415 
C 95.025797 68.505422 94.653271 69.40478 94.653271 70.342415 
C 94.653271 71.280049 95.025797 72.179407 95.688804 72.842415 
C 96.351812 73.505422 97.25117 73.877948 98.188804 73.877948 
z
" clip-path="url(#pf09a36daf9)" style="fill: #08306b; stroke: #00ff00; stroke-width: 2"/>
    <path d="M 49.14716 73.854208 
C 49.240924 73.854208 49.330859 73.816955 49.39716 73.750654 
C 49.463461 73.684353 49.500714 73.594418 49.500714 73.500654 
C 49.500714 73.406891 49.463461 73.316955 49.39716 73.250654 
C 49.330859 73.184353 49.240924 73.147101 49.14716 73.147101 
C 49.053397 73.147101 48.963461 73.184353 48.89716 73.250654 
C 48.830859 73.316955 48.793607 73.406891 48.793607 73.500654 
C 48.793607 73.594418 48.830859 73.684353 48.89716 73.750654 
C 48.963461 73.816955 49.053397 73.854208 49.14716 73.854208 
z
" clip-path="url(#pf09a36daf9)" style="fill: #f7fbff; stroke: #00ff00; stroke-width: 2"/>
    <path d="M 106.208444 82.749533 
C 107.146079 82.749533 108.045437 82.377007 108.708444 81.713999 
C 109.371452 81.050991 109.743978 80.151634 109.743978 79.213999 
C 109.743978 78.276364 109.371452 77.377007 108.708444 76.713999 
C 108.045437 76.050991 107.146079 75.678465 106.208444 75.678465 
C 105.27081 75.678465 104.371452 76.050991 103.708444 76.713999 
C 103.045437 77.377007 102.67291 78.276364 102.67291 79.213999 
C 102.67291 80.151634 103.045437 81.050991 103.708444 81.713999 
C 104.371452 82.377007 105.27081 82.749533 106.208444 82.749533 
z
" clip-path="url(#pf09a36daf9)" style="fill: #08306b; stroke: #00ff00; stroke-width: 2"/>
    <path d="M 43.972059 83.684699 
C 44.065822 83.684699 44.155758 83.647446 44.222059 83.581145 
C 44.288359 83.514844 44.325612 83.424909 44.325612 83.331145 
C 44.325612 83.237382 44.288359 83.147446 44.222059 83.081145 
C 44.155758 83.014844 44.065822 82.977592 43.972059 82.977592 
C 43.878295 82.977592 43.788359 83.014844 43.722059 83.081145 
C 43.655758 83.147446 43.618505 83.237382 43.618505 83.331145 
C 43.618505 83.424909 43.655758 83.514844 43.722059 83.581145 
C 43.788359 83.647446 43.878295 83.684699 43.972059 83.684699 
z
" clip-path="url(#pf09a36daf9)" style="fill: #f7fbff; stroke: #00ff00; stroke-width: 2"/>
    <path d="M 102.583634 89.727887 
C 102.677397 89.727887 102.767333 89.690635 102.833634 89.624334 
C 102.899935 89.558033 102.937187 89.468098 102.937187 89.374334 
C 102.937187 89.280571 102.899935 89.190635 102.833634 89.124334 
C 102.767333 89.058033 102.677397 89.020781 102.583634 89.020781 
C 102.48987 89.020781 102.399935 89.058033 102.333634 89.124334 
C 102.267333 89.190635 102.23008 89.280571 102.23008 89.374334 
C 102.23008 89.468098 102.267333 89.558033 102.333634 89.624334 
C 102.399935 89.690635 102.48987 89.727887 102.583634 89.727887 
z
" clip-path="url(#pf09a36daf9)" style="fill: #f7fbff; stroke: #00ff00; stroke-width: 2"/>
    <path d="M 50.854164 93.245791 
C 50.947928 93.245791 51.037863 93.208539 51.104164 93.142238 
C 51.170465 93.075937 51.207717 92.986001 51.207717 92.892238 
C 51.207717 92.798475 51.170465 92.708539 51.104164 92.642238 
C 51.037863 92.575937 50.947928 92.538685 50.854164 92.538685 
C 50.760401 92.538685 50.670465 92.575937 50.604164 92.642238 
C 50.537863 92.708539 50.500611 92.798475 50.500611 92.892238 
C 50.500611 92.986001 50.537863 93.075937 50.604164 93.142238 
C 50.670465 93.208539 50.760401 93.245791 50.854164 93.245791 
z
" clip-path="url(#pf09a36daf9)" style="fill: #f7fbff; stroke: #00ff00; stroke-width: 2"/>
    <path d="M 87.890443 97.158637 
C 87.984206 97.158637 88.074142 97.121385 88.140443 97.055084 
C 88.206744 96.988783 88.243996 96.898847 88.243996 96.805084 
C 88.243996 96.71132 88.206744 96.621385 88.140443 96.555084 
C 88.074142 96.488783 87.984206 96.451531 87.890443 96.451531 
C 87.796679 96.451531 87.706744 96.488783 87.640443 96.555084 
C 87.574142 96.621385 87.536889 96.71132 87.536889 96.805084 
C 87.536889 96.898847 87.574142 96.988783 87.640443 97.055084 
C 87.706744 97.121385 87.796679 97.158637 87.890443 97.158637 
z
" clip-path="url(#pf09a36daf9)" style="fill: #f7fbff; stroke: #ff0000; stroke-width: 2"/>
    <path d="M 67.791556 101.731532 
C 68.729191 101.731532 69.628549 101.359006 70.291556 100.695998 
C 70.954564 100.032991 71.32709 99.133633 71.32709 98.195998 
C 71.32709 97.258364 70.954564 96.359006 70.291556 95.695998 
C 69.628549 95.032991 68.729191 94.660464 67.791556 94.660464 
C 66.853922 94.660464 65.954564 95.032991 65.291556 95.695998 
C 64.628549 96.359006 64.256023 97.258364 64.256023 98.195998 
C 64.256023 99.133633 64.628549 100.032991 65.291556 100.695998 
C 65.954564 101.359006 66.853922 101.731532 67.791556 101.731532 
z
" clip-path="url(#pf09a36daf9)" style="fill: #08306b; stroke: #00ff00; stroke-width: 2"/>
   </g>
   <g id="patch_10">
    <path d="M 88.376295 77.17945 
Q 87.607094 76.956016 86.837894 76.732581 
" clip-path="url(#pf09a36daf9)" style="fill: none; stroke: #000000; stroke-linecap: round"/>
   </g>
   <g id="Path3DCollection_3">
    <path d="M 82.162495 56.430477 
C 82.256258 56.430477 82.346194 56.393224 82.412495 56.326923 
C 82.478796 56.260623 82.516048 56.170687 82.516048 56.076923 
C 82.516048 55.98316 82.478796 55.893224 82.412495 55.826923 
C 82.346194 55.760623 82.256258 55.72337 82.162495 55.72337 
C 82.068731 55.72337 81.978796 55.760623 81.912495 55.826923 
C 81.846194 55.893224 81.808941 55.98316 81.808941 56.076923 
C 81.808941 56.170687 81.846194 56.260623 81.912495 56.326923 
C 81.978796 56.393224 82.068731 56.430477 82.162495 56.430477 
z
" clip-path="url(#pf09a36daf9)" style="fill: #f7fcf5; stroke: #ff0000; stroke-width: 2"/>
    <path d="M 63.554504 60.757842 
C 64.492139 60.757842 65.391496 60.385316 66.054504 59.722308 
C 66.717512 59.059301 67.090038 58.159943 67.090038 57.222308 
C 67.090038 56.284674 66.717512 55.385316 66.054504 54.722308 
C 65.391496 54.059301 64.492139 53.686775 63.554504 53.686775 
C 62.61687 53.686775 61.717512 54.059301 61.054504 54.722308 
C 60.391496 55.385316 60.01897 56.284674 60.01897 57.222308 
C 60.01897 58.159943 60.391496 59.059301 61.054504 59.722308 
C 61.717512 60.385316 62.61687 60.757842 63.554504 60.757842 
z
" clip-path="url(#pf09a36daf9)" style="fill: #00441b; stroke: #00ff00; stroke-width: 2"/>
    <path d="M 98.404877 64.07049 
C 99.342512 64.07049 100.24187 63.697964 100.904877 63.034956 
C 101.567885 62.371948 101.940411 61.472591 101.940411 60.534956 
C 101.940411 59.597322 101.567885 58.697964 100.904877 58.034956 
C 100.24187 57.371948 99.342512 56.999422 98.404877 56.999422 
C 97.467243 56.999422 96.567885 57.371948 95.904877 58.034956 
C 95.24187 58.697964 94.869344 59.597322 94.869344 60.534956 
C 94.869344 61.472591 95.24187 62.371948 95.904877 63.034956 
C 96.567885 63.697964 97.467243 64.07049 98.404877 64.07049 
z
" clip-path="url(#pf09a36daf9)" style="fill: #00441b; stroke: #00ff00; stroke-width: 2"/>
    <path d="M 48.898027 63.986242 
C 48.99179 63.986242 49.081726 63.948989 49.148027 63.882688 
C 49.214328 63.816388 49.25158 63.726452 49.25158 63.632688 
C 49.25158 63.538925 49.214328 63.448989 49.148027 63.382688 
C 49.081726 63.316388 48.99179 63.279135 48.898027 63.279135 
C 48.804263 63.279135 48.714328 63.316388 48.648027 63.382688 
C 48.581726 63.448989 48.544473 63.538925 48.544473 63.632688 
C 48.544473 63.726452 48.581726 63.816388 48.648027 63.882688 
C 48.714328 63.948989 48.804263 63.986242 48.898027 63.986242 
z
" clip-path="url(#pf09a36daf9)" style="fill: #f7fcf5; stroke: #00ff00; stroke-width: 2"/>
    <path d="M 106.507791 72.773468 
C 107.445425 72.773468 108.344783 72.400941 109.007791 71.737934 
C 109.670798 71.074926 110.043324 70.175568 110.043324 69.237934 
C 110.043324 68.300299 109.670798 67.400941 109.007791 66.737934 
C 108.344783 66.074926 107.445425 65.7024 106.507791 65.7024 
C 105.570156 65.7024 104.670798 66.074926 104.007791 66.737934 
C 103.344783 67.400941 102.972257 68.300299 102.972257 69.237934 
C 102.972257 70.175568 103.344783 71.074926 104.007791 71.737934 
C 104.670798 72.400941 105.570156 72.773468 106.507791 72.773468 
z
" clip-path="url(#pf09a36daf9)" style="fill: #00441b; stroke: #00ff00; stroke-width: 2"/>
    <path d="M 43.665119 73.631821 
C 43.758882 73.631821 43.848818 73.594568 43.915119 73.528268 
C 43.981419 73.461967 44.018672 73.372031 44.018672 73.278268 
C 44.018672 73.184504 43.981419 73.094568 43.915119 73.028268 
C 43.848818 72.961967 43.758882 72.924714 43.665119 72.924714 
C 43.571355 72.924714 43.481419 72.961967 43.415119 73.028268 
C 43.348818 73.094568 43.311565 73.184504 43.311565 73.278268 
C 43.311565 73.372031 43.348818 73.461967 43.415119 73.528268 
C 43.481419 73.594568 43.571355 73.631821 43.665119 73.631821 
z
" clip-path="url(#pf09a36daf9)" style="fill: #f7fcf5; stroke: #00ff00; stroke-width: 2"/>
    <path d="M 102.855535 82.745893 
C 103.793169 82.745893 104.692527 82.373367 105.355535 81.710359 
C 106.018543 81.047352 106.391069 80.147994 106.391069 79.210359 
C 106.391069 78.272725 106.018543 77.373367 105.355535 76.710359 
C 104.692527 76.047352 103.793169 75.674825 102.855535 75.674825 
C 101.9179 75.674825 101.018543 76.047352 100.355535 76.710359 
C 99.692527 77.373367 99.320001 78.272725 99.320001 79.210359 
C 99.320001 80.147994 99.692527 81.047352 100.355535 81.710359 
C 101.018543 82.373367 101.9179 82.745893 102.855535 82.745893 
z
" clip-path="url(#pf09a36daf9)" style="fill: #00441b; stroke: #00ff00; stroke-width: 2"/>
    <path d="M 50.608198 83.018047 
C 50.701961 83.018047 50.791897 82.980795 50.858198 82.914494 
C 50.924498 82.848193 50.961751 82.758257 50.961751 82.664494 
C 50.961751 82.570731 50.924498 82.480795 50.858198 82.414494 
C 50.791897 82.348193 50.701961 82.310941 50.608198 82.310941 
C 50.514434 82.310941 50.424498 82.348193 50.358198 82.414494 
C 50.291897 82.480795 50.254644 82.570731 50.254644 82.664494 
C 50.254644 82.758257 50.291897 82.848193 50.358198 82.914494 
C 50.424498 82.980795 50.514434 83.018047 50.608198 83.018047 
z
" clip-path="url(#pf09a36daf9)" style="fill: #f7fcf5; stroke: #00ff00; stroke-width: 2"/>
    <path d="M 88.018511 86.860746 
C 88.112274 86.860746 88.20221 86.823494 88.268511 86.757193 
C 88.334812 86.690892 88.372064 86.600956 88.372064 86.507193 
C 88.372064 86.41343 88.334812 86.323494 88.268511 86.257193 
C 88.20221 86.190892 88.112274 86.15364 88.018511 86.15364 
C 87.924747 86.15364 87.834812 86.190892 87.768511 86.257193 
C 87.70221 86.323494 87.664957 86.41343 87.664957 86.507193 
C 87.664957 86.600956 87.70221 86.690892 87.768511 86.757193 
C 87.834812 86.823494 87.924747 86.860746 88.018511 86.860746 
z
" clip-path="url(#pf09a36daf9)" style="fill: #f7fcf5; stroke: #ff0000; stroke-width: 2"/>
    <path d="M 67.71492 88.226924 
C 67.808683 88.226924 67.898619 88.189671 67.96492 88.12337 
C 68.03122 88.057069 68.068473 87.967134 68.068473 87.87337 
C 68.068473 87.779607 68.03122 87.689671 67.96492 87.62337 
C 67.898619 87.557069 67.808683 87.519817 67.71492 87.519817 
C 67.621156 87.519817 67.53122 87.557069 67.46492 87.62337 
C 67.398619 87.689671 67.361366 87.779607 67.361366 87.87337 
C 67.361366 87.967134 67.398619 88.057069 67.46492 88.12337 
C 67.53122 88.189671 67.621156 88.226924 67.71492 88.226924 
z
" clip-path="url(#pf09a36daf9)" style="fill: #f7fcf5; stroke: #00ff00; stroke-width: 2"/>
   </g>
   <g id="patch_11">
    <path d="M 88.026216 78.967387 
Q 78.386797 77.997913 68.747378 77.028439 
" clip-path="url(#pf09a36daf9)" style="fill: none; opacity: 0.741935; stroke: #9c9c9c; stroke-width: 0.483871; stroke-linecap: round"/>
   </g>
   <g id="Path3DCollection_4">
    <path d="M 82.227028 46.528299 
C 82.320791 46.528299 82.410727 46.491047 82.477028 46.424746 
C 82.543329 46.358445 82.580581 46.268509 82.580581 46.174746 
C 82.580581 46.080982 82.543329 45.991047 82.477028 45.924746 
C 82.410727 45.858445 82.320791 45.821192 82.227028 45.821192 
C 82.133265 45.821192 82.043329 45.858445 81.977028 45.924746 
C 81.910727 45.991047 81.873475 46.080982 81.873475 46.174746 
C 81.873475 46.268509 81.910727 46.358445 81.977028 46.424746 
C 82.043329 46.491047 82.133265 46.528299 82.227028 46.528299 
z
" clip-path="url(#pf09a36daf9)" style="fill: #fff5eb; stroke: #ff0000; stroke-width: 2"/>
    <path d="M 63.443708 47.64989 
C 63.537471 47.64989 63.627407 47.612638 63.693708 47.546337 
C 63.760009 47.480036 63.797261 47.3901 63.797261 47.296337 
C 63.797261 47.202573 63.760009 47.112638 63.693708 47.046337 
C 63.627407 46.980036 63.537471 46.942784 63.443708 46.942784 
C 63.349944 46.942784 63.260009 46.980036 63.193708 47.046337 
C 63.127407 47.112638 63.090155 47.202573 63.090155 47.296337 
C 63.090155 47.3901 63.127407 47.480036 63.193708 47.546337 
C 63.260009 47.612638 63.349944 47.64989 63.443708 47.64989 
z
" clip-path="url(#pf09a36daf9)" style="fill: #fff5eb; stroke: #00ff00; stroke-width: 2"/>
    <path d="M 98.625069 54.076113 
C 99.562703 54.076113 100.462061 53.703587 101.125069 53.040579 
C 101.788076 52.377572 102.160603 51.478214 102.160603 50.540579 
C 102.160603 49.602945 101.788076 48.703587 101.125069 48.040579 
C 100.462061 47.377572 99.562703 47.005046 98.625069 47.005046 
C 97.687434 47.005046 96.788076 47.377572 96.125069 48.040579 
C 95.462061 48.703587 95.089535 49.602945 95.089535 50.540579 
C 95.089535 51.478214 95.462061 52.377572 96.125069 53.040579 
C 96.788076 53.703587 97.687434 54.076113 98.625069 54.076113 
z
" clip-path="url(#pf09a36daf9)" style="fill: #7f2704; stroke: #00ff00; stroke-width: 2"/>
    <path d="M 48.644101 53.928451 
C 48.737864 53.928451 48.8278 53.891198 48.894101 53.824897 
C 48.960402 53.758596 48.997654 53.668661 48.997654 53.574897 
C 48.997654 53.481134 48.960402 53.391198 48.894101 53.324897 
C 48.8278 53.258596 48.737864 53.221344 48.644101 53.221344 
C 48.550338 53.221344 48.460402 53.258596 48.394101 53.324897 
C 48.3278 53.391198 48.290548 53.481134 48.290548 53.574897 
C 48.290548 53.668661 48.3278 53.758596 48.394101 53.824897 
C 48.460402 53.891198 48.550338 53.928451 48.644101 53.928451 
z
" clip-path="url(#pf09a36daf9)" style="fill: #fff5eb; stroke: #00ff00; stroke-width: 2"/>
    <path d="M 106.812991 59.420307 
C 106.906755 59.420307 106.996691 59.383055 107.062991 59.316754 
C 107.129292 59.250453 107.166545 59.160517 107.166545 59.066754 
C 107.166545 58.972991 107.129292 58.883055 107.062991 58.816754 
C 106.996691 58.750453 106.906755 58.713201 106.812991 58.713201 
C 106.719228 58.713201 106.629292 58.750453 106.562991 58.816754 
C 106.496691 58.883055 106.459438 58.972991 106.459438 59.066754 
C 106.459438 59.160517 106.496691 59.250453 106.562991 59.316754 
C 106.629292 59.383055 106.719228 59.420307 106.812991 59.420307 
z
" clip-path="url(#pf09a36daf9)" style="fill: #fff5eb; stroke: #00ff00; stroke-width: 2"/>
    <path d="M 43.352104 66.561975 
C 44.289739 66.561975 45.189097 66.189449 45.852104 65.526441 
C 46.515112 64.863434 46.887638 63.964076 46.887638 63.026441 
C 46.887638 62.088807 46.515112 61.189449 45.852104 60.526441 
C 45.189097 59.863434 44.289739 59.490907 43.352104 59.490907 
C 42.41447 59.490907 41.515112 59.863434 40.852104 60.526441 
C 40.189097 61.189449 39.81657 62.088807 39.81657 63.026441 
C 39.81657 63.964076 40.189097 64.863434 40.852104 65.526441 
C 41.515112 66.189449 42.41447 66.561975 43.352104 66.561975 
z
" clip-path="url(#pf09a36daf9)" style="fill: #7f2704; stroke: #00ff00; stroke-width: 2"/>
    <path d="M 103.132909 72.377309 
C 104.070544 72.377309 104.969902 72.004783 105.632909 71.341775 
C 106.295917 70.678767 106.668443 69.779409 106.668443 68.841775 
C 106.668443 67.90414 106.295917 67.004783 105.632909 66.341775 
C 104.969902 65.678767 104.070544 65.306241 103.132909 65.306241 
C 102.195275 65.306241 101.295917 65.678767 100.632909 66.341775 
C 99.969902 67.004783 99.597376 67.90414 99.597376 68.841775 
C 99.597376 69.779409 99.969902 70.678767 100.632909 71.341775 
C 101.295917 72.004783 102.195275 72.377309 103.132909 72.377309 
z
" clip-path="url(#pf09a36daf9)" style="fill: #7f2704; stroke: #00ff00; stroke-width: 2"/>
    <path d="M 50.357231 75.764361 
C 51.294866 75.764361 52.194223 75.391835 52.857231 74.728827 
C 53.520239 74.06582 53.892765 73.166462 53.892765 72.228827 
C 53.892765 71.291193 53.520239 70.391835 52.857231 69.728827 
C 52.194223 69.06582 51.294866 68.693294 50.357231 68.693294 
C 49.419596 68.693294 48.520239 69.06582 47.857231 69.728827 
C 47.194223 70.391835 46.821697 71.291193 46.821697 72.228827 
C 46.821697 73.166462 47.194223 74.06582 47.857231 74.728827 
C 48.520239 75.391835 49.419596 75.764361 50.357231 75.764361 
z
" clip-path="url(#pf09a36daf9)" style="fill: #7f2704; stroke: #00ff00; stroke-width: 2"/>
    <path d="M 88.14921 76.351233 
C 88.242974 76.351233 88.33291 76.313981 88.39921 76.24768 
C 88.465511 76.181379 88.502764 76.091443 88.502764 75.99768 
C 88.502764 75.903916 88.465511 75.813981 88.39921 75.74768 
C 88.33291 75.681379 88.242974 75.644127 88.14921 75.644127 
C 88.055447 75.644127 87.965511 75.681379 87.89921 75.74768 
C 87.83291 75.813981 87.795657 75.903916 87.795657 75.99768 
C 87.795657 76.091443 87.83291 76.181379 87.89921 76.24768 
C 87.965511 76.313981 88.055447 76.351233 88.14921 76.351233 
z
" clip-path="url(#pf09a36daf9)" style="fill: #fff5eb; stroke: #ff0000; stroke-width: 2"/>
    <path d="M 67.636702 77.691355 
C 67.730465 77.691355 67.820401 77.654102 67.886702 77.587801 
C 67.953002 77.521501 67.990255 77.431565 67.990255 77.337801 
C 67.990255 77.244038 67.953002 77.154102 67.886702 77.087801 
C 67.820401 77.021501 67.730465 76.984248 67.636702 76.984248 
C 67.542938 76.984248 67.453002 77.021501 67.386702 77.087801 
C 67.320401 77.154102 67.283148 77.244038 67.283148 77.337801 
C 67.283148 77.431565 67.320401 77.521501 67.386702 77.587801 
C 67.453002 77.654102 67.542938 77.691355 67.636702 77.691355 
z
" clip-path="url(#pf09a36daf9)" style="fill: #fff5eb; stroke: #00ff00; stroke-width: 2"/>
   </g>
   <g id="patch_12">
    <path d="M 91.637409 78.126726 
Q 92.40661 78.350161 93.17581 78.573595 
" clip-path="url(#pf09a36daf9)" style="fill: none; stroke: #000000; stroke-linecap: round"/>
   </g>
   <g id="Path3DCollection_5">
    <path d="M 82.292786 36.438163 
C 82.38655 36.438163 82.476485 36.400911 82.542786 36.33461 
C 82.609087 36.268309 82.64634 36.178373 82.64634 36.08461 
C 82.64634 35.990846 82.609087 35.900911 82.542786 35.83461 
C 82.476485 35.768309 82.38655 35.731056 82.292786 35.731056 
C 82.199023 35.731056 82.109087 35.768309 82.042786 35.83461 
C 81.976485 35.900911 81.939233 35.990846 81.939233 36.08461 
C 81.939233 36.178373 81.976485 36.268309 82.042786 36.33461 
C 82.109087 36.400911 82.199023 36.438163 82.292786 36.438163 
z
" clip-path="url(#pf09a36daf9)" style="fill: #fcfbfd; stroke: #ff0000; stroke-width: 2"/>
    <path d="M 63.330801 37.534844 
C 63.424565 37.534844 63.5145 37.497592 63.580801 37.431291 
C 63.647102 37.36499 63.684355 37.275054 63.684355 37.181291 
C 63.684355 37.087527 63.647102 36.997592 63.580801 36.931291 
C 63.5145 36.86499 63.424565 36.827737 63.330801 36.827737 
C 63.237038 36.827737 63.147102 36.86499 63.080801 36.931291 
C 63.0145 36.997592 62.977248 37.087527 62.977248 37.181291 
C 62.977248 37.275054 63.0145 37.36499 63.080801 37.431291 
C 63.147102 37.497592 63.237038 37.534844 63.330801 37.534844 
z
" clip-path="url(#pf09a36daf9)" style="fill: #fcfbfd; stroke: #00ff00; stroke-width: 2"/>
    <path d="M 98.849497 43.889423 
C 99.787131 43.889423 100.686489 43.516897 101.349497 42.853889 
C 102.012504 42.190881 102.385031 41.291524 102.385031 40.353889 
C 102.385031 39.416255 102.012504 38.516897 101.349497 37.853889 
C 100.686489 37.190881 99.787131 36.818355 98.849497 36.818355 
C 97.911862 36.818355 97.012504 37.190881 96.349497 37.853889 
C 95.686489 38.516897 95.313963 39.416255 95.313963 40.353889 
C 95.313963 41.291524 95.686489 42.190881 96.349497 42.853889 
C 97.012504 43.516897 97.911862 43.889423 98.849497 43.889423 
z
" clip-path="url(#pf09a36daf9)" style="fill: #3f007d; stroke: #00ff00; stroke-width: 2"/>
    <path d="M 48.385243 43.675303 
C 48.479006 43.675303 48.568942 43.63805 48.635243 43.57175 
C 48.701544 43.505449 48.738796 43.415513 48.738796 43.32175 
C 48.738796 43.227986 48.701544 43.13805 48.635243 43.07175 
C 48.568942 43.005449 48.479006 42.968196 48.385243 42.968196 
C 48.29148 42.968196 48.201544 43.005449 48.135243 43.07175 
C 48.068942 43.13805 48.03169 43.227986 48.03169 43.32175 
C 48.03169 43.415513 48.068942 43.505449 48.135243 43.57175 
C 48.201544 43.63805 48.29148 43.675303 48.385243 43.675303 
z
" clip-path="url(#pf09a36daf9)" style="fill: #fcfbfd; stroke: #00ff00; stroke-width: 2"/>
    <path d="M 107.12422 49.048233 
C 107.217984 49.048233 107.30792 49.01098 107.37422 48.944679 
C 107.440521 48.878378 107.477774 48.788443 107.477774 48.694679 
C 107.477774 48.600916 107.440521 48.51098 107.37422 48.444679 
C 107.30792 48.378378 107.217984 48.341126 107.12422 48.341126 
C 107.030457 48.341126 106.940521 48.378378 106.87422 48.444679 
C 106.80792 48.51098 106.770667 48.600916 106.770667 48.694679 
C 106.770667 48.788443 106.80792 48.878378 106.87422 48.944679 
C 106.940521 49.01098 107.030457 49.048233 107.12422 49.048233 
z
" clip-path="url(#pf09a36daf9)" style="fill: #fcfbfd; stroke: #00ff00; stroke-width: 2"/>
    <path d="M 43.032833 56.105236 
C 43.970468 56.105236 44.869826 55.732709 45.532833 55.069702 
C 46.195841 54.406694 46.568367 53.507336 46.568367 52.569702 
C 46.568367 51.632067 46.195841 50.732709 45.532833 50.069702 
C 44.869826 49.406694 43.970468 49.034168 43.032833 49.034168 
C 42.095199 49.034168 41.195841 49.406694 40.532833 50.069702 
C 39.869826 50.732709 39.497299 51.632067 39.497299 52.569702 
C 39.497299 53.507336 39.869826 54.406694 40.532833 55.069702 
C 41.195841 55.732709 42.095199 56.105236 43.032833 56.105236 
z
" clip-path="url(#pf09a36daf9)" style="fill: #3f007d; stroke: #00ff00; stroke-width: 2"/>
    <path d="M 103.415925 61.797874 
C 104.353559 61.797874 105.252917 61.425347 105.915925 60.76234 
C 106.578932 60.099332 106.951459 59.199974 106.951459 58.26234 
C 106.951459 57.324705 106.578932 56.425347 105.915925 55.76234 
C 105.252917 55.099332 104.353559 54.726806 103.415925 54.726806 
C 102.47829 54.726806 101.578932 55.099332 100.915925 55.76234 
C 100.252917 56.425347 99.880391 57.324705 99.880391 58.26234 
C 99.880391 59.199974 100.252917 60.099332 100.915925 60.76234 
C 101.578932 61.425347 102.47829 61.797874 103.415925 61.797874 
z
" clip-path="url(#pf09a36daf9)" style="fill: #3f007d; stroke: #00ff00; stroke-width: 2"/>
    <path d="M 50.10111 65.114367 
C 51.038745 65.114367 51.938102 64.741841 52.60111 64.078833 
C 53.264118 63.415825 53.636644 62.516467 53.636644 61.578833 
C 53.636644 60.641198 53.264118 59.741841 52.60111 59.078833 
C 51.938102 58.415825 51.038745 58.043299 50.10111 58.043299 
C 49.163475 58.043299 48.264118 58.415825 47.60111 59.078833 
C 46.938102 59.741841 46.565576 60.641198 46.565576 61.578833 
C 46.565576 62.516467 46.938102 63.415825 47.60111 64.078833 
C 48.264118 64.741841 49.163475 65.114367 50.10111 65.114367 
z
" clip-path="url(#pf09a36daf9)" style="fill: #3f007d; stroke: #00ff00; stroke-width: 2"/>
    <path d="M 88.282624 65.623507 
C 88.376387 65.623507 88.466323 65.586254 88.532624 65.519954 
C 88.598925 65.453653 88.636177 65.363717 88.636177 65.269954 
C 88.636177 65.17619 88.598925 65.086254 88.532624 65.019954 
C 88.466323 64.953653 88.376387 64.9164 88.282624 64.9164 
C 88.18886 64.9164 88.098925 64.953653 88.032624 65.019954 
C 87.966323 65.086254 87.92907 65.17619 87.92907 65.269954 
C 87.92907 65.363717 87.966323 65.453653 88.032624 65.519954 
C 88.098925 65.586254 88.18886 65.623507 88.282624 65.623507 
z
" clip-path="url(#pf09a36daf9)" style="fill: #fcfbfd; stroke: #ff0000; stroke-width: 2"/>
    <path d="M 67.556853 66.936187 
C 67.650617 66.936187 67.740553 66.898935 67.806853 66.832634 
C 67.873154 66.766333 67.910407 66.676397 67.910407 66.582634 
C 67.910407 66.48887 67.873154 66.398935 67.806853 66.332634 
C 67.740553 66.266333 67.650617 66.229081 67.556853 66.229081 
C 67.46309 66.229081 67.373154 66.266333 67.306853 66.332634 
C 67.240553 66.398935 67.2033 66.48887 67.2033 66.582634 
C 67.2033 66.676397 67.240553 66.766333 67.306853 66.832634 
C 67.373154 66.898935 67.46309 66.936187 67.556853 66.936187 
z
" clip-path="url(#pf09a36daf9)" style="fill: #fcfbfd; stroke: #00ff00; stroke-width: 2"/>
   </g>
   <g id="patch_13">
    <path d="M 73.720517 77.528607 
Q 83.359936 78.498081 92.999354 79.467555 
" clip-path="url(#pf09a36daf9)" style="fill: none; opacity: 0.741935; stroke: #9c9c9c; stroke-width: 0.483871; stroke-linecap: round"/>
   </g>
   <g id="patch_14">
    <path d="M 88.568795 67.624318 
Q 87.739556 67.39002 86.910318 67.155722 
" clip-path="url(#pf09a36daf9)" style="fill: none; opacity: 0.942857; stroke: #222222; stroke-width: 0.885714; stroke-linecap: round"/>
   </g>
   <g id="patch_15">
    <path d="M 88.238263 69.36886 
Q 78.439156 68.410122 68.640049 67.451384 
" clip-path="url(#pf09a36daf9)" style="fill: none; opacity: 0.792857; stroke: #7e7e7e; stroke-width: 0.585714; stroke-linecap: round"/>
   </g>
   <g id="patch_16">
    <path d="M 91.719162 68.514442 
Q 92.548401 68.74874 93.377639 68.983039 
" clip-path="url(#pf09a36daf9)" style="fill: none; opacity: 0.942857; stroke: #222222; stroke-width: 0.885714; stroke-linecap: round"/>
   </g>
   <g id="patch_17">
    <path d="M 73.61379 67.938012 
Q 83.412897 68.89675 93.212004 69.855488 
" clip-path="url(#pf09a36daf9)" style="fill: none; opacity: 0.792857; stroke: #7e7e7e; stroke-width: 0.585714; stroke-linecap: round"/>
   </g>
   <g id="patch_18">
    <path d="M 88.445805 59.588312 
Q 78.490196 58.641997 68.534587 57.695682 
" clip-path="url(#pf09a36daf9)" style="fill: none; opacity: 0.838028; stroke: #666666; stroke-width: 0.676056; stroke-linecap: round"/>
   </g>
   <g id="patch_19">
    <path d="M 73.513577 58.168953 
Q 83.469186 59.115267 93.424794 60.061582 
" clip-path="url(#pf09a36daf9)" style="fill: none; opacity: 0.838028; stroke: #666666; stroke-width: 0.676056; stroke-linecap: round"/>
   </g>
   <g id="patch_20">
    <path d="M 95.968726 87.977033 
Q 75.166245 85.836399 54.363763 83.695764 
" clip-path="url(#pf09a36daf9)" style="fill: none; opacity: 0.709677; stroke: #afafaf; stroke-width: 0.419355; stroke-linecap: round"/>
   </g>
   <g id="patch_21">
    <path d="M 59.337695 84.207596 
Q 80.140177 86.34823 100.942659 88.488865 
" clip-path="url(#pf09a36daf9)" style="fill: none; opacity: 0.709677; stroke: #afafaf; stroke-width: 0.419355; stroke-linecap: round"/>
   </g>
   <g id="patch_22">
    <path d="M 88.964797 47.968617 
Q 88.012363 47.71504 87.05993 47.461463 
" clip-path="url(#pf09a36daf9)" style="fill: none; opacity: 0.7; stroke: #b5b5b5; stroke-width: 0.4; stroke-linecap: round"/>
   </g>
   <g id="patch_23">
    <path d="M 91.887299 48.746708 
Q 92.839733 49.000285 93.792167 49.253862 
" clip-path="url(#pf09a36daf9)" style="fill: none; opacity: 0.7; stroke: #b5b5b5; stroke-width: 0.4; stroke-linecap: round"/>
   </g>
   <g id="patch_24">
    <path d="M 97.470592 74.351083 
Q 91.970874 71.2903 86.471156 68.229517 
" clip-path="url(#pf09a36daf9)" style="fill: none; opacity: 0.678571; stroke: #c1c1c1; stroke-width: 0.357143; stroke-linecap: round"/>
   </g>
   <g id="patch_25">
    <path d="M 96.597863 76.446936 
Q 82.532708 72.397321 68.467553 68.347705 
" clip-path="url(#pf09a36daf9)" style="fill: none; opacity: 0.807143; stroke: #767676; stroke-width: 0.614286; stroke-linecap: round"/>
   </g>
   <g id="patch_26">
    <path d="M 90.837005 70.659263 
Q 96.336723 73.720045 101.836441 76.780828 
" clip-path="url(#pf09a36daf9)" style="fill: none; opacity: 0.678571; stroke: #c1c1c1; stroke-width: 0.357143; stroke-linecap: round"/>
   </g>
   <g id="patch_27">
    <path d="M 73.27383 69.73152 
Q 87.338985 73.781136 101.40414 77.830752 
" clip-path="url(#pf09a36daf9)" style="fill: none; opacity: 0.807143; stroke: #767676; stroke-width: 0.614286; stroke-linecap: round"/>
   </g>
   <g id="patch_28">
    <path d="M 95.940902 89.678519 
Q 72.599884 91.265202 49.258866 92.851886 
" clip-path="url(#pf09a36daf9)" style="fill: none; opacity: 0.879032; stroke: #505050; stroke-width: 0.758065; stroke-linecap: round"/>
   </g>
   <g id="patch_29">
    <path d="M 54.246983 92.512802 
Q 77.588001 90.926118 100.92902 89.339435 
" clip-path="url(#pf09a36daf9)" style="fill: none; opacity: 0.879032; stroke: #505050; stroke-width: 0.758065; stroke-linecap: round"/>
   </g>
   <g id="patch_30">
    <path d="M 89.16851 37.85757 
Q 88.152931 37.595695 87.137351 37.333819 
" clip-path="url(#pf09a36daf9)" style="fill: none; opacity: 0.739631; stroke: #9d9d9d; stroke-width: 0.479263; stroke-linecap: round"/>
   </g>
   <g id="patch_31">
    <path d="M 91.973773 38.580929 
Q 92.989352 38.842804 94.004932 39.10468 
" clip-path="url(#pf09a36daf9)" style="fill: none; opacity: 0.739631; stroke: #9d9d9d; stroke-width: 0.479263; stroke-linecap: round"/>
   </g>
   <g id="patch_32">
    <path d="M 99.692718 61.918169 
Q 99.048798 61.226562 98.404877 60.534956 
" clip-path="url(#pf09a36daf9)" style="fill: none; opacity: 0.795775; stroke: #7c7c7c; stroke-width: 0.591549; stroke-linecap: round"/>
   </g>
   <g id="patch_33">
    <path d="M 96.878431 66.544245 
Q 82.622608 62.556363 68.366785 58.568482 
" clip-path="url(#pf09a36daf9)" style="fill: none; opacity: 0.901408; stroke: #3f3f3f; stroke-width: 0.802817; stroke-linecap: round"/>
   </g>
   <g id="patch_34">
    <path d="M 105.21995 67.854721 
Q 105.86387 68.546327 106.507791 69.237934 
" clip-path="url(#pf09a36daf9)" style="fill: none; opacity: 0.795775; stroke: #7c7c7c; stroke-width: 0.591549; stroke-linecap: round"/>
   </g>
   <g id="patch_35">
    <path d="M 73.183863 59.915997 
Q 87.439686 63.903879 101.69551 67.89176 
" clip-path="url(#pf09a36daf9)" style="fill: none; opacity: 0.901408; stroke: #3f3f3f; stroke-width: 0.802817; stroke-linecap: round"/>
   </g>
   <g id="patch_36">
    <path d="M 96.229502 79.87414 
Q 72.596597 81.437536 48.963691 83.000932 
" clip-path="url(#pf09a36daf9)" style="fill: none; opacity: 0.842857; stroke: #636363; stroke-width: 0.685714; stroke-linecap: round"/>
   </g>
   <g id="patch_37">
    <path d="M 53.951001 82.671005 
Q 77.583907 81.107608 101.216812 79.544212 
" clip-path="url(#pf09a36daf9)" style="fill: none; opacity: 0.842857; stroke: #636363; stroke-width: 0.685714; stroke-linecap: round"/>
   </g>
   <g id="patch_38">
    <path d="M 100.130996 89.582982 
Q 99.60032 87.214485 99.069644 84.845987 
" clip-path="url(#pf09a36daf9)" style="fill: none; opacity: 0.741935; stroke: #9c9c9c; stroke-width: 0.483871; stroke-linecap: round"/>
   </g>
   <g id="patch_39">
    <path d="M 100.162785 89.724864 
Q 100.693461 92.093361 101.224137 94.461859 
" clip-path="url(#pf09a36daf9)" style="fill: none; opacity: 0.741935; stroke: #9c9c9c; stroke-width: 0.483871; stroke-linecap: round"/>
   </g>
   <g id="patch_40">
    <path d="M 97.164491 56.448152 
Q 82.718313 52.527462 68.272135 48.606771 
" clip-path="url(#pf09a36daf9)" style="fill: none; opacity: 0.756667; stroke: #929292; stroke-width: 0.513333; stroke-linecap: round"/>
   </g>
   <g id="patch_41">
    <path d="M 73.092209 49.914939 
Q 87.538386 53.835629 101.984564 57.756319 
" clip-path="url(#pf09a36daf9)" style="fill: none; opacity: 0.756667; stroke: #929292; stroke-width: 0.513333; stroke-linecap: round"/>
   </g>
   <g id="patch_42">
    <path d="M 96.531363 69.879347 
Q 72.594093 71.418342 48.656823 72.957337 
" clip-path="url(#pf09a36daf9)" style="fill: none; stroke: #000000; stroke-linecap: round"/>
   </g>
   <g id="patch_43">
    <path d="M 53.641546 72.636855 
Q 77.578816 71.09786 101.516086 69.558865 
" clip-path="url(#pf09a36daf9)" style="fill: none; stroke: #000000; stroke-linecap: round"/>
   </g>
   <g id="patch_44">
    <path d="M 92.340931 100.03666 
Q 74.211624 101.303231 56.082317 102.569802 
" clip-path="url(#pf09a36daf9)" style="fill: none; opacity: 0.967742; stroke: #131313; stroke-width: 0.935484; stroke-linecap: round"/>
   </g>
   <g id="patch_45">
    <path d="M 61.071393 102.221249 
Q 79.2007 100.954678 97.330007 99.688107 
" clip-path="url(#pf09a36daf9)" style="fill: none; opacity: 0.967742; stroke: #131313; stroke-width: 0.935484; stroke-linecap: round"/>
   </g>
   <g id="patch_46">
    <path d="M 93.915391 84.383267 
Q 80.955199 76.920949 67.995007 69.458631 
" clip-path="url(#pf09a36daf9)" style="fill: none; opacity: 0.685714; stroke: #bebebe; stroke-width: 0.371429; stroke-linecap: round"/>
   </g>
   <g id="patch_47">
    <path d="M 72.331491 71.955525 
Q 85.291683 79.417843 98.251875 86.880161 
" clip-path="url(#pf09a36daf9)" style="fill: none; opacity: 0.685714; stroke: #bebebe; stroke-width: 0.371429; stroke-linecap: round"/>
   </g>
   <g id="patch_48">
    <path d="M 96.831381 59.689564 
Q 72.587159 61.202299 48.342938 62.715035 
" clip-path="url(#pf09a36daf9)" style="fill: none; opacity: 0.836667; stroke: #666666; stroke-width: 0.673333; stroke-linecap: round"/>
   </g>
   <g id="patch_49">
    <path d="M 53.333715 62.403632 
Q 77.577936 60.890896 101.822158 59.378161 
" clip-path="url(#pf09a36daf9)" style="fill: none; opacity: 0.836667; stroke: #666666; stroke-width: 0.673333; stroke-linecap: round"/>
   </g>
   <g id="patch_50">
    <path d="M 92.609672 90.052621 
Q 74.225678 91.30284 55.841684 92.553058 
" clip-path="url(#pf09a36daf9)" style="fill: none; opacity: 0.778571; stroke: #868686; stroke-width: 0.557143; stroke-linecap: round"/>
   </g>
   <g id="patch_51">
    <path d="M 60.828126 92.213951 
Q 79.21212 90.963733 97.596114 89.713514 
" clip-path="url(#pf09a36daf9)" style="fill: none; opacity: 0.778571; stroke: #868686; stroke-width: 0.557143; stroke-linecap: round"/>
   </g>
   <g id="patch_52">
    <path d="M 100.537846 69.485107 
Q 100.05095 67.442043 99.564054 65.398978 
" clip-path="url(#pf09a36daf9)" style="fill: none; opacity: 0.788732; stroke: #818181; stroke-width: 0.577465; stroke-linecap: round"/>
   </g>
   <g id="patch_53">
    <path d="M 94.126503 74.326661 
Q 81.021819 66.994882 67.917134 59.663103 
" clip-path="url(#pf09a36daf9)" style="fill: none; opacity: 0.802817; stroke: #797979; stroke-width: 0.605634; stroke-linecap: round"/>
   </g>
   <g id="patch_54">
    <path d="M 100.722566 70.260209 
Q 101.209462 72.303273 101.696358 74.346337 
" clip-path="url(#pf09a36daf9)" style="fill: none; opacity: 0.788732; stroke: #818181; stroke-width: 0.577465; stroke-linecap: round"/>
   </g>
   <g id="patch_55">
    <path d="M 72.283536 62.106007 
Q 85.38822 69.437786 98.492905 76.769565 
" clip-path="url(#pf09a36daf9)" style="fill: none; opacity: 0.802817; stroke: #797979; stroke-width: 0.605634; stroke-linecap: round"/>
   </g>
   <g id="patch_56">
    <path d="M 93.445796 103.947189 
Q 92.823064 104.270619 92.200333 104.594049 
" clip-path="url(#pf09a36daf9)" style="fill: none; opacity: 0.766129; stroke: #8d8d8d; stroke-width: 0.532258; stroke-linecap: round"/>
   </g>
   <g id="patch_57">
    <path d="M 69.970836 84.376104 
Q 77.318067 93.675327 84.665298 102.97455 
" clip-path="url(#pf09a36daf9)" style="fill: none; opacity: 0.741935; stroke: #9c9c9c; stroke-width: 0.483871; stroke-linecap: round"/>
   </g>
   <g id="patch_58">
    <path d="M 96.636178 102.290189 
Q 97.25891 101.966759 97.881641 101.643328 
" clip-path="url(#pf09a36daf9)" style="fill: none; opacity: 0.766129; stroke: #8d8d8d; stroke-width: 0.532258; stroke-linecap: round"/>
   </g>
   <g id="patch_59">
    <path d="M 81.56409 99.049421 
Q 74.216859 89.750198 66.869627 80.450975 
" clip-path="url(#pf09a36daf9)" style="fill: none; opacity: 0.741935; stroke: #9c9c9c; stroke-width: 0.483871; stroke-linecap: round"/>
   </g>
   <g id="patch_60">
    <path d="M 97.145148 49.298023 
Q 72.584221 50.782998 48.023294 52.267974 
" clip-path="url(#pf09a36daf9)" style="fill: none; opacity: 0.880184; stroke: #4e4e4e; stroke-width: 0.760369; stroke-linecap: round"/>
   </g>
   <g id="patch_61">
    <path d="M 53.011906 51.966358 
Q 77.572833 50.481382 102.13376 48.996407 
" clip-path="url(#pf09a36daf9)" style="fill: none; opacity: 0.880184; stroke: #4e4e4e; stroke-width: 0.760369; stroke-linecap: round"/>
   </g>
   <g id="patch_62">
    <path d="M 78.087895 84.52745 
Q 73.964839 94.121725 69.841784 103.716 
" clip-path="url(#pf09a36daf9)" style="fill: none; opacity: 0.766129; stroke: #8d8d8d; stroke-width: 0.532258; stroke-linecap: round"/>
   </g>
   <g id="patch_63">
    <path d="M 52.691554 98.586252 
Q 58.172894 102.099279 63.654234 105.612306 
" clip-path="url(#pf09a36daf9)" style="fill: none; opacity: 0.822581; stroke: #6e6e6e; stroke-width: 0.645161; stroke-linecap: round"/>
   </g>
   <g id="patch_64">
    <path d="M 71.815734 99.122654 
Q 75.93879 89.528379 80.061845 79.934104 
" clip-path="url(#pf09a36daf9)" style="fill: none; opacity: 0.766129; stroke: #8d8d8d; stroke-width: 0.532258; stroke-linecap: round"/>
   </g>
   <g id="patch_65">
    <path d="M 59.448206 102.916634 
Q 53.966865 99.403608 48.485525 95.890581 
" clip-path="url(#pf09a36daf9)" style="fill: none; opacity: 0.822581; stroke: #6e6e6e; stroke-width: 0.645161; stroke-linecap: round"/>
   </g>
   <g id="patch_66">
    <path d="M 77.840084 107.603152 
Q 80.30918 107.427646 82.778275 107.252139 
" clip-path="url(#pf09a36daf9)" style="fill: none; opacity: 0.991935; stroke: #050505; stroke-width: 0.983871; stroke-linecap: round"/>
   </g>
   <g id="patch_67">
    <path d="M 77.791504 107.606605 
Q 75.322408 107.782112 72.853313 107.957619 
" clip-path="url(#pf09a36daf9)" style="fill: none; opacity: 0.991935; stroke: #050505; stroke-width: 0.983871; stroke-linecap: round"/>
   </g>
   <g id="patch_68">
    <path d="M 92.87739 79.870027 
Q 74.236274 81.102413 55.595158 82.3348 
" clip-path="url(#pf09a36daf9)" style="fill: none; opacity: 0.93662; stroke: #252525; stroke-width: 0.873239; stroke-linecap: round"/>
   </g>
   <g id="patch_69">
    <path d="M 60.586342 82.004827 
Q 79.227459 80.77244 97.868575 79.540053 
" clip-path="url(#pf09a36daf9)" style="fill: none; opacity: 0.93662; stroke: #252525; stroke-width: 0.873239; stroke-linecap: round"/>
   </g>
   <g id="patch_70">
    <path d="M 100.741421 59.132669 
Q 100.281052 57.263638 99.820683 55.394607 
" clip-path="url(#pf09a36daf9)" style="fill: none; opacity: 0.926667; stroke: #2c2c2c; stroke-width: 0.853333; stroke-linecap: round"/>
   </g>
   <g id="patch_71">
    <path d="M 93.182821 67.873854 
Q 70.756869 65.692311 48.330918 63.510768 
" clip-path="url(#pf09a36daf9)" style="fill: none; opacity: 0.69; stroke: #bbbbbb; stroke-width: 0.38; stroke-linecap: round"/>
   </g>
   <g id="patch_72">
    <path d="M 101.016557 60.249685 
Q 101.476926 62.118717 101.937295 63.987748 
" clip-path="url(#pf09a36daf9)" style="fill: none; opacity: 0.926667; stroke: #2c2c2c; stroke-width: 0.853333; stroke-linecap: round"/>
   </g>
   <g id="patch_73">
    <path d="M 53.302193 63.994362 
Q 75.728144 66.175905 98.154096 68.357448 
" clip-path="url(#pf09a36daf9)" style="fill: none; opacity: 0.69; stroke: #bbbbbb; stroke-width: 0.38; stroke-linecap: round"/>
   </g>
   <g id="patch_74">
    <path d="M 90.817694 77.096705 
Q 81.14711 85.958047 71.476526 94.81939 
" clip-path="url(#pf09a36daf9)" style="fill: none; opacity: 0.757143; stroke: #929292; stroke-width: 0.514286; stroke-linecap: round"/>
   </g>
   <g id="patch_75">
    <path d="M 52.453684 88.624209 
Q 58.001306 92.086271 63.548927 95.548333 
" clip-path="url(#pf09a36daf9)" style="fill: none; opacity: 0.735714; stroke: #9f9f9f; stroke-width: 0.471429; stroke-linecap: round"/>
   </g>
   <g id="patch_76">
    <path d="M 75.162666 91.441708 
Q 84.833251 82.580365 94.503835 73.719023 
" clip-path="url(#pf09a36daf9)" style="fill: none; opacity: 0.757143; stroke: #929292; stroke-width: 0.514286; stroke-linecap: round"/>
   </g>
   <g id="patch_77">
    <path d="M 59.309931 92.902935 
Q 53.76231 89.440873 48.214688 85.978811 
" clip-path="url(#pf09a36daf9)" style="fill: none; opacity: 0.735714; stroke: #9f9f9f; stroke-width: 0.471429; stroke-linecap: round"/>
   </g>
   <g id="patch_78">
    <path d="M 77.767395 97.505635 
Q 80.335229 97.327932 82.903063 97.150228 
" clip-path="url(#pf09a36daf9)" style="fill: none; stroke: #000000; stroke-linecap: round"/>
   </g>
   <g id="patch_79">
    <path d="M 77.914604 97.495447 
Q 75.34677 97.673151 72.778937 97.850854 
" clip-path="url(#pf09a36daf9)" style="fill: none; stroke: #000000; stroke-linecap: round"/>
   </g>
   <g id="patch_80">
    <path d="M 93.150498 69.482429 
Q 74.249529 70.695461 55.34856 71.908493 
" clip-path="url(#pf09a36daf9)" style="fill: none; stroke: #000000; stroke-linecap: round"/>
   </g>
   <g id="patch_81">
    <path d="M 89.501198 54.64022 
Q 72.209666 62.409845 54.918134 70.179471 
" clip-path="url(#pf09a36daf9)" style="fill: none; opacity: 0.726667; stroke: #a5a5a5; stroke-width: 0.453333; stroke-linecap: round"/>
   </g>
   <g id="patch_82">
    <path d="M 60.339642 71.588173 
Q 79.240611 70.375142 98.141581 69.16211 
" clip-path="url(#pf09a36daf9)" style="fill: none; stroke: #000000; stroke-linecap: round"/>
   </g>
   <g id="patch_83">
    <path d="M 59.481101 68.129187 
Q 76.772634 60.359562 94.064166 52.589936 
" clip-path="url(#pf09a36daf9)" style="fill: none; opacity: 0.726667; stroke: #a5a5a5; stroke-width: 0.453333; stroke-linecap: round"/>
   </g>
   <g id="patch_84">
    <path d="M 100.944301 48.569216 
Q 100.514191 46.882426 100.084081 45.195637 
" clip-path="url(#pf09a36daf9)" style="fill: none; opacity: 0.914747; stroke: #353535; stroke-width: 0.829493; stroke-linecap: round"/>
   </g>
   <g id="patch_85">
    <path d="M 93.461412 57.323874 
Q 70.735618 55.181392 48.009824 53.038909 
" clip-path="url(#pf09a36daf9)" style="fill: none; opacity: 0.854839; stroke: #5d5d5d; stroke-width: 0.709677; stroke-linecap: round"/>
   </g>
   <g id="patch_86">
    <path d="M 101.32112 50.047013 
Q 101.75123 51.733802 102.18134 53.420592 
" clip-path="url(#pf09a36daf9)" style="fill: none; opacity: 0.914747; stroke: #353535; stroke-width: 0.829493; stroke-linecap: round"/>
   </g>
   <g id="patch_87">
    <path d="M 52.987346 53.508167 
Q 75.71314 55.65065 98.438934 57.793132 
" clip-path="url(#pf09a36daf9)" style="fill: none; opacity: 0.854839; stroke: #5d5d5d; stroke-width: 0.709677; stroke-linecap: round"/>
   </g>
   <g id="patch_88">
    <path d="M 52.211136 78.464589 
Q 57.826337 81.872286 63.441538 85.279983 
" clip-path="url(#pf09a36daf9)" style="fill: none; opacity: 0.711268; stroke: #afafaf; stroke-width: 0.422535; stroke-linecap: round"/>
   </g>
   <g id="patch_89">
    <path d="M 59.168903 82.687049 
Q 53.553702 79.279352 47.938501 75.871655 
" clip-path="url(#pf09a36daf9)" style="fill: none; opacity: 0.711268; stroke: #afafaf; stroke-width: 0.422535; stroke-linecap: round"/>
   </g>
   <g id="patch_90">
    <path d="M 77.693223 87.201955 
Q 80.361513 87.022413 83.029803 86.84287 
" clip-path="url(#pf09a36daf9)" style="fill: none; opacity: 0.809859; stroke: #757575; stroke-width: 0.619718; stroke-linecap: round"/>
   </g>
   <g id="patch_91">
    <path d="M 78.040208 87.178608 
Q 75.371917 87.35815 72.703627 87.537693 
" clip-path="url(#pf09a36daf9)" style="fill: none; opacity: 0.809859; stroke: #757575; stroke-width: 0.619718; stroke-linecap: round"/>
   </g>
   <g id="patch_92">
    <path d="M 93.435667 58.88317 
Q 74.263881 60.075767 55.092096 61.268364 
" clip-path="url(#pf09a36daf9)" style="fill: none; stroke: #000000; stroke-linecap: round"/>
   </g>
   <g id="patch_93">
    <path d="M 89.682396 44.345225 
Q 72.183187 51.964344 54.683977 59.583462 
" clip-path="url(#pf09a36daf9)" style="fill: none; opacity: 0.684332; stroke: #bebebe; stroke-width: 0.368664; stroke-linecap: round"/>
   </g>
   <g id="patch_94">
    <path d="M 60.081367 60.958003 
Q 79.253153 59.765405 98.424939 58.572808 
" clip-path="url(#pf09a36daf9)" style="fill: none; stroke: #000000; stroke-linecap: round"/>
   </g>
   <g id="patch_95">
    <path d="M 59.268211 57.587497 
Q 76.76742 49.968378 94.266629 42.34926 
" clip-path="url(#pf09a36daf9)" style="fill: none; opacity: 0.684332; stroke: #bebebe; stroke-width: 0.368664; stroke-linecap: round"/>
   </g>
   <g id="patch_96">
    <path d="M 60.308073 73.221188 
Q 71.742583 74.361508 83.177093 75.501829 
" clip-path="url(#pf09a36daf9)" style="fill: none; opacity: 0.716667; stroke: #ababab; stroke-width: 0.433333; stroke-linecap: round"/>
   </g>
   <g id="patch_97">
    <path d="M 78.198368 75.00532 
Q 66.763858 73.864999 55.329348 72.724678 
" clip-path="url(#pf09a36daf9)" style="fill: none; opacity: 0.716667; stroke: #ababab; stroke-width: 0.433333; stroke-linecap: round"/>
   </g>
   <g id="patch_98">
    <path d="M 51.969698 68.104948 
Q 57.647839 71.451181 63.325981 74.797414 
" clip-path="url(#pf09a36daf9)" style="fill: none; opacity: 0.816667; stroke: #717171; stroke-width: 0.633333; stroke-linecap: round"/>
   </g>
   <g id="patch_99">
    <path d="M 59.019108 72.259295 
Q 53.340967 68.913062 47.662825 65.566829 
" clip-path="url(#pf09a36daf9)" style="fill: none; opacity: 0.816667; stroke: #717171; stroke-width: 0.633333; stroke-linecap: round"/>
   </g>
   <g id="patch_100">
    <path d="M 77.615016 76.685899 
Q 80.386157 76.504855 83.157298 76.323811 
" clip-path="url(#pf09a36daf9)" style="fill: none; opacity: 0.8; stroke: #7a7a7a; stroke-width: 0.6; stroke-linecap: round"/>
   </g>
   <g id="patch_101">
    <path d="M 78.170897 76.649582 
Q 75.399755 76.830626 72.628614 77.01167 
" clip-path="url(#pf09a36daf9)" style="fill: none; opacity: 0.8; stroke: #7a7a7a; stroke-width: 0.6; stroke-linecap: round"/>
   </g>
   <g id="patch_102">
    <path d="M 60.051981 62.540813 
Q 71.677478 63.664685 83.302975 64.788556 
" clip-path="url(#pf09a36daf9)" style="fill: none; opacity: 0.633641; stroke: #d5d5d5; stroke-width: 0.267281; stroke-linecap: round"/>
   </g>
   <g id="patch_103">
    <path d="M 78.331753 64.307973 
Q 66.706256 63.184102 55.080758 62.06023 
" clip-path="url(#pf09a36daf9)" style="fill: none; opacity: 0.633641; stroke: #d5d5d5; stroke-width: 0.267281; stroke-linecap: round"/>
   </g>
   <g id="patch_104">
    <path d="M 51.717426 57.532045 
Q 57.465792 60.81664 63.214159 64.101235 
" clip-path="url(#pf09a36daf9)" style="fill: none; opacity: 0.891705; stroke: #464646; stroke-width: 0.78341; stroke-linecap: round"/>
   </g>
   <g id="patch_105">
    <path d="M 58.872261 61.620291 
Q 53.123894 58.335696 47.375528 55.051101 
" clip-path="url(#pf09a36daf9)" style="fill: none; opacity: 0.891705; stroke: #464646; stroke-width: 0.78341; stroke-linecap: round"/>
   </g>
   <g id="patch_106">
    <path d="M 77.537708 65.95049 
Q 80.414124 65.76831 83.29054 65.586131 
" clip-path="url(#pf09a36daf9)" style="fill: none; opacity: 0.808756; stroke: #767676; stroke-width: 0.617512; stroke-linecap: round"/>
   </g>
   <g id="patch_107">
    <path d="M 78.301769 65.902098 
Q 75.425353 66.084277 72.548937 66.266457 
" clip-path="url(#pf09a36daf9)" style="fill: none; opacity: 0.808756; stroke: #767676; stroke-width: 0.617512; stroke-linecap: round"/>
   </g>
  </g>
 </g>
 <defs>
  <clipPath id="pf09a36daf9">
   <rect x="18.36" y="17.28" width="110.88" height="110.88"/>
  </clipPath>
 </defs>
</svg>
