<?xml version="1.0" encoding="utf-8" standalone="no"?>
<!DOCTYPE svg PUBLIC "-//W3C//DTD SVG 1.1//EN"
  "http://www.w3.org/Graphics/SVG/1.1/DTD/svg11.dtd">
<svg xmlns:xlink="http://www.w3.org/1999/xlink" width="144pt" height="144pt" viewBox="0 0 144 144" xmlns="http://www.w3.org/2000/svg" version="1.1">
 <metadata>
  <rdf:RDF xmlns:dc="http://purl.org/dc/elements/1.1/" xmlns:cc="http://creativecommons.org/ns#" xmlns:rdf="http://www.w3.org/1999/02/22-rdf-syntax-ns#">
   <cc:Work>
    <dc:type rdf:resource="http://purl.org/dc/dcmitype/StillImage"/>
    <dc:date>2025-06-03T17:18:14.310379</dc:date>
    <dc:format>image/svg+xml</dc:format>
    <dc:creator>
     <cc:Agent>
      <dc:title>Matplotlib v3.9.2, https://matplotlib.org/</dc:title>
     </cc:Agent>
    </dc:creator>
   </cc:Work>
  </rdf:RDF>
 </metadata>
 <defs>
  <style type="text/css">*{stroke-linejoin: round; stroke-linecap: butt}</style>
 </defs>
 <g id="figure_1">
  <g id="patch_1">
   <path d="M 0 144 
L 144 144 
L 144 0 
L 0 0 
z
" style="fill: #ffffff"/>
  </g>
  <g id="axes_1">
   <g id="patch_2">
    <path d="M 18 128.16 
L 129.6 128.16 
L 129.6 17.28 
L 18 17.28 
z
" style="fill: #ffffff"/>
   </g>
   <g id="matplotlib.axis_1">
    <g id="xtick_1">
     <g id="line2d_1">
      <defs>
       <path id="md995b5778c" d="M 0 0 
L 0 3.5 
" style="stroke: #000000; stroke-width: 0.8"/>
      </defs>
      <g>
       <use xlink:href="#md995b5778c" x="18" y="128.16" style="stroke: #000000; stroke-width: 0.8"/>
      </g>
     </g>
     <g id="text_1">
      <!-- 0.0 -->
      <g transform="translate(10.048437 142.758438) scale(0.1 -0.1)">
       <defs>
        <path id="DejaVuSerif-30" d="M 2034 219 
Q 2513 219 2750 744 
Q 2988 1269 2988 2328 
Q 2988 3391 2750 3916 
Q 2513 4441 2034 4441 
Q 1556 4441 1318 3916 
Q 1081 3391 1081 2328 
Q 1081 1269 1318 744 
Q 1556 219 2034 219 
z
M 2034 -91 
Q 1275 -91 848 546 
Q 422 1184 422 2328 
Q 422 3475 848 4112 
Q 1275 4750 2034 4750 
Q 2797 4750 3222 4112 
Q 3647 3475 3647 2328 
Q 3647 1184 3222 546 
Q 2797 -91 2034 -91 
z
" transform="scale(0.015625)"/>
        <path id="DejaVuSerif-2e" d="M 603 325 
Q 603 500 722 622 
Q 841 744 1019 744 
Q 1191 744 1312 622 
Q 1434 500 1434 325 
Q 1434 153 1312 31 
Q 1191 -91 1019 -91 
Q 841 -91 722 29 
Q 603 150 603 325 
z
" transform="scale(0.015625)"/>
       </defs>
       <use xlink:href="#DejaVuSerif-30"/>
       <use xlink:href="#DejaVuSerif-2e" x="63.623047"/>
       <use xlink:href="#DejaVuSerif-30" x="95.410156"/>
      </g>
     </g>
    </g>
    <g id="xtick_2">
     <g id="line2d_2">
      <g>
       <use xlink:href="#md995b5778c" x="73.8" y="128.16" style="stroke: #000000; stroke-width: 0.8"/>
      </g>
     </g>
     <g id="text_2">
      <!-- 0.5 -->
      <g transform="translate(65.848438 142.758438) scale(0.1 -0.1)">
       <defs>
        <path id="DejaVuSerif-35" d="M 3219 4666 
L 3219 4153 
L 1081 4153 
L 1081 2816 
Q 1244 2928 1461 2984 
Q 1678 3041 1947 3041 
Q 2703 3041 3140 2622 
Q 3578 2203 3578 1478 
Q 3578 738 3136 323 
Q 2694 -91 1894 -91 
Q 1572 -91 1234 -12 
Q 897 66 544 225 
L 544 1131 
L 897 1131 
Q 925 688 1179 453 
Q 1434 219 1894 219 
Q 2388 219 2653 544 
Q 2919 869 2919 1478 
Q 2919 2084 2655 2407 
Q 2391 2731 1894 2731 
Q 1613 2731 1398 2631 
Q 1184 2531 1019 2322 
L 750 2322 
L 750 4666 
L 3219 4666 
z
" transform="scale(0.015625)"/>
       </defs>
       <use xlink:href="#DejaVuSerif-30"/>
       <use xlink:href="#DejaVuSerif-2e" x="63.623047"/>
       <use xlink:href="#DejaVuSerif-35" x="95.410156"/>
      </g>
     </g>
    </g>
    <g id="xtick_3">
     <g id="line2d_3">
      <g>
       <use xlink:href="#md995b5778c" x="129.6" y="128.16" style="stroke: #000000; stroke-width: 0.8"/>
      </g>
     </g>
     <g id="text_3">
      <!-- 1.0 -->
      <g transform="translate(121.648438 142.758438) scale(0.1 -0.1)">
       <defs>
        <path id="DejaVuSerif-31" d="M 909 0 
L 909 331 
L 1722 331 
L 1722 4213 
L 781 3603 
L 781 4013 
L 1919 4750 
L 2350 4750 
L 2350 331 
L 3163 331 
L 3163 0 
L 909 0 
z
" transform="scale(0.015625)"/>
       </defs>
       <use xlink:href="#DejaVuSerif-31"/>
       <use xlink:href="#DejaVuSerif-2e" x="63.623047"/>
       <use xlink:href="#DejaVuSerif-30" x="95.410156"/>
      </g>
     </g>
    </g>
   </g>
   <g id="matplotlib.axis_2">
    <g id="ytick_1">
     <g id="line2d_4">
      <defs>
       <path id="mb2ec3ef05c" d="M 0 0 
L -3.5 0 
" style="stroke: #000000; stroke-width: 0.8"/>
      </defs>
      <g>
       <use xlink:href="#mb2ec3ef05c" x="18" y="128.16" style="stroke: #000000; stroke-width: 0.8"/>
      </g>
     </g>
     <g id="text_4">
      <!-- 0.0 -->
      <g transform="translate(-4.903125 131.959219) scale(0.1 -0.1)">
       <use xlink:href="#DejaVuSerif-30"/>
       <use xlink:href="#DejaVuSerif-2e" x="63.623047"/>
       <use xlink:href="#DejaVuSerif-30" x="95.410156"/>
      </g>
     </g>
    </g>
    <g id="ytick_2">
     <g id="line2d_5">
      <g>
       <use xlink:href="#mb2ec3ef05c" x="18" y="105.984" style="stroke: #000000; stroke-width: 0.8"/>
      </g>
     </g>
     <g id="text_5">
      <!-- 0.2 -->
      <g transform="translate(-4.903125 109.783219) scale(0.1 -0.1)">
       <defs>
        <path id="DejaVuSerif-32" d="M 819 3553 
L 469 3553 
L 469 4384 
Q 803 4563 1142 4656 
Q 1481 4750 1806 4750 
Q 2534 4750 2956 4397 
Q 3378 4044 3378 3438 
Q 3378 2753 2422 1800 
Q 2347 1728 2309 1691 
L 1131 513 
L 3078 513 
L 3078 1088 
L 3444 1088 
L 3444 0 
L 434 0 
L 434 341 
L 1850 1753 
Q 2319 2222 2519 2614 
Q 2719 3006 2719 3438 
Q 2719 3909 2473 4175 
Q 2228 4441 1797 4441 
Q 1350 4441 1106 4219 
Q 863 3997 819 3553 
z
" transform="scale(0.015625)"/>
       </defs>
       <use xlink:href="#DejaVuSerif-30"/>
       <use xlink:href="#DejaVuSerif-2e" x="63.623047"/>
       <use xlink:href="#DejaVuSerif-32" x="95.410156"/>
      </g>
     </g>
    </g>
    <g id="ytick_3">
     <g id="line2d_6">
      <g>
       <use xlink:href="#mb2ec3ef05c" x="18" y="83.808" style="stroke: #000000; stroke-width: 0.8"/>
      </g>
     </g>
     <g id="text_6">
      <!-- 0.4 -->
      <g transform="translate(-4.903125 87.607219) scale(0.1 -0.1)">
       <defs>
        <path id="DejaVuSerif-34" d="M 2234 1581 
L 2234 4063 
L 641 1581 
L 2234 1581 
z
M 3609 0 
L 1484 0 
L 1484 331 
L 2234 331 
L 2234 1247 
L 197 1247 
L 197 1588 
L 2241 4750 
L 2859 4750 
L 2859 1581 
L 3750 1581 
L 3750 1247 
L 2859 1247 
L 2859 331 
L 3609 331 
L 3609 0 
z
" transform="scale(0.015625)"/>
       </defs>
       <use xlink:href="#DejaVuSerif-30"/>
       <use xlink:href="#DejaVuSerif-2e" x="63.623047"/>
       <use xlink:href="#DejaVuSerif-34" x="95.410156"/>
      </g>
     </g>
    </g>
    <g id="ytick_4">
     <g id="line2d_7">
      <g>
       <use xlink:href="#mb2ec3ef05c" x="18" y="61.632" style="stroke: #000000; stroke-width: 0.8"/>
      </g>
     </g>
     <g id="text_7">
      <!-- 0.6 -->
      <g transform="translate(-4.903125 65.431219) scale(0.1 -0.1)">
       <defs>
        <path id="DejaVuSerif-36" d="M 2094 219 
Q 2534 219 2771 542 
Q 3009 866 3009 1472 
Q 3009 2078 2771 2401 
Q 2534 2725 2094 2725 
Q 1647 2725 1412 2412 
Q 1178 2100 1178 1509 
Q 1178 888 1415 553 
Q 1653 219 2094 219 
z
M 1075 2569 
Q 1288 2803 1556 2918 
Q 1825 3034 2163 3034 
Q 2859 3034 3264 2615 
Q 3669 2197 3669 1472 
Q 3669 763 3233 336 
Q 2797 -91 2069 -91 
Q 1278 -91 853 498 
Q 428 1088 428 2181 
Q 428 3406 931 4078 
Q 1434 4750 2350 4750 
Q 2597 4750 2869 4703 
Q 3141 4656 3425 4563 
L 3425 3794 
L 3072 3794 
Q 3034 4109 2831 4275 
Q 2628 4441 2284 4441 
Q 1678 4441 1381 3981 
Q 1084 3522 1075 2569 
z
" transform="scale(0.015625)"/>
       </defs>
       <use xlink:href="#DejaVuSerif-30"/>
       <use xlink:href="#DejaVuSerif-2e" x="63.623047"/>
       <use xlink:href="#DejaVuSerif-36" x="95.410156"/>
      </g>
     </g>
    </g>
    <g id="ytick_5">
     <g id="line2d_8">
      <g>
       <use xlink:href="#mb2ec3ef05c" x="18" y="39.456" style="stroke: #000000; stroke-width: 0.8"/>
      </g>
     </g>
     <g id="text_8">
      <!-- 0.8 -->
      <g transform="translate(-4.903125 43.255219) scale(0.1 -0.1)">
       <defs>
        <path id="DejaVuSerif-38" d="M 2981 1275 
Q 2981 1775 2732 2051 
Q 2484 2328 2034 2328 
Q 1584 2328 1336 2051 
Q 1088 1775 1088 1275 
Q 1088 772 1336 495 
Q 1584 219 2034 219 
Q 2484 219 2732 495 
Q 2981 772 2981 1275 
z
M 2853 3541 
Q 2853 3966 2637 4203 
Q 2422 4441 2034 4441 
Q 1650 4441 1433 4203 
Q 1216 3966 1216 3541 
Q 1216 3113 1433 2875 
Q 1650 2638 2034 2638 
Q 2422 2638 2637 2875 
Q 2853 3113 2853 3541 
z
M 2516 2484 
Q 3047 2413 3344 2092 
Q 3641 1772 3641 1275 
Q 3641 619 3225 264 
Q 2809 -91 2034 -91 
Q 1263 -91 845 264 
Q 428 619 428 1275 
Q 428 1772 725 2092 
Q 1022 2413 1556 2484 
Q 1084 2569 832 2842 
Q 581 3116 581 3541 
Q 581 4103 968 4426 
Q 1356 4750 2034 4750 
Q 2713 4750 3100 4426 
Q 3488 4103 3488 3541 
Q 3488 3116 3236 2842 
Q 2984 2569 2516 2484 
z
" transform="scale(0.015625)"/>
       </defs>
       <use xlink:href="#DejaVuSerif-30"/>
       <use xlink:href="#DejaVuSerif-2e" x="63.623047"/>
       <use xlink:href="#DejaVuSerif-38" x="95.410156"/>
      </g>
     </g>
    </g>
    <g id="ytick_6">
     <g id="line2d_9">
      <g>
       <use xlink:href="#mb2ec3ef05c" x="18" y="17.28" style="stroke: #000000; stroke-width: 0.8"/>
      </g>
     </g>
     <g id="text_9">
      <!-- 1.0 -->
      <g transform="translate(-4.903125 21.079219) scale(0.1 -0.1)">
       <use xlink:href="#DejaVuSerif-31"/>
       <use xlink:href="#DejaVuSerif-2e" x="63.623047"/>
       <use xlink:href="#DejaVuSerif-30" x="95.410156"/>
      </g>
     </g>
    </g>
   </g>
   <g id="patch_3">
    <path d="M 18 128.16 
L 18 17.28 
" style="fill: none; stroke: #000000; stroke-width: 0.8; stroke-linejoin: miter; stroke-linecap: square"/>
   </g>
   <g id="patch_4">
    <path d="M 129.6 128.16 
L 129.6 17.28 
" style="fill: none; stroke: #000000; stroke-width: 0.8; stroke-linejoin: miter; stroke-linecap: square"/>
   </g>
   <g id="patch_5">
    <path d="M 18 128.16 
L 129.6 128.16 
" style="fill: none; stroke: #000000; stroke-width: 0.8; stroke-linejoin: miter; stroke-linecap: square"/>
   </g>
   <g id="patch_6">
    <path d="M 18 17.28 
L 129.6 17.28 
" style="fill: none; stroke: #000000; stroke-width: 0.8; stroke-linejoin: miter; stroke-linecap: square"/>
   </g>
  </g>
  <g id="patch_7">
   <path d="M 18.36 128.16 
L 129.24 128.16 
L 129.24 17.28 
L 18.36 17.28 
z
" style="fill: #ffffff"/>
  </g>
  <g id="axes_2">
   <g id="patch_8">
    <path d="M 88.376295 77.17945 
Q 87.607094 76.956016 86.837894 76.732581 
" clip-path="url(#p6024a10f37)" style="fill: none; opacity: 0.673016; stroke: #c4c4c4; stroke-width: 0.346032; stroke-linecap: round"/>
   </g>
   <g id="Path3DCollection_1">
    <path d="M 82.036969 78.873561 
C 82.974603 78.873561 83.873961 78.501035 84.536969 77.838027 
C 85.199977 77.175019 85.572503 76.275662 85.572503 75.338027 
C 85.572503 74.400393 85.199977 73.501035 84.536969 72.838027 
C 83.873961 72.175019 82.974603 71.802493 82.036969 71.802493 
C 81.099334 71.802493 80.199977 72.175019 79.536969 72.838027 
C 78.873961 73.501035 78.501435 74.400393 78.501435 75.338027 
C 78.501435 76.275662 78.873961 77.175019 79.536969 77.838027 
C 80.199977 78.501035 81.099334 78.873561 82.036969 78.873561 
z
" clip-path="url(#p6024a10f37)" style="fill: #67000d; stroke: #00ff00; stroke-width: 2"/>
    <path d="M 63.769997 76.881398 
C 63.863761 76.881398 63.953697 76.844145 64.019997 76.777844 
C 64.086298 76.711543 64.123551 76.621608 64.123551 76.527844 
C 64.123551 76.434081 64.086298 76.344145 64.019997 76.277844 
C 63.953697 76.211543 63.863761 76.174291 63.769997 76.174291 
C 63.676234 76.174291 63.586298 76.211543 63.519997 76.277844 
C 63.453697 76.344145 63.416444 76.434081 63.416444 76.527844 
C 63.416444 76.621608 63.453697 76.711543 63.519997 76.777844 
C 63.586298 76.844145 63.676234 76.881398 63.769997 76.881398 
z
" clip-path="url(#p6024a10f37)" style="fill: #fff5f0; stroke: #00ff00; stroke-width: 2"/>
    <path d="M 97.976735 83.503683 
C 98.91437 83.503683 99.813727 83.131157 100.476735 82.46815 
C 101.139743 81.805142 101.512269 80.905784 101.512269 79.96815 
C 101.512269 79.030515 101.139743 78.131157 100.476735 77.46815 
C 99.813727 76.805142 98.91437 76.432616 97.976735 76.432616 
C 97.0391 76.432616 96.139743 76.805142 95.476735 77.46815 
C 94.813727 78.131157 94.441201 79.030515 94.441201 79.96815 
C 94.441201 80.905784 94.813727 81.805142 95.476735 82.46815 
C 96.139743 83.131157 97.0391 83.503683 97.976735 83.503683 
z
" clip-path="url(#p6024a10f37)" style="fill: #67000d; stroke: #00ff00; stroke-width: 2"/>
    <path d="M 49.391636 83.537671 
C 49.485399 83.537671 49.575335 83.500419 49.641636 83.434118 
C 49.707936 83.367817 49.745189 83.277881 49.745189 83.184118 
C 49.745189 83.090354 49.707936 83.000419 49.641636 82.934118 
C 49.575335 82.867817 49.485399 82.830565 49.391636 82.830565 
C 49.297872 82.830565 49.207936 82.867817 49.141636 82.934118 
C 49.075335 83.000419 49.038082 83.090354 49.038082 83.184118 
C 49.038082 83.277881 49.075335 83.367817 49.141636 83.434118 
C 49.207936 83.500419 49.297872 83.537671 49.391636 83.537671 
z
" clip-path="url(#p6024a10f37)" style="fill: #fff5f0; stroke: #00ff00; stroke-width: 2"/>
    <path d="M 105.914786 89.354064 
C 106.00855 89.354064 106.098485 89.316812 106.164786 89.250511 
C 106.231087 89.18421 106.268339 89.094274 106.268339 89.000511 
C 106.268339 88.906747 106.231087 88.816812 106.164786 88.750511 
C 106.098485 88.68421 106.00855 88.646957 105.914786 88.646957 
C 105.821023 88.646957 105.731087 88.68421 105.664786 88.750511 
C 105.598485 88.816812 105.561233 88.906747 105.561233 89.000511 
C 105.561233 89.094274 105.598485 89.18421 105.664786 89.250511 
C 105.731087 89.316812 105.821023 89.354064 105.914786 89.354064 
z
" clip-path="url(#p6024a10f37)" style="fill: #fff5f0; stroke: #00ff00; stroke-width: 2"/>
    <path d="M 44.273099 96.726344 
C 45.210734 96.726344 46.110092 96.353818 46.773099 95.69081 
C 47.436107 95.027802 47.808633 94.128444 47.808633 93.19081 
C 47.808633 92.253175 47.436107 91.353818 46.773099 90.69081 
C 46.110092 90.027802 45.210734 89.655276 44.273099 89.655276 
C 43.335465 89.655276 42.436107 90.027802 41.773099 90.69081 
C 41.110092 91.353818 40.737566 92.253175 40.737566 93.19081 
C 40.737566 94.128444 41.110092 95.027802 41.773099 95.69081 
C 42.436107 96.353818 43.335465 96.726344 44.273099 96.726344 
z
" clip-path="url(#p6024a10f37)" style="fill: #67000d; stroke: #ff0000; stroke-width: 2"/>
    <path d="M 102.317046 102.875231 
C 103.25468 102.875231 104.154038 102.502704 104.817046 101.839697 
C 105.480054 101.176689 105.85258 100.277331 105.85258 99.339697 
C 105.85258 98.402062 105.480054 97.502704 104.817046 96.839697 
C 104.154038 96.176689 103.25468 95.804163 102.317046 95.804163 
C 101.379411 95.804163 100.480054 96.176689 99.817046 96.839697 
C 99.154038 97.502704 98.781512 98.402062 98.781512 99.339697 
C 98.781512 100.277331 99.154038 101.176689 99.817046 101.839697 
C 100.480054 102.502704 101.379411 102.875231 102.317046 102.875231 
z
" clip-path="url(#p6024a10f37)" style="fill: #67000d; stroke: #00ff00; stroke-width: 2"/>
    <path d="M 51.095278 103.271766 
C 51.189042 103.271766 51.278977 103.234513 51.345278 103.168212 
C 51.411579 103.101911 51.448832 103.011976 51.448832 102.918212 
C 51.448832 102.824449 51.411579 102.734513 51.345278 102.668212 
C 51.278977 102.601911 51.189042 102.564659 51.095278 102.564659 
C 51.001515 102.564659 50.911579 102.601911 50.845278 102.668212 
C 50.778977 102.734513 50.741725 102.824449 50.741725 102.918212 
C 50.741725 103.011976 50.778977 103.101911 50.845278 103.168212 
C 50.911579 103.234513 51.001515 103.271766 51.095278 103.271766 
z
" clip-path="url(#p6024a10f37)" style="fill: #fff5f0; stroke: #00ff00; stroke-width: 2"/>
    <path d="M 87.764928 107.251234 
C 87.858692 107.251234 87.948627 107.213982 88.014928 107.147681 
C 88.081229 107.08138 88.118482 106.991444 88.118482 106.897681 
C 88.118482 106.803918 88.081229 106.713982 88.014928 106.647681 
C 87.948627 106.58138 87.858692 106.544128 87.764928 106.544128 
C 87.671165 106.544128 87.581229 106.58138 87.514928 106.647681 
C 87.448627 106.713982 87.411375 106.803918 87.411375 106.897681 
C 87.411375 106.991444 87.448627 107.08138 87.514928 107.147681 
C 87.581229 107.213982 87.671165 107.251234 87.764928 107.251234 
z
" clip-path="url(#p6024a10f37)" style="fill: #fff5f0; stroke: #00ff00; stroke-width: 2"/>
    <path d="M 67.86666 108.66563 
C 67.960423 108.66563 68.050359 108.628378 68.11666 108.562077 
C 68.182961 108.495776 68.220213 108.40584 68.220213 108.312077 
C 68.220213 108.218313 68.182961 108.128378 68.11666 108.062077 
C 68.050359 107.995776 67.960423 107.958523 67.86666 107.958523 
C 67.772897 107.958523 67.682961 107.995776 67.61666 108.062077 
C 67.550359 108.128378 67.513107 108.218313 67.513107 108.312077 
C 67.513107 108.40584 67.550359 108.495776 67.61666 108.562077 
C 67.682961 108.628378 67.772897 108.66563 67.86666 108.66563 
z
" clip-path="url(#p6024a10f37)" style="fill: #fff5f0; stroke: #00ff00; stroke-width: 2"/>
   </g>
   <g id="patch_9">
    <path d="M 91.637409 78.126726 
Q 92.40661 78.350161 93.17581 78.573595 
" clip-path="url(#p6024a10f37)" style="fill: none; opacity: 0.673016; stroke: #c4c4c4; stroke-width: 0.346032; stroke-linecap: round"/>
   </g>
   <g id="Path3DCollection_2">
    <path d="M 82.099153 66.1499 
C 82.192916 66.1499 82.282852 66.112647 82.349153 66.046346 
C 82.415453 65.980045 82.452706 65.89011 82.452706 65.796346 
C 82.452706 65.702583 82.415453 65.612647 82.349153 65.546346 
C 82.282852 65.480045 82.192916 65.442793 82.099153 65.442793 
C 82.005389 65.442793 81.915453 65.480045 81.849153 65.546346 
C 81.782852 65.612647 81.745599 65.702583 81.745599 65.796346 
C 81.745599 65.89011 81.782852 65.980045 81.849153 66.046346 
C 81.915453 66.112647 82.005389 66.1499 82.099153 66.1499 
z
" clip-path="url(#p6024a10f37)" style="fill: #f7fbff; stroke: #00ff00; stroke-width: 2"/>
    <path d="M 63.663248 67.318011 
C 63.757012 67.318011 63.846948 67.280758 63.913248 67.214458 
C 63.979549 67.148157 64.016802 67.058221 64.016802 66.964458 
C 64.016802 66.870694 63.979549 66.780758 63.913248 66.714458 
C 63.846948 66.648157 63.757012 66.610904 63.663248 66.610904 
C 63.569485 66.610904 63.479549 66.648157 63.413248 66.714458 
C 63.346948 66.780758 63.309695 66.870694 63.309695 66.964458 
C 63.309695 67.058221 63.346948 67.148157 63.413248 67.214458 
C 63.479549 67.280758 63.569485 67.318011 63.663248 67.318011 
z
" clip-path="url(#p6024a10f37)" style="fill: #f7fbff; stroke: #00ff00; stroke-width: 2"/>
    <path d="M 98.188804 73.877948 
C 99.126439 73.877948 100.025797 73.505422 100.688804 72.842415 
C 101.351812 72.179407 101.724338 71.280049 101.724338 70.342415 
C 101.724338 69.40478 101.351812 68.505422 100.688804 67.842415 
C 100.025797 67.179407 99.126439 66.806881 98.188804 66.806881 
C 97.25117 66.806881 96.351812 67.179407 95.688804 67.842415 
C 95.025797 68.505422 94.653271 69.40478 94.653271 70.342415 
C 94.653271 71.280049 95.025797 72.179407 95.688804 72.842415 
C 96.351812 73.505422 97.25117 73.877948 98.188804 73.877948 
z
" clip-path="url(#p6024a10f37)" style="fill: #08306b; stroke: #00ff00; stroke-width: 2"/>
    <path d="M 49.14716 73.854208 
C 49.240924 73.854208 49.330859 73.816955 49.39716 73.750654 
C 49.463461 73.684353 49.500714 73.594418 49.500714 73.500654 
C 49.500714 73.406891 49.463461 73.316955 49.39716 73.250654 
C 49.330859 73.184353 49.240924 73.147101 49.14716 73.147101 
C 49.053397 73.147101 48.963461 73.184353 48.89716 73.250654 
C 48.830859 73.316955 48.793607 73.406891 48.793607 73.500654 
C 48.793607 73.594418 48.830859 73.684353 48.89716 73.750654 
C 48.963461 73.816955 49.053397 73.854208 49.14716 73.854208 
z
" clip-path="url(#p6024a10f37)" style="fill: #f7fbff; stroke: #00ff00; stroke-width: 2"/>
    <path d="M 106.208444 79.567552 
C 106.302208 79.567552 106.392144 79.5303 106.458444 79.463999 
C 106.524745 79.397698 106.561998 79.307762 106.561998 79.213999 
C 106.561998 79.120236 106.524745 79.0303 106.458444 78.963999 
C 106.392144 78.897698 106.302208 78.860446 106.208444 78.860446 
C 106.114681 78.860446 106.024745 78.897698 105.958444 78.963999 
C 105.892144 79.0303 105.854891 79.120236 105.854891 79.213999 
C 105.854891 79.307762 105.892144 79.397698 105.958444 79.463999 
C 106.024745 79.5303 106.114681 79.567552 106.208444 79.567552 
z
" clip-path="url(#p6024a10f37)" style="fill: #f7fbff; stroke: #00ff00; stroke-width: 2"/>
    <path d="M 43.972059 86.866679 
C 44.909693 86.866679 45.809051 86.494153 46.472059 85.831145 
C 47.135066 85.168137 47.507593 84.26878 47.507593 83.331145 
C 47.507593 82.393511 47.135066 81.494153 46.472059 80.831145 
C 45.809051 80.168137 44.909693 79.795611 43.972059 79.795611 
C 43.034424 79.795611 42.135066 80.168137 41.472059 80.831145 
C 40.809051 81.494153 40.436525 82.393511 40.436525 83.331145 
C 40.436525 84.26878 40.809051 85.168137 41.472059 85.831145 
C 42.135066 86.494153 43.034424 86.866679 43.972059 86.866679 
z
" clip-path="url(#p6024a10f37)" style="fill: #08306b; stroke: #ff0000; stroke-width: 2"/>
    <path d="M 102.583634 92.909868 
C 103.521268 92.909868 104.420626 92.537342 105.083634 91.874334 
C 105.746641 91.211326 106.119168 90.311969 106.119168 89.374334 
C 106.119168 88.4367 105.746641 87.537342 105.083634 86.874334 
C 104.420626 86.211326 103.521268 85.8388 102.583634 85.8388 
C 101.645999 85.8388 100.746641 86.211326 100.083634 86.874334 
C 99.420626 87.537342 99.0481 88.4367 99.0481 89.374334 
C 99.0481 90.311969 99.420626 91.211326 100.083634 91.874334 
C 100.746641 92.537342 101.645999 92.909868 102.583634 92.909868 
z
" clip-path="url(#p6024a10f37)" style="fill: #08306b; stroke: #00ff00; stroke-width: 2"/>
    <path d="M 50.854164 93.245791 
C 50.947928 93.245791 51.037863 93.208539 51.104164 93.142238 
C 51.170465 93.075937 51.207717 92.986001 51.207717 92.892238 
C 51.207717 92.798475 51.170465 92.708539 51.104164 92.642238 
C 51.037863 92.575937 50.947928 92.538685 50.854164 92.538685 
C 50.760401 92.538685 50.670465 92.575937 50.604164 92.642238 
C 50.537863 92.708539 50.500611 92.798475 50.500611 92.892238 
C 50.500611 92.986001 50.537863 93.075937 50.604164 93.142238 
C 50.670465 93.208539 50.760401 93.245791 50.854164 93.245791 
z
" clip-path="url(#p6024a10f37)" style="fill: #f7fbff; stroke: #00ff00; stroke-width: 2"/>
    <path d="M 87.890443 97.158637 
C 87.984206 97.158637 88.074142 97.121385 88.140443 97.055084 
C 88.206744 96.988783 88.243996 96.898847 88.243996 96.805084 
C 88.243996 96.71132 88.206744 96.621385 88.140443 96.555084 
C 88.074142 96.488783 87.984206 96.451531 87.890443 96.451531 
C 87.796679 96.451531 87.706744 96.488783 87.640443 96.555084 
C 87.574142 96.621385 87.536889 96.71132 87.536889 96.805084 
C 87.536889 96.898847 87.574142 96.988783 87.640443 97.055084 
C 87.706744 97.121385 87.796679 97.158637 87.890443 97.158637 
z
" clip-path="url(#p6024a10f37)" style="fill: #f7fbff; stroke: #00ff00; stroke-width: 2"/>
    <path d="M 67.791556 98.549552 
C 67.88532 98.549552 67.975256 98.512299 68.041556 98.445998 
C 68.107857 98.379698 68.14511 98.289762 68.14511 98.195998 
C 68.14511 98.102235 68.107857 98.012299 68.041556 97.945998 
C 67.975256 97.879698 67.88532 97.842445 67.791556 97.842445 
C 67.697793 97.842445 67.607857 97.879698 67.541556 97.945998 
C 67.475256 98.012299 67.438003 98.102235 67.438003 98.195998 
C 67.438003 98.289762 67.475256 98.379698 67.541556 98.445998 
C 67.607857 98.512299 67.697793 98.549552 67.791556 98.549552 
z
" clip-path="url(#p6024a10f37)" style="fill: #f7fbff; stroke: #00ff00; stroke-width: 2"/>
   </g>
   <g id="patch_10">
    <path d="M 88.764928 57.889088 
Q 87.873535 57.644428 86.982142 57.399768 
" clip-path="url(#p6024a10f37)" style="fill: none; opacity: 0.732984; stroke: #a0a0a0; stroke-width: 0.465969; stroke-linecap: round"/>
   </g>
   <g id="Path3DCollection_3">
    <path d="M 82.162495 59.612457 
C 83.100129 59.612457 83.999487 59.239931 84.662495 58.576923 
C 85.325503 57.913916 85.698029 57.014558 85.698029 56.076923 
C 85.698029 55.139289 85.325503 54.239931 84.662495 53.576923 
C 83.999487 52.913916 83.100129 52.541389 82.162495 52.541389 
C 81.22486 52.541389 80.325503 52.913916 79.662495 53.576923 
C 78.999487 54.239931 78.626961 55.139289 78.626961 56.076923 
C 78.626961 57.014558 78.999487 57.913916 79.662495 58.576923 
C 80.325503 59.239931 81.22486 59.612457 82.162495 59.612457 
z
" clip-path="url(#p6024a10f37)" style="fill: #00441b; stroke: #00ff00; stroke-width: 2"/>
    <path d="M 63.554504 57.575862 
C 63.648268 57.575862 63.738203 57.538609 63.804504 57.472308 
C 63.870805 57.406008 63.908057 57.316072 63.908057 57.222308 
C 63.908057 57.128545 63.870805 57.038609 63.804504 56.972308 
C 63.738203 56.906008 63.648268 56.868755 63.554504 56.868755 
C 63.460741 56.868755 63.370805 56.906008 63.304504 56.972308 
C 63.238203 57.038609 63.200951 57.128545 63.200951 57.222308 
C 63.200951 57.316072 63.238203 57.406008 63.304504 57.472308 
C 63.370805 57.538609 63.460741 57.575862 63.554504 57.575862 
z
" clip-path="url(#p6024a10f37)" style="fill: #f7fcf5; stroke: #00ff00; stroke-width: 2"/>
    <path d="M 98.404877 60.88851 
C 98.498641 60.88851 98.588577 60.851257 98.654877 60.784956 
C 98.721178 60.718655 98.758431 60.62872 98.758431 60.534956 
C 98.758431 60.441193 98.721178 60.351257 98.654877 60.284956 
C 98.588577 60.218655 98.498641 60.181403 98.404877 60.181403 
C 98.311114 60.181403 98.221178 60.218655 98.154877 60.284956 
C 98.088577 60.351257 98.051324 60.441193 98.051324 60.534956 
C 98.051324 60.62872 98.088577 60.718655 98.154877 60.784956 
C 98.221178 60.851257 98.311114 60.88851 98.404877 60.88851 
z
" clip-path="url(#p6024a10f37)" style="fill: #f7fcf5; stroke: #00ff00; stroke-width: 2"/>
    <path d="M 48.898027 63.986242 
C 48.99179 63.986242 49.081726 63.948989 49.148027 63.882688 
C 49.214328 63.816388 49.25158 63.726452 49.25158 63.632688 
C 49.25158 63.538925 49.214328 63.448989 49.148027 63.382688 
C 49.081726 63.316388 48.99179 63.279135 48.898027 63.279135 
C 48.804263 63.279135 48.714328 63.316388 48.648027 63.382688 
C 48.581726 63.448989 48.544473 63.538925 48.544473 63.632688 
C 48.544473 63.726452 48.581726 63.816388 48.648027 63.882688 
C 48.714328 63.948989 48.804263 63.986242 48.898027 63.986242 
z
" clip-path="url(#p6024a10f37)" style="fill: #f7fcf5; stroke: #00ff00; stroke-width: 2"/>
    <path d="M 106.507791 69.591487 
C 106.601554 69.591487 106.69149 69.554234 106.757791 69.487934 
C 106.824091 69.421633 106.861344 69.331697 106.861344 69.237934 
C 106.861344 69.14417 106.824091 69.054234 106.757791 68.987934 
C 106.69149 68.921633 106.601554 68.88438 106.507791 68.88438 
C 106.414027 68.88438 106.324091 68.921633 106.257791 68.987934 
C 106.19149 69.054234 106.154237 69.14417 106.154237 69.237934 
C 106.154237 69.331697 106.19149 69.421633 106.257791 69.487934 
C 106.324091 69.554234 106.414027 69.591487 106.507791 69.591487 
z
" clip-path="url(#p6024a10f37)" style="fill: #f7fcf5; stroke: #00ff00; stroke-width: 2"/>
    <path d="M 43.665119 76.813801 
C 44.602753 76.813801 45.502111 76.441275 46.165119 75.778268 
C 46.828126 75.11526 47.200653 74.215902 47.200653 73.278268 
C 47.200653 72.340633 46.828126 71.441275 46.165119 70.778268 
C 45.502111 70.11526 44.602753 69.742734 43.665119 69.742734 
C 42.727484 69.742734 41.828126 70.11526 41.165119 70.778268 
C 40.502111 71.441275 40.129585 72.340633 40.129585 73.278268 
C 40.129585 74.215902 40.502111 75.11526 41.165119 75.778268 
C 41.828126 76.441275 42.727484 76.813801 43.665119 76.813801 
z
" clip-path="url(#p6024a10f37)" style="fill: #00441b; stroke: #ff0000; stroke-width: 2"/>
    <path d="M 102.855535 82.745893 
C 103.793169 82.745893 104.692527 82.373367 105.355535 81.710359 
C 106.018543 81.047352 106.391069 80.147994 106.391069 79.210359 
C 106.391069 78.272725 106.018543 77.373367 105.355535 76.710359 
C 104.692527 76.047352 103.793169 75.674825 102.855535 75.674825 
C 101.9179 75.674825 101.018543 76.047352 100.355535 76.710359 
C 99.692527 77.373367 99.320001 78.272725 99.320001 79.210359 
C 99.320001 80.147994 99.692527 81.047352 100.355535 81.710359 
C 101.018543 82.373367 101.9179 82.745893 102.855535 82.745893 
z
" clip-path="url(#p6024a10f37)" style="fill: #00441b; stroke: #00ff00; stroke-width: 2"/>
    <path d="M 50.608198 83.018047 
C 50.701961 83.018047 50.791897 82.980795 50.858198 82.914494 
C 50.924498 82.848193 50.961751 82.758257 50.961751 82.664494 
C 50.961751 82.570731 50.924498 82.480795 50.858198 82.414494 
C 50.791897 82.348193 50.701961 82.310941 50.608198 82.310941 
C 50.514434 82.310941 50.424498 82.348193 50.358198 82.414494 
C 50.291897 82.480795 50.254644 82.570731 50.254644 82.664494 
C 50.254644 82.758257 50.291897 82.848193 50.358198 82.914494 
C 50.424498 82.980795 50.514434 83.018047 50.608198 83.018047 
z
" clip-path="url(#p6024a10f37)" style="fill: #f7fcf5; stroke: #00ff00; stroke-width: 2"/>
    <path d="M 88.018511 90.042727 
C 88.956145 90.042727 89.855503 89.670201 90.518511 89.007193 
C 91.181518 88.344185 91.554045 87.444828 91.554045 86.507193 
C 91.554045 85.569558 91.181518 84.670201 90.518511 84.007193 
C 89.855503 83.344185 88.956145 82.971659 88.018511 82.971659 
C 87.080876 82.971659 86.181518 83.344185 85.518511 84.007193 
C 84.855503 84.670201 84.482977 85.569558 84.482977 86.507193 
C 84.482977 87.444828 84.855503 88.344185 85.518511 89.007193 
C 86.181518 89.670201 87.080876 90.042727 88.018511 90.042727 
z
" clip-path="url(#p6024a10f37)" style="fill: #00441b; stroke: #00ff00; stroke-width: 2"/>
    <path d="M 67.71492 88.226924 
C 67.808683 88.226924 67.898619 88.189671 67.96492 88.12337 
C 68.03122 88.057069 68.068473 87.967134 68.068473 87.87337 
C 68.068473 87.779607 68.03122 87.689671 67.96492 87.62337 
C 67.898619 87.557069 67.808683 87.519817 67.71492 87.519817 
C 67.621156 87.519817 67.53122 87.557069 67.46492 87.62337 
C 67.398619 87.689671 67.361366 87.779607 67.361366 87.87337 
C 67.361366 87.967134 67.398619 88.057069 67.46492 88.12337 
C 67.53122 88.189671 67.621156 88.226924 67.71492 88.226924 
z
" clip-path="url(#p6024a10f37)" style="fill: #f7fcf5; stroke: #00ff00; stroke-width: 2"/>
   </g>
   <g id="patch_11">
    <path d="M 91.802444 58.722792 
Q 92.693837 58.967452 93.58523 59.212112 
" clip-path="url(#p6024a10f37)" style="fill: none; opacity: 0.732984; stroke: #a0a0a0; stroke-width: 0.465969; stroke-linecap: round"/>
   </g>
   <g id="Path3DCollection_4">
    <path d="M 82.227028 46.528299 
C 82.320791 46.528299 82.410727 46.491047 82.477028 46.424746 
C 82.543329 46.358445 82.580581 46.268509 82.580581 46.174746 
C 82.580581 46.080982 82.543329 45.991047 82.477028 45.924746 
C 82.410727 45.858445 82.320791 45.821192 82.227028 45.821192 
C 82.133265 45.821192 82.043329 45.858445 81.977028 45.924746 
C 81.910727 45.991047 81.873475 46.080982 81.873475 46.174746 
C 81.873475 46.268509 81.910727 46.358445 81.977028 46.424746 
C 82.043329 46.491047 82.133265 46.528299 82.227028 46.528299 
z
" clip-path="url(#p6024a10f37)" style="fill: #fff5eb; stroke: #00ff00; stroke-width: 2"/>
    <path d="M 63.443708 47.64989 
C 63.537471 47.64989 63.627407 47.612638 63.693708 47.546337 
C 63.760009 47.480036 63.797261 47.3901 63.797261 47.296337 
C 63.797261 47.202573 63.760009 47.112638 63.693708 47.046337 
C 63.627407 46.980036 63.537471 46.942784 63.443708 46.942784 
C 63.349944 46.942784 63.260009 46.980036 63.193708 47.046337 
C 63.127407 47.112638 63.090155 47.202573 63.090155 47.296337 
C 63.090155 47.3901 63.127407 47.480036 63.193708 47.546337 
C 63.260009 47.612638 63.349944 47.64989 63.443708 47.64989 
z
" clip-path="url(#p6024a10f37)" style="fill: #fff5eb; stroke: #00ff00; stroke-width: 2"/>
    <path d="M 98.625069 50.894133 
C 98.718832 50.894133 98.808768 50.85688 98.875069 50.790579 
C 98.941369 50.724279 98.978622 50.634343 98.978622 50.540579 
C 98.978622 50.446816 98.941369 50.35688 98.875069 50.290579 
C 98.808768 50.224279 98.718832 50.187026 98.625069 50.187026 
C 98.531305 50.187026 98.441369 50.224279 98.375069 50.290579 
C 98.308768 50.35688 98.271515 50.446816 98.271515 50.540579 
C 98.271515 50.634343 98.308768 50.724279 98.375069 50.790579 
C 98.441369 50.85688 98.531305 50.894133 98.625069 50.894133 
z
" clip-path="url(#p6024a10f37)" style="fill: #fff5eb; stroke: #00ff00; stroke-width: 2"/>
    <path d="M 48.644101 53.928451 
C 48.737864 53.928451 48.8278 53.891198 48.894101 53.824897 
C 48.960402 53.758596 48.997654 53.668661 48.997654 53.574897 
C 48.997654 53.481134 48.960402 53.391198 48.894101 53.324897 
C 48.8278 53.258596 48.737864 53.221344 48.644101 53.221344 
C 48.550338 53.221344 48.460402 53.258596 48.394101 53.324897 
C 48.3278 53.391198 48.290548 53.481134 48.290548 53.574897 
C 48.290548 53.668661 48.3278 53.758596 48.394101 53.824897 
C 48.460402 53.891198 48.550338 53.928451 48.644101 53.928451 
z
" clip-path="url(#p6024a10f37)" style="fill: #fff5eb; stroke: #00ff00; stroke-width: 2"/>
    <path d="M 106.812991 59.420307 
C 106.906755 59.420307 106.996691 59.383055 107.062991 59.316754 
C 107.129292 59.250453 107.166545 59.160517 107.166545 59.066754 
C 107.166545 58.972991 107.129292 58.883055 107.062991 58.816754 
C 106.996691 58.750453 106.906755 58.713201 106.812991 58.713201 
C 106.719228 58.713201 106.629292 58.750453 106.562991 58.816754 
C 106.496691 58.883055 106.459438 58.972991 106.459438 59.066754 
C 106.459438 59.160517 106.496691 59.250453 106.562991 59.316754 
C 106.629292 59.383055 106.719228 59.420307 106.812991 59.420307 
z
" clip-path="url(#p6024a10f37)" style="fill: #fff5eb; stroke: #00ff00; stroke-width: 2"/>
    <path d="M 43.352104 66.561975 
C 44.289739 66.561975 45.189097 66.189449 45.852104 65.526441 
C 46.515112 64.863434 46.887638 63.964076 46.887638 63.026441 
C 46.887638 62.088807 46.515112 61.189449 45.852104 60.526441 
C 45.189097 59.863434 44.289739 59.490907 43.352104 59.490907 
C 42.41447 59.490907 41.515112 59.863434 40.852104 60.526441 
C 40.189097 61.189449 39.81657 62.088807 39.81657 63.026441 
C 39.81657 63.964076 40.189097 64.863434 40.852104 65.526441 
C 41.515112 66.189449 42.41447 66.561975 43.352104 66.561975 
z
" clip-path="url(#p6024a10f37)" style="fill: #7f2704; stroke: #ff0000; stroke-width: 2"/>
    <path d="M 103.132909 72.377309 
C 104.070544 72.377309 104.969902 72.004783 105.632909 71.341775 
C 106.295917 70.678767 106.668443 69.779409 106.668443 68.841775 
C 106.668443 67.90414 106.295917 67.004783 105.632909 66.341775 
C 104.969902 65.678767 104.070544 65.306241 103.132909 65.306241 
C 102.195275 65.306241 101.295917 65.678767 100.632909 66.341775 
C 99.969902 67.004783 99.597376 67.90414 99.597376 68.841775 
C 99.597376 69.779409 99.969902 70.678767 100.632909 71.341775 
C 101.295917 72.004783 102.195275 72.377309 103.132909 72.377309 
z
" clip-path="url(#p6024a10f37)" style="fill: #7f2704; stroke: #00ff00; stroke-width: 2"/>
    <path d="M 50.357231 75.764361 
C 51.294866 75.764361 52.194223 75.391835 52.857231 74.728827 
C 53.520239 74.06582 53.892765 73.166462 53.892765 72.228827 
C 53.892765 71.291193 53.520239 70.391835 52.857231 69.728827 
C 52.194223 69.06582 51.294866 68.693294 50.357231 68.693294 
C 49.419596 68.693294 48.520239 69.06582 47.857231 69.728827 
C 47.194223 70.391835 46.821697 71.291193 46.821697 72.228827 
C 46.821697 73.166462 47.194223 74.06582 47.857231 74.728827 
C 48.520239 75.391835 49.419596 75.764361 50.357231 75.764361 
z
" clip-path="url(#p6024a10f37)" style="fill: #7f2704; stroke: #00ff00; stroke-width: 2"/>
    <path d="M 88.14921 76.351233 
C 88.242974 76.351233 88.33291 76.313981 88.39921 76.24768 
C 88.465511 76.181379 88.502764 76.091443 88.502764 75.99768 
C 88.502764 75.903916 88.465511 75.813981 88.39921 75.74768 
C 88.33291 75.681379 88.242974 75.644127 88.14921 75.644127 
C 88.055447 75.644127 87.965511 75.681379 87.89921 75.74768 
C 87.83291 75.813981 87.795657 75.903916 87.795657 75.99768 
C 87.795657 76.091443 87.83291 76.181379 87.89921 76.24768 
C 87.965511 76.313981 88.055447 76.351233 88.14921 76.351233 
z
" clip-path="url(#p6024a10f37)" style="fill: #fff5eb; stroke: #00ff00; stroke-width: 2"/>
    <path d="M 67.636702 77.691355 
C 67.730465 77.691355 67.820401 77.654102 67.886702 77.587801 
C 67.953002 77.521501 67.990255 77.431565 67.990255 77.337801 
C 67.990255 77.244038 67.953002 77.154102 67.886702 77.087801 
C 67.820401 77.021501 67.730465 76.984248 67.636702 76.984248 
C 67.542938 76.984248 67.453002 77.021501 67.386702 77.087801 
C 67.320401 77.154102 67.283148 77.244038 67.283148 77.337801 
C 67.283148 77.431565 67.320401 77.521501 67.386702 77.587801 
C 67.453002 77.654102 67.542938 77.691355 67.636702 77.691355 
z
" clip-path="url(#p6024a10f37)" style="fill: #fff5eb; stroke: #00ff00; stroke-width: 2"/>
   </g>
   <g id="patch_12">
    <path d="M 99.502569 71.795743 
Q 98.845687 71.069079 98.188804 70.342415 
" clip-path="url(#p6024a10f37)" style="fill: none; opacity: 0.684739; stroke: #bebebe; stroke-width: 0.369478; stroke-linecap: round"/>
   </g>
   <g id="Path3DCollection_5">
    <path d="M 82.292786 36.438163 
C 82.38655 36.438163 82.476485 36.400911 82.542786 36.33461 
C 82.609087 36.268309 82.64634 36.178373 82.64634 36.08461 
C 82.64634 35.990846 82.609087 35.900911 82.542786 35.83461 
C 82.476485 35.768309 82.38655 35.731056 82.292786 35.731056 
C 82.199023 35.731056 82.109087 35.768309 82.042786 35.83461 
C 81.976485 35.900911 81.939233 35.990846 81.939233 36.08461 
C 81.939233 36.178373 81.976485 36.268309 82.042786 36.33461 
C 82.109087 36.400911 82.199023 36.438163 82.292786 36.438163 
z
" clip-path="url(#p6024a10f37)" style="fill: #fcfbfd; stroke: #00ff00; stroke-width: 2"/>
    <path d="M 63.330801 37.534844 
C 63.424565 37.534844 63.5145 37.497592 63.580801 37.431291 
C 63.647102 37.36499 63.684355 37.275054 63.684355 37.181291 
C 63.684355 37.087527 63.647102 36.997592 63.580801 36.931291 
C 63.5145 36.86499 63.424565 36.827737 63.330801 36.827737 
C 63.237038 36.827737 63.147102 36.86499 63.080801 36.931291 
C 63.0145 36.997592 62.977248 37.087527 62.977248 37.181291 
C 62.977248 37.275054 63.0145 37.36499 63.080801 37.431291 
C 63.147102 37.497592 63.237038 37.534844 63.330801 37.534844 
z
" clip-path="url(#p6024a10f37)" style="fill: #fcfbfd; stroke: #00ff00; stroke-width: 2"/>
    <path d="M 98.849497 40.707443 
C 98.94326 40.707443 99.033196 40.67019 99.099497 40.603889 
C 99.165797 40.537588 99.20305 40.447653 99.20305 40.353889 
C 99.20305 40.260126 99.165797 40.17019 99.099497 40.103889 
C 99.033196 40.037588 98.94326 40.000336 98.849497 40.000336 
C 98.755733 40.000336 98.665797 40.037588 98.599497 40.103889 
C 98.533196 40.17019 98.495943 40.260126 98.495943 40.353889 
C 98.495943 40.447653 98.533196 40.537588 98.599497 40.603889 
C 98.665797 40.67019 98.755733 40.707443 98.849497 40.707443 
z
" clip-path="url(#p6024a10f37)" style="fill: #fcfbfd; stroke: #00ff00; stroke-width: 2"/>
    <path d="M 48.385243 46.857284 
C 49.322878 46.857284 50.222235 46.484757 50.885243 45.82175 
C 51.548251 45.158742 51.920777 44.259384 51.920777 43.32175 
C 51.920777 42.384115 51.548251 41.484757 50.885243 40.82175 
C 50.222235 40.158742 49.322878 39.786216 48.385243 39.786216 
C 47.447608 39.786216 46.548251 40.158742 45.885243 40.82175 
C 45.222235 41.484757 44.849709 42.384115 44.849709 43.32175 
C 44.849709 44.259384 45.222235 45.158742 45.885243 45.82175 
C 46.548251 46.484757 47.447608 46.857284 48.385243 46.857284 
z
" clip-path="url(#p6024a10f37)" style="fill: #3f007d; stroke: #00ff00; stroke-width: 2"/>
    <path d="M 107.12422 52.230213 
C 108.061855 52.230213 108.961213 51.857687 109.62422 51.194679 
C 110.287228 50.531671 110.659754 49.632314 110.659754 48.694679 
C 110.659754 47.757045 110.287228 46.857687 109.62422 46.194679 
C 108.961213 45.531671 108.061855 45.159145 107.12422 45.159145 
C 106.186586 45.159145 105.287228 45.531671 104.62422 46.194679 
C 103.961213 46.857687 103.588686 47.757045 103.588686 48.694679 
C 103.588686 49.632314 103.961213 50.531671 104.62422 51.194679 
C 105.287228 51.857687 106.186586 52.230213 107.12422 52.230213 
z
" clip-path="url(#p6024a10f37)" style="fill: #3f007d; stroke: #00ff00; stroke-width: 2"/>
    <path d="M 43.032833 56.105236 
C 43.970468 56.105236 44.869826 55.732709 45.532833 55.069702 
C 46.195841 54.406694 46.568367 53.507336 46.568367 52.569702 
C 46.568367 51.632067 46.195841 50.732709 45.532833 50.069702 
C 44.869826 49.406694 43.970468 49.034168 43.032833 49.034168 
C 42.095199 49.034168 41.195841 49.406694 40.532833 50.069702 
C 39.869826 50.732709 39.497299 51.632067 39.497299 52.569702 
C 39.497299 53.507336 39.869826 54.406694 40.532833 55.069702 
C 41.195841 55.732709 42.095199 56.105236 43.032833 56.105236 
z
" clip-path="url(#p6024a10f37)" style="fill: #3f007d; stroke: #ff0000; stroke-width: 2"/>
    <path d="M 103.415925 61.797874 
C 104.353559 61.797874 105.252917 61.425347 105.915925 60.76234 
C 106.578932 60.099332 106.951459 59.199974 106.951459 58.26234 
C 106.951459 57.324705 106.578932 56.425347 105.915925 55.76234 
C 105.252917 55.099332 104.353559 54.726806 103.415925 54.726806 
C 102.47829 54.726806 101.578932 55.099332 100.915925 55.76234 
C 100.252917 56.425347 99.880391 57.324705 99.880391 58.26234 
C 99.880391 59.199974 100.252917 60.099332 100.915925 60.76234 
C 101.578932 61.425347 102.47829 61.797874 103.415925 61.797874 
z
" clip-path="url(#p6024a10f37)" style="fill: #3f007d; stroke: #00ff00; stroke-width: 2"/>
    <path d="M 50.10111 65.114367 
C 51.038745 65.114367 51.938102 64.741841 52.60111 64.078833 
C 53.264118 63.415825 53.636644 62.516467 53.636644 61.578833 
C 53.636644 60.641198 53.264118 59.741841 52.60111 59.078833 
C 51.938102 58.415825 51.038745 58.043299 50.10111 58.043299 
C 49.163475 58.043299 48.264118 58.415825 47.60111 59.078833 
C 46.938102 59.741841 46.565576 60.641198 46.565576 61.578833 
C 46.565576 62.516467 46.938102 63.415825 47.60111 64.078833 
C 48.264118 64.741841 49.163475 65.114367 50.10111 65.114367 
z
" clip-path="url(#p6024a10f37)" style="fill: #3f007d; stroke: #00ff00; stroke-width: 2"/>
    <path d="M 88.282624 65.623507 
C 88.376387 65.623507 88.466323 65.586254 88.532624 65.519954 
C 88.598925 65.453653 88.636177 65.363717 88.636177 65.269954 
C 88.636177 65.17619 88.598925 65.086254 88.532624 65.019954 
C 88.466323 64.953653 88.376387 64.9164 88.282624 64.9164 
C 88.18886 64.9164 88.098925 64.953653 88.032624 65.019954 
C 87.966323 65.086254 87.92907 65.17619 87.92907 65.269954 
C 87.92907 65.363717 87.966323 65.453653 88.032624 65.519954 
C 88.098925 65.586254 88.18886 65.623507 88.282624 65.623507 
z
" clip-path="url(#p6024a10f37)" style="fill: #fcfbfd; stroke: #00ff00; stroke-width: 2"/>
    <path d="M 67.556853 66.936187 
C 67.650617 66.936187 67.740553 66.898935 67.806853 66.832634 
C 67.873154 66.766333 67.910407 66.676397 67.910407 66.582634 
C 67.910407 66.48887 67.873154 66.398935 67.806853 66.332634 
C 67.740553 66.266333 67.650617 66.229081 67.556853 66.229081 
C 67.46309 66.229081 67.373154 66.266333 67.306853 66.332634 
C 67.240553 66.398935 67.2033 66.48887 67.2033 66.582634 
C 67.2033 66.676397 67.240553 66.766333 67.306853 66.832634 
C 67.373154 66.898935 67.46309 66.936187 67.556853 66.936187 
z
" clip-path="url(#p6024a10f37)" style="fill: #fcfbfd; stroke: #00ff00; stroke-width: 2"/>
   </g>
   <g id="patch_13">
    <path d="M 104.89468 77.760671 
Q 105.551562 78.487335 106.208444 79.213999 
" clip-path="url(#p6024a10f37)" style="fill: none; opacity: 0.684739; stroke: #bebebe; stroke-width: 0.369478; stroke-linecap: round"/>
   </g>
   <g id="patch_14">
    <path d="M 88.264585 82.35943 
Q 68.697449 87.17716 49.130314 91.994889 
" clip-path="url(#p6024a10f37)" style="fill: none; opacity: 0.887302; stroke: #484848; stroke-width: 0.774603; stroke-linecap: round"/>
   </g>
   <g id="patch_15">
    <path d="M 53.98525 90.799529 
Q 73.552385 85.9818 93.119521 81.16407 
" clip-path="url(#p6024a10f37)" style="fill: none; opacity: 0.887302; stroke: #484848; stroke-width: 0.774603; stroke-linecap: round"/>
   </g>
   <g id="patch_16">
    <path d="M 96.229502 79.87414 
Q 72.596597 81.437536 48.963691 83.000932 
" clip-path="url(#p6024a10f37)" style="fill: none; opacity: 0.728916; stroke: #a4a4a4; stroke-width: 0.457831; stroke-linecap: round"/>
   </g>
   <g id="patch_17">
    <path d="M 88.463279 72.672363 
Q 68.649424 77.419177 48.83557 82.165991 
" clip-path="url(#p6024a10f37)" style="fill: none; opacity: 0.873494; stroke: #535353; stroke-width: 0.746988; stroke-linecap: round"/>
   </g>
   <g id="patch_18">
    <path d="M 53.951001 82.671005 
Q 77.583907 81.107608 101.216812 79.544212 
" clip-path="url(#p6024a10f37)" style="fill: none; opacity: 0.728916; stroke: #a4a4a4; stroke-width: 0.457831; stroke-linecap: round"/>
   </g>
   <g id="patch_19">
    <path d="M 53.697585 81.001196 
Q 73.511439 76.254382 93.325293 71.507568 
" clip-path="url(#p6024a10f37)" style="fill: none; opacity: 0.873494; stroke: #535353; stroke-width: 0.746988; stroke-linecap: round"/>
   </g>
   <g id="patch_20">
    <path d="M 72.512082 38.172178 
Q 62.894627 40.224904 53.277172 42.277629 
" clip-path="url(#p6024a10f37)" style="fill: none; opacity: 0.625683; stroke: #d9d9d9; stroke-width: 0.251366; stroke-linecap: round"/>
   </g>
   <g id="patch_21">
    <path d="M 58.165947 41.234181 
Q 67.783402 39.181456 77.400857 37.128731 
" clip-path="url(#p6024a10f37)" style="fill: none; opacity: 0.625683; stroke: #d9d9d9; stroke-width: 0.251366; stroke-linecap: round"/>
   </g>
   <g id="patch_22">
    <path d="M 100.130996 89.582982 
Q 99.60032 87.214485 99.069644 84.845987 
" clip-path="url(#p6024a10f37)" style="fill: none; opacity: 0.863492; stroke: #585858; stroke-width: 0.726984; stroke-linecap: round"/>
   </g>
   <g id="patch_23">
    <path d="M 95.863169 91.70147 
Q 90.564419 85.430348 85.26567 79.159227 
" clip-path="url(#p6024a10f37)" style="fill: none; opacity: 0.693651; stroke: #bababa; stroke-width: 0.387302; stroke-linecap: round"/>
   </g>
   <g id="patch_24">
    <path d="M 92.372627 98.286234 
Q 70.807986 96.001784 49.243345 93.717333 
" clip-path="url(#p6024a10f37)" style="fill: none; stroke: #000000; stroke-linecap: round"/>
   </g>
   <g id="patch_25">
    <path d="M 100.162785 89.724864 
Q 100.693461 92.093361 101.224137 94.461859 
" clip-path="url(#p6024a10f37)" style="fill: none; opacity: 0.863492; stroke: #585858; stroke-width: 0.726984; stroke-linecap: round"/>
   </g>
   <g id="patch_26">
    <path d="M 88.490846 82.976254 
Q 93.789595 89.247375 99.088345 95.518497 
" clip-path="url(#p6024a10f37)" style="fill: none; opacity: 0.693651; stroke: #bababa; stroke-width: 0.387302; stroke-linecap: round"/>
   </g>
   <g id="patch_27">
    <path d="M 54.217518 94.244272 
Q 75.782159 96.528723 97.3468 98.813174 
" clip-path="url(#p6024a10f37)" style="fill: none; stroke: #000000; stroke-linecap: round"/>
   </g>
   <g id="patch_28">
    <path d="M 96.531363 69.879347 
Q 72.594093 71.418342 48.656823 72.957337 
" clip-path="url(#p6024a10f37)" style="fill: none; opacity: 0.824607; stroke: #6d6d6d; stroke-width: 0.649215; stroke-linecap: round"/>
   </g>
   <g id="patch_29">
    <path d="M 88.665718 62.802214 
Q 68.600295 67.473406 48.534873 72.144598 
" clip-path="url(#p6024a10f37)" style="fill: none; opacity: 0.879581; stroke: #4e4e4e; stroke-width: 0.759162; stroke-linecap: round"/>
   </g>
   <g id="patch_30">
    <path d="M 53.641546 72.636855 
Q 77.578816 71.09786 101.516086 69.558865 
" clip-path="url(#p6024a10f37)" style="fill: none; opacity: 0.824607; stroke: #6d6d6d; stroke-width: 0.649215; stroke-linecap: round"/>
   </g>
   <g id="patch_31">
    <path d="M 53.404279 71.01101 
Q 73.469701 66.339818 93.535123 61.668626 
" clip-path="url(#p6024a10f37)" style="fill: none; opacity: 0.879581; stroke: #4e4e4e; stroke-width: 0.759162; stroke-linecap: round"/>
   </g>
   <g id="patch_32">
    <path d="M 50.014323 101.376932 
Q 50.5548 102.147572 51.095278 102.918212 
" clip-path="url(#p6024a10f37)" style="fill: none; opacity: 0.687302; stroke: #bebebe; stroke-width: 0.374603; stroke-linecap: round"/>
   </g>
   <g id="patch_33">
    <path d="M 45.354055 94.73209 
Q 44.813577 93.96145 44.273099 93.19081 
" clip-path="url(#p6024a10f37)" style="fill: none; opacity: 0.687302; stroke: #bebebe; stroke-width: 0.374603; stroke-linecap: round"/>
   </g>
   <g id="patch_34">
    <path d="M 100.333644 79.630698 
Q 99.82414 77.424277 99.314636 75.217856 
" clip-path="url(#p6024a10f37)" style="fill: none; opacity: 0.783133; stroke: #848484; stroke-width: 0.566265; stroke-linecap: round"/>
   </g>
   <g id="patch_35">
    <path d="M 96.024699 81.824888 
Q 90.701475 75.697767 85.378252 69.570645 
" clip-path="url(#p6024a10f37)" style="fill: none; opacity: 0.797189; stroke: #7c7c7c; stroke-width: 0.594378; stroke-linecap: round"/>
   </g>
   <g id="patch_36">
    <path d="M 92.634977 88.348571 
Q 70.791018 86.096333 48.947058 83.844096 
" clip-path="url(#p6024a10f37)" style="fill: none; stroke: #000000; stroke-linecap: round"/>
   </g>
   <g id="patch_37">
    <path d="M 100.438794 80.086051 
Q 100.948298 82.292472 101.457802 84.498893 
" clip-path="url(#p6024a10f37)" style="fill: none; opacity: 0.783133; stroke: #848484; stroke-width: 0.566265; stroke-linecap: round"/>
   </g>
   <g id="patch_38">
    <path d="M 88.658087 73.345792 
Q 93.981311 79.472914 99.304535 85.600035 
" clip-path="url(#p6024a10f37)" style="fill: none; opacity: 0.797189; stroke: #7c7c7c; stroke-width: 0.594378; stroke-linecap: round"/>
   </g>
   <g id="patch_39">
    <path d="M 53.920715 84.356909 
Q 75.764675 86.609146 97.608634 88.861383 
" clip-path="url(#p6024a10f37)" style="fill: none; stroke: #000000; stroke-linecap: round"/>
   </g>
   <g id="patch_40">
    <path d="M 97.168279 47.783996 
Q 75.267423 45.780697 53.366567 43.777398 
" clip-path="url(#p6024a10f37)" style="fill: none; opacity: 0.617486; stroke: #dcdcdc; stroke-width: 0.234973; stroke-linecap: round"/>
   </g>
   <g id="patch_41">
    <path d="M 58.341184 44.232432 
Q 80.24204 46.235732 102.142896 48.239031 
" clip-path="url(#p6024a10f37)" style="fill: none; opacity: 0.617486; stroke: #dcdcdc; stroke-width: 0.234973; stroke-linecap: round"/>
   </g>
   <g id="patch_42">
    <path d="M 96.831381 59.689564 
Q 72.587159 61.202299 48.342938 62.715035 
" clip-path="url(#p6024a10f37)" style="fill: none; opacity: 0.829843; stroke: #6a6a6a; stroke-width: 0.659686; stroke-linecap: round"/>
   </g>
   <g id="patch_43">
    <path d="M 53.333715 62.403632 
Q 77.577936 60.890896 101.822158 59.378161 
" clip-path="url(#p6024a10f37)" style="fill: none; opacity: 0.829843; stroke: #6a6a6a; stroke-width: 0.659686; stroke-linecap: round"/>
   </g>
   <g id="patch_44">
    <path d="M 96.189405 71.758072 
Q 90.842844 65.780974 85.496283 59.803876 
" clip-path="url(#p6024a10f37)" style="fill: none; opacity: 0.971204; stroke: #101010; stroke-width: 0.942408; stroke-linecap: round"/>
   </g>
   <g id="patch_45">
    <path d="M 92.902556 78.212867 
Q 70.770653 75.994797 48.638749 73.776727 
" clip-path="url(#p6024a10f37)" style="fill: none; stroke: #000000; stroke-linecap: round"/>
   </g>
   <g id="patch_46">
    <path d="M 88.828624 63.529211 
Q 94.175185 69.506309 99.521746 75.483407 
" clip-path="url(#p6024a10f37)" style="fill: none; opacity: 0.971204; stroke: #101010; stroke-width: 0.942408; stroke-linecap: round"/>
   </g>
   <g id="patch_47">
    <path d="M 53.618097 74.27576 
Q 75.750001 76.49383 97.881904 78.7119 
" clip-path="url(#p6024a10f37)" style="fill: none; stroke: #000000; stroke-linecap: round"/>
   </g>
   <g id="patch_48">
    <path d="M 83.822062 85.173451 
Q 85.347083 93.575944 86.872104 101.978437 
" clip-path="url(#p6024a10f37)" style="fill: none; opacity: 0.71746; stroke: #aaaaaa; stroke-width: 0.434921; stroke-linecap: round"/>
   </g>
   <g id="patch_49">
    <path d="M 85.979835 97.062257 
Q 84.454814 88.659764 82.929793 80.257271 
" clip-path="url(#p6024a10f37)" style="fill: none; opacity: 0.71746; stroke: #aaaaaa; stroke-width: 0.434921; stroke-linecap: round"/>
   </g>
   <g id="patch_50">
    <path d="M 97.145148 49.298023 
Q 72.584221 50.782998 48.023294 52.267974 
" clip-path="url(#p6024a10f37)" style="fill: none; opacity: 0.740437; stroke: #9d9d9d; stroke-width: 0.480874; stroke-linecap: round"/>
   </g>
   <g id="patch_51">
    <path d="M 53.011906 51.966358 
Q 77.572833 50.481382 102.13376 48.996407 
" clip-path="url(#p6024a10f37)" style="fill: none; opacity: 0.740437; stroke: #9d9d9d; stroke-width: 0.480874; stroke-linecap: round"/>
   </g>
   <g id="patch_52">
    <path d="M 100.741421 59.132669 
Q 100.281052 57.263638 99.820683 55.394607 
" clip-path="url(#p6024a10f37)" style="fill: none; opacity: 0.756545; stroke: #929292; stroke-width: 0.513089; stroke-linecap: round"/>
   </g>
   <g id="patch_53">
    <path d="M 96.352279 61.489932 
Q 90.983752 55.669152 85.615226 49.848371 
" clip-path="url(#p6024a10f37)" style="fill: none; opacity: 0.900524; stroke: #404040; stroke-width: 0.801047; stroke-linecap: round"/>
   </g>
   <g id="patch_54">
    <path d="M 93.182821 67.873854 
Q 70.756869 65.692311 48.330918 63.510768 
" clip-path="url(#p6024a10f37)" style="fill: none; opacity: 0.832461; stroke: #696969; stroke-width: 0.664921; stroke-linecap: round"/>
   </g>
   <g id="patch_55">
    <path d="M 101.016557 60.249685 
Q 101.476926 62.118717 101.937295 63.987748 
" clip-path="url(#p6024a10f37)" style="fill: none; opacity: 0.756545; stroke: #929292; stroke-width: 0.513089; stroke-linecap: round"/>
   </g>
   <g id="patch_56">
    <path d="M 89.007659 53.526589 
Q 94.376185 59.347369 99.744711 65.168149 
" clip-path="url(#p6024a10f37)" style="fill: none; opacity: 0.900524; stroke: #404040; stroke-width: 0.801047; stroke-linecap: round"/>
   </g>
   <g id="patch_57">
    <path d="M 53.302193 63.994362 
Q 75.728144 66.175905 98.154096 68.357448 
" clip-path="url(#p6024a10f37)" style="fill: none; opacity: 0.832461; stroke: #696969; stroke-width: 0.664921; stroke-linecap: round"/>
   </g>
   <g id="patch_58">
    <path d="M 83.935088 75.626631 
Q 85.453834 83.758567 86.97258 91.890504 
" clip-path="url(#p6024a10f37)" style="fill: none; opacity: 0.688755; stroke: #bdbdbd; stroke-width: 0.37751; stroke-linecap: round"/>
   </g>
   <g id="patch_59">
    <path d="M 86.054508 86.974799 
Q 84.535761 78.842863 83.017015 70.710926 
" clip-path="url(#p6024a10f37)" style="fill: none; opacity: 0.688755; stroke: #bdbdbd; stroke-width: 0.37751; stroke-linecap: round"/>
   </g>
   <g id="patch_60">
    <path d="M 60.393853 95.879488 
Q 61.706873 96.290646 63.019893 96.701804 
" clip-path="url(#p6024a10f37)" style="fill: none; opacity: 0.60241; stroke: #e1e1e1; stroke-width: 0.204819; stroke-linecap: round"/>
   </g>
   <g id="patch_61">
    <path d="M 58.251868 95.208749 
Q 56.938848 94.797591 55.625828 94.386433 
" clip-path="url(#p6024a10f37)" style="fill: none; opacity: 0.60241; stroke: #e1e1e1; stroke-width: 0.204819; stroke-linecap: round"/>
   </g>
   <g id="patch_62">
    <path d="M 97.071754 61.337822 
Q 76.148016 66.215974 55.224278 71.094126 
" clip-path="url(#p6024a10f37)" style="fill: none; opacity: 0.910995; stroke: #383838; stroke-width: 0.82199; stroke-linecap: round"/>
   </g>
   <g id="patch_63">
    <path d="M 49.40805 70.981922 
Q 49.882641 71.605375 50.357231 72.228827 
" clip-path="url(#p6024a10f37)" style="fill: none; opacity: 0.787958; stroke: #818181; stroke-width: 0.575916; stroke-linecap: round"/>
   </g>
   <g id="patch_64">
    <path d="M 60.098468 69.957759 
Q 81.022207 65.079607 101.945945 60.201455 
" clip-path="url(#p6024a10f37)" style="fill: none; opacity: 0.910995; stroke: #383838; stroke-width: 0.82199; stroke-linecap: round"/>
   </g>
   <g id="patch_65">
    <path d="M 44.301285 64.273347 
Q 43.826695 63.649894 43.352104 63.026441 
" clip-path="url(#p6024a10f37)" style="fill: none; opacity: 0.787958; stroke: #818181; stroke-width: 0.575916; stroke-linecap: round"/>
   </g>
   <g id="patch_66">
    <path d="M 93.766074 55.642447 
Q 73.489562 50.137463 53.21305 44.632478 
" clip-path="url(#p6024a10f37)" style="fill: none; stroke: #000000; stroke-linecap: round"/>
   </g>
   <g id="patch_67">
    <path d="M 93.461412 57.323874 
Q 70.735618 55.181392 48.009824 53.038909 
" clip-path="url(#p6024a10f37)" style="fill: none; opacity: 0.95082; stroke: #1d1d1d; stroke-width: 0.901639; stroke-linecap: round"/>
   </g>
   <g id="patch_68">
    <path d="M 58.035093 45.941642 
Q 78.311606 51.446627 98.588118 56.951611 
" clip-path="url(#p6024a10f37)" style="fill: none; stroke: #000000; stroke-linecap: round"/>
   </g>
   <g id="patch_69">
    <path d="M 52.987346 53.508167 
Q 75.71314 55.65065 98.438934 57.793132 
" clip-path="url(#p6024a10f37)" style="fill: none; opacity: 0.95082; stroke: #1d1d1d; stroke-width: 0.901639; stroke-linecap: round"/>
   </g>
   <g id="patch_70">
    <path d="M 93.883047 83.62302 
Q 93.194365 83.961713 92.505683 84.300406 
" clip-path="url(#p6024a10f37)" style="fill: none; opacity: 0.816754; stroke: #717171; stroke-width: 0.633508; stroke-linecap: round"/>
   </g>
   <g id="patch_71">
    <path d="M 84.051832 65.894697 
Q 85.562821 73.746418 87.07381 81.598138 
" clip-path="url(#p6024a10f37)" style="fill: none; opacity: 0.986911; stroke: #070707; stroke-width: 0.973822; stroke-linecap: round"/>
   </g>
   <g id="patch_72">
    <path d="M 96.990998 82.094533 
Q 97.67968 81.755839 98.368362 81.417146 
" clip-path="url(#p6024a10f37)" style="fill: none; opacity: 0.816754; stroke: #717171; stroke-width: 0.633508; stroke-linecap: round"/>
   </g>
   <g id="patch_73">
    <path d="M 86.129174 76.689419 
Q 84.618185 68.837699 83.107196 60.985979 
" clip-path="url(#p6024a10f37)" style="fill: none; opacity: 0.986911; stroke: #070707; stroke-width: 0.973822; stroke-linecap: round"/>
   </g>
   <g id="patch_74">
    <path d="M 60.176435 85.577955 
Q 61.554932 85.997698 62.93343 86.41744 
" clip-path="url(#p6024a10f37)" style="fill: none; opacity: 0.76178; stroke: #909090; stroke-width: 0.52356; stroke-linecap: round"/>
   </g>
   <g id="patch_75">
    <path d="M 58.146682 84.959909 
Q 56.768185 84.540167 55.389688 84.120424 
" clip-path="url(#p6024a10f37)" style="fill: none; opacity: 0.76178; stroke: #909090; stroke-width: 0.52356; stroke-linecap: round"/>
   </g>
   <g id="patch_76">
    <path d="M 77.693223 87.201955 
Q 80.361513 87.022413 83.029803 86.84287 
" clip-path="url(#p6024a10f37)" style="fill: none; opacity: 0.876963; stroke: #515151; stroke-width: 0.753927; stroke-linecap: round"/>
   </g>
   <g id="patch_77">
    <path d="M 78.040208 87.178608 
Q 75.371917 87.35815 72.703627 87.537693 
" clip-path="url(#p6024a10f37)" style="fill: none; opacity: 0.876963; stroke: #515151; stroke-width: 0.753927; stroke-linecap: round"/>
   </g>
   <g id="patch_78">
    <path d="M 97.368619 50.89892 
Q 76.174115 55.687737 54.979611 60.476554 
" clip-path="url(#p6024a10f37)" style="fill: none; opacity: 0.729508; stroke: #a3a3a3; stroke-width: 0.459016; stroke-linecap: round"/>
   </g>
   <g id="patch_79">
    <path d="M 49.205496 60.437295 
Q 49.653303 61.008064 50.10111 61.578833 
" clip-path="url(#p6024a10f37)" style="fill: none; opacity: 0.827869; stroke: #6b6b6b; stroke-width: 0.655738; stroke-linecap: round"/>
   </g>
   <g id="patch_80">
    <path d="M 59.856712 59.374592 
Q 81.051216 54.585775 102.24572 49.796958 
" clip-path="url(#p6024a10f37)" style="fill: none; opacity: 0.729508; stroke: #a3a3a3; stroke-width: 0.459016; stroke-linecap: round"/>
   </g>
   <g id="patch_81">
    <path d="M 43.928448 53.71124 
Q 43.48064 53.140471 43.032833 52.569702 
" clip-path="url(#p6024a10f37)" style="fill: none; opacity: 0.827869; stroke: #6b6b6b; stroke-width: 0.655738; stroke-linecap: round"/>
   </g>
   <g id="patch_82">
    <path d="M 84.175305 55.98588 
Q 85.675706 63.541604 87.176108 71.097329 
" clip-path="url(#p6024a10f37)" style="fill: none; opacity: 0.746073; stroke: #999999; stroke-width: 0.492147; stroke-linecap: round"/>
   </g>
   <g id="patch_83">
    <path d="M 86.200934 66.186546 
Q 84.700532 58.630821 83.20013 51.075096 
" clip-path="url(#p6024a10f37)" style="fill: none; opacity: 0.746073; stroke: #999999; stroke-width: 0.492147; stroke-linecap: round"/>
   </g>
   <g id="patch_84">
    <path d="M 59.946156 75.063959 
Q 61.393766 75.49197 62.841376 75.919981 
" clip-path="url(#p6024a10f37)" style="fill: none; stroke: #000000; stroke-linecap: round"/>
   </g>
   <g id="patch_85">
    <path d="M 58.047777 74.50267 
Q 56.600167 74.074659 55.152557 73.646648 
" clip-path="url(#p6024a10f37)" style="fill: none; stroke: #000000; stroke-linecap: round"/>
   </g>
   <g id="patch_86">
    <path d="M 94.338161 62.465882 
Q 93.57974 62.817075 92.82132 63.168269 
" clip-path="url(#p6024a10f37)" style="fill: none; opacity: 0.781421; stroke: #858585; stroke-width: 0.562842; stroke-linecap: round"/>
   </g>
   <g id="patch_87">
    <path d="M 84.302804 45.878373 
Q 85.789892 53.124177 87.276981 60.369982 
" clip-path="url(#p6024a10f37)" style="fill: none; opacity: 0.68306; stroke: #bfbfbf; stroke-width: 0.36612; stroke-linecap: round"/>
   </g>
   <g id="patch_88">
    <path d="M 97.360388 61.066412 
Q 98.118808 60.715218 98.877229 60.364025 
" clip-path="url(#p6024a10f37)" style="fill: none; opacity: 0.781421; stroke: #858585; stroke-width: 0.562842; stroke-linecap: round"/>
   </g>
   <g id="patch_89">
    <path d="M 86.272606 55.47619 
Q 84.785518 48.230386 83.298429 40.984582 
" clip-path="url(#p6024a10f37)" style="fill: none; opacity: 0.68306; stroke: #bfbfbf; stroke-width: 0.36612; stroke-linecap: round"/>
   </g>
   <g id="patch_90">
    <path d="M 59.711145 64.333611 
Q 61.230101 64.76903 62.749058 65.204449 
" clip-path="url(#p6024a10f37)" style="fill: none; opacity: 0.907104; stroke: #3a3a3a; stroke-width: 0.814208; stroke-linecap: round"/>
   </g>
   <g id="patch_91">
    <path d="M 57.946819 63.827856 
Q 56.427862 63.392437 54.908905 62.957018 
" clip-path="url(#p6024a10f37)" style="fill: none; opacity: 0.907104; stroke: #3a3a3a; stroke-width: 0.814208; stroke-linecap: round"/>
   </g>
  </g>
 </g>
 <defs>
  <clipPath id="p6024a10f37">
   <rect x="18.36" y="17.28" width="110.88" height="110.88"/>
  </clipPath>
 </defs>
</svg>
