<?xml version="1.0" encoding="utf-8" standalone="no"?>
<!DOCTYPE svg PUBLIC "-//W3C//DTD SVG 1.1//EN"
  "http://www.w3.org/Graphics/SVG/1.1/DTD/svg11.dtd">
<svg xmlns:xlink="http://www.w3.org/1999/xlink" width="144pt" height="144pt" viewBox="0 0 144 144" xmlns="http://www.w3.org/2000/svg" version="1.1">
 <metadata>
  <rdf:RDF xmlns:dc="http://purl.org/dc/elements/1.1/" xmlns:cc="http://creativecommons.org/ns#" xmlns:rdf="http://www.w3.org/1999/02/22-rdf-syntax-ns#">
   <cc:Work>
    <dc:type rdf:resource="http://purl.org/dc/dcmitype/StillImage"/>
    <dc:date>2025-06-03T17:18:16.283021</dc:date>
    <dc:format>image/svg+xml</dc:format>
    <dc:creator>
     <cc:Agent>
      <dc:title>Matplotlib v3.9.2, https://matplotlib.org/</dc:title>
     </cc:Agent>
    </dc:creator>
   </cc:Work>
  </rdf:RDF>
 </metadata>
 <defs>
  <style type="text/css">*{stroke-linejoin: round; stroke-linecap: butt}</style>
 </defs>
 <g id="figure_1">
  <g id="patch_1">
   <path d="M 0 144 
L 144 144 
L 144 0 
L 0 0 
z
" style="fill: #ffffff"/>
  </g>
  <g id="axes_1">
   <g id="patch_2">
    <path d="M 18 128.16 
L 129.6 128.16 
L 129.6 17.28 
L 18 17.28 
z
" style="fill: #ffffff"/>
   </g>
   <g id="matplotlib.axis_1">
    <g id="xtick_1">
     <g id="line2d_1">
      <defs>
       <path id="m96423d298b" d="M 0 0 
L 0 3.5 
" style="stroke: #000000; stroke-width: 0.8"/>
      </defs>
      <g>
       <use xlink:href="#m96423d298b" x="18" y="128.16" style="stroke: #000000; stroke-width: 0.8"/>
      </g>
     </g>
     <g id="text_1">
      <!-- 0.0 -->
      <g transform="translate(10.048437 142.758438) scale(0.1 -0.1)">
       <defs>
        <path id="DejaVuSerif-30" d="M 2034 219 
Q 2513 219 2750 744 
Q 2988 1269 2988 2328 
Q 2988 3391 2750 3916 
Q 2513 4441 2034 4441 
Q 1556 4441 1318 3916 
Q 1081 3391 1081 2328 
Q 1081 1269 1318 744 
Q 1556 219 2034 219 
z
M 2034 -91 
Q 1275 -91 848 546 
Q 422 1184 422 2328 
Q 422 3475 848 4112 
Q 1275 4750 2034 4750 
Q 2797 4750 3222 4112 
Q 3647 3475 3647 2328 
Q 3647 1184 3222 546 
Q 2797 -91 2034 -91 
z
" transform="scale(0.015625)"/>
        <path id="DejaVuSerif-2e" d="M 603 325 
Q 603 500 722 622 
Q 841 744 1019 744 
Q 1191 744 1312 622 
Q 1434 500 1434 325 
Q 1434 153 1312 31 
Q 1191 -91 1019 -91 
Q 841 -91 722 29 
Q 603 150 603 325 
z
" transform="scale(0.015625)"/>
       </defs>
       <use xlink:href="#DejaVuSerif-30"/>
       <use xlink:href="#DejaVuSerif-2e" x="63.623047"/>
       <use xlink:href="#DejaVuSerif-30" x="95.410156"/>
      </g>
     </g>
    </g>
    <g id="xtick_2">
     <g id="line2d_2">
      <g>
       <use xlink:href="#m96423d298b" x="73.8" y="128.16" style="stroke: #000000; stroke-width: 0.8"/>
      </g>
     </g>
     <g id="text_2">
      <!-- 0.5 -->
      <g transform="translate(65.848438 142.758438) scale(0.1 -0.1)">
       <defs>
        <path id="DejaVuSerif-35" d="M 3219 4666 
L 3219 4153 
L 1081 4153 
L 1081 2816 
Q 1244 2928 1461 2984 
Q 1678 3041 1947 3041 
Q 2703 3041 3140 2622 
Q 3578 2203 3578 1478 
Q 3578 738 3136 323 
Q 2694 -91 1894 -91 
Q 1572 -91 1234 -12 
Q 897 66 544 225 
L 544 1131 
L 897 1131 
Q 925 688 1179 453 
Q 1434 219 1894 219 
Q 2388 219 2653 544 
Q 2919 869 2919 1478 
Q 2919 2084 2655 2407 
Q 2391 2731 1894 2731 
Q 1613 2731 1398 2631 
Q 1184 2531 1019 2322 
L 750 2322 
L 750 4666 
L 3219 4666 
z
" transform="scale(0.015625)"/>
       </defs>
       <use xlink:href="#DejaVuSerif-30"/>
       <use xlink:href="#DejaVuSerif-2e" x="63.623047"/>
       <use xlink:href="#DejaVuSerif-35" x="95.410156"/>
      </g>
     </g>
    </g>
    <g id="xtick_3">
     <g id="line2d_3">
      <g>
       <use xlink:href="#m96423d298b" x="129.6" y="128.16" style="stroke: #000000; stroke-width: 0.8"/>
      </g>
     </g>
     <g id="text_3">
      <!-- 1.0 -->
      <g transform="translate(121.648438 142.758438) scale(0.1 -0.1)">
       <defs>
        <path id="DejaVuSerif-31" d="M 909 0 
L 909 331 
L 1722 331 
L 1722 4213 
L 781 3603 
L 781 4013 
L 1919 4750 
L 2350 4750 
L 2350 331 
L 3163 331 
L 3163 0 
L 909 0 
z
" transform="scale(0.015625)"/>
       </defs>
       <use xlink:href="#DejaVuSerif-31"/>
       <use xlink:href="#DejaVuSerif-2e" x="63.623047"/>
       <use xlink:href="#DejaVuSerif-30" x="95.410156"/>
      </g>
     </g>
    </g>
   </g>
   <g id="matplotlib.axis_2">
    <g id="ytick_1">
     <g id="line2d_4">
      <defs>
       <path id="ma7d13995c9" d="M 0 0 
L -3.5 0 
" style="stroke: #000000; stroke-width: 0.8"/>
      </defs>
      <g>
       <use xlink:href="#ma7d13995c9" x="18" y="128.16" style="stroke: #000000; stroke-width: 0.8"/>
      </g>
     </g>
     <g id="text_4">
      <!-- 0.0 -->
      <g transform="translate(-4.903125 131.959219) scale(0.1 -0.1)">
       <use xlink:href="#DejaVuSerif-30"/>
       <use xlink:href="#DejaVuSerif-2e" x="63.623047"/>
       <use xlink:href="#DejaVuSerif-30" x="95.410156"/>
      </g>
     </g>
    </g>
    <g id="ytick_2">
     <g id="line2d_5">
      <g>
       <use xlink:href="#ma7d13995c9" x="18" y="105.984" style="stroke: #000000; stroke-width: 0.8"/>
      </g>
     </g>
     <g id="text_5">
      <!-- 0.2 -->
      <g transform="translate(-4.903125 109.783219) scale(0.1 -0.1)">
       <defs>
        <path id="DejaVuSerif-32" d="M 819 3553 
L 469 3553 
L 469 4384 
Q 803 4563 1142 4656 
Q 1481 4750 1806 4750 
Q 2534 4750 2956 4397 
Q 3378 4044 3378 3438 
Q 3378 2753 2422 1800 
Q 2347 1728 2309 1691 
L 1131 513 
L 3078 513 
L 3078 1088 
L 3444 1088 
L 3444 0 
L 434 0 
L 434 341 
L 1850 1753 
Q 2319 2222 2519 2614 
Q 2719 3006 2719 3438 
Q 2719 3909 2473 4175 
Q 2228 4441 1797 4441 
Q 1350 4441 1106 4219 
Q 863 3997 819 3553 
z
" transform="scale(0.015625)"/>
       </defs>
       <use xlink:href="#DejaVuSerif-30"/>
       <use xlink:href="#DejaVuSerif-2e" x="63.623047"/>
       <use xlink:href="#DejaVuSerif-32" x="95.410156"/>
      </g>
     </g>
    </g>
    <g id="ytick_3">
     <g id="line2d_6">
      <g>
       <use xlink:href="#ma7d13995c9" x="18" y="83.808" style="stroke: #000000; stroke-width: 0.8"/>
      </g>
     </g>
     <g id="text_6">
      <!-- 0.4 -->
      <g transform="translate(-4.903125 87.607219) scale(0.1 -0.1)">
       <defs>
        <path id="DejaVuSerif-34" d="M 2234 1581 
L 2234 4063 
L 641 1581 
L 2234 1581 
z
M 3609 0 
L 1484 0 
L 1484 331 
L 2234 331 
L 2234 1247 
L 197 1247 
L 197 1588 
L 2241 4750 
L 2859 4750 
L 2859 1581 
L 3750 1581 
L 3750 1247 
L 2859 1247 
L 2859 331 
L 3609 331 
L 3609 0 
z
" transform="scale(0.015625)"/>
       </defs>
       <use xlink:href="#DejaVuSerif-30"/>
       <use xlink:href="#DejaVuSerif-2e" x="63.623047"/>
       <use xlink:href="#DejaVuSerif-34" x="95.410156"/>
      </g>
     </g>
    </g>
    <g id="ytick_4">
     <g id="line2d_7">
      <g>
       <use xlink:href="#ma7d13995c9" x="18" y="61.632" style="stroke: #000000; stroke-width: 0.8"/>
      </g>
     </g>
     <g id="text_7">
      <!-- 0.6 -->
      <g transform="translate(-4.903125 65.431219) scale(0.1 -0.1)">
       <defs>
        <path id="DejaVuSerif-36" d="M 2094 219 
Q 2534 219 2771 542 
Q 3009 866 3009 1472 
Q 3009 2078 2771 2401 
Q 2534 2725 2094 2725 
Q 1647 2725 1412 2412 
Q 1178 2100 1178 1509 
Q 1178 888 1415 553 
Q 1653 219 2094 219 
z
M 1075 2569 
Q 1288 2803 1556 2918 
Q 1825 3034 2163 3034 
Q 2859 3034 3264 2615 
Q 3669 2197 3669 1472 
Q 3669 763 3233 336 
Q 2797 -91 2069 -91 
Q 1278 -91 853 498 
Q 428 1088 428 2181 
Q 428 3406 931 4078 
Q 1434 4750 2350 4750 
Q 2597 4750 2869 4703 
Q 3141 4656 3425 4563 
L 3425 3794 
L 3072 3794 
Q 3034 4109 2831 4275 
Q 2628 4441 2284 4441 
Q 1678 4441 1381 3981 
Q 1084 3522 1075 2569 
z
" transform="scale(0.015625)"/>
       </defs>
       <use xlink:href="#DejaVuSerif-30"/>
       <use xlink:href="#DejaVuSerif-2e" x="63.623047"/>
       <use xlink:href="#DejaVuSerif-36" x="95.410156"/>
      </g>
     </g>
    </g>
    <g id="ytick_5">
     <g id="line2d_8">
      <g>
       <use xlink:href="#ma7d13995c9" x="18" y="39.456" style="stroke: #000000; stroke-width: 0.8"/>
      </g>
     </g>
     <g id="text_8">
      <!-- 0.8 -->
      <g transform="translate(-4.903125 43.255219) scale(0.1 -0.1)">
       <defs>
        <path id="DejaVuSerif-38" d="M 2981 1275 
Q 2981 1775 2732 2051 
Q 2484 2328 2034 2328 
Q 1584 2328 1336 2051 
Q 1088 1775 1088 1275 
Q 1088 772 1336 495 
Q 1584 219 2034 219 
Q 2484 219 2732 495 
Q 2981 772 2981 1275 
z
M 2853 3541 
Q 2853 3966 2637 4203 
Q 2422 4441 2034 4441 
Q 1650 4441 1433 4203 
Q 1216 3966 1216 3541 
Q 1216 3113 1433 2875 
Q 1650 2638 2034 2638 
Q 2422 2638 2637 2875 
Q 2853 3113 2853 3541 
z
M 2516 2484 
Q 3047 2413 3344 2092 
Q 3641 1772 3641 1275 
Q 3641 619 3225 264 
Q 2809 -91 2034 -91 
Q 1263 -91 845 264 
Q 428 619 428 1275 
Q 428 1772 725 2092 
Q 1022 2413 1556 2484 
Q 1084 2569 832 2842 
Q 581 3116 581 3541 
Q 581 4103 968 4426 
Q 1356 4750 2034 4750 
Q 2713 4750 3100 4426 
Q 3488 4103 3488 3541 
Q 3488 3116 3236 2842 
Q 2984 2569 2516 2484 
z
" transform="scale(0.015625)"/>
       </defs>
       <use xlink:href="#DejaVuSerif-30"/>
       <use xlink:href="#DejaVuSerif-2e" x="63.623047"/>
       <use xlink:href="#DejaVuSerif-38" x="95.410156"/>
      </g>
     </g>
    </g>
    <g id="ytick_6">
     <g id="line2d_9">
      <g>
       <use xlink:href="#ma7d13995c9" x="18" y="17.28" style="stroke: #000000; stroke-width: 0.8"/>
      </g>
     </g>
     <g id="text_9">
      <!-- 1.0 -->
      <g transform="translate(-4.903125 21.079219) scale(0.1 -0.1)">
       <use xlink:href="#DejaVuSerif-31"/>
       <use xlink:href="#DejaVuSerif-2e" x="63.623047"/>
       <use xlink:href="#DejaVuSerif-30" x="95.410156"/>
      </g>
     </g>
    </g>
   </g>
   <g id="patch_3">
    <path d="M 18 128.16 
L 18 17.28 
" style="fill: none; stroke: #000000; stroke-width: 0.8; stroke-linejoin: miter; stroke-linecap: square"/>
   </g>
   <g id="patch_4">
    <path d="M 129.6 128.16 
L 129.6 17.28 
" style="fill: none; stroke: #000000; stroke-width: 0.8; stroke-linejoin: miter; stroke-linecap: square"/>
   </g>
   <g id="patch_5">
    <path d="M 18 128.16 
L 129.6 128.16 
" style="fill: none; stroke: #000000; stroke-width: 0.8; stroke-linejoin: miter; stroke-linecap: square"/>
   </g>
   <g id="patch_6">
    <path d="M 18 17.28 
L 129.6 17.28 
" style="fill: none; stroke: #000000; stroke-width: 0.8; stroke-linejoin: miter; stroke-linecap: square"/>
   </g>
  </g>
  <g id="patch_7">
   <path d="M 18.36 128.16 
L 129.24 128.16 
L 129.24 17.28 
L 18.36 17.28 
z
" style="fill: #ffffff"/>
  </g>
  <g id="axes_2">
   <g id="patch_8">
    <path d="M 44.836688 92.088999 
Q 44.554894 92.639904 44.273099 93.19081 
" clip-path="url(#pa0cdfc1b49)" style="fill: none; opacity: 0.934653; stroke: #272727; stroke-width: 0.869307; stroke-linecap: round"/>
   </g>
   <g id="Path3DCollection_1">
    <path d="M 82.036969 75.69158 
C 82.130732 75.69158 82.220668 75.654328 82.286969 75.588027 
C 82.35327 75.521726 82.390522 75.431791 82.390522 75.338027 
C 82.390522 75.244264 82.35327 75.154328 82.286969 75.088027 
C 82.220668 75.021726 82.130732 74.984474 82.036969 74.984474 
C 81.943205 74.984474 81.85327 75.021726 81.786969 75.088027 
C 81.720668 75.154328 81.683415 75.244264 81.683415 75.338027 
C 81.683415 75.431791 81.720668 75.521726 81.786969 75.588027 
C 81.85327 75.654328 81.943205 75.69158 82.036969 75.69158 
z
" clip-path="url(#pa0cdfc1b49)" style="fill: #fff5f0; stroke: #ff0000; stroke-width: 2"/>
    <path d="M 63.769997 76.881398 
C 63.863761 76.881398 63.953697 76.844145 64.019997 76.777844 
C 64.086298 76.711543 64.123551 76.621608 64.123551 76.527844 
C 64.123551 76.434081 64.086298 76.344145 64.019997 76.277844 
C 63.953697 76.211543 63.863761 76.174291 63.769997 76.174291 
C 63.676234 76.174291 63.586298 76.211543 63.519997 76.277844 
C 63.453697 76.344145 63.416444 76.434081 63.416444 76.527844 
C 63.416444 76.621608 63.453697 76.711543 63.519997 76.777844 
C 63.586298 76.844145 63.676234 76.881398 63.769997 76.881398 
z
" clip-path="url(#pa0cdfc1b49)" style="fill: #fff5f0; stroke: #00ff00; stroke-width: 2"/>
    <path d="M 97.976735 80.321703 
C 98.070498 80.321703 98.160434 80.28445 98.226735 80.21815 
C 98.293036 80.151849 98.330288 80.061913 98.330288 79.96815 
C 98.330288 79.874386 98.293036 79.78445 98.226735 79.71815 
C 98.160434 79.651849 98.070498 79.614596 97.976735 79.614596 
C 97.882972 79.614596 97.793036 79.651849 97.726735 79.71815 
C 97.660434 79.78445 97.623182 79.874386 97.623182 79.96815 
C 97.623182 80.061913 97.660434 80.151849 97.726735 80.21815 
C 97.793036 80.28445 97.882972 80.321703 97.976735 80.321703 
z
" clip-path="url(#pa0cdfc1b49)" style="fill: #fff5f0; stroke: #00ff00; stroke-width: 2"/>
    <path d="M 49.391636 86.719652 
C 50.32927 86.719652 51.228628 86.347126 51.891636 85.684118 
C 52.554643 85.02111 52.927169 84.121753 52.927169 83.184118 
C 52.927169 82.246483 52.554643 81.347126 51.891636 80.684118 
C 51.228628 80.02111 50.32927 79.648584 49.391636 79.648584 
C 48.454001 79.648584 47.554643 80.02111 46.891636 80.684118 
C 46.228628 81.347126 45.856102 82.246483 45.856102 83.184118 
C 45.856102 84.121753 46.228628 85.02111 46.891636 85.684118 
C 47.554643 86.347126 48.454001 86.719652 49.391636 86.719652 
z
" clip-path="url(#pa0cdfc1b49)" style="fill: #67000d; stroke: #00ff00; stroke-width: 2"/>
    <path d="M 105.914786 89.354064 
C 106.00855 89.354064 106.098485 89.316812 106.164786 89.250511 
C 106.231087 89.18421 106.268339 89.094274 106.268339 89.000511 
C 106.268339 88.906747 106.231087 88.816812 106.164786 88.750511 
C 106.098485 88.68421 106.00855 88.646957 105.914786 88.646957 
C 105.821023 88.646957 105.731087 88.68421 105.664786 88.750511 
C 105.598485 88.816812 105.561233 88.906747 105.561233 89.000511 
C 105.561233 89.094274 105.598485 89.18421 105.664786 89.250511 
C 105.731087 89.316812 105.821023 89.354064 105.914786 89.354064 
z
" clip-path="url(#pa0cdfc1b49)" style="fill: #fff5f0; stroke: #00ff00; stroke-width: 2"/>
    <path d="M 44.273099 96.726344 
C 45.210734 96.726344 46.110092 96.353818 46.773099 95.69081 
C 47.436107 95.027802 47.808633 94.128444 47.808633 93.19081 
C 47.808633 92.253175 47.436107 91.353818 46.773099 90.69081 
C 46.110092 90.027802 45.210734 89.655276 44.273099 89.655276 
C 43.335465 89.655276 42.436107 90.027802 41.773099 90.69081 
C 41.110092 91.353818 40.737566 92.253175 40.737566 93.19081 
C 40.737566 94.128444 41.110092 95.027802 41.773099 95.69081 
C 42.436107 96.353818 43.335465 96.726344 44.273099 96.726344 
z
" clip-path="url(#pa0cdfc1b49)" style="fill: #67000d; stroke: #00ff00; stroke-width: 2"/>
    <path d="M 102.317046 99.69325 
C 102.410809 99.69325 102.500745 99.655997 102.567046 99.589697 
C 102.633347 99.523396 102.670599 99.43346 102.670599 99.339697 
C 102.670599 99.245933 102.633347 99.155997 102.567046 99.089697 
C 102.500745 99.023396 102.410809 98.986143 102.317046 98.986143 
C 102.223282 98.986143 102.133347 99.023396 102.067046 99.089697 
C 102.000745 99.155997 101.963492 99.245933 101.963492 99.339697 
C 101.963492 99.43346 102.000745 99.523396 102.067046 99.589697 
C 102.133347 99.655997 102.223282 99.69325 102.317046 99.69325 
z
" clip-path="url(#pa0cdfc1b49)" style="fill: #fff5f0; stroke: #00ff00; stroke-width: 2"/>
    <path d="M 51.095278 103.271766 
C 51.189042 103.271766 51.278977 103.234513 51.345278 103.168212 
C 51.411579 103.101911 51.448832 103.011976 51.448832 102.918212 
C 51.448832 102.824449 51.411579 102.734513 51.345278 102.668212 
C 51.278977 102.601911 51.189042 102.564659 51.095278 102.564659 
C 51.001515 102.564659 50.911579 102.601911 50.845278 102.668212 
C 50.778977 102.734513 50.741725 102.824449 50.741725 102.918212 
C 50.741725 103.011976 50.778977 103.101911 50.845278 103.168212 
C 50.911579 103.234513 51.001515 103.271766 51.095278 103.271766 
z
" clip-path="url(#pa0cdfc1b49)" style="fill: #fff5f0; stroke: #00ff00; stroke-width: 2"/>
    <path d="M 87.764928 107.251234 
C 87.858692 107.251234 87.948627 107.213982 88.014928 107.147681 
C 88.081229 107.08138 88.118482 106.991444 88.118482 106.897681 
C 88.118482 106.803918 88.081229 106.713982 88.014928 106.647681 
C 87.948627 106.58138 87.858692 106.544128 87.764928 106.544128 
C 87.671165 106.544128 87.581229 106.58138 87.514928 106.647681 
C 87.448627 106.713982 87.411375 106.803918 87.411375 106.897681 
C 87.411375 106.991444 87.448627 107.08138 87.514928 107.147681 
C 87.581229 107.213982 87.671165 107.251234 87.764928 107.251234 
z
" clip-path="url(#pa0cdfc1b49)" style="fill: #fff5f0; stroke: #00ff00; stroke-width: 2"/>
    <path d="M 67.86666 111.847611 
C 68.804295 111.847611 69.703652 111.475085 70.36666 110.812077 
C 71.029668 110.149069 71.402194 109.249711 71.402194 108.312077 
C 71.402194 107.374442 71.029668 106.475085 70.36666 105.812077 
C 69.703652 105.149069 68.804295 104.776543 67.86666 104.776543 
C 66.929025 104.776543 66.029668 105.149069 65.36666 105.812077 
C 64.703652 106.475085 64.331126 107.374442 64.331126 108.312077 
C 64.331126 109.249711 64.703652 110.149069 65.36666 110.812077 
C 66.029668 111.475085 66.929025 111.847611 67.86666 111.847611 
z
" clip-path="url(#pa0cdfc1b49)" style="fill: #67000d; stroke: #00ff00; stroke-width: 2"/>
   </g>
   <g id="patch_9">
    <path d="M 48.828047 84.285929 
Q 49.109841 83.735023 49.391636 83.184118 
" clip-path="url(#pa0cdfc1b49)" style="fill: none; opacity: 0.934653; stroke: #272727; stroke-width: 0.869307; stroke-linecap: round"/>
   </g>
   <g id="Path3DCollection_2">
    <path d="M 82.099153 66.1499 
C 82.192916 66.1499 82.282852 66.112647 82.349153 66.046346 
C 82.415453 65.980045 82.452706 65.89011 82.452706 65.796346 
C 82.452706 65.702583 82.415453 65.612647 82.349153 65.546346 
C 82.282852 65.480045 82.192916 65.442793 82.099153 65.442793 
C 82.005389 65.442793 81.915453 65.480045 81.849153 65.546346 
C 81.782852 65.612647 81.745599 65.702583 81.745599 65.796346 
C 81.745599 65.89011 81.782852 65.980045 81.849153 66.046346 
C 81.915453 66.112647 82.005389 66.1499 82.099153 66.1499 
z
" clip-path="url(#pa0cdfc1b49)" style="fill: #f7fbff; stroke: #ff0000; stroke-width: 2"/>
    <path d="M 63.663248 67.318011 
C 63.757012 67.318011 63.846948 67.280758 63.913248 67.214458 
C 63.979549 67.148157 64.016802 67.058221 64.016802 66.964458 
C 64.016802 66.870694 63.979549 66.780758 63.913248 66.714458 
C 63.846948 66.648157 63.757012 66.610904 63.663248 66.610904 
C 63.569485 66.610904 63.479549 66.648157 63.413248 66.714458 
C 63.346948 66.780758 63.309695 66.870694 63.309695 66.964458 
C 63.309695 67.058221 63.346948 67.148157 63.413248 67.214458 
C 63.479549 67.280758 63.569485 67.318011 63.663248 67.318011 
z
" clip-path="url(#pa0cdfc1b49)" style="fill: #f7fbff; stroke: #00ff00; stroke-width: 2"/>
    <path d="M 98.188804 70.695968 
C 98.282568 70.695968 98.372504 70.658715 98.438804 70.592415 
C 98.505105 70.526114 98.542358 70.436178 98.542358 70.342415 
C 98.542358 70.248651 98.505105 70.158715 98.438804 70.092415 
C 98.372504 70.026114 98.282568 69.988861 98.188804 69.988861 
C 98.095041 69.988861 98.005105 70.026114 97.938804 70.092415 
C 97.872504 70.158715 97.835251 70.248651 97.835251 70.342415 
C 97.835251 70.436178 97.872504 70.526114 97.938804 70.592415 
C 98.005105 70.658715 98.095041 70.695968 98.188804 70.695968 
z
" clip-path="url(#pa0cdfc1b49)" style="fill: #f7fbff; stroke: #00ff00; stroke-width: 2"/>
    <path d="M 49.14716 77.036188 
C 50.084795 77.036188 50.984152 76.663662 51.64716 76.000654 
C 52.310168 75.337646 52.682694 74.438289 52.682694 73.500654 
C 52.682694 72.56302 52.310168 71.663662 51.64716 71.000654 
C 50.984152 70.337646 50.084795 69.96512 49.14716 69.96512 
C 48.209526 69.96512 47.310168 70.337646 46.64716 71.000654 
C 45.984152 71.663662 45.611626 72.56302 45.611626 73.500654 
C 45.611626 74.438289 45.984152 75.337646 46.64716 76.000654 
C 47.310168 76.663662 48.209526 77.036188 49.14716 77.036188 
z
" clip-path="url(#pa0cdfc1b49)" style="fill: #08306b; stroke: #00ff00; stroke-width: 2"/>
    <path d="M 106.208444 79.567552 
C 106.302208 79.567552 106.392144 79.5303 106.458444 79.463999 
C 106.524745 79.397698 106.561998 79.307762 106.561998 79.213999 
C 106.561998 79.120236 106.524745 79.0303 106.458444 78.963999 
C 106.392144 78.897698 106.302208 78.860446 106.208444 78.860446 
C 106.114681 78.860446 106.024745 78.897698 105.958444 78.963999 
C 105.892144 79.0303 105.854891 79.120236 105.854891 79.213999 
C 105.854891 79.307762 105.892144 79.397698 105.958444 79.463999 
C 106.024745 79.5303 106.114681 79.567552 106.208444 79.567552 
z
" clip-path="url(#pa0cdfc1b49)" style="fill: #f7fbff; stroke: #00ff00; stroke-width: 2"/>
    <path d="M 43.972059 86.866679 
C 44.909693 86.866679 45.809051 86.494153 46.472059 85.831145 
C 47.135066 85.168137 47.507593 84.26878 47.507593 83.331145 
C 47.507593 82.393511 47.135066 81.494153 46.472059 80.831145 
C 45.809051 80.168137 44.909693 79.795611 43.972059 79.795611 
C 43.034424 79.795611 42.135066 80.168137 41.472059 80.831145 
C 40.809051 81.494153 40.436525 82.393511 40.436525 83.331145 
C 40.436525 84.26878 40.809051 85.168137 41.472059 85.831145 
C 42.135066 86.494153 43.034424 86.866679 43.972059 86.866679 
z
" clip-path="url(#pa0cdfc1b49)" style="fill: #08306b; stroke: #00ff00; stroke-width: 2"/>
    <path d="M 102.583634 89.727887 
C 102.677397 89.727887 102.767333 89.690635 102.833634 89.624334 
C 102.899935 89.558033 102.937187 89.468098 102.937187 89.374334 
C 102.937187 89.280571 102.899935 89.190635 102.833634 89.124334 
C 102.767333 89.058033 102.677397 89.020781 102.583634 89.020781 
C 102.48987 89.020781 102.399935 89.058033 102.333634 89.124334 
C 102.267333 89.190635 102.23008 89.280571 102.23008 89.374334 
C 102.23008 89.468098 102.267333 89.558033 102.333634 89.624334 
C 102.399935 89.690635 102.48987 89.727887 102.583634 89.727887 
z
" clip-path="url(#pa0cdfc1b49)" style="fill: #f7fbff; stroke: #00ff00; stroke-width: 2"/>
    <path d="M 50.854164 96.427772 
C 51.791799 96.427772 52.691156 96.055246 53.354164 95.392238 
C 54.017172 94.72923 54.389698 93.829873 54.389698 92.892238 
C 54.389698 91.954603 54.017172 91.055246 53.354164 90.392238 
C 52.691156 89.72923 51.791799 89.356704 50.854164 89.356704 
C 49.91653 89.356704 49.017172 89.72923 48.354164 90.392238 
C 47.691156 91.055246 47.31863 91.954603 47.31863 92.892238 
C 47.31863 93.829873 47.691156 94.72923 48.354164 95.392238 
C 49.017172 96.055246 49.91653 96.427772 50.854164 96.427772 
z
" clip-path="url(#pa0cdfc1b49)" style="fill: #08306b; stroke: #00ff00; stroke-width: 2"/>
    <path d="M 87.890443 97.158637 
C 87.984206 97.158637 88.074142 97.121385 88.140443 97.055084 
C 88.206744 96.988783 88.243996 96.898847 88.243996 96.805084 
C 88.243996 96.71132 88.206744 96.621385 88.140443 96.555084 
C 88.074142 96.488783 87.984206 96.451531 87.890443 96.451531 
C 87.796679 96.451531 87.706744 96.488783 87.640443 96.555084 
C 87.574142 96.621385 87.536889 96.71132 87.536889 96.805084 
C 87.536889 96.898847 87.574142 96.988783 87.640443 97.055084 
C 87.706744 97.121385 87.796679 97.158637 87.890443 97.158637 
z
" clip-path="url(#pa0cdfc1b49)" style="fill: #f7fbff; stroke: #00ff00; stroke-width: 2"/>
    <path d="M 67.791556 98.549552 
C 67.88532 98.549552 67.975256 98.512299 68.041556 98.445998 
C 68.107857 98.379698 68.14511 98.289762 68.14511 98.195998 
C 68.14511 98.102235 68.107857 98.012299 68.041556 97.945998 
C 67.975256 97.879698 67.88532 97.842445 67.791556 97.842445 
C 67.697793 97.842445 67.607857 97.879698 67.541556 97.945998 
C 67.475256 98.012299 67.438003 98.102235 67.438003 98.195998 
C 67.438003 98.289762 67.475256 98.379698 67.541556 98.445998 
C 67.607857 98.512299 67.697793 98.549552 67.791556 98.549552 
z
" clip-path="url(#pa0cdfc1b49)" style="fill: #f7fbff; stroke: #00ff00; stroke-width: 2"/>
   </g>
   <g id="patch_10">
    <path d="M 72.457971 48.327402 
Q 62.991434 50.413397 53.524898 52.499391 
" clip-path="url(#pa0cdfc1b49)" style="fill: none; opacity: 0.726027; stroke: #a5a5a5; stroke-width: 0.452055; stroke-linecap: round"/>
   </g>
   <g id="Path3DCollection_3">
    <path d="M 82.162495 56.430477 
C 82.256258 56.430477 82.346194 56.393224 82.412495 56.326923 
C 82.478796 56.260623 82.516048 56.170687 82.516048 56.076923 
C 82.516048 55.98316 82.478796 55.893224 82.412495 55.826923 
C 82.346194 55.760623 82.256258 55.72337 82.162495 55.72337 
C 82.068731 55.72337 81.978796 55.760623 81.912495 55.826923 
C 81.846194 55.893224 81.808941 55.98316 81.808941 56.076923 
C 81.808941 56.170687 81.846194 56.260623 81.912495 56.326923 
C 81.978796 56.393224 82.068731 56.430477 82.162495 56.430477 
z
" clip-path="url(#pa0cdfc1b49)" style="fill: #f7fcf5; stroke: #ff0000; stroke-width: 2"/>
    <path d="M 63.554504 57.575862 
C 63.648268 57.575862 63.738203 57.538609 63.804504 57.472308 
C 63.870805 57.406008 63.908057 57.316072 63.908057 57.222308 
C 63.908057 57.128545 63.870805 57.038609 63.804504 56.972308 
C 63.738203 56.906008 63.648268 56.868755 63.554504 56.868755 
C 63.460741 56.868755 63.370805 56.906008 63.304504 56.972308 
C 63.238203 57.038609 63.200951 57.128545 63.200951 57.222308 
C 63.200951 57.316072 63.238203 57.406008 63.304504 57.472308 
C 63.370805 57.538609 63.460741 57.575862 63.554504 57.575862 
z
" clip-path="url(#pa0cdfc1b49)" style="fill: #f7fcf5; stroke: #00ff00; stroke-width: 2"/>
    <path d="M 98.404877 60.88851 
C 98.498641 60.88851 98.588577 60.851257 98.654877 60.784956 
C 98.721178 60.718655 98.758431 60.62872 98.758431 60.534956 
C 98.758431 60.441193 98.721178 60.351257 98.654877 60.284956 
C 98.588577 60.218655 98.498641 60.181403 98.404877 60.181403 
C 98.311114 60.181403 98.221178 60.218655 98.154877 60.284956 
C 98.088577 60.351257 98.051324 60.441193 98.051324 60.534956 
C 98.051324 60.62872 98.088577 60.718655 98.154877 60.784956 
C 98.221178 60.851257 98.311114 60.88851 98.404877 60.88851 
z
" clip-path="url(#pa0cdfc1b49)" style="fill: #f7fcf5; stroke: #00ff00; stroke-width: 2"/>
    <path d="M 48.898027 67.168222 
C 49.835661 67.168222 50.735019 66.795696 51.398027 66.132688 
C 52.061035 65.469681 52.433561 64.570323 52.433561 63.632688 
C 52.433561 62.695054 52.061035 61.795696 51.398027 61.132688 
C 50.735019 60.469681 49.835661 60.097155 48.898027 60.097155 
C 47.960392 60.097155 47.061035 60.469681 46.398027 61.132688 
C 45.735019 61.795696 45.362493 62.695054 45.362493 63.632688 
C 45.362493 64.570323 45.735019 65.469681 46.398027 66.132688 
C 47.061035 66.795696 47.960392 67.168222 48.898027 67.168222 
z
" clip-path="url(#pa0cdfc1b49)" style="fill: #00441b; stroke: #00ff00; stroke-width: 2"/>
    <path d="M 106.507791 69.591487 
C 106.601554 69.591487 106.69149 69.554234 106.757791 69.487934 
C 106.824091 69.421633 106.861344 69.331697 106.861344 69.237934 
C 106.861344 69.14417 106.824091 69.054234 106.757791 68.987934 
C 106.69149 68.921633 106.601554 68.88438 106.507791 68.88438 
C 106.414027 68.88438 106.324091 68.921633 106.257791 68.987934 
C 106.19149 69.054234 106.154237 69.14417 106.154237 69.237934 
C 106.154237 69.331697 106.19149 69.421633 106.257791 69.487934 
C 106.324091 69.554234 106.414027 69.591487 106.507791 69.591487 
z
" clip-path="url(#pa0cdfc1b49)" style="fill: #f7fcf5; stroke: #00ff00; stroke-width: 2"/>
    <path d="M 43.665119 73.631821 
C 43.758882 73.631821 43.848818 73.594568 43.915119 73.528268 
C 43.981419 73.461967 44.018672 73.372031 44.018672 73.278268 
C 44.018672 73.184504 43.981419 73.094568 43.915119 73.028268 
C 43.848818 72.961967 43.758882 72.924714 43.665119 72.924714 
C 43.571355 72.924714 43.481419 72.961967 43.415119 73.028268 
C 43.348818 73.094568 43.311565 73.184504 43.311565 73.278268 
C 43.311565 73.372031 43.348818 73.461967 43.415119 73.528268 
C 43.481419 73.594568 43.571355 73.631821 43.665119 73.631821 
z
" clip-path="url(#pa0cdfc1b49)" style="fill: #f7fcf5; stroke: #00ff00; stroke-width: 2"/>
    <path d="M 102.855535 79.563913 
C 102.949298 79.563913 103.039234 79.52666 103.105535 79.460359 
C 103.171836 79.394059 103.209088 79.304123 103.209088 79.210359 
C 103.209088 79.116596 103.171836 79.02666 103.105535 78.960359 
C 103.039234 78.894059 102.949298 78.856806 102.855535 78.856806 
C 102.761771 78.856806 102.671836 78.894059 102.605535 78.960359 
C 102.539234 79.02666 102.501981 79.116596 102.501981 79.210359 
C 102.501981 79.304123 102.539234 79.394059 102.605535 79.460359 
C 102.671836 79.52666 102.761771 79.563913 102.855535 79.563913 
z
" clip-path="url(#pa0cdfc1b49)" style="fill: #f7fcf5; stroke: #00ff00; stroke-width: 2"/>
    <path d="M 50.608198 86.200028 
C 51.545832 86.200028 52.44519 85.827502 53.108198 85.164494 
C 53.771205 84.501486 54.143732 83.602129 54.143732 82.664494 
C 54.143732 81.726859 53.771205 80.827502 53.108198 80.164494 
C 52.44519 79.501486 51.545832 79.12896 50.608198 79.12896 
C 49.670563 79.12896 48.771205 79.501486 48.108198 80.164494 
C 47.44519 80.827502 47.072664 81.726859 47.072664 82.664494 
C 47.072664 83.602129 47.44519 84.501486 48.108198 85.164494 
C 48.771205 85.827502 49.670563 86.200028 50.608198 86.200028 
z
" clip-path="url(#pa0cdfc1b49)" style="fill: #00441b; stroke: #00ff00; stroke-width: 2"/>
    <path d="M 88.018511 86.860746 
C 88.112274 86.860746 88.20221 86.823494 88.268511 86.757193 
C 88.334812 86.690892 88.372064 86.600956 88.372064 86.507193 
C 88.372064 86.41343 88.334812 86.323494 88.268511 86.257193 
C 88.20221 86.190892 88.112274 86.15364 88.018511 86.15364 
C 87.924747 86.15364 87.834812 86.190892 87.768511 86.257193 
C 87.70221 86.323494 87.664957 86.41343 87.664957 86.507193 
C 87.664957 86.600956 87.70221 86.690892 87.768511 86.757193 
C 87.834812 86.823494 87.924747 86.860746 88.018511 86.860746 
z
" clip-path="url(#pa0cdfc1b49)" style="fill: #f7fcf5; stroke: #00ff00; stroke-width: 2"/>
    <path d="M 67.71492 88.226924 
C 67.808683 88.226924 67.898619 88.189671 67.96492 88.12337 
C 68.03122 88.057069 68.068473 87.967134 68.068473 87.87337 
C 68.068473 87.779607 68.03122 87.689671 67.96492 87.62337 
C 67.898619 87.557069 67.808683 87.519817 67.71492 87.519817 
C 67.621156 87.519817 67.53122 87.557069 67.46492 87.62337 
C 67.398619 87.689671 67.361366 87.779607 67.361366 87.87337 
C 67.361366 87.967134 67.398619 88.057069 67.46492 88.12337 
C 67.53122 88.189671 67.621156 88.226924 67.71492 88.226924 
z
" clip-path="url(#pa0cdfc1b49)" style="fill: #f7fcf5; stroke: #00ff00; stroke-width: 2"/>
   </g>
   <g id="patch_11">
    <path d="M 58.413158 51.422241 
Q 67.879695 49.336246 77.346231 47.250252 
" clip-path="url(#pa0cdfc1b49)" style="fill: none; opacity: 0.726027; stroke: #a5a5a5; stroke-width: 0.452055; stroke-linecap: round"/>
   </g>
   <g id="Path3DCollection_4">
    <path d="M 82.227028 49.71028 
C 83.164663 49.71028 84.06402 49.337754 84.727028 48.674746 
C 85.390036 48.011738 85.762562 47.11238 85.762562 46.174746 
C 85.762562 45.237111 85.390036 44.337754 84.727028 43.674746 
C 84.06402 43.011738 83.164663 42.639212 82.227028 42.639212 
C 81.289393 42.639212 80.390036 43.011738 79.727028 43.674746 
C 79.06402 44.337754 78.691494 45.237111 78.691494 46.174746 
C 78.691494 47.11238 79.06402 48.011738 79.727028 48.674746 
C 80.390036 49.337754 81.289393 49.71028 82.227028 49.71028 
z
" clip-path="url(#pa0cdfc1b49)" style="fill: #7f2704; stroke: #ff0000; stroke-width: 2"/>
    <path d="M 63.443708 47.64989 
C 63.537471 47.64989 63.627407 47.612638 63.693708 47.546337 
C 63.760009 47.480036 63.797261 47.3901 63.797261 47.296337 
C 63.797261 47.202573 63.760009 47.112638 63.693708 47.046337 
C 63.627407 46.980036 63.537471 46.942784 63.443708 46.942784 
C 63.349944 46.942784 63.260009 46.980036 63.193708 47.046337 
C 63.127407 47.112638 63.090155 47.202573 63.090155 47.296337 
C 63.090155 47.3901 63.127407 47.480036 63.193708 47.546337 
C 63.260009 47.612638 63.349944 47.64989 63.443708 47.64989 
z
" clip-path="url(#pa0cdfc1b49)" style="fill: #fff5eb; stroke: #00ff00; stroke-width: 2"/>
    <path d="M 98.625069 50.894133 
C 98.718832 50.894133 98.808768 50.85688 98.875069 50.790579 
C 98.941369 50.724279 98.978622 50.634343 98.978622 50.540579 
C 98.978622 50.446816 98.941369 50.35688 98.875069 50.290579 
C 98.808768 50.224279 98.718832 50.187026 98.625069 50.187026 
C 98.531305 50.187026 98.441369 50.224279 98.375069 50.290579 
C 98.308768 50.35688 98.271515 50.446816 98.271515 50.540579 
C 98.271515 50.634343 98.308768 50.724279 98.375069 50.790579 
C 98.441369 50.85688 98.531305 50.894133 98.625069 50.894133 
z
" clip-path="url(#pa0cdfc1b49)" style="fill: #fff5eb; stroke: #00ff00; stroke-width: 2"/>
    <path d="M 48.644101 57.110431 
C 49.581736 57.110431 50.481093 56.737905 51.144101 56.074897 
C 51.807109 55.411889 52.179635 54.512532 52.179635 53.574897 
C 52.179635 52.637263 51.807109 51.737905 51.144101 51.074897 
C 50.481093 50.411889 49.581736 50.039363 48.644101 50.039363 
C 47.706466 50.039363 46.807109 50.411889 46.144101 51.074897 
C 45.481093 51.737905 45.108567 52.637263 45.108567 53.574897 
C 45.108567 54.512532 45.481093 55.411889 46.144101 56.074897 
C 46.807109 56.737905 47.706466 57.110431 48.644101 57.110431 
z
" clip-path="url(#pa0cdfc1b49)" style="fill: #7f2704; stroke: #00ff00; stroke-width: 2"/>
    <path d="M 106.812991 59.420307 
C 106.906755 59.420307 106.996691 59.383055 107.062991 59.316754 
C 107.129292 59.250453 107.166545 59.160517 107.166545 59.066754 
C 107.166545 58.972991 107.129292 58.883055 107.062991 58.816754 
C 106.996691 58.750453 106.906755 58.713201 106.812991 58.713201 
C 106.719228 58.713201 106.629292 58.750453 106.562991 58.816754 
C 106.496691 58.883055 106.459438 58.972991 106.459438 59.066754 
C 106.459438 59.160517 106.496691 59.250453 106.562991 59.316754 
C 106.629292 59.383055 106.719228 59.420307 106.812991 59.420307 
z
" clip-path="url(#pa0cdfc1b49)" style="fill: #fff5eb; stroke: #00ff00; stroke-width: 2"/>
    <path d="M 43.352104 63.379995 
C 43.445868 63.379995 43.535804 63.342742 43.602104 63.276441 
C 43.668405 63.210141 43.705658 63.120205 43.705658 63.026441 
C 43.705658 62.932678 43.668405 62.842742 43.602104 62.776441 
C 43.535804 62.710141 43.445868 62.672888 43.352104 62.672888 
C 43.258341 62.672888 43.168405 62.710141 43.102104 62.776441 
C 43.035804 62.842742 42.998551 62.932678 42.998551 63.026441 
C 42.998551 63.120205 43.035804 63.210141 43.102104 63.276441 
C 43.168405 63.342742 43.258341 63.379995 43.352104 63.379995 
z
" clip-path="url(#pa0cdfc1b49)" style="fill: #fff5eb; stroke: #00ff00; stroke-width: 2"/>
    <path d="M 103.132909 69.195328 
C 103.226673 69.195328 103.316609 69.158076 103.382909 69.091775 
C 103.44921 69.025474 103.486463 68.935538 103.486463 68.841775 
C 103.486463 68.748011 103.44921 68.658076 103.382909 68.591775 
C 103.316609 68.525474 103.226673 68.488222 103.132909 68.488222 
C 103.039146 68.488222 102.94921 68.525474 102.882909 68.591775 
C 102.816609 68.658076 102.779356 68.748011 102.779356 68.841775 
C 102.779356 68.935538 102.816609 69.025474 102.882909 69.091775 
C 102.94921 69.158076 103.039146 69.195328 103.132909 69.195328 
z
" clip-path="url(#pa0cdfc1b49)" style="fill: #fff5eb; stroke: #00ff00; stroke-width: 2"/>
    <path d="M 50.357231 75.764361 
C 51.294866 75.764361 52.194223 75.391835 52.857231 74.728827 
C 53.520239 74.06582 53.892765 73.166462 53.892765 72.228827 
C 53.892765 71.291193 53.520239 70.391835 52.857231 69.728827 
C 52.194223 69.06582 51.294866 68.693294 50.357231 68.693294 
C 49.419596 68.693294 48.520239 69.06582 47.857231 69.728827 
C 47.194223 70.391835 46.821697 71.291193 46.821697 72.228827 
C 46.821697 73.166462 47.194223 74.06582 47.857231 74.728827 
C 48.520239 75.391835 49.419596 75.764361 50.357231 75.764361 
z
" clip-path="url(#pa0cdfc1b49)" style="fill: #7f2704; stroke: #00ff00; stroke-width: 2"/>
    <path d="M 88.14921 76.351233 
C 88.242974 76.351233 88.33291 76.313981 88.39921 76.24768 
C 88.465511 76.181379 88.502764 76.091443 88.502764 75.99768 
C 88.502764 75.903916 88.465511 75.813981 88.39921 75.74768 
C 88.33291 75.681379 88.242974 75.644127 88.14921 75.644127 
C 88.055447 75.644127 87.965511 75.681379 87.89921 75.74768 
C 87.83291 75.813981 87.795657 75.903916 87.795657 75.99768 
C 87.795657 76.091443 87.83291 76.181379 87.89921 76.24768 
C 87.965511 76.313981 88.055447 76.351233 88.14921 76.351233 
z
" clip-path="url(#pa0cdfc1b49)" style="fill: #fff5eb; stroke: #00ff00; stroke-width: 2"/>
    <path d="M 67.636702 77.691355 
C 67.730465 77.691355 67.820401 77.654102 67.886702 77.587801 
C 67.953002 77.521501 67.990255 77.431565 67.990255 77.337801 
C 67.990255 77.244038 67.953002 77.154102 67.886702 77.087801 
C 67.820401 77.021501 67.730465 76.984248 67.636702 76.984248 
C 67.542938 76.984248 67.453002 77.021501 67.386702 77.087801 
C 67.320401 77.154102 67.283148 77.244038 67.283148 77.337801 
C 67.283148 77.431565 67.320401 77.521501 67.386702 77.587801 
C 67.453002 77.654102 67.542938 77.691355 67.636702 77.691355 
z
" clip-path="url(#pa0cdfc1b49)" style="fill: #fff5eb; stroke: #00ff00; stroke-width: 2"/>
   </g>
   <g id="patch_12">
    <path d="M 44.488811 82.349536 
Q 44.230435 82.840341 43.972059 83.331145 
" clip-path="url(#pa0cdfc1b49)" style="fill: none; opacity: 0.995702; stroke: #020202; stroke-width: 0.991404; stroke-linecap: round"/>
   </g>
   <g id="Path3DCollection_5">
    <path d="M 82.292786 39.620144 
C 83.230421 39.620144 84.129778 39.247618 84.792786 38.58461 
C 85.455794 37.921602 85.82832 37.022244 85.82832 36.08461 
C 85.82832 35.146975 85.455794 34.247618 84.792786 33.58461 
C 84.129778 32.921602 83.230421 32.549076 82.292786 32.549076 
C 81.355152 32.549076 80.455794 32.921602 79.792786 33.58461 
C 79.129778 34.247618 78.757252 35.146975 78.757252 36.08461 
C 78.757252 37.022244 79.129778 37.921602 79.792786 38.58461 
C 80.455794 39.247618 81.355152 39.620144 82.292786 39.620144 
z
" clip-path="url(#pa0cdfc1b49)" style="fill: #3f007d; stroke: #ff0000; stroke-width: 2"/>
    <path d="M 63.330801 37.534844 
C 63.424565 37.534844 63.5145 37.497592 63.580801 37.431291 
C 63.647102 37.36499 63.684355 37.275054 63.684355 37.181291 
C 63.684355 37.087527 63.647102 36.997592 63.580801 36.931291 
C 63.5145 36.86499 63.424565 36.827737 63.330801 36.827737 
C 63.237038 36.827737 63.147102 36.86499 63.080801 36.931291 
C 63.0145 36.997592 62.977248 37.087527 62.977248 37.181291 
C 62.977248 37.275054 63.0145 37.36499 63.080801 37.431291 
C 63.147102 37.497592 63.237038 37.534844 63.330801 37.534844 
z
" clip-path="url(#pa0cdfc1b49)" style="fill: #fcfbfd; stroke: #00ff00; stroke-width: 2"/>
    <path d="M 98.849497 40.707443 
C 98.94326 40.707443 99.033196 40.67019 99.099497 40.603889 
C 99.165797 40.537588 99.20305 40.447653 99.20305 40.353889 
C 99.20305 40.260126 99.165797 40.17019 99.099497 40.103889 
C 99.033196 40.037588 98.94326 40.000336 98.849497 40.000336 
C 98.755733 40.000336 98.665797 40.037588 98.599497 40.103889 
C 98.533196 40.17019 98.495943 40.260126 98.495943 40.353889 
C 98.495943 40.447653 98.533196 40.537588 98.599497 40.603889 
C 98.665797 40.67019 98.755733 40.707443 98.849497 40.707443 
z
" clip-path="url(#pa0cdfc1b49)" style="fill: #fcfbfd; stroke: #00ff00; stroke-width: 2"/>
    <path d="M 48.385243 43.675303 
C 48.479006 43.675303 48.568942 43.63805 48.635243 43.57175 
C 48.701544 43.505449 48.738796 43.415513 48.738796 43.32175 
C 48.738796 43.227986 48.701544 43.13805 48.635243 43.07175 
C 48.568942 43.005449 48.479006 42.968196 48.385243 42.968196 
C 48.29148 42.968196 48.201544 43.005449 48.135243 43.07175 
C 48.068942 43.13805 48.03169 43.227986 48.03169 43.32175 
C 48.03169 43.415513 48.068942 43.505449 48.135243 43.57175 
C 48.201544 43.63805 48.29148 43.675303 48.385243 43.675303 
z
" clip-path="url(#pa0cdfc1b49)" style="fill: #fcfbfd; stroke: #00ff00; stroke-width: 2"/>
    <path d="M 107.12422 49.048233 
C 107.217984 49.048233 107.30792 49.01098 107.37422 48.944679 
C 107.440521 48.878378 107.477774 48.788443 107.477774 48.694679 
C 107.477774 48.600916 107.440521 48.51098 107.37422 48.444679 
C 107.30792 48.378378 107.217984 48.341126 107.12422 48.341126 
C 107.030457 48.341126 106.940521 48.378378 106.87422 48.444679 
C 106.80792 48.51098 106.770667 48.600916 106.770667 48.694679 
C 106.770667 48.788443 106.80792 48.878378 106.87422 48.944679 
C 106.940521 49.01098 107.030457 49.048233 107.12422 49.048233 
z
" clip-path="url(#pa0cdfc1b49)" style="fill: #fcfbfd; stroke: #00ff00; stroke-width: 2"/>
    <path d="M 43.032833 52.923255 
C 43.126597 52.923255 43.216533 52.886003 43.282833 52.819702 
C 43.349134 52.753401 43.386387 52.663465 43.386387 52.569702 
C 43.386387 52.475938 43.349134 52.386003 43.282833 52.319702 
C 43.216533 52.253401 43.126597 52.216148 43.032833 52.216148 
C 42.93907 52.216148 42.849134 52.253401 42.782833 52.319702 
C 42.716533 52.386003 42.67928 52.475938 42.67928 52.569702 
C 42.67928 52.663465 42.716533 52.753401 42.782833 52.819702 
C 42.849134 52.886003 42.93907 52.923255 43.032833 52.923255 
z
" clip-path="url(#pa0cdfc1b49)" style="fill: #fcfbfd; stroke: #00ff00; stroke-width: 2"/>
    <path d="M 103.415925 58.615893 
C 103.509688 58.615893 103.599624 58.57864 103.665925 58.51234 
C 103.732225 58.446039 103.769478 58.356103 103.769478 58.26234 
C 103.769478 58.168576 103.732225 58.07864 103.665925 58.01234 
C 103.599624 57.946039 103.509688 57.908786 103.415925 57.908786 
C 103.322161 57.908786 103.232225 57.946039 103.165925 58.01234 
C 103.099624 58.07864 103.062371 58.168576 103.062371 58.26234 
C 103.062371 58.356103 103.099624 58.446039 103.165925 58.51234 
C 103.232225 58.57864 103.322161 58.615893 103.415925 58.615893 
z
" clip-path="url(#pa0cdfc1b49)" style="fill: #fcfbfd; stroke: #00ff00; stroke-width: 2"/>
    <path d="M 50.10111 65.114367 
C 51.038745 65.114367 51.938102 64.741841 52.60111 64.078833 
C 53.264118 63.415825 53.636644 62.516467 53.636644 61.578833 
C 53.636644 60.641198 53.264118 59.741841 52.60111 59.078833 
C 51.938102 58.415825 51.038745 58.043299 50.10111 58.043299 
C 49.163475 58.043299 48.264118 58.415825 47.60111 59.078833 
C 46.938102 59.741841 46.565576 60.641198 46.565576 61.578833 
C 46.565576 62.516467 46.938102 63.415825 47.60111 64.078833 
C 48.264118 64.741841 49.163475 65.114367 50.10111 65.114367 
z
" clip-path="url(#pa0cdfc1b49)" style="fill: #3f007d; stroke: #00ff00; stroke-width: 2"/>
    <path d="M 88.282624 65.623507 
C 88.376387 65.623507 88.466323 65.586254 88.532624 65.519954 
C 88.598925 65.453653 88.636177 65.363717 88.636177 65.269954 
C 88.636177 65.17619 88.598925 65.086254 88.532624 65.019954 
C 88.466323 64.953653 88.376387 64.9164 88.282624 64.9164 
C 88.18886 64.9164 88.098925 64.953653 88.032624 65.019954 
C 87.966323 65.086254 87.92907 65.17619 87.92907 65.269954 
C 87.92907 65.363717 87.966323 65.453653 88.032624 65.519954 
C 88.098925 65.586254 88.18886 65.623507 88.282624 65.623507 
z
" clip-path="url(#pa0cdfc1b49)" style="fill: #fcfbfd; stroke: #00ff00; stroke-width: 2"/>
    <path d="M 67.556853 66.936187 
C 67.650617 66.936187 67.740553 66.898935 67.806853 66.832634 
C 67.873154 66.766333 67.910407 66.676397 67.910407 66.582634 
C 67.910407 66.48887 67.873154 66.398935 67.806853 66.332634 
C 67.740553 66.266333 67.650617 66.229081 67.556853 66.229081 
C 67.46309 66.229081 67.373154 66.266333 67.306853 66.332634 
C 67.240553 66.398935 67.2033 66.48887 67.2033 66.582634 
C 67.2033 66.676397 67.240553 66.766333 67.306853 66.832634 
C 67.373154 66.898935 67.46309 66.936187 67.556853 66.936187 
z
" clip-path="url(#pa0cdfc1b49)" style="fill: #fcfbfd; stroke: #00ff00; stroke-width: 2"/>
   </g>
   <g id="patch_13">
    <path d="M 48.630408 74.482263 
Q 48.888784 73.991459 49.14716 73.500654 
" clip-path="url(#pa0cdfc1b49)" style="fill: none; opacity: 0.995702; stroke: #020202; stroke-width: 0.991404; stroke-linecap: round"/>
   </g>
   <g id="patch_14">
    <path d="M 92.372627 98.286234 
Q 70.807986 96.001784 49.243345 93.717333 
" clip-path="url(#pa0cdfc1b49)" style="fill: none; opacity: 0.847525; stroke: #616161; stroke-width: 0.69505; stroke-linecap: round"/>
   </g>
   <g id="patch_15">
    <path d="M 54.217518 94.244272 
Q 75.782159 96.528723 97.3468 98.813174 
" clip-path="url(#pa0cdfc1b49)" style="fill: none; opacity: 0.847525; stroke: #616161; stroke-width: 0.69505; stroke-linecap: round"/>
   </g>
   <g id="patch_16">
    <path d="M 73.033936 60.155733 
Q 60.631419 65.697409 48.228901 71.239085 
" clip-path="url(#pa0cdfc1b49)" style="fill: none; opacity: 0.756563; stroke: #929292; stroke-width: 0.513126; stroke-linecap: round"/>
   </g>
   <g id="patch_17">
    <path d="M 44.128875 72.423447 
Q 43.896997 72.850857 43.665119 73.278268 
" clip-path="url(#pa0cdfc1b49)" style="fill: none; opacity: 0.821002; stroke: #6e6e6e; stroke-width: 0.642005; stroke-linecap: round"/>
   </g>
   <g id="patch_18">
    <path d="M 52.793677 69.199458 
Q 65.196195 63.657782 77.598713 58.116106 
" clip-path="url(#pa0cdfc1b49)" style="fill: none; opacity: 0.756563; stroke: #929292; stroke-width: 0.513126; stroke-linecap: round"/>
   </g>
   <g id="patch_19">
    <path d="M 48.434271 64.487509 
Q 48.666149 64.060099 48.898027 63.632688 
" clip-path="url(#pa0cdfc1b49)" style="fill: none; opacity: 0.821002; stroke: #6e6e6e; stroke-width: 0.642005; stroke-linecap: round"/>
   </g>
   <g id="patch_20">
    <path d="M 92.634977 88.348571 
Q 70.791018 86.096333 48.947058 83.844096 
" clip-path="url(#pa0cdfc1b49)" style="fill: none; opacity: 0.948424; stroke: #1e1e1e; stroke-width: 0.896848; stroke-linecap: round"/>
   </g>
   <g id="patch_21">
    <path d="M 53.920715 84.356909 
Q 75.764675 86.609146 97.608634 88.861383 
" clip-path="url(#pa0cdfc1b49)" style="fill: none; opacity: 0.948424; stroke: #1e1e1e; stroke-width: 0.896848; stroke-linecap: round"/>
   </g>
   <g id="patch_22">
    <path d="M 73.051654 50.152133 
Q 60.494966 55.595268 47.938277 61.038404 
" clip-path="url(#pa0cdfc1b49)" style="fill: none; opacity: 0.726027; stroke: #a5a5a5; stroke-width: 0.452055; stroke-linecap: round"/>
   </g>
   <g id="patch_23">
    <path d="M 52.527478 59.049054 
Q 65.084167 53.605919 77.640855 48.162783 
" clip-path="url(#pa0cdfc1b49)" style="fill: none; opacity: 0.726027; stroke: #a5a5a5; stroke-width: 0.452055; stroke-linecap: round"/>
   </g>
   <g id="patch_24">
    <path d="M 50.024417 83.4663 
Q 50.219902 85.68701 50.415387 87.907721 
" clip-path="url(#pa0cdfc1b49)" style="fill: none; opacity: 0.944126; stroke: #212121; stroke-width: 0.888252; stroke-linecap: round"/>
   </g>
   <g id="patch_25">
    <path d="M 49.814119 91.447337 
Q 50.334142 92.169787 50.854164 92.892238 
" clip-path="url(#pa0cdfc1b49)" style="fill: none; stroke: #000000; stroke-linecap: round"/>
   </g>
   <g id="patch_26">
    <path d="M 49.976907 82.926592 
Q 49.781423 80.705882 49.585938 78.485171 
" clip-path="url(#pa0cdfc1b49)" style="fill: none; opacity: 0.944126; stroke: #212121; stroke-width: 0.888252; stroke-linecap: round"/>
   </g>
   <g id="patch_27">
    <path d="M 45.012103 84.776047 
Q 44.492081 84.053596 43.972059 83.331145 
" clip-path="url(#pa0cdfc1b49)" style="fill: none; stroke: #000000; stroke-linecap: round"/>
   </g>
   <g id="patch_28">
    <path d="M 83.822062 85.173451 
Q 85.347083 93.575944 86.872104 101.978437 
" clip-path="url(#pa0cdfc1b49)" style="fill: none; opacity: 0.845545; stroke: #626262; stroke-width: 0.691089; stroke-linecap: round"/>
   </g>
   <g id="patch_29">
    <path d="M 57.900557 88.442381 
Q 70.705562 96.355496 83.510568 104.268612 
" clip-path="url(#pa0cdfc1b49)" style="fill: none; opacity: 0.894059; stroke: #444444; stroke-width: 0.788119; stroke-linecap: round"/>
   </g>
   <g id="patch_30">
    <path d="M 85.979835 97.062257 
Q 84.454814 88.659764 82.929793 80.257271 
" clip-path="url(#pa0cdfc1b49)" style="fill: none; opacity: 0.845545; stroke: #626262; stroke-width: 0.691089; stroke-linecap: round"/>
   </g>
   <g id="patch_31">
    <path d="M 79.256007 101.639418 
Q 66.451001 93.726303 53.645996 85.813187 
" clip-path="url(#pa0cdfc1b49)" style="fill: none; opacity: 0.894059; stroke: #444444; stroke-width: 0.788119; stroke-linecap: round"/>
   </g>
   <g id="patch_32">
    <path d="M 73.074461 39.955346 
Q 60.358477 45.294736 47.642492 50.634125 
" clip-path="url(#pa0cdfc1b49)" style="fill: none; opacity: 0.778027; stroke: #868686; stroke-width: 0.556054; stroke-linecap: round"/>
   </g>
   <g id="patch_33">
    <path d="M 52.251158 48.698965 
Q 64.967143 43.359576 77.683127 38.020187 
" clip-path="url(#pa0cdfc1b49)" style="fill: none; opacity: 0.778027; stroke: #868686; stroke-width: 0.556054; stroke-linecap: round"/>
   </g>
   <g id="patch_34">
    <path d="M 78.087895 84.52745 
Q 73.964839 94.121725 69.841784 103.716 
" clip-path="url(#pa0cdfc1b49)" style="fill: none; opacity: 0.913861; stroke: #363636; stroke-width: 0.827723; stroke-linecap: round"/>
   </g>
   <g id="patch_35">
    <path d="M 55.316183 91.242119 
Q 60.110704 97.763168 64.905225 104.284217 
" clip-path="url(#pa0cdfc1b49)" style="fill: none; stroke: #000000; stroke-linecap: round"/>
   </g>
   <g id="patch_36">
    <path d="M 52.691554 98.586252 
Q 58.172894 102.099279 63.654234 105.612306 
" clip-path="url(#pa0cdfc1b49)" style="fill: none; opacity: 0.890099; stroke: #474747; stroke-width: 0.780198; stroke-linecap: round"/>
   </g>
   <g id="patch_37">
    <path d="M 71.815734 99.122654 
Q 75.93879 89.528379 80.061845 79.934104 
" clip-path="url(#pa0cdfc1b49)" style="fill: none; opacity: 0.913861; stroke: #363636; stroke-width: 0.827723; stroke-linecap: round"/>
   </g>
   <g id="patch_38">
    <path d="M 61.942113 100.254075 
Q 57.147592 93.733027 52.35307 87.211978 
" clip-path="url(#pa0cdfc1b49)" style="fill: none; stroke: #000000; stroke-linecap: round"/>
   </g>
   <g id="patch_39">
    <path d="M 59.448206 102.916634 
Q 53.966865 99.403608 48.485525 95.890581 
" clip-path="url(#pa0cdfc1b49)" style="fill: none; opacity: 0.890099; stroke: #474747; stroke-width: 0.780198; stroke-linecap: round"/>
   </g>
   <g id="patch_40">
    <path d="M 74.514661 62.520969 
Q 64.474355 70.980905 54.434049 79.440842 
" clip-path="url(#pa0cdfc1b49)" style="fill: none; opacity: 0.966587; stroke: #141414; stroke-width: 0.933174; stroke-linecap: round"/>
   </g>
   <g id="patch_41">
    <path d="M 49.792777 73.590003 
Q 49.976923 75.639296 50.16107 77.688589 
" clip-path="url(#pa0cdfc1b49)" style="fill: none; opacity: 0.927208; stroke: #2c2c2c; stroke-width: 0.854415; stroke-linecap: round"/>
   </g>
   <g id="patch_42">
    <path d="M 58.256032 76.220448 
Q 68.296338 67.760512 78.336644 59.300576 
" clip-path="url(#pa0cdfc1b49)" style="fill: none; opacity: 0.966587; stroke: #141414; stroke-width: 0.933174; stroke-linecap: round"/>
   </g>
   <g id="patch_43">
    <path d="M 49.713448 72.70718 
Q 49.529301 70.657887 49.345155 68.608594 
" clip-path="url(#pa0cdfc1b49)" style="fill: none; opacity: 0.927208; stroke: #2c2c2c; stroke-width: 0.854415; stroke-linecap: round"/>
   </g>
   <g id="patch_44">
    <path d="M 98.997073 86.1392 
Q 95.245603 89.7418 91.494132 93.3444 
" clip-path="url(#pa0cdfc1b49)" style="fill: none; opacity: 0.842407; stroke: #636363; stroke-width: 0.684814; stroke-linecap: round"/>
   </g>
   <g id="patch_45">
    <path d="M 57.714477 78.653971 
Q 70.660452 86.441091 83.606428 94.228211 
" clip-path="url(#pa0cdfc1b49)" style="fill: none; opacity: 0.893983; stroke: #444444; stroke-width: 0.787966; stroke-linecap: round"/>
   </g>
   <g id="patch_46">
    <path d="M 95.101814 89.879883 
Q 98.853285 86.277283 102.604755 82.674682 
" clip-path="url(#pa0cdfc1b49)" style="fill: none; opacity: 0.842407; stroke: #636363; stroke-width: 0.684814; stroke-linecap: round"/>
   </g>
   <g id="patch_47">
    <path d="M 79.323126 91.651767 
Q 66.377151 83.864647 53.431175 76.077527 
" clip-path="url(#pa0cdfc1b49)" style="fill: none; opacity: 0.893983; stroke: #444444; stroke-width: 0.787966; stroke-linecap: round"/>
   </g>
   <g id="patch_48">
    <path d="M 78.059422 74.944344 
Q 73.935104 84.283891 69.810786 93.623438 
" clip-path="url(#pa0cdfc1b49)" style="fill: none; opacity: 0.859599; stroke: #5b5b5b; stroke-width: 0.719198; stroke-linecap: round"/>
   </g>
   <g id="patch_49">
    <path d="M 60.393853 95.879488 
Q 61.706873 96.290646 63.019893 96.701804 
" clip-path="url(#pa0cdfc1b49)" style="fill: none; opacity: 0.948424; stroke: #1e1e1e; stroke-width: 0.896848; stroke-linecap: round"/>
   </g>
   <g id="patch_50">
    <path d="M 71.831287 89.048001 
Q 75.955605 79.708454 80.079923 70.368907 
" clip-path="url(#pa0cdfc1b49)" style="fill: none; opacity: 0.859599; stroke: #5b5b5b; stroke-width: 0.719198; stroke-linecap: round"/>
   </g>
   <g id="patch_51">
    <path d="M 58.251868 95.208749 
Q 56.938848 94.797591 55.625828 94.386433 
" clip-path="url(#pa0cdfc1b49)" style="fill: none; opacity: 0.948424; stroke: #1e1e1e; stroke-width: 0.896848; stroke-linecap: round"/>
   </g>
   <g id="patch_52">
    <path d="M 74.483274 52.505392 
Q 64.356639 60.784082 54.230003 69.062773 
" clip-path="url(#pa0cdfc1b49)" style="fill: none; opacity: 0.76484; stroke: #8e8e8e; stroke-width: 0.52968; stroke-linecap: round"/>
   </g>
   <g id="patch_53">
    <path d="M 49.558802 63.534894 
Q 49.729365 65.392118 49.899928 67.249343 
" clip-path="url(#pa0cdfc1b49)" style="fill: none; opacity: 0.834475; stroke: #686868; stroke-width: 0.66895; stroke-linecap: round"/>
   </g>
   <g id="patch_54">
    <path d="M 58.100985 65.898182 
Q 68.22762 57.619491 78.354256 49.3408 
" clip-path="url(#pa0cdfc1b49)" style="fill: none; opacity: 0.76484; stroke: #8e8e8e; stroke-width: 0.52968; stroke-linecap: round"/>
   </g>
   <g id="patch_55">
    <path d="M 49.44253 62.268831 
Q 49.271967 60.411606 49.101404 58.554382 
" clip-path="url(#pa0cdfc1b49)" style="fill: none; opacity: 0.834475; stroke: #686868; stroke-width: 0.66895; stroke-linecap: round"/>
   </g>
   <g id="patch_56">
    <path d="M 57.529652 68.679767 
Q 70.617307 76.332372 83.704962 83.984978 
" clip-path="url(#pa0cdfc1b49)" style="fill: none; opacity: 0.816229; stroke: #717171; stroke-width: 0.632458; stroke-linecap: round"/>
   </g>
   <g id="patch_57">
    <path d="M 79.386885 81.460114 
Q 66.29923 73.807509 53.211575 66.154904 
" clip-path="url(#pa0cdfc1b49)" style="fill: none; opacity: 0.816229; stroke: #717171; stroke-width: 0.632458; stroke-linecap: round"/>
   </g>
   <g id="patch_58">
    <path d="M 93.148111 81.603474 
Q 82.85779 84.140287 72.567468 86.6771 
" clip-path="url(#pa0cdfc1b49)" style="fill: none; opacity: 0.799523; stroke: #7a7a7a; stroke-width: 0.599045; stroke-linecap: round"/>
   </g>
   <g id="patch_59">
    <path d="M 60.176435 85.577955 
Q 61.554932 85.997698 62.93343 86.41744 
" clip-path="url(#pa0cdfc1b49)" style="fill: none; stroke: #000000; stroke-linecap: round"/>
   </g>
   <g id="patch_60">
    <path d="M 77.422343 85.480256 
Q 87.712665 82.943443 98.002986 80.40663 
" clip-path="url(#pa0cdfc1b49)" style="fill: none; opacity: 0.799523; stroke: #7a7a7a; stroke-width: 0.599045; stroke-linecap: round"/>
   </g>
   <g id="patch_61">
    <path d="M 58.146682 84.959909 
Q 56.768185 84.540167 55.389688 84.120424 
" clip-path="url(#pa0cdfc1b49)" style="fill: none; stroke: #000000; stroke-linecap: round"/>
   </g>
   <g id="patch_62">
    <path d="M 74.455103 42.291669 
Q 64.238734 50.382531 54.022365 58.473392 
" clip-path="url(#pa0cdfc1b49)" style="fill: none; stroke: #000000; stroke-linecap: round"/>
   </g>
   <g id="patch_63">
    <path d="M 49.205496 60.437295 
Q 49.653303 61.008064 50.10111 61.578833 
" clip-path="url(#pa0cdfc1b49)" style="fill: none; opacity: 0.821749; stroke: #6e6e6e; stroke-width: 0.643498; stroke-linecap: round"/>
   </g>
   <g id="patch_64">
    <path d="M 57.938793 55.371774 
Q 68.155162 47.280912 78.371532 39.19005 
" clip-path="url(#pa0cdfc1b49)" style="fill: none; stroke: #000000; stroke-linecap: round"/>
   </g>
   <g id="patch_65">
    <path d="M 43.928448 53.71124 
Q 43.48064 53.140471 43.032833 52.569702 
" clip-path="url(#pa0cdfc1b49)" style="fill: none; opacity: 0.821749; stroke: #6e6e6e; stroke-width: 0.643498; stroke-linecap: round"/>
   </g>
   <g id="patch_66">
    <path d="M 99.406259 65.785802 
Q 95.628717 69.212615 91.851174 72.639428 
" clip-path="url(#pa0cdfc1b49)" style="fill: none; opacity: 0.730594; stroke: #a3a3a3; stroke-width: 0.461187; stroke-linecap: round"/>
   </g>
   <g id="patch_67">
    <path d="M 57.341301 58.511358 
Q 70.569673 66.019676 83.798044 73.527993 
" clip-path="url(#pa0cdfc1b49)" style="fill: none; opacity: 0.737443; stroke: #9e9e9e; stroke-width: 0.474886; stroke-linecap: round"/>
   </g>
   <g id="patch_68">
    <path d="M 95.555943 69.278632 
Q 99.333485 65.851819 103.111027 62.425006 
" clip-path="url(#pa0cdfc1b49)" style="fill: none; opacity: 0.730594; stroke: #a3a3a3; stroke-width: 0.461187; stroke-linecap: round"/>
   </g>
   <g id="patch_69">
    <path d="M 79.45201 71.061219 
Q 66.223638 63.552901 52.995267 56.044584 
" clip-path="url(#pa0cdfc1b49)" style="fill: none; opacity: 0.737443; stroke: #9e9e9e; stroke-width: 0.474886; stroke-linecap: round"/>
   </g>
   <g id="patch_70">
    <path d="M 59.946156 75.063959 
Q 61.393766 75.49197 62.841376 75.919981 
" clip-path="url(#pa0cdfc1b49)" style="fill: none; stroke: #000000; stroke-linecap: round"/>
   </g>
   <g id="patch_71">
    <path d="M 58.047777 74.50267 
Q 56.600167 74.074659 55.152557 73.646648 
" clip-path="url(#pa0cdfc1b49)" style="fill: none; stroke: #000000; stroke-linecap: round"/>
   </g>
   <g id="patch_72">
    <path d="M 84.302804 45.878373 
Q 85.789892 53.124177 87.276981 60.369982 
" clip-path="url(#pa0cdfc1b49)" style="fill: none; opacity: 0.773543; stroke: #898989; stroke-width: 0.547085; stroke-linecap: round"/>
   </g>
   <g id="patch_73">
    <path d="M 57.149322 48.143013 
Q 70.525013 55.5012 83.900703 62.859387 
" clip-path="url(#pa0cdfc1b49)" style="fill: none; opacity: 0.696188; stroke: #b8b8b8; stroke-width: 0.392377; stroke-linecap: round"/>
   </g>
   <g id="patch_74">
    <path d="M 86.272606 55.47619 
Q 84.785518 48.230386 83.298429 40.984582 
" clip-path="url(#pa0cdfc1b49)" style="fill: none; opacity: 0.773543; stroke: #898989; stroke-width: 0.547085; stroke-linecap: round"/>
   </g>
   <g id="patch_75">
    <path d="M 79.518545 60.44869 
Q 66.142854 53.090503 52.767164 45.732316 
" clip-path="url(#pa0cdfc1b49)" style="fill: none; opacity: 0.696188; stroke: #b8b8b8; stroke-width: 0.392377; stroke-linecap: round"/>
   </g>
   <g id="patch_76">
    <path d="M 98.012424 52.814018 
Q 85.061743 58.668873 72.111062 64.523728 
" clip-path="url(#pa0cdfc1b49)" style="fill: none; opacity: 0.665919; stroke: #c7c7c7; stroke-width: 0.331839; stroke-linecap: round"/>
   </g>
   <g id="patch_77">
    <path d="M 59.711145 64.333611 
Q 61.230101 64.76903 62.749058 65.204449 
" clip-path="url(#pa0cdfc1b49)" style="fill: none; opacity: 0.894619; stroke: #444444; stroke-width: 0.789238; stroke-linecap: round"/>
   </g>
   <g id="patch_78">
    <path d="M 76.66865 62.463295 
Q 89.619331 56.60844 102.570012 50.753585 
" clip-path="url(#pa0cdfc1b49)" style="fill: none; opacity: 0.665919; stroke: #c7c7c7; stroke-width: 0.331839; stroke-linecap: round"/>
   </g>
   <g id="patch_79">
    <path d="M 57.946819 63.827856 
Q 56.427862 63.392437 54.908905 62.957018 
" clip-path="url(#pa0cdfc1b49)" style="fill: none; opacity: 0.894619; stroke: #444444; stroke-width: 0.789238; stroke-linecap: round"/>
   </g>
  </g>
 </g>
 <defs>
  <clipPath id="pa0cdfc1b49">
   <rect x="18.36" y="17.28" width="110.88" height="110.88"/>
  </clipPath>
 </defs>
</svg>
