<?xml version="1.0" encoding="utf-8" standalone="no"?>
<!DOCTYPE svg PUBLIC "-//W3C//DTD SVG 1.1//EN"
  "http://www.w3.org/Graphics/SVG/1.1/DTD/svg11.dtd">
<svg xmlns:xlink="http://www.w3.org/1999/xlink" width="288pt" height="432pt" viewBox="0 0 288 432" xmlns="http://www.w3.org/2000/svg" version="1.1">
 <metadata>
  <rdf:RDF xmlns:dc="http://purl.org/dc/elements/1.1/" xmlns:cc="http://creativecommons.org/ns#" xmlns:rdf="http://www.w3.org/1999/02/22-rdf-syntax-ns#">
   <cc:Work>
    <dc:type rdf:resource="http://purl.org/dc/dcmitype/StillImage"/>
    <dc:date>2025-08-15T10:26:35.533446</dc:date>
    <dc:format>image/svg+xml</dc:format>
    <dc:creator>
     <cc:Agent>
      <dc:title>Matplotlib v3.10.0, https://matplotlib.org/</dc:title>
     </cc:Agent>
    </dc:creator>
   </cc:Work>
  </rdf:RDF>
 </metadata>
 <defs>
  <style type="text/css">*{stroke-linejoin: round; stroke-linecap: butt}</style>
 </defs>
 <g id="figure_1">
  <g id="patch_1">
   <path d="M 0 432 
L 288 432 
L 288 0 
L 0 0 
z
" style="fill: #ffffff"/>
  </g>
  <g id="axes_1">
   <g id="patch_2">
    <path d="M 42.01 404.12 
L 277.2 404.12 
L 277.2 68.496 
L 42.01 68.496 
z
" style="fill: #ffffff"/>
   </g>
   <g id="PathCollection_1">
    <defs>
     <path id="C0_0_042a2ae036" d="M 0 3.872983 
C 1.027127 3.872983 2.012324 3.464901 2.738613 2.738613 
C 3.464901 2.012324 3.872983 1.027127 3.872983 -0 
C 3.872983 -1.027127 3.464901 -2.012324 2.738613 -2.738613 
C 2.012324 -3.464901 1.027127 -3.872983 0 -3.872983 
C -1.027127 -3.872983 -2.012324 -3.464901 -2.738613 -2.738613 
C -3.464901 -2.012324 -3.872983 -1.027127 -3.872983 0 
C -3.872983 1.027127 -3.464901 2.012324 -2.738613 2.738613 
C -2.012324 3.464901 -1.027127 3.872983 0 3.872983 
z
"/>
    </defs>
    <g clip-path="url(#pbbc71a54ad)">
     <use xlink:href="#C0_0_042a2ae036" x="118.671843" y="119.597819" style="fill: #ff0000; fill-opacity: 0.4"/>
    </g>
    <g clip-path="url(#pbbc71a54ad)">
     <use xlink:href="#C0_0_042a2ae036" x="114.170663" y="210.405885" style="fill: #ff0000; fill-opacity: 0.4"/>
    </g>
    <g clip-path="url(#pbbc71a54ad)">
     <use xlink:href="#C0_0_042a2ae036" x="106.671903" y="160.505522" style="fill: #ff0000; fill-opacity: 0.4"/>
    </g>
    <g clip-path="url(#pbbc71a54ad)">
     <use xlink:href="#C0_0_042a2ae036" x="109.907865" y="174.614292" style="fill: #ff0000; fill-opacity: 0.4"/>
    </g>
    <g clip-path="url(#pbbc71a54ad)">
     <use xlink:href="#C0_0_042a2ae036" x="116.55124" y="201.672026" style="fill: #ff0000; fill-opacity: 0.4"/>
    </g>
    <g clip-path="url(#pbbc71a54ad)">
     <use xlink:href="#C0_0_042a2ae036" x="110.655647" y="164.456723" style="fill: #ff0000; fill-opacity: 0.4"/>
    </g>
    <g clip-path="url(#pbbc71a54ad)">
     <use xlink:href="#C0_0_042a2ae036" x="115.593731" y="174.435869" style="fill: #ff0000; fill-opacity: 0.4"/>
    </g>
    <g clip-path="url(#pbbc71a54ad)">
     <use xlink:href="#C0_0_042a2ae036" x="118.495565" y="225.264267" style="fill: #ff0000; fill-opacity: 0.4"/>
    </g>
    <g clip-path="url(#pbbc71a54ad)">
     <use xlink:href="#C0_0_042a2ae036" x="117.792001" y="278.191431" style="fill: #ff0000; fill-opacity: 0.4"/>
    </g>
    <g clip-path="url(#pbbc71a54ad)">
     <use xlink:href="#C0_0_042a2ae036" x="117.432788" y="234.692737" style="fill: #ff0000; fill-opacity: 0.4"/>
    </g>
    <g clip-path="url(#pbbc71a54ad)">
     <use xlink:href="#C0_0_042a2ae036" x="120.593199" y="208.304854" style="fill: #ff0000; fill-opacity: 0.4"/>
    </g>
    <g clip-path="url(#pbbc71a54ad)">
     <use xlink:href="#C0_0_042a2ae036" x="122.766664" y="221.076019" style="fill: #ff0000; fill-opacity: 0.4"/>
    </g>
    <g clip-path="url(#pbbc71a54ad)">
     <use xlink:href="#C0_0_042a2ae036" x="105.54755" y="155.549434" style="fill: #ff0000; fill-opacity: 0.4"/>
    </g>
    <g clip-path="url(#pbbc71a54ad)">
     <use xlink:href="#C0_0_042a2ae036" x="118.418014" y="165.123679" style="fill: #ff0000; fill-opacity: 0.4"/>
    </g>
    <g clip-path="url(#pbbc71a54ad)">
     <use xlink:href="#C0_0_042a2ae036" x="121.511831" y="285.438752" style="fill: #ff0000; fill-opacity: 0.4"/>
    </g>
    <g clip-path="url(#pbbc71a54ad)">
     <use xlink:href="#C0_0_042a2ae036" x="108.539489" y="155.293945" style="fill: #ff0000; fill-opacity: 0.4"/>
    </g>
    <g clip-path="url(#pbbc71a54ad)">
     <use xlink:href="#C0_0_042a2ae036" x="108.894878" y="192.408945" style="fill: #ff0000; fill-opacity: 0.4"/>
    </g>
    <g clip-path="url(#pbbc71a54ad)">
     <use xlink:href="#C0_0_042a2ae036" x="120.125773" y="112.744248" style="fill: #ff0000; fill-opacity: 0.4"/>
    </g>
    <g clip-path="url(#pbbc71a54ad)">
     <use xlink:href="#C0_0_042a2ae036" x="112.649839" y="158.033745" style="fill: #ff0000; fill-opacity: 0.4"/>
    </g>
    <g clip-path="url(#pbbc71a54ad)">
     <use xlink:href="#C0_0_042a2ae036" x="115.36458" y="157.088505" style="fill: #ff0000; fill-opacity: 0.4"/>
    </g>
    <g clip-path="url(#pbbc71a54ad)">
     <use xlink:href="#C0_0_042a2ae036" x="112.722166" y="179.613024" style="fill: #ff0000; fill-opacity: 0.4"/>
    </g>
    <g clip-path="url(#pbbc71a54ad)">
     <use xlink:href="#C0_0_042a2ae036" x="118.215599" y="150.509303" style="fill: #ff0000; fill-opacity: 0.4"/>
    </g>
    <g clip-path="url(#pbbc71a54ad)">
     <use xlink:href="#C0_0_042a2ae036" x="117.19091" y="178.805957" style="fill: #ff0000; fill-opacity: 0.4"/>
    </g>
    <g clip-path="url(#pbbc71a54ad)">
     <use xlink:href="#C0_0_042a2ae036" x="121.513331" y="163.116403" style="fill: #ff0000; fill-opacity: 0.4"/>
    </g>
    <g clip-path="url(#pbbc71a54ad)">
     <use xlink:href="#C0_0_042a2ae036" x="123.469297" y="210.851564" style="fill: #ff0000; fill-opacity: 0.4"/>
    </g>
    <g clip-path="url(#pbbc71a54ad)">
     <use xlink:href="#C0_0_042a2ae036" x="123.775273" y="166.370422" style="fill: #ff0000; fill-opacity: 0.4"/>
    </g>
    <g clip-path="url(#pbbc71a54ad)">
     <use xlink:href="#C0_0_042a2ae036" x="122.437209" y="245.275677" style="fill: #ff0000; fill-opacity: 0.4"/>
    </g>
    <g clip-path="url(#pbbc71a54ad)">
     <use xlink:href="#C0_0_042a2ae036" x="120.226817" y="194.905253" style="fill: #ff0000; fill-opacity: 0.4"/>
    </g>
    <g clip-path="url(#pbbc71a54ad)">
     <use xlink:href="#C0_0_042a2ae036" x="126.465893" y="198.781744" style="fill: #ff0000; fill-opacity: 0.4"/>
    </g>
    <g clip-path="url(#pbbc71a54ad)">
     <use xlink:href="#C0_0_042a2ae036" x="117.850138" y="137.679438" style="fill: #ff0000; fill-opacity: 0.4"/>
    </g>
    <g clip-path="url(#pbbc71a54ad)">
     <use xlink:href="#C0_0_042a2ae036" x="125.225339" y="124.003742" style="fill: #ff0000; fill-opacity: 0.4"/>
    </g>
    <g clip-path="url(#pbbc71a54ad)">
     <use xlink:href="#C0_0_042a2ae036" x="130.404856" y="171.86961" style="fill: #ff0000; fill-opacity: 0.4"/>
    </g>
    <g clip-path="url(#pbbc71a54ad)">
     <use xlink:href="#C0_0_042a2ae036" x="122.478205" y="178.137882" style="fill: #ff0000; fill-opacity: 0.4"/>
    </g>
    <g clip-path="url(#pbbc71a54ad)">
     <use xlink:href="#C0_0_042a2ae036" x="121.623957" y="151.356787" style="fill: #ff0000; fill-opacity: 0.4"/>
    </g>
    <g clip-path="url(#pbbc71a54ad)">
     <use xlink:href="#C0_0_042a2ae036" x="124.812426" y="179.290769" style="fill: #ff0000; fill-opacity: 0.4"/>
    </g>
    <g clip-path="url(#pbbc71a54ad)">
     <use xlink:href="#C0_0_042a2ae036" x="121.865728" y="140.135618" style="fill: #ff0000; fill-opacity: 0.4"/>
    </g>
    <g clip-path="url(#pbbc71a54ad)">
     <use xlink:href="#C0_0_042a2ae036" x="128.341363" y="180.855338" style="fill: #ff0000; fill-opacity: 0.4"/>
    </g>
    <g clip-path="url(#pbbc71a54ad)">
     <use xlink:href="#C0_0_042a2ae036" x="130.055513" y="193.529338" style="fill: #ff0000; fill-opacity: 0.4"/>
    </g>
    <g clip-path="url(#pbbc71a54ad)">
     <use xlink:href="#C0_0_042a2ae036" x="132.686544" y="168.673438" style="fill: #ff0000; fill-opacity: 0.4"/>
    </g>
    <g clip-path="url(#pbbc71a54ad)">
     <use xlink:href="#C0_0_042a2ae036" x="125.020215" y="152.974378" style="fill: #ff0000; fill-opacity: 0.4"/>
    </g>
    <g clip-path="url(#pbbc71a54ad)">
     <use xlink:href="#C0_0_042a2ae036" x="129.060773" y="145.395971" style="fill: #ff0000; fill-opacity: 0.4"/>
    </g>
    <g clip-path="url(#pbbc71a54ad)">
     <use xlink:href="#C0_0_042a2ae036" x="131.276102" y="148.398907" style="fill: #ff0000; fill-opacity: 0.4"/>
    </g>
    <g clip-path="url(#pbbc71a54ad)">
     <use xlink:href="#C0_0_042a2ae036" x="134.865181" y="144.484392" style="fill: #ff0000; fill-opacity: 0.4"/>
    </g>
    <g clip-path="url(#pbbc71a54ad)">
     <use xlink:href="#C0_0_042a2ae036" x="134.32208" y="167.251429" style="fill: #ff0000; fill-opacity: 0.4"/>
    </g>
   </g>
   <g id="PathCollection_2">
    <defs>
     <path id="C1_0_0bd746fb7d" d="M 0 3.872983 
C 1.027127 3.872983 2.012324 3.464901 2.738613 2.738613 
C 3.464901 2.012324 3.872983 1.027127 3.872983 -0 
C 3.872983 -1.027127 3.464901 -2.012324 2.738613 -2.738613 
C 2.012324 -3.464901 1.027127 -3.872983 0 -3.872983 
C -1.027127 -3.872983 -2.012324 -3.464901 -2.738613 -2.738613 
C -3.464901 -2.012324 -3.872983 -1.027127 -3.872983 0 
C -3.872983 1.027127 -3.464901 2.012324 -2.738613 2.738613 
C -2.012324 3.464901 -1.027127 3.872983 0 3.872983 
z
"/>
    </defs>
    <g clip-path="url(#pbbc71a54ad)">
     <use xlink:href="#C1_0_0bd746fb7d" x="182.603987" y="178.256386" style="fill: #808080; fill-opacity: 0.4"/>
    </g>
    <g clip-path="url(#pbbc71a54ad)">
     <use xlink:href="#C1_0_0bd746fb7d" x="179.995171" y="198.108945" style="fill: #808080; fill-opacity: 0.4"/>
    </g>
    <g clip-path="url(#pbbc71a54ad)">
     <use xlink:href="#C1_0_0bd746fb7d" x="169.438208" y="170.456557" style="fill: #808080; fill-opacity: 0.4"/>
    </g>
    <g clip-path="url(#pbbc71a54ad)">
     <use xlink:href="#C1_0_0bd746fb7d" x="194.391046" y="131.626202" style="fill: #808080; fill-opacity: 0.4"/>
    </g>
    <g clip-path="url(#pbbc71a54ad)">
     <use xlink:href="#C1_0_0bd746fb7d" x="187.741923" y="143.359379" style="fill: #808080; fill-opacity: 0.4"/>
    </g>
    <g clip-path="url(#pbbc71a54ad)">
     <use xlink:href="#C1_0_0bd746fb7d" x="191.454914" y="147.548473" style="fill: #808080; fill-opacity: 0.4"/>
    </g>
    <g clip-path="url(#pbbc71a54ad)">
     <use xlink:href="#C1_0_0bd746fb7d" x="195.757975" y="147.154945" style="fill: #808080; fill-opacity: 0.4"/>
    </g>
    <g clip-path="url(#pbbc71a54ad)">
     <use xlink:href="#C1_0_0bd746fb7d" x="171.316757" y="164.349006" style="fill: #808080; fill-opacity: 0.4"/>
    </g>
    <g clip-path="url(#pbbc71a54ad)">
     <use xlink:href="#C1_0_0bd746fb7d" x="192.53063" y="269.429739" style="fill: #808080; fill-opacity: 0.4"/>
    </g>
    <g clip-path="url(#pbbc71a54ad)">
     <use xlink:href="#C1_0_0bd746fb7d" x="185.863475" y="176.395697" style="fill: #808080; fill-opacity: 0.4"/>
    </g>
    <g clip-path="url(#pbbc71a54ad)">
     <use xlink:href="#C1_0_0bd746fb7d" x="187.18646" y="245.442758" style="fill: #808080; fill-opacity: 0.4"/>
    </g>
    <g clip-path="url(#pbbc71a54ad)">
     <use xlink:href="#C1_0_0bd746fb7d" x="177.10697" y="225.567649" style="fill: #808080; fill-opacity: 0.4"/>
    </g>
    <g clip-path="url(#pbbc71a54ad)">
     <use xlink:href="#C1_0_0bd746fb7d" x="197.886842" y="153.735296" style="fill: #808080; fill-opacity: 0.4"/>
    </g>
    <g clip-path="url(#pbbc71a54ad)">
     <use xlink:href="#C1_0_0bd746fb7d" x="182.756339" y="212.925703" style="fill: #808080; fill-opacity: 0.4"/>
    </g>
    <g clip-path="url(#pbbc71a54ad)">
     <use xlink:href="#C1_0_0bd746fb7d" x="182.004266" y="207.999751" style="fill: #808080; fill-opacity: 0.4"/>
    </g>
    <g clip-path="url(#pbbc71a54ad)">
     <use xlink:href="#C1_0_0bd746fb7d" x="186.049733" y="195.848198" style="fill: #808080; fill-opacity: 0.4"/>
    </g>
    <g clip-path="url(#pbbc71a54ad)">
     <use xlink:href="#C1_0_0bd746fb7d" x="184.740056" y="215.393684" style="fill: #808080; fill-opacity: 0.4"/>
    </g>
    <g clip-path="url(#pbbc71a54ad)">
     <use xlink:href="#C1_0_0bd746fb7d" x="188.230577" y="213.284813" style="fill: #808080; fill-opacity: 0.4"/>
    </g>
    <g clip-path="url(#pbbc71a54ad)">
     <use xlink:href="#C1_0_0bd746fb7d" x="191.325129" y="206.763414" style="fill: #808080; fill-opacity: 0.4"/>
    </g>
    <g clip-path="url(#pbbc71a54ad)">
     <use xlink:href="#C1_0_0bd746fb7d" x="186.374429" y="181.686986" style="fill: #808080; fill-opacity: 0.4"/>
    </g>
    <g clip-path="url(#pbbc71a54ad)">
     <use xlink:href="#C1_0_0bd746fb7d" x="192.066665" y="208.984798" style="fill: #808080; fill-opacity: 0.4"/>
    </g>
    <g clip-path="url(#pbbc71a54ad)">
     <use xlink:href="#C1_0_0bd746fb7d" x="198.320081" y="150.466727" style="fill: #808080; fill-opacity: 0.4"/>
    </g>
    <g clip-path="url(#pbbc71a54ad)">
     <use xlink:href="#C1_0_0bd746fb7d" x="198.405864" y="260.13739" style="fill: #808080; fill-opacity: 0.4"/>
    </g>
    <g clip-path="url(#pbbc71a54ad)">
     <use xlink:href="#C1_0_0bd746fb7d" x="194.045537" y="279.68793" style="fill: #808080; fill-opacity: 0.4"/>
    </g>
    <g clip-path="url(#pbbc71a54ad)">
     <use xlink:href="#C1_0_0bd746fb7d" x="191.316772" y="231.692481" style="fill: #808080; fill-opacity: 0.4"/>
    </g>
    <g clip-path="url(#pbbc71a54ad)">
     <use xlink:href="#C1_0_0bd746fb7d" x="198.75734" y="275.693322" style="fill: #808080; fill-opacity: 0.4"/>
    </g>
    <g clip-path="url(#pbbc71a54ad)">
     <use xlink:href="#C1_0_0bd746fb7d" x="196.056049" y="196.678168" style="fill: #808080; fill-opacity: 0.4"/>
    </g>
    <g clip-path="url(#pbbc71a54ad)">
     <use xlink:href="#C1_0_0bd746fb7d" x="198.344091" y="193.6028" style="fill: #808080; fill-opacity: 0.4"/>
    </g>
    <g clip-path="url(#pbbc71a54ad)">
     <use xlink:href="#C1_0_0bd746fb7d" x="175.545572" y="156.269222" style="fill: #808080; fill-opacity: 0.4"/>
    </g>
    <g clip-path="url(#pbbc71a54ad)">
     <use xlink:href="#C1_0_0bd746fb7d" x="193.775637" y="244.544985" style="fill: #808080; fill-opacity: 0.4"/>
    </g>
    <g clip-path="url(#pbbc71a54ad)">
     <use xlink:href="#C1_0_0bd746fb7d" x="198.077325" y="388.864364" style="fill: #808080; fill-opacity: 0.4"/>
    </g>
    <g clip-path="url(#pbbc71a54ad)">
     <use xlink:href="#C1_0_0bd746fb7d" x="191.841828" y="211.349227" style="fill: #808080; fill-opacity: 0.4"/>
    </g>
    <g clip-path="url(#pbbc71a54ad)">
     <use xlink:href="#C1_0_0bd746fb7d" x="197.93405" y="219.267605" style="fill: #808080; fill-opacity: 0.4"/>
    </g>
    <g clip-path="url(#pbbc71a54ad)">
     <use xlink:href="#C1_0_0bd746fb7d" x="198.650002" y="209.729243" style="fill: #808080; fill-opacity: 0.4"/>
    </g>
    <g clip-path="url(#pbbc71a54ad)">
     <use xlink:href="#C1_0_0bd746fb7d" x="178.0832" y="173.35653" style="fill: #808080; fill-opacity: 0.4"/>
    </g>
    <g clip-path="url(#pbbc71a54ad)">
     <use xlink:href="#C1_0_0bd746fb7d" x="204.660651" y="155.242033" style="fill: #808080; fill-opacity: 0.4"/>
    </g>
    <g clip-path="url(#pbbc71a54ad)">
     <use xlink:href="#C1_0_0bd746fb7d" x="181.050792" y="156.0123" style="fill: #808080; fill-opacity: 0.4"/>
    </g>
    <g clip-path="url(#pbbc71a54ad)">
     <use xlink:href="#C1_0_0bd746fb7d" x="184.227025" y="167.749042" style="fill: #808080; fill-opacity: 0.4"/>
    </g>
    <g clip-path="url(#pbbc71a54ad)">
     <use xlink:href="#C1_0_0bd746fb7d" x="201.554501" y="201.17484" style="fill: #808080; fill-opacity: 0.4"/>
    </g>
    <g clip-path="url(#pbbc71a54ad)">
     <use xlink:href="#C1_0_0bd746fb7d" x="191.68059" y="191.565695" style="fill: #808080; fill-opacity: 0.4"/>
    </g>
    <g clip-path="url(#pbbc71a54ad)">
     <use xlink:href="#C1_0_0bd746fb7d" x="204.326347" y="199.883173" style="fill: #808080; fill-opacity: 0.4"/>
    </g>
    <g clip-path="url(#pbbc71a54ad)">
     <use xlink:href="#C1_0_0bd746fb7d" x="198.248717" y="237.388981" style="fill: #808080; fill-opacity: 0.4"/>
    </g>
    <g clip-path="url(#pbbc71a54ad)">
     <use xlink:href="#C1_0_0bd746fb7d" x="199.556792" y="388.864364" style="fill: #808080; fill-opacity: 0.4"/>
    </g>
    <g clip-path="url(#pbbc71a54ad)">
     <use xlink:href="#C1_0_0bd746fb7d" x="199.531429" y="291.929924" style="fill: #808080; fill-opacity: 0.4"/>
    </g>
    <g clip-path="url(#pbbc71a54ad)">
     <use xlink:href="#C1_0_0bd746fb7d" x="203.358598" y="277.05854" style="fill: #808080; fill-opacity: 0.4"/>
    </g>
    <g clip-path="url(#pbbc71a54ad)">
     <use xlink:href="#C1_0_0bd746fb7d" x="203.535134" y="280.605363" style="fill: #808080; fill-opacity: 0.4"/>
    </g>
    <g clip-path="url(#pbbc71a54ad)">
     <use xlink:href="#C1_0_0bd746fb7d" x="195.657328" y="190.859346" style="fill: #808080; fill-opacity: 0.4"/>
    </g>
    <g clip-path="url(#pbbc71a54ad)">
     <use xlink:href="#C1_0_0bd746fb7d" x="207.114055" y="201.627646" style="fill: #808080; fill-opacity: 0.4"/>
    </g>
    <g clip-path="url(#pbbc71a54ad)">
     <use xlink:href="#C1_0_0bd746fb7d" x="200.8941" y="213.843576" style="fill: #808080; fill-opacity: 0.4"/>
    </g>
    <g clip-path="url(#pbbc71a54ad)">
     <use xlink:href="#C1_0_0bd746fb7d" x="201.813893" y="239.725146" style="fill: #808080; fill-opacity: 0.4"/>
    </g>
    <g clip-path="url(#pbbc71a54ad)">
     <use xlink:href="#C1_0_0bd746fb7d" x="204.980143" y="215.246787" style="fill: #808080; fill-opacity: 0.4"/>
    </g>
    <g clip-path="url(#pbbc71a54ad)">
     <use xlink:href="#C1_0_0bd746fb7d" x="187.990515" y="164.051603" style="fill: #808080; fill-opacity: 0.4"/>
    </g>
    <g clip-path="url(#pbbc71a54ad)">
     <use xlink:href="#C1_0_0bd746fb7d" x="196.797756" y="126.452162" style="fill: #808080; fill-opacity: 0.4"/>
    </g>
    <g clip-path="url(#pbbc71a54ad)">
     <use xlink:href="#C1_0_0bd746fb7d" x="190.606934" y="164.787582" style="fill: #808080; fill-opacity: 0.4"/>
    </g>
    <g clip-path="url(#pbbc71a54ad)">
     <use xlink:href="#C1_0_0bd746fb7d" x="195.353902" y="156.594754" style="fill: #808080; fill-opacity: 0.4"/>
    </g>
    <g clip-path="url(#pbbc71a54ad)">
     <use xlink:href="#C1_0_0bd746fb7d" x="196.172625" y="187.744902" style="fill: #808080; fill-opacity: 0.4"/>
    </g>
    <g clip-path="url(#pbbc71a54ad)">
     <use xlink:href="#C1_0_0bd746fb7d" x="200.67325" y="186.208735" style="fill: #808080; fill-opacity: 0.4"/>
    </g>
    <g clip-path="url(#pbbc71a54ad)">
     <use xlink:href="#C1_0_0bd746fb7d" x="203.751991" y="180.716941" style="fill: #808080; fill-opacity: 0.4"/>
    </g>
    <g clip-path="url(#pbbc71a54ad)">
     <use xlink:href="#C1_0_0bd746fb7d" x="204.265259" y="244.18631" style="fill: #808080; fill-opacity: 0.4"/>
    </g>
    <g clip-path="url(#pbbc71a54ad)">
     <use xlink:href="#C1_0_0bd746fb7d" x="206.311902" y="239.209941" style="fill: #808080; fill-opacity: 0.4"/>
    </g>
    <g clip-path="url(#pbbc71a54ad)">
     <use xlink:href="#C1_0_0bd746fb7d" x="198.628698" y="169.792451" style="fill: #808080; fill-opacity: 0.4"/>
    </g>
    <g clip-path="url(#pbbc71a54ad)">
     <use xlink:href="#C1_0_0bd746fb7d" x="208.507858" y="209.791654" style="fill: #808080; fill-opacity: 0.4"/>
    </g>
    <g clip-path="url(#pbbc71a54ad)">
     <use xlink:href="#C1_0_0bd746fb7d" x="212.755822" y="203.612604" style="fill: #808080; fill-opacity: 0.4"/>
    </g>
    <g clip-path="url(#pbbc71a54ad)">
     <use xlink:href="#C1_0_0bd746fb7d" x="206.024526" y="186.569452" style="fill: #808080; fill-opacity: 0.4"/>
    </g>
    <g clip-path="url(#pbbc71a54ad)">
     <use xlink:href="#C1_0_0bd746fb7d" x="198.755089" y="171.595732" style="fill: #808080; fill-opacity: 0.4"/>
    </g>
    <g clip-path="url(#pbbc71a54ad)">
     <use xlink:href="#C1_0_0bd746fb7d" x="210.316202" y="188.536563" style="fill: #808080; fill-opacity: 0.4"/>
    </g>
    <g clip-path="url(#pbbc71a54ad)">
     <use xlink:href="#C1_0_0bd746fb7d" x="210.346537" y="219.400933" style="fill: #808080; fill-opacity: 0.4"/>
    </g>
    <g clip-path="url(#pbbc71a54ad)">
     <use xlink:href="#C1_0_0bd746fb7d" x="201.631701" y="136.150848" style="fill: #808080; fill-opacity: 0.4"/>
    </g>
    <g clip-path="url(#pbbc71a54ad)">
     <use xlink:href="#C1_0_0bd746fb7d" x="203.328277" y="166.533675" style="fill: #808080; fill-opacity: 0.4"/>
    </g>
    <g clip-path="url(#pbbc71a54ad)">
     <use xlink:href="#C1_0_0bd746fb7d" x="209.866541" y="236.548333" style="fill: #808080; fill-opacity: 0.4"/>
    </g>
    <g clip-path="url(#pbbc71a54ad)">
     <use xlink:href="#C1_0_0bd746fb7d" x="196.892218" y="119.79781" style="fill: #808080; fill-opacity: 0.4"/>
    </g>
    <g clip-path="url(#pbbc71a54ad)">
     <use xlink:href="#C1_0_0bd746fb7d" x="213.619034" y="210.134438" style="fill: #808080; fill-opacity: 0.4"/>
    </g>
    <g clip-path="url(#pbbc71a54ad)">
     <use xlink:href="#C1_0_0bd746fb7d" x="209.060567" y="156.823093" style="fill: #808080; fill-opacity: 0.4"/>
    </g>
    <g clip-path="url(#pbbc71a54ad)">
     <use xlink:href="#C1_0_0bd746fb7d" x="209.385929" y="167.508946" style="fill: #808080; fill-opacity: 0.4"/>
    </g>
    <g clip-path="url(#pbbc71a54ad)">
     <use xlink:href="#C1_0_0bd746fb7d" x="211.983007" y="189.252013" style="fill: #808080; fill-opacity: 0.4"/>
    </g>
    <g clip-path="url(#pbbc71a54ad)">
     <use xlink:href="#C1_0_0bd746fb7d" x="217.210314" y="226.973351" style="fill: #808080; fill-opacity: 0.4"/>
    </g>
    <g clip-path="url(#pbbc71a54ad)">
     <use xlink:href="#C1_0_0bd746fb7d" x="216.572401" y="176.894008" style="fill: #808080; fill-opacity: 0.4"/>
    </g>
    <g clip-path="url(#pbbc71a54ad)">
     <use xlink:href="#C1_0_0bd746fb7d" x="215.701356" y="209.527408" style="fill: #808080; fill-opacity: 0.4"/>
    </g>
    <g clip-path="url(#pbbc71a54ad)">
     <use xlink:href="#C1_0_0bd746fb7d" x="212.804286" y="162.736621" style="fill: #808080; fill-opacity: 0.4"/>
    </g>
    <g clip-path="url(#pbbc71a54ad)">
     <use xlink:href="#C1_0_0bd746fb7d" x="205.700401" y="154.294759" style="fill: #808080; fill-opacity: 0.4"/>
    </g>
    <g clip-path="url(#pbbc71a54ad)">
     <use xlink:href="#C1_0_0bd746fb7d" x="217.680523" y="164.380817" style="fill: #808080; fill-opacity: 0.4"/>
    </g>
    <g clip-path="url(#pbbc71a54ad)">
     <use xlink:href="#C1_0_0bd746fb7d" x="205.344751" y="128.749551" style="fill: #808080; fill-opacity: 0.4"/>
    </g>
    <g clip-path="url(#pbbc71a54ad)">
     <use xlink:href="#C1_0_0bd746fb7d" x="219.585713" y="167.382207" style="fill: #808080; fill-opacity: 0.4"/>
    </g>
    <g clip-path="url(#pbbc71a54ad)">
     <use xlink:href="#C1_0_0bd746fb7d" x="218.102921" y="202.954097" style="fill: #808080; fill-opacity: 0.4"/>
    </g>
    <g clip-path="url(#pbbc71a54ad)">
     <use xlink:href="#C1_0_0bd746fb7d" x="221.80517" y="157.89717" style="fill: #808080; fill-opacity: 0.4"/>
    </g>
    <g clip-path="url(#pbbc71a54ad)">
     <use xlink:href="#C1_0_0bd746fb7d" x="224.665587" y="170.481286" style="fill: #808080; fill-opacity: 0.4"/>
    </g>
    <g clip-path="url(#pbbc71a54ad)">
     <use xlink:href="#C1_0_0bd746fb7d" x="208.947335" y="144.484074" style="fill: #808080; fill-opacity: 0.4"/>
    </g>
    <g clip-path="url(#pbbc71a54ad)">
     <use xlink:href="#C1_0_0bd746fb7d" x="229.725819" y="170.038543" style="fill: #808080; fill-opacity: 0.4"/>
    </g>
   </g>
   <g id="FillBetweenPolyCollection_1">
    <path d="M 122.199744 285.438752 
L 118.61359 285.438752 
L 118.564962 283.694363 
L 118.526703 281.949974 
L 118.49834 280.205585 
L 118.478953 278.461196 
L 118.4672 276.716807 
L 118.461354 274.972418 
L 118.459376 273.228029 
L 118.458985 271.48364 
L 118.457757 269.739251 
L 118.453211 267.994863 
L 118.442916 266.250474 
L 118.424577 264.506085 
L 118.396121 262.761696 
L 118.35576 261.017307 
L 118.302053 259.272918 
L 118.233929 257.528529 
L 118.150703 255.78414 
L 118.052071 254.039751 
L 117.938081 252.295362 
L 117.809095 250.550973 
L 117.665737 248.806584 
L 117.508828 247.062195 
L 117.339324 245.317807 
L 117.158246 243.573418 
L 116.966622 241.829029 
L 116.765425 240.08464 
L 116.555528 238.340251 
L 116.337663 236.595862 
L 116.112399 234.851473 
L 115.880122 233.107084 
L 115.641034 231.362695 
L 115.395157 229.618306 
L 115.142345 227.873917 
L 114.882301 226.129528 
L 114.614604 224.385139 
L 114.338722 222.640751 
L 114.054041 220.896362 
L 113.759882 219.151973 
L 113.455514 217.407584 
L 113.14017 215.663195 
L 112.813054 213.918806 
L 112.473346 212.174417 
L 112.120218 210.430028 
L 111.752838 208.685639 
L 111.37039 206.94125 
L 110.972101 205.196861 
L 110.557273 203.452472 
L 110.125338 201.708083 
L 109.675911 199.963695 
L 109.208871 198.219306 
L 108.724438 196.474917 
L 108.223266 194.730528 
L 107.706529 192.986139 
L 107.176012 191.24175 
L 106.634182 189.497361 
L 106.084249 187.752972 
L 105.530201 186.008583 
L 104.976807 184.264194 
L 104.429592 182.519805 
L 103.894776 180.775416 
L 103.379172 179.031027 
L 102.890055 177.286639 
L 102.434998 175.54225 
L 102.02168 173.797861 
L 101.657678 172.053472 
L 101.350243 170.309083 
L 101.106076 168.564694 
L 100.931111 166.820305 
L 100.830314 165.075916 
L 100.8075 163.331527 
L 100.86519 161.587138 
L 101.004501 159.842749 
L 101.225084 158.09836 
L 101.525102 156.353972 
L 101.901269 154.609583 
L 102.348921 152.865194 
L 102.862153 151.120805 
L 103.433977 149.376416 
L 104.056535 147.632027 
L 104.721322 145.887638 
L 105.419443 144.143249 
L 106.141864 142.39886 
L 106.879669 140.654471 
L 107.624301 138.910082 
L 108.367776 137.165693 
L 109.102866 135.421304 
L 109.823246 133.676916 
L 110.523587 131.932527 
L 111.199612 130.188138 
L 111.848097 128.443749 
L 112.466833 126.69936 
L 113.054546 124.954971 
L 113.610789 123.210582 
L 114.135804 121.466193 
L 114.630382 119.721804 
L 115.095708 117.977415 
L 115.533215 116.233026 
L 115.944453 114.488637 
L 116.330977 112.744248 
L 124.482357 112.744248 
L 124.482357 112.744248 
L 124.86888 114.488637 
L 125.280118 116.233026 
L 125.717625 117.977415 
L 126.182951 119.721804 
L 126.677529 121.466193 
L 127.202545 123.210582 
L 127.758787 124.954971 
L 128.3465 126.69936 
L 128.965236 128.443749 
L 129.613722 130.188138 
L 130.289747 131.932527 
L 130.990088 133.676916 
L 131.710467 135.421304 
L 132.445558 137.165693 
L 133.189032 138.910082 
L 133.933664 140.654471 
L 134.67147 142.39886 
L 135.39389 144.143249 
L 136.092011 145.887638 
L 136.756799 147.632027 
L 137.379356 149.376416 
L 137.951181 151.120805 
L 138.464412 152.865194 
L 138.912065 154.609583 
L 139.288231 156.353972 
L 139.588249 158.09836 
L 139.808832 159.842749 
L 139.948143 161.587138 
L 140.005833 163.331527 
L 139.983019 165.075916 
L 139.882222 166.820305 
L 139.707258 168.564694 
L 139.463091 170.309083 
L 139.155655 172.053472 
L 138.791653 173.797861 
L 138.378336 175.54225 
L 137.923279 177.286639 
L 137.434162 179.031027 
L 136.918557 180.775416 
L 136.383741 182.519805 
L 135.836526 184.264194 
L 135.283132 186.008583 
L 134.729084 187.752972 
L 134.179151 189.497361 
L 133.637321 191.24175 
L 133.106804 192.986139 
L 132.590067 194.730528 
L 132.088895 196.474917 
L 131.604462 198.219306 
L 131.137422 199.963695 
L 130.687996 201.708083 
L 130.25606 203.452472 
L 129.841232 205.196861 
L 129.442943 206.94125 
L 129.060495 208.685639 
L 128.693115 210.430028 
L 128.339987 212.174417 
L 128.00028 213.918806 
L 127.673163 215.663195 
L 127.357819 217.407584 
L 127.053451 219.151973 
L 126.759292 220.896362 
L 126.474612 222.640751 
L 126.19873 224.385139 
L 125.931032 226.129528 
L 125.670989 227.873917 
L 125.418176 229.618306 
L 125.172299 231.362695 
L 124.933212 233.107084 
L 124.700935 234.851473 
L 124.47567 236.595862 
L 124.257805 238.340251 
L 124.047908 240.08464 
L 123.846711 241.829029 
L 123.655087 243.573418 
L 123.474009 245.317807 
L 123.304505 247.062195 
L 123.147596 248.806584 
L 123.004238 250.550973 
L 122.875252 252.295362 
L 122.761263 254.039751 
L 122.66263 255.78414 
L 122.579404 257.528529 
L 122.51128 259.272918 
L 122.457573 261.017307 
L 122.417213 262.761696 
L 122.388756 264.506085 
L 122.370417 266.250474 
L 122.360122 267.994863 
L 122.355577 269.739251 
L 122.354348 271.48364 
L 122.353958 273.228029 
L 122.351979 274.972418 
L 122.346134 276.716807 
L 122.33438 278.461196 
L 122.314994 280.205585 
L 122.286631 281.949974 
L 122.248371 283.694363 
L 122.199744 285.438752 
z
" clip-path="url(#pbbc71a54ad)" style="fill: #f08080; fill-opacity: 0.3"/>
   </g>
   <g id="FillBetweenPolyCollection_2">
    <path d="M 200.222689 388.864364 
L 197.383978 388.864364 
L 197.397332 386.14652 
L 197.436651 383.428676 
L 197.499752 380.710832 
L 197.58322 377.992988 
L 197.68271 375.275144 
L 197.793319 372.5573 
L 197.909974 369.839456 
L 198.0278 367.121612 
L 198.142426 364.403768 
L 198.250203 361.685924 
L 198.348319 358.96808 
L 198.434815 356.250236 
L 198.508504 353.532392 
L 198.568827 350.814548 
L 198.615654 348.096704 
L 198.649071 345.37886 
L 198.669157 342.661016 
L 198.675793 339.943172 
L 198.668501 337.225328 
L 198.64633 334.507484 
L 198.607803 331.78964 
L 198.550919 329.071796 
L 198.473228 326.353952 
L 198.371968 323.636108 
L 198.244267 320.918264 
L 198.0874 318.20042 
L 197.899089 315.482576 
L 197.677818 312.764732 
L 197.423137 310.046888 
L 197.135922 307.329044 
L 196.818541 304.6112 
L 196.474901 301.893356 
L 196.110335 299.175512 
L 195.731322 296.457668 
L 195.345033 293.739824 
L 194.958742 291.02198 
L 194.579139 288.304136 
L 194.211622 285.586292 
L 193.859644 282.868448 
L 193.524203 280.150604 
L 193.20354 277.43276 
L 192.893093 274.714916 
L 192.585727 271.997072 
L 192.272213 269.279228 
L 191.941905 266.561385 
L 191.583529 263.843541 
L 191.185987 261.125697 
L 190.739097 258.407853 
L 190.234189 255.690009 
L 189.664527 252.972165 
L 189.025551 250.254321 
L 188.314977 247.536477 
L 187.5328 244.818633 
L 186.681282 242.100789 
L 185.764942 239.382945 
L 184.790593 236.665101 
L 183.767402 233.947257 
L 182.706912 231.229413 
L 181.622967 228.511569 
L 180.531447 225.793725 
L 179.449758 223.075881 
L 178.396057 220.358037 
L 177.388233 217.640193 
L 176.442748 214.922349 
L 175.573457 212.204505 
L 174.790588 209.486661 
L 174.100036 206.768817 
L 173.503112 204.050973 
L 172.996828 201.333129 
L 172.57471 198.615285 
L 172.228077 195.897441 
L 171.947628 193.179597 
L 171.725134 190.461753 
L 171.555004 187.743909 
L 171.435512 185.026065 
L 171.369509 182.308221 
L 171.3645 179.590377 
L 171.432069 176.872533 
L 171.586708 174.154689 
L 171.844203 171.436845 
L 172.219755 168.719001 
L 172.726093 166.001157 
L 173.371793 163.283313 
L 174.160002 160.565469 
L 175.087717 157.847625 
L 176.145677 155.129781 
L 177.31885 152.411937 
L 178.587445 149.694093 
L 179.928283 146.976249 
L 181.31637 144.258405 
L 182.726471 141.540561 
L 184.134536 138.822717 
L 185.518836 136.104873 
L 186.860753 133.387029 
L 188.145181 130.669185 
L 189.360598 127.951342 
L 190.498845 125.233498 
L 191.554734 122.515654 
L 192.525547 119.79781 
L 205.08112 119.79781 
L 205.08112 119.79781 
L 206.051932 122.515654 
L 207.107821 125.233498 
L 208.246069 127.951342 
L 209.461486 130.669185 
L 210.745914 133.387029 
L 212.08783 136.104873 
L 213.472131 138.822717 
L 214.880196 141.540561 
L 216.290297 144.258405 
L 217.678384 146.976249 
L 219.019222 149.694093 
L 220.287816 152.411937 
L 221.46099 155.129781 
L 222.518949 157.847625 
L 223.446665 160.565469 
L 224.234874 163.283313 
L 224.880574 166.001157 
L 225.386912 168.719001 
L 225.762464 171.436845 
L 226.019958 174.154689 
L 226.174598 176.872533 
L 226.242167 179.590377 
L 226.237158 182.308221 
L 226.171155 185.026065 
L 226.051663 187.743909 
L 225.881532 190.461753 
L 225.659038 193.179597 
L 225.37859 195.897441 
L 225.031957 198.615285 
L 224.609839 201.333129 
L 224.103554 204.050973 
L 223.506631 206.768817 
L 222.816079 209.486661 
L 222.03321 212.204505 
L 221.163919 214.922349 
L 220.218434 217.640193 
L 219.21061 220.358037 
L 218.156908 223.075881 
L 217.07522 225.793725 
L 215.983699 228.511569 
L 214.899754 231.229413 
L 213.839265 233.947257 
L 212.816074 236.665101 
L 211.841725 239.382945 
L 210.925385 242.100789 
L 210.073866 244.818633 
L 209.29169 247.536477 
L 208.581115 250.254321 
L 207.94214 252.972165 
L 207.372478 255.690009 
L 206.86757 258.407853 
L 206.420679 261.125697 
L 206.023137 263.843541 
L 205.664761 266.561385 
L 205.334454 269.279228 
L 205.02094 271.997072 
L 204.713573 274.714916 
L 204.403126 277.43276 
L 204.082463 280.150604 
L 203.747023 282.868448 
L 203.395045 285.586292 
L 203.027527 288.304136 
L 202.647924 291.02198 
L 202.261633 293.739824 
L 201.875345 296.457668 
L 201.496331 299.175512 
L 201.131766 301.893356 
L 200.788126 304.6112 
L 200.470745 307.329044 
L 200.18353 310.046888 
L 199.928849 312.764732 
L 199.707578 315.482576 
L 199.519267 318.20042 
L 199.3624 320.918264 
L 199.234699 323.636108 
L 199.133439 326.353952 
L 199.055748 329.071796 
L 198.998864 331.78964 
L 198.960336 334.507484 
L 198.938166 337.225328 
L 198.930874 339.943172 
L 198.93751 342.661016 
L 198.957596 345.37886 
L 198.991012 348.096704 
L 199.03784 350.814548 
L 199.098163 353.532392 
L 199.171852 356.250236 
L 199.258347 358.96808 
L 199.356464 361.685924 
L 199.46424 364.403768 
L 199.578866 367.121612 
L 199.696693 369.839456 
L 199.813348 372.5573 
L 199.923957 375.275144 
L 200.023447 377.992988 
L 200.106914 380.710832 
L 200.170015 383.428676 
L 200.209334 386.14652 
L 200.222689 388.864364 
z
" clip-path="url(#pbbc71a54ad)" style="fill: #808080; fill-opacity: 0.3"/>
   </g>
   <g id="matplotlib.axis_1">
    <g id="xtick_1">
     <g id="line2d_1">
      <defs>
       <path id="m72fb67b2ab" d="M 0 0 
L 0 3.5 
" style="stroke: #000000; stroke-width: 0.8"/>
      </defs>
      <g>
       <use xlink:href="#m72fb67b2ab" x="120.406667" y="404.12" style="stroke: #000000; stroke-width: 0.8"/>
      </g>
     </g>
     <g id="text_1">
      <!-- Mutants -->
      <g transform="translate(99.280885 418.718437) scale(0.1 -0.1)">
       <defs>
        <path id="DejaVuSerif-4d" d="M 353 0 
L 353 331 
L 947 331 
L 947 4331 
L 319 4331 
L 319 4666 
L 1678 4666 
L 3316 1344 
L 4953 4666 
L 6228 4666 
L 6228 4331 
L 5606 4331 
L 5606 331 
L 6203 331 
L 6203 0 
L 4378 0 
L 4378 331 
L 4972 331 
L 4972 3938 
L 3372 684 
L 2931 684 
L 1331 3938 
L 1331 331 
L 1925 331 
L 1925 0 
L 353 0 
z
" transform="scale(0.015625)"/>
        <path id="DejaVuSerif-75" d="M 2266 3322 
L 3341 3322 
L 3341 331 
L 3884 331 
L 3884 0 
L 2766 0 
L 2766 588 
Q 2606 256 2353 82 
Q 2100 -91 1766 -91 
Q 1213 -91 952 223 
Q 691 538 691 1209 
L 691 2988 
L 172 2988 
L 172 3322 
L 1269 3322 
L 1269 1388 
Q 1269 781 1417 556 
Q 1566 331 1947 331 
Q 2347 331 2556 625 
Q 2766 919 2766 1478 
L 2766 2988 
L 2266 2988 
L 2266 3322 
z
" transform="scale(0.015625)"/>
        <path id="DejaVuSerif-74" d="M 691 2988 
L 184 2988 
L 184 3322 
L 691 3322 
L 691 4353 
L 1269 4353 
L 1269 3322 
L 2350 3322 
L 2350 2988 
L 1269 2988 
L 1269 878 
Q 1269 456 1350 337 
Q 1431 219 1650 219 
Q 1875 219 1978 351 
Q 2081 484 2088 781 
L 2522 781 
Q 2497 328 2275 118 
Q 2053 -91 1600 -91 
Q 1103 -91 897 129 
Q 691 350 691 878 
L 691 2988 
z
" transform="scale(0.015625)"/>
        <path id="DejaVuSerif-61" d="M 2547 1044 
L 2547 1747 
L 1806 1747 
Q 1378 1747 1168 1562 
Q 959 1378 959 997 
Q 959 650 1171 447 
Q 1384 244 1747 244 
Q 2106 244 2326 466 
Q 2547 688 2547 1044 
z
M 3122 2075 
L 3122 331 
L 3634 331 
L 3634 0 
L 2547 0 
L 2547 359 
Q 2356 128 2106 18 
Q 1856 -91 1522 -91 
Q 969 -91 644 203 
Q 319 497 319 997 
Q 319 1513 691 1797 
Q 1063 2081 1741 2081 
L 2547 2081 
L 2547 2309 
Q 2547 2688 2317 2895 
Q 2088 3103 1672 3103 
Q 1328 3103 1125 2947 
Q 922 2791 872 2484 
L 575 2484 
L 575 3156 
Q 875 3284 1158 3348 
Q 1441 3413 1709 3413 
Q 2400 3413 2761 3070 
Q 3122 2728 3122 2075 
z
" transform="scale(0.015625)"/>
        <path id="DejaVuSerif-6e" d="M 263 0 
L 263 331 
L 781 331 
L 781 2988 
L 231 2988 
L 231 3322 
L 1356 3322 
L 1356 2731 
Q 1516 3069 1770 3241 
Q 2025 3413 2363 3413 
Q 2913 3413 3172 3097 
Q 3431 2781 3431 2113 
L 3431 331 
L 3944 331 
L 3944 0 
L 2356 0 
L 2356 331 
L 2853 331 
L 2853 1931 
Q 2853 2541 2703 2767 
Q 2553 2994 2175 2994 
Q 1775 2994 1565 2701 
Q 1356 2409 1356 1850 
L 1356 331 
L 1856 331 
L 1856 0 
L 263 0 
z
" transform="scale(0.015625)"/>
        <path id="DejaVuSerif-73" d="M 359 184 
L 359 959 
L 691 959 
Q 703 588 923 403 
Q 1144 219 1575 219 
Q 1963 219 2166 364 
Q 2369 509 2369 788 
Q 2369 1006 2220 1140 
Q 2072 1275 1594 1428 
L 1178 1569 
Q 750 1706 558 1912 
Q 366 2119 366 2438 
Q 366 2894 700 3153 
Q 1034 3413 1625 3413 
Q 1888 3413 2178 3344 
Q 2469 3275 2778 3144 
L 2778 2419 
L 2447 2419 
Q 2434 2741 2221 2922 
Q 2009 3103 1644 3103 
Q 1281 3103 1095 2975 
Q 909 2847 909 2591 
Q 909 2381 1050 2254 
Q 1191 2128 1613 1997 
L 2069 1856 
Q 2541 1709 2748 1489 
Q 2956 1269 2956 922 
Q 2956 450 2595 179 
Q 2234 -91 1600 -91 
Q 1278 -91 972 -22 
Q 666 47 359 184 
z
" transform="scale(0.015625)"/>
       </defs>
       <use xlink:href="#DejaVuSerif-4d"/>
       <use xlink:href="#DejaVuSerif-75" transform="translate(102.392578 0)"/>
       <use xlink:href="#DejaVuSerif-74" transform="translate(166.796875 0)"/>
       <use xlink:href="#DejaVuSerif-61" transform="translate(206.982422 0)"/>
       <use xlink:href="#DejaVuSerif-6e" transform="translate(266.601562 0)"/>
       <use xlink:href="#DejaVuSerif-74" transform="translate(331.005859 0)"/>
       <use xlink:href="#DejaVuSerif-73" transform="translate(371.191406 0)"/>
      </g>
     </g>
    </g>
    <g id="xtick_2">
     <g id="line2d_2">
      <g>
       <use xlink:href="#m72fb67b2ab" x="198.803333" y="404.12" style="stroke: #000000; stroke-width: 0.8"/>
      </g>
     </g>
     <g id="text_2">
      <!-- Non-members WT -->
      <g transform="translate(152.886927 418.718437) scale(0.1 -0.1)">
       <defs>
        <path id="DejaVuSerif-4e" d="M 313 0 
L 313 331 
L 941 331 
L 941 4331 
L 313 4331 
L 313 4666 
L 1509 4666 
L 4306 984 
L 4306 4331 
L 3681 4331 
L 3681 4666 
L 5319 4666 
L 5319 4331 
L 4691 4331 
L 4691 -91 
L 4313 -91 
L 1325 3841 
L 1325 331 
L 1953 331 
L 1953 0 
L 313 0 
z
" transform="scale(0.015625)"/>
        <path id="DejaVuSerif-6f" d="M 1925 219 
Q 2388 219 2623 584 
Q 2859 950 2859 1663 
Q 2859 2375 2623 2739 
Q 2388 3103 1925 3103 
Q 1463 3103 1227 2739 
Q 991 2375 991 1663 
Q 991 950 1228 584 
Q 1466 219 1925 219 
z
M 1925 -91 
Q 1200 -91 759 389 
Q 319 869 319 1663 
Q 319 2456 758 2934 
Q 1197 3413 1925 3413 
Q 2653 3413 3092 2934 
Q 3531 2456 3531 1663 
Q 3531 869 3092 389 
Q 2653 -91 1925 -91 
z
" transform="scale(0.015625)"/>
        <path id="DejaVuSerif-2d" d="M 281 1959 
L 1881 1959 
L 1881 1472 
L 281 1472 
L 281 1959 
z
" transform="scale(0.015625)"/>
        <path id="DejaVuSerif-6d" d="M 3316 2675 
Q 3481 3041 3739 3227 
Q 3997 3413 4341 3413 
Q 4863 3413 5119 3089 
Q 5375 2766 5375 2113 
L 5375 331 
L 5894 331 
L 5894 0 
L 4300 0 
L 4300 331 
L 4800 331 
L 4800 2047 
Q 4800 2556 4650 2772 
Q 4500 2988 4153 2988 
Q 3769 2988 3567 2697 
Q 3366 2406 3366 1850 
L 3366 331 
L 3866 331 
L 3866 0 
L 2291 0 
L 2291 331 
L 2791 331 
L 2791 2069 
Q 2791 2566 2641 2777 
Q 2491 2988 2144 2988 
Q 1759 2988 1557 2697 
Q 1356 2406 1356 1850 
L 1356 331 
L 1856 331 
L 1856 0 
L 263 0 
L 263 331 
L 781 331 
L 781 2994 
L 231 2994 
L 231 3322 
L 1356 3322 
L 1356 2731 
Q 1516 3063 1762 3238 
Q 2009 3413 2322 3413 
Q 2709 3413 2968 3220 
Q 3228 3028 3316 2675 
z
" transform="scale(0.015625)"/>
        <path id="DejaVuSerif-65" d="M 3469 1600 
L 991 1600 
L 991 1575 
Q 991 903 1244 561 
Q 1497 219 1991 219 
Q 2369 219 2611 417 
Q 2853 616 2950 1006 
L 3413 1006 
Q 3275 459 2904 184 
Q 2534 -91 1931 -91 
Q 1203 -91 761 389 
Q 319 869 319 1663 
Q 319 2450 753 2931 
Q 1188 3413 1894 3413 
Q 2647 3413 3050 2948 
Q 3453 2484 3469 1600 
z
M 2791 1931 
Q 2772 2513 2545 2808 
Q 2319 3103 1894 3103 
Q 1497 3103 1269 2806 
Q 1041 2509 991 1931 
L 2791 1931 
z
" transform="scale(0.015625)"/>
        <path id="DejaVuSerif-62" d="M 738 331 
L 738 4531 
L 184 4531 
L 184 4863 
L 1313 4863 
L 1313 2803 
Q 1481 3116 1742 3264 
Q 2003 3413 2388 3413 
Q 3000 3413 3387 2928 
Q 3775 2444 3775 1663 
Q 3775 881 3387 395 
Q 3000 -91 2388 -91 
Q 2003 -91 1742 57 
Q 1481 206 1313 519 
L 1313 0 
L 184 0 
L 184 331 
L 738 331 
z
M 1313 1497 
Q 1313 897 1542 583 
Q 1772 269 2209 269 
Q 2650 269 2876 622 
Q 3103 975 3103 1663 
Q 3103 2353 2876 2703 
Q 2650 3053 2209 3053 
Q 1772 3053 1542 2737 
Q 1313 2422 1313 1825 
L 1313 1497 
z
" transform="scale(0.015625)"/>
        <path id="DejaVuSerif-72" d="M 3059 3328 
L 3059 2497 
L 2728 2497 
Q 2713 2744 2591 2866 
Q 2469 2988 2234 2988 
Q 1809 2988 1582 2694 
Q 1356 2400 1356 1850 
L 1356 331 
L 2022 331 
L 2022 0 
L 263 0 
L 263 331 
L 781 331 
L 781 2994 
L 231 2994 
L 231 3322 
L 1356 3322 
L 1356 2731 
Q 1525 3078 1790 3245 
Q 2056 3413 2438 3413 
Q 2578 3413 2733 3391 
Q 2888 3369 3059 3328 
z
" transform="scale(0.015625)"/>
        <path id="DejaVuSerif-20" transform="scale(0.015625)"/>
        <path id="DejaVuSerif-57" d="M 4878 0 
L 4366 0 
L 3297 3794 
L 2228 0 
L 1716 0 
L 494 4331 
L 31 4331 
L 31 4666 
L 1734 4666 
L 1734 4331 
L 1153 4331 
L 2125 884 
L 3188 4666 
L 3694 4666 
L 4775 844 
L 5753 4331 
L 5216 4331 
L 5216 4666 
L 6559 4666 
L 6559 4331 
L 6100 4331 
L 4878 0 
z
" transform="scale(0.015625)"/>
        <path id="DejaVuSerif-54" d="M 1222 0 
L 1222 331 
L 1819 331 
L 1819 4294 
L 447 4294 
L 447 3566 
L 63 3566 
L 63 4666 
L 4206 4666 
L 4206 3566 
L 3822 3566 
L 3822 4294 
L 2450 4294 
L 2450 331 
L 3047 331 
L 3047 0 
L 1222 0 
z
" transform="scale(0.015625)"/>
       </defs>
       <use xlink:href="#DejaVuSerif-4e"/>
       <use xlink:href="#DejaVuSerif-6f" transform="translate(87.5 0)"/>
       <use xlink:href="#DejaVuSerif-6e" transform="translate(147.705078 0)"/>
       <use xlink:href="#DejaVuSerif-2d" transform="translate(212.109375 0)"/>
       <use xlink:href="#DejaVuSerif-6d" transform="translate(245.898438 0)"/>
       <use xlink:href="#DejaVuSerif-65" transform="translate(340.722656 0)"/>
       <use xlink:href="#DejaVuSerif-6d" transform="translate(399.902344 0)"/>
       <use xlink:href="#DejaVuSerif-62" transform="translate(494.726562 0)"/>
       <use xlink:href="#DejaVuSerif-65" transform="translate(558.740234 0)"/>
       <use xlink:href="#DejaVuSerif-72" transform="translate(617.919922 0)"/>
       <use xlink:href="#DejaVuSerif-73" transform="translate(665.722656 0)"/>
       <use xlink:href="#DejaVuSerif-20" transform="translate(717.041016 0)"/>
       <use xlink:href="#DejaVuSerif-57" transform="translate(748.828125 0)"/>
       <use xlink:href="#DejaVuSerif-54" transform="translate(851.611328 0)"/>
      </g>
     </g>
    </g>
   </g>
   <g id="matplotlib.axis_2">
    <g id="ytick_1">
     <g id="line2d_3">
      <defs>
       <path id="med2a00e100" d="M 0 0 
L -3.5 0 
" style="stroke: #000000; stroke-width: 0.8"/>
      </defs>
      <g>
       <use xlink:href="#med2a00e100" x="42.01" y="388.864364" style="stroke: #000000; stroke-width: 0.8"/>
      </g>
     </g>
     <g id="text_3">
      <!-- −1.0 -->
      <g transform="translate(10.727187 392.663582) scale(0.1 -0.1)">
       <defs>
        <path id="DejaVuSerif-2212" d="M 678 2259 
L 4684 2259 
L 4684 1753 
L 678 1753 
L 678 2259 
z
" transform="scale(0.015625)"/>
        <path id="DejaVuSerif-31" d="M 909 0 
L 909 331 
L 1722 331 
L 1722 4213 
L 781 3603 
L 781 4013 
L 1919 4750 
L 2350 4750 
L 2350 331 
L 3163 331 
L 3163 0 
L 909 0 
z
" transform="scale(0.015625)"/>
        <path id="DejaVuSerif-2e" d="M 603 325 
Q 603 500 722 622 
Q 841 744 1019 744 
Q 1191 744 1312 622 
Q 1434 500 1434 325 
Q 1434 153 1312 31 
Q 1191 -91 1019 -91 
Q 841 -91 722 29 
Q 603 150 603 325 
z
" transform="scale(0.015625)"/>
        <path id="DejaVuSerif-30" d="M 2034 219 
Q 2513 219 2750 744 
Q 2988 1269 2988 2328 
Q 2988 3391 2750 3916 
Q 2513 4441 2034 4441 
Q 1556 4441 1318 3916 
Q 1081 3391 1081 2328 
Q 1081 1269 1318 744 
Q 1556 219 2034 219 
z
M 2034 -91 
Q 1275 -91 848 546 
Q 422 1184 422 2328 
Q 422 3475 848 4112 
Q 1275 4750 2034 4750 
Q 2797 4750 3222 4112 
Q 3647 3475 3647 2328 
Q 3647 1184 3222 546 
Q 2797 -91 2034 -91 
z
" transform="scale(0.015625)"/>
       </defs>
       <use xlink:href="#DejaVuSerif-2212"/>
       <use xlink:href="#DejaVuSerif-31" transform="translate(83.789062 0)"/>
       <use xlink:href="#DejaVuSerif-2e" transform="translate(147.412109 0)"/>
       <use xlink:href="#DejaVuSerif-30" transform="translate(179.199219 0)"/>
      </g>
     </g>
    </g>
    <g id="ytick_2">
     <g id="line2d_4">
      <g>
       <use xlink:href="#med2a00e100" x="42.01" y="317.169421" style="stroke: #000000; stroke-width: 0.8"/>
      </g>
     </g>
     <g id="text_4">
      <!-- −0.8 -->
      <g transform="translate(10.727187 320.96864) scale(0.1 -0.1)">
       <defs>
        <path id="DejaVuSerif-38" d="M 2981 1275 
Q 2981 1775 2732 2051 
Q 2484 2328 2034 2328 
Q 1584 2328 1336 2051 
Q 1088 1775 1088 1275 
Q 1088 772 1336 495 
Q 1584 219 2034 219 
Q 2484 219 2732 495 
Q 2981 772 2981 1275 
z
M 2853 3541 
Q 2853 3966 2637 4203 
Q 2422 4441 2034 4441 
Q 1650 4441 1433 4203 
Q 1216 3966 1216 3541 
Q 1216 3113 1433 2875 
Q 1650 2638 2034 2638 
Q 2422 2638 2637 2875 
Q 2853 3113 2853 3541 
z
M 2516 2484 
Q 3047 2413 3344 2092 
Q 3641 1772 3641 1275 
Q 3641 619 3225 264 
Q 2809 -91 2034 -91 
Q 1263 -91 845 264 
Q 428 619 428 1275 
Q 428 1772 725 2092 
Q 1022 2413 1556 2484 
Q 1084 2569 832 2842 
Q 581 3116 581 3541 
Q 581 4103 968 4426 
Q 1356 4750 2034 4750 
Q 2713 4750 3100 4426 
Q 3488 4103 3488 3541 
Q 3488 3116 3236 2842 
Q 2984 2569 2516 2484 
z
" transform="scale(0.015625)"/>
       </defs>
       <use xlink:href="#DejaVuSerif-2212"/>
       <use xlink:href="#DejaVuSerif-30" transform="translate(83.789062 0)"/>
       <use xlink:href="#DejaVuSerif-2e" transform="translate(147.412109 0)"/>
       <use xlink:href="#DejaVuSerif-38" transform="translate(179.199219 0)"/>
      </g>
     </g>
    </g>
    <g id="ytick_3">
     <g id="line2d_5">
      <g>
       <use xlink:href="#med2a00e100" x="42.01" y="245.474479" style="stroke: #000000; stroke-width: 0.8"/>
      </g>
     </g>
     <g id="text_5">
      <!-- −0.6 -->
      <g transform="translate(10.727187 249.273697) scale(0.1 -0.1)">
       <defs>
        <path id="DejaVuSerif-36" d="M 2094 219 
Q 2534 219 2771 542 
Q 3009 866 3009 1472 
Q 3009 2078 2771 2401 
Q 2534 2725 2094 2725 
Q 1647 2725 1412 2412 
Q 1178 2100 1178 1509 
Q 1178 888 1415 553 
Q 1653 219 2094 219 
z
M 1075 2569 
Q 1288 2803 1556 2918 
Q 1825 3034 2163 3034 
Q 2859 3034 3264 2615 
Q 3669 2197 3669 1472 
Q 3669 763 3233 336 
Q 2797 -91 2069 -91 
Q 1278 -91 853 498 
Q 428 1088 428 2181 
Q 428 3406 931 4078 
Q 1434 4750 2350 4750 
Q 2597 4750 2869 4703 
Q 3141 4656 3425 4563 
L 3425 3794 
L 3072 3794 
Q 3034 4109 2831 4275 
Q 2628 4441 2284 4441 
Q 1678 4441 1381 3981 
Q 1084 3522 1075 2569 
z
" transform="scale(0.015625)"/>
       </defs>
       <use xlink:href="#DejaVuSerif-2212"/>
       <use xlink:href="#DejaVuSerif-30" transform="translate(83.789062 0)"/>
       <use xlink:href="#DejaVuSerif-2e" transform="translate(147.412109 0)"/>
       <use xlink:href="#DejaVuSerif-36" transform="translate(179.199219 0)"/>
      </g>
     </g>
    </g>
    <g id="ytick_4">
     <g id="line2d_6">
      <g>
       <use xlink:href="#med2a00e100" x="42.01" y="173.779536" style="stroke: #000000; stroke-width: 0.8"/>
      </g>
     </g>
     <g id="text_6">
      <!-- −0.4 -->
      <g transform="translate(10.727187 177.578755) scale(0.1 -0.1)">
       <defs>
        <path id="DejaVuSerif-34" d="M 2234 1581 
L 2234 4063 
L 641 1581 
L 2234 1581 
z
M 3609 0 
L 1484 0 
L 1484 331 
L 2234 331 
L 2234 1247 
L 197 1247 
L 197 1588 
L 2241 4750 
L 2859 4750 
L 2859 1581 
L 3750 1581 
L 3750 1247 
L 2859 1247 
L 2859 331 
L 3609 331 
L 3609 0 
z
" transform="scale(0.015625)"/>
       </defs>
       <use xlink:href="#DejaVuSerif-2212"/>
       <use xlink:href="#DejaVuSerif-30" transform="translate(83.789062 0)"/>
       <use xlink:href="#DejaVuSerif-2e" transform="translate(147.412109 0)"/>
       <use xlink:href="#DejaVuSerif-34" transform="translate(179.199219 0)"/>
      </g>
     </g>
    </g>
    <g id="ytick_5">
     <g id="line2d_7">
      <g>
       <use xlink:href="#med2a00e100" x="42.01" y="102.084594" style="stroke: #000000; stroke-width: 0.8"/>
      </g>
     </g>
     <g id="text_7">
      <!-- −0.2 -->
      <g transform="translate(10.727187 105.883813) scale(0.1 -0.1)">
       <defs>
        <path id="DejaVuSerif-32" d="M 819 3553 
L 469 3553 
L 469 4384 
Q 803 4563 1142 4656 
Q 1481 4750 1806 4750 
Q 2534 4750 2956 4397 
Q 3378 4044 3378 3438 
Q 3378 2753 2422 1800 
Q 2347 1728 2309 1691 
L 1131 513 
L 3078 513 
L 3078 1088 
L 3444 1088 
L 3444 0 
L 434 0 
L 434 341 
L 1850 1753 
Q 2319 2222 2519 2614 
Q 2719 3006 2719 3438 
Q 2719 3909 2473 4175 
Q 2228 4441 1797 4441 
Q 1350 4441 1106 4219 
Q 863 3997 819 3553 
z
" transform="scale(0.015625)"/>
       </defs>
       <use xlink:href="#DejaVuSerif-2212"/>
       <use xlink:href="#DejaVuSerif-30" transform="translate(83.789062 0)"/>
       <use xlink:href="#DejaVuSerif-2e" transform="translate(147.412109 0)"/>
       <use xlink:href="#DejaVuSerif-32" transform="translate(179.199219 0)"/>
      </g>
     </g>
    </g>
   </g>
   <g id="line2d_8">
    <path d="M 108.647167 194.561274 
L 132.166167 194.561274 
L 132.166167 153.554269 
L 108.647167 153.554269 
L 108.647167 194.561274 
" clip-path="url(#pbbc71a54ad)" style="fill: none; stroke: #000000; stroke-linecap: square"/>
   </g>
   <g id="line2d_9">
    <path d="M 120.406667 194.561274 
L 120.406667 245.275677 
" clip-path="url(#pbbc71a54ad)" style="fill: none; stroke: #000000; stroke-linecap: square"/>
   </g>
   <g id="line2d_10">
    <path d="M 120.406667 153.554269 
L 120.406667 112.744248 
" clip-path="url(#pbbc71a54ad)" style="fill: none; stroke: #000000; stroke-linecap: square"/>
   </g>
   <g id="line2d_11">
    <path d="M 114.526917 245.275677 
L 126.286417 245.275677 
" clip-path="url(#pbbc71a54ad)" style="fill: none; stroke: #000000; stroke-linecap: square"/>
   </g>
   <g id="line2d_12">
    <path d="M 114.526917 112.744248 
L 126.286417 112.744248 
" clip-path="url(#pbbc71a54ad)" style="fill: none; stroke: #000000; stroke-linecap: square"/>
   </g>
   <g id="line2d_13">
    <path d="M 187.043833 215.283512 
L 210.562833 215.283512 
L 210.562833 164.685891 
L 187.043833 164.685891 
L 187.043833 215.283512 
" clip-path="url(#pbbc71a54ad)" style="fill: none; stroke: #000000; stroke-linecap: square"/>
   </g>
   <g id="line2d_14">
    <path d="M 198.803333 215.283512 
L 198.803333 280.605363 
" clip-path="url(#pbbc71a54ad)" style="fill: none; stroke: #000000; stroke-linecap: square"/>
   </g>
   <g id="line2d_15">
    <path d="M 198.803333 164.685891 
L 198.803333 119.79781 
" clip-path="url(#pbbc71a54ad)" style="fill: none; stroke: #000000; stroke-linecap: square"/>
   </g>
   <g id="line2d_16">
    <path d="M 192.923583 280.605363 
L 204.683083 280.605363 
" clip-path="url(#pbbc71a54ad)" style="fill: none; stroke: #000000; stroke-linecap: square"/>
   </g>
   <g id="line2d_17">
    <path d="M 192.923583 119.79781 
L 204.683083 119.79781 
" clip-path="url(#pbbc71a54ad)" style="fill: none; stroke: #000000; stroke-linecap: square"/>
   </g>
   <g id="LineCollection_1">
    <path d="M 110.607083 167.962434 
L 130.20625 167.962434 
" clip-path="url(#pbbc71a54ad)" style="fill: none; stroke: #000000; stroke-width: 5"/>
    <path d="M 185.083917 191.212521 
L 212.52275 191.212521 
" clip-path="url(#pbbc71a54ad)" style="fill: none; stroke: #000000; stroke-width: 5"/>
   </g>
   <g id="line2d_18">
    <path d="M 116.486833 89.826279 
L 116.486833 83.751636 
L 194.8835 83.751636 
L 194.8835 89.826279 
" clip-path="url(#pbbc71a54ad)" style="fill: none; stroke: #000000; stroke-linecap: square"/>
   </g>
   <g id="patch_3">
    <path d="M 42.01 404.12 
L 42.01 68.496 
" style="fill: none; stroke: #000000; stroke-width: 0.8; stroke-linejoin: miter; stroke-linecap: square"/>
   </g>
   <g id="patch_4">
    <path d="M 277.2 404.12 
L 277.2 68.496 
" style="fill: none; stroke: #000000; stroke-width: 0.8; stroke-linejoin: miter; stroke-linecap: square"/>
   </g>
   <g id="patch_5">
    <path d="M 42.01 404.12 
L 277.2 404.12 
" style="fill: none; stroke: #000000; stroke-width: 0.8; stroke-linejoin: miter; stroke-linecap: square"/>
   </g>
   <g id="patch_6">
    <path d="M 42.01 68.496 
L 277.2 68.496 
" style="fill: none; stroke: #000000; stroke-width: 0.8; stroke-linejoin: miter; stroke-linecap: square"/>
   </g>
   <g id="text_8">
    <!-- ** -->
    <g transform="translate(150.685167 78.634628) scale(0.1 -0.1)">
     <defs>
      <path id="DejaVuSerif-2a" d="M 3097 3866 
L 1875 3297 
L 3097 2719 
L 2859 2350 
L 1772 3028 
L 1813 1838 
L 1388 1838 
L 1428 3028 
L 341 2350 
L 103 2719 
L 1325 3291 
L 103 3866 
L 341 4238 
L 1428 3559 
L 1388 4750 
L 1813 4750 
L 1772 3559 
L 2859 4238 
L 3097 3866 
z
" transform="scale(0.015625)"/>
     </defs>
     <use xlink:href="#DejaVuSerif-2a"/>
     <use xlink:href="#DejaVuSerif-2a" transform="translate(50 0)"/>
    </g>
   </g>
   <g id="text_9">
    <!-- summed inburstiness -->
    <g transform="translate(94.644688 22.01325) scale(0.12 -0.12)">
     <defs>
      <path id="DejaVuSerif-64" d="M 3359 331 
L 3909 331 
L 3909 0 
L 2784 0 
L 2784 519 
Q 2616 206 2355 57 
Q 2094 -91 1709 -91 
Q 1097 -91 708 395 
Q 319 881 319 1663 
Q 319 2444 706 2928 
Q 1094 3413 1709 3413 
Q 2094 3413 2355 3264 
Q 2616 3116 2784 2803 
L 2784 4531 
L 2241 4531 
L 2241 4863 
L 3359 4863 
L 3359 331 
z
M 2784 1497 
L 2784 1825 
Q 2784 2422 2554 2737 
Q 2325 3053 1888 3053 
Q 1444 3053 1217 2703 
Q 991 2353 991 1663 
Q 991 975 1217 622 
Q 1444 269 1888 269 
Q 2325 269 2554 583 
Q 2784 897 2784 1497 
z
" transform="scale(0.015625)"/>
      <path id="DejaVuSerif-69" d="M 622 4353 
Q 622 4497 726 4603 
Q 831 4709 978 4709 
Q 1122 4709 1226 4603 
Q 1331 4497 1331 4353 
Q 1331 4206 1228 4103 
Q 1125 4000 978 4000 
Q 831 4000 726 4103 
Q 622 4206 622 4353 
z
M 1356 331 
L 1900 331 
L 1900 0 
L 231 0 
L 231 331 
L 781 331 
L 781 2988 
L 231 2988 
L 231 3322 
L 1356 3322 
L 1356 331 
z
" transform="scale(0.015625)"/>
     </defs>
     <use xlink:href="#DejaVuSerif-73"/>
     <use xlink:href="#DejaVuSerif-75" transform="translate(51.318359 0)"/>
     <use xlink:href="#DejaVuSerif-6d" transform="translate(115.722656 0)"/>
     <use xlink:href="#DejaVuSerif-6d" transform="translate(210.546875 0)"/>
     <use xlink:href="#DejaVuSerif-65" transform="translate(305.371094 0)"/>
     <use xlink:href="#DejaVuSerif-64" transform="translate(364.550781 0)"/>
     <use xlink:href="#DejaVuSerif-20" transform="translate(428.564453 0)"/>
     <use xlink:href="#DejaVuSerif-69" transform="translate(460.351562 0)"/>
     <use xlink:href="#DejaVuSerif-6e" transform="translate(492.333984 0)"/>
     <use xlink:href="#DejaVuSerif-62" transform="translate(556.738281 0)"/>
     <use xlink:href="#DejaVuSerif-75" transform="translate(620.751953 0)"/>
     <use xlink:href="#DejaVuSerif-72" transform="translate(685.15625 0)"/>
     <use xlink:href="#DejaVuSerif-73" transform="translate(732.958984 0)"/>
     <use xlink:href="#DejaVuSerif-74" transform="translate(784.277344 0)"/>
     <use xlink:href="#DejaVuSerif-69" transform="translate(824.462891 0)"/>
     <use xlink:href="#DejaVuSerif-6e" transform="translate(856.445312 0)"/>
     <use xlink:href="#DejaVuSerif-65" transform="translate(920.849609 0)"/>
     <use xlink:href="#DejaVuSerif-73" transform="translate(980.029297 0)"/>
     <use xlink:href="#DejaVuSerif-73" transform="translate(1031.347656 0)"/>
    </g>
    <!--  mnn = 7 thresh = 0, summation = mean -->
    <g transform="translate(34.371875 35.450625) scale(0.12 -0.12)">
     <defs>
      <path id="DejaVuSerif-3d" d="M 678 2894 
L 4684 2894 
L 4684 2394 
L 678 2394 
L 678 2894 
z
M 678 1619 
L 4684 1619 
L 4684 1119 
L 678 1119 
L 678 1619 
z
" transform="scale(0.015625)"/>
      <path id="DejaVuSerif-37" d="M 3609 4347 
L 1784 0 
L 1319 0 
L 3059 4153 
L 903 4153 
L 903 3578 
L 538 3578 
L 538 4666 
L 3609 4666 
L 3609 4347 
z
" transform="scale(0.015625)"/>
      <path id="DejaVuSerif-68" d="M 263 0 
L 263 331 
L 781 331 
L 781 4531 
L 231 4531 
L 231 4863 
L 1356 4863 
L 1356 2731 
Q 1516 3069 1770 3241 
Q 2025 3413 2363 3413 
Q 2913 3413 3172 3097 
Q 3431 2781 3431 2113 
L 3431 331 
L 3944 331 
L 3944 0 
L 2356 0 
L 2356 331 
L 2853 331 
L 2853 1931 
Q 2853 2541 2704 2764 
Q 2556 2988 2175 2988 
Q 1775 2988 1565 2697 
Q 1356 2406 1356 1850 
L 1356 331 
L 1856 331 
L 1856 0 
L 263 0 
z
" transform="scale(0.015625)"/>
      <path id="DejaVuSerif-2c" d="M 231 -622 
Q 525 -406 662 -114 
Q 800 178 800 594 
L 800 709 
L 1416 709 
Q 1391 175 1164 -208 
Q 938 -591 481 -872 
L 231 -622 
z
" transform="scale(0.015625)"/>
     </defs>
     <use xlink:href="#DejaVuSerif-20"/>
     <use xlink:href="#DejaVuSerif-6d" transform="translate(31.787109 0)"/>
     <use xlink:href="#DejaVuSerif-6e" transform="translate(126.611328 0)"/>
     <use xlink:href="#DejaVuSerif-6e" transform="translate(191.015625 0)"/>
     <use xlink:href="#DejaVuSerif-20" transform="translate(255.419922 0)"/>
     <use xlink:href="#DejaVuSerif-3d" transform="translate(287.207031 0)"/>
     <use xlink:href="#DejaVuSerif-20" transform="translate(370.996094 0)"/>
     <use xlink:href="#DejaVuSerif-37" transform="translate(402.783203 0)"/>
     <use xlink:href="#DejaVuSerif-20" transform="translate(466.40625 0)"/>
     <use xlink:href="#DejaVuSerif-74" transform="translate(498.193359 0)"/>
     <use xlink:href="#DejaVuSerif-68" transform="translate(538.378906 0)"/>
     <use xlink:href="#DejaVuSerif-72" transform="translate(602.783203 0)"/>
     <use xlink:href="#DejaVuSerif-65" transform="translate(650.585938 0)"/>
     <use xlink:href="#DejaVuSerif-73" transform="translate(709.765625 0)"/>
     <use xlink:href="#DejaVuSerif-68" transform="translate(761.083984 0)"/>
     <use xlink:href="#DejaVuSerif-20" transform="translate(825.488281 0)"/>
     <use xlink:href="#DejaVuSerif-3d" transform="translate(857.275391 0)"/>
     <use xlink:href="#DejaVuSerif-20" transform="translate(941.064453 0)"/>
     <use xlink:href="#DejaVuSerif-30" transform="translate(972.851562 0)"/>
     <use xlink:href="#DejaVuSerif-2c" transform="translate(1036.474609 0)"/>
     <use xlink:href="#DejaVuSerif-20" transform="translate(1068.261719 0)"/>
     <use xlink:href="#DejaVuSerif-73" transform="translate(1100.048828 0)"/>
     <use xlink:href="#DejaVuSerif-75" transform="translate(1151.367188 0)"/>
     <use xlink:href="#DejaVuSerif-6d" transform="translate(1215.771484 0)"/>
     <use xlink:href="#DejaVuSerif-6d" transform="translate(1310.595703 0)"/>
     <use xlink:href="#DejaVuSerif-61" transform="translate(1405.419922 0)"/>
     <use xlink:href="#DejaVuSerif-74" transform="translate(1465.039062 0)"/>
     <use xlink:href="#DejaVuSerif-69" transform="translate(1505.224609 0)"/>
     <use xlink:href="#DejaVuSerif-6f" transform="translate(1537.207031 0)"/>
     <use xlink:href="#DejaVuSerif-6e" transform="translate(1597.412109 0)"/>
     <use xlink:href="#DejaVuSerif-20" transform="translate(1661.816406 0)"/>
     <use xlink:href="#DejaVuSerif-3d" transform="translate(1693.603516 0)"/>
     <use xlink:href="#DejaVuSerif-20" transform="translate(1777.392578 0)"/>
     <use xlink:href="#DejaVuSerif-6d" transform="translate(1809.179688 0)"/>
     <use xlink:href="#DejaVuSerif-65" transform="translate(1904.003906 0)"/>
     <use xlink:href="#DejaVuSerif-61" transform="translate(1963.183594 0)"/>
     <use xlink:href="#DejaVuSerif-6e" transform="translate(2022.802734 0)"/>
    </g>
    <!--  norm. = CV logscale = False -->
    <g transform="translate(70.499375 48.888) scale(0.12 -0.12)">
     <defs>
      <path id="DejaVuSerif-43" d="M 4513 1234 
Q 4306 581 3820 245 
Q 3334 -91 2591 -91 
Q 2134 -91 1743 65 
Q 1353 222 1050 525 
Q 700 875 529 1320 
Q 359 1766 359 2328 
Q 359 3416 987 4083 
Q 1616 4750 2644 4750 
Q 3025 4750 3456 4650 
Q 3888 4550 4384 4347 
L 4384 3272 
L 4031 3272 
Q 3916 3859 3567 4137 
Q 3219 4416 2591 4416 
Q 1844 4416 1459 3886 
Q 1075 3356 1075 2328 
Q 1075 1303 1459 773 
Q 1844 244 2591 244 
Q 3113 244 3450 492 
Q 3788 741 3938 1234 
L 4513 1234 
z
" transform="scale(0.015625)"/>
      <path id="DejaVuSerif-56" d="M 1119 4331 
L 2497 750 
L 3872 4331 
L 3347 4331 
L 3347 4666 
L 4716 4666 
L 4716 4331 
L 4263 4331 
L 2597 0 
L 2059 0 
L 403 4331 
L -63 4331 
L -63 4666 
L 1638 4666 
L 1638 4331 
L 1119 4331 
z
" transform="scale(0.015625)"/>
      <path id="DejaVuSerif-6c" d="M 1313 331 
L 1856 331 
L 1856 0 
L 184 0 
L 184 331 
L 738 331 
L 738 4531 
L 184 4531 
L 184 4863 
L 1313 4863 
L 1313 331 
z
" transform="scale(0.015625)"/>
      <path id="DejaVuSerif-67" d="M 3359 2988 
L 3359 72 
Q 3359 -644 2965 -1033 
Q 2572 -1422 1844 -1422 
Q 1516 -1422 1216 -1362 
Q 916 -1303 641 -1184 
L 641 -488 
L 941 -488 
Q 997 -813 1206 -963 
Q 1416 -1113 1806 -1113 
Q 2313 -1113 2548 -827 
Q 2784 -541 2784 72 
L 2784 519 
Q 2616 206 2355 57 
Q 2094 -91 1709 -91 
Q 1097 -91 708 395 
Q 319 881 319 1663 
Q 319 2444 706 2928 
Q 1094 3413 1709 3413 
Q 2094 3413 2355 3264 
Q 2616 3116 2784 2803 
L 2784 3322 
L 3909 3322 
L 3909 2988 
L 3359 2988 
z
M 2784 1825 
Q 2784 2422 2554 2737 
Q 2325 3053 1888 3053 
Q 1444 3053 1217 2703 
Q 991 2353 991 1663 
Q 991 975 1217 622 
Q 1444 269 1888 269 
Q 2325 269 2554 583 
Q 2784 897 2784 1497 
L 2784 1825 
z
" transform="scale(0.015625)"/>
      <path id="DejaVuSerif-63" d="M 3291 997 
Q 3169 466 2822 187 
Q 2475 -91 1925 -91 
Q 1200 -91 759 389 
Q 319 869 319 1663 
Q 319 2459 759 2936 
Q 1200 3413 1925 3413 
Q 2241 3413 2553 3339 
Q 2866 3266 3181 3116 
L 3181 2266 
L 2847 2266 
Q 2781 2703 2561 2903 
Q 2341 3103 1931 3103 
Q 1466 3103 1228 2742 
Q 991 2381 991 1663 
Q 991 944 1227 581 
Q 1463 219 1931 219 
Q 2303 219 2525 412 
Q 2747 606 2828 997 
L 3291 997 
z
" transform="scale(0.015625)"/>
      <path id="DejaVuSerif-46" d="M 353 0 
L 353 331 
L 947 331 
L 947 4331 
L 353 4331 
L 353 4666 
L 4172 4666 
L 4172 3628 
L 3788 3628 
L 3788 4281 
L 1581 4281 
L 1581 2719 
L 3175 2719 
L 3175 3303 
L 3559 3303 
L 3559 1753 
L 3175 1753 
L 3175 2338 
L 1581 2338 
L 1581 331 
L 2328 331 
L 2328 0 
L 353 0 
z
" transform="scale(0.015625)"/>
     </defs>
     <use xlink:href="#DejaVuSerif-20"/>
     <use xlink:href="#DejaVuSerif-6e" transform="translate(31.787109 0)"/>
     <use xlink:href="#DejaVuSerif-6f" transform="translate(96.191406 0)"/>
     <use xlink:href="#DejaVuSerif-72" transform="translate(156.396484 0)"/>
     <use xlink:href="#DejaVuSerif-6d" transform="translate(204.199219 0)"/>
     <use xlink:href="#DejaVuSerif-2e" transform="translate(299.023438 0)"/>
     <use xlink:href="#DejaVuSerif-20" transform="translate(330.810547 0)"/>
     <use xlink:href="#DejaVuSerif-3d" transform="translate(362.597656 0)"/>
     <use xlink:href="#DejaVuSerif-20" transform="translate(446.386719 0)"/>
     <use xlink:href="#DejaVuSerif-43" transform="translate(478.173828 0)"/>
     <use xlink:href="#DejaVuSerif-56" transform="translate(554.6875 0)"/>
     <use xlink:href="#DejaVuSerif-20" transform="translate(626.904297 0)"/>
     <use xlink:href="#DejaVuSerif-6c" transform="translate(658.691406 0)"/>
     <use xlink:href="#DejaVuSerif-6f" transform="translate(690.673828 0)"/>
     <use xlink:href="#DejaVuSerif-67" transform="translate(750.878906 0)"/>
     <use xlink:href="#DejaVuSerif-73" transform="translate(814.892578 0)"/>
     <use xlink:href="#DejaVuSerif-63" transform="translate(866.210938 0)"/>
     <use xlink:href="#DejaVuSerif-61" transform="translate(922.216797 0)"/>
     <use xlink:href="#DejaVuSerif-6c" transform="translate(981.835938 0)"/>
     <use xlink:href="#DejaVuSerif-65" transform="translate(1013.818359 0)"/>
     <use xlink:href="#DejaVuSerif-20" transform="translate(1072.998047 0)"/>
     <use xlink:href="#DejaVuSerif-3d" transform="translate(1104.785156 0)"/>
     <use xlink:href="#DejaVuSerif-20" transform="translate(1188.574219 0)"/>
     <use xlink:href="#DejaVuSerif-46" transform="translate(1220.361328 0)"/>
     <use xlink:href="#DejaVuSerif-61" transform="translate(1282.996094 0)"/>
     <use xlink:href="#DejaVuSerif-6c" transform="translate(1342.615234 0)"/>
     <use xlink:href="#DejaVuSerif-73" transform="translate(1374.597656 0)"/>
     <use xlink:href="#DejaVuSerif-65" transform="translate(1425.916016 0)"/>
    </g>
    <!--  permutation test on the median. -->
    <g transform="translate(59.355313 62.496) scale(0.12 -0.12)">
     <defs>
      <path id="DejaVuSerif-70" d="M 1313 1825 
L 1313 1497 
Q 1313 897 1542 583 
Q 1772 269 2209 269 
Q 2650 269 2876 622 
Q 3103 975 3103 1663 
Q 3103 2353 2876 2703 
Q 2650 3053 2209 3053 
Q 1772 3053 1542 2737 
Q 1313 2422 1313 1825 
z
M 738 2988 
L 184 2988 
L 184 3322 
L 1313 3322 
L 1313 2803 
Q 1481 3116 1742 3264 
Q 2003 3413 2388 3413 
Q 3000 3413 3387 2928 
Q 3775 2444 3775 1663 
Q 3775 881 3387 395 
Q 3000 -91 2388 -91 
Q 2003 -91 1742 57 
Q 1481 206 1313 519 
L 1313 -997 
L 1856 -997 
L 1856 -1331 
L 184 -1331 
L 184 -997 
L 738 -997 
L 738 2988 
z
" transform="scale(0.015625)"/>
     </defs>
     <use xlink:href="#DejaVuSerif-20"/>
     <use xlink:href="#DejaVuSerif-70" transform="translate(31.787109 0)"/>
     <use xlink:href="#DejaVuSerif-65" transform="translate(95.800781 0)"/>
     <use xlink:href="#DejaVuSerif-72" transform="translate(154.980469 0)"/>
     <use xlink:href="#DejaVuSerif-6d" transform="translate(202.783203 0)"/>
     <use xlink:href="#DejaVuSerif-75" transform="translate(297.607422 0)"/>
     <use xlink:href="#DejaVuSerif-74" transform="translate(362.011719 0)"/>
     <use xlink:href="#DejaVuSerif-61" transform="translate(402.197266 0)"/>
     <use xlink:href="#DejaVuSerif-74" transform="translate(461.816406 0)"/>
     <use xlink:href="#DejaVuSerif-69" transform="translate(502.001953 0)"/>
     <use xlink:href="#DejaVuSerif-6f" transform="translate(533.984375 0)"/>
     <use xlink:href="#DejaVuSerif-6e" transform="translate(594.189453 0)"/>
     <use xlink:href="#DejaVuSerif-20" transform="translate(658.59375 0)"/>
     <use xlink:href="#DejaVuSerif-74" transform="translate(690.380859 0)"/>
     <use xlink:href="#DejaVuSerif-65" transform="translate(730.566406 0)"/>
     <use xlink:href="#DejaVuSerif-73" transform="translate(789.746094 0)"/>
     <use xlink:href="#DejaVuSerif-74" transform="translate(841.064453 0)"/>
     <use xlink:href="#DejaVuSerif-20" transform="translate(881.25 0)"/>
     <use xlink:href="#DejaVuSerif-6f" transform="translate(913.037109 0)"/>
     <use xlink:href="#DejaVuSerif-6e" transform="translate(973.242188 0)"/>
     <use xlink:href="#DejaVuSerif-20" transform="translate(1037.646484 0)"/>
     <use xlink:href="#DejaVuSerif-74" transform="translate(1069.433594 0)"/>
     <use xlink:href="#DejaVuSerif-68" transform="translate(1109.619141 0)"/>
     <use xlink:href="#DejaVuSerif-65" transform="translate(1174.023438 0)"/>
     <use xlink:href="#DejaVuSerif-20" transform="translate(1233.203125 0)"/>
     <use xlink:href="#DejaVuSerif-6d" transform="translate(1264.990234 0)"/>
     <use xlink:href="#DejaVuSerif-65" transform="translate(1359.814453 0)"/>
     <use xlink:href="#DejaVuSerif-64" transform="translate(1418.994141 0)"/>
     <use xlink:href="#DejaVuSerif-69" transform="translate(1483.007812 0)"/>
     <use xlink:href="#DejaVuSerif-61" transform="translate(1514.990234 0)"/>
     <use xlink:href="#DejaVuSerif-6e" transform="translate(1574.609375 0)"/>
     <use xlink:href="#DejaVuSerif-2e" transform="translate(1639.013672 0)"/>
    </g>
   </g>
  </g>
 </g>
 <defs>
  <clipPath id="pbbc71a54ad">
   <rect x="42.01" y="68.496" width="235.19" height="335.624"/>
  </clipPath>
 </defs>
</svg>
