<?xml version="1.0" encoding="utf-8" standalone="no"?>
<!DOCTYPE svg PUBLIC "-//W3C//DTD SVG 1.1//EN"
  "http://www.w3.org/Graphics/SVG/1.1/DTD/svg11.dtd">
<svg xmlns:xlink="http://www.w3.org/1999/xlink" width="288pt" height="339.12pt" viewBox="0 0 288 339.12" xmlns="http://www.w3.org/2000/svg" version="1.1">
 <metadata>
  <rdf:RDF xmlns:dc="http://purl.org/dc/elements/1.1/" xmlns:cc="http://creativecommons.org/ns#" xmlns:rdf="http://www.w3.org/1999/02/22-rdf-syntax-ns#">
   <cc:Work>
    <dc:type rdf:resource="http://purl.org/dc/dcmitype/StillImage"/>
    <dc:date>2025-08-18T11:33:55.527288</dc:date>
    <dc:format>image/svg+xml</dc:format>
    <dc:creator>
     <cc:Agent>
      <dc:title>Matplotlib v3.10.0, https://matplotlib.org/</dc:title>
     </cc:Agent>
    </dc:creator>
   </cc:Work>
  </rdf:RDF>
 </metadata>
 <defs>
  <style type="text/css">*{stroke-linejoin: round; stroke-linecap: butt}</style>
 </defs>
 <g id="figure_1">
  <g id="patch_1">
   <path d="M 0 339.12 
L 288 339.12 
L 288 0 
L 0 0 
z
" style="fill: #ffffff"/>
  </g>
  <g id="axes_1">
   <g id="patch_2">
    <path d="M 33.64 317.2342 
L 277.2 317.2342 
L 277.2 53.76936 
L 33.64 53.76936 
z
" style="fill: #ffffff"/>
   </g>
   <g id="PathCollection_1">
    <defs>
     <path id="C0_0_1f96e1c248" d="M 0 3.872983 
C 1.027127 3.872983 2.012324 3.464901 2.738613 2.738613 
C 3.464901 2.012324 3.872983 1.027127 3.872983 -0 
C 3.872983 -1.027127 3.464901 -2.012324 2.738613 -2.738613 
C 2.012324 -3.464901 1.027127 -3.872983 0 -3.872983 
C -1.027127 -3.872983 -2.012324 -3.464901 -2.738613 -2.738613 
C -3.464901 -2.012324 -3.872983 -1.027127 -3.872983 0 
C -3.872983 1.027127 -3.464901 2.012324 -2.738613 2.738613 
C -2.012324 3.464901 -1.027127 3.872983 0 3.872983 
z
"/>
    </defs>
    <g clip-path="url(#p61239812cb)">
     <use xlink:href="#C0_0_1f96e1c248" x="180.804773" y="252.254051" style="fill: #ff0000; fill-opacity: 0.4"/>
    </g>
    <g clip-path="url(#p61239812cb)">
     <use xlink:href="#C0_0_1f96e1c248" x="187.294982" y="275.558784" style="fill: #ff0000; fill-opacity: 0.4"/>
    </g>
    <g clip-path="url(#p61239812cb)">
     <use xlink:href="#C0_0_1f96e1c248" x="190.931981" y="228.040019" style="fill: #ff0000; fill-opacity: 0.4"/>
    </g>
    <g clip-path="url(#p61239812cb)">
     <use xlink:href="#C0_0_1f96e1c248" x="190.862116" y="162.682375" style="fill: #ff0000; fill-opacity: 0.4"/>
    </g>
    <g clip-path="url(#p61239812cb)">
     <use xlink:href="#C0_0_1f96e1c248" x="192.795692" y="262.000865" style="fill: #ff0000; fill-opacity: 0.4"/>
    </g>
    <g clip-path="url(#p61239812cb)">
     <use xlink:href="#C0_0_1f96e1c248" x="189.152055" y="253.270845" style="fill: #ff0000; fill-opacity: 0.4"/>
    </g>
    <g clip-path="url(#p61239812cb)">
     <use xlink:href="#C0_0_1f96e1c248" x="198.268861" y="225.05785" style="fill: #ff0000; fill-opacity: 0.4"/>
    </g>
    <g clip-path="url(#p61239812cb)">
     <use xlink:href="#C0_0_1f96e1c248" x="194.279052" y="261.595898" style="fill: #ff0000; fill-opacity: 0.4"/>
    </g>
    <g clip-path="url(#p61239812cb)">
     <use xlink:href="#C0_0_1f96e1c248" x="191.095607" y="296.956265" style="fill: #ff0000; fill-opacity: 0.4"/>
    </g>
    <g clip-path="url(#p61239812cb)">
     <use xlink:href="#C0_0_1f96e1c248" x="184.523573" y="206.586188" style="fill: #ff0000; fill-opacity: 0.4"/>
    </g>
    <g clip-path="url(#p61239812cb)">
     <use xlink:href="#C0_0_1f96e1c248" x="195.291856" y="189.496466" style="fill: #ff0000; fill-opacity: 0.4"/>
    </g>
    <g clip-path="url(#p61239812cb)">
     <use xlink:href="#C0_0_1f96e1c248" x="201.186042" y="225.186823" style="fill: #ff0000; fill-opacity: 0.4"/>
    </g>
    <g clip-path="url(#p61239812cb)">
     <use xlink:href="#C0_0_1f96e1c248" x="190.507277" y="207.297513" style="fill: #ff0000; fill-opacity: 0.4"/>
    </g>
    <g clip-path="url(#p61239812cb)">
     <use xlink:href="#C0_0_1f96e1c248" x="192.151419" y="270.920586" style="fill: #ff0000; fill-opacity: 0.4"/>
    </g>
    <g clip-path="url(#p61239812cb)">
     <use xlink:href="#C0_0_1f96e1c248" x="198.34447" y="305.258525" style="fill: #ff0000; fill-opacity: 0.4"/>
    </g>
    <g clip-path="url(#p61239812cb)">
     <use xlink:href="#C0_0_1f96e1c248" x="189.883252" y="241.821625" style="fill: #ff0000; fill-opacity: 0.4"/>
    </g>
    <g clip-path="url(#p61239812cb)">
     <use xlink:href="#C0_0_1f96e1c248" x="203.016665" y="273.888981" style="fill: #ff0000; fill-opacity: 0.4"/>
    </g>
    <g clip-path="url(#p61239812cb)">
     <use xlink:href="#C0_0_1f96e1c248" x="199.045922" y="215.984236" style="fill: #ff0000; fill-opacity: 0.4"/>
    </g>
    <g clip-path="url(#p61239812cb)">
     <use xlink:href="#C0_0_1f96e1c248" x="192.094739" y="254.823439" style="fill: #ff0000; fill-opacity: 0.4"/>
    </g>
    <g clip-path="url(#p61239812cb)">
     <use xlink:href="#C0_0_1f96e1c248" x="205.915066" y="261.775513" style="fill: #ff0000; fill-opacity: 0.4"/>
    </g>
    <g clip-path="url(#p61239812cb)">
     <use xlink:href="#C0_0_1f96e1c248" x="201.145107" y="252.23268" style="fill: #ff0000; fill-opacity: 0.4"/>
    </g>
    <g clip-path="url(#p61239812cb)">
     <use xlink:href="#C0_0_1f96e1c248" x="195.256975" y="149.838873" style="fill: #ff0000; fill-opacity: 0.4"/>
    </g>
    <g clip-path="url(#p61239812cb)">
     <use xlink:href="#C0_0_1f96e1c248" x="192.535011" y="157.878701" style="fill: #ff0000; fill-opacity: 0.4"/>
    </g>
    <g clip-path="url(#p61239812cb)">
     <use xlink:href="#C0_0_1f96e1c248" x="189.610469" y="171.388221" style="fill: #ff0000; fill-opacity: 0.4"/>
    </g>
    <g clip-path="url(#p61239812cb)">
     <use xlink:href="#C0_0_1f96e1c248" x="197.160334" y="116.434066" style="fill: #ff0000; fill-opacity: 0.4"/>
    </g>
    <g clip-path="url(#p61239812cb)">
     <use xlink:href="#C0_0_1f96e1c248" x="197.059233" y="157.016595" style="fill: #ff0000; fill-opacity: 0.4"/>
    </g>
    <g clip-path="url(#p61239812cb)">
     <use xlink:href="#C0_0_1f96e1c248" x="203.788445" y="152.480064" style="fill: #ff0000; fill-opacity: 0.4"/>
    </g>
    <g clip-path="url(#p61239812cb)">
     <use xlink:href="#C0_0_1f96e1c248" x="200.209451" y="210.928875" style="fill: #ff0000; fill-opacity: 0.4"/>
    </g>
    <g clip-path="url(#p61239812cb)">
     <use xlink:href="#C0_0_1f96e1c248" x="189.814914" y="180.524089" style="fill: #ff0000; fill-opacity: 0.4"/>
    </g>
    <g clip-path="url(#p61239812cb)">
     <use xlink:href="#C0_0_1f96e1c248" x="196.663015" y="177.534493" style="fill: #ff0000; fill-opacity: 0.4"/>
    </g>
    <g clip-path="url(#p61239812cb)">
     <use xlink:href="#C0_0_1f96e1c248" x="194.768452" y="137.628309" style="fill: #ff0000; fill-opacity: 0.4"/>
    </g>
    <g clip-path="url(#p61239812cb)">
     <use xlink:href="#C0_0_1f96e1c248" x="197.728294" y="184.973234" style="fill: #ff0000; fill-opacity: 0.4"/>
    </g>
    <g clip-path="url(#p61239812cb)">
     <use xlink:href="#C0_0_1f96e1c248" x="196.540296" y="195.527257" style="fill: #ff0000; fill-opacity: 0.4"/>
    </g>
    <g clip-path="url(#p61239812cb)">
     <use xlink:href="#C0_0_1f96e1c248" x="187.974705" y="234.435412" style="fill: #ff0000; fill-opacity: 0.4"/>
    </g>
    <g clip-path="url(#p61239812cb)">
     <use xlink:href="#C0_0_1f96e1c248" x="197.970176" y="245.768164" style="fill: #ff0000; fill-opacity: 0.4"/>
    </g>
    <g clip-path="url(#p61239812cb)">
     <use xlink:href="#C0_0_1f96e1c248" x="203.064959" y="242.680551" style="fill: #ff0000; fill-opacity: 0.4"/>
    </g>
    <g clip-path="url(#p61239812cb)">
     <use xlink:href="#C0_0_1f96e1c248" x="198.427257" y="232.834246" style="fill: #ff0000; fill-opacity: 0.4"/>
    </g>
    <g clip-path="url(#p61239812cb)">
     <use xlink:href="#C0_0_1f96e1c248" x="202.159689" y="179.197979" style="fill: #ff0000; fill-opacity: 0.4"/>
    </g>
    <g clip-path="url(#p61239812cb)">
     <use xlink:href="#C0_0_1f96e1c248" x="202.602319" y="207.747275" style="fill: #ff0000; fill-opacity: 0.4"/>
    </g>
    <g clip-path="url(#p61239812cb)">
     <use xlink:href="#C0_0_1f96e1c248" x="208.339847" y="210.377787" style="fill: #ff0000; fill-opacity: 0.4"/>
    </g>
    <g clip-path="url(#p61239812cb)">
     <use xlink:href="#C0_0_1f96e1c248" x="199.183791" y="166.432985" style="fill: #ff0000; fill-opacity: 0.4"/>
    </g>
    <g clip-path="url(#p61239812cb)">
     <use xlink:href="#C0_0_1f96e1c248" x="205.264356" y="254.945601" style="fill: #ff0000; fill-opacity: 0.4"/>
    </g>
    <g clip-path="url(#p61239812cb)">
     <use xlink:href="#C0_0_1f96e1c248" x="201.827347" y="240.660945" style="fill: #ff0000; fill-opacity: 0.4"/>
    </g>
    <g clip-path="url(#p61239812cb)">
     <use xlink:href="#C0_0_1f96e1c248" x="209.505668" y="252.537188" style="fill: #ff0000; fill-opacity: 0.4"/>
    </g>
   </g>
   <g id="PathCollection_2">
    <defs>
     <path id="C1_0_af55d0857a" d="M 0 3.872983 
C 1.027127 3.872983 2.012324 3.464901 2.738613 2.738613 
C 3.464901 2.012324 3.872983 1.027127 3.872983 -0 
C 3.872983 -1.027127 3.464901 -2.012324 2.738613 -2.738613 
C 2.012324 -3.464901 1.027127 -3.872983 0 -3.872983 
C -1.027127 -3.872983 -2.012324 -3.464901 -2.738613 -2.738613 
C -3.464901 -2.012324 -3.872983 -1.027127 -3.872983 0 
C -3.872983 1.027127 -3.464901 2.012324 -2.738613 2.738613 
C -2.012324 3.464901 -1.027127 3.872983 0 3.872983 
z
"/>
    </defs>
    <g clip-path="url(#p61239812cb)">
     <use xlink:href="#C1_0_af55d0857a" x="99.1624" y="266.054627" style="fill: #808080; fill-opacity: 0.4"/>
    </g>
    <g clip-path="url(#p61239812cb)">
     <use xlink:href="#C1_0_af55d0857a" x="97.286311" y="233.27766" style="fill: #808080; fill-opacity: 0.4"/>
    </g>
    <g clip-path="url(#p61239812cb)">
     <use xlink:href="#C1_0_af55d0857a" x="96.759329" y="279.68224" style="fill: #808080; fill-opacity: 0.4"/>
    </g>
    <g clip-path="url(#p61239812cb)">
     <use xlink:href="#C1_0_af55d0857a" x="98.869815" y="250.463506" style="fill: #808080; fill-opacity: 0.4"/>
    </g>
    <g clip-path="url(#p61239812cb)">
     <use xlink:href="#C1_0_af55d0857a" x="108.644983" y="271.012346" style="fill: #808080; fill-opacity: 0.4"/>
    </g>
    <g clip-path="url(#p61239812cb)">
     <use xlink:href="#C1_0_af55d0857a" x="103.555699" y="260.448761" style="fill: #808080; fill-opacity: 0.4"/>
    </g>
    <g clip-path="url(#p61239812cb)">
     <use xlink:href="#C1_0_af55d0857a" x="108.423247" y="258.197797" style="fill: #808080; fill-opacity: 0.4"/>
    </g>
    <g clip-path="url(#p61239812cb)">
     <use xlink:href="#C1_0_af55d0857a" x="103.359918" y="219.155216" style="fill: #808080; fill-opacity: 0.4"/>
    </g>
    <g clip-path="url(#p61239812cb)">
     <use xlink:href="#C1_0_af55d0857a" x="115.82276" y="268.97589" style="fill: #808080; fill-opacity: 0.4"/>
    </g>
    <g clip-path="url(#p61239812cb)">
     <use xlink:href="#C1_0_af55d0857a" x="110.378871" y="163.45457" style="fill: #808080; fill-opacity: 0.4"/>
    </g>
    <g clip-path="url(#p61239812cb)">
     <use xlink:href="#C1_0_af55d0857a" x="102.007862" y="283.585019" style="fill: #808080; fill-opacity: 0.4"/>
    </g>
    <g clip-path="url(#p61239812cb)">
     <use xlink:href="#C1_0_af55d0857a" x="102.652167" y="249.169036" style="fill: #808080; fill-opacity: 0.4"/>
    </g>
    <g clip-path="url(#p61239812cb)">
     <use xlink:href="#C1_0_af55d0857a" x="89.897543" y="240.656499" style="fill: #808080; fill-opacity: 0.4"/>
    </g>
    <g clip-path="url(#p61239812cb)">
     <use xlink:href="#C1_0_af55d0857a" x="106.364597" y="280.087312" style="fill: #808080; fill-opacity: 0.4"/>
    </g>
    <g clip-path="url(#p61239812cb)">
     <use xlink:href="#C1_0_af55d0857a" x="108.858002" y="261.187165" style="fill: #808080; fill-opacity: 0.4"/>
    </g>
    <g clip-path="url(#p61239812cb)">
     <use xlink:href="#C1_0_af55d0857a" x="97.53601" y="245.471589" style="fill: #808080; fill-opacity: 0.4"/>
    </g>
    <g clip-path="url(#p61239812cb)">
     <use xlink:href="#C1_0_af55d0857a" x="100.903993" y="236.480582" style="fill: #808080; fill-opacity: 0.4"/>
    </g>
    <g clip-path="url(#p61239812cb)">
     <use xlink:href="#C1_0_af55d0857a" x="108.241974" y="253.765592" style="fill: #808080; fill-opacity: 0.4"/>
    </g>
    <g clip-path="url(#p61239812cb)">
     <use xlink:href="#C1_0_af55d0857a" x="108.043494" y="215.198772" style="fill: #808080; fill-opacity: 0.4"/>
    </g>
    <g clip-path="url(#p61239812cb)">
     <use xlink:href="#C1_0_af55d0857a" x="108.230559" y="231.286451" style="fill: #808080; fill-opacity: 0.4"/>
    </g>
    <g clip-path="url(#p61239812cb)">
     <use xlink:href="#C1_0_af55d0857a" x="99.333621" y="244.691102" style="fill: #808080; fill-opacity: 0.4"/>
    </g>
    <g clip-path="url(#p61239812cb)">
     <use xlink:href="#C1_0_af55d0857a" x="117.16417" y="258.388156" style="fill: #808080; fill-opacity: 0.4"/>
    </g>
    <g clip-path="url(#p61239812cb)">
     <use xlink:href="#C1_0_af55d0857a" x="107.906158" y="276.845575" style="fill: #808080; fill-opacity: 0.4"/>
    </g>
    <g clip-path="url(#p61239812cb)">
     <use xlink:href="#C1_0_af55d0857a" x="117.13309" y="284.084876" style="fill: #808080; fill-opacity: 0.4"/>
    </g>
    <g clip-path="url(#p61239812cb)">
     <use xlink:href="#C1_0_af55d0857a" x="119.985662" y="278.922152" style="fill: #808080; fill-opacity: 0.4"/>
    </g>
    <g clip-path="url(#p61239812cb)">
     <use xlink:href="#C1_0_af55d0857a" x="102.653117" y="289.947174" style="fill: #808080; fill-opacity: 0.4"/>
    </g>
    <g clip-path="url(#p61239812cb)">
     <use xlink:href="#C1_0_af55d0857a" x="114.193214" y="254.248685" style="fill: #808080; fill-opacity: 0.4"/>
    </g>
    <g clip-path="url(#p61239812cb)">
     <use xlink:href="#C1_0_af55d0857a" x="105.481932" y="241.631364" style="fill: #808080; fill-opacity: 0.4"/>
    </g>
    <g clip-path="url(#p61239812cb)">
     <use xlink:href="#C1_0_af55d0857a" x="112.078181" y="218.753671" style="fill: #808080; fill-opacity: 0.4"/>
    </g>
    <g clip-path="url(#p61239812cb)">
     <use xlink:href="#C1_0_af55d0857a" x="110.345205" y="127.951343" style="fill: #808080; fill-opacity: 0.4"/>
    </g>
    <g clip-path="url(#p61239812cb)">
     <use xlink:href="#C1_0_af55d0857a" x="114.977977" y="88.504235" style="fill: #808080; fill-opacity: 0.4"/>
    </g>
    <g clip-path="url(#p61239812cb)">
     <use xlink:href="#C1_0_af55d0857a" x="97.657085" y="211.714959" style="fill: #808080; fill-opacity: 0.4"/>
    </g>
    <g clip-path="url(#p61239812cb)">
     <use xlink:href="#C1_0_af55d0857a" x="115.088732" y="122.355866" style="fill: #808080; fill-opacity: 0.4"/>
    </g>
    <g clip-path="url(#p61239812cb)">
     <use xlink:href="#C1_0_af55d0857a" x="114.245266" y="164.366487" style="fill: #808080; fill-opacity: 0.4"/>
    </g>
    <g clip-path="url(#p61239812cb)">
     <use xlink:href="#C1_0_af55d0857a" x="103.88111" y="203.106966" style="fill: #808080; fill-opacity: 0.4"/>
    </g>
    <g clip-path="url(#p61239812cb)">
     <use xlink:href="#C1_0_af55d0857a" x="109.514159" y="244.511931" style="fill: #808080; fill-opacity: 0.4"/>
    </g>
    <g clip-path="url(#p61239812cb)">
     <use xlink:href="#C1_0_af55d0857a" x="111.804217" y="217.961606" style="fill: #808080; fill-opacity: 0.4"/>
    </g>
    <g clip-path="url(#p61239812cb)">
     <use xlink:href="#C1_0_af55d0857a" x="111.301293" y="225.446285" style="fill: #808080; fill-opacity: 0.4"/>
    </g>
    <g clip-path="url(#p61239812cb)">
     <use xlink:href="#C1_0_af55d0857a" x="120.758501" y="249.951613" style="fill: #808080; fill-opacity: 0.4"/>
    </g>
    <g clip-path="url(#p61239812cb)">
     <use xlink:href="#C1_0_af55d0857a" x="115.282958" y="239.620099" style="fill: #808080; fill-opacity: 0.4"/>
    </g>
    <g clip-path="url(#p61239812cb)">
     <use xlink:href="#C1_0_af55d0857a" x="126.089938" y="265.114529" style="fill: #808080; fill-opacity: 0.4"/>
    </g>
    <g clip-path="url(#p61239812cb)">
     <use xlink:href="#C1_0_af55d0857a" x="117.055042" y="274.56973" style="fill: #808080; fill-opacity: 0.4"/>
    </g>
    <g clip-path="url(#p61239812cb)">
     <use xlink:href="#C1_0_af55d0857a" x="107.717295" y="209.206023" style="fill: #808080; fill-opacity: 0.4"/>
    </g>
    <g clip-path="url(#p61239812cb)">
     <use xlink:href="#C1_0_af55d0857a" x="107.25937" y="285.24453" style="fill: #808080; fill-opacity: 0.4"/>
    </g>
    <g clip-path="url(#p61239812cb)">
     <use xlink:href="#C1_0_af55d0857a" x="113.215371" y="285.466794" style="fill: #808080; fill-opacity: 0.4"/>
    </g>
    <g clip-path="url(#p61239812cb)">
     <use xlink:href="#C1_0_af55d0857a" x="118.546748" y="293.39016" style="fill: #808080; fill-opacity: 0.4"/>
    </g>
    <g clip-path="url(#p61239812cb)">
     <use xlink:href="#C1_0_af55d0857a" x="124.535948" y="287.542335" style="fill: #808080; fill-opacity: 0.4"/>
    </g>
    <g clip-path="url(#p61239812cb)">
     <use xlink:href="#C1_0_af55d0857a" x="125.044087" y="284.808811" style="fill: #808080; fill-opacity: 0.4"/>
    </g>
    <g clip-path="url(#p61239812cb)">
     <use xlink:href="#C1_0_af55d0857a" x="121.25939" y="282.757706" style="fill: #808080; fill-opacity: 0.4"/>
    </g>
    <g clip-path="url(#p61239812cb)">
     <use xlink:href="#C1_0_af55d0857a" x="130.274599" y="276.953573" style="fill: #808080; fill-opacity: 0.4"/>
    </g>
    <g clip-path="url(#p61239812cb)">
     <use xlink:href="#C1_0_af55d0857a" x="135.089228" y="283.035635" style="fill: #808080; fill-opacity: 0.4"/>
    </g>
    <g clip-path="url(#p61239812cb)">
     <use xlink:href="#C1_0_af55d0857a" x="113.030505" y="230.223869" style="fill: #808080; fill-opacity: 0.4"/>
    </g>
    <g clip-path="url(#p61239812cb)">
     <use xlink:href="#C1_0_af55d0857a" x="121.802624" y="240.989081" style="fill: #808080; fill-opacity: 0.4"/>
    </g>
    <g clip-path="url(#p61239812cb)">
     <use xlink:href="#C1_0_af55d0857a" x="109.594169" y="199.963864" style="fill: #808080; fill-opacity: 0.4"/>
    </g>
    <g clip-path="url(#p61239812cb)">
     <use xlink:href="#C1_0_af55d0857a" x="127.94579" y="258.207012" style="fill: #808080; fill-opacity: 0.4"/>
    </g>
    <g clip-path="url(#p61239812cb)">
     <use xlink:href="#C1_0_af55d0857a" x="117.966778" y="154.311736" style="fill: #808080; fill-opacity: 0.4"/>
    </g>
    <g clip-path="url(#p61239812cb)">
     <use xlink:href="#C1_0_af55d0857a" x="118.92414" y="157.357965" style="fill: #808080; fill-opacity: 0.4"/>
    </g>
    <g clip-path="url(#p61239812cb)">
     <use xlink:href="#C1_0_af55d0857a" x="121.094637" y="251.432576" style="fill: #808080; fill-opacity: 0.4"/>
    </g>
    <g clip-path="url(#p61239812cb)">
     <use xlink:href="#C1_0_af55d0857a" x="108.139861" y="172.094852" style="fill: #808080; fill-opacity: 0.4"/>
    </g>
    <g clip-path="url(#p61239812cb)">
     <use xlink:href="#C1_0_af55d0857a" x="119.753601" y="196.78422" style="fill: #808080; fill-opacity: 0.4"/>
    </g>
    <g clip-path="url(#p61239812cb)">
     <use xlink:href="#C1_0_af55d0857a" x="112.197981" y="135.129184" style="fill: #808080; fill-opacity: 0.4"/>
    </g>
    <g clip-path="url(#p61239812cb)">
     <use xlink:href="#C1_0_af55d0857a" x="116.813302" y="172.142948" style="fill: #808080; fill-opacity: 0.4"/>
    </g>
    <g clip-path="url(#p61239812cb)">
     <use xlink:href="#C1_0_af55d0857a" x="120.302811" y="200.341128" style="fill: #808080; fill-opacity: 0.4"/>
    </g>
    <g clip-path="url(#p61239812cb)">
     <use xlink:href="#C1_0_af55d0857a" x="110.893163" y="177.770788" style="fill: #808080; fill-opacity: 0.4"/>
    </g>
    <g clip-path="url(#p61239812cb)">
     <use xlink:href="#C1_0_af55d0857a" x="113.835246" y="207.844242" style="fill: #808080; fill-opacity: 0.4"/>
    </g>
    <g clip-path="url(#p61239812cb)">
     <use xlink:href="#C1_0_af55d0857a" x="122.716446" y="213.146184" style="fill: #808080; fill-opacity: 0.4"/>
    </g>
    <g clip-path="url(#p61239812cb)">
     <use xlink:href="#C1_0_af55d0857a" x="119.26174" y="134.683254" style="fill: #808080; fill-opacity: 0.4"/>
    </g>
    <g clip-path="url(#p61239812cb)">
     <use xlink:href="#C1_0_af55d0857a" x="115.044428" y="112.797295" style="fill: #808080; fill-opacity: 0.4"/>
    </g>
    <g clip-path="url(#p61239812cb)">
     <use xlink:href="#C1_0_af55d0857a" x="112.101128" y="191.70701" style="fill: #808080; fill-opacity: 0.4"/>
    </g>
    <g clip-path="url(#p61239812cb)">
     <use xlink:href="#C1_0_af55d0857a" x="122.48692" y="173.172995" style="fill: #808080; fill-opacity: 0.4"/>
    </g>
    <g clip-path="url(#p61239812cb)">
     <use xlink:href="#C1_0_af55d0857a" x="117.710457" y="208.482889" style="fill: #808080; fill-opacity: 0.4"/>
    </g>
    <g clip-path="url(#p61239812cb)">
     <use xlink:href="#C1_0_af55d0857a" x="118.029962" y="230.660131" style="fill: #808080; fill-opacity: 0.4"/>
    </g>
    <g clip-path="url(#p61239812cb)">
     <use xlink:href="#C1_0_af55d0857a" x="124.197782" y="235.165214" style="fill: #808080; fill-opacity: 0.4"/>
    </g>
    <g clip-path="url(#p61239812cb)">
     <use xlink:href="#C1_0_af55d0857a" x="122.713566" y="239.875184" style="fill: #808080; fill-opacity: 0.4"/>
    </g>
    <g clip-path="url(#p61239812cb)">
     <use xlink:href="#C1_0_af55d0857a" x="125.120265" y="250.132069" style="fill: #808080; fill-opacity: 0.4"/>
    </g>
    <g clip-path="url(#p61239812cb)">
     <use xlink:href="#C1_0_af55d0857a" x="118.047233" y="192.455662" style="fill: #808080; fill-opacity: 0.4"/>
    </g>
    <g clip-path="url(#p61239812cb)">
     <use xlink:href="#C1_0_af55d0857a" x="124.701436" y="216.104419" style="fill: #808080; fill-opacity: 0.4"/>
    </g>
    <g clip-path="url(#p61239812cb)">
     <use xlink:href="#C1_0_af55d0857a" x="126.325971" y="202.73816" style="fill: #808080; fill-opacity: 0.4"/>
    </g>
    <g clip-path="url(#p61239812cb)">
     <use xlink:href="#C1_0_af55d0857a" x="124.354722" y="205.434164" style="fill: #808080; fill-opacity: 0.4"/>
    </g>
    <g clip-path="url(#p61239812cb)">
     <use xlink:href="#C1_0_af55d0857a" x="116.307624" y="222.506876" style="fill: #808080; fill-opacity: 0.4"/>
    </g>
    <g clip-path="url(#p61239812cb)">
     <use xlink:href="#C1_0_af55d0857a" x="130.245984" y="205.849093" style="fill: #808080; fill-opacity: 0.4"/>
    </g>
    <g clip-path="url(#p61239812cb)">
     <use xlink:href="#C1_0_af55d0857a" x="124.876846" y="233.928045" style="fill: #808080; fill-opacity: 0.4"/>
    </g>
    <g clip-path="url(#p61239812cb)">
     <use xlink:href="#C1_0_af55d0857a" x="133.183678" y="264.473825" style="fill: #808080; fill-opacity: 0.4"/>
    </g>
    <g clip-path="url(#p61239812cb)">
     <use xlink:href="#C1_0_af55d0857a" x="131.456925" y="253.495246" style="fill: #808080; fill-opacity: 0.4"/>
    </g>
    <g clip-path="url(#p61239812cb)">
     <use xlink:href="#C1_0_af55d0857a" x="131.547169" y="237.784742" style="fill: #808080; fill-opacity: 0.4"/>
    </g>
    <g clip-path="url(#p61239812cb)">
     <use xlink:href="#C1_0_af55d0857a" x="127.822539" y="243.398662" style="fill: #808080; fill-opacity: 0.4"/>
    </g>
    <g clip-path="url(#p61239812cb)">
     <use xlink:href="#C1_0_af55d0857a" x="133.550014" y="245.113046" style="fill: #808080; fill-opacity: 0.4"/>
    </g>
    <g clip-path="url(#p61239812cb)">
     <use xlink:href="#C1_0_af55d0857a" x="139.154865" y="246.665477" style="fill: #808080; fill-opacity: 0.4"/>
    </g>
   </g>
   <g id="FillBetweenPolyCollection_1">
    <path d="M 128.914275 293.39016 
L 100.739059 293.39016 
L 99.482344 291.320605 
L 98.238561 289.25105 
L 97.020085 287.181495 
L 95.837482 285.11194 
L 94.699168 283.042386 
L 93.611248 280.972831 
L 92.577561 278.903276 
L 91.599913 276.833721 
L 90.678493 274.764166 
L 89.812394 272.694612 
L 89.000222 270.625057 
L 88.240697 268.555502 
L 87.533197 266.485947 
L 86.878188 264.416393 
L 86.277479 262.346838 
L 85.734296 260.277283 
L 85.253153 258.207728 
L 84.839533 256.138173 
L 84.499431 254.068619 
L 84.238784 251.999064 
L 84.062871 249.929509 
L 83.975733 247.859954 
L 83.979689 245.790399 
L 84.074979 243.720845 
L 84.259597 241.65129 
L 84.529312 239.581735 
L 84.877888 237.51218 
L 85.297467 235.442625 
L 85.779093 233.373071 
L 86.313308 231.303516 
L 86.89077 229.233961 
L 87.502822 227.164406 
L 88.141971 225.094851 
L 88.802212 223.025297 
L 89.479191 220.955742 
L 90.170174 218.886187 
L 90.873858 216.816632 
L 91.590022 214.747077 
L 92.319086 212.677523 
L 93.061611 210.607968 
L 93.817815 208.538413 
L 94.587132 206.468858 
L 95.367892 204.399303 
L 96.157131 202.329749 
L 96.950562 200.260194 
L 97.7427 198.190639 
L 98.52714 196.121084 
L 99.29693 194.05153 
L 100.045032 191.981975 
L 100.764789 189.91242 
L 101.450382 187.842865 
L 102.097202 185.77331 
L 102.702125 183.703756 
L 103.263655 181.634201 
L 103.781928 179.564646 
L 104.258579 177.495091 
L 104.6965 175.425536 
L 105.099504 173.355982 
L 105.471947 171.286427 
L 105.81833 169.216872 
L 106.142941 167.147317 
L 106.449545 165.077762 
L 106.741171 163.008208 
L 107.019995 160.938653 
L 107.287326 158.869098 
L 107.543699 156.799543 
L 107.78903 154.729988 
L 108.022847 152.660434 
L 108.244532 150.590879 
L 108.45357 148.521324 
L 108.649765 146.451769 
L 108.833403 144.382214 
L 109.005351 142.31266 
L 109.167076 140.243105 
L 109.320595 138.17355 
L 109.468355 136.103995 
L 109.613064 134.034441 
L 109.757494 131.964886 
L 109.904269 129.895331 
L 110.055671 127.825776 
L 110.213473 125.756221 
L 110.378819 123.686667 
L 110.552159 121.617112 
L 110.733245 119.547557 
L 110.92118 117.478002 
L 111.114519 115.408447 
L 111.311407 113.338893 
L 111.509737 111.269338 
L 111.707322 109.199783 
L 111.90205 107.130228 
L 112.092029 105.060673 
L 112.27569 102.991119 
L 112.451858 100.921564 
L 112.619782 98.852009 
L 112.779126 96.782454 
L 112.929922 94.712899 
L 113.072501 92.643345 
L 113.207404 90.57379 
L 113.335291 88.504235 
L 116.318042 88.504235 
L 116.318042 88.504235 
L 116.445929 90.57379 
L 116.580833 92.643345 
L 116.723412 94.712899 
L 116.874207 96.782454 
L 117.033551 98.852009 
L 117.201476 100.921564 
L 117.377644 102.991119 
L 117.561304 105.060673 
L 117.751283 107.130228 
L 117.946012 109.199783 
L 118.143596 111.269338 
L 118.341926 113.338893 
L 118.538814 115.408447 
L 118.732153 117.478002 
L 118.920088 119.547557 
L 119.101174 121.617112 
L 119.274514 123.686667 
L 119.43986 125.756221 
L 119.597662 127.825776 
L 119.749064 129.895331 
L 119.895839 131.964886 
L 120.040269 134.034441 
L 120.184978 136.103995 
L 120.332738 138.17355 
L 120.486257 140.243105 
L 120.647983 142.31266 
L 120.81993 144.382214 
L 121.003568 146.451769 
L 121.199763 148.521324 
L 121.408801 150.590879 
L 121.630486 152.660434 
L 121.864303 154.729988 
L 122.109634 156.799543 
L 122.366007 158.869098 
L 122.633339 160.938653 
L 122.912162 163.008208 
L 123.203788 165.077762 
L 123.510392 167.147317 
L 123.835003 169.216872 
L 124.181387 171.286427 
L 124.553829 173.355982 
L 124.956834 175.425536 
L 125.394754 177.495091 
L 125.871405 179.564646 
L 126.389678 181.634201 
L 126.951208 183.703756 
L 127.556132 185.77331 
L 128.202951 187.842865 
L 128.888544 189.91242 
L 129.608302 191.981975 
L 130.356403 194.05153 
L 131.126194 196.121084 
L 131.910633 198.190639 
L 132.702772 200.260194 
L 133.496202 202.329749 
L 134.285441 204.399303 
L 135.066201 206.468858 
L 135.835518 208.538413 
L 136.591722 210.607968 
L 137.334248 212.677523 
L 138.063311 214.747077 
L 138.779475 216.816632 
L 139.483159 218.886187 
L 140.174143 220.955742 
L 140.851121 223.025297 
L 141.511363 225.094851 
L 142.150511 227.164406 
L 142.762564 229.233961 
L 143.340025 231.303516 
L 143.87424 233.373071 
L 144.355866 235.442625 
L 144.775445 237.51218 
L 145.124021 239.581735 
L 145.393737 241.65129 
L 145.578355 243.720845 
L 145.673645 245.790399 
L 145.6776 247.859954 
L 145.590463 249.929509 
L 145.414549 251.999064 
L 145.153902 254.068619 
L 144.8138 256.138173 
L 144.400181 258.207728 
L 143.919037 260.277283 
L 143.375855 262.346838 
L 142.775145 264.416393 
L 142.120136 266.485947 
L 141.412637 268.555502 
L 140.653112 270.625057 
L 139.84094 272.694612 
L 138.974841 274.764166 
L 138.05342 276.833721 
L 137.075773 278.903276 
L 136.042085 280.972831 
L 134.954165 283.042386 
L 133.815851 285.11194 
L 132.633249 287.181495 
L 131.414772 289.25105 
L 130.170989 291.320605 
L 128.914275 293.39016 
z
" clip-path="url(#p61239812cb)" style="fill: #808080; fill-opacity: 0.3"/>
   </g>
   <g id="FillBetweenPolyCollection_2">
    <path d="M 199.883931 305.258525 
L 192.142736 305.258525 
L 191.81835 303.351208 
L 191.471435 301.44389 
L 191.099794 299.536572 
L 190.701225 297.629254 
L 190.273645 295.721937 
L 189.815207 293.814619 
L 189.324448 291.907301 
L 188.80042 289.999983 
L 188.242824 288.092665 
L 187.652131 286.185348 
L 187.029673 284.27803 
L 186.377718 282.370712 
L 185.6995 280.463394 
L 184.999218 278.556077 
L 184.281986 276.648759 
L 183.553751 274.741441 
L 182.821163 272.834123 
L 182.091414 270.926805 
L 181.372049 269.019488 
L 180.670752 267.11217 
L 179.995121 265.204852 
L 179.352444 263.297534 
L 178.749478 261.390217 
L 178.192256 259.482899 
L 177.685909 257.575581 
L 177.234531 255.668263 
L 176.841086 253.760945 
L 176.507354 251.853628 
L 176.233926 249.94631 
L 176.020242 248.038992 
L 175.864668 246.131674 
L 175.764613 244.224357 
L 175.716667 242.317039 
L 175.716761 240.409721 
L 175.760341 238.502403 
L 175.84254 236.595085 
L 175.958341 234.687768 
L 176.102734 232.78045 
L 176.270842 230.873132 
L 176.458033 228.965814 
L 176.659999 227.058497 
L 176.872812 225.151179 
L 177.092948 223.243861 
L 177.317294 221.336543 
L 177.543138 219.429226 
L 177.768136 217.521908 
L 177.990279 215.61459 
L 178.207854 213.707272 
L 178.419408 211.799954 
L 178.623717 209.892637 
L 178.819766 207.985319 
L 179.006734 206.078001 
L 179.184005 204.170683 
L 179.351169 202.263366 
L 179.508055 200.356048 
L 179.654747 198.44873 
L 179.791625 196.541412 
L 179.919384 194.634094 
L 180.039062 192.726777 
L 180.152055 190.819459 
L 180.260117 188.912141 
L 180.365347 187.004823 
L 180.470167 185.097506 
L 180.577273 183.190188 
L 180.68958 181.28287 
L 180.810151 179.375552 
L 180.94211 177.468234 
L 181.088557 175.560917 
L 181.252465 173.653599 
L 181.436592 171.746281 
L 181.643381 169.838963 
L 181.874876 167.931646 
L 182.13265 166.024328 
L 182.417738 164.11701 
L 182.730595 162.209692 
L 183.071069 160.302374 
L 183.438394 158.395057 
L 183.8312 156.487739 
L 184.247552 154.580421 
L 184.684996 152.673103 
L 185.140633 150.765786 
L 185.611197 148.858468 
L 186.093152 146.95115 
L 186.582793 145.043832 
L 187.076348 143.136514 
L 187.570082 141.229197 
L 188.060396 139.321879 
L 188.543909 137.414561 
L 189.017544 135.507243 
L 189.478576 133.599926 
L 189.924688 131.692608 
L 190.353987 129.78529 
L 190.765017 127.877972 
L 191.15675 125.970654 
L 191.528559 124.063337 
L 191.880184 122.156019 
L 192.211686 120.248701 
L 192.523392 118.341383 
L 192.81584 116.434066 
L 199.210826 116.434066 
L 199.210826 116.434066 
L 199.503275 118.341383 
L 199.81498 120.248701 
L 200.146483 122.156019 
L 200.498108 124.063337 
L 200.869917 125.970654 
L 201.26165 127.877972 
L 201.67268 129.78529 
L 202.101979 131.692608 
L 202.54809 133.599926 
L 203.009123 135.507243 
L 203.482757 137.414561 
L 203.966271 139.321879 
L 204.456584 141.229197 
L 204.950319 143.136514 
L 205.443874 145.043832 
L 205.933515 146.95115 
L 206.41547 148.858468 
L 206.886034 150.765786 
L 207.34167 152.673103 
L 207.779115 154.580421 
L 208.195467 156.487739 
L 208.588273 158.395057 
L 208.955597 160.302374 
L 209.296072 162.209692 
L 209.608929 164.11701 
L 209.894017 166.024328 
L 210.151791 167.931646 
L 210.383286 169.838963 
L 210.590074 171.746281 
L 210.774201 173.653599 
L 210.93811 175.560917 
L 211.084556 177.468234 
L 211.216516 179.375552 
L 211.337087 181.28287 
L 211.449394 183.190188 
L 211.5565 185.097506 
L 211.661319 187.004823 
L 211.76655 188.912141 
L 211.874611 190.819459 
L 211.987604 192.726777 
L 212.107283 194.634094 
L 212.235042 196.541412 
L 212.371919 198.44873 
L 212.518612 200.356048 
L 212.675497 202.263366 
L 212.842662 204.170683 
L 213.019932 206.078001 
L 213.206901 207.985319 
L 213.402949 209.892637 
L 213.607259 211.799954 
L 213.818813 213.707272 
L 214.036388 215.61459 
L 214.258531 217.521908 
L 214.483528 219.429226 
L 214.709372 221.336543 
L 214.933719 223.243861 
L 215.153854 225.151179 
L 215.366667 227.058497 
L 215.568634 228.965814 
L 215.755825 230.873132 
L 215.923933 232.78045 
L 216.068325 234.687768 
L 216.184127 236.595085 
L 216.266326 238.502403 
L 216.309906 240.409721 
L 216.31 242.317039 
L 216.262053 244.224357 
L 216.161999 246.131674 
L 216.006425 248.038992 
L 215.792741 249.94631 
L 215.519313 251.853628 
L 215.185581 253.760945 
L 214.792136 255.668263 
L 214.340758 257.575581 
L 213.83441 259.482899 
L 213.277188 261.390217 
L 212.674223 263.297534 
L 212.031546 265.204852 
L 211.355914 267.11217 
L 210.654617 269.019488 
L 209.935252 270.926805 
L 209.205504 272.834123 
L 208.472915 274.741441 
L 207.74468 276.648759 
L 207.027449 278.556077 
L 206.327167 280.463394 
L 205.648949 282.370712 
L 204.996994 284.27803 
L 204.374536 286.185348 
L 203.783842 288.092665 
L 203.226246 289.999983 
L 202.702218 291.907301 
L 202.211459 293.814619 
L 201.753022 295.721937 
L 201.325441 297.629254 
L 200.926873 299.536572 
L 200.555231 301.44389 
L 200.208317 303.351208 
L 199.883931 305.258525 
z
" clip-path="url(#p61239812cb)" style="fill: #f08080; fill-opacity: 0.3"/>
   </g>
   <g id="matplotlib.axis_1">
    <g id="xtick_1">
     <g id="line2d_1">
      <defs>
       <path id="ma41a31e05e" d="M 0 0 
L 0 3.5 
" style="stroke: #000000; stroke-width: 0.8"/>
      </defs>
      <g>
       <use xlink:href="#ma41a31e05e" x="114.826667" y="317.2342" style="stroke: #000000; stroke-width: 0.8"/>
      </g>
     </g>
     <g id="text_1">
      <!-- Non-members WT -->
      <g transform="translate(68.91026 331.832637) scale(0.1 -0.1)">
       <defs>
        <path id="DejaVuSerif-4e" d="M 313 0 
L 313 331 
L 941 331 
L 941 4331 
L 313 4331 
L 313 4666 
L 1509 4666 
L 4306 984 
L 4306 4331 
L 3681 4331 
L 3681 4666 
L 5319 4666 
L 5319 4331 
L 4691 4331 
L 4691 -91 
L 4313 -91 
L 1325 3841 
L 1325 331 
L 1953 331 
L 1953 0 
L 313 0 
z
" transform="scale(0.015625)"/>
        <path id="DejaVuSerif-6f" d="M 1925 219 
Q 2388 219 2623 584 
Q 2859 950 2859 1663 
Q 2859 2375 2623 2739 
Q 2388 3103 1925 3103 
Q 1463 3103 1227 2739 
Q 991 2375 991 1663 
Q 991 950 1228 584 
Q 1466 219 1925 219 
z
M 1925 -91 
Q 1200 -91 759 389 
Q 319 869 319 1663 
Q 319 2456 758 2934 
Q 1197 3413 1925 3413 
Q 2653 3413 3092 2934 
Q 3531 2456 3531 1663 
Q 3531 869 3092 389 
Q 2653 -91 1925 -91 
z
" transform="scale(0.015625)"/>
        <path id="DejaVuSerif-6e" d="M 263 0 
L 263 331 
L 781 331 
L 781 2988 
L 231 2988 
L 231 3322 
L 1356 3322 
L 1356 2731 
Q 1516 3069 1770 3241 
Q 2025 3413 2363 3413 
Q 2913 3413 3172 3097 
Q 3431 2781 3431 2113 
L 3431 331 
L 3944 331 
L 3944 0 
L 2356 0 
L 2356 331 
L 2853 331 
L 2853 1931 
Q 2853 2541 2703 2767 
Q 2553 2994 2175 2994 
Q 1775 2994 1565 2701 
Q 1356 2409 1356 1850 
L 1356 331 
L 1856 331 
L 1856 0 
L 263 0 
z
" transform="scale(0.015625)"/>
        <path id="DejaVuSerif-2d" d="M 281 1959 
L 1881 1959 
L 1881 1472 
L 281 1472 
L 281 1959 
z
" transform="scale(0.015625)"/>
        <path id="DejaVuSerif-6d" d="M 3316 2675 
Q 3481 3041 3739 3227 
Q 3997 3413 4341 3413 
Q 4863 3413 5119 3089 
Q 5375 2766 5375 2113 
L 5375 331 
L 5894 331 
L 5894 0 
L 4300 0 
L 4300 331 
L 4800 331 
L 4800 2047 
Q 4800 2556 4650 2772 
Q 4500 2988 4153 2988 
Q 3769 2988 3567 2697 
Q 3366 2406 3366 1850 
L 3366 331 
L 3866 331 
L 3866 0 
L 2291 0 
L 2291 331 
L 2791 331 
L 2791 2069 
Q 2791 2566 2641 2777 
Q 2491 2988 2144 2988 
Q 1759 2988 1557 2697 
Q 1356 2406 1356 1850 
L 1356 331 
L 1856 331 
L 1856 0 
L 263 0 
L 263 331 
L 781 331 
L 781 2994 
L 231 2994 
L 231 3322 
L 1356 3322 
L 1356 2731 
Q 1516 3063 1762 3238 
Q 2009 3413 2322 3413 
Q 2709 3413 2968 3220 
Q 3228 3028 3316 2675 
z
" transform="scale(0.015625)"/>
        <path id="DejaVuSerif-65" d="M 3469 1600 
L 991 1600 
L 991 1575 
Q 991 903 1244 561 
Q 1497 219 1991 219 
Q 2369 219 2611 417 
Q 2853 616 2950 1006 
L 3413 1006 
Q 3275 459 2904 184 
Q 2534 -91 1931 -91 
Q 1203 -91 761 389 
Q 319 869 319 1663 
Q 319 2450 753 2931 
Q 1188 3413 1894 3413 
Q 2647 3413 3050 2948 
Q 3453 2484 3469 1600 
z
M 2791 1931 
Q 2772 2513 2545 2808 
Q 2319 3103 1894 3103 
Q 1497 3103 1269 2806 
Q 1041 2509 991 1931 
L 2791 1931 
z
" transform="scale(0.015625)"/>
        <path id="DejaVuSerif-62" d="M 738 331 
L 738 4531 
L 184 4531 
L 184 4863 
L 1313 4863 
L 1313 2803 
Q 1481 3116 1742 3264 
Q 2003 3413 2388 3413 
Q 3000 3413 3387 2928 
Q 3775 2444 3775 1663 
Q 3775 881 3387 395 
Q 3000 -91 2388 -91 
Q 2003 -91 1742 57 
Q 1481 206 1313 519 
L 1313 0 
L 184 0 
L 184 331 
L 738 331 
z
M 1313 1497 
Q 1313 897 1542 583 
Q 1772 269 2209 269 
Q 2650 269 2876 622 
Q 3103 975 3103 1663 
Q 3103 2353 2876 2703 
Q 2650 3053 2209 3053 
Q 1772 3053 1542 2737 
Q 1313 2422 1313 1825 
L 1313 1497 
z
" transform="scale(0.015625)"/>
        <path id="DejaVuSerif-72" d="M 3059 3328 
L 3059 2497 
L 2728 2497 
Q 2713 2744 2591 2866 
Q 2469 2988 2234 2988 
Q 1809 2988 1582 2694 
Q 1356 2400 1356 1850 
L 1356 331 
L 2022 331 
L 2022 0 
L 263 0 
L 263 331 
L 781 331 
L 781 2994 
L 231 2994 
L 231 3322 
L 1356 3322 
L 1356 2731 
Q 1525 3078 1790 3245 
Q 2056 3413 2438 3413 
Q 2578 3413 2733 3391 
Q 2888 3369 3059 3328 
z
" transform="scale(0.015625)"/>
        <path id="DejaVuSerif-73" d="M 359 184 
L 359 959 
L 691 959 
Q 703 588 923 403 
Q 1144 219 1575 219 
Q 1963 219 2166 364 
Q 2369 509 2369 788 
Q 2369 1006 2220 1140 
Q 2072 1275 1594 1428 
L 1178 1569 
Q 750 1706 558 1912 
Q 366 2119 366 2438 
Q 366 2894 700 3153 
Q 1034 3413 1625 3413 
Q 1888 3413 2178 3344 
Q 2469 3275 2778 3144 
L 2778 2419 
L 2447 2419 
Q 2434 2741 2221 2922 
Q 2009 3103 1644 3103 
Q 1281 3103 1095 2975 
Q 909 2847 909 2591 
Q 909 2381 1050 2254 
Q 1191 2128 1613 1997 
L 2069 1856 
Q 2541 1709 2748 1489 
Q 2956 1269 2956 922 
Q 2956 450 2595 179 
Q 2234 -91 1600 -91 
Q 1278 -91 972 -22 
Q 666 47 359 184 
z
" transform="scale(0.015625)"/>
        <path id="DejaVuSerif-20" transform="scale(0.015625)"/>
        <path id="DejaVuSerif-57" d="M 4878 0 
L 4366 0 
L 3297 3794 
L 2228 0 
L 1716 0 
L 494 4331 
L 31 4331 
L 31 4666 
L 1734 4666 
L 1734 4331 
L 1153 4331 
L 2125 884 
L 3188 4666 
L 3694 4666 
L 4775 844 
L 5753 4331 
L 5216 4331 
L 5216 4666 
L 6559 4666 
L 6559 4331 
L 6100 4331 
L 4878 0 
z
" transform="scale(0.015625)"/>
        <path id="DejaVuSerif-54" d="M 1222 0 
L 1222 331 
L 1819 331 
L 1819 4294 
L 447 4294 
L 447 3566 
L 63 3566 
L 63 4666 
L 4206 4666 
L 4206 3566 
L 3822 3566 
L 3822 4294 
L 2450 4294 
L 2450 331 
L 3047 331 
L 3047 0 
L 1222 0 
z
" transform="scale(0.015625)"/>
       </defs>
       <use xlink:href="#DejaVuSerif-4e"/>
       <use xlink:href="#DejaVuSerif-6f" transform="translate(87.5 0)"/>
       <use xlink:href="#DejaVuSerif-6e" transform="translate(147.705078 0)"/>
       <use xlink:href="#DejaVuSerif-2d" transform="translate(212.109375 0)"/>
       <use xlink:href="#DejaVuSerif-6d" transform="translate(245.898438 0)"/>
       <use xlink:href="#DejaVuSerif-65" transform="translate(340.722656 0)"/>
       <use xlink:href="#DejaVuSerif-6d" transform="translate(399.902344 0)"/>
       <use xlink:href="#DejaVuSerif-62" transform="translate(494.726562 0)"/>
       <use xlink:href="#DejaVuSerif-65" transform="translate(558.740234 0)"/>
       <use xlink:href="#DejaVuSerif-72" transform="translate(617.919922 0)"/>
       <use xlink:href="#DejaVuSerif-73" transform="translate(665.722656 0)"/>
       <use xlink:href="#DejaVuSerif-20" transform="translate(717.041016 0)"/>
       <use xlink:href="#DejaVuSerif-57" transform="translate(748.828125 0)"/>
       <use xlink:href="#DejaVuSerif-54" transform="translate(851.611328 0)"/>
      </g>
     </g>
    </g>
    <g id="xtick_2">
     <g id="line2d_2">
      <g>
       <use xlink:href="#ma41a31e05e" x="196.013333" y="317.2342" style="stroke: #000000; stroke-width: 0.8"/>
      </g>
     </g>
     <g id="text_2">
      <!-- OXTRΔAON -->
      <g transform="translate(165.646146 331.832637) scale(0.1 -0.1)">
       <defs>
        <path id="DejaVuSerif-4f" d="M 2625 244 
Q 3391 244 3781 770 
Q 4172 1297 4172 2328 
Q 4172 3363 3781 3889 
Q 3391 4416 2625 4416 
Q 1856 4416 1465 3889 
Q 1075 3363 1075 2328 
Q 1075 1297 1465 770 
Q 1856 244 2625 244 
z
M 2625 -91 
Q 2150 -91 1751 65 
Q 1353 222 1050 525 
Q 700 875 529 1319 
Q 359 1763 359 2328 
Q 359 2894 529 3339 
Q 700 3784 1050 4134 
Q 1356 4441 1750 4595 
Q 2144 4750 2625 4750 
Q 3641 4750 4266 4084 
Q 4891 3419 4891 2328 
Q 4891 1769 4719 1320 
Q 4547 872 4197 525 
Q 3891 219 3497 64 
Q 3103 -91 2625 -91 
z
" transform="scale(0.015625)"/>
        <path id="DejaVuSerif-58" d="M 2119 1997 
L 978 331 
L 1581 331 
L 1581 0 
L 38 0 
L 38 331 
L 575 331 
L 1919 2291 
L 556 4331 
L 56 4331 
L 56 4666 
L 1906 4666 
L 1906 4331 
L 1356 4331 
L 2356 2828 
L 3384 4331 
L 2784 4331 
L 2784 4666 
L 4313 4666 
L 4313 4331 
L 3788 4331 
L 2553 2534 
L 4025 331 
L 4525 331 
L 4525 0 
L 2675 0 
L 2675 331 
L 3231 331 
L 2119 1997 
z
" transform="scale(0.015625)"/>
        <path id="DejaVuSerif-52" d="M 3066 2316 
Q 3284 2256 3442 2114 
Q 3600 1972 3725 1716 
L 4403 331 
L 4972 331 
L 4972 0 
L 3872 0 
L 3144 1484 
Q 2934 1916 2759 2042 
Q 2584 2169 2278 2169 
L 1581 2169 
L 1581 331 
L 2241 331 
L 2241 0 
L 353 0 
L 353 331 
L 947 331 
L 947 4331 
L 353 4331 
L 353 4666 
L 2719 4666 
Q 3400 4666 3770 4341 
Q 4141 4016 4141 3419 
Q 4141 2938 3870 2661 
Q 3600 2384 3066 2316 
z
M 1581 2503 
L 2503 2503 
Q 2975 2503 3200 2726 
Q 3425 2950 3425 3419 
Q 3425 3888 3200 4109 
Q 2975 4331 2503 4331 
L 1581 4331 
L 1581 2503 
z
" transform="scale(0.015625)"/>
        <path id="DejaVuSerif-394" d="M 4350 0 
L 244 0 
L 2034 4666 
L 2559 4666 
L 4350 0 
z
M 3506 331 
L 2138 3909 
L 763 331 
L 3506 331 
z
" transform="scale(0.015625)"/>
        <path id="DejaVuSerif-41" d="M 1281 1691 
L 2994 1691 
L 2138 3909 
L 1281 1691 
z
M -38 0 
L -38 331 
L 372 331 
L 2034 4666 
L 2559 4666 
L 4225 331 
L 4684 331 
L 4684 0 
L 2988 0 
L 2988 331 
L 3506 331 
L 3116 1356 
L 1153 1356 
L 763 331 
L 1275 331 
L 1275 0 
L -38 0 
z
" transform="scale(0.015625)"/>
       </defs>
       <use xlink:href="#DejaVuSerif-4f"/>
       <use xlink:href="#DejaVuSerif-58" transform="translate(80.232422 0)"/>
       <use xlink:href="#DejaVuSerif-54" transform="translate(151.423828 0)"/>
       <use xlink:href="#DejaVuSerif-52" transform="translate(218.123047 0)"/>
       <use xlink:href="#DejaVuSerif-394" transform="translate(293.416016 0)"/>
       <use xlink:href="#DejaVuSerif-41" transform="translate(365.632812 0)"/>
       <use xlink:href="#DejaVuSerif-4f" transform="translate(437.849609 0)"/>
       <use xlink:href="#DejaVuSerif-4e" transform="translate(519.832031 0)"/>
      </g>
     </g>
    </g>
   </g>
   <g id="matplotlib.axis_2">
    <g id="ytick_1">
     <g id="line2d_3">
      <defs>
       <path id="m347f8ef636" d="M 0 0 
L -3.5 0 
" style="stroke: #000000; stroke-width: 0.8"/>
      </defs>
      <g>
       <use xlink:href="#m347f8ef636" x="33.64" y="303.738033" style="stroke: #000000; stroke-width: 0.8"/>
      </g>
     </g>
     <g id="text_3">
      <!-- 0.5 -->
      <g transform="translate(10.736875 307.537251) scale(0.1 -0.1)">
       <defs>
        <path id="DejaVuSerif-30" d="M 2034 219 
Q 2513 219 2750 744 
Q 2988 1269 2988 2328 
Q 2988 3391 2750 3916 
Q 2513 4441 2034 4441 
Q 1556 4441 1318 3916 
Q 1081 3391 1081 2328 
Q 1081 1269 1318 744 
Q 1556 219 2034 219 
z
M 2034 -91 
Q 1275 -91 848 546 
Q 422 1184 422 2328 
Q 422 3475 848 4112 
Q 1275 4750 2034 4750 
Q 2797 4750 3222 4112 
Q 3647 3475 3647 2328 
Q 3647 1184 3222 546 
Q 2797 -91 2034 -91 
z
" transform="scale(0.015625)"/>
        <path id="DejaVuSerif-2e" d="M 603 325 
Q 603 500 722 622 
Q 841 744 1019 744 
Q 1191 744 1312 622 
Q 1434 500 1434 325 
Q 1434 153 1312 31 
Q 1191 -91 1019 -91 
Q 841 -91 722 29 
Q 603 150 603 325 
z
" transform="scale(0.015625)"/>
        <path id="DejaVuSerif-35" d="M 3219 4666 
L 3219 4153 
L 1081 4153 
L 1081 2816 
Q 1244 2928 1461 2984 
Q 1678 3041 1947 3041 
Q 2703 3041 3140 2622 
Q 3578 2203 3578 1478 
Q 3578 738 3136 323 
Q 2694 -91 1894 -91 
Q 1572 -91 1234 -12 
Q 897 66 544 225 
L 544 1131 
L 897 1131 
Q 925 688 1179 453 
Q 1434 219 1894 219 
Q 2388 219 2653 544 
Q 2919 869 2919 1478 
Q 2919 2084 2655 2407 
Q 2391 2731 1894 2731 
Q 1613 2731 1398 2631 
Q 1184 2531 1019 2322 
L 750 2322 
L 750 4666 
L 3219 4666 
z
" transform="scale(0.015625)"/>
       </defs>
       <use xlink:href="#DejaVuSerif-30"/>
       <use xlink:href="#DejaVuSerif-2e" transform="translate(63.623047 0)"/>
       <use xlink:href="#DejaVuSerif-35" transform="translate(95.410156 0)"/>
      </g>
     </g>
    </g>
    <g id="ytick_2">
     <g id="line2d_4">
      <g>
       <use xlink:href="#m347f8ef636" x="33.64" y="258.375411" style="stroke: #000000; stroke-width: 0.8"/>
      </g>
     </g>
     <g id="text_4">
      <!-- 1.0 -->
      <g transform="translate(10.736875 262.17463) scale(0.1 -0.1)">
       <defs>
        <path id="DejaVuSerif-31" d="M 909 0 
L 909 331 
L 1722 331 
L 1722 4213 
L 781 3603 
L 781 4013 
L 1919 4750 
L 2350 4750 
L 2350 331 
L 3163 331 
L 3163 0 
L 909 0 
z
" transform="scale(0.015625)"/>
       </defs>
       <use xlink:href="#DejaVuSerif-31"/>
       <use xlink:href="#DejaVuSerif-2e" transform="translate(63.623047 0)"/>
       <use xlink:href="#DejaVuSerif-30" transform="translate(95.410156 0)"/>
      </g>
     </g>
    </g>
    <g id="ytick_3">
     <g id="line2d_5">
      <g>
       <use xlink:href="#m347f8ef636" x="33.64" y="213.012789" style="stroke: #000000; stroke-width: 0.8"/>
      </g>
     </g>
     <g id="text_5">
      <!-- 1.5 -->
      <g transform="translate(10.736875 216.812008) scale(0.1 -0.1)">
       <use xlink:href="#DejaVuSerif-31"/>
       <use xlink:href="#DejaVuSerif-2e" transform="translate(63.623047 0)"/>
       <use xlink:href="#DejaVuSerif-35" transform="translate(95.410156 0)"/>
      </g>
     </g>
    </g>
    <g id="ytick_4">
     <g id="line2d_6">
      <g>
       <use xlink:href="#m347f8ef636" x="33.64" y="167.650167" style="stroke: #000000; stroke-width: 0.8"/>
      </g>
     </g>
     <g id="text_6">
      <!-- 2.0 -->
      <g transform="translate(10.736875 171.449386) scale(0.1 -0.1)">
       <defs>
        <path id="DejaVuSerif-32" d="M 819 3553 
L 469 3553 
L 469 4384 
Q 803 4563 1142 4656 
Q 1481 4750 1806 4750 
Q 2534 4750 2956 4397 
Q 3378 4044 3378 3438 
Q 3378 2753 2422 1800 
Q 2347 1728 2309 1691 
L 1131 513 
L 3078 513 
L 3078 1088 
L 3444 1088 
L 3444 0 
L 434 0 
L 434 341 
L 1850 1753 
Q 2319 2222 2519 2614 
Q 2719 3006 2719 3438 
Q 2719 3909 2473 4175 
Q 2228 4441 1797 4441 
Q 1350 4441 1106 4219 
Q 863 3997 819 3553 
z
" transform="scale(0.015625)"/>
       </defs>
       <use xlink:href="#DejaVuSerif-32"/>
       <use xlink:href="#DejaVuSerif-2e" transform="translate(63.623047 0)"/>
       <use xlink:href="#DejaVuSerif-30" transform="translate(95.410156 0)"/>
      </g>
     </g>
    </g>
    <g id="ytick_5">
     <g id="line2d_7">
      <g>
       <use xlink:href="#m347f8ef636" x="33.64" y="122.287546" style="stroke: #000000; stroke-width: 0.8"/>
      </g>
     </g>
     <g id="text_7">
      <!-- 2.5 -->
      <g transform="translate(10.736875 126.086764) scale(0.1 -0.1)">
       <use xlink:href="#DejaVuSerif-32"/>
       <use xlink:href="#DejaVuSerif-2e" transform="translate(63.623047 0)"/>
       <use xlink:href="#DejaVuSerif-35" transform="translate(95.410156 0)"/>
      </g>
     </g>
    </g>
    <g id="ytick_6">
     <g id="line2d_8">
      <g>
       <use xlink:href="#m347f8ef636" x="33.64" y="76.924924" style="stroke: #000000; stroke-width: 0.8"/>
      </g>
     </g>
     <g id="text_8">
      <!-- 3.0 -->
      <g transform="translate(10.736875 80.724142) scale(0.1 -0.1)">
       <defs>
        <path id="DejaVuSerif-33" d="M 622 4469 
Q 988 4606 1323 4678 
Q 1659 4750 1953 4750 
Q 2638 4750 3022 4454 
Q 3406 4159 3406 3634 
Q 3406 3213 3140 2930 
Q 2875 2647 2388 2547 
Q 2963 2466 3280 2130 
Q 3597 1794 3597 1259 
Q 3597 606 3158 257 
Q 2719 -91 1894 -91 
Q 1528 -91 1179 -12 
Q 831 66 488 225 
L 488 1131 
L 838 1131 
Q 869 681 1141 450 
Q 1413 219 1906 219 
Q 2384 219 2661 495 
Q 2938 772 2938 1253 
Q 2938 1803 2653 2086 
Q 2369 2369 1819 2369 
L 1522 2369 
L 1522 2688 
L 1678 2688 
Q 2225 2688 2498 2914 
Q 2772 3141 2772 3597 
Q 2772 4006 2547 4223 
Q 2322 4441 1900 4441 
Q 1478 4441 1245 4241 
Q 1013 4041 972 3647 
L 622 3647 
L 622 4469 
z
" transform="scale(0.015625)"/>
       </defs>
       <use xlink:href="#DejaVuSerif-33"/>
       <use xlink:href="#DejaVuSerif-2e" transform="translate(63.623047 0)"/>
       <use xlink:href="#DejaVuSerif-30" transform="translate(95.410156 0)"/>
      </g>
     </g>
    </g>
   </g>
   <g id="line2d_9">
    <path d="M 102.648667 260.633362 
L 127.004667 260.633362 
L 127.004667 205.745361 
L 102.648667 205.745361 
L 102.648667 260.633362 
" clip-path="url(#p61239812cb)" style="fill: none; stroke: #000000; stroke-linecap: square"/>
   </g>
   <g id="line2d_10">
    <path d="M 114.826667 260.633362 
L 114.826667 293.39016 
" clip-path="url(#p61239812cb)" style="fill: none; stroke: #000000; stroke-linecap: square"/>
   </g>
   <g id="line2d_11">
    <path d="M 114.826667 205.745361 
L 114.826667 127.951343 
" clip-path="url(#p61239812cb)" style="fill: none; stroke: #000000; stroke-linecap: square"/>
   </g>
   <g id="line2d_12">
    <path d="M 108.737667 293.39016 
L 120.915667 293.39016 
" clip-path="url(#p61239812cb)" style="fill: none; stroke: #000000; stroke-linecap: square"/>
   </g>
   <g id="line2d_13">
    <path d="M 108.737667 127.951343 
L 120.915667 127.951343 
" clip-path="url(#p61239812cb)" style="fill: none; stroke: #000000; stroke-linecap: square"/>
   </g>
   <g id="line2d_14">
    <path d="M 183.835333 252.466404 
L 208.191333 252.466404 
L 208.191333 179.529507 
L 183.835333 179.529507 
L 183.835333 252.466404 
" clip-path="url(#p61239812cb)" style="fill: none; stroke: #000000; stroke-linecap: square"/>
   </g>
   <g id="line2d_15">
    <path d="M 196.013333 252.466404 
L 196.013333 305.258525 
" clip-path="url(#p61239812cb)" style="fill: none; stroke: #000000; stroke-linecap: square"/>
   </g>
   <g id="line2d_16">
    <path d="M 196.013333 179.529507 
L 196.013333 116.434066 
" clip-path="url(#p61239812cb)" style="fill: none; stroke: #000000; stroke-linecap: square"/>
   </g>
   <g id="line2d_17">
    <path d="M 189.924333 305.258525 
L 202.102333 305.258525 
" clip-path="url(#p61239812cb)" style="fill: none; stroke: #000000; stroke-linecap: square"/>
   </g>
   <g id="line2d_18">
    <path d="M 189.924333 116.434066 
L 202.102333 116.434066 
" clip-path="url(#p61239812cb)" style="fill: none; stroke: #000000; stroke-linecap: square"/>
   </g>
   <g id="LineCollection_1">
    <path d="M 99.4012 239.747641 
L 130.252133 239.747641 
" clip-path="url(#p61239812cb)" style="fill: none; stroke: #000000; stroke-width: 5"/>
    <path d="M 185.865 220.521043 
L 206.161667 220.521043 
" clip-path="url(#p61239812cb)" style="fill: none; stroke: #000000; stroke-width: 5"/>
   </g>
   <g id="line2d_19">
    <path d="M 110.767333 70.513629 
L 110.767333 65.745035 
L 191.954 65.745035 
L 191.954 70.513629 
" clip-path="url(#p61239812cb)" style="fill: none; stroke: #000000; stroke-linecap: square"/>
   </g>
   <g id="patch_3">
    <path d="M 33.64 317.2342 
L 33.64 53.76936 
" style="fill: none; stroke: #000000; stroke-width: 0.8; stroke-linejoin: miter; stroke-linecap: square"/>
   </g>
   <g id="patch_4">
    <path d="M 277.2 317.2342 
L 277.2 53.76936 
" style="fill: none; stroke: #000000; stroke-width: 0.8; stroke-linejoin: miter; stroke-linecap: square"/>
   </g>
   <g id="patch_5">
    <path d="M 33.64 317.2342 
L 277.2 317.2342 
" style="fill: none; stroke: #000000; stroke-width: 0.8; stroke-linejoin: miter; stroke-linecap: square"/>
   </g>
   <g id="patch_6">
    <path d="M 33.64 53.76936 
L 277.2 53.76936 
" style="fill: none; stroke: #000000; stroke-width: 0.8; stroke-linejoin: miter; stroke-linecap: square"/>
   </g>
   <g id="text_9">
    <!-- * -->
    <g transform="translate(148.860667 61.28105) scale(0.1 -0.1)">
     <defs>
      <path id="DejaVuSerif-2a" d="M 3097 3866 
L 1875 3297 
L 3097 2719 
L 2859 2350 
L 1772 3028 
L 1813 1838 
L 1388 1838 
L 1428 3028 
L 341 2350 
L 103 2719 
L 1325 3291 
L 103 3866 
L 341 4238 
L 1428 3559 
L 1388 4750 
L 1813 4750 
L 1772 3559 
L 2859 4238 
L 3097 3866 
z
" transform="scale(0.015625)"/>
     </defs>
     <use xlink:href="#DejaVuSerif-2a"/>
    </g>
   </g>
   <g id="text_10">
    <!-- summed inNEF -->
    <g transform="translate(108.221563 7.457235) scale(0.12 -0.12)">
     <defs>
      <path id="DejaVuSerif-75" d="M 2266 3322 
L 3341 3322 
L 3341 331 
L 3884 331 
L 3884 0 
L 2766 0 
L 2766 588 
Q 2606 256 2353 82 
Q 2100 -91 1766 -91 
Q 1213 -91 952 223 
Q 691 538 691 1209 
L 691 2988 
L 172 2988 
L 172 3322 
L 1269 3322 
L 1269 1388 
Q 1269 781 1417 556 
Q 1566 331 1947 331 
Q 2347 331 2556 625 
Q 2766 919 2766 1478 
L 2766 2988 
L 2266 2988 
L 2266 3322 
z
" transform="scale(0.015625)"/>
      <path id="DejaVuSerif-64" d="M 3359 331 
L 3909 331 
L 3909 0 
L 2784 0 
L 2784 519 
Q 2616 206 2355 57 
Q 2094 -91 1709 -91 
Q 1097 -91 708 395 
Q 319 881 319 1663 
Q 319 2444 706 2928 
Q 1094 3413 1709 3413 
Q 2094 3413 2355 3264 
Q 2616 3116 2784 2803 
L 2784 4531 
L 2241 4531 
L 2241 4863 
L 3359 4863 
L 3359 331 
z
M 2784 1497 
L 2784 1825 
Q 2784 2422 2554 2737 
Q 2325 3053 1888 3053 
Q 1444 3053 1217 2703 
Q 991 2353 991 1663 
Q 991 975 1217 622 
Q 1444 269 1888 269 
Q 2325 269 2554 583 
Q 2784 897 2784 1497 
z
" transform="scale(0.015625)"/>
      <path id="DejaVuSerif-69" d="M 622 4353 
Q 622 4497 726 4603 
Q 831 4709 978 4709 
Q 1122 4709 1226 4603 
Q 1331 4497 1331 4353 
Q 1331 4206 1228 4103 
Q 1125 4000 978 4000 
Q 831 4000 726 4103 
Q 622 4206 622 4353 
z
M 1356 331 
L 1900 331 
L 1900 0 
L 231 0 
L 231 331 
L 781 331 
L 781 2988 
L 231 2988 
L 231 3322 
L 1356 3322 
L 1356 331 
z
" transform="scale(0.015625)"/>
      <path id="DejaVuSerif-45" d="M 353 0 
L 353 331 
L 947 331 
L 947 4331 
L 353 4331 
L 353 4666 
L 4109 4666 
L 4109 3628 
L 3725 3628 
L 3725 4281 
L 1581 4281 
L 1581 2719 
L 3109 2719 
L 3109 3303 
L 3494 3303 
L 3494 1753 
L 3109 1753 
L 3109 2338 
L 1581 2338 
L 1581 384 
L 3775 384 
L 3775 1038 
L 4159 1038 
L 4159 0 
L 353 0 
z
" transform="scale(0.015625)"/>
      <path id="DejaVuSerif-46" d="M 353 0 
L 353 331 
L 947 331 
L 947 4331 
L 353 4331 
L 353 4666 
L 4172 4666 
L 4172 3628 
L 3788 3628 
L 3788 4281 
L 1581 4281 
L 1581 2719 
L 3175 2719 
L 3175 3303 
L 3559 3303 
L 3559 1753 
L 3175 1753 
L 3175 2338 
L 1581 2338 
L 1581 331 
L 2328 331 
L 2328 0 
L 353 0 
z
" transform="scale(0.015625)"/>
     </defs>
     <use xlink:href="#DejaVuSerif-73"/>
     <use xlink:href="#DejaVuSerif-75" transform="translate(51.318359 0)"/>
     <use xlink:href="#DejaVuSerif-6d" transform="translate(115.722656 0)"/>
     <use xlink:href="#DejaVuSerif-6d" transform="translate(210.546875 0)"/>
     <use xlink:href="#DejaVuSerif-65" transform="translate(305.371094 0)"/>
     <use xlink:href="#DejaVuSerif-64" transform="translate(364.550781 0)"/>
     <use xlink:href="#DejaVuSerif-20" transform="translate(428.564453 0)"/>
     <use xlink:href="#DejaVuSerif-69" transform="translate(460.351562 0)"/>
     <use xlink:href="#DejaVuSerif-6e" transform="translate(492.333984 0)"/>
     <use xlink:href="#DejaVuSerif-4e" transform="translate(556.738281 0)"/>
     <use xlink:href="#DejaVuSerif-45" transform="translate(644.238281 0)"/>
     <use xlink:href="#DejaVuSerif-46" transform="translate(717.236328 0)"/>
    </g>
    <!--  mnn = None thresh = 0, summation = mean -->
    <g transform="translate(17.726563 20.89461) scale(0.12 -0.12)">
     <defs>
      <path id="DejaVuSerif-3d" d="M 678 2894 
L 4684 2894 
L 4684 2394 
L 678 2394 
L 678 2894 
z
M 678 1619 
L 4684 1619 
L 4684 1119 
L 678 1119 
L 678 1619 
z
" transform="scale(0.015625)"/>
      <path id="DejaVuSerif-74" d="M 691 2988 
L 184 2988 
L 184 3322 
L 691 3322 
L 691 4353 
L 1269 4353 
L 1269 3322 
L 2350 3322 
L 2350 2988 
L 1269 2988 
L 1269 878 
Q 1269 456 1350 337 
Q 1431 219 1650 219 
Q 1875 219 1978 351 
Q 2081 484 2088 781 
L 2522 781 
Q 2497 328 2275 118 
Q 2053 -91 1600 -91 
Q 1103 -91 897 129 
Q 691 350 691 878 
L 691 2988 
z
" transform="scale(0.015625)"/>
      <path id="DejaVuSerif-68" d="M 263 0 
L 263 331 
L 781 331 
L 781 4531 
L 231 4531 
L 231 4863 
L 1356 4863 
L 1356 2731 
Q 1516 3069 1770 3241 
Q 2025 3413 2363 3413 
Q 2913 3413 3172 3097 
Q 3431 2781 3431 2113 
L 3431 331 
L 3944 331 
L 3944 0 
L 2356 0 
L 2356 331 
L 2853 331 
L 2853 1931 
Q 2853 2541 2704 2764 
Q 2556 2988 2175 2988 
Q 1775 2988 1565 2697 
Q 1356 2406 1356 1850 
L 1356 331 
L 1856 331 
L 1856 0 
L 263 0 
z
" transform="scale(0.015625)"/>
      <path id="DejaVuSerif-2c" d="M 231 -622 
Q 525 -406 662 -114 
Q 800 178 800 594 
L 800 709 
L 1416 709 
Q 1391 175 1164 -208 
Q 938 -591 481 -872 
L 231 -622 
z
" transform="scale(0.015625)"/>
      <path id="DejaVuSerif-61" d="M 2547 1044 
L 2547 1747 
L 1806 1747 
Q 1378 1747 1168 1562 
Q 959 1378 959 997 
Q 959 650 1171 447 
Q 1384 244 1747 244 
Q 2106 244 2326 466 
Q 2547 688 2547 1044 
z
M 3122 2075 
L 3122 331 
L 3634 331 
L 3634 0 
L 2547 0 
L 2547 359 
Q 2356 128 2106 18 
Q 1856 -91 1522 -91 
Q 969 -91 644 203 
Q 319 497 319 997 
Q 319 1513 691 1797 
Q 1063 2081 1741 2081 
L 2547 2081 
L 2547 2309 
Q 2547 2688 2317 2895 
Q 2088 3103 1672 3103 
Q 1328 3103 1125 2947 
Q 922 2791 872 2484 
L 575 2484 
L 575 3156 
Q 875 3284 1158 3348 
Q 1441 3413 1709 3413 
Q 2400 3413 2761 3070 
Q 3122 2728 3122 2075 
z
" transform="scale(0.015625)"/>
     </defs>
     <use xlink:href="#DejaVuSerif-20"/>
     <use xlink:href="#DejaVuSerif-6d" transform="translate(31.787109 0)"/>
     <use xlink:href="#DejaVuSerif-6e" transform="translate(126.611328 0)"/>
     <use xlink:href="#DejaVuSerif-6e" transform="translate(191.015625 0)"/>
     <use xlink:href="#DejaVuSerif-20" transform="translate(255.419922 0)"/>
     <use xlink:href="#DejaVuSerif-3d" transform="translate(287.207031 0)"/>
     <use xlink:href="#DejaVuSerif-20" transform="translate(370.996094 0)"/>
     <use xlink:href="#DejaVuSerif-4e" transform="translate(402.783203 0)"/>
     <use xlink:href="#DejaVuSerif-6f" transform="translate(490.283203 0)"/>
     <use xlink:href="#DejaVuSerif-6e" transform="translate(550.488281 0)"/>
     <use xlink:href="#DejaVuSerif-65" transform="translate(614.892578 0)"/>
     <use xlink:href="#DejaVuSerif-20" transform="translate(674.072266 0)"/>
     <use xlink:href="#DejaVuSerif-74" transform="translate(705.859375 0)"/>
     <use xlink:href="#DejaVuSerif-68" transform="translate(746.044922 0)"/>
     <use xlink:href="#DejaVuSerif-72" transform="translate(810.449219 0)"/>
     <use xlink:href="#DejaVuSerif-65" transform="translate(858.251953 0)"/>
     <use xlink:href="#DejaVuSerif-73" transform="translate(917.431641 0)"/>
     <use xlink:href="#DejaVuSerif-68" transform="translate(968.75 0)"/>
     <use xlink:href="#DejaVuSerif-20" transform="translate(1033.154297 0)"/>
     <use xlink:href="#DejaVuSerif-3d" transform="translate(1064.941406 0)"/>
     <use xlink:href="#DejaVuSerif-20" transform="translate(1148.730469 0)"/>
     <use xlink:href="#DejaVuSerif-30" transform="translate(1180.517578 0)"/>
     <use xlink:href="#DejaVuSerif-2c" transform="translate(1244.140625 0)"/>
     <use xlink:href="#DejaVuSerif-20" transform="translate(1275.927734 0)"/>
     <use xlink:href="#DejaVuSerif-73" transform="translate(1307.714844 0)"/>
     <use xlink:href="#DejaVuSerif-75" transform="translate(1359.033203 0)"/>
     <use xlink:href="#DejaVuSerif-6d" transform="translate(1423.4375 0)"/>
     <use xlink:href="#DejaVuSerif-6d" transform="translate(1518.261719 0)"/>
     <use xlink:href="#DejaVuSerif-61" transform="translate(1613.085938 0)"/>
     <use xlink:href="#DejaVuSerif-74" transform="translate(1672.705078 0)"/>
     <use xlink:href="#DejaVuSerif-69" transform="translate(1712.890625 0)"/>
     <use xlink:href="#DejaVuSerif-6f" transform="translate(1744.873047 0)"/>
     <use xlink:href="#DejaVuSerif-6e" transform="translate(1805.078125 0)"/>
     <use xlink:href="#DejaVuSerif-20" transform="translate(1869.482422 0)"/>
     <use xlink:href="#DejaVuSerif-3d" transform="translate(1901.269531 0)"/>
     <use xlink:href="#DejaVuSerif-20" transform="translate(1985.058594 0)"/>
     <use xlink:href="#DejaVuSerif-6d" transform="translate(2016.845703 0)"/>
     <use xlink:href="#DejaVuSerif-65" transform="translate(2111.669922 0)"/>
     <use xlink:href="#DejaVuSerif-61" transform="translate(2170.849609 0)"/>
     <use xlink:href="#DejaVuSerif-6e" transform="translate(2230.46875 0)"/>
    </g>
    <!--  norm. = CV, inGroupNorm = False -->
    <g transform="translate(48.134375 34.331985) scale(0.12 -0.12)">
     <defs>
      <path id="DejaVuSerif-43" d="M 4513 1234 
Q 4306 581 3820 245 
Q 3334 -91 2591 -91 
Q 2134 -91 1743 65 
Q 1353 222 1050 525 
Q 700 875 529 1320 
Q 359 1766 359 2328 
Q 359 3416 987 4083 
Q 1616 4750 2644 4750 
Q 3025 4750 3456 4650 
Q 3888 4550 4384 4347 
L 4384 3272 
L 4031 3272 
Q 3916 3859 3567 4137 
Q 3219 4416 2591 4416 
Q 1844 4416 1459 3886 
Q 1075 3356 1075 2328 
Q 1075 1303 1459 773 
Q 1844 244 2591 244 
Q 3113 244 3450 492 
Q 3788 741 3938 1234 
L 4513 1234 
z
" transform="scale(0.015625)"/>
      <path id="DejaVuSerif-56" d="M 1119 4331 
L 2497 750 
L 3872 4331 
L 3347 4331 
L 3347 4666 
L 4716 4666 
L 4716 4331 
L 4263 4331 
L 2597 0 
L 2059 0 
L 403 4331 
L -63 4331 
L -63 4666 
L 1638 4666 
L 1638 4331 
L 1119 4331 
z
" transform="scale(0.015625)"/>
      <path id="DejaVuSerif-47" d="M 4097 3272 
Q 3988 3856 3641 4136 
Q 3294 4416 2675 4416 
Q 1869 4416 1472 3897 
Q 1075 3378 1075 2328 
Q 1075 1300 1484 772 
Q 1894 244 2688 244 
Q 3041 244 3362 331 
Q 3684 419 3975 594 
L 3975 1797 
L 3097 1797 
L 3097 2131 
L 4609 2131 
L 4609 391 
Q 4194 150 3714 29 
Q 3234 -91 2688 -91 
Q 1631 -91 995 570 
Q 359 1231 359 2328 
Q 359 3434 996 4092 
Q 1634 4750 2713 4750 
Q 3113 4750 3539 4658 
Q 3966 4566 4447 4378 
L 4447 3272 
L 4097 3272 
z
" transform="scale(0.015625)"/>
      <path id="DejaVuSerif-70" d="M 1313 1825 
L 1313 1497 
Q 1313 897 1542 583 
Q 1772 269 2209 269 
Q 2650 269 2876 622 
Q 3103 975 3103 1663 
Q 3103 2353 2876 2703 
Q 2650 3053 2209 3053 
Q 1772 3053 1542 2737 
Q 1313 2422 1313 1825 
z
M 738 2988 
L 184 2988 
L 184 3322 
L 1313 3322 
L 1313 2803 
Q 1481 3116 1742 3264 
Q 2003 3413 2388 3413 
Q 3000 3413 3387 2928 
Q 3775 2444 3775 1663 
Q 3775 881 3387 395 
Q 3000 -91 2388 -91 
Q 2003 -91 1742 57 
Q 1481 206 1313 519 
L 1313 -997 
L 1856 -997 
L 1856 -1331 
L 184 -1331 
L 184 -997 
L 738 -997 
L 738 2988 
z
" transform="scale(0.015625)"/>
      <path id="DejaVuSerif-6c" d="M 1313 331 
L 1856 331 
L 1856 0 
L 184 0 
L 184 331 
L 738 331 
L 738 4531 
L 184 4531 
L 184 4863 
L 1313 4863 
L 1313 331 
z
" transform="scale(0.015625)"/>
     </defs>
     <use xlink:href="#DejaVuSerif-20"/>
     <use xlink:href="#DejaVuSerif-6e" transform="translate(31.787109 0)"/>
     <use xlink:href="#DejaVuSerif-6f" transform="translate(96.191406 0)"/>
     <use xlink:href="#DejaVuSerif-72" transform="translate(156.396484 0)"/>
     <use xlink:href="#DejaVuSerif-6d" transform="translate(204.199219 0)"/>
     <use xlink:href="#DejaVuSerif-2e" transform="translate(299.023438 0)"/>
     <use xlink:href="#DejaVuSerif-20" transform="translate(330.810547 0)"/>
     <use xlink:href="#DejaVuSerif-3d" transform="translate(362.597656 0)"/>
     <use xlink:href="#DejaVuSerif-20" transform="translate(446.386719 0)"/>
     <use xlink:href="#DejaVuSerif-43" transform="translate(478.173828 0)"/>
     <use xlink:href="#DejaVuSerif-56" transform="translate(554.6875 0)"/>
     <use xlink:href="#DejaVuSerif-2c" transform="translate(609.404297 0)"/>
     <use xlink:href="#DejaVuSerif-20" transform="translate(641.191406 0)"/>
     <use xlink:href="#DejaVuSerif-69" transform="translate(672.978516 0)"/>
     <use xlink:href="#DejaVuSerif-6e" transform="translate(704.960938 0)"/>
     <use xlink:href="#DejaVuSerif-47" transform="translate(769.365234 0)"/>
     <use xlink:href="#DejaVuSerif-72" transform="translate(849.248047 0)"/>
     <use xlink:href="#DejaVuSerif-6f" transform="translate(897.050781 0)"/>
     <use xlink:href="#DejaVuSerif-75" transform="translate(957.255859 0)"/>
     <use xlink:href="#DejaVuSerif-70" transform="translate(1021.660156 0)"/>
     <use xlink:href="#DejaVuSerif-4e" transform="translate(1085.673828 0)"/>
     <use xlink:href="#DejaVuSerif-6f" transform="translate(1173.173828 0)"/>
     <use xlink:href="#DejaVuSerif-72" transform="translate(1233.378906 0)"/>
     <use xlink:href="#DejaVuSerif-6d" transform="translate(1281.181641 0)"/>
     <use xlink:href="#DejaVuSerif-20" transform="translate(1376.005859 0)"/>
     <use xlink:href="#DejaVuSerif-3d" transform="translate(1407.792969 0)"/>
     <use xlink:href="#DejaVuSerif-20" transform="translate(1491.582031 0)"/>
     <use xlink:href="#DejaVuSerif-46" transform="translate(1523.369141 0)"/>
     <use xlink:href="#DejaVuSerif-61" transform="translate(1586.003906 0)"/>
     <use xlink:href="#DejaVuSerif-6c" transform="translate(1645.623047 0)"/>
     <use xlink:href="#DejaVuSerif-73" transform="translate(1677.605469 0)"/>
     <use xlink:href="#DejaVuSerif-65" transform="translate(1728.923828 0)"/>
    </g>
    <!--  logscale = False, permutation test on the median. -->
    <g transform="translate(1.77125 47.76936) scale(0.12 -0.12)">
     <defs>
      <path id="DejaVuSerif-67" d="M 3359 2988 
L 3359 72 
Q 3359 -644 2965 -1033 
Q 2572 -1422 1844 -1422 
Q 1516 -1422 1216 -1362 
Q 916 -1303 641 -1184 
L 641 -488 
L 941 -488 
Q 997 -813 1206 -963 
Q 1416 -1113 1806 -1113 
Q 2313 -1113 2548 -827 
Q 2784 -541 2784 72 
L 2784 519 
Q 2616 206 2355 57 
Q 2094 -91 1709 -91 
Q 1097 -91 708 395 
Q 319 881 319 1663 
Q 319 2444 706 2928 
Q 1094 3413 1709 3413 
Q 2094 3413 2355 3264 
Q 2616 3116 2784 2803 
L 2784 3322 
L 3909 3322 
L 3909 2988 
L 3359 2988 
z
M 2784 1825 
Q 2784 2422 2554 2737 
Q 2325 3053 1888 3053 
Q 1444 3053 1217 2703 
Q 991 2353 991 1663 
Q 991 975 1217 622 
Q 1444 269 1888 269 
Q 2325 269 2554 583 
Q 2784 897 2784 1497 
L 2784 1825 
z
" transform="scale(0.015625)"/>
      <path id="DejaVuSerif-63" d="M 3291 997 
Q 3169 466 2822 187 
Q 2475 -91 1925 -91 
Q 1200 -91 759 389 
Q 319 869 319 1663 
Q 319 2459 759 2936 
Q 1200 3413 1925 3413 
Q 2241 3413 2553 3339 
Q 2866 3266 3181 3116 
L 3181 2266 
L 2847 2266 
Q 2781 2703 2561 2903 
Q 2341 3103 1931 3103 
Q 1466 3103 1228 2742 
Q 991 2381 991 1663 
Q 991 944 1227 581 
Q 1463 219 1931 219 
Q 2303 219 2525 412 
Q 2747 606 2828 997 
L 3291 997 
z
" transform="scale(0.015625)"/>
     </defs>
     <use xlink:href="#DejaVuSerif-20"/>
     <use xlink:href="#DejaVuSerif-6c" transform="translate(31.787109 0)"/>
     <use xlink:href="#DejaVuSerif-6f" transform="translate(63.769531 0)"/>
     <use xlink:href="#DejaVuSerif-67" transform="translate(123.974609 0)"/>
     <use xlink:href="#DejaVuSerif-73" transform="translate(187.988281 0)"/>
     <use xlink:href="#DejaVuSerif-63" transform="translate(239.306641 0)"/>
     <use xlink:href="#DejaVuSerif-61" transform="translate(295.3125 0)"/>
     <use xlink:href="#DejaVuSerif-6c" transform="translate(354.931641 0)"/>
     <use xlink:href="#DejaVuSerif-65" transform="translate(386.914062 0)"/>
     <use xlink:href="#DejaVuSerif-20" transform="translate(446.09375 0)"/>
     <use xlink:href="#DejaVuSerif-3d" transform="translate(477.880859 0)"/>
     <use xlink:href="#DejaVuSerif-20" transform="translate(561.669922 0)"/>
     <use xlink:href="#DejaVuSerif-46" transform="translate(593.457031 0)"/>
     <use xlink:href="#DejaVuSerif-61" transform="translate(656.091797 0)"/>
     <use xlink:href="#DejaVuSerif-6c" transform="translate(715.710938 0)"/>
     <use xlink:href="#DejaVuSerif-73" transform="translate(747.693359 0)"/>
     <use xlink:href="#DejaVuSerif-65" transform="translate(799.011719 0)"/>
     <use xlink:href="#DejaVuSerif-2c" transform="translate(858.191406 0)"/>
     <use xlink:href="#DejaVuSerif-20" transform="translate(889.978516 0)"/>
     <use xlink:href="#DejaVuSerif-70" transform="translate(921.765625 0)"/>
     <use xlink:href="#DejaVuSerif-65" transform="translate(985.779297 0)"/>
     <use xlink:href="#DejaVuSerif-72" transform="translate(1044.958984 0)"/>
     <use xlink:href="#DejaVuSerif-6d" transform="translate(1092.761719 0)"/>
     <use xlink:href="#DejaVuSerif-75" transform="translate(1187.585938 0)"/>
     <use xlink:href="#DejaVuSerif-74" transform="translate(1251.990234 0)"/>
     <use xlink:href="#DejaVuSerif-61" transform="translate(1292.175781 0)"/>
     <use xlink:href="#DejaVuSerif-74" transform="translate(1351.794922 0)"/>
     <use xlink:href="#DejaVuSerif-69" transform="translate(1391.980469 0)"/>
     <use xlink:href="#DejaVuSerif-6f" transform="translate(1423.962891 0)"/>
     <use xlink:href="#DejaVuSerif-6e" transform="translate(1484.167969 0)"/>
     <use xlink:href="#DejaVuSerif-20" transform="translate(1548.572266 0)"/>
     <use xlink:href="#DejaVuSerif-74" transform="translate(1580.359375 0)"/>
     <use xlink:href="#DejaVuSerif-65" transform="translate(1620.544922 0)"/>
     <use xlink:href="#DejaVuSerif-73" transform="translate(1679.724609 0)"/>
     <use xlink:href="#DejaVuSerif-74" transform="translate(1731.042969 0)"/>
     <use xlink:href="#DejaVuSerif-20" transform="translate(1771.228516 0)"/>
     <use xlink:href="#DejaVuSerif-6f" transform="translate(1803.015625 0)"/>
     <use xlink:href="#DejaVuSerif-6e" transform="translate(1863.220703 0)"/>
     <use xlink:href="#DejaVuSerif-20" transform="translate(1927.625 0)"/>
     <use xlink:href="#DejaVuSerif-74" transform="translate(1959.412109 0)"/>
     <use xlink:href="#DejaVuSerif-68" transform="translate(1999.597656 0)"/>
     <use xlink:href="#DejaVuSerif-65" transform="translate(2064.001953 0)"/>
     <use xlink:href="#DejaVuSerif-20" transform="translate(2123.181641 0)"/>
     <use xlink:href="#DejaVuSerif-6d" transform="translate(2154.96875 0)"/>
     <use xlink:href="#DejaVuSerif-65" transform="translate(2249.792969 0)"/>
     <use xlink:href="#DejaVuSerif-64" transform="translate(2308.972656 0)"/>
     <use xlink:href="#DejaVuSerif-69" transform="translate(2372.986328 0)"/>
     <use xlink:href="#DejaVuSerif-61" transform="translate(2404.96875 0)"/>
     <use xlink:href="#DejaVuSerif-6e" transform="translate(2464.587891 0)"/>
     <use xlink:href="#DejaVuSerif-2e" transform="translate(2528.992188 0)"/>
    </g>
   </g>
  </g>
 </g>
 <defs>
  <clipPath id="p61239812cb">
   <rect x="33.64" y="53.76936" width="243.56" height="263.46484"/>
  </clipPath>
 </defs>
</svg>
