<?xml version="1.0" encoding="utf-8" standalone="no"?>
<!DOCTYPE svg PUBLIC "-//W3C//DTD SVG 1.1//EN"
  "http://www.w3.org/Graphics/SVG/1.1/DTD/svg11.dtd">
<svg xmlns:xlink="http://www.w3.org/1999/xlink" width="288pt" height="432pt" viewBox="0 0 288 432" xmlns="http://www.w3.org/2000/svg" version="1.1">
 <metadata>
  <rdf:RDF xmlns:dc="http://purl.org/dc/elements/1.1/" xmlns:cc="http://creativecommons.org/ns#" xmlns:rdf="http://www.w3.org/1999/02/22-rdf-syntax-ns#">
   <cc:Work>
    <dc:type rdf:resource="http://purl.org/dc/dcmitype/StillImage"/>
    <dc:date>2025-08-18T15:29:16.852608</dc:date>
    <dc:format>image/svg+xml</dc:format>
    <dc:creator>
     <cc:Agent>
      <dc:title>Matplotlib v3.10.0, https://matplotlib.org/</dc:title>
     </cc:Agent>
    </dc:creator>
   </cc:Work>
  </rdf:RDF>
 </metadata>
 <defs>
  <style type="text/css">*{stroke-linejoin: round; stroke-linecap: butt}</style>
 </defs>
 <g id="figure_1">
  <g id="patch_1">
   <path d="M 0 432 
L 288 432 
L 288 0 
L 0 0 
z
" style="fill: #ffffff"/>
  </g>
  <g id="axes_1">
   <g id="patch_2">
    <path d="M 33.64 404.12 
L 277.2 404.12 
L 277.2 68.496 
L 33.64 68.496 
z
" style="fill: #ffffff"/>
   </g>
   <g id="PathCollection_1">
    <defs>
     <path id="C0_0_e01baaa263" d="M 0 3.872983 
C 1.027127 3.872983 2.012324 3.464901 2.738613 2.738613 
C 3.464901 2.012324 3.872983 1.027127 3.872983 -0 
C 3.872983 -1.027127 3.464901 -2.012324 2.738613 -2.738613 
C 2.012324 -3.464901 1.027127 -3.872983 0 -3.872983 
C -1.027127 -3.872983 -2.012324 -3.464901 -2.738613 -2.738613 
C -3.464901 -2.012324 -3.872983 -1.027127 -3.872983 0 
C -3.872983 1.027127 -3.464901 2.012324 -2.738613 2.738613 
C -2.012324 3.464901 -1.027127 3.872983 0 3.872983 
z
"/>
    </defs>
    <g clip-path="url(#pa161f62776)">
     <use xlink:href="#C0_0_e01baaa263" x="91.948425" y="354.275607" style="fill: #0000ff; fill-opacity: 0.4"/>
    </g>
    <g clip-path="url(#pa161f62776)">
     <use xlink:href="#C0_0_e01baaa263" x="95.599251" y="350.564737" style="fill: #0000ff; fill-opacity: 0.4"/>
    </g>
    <g clip-path="url(#pa161f62776)">
     <use xlink:href="#C0_0_e01baaa263" x="87.679844" y="346.211984" style="fill: #0000ff; fill-opacity: 0.4"/>
    </g>
    <g clip-path="url(#pa161f62776)">
     <use xlink:href="#C0_0_e01baaa263" x="91.302192" y="345.260141" style="fill: #0000ff; fill-opacity: 0.4"/>
    </g>
    <g clip-path="url(#pa161f62776)">
     <use xlink:href="#C0_0_e01baaa263" x="90.395308" y="319.239575" style="fill: #0000ff; fill-opacity: 0.4"/>
    </g>
    <g clip-path="url(#pa161f62776)">
     <use xlink:href="#C0_0_e01baaa263" x="84.876868" y="362.522427" style="fill: #0000ff; fill-opacity: 0.4"/>
    </g>
    <g clip-path="url(#pa161f62776)">
     <use xlink:href="#C0_0_e01baaa263" x="92.188074" y="368.997661" style="fill: #0000ff; fill-opacity: 0.4"/>
    </g>
    <g clip-path="url(#pa161f62776)">
     <use xlink:href="#C0_0_e01baaa263" x="90.634421" y="332.773489" style="fill: #0000ff; fill-opacity: 0.4"/>
    </g>
    <g clip-path="url(#pa161f62776)">
     <use xlink:href="#C0_0_e01baaa263" x="100.839236" y="347.996989" style="fill: #0000ff; fill-opacity: 0.4"/>
    </g>
    <g clip-path="url(#pa161f62776)">
     <use xlink:href="#C0_0_e01baaa263" x="96.177111" y="339.981536" style="fill: #0000ff; fill-opacity: 0.4"/>
    </g>
    <g clip-path="url(#pa161f62776)">
     <use xlink:href="#C0_0_e01baaa263" x="93.610794" y="364.993202" style="fill: #0000ff; fill-opacity: 0.4"/>
    </g>
    <g clip-path="url(#pa161f62776)">
     <use xlink:href="#C0_0_e01baaa263" x="97.423777" y="363.502306" style="fill: #0000ff; fill-opacity: 0.4"/>
    </g>
    <g clip-path="url(#pa161f62776)">
     <use xlink:href="#C0_0_e01baaa263" x="91.474084" y="295.491786" style="fill: #0000ff; fill-opacity: 0.4"/>
    </g>
    <g clip-path="url(#pa161f62776)">
     <use xlink:href="#C0_0_e01baaa263" x="95.936399" y="320.578069" style="fill: #0000ff; fill-opacity: 0.4"/>
    </g>
    <g clip-path="url(#pa161f62776)">
     <use xlink:href="#C0_0_e01baaa263" x="89.45533" y="304.349456" style="fill: #0000ff; fill-opacity: 0.4"/>
    </g>
    <g clip-path="url(#pa161f62776)">
     <use xlink:href="#C0_0_e01baaa263" x="100.172138" y="319.031749" style="fill: #0000ff; fill-opacity: 0.4"/>
    </g>
    <g clip-path="url(#pa161f62776)">
     <use xlink:href="#C0_0_e01baaa263" x="93.941926" y="371.819566" style="fill: #0000ff; fill-opacity: 0.4"/>
    </g>
    <g clip-path="url(#pa161f62776)">
     <use xlink:href="#C0_0_e01baaa263" x="91.084189" y="388.864364" style="fill: #0000ff; fill-opacity: 0.4"/>
    </g>
    <g clip-path="url(#pa161f62776)">
     <use xlink:href="#C0_0_e01baaa263" x="95.594336" y="383.028162" style="fill: #0000ff; fill-opacity: 0.4"/>
    </g>
    <g clip-path="url(#pa161f62776)">
     <use xlink:href="#C0_0_e01baaa263" x="97.474453" y="377.809357" style="fill: #0000ff; fill-opacity: 0.4"/>
    </g>
    <g clip-path="url(#pa161f62776)">
     <use xlink:href="#C0_0_e01baaa263" x="101.218837" y="362.907095" style="fill: #0000ff; fill-opacity: 0.4"/>
    </g>
    <g clip-path="url(#pa161f62776)">
     <use xlink:href="#C0_0_e01baaa263" x="96.817358" y="336.452032" style="fill: #0000ff; fill-opacity: 0.4"/>
    </g>
    <g clip-path="url(#pa161f62776)">
     <use xlink:href="#C0_0_e01baaa263" x="104.648531" y="343.989901" style="fill: #0000ff; fill-opacity: 0.4"/>
    </g>
    <g clip-path="url(#pa161f62776)">
     <use xlink:href="#C0_0_e01baaa263" x="93.769498" y="197.761409" style="fill: #0000ff; fill-opacity: 0.4"/>
    </g>
    <g clip-path="url(#pa161f62776)">
     <use xlink:href="#C0_0_e01baaa263" x="94.276525" y="214.285405" style="fill: #0000ff; fill-opacity: 0.4"/>
    </g>
    <g clip-path="url(#pa161f62776)">
     <use xlink:href="#C0_0_e01baaa263" x="93.059673" y="316.867702" style="fill: #0000ff; fill-opacity: 0.4"/>
    </g>
    <g clip-path="url(#pa161f62776)">
     <use xlink:href="#C0_0_e01baaa263" x="96.563232" y="306.426264" style="fill: #0000ff; fill-opacity: 0.4"/>
    </g>
    <g clip-path="url(#pa161f62776)">
     <use xlink:href="#C0_0_e01baaa263" x="97.820946" y="311.215393" style="fill: #0000ff; fill-opacity: 0.4"/>
    </g>
   </g>
   <g id="PathCollection_2">
    <defs>
     <path id="C1_0_793473998b" d="M 0 3.872983 
C 1.027127 3.872983 2.012324 3.464901 2.738613 2.738613 
C 3.464901 2.012324 3.872983 1.027127 3.872983 -0 
C 3.872983 -1.027127 3.464901 -2.012324 2.738613 -2.738613 
C 2.012324 -3.464901 1.027127 -3.872983 0 -3.872983 
C -1.027127 -3.872983 -2.012324 -3.464901 -2.738613 -2.738613 
C -3.464901 -2.012324 -3.872983 -1.027127 -3.872983 0 
C -3.872983 1.027127 -3.464901 2.012324 -2.738613 2.738613 
C -2.012324 3.464901 -1.027127 3.872983 0 3.872983 
z
"/>
    </defs>
    <g clip-path="url(#pa161f62776)">
     <use xlink:href="#C1_0_793473998b" x="142.001713" y="339.814308" style="fill: #808080; fill-opacity: 0.4"/>
    </g>
    <g clip-path="url(#pa161f62776)">
     <use xlink:href="#C1_0_793473998b" x="143.3632" y="302.73933" style="fill: #808080; fill-opacity: 0.4"/>
    </g>
    <g clip-path="url(#pa161f62776)">
     <use xlink:href="#C1_0_793473998b" x="142.809084" y="355.228898" style="fill: #808080; fill-opacity: 0.4"/>
    </g>
    <g clip-path="url(#pa161f62776)">
     <use xlink:href="#C1_0_793473998b" x="143.515168" y="322.178739" style="fill: #808080; fill-opacity: 0.4"/>
    </g>
    <g clip-path="url(#pa161f62776)">
     <use xlink:href="#C1_0_793473998b" x="154.675026" y="345.422128" style="fill: #808080; fill-opacity: 0.4"/>
    </g>
    <g clip-path="url(#pa161f62776)">
     <use xlink:href="#C1_0_793473998b" x="147.271516" y="333.473351" style="fill: #808080; fill-opacity: 0.4"/>
    </g>
    <g clip-path="url(#pa161f62776)">
     <use xlink:href="#C1_0_793473998b" x="151.098971" y="330.92722" style="fill: #808080; fill-opacity: 0.4"/>
    </g>
    <g clip-path="url(#pa161f62776)">
     <use xlink:href="#C1_0_793473998b" x="146.554649" y="286.765024" style="fill: #808080; fill-opacity: 0.4"/>
    </g>
    <g clip-path="url(#pa161f62776)">
     <use xlink:href="#C1_0_793473998b" x="155.287438" y="343.118635" style="fill: #808080; fill-opacity: 0.4"/>
    </g>
    <g clip-path="url(#pa161f62776)">
     <use xlink:href="#C1_0_793473998b" x="154.561727" y="223.760406" style="fill: #808080; fill-opacity: 0.4"/>
    </g>
    <g clip-path="url(#pa161f62776)">
     <use xlink:href="#C1_0_793473998b" x="143.205923" y="359.643444" style="fill: #808080; fill-opacity: 0.4"/>
    </g>
    <g clip-path="url(#pa161f62776)">
     <use xlink:href="#C1_0_793473998b" x="146.209726" y="320.714527" style="fill: #808080; fill-opacity: 0.4"/>
    </g>
    <g clip-path="url(#pa161f62776)">
     <use xlink:href="#C1_0_793473998b" x="137.579947" y="311.08575" style="fill: #808080; fill-opacity: 0.4"/>
    </g>
    <g clip-path="url(#pa161f62776)">
     <use xlink:href="#C1_0_793473998b" x="146.81514" y="355.687086" style="fill: #808080; fill-opacity: 0.4"/>
    </g>
    <g clip-path="url(#pa161f62776)">
     <use xlink:href="#C1_0_793473998b" x="155.434905" y="334.308582" style="fill: #808080; fill-opacity: 0.4"/>
    </g>
    <g clip-path="url(#pa161f62776)">
     <use xlink:href="#C1_0_793473998b" x="140.895635" y="316.532237" style="fill: #808080; fill-opacity: 0.4"/>
    </g>
    <g clip-path="url(#pa161f62776)">
     <use xlink:href="#C1_0_793473998b" x="146.31205" y="306.362248" style="fill: #808080; fill-opacity: 0.4"/>
    </g>
    <g clip-path="url(#pa161f62776)">
     <use xlink:href="#C1_0_793473998b" x="149.128384" y="325.913825" style="fill: #808080; fill-opacity: 0.4"/>
    </g>
    <g clip-path="url(#pa161f62776)">
     <use xlink:href="#C1_0_793473998b" x="149.446331" y="282.289775" style="fill: #808080; fill-opacity: 0.4"/>
    </g>
    <g clip-path="url(#pa161f62776)">
     <use xlink:href="#C1_0_793473998b" x="148.010822" y="300.487015" style="fill: #808080; fill-opacity: 0.4"/>
    </g>
    <g clip-path="url(#pa161f62776)">
     <use xlink:href="#C1_0_793473998b" x="143.644609" y="315.649406" style="fill: #808080; fill-opacity: 0.4"/>
    </g>
    <g clip-path="url(#pa161f62776)">
     <use xlink:href="#C1_0_793473998b" x="157.701346" y="331.142542" style="fill: #808080; fill-opacity: 0.4"/>
    </g>
    <g clip-path="url(#pa161f62776)">
     <use xlink:href="#C1_0_793473998b" x="151.579194" y="352.020263" style="fill: #808080; fill-opacity: 0.4"/>
    </g>
    <g clip-path="url(#pa161f62776)">
     <use xlink:href="#C1_0_793473998b" x="157.128227" y="360.208847" style="fill: #808080; fill-opacity: 0.4"/>
    </g>
    <g clip-path="url(#pa161f62776)">
     <use xlink:href="#C1_0_793473998b" x="158.227607" y="354.36914" style="fill: #808080; fill-opacity: 0.4"/>
    </g>
    <g clip-path="url(#pa161f62776)">
     <use xlink:href="#C1_0_793473998b" x="146.466495" y="366.839862" style="fill: #808080; fill-opacity: 0.4"/>
    </g>
    <g clip-path="url(#pa161f62776)">
     <use xlink:href="#C1_0_793473998b" x="153.421554" y="326.460265" style="fill: #808080; fill-opacity: 0.4"/>
    </g>
    <g clip-path="url(#pa161f62776)">
     <use xlink:href="#C1_0_793473998b" x="147.006297" y="312.188447" style="fill: #808080; fill-opacity: 0.4"/>
    </g>
    <g clip-path="url(#pa161f62776)">
     <use xlink:href="#C1_0_793473998b" x="152.53746" y="286.310825" style="fill: #808080; fill-opacity: 0.4"/>
    </g>
    <g clip-path="url(#pa161f62776)">
     <use xlink:href="#C1_0_793473998b" x="153.9036" y="183.601675" style="fill: #808080; fill-opacity: 0.4"/>
    </g>
    <g clip-path="url(#pa161f62776)">
     <use xlink:href="#C1_0_793473998b" x="157.713522" y="138.981906" style="fill: #808080; fill-opacity: 0.4"/>
    </g>
    <g clip-path="url(#pa161f62776)">
     <use xlink:href="#C1_0_793473998b" x="143.722907" y="278.349133" style="fill: #808080; fill-opacity: 0.4"/>
    </g>
    <g clip-path="url(#pa161f62776)">
     <use xlink:href="#C1_0_793473998b" x="158.230377" y="177.272468" style="fill: #808080; fill-opacity: 0.4"/>
    </g>
    <g clip-path="url(#pa161f62776)">
     <use xlink:href="#C1_0_793473998b" x="154.636104" y="224.791902" style="fill: #808080; fill-opacity: 0.4"/>
    </g>
    <g clip-path="url(#pa161f62776)">
     <use xlink:href="#C1_0_793473998b" x="147.831074" y="268.612383" style="fill: #808080; fill-opacity: 0.4"/>
    </g>
    <g clip-path="url(#pa161f62776)">
     <use xlink:href="#C1_0_793473998b" x="150.523813" y="315.44674" style="fill: #808080; fill-opacity: 0.4"/>
    </g>
    <g clip-path="url(#pa161f62776)">
     <use xlink:href="#C1_0_793473998b" x="156.054319" y="285.414897" style="fill: #808080; fill-opacity: 0.4"/>
    </g>
    <g clip-path="url(#pa161f62776)">
     <use xlink:href="#C1_0_793473998b" x="153.752266" y="293.881034" style="fill: #808080; fill-opacity: 0.4"/>
    </g>
    <g clip-path="url(#pa161f62776)">
     <use xlink:href="#C1_0_793473998b" x="158.100004" y="321.599722" style="fill: #808080; fill-opacity: 0.4"/>
    </g>
    <g clip-path="url(#pa161f62776)">
     <use xlink:href="#C1_0_793473998b" x="155.717257" y="309.913447" style="fill: #808080; fill-opacity: 0.4"/>
    </g>
    <g clip-path="url(#pa161f62776)">
     <use xlink:href="#C1_0_793473998b" x="162.928768" y="338.750937" style="fill: #808080; fill-opacity: 0.4"/>
    </g>
    <g clip-path="url(#pa161f62776)">
     <use xlink:href="#C1_0_793473998b" x="159.378308" y="349.445989" style="fill: #808080; fill-opacity: 0.4"/>
    </g>
    <g clip-path="url(#pa161f62776)">
     <use xlink:href="#C1_0_793473998b" x="147.113387" y="275.511203" style="fill: #808080; fill-opacity: 0.4"/>
    </g>
    <g clip-path="url(#pa161f62776)">
     <use xlink:href="#C1_0_793473998b" x="149.150218" y="361.520565" style="fill: #808080; fill-opacity: 0.4"/>
    </g>
    <g clip-path="url(#pa161f62776)">
     <use xlink:href="#C1_0_793473998b" x="153.085774" y="361.771975" style="fill: #808080; fill-opacity: 0.4"/>
    </g>
    <g clip-path="url(#pa161f62776)">
     <use xlink:href="#C1_0_793473998b" x="156.267515" y="370.734323" style="fill: #808080; fill-opacity: 0.4"/>
    </g>
    <g clip-path="url(#pa161f62776)">
     <use xlink:href="#C1_0_793473998b" x="161.355088" y="364.11968" style="fill: #808080; fill-opacity: 0.4"/>
    </g>
    <g clip-path="url(#pa161f62776)">
     <use xlink:href="#C1_0_793473998b" x="164.377354" y="361.02771" style="fill: #808080; fill-opacity: 0.4"/>
    </g>
    <g clip-path="url(#pa161f62776)">
     <use xlink:href="#C1_0_793473998b" x="160.899953" y="358.707647" style="fill: #808080; fill-opacity: 0.4"/>
    </g>
    <g clip-path="url(#pa161f62776)">
     <use xlink:href="#C1_0_793473998b" x="166.349903" y="352.142423" style="fill: #808080; fill-opacity: 0.4"/>
    </g>
    <g clip-path="url(#pa161f62776)">
     <use xlink:href="#C1_0_793473998b" x="170.167657" y="359.02202" style="fill: #808080; fill-opacity: 0.4"/>
    </g>
    <g clip-path="url(#pa161f62776)">
     <use xlink:href="#C1_0_793473998b" x="155.076991" y="299.285098" style="fill: #808080; fill-opacity: 0.4"/>
    </g>
    <g clip-path="url(#pa161f62776)">
     <use xlink:href="#C1_0_793473998b" x="157.435303" y="311.461942" style="fill: #808080; fill-opacity: 0.4"/>
    </g>
    <g clip-path="url(#pa161f62776)">
     <use xlink:href="#C1_0_793473998b" x="152.498277" y="265.057128" style="fill: #808080; fill-opacity: 0.4"/>
    </g>
    <g clip-path="url(#pa161f62776)">
     <use xlink:href="#C1_0_793473998b" x="163.529396" y="330.937644" style="fill: #808080; fill-opacity: 0.4"/>
    </g>
    <g clip-path="url(#pa161f62776)">
     <use xlink:href="#C1_0_793473998b" x="156.926206" y="213.418681" style="fill: #808080; fill-opacity: 0.4"/>
    </g>
    <g clip-path="url(#pa161f62776)">
     <use xlink:href="#C1_0_793473998b" x="157.928786" y="216.86436" style="fill: #808080; fill-opacity: 0.4"/>
    </g>
    <g clip-path="url(#pa161f62776)">
     <use xlink:href="#C1_0_793473998b" x="158.531905" y="323.274883" style="fill: #808080; fill-opacity: 0.4"/>
    </g>
    <g clip-path="url(#pa161f62776)">
     <use xlink:href="#C1_0_793473998b" x="150.91396" y="233.53368" style="fill: #808080; fill-opacity: 0.4"/>
    </g>
    <g clip-path="url(#pa161f62776)">
     <use xlink:href="#C1_0_793473998b" x="157.727746" y="261.460541" style="fill: #808080; fill-opacity: 0.4"/>
    </g>
    <g clip-path="url(#pa161f62776)">
     <use xlink:href="#C1_0_793473998b" x="152.130549" y="191.720739" style="fill: #808080; fill-opacity: 0.4"/>
    </g>
    <g clip-path="url(#pa161f62776)">
     <use xlink:href="#C1_0_793473998b" x="156.660688" y="233.588083" style="fill: #808080; fill-opacity: 0.4"/>
    </g>
    <g clip-path="url(#pa161f62776)">
     <use xlink:href="#C1_0_793473998b" x="160.357394" y="265.483863" style="fill: #808080; fill-opacity: 0.4"/>
    </g>
    <g clip-path="url(#pa161f62776)">
     <use xlink:href="#C1_0_793473998b" x="154.432947" y="239.953895" style="fill: #808080; fill-opacity: 0.4"/>
    </g>
    <g clip-path="url(#pa161f62776)">
     <use xlink:href="#C1_0_793473998b" x="153.505815" y="273.970853" style="fill: #808080; fill-opacity: 0.4"/>
    </g>
    <g clip-path="url(#pa161f62776)">
     <use xlink:href="#C1_0_793473998b" x="160.441376" y="279.968034" style="fill: #808080; fill-opacity: 0.4"/>
    </g>
    <g clip-path="url(#pa161f62776)">
     <use xlink:href="#C1_0_793473998b" x="158.160902" y="191.216335" style="fill: #808080; fill-opacity: 0.4"/>
    </g>
    <g clip-path="url(#pa161f62776)">
     <use xlink:href="#C1_0_793473998b" x="155.76777" y="166.460491" style="fill: #808080; fill-opacity: 0.4"/>
    </g>
    <g clip-path="url(#pa161f62776)">
     <use xlink:href="#C1_0_793473998b" x="153.65169" y="255.717562" style="fill: #808080; fill-opacity: 0.4"/>
    </g>
    <g clip-path="url(#pa161f62776)">
     <use xlink:href="#C1_0_793473998b" x="157.843163" y="234.753199" style="fill: #808080; fill-opacity: 0.4"/>
    </g>
    <g clip-path="url(#pa161f62776)">
     <use xlink:href="#C1_0_793473998b" x="156.865759" y="274.693245" style="fill: #808080; fill-opacity: 0.4"/>
    </g>
    <g clip-path="url(#pa161f62776)">
     <use xlink:href="#C1_0_793473998b" x="155.422673" y="299.778568" style="fill: #808080; fill-opacity: 0.4"/>
    </g>
    <g clip-path="url(#pa161f62776)">
     <use xlink:href="#C1_0_793473998b" x="160.883091" y="304.874397" style="fill: #808080; fill-opacity: 0.4"/>
    </g>
    <g clip-path="url(#pa161f62776)">
     <use xlink:href="#C1_0_793473998b" x="162.185968" y="310.201981" style="fill: #808080; fill-opacity: 0.4"/>
    </g>
    <g clip-path="url(#pa161f62776)">
     <use xlink:href="#C1_0_793473998b" x="166.188682" y="321.803841" style="fill: #808080; fill-opacity: 0.4"/>
    </g>
    <g clip-path="url(#pa161f62776)">
     <use xlink:href="#C1_0_793473998b" x="157.449073" y="256.564384" style="fill: #808080; fill-opacity: 0.4"/>
    </g>
    <g clip-path="url(#pa161f62776)">
     <use xlink:href="#C1_0_793473998b" x="164.268344" y="283.314179" style="fill: #808080; fill-opacity: 0.4"/>
    </g>
    <g clip-path="url(#pa161f62776)">
     <use xlink:href="#C1_0_793473998b" x="161.85249" y="268.195215" style="fill: #808080; fill-opacity: 0.4"/>
    </g>
    <g clip-path="url(#pa161f62776)">
     <use xlink:href="#C1_0_793473998b" x="165.573895" y="271.244743" style="fill: #808080; fill-opacity: 0.4"/>
    </g>
    <g clip-path="url(#pa161f62776)">
     <use xlink:href="#C1_0_793473998b" x="157.266109" y="290.556184" style="fill: #808080; fill-opacity: 0.4"/>
    </g>
    <g clip-path="url(#pa161f62776)">
     <use xlink:href="#C1_0_793473998b" x="169.841224" y="271.714082" style="fill: #808080; fill-opacity: 0.4"/>
    </g>
    <g clip-path="url(#pa161f62776)">
     <use xlink:href="#C1_0_793473998b" x="165.236143" y="303.474999" style="fill: #808080; fill-opacity: 0.4"/>
    </g>
    <g clip-path="url(#pa161f62776)">
     <use xlink:href="#C1_0_793473998b" x="168.42129" y="338.026218" style="fill: #808080; fill-opacity: 0.4"/>
    </g>
    <g clip-path="url(#pa161f62776)">
     <use xlink:href="#C1_0_793473998b" x="167.668765" y="325.608029" style="fill: #808080; fill-opacity: 0.4"/>
    </g>
    <g clip-path="url(#pa161f62776)">
     <use xlink:href="#C1_0_793473998b" x="168.568233" y="307.837422" style="fill: #808080; fill-opacity: 0.4"/>
    </g>
    <g clip-path="url(#pa161f62776)">
     <use xlink:href="#C1_0_793473998b" x="164.308031" y="314.187489" style="fill: #808080; fill-opacity: 0.4"/>
    </g>
    <g clip-path="url(#pa161f62776)">
     <use xlink:href="#C1_0_793473998b" x="171.160093" y="316.126678" style="fill: #808080; fill-opacity: 0.4"/>
    </g>
    <g clip-path="url(#pa161f62776)">
     <use xlink:href="#C1_0_793473998b" x="175.357678" y="317.882678" style="fill: #808080; fill-opacity: 0.4"/>
    </g>
   </g>
   <g id="PathCollection_3">
    <defs>
     <path id="C2_0_ea54ff3623" d="M 0 3.872983 
C 1.027127 3.872983 2.012324 3.464901 2.738613 2.738613 
C 3.464901 2.012324 3.872983 1.027127 3.872983 -0 
C 3.872983 -1.027127 3.464901 -2.012324 2.738613 -2.738613 
C 2.012324 -3.464901 1.027127 -3.872983 0 -3.872983 
C -1.027127 -3.872983 -2.012324 -3.464901 -2.738613 -2.738613 
C -3.464901 -2.012324 -3.872983 -1.027127 -3.872983 0 
C -3.872983 1.027127 -3.464901 2.012324 -2.738613 2.738613 
C -2.012324 3.464901 -1.027127 3.872983 0 3.872983 
z
"/>
    </defs>
    <g clip-path="url(#pa161f62776)">
     <use xlink:href="#C2_0_ea54ff3623" x="207.900813" y="324.204076" style="fill: #ff0000; fill-opacity: 0.4"/>
    </g>
    <g clip-path="url(#pa161f62776)">
     <use xlink:href="#C2_0_ea54ff3623" x="213.40998" y="350.564737" style="fill: #ff0000; fill-opacity: 0.4"/>
    </g>
    <g clip-path="url(#pa161f62776)">
     <use xlink:href="#C2_0_ea54ff3623" x="212.853863" y="296.814882" style="fill: #ff0000; fill-opacity: 0.4"/>
    </g>
    <g clip-path="url(#pa161f62776)">
     <use xlink:href="#C2_0_ea54ff3623" x="215.372337" y="222.886954" style="fill: #ff0000; fill-opacity: 0.4"/>
    </g>
    <g clip-path="url(#pa161f62776)">
     <use xlink:href="#C2_0_ea54ff3623" x="213.690403" y="335.228981" style="fill: #ff0000; fill-opacity: 0.4"/>
    </g>
    <g clip-path="url(#pa161f62776)">
     <use xlink:href="#C2_0_ea54ff3623" x="209.742868" y="325.354202" style="fill: #ff0000; fill-opacity: 0.4"/>
    </g>
    <g clip-path="url(#pa161f62776)">
     <use xlink:href="#C2_0_ea54ff3623" x="214.98195" y="293.441665" style="fill: #ff0000; fill-opacity: 0.4"/>
    </g>
    <g clip-path="url(#pa161f62776)">
     <use xlink:href="#C2_0_ea54ff3623" x="217.93756" y="334.770911" style="fill: #ff0000; fill-opacity: 0.4"/>
    </g>
    <g clip-path="url(#pa161f62776)">
     <use xlink:href="#C2_0_ea54ff3623" x="214.53073" y="374.768048" style="fill: #ff0000; fill-opacity: 0.4"/>
    </g>
    <g clip-path="url(#pa161f62776)">
     <use xlink:href="#C2_0_ea54ff3623" x="208.696443" y="272.547831" style="fill: #ff0000; fill-opacity: 0.4"/>
    </g>
    <g clip-path="url(#pa161f62776)">
     <use xlink:href="#C2_0_ea54ff3623" x="212.91012" y="253.21715" style="fill: #ff0000; fill-opacity: 0.4"/>
    </g>
    <g clip-path="url(#pa161f62776)">
     <use xlink:href="#C2_0_ea54ff3623" x="219.891018" y="293.587549" style="fill: #ff0000; fill-opacity: 0.4"/>
    </g>
    <g clip-path="url(#pa161f62776)">
     <use xlink:href="#C2_0_ea54ff3623" x="214.753382" y="273.352431" style="fill: #ff0000; fill-opacity: 0.4"/>
    </g>
    <g clip-path="url(#pa161f62776)">
     <use xlink:href="#C2_0_ea54ff3623" x="215.680214" y="345.318336" style="fill: #ff0000; fill-opacity: 0.4"/>
    </g>
    <g clip-path="url(#pa161f62776)">
     <use xlink:href="#C2_0_ea54ff3623" x="217.539534" y="384.158976" style="fill: #ff0000; fill-opacity: 0.4"/>
    </g>
    <g clip-path="url(#pa161f62776)">
     <use xlink:href="#C2_0_ea54ff3623" x="213.534728" y="312.403657" style="fill: #ff0000; fill-opacity: 0.4"/>
    </g>
    <g clip-path="url(#pa161f62776)">
     <use xlink:href="#C2_0_ea54ff3623" x="219.091193" y="348.675974" style="fill: #ff0000; fill-opacity: 0.4"/>
    </g>
    <g clip-path="url(#pa161f62776)">
     <use xlink:href="#C2_0_ea54ff3623" x="220.182979" y="283.178236" style="fill: #ff0000; fill-opacity: 0.4"/>
    </g>
    <g clip-path="url(#pa161f62776)">
     <use xlink:href="#C2_0_ea54ff3623" x="213.581572" y="327.110386" style="fill: #ff0000; fill-opacity: 0.4"/>
    </g>
    <g clip-path="url(#pa161f62776)">
     <use xlink:href="#C2_0_ea54ff3623" x="220.812592" y="334.974079" style="fill: #ff0000; fill-opacity: 0.4"/>
    </g>
    <g clip-path="url(#pa161f62776)">
     <use xlink:href="#C2_0_ea54ff3623" x="216.355411" y="324.179903" style="fill: #ff0000; fill-opacity: 0.4"/>
    </g>
    <g clip-path="url(#pa161f62776)">
     <use xlink:href="#C2_0_ea54ff3623" x="216.051162" y="208.359296" style="fill: #ff0000; fill-opacity: 0.4"/>
    </g>
    <g clip-path="url(#pa161f62776)">
     <use xlink:href="#C2_0_ea54ff3623" x="212.08626" y="217.453378" style="fill: #ff0000; fill-opacity: 0.4"/>
    </g>
    <g clip-path="url(#pa161f62776)">
     <use xlink:href="#C2_0_ea54ff3623" x="214.453605" y="232.734388" style="fill: #ff0000; fill-opacity: 0.4"/>
    </g>
    <g clip-path="url(#pa161f62776)">
     <use xlink:href="#C2_0_ea54ff3623" x="215.585249" y="170.574149" style="fill: #ff0000; fill-opacity: 0.4"/>
    </g>
    <g clip-path="url(#pa161f62776)">
     <use xlink:href="#C2_0_ea54ff3623" x="215.58091" y="216.478226" style="fill: #ff0000; fill-opacity: 0.4"/>
    </g>
    <g clip-path="url(#pa161f62776)">
     <use xlink:href="#C2_0_ea54ff3623" x="221.244286" y="211.346824" style="fill: #ff0000; fill-opacity: 0.4"/>
    </g>
    <g clip-path="url(#pa161f62776)">
     <use xlink:href="#C2_0_ea54ff3623" x="214.682993" y="277.459971" style="fill: #ff0000; fill-opacity: 0.4"/>
    </g>
    <g clip-path="url(#pa161f62776)">
     <use xlink:href="#C2_0_ea54ff3623" x="212.687172" y="243.068234" style="fill: #ff0000; fill-opacity: 0.4"/>
    </g>
    <g clip-path="url(#pa161f62776)">
     <use xlink:href="#C2_0_ea54ff3623" x="217.520003" y="239.686616" style="fill: #ff0000; fill-opacity: 0.4"/>
    </g>
    <g clip-path="url(#pa161f62776)">
     <use xlink:href="#C2_0_ea54ff3623" x="214.151606" y="194.547572" style="fill: #ff0000; fill-opacity: 0.4"/>
    </g>
    <g clip-path="url(#pa161f62776)">
     <use xlink:href="#C2_0_ea54ff3623" x="217.108979" y="248.100791" style="fill: #ff0000; fill-opacity: 0.4"/>
    </g>
    <g clip-path="url(#pa161f62776)">
     <use xlink:href="#C2_0_ea54ff3623" x="216.890904" y="260.038753" style="fill: #ff0000; fill-opacity: 0.4"/>
    </g>
    <g clip-path="url(#pa161f62776)">
     <use xlink:href="#C2_0_ea54ff3623" x="211.410841" y="304.048897" style="fill: #ff0000; fill-opacity: 0.4"/>
    </g>
    <g clip-path="url(#pa161f62776)">
     <use xlink:href="#C2_0_ea54ff3623" x="216.077935" y="316.867702" style="fill: #ff0000; fill-opacity: 0.4"/>
    </g>
    <g clip-path="url(#pa161f62776)">
     <use xlink:href="#C2_0_ea54ff3623" x="220.912712" y="313.375213" style="fill: #ff0000; fill-opacity: 0.4"/>
    </g>
    <g clip-path="url(#pa161f62776)">
     <use xlink:href="#C2_0_ea54ff3623" x="216.678733" y="302.237771" style="fill: #ff0000; fill-opacity: 0.4"/>
    </g>
    <g clip-path="url(#pa161f62776)">
     <use xlink:href="#C2_0_ea54ff3623" x="219.01539" y="241.568233" style="fill: #ff0000; fill-opacity: 0.4"/>
    </g>
    <g clip-path="url(#pa161f62776)">
     <use xlink:href="#C2_0_ea54ff3623" x="220.07169" y="273.86117" style="fill: #ff0000; fill-opacity: 0.4"/>
    </g>
    <g clip-path="url(#pa161f62776)">
     <use xlink:href="#C2_0_ea54ff3623" x="223.116218" y="276.836619" style="fill: #ff0000; fill-opacity: 0.4"/>
    </g>
    <g clip-path="url(#pa161f62776)">
     <use xlink:href="#C2_0_ea54ff3623" x="218.344014" y="227.129378" style="fill: #ff0000; fill-opacity: 0.4"/>
    </g>
    <g clip-path="url(#pa161f62776)">
     <use xlink:href="#C2_0_ea54ff3623" x="222.713832" y="327.248567" style="fill: #ff0000; fill-opacity: 0.4"/>
    </g>
    <g clip-path="url(#pa161f62776)">
     <use xlink:href="#C2_0_ea54ff3623" x="220.77535" y="311.090779" style="fill: #ff0000; fill-opacity: 0.4"/>
    </g>
    <g clip-path="url(#pa161f62776)">
     <use xlink:href="#C2_0_ea54ff3623" x="225.964639" y="324.524341" style="fill: #ff0000; fill-opacity: 0.4"/>
    </g>
   </g>
   <g id="FillBetweenPolyCollection_1">
    <path d="M 101.893647 388.864364 
L 87.166353 388.864364 
L 86.60568 386.934031 
L 86.040012 385.003698 
L 85.473449 383.073365 
L 84.910238 381.143032 
L 84.354704 379.212699 
L 83.811177 377.282366 
L 83.283921 375.352034 
L 82.777058 373.421701 
L 82.294499 371.491368 
L 81.839877 369.561035 
L 81.416483 367.630702 
L 81.027219 365.700369 
L 80.674548 363.770036 
L 80.360465 361.839703 
L 80.086475 359.90937 
L 79.853581 357.979038 
L 79.662296 356.048705 
L 79.512654 354.118372 
L 79.404243 352.188039 
L 79.336247 350.257706 
L 79.3075 348.327373 
L 79.316542 346.39704 
L 79.36169 344.466707 
L 79.441105 342.536375 
L 79.552863 340.606042 
L 79.695019 338.675709 
L 79.865673 336.745376 
L 80.063018 334.815043 
L 80.285382 332.88471 
L 80.53126 330.954377 
L 80.799322 329.024044 
L 81.088418 327.093712 
L 81.397561 325.163379 
L 81.7259 323.233046 
L 82.07268 321.302713 
L 82.437197 319.37238 
L 82.818742 317.442047 
L 83.216551 315.511714 
L 83.629745 313.581381 
L 84.057289 311.651049 
L 84.497948 309.720716 
L 84.950257 307.790383 
L 85.412505 305.86005 
L 85.882731 303.929717 
L 86.358739 301.999384 
L 86.838114 300.069051 
L 87.318268 298.138718 
L 87.796479 296.208386 
L 88.269954 294.278053 
L 88.735881 292.34772 
L 89.191498 290.417387 
L 89.634148 288.487054 
L 90.061341 286.556721 
L 90.470805 284.626388 
L 90.860526 282.696055 
L 91.228781 280.765723 
L 91.574163 278.83539 
L 91.895592 276.905057 
L 92.192311 274.974724 
L 92.463882 273.044391 
L 92.710167 271.114058 
L 92.931298 269.183725 
L 93.127654 267.253392 
L 93.299821 265.32306 
L 93.448559 263.392727 
L 93.574766 261.462394 
L 93.679448 259.532061 
L 93.763686 257.601728 
L 93.82861 255.671395 
L 93.875383 253.741062 
L 93.905181 251.810729 
L 93.919188 249.880397 
L 93.918587 247.950064 
L 93.904564 246.019731 
L 93.87831 244.089398 
L 93.841025 242.159065 
L 93.793928 240.228732 
L 93.738265 238.298399 
L 93.675311 236.368066 
L 93.60638 234.437734 
L 93.532824 232.507401 
L 93.456033 230.577068 
L 93.377423 228.646735 
L 93.298435 226.716402 
L 93.220513 224.786069 
L 93.145089 222.855736 
L 93.073561 220.925403 
L 93.007268 218.995071 
L 92.947467 217.064738 
L 92.895303 215.134405 
L 92.851788 213.204072 
L 92.817775 211.273739 
L 92.793941 209.343406 
L 92.780766 207.413073 
L 92.778528 205.48274 
L 92.787292 203.552408 
L 92.806913 201.622075 
L 92.83704 199.691742 
L 92.877131 197.761409 
L 96.182869 197.761409 
L 96.182869 197.761409 
L 96.22296 199.691742 
L 96.253087 201.622075 
L 96.272708 203.552408 
L 96.281472 205.48274 
L 96.279234 207.413073 
L 96.266059 209.343406 
L 96.242225 211.273739 
L 96.208212 213.204072 
L 96.164697 215.134405 
L 96.112533 217.064738 
L 96.052732 218.995071 
L 95.986439 220.925403 
L 95.914911 222.855736 
L 95.839487 224.786069 
L 95.761565 226.716402 
L 95.682577 228.646735 
L 95.603967 230.577068 
L 95.527176 232.507401 
L 95.45362 234.437734 
L 95.384689 236.368066 
L 95.321735 238.298399 
L 95.266072 240.228732 
L 95.218975 242.159065 
L 95.18169 244.089398 
L 95.155436 246.019731 
L 95.141413 247.950064 
L 95.140812 249.880397 
L 95.154819 251.810729 
L 95.184617 253.741062 
L 95.23139 255.671395 
L 95.296314 257.601728 
L 95.380552 259.532061 
L 95.485234 261.462394 
L 95.611441 263.392727 
L 95.760179 265.32306 
L 95.932346 267.253392 
L 96.128702 269.183725 
L 96.349833 271.114058 
L 96.596118 273.044391 
L 96.867689 274.974724 
L 97.164408 276.905057 
L 97.485837 278.83539 
L 97.831219 280.765723 
L 98.199474 282.696055 
L 98.589195 284.626388 
L 98.998659 286.556721 
L 99.425852 288.487054 
L 99.868502 290.417387 
L 100.324119 292.34772 
L 100.790046 294.278053 
L 101.263521 296.208386 
L 101.741732 298.138718 
L 102.221886 300.069051 
L 102.701261 301.999384 
L 103.177269 303.929717 
L 103.647495 305.86005 
L 104.109743 307.790383 
L 104.562052 309.720716 
L 105.002711 311.651049 
L 105.430255 313.581381 
L 105.843449 315.511714 
L 106.241258 317.442047 
L 106.622803 319.37238 
L 106.98732 321.302713 
L 107.3341 323.233046 
L 107.662439 325.163379 
L 107.971582 327.093712 
L 108.260678 329.024044 
L 108.52874 330.954377 
L 108.774618 332.88471 
L 108.996982 334.815043 
L 109.194327 336.745376 
L 109.364981 338.675709 
L 109.507137 340.606042 
L 109.618895 342.536375 
L 109.69831 344.466707 
L 109.743458 346.39704 
L 109.7525 348.327373 
L 109.723753 350.257706 
L 109.655757 352.188039 
L 109.547346 354.118372 
L 109.397704 356.048705 
L 109.206419 357.979038 
L 108.973525 359.90937 
L 108.699535 361.839703 
L 108.385452 363.770036 
L 108.032781 365.700369 
L 107.643517 367.630702 
L 107.220123 369.561035 
L 106.765501 371.491368 
L 106.282942 373.421701 
L 105.776079 375.352034 
L 105.248823 377.282366 
L 104.705296 379.212699 
L 104.149762 381.143032 
L 103.586551 383.073365 
L 103.019988 385.003698 
L 102.45432 386.934031 
L 101.893647 388.864364 
z
" clip-path="url(#pa161f62776)" style="fill: #0000ff; fill-opacity: 0.3"/>
   </g>
   <g id="FillBetweenPolyCollection_2">
    <path d="M 165.985706 370.734323 
L 144.854294 370.734323 
L 143.911758 368.39339 
L 142.978921 366.052456 
L 142.065063 363.711523 
L 141.178111 361.370589 
L 140.324376 359.029656 
L 139.508436 356.688722 
L 138.73317 354.347789 
L 137.999935 352.006855 
L 137.308869 349.665922 
L 136.659295 347.324988 
L 136.050166 344.984055 
L 135.480522 342.643121 
L 134.949898 340.302188 
L 134.458641 337.961254 
L 134.008109 335.620321 
L 133.600722 333.279387 
L 133.239864 330.938454 
L 132.92965 328.59752 
L 132.674573 326.256587 
L 132.479088 323.915653 
L 132.347153 321.57472 
L 132.2818 319.233786 
L 132.284767 316.892853 
L 132.356234 314.551919 
L 132.494697 312.210986 
L 132.696984 309.870052 
L 132.958416 307.529119 
L 133.2731 305.188185 
L 133.63432 302.847252 
L 134.034981 300.506318 
L 134.468077 298.165385 
L 134.927116 295.824451 
L 135.406478 293.483518 
L 135.901659 291.142584 
L 136.409393 288.801651 
L 136.927631 286.460717 
L 137.455394 284.119784 
L 137.992517 281.77885 
L 138.539314 279.437917 
L 139.096209 277.096983 
L 139.663361 274.75605 
L 140.240349 272.415116 
L 140.825919 270.074183 
L 141.417848 267.733249 
L 142.012921 265.392316 
L 142.607025 263.051382 
L 143.195355 260.710449 
L 143.772698 258.369515 
L 144.333774 256.028582 
L 144.873592 253.687648 
L 145.387786 251.346715 
L 145.872901 249.005781 
L 146.326594 246.664848 
L 146.747741 244.323914 
L 147.136446 241.982981 
L 147.493934 239.642047 
L 147.822375 237.301114 
L 148.124628 234.96018 
L 148.40396 232.619247 
L 148.663748 230.278313 
L 148.907206 227.93738 
L 149.137159 225.596446 
L 149.355878 223.255513 
L 149.564996 220.914579 
L 149.765495 218.573646 
L 149.957774 216.232712 
L 150.141773 213.891779 
L 150.317136 211.550845 
L 150.483399 209.209912 
L 150.640178 206.868978 
L 150.787324 204.528045 
L 150.925052 202.187111 
L 151.054013 199.846178 
L 151.175307 197.505244 
L 151.290446 195.164311 
L 151.401266 192.823377 
L 151.509798 190.482444 
L 151.618121 188.14151 
L 151.728202 185.800577 
L 151.841753 183.459643 
L 151.960105 181.11871 
L 152.084114 178.777776 
L 152.214119 176.436843 
L 152.349934 174.095909 
L 152.490885 171.754976 
L 152.635889 169.414042 
L 152.783555 167.073109 
L 152.932303 164.732175 
L 153.080491 162.391242 
L 153.226538 160.050308 
L 153.369022 157.709374 
L 153.506767 155.368441 
L 153.638893 153.027507 
L 153.764836 150.686574 
L 153.884344 148.34564 
L 153.997441 146.004707 
L 154.104375 143.663773 
L 154.205553 141.32284 
L 154.301469 138.981906 
L 156.538531 138.981906 
L 156.538531 138.981906 
L 156.634447 141.32284 
L 156.735625 143.663773 
L 156.842559 146.004707 
L 156.955656 148.34564 
L 157.075164 150.686574 
L 157.201107 153.027507 
L 157.333233 155.368441 
L 157.470978 157.709374 
L 157.613462 160.050308 
L 157.759509 162.391242 
L 157.907697 164.732175 
L 158.056445 167.073109 
L 158.204111 169.414042 
L 158.349115 171.754976 
L 158.490066 174.095909 
L 158.625881 176.436843 
L 158.755886 178.777776 
L 158.879895 181.11871 
L 158.998247 183.459643 
L 159.111798 185.800577 
L 159.221879 188.14151 
L 159.330202 190.482444 
L 159.438734 192.823377 
L 159.549554 195.164311 
L 159.664693 197.505244 
L 159.785987 199.846178 
L 159.914948 202.187111 
L 160.052676 204.528045 
L 160.199822 206.868978 
L 160.356601 209.209912 
L 160.522864 211.550845 
L 160.698227 213.891779 
L 160.882226 216.232712 
L 161.074505 218.573646 
L 161.275004 220.914579 
L 161.484122 223.255513 
L 161.702841 225.596446 
L 161.932794 227.93738 
L 162.176252 230.278313 
L 162.43604 232.619247 
L 162.715372 234.96018 
L 163.017625 237.301114 
L 163.346066 239.642047 
L 163.703554 241.982981 
L 164.092259 244.323914 
L 164.513406 246.664848 
L 164.967099 249.005781 
L 165.452214 251.346715 
L 165.966408 253.687648 
L 166.506226 256.028582 
L 167.067302 258.369515 
L 167.644645 260.710449 
L 168.232975 263.051382 
L 168.827079 265.392316 
L 169.422152 267.733249 
L 170.014081 270.074183 
L 170.599651 272.415116 
L 171.176639 274.75605 
L 171.743791 277.096983 
L 172.300686 279.437917 
L 172.847483 281.77885 
L 173.384606 284.119784 
L 173.912369 286.460717 
L 174.430607 288.801651 
L 174.938341 291.142584 
L 175.433522 293.483518 
L 175.912884 295.824451 
L 176.371923 298.165385 
L 176.805019 300.506318 
L 177.20568 302.847252 
L 177.5669 305.188185 
L 177.881584 307.529119 
L 178.143016 309.870052 
L 178.345303 312.210986 
L 178.483766 314.551919 
L 178.555233 316.892853 
L 178.5582 319.233786 
L 178.492847 321.57472 
L 178.360912 323.915653 
L 178.165427 326.256587 
L 177.91035 328.59752 
L 177.600136 330.938454 
L 177.239278 333.279387 
L 176.831891 335.620321 
L 176.381359 337.961254 
L 175.890102 340.302188 
L 175.359478 342.643121 
L 174.789834 344.984055 
L 174.180705 347.324988 
L 173.531131 349.665922 
L 172.840065 352.006855 
L 172.10683 354.347789 
L 171.331564 356.688722 
L 170.515624 359.029656 
L 169.661889 361.370589 
L 168.774937 363.711523 
L 167.861079 366.052456 
L 166.928242 368.39339 
L 165.985706 370.734323 
z
" clip-path="url(#pa161f62776)" style="fill: #808080; fill-opacity: 0.3"/>
   </g>
   <g id="FillBetweenPolyCollection_3">
    <path d="M 219.212948 384.158976 
L 213.407052 384.158976 
L 213.163763 382.001554 
L 212.903576 379.844131 
L 212.624845 377.686709 
L 212.325919 375.529286 
L 212.005234 373.371864 
L 211.661406 371.214441 
L 211.293336 369.057019 
L 210.900315 366.899596 
L 210.482118 364.742174 
L 210.039098 362.584751 
L 209.572254 360.427329 
L 209.083288 358.269906 
L 208.574625 356.112484 
L 208.049413 353.955061 
L 207.51149 351.797639 
L 206.965313 349.640216 
L 206.415872 347.482794 
L 205.868561 345.325371 
L 205.329037 343.167949 
L 204.803064 341.010526 
L 204.296341 338.853104 
L 203.814333 336.695681 
L 203.362109 334.538259 
L 202.944192 332.380836 
L 202.564432 330.223414 
L 202.225898 328.065991 
L 201.930814 325.908569 
L 201.680515 323.751146 
L 201.475444 321.593724 
L 201.315181 319.436301 
L 201.198501 317.278879 
L 201.12346 315.121456 
L 201.0875 312.964034 
L 201.087571 310.806611 
L 201.120256 308.649189 
L 201.181905 306.491766 
L 201.268756 304.334344 
L 201.37705 302.176921 
L 201.503131 300.019499 
L 201.643525 297.862076 
L 201.795 295.704654 
L 201.954609 293.547231 
L 202.119711 291.389809 
L 202.287971 289.232386 
L 202.457354 287.074964 
L 202.626102 284.917541 
L 202.792709 282.760119 
L 202.95589 280.602696 
L 203.114556 278.445274 
L 203.267788 276.287851 
L 203.414824 274.130429 
L 203.555051 271.973006 
L 203.688004 269.815584 
L 203.813377 267.658161 
L 203.931041 265.500739 
L 204.041061 263.343316 
L 204.143719 261.185894 
L 204.239538 259.028471 
L 204.329297 256.871049 
L 204.414042 254.713626 
L 204.495088 252.556204 
L 204.57401 250.398781 
L 204.652625 248.241359 
L 204.732954 246.083936 
L 204.817185 243.926514 
L 204.907613 241.769091 
L 205.006583 239.611669 
L 205.116418 237.454246 
L 205.239349 235.296824 
L 205.377444 233.139401 
L 205.532535 230.981979 
L 205.706157 228.824556 
L 205.899487 226.667134 
L 206.113303 224.509711 
L 206.347946 222.352289 
L 206.603302 220.194866 
L 206.878795 218.037444 
L 207.1734 215.880021 
L 207.485664 213.722599 
L 207.813747 211.565176 
L 208.155475 209.407754 
L 208.508397 207.250331 
L 208.869864 205.092909 
L 209.237095 202.935486 
L 209.607261 200.778064 
L 209.977562 198.620641 
L 210.345297 196.463219 
L 210.707932 194.305796 
L 211.063158 192.148374 
L 211.408932 189.990951 
L 211.743516 187.833529 
L 212.06549 185.676106 
L 212.373763 183.518684 
L 212.667562 181.361261 
L 212.946419 179.203839 
L 213.210138 177.046416 
L 213.458765 174.888994 
L 213.692544 172.731571 
L 213.91188 170.574149 
L 218.70812 170.574149 
L 218.70812 170.574149 
L 218.927456 172.731571 
L 219.161235 174.888994 
L 219.409862 177.046416 
L 219.673581 179.203839 
L 219.952438 181.361261 
L 220.246237 183.518684 
L 220.55451 185.676106 
L 220.876484 187.833529 
L 221.211068 189.990951 
L 221.556842 192.148374 
L 221.912068 194.305796 
L 222.274703 196.463219 
L 222.642438 198.620641 
L 223.012739 200.778064 
L 223.382905 202.935486 
L 223.750136 205.092909 
L 224.111603 207.250331 
L 224.464525 209.407754 
L 224.806253 211.565176 
L 225.134336 213.722599 
L 225.4466 215.880021 
L 225.741205 218.037444 
L 226.016698 220.194866 
L 226.272054 222.352289 
L 226.506697 224.509711 
L 226.720513 226.667134 
L 226.913843 228.824556 
L 227.087465 230.981979 
L 227.242556 233.139401 
L 227.380651 235.296824 
L 227.503582 237.454246 
L 227.613417 239.611669 
L 227.712387 241.769091 
L 227.802815 243.926514 
L 227.887046 246.083936 
L 227.967375 248.241359 
L 228.04599 250.398781 
L 228.124912 252.556204 
L 228.205958 254.713626 
L 228.290703 256.871049 
L 228.380462 259.028471 
L 228.476281 261.185894 
L 228.578939 263.343316 
L 228.688959 265.500739 
L 228.806623 267.658161 
L 228.931996 269.815584 
L 229.064949 271.973006 
L 229.205176 274.130429 
L 229.352212 276.287851 
L 229.505444 278.445274 
L 229.66411 280.602696 
L 229.827291 282.760119 
L 229.993898 284.917541 
L 230.162646 287.074964 
L 230.332029 289.232386 
L 230.500289 291.389809 
L 230.665391 293.547231 
L 230.825 295.704654 
L 230.976475 297.862076 
L 231.116869 300.019499 
L 231.24295 302.176921 
L 231.351244 304.334344 
L 231.438095 306.491766 
L 231.499744 308.649189 
L 231.532429 310.806611 
L 231.5325 312.964034 
L 231.49654 315.121456 
L 231.421499 317.278879 
L 231.304819 319.436301 
L 231.144556 321.593724 
L 230.939485 323.751146 
L 230.689186 325.908569 
L 230.394102 328.065991 
L 230.055568 330.223414 
L 229.675808 332.380836 
L 229.257891 334.538259 
L 228.805667 336.695681 
L 228.323659 338.853104 
L 227.816936 341.010526 
L 227.290963 343.167949 
L 226.751439 345.325371 
L 226.204128 347.482794 
L 225.654687 349.640216 
L 225.10851 351.797639 
L 224.570587 353.955061 
L 224.045375 356.112484 
L 223.536712 358.269906 
L 223.047746 360.427329 
L 222.580902 362.584751 
L 222.137882 364.742174 
L 221.719685 366.899596 
L 221.326664 369.057019 
L 220.958594 371.214441 
L 220.614766 373.371864 
L 220.294081 375.529286 
L 219.995155 377.686709 
L 219.716424 379.844131 
L 219.456237 382.001554 
L 219.212948 384.158976 
z
" clip-path="url(#pa161f62776)" style="fill: #ff0000; fill-opacity: 0.3"/>
   </g>
   <g id="matplotlib.axis_1">
    <g id="xtick_1">
     <g id="line2d_1">
      <defs>
       <path id="m8007c68b9a" d="M 0 0 
L 0 3.5 
" style="stroke: #000000; stroke-width: 0.8"/>
      </defs>
      <g>
       <use xlink:href="#m8007c68b9a" x="94.53" y="404.12" style="stroke: #000000; stroke-width: 0.8"/>
      </g>
     </g>
     <g id="text_1">
      <!-- sRC -->
      <g transform="translate(84.37375 418.718437) scale(0.1 -0.1)">
       <defs>
        <path id="DejaVuSerif-73" d="M 359 184 
L 359 959 
L 691 959 
Q 703 588 923 403 
Q 1144 219 1575 219 
Q 1963 219 2166 364 
Q 2369 509 2369 788 
Q 2369 1006 2220 1140 
Q 2072 1275 1594 1428 
L 1178 1569 
Q 750 1706 558 1912 
Q 366 2119 366 2438 
Q 366 2894 700 3153 
Q 1034 3413 1625 3413 
Q 1888 3413 2178 3344 
Q 2469 3275 2778 3144 
L 2778 2419 
L 2447 2419 
Q 2434 2741 2221 2922 
Q 2009 3103 1644 3103 
Q 1281 3103 1095 2975 
Q 909 2847 909 2591 
Q 909 2381 1050 2254 
Q 1191 2128 1613 1997 
L 2069 1856 
Q 2541 1709 2748 1489 
Q 2956 1269 2956 922 
Q 2956 450 2595 179 
Q 2234 -91 1600 -91 
Q 1278 -91 972 -22 
Q 666 47 359 184 
z
" transform="scale(0.015625)"/>
        <path id="DejaVuSerif-52" d="M 3066 2316 
Q 3284 2256 3442 2114 
Q 3600 1972 3725 1716 
L 4403 331 
L 4972 331 
L 4972 0 
L 3872 0 
L 3144 1484 
Q 2934 1916 2759 2042 
Q 2584 2169 2278 2169 
L 1581 2169 
L 1581 331 
L 2241 331 
L 2241 0 
L 353 0 
L 353 331 
L 947 331 
L 947 4331 
L 353 4331 
L 353 4666 
L 2719 4666 
Q 3400 4666 3770 4341 
Q 4141 4016 4141 3419 
Q 4141 2938 3870 2661 
Q 3600 2384 3066 2316 
z
M 1581 2503 
L 2503 2503 
Q 2975 2503 3200 2726 
Q 3425 2950 3425 3419 
Q 3425 3888 3200 4109 
Q 2975 4331 2503 4331 
L 1581 4331 
L 1581 2503 
z
" transform="scale(0.015625)"/>
        <path id="DejaVuSerif-43" d="M 4513 1234 
Q 4306 581 3820 245 
Q 3334 -91 2591 -91 
Q 2134 -91 1743 65 
Q 1353 222 1050 525 
Q 700 875 529 1320 
Q 359 1766 359 2328 
Q 359 3416 987 4083 
Q 1616 4750 2644 4750 
Q 3025 4750 3456 4650 
Q 3888 4550 4384 4347 
L 4384 3272 
L 4031 3272 
Q 3916 3859 3567 4137 
Q 3219 4416 2591 4416 
Q 1844 4416 1459 3886 
Q 1075 3356 1075 2328 
Q 1075 1303 1459 773 
Q 1844 244 2591 244 
Q 3113 244 3450 492 
Q 3788 741 3938 1234 
L 4513 1234 
z
" transform="scale(0.015625)"/>
       </defs>
       <use xlink:href="#DejaVuSerif-73"/>
       <use xlink:href="#DejaVuSerif-52" transform="translate(51.318359 0)"/>
       <use xlink:href="#DejaVuSerif-43" transform="translate(126.611328 0)"/>
      </g>
     </g>
    </g>
    <g id="xtick_2">
     <g id="line2d_2">
      <g>
       <use xlink:href="#m8007c68b9a" x="155.42" y="404.12" style="stroke: #000000; stroke-width: 0.8"/>
      </g>
     </g>
     <g id="text_2">
      <!-- Non-members WT -->
      <g transform="translate(109.503594 418.718437) scale(0.1 -0.1)">
       <defs>
        <path id="DejaVuSerif-4e" d="M 313 0 
L 313 331 
L 941 331 
L 941 4331 
L 313 4331 
L 313 4666 
L 1509 4666 
L 4306 984 
L 4306 4331 
L 3681 4331 
L 3681 4666 
L 5319 4666 
L 5319 4331 
L 4691 4331 
L 4691 -91 
L 4313 -91 
L 1325 3841 
L 1325 331 
L 1953 331 
L 1953 0 
L 313 0 
z
" transform="scale(0.015625)"/>
        <path id="DejaVuSerif-6f" d="M 1925 219 
Q 2388 219 2623 584 
Q 2859 950 2859 1663 
Q 2859 2375 2623 2739 
Q 2388 3103 1925 3103 
Q 1463 3103 1227 2739 
Q 991 2375 991 1663 
Q 991 950 1228 584 
Q 1466 219 1925 219 
z
M 1925 -91 
Q 1200 -91 759 389 
Q 319 869 319 1663 
Q 319 2456 758 2934 
Q 1197 3413 1925 3413 
Q 2653 3413 3092 2934 
Q 3531 2456 3531 1663 
Q 3531 869 3092 389 
Q 2653 -91 1925 -91 
z
" transform="scale(0.015625)"/>
        <path id="DejaVuSerif-6e" d="M 263 0 
L 263 331 
L 781 331 
L 781 2988 
L 231 2988 
L 231 3322 
L 1356 3322 
L 1356 2731 
Q 1516 3069 1770 3241 
Q 2025 3413 2363 3413 
Q 2913 3413 3172 3097 
Q 3431 2781 3431 2113 
L 3431 331 
L 3944 331 
L 3944 0 
L 2356 0 
L 2356 331 
L 2853 331 
L 2853 1931 
Q 2853 2541 2703 2767 
Q 2553 2994 2175 2994 
Q 1775 2994 1565 2701 
Q 1356 2409 1356 1850 
L 1356 331 
L 1856 331 
L 1856 0 
L 263 0 
z
" transform="scale(0.015625)"/>
        <path id="DejaVuSerif-2d" d="M 281 1959 
L 1881 1959 
L 1881 1472 
L 281 1472 
L 281 1959 
z
" transform="scale(0.015625)"/>
        <path id="DejaVuSerif-6d" d="M 3316 2675 
Q 3481 3041 3739 3227 
Q 3997 3413 4341 3413 
Q 4863 3413 5119 3089 
Q 5375 2766 5375 2113 
L 5375 331 
L 5894 331 
L 5894 0 
L 4300 0 
L 4300 331 
L 4800 331 
L 4800 2047 
Q 4800 2556 4650 2772 
Q 4500 2988 4153 2988 
Q 3769 2988 3567 2697 
Q 3366 2406 3366 1850 
L 3366 331 
L 3866 331 
L 3866 0 
L 2291 0 
L 2291 331 
L 2791 331 
L 2791 2069 
Q 2791 2566 2641 2777 
Q 2491 2988 2144 2988 
Q 1759 2988 1557 2697 
Q 1356 2406 1356 1850 
L 1356 331 
L 1856 331 
L 1856 0 
L 263 0 
L 263 331 
L 781 331 
L 781 2994 
L 231 2994 
L 231 3322 
L 1356 3322 
L 1356 2731 
Q 1516 3063 1762 3238 
Q 2009 3413 2322 3413 
Q 2709 3413 2968 3220 
Q 3228 3028 3316 2675 
z
" transform="scale(0.015625)"/>
        <path id="DejaVuSerif-65" d="M 3469 1600 
L 991 1600 
L 991 1575 
Q 991 903 1244 561 
Q 1497 219 1991 219 
Q 2369 219 2611 417 
Q 2853 616 2950 1006 
L 3413 1006 
Q 3275 459 2904 184 
Q 2534 -91 1931 -91 
Q 1203 -91 761 389 
Q 319 869 319 1663 
Q 319 2450 753 2931 
Q 1188 3413 1894 3413 
Q 2647 3413 3050 2948 
Q 3453 2484 3469 1600 
z
M 2791 1931 
Q 2772 2513 2545 2808 
Q 2319 3103 1894 3103 
Q 1497 3103 1269 2806 
Q 1041 2509 991 1931 
L 2791 1931 
z
" transform="scale(0.015625)"/>
        <path id="DejaVuSerif-62" d="M 738 331 
L 738 4531 
L 184 4531 
L 184 4863 
L 1313 4863 
L 1313 2803 
Q 1481 3116 1742 3264 
Q 2003 3413 2388 3413 
Q 3000 3413 3387 2928 
Q 3775 2444 3775 1663 
Q 3775 881 3387 395 
Q 3000 -91 2388 -91 
Q 2003 -91 1742 57 
Q 1481 206 1313 519 
L 1313 0 
L 184 0 
L 184 331 
L 738 331 
z
M 1313 1497 
Q 1313 897 1542 583 
Q 1772 269 2209 269 
Q 2650 269 2876 622 
Q 3103 975 3103 1663 
Q 3103 2353 2876 2703 
Q 2650 3053 2209 3053 
Q 1772 3053 1542 2737 
Q 1313 2422 1313 1825 
L 1313 1497 
z
" transform="scale(0.015625)"/>
        <path id="DejaVuSerif-72" d="M 3059 3328 
L 3059 2497 
L 2728 2497 
Q 2713 2744 2591 2866 
Q 2469 2988 2234 2988 
Q 1809 2988 1582 2694 
Q 1356 2400 1356 1850 
L 1356 331 
L 2022 331 
L 2022 0 
L 263 0 
L 263 331 
L 781 331 
L 781 2994 
L 231 2994 
L 231 3322 
L 1356 3322 
L 1356 2731 
Q 1525 3078 1790 3245 
Q 2056 3413 2438 3413 
Q 2578 3413 2733 3391 
Q 2888 3369 3059 3328 
z
" transform="scale(0.015625)"/>
        <path id="DejaVuSerif-20" transform="scale(0.015625)"/>
        <path id="DejaVuSerif-57" d="M 4878 0 
L 4366 0 
L 3297 3794 
L 2228 0 
L 1716 0 
L 494 4331 
L 31 4331 
L 31 4666 
L 1734 4666 
L 1734 4331 
L 1153 4331 
L 2125 884 
L 3188 4666 
L 3694 4666 
L 4775 844 
L 5753 4331 
L 5216 4331 
L 5216 4666 
L 6559 4666 
L 6559 4331 
L 6100 4331 
L 4878 0 
z
" transform="scale(0.015625)"/>
        <path id="DejaVuSerif-54" d="M 1222 0 
L 1222 331 
L 1819 331 
L 1819 4294 
L 447 4294 
L 447 3566 
L 63 3566 
L 63 4666 
L 4206 4666 
L 4206 3566 
L 3822 3566 
L 3822 4294 
L 2450 4294 
L 2450 331 
L 3047 331 
L 3047 0 
L 1222 0 
z
" transform="scale(0.015625)"/>
       </defs>
       <use xlink:href="#DejaVuSerif-4e"/>
       <use xlink:href="#DejaVuSerif-6f" transform="translate(87.5 0)"/>
       <use xlink:href="#DejaVuSerif-6e" transform="translate(147.705078 0)"/>
       <use xlink:href="#DejaVuSerif-2d" transform="translate(212.109375 0)"/>
       <use xlink:href="#DejaVuSerif-6d" transform="translate(245.898438 0)"/>
       <use xlink:href="#DejaVuSerif-65" transform="translate(340.722656 0)"/>
       <use xlink:href="#DejaVuSerif-6d" transform="translate(399.902344 0)"/>
       <use xlink:href="#DejaVuSerif-62" transform="translate(494.726562 0)"/>
       <use xlink:href="#DejaVuSerif-65" transform="translate(558.740234 0)"/>
       <use xlink:href="#DejaVuSerif-72" transform="translate(617.919922 0)"/>
       <use xlink:href="#DejaVuSerif-73" transform="translate(665.722656 0)"/>
       <use xlink:href="#DejaVuSerif-20" transform="translate(717.041016 0)"/>
       <use xlink:href="#DejaVuSerif-57" transform="translate(748.828125 0)"/>
       <use xlink:href="#DejaVuSerif-54" transform="translate(851.611328 0)"/>
      </g>
     </g>
    </g>
    <g id="xtick_3">
     <g id="line2d_3">
      <g>
       <use xlink:href="#m8007c68b9a" x="216.31" y="404.12" style="stroke: #000000; stroke-width: 0.8"/>
      </g>
     </g>
     <g id="text_3">
      <!-- mutants -->
      <g transform="translate(195.562344 418.718437) scale(0.1 -0.1)">
       <defs>
        <path id="DejaVuSerif-75" d="M 2266 3322 
L 3341 3322 
L 3341 331 
L 3884 331 
L 3884 0 
L 2766 0 
L 2766 588 
Q 2606 256 2353 82 
Q 2100 -91 1766 -91 
Q 1213 -91 952 223 
Q 691 538 691 1209 
L 691 2988 
L 172 2988 
L 172 3322 
L 1269 3322 
L 1269 1388 
Q 1269 781 1417 556 
Q 1566 331 1947 331 
Q 2347 331 2556 625 
Q 2766 919 2766 1478 
L 2766 2988 
L 2266 2988 
L 2266 3322 
z
" transform="scale(0.015625)"/>
        <path id="DejaVuSerif-74" d="M 691 2988 
L 184 2988 
L 184 3322 
L 691 3322 
L 691 4353 
L 1269 4353 
L 1269 3322 
L 2350 3322 
L 2350 2988 
L 1269 2988 
L 1269 878 
Q 1269 456 1350 337 
Q 1431 219 1650 219 
Q 1875 219 1978 351 
Q 2081 484 2088 781 
L 2522 781 
Q 2497 328 2275 118 
Q 2053 -91 1600 -91 
Q 1103 -91 897 129 
Q 691 350 691 878 
L 691 2988 
z
" transform="scale(0.015625)"/>
        <path id="DejaVuSerif-61" d="M 2547 1044 
L 2547 1747 
L 1806 1747 
Q 1378 1747 1168 1562 
Q 959 1378 959 997 
Q 959 650 1171 447 
Q 1384 244 1747 244 
Q 2106 244 2326 466 
Q 2547 688 2547 1044 
z
M 3122 2075 
L 3122 331 
L 3634 331 
L 3634 0 
L 2547 0 
L 2547 359 
Q 2356 128 2106 18 
Q 1856 -91 1522 -91 
Q 969 -91 644 203 
Q 319 497 319 997 
Q 319 1513 691 1797 
Q 1063 2081 1741 2081 
L 2547 2081 
L 2547 2309 
Q 2547 2688 2317 2895 
Q 2088 3103 1672 3103 
Q 1328 3103 1125 2947 
Q 922 2791 872 2484 
L 575 2484 
L 575 3156 
Q 875 3284 1158 3348 
Q 1441 3413 1709 3413 
Q 2400 3413 2761 3070 
Q 3122 2728 3122 2075 
z
" transform="scale(0.015625)"/>
       </defs>
       <use xlink:href="#DejaVuSerif-6d"/>
       <use xlink:href="#DejaVuSerif-75" transform="translate(94.824219 0)"/>
       <use xlink:href="#DejaVuSerif-74" transform="translate(159.228516 0)"/>
       <use xlink:href="#DejaVuSerif-61" transform="translate(199.414062 0)"/>
       <use xlink:href="#DejaVuSerif-6e" transform="translate(259.033203 0)"/>
       <use xlink:href="#DejaVuSerif-74" transform="translate(323.4375 0)"/>
       <use xlink:href="#DejaVuSerif-73" transform="translate(363.623047 0)"/>
      </g>
     </g>
    </g>
   </g>
   <g id="matplotlib.axis_2">
    <g id="ytick_1">
     <g id="line2d_4">
      <defs>
       <path id="m4e1c61b5b8" d="M 0 0 
L -3.5 0 
" style="stroke: #000000; stroke-width: 0.8"/>
      </defs>
      <g>
       <use xlink:href="#m4e1c61b5b8" x="33.64" y="382.439103" style="stroke: #000000; stroke-width: 0.8"/>
      </g>
     </g>
     <g id="text_4">
      <!-- 0.5 -->
      <g transform="translate(10.736875 386.238322) scale(0.1 -0.1)">
       <defs>
        <path id="DejaVuSerif-30" d="M 2034 219 
Q 2513 219 2750 744 
Q 2988 1269 2988 2328 
Q 2988 3391 2750 3916 
Q 2513 4441 2034 4441 
Q 1556 4441 1318 3916 
Q 1081 3391 1081 2328 
Q 1081 1269 1318 744 
Q 1556 219 2034 219 
z
M 2034 -91 
Q 1275 -91 848 546 
Q 422 1184 422 2328 
Q 422 3475 848 4112 
Q 1275 4750 2034 4750 
Q 2797 4750 3222 4112 
Q 3647 3475 3647 2328 
Q 3647 1184 3222 546 
Q 2797 -91 2034 -91 
z
" transform="scale(0.015625)"/>
        <path id="DejaVuSerif-2e" d="M 603 325 
Q 603 500 722 622 
Q 841 744 1019 744 
Q 1191 744 1312 622 
Q 1434 500 1434 325 
Q 1434 153 1312 31 
Q 1191 -91 1019 -91 
Q 841 -91 722 29 
Q 603 150 603 325 
z
" transform="scale(0.015625)"/>
        <path id="DejaVuSerif-35" d="M 3219 4666 
L 3219 4153 
L 1081 4153 
L 1081 2816 
Q 1244 2928 1461 2984 
Q 1678 3041 1947 3041 
Q 2703 3041 3140 2622 
Q 3578 2203 3578 1478 
Q 3578 738 3136 323 
Q 2694 -91 1894 -91 
Q 1572 -91 1234 -12 
Q 897 66 544 225 
L 544 1131 
L 897 1131 
Q 925 688 1179 453 
Q 1434 219 1894 219 
Q 2388 219 2653 544 
Q 2919 869 2919 1478 
Q 2919 2084 2655 2407 
Q 2391 2731 1894 2731 
Q 1613 2731 1398 2631 
Q 1184 2531 1019 2322 
L 750 2322 
L 750 4666 
L 3219 4666 
z
" transform="scale(0.015625)"/>
       </defs>
       <use xlink:href="#DejaVuSerif-30"/>
       <use xlink:href="#DejaVuSerif-2e" transform="translate(63.623047 0)"/>
       <use xlink:href="#DejaVuSerif-35" transform="translate(95.410156 0)"/>
      </g>
     </g>
    </g>
    <g id="ytick_2">
     <g id="line2d_5">
      <g>
       <use xlink:href="#m4e1c61b5b8" x="33.64" y="331.128125" style="stroke: #000000; stroke-width: 0.8"/>
      </g>
     </g>
     <g id="text_5">
      <!-- 1.0 -->
      <g transform="translate(10.736875 334.927343) scale(0.1 -0.1)">
       <defs>
        <path id="DejaVuSerif-31" d="M 909 0 
L 909 331 
L 1722 331 
L 1722 4213 
L 781 3603 
L 781 4013 
L 1919 4750 
L 2350 4750 
L 2350 331 
L 3163 331 
L 3163 0 
L 909 0 
z
" transform="scale(0.015625)"/>
       </defs>
       <use xlink:href="#DejaVuSerif-31"/>
       <use xlink:href="#DejaVuSerif-2e" transform="translate(63.623047 0)"/>
       <use xlink:href="#DejaVuSerif-30" transform="translate(95.410156 0)"/>
      </g>
     </g>
    </g>
    <g id="ytick_3">
     <g id="line2d_6">
      <g>
       <use xlink:href="#m4e1c61b5b8" x="33.64" y="279.817146" style="stroke: #000000; stroke-width: 0.8"/>
      </g>
     </g>
     <g id="text_6">
      <!-- 1.5 -->
      <g transform="translate(10.736875 283.616365) scale(0.1 -0.1)">
       <use xlink:href="#DejaVuSerif-31"/>
       <use xlink:href="#DejaVuSerif-2e" transform="translate(63.623047 0)"/>
       <use xlink:href="#DejaVuSerif-35" transform="translate(95.410156 0)"/>
      </g>
     </g>
    </g>
    <g id="ytick_4">
     <g id="line2d_7">
      <g>
       <use xlink:href="#m4e1c61b5b8" x="33.64" y="228.506168" style="stroke: #000000; stroke-width: 0.8"/>
      </g>
     </g>
     <g id="text_7">
      <!-- 2.0 -->
      <g transform="translate(10.736875 232.305387) scale(0.1 -0.1)">
       <defs>
        <path id="DejaVuSerif-32" d="M 819 3553 
L 469 3553 
L 469 4384 
Q 803 4563 1142 4656 
Q 1481 4750 1806 4750 
Q 2534 4750 2956 4397 
Q 3378 4044 3378 3438 
Q 3378 2753 2422 1800 
Q 2347 1728 2309 1691 
L 1131 513 
L 3078 513 
L 3078 1088 
L 3444 1088 
L 3444 0 
L 434 0 
L 434 341 
L 1850 1753 
Q 2319 2222 2519 2614 
Q 2719 3006 2719 3438 
Q 2719 3909 2473 4175 
Q 2228 4441 1797 4441 
Q 1350 4441 1106 4219 
Q 863 3997 819 3553 
z
" transform="scale(0.015625)"/>
       </defs>
       <use xlink:href="#DejaVuSerif-32"/>
       <use xlink:href="#DejaVuSerif-2e" transform="translate(63.623047 0)"/>
       <use xlink:href="#DejaVuSerif-30" transform="translate(95.410156 0)"/>
      </g>
     </g>
    </g>
    <g id="ytick_5">
     <g id="line2d_8">
      <g>
       <use xlink:href="#m4e1c61b5b8" x="33.64" y="177.19519" style="stroke: #000000; stroke-width: 0.8"/>
      </g>
     </g>
     <g id="text_8">
      <!-- 2.5 -->
      <g transform="translate(10.736875 180.994408) scale(0.1 -0.1)">
       <use xlink:href="#DejaVuSerif-32"/>
       <use xlink:href="#DejaVuSerif-2e" transform="translate(63.623047 0)"/>
       <use xlink:href="#DejaVuSerif-35" transform="translate(95.410156 0)"/>
      </g>
     </g>
    </g>
    <g id="ytick_6">
     <g id="line2d_9">
      <g>
       <use xlink:href="#m4e1c61b5b8" x="33.64" y="125.884211" style="stroke: #000000; stroke-width: 0.8"/>
      </g>
     </g>
     <g id="text_9">
      <!-- 3.0 -->
      <g transform="translate(10.736875 129.68343) scale(0.1 -0.1)">
       <defs>
        <path id="DejaVuSerif-33" d="M 622 4469 
Q 988 4606 1323 4678 
Q 1659 4750 1953 4750 
Q 2638 4750 3022 4454 
Q 3406 4159 3406 3634 
Q 3406 3213 3140 2930 
Q 2875 2647 2388 2547 
Q 2963 2466 3280 2130 
Q 3597 1794 3597 1259 
Q 3597 606 3158 257 
Q 2719 -91 1894 -91 
Q 1528 -91 1179 -12 
Q 831 66 488 225 
L 488 1131 
L 838 1131 
Q 869 681 1141 450 
Q 1413 219 1906 219 
Q 2384 219 2661 495 
Q 2938 772 2938 1253 
Q 2938 1803 2653 2086 
Q 2369 2369 1819 2369 
L 1522 2369 
L 1522 2688 
L 1678 2688 
Q 2225 2688 2498 2914 
Q 2772 3141 2772 3597 
Q 2772 4006 2547 4223 
Q 2322 4441 1900 4441 
Q 1478 4441 1245 4241 
Q 1013 4041 972 3647 
L 622 3647 
L 622 4469 
z
" transform="scale(0.015625)"/>
       </defs>
       <use xlink:href="#DejaVuSerif-33"/>
       <use xlink:href="#DejaVuSerif-2e" transform="translate(63.623047 0)"/>
       <use xlink:href="#DejaVuSerif-30" transform="translate(95.410156 0)"/>
      </g>
     </g>
    </g>
    <g id="ytick_7">
     <g id="line2d_10">
      <g>
       <use xlink:href="#m4e1c61b5b8" x="33.64" y="74.573233" style="stroke: #000000; stroke-width: 0.8"/>
      </g>
     </g>
     <g id="text_10">
      <!-- 3.5 -->
      <g transform="translate(10.736875 78.372452) scale(0.1 -0.1)">
       <use xlink:href="#DejaVuSerif-33"/>
       <use xlink:href="#DejaVuSerif-2e" transform="translate(63.623047 0)"/>
       <use xlink:href="#DejaVuSerif-35" transform="translate(95.410156 0)"/>
      </g>
     </g>
    </g>
   </g>
   <g id="line2d_11">
    <path d="M 85.3965 363.055898 
L 103.6635 363.055898 
L 103.6635 318.490738 
L 85.3965 318.490738 
L 85.3965 363.055898 
" clip-path="url(#pa161f62776)" style="fill: none; stroke: #000000; stroke-linecap: square"/>
   </g>
   <g id="line2d_12">
    <path d="M 94.53 363.055898 
L 94.53 388.864364 
" clip-path="url(#pa161f62776)" style="fill: none; stroke: #000000; stroke-linecap: square"/>
   </g>
   <g id="line2d_13">
    <path d="M 94.53 318.490738 
L 94.53 295.491786 
" clip-path="url(#pa161f62776)" style="fill: none; stroke: #000000; stroke-linecap: square"/>
   </g>
   <g id="line2d_14">
    <path d="M 89.96325 388.864364 
L 99.09675 388.864364 
" clip-path="url(#pa161f62776)" style="fill: none; stroke: #000000; stroke-linecap: square"/>
   </g>
   <g id="line2d_15">
    <path d="M 89.96325 295.491786 
L 99.09675 295.491786 
" clip-path="url(#pa161f62776)" style="fill: none; stroke: #000000; stroke-linecap: square"/>
   </g>
   <g id="line2d_16">
    <path d="M 146.2865 333.682158 
L 164.5535 333.682158 
L 164.5535 271.596747 
L 146.2865 271.596747 
L 146.2865 333.682158 
" clip-path="url(#pa161f62776)" style="fill: none; stroke: #000000; stroke-linecap: square"/>
   </g>
   <g id="line2d_17">
    <path d="M 155.42 333.682158 
L 155.42 370.734323 
" clip-path="url(#pa161f62776)" style="fill: none; stroke: #000000; stroke-linecap: square"/>
   </g>
   <g id="line2d_18">
    <path d="M 155.42 271.596747 
L 155.42 183.601675 
" clip-path="url(#pa161f62776)" style="fill: none; stroke: #000000; stroke-linecap: square"/>
   </g>
   <g id="line2d_19">
    <path d="M 150.85325 370.734323 
L 159.98675 370.734323 
" clip-path="url(#pa161f62776)" style="fill: none; stroke: #000000; stroke-linecap: square"/>
   </g>
   <g id="line2d_20">
    <path d="M 150.85325 183.601675 
L 159.98675 183.601675 
" clip-path="url(#pa161f62776)" style="fill: none; stroke: #000000; stroke-linecap: square"/>
   </g>
   <g id="line2d_21">
    <path d="M 207.1765 324.444275 
L 225.4435 324.444275 
L 225.4435 241.943234 
L 207.1765 241.943234 
L 207.1765 324.444275 
" clip-path="url(#pa161f62776)" style="fill: none; stroke: #000000; stroke-linecap: square"/>
   </g>
   <g id="line2d_22">
    <path d="M 216.31 324.444275 
L 216.31 384.158976 
" clip-path="url(#pa161f62776)" style="fill: none; stroke: #000000; stroke-linecap: square"/>
   </g>
   <g id="line2d_23">
    <path d="M 216.31 241.943234 
L 216.31 170.574149 
" clip-path="url(#pa161f62776)" style="fill: none; stroke: #000000; stroke-linecap: square"/>
   </g>
   <g id="line2d_24">
    <path d="M 211.74325 384.158976 
L 220.87675 384.158976 
" clip-path="url(#pa161f62776)" style="fill: none; stroke: #000000; stroke-linecap: square"/>
   </g>
   <g id="line2d_25">
    <path d="M 211.74325 170.574149 
L 220.87675 170.574149 
" clip-path="url(#pa161f62776)" style="fill: none; stroke: #000000; stroke-linecap: square"/>
   </g>
   <g id="LineCollection_1">
    <path d="M 86.91875 344.625021 
L 102.14125 344.625021 
" clip-path="url(#pa161f62776)" style="fill: none; stroke: #000000; stroke-width: 5"/>
    <path d="M 143.8509 310.057714 
L 166.9891 310.057714 
" clip-path="url(#pa161f62776)" style="fill: none; stroke: #000000; stroke-width: 5"/>
    <path d="M 208.69875 288.30995 
L 223.92125 288.30995 
" clip-path="url(#pa161f62776)" style="fill: none; stroke: #000000; stroke-width: 5"/>
   </g>
   <g id="line2d_26">
    <path d="M 91.4855 118.241663 
L 91.4855 112.744248 
L 152.3755 112.744248 
L 152.3755 118.241663 
" clip-path="url(#pa161f62776)" style="fill: none; stroke: #000000; stroke-linecap: square"/>
   </g>
   <g id="line2d_27">
    <path d="M 152.3755 89.826279 
L 152.3755 83.751636 
L 213.2655 83.751636 
L 213.2655 89.826279 
" clip-path="url(#pa161f62776)" style="fill: none; stroke: #000000; stroke-linecap: square"/>
   </g>
   <g id="patch_3">
    <path d="M 33.64 404.12 
L 33.64 68.496 
" style="fill: none; stroke: #000000; stroke-width: 0.8; stroke-linejoin: miter; stroke-linecap: square"/>
   </g>
   <g id="patch_4">
    <path d="M 277.2 404.12 
L 277.2 68.496 
" style="fill: none; stroke: #000000; stroke-width: 0.8; stroke-linejoin: miter; stroke-linecap: square"/>
   </g>
   <g id="patch_5">
    <path d="M 33.64 404.12 
L 277.2 404.12 
" style="fill: none; stroke: #000000; stroke-width: 0.8; stroke-linejoin: miter; stroke-linecap: square"/>
   </g>
   <g id="patch_6">
    <path d="M 33.64 68.496 
L 277.2 68.496 
" style="fill: none; stroke: #000000; stroke-width: 0.8; stroke-linejoin: miter; stroke-linecap: square"/>
   </g>
   <g id="text_11">
    <!-- ** -->
    <g transform="translate(116.9305 107.915854) scale(0.1 -0.1)">
     <defs>
      <path id="DejaVuSerif-2a" d="M 3097 3866 
L 1875 3297 
L 3097 2719 
L 2859 2350 
L 1772 3028 
L 1813 1838 
L 1388 1838 
L 1428 3028 
L 341 2350 
L 103 2719 
L 1325 3291 
L 103 3866 
L 341 4238 
L 1428 3559 
L 1388 4750 
L 1813 4750 
L 1772 3559 
L 2859 4238 
L 3097 3866 
z
" transform="scale(0.015625)"/>
     </defs>
     <use xlink:href="#DejaVuSerif-2a"/>
     <use xlink:href="#DejaVuSerif-2a" transform="translate(50 0)"/>
    </g>
   </g>
   <g id="text_12">
    <!-- * -->
    <g transform="translate(180.3205 78.634628) scale(0.1 -0.1)">
     <use xlink:href="#DejaVuSerif-2a"/>
    </g>
   </g>
   <g id="text_13">
    <!-- summed inNEF -->
    <g transform="translate(108.221563 22.183875) scale(0.12 -0.12)">
     <defs>
      <path id="DejaVuSerif-64" d="M 3359 331 
L 3909 331 
L 3909 0 
L 2784 0 
L 2784 519 
Q 2616 206 2355 57 
Q 2094 -91 1709 -91 
Q 1097 -91 708 395 
Q 319 881 319 1663 
Q 319 2444 706 2928 
Q 1094 3413 1709 3413 
Q 2094 3413 2355 3264 
Q 2616 3116 2784 2803 
L 2784 4531 
L 2241 4531 
L 2241 4863 
L 3359 4863 
L 3359 331 
z
M 2784 1497 
L 2784 1825 
Q 2784 2422 2554 2737 
Q 2325 3053 1888 3053 
Q 1444 3053 1217 2703 
Q 991 2353 991 1663 
Q 991 975 1217 622 
Q 1444 269 1888 269 
Q 2325 269 2554 583 
Q 2784 897 2784 1497 
z
" transform="scale(0.015625)"/>
      <path id="DejaVuSerif-69" d="M 622 4353 
Q 622 4497 726 4603 
Q 831 4709 978 4709 
Q 1122 4709 1226 4603 
Q 1331 4497 1331 4353 
Q 1331 4206 1228 4103 
Q 1125 4000 978 4000 
Q 831 4000 726 4103 
Q 622 4206 622 4353 
z
M 1356 331 
L 1900 331 
L 1900 0 
L 231 0 
L 231 331 
L 781 331 
L 781 2988 
L 231 2988 
L 231 3322 
L 1356 3322 
L 1356 331 
z
" transform="scale(0.015625)"/>
      <path id="DejaVuSerif-45" d="M 353 0 
L 353 331 
L 947 331 
L 947 4331 
L 353 4331 
L 353 4666 
L 4109 4666 
L 4109 3628 
L 3725 3628 
L 3725 4281 
L 1581 4281 
L 1581 2719 
L 3109 2719 
L 3109 3303 
L 3494 3303 
L 3494 1753 
L 3109 1753 
L 3109 2338 
L 1581 2338 
L 1581 384 
L 3775 384 
L 3775 1038 
L 4159 1038 
L 4159 0 
L 353 0 
z
" transform="scale(0.015625)"/>
      <path id="DejaVuSerif-46" d="M 353 0 
L 353 331 
L 947 331 
L 947 4331 
L 353 4331 
L 353 4666 
L 4172 4666 
L 4172 3628 
L 3788 3628 
L 3788 4281 
L 1581 4281 
L 1581 2719 
L 3175 2719 
L 3175 3303 
L 3559 3303 
L 3559 1753 
L 3175 1753 
L 3175 2338 
L 1581 2338 
L 1581 331 
L 2328 331 
L 2328 0 
L 353 0 
z
" transform="scale(0.015625)"/>
     </defs>
     <use xlink:href="#DejaVuSerif-73"/>
     <use xlink:href="#DejaVuSerif-75" transform="translate(51.318359 0)"/>
     <use xlink:href="#DejaVuSerif-6d" transform="translate(115.722656 0)"/>
     <use xlink:href="#DejaVuSerif-6d" transform="translate(210.546875 0)"/>
     <use xlink:href="#DejaVuSerif-65" transform="translate(305.371094 0)"/>
     <use xlink:href="#DejaVuSerif-64" transform="translate(364.550781 0)"/>
     <use xlink:href="#DejaVuSerif-20" transform="translate(428.564453 0)"/>
     <use xlink:href="#DejaVuSerif-69" transform="translate(460.351562 0)"/>
     <use xlink:href="#DejaVuSerif-6e" transform="translate(492.333984 0)"/>
     <use xlink:href="#DejaVuSerif-4e" transform="translate(556.738281 0)"/>
     <use xlink:href="#DejaVuSerif-45" transform="translate(644.238281 0)"/>
     <use xlink:href="#DejaVuSerif-46" transform="translate(717.236328 0)"/>
    </g>
    <!--  mnn = None thresh = 0, summation = mean -->
    <g transform="translate(17.726563 35.62125) scale(0.12 -0.12)">
     <defs>
      <path id="DejaVuSerif-3d" d="M 678 2894 
L 4684 2894 
L 4684 2394 
L 678 2394 
L 678 2894 
z
M 678 1619 
L 4684 1619 
L 4684 1119 
L 678 1119 
L 678 1619 
z
" transform="scale(0.015625)"/>
      <path id="DejaVuSerif-68" d="M 263 0 
L 263 331 
L 781 331 
L 781 4531 
L 231 4531 
L 231 4863 
L 1356 4863 
L 1356 2731 
Q 1516 3069 1770 3241 
Q 2025 3413 2363 3413 
Q 2913 3413 3172 3097 
Q 3431 2781 3431 2113 
L 3431 331 
L 3944 331 
L 3944 0 
L 2356 0 
L 2356 331 
L 2853 331 
L 2853 1931 
Q 2853 2541 2704 2764 
Q 2556 2988 2175 2988 
Q 1775 2988 1565 2697 
Q 1356 2406 1356 1850 
L 1356 331 
L 1856 331 
L 1856 0 
L 263 0 
z
" transform="scale(0.015625)"/>
      <path id="DejaVuSerif-2c" d="M 231 -622 
Q 525 -406 662 -114 
Q 800 178 800 594 
L 800 709 
L 1416 709 
Q 1391 175 1164 -208 
Q 938 -591 481 -872 
L 231 -622 
z
" transform="scale(0.015625)"/>
     </defs>
     <use xlink:href="#DejaVuSerif-20"/>
     <use xlink:href="#DejaVuSerif-6d" transform="translate(31.787109 0)"/>
     <use xlink:href="#DejaVuSerif-6e" transform="translate(126.611328 0)"/>
     <use xlink:href="#DejaVuSerif-6e" transform="translate(191.015625 0)"/>
     <use xlink:href="#DejaVuSerif-20" transform="translate(255.419922 0)"/>
     <use xlink:href="#DejaVuSerif-3d" transform="translate(287.207031 0)"/>
     <use xlink:href="#DejaVuSerif-20" transform="translate(370.996094 0)"/>
     <use xlink:href="#DejaVuSerif-4e" transform="translate(402.783203 0)"/>
     <use xlink:href="#DejaVuSerif-6f" transform="translate(490.283203 0)"/>
     <use xlink:href="#DejaVuSerif-6e" transform="translate(550.488281 0)"/>
     <use xlink:href="#DejaVuSerif-65" transform="translate(614.892578 0)"/>
     <use xlink:href="#DejaVuSerif-20" transform="translate(674.072266 0)"/>
     <use xlink:href="#DejaVuSerif-74" transform="translate(705.859375 0)"/>
     <use xlink:href="#DejaVuSerif-68" transform="translate(746.044922 0)"/>
     <use xlink:href="#DejaVuSerif-72" transform="translate(810.449219 0)"/>
     <use xlink:href="#DejaVuSerif-65" transform="translate(858.251953 0)"/>
     <use xlink:href="#DejaVuSerif-73" transform="translate(917.431641 0)"/>
     <use xlink:href="#DejaVuSerif-68" transform="translate(968.75 0)"/>
     <use xlink:href="#DejaVuSerif-20" transform="translate(1033.154297 0)"/>
     <use xlink:href="#DejaVuSerif-3d" transform="translate(1064.941406 0)"/>
     <use xlink:href="#DejaVuSerif-20" transform="translate(1148.730469 0)"/>
     <use xlink:href="#DejaVuSerif-30" transform="translate(1180.517578 0)"/>
     <use xlink:href="#DejaVuSerif-2c" transform="translate(1244.140625 0)"/>
     <use xlink:href="#DejaVuSerif-20" transform="translate(1275.927734 0)"/>
     <use xlink:href="#DejaVuSerif-73" transform="translate(1307.714844 0)"/>
     <use xlink:href="#DejaVuSerif-75" transform="translate(1359.033203 0)"/>
     <use xlink:href="#DejaVuSerif-6d" transform="translate(1423.4375 0)"/>
     <use xlink:href="#DejaVuSerif-6d" transform="translate(1518.261719 0)"/>
     <use xlink:href="#DejaVuSerif-61" transform="translate(1613.085938 0)"/>
     <use xlink:href="#DejaVuSerif-74" transform="translate(1672.705078 0)"/>
     <use xlink:href="#DejaVuSerif-69" transform="translate(1712.890625 0)"/>
     <use xlink:href="#DejaVuSerif-6f" transform="translate(1744.873047 0)"/>
     <use xlink:href="#DejaVuSerif-6e" transform="translate(1805.078125 0)"/>
     <use xlink:href="#DejaVuSerif-20" transform="translate(1869.482422 0)"/>
     <use xlink:href="#DejaVuSerif-3d" transform="translate(1901.269531 0)"/>
     <use xlink:href="#DejaVuSerif-20" transform="translate(1985.058594 0)"/>
     <use xlink:href="#DejaVuSerif-6d" transform="translate(2016.845703 0)"/>
     <use xlink:href="#DejaVuSerif-65" transform="translate(2111.669922 0)"/>
     <use xlink:href="#DejaVuSerif-61" transform="translate(2170.849609 0)"/>
     <use xlink:href="#DejaVuSerif-6e" transform="translate(2230.46875 0)"/>
    </g>
    <!--  norm. = CV, inGroupNorm = False -->
    <g transform="translate(48.134375 49.058625) scale(0.12 -0.12)">
     <defs>
      <path id="DejaVuSerif-56" d="M 1119 4331 
L 2497 750 
L 3872 4331 
L 3347 4331 
L 3347 4666 
L 4716 4666 
L 4716 4331 
L 4263 4331 
L 2597 0 
L 2059 0 
L 403 4331 
L -63 4331 
L -63 4666 
L 1638 4666 
L 1638 4331 
L 1119 4331 
z
" transform="scale(0.015625)"/>
      <path id="DejaVuSerif-47" d="M 4097 3272 
Q 3988 3856 3641 4136 
Q 3294 4416 2675 4416 
Q 1869 4416 1472 3897 
Q 1075 3378 1075 2328 
Q 1075 1300 1484 772 
Q 1894 244 2688 244 
Q 3041 244 3362 331 
Q 3684 419 3975 594 
L 3975 1797 
L 3097 1797 
L 3097 2131 
L 4609 2131 
L 4609 391 
Q 4194 150 3714 29 
Q 3234 -91 2688 -91 
Q 1631 -91 995 570 
Q 359 1231 359 2328 
Q 359 3434 996 4092 
Q 1634 4750 2713 4750 
Q 3113 4750 3539 4658 
Q 3966 4566 4447 4378 
L 4447 3272 
L 4097 3272 
z
" transform="scale(0.015625)"/>
      <path id="DejaVuSerif-70" d="M 1313 1825 
L 1313 1497 
Q 1313 897 1542 583 
Q 1772 269 2209 269 
Q 2650 269 2876 622 
Q 3103 975 3103 1663 
Q 3103 2353 2876 2703 
Q 2650 3053 2209 3053 
Q 1772 3053 1542 2737 
Q 1313 2422 1313 1825 
z
M 738 2988 
L 184 2988 
L 184 3322 
L 1313 3322 
L 1313 2803 
Q 1481 3116 1742 3264 
Q 2003 3413 2388 3413 
Q 3000 3413 3387 2928 
Q 3775 2444 3775 1663 
Q 3775 881 3387 395 
Q 3000 -91 2388 -91 
Q 2003 -91 1742 57 
Q 1481 206 1313 519 
L 1313 -997 
L 1856 -997 
L 1856 -1331 
L 184 -1331 
L 184 -997 
L 738 -997 
L 738 2988 
z
" transform="scale(0.015625)"/>
      <path id="DejaVuSerif-6c" d="M 1313 331 
L 1856 331 
L 1856 0 
L 184 0 
L 184 331 
L 738 331 
L 738 4531 
L 184 4531 
L 184 4863 
L 1313 4863 
L 1313 331 
z
" transform="scale(0.015625)"/>
     </defs>
     <use xlink:href="#DejaVuSerif-20"/>
     <use xlink:href="#DejaVuSerif-6e" transform="translate(31.787109 0)"/>
     <use xlink:href="#DejaVuSerif-6f" transform="translate(96.191406 0)"/>
     <use xlink:href="#DejaVuSerif-72" transform="translate(156.396484 0)"/>
     <use xlink:href="#DejaVuSerif-6d" transform="translate(204.199219 0)"/>
     <use xlink:href="#DejaVuSerif-2e" transform="translate(299.023438 0)"/>
     <use xlink:href="#DejaVuSerif-20" transform="translate(330.810547 0)"/>
     <use xlink:href="#DejaVuSerif-3d" transform="translate(362.597656 0)"/>
     <use xlink:href="#DejaVuSerif-20" transform="translate(446.386719 0)"/>
     <use xlink:href="#DejaVuSerif-43" transform="translate(478.173828 0)"/>
     <use xlink:href="#DejaVuSerif-56" transform="translate(554.6875 0)"/>
     <use xlink:href="#DejaVuSerif-2c" transform="translate(609.404297 0)"/>
     <use xlink:href="#DejaVuSerif-20" transform="translate(641.191406 0)"/>
     <use xlink:href="#DejaVuSerif-69" transform="translate(672.978516 0)"/>
     <use xlink:href="#DejaVuSerif-6e" transform="translate(704.960938 0)"/>
     <use xlink:href="#DejaVuSerif-47" transform="translate(769.365234 0)"/>
     <use xlink:href="#DejaVuSerif-72" transform="translate(849.248047 0)"/>
     <use xlink:href="#DejaVuSerif-6f" transform="translate(897.050781 0)"/>
     <use xlink:href="#DejaVuSerif-75" transform="translate(957.255859 0)"/>
     <use xlink:href="#DejaVuSerif-70" transform="translate(1021.660156 0)"/>
     <use xlink:href="#DejaVuSerif-4e" transform="translate(1085.673828 0)"/>
     <use xlink:href="#DejaVuSerif-6f" transform="translate(1173.173828 0)"/>
     <use xlink:href="#DejaVuSerif-72" transform="translate(1233.378906 0)"/>
     <use xlink:href="#DejaVuSerif-6d" transform="translate(1281.181641 0)"/>
     <use xlink:href="#DejaVuSerif-20" transform="translate(1376.005859 0)"/>
     <use xlink:href="#DejaVuSerif-3d" transform="translate(1407.792969 0)"/>
     <use xlink:href="#DejaVuSerif-20" transform="translate(1491.582031 0)"/>
     <use xlink:href="#DejaVuSerif-46" transform="translate(1523.369141 0)"/>
     <use xlink:href="#DejaVuSerif-61" transform="translate(1586.003906 0)"/>
     <use xlink:href="#DejaVuSerif-6c" transform="translate(1645.623047 0)"/>
     <use xlink:href="#DejaVuSerif-73" transform="translate(1677.605469 0)"/>
     <use xlink:href="#DejaVuSerif-65" transform="translate(1728.923828 0)"/>
    </g>
    <!--  logscale = False, permutation test on the median. -->
    <g transform="translate(1.77125 62.496) scale(0.12 -0.12)">
     <defs>
      <path id="DejaVuSerif-67" d="M 3359 2988 
L 3359 72 
Q 3359 -644 2965 -1033 
Q 2572 -1422 1844 -1422 
Q 1516 -1422 1216 -1362 
Q 916 -1303 641 -1184 
L 641 -488 
L 941 -488 
Q 997 -813 1206 -963 
Q 1416 -1113 1806 -1113 
Q 2313 -1113 2548 -827 
Q 2784 -541 2784 72 
L 2784 519 
Q 2616 206 2355 57 
Q 2094 -91 1709 -91 
Q 1097 -91 708 395 
Q 319 881 319 1663 
Q 319 2444 706 2928 
Q 1094 3413 1709 3413 
Q 2094 3413 2355 3264 
Q 2616 3116 2784 2803 
L 2784 3322 
L 3909 3322 
L 3909 2988 
L 3359 2988 
z
M 2784 1825 
Q 2784 2422 2554 2737 
Q 2325 3053 1888 3053 
Q 1444 3053 1217 2703 
Q 991 2353 991 1663 
Q 991 975 1217 622 
Q 1444 269 1888 269 
Q 2325 269 2554 583 
Q 2784 897 2784 1497 
L 2784 1825 
z
" transform="scale(0.015625)"/>
      <path id="DejaVuSerif-63" d="M 3291 997 
Q 3169 466 2822 187 
Q 2475 -91 1925 -91 
Q 1200 -91 759 389 
Q 319 869 319 1663 
Q 319 2459 759 2936 
Q 1200 3413 1925 3413 
Q 2241 3413 2553 3339 
Q 2866 3266 3181 3116 
L 3181 2266 
L 2847 2266 
Q 2781 2703 2561 2903 
Q 2341 3103 1931 3103 
Q 1466 3103 1228 2742 
Q 991 2381 991 1663 
Q 991 944 1227 581 
Q 1463 219 1931 219 
Q 2303 219 2525 412 
Q 2747 606 2828 997 
L 3291 997 
z
" transform="scale(0.015625)"/>
     </defs>
     <use xlink:href="#DejaVuSerif-20"/>
     <use xlink:href="#DejaVuSerif-6c" transform="translate(31.787109 0)"/>
     <use xlink:href="#DejaVuSerif-6f" transform="translate(63.769531 0)"/>
     <use xlink:href="#DejaVuSerif-67" transform="translate(123.974609 0)"/>
     <use xlink:href="#DejaVuSerif-73" transform="translate(187.988281 0)"/>
     <use xlink:href="#DejaVuSerif-63" transform="translate(239.306641 0)"/>
     <use xlink:href="#DejaVuSerif-61" transform="translate(295.3125 0)"/>
     <use xlink:href="#DejaVuSerif-6c" transform="translate(354.931641 0)"/>
     <use xlink:href="#DejaVuSerif-65" transform="translate(386.914062 0)"/>
     <use xlink:href="#DejaVuSerif-20" transform="translate(446.09375 0)"/>
     <use xlink:href="#DejaVuSerif-3d" transform="translate(477.880859 0)"/>
     <use xlink:href="#DejaVuSerif-20" transform="translate(561.669922 0)"/>
     <use xlink:href="#DejaVuSerif-46" transform="translate(593.457031 0)"/>
     <use xlink:href="#DejaVuSerif-61" transform="translate(656.091797 0)"/>
     <use xlink:href="#DejaVuSerif-6c" transform="translate(715.710938 0)"/>
     <use xlink:href="#DejaVuSerif-73" transform="translate(747.693359 0)"/>
     <use xlink:href="#DejaVuSerif-65" transform="translate(799.011719 0)"/>
     <use xlink:href="#DejaVuSerif-2c" transform="translate(858.191406 0)"/>
     <use xlink:href="#DejaVuSerif-20" transform="translate(889.978516 0)"/>
     <use xlink:href="#DejaVuSerif-70" transform="translate(921.765625 0)"/>
     <use xlink:href="#DejaVuSerif-65" transform="translate(985.779297 0)"/>
     <use xlink:href="#DejaVuSerif-72" transform="translate(1044.958984 0)"/>
     <use xlink:href="#DejaVuSerif-6d" transform="translate(1092.761719 0)"/>
     <use xlink:href="#DejaVuSerif-75" transform="translate(1187.585938 0)"/>
     <use xlink:href="#DejaVuSerif-74" transform="translate(1251.990234 0)"/>
     <use xlink:href="#DejaVuSerif-61" transform="translate(1292.175781 0)"/>
     <use xlink:href="#DejaVuSerif-74" transform="translate(1351.794922 0)"/>
     <use xlink:href="#DejaVuSerif-69" transform="translate(1391.980469 0)"/>
     <use xlink:href="#DejaVuSerif-6f" transform="translate(1423.962891 0)"/>
     <use xlink:href="#DejaVuSerif-6e" transform="translate(1484.167969 0)"/>
     <use xlink:href="#DejaVuSerif-20" transform="translate(1548.572266 0)"/>
     <use xlink:href="#DejaVuSerif-74" transform="translate(1580.359375 0)"/>
     <use xlink:href="#DejaVuSerif-65" transform="translate(1620.544922 0)"/>
     <use xlink:href="#DejaVuSerif-73" transform="translate(1679.724609 0)"/>
     <use xlink:href="#DejaVuSerif-74" transform="translate(1731.042969 0)"/>
     <use xlink:href="#DejaVuSerif-20" transform="translate(1771.228516 0)"/>
     <use xlink:href="#DejaVuSerif-6f" transform="translate(1803.015625 0)"/>
     <use xlink:href="#DejaVuSerif-6e" transform="translate(1863.220703 0)"/>
     <use xlink:href="#DejaVuSerif-20" transform="translate(1927.625 0)"/>
     <use xlink:href="#DejaVuSerif-74" transform="translate(1959.412109 0)"/>
     <use xlink:href="#DejaVuSerif-68" transform="translate(1999.597656 0)"/>
     <use xlink:href="#DejaVuSerif-65" transform="translate(2064.001953 0)"/>
     <use xlink:href="#DejaVuSerif-20" transform="translate(2123.181641 0)"/>
     <use xlink:href="#DejaVuSerif-6d" transform="translate(2154.96875 0)"/>
     <use xlink:href="#DejaVuSerif-65" transform="translate(2249.792969 0)"/>
     <use xlink:href="#DejaVuSerif-64" transform="translate(2308.972656 0)"/>
     <use xlink:href="#DejaVuSerif-69" transform="translate(2372.986328 0)"/>
     <use xlink:href="#DejaVuSerif-61" transform="translate(2404.96875 0)"/>
     <use xlink:href="#DejaVuSerif-6e" transform="translate(2464.587891 0)"/>
     <use xlink:href="#DejaVuSerif-2e" transform="translate(2528.992188 0)"/>
    </g>
   </g>
  </g>
 </g>
 <defs>
  <clipPath id="pa161f62776">
   <rect x="33.64" y="68.496" width="243.56" height="335.624"/>
  </clipPath>
 </defs>
</svg>
