<?xml version="1.0" encoding="utf-8" standalone="no"?>
<!DOCTYPE svg PUBLIC "-//W3C//DTD SVG 1.1//EN"
  "http://www.w3.org/Graphics/SVG/1.1/DTD/svg11.dtd">
<svg xmlns:xlink="http://www.w3.org/1999/xlink" width="288pt" height="432pt" viewBox="0 0 288 432" xmlns="http://www.w3.org/2000/svg" version="1.1">
 <metadata>
  <rdf:RDF xmlns:dc="http://purl.org/dc/elements/1.1/" xmlns:cc="http://creativecommons.org/ns#" xmlns:rdf="http://www.w3.org/1999/02/22-rdf-syntax-ns#">
   <cc:Work>
    <dc:type rdf:resource="http://purl.org/dc/dcmitype/StillImage"/>
    <dc:date>2025-08-13T14:59:53.794977</dc:date>
    <dc:format>image/svg+xml</dc:format>
    <dc:creator>
     <cc:Agent>
      <dc:title>Matplotlib v3.10.0, https://matplotlib.org/</dc:title>
     </cc:Agent>
    </dc:creator>
   </cc:Work>
  </rdf:RDF>
 </metadata>
 <defs>
  <style type="text/css">*{stroke-linejoin: round; stroke-linecap: butt}</style>
 </defs>
 <g id="figure_1">
  <g id="patch_1">
   <path d="M 0 432 
L 288 432 
L 288 0 
L 0 0 
z
" style="fill: #ffffff"/>
  </g>
  <g id="axes_1">
   <g id="patch_2">
    <path d="M 47.72 404.12 
L 277.2 404.12 
L 277.2 68.496 
L 47.72 68.496 
z
" style="fill: #ffffff"/>
   </g>
   <g id="PathCollection_1">
    <defs>
     <path id="m0a36a67cb9" d="M 0 5 
C 1.326016 5 2.597899 4.473168 3.535534 3.535534 
C 4.473168 2.597899 5 1.326016 5 0 
C 5 -1.326016 4.473168 -2.597899 3.535534 -3.535534 
C 2.597899 -4.473168 1.326016 -5 0 -5 
C -1.326016 -5 -2.597899 -4.473168 -3.535534 -3.535534 
C -4.473168 -2.597899 -5 -1.326016 -5 0 
C -5 1.326016 -4.473168 2.597899 -3.535534 3.535534 
C -2.597899 4.473168 -1.326016 5 0 5 
z
" style="stroke: #ff0000; stroke-opacity: 0.5"/>
    </defs>
    <g clip-path="url(#p588e28941b)">
     <use xlink:href="#m0a36a67cb9" x="95.172181" y="273.515061" style="fill: #ff0000; fill-opacity: 0.5; stroke: #ff0000; stroke-opacity: 0.5"/>
     <use xlink:href="#m0a36a67cb9" x="96.392722" y="285.43719" style="fill: #ff0000; fill-opacity: 0.5; stroke: #ff0000; stroke-opacity: 0.5"/>
     <use xlink:href="#m0a36a67cb9" x="98.925557" y="277.04489" style="fill: #ff0000; fill-opacity: 0.5; stroke: #ff0000; stroke-opacity: 0.5"/>
     <use xlink:href="#m0a36a67cb9" x="104.449519" y="269.42567" style="fill: #ff0000; fill-opacity: 0.5; stroke: #ff0000; stroke-opacity: 0.5"/>
     <use xlink:href="#m0a36a67cb9" x="101.474044" y="283.169095" style="fill: #ff0000; fill-opacity: 0.5; stroke: #ff0000; stroke-opacity: 0.5"/>
     <use xlink:href="#m0a36a67cb9" x="103.029319" y="249.964645" style="fill: #ff0000; fill-opacity: 0.5; stroke: #ff0000; stroke-opacity: 0.5"/>
     <use xlink:href="#m0a36a67cb9" x="102.63455" y="360.78232" style="fill: #ff0000; fill-opacity: 0.5; stroke: #ff0000; stroke-opacity: 0.5"/>
     <use xlink:href="#m0a36a67cb9" x="105.165274" y="231.535823" style="fill: #ff0000; fill-opacity: 0.5; stroke: #ff0000; stroke-opacity: 0.5"/>
     <use xlink:href="#m0a36a67cb9" x="105.484825" y="159.759425" style="fill: #ff0000; fill-opacity: 0.5; stroke: #ff0000; stroke-opacity: 0.5"/>
     <use xlink:href="#m0a36a67cb9" x="99.867849" y="331.498283" style="fill: #ff0000; fill-opacity: 0.5; stroke: #ff0000; stroke-opacity: 0.5"/>
     <use xlink:href="#m0a36a67cb9" x="97.20806" y="296.529028" style="fill: #ff0000; fill-opacity: 0.5; stroke: #ff0000; stroke-opacity: 0.5"/>
     <use xlink:href="#m0a36a67cb9" x="105.300993" y="250.158005" style="fill: #ff0000; fill-opacity: 0.5; stroke: #ff0000; stroke-opacity: 0.5"/>
     <use xlink:href="#m0a36a67cb9" x="104.664734" y="185.878815" style="fill: #ff0000; fill-opacity: 0.5; stroke: #ff0000; stroke-opacity: 0.5"/>
     <use xlink:href="#m0a36a67cb9" x="98.84321" y="297.439176" style="fill: #ff0000; fill-opacity: 0.5; stroke: #ff0000; stroke-opacity: 0.5"/>
     <use xlink:href="#m0a36a67cb9" x="101.88814" y="303.118954" style="fill: #ff0000; fill-opacity: 0.5; stroke: #ff0000; stroke-opacity: 0.5"/>
     <use xlink:href="#m0a36a67cb9" x="103.554086" y="304.873644" style="fill: #ff0000; fill-opacity: 0.5; stroke: #ff0000; stroke-opacity: 0.5"/>
     <use xlink:href="#m0a36a67cb9" x="107.037893" y="298.010822" style="fill: #ff0000; fill-opacity: 0.5; stroke: #ff0000; stroke-opacity: 0.5"/>
     <use xlink:href="#m0a36a67cb9" x="105.647701" y="368.628718" style="fill: #ff0000; fill-opacity: 0.5; stroke: #ff0000; stroke-opacity: 0.5"/>
     <use xlink:href="#m0a36a67cb9" x="100.688399" y="335.117751" style="fill: #ff0000; fill-opacity: 0.5; stroke: #ff0000; stroke-opacity: 0.5"/>
     <use xlink:href="#m0a36a67cb9" x="108.537557" y="247.852844" style="fill: #ff0000; fill-opacity: 0.5; stroke: #ff0000; stroke-opacity: 0.5"/>
     <use xlink:href="#m0a36a67cb9" x="104.580832" y="280.642939" style="fill: #ff0000; fill-opacity: 0.5; stroke: #ff0000; stroke-opacity: 0.5"/>
     <use xlink:href="#m0a36a67cb9" x="107.011533" y="367.173515" style="fill: #ff0000; fill-opacity: 0.5; stroke: #ff0000; stroke-opacity: 0.5"/>
     <use xlink:href="#m0a36a67cb9" x="103.850943" y="339.732656" style="fill: #ff0000; fill-opacity: 0.5; stroke: #ff0000; stroke-opacity: 0.5"/>
     <use xlink:href="#m0a36a67cb9" x="98.287679" y="329.618362" style="fill: #ff0000; fill-opacity: 0.5; stroke: #ff0000; stroke-opacity: 0.5"/>
     <use xlink:href="#m0a36a67cb9" x="105.748606" y="273.386933" style="fill: #ff0000; fill-opacity: 0.5; stroke: #ff0000; stroke-opacity: 0.5"/>
     <use xlink:href="#m0a36a67cb9" x="102.08671" y="324.784831" style="fill: #ff0000; fill-opacity: 0.5; stroke: #ff0000; stroke-opacity: 0.5"/>
     <use xlink:href="#m0a36a67cb9" x="108.65811" y="293.986927" style="fill: #ff0000; fill-opacity: 0.5; stroke: #ff0000; stroke-opacity: 0.5"/>
     <use xlink:href="#m0a36a67cb9" x="103.896788" y="319.816825" style="fill: #ff0000; fill-opacity: 0.5; stroke: #ff0000; stroke-opacity: 0.5"/>
     <use xlink:href="#m0a36a67cb9" x="111.054022" y="299.780237" style="fill: #ff0000; fill-opacity: 0.5; stroke: #ff0000; stroke-opacity: 0.5"/>
     <use xlink:href="#m0a36a67cb9" x="108.255142" y="284.354799" style="fill: #ff0000; fill-opacity: 0.5; stroke: #ff0000; stroke-opacity: 0.5"/>
     <use xlink:href="#m0a36a67cb9" x="111.171612" y="276.771886" style="fill: #ff0000; fill-opacity: 0.5; stroke: #ff0000; stroke-opacity: 0.5"/>
     <use xlink:href="#m0a36a67cb9" x="107.319528" y="320.011205" style="fill: #ff0000; fill-opacity: 0.5; stroke: #ff0000; stroke-opacity: 0.5"/>
     <use xlink:href="#m0a36a67cb9" x="112.759085" y="272.411695" style="fill: #ff0000; fill-opacity: 0.5; stroke: #ff0000; stroke-opacity: 0.5"/>
     <use xlink:href="#m0a36a67cb9" x="107.561669" y="319.006766" style="fill: #ff0000; fill-opacity: 0.5; stroke: #ff0000; stroke-opacity: 0.5"/>
     <use xlink:href="#m0a36a67cb9" x="114.990517" y="282.550701" style="fill: #ff0000; fill-opacity: 0.5; stroke: #ff0000; stroke-opacity: 0.5"/>
     <use xlink:href="#m0a36a67cb9" x="106.687702" y="178.518757" style="fill: #ff0000; fill-opacity: 0.5; stroke: #ff0000; stroke-opacity: 0.5"/>
     <use xlink:href="#m0a36a67cb9" x="106.752023" y="330.516671" style="fill: #ff0000; fill-opacity: 0.5; stroke: #ff0000; stroke-opacity: 0.5"/>
     <use xlink:href="#m0a36a67cb9" x="111.658419" y="316.391667" style="fill: #ff0000; fill-opacity: 0.5; stroke: #ff0000; stroke-opacity: 0.5"/>
     <use xlink:href="#m0a36a67cb9" x="108.876354" y="343.627336" style="fill: #ff0000; fill-opacity: 0.5; stroke: #ff0000; stroke-opacity: 0.5"/>
     <use xlink:href="#m0a36a67cb9" x="104.660317" y="143.784907" style="fill: #ff0000; fill-opacity: 0.5; stroke: #ff0000; stroke-opacity: 0.5"/>
     <use xlink:href="#m0a36a67cb9" x="111.520812" y="346.181511" style="fill: #ff0000; fill-opacity: 0.5; stroke: #ff0000; stroke-opacity: 0.5"/>
     <use xlink:href="#m0a36a67cb9" x="112.501669" y="299.984504" style="fill: #ff0000; fill-opacity: 0.5; stroke: #ff0000; stroke-opacity: 0.5"/>
    </g>
   </g>
   <g id="PathCollection_2">
    <defs>
     <path id="m26dae10f65" d="M 0 5 
C 1.326016 5 2.597899 4.473168 3.535534 3.535534 
C 4.473168 2.597899 5 1.326016 5 0 
C 5 -1.326016 4.473168 -2.597899 3.535534 -3.535534 
C 2.597899 -4.473168 1.326016 -5 0 -5 
C -1.326016 -5 -2.597899 -4.473168 -3.535534 -3.535534 
C -4.473168 -2.597899 -5 -1.326016 -5 0 
C -5 1.326016 -4.473168 2.597899 -3.535534 3.535534 
C -2.597899 4.473168 -1.326016 5 0 5 
z
" style="stroke: #808080; stroke-opacity: 0.5"/>
    </defs>
    <g clip-path="url(#p588e28941b)">
     <use xlink:href="#m26dae10f65" x="219.728973" y="364.380884" style="fill: #808080; fill-opacity: 0.5; stroke: #808080; stroke-opacity: 0.5"/>
     <use xlink:href="#m26dae10f65" x="212.182365" y="293.856254" style="fill: #808080; fill-opacity: 0.5; stroke: #808080; stroke-opacity: 0.5"/>
     <use xlink:href="#m26dae10f65" x="219.964226" y="284.531923" style="fill: #808080; fill-opacity: 0.5; stroke: #808080; stroke-opacity: 0.5"/>
     <use xlink:href="#m26dae10f65" x="203.788791" y="320.331572" style="fill: #808080; fill-opacity: 0.5; stroke: #808080; stroke-opacity: 0.5"/>
     <use xlink:href="#m26dae10f65" x="213.225954" y="299.473394" style="fill: #808080; fill-opacity: 0.5; stroke: #808080; stroke-opacity: 0.5"/>
     <use xlink:href="#m26dae10f65" x="212.412263" y="331.769445" style="fill: #808080; fill-opacity: 0.5; stroke: #808080; stroke-opacity: 0.5"/>
     <use xlink:href="#m26dae10f65" x="217.676466" y="304.810807" style="fill: #808080; fill-opacity: 0.5; stroke: #808080; stroke-opacity: 0.5"/>
     <use xlink:href="#m26dae10f65" x="206.462365" y="320.335727" style="fill: #808080; fill-opacity: 0.5; stroke: #808080; stroke-opacity: 0.5"/>
     <use xlink:href="#m26dae10f65" x="208.242235" y="324.582396" style="fill: #808080; fill-opacity: 0.5; stroke: #808080; stroke-opacity: 0.5"/>
     <use xlink:href="#m26dae10f65" x="211.703281" y="344.31261" style="fill: #808080; fill-opacity: 0.5; stroke: #808080; stroke-opacity: 0.5"/>
     <use xlink:href="#m26dae10f65" x="210.151141" y="326.591069" style="fill: #808080; fill-opacity: 0.5; stroke: #808080; stroke-opacity: 0.5"/>
     <use xlink:href="#m26dae10f65" x="213.1432" y="331.705094" style="fill: #808080; fill-opacity: 0.5; stroke: #808080; stroke-opacity: 0.5"/>
     <use xlink:href="#m26dae10f65" x="215.451297" y="328.77651" style="fill: #808080; fill-opacity: 0.5; stroke: #808080; stroke-opacity: 0.5"/>
     <use xlink:href="#m26dae10f65" x="217.063113" y="257.798268" style="fill: #808080; fill-opacity: 0.5; stroke: #808080; stroke-opacity: 0.5"/>
     <use xlink:href="#m26dae10f65" x="215.408434" y="343.544416" style="fill: #808080; fill-opacity: 0.5; stroke: #808080; stroke-opacity: 0.5"/>
     <use xlink:href="#m26dae10f65" x="211.083692" y="313.424078" style="fill: #808080; fill-opacity: 0.5; stroke: #808080; stroke-opacity: 0.5"/>
     <use xlink:href="#m26dae10f65" x="218.821098" y="331.8131" style="fill: #808080; fill-opacity: 0.5; stroke: #808080; stroke-opacity: 0.5"/>
     <use xlink:href="#m26dae10f65" x="218.013181" y="260.089761" style="fill: #808080; fill-opacity: 0.5; stroke: #808080; stroke-opacity: 0.5"/>
     <use xlink:href="#m26dae10f65" x="219.866734" y="328.576782" style="fill: #808080; fill-opacity: 0.5; stroke: #808080; stroke-opacity: 0.5"/>
     <use xlink:href="#m26dae10f65" x="220.154411" y="258.480161" style="fill: #808080; fill-opacity: 0.5; stroke: #808080; stroke-opacity: 0.5"/>
     <use xlink:href="#m26dae10f65" x="213.132856" y="340.925744" style="fill: #808080; fill-opacity: 0.5; stroke: #808080; stroke-opacity: 0.5"/>
     <use xlink:href="#m26dae10f65" x="219.384327" y="248.565975" style="fill: #808080; fill-opacity: 0.5; stroke: #808080; stroke-opacity: 0.5"/>
     <use xlink:href="#m26dae10f65" x="217.871447" y="272.869251" style="fill: #808080; fill-opacity: 0.5; stroke: #808080; stroke-opacity: 0.5"/>
     <use xlink:href="#m26dae10f65" x="218.325997" y="356.414364" style="fill: #808080; fill-opacity: 0.5; stroke: #808080; stroke-opacity: 0.5"/>
     <use xlink:href="#m26dae10f65" x="219.140244" y="344.176761" style="fill: #808080; fill-opacity: 0.5; stroke: #808080; stroke-opacity: 0.5"/>
     <use xlink:href="#m26dae10f65" x="213.484837" y="322.746199" style="fill: #808080; fill-opacity: 0.5; stroke: #808080; stroke-opacity: 0.5"/>
     <use xlink:href="#m26dae10f65" x="215.16863" y="321.566182" style="fill: #808080; fill-opacity: 0.5; stroke: #808080; stroke-opacity: 0.5"/>
     <use xlink:href="#m26dae10f65" x="218.913456" y="255.420061" style="fill: #808080; fill-opacity: 0.5; stroke: #808080; stroke-opacity: 0.5"/>
     <use xlink:href="#m26dae10f65" x="216.223506" y="293.999831" style="fill: #808080; fill-opacity: 0.5; stroke: #808080; stroke-opacity: 0.5"/>
     <use xlink:href="#m26dae10f65" x="218.551548" y="289.176661" style="fill: #808080; fill-opacity: 0.5; stroke: #808080; stroke-opacity: 0.5"/>
     <use xlink:href="#m26dae10f65" x="215.044774" y="297.648146" style="fill: #808080; fill-opacity: 0.5; stroke: #808080; stroke-opacity: 0.5"/>
     <use xlink:href="#m26dae10f65" x="214.451884" y="335.633924" style="fill: #808080; fill-opacity: 0.5; stroke: #808080; stroke-opacity: 0.5"/>
     <use xlink:href="#m26dae10f65" x="219.657538" y="345.240428" style="fill: #808080; fill-opacity: 0.5; stroke: #808080; stroke-opacity: 0.5"/>
     <use xlink:href="#m26dae10f65" x="223.159137" y="330.556981" style="fill: #808080; fill-opacity: 0.5; stroke: #808080; stroke-opacity: 0.5"/>
     <use xlink:href="#m26dae10f65" x="220.193414" y="288.994489" style="fill: #808080; fill-opacity: 0.5; stroke: #808080; stroke-opacity: 0.5"/>
     <use xlink:href="#m26dae10f65" x="219.227531" y="163.927402" style="fill: #808080; fill-opacity: 0.5; stroke: #808080; stroke-opacity: 0.5"/>
     <use xlink:href="#m26dae10f65" x="222.005312" y="257.880192" style="fill: #808080; fill-opacity: 0.5; stroke: #808080; stroke-opacity: 0.5"/>
     <use xlink:href="#m26dae10f65" x="212.02266" y="317.35013" style="fill: #808080; fill-opacity: 0.5; stroke: #808080; stroke-opacity: 0.5"/>
     <use xlink:href="#m26dae10f65" x="214.524991" y="318.632536" style="fill: #808080; fill-opacity: 0.5; stroke: #808080; stroke-opacity: 0.5"/>
     <use xlink:href="#m26dae10f65" x="218.300285" y="239.199002" style="fill: #808080; fill-opacity: 0.5; stroke: #808080; stroke-opacity: 0.5"/>
     <use xlink:href="#m26dae10f65" x="221.757346" y="353.504726" style="fill: #808080; fill-opacity: 0.5; stroke: #808080; stroke-opacity: 0.5"/>
     <use xlink:href="#m26dae10f65" x="215.972624" y="273.559979" style="fill: #808080; fill-opacity: 0.5; stroke: #808080; stroke-opacity: 0.5"/>
     <use xlink:href="#m26dae10f65" x="217.133525" y="322.295834" style="fill: #808080; fill-opacity: 0.5; stroke: #808080; stroke-opacity: 0.5"/>
     <use xlink:href="#m26dae10f65" x="221.560329" y="293.18953" style="fill: #808080; fill-opacity: 0.5; stroke: #808080; stroke-opacity: 0.5"/>
     <use xlink:href="#m26dae10f65" x="217.141563" y="315.436503" style="fill: #808080; fill-opacity: 0.5; stroke: #808080; stroke-opacity: 0.5"/>
     <use xlink:href="#m26dae10f65" x="219.092052" y="83.751636" style="fill: #808080; fill-opacity: 0.5; stroke: #808080; stroke-opacity: 0.5"/>
     <use xlink:href="#m26dae10f65" x="219.164832" y="368.906713" style="fill: #808080; fill-opacity: 0.5; stroke: #808080; stroke-opacity: 0.5"/>
     <use xlink:href="#m26dae10f65" x="220.314626" y="388.864364" style="fill: #808080; fill-opacity: 0.5; stroke: #808080; stroke-opacity: 0.5"/>
     <use xlink:href="#m26dae10f65" x="224.996148" y="328.808876" style="fill: #808080; fill-opacity: 0.5; stroke: #808080; stroke-opacity: 0.5"/>
     <use xlink:href="#m26dae10f65" x="218.76559" y="278.957088" style="fill: #808080; fill-opacity: 0.5; stroke: #808080; stroke-opacity: 0.5"/>
     <use xlink:href="#m26dae10f65" x="220.501126" y="372.031132" style="fill: #808080; fill-opacity: 0.5; stroke: #808080; stroke-opacity: 0.5"/>
     <use xlink:href="#m26dae10f65" x="219.386479" y="325.560762" style="fill: #808080; fill-opacity: 0.5; stroke: #808080; stroke-opacity: 0.5"/>
     <use xlink:href="#m26dae10f65" x="221.121759" y="235.882752" style="fill: #808080; fill-opacity: 0.5; stroke: #808080; stroke-opacity: 0.5"/>
     <use xlink:href="#m26dae10f65" x="220.92303" y="320.820917" style="fill: #808080; fill-opacity: 0.5; stroke: #808080; stroke-opacity: 0.5"/>
     <use xlink:href="#m26dae10f65" x="223.350166" y="291.47934" style="fill: #808080; fill-opacity: 0.5; stroke: #808080; stroke-opacity: 0.5"/>
     <use xlink:href="#m26dae10f65" x="221.982892" y="347.344658" style="fill: #808080; fill-opacity: 0.5; stroke: #808080; stroke-opacity: 0.5"/>
     <use xlink:href="#m26dae10f65" x="217.974738" y="336.393451" style="fill: #808080; fill-opacity: 0.5; stroke: #808080; stroke-opacity: 0.5"/>
     <use xlink:href="#m26dae10f65" x="220.563716" y="340.481762" style="fill: #808080; fill-opacity: 0.5; stroke: #808080; stroke-opacity: 0.5"/>
     <use xlink:href="#m26dae10f65" x="223.418915" y="339.977477" style="fill: #808080; fill-opacity: 0.5; stroke: #808080; stroke-opacity: 0.5"/>
     <use xlink:href="#m26dae10f65" x="221.543007" y="316.242169" style="fill: #808080; fill-opacity: 0.5; stroke: #808080; stroke-opacity: 0.5"/>
     <use xlink:href="#m26dae10f65" x="221.710349" y="273.224541" style="fill: #808080; fill-opacity: 0.5; stroke: #808080; stroke-opacity: 0.5"/>
     <use xlink:href="#m26dae10f65" x="223.478116" y="323.106871" style="fill: #808080; fill-opacity: 0.5; stroke: #808080; stroke-opacity: 0.5"/>
     <use xlink:href="#m26dae10f65" x="226.29709" y="293.09922" style="fill: #808080; fill-opacity: 0.5; stroke: #808080; stroke-opacity: 0.5"/>
     <use xlink:href="#m26dae10f65" x="227.082385" y="320.705021" style="fill: #808080; fill-opacity: 0.5; stroke: #808080; stroke-opacity: 0.5"/>
     <use xlink:href="#m26dae10f65" x="217.095984" y="297.373319" style="fill: #808080; fill-opacity: 0.5; stroke: #808080; stroke-opacity: 0.5"/>
     <use xlink:href="#m26dae10f65" x="219.909407" y="210.751984" style="fill: #808080; fill-opacity: 0.5; stroke: #808080; stroke-opacity: 0.5"/>
     <use xlink:href="#m26dae10f65" x="226.737175" y="328.128637" style="fill: #808080; fill-opacity: 0.5; stroke: #808080; stroke-opacity: 0.5"/>
     <use xlink:href="#m26dae10f65" x="221.619575" y="275.41896" style="fill: #808080; fill-opacity: 0.5; stroke: #808080; stroke-opacity: 0.5"/>
     <use xlink:href="#m26dae10f65" x="230.545122" y="323.114685" style="fill: #808080; fill-opacity: 0.5; stroke: #808080; stroke-opacity: 0.5"/>
     <use xlink:href="#m26dae10f65" x="219.652754" y="297.632152" style="fill: #808080; fill-opacity: 0.5; stroke: #808080; stroke-opacity: 0.5"/>
     <use xlink:href="#m26dae10f65" x="219.527502" y="227.110209" style="fill: #808080; fill-opacity: 0.5; stroke: #808080; stroke-opacity: 0.5"/>
     <use xlink:href="#m26dae10f65" x="220.234245" y="140.540431" style="fill: #808080; fill-opacity: 0.5; stroke: #808080; stroke-opacity: 0.5"/>
     <use xlink:href="#m26dae10f65" x="221.762422" y="309.325379" style="fill: #808080; fill-opacity: 0.5; stroke: #808080; stroke-opacity: 0.5"/>
     <use xlink:href="#m26dae10f65" x="223.380032" y="278.640785" style="fill: #808080; fill-opacity: 0.5; stroke: #808080; stroke-opacity: 0.5"/>
     <use xlink:href="#m26dae10f65" x="223.219818" y="302.824768" style="fill: #808080; fill-opacity: 0.5; stroke: #808080; stroke-opacity: 0.5"/>
     <use xlink:href="#m26dae10f65" x="224.633455" y="300.240198" style="fill: #808080; fill-opacity: 0.5; stroke: #808080; stroke-opacity: 0.5"/>
     <use xlink:href="#m26dae10f65" x="224.294384" y="349.465963" style="fill: #808080; fill-opacity: 0.5; stroke: #808080; stroke-opacity: 0.5"/>
     <use xlink:href="#m26dae10f65" x="231.346925" y="323.335775" style="fill: #808080; fill-opacity: 0.5; stroke: #808080; stroke-opacity: 0.5"/>
     <use xlink:href="#m26dae10f65" x="224.742817" y="337.4701" style="fill: #808080; fill-opacity: 0.5; stroke: #808080; stroke-opacity: 0.5"/>
     <use xlink:href="#m26dae10f65" x="221.825777" y="312.888523" style="fill: #808080; fill-opacity: 0.5; stroke: #808080; stroke-opacity: 0.5"/>
     <use xlink:href="#m26dae10f65" x="234.478645" y="326.686512" style="fill: #808080; fill-opacity: 0.5; stroke: #808080; stroke-opacity: 0.5"/>
     <use xlink:href="#m26dae10f65" x="224.997122" y="315.019329" style="fill: #808080; fill-opacity: 0.5; stroke: #808080; stroke-opacity: 0.5"/>
     <use xlink:href="#m26dae10f65" x="227.108361" y="313.439104" style="fill: #808080; fill-opacity: 0.5; stroke: #808080; stroke-opacity: 0.5"/>
     <use xlink:href="#m26dae10f65" x="229.375238" y="315.537042" style="fill: #808080; fill-opacity: 0.5; stroke: #808080; stroke-opacity: 0.5"/>
     <use xlink:href="#m26dae10f65" x="227.942857" y="348.543357" style="fill: #808080; fill-opacity: 0.5; stroke: #808080; stroke-opacity: 0.5"/>
     <use xlink:href="#m26dae10f65" x="226.940778" y="336.462448" style="fill: #808080; fill-opacity: 0.5; stroke: #808080; stroke-opacity: 0.5"/>
     <use xlink:href="#m26dae10f65" x="227.407782" y="303.842072" style="fill: #808080; fill-opacity: 0.5; stroke: #808080; stroke-opacity: 0.5"/>
     <use xlink:href="#m26dae10f65" x="234.981347" y="320.313558" style="fill: #808080; fill-opacity: 0.5; stroke: #808080; stroke-opacity: 0.5"/>
    </g>
   </g>
   <g id="FillBetweenPolyCollection_1">
    <path d="M 110.529652 368.628718 
L 99.650348 368.628718 
L 99.205393 366.357568 
L 98.747392 364.086419 
L 98.277855 361.815269 
L 97.79841 359.544119 
L 97.310801 357.27297 
L 96.816874 355.00182 
L 96.318565 352.730671 
L 95.817885 350.459521 
L 95.316891 348.188371 
L 94.81766 345.917222 
L 94.322258 343.646072 
L 93.832709 341.374922 
L 93.350964 339.103773 
L 92.878879 336.832623 
L 92.418198 334.561474 
L 91.970548 332.290324 
L 91.537444 330.019174 
L 91.120311 327.748025 
L 90.720516 325.476875 
L 90.339407 323.205726 
L 89.978366 320.934576 
L 89.638862 318.663426 
L 89.322502 316.392277 
L 89.031076 314.121127 
L 88.766587 311.849978 
L 88.531267 309.578828 
L 88.32757 307.307678 
L 88.158141 305.036529 
L 88.025762 302.765379 
L 87.933274 300.49423 
L 87.883472 298.22308 
L 87.879 295.95193 
L 87.922217 293.680781 
L 88.015076 291.409631 
L 88.158999 289.138482 
L 88.354769 286.867332 
L 88.602444 284.596182 
L 88.901289 282.325033 
L 89.249752 280.053883 
L 89.645459 277.782734 
L 90.085253 275.511584 
L 90.565259 273.240434 
L 91.080982 270.969285 
L 91.627419 268.698135 
L 92.1992 266.426986 
L 92.790724 264.155836 
L 93.396308 261.884686 
L 94.010318 259.613537 
L 94.627296 257.342387 
L 95.242067 255.071238 
L 95.849818 252.800088 
L 96.446166 250.528938 
L 97.027191 248.257789 
L 97.589449 245.986639 
L 98.129975 243.71549 
L 98.646255 241.44434 
L 99.136201 239.17319 
L 99.598112 236.902041 
L 100.030636 234.630891 
L 100.432732 232.359742 
L 100.803641 230.088592 
L 101.142861 227.817442 
L 101.450132 225.546293 
L 101.725426 223.275143 
L 101.968951 221.003993 
L 102.181156 218.732844 
L 102.362735 216.461694 
L 102.514645 214.190545 
L 102.638104 211.919395 
L 102.734597 209.648245 
L 102.805876 207.377096 
L 102.853938 205.105946 
L 102.881009 202.834797 
L 102.889515 200.563647 
L 102.882034 198.292497 
L 102.86126 196.021348 
L 102.829944 193.750198 
L 102.790842 191.479049 
L 102.746662 189.207899 
L 102.70001 186.936749 
L 102.653341 184.6656 
L 102.608917 182.39445 
L 102.568777 180.123301 
L 102.534706 177.852151 
L 102.50822 175.581001 
L 102.490559 173.309852 
L 102.482689 171.038702 
L 102.485303 168.767553 
L 102.498839 166.496403 
L 102.523495 164.225253 
L 102.559246 161.954104 
L 102.605868 159.682954 
L 102.662957 157.411805 
L 102.729948 155.140655 
L 102.806141 152.869505 
L 102.890713 150.598356 
L 102.98274 148.327206 
L 103.081213 146.056057 
L 103.185057 143.784907 
L 106.994943 143.784907 
L 106.994943 143.784907 
L 107.098787 146.056057 
L 107.19726 148.327206 
L 107.289287 150.598356 
L 107.373859 152.869505 
L 107.450052 155.140655 
L 107.517043 157.411805 
L 107.574132 159.682954 
L 107.620754 161.954104 
L 107.656505 164.225253 
L 107.681161 166.496403 
L 107.694697 168.767553 
L 107.697311 171.038702 
L 107.689441 173.309852 
L 107.67178 175.581001 
L 107.645294 177.852151 
L 107.611223 180.123301 
L 107.571083 182.39445 
L 107.526659 184.6656 
L 107.47999 186.936749 
L 107.433338 189.207899 
L 107.389158 191.479049 
L 107.350056 193.750198 
L 107.31874 196.021348 
L 107.297966 198.292497 
L 107.290485 200.563647 
L 107.298991 202.834797 
L 107.326062 205.105946 
L 107.374124 207.377096 
L 107.445403 209.648245 
L 107.541896 211.919395 
L 107.665355 214.190545 
L 107.817265 216.461694 
L 107.998844 218.732844 
L 108.211049 221.003993 
L 108.454574 223.275143 
L 108.729868 225.546293 
L 109.037139 227.817442 
L 109.376359 230.088592 
L 109.747268 232.359742 
L 110.149364 234.630891 
L 110.581888 236.902041 
L 111.043799 239.17319 
L 111.533745 241.44434 
L 112.050025 243.71549 
L 112.590551 245.986639 
L 113.152809 248.257789 
L 113.733834 250.528938 
L 114.330182 252.800088 
L 114.937933 255.071238 
L 115.552704 257.342387 
L 116.169682 259.613537 
L 116.783692 261.884686 
L 117.389276 264.155836 
L 117.9808 266.426986 
L 118.552581 268.698135 
L 119.099018 270.969285 
L 119.614741 273.240434 
L 120.094747 275.511584 
L 120.534541 277.782734 
L 120.930248 280.053883 
L 121.278711 282.325033 
L 121.577556 284.596182 
L 121.825231 286.867332 
L 122.021001 289.138482 
L 122.164924 291.409631 
L 122.257783 293.680781 
L 122.301 295.95193 
L 122.296528 298.22308 
L 122.246726 300.49423 
L 122.154238 302.765379 
L 122.021859 305.036529 
L 121.85243 307.307678 
L 121.648733 309.578828 
L 121.413413 311.849978 
L 121.148924 314.121127 
L 120.857498 316.392277 
L 120.541138 318.663426 
L 120.201634 320.934576 
L 119.840593 323.205726 
L 119.459484 325.476875 
L 119.059689 327.748025 
L 118.642556 330.019174 
L 118.209452 332.290324 
L 117.761802 334.561474 
L 117.301121 336.832623 
L 116.829036 339.103773 
L 116.347291 341.374922 
L 115.857742 343.646072 
L 115.36234 345.917222 
L 114.863109 348.188371 
L 114.362115 350.459521 
L 113.861435 352.730671 
L 113.363126 355.00182 
L 112.869199 357.27297 
L 112.38159 359.544119 
L 111.902145 361.815269 
L 111.432608 364.086419 
L 110.974607 366.357568 
L 110.529652 368.628718 
z
" clip-path="url(#p588e28941b)" style="fill: #f08080; fill-opacity: 0.3"/>
   </g>
   <g id="FillBetweenPolyCollection_2">
    <path d="M 221.852032 388.864364 
L 217.807968 388.864364 
L 217.393623 385.782417 
L 216.908273 382.70047 
L 216.341604 379.618523 
L 215.683053 376.536577 
L 214.922571 373.45463 
L 214.051615 370.372683 
L 213.064336 367.290736 
L 211.958879 364.20879 
L 210.738698 361.126843 
L 209.413717 358.044896 
L 208.0012 354.962949 
L 206.526139 351.881003 
L 205.021035 348.799056 
L 203.52494 345.717109 
L 202.081738 342.635163 
L 200.737724 339.553216 
L 199.538613 336.471269 
L 198.526274 333.389322 
L 197.735506 330.307376 
L 197.191252 327.225429 
L 196.906624 324.143482 
L 196.882 321.061535 
L 197.105357 317.979589 
L 197.553783 314.897642 
L 198.195953 311.815695 
L 198.995214 308.733748 
L 199.912819 305.651802 
L 200.910922 302.569855 
L 201.954951 299.487908 
L 203.015199 296.405961 
L 204.067596 293.324015 
L 205.093751 290.242068 
L 206.080498 287.160121 
L 207.019157 284.078174 
L 207.904719 280.996228 
L 208.735101 277.914281 
L 209.510522 274.832334 
L 210.233002 271.750388 
L 210.905932 268.668441 
L 211.533668 265.586494 
L 212.121116 262.504547 
L 212.673303 259.422601 
L 213.194961 256.340654 
L 213.690179 253.258707 
L 214.16215 250.17676 
L 214.613066 247.094814 
L 215.044145 244.012867 
L 215.455787 240.93092 
L 215.847807 237.848973 
L 216.219693 234.767027 
L 216.570847 231.68508 
L 216.90077 228.603133 
L 217.209164 225.521186 
L 217.495952 222.43924 
L 217.761234 219.357293 
L 218.005185 216.275346 
L 218.227949 213.193399 
L 218.42954 210.111453 
L 218.609782 207.029506 
L 218.768312 203.947559 
L 218.904652 200.865612 
L 219.018334 197.783666 
L 219.109079 194.701719 
L 219.176987 191.619772 
L 219.22271 188.537826 
L 219.247581 185.455879 
L 219.253666 182.373932 
L 219.243727 179.291985 
L 219.221109 176.210039 
L 219.189552 173.128092 
L 219.152962 170.046145 
L 219.115177 166.964198 
L 219.079754 163.882252 
L 219.049792 160.800305 
L 219.027812 157.718358 
L 219.015691 154.636411 
L 219.014625 151.554465 
L 219.02513 148.472518 
L 219.047042 145.390571 
L 219.07954 142.308624 
L 219.121171 139.226678 
L 219.169902 136.144731 
L 219.223204 133.062784 
L 219.278181 129.980837 
L 219.331742 126.898891 
L 219.380819 123.816944 
L 219.42261 120.734997 
L 219.454818 117.653051 
L 219.475871 114.571104 
L 219.485094 111.489157 
L 219.482805 108.40721 
L 219.470317 105.325264 
L 219.449853 102.243317 
L 219.424355 99.16137 
L 219.397219 96.079423 
L 219.371967 92.997477 
L 219.351905 89.91553 
L 219.339793 86.833583 
L 219.337585 83.751636 
L 220.322415 83.751636 
L 220.322415 83.751636 
L 220.320207 86.833583 
L 220.308095 89.91553 
L 220.288033 92.997477 
L 220.262781 96.079423 
L 220.235645 99.16137 
L 220.210147 102.243317 
L 220.189683 105.325264 
L 220.177195 108.40721 
L 220.174906 111.489157 
L 220.184129 114.571104 
L 220.205182 117.653051 
L 220.23739 120.734997 
L 220.279181 123.816944 
L 220.328258 126.898891 
L 220.381819 129.980837 
L 220.436796 133.062784 
L 220.490098 136.144731 
L 220.538829 139.226678 
L 220.58046 142.308624 
L 220.612958 145.390571 
L 220.63487 148.472518 
L 220.645375 151.554465 
L 220.644309 154.636411 
L 220.632188 157.718358 
L 220.610208 160.800305 
L 220.580246 163.882252 
L 220.544823 166.964198 
L 220.507038 170.046145 
L 220.470448 173.128092 
L 220.438891 176.210039 
L 220.416273 179.291985 
L 220.406334 182.373932 
L 220.412419 185.455879 
L 220.43729 188.537826 
L 220.483013 191.619772 
L 220.550921 194.701719 
L 220.641666 197.783666 
L 220.755348 200.865612 
L 220.891688 203.947559 
L 221.050218 207.029506 
L 221.23046 210.111453 
L 221.432051 213.193399 
L 221.654815 216.275346 
L 221.898766 219.357293 
L 222.164048 222.43924 
L 222.450836 225.521186 
L 222.75923 228.603133 
L 223.089153 231.68508 
L 223.440307 234.767027 
L 223.812193 237.848973 
L 224.204213 240.93092 
L 224.615855 244.012867 
L 225.046934 247.094814 
L 225.49785 250.17676 
L 225.969821 253.258707 
L 226.465039 256.340654 
L 226.986697 259.422601 
L 227.538884 262.504547 
L 228.126332 265.586494 
L 228.754068 268.668441 
L 229.426998 271.750388 
L 230.149478 274.832334 
L 230.924899 277.914281 
L 231.755281 280.996228 
L 232.640843 284.078174 
L 233.579502 287.160121 
L 234.566249 290.242068 
L 235.592404 293.324015 
L 236.644801 296.405961 
L 237.705049 299.487908 
L 238.749078 302.569855 
L 239.747181 305.651802 
L 240.664786 308.733748 
L 241.464047 311.815695 
L 242.106217 314.897642 
L 242.554643 317.979589 
L 242.778 321.061535 
L 242.753376 324.143482 
L 242.468748 327.225429 
L 241.924494 330.307376 
L 241.133726 333.389322 
L 240.121387 336.471269 
L 238.922276 339.553216 
L 237.578262 342.635163 
L 236.13506 345.717109 
L 234.638965 348.799056 
L 233.133861 351.881003 
L 231.6588 354.962949 
L 230.246283 358.044896 
L 228.921302 361.126843 
L 227.701121 364.20879 
L 226.595664 367.290736 
L 225.608385 370.372683 
L 224.737429 373.45463 
L 223.976947 376.536577 
L 223.318396 379.618523 
L 222.751727 382.70047 
L 222.266377 385.782417 
L 221.852032 388.864364 
z
" clip-path="url(#p588e28941b)" style="fill: #808080; fill-opacity: 0.3"/>
   </g>
   <g id="matplotlib.axis_1">
    <g id="xtick_1">
     <g id="line2d_1">
      <defs>
       <path id="m8f9cdde8bb" d="M 0 0 
L 0 3.5 
" style="stroke: #000000; stroke-width: 0.8"/>
      </defs>
      <g>
       <use xlink:href="#m8f9cdde8bb" x="105.09" y="404.12" style="stroke: #000000; stroke-width: 0.8"/>
      </g>
     </g>
     <g id="text_1">
      <!-- Mutants -->
      <g transform="translate(83.964219 418.718437) scale(0.1 -0.1)">
       <defs>
        <path id="DejaVuSerif-4d" d="M 353 0 
L 353 331 
L 947 331 
L 947 4331 
L 319 4331 
L 319 4666 
L 1678 4666 
L 3316 1344 
L 4953 4666 
L 6228 4666 
L 6228 4331 
L 5606 4331 
L 5606 331 
L 6203 331 
L 6203 0 
L 4378 0 
L 4378 331 
L 4972 331 
L 4972 3938 
L 3372 684 
L 2931 684 
L 1331 3938 
L 1331 331 
L 1925 331 
L 1925 0 
L 353 0 
z
" transform="scale(0.015625)"/>
        <path id="DejaVuSerif-75" d="M 2266 3322 
L 3341 3322 
L 3341 331 
L 3884 331 
L 3884 0 
L 2766 0 
L 2766 588 
Q 2606 256 2353 82 
Q 2100 -91 1766 -91 
Q 1213 -91 952 223 
Q 691 538 691 1209 
L 691 2988 
L 172 2988 
L 172 3322 
L 1269 3322 
L 1269 1388 
Q 1269 781 1417 556 
Q 1566 331 1947 331 
Q 2347 331 2556 625 
Q 2766 919 2766 1478 
L 2766 2988 
L 2266 2988 
L 2266 3322 
z
" transform="scale(0.015625)"/>
        <path id="DejaVuSerif-74" d="M 691 2988 
L 184 2988 
L 184 3322 
L 691 3322 
L 691 4353 
L 1269 4353 
L 1269 3322 
L 2350 3322 
L 2350 2988 
L 1269 2988 
L 1269 878 
Q 1269 456 1350 337 
Q 1431 219 1650 219 
Q 1875 219 1978 351 
Q 2081 484 2088 781 
L 2522 781 
Q 2497 328 2275 118 
Q 2053 -91 1600 -91 
Q 1103 -91 897 129 
Q 691 350 691 878 
L 691 2988 
z
" transform="scale(0.015625)"/>
        <path id="DejaVuSerif-61" d="M 2547 1044 
L 2547 1747 
L 1806 1747 
Q 1378 1747 1168 1562 
Q 959 1378 959 997 
Q 959 650 1171 447 
Q 1384 244 1747 244 
Q 2106 244 2326 466 
Q 2547 688 2547 1044 
z
M 3122 2075 
L 3122 331 
L 3634 331 
L 3634 0 
L 2547 0 
L 2547 359 
Q 2356 128 2106 18 
Q 1856 -91 1522 -91 
Q 969 -91 644 203 
Q 319 497 319 997 
Q 319 1513 691 1797 
Q 1063 2081 1741 2081 
L 2547 2081 
L 2547 2309 
Q 2547 2688 2317 2895 
Q 2088 3103 1672 3103 
Q 1328 3103 1125 2947 
Q 922 2791 872 2484 
L 575 2484 
L 575 3156 
Q 875 3284 1158 3348 
Q 1441 3413 1709 3413 
Q 2400 3413 2761 3070 
Q 3122 2728 3122 2075 
z
" transform="scale(0.015625)"/>
        <path id="DejaVuSerif-6e" d="M 263 0 
L 263 331 
L 781 331 
L 781 2988 
L 231 2988 
L 231 3322 
L 1356 3322 
L 1356 2731 
Q 1516 3069 1770 3241 
Q 2025 3413 2363 3413 
Q 2913 3413 3172 3097 
Q 3431 2781 3431 2113 
L 3431 331 
L 3944 331 
L 3944 0 
L 2356 0 
L 2356 331 
L 2853 331 
L 2853 1931 
Q 2853 2541 2703 2767 
Q 2553 2994 2175 2994 
Q 1775 2994 1565 2701 
Q 1356 2409 1356 1850 
L 1356 331 
L 1856 331 
L 1856 0 
L 263 0 
z
" transform="scale(0.015625)"/>
        <path id="DejaVuSerif-73" d="M 359 184 
L 359 959 
L 691 959 
Q 703 588 923 403 
Q 1144 219 1575 219 
Q 1963 219 2166 364 
Q 2369 509 2369 788 
Q 2369 1006 2220 1140 
Q 2072 1275 1594 1428 
L 1178 1569 
Q 750 1706 558 1912 
Q 366 2119 366 2438 
Q 366 2894 700 3153 
Q 1034 3413 1625 3413 
Q 1888 3413 2178 3344 
Q 2469 3275 2778 3144 
L 2778 2419 
L 2447 2419 
Q 2434 2741 2221 2922 
Q 2009 3103 1644 3103 
Q 1281 3103 1095 2975 
Q 909 2847 909 2591 
Q 909 2381 1050 2254 
Q 1191 2128 1613 1997 
L 2069 1856 
Q 2541 1709 2748 1489 
Q 2956 1269 2956 922 
Q 2956 450 2595 179 
Q 2234 -91 1600 -91 
Q 1278 -91 972 -22 
Q 666 47 359 184 
z
" transform="scale(0.015625)"/>
       </defs>
       <use xlink:href="#DejaVuSerif-4d"/>
       <use xlink:href="#DejaVuSerif-75" transform="translate(102.392578 0)"/>
       <use xlink:href="#DejaVuSerif-74" transform="translate(166.796875 0)"/>
       <use xlink:href="#DejaVuSerif-61" transform="translate(206.982422 0)"/>
       <use xlink:href="#DejaVuSerif-6e" transform="translate(266.601562 0)"/>
       <use xlink:href="#DejaVuSerif-74" transform="translate(331.005859 0)"/>
       <use xlink:href="#DejaVuSerif-73" transform="translate(371.191406 0)"/>
      </g>
     </g>
    </g>
    <g id="xtick_2">
     <g id="line2d_2">
      <g>
       <use xlink:href="#m8f9cdde8bb" x="219.83" y="404.12" style="stroke: #000000; stroke-width: 0.8"/>
      </g>
     </g>
     <g id="text_2">
      <!-- Non-members WT -->
      <g transform="translate(173.913594 418.718437) scale(0.1 -0.1)">
       <defs>
        <path id="DejaVuSerif-4e" d="M 313 0 
L 313 331 
L 941 331 
L 941 4331 
L 313 4331 
L 313 4666 
L 1509 4666 
L 4306 984 
L 4306 4331 
L 3681 4331 
L 3681 4666 
L 5319 4666 
L 5319 4331 
L 4691 4331 
L 4691 -91 
L 4313 -91 
L 1325 3841 
L 1325 331 
L 1953 331 
L 1953 0 
L 313 0 
z
" transform="scale(0.015625)"/>
        <path id="DejaVuSerif-6f" d="M 1925 219 
Q 2388 219 2623 584 
Q 2859 950 2859 1663 
Q 2859 2375 2623 2739 
Q 2388 3103 1925 3103 
Q 1463 3103 1227 2739 
Q 991 2375 991 1663 
Q 991 950 1228 584 
Q 1466 219 1925 219 
z
M 1925 -91 
Q 1200 -91 759 389 
Q 319 869 319 1663 
Q 319 2456 758 2934 
Q 1197 3413 1925 3413 
Q 2653 3413 3092 2934 
Q 3531 2456 3531 1663 
Q 3531 869 3092 389 
Q 2653 -91 1925 -91 
z
" transform="scale(0.015625)"/>
        <path id="DejaVuSerif-2d" d="M 281 1959 
L 1881 1959 
L 1881 1472 
L 281 1472 
L 281 1959 
z
" transform="scale(0.015625)"/>
        <path id="DejaVuSerif-6d" d="M 3316 2675 
Q 3481 3041 3739 3227 
Q 3997 3413 4341 3413 
Q 4863 3413 5119 3089 
Q 5375 2766 5375 2113 
L 5375 331 
L 5894 331 
L 5894 0 
L 4300 0 
L 4300 331 
L 4800 331 
L 4800 2047 
Q 4800 2556 4650 2772 
Q 4500 2988 4153 2988 
Q 3769 2988 3567 2697 
Q 3366 2406 3366 1850 
L 3366 331 
L 3866 331 
L 3866 0 
L 2291 0 
L 2291 331 
L 2791 331 
L 2791 2069 
Q 2791 2566 2641 2777 
Q 2491 2988 2144 2988 
Q 1759 2988 1557 2697 
Q 1356 2406 1356 1850 
L 1356 331 
L 1856 331 
L 1856 0 
L 263 0 
L 263 331 
L 781 331 
L 781 2994 
L 231 2994 
L 231 3322 
L 1356 3322 
L 1356 2731 
Q 1516 3063 1762 3238 
Q 2009 3413 2322 3413 
Q 2709 3413 2968 3220 
Q 3228 3028 3316 2675 
z
" transform="scale(0.015625)"/>
        <path id="DejaVuSerif-65" d="M 3469 1600 
L 991 1600 
L 991 1575 
Q 991 903 1244 561 
Q 1497 219 1991 219 
Q 2369 219 2611 417 
Q 2853 616 2950 1006 
L 3413 1006 
Q 3275 459 2904 184 
Q 2534 -91 1931 -91 
Q 1203 -91 761 389 
Q 319 869 319 1663 
Q 319 2450 753 2931 
Q 1188 3413 1894 3413 
Q 2647 3413 3050 2948 
Q 3453 2484 3469 1600 
z
M 2791 1931 
Q 2772 2513 2545 2808 
Q 2319 3103 1894 3103 
Q 1497 3103 1269 2806 
Q 1041 2509 991 1931 
L 2791 1931 
z
" transform="scale(0.015625)"/>
        <path id="DejaVuSerif-62" d="M 738 331 
L 738 4531 
L 184 4531 
L 184 4863 
L 1313 4863 
L 1313 2803 
Q 1481 3116 1742 3264 
Q 2003 3413 2388 3413 
Q 3000 3413 3387 2928 
Q 3775 2444 3775 1663 
Q 3775 881 3387 395 
Q 3000 -91 2388 -91 
Q 2003 -91 1742 57 
Q 1481 206 1313 519 
L 1313 0 
L 184 0 
L 184 331 
L 738 331 
z
M 1313 1497 
Q 1313 897 1542 583 
Q 1772 269 2209 269 
Q 2650 269 2876 622 
Q 3103 975 3103 1663 
Q 3103 2353 2876 2703 
Q 2650 3053 2209 3053 
Q 1772 3053 1542 2737 
Q 1313 2422 1313 1825 
L 1313 1497 
z
" transform="scale(0.015625)"/>
        <path id="DejaVuSerif-72" d="M 3059 3328 
L 3059 2497 
L 2728 2497 
Q 2713 2744 2591 2866 
Q 2469 2988 2234 2988 
Q 1809 2988 1582 2694 
Q 1356 2400 1356 1850 
L 1356 331 
L 2022 331 
L 2022 0 
L 263 0 
L 263 331 
L 781 331 
L 781 2994 
L 231 2994 
L 231 3322 
L 1356 3322 
L 1356 2731 
Q 1525 3078 1790 3245 
Q 2056 3413 2438 3413 
Q 2578 3413 2733 3391 
Q 2888 3369 3059 3328 
z
" transform="scale(0.015625)"/>
        <path id="DejaVuSerif-20" transform="scale(0.015625)"/>
        <path id="DejaVuSerif-57" d="M 4878 0 
L 4366 0 
L 3297 3794 
L 2228 0 
L 1716 0 
L 494 4331 
L 31 4331 
L 31 4666 
L 1734 4666 
L 1734 4331 
L 1153 4331 
L 2125 884 
L 3188 4666 
L 3694 4666 
L 4775 844 
L 5753 4331 
L 5216 4331 
L 5216 4666 
L 6559 4666 
L 6559 4331 
L 6100 4331 
L 4878 0 
z
" transform="scale(0.015625)"/>
        <path id="DejaVuSerif-54" d="M 1222 0 
L 1222 331 
L 1819 331 
L 1819 4294 
L 447 4294 
L 447 3566 
L 63 3566 
L 63 4666 
L 4206 4666 
L 4206 3566 
L 3822 3566 
L 3822 4294 
L 2450 4294 
L 2450 331 
L 3047 331 
L 3047 0 
L 1222 0 
z
" transform="scale(0.015625)"/>
       </defs>
       <use xlink:href="#DejaVuSerif-4e"/>
       <use xlink:href="#DejaVuSerif-6f" transform="translate(87.5 0)"/>
       <use xlink:href="#DejaVuSerif-6e" transform="translate(147.705078 0)"/>
       <use xlink:href="#DejaVuSerif-2d" transform="translate(212.109375 0)"/>
       <use xlink:href="#DejaVuSerif-6d" transform="translate(245.898438 0)"/>
       <use xlink:href="#DejaVuSerif-65" transform="translate(340.722656 0)"/>
       <use xlink:href="#DejaVuSerif-6d" transform="translate(399.902344 0)"/>
       <use xlink:href="#DejaVuSerif-62" transform="translate(494.726562 0)"/>
       <use xlink:href="#DejaVuSerif-65" transform="translate(558.740234 0)"/>
       <use xlink:href="#DejaVuSerif-72" transform="translate(617.919922 0)"/>
       <use xlink:href="#DejaVuSerif-73" transform="translate(665.722656 0)"/>
       <use xlink:href="#DejaVuSerif-20" transform="translate(717.041016 0)"/>
       <use xlink:href="#DejaVuSerif-57" transform="translate(748.828125 0)"/>
       <use xlink:href="#DejaVuSerif-54" transform="translate(851.611328 0)"/>
      </g>
     </g>
    </g>
   </g>
   <g id="matplotlib.axis_2">
    <g id="ytick_1">
     <g id="line2d_3">
      <defs>
       <path id="m00b42c90c9" d="M 0 0 
L -3.5 0 
" style="stroke: #000000; stroke-width: 0.8"/>
      </defs>
      <g>
       <use xlink:href="#m00b42c90c9" x="47.72" y="388.864364" style="stroke: #000000; stroke-width: 0.8"/>
      </g>
     </g>
     <g id="text_3">
      <!-- 0.0 -->
      <g transform="translate(24.816875 392.663582) scale(0.1 -0.1)">
       <defs>
        <path id="DejaVuSerif-30" d="M 2034 219 
Q 2513 219 2750 744 
Q 2988 1269 2988 2328 
Q 2988 3391 2750 3916 
Q 2513 4441 2034 4441 
Q 1556 4441 1318 3916 
Q 1081 3391 1081 2328 
Q 1081 1269 1318 744 
Q 1556 219 2034 219 
z
M 2034 -91 
Q 1275 -91 848 546 
Q 422 1184 422 2328 
Q 422 3475 848 4112 
Q 1275 4750 2034 4750 
Q 2797 4750 3222 4112 
Q 3647 3475 3647 2328 
Q 3647 1184 3222 546 
Q 2797 -91 2034 -91 
z
" transform="scale(0.015625)"/>
        <path id="DejaVuSerif-2e" d="M 603 325 
Q 603 500 722 622 
Q 841 744 1019 744 
Q 1191 744 1312 622 
Q 1434 500 1434 325 
Q 1434 153 1312 31 
Q 1191 -91 1019 -91 
Q 841 -91 722 29 
Q 603 150 603 325 
z
" transform="scale(0.015625)"/>
       </defs>
       <use xlink:href="#DejaVuSerif-30"/>
       <use xlink:href="#DejaVuSerif-2e" transform="translate(63.623047 0)"/>
       <use xlink:href="#DejaVuSerif-30" transform="translate(95.410156 0)"/>
      </g>
     </g>
    </g>
    <g id="ytick_2">
     <g id="line2d_4">
      <g>
       <use xlink:href="#m00b42c90c9" x="47.72" y="350.341044" style="stroke: #000000; stroke-width: 0.8"/>
      </g>
     </g>
     <g id="text_4">
      <!-- 0.1 -->
      <g transform="translate(24.816875 354.140263) scale(0.1 -0.1)">
       <defs>
        <path id="DejaVuSerif-31" d="M 909 0 
L 909 331 
L 1722 331 
L 1722 4213 
L 781 3603 
L 781 4013 
L 1919 4750 
L 2350 4750 
L 2350 331 
L 3163 331 
L 3163 0 
L 909 0 
z
" transform="scale(0.015625)"/>
       </defs>
       <use xlink:href="#DejaVuSerif-30"/>
       <use xlink:href="#DejaVuSerif-2e" transform="translate(63.623047 0)"/>
       <use xlink:href="#DejaVuSerif-31" transform="translate(95.410156 0)"/>
      </g>
     </g>
    </g>
    <g id="ytick_3">
     <g id="line2d_5">
      <g>
       <use xlink:href="#m00b42c90c9" x="47.72" y="311.817725" style="stroke: #000000; stroke-width: 0.8"/>
      </g>
     </g>
     <g id="text_5">
      <!-- 0.2 -->
      <g transform="translate(24.816875 315.616944) scale(0.1 -0.1)">
       <defs>
        <path id="DejaVuSerif-32" d="M 819 3553 
L 469 3553 
L 469 4384 
Q 803 4563 1142 4656 
Q 1481 4750 1806 4750 
Q 2534 4750 2956 4397 
Q 3378 4044 3378 3438 
Q 3378 2753 2422 1800 
Q 2347 1728 2309 1691 
L 1131 513 
L 3078 513 
L 3078 1088 
L 3444 1088 
L 3444 0 
L 434 0 
L 434 341 
L 1850 1753 
Q 2319 2222 2519 2614 
Q 2719 3006 2719 3438 
Q 2719 3909 2473 4175 
Q 2228 4441 1797 4441 
Q 1350 4441 1106 4219 
Q 863 3997 819 3553 
z
" transform="scale(0.015625)"/>
       </defs>
       <use xlink:href="#DejaVuSerif-30"/>
       <use xlink:href="#DejaVuSerif-2e" transform="translate(63.623047 0)"/>
       <use xlink:href="#DejaVuSerif-32" transform="translate(95.410156 0)"/>
      </g>
     </g>
    </g>
    <g id="ytick_4">
     <g id="line2d_6">
      <g>
       <use xlink:href="#m00b42c90c9" x="47.72" y="273.294405" style="stroke: #000000; stroke-width: 0.8"/>
      </g>
     </g>
     <g id="text_6">
      <!-- 0.3 -->
      <g transform="translate(24.816875 277.093624) scale(0.1 -0.1)">
       <defs>
        <path id="DejaVuSerif-33" d="M 622 4469 
Q 988 4606 1323 4678 
Q 1659 4750 1953 4750 
Q 2638 4750 3022 4454 
Q 3406 4159 3406 3634 
Q 3406 3213 3140 2930 
Q 2875 2647 2388 2547 
Q 2963 2466 3280 2130 
Q 3597 1794 3597 1259 
Q 3597 606 3158 257 
Q 2719 -91 1894 -91 
Q 1528 -91 1179 -12 
Q 831 66 488 225 
L 488 1131 
L 838 1131 
Q 869 681 1141 450 
Q 1413 219 1906 219 
Q 2384 219 2661 495 
Q 2938 772 2938 1253 
Q 2938 1803 2653 2086 
Q 2369 2369 1819 2369 
L 1522 2369 
L 1522 2688 
L 1678 2688 
Q 2225 2688 2498 2914 
Q 2772 3141 2772 3597 
Q 2772 4006 2547 4223 
Q 2322 4441 1900 4441 
Q 1478 4441 1245 4241 
Q 1013 4041 972 3647 
L 622 3647 
L 622 4469 
z
" transform="scale(0.015625)"/>
       </defs>
       <use xlink:href="#DejaVuSerif-30"/>
       <use xlink:href="#DejaVuSerif-2e" transform="translate(63.623047 0)"/>
       <use xlink:href="#DejaVuSerif-33" transform="translate(95.410156 0)"/>
      </g>
     </g>
    </g>
    <g id="ytick_5">
     <g id="line2d_7">
      <g>
       <use xlink:href="#m00b42c90c9" x="47.72" y="234.771086" style="stroke: #000000; stroke-width: 0.8"/>
      </g>
     </g>
     <g id="text_7">
      <!-- 0.4 -->
      <g transform="translate(24.816875 238.570305) scale(0.1 -0.1)">
       <defs>
        <path id="DejaVuSerif-34" d="M 2234 1581 
L 2234 4063 
L 641 1581 
L 2234 1581 
z
M 3609 0 
L 1484 0 
L 1484 331 
L 2234 331 
L 2234 1247 
L 197 1247 
L 197 1588 
L 2241 4750 
L 2859 4750 
L 2859 1581 
L 3750 1581 
L 3750 1247 
L 2859 1247 
L 2859 331 
L 3609 331 
L 3609 0 
z
" transform="scale(0.015625)"/>
       </defs>
       <use xlink:href="#DejaVuSerif-30"/>
       <use xlink:href="#DejaVuSerif-2e" transform="translate(63.623047 0)"/>
       <use xlink:href="#DejaVuSerif-34" transform="translate(95.410156 0)"/>
      </g>
     </g>
    </g>
    <g id="ytick_6">
     <g id="line2d_8">
      <g>
       <use xlink:href="#m00b42c90c9" x="47.72" y="196.247766" style="stroke: #000000; stroke-width: 0.8"/>
      </g>
     </g>
     <g id="text_8">
      <!-- 0.5 -->
      <g transform="translate(24.816875 200.046985) scale(0.1 -0.1)">
       <defs>
        <path id="DejaVuSerif-35" d="M 3219 4666 
L 3219 4153 
L 1081 4153 
L 1081 2816 
Q 1244 2928 1461 2984 
Q 1678 3041 1947 3041 
Q 2703 3041 3140 2622 
Q 3578 2203 3578 1478 
Q 3578 738 3136 323 
Q 2694 -91 1894 -91 
Q 1572 -91 1234 -12 
Q 897 66 544 225 
L 544 1131 
L 897 1131 
Q 925 688 1179 453 
Q 1434 219 1894 219 
Q 2388 219 2653 544 
Q 2919 869 2919 1478 
Q 2919 2084 2655 2407 
Q 2391 2731 1894 2731 
Q 1613 2731 1398 2631 
Q 1184 2531 1019 2322 
L 750 2322 
L 750 4666 
L 3219 4666 
z
" transform="scale(0.015625)"/>
       </defs>
       <use xlink:href="#DejaVuSerif-30"/>
       <use xlink:href="#DejaVuSerif-2e" transform="translate(63.623047 0)"/>
       <use xlink:href="#DejaVuSerif-35" transform="translate(95.410156 0)"/>
      </g>
     </g>
    </g>
    <g id="ytick_7">
     <g id="line2d_9">
      <g>
       <use xlink:href="#m00b42c90c9" x="47.72" y="157.724447" style="stroke: #000000; stroke-width: 0.8"/>
      </g>
     </g>
     <g id="text_9">
      <!-- 0.6 -->
      <g transform="translate(24.816875 161.523666) scale(0.1 -0.1)">
       <defs>
        <path id="DejaVuSerif-36" d="M 2094 219 
Q 2534 219 2771 542 
Q 3009 866 3009 1472 
Q 3009 2078 2771 2401 
Q 2534 2725 2094 2725 
Q 1647 2725 1412 2412 
Q 1178 2100 1178 1509 
Q 1178 888 1415 553 
Q 1653 219 2094 219 
z
M 1075 2569 
Q 1288 2803 1556 2918 
Q 1825 3034 2163 3034 
Q 2859 3034 3264 2615 
Q 3669 2197 3669 1472 
Q 3669 763 3233 336 
Q 2797 -91 2069 -91 
Q 1278 -91 853 498 
Q 428 1088 428 2181 
Q 428 3406 931 4078 
Q 1434 4750 2350 4750 
Q 2597 4750 2869 4703 
Q 3141 4656 3425 4563 
L 3425 3794 
L 3072 3794 
Q 3034 4109 2831 4275 
Q 2628 4441 2284 4441 
Q 1678 4441 1381 3981 
Q 1084 3522 1075 2569 
z
" transform="scale(0.015625)"/>
       </defs>
       <use xlink:href="#DejaVuSerif-30"/>
       <use xlink:href="#DejaVuSerif-2e" transform="translate(63.623047 0)"/>
       <use xlink:href="#DejaVuSerif-36" transform="translate(95.410156 0)"/>
      </g>
     </g>
    </g>
    <g id="ytick_8">
     <g id="line2d_10">
      <g>
       <use xlink:href="#m00b42c90c9" x="47.72" y="119.201128" style="stroke: #000000; stroke-width: 0.8"/>
      </g>
     </g>
     <g id="text_10">
      <!-- 0.7 -->
      <g transform="translate(24.816875 123.000346) scale(0.1 -0.1)">
       <defs>
        <path id="DejaVuSerif-37" d="M 3609 4347 
L 1784 0 
L 1319 0 
L 3059 4153 
L 903 4153 
L 903 3578 
L 538 3578 
L 538 4666 
L 3609 4666 
L 3609 4347 
z
" transform="scale(0.015625)"/>
       </defs>
       <use xlink:href="#DejaVuSerif-30"/>
       <use xlink:href="#DejaVuSerif-2e" transform="translate(63.623047 0)"/>
       <use xlink:href="#DejaVuSerif-37" transform="translate(95.410156 0)"/>
      </g>
     </g>
    </g>
    <g id="ytick_9">
     <g id="line2d_11">
      <g>
       <use xlink:href="#m00b42c90c9" x="47.72" y="80.677808" style="stroke: #000000; stroke-width: 0.8"/>
      </g>
     </g>
     <g id="text_11">
      <!-- 0.8 -->
      <g transform="translate(24.816875 84.477027) scale(0.1 -0.1)">
       <defs>
        <path id="DejaVuSerif-38" d="M 2981 1275 
Q 2981 1775 2732 2051 
Q 2484 2328 2034 2328 
Q 1584 2328 1336 2051 
Q 1088 1775 1088 1275 
Q 1088 772 1336 495 
Q 1584 219 2034 219 
Q 2484 219 2732 495 
Q 2981 772 2981 1275 
z
M 2853 3541 
Q 2853 3966 2637 4203 
Q 2422 4441 2034 4441 
Q 1650 4441 1433 4203 
Q 1216 3966 1216 3541 
Q 1216 3113 1433 2875 
Q 1650 2638 2034 2638 
Q 2422 2638 2637 2875 
Q 2853 3113 2853 3541 
z
M 2516 2484 
Q 3047 2413 3344 2092 
Q 3641 1772 3641 1275 
Q 3641 619 3225 264 
Q 2809 -91 2034 -91 
Q 1263 -91 845 264 
Q 428 619 428 1275 
Q 428 1772 725 2092 
Q 1022 2413 1556 2484 
Q 1084 2569 832 2842 
Q 581 3116 581 3541 
Q 581 4103 968 4426 
Q 1356 4750 2034 4750 
Q 2713 4750 3100 4426 
Q 3488 4103 3488 3541 
Q 3488 3116 3236 2842 
Q 2984 2569 2516 2484 
z
" transform="scale(0.015625)"/>
       </defs>
       <use xlink:href="#DejaVuSerif-30"/>
       <use xlink:href="#DejaVuSerif-2e" transform="translate(63.623047 0)"/>
       <use xlink:href="#DejaVuSerif-38" transform="translate(95.410156 0)"/>
      </g>
     </g>
    </g>
    <g id="text_12">
     <!--  (dV(t)/dt) -->
     <g transform="translate(18.737187 264.829094) rotate(-90) scale(0.1 -0.1)">
      <defs>
       <path id="DejaVuSerif-3c3" d="M 1925 219 
Q 2388 219 2623 584 
Q 2859 950 2859 1663 
Q 2859 2309 2625 2706 
Q 2416 3044 1925 3047 
Q 1447 3047 1225 2706 
Q 991 2341 991 1663 
Q 991 950 1228 584 
Q 1466 219 1925 219 
z
M 1931 3322 
Q 3206 3322 4181 3322 
L 4181 2988 
L 3038 2988 
Q 3531 2509 3531 1663 
Q 3531 869 3092 389 
Q 2653 -91 1925 -91 
Q 1200 -91 759 389 
Q 319 869 319 1662 
Q 319 2456 756 2934 
Q 1113 3322 1931 3322 
z
" transform="scale(0.015625)"/>
       <path id="DejaVuSerif-28" d="M 2041 -997 
Q 1281 -656 893 83 
Q 506 822 506 1931 
Q 506 3044 893 3783 
Q 1281 4522 2041 4863 
L 2041 4556 
Q 1559 4225 1350 3623 
Q 1141 3022 1141 1931 
Q 1141 844 1350 242 
Q 1559 -359 2041 -691 
L 2041 -997 
z
" transform="scale(0.015625)"/>
       <path id="DejaVuSerif-64" d="M 3359 331 
L 3909 331 
L 3909 0 
L 2784 0 
L 2784 519 
Q 2616 206 2355 57 
Q 2094 -91 1709 -91 
Q 1097 -91 708 395 
Q 319 881 319 1663 
Q 319 2444 706 2928 
Q 1094 3413 1709 3413 
Q 2094 3413 2355 3264 
Q 2616 3116 2784 2803 
L 2784 4531 
L 2241 4531 
L 2241 4863 
L 3359 4863 
L 3359 331 
z
M 2784 1497 
L 2784 1825 
Q 2784 2422 2554 2737 
Q 2325 3053 1888 3053 
Q 1444 3053 1217 2703 
Q 991 2353 991 1663 
Q 991 975 1217 622 
Q 1444 269 1888 269 
Q 2325 269 2554 583 
Q 2784 897 2784 1497 
z
" transform="scale(0.015625)"/>
       <path id="DejaVuSerif-56" d="M 1119 4331 
L 2497 750 
L 3872 4331 
L 3347 4331 
L 3347 4666 
L 4716 4666 
L 4716 4331 
L 4263 4331 
L 2597 0 
L 2059 0 
L 403 4331 
L -63 4331 
L -63 4666 
L 1638 4666 
L 1638 4331 
L 1119 4331 
z
" transform="scale(0.015625)"/>
       <path id="DejaVuSerif-29" d="M 453 -997 
L 453 -691 
Q 934 -359 1145 242 
Q 1356 844 1356 1931 
Q 1356 3022 1145 3623 
Q 934 4225 453 4556 
L 453 4863 
Q 1216 4522 1603 3783 
Q 1991 3044 1991 1931 
Q 1991 822 1603 83 
Q 1216 -656 453 -997 
z
" transform="scale(0.015625)"/>
       <path id="DejaVuSerif-2f" d="M 1656 4666 
L 2156 4666 
L 500 -594 
L 0 -594 
L 1656 4666 
z
" transform="scale(0.015625)"/>
      </defs>
      <use xlink:href="#DejaVuSerif-3c3"/>
      <use xlink:href="#DejaVuSerif-20" transform="translate(68.261719 0)"/>
      <use xlink:href="#DejaVuSerif-28" transform="translate(100.048828 0)"/>
      <use xlink:href="#DejaVuSerif-64" transform="translate(139.0625 0)"/>
      <use xlink:href="#DejaVuSerif-56" transform="translate(203.076172 0)"/>
      <use xlink:href="#DejaVuSerif-28" transform="translate(275.292969 0)"/>
      <use xlink:href="#DejaVuSerif-74" transform="translate(314.306641 0)"/>
      <use xlink:href="#DejaVuSerif-29" transform="translate(354.492188 0)"/>
      <use xlink:href="#DejaVuSerif-2f" transform="translate(393.505859 0)"/>
      <use xlink:href="#DejaVuSerif-64" transform="translate(427.197266 0)"/>
      <use xlink:href="#DejaVuSerif-74" transform="translate(491.210938 0)"/>
      <use xlink:href="#DejaVuSerif-29" transform="translate(531.396484 0)"/>
     </g>
    </g>
   </g>
   <g id="line2d_12">
    <path d="M 96.4845 323.591425 
L 113.6955 323.591425 
L 113.6955 273.418965 
L 96.4845 273.418965 
L 96.4845 323.591425 
" clip-path="url(#p588e28941b)" style="fill: none; stroke: #000000; stroke-linecap: square"/>
   </g>
   <g id="line2d_13">
    <path d="M 105.09 323.591425 
L 105.09 368.628718 
" clip-path="url(#p588e28941b)" style="fill: none; stroke: #000000; stroke-linecap: square"/>
   </g>
   <g id="line2d_14">
    <path d="M 105.09 273.418965 
L 105.09 231.535823 
" clip-path="url(#p588e28941b)" style="fill: none; stroke: #000000; stroke-linecap: square"/>
   </g>
   <g id="line2d_15">
    <path d="M 100.78725 368.628718 
L 109.39275 368.628718 
" clip-path="url(#p588e28941b)" style="fill: none; stroke: #000000; stroke-linecap: square"/>
   </g>
   <g id="line2d_16">
    <path d="M 100.78725 231.535823 
L 109.39275 231.535823 
" clip-path="url(#p588e28941b)" style="fill: none; stroke: #000000; stroke-linecap: square"/>
   </g>
   <g id="line2d_17">
    <path d="M 211.2245 331.721182 
L 228.4355 331.721182 
L 228.4355 290.90367 
L 211.2245 290.90367 
L 211.2245 331.721182 
" clip-path="url(#p588e28941b)" style="fill: none; stroke: #000000; stroke-linecap: square"/>
   </g>
   <g id="line2d_18">
    <path d="M 219.83 331.721182 
L 219.83 388.864364 
" clip-path="url(#p588e28941b)" style="fill: none; stroke: #000000; stroke-linecap: square"/>
   </g>
   <g id="line2d_19">
    <path d="M 219.83 290.90367 
L 219.83 235.882752 
" clip-path="url(#p588e28941b)" style="fill: none; stroke: #000000; stroke-linecap: square"/>
   </g>
   <g id="line2d_20">
    <path d="M 215.52725 388.864364 
L 224.13275 388.864364 
" clip-path="url(#p588e28941b)" style="fill: none; stroke: #000000; stroke-linecap: square"/>
   </g>
   <g id="line2d_21">
    <path d="M 215.52725 235.882752 
L 224.13275 235.882752 
" clip-path="url(#p588e28941b)" style="fill: none; stroke: #000000; stroke-linecap: square"/>
   </g>
   <g id="line2d_22">
    <path d="M 102.2215 218.477554 
L 102.2215 215.016326 
L 216.9615 215.016326 
L 216.9615 218.477554 
" clip-path="url(#p588e28941b)" style="fill: none; stroke: #000000; stroke-linecap: square"/>
   </g>
   <g id="LineCollection_1">
    <path d="M 96.4845 296.984102 
L 113.6955 296.984102 
" clip-path="url(#p588e28941b)" style="fill: none; stroke: #000000; stroke-width: 5"/>
    <path d="M 208.356 317.991333 
L 231.304 317.991333 
" clip-path="url(#p588e28941b)" style="fill: none; stroke: #000000; stroke-width: 5"/>
   </g>
   <g id="line2d_23">
    <path d="M 96.4845 296.984102 
L 113.6955 296.984102 
" clip-path="url(#p588e28941b)" style="fill: none; stroke: #ff7f0e"/>
   </g>
   <g id="line2d_24">
    <defs>
     <path id="m04dfc5ac15" d="M 0 -3 
L -3 3 
L 3 3 
z
" style="stroke: #2ca02c; stroke-linejoin: miter"/>
    </defs>
    <g clip-path="url(#p588e28941b)">
     <use xlink:href="#m04dfc5ac15" x="105.09" y="289.351805" style="fill: #2ca02c; stroke: #2ca02c; stroke-linejoin: miter"/>
    </g>
   </g>
   <g id="line2d_25">
    <path d="M 211.2245 317.991333 
L 228.4355 317.991333 
" clip-path="url(#p588e28941b)" style="fill: none; stroke: #ff7f0e"/>
   </g>
   <g id="line2d_26">
    <g clip-path="url(#p588e28941b)">
     <use xlink:href="#m04dfc5ac15" x="219.83" y="305.089081" style="fill: #2ca02c; stroke: #2ca02c; stroke-linejoin: miter"/>
    </g>
   </g>
   <g id="patch_3">
    <path d="M 47.72 404.12 
L 47.72 68.496 
" style="fill: none; stroke: #000000; stroke-width: 0.8; stroke-linejoin: miter; stroke-linecap: square"/>
   </g>
   <g id="patch_4">
    <path d="M 277.2 404.12 
L 277.2 68.496 
" style="fill: none; stroke: #000000; stroke-width: 0.8; stroke-linejoin: miter; stroke-linecap: square"/>
   </g>
   <g id="patch_5">
    <path d="M 47.72 404.12 
L 277.2 404.12 
" style="fill: none; stroke: #000000; stroke-width: 0.8; stroke-linejoin: miter; stroke-linecap: square"/>
   </g>
   <g id="patch_6">
    <path d="M 47.72 68.496 
L 277.2 68.496 
" style="fill: none; stroke: #000000; stroke-width: 0.8; stroke-linejoin: miter; stroke-linecap: square"/>
   </g>
   <g id="text_13">
    <!-- * -->
    <g transform="translate(157.0915 211.206025) scale(0.1 -0.1)">
     <defs>
      <path id="DejaVuSerif-2a" d="M 3097 3866 
L 1875 3297 
L 3097 2719 
L 2859 2350 
L 1772 3028 
L 1813 1838 
L 1388 1838 
L 1428 3028 
L 341 2350 
L 103 2719 
L 1325 3291 
L 103 3866 
L 341 4238 
L 1428 3559 
L 1388 4750 
L 1813 4750 
L 1772 3559 
L 2859 4238 
L 3097 3866 
z
" transform="scale(0.015625)"/>
     </defs>
     <use xlink:href="#DejaVuSerif-2a"/>
    </g>
   </g>
   <g id="text_14">
    <!-- mean inpearson -->
    <g transform="translate(113.694062 21.850125) scale(0.12 -0.12)">
     <defs>
      <path id="DejaVuSerif-69" d="M 622 4353 
Q 622 4497 726 4603 
Q 831 4709 978 4709 
Q 1122 4709 1226 4603 
Q 1331 4497 1331 4353 
Q 1331 4206 1228 4103 
Q 1125 4000 978 4000 
Q 831 4000 726 4103 
Q 622 4206 622 4353 
z
M 1356 331 
L 1900 331 
L 1900 0 
L 231 0 
L 231 331 
L 781 331 
L 781 2988 
L 231 2988 
L 231 3322 
L 1356 3322 
L 1356 331 
z
" transform="scale(0.015625)"/>
      <path id="DejaVuSerif-70" d="M 1313 1825 
L 1313 1497 
Q 1313 897 1542 583 
Q 1772 269 2209 269 
Q 2650 269 2876 622 
Q 3103 975 3103 1663 
Q 3103 2353 2876 2703 
Q 2650 3053 2209 3053 
Q 1772 3053 1542 2737 
Q 1313 2422 1313 1825 
z
M 738 2988 
L 184 2988 
L 184 3322 
L 1313 3322 
L 1313 2803 
Q 1481 3116 1742 3264 
Q 2003 3413 2388 3413 
Q 3000 3413 3387 2928 
Q 3775 2444 3775 1663 
Q 3775 881 3387 395 
Q 3000 -91 2388 -91 
Q 2003 -91 1742 57 
Q 1481 206 1313 519 
L 1313 -997 
L 1856 -997 
L 1856 -1331 
L 184 -1331 
L 184 -997 
L 738 -997 
L 738 2988 
z
" transform="scale(0.015625)"/>
     </defs>
     <use xlink:href="#DejaVuSerif-6d"/>
     <use xlink:href="#DejaVuSerif-65" transform="translate(94.824219 0)"/>
     <use xlink:href="#DejaVuSerif-61" transform="translate(154.003906 0)"/>
     <use xlink:href="#DejaVuSerif-6e" transform="translate(213.623047 0)"/>
     <use xlink:href="#DejaVuSerif-20" transform="translate(278.027344 0)"/>
     <use xlink:href="#DejaVuSerif-69" transform="translate(309.814453 0)"/>
     <use xlink:href="#DejaVuSerif-6e" transform="translate(341.796875 0)"/>
     <use xlink:href="#DejaVuSerif-70" transform="translate(406.201172 0)"/>
     <use xlink:href="#DejaVuSerif-65" transform="translate(470.214844 0)"/>
     <use xlink:href="#DejaVuSerif-61" transform="translate(529.394531 0)"/>
     <use xlink:href="#DejaVuSerif-72" transform="translate(589.013672 0)"/>
     <use xlink:href="#DejaVuSerif-73" transform="translate(636.816406 0)"/>
     <use xlink:href="#DejaVuSerif-6f" transform="translate(688.134766 0)"/>
     <use xlink:href="#DejaVuSerif-6e" transform="translate(748.339844 0)"/>
    </g>
    <!--  mnn = None thresh = 0,  -->
    <g transform="translate(83.997812 35.2875) scale(0.12 -0.12)">
     <defs>
      <path id="DejaVuSerif-3d" d="M 678 2894 
L 4684 2894 
L 4684 2394 
L 678 2394 
L 678 2894 
z
M 678 1619 
L 4684 1619 
L 4684 1119 
L 678 1119 
L 678 1619 
z
" transform="scale(0.015625)"/>
      <path id="DejaVuSerif-68" d="M 263 0 
L 263 331 
L 781 331 
L 781 4531 
L 231 4531 
L 231 4863 
L 1356 4863 
L 1356 2731 
Q 1516 3069 1770 3241 
Q 2025 3413 2363 3413 
Q 2913 3413 3172 3097 
Q 3431 2781 3431 2113 
L 3431 331 
L 3944 331 
L 3944 0 
L 2356 0 
L 2356 331 
L 2853 331 
L 2853 1931 
Q 2853 2541 2704 2764 
Q 2556 2988 2175 2988 
Q 1775 2988 1565 2697 
Q 1356 2406 1356 1850 
L 1356 331 
L 1856 331 
L 1856 0 
L 263 0 
z
" transform="scale(0.015625)"/>
      <path id="DejaVuSerif-2c" d="M 231 -622 
Q 525 -406 662 -114 
Q 800 178 800 594 
L 800 709 
L 1416 709 
Q 1391 175 1164 -208 
Q 938 -591 481 -872 
L 231 -622 
z
" transform="scale(0.015625)"/>
     </defs>
     <use xlink:href="#DejaVuSerif-20"/>
     <use xlink:href="#DejaVuSerif-6d" transform="translate(31.787109 0)"/>
     <use xlink:href="#DejaVuSerif-6e" transform="translate(126.611328 0)"/>
     <use xlink:href="#DejaVuSerif-6e" transform="translate(191.015625 0)"/>
     <use xlink:href="#DejaVuSerif-20" transform="translate(255.419922 0)"/>
     <use xlink:href="#DejaVuSerif-3d" transform="translate(287.207031 0)"/>
     <use xlink:href="#DejaVuSerif-20" transform="translate(370.996094 0)"/>
     <use xlink:href="#DejaVuSerif-4e" transform="translate(402.783203 0)"/>
     <use xlink:href="#DejaVuSerif-6f" transform="translate(490.283203 0)"/>
     <use xlink:href="#DejaVuSerif-6e" transform="translate(550.488281 0)"/>
     <use xlink:href="#DejaVuSerif-65" transform="translate(614.892578 0)"/>
     <use xlink:href="#DejaVuSerif-20" transform="translate(674.072266 0)"/>
     <use xlink:href="#DejaVuSerif-74" transform="translate(705.859375 0)"/>
     <use xlink:href="#DejaVuSerif-68" transform="translate(746.044922 0)"/>
     <use xlink:href="#DejaVuSerif-72" transform="translate(810.449219 0)"/>
     <use xlink:href="#DejaVuSerif-65" transform="translate(858.251953 0)"/>
     <use xlink:href="#DejaVuSerif-73" transform="translate(917.431641 0)"/>
     <use xlink:href="#DejaVuSerif-68" transform="translate(968.75 0)"/>
     <use xlink:href="#DejaVuSerif-20" transform="translate(1033.154297 0)"/>
     <use xlink:href="#DejaVuSerif-3d" transform="translate(1064.941406 0)"/>
     <use xlink:href="#DejaVuSerif-20" transform="translate(1148.730469 0)"/>
     <use xlink:href="#DejaVuSerif-30" transform="translate(1180.517578 0)"/>
     <use xlink:href="#DejaVuSerif-2c" transform="translate(1244.140625 0)"/>
     <use xlink:href="#DejaVuSerif-20" transform="translate(1275.927734 0)"/>
    </g>
    <!--  group_norm = False,  -->
    <g transform="translate(94.9525 48.724875) scale(0.12 -0.12)">
     <defs>
      <path id="DejaVuSerif-67" d="M 3359 2988 
L 3359 72 
Q 3359 -644 2965 -1033 
Q 2572 -1422 1844 -1422 
Q 1516 -1422 1216 -1362 
Q 916 -1303 641 -1184 
L 641 -488 
L 941 -488 
Q 997 -813 1206 -963 
Q 1416 -1113 1806 -1113 
Q 2313 -1113 2548 -827 
Q 2784 -541 2784 72 
L 2784 519 
Q 2616 206 2355 57 
Q 2094 -91 1709 -91 
Q 1097 -91 708 395 
Q 319 881 319 1663 
Q 319 2444 706 2928 
Q 1094 3413 1709 3413 
Q 2094 3413 2355 3264 
Q 2616 3116 2784 2803 
L 2784 3322 
L 3909 3322 
L 3909 2988 
L 3359 2988 
z
M 2784 1825 
Q 2784 2422 2554 2737 
Q 2325 3053 1888 3053 
Q 1444 3053 1217 2703 
Q 991 2353 991 1663 
Q 991 975 1217 622 
Q 1444 269 1888 269 
Q 2325 269 2554 583 
Q 2784 897 2784 1497 
L 2784 1825 
z
" transform="scale(0.015625)"/>
      <path id="DejaVuSerif-5f" d="M 3200 -1259 
L 3200 -1509 
L 0 -1509 
L 0 -1259 
L 3200 -1259 
z
" transform="scale(0.015625)"/>
      <path id="DejaVuSerif-46" d="M 353 0 
L 353 331 
L 947 331 
L 947 4331 
L 353 4331 
L 353 4666 
L 4172 4666 
L 4172 3628 
L 3788 3628 
L 3788 4281 
L 1581 4281 
L 1581 2719 
L 3175 2719 
L 3175 3303 
L 3559 3303 
L 3559 1753 
L 3175 1753 
L 3175 2338 
L 1581 2338 
L 1581 331 
L 2328 331 
L 2328 0 
L 353 0 
z
" transform="scale(0.015625)"/>
      <path id="DejaVuSerif-6c" d="M 1313 331 
L 1856 331 
L 1856 0 
L 184 0 
L 184 331 
L 738 331 
L 738 4531 
L 184 4531 
L 184 4863 
L 1313 4863 
L 1313 331 
z
" transform="scale(0.015625)"/>
     </defs>
     <use xlink:href="#DejaVuSerif-20"/>
     <use xlink:href="#DejaVuSerif-67" transform="translate(31.787109 0)"/>
     <use xlink:href="#DejaVuSerif-72" transform="translate(95.800781 0)"/>
     <use xlink:href="#DejaVuSerif-6f" transform="translate(143.603516 0)"/>
     <use xlink:href="#DejaVuSerif-75" transform="translate(203.808594 0)"/>
     <use xlink:href="#DejaVuSerif-70" transform="translate(268.212891 0)"/>
     <use xlink:href="#DejaVuSerif-5f" transform="translate(332.226562 0)"/>
     <use xlink:href="#DejaVuSerif-6e" transform="translate(382.226562 0)"/>
     <use xlink:href="#DejaVuSerif-6f" transform="translate(446.630859 0)"/>
     <use xlink:href="#DejaVuSerif-72" transform="translate(506.835938 0)"/>
     <use xlink:href="#DejaVuSerif-6d" transform="translate(554.638672 0)"/>
     <use xlink:href="#DejaVuSerif-20" transform="translate(649.462891 0)"/>
     <use xlink:href="#DejaVuSerif-3d" transform="translate(681.25 0)"/>
     <use xlink:href="#DejaVuSerif-20" transform="translate(765.039062 0)"/>
     <use xlink:href="#DejaVuSerif-46" transform="translate(796.826172 0)"/>
     <use xlink:href="#DejaVuSerif-61" transform="translate(859.460938 0)"/>
     <use xlink:href="#DejaVuSerif-6c" transform="translate(919.080078 0)"/>
     <use xlink:href="#DejaVuSerif-73" transform="translate(951.0625 0)"/>
     <use xlink:href="#DejaVuSerif-65" transform="translate(1002.380859 0)"/>
     <use xlink:href="#DejaVuSerif-2c" transform="translate(1061.560547 0)"/>
     <use xlink:href="#DejaVuSerif-20" transform="translate(1093.347656 0)"/>
    </g>
    <!--  permutation test on the median. -->
    <g transform="translate(62.210312 62.496) scale(0.12 -0.12)">
     <use xlink:href="#DejaVuSerif-20"/>
     <use xlink:href="#DejaVuSerif-70" transform="translate(31.787109 0)"/>
     <use xlink:href="#DejaVuSerif-65" transform="translate(95.800781 0)"/>
     <use xlink:href="#DejaVuSerif-72" transform="translate(154.980469 0)"/>
     <use xlink:href="#DejaVuSerif-6d" transform="translate(202.783203 0)"/>
     <use xlink:href="#DejaVuSerif-75" transform="translate(297.607422 0)"/>
     <use xlink:href="#DejaVuSerif-74" transform="translate(362.011719 0)"/>
     <use xlink:href="#DejaVuSerif-61" transform="translate(402.197266 0)"/>
     <use xlink:href="#DejaVuSerif-74" transform="translate(461.816406 0)"/>
     <use xlink:href="#DejaVuSerif-69" transform="translate(502.001953 0)"/>
     <use xlink:href="#DejaVuSerif-6f" transform="translate(533.984375 0)"/>
     <use xlink:href="#DejaVuSerif-6e" transform="translate(594.189453 0)"/>
     <use xlink:href="#DejaVuSerif-20" transform="translate(658.59375 0)"/>
     <use xlink:href="#DejaVuSerif-74" transform="translate(690.380859 0)"/>
     <use xlink:href="#DejaVuSerif-65" transform="translate(730.566406 0)"/>
     <use xlink:href="#DejaVuSerif-73" transform="translate(789.746094 0)"/>
     <use xlink:href="#DejaVuSerif-74" transform="translate(841.064453 0)"/>
     <use xlink:href="#DejaVuSerif-20" transform="translate(881.25 0)"/>
     <use xlink:href="#DejaVuSerif-6f" transform="translate(913.037109 0)"/>
     <use xlink:href="#DejaVuSerif-6e" transform="translate(973.242188 0)"/>
     <use xlink:href="#DejaVuSerif-20" transform="translate(1037.646484 0)"/>
     <use xlink:href="#DejaVuSerif-74" transform="translate(1069.433594 0)"/>
     <use xlink:href="#DejaVuSerif-68" transform="translate(1109.619141 0)"/>
     <use xlink:href="#DejaVuSerif-65" transform="translate(1174.023438 0)"/>
     <use xlink:href="#DejaVuSerif-20" transform="translate(1233.203125 0)"/>
     <use xlink:href="#DejaVuSerif-6d" transform="translate(1264.990234 0)"/>
     <use xlink:href="#DejaVuSerif-65" transform="translate(1359.814453 0)"/>
     <use xlink:href="#DejaVuSerif-64" transform="translate(1418.994141 0)"/>
     <use xlink:href="#DejaVuSerif-69" transform="translate(1483.007812 0)"/>
     <use xlink:href="#DejaVuSerif-61" transform="translate(1514.990234 0)"/>
     <use xlink:href="#DejaVuSerif-6e" transform="translate(1574.609375 0)"/>
     <use xlink:href="#DejaVuSerif-2e" transform="translate(1639.013672 0)"/>
    </g>
   </g>
  </g>
 </g>
 <defs>
  <clipPath id="p588e28941b">
   <rect x="47.72" y="68.496" width="229.48" height="335.624"/>
  </clipPath>
 </defs>
</svg>
