<?xml version="1.0" encoding="utf-8" standalone="no"?>
<!DOCTYPE svg PUBLIC "-//W3C//DTD SVG 1.1//EN"
  "http://www.w3.org/Graphics/SVG/1.1/DTD/svg11.dtd">
<svg xmlns:xlink="http://www.w3.org/1999/xlink" width="288pt" height="432pt" viewBox="0 0 288 432" xmlns="http://www.w3.org/2000/svg" version="1.1">
 <metadata>
  <rdf:RDF xmlns:dc="http://purl.org/dc/elements/1.1/" xmlns:cc="http://creativecommons.org/ns#" xmlns:rdf="http://www.w3.org/1999/02/22-rdf-syntax-ns#">
   <cc:Work>
    <dc:type rdf:resource="http://purl.org/dc/dcmitype/StillImage"/>
    <dc:date>2025-08-15T10:26:26.416058</dc:date>
    <dc:format>image/svg+xml</dc:format>
    <dc:creator>
     <cc:Agent>
      <dc:title>Matplotlib v3.10.0, https://matplotlib.org/</dc:title>
     </cc:Agent>
    </dc:creator>
   </cc:Work>
  </rdf:RDF>
 </metadata>
 <defs>
  <style type="text/css">*{stroke-linejoin: round; stroke-linecap: butt}</style>
 </defs>
 <g id="figure_1">
  <g id="patch_1">
   <path d="M 0 432 
L 288 432 
L 288 0 
L 0 0 
z
" style="fill: #ffffff"/>
  </g>
  <g id="axes_1">
   <g id="patch_2">
    <path d="M 42.01 404.12 
L 277.2 404.12 
L 277.2 68.496 
L 42.01 68.496 
z
" style="fill: #ffffff"/>
   </g>
   <g id="PathCollection_1">
    <defs>
     <path id="C0_0_ea1d4374ba" d="M 0 3.872983 
C 1.027127 3.872983 2.012324 3.464901 2.738613 2.738613 
C 3.464901 2.012324 3.872983 1.027127 3.872983 -0 
C 3.872983 -1.027127 3.464901 -2.012324 2.738613 -2.738613 
C 2.012324 -3.464901 1.027127 -3.872983 0 -3.872983 
C -1.027127 -3.872983 -2.012324 -3.464901 -2.738613 -2.738613 
C -3.464901 -2.012324 -3.872983 -1.027127 -3.872983 0 
C -3.872983 1.027127 -3.464901 2.012324 -2.738613 2.738613 
C -2.012324 3.464901 -1.027127 3.872983 0 3.872983 
z
"/>
    </defs>
    <g clip-path="url(#p1d134f128c)">
     <use xlink:href="#C0_0_ea1d4374ba" x="117.51323" y="139.573205" style="fill: #ff0000; fill-opacity: 0.4"/>
    </g>
    <g clip-path="url(#p1d134f128c)">
     <use xlink:href="#C0_0_ea1d4374ba" x="111.781887" y="216.394588" style="fill: #ff0000; fill-opacity: 0.4"/>
    </g>
    <g clip-path="url(#p1d134f128c)">
     <use xlink:href="#C0_0_ea1d4374ba" x="104.29793" y="183.425551" style="fill: #ff0000; fill-opacity: 0.4"/>
    </g>
    <g clip-path="url(#p1d134f128c)">
     <use xlink:href="#C0_0_ea1d4374ba" x="110.732767" y="191.822427" style="fill: #ff0000; fill-opacity: 0.4"/>
    </g>
    <g clip-path="url(#p1d134f128c)">
     <use xlink:href="#C0_0_ea1d4374ba" x="117.067619" y="205.526191" style="fill: #ff0000; fill-opacity: 0.4"/>
    </g>
    <g clip-path="url(#p1d134f128c)">
     <use xlink:href="#C0_0_ea1d4374ba" x="109.44308" y="167.224298" style="fill: #ff0000; fill-opacity: 0.4"/>
    </g>
    <g clip-path="url(#p1d134f128c)">
     <use xlink:href="#C0_0_ea1d4374ba" x="104.063894" y="175.853147" style="fill: #ff0000; fill-opacity: 0.4"/>
    </g>
    <g clip-path="url(#p1d134f128c)">
     <use xlink:href="#C0_0_ea1d4374ba" x="120.464725" y="216.27711" style="fill: #ff0000; fill-opacity: 0.4"/>
    </g>
    <g clip-path="url(#p1d134f128c)">
     <use xlink:href="#C0_0_ea1d4374ba" x="118.593224" y="283.29067" style="fill: #ff0000; fill-opacity: 0.4"/>
    </g>
    <g clip-path="url(#p1d134f128c)">
     <use xlink:href="#C0_0_ea1d4374ba" x="106.914249" y="178.888022" style="fill: #ff0000; fill-opacity: 0.4"/>
    </g>
    <g clip-path="url(#p1d134f128c)">
     <use xlink:href="#C0_0_ea1d4374ba" x="120.25193" y="245.223529" style="fill: #ff0000; fill-opacity: 0.4"/>
    </g>
    <g clip-path="url(#p1d134f128c)">
     <use xlink:href="#C0_0_ea1d4374ba" x="110.524926" y="181.214719" style="fill: #ff0000; fill-opacity: 0.4"/>
    </g>
    <g clip-path="url(#p1d134f128c)">
     <use xlink:href="#C0_0_ea1d4374ba" x="117.230164" y="127.683448" style="fill: #ff0000; fill-opacity: 0.4"/>
    </g>
    <g clip-path="url(#p1d134f128c)">
     <use xlink:href="#C0_0_ea1d4374ba" x="113.993786" y="177.415623" style="fill: #ff0000; fill-opacity: 0.4"/>
    </g>
    <g clip-path="url(#p1d134f128c)">
     <use xlink:href="#C0_0_ea1d4374ba" x="124.489199" y="290.204072" style="fill: #ff0000; fill-opacity: 0.4"/>
    </g>
    <g clip-path="url(#p1d134f128c)">
     <use xlink:href="#C0_0_ea1d4374ba" x="117.198898" y="172.108543" style="fill: #ff0000; fill-opacity: 0.4"/>
    </g>
    <g clip-path="url(#p1d134f128c)">
     <use xlink:href="#C0_0_ea1d4374ba" x="123.250754" y="208.383753" style="fill: #ff0000; fill-opacity: 0.4"/>
    </g>
    <g clip-path="url(#p1d134f128c)">
     <use xlink:href="#C0_0_ea1d4374ba" x="112.040252" y="155.729229" style="fill: #ff0000; fill-opacity: 0.4"/>
    </g>
    <g clip-path="url(#p1d134f128c)">
     <use xlink:href="#C0_0_ea1d4374ba" x="115.235637" y="165.7824" style="fill: #ff0000; fill-opacity: 0.4"/>
    </g>
    <g clip-path="url(#p1d134f128c)">
     <use xlink:href="#C0_0_ea1d4374ba" x="118.776275" y="165.628871" style="fill: #ff0000; fill-opacity: 0.4"/>
    </g>
    <g clip-path="url(#p1d134f128c)">
     <use xlink:href="#C0_0_ea1d4374ba" x="120.535721" y="181.20147" style="fill: #ff0000; fill-opacity: 0.4"/>
    </g>
    <g clip-path="url(#p1d134f128c)">
     <use xlink:href="#C0_0_ea1d4374ba" x="124.2835" y="180.303329" style="fill: #ff0000; fill-opacity: 0.4"/>
    </g>
    <g clip-path="url(#p1d134f128c)">
     <use xlink:href="#C0_0_ea1d4374ba" x="125.144003" y="185.278993" style="fill: #ff0000; fill-opacity: 0.4"/>
    </g>
    <g clip-path="url(#p1d134f128c)">
     <use xlink:href="#C0_0_ea1d4374ba" x="128.989442" y="186.994676" style="fill: #ff0000; fill-opacity: 0.4"/>
    </g>
    <g clip-path="url(#p1d134f128c)">
     <use xlink:href="#C0_0_ea1d4374ba" x="132.230946" y="184.653575" style="fill: #ff0000; fill-opacity: 0.4"/>
    </g>
    <g clip-path="url(#p1d134f128c)">
     <use xlink:href="#C0_0_ea1d4374ba" x="119.628271" y="168.407567" style="fill: #ff0000; fill-opacity: 0.4"/>
    </g>
    <g clip-path="url(#p1d134f128c)">
     <use xlink:href="#C0_0_ea1d4374ba" x="117.079685" y="237.516309" style="fill: #ff0000; fill-opacity: 0.4"/>
    </g>
    <g clip-path="url(#p1d134f128c)">
     <use xlink:href="#C0_0_ea1d4374ba" x="114.869164" y="198.290387" style="fill: #ff0000; fill-opacity: 0.4"/>
    </g>
    <g clip-path="url(#p1d134f128c)">
     <use xlink:href="#C0_0_ea1d4374ba" x="120.756298" y="238.069038" style="fill: #ff0000; fill-opacity: 0.4"/>
    </g>
    <g clip-path="url(#p1d134f128c)">
     <use xlink:href="#C0_0_ea1d4374ba" x="123.958487" y="238.077394" style="fill: #ff0000; fill-opacity: 0.4"/>
    </g>
    <g clip-path="url(#p1d134f128c)">
     <use xlink:href="#C0_0_ea1d4374ba" x="135.201612" y="171.752693" style="fill: #ff0000; fill-opacity: 0.4"/>
    </g>
    <g clip-path="url(#p1d134f128c)">
     <use xlink:href="#C0_0_ea1d4374ba" x="121.632449" y="142.049081" style="fill: #ff0000; fill-opacity: 0.4"/>
    </g>
    <g clip-path="url(#p1d134f128c)">
     <use xlink:href="#C0_0_ea1d4374ba" x="127.746395" y="208.024909" style="fill: #ff0000; fill-opacity: 0.4"/>
    </g>
    <g clip-path="url(#p1d134f128c)">
     <use xlink:href="#C0_0_ea1d4374ba" x="117.777618" y="196.250245" style="fill: #ff0000; fill-opacity: 0.4"/>
    </g>
    <g clip-path="url(#p1d134f128c)">
     <use xlink:href="#C0_0_ea1d4374ba" x="119.070209" y="190.056892" style="fill: #ff0000; fill-opacity: 0.4"/>
    </g>
    <g clip-path="url(#p1d134f128c)">
     <use xlink:href="#C0_0_ea1d4374ba" x="121.956565" y="155.987507" style="fill: #ff0000; fill-opacity: 0.4"/>
    </g>
    <g clip-path="url(#p1d134f128c)">
     <use xlink:href="#C0_0_ea1d4374ba" x="139.230021" y="176.315855" style="fill: #ff0000; fill-opacity: 0.4"/>
    </g>
    <g clip-path="url(#p1d134f128c)">
     <use xlink:href="#C0_0_ea1d4374ba" x="122.976471" y="198.062612" style="fill: #ff0000; fill-opacity: 0.4"/>
    </g>
    <g clip-path="url(#p1d134f128c)">
     <use xlink:href="#C0_0_ea1d4374ba" x="126.30345" y="163.176067" style="fill: #ff0000; fill-opacity: 0.4"/>
    </g>
    <g clip-path="url(#p1d134f128c)">
     <use xlink:href="#C0_0_ea1d4374ba" x="128.386944" y="162.961889" style="fill: #ff0000; fill-opacity: 0.4"/>
    </g>
    <g clip-path="url(#p1d134f128c)">
     <use xlink:href="#C0_0_ea1d4374ba" x="125.024655" y="203.624687" style="fill: #ff0000; fill-opacity: 0.4"/>
    </g>
    <g clip-path="url(#p1d134f128c)">
     <use xlink:href="#C0_0_ea1d4374ba" x="128.967547" y="195.313101" style="fill: #ff0000; fill-opacity: 0.4"/>
    </g>
    <g clip-path="url(#p1d134f128c)">
     <use xlink:href="#C0_0_ea1d4374ba" x="133.36185" y="161.635658" style="fill: #ff0000; fill-opacity: 0.4"/>
    </g>
    <g clip-path="url(#p1d134f128c)">
     <use xlink:href="#C0_0_ea1d4374ba" x="123.086924" y="124.591118" style="fill: #ff0000; fill-opacity: 0.4"/>
    </g>
   </g>
   <g id="PathCollection_2">
    <defs>
     <path id="C1_0_d6bb64149a" d="M 0 3.872983 
C 1.027127 3.872983 2.012324 3.464901 2.738613 2.738613 
C 3.464901 2.012324 3.872983 1.027127 3.872983 -0 
C 3.872983 -1.027127 3.464901 -2.012324 2.738613 -2.738613 
C 2.012324 -3.464901 1.027127 -3.872983 0 -3.872983 
C -1.027127 -3.872983 -2.012324 -3.464901 -2.738613 -2.738613 
C -3.464901 -2.012324 -3.872983 -1.027127 -3.872983 0 
C -3.872983 1.027127 -3.464901 2.012324 -2.738613 2.738613 
C -2.012324 3.464901 -1.027127 3.872983 0 3.872983 
z
"/>
    </defs>
    <g clip-path="url(#p1d134f128c)">
     <use xlink:href="#C1_0_d6bb64149a" x="184.303573" y="162.861973" style="fill: #808080; fill-opacity: 0.4"/>
    </g>
    <g clip-path="url(#p1d134f128c)">
     <use xlink:href="#C1_0_d6bb64149a" x="174.310518" y="214.230359" style="fill: #808080; fill-opacity: 0.4"/>
    </g>
    <g clip-path="url(#p1d134f128c)">
     <use xlink:href="#C1_0_d6bb64149a" x="176.88788" y="206.189317" style="fill: #808080; fill-opacity: 0.4"/>
    </g>
    <g clip-path="url(#p1d134f128c)">
     <use xlink:href="#C1_0_d6bb64149a" x="193.998592" y="141.454475" style="fill: #808080; fill-opacity: 0.4"/>
    </g>
    <g clip-path="url(#p1d134f128c)">
     <use xlink:href="#C1_0_d6bb64149a" x="187.886821" y="162.6213" style="fill: #808080; fill-opacity: 0.4"/>
    </g>
    <g clip-path="url(#p1d134f128c)">
     <use xlink:href="#C1_0_d6bb64149a" x="191.668692" y="156.588851" style="fill: #808080; fill-opacity: 0.4"/>
    </g>
    <g clip-path="url(#p1d134f128c)">
     <use xlink:href="#C1_0_d6bb64149a" x="191.93556" y="156.100629" style="fill: #808080; fill-opacity: 0.4"/>
    </g>
    <g clip-path="url(#p1d134f128c)">
     <use xlink:href="#C1_0_d6bb64149a" x="197.724316" y="123.019875" style="fill: #808080; fill-opacity: 0.4"/>
    </g>
    <g clip-path="url(#p1d134f128c)">
     <use xlink:href="#C1_0_d6bb64149a" x="186.623865" y="279.22165" style="fill: #808080; fill-opacity: 0.4"/>
    </g>
    <g clip-path="url(#p1d134f128c)">
     <use xlink:href="#C1_0_d6bb64149a" x="173.98049" y="174.308428" style="fill: #808080; fill-opacity: 0.4"/>
    </g>
    <g clip-path="url(#p1d134f128c)">
     <use xlink:href="#C1_0_d6bb64149a" x="190.043238" y="270.216227" style="fill: #808080; fill-opacity: 0.4"/>
    </g>
    <g clip-path="url(#p1d134f128c)">
     <use xlink:href="#C1_0_d6bb64149a" x="196.582535" y="253.384008" style="fill: #808080; fill-opacity: 0.4"/>
    </g>
    <g clip-path="url(#p1d134f128c)">
     <use xlink:href="#C1_0_d6bb64149a" x="180.568401" y="208.558708" style="fill: #808080; fill-opacity: 0.4"/>
    </g>
    <g clip-path="url(#p1d134f128c)">
     <use xlink:href="#C1_0_d6bb64149a" x="181.746127" y="207.751672" style="fill: #808080; fill-opacity: 0.4"/>
    </g>
    <g clip-path="url(#p1d134f128c)">
     <use xlink:href="#C1_0_d6bb64149a" x="186.450618" y="210.713925" style="fill: #808080; fill-opacity: 0.4"/>
    </g>
    <g clip-path="url(#p1d134f128c)">
     <use xlink:href="#C1_0_d6bb64149a" x="186.652343" y="199.71815" style="fill: #808080; fill-opacity: 0.4"/>
    </g>
    <g clip-path="url(#p1d134f128c)">
     <use xlink:href="#C1_0_d6bb64149a" x="198.928395" y="256.262368" style="fill: #808080; fill-opacity: 0.4"/>
    </g>
    <g clip-path="url(#p1d134f128c)">
     <use xlink:href="#C1_0_d6bb64149a" x="188.897696" y="224.857573" style="fill: #808080; fill-opacity: 0.4"/>
    </g>
    <g clip-path="url(#p1d134f128c)">
     <use xlink:href="#C1_0_d6bb64149a" x="188.313265" y="203.227275" style="fill: #808080; fill-opacity: 0.4"/>
    </g>
    <g clip-path="url(#p1d134f128c)">
     <use xlink:href="#C1_0_d6bb64149a" x="192.774815" y="217.361117" style="fill: #808080; fill-opacity: 0.4"/>
    </g>
    <g clip-path="url(#p1d134f128c)">
     <use xlink:href="#C1_0_d6bb64149a" x="189.714656" y="188.713666" style="fill: #808080; fill-opacity: 0.4"/>
    </g>
    <g clip-path="url(#p1d134f128c)">
     <use xlink:href="#C1_0_d6bb64149a" x="197.679564" y="147.67386" style="fill: #808080; fill-opacity: 0.4"/>
    </g>
    <g clip-path="url(#p1d134f128c)">
     <use xlink:href="#C1_0_d6bb64149a" x="186.542452" y="236.807058" style="fill: #808080; fill-opacity: 0.4"/>
    </g>
    <g clip-path="url(#p1d134f128c)">
     <use xlink:href="#C1_0_d6bb64149a" x="194.028821" y="284.718219" style="fill: #808080; fill-opacity: 0.4"/>
    </g>
    <g clip-path="url(#p1d134f128c)">
     <use xlink:href="#C1_0_d6bb64149a" x="190.597606" y="237.949611" style="fill: #808080; fill-opacity: 0.4"/>
    </g>
    <g clip-path="url(#p1d134f128c)">
     <use xlink:href="#C1_0_d6bb64149a" x="196.329903" y="280.907662" style="fill: #808080; fill-opacity: 0.4"/>
    </g>
    <g clip-path="url(#p1d134f128c)">
     <use xlink:href="#C1_0_d6bb64149a" x="193.016768" y="247.865119" style="fill: #808080; fill-opacity: 0.4"/>
    </g>
    <g clip-path="url(#p1d134f128c)">
     <use xlink:href="#C1_0_d6bb64149a" x="195.779978" y="213.554148" style="fill: #808080; fill-opacity: 0.4"/>
    </g>
    <g clip-path="url(#p1d134f128c)">
     <use xlink:href="#C1_0_d6bb64149a" x="192.825262" y="184.343569" style="fill: #808080; fill-opacity: 0.4"/>
    </g>
    <g clip-path="url(#p1d134f128c)">
     <use xlink:href="#C1_0_d6bb64149a" x="199.33667" y="283.013069" style="fill: #808080; fill-opacity: 0.4"/>
    </g>
    <g clip-path="url(#p1d134f128c)">
     <use xlink:href="#C1_0_d6bb64149a" x="202.624943" y="275.275364" style="fill: #808080; fill-opacity: 0.4"/>
    </g>
    <g clip-path="url(#p1d134f128c)">
     <use xlink:href="#C1_0_d6bb64149a" x="177.137882" y="183.538118" style="fill: #808080; fill-opacity: 0.4"/>
    </g>
    <g clip-path="url(#p1d134f128c)">
     <use xlink:href="#C1_0_d6bb64149a" x="205.407598" y="270.733404" style="fill: #808080; fill-opacity: 0.4"/>
    </g>
    <g clip-path="url(#p1d134f128c)">
     <use xlink:href="#C1_0_d6bb64149a" x="179.469528" y="177.780861" style="fill: #808080; fill-opacity: 0.4"/>
    </g>
    <g clip-path="url(#p1d134f128c)">
     <use xlink:href="#C1_0_d6bb64149a" x="193.540568" y="224.653292" style="fill: #808080; fill-opacity: 0.4"/>
    </g>
    <g clip-path="url(#p1d134f128c)">
     <use xlink:href="#C1_0_d6bb64149a" x="184.208245" y="179.075533" style="fill: #808080; fill-opacity: 0.4"/>
    </g>
    <g clip-path="url(#p1d134f128c)">
     <use xlink:href="#C1_0_d6bb64149a" x="199.217447" y="211.982425" style="fill: #808080; fill-opacity: 0.4"/>
    </g>
    <g clip-path="url(#p1d134f128c)">
     <use xlink:href="#C1_0_d6bb64149a" x="185.871855" y="176.791316" style="fill: #808080; fill-opacity: 0.4"/>
    </g>
    <g clip-path="url(#p1d134f128c)">
     <use xlink:href="#C1_0_d6bb64149a" x="194.673678" y="193.941709" style="fill: #808080; fill-opacity: 0.4"/>
    </g>
    <g clip-path="url(#p1d134f128c)">
     <use xlink:href="#C1_0_d6bb64149a" x="201.43909" y="214.08283" style="fill: #808080; fill-opacity: 0.4"/>
    </g>
    <g clip-path="url(#p1d134f128c)">
     <use xlink:href="#C1_0_d6bb64149a" x="205.341488" y="214.541963" style="fill: #808080; fill-opacity: 0.4"/>
    </g>
    <g clip-path="url(#p1d134f128c)">
     <use xlink:href="#C1_0_d6bb64149a" x="195.174756" y="231.185435" style="fill: #808080; fill-opacity: 0.4"/>
    </g>
    <g clip-path="url(#p1d134f128c)">
     <use xlink:href="#C1_0_d6bb64149a" x="199.191834" y="388.864364" style="fill: #808080; fill-opacity: 0.4"/>
    </g>
    <g clip-path="url(#p1d134f128c)">
     <use xlink:href="#C1_0_d6bb64149a" x="197.629603" y="296.396165" style="fill: #808080; fill-opacity: 0.4"/>
    </g>
    <g clip-path="url(#p1d134f128c)">
     <use xlink:href="#C1_0_d6bb64149a" x="200.535835" y="288.987003" style="fill: #808080; fill-opacity: 0.4"/>
    </g>
    <g clip-path="url(#p1d134f128c)">
     <use xlink:href="#C1_0_d6bb64149a" x="209.590054" y="285.593381" style="fill: #808080; fill-opacity: 0.4"/>
    </g>
    <g clip-path="url(#p1d134f128c)">
     <use xlink:href="#C1_0_d6bb64149a" x="211.066863" y="209.189322" style="fill: #808080; fill-opacity: 0.4"/>
    </g>
    <g clip-path="url(#p1d134f128c)">
     <use xlink:href="#C1_0_d6bb64149a" x="211.332137" y="202.676851" style="fill: #808080; fill-opacity: 0.4"/>
    </g>
    <g clip-path="url(#p1d134f128c)">
     <use xlink:href="#C1_0_d6bb64149a" x="196.590125" y="242.589956" style="fill: #808080; fill-opacity: 0.4"/>
    </g>
    <g clip-path="url(#p1d134f128c)">
     <use xlink:href="#C1_0_d6bb64149a" x="198.667124" y="244.545876" style="fill: #808080; fill-opacity: 0.4"/>
    </g>
    <g clip-path="url(#p1d134f128c)">
     <use xlink:href="#C1_0_d6bb64149a" x="212.610202" y="208.874237" style="fill: #808080; fill-opacity: 0.4"/>
    </g>
    <g clip-path="url(#p1d134f128c)">
     <use xlink:href="#C1_0_d6bb64149a" x="197.49285" y="160.938065" style="fill: #808080; fill-opacity: 0.4"/>
    </g>
    <g clip-path="url(#p1d134f128c)">
     <use xlink:href="#C1_0_d6bb64149a" x="200.404511" y="165.736429" style="fill: #808080; fill-opacity: 0.4"/>
    </g>
    <g clip-path="url(#p1d134f128c)">
     <use xlink:href="#C1_0_d6bb64149a" x="203.289435" y="163.158757" style="fill: #808080; fill-opacity: 0.4"/>
    </g>
    <g clip-path="url(#p1d134f128c)">
     <use xlink:href="#C1_0_d6bb64149a" x="207.296539" y="163.768018" style="fill: #808080; fill-opacity: 0.4"/>
    </g>
    <g clip-path="url(#p1d134f128c)">
     <use xlink:href="#C1_0_d6bb64149a" x="198.048207" y="225.608281" style="fill: #808080; fill-opacity: 0.4"/>
    </g>
    <g clip-path="url(#p1d134f128c)">
     <use xlink:href="#C1_0_d6bb64149a" x="198.574823" y="183.847397" style="fill: #808080; fill-opacity: 0.4"/>
    </g>
    <g clip-path="url(#p1d134f128c)">
     <use xlink:href="#C1_0_d6bb64149a" x="190.912178" y="169.69893" style="fill: #808080; fill-opacity: 0.4"/>
    </g>
    <g clip-path="url(#p1d134f128c)">
     <use xlink:href="#C1_0_d6bb64149a" x="202.235536" y="236.876101" style="fill: #808080; fill-opacity: 0.4"/>
    </g>
    <g clip-path="url(#p1d134f128c)">
     <use xlink:href="#C1_0_d6bb64149a" x="216.30009" y="206.84249" style="fill: #808080; fill-opacity: 0.4"/>
    </g>
    <g clip-path="url(#p1d134f128c)">
     <use xlink:href="#C1_0_d6bb64149a" x="204.463387" y="241.400283" style="fill: #808080; fill-opacity: 0.4"/>
    </g>
    <g clip-path="url(#p1d134f128c)">
     <use xlink:href="#C1_0_d6bb64149a" x="200.377541" y="142.330933" style="fill: #808080; fill-opacity: 0.4"/>
    </g>
    <g clip-path="url(#p1d134f128c)">
     <use xlink:href="#C1_0_d6bb64149a" x="208.753879" y="152.065144" style="fill: #808080; fill-opacity: 0.4"/>
    </g>
    <g clip-path="url(#p1d134f128c)">
     <use xlink:href="#C1_0_d6bb64149a" x="207.97954" y="245.541432" style="fill: #808080; fill-opacity: 0.4"/>
    </g>
    <g clip-path="url(#p1d134f128c)">
     <use xlink:href="#C1_0_d6bb64149a" x="202.190153" y="226.924615" style="fill: #808080; fill-opacity: 0.4"/>
    </g>
    <g clip-path="url(#p1d134f128c)">
     <use xlink:href="#C1_0_d6bb64149a" x="192.975665" y="173.305352" style="fill: #808080; fill-opacity: 0.4"/>
    </g>
    <g clip-path="url(#p1d134f128c)">
     <use xlink:href="#C1_0_d6bb64149a" x="210.8552" y="243.745084" style="fill: #808080; fill-opacity: 0.4"/>
    </g>
    <g clip-path="url(#p1d134f128c)">
     <use xlink:href="#C1_0_d6bb64149a" x="221.774341" y="202.748662" style="fill: #808080; fill-opacity: 0.4"/>
    </g>
    <g clip-path="url(#p1d134f128c)">
     <use xlink:href="#C1_0_d6bb64149a" x="196.345405" y="182.976129" style="fill: #808080; fill-opacity: 0.4"/>
    </g>
    <g clip-path="url(#p1d134f128c)">
     <use xlink:href="#C1_0_d6bb64149a" x="200.127036" y="169.038797" style="fill: #808080; fill-opacity: 0.4"/>
    </g>
    <g clip-path="url(#p1d134f128c)">
     <use xlink:href="#C1_0_d6bb64149a" x="200.630159" y="112.744248" style="fill: #808080; fill-opacity: 0.4"/>
    </g>
    <g clip-path="url(#p1d134f128c)">
     <use xlink:href="#C1_0_d6bb64149a" x="199.88307" y="199.399518" style="fill: #808080; fill-opacity: 0.4"/>
    </g>
    <g clip-path="url(#p1d134f128c)">
     <use xlink:href="#C1_0_d6bb64149a" x="223.202592" y="215.140863" style="fill: #808080; fill-opacity: 0.4"/>
    </g>
    <g clip-path="url(#p1d134f128c)">
     <use xlink:href="#C1_0_d6bb64149a" x="200.266615" y="171.825817" style="fill: #808080; fill-opacity: 0.4"/>
    </g>
    <g clip-path="url(#p1d134f128c)">
     <use xlink:href="#C1_0_d6bb64149a" x="207.288542" y="178.11495" style="fill: #808080; fill-opacity: 0.4"/>
    </g>
    <g clip-path="url(#p1d134f128c)">
     <use xlink:href="#C1_0_d6bb64149a" x="206.797269" y="180.950499" style="fill: #808080; fill-opacity: 0.4"/>
    </g>
    <g clip-path="url(#p1d134f128c)">
     <use xlink:href="#C1_0_d6bb64149a" x="212.350336" y="173.750036" style="fill: #808080; fill-opacity: 0.4"/>
    </g>
    <g clip-path="url(#p1d134f128c)">
     <use xlink:href="#C1_0_d6bb64149a" x="204.86758" y="225.158899" style="fill: #808080; fill-opacity: 0.4"/>
    </g>
    <g clip-path="url(#p1d134f128c)">
     <use xlink:href="#C1_0_d6bb64149a" x="204.356582" y="189.472109" style="fill: #808080; fill-opacity: 0.4"/>
    </g>
    <g clip-path="url(#p1d134f128c)">
     <use xlink:href="#C1_0_d6bb64149a" x="214.037977" y="181.853782" style="fill: #808080; fill-opacity: 0.4"/>
    </g>
    <g clip-path="url(#p1d134f128c)">
     <use xlink:href="#C1_0_d6bb64149a" x="216.885553" y="174.659325" style="fill: #808080; fill-opacity: 0.4"/>
    </g>
    <g clip-path="url(#p1d134f128c)">
     <use xlink:href="#C1_0_d6bb64149a" x="206.70211" y="192.538251" style="fill: #808080; fill-opacity: 0.4"/>
    </g>
    <g clip-path="url(#p1d134f128c)">
     <use xlink:href="#C1_0_d6bb64149a" x="219.847059" y="182.387093" style="fill: #808080; fill-opacity: 0.4"/>
    </g>
    <g clip-path="url(#p1d134f128c)">
     <use xlink:href="#C1_0_d6bb64149a" x="212.212091" y="184.136661" style="fill: #808080; fill-opacity: 0.4"/>
    </g>
    <g clip-path="url(#p1d134f128c)">
     <use xlink:href="#C1_0_d6bb64149a" x="212.987178" y="154.766758" style="fill: #808080; fill-opacity: 0.4"/>
    </g>
    <g clip-path="url(#p1d134f128c)">
     <use xlink:href="#C1_0_d6bb64149a" x="224.591579" y="168.426844" style="fill: #808080; fill-opacity: 0.4"/>
    </g>
    <g clip-path="url(#p1d134f128c)">
     <use xlink:href="#C1_0_d6bb64149a" x="209.9721" y="223.471312" style="fill: #808080; fill-opacity: 0.4"/>
    </g>
    <g clip-path="url(#p1d134f128c)">
     <use xlink:href="#C1_0_d6bb64149a" x="203.427962" y="132.50106" style="fill: #808080; fill-opacity: 0.4"/>
    </g>
   </g>
   <g id="FillBetweenPolyCollection_1">
    <path d="M 122.118484 290.204072 
L 118.694849 290.204072 
L 118.655229 288.531214 
L 118.627327 286.858356 
L 118.610541 285.185498 
L 118.603713 283.51264 
L 118.605145 281.839782 
L 118.612648 280.166923 
L 118.623609 278.494065 
L 118.635092 276.821207 
L 118.643955 275.148349 
L 118.646978 273.475491 
L 118.641008 271.802633 
L 118.623101 270.129775 
L 118.59066 268.456917 
L 118.541561 266.784058 
L 118.474255 265.1112 
L 118.387851 263.438342 
L 118.282157 261.765484 
L 118.157696 260.092626 
L 118.015675 258.419768 
L 117.857914 256.74691 
L 117.686749 255.074052 
L 117.504884 253.401193 
L 117.315235 251.728335 
L 117.120735 250.055477 
L 116.92415 248.382619 
L 116.727882 246.709761 
L 116.533791 245.036903 
L 116.343046 243.364045 
L 116.156009 241.691187 
L 115.97216 240.018328 
L 115.790079 238.34547 
L 115.607475 236.672612 
L 115.421275 234.999754 
L 115.227753 233.326896 
L 115.022706 231.654038 
L 114.801657 229.98118 
L 114.560078 228.308322 
L 114.293617 226.635463 
L 113.998314 224.962605 
L 113.670798 223.289747 
L 113.308451 221.616889 
L 112.90953 219.944031 
L 112.473249 218.271173 
L 111.99981 216.598315 
L 111.490398 214.925457 
L 110.947133 213.252598 
L 110.372992 211.57974 
L 109.77172 209.906882 
L 109.147718 208.234024 
L 108.505935 206.561166 
L 107.851767 204.888308 
L 107.190969 203.21545 
L 106.529572 201.542592 
L 105.873831 199.869733 
L 105.230167 198.196875 
L 104.605138 196.524017 
L 104.005395 194.851159 
L 103.437645 193.178301 
L 102.908602 191.505443 
L 102.424922 189.832585 
L 101.993115 188.159727 
L 101.619441 186.486868 
L 101.309786 184.81401 
L 101.069514 183.141152 
L 100.90331 181.468294 
L 100.815022 179.795436 
L 100.8075 178.122578 
L 100.882455 176.44972 
L 101.040336 174.776862 
L 101.28024 173.104003 
L 101.599871 171.431145 
L 101.995528 169.758287 
L 102.462159 168.085429 
L 102.993458 166.412571 
L 103.582009 164.739713 
L 104.219478 163.066855 
L 104.896843 161.393997 
L 105.604645 159.721138 
L 106.333262 158.04828 
L 107.073186 156.375422 
L 107.815291 154.702564 
L 108.551083 153.029706 
L 109.272914 151.356848 
L 109.974162 149.68399 
L 110.64936 148.011132 
L 111.29427 146.338273 
L 111.905908 144.665415 
L 112.482513 142.992557 
L 113.023468 141.319699 
L 113.529179 139.646841 
L 114.000923 137.973983 
L 114.440666 136.301125 
L 114.850873 134.628267 
L 115.234318 132.955408 
L 115.593896 131.28255 
L 115.932457 129.609692 
L 116.252663 127.936834 
L 116.556872 126.263976 
L 116.847061 124.591118 
L 123.966272 124.591118 
L 123.966272 124.591118 
L 124.256462 126.263976 
L 124.560671 127.936834 
L 124.880876 129.609692 
L 125.219437 131.28255 
L 125.579015 132.955408 
L 125.96246 134.628267 
L 126.372667 136.301125 
L 126.81241 137.973983 
L 127.284154 139.646841 
L 127.789866 141.319699 
L 128.330821 142.992557 
L 128.907426 144.665415 
L 129.519063 146.338273 
L 130.163973 148.011132 
L 130.839171 149.68399 
L 131.540419 151.356848 
L 132.26225 153.029706 
L 132.998042 154.702564 
L 133.740148 156.375422 
L 134.480072 158.04828 
L 135.208689 159.721138 
L 135.91649 161.393997 
L 136.593855 163.066855 
L 137.231324 164.739713 
L 137.819875 166.412571 
L 138.351174 168.085429 
L 138.817805 169.758287 
L 139.213462 171.431145 
L 139.533093 173.104003 
L 139.772998 174.776862 
L 139.930878 176.44972 
L 140.005833 178.122578 
L 139.998312 179.795436 
L 139.910024 181.468294 
L 139.74382 183.141152 
L 139.503547 184.81401 
L 139.193892 186.486868 
L 138.820219 188.159727 
L 138.388411 189.832585 
L 137.904731 191.505443 
L 137.375688 193.178301 
L 136.807939 194.851159 
L 136.208195 196.524017 
L 135.583166 198.196875 
L 134.939503 199.869733 
L 134.283761 201.542592 
L 133.622365 203.21545 
L 132.961566 204.888308 
L 132.307399 206.561166 
L 131.665616 208.234024 
L 131.041613 209.906882 
L 130.440341 211.57974 
L 129.866201 213.252598 
L 129.322935 214.925457 
L 128.813523 216.598315 
L 128.340084 218.271173 
L 127.903803 219.944031 
L 127.504882 221.616889 
L 127.142535 223.289747 
L 126.81502 224.962605 
L 126.519717 226.635463 
L 126.253256 228.308322 
L 126.011677 229.98118 
L 125.790628 231.654038 
L 125.58558 233.326896 
L 125.392058 234.999754 
L 125.205858 236.672612 
L 125.023255 238.34547 
L 124.841173 240.018328 
L 124.657324 241.691187 
L 124.470287 243.364045 
L 124.279543 245.036903 
L 124.085452 246.709761 
L 123.889183 248.382619 
L 123.692598 250.055477 
L 123.498099 251.728335 
L 123.308449 253.401193 
L 123.126585 255.074052 
L 122.955419 256.74691 
L 122.797659 258.419768 
L 122.655637 260.092626 
L 122.531176 261.765484 
L 122.425483 263.438342 
L 122.339078 265.1112 
L 122.271772 266.784058 
L 122.222673 268.456917 
L 122.190232 270.129775 
L 122.172325 271.802633 
L 122.166355 273.475491 
L 122.169378 275.148349 
L 122.178241 276.821207 
L 122.189724 278.494065 
L 122.200686 280.166923 
L 122.208188 281.839782 
L 122.20962 283.51264 
L 122.202792 285.185498 
L 122.186006 286.858356 
L 122.158104 288.531214 
L 122.118484 290.204072 
z
" clip-path="url(#p1d134f128c)" style="fill: #f08080; fill-opacity: 0.3"/>
   </g>
   <g id="FillBetweenPolyCollection_2">
    <path d="M 199.575094 388.864364 
L 198.031573 388.864364 
L 198.040085 386.075272 
L 198.065067 383.286179 
L 198.104895 380.497087 
L 198.157055 377.707995 
L 198.218401 374.918903 
L 198.285458 372.129811 
L 198.35473 369.340719 
L 198.422971 366.551627 
L 198.487383 363.762535 
L 198.545726 360.973443 
L 198.596328 358.184351 
L 198.638006 355.395259 
L 198.669905 352.606167 
L 198.691289 349.817075 
L 198.701294 347.027983 
L 198.698681 344.23889 
L 198.681596 341.449798 
L 198.647378 338.660706 
L 198.592427 335.871614 
L 198.512157 333.082522 
L 198.401059 330.29343 
L 198.252903 327.504338 
L 198.061084 324.715246 
L 197.819118 321.926154 
L 197.521279 319.137062 
L 197.163333 316.34797 
L 196.743296 313.558878 
L 196.262141 310.769786 
L 195.724332 307.980694 
L 195.138076 305.191601 
L 194.515207 302.402509 
L 193.870614 299.613417 
L 193.221238 296.824325 
L 192.584656 294.035233 
L 191.97741 291.246141 
L 191.413252 288.457049 
L 190.901532 285.667957 
L 190.445954 282.878865 
L 190.043916 280.089773 
L 189.686535 277.300681 
L 189.359415 274.511589 
L 189.044064 271.722497 
L 188.719788 268.933405 
L 188.365807 266.144312 
L 187.963315 263.35522 
L 187.497202 260.566128 
L 186.957245 257.777036 
L 186.338652 254.987944 
L 185.641984 252.198852 
L 184.872536 249.40976 
L 184.039395 246.620668 
L 183.154365 243.831576 
L 182.230964 241.042484 
L 181.283618 238.253392 
L 180.3271 235.4643 
L 179.376171 232.675208 
L 178.445303 229.886116 
L 177.548381 227.097023 
L 176.698246 224.307931 
L 175.906073 221.518839 
L 175.180615 218.729747 
L 174.527469 215.940655 
L 173.948557 213.151563 
L 173.442029 210.362471 
L 173.00275 207.573379 
L 172.623401 204.784287 
L 172.296135 201.995195 
L 172.014543 199.206103 
L 171.775623 196.417011 
L 171.581378 193.627919 
L 171.439727 190.838826 
L 171.3645 188.049734 
L 171.374436 185.260642 
L 171.491305 182.47155 
L 171.737389 179.682458 
L 172.1327 176.893366 
L 172.69232 174.104274 
L 173.424241 171.315182 
L 174.327994 168.52609 
L 175.394189 165.736998 
L 176.605004 162.947906 
L 177.935486 160.158814 
L 179.35546 157.369722 
L 180.831789 154.58063 
L 182.3307 151.791537 
L 183.819949 149.002445 
L 185.270636 146.213353 
L 186.658547 143.424261 
L 187.964968 140.635169 
L 189.176992 137.846077 
L 190.287348 135.056985 
L 191.293866 132.267893 
L 192.198652 129.478801 
L 193.007106 126.689709 
L 193.726875 123.900617 
L 194.366834 121.111525 
L 194.936191 118.322433 
L 195.443745 115.533341 
L 195.897367 112.744248 
L 201.7093 112.744248 
L 201.7093 112.744248 
L 202.162922 115.533341 
L 202.670476 118.322433 
L 203.239832 121.111525 
L 203.879792 123.900617 
L 204.599561 126.689709 
L 205.408015 129.478801 
L 206.312801 132.267893 
L 207.319318 135.056985 
L 208.429675 137.846077 
L 209.641698 140.635169 
L 210.94812 143.424261 
L 212.336031 146.213353 
L 213.786718 149.002445 
L 215.275967 151.791537 
L 216.774878 154.58063 
L 218.251207 157.369722 
L 219.671181 160.158814 
L 221.001662 162.947906 
L 222.212477 165.736998 
L 223.278672 168.52609 
L 224.182426 171.315182 
L 224.914347 174.104274 
L 225.473966 176.893366 
L 225.869277 179.682458 
L 226.115362 182.47155 
L 226.232231 185.260642 
L 226.242167 188.049734 
L 226.166939 190.838826 
L 226.025289 193.627919 
L 225.831043 196.417011 
L 225.592123 199.206103 
L 225.310532 201.995195 
L 224.983266 204.784287 
L 224.603917 207.573379 
L 224.164637 210.362471 
L 223.65811 213.151563 
L 223.079198 215.940655 
L 222.426052 218.729747 
L 221.700594 221.518839 
L 220.908421 224.307931 
L 220.058286 227.097023 
L 219.161364 229.886116 
L 218.230496 232.675208 
L 217.279566 235.4643 
L 216.323049 238.253392 
L 215.375703 241.042484 
L 214.452302 243.831576 
L 213.567272 246.620668 
L 212.734131 249.40976 
L 211.964683 252.198852 
L 211.268015 254.987944 
L 210.649422 257.777036 
L 210.109464 260.566128 
L 209.643351 263.35522 
L 209.24086 266.144312 
L 208.886879 268.933405 
L 208.562602 271.722497 
L 208.247251 274.511589 
L 207.920132 277.300681 
L 207.562751 280.089773 
L 207.160712 282.878865 
L 206.705135 285.667957 
L 206.193414 288.457049 
L 205.629257 291.246141 
L 205.022011 294.035233 
L 204.385429 296.824325 
L 203.736052 299.613417 
L 203.09146 302.402509 
L 202.46859 305.191601 
L 201.882335 307.980694 
L 201.344526 310.769786 
L 200.863371 313.558878 
L 200.443334 316.34797 
L 200.085387 319.137062 
L 199.787549 321.926154 
L 199.545583 324.715246 
L 199.353763 327.504338 
L 199.205608 330.29343 
L 199.09451 333.082522 
L 199.01424 335.871614 
L 198.959289 338.660706 
L 198.925071 341.449798 
L 198.907986 344.23889 
L 198.905372 347.027983 
L 198.915378 349.817075 
L 198.936762 352.606167 
L 198.968661 355.395259 
L 199.010339 358.184351 
L 199.060941 360.973443 
L 199.119284 363.762535 
L 199.183696 366.551627 
L 199.251936 369.340719 
L 199.321208 372.129811 
L 199.388265 374.918903 
L 199.449611 377.707995 
L 199.501772 380.497087 
L 199.541599 383.286179 
L 199.566581 386.075272 
L 199.575094 388.864364 
z
" clip-path="url(#p1d134f128c)" style="fill: #808080; fill-opacity: 0.3"/>
   </g>
   <g id="matplotlib.axis_1">
    <g id="xtick_1">
     <g id="line2d_1">
      <defs>
       <path id="m6a7aa3e33a" d="M 0 0 
L 0 3.5 
" style="stroke: #000000; stroke-width: 0.8"/>
      </defs>
      <g>
       <use xlink:href="#m6a7aa3e33a" x="120.406667" y="404.12" style="stroke: #000000; stroke-width: 0.8"/>
      </g>
     </g>
     <g id="text_1">
      <!-- Mutants -->
      <g transform="translate(99.280885 418.718437) scale(0.1 -0.1)">
       <defs>
        <path id="DejaVuSerif-4d" d="M 353 0 
L 353 331 
L 947 331 
L 947 4331 
L 319 4331 
L 319 4666 
L 1678 4666 
L 3316 1344 
L 4953 4666 
L 6228 4666 
L 6228 4331 
L 5606 4331 
L 5606 331 
L 6203 331 
L 6203 0 
L 4378 0 
L 4378 331 
L 4972 331 
L 4972 3938 
L 3372 684 
L 2931 684 
L 1331 3938 
L 1331 331 
L 1925 331 
L 1925 0 
L 353 0 
z
" transform="scale(0.015625)"/>
        <path id="DejaVuSerif-75" d="M 2266 3322 
L 3341 3322 
L 3341 331 
L 3884 331 
L 3884 0 
L 2766 0 
L 2766 588 
Q 2606 256 2353 82 
Q 2100 -91 1766 -91 
Q 1213 -91 952 223 
Q 691 538 691 1209 
L 691 2988 
L 172 2988 
L 172 3322 
L 1269 3322 
L 1269 1388 
Q 1269 781 1417 556 
Q 1566 331 1947 331 
Q 2347 331 2556 625 
Q 2766 919 2766 1478 
L 2766 2988 
L 2266 2988 
L 2266 3322 
z
" transform="scale(0.015625)"/>
        <path id="DejaVuSerif-74" d="M 691 2988 
L 184 2988 
L 184 3322 
L 691 3322 
L 691 4353 
L 1269 4353 
L 1269 3322 
L 2350 3322 
L 2350 2988 
L 1269 2988 
L 1269 878 
Q 1269 456 1350 337 
Q 1431 219 1650 219 
Q 1875 219 1978 351 
Q 2081 484 2088 781 
L 2522 781 
Q 2497 328 2275 118 
Q 2053 -91 1600 -91 
Q 1103 -91 897 129 
Q 691 350 691 878 
L 691 2988 
z
" transform="scale(0.015625)"/>
        <path id="DejaVuSerif-61" d="M 2547 1044 
L 2547 1747 
L 1806 1747 
Q 1378 1747 1168 1562 
Q 959 1378 959 997 
Q 959 650 1171 447 
Q 1384 244 1747 244 
Q 2106 244 2326 466 
Q 2547 688 2547 1044 
z
M 3122 2075 
L 3122 331 
L 3634 331 
L 3634 0 
L 2547 0 
L 2547 359 
Q 2356 128 2106 18 
Q 1856 -91 1522 -91 
Q 969 -91 644 203 
Q 319 497 319 997 
Q 319 1513 691 1797 
Q 1063 2081 1741 2081 
L 2547 2081 
L 2547 2309 
Q 2547 2688 2317 2895 
Q 2088 3103 1672 3103 
Q 1328 3103 1125 2947 
Q 922 2791 872 2484 
L 575 2484 
L 575 3156 
Q 875 3284 1158 3348 
Q 1441 3413 1709 3413 
Q 2400 3413 2761 3070 
Q 3122 2728 3122 2075 
z
" transform="scale(0.015625)"/>
        <path id="DejaVuSerif-6e" d="M 263 0 
L 263 331 
L 781 331 
L 781 2988 
L 231 2988 
L 231 3322 
L 1356 3322 
L 1356 2731 
Q 1516 3069 1770 3241 
Q 2025 3413 2363 3413 
Q 2913 3413 3172 3097 
Q 3431 2781 3431 2113 
L 3431 331 
L 3944 331 
L 3944 0 
L 2356 0 
L 2356 331 
L 2853 331 
L 2853 1931 
Q 2853 2541 2703 2767 
Q 2553 2994 2175 2994 
Q 1775 2994 1565 2701 
Q 1356 2409 1356 1850 
L 1356 331 
L 1856 331 
L 1856 0 
L 263 0 
z
" transform="scale(0.015625)"/>
        <path id="DejaVuSerif-73" d="M 359 184 
L 359 959 
L 691 959 
Q 703 588 923 403 
Q 1144 219 1575 219 
Q 1963 219 2166 364 
Q 2369 509 2369 788 
Q 2369 1006 2220 1140 
Q 2072 1275 1594 1428 
L 1178 1569 
Q 750 1706 558 1912 
Q 366 2119 366 2438 
Q 366 2894 700 3153 
Q 1034 3413 1625 3413 
Q 1888 3413 2178 3344 
Q 2469 3275 2778 3144 
L 2778 2419 
L 2447 2419 
Q 2434 2741 2221 2922 
Q 2009 3103 1644 3103 
Q 1281 3103 1095 2975 
Q 909 2847 909 2591 
Q 909 2381 1050 2254 
Q 1191 2128 1613 1997 
L 2069 1856 
Q 2541 1709 2748 1489 
Q 2956 1269 2956 922 
Q 2956 450 2595 179 
Q 2234 -91 1600 -91 
Q 1278 -91 972 -22 
Q 666 47 359 184 
z
" transform="scale(0.015625)"/>
       </defs>
       <use xlink:href="#DejaVuSerif-4d"/>
       <use xlink:href="#DejaVuSerif-75" transform="translate(102.392578 0)"/>
       <use xlink:href="#DejaVuSerif-74" transform="translate(166.796875 0)"/>
       <use xlink:href="#DejaVuSerif-61" transform="translate(206.982422 0)"/>
       <use xlink:href="#DejaVuSerif-6e" transform="translate(266.601562 0)"/>
       <use xlink:href="#DejaVuSerif-74" transform="translate(331.005859 0)"/>
       <use xlink:href="#DejaVuSerif-73" transform="translate(371.191406 0)"/>
      </g>
     </g>
    </g>
    <g id="xtick_2">
     <g id="line2d_2">
      <g>
       <use xlink:href="#m6a7aa3e33a" x="198.803333" y="404.12" style="stroke: #000000; stroke-width: 0.8"/>
      </g>
     </g>
     <g id="text_2">
      <!-- Non-members WT -->
      <g transform="translate(152.886927 418.718437) scale(0.1 -0.1)">
       <defs>
        <path id="DejaVuSerif-4e" d="M 313 0 
L 313 331 
L 941 331 
L 941 4331 
L 313 4331 
L 313 4666 
L 1509 4666 
L 4306 984 
L 4306 4331 
L 3681 4331 
L 3681 4666 
L 5319 4666 
L 5319 4331 
L 4691 4331 
L 4691 -91 
L 4313 -91 
L 1325 3841 
L 1325 331 
L 1953 331 
L 1953 0 
L 313 0 
z
" transform="scale(0.015625)"/>
        <path id="DejaVuSerif-6f" d="M 1925 219 
Q 2388 219 2623 584 
Q 2859 950 2859 1663 
Q 2859 2375 2623 2739 
Q 2388 3103 1925 3103 
Q 1463 3103 1227 2739 
Q 991 2375 991 1663 
Q 991 950 1228 584 
Q 1466 219 1925 219 
z
M 1925 -91 
Q 1200 -91 759 389 
Q 319 869 319 1663 
Q 319 2456 758 2934 
Q 1197 3413 1925 3413 
Q 2653 3413 3092 2934 
Q 3531 2456 3531 1663 
Q 3531 869 3092 389 
Q 2653 -91 1925 -91 
z
" transform="scale(0.015625)"/>
        <path id="DejaVuSerif-2d" d="M 281 1959 
L 1881 1959 
L 1881 1472 
L 281 1472 
L 281 1959 
z
" transform="scale(0.015625)"/>
        <path id="DejaVuSerif-6d" d="M 3316 2675 
Q 3481 3041 3739 3227 
Q 3997 3413 4341 3413 
Q 4863 3413 5119 3089 
Q 5375 2766 5375 2113 
L 5375 331 
L 5894 331 
L 5894 0 
L 4300 0 
L 4300 331 
L 4800 331 
L 4800 2047 
Q 4800 2556 4650 2772 
Q 4500 2988 4153 2988 
Q 3769 2988 3567 2697 
Q 3366 2406 3366 1850 
L 3366 331 
L 3866 331 
L 3866 0 
L 2291 0 
L 2291 331 
L 2791 331 
L 2791 2069 
Q 2791 2566 2641 2777 
Q 2491 2988 2144 2988 
Q 1759 2988 1557 2697 
Q 1356 2406 1356 1850 
L 1356 331 
L 1856 331 
L 1856 0 
L 263 0 
L 263 331 
L 781 331 
L 781 2994 
L 231 2994 
L 231 3322 
L 1356 3322 
L 1356 2731 
Q 1516 3063 1762 3238 
Q 2009 3413 2322 3413 
Q 2709 3413 2968 3220 
Q 3228 3028 3316 2675 
z
" transform="scale(0.015625)"/>
        <path id="DejaVuSerif-65" d="M 3469 1600 
L 991 1600 
L 991 1575 
Q 991 903 1244 561 
Q 1497 219 1991 219 
Q 2369 219 2611 417 
Q 2853 616 2950 1006 
L 3413 1006 
Q 3275 459 2904 184 
Q 2534 -91 1931 -91 
Q 1203 -91 761 389 
Q 319 869 319 1663 
Q 319 2450 753 2931 
Q 1188 3413 1894 3413 
Q 2647 3413 3050 2948 
Q 3453 2484 3469 1600 
z
M 2791 1931 
Q 2772 2513 2545 2808 
Q 2319 3103 1894 3103 
Q 1497 3103 1269 2806 
Q 1041 2509 991 1931 
L 2791 1931 
z
" transform="scale(0.015625)"/>
        <path id="DejaVuSerif-62" d="M 738 331 
L 738 4531 
L 184 4531 
L 184 4863 
L 1313 4863 
L 1313 2803 
Q 1481 3116 1742 3264 
Q 2003 3413 2388 3413 
Q 3000 3413 3387 2928 
Q 3775 2444 3775 1663 
Q 3775 881 3387 395 
Q 3000 -91 2388 -91 
Q 2003 -91 1742 57 
Q 1481 206 1313 519 
L 1313 0 
L 184 0 
L 184 331 
L 738 331 
z
M 1313 1497 
Q 1313 897 1542 583 
Q 1772 269 2209 269 
Q 2650 269 2876 622 
Q 3103 975 3103 1663 
Q 3103 2353 2876 2703 
Q 2650 3053 2209 3053 
Q 1772 3053 1542 2737 
Q 1313 2422 1313 1825 
L 1313 1497 
z
" transform="scale(0.015625)"/>
        <path id="DejaVuSerif-72" d="M 3059 3328 
L 3059 2497 
L 2728 2497 
Q 2713 2744 2591 2866 
Q 2469 2988 2234 2988 
Q 1809 2988 1582 2694 
Q 1356 2400 1356 1850 
L 1356 331 
L 2022 331 
L 2022 0 
L 263 0 
L 263 331 
L 781 331 
L 781 2994 
L 231 2994 
L 231 3322 
L 1356 3322 
L 1356 2731 
Q 1525 3078 1790 3245 
Q 2056 3413 2438 3413 
Q 2578 3413 2733 3391 
Q 2888 3369 3059 3328 
z
" transform="scale(0.015625)"/>
        <path id="DejaVuSerif-20" transform="scale(0.015625)"/>
        <path id="DejaVuSerif-57" d="M 4878 0 
L 4366 0 
L 3297 3794 
L 2228 0 
L 1716 0 
L 494 4331 
L 31 4331 
L 31 4666 
L 1734 4666 
L 1734 4331 
L 1153 4331 
L 2125 884 
L 3188 4666 
L 3694 4666 
L 4775 844 
L 5753 4331 
L 5216 4331 
L 5216 4666 
L 6559 4666 
L 6559 4331 
L 6100 4331 
L 4878 0 
z
" transform="scale(0.015625)"/>
        <path id="DejaVuSerif-54" d="M 1222 0 
L 1222 331 
L 1819 331 
L 1819 4294 
L 447 4294 
L 447 3566 
L 63 3566 
L 63 4666 
L 4206 4666 
L 4206 3566 
L 3822 3566 
L 3822 4294 
L 2450 4294 
L 2450 331 
L 3047 331 
L 3047 0 
L 1222 0 
z
" transform="scale(0.015625)"/>
       </defs>
       <use xlink:href="#DejaVuSerif-4e"/>
       <use xlink:href="#DejaVuSerif-6f" transform="translate(87.5 0)"/>
       <use xlink:href="#DejaVuSerif-6e" transform="translate(147.705078 0)"/>
       <use xlink:href="#DejaVuSerif-2d" transform="translate(212.109375 0)"/>
       <use xlink:href="#DejaVuSerif-6d" transform="translate(245.898438 0)"/>
       <use xlink:href="#DejaVuSerif-65" transform="translate(340.722656 0)"/>
       <use xlink:href="#DejaVuSerif-6d" transform="translate(399.902344 0)"/>
       <use xlink:href="#DejaVuSerif-62" transform="translate(494.726562 0)"/>
       <use xlink:href="#DejaVuSerif-65" transform="translate(558.740234 0)"/>
       <use xlink:href="#DejaVuSerif-72" transform="translate(617.919922 0)"/>
       <use xlink:href="#DejaVuSerif-73" transform="translate(665.722656 0)"/>
       <use xlink:href="#DejaVuSerif-20" transform="translate(717.041016 0)"/>
       <use xlink:href="#DejaVuSerif-57" transform="translate(748.828125 0)"/>
       <use xlink:href="#DejaVuSerif-54" transform="translate(851.611328 0)"/>
      </g>
     </g>
    </g>
   </g>
   <g id="matplotlib.axis_2">
    <g id="ytick_1">
     <g id="line2d_3">
      <defs>
       <path id="mb24ed7057a" d="M 0 0 
L -3.5 0 
" style="stroke: #000000; stroke-width: 0.8"/>
      </defs>
      <g>
       <use xlink:href="#mb24ed7057a" x="42.01" y="388.864364" style="stroke: #000000; stroke-width: 0.8"/>
      </g>
     </g>
     <g id="text_3">
      <!-- −1.0 -->
      <g transform="translate(10.727187 392.663582) scale(0.1 -0.1)">
       <defs>
        <path id="DejaVuSerif-2212" d="M 678 2259 
L 4684 2259 
L 4684 1753 
L 678 1753 
L 678 2259 
z
" transform="scale(0.015625)"/>
        <path id="DejaVuSerif-31" d="M 909 0 
L 909 331 
L 1722 331 
L 1722 4213 
L 781 3603 
L 781 4013 
L 1919 4750 
L 2350 4750 
L 2350 331 
L 3163 331 
L 3163 0 
L 909 0 
z
" transform="scale(0.015625)"/>
        <path id="DejaVuSerif-2e" d="M 603 325 
Q 603 500 722 622 
Q 841 744 1019 744 
Q 1191 744 1312 622 
Q 1434 500 1434 325 
Q 1434 153 1312 31 
Q 1191 -91 1019 -91 
Q 841 -91 722 29 
Q 603 150 603 325 
z
" transform="scale(0.015625)"/>
        <path id="DejaVuSerif-30" d="M 2034 219 
Q 2513 219 2750 744 
Q 2988 1269 2988 2328 
Q 2988 3391 2750 3916 
Q 2513 4441 2034 4441 
Q 1556 4441 1318 3916 
Q 1081 3391 1081 2328 
Q 1081 1269 1318 744 
Q 1556 219 2034 219 
z
M 2034 -91 
Q 1275 -91 848 546 
Q 422 1184 422 2328 
Q 422 3475 848 4112 
Q 1275 4750 2034 4750 
Q 2797 4750 3222 4112 
Q 3647 3475 3647 2328 
Q 3647 1184 3222 546 
Q 2797 -91 2034 -91 
z
" transform="scale(0.015625)"/>
       </defs>
       <use xlink:href="#DejaVuSerif-2212"/>
       <use xlink:href="#DejaVuSerif-31" transform="translate(83.789062 0)"/>
       <use xlink:href="#DejaVuSerif-2e" transform="translate(147.412109 0)"/>
       <use xlink:href="#DejaVuSerif-30" transform="translate(179.199219 0)"/>
      </g>
     </g>
    </g>
    <g id="ytick_2">
     <g id="line2d_4">
      <g>
       <use xlink:href="#mb24ed7057a" x="42.01" y="320.472756" style="stroke: #000000; stroke-width: 0.8"/>
      </g>
     </g>
     <g id="text_4">
      <!-- −0.8 -->
      <g transform="translate(10.727187 324.271974) scale(0.1 -0.1)">
       <defs>
        <path id="DejaVuSerif-38" d="M 2981 1275 
Q 2981 1775 2732 2051 
Q 2484 2328 2034 2328 
Q 1584 2328 1336 2051 
Q 1088 1775 1088 1275 
Q 1088 772 1336 495 
Q 1584 219 2034 219 
Q 2484 219 2732 495 
Q 2981 772 2981 1275 
z
M 2853 3541 
Q 2853 3966 2637 4203 
Q 2422 4441 2034 4441 
Q 1650 4441 1433 4203 
Q 1216 3966 1216 3541 
Q 1216 3113 1433 2875 
Q 1650 2638 2034 2638 
Q 2422 2638 2637 2875 
Q 2853 3113 2853 3541 
z
M 2516 2484 
Q 3047 2413 3344 2092 
Q 3641 1772 3641 1275 
Q 3641 619 3225 264 
Q 2809 -91 2034 -91 
Q 1263 -91 845 264 
Q 428 619 428 1275 
Q 428 1772 725 2092 
Q 1022 2413 1556 2484 
Q 1084 2569 832 2842 
Q 581 3116 581 3541 
Q 581 4103 968 4426 
Q 1356 4750 2034 4750 
Q 2713 4750 3100 4426 
Q 3488 4103 3488 3541 
Q 3488 3116 3236 2842 
Q 2984 2569 2516 2484 
z
" transform="scale(0.015625)"/>
       </defs>
       <use xlink:href="#DejaVuSerif-2212"/>
       <use xlink:href="#DejaVuSerif-30" transform="translate(83.789062 0)"/>
       <use xlink:href="#DejaVuSerif-2e" transform="translate(147.412109 0)"/>
       <use xlink:href="#DejaVuSerif-38" transform="translate(179.199219 0)"/>
      </g>
     </g>
    </g>
    <g id="ytick_3">
     <g id="line2d_5">
      <g>
       <use xlink:href="#mb24ed7057a" x="42.01" y="252.081147" style="stroke: #000000; stroke-width: 0.8"/>
      </g>
     </g>
     <g id="text_5">
      <!-- −0.6 -->
      <g transform="translate(10.727187 255.880366) scale(0.1 -0.1)">
       <defs>
        <path id="DejaVuSerif-36" d="M 2094 219 
Q 2534 219 2771 542 
Q 3009 866 3009 1472 
Q 3009 2078 2771 2401 
Q 2534 2725 2094 2725 
Q 1647 2725 1412 2412 
Q 1178 2100 1178 1509 
Q 1178 888 1415 553 
Q 1653 219 2094 219 
z
M 1075 2569 
Q 1288 2803 1556 2918 
Q 1825 3034 2163 3034 
Q 2859 3034 3264 2615 
Q 3669 2197 3669 1472 
Q 3669 763 3233 336 
Q 2797 -91 2069 -91 
Q 1278 -91 853 498 
Q 428 1088 428 2181 
Q 428 3406 931 4078 
Q 1434 4750 2350 4750 
Q 2597 4750 2869 4703 
Q 3141 4656 3425 4563 
L 3425 3794 
L 3072 3794 
Q 3034 4109 2831 4275 
Q 2628 4441 2284 4441 
Q 1678 4441 1381 3981 
Q 1084 3522 1075 2569 
z
" transform="scale(0.015625)"/>
       </defs>
       <use xlink:href="#DejaVuSerif-2212"/>
       <use xlink:href="#DejaVuSerif-30" transform="translate(83.789062 0)"/>
       <use xlink:href="#DejaVuSerif-2e" transform="translate(147.412109 0)"/>
       <use xlink:href="#DejaVuSerif-36" transform="translate(179.199219 0)"/>
      </g>
     </g>
    </g>
    <g id="ytick_4">
     <g id="line2d_6">
      <g>
       <use xlink:href="#mb24ed7057a" x="42.01" y="183.689539" style="stroke: #000000; stroke-width: 0.8"/>
      </g>
     </g>
     <g id="text_6">
      <!-- −0.4 -->
      <g transform="translate(10.727187 187.488758) scale(0.1 -0.1)">
       <defs>
        <path id="DejaVuSerif-34" d="M 2234 1581 
L 2234 4063 
L 641 1581 
L 2234 1581 
z
M 3609 0 
L 1484 0 
L 1484 331 
L 2234 331 
L 2234 1247 
L 197 1247 
L 197 1588 
L 2241 4750 
L 2859 4750 
L 2859 1581 
L 3750 1581 
L 3750 1247 
L 2859 1247 
L 2859 331 
L 3609 331 
L 3609 0 
z
" transform="scale(0.015625)"/>
       </defs>
       <use xlink:href="#DejaVuSerif-2212"/>
       <use xlink:href="#DejaVuSerif-30" transform="translate(83.789062 0)"/>
       <use xlink:href="#DejaVuSerif-2e" transform="translate(147.412109 0)"/>
       <use xlink:href="#DejaVuSerif-34" transform="translate(179.199219 0)"/>
      </g>
     </g>
    </g>
    <g id="ytick_5">
     <g id="line2d_7">
      <g>
       <use xlink:href="#mb24ed7057a" x="42.01" y="115.297931" style="stroke: #000000; stroke-width: 0.8"/>
      </g>
     </g>
     <g id="text_7">
      <!-- −0.2 -->
      <g transform="translate(10.727187 119.09715) scale(0.1 -0.1)">
       <defs>
        <path id="DejaVuSerif-32" d="M 819 3553 
L 469 3553 
L 469 4384 
Q 803 4563 1142 4656 
Q 1481 4750 1806 4750 
Q 2534 4750 2956 4397 
Q 3378 4044 3378 3438 
Q 3378 2753 2422 1800 
Q 2347 1728 2309 1691 
L 1131 513 
L 3078 513 
L 3078 1088 
L 3444 1088 
L 3444 0 
L 434 0 
L 434 341 
L 1850 1753 
Q 2319 2222 2519 2614 
Q 2719 3006 2719 3438 
Q 2719 3909 2473 4175 
Q 2228 4441 1797 4441 
Q 1350 4441 1106 4219 
Q 863 3997 819 3553 
z
" transform="scale(0.015625)"/>
       </defs>
       <use xlink:href="#DejaVuSerif-2212"/>
       <use xlink:href="#DejaVuSerif-30" transform="translate(83.789062 0)"/>
       <use xlink:href="#DejaVuSerif-2e" transform="translate(147.412109 0)"/>
       <use xlink:href="#DejaVuSerif-32" transform="translate(179.199219 0)"/>
      </g>
     </g>
    </g>
   </g>
   <g id="line2d_8">
    <path d="M 108.647167 202.291112 
L 132.166167 202.291112 
L 132.166167 166.142874 
L 108.647167 166.142874 
L 108.647167 202.291112 
" clip-path="url(#p1d134f128c)" style="fill: none; stroke: #000000; stroke-linecap: square"/>
   </g>
   <g id="line2d_9">
    <path d="M 120.406667 202.291112 
L 120.406667 245.223529 
" clip-path="url(#p1d134f128c)" style="fill: none; stroke: #000000; stroke-linecap: square"/>
   </g>
   <g id="line2d_10">
    <path d="M 120.406667 166.142874 
L 120.406667 124.591118 
" clip-path="url(#p1d134f128c)" style="fill: none; stroke: #000000; stroke-linecap: square"/>
   </g>
   <g id="line2d_11">
    <path d="M 114.526917 245.223529 
L 126.286417 245.223529 
" clip-path="url(#p1d134f128c)" style="fill: none; stroke: #000000; stroke-linecap: square"/>
   </g>
   <g id="line2d_12">
    <path d="M 114.526917 124.591118 
L 126.286417 124.591118 
" clip-path="url(#p1d134f128c)" style="fill: none; stroke: #000000; stroke-linecap: square"/>
   </g>
   <g id="line2d_13">
    <path d="M 187.043833 232.590841 
L 210.562833 232.590841 
L 210.562833 174.16883 
L 187.043833 174.16883 
L 187.043833 232.590841 
" clip-path="url(#p1d134f128c)" style="fill: none; stroke: #000000; stroke-linecap: square"/>
   </g>
   <g id="line2d_14">
    <path d="M 198.803333 232.590841 
L 198.803333 296.396165 
" clip-path="url(#p1d134f128c)" style="fill: none; stroke: #000000; stroke-linecap: square"/>
   </g>
   <g id="line2d_15">
    <path d="M 198.803333 174.16883 
L 198.803333 112.744248 
" clip-path="url(#p1d134f128c)" style="fill: none; stroke: #000000; stroke-linecap: square"/>
   </g>
   <g id="line2d_16">
    <path d="M 192.923583 296.396165 
L 204.683083 296.396165 
" clip-path="url(#p1d134f128c)" style="fill: none; stroke: #000000; stroke-linecap: square"/>
   </g>
   <g id="line2d_17">
    <path d="M 192.923583 112.744248 
L 204.683083 112.744248 
" clip-path="url(#p1d134f128c)" style="fill: none; stroke: #000000; stroke-linecap: square"/>
   </g>
   <g id="LineCollection_1">
    <path d="M 110.607083 181.208094 
L 130.20625 181.208094 
" clip-path="url(#p1d134f128c)" style="fill: none; stroke: #000000; stroke-width: 5"/>
    <path d="M 185.083917 202.987969 
L 212.52275 202.987969 
" clip-path="url(#p1d134f128c)" style="fill: none; stroke: #000000; stroke-width: 5"/>
   </g>
   <g id="line2d_18">
    <path d="M 116.486833 89.826279 
L 116.486833 83.751636 
L 194.8835 83.751636 
L 194.8835 89.826279 
" clip-path="url(#p1d134f128c)" style="fill: none; stroke: #000000; stroke-linecap: square"/>
   </g>
   <g id="patch_3">
    <path d="M 42.01 404.12 
L 42.01 68.496 
" style="fill: none; stroke: #000000; stroke-width: 0.8; stroke-linejoin: miter; stroke-linecap: square"/>
   </g>
   <g id="patch_4">
    <path d="M 277.2 404.12 
L 277.2 68.496 
" style="fill: none; stroke: #000000; stroke-width: 0.8; stroke-linejoin: miter; stroke-linecap: square"/>
   </g>
   <g id="patch_5">
    <path d="M 42.01 404.12 
L 277.2 404.12 
" style="fill: none; stroke: #000000; stroke-width: 0.8; stroke-linejoin: miter; stroke-linecap: square"/>
   </g>
   <g id="patch_6">
    <path d="M 42.01 68.496 
L 277.2 68.496 
" style="fill: none; stroke: #000000; stroke-width: 0.8; stroke-linejoin: miter; stroke-linecap: square"/>
   </g>
   <g id="text_8">
    <!-- ** -->
    <g transform="translate(150.685167 78.634628) scale(0.1 -0.1)">
     <defs>
      <path id="DejaVuSerif-2a" d="M 3097 3866 
L 1875 3297 
L 3097 2719 
L 2859 2350 
L 1772 3028 
L 1813 1838 
L 1388 1838 
L 1428 3028 
L 341 2350 
L 103 2719 
L 1325 3291 
L 103 3866 
L 341 4238 
L 1428 3559 
L 1388 4750 
L 1813 4750 
L 1772 3559 
L 2859 4238 
L 3097 3866 
z
" transform="scale(0.015625)"/>
     </defs>
     <use xlink:href="#DejaVuSerif-2a"/>
     <use xlink:href="#DejaVuSerif-2a" transform="translate(50 0)"/>
    </g>
   </g>
   <g id="text_9">
    <!-- summed outburstiness -->
    <g transform="translate(90.540313 22.01325) scale(0.12 -0.12)">
     <defs>
      <path id="DejaVuSerif-64" d="M 3359 331 
L 3909 331 
L 3909 0 
L 2784 0 
L 2784 519 
Q 2616 206 2355 57 
Q 2094 -91 1709 -91 
Q 1097 -91 708 395 
Q 319 881 319 1663 
Q 319 2444 706 2928 
Q 1094 3413 1709 3413 
Q 2094 3413 2355 3264 
Q 2616 3116 2784 2803 
L 2784 4531 
L 2241 4531 
L 2241 4863 
L 3359 4863 
L 3359 331 
z
M 2784 1497 
L 2784 1825 
Q 2784 2422 2554 2737 
Q 2325 3053 1888 3053 
Q 1444 3053 1217 2703 
Q 991 2353 991 1663 
Q 991 975 1217 622 
Q 1444 269 1888 269 
Q 2325 269 2554 583 
Q 2784 897 2784 1497 
z
" transform="scale(0.015625)"/>
      <path id="DejaVuSerif-69" d="M 622 4353 
Q 622 4497 726 4603 
Q 831 4709 978 4709 
Q 1122 4709 1226 4603 
Q 1331 4497 1331 4353 
Q 1331 4206 1228 4103 
Q 1125 4000 978 4000 
Q 831 4000 726 4103 
Q 622 4206 622 4353 
z
M 1356 331 
L 1900 331 
L 1900 0 
L 231 0 
L 231 331 
L 781 331 
L 781 2988 
L 231 2988 
L 231 3322 
L 1356 3322 
L 1356 331 
z
" transform="scale(0.015625)"/>
     </defs>
     <use xlink:href="#DejaVuSerif-73"/>
     <use xlink:href="#DejaVuSerif-75" transform="translate(51.318359 0)"/>
     <use xlink:href="#DejaVuSerif-6d" transform="translate(115.722656 0)"/>
     <use xlink:href="#DejaVuSerif-6d" transform="translate(210.546875 0)"/>
     <use xlink:href="#DejaVuSerif-65" transform="translate(305.371094 0)"/>
     <use xlink:href="#DejaVuSerif-64" transform="translate(364.550781 0)"/>
     <use xlink:href="#DejaVuSerif-20" transform="translate(428.564453 0)"/>
     <use xlink:href="#DejaVuSerif-6f" transform="translate(460.351562 0)"/>
     <use xlink:href="#DejaVuSerif-75" transform="translate(520.556641 0)"/>
     <use xlink:href="#DejaVuSerif-74" transform="translate(584.960938 0)"/>
     <use xlink:href="#DejaVuSerif-62" transform="translate(625.146484 0)"/>
     <use xlink:href="#DejaVuSerif-75" transform="translate(689.160156 0)"/>
     <use xlink:href="#DejaVuSerif-72" transform="translate(753.564453 0)"/>
     <use xlink:href="#DejaVuSerif-73" transform="translate(801.367188 0)"/>
     <use xlink:href="#DejaVuSerif-74" transform="translate(852.685547 0)"/>
     <use xlink:href="#DejaVuSerif-69" transform="translate(892.871094 0)"/>
     <use xlink:href="#DejaVuSerif-6e" transform="translate(924.853516 0)"/>
     <use xlink:href="#DejaVuSerif-65" transform="translate(989.257812 0)"/>
     <use xlink:href="#DejaVuSerif-73" transform="translate(1048.4375 0)"/>
     <use xlink:href="#DejaVuSerif-73" transform="translate(1099.755859 0)"/>
    </g>
    <!--  mnn = 7 thresh = 0, summation = mean -->
    <g transform="translate(34.371875 35.450625) scale(0.12 -0.12)">
     <defs>
      <path id="DejaVuSerif-3d" d="M 678 2894 
L 4684 2894 
L 4684 2394 
L 678 2394 
L 678 2894 
z
M 678 1619 
L 4684 1619 
L 4684 1119 
L 678 1119 
L 678 1619 
z
" transform="scale(0.015625)"/>
      <path id="DejaVuSerif-37" d="M 3609 4347 
L 1784 0 
L 1319 0 
L 3059 4153 
L 903 4153 
L 903 3578 
L 538 3578 
L 538 4666 
L 3609 4666 
L 3609 4347 
z
" transform="scale(0.015625)"/>
      <path id="DejaVuSerif-68" d="M 263 0 
L 263 331 
L 781 331 
L 781 4531 
L 231 4531 
L 231 4863 
L 1356 4863 
L 1356 2731 
Q 1516 3069 1770 3241 
Q 2025 3413 2363 3413 
Q 2913 3413 3172 3097 
Q 3431 2781 3431 2113 
L 3431 331 
L 3944 331 
L 3944 0 
L 2356 0 
L 2356 331 
L 2853 331 
L 2853 1931 
Q 2853 2541 2704 2764 
Q 2556 2988 2175 2988 
Q 1775 2988 1565 2697 
Q 1356 2406 1356 1850 
L 1356 331 
L 1856 331 
L 1856 0 
L 263 0 
z
" transform="scale(0.015625)"/>
      <path id="DejaVuSerif-2c" d="M 231 -622 
Q 525 -406 662 -114 
Q 800 178 800 594 
L 800 709 
L 1416 709 
Q 1391 175 1164 -208 
Q 938 -591 481 -872 
L 231 -622 
z
" transform="scale(0.015625)"/>
     </defs>
     <use xlink:href="#DejaVuSerif-20"/>
     <use xlink:href="#DejaVuSerif-6d" transform="translate(31.787109 0)"/>
     <use xlink:href="#DejaVuSerif-6e" transform="translate(126.611328 0)"/>
     <use xlink:href="#DejaVuSerif-6e" transform="translate(191.015625 0)"/>
     <use xlink:href="#DejaVuSerif-20" transform="translate(255.419922 0)"/>
     <use xlink:href="#DejaVuSerif-3d" transform="translate(287.207031 0)"/>
     <use xlink:href="#DejaVuSerif-20" transform="translate(370.996094 0)"/>
     <use xlink:href="#DejaVuSerif-37" transform="translate(402.783203 0)"/>
     <use xlink:href="#DejaVuSerif-20" transform="translate(466.40625 0)"/>
     <use xlink:href="#DejaVuSerif-74" transform="translate(498.193359 0)"/>
     <use xlink:href="#DejaVuSerif-68" transform="translate(538.378906 0)"/>
     <use xlink:href="#DejaVuSerif-72" transform="translate(602.783203 0)"/>
     <use xlink:href="#DejaVuSerif-65" transform="translate(650.585938 0)"/>
     <use xlink:href="#DejaVuSerif-73" transform="translate(709.765625 0)"/>
     <use xlink:href="#DejaVuSerif-68" transform="translate(761.083984 0)"/>
     <use xlink:href="#DejaVuSerif-20" transform="translate(825.488281 0)"/>
     <use xlink:href="#DejaVuSerif-3d" transform="translate(857.275391 0)"/>
     <use xlink:href="#DejaVuSerif-20" transform="translate(941.064453 0)"/>
     <use xlink:href="#DejaVuSerif-30" transform="translate(972.851562 0)"/>
     <use xlink:href="#DejaVuSerif-2c" transform="translate(1036.474609 0)"/>
     <use xlink:href="#DejaVuSerif-20" transform="translate(1068.261719 0)"/>
     <use xlink:href="#DejaVuSerif-73" transform="translate(1100.048828 0)"/>
     <use xlink:href="#DejaVuSerif-75" transform="translate(1151.367188 0)"/>
     <use xlink:href="#DejaVuSerif-6d" transform="translate(1215.771484 0)"/>
     <use xlink:href="#DejaVuSerif-6d" transform="translate(1310.595703 0)"/>
     <use xlink:href="#DejaVuSerif-61" transform="translate(1405.419922 0)"/>
     <use xlink:href="#DejaVuSerif-74" transform="translate(1465.039062 0)"/>
     <use xlink:href="#DejaVuSerif-69" transform="translate(1505.224609 0)"/>
     <use xlink:href="#DejaVuSerif-6f" transform="translate(1537.207031 0)"/>
     <use xlink:href="#DejaVuSerif-6e" transform="translate(1597.412109 0)"/>
     <use xlink:href="#DejaVuSerif-20" transform="translate(1661.816406 0)"/>
     <use xlink:href="#DejaVuSerif-3d" transform="translate(1693.603516 0)"/>
     <use xlink:href="#DejaVuSerif-20" transform="translate(1777.392578 0)"/>
     <use xlink:href="#DejaVuSerif-6d" transform="translate(1809.179688 0)"/>
     <use xlink:href="#DejaVuSerif-65" transform="translate(1904.003906 0)"/>
     <use xlink:href="#DejaVuSerif-61" transform="translate(1963.183594 0)"/>
     <use xlink:href="#DejaVuSerif-6e" transform="translate(2022.802734 0)"/>
    </g>
    <!--  norm. = CV logscale = False -->
    <g transform="translate(70.499375 48.888) scale(0.12 -0.12)">
     <defs>
      <path id="DejaVuSerif-43" d="M 4513 1234 
Q 4306 581 3820 245 
Q 3334 -91 2591 -91 
Q 2134 -91 1743 65 
Q 1353 222 1050 525 
Q 700 875 529 1320 
Q 359 1766 359 2328 
Q 359 3416 987 4083 
Q 1616 4750 2644 4750 
Q 3025 4750 3456 4650 
Q 3888 4550 4384 4347 
L 4384 3272 
L 4031 3272 
Q 3916 3859 3567 4137 
Q 3219 4416 2591 4416 
Q 1844 4416 1459 3886 
Q 1075 3356 1075 2328 
Q 1075 1303 1459 773 
Q 1844 244 2591 244 
Q 3113 244 3450 492 
Q 3788 741 3938 1234 
L 4513 1234 
z
" transform="scale(0.015625)"/>
      <path id="DejaVuSerif-56" d="M 1119 4331 
L 2497 750 
L 3872 4331 
L 3347 4331 
L 3347 4666 
L 4716 4666 
L 4716 4331 
L 4263 4331 
L 2597 0 
L 2059 0 
L 403 4331 
L -63 4331 
L -63 4666 
L 1638 4666 
L 1638 4331 
L 1119 4331 
z
" transform="scale(0.015625)"/>
      <path id="DejaVuSerif-6c" d="M 1313 331 
L 1856 331 
L 1856 0 
L 184 0 
L 184 331 
L 738 331 
L 738 4531 
L 184 4531 
L 184 4863 
L 1313 4863 
L 1313 331 
z
" transform="scale(0.015625)"/>
      <path id="DejaVuSerif-67" d="M 3359 2988 
L 3359 72 
Q 3359 -644 2965 -1033 
Q 2572 -1422 1844 -1422 
Q 1516 -1422 1216 -1362 
Q 916 -1303 641 -1184 
L 641 -488 
L 941 -488 
Q 997 -813 1206 -963 
Q 1416 -1113 1806 -1113 
Q 2313 -1113 2548 -827 
Q 2784 -541 2784 72 
L 2784 519 
Q 2616 206 2355 57 
Q 2094 -91 1709 -91 
Q 1097 -91 708 395 
Q 319 881 319 1663 
Q 319 2444 706 2928 
Q 1094 3413 1709 3413 
Q 2094 3413 2355 3264 
Q 2616 3116 2784 2803 
L 2784 3322 
L 3909 3322 
L 3909 2988 
L 3359 2988 
z
M 2784 1825 
Q 2784 2422 2554 2737 
Q 2325 3053 1888 3053 
Q 1444 3053 1217 2703 
Q 991 2353 991 1663 
Q 991 975 1217 622 
Q 1444 269 1888 269 
Q 2325 269 2554 583 
Q 2784 897 2784 1497 
L 2784 1825 
z
" transform="scale(0.015625)"/>
      <path id="DejaVuSerif-63" d="M 3291 997 
Q 3169 466 2822 187 
Q 2475 -91 1925 -91 
Q 1200 -91 759 389 
Q 319 869 319 1663 
Q 319 2459 759 2936 
Q 1200 3413 1925 3413 
Q 2241 3413 2553 3339 
Q 2866 3266 3181 3116 
L 3181 2266 
L 2847 2266 
Q 2781 2703 2561 2903 
Q 2341 3103 1931 3103 
Q 1466 3103 1228 2742 
Q 991 2381 991 1663 
Q 991 944 1227 581 
Q 1463 219 1931 219 
Q 2303 219 2525 412 
Q 2747 606 2828 997 
L 3291 997 
z
" transform="scale(0.015625)"/>
      <path id="DejaVuSerif-46" d="M 353 0 
L 353 331 
L 947 331 
L 947 4331 
L 353 4331 
L 353 4666 
L 4172 4666 
L 4172 3628 
L 3788 3628 
L 3788 4281 
L 1581 4281 
L 1581 2719 
L 3175 2719 
L 3175 3303 
L 3559 3303 
L 3559 1753 
L 3175 1753 
L 3175 2338 
L 1581 2338 
L 1581 331 
L 2328 331 
L 2328 0 
L 353 0 
z
" transform="scale(0.015625)"/>
     </defs>
     <use xlink:href="#DejaVuSerif-20"/>
     <use xlink:href="#DejaVuSerif-6e" transform="translate(31.787109 0)"/>
     <use xlink:href="#DejaVuSerif-6f" transform="translate(96.191406 0)"/>
     <use xlink:href="#DejaVuSerif-72" transform="translate(156.396484 0)"/>
     <use xlink:href="#DejaVuSerif-6d" transform="translate(204.199219 0)"/>
     <use xlink:href="#DejaVuSerif-2e" transform="translate(299.023438 0)"/>
     <use xlink:href="#DejaVuSerif-20" transform="translate(330.810547 0)"/>
     <use xlink:href="#DejaVuSerif-3d" transform="translate(362.597656 0)"/>
     <use xlink:href="#DejaVuSerif-20" transform="translate(446.386719 0)"/>
     <use xlink:href="#DejaVuSerif-43" transform="translate(478.173828 0)"/>
     <use xlink:href="#DejaVuSerif-56" transform="translate(554.6875 0)"/>
     <use xlink:href="#DejaVuSerif-20" transform="translate(626.904297 0)"/>
     <use xlink:href="#DejaVuSerif-6c" transform="translate(658.691406 0)"/>
     <use xlink:href="#DejaVuSerif-6f" transform="translate(690.673828 0)"/>
     <use xlink:href="#DejaVuSerif-67" transform="translate(750.878906 0)"/>
     <use xlink:href="#DejaVuSerif-73" transform="translate(814.892578 0)"/>
     <use xlink:href="#DejaVuSerif-63" transform="translate(866.210938 0)"/>
     <use xlink:href="#DejaVuSerif-61" transform="translate(922.216797 0)"/>
     <use xlink:href="#DejaVuSerif-6c" transform="translate(981.835938 0)"/>
     <use xlink:href="#DejaVuSerif-65" transform="translate(1013.818359 0)"/>
     <use xlink:href="#DejaVuSerif-20" transform="translate(1072.998047 0)"/>
     <use xlink:href="#DejaVuSerif-3d" transform="translate(1104.785156 0)"/>
     <use xlink:href="#DejaVuSerif-20" transform="translate(1188.574219 0)"/>
     <use xlink:href="#DejaVuSerif-46" transform="translate(1220.361328 0)"/>
     <use xlink:href="#DejaVuSerif-61" transform="translate(1282.996094 0)"/>
     <use xlink:href="#DejaVuSerif-6c" transform="translate(1342.615234 0)"/>
     <use xlink:href="#DejaVuSerif-73" transform="translate(1374.597656 0)"/>
     <use xlink:href="#DejaVuSerif-65" transform="translate(1425.916016 0)"/>
    </g>
    <!--  permutation test on the median. -->
    <g transform="translate(59.355313 62.496) scale(0.12 -0.12)">
     <defs>
      <path id="DejaVuSerif-70" d="M 1313 1825 
L 1313 1497 
Q 1313 897 1542 583 
Q 1772 269 2209 269 
Q 2650 269 2876 622 
Q 3103 975 3103 1663 
Q 3103 2353 2876 2703 
Q 2650 3053 2209 3053 
Q 1772 3053 1542 2737 
Q 1313 2422 1313 1825 
z
M 738 2988 
L 184 2988 
L 184 3322 
L 1313 3322 
L 1313 2803 
Q 1481 3116 1742 3264 
Q 2003 3413 2388 3413 
Q 3000 3413 3387 2928 
Q 3775 2444 3775 1663 
Q 3775 881 3387 395 
Q 3000 -91 2388 -91 
Q 2003 -91 1742 57 
Q 1481 206 1313 519 
L 1313 -997 
L 1856 -997 
L 1856 -1331 
L 184 -1331 
L 184 -997 
L 738 -997 
L 738 2988 
z
" transform="scale(0.015625)"/>
     </defs>
     <use xlink:href="#DejaVuSerif-20"/>
     <use xlink:href="#DejaVuSerif-70" transform="translate(31.787109 0)"/>
     <use xlink:href="#DejaVuSerif-65" transform="translate(95.800781 0)"/>
     <use xlink:href="#DejaVuSerif-72" transform="translate(154.980469 0)"/>
     <use xlink:href="#DejaVuSerif-6d" transform="translate(202.783203 0)"/>
     <use xlink:href="#DejaVuSerif-75" transform="translate(297.607422 0)"/>
     <use xlink:href="#DejaVuSerif-74" transform="translate(362.011719 0)"/>
     <use xlink:href="#DejaVuSerif-61" transform="translate(402.197266 0)"/>
     <use xlink:href="#DejaVuSerif-74" transform="translate(461.816406 0)"/>
     <use xlink:href="#DejaVuSerif-69" transform="translate(502.001953 0)"/>
     <use xlink:href="#DejaVuSerif-6f" transform="translate(533.984375 0)"/>
     <use xlink:href="#DejaVuSerif-6e" transform="translate(594.189453 0)"/>
     <use xlink:href="#DejaVuSerif-20" transform="translate(658.59375 0)"/>
     <use xlink:href="#DejaVuSerif-74" transform="translate(690.380859 0)"/>
     <use xlink:href="#DejaVuSerif-65" transform="translate(730.566406 0)"/>
     <use xlink:href="#DejaVuSerif-73" transform="translate(789.746094 0)"/>
     <use xlink:href="#DejaVuSerif-74" transform="translate(841.064453 0)"/>
     <use xlink:href="#DejaVuSerif-20" transform="translate(881.25 0)"/>
     <use xlink:href="#DejaVuSerif-6f" transform="translate(913.037109 0)"/>
     <use xlink:href="#DejaVuSerif-6e" transform="translate(973.242188 0)"/>
     <use xlink:href="#DejaVuSerif-20" transform="translate(1037.646484 0)"/>
     <use xlink:href="#DejaVuSerif-74" transform="translate(1069.433594 0)"/>
     <use xlink:href="#DejaVuSerif-68" transform="translate(1109.619141 0)"/>
     <use xlink:href="#DejaVuSerif-65" transform="translate(1174.023438 0)"/>
     <use xlink:href="#DejaVuSerif-20" transform="translate(1233.203125 0)"/>
     <use xlink:href="#DejaVuSerif-6d" transform="translate(1264.990234 0)"/>
     <use xlink:href="#DejaVuSerif-65" transform="translate(1359.814453 0)"/>
     <use xlink:href="#DejaVuSerif-64" transform="translate(1418.994141 0)"/>
     <use xlink:href="#DejaVuSerif-69" transform="translate(1483.007812 0)"/>
     <use xlink:href="#DejaVuSerif-61" transform="translate(1514.990234 0)"/>
     <use xlink:href="#DejaVuSerif-6e" transform="translate(1574.609375 0)"/>
     <use xlink:href="#DejaVuSerif-2e" transform="translate(1639.013672 0)"/>
    </g>
   </g>
  </g>
 </g>
 <defs>
  <clipPath id="p1d134f128c">
   <rect x="42.01" y="68.496" width="235.19" height="335.624"/>
  </clipPath>
 </defs>
</svg>
