<?xml version="1.0" encoding="utf-8" standalone="no"?>
<!DOCTYPE svg PUBLIC "-//W3C//DTD SVG 1.1//EN"
  "http://www.w3.org/Graphics/SVG/1.1/DTD/svg11.dtd">
<svg xmlns:xlink="http://www.w3.org/1999/xlink" width="288pt" height="432pt" viewBox="0 0 288 432" xmlns="http://www.w3.org/2000/svg" version="1.1">
 <metadata>
  <rdf:RDF xmlns:dc="http://purl.org/dc/elements/1.1/" xmlns:cc="http://creativecommons.org/ns#" xmlns:rdf="http://www.w3.org/1999/02/22-rdf-syntax-ns#">
   <cc:Work>
    <dc:type rdf:resource="http://purl.org/dc/dcmitype/StillImage"/>
    <dc:date>2025-08-14T14:57:43.860151</dc:date>
    <dc:format>image/svg+xml</dc:format>
    <dc:creator>
     <cc:Agent>
      <dc:title>Matplotlib v3.10.0, https://matplotlib.org/</dc:title>
     </cc:Agent>
    </dc:creator>
   </cc:Work>
  </rdf:RDF>
 </metadata>
 <defs>
  <style type="text/css">*{stroke-linejoin: round; stroke-linecap: butt}</style>
 </defs>
 <g id="figure_1">
  <g id="patch_1">
   <path d="M 0 432 
L 288 432 
L 288 0 
L 0 0 
z
" style="fill: #ffffff"/>
  </g>
  <g id="axes_1">
   <g id="patch_2">
    <path d="M 33.64 404.12 
L 277.2 404.12 
L 277.2 68.496 
L 33.64 68.496 
z
" style="fill: #ffffff"/>
   </g>
   <g id="PathCollection_1">
    <defs>
     <path id="me6fe3f622a" d="M 0 3.872983 
C 1.027127 3.872983 2.012324 3.464901 2.738613 2.738613 
C 3.464901 2.012324 3.872983 1.027127 3.872983 0 
C 3.872983 -1.027127 3.464901 -2.012324 2.738613 -2.738613 
C 2.012324 -3.464901 1.027127 -3.872983 0 -3.872983 
C -1.027127 -3.872983 -2.012324 -3.464901 -2.738613 -2.738613 
C -3.464901 -2.012324 -3.872983 -1.027127 -3.872983 0 
C -3.872983 1.027127 -3.464901 2.012324 -2.738613 2.738613 
C -2.012324 3.464901 -1.027127 3.872983 0 3.872983 
z
" style="stroke: #ff0000; stroke-opacity: 0.4"/>
    </defs>
    <g clip-path="url(#p19742db60a)">
     <use xlink:href="#me6fe3f622a" x="102.79627" y="112.744248" style="fill: #ff0000; fill-opacity: 0.4; stroke: #ff0000; stroke-opacity: 0.4"/>
     <use xlink:href="#me6fe3f622a" x="107.585975" y="201.72084" style="fill: #ff0000; fill-opacity: 0.4; stroke: #ff0000; stroke-opacity: 0.4"/>
     <use xlink:href="#me6fe3f622a" x="108.871042" y="193.557243" style="fill: #ff0000; fill-opacity: 0.4; stroke: #ff0000; stroke-opacity: 0.4"/>
     <use xlink:href="#me6fe3f622a" x="112.308189" y="208.125112" style="fill: #ff0000; fill-opacity: 0.4; stroke: #ff0000; stroke-opacity: 0.4"/>
     <use xlink:href="#me6fe3f622a" x="108.068508" y="123.176029" style="fill: #ff0000; fill-opacity: 0.4; stroke: #ff0000; stroke-opacity: 0.4"/>
     <use xlink:href="#me6fe3f622a" x="111.014831" y="145.96325" style="fill: #ff0000; fill-opacity: 0.4; stroke: #ff0000; stroke-opacity: 0.4"/>
     <use xlink:href="#me6fe3f622a" x="110.091638" y="164.255578" style="fill: #ff0000; fill-opacity: 0.4; stroke: #ff0000; stroke-opacity: 0.4"/>
     <use xlink:href="#me6fe3f622a" x="113.117769" y="151.241887" style="fill: #ff0000; fill-opacity: 0.4; stroke: #ff0000; stroke-opacity: 0.4"/>
     <use xlink:href="#me6fe3f622a" x="113.595867" y="256.615335" style="fill: #ff0000; fill-opacity: 0.4; stroke: #ff0000; stroke-opacity: 0.4"/>
     <use xlink:href="#me6fe3f622a" x="107.978573" y="113.285664" style="fill: #ff0000; fill-opacity: 0.4; stroke: #ff0000; stroke-opacity: 0.4"/>
     <use xlink:href="#me6fe3f622a" x="111.20506" y="188.406468" style="fill: #ff0000; fill-opacity: 0.4; stroke: #ff0000; stroke-opacity: 0.4"/>
     <use xlink:href="#me6fe3f622a" x="111.310371" y="176.938356" style="fill: #ff0000; fill-opacity: 0.4; stroke: #ff0000; stroke-opacity: 0.4"/>
     <use xlink:href="#me6fe3f622a" x="109.40013" y="112.744248" style="fill: #ff0000; fill-opacity: 0.4; stroke: #ff0000; stroke-opacity: 0.4"/>
     <use xlink:href="#me6fe3f622a" x="112.962603" y="112.744248" style="fill: #ff0000; fill-opacity: 0.4; stroke: #ff0000; stroke-opacity: 0.4"/>
     <use xlink:href="#me6fe3f622a" x="116.002172" y="266.343462" style="fill: #ff0000; fill-opacity: 0.4; stroke: #ff0000; stroke-opacity: 0.4"/>
     <use xlink:href="#me6fe3f622a" x="117.076072" y="112.744248" style="fill: #ff0000; fill-opacity: 0.4; stroke: #ff0000; stroke-opacity: 0.4"/>
     <use xlink:href="#me6fe3f622a" x="114.979442" y="184.793508" style="fill: #ff0000; fill-opacity: 0.4; stroke: #ff0000; stroke-opacity: 0.4"/>
     <use xlink:href="#me6fe3f622a" x="112.596424" y="120.492821" style="fill: #ff0000; fill-opacity: 0.4; stroke: #ff0000; stroke-opacity: 0.4"/>
     <use xlink:href="#me6fe3f622a" x="108.532567" y="132.843999" style="fill: #ff0000; fill-opacity: 0.4; stroke: #ff0000; stroke-opacity: 0.4"/>
     <use xlink:href="#me6fe3f622a" x="112.412915" y="135.393076" style="fill: #ff0000; fill-opacity: 0.4; stroke: #ff0000; stroke-opacity: 0.4"/>
     <use xlink:href="#me6fe3f622a" x="111.144201" y="158.454252" style="fill: #ff0000; fill-opacity: 0.4; stroke: #ff0000; stroke-opacity: 0.4"/>
     <use xlink:href="#me6fe3f622a" x="115.739537" y="132.640213" style="fill: #ff0000; fill-opacity: 0.4; stroke: #ff0000; stroke-opacity: 0.4"/>
     <use xlink:href="#me6fe3f622a" x="116.73263" y="126.785633" style="fill: #ff0000; fill-opacity: 0.4; stroke: #ff0000; stroke-opacity: 0.4"/>
     <use xlink:href="#me6fe3f622a" x="117.617234" y="139.734264" style="fill: #ff0000; fill-opacity: 0.4; stroke: #ff0000; stroke-opacity: 0.4"/>
     <use xlink:href="#me6fe3f622a" x="120.820359" y="138.904801" style="fill: #ff0000; fill-opacity: 0.4; stroke: #ff0000; stroke-opacity: 0.4"/>
     <use xlink:href="#me6fe3f622a" x="121.797429" y="112.744248" style="fill: #ff0000; fill-opacity: 0.4; stroke: #ff0000; stroke-opacity: 0.4"/>
     <use xlink:href="#me6fe3f622a" x="111.390672" y="218.227447" style="fill: #ff0000; fill-opacity: 0.4; stroke: #ff0000; stroke-opacity: 0.4"/>
     <use xlink:href="#me6fe3f622a" x="118.620666" y="184.903906" style="fill: #ff0000; fill-opacity: 0.4; stroke: #ff0000; stroke-opacity: 0.4"/>
     <use xlink:href="#me6fe3f622a" x="113.797319" y="202.621283" style="fill: #ff0000; fill-opacity: 0.4; stroke: #ff0000; stroke-opacity: 0.4"/>
     <use xlink:href="#me6fe3f622a" x="118.633693" y="204.923878" style="fill: #ff0000; fill-opacity: 0.4; stroke: #ff0000; stroke-opacity: 0.4"/>
     <use xlink:href="#me6fe3f622a" x="120.968569" y="185.464623" style="fill: #ff0000; fill-opacity: 0.4; stroke: #ff0000; stroke-opacity: 0.4"/>
     <use xlink:href="#me6fe3f622a" x="116.516815" y="148.157618" style="fill: #ff0000; fill-opacity: 0.4; stroke: #ff0000; stroke-opacity: 0.4"/>
     <use xlink:href="#me6fe3f622a" x="115.210114" y="223.278676" style="fill: #ff0000; fill-opacity: 0.4; stroke: #ff0000; stroke-opacity: 0.4"/>
     <use xlink:href="#me6fe3f622a" x="115.81845" y="175.405534" style="fill: #ff0000; fill-opacity: 0.4; stroke: #ff0000; stroke-opacity: 0.4"/>
     <use xlink:href="#me6fe3f622a" x="114.158644" y="159.138801" style="fill: #ff0000; fill-opacity: 0.4; stroke: #ff0000; stroke-opacity: 0.4"/>
     <use xlink:href="#me6fe3f622a" x="123.960933" y="112.744248" style="fill: #ff0000; fill-opacity: 0.4; stroke: #ff0000; stroke-opacity: 0.4"/>
     <use xlink:href="#me6fe3f622a" x="118.280854" y="153.385218" style="fill: #ff0000; fill-opacity: 0.4; stroke: #ff0000; stroke-opacity: 0.4"/>
     <use xlink:href="#me6fe3f622a" x="116.712439" y="160.608245" style="fill: #ff0000; fill-opacity: 0.4; stroke: #ff0000; stroke-opacity: 0.4"/>
     <use xlink:href="#me6fe3f622a" x="116.001709" y="119.348203" style="fill: #ff0000; fill-opacity: 0.4; stroke: #ff0000; stroke-opacity: 0.4"/>
     <use xlink:href="#me6fe3f622a" x="121.278724" y="114.585399" style="fill: #ff0000; fill-opacity: 0.4; stroke: #ff0000; stroke-opacity: 0.4"/>
     <use xlink:href="#me6fe3f622a" x="120.372024" y="168.068982" style="fill: #ff0000; fill-opacity: 0.4; stroke: #ff0000; stroke-opacity: 0.4"/>
     <use xlink:href="#me6fe3f622a" x="120.943059" y="200.352232" style="fill: #ff0000; fill-opacity: 0.4; stroke: #ff0000; stroke-opacity: 0.4"/>
     <use xlink:href="#me6fe3f622a" x="118.695367" y="172.267278" style="fill: #ff0000; fill-opacity: 0.4; stroke: #ff0000; stroke-opacity: 0.4"/>
     <use xlink:href="#me6fe3f622a" x="126.671945" y="112.744248" style="fill: #ff0000; fill-opacity: 0.4; stroke: #ff0000; stroke-opacity: 0.4"/>
    </g>
   </g>
   <g id="PathCollection_2">
    <defs>
     <path id="maec7cee45b" d="M 0 3.872983 
C 1.027127 3.872983 2.012324 3.464901 2.738613 2.738613 
C 3.464901 2.012324 3.872983 1.027127 3.872983 0 
C 3.872983 -1.027127 3.464901 -2.012324 2.738613 -2.738613 
C 2.012324 -3.464901 1.027127 -3.872983 0 -3.872983 
C -1.027127 -3.872983 -2.012324 -3.464901 -2.738613 -2.738613 
C -3.464901 -2.012324 -3.872983 -1.027127 -3.872983 0 
C -3.872983 1.027127 -3.464901 2.012324 -2.738613 2.738613 
C -2.012324 3.464901 -1.027127 3.872983 0 3.872983 
z
" style="stroke: #808080; stroke-opacity: 0.4"/>
    </defs>
    <g clip-path="url(#p19742db60a)">
     <use xlink:href="#maec7cee45b" x="193.016253" y="157.813368" style="fill: #808080; fill-opacity: 0.4; stroke: #808080; stroke-opacity: 0.4"/>
     <use xlink:href="#maec7cee45b" x="186.917703" y="219.963594" style="fill: #808080; fill-opacity: 0.4; stroke: #808080; stroke-opacity: 0.4"/>
     <use xlink:href="#maec7cee45b" x="187.014667" y="207.084557" style="fill: #808080; fill-opacity: 0.4; stroke: #808080; stroke-opacity: 0.4"/>
     <use xlink:href="#maec7cee45b" x="186.455058" y="117.49962" style="fill: #808080; fill-opacity: 0.4; stroke: #808080; stroke-opacity: 0.4"/>
     <use xlink:href="#maec7cee45b" x="186.206198" y="149.919104" style="fill: #808080; fill-opacity: 0.4; stroke: #808080; stroke-opacity: 0.4"/>
     <use xlink:href="#maec7cee45b" x="188.086076" y="149.792256" style="fill: #808080; fill-opacity: 0.4; stroke: #808080; stroke-opacity: 0.4"/>
     <use xlink:href="#maec7cee45b" x="191.592286" y="140.796122" style="fill: #808080; fill-opacity: 0.4; stroke: #808080; stroke-opacity: 0.4"/>
     <use xlink:href="#maec7cee45b" x="181.191478" y="112.744248" style="fill: #808080; fill-opacity: 0.4; stroke: #808080; stroke-opacity: 0.4"/>
     <use xlink:href="#maec7cee45b" x="192.542035" y="290.844061" style="fill: #808080; fill-opacity: 0.4; stroke: #808080; stroke-opacity: 0.4"/>
     <use xlink:href="#maec7cee45b" x="173.461757" y="191.876187" style="fill: #808080; fill-opacity: 0.4; stroke: #808080; stroke-opacity: 0.4"/>
     <use xlink:href="#maec7cee45b" x="195.850889" y="290.757134" style="fill: #808080; fill-opacity: 0.4; stroke: #808080; stroke-opacity: 0.4"/>
     <use xlink:href="#maec7cee45b" x="193.875593" y="273.349837" style="fill: #808080; fill-opacity: 0.4; stroke: #808080; stroke-opacity: 0.4"/>
     <use xlink:href="#maec7cee45b" x="184.9654" y="130.334461" style="fill: #808080; fill-opacity: 0.4; stroke: #808080; stroke-opacity: 0.4"/>
     <use xlink:href="#maec7cee45b" x="187.533563" y="126.287964" style="fill: #808080; fill-opacity: 0.4; stroke: #808080; stroke-opacity: 0.4"/>
     <use xlink:href="#maec7cee45b" x="189.647287" y="134.503241" style="fill: #808080; fill-opacity: 0.4; stroke: #808080; stroke-opacity: 0.4"/>
     <use xlink:href="#maec7cee45b" x="186.60591" y="112.744248" style="fill: #808080; fill-opacity: 0.4; stroke: #808080; stroke-opacity: 0.4"/>
     <use xlink:href="#maec7cee45b" x="191.491491" y="257.124341" style="fill: #808080; fill-opacity: 0.4; stroke: #808080; stroke-opacity: 0.4"/>
     <use xlink:href="#maec7cee45b" x="182.740043" y="226.762782" style="fill: #808080; fill-opacity: 0.4; stroke: #808080; stroke-opacity: 0.4"/>
     <use xlink:href="#maec7cee45b" x="190.698178" y="171.215012" style="fill: #808080; fill-opacity: 0.4; stroke: #808080; stroke-opacity: 0.4"/>
     <use xlink:href="#maec7cee45b" x="192.890727" y="212.84478" style="fill: #808080; fill-opacity: 0.4; stroke: #808080; stroke-opacity: 0.4"/>
     <use xlink:href="#maec7cee45b" x="179.592571" y="184.069761" style="fill: #808080; fill-opacity: 0.4; stroke: #808080; stroke-opacity: 0.4"/>
     <use xlink:href="#maec7cee45b" x="189.584495" y="112.744248" style="fill: #808080; fill-opacity: 0.4; stroke: #808080; stroke-opacity: 0.4"/>
     <use xlink:href="#maec7cee45b" x="197.127638" y="158.706404" style="fill: #808080; fill-opacity: 0.4; stroke: #808080; stroke-opacity: 0.4"/>
     <use xlink:href="#maec7cee45b" x="191.044782" y="249.383411" style="fill: #808080; fill-opacity: 0.4; stroke: #808080; stroke-opacity: 0.4"/>
     <use xlink:href="#maec7cee45b" x="182.823836" y="192.935401" style="fill: #808080; fill-opacity: 0.4; stroke: #808080; stroke-opacity: 0.4"/>
     <use xlink:href="#maec7cee45b" x="192.301071" y="240.073346" style="fill: #808080; fill-opacity: 0.4; stroke: #808080; stroke-opacity: 0.4"/>
     <use xlink:href="#maec7cee45b" x="185.578354" y="191.868762" style="fill: #808080; fill-opacity: 0.4; stroke: #808080; stroke-opacity: 0.4"/>
     <use xlink:href="#maec7cee45b" x="190.819878" y="112.744248" style="fill: #808080; fill-opacity: 0.4; stroke: #808080; stroke-opacity: 0.4"/>
     <use xlink:href="#maec7cee45b" x="191.412766" y="122.696275" style="fill: #808080; fill-opacity: 0.4; stroke: #808080; stroke-opacity: 0.4"/>
     <use xlink:href="#maec7cee45b" x="185.584102" y="234.724805" style="fill: #808080; fill-opacity: 0.4; stroke: #808080; stroke-opacity: 0.4"/>
     <use xlink:href="#maec7cee45b" x="189.111418" y="233.383462" style="fill: #808080; fill-opacity: 0.4; stroke: #808080; stroke-opacity: 0.4"/>
     <use xlink:href="#maec7cee45b" x="195.623439" y="126.178361" style="fill: #808080; fill-opacity: 0.4; stroke: #808080; stroke-opacity: 0.4"/>
     <use xlink:href="#maec7cee45b" x="198.346048" y="240.628123" style="fill: #808080; fill-opacity: 0.4; stroke: #808080; stroke-opacity: 0.4"/>
     <use xlink:href="#maec7cee45b" x="193.84495" y="112.744248" style="fill: #808080; fill-opacity: 0.4; stroke: #808080; stroke-opacity: 0.4"/>
     <use xlink:href="#maec7cee45b" x="194.809589" y="143.660577" style="fill: #808080; fill-opacity: 0.4; stroke: #808080; stroke-opacity: 0.4"/>
     <use xlink:href="#maec7cee45b" x="187.18531" y="187.323672" style="fill: #808080; fill-opacity: 0.4; stroke: #808080; stroke-opacity: 0.4"/>
     <use xlink:href="#maec7cee45b" x="193.230317" y="209.711959" style="fill: #808080; fill-opacity: 0.4; stroke: #808080; stroke-opacity: 0.4"/>
     <use xlink:href="#maec7cee45b" x="192.952006" y="172.560987" style="fill: #808080; fill-opacity: 0.4; stroke: #808080; stroke-opacity: 0.4"/>
     <use xlink:href="#maec7cee45b" x="190.624279" y="200.219519" style="fill: #808080; fill-opacity: 0.4; stroke: #808080; stroke-opacity: 0.4"/>
     <use xlink:href="#maec7cee45b" x="194.321229" y="229.591003" style="fill: #808080; fill-opacity: 0.4; stroke: #808080; stroke-opacity: 0.4"/>
     <use xlink:href="#maec7cee45b" x="190.713735" y="189.039363" style="fill: #808080; fill-opacity: 0.4; stroke: #808080; stroke-opacity: 0.4"/>
     <use xlink:href="#maec7cee45b" x="195.567953" y="193.143428" style="fill: #808080; fill-opacity: 0.4; stroke: #808080; stroke-opacity: 0.4"/>
     <use xlink:href="#maec7cee45b" x="195.298305" y="388.864364" style="fill: #808080; fill-opacity: 0.4; stroke: #808080; stroke-opacity: 0.4"/>
     <use xlink:href="#maec7cee45b" x="197.152382" y="278.561656" style="fill: #808080; fill-opacity: 0.4; stroke: #808080; stroke-opacity: 0.4"/>
     <use xlink:href="#maec7cee45b" x="196.827449" y="264.222049" style="fill: #808080; fill-opacity: 0.4; stroke: #808080; stroke-opacity: 0.4"/>
     <use xlink:href="#maec7cee45b" x="197.496701" y="271.477067" style="fill: #808080; fill-opacity: 0.4; stroke: #808080; stroke-opacity: 0.4"/>
     <use xlink:href="#maec7cee45b" x="197.719311" y="192.758944" style="fill: #808080; fill-opacity: 0.4; stroke: #808080; stroke-opacity: 0.4"/>
     <use xlink:href="#maec7cee45b" x="198.148425" y="149.365398" style="fill: #808080; fill-opacity: 0.4; stroke: #808080; stroke-opacity: 0.4"/>
     <use xlink:href="#maec7cee45b" x="197.255071" y="212.171734" style="fill: #808080; fill-opacity: 0.4; stroke: #808080; stroke-opacity: 0.4"/>
     <use xlink:href="#maec7cee45b" x="196.337062" y="227.477563" style="fill: #808080; fill-opacity: 0.4; stroke: #808080; stroke-opacity: 0.4"/>
     <use xlink:href="#maec7cee45b" x="198.395498" y="171.781774" style="fill: #808080; fill-opacity: 0.4; stroke: #808080; stroke-opacity: 0.4"/>
     <use xlink:href="#maec7cee45b" x="194.770609" y="113.503311" style="fill: #808080; fill-opacity: 0.4; stroke: #808080; stroke-opacity: 0.4"/>
     <use xlink:href="#maec7cee45b" x="190.667564" y="140.193527" style="fill: #808080; fill-opacity: 0.4; stroke: #808080; stroke-opacity: 0.4"/>
     <use xlink:href="#maec7cee45b" x="199.958415" y="112.744248" style="fill: #808080; fill-opacity: 0.4; stroke: #808080; stroke-opacity: 0.4"/>
     <use xlink:href="#maec7cee45b" x="194.104471" y="134.150756" style="fill: #808080; fill-opacity: 0.4; stroke: #808080; stroke-opacity: 0.4"/>
     <use xlink:href="#maec7cee45b" x="199.535144" y="188.402286" style="fill: #808080; fill-opacity: 0.4; stroke: #808080; stroke-opacity: 0.4"/>
     <use xlink:href="#maec7cee45b" x="200.930332" y="123.916923" style="fill: #808080; fill-opacity: 0.4; stroke: #808080; stroke-opacity: 0.4"/>
     <use xlink:href="#maec7cee45b" x="203.912204" y="114.214488" style="fill: #808080; fill-opacity: 0.4; stroke: #808080; stroke-opacity: 0.4"/>
     <use xlink:href="#maec7cee45b" x="199.025413" y="223.76428" style="fill: #808080; fill-opacity: 0.4; stroke: #808080; stroke-opacity: 0.4"/>
     <use xlink:href="#maec7cee45b" x="204.073806" y="194.941892" style="fill: #808080; fill-opacity: 0.4; stroke: #808080; stroke-opacity: 0.4"/>
     <use xlink:href="#maec7cee45b" x="202.966251" y="226.134659" style="fill: #808080; fill-opacity: 0.4; stroke: #808080; stroke-opacity: 0.4"/>
     <use xlink:href="#maec7cee45b" x="201.899691" y="112.744248" style="fill: #808080; fill-opacity: 0.4; stroke: #808080; stroke-opacity: 0.4"/>
     <use xlink:href="#maec7cee45b" x="196.983428" y="130.919399" style="fill: #808080; fill-opacity: 0.4; stroke: #808080; stroke-opacity: 0.4"/>
     <use xlink:href="#maec7cee45b" x="207.218306" y="230.852799" style="fill: #808080; fill-opacity: 0.4; stroke: #808080; stroke-opacity: 0.4"/>
     <use xlink:href="#maec7cee45b" x="210.644937" y="235.871386" style="fill: #808080; fill-opacity: 0.4; stroke: #808080; stroke-opacity: 0.4"/>
     <use xlink:href="#maec7cee45b" x="206.03495" y="185.090305" style="fill: #808080; fill-opacity: 0.4; stroke: #808080; stroke-opacity: 0.4"/>
     <use xlink:href="#maec7cee45b" x="200.342718" y="246.097434" style="fill: #808080; fill-opacity: 0.4; stroke: #808080; stroke-opacity: 0.4"/>
     <use xlink:href="#maec7cee45b" x="194.328816" y="197.026872" style="fill: #808080; fill-opacity: 0.4; stroke: #808080; stroke-opacity: 0.4"/>
     <use xlink:href="#maec7cee45b" x="210.970955" y="187.337771" style="fill: #808080; fill-opacity: 0.4; stroke: #808080; stroke-opacity: 0.4"/>
     <use xlink:href="#maec7cee45b" x="213.842479" y="192.950669" style="fill: #808080; fill-opacity: 0.4; stroke: #808080; stroke-opacity: 0.4"/>
     <use xlink:href="#maec7cee45b" x="207.764062" y="112.744248" style="fill: #808080; fill-opacity: 0.4; stroke: #808080; stroke-opacity: 0.4"/>
     <use xlink:href="#maec7cee45b" x="217.564228" y="188.823513" style="fill: #808080; fill-opacity: 0.4; stroke: #808080; stroke-opacity: 0.4"/>
     <use xlink:href="#maec7cee45b" x="199.436011" y="201.795186" style="fill: #808080; fill-opacity: 0.4; stroke: #808080; stroke-opacity: 0.4"/>
     <use xlink:href="#maec7cee45b" x="200.48612" y="138.910878" style="fill: #808080; fill-opacity: 0.4; stroke: #808080; stroke-opacity: 0.4"/>
     <use xlink:href="#maec7cee45b" x="199.787924" y="144.40776" style="fill: #808080; fill-opacity: 0.4; stroke: #808080; stroke-opacity: 0.4"/>
     <use xlink:href="#maec7cee45b" x="208.351902" y="112.744248" style="fill: #808080; fill-opacity: 0.4; stroke: #808080; stroke-opacity: 0.4"/>
     <use xlink:href="#maec7cee45b" x="204.481368" y="140.847916" style="fill: #808080; fill-opacity: 0.4; stroke: #808080; stroke-opacity: 0.4"/>
     <use xlink:href="#maec7cee45b" x="199.947376" y="214.563361" style="fill: #808080; fill-opacity: 0.4; stroke: #808080; stroke-opacity: 0.4"/>
     <use xlink:href="#maec7cee45b" x="197.603969" y="167.789675" style="fill: #808080; fill-opacity: 0.4; stroke: #808080; stroke-opacity: 0.4"/>
     <use xlink:href="#maec7cee45b" x="206.019788" y="132.114925" style="fill: #808080; fill-opacity: 0.4; stroke: #808080; stroke-opacity: 0.4"/>
     <use xlink:href="#maec7cee45b" x="210.597273" y="134.818781" style="fill: #808080; fill-opacity: 0.4; stroke: #808080; stroke-opacity: 0.4"/>
     <use xlink:href="#maec7cee45b" x="204.881295" y="210.517944" style="fill: #808080; fill-opacity: 0.4; stroke: #808080; stroke-opacity: 0.4"/>
     <use xlink:href="#maec7cee45b" x="200.312422" y="199.428392" style="fill: #808080; fill-opacity: 0.4; stroke: #808080; stroke-opacity: 0.4"/>
     <use xlink:href="#maec7cee45b" x="203.74709" y="201.177674" style="fill: #808080; fill-opacity: 0.4; stroke: #808080; stroke-opacity: 0.4"/>
     <use xlink:href="#maec7cee45b" x="207.081411" y="146.140893" style="fill: #808080; fill-opacity: 0.4; stroke: #808080; stroke-opacity: 0.4"/>
     <use xlink:href="#maec7cee45b" x="201.776211" y="172.031315" style="fill: #808080; fill-opacity: 0.4; stroke: #808080; stroke-opacity: 0.4"/>
     <use xlink:href="#maec7cee45b" x="199.686769" y="250.904154" style="fill: #808080; fill-opacity: 0.4; stroke: #808080; stroke-opacity: 0.4"/>
     <use xlink:href="#maec7cee45b" x="208.669748" y="123.433391" style="fill: #808080; fill-opacity: 0.4; stroke: #808080; stroke-opacity: 0.4"/>
    </g>
   </g>
   <g id="FillBetweenPolyCollection_1">
    <path d="M 117.098038 266.343462 
L 112.555296 266.343462 
L 112.483942 264.791955 
L 112.418167 263.240448 
L 112.35748 261.68894 
L 112.301114 260.137433 
L 112.248038 258.585926 
L 112.196966 257.034419 
L 112.146376 255.482911 
L 112.094547 253.931404 
L 112.039588 252.379897 
L 111.979488 250.82839 
L 111.912158 249.276883 
L 111.835486 247.725375 
L 111.747388 246.173868 
L 111.645862 244.622361 
L 111.529037 243.070854 
L 111.39522 241.519347 
L 111.242941 239.967839 
L 111.070984 238.416332 
L 110.878423 236.864825 
L 110.664635 235.313318 
L 110.429321 233.761811 
L 110.172505 232.210303 
L 109.894535 230.658796 
L 109.596071 229.107289 
L 109.278068 227.555782 
L 108.941755 226.004275 
L 108.588605 224.452767 
L 108.220306 222.90126 
L 107.838726 221.349753 
L 107.445882 219.798246 
L 107.043897 218.246739 
L 106.63497 216.695231 
L 106.221342 215.143724 
L 105.805261 213.592217 
L 105.388952 212.04071 
L 104.974591 210.489202 
L 104.564278 208.937695 
L 104.160016 207.386188 
L 103.763688 205.834681 
L 103.377043 204.283174 
L 103.001677 202.731666 
L 102.639023 201.180159 
L 102.290337 199.628652 
L 101.95669 198.077145 
L 101.63896 196.525638 
L 101.337827 194.97413 
L 101.053764 193.422623 
L 100.787041 191.871116 
L 100.537717 190.319609 
L 100.305649 188.768102 
L 100.090487 187.216594 
L 99.891685 185.665087 
L 99.708508 184.11358 
L 99.54004 182.562073 
L 99.385198 181.010566 
L 99.242748 179.459058 
L 99.111321 177.907551 
L 98.989429 176.356044 
L 98.875493 174.804537 
L 98.767857 173.25303 
L 98.664816 171.701522 
L 98.564638 170.150015 
L 98.465591 168.598508 
L 98.365967 167.047001 
L 98.264107 165.495493 
L 98.158427 163.943986 
L 98.04745 162.392479 
L 97.929828 160.840972 
L 97.804374 159.289465 
L 97.670092 157.737957 
L 97.526209 156.18645 
L 97.372208 154.634943 
L 97.207861 153.083436 
L 97.033268 151.531929 
L 96.848886 149.980421 
L 96.655567 148.428914 
L 96.454586 146.877407 
L 96.247671 145.3259 
L 96.037021 143.774393 
L 95.825317 142.222885 
L 95.615723 140.671378 
L 95.411877 139.119871 
L 95.217859 137.568364 
L 95.038152 136.016857 
L 94.877576 134.465349 
L 94.741214 132.913842 
L 94.634311 131.362335 
L 94.562165 129.810828 
L 94.53 128.259321 
L 94.542828 126.707813 
L 94.605311 125.156306 
L 94.72161 123.604799 
L 94.895254 122.053292 
L 95.129002 120.501784 
L 95.424734 118.950277 
L 95.783352 117.39877 
L 96.204712 115.847263 
L 96.687586 114.295756 
L 97.229648 112.744248 
L 132.423686 112.744248 
L 132.423686 112.744248 
L 132.965748 114.295756 
L 133.448621 115.847263 
L 133.869982 117.39877 
L 134.228599 118.950277 
L 134.524331 120.501784 
L 134.758079 122.053292 
L 134.931723 123.604799 
L 135.048023 125.156306 
L 135.110505 126.707813 
L 135.123333 128.259321 
L 135.091168 129.810828 
L 135.019022 131.362335 
L 134.91212 132.913842 
L 134.775757 134.465349 
L 134.615182 136.016857 
L 134.435474 137.568364 
L 134.241457 139.119871 
L 134.037611 140.671378 
L 133.828017 142.222885 
L 133.616312 143.774393 
L 133.405662 145.3259 
L 133.198747 146.877407 
L 132.997767 148.428914 
L 132.804447 149.980421 
L 132.620065 151.531929 
L 132.445472 153.083436 
L 132.281126 154.634943 
L 132.127125 156.18645 
L 131.983242 157.737957 
L 131.848959 159.289465 
L 131.723505 160.840972 
L 131.605883 162.392479 
L 131.494906 163.943986 
L 131.389227 165.495493 
L 131.287366 167.047001 
L 131.187742 168.598508 
L 131.088695 170.150015 
L 130.988518 171.701522 
L 130.885476 173.25303 
L 130.77784 174.804537 
L 130.663904 176.356044 
L 130.542013 177.907551 
L 130.410585 179.459058 
L 130.268136 181.010566 
L 130.113294 182.562073 
L 129.944826 184.11358 
L 129.761648 185.665087 
L 129.562847 187.216594 
L 129.347684 188.768102 
L 129.115616 190.319609 
L 128.866293 191.871116 
L 128.599569 193.422623 
L 128.315507 194.97413 
L 128.014373 196.525638 
L 127.696643 198.077145 
L 127.362997 199.628652 
L 127.01431 201.180159 
L 126.651656 202.731666 
L 126.27629 204.283174 
L 125.889645 205.834681 
L 125.493317 207.386188 
L 125.089055 208.937695 
L 124.678743 210.489202 
L 124.264382 212.04071 
L 123.848073 213.592217 
L 123.431991 215.143724 
L 123.018363 216.695231 
L 122.609437 218.246739 
L 122.207451 219.798246 
L 121.814607 221.349753 
L 121.433028 222.90126 
L 121.064729 224.452767 
L 120.711578 226.004275 
L 120.375265 227.555782 
L 120.057262 229.107289 
L 119.758798 230.658796 
L 119.480828 232.210303 
L 119.224012 233.761811 
L 118.988698 235.313318 
L 118.774911 236.864825 
L 118.582349 238.416332 
L 118.410393 239.967839 
L 118.258113 241.519347 
L 118.124297 243.070854 
L 118.007471 244.622361 
L 117.905945 246.173868 
L 117.817848 247.725375 
L 117.741176 249.276883 
L 117.673845 250.82839 
L 117.613745 252.379897 
L 117.558787 253.931404 
L 117.506957 255.482911 
L 117.456368 257.034419 
L 117.405295 258.585926 
L 117.352219 260.137433 
L 117.295853 261.68894 
L 117.235166 263.240448 
L 117.169392 264.791955 
L 117.098038 266.343462 
z
" clip-path="url(#p19742db60a)" style="fill: #f08080; fill-opacity: 0.3"/>
   </g>
   <g id="FillBetweenPolyCollection_2">
    <path d="M 196.929642 388.864364 
L 195.097025 388.864364 
L 195.104108 386.075272 
L 195.125136 383.286179 
L 195.159095 380.497087 
L 195.204387 377.707995 
L 195.258929 374.918903 
L 195.320297 372.129811 
L 195.385863 369.340719 
L 195.452938 366.551627 
L 195.518891 363.762535 
L 195.581238 360.973443 
L 195.637693 358.184351 
L 195.686181 355.395259 
L 195.724812 352.606167 
L 195.751825 349.817075 
L 195.765514 347.027983 
L 195.764147 344.23889 
L 195.745893 341.449798 
L 195.708762 338.660706 
L 195.650589 335.871614 
L 195.569037 333.082522 
L 195.461659 330.29343 
L 195.325987 327.504338 
L 195.159659 324.715246 
L 194.960574 321.926154 
L 194.727046 319.137062 
L 194.457962 316.34797 
L 194.152897 313.558878 
L 193.812201 310.769786 
L 193.437016 307.980694 
L 193.029223 305.191601 
L 192.591324 302.402509 
L 192.12625 299.613417 
L 191.637119 296.824325 
L 191.126955 294.035233 
L 190.598404 291.246141 
L 190.053476 288.457049 
L 189.493331 285.667957 
L 188.918156 282.878865 
L 188.327137 280.089773 
L 187.718542 277.300681 
L 187.089918 274.511589 
L 186.438373 271.722497 
L 185.760939 268.933405 
L 185.054954 266.144312 
L 184.318438 263.35522 
L 183.55042 260.566128 
L 182.751158 257.777036 
L 181.922257 254.987944 
L 181.066642 252.198852 
L 180.188409 249.40976 
L 179.29258 246.620668 
L 178.384787 243.831576 
L 177.470962 241.042484 
L 176.55707 238.253392 
L 175.648936 235.4643 
L 174.75222 232.675208 
L 173.872532 229.886116 
L 173.015681 227.097023 
L 172.188017 224.307931 
L 171.396795 221.518839 
L 170.650479 218.729747 
L 169.958893 215.940655 
L 169.333145 213.151563 
L 168.785272 210.362471 
L 168.327584 207.573379 
L 167.97174 204.784287 
L 167.727626 201.995195 
L 167.602133 199.206103 
L 167.598 196.417011 
L 167.712832 193.627919 
L 167.938463 190.838826 
L 168.260753 188.049734 
L 168.659894 185.260642 
L 169.111233 182.47155 
L 169.586575 179.682458 
L 170.055859 176.893366 
L 170.48909 174.104274 
L 170.858351 171.315182 
L 171.139729 168.52609 
L 171.315008 165.736998 
L 171.372997 162.947906 
L 171.31039 160.158814 
L 171.13212 157.369722 
L 170.851209 154.58063 
L 170.488122 151.791537 
L 170.069711 149.002445 
L 169.627833 146.213353 
L 169.197714 143.424261 
L 168.816184 140.635169 
L 168.519851 137.846077 
L 168.343315 135.056985 
L 168.317481 132.267893 
L 168.468051 129.478801 
L 168.814255 126.689709 
L 169.367873 123.900617 
L 170.132602 121.111525 
L 171.103809 118.322433 
L 172.268705 115.533341 
L 173.606934 112.744248 
L 218.419733 112.744248 
L 218.419733 112.744248 
L 219.757962 115.533341 
L 220.922858 118.322433 
L 221.894065 121.111525 
L 222.658794 123.900617 
L 223.212412 126.689709 
L 223.558616 129.478801 
L 223.709186 132.267893 
L 223.683351 135.056985 
L 223.506815 137.846077 
L 223.210483 140.635169 
L 222.828953 143.424261 
L 222.398834 146.213353 
L 221.956955 149.002445 
L 221.538545 151.791537 
L 221.175457 154.58063 
L 220.894546 157.369722 
L 220.716277 160.158814 
L 220.653669 162.947906 
L 220.711658 165.736998 
L 220.886938 168.52609 
L 221.168316 171.315182 
L 221.537576 174.104274 
L 221.970808 176.893366 
L 222.440092 179.682458 
L 222.915433 182.47155 
L 223.366773 185.260642 
L 223.765914 188.049734 
L 224.088204 190.838826 
L 224.313835 193.627919 
L 224.428667 196.417011 
L 224.424533 199.206103 
L 224.299041 201.995195 
L 224.054926 204.784287 
L 223.699083 207.573379 
L 223.241395 210.362471 
L 222.693521 213.151563 
L 222.067773 215.940655 
L 221.376188 218.729747 
L 220.629872 221.518839 
L 219.83865 224.307931 
L 219.010986 227.097023 
L 218.154134 229.886116 
L 217.274446 232.675208 
L 216.377731 235.4643 
L 215.469597 238.253392 
L 214.555704 241.042484 
L 213.64188 243.831576 
L 212.734087 246.620668 
L 211.838257 249.40976 
L 210.960025 252.198852 
L 210.10441 254.987944 
L 209.275509 257.777036 
L 208.476247 260.566128 
L 207.708228 263.35522 
L 206.971713 266.144312 
L 206.265728 268.933405 
L 205.588293 271.722497 
L 204.936749 274.511589 
L 204.308124 277.300681 
L 203.69953 280.089773 
L 203.108511 282.878865 
L 202.533336 285.667957 
L 201.973191 288.457049 
L 201.428263 291.246141 
L 200.899712 294.035233 
L 200.389548 296.824325 
L 199.900416 299.613417 
L 199.435343 302.402509 
L 198.997444 305.191601 
L 198.589651 307.980694 
L 198.214465 310.769786 
L 197.87377 313.558878 
L 197.568705 316.34797 
L 197.29962 319.137062 
L 197.066093 321.926154 
L 196.867008 324.715246 
L 196.70068 327.504338 
L 196.565007 330.29343 
L 196.457629 333.082522 
L 196.376078 335.871614 
L 196.317904 338.660706 
L 196.280774 341.449798 
L 196.262519 344.23889 
L 196.261152 347.027983 
L 196.274841 349.817075 
L 196.301854 352.606167 
L 196.340485 355.395259 
L 196.388974 358.184351 
L 196.445429 360.973443 
L 196.507776 363.762535 
L 196.573728 366.551627 
L 196.640804 369.340719 
L 196.70637 372.129811 
L 196.767738 374.918903 
L 196.82228 377.707995 
L 196.867571 380.497087 
L 196.901531 383.286179 
L 196.922559 386.075272 
L 196.929642 388.864364 
z
" clip-path="url(#p19742db60a)" style="fill: #808080; fill-opacity: 0.3"/>
   </g>
   <g id="matplotlib.axis_1">
    <g id="xtick_1">
     <g id="line2d_1">
      <defs>
       <path id="m00c28950e4" d="M 0 0 
L 0 3.5 
" style="stroke: #000000; stroke-width: 0.8"/>
      </defs>
      <g>
       <use xlink:href="#m00c28950e4" x="114.826667" y="404.12" style="stroke: #000000; stroke-width: 0.8"/>
      </g>
     </g>
     <g id="text_1">
      <!-- Mutants -->
      <g transform="translate(93.700885 418.718437) scale(0.1 -0.1)">
       <defs>
        <path id="DejaVuSerif-4d" d="M 353 0 
L 353 331 
L 947 331 
L 947 4331 
L 319 4331 
L 319 4666 
L 1678 4666 
L 3316 1344 
L 4953 4666 
L 6228 4666 
L 6228 4331 
L 5606 4331 
L 5606 331 
L 6203 331 
L 6203 0 
L 4378 0 
L 4378 331 
L 4972 331 
L 4972 3938 
L 3372 684 
L 2931 684 
L 1331 3938 
L 1331 331 
L 1925 331 
L 1925 0 
L 353 0 
z
" transform="scale(0.015625)"/>
        <path id="DejaVuSerif-75" d="M 2266 3322 
L 3341 3322 
L 3341 331 
L 3884 331 
L 3884 0 
L 2766 0 
L 2766 588 
Q 2606 256 2353 82 
Q 2100 -91 1766 -91 
Q 1213 -91 952 223 
Q 691 538 691 1209 
L 691 2988 
L 172 2988 
L 172 3322 
L 1269 3322 
L 1269 1388 
Q 1269 781 1417 556 
Q 1566 331 1947 331 
Q 2347 331 2556 625 
Q 2766 919 2766 1478 
L 2766 2988 
L 2266 2988 
L 2266 3322 
z
" transform="scale(0.015625)"/>
        <path id="DejaVuSerif-74" d="M 691 2988 
L 184 2988 
L 184 3322 
L 691 3322 
L 691 4353 
L 1269 4353 
L 1269 3322 
L 2350 3322 
L 2350 2988 
L 1269 2988 
L 1269 878 
Q 1269 456 1350 337 
Q 1431 219 1650 219 
Q 1875 219 1978 351 
Q 2081 484 2088 781 
L 2522 781 
Q 2497 328 2275 118 
Q 2053 -91 1600 -91 
Q 1103 -91 897 129 
Q 691 350 691 878 
L 691 2988 
z
" transform="scale(0.015625)"/>
        <path id="DejaVuSerif-61" d="M 2547 1044 
L 2547 1747 
L 1806 1747 
Q 1378 1747 1168 1562 
Q 959 1378 959 997 
Q 959 650 1171 447 
Q 1384 244 1747 244 
Q 2106 244 2326 466 
Q 2547 688 2547 1044 
z
M 3122 2075 
L 3122 331 
L 3634 331 
L 3634 0 
L 2547 0 
L 2547 359 
Q 2356 128 2106 18 
Q 1856 -91 1522 -91 
Q 969 -91 644 203 
Q 319 497 319 997 
Q 319 1513 691 1797 
Q 1063 2081 1741 2081 
L 2547 2081 
L 2547 2309 
Q 2547 2688 2317 2895 
Q 2088 3103 1672 3103 
Q 1328 3103 1125 2947 
Q 922 2791 872 2484 
L 575 2484 
L 575 3156 
Q 875 3284 1158 3348 
Q 1441 3413 1709 3413 
Q 2400 3413 2761 3070 
Q 3122 2728 3122 2075 
z
" transform="scale(0.015625)"/>
        <path id="DejaVuSerif-6e" d="M 263 0 
L 263 331 
L 781 331 
L 781 2988 
L 231 2988 
L 231 3322 
L 1356 3322 
L 1356 2731 
Q 1516 3069 1770 3241 
Q 2025 3413 2363 3413 
Q 2913 3413 3172 3097 
Q 3431 2781 3431 2113 
L 3431 331 
L 3944 331 
L 3944 0 
L 2356 0 
L 2356 331 
L 2853 331 
L 2853 1931 
Q 2853 2541 2703 2767 
Q 2553 2994 2175 2994 
Q 1775 2994 1565 2701 
Q 1356 2409 1356 1850 
L 1356 331 
L 1856 331 
L 1856 0 
L 263 0 
z
" transform="scale(0.015625)"/>
        <path id="DejaVuSerif-73" d="M 359 184 
L 359 959 
L 691 959 
Q 703 588 923 403 
Q 1144 219 1575 219 
Q 1963 219 2166 364 
Q 2369 509 2369 788 
Q 2369 1006 2220 1140 
Q 2072 1275 1594 1428 
L 1178 1569 
Q 750 1706 558 1912 
Q 366 2119 366 2438 
Q 366 2894 700 3153 
Q 1034 3413 1625 3413 
Q 1888 3413 2178 3344 
Q 2469 3275 2778 3144 
L 2778 2419 
L 2447 2419 
Q 2434 2741 2221 2922 
Q 2009 3103 1644 3103 
Q 1281 3103 1095 2975 
Q 909 2847 909 2591 
Q 909 2381 1050 2254 
Q 1191 2128 1613 1997 
L 2069 1856 
Q 2541 1709 2748 1489 
Q 2956 1269 2956 922 
Q 2956 450 2595 179 
Q 2234 -91 1600 -91 
Q 1278 -91 972 -22 
Q 666 47 359 184 
z
" transform="scale(0.015625)"/>
       </defs>
       <use xlink:href="#DejaVuSerif-4d"/>
       <use xlink:href="#DejaVuSerif-75" transform="translate(102.392578 0)"/>
       <use xlink:href="#DejaVuSerif-74" transform="translate(166.796875 0)"/>
       <use xlink:href="#DejaVuSerif-61" transform="translate(206.982422 0)"/>
       <use xlink:href="#DejaVuSerif-6e" transform="translate(266.601562 0)"/>
       <use xlink:href="#DejaVuSerif-74" transform="translate(331.005859 0)"/>
       <use xlink:href="#DejaVuSerif-73" transform="translate(371.191406 0)"/>
      </g>
     </g>
    </g>
    <g id="xtick_2">
     <g id="line2d_2">
      <g>
       <use xlink:href="#m00c28950e4" x="196.013333" y="404.12" style="stroke: #000000; stroke-width: 0.8"/>
      </g>
     </g>
     <g id="text_2">
      <!-- Non-members WT -->
      <g transform="translate(150.096927 418.718437) scale(0.1 -0.1)">
       <defs>
        <path id="DejaVuSerif-4e" d="M 313 0 
L 313 331 
L 941 331 
L 941 4331 
L 313 4331 
L 313 4666 
L 1509 4666 
L 4306 984 
L 4306 4331 
L 3681 4331 
L 3681 4666 
L 5319 4666 
L 5319 4331 
L 4691 4331 
L 4691 -91 
L 4313 -91 
L 1325 3841 
L 1325 331 
L 1953 331 
L 1953 0 
L 313 0 
z
" transform="scale(0.015625)"/>
        <path id="DejaVuSerif-6f" d="M 1925 219 
Q 2388 219 2623 584 
Q 2859 950 2859 1663 
Q 2859 2375 2623 2739 
Q 2388 3103 1925 3103 
Q 1463 3103 1227 2739 
Q 991 2375 991 1663 
Q 991 950 1228 584 
Q 1466 219 1925 219 
z
M 1925 -91 
Q 1200 -91 759 389 
Q 319 869 319 1663 
Q 319 2456 758 2934 
Q 1197 3413 1925 3413 
Q 2653 3413 3092 2934 
Q 3531 2456 3531 1663 
Q 3531 869 3092 389 
Q 2653 -91 1925 -91 
z
" transform="scale(0.015625)"/>
        <path id="DejaVuSerif-2d" d="M 281 1959 
L 1881 1959 
L 1881 1472 
L 281 1472 
L 281 1959 
z
" transform="scale(0.015625)"/>
        <path id="DejaVuSerif-6d" d="M 3316 2675 
Q 3481 3041 3739 3227 
Q 3997 3413 4341 3413 
Q 4863 3413 5119 3089 
Q 5375 2766 5375 2113 
L 5375 331 
L 5894 331 
L 5894 0 
L 4300 0 
L 4300 331 
L 4800 331 
L 4800 2047 
Q 4800 2556 4650 2772 
Q 4500 2988 4153 2988 
Q 3769 2988 3567 2697 
Q 3366 2406 3366 1850 
L 3366 331 
L 3866 331 
L 3866 0 
L 2291 0 
L 2291 331 
L 2791 331 
L 2791 2069 
Q 2791 2566 2641 2777 
Q 2491 2988 2144 2988 
Q 1759 2988 1557 2697 
Q 1356 2406 1356 1850 
L 1356 331 
L 1856 331 
L 1856 0 
L 263 0 
L 263 331 
L 781 331 
L 781 2994 
L 231 2994 
L 231 3322 
L 1356 3322 
L 1356 2731 
Q 1516 3063 1762 3238 
Q 2009 3413 2322 3413 
Q 2709 3413 2968 3220 
Q 3228 3028 3316 2675 
z
" transform="scale(0.015625)"/>
        <path id="DejaVuSerif-65" d="M 3469 1600 
L 991 1600 
L 991 1575 
Q 991 903 1244 561 
Q 1497 219 1991 219 
Q 2369 219 2611 417 
Q 2853 616 2950 1006 
L 3413 1006 
Q 3275 459 2904 184 
Q 2534 -91 1931 -91 
Q 1203 -91 761 389 
Q 319 869 319 1663 
Q 319 2450 753 2931 
Q 1188 3413 1894 3413 
Q 2647 3413 3050 2948 
Q 3453 2484 3469 1600 
z
M 2791 1931 
Q 2772 2513 2545 2808 
Q 2319 3103 1894 3103 
Q 1497 3103 1269 2806 
Q 1041 2509 991 1931 
L 2791 1931 
z
" transform="scale(0.015625)"/>
        <path id="DejaVuSerif-62" d="M 738 331 
L 738 4531 
L 184 4531 
L 184 4863 
L 1313 4863 
L 1313 2803 
Q 1481 3116 1742 3264 
Q 2003 3413 2388 3413 
Q 3000 3413 3387 2928 
Q 3775 2444 3775 1663 
Q 3775 881 3387 395 
Q 3000 -91 2388 -91 
Q 2003 -91 1742 57 
Q 1481 206 1313 519 
L 1313 0 
L 184 0 
L 184 331 
L 738 331 
z
M 1313 1497 
Q 1313 897 1542 583 
Q 1772 269 2209 269 
Q 2650 269 2876 622 
Q 3103 975 3103 1663 
Q 3103 2353 2876 2703 
Q 2650 3053 2209 3053 
Q 1772 3053 1542 2737 
Q 1313 2422 1313 1825 
L 1313 1497 
z
" transform="scale(0.015625)"/>
        <path id="DejaVuSerif-72" d="M 3059 3328 
L 3059 2497 
L 2728 2497 
Q 2713 2744 2591 2866 
Q 2469 2988 2234 2988 
Q 1809 2988 1582 2694 
Q 1356 2400 1356 1850 
L 1356 331 
L 2022 331 
L 2022 0 
L 263 0 
L 263 331 
L 781 331 
L 781 2994 
L 231 2994 
L 231 3322 
L 1356 3322 
L 1356 2731 
Q 1525 3078 1790 3245 
Q 2056 3413 2438 3413 
Q 2578 3413 2733 3391 
Q 2888 3369 3059 3328 
z
" transform="scale(0.015625)"/>
        <path id="DejaVuSerif-20" transform="scale(0.015625)"/>
        <path id="DejaVuSerif-57" d="M 4878 0 
L 4366 0 
L 3297 3794 
L 2228 0 
L 1716 0 
L 494 4331 
L 31 4331 
L 31 4666 
L 1734 4666 
L 1734 4331 
L 1153 4331 
L 2125 884 
L 3188 4666 
L 3694 4666 
L 4775 844 
L 5753 4331 
L 5216 4331 
L 5216 4666 
L 6559 4666 
L 6559 4331 
L 6100 4331 
L 4878 0 
z
" transform="scale(0.015625)"/>
        <path id="DejaVuSerif-54" d="M 1222 0 
L 1222 331 
L 1819 331 
L 1819 4294 
L 447 4294 
L 447 3566 
L 63 3566 
L 63 4666 
L 4206 4666 
L 4206 3566 
L 3822 3566 
L 3822 4294 
L 2450 4294 
L 2450 331 
L 3047 331 
L 3047 0 
L 1222 0 
z
" transform="scale(0.015625)"/>
       </defs>
       <use xlink:href="#DejaVuSerif-4e"/>
       <use xlink:href="#DejaVuSerif-6f" transform="translate(87.5 0)"/>
       <use xlink:href="#DejaVuSerif-6e" transform="translate(147.705078 0)"/>
       <use xlink:href="#DejaVuSerif-2d" transform="translate(212.109375 0)"/>
       <use xlink:href="#DejaVuSerif-6d" transform="translate(245.898438 0)"/>
       <use xlink:href="#DejaVuSerif-65" transform="translate(340.722656 0)"/>
       <use xlink:href="#DejaVuSerif-6d" transform="translate(399.902344 0)"/>
       <use xlink:href="#DejaVuSerif-62" transform="translate(494.726562 0)"/>
       <use xlink:href="#DejaVuSerif-65" transform="translate(558.740234 0)"/>
       <use xlink:href="#DejaVuSerif-72" transform="translate(617.919922 0)"/>
       <use xlink:href="#DejaVuSerif-73" transform="translate(665.722656 0)"/>
       <use xlink:href="#DejaVuSerif-20" transform="translate(717.041016 0)"/>
       <use xlink:href="#DejaVuSerif-57" transform="translate(748.828125 0)"/>
       <use xlink:href="#DejaVuSerif-54" transform="translate(851.611328 0)"/>
      </g>
     </g>
    </g>
   </g>
   <g id="matplotlib.axis_2">
    <g id="ytick_1">
     <g id="line2d_3">
      <defs>
       <path id="mf3f6adda62" d="M 0 0 
L -3.5 0 
" style="stroke: #000000; stroke-width: 0.8"/>
      </defs>
      <g>
       <use xlink:href="#mf3f6adda62" x="33.64" y="388.864364" style="stroke: #000000; stroke-width: 0.8"/>
      </g>
     </g>
     <g id="text_3">
      <!-- 0.0 -->
      <g transform="translate(10.736875 392.663582) scale(0.1 -0.1)">
       <defs>
        <path id="DejaVuSerif-30" d="M 2034 219 
Q 2513 219 2750 744 
Q 2988 1269 2988 2328 
Q 2988 3391 2750 3916 
Q 2513 4441 2034 4441 
Q 1556 4441 1318 3916 
Q 1081 3391 1081 2328 
Q 1081 1269 1318 744 
Q 1556 219 2034 219 
z
M 2034 -91 
Q 1275 -91 848 546 
Q 422 1184 422 2328 
Q 422 3475 848 4112 
Q 1275 4750 2034 4750 
Q 2797 4750 3222 4112 
Q 3647 3475 3647 2328 
Q 3647 1184 3222 546 
Q 2797 -91 2034 -91 
z
" transform="scale(0.015625)"/>
        <path id="DejaVuSerif-2e" d="M 603 325 
Q 603 500 722 622 
Q 841 744 1019 744 
Q 1191 744 1312 622 
Q 1434 500 1434 325 
Q 1434 153 1312 31 
Q 1191 -91 1019 -91 
Q 841 -91 722 29 
Q 603 150 603 325 
z
" transform="scale(0.015625)"/>
       </defs>
       <use xlink:href="#DejaVuSerif-30"/>
       <use xlink:href="#DejaVuSerif-2e" transform="translate(63.623047 0)"/>
       <use xlink:href="#DejaVuSerif-30" transform="translate(95.410156 0)"/>
      </g>
     </g>
    </g>
    <g id="ytick_2">
     <g id="line2d_4">
      <g>
       <use xlink:href="#mf3f6adda62" x="33.64" y="333.640341" style="stroke: #000000; stroke-width: 0.8"/>
      </g>
     </g>
     <g id="text_4">
      <!-- 0.2 -->
      <g transform="translate(10.736875 337.439559) scale(0.1 -0.1)">
       <defs>
        <path id="DejaVuSerif-32" d="M 819 3553 
L 469 3553 
L 469 4384 
Q 803 4563 1142 4656 
Q 1481 4750 1806 4750 
Q 2534 4750 2956 4397 
Q 3378 4044 3378 3438 
Q 3378 2753 2422 1800 
Q 2347 1728 2309 1691 
L 1131 513 
L 3078 513 
L 3078 1088 
L 3444 1088 
L 3444 0 
L 434 0 
L 434 341 
L 1850 1753 
Q 2319 2222 2519 2614 
Q 2719 3006 2719 3438 
Q 2719 3909 2473 4175 
Q 2228 4441 1797 4441 
Q 1350 4441 1106 4219 
Q 863 3997 819 3553 
z
" transform="scale(0.015625)"/>
       </defs>
       <use xlink:href="#DejaVuSerif-30"/>
       <use xlink:href="#DejaVuSerif-2e" transform="translate(63.623047 0)"/>
       <use xlink:href="#DejaVuSerif-32" transform="translate(95.410156 0)"/>
      </g>
     </g>
    </g>
    <g id="ytick_3">
     <g id="line2d_5">
      <g>
       <use xlink:href="#mf3f6adda62" x="33.64" y="278.416318" style="stroke: #000000; stroke-width: 0.8"/>
      </g>
     </g>
     <g id="text_5">
      <!-- 0.4 -->
      <g transform="translate(10.736875 282.215536) scale(0.1 -0.1)">
       <defs>
        <path id="DejaVuSerif-34" d="M 2234 1581 
L 2234 4063 
L 641 1581 
L 2234 1581 
z
M 3609 0 
L 1484 0 
L 1484 331 
L 2234 331 
L 2234 1247 
L 197 1247 
L 197 1588 
L 2241 4750 
L 2859 4750 
L 2859 1581 
L 3750 1581 
L 3750 1247 
L 2859 1247 
L 2859 331 
L 3609 331 
L 3609 0 
z
" transform="scale(0.015625)"/>
       </defs>
       <use xlink:href="#DejaVuSerif-30"/>
       <use xlink:href="#DejaVuSerif-2e" transform="translate(63.623047 0)"/>
       <use xlink:href="#DejaVuSerif-34" transform="translate(95.410156 0)"/>
      </g>
     </g>
    </g>
    <g id="ytick_4">
     <g id="line2d_6">
      <g>
       <use xlink:href="#mf3f6adda62" x="33.64" y="223.192295" style="stroke: #000000; stroke-width: 0.8"/>
      </g>
     </g>
     <g id="text_6">
      <!-- 0.6 -->
      <g transform="translate(10.736875 226.991513) scale(0.1 -0.1)">
       <defs>
        <path id="DejaVuSerif-36" d="M 2094 219 
Q 2534 219 2771 542 
Q 3009 866 3009 1472 
Q 3009 2078 2771 2401 
Q 2534 2725 2094 2725 
Q 1647 2725 1412 2412 
Q 1178 2100 1178 1509 
Q 1178 888 1415 553 
Q 1653 219 2094 219 
z
M 1075 2569 
Q 1288 2803 1556 2918 
Q 1825 3034 2163 3034 
Q 2859 3034 3264 2615 
Q 3669 2197 3669 1472 
Q 3669 763 3233 336 
Q 2797 -91 2069 -91 
Q 1278 -91 853 498 
Q 428 1088 428 2181 
Q 428 3406 931 4078 
Q 1434 4750 2350 4750 
Q 2597 4750 2869 4703 
Q 3141 4656 3425 4563 
L 3425 3794 
L 3072 3794 
Q 3034 4109 2831 4275 
Q 2628 4441 2284 4441 
Q 1678 4441 1381 3981 
Q 1084 3522 1075 2569 
z
" transform="scale(0.015625)"/>
       </defs>
       <use xlink:href="#DejaVuSerif-30"/>
       <use xlink:href="#DejaVuSerif-2e" transform="translate(63.623047 0)"/>
       <use xlink:href="#DejaVuSerif-36" transform="translate(95.410156 0)"/>
      </g>
     </g>
    </g>
    <g id="ytick_5">
     <g id="line2d_7">
      <g>
       <use xlink:href="#mf3f6adda62" x="33.64" y="167.968271" style="stroke: #000000; stroke-width: 0.8"/>
      </g>
     </g>
     <g id="text_7">
      <!-- 0.8 -->
      <g transform="translate(10.736875 171.76749) scale(0.1 -0.1)">
       <defs>
        <path id="DejaVuSerif-38" d="M 2981 1275 
Q 2981 1775 2732 2051 
Q 2484 2328 2034 2328 
Q 1584 2328 1336 2051 
Q 1088 1775 1088 1275 
Q 1088 772 1336 495 
Q 1584 219 2034 219 
Q 2484 219 2732 495 
Q 2981 772 2981 1275 
z
M 2853 3541 
Q 2853 3966 2637 4203 
Q 2422 4441 2034 4441 
Q 1650 4441 1433 4203 
Q 1216 3966 1216 3541 
Q 1216 3113 1433 2875 
Q 1650 2638 2034 2638 
Q 2422 2638 2637 2875 
Q 2853 3113 2853 3541 
z
M 2516 2484 
Q 3047 2413 3344 2092 
Q 3641 1772 3641 1275 
Q 3641 619 3225 264 
Q 2809 -91 2034 -91 
Q 1263 -91 845 264 
Q 428 619 428 1275 
Q 428 1772 725 2092 
Q 1022 2413 1556 2484 
Q 1084 2569 832 2842 
Q 581 3116 581 3541 
Q 581 4103 968 4426 
Q 1356 4750 2034 4750 
Q 2713 4750 3100 4426 
Q 3488 4103 3488 3541 
Q 3488 3116 3236 2842 
Q 2984 2569 2516 2484 
z
" transform="scale(0.015625)"/>
       </defs>
       <use xlink:href="#DejaVuSerif-30"/>
       <use xlink:href="#DejaVuSerif-2e" transform="translate(63.623047 0)"/>
       <use xlink:href="#DejaVuSerif-38" transform="translate(95.410156 0)"/>
      </g>
     </g>
    </g>
    <g id="ytick_6">
     <g id="line2d_8">
      <g>
       <use xlink:href="#mf3f6adda62" x="33.64" y="112.744248" style="stroke: #000000; stroke-width: 0.8"/>
      </g>
     </g>
     <g id="text_8">
      <!-- 1.0 -->
      <g transform="translate(10.736875 116.543467) scale(0.1 -0.1)">
       <defs>
        <path id="DejaVuSerif-31" d="M 909 0 
L 909 331 
L 1722 331 
L 1722 4213 
L 781 3603 
L 781 4013 
L 1919 4750 
L 2350 4750 
L 2350 331 
L 3163 331 
L 3163 0 
L 909 0 
z
" transform="scale(0.015625)"/>
       </defs>
       <use xlink:href="#DejaVuSerif-31"/>
       <use xlink:href="#DejaVuSerif-2e" transform="translate(63.623047 0)"/>
       <use xlink:href="#DejaVuSerif-30" transform="translate(95.410156 0)"/>
      </g>
     </g>
    </g>
   </g>
   <g id="line2d_9">
    <path d="M 102.648667 185.324443 
L 127.004667 185.324443 
L 127.004667 121.163623 
L 102.648667 121.163623 
L 102.648667 185.324443 
" clip-path="url(#p19742db60a)" style="fill: none; stroke: #000000; stroke-linecap: square"/>
   </g>
   <g id="line2d_10">
    <path d="M 114.826667 185.324443 
L 114.826667 266.343462 
" clip-path="url(#p19742db60a)" style="fill: none; stroke: #000000; stroke-linecap: square"/>
   </g>
   <g id="line2d_11">
    <path d="M 114.826667 121.163623 
L 114.826667 112.744248 
" clip-path="url(#p19742db60a)" style="fill: none; stroke: #000000; stroke-linecap: square"/>
   </g>
   <g id="line2d_12">
    <path d="M 108.737667 266.343462 
L 120.915667 266.343462 
" clip-path="url(#p19742db60a)" style="fill: none; stroke: #000000; stroke-linecap: square"/>
   </g>
   <g id="line2d_13">
    <path d="M 108.737667 112.744248 
L 120.915667 112.744248 
" clip-path="url(#p19742db60a)" style="fill: none; stroke: #000000; stroke-linecap: square"/>
   </g>
   <g id="line2d_14">
    <path d="M 183.835333 220.913765 
L 208.191333 220.913765 
L 208.191333 134.739896 
L 183.835333 134.739896 
L 183.835333 220.913765 
" clip-path="url(#p19742db60a)" style="fill: none; stroke: #000000; stroke-linecap: square"/>
   </g>
   <g id="line2d_15">
    <path d="M 196.013333 220.913765 
L 196.013333 290.844061 
" clip-path="url(#p19742db60a)" style="fill: none; stroke: #000000; stroke-linecap: square"/>
   </g>
   <g id="line2d_16">
    <path d="M 196.013333 134.739896 
L 196.013333 112.744248 
" clip-path="url(#p19742db60a)" style="fill: none; stroke: #000000; stroke-linecap: square"/>
   </g>
   <g id="line2d_17">
    <path d="M 189.924333 290.844061 
L 202.102333 290.844061 
" clip-path="url(#p19742db60a)" style="fill: none; stroke: #000000; stroke-linecap: square"/>
   </g>
   <g id="line2d_18">
    <path d="M 189.924333 112.744248 
L 202.102333 112.744248 
" clip-path="url(#p19742db60a)" style="fill: none; stroke: #000000; stroke-linecap: square"/>
   </g>
   <g id="LineCollection_1">
    <path d="M 104.678333 152.313552 
L 124.975 152.313552 
" clip-path="url(#p19742db60a)" style="fill: none; stroke: #000000; stroke-width: 5"/>
    <path d="M 181.805667 187.870028 
L 210.221 187.870028 
" clip-path="url(#p19742db60a)" style="fill: none; stroke: #000000; stroke-width: 5"/>
   </g>
   <g id="line2d_19">
    <path d="M 110.767333 89.826279 
L 110.767333 83.751636 
L 191.954 83.751636 
L 191.954 89.826279 
" clip-path="url(#p19742db60a)" style="fill: none; stroke: #000000; stroke-linecap: square"/>
   </g>
   <g id="patch_3">
    <path d="M 33.64 404.12 
L 33.64 68.496 
" style="fill: none; stroke: #000000; stroke-width: 0.8; stroke-linejoin: miter; stroke-linecap: square"/>
   </g>
   <g id="patch_4">
    <path d="M 277.2 404.12 
L 277.2 68.496 
" style="fill: none; stroke: #000000; stroke-width: 0.8; stroke-linejoin: miter; stroke-linecap: square"/>
   </g>
   <g id="patch_5">
    <path d="M 33.64 404.12 
L 277.2 404.12 
" style="fill: none; stroke: #000000; stroke-width: 0.8; stroke-linejoin: miter; stroke-linecap: square"/>
   </g>
   <g id="patch_6">
    <path d="M 33.64 68.496 
L 277.2 68.496 
" style="fill: none; stroke: #000000; stroke-width: 0.8; stroke-linejoin: miter; stroke-linecap: square"/>
   </g>
   <g id="text_9">
    <!-- *** -->
    <g transform="translate(143.860667 78.634628) scale(0.1 -0.1)">
     <defs>
      <path id="DejaVuSerif-2a" d="M 3097 3866 
L 1875 3297 
L 3097 2719 
L 2859 2350 
L 1772 3028 
L 1813 1838 
L 1388 1838 
L 1428 3028 
L 341 2350 
L 103 2719 
L 1325 3291 
L 103 3866 
L 341 4238 
L 1428 3559 
L 1388 4750 
L 1813 4750 
L 1772 3559 
L 2859 4238 
L 3097 3866 
z
" transform="scale(0.015625)"/>
     </defs>
     <use xlink:href="#DejaVuSerif-2a"/>
     <use xlink:href="#DejaVuSerif-2a" transform="translate(50 0)"/>
     <use xlink:href="#DejaVuSerif-2a" transform="translate(100 0)"/>
    </g>
   </g>
   <g id="text_10">
    <!-- summed outburstiness inGroupNorm -->
    <g transform="translate(42.266563 22.01325) scale(0.12 -0.12)">
     <defs>
      <path id="DejaVuSerif-64" d="M 3359 331 
L 3909 331 
L 3909 0 
L 2784 0 
L 2784 519 
Q 2616 206 2355 57 
Q 2094 -91 1709 -91 
Q 1097 -91 708 395 
Q 319 881 319 1663 
Q 319 2444 706 2928 
Q 1094 3413 1709 3413 
Q 2094 3413 2355 3264 
Q 2616 3116 2784 2803 
L 2784 4531 
L 2241 4531 
L 2241 4863 
L 3359 4863 
L 3359 331 
z
M 2784 1497 
L 2784 1825 
Q 2784 2422 2554 2737 
Q 2325 3053 1888 3053 
Q 1444 3053 1217 2703 
Q 991 2353 991 1663 
Q 991 975 1217 622 
Q 1444 269 1888 269 
Q 2325 269 2554 583 
Q 2784 897 2784 1497 
z
" transform="scale(0.015625)"/>
      <path id="DejaVuSerif-69" d="M 622 4353 
Q 622 4497 726 4603 
Q 831 4709 978 4709 
Q 1122 4709 1226 4603 
Q 1331 4497 1331 4353 
Q 1331 4206 1228 4103 
Q 1125 4000 978 4000 
Q 831 4000 726 4103 
Q 622 4206 622 4353 
z
M 1356 331 
L 1900 331 
L 1900 0 
L 231 0 
L 231 331 
L 781 331 
L 781 2988 
L 231 2988 
L 231 3322 
L 1356 3322 
L 1356 331 
z
" transform="scale(0.015625)"/>
      <path id="DejaVuSerif-47" d="M 4097 3272 
Q 3988 3856 3641 4136 
Q 3294 4416 2675 4416 
Q 1869 4416 1472 3897 
Q 1075 3378 1075 2328 
Q 1075 1300 1484 772 
Q 1894 244 2688 244 
Q 3041 244 3362 331 
Q 3684 419 3975 594 
L 3975 1797 
L 3097 1797 
L 3097 2131 
L 4609 2131 
L 4609 391 
Q 4194 150 3714 29 
Q 3234 -91 2688 -91 
Q 1631 -91 995 570 
Q 359 1231 359 2328 
Q 359 3434 996 4092 
Q 1634 4750 2713 4750 
Q 3113 4750 3539 4658 
Q 3966 4566 4447 4378 
L 4447 3272 
L 4097 3272 
z
" transform="scale(0.015625)"/>
      <path id="DejaVuSerif-70" d="M 1313 1825 
L 1313 1497 
Q 1313 897 1542 583 
Q 1772 269 2209 269 
Q 2650 269 2876 622 
Q 3103 975 3103 1663 
Q 3103 2353 2876 2703 
Q 2650 3053 2209 3053 
Q 1772 3053 1542 2737 
Q 1313 2422 1313 1825 
z
M 738 2988 
L 184 2988 
L 184 3322 
L 1313 3322 
L 1313 2803 
Q 1481 3116 1742 3264 
Q 2003 3413 2388 3413 
Q 3000 3413 3387 2928 
Q 3775 2444 3775 1663 
Q 3775 881 3387 395 
Q 3000 -91 2388 -91 
Q 2003 -91 1742 57 
Q 1481 206 1313 519 
L 1313 -997 
L 1856 -997 
L 1856 -1331 
L 184 -1331 
L 184 -997 
L 738 -997 
L 738 2988 
z
" transform="scale(0.015625)"/>
     </defs>
     <use xlink:href="#DejaVuSerif-73"/>
     <use xlink:href="#DejaVuSerif-75" transform="translate(51.318359 0)"/>
     <use xlink:href="#DejaVuSerif-6d" transform="translate(115.722656 0)"/>
     <use xlink:href="#DejaVuSerif-6d" transform="translate(210.546875 0)"/>
     <use xlink:href="#DejaVuSerif-65" transform="translate(305.371094 0)"/>
     <use xlink:href="#DejaVuSerif-64" transform="translate(364.550781 0)"/>
     <use xlink:href="#DejaVuSerif-20" transform="translate(428.564453 0)"/>
     <use xlink:href="#DejaVuSerif-6f" transform="translate(460.351562 0)"/>
     <use xlink:href="#DejaVuSerif-75" transform="translate(520.556641 0)"/>
     <use xlink:href="#DejaVuSerif-74" transform="translate(584.960938 0)"/>
     <use xlink:href="#DejaVuSerif-62" transform="translate(625.146484 0)"/>
     <use xlink:href="#DejaVuSerif-75" transform="translate(689.160156 0)"/>
     <use xlink:href="#DejaVuSerif-72" transform="translate(753.564453 0)"/>
     <use xlink:href="#DejaVuSerif-73" transform="translate(801.367188 0)"/>
     <use xlink:href="#DejaVuSerif-74" transform="translate(852.685547 0)"/>
     <use xlink:href="#DejaVuSerif-69" transform="translate(892.871094 0)"/>
     <use xlink:href="#DejaVuSerif-6e" transform="translate(924.853516 0)"/>
     <use xlink:href="#DejaVuSerif-65" transform="translate(989.257812 0)"/>
     <use xlink:href="#DejaVuSerif-73" transform="translate(1048.4375 0)"/>
     <use xlink:href="#DejaVuSerif-73" transform="translate(1099.755859 0)"/>
     <use xlink:href="#DejaVuSerif-20" transform="translate(1151.074219 0)"/>
     <use xlink:href="#DejaVuSerif-69" transform="translate(1182.861328 0)"/>
     <use xlink:href="#DejaVuSerif-6e" transform="translate(1214.84375 0)"/>
     <use xlink:href="#DejaVuSerif-47" transform="translate(1279.248047 0)"/>
     <use xlink:href="#DejaVuSerif-72" transform="translate(1359.130859 0)"/>
     <use xlink:href="#DejaVuSerif-6f" transform="translate(1406.933594 0)"/>
     <use xlink:href="#DejaVuSerif-75" transform="translate(1467.138672 0)"/>
     <use xlink:href="#DejaVuSerif-70" transform="translate(1531.542969 0)"/>
     <use xlink:href="#DejaVuSerif-4e" transform="translate(1595.556641 0)"/>
     <use xlink:href="#DejaVuSerif-6f" transform="translate(1683.056641 0)"/>
     <use xlink:href="#DejaVuSerif-72" transform="translate(1743.261719 0)"/>
     <use xlink:href="#DejaVuSerif-6d" transform="translate(1791.064453 0)"/>
    </g>
    <!--  mnn = 7 thresh = 0, summation = mean -->
    <g transform="translate(30.186875 35.450625) scale(0.12 -0.12)">
     <defs>
      <path id="DejaVuSerif-3d" d="M 678 2894 
L 4684 2894 
L 4684 2394 
L 678 2394 
L 678 2894 
z
M 678 1619 
L 4684 1619 
L 4684 1119 
L 678 1119 
L 678 1619 
z
" transform="scale(0.015625)"/>
      <path id="DejaVuSerif-37" d="M 3609 4347 
L 1784 0 
L 1319 0 
L 3059 4153 
L 903 4153 
L 903 3578 
L 538 3578 
L 538 4666 
L 3609 4666 
L 3609 4347 
z
" transform="scale(0.015625)"/>
      <path id="DejaVuSerif-68" d="M 263 0 
L 263 331 
L 781 331 
L 781 4531 
L 231 4531 
L 231 4863 
L 1356 4863 
L 1356 2731 
Q 1516 3069 1770 3241 
Q 2025 3413 2363 3413 
Q 2913 3413 3172 3097 
Q 3431 2781 3431 2113 
L 3431 331 
L 3944 331 
L 3944 0 
L 2356 0 
L 2356 331 
L 2853 331 
L 2853 1931 
Q 2853 2541 2704 2764 
Q 2556 2988 2175 2988 
Q 1775 2988 1565 2697 
Q 1356 2406 1356 1850 
L 1356 331 
L 1856 331 
L 1856 0 
L 263 0 
z
" transform="scale(0.015625)"/>
      <path id="DejaVuSerif-2c" d="M 231 -622 
Q 525 -406 662 -114 
Q 800 178 800 594 
L 800 709 
L 1416 709 
Q 1391 175 1164 -208 
Q 938 -591 481 -872 
L 231 -622 
z
" transform="scale(0.015625)"/>
     </defs>
     <use xlink:href="#DejaVuSerif-20"/>
     <use xlink:href="#DejaVuSerif-6d" transform="translate(31.787109 0)"/>
     <use xlink:href="#DejaVuSerif-6e" transform="translate(126.611328 0)"/>
     <use xlink:href="#DejaVuSerif-6e" transform="translate(191.015625 0)"/>
     <use xlink:href="#DejaVuSerif-20" transform="translate(255.419922 0)"/>
     <use xlink:href="#DejaVuSerif-3d" transform="translate(287.207031 0)"/>
     <use xlink:href="#DejaVuSerif-20" transform="translate(370.996094 0)"/>
     <use xlink:href="#DejaVuSerif-37" transform="translate(402.783203 0)"/>
     <use xlink:href="#DejaVuSerif-20" transform="translate(466.40625 0)"/>
     <use xlink:href="#DejaVuSerif-74" transform="translate(498.193359 0)"/>
     <use xlink:href="#DejaVuSerif-68" transform="translate(538.378906 0)"/>
     <use xlink:href="#DejaVuSerif-72" transform="translate(602.783203 0)"/>
     <use xlink:href="#DejaVuSerif-65" transform="translate(650.585938 0)"/>
     <use xlink:href="#DejaVuSerif-73" transform="translate(709.765625 0)"/>
     <use xlink:href="#DejaVuSerif-68" transform="translate(761.083984 0)"/>
     <use xlink:href="#DejaVuSerif-20" transform="translate(825.488281 0)"/>
     <use xlink:href="#DejaVuSerif-3d" transform="translate(857.275391 0)"/>
     <use xlink:href="#DejaVuSerif-20" transform="translate(941.064453 0)"/>
     <use xlink:href="#DejaVuSerif-30" transform="translate(972.851562 0)"/>
     <use xlink:href="#DejaVuSerif-2c" transform="translate(1036.474609 0)"/>
     <use xlink:href="#DejaVuSerif-20" transform="translate(1068.261719 0)"/>
     <use xlink:href="#DejaVuSerif-73" transform="translate(1100.048828 0)"/>
     <use xlink:href="#DejaVuSerif-75" transform="translate(1151.367188 0)"/>
     <use xlink:href="#DejaVuSerif-6d" transform="translate(1215.771484 0)"/>
     <use xlink:href="#DejaVuSerif-6d" transform="translate(1310.595703 0)"/>
     <use xlink:href="#DejaVuSerif-61" transform="translate(1405.419922 0)"/>
     <use xlink:href="#DejaVuSerif-74" transform="translate(1465.039062 0)"/>
     <use xlink:href="#DejaVuSerif-69" transform="translate(1505.224609 0)"/>
     <use xlink:href="#DejaVuSerif-6f" transform="translate(1537.207031 0)"/>
     <use xlink:href="#DejaVuSerif-6e" transform="translate(1597.412109 0)"/>
     <use xlink:href="#DejaVuSerif-20" transform="translate(1661.816406 0)"/>
     <use xlink:href="#DejaVuSerif-3d" transform="translate(1693.603516 0)"/>
     <use xlink:href="#DejaVuSerif-20" transform="translate(1777.392578 0)"/>
     <use xlink:href="#DejaVuSerif-6d" transform="translate(1809.179688 0)"/>
     <use xlink:href="#DejaVuSerif-65" transform="translate(1904.003906 0)"/>
     <use xlink:href="#DejaVuSerif-61" transform="translate(1963.183594 0)"/>
     <use xlink:href="#DejaVuSerif-6e" transform="translate(2022.802734 0)"/>
    </g>
    <!--  norm. = CV logscale = False -->
    <g transform="translate(66.314375 48.888) scale(0.12 -0.12)">
     <defs>
      <path id="DejaVuSerif-43" d="M 4513 1234 
Q 4306 581 3820 245 
Q 3334 -91 2591 -91 
Q 2134 -91 1743 65 
Q 1353 222 1050 525 
Q 700 875 529 1320 
Q 359 1766 359 2328 
Q 359 3416 987 4083 
Q 1616 4750 2644 4750 
Q 3025 4750 3456 4650 
Q 3888 4550 4384 4347 
L 4384 3272 
L 4031 3272 
Q 3916 3859 3567 4137 
Q 3219 4416 2591 4416 
Q 1844 4416 1459 3886 
Q 1075 3356 1075 2328 
Q 1075 1303 1459 773 
Q 1844 244 2591 244 
Q 3113 244 3450 492 
Q 3788 741 3938 1234 
L 4513 1234 
z
" transform="scale(0.015625)"/>
      <path id="DejaVuSerif-56" d="M 1119 4331 
L 2497 750 
L 3872 4331 
L 3347 4331 
L 3347 4666 
L 4716 4666 
L 4716 4331 
L 4263 4331 
L 2597 0 
L 2059 0 
L 403 4331 
L -63 4331 
L -63 4666 
L 1638 4666 
L 1638 4331 
L 1119 4331 
z
" transform="scale(0.015625)"/>
      <path id="DejaVuSerif-6c" d="M 1313 331 
L 1856 331 
L 1856 0 
L 184 0 
L 184 331 
L 738 331 
L 738 4531 
L 184 4531 
L 184 4863 
L 1313 4863 
L 1313 331 
z
" transform="scale(0.015625)"/>
      <path id="DejaVuSerif-67" d="M 3359 2988 
L 3359 72 
Q 3359 -644 2965 -1033 
Q 2572 -1422 1844 -1422 
Q 1516 -1422 1216 -1362 
Q 916 -1303 641 -1184 
L 641 -488 
L 941 -488 
Q 997 -813 1206 -963 
Q 1416 -1113 1806 -1113 
Q 2313 -1113 2548 -827 
Q 2784 -541 2784 72 
L 2784 519 
Q 2616 206 2355 57 
Q 2094 -91 1709 -91 
Q 1097 -91 708 395 
Q 319 881 319 1663 
Q 319 2444 706 2928 
Q 1094 3413 1709 3413 
Q 2094 3413 2355 3264 
Q 2616 3116 2784 2803 
L 2784 3322 
L 3909 3322 
L 3909 2988 
L 3359 2988 
z
M 2784 1825 
Q 2784 2422 2554 2737 
Q 2325 3053 1888 3053 
Q 1444 3053 1217 2703 
Q 991 2353 991 1663 
Q 991 975 1217 622 
Q 1444 269 1888 269 
Q 2325 269 2554 583 
Q 2784 897 2784 1497 
L 2784 1825 
z
" transform="scale(0.015625)"/>
      <path id="DejaVuSerif-63" d="M 3291 997 
Q 3169 466 2822 187 
Q 2475 -91 1925 -91 
Q 1200 -91 759 389 
Q 319 869 319 1663 
Q 319 2459 759 2936 
Q 1200 3413 1925 3413 
Q 2241 3413 2553 3339 
Q 2866 3266 3181 3116 
L 3181 2266 
L 2847 2266 
Q 2781 2703 2561 2903 
Q 2341 3103 1931 3103 
Q 1466 3103 1228 2742 
Q 991 2381 991 1663 
Q 991 944 1227 581 
Q 1463 219 1931 219 
Q 2303 219 2525 412 
Q 2747 606 2828 997 
L 3291 997 
z
" transform="scale(0.015625)"/>
      <path id="DejaVuSerif-46" d="M 353 0 
L 353 331 
L 947 331 
L 947 4331 
L 353 4331 
L 353 4666 
L 4172 4666 
L 4172 3628 
L 3788 3628 
L 3788 4281 
L 1581 4281 
L 1581 2719 
L 3175 2719 
L 3175 3303 
L 3559 3303 
L 3559 1753 
L 3175 1753 
L 3175 2338 
L 1581 2338 
L 1581 331 
L 2328 331 
L 2328 0 
L 353 0 
z
" transform="scale(0.015625)"/>
     </defs>
     <use xlink:href="#DejaVuSerif-20"/>
     <use xlink:href="#DejaVuSerif-6e" transform="translate(31.787109 0)"/>
     <use xlink:href="#DejaVuSerif-6f" transform="translate(96.191406 0)"/>
     <use xlink:href="#DejaVuSerif-72" transform="translate(156.396484 0)"/>
     <use xlink:href="#DejaVuSerif-6d" transform="translate(204.199219 0)"/>
     <use xlink:href="#DejaVuSerif-2e" transform="translate(299.023438 0)"/>
     <use xlink:href="#DejaVuSerif-20" transform="translate(330.810547 0)"/>
     <use xlink:href="#DejaVuSerif-3d" transform="translate(362.597656 0)"/>
     <use xlink:href="#DejaVuSerif-20" transform="translate(446.386719 0)"/>
     <use xlink:href="#DejaVuSerif-43" transform="translate(478.173828 0)"/>
     <use xlink:href="#DejaVuSerif-56" transform="translate(554.6875 0)"/>
     <use xlink:href="#DejaVuSerif-20" transform="translate(626.904297 0)"/>
     <use xlink:href="#DejaVuSerif-6c" transform="translate(658.691406 0)"/>
     <use xlink:href="#DejaVuSerif-6f" transform="translate(690.673828 0)"/>
     <use xlink:href="#DejaVuSerif-67" transform="translate(750.878906 0)"/>
     <use xlink:href="#DejaVuSerif-73" transform="translate(814.892578 0)"/>
     <use xlink:href="#DejaVuSerif-63" transform="translate(866.210938 0)"/>
     <use xlink:href="#DejaVuSerif-61" transform="translate(922.216797 0)"/>
     <use xlink:href="#DejaVuSerif-6c" transform="translate(981.835938 0)"/>
     <use xlink:href="#DejaVuSerif-65" transform="translate(1013.818359 0)"/>
     <use xlink:href="#DejaVuSerif-20" transform="translate(1072.998047 0)"/>
     <use xlink:href="#DejaVuSerif-3d" transform="translate(1104.785156 0)"/>
     <use xlink:href="#DejaVuSerif-20" transform="translate(1188.574219 0)"/>
     <use xlink:href="#DejaVuSerif-46" transform="translate(1220.361328 0)"/>
     <use xlink:href="#DejaVuSerif-61" transform="translate(1282.996094 0)"/>
     <use xlink:href="#DejaVuSerif-6c" transform="translate(1342.615234 0)"/>
     <use xlink:href="#DejaVuSerif-73" transform="translate(1374.597656 0)"/>
     <use xlink:href="#DejaVuSerif-65" transform="translate(1425.916016 0)"/>
    </g>
    <!--  permutation test on the median. -->
    <g transform="translate(55.170313 62.496) scale(0.12 -0.12)">
     <use xlink:href="#DejaVuSerif-20"/>
     <use xlink:href="#DejaVuSerif-70" transform="translate(31.787109 0)"/>
     <use xlink:href="#DejaVuSerif-65" transform="translate(95.800781 0)"/>
     <use xlink:href="#DejaVuSerif-72" transform="translate(154.980469 0)"/>
     <use xlink:href="#DejaVuSerif-6d" transform="translate(202.783203 0)"/>
     <use xlink:href="#DejaVuSerif-75" transform="translate(297.607422 0)"/>
     <use xlink:href="#DejaVuSerif-74" transform="translate(362.011719 0)"/>
     <use xlink:href="#DejaVuSerif-61" transform="translate(402.197266 0)"/>
     <use xlink:href="#DejaVuSerif-74" transform="translate(461.816406 0)"/>
     <use xlink:href="#DejaVuSerif-69" transform="translate(502.001953 0)"/>
     <use xlink:href="#DejaVuSerif-6f" transform="translate(533.984375 0)"/>
     <use xlink:href="#DejaVuSerif-6e" transform="translate(594.189453 0)"/>
     <use xlink:href="#DejaVuSerif-20" transform="translate(658.59375 0)"/>
     <use xlink:href="#DejaVuSerif-74" transform="translate(690.380859 0)"/>
     <use xlink:href="#DejaVuSerif-65" transform="translate(730.566406 0)"/>
     <use xlink:href="#DejaVuSerif-73" transform="translate(789.746094 0)"/>
     <use xlink:href="#DejaVuSerif-74" transform="translate(841.064453 0)"/>
     <use xlink:href="#DejaVuSerif-20" transform="translate(881.25 0)"/>
     <use xlink:href="#DejaVuSerif-6f" transform="translate(913.037109 0)"/>
     <use xlink:href="#DejaVuSerif-6e" transform="translate(973.242188 0)"/>
     <use xlink:href="#DejaVuSerif-20" transform="translate(1037.646484 0)"/>
     <use xlink:href="#DejaVuSerif-74" transform="translate(1069.433594 0)"/>
     <use xlink:href="#DejaVuSerif-68" transform="translate(1109.619141 0)"/>
     <use xlink:href="#DejaVuSerif-65" transform="translate(1174.023438 0)"/>
     <use xlink:href="#DejaVuSerif-20" transform="translate(1233.203125 0)"/>
     <use xlink:href="#DejaVuSerif-6d" transform="translate(1264.990234 0)"/>
     <use xlink:href="#DejaVuSerif-65" transform="translate(1359.814453 0)"/>
     <use xlink:href="#DejaVuSerif-64" transform="translate(1418.994141 0)"/>
     <use xlink:href="#DejaVuSerif-69" transform="translate(1483.007812 0)"/>
     <use xlink:href="#DejaVuSerif-61" transform="translate(1514.990234 0)"/>
     <use xlink:href="#DejaVuSerif-6e" transform="translate(1574.609375 0)"/>
     <use xlink:href="#DejaVuSerif-2e" transform="translate(1639.013672 0)"/>
    </g>
   </g>
  </g>
 </g>
 <defs>
  <clipPath id="p19742db60a">
   <rect x="33.64" y="68.496" width="243.56" height="335.624"/>
  </clipPath>
 </defs>
</svg>
