<?xml version="1.0" encoding="utf-8" standalone="no"?>
<!DOCTYPE svg PUBLIC "-//W3C//DTD SVG 1.1//EN"
  "http://www.w3.org/Graphics/SVG/1.1/DTD/svg11.dtd">
<svg xmlns:xlink="http://www.w3.org/1999/xlink" width="288pt" height="432pt" viewBox="0 0 288 432" xmlns="http://www.w3.org/2000/svg" version="1.1">
 <metadata>
  <rdf:RDF xmlns:dc="http://purl.org/dc/elements/1.1/" xmlns:cc="http://creativecommons.org/ns#" xmlns:rdf="http://www.w3.org/1999/02/22-rdf-syntax-ns#">
   <cc:Work>
    <dc:type rdf:resource="http://purl.org/dc/dcmitype/StillImage"/>
    <dc:date>2025-08-18T15:30:26.522727</dc:date>
    <dc:format>image/svg+xml</dc:format>
    <dc:creator>
     <cc:Agent>
      <dc:title>Matplotlib v3.10.0, https://matplotlib.org/</dc:title>
     </cc:Agent>
    </dc:creator>
   </cc:Work>
  </rdf:RDF>
 </metadata>
 <defs>
  <style type="text/css">*{stroke-linejoin: round; stroke-linecap: butt}</style>
 </defs>
 <g id="figure_1">
  <g id="patch_1">
   <path d="M 0 432 
L 288 432 
L 288 0 
L 0 0 
z
" style="fill: #ffffff"/>
  </g>
  <g id="axes_1">
   <g id="patch_2">
    <path d="M 33.64 404.12 
L 277.2 404.12 
L 277.2 68.496 
L 33.64 68.496 
z
" style="fill: #ffffff"/>
   </g>
   <g id="PathCollection_1">
    <defs>
     <path id="C0_0_5c405e5049" d="M 0 3.872983 
C 1.027127 3.872983 2.012324 3.464901 2.738613 2.738613 
C 3.464901 2.012324 3.872983 1.027127 3.872983 -0 
C 3.872983 -1.027127 3.464901 -2.012324 2.738613 -2.738613 
C 2.012324 -3.464901 1.027127 -3.872983 0 -3.872983 
C -1.027127 -3.872983 -2.012324 -3.464901 -2.738613 -2.738613 
C -3.464901 -2.012324 -3.872983 -1.027127 -3.872983 0 
C -3.872983 1.027127 -3.464901 2.012324 -2.738613 2.738613 
C -2.012324 3.464901 -1.027127 3.872983 0 3.872983 
z
"/>
    </defs>
    <g clip-path="url(#pf7a49423c2)">
     <use xlink:href="#C0_0_5c405e5049" x="83.759663" y="356.400169" style="fill: #0000ff; fill-opacity: 0.4"/>
    </g>
    <g clip-path="url(#pf7a49423c2)">
     <use xlink:href="#C0_0_5c405e5049" x="85.296596" y="349.495427" style="fill: #0000ff; fill-opacity: 0.4"/>
    </g>
    <g clip-path="url(#pf7a49423c2)">
     <use xlink:href="#C0_0_5c405e5049" x="89.28622" y="334.159187" style="fill: #0000ff; fill-opacity: 0.4"/>
    </g>
    <g clip-path="url(#pf7a49423c2)">
     <use xlink:href="#C0_0_5c405e5049" x="91.78229" y="327.687569" style="fill: #0000ff; fill-opacity: 0.4"/>
    </g>
    <g clip-path="url(#pf7a49423c2)">
     <use xlink:href="#C0_0_5c405e5049" x="97.441287" y="326.901553" style="fill: #0000ff; fill-opacity: 0.4"/>
    </g>
    <g clip-path="url(#pf7a49423c2)">
     <use xlink:href="#C0_0_5c405e5049" x="90.545591" y="348.040807" style="fill: #0000ff; fill-opacity: 0.4"/>
    </g>
    <g clip-path="url(#pf7a49423c2)">
     <use xlink:href="#C0_0_5c405e5049" x="89.022136" y="358.389896" style="fill: #0000ff; fill-opacity: 0.4"/>
    </g>
    <g clip-path="url(#pf7a49423c2)">
     <use xlink:href="#C0_0_5c405e5049" x="96.915754" y="351.156819" style="fill: #0000ff; fill-opacity: 0.4"/>
    </g>
    <g clip-path="url(#pf7a49423c2)">
     <use xlink:href="#C0_0_5c405e5049" x="94.309847" y="330.916816" style="fill: #0000ff; fill-opacity: 0.4"/>
    </g>
    <g clip-path="url(#pf7a49423c2)">
     <use xlink:href="#C0_0_5c405e5049" x="99.202081" y="339.284932" style="fill: #0000ff; fill-opacity: 0.4"/>
    </g>
    <g clip-path="url(#pf7a49423c2)">
     <use xlink:href="#C0_0_5c405e5049" x="93.551767" y="365.332883" style="fill: #0000ff; fill-opacity: 0.4"/>
    </g>
    <g clip-path="url(#pf7a49423c2)">
     <use xlink:href="#C0_0_5c405e5049" x="100.610361" y="363.649502" style="fill: #0000ff; fill-opacity: 0.4"/>
    </g>
    <g clip-path="url(#pf7a49423c2)">
     <use xlink:href="#C0_0_5c405e5049" x="92.744492" y="271.021164" style="fill: #0000ff; fill-opacity: 0.4"/>
    </g>
    <g clip-path="url(#pf7a49423c2)">
     <use xlink:href="#C0_0_5c405e5049" x="92.174915" y="310.400386" style="fill: #0000ff; fill-opacity: 0.4"/>
    </g>
    <g clip-path="url(#pf7a49423c2)">
     <use xlink:href="#C0_0_5c405e5049" x="93.581631" y="301.841461" style="fill: #0000ff; fill-opacity: 0.4"/>
    </g>
    <g clip-path="url(#pf7a49423c2)">
     <use xlink:href="#C0_0_5c405e5049" x="95.338712" y="303.435724" style="fill: #0000ff; fill-opacity: 0.4"/>
    </g>
    <g clip-path="url(#pf7a49423c2)">
     <use xlink:href="#C0_0_5c405e5049" x="92.08233" y="367.945882" style="fill: #0000ff; fill-opacity: 0.4"/>
    </g>
    <g clip-path="url(#pf7a49423c2)">
     <use xlink:href="#C0_0_5c405e5049" x="89.589979" y="388.864364" style="fill: #0000ff; fill-opacity: 0.4"/>
    </g>
    <g clip-path="url(#pf7a49423c2)">
     <use xlink:href="#C0_0_5c405e5049" x="98.963354" y="380.248645" style="fill: #0000ff; fill-opacity: 0.4"/>
    </g>
    <g clip-path="url(#pf7a49423c2)">
     <use xlink:href="#C0_0_5c405e5049" x="96.105026" y="375.106525" style="fill: #0000ff; fill-opacity: 0.4"/>
    </g>
    <g clip-path="url(#pf7a49423c2)">
     <use xlink:href="#C0_0_5c405e5049" x="105.81676" y="358.103842" style="fill: #0000ff; fill-opacity: 0.4"/>
    </g>
    <g clip-path="url(#pf7a49423c2)">
     <use xlink:href="#C0_0_5c405e5049" x="93.394745" y="315.150292" style="fill: #0000ff; fill-opacity: 0.4"/>
    </g>
    <g clip-path="url(#pf7a49423c2)">
     <use xlink:href="#C0_0_5c405e5049" x="100.655961" y="345.867461" style="fill: #0000ff; fill-opacity: 0.4"/>
    </g>
    <g clip-path="url(#pf7a49423c2)">
     <use xlink:href="#C0_0_5c405e5049" x="96.264807" y="186.103782" style="fill: #0000ff; fill-opacity: 0.4"/>
    </g>
    <g clip-path="url(#pf7a49423c2)">
     <use xlink:href="#C0_0_5c405e5049" x="94.183425" y="215.500529" style="fill: #0000ff; fill-opacity: 0.4"/>
    </g>
    <g clip-path="url(#pf7a49423c2)">
     <use xlink:href="#C0_0_5c405e5049" x="97.307724" y="317.901366" style="fill: #0000ff; fill-opacity: 0.4"/>
    </g>
    <g clip-path="url(#pf7a49423c2)">
     <use xlink:href="#C0_0_5c405e5049" x="98.220046" y="299.165698" style="fill: #0000ff; fill-opacity: 0.4"/>
    </g>
    <g clip-path="url(#pf7a49423c2)">
     <use xlink:href="#C0_0_5c405e5049" x="100.112465" y="316.04644" style="fill: #0000ff; fill-opacity: 0.4"/>
    </g>
   </g>
   <g id="PathCollection_2">
    <defs>
     <path id="C1_0_b3392c09bd" d="M 0 3.872983 
C 1.027127 3.872983 2.012324 3.464901 2.738613 2.738613 
C 3.464901 2.012324 3.872983 1.027127 3.872983 -0 
C 3.872983 -1.027127 3.464901 -2.012324 2.738613 -2.738613 
C 2.012324 -3.464901 1.027127 -3.872983 0 -3.872983 
C -1.027127 -3.872983 -2.012324 -3.464901 -2.738613 -2.738613 
C -3.464901 -2.012324 -3.872983 -1.027127 -3.872983 0 
C -3.872983 1.027127 -3.464901 2.012324 -2.738613 2.738613 
C -2.012324 3.464901 -1.027127 3.872983 0 3.872983 
z
"/>
    </defs>
    <g clip-path="url(#pf7a49423c2)">
     <use xlink:href="#C1_0_b3392c09bd" x="140.486751" y="329.197233" style="fill: #808080; fill-opacity: 0.4"/>
    </g>
    <g clip-path="url(#pf7a49423c2)">
     <use xlink:href="#C1_0_b3392c09bd" x="151.960448" y="282.710824" style="fill: #808080; fill-opacity: 0.4"/>
    </g>
    <g clip-path="url(#pf7a49423c2)">
     <use xlink:href="#C1_0_b3392c09bd" x="147.482858" y="353.47619" style="fill: #808080; fill-opacity: 0.4"/>
    </g>
    <g clip-path="url(#pf7a49423c2)">
     <use xlink:href="#C1_0_b3392c09bd" x="135.405633" y="312.890973" style="fill: #808080; fill-opacity: 0.4"/>
    </g>
    <g clip-path="url(#pf7a49423c2)">
     <use xlink:href="#C1_0_b3392c09bd" x="146.887688" y="344.770071" style="fill: #808080; fill-opacity: 0.4"/>
    </g>
    <g clip-path="url(#pf7a49423c2)">
     <use xlink:href="#C1_0_b3392c09bd" x="147.307513" y="337.798173" style="fill: #808080; fill-opacity: 0.4"/>
    </g>
    <g clip-path="url(#pf7a49423c2)">
     <use xlink:href="#C1_0_b3392c09bd" x="151.026448" y="335.406246" style="fill: #808080; fill-opacity: 0.4"/>
    </g>
    <g clip-path="url(#pf7a49423c2)">
     <use xlink:href="#C1_0_b3392c09bd" x="140.031114" y="265.866423" style="fill: #808080; fill-opacity: 0.4"/>
    </g>
    <g clip-path="url(#pf7a49423c2)">
     <use xlink:href="#C1_0_b3392c09bd" x="140.953769" y="320.752541" style="fill: #808080; fill-opacity: 0.4"/>
    </g>
    <g clip-path="url(#pf7a49423c2)">
     <use xlink:href="#C1_0_b3392c09bd" x="144.459417" y="273.760522" style="fill: #808080; fill-opacity: 0.4"/>
    </g>
    <g clip-path="url(#pf7a49423c2)">
     <use xlink:href="#C1_0_b3392c09bd" x="143.783963" y="313.04095" style="fill: #808080; fill-opacity: 0.4"/>
    </g>
    <g clip-path="url(#pf7a49423c2)">
     <use xlink:href="#C1_0_b3392c09bd" x="142.610856" y="304.146296" style="fill: #808080; fill-opacity: 0.4"/>
    </g>
    <g clip-path="url(#pf7a49423c2)">
     <use xlink:href="#C1_0_b3392c09bd" x="147.180883" y="318.683861" style="fill: #808080; fill-opacity: 0.4"/>
    </g>
    <g clip-path="url(#pf7a49423c2)">
     <use xlink:href="#C1_0_b3392c09bd" x="155.446908" y="339.103279" style="fill: #808080; fill-opacity: 0.4"/>
    </g>
    <g clip-path="url(#pf7a49423c2)">
     <use xlink:href="#C1_0_b3392c09bd" x="157.231925" y="337.157427" style="fill: #808080; fill-opacity: 0.4"/>
    </g>
    <g clip-path="url(#pf7a49423c2)">
     <use xlink:href="#C1_0_b3392c09bd" x="153.212152" y="317.848143" style="fill: #808080; fill-opacity: 0.4"/>
    </g>
    <g clip-path="url(#pf7a49423c2)">
     <use xlink:href="#C1_0_b3392c09bd" x="148.535572" y="289.869358" style="fill: #808080; fill-opacity: 0.4"/>
    </g>
    <g clip-path="url(#pf7a49423c2)">
     <use xlink:href="#C1_0_b3392c09bd" x="143.301838" y="329.856548" style="fill: #808080; fill-opacity: 0.4"/>
    </g>
    <g clip-path="url(#pf7a49423c2)">
     <use xlink:href="#C1_0_b3392c09bd" x="148.07376" y="269.044994" style="fill: #808080; fill-opacity: 0.4"/>
    </g>
    <g clip-path="url(#pf7a49423c2)">
     <use xlink:href="#C1_0_b3392c09bd" x="146.748128" y="307.644371" style="fill: #808080; fill-opacity: 0.4"/>
    </g>
    <g clip-path="url(#pf7a49423c2)">
     <use xlink:href="#C1_0_b3392c09bd" x="157.477803" y="320.702172" style="fill: #808080; fill-opacity: 0.4"/>
    </g>
    <g clip-path="url(#pf7a49423c2)">
     <use xlink:href="#C1_0_b3392c09bd" x="160.096317" y="319.393681" style="fill: #808080; fill-opacity: 0.4"/>
    </g>
    <g clip-path="url(#pf7a49423c2)">
     <use xlink:href="#C1_0_b3392c09bd" x="151.531926" y="350.579463" style="fill: #808080; fill-opacity: 0.4"/>
    </g>
    <g clip-path="url(#pf7a49423c2)">
     <use xlink:href="#C1_0_b3392c09bd" x="143.035781" y="369.494084" style="fill: #808080; fill-opacity: 0.4"/>
    </g>
    <g clip-path="url(#pf7a49423c2)">
     <use xlink:href="#C1_0_b3392c09bd" x="163.832231" y="341.044933" style="fill: #808080; fill-opacity: 0.4"/>
    </g>
    <g clip-path="url(#pf7a49423c2)">
     <use xlink:href="#C1_0_b3392c09bd" x="144.704807" y="361.470574" style="fill: #808080; fill-opacity: 0.4"/>
    </g>
    <g clip-path="url(#pf7a49423c2)">
     <use xlink:href="#C1_0_b3392c09bd" x="146.312648" y="332.032636" style="fill: #808080; fill-opacity: 0.4"/>
    </g>
    <g clip-path="url(#pf7a49423c2)">
     <use xlink:href="#C1_0_b3392c09bd" x="153.255217" y="333.685814" style="fill: #808080; fill-opacity: 0.4"/>
    </g>
    <g clip-path="url(#pf7a49423c2)">
     <use xlink:href="#C1_0_b3392c09bd" x="150.85988" y="303.83127" style="fill: #808080; fill-opacity: 0.4"/>
    </g>
    <g clip-path="url(#pf7a49423c2)">
     <use xlink:href="#C1_0_b3392c09bd" x="152.46798" y="173.352645" style="fill: #808080; fill-opacity: 0.4"/>
    </g>
    <g clip-path="url(#pf7a49423c2)">
     <use xlink:href="#C1_0_b3392c09bd" x="153.390261" y="142.374845" style="fill: #808080; fill-opacity: 0.4"/>
    </g>
    <g clip-path="url(#pf7a49423c2)">
     <use xlink:href="#C1_0_b3392c09bd" x="153.3298" y="251.053414" style="fill: #808080; fill-opacity: 0.4"/>
    </g>
    <g clip-path="url(#pf7a49423c2)">
     <use xlink:href="#C1_0_b3392c09bd" x="154.89314" y="175.677324" style="fill: #808080; fill-opacity: 0.4"/>
    </g>
    <g clip-path="url(#pf7a49423c2)">
     <use xlink:href="#C1_0_b3392c09bd" x="151.298168" y="222.557256" style="fill: #808080; fill-opacity: 0.4"/>
    </g>
    <g clip-path="url(#pf7a49423c2)">
     <use xlink:href="#C1_0_b3392c09bd" x="145.937517" y="261.547144" style="fill: #808080; fill-opacity: 0.4"/>
    </g>
    <g clip-path="url(#pf7a49423c2)">
     <use xlink:href="#C1_0_b3392c09bd" x="161.70795" y="313.024762" style="fill: #808080; fill-opacity: 0.4"/>
    </g>
    <g clip-path="url(#pf7a49423c2)">
     <use xlink:href="#C1_0_b3392c09bd" x="156.874521" y="281.56572" style="fill: #808080; fill-opacity: 0.4"/>
    </g>
    <g clip-path="url(#pf7a49423c2)">
     <use xlink:href="#C1_0_b3392c09bd" x="151.402332" y="270.239436" style="fill: #808080; fill-opacity: 0.4"/>
    </g>
    <g clip-path="url(#pf7a49423c2)">
     <use xlink:href="#C1_0_b3392c09bd" x="166.356672" y="312.333147" style="fill: #808080; fill-opacity: 0.4"/>
    </g>
    <g clip-path="url(#pf7a49423c2)">
     <use xlink:href="#C1_0_b3392c09bd" x="154.185157" y="309.504657" style="fill: #808080; fill-opacity: 0.4"/>
    </g>
    <g clip-path="url(#pf7a49423c2)">
     <use xlink:href="#C1_0_b3392c09bd" x="164.263734" y="341.875332" style="fill: #808080; fill-opacity: 0.4"/>
    </g>
    <g clip-path="url(#pf7a49423c2)">
     <use xlink:href="#C1_0_b3392c09bd" x="149.149526" y="360.588773" style="fill: #808080; fill-opacity: 0.4"/>
    </g>
    <g clip-path="url(#pf7a49423c2)">
     <use xlink:href="#C1_0_b3392c09bd" x="152.699464" y="292.52827" style="fill: #808080; fill-opacity: 0.4"/>
    </g>
    <g clip-path="url(#pf7a49423c2)">
     <use xlink:href="#C1_0_b3392c09bd" x="153.769982" y="360.735547" style="fill: #808080; fill-opacity: 0.4"/>
    </g>
    <g clip-path="url(#pf7a49423c2)">
     <use xlink:href="#C1_0_b3392c09bd" x="157.097084" y="362.869885" style="fill: #808080; fill-opacity: 0.4"/>
    </g>
    <g clip-path="url(#pf7a49423c2)">
     <use xlink:href="#C1_0_b3392c09bd" x="161.668083" y="363.153443" style="fill: #808080; fill-opacity: 0.4"/>
    </g>
    <g clip-path="url(#pf7a49423c2)">
     <use xlink:href="#C1_0_b3392c09bd" x="163.110596" y="367.32448" style="fill: #808080; fill-opacity: 0.4"/>
    </g>
    <g clip-path="url(#pf7a49423c2)">
     <use xlink:href="#C1_0_b3392c09bd" x="155.139554" y="347.074862" style="fill: #808080; fill-opacity: 0.4"/>
    </g>
    <g clip-path="url(#pf7a49423c2)">
     <use xlink:href="#C1_0_b3392c09bd" x="156.156466" y="350.89548" style="fill: #808080; fill-opacity: 0.4"/>
    </g>
    <g clip-path="url(#pf7a49423c2)">
     <use xlink:href="#C1_0_b3392c09bd" x="162.454348" y="354.230574" style="fill: #808080; fill-opacity: 0.4"/>
    </g>
    <g clip-path="url(#pf7a49423c2)">
     <use xlink:href="#C1_0_b3392c09bd" x="169.285315" y="358.820762" style="fill: #808080; fill-opacity: 0.4"/>
    </g>
    <g clip-path="url(#pf7a49423c2)">
     <use xlink:href="#C1_0_b3392c09bd" x="149.504573" y="255.381503" style="fill: #808080; fill-opacity: 0.4"/>
    </g>
    <g clip-path="url(#pf7a49423c2)">
     <use xlink:href="#C1_0_b3392c09bd" x="156.049589" y="292.15231" style="fill: #808080; fill-opacity: 0.4"/>
    </g>
    <g clip-path="url(#pf7a49423c2)">
     <use xlink:href="#C1_0_b3392c09bd" x="159.436991" y="308.173614" style="fill: #808080; fill-opacity: 0.4"/>
    </g>
    <g clip-path="url(#pf7a49423c2)">
     <use xlink:href="#C1_0_b3392c09bd" x="155.128055" y="331.044636" style="fill: #808080; fill-opacity: 0.4"/>
    </g>
    <g clip-path="url(#pf7a49423c2)">
     <use xlink:href="#C1_0_b3392c09bd" x="153.449822" y="218.906482" style="fill: #808080; fill-opacity: 0.4"/>
    </g>
    <g clip-path="url(#pf7a49423c2)">
     <use xlink:href="#C1_0_b3392c09bd" x="157.310202" y="177.814949" style="fill: #808080; fill-opacity: 0.4"/>
    </g>
    <g clip-path="url(#pf7a49423c2)">
     <use xlink:href="#C1_0_b3392c09bd" x="158.799379" y="331.027977" style="fill: #808080; fill-opacity: 0.4"/>
    </g>
    <g clip-path="url(#pf7a49423c2)">
     <use xlink:href="#C1_0_b3392c09bd" x="152.845412" y="210.027097" style="fill: #808080; fill-opacity: 0.4"/>
    </g>
    <g clip-path="url(#pf7a49423c2)">
     <use xlink:href="#C1_0_b3392c09bd" x="161.791167" y="224.679169" style="fill: #808080; fill-opacity: 0.4"/>
    </g>
    <g clip-path="url(#pf7a49423c2)">
     <use xlink:href="#C1_0_b3392c09bd" x="153.992357" y="201.402699" style="fill: #808080; fill-opacity: 0.4"/>
    </g>
    <g clip-path="url(#pf7a49423c2)">
     <use xlink:href="#C1_0_b3392c09bd" x="153.674723" y="241.454346" style="fill: #808080; fill-opacity: 0.4"/>
    </g>
    <g clip-path="url(#pf7a49423c2)">
     <use xlink:href="#C1_0_b3392c09bd" x="156.037961" y="240.963711" style="fill: #808080; fill-opacity: 0.4"/>
    </g>
    <g clip-path="url(#pf7a49423c2)">
     <use xlink:href="#C1_0_b3392c09bd" x="154.766746" y="268.626798" style="fill: #808080; fill-opacity: 0.4"/>
    </g>
    <g clip-path="url(#pf7a49423c2)">
     <use xlink:href="#C1_0_b3392c09bd" x="154.978812" y="261.54506" style="fill: #808080; fill-opacity: 0.4"/>
    </g>
    <g clip-path="url(#pf7a49423c2)">
     <use xlink:href="#C1_0_b3392c09bd" x="159.643362" y="258.078815" style="fill: #808080; fill-opacity: 0.4"/>
    </g>
    <g clip-path="url(#pf7a49423c2)">
     <use xlink:href="#C1_0_b3392c09bd" x="155.035006" y="156.377984" style="fill: #808080; fill-opacity: 0.4"/>
    </g>
    <g clip-path="url(#pf7a49423c2)">
     <use xlink:href="#C1_0_b3392c09bd" x="158.078313" y="212.071155" style="fill: #808080; fill-opacity: 0.4"/>
    </g>
    <g clip-path="url(#pf7a49423c2)">
     <use xlink:href="#C1_0_b3392c09bd" x="157.729383" y="240.056795" style="fill: #808080; fill-opacity: 0.4"/>
    </g>
    <g clip-path="url(#pf7a49423c2)">
     <use xlink:href="#C1_0_b3392c09bd" x="155.503013" y="187.859861" style="fill: #808080; fill-opacity: 0.4"/>
    </g>
    <g clip-path="url(#pf7a49423c2)">
     <use xlink:href="#C1_0_b3392c09bd" x="157.580481" y="267.582175" style="fill: #808080; fill-opacity: 0.4"/>
    </g>
    <g clip-path="url(#pf7a49423c2)">
     <use xlink:href="#C1_0_b3392c09bd" x="159.107109" y="293.03993" style="fill: #808080; fill-opacity: 0.4"/>
    </g>
    <g clip-path="url(#pf7a49423c2)">
     <use xlink:href="#C1_0_b3392c09bd" x="158.741557" y="309.688746" style="fill: #808080; fill-opacity: 0.4"/>
    </g>
    <g clip-path="url(#pf7a49423c2)">
     <use xlink:href="#C1_0_b3392c09bd" x="164.391549" y="304.822818" style="fill: #808080; fill-opacity: 0.4"/>
    </g>
    <g clip-path="url(#pf7a49423c2)">
     <use xlink:href="#C1_0_b3392c09bd" x="169.626242" y="318.776281" style="fill: #808080; fill-opacity: 0.4"/>
    </g>
    <g clip-path="url(#pf7a49423c2)">
     <use xlink:href="#C1_0_b3392c09bd" x="156.405542" y="244.320597" style="fill: #808080; fill-opacity: 0.4"/>
    </g>
    <g clip-path="url(#pf7a49423c2)">
     <use xlink:href="#C1_0_b3392c09bd" x="161.319763" y="259.408826" style="fill: #808080; fill-opacity: 0.4"/>
    </g>
    <g clip-path="url(#pf7a49423c2)">
     <use xlink:href="#C1_0_b3392c09bd" x="163.527191" y="257.329515" style="fill: #808080; fill-opacity: 0.4"/>
    </g>
    <g clip-path="url(#pf7a49423c2)">
     <use xlink:href="#C1_0_b3392c09bd" x="164.207392" y="273.728726" style="fill: #808080; fill-opacity: 0.4"/>
    </g>
    <g clip-path="url(#pf7a49423c2)">
     <use xlink:href="#C1_0_b3392c09bd" x="169.307125" y="268.143481" style="fill: #808080; fill-opacity: 0.4"/>
    </g>
    <g clip-path="url(#pf7a49423c2)">
     <use xlink:href="#C1_0_b3392c09bd" x="170.397092" y="266.617246" style="fill: #808080; fill-opacity: 0.4"/>
    </g>
    <g clip-path="url(#pf7a49423c2)">
     <use xlink:href="#C1_0_b3392c09bd" x="163.833543" y="323.650197" style="fill: #808080; fill-opacity: 0.4"/>
    </g>
    <g clip-path="url(#pf7a49423c2)">
     <use xlink:href="#C1_0_b3392c09bd" x="165.319668" y="334.041872" style="fill: #808080; fill-opacity: 0.4"/>
    </g>
    <g clip-path="url(#pf7a49423c2)">
     <use xlink:href="#C1_0_b3392c09bd" x="169.370631" y="325.310385" style="fill: #808080; fill-opacity: 0.4"/>
    </g>
    <g clip-path="url(#pf7a49423c2)">
     <use xlink:href="#C1_0_b3392c09bd" x="157.244537" y="279.382368" style="fill: #808080; fill-opacity: 0.4"/>
    </g>
    <g clip-path="url(#pf7a49423c2)">
     <use xlink:href="#C1_0_b3392c09bd" x="169.554427" y="308.286728" style="fill: #808080; fill-opacity: 0.4"/>
    </g>
    <g clip-path="url(#pf7a49423c2)">
     <use xlink:href="#C1_0_b3392c09bd" x="164.810838" y="298.073074" style="fill: #808080; fill-opacity: 0.4"/>
    </g>
    <g clip-path="url(#pf7a49423c2)">
     <use xlink:href="#C1_0_b3392c09bd" x="174.810523" y="316.884515" style="fill: #808080; fill-opacity: 0.4"/>
    </g>
   </g>
   <g id="PathCollection_3">
    <defs>
     <path id="C2_0_42c5735668" d="M 0 3.872983 
C 1.027127 3.872983 2.012324 3.464901 2.738613 2.738613 
C 3.464901 2.012324 3.872983 1.027127 3.872983 -0 
C 3.872983 -1.027127 3.464901 -2.012324 2.738613 -2.738613 
C 2.012324 -3.464901 1.027127 -3.872983 0 -3.872983 
C -1.027127 -3.872983 -2.012324 -3.464901 -2.738613 -2.738613 
C -3.464901 -2.012324 -3.872983 -1.027127 -3.872983 0 
C -3.872983 1.027127 -3.464901 2.012324 -2.738613 2.738613 
C -2.012324 3.464901 -1.027127 3.872983 0 3.872983 
z
"/>
    </defs>
    <g clip-path="url(#pf7a49423c2)">
     <use xlink:href="#C2_0_42c5735668" x="211.151433" y="330.42497" style="fill: #ff0000; fill-opacity: 0.4"/>
    </g>
    <g clip-path="url(#pf7a49423c2)">
     <use xlink:href="#C2_0_42c5735668" x="209.906037" y="349.495427" style="fill: #ff0000; fill-opacity: 0.4"/>
    </g>
    <g clip-path="url(#pf7a49423c2)">
     <use xlink:href="#C2_0_42c5735668" x="213.174837" y="236.394348" style="fill: #ff0000; fill-opacity: 0.4"/>
    </g>
    <g clip-path="url(#pf7a49423c2)">
     <use xlink:href="#C2_0_42c5735668" x="211.879826" y="299.264699" style="fill: #ff0000; fill-opacity: 0.4"/>
    </g>
    <g clip-path="url(#pf7a49423c2)">
     <use xlink:href="#C2_0_42c5735668" x="214.64465" y="329.690243" style="fill: #ff0000; fill-opacity: 0.4"/>
    </g>
    <g clip-path="url(#pf7a49423c2)">
     <use xlink:href="#C2_0_42c5735668" x="213.50812" y="316.12034" style="fill: #ff0000; fill-opacity: 0.4"/>
    </g>
    <g clip-path="url(#pf7a49423c2)">
     <use xlink:href="#C2_0_42c5735668" x="209.483849" y="293.092778" style="fill: #ff0000; fill-opacity: 0.4"/>
    </g>
    <g clip-path="url(#pf7a49423c2)">
     <use xlink:href="#C2_0_42c5735668" x="220.015769" y="323.163505" style="fill: #ff0000; fill-opacity: 0.4"/>
    </g>
    <g clip-path="url(#pf7a49423c2)">
     <use xlink:href="#C2_0_42c5735668" x="211.775776" y="363.234822" style="fill: #ff0000; fill-opacity: 0.4"/>
    </g>
    <g clip-path="url(#pf7a49423c2)">
     <use xlink:href="#C2_0_42c5735668" x="214.256835" y="256.267871" style="fill: #ff0000; fill-opacity: 0.4"/>
    </g>
    <g clip-path="url(#pf7a49423c2)">
     <use xlink:href="#C2_0_42c5735668" x="216.790991" y="230.194974" style="fill: #ff0000; fill-opacity: 0.4"/>
    </g>
    <g clip-path="url(#pf7a49423c2)">
     <use xlink:href="#C2_0_42c5735668" x="213.97885" y="274.447225" style="fill: #ff0000; fill-opacity: 0.4"/>
    </g>
    <g clip-path="url(#pf7a49423c2)">
     <use xlink:href="#C2_0_42c5735668" x="215.867711" y="291.953198" style="fill: #ff0000; fill-opacity: 0.4"/>
    </g>
    <g clip-path="url(#pf7a49423c2)">
     <use xlink:href="#C2_0_42c5735668" x="211.180971" y="340.785596" style="fill: #ff0000; fill-opacity: 0.4"/>
    </g>
    <g clip-path="url(#pf7a49423c2)">
     <use xlink:href="#C2_0_42c5735668" x="218.333386" y="367.065999" style="fill: #ff0000; fill-opacity: 0.4"/>
    </g>
    <g clip-path="url(#pf7a49423c2)">
     <use xlink:href="#C2_0_42c5735668" x="217.011151" y="344.514724" style="fill: #ff0000; fill-opacity: 0.4"/>
    </g>
    <g clip-path="url(#pf7a49423c2)">
     <use xlink:href="#C2_0_42c5735668" x="221.994746" y="346.227007" style="fill: #ff0000; fill-opacity: 0.4"/>
    </g>
    <g clip-path="url(#pf7a49423c2)">
     <use xlink:href="#C2_0_42c5735668" x="218.582743" y="286.016836" style="fill: #ff0000; fill-opacity: 0.4"/>
    </g>
    <g clip-path="url(#pf7a49423c2)">
     <use xlink:href="#C2_0_42c5735668" x="222.336126" y="322.820703" style="fill: #ff0000; fill-opacity: 0.4"/>
    </g>
    <g clip-path="url(#pf7a49423c2)">
     <use xlink:href="#C2_0_42c5735668" x="216.140678" y="333.1625" style="fill: #ff0000; fill-opacity: 0.4"/>
    </g>
    <g clip-path="url(#pf7a49423c2)">
     <use xlink:href="#C2_0_42c5735668" x="216.417066" y="314.102328" style="fill: #ff0000; fill-opacity: 0.4"/>
    </g>
    <g clip-path="url(#pf7a49423c2)">
     <use xlink:href="#C2_0_42c5735668" x="216.673789" y="138.981906" style="fill: #ff0000; fill-opacity: 0.4"/>
    </g>
    <g clip-path="url(#pf7a49423c2)">
     <use xlink:href="#C2_0_42c5735668" x="211.75561" y="193.29487" style="fill: #ff0000; fill-opacity: 0.4"/>
    </g>
    <g clip-path="url(#pf7a49423c2)">
     <use xlink:href="#C2_0_42c5735668" x="217.353852" y="194.163972" style="fill: #ff0000; fill-opacity: 0.4"/>
    </g>
    <g clip-path="url(#pf7a49423c2)">
     <use xlink:href="#C2_0_42c5735668" x="214.182313" y="158.676588" style="fill: #ff0000; fill-opacity: 0.4"/>
    </g>
    <g clip-path="url(#pf7a49423c2)">
     <use xlink:href="#C2_0_42c5735668" x="212.014126" y="220.093207" style="fill: #ff0000; fill-opacity: 0.4"/>
    </g>
    <g clip-path="url(#pf7a49423c2)">
     <use xlink:href="#C2_0_42c5735668" x="217.599806" y="159.528981" style="fill: #ff0000; fill-opacity: 0.4"/>
    </g>
    <g clip-path="url(#pf7a49423c2)">
     <use xlink:href="#C2_0_42c5735668" x="221.551958" y="238.186964" style="fill: #ff0000; fill-opacity: 0.4"/>
    </g>
    <g clip-path="url(#pf7a49423c2)">
     <use xlink:href="#C2_0_42c5735668" x="215.894261" y="211.251529" style="fill: #ff0000; fill-opacity: 0.4"/>
    </g>
    <g clip-path="url(#pf7a49423c2)">
     <use xlink:href="#C2_0_42c5735668" x="213.534408" y="248.927091" style="fill: #ff0000; fill-opacity: 0.4"/>
    </g>
    <g clip-path="url(#pf7a49423c2)">
     <use xlink:href="#C2_0_42c5735668" x="218.635731" y="194.022406" style="fill: #ff0000; fill-opacity: 0.4"/>
    </g>
    <g clip-path="url(#pf7a49423c2)">
     <use xlink:href="#C2_0_42c5735668" x="216.93022" y="216.478332" style="fill: #ff0000; fill-opacity: 0.4"/>
    </g>
    <g clip-path="url(#pf7a49423c2)">
     <use xlink:href="#C2_0_42c5735668" x="214.162623" y="241.949187" style="fill: #ff0000; fill-opacity: 0.4"/>
    </g>
    <g clip-path="url(#pf7a49423c2)">
     <use xlink:href="#C2_0_42c5735668" x="218.431084" y="280.363452" style="fill: #ff0000; fill-opacity: 0.4"/>
    </g>
    <g clip-path="url(#pf7a49423c2)">
     <use xlink:href="#C2_0_42c5735668" x="219.768247" y="317.901366" style="fill: #ff0000; fill-opacity: 0.4"/>
    </g>
    <g clip-path="url(#pf7a49423c2)">
     <use xlink:href="#C2_0_42c5735668" x="216.28653" y="303.605829" style="fill: #ff0000; fill-opacity: 0.4"/>
    </g>
    <g clip-path="url(#pf7a49423c2)">
     <use xlink:href="#C2_0_42c5735668" x="223.226908" y="286.043517" style="fill: #ff0000; fill-opacity: 0.4"/>
    </g>
    <g clip-path="url(#pf7a49423c2)">
     <use xlink:href="#C2_0_42c5735668" x="218.974566" y="252.225835" style="fill: #ff0000; fill-opacity: 0.4"/>
    </g>
    <g clip-path="url(#pf7a49423c2)">
     <use xlink:href="#C2_0_42c5735668" x="218.494266" y="247.325075" style="fill: #ff0000; fill-opacity: 0.4"/>
    </g>
    <g clip-path="url(#pf7a49423c2)">
     <use xlink:href="#C2_0_42c5735668" x="224.062968" y="247.681787" style="fill: #ff0000; fill-opacity: 0.4"/>
    </g>
    <g clip-path="url(#pf7a49423c2)">
     <use xlink:href="#C2_0_42c5735668" x="221.435241" y="226.501229" style="fill: #ff0000; fill-opacity: 0.4"/>
    </g>
    <g clip-path="url(#pf7a49423c2)">
     <use xlink:href="#C2_0_42c5735668" x="220.239144" y="332.387353" style="fill: #ff0000; fill-opacity: 0.4"/>
    </g>
    <g clip-path="url(#pf7a49423c2)">
     <use xlink:href="#C2_0_42c5735668" x="222.699866" y="312.709237" style="fill: #ff0000; fill-opacity: 0.4"/>
    </g>
    <g clip-path="url(#pf7a49423c2)">
     <use xlink:href="#C2_0_42c5735668" x="220.781371" y="306.377299" style="fill: #ff0000; fill-opacity: 0.4"/>
    </g>
   </g>
   <g id="FillBetweenPolyCollection_1">
    <path d="M 101.263133 388.864364 
L 87.796867 388.864364 
L 87.240666 386.816277 
L 86.674574 384.76819 
L 86.102633 382.720104 
L 85.529139 380.672017 
L 84.95857 378.62393 
L 84.395501 376.575844 
L 83.844522 374.527757 
L 83.31015 372.47967 
L 82.796734 370.431583 
L 82.308377 368.383497 
L 81.84885 366.33541 
L 81.421523 364.287323 
L 81.029309 362.239237 
L 80.674621 360.19115 
L 80.359344 358.143063 
L 80.084827 356.094977 
L 79.851892 354.04689 
L 79.660863 351.998803 
L 79.511606 349.950717 
L 79.403585 347.90263 
L 79.335928 345.854543 
L 79.3075 343.806457 
L 79.316975 341.75837 
L 79.362911 339.710283 
L 79.443814 337.662196 
L 79.558198 335.61411 
L 79.704626 333.566023 
L 79.881745 331.517936 
L 80.088295 329.46985 
L 80.323113 327.421763 
L 80.585111 325.373676 
L 80.873253 323.32559 
L 81.18651 321.277503 
L 81.52382 319.229416 
L 81.884032 317.18133 
L 82.265865 315.133243 
L 82.667859 313.085156 
L 83.088343 311.03707 
L 83.525412 308.988983 
L 83.976916 306.940896 
L 84.440466 304.89281 
L 84.913452 302.844723 
L 85.393077 300.796636 
L 85.876401 298.748549 
L 86.360403 296.700463 
L 86.842033 294.652376 
L 87.318288 292.604289 
L 87.78627 290.556203 
L 88.243249 288.508116 
L 88.686721 286.460029 
L 89.114447 284.411943 
L 89.524491 282.363856 
L 89.915239 280.315769 
L 90.285405 278.267683 
L 90.634033 276.219596 
L 90.960476 274.171509 
L 91.264374 272.123423 
L 91.545627 270.075336 
L 91.804353 268.027249 
L 92.040855 265.979162 
L 92.255588 263.931076 
L 92.44912 261.882989 
L 92.622107 259.834902 
L 92.775265 257.786816 
L 92.909361 255.738729 
L 93.025193 253.690642 
L 93.12359 251.642556 
L 93.205408 249.594469 
L 93.271535 247.546382 
L 93.322895 245.498296 
L 93.360454 243.450209 
L 93.385225 241.402122 
L 93.39827 239.354036 
L 93.400704 237.305949 
L 93.39369 235.257862 
L 93.378431 233.209776 
L 93.356167 231.161689 
L 93.328157 229.113602 
L 93.295664 227.065515 
L 93.259945 225.017429 
L 93.222227 222.969342 
L 93.183695 220.921255 
L 93.145477 218.873169 
L 93.108626 216.825082 
L 93.074114 214.776995 
L 93.042819 212.728909 
L 93.015524 210.680822 
L 92.992907 208.632735 
L 92.975544 206.584649 
L 92.96391 204.536562 
L 92.958374 202.488475 
L 92.959209 200.440389 
L 92.96659 198.392302 
L 92.980594 196.344215 
L 93.001208 194.296128 
L 93.028326 192.248042 
L 93.061755 190.199955 
L 93.101214 188.151868 
L 93.146338 186.103782 
L 95.913662 186.103782 
L 95.913662 186.103782 
L 95.958786 188.151868 
L 95.998245 190.199955 
L 96.031674 192.248042 
L 96.058792 194.296128 
L 96.079406 196.344215 
L 96.09341 198.392302 
L 96.100791 200.440389 
L 96.101626 202.488475 
L 96.09609 204.536562 
L 96.084456 206.584649 
L 96.067093 208.632735 
L 96.044476 210.680822 
L 96.017181 212.728909 
L 95.985886 214.776995 
L 95.951374 216.825082 
L 95.914523 218.873169 
L 95.876305 220.921255 
L 95.837773 222.969342 
L 95.800055 225.017429 
L 95.764336 227.065515 
L 95.731843 229.113602 
L 95.703833 231.161689 
L 95.681569 233.209776 
L 95.66631 235.257862 
L 95.659296 237.305949 
L 95.66173 239.354036 
L 95.674775 241.402122 
L 95.699546 243.450209 
L 95.737105 245.498296 
L 95.788465 247.546382 
L 95.854592 249.594469 
L 95.93641 251.642556 
L 96.034807 253.690642 
L 96.150639 255.738729 
L 96.284735 257.786816 
L 96.437893 259.834902 
L 96.61088 261.882989 
L 96.804412 263.931076 
L 97.019145 265.979162 
L 97.255647 268.027249 
L 97.514373 270.075336 
L 97.795626 272.123423 
L 98.099524 274.171509 
L 98.425967 276.219596 
L 98.774595 278.267683 
L 99.144761 280.315769 
L 99.535509 282.363856 
L 99.945553 284.411943 
L 100.373279 286.460029 
L 100.816751 288.508116 
L 101.27373 290.556203 
L 101.741712 292.604289 
L 102.217967 294.652376 
L 102.699597 296.700463 
L 103.183599 298.748549 
L 103.666923 300.796636 
L 104.146548 302.844723 
L 104.619534 304.89281 
L 105.083084 306.940896 
L 105.534588 308.988983 
L 105.971657 311.03707 
L 106.392141 313.085156 
L 106.794135 315.133243 
L 107.175968 317.18133 
L 107.53618 319.229416 
L 107.87349 321.277503 
L 108.186747 323.32559 
L 108.474889 325.373676 
L 108.736887 327.421763 
L 108.971705 329.46985 
L 109.178255 331.517936 
L 109.355374 333.566023 
L 109.501802 335.61411 
L 109.616186 337.662196 
L 109.697089 339.710283 
L 109.743025 341.75837 
L 109.7525 343.806457 
L 109.724072 345.854543 
L 109.656415 347.90263 
L 109.548394 349.950717 
L 109.399137 351.998803 
L 109.208108 354.04689 
L 108.975173 356.094977 
L 108.700656 358.143063 
L 108.385379 360.19115 
L 108.030691 362.239237 
L 107.638477 364.287323 
L 107.21115 366.33541 
L 106.751623 368.383497 
L 106.263266 370.431583 
L 105.74985 372.47967 
L 105.215478 374.527757 
L 104.664499 376.575844 
L 104.10143 378.62393 
L 103.530861 380.672017 
L 102.957367 382.720104 
L 102.385426 384.76819 
L 101.819334 386.816277 
L 101.263133 388.864364 
z
" clip-path="url(#pf7a49423c2)" style="fill: #0000ff; fill-opacity: 0.3"/>
   </g>
   <g id="FillBetweenPolyCollection_2">
    <path d="M 165.698361 369.494084 
L 145.141639 369.494084 
L 144.219045 367.19995 
L 143.287768 364.905816 
L 142.35524 362.611683 
L 141.428762 360.317549 
L 140.515404 358.023415 
L 139.621935 355.729281 
L 138.754794 353.435148 
L 137.920092 351.141014 
L 137.123636 348.84688 
L 136.370969 346.552746 
L 135.667404 344.258613 
L 135.018045 341.964479 
L 134.427786 339.670345 
L 133.901273 337.376212 
L 133.442822 335.082078 
L 133.056299 332.787944 
L 132.74497 330.49381 
L 132.511313 328.199677 
L 132.356818 325.905543 
L 132.2818 323.611409 
L 132.285218 321.317276 
L 132.364548 319.023142 
L 132.515704 316.729008 
L 132.733042 314.434874 
L 133.009443 312.140741 
L 133.336487 309.846607 
L 133.70471 307.552473 
L 134.10395 305.25834 
L 134.523743 302.964206 
L 134.953764 300.670072 
L 135.38429 298.375938 
L 135.806635 296.081805 
L 136.21355 293.787671 
L 136.599546 291.493537 
L 136.961126 289.199403 
L 137.296896 286.90527 
L 137.607559 284.611136 
L 137.895781 282.317002 
L 138.165947 280.022869 
L 138.423807 277.728735 
L 138.676055 275.434601 
L 138.929861 273.140467 
L 139.19238 270.846334 
L 139.470287 268.5522 
L 139.76936 266.258066 
L 140.094129 263.963933 
L 140.447634 261.669799 
L 140.831275 259.375665 
L 141.244781 257.081531 
L 141.686284 254.787398 
L 142.152484 252.493264 
L 142.6389 250.19913 
L 143.140163 247.904997 
L 143.65035 245.610863 
L 144.16332 243.316729 
L 144.673033 241.022595 
L 145.173833 238.728462 
L 145.660672 236.434328 
L 146.129287 234.140194 
L 146.576292 231.846061 
L 146.999217 229.551927 
L 147.396486 227.257793 
L 147.767342 224.963659 
L 148.111738 222.669526 
L 148.430206 220.375392 
L 148.72372 218.081258 
L 148.993557 215.787124 
L 149.241183 213.492991 
L 149.468153 211.198857 
L 149.676045 208.904723 
L 149.866419 206.61059 
L 150.040805 204.316456 
L 150.200703 202.022322 
L 150.347613 199.728188 
L 150.483049 197.434055 
L 150.608574 195.139921 
L 150.725806 192.845787 
L 150.83643 190.551654 
L 150.94218 188.25752 
L 151.044811 185.963386 
L 151.14606 183.669252 
L 151.247591 181.375119 
L 151.350943 179.080985 
L 151.457472 176.786851 
L 151.568305 174.492718 
L 151.684302 172.198584 
L 151.806036 169.90445 
L 151.933782 167.610316 
L 152.067532 165.316183 
L 152.207011 163.022049 
L 152.351719 160.727915 
L 152.500963 158.433781 
L 152.653907 156.139648 
L 152.809611 153.845514 
L 152.967072 151.55138 
L 153.12526 149.257247 
L 153.28314 146.963113 
L 153.439698 144.668979 
L 153.593954 142.374845 
L 157.246046 142.374845 
L 157.246046 142.374845 
L 157.400302 144.668979 
L 157.55686 146.963113 
L 157.71474 149.257247 
L 157.872928 151.55138 
L 158.030389 153.845514 
L 158.186093 156.139648 
L 158.339037 158.433781 
L 158.488281 160.727915 
L 158.632989 163.022049 
L 158.772468 165.316183 
L 158.906218 167.610316 
L 159.033964 169.90445 
L 159.155698 172.198584 
L 159.271695 174.492718 
L 159.382528 176.786851 
L 159.489057 179.080985 
L 159.592409 181.375119 
L 159.69394 183.669252 
L 159.795189 185.963386 
L 159.89782 188.25752 
L 160.00357 190.551654 
L 160.114194 192.845787 
L 160.231426 195.139921 
L 160.356951 197.434055 
L 160.492387 199.728188 
L 160.639297 202.022322 
L 160.799195 204.316456 
L 160.973581 206.61059 
L 161.163955 208.904723 
L 161.371847 211.198857 
L 161.598817 213.492991 
L 161.846443 215.787124 
L 162.11628 218.081258 
L 162.409794 220.375392 
L 162.728262 222.669526 
L 163.072658 224.963659 
L 163.443514 227.257793 
L 163.840783 229.551927 
L 164.263708 231.846061 
L 164.710713 234.140194 
L 165.179328 236.434328 
L 165.666167 238.728462 
L 166.166967 241.022595 
L 166.67668 243.316729 
L 167.18965 245.610863 
L 167.699837 247.904997 
L 168.2011 250.19913 
L 168.687516 252.493264 
L 169.153716 254.787398 
L 169.595219 257.081531 
L 170.008725 259.375665 
L 170.392366 261.669799 
L 170.745871 263.963933 
L 171.07064 266.258066 
L 171.369713 268.5522 
L 171.64762 270.846334 
L 171.910139 273.140467 
L 172.163945 275.434601 
L 172.416193 277.728735 
L 172.674053 280.022869 
L 172.944219 282.317002 
L 173.232441 284.611136 
L 173.543104 286.90527 
L 173.878874 289.199403 
L 174.240454 291.493537 
L 174.62645 293.787671 
L 175.033365 296.081805 
L 175.45571 298.375938 
L 175.886236 300.670072 
L 176.316257 302.964206 
L 176.73605 305.25834 
L 177.13529 307.552473 
L 177.503513 309.846607 
L 177.830557 312.140741 
L 178.106958 314.434874 
L 178.324296 316.729008 
L 178.475452 319.023142 
L 178.554782 321.317276 
L 178.5582 323.611409 
L 178.483182 325.905543 
L 178.328687 328.199677 
L 178.09503 330.49381 
L 177.783701 332.787944 
L 177.397178 335.082078 
L 176.938727 337.376212 
L 176.412214 339.670345 
L 175.821955 341.964479 
L 175.172596 344.258613 
L 174.469031 346.552746 
L 173.716364 348.84688 
L 172.919908 351.141014 
L 172.085206 353.435148 
L 171.218065 355.729281 
L 170.324596 358.023415 
L 169.411238 360.317549 
L 168.48476 362.611683 
L 167.552232 364.905816 
L 166.620955 367.19995 
L 165.698361 369.494084 
z
" clip-path="url(#pf7a49423c2)" style="fill: #808080; fill-opacity: 0.3"/>
   </g>
   <g id="FillBetweenPolyCollection_3">
    <path d="M 222.795133 367.065999 
L 209.824867 367.065999 
L 209.31938 364.76212 
L 208.80291 362.45824 
L 208.278341 360.15436 
L 207.748803 357.850481 
L 207.217642 355.546601 
L 206.688371 353.242721 
L 206.164633 350.938841 
L 205.650139 348.634962 
L 205.148619 346.331082 
L 204.663757 344.027202 
L 204.199129 341.723322 
L 203.758144 339.419443 
L 203.343975 337.115563 
L 202.959509 334.811683 
L 202.607284 332.507804 
L 202.289449 330.203924 
L 202.007714 327.900044 
L 201.763323 325.596164 
L 201.557026 323.292285 
L 201.389063 320.988405 
L 201.25916 318.684525 
L 201.166533 316.380645 
L 201.109899 314.076766 
L 201.0875 311.772886 
L 201.097135 309.469006 
L 201.136198 307.165127 
L 201.201727 304.861247 
L 201.290461 302.557367 
L 201.398896 300.253487 
L 201.523359 297.949608 
L 201.66008 295.645728 
L 201.805266 293.341848 
L 201.955184 291.037968 
L 202.10624 288.734089 
L 202.255063 286.430209 
L 202.398579 284.126329 
L 202.534087 281.82245 
L 202.659328 279.51857 
L 202.772534 277.21469 
L 202.872479 274.91081 
L 202.958508 272.606931 
L 203.03055 270.303051 
L 203.089117 267.999171 
L 203.135284 265.695291 
L 203.170647 263.391412 
L 203.197275 261.087532 
L 203.217634 258.783652 
L 203.234506 256.479773 
L 203.250897 254.175893 
L 203.269936 251.872013 
L 203.294776 249.568133 
L 203.328489 247.264254 
L 203.373977 244.960374 
L 203.433877 242.656494 
L 203.510495 240.352614 
L 203.605736 238.048735 
L 203.721068 235.744855 
L 203.857485 233.440975 
L 204.015501 231.137096 
L 204.195152 228.833216 
L 204.396017 226.529336 
L 204.617249 224.225456 
L 204.857617 221.921577 
L 205.115559 219.617697 
L 205.389238 217.313817 
L 205.6766 215.009937 
L 205.975438 212.706058 
L 206.283448 210.402178 
L 206.598286 208.098298 
L 206.917622 205.794419 
L 207.239186 203.490539 
L 207.56081 201.186659 
L 207.880467 198.882779 
L 208.196296 196.5789 
L 208.506635 194.27502 
L 208.810033 191.97114 
L 209.105273 189.66726 
L 209.391372 187.363381 
L 209.667597 185.059501 
L 209.933455 182.755621 
L 210.188698 180.451742 
L 210.433304 178.147862 
L 210.66747 175.843982 
L 210.891589 173.540102 
L 211.10623 171.236223 
L 211.312107 168.932343 
L 211.510049 166.628463 
L 211.700966 164.324583 
L 211.885816 162.020704 
L 212.065566 159.716824 
L 212.241157 157.412944 
L 212.41347 155.109065 
L 212.583298 152.805185 
L 212.751316 150.501305 
L 212.918063 148.197425 
L 213.083926 145.893546 
L 213.249129 143.589666 
L 213.413735 141.285786 
L 213.577648 138.981906 
L 219.042352 138.981906 
L 219.042352 138.981906 
L 219.206265 141.285786 
L 219.370871 143.589666 
L 219.536074 145.893546 
L 219.701937 148.197425 
L 219.868684 150.501305 
L 220.036702 152.805185 
L 220.20653 155.109065 
L 220.378843 157.412944 
L 220.554434 159.716824 
L 220.734184 162.020704 
L 220.919034 164.324583 
L 221.109951 166.628463 
L 221.307893 168.932343 
L 221.51377 171.236223 
L 221.728411 173.540102 
L 221.95253 175.843982 
L 222.186696 178.147862 
L 222.431302 180.451742 
L 222.686545 182.755621 
L 222.952403 185.059501 
L 223.228628 187.363381 
L 223.514727 189.66726 
L 223.809967 191.97114 
L 224.113365 194.27502 
L 224.423704 196.5789 
L 224.739533 198.882779 
L 225.05919 201.186659 
L 225.380814 203.490539 
L 225.702378 205.794419 
L 226.021714 208.098298 
L 226.336552 210.402178 
L 226.644562 212.706058 
L 226.9434 215.009937 
L 227.230762 217.313817 
L 227.504441 219.617697 
L 227.762383 221.921577 
L 228.002751 224.225456 
L 228.223983 226.529336 
L 228.424848 228.833216 
L 228.604499 231.137096 
L 228.762515 233.440975 
L 228.898932 235.744855 
L 229.014264 238.048735 
L 229.109505 240.352614 
L 229.186123 242.656494 
L 229.246023 244.960374 
L 229.291511 247.264254 
L 229.325224 249.568133 
L 229.350064 251.872013 
L 229.369103 254.175893 
L 229.385494 256.479773 
L 229.402366 258.783652 
L 229.422725 261.087532 
L 229.449353 263.391412 
L 229.484716 265.695291 
L 229.530883 267.999171 
L 229.58945 270.303051 
L 229.661492 272.606931 
L 229.747521 274.91081 
L 229.847466 277.21469 
L 229.960672 279.51857 
L 230.085913 281.82245 
L 230.221421 284.126329 
L 230.364937 286.430209 
L 230.51376 288.734089 
L 230.664816 291.037968 
L 230.814734 293.341848 
L 230.95992 295.645728 
L 231.096641 297.949608 
L 231.221104 300.253487 
L 231.329539 302.557367 
L 231.418273 304.861247 
L 231.483802 307.165127 
L 231.522865 309.469006 
L 231.5325 311.772886 
L 231.510101 314.076766 
L 231.453467 316.380645 
L 231.36084 318.684525 
L 231.230937 320.988405 
L 231.062974 323.292285 
L 230.856677 325.596164 
L 230.612286 327.900044 
L 230.330551 330.203924 
L 230.012716 332.507804 
L 229.660491 334.811683 
L 229.276025 337.115563 
L 228.861856 339.419443 
L 228.420871 341.723322 
L 227.956243 344.027202 
L 227.471381 346.331082 
L 226.969861 348.634962 
L 226.455367 350.938841 
L 225.931629 353.242721 
L 225.402358 355.546601 
L 224.871197 357.850481 
L 224.341659 360.15436 
L 223.81709 362.45824 
L 223.30062 364.76212 
L 222.795133 367.065999 
z
" clip-path="url(#pf7a49423c2)" style="fill: #ff0000; fill-opacity: 0.3"/>
   </g>
   <g id="matplotlib.axis_1">
    <g id="xtick_1">
     <g id="line2d_1">
      <defs>
       <path id="mde3d63dec6" d="M 0 0 
L 0 3.5 
" style="stroke: #000000; stroke-width: 0.8"/>
      </defs>
      <g>
       <use xlink:href="#mde3d63dec6" x="94.53" y="404.12" style="stroke: #000000; stroke-width: 0.8"/>
      </g>
     </g>
     <g id="text_1">
      <!-- sRC -->
      <g transform="translate(84.37375 418.718437) scale(0.1 -0.1)">
       <defs>
        <path id="DejaVuSerif-73" d="M 359 184 
L 359 959 
L 691 959 
Q 703 588 923 403 
Q 1144 219 1575 219 
Q 1963 219 2166 364 
Q 2369 509 2369 788 
Q 2369 1006 2220 1140 
Q 2072 1275 1594 1428 
L 1178 1569 
Q 750 1706 558 1912 
Q 366 2119 366 2438 
Q 366 2894 700 3153 
Q 1034 3413 1625 3413 
Q 1888 3413 2178 3344 
Q 2469 3275 2778 3144 
L 2778 2419 
L 2447 2419 
Q 2434 2741 2221 2922 
Q 2009 3103 1644 3103 
Q 1281 3103 1095 2975 
Q 909 2847 909 2591 
Q 909 2381 1050 2254 
Q 1191 2128 1613 1997 
L 2069 1856 
Q 2541 1709 2748 1489 
Q 2956 1269 2956 922 
Q 2956 450 2595 179 
Q 2234 -91 1600 -91 
Q 1278 -91 972 -22 
Q 666 47 359 184 
z
" transform="scale(0.015625)"/>
        <path id="DejaVuSerif-52" d="M 3066 2316 
Q 3284 2256 3442 2114 
Q 3600 1972 3725 1716 
L 4403 331 
L 4972 331 
L 4972 0 
L 3872 0 
L 3144 1484 
Q 2934 1916 2759 2042 
Q 2584 2169 2278 2169 
L 1581 2169 
L 1581 331 
L 2241 331 
L 2241 0 
L 353 0 
L 353 331 
L 947 331 
L 947 4331 
L 353 4331 
L 353 4666 
L 2719 4666 
Q 3400 4666 3770 4341 
Q 4141 4016 4141 3419 
Q 4141 2938 3870 2661 
Q 3600 2384 3066 2316 
z
M 1581 2503 
L 2503 2503 
Q 2975 2503 3200 2726 
Q 3425 2950 3425 3419 
Q 3425 3888 3200 4109 
Q 2975 4331 2503 4331 
L 1581 4331 
L 1581 2503 
z
" transform="scale(0.015625)"/>
        <path id="DejaVuSerif-43" d="M 4513 1234 
Q 4306 581 3820 245 
Q 3334 -91 2591 -91 
Q 2134 -91 1743 65 
Q 1353 222 1050 525 
Q 700 875 529 1320 
Q 359 1766 359 2328 
Q 359 3416 987 4083 
Q 1616 4750 2644 4750 
Q 3025 4750 3456 4650 
Q 3888 4550 4384 4347 
L 4384 3272 
L 4031 3272 
Q 3916 3859 3567 4137 
Q 3219 4416 2591 4416 
Q 1844 4416 1459 3886 
Q 1075 3356 1075 2328 
Q 1075 1303 1459 773 
Q 1844 244 2591 244 
Q 3113 244 3450 492 
Q 3788 741 3938 1234 
L 4513 1234 
z
" transform="scale(0.015625)"/>
       </defs>
       <use xlink:href="#DejaVuSerif-73"/>
       <use xlink:href="#DejaVuSerif-52" transform="translate(51.318359 0)"/>
       <use xlink:href="#DejaVuSerif-43" transform="translate(126.611328 0)"/>
      </g>
     </g>
    </g>
    <g id="xtick_2">
     <g id="line2d_2">
      <g>
       <use xlink:href="#mde3d63dec6" x="155.42" y="404.12" style="stroke: #000000; stroke-width: 0.8"/>
      </g>
     </g>
     <g id="text_2">
      <!-- Non-members WT -->
      <g transform="translate(109.503594 418.718437) scale(0.1 -0.1)">
       <defs>
        <path id="DejaVuSerif-4e" d="M 313 0 
L 313 331 
L 941 331 
L 941 4331 
L 313 4331 
L 313 4666 
L 1509 4666 
L 4306 984 
L 4306 4331 
L 3681 4331 
L 3681 4666 
L 5319 4666 
L 5319 4331 
L 4691 4331 
L 4691 -91 
L 4313 -91 
L 1325 3841 
L 1325 331 
L 1953 331 
L 1953 0 
L 313 0 
z
" transform="scale(0.015625)"/>
        <path id="DejaVuSerif-6f" d="M 1925 219 
Q 2388 219 2623 584 
Q 2859 950 2859 1663 
Q 2859 2375 2623 2739 
Q 2388 3103 1925 3103 
Q 1463 3103 1227 2739 
Q 991 2375 991 1663 
Q 991 950 1228 584 
Q 1466 219 1925 219 
z
M 1925 -91 
Q 1200 -91 759 389 
Q 319 869 319 1663 
Q 319 2456 758 2934 
Q 1197 3413 1925 3413 
Q 2653 3413 3092 2934 
Q 3531 2456 3531 1663 
Q 3531 869 3092 389 
Q 2653 -91 1925 -91 
z
" transform="scale(0.015625)"/>
        <path id="DejaVuSerif-6e" d="M 263 0 
L 263 331 
L 781 331 
L 781 2988 
L 231 2988 
L 231 3322 
L 1356 3322 
L 1356 2731 
Q 1516 3069 1770 3241 
Q 2025 3413 2363 3413 
Q 2913 3413 3172 3097 
Q 3431 2781 3431 2113 
L 3431 331 
L 3944 331 
L 3944 0 
L 2356 0 
L 2356 331 
L 2853 331 
L 2853 1931 
Q 2853 2541 2703 2767 
Q 2553 2994 2175 2994 
Q 1775 2994 1565 2701 
Q 1356 2409 1356 1850 
L 1356 331 
L 1856 331 
L 1856 0 
L 263 0 
z
" transform="scale(0.015625)"/>
        <path id="DejaVuSerif-2d" d="M 281 1959 
L 1881 1959 
L 1881 1472 
L 281 1472 
L 281 1959 
z
" transform="scale(0.015625)"/>
        <path id="DejaVuSerif-6d" d="M 3316 2675 
Q 3481 3041 3739 3227 
Q 3997 3413 4341 3413 
Q 4863 3413 5119 3089 
Q 5375 2766 5375 2113 
L 5375 331 
L 5894 331 
L 5894 0 
L 4300 0 
L 4300 331 
L 4800 331 
L 4800 2047 
Q 4800 2556 4650 2772 
Q 4500 2988 4153 2988 
Q 3769 2988 3567 2697 
Q 3366 2406 3366 1850 
L 3366 331 
L 3866 331 
L 3866 0 
L 2291 0 
L 2291 331 
L 2791 331 
L 2791 2069 
Q 2791 2566 2641 2777 
Q 2491 2988 2144 2988 
Q 1759 2988 1557 2697 
Q 1356 2406 1356 1850 
L 1356 331 
L 1856 331 
L 1856 0 
L 263 0 
L 263 331 
L 781 331 
L 781 2994 
L 231 2994 
L 231 3322 
L 1356 3322 
L 1356 2731 
Q 1516 3063 1762 3238 
Q 2009 3413 2322 3413 
Q 2709 3413 2968 3220 
Q 3228 3028 3316 2675 
z
" transform="scale(0.015625)"/>
        <path id="DejaVuSerif-65" d="M 3469 1600 
L 991 1600 
L 991 1575 
Q 991 903 1244 561 
Q 1497 219 1991 219 
Q 2369 219 2611 417 
Q 2853 616 2950 1006 
L 3413 1006 
Q 3275 459 2904 184 
Q 2534 -91 1931 -91 
Q 1203 -91 761 389 
Q 319 869 319 1663 
Q 319 2450 753 2931 
Q 1188 3413 1894 3413 
Q 2647 3413 3050 2948 
Q 3453 2484 3469 1600 
z
M 2791 1931 
Q 2772 2513 2545 2808 
Q 2319 3103 1894 3103 
Q 1497 3103 1269 2806 
Q 1041 2509 991 1931 
L 2791 1931 
z
" transform="scale(0.015625)"/>
        <path id="DejaVuSerif-62" d="M 738 331 
L 738 4531 
L 184 4531 
L 184 4863 
L 1313 4863 
L 1313 2803 
Q 1481 3116 1742 3264 
Q 2003 3413 2388 3413 
Q 3000 3413 3387 2928 
Q 3775 2444 3775 1663 
Q 3775 881 3387 395 
Q 3000 -91 2388 -91 
Q 2003 -91 1742 57 
Q 1481 206 1313 519 
L 1313 0 
L 184 0 
L 184 331 
L 738 331 
z
M 1313 1497 
Q 1313 897 1542 583 
Q 1772 269 2209 269 
Q 2650 269 2876 622 
Q 3103 975 3103 1663 
Q 3103 2353 2876 2703 
Q 2650 3053 2209 3053 
Q 1772 3053 1542 2737 
Q 1313 2422 1313 1825 
L 1313 1497 
z
" transform="scale(0.015625)"/>
        <path id="DejaVuSerif-72" d="M 3059 3328 
L 3059 2497 
L 2728 2497 
Q 2713 2744 2591 2866 
Q 2469 2988 2234 2988 
Q 1809 2988 1582 2694 
Q 1356 2400 1356 1850 
L 1356 331 
L 2022 331 
L 2022 0 
L 263 0 
L 263 331 
L 781 331 
L 781 2994 
L 231 2994 
L 231 3322 
L 1356 3322 
L 1356 2731 
Q 1525 3078 1790 3245 
Q 2056 3413 2438 3413 
Q 2578 3413 2733 3391 
Q 2888 3369 3059 3328 
z
" transform="scale(0.015625)"/>
        <path id="DejaVuSerif-20" transform="scale(0.015625)"/>
        <path id="DejaVuSerif-57" d="M 4878 0 
L 4366 0 
L 3297 3794 
L 2228 0 
L 1716 0 
L 494 4331 
L 31 4331 
L 31 4666 
L 1734 4666 
L 1734 4331 
L 1153 4331 
L 2125 884 
L 3188 4666 
L 3694 4666 
L 4775 844 
L 5753 4331 
L 5216 4331 
L 5216 4666 
L 6559 4666 
L 6559 4331 
L 6100 4331 
L 4878 0 
z
" transform="scale(0.015625)"/>
        <path id="DejaVuSerif-54" d="M 1222 0 
L 1222 331 
L 1819 331 
L 1819 4294 
L 447 4294 
L 447 3566 
L 63 3566 
L 63 4666 
L 4206 4666 
L 4206 3566 
L 3822 3566 
L 3822 4294 
L 2450 4294 
L 2450 331 
L 3047 331 
L 3047 0 
L 1222 0 
z
" transform="scale(0.015625)"/>
       </defs>
       <use xlink:href="#DejaVuSerif-4e"/>
       <use xlink:href="#DejaVuSerif-6f" transform="translate(87.5 0)"/>
       <use xlink:href="#DejaVuSerif-6e" transform="translate(147.705078 0)"/>
       <use xlink:href="#DejaVuSerif-2d" transform="translate(212.109375 0)"/>
       <use xlink:href="#DejaVuSerif-6d" transform="translate(245.898438 0)"/>
       <use xlink:href="#DejaVuSerif-65" transform="translate(340.722656 0)"/>
       <use xlink:href="#DejaVuSerif-6d" transform="translate(399.902344 0)"/>
       <use xlink:href="#DejaVuSerif-62" transform="translate(494.726562 0)"/>
       <use xlink:href="#DejaVuSerif-65" transform="translate(558.740234 0)"/>
       <use xlink:href="#DejaVuSerif-72" transform="translate(617.919922 0)"/>
       <use xlink:href="#DejaVuSerif-73" transform="translate(665.722656 0)"/>
       <use xlink:href="#DejaVuSerif-20" transform="translate(717.041016 0)"/>
       <use xlink:href="#DejaVuSerif-57" transform="translate(748.828125 0)"/>
       <use xlink:href="#DejaVuSerif-54" transform="translate(851.611328 0)"/>
      </g>
     </g>
    </g>
    <g id="xtick_3">
     <g id="line2d_3">
      <g>
       <use xlink:href="#mde3d63dec6" x="216.31" y="404.12" style="stroke: #000000; stroke-width: 0.8"/>
      </g>
     </g>
     <g id="text_3">
      <!-- mutants -->
      <g transform="translate(195.562344 418.718437) scale(0.1 -0.1)">
       <defs>
        <path id="DejaVuSerif-75" d="M 2266 3322 
L 3341 3322 
L 3341 331 
L 3884 331 
L 3884 0 
L 2766 0 
L 2766 588 
Q 2606 256 2353 82 
Q 2100 -91 1766 -91 
Q 1213 -91 952 223 
Q 691 538 691 1209 
L 691 2988 
L 172 2988 
L 172 3322 
L 1269 3322 
L 1269 1388 
Q 1269 781 1417 556 
Q 1566 331 1947 331 
Q 2347 331 2556 625 
Q 2766 919 2766 1478 
L 2766 2988 
L 2266 2988 
L 2266 3322 
z
" transform="scale(0.015625)"/>
        <path id="DejaVuSerif-74" d="M 691 2988 
L 184 2988 
L 184 3322 
L 691 3322 
L 691 4353 
L 1269 4353 
L 1269 3322 
L 2350 3322 
L 2350 2988 
L 1269 2988 
L 1269 878 
Q 1269 456 1350 337 
Q 1431 219 1650 219 
Q 1875 219 1978 351 
Q 2081 484 2088 781 
L 2522 781 
Q 2497 328 2275 118 
Q 2053 -91 1600 -91 
Q 1103 -91 897 129 
Q 691 350 691 878 
L 691 2988 
z
" transform="scale(0.015625)"/>
        <path id="DejaVuSerif-61" d="M 2547 1044 
L 2547 1747 
L 1806 1747 
Q 1378 1747 1168 1562 
Q 959 1378 959 997 
Q 959 650 1171 447 
Q 1384 244 1747 244 
Q 2106 244 2326 466 
Q 2547 688 2547 1044 
z
M 3122 2075 
L 3122 331 
L 3634 331 
L 3634 0 
L 2547 0 
L 2547 359 
Q 2356 128 2106 18 
Q 1856 -91 1522 -91 
Q 969 -91 644 203 
Q 319 497 319 997 
Q 319 1513 691 1797 
Q 1063 2081 1741 2081 
L 2547 2081 
L 2547 2309 
Q 2547 2688 2317 2895 
Q 2088 3103 1672 3103 
Q 1328 3103 1125 2947 
Q 922 2791 872 2484 
L 575 2484 
L 575 3156 
Q 875 3284 1158 3348 
Q 1441 3413 1709 3413 
Q 2400 3413 2761 3070 
Q 3122 2728 3122 2075 
z
" transform="scale(0.015625)"/>
       </defs>
       <use xlink:href="#DejaVuSerif-6d"/>
       <use xlink:href="#DejaVuSerif-75" transform="translate(94.824219 0)"/>
       <use xlink:href="#DejaVuSerif-74" transform="translate(159.228516 0)"/>
       <use xlink:href="#DejaVuSerif-61" transform="translate(199.414062 0)"/>
       <use xlink:href="#DejaVuSerif-6e" transform="translate(259.033203 0)"/>
       <use xlink:href="#DejaVuSerif-74" transform="translate(323.4375 0)"/>
       <use xlink:href="#DejaVuSerif-73" transform="translate(363.623047 0)"/>
      </g>
     </g>
    </g>
   </g>
   <g id="matplotlib.axis_2">
    <g id="ytick_1">
     <g id="line2d_4">
      <defs>
       <path id="mc1e40d4a83" d="M 0 0 
L -3.5 0 
" style="stroke: #000000; stroke-width: 0.8"/>
      </defs>
      <g>
       <use xlink:href="#mc1e40d4a83" x="33.64" y="385.913907" style="stroke: #000000; stroke-width: 0.8"/>
      </g>
     </g>
     <g id="text_4">
      <!-- 0.5 -->
      <g transform="translate(10.736875 389.713126) scale(0.1 -0.1)">
       <defs>
        <path id="DejaVuSerif-30" d="M 2034 219 
Q 2513 219 2750 744 
Q 2988 1269 2988 2328 
Q 2988 3391 2750 3916 
Q 2513 4441 2034 4441 
Q 1556 4441 1318 3916 
Q 1081 3391 1081 2328 
Q 1081 1269 1318 744 
Q 1556 219 2034 219 
z
M 2034 -91 
Q 1275 -91 848 546 
Q 422 1184 422 2328 
Q 422 3475 848 4112 
Q 1275 4750 2034 4750 
Q 2797 4750 3222 4112 
Q 3647 3475 3647 2328 
Q 3647 1184 3222 546 
Q 2797 -91 2034 -91 
z
" transform="scale(0.015625)"/>
        <path id="DejaVuSerif-2e" d="M 603 325 
Q 603 500 722 622 
Q 841 744 1019 744 
Q 1191 744 1312 622 
Q 1434 500 1434 325 
Q 1434 153 1312 31 
Q 1191 -91 1019 -91 
Q 841 -91 722 29 
Q 603 150 603 325 
z
" transform="scale(0.015625)"/>
        <path id="DejaVuSerif-35" d="M 3219 4666 
L 3219 4153 
L 1081 4153 
L 1081 2816 
Q 1244 2928 1461 2984 
Q 1678 3041 1947 3041 
Q 2703 3041 3140 2622 
Q 3578 2203 3578 1478 
Q 3578 738 3136 323 
Q 2694 -91 1894 -91 
Q 1572 -91 1234 -12 
Q 897 66 544 225 
L 544 1131 
L 897 1131 
Q 925 688 1179 453 
Q 1434 219 1894 219 
Q 2388 219 2653 544 
Q 2919 869 2919 1478 
Q 2919 2084 2655 2407 
Q 2391 2731 1894 2731 
Q 1613 2731 1398 2631 
Q 1184 2531 1019 2322 
L 750 2322 
L 750 4666 
L 3219 4666 
z
" transform="scale(0.015625)"/>
       </defs>
       <use xlink:href="#DejaVuSerif-30"/>
       <use xlink:href="#DejaVuSerif-2e" transform="translate(63.623047 0)"/>
       <use xlink:href="#DejaVuSerif-35" transform="translate(95.410156 0)"/>
      </g>
     </g>
    </g>
    <g id="ytick_2">
     <g id="line2d_5">
      <g>
       <use xlink:href="#mc1e40d4a83" x="33.64" y="327.879267" style="stroke: #000000; stroke-width: 0.8"/>
      </g>
     </g>
     <g id="text_5">
      <!-- 1.0 -->
      <g transform="translate(10.736875 331.678486) scale(0.1 -0.1)">
       <defs>
        <path id="DejaVuSerif-31" d="M 909 0 
L 909 331 
L 1722 331 
L 1722 4213 
L 781 3603 
L 781 4013 
L 1919 4750 
L 2350 4750 
L 2350 331 
L 3163 331 
L 3163 0 
L 909 0 
z
" transform="scale(0.015625)"/>
       </defs>
       <use xlink:href="#DejaVuSerif-31"/>
       <use xlink:href="#DejaVuSerif-2e" transform="translate(63.623047 0)"/>
       <use xlink:href="#DejaVuSerif-30" transform="translate(95.410156 0)"/>
      </g>
     </g>
    </g>
    <g id="ytick_3">
     <g id="line2d_6">
      <g>
       <use xlink:href="#mc1e40d4a83" x="33.64" y="269.844627" style="stroke: #000000; stroke-width: 0.8"/>
      </g>
     </g>
     <g id="text_6">
      <!-- 1.5 -->
      <g transform="translate(10.736875 273.643846) scale(0.1 -0.1)">
       <use xlink:href="#DejaVuSerif-31"/>
       <use xlink:href="#DejaVuSerif-2e" transform="translate(63.623047 0)"/>
       <use xlink:href="#DejaVuSerif-35" transform="translate(95.410156 0)"/>
      </g>
     </g>
    </g>
    <g id="ytick_4">
     <g id="line2d_7">
      <g>
       <use xlink:href="#mc1e40d4a83" x="33.64" y="211.809987" style="stroke: #000000; stroke-width: 0.8"/>
      </g>
     </g>
     <g id="text_7">
      <!-- 2.0 -->
      <g transform="translate(10.736875 215.609206) scale(0.1 -0.1)">
       <defs>
        <path id="DejaVuSerif-32" d="M 819 3553 
L 469 3553 
L 469 4384 
Q 803 4563 1142 4656 
Q 1481 4750 1806 4750 
Q 2534 4750 2956 4397 
Q 3378 4044 3378 3438 
Q 3378 2753 2422 1800 
Q 2347 1728 2309 1691 
L 1131 513 
L 3078 513 
L 3078 1088 
L 3444 1088 
L 3444 0 
L 434 0 
L 434 341 
L 1850 1753 
Q 2319 2222 2519 2614 
Q 2719 3006 2719 3438 
Q 2719 3909 2473 4175 
Q 2228 4441 1797 4441 
Q 1350 4441 1106 4219 
Q 863 3997 819 3553 
z
" transform="scale(0.015625)"/>
       </defs>
       <use xlink:href="#DejaVuSerif-32"/>
       <use xlink:href="#DejaVuSerif-2e" transform="translate(63.623047 0)"/>
       <use xlink:href="#DejaVuSerif-30" transform="translate(95.410156 0)"/>
      </g>
     </g>
    </g>
    <g id="ytick_5">
     <g id="line2d_8">
      <g>
       <use xlink:href="#mc1e40d4a83" x="33.64" y="153.775347" style="stroke: #000000; stroke-width: 0.8"/>
      </g>
     </g>
     <g id="text_8">
      <!-- 2.5 -->
      <g transform="translate(10.736875 157.574566) scale(0.1 -0.1)">
       <use xlink:href="#DejaVuSerif-32"/>
       <use xlink:href="#DejaVuSerif-2e" transform="translate(63.623047 0)"/>
       <use xlink:href="#DejaVuSerif-35" transform="translate(95.410156 0)"/>
      </g>
     </g>
    </g>
    <g id="ytick_6">
     <g id="line2d_9">
      <g>
       <use xlink:href="#mc1e40d4a83" x="33.64" y="95.740707" style="stroke: #000000; stroke-width: 0.8"/>
      </g>
     </g>
     <g id="text_9">
      <!-- 3.0 -->
      <g transform="translate(10.736875 99.539926) scale(0.1 -0.1)">
       <defs>
        <path id="DejaVuSerif-33" d="M 622 4469 
Q 988 4606 1323 4678 
Q 1659 4750 1953 4750 
Q 2638 4750 3022 4454 
Q 3406 4159 3406 3634 
Q 3406 3213 3140 2930 
Q 2875 2647 2388 2547 
Q 2963 2466 3280 2130 
Q 3597 1794 3597 1259 
Q 3597 606 3158 257 
Q 2719 -91 1894 -91 
Q 1528 -91 1179 -12 
Q 831 66 488 225 
L 488 1131 
L 838 1131 
Q 869 681 1141 450 
Q 1413 219 1906 219 
Q 2384 219 2661 495 
Q 2938 772 2938 1253 
Q 2938 1803 2653 2086 
Q 2369 2369 1819 2369 
L 1522 2369 
L 1522 2688 
L 1678 2688 
Q 2225 2688 2498 2914 
Q 2772 3141 2772 3597 
Q 2772 4006 2547 4223 
Q 2322 4441 1900 4441 
Q 1478 4441 1245 4241 
Q 1013 4041 972 3647 
L 622 3647 
L 622 4469 
z
" transform="scale(0.015625)"/>
       </defs>
       <use xlink:href="#DejaVuSerif-33"/>
       <use xlink:href="#DejaVuSerif-2e" transform="translate(63.623047 0)"/>
       <use xlink:href="#DejaVuSerif-30" transform="translate(95.410156 0)"/>
      </g>
     </g>
    </g>
   </g>
   <g id="line2d_10">
    <path d="M 85.3965 358.175356 
L 103.6635 358.175356 
L 103.6635 313.962815 
L 85.3965 313.962815 
L 85.3965 358.175356 
" clip-path="url(#pf7a49423c2)" style="fill: none; stroke: #000000; stroke-linecap: square"/>
   </g>
   <g id="line2d_11">
    <path d="M 94.53 358.175356 
L 94.53 388.864364 
" clip-path="url(#pf7a49423c2)" style="fill: none; stroke: #000000; stroke-linecap: square"/>
   </g>
   <g id="line2d_12">
    <path d="M 94.53 313.962815 
L 94.53 271.021164 
" clip-path="url(#pf7a49423c2)" style="fill: none; stroke: #000000; stroke-linecap: square"/>
   </g>
   <g id="line2d_13">
    <path d="M 89.96325 388.864364 
L 99.09675 388.864364 
" clip-path="url(#pf7a49423c2)" style="fill: none; stroke: #000000; stroke-linecap: square"/>
   </g>
   <g id="line2d_14">
    <path d="M 89.96325 271.021164 
L 99.09675 271.021164 
" clip-path="url(#pf7a49423c2)" style="fill: none; stroke: #000000; stroke-linecap: square"/>
   </g>
   <g id="line2d_15">
    <path d="M 146.2865 332.445931 
L 164.5535 332.445931 
L 164.5535 261.546623 
L 146.2865 261.546623 
L 146.2865 332.445931 
" clip-path="url(#pf7a49423c2)" style="fill: none; stroke: #000000; stroke-linecap: square"/>
   </g>
   <g id="line2d_16">
    <path d="M 155.42 332.445931 
L 155.42 369.494084 
" clip-path="url(#pf7a49423c2)" style="fill: none; stroke: #000000; stroke-linecap: square"/>
   </g>
   <g id="line2d_17">
    <path d="M 155.42 261.546623 
L 155.42 156.377984 
" clip-path="url(#pf7a49423c2)" style="fill: none; stroke: #000000; stroke-linecap: square"/>
   </g>
   <g id="line2d_18">
    <path d="M 150.85325 369.494084 
L 159.98675 369.494084 
" clip-path="url(#pf7a49423c2)" style="fill: none; stroke: #000000; stroke-linecap: square"/>
   </g>
   <g id="line2d_19">
    <path d="M 150.85325 156.377984 
L 159.98675 156.377984 
" clip-path="url(#pf7a49423c2)" style="fill: none; stroke: #000000; stroke-linecap: square"/>
   </g>
   <g id="line2d_20">
    <path d="M 207.1765 321.145612 
L 225.4435 321.145612 
L 225.4435 231.744817 
L 207.1765 231.744817 
L 207.1765 321.145612 
" clip-path="url(#pf7a49423c2)" style="fill: none; stroke: #000000; stroke-linecap: square"/>
   </g>
   <g id="line2d_21">
    <path d="M 216.31 321.145612 
L 216.31 367.065999 
" clip-path="url(#pf7a49423c2)" style="fill: none; stroke: #000000; stroke-linecap: square"/>
   </g>
   <g id="line2d_22">
    <path d="M 216.31 231.744817 
L 216.31 138.981906 
" clip-path="url(#pf7a49423c2)" style="fill: none; stroke: #000000; stroke-linecap: square"/>
   </g>
   <g id="line2d_23">
    <path d="M 211.74325 367.065999 
L 220.87675 367.065999 
" clip-path="url(#pf7a49423c2)" style="fill: none; stroke: #000000; stroke-linecap: square"/>
   </g>
   <g id="line2d_24">
    <path d="M 211.74325 138.981906 
L 220.87675 138.981906 
" clip-path="url(#pf7a49423c2)" style="fill: none; stroke: #000000; stroke-linecap: square"/>
   </g>
   <g id="LineCollection_1">
    <path d="M 86.91875 336.722059 
L 102.14125 336.722059 
" clip-path="url(#pf7a49423c2)" style="fill: none; stroke: #000000; stroke-width: 5"/>
    <path d="M 143.8509 307.908993 
L 166.9891 307.908993 
" clip-path="url(#pf7a49423c2)" style="fill: none; stroke: #000000; stroke-width: 5"/>
    <path d="M 208.69875 283.190144 
L 223.92125 283.190144 
" clip-path="url(#pf7a49423c2)" style="fill: none; stroke: #000000; stroke-width: 5"/>
   </g>
   <g id="line2d_25">
    <path d="M 91.4855 118.241663 
L 91.4855 112.744248 
L 152.3755 112.744248 
L 152.3755 118.241663 
" clip-path="url(#pf7a49423c2)" style="fill: none; stroke: #000000; stroke-linecap: square"/>
   </g>
   <g id="line2d_26">
    <path d="M 152.3755 89.826279 
L 152.3755 83.751636 
L 213.2655 83.751636 
L 213.2655 89.826279 
" clip-path="url(#pf7a49423c2)" style="fill: none; stroke: #000000; stroke-linecap: square"/>
   </g>
   <g id="patch_3">
    <path d="M 33.64 404.12 
L 33.64 68.496 
" style="fill: none; stroke: #000000; stroke-width: 0.8; stroke-linejoin: miter; stroke-linecap: square"/>
   </g>
   <g id="patch_4">
    <path d="M 277.2 404.12 
L 277.2 68.496 
" style="fill: none; stroke: #000000; stroke-width: 0.8; stroke-linejoin: miter; stroke-linecap: square"/>
   </g>
   <g id="patch_5">
    <path d="M 33.64 404.12 
L 277.2 404.12 
" style="fill: none; stroke: #000000; stroke-width: 0.8; stroke-linejoin: miter; stroke-linecap: square"/>
   </g>
   <g id="patch_6">
    <path d="M 33.64 68.496 
L 277.2 68.496 
" style="fill: none; stroke: #000000; stroke-width: 0.8; stroke-linejoin: miter; stroke-linecap: square"/>
   </g>
   <g id="text_10">
    <!-- * -->
    <g transform="translate(119.4305 107.915854) scale(0.1 -0.1)">
     <defs>
      <path id="DejaVuSerif-2a" d="M 3097 3866 
L 1875 3297 
L 3097 2719 
L 2859 2350 
L 1772 3028 
L 1813 1838 
L 1388 1838 
L 1428 3028 
L 341 2350 
L 103 2719 
L 1325 3291 
L 103 3866 
L 341 4238 
L 1428 3559 
L 1388 4750 
L 1813 4750 
L 1772 3559 
L 2859 4238 
L 3097 3866 
z
" transform="scale(0.015625)"/>
     </defs>
     <use xlink:href="#DejaVuSerif-2a"/>
    </g>
   </g>
   <g id="text_11">
    <!-- * -->
    <g transform="translate(180.3205 78.634628) scale(0.1 -0.1)">
     <use xlink:href="#DejaVuSerif-2a"/>
    </g>
   </g>
   <g id="text_12">
    <!-- summed outNEF -->
    <g transform="translate(104.117188 22.183875) scale(0.12 -0.12)">
     <defs>
      <path id="DejaVuSerif-64" d="M 3359 331 
L 3909 331 
L 3909 0 
L 2784 0 
L 2784 519 
Q 2616 206 2355 57 
Q 2094 -91 1709 -91 
Q 1097 -91 708 395 
Q 319 881 319 1663 
Q 319 2444 706 2928 
Q 1094 3413 1709 3413 
Q 2094 3413 2355 3264 
Q 2616 3116 2784 2803 
L 2784 4531 
L 2241 4531 
L 2241 4863 
L 3359 4863 
L 3359 331 
z
M 2784 1497 
L 2784 1825 
Q 2784 2422 2554 2737 
Q 2325 3053 1888 3053 
Q 1444 3053 1217 2703 
Q 991 2353 991 1663 
Q 991 975 1217 622 
Q 1444 269 1888 269 
Q 2325 269 2554 583 
Q 2784 897 2784 1497 
z
" transform="scale(0.015625)"/>
      <path id="DejaVuSerif-45" d="M 353 0 
L 353 331 
L 947 331 
L 947 4331 
L 353 4331 
L 353 4666 
L 4109 4666 
L 4109 3628 
L 3725 3628 
L 3725 4281 
L 1581 4281 
L 1581 2719 
L 3109 2719 
L 3109 3303 
L 3494 3303 
L 3494 1753 
L 3109 1753 
L 3109 2338 
L 1581 2338 
L 1581 384 
L 3775 384 
L 3775 1038 
L 4159 1038 
L 4159 0 
L 353 0 
z
" transform="scale(0.015625)"/>
      <path id="DejaVuSerif-46" d="M 353 0 
L 353 331 
L 947 331 
L 947 4331 
L 353 4331 
L 353 4666 
L 4172 4666 
L 4172 3628 
L 3788 3628 
L 3788 4281 
L 1581 4281 
L 1581 2719 
L 3175 2719 
L 3175 3303 
L 3559 3303 
L 3559 1753 
L 3175 1753 
L 3175 2338 
L 1581 2338 
L 1581 331 
L 2328 331 
L 2328 0 
L 353 0 
z
" transform="scale(0.015625)"/>
     </defs>
     <use xlink:href="#DejaVuSerif-73"/>
     <use xlink:href="#DejaVuSerif-75" transform="translate(51.318359 0)"/>
     <use xlink:href="#DejaVuSerif-6d" transform="translate(115.722656 0)"/>
     <use xlink:href="#DejaVuSerif-6d" transform="translate(210.546875 0)"/>
     <use xlink:href="#DejaVuSerif-65" transform="translate(305.371094 0)"/>
     <use xlink:href="#DejaVuSerif-64" transform="translate(364.550781 0)"/>
     <use xlink:href="#DejaVuSerif-20" transform="translate(428.564453 0)"/>
     <use xlink:href="#DejaVuSerif-6f" transform="translate(460.351562 0)"/>
     <use xlink:href="#DejaVuSerif-75" transform="translate(520.556641 0)"/>
     <use xlink:href="#DejaVuSerif-74" transform="translate(584.960938 0)"/>
     <use xlink:href="#DejaVuSerif-4e" transform="translate(625.146484 0)"/>
     <use xlink:href="#DejaVuSerif-45" transform="translate(712.646484 0)"/>
     <use xlink:href="#DejaVuSerif-46" transform="translate(785.644531 0)"/>
    </g>
    <!--  mnn = None thresh = 0, summation = mean -->
    <g transform="translate(17.726563 35.62125) scale(0.12 -0.12)">
     <defs>
      <path id="DejaVuSerif-3d" d="M 678 2894 
L 4684 2894 
L 4684 2394 
L 678 2394 
L 678 2894 
z
M 678 1619 
L 4684 1619 
L 4684 1119 
L 678 1119 
L 678 1619 
z
" transform="scale(0.015625)"/>
      <path id="DejaVuSerif-68" d="M 263 0 
L 263 331 
L 781 331 
L 781 4531 
L 231 4531 
L 231 4863 
L 1356 4863 
L 1356 2731 
Q 1516 3069 1770 3241 
Q 2025 3413 2363 3413 
Q 2913 3413 3172 3097 
Q 3431 2781 3431 2113 
L 3431 331 
L 3944 331 
L 3944 0 
L 2356 0 
L 2356 331 
L 2853 331 
L 2853 1931 
Q 2853 2541 2704 2764 
Q 2556 2988 2175 2988 
Q 1775 2988 1565 2697 
Q 1356 2406 1356 1850 
L 1356 331 
L 1856 331 
L 1856 0 
L 263 0 
z
" transform="scale(0.015625)"/>
      <path id="DejaVuSerif-2c" d="M 231 -622 
Q 525 -406 662 -114 
Q 800 178 800 594 
L 800 709 
L 1416 709 
Q 1391 175 1164 -208 
Q 938 -591 481 -872 
L 231 -622 
z
" transform="scale(0.015625)"/>
      <path id="DejaVuSerif-69" d="M 622 4353 
Q 622 4497 726 4603 
Q 831 4709 978 4709 
Q 1122 4709 1226 4603 
Q 1331 4497 1331 4353 
Q 1331 4206 1228 4103 
Q 1125 4000 978 4000 
Q 831 4000 726 4103 
Q 622 4206 622 4353 
z
M 1356 331 
L 1900 331 
L 1900 0 
L 231 0 
L 231 331 
L 781 331 
L 781 2988 
L 231 2988 
L 231 3322 
L 1356 3322 
L 1356 331 
z
" transform="scale(0.015625)"/>
     </defs>
     <use xlink:href="#DejaVuSerif-20"/>
     <use xlink:href="#DejaVuSerif-6d" transform="translate(31.787109 0)"/>
     <use xlink:href="#DejaVuSerif-6e" transform="translate(126.611328 0)"/>
     <use xlink:href="#DejaVuSerif-6e" transform="translate(191.015625 0)"/>
     <use xlink:href="#DejaVuSerif-20" transform="translate(255.419922 0)"/>
     <use xlink:href="#DejaVuSerif-3d" transform="translate(287.207031 0)"/>
     <use xlink:href="#DejaVuSerif-20" transform="translate(370.996094 0)"/>
     <use xlink:href="#DejaVuSerif-4e" transform="translate(402.783203 0)"/>
     <use xlink:href="#DejaVuSerif-6f" transform="translate(490.283203 0)"/>
     <use xlink:href="#DejaVuSerif-6e" transform="translate(550.488281 0)"/>
     <use xlink:href="#DejaVuSerif-65" transform="translate(614.892578 0)"/>
     <use xlink:href="#DejaVuSerif-20" transform="translate(674.072266 0)"/>
     <use xlink:href="#DejaVuSerif-74" transform="translate(705.859375 0)"/>
     <use xlink:href="#DejaVuSerif-68" transform="translate(746.044922 0)"/>
     <use xlink:href="#DejaVuSerif-72" transform="translate(810.449219 0)"/>
     <use xlink:href="#DejaVuSerif-65" transform="translate(858.251953 0)"/>
     <use xlink:href="#DejaVuSerif-73" transform="translate(917.431641 0)"/>
     <use xlink:href="#DejaVuSerif-68" transform="translate(968.75 0)"/>
     <use xlink:href="#DejaVuSerif-20" transform="translate(1033.154297 0)"/>
     <use xlink:href="#DejaVuSerif-3d" transform="translate(1064.941406 0)"/>
     <use xlink:href="#DejaVuSerif-20" transform="translate(1148.730469 0)"/>
     <use xlink:href="#DejaVuSerif-30" transform="translate(1180.517578 0)"/>
     <use xlink:href="#DejaVuSerif-2c" transform="translate(1244.140625 0)"/>
     <use xlink:href="#DejaVuSerif-20" transform="translate(1275.927734 0)"/>
     <use xlink:href="#DejaVuSerif-73" transform="translate(1307.714844 0)"/>
     <use xlink:href="#DejaVuSerif-75" transform="translate(1359.033203 0)"/>
     <use xlink:href="#DejaVuSerif-6d" transform="translate(1423.4375 0)"/>
     <use xlink:href="#DejaVuSerif-6d" transform="translate(1518.261719 0)"/>
     <use xlink:href="#DejaVuSerif-61" transform="translate(1613.085938 0)"/>
     <use xlink:href="#DejaVuSerif-74" transform="translate(1672.705078 0)"/>
     <use xlink:href="#DejaVuSerif-69" transform="translate(1712.890625 0)"/>
     <use xlink:href="#DejaVuSerif-6f" transform="translate(1744.873047 0)"/>
     <use xlink:href="#DejaVuSerif-6e" transform="translate(1805.078125 0)"/>
     <use xlink:href="#DejaVuSerif-20" transform="translate(1869.482422 0)"/>
     <use xlink:href="#DejaVuSerif-3d" transform="translate(1901.269531 0)"/>
     <use xlink:href="#DejaVuSerif-20" transform="translate(1985.058594 0)"/>
     <use xlink:href="#DejaVuSerif-6d" transform="translate(2016.845703 0)"/>
     <use xlink:href="#DejaVuSerif-65" transform="translate(2111.669922 0)"/>
     <use xlink:href="#DejaVuSerif-61" transform="translate(2170.849609 0)"/>
     <use xlink:href="#DejaVuSerif-6e" transform="translate(2230.46875 0)"/>
    </g>
    <!--  norm. = CV, inGroupNorm = False -->
    <g transform="translate(48.134375 49.058625) scale(0.12 -0.12)">
     <defs>
      <path id="DejaVuSerif-56" d="M 1119 4331 
L 2497 750 
L 3872 4331 
L 3347 4331 
L 3347 4666 
L 4716 4666 
L 4716 4331 
L 4263 4331 
L 2597 0 
L 2059 0 
L 403 4331 
L -63 4331 
L -63 4666 
L 1638 4666 
L 1638 4331 
L 1119 4331 
z
" transform="scale(0.015625)"/>
      <path id="DejaVuSerif-47" d="M 4097 3272 
Q 3988 3856 3641 4136 
Q 3294 4416 2675 4416 
Q 1869 4416 1472 3897 
Q 1075 3378 1075 2328 
Q 1075 1300 1484 772 
Q 1894 244 2688 244 
Q 3041 244 3362 331 
Q 3684 419 3975 594 
L 3975 1797 
L 3097 1797 
L 3097 2131 
L 4609 2131 
L 4609 391 
Q 4194 150 3714 29 
Q 3234 -91 2688 -91 
Q 1631 -91 995 570 
Q 359 1231 359 2328 
Q 359 3434 996 4092 
Q 1634 4750 2713 4750 
Q 3113 4750 3539 4658 
Q 3966 4566 4447 4378 
L 4447 3272 
L 4097 3272 
z
" transform="scale(0.015625)"/>
      <path id="DejaVuSerif-70" d="M 1313 1825 
L 1313 1497 
Q 1313 897 1542 583 
Q 1772 269 2209 269 
Q 2650 269 2876 622 
Q 3103 975 3103 1663 
Q 3103 2353 2876 2703 
Q 2650 3053 2209 3053 
Q 1772 3053 1542 2737 
Q 1313 2422 1313 1825 
z
M 738 2988 
L 184 2988 
L 184 3322 
L 1313 3322 
L 1313 2803 
Q 1481 3116 1742 3264 
Q 2003 3413 2388 3413 
Q 3000 3413 3387 2928 
Q 3775 2444 3775 1663 
Q 3775 881 3387 395 
Q 3000 -91 2388 -91 
Q 2003 -91 1742 57 
Q 1481 206 1313 519 
L 1313 -997 
L 1856 -997 
L 1856 -1331 
L 184 -1331 
L 184 -997 
L 738 -997 
L 738 2988 
z
" transform="scale(0.015625)"/>
      <path id="DejaVuSerif-6c" d="M 1313 331 
L 1856 331 
L 1856 0 
L 184 0 
L 184 331 
L 738 331 
L 738 4531 
L 184 4531 
L 184 4863 
L 1313 4863 
L 1313 331 
z
" transform="scale(0.015625)"/>
     </defs>
     <use xlink:href="#DejaVuSerif-20"/>
     <use xlink:href="#DejaVuSerif-6e" transform="translate(31.787109 0)"/>
     <use xlink:href="#DejaVuSerif-6f" transform="translate(96.191406 0)"/>
     <use xlink:href="#DejaVuSerif-72" transform="translate(156.396484 0)"/>
     <use xlink:href="#DejaVuSerif-6d" transform="translate(204.199219 0)"/>
     <use xlink:href="#DejaVuSerif-2e" transform="translate(299.023438 0)"/>
     <use xlink:href="#DejaVuSerif-20" transform="translate(330.810547 0)"/>
     <use xlink:href="#DejaVuSerif-3d" transform="translate(362.597656 0)"/>
     <use xlink:href="#DejaVuSerif-20" transform="translate(446.386719 0)"/>
     <use xlink:href="#DejaVuSerif-43" transform="translate(478.173828 0)"/>
     <use xlink:href="#DejaVuSerif-56" transform="translate(554.6875 0)"/>
     <use xlink:href="#DejaVuSerif-2c" transform="translate(609.404297 0)"/>
     <use xlink:href="#DejaVuSerif-20" transform="translate(641.191406 0)"/>
     <use xlink:href="#DejaVuSerif-69" transform="translate(672.978516 0)"/>
     <use xlink:href="#DejaVuSerif-6e" transform="translate(704.960938 0)"/>
     <use xlink:href="#DejaVuSerif-47" transform="translate(769.365234 0)"/>
     <use xlink:href="#DejaVuSerif-72" transform="translate(849.248047 0)"/>
     <use xlink:href="#DejaVuSerif-6f" transform="translate(897.050781 0)"/>
     <use xlink:href="#DejaVuSerif-75" transform="translate(957.255859 0)"/>
     <use xlink:href="#DejaVuSerif-70" transform="translate(1021.660156 0)"/>
     <use xlink:href="#DejaVuSerif-4e" transform="translate(1085.673828 0)"/>
     <use xlink:href="#DejaVuSerif-6f" transform="translate(1173.173828 0)"/>
     <use xlink:href="#DejaVuSerif-72" transform="translate(1233.378906 0)"/>
     <use xlink:href="#DejaVuSerif-6d" transform="translate(1281.181641 0)"/>
     <use xlink:href="#DejaVuSerif-20" transform="translate(1376.005859 0)"/>
     <use xlink:href="#DejaVuSerif-3d" transform="translate(1407.792969 0)"/>
     <use xlink:href="#DejaVuSerif-20" transform="translate(1491.582031 0)"/>
     <use xlink:href="#DejaVuSerif-46" transform="translate(1523.369141 0)"/>
     <use xlink:href="#DejaVuSerif-61" transform="translate(1586.003906 0)"/>
     <use xlink:href="#DejaVuSerif-6c" transform="translate(1645.623047 0)"/>
     <use xlink:href="#DejaVuSerif-73" transform="translate(1677.605469 0)"/>
     <use xlink:href="#DejaVuSerif-65" transform="translate(1728.923828 0)"/>
    </g>
    <!--  logscale = False, permutation test on the median. -->
    <g transform="translate(1.77125 62.496) scale(0.12 -0.12)">
     <defs>
      <path id="DejaVuSerif-67" d="M 3359 2988 
L 3359 72 
Q 3359 -644 2965 -1033 
Q 2572 -1422 1844 -1422 
Q 1516 -1422 1216 -1362 
Q 916 -1303 641 -1184 
L 641 -488 
L 941 -488 
Q 997 -813 1206 -963 
Q 1416 -1113 1806 -1113 
Q 2313 -1113 2548 -827 
Q 2784 -541 2784 72 
L 2784 519 
Q 2616 206 2355 57 
Q 2094 -91 1709 -91 
Q 1097 -91 708 395 
Q 319 881 319 1663 
Q 319 2444 706 2928 
Q 1094 3413 1709 3413 
Q 2094 3413 2355 3264 
Q 2616 3116 2784 2803 
L 2784 3322 
L 3909 3322 
L 3909 2988 
L 3359 2988 
z
M 2784 1825 
Q 2784 2422 2554 2737 
Q 2325 3053 1888 3053 
Q 1444 3053 1217 2703 
Q 991 2353 991 1663 
Q 991 975 1217 622 
Q 1444 269 1888 269 
Q 2325 269 2554 583 
Q 2784 897 2784 1497 
L 2784 1825 
z
" transform="scale(0.015625)"/>
      <path id="DejaVuSerif-63" d="M 3291 997 
Q 3169 466 2822 187 
Q 2475 -91 1925 -91 
Q 1200 -91 759 389 
Q 319 869 319 1663 
Q 319 2459 759 2936 
Q 1200 3413 1925 3413 
Q 2241 3413 2553 3339 
Q 2866 3266 3181 3116 
L 3181 2266 
L 2847 2266 
Q 2781 2703 2561 2903 
Q 2341 3103 1931 3103 
Q 1466 3103 1228 2742 
Q 991 2381 991 1663 
Q 991 944 1227 581 
Q 1463 219 1931 219 
Q 2303 219 2525 412 
Q 2747 606 2828 997 
L 3291 997 
z
" transform="scale(0.015625)"/>
     </defs>
     <use xlink:href="#DejaVuSerif-20"/>
     <use xlink:href="#DejaVuSerif-6c" transform="translate(31.787109 0)"/>
     <use xlink:href="#DejaVuSerif-6f" transform="translate(63.769531 0)"/>
     <use xlink:href="#DejaVuSerif-67" transform="translate(123.974609 0)"/>
     <use xlink:href="#DejaVuSerif-73" transform="translate(187.988281 0)"/>
     <use xlink:href="#DejaVuSerif-63" transform="translate(239.306641 0)"/>
     <use xlink:href="#DejaVuSerif-61" transform="translate(295.3125 0)"/>
     <use xlink:href="#DejaVuSerif-6c" transform="translate(354.931641 0)"/>
     <use xlink:href="#DejaVuSerif-65" transform="translate(386.914062 0)"/>
     <use xlink:href="#DejaVuSerif-20" transform="translate(446.09375 0)"/>
     <use xlink:href="#DejaVuSerif-3d" transform="translate(477.880859 0)"/>
     <use xlink:href="#DejaVuSerif-20" transform="translate(561.669922 0)"/>
     <use xlink:href="#DejaVuSerif-46" transform="translate(593.457031 0)"/>
     <use xlink:href="#DejaVuSerif-61" transform="translate(656.091797 0)"/>
     <use xlink:href="#DejaVuSerif-6c" transform="translate(715.710938 0)"/>
     <use xlink:href="#DejaVuSerif-73" transform="translate(747.693359 0)"/>
     <use xlink:href="#DejaVuSerif-65" transform="translate(799.011719 0)"/>
     <use xlink:href="#DejaVuSerif-2c" transform="translate(858.191406 0)"/>
     <use xlink:href="#DejaVuSerif-20" transform="translate(889.978516 0)"/>
     <use xlink:href="#DejaVuSerif-70" transform="translate(921.765625 0)"/>
     <use xlink:href="#DejaVuSerif-65" transform="translate(985.779297 0)"/>
     <use xlink:href="#DejaVuSerif-72" transform="translate(1044.958984 0)"/>
     <use xlink:href="#DejaVuSerif-6d" transform="translate(1092.761719 0)"/>
     <use xlink:href="#DejaVuSerif-75" transform="translate(1187.585938 0)"/>
     <use xlink:href="#DejaVuSerif-74" transform="translate(1251.990234 0)"/>
     <use xlink:href="#DejaVuSerif-61" transform="translate(1292.175781 0)"/>
     <use xlink:href="#DejaVuSerif-74" transform="translate(1351.794922 0)"/>
     <use xlink:href="#DejaVuSerif-69" transform="translate(1391.980469 0)"/>
     <use xlink:href="#DejaVuSerif-6f" transform="translate(1423.962891 0)"/>
     <use xlink:href="#DejaVuSerif-6e" transform="translate(1484.167969 0)"/>
     <use xlink:href="#DejaVuSerif-20" transform="translate(1548.572266 0)"/>
     <use xlink:href="#DejaVuSerif-74" transform="translate(1580.359375 0)"/>
     <use xlink:href="#DejaVuSerif-65" transform="translate(1620.544922 0)"/>
     <use xlink:href="#DejaVuSerif-73" transform="translate(1679.724609 0)"/>
     <use xlink:href="#DejaVuSerif-74" transform="translate(1731.042969 0)"/>
     <use xlink:href="#DejaVuSerif-20" transform="translate(1771.228516 0)"/>
     <use xlink:href="#DejaVuSerif-6f" transform="translate(1803.015625 0)"/>
     <use xlink:href="#DejaVuSerif-6e" transform="translate(1863.220703 0)"/>
     <use xlink:href="#DejaVuSerif-20" transform="translate(1927.625 0)"/>
     <use xlink:href="#DejaVuSerif-74" transform="translate(1959.412109 0)"/>
     <use xlink:href="#DejaVuSerif-68" transform="translate(1999.597656 0)"/>
     <use xlink:href="#DejaVuSerif-65" transform="translate(2064.001953 0)"/>
     <use xlink:href="#DejaVuSerif-20" transform="translate(2123.181641 0)"/>
     <use xlink:href="#DejaVuSerif-6d" transform="translate(2154.96875 0)"/>
     <use xlink:href="#DejaVuSerif-65" transform="translate(2249.792969 0)"/>
     <use xlink:href="#DejaVuSerif-64" transform="translate(2308.972656 0)"/>
     <use xlink:href="#DejaVuSerif-69" transform="translate(2372.986328 0)"/>
     <use xlink:href="#DejaVuSerif-61" transform="translate(2404.96875 0)"/>
     <use xlink:href="#DejaVuSerif-6e" transform="translate(2464.587891 0)"/>
     <use xlink:href="#DejaVuSerif-2e" transform="translate(2528.992188 0)"/>
    </g>
   </g>
  </g>
 </g>
 <defs>
  <clipPath id="pf7a49423c2">
   <rect x="33.64" y="68.496" width="243.56" height="335.624"/>
  </clipPath>
 </defs>
</svg>
