<?xml version="1.0" encoding="utf-8" standalone="no"?>
<!DOCTYPE svg PUBLIC "-//W3C//DTD SVG 1.1//EN"
  "http://www.w3.org/Graphics/SVG/1.1/DTD/svg11.dtd">
<svg xmlns:xlink="http://www.w3.org/1999/xlink" width="177.12pt" height="288.72pt" viewBox="0 0 177.12 288.72" xmlns="http://www.w3.org/2000/svg" version="1.1">
 <metadata>
  <rdf:RDF xmlns:dc="http://purl.org/dc/elements/1.1/" xmlns:cc="http://creativecommons.org/ns#" xmlns:rdf="http://www.w3.org/1999/02/22-rdf-syntax-ns#">
   <cc:Work>
    <dc:type rdf:resource="http://purl.org/dc/dcmitype/StillImage"/>
    <dc:date>2025-08-14T16:14:15.524135</dc:date>
    <dc:format>image/svg+xml</dc:format>
    <dc:creator>
     <cc:Agent>
      <dc:title>Matplotlib v3.10.0, https://matplotlib.org/</dc:title>
     </cc:Agent>
    </dc:creator>
   </cc:Work>
  </rdf:RDF>
 </metadata>
 <defs>
  <style type="text/css">*{stroke-linejoin: round; stroke-linecap: butt}</style>
 </defs>
 <g id="figure_1">
  <g id="patch_1">
   <path d="M 0 288.72 
L 177.12 288.72 
L 177.12 0 
L 0 0 
z
" style="fill: #ffffff"/>
  </g>
  <g id="axes_1">
   <g id="patch_2">
    <path d="M 20.6886 270.086867 
L 170.478 270.086867 
L 170.478 45.77816 
L 20.6886 45.77816 
z
" style="fill: #ffffff"/>
   </g>
   <g id="PathCollection_1">
    <defs>
     <path id="C0_0_19bcc300f4" d="M 0 3.872983 
C 1.027127 3.872983 2.012324 3.464901 2.738613 2.738613 
C 3.464901 2.012324 3.872983 1.027127 3.872983 -0 
C 3.872983 -1.027127 3.464901 -2.012324 2.738613 -2.738613 
C 2.012324 -3.464901 1.027127 -3.872983 0 -3.872983 
C -1.027127 -3.872983 -2.012324 -3.464901 -2.738613 -2.738613 
C -3.464901 -2.012324 -3.872983 -1.027127 -3.872983 0 
C -3.872983 1.027127 -3.464901 2.012324 -2.738613 2.738613 
C -2.012324 3.464901 -1.027127 3.872983 0 3.872983 
z
"/>
    </defs>
    <g clip-path="url(#p3d812e8d83)">
     <use xlink:href="#C0_0_19bcc300f4" x="66.775587" y="228.613601" style="fill: #ff0000; fill-opacity: 0.4"/>
    </g>
    <g clip-path="url(#p3d812e8d83)">
     <use xlink:href="#C0_0_19bcc300f4" x="68.26158" y="243.880766" style="fill: #ff0000; fill-opacity: 0.4"/>
    </g>
    <g clip-path="url(#p3d812e8d83)">
     <use xlink:href="#C0_0_19bcc300f4" x="68.468109" y="153.335856" style="fill: #ff0000; fill-opacity: 0.4"/>
    </g>
    <g clip-path="url(#p3d812e8d83)">
     <use xlink:href="#C0_0_19bcc300f4" x="66.074671" y="203.667739" style="fill: #ff0000; fill-opacity: 0.4"/>
    </g>
    <g clip-path="url(#p3d812e8d83)">
     <use xlink:href="#C0_0_19bcc300f4" x="71.19391" y="228.025404" style="fill: #ff0000; fill-opacity: 0.4"/>
    </g>
    <g clip-path="url(#p3d812e8d83)">
     <use xlink:href="#C0_0_19bcc300f4" x="66.410958" y="217.161797" style="fill: #ff0000; fill-opacity: 0.4"/>
    </g>
    <g clip-path="url(#p3d812e8d83)">
     <use xlink:href="#C0_0_19bcc300f4" x="66.35851" y="198.726707" style="fill: #ff0000; fill-opacity: 0.4"/>
    </g>
    <g clip-path="url(#p3d812e8d83)">
     <use xlink:href="#C0_0_19bcc300f4" x="71.635936" y="222.800317" style="fill: #ff0000; fill-opacity: 0.4"/>
    </g>
    <g clip-path="url(#p3d812e8d83)">
     <use xlink:href="#C0_0_19bcc300f4" x="70.514783" y="254.880063" style="fill: #ff0000; fill-opacity: 0.4"/>
    </g>
    <g clip-path="url(#p3d812e8d83)">
     <use xlink:href="#C0_0_19bcc300f4" x="70.901034" y="169.245928" style="fill: #ff0000; fill-opacity: 0.4"/>
    </g>
    <g clip-path="url(#p3d812e8d83)">
     <use xlink:href="#C0_0_19bcc300f4" x="70.079515" y="148.372846" style="fill: #ff0000; fill-opacity: 0.4"/>
    </g>
    <g clip-path="url(#p3d812e8d83)">
     <use xlink:href="#C0_0_19bcc300f4" x="68.869855" y="183.799706" style="fill: #ff0000; fill-opacity: 0.4"/>
    </g>
    <g clip-path="url(#p3d812e8d83)">
     <use xlink:href="#C0_0_19bcc300f4" x="68.186295" y="197.814398" style="fill: #ff0000; fill-opacity: 0.4"/>
    </g>
    <g clip-path="url(#p3d812e8d83)">
     <use xlink:href="#C0_0_19bcc300f4" x="67.419836" y="236.907969" style="fill: #ff0000; fill-opacity: 0.4"/>
    </g>
    <g clip-path="url(#p3d812e8d83)">
     <use xlink:href="#C0_0_19bcc300f4" x="70.863588" y="257.947174" style="fill: #ff0000; fill-opacity: 0.4"/>
    </g>
    <g clip-path="url(#p3d812e8d83)">
     <use xlink:href="#C0_0_19bcc300f4" x="70.869228" y="239.893383" style="fill: #ff0000; fill-opacity: 0.4"/>
    </g>
    <g clip-path="url(#p3d812e8d83)">
     <use xlink:href="#C0_0_19bcc300f4" x="74.519697" y="241.264179" style="fill: #ff0000; fill-opacity: 0.4"/>
    </g>
    <g clip-path="url(#p3d812e8d83)">
     <use xlink:href="#C0_0_19bcc300f4" x="72.027473" y="193.061947" style="fill: #ff0000; fill-opacity: 0.4"/>
    </g>
    <g clip-path="url(#p3d812e8d83)">
     <use xlink:href="#C0_0_19bcc300f4" x="76.357387" y="222.525882" style="fill: #ff0000; fill-opacity: 0.4"/>
    </g>
    <g clip-path="url(#p3d812e8d83)">
     <use xlink:href="#C0_0_19bcc300f4" x="71.621374" y="230.805175" style="fill: #ff0000; fill-opacity: 0.4"/>
    </g>
    <g clip-path="url(#p3d812e8d83)">
     <use xlink:href="#C0_0_19bcc300f4" x="68.955684" y="215.546245" style="fill: #ff0000; fill-opacity: 0.4"/>
    </g>
    <g clip-path="url(#p3d812e8d83)">
     <use xlink:href="#C0_0_19bcc300f4" x="71.520549" y="75.350739" style="fill: #ff0000; fill-opacity: 0.4"/>
    </g>
    <g clip-path="url(#p3d812e8d83)">
     <use xlink:href="#C0_0_19bcc300f4" x="66.976111" y="118.831867" style="fill: #ff0000; fill-opacity: 0.4"/>
    </g>
    <g clip-path="url(#p3d812e8d83)">
     <use xlink:href="#C0_0_19bcc300f4" x="70.665153" y="119.527641" style="fill: #ff0000; fill-opacity: 0.4"/>
    </g>
    <g clip-path="url(#p3d812e8d83)">
     <use xlink:href="#C0_0_19bcc300f4" x="68.375169" y="91.117638" style="fill: #ff0000; fill-opacity: 0.4"/>
    </g>
    <g clip-path="url(#p3d812e8d83)">
     <use xlink:href="#C0_0_19bcc300f4" x="67.734323" y="140.285712" style="fill: #ff0000; fill-opacity: 0.4"/>
    </g>
    <g clip-path="url(#p3d812e8d83)">
     <use xlink:href="#C0_0_19bcc300f4" x="71.49269" y="91.800035" style="fill: #ff0000; fill-opacity: 0.4"/>
    </g>
    <g clip-path="url(#p3d812e8d83)">
     <use xlink:href="#C0_0_19bcc300f4" x="72.944407" y="154.770963" style="fill: #ff0000; fill-opacity: 0.4"/>
    </g>
    <g clip-path="url(#p3d812e8d83)">
     <use xlink:href="#C0_0_19bcc300f4" x="69.972272" y="133.207362" style="fill: #ff0000; fill-opacity: 0.4"/>
    </g>
    <g clip-path="url(#p3d812e8d83)">
     <use xlink:href="#C0_0_19bcc300f4" x="67.358876" y="163.369147" style="fill: #ff0000; fill-opacity: 0.4"/>
    </g>
    <g clip-path="url(#p3d812e8d83)">
     <use xlink:href="#C0_0_19bcc300f4" x="75.071754" y="119.414308" style="fill: #ff0000; fill-opacity: 0.4"/>
    </g>
    <g clip-path="url(#p3d812e8d83)">
     <use xlink:href="#C0_0_19bcc300f4" x="71.702324" y="137.391765" style="fill: #ff0000; fill-opacity: 0.4"/>
    </g>
    <g clip-path="url(#p3d812e8d83)">
     <use xlink:href="#C0_0_19bcc300f4" x="68.071314" y="157.782873" style="fill: #ff0000; fill-opacity: 0.4"/>
    </g>
    <g clip-path="url(#p3d812e8d83)">
     <use xlink:href="#C0_0_19bcc300f4" x="72.361476" y="188.536038" style="fill: #ff0000; fill-opacity: 0.4"/>
    </g>
    <g clip-path="url(#p3d812e8d83)">
     <use xlink:href="#C0_0_19bcc300f4" x="72.4017" y="218.587626" style="fill: #ff0000; fill-opacity: 0.4"/>
    </g>
    <g clip-path="url(#p3d812e8d83)">
     <use xlink:href="#C0_0_19bcc300f4" x="70.348173" y="207.143101" style="fill: #ff0000; fill-opacity: 0.4"/>
    </g>
    <g clip-path="url(#p3d812e8d83)">
     <use xlink:href="#C0_0_19bcc300f4" x="74.472136" y="193.083306" style="fill: #ff0000; fill-opacity: 0.4"/>
    </g>
    <g clip-path="url(#p3d812e8d83)">
     <use xlink:href="#C0_0_19bcc300f4" x="72.08173" y="166.010011" style="fill: #ff0000; fill-opacity: 0.4"/>
    </g>
    <g clip-path="url(#p3d812e8d83)">
     <use xlink:href="#C0_0_19bcc300f4" x="72.839038" y="162.086627" style="fill: #ff0000; fill-opacity: 0.4"/>
    </g>
    <g clip-path="url(#p3d812e8d83)">
     <use xlink:href="#C0_0_19bcc300f4" x="74.763344" y="162.372199" style="fill: #ff0000; fill-opacity: 0.4"/>
    </g>
    <g clip-path="url(#p3d812e8d83)">
     <use xlink:href="#C0_0_19bcc300f4" x="72.803871" y="145.415758" style="fill: #ff0000; fill-opacity: 0.4"/>
    </g>
    <g clip-path="url(#p3d812e8d83)">
     <use xlink:href="#C0_0_19bcc300f4" x="74.977253" y="230.184619" style="fill: #ff0000; fill-opacity: 0.4"/>
    </g>
    <g clip-path="url(#p3d812e8d83)">
     <use xlink:href="#C0_0_19bcc300f4" x="77.785795" y="214.430982" style="fill: #ff0000; fill-opacity: 0.4"/>
    </g>
    <g clip-path="url(#p3d812e8d83)">
     <use xlink:href="#C0_0_19bcc300f4" x="74.241638" y="209.361847" style="fill: #ff0000; fill-opacity: 0.4"/>
    </g>
   </g>
   <g id="PathCollection_2">
    <defs>
     <path id="C1_0_ad2b6539e6" d="M 0 3.872983 
C 1.027127 3.872983 2.012324 3.464901 2.738613 2.738613 
C 3.464901 2.012324 3.872983 1.027127 3.872983 -0 
C 3.872983 -1.027127 3.464901 -2.012324 2.738613 -2.738613 
C 2.012324 -3.464901 1.027127 -3.872983 0 -3.872983 
C -1.027127 -3.872983 -2.012324 -3.464901 -2.738613 -2.738613 
C -3.464901 -2.012324 -3.872983 -1.027127 -3.872983 0 
C -3.872983 1.027127 -3.464901 2.012324 -2.738613 2.738613 
C -2.012324 3.464901 -1.027127 3.872983 0 3.872983 
z
"/>
    </defs>
    <g clip-path="url(#p3d812e8d83)">
     <use xlink:href="#C1_0_ad2b6539e6" x="108.72026" y="227.630717" style="fill: #808080; fill-opacity: 0.4"/>
    </g>
    <g clip-path="url(#p3d812e8d83)">
     <use xlink:href="#C1_0_ad2b6539e6" x="118.901062" y="190.415265" style="fill: #808080; fill-opacity: 0.4"/>
    </g>
    <g clip-path="url(#p3d812e8d83)">
     <use xlink:href="#C1_0_ad2b6539e6" x="114.127092" y="247.067631" style="fill: #808080; fill-opacity: 0.4"/>
    </g>
    <g clip-path="url(#p3d812e8d83)">
     <use xlink:href="#C1_0_ad2b6539e6" x="104.118907" y="214.576474" style="fill: #808080; fill-opacity: 0.4"/>
    </g>
    <g clip-path="url(#p3d812e8d83)">
     <use xlink:href="#C1_0_ad2b6539e6" x="110.696118" y="240.097806" style="fill: #808080; fill-opacity: 0.4"/>
    </g>
    <g clip-path="url(#p3d812e8d83)">
     <use xlink:href="#C1_0_ad2b6539e6" x="114.768705" y="234.516339" style="fill: #808080; fill-opacity: 0.4"/>
    </g>
    <g clip-path="url(#p3d812e8d83)">
     <use xlink:href="#C1_0_ad2b6539e6" x="117.951337" y="232.601443" style="fill: #808080; fill-opacity: 0.4"/>
    </g>
    <g clip-path="url(#p3d812e8d83)">
     <use xlink:href="#C1_0_ad2b6539e6" x="107.965864" y="176.930205" style="fill: #808080; fill-opacity: 0.4"/>
    </g>
    <g clip-path="url(#p3d812e8d83)">
     <use xlink:href="#C1_0_ad2b6539e6" x="107.312263" y="220.87018" style="fill: #808080; fill-opacity: 0.4"/>
    </g>
    <g clip-path="url(#p3d812e8d83)">
     <use xlink:href="#C1_0_ad2b6539e6" x="110.697146" y="183.249955" style="fill: #808080; fill-opacity: 0.4"/>
    </g>
    <g clip-path="url(#p3d812e8d83)">
     <use xlink:href="#C1_0_ad2b6539e6" x="110.790179" y="214.696541" style="fill: #808080; fill-opacity: 0.4"/>
    </g>
    <g clip-path="url(#p3d812e8d83)">
     <use xlink:href="#C1_0_ad2b6539e6" x="108.916685" y="207.575781" style="fill: #808080; fill-opacity: 0.4"/>
    </g>
    <g clip-path="url(#p3d812e8d83)">
     <use xlink:href="#C1_0_ad2b6539e6" x="114.789402" y="219.214065" style="fill: #808080; fill-opacity: 0.4"/>
    </g>
    <g clip-path="url(#p3d812e8d83)">
     <use xlink:href="#C1_0_ad2b6539e6" x="121.587231" y="235.561163" style="fill: #808080; fill-opacity: 0.4"/>
    </g>
    <g clip-path="url(#p3d812e8d83)">
     <use xlink:href="#C1_0_ad2b6539e6" x="124.436759" y="234.003379" style="fill: #808080; fill-opacity: 0.4"/>
    </g>
    <g clip-path="url(#p3d812e8d83)">
     <use xlink:href="#C1_0_ad2b6539e6" x="118.114341" y="218.545017" style="fill: #808080; fill-opacity: 0.4"/>
    </g>
    <g clip-path="url(#p3d812e8d83)">
     <use xlink:href="#C1_0_ad2b6539e6" x="113.164863" y="196.146146" style="fill: #808080; fill-opacity: 0.4"/>
    </g>
    <g clip-path="url(#p3d812e8d83)">
     <use xlink:href="#C1_0_ad2b6539e6" x="109.773001" y="228.158542" style="fill: #808080; fill-opacity: 0.4"/>
    </g>
    <g clip-path="url(#p3d812e8d83)">
     <use xlink:href="#C1_0_ad2b6539e6" x="113.224196" y="179.474862" style="fill: #808080; fill-opacity: 0.4"/>
    </g>
    <g clip-path="url(#p3d812e8d83)">
     <use xlink:href="#C1_0_ad2b6539e6" x="113.515583" y="210.376222" style="fill: #808080; fill-opacity: 0.4"/>
    </g>
    <g clip-path="url(#p3d812e8d83)">
     <use xlink:href="#C1_0_ad2b6539e6" x="120.606499" y="220.829857" style="fill: #808080; fill-opacity: 0.4"/>
    </g>
    <g clip-path="url(#p3d812e8d83)">
     <use xlink:href="#C1_0_ad2b6539e6" x="125.171066" y="219.782323" style="fill: #808080; fill-opacity: 0.4"/>
    </g>
    <g clip-path="url(#p3d812e8d83)">
     <use xlink:href="#C1_0_ad2b6539e6" x="116.391781" y="244.748609" style="fill: #808080; fill-opacity: 0.4"/>
    </g>
    <g clip-path="url(#p3d812e8d83)">
     <use xlink:href="#C1_0_ad2b6539e6" x="110.889195" y="259.891016" style="fill: #808080; fill-opacity: 0.4"/>
    </g>
    <g clip-path="url(#p3d812e8d83)">
     <use xlink:href="#C1_0_ad2b6539e6" x="125.982618" y="237.115585" style="fill: #808080; fill-opacity: 0.4"/>
    </g>
    <g clip-path="url(#p3d812e8d83)">
     <use xlink:href="#C1_0_ad2b6539e6" x="112.672489" y="253.467665" style="fill: #808080; fill-opacity: 0.4"/>
    </g>
    <g clip-path="url(#p3d812e8d83)">
     <use xlink:href="#C1_0_ad2b6539e6" x="114.065522" y="229.900645" style="fill: #808080; fill-opacity: 0.4"/>
    </g>
    <g clip-path="url(#p3d812e8d83)">
     <use xlink:href="#C1_0_ad2b6539e6" x="119.191805" y="231.224123" style="fill: #808080; fill-opacity: 0.4"/>
    </g>
    <g clip-path="url(#p3d812e8d83)">
     <use xlink:href="#C1_0_ad2b6539e6" x="116.240933" y="207.323582" style="fill: #808080; fill-opacity: 0.4"/>
    </g>
    <g clip-path="url(#p3d812e8d83)">
     <use xlink:href="#C1_0_ad2b6539e6" x="116.90448" y="102.866794" style="fill: #808080; fill-opacity: 0.4"/>
    </g>
    <g clip-path="url(#p3d812e8d83)">
     <use xlink:href="#C1_0_ad2b6539e6" x="121.045052" y="78.067012" style="fill: #808080; fill-opacity: 0.4"/>
    </g>
    <g clip-path="url(#p3d812e8d83)">
     <use xlink:href="#C1_0_ad2b6539e6" x="118.365479" y="165.07141" style="fill: #808080; fill-opacity: 0.4"/>
    </g>
    <g clip-path="url(#p3d812e8d83)">
     <use xlink:href="#C1_0_ad2b6539e6" x="122.373205" y="104.727853" style="fill: #808080; fill-opacity: 0.4"/>
    </g>
    <g clip-path="url(#p3d812e8d83)">
     <use xlink:href="#C1_0_ad2b6539e6" x="118.230191" y="142.258346" style="fill: #808080; fill-opacity: 0.4"/>
    </g>
    <g clip-path="url(#p3d812e8d83)">
     <use xlink:href="#C1_0_ad2b6539e6" x="113.507605" y="173.472336" style="fill: #808080; fill-opacity: 0.4"/>
    </g>
    <g clip-path="url(#p3d812e8d83)">
     <use xlink:href="#C1_0_ad2b6539e6" x="125.736238" y="214.683581" style="fill: #808080; fill-opacity: 0.4"/>
    </g>
    <g clip-path="url(#p3d812e8d83)">
     <use xlink:href="#C1_0_ad2b6539e6" x="119.949648" y="189.498533" style="fill: #808080; fill-opacity: 0.4"/>
    </g>
    <g clip-path="url(#p3d812e8d83)">
     <use xlink:href="#C1_0_ad2b6539e6" x="117.302729" y="180.431092" style="fill: #808080; fill-opacity: 0.4"/>
    </g>
    <g clip-path="url(#p3d812e8d83)">
     <use xlink:href="#C1_0_ad2b6539e6" x="128.085796" y="214.129898" style="fill: #808080; fill-opacity: 0.4"/>
    </g>
    <g clip-path="url(#p3d812e8d83)">
     <use xlink:href="#C1_0_ad2b6539e6" x="120.193811" y="211.865504" style="fill: #808080; fill-opacity: 0.4"/>
    </g>
    <g clip-path="url(#p3d812e8d83)">
     <use xlink:href="#C1_0_ad2b6539e6" x="128.679911" y="237.780375" style="fill: #808080; fill-opacity: 0.4"/>
    </g>
    <g clip-path="url(#p3d812e8d83)">
     <use xlink:href="#C1_0_ad2b6539e6" x="116.295661" y="252.761725" style="fill: #808080; fill-opacity: 0.4"/>
    </g>
    <g clip-path="url(#p3d812e8d83)">
     <use xlink:href="#C1_0_ad2b6539e6" x="117.541221" y="198.274781" style="fill: #808080; fill-opacity: 0.4"/>
    </g>
    <g clip-path="url(#p3d812e8d83)">
     <use xlink:href="#C1_0_ad2b6539e6" x="120.510433" y="252.879227" style="fill: #808080; fill-opacity: 0.4"/>
    </g>
    <g clip-path="url(#p3d812e8d83)">
     <use xlink:href="#C1_0_ad2b6539e6" x="122.216759" y="254.587906" style="fill: #808080; fill-opacity: 0.4"/>
    </g>
    <g clip-path="url(#p3d812e8d83)">
     <use xlink:href="#C1_0_ad2b6539e6" x="125.671949" y="254.814913" style="fill: #808080; fill-opacity: 0.4"/>
    </g>
    <g clip-path="url(#p3d812e8d83)">
     <use xlink:href="#C1_0_ad2b6539e6" x="127.188271" y="258.154104" style="fill: #808080; fill-opacity: 0.4"/>
    </g>
    <g clip-path="url(#p3d812e8d83)">
     <use xlink:href="#C1_0_ad2b6539e6" x="119.964094" y="241.942943" style="fill: #808080; fill-opacity: 0.4"/>
    </g>
    <g clip-path="url(#p3d812e8d83)">
     <use xlink:href="#C1_0_ad2b6539e6" x="122.63562" y="245.001602" style="fill: #808080; fill-opacity: 0.4"/>
    </g>
    <g clip-path="url(#p3d812e8d83)">
     <use xlink:href="#C1_0_ad2b6539e6" x="126.917212" y="247.671565" style="fill: #808080; fill-opacity: 0.4"/>
    </g>
    <g clip-path="url(#p3d812e8d83)">
     <use xlink:href="#C1_0_ad2b6539e6" x="130.902282" y="251.346315" style="fill: #808080; fill-opacity: 0.4"/>
    </g>
    <g clip-path="url(#p3d812e8d83)">
     <use xlink:href="#C1_0_ad2b6539e6" x="115.904906" y="168.536332" style="fill: #808080; fill-opacity: 0.4"/>
    </g>
    <g clip-path="url(#p3d812e8d83)">
     <use xlink:href="#C1_0_ad2b6539e6" x="120.945585" y="197.9738" style="fill: #808080; fill-opacity: 0.4"/>
    </g>
    <g clip-path="url(#p3d812e8d83)">
     <use xlink:href="#C1_0_ad2b6539e6" x="122.265832" y="210.799916" style="fill: #808080; fill-opacity: 0.4"/>
    </g>
    <g clip-path="url(#p3d812e8d83)">
     <use xlink:href="#C1_0_ad2b6539e6" x="119.928596" y="229.109685" style="fill: #808080; fill-opacity: 0.4"/>
    </g>
    <g clip-path="url(#p3d812e8d83)">
     <use xlink:href="#C1_0_ad2b6539e6" x="120.694987" y="139.335659" style="fill: #808080; fill-opacity: 0.4"/>
    </g>
    <g clip-path="url(#p3d812e8d83)">
     <use xlink:href="#C1_0_ad2b6539e6" x="122.849646" y="106.439164" style="fill: #808080; fill-opacity: 0.4"/>
    </g>
    <g clip-path="url(#p3d812e8d83)">
     <use xlink:href="#C1_0_ad2b6539e6" x="123.190398" y="229.096348" style="fill: #808080; fill-opacity: 0.4"/>
    </g>
    <g clip-path="url(#p3d812e8d83)">
     <use xlink:href="#C1_0_ad2b6539e6" x="119.937332" y="132.227123" style="fill: #808080; fill-opacity: 0.4"/>
    </g>
    <g clip-path="url(#p3d812e8d83)">
     <use xlink:href="#C1_0_ad2b6539e6" x="124.056031" y="143.957078" style="fill: #808080; fill-opacity: 0.4"/>
    </g>
    <g clip-path="url(#p3d812e8d83)">
     <use xlink:href="#C1_0_ad2b6539e6" x="122.451158" y="125.322721" style="fill: #808080; fill-opacity: 0.4"/>
    </g>
    <g clip-path="url(#p3d812e8d83)">
     <use xlink:href="#C1_0_ad2b6539e6" x="116.785704" y="157.386719" style="fill: #808080; fill-opacity: 0.4"/>
    </g>
    <g clip-path="url(#p3d812e8d83)">
     <use xlink:href="#C1_0_ad2b6539e6" x="119.983104" y="156.993933" style="fill: #808080; fill-opacity: 0.4"/>
    </g>
    <g clip-path="url(#p3d812e8d83)">
     <use xlink:href="#C1_0_ad2b6539e6" x="118.294952" y="179.140068" style="fill: #808080; fill-opacity: 0.4"/>
    </g>
    <g clip-path="url(#p3d812e8d83)">
     <use xlink:href="#C1_0_ad2b6539e6" x="117.106346" y="173.470667" style="fill: #808080; fill-opacity: 0.4"/>
    </g>
    <g clip-path="url(#p3d812e8d83)">
     <use xlink:href="#C1_0_ad2b6539e6" x="122.521473" y="170.695708" style="fill: #808080; fill-opacity: 0.4"/>
    </g>
    <g clip-path="url(#p3d812e8d83)">
     <use xlink:href="#C1_0_ad2b6539e6" x="119.862876" y="89.277452" style="fill: #808080; fill-opacity: 0.4"/>
    </g>
    <g clip-path="url(#p3d812e8d83)">
     <use xlink:href="#C1_0_ad2b6539e6" x="121.621611" y="133.863528" style="fill: #808080; fill-opacity: 0.4"/>
    </g>
    <g clip-path="url(#p3d812e8d83)">
     <use xlink:href="#C1_0_ad2b6539e6" x="122.761928" y="156.267887" style="fill: #808080; fill-opacity: 0.4"/>
    </g>
    <g clip-path="url(#p3d812e8d83)">
     <use xlink:href="#C1_0_ad2b6539e6" x="121.978907" y="114.480782" style="fill: #808080; fill-opacity: 0.4"/>
    </g>
    <g clip-path="url(#p3d812e8d83)">
     <use xlink:href="#C1_0_ad2b6539e6" x="123.327178" y="178.303779" style="fill: #808080; fill-opacity: 0.4"/>
    </g>
    <g clip-path="url(#p3d812e8d83)">
     <use xlink:href="#C1_0_ad2b6539e6" x="124.832626" y="198.684399" style="fill: #808080; fill-opacity: 0.4"/>
    </g>
    <g clip-path="url(#p3d812e8d83)">
     <use xlink:href="#C1_0_ad2b6539e6" x="127.365864" y="212.012879" style="fill: #808080; fill-opacity: 0.4"/>
    </g>
    <g clip-path="url(#p3d812e8d83)">
     <use xlink:href="#C1_0_ad2b6539e6" x="128.088458" y="208.117381" style="fill: #808080; fill-opacity: 0.4"/>
    </g>
    <g clip-path="url(#p3d812e8d83)">
     <use xlink:href="#C1_0_ad2b6539e6" x="132.199485" y="219.288054" style="fill: #808080; fill-opacity: 0.4"/>
    </g>
    <g clip-path="url(#p3d812e8d83)">
     <use xlink:href="#C1_0_ad2b6539e6" x="121.756691" y="159.681344" style="fill: #808080; fill-opacity: 0.4"/>
    </g>
    <g clip-path="url(#p3d812e8d83)">
     <use xlink:href="#C1_0_ad2b6539e6" x="125.241592" y="171.760471" style="fill: #808080; fill-opacity: 0.4"/>
    </g>
    <g clip-path="url(#p3d812e8d83)">
     <use xlink:href="#C1_0_ad2b6539e6" x="130.632746" y="170.095844" style="fill: #808080; fill-opacity: 0.4"/>
    </g>
    <g clip-path="url(#p3d812e8d83)">
     <use xlink:href="#C1_0_ad2b6539e6" x="126.650011" y="183.2245" style="fill: #808080; fill-opacity: 0.4"/>
    </g>
    <g clip-path="url(#p3d812e8d83)">
     <use xlink:href="#C1_0_ad2b6539e6" x="129.540913" y="178.753141" style="fill: #808080; fill-opacity: 0.4"/>
    </g>
    <g clip-path="url(#p3d812e8d83)">
     <use xlink:href="#C1_0_ad2b6539e6" x="132.918343" y="177.531289" style="fill: #808080; fill-opacity: 0.4"/>
    </g>
    <g clip-path="url(#p3d812e8d83)">
     <use xlink:href="#C1_0_ad2b6539e6" x="127.248205" y="223.189946" style="fill: #808080; fill-opacity: 0.4"/>
    </g>
    <g clip-path="url(#p3d812e8d83)">
     <use xlink:href="#C1_0_ad2b6539e6" x="130.429412" y="231.509171" style="fill: #808080; fill-opacity: 0.4"/>
    </g>
    <g clip-path="url(#p3d812e8d83)">
     <use xlink:href="#C1_0_ad2b6539e6" x="131.441896" y="224.519037" style="fill: #808080; fill-opacity: 0.4"/>
    </g>
    <g clip-path="url(#p3d812e8d83)">
     <use xlink:href="#C1_0_ad2b6539e6" x="124.306018" y="187.750615" style="fill: #808080; fill-opacity: 0.4"/>
    </g>
    <g clip-path="url(#p3d812e8d83)">
     <use xlink:href="#C1_0_ad2b6539e6" x="130.921754" y="210.890471" style="fill: #808080; fill-opacity: 0.4"/>
    </g>
    <g clip-path="url(#p3d812e8d83)">
     <use xlink:href="#C1_0_ad2b6539e6" x="125.59637" y="202.713764" style="fill: #808080; fill-opacity: 0.4"/>
    </g>
    <g clip-path="url(#p3d812e8d83)">
     <use xlink:href="#C1_0_ad2b6539e6" x="136.29911" y="217.77357" style="fill: #808080; fill-opacity: 0.4"/>
    </g>
   </g>
   <g id="FillBetweenPolyCollection_1">
    <path d="M 75.936209 257.947174 
L 65.300591 257.947174 
L 64.886092 256.102766 
L 64.462586 254.258357 
L 64.032439 252.413949 
L 63.598219 250.56954 
L 63.162666 248.725132 
L 62.728665 246.880723 
L 62.299199 245.036315 
L 61.877314 243.191907 
L 61.466068 241.347498 
L 61.068481 239.50309 
L 60.687486 237.658681 
L 60.325878 235.814273 
L 59.98626 233.969864 
L 59.670997 232.125456 
L 59.382173 230.281048 
L 59.121548 228.436639 
L 58.890526 226.592231 
L 58.690125 224.747822 
L 58.520961 222.903414 
L 58.383231 221.059005 
L 58.276711 219.214597 
L 58.200757 217.370189 
L 58.154317 215.52578 
L 58.13595 213.681372 
L 58.143851 211.836963 
L 58.175882 209.992555 
L 58.229616 208.148146 
L 58.302378 206.303738 
L 58.391294 204.45933 
L 58.493355 202.614921 
L 58.605466 200.770513 
L 58.724518 198.926104 
L 58.847451 197.081696 
L 58.971317 195.237287 
L 59.093351 193.392879 
L 59.211034 191.548471 
L 59.322152 189.704062 
L 59.424849 187.859654 
L 59.517677 186.015245 
L 59.599633 184.170837 
L 59.670176 182.326428 
L 59.729251 180.48202 
L 59.777276 178.637611 
L 59.815133 176.793203 
L 59.844131 174.948795 
L 59.865966 173.104386 
L 59.88266 171.259978 
L 59.896495 169.415569 
L 59.909936 167.571161 
L 59.925548 165.726752 
L 59.945916 163.882344 
L 59.973561 162.037936 
L 60.010861 160.193527 
L 60.059979 158.349119 
L 60.122806 156.50471 
L 60.200904 154.660302 
L 60.295476 152.815893 
L 60.407338 150.971485 
L 60.536911 149.127077 
L 60.684225 147.282668 
L 60.848934 145.43826 
L 61.030344 143.593851 
L 61.227446 141.749443 
L 61.438958 139.905034 
L 61.663375 138.060626 
L 61.899012 136.216218 
L 62.144059 134.371809 
L 62.396627 132.527401 
L 62.654794 130.682992 
L 62.91665 128.838584 
L 63.180332 126.994175 
L 63.444064 125.149767 
L 63.706183 123.305359 
L 63.965163 121.46095 
L 64.219641 119.616542 
L 64.468427 117.772133 
L 64.710524 115.927725 
L 64.945125 114.083316 
L 65.171629 112.238908 
L 65.389634 110.3945 
L 65.598932 108.550091 
L 65.799509 106.705683 
L 65.991525 104.861274 
L 66.175303 103.016866 
L 66.351309 101.172457 
L 66.520128 99.328049 
L 66.68244 97.483641 
L 66.838992 95.639232 
L 66.990569 93.794824 
L 67.137964 91.950415 
L 67.281949 90.106007 
L 67.423246 88.261598 
L 67.562504 86.41719 
L 67.700279 84.572782 
L 67.837012 82.728373 
L 67.973019 80.883965 
L 68.108485 79.039556 
L 68.243462 77.195148 
L 68.377871 75.350739 
L 72.858929 75.350739 
L 72.858929 75.350739 
L 72.993338 77.195148 
L 73.128315 79.039556 
L 73.263781 80.883965 
L 73.399788 82.728373 
L 73.536521 84.572782 
L 73.674296 86.41719 
L 73.813554 88.261598 
L 73.954851 90.106007 
L 74.098836 91.950415 
L 74.246231 93.794824 
L 74.397808 95.639232 
L 74.55436 97.483641 
L 74.716672 99.328049 
L 74.885491 101.172457 
L 75.061497 103.016866 
L 75.245275 104.861274 
L 75.437291 106.705683 
L 75.637868 108.550091 
L 75.847166 110.3945 
L 76.065171 112.238908 
L 76.291675 114.083316 
L 76.526276 115.927725 
L 76.768373 117.772133 
L 77.017159 119.616542 
L 77.271637 121.46095 
L 77.530617 123.305359 
L 77.792736 125.149767 
L 78.056468 126.994175 
L 78.32015 128.838584 
L 78.582006 130.682992 
L 78.840173 132.527401 
L 79.092741 134.371809 
L 79.337788 136.216218 
L 79.573425 138.060626 
L 79.797842 139.905034 
L 80.009354 141.749443 
L 80.206456 143.593851 
L 80.387866 145.43826 
L 80.552575 147.282668 
L 80.699889 149.127077 
L 80.829462 150.971485 
L 80.941324 152.815893 
L 81.035896 154.660302 
L 81.113994 156.50471 
L 81.176821 158.349119 
L 81.225939 160.193527 
L 81.263239 162.037936 
L 81.290884 163.882344 
L 81.311252 165.726752 
L 81.326864 167.571161 
L 81.340305 169.415569 
L 81.35414 171.259978 
L 81.370834 173.104386 
L 81.392669 174.948795 
L 81.421667 176.793203 
L 81.459524 178.637611 
L 81.507549 180.48202 
L 81.566624 182.326428 
L 81.637167 184.170837 
L 81.719123 186.015245 
L 81.811951 187.859654 
L 81.914648 189.704062 
L 82.025766 191.548471 
L 82.143449 193.392879 
L 82.265483 195.237287 
L 82.389349 197.081696 
L 82.512282 198.926104 
L 82.631334 200.770513 
L 82.743445 202.614921 
L 82.845506 204.45933 
L 82.934422 206.303738 
L 83.007184 208.148146 
L 83.060918 209.992555 
L 83.092949 211.836963 
L 83.10085 213.681372 
L 83.082483 215.52578 
L 83.036043 217.370189 
L 82.960089 219.214597 
L 82.853569 221.059005 
L 82.715839 222.903414 
L 82.546675 224.747822 
L 82.346274 226.592231 
L 82.115252 228.436639 
L 81.854627 230.281048 
L 81.565803 232.125456 
L 81.25054 233.969864 
L 80.910922 235.814273 
L 80.549314 237.658681 
L 80.168319 239.50309 
L 79.770732 241.347498 
L 79.359486 243.191907 
L 78.937601 245.036315 
L 78.508135 246.880723 
L 78.074134 248.725132 
L 77.638581 250.56954 
L 77.204361 252.413949 
L 76.774214 254.258357 
L 76.350708 256.102766 
L 75.936209 257.947174 
z
" clip-path="url(#p3d812e8d83)" style="fill: #f08080; fill-opacity: 0.3"/>
   </g>
   <g id="FillBetweenPolyCollection_2">
    <path d="M 128.311067 259.891016 
L 112.785333 259.891016 
L 112.088532 258.05441 
L 111.385172 256.217804 
L 110.680868 254.381198 
L 109.981133 252.544592 
L 109.291308 250.707986 
L 108.616504 248.87138 
L 107.961584 247.034774 
L 107.331164 245.198168 
L 106.729631 243.361561 
L 106.161169 241.524955 
L 105.629792 239.688349 
L 105.139355 237.851743 
L 104.693554 236.015137 
L 104.295899 234.178531 
L 103.949647 232.341925 
L 103.657721 230.505319 
L 103.422586 228.668713 
L 103.246112 226.832106 
L 103.129428 224.9955 
L 103.07277 223.158894 
L 103.075352 221.322288 
L 103.135266 219.485682 
L 103.249429 217.649076 
L 103.413577 215.81247 
L 103.622332 213.975864 
L 103.869336 212.139258 
L 104.147442 210.302652 
L 104.448973 208.466045 
L 104.766027 206.629439 
L 105.090806 204.792833 
L 105.415966 202.956227 
L 105.734948 201.119621 
L 106.042276 199.283015 
L 106.333805 197.446409 
L 106.606893 195.609803 
L 106.860487 193.773197 
L 107.095119 191.93659 
L 107.312803 190.099984 
L 107.516849 188.263378 
L 107.711601 186.426772 
L 107.902116 184.590166 
L 108.093806 182.75356 
L 108.292077 180.916954 
L 108.50197 179.080348 
L 108.727848 177.243742 
L 108.973134 175.407136 
L 109.240124 173.570529 
L 109.529873 171.733923 
L 109.842179 169.897317 
L 110.17563 168.060711 
L 110.527734 166.224105 
L 110.895106 164.387499 
L 111.273692 162.550893 
L 111.659017 160.714287 
L 112.046444 158.877681 
L 112.431412 157.041074 
L 112.809647 155.204468 
L 113.177339 153.367862 
L 113.531267 151.531256 
L 113.868873 149.69465 
L 114.188293 147.858044 
L 114.488336 146.021438 
L 114.768429 144.184832 
L 115.028539 142.348226 
L 115.269066 140.51162 
L 115.490746 138.675013 
L 115.694545 136.838407 
L 115.881567 135.001801 
L 116.052989 133.165195 
L 116.210002 131.328589 
L 116.353785 129.491983 
L 116.485492 127.655377 
L 116.606258 125.818771 
L 116.717213 123.982165 
L 116.819503 122.145558 
L 116.914307 120.308952 
L 117.002848 118.472346 
L 117.086399 116.63574 
L 117.166268 114.799134 
L 117.243781 112.962528 
L 117.32025 111.125922 
L 117.396933 109.289316 
L 117.474991 107.45271 
L 117.555448 105.616104 
L 117.639156 103.779497 
L 117.726765 101.942891 
L 117.818706 100.106285 
L 117.915188 98.269679 
L 118.016204 96.433073 
L 118.121548 94.596467 
L 118.230841 92.759861 
L 118.343559 90.923255 
L 118.459072 89.086649 
L 118.576669 87.250042 
L 118.695594 85.413436 
L 118.815067 83.57683 
L 118.934308 81.740224 
L 119.052551 79.903618 
L 119.169055 78.067012 
L 121.927345 78.067012 
L 121.927345 78.067012 
L 122.043849 79.903618 
L 122.162092 81.740224 
L 122.281333 83.57683 
L 122.400806 85.413436 
L 122.519731 87.250042 
L 122.637328 89.086649 
L 122.752841 90.923255 
L 122.865559 92.759861 
L 122.974852 94.596467 
L 123.080196 96.433073 
L 123.181212 98.269679 
L 123.277694 100.106285 
L 123.369635 101.942891 
L 123.457244 103.779497 
L 123.540952 105.616104 
L 123.621409 107.45271 
L 123.699467 109.289316 
L 123.77615 111.125922 
L 123.852619 112.962528 
L 123.930132 114.799134 
L 124.010001 116.63574 
L 124.093552 118.472346 
L 124.182093 120.308952 
L 124.276897 122.145558 
L 124.379187 123.982165 
L 124.490142 125.818771 
L 124.610908 127.655377 
L 124.742615 129.491983 
L 124.886398 131.328589 
L 125.043411 133.165195 
L 125.214833 135.001801 
L 125.401855 136.838407 
L 125.605654 138.675013 
L 125.827334 140.51162 
L 126.067861 142.348226 
L 126.327971 144.184832 
L 126.608064 146.021438 
L 126.908107 147.858044 
L 127.227527 149.69465 
L 127.565133 151.531256 
L 127.919061 153.367862 
L 128.286753 155.204468 
L 128.664988 157.041074 
L 129.049956 158.877681 
L 129.437383 160.714287 
L 129.822708 162.550893 
L 130.201294 164.387499 
L 130.568666 166.224105 
L 130.92077 168.060711 
L 131.254221 169.897317 
L 131.566527 171.733923 
L 131.856276 173.570529 
L 132.123266 175.407136 
L 132.368552 177.243742 
L 132.59443 179.080348 
L 132.804323 180.916954 
L 133.002594 182.75356 
L 133.194284 184.590166 
L 133.384799 186.426772 
L 133.579551 188.263378 
L 133.783597 190.099984 
L 134.001281 191.93659 
L 134.235913 193.773197 
L 134.489507 195.609803 
L 134.762595 197.446409 
L 135.054124 199.283015 
L 135.361452 201.119621 
L 135.680434 202.956227 
L 136.005594 204.792833 
L 136.330373 206.629439 
L 136.647427 208.466045 
L 136.948958 210.302652 
L 137.227064 212.139258 
L 137.474068 213.975864 
L 137.682823 215.81247 
L 137.846971 217.649076 
L 137.961134 219.485682 
L 138.021048 221.322288 
L 138.02363 223.158894 
L 137.966972 224.9955 
L 137.850288 226.832106 
L 137.673814 228.668713 
L 137.438679 230.505319 
L 137.146753 232.341925 
L 136.800501 234.178531 
L 136.402846 236.015137 
L 135.957045 237.851743 
L 135.466608 239.688349 
L 134.935231 241.524955 
L 134.366769 243.361561 
L 133.765236 245.198168 
L 133.134816 247.034774 
L 132.479896 248.87138 
L 131.805092 250.707986 
L 131.115267 252.544592 
L 130.415532 254.381198 
L 129.711228 256.217804 
L 129.007868 258.05441 
L 128.311067 259.891016 
z
" clip-path="url(#p3d812e8d83)" style="fill: #808080; fill-opacity: 0.3"/>
   </g>
   <g id="matplotlib.axis_1">
    <g id="xtick_1">
     <g id="line2d_1">
      <defs>
       <path id="m8929893632" d="M 0 0 
L 0 3.5 
" style="stroke: #000000; stroke-width: 0.8"/>
      </defs>
      <g>
       <use xlink:href="#m8929893632" x="70.6184" y="270.086867" style="stroke: #000000; stroke-width: 0.8"/>
      </g>
     </g>
     <g id="text_1">
      <!-- Mutants -->
      <g transform="translate(49.492619 284.685304) scale(0.1 -0.1)">
       <defs>
        <path id="DejaVuSerif-4d" d="M 353 0 
L 353 331 
L 947 331 
L 947 4331 
L 319 4331 
L 319 4666 
L 1678 4666 
L 3316 1344 
L 4953 4666 
L 6228 4666 
L 6228 4331 
L 5606 4331 
L 5606 331 
L 6203 331 
L 6203 0 
L 4378 0 
L 4378 331 
L 4972 331 
L 4972 3938 
L 3372 684 
L 2931 684 
L 1331 3938 
L 1331 331 
L 1925 331 
L 1925 0 
L 353 0 
z
" transform="scale(0.015625)"/>
        <path id="DejaVuSerif-75" d="M 2266 3322 
L 3341 3322 
L 3341 331 
L 3884 331 
L 3884 0 
L 2766 0 
L 2766 588 
Q 2606 256 2353 82 
Q 2100 -91 1766 -91 
Q 1213 -91 952 223 
Q 691 538 691 1209 
L 691 2988 
L 172 2988 
L 172 3322 
L 1269 3322 
L 1269 1388 
Q 1269 781 1417 556 
Q 1566 331 1947 331 
Q 2347 331 2556 625 
Q 2766 919 2766 1478 
L 2766 2988 
L 2266 2988 
L 2266 3322 
z
" transform="scale(0.015625)"/>
        <path id="DejaVuSerif-74" d="M 691 2988 
L 184 2988 
L 184 3322 
L 691 3322 
L 691 4353 
L 1269 4353 
L 1269 3322 
L 2350 3322 
L 2350 2988 
L 1269 2988 
L 1269 878 
Q 1269 456 1350 337 
Q 1431 219 1650 219 
Q 1875 219 1978 351 
Q 2081 484 2088 781 
L 2522 781 
Q 2497 328 2275 118 
Q 2053 -91 1600 -91 
Q 1103 -91 897 129 
Q 691 350 691 878 
L 691 2988 
z
" transform="scale(0.015625)"/>
        <path id="DejaVuSerif-61" d="M 2547 1044 
L 2547 1747 
L 1806 1747 
Q 1378 1747 1168 1562 
Q 959 1378 959 997 
Q 959 650 1171 447 
Q 1384 244 1747 244 
Q 2106 244 2326 466 
Q 2547 688 2547 1044 
z
M 3122 2075 
L 3122 331 
L 3634 331 
L 3634 0 
L 2547 0 
L 2547 359 
Q 2356 128 2106 18 
Q 1856 -91 1522 -91 
Q 969 -91 644 203 
Q 319 497 319 997 
Q 319 1513 691 1797 
Q 1063 2081 1741 2081 
L 2547 2081 
L 2547 2309 
Q 2547 2688 2317 2895 
Q 2088 3103 1672 3103 
Q 1328 3103 1125 2947 
Q 922 2791 872 2484 
L 575 2484 
L 575 3156 
Q 875 3284 1158 3348 
Q 1441 3413 1709 3413 
Q 2400 3413 2761 3070 
Q 3122 2728 3122 2075 
z
" transform="scale(0.015625)"/>
        <path id="DejaVuSerif-6e" d="M 263 0 
L 263 331 
L 781 331 
L 781 2988 
L 231 2988 
L 231 3322 
L 1356 3322 
L 1356 2731 
Q 1516 3069 1770 3241 
Q 2025 3413 2363 3413 
Q 2913 3413 3172 3097 
Q 3431 2781 3431 2113 
L 3431 331 
L 3944 331 
L 3944 0 
L 2356 0 
L 2356 331 
L 2853 331 
L 2853 1931 
Q 2853 2541 2703 2767 
Q 2553 2994 2175 2994 
Q 1775 2994 1565 2701 
Q 1356 2409 1356 1850 
L 1356 331 
L 1856 331 
L 1856 0 
L 263 0 
z
" transform="scale(0.015625)"/>
        <path id="DejaVuSerif-73" d="M 359 184 
L 359 959 
L 691 959 
Q 703 588 923 403 
Q 1144 219 1575 219 
Q 1963 219 2166 364 
Q 2369 509 2369 788 
Q 2369 1006 2220 1140 
Q 2072 1275 1594 1428 
L 1178 1569 
Q 750 1706 558 1912 
Q 366 2119 366 2438 
Q 366 2894 700 3153 
Q 1034 3413 1625 3413 
Q 1888 3413 2178 3344 
Q 2469 3275 2778 3144 
L 2778 2419 
L 2447 2419 
Q 2434 2741 2221 2922 
Q 2009 3103 1644 3103 
Q 1281 3103 1095 2975 
Q 909 2847 909 2591 
Q 909 2381 1050 2254 
Q 1191 2128 1613 1997 
L 2069 1856 
Q 2541 1709 2748 1489 
Q 2956 1269 2956 922 
Q 2956 450 2595 179 
Q 2234 -91 1600 -91 
Q 1278 -91 972 -22 
Q 666 47 359 184 
z
" transform="scale(0.015625)"/>
       </defs>
       <use xlink:href="#DejaVuSerif-4d"/>
       <use xlink:href="#DejaVuSerif-75" transform="translate(102.392578 0)"/>
       <use xlink:href="#DejaVuSerif-74" transform="translate(166.796875 0)"/>
       <use xlink:href="#DejaVuSerif-61" transform="translate(206.982422 0)"/>
       <use xlink:href="#DejaVuSerif-6e" transform="translate(266.601562 0)"/>
       <use xlink:href="#DejaVuSerif-74" transform="translate(331.005859 0)"/>
       <use xlink:href="#DejaVuSerif-73" transform="translate(371.191406 0)"/>
      </g>
     </g>
    </g>
    <g id="xtick_2">
     <g id="line2d_2">
      <g>
       <use xlink:href="#m8929893632" x="120.5482" y="270.086867" style="stroke: #000000; stroke-width: 0.8"/>
      </g>
     </g>
     <g id="text_2">
      <!-- Non-members WT -->
      <g transform="translate(74.631794 284.685304) scale(0.1 -0.1)">
       <defs>
        <path id="DejaVuSerif-4e" d="M 313 0 
L 313 331 
L 941 331 
L 941 4331 
L 313 4331 
L 313 4666 
L 1509 4666 
L 4306 984 
L 4306 4331 
L 3681 4331 
L 3681 4666 
L 5319 4666 
L 5319 4331 
L 4691 4331 
L 4691 -91 
L 4313 -91 
L 1325 3841 
L 1325 331 
L 1953 331 
L 1953 0 
L 313 0 
z
" transform="scale(0.015625)"/>
        <path id="DejaVuSerif-6f" d="M 1925 219 
Q 2388 219 2623 584 
Q 2859 950 2859 1663 
Q 2859 2375 2623 2739 
Q 2388 3103 1925 3103 
Q 1463 3103 1227 2739 
Q 991 2375 991 1663 
Q 991 950 1228 584 
Q 1466 219 1925 219 
z
M 1925 -91 
Q 1200 -91 759 389 
Q 319 869 319 1663 
Q 319 2456 758 2934 
Q 1197 3413 1925 3413 
Q 2653 3413 3092 2934 
Q 3531 2456 3531 1663 
Q 3531 869 3092 389 
Q 2653 -91 1925 -91 
z
" transform="scale(0.015625)"/>
        <path id="DejaVuSerif-2d" d="M 281 1959 
L 1881 1959 
L 1881 1472 
L 281 1472 
L 281 1959 
z
" transform="scale(0.015625)"/>
        <path id="DejaVuSerif-6d" d="M 3316 2675 
Q 3481 3041 3739 3227 
Q 3997 3413 4341 3413 
Q 4863 3413 5119 3089 
Q 5375 2766 5375 2113 
L 5375 331 
L 5894 331 
L 5894 0 
L 4300 0 
L 4300 331 
L 4800 331 
L 4800 2047 
Q 4800 2556 4650 2772 
Q 4500 2988 4153 2988 
Q 3769 2988 3567 2697 
Q 3366 2406 3366 1850 
L 3366 331 
L 3866 331 
L 3866 0 
L 2291 0 
L 2291 331 
L 2791 331 
L 2791 2069 
Q 2791 2566 2641 2777 
Q 2491 2988 2144 2988 
Q 1759 2988 1557 2697 
Q 1356 2406 1356 1850 
L 1356 331 
L 1856 331 
L 1856 0 
L 263 0 
L 263 331 
L 781 331 
L 781 2994 
L 231 2994 
L 231 3322 
L 1356 3322 
L 1356 2731 
Q 1516 3063 1762 3238 
Q 2009 3413 2322 3413 
Q 2709 3413 2968 3220 
Q 3228 3028 3316 2675 
z
" transform="scale(0.015625)"/>
        <path id="DejaVuSerif-65" d="M 3469 1600 
L 991 1600 
L 991 1575 
Q 991 903 1244 561 
Q 1497 219 1991 219 
Q 2369 219 2611 417 
Q 2853 616 2950 1006 
L 3413 1006 
Q 3275 459 2904 184 
Q 2534 -91 1931 -91 
Q 1203 -91 761 389 
Q 319 869 319 1663 
Q 319 2450 753 2931 
Q 1188 3413 1894 3413 
Q 2647 3413 3050 2948 
Q 3453 2484 3469 1600 
z
M 2791 1931 
Q 2772 2513 2545 2808 
Q 2319 3103 1894 3103 
Q 1497 3103 1269 2806 
Q 1041 2509 991 1931 
L 2791 1931 
z
" transform="scale(0.015625)"/>
        <path id="DejaVuSerif-62" d="M 738 331 
L 738 4531 
L 184 4531 
L 184 4863 
L 1313 4863 
L 1313 2803 
Q 1481 3116 1742 3264 
Q 2003 3413 2388 3413 
Q 3000 3413 3387 2928 
Q 3775 2444 3775 1663 
Q 3775 881 3387 395 
Q 3000 -91 2388 -91 
Q 2003 -91 1742 57 
Q 1481 206 1313 519 
L 1313 0 
L 184 0 
L 184 331 
L 738 331 
z
M 1313 1497 
Q 1313 897 1542 583 
Q 1772 269 2209 269 
Q 2650 269 2876 622 
Q 3103 975 3103 1663 
Q 3103 2353 2876 2703 
Q 2650 3053 2209 3053 
Q 1772 3053 1542 2737 
Q 1313 2422 1313 1825 
L 1313 1497 
z
" transform="scale(0.015625)"/>
        <path id="DejaVuSerif-72" d="M 3059 3328 
L 3059 2497 
L 2728 2497 
Q 2713 2744 2591 2866 
Q 2469 2988 2234 2988 
Q 1809 2988 1582 2694 
Q 1356 2400 1356 1850 
L 1356 331 
L 2022 331 
L 2022 0 
L 263 0 
L 263 331 
L 781 331 
L 781 2994 
L 231 2994 
L 231 3322 
L 1356 3322 
L 1356 2731 
Q 1525 3078 1790 3245 
Q 2056 3413 2438 3413 
Q 2578 3413 2733 3391 
Q 2888 3369 3059 3328 
z
" transform="scale(0.015625)"/>
        <path id="DejaVuSerif-20" transform="scale(0.015625)"/>
        <path id="DejaVuSerif-57" d="M 4878 0 
L 4366 0 
L 3297 3794 
L 2228 0 
L 1716 0 
L 494 4331 
L 31 4331 
L 31 4666 
L 1734 4666 
L 1734 4331 
L 1153 4331 
L 2125 884 
L 3188 4666 
L 3694 4666 
L 4775 844 
L 5753 4331 
L 5216 4331 
L 5216 4666 
L 6559 4666 
L 6559 4331 
L 6100 4331 
L 4878 0 
z
" transform="scale(0.015625)"/>
        <path id="DejaVuSerif-54" d="M 1222 0 
L 1222 331 
L 1819 331 
L 1819 4294 
L 447 4294 
L 447 3566 
L 63 3566 
L 63 4666 
L 4206 4666 
L 4206 3566 
L 3822 3566 
L 3822 4294 
L 2450 4294 
L 2450 331 
L 3047 331 
L 3047 0 
L 1222 0 
z
" transform="scale(0.015625)"/>
       </defs>
       <use xlink:href="#DejaVuSerif-4e"/>
       <use xlink:href="#DejaVuSerif-6f" transform="translate(87.5 0)"/>
       <use xlink:href="#DejaVuSerif-6e" transform="translate(147.705078 0)"/>
       <use xlink:href="#DejaVuSerif-2d" transform="translate(212.109375 0)"/>
       <use xlink:href="#DejaVuSerif-6d" transform="translate(245.898438 0)"/>
       <use xlink:href="#DejaVuSerif-65" transform="translate(340.722656 0)"/>
       <use xlink:href="#DejaVuSerif-6d" transform="translate(399.902344 0)"/>
       <use xlink:href="#DejaVuSerif-62" transform="translate(494.726562 0)"/>
       <use xlink:href="#DejaVuSerif-65" transform="translate(558.740234 0)"/>
       <use xlink:href="#DejaVuSerif-72" transform="translate(617.919922 0)"/>
       <use xlink:href="#DejaVuSerif-73" transform="translate(665.722656 0)"/>
       <use xlink:href="#DejaVuSerif-20" transform="translate(717.041016 0)"/>
       <use xlink:href="#DejaVuSerif-57" transform="translate(748.828125 0)"/>
       <use xlink:href="#DejaVuSerif-54" transform="translate(851.611328 0)"/>
      </g>
     </g>
    </g>
   </g>
   <g id="matplotlib.axis_2">
    <g id="ytick_1">
     <g id="line2d_3">
      <defs>
       <path id="m04260a7066" d="M 0 0 
L -3.5 0 
" style="stroke: #000000; stroke-width: 0.8"/>
      </defs>
      <g>
       <use xlink:href="#m04260a7066" x="20.6886" y="226.575597" style="stroke: #000000; stroke-width: 0.8"/>
      </g>
     </g>
     <g id="text_3">
      <!-- 1.0 -->
      <g transform="translate(-2.214525 230.374816) scale(0.1 -0.1)">
       <defs>
        <path id="DejaVuSerif-31" d="M 909 0 
L 909 331 
L 1722 331 
L 1722 4213 
L 781 3603 
L 781 4013 
L 1919 4750 
L 2350 4750 
L 2350 331 
L 3163 331 
L 3163 0 
L 909 0 
z
" transform="scale(0.015625)"/>
        <path id="DejaVuSerif-2e" d="M 603 325 
Q 603 500 722 622 
Q 841 744 1019 744 
Q 1191 744 1312 622 
Q 1434 500 1434 325 
Q 1434 153 1312 31 
Q 1191 -91 1019 -91 
Q 841 -91 722 29 
Q 603 150 603 325 
z
" transform="scale(0.015625)"/>
        <path id="DejaVuSerif-30" d="M 2034 219 
Q 2513 219 2750 744 
Q 2988 1269 2988 2328 
Q 2988 3391 2750 3916 
Q 2513 4441 2034 4441 
Q 1556 4441 1318 3916 
Q 1081 3391 1081 2328 
Q 1081 1269 1318 744 
Q 1556 219 2034 219 
z
M 2034 -91 
Q 1275 -91 848 546 
Q 422 1184 422 2328 
Q 422 3475 848 4112 
Q 1275 4750 2034 4750 
Q 2797 4750 3222 4112 
Q 3647 3475 3647 2328 
Q 3647 1184 3222 546 
Q 2797 -91 2034 -91 
z
" transform="scale(0.015625)"/>
       </defs>
       <use xlink:href="#DejaVuSerif-31"/>
       <use xlink:href="#DejaVuSerif-2e" transform="translate(63.623047 0)"/>
       <use xlink:href="#DejaVuSerif-30" transform="translate(95.410156 0)"/>
      </g>
     </g>
    </g>
    <g id="ytick_2">
     <g id="line2d_4">
      <g>
       <use xlink:href="#m04260a7066" x="20.6886" y="180.115021" style="stroke: #000000; stroke-width: 0.8"/>
      </g>
     </g>
     <g id="text_4">
      <!-- 1.5 -->
      <g transform="translate(-2.214525 183.91424) scale(0.1 -0.1)">
       <defs>
        <path id="DejaVuSerif-35" d="M 3219 4666 
L 3219 4153 
L 1081 4153 
L 1081 2816 
Q 1244 2928 1461 2984 
Q 1678 3041 1947 3041 
Q 2703 3041 3140 2622 
Q 3578 2203 3578 1478 
Q 3578 738 3136 323 
Q 2694 -91 1894 -91 
Q 1572 -91 1234 -12 
Q 897 66 544 225 
L 544 1131 
L 897 1131 
Q 925 688 1179 453 
Q 1434 219 1894 219 
Q 2388 219 2653 544 
Q 2919 869 2919 1478 
Q 2919 2084 2655 2407 
Q 2391 2731 1894 2731 
Q 1613 2731 1398 2631 
Q 1184 2531 1019 2322 
L 750 2322 
L 750 4666 
L 3219 4666 
z
" transform="scale(0.015625)"/>
       </defs>
       <use xlink:href="#DejaVuSerif-31"/>
       <use xlink:href="#DejaVuSerif-2e" transform="translate(63.623047 0)"/>
       <use xlink:href="#DejaVuSerif-35" transform="translate(95.410156 0)"/>
      </g>
     </g>
    </g>
    <g id="ytick_3">
     <g id="line2d_5">
      <g>
       <use xlink:href="#m04260a7066" x="20.6886" y="133.654445" style="stroke: #000000; stroke-width: 0.8"/>
      </g>
     </g>
     <g id="text_5">
      <!-- 2.0 -->
      <g transform="translate(-2.214525 137.453664) scale(0.1 -0.1)">
       <defs>
        <path id="DejaVuSerif-32" d="M 819 3553 
L 469 3553 
L 469 4384 
Q 803 4563 1142 4656 
Q 1481 4750 1806 4750 
Q 2534 4750 2956 4397 
Q 3378 4044 3378 3438 
Q 3378 2753 2422 1800 
Q 2347 1728 2309 1691 
L 1131 513 
L 3078 513 
L 3078 1088 
L 3444 1088 
L 3444 0 
L 434 0 
L 434 341 
L 1850 1753 
Q 2319 2222 2519 2614 
Q 2719 3006 2719 3438 
Q 2719 3909 2473 4175 
Q 2228 4441 1797 4441 
Q 1350 4441 1106 4219 
Q 863 3997 819 3553 
z
" transform="scale(0.015625)"/>
       </defs>
       <use xlink:href="#DejaVuSerif-32"/>
       <use xlink:href="#DejaVuSerif-2e" transform="translate(63.623047 0)"/>
       <use xlink:href="#DejaVuSerif-30" transform="translate(95.410156 0)"/>
      </g>
     </g>
    </g>
    <g id="ytick_4">
     <g id="line2d_6">
      <g>
       <use xlink:href="#m04260a7066" x="20.6886" y="87.193869" style="stroke: #000000; stroke-width: 0.8"/>
      </g>
     </g>
     <g id="text_6">
      <!-- 2.5 -->
      <g transform="translate(-2.214525 90.993088) scale(0.1 -0.1)">
       <use xlink:href="#DejaVuSerif-32"/>
       <use xlink:href="#DejaVuSerif-2e" transform="translate(63.623047 0)"/>
       <use xlink:href="#DejaVuSerif-35" transform="translate(95.410156 0)"/>
      </g>
     </g>
    </g>
   </g>
   <g id="line2d_7">
    <path d="M 63.12893 221.18486 
L 78.10787 221.18486 
L 78.10787 149.613598 
L 63.12893 149.613598 
L 63.12893 221.18486 
" clip-path="url(#p3d812e8d83)" style="fill: none; stroke: #000000; stroke-linecap: square"/>
   </g>
   <g id="line2d_8">
    <path d="M 70.6184 221.18486 
L 70.6184 257.947174 
" clip-path="url(#p3d812e8d83)" style="fill: none; stroke: #000000; stroke-linecap: square"/>
   </g>
   <g id="line2d_9">
    <path d="M 70.6184 149.613598 
L 70.6184 75.350739 
" clip-path="url(#p3d812e8d83)" style="fill: none; stroke: #000000; stroke-linecap: square"/>
   </g>
   <g id="line2d_10">
    <path d="M 66.873665 257.947174 
L 74.363135 257.947174 
" clip-path="url(#p3d812e8d83)" style="fill: none; stroke: #000000; stroke-linecap: square"/>
   </g>
   <g id="line2d_11">
    <path d="M 66.873665 75.350739 
L 74.363135 75.350739 
" clip-path="url(#p3d812e8d83)" style="fill: none; stroke: #000000; stroke-linecap: square"/>
   </g>
   <g id="line2d_12">
    <path d="M 113.05873 230.231514 
L 128.03767 230.231514 
L 128.03767 173.471919 
L 113.05873 173.471919 
L 113.05873 230.231514 
" clip-path="url(#p3d812e8d83)" style="fill: none; stroke: #000000; stroke-linecap: square"/>
   </g>
   <g id="line2d_13">
    <path d="M 120.5482 230.231514 
L 120.5482 259.891016 
" clip-path="url(#p3d812e8d83)" style="fill: none; stroke: #000000; stroke-linecap: square"/>
   </g>
   <g id="line2d_14">
    <path d="M 120.5482 173.471919 
L 120.5482 89.277452 
" clip-path="url(#p3d812e8d83)" style="fill: none; stroke: #000000; stroke-linecap: square"/>
   </g>
   <g id="line2d_15">
    <path d="M 116.803465 259.891016 
L 124.292935 259.891016 
" clip-path="url(#p3d812e8d83)" style="fill: none; stroke: #000000; stroke-linecap: square"/>
   </g>
   <g id="line2d_16">
    <path d="M 116.803465 89.277452 
L 124.292935 89.277452 
" clip-path="url(#p3d812e8d83)" style="fill: none; stroke: #000000; stroke-linecap: square"/>
   </g>
   <g id="LineCollection_1">
    <path d="M 64.377175 190.798992 
L 76.859625 190.798992 
" clip-path="url(#p3d812e8d83)" style="fill: none; stroke: #000000; stroke-width: 5"/>
    <path d="M 111.810485 210.588069 
L 129.285915 210.588069 
" clip-path="url(#p3d812e8d83)" style="fill: none; stroke: #000000; stroke-width: 5"/>
   </g>
   <g id="line2d_17">
    <path d="M 68.12191 60.033896 
L 68.12191 55.97401 
L 118.05171 55.97401 
L 118.05171 60.033896 
" clip-path="url(#p3d812e8d83)" style="fill: none; stroke: #000000; stroke-linecap: square"/>
   </g>
   <g id="patch_3">
    <path d="M 20.6886 270.086867 
L 20.6886 45.77816 
" style="fill: none; stroke: #000000; stroke-width: 0.8; stroke-linejoin: miter; stroke-linecap: square"/>
   </g>
   <g id="patch_4">
    <path d="M 170.478 270.086867 
L 170.478 45.77816 
" style="fill: none; stroke: #000000; stroke-width: 0.8; stroke-linejoin: miter; stroke-linecap: square"/>
   </g>
   <g id="patch_5">
    <path d="M 20.6886 270.086867 
L 170.478 270.086867 
" style="fill: none; stroke: #000000; stroke-width: 0.8; stroke-linejoin: miter; stroke-linecap: square"/>
   </g>
   <g id="patch_6">
    <path d="M 20.6886 45.77816 
L 170.478 45.77816 
" style="fill: none; stroke: #000000; stroke-width: 0.8; stroke-linejoin: miter; stroke-linecap: square"/>
   </g>
   <g id="text_7">
    <!-- * -->
    <g transform="translate(90.58681 51.86438) scale(0.1 -0.1)">
     <defs>
      <path id="DejaVuSerif-2a" d="M 3097 3866 
L 1875 3297 
L 3097 2719 
L 2859 2350 
L 1772 3028 
L 1813 1838 
L 1388 1838 
L 1428 3028 
L 341 2350 
L 103 2719 
L 1325 3291 
L 103 3866 
L 341 4238 
L 1428 3559 
L 1388 4750 
L 1813 4750 
L 1772 3559 
L 2859 4238 
L 3097 3866 
z
" transform="scale(0.015625)"/>
     </defs>
     <use xlink:href="#DejaVuSerif-2a"/>
    </g>
   </g>
   <g id="text_8">
    <!-- summed outNEF -->
    <g transform="translate(44.280488 -0.70459) scale(0.12 -0.12)">
     <defs>
      <path id="DejaVuSerif-64" d="M 3359 331 
L 3909 331 
L 3909 0 
L 2784 0 
L 2784 519 
Q 2616 206 2355 57 
Q 2094 -91 1709 -91 
Q 1097 -91 708 395 
Q 319 881 319 1663 
Q 319 2444 706 2928 
Q 1094 3413 1709 3413 
Q 2094 3413 2355 3264 
Q 2616 3116 2784 2803 
L 2784 4531 
L 2241 4531 
L 2241 4863 
L 3359 4863 
L 3359 331 
z
M 2784 1497 
L 2784 1825 
Q 2784 2422 2554 2737 
Q 2325 3053 1888 3053 
Q 1444 3053 1217 2703 
Q 991 2353 991 1663 
Q 991 975 1217 622 
Q 1444 269 1888 269 
Q 2325 269 2554 583 
Q 2784 897 2784 1497 
z
" transform="scale(0.015625)"/>
      <path id="DejaVuSerif-45" d="M 353 0 
L 353 331 
L 947 331 
L 947 4331 
L 353 4331 
L 353 4666 
L 4109 4666 
L 4109 3628 
L 3725 3628 
L 3725 4281 
L 1581 4281 
L 1581 2719 
L 3109 2719 
L 3109 3303 
L 3494 3303 
L 3494 1753 
L 3109 1753 
L 3109 2338 
L 1581 2338 
L 1581 384 
L 3775 384 
L 3775 1038 
L 4159 1038 
L 4159 0 
L 353 0 
z
" transform="scale(0.015625)"/>
      <path id="DejaVuSerif-46" d="M 353 0 
L 353 331 
L 947 331 
L 947 4331 
L 353 4331 
L 353 4666 
L 4172 4666 
L 4172 3628 
L 3788 3628 
L 3788 4281 
L 1581 4281 
L 1581 2719 
L 3175 2719 
L 3175 3303 
L 3559 3303 
L 3559 1753 
L 3175 1753 
L 3175 2338 
L 1581 2338 
L 1581 331 
L 2328 331 
L 2328 0 
L 353 0 
z
" transform="scale(0.015625)"/>
     </defs>
     <use xlink:href="#DejaVuSerif-73"/>
     <use xlink:href="#DejaVuSerif-75" transform="translate(51.318359 0)"/>
     <use xlink:href="#DejaVuSerif-6d" transform="translate(115.722656 0)"/>
     <use xlink:href="#DejaVuSerif-6d" transform="translate(210.546875 0)"/>
     <use xlink:href="#DejaVuSerif-65" transform="translate(305.371094 0)"/>
     <use xlink:href="#DejaVuSerif-64" transform="translate(364.550781 0)"/>
     <use xlink:href="#DejaVuSerif-20" transform="translate(428.564453 0)"/>
     <use xlink:href="#DejaVuSerif-6f" transform="translate(460.351562 0)"/>
     <use xlink:href="#DejaVuSerif-75" transform="translate(520.556641 0)"/>
     <use xlink:href="#DejaVuSerif-74" transform="translate(584.960938 0)"/>
     <use xlink:href="#DejaVuSerif-4e" transform="translate(625.146484 0)"/>
     <use xlink:href="#DejaVuSerif-45" transform="translate(712.646484 0)"/>
     <use xlink:href="#DejaVuSerif-46" transform="translate(785.644531 0)"/>
    </g>
    <!--  mnn = None thresh = 0, summation = mean -->
    <g transform="translate(-42.110137 12.732785) scale(0.12 -0.12)">
     <defs>
      <path id="DejaVuSerif-3d" d="M 678 2894 
L 4684 2894 
L 4684 2394 
L 678 2394 
L 678 2894 
z
M 678 1619 
L 4684 1619 
L 4684 1119 
L 678 1119 
L 678 1619 
z
" transform="scale(0.015625)"/>
      <path id="DejaVuSerif-68" d="M 263 0 
L 263 331 
L 781 331 
L 781 4531 
L 231 4531 
L 231 4863 
L 1356 4863 
L 1356 2731 
Q 1516 3069 1770 3241 
Q 2025 3413 2363 3413 
Q 2913 3413 3172 3097 
Q 3431 2781 3431 2113 
L 3431 331 
L 3944 331 
L 3944 0 
L 2356 0 
L 2356 331 
L 2853 331 
L 2853 1931 
Q 2853 2541 2704 2764 
Q 2556 2988 2175 2988 
Q 1775 2988 1565 2697 
Q 1356 2406 1356 1850 
L 1356 331 
L 1856 331 
L 1856 0 
L 263 0 
z
" transform="scale(0.015625)"/>
      <path id="DejaVuSerif-2c" d="M 231 -622 
Q 525 -406 662 -114 
Q 800 178 800 594 
L 800 709 
L 1416 709 
Q 1391 175 1164 -208 
Q 938 -591 481 -872 
L 231 -622 
z
" transform="scale(0.015625)"/>
      <path id="DejaVuSerif-69" d="M 622 4353 
Q 622 4497 726 4603 
Q 831 4709 978 4709 
Q 1122 4709 1226 4603 
Q 1331 4497 1331 4353 
Q 1331 4206 1228 4103 
Q 1125 4000 978 4000 
Q 831 4000 726 4103 
Q 622 4206 622 4353 
z
M 1356 331 
L 1900 331 
L 1900 0 
L 231 0 
L 231 331 
L 781 331 
L 781 2988 
L 231 2988 
L 231 3322 
L 1356 3322 
L 1356 331 
z
" transform="scale(0.015625)"/>
     </defs>
     <use xlink:href="#DejaVuSerif-20"/>
     <use xlink:href="#DejaVuSerif-6d" transform="translate(31.787109 0)"/>
     <use xlink:href="#DejaVuSerif-6e" transform="translate(126.611328 0)"/>
     <use xlink:href="#DejaVuSerif-6e" transform="translate(191.015625 0)"/>
     <use xlink:href="#DejaVuSerif-20" transform="translate(255.419922 0)"/>
     <use xlink:href="#DejaVuSerif-3d" transform="translate(287.207031 0)"/>
     <use xlink:href="#DejaVuSerif-20" transform="translate(370.996094 0)"/>
     <use xlink:href="#DejaVuSerif-4e" transform="translate(402.783203 0)"/>
     <use xlink:href="#DejaVuSerif-6f" transform="translate(490.283203 0)"/>
     <use xlink:href="#DejaVuSerif-6e" transform="translate(550.488281 0)"/>
     <use xlink:href="#DejaVuSerif-65" transform="translate(614.892578 0)"/>
     <use xlink:href="#DejaVuSerif-20" transform="translate(674.072266 0)"/>
     <use xlink:href="#DejaVuSerif-74" transform="translate(705.859375 0)"/>
     <use xlink:href="#DejaVuSerif-68" transform="translate(746.044922 0)"/>
     <use xlink:href="#DejaVuSerif-72" transform="translate(810.449219 0)"/>
     <use xlink:href="#DejaVuSerif-65" transform="translate(858.251953 0)"/>
     <use xlink:href="#DejaVuSerif-73" transform="translate(917.431641 0)"/>
     <use xlink:href="#DejaVuSerif-68" transform="translate(968.75 0)"/>
     <use xlink:href="#DejaVuSerif-20" transform="translate(1033.154297 0)"/>
     <use xlink:href="#DejaVuSerif-3d" transform="translate(1064.941406 0)"/>
     <use xlink:href="#DejaVuSerif-20" transform="translate(1148.730469 0)"/>
     <use xlink:href="#DejaVuSerif-30" transform="translate(1180.517578 0)"/>
     <use xlink:href="#DejaVuSerif-2c" transform="translate(1244.140625 0)"/>
     <use xlink:href="#DejaVuSerif-20" transform="translate(1275.927734 0)"/>
     <use xlink:href="#DejaVuSerif-73" transform="translate(1307.714844 0)"/>
     <use xlink:href="#DejaVuSerif-75" transform="translate(1359.033203 0)"/>
     <use xlink:href="#DejaVuSerif-6d" transform="translate(1423.4375 0)"/>
     <use xlink:href="#DejaVuSerif-6d" transform="translate(1518.261719 0)"/>
     <use xlink:href="#DejaVuSerif-61" transform="translate(1613.085938 0)"/>
     <use xlink:href="#DejaVuSerif-74" transform="translate(1672.705078 0)"/>
     <use xlink:href="#DejaVuSerif-69" transform="translate(1712.890625 0)"/>
     <use xlink:href="#DejaVuSerif-6f" transform="translate(1744.873047 0)"/>
     <use xlink:href="#DejaVuSerif-6e" transform="translate(1805.078125 0)"/>
     <use xlink:href="#DejaVuSerif-20" transform="translate(1869.482422 0)"/>
     <use xlink:href="#DejaVuSerif-3d" transform="translate(1901.269531 0)"/>
     <use xlink:href="#DejaVuSerif-20" transform="translate(1985.058594 0)"/>
     <use xlink:href="#DejaVuSerif-6d" transform="translate(2016.845703 0)"/>
     <use xlink:href="#DejaVuSerif-65" transform="translate(2111.669922 0)"/>
     <use xlink:href="#DejaVuSerif-61" transform="translate(2170.849609 0)"/>
     <use xlink:href="#DejaVuSerif-6e" transform="translate(2230.46875 0)"/>
    </g>
    <!--  norm. = CV logscale = False -->
    <g transform="translate(6.477675 26.17016) scale(0.12 -0.12)">
     <defs>
      <path id="DejaVuSerif-43" d="M 4513 1234 
Q 4306 581 3820 245 
Q 3334 -91 2591 -91 
Q 2134 -91 1743 65 
Q 1353 222 1050 525 
Q 700 875 529 1320 
Q 359 1766 359 2328 
Q 359 3416 987 4083 
Q 1616 4750 2644 4750 
Q 3025 4750 3456 4650 
Q 3888 4550 4384 4347 
L 4384 3272 
L 4031 3272 
Q 3916 3859 3567 4137 
Q 3219 4416 2591 4416 
Q 1844 4416 1459 3886 
Q 1075 3356 1075 2328 
Q 1075 1303 1459 773 
Q 1844 244 2591 244 
Q 3113 244 3450 492 
Q 3788 741 3938 1234 
L 4513 1234 
z
" transform="scale(0.015625)"/>
      <path id="DejaVuSerif-56" d="M 1119 4331 
L 2497 750 
L 3872 4331 
L 3347 4331 
L 3347 4666 
L 4716 4666 
L 4716 4331 
L 4263 4331 
L 2597 0 
L 2059 0 
L 403 4331 
L -63 4331 
L -63 4666 
L 1638 4666 
L 1638 4331 
L 1119 4331 
z
" transform="scale(0.015625)"/>
      <path id="DejaVuSerif-6c" d="M 1313 331 
L 1856 331 
L 1856 0 
L 184 0 
L 184 331 
L 738 331 
L 738 4531 
L 184 4531 
L 184 4863 
L 1313 4863 
L 1313 331 
z
" transform="scale(0.015625)"/>
      <path id="DejaVuSerif-67" d="M 3359 2988 
L 3359 72 
Q 3359 -644 2965 -1033 
Q 2572 -1422 1844 -1422 
Q 1516 -1422 1216 -1362 
Q 916 -1303 641 -1184 
L 641 -488 
L 941 -488 
Q 997 -813 1206 -963 
Q 1416 -1113 1806 -1113 
Q 2313 -1113 2548 -827 
Q 2784 -541 2784 72 
L 2784 519 
Q 2616 206 2355 57 
Q 2094 -91 1709 -91 
Q 1097 -91 708 395 
Q 319 881 319 1663 
Q 319 2444 706 2928 
Q 1094 3413 1709 3413 
Q 2094 3413 2355 3264 
Q 2616 3116 2784 2803 
L 2784 3322 
L 3909 3322 
L 3909 2988 
L 3359 2988 
z
M 2784 1825 
Q 2784 2422 2554 2737 
Q 2325 3053 1888 3053 
Q 1444 3053 1217 2703 
Q 991 2353 991 1663 
Q 991 975 1217 622 
Q 1444 269 1888 269 
Q 2325 269 2554 583 
Q 2784 897 2784 1497 
L 2784 1825 
z
" transform="scale(0.015625)"/>
      <path id="DejaVuSerif-63" d="M 3291 997 
Q 3169 466 2822 187 
Q 2475 -91 1925 -91 
Q 1200 -91 759 389 
Q 319 869 319 1663 
Q 319 2459 759 2936 
Q 1200 3413 1925 3413 
Q 2241 3413 2553 3339 
Q 2866 3266 3181 3116 
L 3181 2266 
L 2847 2266 
Q 2781 2703 2561 2903 
Q 2341 3103 1931 3103 
Q 1466 3103 1228 2742 
Q 991 2381 991 1663 
Q 991 944 1227 581 
Q 1463 219 1931 219 
Q 2303 219 2525 412 
Q 2747 606 2828 997 
L 3291 997 
z
" transform="scale(0.015625)"/>
     </defs>
     <use xlink:href="#DejaVuSerif-20"/>
     <use xlink:href="#DejaVuSerif-6e" transform="translate(31.787109 0)"/>
     <use xlink:href="#DejaVuSerif-6f" transform="translate(96.191406 0)"/>
     <use xlink:href="#DejaVuSerif-72" transform="translate(156.396484 0)"/>
     <use xlink:href="#DejaVuSerif-6d" transform="translate(204.199219 0)"/>
     <use xlink:href="#DejaVuSerif-2e" transform="translate(299.023438 0)"/>
     <use xlink:href="#DejaVuSerif-20" transform="translate(330.810547 0)"/>
     <use xlink:href="#DejaVuSerif-3d" transform="translate(362.597656 0)"/>
     <use xlink:href="#DejaVuSerif-20" transform="translate(446.386719 0)"/>
     <use xlink:href="#DejaVuSerif-43" transform="translate(478.173828 0)"/>
     <use xlink:href="#DejaVuSerif-56" transform="translate(554.6875 0)"/>
     <use xlink:href="#DejaVuSerif-20" transform="translate(626.904297 0)"/>
     <use xlink:href="#DejaVuSerif-6c" transform="translate(658.691406 0)"/>
     <use xlink:href="#DejaVuSerif-6f" transform="translate(690.673828 0)"/>
     <use xlink:href="#DejaVuSerif-67" transform="translate(750.878906 0)"/>
     <use xlink:href="#DejaVuSerif-73" transform="translate(814.892578 0)"/>
     <use xlink:href="#DejaVuSerif-63" transform="translate(866.210938 0)"/>
     <use xlink:href="#DejaVuSerif-61" transform="translate(922.216797 0)"/>
     <use xlink:href="#DejaVuSerif-6c" transform="translate(981.835938 0)"/>
     <use xlink:href="#DejaVuSerif-65" transform="translate(1013.818359 0)"/>
     <use xlink:href="#DejaVuSerif-20" transform="translate(1072.998047 0)"/>
     <use xlink:href="#DejaVuSerif-3d" transform="translate(1104.785156 0)"/>
     <use xlink:href="#DejaVuSerif-20" transform="translate(1188.574219 0)"/>
     <use xlink:href="#DejaVuSerif-46" transform="translate(1220.361328 0)"/>
     <use xlink:href="#DejaVuSerif-61" transform="translate(1282.996094 0)"/>
     <use xlink:href="#DejaVuSerif-6c" transform="translate(1342.615234 0)"/>
     <use xlink:href="#DejaVuSerif-73" transform="translate(1374.597656 0)"/>
     <use xlink:href="#DejaVuSerif-65" transform="translate(1425.916016 0)"/>
    </g>
    <!--  permutation test on the median. -->
    <g transform="translate(-4.666387 39.77816) scale(0.12 -0.12)">
     <defs>
      <path id="DejaVuSerif-70" d="M 1313 1825 
L 1313 1497 
Q 1313 897 1542 583 
Q 1772 269 2209 269 
Q 2650 269 2876 622 
Q 3103 975 3103 1663 
Q 3103 2353 2876 2703 
Q 2650 3053 2209 3053 
Q 1772 3053 1542 2737 
Q 1313 2422 1313 1825 
z
M 738 2988 
L 184 2988 
L 184 3322 
L 1313 3322 
L 1313 2803 
Q 1481 3116 1742 3264 
Q 2003 3413 2388 3413 
Q 3000 3413 3387 2928 
Q 3775 2444 3775 1663 
Q 3775 881 3387 395 
Q 3000 -91 2388 -91 
Q 2003 -91 1742 57 
Q 1481 206 1313 519 
L 1313 -997 
L 1856 -997 
L 1856 -1331 
L 184 -1331 
L 184 -997 
L 738 -997 
L 738 2988 
z
" transform="scale(0.015625)"/>
     </defs>
     <use xlink:href="#DejaVuSerif-20"/>
     <use xlink:href="#DejaVuSerif-70" transform="translate(31.787109 0)"/>
     <use xlink:href="#DejaVuSerif-65" transform="translate(95.800781 0)"/>
     <use xlink:href="#DejaVuSerif-72" transform="translate(154.980469 0)"/>
     <use xlink:href="#DejaVuSerif-6d" transform="translate(202.783203 0)"/>
     <use xlink:href="#DejaVuSerif-75" transform="translate(297.607422 0)"/>
     <use xlink:href="#DejaVuSerif-74" transform="translate(362.011719 0)"/>
     <use xlink:href="#DejaVuSerif-61" transform="translate(402.197266 0)"/>
     <use xlink:href="#DejaVuSerif-74" transform="translate(461.816406 0)"/>
     <use xlink:href="#DejaVuSerif-69" transform="translate(502.001953 0)"/>
     <use xlink:href="#DejaVuSerif-6f" transform="translate(533.984375 0)"/>
     <use xlink:href="#DejaVuSerif-6e" transform="translate(594.189453 0)"/>
     <use xlink:href="#DejaVuSerif-20" transform="translate(658.59375 0)"/>
     <use xlink:href="#DejaVuSerif-74" transform="translate(690.380859 0)"/>
     <use xlink:href="#DejaVuSerif-65" transform="translate(730.566406 0)"/>
     <use xlink:href="#DejaVuSerif-73" transform="translate(789.746094 0)"/>
     <use xlink:href="#DejaVuSerif-74" transform="translate(841.064453 0)"/>
     <use xlink:href="#DejaVuSerif-20" transform="translate(881.25 0)"/>
     <use xlink:href="#DejaVuSerif-6f" transform="translate(913.037109 0)"/>
     <use xlink:href="#DejaVuSerif-6e" transform="translate(973.242188 0)"/>
     <use xlink:href="#DejaVuSerif-20" transform="translate(1037.646484 0)"/>
     <use xlink:href="#DejaVuSerif-74" transform="translate(1069.433594 0)"/>
     <use xlink:href="#DejaVuSerif-68" transform="translate(1109.619141 0)"/>
     <use xlink:href="#DejaVuSerif-65" transform="translate(1174.023438 0)"/>
     <use xlink:href="#DejaVuSerif-20" transform="translate(1233.203125 0)"/>
     <use xlink:href="#DejaVuSerif-6d" transform="translate(1264.990234 0)"/>
     <use xlink:href="#DejaVuSerif-65" transform="translate(1359.814453 0)"/>
     <use xlink:href="#DejaVuSerif-64" transform="translate(1418.994141 0)"/>
     <use xlink:href="#DejaVuSerif-69" transform="translate(1483.007812 0)"/>
     <use xlink:href="#DejaVuSerif-61" transform="translate(1514.990234 0)"/>
     <use xlink:href="#DejaVuSerif-6e" transform="translate(1574.609375 0)"/>
     <use xlink:href="#DejaVuSerif-2e" transform="translate(1639.013672 0)"/>
    </g>
   </g>
  </g>
 </g>
 <defs>
  <clipPath id="p3d812e8d83">
   <rect x="20.6886" y="45.77816" width="149.7894" height="224.308707"/>
  </clipPath>
 </defs>
</svg>
