<?xml version="1.0" encoding="utf-8" standalone="no"?>
<!DOCTYPE svg PUBLIC "-//W3C//DTD SVG 1.1//EN"
  "http://www.w3.org/Graphics/SVG/1.1/DTD/svg11.dtd">
<svg xmlns:xlink="http://www.w3.org/1999/xlink" width="288pt" height="432pt" viewBox="0 0 288 432" xmlns="http://www.w3.org/2000/svg" version="1.1">
 <metadata>
  <rdf:RDF xmlns:dc="http://purl.org/dc/elements/1.1/" xmlns:cc="http://creativecommons.org/ns#" xmlns:rdf="http://www.w3.org/1999/02/22-rdf-syntax-ns#">
   <cc:Work>
    <dc:type rdf:resource="http://purl.org/dc/dcmitype/StillImage"/>
    <dc:date>2025-08-14T15:54:17.149617</dc:date>
    <dc:format>image/svg+xml</dc:format>
    <dc:creator>
     <cc:Agent>
      <dc:title>Matplotlib v3.10.0, https://matplotlib.org/</dc:title>
     </cc:Agent>
    </dc:creator>
   </cc:Work>
  </rdf:RDF>
 </metadata>
 <defs>
  <style type="text/css">*{stroke-linejoin: round; stroke-linecap: butt}</style>
 </defs>
 <g id="figure_1">
  <g id="patch_1">
   <path d="M 0 432 
L 288 432 
L 288 0 
L 0 0 
z
" style="fill: #ffffff"/>
  </g>
  <g id="axes_1">
   <g id="patch_2">
    <path d="M 51.3425 404.12 
L 277.2 404.12 
L 277.2 68.496 
L 51.3425 68.496 
z
" style="fill: #ffffff"/>
   </g>
   <g id="PathCollection_1">
    <defs>
     <path id="C0_0_4169de8db2" d="M 0 5 
C 1.326016 5 2.597899 4.473168 3.535534 3.535534 
C 4.473168 2.597899 5 1.326016 5 -0 
C 5 -1.326016 4.473168 -2.597899 3.535534 -3.535534 
C 2.597899 -4.473168 1.326016 -5 0 -5 
C -1.326016 -5 -2.597899 -4.473168 -3.535534 -3.535534 
C -4.473168 -2.597899 -5 -1.326016 -5 0 
C -5 1.326016 -4.473168 2.597899 -3.535534 3.535534 
C -2.597899 4.473168 -1.326016 5 0 5 
z
"/>
    </defs>
    <g clip-path="url(#pdb6b289adb)">
     <use xlink:href="#C0_0_4169de8db2" x="111.700555" y="322.065289" style="fill: #ff0000; fill-opacity: 0.5"/>
    </g>
    <g clip-path="url(#pdb6b289adb)">
     <use xlink:href="#C0_0_4169de8db2" x="108.271359" y="317.612017" style="fill: #ff0000; fill-opacity: 0.5"/>
    </g>
    <g clip-path="url(#pdb6b289adb)">
     <use xlink:href="#C0_0_4169de8db2" x="111.463378" y="351.003398" style="fill: #ff0000; fill-opacity: 0.5"/>
    </g>
    <g clip-path="url(#pdb6b289adb)">
     <use xlink:href="#C0_0_4169de8db2" x="107.311273" y="298.787565" style="fill: #ff0000; fill-opacity: 0.5"/>
    </g>
    <g clip-path="url(#pdb6b289adb)">
     <use xlink:href="#C0_0_4169de8db2" x="105.289591" y="278.870185" style="fill: #ff0000; fill-opacity: 0.5"/>
    </g>
    <g clip-path="url(#pdb6b289adb)">
     <use xlink:href="#C0_0_4169de8db2" x="108.209538" y="381.671976" style="fill: #ff0000; fill-opacity: 0.5"/>
    </g>
    <g clip-path="url(#pdb6b289adb)">
     <use xlink:href="#C0_0_4169de8db2" x="114.403904" y="347.773553" style="fill: #ff0000; fill-opacity: 0.5"/>
    </g>
    <g clip-path="url(#pdb6b289adb)">
     <use xlink:href="#C0_0_4169de8db2" x="108.187982" y="387.804061" style="fill: #ff0000; fill-opacity: 0.5"/>
    </g>
    <g clip-path="url(#pdb6b289adb)">
     <use xlink:href="#C0_0_4169de8db2" x="112.709084" y="326.958994" style="fill: #ff0000; fill-opacity: 0.5"/>
    </g>
    <g clip-path="url(#pdb6b289adb)">
     <use xlink:href="#C0_0_4169de8db2" x="113.256526" y="374.232185" style="fill: #ff0000; fill-opacity: 0.5"/>
    </g>
    <g clip-path="url(#pdb6b289adb)">
     <use xlink:href="#C0_0_4169de8db2" x="105.639128" y="354.510554" style="fill: #ff0000; fill-opacity: 0.5"/>
    </g>
    <g clip-path="url(#pdb6b289adb)">
     <use xlink:href="#C0_0_4169de8db2" x="107.133624" y="322.652533" style="fill: #ff0000; fill-opacity: 0.5"/>
    </g>
    <g clip-path="url(#pdb6b289adb)">
     <use xlink:href="#C0_0_4169de8db2" x="106.211228" y="318.525509" style="fill: #ff0000; fill-opacity: 0.5"/>
    </g>
    <g clip-path="url(#pdb6b289adb)">
     <use xlink:href="#C0_0_4169de8db2" x="110.699958" y="285.527255" style="fill: #ff0000; fill-opacity: 0.5"/>
    </g>
    <g clip-path="url(#pdb6b289adb)">
     <use xlink:href="#C0_0_4169de8db2" x="113.019745" y="267.565726" style="fill: #ff0000; fill-opacity: 0.5"/>
    </g>
    <g clip-path="url(#pdb6b289adb)">
     <use xlink:href="#C0_0_4169de8db2" x="112.280548" y="336.289658" style="fill: #ff0000; fill-opacity: 0.5"/>
    </g>
    <g clip-path="url(#pdb6b289adb)">
     <use xlink:href="#C0_0_4169de8db2" x="113.799221" y="343.960541" style="fill: #ff0000; fill-opacity: 0.5"/>
    </g>
    <g clip-path="url(#pdb6b289adb)">
     <use xlink:href="#C0_0_4169de8db2" x="110.274936" y="269.898392" style="fill: #ff0000; fill-opacity: 0.5"/>
    </g>
    <g clip-path="url(#pdb6b289adb)">
     <use xlink:href="#C0_0_4169de8db2" x="102.157018" y="341.313862" style="fill: #ff0000; fill-opacity: 0.5"/>
    </g>
    <g clip-path="url(#pdb6b289adb)">
     <use xlink:href="#C0_0_4169de8db2" x="109.935645" y="345.904429" style="fill: #ff0000; fill-opacity: 0.5"/>
    </g>
    <g clip-path="url(#pdb6b289adb)">
     <use xlink:href="#C0_0_4169de8db2" x="105.349525" y="137.269662" style="fill: #ff0000; fill-opacity: 0.5"/>
    </g>
    <g clip-path="url(#pdb6b289adb)">
     <use xlink:href="#C0_0_4169de8db2" x="108.838505" y="370.397424" style="fill: #ff0000; fill-opacity: 0.5"/>
    </g>
    <g clip-path="url(#pdb6b289adb)">
     <use xlink:href="#C0_0_4169de8db2" x="100.801799" y="348.670732" style="fill: #ff0000; fill-opacity: 0.5"/>
    </g>
    <g clip-path="url(#pdb6b289adb)">
     <use xlink:href="#C0_0_4169de8db2" x="97.45229" y="336.64853" style="fill: #ff0000; fill-opacity: 0.5"/>
    </g>
    <g clip-path="url(#pdb6b289adb)">
     <use xlink:href="#C0_0_4169de8db2" x="109.301072" y="309.977837" style="fill: #ff0000; fill-opacity: 0.5"/>
    </g>
    <g clip-path="url(#pdb6b289adb)">
     <use xlink:href="#C0_0_4169de8db2" x="98.229575" y="144.867488" style="fill: #ff0000; fill-opacity: 0.5"/>
    </g>
    <g clip-path="url(#pdb6b289adb)">
     <use xlink:href="#C0_0_4169de8db2" x="115.717641" y="265.23306" style="fill: #ff0000; fill-opacity: 0.5"/>
    </g>
    <g clip-path="url(#pdb6b289adb)">
     <use xlink:href="#C0_0_4169de8db2" x="108.684008" y="211.157618" style="fill: #ff0000; fill-opacity: 0.5"/>
    </g>
    <g clip-path="url(#pdb6b289adb)">
     <use xlink:href="#C0_0_4169de8db2" x="105.277464" y="312.145567" style="fill: #ff0000; fill-opacity: 0.5"/>
    </g>
    <g clip-path="url(#pdb6b289adb)">
     <use xlink:href="#C0_0_4169de8db2" x="110.736634" y="362.487293" style="fill: #ff0000; fill-opacity: 0.5"/>
    </g>
    <g clip-path="url(#pdb6b289adb)">
     <use xlink:href="#C0_0_4169de8db2" x="116.9155" y="336.508969" style="fill: #ff0000; fill-opacity: 0.5"/>
    </g>
    <g clip-path="url(#pdb6b289adb)">
     <use xlink:href="#C0_0_4169de8db2" x="108.356141" y="307.609827" style="fill: #ff0000; fill-opacity: 0.5"/>
    </g>
    <g clip-path="url(#pdb6b289adb)">
     <use xlink:href="#C0_0_4169de8db2" x="112.418962" y="288.200849" style="fill: #ff0000; fill-opacity: 0.5"/>
    </g>
    <g clip-path="url(#pdb6b289adb)">
     <use xlink:href="#C0_0_4169de8db2" x="108.285525" y="283.505611" style="fill: #ff0000; fill-opacity: 0.5"/>
    </g>
    <g clip-path="url(#pdb6b289adb)">
     <use xlink:href="#C0_0_4169de8db2" x="106.35478" y="379.95782" style="fill: #ff0000; fill-opacity: 0.5"/>
    </g>
    <g clip-path="url(#pdb6b289adb)">
     <use xlink:href="#C0_0_4169de8db2" x="110.910818" y="330.158933" style="fill: #ff0000; fill-opacity: 0.5"/>
    </g>
    <g clip-path="url(#pdb6b289adb)">
     <use xlink:href="#C0_0_4169de8db2" x="102.750855" y="268.148892" style="fill: #ff0000; fill-opacity: 0.5"/>
    </g>
    <g clip-path="url(#pdb6b289adb)">
     <use xlink:href="#C0_0_4169de8db2" x="107.976504" y="324.910434" style="fill: #ff0000; fill-opacity: 0.5"/>
    </g>
    <g clip-path="url(#pdb6b289adb)">
     <use xlink:href="#C0_0_4169de8db2" x="112.797905" y="376.352791" style="fill: #ff0000; fill-opacity: 0.5"/>
    </g>
    <g clip-path="url(#pdb6b289adb)">
     <use xlink:href="#C0_0_4169de8db2" x="108.811603" y="325.882379" style="fill: #ff0000; fill-opacity: 0.5"/>
    </g>
    <g clip-path="url(#pdb6b289adb)">
     <use xlink:href="#C0_0_4169de8db2" x="112.487795" y="368.647924" style="fill: #ff0000; fill-opacity: 0.5"/>
    </g>
    <g clip-path="url(#pdb6b289adb)">
     <use xlink:href="#C0_0_4169de8db2" x="103.689467" y="353.5155" style="fill: #ff0000; fill-opacity: 0.5"/>
    </g>
   </g>
   <g id="PathCollection_2">
    <defs>
     <path id="C1_0_6f0fd5dc8b" d="M 0 5 
C 1.326016 5 2.597899 4.473168 3.535534 3.535534 
C 4.473168 2.597899 5 1.326016 5 -0 
C 5 -1.326016 4.473168 -2.597899 3.535534 -3.535534 
C 2.597899 -4.473168 1.326016 -5 0 -5 
C -1.326016 -5 -2.597899 -4.473168 -3.535534 -3.535534 
C -4.473168 -2.597899 -5 -1.326016 -5 0 
C -5 1.326016 -4.473168 2.597899 -3.535534 3.535534 
C -2.597899 4.473168 -1.326016 5 0 5 
z
"/>
    </defs>
    <g clip-path="url(#pdb6b289adb)">
     <use xlink:href="#C1_0_6f0fd5dc8b" x="204.684312" y="356.207038" style="fill: #808080; fill-opacity: 0.5"/>
    </g>
    <g clip-path="url(#pdb6b289adb)">
     <use xlink:href="#C1_0_6f0fd5dc8b" x="218.168217" y="220.912404" style="fill: #808080; fill-opacity: 0.5"/>
    </g>
    <g clip-path="url(#pdb6b289adb)">
     <use xlink:href="#C1_0_6f0fd5dc8b" x="211.32279" y="255.902395" style="fill: #808080; fill-opacity: 0.5"/>
    </g>
    <g clip-path="url(#pdb6b289adb)">
     <use xlink:href="#C1_0_6f0fd5dc8b" x="212.794912" y="215.080738" style="fill: #808080; fill-opacity: 0.5"/>
    </g>
    <g clip-path="url(#pdb6b289adb)">
     <use xlink:href="#C1_0_6f0fd5dc8b" x="222.437465" y="252.67255" style="fill: #808080; fill-opacity: 0.5"/>
    </g>
    <g clip-path="url(#pdb6b289adb)">
     <use xlink:href="#C1_0_6f0fd5dc8b" x="222.62998" y="378.685457" style="fill: #808080; fill-opacity: 0.5"/>
    </g>
    <g clip-path="url(#pdb6b289adb)">
     <use xlink:href="#C1_0_6f0fd5dc8b" x="225.907826" y="356.595816" style="fill: #808080; fill-opacity: 0.5"/>
    </g>
    <g clip-path="url(#pdb6b289adb)">
     <use xlink:href="#C1_0_6f0fd5dc8b" x="216.733531" y="317.448893" style="fill: #808080; fill-opacity: 0.5"/>
    </g>
    <g clip-path="url(#pdb6b289adb)">
     <use xlink:href="#C1_0_6f0fd5dc8b" x="223.277961" y="337.545709" style="fill: #808080; fill-opacity: 0.5"/>
    </g>
    <g clip-path="url(#pdb6b289adb)">
     <use xlink:href="#C1_0_6f0fd5dc8b" x="217.709345" y="241.906399" style="fill: #808080; fill-opacity: 0.5"/>
    </g>
    <g clip-path="url(#pdb6b289adb)">
     <use xlink:href="#C1_0_6f0fd5dc8b" x="219.078693" y="235.626144" style="fill: #808080; fill-opacity: 0.5"/>
    </g>
    <g clip-path="url(#pdb6b289adb)">
     <use xlink:href="#C1_0_6f0fd5dc8b" x="221.750228" y="263.797573" style="fill: #808080; fill-opacity: 0.5"/>
    </g>
    <g clip-path="url(#pdb6b289adb)">
     <use xlink:href="#C1_0_6f0fd5dc8b" x="219.36625" y="246.377342" style="fill: #808080; fill-opacity: 0.5"/>
    </g>
    <g clip-path="url(#pdb6b289adb)">
     <use xlink:href="#C1_0_6f0fd5dc8b" x="228.95062" y="356.207038" style="fill: #808080; fill-opacity: 0.5"/>
    </g>
    <g clip-path="url(#pdb6b289adb)">
     <use xlink:href="#C1_0_6f0fd5dc8b" x="226.191678" y="289.726054" style="fill: #808080; fill-opacity: 0.5"/>
    </g>
    <g clip-path="url(#pdb6b289adb)">
     <use xlink:href="#C1_0_6f0fd5dc8b" x="219.865584" y="371.174979" style="fill: #808080; fill-opacity: 0.5"/>
    </g>
    <g clip-path="url(#pdb6b289adb)">
     <use xlink:href="#C1_0_6f0fd5dc8b" x="214.619938" y="308.656537" style="fill: #808080; fill-opacity: 0.5"/>
    </g>
    <g clip-path="url(#pdb6b289adb)">
     <use xlink:href="#C1_0_6f0fd5dc8b" x="211.51625" y="376.988973" style="fill: #808080; fill-opacity: 0.5"/>
    </g>
    <g clip-path="url(#pdb6b289adb)">
     <use xlink:href="#C1_0_6f0fd5dc8b" x="216.598457" y="332.29721" style="fill: #808080; fill-opacity: 0.5"/>
    </g>
    <g clip-path="url(#pdb6b289adb)">
     <use xlink:href="#C1_0_6f0fd5dc8b" x="224.961187" y="360.87237" style="fill: #808080; fill-opacity: 0.5"/>
    </g>
    <g clip-path="url(#pdb6b289adb)">
     <use xlink:href="#C1_0_6f0fd5dc8b" x="223.464012" y="129.938425" style="fill: #808080; fill-opacity: 0.5"/>
    </g>
    <g clip-path="url(#pdb6b289adb)">
     <use xlink:href="#C1_0_6f0fd5dc8b" x="214.528824" y="326.094439" style="fill: #808080; fill-opacity: 0.5"/>
    </g>
    <g clip-path="url(#pdb6b289adb)">
     <use xlink:href="#C1_0_6f0fd5dc8b" x="228.42477" y="332.491599" style="fill: #808080; fill-opacity: 0.5"/>
    </g>
    <g clip-path="url(#pdb6b289adb)">
     <use xlink:href="#C1_0_6f0fd5dc8b" x="222.466262" y="282.279466" style="fill: #808080; fill-opacity: 0.5"/>
    </g>
    <g clip-path="url(#pdb6b289adb)">
     <use xlink:href="#C1_0_6f0fd5dc8b" x="224.555888" y="235.120461" style="fill: #808080; fill-opacity: 0.5"/>
    </g>
    <g clip-path="url(#pdb6b289adb)">
     <use xlink:href="#C1_0_6f0fd5dc8b" x="222.693178" y="291.789566" style="fill: #808080; fill-opacity: 0.5"/>
    </g>
    <g clip-path="url(#pdb6b289adb)">
     <use xlink:href="#C1_0_6f0fd5dc8b" x="217.231684" y="378.049275" style="fill: #808080; fill-opacity: 0.5"/>
    </g>
    <g clip-path="url(#pdb6b289adb)">
     <use xlink:href="#C1_0_6f0fd5dc8b" x="227.10619" y="315.57977" style="fill: #808080; fill-opacity: 0.5"/>
    </g>
    <g clip-path="url(#pdb6b289adb)">
     <use xlink:href="#C1_0_6f0fd5dc8b" x="227.347374" y="376.776912" style="fill: #808080; fill-opacity: 0.5"/>
    </g>
    <g clip-path="url(#pdb6b289adb)">
     <use xlink:href="#C1_0_6f0fd5dc8b" x="217.719608" y="325.882379" style="fill: #808080; fill-opacity: 0.5"/>
    </g>
    <g clip-path="url(#pdb6b289adb)">
     <use xlink:href="#C1_0_6f0fd5dc8b" x="216.906851" y="274.74316" style="fill: #808080; fill-opacity: 0.5"/>
    </g>
    <g clip-path="url(#pdb6b289adb)">
     <use xlink:href="#C1_0_6f0fd5dc8b" x="220.037711" y="209.787381" style="fill: #808080; fill-opacity: 0.5"/>
    </g>
    <g clip-path="url(#pdb6b289adb)">
     <use xlink:href="#C1_0_6f0fd5dc8b" x="225.882844" y="372.924479" style="fill: #808080; fill-opacity: 0.5"/>
    </g>
    <g clip-path="url(#pdb6b289adb)">
     <use xlink:href="#C1_0_6f0fd5dc8b" x="234.071274" y="326.24125" style="fill: #808080; fill-opacity: 0.5"/>
    </g>
    <g clip-path="url(#pdb6b289adb)">
     <use xlink:href="#C1_0_6f0fd5dc8b" x="211.986253" y="246.830916" style="fill: #808080; fill-opacity: 0.5"/>
    </g>
    <g clip-path="url(#pdb6b289adb)">
     <use xlink:href="#C1_0_6f0fd5dc8b" x="217.17048" y="365.961824" style="fill: #808080; fill-opacity: 0.5"/>
    </g>
    <g clip-path="url(#pdb6b289adb)">
     <use xlink:href="#C1_0_6f0fd5dc8b" x="215.351028" y="333.956992" style="fill: #808080; fill-opacity: 0.5"/>
    </g>
    <g clip-path="url(#pdb6b289adb)">
     <use xlink:href="#C1_0_6f0fd5dc8b" x="230.380195" y="275.460903" style="fill: #808080; fill-opacity: 0.5"/>
    </g>
    <g clip-path="url(#pdb6b289adb)">
     <use xlink:href="#C1_0_6f0fd5dc8b" x="222.625461" y="83.751636" style="fill: #808080; fill-opacity: 0.5"/>
    </g>
    <g clip-path="url(#pdb6b289adb)">
     <use xlink:href="#C1_0_6f0fd5dc8b" x="222.88651" y="374.509495" style="fill: #808080; fill-opacity: 0.5"/>
    </g>
    <g clip-path="url(#pdb6b289adb)">
     <use xlink:href="#C1_0_6f0fd5dc8b" x="213.12194" y="381.60718" style="fill: #808080; fill-opacity: 0.5"/>
    </g>
    <g clip-path="url(#pdb6b289adb)">
     <use xlink:href="#C1_0_6f0fd5dc8b" x="229.853835" y="366.255446" style="fill: #808080; fill-opacity: 0.5"/>
    </g>
    <g clip-path="url(#pdb6b289adb)">
     <use xlink:href="#C1_0_6f0fd5dc8b" x="223.756288" y="175.107324" style="fill: #808080; fill-opacity: 0.5"/>
    </g>
    <g clip-path="url(#pdb6b289adb)">
     <use xlink:href="#C1_0_6f0fd5dc8b" x="223.768789" y="347.055809" style="fill: #808080; fill-opacity: 0.5"/>
    </g>
    <g clip-path="url(#pdb6b289adb)">
     <use xlink:href="#C1_0_6f0fd5dc8b" x="219.787883" y="369.566853" style="fill: #808080; fill-opacity: 0.5"/>
    </g>
    <g clip-path="url(#pdb6b289adb)">
     <use xlink:href="#C1_0_6f0fd5dc8b" x="216.19292" y="388.345993" style="fill: #808080; fill-opacity: 0.5"/>
    </g>
    <g clip-path="url(#pdb6b289adb)">
     <use xlink:href="#C1_0_6f0fd5dc8b" x="220.056221" y="302.555718" style="fill: #808080; fill-opacity: 0.5"/>
    </g>
    <g clip-path="url(#pdb6b289adb)">
     <use xlink:href="#C1_0_6f0fd5dc8b" x="217.431379" y="388.864364" style="fill: #808080; fill-opacity: 0.5"/>
    </g>
    <g clip-path="url(#pdb6b289adb)">
     <use xlink:href="#C1_0_6f0fd5dc8b" x="217.691429" y="296.634334" style="fill: #808080; fill-opacity: 0.5"/>
    </g>
    <g clip-path="url(#pdb6b289adb)">
     <use xlink:href="#C1_0_6f0fd5dc8b" x="218.168561" y="291.528569" style="fill: #808080; fill-opacity: 0.5"/>
    </g>
    <g clip-path="url(#pdb6b289adb)">
     <use xlink:href="#C1_0_6f0fd5dc8b" x="219.86839" y="343.247782" style="fill: #808080; fill-opacity: 0.5"/>
    </g>
    <g clip-path="url(#pdb6b289adb)">
     <use xlink:href="#C1_0_6f0fd5dc8b" x="228.292015" y="304.350076" style="fill: #808080; fill-opacity: 0.5"/>
    </g>
    <g clip-path="url(#pdb6b289adb)">
     <use xlink:href="#C1_0_6f0fd5dc8b" x="216.907351" y="292.588871" style="fill: #808080; fill-opacity: 0.5"/>
    </g>
    <g clip-path="url(#pdb6b289adb)">
     <use xlink:href="#C1_0_6f0fd5dc8b" x="219.770525" y="353.356002" style="fill: #808080; fill-opacity: 0.5"/>
    </g>
    <g clip-path="url(#pdb6b289adb)">
     <use xlink:href="#C1_0_6f0fd5dc8b" x="227.797" y="160.263085" style="fill: #808080; fill-opacity: 0.5"/>
    </g>
    <g clip-path="url(#pdb6b289adb)">
     <use xlink:href="#C1_0_6f0fd5dc8b" x="216.332471" y="154.325389" style="fill: #808080; fill-opacity: 0.5"/>
    </g>
    <g clip-path="url(#pdb6b289adb)">
     <use xlink:href="#C1_0_6f0fd5dc8b" x="225.102425" y="291.071823" style="fill: #808080; fill-opacity: 0.5"/>
    </g>
    <g clip-path="url(#pdb6b289adb)">
     <use xlink:href="#C1_0_6f0fd5dc8b" x="209.939833" y="286.047619" style="fill: #808080; fill-opacity: 0.5"/>
    </g>
    <g clip-path="url(#pdb6b289adb)">
     <use xlink:href="#C1_0_6f0fd5dc8b" x="219.575949" y="83.86827" style="fill: #808080; fill-opacity: 0.5"/>
    </g>
    <g clip-path="url(#pdb6b289adb)">
     <use xlink:href="#C1_0_6f0fd5dc8b" x="216.9692" y="313.321869" style="fill: #808080; fill-opacity: 0.5"/>
    </g>
    <g clip-path="url(#pdb6b289adb)">
     <use xlink:href="#C1_0_6f0fd5dc8b" x="219.600036" y="286.439115" style="fill: #808080; fill-opacity: 0.5"/>
    </g>
    <g clip-path="url(#pdb6b289adb)">
     <use xlink:href="#C1_0_6f0fd5dc8b" x="217.790848" y="329.911529" style="fill: #808080; fill-opacity: 0.5"/>
    </g>
    <g clip-path="url(#pdb6b289adb)">
     <use xlink:href="#C1_0_6f0fd5dc8b" x="215.535175" y="331.519655" style="fill: #808080; fill-opacity: 0.5"/>
    </g>
    <g clip-path="url(#pdb6b289adb)">
     <use xlink:href="#C1_0_6f0fd5dc8b" x="215.671631" y="129.063676" style="fill: #808080; fill-opacity: 0.5"/>
    </g>
    <g clip-path="url(#pdb6b289adb)">
     <use xlink:href="#C1_0_6f0fd5dc8b" x="221.666002" y="260.567728" style="fill: #808080; fill-opacity: 0.5"/>
    </g>
    <g clip-path="url(#pdb6b289adb)">
     <use xlink:href="#C1_0_6f0fd5dc8b" x="224.29961" y="280.077299" style="fill: #808080; fill-opacity: 0.5"/>
    </g>
    <g clip-path="url(#pdb6b289adb)">
     <use xlink:href="#C1_0_6f0fd5dc8b" x="222.430868" y="299.056718" style="fill: #808080; fill-opacity: 0.5"/>
    </g>
    <g clip-path="url(#pdb6b289adb)">
     <use xlink:href="#C1_0_6f0fd5dc8b" x="227.719797" y="281.561723" style="fill: #808080; fill-opacity: 0.5"/>
    </g>
    <g clip-path="url(#pdb6b289adb)">
     <use xlink:href="#C1_0_6f0fd5dc8b" x="216.039879" y="265.412496" style="fill: #808080; fill-opacity: 0.5"/>
    </g>
    <g clip-path="url(#pdb6b289adb)">
     <use xlink:href="#C1_0_6f0fd5dc8b" x="230.516825" y="377.201033" style="fill: #808080; fill-opacity: 0.5"/>
    </g>
    <g clip-path="url(#pdb6b289adb)">
     <use xlink:href="#C1_0_6f0fd5dc8b" x="224.6215" y="334.241099" style="fill: #808080; fill-opacity: 0.5"/>
    </g>
    <g clip-path="url(#pdb6b289adb)">
     <use xlink:href="#C1_0_6f0fd5dc8b" x="220.161926" y="385.948531" style="fill: #808080; fill-opacity: 0.5"/>
    </g>
    <g clip-path="url(#pdb6b289adb)">
     <use xlink:href="#C1_0_6f0fd5dc8b" x="225.82644" y="344.723143" style="fill: #808080; fill-opacity: 0.5"/>
    </g>
    <g clip-path="url(#pdb6b289adb)">
     <use xlink:href="#C1_0_6f0fd5dc8b" x="225.804963" y="308.970549" style="fill: #808080; fill-opacity: 0.5"/>
    </g>
    <g clip-path="url(#pdb6b289adb)">
     <use xlink:href="#C1_0_6f0fd5dc8b" x="230.374421" y="247.110038" style="fill: #808080; fill-opacity: 0.5"/>
    </g>
    <g clip-path="url(#pdb6b289adb)">
     <use xlink:href="#C1_0_6f0fd5dc8b" x="225.010317" y="314.219048" style="fill: #808080; fill-opacity: 0.5"/>
    </g>
    <g clip-path="url(#pdb6b289adb)">
     <use xlink:href="#C1_0_6f0fd5dc8b" x="220.479326" y="381.08881" style="fill: #808080; fill-opacity: 0.5"/>
    </g>
    <g clip-path="url(#pdb6b289adb)">
     <use xlink:href="#C1_0_6f0fd5dc8b" x="223.327499" y="365.358267" style="fill: #808080; fill-opacity: 0.5"/>
    </g>
    <g clip-path="url(#pdb6b289adb)">
     <use xlink:href="#C1_0_6f0fd5dc8b" x="219.006332" y="324.805764" style="fill: #808080; fill-opacity: 0.5"/>
    </g>
    <g clip-path="url(#pdb6b289adb)">
     <use xlink:href="#C1_0_6f0fd5dc8b" x="219.570871" y="249.801576" style="fill: #808080; fill-opacity: 0.5"/>
    </g>
    <g clip-path="url(#pdb6b289adb)">
     <use xlink:href="#C1_0_6f0fd5dc8b" x="219.858611" y="322.383379" style="fill: #808080; fill-opacity: 0.5"/>
    </g>
    <g clip-path="url(#pdb6b289adb)">
     <use xlink:href="#C1_0_6f0fd5dc8b" x="219.337431" y="375.062756" style="fill: #808080; fill-opacity: 0.5"/>
    </g>
    <g clip-path="url(#pdb6b289adb)">
     <use xlink:href="#C1_0_6f0fd5dc8b" x="221.943418" y="334.315864" style="fill: #808080; fill-opacity: 0.5"/>
    </g>
    <g clip-path="url(#pdb6b289adb)">
     <use xlink:href="#C1_0_6f0fd5dc8b" x="225.35825" y="312.783561" style="fill: #808080; fill-opacity: 0.5"/>
    </g>
    <g clip-path="url(#pdb6b289adb)">
     <use xlink:href="#C1_0_6f0fd5dc8b" x="227.392134" y="375.451534" style="fill: #808080; fill-opacity: 0.5"/>
    </g>
    <g clip-path="url(#pdb6b289adb)">
     <use xlink:href="#C1_0_6f0fd5dc8b" x="219.779003" y="340.237247" style="fill: #808080; fill-opacity: 0.5"/>
    </g>
    <g clip-path="url(#pdb6b289adb)">
     <use xlink:href="#C1_0_6f0fd5dc8b" x="214.821797" y="364.371369" style="fill: #808080; fill-opacity: 0.5"/>
    </g>
    <g clip-path="url(#pdb6b289adb)">
     <use xlink:href="#C1_0_6f0fd5dc8b" x="224.34887" y="320.499303" style="fill: #808080; fill-opacity: 0.5"/>
    </g>
   </g>
   <g id="FillBetweenPolyCollection_1">
    <path d="M 115.539797 387.804061 
L 100.073953 387.804061 
L 99.430123 385.27341 
L 98.779131 382.74276 
L 98.125506 380.212109 
L 97.473848 377.681459 
L 96.828781 375.150808 
L 96.194922 372.620158 
L 95.576855 370.089507 
L 94.979117 367.558857 
L 94.406181 365.028206 
L 93.862441 362.497556 
L 93.352195 359.966905 
L 92.879612 357.436255 
L 92.448691 354.905604 
L 92.063206 352.374954 
L 91.726636 349.844303 
L 91.442079 347.313653 
L 91.212167 344.783002 
L 91.038964 342.252352 
L 90.923876 339.721701 
L 90.867562 337.191051 
L 90.869873 334.6604 
L 90.929797 332.12975 
L 91.045451 329.599099 
L 91.2141 327.068449 
L 91.432204 324.537798 
L 91.69552 322.007148 
L 91.99922 319.476497 
L 92.338052 316.945847 
L 92.706516 314.415196 
L 93.099056 311.884546 
L 93.510257 309.353895 
L 93.935029 306.823245 
L 94.368774 304.292594 
L 94.807528 301.761944 
L 95.248057 299.231293 
L 95.68792 296.700643 
L 96.125468 294.169992 
L 96.559816 291.639342 
L 96.990755 289.108691 
L 97.418632 286.578041 
L 97.844198 284.047391 
L 98.26844 281.51674 
L 98.692404 278.98609 
L 99.117021 276.455439 
L 99.542953 273.924789 
L 99.970464 271.394138 
L 100.399327 268.863488 
L 100.828774 266.332837 
L 101.257482 263.802187 
L 101.683611 261.271536 
L 102.10487 258.740886 
L 102.518629 256.210235 
L 102.922039 253.679585 
L 103.312182 251.148934 
L 103.686216 248.618284 
L 104.041515 246.087633 
L 104.3758 243.556983 
L 104.68724 241.026332 
L 104.974528 238.495682 
L 105.236927 235.965031 
L 105.474277 233.434381 
L 105.686976 230.90373 
L 105.875926 228.37308 
L 106.042459 225.842429 
L 106.188241 223.311779 
L 106.315168 220.781128 
L 106.425253 218.250478 
L 106.52052 215.719827 
L 106.602901 213.189177 
L 106.674155 210.658526 
L 106.735796 208.127876 
L 106.78905 205.597225 
L 106.83483 203.066575 
L 106.873731 200.535924 
L 106.906056 198.005274 
L 106.931848 195.474623 
L 106.950948 192.943973 
L 106.963058 190.413322 
L 106.967815 187.882672 
L 106.964867 185.352021 
L 106.953943 182.821371 
L 106.934925 180.29072 
L 106.907903 177.76007 
L 106.873219 175.229419 
L 106.831499 172.698769 
L 106.783659 170.168118 
L 106.730903 167.637468 
L 106.674698 165.106817 
L 106.616732 162.576167 
L 106.558855 160.045516 
L 106.50302 157.514866 
L 106.451198 154.984215 
L 106.405307 152.453565 
L 106.367125 149.922914 
L 106.338222 147.392264 
L 106.31989 144.861613 
L 106.313094 142.330963 
L 106.318431 139.800312 
L 106.336111 137.269662 
L 109.277639 137.269662 
L 109.277639 137.269662 
L 109.295319 139.800312 
L 109.300656 142.330963 
L 109.29386 144.861613 
L 109.275528 147.392264 
L 109.246625 149.922914 
L 109.208443 152.453565 
L 109.162552 154.984215 
L 109.11073 157.514866 
L 109.054895 160.045516 
L 108.997018 162.576167 
L 108.939052 165.106817 
L 108.882847 167.637468 
L 108.830091 170.168118 
L 108.782251 172.698769 
L 108.740531 175.229419 
L 108.705847 177.76007 
L 108.678825 180.29072 
L 108.659807 182.821371 
L 108.648883 185.352021 
L 108.645935 187.882672 
L 108.650692 190.413322 
L 108.662802 192.943973 
L 108.681902 195.474623 
L 108.707694 198.005274 
L 108.740019 200.535924 
L 108.77892 203.066575 
L 108.8247 205.597225 
L 108.877954 208.127876 
L 108.939595 210.658526 
L 109.010849 213.189177 
L 109.09323 215.719827 
L 109.188497 218.250478 
L 109.298582 220.781128 
L 109.425509 223.311779 
L 109.571291 225.842429 
L 109.737824 228.37308 
L 109.926774 230.90373 
L 110.139473 233.434381 
L 110.376823 235.965031 
L 110.639222 238.495682 
L 110.92651 241.026332 
L 111.23795 243.556983 
L 111.572235 246.087633 
L 111.927534 248.618284 
L 112.301568 251.148934 
L 112.691711 253.679585 
L 113.095121 256.210235 
L 113.50888 258.740886 
L 113.930139 261.271536 
L 114.356268 263.802187 
L 114.784976 266.332837 
L 115.214423 268.863488 
L 115.643286 271.394138 
L 116.070797 273.924789 
L 116.496729 276.455439 
L 116.921346 278.98609 
L 117.34531 281.51674 
L 117.769552 284.047391 
L 118.195118 286.578041 
L 118.622995 289.108691 
L 119.053934 291.639342 
L 119.488282 294.169992 
L 119.92583 296.700643 
L 120.365693 299.231293 
L 120.806222 301.761944 
L 121.244976 304.292594 
L 121.678721 306.823245 
L 122.103493 309.353895 
L 122.514694 311.884546 
L 122.907234 314.415196 
L 123.275698 316.945847 
L 123.61453 319.476497 
L 123.91823 322.007148 
L 124.181546 324.537798 
L 124.39965 327.068449 
L 124.568299 329.599099 
L 124.683953 332.12975 
L 124.743877 334.6604 
L 124.746187 337.191051 
L 124.689874 339.721701 
L 124.574786 342.252352 
L 124.401583 344.783002 
L 124.171671 347.313653 
L 123.887114 349.844303 
L 123.550544 352.374954 
L 123.165059 354.905604 
L 122.734138 357.436255 
L 122.261555 359.966905 
L 121.751309 362.497556 
L 121.207569 365.028206 
L 120.634633 367.558857 
L 120.036895 370.089507 
L 119.418828 372.620158 
L 118.784969 375.150808 
L 118.139902 377.681459 
L 117.488244 380.212109 
L 116.834619 382.74276 
L 116.183627 385.27341 
L 115.539797 387.804061 
z
" clip-path="url(#pdb6b289adb)" style="fill: #f08080; fill-opacity: 0.3"/>
   </g>
   <g id="FillBetweenPolyCollection_2">
    <path d="M 234.358862 388.864364 
L 207.112388 388.864364 
L 206.072901 385.782417 
L 205.073253 382.70047 
L 204.125416 379.618523 
L 203.239396 376.536577 
L 202.422928 373.45463 
L 201.681324 370.372683 
L 201.017475 367.290736 
L 200.432016 364.20879 
L 199.923609 361.126843 
L 199.489333 358.044896 
L 199.125132 354.962949 
L 198.826281 351.881003 
L 198.587824 348.799056 
L 198.404961 345.717109 
L 198.273349 342.635163 
L 198.189299 339.553216 
L 198.149875 336.471269 
L 198.152892 333.389322 
L 198.196831 330.307376 
L 198.280696 327.225429 
L 198.403836 324.143482 
L 198.565742 321.061535 
L 198.765874 317.979589 
L 199.003495 314.897642 
L 199.277553 311.815695 
L 199.586609 308.733748 
L 199.928802 305.651802 
L 200.301868 302.569855 
L 200.703182 299.487908 
L 201.129844 296.405961 
L 201.578771 293.324015 
L 202.04681 290.242068 
L 202.530851 287.160121 
L 203.027938 284.078174 
L 203.535368 280.996228 
L 204.050779 277.914281 
L 204.572203 274.832334 
L 205.09811 271.750388 
L 205.627409 268.668441 
L 206.159419 265.586494 
L 206.693816 262.504547 
L 207.230543 259.422601 
L 207.769704 256.340654 
L 208.311435 253.258707 
L 208.855777 250.17676 
L 209.402545 247.094814 
L 209.951216 244.012867 
L 210.50084 240.93092 
L 211.049979 237.848973 
L 211.596684 234.767027 
L 212.138508 231.68508 
L 212.672556 228.603133 
L 213.195568 225.521186 
L 213.704031 222.43924 
L 214.194308 219.357293 
L 214.662782 216.275346 
L 215.106 213.193399 
L 215.520818 210.111453 
L 215.904528 207.029506 
L 216.254973 203.947559 
L 216.570636 200.865612 
L 216.850702 197.783666 
L 217.095093 194.701719 
L 217.304475 191.619772 
L 217.480227 188.537826 
L 217.624391 185.455879 
L 217.739591 182.373932 
L 217.82893 179.291985 
L 217.895877 176.210039 
L 217.944132 173.128092 
L 217.977498 170.046145 
L 217.999744 166.964198 
L 218.014486 163.882252 
L 218.025069 160.800305 
L 218.034475 157.718358 
L 218.045247 154.636411 
L 218.059436 151.554465 
L 218.078574 148.472518 
L 218.103664 145.390571 
L 218.135203 142.308624 
L 218.173216 139.226678 
L 218.217317 136.144731 
L 218.266783 133.062784 
L 218.320643 129.980837 
L 218.377773 126.898891 
L 218.436997 123.816944 
L 218.497184 120.734997 
L 218.557345 117.653051 
L 218.616704 114.571104 
L 218.674762 111.489157 
L 218.73133 108.40721 
L 218.78654 105.325264 
L 218.840823 102.243317 
L 218.894872 99.16137 
L 218.949565 96.079423 
L 219.005889 92.997477 
L 219.064838 89.91553 
L 219.127322 86.833583 
L 219.194079 83.751636 
L 222.277171 83.751636 
L 222.277171 83.751636 
L 222.343928 86.833583 
L 222.406412 89.91553 
L 222.465361 92.997477 
L 222.521685 96.079423 
L 222.576378 99.16137 
L 222.630427 102.243317 
L 222.68471 105.325264 
L 222.73992 108.40721 
L 222.796488 111.489157 
L 222.854546 114.571104 
L 222.913905 117.653051 
L 222.974066 120.734997 
L 223.034253 123.816944 
L 223.093477 126.898891 
L 223.150607 129.980837 
L 223.204467 133.062784 
L 223.253933 136.144731 
L 223.298034 139.226678 
L 223.336047 142.308624 
L 223.367586 145.390571 
L 223.392676 148.472518 
L 223.411814 151.554465 
L 223.426003 154.636411 
L 223.436775 157.718358 
L 223.446181 160.800305 
L 223.456764 163.882252 
L 223.471506 166.964198 
L 223.493752 170.046145 
L 223.527118 173.128092 
L 223.575373 176.210039 
L 223.64232 179.291985 
L 223.731659 182.373932 
L 223.846859 185.455879 
L 223.991023 188.537826 
L 224.166775 191.619772 
L 224.376157 194.701719 
L 224.620548 197.783666 
L 224.900614 200.865612 
L 225.216277 203.947559 
L 225.566722 207.029506 
L 225.950432 210.111453 
L 226.36525 213.193399 
L 226.808468 216.275346 
L 227.276942 219.357293 
L 227.767219 222.43924 
L 228.275682 225.521186 
L 228.798694 228.603133 
L 229.332742 231.68508 
L 229.874566 234.767027 
L 230.421271 237.848973 
L 230.97041 240.93092 
L 231.520034 244.012867 
L 232.068705 247.094814 
L 232.615473 250.17676 
L 233.159815 253.258707 
L 233.701546 256.340654 
L 234.240707 259.422601 
L 234.777434 262.504547 
L 235.311831 265.586494 
L 235.843841 268.668441 
L 236.37314 271.750388 
L 236.899047 274.832334 
L 237.420471 277.914281 
L 237.935882 280.996228 
L 238.443312 284.078174 
L 238.940399 287.160121 
L 239.42444 290.242068 
L 239.892479 293.324015 
L 240.341406 296.405961 
L 240.768068 299.487908 
L 241.169382 302.569855 
L 241.542448 305.651802 
L 241.884641 308.733748 
L 242.193697 311.815695 
L 242.467755 314.897642 
L 242.705376 317.979589 
L 242.905508 321.061535 
L 243.067414 324.143482 
L 243.190554 327.225429 
L 243.274419 330.307376 
L 243.318358 333.389322 
L 243.321375 336.471269 
L 243.281951 339.553216 
L 243.197901 342.635163 
L 243.066289 345.717109 
L 242.883426 348.799056 
L 242.644969 351.881003 
L 242.346118 354.962949 
L 241.981917 358.044896 
L 241.547641 361.126843 
L 241.039234 364.20879 
L 240.453775 367.290736 
L 239.789926 370.372683 
L 239.048322 373.45463 
L 238.231854 376.536577 
L 237.345834 379.618523 
L 236.397997 382.70047 
L 235.398349 385.782417 
L 234.358862 388.864364 
z
" clip-path="url(#pdb6b289adb)" style="fill: #808080; fill-opacity: 0.3"/>
   </g>
   <g id="matplotlib.axis_1">
    <g id="xtick_1">
     <g id="line2d_1">
      <defs>
       <path id="mc31f6a2e2a" d="M 0 0 
L 0 3.5 
" style="stroke: #000000; stroke-width: 0.8"/>
      </defs>
      <g>
       <use xlink:href="#mc31f6a2e2a" x="107.806875" y="404.12" style="stroke: #000000; stroke-width: 0.8"/>
      </g>
     </g>
     <g id="text_1">
      <!-- Mutants -->
      <g transform="translate(86.681094 418.718437) scale(0.1 -0.1)">
       <defs>
        <path id="DejaVuSerif-4d" d="M 353 0 
L 353 331 
L 947 331 
L 947 4331 
L 319 4331 
L 319 4666 
L 1678 4666 
L 3316 1344 
L 4953 4666 
L 6228 4666 
L 6228 4331 
L 5606 4331 
L 5606 331 
L 6203 331 
L 6203 0 
L 4378 0 
L 4378 331 
L 4972 331 
L 4972 3938 
L 3372 684 
L 2931 684 
L 1331 3938 
L 1331 331 
L 1925 331 
L 1925 0 
L 353 0 
z
" transform="scale(0.015625)"/>
        <path id="DejaVuSerif-75" d="M 2266 3322 
L 3341 3322 
L 3341 331 
L 3884 331 
L 3884 0 
L 2766 0 
L 2766 588 
Q 2606 256 2353 82 
Q 2100 -91 1766 -91 
Q 1213 -91 952 223 
Q 691 538 691 1209 
L 691 2988 
L 172 2988 
L 172 3322 
L 1269 3322 
L 1269 1388 
Q 1269 781 1417 556 
Q 1566 331 1947 331 
Q 2347 331 2556 625 
Q 2766 919 2766 1478 
L 2766 2988 
L 2266 2988 
L 2266 3322 
z
" transform="scale(0.015625)"/>
        <path id="DejaVuSerif-74" d="M 691 2988 
L 184 2988 
L 184 3322 
L 691 3322 
L 691 4353 
L 1269 4353 
L 1269 3322 
L 2350 3322 
L 2350 2988 
L 1269 2988 
L 1269 878 
Q 1269 456 1350 337 
Q 1431 219 1650 219 
Q 1875 219 1978 351 
Q 2081 484 2088 781 
L 2522 781 
Q 2497 328 2275 118 
Q 2053 -91 1600 -91 
Q 1103 -91 897 129 
Q 691 350 691 878 
L 691 2988 
z
" transform="scale(0.015625)"/>
        <path id="DejaVuSerif-61" d="M 2547 1044 
L 2547 1747 
L 1806 1747 
Q 1378 1747 1168 1562 
Q 959 1378 959 997 
Q 959 650 1171 447 
Q 1384 244 1747 244 
Q 2106 244 2326 466 
Q 2547 688 2547 1044 
z
M 3122 2075 
L 3122 331 
L 3634 331 
L 3634 0 
L 2547 0 
L 2547 359 
Q 2356 128 2106 18 
Q 1856 -91 1522 -91 
Q 969 -91 644 203 
Q 319 497 319 997 
Q 319 1513 691 1797 
Q 1063 2081 1741 2081 
L 2547 2081 
L 2547 2309 
Q 2547 2688 2317 2895 
Q 2088 3103 1672 3103 
Q 1328 3103 1125 2947 
Q 922 2791 872 2484 
L 575 2484 
L 575 3156 
Q 875 3284 1158 3348 
Q 1441 3413 1709 3413 
Q 2400 3413 2761 3070 
Q 3122 2728 3122 2075 
z
" transform="scale(0.015625)"/>
        <path id="DejaVuSerif-6e" d="M 263 0 
L 263 331 
L 781 331 
L 781 2988 
L 231 2988 
L 231 3322 
L 1356 3322 
L 1356 2731 
Q 1516 3069 1770 3241 
Q 2025 3413 2363 3413 
Q 2913 3413 3172 3097 
Q 3431 2781 3431 2113 
L 3431 331 
L 3944 331 
L 3944 0 
L 2356 0 
L 2356 331 
L 2853 331 
L 2853 1931 
Q 2853 2541 2703 2767 
Q 2553 2994 2175 2994 
Q 1775 2994 1565 2701 
Q 1356 2409 1356 1850 
L 1356 331 
L 1856 331 
L 1856 0 
L 263 0 
z
" transform="scale(0.015625)"/>
        <path id="DejaVuSerif-73" d="M 359 184 
L 359 959 
L 691 959 
Q 703 588 923 403 
Q 1144 219 1575 219 
Q 1963 219 2166 364 
Q 2369 509 2369 788 
Q 2369 1006 2220 1140 
Q 2072 1275 1594 1428 
L 1178 1569 
Q 750 1706 558 1912 
Q 366 2119 366 2438 
Q 366 2894 700 3153 
Q 1034 3413 1625 3413 
Q 1888 3413 2178 3344 
Q 2469 3275 2778 3144 
L 2778 2419 
L 2447 2419 
Q 2434 2741 2221 2922 
Q 2009 3103 1644 3103 
Q 1281 3103 1095 2975 
Q 909 2847 909 2591 
Q 909 2381 1050 2254 
Q 1191 2128 1613 1997 
L 2069 1856 
Q 2541 1709 2748 1489 
Q 2956 1269 2956 922 
Q 2956 450 2595 179 
Q 2234 -91 1600 -91 
Q 1278 -91 972 -22 
Q 666 47 359 184 
z
" transform="scale(0.015625)"/>
       </defs>
       <use xlink:href="#DejaVuSerif-4d"/>
       <use xlink:href="#DejaVuSerif-75" transform="translate(102.392578 0)"/>
       <use xlink:href="#DejaVuSerif-74" transform="translate(166.796875 0)"/>
       <use xlink:href="#DejaVuSerif-61" transform="translate(206.982422 0)"/>
       <use xlink:href="#DejaVuSerif-6e" transform="translate(266.601562 0)"/>
       <use xlink:href="#DejaVuSerif-74" transform="translate(331.005859 0)"/>
       <use xlink:href="#DejaVuSerif-73" transform="translate(371.191406 0)"/>
      </g>
     </g>
    </g>
    <g id="xtick_2">
     <g id="line2d_2">
      <g>
       <use xlink:href="#mc31f6a2e2a" x="220.735625" y="404.12" style="stroke: #000000; stroke-width: 0.8"/>
      </g>
     </g>
     <g id="text_2">
      <!-- Non-members WT -->
      <g transform="translate(174.819219 418.718437) scale(0.1 -0.1)">
       <defs>
        <path id="DejaVuSerif-4e" d="M 313 0 
L 313 331 
L 941 331 
L 941 4331 
L 313 4331 
L 313 4666 
L 1509 4666 
L 4306 984 
L 4306 4331 
L 3681 4331 
L 3681 4666 
L 5319 4666 
L 5319 4331 
L 4691 4331 
L 4691 -91 
L 4313 -91 
L 1325 3841 
L 1325 331 
L 1953 331 
L 1953 0 
L 313 0 
z
" transform="scale(0.015625)"/>
        <path id="DejaVuSerif-6f" d="M 1925 219 
Q 2388 219 2623 584 
Q 2859 950 2859 1663 
Q 2859 2375 2623 2739 
Q 2388 3103 1925 3103 
Q 1463 3103 1227 2739 
Q 991 2375 991 1663 
Q 991 950 1228 584 
Q 1466 219 1925 219 
z
M 1925 -91 
Q 1200 -91 759 389 
Q 319 869 319 1663 
Q 319 2456 758 2934 
Q 1197 3413 1925 3413 
Q 2653 3413 3092 2934 
Q 3531 2456 3531 1663 
Q 3531 869 3092 389 
Q 2653 -91 1925 -91 
z
" transform="scale(0.015625)"/>
        <path id="DejaVuSerif-2d" d="M 281 1959 
L 1881 1959 
L 1881 1472 
L 281 1472 
L 281 1959 
z
" transform="scale(0.015625)"/>
        <path id="DejaVuSerif-6d" d="M 3316 2675 
Q 3481 3041 3739 3227 
Q 3997 3413 4341 3413 
Q 4863 3413 5119 3089 
Q 5375 2766 5375 2113 
L 5375 331 
L 5894 331 
L 5894 0 
L 4300 0 
L 4300 331 
L 4800 331 
L 4800 2047 
Q 4800 2556 4650 2772 
Q 4500 2988 4153 2988 
Q 3769 2988 3567 2697 
Q 3366 2406 3366 1850 
L 3366 331 
L 3866 331 
L 3866 0 
L 2291 0 
L 2291 331 
L 2791 331 
L 2791 2069 
Q 2791 2566 2641 2777 
Q 2491 2988 2144 2988 
Q 1759 2988 1557 2697 
Q 1356 2406 1356 1850 
L 1356 331 
L 1856 331 
L 1856 0 
L 263 0 
L 263 331 
L 781 331 
L 781 2994 
L 231 2994 
L 231 3322 
L 1356 3322 
L 1356 2731 
Q 1516 3063 1762 3238 
Q 2009 3413 2322 3413 
Q 2709 3413 2968 3220 
Q 3228 3028 3316 2675 
z
" transform="scale(0.015625)"/>
        <path id="DejaVuSerif-65" d="M 3469 1600 
L 991 1600 
L 991 1575 
Q 991 903 1244 561 
Q 1497 219 1991 219 
Q 2369 219 2611 417 
Q 2853 616 2950 1006 
L 3413 1006 
Q 3275 459 2904 184 
Q 2534 -91 1931 -91 
Q 1203 -91 761 389 
Q 319 869 319 1663 
Q 319 2450 753 2931 
Q 1188 3413 1894 3413 
Q 2647 3413 3050 2948 
Q 3453 2484 3469 1600 
z
M 2791 1931 
Q 2772 2513 2545 2808 
Q 2319 3103 1894 3103 
Q 1497 3103 1269 2806 
Q 1041 2509 991 1931 
L 2791 1931 
z
" transform="scale(0.015625)"/>
        <path id="DejaVuSerif-62" d="M 738 331 
L 738 4531 
L 184 4531 
L 184 4863 
L 1313 4863 
L 1313 2803 
Q 1481 3116 1742 3264 
Q 2003 3413 2388 3413 
Q 3000 3413 3387 2928 
Q 3775 2444 3775 1663 
Q 3775 881 3387 395 
Q 3000 -91 2388 -91 
Q 2003 -91 1742 57 
Q 1481 206 1313 519 
L 1313 0 
L 184 0 
L 184 331 
L 738 331 
z
M 1313 1497 
Q 1313 897 1542 583 
Q 1772 269 2209 269 
Q 2650 269 2876 622 
Q 3103 975 3103 1663 
Q 3103 2353 2876 2703 
Q 2650 3053 2209 3053 
Q 1772 3053 1542 2737 
Q 1313 2422 1313 1825 
L 1313 1497 
z
" transform="scale(0.015625)"/>
        <path id="DejaVuSerif-72" d="M 3059 3328 
L 3059 2497 
L 2728 2497 
Q 2713 2744 2591 2866 
Q 2469 2988 2234 2988 
Q 1809 2988 1582 2694 
Q 1356 2400 1356 1850 
L 1356 331 
L 2022 331 
L 2022 0 
L 263 0 
L 263 331 
L 781 331 
L 781 2994 
L 231 2994 
L 231 3322 
L 1356 3322 
L 1356 2731 
Q 1525 3078 1790 3245 
Q 2056 3413 2438 3413 
Q 2578 3413 2733 3391 
Q 2888 3369 3059 3328 
z
" transform="scale(0.015625)"/>
        <path id="DejaVuSerif-20" transform="scale(0.015625)"/>
        <path id="DejaVuSerif-57" d="M 4878 0 
L 4366 0 
L 3297 3794 
L 2228 0 
L 1716 0 
L 494 4331 
L 31 4331 
L 31 4666 
L 1734 4666 
L 1734 4331 
L 1153 4331 
L 2125 884 
L 3188 4666 
L 3694 4666 
L 4775 844 
L 5753 4331 
L 5216 4331 
L 5216 4666 
L 6559 4666 
L 6559 4331 
L 6100 4331 
L 4878 0 
z
" transform="scale(0.015625)"/>
        <path id="DejaVuSerif-54" d="M 1222 0 
L 1222 331 
L 1819 331 
L 1819 4294 
L 447 4294 
L 447 3566 
L 63 3566 
L 63 4666 
L 4206 4666 
L 4206 3566 
L 3822 3566 
L 3822 4294 
L 2450 4294 
L 2450 331 
L 3047 331 
L 3047 0 
L 1222 0 
z
" transform="scale(0.015625)"/>
       </defs>
       <use xlink:href="#DejaVuSerif-4e"/>
       <use xlink:href="#DejaVuSerif-6f" transform="translate(87.5 0)"/>
       <use xlink:href="#DejaVuSerif-6e" transform="translate(147.705078 0)"/>
       <use xlink:href="#DejaVuSerif-2d" transform="translate(212.109375 0)"/>
       <use xlink:href="#DejaVuSerif-6d" transform="translate(245.898438 0)"/>
       <use xlink:href="#DejaVuSerif-65" transform="translate(340.722656 0)"/>
       <use xlink:href="#DejaVuSerif-6d" transform="translate(399.902344 0)"/>
       <use xlink:href="#DejaVuSerif-62" transform="translate(494.726562 0)"/>
       <use xlink:href="#DejaVuSerif-65" transform="translate(558.740234 0)"/>
       <use xlink:href="#DejaVuSerif-72" transform="translate(617.919922 0)"/>
       <use xlink:href="#DejaVuSerif-73" transform="translate(665.722656 0)"/>
       <use xlink:href="#DejaVuSerif-20" transform="translate(717.041016 0)"/>
       <use xlink:href="#DejaVuSerif-57" transform="translate(748.828125 0)"/>
       <use xlink:href="#DejaVuSerif-54" transform="translate(851.611328 0)"/>
      </g>
     </g>
    </g>
   </g>
   <g id="matplotlib.axis_2">
    <g id="ytick_1">
     <g id="line2d_3">
      <defs>
       <path id="m6e3ee61c53" d="M 0 0 
L -3.5 0 
" style="stroke: #000000; stroke-width: 0.8"/>
      </defs>
      <g>
       <use xlink:href="#m6e3ee61c53" x="51.3425" y="393.529696" style="stroke: #000000; stroke-width: 0.8"/>
      </g>
     </g>
     <g id="text_3">
      <!-- 0 -->
      <g transform="translate(37.98 397.328915) scale(0.1 -0.1)">
       <defs>
        <path id="DejaVuSerif-30" d="M 2034 219 
Q 2513 219 2750 744 
Q 2988 1269 2988 2328 
Q 2988 3391 2750 3916 
Q 2513 4441 2034 4441 
Q 1556 4441 1318 3916 
Q 1081 3391 1081 2328 
Q 1081 1269 1318 744 
Q 1556 219 2034 219 
z
M 2034 -91 
Q 1275 -91 848 546 
Q 422 1184 422 2328 
Q 422 3475 848 4112 
Q 1275 4750 2034 4750 
Q 2797 4750 3222 4112 
Q 3647 3475 3647 2328 
Q 3647 1184 3222 546 
Q 2797 -91 2034 -91 
z
" transform="scale(0.015625)"/>
       </defs>
       <use xlink:href="#DejaVuSerif-30"/>
      </g>
     </g>
    </g>
    <g id="ytick_2">
     <g id="line2d_4">
      <g>
       <use xlink:href="#m6e3ee61c53" x="51.3425" y="346.876374" style="stroke: #000000; stroke-width: 0.8"/>
      </g>
     </g>
     <g id="text_4">
      <!-- 20 -->
      <g transform="translate(31.6175 350.675592) scale(0.1 -0.1)">
       <defs>
        <path id="DejaVuSerif-32" d="M 819 3553 
L 469 3553 
L 469 4384 
Q 803 4563 1142 4656 
Q 1481 4750 1806 4750 
Q 2534 4750 2956 4397 
Q 3378 4044 3378 3438 
Q 3378 2753 2422 1800 
Q 2347 1728 2309 1691 
L 1131 513 
L 3078 513 
L 3078 1088 
L 3444 1088 
L 3444 0 
L 434 0 
L 434 341 
L 1850 1753 
Q 2319 2222 2519 2614 
Q 2719 3006 2719 3438 
Q 2719 3909 2473 4175 
Q 2228 4441 1797 4441 
Q 1350 4441 1106 4219 
Q 863 3997 819 3553 
z
" transform="scale(0.015625)"/>
       </defs>
       <use xlink:href="#DejaVuSerif-32"/>
       <use xlink:href="#DejaVuSerif-30" transform="translate(63.623047 0)"/>
      </g>
     </g>
    </g>
    <g id="ytick_3">
     <g id="line2d_5">
      <g>
       <use xlink:href="#m6e3ee61c53" x="51.3425" y="300.223051" style="stroke: #000000; stroke-width: 0.8"/>
      </g>
     </g>
     <g id="text_5">
      <!-- 40 -->
      <g transform="translate(31.6175 304.02227) scale(0.1 -0.1)">
       <defs>
        <path id="DejaVuSerif-34" d="M 2234 1581 
L 2234 4063 
L 641 1581 
L 2234 1581 
z
M 3609 0 
L 1484 0 
L 1484 331 
L 2234 331 
L 2234 1247 
L 197 1247 
L 197 1588 
L 2241 4750 
L 2859 4750 
L 2859 1581 
L 3750 1581 
L 3750 1247 
L 2859 1247 
L 2859 331 
L 3609 331 
L 3609 0 
z
" transform="scale(0.015625)"/>
       </defs>
       <use xlink:href="#DejaVuSerif-34"/>
       <use xlink:href="#DejaVuSerif-30" transform="translate(63.623047 0)"/>
      </g>
     </g>
    </g>
    <g id="ytick_4">
     <g id="line2d_6">
      <g>
       <use xlink:href="#m6e3ee61c53" x="51.3425" y="253.569729" style="stroke: #000000; stroke-width: 0.8"/>
      </g>
     </g>
     <g id="text_6">
      <!-- 60 -->
      <g transform="translate(31.6175 257.368948) scale(0.1 -0.1)">
       <defs>
        <path id="DejaVuSerif-36" d="M 2094 219 
Q 2534 219 2771 542 
Q 3009 866 3009 1472 
Q 3009 2078 2771 2401 
Q 2534 2725 2094 2725 
Q 1647 2725 1412 2412 
Q 1178 2100 1178 1509 
Q 1178 888 1415 553 
Q 1653 219 2094 219 
z
M 1075 2569 
Q 1288 2803 1556 2918 
Q 1825 3034 2163 3034 
Q 2859 3034 3264 2615 
Q 3669 2197 3669 1472 
Q 3669 763 3233 336 
Q 2797 -91 2069 -91 
Q 1278 -91 853 498 
Q 428 1088 428 2181 
Q 428 3406 931 4078 
Q 1434 4750 2350 4750 
Q 2597 4750 2869 4703 
Q 3141 4656 3425 4563 
L 3425 3794 
L 3072 3794 
Q 3034 4109 2831 4275 
Q 2628 4441 2284 4441 
Q 1678 4441 1381 3981 
Q 1084 3522 1075 2569 
z
" transform="scale(0.015625)"/>
       </defs>
       <use xlink:href="#DejaVuSerif-36"/>
       <use xlink:href="#DejaVuSerif-30" transform="translate(63.623047 0)"/>
      </g>
     </g>
    </g>
    <g id="ytick_5">
     <g id="line2d_7">
      <g>
       <use xlink:href="#m6e3ee61c53" x="51.3425" y="206.916407" style="stroke: #000000; stroke-width: 0.8"/>
      </g>
     </g>
     <g id="text_7">
      <!-- 80 -->
      <g transform="translate(31.6175 210.715626) scale(0.1 -0.1)">
       <defs>
        <path id="DejaVuSerif-38" d="M 2981 1275 
Q 2981 1775 2732 2051 
Q 2484 2328 2034 2328 
Q 1584 2328 1336 2051 
Q 1088 1775 1088 1275 
Q 1088 772 1336 495 
Q 1584 219 2034 219 
Q 2484 219 2732 495 
Q 2981 772 2981 1275 
z
M 2853 3541 
Q 2853 3966 2637 4203 
Q 2422 4441 2034 4441 
Q 1650 4441 1433 4203 
Q 1216 3966 1216 3541 
Q 1216 3113 1433 2875 
Q 1650 2638 2034 2638 
Q 2422 2638 2637 2875 
Q 2853 3113 2853 3541 
z
M 2516 2484 
Q 3047 2413 3344 2092 
Q 3641 1772 3641 1275 
Q 3641 619 3225 264 
Q 2809 -91 2034 -91 
Q 1263 -91 845 264 
Q 428 619 428 1275 
Q 428 1772 725 2092 
Q 1022 2413 1556 2484 
Q 1084 2569 832 2842 
Q 581 3116 581 3541 
Q 581 4103 968 4426 
Q 1356 4750 2034 4750 
Q 2713 4750 3100 4426 
Q 3488 4103 3488 3541 
Q 3488 3116 3236 2842 
Q 2984 2569 2516 2484 
z
" transform="scale(0.015625)"/>
       </defs>
       <use xlink:href="#DejaVuSerif-38"/>
       <use xlink:href="#DejaVuSerif-30" transform="translate(63.623047 0)"/>
      </g>
     </g>
    </g>
    <g id="ytick_6">
     <g id="line2d_8">
      <g>
       <use xlink:href="#m6e3ee61c53" x="51.3425" y="160.263085" style="stroke: #000000; stroke-width: 0.8"/>
      </g>
     </g>
     <g id="text_8">
      <!-- 100 -->
      <g transform="translate(25.255 164.062304) scale(0.1 -0.1)">
       <defs>
        <path id="DejaVuSerif-31" d="M 909 0 
L 909 331 
L 1722 331 
L 1722 4213 
L 781 3603 
L 781 4013 
L 1919 4750 
L 2350 4750 
L 2350 331 
L 3163 331 
L 3163 0 
L 909 0 
z
" transform="scale(0.015625)"/>
       </defs>
       <use xlink:href="#DejaVuSerif-31"/>
       <use xlink:href="#DejaVuSerif-30" transform="translate(63.623047 0)"/>
       <use xlink:href="#DejaVuSerif-30" transform="translate(127.246094 0)"/>
      </g>
     </g>
    </g>
    <g id="ytick_7">
     <g id="line2d_9">
      <g>
       <use xlink:href="#m6e3ee61c53" x="51.3425" y="113.609763" style="stroke: #000000; stroke-width: 0.8"/>
      </g>
     </g>
     <g id="text_9">
      <!-- 120 -->
      <g transform="translate(25.255 117.408981) scale(0.1 -0.1)">
       <use xlink:href="#DejaVuSerif-31"/>
       <use xlink:href="#DejaVuSerif-32" transform="translate(63.623047 0)"/>
       <use xlink:href="#DejaVuSerif-30" transform="translate(127.246094 0)"/>
      </g>
     </g>
    </g>
    <g id="text_10">
     <!-- μ [V(t)] -->
     <g transform="translate(19.175312 254.569719) rotate(-90) scale(0.1 -0.1)">
      <defs>
       <path id="DejaVuSerif-3bc" d="M 2309 3322 
L 3384 3322 
L 3384 325 
L 3928 325 
L 3928 0 
L 2809 0 
L 2809 588 
Q 2647 256 2417 82 
Q 2188 -91 1906 -91 
Q 1728 -91 1581 -34 
Q 1434 22 1313 134 
L 1313 -1331 
L 738 -1331 
L 738 2988 
L 219 2988 
L 219 3322 
L 1313 3322 
L 1313 1388 
Q 1313 781 1463 556 
Q 1613 331 1991 331 
Q 2391 331 2600 625 
Q 2809 919 2809 1478 
L 2809 2988 
L 2309 2988 
L 2309 3322 
z
" transform="scale(0.015625)"/>
       <path id="DejaVuSerif-5b" d="M 550 4863 
L 2003 4863 
L 2003 4531 
L 1147 4531 
L 1147 -513 
L 2003 -513 
L 2003 -844 
L 550 -844 
L 550 4863 
z
" transform="scale(0.015625)"/>
       <path id="DejaVuSerif-56" d="M 1119 4331 
L 2497 750 
L 3872 4331 
L 3347 4331 
L 3347 4666 
L 4716 4666 
L 4716 4331 
L 4263 4331 
L 2597 0 
L 2059 0 
L 403 4331 
L -63 4331 
L -63 4666 
L 1638 4666 
L 1638 4331 
L 1119 4331 
z
" transform="scale(0.015625)"/>
       <path id="DejaVuSerif-28" d="M 2041 -997 
Q 1281 -656 893 83 
Q 506 822 506 1931 
Q 506 3044 893 3783 
Q 1281 4522 2041 4863 
L 2041 4556 
Q 1559 4225 1350 3623 
Q 1141 3022 1141 1931 
Q 1141 844 1350 242 
Q 1559 -359 2041 -691 
L 2041 -997 
z
" transform="scale(0.015625)"/>
       <path id="DejaVuSerif-29" d="M 453 -997 
L 453 -691 
Q 934 -359 1145 242 
Q 1356 844 1356 1931 
Q 1356 3022 1145 3623 
Q 934 4225 453 4556 
L 453 4863 
Q 1216 4522 1603 3783 
Q 1991 3044 1991 1931 
Q 1991 822 1603 83 
Q 1216 -656 453 -997 
z
" transform="scale(0.015625)"/>
       <path id="DejaVuSerif-5d" d="M 1947 4863 
L 1947 -844 
L 494 -844 
L 494 -513 
L 1350 -513 
L 1350 4531 
L 494 4531 
L 494 4863 
L 1947 4863 
z
" transform="scale(0.015625)"/>
      </defs>
      <use xlink:href="#DejaVuSerif-3bc"/>
      <use xlink:href="#DejaVuSerif-20" transform="translate(64.990234 0)"/>
      <use xlink:href="#DejaVuSerif-5b" transform="translate(96.777344 0)"/>
      <use xlink:href="#DejaVuSerif-56" transform="translate(135.791016 0)"/>
      <use xlink:href="#DejaVuSerif-28" transform="translate(208.007812 0)"/>
      <use xlink:href="#DejaVuSerif-74" transform="translate(247.021484 0)"/>
      <use xlink:href="#DejaVuSerif-29" transform="translate(287.207031 0)"/>
      <use xlink:href="#DejaVuSerif-5d" transform="translate(326.220703 0)"/>
     </g>
    </g>
   </g>
   <g id="line2d_10">
    <path d="M 99.337219 350.420232 
L 116.276531 350.420232 
L 116.276531 290.847528 
L 99.337219 290.847528 
L 99.337219 350.420232 
" clip-path="url(#pdb6b289adb)" style="fill: none; stroke: #000000; stroke-linecap: square"/>
   </g>
   <g id="line2d_11">
    <path d="M 107.806875 350.420232 
L 107.806875 387.804061 
" clip-path="url(#pdb6b289adb)" style="fill: none; stroke: #000000; stroke-linecap: square"/>
   </g>
   <g id="line2d_12">
    <path d="M 107.806875 290.847528 
L 107.806875 211.157618 
" clip-path="url(#pdb6b289adb)" style="fill: none; stroke: #000000; stroke-linecap: square"/>
   </g>
   <g id="line2d_13">
    <path d="M 103.572047 387.804061 
L 112.041703 387.804061 
" clip-path="url(#pdb6b289adb)" style="fill: none; stroke: #000000; stroke-linecap: square"/>
   </g>
   <g id="line2d_14">
    <path d="M 103.572047 211.157618 
L 112.041703 211.157618 
" clip-path="url(#pdb6b289adb)" style="fill: none; stroke: #000000; stroke-linecap: square"/>
   </g>
   <g id="line2d_15">
    <path d="M 212.265969 356.304233 
L 229.205281 356.304233 
L 229.205281 272.410494 
L 212.265969 272.410494 
L 212.265969 356.304233 
" clip-path="url(#pdb6b289adb)" style="fill: none; stroke: #000000; stroke-linecap: square"/>
   </g>
   <g id="line2d_16">
    <path d="M 220.735625 356.304233 
L 220.735625 388.864364 
" clip-path="url(#pdb6b289adb)" style="fill: none; stroke: #000000; stroke-linecap: square"/>
   </g>
   <g id="line2d_17">
    <path d="M 220.735625 272.410494 
L 220.735625 154.325389 
" clip-path="url(#pdb6b289adb)" style="fill: none; stroke: #000000; stroke-linecap: square"/>
   </g>
   <g id="line2d_18">
    <path d="M 216.500797 388.864364 
L 224.970453 388.864364 
" clip-path="url(#pdb6b289adb)" style="fill: none; stroke: #000000; stroke-linecap: square"/>
   </g>
   <g id="line2d_19">
    <path d="M 216.500797 154.325389 
L 224.970453 154.325389 
" clip-path="url(#pdb6b289adb)" style="fill: none; stroke: #000000; stroke-linecap: square"/>
   </g>
   <g id="line2d_20">
    <path d="M 104.983656 134.858654 
L 104.983656 129.698797 
L 217.912406 129.698797 
L 217.912406 134.858654 
" clip-path="url(#pdb6b289adb)" style="fill: none; stroke: #000000; stroke-linecap: square"/>
   </g>
   <g id="LineCollection_1">
    <path d="M 99.337219 326.420686 
L 116.276531 326.420686 
" clip-path="url(#pdb6b289adb)" style="fill: none; stroke: #000000; stroke-width: 5"/>
    <path d="M 209.44275 316.514332 
L 232.0285 316.514332 
" clip-path="url(#pdb6b289adb)" style="fill: none; stroke: #000000; stroke-width: 5"/>
   </g>
   <g id="line2d_21">
    <path d="M 99.337219 326.420686 
L 116.276531 326.420686 
" clip-path="url(#pdb6b289adb)" style="fill: none; stroke: #ff7f0e"/>
   </g>
   <g id="line2d_22">
    <defs>
     <path id="meb7de518cf" d="M 0 -3 
L -3 3 
L 3 3 
z
" style="stroke: #2ca02c; stroke-linejoin: miter"/>
    </defs>
    <g clip-path="url(#pdb6b289adb)">
     <use xlink:href="#meb7de518cf" x="107.806875" y="317.028162" style="fill: #2ca02c; stroke: #2ca02c; stroke-linejoin: miter"/>
    </g>
   </g>
   <g id="line2d_23">
    <path d="M 212.265969 316.514332 
L 229.205281 316.514332 
" clip-path="url(#pdb6b289adb)" style="fill: none; stroke: #ff7f0e"/>
   </g>
   <g id="line2d_24">
    <g clip-path="url(#pdb6b289adb)">
     <use xlink:href="#meb7de518cf" x="220.735625" y="303.011331" style="fill: #2ca02c; stroke: #2ca02c; stroke-linejoin: miter"/>
    </g>
   </g>
   <g id="patch_3">
    <path d="M 51.3425 404.12 
L 51.3425 68.496 
" style="fill: none; stroke: #000000; stroke-width: 0.8; stroke-linejoin: miter; stroke-linecap: square"/>
   </g>
   <g id="patch_4">
    <path d="M 277.2 404.12 
L 277.2 68.496 
" style="fill: none; stroke: #000000; stroke-width: 0.8; stroke-linejoin: miter; stroke-linecap: square"/>
   </g>
   <g id="patch_5">
    <path d="M 51.3425 404.12 
L 277.2 404.12 
" style="fill: none; stroke: #000000; stroke-width: 0.8; stroke-linejoin: miter; stroke-linecap: square"/>
   </g>
   <g id="patch_6">
    <path d="M 51.3425 68.496 
L 277.2 68.496 
" style="fill: none; stroke: #000000; stroke-width: 0.8; stroke-linejoin: miter; stroke-linecap: square"/>
   </g>
   <g id="text_11">
    <!-- p = 0.474 -->
    <g transform="translate(136.565219 125.039181) scale(0.1 -0.1)">
     <defs>
      <path id="DejaVuSerif-70" d="M 1313 1825 
L 1313 1497 
Q 1313 897 1542 583 
Q 1772 269 2209 269 
Q 2650 269 2876 622 
Q 3103 975 3103 1663 
Q 3103 2353 2876 2703 
Q 2650 3053 2209 3053 
Q 1772 3053 1542 2737 
Q 1313 2422 1313 1825 
z
M 738 2988 
L 184 2988 
L 184 3322 
L 1313 3322 
L 1313 2803 
Q 1481 3116 1742 3264 
Q 2003 3413 2388 3413 
Q 3000 3413 3387 2928 
Q 3775 2444 3775 1663 
Q 3775 881 3387 395 
Q 3000 -91 2388 -91 
Q 2003 -91 1742 57 
Q 1481 206 1313 519 
L 1313 -997 
L 1856 -997 
L 1856 -1331 
L 184 -1331 
L 184 -997 
L 738 -997 
L 738 2988 
z
" transform="scale(0.015625)"/>
      <path id="DejaVuSerif-3d" d="M 678 2894 
L 4684 2894 
L 4684 2394 
L 678 2394 
L 678 2894 
z
M 678 1619 
L 4684 1619 
L 4684 1119 
L 678 1119 
L 678 1619 
z
" transform="scale(0.015625)"/>
      <path id="DejaVuSerif-2e" d="M 603 325 
Q 603 500 722 622 
Q 841 744 1019 744 
Q 1191 744 1312 622 
Q 1434 500 1434 325 
Q 1434 153 1312 31 
Q 1191 -91 1019 -91 
Q 841 -91 722 29 
Q 603 150 603 325 
z
" transform="scale(0.015625)"/>
      <path id="DejaVuSerif-37" d="M 3609 4347 
L 1784 0 
L 1319 0 
L 3059 4153 
L 903 4153 
L 903 3578 
L 538 3578 
L 538 4666 
L 3609 4666 
L 3609 4347 
z
" transform="scale(0.015625)"/>
     </defs>
     <use xlink:href="#DejaVuSerif-70"/>
     <use xlink:href="#DejaVuSerif-20" transform="translate(64.013672 0)"/>
     <use xlink:href="#DejaVuSerif-3d" transform="translate(95.800781 0)"/>
     <use xlink:href="#DejaVuSerif-20" transform="translate(179.589844 0)"/>
     <use xlink:href="#DejaVuSerif-30" transform="translate(211.376953 0)"/>
     <use xlink:href="#DejaVuSerif-2e" transform="translate(275 0)"/>
     <use xlink:href="#DejaVuSerif-34" transform="translate(306.787109 0)"/>
     <use xlink:href="#DejaVuSerif-37" transform="translate(370.410156 0)"/>
     <use xlink:href="#DejaVuSerif-34" transform="translate(434.033203 0)"/>
    </g>
   </g>
   <g id="text_12">
    <!-- outstrength -->
    <g transform="translate(128.493438 21.6795) scale(0.12 -0.12)">
     <defs>
      <path id="DejaVuSerif-67" d="M 3359 2988 
L 3359 72 
Q 3359 -644 2965 -1033 
Q 2572 -1422 1844 -1422 
Q 1516 -1422 1216 -1362 
Q 916 -1303 641 -1184 
L 641 -488 
L 941 -488 
Q 997 -813 1206 -963 
Q 1416 -1113 1806 -1113 
Q 2313 -1113 2548 -827 
Q 2784 -541 2784 72 
L 2784 519 
Q 2616 206 2355 57 
Q 2094 -91 1709 -91 
Q 1097 -91 708 395 
Q 319 881 319 1663 
Q 319 2444 706 2928 
Q 1094 3413 1709 3413 
Q 2094 3413 2355 3264 
Q 2616 3116 2784 2803 
L 2784 3322 
L 3909 3322 
L 3909 2988 
L 3359 2988 
z
M 2784 1825 
Q 2784 2422 2554 2737 
Q 2325 3053 1888 3053 
Q 1444 3053 1217 2703 
Q 991 2353 991 1663 
Q 991 975 1217 622 
Q 1444 269 1888 269 
Q 2325 269 2554 583 
Q 2784 897 2784 1497 
L 2784 1825 
z
" transform="scale(0.015625)"/>
      <path id="DejaVuSerif-68" d="M 263 0 
L 263 331 
L 781 331 
L 781 4531 
L 231 4531 
L 231 4863 
L 1356 4863 
L 1356 2731 
Q 1516 3069 1770 3241 
Q 2025 3413 2363 3413 
Q 2913 3413 3172 3097 
Q 3431 2781 3431 2113 
L 3431 331 
L 3944 331 
L 3944 0 
L 2356 0 
L 2356 331 
L 2853 331 
L 2853 1931 
Q 2853 2541 2704 2764 
Q 2556 2988 2175 2988 
Q 1775 2988 1565 2697 
Q 1356 2406 1356 1850 
L 1356 331 
L 1856 331 
L 1856 0 
L 263 0 
z
" transform="scale(0.015625)"/>
     </defs>
     <use xlink:href="#DejaVuSerif-6f"/>
     <use xlink:href="#DejaVuSerif-75" transform="translate(60.205078 0)"/>
     <use xlink:href="#DejaVuSerif-74" transform="translate(124.609375 0)"/>
     <use xlink:href="#DejaVuSerif-73" transform="translate(164.794922 0)"/>
     <use xlink:href="#DejaVuSerif-74" transform="translate(216.113281 0)"/>
     <use xlink:href="#DejaVuSerif-72" transform="translate(256.298828 0)"/>
     <use xlink:href="#DejaVuSerif-65" transform="translate(304.101562 0)"/>
     <use xlink:href="#DejaVuSerif-6e" transform="translate(363.28125 0)"/>
     <use xlink:href="#DejaVuSerif-67" transform="translate(427.685547 0)"/>
     <use xlink:href="#DejaVuSerif-74" transform="translate(491.699219 0)"/>
     <use xlink:href="#DejaVuSerif-68" transform="translate(531.884766 0)"/>
    </g>
    <!--  mnn = None thresh = 0,  -->
    <g transform="translate(85.809063 35.2875) scale(0.12 -0.12)">
     <defs>
      <path id="DejaVuSerif-2c" d="M 231 -622 
Q 525 -406 662 -114 
Q 800 178 800 594 
L 800 709 
L 1416 709 
Q 1391 175 1164 -208 
Q 938 -591 481 -872 
L 231 -622 
z
" transform="scale(0.015625)"/>
     </defs>
     <use xlink:href="#DejaVuSerif-20"/>
     <use xlink:href="#DejaVuSerif-6d" transform="translate(31.787109 0)"/>
     <use xlink:href="#DejaVuSerif-6e" transform="translate(126.611328 0)"/>
     <use xlink:href="#DejaVuSerif-6e" transform="translate(191.015625 0)"/>
     <use xlink:href="#DejaVuSerif-20" transform="translate(255.419922 0)"/>
     <use xlink:href="#DejaVuSerif-3d" transform="translate(287.207031 0)"/>
     <use xlink:href="#DejaVuSerif-20" transform="translate(370.996094 0)"/>
     <use xlink:href="#DejaVuSerif-4e" transform="translate(402.783203 0)"/>
     <use xlink:href="#DejaVuSerif-6f" transform="translate(490.283203 0)"/>
     <use xlink:href="#DejaVuSerif-6e" transform="translate(550.488281 0)"/>
     <use xlink:href="#DejaVuSerif-65" transform="translate(614.892578 0)"/>
     <use xlink:href="#DejaVuSerif-20" transform="translate(674.072266 0)"/>
     <use xlink:href="#DejaVuSerif-74" transform="translate(705.859375 0)"/>
     <use xlink:href="#DejaVuSerif-68" transform="translate(746.044922 0)"/>
     <use xlink:href="#DejaVuSerif-72" transform="translate(810.449219 0)"/>
     <use xlink:href="#DejaVuSerif-65" transform="translate(858.251953 0)"/>
     <use xlink:href="#DejaVuSerif-73" transform="translate(917.431641 0)"/>
     <use xlink:href="#DejaVuSerif-68" transform="translate(968.75 0)"/>
     <use xlink:href="#DejaVuSerif-20" transform="translate(1033.154297 0)"/>
     <use xlink:href="#DejaVuSerif-3d" transform="translate(1064.941406 0)"/>
     <use xlink:href="#DejaVuSerif-20" transform="translate(1148.730469 0)"/>
     <use xlink:href="#DejaVuSerif-30" transform="translate(1180.517578 0)"/>
     <use xlink:href="#DejaVuSerif-2c" transform="translate(1244.140625 0)"/>
     <use xlink:href="#DejaVuSerif-20" transform="translate(1275.927734 0)"/>
    </g>
    <!--  group_norm = False,  -->
    <g transform="translate(96.76375 48.724875) scale(0.12 -0.12)">
     <defs>
      <path id="DejaVuSerif-5f" d="M 3200 -1259 
L 3200 -1509 
L 0 -1509 
L 0 -1259 
L 3200 -1259 
z
" transform="scale(0.015625)"/>
      <path id="DejaVuSerif-46" d="M 353 0 
L 353 331 
L 947 331 
L 947 4331 
L 353 4331 
L 353 4666 
L 4172 4666 
L 4172 3628 
L 3788 3628 
L 3788 4281 
L 1581 4281 
L 1581 2719 
L 3175 2719 
L 3175 3303 
L 3559 3303 
L 3559 1753 
L 3175 1753 
L 3175 2338 
L 1581 2338 
L 1581 331 
L 2328 331 
L 2328 0 
L 353 0 
z
" transform="scale(0.015625)"/>
      <path id="DejaVuSerif-6c" d="M 1313 331 
L 1856 331 
L 1856 0 
L 184 0 
L 184 331 
L 738 331 
L 738 4531 
L 184 4531 
L 184 4863 
L 1313 4863 
L 1313 331 
z
" transform="scale(0.015625)"/>
     </defs>
     <use xlink:href="#DejaVuSerif-20"/>
     <use xlink:href="#DejaVuSerif-67" transform="translate(31.787109 0)"/>
     <use xlink:href="#DejaVuSerif-72" transform="translate(95.800781 0)"/>
     <use xlink:href="#DejaVuSerif-6f" transform="translate(143.603516 0)"/>
     <use xlink:href="#DejaVuSerif-75" transform="translate(203.808594 0)"/>
     <use xlink:href="#DejaVuSerif-70" transform="translate(268.212891 0)"/>
     <use xlink:href="#DejaVuSerif-5f" transform="translate(332.226562 0)"/>
     <use xlink:href="#DejaVuSerif-6e" transform="translate(382.226562 0)"/>
     <use xlink:href="#DejaVuSerif-6f" transform="translate(446.630859 0)"/>
     <use xlink:href="#DejaVuSerif-72" transform="translate(506.835938 0)"/>
     <use xlink:href="#DejaVuSerif-6d" transform="translate(554.638672 0)"/>
     <use xlink:href="#DejaVuSerif-20" transform="translate(649.462891 0)"/>
     <use xlink:href="#DejaVuSerif-3d" transform="translate(681.25 0)"/>
     <use xlink:href="#DejaVuSerif-20" transform="translate(765.039062 0)"/>
     <use xlink:href="#DejaVuSerif-46" transform="translate(796.826172 0)"/>
     <use xlink:href="#DejaVuSerif-61" transform="translate(859.460938 0)"/>
     <use xlink:href="#DejaVuSerif-6c" transform="translate(919.080078 0)"/>
     <use xlink:href="#DejaVuSerif-73" transform="translate(951.0625 0)"/>
     <use xlink:href="#DejaVuSerif-65" transform="translate(1002.380859 0)"/>
     <use xlink:href="#DejaVuSerif-2c" transform="translate(1061.560547 0)"/>
     <use xlink:href="#DejaVuSerif-20" transform="translate(1093.347656 0)"/>
    </g>
    <!--  permutation test on the median. -->
    <g transform="translate(64.021563 62.496) scale(0.12 -0.12)">
     <defs>
      <path id="DejaVuSerif-69" d="M 622 4353 
Q 622 4497 726 4603 
Q 831 4709 978 4709 
Q 1122 4709 1226 4603 
Q 1331 4497 1331 4353 
Q 1331 4206 1228 4103 
Q 1125 4000 978 4000 
Q 831 4000 726 4103 
Q 622 4206 622 4353 
z
M 1356 331 
L 1900 331 
L 1900 0 
L 231 0 
L 231 331 
L 781 331 
L 781 2988 
L 231 2988 
L 231 3322 
L 1356 3322 
L 1356 331 
z
" transform="scale(0.015625)"/>
      <path id="DejaVuSerif-64" d="M 3359 331 
L 3909 331 
L 3909 0 
L 2784 0 
L 2784 519 
Q 2616 206 2355 57 
Q 2094 -91 1709 -91 
Q 1097 -91 708 395 
Q 319 881 319 1663 
Q 319 2444 706 2928 
Q 1094 3413 1709 3413 
Q 2094 3413 2355 3264 
Q 2616 3116 2784 2803 
L 2784 4531 
L 2241 4531 
L 2241 4863 
L 3359 4863 
L 3359 331 
z
M 2784 1497 
L 2784 1825 
Q 2784 2422 2554 2737 
Q 2325 3053 1888 3053 
Q 1444 3053 1217 2703 
Q 991 2353 991 1663 
Q 991 975 1217 622 
Q 1444 269 1888 269 
Q 2325 269 2554 583 
Q 2784 897 2784 1497 
z
" transform="scale(0.015625)"/>
     </defs>
     <use xlink:href="#DejaVuSerif-20"/>
     <use xlink:href="#DejaVuSerif-70" transform="translate(31.787109 0)"/>
     <use xlink:href="#DejaVuSerif-65" transform="translate(95.800781 0)"/>
     <use xlink:href="#DejaVuSerif-72" transform="translate(154.980469 0)"/>
     <use xlink:href="#DejaVuSerif-6d" transform="translate(202.783203 0)"/>
     <use xlink:href="#DejaVuSerif-75" transform="translate(297.607422 0)"/>
     <use xlink:href="#DejaVuSerif-74" transform="translate(362.011719 0)"/>
     <use xlink:href="#DejaVuSerif-61" transform="translate(402.197266 0)"/>
     <use xlink:href="#DejaVuSerif-74" transform="translate(461.816406 0)"/>
     <use xlink:href="#DejaVuSerif-69" transform="translate(502.001953 0)"/>
     <use xlink:href="#DejaVuSerif-6f" transform="translate(533.984375 0)"/>
     <use xlink:href="#DejaVuSerif-6e" transform="translate(594.189453 0)"/>
     <use xlink:href="#DejaVuSerif-20" transform="translate(658.59375 0)"/>
     <use xlink:href="#DejaVuSerif-74" transform="translate(690.380859 0)"/>
     <use xlink:href="#DejaVuSerif-65" transform="translate(730.566406 0)"/>
     <use xlink:href="#DejaVuSerif-73" transform="translate(789.746094 0)"/>
     <use xlink:href="#DejaVuSerif-74" transform="translate(841.064453 0)"/>
     <use xlink:href="#DejaVuSerif-20" transform="translate(881.25 0)"/>
     <use xlink:href="#DejaVuSerif-6f" transform="translate(913.037109 0)"/>
     <use xlink:href="#DejaVuSerif-6e" transform="translate(973.242188 0)"/>
     <use xlink:href="#DejaVuSerif-20" transform="translate(1037.646484 0)"/>
     <use xlink:href="#DejaVuSerif-74" transform="translate(1069.433594 0)"/>
     <use xlink:href="#DejaVuSerif-68" transform="translate(1109.619141 0)"/>
     <use xlink:href="#DejaVuSerif-65" transform="translate(1174.023438 0)"/>
     <use xlink:href="#DejaVuSerif-20" transform="translate(1233.203125 0)"/>
     <use xlink:href="#DejaVuSerif-6d" transform="translate(1264.990234 0)"/>
     <use xlink:href="#DejaVuSerif-65" transform="translate(1359.814453 0)"/>
     <use xlink:href="#DejaVuSerif-64" transform="translate(1418.994141 0)"/>
     <use xlink:href="#DejaVuSerif-69" transform="translate(1483.007812 0)"/>
     <use xlink:href="#DejaVuSerif-61" transform="translate(1514.990234 0)"/>
     <use xlink:href="#DejaVuSerif-6e" transform="translate(1574.609375 0)"/>
     <use xlink:href="#DejaVuSerif-2e" transform="translate(1639.013672 0)"/>
    </g>
   </g>
  </g>
 </g>
 <defs>
  <clipPath id="pdb6b289adb">
   <rect x="51.3425" y="68.496" width="225.8575" height="335.624"/>
  </clipPath>
 </defs>
</svg>
