<?xml version="1.0" encoding="utf-8" standalone="no"?>
<!DOCTYPE svg PUBLIC "-//W3C//DTD SVG 1.1//EN"
  "http://www.w3.org/Graphics/SVG/1.1/DTD/svg11.dtd">
<svg xmlns:xlink="http://www.w3.org/1999/xlink" width="288pt" height="288pt" viewBox="0 0 288 288" xmlns="http://www.w3.org/2000/svg" version="1.1">
 <metadata>
  <rdf:RDF xmlns:dc="http://purl.org/dc/elements/1.1/" xmlns:cc="http://creativecommons.org/ns#" xmlns:rdf="http://www.w3.org/1999/02/22-rdf-syntax-ns#">
   <cc:Work>
    <dc:type rdf:resource="http://purl.org/dc/dcmitype/StillImage"/>
    <dc:date>2025-04-15T14:45:39.766585</dc:date>
    <dc:format>image/svg+xml</dc:format>
    <dc:creator>
     <cc:Agent>
      <dc:title>Matplotlib v3.7.5, https://matplotlib.org/</dc:title>
     </cc:Agent>
    </dc:creator>
   </cc:Work>
  </rdf:RDF>
 </metadata>
 <defs>
  <style type="text/css">*{stroke-linejoin: round; stroke-linecap: butt}</style>
 </defs>
 <g id="figure_1">
  <g id="patch_1">
   <path d="M 0 288 
L 288 288 
L 288 0 
L 0 0 
z
" style="fill: #ffffff"/>
  </g>
  <g id="axes_1">
   <g id="patch_2">
    <path d="M 36 256.32 
L 259.2 256.32 
L 259.2 34.56 
L 36 34.56 
z
" style="fill: #ffffff"/>
   </g>
   <g id="EdgeCollection_1">
    <path d="M 152.390069 169.29847 
C 154.453435 147.108753 126.700926 101.92242 91.56229 88.0294 
C 126.700926 101.92242 154.453435 147.108753 152.390069 169.29847 
L 159.857852 169.992881 
L 151.001248 184.234038 
L 144.922285 168.60406 
L 152.390069 169.29847 
" clip-path="url(#p31068ae2cd)" style="stroke: #000000; stroke-width: 0.25"/>
    <path d="M 108.558667 77.550468 
L 100.063685 77.550468 
L 108.558667 77.550468 
L 108.558667 85.050468 
L 93.558667 77.550468 
L 108.558667 70.050468 
L 108.558667 77.550468 
" clip-path="url(#p31068ae2cd)" style="stroke: #000000; stroke-width: 0.805556"/>
    <path d="M 167.119811 173.329776 
C 172.955108 160.985008 163.704271 115.798674 135.903039 91.150255 
C 163.704271 115.798674 172.955108 160.985008 167.119811 173.329776 
L 173.900441 176.534938 
L 160.709487 186.891034 
L 160.339182 170.124613 
L 167.119811 173.329776 
" clip-path="url(#p31068ae2cd)" style="stroke: #000000; stroke-width: 0.25"/>
    <path d="M 108.558667 77.550468 
L 155.568703 77.550468 
L 108.558667 77.550468 
L 108.558667 85.050468 
L 93.558667 77.550468 
L 108.558667 70.050468 
L 108.558667 77.550468 
" clip-path="url(#p31068ae2cd)" style="stroke: #000000; stroke-width: 0.805556"/>
    <path d="M 181.239686 183.919682 
C 191.45678 174.861262 200.707616 129.674929 184.829479 96.084189 
C 200.707616 129.674929 191.45678 174.861262 181.239686 183.919682 
L 186.215218 189.53164 
L 170.015768 193.870745 
L 176.264154 178.307723 
L 181.239686 183.919682 
" clip-path="url(#p31068ae2cd)" style="stroke: #000000; stroke-width: 0.25"/>
    <path d="M 61.031086 120.863614 
C 58.921426 143.551183 86.673935 188.737517 121.347596 202.446696 
C 86.673935 188.737517 58.921426 143.551183 61.031086 120.863614 
L 53.563303 120.169203 
L 62.419907 105.928047 
L 68.49887 121.558025 
L 61.031086 120.863614 
" clip-path="url(#p31068ae2cd)" style="stroke: #000000; stroke-width: 5.25"/>
    <path d="M 105.392584 109.645448 
C 95.924771 129.674929 105.175607 174.861262 126.616619 193.870745 
C 105.175607 174.861262 95.924771 129.674929 105.392584 109.645448 
L 98.611955 106.440286 
L 111.802909 96.084189 
L 112.173214 112.85061 
L 105.392584 109.645448 
" clip-path="url(#p31068ae2cd)" style="stroke: #000000; stroke-width: 0.25"/>
    <path d="M 149.50543 101.101319 
C 132.928116 115.798674 123.67728 160.985008 135.9229 186.891034 
C 123.67728 160.985008 132.928116 115.798674 149.50543 101.101319 
L 144.529899 95.48936 
L 160.729348 91.150255 
L 154.480962 106.713278 
L 149.50543 101.101319 
" clip-path="url(#p31068ae2cd)" style="stroke: #000000; stroke-width: 0.25"/>
    <path d="M 198.560436 90.603172 
C 169.931461 101.92242 142.178953 147.108753 145.63114 184.234038 
C 142.178953 147.108753 169.931461 101.92242 198.560436 90.603172 
L 195.802823 83.628535 
L 212.509711 85.087945 
L 201.31805 97.57781 
L 198.560436 90.603172 
" clip-path="url(#p31068ae2cd)" style="stroke: #000000; stroke-width: 0.25"/>
    <path d="M 108.558667 77.550468 
L 211.07372 77.550468 
L 108.558667 77.550468 
L 108.558667 85.050468 
L 93.558667 77.550468 
L 108.558667 70.050468 
L 108.558667 77.550468 
" clip-path="url(#p31068ae2cd)" style="stroke: #000000; stroke-width: 0.805556"/>
    <path d="M 189.234067 196.931469 
C 209.958453 188.737517 237.710961 143.551183 233.471776 97.962411 
C 237.710961 143.551183 209.958453 188.737517 189.234067 196.931469 
L 191.99168 203.906106 
L 175.284792 202.446696 
L 186.476453 189.956832 
L 189.234067 196.931469 
" clip-path="url(#p31068ae2cd)" style="stroke: #000000; stroke-width: 0.25"/>
   </g>
   <g id="VertexCollection_1">
    <path d="M 65.058667 106.050468 
C 72.616956 106.050468 79.866694 103.047528 85.211211 97.703012 
C 90.555727 92.358495 93.558667 85.108757 93.558667 77.550468 
C 93.558667 69.99218 90.555727 62.742442 85.211211 57.397925 
C 79.866694 52.053408 72.616956 49.050468 65.058667 49.050468 
C 57.500379 49.050468 50.250641 52.053408 44.906124 57.397925 
C 39.561607 62.742442 36.558667 69.99218 36.558667 77.550468 
C 36.558667 85.108757 39.561607 92.358495 44.906124 97.703012 
C 50.250641 103.047528 57.500379 106.050468 65.058667 106.050468 
z
" clip-path="url(#p31068ae2cd)" style="fill: #91b5d6; stroke: #91b5d6"/>
    <path d="M 120.563685 98.050468 
C 126.000348 98.050468 131.215072 95.890459 135.059374 92.046157 
C 138.903676 88.201856 141.063685 82.987132 141.063685 77.550468 
C 141.063685 72.113805 138.903676 66.899081 135.059374 63.054779 
C 131.215072 59.210478 126.000348 57.050468 120.563685 57.050468 
C 115.127021 57.050468 109.912298 59.210478 106.067996 63.054779 
C 102.223694 66.899081 100.063685 72.113805 100.063685 77.550468 
C 100.063685 82.987132 102.223694 88.201856 106.067996 92.046157 
C 109.912298 95.890459 115.127021 98.050468 120.563685 98.050468 
z
" clip-path="url(#p31068ae2cd)" style="fill: #faf2f8; stroke: #faf2f8"/>
    <path d="M 176.068703 98.050468 
C 181.505366 98.050468 186.72009 95.890459 190.564392 92.046157 
C 194.408693 88.201856 196.568703 82.987132 196.568703 77.550468 
C 196.568703 72.113805 194.408693 66.899081 190.564392 63.054779 
C 186.72009 59.210478 181.505366 57.050468 176.068703 57.050468 
C 170.632039 57.050468 165.417315 59.210478 161.573014 63.054779 
C 157.728712 66.899081 155.568703 72.113805 155.568703 77.550468 
C 155.568703 82.987132 157.728712 88.201856 161.573014 92.046157 
C 165.417315 95.890459 170.632039 98.050468 176.068703 98.050468 
z
" clip-path="url(#p31068ae2cd)" style="fill: #faf2f8; stroke: #faf2f8"/>
    <path d="M 148.316194 242.109468 
C 156.007084 242.109468 163.38401 239.053845 168.82229 233.615565 
C 174.260571 228.177285 177.316194 220.800358 177.316194 213.109468 
C 177.316194 205.418578 174.260571 198.041652 168.82229 192.603372 
C 163.38401 187.165091 156.007084 184.109468 148.316194 184.109468 
C 140.625304 184.109468 133.248378 187.165091 127.810097 192.603372 
C 122.371817 198.041652 119.316194 205.418578 119.316194 213.109468 
C 119.316194 220.800358 122.371817 228.177285 127.810097 233.615565 
C 133.248378 239.053845 140.625304 242.109468 148.316194 242.109468 
z
" clip-path="url(#p31068ae2cd)" style="fill: #83afd3; stroke: #83afd3"/>
    <path d="M 231.57372 98.050468 
C 237.010384 98.050468 242.225108 95.890459 246.069409 92.046157 
C 249.913711 88.201856 252.07372 82.987132 252.07372 77.550468 
C 252.07372 72.113805 249.913711 66.899081 246.069409 63.054779 
C 242.225108 59.210478 237.010384 57.050468 231.57372 57.050468 
C 226.137057 57.050468 220.922333 59.210478 217.078031 63.054779 
C 213.23373 66.899081 211.07372 72.113805 211.07372 77.550468 
C 211.07372 82.987132 213.23373 88.201856 217.078031 92.046157 
C 220.922333 95.890459 226.137057 98.050468 231.57372 98.050468 
z
" clip-path="url(#p31068ae2cd)" style="fill: #faf2f8; stroke: #faf2f8"/>
   </g>
   <g id="text_1">
    <g clip-path="url(#p31068ae2cd)">
     <!-- 0.43 -->
     <g transform="translate(51.699292 80.861718) scale(0.12 -0.12)">
      <defs>
       <path id="DejaVuSans-30" d="M 2034 4250 
Q 1547 4250 1301 3770 
Q 1056 3291 1056 2328 
Q 1056 1369 1301 889 
Q 1547 409 2034 409 
Q 2525 409 2770 889 
Q 3016 1369 3016 2328 
Q 3016 3291 2770 3770 
Q 2525 4250 2034 4250 
z
M 2034 4750 
Q 2819 4750 3233 4129 
Q 3647 3509 3647 2328 
Q 3647 1150 3233 529 
Q 2819 -91 2034 -91 
Q 1250 -91 836 529 
Q 422 1150 422 2328 
Q 422 3509 836 4129 
Q 1250 4750 2034 4750 
z
" transform="scale(0.015625)"/>
       <path id="DejaVuSans-2e" d="M 684 794 
L 1344 794 
L 1344 0 
L 684 0 
L 684 794 
z
" transform="scale(0.015625)"/>
       <path id="DejaVuSans-34" d="M 2419 4116 
L 825 1625 
L 2419 1625 
L 2419 4116 
z
M 2253 4666 
L 3047 4666 
L 3047 1625 
L 3713 1625 
L 3713 1100 
L 3047 1100 
L 3047 0 
L 2419 0 
L 2419 1100 
L 313 1100 
L 313 1709 
L 2253 4666 
z
" transform="scale(0.015625)"/>
       <path id="DejaVuSans-33" d="M 2597 2516 
Q 3050 2419 3304 2112 
Q 3559 1806 3559 1356 
Q 3559 666 3084 287 
Q 2609 -91 1734 -91 
Q 1441 -91 1130 -33 
Q 819 25 488 141 
L 488 750 
Q 750 597 1062 519 
Q 1375 441 1716 441 
Q 2309 441 2620 675 
Q 2931 909 2931 1356 
Q 2931 1769 2642 2001 
Q 2353 2234 1838 2234 
L 1294 2234 
L 1294 2753 
L 1863 2753 
Q 2328 2753 2575 2939 
Q 2822 3125 2822 3475 
Q 2822 3834 2567 4026 
Q 2313 4219 1838 4219 
Q 1578 4219 1281 4162 
Q 984 4106 628 3988 
L 628 4550 
Q 988 4650 1302 4700 
Q 1616 4750 1894 4750 
Q 2613 4750 3031 4423 
Q 3450 4097 3450 3541 
Q 3450 3153 3228 2886 
Q 3006 2619 2597 2516 
z
" transform="scale(0.015625)"/>
      </defs>
      <use xlink:href="#DejaVuSans-30"/>
      <use xlink:href="#DejaVuSans-2e" x="63.623047"/>
      <use xlink:href="#DejaVuSans-34" x="95.410156"/>
      <use xlink:href="#DejaVuSans-33" x="159.033203"/>
     </g>
    </g>
   </g>
   <g id="text_2">
    <g clip-path="url(#p31068ae2cd)">
     <!-- 0.04 -->
     <g transform="translate(107.20431 80.861718) scale(0.12 -0.12)">
      <use xlink:href="#DejaVuSans-30"/>
      <use xlink:href="#DejaVuSans-2e" x="63.623047"/>
      <use xlink:href="#DejaVuSans-30" x="95.410156"/>
      <use xlink:href="#DejaVuSans-34" x="159.033203"/>
     </g>
    </g>
   </g>
   <g id="text_3">
    <g clip-path="url(#p31068ae2cd)">
     <!-- 0.04 -->
     <g transform="translate(162.709328 80.861718) scale(0.12 -0.12)">
      <use xlink:href="#DejaVuSans-30"/>
      <use xlink:href="#DejaVuSans-2e" x="63.623047"/>
      <use xlink:href="#DejaVuSans-30" x="95.410156"/>
      <use xlink:href="#DejaVuSans-34" x="159.033203"/>
     </g>
    </g>
   </g>
   <g id="text_4">
    <g clip-path="url(#p31068ae2cd)">
     <!-- 0.46 -->
     <g transform="translate(134.956819 216.420718) scale(0.12 -0.12)">
      <defs>
       <path id="DejaVuSans-36" d="M 2113 2584 
Q 1688 2584 1439 2293 
Q 1191 2003 1191 1497 
Q 1191 994 1439 701 
Q 1688 409 2113 409 
Q 2538 409 2786 701 
Q 3034 994 3034 1497 
Q 3034 2003 2786 2293 
Q 2538 2584 2113 2584 
z
M 3366 4563 
L 3366 3988 
Q 3128 4100 2886 4159 
Q 2644 4219 2406 4219 
Q 1781 4219 1451 3797 
Q 1122 3375 1075 2522 
Q 1259 2794 1537 2939 
Q 1816 3084 2150 3084 
Q 2853 3084 3261 2657 
Q 3669 2231 3669 1497 
Q 3669 778 3244 343 
Q 2819 -91 2113 -91 
Q 1303 -91 875 529 
Q 447 1150 447 2328 
Q 447 3434 972 4092 
Q 1497 4750 2381 4750 
Q 2619 4750 2861 4703 
Q 3103 4656 3366 4563 
z
" transform="scale(0.015625)"/>
      </defs>
      <use xlink:href="#DejaVuSans-30"/>
      <use xlink:href="#DejaVuSans-2e" x="63.623047"/>
      <use xlink:href="#DejaVuSans-34" x="95.410156"/>
      <use xlink:href="#DejaVuSans-36" x="159.033203"/>
     </g>
    </g>
   </g>
   <g id="text_5">
    <g clip-path="url(#p31068ae2cd)">
     <!-- 0.04 -->
     <g transform="translate(218.214345 80.861718) scale(0.12 -0.12)">
      <use xlink:href="#DejaVuSans-30"/>
      <use xlink:href="#DejaVuSans-2e" x="63.623047"/>
      <use xlink:href="#DejaVuSans-30" x="95.410156"/>
      <use xlink:href="#DejaVuSans-34" x="159.033203"/>
     </g>
    </g>
   </g>
   <g id="matplotlib.axis_1"/>
   <g id="matplotlib.axis_2"/>
   <g id="text_6">
    <!-- Pagerank -->
    <g transform="translate(119.654062 28.56) scale(0.12 -0.12)">
     <defs>
      <path id="DejaVuSans-50" d="M 1259 4147 
L 1259 2394 
L 2053 2394 
Q 2494 2394 2734 2622 
Q 2975 2850 2975 3272 
Q 2975 3691 2734 3919 
Q 2494 4147 2053 4147 
L 1259 4147 
z
M 628 4666 
L 2053 4666 
Q 2838 4666 3239 4311 
Q 3641 3956 3641 3272 
Q 3641 2581 3239 2228 
Q 2838 1875 2053 1875 
L 1259 1875 
L 1259 0 
L 628 0 
L 628 4666 
z
" transform="scale(0.015625)"/>
      <path id="DejaVuSans-61" d="M 2194 1759 
Q 1497 1759 1228 1600 
Q 959 1441 959 1056 
Q 959 750 1161 570 
Q 1363 391 1709 391 
Q 2188 391 2477 730 
Q 2766 1069 2766 1631 
L 2766 1759 
L 2194 1759 
z
M 3341 1997 
L 3341 0 
L 2766 0 
L 2766 531 
Q 2569 213 2275 61 
Q 1981 -91 1556 -91 
Q 1019 -91 701 211 
Q 384 513 384 1019 
Q 384 1609 779 1909 
Q 1175 2209 1959 2209 
L 2766 2209 
L 2766 2266 
Q 2766 2663 2505 2880 
Q 2244 3097 1772 3097 
Q 1472 3097 1187 3025 
Q 903 2953 641 2809 
L 641 3341 
Q 956 3463 1253 3523 
Q 1550 3584 1831 3584 
Q 2591 3584 2966 3190 
Q 3341 2797 3341 1997 
z
" transform="scale(0.015625)"/>
      <path id="DejaVuSans-67" d="M 2906 1791 
Q 2906 2416 2648 2759 
Q 2391 3103 1925 3103 
Q 1463 3103 1205 2759 
Q 947 2416 947 1791 
Q 947 1169 1205 825 
Q 1463 481 1925 481 
Q 2391 481 2648 825 
Q 2906 1169 2906 1791 
z
M 3481 434 
Q 3481 -459 3084 -895 
Q 2688 -1331 1869 -1331 
Q 1566 -1331 1297 -1286 
Q 1028 -1241 775 -1147 
L 775 -588 
Q 1028 -725 1275 -790 
Q 1522 -856 1778 -856 
Q 2344 -856 2625 -561 
Q 2906 -266 2906 331 
L 2906 616 
Q 2728 306 2450 153 
Q 2172 0 1784 0 
Q 1141 0 747 490 
Q 353 981 353 1791 
Q 353 2603 747 3093 
Q 1141 3584 1784 3584 
Q 2172 3584 2450 3431 
Q 2728 3278 2906 2969 
L 2906 3500 
L 3481 3500 
L 3481 434 
z
" transform="scale(0.015625)"/>
      <path id="DejaVuSans-65" d="M 3597 1894 
L 3597 1613 
L 953 1613 
Q 991 1019 1311 708 
Q 1631 397 2203 397 
Q 2534 397 2845 478 
Q 3156 559 3463 722 
L 3463 178 
Q 3153 47 2828 -22 
Q 2503 -91 2169 -91 
Q 1331 -91 842 396 
Q 353 884 353 1716 
Q 353 2575 817 3079 
Q 1281 3584 2069 3584 
Q 2775 3584 3186 3129 
Q 3597 2675 3597 1894 
z
M 3022 2063 
Q 3016 2534 2758 2815 
Q 2500 3097 2075 3097 
Q 1594 3097 1305 2825 
Q 1016 2553 972 2059 
L 3022 2063 
z
" transform="scale(0.015625)"/>
      <path id="DejaVuSans-72" d="M 2631 2963 
Q 2534 3019 2420 3045 
Q 2306 3072 2169 3072 
Q 1681 3072 1420 2755 
Q 1159 2438 1159 1844 
L 1159 0 
L 581 0 
L 581 3500 
L 1159 3500 
L 1159 2956 
Q 1341 3275 1631 3429 
Q 1922 3584 2338 3584 
Q 2397 3584 2469 3576 
Q 2541 3569 2628 3553 
L 2631 2963 
z
" transform="scale(0.015625)"/>
      <path id="DejaVuSans-6e" d="M 3513 2113 
L 3513 0 
L 2938 0 
L 2938 2094 
Q 2938 2591 2744 2837 
Q 2550 3084 2163 3084 
Q 1697 3084 1428 2787 
Q 1159 2491 1159 1978 
L 1159 0 
L 581 0 
L 581 3500 
L 1159 3500 
L 1159 2956 
Q 1366 3272 1645 3428 
Q 1925 3584 2291 3584 
Q 2894 3584 3203 3211 
Q 3513 2838 3513 2113 
z
" transform="scale(0.015625)"/>
      <path id="DejaVuSans-6b" d="M 581 4863 
L 1159 4863 
L 1159 1991 
L 2875 3500 
L 3609 3500 
L 1753 1863 
L 3688 0 
L 2938 0 
L 1159 1709 
L 1159 0 
L 581 0 
L 581 4863 
z
" transform="scale(0.015625)"/>
     </defs>
     <use xlink:href="#DejaVuSans-50"/>
     <use xlink:href="#DejaVuSans-61" x="55.802734"/>
     <use xlink:href="#DejaVuSans-67" x="117.082031"/>
     <use xlink:href="#DejaVuSans-65" x="180.558594"/>
     <use xlink:href="#DejaVuSans-72" x="242.082031"/>
     <use xlink:href="#DejaVuSans-61" x="283.195312"/>
     <use xlink:href="#DejaVuSans-6e" x="344.474609"/>
     <use xlink:href="#DejaVuSans-6b" x="407.853516"/>
    </g>
   </g>
  </g>
 </g>
 <defs>
  <clipPath id="p31068ae2cd">
   <rect x="36" y="34.56" width="223.2" height="221.76"/>
  </clipPath>
 </defs>
</svg>
