<?xml version="1.0" encoding="utf-8" standalone="no"?>
<!DOCTYPE svg PUBLIC "-//W3C//DTD SVG 1.1//EN"
  "http://www.w3.org/Graphics/SVG/1.1/DTD/svg11.dtd">
<svg xmlns:xlink="http://www.w3.org/1999/xlink" width="216pt" height="864pt" viewBox="0 0 216 864" xmlns="http://www.w3.org/2000/svg" version="1.1">
 <metadata>
  <rdf:RDF xmlns:dc="http://purl.org/dc/elements/1.1/" xmlns:cc="http://creativecommons.org/ns#" xmlns:rdf="http://www.w3.org/1999/02/22-rdf-syntax-ns#">
   <cc:Work>
    <dc:type rdf:resource="http://purl.org/dc/dcmitype/StillImage"/>
    <dc:date>2025-06-05T15:05:30.970266</dc:date>
    <dc:format>image/svg+xml</dc:format>
    <dc:creator>
     <cc:Agent>
      <dc:title>Matplotlib v3.9.2, https://matplotlib.org/</dc:title>
     </cc:Agent>
    </dc:creator>
   </cc:Work>
  </rdf:RDF>
 </metadata>
 <defs>
  <style type="text/css">*{stroke-linejoin: round; stroke-linecap: butt}</style>
 </defs>
 <g id="figure_1">
  <g id="patch_1">
   <path d="M 0 864 
L 216 864 
L 216 0 
L 0 0 
z
" style="fill: #ffffff"/>
  </g>
  <g id="axes_1">
   <g id="patch_2">
    <path d="M 27 218.383448 
L 194.4 218.383448 
L 194.4 103.68 
L 27 103.68 
z
" style="fill: #ffffff"/>
   </g>
   <g id="EdgeCollection_1">
    <path d="M 184.179708 163.870299 
C 204.414713 173.740014 204.414713 146.500584 184.179708 156.370299 
C 204.414713 146.500584 204.414713 173.740014 184.179708 163.870299 
" clip-path="url(#p5492e48f79)" style="fill: #ffffff"/>
    <path d="M 174.57525 153.295164 
L 167.833652 138.496722 
" clip-path="url(#p5492e48f79)" style="stroke: #000000; stroke-width: 1.425287"/>
    <path d="M 172.332407 154.866261 
L 131.864741 115.140125 
" clip-path="url(#p5492e48f79)" style="fill: #ffffff"/>
    <path d="M 171.025468 156.669636 
L 90.186261 114.77945 
" clip-path="url(#p5492e48f79)" style="fill: #ffffff"/>
    <path d="M 170.378144 158.427103 
L 62.230759 133.364783 
" clip-path="url(#p5492e48f79)" style="stroke: #000000; stroke-width: 2"/>
    <path d="M 170.184517 160.120299 
L 43.464254 160.120299 
" clip-path="url(#p5492e48f79)" style="fill: #ffffff"/>
    <path d="M 170.378144 161.813494 
L 56.38566 188.23037 
" clip-path="url(#p5492e48f79)" style="fill: #ffffff"/>
    <path d="M 171.025468 163.570961 
L 95.5135 202.700617 
" clip-path="url(#p5492e48f79)" style="stroke: #000000; stroke-width: 0.942529"/>
    <path d="M 172.332407 165.374337 
L 131.864741 205.100472 
" clip-path="url(#p5492e48f79)" style="fill: #ffffff"/>
    <path d="M 174.57525 166.945433 
L 165.346239 187.203982 
" clip-path="url(#p5492e48f79)" style="fill: #ffffff"/>
    <path d="M 172.015639 129.914424 
C 193.481578 123.126187 174.714065 103.38367 166.848264 124.478595 
C 174.714065 103.38367 193.481578 123.126187 172.015639 129.914424 
" clip-path="url(#p5492e48f79)" style="fill: #ffffff"/>
    <path d="M 158.065336 128.220926 
L 132.126129 114.77945 
" clip-path="url(#p5492e48f79)" style="fill: #ffffff"/>
    <path d="M 157.418012 129.978392 
L 90.315726 114.427957 
" clip-path="url(#p5492e48f79)" style="fill: #ffffff"/>
    <path d="M 157.224385 131.671588 
L 62.424386 131.671588 
" clip-path="url(#p5492e48f79)" style="stroke: #000000; stroke-width: 0.908046"/>
    <path d="M 157.418012 133.364783 
L 43.425528 159.78166 
" clip-path="url(#p5492e48f79)" style="fill: #ffffff"/>
    <path d="M 158.065336 135.12225 
L 56.256195 187.878877 
" clip-path="url(#p5492e48f79)" style="fill: #ffffff"/>
    <path d="M 159.372275 136.925626 
L 94.206562 200.897241 
" clip-path="url(#p5492e48f79)" style="stroke: #000000; stroke-width: 1.034483"/>
    <path d="M 161.615118 138.496722 
L 131.416173 204.786253 
" clip-path="url(#p5492e48f79)" style="fill: #ffffff"/>
    <path d="M 164.724385 139.171588 
L 164.724385 187.069009 
" clip-path="url(#p5492e48f79)" style="fill: #ffffff"/>
    <path d="M 131.830575 113.004802 
C 150.355843 91.344059 123.890994 84.894385 130.373229 112.649636 
C 123.890994 84.894385 150.355843 91.344059 131.830575 113.004802 
" clip-path="url(#p5492e48f79)" style="fill: #ffffff"/>
    <path d="M 129.294319 114.089318 
L 90.354451 114.089318 
" clip-path="url(#p5492e48f79)" style="fill: #dadada; stroke: #dadada; stroke-width: 0.103448"/>
    <path d="M 129.333045 114.427957 
L 62.230759 129.978392 
" clip-path="url(#p5492e48f79)" style="fill: #ffffff"/>
    <path d="M 129.46251 114.77945 
L 43.296063 159.430166 
" clip-path="url(#p5492e48f79)" style="fill: #ffffff"/>
    <path d="M 129.723897 115.140125 
L 55.994808 187.518202 
" clip-path="url(#p5492e48f79)" style="fill: #ffffff"/>
    <path d="M 130.172466 115.454345 
L 91.963719 199.326145 
" clip-path="url(#p5492e48f79)" style="fill: #ffffff"/>
    <path d="M 130.794319 115.589318 
L 130.794319 204.651279 
" clip-path="url(#p5492e48f79)" style="fill: #ffffff"/>
    <path d="M 131.416173 115.454345 
L 164.102532 187.203982 
" clip-path="url(#p5492e48f79)" style="fill: #ffffff"/>
    <path d="M 89.275542 112.649636 
C 95.757777 84.894385 69.292927 91.344059 87.818196 113.004802 
C 69.292927 91.344059 95.757777 84.894385 89.275542 112.649636 
" clip-path="url(#p5492e48f79)" style="fill: #ffffff"/>
    <path d="M 87.522642 114.77945 
L 61.583434 128.220926 
" clip-path="url(#p5492e48f79)" style="fill: #ffffff"/>
    <path d="M 87.784029 115.140125 
L 43.034676 159.069491 
" clip-path="url(#p5492e48f79)" style="fill: #ffffff"/>
    <path d="M 88.232598 115.454345 
L 55.546239 187.203982 
" clip-path="url(#p5492e48f79)" style="fill: #ffffff"/>
    <path d="M 88.854451 115.589318 
L 88.854451 198.651279 
" clip-path="url(#p5492e48f79)" style="fill: #ffffff"/>
    <path d="M 89.476305 115.454345 
L 130.172466 204.786253 
" clip-path="url(#p5492e48f79)" style="fill: #090909; stroke: #090909; stroke-width: 0.390805"/>
    <path d="M 89.924873 115.140125 
L 163.653963 187.518202 
" clip-path="url(#p5492e48f79)" style="fill: #ffffff"/>
    <path d="M 52.800507 124.478595 
C 44.934706 103.38367 26.167193 123.126187 47.633132 129.914424 
C 26.167193 123.126187 44.934706 103.38367 52.800507 124.478595 
" clip-path="url(#p5492e48f79)" style="fill: #ffffff"/>
    <path d="M 51.815118 138.496722 
L 42.586107 158.755272 
" clip-path="url(#p5492e48f79)" style="fill: #ffffff"/>
    <path d="M 54.924386 139.171588 
L 54.924386 187.069009 
" clip-path="url(#p5492e48f79)" style="fill: #ffffff"/>
    <path d="M 58.033653 138.496722 
L 85.745184 199.326145 
" clip-path="url(#p5492e48f79)" style="fill: #ffffff"/>
    <path d="M 60.276496 136.925626 
L 129.723897 205.100472 
" clip-path="url(#p5492e48f79)" style="fill: #ffffff"/>
    <path d="M 61.583434 135.12225 
L 163.392576 187.878877 
" clip-path="url(#p5492e48f79)" style="stroke: #000000; stroke-width: 1.344828"/>
    <path d="M 40.665215 159.370299 
C 15.234058 146.500584 15.234058 173.740014 40.665215 160.870299 
C 15.234058 173.740014 15.234058 146.500584 40.665215 159.370299 
" clip-path="url(#p5492e48f79)" style="fill: #ffffff"/>
    <path d="M 42.586107 161.485325 
L 54.302532 187.203982 
" clip-path="url(#p5492e48f79)" style="fill: #ffffff"/>
    <path d="M 43.034676 161.171106 
L 83.502341 200.897241 
" clip-path="url(#p5492e48f79)" style="fill: #ffffff"/>
    <path d="M 43.296063 160.810431 
L 129.46251 205.461147 
" clip-path="url(#p5492e48f79)" style="fill: #ffffff"/>
    <path d="M 43.425528 160.458938 
L 163.263111 188.23037 
" clip-path="url(#p5492e48f79)" style="fill: #ffffff"/>
    <path d="M 53.466135 188.920442 
C 26.167193 197.11441 44.934706 216.856927 54.49961 190.007608 
C 44.934706 216.856927 26.167193 197.11441 53.466135 188.920442 
" clip-path="url(#p5492e48f79)" style="fill: #ffffff"/>
    <path d="M 56.256195 189.259142 
L 82.195403 202.700617 
" clip-path="url(#p5492e48f79)" style="fill: #ffffff"/>
    <path d="M 56.38566 188.907648 
L 129.333045 205.81264 
" clip-path="url(#p5492e48f79)" style="fill: #ffffff"/>
    <path d="M 56.424386 188.569009 
L 163.224385 188.569009 
" clip-path="url(#p5492e48f79)" style="stroke: #000000; stroke-width: 0.908046"/>
    <path d="M 83.673174 211.573858 
C 69.292927 228.896538 95.757777 235.346212 90.959904 213.349687 
C 95.757777 235.346212 69.292927 228.896538 83.673174 211.573858 
" clip-path="url(#p5492e48f79)" style="fill: #ffffff"/>
    <path d="M 96.354451 206.151279 
L 129.294319 206.151279 
" clip-path="url(#p5492e48f79)" style="stroke: #000000; stroke-width: 0.586207"/>
    <path d="M 96.160825 204.458084 
L 163.263111 188.907648 
" clip-path="url(#p5492e48f79)" style="fill: #ffffff"/>
    <path d="M 130.373229 207.590961 
C 123.890994 235.346212 150.355843 228.896538 131.830575 207.235795 
C 150.355843 228.896538 123.890994 235.346212 130.373229 207.590961 
" clip-path="url(#p5492e48f79)" style="fill: #ffffff"/>
    <path d="M 132.126129 205.461147 
L 163.392576 189.259142 
" clip-path="url(#p5492e48f79)" style="fill: #ffffff"/>
    <path d="M 165.149161 190.007608 
C 174.714065 216.856927 193.481578 197.11441 166.182636 188.920442 
C 193.481578 197.11441 174.714065 216.856927 165.149161 190.007608 
" clip-path="url(#p5492e48f79)" style="fill: #ffffff"/>
   </g>
   <g id="VertexCollection_1">
    <path d="M 177.684517 167.620299 
C 179.67354 167.620299 181.581366 166.830051 182.987818 165.423599 
C 184.39427 164.017148 185.184517 162.109322 185.184517 160.120299 
C 185.184517 158.131275 184.39427 156.22345 182.987818 154.816998 
C 181.581366 153.410546 179.67354 152.620299 177.684517 152.620299 
C 175.695494 152.620299 173.787668 153.410546 172.381216 154.816998 
C 170.974765 156.22345 170.184517 158.131275 170.184517 160.120299 
C 170.184517 162.109322 170.974765 164.017148 172.381216 165.423599 
C 173.787668 166.830051 175.695494 167.620299 177.684517 167.620299 
z
" clip-path="url(#p5492e48f79)" style="fill: #6b010e; stroke: #00ff00; stroke-width: 3"/>
    <path d="M 164.724385 139.171588 
C 166.713409 139.171588 168.621234 138.381341 170.027686 136.974889 
C 171.434138 135.568437 172.224385 133.660611 172.224385 131.671588 
C 172.224385 129.682565 171.434138 127.774739 170.027686 126.368287 
C 168.621234 124.961835 166.713409 124.171588 164.724385 124.171588 
C 162.735362 124.171588 160.827536 124.961835 159.421084 126.368287 
C 158.014633 127.774739 157.224385 129.682565 157.224385 131.671588 
C 157.224385 133.660611 158.014633 135.568437 159.421084 136.974889 
C 160.827536 138.381341 162.735362 139.171588 164.724385 139.171588 
z
" clip-path="url(#p5492e48f79)" style="fill: #6b010e; stroke: #00ff00; stroke-width: 3"/>
    <path d="M 130.794319 115.589318 
C 131.192124 115.589318 131.573689 115.431268 131.85498 115.149978 
C 132.13627 114.868688 132.294319 114.487122 132.294319 114.089318 
C 132.294319 113.691513 132.13627 113.309948 131.85498 113.028658 
C 131.573689 112.747367 131.192124 112.589318 130.794319 112.589318 
C 130.396515 112.589318 130.01495 112.747367 129.733659 113.028658 
C 129.452369 113.309948 129.294319 113.691513 129.294319 114.089318 
C 129.294319 114.487122 129.452369 114.868688 129.733659 115.149978 
C 130.01495 115.431268 130.396515 115.589318 130.794319 115.589318 
z
" clip-path="url(#p5492e48f79)" style="fill: #fdcab5; stroke: #00ff00; stroke-width: 3"/>
    <path d="M 88.854451 115.589318 
C 89.252256 115.589318 89.633821 115.431268 89.915112 115.149978 
C 90.196402 114.868688 90.354451 114.487122 90.354451 114.089318 
C 90.354451 113.691513 90.196402 113.309948 89.915112 113.028658 
C 89.633821 112.747367 89.252256 112.589318 88.854451 112.589318 
C 88.456647 112.589318 88.075082 112.747367 87.793791 113.028658 
C 87.512501 113.309948 87.354451 113.691513 87.354451 114.089318 
C 87.354451 114.487122 87.512501 114.868688 87.793791 115.149978 
C 88.075082 115.431268 88.456647 115.589318 88.854451 115.589318 
z
" clip-path="url(#p5492e48f79)" style="fill: #fdcab5; stroke: #00ff00; stroke-width: 3"/>
    <path d="M 54.924386 139.171588 
C 56.913409 139.171588 58.821235 138.381341 60.227686 136.974889 
C 61.634138 135.568437 62.424386 133.660611 62.424386 131.671588 
C 62.424386 129.682565 61.634138 127.774739 60.227686 126.368287 
C 58.821235 124.961835 56.913409 124.171588 54.924386 124.171588 
C 52.935362 124.171588 51.027536 124.961835 49.621085 126.368287 
C 48.214633 127.774739 47.424386 129.682565 47.424386 131.671588 
C 47.424386 133.660611 48.214633 135.568437 49.621085 136.974889 
C 51.027536 138.381341 52.935362 139.171588 54.924386 139.171588 
z
" clip-path="url(#p5492e48f79)" style="fill: #6b010e; stroke: #00ff00; stroke-width: 3"/>
    <path d="M 41.964254 161.620299 
C 42.362058 161.620299 42.743623 161.462249 43.024914 161.180959 
C 43.306204 160.899668 43.464254 160.518103 43.464254 160.120299 
C 43.464254 159.722494 43.306204 159.340929 43.024914 159.059638 
C 42.743623 158.778348 42.362058 158.620299 41.964254 158.620299 
C 41.566449 158.620299 41.184884 158.778348 40.903593 159.059638 
C 40.622303 159.340929 40.464254 159.722494 40.464254 160.120299 
C 40.464254 160.518103 40.622303 160.899668 40.903593 161.180959 
C 41.184884 161.462249 41.566449 161.620299 41.964254 161.620299 
z
" clip-path="url(#p5492e48f79)" style="fill: #fdcab5; stroke: #00ff00; stroke-width: 3"/>
    <path d="M 54.924386 190.069009 
C 55.32219 190.069009 55.703755 189.91096 55.985046 189.62967 
C 56.266336 189.348379 56.424386 188.966814 56.424386 188.569009 
C 56.424386 188.171205 56.266336 187.78964 55.985046 187.508349 
C 55.703755 187.227059 55.32219 187.069009 54.924386 187.069009 
C 54.526581 187.069009 54.145016 187.227059 53.863725 187.508349 
C 53.582435 187.78964 53.424386 188.171205 53.424386 188.569009 
C 53.424386 188.966814 53.582435 189.348379 53.863725 189.62967 
C 54.145016 189.91096 54.526581 190.069009 54.924386 190.069009 
z
" clip-path="url(#p5492e48f79)" style="fill: #fdcab5; stroke: #00ff00; stroke-width: 3"/>
    <path d="M 88.854451 213.651279 
C 90.843475 213.651279 92.7513 212.861032 94.157752 211.45458 
C 95.564204 210.048129 96.354451 208.140303 96.354451 206.151279 
C 96.354451 204.162256 95.564204 202.25443 94.157752 200.847979 
C 92.7513 199.441527 90.843475 198.651279 88.854451 198.651279 
C 86.865428 198.651279 84.957602 199.441527 83.551151 200.847979 
C 82.144699 202.25443 81.354451 204.162256 81.354451 206.151279 
C 81.354451 208.140303 82.144699 210.048129 83.551151 211.45458 
C 84.957602 212.861032 86.865428 213.651279 88.854451 213.651279 
z
" clip-path="url(#p5492e48f79)" style="fill: #6b010e; stroke: #ff0000; stroke-width: 3"/>
    <path d="M 130.794319 207.651279 
C 131.192124 207.651279 131.573689 207.49323 131.85498 207.21194 
C 132.13627 206.930649 132.294319 206.549084 132.294319 206.151279 
C 132.294319 205.753475 132.13627 205.37191 131.85498 205.090619 
C 131.573689 204.809329 131.192124 204.651279 130.794319 204.651279 
C 130.396515 204.651279 130.01495 204.809329 129.733659 205.090619 
C 129.452369 205.37191 129.294319 205.753475 129.294319 206.151279 
C 129.294319 206.549084 129.452369 206.930649 129.733659 207.21194 
C 130.01495 207.49323 130.396515 207.651279 130.794319 207.651279 
z
" clip-path="url(#p5492e48f79)" style="fill: #fdcab5; stroke: #00ff00; stroke-width: 3"/>
    <path d="M 164.724385 190.069009 
C 165.12219 190.069009 165.503755 189.91096 165.785045 189.62967 
C 166.066336 189.348379 166.224385 188.966814 166.224385 188.569009 
C 166.224385 188.171205 166.066336 187.78964 165.785045 187.508349 
C 165.503755 187.227059 165.12219 187.069009 164.724385 187.069009 
C 164.326581 187.069009 163.945015 187.227059 163.663725 187.508349 
C 163.382435 187.78964 163.224385 188.171205 163.224385 188.569009 
C 163.224385 188.966814 163.382435 189.348379 163.663725 189.62967 
C 163.945015 189.91096 164.326581 190.069009 164.724385 190.069009 
z
" clip-path="url(#p5492e48f79)" style="fill: #fdcab5; stroke: #00ff00; stroke-width: 3"/>
   </g>
   <g id="matplotlib.axis_1"/>
   <g id="matplotlib.axis_2"/>
  </g>
  <g id="axes_2">
   <g id="patch_3">
    <path d="M 27 356.027586 
L 194.4 356.027586 
L 194.4 241.324138 
L 27 241.324138 
z
" style="fill: #ffffff"/>
   </g>
   <g id="EdgeCollection_2">
    <path d="M 184.179708 301.514437 
C 204.414713 311.384152 204.414713 284.144722 184.179708 294.014437 
C 204.414713 284.144722 204.414713 311.384152 184.179708 301.514437 
" clip-path="url(#pbe67782478)" style="fill: #ffffff"/>
    <path d="M 174.57525 290.939302 
L 167.833652 276.14086 
" clip-path="url(#pbe67782478)" style="stroke: #000000; stroke-width: 1.89916"/>
    <path d="M 172.332407 292.510398 
L 131.864741 252.784263 
" clip-path="url(#pbe67782478)" style="fill: #ffffff"/>
    <path d="M 171.025468 294.313774 
L 90.186261 252.423588 
" clip-path="url(#pbe67782478)" style="fill: #ffffff"/>
    <path d="M 170.378144 296.071241 
L 56.38566 269.654365 
" clip-path="url(#pbe67782478)" style="stroke: #000000; stroke-width: 2"/>
    <path d="M 170.184517 297.764437 
L 43.464254 297.764437 
" clip-path="url(#pbe67782478)" style="fill: #ffffff"/>
    <path d="M 170.378144 299.457632 
L 56.38566 325.874508 
" clip-path="url(#pbe67782478)" style="fill: #ffffff"/>
    <path d="M 171.025468 301.215099 
L 95.5135 340.344755 
" clip-path="url(#pbe67782478)" style="stroke: #000000; stroke-width: 1.647059"/>
    <path d="M 172.332407 303.018475 
L 131.864741 342.74461 
" clip-path="url(#pbe67782478)" style="fill: #ffffff"/>
    <path d="M 174.57525 304.589571 
L 165.346239 324.84812 
" clip-path="url(#pbe67782478)" style="fill: #ffffff"/>
    <path d="M 172.015639 267.558562 
C 193.481578 260.770325 174.714065 241.027808 166.848264 262.122733 
C 174.714065 241.027808 193.481578 260.770325 172.015639 267.558562 
" clip-path="url(#pbe67782478)" style="fill: #ffffff"/>
    <path d="M 158.065336 265.865064 
L 132.126129 252.423588 
" clip-path="url(#pbe67782478)" style="fill: #ffffff"/>
    <path d="M 157.418012 267.62253 
L 90.315726 252.072095 
" clip-path="url(#pbe67782478)" style="fill: #ffffff"/>
    <path d="M 157.224385 269.315726 
L 56.424386 269.315726 
" clip-path="url(#pbe67782478)" style="stroke: #000000; stroke-width: 0.87395"/>
    <path d="M 157.418012 271.008921 
L 43.425528 297.425797 
" clip-path="url(#pbe67782478)" style="fill: #ffffff"/>
    <path d="M 158.065336 272.766388 
L 56.256195 325.523015 
" clip-path="url(#pbe67782478)" style="fill: #ffffff"/>
    <path d="M 159.372275 274.569764 
L 94.206562 338.541379 
" clip-path="url(#pbe67782478)" style="stroke: #000000; stroke-width: 0.92437"/>
    <path d="M 161.615118 276.14086 
L 131.416173 342.430391 
" clip-path="url(#pbe67782478)" style="fill: #ffffff"/>
    <path d="M 164.724385 276.815726 
L 164.724385 324.713147 
" clip-path="url(#pbe67782478)" style="fill: #ffffff"/>
    <path d="M 131.830575 250.64894 
C 150.355843 228.988197 123.890994 222.538523 130.373229 250.293774 
C 123.890994 222.538523 150.355843 228.988197 131.830575 250.64894 
" clip-path="url(#pbe67782478)" style="fill: #ffffff"/>
    <path d="M 129.294319 251.733456 
L 90.354451 251.733456 
" clip-path="url(#pbe67782478)" style="fill: #ffffff"/>
    <path d="M 129.333045 252.072095 
L 56.38566 268.977087 
" clip-path="url(#pbe67782478)" style="fill: #ffffff"/>
    <path d="M 129.46251 252.423588 
L 43.296063 297.074304 
" clip-path="url(#pbe67782478)" style="fill: #ffffff"/>
    <path d="M 129.723897 252.784263 
L 55.994808 325.16234 
" clip-path="url(#pbe67782478)" style="fill: #ffffff"/>
    <path d="M 130.172466 253.098483 
L 91.963719 336.970283 
" clip-path="url(#pbe67782478)" style="fill: #ffffff"/>
    <path d="M 130.794319 253.233456 
L 130.794319 342.295417 
" clip-path="url(#pbe67782478)" style="fill: #ffffff"/>
    <path d="M 131.416173 253.098483 
L 164.102532 324.84812 
" clip-path="url(#pbe67782478)" style="fill: #ffffff"/>
    <path d="M 89.275542 250.293774 
C 95.757777 222.538523 69.292927 228.988197 87.818196 250.64894 
C 69.292927 228.988197 95.757777 222.538523 89.275542 250.293774 
" clip-path="url(#pbe67782478)" style="fill: #ffffff"/>
    <path d="M 87.522642 252.423588 
L 56.256195 268.625593 
" clip-path="url(#pbe67782478)" style="fill: #ffffff"/>
    <path d="M 87.784029 252.784263 
L 43.034676 296.713629 
" clip-path="url(#pbe67782478)" style="fill: #ffffff"/>
    <path d="M 88.232598 253.098483 
L 55.546239 324.84812 
" clip-path="url(#pbe67782478)" style="fill: #ffffff"/>
    <path d="M 88.854451 253.233456 
L 88.854451 336.295417 
" clip-path="url(#pbe67782478)" style="fill: #ffffff"/>
    <path d="M 89.476305 253.098483 
L 130.172466 342.430391 
" clip-path="url(#pbe67782478)" style="fill: #ffffff"/>
    <path d="M 89.924873 252.784263 
L 163.653963 325.16234 
" clip-path="url(#pbe67782478)" style="fill: #ffffff"/>
    <path d="M 54.49961 267.877127 
C 44.934706 241.027808 26.167193 260.770325 53.466135 268.964293 
C 26.167193 260.770325 44.934706 241.027808 54.49961 267.877127 
" clip-path="url(#pbe67782478)" style="fill: #ffffff"/>
    <path d="M 54.302532 270.680753 
L 42.586107 296.39941 
" clip-path="url(#pbe67782478)" style="fill: #ffffff"/>
    <path d="M 54.924386 270.815726 
L 54.924386 324.713147 
" clip-path="url(#pbe67782478)" style="fill: #ffffff"/>
    <path d="M 55.546239 270.680753 
L 85.745184 336.970283 
" clip-path="url(#pbe67782478)" style="fill: #ffffff"/>
    <path d="M 55.994808 270.366533 
L 129.723897 342.74461 
" clip-path="url(#pbe67782478)" style="fill: #ffffff"/>
    <path d="M 56.256195 270.005858 
L 163.392576 325.523015 
" clip-path="url(#pbe67782478)" style="fill: #ffffff"/>
    <path d="M 40.665215 297.014437 
C 15.234058 284.144722 15.234058 311.384152 40.665215 298.514437 
C 15.234058 311.384152 15.234058 284.144722 40.665215 297.014437 
" clip-path="url(#pbe67782478)" style="fill: #ffffff"/>
    <path d="M 42.586107 299.129463 
L 54.302532 324.84812 
" clip-path="url(#pbe67782478)" style="fill: #ffffff"/>
    <path d="M 43.034676 298.815244 
L 83.502341 338.541379 
" clip-path="url(#pbe67782478)" style="fill: #ffffff"/>
    <path d="M 43.296063 298.454569 
L 129.46251 343.105285 
" clip-path="url(#pbe67782478)" style="fill: #ffffff"/>
    <path d="M 43.425528 298.103076 
L 163.263111 325.874508 
" clip-path="url(#pbe67782478)" style="fill: #ffffff"/>
    <path d="M 53.466135 326.56458 
C 26.167193 334.758548 44.934706 354.501065 54.49961 327.651746 
C 44.934706 354.501065 26.167193 334.758548 53.466135 326.56458 
" clip-path="url(#pbe67782478)" style="fill: #ffffff"/>
    <path d="M 56.256195 326.90328 
L 82.195403 340.344755 
" clip-path="url(#pbe67782478)" style="stroke: #000000; stroke-width: 0.92437"/>
    <path d="M 56.38566 326.551786 
L 129.333045 343.456778 
" clip-path="url(#pbe67782478)" style="fill: #ffffff"/>
    <path d="M 56.424386 326.213147 
L 163.224385 326.213147 
" clip-path="url(#pbe67782478)" style="fill: #ffffff"/>
    <path d="M 83.673174 349.217996 
C 69.292927 366.540676 95.757777 372.99035 90.959904 350.993825 
C 95.757777 372.99035 69.292927 366.540676 83.673174 349.217996 
" clip-path="url(#pbe67782478)" style="fill: #ffffff"/>
    <path d="M 96.354451 343.795417 
L 129.294319 343.795417 
" clip-path="url(#pbe67782478)" style="fill: #ffffff"/>
    <path d="M 96.160825 342.102222 
L 163.263111 326.551786 
" clip-path="url(#pbe67782478)" style="fill: #ffffff"/>
    <path d="M 130.373229 345.235099 
C 123.890994 372.99035 150.355843 366.540676 131.830575 344.879933 
C 150.355843 366.540676 123.890994 372.99035 130.373229 345.235099 
" clip-path="url(#pbe67782478)" style="fill: #ffffff"/>
    <path d="M 132.126129 343.105285 
L 163.392576 326.90328 
" clip-path="url(#pbe67782478)" style="fill: #ffffff"/>
    <path d="M 165.149161 327.651746 
C 174.714065 354.501065 193.481578 334.758548 166.182636 326.56458 
C 193.481578 334.758548 174.714065 354.501065 165.149161 327.651746 
" clip-path="url(#pbe67782478)" style="fill: #ffffff"/>
   </g>
   <g id="VertexCollection_2">
    <path d="M 177.684517 305.264437 
C 179.67354 305.264437 181.581366 304.474189 182.987818 303.067737 
C 184.39427 301.661286 185.184517 299.75346 185.184517 297.764437 
C 185.184517 295.775413 184.39427 293.867588 182.987818 292.461136 
C 181.581366 291.054684 179.67354 290.264437 177.684517 290.264437 
C 175.695494 290.264437 173.787668 291.054684 172.381216 292.461136 
C 170.974765 293.867588 170.184517 295.775413 170.184517 297.764437 
C 170.184517 299.75346 170.974765 301.661286 172.381216 303.067737 
C 173.787668 304.474189 175.695494 305.264437 177.684517 305.264437 
z
" clip-path="url(#pbe67782478)" style="fill: #6b010e; stroke: #00ff00; stroke-width: 3"/>
    <path d="M 164.724385 276.815726 
C 166.713409 276.815726 168.621234 276.025479 170.027686 274.619027 
C 171.434138 273.212575 172.224385 271.304749 172.224385 269.315726 
C 172.224385 267.326703 171.434138 265.418877 170.027686 264.012425 
C 168.621234 262.605973 166.713409 261.815726 164.724385 261.815726 
C 162.735362 261.815726 160.827536 262.605973 159.421084 264.012425 
C 158.014633 265.418877 157.224385 267.326703 157.224385 269.315726 
C 157.224385 271.304749 158.014633 273.212575 159.421084 274.619027 
C 160.827536 276.025479 162.735362 276.815726 164.724385 276.815726 
z
" clip-path="url(#pbe67782478)" style="fill: #6b010e; stroke: #00ff00; stroke-width: 3"/>
    <path d="M 130.794319 253.233456 
C 131.192124 253.233456 131.573689 253.075406 131.85498 252.794116 
C 132.13627 252.512826 132.294319 252.13126 132.294319 251.733456 
C 132.294319 251.335651 132.13627 250.954086 131.85498 250.672796 
C 131.573689 250.391505 131.192124 250.233456 130.794319 250.233456 
C 130.396515 250.233456 130.01495 250.391505 129.733659 250.672796 
C 129.452369 250.954086 129.294319 251.335651 129.294319 251.733456 
C 129.294319 252.13126 129.452369 252.512826 129.733659 252.794116 
C 130.01495 253.075406 130.396515 253.233456 130.794319 253.233456 
z
" clip-path="url(#pbe67782478)" style="fill: #fdcab5; stroke: #00ff00; stroke-width: 3"/>
    <path d="M 88.854451 253.233456 
C 89.252256 253.233456 89.633821 253.075406 89.915112 252.794116 
C 90.196402 252.512826 90.354451 252.13126 90.354451 251.733456 
C 90.354451 251.335651 90.196402 250.954086 89.915112 250.672796 
C 89.633821 250.391505 89.252256 250.233456 88.854451 250.233456 
C 88.456647 250.233456 88.075082 250.391505 87.793791 250.672796 
C 87.512501 250.954086 87.354451 251.335651 87.354451 251.733456 
C 87.354451 252.13126 87.512501 252.512826 87.793791 252.794116 
C 88.075082 253.075406 88.456647 253.233456 88.854451 253.233456 
z
" clip-path="url(#pbe67782478)" style="fill: #fdcab5; stroke: #00ff00; stroke-width: 3"/>
    <path d="M 54.924386 270.815726 
C 55.32219 270.815726 55.703755 270.657676 55.985046 270.376386 
C 56.266336 270.095096 56.424386 269.713531 56.424386 269.315726 
C 56.424386 268.917921 56.266336 268.536356 55.985046 268.255066 
C 55.703755 267.973775 55.32219 267.815726 54.924386 267.815726 
C 54.526581 267.815726 54.145016 267.973775 53.863725 268.255066 
C 53.582435 268.536356 53.424386 268.917921 53.424386 269.315726 
C 53.424386 269.713531 53.582435 270.095096 53.863725 270.376386 
C 54.145016 270.657676 54.526581 270.815726 54.924386 270.815726 
z
" clip-path="url(#pbe67782478)" style="fill: #fdcab5; stroke: #00ff00; stroke-width: 3"/>
    <path d="M 41.964254 299.264437 
C 42.362058 299.264437 42.743623 299.106387 43.024914 298.825097 
C 43.306204 298.543806 43.464254 298.162241 43.464254 297.764437 
C 43.464254 297.366632 43.306204 296.985067 43.024914 296.703776 
C 42.743623 296.422486 42.362058 296.264437 41.964254 296.264437 
C 41.566449 296.264437 41.184884 296.422486 40.903593 296.703776 
C 40.622303 296.985067 40.464254 297.366632 40.464254 297.764437 
C 40.464254 298.162241 40.622303 298.543806 40.903593 298.825097 
C 41.184884 299.106387 41.566449 299.264437 41.964254 299.264437 
z
" clip-path="url(#pbe67782478)" style="fill: #fdcab5; stroke: #00ff00; stroke-width: 3"/>
    <path d="M 54.924386 327.713147 
C 55.32219 327.713147 55.703755 327.555098 55.985046 327.273807 
C 56.266336 326.992517 56.424386 326.610952 56.424386 326.213147 
C 56.424386 325.815343 56.266336 325.433777 55.985046 325.152487 
C 55.703755 324.871197 55.32219 324.713147 54.924386 324.713147 
C 54.526581 324.713147 54.145016 324.871197 53.863725 325.152487 
C 53.582435 325.433777 53.424386 325.815343 53.424386 326.213147 
C 53.424386 326.610952 53.582435 326.992517 53.863725 327.273807 
C 54.145016 327.555098 54.526581 327.713147 54.924386 327.713147 
z
" clip-path="url(#pbe67782478)" style="fill: #fdcab5; stroke: #00ff00; stroke-width: 3"/>
    <path d="M 88.854451 351.295417 
C 90.843475 351.295417 92.7513 350.50517 94.157752 349.098718 
C 95.564204 347.692266 96.354451 345.784441 96.354451 343.795417 
C 96.354451 341.806394 95.564204 339.898568 94.157752 338.492117 
C 92.7513 337.085665 90.843475 336.295417 88.854451 336.295417 
C 86.865428 336.295417 84.957602 337.085665 83.551151 338.492117 
C 82.144699 339.898568 81.354451 341.806394 81.354451 343.795417 
C 81.354451 345.784441 82.144699 347.692266 83.551151 349.098718 
C 84.957602 350.50517 86.865428 351.295417 88.854451 351.295417 
z
" clip-path="url(#pbe67782478)" style="fill: #6b010e; stroke: #ff0000; stroke-width: 3"/>
    <path d="M 130.794319 345.295417 
C 131.192124 345.295417 131.573689 345.137368 131.85498 344.856078 
C 132.13627 344.574787 132.294319 344.193222 132.294319 343.795417 
C 132.294319 343.397613 132.13627 343.016048 131.85498 342.734757 
C 131.573689 342.453467 131.192124 342.295417 130.794319 342.295417 
C 130.396515 342.295417 130.01495 342.453467 129.733659 342.734757 
C 129.452369 343.016048 129.294319 343.397613 129.294319 343.795417 
C 129.294319 344.193222 129.452369 344.574787 129.733659 344.856078 
C 130.01495 345.137368 130.396515 345.295417 130.794319 345.295417 
z
" clip-path="url(#pbe67782478)" style="fill: #fdcab5; stroke: #00ff00; stroke-width: 3"/>
    <path d="M 164.724385 327.713147 
C 165.12219 327.713147 165.503755 327.555098 165.785045 327.273807 
C 166.066336 326.992517 166.224385 326.610952 166.224385 326.213147 
C 166.224385 325.815343 166.066336 325.433777 165.785045 325.152487 
C 165.503755 324.871197 165.12219 324.713147 164.724385 324.713147 
C 164.326581 324.713147 163.945015 324.871197 163.663725 325.152487 
C 163.382435 325.433777 163.224385 325.815343 163.224385 326.213147 
C 163.224385 326.610952 163.382435 326.992517 163.663725 327.273807 
C 163.945015 327.555098 164.326581 327.713147 164.724385 327.713147 
z
" clip-path="url(#pbe67782478)" style="fill: #fdcab5; stroke: #00ff00; stroke-width: 3"/>
   </g>
   <g id="matplotlib.axis_3"/>
   <g id="matplotlib.axis_4"/>
  </g>
  <g id="axes_3">
   <g id="patch_4">
    <path d="M 27 493.671724 
L 194.4 493.671724 
L 194.4 378.968276 
L 27 378.968276 
z
" style="fill: #ffffff"/>
   </g>
   <g id="EdgeCollection_3">
    <path d="M 184.179708 440.07 
C 204.414713 449.939715 204.414713 422.700285 184.179708 432.57 
C 204.414713 422.700285 204.414713 449.939715 184.179708 440.07 
" clip-path="url(#pf7191df22d)" style="fill: #ffffff"/>
    <path d="M 174.625008 429.472416 
L 167.783894 414.161103 
" clip-path="url(#pf7191df22d)" style="stroke: #000000; stroke-width: 1.382716"/>
    <path d="M 172.383663 431.014254 
L 131.85449 390.447678 
" clip-path="url(#pf7191df22d)" style="fill: #ffffff"/>
    <path d="M 171.053202 432.816337 
L 90.180714 390.087261 
" clip-path="url(#pf7191df22d)" style="fill: #ffffff"/>
    <path d="M 170.385506 434.595347 
L 62.223397 409.038172 
" clip-path="url(#pf7191df22d)" style="stroke: #000000; stroke-width: 2"/>
    <path d="M 170.184517 436.32 
L 43.464254 436.32 
" clip-path="url(#pf7191df22d)" style="fill: #ffffff"/>
    <path d="M 170.385506 438.044653 
L 56.384188 464.98155 
" clip-path="url(#pf7191df22d)" style="fill: #ffffff"/>
    <path d="M 171.053202 439.823663 
L 90.180714 482.552739 
" clip-path="url(#pf7191df22d)" style="fill: #ffffff"/>
    <path d="M 172.383663 441.625746 
L 131.85449 482.192322 
" clip-path="url(#pf7191df22d)" style="fill: #ffffff"/>
    <path d="M 174.625008 443.167584 
L 167.783894 458.478897 
" clip-path="url(#pf7191df22d)" style="stroke: #000000; stroke-width: 0.592593"/>
    <path d="M 172.028829 405.612018 
C 193.545918 398.9877 174.929528 379.102616 166.903063 400.136935 
C 174.929528 379.102616 193.545918 398.9877 172.028829 405.612018 
" clip-path="url(#pf7191df22d)" style="fill: #ffffff"/>
    <path d="M 158.09307 403.809856 
L 132.120582 390.087261 
" clip-path="url(#pf7191df22d)" style="fill: #ffffff"/>
    <path d="M 157.425374 405.588866 
L 90.314254 389.731459 
" clip-path="url(#pf7191df22d)" style="fill: #ffffff"/>
    <path d="M 157.224385 407.313519 
L 62.424386 407.313519 
" clip-path="url(#pf7191df22d)" style="stroke: #000000; stroke-width: 0.592593"/>
    <path d="M 157.425374 409.038172 
L 43.424056 435.975069 
" clip-path="url(#pf7191df22d)" style="fill: #ffffff"/>
    <path d="M 158.09307 410.817183 
L 56.250649 464.625748 
" clip-path="url(#pf7191df22d)" style="fill: #ffffff"/>
    <path d="M 159.423531 412.619266 
L 89.914622 482.192322 
" clip-path="url(#pf7191df22d)" style="stroke: #000000; stroke-width: 0.740741"/>
    <path d="M 161.664876 414.161103 
L 131.406221 481.883955 
" clip-path="url(#pf7191df22d)" style="fill: #ffffff"/>
    <path d="M 164.724385 414.813519 
L 164.724385 457.826481 
" clip-path="url(#pf7191df22d)" style="fill: #ffffff"/>
    <path d="M 131.834892 388.306154 
C 150.446394 366.719461 124.007476 360.164298 130.378974 387.945179 
C 124.007476 360.164298 150.446394 366.719461 131.834892 388.306154 
" clip-path="url(#pf7191df22d)" style="fill: #ffffff"/>
    <path d="M 129.294319 389.386528 
L 90.354451 389.386528 
" clip-path="url(#pf7191df22d)" style="fill: #e1e1e1; stroke: #e1e1e1; stroke-width: 0.08642"/>
    <path d="M 129.334517 389.731459 
L 62.223397 405.588866 
" clip-path="url(#pf7191df22d)" style="fill: #ffffff"/>
    <path d="M 129.468056 390.087261 
L 43.290517 435.619267 
" clip-path="url(#pf7191df22d)" style="fill: #ffffff"/>
    <path d="M 129.734149 390.447678 
L 55.984556 464.265331 
" clip-path="url(#pf7191df22d)" style="fill: #ffffff"/>
    <path d="M 130.182418 390.756045 
L 89.466353 481.883955 
" clip-path="url(#pf7191df22d)" style="fill: #ffffff"/>
    <path d="M 130.794319 390.886528 
L 130.794319 481.753472 
" clip-path="url(#pf7191df22d)" style="fill: #ffffff"/>
    <path d="M 131.406221 390.756045 
L 161.664876 458.478897 
" clip-path="url(#pf7191df22d)" style="fill: #ffffff"/>
    <path d="M 89.269797 387.945179 
C 95.641295 360.164298 69.202377 366.719461 87.813879 388.306154 
C 69.202377 366.719461 95.641295 360.164298 89.269797 387.945179 
" clip-path="url(#pf7191df22d)" style="fill: #ffffff"/>
    <path d="M 87.528188 390.087261 
L 61.555701 403.809856 
" clip-path="url(#pf7191df22d)" style="fill: #ffffff"/>
    <path d="M 87.794281 390.447678 
L 43.024424 435.258851 
" clip-path="url(#pf7191df22d)" style="fill: #ffffff"/>
    <path d="M 88.24255 390.756045 
L 55.536287 463.956964 
" clip-path="url(#pf7191df22d)" style="fill: #ffffff"/>
    <path d="M 88.854451 390.886528 
L 88.854451 481.753472 
" clip-path="url(#pf7191df22d)" style="fill: #ffffff"/>
    <path d="M 89.466353 390.756045 
L 130.182418 481.883955 
" clip-path="url(#pf7191df22d)" style="fill: #b8b8b8; stroke: #b8b8b8; stroke-width: 0.160494"/>
    <path d="M 89.914622 390.447678 
L 159.423531 460.020734 
" clip-path="url(#pf7191df22d)" style="fill: #ffffff"/>
    <path d="M 52.745708 400.136935 
C 44.719243 379.102616 26.102853 398.9877 47.619942 405.612018 
C 26.102853 398.9877 44.719243 379.102616 52.745708 400.136935 
" clip-path="url(#pf7191df22d)" style="fill: #ffffff"/>
    <path d="M 51.864876 414.161103 
L 42.576155 434.950483 
" clip-path="url(#pf7191df22d)" style="fill: #ffffff"/>
    <path d="M 54.924386 414.813519 
L 54.924386 463.826481 
" clip-path="url(#pf7191df22d)" style="fill: #ffffff"/>
    <path d="M 57.983895 414.161103 
L 88.24255 481.883955 
" clip-path="url(#pf7191df22d)" style="fill: #ffffff"/>
    <path d="M 60.22524 412.619266 
L 129.734149 482.192322 
" clip-path="url(#pf7191df22d)" style="fill: #ffffff"/>
    <path d="M 61.555701 410.817183 
L 158.09307 461.822817 
" clip-path="url(#pf7191df22d)" style="stroke: #000000; stroke-width: 0.530864"/>
    <path d="M 40.665215 435.57 
C 15.234058 422.700285 15.234058 449.939715 40.665215 437.07 
C 15.234058 449.939715 15.234058 422.700285 40.665215 435.57 
" clip-path="url(#pf7191df22d)" style="fill: #ffffff"/>
    <path d="M 42.576155 437.689517 
L 54.312484 463.956964 
" clip-path="url(#pf7191df22d)" style="fill: #ffffff"/>
    <path d="M 43.024424 437.381149 
L 87.794281 482.192322 
" clip-path="url(#pf7191df22d)" style="fill: #ffffff"/>
    <path d="M 43.290517 437.020733 
L 129.468056 482.552739 
" clip-path="url(#pf7191df22d)" style="fill: #ffffff"/>
    <path d="M 43.424056 436.664931 
L 157.425374 463.601828 
" clip-path="url(#pf7191df22d)" style="fill: #ffffff"/>
    <path d="M 53.463497 465.666781 
C 26.102853 473.6523 44.719243 493.537384 54.48865 466.761798 
C 44.719243 493.537384 26.102853 473.6523 53.463497 465.666781 
" clip-path="url(#pf7191df22d)" style="fill: #ffffff"/>
    <path d="M 56.250649 466.027213 
L 87.528188 482.552739 
" clip-path="url(#pf7191df22d)" style="fill: #ffffff"/>
    <path d="M 56.384188 465.671411 
L 129.334517 482.908541 
" clip-path="url(#pf7191df22d)" style="fill: #ffffff"/>
    <path d="M 56.424386 465.326481 
L 157.224385 465.326481 
" clip-path="url(#pf7191df22d)" style="stroke: #000000; stroke-width: 0.469136"/>
    <path d="M 87.813879 484.333846 
C 69.202377 505.920539 95.641295 512.475702 89.269797 484.694821 
C 95.641295 512.475702 69.202377 505.920539 87.813879 484.333846 
" clip-path="url(#pf7191df22d)" style="fill: #ffffff"/>
    <path d="M 90.354451 483.253472 
L 129.294319 483.253472 
" clip-path="url(#pf7191df22d)" style="fill: #ffffff"/>
    <path d="M 90.314254 482.908541 
L 157.425374 467.051134 
" clip-path="url(#pf7191df22d)" style="fill: #ffffff"/>
    <path d="M 130.378974 484.694821 
C 124.007476 512.475702 150.446394 505.920539 131.834892 484.333846 
C 150.446394 505.920539 124.007476 512.475702 130.378974 484.694821 
" clip-path="url(#pf7191df22d)" style="fill: #ffffff"/>
    <path d="M 132.120582 482.552739 
L 158.09307 468.830144 
" clip-path="url(#pf7191df22d)" style="fill: #ffffff"/>
    <path d="M 166.903063 472.503065 
C 174.929528 493.537384 193.545918 473.6523 172.028829 467.027982 
C 193.545918 473.6523 174.929528 493.537384 166.903063 472.503065 
" clip-path="url(#pf7191df22d)" style="fill: #ffffff"/>
   </g>
   <g id="VertexCollection_3">
    <path d="M 177.684517 443.82 
C 179.67354 443.82 181.581366 443.029753 182.987818 441.623301 
C 184.39427 440.216849 185.184517 438.309023 185.184517 436.32 
C 185.184517 434.330977 184.39427 432.423151 182.987818 431.016699 
C 181.581366 429.610247 179.67354 428.82 177.684517 428.82 
C 175.695494 428.82 173.787668 429.610247 172.381216 431.016699 
C 170.974765 432.423151 170.184517 434.330977 170.184517 436.32 
C 170.184517 438.309023 170.974765 440.216849 172.381216 441.623301 
C 173.787668 443.029753 175.695494 443.82 177.684517 443.82 
z
" clip-path="url(#pf7191df22d)" style="fill: #6b010e; stroke: #00ff00; stroke-width: 3"/>
    <path d="M 164.724385 414.813519 
C 166.713409 414.813519 168.621234 414.023272 170.027686 412.61682 
C 171.434138 411.210368 172.224385 409.302543 172.224385 407.313519 
C 172.224385 405.324496 171.434138 403.41667 170.027686 402.010218 
C 168.621234 400.603767 166.713409 399.813519 164.724385 399.813519 
C 162.735362 399.813519 160.827536 400.603767 159.421084 402.010218 
C 158.014633 403.41667 157.224385 405.324496 157.224385 407.313519 
C 157.224385 409.302543 158.014633 411.210368 159.421084 412.61682 
C 160.827536 414.023272 162.735362 414.813519 164.724385 414.813519 
z
" clip-path="url(#pf7191df22d)" style="fill: #6b010e; stroke: #00ff00; stroke-width: 3"/>
    <path d="M 130.794319 390.886528 
C 131.192124 390.886528 131.573689 390.728479 131.85498 390.447189 
C 132.13627 390.165898 132.294319 389.784333 132.294319 389.386528 
C 132.294319 388.988724 132.13627 388.607159 131.85498 388.325868 
C 131.573689 388.044578 131.192124 387.886528 130.794319 387.886528 
C 130.396515 387.886528 130.01495 388.044578 129.733659 388.325868 
C 129.452369 388.607159 129.294319 388.988724 129.294319 389.386528 
C 129.294319 389.784333 129.452369 390.165898 129.733659 390.447189 
C 130.01495 390.728479 130.396515 390.886528 130.794319 390.886528 
z
" clip-path="url(#pf7191df22d)" style="fill: #fdcab5; stroke: #00ff00; stroke-width: 3"/>
    <path d="M 88.854451 390.886528 
C 89.252256 390.886528 89.633821 390.728479 89.915112 390.447189 
C 90.196402 390.165898 90.354451 389.784333 90.354451 389.386528 
C 90.354451 388.988724 90.196402 388.607159 89.915112 388.325868 
C 89.633821 388.044578 89.252256 387.886528 88.854451 387.886528 
C 88.456647 387.886528 88.075082 388.044578 87.793791 388.325868 
C 87.512501 388.607159 87.354451 388.988724 87.354451 389.386528 
C 87.354451 389.784333 87.512501 390.165898 87.793791 390.447189 
C 88.075082 390.728479 88.456647 390.886528 88.854451 390.886528 
z
" clip-path="url(#pf7191df22d)" style="fill: #fdcab5; stroke: #00ff00; stroke-width: 3"/>
    <path d="M 54.924386 414.813519 
C 56.913409 414.813519 58.821235 414.023272 60.227686 412.61682 
C 61.634138 411.210368 62.424386 409.302543 62.424386 407.313519 
C 62.424386 405.324496 61.634138 403.41667 60.227686 402.010218 
C 58.821235 400.603767 56.913409 399.813519 54.924386 399.813519 
C 52.935362 399.813519 51.027536 400.603767 49.621085 402.010218 
C 48.214633 403.41667 47.424386 405.324496 47.424386 407.313519 
C 47.424386 409.302543 48.214633 411.210368 49.621085 412.61682 
C 51.027536 414.023272 52.935362 414.813519 54.924386 414.813519 
z
" clip-path="url(#pf7191df22d)" style="fill: #6b010e; stroke: #00ff00; stroke-width: 3"/>
    <path d="M 41.964254 437.82 
C 42.362058 437.82 42.743623 437.661951 43.024914 437.38066 
C 43.306204 437.09937 43.464254 436.717805 43.464254 436.32 
C 43.464254 435.922195 43.306204 435.54063 43.024914 435.25934 
C 42.743623 434.978049 42.362058 434.82 41.964254 434.82 
C 41.566449 434.82 41.184884 434.978049 40.903593 435.25934 
C 40.622303 435.54063 40.464254 435.922195 40.464254 436.32 
C 40.464254 436.717805 40.622303 437.09937 40.903593 437.38066 
C 41.184884 437.661951 41.566449 437.82 41.964254 437.82 
z
" clip-path="url(#pf7191df22d)" style="fill: #fdcab5; stroke: #00ff00; stroke-width: 3"/>
    <path d="M 54.924386 466.826481 
C 55.32219 466.826481 55.703755 466.668431 55.985046 466.387141 
C 56.266336 466.10585 56.424386 465.724285 56.424386 465.326481 
C 56.424386 464.928676 56.266336 464.547111 55.985046 464.26582 
C 55.703755 463.98453 55.32219 463.826481 54.924386 463.826481 
C 54.526581 463.826481 54.145016 463.98453 53.863725 464.26582 
C 53.582435 464.547111 53.424386 464.928676 53.424386 465.326481 
C 53.424386 465.724285 53.582435 466.10585 53.863725 466.387141 
C 54.145016 466.668431 54.526581 466.826481 54.924386 466.826481 
z
" clip-path="url(#pf7191df22d)" style="fill: #fdcab5; stroke: #00ff00; stroke-width: 3"/>
    <path d="M 88.854451 484.753472 
C 89.252256 484.753472 89.633821 484.595422 89.915112 484.314132 
C 90.196402 484.032841 90.354451 483.651276 90.354451 483.253472 
C 90.354451 482.855667 90.196402 482.474102 89.915112 482.192811 
C 89.633821 481.911521 89.252256 481.753472 88.854451 481.753472 
C 88.456647 481.753472 88.075082 481.911521 87.793791 482.192811 
C 87.512501 482.474102 87.354451 482.855667 87.354451 483.253472 
C 87.354451 483.651276 87.512501 484.032841 87.793791 484.314132 
C 88.075082 484.595422 88.456647 484.753472 88.854451 484.753472 
z
" clip-path="url(#pf7191df22d)" style="fill: #fdcab5; stroke: #ff0000; stroke-width: 3"/>
    <path d="M 130.794319 484.753472 
C 131.192124 484.753472 131.573689 484.595422 131.85498 484.314132 
C 132.13627 484.032841 132.294319 483.651276 132.294319 483.253472 
C 132.294319 482.855667 132.13627 482.474102 131.85498 482.192811 
C 131.573689 481.911521 131.192124 481.753472 130.794319 481.753472 
C 130.396515 481.753472 130.01495 481.911521 129.733659 482.192811 
C 129.452369 482.474102 129.294319 482.855667 129.294319 483.253472 
C 129.294319 483.651276 129.452369 484.032841 129.733659 484.314132 
C 130.01495 484.595422 130.396515 484.753472 130.794319 484.753472 
z
" clip-path="url(#pf7191df22d)" style="fill: #fdcab5; stroke: #00ff00; stroke-width: 3"/>
    <path d="M 164.724385 472.826481 
C 166.713409 472.826481 168.621234 472.036233 170.027686 470.629782 
C 171.434138 469.22333 172.224385 467.315504 172.224385 465.326481 
C 172.224385 463.337457 171.434138 461.429632 170.027686 460.02318 
C 168.621234 458.616728 166.713409 457.826481 164.724385 457.826481 
C 162.735362 457.826481 160.827536 458.616728 159.421084 460.02318 
C 158.014633 461.429632 157.224385 463.337457 157.224385 465.326481 
C 157.224385 467.315504 158.014633 469.22333 159.421084 470.629782 
C 160.827536 472.036233 162.735362 472.826481 164.724385 472.826481 
z
" clip-path="url(#pf7191df22d)" style="fill: #6b010e; stroke: #00ff00; stroke-width: 3"/>
   </g>
   <g id="matplotlib.axis_5"/>
   <g id="matplotlib.axis_6"/>
  </g>
  <g id="axes_4">
   <g id="patch_5">
    <path d="M 27 631.315862 
L 194.4 631.315862 
L 194.4 516.612414 
L 27 516.612414 
z
" style="fill: #ffffff"/>
   </g>
   <g id="EdgeCollection_4">
    <path d="M 184.179708 576.802712 
C 204.414713 586.672427 204.414713 559.432997 184.179708 569.302712 
C 204.414713 559.432997 204.414713 586.672427 184.179708 576.802712 
" clip-path="url(#pb666a84f3b)" style="fill: #ffffff"/>
    <path d="M 174.57525 566.227578 
L 167.833652 551.429136 
" clip-path="url(#pb666a84f3b)" style="stroke: #000000; stroke-width: 2"/>
    <path d="M 172.332407 567.798674 
L 131.864741 528.072539 
" clip-path="url(#pb666a84f3b)" style="fill: #ffffff"/>
    <path d="M 171.025468 569.60205 
L 90.186261 527.711864 
" clip-path="url(#pb666a84f3b)" style="fill: #ffffff"/>
    <path d="M 170.378144 571.359517 
L 62.230759 546.297197 
" clip-path="url(#pb666a84f3b)" style="stroke: #000000; stroke-width: 1.699187"/>
    <path d="M 170.184517 573.052712 
L 43.464254 573.052712 
" clip-path="url(#pb666a84f3b)" style="fill: #ffffff"/>
    <path d="M 170.378144 574.745908 
L 56.38566 601.162784 
" clip-path="url(#pb666a84f3b)" style="fill: #ffffff"/>
    <path d="M 171.025468 576.503375 
L 95.5135 615.633031 
" clip-path="url(#pb666a84f3b)" style="stroke: #000000; stroke-width: 1.439024"/>
    <path d="M 172.332407 578.30675 
L 131.864741 618.032886 
" clip-path="url(#pb666a84f3b)" style="fill: #ffffff"/>
    <path d="M 174.57525 579.877847 
L 165.346239 600.136396 
" clip-path="url(#pb666a84f3b)" style="fill: #ffffff"/>
    <path d="M 172.015639 542.846838 
C 193.481578 536.058601 174.714065 516.316084 166.848264 537.411009 
C 174.714065 516.316084 193.481578 536.058601 172.015639 542.846838 
" clip-path="url(#pb666a84f3b)" style="fill: #ffffff"/>
    <path d="M 158.065336 541.15334 
L 132.126129 527.711864 
" clip-path="url(#pb666a84f3b)" style="fill: #ffffff"/>
    <path d="M 157.418012 542.910806 
L 90.315726 527.360371 
" clip-path="url(#pb666a84f3b)" style="fill: #ffffff"/>
    <path d="M 157.224385 544.604002 
L 62.424386 544.604002 
" clip-path="url(#pb666a84f3b)" style="stroke: #000000; stroke-width: 0.691057"/>
    <path d="M 157.418012 546.297197 
L 43.425528 572.714073 
" clip-path="url(#pb666a84f3b)" style="fill: #ffffff"/>
    <path d="M 158.065336 548.054664 
L 56.256195 600.811291 
" clip-path="url(#pb666a84f3b)" style="fill: #ffffff"/>
    <path d="M 159.372275 549.85804 
L 94.206562 613.829655 
" clip-path="url(#pb666a84f3b)" style="stroke: #000000; stroke-width: 1.154472"/>
    <path d="M 161.615118 551.429136 
L 131.416173 617.718666 
" clip-path="url(#pb666a84f3b)" style="fill: #ffffff"/>
    <path d="M 164.724385 552.104002 
L 164.724385 600.001423 
" clip-path="url(#pb666a84f3b)" style="fill: #ffffff"/>
    <path d="M 131.830575 525.937216 
C 150.355843 504.276473 123.890994 497.826799 130.373229 525.58205 
C 123.890994 497.826799 150.355843 504.276473 131.830575 525.937216 
" clip-path="url(#pb666a84f3b)" style="fill: #ffffff"/>
    <path d="M 129.294319 527.021732 
L 90.354451 527.021732 
" clip-path="url(#pb666a84f3b)" style="fill: #efefef; stroke: #efefef; stroke-width: 0.056911"/>
    <path d="M 129.333045 527.360371 
L 62.230759 542.910806 
" clip-path="url(#pb666a84f3b)" style="fill: #ffffff"/>
    <path d="M 129.46251 527.711864 
L 43.296063 572.36258 
" clip-path="url(#pb666a84f3b)" style="fill: #ffffff"/>
    <path d="M 129.723897 528.072539 
L 55.994808 600.450616 
" clip-path="url(#pb666a84f3b)" style="fill: #ffffff"/>
    <path d="M 130.172466 528.386758 
L 91.963719 612.258559 
" clip-path="url(#pb666a84f3b)" style="fill: #ffffff"/>
    <path d="M 130.794319 528.521732 
L 130.794319 617.583693 
" clip-path="url(#pb666a84f3b)" style="fill: #ffffff"/>
    <path d="M 131.416173 528.386758 
L 164.102532 600.136396 
" clip-path="url(#pb666a84f3b)" style="fill: #ffffff"/>
    <path d="M 89.275542 525.58205 
C 95.757777 497.826799 69.292927 504.276473 87.818196 525.937216 
C 69.292927 504.276473 95.757777 497.826799 89.275542 525.58205 
" clip-path="url(#pb666a84f3b)" style="fill: #ffffff"/>
    <path d="M 87.522642 527.711864 
L 61.583434 541.15334 
" clip-path="url(#pb666a84f3b)" style="fill: #ffffff"/>
    <path d="M 87.784029 528.072539 
L 43.034676 572.001905 
" clip-path="url(#pb666a84f3b)" style="fill: #ffffff"/>
    <path d="M 88.232598 528.386758 
L 55.546239 600.136396 
" clip-path="url(#pb666a84f3b)" style="fill: #ffffff"/>
    <path d="M 88.854451 528.521732 
L 88.854451 611.583693 
" clip-path="url(#pb666a84f3b)" style="fill: #ffffff"/>
    <path d="M 89.476305 528.386758 
L 130.172466 617.718666 
" clip-path="url(#pb666a84f3b)" style="fill: #ffffff"/>
    <path d="M 89.924873 528.072539 
L 163.653963 600.450616 
" clip-path="url(#pb666a84f3b)" style="fill: #ffffff"/>
    <path d="M 52.800507 537.411009 
C 44.934706 516.316084 26.167193 536.058601 47.633132 542.846838 
C 26.167193 536.058601 44.934706 516.316084 52.800507 537.411009 
" clip-path="url(#pb666a84f3b)" style="fill: #ffffff"/>
    <path d="M 51.815118 551.429136 
L 42.586107 571.687686 
" clip-path="url(#pb666a84f3b)" style="fill: #ffffff"/>
    <path d="M 54.924386 552.104002 
L 54.924386 600.001423 
" clip-path="url(#pb666a84f3b)" style="fill: #ffffff"/>
    <path d="M 58.033653 551.429136 
L 85.745184 612.258559 
" clip-path="url(#pb666a84f3b)" style="fill: #ffffff"/>
    <path d="M 60.276496 549.85804 
L 129.723897 618.032886 
" clip-path="url(#pb666a84f3b)" style="fill: #ffffff"/>
    <path d="M 61.583434 548.054664 
L 163.392576 600.811291 
" clip-path="url(#pb666a84f3b)" style="stroke: #000000; stroke-width: 0.96748"/>
    <path d="M 40.665215 572.302712 
C 15.234058 559.432997 15.234058 586.672427 40.665215 573.802712 
C 15.234058 586.672427 15.234058 559.432997 40.665215 572.302712 
" clip-path="url(#pb666a84f3b)" style="fill: #ffffff"/>
    <path d="M 42.586107 574.417739 
L 54.302532 600.136396 
" clip-path="url(#pb666a84f3b)" style="fill: #ffffff"/>
    <path d="M 43.034676 574.10352 
L 83.502341 613.829655 
" clip-path="url(#pb666a84f3b)" style="fill: #ffffff"/>
    <path d="M 43.296063 573.742845 
L 129.46251 618.393561 
" clip-path="url(#pb666a84f3b)" style="fill: #ffffff"/>
    <path d="M 43.425528 573.391352 
L 163.263111 601.162784 
" clip-path="url(#pb666a84f3b)" style="fill: #ffffff"/>
    <path d="M 53.466135 601.852856 
C 26.167193 610.046824 44.934706 629.789341 54.49961 602.940022 
C 44.934706 629.789341 26.167193 610.046824 53.466135 601.852856 
" clip-path="url(#pb666a84f3b)" style="fill: #ffffff"/>
    <path d="M 56.256195 602.191556 
L 82.195403 615.633031 
" clip-path="url(#pb666a84f3b)" style="stroke: #000000; stroke-width: 1.406504"/>
    <path d="M 56.38566 601.840062 
L 129.333045 618.745054 
" clip-path="url(#pb666a84f3b)" style="fill: #ffffff"/>
    <path d="M 56.424386 601.501423 
L 163.224385 601.501423 
" clip-path="url(#pb666a84f3b)" style="stroke: #000000; stroke-width: 0.796748"/>
    <path d="M 83.673174 624.506272 
C 69.292927 641.828952 95.757777 648.278626 90.959904 626.282101 
C 95.757777 648.278626 69.292927 641.828952 83.673174 624.506272 
" clip-path="url(#pb666a84f3b)" style="fill: #ffffff"/>
    <path d="M 96.354451 619.083693 
L 129.294319 619.083693 
" clip-path="url(#pb666a84f3b)" style="fill: #ffffff"/>
    <path d="M 96.160825 617.390498 
L 163.263111 601.840062 
" clip-path="url(#pb666a84f3b)" style="fill: #ffffff"/>
    <path d="M 130.373229 620.523375 
C 123.890994 648.278626 150.355843 641.828952 131.830575 620.168209 
C 150.355843 641.828952 123.890994 648.278626 130.373229 620.523375 
" clip-path="url(#pb666a84f3b)" style="fill: #ffffff"/>
    <path d="M 132.126129 618.393561 
L 163.392576 602.191556 
" clip-path="url(#pb666a84f3b)" style="fill: #ffffff"/>
    <path d="M 165.149161 602.940022 
C 174.714065 629.789341 193.481578 610.046824 166.182636 601.852856 
C 193.481578 610.046824 174.714065 629.789341 165.149161 602.940022 
" clip-path="url(#pb666a84f3b)" style="fill: #ffffff"/>
   </g>
   <g id="VertexCollection_4">
    <path d="M 177.684517 580.552712 
C 179.67354 580.552712 181.581366 579.762465 182.987818 578.356013 
C 184.39427 576.949561 185.184517 575.041736 185.184517 573.052712 
C 185.184517 571.063689 184.39427 569.155863 182.987818 567.749412 
C 181.581366 566.34296 179.67354 565.552712 177.684517 565.552712 
C 175.695494 565.552712 173.787668 566.34296 172.381216 567.749412 
C 170.974765 569.155863 170.184517 571.063689 170.184517 573.052712 
C 170.184517 575.041736 170.974765 576.949561 172.381216 578.356013 
C 173.787668 579.762465 175.695494 580.552712 177.684517 580.552712 
z
" clip-path="url(#pb666a84f3b)" style="fill: #6b010e; stroke: #00ff00; stroke-width: 3"/>
    <path d="M 164.724385 552.104002 
C 166.713409 552.104002 168.621234 551.313754 170.027686 549.907303 
C 171.434138 548.500851 172.224385 546.593025 172.224385 544.604002 
C 172.224385 542.614978 171.434138 540.707153 170.027686 539.300701 
C 168.621234 537.894249 166.713409 537.104002 164.724385 537.104002 
C 162.735362 537.104002 160.827536 537.894249 159.421084 539.300701 
C 158.014633 540.707153 157.224385 542.614978 157.224385 544.604002 
C 157.224385 546.593025 158.014633 548.500851 159.421084 549.907303 
C 160.827536 551.313754 162.735362 552.104002 164.724385 552.104002 
z
" clip-path="url(#pb666a84f3b)" style="fill: #6b010e; stroke: #00ff00; stroke-width: 3"/>
    <path d="M 130.794319 528.521732 
C 131.192124 528.521732 131.573689 528.363682 131.85498 528.082392 
C 132.13627 527.801101 132.294319 527.419536 132.294319 527.021732 
C 132.294319 526.623927 132.13627 526.242362 131.85498 525.961071 
C 131.573689 525.679781 131.192124 525.521732 130.794319 525.521732 
C 130.396515 525.521732 130.01495 525.679781 129.733659 525.961071 
C 129.452369 526.242362 129.294319 526.623927 129.294319 527.021732 
C 129.294319 527.419536 129.452369 527.801101 129.733659 528.082392 
C 130.01495 528.363682 130.396515 528.521732 130.794319 528.521732 
z
" clip-path="url(#pb666a84f3b)" style="fill: #fdcab5; stroke: #00ff00; stroke-width: 3"/>
    <path d="M 88.854451 528.521732 
C 89.252256 528.521732 89.633821 528.363682 89.915112 528.082392 
C 90.196402 527.801101 90.354451 527.419536 90.354451 527.021732 
C 90.354451 526.623927 90.196402 526.242362 89.915112 525.961071 
C 89.633821 525.679781 89.252256 525.521732 88.854451 525.521732 
C 88.456647 525.521732 88.075082 525.679781 87.793791 525.961071 
C 87.512501 526.242362 87.354451 526.623927 87.354451 527.021732 
C 87.354451 527.419536 87.512501 527.801101 87.793791 528.082392 
C 88.075082 528.363682 88.456647 528.521732 88.854451 528.521732 
z
" clip-path="url(#pb666a84f3b)" style="fill: #fdcab5; stroke: #00ff00; stroke-width: 3"/>
    <path d="M 54.924386 552.104002 
C 56.913409 552.104002 58.821235 551.313754 60.227686 549.907303 
C 61.634138 548.500851 62.424386 546.593025 62.424386 544.604002 
C 62.424386 542.614978 61.634138 540.707153 60.227686 539.300701 
C 58.821235 537.894249 56.913409 537.104002 54.924386 537.104002 
C 52.935362 537.104002 51.027536 537.894249 49.621085 539.300701 
C 48.214633 540.707153 47.424386 542.614978 47.424386 544.604002 
C 47.424386 546.593025 48.214633 548.500851 49.621085 549.907303 
C 51.027536 551.313754 52.935362 552.104002 54.924386 552.104002 
z
" clip-path="url(#pb666a84f3b)" style="fill: #6b010e; stroke: #00ff00; stroke-width: 3"/>
    <path d="M 41.964254 574.552712 
C 42.362058 574.552712 42.743623 574.394663 43.024914 574.113373 
C 43.306204 573.832082 43.464254 573.450517 43.464254 573.052712 
C 43.464254 572.654908 43.306204 572.273343 43.024914 571.992052 
C 42.743623 571.710762 42.362058 571.552712 41.964254 571.552712 
C 41.566449 571.552712 41.184884 571.710762 40.903593 571.992052 
C 40.622303 572.273343 40.464254 572.654908 40.464254 573.052712 
C 40.464254 573.450517 40.622303 573.832082 40.903593 574.113373 
C 41.184884 574.394663 41.566449 574.552712 41.964254 574.552712 
z
" clip-path="url(#pb666a84f3b)" style="fill: #fdcab5; stroke: #00ff00; stroke-width: 3"/>
    <path d="M 54.924386 603.001423 
C 55.32219 603.001423 55.703755 602.843374 55.985046 602.562083 
C 56.266336 602.280793 56.424386 601.899228 56.424386 601.501423 
C 56.424386 601.103618 56.266336 600.722053 55.985046 600.440763 
C 55.703755 600.159473 55.32219 600.001423 54.924386 600.001423 
C 54.526581 600.001423 54.145016 600.159473 53.863725 600.440763 
C 53.582435 600.722053 53.424386 601.103618 53.424386 601.501423 
C 53.424386 601.899228 53.582435 602.280793 53.863725 602.562083 
C 54.145016 602.843374 54.526581 603.001423 54.924386 603.001423 
z
" clip-path="url(#pb666a84f3b)" style="fill: #fdcab5; stroke: #00ff00; stroke-width: 3"/>
    <path d="M 88.854451 626.583693 
C 90.843475 626.583693 92.7513 625.793446 94.157752 624.386994 
C 95.564204 622.980542 96.354451 621.072717 96.354451 619.083693 
C 96.354451 617.09467 95.564204 615.186844 94.157752 613.780392 
C 92.7513 612.373941 90.843475 611.583693 88.854451 611.583693 
C 86.865428 611.583693 84.957602 612.373941 83.551151 613.780392 
C 82.144699 615.186844 81.354451 617.09467 81.354451 619.083693 
C 81.354451 621.072717 82.144699 622.980542 83.551151 624.386994 
C 84.957602 625.793446 86.865428 626.583693 88.854451 626.583693 
z
" clip-path="url(#pb666a84f3b)" style="fill: #6b010e; stroke: #ff0000; stroke-width: 3"/>
    <path d="M 130.794319 620.583693 
C 131.192124 620.583693 131.573689 620.425644 131.85498 620.144353 
C 132.13627 619.863063 132.294319 619.481498 132.294319 619.083693 
C 132.294319 618.685889 132.13627 618.304323 131.85498 618.023033 
C 131.573689 617.741743 131.192124 617.583693 130.794319 617.583693 
C 130.396515 617.583693 130.01495 617.741743 129.733659 618.023033 
C 129.452369 618.304323 129.294319 618.685889 129.294319 619.083693 
C 129.294319 619.481498 129.452369 619.863063 129.733659 620.144353 
C 130.01495 620.425644 130.396515 620.583693 130.794319 620.583693 
z
" clip-path="url(#pb666a84f3b)" style="fill: #fdcab5; stroke: #00ff00; stroke-width: 3"/>
    <path d="M 164.724385 603.001423 
C 165.12219 603.001423 165.503755 602.843374 165.785045 602.562083 
C 166.066336 602.280793 166.224385 601.899228 166.224385 601.501423 
C 166.224385 601.103618 166.066336 600.722053 165.785045 600.440763 
C 165.503755 600.159473 165.12219 600.001423 164.724385 600.001423 
C 164.326581 600.001423 163.945015 600.159473 163.663725 600.440763 
C 163.382435 600.722053 163.224385 601.103618 163.224385 601.501423 
C 163.224385 601.899228 163.382435 602.280793 163.663725 602.562083 
C 163.945015 602.843374 164.326581 603.001423 164.724385 603.001423 
z
" clip-path="url(#pb666a84f3b)" style="fill: #fdcab5; stroke: #00ff00; stroke-width: 3"/>
   </g>
   <g id="matplotlib.axis_7"/>
   <g id="matplotlib.axis_8"/>
  </g>
  <g id="axes_5">
   <g id="patch_6">
    <path d="M 27 768.96 
L 194.4 768.96 
L 194.4 654.256552 
L 27 654.256552 
z
" style="fill: #ffffff"/>
   </g>
   <g id="matplotlib.axis_9">
    <g id="xtick_1">
     <g id="line2d_1">
      <defs>
       <path id="m8bdc24bcff" d="M 0 0 
L 0 3.5 
" style="stroke: #000000; stroke-width: 0.8"/>
      </defs>
      <g>
       <use xlink:href="#m8bdc24bcff" x="27" y="768.96" style="stroke: #000000; stroke-width: 0.8"/>
      </g>
     </g>
     <g id="text_1">
      <!-- 0.0 -->
      <g transform="translate(19.048437 783.558437) scale(0.1 -0.1)">
       <defs>
        <path id="DejaVuSerif-30" d="M 2034 219 
Q 2513 219 2750 744 
Q 2988 1269 2988 2328 
Q 2988 3391 2750 3916 
Q 2513 4441 2034 4441 
Q 1556 4441 1318 3916 
Q 1081 3391 1081 2328 
Q 1081 1269 1318 744 
Q 1556 219 2034 219 
z
M 2034 -91 
Q 1275 -91 848 546 
Q 422 1184 422 2328 
Q 422 3475 848 4112 
Q 1275 4750 2034 4750 
Q 2797 4750 3222 4112 
Q 3647 3475 3647 2328 
Q 3647 1184 3222 546 
Q 2797 -91 2034 -91 
z
" transform="scale(0.015625)"/>
        <path id="DejaVuSerif-2e" d="M 603 325 
Q 603 500 722 622 
Q 841 744 1019 744 
Q 1191 744 1312 622 
Q 1434 500 1434 325 
Q 1434 153 1312 31 
Q 1191 -91 1019 -91 
Q 841 -91 722 29 
Q 603 150 603 325 
z
" transform="scale(0.015625)"/>
       </defs>
       <use xlink:href="#DejaVuSerif-30"/>
       <use xlink:href="#DejaVuSerif-2e" x="63.623047"/>
       <use xlink:href="#DejaVuSerif-30" x="95.410156"/>
      </g>
     </g>
    </g>
    <g id="xtick_2">
     <g id="line2d_2">
      <g>
       <use xlink:href="#m8bdc24bcff" x="60.48" y="768.96" style="stroke: #000000; stroke-width: 0.8"/>
      </g>
     </g>
     <g id="text_2">
      <!-- 0.2 -->
      <g transform="translate(52.528438 783.558437) scale(0.1 -0.1)">
       <defs>
        <path id="DejaVuSerif-32" d="M 819 3553 
L 469 3553 
L 469 4384 
Q 803 4563 1142 4656 
Q 1481 4750 1806 4750 
Q 2534 4750 2956 4397 
Q 3378 4044 3378 3438 
Q 3378 2753 2422 1800 
Q 2347 1728 2309 1691 
L 1131 513 
L 3078 513 
L 3078 1088 
L 3444 1088 
L 3444 0 
L 434 0 
L 434 341 
L 1850 1753 
Q 2319 2222 2519 2614 
Q 2719 3006 2719 3438 
Q 2719 3909 2473 4175 
Q 2228 4441 1797 4441 
Q 1350 4441 1106 4219 
Q 863 3997 819 3553 
z
" transform="scale(0.015625)"/>
       </defs>
       <use xlink:href="#DejaVuSerif-30"/>
       <use xlink:href="#DejaVuSerif-2e" x="63.623047"/>
       <use xlink:href="#DejaVuSerif-32" x="95.410156"/>
      </g>
     </g>
    </g>
    <g id="xtick_3">
     <g id="line2d_3">
      <g>
       <use xlink:href="#m8bdc24bcff" x="93.96" y="768.96" style="stroke: #000000; stroke-width: 0.8"/>
      </g>
     </g>
     <g id="text_3">
      <!-- 0.4 -->
      <g transform="translate(86.008438 783.558437) scale(0.1 -0.1)">
       <defs>
        <path id="DejaVuSerif-34" d="M 2234 1581 
L 2234 4063 
L 641 1581 
L 2234 1581 
z
M 3609 0 
L 1484 0 
L 1484 331 
L 2234 331 
L 2234 1247 
L 197 1247 
L 197 1588 
L 2241 4750 
L 2859 4750 
L 2859 1581 
L 3750 1581 
L 3750 1247 
L 2859 1247 
L 2859 331 
L 3609 331 
L 3609 0 
z
" transform="scale(0.015625)"/>
       </defs>
       <use xlink:href="#DejaVuSerif-30"/>
       <use xlink:href="#DejaVuSerif-2e" x="63.623047"/>
       <use xlink:href="#DejaVuSerif-34" x="95.410156"/>
      </g>
     </g>
    </g>
    <g id="xtick_4">
     <g id="line2d_4">
      <g>
       <use xlink:href="#m8bdc24bcff" x="127.44" y="768.96" style="stroke: #000000; stroke-width: 0.8"/>
      </g>
     </g>
     <g id="text_4">
      <!-- 0.6 -->
      <g transform="translate(119.488438 783.558437) scale(0.1 -0.1)">
       <defs>
        <path id="DejaVuSerif-36" d="M 2094 219 
Q 2534 219 2771 542 
Q 3009 866 3009 1472 
Q 3009 2078 2771 2401 
Q 2534 2725 2094 2725 
Q 1647 2725 1412 2412 
Q 1178 2100 1178 1509 
Q 1178 888 1415 553 
Q 1653 219 2094 219 
z
M 1075 2569 
Q 1288 2803 1556 2918 
Q 1825 3034 2163 3034 
Q 2859 3034 3264 2615 
Q 3669 2197 3669 1472 
Q 3669 763 3233 336 
Q 2797 -91 2069 -91 
Q 1278 -91 853 498 
Q 428 1088 428 2181 
Q 428 3406 931 4078 
Q 1434 4750 2350 4750 
Q 2597 4750 2869 4703 
Q 3141 4656 3425 4563 
L 3425 3794 
L 3072 3794 
Q 3034 4109 2831 4275 
Q 2628 4441 2284 4441 
Q 1678 4441 1381 3981 
Q 1084 3522 1075 2569 
z
" transform="scale(0.015625)"/>
       </defs>
       <use xlink:href="#DejaVuSerif-30"/>
       <use xlink:href="#DejaVuSerif-2e" x="63.623047"/>
       <use xlink:href="#DejaVuSerif-36" x="95.410156"/>
      </g>
     </g>
    </g>
    <g id="xtick_5">
     <g id="line2d_5">
      <g>
       <use xlink:href="#m8bdc24bcff" x="160.92" y="768.96" style="stroke: #000000; stroke-width: 0.8"/>
      </g>
     </g>
     <g id="text_5">
      <!-- 0.8 -->
      <g transform="translate(152.968438 783.558437) scale(0.1 -0.1)">
       <defs>
        <path id="DejaVuSerif-38" d="M 2981 1275 
Q 2981 1775 2732 2051 
Q 2484 2328 2034 2328 
Q 1584 2328 1336 2051 
Q 1088 1775 1088 1275 
Q 1088 772 1336 495 
Q 1584 219 2034 219 
Q 2484 219 2732 495 
Q 2981 772 2981 1275 
z
M 2853 3541 
Q 2853 3966 2637 4203 
Q 2422 4441 2034 4441 
Q 1650 4441 1433 4203 
Q 1216 3966 1216 3541 
Q 1216 3113 1433 2875 
Q 1650 2638 2034 2638 
Q 2422 2638 2637 2875 
Q 2853 3113 2853 3541 
z
M 2516 2484 
Q 3047 2413 3344 2092 
Q 3641 1772 3641 1275 
Q 3641 619 3225 264 
Q 2809 -91 2034 -91 
Q 1263 -91 845 264 
Q 428 619 428 1275 
Q 428 1772 725 2092 
Q 1022 2413 1556 2484 
Q 1084 2569 832 2842 
Q 581 3116 581 3541 
Q 581 4103 968 4426 
Q 1356 4750 2034 4750 
Q 2713 4750 3100 4426 
Q 3488 4103 3488 3541 
Q 3488 3116 3236 2842 
Q 2984 2569 2516 2484 
z
" transform="scale(0.015625)"/>
       </defs>
       <use xlink:href="#DejaVuSerif-30"/>
       <use xlink:href="#DejaVuSerif-2e" x="63.623047"/>
       <use xlink:href="#DejaVuSerif-38" x="95.410156"/>
      </g>
     </g>
    </g>
    <g id="xtick_6">
     <g id="line2d_6">
      <g>
       <use xlink:href="#m8bdc24bcff" x="194.4" y="768.96" style="stroke: #000000; stroke-width: 0.8"/>
      </g>
     </g>
     <g id="text_6">
      <!-- 1.0 -->
      <g transform="translate(186.448438 783.558437) scale(0.1 -0.1)">
       <defs>
        <path id="DejaVuSerif-31" d="M 909 0 
L 909 331 
L 1722 331 
L 1722 4213 
L 781 3603 
L 781 4013 
L 1919 4750 
L 2350 4750 
L 2350 331 
L 3163 331 
L 3163 0 
L 909 0 
z
" transform="scale(0.015625)"/>
       </defs>
       <use xlink:href="#DejaVuSerif-31"/>
       <use xlink:href="#DejaVuSerif-2e" x="63.623047"/>
       <use xlink:href="#DejaVuSerif-30" x="95.410156"/>
      </g>
     </g>
    </g>
   </g>
   <g id="matplotlib.axis_10">
    <g id="ytick_1">
     <g id="line2d_7">
      <defs>
       <path id="me0a2fc9cd0" d="M 0 0 
L -3.5 0 
" style="stroke: #000000; stroke-width: 0.8"/>
      </defs>
      <g>
       <use xlink:href="#me0a2fc9cd0" x="27" y="768.96" style="stroke: #000000; stroke-width: 0.8"/>
      </g>
     </g>
     <g id="text_7">
      <!-- 0.0 -->
      <g transform="translate(4.096875 772.759219) scale(0.1 -0.1)">
       <use xlink:href="#DejaVuSerif-30"/>
       <use xlink:href="#DejaVuSerif-2e" x="63.623047"/>
       <use xlink:href="#DejaVuSerif-30" x="95.410156"/>
      </g>
     </g>
    </g>
    <g id="ytick_2">
     <g id="line2d_8">
      <g>
       <use xlink:href="#me0a2fc9cd0" x="27" y="746.01931" style="stroke: #000000; stroke-width: 0.8"/>
      </g>
     </g>
     <g id="text_8">
      <!-- 0.2 -->
      <g transform="translate(4.096875 749.818529) scale(0.1 -0.1)">
       <use xlink:href="#DejaVuSerif-30"/>
       <use xlink:href="#DejaVuSerif-2e" x="63.623047"/>
       <use xlink:href="#DejaVuSerif-32" x="95.410156"/>
      </g>
     </g>
    </g>
    <g id="ytick_3">
     <g id="line2d_9">
      <g>
       <use xlink:href="#me0a2fc9cd0" x="27" y="723.078621" style="stroke: #000000; stroke-width: 0.8"/>
      </g>
     </g>
     <g id="text_9">
      <!-- 0.4 -->
      <g transform="translate(4.096875 726.877839) scale(0.1 -0.1)">
       <use xlink:href="#DejaVuSerif-30"/>
       <use xlink:href="#DejaVuSerif-2e" x="63.623047"/>
       <use xlink:href="#DejaVuSerif-34" x="95.410156"/>
      </g>
     </g>
    </g>
    <g id="ytick_4">
     <g id="line2d_10">
      <g>
       <use xlink:href="#me0a2fc9cd0" x="27" y="700.137931" style="stroke: #000000; stroke-width: 0.8"/>
      </g>
     </g>
     <g id="text_10">
      <!-- 0.6 -->
      <g transform="translate(4.096875 703.93715) scale(0.1 -0.1)">
       <use xlink:href="#DejaVuSerif-30"/>
       <use xlink:href="#DejaVuSerif-2e" x="63.623047"/>
       <use xlink:href="#DejaVuSerif-36" x="95.410156"/>
      </g>
     </g>
    </g>
    <g id="ytick_5">
     <g id="line2d_11">
      <g>
       <use xlink:href="#me0a2fc9cd0" x="27" y="677.197241" style="stroke: #000000; stroke-width: 0.8"/>
      </g>
     </g>
     <g id="text_11">
      <!-- 0.8 -->
      <g transform="translate(4.096875 680.99646) scale(0.1 -0.1)">
       <use xlink:href="#DejaVuSerif-30"/>
       <use xlink:href="#DejaVuSerif-2e" x="63.623047"/>
       <use xlink:href="#DejaVuSerif-38" x="95.410156"/>
      </g>
     </g>
    </g>
    <g id="ytick_6">
     <g id="line2d_12">
      <g>
       <use xlink:href="#me0a2fc9cd0" x="27" y="654.256552" style="stroke: #000000; stroke-width: 0.8"/>
      </g>
     </g>
     <g id="text_12">
      <!-- 1.0 -->
      <g transform="translate(4.096875 658.05577) scale(0.1 -0.1)">
       <use xlink:href="#DejaVuSerif-31"/>
       <use xlink:href="#DejaVuSerif-2e" x="63.623047"/>
       <use xlink:href="#DejaVuSerif-30" x="95.410156"/>
      </g>
     </g>
    </g>
   </g>
   <g id="patch_7">
    <path d="M 27 768.96 
L 27 654.256552 
" style="fill: none; stroke: #000000; stroke-width: 0.8; stroke-linejoin: miter; stroke-linecap: square"/>
   </g>
   <g id="patch_8">
    <path d="M 194.4 768.96 
L 194.4 654.256552 
" style="fill: none; stroke: #000000; stroke-width: 0.8; stroke-linejoin: miter; stroke-linecap: square"/>
   </g>
   <g id="patch_9">
    <path d="M 27 768.96 
L 194.4 768.96 
" style="fill: none; stroke: #000000; stroke-width: 0.8; stroke-linejoin: miter; stroke-linecap: square"/>
   </g>
   <g id="patch_10">
    <path d="M 27 654.256552 
L 194.4 654.256552 
" style="fill: none; stroke: #000000; stroke-width: 0.8; stroke-linejoin: miter; stroke-linecap: square"/>
   </g>
  </g>
 </g>
 <defs>
  <clipPath id="p5492e48f79">
   <rect x="27" y="103.68" width="167.4" height="114.703448"/>
  </clipPath>
  <clipPath id="pbe67782478">
   <rect x="27" y="241.324138" width="167.4" height="114.703448"/>
  </clipPath>
  <clipPath id="pf7191df22d">
   <rect x="27" y="378.968276" width="167.4" height="114.703448"/>
  </clipPath>
  <clipPath id="pb666a84f3b">
   <rect x="27" y="516.612414" width="167.4" height="114.703448"/>
  </clipPath>
 </defs>
</svg>
