<?xml version="1.0" encoding="utf-8" standalone="no"?>
<!DOCTYPE svg PUBLIC "-//W3C//DTD SVG 1.1//EN"
  "http://www.w3.org/Graphics/SVG/1.1/DTD/svg11.dtd">
<svg xmlns:xlink="http://www.w3.org/1999/xlink" width="144pt" height="144pt" viewBox="0 0 144 144" xmlns="http://www.w3.org/2000/svg" version="1.1">
 <metadata>
  <rdf:RDF xmlns:dc="http://purl.org/dc/elements/1.1/" xmlns:cc="http://creativecommons.org/ns#" xmlns:rdf="http://www.w3.org/1999/02/22-rdf-syntax-ns#">
   <cc:Work>
    <dc:type rdf:resource="http://purl.org/dc/dcmitype/StillImage"/>
    <dc:date>2025-06-03T17:18:18.013447</dc:date>
    <dc:format>image/svg+xml</dc:format>
    <dc:creator>
     <cc:Agent>
      <dc:title>Matplotlib v3.9.2, https://matplotlib.org/</dc:title>
     </cc:Agent>
    </dc:creator>
   </cc:Work>
  </rdf:RDF>
 </metadata>
 <defs>
  <style type="text/css">*{stroke-linejoin: round; stroke-linecap: butt}</style>
 </defs>
 <g id="figure_1">
  <g id="patch_1">
   <path d="M 0 144 
L 144 144 
L 144 0 
L 0 0 
z
" style="fill: #ffffff"/>
  </g>
  <g id="axes_1">
   <g id="patch_2">
    <path d="M 18 128.16 
L 129.6 128.16 
L 129.6 17.28 
L 18 17.28 
z
" style="fill: #ffffff"/>
   </g>
   <g id="matplotlib.axis_1">
    <g id="xtick_1">
     <g id="line2d_1">
      <defs>
       <path id="mf3399e119a" d="M 0 0 
L 0 3.5 
" style="stroke: #000000; stroke-width: 0.8"/>
      </defs>
      <g>
       <use xlink:href="#mf3399e119a" x="18" y="128.16" style="stroke: #000000; stroke-width: 0.8"/>
      </g>
     </g>
     <g id="text_1">
      <!-- 0.0 -->
      <g transform="translate(10.048437 142.758438) scale(0.1 -0.1)">
       <defs>
        <path id="DejaVuSerif-30" d="M 2034 219 
Q 2513 219 2750 744 
Q 2988 1269 2988 2328 
Q 2988 3391 2750 3916 
Q 2513 4441 2034 4441 
Q 1556 4441 1318 3916 
Q 1081 3391 1081 2328 
Q 1081 1269 1318 744 
Q 1556 219 2034 219 
z
M 2034 -91 
Q 1275 -91 848 546 
Q 422 1184 422 2328 
Q 422 3475 848 4112 
Q 1275 4750 2034 4750 
Q 2797 4750 3222 4112 
Q 3647 3475 3647 2328 
Q 3647 1184 3222 546 
Q 2797 -91 2034 -91 
z
" transform="scale(0.015625)"/>
        <path id="DejaVuSerif-2e" d="M 603 325 
Q 603 500 722 622 
Q 841 744 1019 744 
Q 1191 744 1312 622 
Q 1434 500 1434 325 
Q 1434 153 1312 31 
Q 1191 -91 1019 -91 
Q 841 -91 722 29 
Q 603 150 603 325 
z
" transform="scale(0.015625)"/>
       </defs>
       <use xlink:href="#DejaVuSerif-30"/>
       <use xlink:href="#DejaVuSerif-2e" x="63.623047"/>
       <use xlink:href="#DejaVuSerif-30" x="95.410156"/>
      </g>
     </g>
    </g>
    <g id="xtick_2">
     <g id="line2d_2">
      <g>
       <use xlink:href="#mf3399e119a" x="73.8" y="128.16" style="stroke: #000000; stroke-width: 0.8"/>
      </g>
     </g>
     <g id="text_2">
      <!-- 0.5 -->
      <g transform="translate(65.848438 142.758438) scale(0.1 -0.1)">
       <defs>
        <path id="DejaVuSerif-35" d="M 3219 4666 
L 3219 4153 
L 1081 4153 
L 1081 2816 
Q 1244 2928 1461 2984 
Q 1678 3041 1947 3041 
Q 2703 3041 3140 2622 
Q 3578 2203 3578 1478 
Q 3578 738 3136 323 
Q 2694 -91 1894 -91 
Q 1572 -91 1234 -12 
Q 897 66 544 225 
L 544 1131 
L 897 1131 
Q 925 688 1179 453 
Q 1434 219 1894 219 
Q 2388 219 2653 544 
Q 2919 869 2919 1478 
Q 2919 2084 2655 2407 
Q 2391 2731 1894 2731 
Q 1613 2731 1398 2631 
Q 1184 2531 1019 2322 
L 750 2322 
L 750 4666 
L 3219 4666 
z
" transform="scale(0.015625)"/>
       </defs>
       <use xlink:href="#DejaVuSerif-30"/>
       <use xlink:href="#DejaVuSerif-2e" x="63.623047"/>
       <use xlink:href="#DejaVuSerif-35" x="95.410156"/>
      </g>
     </g>
    </g>
    <g id="xtick_3">
     <g id="line2d_3">
      <g>
       <use xlink:href="#mf3399e119a" x="129.6" y="128.16" style="stroke: #000000; stroke-width: 0.8"/>
      </g>
     </g>
     <g id="text_3">
      <!-- 1.0 -->
      <g transform="translate(121.648438 142.758438) scale(0.1 -0.1)">
       <defs>
        <path id="DejaVuSerif-31" d="M 909 0 
L 909 331 
L 1722 331 
L 1722 4213 
L 781 3603 
L 781 4013 
L 1919 4750 
L 2350 4750 
L 2350 331 
L 3163 331 
L 3163 0 
L 909 0 
z
" transform="scale(0.015625)"/>
       </defs>
       <use xlink:href="#DejaVuSerif-31"/>
       <use xlink:href="#DejaVuSerif-2e" x="63.623047"/>
       <use xlink:href="#DejaVuSerif-30" x="95.410156"/>
      </g>
     </g>
    </g>
   </g>
   <g id="matplotlib.axis_2">
    <g id="ytick_1">
     <g id="line2d_4">
      <defs>
       <path id="m5192c68ba2" d="M 0 0 
L -3.5 0 
" style="stroke: #000000; stroke-width: 0.8"/>
      </defs>
      <g>
       <use xlink:href="#m5192c68ba2" x="18" y="128.16" style="stroke: #000000; stroke-width: 0.8"/>
      </g>
     </g>
     <g id="text_4">
      <!-- 0.0 -->
      <g transform="translate(-4.903125 131.959219) scale(0.1 -0.1)">
       <use xlink:href="#DejaVuSerif-30"/>
       <use xlink:href="#DejaVuSerif-2e" x="63.623047"/>
       <use xlink:href="#DejaVuSerif-30" x="95.410156"/>
      </g>
     </g>
    </g>
    <g id="ytick_2">
     <g id="line2d_5">
      <g>
       <use xlink:href="#m5192c68ba2" x="18" y="105.984" style="stroke: #000000; stroke-width: 0.8"/>
      </g>
     </g>
     <g id="text_5">
      <!-- 0.2 -->
      <g transform="translate(-4.903125 109.783219) scale(0.1 -0.1)">
       <defs>
        <path id="DejaVuSerif-32" d="M 819 3553 
L 469 3553 
L 469 4384 
Q 803 4563 1142 4656 
Q 1481 4750 1806 4750 
Q 2534 4750 2956 4397 
Q 3378 4044 3378 3438 
Q 3378 2753 2422 1800 
Q 2347 1728 2309 1691 
L 1131 513 
L 3078 513 
L 3078 1088 
L 3444 1088 
L 3444 0 
L 434 0 
L 434 341 
L 1850 1753 
Q 2319 2222 2519 2614 
Q 2719 3006 2719 3438 
Q 2719 3909 2473 4175 
Q 2228 4441 1797 4441 
Q 1350 4441 1106 4219 
Q 863 3997 819 3553 
z
" transform="scale(0.015625)"/>
       </defs>
       <use xlink:href="#DejaVuSerif-30"/>
       <use xlink:href="#DejaVuSerif-2e" x="63.623047"/>
       <use xlink:href="#DejaVuSerif-32" x="95.410156"/>
      </g>
     </g>
    </g>
    <g id="ytick_3">
     <g id="line2d_6">
      <g>
       <use xlink:href="#m5192c68ba2" x="18" y="83.808" style="stroke: #000000; stroke-width: 0.8"/>
      </g>
     </g>
     <g id="text_6">
      <!-- 0.4 -->
      <g transform="translate(-4.903125 87.607219) scale(0.1 -0.1)">
       <defs>
        <path id="DejaVuSerif-34" d="M 2234 1581 
L 2234 4063 
L 641 1581 
L 2234 1581 
z
M 3609 0 
L 1484 0 
L 1484 331 
L 2234 331 
L 2234 1247 
L 197 1247 
L 197 1588 
L 2241 4750 
L 2859 4750 
L 2859 1581 
L 3750 1581 
L 3750 1247 
L 2859 1247 
L 2859 331 
L 3609 331 
L 3609 0 
z
" transform="scale(0.015625)"/>
       </defs>
       <use xlink:href="#DejaVuSerif-30"/>
       <use xlink:href="#DejaVuSerif-2e" x="63.623047"/>
       <use xlink:href="#DejaVuSerif-34" x="95.410156"/>
      </g>
     </g>
    </g>
    <g id="ytick_4">
     <g id="line2d_7">
      <g>
       <use xlink:href="#m5192c68ba2" x="18" y="61.632" style="stroke: #000000; stroke-width: 0.8"/>
      </g>
     </g>
     <g id="text_7">
      <!-- 0.6 -->
      <g transform="translate(-4.903125 65.431219) scale(0.1 -0.1)">
       <defs>
        <path id="DejaVuSerif-36" d="M 2094 219 
Q 2534 219 2771 542 
Q 3009 866 3009 1472 
Q 3009 2078 2771 2401 
Q 2534 2725 2094 2725 
Q 1647 2725 1412 2412 
Q 1178 2100 1178 1509 
Q 1178 888 1415 553 
Q 1653 219 2094 219 
z
M 1075 2569 
Q 1288 2803 1556 2918 
Q 1825 3034 2163 3034 
Q 2859 3034 3264 2615 
Q 3669 2197 3669 1472 
Q 3669 763 3233 336 
Q 2797 -91 2069 -91 
Q 1278 -91 853 498 
Q 428 1088 428 2181 
Q 428 3406 931 4078 
Q 1434 4750 2350 4750 
Q 2597 4750 2869 4703 
Q 3141 4656 3425 4563 
L 3425 3794 
L 3072 3794 
Q 3034 4109 2831 4275 
Q 2628 4441 2284 4441 
Q 1678 4441 1381 3981 
Q 1084 3522 1075 2569 
z
" transform="scale(0.015625)"/>
       </defs>
       <use xlink:href="#DejaVuSerif-30"/>
       <use xlink:href="#DejaVuSerif-2e" x="63.623047"/>
       <use xlink:href="#DejaVuSerif-36" x="95.410156"/>
      </g>
     </g>
    </g>
    <g id="ytick_5">
     <g id="line2d_8">
      <g>
       <use xlink:href="#m5192c68ba2" x="18" y="39.456" style="stroke: #000000; stroke-width: 0.8"/>
      </g>
     </g>
     <g id="text_8">
      <!-- 0.8 -->
      <g transform="translate(-4.903125 43.255219) scale(0.1 -0.1)">
       <defs>
        <path id="DejaVuSerif-38" d="M 2981 1275 
Q 2981 1775 2732 2051 
Q 2484 2328 2034 2328 
Q 1584 2328 1336 2051 
Q 1088 1775 1088 1275 
Q 1088 772 1336 495 
Q 1584 219 2034 219 
Q 2484 219 2732 495 
Q 2981 772 2981 1275 
z
M 2853 3541 
Q 2853 3966 2637 4203 
Q 2422 4441 2034 4441 
Q 1650 4441 1433 4203 
Q 1216 3966 1216 3541 
Q 1216 3113 1433 2875 
Q 1650 2638 2034 2638 
Q 2422 2638 2637 2875 
Q 2853 3113 2853 3541 
z
M 2516 2484 
Q 3047 2413 3344 2092 
Q 3641 1772 3641 1275 
Q 3641 619 3225 264 
Q 2809 -91 2034 -91 
Q 1263 -91 845 264 
Q 428 619 428 1275 
Q 428 1772 725 2092 
Q 1022 2413 1556 2484 
Q 1084 2569 832 2842 
Q 581 3116 581 3541 
Q 581 4103 968 4426 
Q 1356 4750 2034 4750 
Q 2713 4750 3100 4426 
Q 3488 4103 3488 3541 
Q 3488 3116 3236 2842 
Q 2984 2569 2516 2484 
z
" transform="scale(0.015625)"/>
       </defs>
       <use xlink:href="#DejaVuSerif-30"/>
       <use xlink:href="#DejaVuSerif-2e" x="63.623047"/>
       <use xlink:href="#DejaVuSerif-38" x="95.410156"/>
      </g>
     </g>
    </g>
    <g id="ytick_6">
     <g id="line2d_9">
      <g>
       <use xlink:href="#m5192c68ba2" x="18" y="17.28" style="stroke: #000000; stroke-width: 0.8"/>
      </g>
     </g>
     <g id="text_9">
      <!-- 1.0 -->
      <g transform="translate(-4.903125 21.079219) scale(0.1 -0.1)">
       <use xlink:href="#DejaVuSerif-31"/>
       <use xlink:href="#DejaVuSerif-2e" x="63.623047"/>
       <use xlink:href="#DejaVuSerif-30" x="95.410156"/>
      </g>
     </g>
    </g>
   </g>
   <g id="patch_3">
    <path d="M 18 128.16 
L 18 17.28 
" style="fill: none; stroke: #000000; stroke-width: 0.8; stroke-linejoin: miter; stroke-linecap: square"/>
   </g>
   <g id="patch_4">
    <path d="M 129.6 128.16 
L 129.6 17.28 
" style="fill: none; stroke: #000000; stroke-width: 0.8; stroke-linejoin: miter; stroke-linecap: square"/>
   </g>
   <g id="patch_5">
    <path d="M 18 128.16 
L 129.6 128.16 
" style="fill: none; stroke: #000000; stroke-width: 0.8; stroke-linejoin: miter; stroke-linecap: square"/>
   </g>
   <g id="patch_6">
    <path d="M 18 17.28 
L 129.6 17.28 
" style="fill: none; stroke: #000000; stroke-width: 0.8; stroke-linejoin: miter; stroke-linecap: square"/>
   </g>
  </g>
  <g id="patch_7">
   <path d="M 18.36 128.16 
L 129.24 128.16 
L 129.24 17.28 
L 18.36 17.28 
z
" style="fill: #ffffff"/>
  </g>
  <g id="axes_2">
   <g id="patch_8">
    <path d="M 87.998167 80.628656 
Q 71.190282 81.741211 54.382397 82.853767 
" clip-path="url(#p58f37c7620)" style="fill: none; opacity: 0.720779; stroke: #a9a9a9; stroke-width: 0.441558; stroke-linecap: round"/>
   </g>
   <g id="Path3DCollection_1">
    <path d="M 82.036969 75.69158 
C 82.130732 75.69158 82.220668 75.654328 82.286969 75.588027 
C 82.35327 75.521726 82.390522 75.431791 82.390522 75.338027 
C 82.390522 75.244264 82.35327 75.154328 82.286969 75.088027 
C 82.220668 75.021726 82.130732 74.984474 82.036969 74.984474 
C 81.943205 74.984474 81.85327 75.021726 81.786969 75.088027 
C 81.720668 75.154328 81.683415 75.244264 81.683415 75.338027 
C 81.683415 75.431791 81.720668 75.521726 81.786969 75.588027 
C 81.85327 75.654328 81.943205 75.69158 82.036969 75.69158 
z
" clip-path="url(#p58f37c7620)" style="fill: #fff5f0; stroke: #ff0000; stroke-width: 2"/>
    <path d="M 63.769997 76.881398 
C 63.863761 76.881398 63.953697 76.844145 64.019997 76.777844 
C 64.086298 76.711543 64.123551 76.621608 64.123551 76.527844 
C 64.123551 76.434081 64.086298 76.344145 64.019997 76.277844 
C 63.953697 76.211543 63.863761 76.174291 63.769997 76.174291 
C 63.676234 76.174291 63.586298 76.211543 63.519997 76.277844 
C 63.453697 76.344145 63.416444 76.434081 63.416444 76.527844 
C 63.416444 76.621608 63.453697 76.711543 63.519997 76.777844 
C 63.586298 76.844145 63.676234 76.881398 63.769997 76.881398 
z
" clip-path="url(#p58f37c7620)" style="fill: #fff5f0; stroke: #00ff00; stroke-width: 2"/>
    <path d="M 97.976735 83.503683 
C 98.91437 83.503683 99.813727 83.131157 100.476735 82.46815 
C 101.139743 81.805142 101.512269 80.905784 101.512269 79.96815 
C 101.512269 79.030515 101.139743 78.131157 100.476735 77.46815 
C 99.813727 76.805142 98.91437 76.432616 97.976735 76.432616 
C 97.0391 76.432616 96.139743 76.805142 95.476735 77.46815 
C 94.813727 78.131157 94.441201 79.030515 94.441201 79.96815 
C 94.441201 80.905784 94.813727 81.805142 95.476735 82.46815 
C 96.139743 83.131157 97.0391 83.503683 97.976735 83.503683 
z
" clip-path="url(#p58f37c7620)" style="fill: #67000d; stroke: #ff0000; stroke-width: 2"/>
    <path d="M 49.391636 86.719652 
C 50.32927 86.719652 51.228628 86.347126 51.891636 85.684118 
C 52.554643 85.02111 52.927169 84.121753 52.927169 83.184118 
C 52.927169 82.246483 52.554643 81.347126 51.891636 80.684118 
C 51.228628 80.02111 50.32927 79.648584 49.391636 79.648584 
C 48.454001 79.648584 47.554643 80.02111 46.891636 80.684118 
C 46.228628 81.347126 45.856102 82.246483 45.856102 83.184118 
C 45.856102 84.121753 46.228628 85.02111 46.891636 85.684118 
C 47.554643 86.347126 48.454001 86.719652 49.391636 86.719652 
z
" clip-path="url(#p58f37c7620)" style="fill: #67000d; stroke: #00ff00; stroke-width: 2"/>
    <path d="M 105.914786 89.354064 
C 106.00855 89.354064 106.098485 89.316812 106.164786 89.250511 
C 106.231087 89.18421 106.268339 89.094274 106.268339 89.000511 
C 106.268339 88.906747 106.231087 88.816812 106.164786 88.750511 
C 106.098485 88.68421 106.00855 88.646957 105.914786 88.646957 
C 105.821023 88.646957 105.731087 88.68421 105.664786 88.750511 
C 105.598485 88.816812 105.561233 88.906747 105.561233 89.000511 
C 105.561233 89.094274 105.598485 89.18421 105.664786 89.250511 
C 105.731087 89.316812 105.821023 89.354064 105.914786 89.354064 
z
" clip-path="url(#p58f37c7620)" style="fill: #fff5f0; stroke: #00ff00; stroke-width: 2"/>
    <path d="M 44.273099 93.544363 
C 44.366863 93.544363 44.456799 93.507111 44.523099 93.44081 
C 44.5894 93.374509 44.626653 93.284573 44.626653 93.19081 
C 44.626653 93.097046 44.5894 93.007111 44.523099 92.94081 
C 44.456799 92.874509 44.366863 92.837256 44.273099 92.837256 
C 44.179336 92.837256 44.0894 92.874509 44.023099 92.94081 
C 43.956799 93.007111 43.919546 93.097046 43.919546 93.19081 
C 43.919546 93.284573 43.956799 93.374509 44.023099 93.44081 
C 44.0894 93.507111 44.179336 93.544363 44.273099 93.544363 
z
" clip-path="url(#p58f37c7620)" style="fill: #fff5f0; stroke: #ff0000; stroke-width: 2"/>
    <path d="M 102.317046 99.69325 
C 102.410809 99.69325 102.500745 99.655997 102.567046 99.589697 
C 102.633347 99.523396 102.670599 99.43346 102.670599 99.339697 
C 102.670599 99.245933 102.633347 99.155997 102.567046 99.089697 
C 102.500745 99.023396 102.410809 98.986143 102.317046 98.986143 
C 102.223282 98.986143 102.133347 99.023396 102.067046 99.089697 
C 102.000745 99.155997 101.963492 99.245933 101.963492 99.339697 
C 101.963492 99.43346 102.000745 99.523396 102.067046 99.589697 
C 102.133347 99.655997 102.223282 99.69325 102.317046 99.69325 
z
" clip-path="url(#p58f37c7620)" style="fill: #fff5f0; stroke: #ff0000; stroke-width: 2"/>
    <path d="M 51.095278 103.271766 
C 51.189042 103.271766 51.278977 103.234513 51.345278 103.168212 
C 51.411579 103.101911 51.448832 103.011976 51.448832 102.918212 
C 51.448832 102.824449 51.411579 102.734513 51.345278 102.668212 
C 51.278977 102.601911 51.189042 102.564659 51.095278 102.564659 
C 51.001515 102.564659 50.911579 102.601911 50.845278 102.668212 
C 50.778977 102.734513 50.741725 102.824449 50.741725 102.918212 
C 50.741725 103.011976 50.778977 103.101911 50.845278 103.168212 
C 50.911579 103.234513 51.001515 103.271766 51.095278 103.271766 
z
" clip-path="url(#p58f37c7620)" style="fill: #fff5f0; stroke: #00ff00; stroke-width: 2"/>
    <path d="M 87.764928 110.433215 
C 88.702563 110.433215 89.60192 110.060689 90.264928 109.397681 
C 90.927936 108.734673 91.300462 107.835316 91.300462 106.897681 
C 91.300462 105.960046 90.927936 105.060689 90.264928 104.397681 
C 89.60192 103.734673 88.702563 103.362147 87.764928 103.362147 
C 86.827294 103.362147 85.927936 103.734673 85.264928 104.397681 
C 84.60192 105.060689 84.229394 105.960046 84.229394 106.897681 
C 84.229394 107.835316 84.60192 108.734673 85.264928 109.397681 
C 85.927936 110.060689 86.827294 110.433215 87.764928 110.433215 
z
" clip-path="url(#p58f37c7620)" style="fill: #67000d; stroke: #00ff00; stroke-width: 2"/>
    <path d="M 67.86666 108.66563 
C 67.960423 108.66563 68.050359 108.628378 68.11666 108.562077 
C 68.182961 108.495776 68.220213 108.40584 68.220213 108.312077 
C 68.220213 108.218313 68.182961 108.128378 68.11666 108.062077 
C 68.050359 107.995776 67.960423 107.958523 67.86666 107.958523 
C 67.772897 107.958523 67.682961 107.995776 67.61666 108.062077 
C 67.550359 108.128378 67.513107 108.218313 67.513107 108.312077 
C 67.513107 108.40584 67.550359 108.495776 67.61666 108.562077 
C 67.682961 108.628378 67.772897 108.66563 67.86666 108.66563 
z
" clip-path="url(#p58f37c7620)" style="fill: #fff5f0; stroke: #00ff00; stroke-width: 2"/>
   </g>
   <g id="patch_9">
    <path d="M 59.370204 82.523612 
Q 76.178089 81.411056 92.985974 80.2985 
" clip-path="url(#p58f37c7620)" style="fill: none; opacity: 0.720779; stroke: #a9a9a9; stroke-width: 0.441558; stroke-linecap: round"/>
   </g>
   <g id="Path3DCollection_2">
    <path d="M 82.099153 66.1499 
C 82.192916 66.1499 82.282852 66.112647 82.349153 66.046346 
C 82.415453 65.980045 82.452706 65.89011 82.452706 65.796346 
C 82.452706 65.702583 82.415453 65.612647 82.349153 65.546346 
C 82.282852 65.480045 82.192916 65.442793 82.099153 65.442793 
C 82.005389 65.442793 81.915453 65.480045 81.849153 65.546346 
C 81.782852 65.612647 81.745599 65.702583 81.745599 65.796346 
C 81.745599 65.89011 81.782852 65.980045 81.849153 66.046346 
C 81.915453 66.112647 82.005389 66.1499 82.099153 66.1499 
z
" clip-path="url(#p58f37c7620)" style="fill: #f7fbff; stroke: #ff0000; stroke-width: 2"/>
    <path d="M 63.663248 67.318011 
C 63.757012 67.318011 63.846948 67.280758 63.913248 67.214458 
C 63.979549 67.148157 64.016802 67.058221 64.016802 66.964458 
C 64.016802 66.870694 63.979549 66.780758 63.913248 66.714458 
C 63.846948 66.648157 63.757012 66.610904 63.663248 66.610904 
C 63.569485 66.610904 63.479549 66.648157 63.413248 66.714458 
C 63.346948 66.780758 63.309695 66.870694 63.309695 66.964458 
C 63.309695 67.058221 63.346948 67.148157 63.413248 67.214458 
C 63.479549 67.280758 63.569485 67.318011 63.663248 67.318011 
z
" clip-path="url(#p58f37c7620)" style="fill: #f7fbff; stroke: #00ff00; stroke-width: 2"/>
    <path d="M 98.188804 73.877948 
C 99.126439 73.877948 100.025797 73.505422 100.688804 72.842415 
C 101.351812 72.179407 101.724338 71.280049 101.724338 70.342415 
C 101.724338 69.40478 101.351812 68.505422 100.688804 67.842415 
C 100.025797 67.179407 99.126439 66.806881 98.188804 66.806881 
C 97.25117 66.806881 96.351812 67.179407 95.688804 67.842415 
C 95.025797 68.505422 94.653271 69.40478 94.653271 70.342415 
C 94.653271 71.280049 95.025797 72.179407 95.688804 72.842415 
C 96.351812 73.505422 97.25117 73.877948 98.188804 73.877948 
z
" clip-path="url(#p58f37c7620)" style="fill: #08306b; stroke: #ff0000; stroke-width: 2"/>
    <path d="M 49.14716 77.036188 
C 50.084795 77.036188 50.984152 76.663662 51.64716 76.000654 
C 52.310168 75.337646 52.682694 74.438289 52.682694 73.500654 
C 52.682694 72.56302 52.310168 71.663662 51.64716 71.000654 
C 50.984152 70.337646 50.084795 69.96512 49.14716 69.96512 
C 48.209526 69.96512 47.310168 70.337646 46.64716 71.000654 
C 45.984152 71.663662 45.611626 72.56302 45.611626 73.500654 
C 45.611626 74.438289 45.984152 75.337646 46.64716 76.000654 
C 47.310168 76.663662 48.209526 77.036188 49.14716 77.036188 
z
" clip-path="url(#p58f37c7620)" style="fill: #08306b; stroke: #00ff00; stroke-width: 2"/>
    <path d="M 106.208444 79.567552 
C 106.302208 79.567552 106.392144 79.5303 106.458444 79.463999 
C 106.524745 79.397698 106.561998 79.307762 106.561998 79.213999 
C 106.561998 79.120236 106.524745 79.0303 106.458444 78.963999 
C 106.392144 78.897698 106.302208 78.860446 106.208444 78.860446 
C 106.114681 78.860446 106.024745 78.897698 105.958444 78.963999 
C 105.892144 79.0303 105.854891 79.120236 105.854891 79.213999 
C 105.854891 79.307762 105.892144 79.397698 105.958444 79.463999 
C 106.024745 79.5303 106.114681 79.567552 106.208444 79.567552 
z
" clip-path="url(#p58f37c7620)" style="fill: #f7fbff; stroke: #00ff00; stroke-width: 2"/>
    <path d="M 43.972059 86.866679 
C 44.909693 86.866679 45.809051 86.494153 46.472059 85.831145 
C 47.135066 85.168137 47.507593 84.26878 47.507593 83.331145 
C 47.507593 82.393511 47.135066 81.494153 46.472059 80.831145 
C 45.809051 80.168137 44.909693 79.795611 43.972059 79.795611 
C 43.034424 79.795611 42.135066 80.168137 41.472059 80.831145 
C 40.809051 81.494153 40.436525 82.393511 40.436525 83.331145 
C 40.436525 84.26878 40.809051 85.168137 41.472059 85.831145 
C 42.135066 86.494153 43.034424 86.866679 43.972059 86.866679 
z
" clip-path="url(#p58f37c7620)" style="fill: #08306b; stroke: #ff0000; stroke-width: 2"/>
    <path d="M 102.583634 89.727887 
C 102.677397 89.727887 102.767333 89.690635 102.833634 89.624334 
C 102.899935 89.558033 102.937187 89.468098 102.937187 89.374334 
C 102.937187 89.280571 102.899935 89.190635 102.833634 89.124334 
C 102.767333 89.058033 102.677397 89.020781 102.583634 89.020781 
C 102.48987 89.020781 102.399935 89.058033 102.333634 89.124334 
C 102.267333 89.190635 102.23008 89.280571 102.23008 89.374334 
C 102.23008 89.468098 102.267333 89.558033 102.333634 89.624334 
C 102.399935 89.690635 102.48987 89.727887 102.583634 89.727887 
z
" clip-path="url(#p58f37c7620)" style="fill: #f7fbff; stroke: #ff0000; stroke-width: 2"/>
    <path d="M 50.854164 96.427772 
C 51.791799 96.427772 52.691156 96.055246 53.354164 95.392238 
C 54.017172 94.72923 54.389698 93.829873 54.389698 92.892238 
C 54.389698 91.954603 54.017172 91.055246 53.354164 90.392238 
C 52.691156 89.72923 51.791799 89.356704 50.854164 89.356704 
C 49.91653 89.356704 49.017172 89.72923 48.354164 90.392238 
C 47.691156 91.055246 47.31863 91.954603 47.31863 92.892238 
C 47.31863 93.829873 47.691156 94.72923 48.354164 95.392238 
C 49.017172 96.055246 49.91653 96.427772 50.854164 96.427772 
z
" clip-path="url(#p58f37c7620)" style="fill: #08306b; stroke: #00ff00; stroke-width: 2"/>
    <path d="M 87.890443 100.340618 
C 88.828077 100.340618 89.727435 99.968092 90.390443 99.305084 
C 91.053451 98.642076 91.425977 97.742718 91.425977 96.805084 
C 91.425977 95.867449 91.053451 94.968092 90.390443 94.305084 
C 89.727435 93.642076 88.828077 93.26955 87.890443 93.26955 
C 86.952808 93.26955 86.053451 93.642076 85.390443 94.305084 
C 84.727435 94.968092 84.354909 95.867449 84.354909 96.805084 
C 84.354909 97.742718 84.727435 98.642076 85.390443 99.305084 
C 86.053451 99.968092 86.952808 100.340618 87.890443 100.340618 
z
" clip-path="url(#p58f37c7620)" style="fill: #08306b; stroke: #00ff00; stroke-width: 2"/>
    <path d="M 67.791556 101.731532 
C 68.729191 101.731532 69.628549 101.359006 70.291556 100.695998 
C 70.954564 100.032991 71.32709 99.133633 71.32709 98.195998 
C 71.32709 97.258364 70.954564 96.359006 70.291556 95.695998 
C 69.628549 95.032991 68.729191 94.660464 67.791556 94.660464 
C 66.853922 94.660464 65.954564 95.032991 65.291556 95.695998 
C 64.628549 96.359006 64.256023 97.258364 64.256023 98.195998 
C 64.256023 99.133633 64.628549 100.032991 65.291556 100.695998 
C 65.954564 101.359006 66.853922 101.731532 67.791556 101.731532 
z
" clip-path="url(#p58f37c7620)" style="fill: #08306b; stroke: #00ff00; stroke-width: 2"/>
   </g>
   <g id="patch_10">
    <path d="M 88.212254 70.984896 
Q 71.176115 72.082008 54.139977 73.179121 
" clip-path="url(#p58f37c7620)" style="fill: none; opacity: 0.630952; stroke: #d7d7d7; stroke-width: 0.261905; stroke-linecap: round"/>
   </g>
   <g id="Path3DCollection_3">
    <path d="M 82.162495 56.430477 
C 82.256258 56.430477 82.346194 56.393224 82.412495 56.326923 
C 82.478796 56.260623 82.516048 56.170687 82.516048 56.076923 
C 82.516048 55.98316 82.478796 55.893224 82.412495 55.826923 
C 82.346194 55.760623 82.256258 55.72337 82.162495 55.72337 
C 82.068731 55.72337 81.978796 55.760623 81.912495 55.826923 
C 81.846194 55.893224 81.808941 55.98316 81.808941 56.076923 
C 81.808941 56.170687 81.846194 56.260623 81.912495 56.326923 
C 81.978796 56.393224 82.068731 56.430477 82.162495 56.430477 
z
" clip-path="url(#p58f37c7620)" style="fill: #f7fcf5; stroke: #ff0000; stroke-width: 2"/>
    <path d="M 63.554504 57.575862 
C 63.648268 57.575862 63.738203 57.538609 63.804504 57.472308 
C 63.870805 57.406008 63.908057 57.316072 63.908057 57.222308 
C 63.908057 57.128545 63.870805 57.038609 63.804504 56.972308 
C 63.738203 56.906008 63.648268 56.868755 63.554504 56.868755 
C 63.460741 56.868755 63.370805 56.906008 63.304504 56.972308 
C 63.238203 57.038609 63.200951 57.128545 63.200951 57.222308 
C 63.200951 57.316072 63.238203 57.406008 63.304504 57.472308 
C 63.370805 57.538609 63.460741 57.575862 63.554504 57.575862 
z
" clip-path="url(#p58f37c7620)" style="fill: #f7fcf5; stroke: #00ff00; stroke-width: 2"/>
    <path d="M 98.404877 64.07049 
C 99.342512 64.07049 100.24187 63.697964 100.904877 63.034956 
C 101.567885 62.371948 101.940411 61.472591 101.940411 60.534956 
C 101.940411 59.597322 101.567885 58.697964 100.904877 58.034956 
C 100.24187 57.371948 99.342512 56.999422 98.404877 56.999422 
C 97.467243 56.999422 96.567885 57.371948 95.904877 58.034956 
C 95.24187 58.697964 94.869344 59.597322 94.869344 60.534956 
C 94.869344 61.472591 95.24187 62.371948 95.904877 63.034956 
C 96.567885 63.697964 97.467243 64.07049 98.404877 64.07049 
z
" clip-path="url(#p58f37c7620)" style="fill: #00441b; stroke: #ff0000; stroke-width: 2"/>
    <path d="M 48.898027 63.986242 
C 48.99179 63.986242 49.081726 63.948989 49.148027 63.882688 
C 49.214328 63.816388 49.25158 63.726452 49.25158 63.632688 
C 49.25158 63.538925 49.214328 63.448989 49.148027 63.382688 
C 49.081726 63.316388 48.99179 63.279135 48.898027 63.279135 
C 48.804263 63.279135 48.714328 63.316388 48.648027 63.382688 
C 48.581726 63.448989 48.544473 63.538925 48.544473 63.632688 
C 48.544473 63.726452 48.581726 63.816388 48.648027 63.882688 
C 48.714328 63.948989 48.804263 63.986242 48.898027 63.986242 
z
" clip-path="url(#p58f37c7620)" style="fill: #f7fcf5; stroke: #00ff00; stroke-width: 2"/>
    <path d="M 106.507791 69.591487 
C 106.601554 69.591487 106.69149 69.554234 106.757791 69.487934 
C 106.824091 69.421633 106.861344 69.331697 106.861344 69.237934 
C 106.861344 69.14417 106.824091 69.054234 106.757791 68.987934 
C 106.69149 68.921633 106.601554 68.88438 106.507791 68.88438 
C 106.414027 68.88438 106.324091 68.921633 106.257791 68.987934 
C 106.19149 69.054234 106.154237 69.14417 106.154237 69.237934 
C 106.154237 69.331697 106.19149 69.421633 106.257791 69.487934 
C 106.324091 69.554234 106.414027 69.591487 106.507791 69.591487 
z
" clip-path="url(#p58f37c7620)" style="fill: #f7fcf5; stroke: #00ff00; stroke-width: 2"/>
    <path d="M 43.665119 73.631821 
C 43.758882 73.631821 43.848818 73.594568 43.915119 73.528268 
C 43.981419 73.461967 44.018672 73.372031 44.018672 73.278268 
C 44.018672 73.184504 43.981419 73.094568 43.915119 73.028268 
C 43.848818 72.961967 43.758882 72.924714 43.665119 72.924714 
C 43.571355 72.924714 43.481419 72.961967 43.415119 73.028268 
C 43.348818 73.094568 43.311565 73.184504 43.311565 73.278268 
C 43.311565 73.372031 43.348818 73.461967 43.415119 73.528268 
C 43.481419 73.594568 43.571355 73.631821 43.665119 73.631821 
z
" clip-path="url(#p58f37c7620)" style="fill: #f7fcf5; stroke: #ff0000; stroke-width: 2"/>
    <path d="M 102.855535 79.563913 
C 102.949298 79.563913 103.039234 79.52666 103.105535 79.460359 
C 103.171836 79.394059 103.209088 79.304123 103.209088 79.210359 
C 103.209088 79.116596 103.171836 79.02666 103.105535 78.960359 
C 103.039234 78.894059 102.949298 78.856806 102.855535 78.856806 
C 102.761771 78.856806 102.671836 78.894059 102.605535 78.960359 
C 102.539234 79.02666 102.501981 79.116596 102.501981 79.210359 
C 102.501981 79.304123 102.539234 79.394059 102.605535 79.460359 
C 102.671836 79.52666 102.761771 79.563913 102.855535 79.563913 
z
" clip-path="url(#p58f37c7620)" style="fill: #f7fcf5; stroke: #ff0000; stroke-width: 2"/>
    <path d="M 50.608198 83.018047 
C 50.701961 83.018047 50.791897 82.980795 50.858198 82.914494 
C 50.924498 82.848193 50.961751 82.758257 50.961751 82.664494 
C 50.961751 82.570731 50.924498 82.480795 50.858198 82.414494 
C 50.791897 82.348193 50.701961 82.310941 50.608198 82.310941 
C 50.514434 82.310941 50.424498 82.348193 50.358198 82.414494 
C 50.291897 82.480795 50.254644 82.570731 50.254644 82.664494 
C 50.254644 82.758257 50.291897 82.848193 50.358198 82.914494 
C 50.424498 82.980795 50.514434 83.018047 50.608198 83.018047 
z
" clip-path="url(#p58f37c7620)" style="fill: #f7fcf5; stroke: #00ff00; stroke-width: 2"/>
    <path d="M 88.018511 90.042727 
C 88.956145 90.042727 89.855503 89.670201 90.518511 89.007193 
C 91.181518 88.344185 91.554045 87.444828 91.554045 86.507193 
C 91.554045 85.569558 91.181518 84.670201 90.518511 84.007193 
C 89.855503 83.344185 88.956145 82.971659 88.018511 82.971659 
C 87.080876 82.971659 86.181518 83.344185 85.518511 84.007193 
C 84.855503 84.670201 84.482977 85.569558 84.482977 86.507193 
C 84.482977 87.444828 84.855503 88.344185 85.518511 89.007193 
C 86.181518 89.670201 87.080876 90.042727 88.018511 90.042727 
z
" clip-path="url(#p58f37c7620)" style="fill: #00441b; stroke: #00ff00; stroke-width: 2"/>
    <path d="M 67.71492 88.226924 
C 67.808683 88.226924 67.898619 88.189671 67.96492 88.12337 
C 68.03122 88.057069 68.068473 87.967134 68.068473 87.87337 
C 68.068473 87.779607 68.03122 87.689671 67.96492 87.62337 
C 67.898619 87.557069 67.808683 87.519817 67.71492 87.519817 
C 67.621156 87.519817 67.53122 87.557069 67.46492 87.62337 
C 67.398619 87.689671 67.361366 87.779607 67.361366 87.87337 
C 67.361366 87.967134 67.398619 88.057069 67.46492 88.12337 
C 67.53122 88.189671 67.621156 88.226924 67.71492 88.226924 
z
" clip-path="url(#p58f37c7620)" style="fill: #f7fcf5; stroke: #00ff00; stroke-width: 2"/>
   </g>
   <g id="patch_11">
    <path d="M 59.123711 72.858173 
Q 76.159849 71.76106 93.195988 70.663948 
" clip-path="url(#p58f37c7620)" style="fill: none; opacity: 0.630952; stroke: #d7d7d7; stroke-width: 0.261905; stroke-linecap: round"/>
   </g>
   <g id="Path3DCollection_4">
    <path d="M 82.227028 46.528299 
C 82.320791 46.528299 82.410727 46.491047 82.477028 46.424746 
C 82.543329 46.358445 82.580581 46.268509 82.580581 46.174746 
C 82.580581 46.080982 82.543329 45.991047 82.477028 45.924746 
C 82.410727 45.858445 82.320791 45.821192 82.227028 45.821192 
C 82.133265 45.821192 82.043329 45.858445 81.977028 45.924746 
C 81.910727 45.991047 81.873475 46.080982 81.873475 46.174746 
C 81.873475 46.268509 81.910727 46.358445 81.977028 46.424746 
C 82.043329 46.491047 82.133265 46.528299 82.227028 46.528299 
z
" clip-path="url(#p58f37c7620)" style="fill: #fff5eb; stroke: #ff0000; stroke-width: 2"/>
    <path d="M 63.443708 47.64989 
C 63.537471 47.64989 63.627407 47.612638 63.693708 47.546337 
C 63.760009 47.480036 63.797261 47.3901 63.797261 47.296337 
C 63.797261 47.202573 63.760009 47.112638 63.693708 47.046337 
C 63.627407 46.980036 63.537471 46.942784 63.443708 46.942784 
C 63.349944 46.942784 63.260009 46.980036 63.193708 47.046337 
C 63.127407 47.112638 63.090155 47.202573 63.090155 47.296337 
C 63.090155 47.3901 63.127407 47.480036 63.193708 47.546337 
C 63.260009 47.612638 63.349944 47.64989 63.443708 47.64989 
z
" clip-path="url(#p58f37c7620)" style="fill: #fff5eb; stroke: #00ff00; stroke-width: 2"/>
    <path d="M 98.625069 54.076113 
C 99.562703 54.076113 100.462061 53.703587 101.125069 53.040579 
C 101.788076 52.377572 102.160603 51.478214 102.160603 50.540579 
C 102.160603 49.602945 101.788076 48.703587 101.125069 48.040579 
C 100.462061 47.377572 99.562703 47.005046 98.625069 47.005046 
C 97.687434 47.005046 96.788076 47.377572 96.125069 48.040579 
C 95.462061 48.703587 95.089535 49.602945 95.089535 50.540579 
C 95.089535 51.478214 95.462061 52.377572 96.125069 53.040579 
C 96.788076 53.703587 97.687434 54.076113 98.625069 54.076113 
z
" clip-path="url(#p58f37c7620)" style="fill: #7f2704; stroke: #ff0000; stroke-width: 2"/>
    <path d="M 48.644101 53.928451 
C 48.737864 53.928451 48.8278 53.891198 48.894101 53.824897 
C 48.960402 53.758596 48.997654 53.668661 48.997654 53.574897 
C 48.997654 53.481134 48.960402 53.391198 48.894101 53.324897 
C 48.8278 53.258596 48.737864 53.221344 48.644101 53.221344 
C 48.550338 53.221344 48.460402 53.258596 48.394101 53.324897 
C 48.3278 53.391198 48.290548 53.481134 48.290548 53.574897 
C 48.290548 53.668661 48.3278 53.758596 48.394101 53.824897 
C 48.460402 53.891198 48.550338 53.928451 48.644101 53.928451 
z
" clip-path="url(#p58f37c7620)" style="fill: #fff5eb; stroke: #00ff00; stroke-width: 2"/>
    <path d="M 106.812991 59.420307 
C 106.906755 59.420307 106.996691 59.383055 107.062991 59.316754 
C 107.129292 59.250453 107.166545 59.160517 107.166545 59.066754 
C 107.166545 58.972991 107.129292 58.883055 107.062991 58.816754 
C 106.996691 58.750453 106.906755 58.713201 106.812991 58.713201 
C 106.719228 58.713201 106.629292 58.750453 106.562991 58.816754 
C 106.496691 58.883055 106.459438 58.972991 106.459438 59.066754 
C 106.459438 59.160517 106.496691 59.250453 106.562991 59.316754 
C 106.629292 59.383055 106.719228 59.420307 106.812991 59.420307 
z
" clip-path="url(#p58f37c7620)" style="fill: #fff5eb; stroke: #00ff00; stroke-width: 2"/>
    <path d="M 43.352104 63.379995 
C 43.445868 63.379995 43.535804 63.342742 43.602104 63.276441 
C 43.668405 63.210141 43.705658 63.120205 43.705658 63.026441 
C 43.705658 62.932678 43.668405 62.842742 43.602104 62.776441 
C 43.535804 62.710141 43.445868 62.672888 43.352104 62.672888 
C 43.258341 62.672888 43.168405 62.710141 43.102104 62.776441 
C 43.035804 62.842742 42.998551 62.932678 42.998551 63.026441 
C 42.998551 63.120205 43.035804 63.210141 43.102104 63.276441 
C 43.168405 63.342742 43.258341 63.379995 43.352104 63.379995 
z
" clip-path="url(#p58f37c7620)" style="fill: #fff5eb; stroke: #ff0000; stroke-width: 2"/>
    <path d="M 103.132909 69.195328 
C 103.226673 69.195328 103.316609 69.158076 103.382909 69.091775 
C 103.44921 69.025474 103.486463 68.935538 103.486463 68.841775 
C 103.486463 68.748011 103.44921 68.658076 103.382909 68.591775 
C 103.316609 68.525474 103.226673 68.488222 103.132909 68.488222 
C 103.039146 68.488222 102.94921 68.525474 102.882909 68.591775 
C 102.816609 68.658076 102.779356 68.748011 102.779356 68.841775 
C 102.779356 68.935538 102.816609 69.025474 102.882909 69.091775 
C 102.94921 69.158076 103.039146 69.195328 103.132909 69.195328 
z
" clip-path="url(#p58f37c7620)" style="fill: #fff5eb; stroke: #ff0000; stroke-width: 2"/>
    <path d="M 50.357231 72.582381 
C 50.450994 72.582381 50.54093 72.545128 50.607231 72.478827 
C 50.673532 72.412527 50.710784 72.322591 50.710784 72.228827 
C 50.710784 72.135064 50.673532 72.045128 50.607231 71.978827 
C 50.54093 71.912527 50.450994 71.875274 50.357231 71.875274 
C 50.263468 71.875274 50.173532 71.912527 50.107231 71.978827 
C 50.04093 72.045128 50.003678 72.135064 50.003678 72.228827 
C 50.003678 72.322591 50.04093 72.412527 50.107231 72.478827 
C 50.173532 72.545128 50.263468 72.582381 50.357231 72.582381 
z
" clip-path="url(#p58f37c7620)" style="fill: #fff5eb; stroke: #00ff00; stroke-width: 2"/>
    <path d="M 88.14921 79.533214 
C 89.086845 79.533214 89.986203 79.160688 90.64921 78.49768 
C 91.312218 77.834672 91.684744 76.935314 91.684744 75.99768 
C 91.684744 75.060045 91.312218 74.160688 90.64921 73.49768 
C 89.986203 72.834672 89.086845 72.462146 88.14921 72.462146 
C 87.211576 72.462146 86.312218 72.834672 85.64921 73.49768 
C 84.986203 74.160688 84.613676 75.060045 84.613676 75.99768 
C 84.613676 76.935314 84.986203 77.834672 85.64921 78.49768 
C 86.312218 79.160688 87.211576 79.533214 88.14921 79.533214 
z
" clip-path="url(#p58f37c7620)" style="fill: #7f2704; stroke: #00ff00; stroke-width: 2"/>
    <path d="M 67.636702 80.873335 
C 68.574336 80.873335 69.473694 80.500809 70.136702 79.837801 
C 70.799709 79.174794 71.172236 78.275436 71.172236 77.337801 
C 71.172236 76.400167 70.799709 75.500809 70.136702 74.837801 
C 69.473694 74.174794 68.574336 73.802267 67.636702 73.802267 
C 66.699067 73.802267 65.799709 74.174794 65.136702 74.837801 
C 64.473694 75.500809 64.101168 76.400167 64.101168 77.337801 
C 64.101168 78.275436 64.473694 79.174794 65.136702 79.837801 
C 65.799709 80.500809 66.699067 80.873335 67.636702 80.873335 
z
" clip-path="url(#p58f37c7620)" style="fill: #7f2704; stroke: #00ff00; stroke-width: 2"/>
   </g>
   <g id="patch_12">
    <path d="M 99.312018 81.487509 
Q 98.644376 80.727829 97.976735 79.96815 
" clip-path="url(#p58f37c7620)" style="fill: none; opacity: 0.698052; stroke: #b6b6b6; stroke-width: 0.396104; stroke-linecap: round"/>
   </g>
   <g id="Path3DCollection_5">
    <path d="M 82.292786 39.620144 
C 83.230421 39.620144 84.129778 39.247618 84.792786 38.58461 
C 85.455794 37.921602 85.82832 37.022244 85.82832 36.08461 
C 85.82832 35.146975 85.455794 34.247618 84.792786 33.58461 
C 84.129778 32.921602 83.230421 32.549076 82.292786 32.549076 
C 81.355152 32.549076 80.455794 32.921602 79.792786 33.58461 
C 79.129778 34.247618 78.757252 35.146975 78.757252 36.08461 
C 78.757252 37.022244 79.129778 37.921602 79.792786 38.58461 
C 80.455794 39.247618 81.355152 39.620144 82.292786 39.620144 
z
" clip-path="url(#p58f37c7620)" style="fill: #3f007d; stroke: #ff0000; stroke-width: 2"/>
    <path d="M 63.330801 37.534844 
C 63.424565 37.534844 63.5145 37.497592 63.580801 37.431291 
C 63.647102 37.36499 63.684355 37.275054 63.684355 37.181291 
C 63.684355 37.087527 63.647102 36.997592 63.580801 36.931291 
C 63.5145 36.86499 63.424565 36.827737 63.330801 36.827737 
C 63.237038 36.827737 63.147102 36.86499 63.080801 36.931291 
C 63.0145 36.997592 62.977248 37.087527 62.977248 37.181291 
C 62.977248 37.275054 63.0145 37.36499 63.080801 37.431291 
C 63.147102 37.497592 63.237038 37.534844 63.330801 37.534844 
z
" clip-path="url(#p58f37c7620)" style="fill: #fcfbfd; stroke: #00ff00; stroke-width: 2"/>
    <path d="M 98.849497 43.889423 
C 99.787131 43.889423 100.686489 43.516897 101.349497 42.853889 
C 102.012504 42.190881 102.385031 41.291524 102.385031 40.353889 
C 102.385031 39.416255 102.012504 38.516897 101.349497 37.853889 
C 100.686489 37.190881 99.787131 36.818355 98.849497 36.818355 
C 97.911862 36.818355 97.012504 37.190881 96.349497 37.853889 
C 95.686489 38.516897 95.313963 39.416255 95.313963 40.353889 
C 95.313963 41.291524 95.686489 42.190881 96.349497 42.853889 
C 97.012504 43.516897 97.911862 43.889423 98.849497 43.889423 
z
" clip-path="url(#p58f37c7620)" style="fill: #3f007d; stroke: #ff0000; stroke-width: 2"/>
    <path d="M 48.385243 43.675303 
C 48.479006 43.675303 48.568942 43.63805 48.635243 43.57175 
C 48.701544 43.505449 48.738796 43.415513 48.738796 43.32175 
C 48.738796 43.227986 48.701544 43.13805 48.635243 43.07175 
C 48.568942 43.005449 48.479006 42.968196 48.385243 42.968196 
C 48.29148 42.968196 48.201544 43.005449 48.135243 43.07175 
C 48.068942 43.13805 48.03169 43.227986 48.03169 43.32175 
C 48.03169 43.415513 48.068942 43.505449 48.135243 43.57175 
C 48.201544 43.63805 48.29148 43.675303 48.385243 43.675303 
z
" clip-path="url(#p58f37c7620)" style="fill: #fcfbfd; stroke: #00ff00; stroke-width: 2"/>
    <path d="M 107.12422 49.048233 
C 107.217984 49.048233 107.30792 49.01098 107.37422 48.944679 
C 107.440521 48.878378 107.477774 48.788443 107.477774 48.694679 
C 107.477774 48.600916 107.440521 48.51098 107.37422 48.444679 
C 107.30792 48.378378 107.217984 48.341126 107.12422 48.341126 
C 107.030457 48.341126 106.940521 48.378378 106.87422 48.444679 
C 106.80792 48.51098 106.770667 48.600916 106.770667 48.694679 
C 106.770667 48.788443 106.80792 48.878378 106.87422 48.944679 
C 106.940521 49.01098 107.030457 49.048233 107.12422 49.048233 
z
" clip-path="url(#p58f37c7620)" style="fill: #fcfbfd; stroke: #00ff00; stroke-width: 2"/>
    <path d="M 43.032833 52.923255 
C 43.126597 52.923255 43.216533 52.886003 43.282833 52.819702 
C 43.349134 52.753401 43.386387 52.663465 43.386387 52.569702 
C 43.386387 52.475938 43.349134 52.386003 43.282833 52.319702 
C 43.216533 52.253401 43.126597 52.216148 43.032833 52.216148 
C 42.93907 52.216148 42.849134 52.253401 42.782833 52.319702 
C 42.716533 52.386003 42.67928 52.475938 42.67928 52.569702 
C 42.67928 52.663465 42.716533 52.753401 42.782833 52.819702 
C 42.849134 52.886003 42.93907 52.923255 43.032833 52.923255 
z
" clip-path="url(#p58f37c7620)" style="fill: #fcfbfd; stroke: #ff0000; stroke-width: 2"/>
    <path d="M 103.415925 58.615893 
C 103.509688 58.615893 103.599624 58.57864 103.665925 58.51234 
C 103.732225 58.446039 103.769478 58.356103 103.769478 58.26234 
C 103.769478 58.168576 103.732225 58.07864 103.665925 58.01234 
C 103.599624 57.946039 103.509688 57.908786 103.415925 57.908786 
C 103.322161 57.908786 103.232225 57.946039 103.165925 58.01234 
C 103.099624 58.07864 103.062371 58.168576 103.062371 58.26234 
C 103.062371 58.356103 103.099624 58.446039 103.165925 58.51234 
C 103.232225 58.57864 103.322161 58.615893 103.415925 58.615893 
z
" clip-path="url(#p58f37c7620)" style="fill: #fcfbfd; stroke: #ff0000; stroke-width: 2"/>
    <path d="M 50.10111 61.932386 
C 50.194873 61.932386 50.284809 61.895134 50.35111 61.828833 
C 50.417411 61.762532 50.454663 61.672596 50.454663 61.578833 
C 50.454663 61.485069 50.417411 61.395134 50.35111 61.328833 
C 50.284809 61.262532 50.194873 61.225279 50.10111 61.225279 
C 50.007347 61.225279 49.917411 61.262532 49.85111 61.328833 
C 49.784809 61.395134 49.747557 61.485069 49.747557 61.578833 
C 49.747557 61.672596 49.784809 61.762532 49.85111 61.828833 
C 49.917411 61.895134 50.007347 61.932386 50.10111 61.932386 
z
" clip-path="url(#p58f37c7620)" style="fill: #fcfbfd; stroke: #00ff00; stroke-width: 2"/>
    <path d="M 88.282624 68.805488 
C 89.220258 68.805488 90.119616 68.432961 90.782624 67.769954 
C 91.445632 67.106946 91.818158 66.207588 91.818158 65.269954 
C 91.818158 64.332319 91.445632 63.432961 90.782624 62.769954 
C 90.119616 62.106946 89.220258 61.73442 88.282624 61.73442 
C 87.344989 61.73442 86.445632 62.106946 85.782624 62.769954 
C 85.119616 63.432961 84.74709 64.332319 84.74709 65.269954 
C 84.74709 66.207588 85.119616 67.106946 85.782624 67.769954 
C 86.445632 68.432961 87.344989 68.805488 88.282624 68.805488 
z
" clip-path="url(#p58f37c7620)" style="fill: #3f007d; stroke: #00ff00; stroke-width: 2"/>
    <path d="M 67.556853 70.118168 
C 68.494488 70.118168 69.393846 69.745642 70.056853 69.082634 
C 70.719861 68.419626 71.092387 67.520268 71.092387 66.582634 
C 71.092387 65.644999 70.719861 64.745642 70.056853 64.082634 
C 69.393846 63.419626 68.494488 63.0471 67.556853 63.0471 
C 66.619219 63.0471 65.719861 63.419626 65.056853 64.082634 
C 64.393846 64.745642 64.02132 65.644999 64.02132 66.582634 
C 64.02132 67.520268 64.393846 68.419626 65.056853 69.082634 
C 65.719861 69.745642 66.619219 70.118168 67.556853 70.118168 
z
" clip-path="url(#p58f37c7620)" style="fill: #3f007d; stroke: #00ff00; stroke-width: 2"/>
   </g>
   <g id="patch_13">
    <path d="M 95.968726 87.977033 
Q 75.166245 85.836399 54.363763 83.695764 
" clip-path="url(#p58f37c7620)" style="fill: none; opacity: 0.613636; stroke: #dedede; stroke-width: 0.227273; stroke-linecap: round"/>
   </g>
   <g id="patch_14">
    <path d="M 104.579504 87.481151 
Q 105.247145 88.240831 105.914786 89.000511 
" clip-path="url(#p58f37c7620)" style="fill: none; opacity: 0.698052; stroke: #b6b6b6; stroke-width: 0.396104; stroke-linecap: round"/>
   </g>
   <g id="patch_15">
    <path d="M 59.337695 84.207596 
Q 80.140177 86.34823 100.942659 88.488865 
" clip-path="url(#p58f37c7620)" style="fill: none; opacity: 0.613636; stroke: #dedede; stroke-width: 0.227273; stroke-linecap: round"/>
   </g>
   <g id="patch_16">
    <path d="M 88.42434 61.159456 
Q 71.158115 62.239835 53.891891 63.320213 
" clip-path="url(#p58f37c7620)" style="fill: none; opacity: 0.920354; stroke: #323232; stroke-width: 0.840708; stroke-linecap: round"/>
   </g>
   <g id="patch_17">
    <path d="M 54.390628 61.230361 
Q 53.93604 61.429186 53.481452 61.628012 
" clip-path="url(#p58f37c7620)" style="fill: none; opacity: 0.783186; stroke: #848484; stroke-width: 0.566372; stroke-linecap: round"/>
   </g>
   <g id="patch_18">
    <path d="M 58.878564 63.008188 
Q 76.144789 61.92781 93.411013 60.847431 
" clip-path="url(#p58f37c7620)" style="fill: none; opacity: 0.920354; stroke: #323232; stroke-width: 0.840708; stroke-linecap: round"/>
   </g>
   <g id="patch_19">
    <path d="M 58.061903 59.624636 
Q 58.516491 59.42581 58.971079 59.226985 
" clip-path="url(#p58f37c7620)" style="fill: none; opacity: 0.783186; stroke: #848484; stroke-width: 0.566372; stroke-linecap: round"/>
   </g>
   <g id="patch_20">
    <path d="M 99.502569 71.795743 
Q 98.845687 71.069079 98.188804 70.342415 
" clip-path="url(#p58f37c7620)" style="fill: none; opacity: 0.714286; stroke: #adadad; stroke-width: 0.428571; stroke-linecap: round"/>
   </g>
   <g id="patch_21">
    <path d="M 104.89468 77.760671 
Q 105.551562 78.487335 106.208444 79.213999 
" clip-path="url(#p58f37c7620)" style="fill: none; opacity: 0.714286; stroke: #adadad; stroke-width: 0.428571; stroke-linecap: round"/>
   </g>
   <g id="patch_22">
    <path d="M 44.836688 92.088999 
Q 44.554894 92.639904 44.273099 93.19081 
" clip-path="url(#p58f37c7620)" style="fill: none; opacity: 0.704545; stroke: #b3b3b3; stroke-width: 0.409091; stroke-linecap: round"/>
   </g>
   <g id="patch_23">
    <path d="M 48.828047 84.285929 
Q 49.109841 83.735023 49.391636 83.184118 
" clip-path="url(#p58f37c7620)" style="fill: none; opacity: 0.704545; stroke: #b3b3b3; stroke-width: 0.409091; stroke-linecap: round"/>
   </g>
   <g id="patch_24">
    <path d="M 89.16851 37.85757 
Q 88.152931 37.595695 87.137351 37.333819 
" clip-path="url(#p58f37c7620)" style="fill: none; opacity: 0.859113; stroke: #5b5b5b; stroke-width: 0.718227; stroke-linecap: round"/>
   </g>
   <g id="patch_25">
    <path d="M 91.973773 38.580929 
Q 92.989352 38.842804 94.004932 39.10468 
" clip-path="url(#p58f37c7620)" style="fill: none; opacity: 0.859113; stroke: #5b5b5b; stroke-width: 0.718227; stroke-linecap: round"/>
   </g>
   <g id="patch_26">
    <path d="M 97.708179 64.480884 
Q 92.134732 61.467892 86.561286 58.4549 
" clip-path="url(#p58f37c7620)" style="fill: none; opacity: 0.707965; stroke: #b0b0b0; stroke-width: 0.415929; stroke-linecap: round"/>
   </g>
   <g id="patch_27">
    <path d="M 90.962107 60.833973 
Q 96.535553 63.846965 102.109 66.859958 
" clip-path="url(#p58f37c7620)" style="fill: none; opacity: 0.707965; stroke: #b0b0b0; stroke-width: 0.415929; stroke-linecap: round"/>
   </g>
   <g id="patch_28">
    <path d="M 73.011854 69.97563 
Q 60.762463 75.609173 48.513072 81.242716 
" clip-path="url(#p58f37c7620)" style="fill: none; opacity: 0.595238; stroke: #e4e4e4; stroke-width: 0.190476; stroke-linecap: round"/>
   </g>
   <g id="patch_29">
    <path d="M 44.488811 82.349536 
Q 44.230435 82.840341 43.972059 83.331145 
" clip-path="url(#p58f37c7620)" style="fill: none; opacity: 0.636905; stroke: #d4d4d4; stroke-width: 0.27381; stroke-linecap: round"/>
   </g>
   <g id="patch_30">
    <path d="M 53.059357 79.151861 
Q 65.308749 73.518318 77.55814 67.884776 
" clip-path="url(#p58f37c7620)" style="fill: none; opacity: 0.595238; stroke: #e4e4e4; stroke-width: 0.190476; stroke-linecap: round"/>
   </g>
   <g id="patch_31">
    <path d="M 48.630408 74.482263 
Q 48.888784 73.991459 49.14716 73.500654 
" clip-path="url(#p58f37c7620)" style="fill: none; opacity: 0.636905; stroke: #d4d4d4; stroke-width: 0.27381; stroke-linecap: round"/>
   </g>
   <g id="patch_32">
    <path d="M 99.88644 51.85406 
Q 99.255755 51.19732 98.625069 50.540579 
" clip-path="url(#p58f37c7620)" style="fill: none; opacity: 0.836439; stroke: #666666; stroke-width: 0.672878; stroke-linecap: round"/>
   </g>
   <g id="patch_33">
    <path d="M 105.551619 57.753273 
Q 106.182305 58.410014 106.812991 59.066754 
" clip-path="url(#p58f37c7620)" style="fill: none; opacity: 0.836439; stroke: #666666; stroke-width: 0.672878; stroke-linecap: round"/>
   </g>
   <g id="patch_34">
    <path d="M 59.439365 85.544768 
Q 56.350057 91.977099 53.260748 98.40943 
" clip-path="url(#p58f37c7620)" style="fill: none; opacity: 0.603896; stroke: #e1e1e1; stroke-width: 0.207792; stroke-linecap: round"/>
   </g>
   <g id="patch_35">
    <path d="M 55.42591 93.901288 
Q 58.515219 87.468957 61.604527 81.036626 
" clip-path="url(#p58f37c7620)" style="fill: none; opacity: 0.603896; stroke: #e1e1e1; stroke-width: 0.207792; stroke-linecap: round"/>
   </g>
   <g id="patch_36">
    <path d="M 59.233544 75.930937 
Q 56.151626 82.169267 53.069708 88.407597 
" clip-path="url(#p58f37c7620)" style="fill: none; opacity: 0.690476; stroke: #bbbbbb; stroke-width: 0.380952; stroke-linecap: round"/>
   </g>
   <g id="patch_37">
    <path d="M 55.283868 83.925758 
Q 58.365786 77.687428 61.447704 71.449098 
" clip-path="url(#p58f37c7620)" style="fill: none; opacity: 0.690476; stroke: #bbbbbb; stroke-width: 0.380952; stroke-linecap: round"/>
   </g>
   <g id="patch_38">
    <path d="M 93.445796 103.947189 
Q 92.823064 104.270619 92.200333 104.594049 
" clip-path="url(#p58f37c7620)" style="fill: none; opacity: 0.603896; stroke: #e1e1e1; stroke-width: 0.207792; stroke-linecap: round"/>
   </g>
   <g id="patch_39">
    <path d="M 53.810828 96.196717 
Q 68.402553 100.795441 82.994278 105.394164 
" clip-path="url(#p58f37c7620)" style="fill: none; opacity: 0.792208; stroke: #7e7e7e; stroke-width: 0.584416; stroke-linecap: round"/>
   </g>
   <g id="patch_40">
    <path d="M 61.037086 103.997118 
Q 71.916479 105.177773 82.795873 106.358428 
" clip-path="url(#p58f37c7620)" style="fill: none; opacity: 0.824675; stroke: #6d6d6d; stroke-width: 0.649351; stroke-linecap: round"/>
   </g>
   <g id="patch_41">
    <path d="M 96.636178 102.290189 
Q 97.25891 101.966759 97.881641 101.643328 
" clip-path="url(#p58f37c7620)" style="fill: none; opacity: 0.603896; stroke: #e1e1e1; stroke-width: 0.207792; stroke-linecap: round"/>
   </g>
   <g id="patch_42">
    <path d="M 78.2272 103.891773 
Q 63.635475 99.29305 49.04375 94.694327 
" clip-path="url(#p58f37c7620)" style="fill: none; opacity: 0.792208; stroke: #7e7e7e; stroke-width: 0.584416; stroke-linecap: round"/>
   </g>
   <g id="patch_43">
    <path d="M 77.82312 105.818775 
Q 66.943727 104.63812 56.064334 103.457465 
" clip-path="url(#p58f37c7620)" style="fill: none; opacity: 0.824675; stroke: #6d6d6d; stroke-width: 0.649351; stroke-linecap: round"/>
   </g>
   <g id="patch_44">
    <path d="M 90.69364 86.824045 
Q 81.101126 95.853897 71.508611 104.883749 
" clip-path="url(#p58f37c7620)" style="fill: none; stroke: #000000; stroke-linecap: round"/>
   </g>
   <g id="patch_45">
    <path d="M 65.048704 86.448777 
Q 66.137945 94.899722 67.227185 103.350666 
" clip-path="url(#p58f37c7620)" style="fill: none; opacity: 0.616883; stroke: #dcdcdc; stroke-width: 0.233766; stroke-linecap: round"/>
   </g>
   <g id="patch_46">
    <path d="M 75.149755 101.456182 
Q 84.742269 92.426329 94.334784 83.396477 
" clip-path="url(#p58f37c7620)" style="fill: none; stroke: #000000; stroke-linecap: round"/>
   </g>
   <g id="patch_47">
    <path d="M 66.587953 98.391144 
Q 65.498713 89.940199 64.409472 81.489255 
" clip-path="url(#p58f37c7620)" style="fill: none; opacity: 0.616883; stroke: #dcdcdc; stroke-width: 0.233766; stroke-linecap: round"/>
   </g>
   <g id="patch_48">
    <path d="M 92.87739 79.870027 
Q 74.236274 81.102413 55.595158 82.3348 
" clip-path="url(#p58f37c7620)" style="fill: none; opacity: 0.836283; stroke: #676767; stroke-width: 0.672566; stroke-linecap: round"/>
   </g>
   <g id="patch_49">
    <path d="M 60.586342 82.004827 
Q 79.227459 80.77244 97.868575 79.540053 
" clip-path="url(#p58f37c7620)" style="fill: none; opacity: 0.836283; stroke: #676767; stroke-width: 0.672566; stroke-linecap: round"/>
   </g>
   <g id="patch_50">
    <path d="M 83.935088 75.626631 
Q 85.453834 83.758567 86.97258 91.890504 
" clip-path="url(#p58f37c7620)" style="fill: none; opacity: 0.815476; stroke: #717171; stroke-width: 0.630952; stroke-linecap: round"/>
   </g>
   <g id="patch_51">
    <path d="M 53.533636 86.264589 
Q 68.323587 90.802071 83.113538 95.339554 
" clip-path="url(#p58f37c7620)" style="fill: none; opacity: 0.613095; stroke: #dedede; stroke-width: 0.22619; stroke-linecap: round"/>
   </g>
   <g id="patch_52">
    <path d="M 60.795909 93.942573 
Q 71.857636 95.111234 82.919363 96.279894 
" clip-path="url(#p58f37c7620)" style="fill: none; stroke: #000000; stroke-linecap: round"/>
   </g>
   <g id="patch_53">
    <path d="M 86.054508 86.974799 
Q 84.535761 78.842863 83.017015 70.710926 
" clip-path="url(#p58f37c7620)" style="fill: none; opacity: 0.815476; stroke: #717171; stroke-width: 0.630952; stroke-linecap: round"/>
   </g>
   <g id="patch_54">
    <path d="M 78.328866 93.87164 
Q 63.538915 89.334158 48.748963 84.796675 
" clip-path="url(#p58f37c7620)" style="fill: none; opacity: 0.613095; stroke: #dedede; stroke-width: 0.22619; stroke-linecap: round"/>
   </g>
   <g id="patch_55">
    <path d="M 77.948698 95.754748 
Q 66.886971 94.586088 55.825244 93.417428 
" clip-path="url(#p58f37c7620)" style="fill: none; stroke: #000000; stroke-linecap: round"/>
   </g>
   <g id="patch_56">
    <path d="M 90.817694 77.096705 
Q 81.14711 85.958047 71.476526 94.81939 
" clip-path="url(#p58f37c7620)" style="fill: none; stroke: #000000; stroke-linecap: round"/>
   </g>
   <g id="patch_57">
    <path d="M 55.17154 81.480217 
Q 59.975681 87.843518 64.779822 94.206819 
" clip-path="url(#p58f37c7620)" style="fill: none; opacity: 0.642857; stroke: #d2d2d2; stroke-width: 0.285714; stroke-linecap: round"/>
   </g>
   <g id="patch_58">
    <path d="M 60.393853 95.879488 
Q 61.706873 96.290646 63.019893 96.701804 
" clip-path="url(#p58f37c7620)" style="fill: none; opacity: 0.625; stroke: #dadada; stroke-width: 0.25; stroke-linecap: round"/>
   </g>
   <g id="patch_59">
    <path d="M 75.162666 91.441708 
Q 84.833251 82.580365 94.503835 73.719023 
" clip-path="url(#p58f37c7620)" style="fill: none; stroke: #000000; stroke-linecap: round"/>
   </g>
   <g id="patch_60">
    <path d="M 61.767177 90.216436 
Q 56.963036 83.853134 52.158895 77.489833 
" clip-path="url(#p58f37c7620)" style="fill: none; opacity: 0.642857; stroke: #d2d2d2; stroke-width: 0.285714; stroke-linecap: round"/>
   </g>
   <g id="patch_61">
    <path d="M 58.251868 95.208749 
Q 56.938848 94.797591 55.625828 94.386433 
" clip-path="url(#p58f37c7620)" style="fill: none; opacity: 0.625; stroke: #dadada; stroke-width: 0.25; stroke-linecap: round"/>
   </g>
   <g id="patch_62">
    <path d="M 94.691295 69.821172 
Q 92.282674 75.84419 89.874053 81.867208 
" clip-path="url(#p58f37c7620)" style="fill: none; stroke: #000000; stroke-linecap: round"/>
   </g>
   <g id="patch_63">
    <path d="M 60.559012 83.686618 
Q 71.803261 84.841601 83.04751 85.996584 
" clip-path="url(#p58f37c7620)" style="fill: none; opacity: 0.929204; stroke: #2b2b2b; stroke-width: 0.858407; stroke-linecap: round"/>
   </g>
   <g id="patch_64">
    <path d="M 91.732093 77.220977 
Q 94.140714 71.197959 96.549335 65.174941 
" clip-path="url(#p58f37c7620)" style="fill: none; stroke: #000000; stroke-linecap: round"/>
   </g>
   <g id="patch_65">
    <path d="M 78.067696 85.485069 
Q 66.823447 84.330086 55.579198 83.175103 
" clip-path="url(#p58f37c7620)" style="fill: none; opacity: 0.929204; stroke: #2b2b2b; stroke-width: 0.858407; stroke-linecap: round"/>
   </g>
   <g id="patch_66">
    <path d="M 90.936563 67.187682 
Q 81.192374 75.867742 71.448184 84.547802 
" clip-path="url(#p58f37c7620)" style="fill: none; opacity: 0.957965; stroke: #181818; stroke-width: 0.915929; stroke-linecap: round"/>
   </g>
   <g id="patch_67">
    <path d="M 75.183234 81.220645 
Q 84.927423 72.540584 94.671613 63.860524 
" clip-path="url(#p58f37c7620)" style="fill: none; opacity: 0.957965; stroke: #181818; stroke-width: 0.915929; stroke-linecap: round"/>
   </g>
   <g id="patch_68">
    <path d="M 77.693223 87.201955 
Q 80.361513 87.022413 83.029803 86.84287 
" clip-path="url(#p58f37c7620)" style="fill: none; opacity: 0.902655; stroke: #3f3f3f; stroke-width: 0.80531; stroke-linecap: round"/>
   </g>
   <g id="patch_69">
    <path d="M 78.040208 87.178608 
Q 75.371917 87.35815 72.703627 87.537693 
" clip-path="url(#p58f37c7620)" style="fill: none; opacity: 0.902655; stroke: #3f3f3f; stroke-width: 0.80531; stroke-linecap: round"/>
   </g>
   <g id="patch_70">
    <path d="M 94.820665 59.785559 
Q 92.436955 65.578147 90.053246 71.370734 
" clip-path="url(#p58f37c7620)" style="fill: none; opacity: 0.878882; stroke: #505050; stroke-width: 0.757764; stroke-linecap: round"/>
   </g>
   <g id="patch_71">
    <path d="M 60.308073 73.221188 
Q 71.742583 74.361508 83.177093 75.501829 
" clip-path="url(#p58f37c7620)" style="fill: none; opacity: 0.780538; stroke: #858585; stroke-width: 0.561077; stroke-linecap: round"/>
   </g>
   <g id="patch_72">
    <path d="M 91.953614 66.7527 
Q 94.337324 60.960113 96.721033 55.167525 
" clip-path="url(#p58f37c7620)" style="fill: none; opacity: 0.878882; stroke: #505050; stroke-width: 0.757764; stroke-linecap: round"/>
   </g>
   <g id="patch_73">
    <path d="M 78.198368 75.00532 
Q 66.763858 73.864999 55.329348 72.724678 
" clip-path="url(#p58f37c7620)" style="fill: none; opacity: 0.780538; stroke: #858585; stroke-width: 0.561077; stroke-linecap: round"/>
   </g>
   <g id="patch_74">
    <path d="M 91.061441 57.081234 
Q 81.240607 65.57381 71.419774 74.066386 
" clip-path="url(#p58f37c7620)" style="fill: none; stroke: #000000; stroke-linecap: round"/>
   </g>
   <g id="patch_75">
    <path d="M 64.826188 57.201366 
Q 65.885963 64.794316 66.945738 72.387266 
" clip-path="url(#p58f37c7620)" style="fill: none; opacity: 0.744306; stroke: #9a9a9a; stroke-width: 0.488613; stroke-linecap: round"/>
   </g>
   <g id="patch_76">
    <path d="M 75.20033 70.797146 
Q 85.021163 62.304571 94.841996 53.811995 
" clip-path="url(#p58f37c7620)" style="fill: none; stroke: #000000; stroke-linecap: round"/>
   </g>
   <g id="patch_77">
    <path d="M 66.254222 67.432773 
Q 65.194447 59.839822 64.134672 52.246872 
" clip-path="url(#p58f37c7620)" style="fill: none; opacity: 0.744306; stroke: #9a9a9a; stroke-width: 0.488613; stroke-linecap: round"/>
   </g>
   <g id="patch_78">
    <path d="M 77.615016 76.685899 
Q 80.386157 76.504855 83.157298 76.323811 
" clip-path="url(#p58f37c7620)" style="fill: none; opacity: 0.836439; stroke: #666666; stroke-width: 0.672878; stroke-linecap: round"/>
   </g>
   <g id="patch_79">
    <path d="M 78.170897 76.649582 
Q 75.399755 76.830626 72.628614 77.01167 
" clip-path="url(#p58f37c7620)" style="fill: none; opacity: 0.836439; stroke: #666666; stroke-width: 0.672878; stroke-linecap: round"/>
   </g>
   <g id="patch_80">
    <path d="M 94.944965 49.560545 
Q 92.590536 55.112149 90.236108 60.663753 
" clip-path="url(#p58f37c7620)" style="fill: none; opacity: 0.919212; stroke: #323232; stroke-width: 0.838424; stroke-linecap: round"/>
   </g>
   <g id="patch_81">
    <path d="M 84.302804 45.878373 
Q 85.789892 53.124177 87.276981 60.369982 
" clip-path="url(#p58f37c7620)" style="fill: none; opacity: 0.775862; stroke: #888888; stroke-width: 0.551724; stroke-linecap: round"/>
   </g>
   <g id="patch_82">
    <path d="M 92.187156 56.063298 
Q 94.541584 50.511694 96.896012 44.96009 
" clip-path="url(#p58f37c7620)" style="fill: none; opacity: 0.919212; stroke: #323232; stroke-width: 0.838424; stroke-linecap: round"/>
   </g>
   <g id="patch_83">
    <path d="M 86.272606 55.47619 
Q 84.785518 48.230386 83.298429 40.984582 
" clip-path="url(#p58f37c7620)" style="fill: none; opacity: 0.775862; stroke: #888888; stroke-width: 0.551724; stroke-linecap: round"/>
   </g>
   <g id="patch_84">
    <path d="M 91.182952 46.779804 
Q 81.286351 55.074898 71.38975 63.369992 
" clip-path="url(#p58f37c7620)" style="fill: none; stroke: #000000; stroke-linecap: round"/>
   </g>
   <g id="patch_85">
    <path d="M 77.941441 45.090313 
Q 73.836157 53.586758 69.730873 62.083204 
" clip-path="url(#p58f37c7620)" style="fill: none; opacity: 0.721675; stroke: #a8a8a8; stroke-width: 0.44335; stroke-linecap: round"/>
   </g>
   <g id="patch_86">
    <path d="M 75.223398 60.15672 
Q 85.119999 51.861625 95.016601 43.566531 
" clip-path="url(#p58f37c7620)" style="fill: none; stroke: #000000; stroke-linecap: round"/>
   </g>
   <g id="patch_87">
    <path d="M 71.908199 57.576931 
Q 76.013483 49.080485 80.118767 40.58404 
" clip-path="url(#p58f37c7620)" style="fill: none; opacity: 0.721675; stroke: #a8a8a8; stroke-width: 0.44335; stroke-linecap: round"/>
   </g>
   <g id="patch_88">
    <path d="M 77.537708 65.95049 
Q 80.414124 65.76831 83.29054 65.586131 
" clip-path="url(#p58f37c7620)" style="fill: none; opacity: 0.908867; stroke: #393939; stroke-width: 0.817734; stroke-linecap: round"/>
   </g>
   <g id="patch_89">
    <path d="M 78.301769 65.902098 
Q 75.425353 66.084277 72.548937 66.266457 
" clip-path="url(#p58f37c7620)" style="fill: none; opacity: 0.908867; stroke: #393939; stroke-width: 0.817734; stroke-linecap: round"/>
   </g>
  </g>
 </g>
 <defs>
  <clipPath id="p58f37c7620">
   <rect x="18.36" y="17.28" width="110.88" height="110.88"/>
  </clipPath>
 </defs>
</svg>
