<?xml version="1.0" encoding="utf-8" standalone="no"?>
<!DOCTYPE svg PUBLIC "-//W3C//DTD SVG 1.1//EN"
  "http://www.w3.org/Graphics/SVG/1.1/DTD/svg11.dtd">
<svg xmlns:xlink="http://www.w3.org/1999/xlink" width="144pt" height="144pt" viewBox="0 0 144 144" xmlns="http://www.w3.org/2000/svg" version="1.1">
 <metadata>
  <rdf:RDF xmlns:dc="http://purl.org/dc/elements/1.1/" xmlns:cc="http://creativecommons.org/ns#" xmlns:rdf="http://www.w3.org/1999/02/22-rdf-syntax-ns#">
   <cc:Work>
    <dc:type rdf:resource="http://purl.org/dc/dcmitype/StillImage"/>
    <dc:date>2025-06-03T17:18:15.746561</dc:date>
    <dc:format>image/svg+xml</dc:format>
    <dc:creator>
     <cc:Agent>
      <dc:title>Matplotlib v3.9.2, https://matplotlib.org/</dc:title>
     </cc:Agent>
    </dc:creator>
   </cc:Work>
  </rdf:RDF>
 </metadata>
 <defs>
  <style type="text/css">*{stroke-linejoin: round; stroke-linecap: butt}</style>
 </defs>
 <g id="figure_1">
  <g id="patch_1">
   <path d="M 0 144 
L 144 144 
L 144 0 
L 0 0 
z
" style="fill: #ffffff"/>
  </g>
  <g id="axes_1">
   <g id="patch_2">
    <path d="M 18 128.16 
L 129.6 128.16 
L 129.6 17.28 
L 18 17.28 
z
" style="fill: #ffffff"/>
   </g>
   <g id="matplotlib.axis_1">
    <g id="xtick_1">
     <g id="line2d_1">
      <defs>
       <path id="m79f29a85b5" d="M 0 0 
L 0 3.5 
" style="stroke: #000000; stroke-width: 0.8"/>
      </defs>
      <g>
       <use xlink:href="#m79f29a85b5" x="18" y="128.16" style="stroke: #000000; stroke-width: 0.8"/>
      </g>
     </g>
     <g id="text_1">
      <!-- 0.0 -->
      <g transform="translate(10.048437 142.758438) scale(0.1 -0.1)">
       <defs>
        <path id="DejaVuSerif-30" d="M 2034 219 
Q 2513 219 2750 744 
Q 2988 1269 2988 2328 
Q 2988 3391 2750 3916 
Q 2513 4441 2034 4441 
Q 1556 4441 1318 3916 
Q 1081 3391 1081 2328 
Q 1081 1269 1318 744 
Q 1556 219 2034 219 
z
M 2034 -91 
Q 1275 -91 848 546 
Q 422 1184 422 2328 
Q 422 3475 848 4112 
Q 1275 4750 2034 4750 
Q 2797 4750 3222 4112 
Q 3647 3475 3647 2328 
Q 3647 1184 3222 546 
Q 2797 -91 2034 -91 
z
" transform="scale(0.015625)"/>
        <path id="DejaVuSerif-2e" d="M 603 325 
Q 603 500 722 622 
Q 841 744 1019 744 
Q 1191 744 1312 622 
Q 1434 500 1434 325 
Q 1434 153 1312 31 
Q 1191 -91 1019 -91 
Q 841 -91 722 29 
Q 603 150 603 325 
z
" transform="scale(0.015625)"/>
       </defs>
       <use xlink:href="#DejaVuSerif-30"/>
       <use xlink:href="#DejaVuSerif-2e" x="63.623047"/>
       <use xlink:href="#DejaVuSerif-30" x="95.410156"/>
      </g>
     </g>
    </g>
    <g id="xtick_2">
     <g id="line2d_2">
      <g>
       <use xlink:href="#m79f29a85b5" x="73.8" y="128.16" style="stroke: #000000; stroke-width: 0.8"/>
      </g>
     </g>
     <g id="text_2">
      <!-- 0.5 -->
      <g transform="translate(65.848438 142.758438) scale(0.1 -0.1)">
       <defs>
        <path id="DejaVuSerif-35" d="M 3219 4666 
L 3219 4153 
L 1081 4153 
L 1081 2816 
Q 1244 2928 1461 2984 
Q 1678 3041 1947 3041 
Q 2703 3041 3140 2622 
Q 3578 2203 3578 1478 
Q 3578 738 3136 323 
Q 2694 -91 1894 -91 
Q 1572 -91 1234 -12 
Q 897 66 544 225 
L 544 1131 
L 897 1131 
Q 925 688 1179 453 
Q 1434 219 1894 219 
Q 2388 219 2653 544 
Q 2919 869 2919 1478 
Q 2919 2084 2655 2407 
Q 2391 2731 1894 2731 
Q 1613 2731 1398 2631 
Q 1184 2531 1019 2322 
L 750 2322 
L 750 4666 
L 3219 4666 
z
" transform="scale(0.015625)"/>
       </defs>
       <use xlink:href="#DejaVuSerif-30"/>
       <use xlink:href="#DejaVuSerif-2e" x="63.623047"/>
       <use xlink:href="#DejaVuSerif-35" x="95.410156"/>
      </g>
     </g>
    </g>
    <g id="xtick_3">
     <g id="line2d_3">
      <g>
       <use xlink:href="#m79f29a85b5" x="129.6" y="128.16" style="stroke: #000000; stroke-width: 0.8"/>
      </g>
     </g>
     <g id="text_3">
      <!-- 1.0 -->
      <g transform="translate(121.648438 142.758438) scale(0.1 -0.1)">
       <defs>
        <path id="DejaVuSerif-31" d="M 909 0 
L 909 331 
L 1722 331 
L 1722 4213 
L 781 3603 
L 781 4013 
L 1919 4750 
L 2350 4750 
L 2350 331 
L 3163 331 
L 3163 0 
L 909 0 
z
" transform="scale(0.015625)"/>
       </defs>
       <use xlink:href="#DejaVuSerif-31"/>
       <use xlink:href="#DejaVuSerif-2e" x="63.623047"/>
       <use xlink:href="#DejaVuSerif-30" x="95.410156"/>
      </g>
     </g>
    </g>
   </g>
   <g id="matplotlib.axis_2">
    <g id="ytick_1">
     <g id="line2d_4">
      <defs>
       <path id="mb7e37e481e" d="M 0 0 
L -3.5 0 
" style="stroke: #000000; stroke-width: 0.8"/>
      </defs>
      <g>
       <use xlink:href="#mb7e37e481e" x="18" y="128.16" style="stroke: #000000; stroke-width: 0.8"/>
      </g>
     </g>
     <g id="text_4">
      <!-- 0.0 -->
      <g transform="translate(-4.903125 131.959219) scale(0.1 -0.1)">
       <use xlink:href="#DejaVuSerif-30"/>
       <use xlink:href="#DejaVuSerif-2e" x="63.623047"/>
       <use xlink:href="#DejaVuSerif-30" x="95.410156"/>
      </g>
     </g>
    </g>
    <g id="ytick_2">
     <g id="line2d_5">
      <g>
       <use xlink:href="#mb7e37e481e" x="18" y="105.984" style="stroke: #000000; stroke-width: 0.8"/>
      </g>
     </g>
     <g id="text_5">
      <!-- 0.2 -->
      <g transform="translate(-4.903125 109.783219) scale(0.1 -0.1)">
       <defs>
        <path id="DejaVuSerif-32" d="M 819 3553 
L 469 3553 
L 469 4384 
Q 803 4563 1142 4656 
Q 1481 4750 1806 4750 
Q 2534 4750 2956 4397 
Q 3378 4044 3378 3438 
Q 3378 2753 2422 1800 
Q 2347 1728 2309 1691 
L 1131 513 
L 3078 513 
L 3078 1088 
L 3444 1088 
L 3444 0 
L 434 0 
L 434 341 
L 1850 1753 
Q 2319 2222 2519 2614 
Q 2719 3006 2719 3438 
Q 2719 3909 2473 4175 
Q 2228 4441 1797 4441 
Q 1350 4441 1106 4219 
Q 863 3997 819 3553 
z
" transform="scale(0.015625)"/>
       </defs>
       <use xlink:href="#DejaVuSerif-30"/>
       <use xlink:href="#DejaVuSerif-2e" x="63.623047"/>
       <use xlink:href="#DejaVuSerif-32" x="95.410156"/>
      </g>
     </g>
    </g>
    <g id="ytick_3">
     <g id="line2d_6">
      <g>
       <use xlink:href="#mb7e37e481e" x="18" y="83.808" style="stroke: #000000; stroke-width: 0.8"/>
      </g>
     </g>
     <g id="text_6">
      <!-- 0.4 -->
      <g transform="translate(-4.903125 87.607219) scale(0.1 -0.1)">
       <defs>
        <path id="DejaVuSerif-34" d="M 2234 1581 
L 2234 4063 
L 641 1581 
L 2234 1581 
z
M 3609 0 
L 1484 0 
L 1484 331 
L 2234 331 
L 2234 1247 
L 197 1247 
L 197 1588 
L 2241 4750 
L 2859 4750 
L 2859 1581 
L 3750 1581 
L 3750 1247 
L 2859 1247 
L 2859 331 
L 3609 331 
L 3609 0 
z
" transform="scale(0.015625)"/>
       </defs>
       <use xlink:href="#DejaVuSerif-30"/>
       <use xlink:href="#DejaVuSerif-2e" x="63.623047"/>
       <use xlink:href="#DejaVuSerif-34" x="95.410156"/>
      </g>
     </g>
    </g>
    <g id="ytick_4">
     <g id="line2d_7">
      <g>
       <use xlink:href="#mb7e37e481e" x="18" y="61.632" style="stroke: #000000; stroke-width: 0.8"/>
      </g>
     </g>
     <g id="text_7">
      <!-- 0.6 -->
      <g transform="translate(-4.903125 65.431219) scale(0.1 -0.1)">
       <defs>
        <path id="DejaVuSerif-36" d="M 2094 219 
Q 2534 219 2771 542 
Q 3009 866 3009 1472 
Q 3009 2078 2771 2401 
Q 2534 2725 2094 2725 
Q 1647 2725 1412 2412 
Q 1178 2100 1178 1509 
Q 1178 888 1415 553 
Q 1653 219 2094 219 
z
M 1075 2569 
Q 1288 2803 1556 2918 
Q 1825 3034 2163 3034 
Q 2859 3034 3264 2615 
Q 3669 2197 3669 1472 
Q 3669 763 3233 336 
Q 2797 -91 2069 -91 
Q 1278 -91 853 498 
Q 428 1088 428 2181 
Q 428 3406 931 4078 
Q 1434 4750 2350 4750 
Q 2597 4750 2869 4703 
Q 3141 4656 3425 4563 
L 3425 3794 
L 3072 3794 
Q 3034 4109 2831 4275 
Q 2628 4441 2284 4441 
Q 1678 4441 1381 3981 
Q 1084 3522 1075 2569 
z
" transform="scale(0.015625)"/>
       </defs>
       <use xlink:href="#DejaVuSerif-30"/>
       <use xlink:href="#DejaVuSerif-2e" x="63.623047"/>
       <use xlink:href="#DejaVuSerif-36" x="95.410156"/>
      </g>
     </g>
    </g>
    <g id="ytick_5">
     <g id="line2d_8">
      <g>
       <use xlink:href="#mb7e37e481e" x="18" y="39.456" style="stroke: #000000; stroke-width: 0.8"/>
      </g>
     </g>
     <g id="text_8">
      <!-- 0.8 -->
      <g transform="translate(-4.903125 43.255219) scale(0.1 -0.1)">
       <defs>
        <path id="DejaVuSerif-38" d="M 2981 1275 
Q 2981 1775 2732 2051 
Q 2484 2328 2034 2328 
Q 1584 2328 1336 2051 
Q 1088 1775 1088 1275 
Q 1088 772 1336 495 
Q 1584 219 2034 219 
Q 2484 219 2732 495 
Q 2981 772 2981 1275 
z
M 2853 3541 
Q 2853 3966 2637 4203 
Q 2422 4441 2034 4441 
Q 1650 4441 1433 4203 
Q 1216 3966 1216 3541 
Q 1216 3113 1433 2875 
Q 1650 2638 2034 2638 
Q 2422 2638 2637 2875 
Q 2853 3113 2853 3541 
z
M 2516 2484 
Q 3047 2413 3344 2092 
Q 3641 1772 3641 1275 
Q 3641 619 3225 264 
Q 2809 -91 2034 -91 
Q 1263 -91 845 264 
Q 428 619 428 1275 
Q 428 1772 725 2092 
Q 1022 2413 1556 2484 
Q 1084 2569 832 2842 
Q 581 3116 581 3541 
Q 581 4103 968 4426 
Q 1356 4750 2034 4750 
Q 2713 4750 3100 4426 
Q 3488 4103 3488 3541 
Q 3488 3116 3236 2842 
Q 2984 2569 2516 2484 
z
" transform="scale(0.015625)"/>
       </defs>
       <use xlink:href="#DejaVuSerif-30"/>
       <use xlink:href="#DejaVuSerif-2e" x="63.623047"/>
       <use xlink:href="#DejaVuSerif-38" x="95.410156"/>
      </g>
     </g>
    </g>
    <g id="ytick_6">
     <g id="line2d_9">
      <g>
       <use xlink:href="#mb7e37e481e" x="18" y="17.28" style="stroke: #000000; stroke-width: 0.8"/>
      </g>
     </g>
     <g id="text_9">
      <!-- 1.0 -->
      <g transform="translate(-4.903125 21.079219) scale(0.1 -0.1)">
       <use xlink:href="#DejaVuSerif-31"/>
       <use xlink:href="#DejaVuSerif-2e" x="63.623047"/>
       <use xlink:href="#DejaVuSerif-30" x="95.410156"/>
      </g>
     </g>
    </g>
   </g>
   <g id="patch_3">
    <path d="M 18 128.16 
L 18 17.28 
" style="fill: none; stroke: #000000; stroke-width: 0.8; stroke-linejoin: miter; stroke-linecap: square"/>
   </g>
   <g id="patch_4">
    <path d="M 129.6 128.16 
L 129.6 17.28 
" style="fill: none; stroke: #000000; stroke-width: 0.8; stroke-linejoin: miter; stroke-linecap: square"/>
   </g>
   <g id="patch_5">
    <path d="M 18 128.16 
L 129.6 128.16 
" style="fill: none; stroke: #000000; stroke-width: 0.8; stroke-linejoin: miter; stroke-linecap: square"/>
   </g>
   <g id="patch_6">
    <path d="M 18 17.28 
L 129.6 17.28 
" style="fill: none; stroke: #000000; stroke-width: 0.8; stroke-linejoin: miter; stroke-linecap: square"/>
   </g>
  </g>
  <g id="patch_7">
   <path d="M 18.36 128.16 
L 129.24 128.16 
L 129.24 17.28 
L 18.36 17.28 
z
" style="fill: #ffffff"/>
  </g>
  <g id="axes_2">
   <g id="patch_8">
    <path d="M 88.376295 77.17945 
Q 87.607094 76.956016 86.837894 76.732581 
" clip-path="url(#p519769b3b2)" style="fill: none; opacity: 0.525862; stroke: #f9f9f9; stroke-width: 0.051724; stroke-linecap: round"/>
   </g>
   <g id="Path3DCollection_1">
    <path d="M 82.036969 75.69158 
C 82.130732 75.69158 82.220668 75.654328 82.286969 75.588027 
C 82.35327 75.521726 82.390522 75.431791 82.390522 75.338027 
C 82.390522 75.244264 82.35327 75.154328 82.286969 75.088027 
C 82.220668 75.021726 82.130732 74.984474 82.036969 74.984474 
C 81.943205 74.984474 81.85327 75.021726 81.786969 75.088027 
C 81.720668 75.154328 81.683415 75.244264 81.683415 75.338027 
C 81.683415 75.431791 81.720668 75.521726 81.786969 75.588027 
C 81.85327 75.654328 81.943205 75.69158 82.036969 75.69158 
z
" clip-path="url(#p519769b3b2)" style="fill: #fff5f0; stroke: #00ff00; stroke-width: 2"/>
    <path d="M 63.769997 80.063378 
C 64.707632 80.063378 65.60699 79.690852 66.269997 79.027844 
C 66.933005 78.364836 67.305531 77.465479 67.305531 76.527844 
C 67.305531 75.59021 66.933005 74.690852 66.269997 74.027844 
C 65.60699 73.364836 64.707632 72.99231 63.769997 72.99231 
C 62.832363 72.99231 61.933005 73.364836 61.269997 74.027844 
C 60.60699 74.690852 60.234463 75.59021 60.234463 76.527844 
C 60.234463 77.465479 60.60699 78.364836 61.269997 79.027844 
C 61.933005 79.690852 62.832363 80.063378 63.769997 80.063378 
z
" clip-path="url(#p519769b3b2)" style="fill: #67000d; stroke: #00ff00; stroke-width: 2"/>
    <path d="M 97.976735 80.321703 
C 98.070498 80.321703 98.160434 80.28445 98.226735 80.21815 
C 98.293036 80.151849 98.330288 80.061913 98.330288 79.96815 
C 98.330288 79.874386 98.293036 79.78445 98.226735 79.71815 
C 98.160434 79.651849 98.070498 79.614596 97.976735 79.614596 
C 97.882972 79.614596 97.793036 79.651849 97.726735 79.71815 
C 97.660434 79.78445 97.623182 79.874386 97.623182 79.96815 
C 97.623182 80.061913 97.660434 80.151849 97.726735 80.21815 
C 97.793036 80.28445 97.882972 80.321703 97.976735 80.321703 
z
" clip-path="url(#p519769b3b2)" style="fill: #fff5f0; stroke: #00ff00; stroke-width: 2"/>
    <path d="M 49.391636 83.537671 
C 49.485399 83.537671 49.575335 83.500419 49.641636 83.434118 
C 49.707936 83.367817 49.745189 83.277881 49.745189 83.184118 
C 49.745189 83.090354 49.707936 83.000419 49.641636 82.934118 
C 49.575335 82.867817 49.485399 82.830565 49.391636 82.830565 
C 49.297872 82.830565 49.207936 82.867817 49.141636 82.934118 
C 49.075335 83.000419 49.038082 83.090354 49.038082 83.184118 
C 49.038082 83.277881 49.075335 83.367817 49.141636 83.434118 
C 49.207936 83.500419 49.297872 83.537671 49.391636 83.537671 
z
" clip-path="url(#p519769b3b2)" style="fill: #fff5f0; stroke: #00ff00; stroke-width: 2"/>
    <path d="M 105.914786 92.536045 
C 106.852421 92.536045 107.751778 92.163519 108.414786 91.500511 
C 109.077794 90.837503 109.45032 89.938145 109.45032 89.000511 
C 109.45032 88.062876 109.077794 87.163519 108.414786 86.500511 
C 107.751778 85.837503 106.852421 85.464977 105.914786 85.464977 
C 104.977152 85.464977 104.077794 85.837503 103.414786 86.500511 
C 102.751778 87.163519 102.379252 88.062876 102.379252 89.000511 
C 102.379252 89.938145 102.751778 90.837503 103.414786 91.500511 
C 104.077794 92.163519 104.977152 92.536045 105.914786 92.536045 
z
" clip-path="url(#p519769b3b2)" style="fill: #67000d; stroke: #00ff00; stroke-width: 2"/>
    <path d="M 44.273099 93.544363 
C 44.366863 93.544363 44.456799 93.507111 44.523099 93.44081 
C 44.5894 93.374509 44.626653 93.284573 44.626653 93.19081 
C 44.626653 93.097046 44.5894 93.007111 44.523099 92.94081 
C 44.456799 92.874509 44.366863 92.837256 44.273099 92.837256 
C 44.179336 92.837256 44.0894 92.874509 44.023099 92.94081 
C 43.956799 93.007111 43.919546 93.097046 43.919546 93.19081 
C 43.919546 93.284573 43.956799 93.374509 44.023099 93.44081 
C 44.0894 93.507111 44.179336 93.544363 44.273099 93.544363 
z
" clip-path="url(#p519769b3b2)" style="fill: #fff5f0; stroke: #00ff00; stroke-width: 2"/>
    <path d="M 102.317046 102.875231 
C 103.25468 102.875231 104.154038 102.502704 104.817046 101.839697 
C 105.480054 101.176689 105.85258 100.277331 105.85258 99.339697 
C 105.85258 98.402062 105.480054 97.502704 104.817046 96.839697 
C 104.154038 96.176689 103.25468 95.804163 102.317046 95.804163 
C 101.379411 95.804163 100.480054 96.176689 99.817046 96.839697 
C 99.154038 97.502704 98.781512 98.402062 98.781512 99.339697 
C 98.781512 100.277331 99.154038 101.176689 99.817046 101.839697 
C 100.480054 102.502704 101.379411 102.875231 102.317046 102.875231 
z
" clip-path="url(#p519769b3b2)" style="fill: #67000d; stroke: #00ff00; stroke-width: 2"/>
    <path d="M 51.095278 106.453746 
C 52.032913 106.453746 52.93227 106.08122 53.595278 105.418212 
C 54.258286 104.755204 54.630812 103.855847 54.630812 102.918212 
C 54.630812 101.980578 54.258286 101.08122 53.595278 100.418212 
C 52.93227 99.755204 52.032913 99.382678 51.095278 99.382678 
C 50.157644 99.382678 49.258286 99.755204 48.595278 100.418212 
C 47.93227 101.08122 47.559744 101.980578 47.559744 102.918212 
C 47.559744 103.855847 47.93227 104.755204 48.595278 105.418212 
C 49.258286 106.08122 50.157644 106.453746 51.095278 106.453746 
z
" clip-path="url(#p519769b3b2)" style="fill: #67000d; stroke: #ff0000; stroke-width: 2"/>
    <path d="M 87.764928 107.251234 
C 87.858692 107.251234 87.948627 107.213982 88.014928 107.147681 
C 88.081229 107.08138 88.118482 106.991444 88.118482 106.897681 
C 88.118482 106.803918 88.081229 106.713982 88.014928 106.647681 
C 87.948627 106.58138 87.858692 106.544128 87.764928 106.544128 
C 87.671165 106.544128 87.581229 106.58138 87.514928 106.647681 
C 87.448627 106.713982 87.411375 106.803918 87.411375 106.897681 
C 87.411375 106.991444 87.448627 107.08138 87.514928 107.147681 
C 87.581229 107.213982 87.671165 107.251234 87.764928 107.251234 
z
" clip-path="url(#p519769b3b2)" style="fill: #fff5f0; stroke: #00ff00; stroke-width: 2"/>
    <path d="M 67.86666 108.66563 
C 67.960423 108.66563 68.050359 108.628378 68.11666 108.562077 
C 68.182961 108.495776 68.220213 108.40584 68.220213 108.312077 
C 68.220213 108.218313 68.182961 108.128378 68.11666 108.062077 
C 68.050359 107.995776 67.960423 107.958523 67.86666 107.958523 
C 67.772897 107.958523 67.682961 107.995776 67.61666 108.062077 
C 67.550359 108.128378 67.513107 108.218313 67.513107 108.312077 
C 67.513107 108.40584 67.550359 108.495776 67.61666 108.562077 
C 67.682961 108.628378 67.772897 108.66563 67.86666 108.66563 
z
" clip-path="url(#p519769b3b2)" style="fill: #fff5f0; stroke: #00ff00; stroke-width: 2"/>
   </g>
   <g id="patch_9">
    <path d="M 91.637409 78.126726 
Q 92.40661 78.350161 93.17581 78.573595 
" clip-path="url(#p519769b3b2)" style="fill: none; opacity: 0.525862; stroke: #f9f9f9; stroke-width: 0.051724; stroke-linecap: round"/>
   </g>
   <g id="Path3DCollection_2">
    <path d="M 82.120136 62.930085 
C 82.2139 62.930085 82.303836 62.892832 82.370136 62.826531 
C 82.436437 62.760231 82.47369 62.670295 82.47369 62.576531 
C 82.47369 62.482768 82.436437 62.392832 82.370136 62.326531 
C 82.303836 62.260231 82.2139 62.222978 82.120136 62.222978 
C 82.026373 62.222978 81.936437 62.260231 81.870136 62.326531 
C 81.803836 62.392832 81.766583 62.482768 81.766583 62.576531 
C 81.766583 62.670295 81.803836 62.760231 81.870136 62.826531 
C 81.936437 62.892832 82.026373 62.930085 82.120136 62.930085 
z
" clip-path="url(#p519769b3b2)" style="fill: #f7fbff; stroke: #00ff00; stroke-width: 2"/>
    <path d="M 63.627225 64.090737 
C 63.720988 64.090737 63.810924 64.053484 63.877225 63.987183 
C 63.943526 63.920882 63.980778 63.830947 63.980778 63.737183 
C 63.980778 63.64342 63.943526 63.553484 63.877225 63.487183 
C 63.810924 63.420882 63.720988 63.38363 63.627225 63.38363 
C 63.533461 63.38363 63.443526 63.420882 63.377225 63.487183 
C 63.310924 63.553484 63.273671 63.64342 63.273671 63.737183 
C 63.273671 63.830947 63.310924 63.920882 63.377225 63.987183 
C 63.443526 64.053484 63.533461 64.090737 63.627225 64.090737 
z
" clip-path="url(#p519769b3b2)" style="fill: #f7fbff; stroke: #00ff00; stroke-width: 2"/>
    <path d="M 98.260378 67.447259 
C 98.354142 67.447259 98.444078 67.410007 98.510378 67.343706 
C 98.576679 67.277405 98.613932 67.187469 98.613932 67.093706 
C 98.613932 66.999942 98.576679 66.910007 98.510378 66.843706 
C 98.444078 66.777405 98.354142 66.740152 98.260378 66.740152 
C 98.166615 66.740152 98.076679 66.777405 98.010378 66.843706 
C 97.944078 66.910007 97.906825 66.999942 97.906825 67.093706 
C 97.906825 67.187469 97.944078 67.277405 98.010378 67.343706 
C 98.076679 67.410007 98.166615 67.447259 98.260378 67.447259 
z
" clip-path="url(#p519769b3b2)" style="fill: #f7fbff; stroke: #00ff00; stroke-width: 2"/>
    <path d="M 49.06464 70.585645 
C 49.158403 70.585645 49.248339 70.548392 49.31464 70.482091 
C 49.380941 70.41579 49.418193 70.325855 49.418193 70.232091 
C 49.418193 70.138328 49.380941 70.048392 49.31464 69.982091 
C 49.248339 69.91579 49.158403 69.878538 49.06464 69.878538 
C 48.970876 69.878538 48.880941 69.91579 48.81464 69.982091 
C 48.748339 70.048392 48.711086 70.138328 48.711086 70.232091 
C 48.711086 70.325855 48.748339 70.41579 48.81464 70.482091 
C 48.880941 70.548392 48.970876 70.585645 49.06464 70.585645 
z
" clip-path="url(#p519769b3b2)" style="fill: #f7fbff; stroke: #00ff00; stroke-width: 2"/>
    <path d="M 106.307586 79.44551 
C 107.245221 79.44551 108.144579 79.072983 108.807586 78.409976 
C 109.470594 77.746968 109.84312 76.84761 109.84312 75.909976 
C 109.84312 74.972341 109.470594 74.072983 108.807586 73.409976 
C 108.144579 72.746968 107.245221 72.374442 106.307586 72.374442 
C 105.369952 72.374442 104.470594 72.746968 103.807586 73.409976 
C 103.144579 74.072983 102.772052 74.972341 102.772052 75.909976 
C 102.772052 76.84761 103.144579 77.746968 103.807586 78.409976 
C 104.470594 79.072983 105.369952 79.44551 106.307586 79.44551 
z
" clip-path="url(#p519769b3b2)" style="fill: #08306b; stroke: #00ff00; stroke-width: 2"/>
    <path d="M 43.870409 80.355486 
C 43.964173 80.355486 44.054109 80.318233 44.120409 80.251933 
C 44.18671 80.185632 44.223963 80.095696 44.223963 80.001933 
C 44.223963 79.908169 44.18671 79.818233 44.120409 79.751933 
C 44.054109 79.685632 43.964173 79.648379 43.870409 79.648379 
C 43.776646 79.648379 43.68671 79.685632 43.620409 79.751933 
C 43.554109 79.818233 43.516856 79.908169 43.516856 80.001933 
C 43.516856 80.095696 43.554109 80.185632 43.620409 80.251933 
C 43.68671 80.318233 43.776646 80.355486 43.870409 80.355486 
z
" clip-path="url(#p519769b3b2)" style="fill: #f7fbff; stroke: #00ff00; stroke-width: 2"/>
    <path d="M 102.673669 89.544236 
C 103.611304 89.544236 104.510662 89.17171 105.173669 88.508702 
C 105.836677 87.845694 106.209203 86.946336 106.209203 86.008702 
C 106.209203 85.071067 105.836677 84.17171 105.173669 83.508702 
C 104.510662 82.845694 103.611304 82.473168 102.673669 82.473168 
C 101.736035 82.473168 100.836677 82.845694 100.173669 83.508702 
C 99.510662 84.17171 99.138135 85.071067 99.138135 86.008702 
C 99.138135 86.946336 99.510662 87.845694 100.173669 88.508702 
C 100.836677 89.17171 101.736035 89.544236 102.673669 89.544236 
z
" clip-path="url(#p519769b3b2)" style="fill: #08306b; stroke: #00ff00; stroke-width: 2"/>
    <path d="M 50.772722 93.041242 
C 51.710356 93.041242 52.609714 92.668715 53.272722 92.005708 
C 53.935729 91.3427 54.308256 90.443342 54.308256 89.505708 
C 54.308256 88.568073 53.935729 87.668715 53.272722 87.005708 
C 52.609714 86.3427 51.710356 85.970174 50.772722 85.970174 
C 49.835087 85.970174 48.935729 86.3427 48.272722 87.005708 
C 47.609714 87.668715 47.237188 88.568073 47.237188 89.505708 
C 47.237188 90.443342 47.609714 91.3427 48.272722 92.005708 
C 48.935729 92.668715 49.835087 93.041242 50.772722 93.041242 
z
" clip-path="url(#p519769b3b2)" style="fill: #08306b; stroke: #ff0000; stroke-width: 2"/>
    <path d="M 87.932845 93.749125 
C 88.026608 93.749125 88.116544 93.711872 88.182845 93.645571 
C 88.249145 93.579271 88.286398 93.489335 88.286398 93.395571 
C 88.286398 93.301808 88.249145 93.211872 88.182845 93.145571 
C 88.116544 93.079271 88.026608 93.042018 87.932845 93.042018 
C 87.839081 93.042018 87.749145 93.079271 87.682845 93.145571 
C 87.616544 93.211872 87.579291 93.301808 87.579291 93.395571 
C 87.579291 93.489335 87.616544 93.579271 87.682845 93.645571 
C 87.749145 93.711872 87.839081 93.749125 87.932845 93.749125 
z
" clip-path="url(#p519769b3b2)" style="fill: #f7fbff; stroke: #00ff00; stroke-width: 2"/>
    <path d="M 67.766184 95.131936 
C 67.859947 95.131936 67.949883 95.094683 68.016184 95.028383 
C 68.082484 94.962082 68.119737 94.872146 68.119737 94.778383 
C 68.119737 94.684619 68.082484 94.594683 68.016184 94.528383 
C 67.949883 94.462082 67.859947 94.424829 67.766184 94.424829 
C 67.67242 94.424829 67.582484 94.462082 67.516184 94.528383 
C 67.449883 94.594683 67.41263 94.684619 67.41263 94.778383 
C 67.41263 94.872146 67.449883 94.962082 67.516184 95.028383 
C 67.582484 95.094683 67.67242 95.131936 67.766184 95.131936 
z
" clip-path="url(#p519769b3b2)" style="fill: #f7fbff; stroke: #00ff00; stroke-width: 2"/>
   </g>
   <g id="patch_10">
    <path d="M 88.897752 51.296348 
Q 87.964807 51.045385 87.031862 50.794422 
" clip-path="url(#p519769b3b2)" style="fill: none; opacity: 0.521605; stroke: #fafafa; stroke-width: 0.04321; stroke-linecap: round"/>
   </g>
   <g id="Path3DCollection_3">
    <path d="M 82.205383 49.849648 
C 82.299146 49.849648 82.389082 49.812396 82.455383 49.746095 
C 82.521683 49.679794 82.558936 49.589858 82.558936 49.496095 
C 82.558936 49.402332 82.521683 49.312396 82.455383 49.246095 
C 82.389082 49.179794 82.299146 49.142542 82.205383 49.142542 
C 82.111619 49.142542 82.021683 49.179794 81.955383 49.246095 
C 81.889082 49.312396 81.851829 49.402332 81.851829 49.496095 
C 81.851829 49.589858 81.889082 49.679794 81.955383 49.746095 
C 82.021683 49.812396 82.111619 49.849648 82.205383 49.849648 
z
" clip-path="url(#p519769b3b2)" style="fill: #f7fcf5; stroke: #00ff00; stroke-width: 2"/>
    <path d="M 63.480872 54.161273 
C 64.418506 54.161273 65.317864 53.788747 65.980872 53.125739 
C 66.643879 52.462731 67.016405 51.563373 67.016405 50.625739 
C 67.016405 49.688104 66.643879 48.788747 65.980872 48.125739 
C 65.317864 47.462731 64.418506 47.090205 63.480872 47.090205 
C 62.543237 47.090205 61.643879 47.462731 60.980872 48.125739 
C 60.317864 48.788747 59.945338 49.688104 59.945338 50.625739 
C 59.945338 51.563373 60.317864 52.462731 60.980872 53.125739 
C 61.643879 53.788747 62.543237 54.161273 63.480872 54.161273 
z
" clip-path="url(#p519769b3b2)" style="fill: #00441b; stroke: #00ff00; stroke-width: 2"/>
    <path d="M 98.551207 54.246689 
C 98.64497 54.246689 98.734906 54.209437 98.801207 54.143136 
C 98.867508 54.076835 98.90476 53.986899 98.90476 53.893136 
C 98.90476 53.799372 98.867508 53.709437 98.801207 53.643136 
C 98.734906 53.576835 98.64497 53.539583 98.551207 53.539583 
C 98.457443 53.539583 98.367508 53.576835 98.301207 53.643136 
C 98.234906 53.709437 98.197653 53.799372 98.197653 53.893136 
C 98.197653 53.986899 98.234906 54.076835 98.301207 54.143136 
C 98.367508 54.209437 98.457443 54.246689 98.551207 54.246689 
z
" clip-path="url(#p519769b3b2)" style="fill: #f7fcf5; stroke: #00ff00; stroke-width: 2"/>
    <path d="M 48.729284 57.302476 
C 48.823047 57.302476 48.912983 57.265224 48.979284 57.198923 
C 49.045585 57.132622 49.082837 57.042686 49.082837 56.948923 
C 49.082837 56.85516 49.045585 56.765224 48.979284 56.698923 
C 48.912983 56.632622 48.823047 56.59537 48.729284 56.59537 
C 48.63552 56.59537 48.545585 56.632622 48.479284 56.698923 
C 48.412983 56.765224 48.375731 56.85516 48.375731 56.948923 
C 48.375731 57.042686 48.412983 57.132622 48.479284 57.198923 
C 48.545585 57.265224 48.63552 57.302476 48.729284 57.302476 
z
" clip-path="url(#p519769b3b2)" style="fill: #f7fcf5; stroke: #00ff00; stroke-width: 2"/>
    <path d="M 106.710597 66.014713 
C 107.648231 66.014713 108.547589 65.642187 109.210597 64.979179 
C 109.873604 64.316171 110.246131 63.416813 110.246131 62.479179 
C 110.246131 61.541544 109.873604 60.642187 109.210597 59.979179 
C 108.547589 59.316171 107.648231 58.943645 106.710597 58.943645 
C 105.772962 58.943645 104.873604 59.316171 104.210597 59.979179 
C 103.547589 60.642187 103.175063 61.541544 103.175063 62.479179 
C 103.175063 63.416813 103.547589 64.316171 104.210597 64.979179 
C 104.873604 65.642187 105.772962 66.014713 106.710597 66.014713 
z
" clip-path="url(#p519769b3b2)" style="fill: #00441b; stroke: #00ff00; stroke-width: 2"/>
    <path d="M 43.457128 66.819739 
C 43.550892 66.819739 43.640828 66.782486 43.707128 66.716185 
C 43.773429 66.649885 43.810682 66.559949 43.810682 66.466185 
C 43.810682 66.372422 43.773429 66.282486 43.707128 66.216185 
C 43.640828 66.149885 43.550892 66.112632 43.457128 66.112632 
C 43.363365 66.112632 43.273429 66.149885 43.207128 66.216185 
C 43.140828 66.282486 43.103575 66.372422 43.103575 66.466185 
C 43.103575 66.559949 43.140828 66.649885 43.207128 66.716185 
C 43.273429 66.782486 43.363365 66.819739 43.457128 66.819739 
z
" clip-path="url(#p519769b3b2)" style="fill: #f7fcf5; stroke: #00ff00; stroke-width: 2"/>
    <path d="M 103.039833 75.856618 
C 103.977467 75.856618 104.876825 75.484092 105.539833 74.821084 
C 106.202841 74.158076 106.575367 73.258719 106.575367 72.321084 
C 106.575367 71.38345 106.202841 70.484092 105.539833 69.821084 
C 104.876825 69.158076 103.977467 68.78555 103.039833 68.78555 
C 102.102198 68.78555 101.202841 69.158076 100.539833 69.821084 
C 99.876825 70.484092 99.504299 71.38345 99.504299 72.321084 
C 99.504299 73.258719 99.876825 74.158076 100.539833 74.821084 
C 101.202841 75.484092 102.102198 75.856618 103.039833 75.856618 
z
" clip-path="url(#p519769b3b2)" style="fill: #00441b; stroke: #00ff00; stroke-width: 2"/>
    <path d="M 50.441452 76.084429 
C 50.535215 76.084429 50.625151 76.047176 50.691452 75.980876 
C 50.757752 75.914575 50.795005 75.824639 50.795005 75.730876 
C 50.795005 75.637112 50.757752 75.547176 50.691452 75.480876 
C 50.625151 75.414575 50.535215 75.377322 50.441452 75.377322 
C 50.347688 75.377322 50.257752 75.414575 50.191452 75.480876 
C 50.125151 75.547176 50.087898 75.637112 50.087898 75.730876 
C 50.087898 75.824639 50.125151 75.914575 50.191452 75.980876 
C 50.257752 76.047176 50.347688 76.084429 50.441452 76.084429 
z
" clip-path="url(#p519769b3b2)" style="fill: #f7fcf5; stroke: #ff0000; stroke-width: 2"/>
    <path d="M 88.105346 83.0603 
C 89.042981 83.0603 89.942339 82.687774 90.605346 82.024766 
C 91.268354 81.361758 91.64088 80.4624 91.64088 79.524766 
C 91.64088 78.587131 91.268354 77.687774 90.605346 77.024766 
C 89.942339 76.361758 89.042981 75.989232 88.105346 75.989232 
C 87.167712 75.989232 86.268354 76.361758 85.605346 77.024766 
C 84.942339 77.687774 84.569813 78.587131 84.569813 79.524766 
C 84.569813 80.4624 84.942339 81.361758 85.605346 82.024766 
C 86.268354 82.687774 87.167712 83.0603 88.105346 83.0603 
z
" clip-path="url(#p519769b3b2)" style="fill: #00441b; stroke: #00ff00; stroke-width: 2"/>
    <path d="M 67.662953 81.227276 
C 67.756716 81.227276 67.846652 81.190024 67.912953 81.123723 
C 67.979254 81.057422 68.016506 80.967486 68.016506 80.873723 
C 68.016506 80.77996 67.979254 80.690024 67.912953 80.623723 
C 67.846652 80.557422 67.756716 80.52017 67.662953 80.52017 
C 67.569189 80.52017 67.479254 80.557422 67.412953 80.623723 
C 67.346652 80.690024 67.3094 80.77996 67.3094 80.873723 
C 67.3094 80.967486 67.346652 81.057422 67.412953 81.123723 
C 67.479254 81.190024 67.569189 81.227276 67.662953 81.227276 
z
" clip-path="url(#p519769b3b2)" style="fill: #f7fcf5; stroke: #00ff00; stroke-width: 2"/>
   </g>
   <g id="patch_11">
    <path d="M 91.858837 52.092883 
Q 92.791782 52.343846 93.724727 52.594809 
" clip-path="url(#p519769b3b2)" style="fill: none; opacity: 0.521605; stroke: #fafafa; stroke-width: 0.04321; stroke-linecap: round"/>
   </g>
   <g id="Path3DCollection_4">
    <path d="M 82.292786 36.438163 
C 82.38655 36.438163 82.476485 36.400911 82.542786 36.33461 
C 82.609087 36.268309 82.64634 36.178373 82.64634 36.08461 
C 82.64634 35.990846 82.609087 35.900911 82.542786 35.83461 
C 82.476485 35.768309 82.38655 35.731056 82.292786 35.731056 
C 82.199023 35.731056 82.109087 35.768309 82.042786 35.83461 
C 81.976485 35.900911 81.939233 35.990846 81.939233 36.08461 
C 81.939233 36.178373 81.976485 36.268309 82.042786 36.33461 
C 82.109087 36.400911 82.199023 36.438163 82.292786 36.438163 
z
" clip-path="url(#p519769b3b2)" style="fill: #fff5eb; stroke: #00ff00; stroke-width: 2"/>
    <path d="M 63.330801 40.716825 
C 64.268436 40.716825 65.167793 40.344299 65.830801 39.681291 
C 66.493809 39.018283 66.866335 38.118925 66.866335 37.181291 
C 66.866335 36.243656 66.493809 35.344299 65.830801 34.681291 
C 65.167793 34.018283 64.268436 33.645757 63.330801 33.645757 
C 62.393167 33.645757 61.493809 34.018283 60.830801 34.681291 
C 60.167793 35.344299 59.795267 36.243656 59.795267 37.181291 
C 59.795267 38.118925 60.167793 39.018283 60.830801 39.681291 
C 61.493809 40.344299 62.393167 40.716825 63.330801 40.716825 
z
" clip-path="url(#p519769b3b2)" style="fill: #7f2704; stroke: #00ff00; stroke-width: 2"/>
    <path d="M 98.849497 40.707443 
C 98.94326 40.707443 99.033196 40.67019 99.099497 40.603889 
C 99.165797 40.537588 99.20305 40.447653 99.20305 40.353889 
C 99.20305 40.260126 99.165797 40.17019 99.099497 40.103889 
C 99.033196 40.037588 98.94326 40.000336 98.849497 40.000336 
C 98.755733 40.000336 98.665797 40.037588 98.599497 40.103889 
C 98.533196 40.17019 98.495943 40.260126 98.495943 40.353889 
C 98.495943 40.447653 98.533196 40.537588 98.599497 40.603889 
C 98.665797 40.67019 98.755733 40.707443 98.849497 40.707443 
z
" clip-path="url(#p519769b3b2)" style="fill: #fff5eb; stroke: #00ff00; stroke-width: 2"/>
    <path d="M 48.385243 43.675303 
C 48.479006 43.675303 48.568942 43.63805 48.635243 43.57175 
C 48.701544 43.505449 48.738796 43.415513 48.738796 43.32175 
C 48.738796 43.227986 48.701544 43.13805 48.635243 43.07175 
C 48.568942 43.005449 48.479006 42.968196 48.385243 42.968196 
C 48.29148 42.968196 48.201544 43.005449 48.135243 43.07175 
C 48.068942 43.13805 48.03169 43.227986 48.03169 43.32175 
C 48.03169 43.415513 48.068942 43.505449 48.135243 43.57175 
C 48.201544 43.63805 48.29148 43.675303 48.385243 43.675303 
z
" clip-path="url(#p519769b3b2)" style="fill: #fff5eb; stroke: #00ff00; stroke-width: 2"/>
    <path d="M 107.12422 52.230213 
C 108.061855 52.230213 108.961213 51.857687 109.62422 51.194679 
C 110.287228 50.531671 110.659754 49.632314 110.659754 48.694679 
C 110.659754 47.757045 110.287228 46.857687 109.62422 46.194679 
C 108.961213 45.531671 108.061855 45.159145 107.12422 45.159145 
C 106.186586 45.159145 105.287228 45.531671 104.62422 46.194679 
C 103.961213 46.857687 103.588686 47.757045 103.588686 48.694679 
C 103.588686 49.632314 103.961213 50.531671 104.62422 51.194679 
C 105.287228 51.857687 106.186586 52.230213 107.12422 52.230213 
z
" clip-path="url(#p519769b3b2)" style="fill: #7f2704; stroke: #00ff00; stroke-width: 2"/>
    <path d="M 43.032833 52.923255 
C 43.126597 52.923255 43.216533 52.886003 43.282833 52.819702 
C 43.349134 52.753401 43.386387 52.663465 43.386387 52.569702 
C 43.386387 52.475938 43.349134 52.386003 43.282833 52.319702 
C 43.216533 52.253401 43.126597 52.216148 43.032833 52.216148 
C 42.93907 52.216148 42.849134 52.253401 42.782833 52.319702 
C 42.716533 52.386003 42.67928 52.475938 42.67928 52.569702 
C 42.67928 52.663465 42.716533 52.753401 42.782833 52.819702 
C 42.849134 52.886003 42.93907 52.923255 43.032833 52.923255 
z
" clip-path="url(#p519769b3b2)" style="fill: #fff5eb; stroke: #00ff00; stroke-width: 2"/>
    <path d="M 103.415925 61.797874 
C 104.353559 61.797874 105.252917 61.425347 105.915925 60.76234 
C 106.578932 60.099332 106.951459 59.199974 106.951459 58.26234 
C 106.951459 57.324705 106.578932 56.425347 105.915925 55.76234 
C 105.252917 55.099332 104.353559 54.726806 103.415925 54.726806 
C 102.47829 54.726806 101.578932 55.099332 100.915925 55.76234 
C 100.252917 56.425347 99.880391 57.324705 99.880391 58.26234 
C 99.880391 59.199974 100.252917 60.099332 100.915925 60.76234 
C 101.578932 61.425347 102.47829 61.797874 103.415925 61.797874 
z
" clip-path="url(#p519769b3b2)" style="fill: #7f2704; stroke: #00ff00; stroke-width: 2"/>
    <path d="M 50.10111 65.114367 
C 51.038745 65.114367 51.938102 64.741841 52.60111 64.078833 
C 53.264118 63.415825 53.636644 62.516467 53.636644 61.578833 
C 53.636644 60.641198 53.264118 59.741841 52.60111 59.078833 
C 51.938102 58.415825 51.038745 58.043299 50.10111 58.043299 
C 49.163475 58.043299 48.264118 58.415825 47.60111 59.078833 
C 46.938102 59.741841 46.565576 60.641198 46.565576 61.578833 
C 46.565576 62.516467 46.938102 63.415825 47.60111 64.078833 
C 48.264118 64.741841 49.163475 65.114367 50.10111 65.114367 
z
" clip-path="url(#p519769b3b2)" style="fill: #7f2704; stroke: #ff0000; stroke-width: 2"/>
    <path d="M 88.282624 65.623507 
C 88.376387 65.623507 88.466323 65.586254 88.532624 65.519954 
C 88.598925 65.453653 88.636177 65.363717 88.636177 65.269954 
C 88.636177 65.17619 88.598925 65.086254 88.532624 65.019954 
C 88.466323 64.953653 88.376387 64.9164 88.282624 64.9164 
C 88.18886 64.9164 88.098925 64.953653 88.032624 65.019954 
C 87.966323 65.086254 87.92907 65.17619 87.92907 65.269954 
C 87.92907 65.363717 87.966323 65.453653 88.032624 65.519954 
C 88.098925 65.586254 88.18886 65.623507 88.282624 65.623507 
z
" clip-path="url(#p519769b3b2)" style="fill: #fff5eb; stroke: #00ff00; stroke-width: 2"/>
    <path d="M 67.556853 66.936187 
C 67.650617 66.936187 67.740553 66.898935 67.806853 66.832634 
C 67.873154 66.766333 67.910407 66.676397 67.910407 66.582634 
C 67.910407 66.48887 67.873154 66.398935 67.806853 66.332634 
C 67.740553 66.266333 67.650617 66.229081 67.556853 66.229081 
C 67.46309 66.229081 67.373154 66.266333 67.306853 66.332634 
C 67.240553 66.398935 67.2033 66.48887 67.2033 66.582634 
C 67.2033 66.676397 67.240553 66.766333 67.306853 66.832634 
C 67.373154 66.898935 67.46309 66.936187 67.556853 66.936187 
z
" clip-path="url(#p519769b3b2)" style="fill: #fff5eb; stroke: #00ff00; stroke-width: 2"/>
   </g>
   <g id="patch_12">
    <path d="M 96.327773 86.163253 
Q 82.447398 82.055384 68.567023 77.947514 
" clip-path="url(#p519769b3b2)" style="fill: none; opacity: 0.727011; stroke: #a5a5a5; stroke-width: 0.454023; stroke-linecap: round"/>
   </g>
   <g id="patch_13">
    <path d="M 73.357011 79.365102 
Q 87.237386 83.472971 101.11776 87.580841 
" clip-path="url(#p519769b3b2)" style="fill: none; opacity: 0.727011; stroke: #a5a5a5; stroke-width: 0.454023; stroke-linecap: round"/>
   </g>
   <g id="patch_14">
    <path d="M 89.16851 37.85757 
Q 88.152931 37.595695 87.137351 37.333819 
" clip-path="url(#p519769b3b2)" style="fill: none; opacity: 0.514228; stroke: #fcfcfc; stroke-width: 0.028455; stroke-linecap: round"/>
   </g>
   <g id="patch_15">
    <path d="M 91.973773 38.580929 
Q 92.989352 38.842804 94.004932 39.10468 
" clip-path="url(#p519769b3b2)" style="fill: none; opacity: 0.514228; stroke: #fcfcfc; stroke-width: 0.028455; stroke-linecap: round"/>
   </g>
   <g id="patch_16">
    <path d="M 96.692522 73.16768 
Q 82.563485 69.137961 68.434448 65.108243 
" clip-path="url(#p519769b3b2)" style="fill: none; opacity: 0.718487; stroke: #aaaaaa; stroke-width: 0.436975; stroke-linecap: round"/>
   </g>
   <g id="patch_17">
    <path d="M 73.242289 66.479479 
Q 87.371326 70.509197 101.500364 74.538916 
" clip-path="url(#p519769b3b2)" style="fill: none; opacity: 0.718487; stroke: #aaaaaa; stroke-width: 0.436975; stroke-linecap: round"/>
   </g>
   <g id="patch_18">
    <path d="M 97.066758 59.834872 
Q 82.686571 55.891875 68.306383 51.948877 
" clip-path="url(#p519769b3b2)" style="fill: none; opacity: 0.648148; stroke: #cfcfcf; stroke-width: 0.296296; stroke-linecap: round"/>
   </g>
   <g id="patch_19">
    <path d="M 73.12471 53.270046 
Q 87.504898 57.213043 101.885085 61.15604 
" clip-path="url(#p519769b3b2)" style="fill: none; opacity: 0.648148; stroke: #cfcfcf; stroke-width: 0.296296; stroke-linecap: round"/>
   </g>
   <g id="patch_20">
    <path d="M 105.60297 89.896607 
Q 105.758878 89.448559 105.914786 89.000511 
" clip-path="url(#p519769b3b2)" style="fill: none; opacity: 0.856322; stroke: #5c5c5c; stroke-width: 0.712644; stroke-linecap: round"/>
   </g>
   <g id="patch_21">
    <path d="M 93.71313 94.247964 
Q 80.89263 86.660889 68.07213 79.073814 
" clip-path="url(#p519769b3b2)" style="fill: none; stroke: #000000; stroke-linecap: round"/>
   </g>
   <g id="patch_22">
    <path d="M 102.628862 98.4436 
Q 102.472954 98.891648 102.317046 99.339697 
" clip-path="url(#p519769b3b2)" style="fill: none; opacity: 0.856322; stroke: #5c5c5c; stroke-width: 0.712644; stroke-linecap: round"/>
   </g>
   <g id="patch_23">
    <path d="M 72.373913 81.619577 
Q 85.194413 89.206652 98.014914 96.793727 
" clip-path="url(#p519769b3b2)" style="fill: none; stroke: #000000; stroke-linecap: round"/>
   </g>
   <g id="patch_24">
    <path d="M 92.340931 100.03666 
Q 74.211624 101.303231 56.082317 102.569802 
" clip-path="url(#p519769b3b2)" style="fill: none; opacity: 0.735632; stroke: #9f9f9f; stroke-width: 0.471264; stroke-linecap: round"/>
   </g>
   <g id="patch_25">
    <path d="M 96.221664 91.461423 
Q 76.080874 96.574812 55.940085 101.688202 
" clip-path="url(#p519769b3b2)" style="fill: none; opacity: 0.758621; stroke: #919191; stroke-width: 0.517241; stroke-linecap: round"/>
   </g>
   <g id="patch_26">
    <path d="M 61.071393 102.221249 
Q 79.2007 100.954678 97.330007 99.688107 
" clip-path="url(#p519769b3b2)" style="fill: none; opacity: 0.735632; stroke: #9f9f9f; stroke-width: 0.471264; stroke-linecap: round"/>
   </g>
   <g id="patch_27">
    <path d="M 60.7884 100.4573 
Q 80.92919 95.343911 101.069979 90.230521 
" clip-path="url(#p519769b3b2)" style="fill: none; opacity: 0.758621; stroke: #919191; stroke-width: 0.517241; stroke-linecap: round"/>
   </g>
   <g id="patch_28">
    <path d="M 97.450857 46.15153 
Q 82.808638 42.302058 68.16642 38.452586 
" clip-path="url(#p519769b3b2)" style="fill: none; opacity: 0.672764; stroke: #c4c4c4; stroke-width: 0.345528; stroke-linecap: round"/>
   </g>
   <g id="patch_29">
    <path d="M 73.004165 39.72444 
Q 87.646383 43.573912 102.288602 47.423384 
" clip-path="url(#p519769b3b2)" style="fill: none; opacity: 0.672764; stroke: #c4c4c4; stroke-width: 0.345528; stroke-linecap: round"/>
   </g>
   <g id="patch_30">
    <path d="M 106.060061 76.597853 
Q 106.183824 76.253914 106.307586 75.909976 
" clip-path="url(#p519769b3b2)" style="fill: none; opacity: 0.97479; stroke: #0f0f0f; stroke-width: 0.94958; stroke-linecap: round"/>
   </g>
   <g id="patch_31">
    <path d="M 93.986884 81.053887 
Q 80.976925 73.633197 67.966966 66.212508 
" clip-path="url(#p519769b3b2)" style="fill: none; stroke: #000000; stroke-linecap: round"/>
   </g>
   <g id="patch_32">
    <path d="M 102.921194 85.320825 
Q 102.797432 85.664763 102.673669 86.008702 
" clip-path="url(#p519769b3b2)" style="fill: none; opacity: 0.97479; stroke: #0f0f0f; stroke-width: 0.94958; stroke-linecap: round"/>
   </g>
   <g id="patch_33">
    <path d="M 72.31401 68.691998 
Q 85.323969 76.112687 98.333928 83.533377 
" clip-path="url(#p519769b3b2)" style="fill: none; stroke: #000000; stroke-linecap: round"/>
   </g>
   <g id="patch_34">
    <path d="M 69.970836 84.376104 
Q 77.318067 93.675327 84.665298 102.97455 
" clip-path="url(#p519769b3b2)" style="fill: none; opacity: 0.836207; stroke: #676767; stroke-width: 0.672414; stroke-linecap: round"/>
   </g>
   <g id="patch_35">
    <path d="M 53.810828 96.196717 
Q 68.402553 100.795441 82.994278 105.394164 
" clip-path="url(#p519769b3b2)" style="fill: none; opacity: 0.727011; stroke: #a5a5a5; stroke-width: 0.454023; stroke-linecap: round"/>
   </g>
   <g id="patch_36">
    <path d="M 81.56409 99.049421 
Q 74.216859 89.750198 66.869627 80.450975 
" clip-path="url(#p519769b3b2)" style="fill: none; opacity: 0.836207; stroke: #676767; stroke-width: 0.672414; stroke-linecap: round"/>
   </g>
   <g id="patch_37">
    <path d="M 78.2272 103.891773 
Q 63.635475 99.29305 49.04375 94.694327 
" clip-path="url(#p519769b3b2)" style="fill: none; opacity: 0.727011; stroke: #a5a5a5; stroke-width: 0.454023; stroke-linecap: round"/>
   </g>
   <g id="patch_38">
    <path d="M 92.698322 86.680825 
Q 74.229205 87.925246 55.760087 89.169667 
" clip-path="url(#p519769b3b2)" style="fill: none; opacity: 0.911765; stroke: #383838; stroke-width: 0.823529; stroke-linecap: round"/>
   </g>
   <g id="patch_39">
    <path d="M 96.596442 78.287403 
Q 76.113653 83.301884 55.630864 88.316365 
" clip-path="url(#p519769b3b2)" style="fill: none; opacity: 0.731092; stroke: #a2a2a2; stroke-width: 0.462185; stroke-linecap: round"/>
   </g>
   <g id="patch_40">
    <path d="M 49.746475 88.092671 
Q 50.259598 88.799189 50.772722 89.505708 
" clip-path="url(#p519769b3b2)" style="fill: none; opacity: 0.731092; stroke: #a2a2a2; stroke-width: 0.462185; stroke-linecap: round"/>
   </g>
   <g id="patch_41">
    <path d="M 60.748069 88.833584 
Q 79.217186 87.589163 97.686304 86.344743 
" clip-path="url(#p519769b3b2)" style="fill: none; opacity: 0.911765; stroke: #383838; stroke-width: 0.823529; stroke-linecap: round"/>
   </g>
   <g id="patch_42">
    <path d="M 60.483866 87.12828 
Q 80.966655 82.113799 101.449444 77.099319 
" clip-path="url(#p519769b3b2)" style="fill: none; opacity: 0.731092; stroke: #a2a2a2; stroke-width: 0.462185; stroke-linecap: round"/>
   </g>
   <g id="patch_43">
    <path d="M 44.896656 81.41497 
Q 44.383533 80.708451 43.870409 80.001933 
" clip-path="url(#p519769b3b2)" style="fill: none; opacity: 0.731092; stroke: #a2a2a2; stroke-width: 0.462185; stroke-linecap: round"/>
   </g>
   <g id="patch_44">
    <path d="M 78.087895 84.52745 
Q 73.964839 94.121725 69.841784 103.716 
" clip-path="url(#p519769b3b2)" style="fill: none; opacity: 0.597701; stroke: #e4e4e4; stroke-width: 0.195402; stroke-linecap: round"/>
   </g>
   <g id="patch_45">
    <path d="M 60.615167 105.979915 
Q 61.859747 106.380186 63.104327 106.780457 
" clip-path="url(#p519769b3b2)" style="fill: none; opacity: 0.646552; stroke: #d0d0d0; stroke-width: 0.293103; stroke-linecap: round"/>
   </g>
   <g id="patch_46">
    <path d="M 71.815734 99.122654 
Q 75.93879 89.528379 80.061845 79.934104 
" clip-path="url(#p519769b3b2)" style="fill: none; opacity: 0.597701; stroke: #e4e4e4; stroke-width: 0.195402; stroke-linecap: round"/>
   </g>
   <g id="patch_47">
    <path d="M 58.346772 105.250374 
Q 57.102192 104.850103 55.857611 104.449832 
" clip-path="url(#p519769b3b2)" style="fill: none; opacity: 0.646552; stroke: #d0d0d0; stroke-width: 0.293103; stroke-linecap: round"/>
   </g>
   <g id="patch_48">
    <path d="M 106.534049 62.952532 
Q 106.622323 62.715855 106.710597 62.479179 
" clip-path="url(#p519769b3b2)" style="fill: none; opacity: 0.845679; stroke: #626262; stroke-width: 0.691358; stroke-linecap: round"/>
   </g>
   <g id="patch_49">
    <path d="M 94.272829 67.512991 
Q 81.070101 60.272211 67.867372 53.03143 
" clip-path="url(#p519769b3b2)" style="fill: none; stroke: #000000; stroke-linecap: round"/>
   </g>
   <g id="patch_50">
    <path d="M 103.216381 71.847731 
Q 103.128107 72.084408 103.039833 72.321084 
" clip-path="url(#p519769b3b2)" style="fill: none; opacity: 0.845679; stroke: #626262; stroke-width: 0.691358; stroke-linecap: round"/>
   </g>
   <g id="patch_51">
    <path d="M 72.247875 55.433832 
Q 85.450604 62.674613 98.653332 69.915393 
" clip-path="url(#p519769b3b2)" style="fill: none; stroke: #000000; stroke-linecap: round"/>
   </g>
   <g id="patch_52">
    <path d="M 96.974084 64.772182 
Q 76.140336 69.678645 55.306588 74.585109 
" clip-path="url(#p519769b3b2)" style="fill: none; opacity: 0.685185; stroke: #bebebe; stroke-width: 0.37037; stroke-linecap: round"/>
   </g>
   <g id="patch_53">
    <path d="M 60.177964 73.437873 
Q 81.011712 68.531409 101.84546 63.624946 
" clip-path="url(#p519769b3b2)" style="fill: none; opacity: 0.685185; stroke: #bebebe; stroke-width: 0.37037; stroke-linecap: round"/>
   </g>
   <g id="patch_54">
    <path d="M 107.029159 48.939944 
Q 107.07669 48.817311 107.12422 48.694679 
" clip-path="url(#p519769b3b2)" style="fill: none; stroke: #000000; stroke-linecap: round"/>
   </g>
   <g id="patch_55">
    <path d="M 94.566566 53.6084 
Q 81.162107 46.5589 67.757647 39.5094 
" clip-path="url(#p519769b3b2)" style="fill: none; opacity: 0.924797; stroke: #2e2e2e; stroke-width: 0.849593; stroke-linecap: round"/>
   </g>
   <g id="patch_56">
    <path d="M 103.510986 58.017075 
Q 103.463455 58.139707 103.415925 58.26234 
" clip-path="url(#p519769b3b2)" style="fill: none; stroke: #000000; stroke-linecap: round"/>
   </g>
   <g id="patch_57">
    <path d="M 72.18016 41.835231 
Q 85.584619 48.88473 98.989079 55.93423 
" clip-path="url(#p519769b3b2)" style="fill: none; opacity: 0.924797; stroke: #2e2e2e; stroke-width: 0.849593; stroke-linecap: round"/>
   </g>
   <g id="patch_58">
    <path d="M 94.030283 76.66686 
Q 93.320043 77.009446 92.609803 77.352032 
" clip-path="url(#p519769b3b2)" style="fill: none; opacity: 0.648148; stroke: #cfcfcf; stroke-width: 0.296296; stroke-linecap: round"/>
   </g>
   <g id="patch_59">
    <path d="M 69.964635 58.235016 
Q 77.412912 66.976236 84.861188 75.717456 
" clip-path="url(#p519769b3b2)" style="fill: none; opacity: 0.632716; stroke: #d6d6d6; stroke-width: 0.265432; stroke-linecap: round"/>
   </g>
   <g id="patch_60">
    <path d="M 53.057694 69.274131 
Q 68.183546 73.698096 83.309397 78.122061 
" clip-path="url(#p519769b3b2)" style="fill: none; opacity: 0.617284; stroke: #dcdcdc; stroke-width: 0.234568; stroke-linecap: round"/>
   </g>
   <g id="patch_61">
    <path d="M 97.114896 75.17899 
Q 97.825136 74.836404 98.535377 74.493818 
" clip-path="url(#p519769b3b2)" style="fill: none; opacity: 0.648148; stroke: #cfcfcf; stroke-width: 0.296296; stroke-linecap: round"/>
   </g>
   <g id="patch_62">
    <path d="M 81.621583 71.915488 
Q 74.173306 63.174269 66.725029 54.433049 
" clip-path="url(#p519769b3b2)" style="fill: none; opacity: 0.632716; stroke: #d6d6d6; stroke-width: 0.265432; stroke-linecap: round"/>
   </g>
   <g id="patch_63">
    <path d="M 78.504781 76.71682 
Q 63.378929 72.292856 48.253078 67.868891 
" clip-path="url(#p519769b3b2)" style="fill: none; opacity: 0.617284; stroke: #dcdcdc; stroke-width: 0.234568; stroke-linecap: round"/>
   </g>
   <g id="patch_64">
    <path d="M 93.435667 58.88317 
Q 74.263881 60.075767 55.092096 61.268364 
" clip-path="url(#p519769b3b2)" style="fill: none; opacity: 0.859756; stroke: #5b5b5b; stroke-width: 0.719512; stroke-linecap: round"/>
   </g>
   <g id="patch_65">
    <path d="M 97.368619 50.89892 
Q 76.174115 55.687737 54.979611 60.476554 
" clip-path="url(#p519769b3b2)" style="fill: none; opacity: 0.788618; stroke: #818181; stroke-width: 0.577236; stroke-linecap: round"/>
   </g>
   <g id="patch_66">
    <path d="M 49.205496 60.437295 
Q 49.653303 61.008064 50.10111 61.578833 
" clip-path="url(#p519769b3b2)" style="fill: none; opacity: 0.851626; stroke: #5f5f5f; stroke-width: 0.703252; stroke-linecap: round"/>
   </g>
   <g id="patch_67">
    <path d="M 60.081367 60.958003 
Q 79.253153 59.765405 98.424939 58.572808 
" clip-path="url(#p519769b3b2)" style="fill: none; opacity: 0.859756; stroke: #5b5b5b; stroke-width: 0.719512; stroke-linecap: round"/>
   </g>
   <g id="patch_68">
    <path d="M 59.856712 59.374592 
Q 81.051216 54.585775 102.24572 49.796958 
" clip-path="url(#p519769b3b2)" style="fill: none; opacity: 0.788618; stroke: #818181; stroke-width: 0.577236; stroke-linecap: round"/>
   </g>
   <g id="patch_69">
    <path d="M 43.928448 53.71124 
Q 43.48064 53.140471 43.032833 52.569702 
" clip-path="url(#p519769b3b2)" style="fill: none; opacity: 0.851626; stroke: #5f5f5f; stroke-width: 0.703252; stroke-linecap: round"/>
   </g>
   <g id="patch_70">
    <path d="M 77.999936 58.570021 
Q 73.883187 67.452568 69.766438 76.335116 
" clip-path="url(#p519769b3b2)" style="fill: none; opacity: 0.540123; stroke: #f6f6f6; stroke-width: 0.080247; stroke-linecap: round"/>
   </g>
   <g id="patch_71">
    <path d="M 71.868399 71.799797 
Q 75.985148 62.91725 80.101897 54.034702 
" clip-path="url(#p519769b3b2)" style="fill: none; opacity: 0.540123; stroke: #f6f6f6; stroke-width: 0.080247; stroke-linecap: round"/>
   </g>
   <g id="patch_72">
    <path d="M 69.973858 44.659486 
Q 77.468786 53.096645 84.963713 61.533803 
" clip-path="url(#p519769b3b2)" style="fill: none; opacity: 0.74187; stroke: #9c9c9c; stroke-width: 0.48374; stroke-linecap: round"/>
   </g>
   <g id="patch_73">
    <path d="M 52.663328 55.272691 
Q 68.066325 59.595848 83.469323 63.919005 
" clip-path="url(#p519769b3b2)" style="fill: none; opacity: 0.699187; stroke: #b6b6b6; stroke-width: 0.398374; stroke-linecap: round"/>
   </g>
   <g id="patch_74">
    <path d="M 81.639567 57.791759 
Q 74.144639 49.3546 66.649712 40.917441 
" clip-path="url(#p519769b3b2)" style="fill: none; opacity: 0.74187; stroke: #9c9c9c; stroke-width: 0.48374; stroke-linecap: round"/>
   </g>
   <g id="patch_75">
    <path d="M 78.652129 62.566964 
Q 63.249132 58.243807 47.846134 53.92065 
" clip-path="url(#p519769b3b2)" style="fill: none; opacity: 0.699187; stroke: #b6b6b6; stroke-width: 0.398374; stroke-linecap: round"/>
   </g>
  </g>
 </g>
 <defs>
  <clipPath id="p519769b3b2">
   <rect x="18.36" y="17.28" width="110.88" height="110.88"/>
  </clipPath>
 </defs>
</svg>
